<?xml version="1.0" standalone="no"?>
<!DOCTYPE svg PUBLIC "-//W3C//DTD SVG 20010904//EN"
 "http://www.w3.org/TR/2001/REC-SVG-20010904/DTD/svg10.dtd">
<svg version="1.0" xmlns="http://www.w3.org/2000/svg"
 width="4000.000000pt" height="4000.000000pt" viewBox="0 0 4000.000000 4000.000000"
 preserveAspectRatio="xMidYMid meet">
<metadata>
Created by potrace 1.16, written by Peter Selinger 2001-2019
</metadata>
<g transform="translate(0.000000,4000.000000) scale(0.100000,-0.100000)"
fill="#ffffff" stroke="none">
<path d="M31740 36383 c-113 -19 -243 -88 -335 -177 -204 -199 -305 -490 -305
-881 0 -200 9 -280 65 -580 124 -665 183 -1160 173 -1448 l-4 -124 -84 -144
c-204 -351 -418 -673 -427 -643 -1 5 -27 158 -58 339 -98 583 -197 950 -285
1056 -39 48 -86 69 -152 69 -108 0 -141 -48 -137 -201 1 -44 0 -82 -3 -84 -3
-3 -34 8 -69 24 -141 66 -270 63 -417 -10 -66 -32 -103 -60 -177 -132 -170
-168 -280 -384 -357 -702 -19 -80 -22 -121 -23 -370 -2 -304 -3 -306 -77 -665
-41 -200 -106 -440 -153 -565 -40 -106 -134 -282 -176 -329 l-37 -41 -21 46
c-54 121 -72 470 -43 854 31 426 44 1370 22 1610 -11 119 -68 410 -100 515
-48 156 -197 266 -335 246 -241 -37 -463 -539 -655 -1481 -72 -357 -131 -572
-204 -750 l-24 -59 -21 68 c-48 157 -52 401 -10 751 11 99 22 250 23 335 1
144 -1 158 -23 203 -28 57 -75 91 -146 107 -66 15 -128 5 -165 -27 -99 -83
-171 -391 -174 -743 l-2 -175 -57 -182 c-77 -247 -147 -434 -217 -579 -53
-112 -146 -264 -170 -279 -27 -17 -99 181 -130 359 -35 208 -54 483 -70 1041
-5 171 -14 334 -21 364 -36 169 -344 278 -445 158 -138 -164 -178 -751 -86
-1258 18 -94 17 -99 -5 -270 -50 -381 -138 -795 -223 -1051 -63 -189 -190
-428 -233 -436 -22 -5 -53 85 -71 211 -18 119 -21 441 -6 577 21 194 42 926
37 1320 -5 428 -13 504 -82 795 -43 181 -93 263 -196 320 -73 40 -170 42 -243
5 -201 -102 -412 -627 -571 -1415 -49 -244 -80 -380 -116 -505 -33 -119 -110
-330 -120 -330 -9 0 -37 103 -50 190 -16 102 -6 420 20 640 23 196 27 431 9
493 -26 86 -131 145 -238 135 -68 -7 -104 -37 -144 -121 -113 -238 -147 -700
-75 -1034 66 -308 192 -493 364 -538 105 -27 164 -15 231 47 95 88 124 185
263 884 136 683 173 807 331 1130 53 107 82 154 124 197 30 31 60 57 66 57 14
0 14 3 -30 -370 -66 -559 -84 -821 -84 -1230 0 -235 5 -390 16 -520 10 -102
22 -246 28 -320 17 -214 91 -489 168 -620 97 -168 278 -238 426 -166 141 69
266 299 381 701 45 157 102 411 130 575 28 170 21 163 67 79 138 -256 356
-394 569 -360 222 36 341 232 524 864 l17 59 32 -74 c40 -91 80 -151 141 -207
57 -53 115 -79 192 -87 115 -12 186 29 245 143 59 112 84 213 203 808 119 596
150 717 245 940 84 198 150 316 214 380 73 74 74 72 51 -123 -110 -943 -133
-1393 -95 -1857 5 -60 16 -202 25 -314 34 -458 157 -784 328 -869 149 -75 287
-41 400 97 131 161 262 547 373 1099 5 23 6 22 33 -15 39 -53 113 -117 169
-144 39 -20 63 -24 142 -24 87 0 100 3 149 30 128 71 261 323 416 790 46 138
86 243 88 235 8 -25 57 -722 57 -817 l0 -51 -192 -174 c-258 -232 -461 -435
-536 -534 -101 -134 -241 -353 -287 -449 -79 -163 -115 -356 -95 -516 31 -261
177 -489 357 -560 47 -18 77 -23 158 -23 89 0 110 4 187 33 286 107 517 346
703 726 142 290 209 522 247 865 15 143 15 572 -1 755 l-13 150 125 168 c141
187 222 313 377 580 l105 182 60 18 c240 73 306 95 430 144 496 196 1023 517
1509 921 316 263 492 464 610 700 189 376 133 754 -141 948 -130 94 -271 134
-465 134 -257 0 -517 -88 -781 -265 -71 -48 -83 -53 -88 -38 -4 10 -16 54 -28
98 -101 364 -319 615 -591 679 -60 15 -172 19 -230 9z m276 -387 c129 -34 258
-133 344 -264 69 -105 101 -184 156 -390 2 -8 29 5 77 37 410 280 843 306
1085 65 248 -248 182 -645 -171 -1038 -129 -143 -468 -420 -727 -593 -341
-228 -750 -426 -1067 -517 -125 -36 -232 -60 -238 -54 -2 2 0 21 6 43 47 200
-1 717 -131 1405 -44 230 -53 334 -47 504 6 165 22 254 69 383 53 146 169 297
278 361 113 67 252 89 366 58z m-1896 -2625 c41 -21 79 -45 84 -53 12 -19 -59
-373 -108 -545 -95 -330 -231 -630 -354 -782 -44 -54 -45 -52 -62 108 -16 143
-8 506 15 651 45 288 125 498 234 611 60 62 87 63 191 10z m225 -1918 c12
-221 0 -585 -25 -757 -46 -322 -133 -565 -263 -734 -86 -111 -210 -202 -303
-223 -109 -24 -207 33 -303 176 -76 114 -96 184 -96 335 0 103 4 138 24 200
90 291 268 533 638 873 157 144 302 267 314 267 4 0 10 -62 14 -137z"/>
<path d="M18313 34141 c-108 -39 -173 -105 -299 -303 -265 -415 -409 -929
-559 -1993 -30 -220 -77 -553 -104 -740 l-47 -340 4 275 c5 298 -5 420 -54
690 -56 306 -91 408 -189 555 -136 205 -328 306 -524 277 -135 -20 -211 -77
-275 -205 -100 -203 -242 -704 -310 -1094 -39 -223 -67 -489 -131 -1248 -41
-489 -65 -692 -106 -900 -31 -159 -69 -309 -87 -341 -10 -18 -11 -17 -21 8
-14 37 -47 203 -60 303 -32 241 -39 705 -21 1285 16 507 31 682 105 1232 65
473 68 501 68 643 2 253 -53 370 -208 442 -86 39 -223 45 -310 13 -170 -63
-276 -293 -369 -800 -74 -404 -106 -745 -126 -1318 -18 -507 4 -772 96 -1171
66 -288 155 -514 274 -696 71 -108 188 -224 270 -266 60 -31 72 -34 155 -34
78 0 98 4 150 28 225 105 294 379 365 1447 67 1007 167 1535 373 1968 l41 87
7 -175 c32 -750 63 -994 166 -1299 101 -301 226 -482 388 -562 61 -30 70 -31
140 -26 86 6 170 40 211 84 96 103 154 366 244 1098 106 869 306 1837 444
2149 34 76 148 283 200 364 32 49 42 58 48 45 10 -27 9 -681 -3 -1323 -14
-784 2 -1393 47 -1780 57 -497 207 -992 378 -1249 89 -134 211 -249 323 -305
89 -45 226 -32 327 32 188 117 315 434 452 1132 24 124 46 235 49 248 5 20 12
13 54 -50 146 -217 348 -337 568 -338 195 0 311 123 428 454 19 55 40 105 47
112 10 10 26 10 68 2 65 -12 158 -5 220 17 95 33 201 130 255 235 l19 35 8
-30 c4 -16 28 -115 54 -220 55 -227 133 -470 174 -541 37 -65 79 -86 180 -92
67 -3 81 -1 130 25 92 47 96 61 92 348 -6 438 42 926 123 1244 14 57 57 180
94 274 84 210 92 227 103 227 5 0 40 -26 77 -58 117 -101 239 -174 312 -187
45 -8 136 10 205 40 118 52 227 198 182 243 -23 23 -52 12 -109 -43 -71 -68
-117 -89 -175 -80 -49 7 -81 27 -185 115 -106 89 -239 174 -304 194 -74 24
-118 15 -165 -32 -43 -44 -89 -163 -202 -522 -69 -220 -73 -232 -81 -195 -4
22 -23 157 -43 300 -46 337 -70 462 -95 494 -67 85 -233 130 -317 87 -61 -31
-106 -116 -137 -257 -35 -159 -28 -611 14 -919 6 -49 3 -68 -37 -185 -52 -154
-100 -249 -158 -314 -69 -77 -132 -98 -197 -66 -71 35 -70 27 -42 172 74 388
84 692 29 908 -37 143 -117 256 -210 295 -87 38 -208 22 -303 -39 -46 -30 -49
-31 -107 -20 -127 24 -257 -13 -357 -102 -227 -199 -403 -825 -329 -1169 13
-58 -71 -542 -148 -856 -88 -356 -233 -684 -294 -661 -56 22 -159 385 -187
662 -20 196 -2 1494 33 2370 7 176 13 482 13 680 0 329 -2 371 -23 489 -44
251 -66 318 -149 445 -97 149 -212 237 -359 275 -86 22 -225 20 -291 -3z
m2465 -2196 c33 -27 78 -127 108 -235 26 -93 26 -416 1 -590 -27 -183 -37
-231 -47 -225 -16 10 -77 127 -125 240 -50 118 -115 338 -115 390 0 17 12 65
26 106 21 58 27 94 28 169 2 104 11 131 54 154 36 20 36 20 70 -9z m-291 -927
c49 -94 138 -214 224 -303 l68 -70 -28 -65 c-35 -83 -134 -243 -182 -295 -33
-35 -39 -38 -54 -25 -25 20 -49 73 -85 185 -41 129 -49 250 -26 422 16 125 35
223 41 223 2 0 21 -33 42 -72z"/>
<path d="M25844 34011 c-110 -27 -155 -132 -133 -306 18 -139 42 -208 88 -247
52 -44 122 -68 198 -68 55 0 66 4 96 30 92 80 136 325 79 436 -53 104 -218
181 -328 155z"/>
<path d="M13360 33139 c-166 -28 -329 -178 -484 -445 -116 -200 -206 -490
-266 -855 -11 -68 -27 -159 -35 -202 -45 -236 -69 -614 -63 -984 l4 -252 -40
25 c-131 81 -259 102 -424 68 -207 -42 -422 -264 -533 -549 -38 -95 -68 -260
-69 -366 0 -65 -8 -102 -50 -230 -64 -196 -118 -306 -185 -374 -80 -83 -154
-93 -227 -32 l-28 22 20 100 c112 567 85 977 -77 1156 -40 45 -109 84 -166 94
-51 10 -177 -20 -224 -53 -37 -25 -43 -27 -173 -27 -128 0 -138 -2 -193 -28
-158 -78 -285 -268 -376 -563 -39 -126 -57 -213 -71 -344 -13 -124 -86 -361
-156 -505 -65 -135 -151 -215 -230 -215 -36 0 -114 46 -114 68 0 9 13 89 29
177 44 241 54 360 48 567 -4 139 -10 203 -26 266 -40 158 -106 258 -203 306
-90 45 -224 31 -313 -33 -41 -30 -42 -30 -114 -18 -245 38 -429 -108 -567
-451 -56 -140 -99 -307 -114 -442 -14 -121 -43 -189 -139 -324 -49 -68 -288
-302 -364 -355 -19 -14 -20 -13 -13 20 53 256 98 626 117 977 16 291 7 1006
-15 1158 -32 227 -88 314 -218 343 -72 16 -137 4 -174 -34 -38 -37 -44 -59
-84 -270 -57 -303 -164 -599 -371 -1015 -157 -317 -323 -588 -501 -817 -159
-204 -365 -374 -456 -377 -34 -1 -38 2 -63 49 -44 80 -54 156 -54 405 1 248
11 342 71 639 61 307 157 655 192 695 10 10 85 51 167 91 463 222 822 526
1001 847 98 174 151 363 141 497 -14 189 -163 345 -388 407 -99 27 -267 23
-394 -10 -527 -136 -998 -765 -1208 -1611 -85 -341 -112 -569 -111 -925 1
-341 41 -598 129 -830 119 -311 264 -460 452 -460 101 0 208 25 272 63 79 47
266 230 366 360 190 243 417 606 567 907 l98 195 -5 -70 c-3 -38 -15 -205 -25
-370 -26 -395 -64 -645 -171 -1147 -10 -45 -12 -47 -57 -57 -118 -24 -314 -52
-502 -71 -398 -40 -634 -93 -805 -184 -70 -37 -203 -166 -263 -255 -101 -152
-126 -381 -60 -560 63 -172 224 -318 443 -402 113 -44 193 -58 335 -60 115 -2
136 1 263 34 220 58 383 154 556 327 174 174 317 382 456 665 81 163 120 259
212 515 18 51 38 70 183 177 129 96 275 240 359 356 l64 88 18 -68 c63 -252
240 -498 428 -597 159 -83 341 -100 449 -41 30 16 73 50 96 76 50 55 131 215
176 346 45 129 41 125 124 111 86 -14 183 0 259 38 74 38 164 134 213 228 l41
79 46 -96 c126 -267 315 -436 538 -483 261 -55 407 61 538 429 54 151 45 143
132 128 91 -16 167 -4 255 39 74 36 165 129 208 211 l29 56 38 -113 c135 -403
360 -608 631 -574 142 18 212 51 269 127 80 105 140 237 229 500 l58 172 16
-60 c32 -113 108 -335 163 -474 240 -608 503 -855 776 -728 119 56 201 154
297 355 140 294 269 752 400 1423 69 353 66 455 -15 455 -59 0 -66 -18 -149
-395 -137 -618 -292 -1152 -401 -1380 -24 -49 -66 -120 -95 -158 -58 -77 -68
-78 -118 -4 -101 147 -165 404 -237 952 -31 238 -46 379 -90 840 l-15 159 44
46 c122 126 294 479 405 835 126 405 217 879 228 1190 12 347 -49 613 -175
756 -87 98 -252 152 -392 128z m229 -219 c46 -23 87 -70 114 -129 53 -121 78
-394 58 -636 -56 -658 -258 -1359 -490 -1704 l-29 -43 -7 78 c-22 225 20 1412
60 1744 49 402 125 646 214 695 34 18 35 18 80 -5z m-6738 -1404 c36 -131 -53
-384 -205 -587 -89 -118 -281 -300 -407 -385 -114 -78 -268 -168 -275 -161
-18 17 170 424 280 605 175 290 360 499 511 575 46 24 51 24 67 10 10 -9 23
-35 29 -57z m5556 -1326 c114 -96 121 -113 178 -450 l34 -203 -46 -131 c-68
-198 -130 -349 -190 -470 -62 -123 -130 -236 -144 -236 -13 0 -36 87 -74 275
-58 288 -69 395 -69 650 0 223 1 233 27 320 51 163 140 305 191 305 13 0 54
-26 93 -60z m-1637 -20 c48 -48 104 -200 121 -329 15 -112 6 -354 -21 -536
-24 -170 -28 -185 -41 -185 -13 0 -139 261 -168 348 -32 95 -71 250 -71 283 0
16 12 62 26 102 21 57 27 92 28 167 1 99 10 128 48 154 30 21 54 20 78 -4z
m-1760 -330 c33 -36 86 -165 106 -260 19 -90 18 -367 -2 -522 -24 -187 -38
-263 -48 -263 -27 0 -157 293 -206 465 -40 140 -41 182 -6 289 20 64 26 102
25 161 -1 83 7 107 47 139 36 28 51 26 84 -9z m1558 -743 c31 -43 88 -113 127
-155 l72 -76 -19 -48 c-27 -71 -143 -262 -189 -310 l-41 -43 -24 30 c-29 37
-76 162 -99 269 -25 114 -13 314 31 530 6 27 8 25 46 -45 22 -41 65 -109 96
-152z m-1861 -170 c50 -101 134 -214 246 -333 l48 -52 -20 -48 c-23 -60 -78
-155 -144 -252 -50 -73 -79 -98 -97 -87 -17 11 -56 96 -84 183 -41 132 -49
205 -37 345 14 152 41 308 53 301 4 -3 20 -29 35 -57z m-2022 -1129 c-64 -210
-197 -502 -301 -661 -77 -118 -219 -265 -307 -316 -136 -80 -284 -108 -404
-78 -143 37 -247 117 -305 235 -56 114 -51 273 13 409 70 149 204 243 429 302
94 25 741 122 868 130 9 1 11 -6 7 -21z"/>
<path d="M18930 27240 c-6889 -923 -12593 -1687 -12677 -1699 -84 -11 -189
-33 -235 -47 -222 -70 -385 -200 -482 -383 -56 -107 -77 -197 -83 -351 -5
-135 -5 -137 1051 -8025 663 -4953 1065 -7926 1080 -7985 68 -276 204 -463
409 -564 132 -65 229 -86 422 -92 l160 -6 2280 306 c1254 168 2294 308 2312
311 l32 6 -75 -128 c-205 -350 -351 -688 -399 -923 -21 -102 -24 -282 -6 -360
34 -145 141 -285 266 -348 255 -128 591 -119 1180 33 504 130 784 171 1235
182 384 9 706 -17 1005 -82 223 -47 408 -120 469 -184 l26 -28 -35 -46 c-158
-207 -732 -480 -1519 -722 -520 -160 -747 -275 -938 -473 -224 -232 -278 -484
-172 -801 78 -233 216 -435 474 -691 368 -366 918 -720 1435 -923 791 -311
1483 -325 1945 -39 110 68 257 204 340 314 95 126 181 314 230 505 49 191 55
253 55 568 0 379 -23 568 -125 1010 -66 285 -74 347 -74 585 -1 243 12 348 70
559 89 325 257 647 487 931 104 130 360 381 487 480 216 167 466 310 662 379
l87 30 44 -34 c54 -41 92 -114 108 -202 10 -55 8 -68 -15 -142 -66 -208 -134
-520 -195 -891 -233 -1419 -173 -2534 181 -3370 162 -382 328 -613 500 -695
318 -153 615 37 881 562 35 70 93 193 127 273 35 80 66 148 70 152 3 5 19 -45
34 -110 117 -482 315 -867 573 -1113 134 -128 278 -212 448 -261 70 -20 101
-23 250 -23 159 1 175 3 255 29 188 63 330 154 495 320 167 167 297 351 445
629 54 103 65 118 84 114 11 -3 41 -11 66 -17 55 -15 229 -6 318 15 213 51
416 243 585 556 l29 52 32 -79 c137 -336 366 -540 656 -585 230 -35 381 89
560 465 39 80 76 146 83 146 6 0 28 -5 47 -10 227 -66 435 10 580 209 25 34
46 56 47 49 2 -7 16 -110 33 -228 37 -259 89 -525 126 -639 21 -63 37 -94 64
-121 85 -85 297 -93 372 -13 58 62 63 90 88 429 27 390 142 971 257 1309 41
121 253 559 287 593 11 11 26 -1 86 -68 83 -92 245 -219 314 -245 36 -14 65
-17 134 -12 100 6 176 31 252 83 27 19 50 31 50 27 1 -37 33 -384 46 -488 84
-700 300 -1166 604 -1309 53 -24 81 -31 154 -34 144 -7 247 25 366 115 70 52
245 257 332 388 48 73 234 436 300 585 l15 34 16 -91 c70 -383 235 -662 454
-770 l77 -38 140 0 c191 0 237 14 321 98 33 34 85 98 114 142 63 97 180 328
247 487 27 65 51 118 54 118 3 0 16 -55 29 -123 64 -328 183 -730 277 -942
105 -235 229 -397 356 -466 61 -33 67 -34 173 -34 103 0 114 2 178 32 288 136
581 725 922 1858 131 436 154 557 111 604 -20 22 -65 28 -96 11 -26 -14 -65
-116 -165 -425 -232 -718 -466 -1307 -624 -1569 -29 -47 -82 -118 -120 -158
l-69 -73 -27 25 c-40 37 -104 179 -126 280 -26 121 -55 361 -68 560 -18 272
-31 865 -27 1191 l3 307 74 73 c311 309 665 1085 865 1894 65 266 86 423 87
645 0 337 -58 529 -200 662 -164 152 -428 170 -623 41 -116 -77 -287 -262
-400 -433 -75 -114 -114 -192 -179 -350 -83 -200 -140 -385 -261 -840 -79
-298 -140 -715 -172 -1177 l-12 -179 -73 52 c-112 80 -218 114 -357 114 -101
0 -193 -17 -253 -46 -209 -101 -389 -283 -507 -514 -76 -150 -109 -258 -135
-455 -9 -66 -22 -103 -76 -210 -35 -71 -107 -219 -159 -328 -53 -110 -119
-240 -148 -290 -171 -303 -403 -567 -496 -567 -36 0 -97 70 -142 165 -117 242
-160 675 -129 1297 l11 219 98 202 c116 240 339 741 456 1026 166 402 282 784
375 1232 30 139 33 171 33 334 1 195 -10 259 -61 360 -44 89 -87 131 -176 175
-276 134 -534 23 -772 -335 -168 -253 -303 -571 -428 -1010 -154 -537 -216
-1006 -217 -1615 l0 -285 -40 -33 c-101 -83 -173 -101 -258 -62 -27 12 -98 73
-185 158 -189 184 -308 262 -397 262 -45 0 -113 -42 -145 -90 -38 -57 -143
-285 -266 -579 l-94 -225 -7 135 c-3 74 -11 244 -18 379 -14 300 -26 422 -44
459 -42 79 -162 151 -266 158 -55 4 -72 1 -110 -19 -105 -57 -185 -247 -225
-538 -22 -162 -37 -444 -34 -670 l2 -205 -55 -122 c-82 -180 -143 -276 -220
-349 -64 -60 -111 -84 -163 -84 -26 0 -93 33 -124 60 l-23 20 51 183 c140 499
172 832 105 1091 -44 172 -145 286 -276 315 -69 16 -178 -2 -256 -41 l-62 -31
-75 16 c-312 69 -534 -84 -735 -507 -110 -229 -169 -436 -195 -681 -16 -150
-47 -250 -130 -415 -148 -294 -321 -480 -490 -525 -58 -16 -75 -17 -133 -6
-74 13 -112 33 -112 57 0 9 35 123 79 253 174 522 285 1078 366 1835 48 450
52 998 10 1402 -54 514 -188 881 -400 1090 -146 144 -327 194 -540 149 -281
-59 -470 -330 -600 -858 -126 -516 -159 -1188 -89 -1822 68 -622 169 -1028
349 -1402 128 -266 238 -432 411 -620 l81 -88 -72 -132 c-267 -487 -535 -754
-818 -815 -150 -32 -272 62 -358 277 -49 123 -81 360 -114 840 -29 425 -36
747 -34 1525 1 528 -2 808 -9 855 -30 189 -96 306 -206 363 -69 35 -225 44
-313 16 -155 -48 -293 -295 -367 -655 -51 -252 -72 -537 -82 -1124 l-6 -390
-70 -175 c-170 -424 -317 -730 -409 -853 -59 -78 -193 -223 -220 -238 -29 -15
-52 3 -86 68 -65 121 -107 303 -135 578 -21 214 -16 892 11 1290 69 1035 114
1430 276 2405 58 350 68 451 55 574 -14 132 -33 205 -81 303 -91 185 -314 383
-498 442 -108 35 -184 44 -340 39 -332 -12 -704 -151 -1096 -413 -209 -139
-326 -235 -500 -410 -780 -781 -1068 -1760 -808 -2755 137 -522 173 -746 173
-1062 0 -308 -43 -502 -152 -692 -49 -83 -162 -204 -242 -259 -331 -225 -882
-248 -1518 -63 -670 196 -1304 581 -1666 1011 -443 527 -378 959 182 1220 127
59 279 106 501 155 654 143 1009 245 1331 381 327 138 531 295 621 475 38 77
38 79 38 199 0 116 -1 123 -33 188 -133 270 -539 460 -1142 536 -665 84 -1415
15 -2055 -190 -533 -170 -869 -203 -983 -96 -38 36 -56 117 -49 227 14 218
129 562 352 1055 l60 131 10375 1388 c5706 764 10400 1395 10430 1403 264 66
401 294 401 662 0 123 -100 876 -1056 8016 -657 4906 -1063 7908 -1075 7955
-76 274 -308 547 -564 666 -133 61 -204 76 -376 79 l-155 4 -12525 -1679z
m12859 1599 c100 -23 229 -82 314 -143 126 -90 256 -244 331 -393 70 -139 16
243 1126 -8051 578 -4314 1055 -7890 1061 -7945 17 -172 -13 -362 -78 -491
-33 -64 -111 -146 -170 -179 -27 -14 -75 -33 -108 -42 -33 -8 -5827 -788
-12875 -1731 l-12815 -1715 -155 4 c-181 5 -270 25 -395 86 -185 92 -315 268
-380 515 -17 69 -335 2412 -1080 7979 -860 6426 -1055 7903 -1055 7992 0 374
220 643 594 730 62 15 25331 3400 25426 3407 77 5 172 -3 259 -23z m2521
-19699 c172 -88 209 -473 98 -1025 -138 -694 -412 -1379 -702 -1760 l-61 -80
-3 50 c-11 166 77 925 193 1670 100 642 239 1060 379 1146 39 24 48 24 96 -1z
m-3312 -224 c57 -30 101 -100 122 -197 19 -87 8 -307 -24 -459 -93 -440 -264
-945 -537 -1580 -64 -151 -129 -300 -143 -330 -23 -50 -25 -52 -21 -20 2 19
12 96 20 170 56 473 181 1331 226 1550 96 464 203 789 280 854 35 30 41 31 77
12z m-6562 -421 c84 -35 173 -141 245 -290 99 -208 158 -479 201 -930 16 -173
16 -758 0 -960 -56 -695 -170 -1303 -353 -1885 -67 -215 -87 -270 -100 -270
-26 0 -209 292 -283 453 -178 382 -271 863 -295 1513 -18 492 20 1100 95 1514
74 405 208 738 332 824 70 48 103 54 158 31z m8161 -2324 c51 -37 154 -162
169 -205 15 -43 32 -199 48 -436 l13 -195 -91 -195 c-106 -226 -181 -368 -263
-497 -61 -97 -163 -232 -175 -233 -28 -1 -73 377 -84 710 -7 211 6 424 37 575
46 227 205 494 300 504 3 1 24 -12 46 -28z m-5726 -211 c43 -23 100 -181 120
-330 13 -98 6 -216 -22 -410 -21 -144 -100 -485 -116 -501 -14 -14 -56 78
-114 251 -71 213 -113 444 -97 524 5 22 25 75 45 120 30 68 37 95 43 179 l7
100 41 39 c43 40 60 45 93 28z m-451 -982 c0 -7 25 -65 56 -128 59 -123 156
-276 223 -352 23 -25 41 -51 41 -58 0 -26 -74 -151 -149 -251 -83 -110 -151
-179 -176 -179 -21 0 -53 70 -82 179 -35 136 -41 300 -15 446 24 136 82 355
93 355 5 0 9 -6 9 -12z"/>
<path d="M31335 28774 c-16 -3 -5644 -756 -12505 -1674 -6861 -918 -12524
-1678 -12583 -1690 -59 -11 -143 -34 -185 -50 -228 -88 -402 -278 -464 -507
-16 -62 -21 -108 -21 -223 -1 -137 55 -560 1036 -7880 570 -4254 1046 -7778
1056 -7831 77 -379 283 -603 622 -676 64 -14 125 -18 254 -17 167 1 369 27
12835 1697 6966 933 12692 1703 12725 1712 135 37 242 127 305 260 59 123 75
211 74 400 0 154 -40 455 -1037 7895 -570 4254 -1045 7771 -1056 7816 -52 219
-229 474 -419 603 -89 60 -213 117 -306 141 -78 20 -270 33 -331 24z m273 -70
c81 -17 215 -64 248 -88 16 -13 11 -13 -41 0 -228 53 -493 -38 -645 -222 -156
-189 -184 -475 -68 -697 42 -80 172 -211 253 -254 326 -171 728 -48 886 272
50 101 72 205 67 310 l-4 80 23 -73 c17 -56 270 -1918 1064 -7845 1147 -8561
1067 -7926 1021 -8119 -48 -196 -150 -321 -308 -375 -42 -14 -3120 -434 -3134
-427 -3 1 -421 919 -929 2038 -616 1357 -929 2036 -939 2036 -16 0 -16889
-2257 -16937 -2266 l-30 -5 -48 -362 c-27 -199 -82 -603 -123 -897 -40 -294
-144 -1059 -230 -1700 -86 -641 -157 -1166 -158 -1167 -3 -4 -2660 -363 -2687
-363 -5 0 8 24 30 53 113 150 154 348 110 536 -6 25 -30 84 -52 131 -77 159
-241 289 -417 331 -70 17 -218 17 -290 0 -295 -69 -506 -353 -486 -651 11
-166 68 -293 186 -410 130 -130 258 -183 450 -184 101 -1 125 2 195 27 45 15
104 42 132 61 l51 34 1409 188 c774 103 1412 191 1417 196 5 4 134 932 286
2063 152 1130 279 2057 282 2060 9 9 16882 2265 16889 2257 14 -16 1819 -4005
1814 -4010 -4 -5 -328 -51 -331 -48 -1 0 -369 831 -819 1846 -449 1015 -818
1846 -820 1848 -5 6 -16460 -2200 -16468 -2208 -5 -4 -148 -896 -318 -1981
-170 -1086 -311 -1983 -314 -1994 -4 -20 -57 -28 -887 -139 -734 -98 -1326
-179 -1473 -201 -311 -46 -811 -107 -890 -107 -194 -1 -348 28 -463 86 -197
100 -328 288 -386 556 -9 41 -484 3571 -1056 7845 -751 5607 -1040 7795 -1040
7863 0 256 108 469 305 601 78 52 193 101 285 121 30 7 5691 767 12580 1690
9130 1223 12553 1678 12628 1679 60 1 135 -6 180 -15z m145 -527 c45 -19 105
-89 113 -132 24 -128 -64 -238 -191 -238 -60 0 -101 19 -143 67 -108 123 -19
315 146 316 23 0 57 -6 75 -13z m-2809 -13457 c27 -63 388 -880 802 -1814 415
-935 753 -1700 751 -1701 -1 -1 -954 -129 -2117 -284 -1163 -155 -2130 -285
-2147 -288 -39 -6 -34 -16 -63 142 -72 392 -219 840 -366 1115 -68 125 -203
324 -282 413 -220 249 -453 383 -737 424 -131 19 -93 23 -905 -76 -316 -39
-838 -102 -1160 -141 -3336 -403 -5193 -664 -5520 -775 -389 -132 -608 -523
-660 -1179 -24 -303 3 -740 69 -1108 10 -54 17 -98 17 -99 -6 -5 -4732 -633
-4734 -629 -1 3 128 838 287 1856 159 1017 297 1899 306 1961 17 107 18 112
44 117 28 6 3644 490 9086 1216 869 116 2849 381 4400 590 1551 208 2833 378
2850 377 28 -2 32 -9 79 -117z m-4080 -2066 c540 -122 957 -695 1191 -1636 36
-147 87 -396 81 -398 0 -1 -2125 -286 -4721 -633 -3194 -429 -4722 -630 -4727
-622 -8 13 -43 241 -64 417 -21 179 -30 658 -15 813 56 589 244 935 580 1071
273 110 2101 368 5666 799 1299 157 1672 203 1710 209 53 8 225 -4 299 -20z
m-16377 -3465 c62 -23 122 -109 123 -175 0 -72 -51 -152 -117 -180 -41 -18
-114 -18 -156 0 -59 24 -117 111 -117 176 0 64 57 151 115 176 37 16 114 18
152 3z"/>
<path d="M29605 27074 c-555 -74 -1761 -233 -2680 -355 -11052 -1457 -17822
-2364 -19129 -2560 -148 -22 -307 -52 -355 -65 -198 -58 -349 -171 -422 -318
-57 -117 -59 -162 -15 -471 50 -355 402 -2923 545 -3975 373 -2743 507 -3787
571 -4420 63 -622 118 -895 222 -1105 74 -150 149 -228 273 -287 63 -29 80
-32 185 -36 105 -3 276 18 1950 238 1009 132 2452 322 3205 421 10754 1412
17211 2279 17795 2390 106 20 454 138 519 176 107 63 148 141 138 263 -5 61
-196 1546 -483 3745 -498 3823 -777 5870 -830 6080 -8 33 -37 105 -64 161 -85
175 -176 243 -333 250 -63 2 -316 -28 -1092 -132z m982 -124 c77 -57 161 -186
213 -328 71 -195 78 -243 384 -2557 19 -143 34 -261 33 -262 -4 -4 -5441 -751
-8897 -1222 -7132 -973 -11582 -1564 -13245 -1757 -269 -32 -353 -38 -525 -38
-174 0 -221 4 -307 22 -397 86 -685 312 -872 689 -27 54 -59 127 -71 163 -31
96 -273 1871 -267 1963 3 48 13 85 35 130 43 87 57 97 138 103 49 3 23281
3113 23335 3123 3 1 23 -12 46 -29z m996 -4067 c319 -2418 558 -4273 555
-4292 -3 -13 -46 -22 -238 -48 -512 -69 -22759 -3046 -23245 -3111 -286 -38
-521 -68 -523 -67 -1 1 -29 215 -62 476 -98 770 -300 2290 -515 3863 -36 264
-63 481 -61 483 5 5 73 15 12306 1652 6163 825 11302 1513 11420 1529 118 16
233 30 255 31 l40 1 68 -517z m170 -5013 c82 -609 87 -682 52 -754 -43 -89
-176 -201 -334 -281 -152 -76 -438 -168 -681 -218 -69 -15 -5093 -690 -11165
-1502 -6072 -812 -11048 -1480 -11057 -1485 -24 -14 -114 88 -166 187 -89 172
-143 402 -197 838 -20 162 -64 639 -60 644 8 8 23463 3149 23500 3148 l30 -2
78 -575z"/>
<path d="M28370 22579 c-201 -27 -1542 -205 -2980 -395 -9026 -1191 -14309
-1900 -14871 -1994 -186 -32 -278 -70 -365 -152 -82 -77 -119 -195 -95 -298 6
-25 38 -317 71 -650 173 -1741 276 -2680 316 -2898 27 -149 82 -239 172 -284
43 -21 59 -23 207 -22 153 0 309 20 3695 477 6713 905 13261 1782 14345 1921
237 31 460 60 497 67 140 23 254 102 303 211 l28 62 -92 705 c-244 1866 -383
2892 -407 2985 -35 135 -110 233 -218 282 -96 44 -178 42 -606 -17z m575 -30
c55 -20 129 -88 158 -145 48 -93 67 -223 321 -2149 169 -1283 208 -1579 208
-1611 0 -75 -89 -177 -188 -214 -66 -24 -75 -26 -654 -101 -552 -71 -2345
-309 -4470 -594 -3786 -507 -12588 -1690 -13070 -1756 -469 -65 -595 -59 -674
32 -74 87 -92 194 -211 1314 -43 399 -242 2343 -252 2464 -7 73 12 133 60 187
84 95 178 132 447 174 761 119 6448 881 15110 2024 1147 152 2301 305 2565
340 511 69 553 71 650 35z"/>
<path d="M28555 22493 c-16 -2 -730 -96 -1585 -209 -3525 -464 -7186 -949
-10180 -1349 -4433 -591 -5988 -805 -6159 -845 -154 -37 -270 -112 -316 -205
-24 -47 -26 -155 -7 -305 7 -52 39 -372 72 -710 119 -1220 222 -2178 260
-2431 30 -200 71 -282 164 -332 38 -20 54 -22 211 -21 166 1 253 12 3665 472
5537 746 12529 1684 13820 1852 256 33 512 67 570 75 121 16 195 42 262 90 62
45 108 124 108 185 0 58 -320 2496 -416 3170 -38 272 -45 303 -81 375 -70 140
-216 211 -388 188z m177 -43 c69 -21 133 -69 167 -124 58 -93 69 -161 255
-1566 237 -1786 264 -2001 254 -2036 -24 -89 -133 -171 -263 -198 -38 -8 -182
-29 -320 -46 -298 -37 -3749 -497 -6160 -820 -2741 -368 -8270 -1111 -9975
-1341 -1677 -226 -1742 -233 -1847 -196 -83 29 -128 92 -158 222 -34 146 -133
1054 -290 2651 -35 364 -69 683 -75 710 -12 52 -2 122 24 173 39 75 161 151
296 185 182 45 3838 539 11100 1501 1064 141 3033 402 4375 579 1342 178 2465
324 2496 325 32 1 86 -8 121 -19z"/>
<path d="M25395 21909 c-666 -70 -1231 -511 -1468 -1149 -106 -286 -131 -642
-67 -948 171 -811 885 -1392 1712 -1392 457 0 875 168 1206 485 341 326 525
736 539 1201 12 350 -63 653 -232 939 -352 598 -1010 935 -1690 864z m429 -70
c699 -105 1265 -646 1406 -1344 30 -147 37 -406 16 -555 -54 -374 -218 -701
-481 -965 -267 -267 -600 -431 -972 -480 -1162 -152 -2122 899 -1867 2045 129
577 560 1050 1124 1233 245 80 524 104 774 66z"/>
<path d="M25329 21805 c-192 -30 -337 -78 -519 -171 -392 -201 -692 -564 -819
-991 -116 -393 -81 -817 99 -1188 256 -528 789 -889 1362 -923 384 -23 729 68
1042 275 142 93 347 300 445 447 177 266 265 535 278 852 12 300 -44 553 -183
825 -77 151 -161 265 -289 395 -214 217 -444 353 -737 438 -188 54 -479 72
-679 41z m575 -75 c662 -144 1163 -691 1246 -1364 17 -132 8 -392 -18 -511
-68 -315 -210 -574 -441 -806 -86 -85 -158 -147 -226 -192 -422 -279 -923
-348 -1395 -191 -672 223 -1122 878 -1087 1579 36 705 519 1299 1197 1470 229
58 500 63 724 15z"/>
<path d="M25410 21539 c-130 -15 -388 -91 -405 -120 -3 -4 30 -62 74 -127 l79
-119 -132 -132 -132 -131 -187 55 c-103 30 -193 55 -200 55 -35 0 -170 -251
-222 -411 -34 -104 -73 -325 -62 -352 4 -10 59 -23 179 -41 95 -15 182 -30
194 -32 19 -5 22 -21 43 -182 12 -97 24 -184 27 -193 4 -13 -29 -28 -166 -75
-93 -32 -170 -62 -170 -67 0 -15 73 -153 113 -212 59 -88 158 -203 225 -262
70 -61 185 -143 201 -143 7 0 68 34 136 76 l125 76 132 -12 c73 -6 138 -12
143 -14 6 -2 40 -77 75 -166 l64 -163 106 6 c160 8 318 46 464 111 l59 26 -7
63 c-4 34 -9 71 -12 83 -4 16 20 41 126 128 l132 107 88 -29 88 -30 62 81
c103 138 240 446 240 542 0 16 -19 30 -83 62 l-83 41 -27 207 c-15 114 -26
209 -25 210 2 1 45 30 96 64 50 34 92 63 92 66 0 18 -61 167 -98 238 -62 122
-208 317 -236 317 -6 0 -74 -27 -151 -60 -77 -33 -145 -60 -151 -60 -18 0
-289 250 -292 270 -2 10 4 57 12 106 12 68 13 90 4 96 -19 11 -144 36 -238 48
-97 11 -192 11 -300 -1z"/>
<path d="M22015 21454 c-22 -3 -1097 -146 -2390 -319 -1658 -222 -2378 -322
-2445 -340 -117 -31 -329 -134 -425 -207 -203 -153 -368 -377 -453 -618 -53
-152 -67 -237 -66 -425 0 -156 7 -218 82 -768 45 -329 88 -626 96 -660 101
-436 445 -806 875 -941 234 -74 376 -76 853 -12 183 25 1094 146 2023 271
2285 305 2269 303 2364 321 272 51 543 210 725 424 208 245 316 534 316 845 0
132 -156 1330 -191 1460 -26 99 -77 224 -130 318 -180 318 -505 553 -867 626
-97 20 -292 33 -367 25z m335 -312 c123 -32 214 -64 243 -86 16 -12 14 -20
-29 -112 -95 -205 -164 -456 -201 -731 -24 -182 -24 -606 1 -798 75 -587 263
-1062 524 -1324 l84 -84 -24 -19 c-40 -31 -219 -116 -298 -141 -41 -14 -106
-30 -145 -37 -131 -23 -2410 -326 -2412 -320 -3 4 -436 3241 -445 3314 -4 35
-10 33 202 75 572 116 1541 250 2125 295 121 9 260 -3 375 -32z m428 -192
c207 -138 356 -364 426 -645 77 -312 132 -881 161 -1690 l7 -170 -63 -95 c-62
-95 -253 -300 -279 -300 -24 0 -187 175 -243 260 -309 478 -452 1274 -352
1970 19 131 77 366 116 472 45 124 110 258 125 258 7 0 53 -27 102 -60z
m-5871 -874 c331 -407 501 -931 479 -1476 -18 -448 -147 -840 -360 -1095 l-25
-30 -46 45 c-173 168 -333 630 -439 1265 -53 312 -81 703 -65 888 22 259 112
446 258 538 l45 29 44 -42 c24 -24 73 -79 109 -122z m1966 -10 c326 -96 564
-352 634 -681 23 -111 19 -281 -10 -396 -82 -318 -326 -563 -645 -646 -224
-58 -480 -21 -678 98 -369 222 -528 687 -373 1091 107 277 373 497 666 553
117 22 294 14 406 -19z"/>
<path d="M18465 19860 c-95 -25 -138 -44 -217 -97 -298 -197 -390 -609 -206
-921 46 -79 170 -201 248 -244 380 -212 841 -43 992 364 40 107 50 264 24 381
-56 252 -252 453 -504 518 -98 25 -241 25 -337 -1z"/>
<path d="M13940 20374 c-14 -2 -59 -9 -100 -15 -173 -24 -407 -102 -560 -186
-609 -336 -961 -981 -910 -1665 60 -789 616 -1420 1400 -1590 92 -19 133 -22
340 -22 266 0 344 11 561 84 398 132 753 427 962 796 284 503 300 1117 43
1635 -260 521 -759 879 -1333 954 -102 13 -336 18 -403 9z m290 -54 c420 -32
778 -197 1075 -495 228 -229 368 -474 445 -780 42 -166 54 -282 47 -473 -12
-330 -100 -605 -284 -881 -254 -381 -662 -644 -1128 -727 -137 -24 -412 -24
-550 0 -241 43 -511 155 -705 293 -122 87 -306 272 -392 393 -280 394 -382
896 -276 1355 167 726 780 1257 1516 1314 59 4 109 9 112 10 3 0 66 -4 140 -9z"/>
<path d="M13970 20284 c-459 -55 -803 -229 -1093 -552 -327 -367 -476 -883
-392 -1361 62 -356 208 -635 465 -891 246 -247 501 -386 839 -457 112 -24 148
-27 321 -27 173 0 209 3 321 27 335 71 608 217 841 450 648 647 649 1685 3
2332 -241 240 -546 399 -882 460 -86 15 -353 27 -423 19z m335 -65 c345 -42
677 -205 930 -456 624 -622 620 -1633 -10 -2256 -316 -312 -735 -473 -1185
-454 -408 17 -758 173 -1050 466 -189 189 -310 385 -390 631 -59 180 -75 286
-75 495 1 202 19 324 76 496 135 406 450 761 834 940 148 68 354 125 515 142
79 8 271 6 355 -4z"/>
<path d="M13930 20004 c-172 -31 -390 -100 -390 -124 0 -4 34 -57 75 -118 41
-61 75 -114 75 -119 0 -5 -58 -66 -129 -137 l-130 -130 -192 57 c-106 30 -197
54 -201 51 -39 -24 -170 -272 -212 -399 -44 -138 -82 -374 -60 -376 5 0 94
-14 199 -32 l189 -32 23 -165 c34 -250 50 -216 -135 -279 -86 -30 -161 -58
-166 -62 -12 -11 47 -130 116 -234 65 -99 249 -284 345 -349 l71 -48 129 79
128 80 137 -11 c76 -6 142 -16 147 -21 5 -6 36 -77 69 -160 l60 -150 83 -3
c133 -5 281 25 447 91 l104 41 -8 65 c-4 36 -8 75 -8 87 -1 15 34 49 123 122
68 56 129 102 135 102 6 0 47 -11 91 -25 l80 -25 28 33 c117 136 248 409 273
568 l6 38 -84 42 -85 42 -22 171 c-12 94 -25 187 -28 207 -5 37 -5 37 85 98
50 33 93 65 96 70 8 12 -33 122 -84 223 -52 104 -120 205 -189 279 l-56 60
-154 -66 -153 -67 -42 39 c-22 22 -89 83 -147 136 l-106 97 18 102 c10 56 17
103 16 105 -2 2 -44 13 -93 24 -68 16 -131 22 -269 24 -99 2 -191 1 -205 -1z"/>
<path d="M6265 25193 c-154 -24 -263 -79 -370 -187 -135 -136 -191 -281 -182
-471 8 -170 67 -305 183 -420 114 -112 246 -171 406 -181 285 -18 545 155 639
426 28 80 37 242 19 333 -53 272 -302 487 -581 501 -46 2 -97 2 -114 -1z m128
-444 c44 -12 102 -60 124 -103 9 -17 16 -53 16 -81 0 -170 -191 -255 -320
-142 -64 56 -81 143 -44 222 23 50 56 81 106 99 49 18 69 19 118 5z"/>
<path d="M33620 12944 c-188 -37 -362 -164 -448 -330 -58 -112 -75 -193 -70
-324 9 -213 106 -383 284 -500 110 -72 193 -95 344 -95 105 0 137 4 198 24
204 67 368 245 417 453 19 81 19 218 0 293 -55 216 -207 380 -422 456 -57 21
-243 34 -303 23z m235 -484 c19 -12 47 -43 62 -68 58 -98 23 -215 -79 -266
-28 -14 -63 -26 -77 -26 -212 1 -276 281 -86 372 51 24 131 19 180 -12z"/>
<path d="M27410 12274 c-282 -74 -480 -327 -480 -614 0 -179 58 -318 185 -446
93 -94 201 -154 325 -180 233 -49 495 54 636 251 147 207 162 466 38 690 -39
71 -176 204 -249 242 -132 69 -320 93 -455 57z m258 -459 c170 -72 156 -318
-21 -366 -161 -43 -297 128 -219 278 45 87 150 125 240 88z"/>
<path d="M14425 10820 c-142 -35 -255 -99 -345 -198 -309 -336 -175 -864 260
-1028 68 -25 88 -28 205 -28 117 -1 138 2 203 26 101 36 172 82 245 155 120
121 176 248 185 415 9 193 -47 339 -182 474 -133 132 -247 183 -426 189 -58 3
-123 0 -145 -5z m177 -440 c143 -40 184 -236 70 -332 -126 -106 -316 -18 -316
147 0 132 118 220 246 185z"/>
<path d="M24740 12335 c-87 -19 -213 -83 -278 -140 -270 -239 -288 -665 -38
-919 196 -198 481 -248 734 -126 68 33 101 57 167 123 92 92 142 181 171 302
21 91 15 244 -15 335 -60 190 -209 340 -403 407 -92 32 -241 40 -338 18z m215
-444 c76 -35 115 -95 115 -177 0 -100 -92 -194 -190 -194 -37 0 -93 24 -126
52 -48 42 -66 81 -66 144 -1 140 141 233 267 175z"/>
<path d="M17135 11304 c-219 -55 -402 -238 -460 -459 -19 -76 -19 -233 0 -310
56 -220 240 -404 460 -460 32 -8 102 -15 155 -15 183 0 317 56 445 184 91 92
143 183 171 301 23 102 15 256 -18 353 -65 182 -208 325 -390 389 -92 33 -268
41 -363 17z m243 -443 c67 -34 102 -93 102 -171 0 -111 -79 -190 -190 -190
-111 0 -190 79 -190 190 0 111 77 189 188 190 33 0 67 -7 90 -19z"/>
<path d="M8970 6084 c-181 -47 -327 -184 -402 -374 -42 -105 -53 -174 -52
-325 1 -146 22 -277 63 -396 l19 -55 -133 4 c-594 20 -1054 -240 -1140 -644
-58 -273 82 -555 374 -753 248 -169 610 -272 1181 -335 527 -59 1114 -44 1569
40 205 38 439 101 556 150 l36 15 -51 46 c-157 141 -424 672 -689 1368 -140
368 -149 391 -217 526 -133 263 -289 456 -480 592 -71 51 -226 123 -304 141
-82 20 -257 20 -330 0z m360 -364 c139 -31 266 -107 395 -235 174 -172 274
-347 415 -725 231 -619 443 -1051 588 -1202 l45 -46 -99 -32 c-399 -128 -906
-182 -1399 -150 -287 19 -622 66 -806 114 -251 66 -446 171 -582 315 -123 132
-174 261 -164 416 18 276 263 498 633 572 63 12 138 17 257 18 163 0 168 1
164 20 -3 11 -17 65 -31 120 -75 283 -23 542 138 693 65 60 142 104 213 121
52 12 179 13 233 1z"/>
</g>
</svg>
