<?xml version="1.0" standalone="no"?>
<!DOCTYPE svg PUBLIC "-//W3C//DTD SVG 20010904//EN"
 "http://www.w3.org/TR/2001/REC-SVG-20010904/DTD/svg10.dtd">
<svg version="1.0" xmlns="http://www.w3.org/2000/svg"
 width="1008.000000pt" height="209.000000pt" viewBox="0 0 1008.000000 209.000000"
 preserveAspectRatio="xMidYMid meet">
<metadata>
Created by potrace 1.16, written by Peter Selinger 2001-2019
</metadata>
<g transform="translate(0.000000,209.000000) scale(0.100000,-0.100000)"
fill="#000000" stroke="none">
<path d="M552 2072 c85 -23 157 -72 197 -133 39 -61 54 -98 16 -44 -15 22 -39
53 -53 68 -25 27 -27 27 -34 7 -4 -12 -16 -20 -29 -20 -19 0 -21 4 -16 39 l5
39 -85 18 c-116 24 -256 9 -353 -38 -36 -17 -70 -30 -76 -29 -7 1 -15 -10 -18
-24 -4 -14 -12 -25 -20 -25 -7 0 -29 -33 -47 -72 l-34 -73 -3 -892 -2 -893
364 0 364 0 6 23 c4 12 10 84 13 160 3 76 9 140 13 142 4 3 35 -41 69 -98 34
-56 85 -130 112 -164 l49 -63 269 0 269 0 31 36 c17 19 52 76 77 127 26 51 48
94 50 96 10 11 17 -14 25 -86 5 -43 13 -99 20 -126 l11 -47 456 2 456 3 15 45
c14 39 16 149 16 800 0 833 0 831 -64 965 -80 170 -259 267 -485 264 -80 -1
-85 -2 -44 -9 99 -17 150 -41 210 -99 32 -32 58 -63 58 -69 0 -21 -37 5 -52
35 -18 37 -89 79 -168 99 -48 12 -94 15 -180 12 -99 -3 -123 -8 -175 -31 -33
-16 -68 -35 -78 -44 -10 -10 -26 -18 -35 -19 -20 -3 -57 -47 -73 -88 -10 -22
-10 -33 -1 -47 16 -25 15 -26 -8 -32 -11 -3 -20 0 -21 6 0 21 -198 -377 -198
-401 -1 -13 -5 -21 -9 -18 -5 3 -19 -17 -32 -44 -13 -28 -27 -50 -30 -50 -15
0 -33 34 -149 288 -66 144 -137 287 -157 317 -87 132 -204 189 -409 200 l-100
5 67 -18z"/>
<path d="M6060 2074 c183 -34 375 -125 486 -229 49 -46 69 -85 44 -85 -16 0
-51 40 -45 51 8 11 -24 38 -107 92 -52 34 -58 36 -58 17 0 -25 -41 -28 -61 -4
-11 14 -11 18 4 29 22 16 19 18 -70 51 -125 47 -226 65 -408 71 -306 10 -519
-39 -695 -161 -25 -17 -48 -30 -52 -29 -3 2 -20 -13 -37 -32 -85 -98 -141
-251 -148 -410 -6 -143 12 -230 73 -355 66 -133 181 -247 347 -344 99 -58 140
-86 125 -86 -2 0 -49 9 -106 20 -102 20 -255 28 -202 10 78 -26 362 -111 403
-121 56 -14 65 -34 10 -24 -33 5 -184 49 -220 62 -7 3 -10 -3 -6 -16 3 -12 -2
-27 -12 -38 -17 -16 -19 -16 -36 6 -21 26 -17 39 14 50 16 6 2 13 -62 30 -99
27 -162 37 -143 23 22 -15 11 -56 -17 -60 -23 -4 -24 -2 -18 37 3 23 4 41 4
41 -31 -3 -121 -42 -130 -56 -30 -44 -52 -149 -52 -245 0 -90 2 -99 37 -170
26 -53 56 -93 102 -137 l64 -62 859 0 859 0 41 62 c129 197 151 519 50 728
-40 83 -170 215 -287 292 -47 30 -177 106 -290 167 -113 61 -216 121 -230 132
l-25 21 41 -5 c22 -3 115 -39 207 -81 182 -84 246 -101 353 -93 103 8 172 47
210 119 42 80 35 256 -13 355 -99 201 -449 378 -768 389 l-120 4 85 -16z"/>
<path d="M9315 2075 c106 -20 269 -75 258 -86 -5 -5 -40 1 -83 16 -141 48
-222 60 -405 59 -135 0 -188 -5 -260 -21 -123 -29 -143 -38 -147 -65 -2 -17
-11 -24 -32 -26 -26 -3 -28 -1 -24 22 3 14 2 26 -1 26 -12 0 -71 -40 -71 -48
0 -5 -10 -13 -22 -19 -13 -6 -45 -27 -72 -47 -26 -21 -57 -39 -68 -41 -28 -6
-51 -28 -119 -113 -52 -65 -146 -233 -153 -272 -1 -8 -7 -25 -14 -36 -17 -32
-59 -199 -71 -288 -6 -42 -11 -141 -11 -219 0 -224 35 -396 115 -566 55 -114
115 -200 202 -286 l66 -65 810 0 811 0 28 27 28 27 0 857 0 857 -68 63 c-161
150 -409 247 -657 255 l-120 4 80 -15z m-105 -758 c0 -8 -10 -40 -22 -73 -17
-47 -21 -83 -22 -174 -1 -111 0 -118 32 -182 18 -36 49 -81 69 -99 52 -45 146
-87 237 -104 75 -15 77 -14 114 9 71 44 90 51 52 17 -50 -44 -175 -107 -250
-126 -36 -9 -76 -26 -88 -38 l-24 -22 -19 24 c-28 34 -24 41 24 42 23 1 56 4
72 8 28 7 27 7 -17 13 -122 15 -233 121 -273 262 -23 78 -17 228 12 308 33 89
103 181 103 135z"/>
<path d="M3200 2069 c117 -15 194 -57 226 -123 l15 -31 -26 33 c-81 99 -321
135 -460 68 -33 -16 -63 -29 -67 -28 -17 4 -71 -79 -98 -150 -50 -132 -52
-157 -47 -783 4 -610 4 -616 52 -760 27 -82 82 -187 128 -242 l42 -53 847 0
847 0 31 38 c43 51 105 182 129 272 43 160 46 219 46 815 -1 557 -1 572 -23
649 -60 216 -210 308 -494 305 l-103 -2 75 -7 c41 -4 91 -14 111 -23 39 -16
119 -83 119 -99 0 -6 -17 5 -37 22 -71 63 -113 75 -258 75 -124 0 -184 -11
-255 -45 -51 -24 -107 -183 -121 -345 -5 -60 -10 -330 -12 -599 l-2 -489 -25
-19 c-27 -20 -145 -46 -157 -34 -12 11 19 26 57 27 19 0 44 4 55 8 16 7 15 9
-12 14 -17 3 -34 14 -39 24 -5 10 -11 272 -14 583 -7 615 -8 623 -67 732 -64
117 -220 180 -436 177 l-92 -2 65 -8z"/>
<path d="M7461 2069 c81 -8 154 -32 145 -48 -3 -5 -24 -2 -48 7 -31 11 -79 16
-168 17 -118 0 -128 -2 -185 -29 -33 -16 -65 -28 -71 -28 -6 1 -17 -10 -25
-25 -8 -16 -17 -31 -22 -34 -17 -12 -67 -180 -77 -259 -16 -121 -8 -1487 9
-1550 6 -25 16 -62 22 -83 l10 -37 442 2 441 3 17 57 c35 115 39 199 39 911
-1 742 -4 800 -48 899 -61 140 -216 210 -454 207 l-103 -2 76 -8z"/>
</g>
</svg>
