<?xml version="1.0" standalone="no"?>
<!DOCTYPE svg PUBLIC "-//W3C//DTD SVG 20010904//EN"
 "http://www.w3.org/TR/2001/REC-SVG-20010904/DTD/svg10.dtd">
<svg version="1.0" xmlns="http://www.w3.org/2000/svg"
 width="4004.000000pt" height="4458.000000pt" viewBox="0 0 4004.000000 4458.000000"
 preserveAspectRatio="xMidYMid meet">
<metadata>
Created by potrace 1.16, written by Peter Selinger 2001-2019
</metadata>
<g transform="translate(0.000000,4458.000000) scale(0.100000,-0.100000)"
fill="#ffffff" stroke="none">
<path d="M4533 44562 c-90 -32 -157 -96 -189 -183 -12 -32 -17 -79 -18 -171
l-1 -128 -27 0 -28 0 0 -75 0 -75 29 0 c29 0 29 0 35 -72 3 -40 8 -125 11
-188 3 -63 8 -152 11 -197 l6 -83 -46 0 -46 0 0 -75 0 -75 50 0 c50 0 50 0 50
-32 0 -18 7 -132 15 -253 8 -121 15 -228 15 -237 0 -15 -10 -18 -65 -18 l-65
0 0 -75 0 -75 70 0 c60 0 70 -3 70 -17 1 -10 7 -103 14 -208 l13 -190 51 -105
c65 -134 93 -240 92 -347 0 -68 3 -83 15 -83 8 0 15 7 15 15 0 8 7 15 15 15
13 0 15 56 15 445 0 432 -1 445 -19 445 -30 0 -80 48 -92 89 -23 76 34 161
107 161 33 0 34 1 34 43 0 23 -7 116 -15 207 -8 91 -15 168 -15 172 0 4 -15
14 -33 22 -135 56 -94 254 51 244 l43 -3 -7 65 c-3 36 -14 132 -23 213 l-16
149 -40 14 c-80 27 -112 102 -76 178 34 68 95 91 166 62 51 -22 77 -69 72
-130 -4 -50 -26 -79 -81 -111 -16 -9 -16 -23 7 -232 22 -208 26 -224 50 -253
32 -37 36 -91 11 -142 -14 -31 -10 -81 70 -828 47 -438 86 -799 86 -803 0 -4
29 -7 65 -7 45 0 65 4 65 12 0 7 34 364 76 793 41 429 73 796 70 815 -3 19 -9
49 -12 67 -4 23 1 46 17 79 18 38 26 88 44 268 l22 221 -33 30 c-55 50 -67
106 -36 164 66 123 242 73 242 -69 0 -57 -48 -109 -108 -117 -23 -3 -42 -8
-42 -12 0 -3 -9 -96 -20 -206 -11 -110 -20 -205 -20 -211 0 -7 19 -9 55 -6 53
4 56 3 95 -36 34 -34 40 -46 40 -83 0 -58 -30 -106 -78 -126 -20 -8 -38 -16
-40 -18 -4 -3 -31 -352 -32 -397 0 -25 4 -28 30 -28 17 0 44 -7 60 -15 80 -41
79 -179 0 -220 -29 -15 -30 -18 -30 -83 0 -37 -5 -236 -10 -442 -7 -240 -7
-376 -1 -378 6 -2 7 -10 4 -18 -3 -8 -1 -14 5 -14 5 0 12 35 15 78 9 128 66
309 126 404 26 41 28 53 39 238 7 107 12 203 12 213 0 15 10 17 80 17 l80 0 0
75 0 75 -76 0 -76 0 5 43 c4 23 12 144 18 270 l12 227 59 0 58 0 0 75 0 75
-55 0 -54 0 5 63 c5 75 24 421 24 454 0 20 5 23 40 23 l40 0 0 75 0 75 -34 0
-34 0 -4 133 c-4 109 -8 141 -27 183 -28 63 -90 126 -156 156 -49 23 -56 23
-455 25 -369 3 -410 1 -457 -15z"/>
<path d="M25425 44558 c-14 -38 -435 -1510 -435 -1521 0 -6 28 -27 63 -46 134
-73 258 -234 317 -411 23 -71 50 -230 50 -297 0 -36 3 -43 20 -43 20 0 20 7
20 359 l0 359 -23 6 c-40 10 -79 60 -84 108 -6 62 21 108 81 132 45 19 47 19
92 0 110 -45 111 -183 2 -240 l-28 -15 0 -354 0 -355 65 0 65 0 -2 727 c-3
719 -3 728 -23 731 -11 2 -32 16 -48 30 -69 65 -45 187 42 213 57 17 104 5
140 -37 57 -64 38 -159 -40 -199 l-29 -16 0 -724 0 -725 65 0 65 0 0 918 0
918 -32 15 c-48 21 -73 62 -73 119 0 40 5 54 29 79 87 91 226 38 226 -85 0
-47 -32 -98 -70 -114 l-30 -12 0 -919 0 -919 60 0 60 0 0 474 0 474 -23 6
c-38 9 -78 60 -84 105 -10 73 30 130 103 145 39 9 90 -11 124 -49 49 -53 27
-155 -41 -193 l-29 -17 1 -475 c1 -457 2 -470 15 -355 15 135 50 269 95 361
57 121 171 242 272 290 20 10 36 23 34 28 -2 6 -103 354 -223 773 l-219 763
-283 0 c-217 0 -284 -3 -287 -12z"/>
<path d="M25783 44280 c-66 -27 -52 -137 20 -155 60 -15 115 48 95 107 -18 50
-63 69 -115 48z"/>
<path d="M4595 44088 c-15 -14 -28 -38 -32 -60 -5 -32 -1 -41 25 -68 17 -16
38 -30 47 -30 15 0 16 7 11 44 -4 25 -3 47 2 50 13 8 22 -17 22 -60 0 -40 8
-42 44 -9 29 27 36 86 13 116 -33 43 -93 50 -132 17z"/>
<path d="M5249 44081 c-35 -36 -38 -77 -7 -116 20 -26 22 -26 29 -9 4 10 8 31
8 46 1 15 6 30 12 34 8 4 10 -11 7 -50 -3 -55 -2 -56 23 -56 40 0 79 45 79 89
-1 84 -92 121 -151 62z"/>
<path d="M25583 43874 c-21 -21 -24 -32 -19 -62 13 -82 115 -102 152 -30 45
86 -64 161 -133 92z"/>
<path d="M4589 43391 c-16 -16 -29 -40 -29 -53 0 -33 36 -88 58 -88 17 0 18 6
14 50 -3 30 -1 50 5 50 11 0 23 -46 23 -86 0 -28 7 -30 39 -8 21 15 22 21 16
78 -9 74 -17 86 -62 86 -25 0 -43 -8 -64 -29z"/>
<path d="M5258 43403 c-9 -10 -18 -41 -22 -69 -7 -53 4 -72 46 -87 15 -5 17 2
20 50 2 37 8 58 17 61 11 4 12 -7 6 -57 -8 -69 -2 -74 44 -35 65 54 28 154
-57 154 -25 0 -45 -6 -54 -17z"/>
<path d="M25942 43384 c-67 -47 -30 -154 53 -154 7 0 27 12 44 26 80 67 -12
188 -97 128z"/>
<path d="M15678 43280 c-117 -20 -225 -101 -284 -214 -24 -46 -33 -55 -49 -50
-27 9 -26 7 -14 43 6 18 10 33 8 35 -15 11 -223 126 -228 126 -7 0 -103 -258
-113 -300 -2 -11 20 -18 92 -31 181 -32 166 -32 180 0 10 25 16 28 33 22 14
-5 21 -16 19 -27 -6 -41 -100 -328 -108 -331 -5 -1 -15 1 -23 6 -11 7 -11 15
-3 39 l11 31 -116 66 c-63 37 -117 65 -119 62 -7 -7 -116 -308 -112 -312 1 -1
61 -12 132 -24 133 -22 145 -21 146 17 0 13 19 16 43 6 11 -4 4 -38 -40 -177
-30 -94 -56 -173 -58 -175 -2 -2 -13 -1 -24 3 -17 5 -18 10 -9 36 7 20 7 34 1
40 -21 21 -218 127 -224 121 -11 -11 -112 -302 -108 -307 6 -5 226 -45 250
-45 10 0 19 10 23 25 7 26 21 31 44 16 11 -6 2 -44 -40 -180 -47 -152 -55
-171 -73 -169 -20 3 -22 14 -10 54 6 19 -7 29 -103 83 -60 33 -113 61 -119 61
-9 0 -125 -301 -118 -308 4 -4 227 -42 248 -42 10 0 22 11 27 26 8 20 14 24
33 18 12 -3 23 -7 24 -8 1 -1 -11 -44 -28 -96 -16 -52 -41 -132 -55 -176 -22
-72 -27 -81 -45 -77 -16 5 -19 11 -14 32 4 14 7 30 8 35 2 12 -212 138 -225
134 -18 -6 -120 -301 -107 -308 6 -4 59 -15 117 -24 59 -10 114 -19 122 -22
10 -2 20 6 27 25 8 23 15 29 32 24 11 -3 21 -10 21 -16 0 -9 -100 -338 -104
-344 -1 -1 -11 0 -23 3 -19 5 -20 9 -10 40 6 19 8 36 6 38 -27 23 -223 126
-229 119 -10 -9 -110 -282 -110 -298 0 -6 49 -19 113 -29 61 -9 120 -20 130
-22 13 -4 21 2 30 25 13 35 16 36 39 19 14 -11 15 -21 6 -68 -13 -70 -4 -168
21 -224 23 -54 79 -116 125 -141 35 -19 36 -21 36 -81 0 -34 4 -64 8 -66 5 -1
-4 -1823 -20 -4048 l-29 -4045 -38 -35 c-108 -99 -243 -151 -408 -158 -171 -7
-329 36 -500 136 -143 84 -225 181 -270 320 -24 71 -26 97 -33 342 -7 228 -11
274 -29 331 -38 121 -87 170 -175 177 -94 8 -194 -53 -286 -175 -184 -242
-290 -671 -251 -1008 32 -278 123 -500 417 -1015 265 -465 312 -573 342 -787
26 -187 -3 -371 -93 -585 -73 -174 -207 -386 -549 -872 -426 -603 -623 -1042
-702 -1566 -22 -141 -25 -479 -5 -620 49 -360 176 -729 354 -1032 433 -735
1316 -1179 2482 -1248 212 -12 707 1 940 25 1073 111 1847 512 2296 1189 347
523 457 1176 313 1858 -116 551 -374 1065 -783 1563 -198 240 -288 370 -382
550 -172 328 -210 604 -119 877 37 109 67 169 170 333 142 227 233 434 276
626 22 101 23 285 1 368 -48 179 -187 331 -303 331 -104 -1 -187 -78 -274
-258 -98 -200 -178 -304 -297 -386 -93 -63 -168 -88 -279 -94 -175 -8 -383 71
-513 197 l-69 66 -116 4235 c-64 2329 -118 4274 -121 4323 -4 73 -2 87 10 87
12 0 15 14 15 60 l0 60 -41 0 c-41 0 -41 0 -34 33 16 75 69 218 113 301 49 93
133 193 201 240 30 21 41 36 41 55 0 15 -30 276 -66 581 -71 602 -73 648 -33
790 41 150 137 293 250 373 32 23 58 47 58 53 2 28 -152 520 -173 553 -35 55
-111 118 -170 139 -62 23 -164 33 -228 22z m-36 -347 c30 -27 24 -78 -13 -105
l-31 -23 4 -170 c3 -93 2 -161 -3 -150 -4 11 -8 89 -8 173 -1 152 -1 153 -25
162 -47 17 -60 72 -26 108 25 26 76 29 102 5z m-130 -450 c8 -10 18 -26 21
-36 9 -24 -18 -74 -43 -82 -20 -6 -20 -11 -15 -288 18 -886 30 -2219 19 -2152
-2 11 -8 403 -13 870 -19 1485 -21 1564 -43 1570 -24 8 -50 59 -41 82 12 34
36 53 68 53 18 0 38 -8 47 -17z m118 -1273 c17 -951 23 -1530 13 -1350 -6 115
-43 2253 -41 2400 3 248 7 109 28 -1050z m-296 819 c55 -25 53 -112 -2 -126
l-25 -6 7 -196 c3 -108 8 -587 10 -1066 3 -630 2 -754 -4 -450 -4 231 -9 611
-10 845 -3 602 -10 870 -23 870 -22 0 -47 34 -47 64 0 36 7 48 35 64 25 14 29
14 59 1z m-119 -484 c14 -13 25 -33 25 -43 0 -25 -37 -72 -56 -72 -12 0 -13
-29 -9 -187 3 -122 2 -181 -4 -168 -5 11 -10 94 -10 185 l-1 165 -30 17 c-24
14 -30 24 -30 52 0 68 68 99 115 51z m-151 -456 c51 -23 50 -113 0 -125 l-24
-6 2 -2894 c2 -1592 0 -2894 -4 -2894 -5 0 -8 1302 -8 2894 l0 2894 -24 6
c-49 12 -51 101 -3 124 29 14 32 14 61 1z m114 -821 l-2 -723 -6 705 c-5 657
-4 740 6 740 2 0 3 -325 2 -722z m-254 340 c25 -35 20 -73 -11 -98 l-28 -22
-5 -1006 -5 -1007 -3 1008 c-1 692 -5 1007 -12 1007 -21 0 -60 49 -60 75 0 59
91 90 124 43z m441 -2192 c19 -27 19 -80 0 -96 -12 -10 -15 -52 -17 -239 l-3
-226 -2 223 -3 222 -30 0 c-35 0 -70 34 -70 69 0 34 37 71 72 71 28 0 28 0 30
73 l2 72 3 -74 c2 -43 10 -83 18 -95z m-498 -2323 c-1 -307 -2 -58 -2 552 0
611 1 862 2 558 2 -303 2 -803 0 -1110z m508 1191 c4 -27 3 -44 -4 -48 -7 -5
-12 -65 -13 -169 l-2 -162 -3 151 -3 150 -37 0 c-68 0 -96 72 -47 121 20 20
32 24 55 19 l29 -5 2 147 2 147 7 -155 c4 -85 10 -174 14 -196z m-6 -1164 l-5
-165 -2 135 -2 136 -39 -4 c-73 -7 -107 63 -55 115 21 21 32 24 60 20 l34 -6
2 167 2 167 5 -200 c3 -110 3 -274 0 -365z m9 -762 c-2 -289 -3 -326 -8 -181
-4 159 -7 181 -20 173 -26 -17 -60 -11 -85 15 -30 29 -32 68 -5 95 22 22 79
27 98 8 9 -9 12 17 12 120 0 73 2 132 5 132 3 0 4 -163 3 -362z m-516 -1330
c-1 -442 -3 -942 -5 -1113 -1 -170 -3 191 -5 803 -1 611 1 1112 6 1112 4 0 6
-361 4 -802z m730 272 c24 0 48 -34 48 -67 0 -32 -28 -73 -50 -73 -6 0 -11
-42 -12 -102 l-2 -103 -3 100 c-4 99 -4 100 -33 117 -16 9 -32 29 -36 44 -9
35 14 78 44 82 21 3 22 8 24 115 l2 112 3 -112 c3 -76 7 -113 15 -113z m-460
-17 c25 -30 29 -53 13 -83 -27 -53 -102 -49 -127 5 -9 21 -8 32 5 60 15 31 21
35 55 35 25 0 44 -6 54 -17z m270 -856 c2 -207 0 -377 -4 -377 -5 0 -8 31 -8
70 l0 70 -25 -10 c-78 -30 -130 73 -62 124 23 17 32 19 57 9 l30 -11 1 261 c0
144 2 258 4 252 2 -5 5 -180 7 -388z m6 -919 c-2 -355 -3 -358 -8 -123 -3 132
-9 234 -13 228 -12 -19 -77 -16 -99 4 -25 23 -24 77 4 103 26 24 56 26 86 4
l22 -15 0 80 c0 45 2 81 5 81 3 0 4 -163 3 -362z m-166 -2886 c2 -364 0 -662
-3 -662 -7 0 -20 1928 -17 2654 1 436 3 370 9 -404 4 -509 9 -1223 11 -1588z
m187 1218 c5 -437 7 -797 5 -799 -2 -2 -6 -2 -8 0 -2 2 -6 425 -8 939 -3 514
-3 872 -1 795 1 -77 7 -498 12 -935z m-582 -617 c-1 -307 -2 -58 -2 552 0 611
1 862 2 558 2 -303 2 -803 0 -1110z m786 -53 c3 -453 2 -568 -3 -340 -4 190
-10 653 -13 1030 -3 453 -2 568 3 340 4 -190 10 -653 13 -1030z m190 345 c3
-340 3 -418 -3 -245 -4 140 -10 480 -13 755 -3 340 -3 418 3 245 4 -140 10
-480 13 -755z m-773 -1250 l0 -2175 35 0 35 0 0 -209 0 -209 -36 -7 c-20 -3
-54 -3 -75 0 l-39 7 0 209 0 209 35 0 35 0 -2 2175 c-2 1196 0 2175 5 2175 4
0 7 -979 7 -2175z m404 -902 c3 -450 9 -891 12 -980 4 -105 3 -163 -3 -163 -7
0 -13 302 -17 858 -3 471 -9 912 -12 980 -4 78 -3 122 3 122 7 0 13 -289 17
-817z m-579 -1273 l35 0 0 -209 0 -209 -36 -7 c-20 -3 -54 -3 -75 0 l-39 7 0
209 0 209 35 0 35 0 2 923 3 922 2 -922 3 -923 35 0z m994 1020 c6 -377 13
-731 16 -787 3 -57 2 -103 -3 -103 -5 0 -12 165 -15 368 -15 791 -20 1217 -15
1212 3 -3 11 -313 17 -690z m-617 -243 c2 -356 0 -647 -4 -647 -5 0 -7 318 -6
708 1 389 3 680 5 647 1 -33 4 -351 5 -708z m420 -370 c2 -152 0 -277 -3 -277
-7 0 -20 798 -17 1115 1 196 2 172 9 -165 4 -217 9 -520 11 -673z m1998 789
c28 -43 48 -81 43 -85 -22 -20 -152 -101 -161 -101 -10 0 -112 154 -112 168 1
12 164 111 171 104 4 -4 30 -42 59 -86z m-1747 -1198 l32 -3 3 -206 2 -207
-36 -7 c-20 -3 -54 -3 -75 0 l-39 7 0 209 0 209 35 0 c33 0 35 2 37 38 l1 37
4 -37 c4 -33 7 -37 36 -40z m-420 0 l32 -3 3 -206 2 -207 -36 -7 c-20 -3 -54
-3 -75 0 l-39 7 0 209 0 209 35 0 c32 0 35 2 37 33 l1 32 4 -32 c4 -27 9 -32
36 -35z m-175 -210 l2 -206 -39 -7 c-21 -3 -55 -3 -75 0 l-36 7 0 210 0 209
73 -3 72 -3 3 -207z m420 0 l2 -206 -39 -7 c-21 -3 -55 -3 -75 0 l-36 7 0 210
0 209 73 -3 72 -3 3 -207z"/>
<path d="M5225 43207 c-2 -12 -36 -355 -75 -762 -38 -407 -73 -757 -76 -778
l-6 -38 58 3 59 3 31 445 31 445 -28 32 c-52 60 -46 138 14 189 l32 27 12 166
c18 258 18 257 -17 275 -29 14 -30 13 -35 -7z"/>
<path d="M4690 43209 l-26 -9 18 -203 c9 -111 17 -210 18 -219 0 -9 9 -20 21
-23 11 -4 29 -21 40 -38 10 -18 19 -25 19 -17 1 40 -54 520 -59 519 -3 0 -17
-5 -31 -10z"/>
<path d="M25425 43145 c-25 -24 -32 -65 -19 -100 10 -25 62 -47 95 -40 89 20
71 165 -21 165 -19 0 -40 -9 -55 -25z"/>
<path d="M10161 43137 c-17 -22 -32 -117 -26 -167 3 -25 46 -623 96 -1330 49
-707 93 -1320 96 -1362 6 -77 6 -78 32 -72 48 10 52 13 47 36 -3 13 -8 75 -11
138 -8 167 -173 2536 -181 2591 -7 55 8 116 37 153 l20 26 -49 0 c-29 0 -54
-5 -61 -13z"/>
<path d="M10443 43120 c34 -40 48 -113 41 -217 -9 -152 -75 -2411 -72 -2461 3
-42 6 -47 29 -50 14 -2 30 3 36 10 6 8 25 487 48 1248 46 1476 45 1392 22
1453 l-19 47 -55 0 -55 0 25 -30z"/>
<path d="M4614 42726 c-56 -25 -69 -101 -24 -146 33 -33 50 -26 50 20 0 22 5
40 10 40 6 0 10 -18 10 -40 0 -30 4 -40 16 -40 15 0 16 10 10 82 -6 72 -16 98
-36 97 -3 0 -19 -6 -36 -13z"/>
<path d="M5293 42732 c-6 -4 -12 -41 -14 -85 -3 -66 -1 -80 14 -88 27 -16 37
-2 37 52 0 27 5 49 10 49 6 0 10 -24 10 -52 l1 -53 24 28 c32 36 33 87 3 120
-25 27 -66 41 -85 29z"/>
<path d="M4781 42647 c-1 -42 -23 -92 -47 -105 -13 -8 -11 -54 21 -448 20
-241 38 -445 40 -451 5 -14 91 -18 98 -5 2 4 -22 241 -53 527 -32 286 -58 503
-59 482z"/>
<path d="M4660 42075 l0 -445 56 0 56 0 -6 58 c-10 86 -66 780 -66 808 0 17
-5 24 -20 24 -20 0 -20 -7 -20 -445z"/>
<path d="M5270 42513 c0 -5 -14 -195 -30 -423 -16 -228 -30 -425 -30 -437 0
-21 5 -23 49 -23 l49 0 6 328 c3 180 9 380 12 445 l6 117 -31 0 c-17 0 -31 -3
-31 -7z"/>
<path d="M27925 41576 c-45 -20 -94 -64 -114 -105 -46 -91 -38 -152 83 -646
176 -710 378 -1438 528 -1895 137 -419 213 -576 453 -940 146 -222 445 -622
445 -597 0 3 34 -10 76 -30 244 -112 557 -191 849 -212 339 -26 784 59 1139
216 96 43 106 52 280 284 313 415 494 724 614 1049 158 428 555 1849 687 2462
44 206 30 309 -49 375 -33 27 -112 60 -122 51 -2 -2 10 -24 26 -48 39 -59 38
-81 -9 -123 -219 -198 -1557 -331 -2886 -287 -1125 38 -1995 181 -1995 328 0
10 15 44 34 75 33 55 34 57 13 57 -12 -1 -35 -7 -52 -14z"/>
<path d="M35296 41268 c-4 -24 -22 -194 -41 -378 -20 -184 -49 -456 -65 -605
-16 -148 -32 -303 -36 -342 -6 -62 -9 -73 -25 -73 -16 0 -19 -8 -19 -60 0 -43
4 -60 13 -60 10 0 12 -16 9 -62 -2 -35 -50 -943 -107 -2018 l-103 -1954 -63
-55 c-113 -96 -511 -501 -640 -651 -1099 -1272 -1925 -2790 -2289 -4204 -115
-447 -182 -861 -211 -1296 -15 -232 -7 -740 16 -940 92 -836 355 -1464 815
-1944 367 -383 908 -665 1479 -771 238 -44 266 -45 1489 -45 749 0 1199 3
1257 10 817 95 1483 461 1923 1058 319 432 513 983 589 1672 23 208 26 876 5
1090 -60 614 -183 1171 -391 1780 -455 1333 -1312 2749 -2318 3832 -129 139
-365 367 -460 445 l-23 18 -106 2014 c-79 1485 -104 2016 -96 2019 18 6 16
122 -2 122 -20 0 -24 17 -36 150 -15 161 -40 392 -45 410 -2 8 -6 51 -10 95
-3 44 -17 177 -30 295 -13 118 -29 267 -35 330 -6 63 -13 125 -16 138 -4 22
-5 22 -214 22 l-209 0 -5 -42z m164 -1080 c0 -431 -7 -1591 -15 -2578 -8 -987
-17 -2263 -20 -2835 -3 -572 -8 -1164 -11 -1315 l-6 -275 101 3 102 3 -5 32
c-3 18 -8 417 -11 887 -3 470 -17 1913 -30 3205 -14 1293 -25 2644 -25 3003 0
645 0 652 20 652 19 0 20 -7 20 -119 0 -106 2 -119 18 -123 15 -4 21 -34 42
-229 23 -221 24 -227 92 -439 l69 -215 99 -2200 c55 -1210 125 -2746 155
-3414 30 -668 56 -1215 57 -1215 2 -1 38 -28 81 -60 395 -297 557 -813 405
-1286 -56 -175 -193 -382 -333 -505 l-70 -61 18 -409 c26 -617 85 -1937 107
-2395 11 -223 20 -413 20 -422 0 -13 -8 -18 -25 -18 -17 0 -25 5 -25 18 1 36
-91 2109 -120 2707 -11 226 -20 427 -20 448 l0 37 -52 -31 c-29 -17 -77 -42
-107 -55 l-53 -25 6 -107 c3 -59 8 -242 11 -407 7 -361 41 -1706 55 -2145 14
-461 15 -440 -13 -440 l-24 0 -6 253 c-4 138 -10 369 -13 512 -3 143 -12 503
-20 800 -7 297 -19 755 -26 1018 -6 262 -15 482 -18 487 -4 7 -21 5 -48 -4
-23 -8 -69 -20 -103 -27 l-61 -12 6 -856 c4 -471 11 -1128 16 -1461 5 -333 10
-629 10 -657 0 -50 -1 -53 -25 -53 -25 0 -25 0 -25 98 -1 263 -20 2062 -26
2462 l-7 456 -116 -1 -116 0 -6 -550 c-3 -302 -7 -832 -8 -1176 0 -344 -4
-775 -8 -957 l-6 -332 -25 0 -25 0 6 133 c4 72 9 598 12 1167 3 569 8 1191 11
1383 l5 347 -26 0 c-15 0 -63 9 -107 21 -44 11 -82 18 -84 16 -5 -5 -42 -1463
-59 -2327 -3 -157 -8 -387 -11 -512 l-7 -228 -24 0 -24 0 6 203 c16 578 26
960 35 1417 6 278 15 692 20 921 6 229 10 446 10 483 l0 67 -62 29 c-35 16
-87 42 -115 59 l-53 31 0 -42 c0 -24 -9 -232 -20 -463 -22 -463 -83 -1837
-100 -2230 -20 -480 -19 -475 -47 -475 l-24 0 6 103 c9 152 74 1580 123 2727
l18 415 -25 19 c-14 10 -66 60 -116 111 -377 386 -430 983 -128 1438 77 116
218 254 351 343 4 3 53 1074 206 4509 52 1166 98 2165 101 2220 6 86 16 131
74 315 66 208 69 222 90 420 26 243 27 250 46 250 12 0 15 21 15 120 0 113 1
120 20 120 20 0 20 -7 20 -782z m-1351 -9885 c153 -39 299 -160 371 -305 76
-156 88 -307 35 -465 -82 -244 -303 -405 -560 -407 -176 -1 -306 53 -430 178
-125 126 -175 246 -175 421 0 165 49 289 161 409 99 105 210 165 348 186 67
10 175 3 250 -17z m3086 12 c117 -25 208 -76 300 -169 124 -125 175 -248 175
-421 0 -174 -51 -297 -175 -421 -92 -93 -184 -145 -300 -169 -136 -29 -266
-12 -395 51 -56 28 -95 57 -155 118 -124 124 -175 247 -175 421 0 173 51 296
175 421 60 61 98 90 155 118 129 63 259 80 395 51z"/>
<path d="M35581 40270 c-1 -308 36 -3948 59 -5785 5 -429 10 -897 10 -1040 l0
-261 93 -21 c50 -11 93 -20 94 -19 2 2 -21 942 -108 4341 -56 2206 -61 2384
-84 2577 -13 114 -32 232 -41 263 -13 39 -15 58 -7 63 8 5 7 36 -2 112 -12
101 -13 92 -14 -230z"/>
<path d="M35404 40495 c-7 -66 -7 -102 0 -107 6 -4 3 -29 -8 -70 -10 -35 -28
-157 -42 -273 -22 -198 -27 -346 -79 -2640 -90 -4006 -95 -4248 -91 -4252 2
-2 44 4 93 13 l90 16 6 846 c3 466 15 1992 27 3392 11 1400 19 2687 18 2860
-3 288 -4 306 -14 215z"/>
<path d="M35272 39928 l-31 -103 -101 -2270 c-55 -1248 -120 -2733 -145 -3300
-25 -566 -48 -1070 -51 -1119 -5 -73 -4 -88 7 -83 74 31 171 76 175 80 3 3 16
468 30 1033 13 566 49 2082 79 3369 31 1287 60 2374 65 2415 5 41 8 75 6 77
-1 2 -17 -43 -34 -99z"/>
<path d="M35695 40010 c16 -84 31 -561 75 -2365 28 -1111 54 -2157 60 -2325 5
-168 19 -690 30 -1160 11 -470 23 -896 26 -946 l6 -90 81 -37 c44 -20 82 -35
84 -34 3 3 -12 355 -197 4524 l-101 2261 -35 99 c-19 54 -32 87 -29 73z"/>
<path d="M35407 32628 c-4 -244 -7 -709 -7 -1034 l0 -592 33 -4 c17 -2 70 -2
116 0 l84 4 -7 492 c-3 270 -9 732 -12 1027 l-7 537 -45 6 c-25 3 -68 6 -97 6
l-52 0 -6 -442z"/>
<path d="M35295 33049 c-22 -5 -56 -14 -77 -19 l-36 -10 -6 -83 c-4 -45 -13
-395 -21 -777 -8 -382 -17 -786 -20 -897 l-5 -202 68 -21 c37 -12 85 -24 108
-27 l41 -5 6 453 c6 375 9 988 7 1502 0 106 3 102 -65 86z"/>
<path d="M35656 32839 c7 -971 16 -1705 20 -1760 l6 -66 42 9 c22 5 69 18 104
29 l62 21 0 86 c0 142 -39 1607 -46 1734 l-6 118 -52 15 c-28 9 -69 18 -91 21
l-40 6 1 -213z"/>
<path d="M35025 32952 l-90 -47 -7 -135 c-5 -112 -25 -547 -64 -1416 l-6 -141
69 -45 c99 -66 152 -92 158 -76 2 7 11 344 19 748 9 404 19 831 22 948 3 116
2 212 -3 212 -4 -1 -48 -22 -98 -48z"/>
<path d="M35894 32754 c4 -132 13 -500 21 -819 16 -636 24 -835 34 -835 10 0
153 89 174 108 17 15 18 29 12 177 -6 159 -50 1145 -62 1387 l-6 126 -89 47
-90 47 6 -238z"/>
<path d="M34789 32783 c-139 -133 -226 -272 -282 -449 -91 -289 -40 -629 132
-883 47 -68 161 -194 169 -186 14 13 81 1595 68 1595 -3 0 -42 -35 -87 -77z"/>
<path d="M36124 32673 c19 -497 54 -1253 62 -1342 l6 -63 40 38 c124 120 218
287 271 479 31 114 31 383 -1 497 -52 189 -149 356 -285 490 -44 43 -84 78
-89 78 -7 0 -8 -62 -4 -177z"/>
<path d="M33844 30195 c-86 -18 -158 -58 -227 -124 -69 -65 -101 -117 -129
-204 -39 -121 -21 -277 45 -389 34 -59 132 -150 195 -182 283 -143 626 22 691
332 54 258 -115 512 -378 568 -80 17 -117 17 -197 -1z"/>
<path d="M36924 30182 c-168 -59 -288 -194 -323 -360 -67 -322 209 -616 537
-571 96 13 203 68 274 140 230 235 161 618 -138 765 -74 37 -83 39 -188 42
-87 2 -122 -2 -162 -16z"/>
<path d="M34797 41140 c-109 -34 -167 -94 -167 -170 0 -99 116 -176 285 -186
143 -9 185 34 185 189 0 151 -33 187 -167 186 -47 0 -101 -7 -136 -19z"/>
<path d="M36028 41144 c-45 -24 -61 -67 -61 -169 -1 -100 11 -136 55 -168 37
-28 125 -33 211 -13 153 36 205 91 199 210 -3 47 -77 110 -158 135 -80 25
-205 28 -246 5z"/>
<path d="M34780 40646 c-71 -20 -95 -32 -133 -66 -63 -55 -71 -140 -19 -201
71 -85 293 -130 373 -76 49 33 59 60 59 165 0 107 -16 154 -61 177 -35 19
-156 19 -219 1z"/>
<path d="M36064 40641 c-47 -29 -68 -92 -62 -188 8 -143 50 -180 193 -170 175
13 275 81 275 187 0 59 -27 101 -84 135 -95 56 -260 74 -322 36z"/>
<path d="M34703 40155 c-189 -52 -249 -184 -134 -288 56 -51 127 -72 243 -72
97 0 98 0 130 33 l33 32 0 120 0 120 -33 32 c-30 31 -37 33 -110 35 -44 2 -99
-3 -129 -12z"/>
<path d="M36144 40151 c-44 -27 -59 -71 -59 -176 1 -144 36 -185 157 -185 181
1 308 78 308 189 0 59 -26 102 -82 135 -94 55 -263 74 -324 37z"/>
<path d="M25267 39102 c-10 -10 -17 -28 -17 -40 0 -21 4 -22 105 -22 l105 0 0
40 0 40 -88 0 c-73 0 -92 -3 -105 -18z"/>
<path d="M25260 38540 l0 -40 100 0 100 0 0 40 0 40 -100 0 -100 0 0 -40z"/>
<path d="M18495 38444 c-181 -32 -372 -110 -539 -221 -133 -88 -329 -282 -414
-411 -215 -324 -281 -678 -192 -1026 23 -92 80 -231 89 -218 3 6 87 64 186
129 623 412 1176 925 1582 1467 l105 140 -69 34 c-92 47 -220 89 -322 107
-104 19 -319 18 -426 -1z"/>
<path d="M22303 38445 c-91 -16 -240 -67 -321 -109 l-64 -32 97 -130 c417
-555 963 -1062 1590 -1477 99 -65 183 -123 186 -129 4 -5 20 23 37 64 159 382
109 805 -140 1180 -85 129 -281 323 -414 411 -172 114 -356 189 -543 221 -113
19 -325 20 -428 1z"/>
<path d="M25260 38030 l0 -40 100 0 100 0 0 40 0 40 -100 0 -100 0 0 -40z"/>
<path d="M19880 37719 c0 -14 -92 -147 -183 -264 -345 -442 -798 -860 -1332
-1226 -149 -102 -401 -259 -416 -259 -7 0 -27 12 -43 28 l-31 27 25 -28 c14
-16 57 -53 96 -83 l72 -55 93 57 c139 84 404 264 547 372 455 341 909 796
1204 1207 l65 90 -44 72 c-44 73 -53 83 -53 62z"/>
<path d="M21298 37657 l-45 -71 82 -113 c149 -206 297 -375 535 -613 239 -239
421 -399 655 -575 139 -104 433 -303 553 -374 39 -24 72 -48 72 -53 0 -20 169
122 300 251 l135 134 -143 -137 c-79 -75 -148 -136 -153 -136 -16 0 -67 29
-209 118 -591 371 -1137 849 -1511 1322 -91 115 -193 255 -211 292 l-14 26
-46 -71z"/>
<path d="M25260 37540 l0 -40 100 0 100 0 0 40 0 40 -100 0 -100 0 0 -40z"/>
<path d="M20010 37304 c-409 -571 -993 -1101 -1643 -1492 l-118 -71 88 -44
c233 -117 449 -177 855 -237 241 -36 409 -65 460 -80 34 -10 44 -7 115 29 196
99 348 238 488 446 45 67 46 72 39 120 -8 58 -7 35 -28 405 -18 317 -36 486
-67 629 -22 99 -73 262 -106 340 l-19 44 -64 -89z"/>
<path d="M21118 37298 c-94 -248 -127 -443 -153 -913 -18 -326 -21 -370 -31
-420 -6 -34 -1 -45 62 -138 121 -179 286 -327 467 -418 71 -36 81 -39 115 -29
51 15 219 44 460 80 410 61 617 118 855 237 l88 44 -118 71 c-387 233 -785
543 -1102 859 -187 187 -316 335 -469 539 -63 85 -121 161 -127 168 -9 10 -19
-7 -47 -80z"/>
<path d="M25260 37080 l0 -40 100 0 100 0 0 40 0 40 -100 0 -100 0 0 -40z"/>
<path d="M29336 36858 c-63 -487 -159 -1111 -242 -1582 -63 -356 -70 -310 59
-407 310 -231 829 -345 1407 -310 369 23 620 79 856 191 118 55 201 109 272
177 l51 48 -44 244 c-78 430 -210 1285 -256 1667 l-13 101 -89 -39 c-342 -148
-818 -218 -1187 -173 -304 37 -516 94 -786 211 -7 3 -17 -41 -28 -128z"/>
<path d="M25260 36640 l0 -40 100 0 100 0 0 40 0 40 -100 0 -100 0 0 -40z"/>
<path d="M25270 36230 l0 -40 95 0 95 0 0 40 0 40 -95 0 -95 0 0 -40z"/>
<path d="M25270 35845 l0 -45 95 0 95 0 0 45 0 45 -95 0 -95 0 0 -45z"/>
<path d="M25270 35475 l0 -45 95 0 95 0 0 45 0 45 -95 0 -95 0 0 -45z"/>
<path d="M25270 35130 l0 -40 95 0 95 0 0 40 0 40 -95 0 -95 0 0 -40z"/>
<path d="M4490 35041 c0 -5 -177 -11 -407 -14 -435 -5 -525 -13 -753 -63 -309
-69 -547 -186 -726 -356 -258 -245 -374 -573 -374 -1054 0 -283 31 -524 135
-1052 81 -413 89 -481 88 -682 -1 -214 -23 -354 -88 -547 -84 -253 -177 -424
-476 -881 -110 -166 -232 -357 -273 -425 -290 -481 -439 -894 -511 -1417 -22
-156 -31 -632 -16 -814 41 -490 216 -860 565 -1193 573 -548 1609 -895 2912
-974 258 -15 993 -6 1209 15 807 81 1402 235 1916 497 666 340 1051 827 1154
1459 39 241 39 714 0 1013 -54 410 -162 755 -355 1136 -99 196 -176 324 -405
676 -195 301 -257 402 -328 535 -182 340 -269 690 -254 1025 7 159 23 268 93
640 135 717 156 1072 83 1419 -106 510 -440 830 -1009 969 -239 59 -352 69
-790 74 -224 3 -409 9 -415 14 -5 5 -26 9 -47 9 -37 0 -38 -1 -38 -35 0 -35 0
-35 45 -35 l45 0 0 -115 0 -115 -45 0 c-43 0 -45 -1 -45 -30 0 -29 2 -30 45
-30 l45 0 0 -54 c0 -29 3 -81 6 -115 l7 -61 -52 0 c-50 0 -51 -1 -51 -30 0
-29 1 -30 50 -30 l50 0 0 -95 0 -95 -50 0 c-49 0 -50 -1 -50 -30 0 -29 1 -30
49 -30 l48 0 7 -77 c11 -130 13 -123 -44 -123 -49 0 -50 -1 -50 -30 0 -29 1
-30 50 -30 l50 0 0 -90 0 -90 -50 0 c-49 0 -50 -1 -50 -30 0 -29 1 -30 49 -30
l49 0 7 -92 8 -93 128 -62 c347 -169 623 -483 744 -846 60 -182 70 -248 70
-482 0 -235 -10 -302 -72 -479 -80 -232 -197 -411 -380 -587 -153 -146 -357
-272 -526 -325 l-57 -18 2 -425 3 -426 543 -3 542 -2 0 -249 0 -249 -62 -6
c-403 -34 -526 -51 -678 -96 -52 -15 -149 -44 -215 -63 -237 -69 -526 -99
-745 -78 -156 16 -280 42 -473 101 -89 27 -193 56 -231 65 -95 21 -346 53
-486 60 -63 3 -125 8 -137 11 l-23 4 0 250 0 250 494 0 c272 0 497 3 499 8 3
4 8 201 12 437 l7 431 -143 72 c-173 86 -283 167 -410 300 -198 206 -329 457
-386 739 -25 124 -25 442 0 566 94 464 403 858 829 1057 l96 45 7 93 c7 89 8
92 31 92 20 0 24 5 24 30 0 25 -4 30 -25 30 -25 0 -25 1 -25 90 0 89 0 90 25
90 22 0 25 4 25 35 0 31 -3 35 -26 35 l-27 0 6 68 c4 37 7 79 7 95 0 22 4 27
25 27 21 0 25 5 25 30 0 25 -4 30 -25 30 -25 0 -25 0 -25 95 0 95 0 95 25 95
21 0 25 5 25 30 0 23 -5 30 -19 30 -11 0 -22 4 -25 8 -3 5 -2 57 1 115 5 95 8
107 25 107 10 0 18 6 18 14 0 8 3 21 6 30 5 12 0 16 -20 16 l-26 0 0 115 0
115 25 0 c22 0 25 4 25 35 0 28 -4 35 -20 35 -11 0 -20 -4 -20 -9z"/>
<path d="M25270 34805 l0 -45 95 0 95 0 0 45 0 45 -95 0 -95 0 0 -45z"/>
<path d="M25270 34500 l0 -40 95 0 95 0 0 40 0 40 -95 0 -95 0 0 -40z"/>
<path d="M28900 34307 c-31 -130 -35 -199 -16 -287 97 -459 643 -720 1505
-720 512 0 926 94 1182 268 272 185 380 437 310 724 l-23 97 -92 -81 c-296
-263 -668 -407 -1127 -437 -193 -12 -576 2 -722 28 -385 68 -683 205 -906 417
l-88 84 -23 -93z"/>
<path d="M25270 34200 l0 -40 95 0 95 0 0 40 0 40 -95 0 -95 0 0 -40z"/>
<path d="M25280 33925 l0 -45 90 0 90 0 0 45 0 45 -90 0 -90 0 0 -45z"/>
<path d="M26020 33650 l0 -40 95 0 95 0 0 40 0 40 -95 0 -95 0 0 -40z"/>
<path d="M26210 33514 l0 -74 -95 0 -95 0 0 -35 0 -35 95 0 95 0 0 -48 0 -48
133 -22 c795 -131 1487 -579 1934 -1252 766 -1152 600 -2697 -393 -3660 -457
-443 -1021 -714 -1658 -795 -66 -8 -120 -14 -121 -13 -2 2 1 48 6 103 5 55 23
250 39 433 17 183 30 346 30 363 l0 29 -425 0 c-366 0 -425 -2 -425 -15 0 -8
13 -160 29 -337 16 -178 32 -361 36 -408 3 -47 8 -98 11 -113 5 -25 3 -27 -18
-23 -12 3 -71 15 -129 27 -58 11 -112 24 -118 29 -10 6 -10 19 -1 66 16 76 14
177 -5 235 -21 62 -85 122 -164 155 -501 203 -963 604 -1224 1063 -38 66 -93
182 -124 258 -78 196 -121 233 -276 233 -38 0 -105 -9 -149 -21 -45 -11 -84
-17 -88 -12 -12 12 -57 204 -79 333 -125 734 44 1497 467 2110 276 401 662
736 1096 949 212 105 359 157 644 231 l42 11 0 64 0 65 90 0 90 0 0 45 0 45
-90 0 -90 0 0 43 c0 24 -3 46 -6 49 -7 8 -156 -25 -300 -67 -754 -220 -1394
-707 -1823 -1390 -80 -128 -218 -408 -270 -550 -133 -365 -189 -656 -198
-1041 -8 -326 16 -557 87 -852 17 -68 30 -125 30 -127 0 -1 -16 -6 -35 -9 -31
-6 -35 -10 -35 -39 1 -48 34 -188 75 -317 107 -331 283 -640 524 -921 370
-431 885 -761 1524 -974 89 -30 169 -55 179 -55 12 0 18 13 23 50 4 27 10 52
15 55 4 2 56 -6 116 -19 60 -14 142 -30 182 -36 l72 -12 0 -49 c0 -45 3 -51
28 -61 32 -13 505 -18 565 -5 33 7 37 11 37 40 0 18 4 37 8 43 4 6 63 16 132
23 913 92 1732 574 2283 1343 247 345 441 808 522 1243 41 221 50 336 49 605
-1 280 -13 410 -65 653 -230 1095 -1022 1990 -2084 2357 -208 72 -375 109
-682 154 -22 3 -23 0 -23 -70z"/>
<path d="M5390 33357 c0 -32 3 -34 78 -65 416 -171 720 -547 797 -988 20 -113
19 -336 0 -450 -19 -105 -71 -267 -116 -356 -88 -176 -248 -364 -406 -478 -81
-58 -292 -170 -320 -170 -8 0 -13 -15 -13 -40 l0 -40 63 24 c215 81 437 245
582 430 201 258 297 537 297 861 -1 483 -250 921 -670 1177 -71 44 -257 128
-281 128 -6 0 -11 -15 -11 -33z"/>
<path d="M4382 33320 c-231 -113 -418 -276 -557 -485 -94 -143 -162 -306 -201
-485 -27 -121 -27 -420 0 -540 85 -390 312 -710 648 -914 41 -25 101 -57 132
-71 l56 -25 0 38 c0 37 -2 39 -67 71 -101 49 -221 133 -312 217 -213 198 -359
484 -402 783 -14 103 -6 338 15 436 58 261 204 521 389 690 89 82 238 183 339
230 71 32 76 37 80 70 2 22 0 35 -7 35 -7 0 -57 -22 -113 -50z"/>
<path d="M4877 32798 c-4 -271 -8 -815 -9 -1208 l-2 -715 77 -3 77 -3 2 851
c2 467 3 1011 3 1208 l0 357 -71 3 -71 3 -6 -493z"/>
<path d="M5050 32079 l0 -1211 58 6 c31 4 65 9 75 12 16 5 17 71 17 1194 l0
1188 -27 6 c-16 2 -49 8 -75 11 l-48 6 0 -1212z"/>
<path d="M4752 33270 c-18 -4 -36 -11 -40 -14 -7 -7 -36 -2345 -29 -2352 7 -7
147 -28 152 -22 3 3 9 544 12 1202 l6 1196 -34 -1 c-19 -1 -49 -5 -67 -9z"/>
<path d="M5220 32081 c0 -1135 1 -1181 18 -1181 24 0 125 29 135 39 4 5 5 520
1 1146 l-7 1137 -33 14 c-17 7 -50 16 -73 20 l-41 7 0 -1182z"/>
<path d="M4588 33229 l-57 -20 -5 -62 c-10 -117 -37 -2170 -28 -2179 8 -8 154
-60 157 -55 2 2 26 2105 25 2250 0 100 2 98 -92 66z"/>
<path d="M5396 32088 c4 -623 8 -1135 10 -1137 4 -5 89 33 169 77 184 99 371
293 472 487 94 183 137 358 137 565 0 322 -114 604 -335 835 -121 126 -238
207 -402 280 l-58 25 7 -1132z"/>
<path d="M4415 33152 c-265 -142 -463 -364 -570 -640 -60 -155 -77 -270 -72
-467 5 -195 27 -300 95 -454 105 -238 313 -463 537 -580 l60 -31 2 93 c5 164
33 1929 33 2025 0 50 -3 92 -7 92 -5 0 -39 -17 -78 -38z"/>
<path d="M4480 30442 c0 -131 -3 -327 -7 -435 l-6 -197 85 0 85 0 7 92 c3 50
6 236 6 412 l0 322 -72 19 c-40 11 -79 21 -85 23 -10 3 -13 -49 -13 -236z"/>
<path d="M5291 30635 c-29 -7 -57 -17 -61 -22 -5 -4 -6 -187 -3 -405 l6 -398
78 0 79 0 0 248 c0 136 -3 325 -7 420 -7 193 1 179 -92 157z"/>
<path d="M4677 30548 c-4 -46 -7 -230 -7 -410 l0 -328 79 0 78 0 7 38 c3 20 6
200 6 398 l0 362 -67 7 c-36 4 -72 9 -78 11 -8 4 -14 -21 -18 -78z"/>
<path d="M5175 30614 c-11 -2 -46 -6 -78 -9 l-57 -6 2 -392 3 -392 78 -3 77
-3 0 406 c0 223 -1 404 -2 404 -2 -1 -12 -3 -23 -5z"/>
<path d="M4860 30205 l0 -395 80 0 80 0 0 395 0 395 -80 0 -80 0 0 -395z"/>
<path d="M4300 29618 c-113 -10 -144 -24 -123 -56 9 -14 25 -17 104 -15 52 1
109 5 127 8 29 5 32 9 32 40 0 27 -4 35 -17 34 -10 -1 -65 -6 -123 -11z"/>
<path d="M5347 29503 c-15 -18 -20 -40 -18 -75 2 -30 38 -58 76 -58 22 0 43 8
55 20 12 12 20 33 20 55 0 47 -29 75 -78 75 -24 0 -45 -7 -55 -17z"/>
<path d="M5160 29490 c-12 -12 -20 -33 -20 -55 0 -22 8 -43 20 -55 12 -12 33
-20 55 -20 22 0 43 8 55 20 12 12 20 33 20 55 0 22 -8 43 -20 55 -12 12 -33
20 -55 20 -22 0 -43 -8 -55 -20z"/>
<path d="M4971 29474 c-43 -54 -10 -124 58 -124 70 0 107 78 61 128 -31 33
-92 30 -119 -4z"/>
<path d="M4792 29470 c-12 -11 -24 -31 -28 -44 -7 -28 18 -81 41 -90 55 -21
118 18 118 74 0 65 -84 104 -131 60z"/>
<path d="M4401 29453 c-12 -10 -24 -35 -27 -55 -5 -30 -2 -41 19 -62 51 -51
137 -19 137 50 0 68 -78 108 -129 67z"/>
<path d="M4595 29445 c-50 -49 -15 -135 55 -135 41 0 80 39 80 80 0 41 -39 80
-80 80 -19 0 -40 -9 -55 -25z"/>
<path d="M26290 29345 l-41 -55 -114 0 -115 0 0 -60 0 -60 137 0 137 0 165
106 c91 59 170 111 176 115 5 5 -59 9 -148 9 l-156 0 -41 -55z"/>
<path d="M25182 29228 l3 -63 138 -3 137 -3 0 66 0 65 -140 0 -141 0 3 -62z"/>
<path d="M25502 29228 l3 -63 63 -3 62 -3 0 66 0 65 -65 0 -66 0 3 -62z"/>
<path d="M25670 29231 c0 -33 4 -62 9 -66 5 -3 35 -2 65 1 l56 7 0 58 0 59
-65 0 -65 0 0 -59z"/>
<path d="M24720 25643 c-110 -77 -210 -355 -270 -750 -82 -536 -79 -1313 6
-1908 57 -397 151 -636 275 -701 36 -18 112 -18 148 0 94 49 177 242 212 491
l12 86 64 59 c236 221 675 402 1263 520 427 86 891 135 1480 156 l185 7 38 63
c77 130 216 264 337 324 62 32 171 67 243 81 46 8 461 8 1597 0 844 -7 1595
-14 1668 -17 l132 -6 0 -180 0 -181 -532 7 c-293 3 -1030 9 -1638 12 l-1105 6
-80 -26 c-44 -15 -98 -37 -120 -51 -36 -23 -38 -25 -15 -25 14 0 786 16 1715
35 930 19 1709 35 1733 35 l42 0 0 -695 0 -695 -1542 0 c-1471 0 -1545 -1
-1583 -19 -39 -17 -105 -81 -105 -101 0 -7 572 -8 1615 -3 l1615 6 0 -171 0
-172 -1625 0 -1625 0 0 -25 c0 -14 13 -39 29 -57 l29 -33 1596 3 1596 3 0
-396 0 -397 29 -29 29 -29 207 0 207 0 29 30 30 30 -7 702 c-4 387 -4 765 1
841 l7 137 134 0 134 0 0 -841 0 -841 29 -29 29 -29 206 0 c202 0 205 0 233
24 l28 24 -4 709 c-2 390 0 770 4 846 l7 137 134 0 134 0 0 -844 0 -844 31
-26 31 -26 203 0 c201 0 204 0 232 24 l28 24 1 1559 c1 857 2 1582 3 1611 1
46 4 52 22 52 11 0 34 13 50 29 27 27 29 35 29 106 0 67 -3 79 -25 100 -22 23
-31 25 -125 25 l-100 0 0 125 0 125 94 0 c87 0 97 2 125 26 44 37 44 91 0 128
l-31 26 -289 0 c-320 0 -338 -3 -357 -60 -15 -41 2 -86 39 -105 18 -10 58 -15
119 -15 l90 0 0 -125 0 -125 -100 0 c-93 0 -103 -2 -125 -24 -46 -46 -45 -168
2 -212 14 -13 32 -24 39 -24 12 0 14 -107 14 -630 l0 -630 -133 0 -134 0 -6
559 c-3 308 -3 591 0 630 5 61 9 71 25 71 11 0 33 13 49 29 27 27 29 35 29
106 0 67 -3 79 -25 100 -22 23 -31 25 -125 25 l-100 0 0 125 0 125 91 0 c122
0 158 21 159 92 0 28 -7 42 -31 62 l-31 26 -289 0 c-345 0 -359 -3 -359 -90 0
-71 34 -90 160 -90 l90 0 0 -125 0 -125 -100 0 c-94 0 -103 -2 -125 -25 -22
-21 -25 -33 -25 -100 0 -88 8 -107 50 -125 l30 -12 0 -629 0 -629 -133 0 -134
0 -6 568 c-6 625 -4 692 24 692 9 0 31 12 48 26 30 25 31 29 31 105 0 71 -3
83 -25 104 -22 23 -31 25 -125 25 l-100 0 0 125 0 125 90 0 c129 0 160 19 160
95 0 25 -8 40 -31 59 l-31 26 -289 0 c-345 0 -359 -3 -359 -90 0 -71 34 -90
160 -90 l90 0 0 -125 0 -125 -100 0 c-94 0 -103 -2 -125 -25 -22 -21 -25 -33
-25 -103 0 -83 14 -112 60 -127 16 -5 20 -15 20 -47 l0 -40 -77 6 c-43 4
-1205 76 -2583 161 -1378 85 -2566 162 -2640 171 -542 63 -1052 227 -1372 440
-172 114 -370 323 -384 404 -34 200 -122 369 -211 407 -44 18 -94 16 -123 -4z
m7810 -3123 l0 -1560 -75 0 -75 0 0 1560 0 1560 75 0 75 0 0 -1560z m810 0 l0
-1560 -75 0 -75 0 0 1560 0 1560 75 0 75 0 0 -1560z m790 0 l0 -1560 -75 0
-75 0 0 1560 0 1560 75 0 75 0 0 -1560z"/>
<path d="M9275 25043 c-924 -59 -1180 -80 -1231 -104 -39 -19 -78 -55 -109
-101 -5 -8 -111 -47 -235 -87 -124 -40 -231 -80 -237 -89 -7 -9 -13 -35 -13
-58 l0 -43 -82 -25 c-46 -13 -119 -35 -163 -48 -67 -20 -82 -29 -94 -53 -21
-43 -19 -177 4 -254 19 -67 107 -211 128 -211 7 0 214 56 461 124 l449 124 29
-21 c24 -18 43 -22 96 -22 l67 1 718 363 717 363 0 32 c0 43 -24 74 -74 97
-35 16 -64 18 -211 17 -93 -1 -192 -3 -220 -5z"/>
<path d="M39597 24115 c-96 -33 -171 -80 -244 -152 l-63 -63 -204 25 c-179 22
-244 25 -526 25 l-322 0 6 -27 c14 -56 18 -153 8 -183 l-11 -30 307 0 c270 0
333 3 526 26 l219 26 39 -41 c60 -62 117 -106 185 -140 96 -48 161 -61 303
-61 145 0 155 5 184 92 40 122 41 314 0 439 -28 86 -34 89 -197 88 -122 0
-151 -3 -210 -24z"/>
<path d="M15843 21738 l-33 -11 0 -101 c0 -136 68 -1840 77 -1941 l8 -80 45
-22 c56 -29 120 -30 177 -2 40 20 43 23 43 62 0 78 -90 1972 -96 2028 -5 47
-10 59 -31 68 -30 14 -146 13 -190 -1z"/>
<path d="M11196 21493 l-118 -4 6 -32 c3 -18 62 -446 132 -952 70 -506 130
-938 133 -960 5 -33 12 -43 41 -57 49 -25 116 -23 170 5 l45 22 -3 65 c-2 36
-60 481 -131 990 -102 743 -130 925 -141 925 -8 1 -68 -1 -134 -2z"/>
<path d="M9346 21442 c-5 -9 57 -479 65 -486 2 -2 29 2 59 10 30 8 87 14 127
14 l73 0 -6 38 c-3 20 -18 125 -32 232 l-27 195 -127 3 c-69 1 -129 -1 -132
-6z"/>
<path d="M4199 20799 c-20 -12 -44 -34 -53 -50 -17 -28 -19 -29 -99 -29 -65 0
-92 -5 -132 -24 -84 -39 -159 -128 -187 -221 -7 -23 -296 -2991 -299 -3064 0
-9 -21 -29 -47 -46 -54 -35 -103 -96 -126 -157 -11 -29 -91 -676 -239 -1938
-213 -1819 -223 -1895 -242 -1893 -11 1 -101 10 -200 18 -261 23 -250 20 -263
64 -17 53 -69 110 -126 137 -162 76 -345 -39 -346 -216 0 -182 190 -301 351
-220 37 20 109 92 109 111 0 14 54 10 307 -22 l171 -22 -4 -31 c-3 -17 -29
-245 -59 -506 -30 -261 -57 -489 -60 -506 l-6 -32 -97 4 c-53 2 -147 7 -209
10 l-111 6 -30 48 c-38 62 -99 106 -166 121 -145 32 -290 -89 -289 -241 2
-244 327 -332 448 -123 l30 52 60 1 c72 0 338 -19 344 -25 4 -5 -25 -285 -54
-529 -12 -96 -21 -131 -49 -190 -54 -109 -142 -204 -238 -255 -24 -12 -29 -11
-54 8 -47 37 -125 54 -189 41 -230 -48 -264 -364 -50 -461 48 -22 142 -25 189
-5 90 37 149 125 150 223 l1 61 67 42 c80 49 169 142 221 231 64 108 82 188
121 513 20 163 36 300 36 306 0 11 114 12 197 2 47 -7 54 -11 85 -56 137 -200
446 -108 447 134 1 87 -69 190 -151 224 -46 20 -138 21 -182 2 -49 -21 -110
-79 -131 -127 l-19 -42 -110 6 c-60 4 -111 9 -113 11 -4 4 96 879 100 882 1 0
49 -3 107 -8 114 -9 150 -19 150 -43 0 -25 36 -88 67 -117 117 -111 311 -78
384 65 99 191 -87 410 -290 342 -50 -16 -116 -69 -138 -109 -10 -18 -15 -18
-99 -6 -49 7 -106 15 -126 17 -21 3 -38 10 -38 17 2 34 98 827 101 830 2 2 31
0 64 -5 33 -4 96 -11 140 -14 131 -9 143 -13 155 -49 12 -38 64 -90 103 -105
44 -17 114 -13 156 9 129 65 133 244 7 321 -70 43 -141 37 -213 -18 l-48 -36
-90 12 c-49 7 -126 17 -170 22 -44 6 -82 13 -84 15 -5 5 66 624 72 630 2 2 43
-1 93 -6 49 -6 120 -14 159 -18 65 -6 71 -9 84 -37 41 -89 134 -138 220 -115
124 33 182 187 107 285 -76 99 -194 109 -283 23 l-31 -30 -79 11 c-43 7 -116
17 -163 23 -47 6 -87 12 -89 14 -2 2 16 172 40 379 37 317 46 374 59 370 8 -2
65 -9 125 -15 159 -15 162 -16 175 -54 20 -62 111 -126 177 -126 63 1 149 62
172 123 15 39 14 101 -3 140 -23 57 -111 117 -171 117 -32 0 -90 -25 -121 -52
l-36 -32 -81 12 c-86 11 -231 34 -233 36 -1 0 17 161 40 356 l41 355 60 -2
c33 -1 92 -5 132 -8 67 -6 72 -8 83 -36 7 -16 30 -44 51 -63 115 -105 302 -19
302 139 0 120 -106 204 -229 181 -23 -5 -54 -23 -83 -50 l-46 -43 -124 19
c-68 10 -125 19 -126 20 -4 7 46 399 56 433 14 52 76 111 131 125 26 8 71 9
121 5 73 -7 81 -10 110 -42 64 -70 147 -86 216 -40 117 78 83 256 -55 287 -48
11 -98 -5 -144 -46 l-38 -34 -76 11 c-43 6 -76 16 -76 23 -1 48 55 593 62 601
8 9 108 9 138 0 8 -3 22 -18 32 -34 48 -86 172 -99 244 -27 101 101 32 268
-111 268 -48 0 -77 -13 -116 -49 -26 -23 -29 -24 -99 -14 -39 5 -74 11 -76 14
-4 4 44 528 52 566 5 23 7 24 79 18 71 -5 76 -7 112 -45 73 -77 168 -78 236
-3 49 54 56 106 25 169 -45 91 -136 118 -223 67 -24 -13 -45 -31 -49 -40 -6
-18 -45 -19 -116 -4 l-50 11 5 46 c3 26 15 141 26 256 11 116 22 212 24 214 2
2 40 1 84 -3 75 -7 82 -9 105 -40 72 -94 220 -77 268 32 48 108 -28 223 -147
223 -43 0 -80 -18 -117 -57 -27 -28 -31 -29 -85 -22 -32 4 -66 8 -75 8 -14 1
-18 10 -18 35 0 67 70 772 81 809 22 82 124 157 211 157 34 0 48 -7 83 -39 26
-24 58 -42 80 -47 79 -14 164 39 185 116 36 133 -113 247 -231 179z"/>
<path d="M9750 19859 c-36 -10 -94 -18 -129 -18 l-63 -1 5 -32 c4 -18 16 -103
28 -188 13 -92 27 -162 36 -171 19 -23 94 -40 135 -32 18 3 50 14 71 25 30 15
37 24 37 47 0 30 -48 383 -52 385 -2 1 -32 -6 -68 -15z"/>
<path d="M17211 19440 c-18 -4 -45 -17 -60 -28 l-26 -19 -3 -588 -2 -588 -180
7 -180 6 0 -46 0 -47 -92 7 c-50 3 -124 6 -165 6 -57 0 -73 3 -73 15 0 25 -61
85 -111 111 -64 32 -136 50 -236 59 -82 7 -82 7 -89 38 -10 50 -40 102 -74
130 -28 24 -86 47 -117 47 -10 0 -13 -111 -13 -520 l0 -520 36 0 c80 0 155 74
170 168 l7 42 56 0 c71 0 174 22 240 50 45 20 107 76 136 123 8 13 38 17 168
23 l157 7 0 -47 0 -46 153 0 c85 0 214 -3 288 -6 l135 -7 37 -68 37 -69 499 0
498 0 6 182 c4 99 7 246 7 325 l0 143 -510 -2 -510 -3 0 537 0 536 -42 20
c-53 26 -103 33 -147 22z"/>
<path d="M18710 19378 c-19 -5 -47 -19 -62 -30 l-28 -19 0 -545 0 -544 140 0
140 0 0 550 0 550 -37 19 c-49 24 -109 32 -153 19z"/>
<path d="M2137 16763 c-4 -21 -23 -64 -43 -96 -30 -49 -40 -58 -58 -52 -159
46 -356 8 -651 -125 -154 -69 -389 -218 -545 -344 -235 -189 -410 -428 -410
-559 l0 -34 -74 -13 c-41 -7 -90 -11 -110 -8 -43 5 -45 -4 -10 -39 25 -25 29
-25 117 -21 382 21 1343 592 1718 1021 124 142 161 235 115 286 -28 31 -43 26
-49 -16z"/>
<path d="M24573 16785 c-247 -32 -432 -80 -880 -231 -367 -122 -550 -174 -688
-194 -162 -23 -365 -6 -491 41 l-54 20 -144 -69 -143 -69 14 -74 c19 -97 12
-259 -17 -357 -38 -134 -112 -251 -220 -348 -134 -121 -343 -216 -580 -264
-236 -48 -606 -69 -885 -50 -475 32 -739 139 -837 338 -30 61 -33 74 -33 162
0 52 2 110 5 129 l5 34 -115 64 c-79 45 -116 60 -119 51 -2 -7 -23 -32 -47
-55 -55 -53 -119 -73 -233 -73 -108 0 -182 16 -376 80 -356 117 -670 165
-1070 164 -343 -1 -559 -33 -835 -124 -522 -172 -899 -502 -1145 -1005 -139
-285 -227 -605 -280 -1017 -5 -39 -10 -48 -26 -48 -43 0 -4349 -189 -4431
-195 l-88 -6 0 44 c0 94 -60 109 -309 78 -91 -12 -173 -21 -183 -21 -17 0 -18
13 -18 169 l0 169 28 7 c89 19 132 85 132 205 0 186 -72 353 -175 407 -39 21
-131 21 -171 0 -98 -51 -174 -230 -174 -409 1 -120 45 -187 138 -204 l32 -6 0
-182 0 -182 -257 -28 c-142 -15 -279 -30 -305 -33 l-48 -6 0 215 0 216 35 6
c41 8 89 46 112 90 22 41 21 185 -1 280 -21 87 -69 179 -114 216 -40 33 -112
54 -156 45 -119 -25 -199 -148 -226 -348 -12 -87 -7 -155 16 -198 21 -41 71
-78 115 -85 l39 -7 0 -223 0 -223 -33 -5 c-34 -6 -391 -46 -407 -46 -6 0 -10
11 -10 25 0 52 -81 95 -179 95 -40 0 -41 1 -41 33 0 52 -39 119 -85 144 -36
21 -53 23 -192 23 l-152 0 -3 -107 -3 -106 -87 -25 -88 -25 0 -78 c0 -91 18
-79 -160 -105 -157 -22 -160 -25 -160 -125 l0 -80 32 -13 c18 -8 90 -22 161
-31 l127 -18 0 -81 0 -81 90 -24 90 -23 0 -109 0 -109 143 1 c141 1 180 7 225
40 30 22 62 86 62 125 0 31 1 31 61 38 102 12 159 45 159 94 0 25 1 25 68 19
37 -4 77 -7 90 -7 l22 0 0 -215 c0 -197 -2 -216 -17 -221 -53 -15 -109 -52
-128 -84 -16 -29 -20 -52 -20 -130 1 -183 64 -339 160 -396 48 -28 126 -32
178 -11 42 18 103 87 129 145 45 106 64 305 34 375 -17 43 -68 85 -111 93
l-35 6 0 204 0 204 24 0 c14 0 144 -13 291 -30 147 -16 273 -30 281 -30 12 0
14 -27 12 -171 l-3 -172 -46 -13 c-56 -17 -105 -68 -115 -120 -11 -59 2 -214
25 -284 25 -81 68 -149 116 -186 30 -22 50 -29 100 -32 140 -9 223 88 262 308
19 107 13 197 -17 245 -21 34 -83 75 -115 75 -13 0 -15 23 -15 163 l0 164 288
-33 c158 -19 320 -34 360 -34 64 0 76 3 97 25 18 18 25 35 25 65 0 31 4 40 18
40 47 1 4406 -191 4459 -196 l62 -5 6 -47 c56 -415 142 -729 275 -1002 121
-246 238 -409 424 -587 292 -281 664 -454 1136 -528 160 -26 584 -31 777 -11
270 29 514 79 723 151 187 64 256 78 370 79 100 1 109 -1 173 -32 45 -23 75
-45 90 -68 12 -18 25 -34 29 -34 4 0 56 27 116 60 l109 61 -9 52 c-17 88 -5
204 25 268 83 174 300 280 677 331 127 17 667 17 815 0 248 -29 433 -79 600
-162 234 -117 366 -264 434 -485 27 -88 37 -237 22 -330 -6 -38 -12 -78 -14
-87 -1 -13 32 -34 132 -83 74 -36 141 -65 148 -65 7 0 52 11 99 25 186 54 358
54 602 -1 65 -14 284 -81 487 -149 659 -221 846 -260 1240 -259 227 0 366 14
534 55 l76 18 30 -27 c78 -71 64 -69 167 -32 351 123 667 338 906 615 411 478
656 1164 722 2024 11 149 13 608 3 714 l-6 68 -49 -6 -48 -7 0 324 c0 361 -13
533 -61 818 -90 532 -263 1010 -493 1358 -350 531 -809 808 -1489 897 -144 18
-458 18 -604 0z m-2560 -2825 c23 0 445 -16 937 -36 492 -20 959 -39 1038 -41
l142 -5 0 -25 0 -25 -257 6 c-142 4 -607 20 -1033 37 -426 16 -796 29 -822 29
l-48 0 0 -165 0 -165 803 0 c441 0 927 -3 1080 -7 l277 -6 0 -24 0 -23 -1080
0 -1080 0 0 -120 0 -120 1080 0 1080 0 0 -23 0 -24 -287 -6 c-157 -4 -643 -7
-1080 -7 l-793 0 0 -165 c0 -150 2 -165 18 -165 9 0 364 13 787 30 424 16 880
32 1015 35 135 3 266 8 293 11 45 6 47 5 47 -20 0 -14 -1 -26 -2 -27 -13 -3
-2058 -88 -2150 -89 -4 0 -9 -55 -10 -121 l-3 -121 -82 95 c-65 75 -83 103
-83 127 l0 30 -97 0 c-54 0 -467 12 -918 25 -451 13 -2876 83 -5390 155 -2513
72 -4694 135 -4845 140 -151 5 -339 9 -417 10 l-143 0 0 25 c0 25 0 25 98 25
114 0 -287 11 5277 -145 2426 -69 4509 -127 4630 -130 121 -3 533 -15 915 -25
382 -11 739 -20 793 -20 l97 0 0 163 0 164 -1037 6 c-2820 17 -10287 67
-10940 73 l-743 7 0 24 0 24 998 -6 c5563 -35 9032 -56 10147 -60 737 -3 1393
-7 1458 -10 l117 -6 0 121 0 120 -842 -6 c-464 -3 -2868 -16 -5343 -29 -2475
-13 -4854 -26 -5287 -29 l-788 -5 0 23 0 23 533 7 c292 4 2465 18 4827 31
5630 32 6023 34 6498 41 l402 6 0 165 0 164 -102 -5 c-57 -4 -454 -15 -883
-27 -429 -11 -2863 -78 -5410 -149 -2546 -71 -4814 -134 -5040 -140 -225 -6
-438 -13 -472 -16 l-63 -6 0 29 0 30 167 7 c93 3 355 11 583 17 836 21 9314
259 9585 268 154 6 557 17 895 26 338 9 643 18 678 21 l62 6 0 66 0 67 83 83
82 82 3 -150 3 -150 42 0z"/>
<path d="M34040 16463 c-577 -25 -1042 -72 -1519 -153 -1287 -220 -2153 -635
-2311 -1108 -20 -62 -21 -78 -18 -490 l3 -427 28 -65 c32 -77 137 -212 228
-294 282 -254 848 -501 1504 -656 72 -17 138 -33 148 -36 15 -5 17 -21 17
-155 0 -123 -3 -149 -14 -149 -8 0 -47 7 -87 15 -40 9 -76 12 -80 8 -3 -5 -8
-537 -10 -1183 l-4 -1174 98 -19 c90 -18 97 -21 97 -43 0 -13 -4 -24 -8 -24
-21 0 -326 87 -462 132 -695 229 -1049 480 -1246 883 -29 61 -65 153 -79 205
-28 106 -48 283 -39 341 4 24 3 39 -4 39 -17 0 -63 -61 -91 -120 l-26 -55 0
-435 c0 -431 0 -436 23 -500 51 -140 162 -288 310 -413 317 -267 885 -531
1500 -697 l122 -34 0 -46 0 -46 93 -18 c50 -10 104 -20 120 -23 26 -5 27 -4
27 37 0 33 3 41 15 37 25 -10 367 -76 527 -102 1144 -184 2484 -162 3574 59
l114 23 0 -30 c0 -27 2 -29 28 -24 15 3 69 13 120 23 l92 18 0 33 c0 19 6 35
13 38 6 2 82 22 167 45 1028 274 1752 724 1865 1157 12 46 15 135 15 460 0
452 -1 458 -75 549 -56 67 -65 61 -65 -47 0 -166 -57 -374 -148 -538 -92 -165
-274 -358 -448 -474 -264 -175 -702 -349 -1191 -471 -132 -34 -133 -34 -133 8
0 38 -13 32 150 65 l35 7 0 1176 c0 648 -3 1179 -5 1182 -3 2 -44 -4 -93 -13
l-87 -18 0 141 0 142 133 29 c537 115 1067 304 1385 494 218 131 418 315 484
448 57 114 59 138 56 585 -3 394 -4 404 -26 460 -71 177 -252 360 -501 508
-679 403 -1845 665 -3251 730 -190 9 -895 11 -1070 3z m1240 -473 c422 -29
783 -69 1100 -121 1257 -207 2050 -613 2050 -1050 0 -406 -660 -780 -1770
-1002 -1423 -286 -3324 -250 -4625 88 -721 187 -1202 448 -1340 728 -33 67
-39 90 -43 160 -7 140 43 249 175 381 372 372 1366 673 2588 785 189 18 371
30 680 45 142 7 1035 -3 1185 -14z m-2735 -2840 c1181 -202 2647 -209 3859
-20 104 17 191 30 193 30 2 0 2 -64 1 -142 l-3 -143 -87 -16 c-49 -8 -91 -18
-94 -22 -3 -3 -3 -535 1 -1181 6 -850 11 -1176 19 -1176 6 1 40 7 76 15 36 8
71 14 78 15 14 0 17 -66 3 -75 -35 -21 -667 -111 -981 -139 -357 -32 -465 -37
-915 -43 -827 -10 -1516 44 -2197 173 l-138 26 0 29 c0 16 2 29 4 29 2 0 38
-7 81 -16 42 -9 78 -14 80 -12 2 2 7 533 11 1180 l7 1177 -24 6 c-13 3 -53 11
-89 18 l-65 13 -3 152 c-1 84 0 152 2 152 3 0 85 -14 181 -30z m-300 -563
l110 -23 3 -871 2 -871 -62 13 c-35 7 -89 18 -120 25 l-58 11 0 870 c0 478 3
869 8 869 4 -1 57 -11 117 -23z m4585 -846 c0 -820 -1 -870 -17 -875 -10 -2
-56 -12 -103 -21 -47 -9 -93 -19 -102 -21 -17 -5 -18 41 -18 868 l0 874 103
21 c56 11 110 21 120 22 16 1 17 -47 17 -868z"/>
<path d="M4524 11737 c-2 -7 -57 -172 -122 -367 l-119 -355 -100 -6 c-205 -13
-248 -33 -869 -419 l-82 -50 -53 25 c-101 47 -205 28 -281 -51 -48 -50 -68
-100 -68 -166 0 -109 72 -203 179 -234 112 -33 225 19 284 131 17 31 21 57 21
111 l-1 72 81 47 c45 27 173 103 286 170 237 142 305 178 381 198 67 19 146
30 158 22 5 -3 -15 -78 -45 -167 -30 -89 -54 -165 -54 -168 0 -7 240 -80 263
-80 17 0 1 -46 247 686 l178 531 -76 23 c-200 59 -203 59 -208 47z"/>
<path d="M6685 11047 c-4 -52 -4 -100 -1 -106 4 -6 26 -11 50 -11 l43 0 63
-165 64 -165 4228 0 4228 0 100 150 100 150 60 0 60 0 0 93 c0 50 -4 98 -8
105 -7 10 -51 10 -218 2 -280 -13 -952 -37 -1414 -50 -1487 -41 -3564 -41
-5085 0 -734 20 -1755 61 -2161 86 l-102 7 -7 -96z m785 -152 c1958 -88 4400
-109 6460 -55 456 12 1188 37 1369 46 l123 7 -61 -92 -62 -91 -4158 0 -4159 0
-17 43 c-10 23 -28 71 -42 106 l-24 64 123 -7 c68 -3 269 -13 448 -21z"/>
<path d="M1048 7524 l-258 -236 0 -3350 0 -3350 227 -234 227 -234 9887 0
9887 0 226 232 226 233 -1 3355 -1 3355 -255 233 -255 232 -9826 0 -9827 0
-257 -236z m4253 -218 c110 -25 197 -98 248 -205 l26 -56 0 -1245 0 -1245 -27
-57 c-37 -79 -98 -142 -177 -181 l-66 -32 -685 -3 c-717 -4 -880 2 -1130 39
-181 27 -1660 399 -1748 439 -121 56 -234 200 -262 333 -7 36 -10 346 -8 1002
l3 950 26 56 c48 102 136 178 238 205 70 19 3483 19 3562 0z m15271 -23 c114
-54 184 -145 207 -268 7 -39 11 -350 11 -954 0 -987 0 -976 -62 -1094 -44 -83
-130 -167 -209 -205 -46 -23 -276 -84 -824 -221 -418 -105 -809 -199 -870
-210 -243 -43 -315 -46 -1115 -46 l-765 0 -57 28 c-72 35 -138 99 -175 168
l-28 54 -3 1247 c-2 1242 -2 1247 19 1302 39 105 154 204 263 226 22 4 829 7
1791 6 l1750 -1 67 -32z m-8062 -1338 l0 -775 -1345 0 -1345 0 0 775 0 775
1345 0 1345 0 0 -775z m-5000 -660 l0 -165 -100 0 -100 0 0 165 0 165 100 0
100 0 0 -165z m1140 -110 l0 -165 -100 0 -100 0 0 165 0 165 100 0 100 0 0
-165z m-1830 -155 l0 -170 -100 0 -100 0 0 170 0 170 100 0 100 0 0 -170z
m8850 85 l0 -85 -175 0 -175 0 0 85 0 85 175 0 175 0 0 -85z m-6680 -210 l0
-165 -95 0 -95 0 0 165 0 165 95 0 95 0 0 -165z m5711 139 c87 -26 149 -62
210 -123 204 -205 181 -548 -48 -723 -80 -60 -158 -89 -259 -95 -419 -28 -669
453 -407 782 113 143 329 211 504 159z m-7541 -179 l0 -165 -95 0 -95 0 0 165
0 165 95 0 95 0 0 -165z m1130 -40 l0 -165 -100 0 -100 0 0 165 0 165 100 0
100 0 0 -165z m-350 -170 l0 -165 -100 0 -100 0 0 165 0 165 100 0 100 0 0
-165z m1840 20 l0 -55 -125 0 -125 0 0 55 0 55 125 0 125 0 0 -55z m348 3 l-3
-53 -125 0 -125 0 -3 53 -3 52 131 0 131 0 -3 -52z m347 -3 l0 -50 -127 -3
-128 -3 0 56 0 56 128 -3 127 -3 0 -50z m430 0 l0 -50 -127 -3 -128 -3 0 56 0
56 128 -3 127 -3 0 -50z m353 3 l-3 -53 -127 -3 -128 -3 0 56 0 55 131 0 130
0 -3 -52z m350 0 l-3 -53 -125 0 -125 0 -3 53 -3 52 131 0 131 0 -3 -52z m352
-3 l0 -56 -127 3 -128 3 -3 39 c-6 66 -6 66 133 66 l125 0 0 -55z m748 3 l-3
-53 -125 0 -125 0 -3 53 -3 52 131 0 131 0 -3 -52z m430 0 l-3 -53 -125 0
-125 0 -3 53 -3 52 131 0 131 0 -3 -52z m340 0 l-3 -53 -127 -3 -128 -3 0 56
0 55 131 0 130 0 -3 -52z m337 -3 l0 -50 -127 -3 -128 -3 0 56 0 56 128 -3
127 -3 0 -50z m-4035 -230 l0 -95 -125 0 -125 0 0 95 0 95 125 0 125 0 0 -95z
m350 0 l0 -95 -130 0 -130 0 0 95 0 95 130 0 130 0 0 -95z m350 0 l0 -95 -130
0 -130 0 0 95 0 95 130 0 130 0 0 -95z m430 0 l0 -95 -130 0 -130 0 0 95 0 95
130 0 130 0 0 -95z m350 0 l0 -95 -130 0 -130 0 0 95 0 95 130 0 130 0 0 -95z
m350 0 l0 -95 -130 0 -130 0 0 95 0 95 130 0 130 0 0 -95z m350 0 l0 -95 -130
0 -130 0 0 95 0 95 130 0 130 0 0 -95z m750 0 l0 -95 -130 0 -130 0 0 95 0 95
130 0 130 0 0 -95z m430 0 l0 -95 -130 0 -130 0 0 95 0 95 130 0 130 0 0 -95z
m340 0 l0 -95 -130 0 -130 0 0 95 0 95 130 0 130 0 0 -95z m340 0 l0 -95 -130
0 -130 0 0 95 0 95 130 0 130 0 0 -95z m-6965 -460 l0 -50 -127 -3 -128 -3 0
56 0 56 128 -3 127 -3 0 -50z m345 0 l0 -55 -130 0 -130 0 0 48 c0 27 3 52 7
55 3 4 62 7 130 7 l123 0 0 -55z m345 0 l0 -50 -127 -3 -128 -3 0 56 0 56 128
-3 127 -3 0 -50z m430 0 l0 -50 -127 -3 -128 -3 0 56 0 56 128 -3 127 -3 0
-50z m353 -2 l3 -53 -130 0 -131 0 0 48 c0 27 3 52 7 56 4 3 61 5 127 4 l121
-3 3 -52z m352 2 l0 -56 -127 3 -128 3 -3 39 c-6 66 -6 66 133 66 l125 0 0
-55z m350 0 l0 -55 -125 0 -125 0 0 55 0 55 125 0 125 0 0 -55z m750 0 l0 -55
-130 0 -130 0 0 48 c0 27 3 52 7 55 3 4 62 7 130 7 l123 0 0 -55z m430 0 l0
-55 -130 0 -130 0 0 48 c0 27 3 52 7 55 3 4 62 7 130 7 l123 0 0 -55z m338 -2
l3 -53 -130 0 -131 0 0 48 c0 27 3 52 7 56 4 3 61 5 127 4 l121 -3 3 -52z
m337 2 l0 -50 -127 -3 -128 -3 0 56 0 56 128 -3 127 -3 0 -50z m-4025 -230 l0
-95 -130 0 -130 0 0 95 0 95 130 0 130 0 0 -95z m340 0 l0 -95 -130 0 -130 0
0 95 0 95 130 0 130 0 0 -95z m350 0 l0 -95 -130 0 -130 0 0 95 0 95 130 0
130 0 0 -95z m430 0 l0 -95 -130 0 -130 0 0 95 0 95 130 0 130 0 0 -95z m350
0 l0 -95 -130 0 -130 0 0 95 0 95 130 0 130 0 0 -95z m350 0 l0 -95 -130 0
-130 0 0 95 0 95 130 0 130 0 0 -95z m350 0 l0 -95 -125 0 -125 0 0 95 0 95
125 0 125 0 0 -95z m750 0 l0 -95 -130 0 -130 0 0 95 0 95 130 0 130 0 0 -95z
m430 0 l0 -95 -130 0 -130 0 0 95 0 95 130 0 130 0 0 -95z m340 0 l0 -95 -130
0 -130 0 0 95 0 95 130 0 130 0 0 -95z m340 0 l0 -95 -130 0 -130 0 0 95 0 95
130 0 130 0 0 -95z m-7240 -1622 c0 -829 1 -908 17 -925 13 -15 31 -18 100
-18 l83 0 0 -434 0 -434 -32 -27 c-31 -26 -31 -26 -180 -23 l-150 3 -24 28
-24 28 0 1355 0 1354 105 0 105 0 0 -907z m600 2 c0 -892 0 -905 20 -925 11
-11 24 -20 30 -20 7 0 10 -153 10 -438 0 -433 0 -439 -21 -458 -19 -17 -38
-19 -181 -19 -156 0 -160 1 -179 24 -18 22 -19 45 -19 461 0 377 2 439 15 450
13 11 15 126 15 921 l0 909 155 0 155 0 0 -905z m530 -453 c0 -1351 0 -1358
-20 -1380 -29 -31 -50 -34 -205 -30 -136 3 -137 3 -161 31 l-24 28 0 430 0
429 67 0 c114 0 103 -104 103 942 l0 908 120 0 120 0 0 -1358z m310 453 c0
-892 0 -905 20 -925 16 -16 33 -20 80 -20 l61 0 -3 -435 -3 -434 -23 -23 c-21
-21 -33 -23 -158 -26 -151 -4 -175 -1 -204 28 -20 20 -20 39 -20 1380 l0 1360
125 0 125 0 0 -905z m520 -4 l0 -910 22 -15 c12 -9 35 -16 50 -16 l28 0 0
-435 c0 -420 -1 -436 -20 -455 -29 -29 -53 -32 -204 -28 -125 3 -137 5 -158
26 l-23 23 -3 434 -3 435 25 0 c15 0 33 11 45 26 21 27 21 31 21 925 l0 899
110 0 110 0 0 -909z m530 1 c0 -901 0 -909 20 -927 20 -18 21 -27 18 -452 l-3
-432 -23 -23 c-21 -21 -33 -23 -158 -26 -151 -4 -175 -1 -204 28 -19 19 -20
35 -20 455 l0 435 47 0 c91 0 83 -89 83 942 l0 908 120 0 120 0 0 -908z m500
-452 c0 -1341 0 -1360 -20 -1380 -29 -29 -53 -32 -204 -28 -125 3 -137 5 -158
26 l-23 23 -3 434 -3 435 78 0 c55 0 85 5 101 16 l22 15 0 910 0 909 105 0
105 0 0 -1360z m250 451 l0 -910 22 -15 c16 -11 46 -16 100 -16 l78 0 0 -434
c0 -412 -1 -435 -19 -457 -19 -23 -23 -24 -179 -24 -143 0 -162 2 -181 19
l-21 19 0 1364 0 1363 100 0 100 0 0 -909z m600 4 c0 -892 0 -905 20 -925 11
-11 27 -20 35 -20 13 0 15 -54 15 -429 l0 -430 -24 -28 -24 -28 -150 -3 c-149
-3 -149 -3 -180 23 l-32 27 0 438 c0 377 2 439 15 450 13 11 15 126 15 921 l0
909 155 0 155 0 0 -905z m530 -454 c0 -1323 -1 -1359 -19 -1382 -19 -23 -23
-24 -179 -24 -143 0 -162 2 -181 19 -21 19 -21 25 -21 458 l0 438 63 0 c34 0
67 4 73 8 33 22 34 46 34 946 l0 896 115 0 115 0 0 -1359z m310 454 c0 -892 0
-905 20 -925 16 -16 33 -20 80 -20 l60 0 0 -429 0 -430 -24 -28 -24 -28 -151
-3 -151 -3 -30 30 -30 29 0 1356 0 1356 125 0 125 0 0 -905z m520 0 c0 -892 0
-905 20 -925 11 -11 33 -20 50 -20 l30 0 0 -434 c0 -412 -1 -435 -19 -457 -19
-23 -23 -24 -181 -24 -158 0 -162 1 -181 24 -18 22 -19 45 -19 457 0 427 0
434 20 434 11 0 29 9 40 20 20 20 20 33 20 925 l0 905 110 0 110 0 0 -905z
m530 -3 c0 -896 0 -909 20 -927 19 -18 20 -31 20 -447 l0 -430 -29 -29 -29
-29 -147 0 -147 0 -29 29 -29 29 0 431 0 431 49 0 c42 0 53 4 70 26 21 27 21
31 21 925 l0 899 115 0 115 0 0 -908z m500 -451 c0 -1323 -1 -1359 -19 -1382
-19 -23 -23 -24 -181 -24 -158 0 -162 1 -181 24 -18 22 -19 45 -19 457 l0 434
77 0 c126 0 113 -109 113 942 l0 908 105 0 105 0 0 -1359z m250 454 c0 -1055
-14 -945 120 -945 l80 0 0 -434 c0 -412 -1 -435 -19 -457 -19 -23 -23 -24
-181 -24 -158 0 -162 1 -181 24 -18 23 -19 59 -19 1382 l0 1359 100 0 100 0 0
-905z m600 6 c0 -894 0 -898 21 -925 11 -14 27 -26 35 -26 12 0 14 -64 14
-431 l0 -431 -30 -29 -30 -30 -151 3 -151 3 -24 28 -24 28 0 427 c0 409 1 428
20 457 19 29 20 49 20 928 l0 897 150 0 150 0 0 -899z m530 -464 l0 -1364 -21
-19 c-19 -17 -38 -19 -181 -19 -156 0 -160 1 -179 24 -18 22 -19 45 -19 457
l0 434 65 0 c116 0 105 -101 105 945 l0 905 115 0 115 0 0 -1363z m310 464 c0
-894 0 -898 21 -925 18 -23 28 -26 80 -26 l59 0 0 -434 0 -434 -32 -27 c-31
-26 -31 -26 -180 -23 l-150 3 -24 28 -24 28 0 1355 0 1354 125 0 125 0 0 -899z
m520 -6 c0 -892 0 -905 20 -925 11 -11 33 -20 50 -20 l30 0 0 -438 c0 -433 0
-439 -21 -458 -18 -16 -40 -19 -156 -22 -150 -4 -174 -1 -203 28 -19 19 -20
35 -20 455 0 428 0 435 20 435 11 0 29 9 40 20 20 20 20 33 20 925 l0 905 110
0 110 0 0 -905z m530 0 c0 -892 0 -905 20 -925 19 -19 20 -33 20 -453 0 -537
21 -491 -224 -485 -125 3 -137 5 -158 26 l-23 23 -3 434 -3 435 51 0 c37 0 55
5 70 20 20 20 20 33 20 925 l0 905 115 0 115 0 0 -905z m508 -455 l-3 -1359
-23 -23 c-21 -21 -33 -23 -158 -26 -151 -4 -175 -1 -204 28 -19 19 -20 35 -20
455 l0 435 79 0 c134 0 121 -103 121 951 l0 899 105 0 105 0 -2 -1360z m242
464 c0 -900 1 -924 34 -946 6 -4 48 -8 94 -8 l83 0 -3 -435 -3 -434 -23 -23
c-21 -21 -33 -23 -158 -26 -151 -4 -175 -1 -204 28 -20 20 -20 39 -20 1380 l0
1360 100 0 100 0 0 -896z m610 -11 c0 -829 1 -908 17 -925 9 -10 22 -18 30
-18 11 0 13 -77 13 -435 0 -420 -1 -436 -20 -455 -29 -29 -53 -32 -204 -28
-125 3 -137 5 -158 26 l-23 23 -3 430 c-3 420 -2 430 18 456 20 25 20 35 20
929 l0 904 155 0 155 0 0 -907z m530 -447 l0 -1355 -24 -28 c-24 -28 -25 -28
-161 -31 -155 -4 -176 -1 -205 30 -19 21 -20 34 -20 455 l0 433 63 0 c40 0 70
5 85 16 l22 15 0 910 0 909 120 0 120 0 0 -1354z m310 447 c0 -1036 -9 -943
92 -943 l58 0 0 -434 c0 -412 -1 -435 -19 -457 -19 -23 -23 -24 -179 -24 -143
0 -162 2 -181 19 l-21 19 0 1364 0 1363 125 0 125 0 0 -907z m510 8 c0 -894 0
-898 21 -925 15 -19 30 -26 55 -26 l34 0 0 -429 0 -430 -24 -28 -24 -28 -151
-3 -151 -3 -30 30 -30 29 0 431 c0 406 1 431 18 431 10 0 28 7 40 16 l22 15 0
910 0 909 110 0 110 0 0 -899z m530 4 c0 -884 2 -945 32 -945 4 0 8 -198 8
-439 0 -417 -1 -440 -19 -462 -19 -23 -23 -24 -179 -24 -143 0 -162 2 -181 19
-21 19 -21 25 -21 458 l0 438 45 0 c32 0 51 6 65 20 20 20 20 33 20 925 l0
905 115 0 115 0 0 -895z m510 -459 l0 -1355 -24 -28 -24 -28 -151 -3 -151 -3
-30 30 -30 29 0 431 0 431 80 0 c134 0 120 -110 120 945 l0 905 105 0 105 0 0
-1354z m250 447 c0 -829 1 -908 17 -925 13 -15 31 -18 100 -18 l83 0 0 -431 0
-431 -29 -29 -29 -29 -147 0 -147 0 -29 29 -29 29 0 1356 0 1356 105 0 105 0
0 -907z m600 -3 l0 -911 30 -17 30 -17 0 -431 c0 -410 -1 -433 -19 -455 -19
-23 -23 -24 -181 -24 -158 0 -162 1 -181 24 -18 22 -19 45 -19 461 0 377 2
439 15 450 13 11 15 126 15 921 l0 909 155 0 155 0 0 -910z m530 -446 l0
-1356 -29 -29 -29 -29 -147 0 -147 0 -29 29 -29 29 0 431 0 431 67 0 c114 0
103 -104 103 942 l0 908 120 0 120 0 0 -1356z m310 447 l0 -910 22 -15 c14
-10 44 -16 75 -16 l53 0 0 -438 c0 -433 0 -439 -21 -458 -19 -17 -38 -19 -181
-19 -156 0 -160 1 -179 24 -18 23 -19 59 -19 1382 l0 1359 125 0 125 0 0 -909z
m520 2 c0 -1009 -5 -943 67 -943 l33 0 0 -431 0 -431 -30 -29 -30 -30 -151 3
-151 3 -24 28 -24 28 0 430 0 429 22 0 c12 0 30 7 40 17 17 15 18 57 18 925
l0 908 115 0 115 0 0 -907z m530 -2 c0 -795 2 -910 15 -921 13 -11 15 -74 15
-455 0 -437 0 -442 -21 -461 -19 -17 -38 -19 -181 -19 -156 0 -160 1 -179 24
-18 22 -19 45 -19 457 l0 434 43 0 c23 0 53 7 65 16 l22 15 0 910 0 909 120 0
120 0 0 -909z m500 -450 l0 -1359 -32 -27 c-31 -26 -31 -26 -180 -23 l-150 3
-24 28 -24 28 0 430 0 429 80 0 c134 0 120 -110 120 945 l0 905 105 0 105 0 0
-1359z m450 -1 c0 -1341 0 -1360 -20 -1380 -29 -29 -53 -32 -204 -28 -125 3
-137 5 -158 26 l-23 23 -3 1359 -2 1360 205 0 205 0 0 -1360z"/>
<path d="M24640 7090 c-18 -18 -20 -33 -20 -180 l0 -159 -27 4 c-72 13 -160
25 -180 25 l-23 0 0 -2965 c0 -2817 1 -2965 18 -2965 16 0 99 12 180 25 l32 6
0 -171 c0 -157 2 -172 20 -190 20 -20 33 -20 659 -20 581 0 640 1 652 17 11
12 15 77 19 282 l5 266 225 32 c124 18 231 32 238 32 9 1 12 545 12 2685 l0
2684 -27 6 c-16 3 -113 17 -218 31 -104 14 -200 27 -212 30 -22 5 -22 7 -25
259 -2 196 -6 257 -17 269 -12 16 -71 17 -652 17 -626 0 -639 0 -659 -20z"/>
<path d="M27790 3815 c0 -2370 1 -2495 18 -2494 9 0 118 15 242 32 l225 32 3
2430 2 2431 -232 32 c-128 18 -239 32 -245 32 -10 0 -13 -506 -13 -2495z"/>
<path d="M31957 6182 c-15 -16 -17 -47 -17 -230 0 -195 -1 -212 -18 -212 -9 0
-114 14 -232 30 -118 17 -221 30 -227 30 -10 0 -13 -403 -13 -1985 0 -1582 3
-1985 13 -1985 6 1 116 16 242 33 l230 33 2 -226 c3 -215 4 -226 24 -242 20
-17 66 -18 654 -18 l634 0 20 26 c20 26 21 38 21 338 l0 312 207 28 c114 15
222 30 240 33 l33 6 0 -192 c0 -114 4 -200 10 -212 10 -18 28 -19 659 -19 591
0 650 1 662 17 11 12 15 78 17 305 2 158 6 288 10 288 4 1 111 16 237 34 l230
32 3 1410 2 1410 -167 23 c-93 12 -201 27 -240 33 l-73 10 0 275 0 274 -25 24
-24 25 -623 0 c-482 0 -629 -3 -648 -13 l-25 -13 -3 -192 c-1 -106 -6 -192
-10 -192 -4 1 -110 16 -237 34 l-230 32 -5 310 c-3 170 -7 310 -8 311 -1 1 -9
9 -18 17 -14 14 -87 16 -653 16 -605 0 -639 -1 -654 -18z"/>
<path d="M29620 3821 l0 -2241 28 0 c15 0 127 14 250 32 l222 31 0 2174 c0
1195 -2 2173 -4 2173 -10 0 -445 61 -468 66 l-28 6 0 -2241z"/>
<path d="M37448 5293 c-16 -17 -18 -41 -18 -171 0 -84 -3 -152 -7 -152 -5 1
-113 16 -241 34 -128 18 -234 30 -237 28 -3 -3 -5 -551 -5 -1219 l0 -1213 23
0 c12 0 118 14 236 30 117 17 217 30 222 30 5 0 9 -74 9 -165 0 -164 0 -165
25 -181 23 -15 81 -16 652 -9 545 6 630 9 646 23 16 14 17 97 17 1478 0 1316
-2 1464 -16 1478 -13 13 -44 16 -188 16 -95 0 -382 3 -637 6 -453 7 -464 6
-481 -13z"/>
</g>
</svg>
