<?xml version="1.0" standalone="no"?>
<!DOCTYPE svg PUBLIC "-//W3C//DTD SVG 20010904//EN"
 "http://www.w3.org/TR/2001/REC-SVG-20010904/DTD/svg10.dtd">
<svg version="1.0" xmlns="http://www.w3.org/2000/svg"
 width="207.000000pt" height="268.000000pt" viewBox="0 0 207.000000 268.000000"
 preserveAspectRatio="xMidYMid meet">
<metadata>
Created by potrace 1.16, written by Peter Selinger 2001-2019
</metadata>
<g transform="translate(0.000000,268.000000) scale(0.100000,-0.100000)"
fill="#ffffff" stroke="none">
<path d="M1210 2624 c-78 -28 -219 -118 -220 -142 0 -7 -7 -15 -15 -18 -8 -3
-24 -26 -35 -50 -90 -184 -53 -415 82 -520 28 -21 58 -47 67 -57 9 -10 45 -27
80 -37 127 -40 334 -15 386 45 6 6 32 29 58 50 60 48 90 100 112 193 29 120 9
267 -50 358 -28 45 -113 114 -182 149 -52 27 -68 30 -163 32 -58 1 -112 0
-120 -3z m254 -85 c75 -35 158 -122 184 -192 30 -79 30 -204 1 -281 -28 -77
-96 -148 -177 -188 -60 -30 -75 -33 -157 -33 -82 0 -97 3 -157 33 -81 40 -149
111 -177 188 -29 77 -29 202 1 281 34 93 142 188 243 214 57 15 186 3 239 -22z"/>
<path d="M1245 2551 c-103 -28 -200 -103 -241 -188 -40 -81 -45 -203 -13 -288
28 -75 106 -155 186 -193 48 -22 72 -27 138 -27 101 0 172 31 249 107 74 75
99 143 94 259 -7 141 -65 231 -196 301 -56 30 -161 44 -217 29z"/>
<path d="M846 1854 c-3 -9 -6 -27 -6 -40 0 -13 -5 -24 -11 -24 -7 0 -9 -10 -7
-25 3 -14 1 -25 -5 -25 -5 0 -7 -11 -5 -25 3 -13 2 -26 -2 -27 -13 -5 -170
-839 -170 -902 0 -14 -4 -26 -10 -26 -5 0 -10 -25 -10 -55 0 -30 5 -55 10 -55
6 0 10 -12 10 -27 0 -16 12 -71 26 -123 14 -52 28 -127 31 -166 10 -125 -23
-174 -120 -174 -36 0 -55 8 -101 42 -31 23 -56 46 -56 52 0 6 -8 16 -18 23
-33 20 -64 102 -65 168 0 60 36 193 56 206 5 4 6 12 3 18 -4 6 -2 11 4 11 7 0
10 7 6 15 -3 8 -2 15 3 15 4 0 19 30 34 68 54 142 86 230 112 307 15 44 32 83
38 86 5 4 6 12 3 18 -4 6 -3 11 2 11 15 0 52 173 52 245 0 77 -24 133 -61 142
-10 3 -19 9 -19 13 0 13 -55 28 -130 36 -84 8 -91 -5 -27 -51 102 -74 136
-179 98 -307 -29 -95 -72 -198 -83 -198 -5 0 -7 -4 -4 -9 4 -5 3 -11 -2 -13
-18 -8 -182 -450 -182 -492 0 -9 -4 -16 -10 -16 -6 0 -10 -42 -10 -105 0 -58
3 -105 8 -105 4 0 18 -29 30 -64 25 -68 83 -145 130 -169 41 -22 115 -59 134
-69 22 -10 112 -11 122 -1 4 5 23 13 42 18 38 11 209 156 229 195 8 14 31 44
53 67 22 23 37 45 34 48 -3 3 0 5 6 5 7 0 12 6 12 14 0 8 4 16 8 18 7 3 62
118 132 276 13 28 28 52 33 52 5 0 7 7 3 15 -3 8 -1 15 5 15 6 0 7 5 4 10 -3
6 -2 10 3 10 5 0 15 15 22 33 7 17 27 68 45 112 19 44 51 121 71 170 21 50 41
92 46 93 4 2 6 8 2 13 -3 5 0 9 5 9 6 0 11 6 11 13 0 6 20 59 44 117 102 243
116 279 116 299 0 22 4 21 -300 106 -91 25 -172 49 -181 54 -16 9 -217 71
-230 71 -4 0 -10 -7 -13 -16z"/>
</g>
</svg>
