<?xml version="1.0" standalone="no"?>
<!DOCTYPE svg PUBLIC "-//W3C//DTD SVG 20010904//EN"
 "http://www.w3.org/TR/2001/REC-SVG-20010904/DTD/svg10.dtd">
<svg version="1.0" xmlns="http://www.w3.org/2000/svg"
 width="2836.000000pt" height="2605.000000pt" viewBox="0 0 2836.000000 2605.000000"
 preserveAspectRatio="xMidYMid meet">
<metadata>
Created by potrace 1.16, written by Peter Selinger 2001-2019
</metadata>
<g transform="translate(0.000000,2605.000000) scale(0.100000,-0.100000)"
fill="#ffffff" stroke="none">
<path d="M12385 26024 c-11 -3 -56 -14 -100 -25 -332 -84 -571 -331 -639 -661
-10 -48 -16 -128 -16 -209 0 -195 25 -273 142 -454 110 -170 197 -226 360
-233 73 -3 109 0 150 13 363 118 396 621 51 786 -77 37 -199 50 -279 30 l-47
-12 -43 42 c-59 58 -71 97 -49 155 49 129 162 237 287 275 159 49 415 -3 601
-121 77 -48 181 -156 219 -226 31 -58 128 -405 160 -574 31 -163 31 -421 0
-567 -33 -151 -75 -271 -152 -428 -151 -309 -336 -564 -598 -822 -68 -68 -121
-123 -118 -123 19 0 362 184 436 234 109 72 273 255 397 441 145 218 298 515
357 696 115 351 120 757 14 1059 -102 289 -294 510 -552 635 -140 68 -223 87
-406 91 -85 1 -164 1 -175 -2z"/>
<path d="M17095 25953 c-19 -38 -214 -406 -432 -819 l-397 -752 -40 34 c-89
77 -203 109 -353 102 -79 -4 -110 -10 -160 -32 -34 -16 -69 -36 -78 -46 -15
-17 -20 -17 -73 -3 -42 11 -95 14 -198 11 -140 -3 -141 -3 -219 -42 -98 -48
-205 -152 -323 -311 -133 -180 -218 -374 -290 -665 -32 -128 -82 -411 -82
-463 0 -25 -24 2 -157 177 -87 114 -159 203 -161 198 -2 -6 42 -120 97 -255
130 -317 230 -647 295 -972 52 -256 51 -368 -5 -705 -29 -178 -126 -663 -152
-764 l-13 -49 -47 54 c-80 90 -285 275 -335 302 -26 14 -83 35 -127 46 -78 20
-289 51 -344 51 -23 0 -34 10 -64 58 -70 113 -230 244 -384 313 -37 16 -141
53 -232 80 -199 60 -348 129 -413 190 l-48 44 -6 192 c-4 121 -11 196 -18 202
-6 4 -297 77 -646 161 -349 84 -637 155 -639 157 -3 2 7 16 21 31 90 97 121
257 78 393 -33 105 -114 190 -196 205 -54 10 -145 0 -189 -21 -192 -93 -256
-408 -117 -583 33 -42 107 -86 162 -97 45 -8 845 -196 846 -198 5 -6 45 -768
42 -793 l-3 -30 -280 67 c-154 38 -291 71 -304 74 l-24 6 31 32 c74 79 113
217 92 333 -34 200 -184 309 -355 259 -48 -13 -70 -28 -120 -78 -86 -87 -109
-147 -110 -287 0 -99 2 -109 33 -172 36 -74 84 -120 147 -142 83 -29 1542
-366 1558 -360 26 9 30 44 23 172 -5 93 -4 113 5 97 56 -94 729 -1298 727
-1300 -2 -1 -28 -10 -58 -19 -111 -35 -203 -107 -273 -214 -153 -232 -117
-478 77 -520 l35 -7 -46 -70 c-139 -213 -252 -563 -295 -912 l-3 -21 -110 28
c-288 73 -554 213 -910 480 -612 458 -1198 1089 -1557 1676 -291 476 -614
1164 -643 1369 l-5 40 67 32 c38 18 95 57 128 86 38 35 66 52 77 49 19 -5 25
14 7 20 -7 2 1 23 20 52 45 73 66 141 65 222 0 65 -3 78 -36 130 -30 49 -56
133 -157 502 -66 243 -121 447 -121 452 0 5 46 -7 103 -25 56 -18 144 -45 196
-60 192 -53 349 -144 498 -288 96 -93 181 -207 227 -307 36 -77 33 -33 -5 82
-64 190 -157 346 -274 456 -84 81 -204 145 -425 228 -231 86 -286 124 -379
259 -48 68 -88 145 -77 145 3 0 28 -9 57 -20 28 -11 122 -41 208 -66 261 -75
434 -174 587 -336 84 -88 124 -145 181 -253 50 -95 54 -81 13 44 -65 201 -163
366 -283 476 -81 76 -219 149 -427 225 -245 91 -316 148 -434 352 l-27 47 60
-24 c34 -14 120 -41 192 -61 251 -68 418 -160 575 -318 100 -101 138 -152 201
-271 49 -92 54 -81 17 37 -61 193 -168 373 -285 482 -81 75 -208 142 -419 221
-236 89 -297 133 -404 294 -57 85 -66 107 -43 97 19 -8 222 -72 322 -101 101
-30 236 -95 328 -157 80 -53 232 -205 285 -285 23 -34 57 -92 77 -130 44 -87
44 -59 1 72 -81 241 -211 429 -363 525 -71 45 -187 98 -338 154 -223 83 -290
132 -388 279 -62 94 -77 123 -104 192 -18 48 -20 50 -58 50 -39 0 -40 -1 -43
-38 -2 -26 113 -472 368 -1420 204 -760 374 -1390 377 -1401 3 -11 1 -16 -5
-12 -6 3 -43 1 -84 -4 -169 -24 -336 -147 -414 -305 -34 -69 -39 -90 -42 -160
-3 -67 0 -89 16 -121 37 -72 113 -124 182 -124 24 0 30 -4 30 -21 0 -53 46
-239 95 -384 107 -318 298 -727 489 -1044 l99 -163 -7 -566 c-4 -312 -8 -568
-10 -569 -2 -2 -23 4 -47 12 -56 21 -174 21 -219 2 -95 -40 -126 -138 -76
-241 44 -91 138 -162 251 -192 248 -67 389 139 218 317 l-35 37 7 531 8 531
25 -37 c73 -108 237 -332 320 -438 252 -318 456 -519 894 -880 l97 -80 -48
-90 c-26 -49 -191 -365 -366 -702 l-318 -612 -36 31 c-172 151 -518 111 -587
-67 -38 -102 11 -194 140 -260 l79 -40 121 0 c117 0 124 1 189 33 38 19 77 47
91 65 13 18 148 270 299 562 152 291 281 531 287 533 7 3 35 -20 64 -50 92
-95 143 -273 119 -415 -22 -128 -117 -284 -270 -444 -40 -42 -73 -79 -73 -82
0 -9 185 108 251 159 147 112 229 286 229 483 0 110 -13 188 -56 334 -18 65
-41 158 -50 207 -15 81 -15 98 -1 180 8 51 17 94 20 96 3 3 103 -72 223 -167
423 -333 763 -579 1041 -755 255 -161 466 -330 727 -585 l139 -135 -17 -195
c-9 -106 -23 -304 -31 -439 -26 -431 -80 -902 -110 -960 -20 -39 -66 -67 -130
-80 -67 -13 -276 -27 -585 -40 -760 -31 -838 -46 -1765 -344 -171 -55 -217
-66 -321 -76 -149 -13 -305 -1 -430 36 -210 60 -504 252 -798 518 -325 295
-516 630 -520 911 -2 153 39 230 141 266 44 16 206 17 271 1 71 -17 46 8 -65
64 -115 58 -202 79 -298 72 -80 -7 -164 -45 -197 -89 -46 -63 -53 -95 -52
-239 0 -138 18 -242 66 -380 22 -66 22 -65 -80 80 -187 267 -270 421 -462 855
-280 631 -455 1083 -525 1350 -62 237 -79 351 -79 545 -1 165 0 178 23 223 29
59 101 118 173 143 36 13 82 19 145 19 51 0 93 3 93 7 0 20 -121 51 -212 56
l-98 4 -5 32 c-2 17 -26 270 -51 562 l-47 532 25 33 c50 66 60 98 56 165 -4
72 -21 97 -83 125 -76 35 -192 17 -290 -45 -95 -61 -144 -142 -145 -238 0 -47
5 -62 27 -89 15 -17 42 -38 60 -45 51 -22 149 -17 213 9 l56 23 48 -545 c27
-300 50 -548 52 -550 2 -2 -14 -15 -35 -30 -21 -14 -51 -40 -65 -58 -62 -74
-113 -238 -122 -388 -3 -49 -7 -104 -10 -122 l-5 -32 -119 98 c-280 229 -535
361 -700 361 l-50 0 0 74 c0 40 -4 86 -10 102 -5 16 -91 427 -190 914 -138
684 -183 888 -197 897 -9 7 -42 13 -72 13 -31 0 -322 14 -648 32 -642 34 -623
35 -623 -22 0 -21 286 -1451 315 -1577 5 -22 3 -22 -57 -16 -179 16 -389 -109
-475 -285 -33 -66 -38 -87 -42 -160 -4 -108 13 -156 79 -215 103 -93 264 -98
424 -15 87 46 185 147 226 233 45 94 50 173 21 298 -57 242 -316 1547 -306
1547 42 1 1072 -75 1077 -79 5 -5 288 -1374 288 -1395 0 -2 -28 -1 -63 1 -130
11 -256 -38 -368 -145 -96 -90 -141 -181 -147 -296 -4 -69 -1 -90 18 -134 43
-100 134 -152 266 -152 138 0 272 63 373 177 l50 55 47 -7 c283 -42 654 -307
851 -608 83 -125 180 -318 254 -502 50 -127 159 -446 159 -468 0 -6 -15 3 -33
19 -138 129 -304 201 -442 192 -61 -4 -88 -12 -166 -51 -95 -46 -239 -141
-239 -157 0 -5 20 -2 46 7 25 8 47 13 50 11 2 -3 -99 -248 -227 -544 -127
-296 -237 -554 -244 -572 l-14 -32 -36 24 c-92 63 -244 74 -353 26 -60 -26
-117 -85 -126 -132 -15 -74 36 -152 124 -192 70 -31 208 -34 283 -6 110 41
104 32 322 543 109 254 201 465 205 470 11 13 88 -51 115 -97 73 -125 88 -257
41 -379 -30 -80 -112 -209 -181 -285 -26 -29 -45 -55 -42 -58 8 -8 203 143
242 189 20 23 53 76 73 116 l37 75 0 140 c0 139 -1 143 -38 246 -85 230 -90
250 -89 341 0 54 6 100 16 124 l16 38 114 -5 c99 -4 120 -8 172 -33 77 -38
247 -207 370 -370 152 -200 258 -364 459 -710 232 -398 655 -955 926 -1221
176 -171 376 -316 664 -479 114 -65 437 -226 480 -239 18 -5 8 -19 -75 -103
-105 -106 -150 -165 -224 -288 -156 -259 -386 -489 -572 -571 -182 -80 -355
-67 -566 43 -73 39 -92 54 -117 94 -76 123 -282 176 -423 109 -59 -27 -71 -41
-176 -196 -215 -321 -547 -804 -552 -803 -6 0 -464 547 -468 559 -3 8 323 493
495 737 l44 62 35 -39 c106 -117 335 -134 453 -33 71 60 89 137 52 218 -44 96
-155 155 -295 155 -74 0 -90 -4 -147 -32 -45 -23 -71 -45 -89 -72 -14 -22
-178 -263 -364 -535 -187 -273 -341 -508 -344 -522 -3 -23 36 -73 284 -358
238 -274 292 -331 313 -331 23 0 64 55 340 459 l313 459 36 -40 c45 -50 110
-83 190 -98 109 -19 236 18 289 85 l27 33 41 -43 c75 -77 220 -131 380 -142
156 -10 279 31 517 174 202 121 432 333 700 645 l83 98 6 -188 c9 -268 47
-419 136 -536 68 -88 196 -136 321 -121 55 7 61 18 15 30 -87 21 -196 104
-233 176 -55 106 -85 317 -77 543 12 335 59 430 271 550 189 108 585 229 915
281 l44 7 -6 -28 c-37 -196 -249 -1506 -244 -1511 4 -4 111 6 238 21 127 16
232 26 234 25 1 -2 -21 -148 -51 -324 -29 -176 -54 -334 -54 -352 0 -22 6 -36
19 -43 27 -14 76 -13 89 3 12 15 308 1774 300 1782 -3 3 -100 -2 -216 -11
-117 -8 -222 -14 -235 -12 l-23 3 40 232 39 231 32 6 c77 15 309 27 405 21
324 -20 645 -112 843 -243 l39 -26 -7 -616 c-8 -711 -3 -850 60 -1860 67
-1064 69 -1111 69 -1455 1 -308 0 -325 -26 -456 -78 -388 -214 -621 -397 -675
-138 -41 -330 23 -601 201 -304 200 -847 637 -931 749 -132 176 -240 405 -285
607 -24 104 -24 309 -1 419 45 214 228 482 504 737 57 53 101 98 98 101 -14
15 -276 -111 -389 -187 -205 -139 -352 -334 -408 -540 -24 -89 -29 -312 -9
-446 27 -183 92 -469 127 -560 7 -17 3 -17 -37 7 -80 47 -664 336 -834 413
-199 90 -323 134 -505 180 -282 70 -558 112 -835 125 -214 10 -318 31 -570
115 -274 91 -723 279 -852 357 -74 44 -198 177 -277 296 -74 111 -176 304
-232 440 -21 50 -43 92 -48 92 -11 0 0 -218 14 -279 6 -24 9 -45 8 -46 -2 -2
-120 91 -263 206 -143 114 -266 208 -273 209 -7 0 -186 -122 -399 -271 -387
-272 -402 -281 -403 -229 0 31 -49 116 -86 152 -53 51 -117 78 -184 78 -67 0
-113 -22 -154 -73 -26 -32 -31 -49 -34 -107 -2 -37 1 -84 7 -103 45 -134 189
-227 307 -198 31 8 116 62 287 184 133 95 256 182 273 194 l31 22 228 -178
c125 -98 228 -182 228 -187 0 -5 -80 -65 -179 -135 l-179 -127 -6 43 c-34 222
-340 323 -439 145 -52 -93 -26 -224 60 -310 55 -55 111 -80 182 -80 67 0 98
10 148 50 l37 29 69 -51 c312 -229 822 -525 1080 -627 163 -64 252 -84 384
-85 113 -1 117 0 270 52 370 125 634 168 991 159 187 -4 214 -7 324 -35 215
-55 451 -142 860 -314 105 -44 232 -98 284 -120 305 -128 756 -393 996 -584
176 -140 652 -486 1103 -799 110 -77 139 -101 125 -107 -10 -3 -74 -23 -143
-43 -437 -128 -754 -323 -862 -530 -57 -110 -72 -179 -72 -335 0 -76 5 -161
13 -195 20 -89 61 -215 70 -215 5 0 12 28 15 62 12 109 66 359 91 419 86 212
333 426 585 507 36 12 103 28 150 37 102 20 380 30 505 18 l89 -8 8 -45 c24
-137 133 -911 167 -1190 84 -677 101 -991 101 -1915 0 -957 -40 -1680 -125
-2257 -63 -423 -126 -648 -257 -909 -70 -140 -241 -417 -268 -434 -6 -4 -10
25 -10 82 0 140 -60 315 -164 477 l-36 57 45 92 c114 233 131 451 54 679 -53
155 -173 331 -296 433 -78 65 -199 127 -293 152 -97 25 -263 23 -364 -6 -108
-30 -227 -93 -297 -158 l-57 -54 -159 112 c-87 61 -164 117 -172 124 -12 11
-10 39 10 187 31 228 33 523 5 673 -78 418 -293 702 -681 900 -100 50 -286
125 -314 125 -15 0 -20 -13 -29 -72 -41 -272 -42 -689 -3 -871 42 -194 104
-323 248 -517 105 -140 279 -300 469 -428 l61 -41 -23 -143 c-66 -400 -81
-648 -48 -806 40 -197 159 -399 331 -563 155 -148 297 -223 491 -260 103 -19
318 -7 426 25 165 49 338 146 449 251 l47 45 39 -60 c74 -115 117 -266 97
-345 l-7 -28 -32 31 c-80 77 -226 100 -334 53 -57 -25 -127 -93 -148 -144 -21
-50 -27 -118 -16 -167 5 -24 9 -46 7 -47 -5 -5 -363 107 -466 145 -201 76
-236 91 -392 161 -374 168 -775 385 -1463 791 -44 26 -243 142 -443 259 -1015
591 -1647 893 -2375 1136 l-262 87 -42 68 c-24 37 -85 113 -138 170 -52 56
-111 127 -131 158 -44 65 -74 156 -74 221 0 26 -5 52 -12 59 -18 18 -75 15
-82 -4 -3 -9 -6 -135 -6 -281 l0 -266 -37 6 c-21 3 -122 21 -224 41 -538 103
-1201 156 -1786 142 -156 -3 -283 -4 -283 -1 0 3 18 41 40 85 22 44 40 90 40
102 0 17 -57 72 -235 225 -145 126 -242 203 -255 203 -18 0 -48 -54 -191 -345
-110 -222 -175 -345 -185 -345 -8 0 -33 9 -56 21 -95 48 -212 34 -288 -36
l-45 -42 -185 -32 c-480 -83 -1033 -224 -1518 -387 -206 -69 -462 -166 -500
-190 -26 -17 -29 -46 -7 -64 18 -15 19 -15 223 64 523 202 1224 393 1837 501
82 15 151 23 152 18 33 -98 173 -149 294 -108 60 21 96 56 125 125 l25 57 162
16 c237 24 419 39 424 34 4 -4 -171 -374 -182 -385 -3 -3 -13 2 -22 10 -91 80
-280 67 -344 -23 -32 -45 -36 -100 -10 -148 l21 -41 -23 -5 c-12 -2 -65 -12
-117 -20 -834 -136 -1848 -444 -2570 -782 -52 -24 -103 -51 -112 -60 -24 -21
-23 -50 2 -63 16 -8 35 -3 97 26 785 369 1813 678 2743 823 997 156 1907 160
2818 14 l162 -26 0 -101 c0 -55 -3 -117 -6 -137 l-6 -37 -83 5 c-86 6 -157 -9
-220 -48 -27 -16 -42 -17 -125 -9 -366 34 -951 37 -1361 5 -1153 -88 -2225
-359 -3404 -859 -148 -64 -643 -308 -678 -336 -31 -25 -33 -56 -4 -74 13 -8
25 -7 50 8 190 109 634 316 944 442 1029 414 2079 663 3148 744 338 26 958 23
1252 -7 l62 -6 -19 -38 c-27 -52 -26 -131 0 -175 12 -18 40 -42 66 -54 65 -32
204 -25 284 13 74 35 131 85 161 141 17 33 30 46 46 46 38 0 383 -69 573 -114
683 -163 1370 -413 2405 -876 77 -34 158 -70 180 -80 22 -10 148 -66 280 -125
770 -344 1244 -526 1683 -644 234 -64 408 -98 796 -157 31 -5 36 -8 23 -16
-32 -18 -503 44 -782 103 -482 102 -850 224 -1995 664 -1172 451 -1723 631
-2370 774 -914 203 -1823 242 -2810 121 -1103 -136 -2308 -507 -3362 -1036
-48 -24 -92 -44 -98 -44 -5 0 -10 24 -10 53 0 61 -11 77 -56 77 -40 0 -44 -10
-44 -113 l-1 -82 -117 -64 c-190 -104 -333 -192 -339 -208 -8 -21 10 -47 34
-51 12 -2 70 27 134 66 63 37 154 90 203 117 l89 48 -6 -198 c-4 -109 -7 -269
-7 -355 l0 -156 -43 -24 c-23 -13 -122 -77 -220 -143 -161 -107 -178 -121
-175 -144 4 -32 32 -52 52 -38 67 47 245 167 308 206 l78 49 0 -124 c0 -68 -3
-143 -6 -167 l-6 -44 -102 0 c-123 0 -189 -23 -266 -92 -65 -58 -90 -107 -90
-174 0 -67 27 -111 86 -139 65 -32 205 -25 284 13 74 35 124 79 158 135 l27
47 5 299 5 299 24 16 c85 58 307 178 315 170 6 -5 12 -48 14 -96 5 -99 -14
-218 -53 -338 -33 -101 -31 -111 10 -45 56 89 112 201 129 259 18 60 22 207 7
258 l-9 32 271 134 c370 184 628 298 977 432 1339 514 2692 724 3935 610 805
-73 1546 -246 2850 -665 615 -197 801 -255 1015 -318 653 -192 1067 -277 1560
-318 209 -18 770 -24 1030 -12 l145 6 -100 -13 c-355 -47 -996 -69 -1330 -46
-563 40 -912 111 -2365 480 -283 72 -614 153 -735 181 -1500 346 -2586 394
-3825 168 -654 -119 -1371 -338 -2030 -621 -221 -94 -282 -123 -525 -242 -588
-289 -1163 -638 -1620 -982 -154 -116 -170 -131 -170 -158 0 -25 4 -30 25 -33
19 -2 66 28 185 118 1036 780 2418 1433 3668 1735 959 231 1835 294 2752 199
650 -67 1182 -173 2295 -456 1249 -317 1579 -387 2095 -448 266 -31 759 -40
1085 -20 583 36 1249 138 1761 271 196 51 258 50 464 -4 374 -99 969 -198
1445 -242 821 -74 1425 -32 2290 160 229 51 398 92 1410 348 979 248 1558 353
2310 419 191 17 906 17 1105 0 688 -58 1255 -168 1935 -374 1051 -319 2239
-920 3113 -1574 98 -74 184 -134 191 -134 19 0 36 22 36 46 0 41 -504 400
-915 651 -806 493 -1693 887 -2558 1137 -1204 348 -2353 430 -3572 255 -482
-69 -1031 -184 -1700 -354 -890 -226 -1100 -279 -1300 -324 -625 -141 -1019
-196 -1495 -207 -318 -8 -741 14 -1070 54 -30 4 177 7 460 7 423 0 546 3 690
18 675 69 1081 172 2565 650 1248 402 2057 586 2870 652 1267 103 2668 -136
4030 -685 642 -260 1305 -604 1823 -947 179 -119 214 -132 220 -85 2 13 -2 29
-8 37 -19 23 -311 214 -500 327 -458 275 -1016 550 -1525 753 -93 37 -172 69
-173 71 -2 1 20 14 50 28 75 36 132 87 162 148 24 48 26 62 26 190 l0 138 123
-44 c561 -200 1208 -501 1674 -778 72 -43 138 -78 145 -78 19 0 38 21 38 41 0
23 -38 50 -195 141 -201 116 -419 230 -640 335 -314 149 -530 242 -823 354
l-24 9 32 53 c97 163 130 252 130 348 l0 57 119 -43 c362 -131 764 -305 1101
-476 118 -60 222 -109 231 -109 20 0 39 20 39 42 0 22 -51 52 -305 178 -330
163 -647 298 -1017 435 l-172 63 -26 63 c-47 116 -72 150 -264 367 -70 80
-116 155 -130 215 -8 33 -33 38 269 -49 498 -142 938 -301 1345 -485 98 -44
186 -79 196 -77 22 4 39 31 31 51 -17 46 -689 319 -1156 471 -207 68 -587 179
-654 191 -26 5 -41 15 -50 34 -15 32 -74 43 -89 17 -5 -9 -12 -14 -16 -12 -4
2 -100 25 -212 50 -508 113 -1011 186 -1560 228 -184 14 -962 18 -1107 5 l-93
-8 7 174 6 174 -99 31 c-54 17 -112 34 -127 38 -15 3 -26 8 -24 10 6 7 219 32
402 49 1184 107 2503 -36 3755 -406 213 -64 531 -171 704 -239 166 -65 187
-68 194 -22 2 13 -6 27 -22 37 -61 41 -485 192 -807 288 -1440 433 -2950 562
-4302 368 l-119 -17 -71 23 c-40 12 -84 23 -99 23 -26 0 -28 -3 -28 -39 l0
-40 -57 -11 c-629 -126 -1227 -316 -1768 -560 -365 -165 -799 -384 -1116 -564
l-46 -26 -264 360 c-145 198 -268 361 -274 364 -6 2 -143 -49 -305 -114 -242
-97 -296 -121 -298 -138 -2 -14 71 -123 227 -335 127 -173 231 -317 231 -320
0 -3 -11 -8 -25 -11 -76 -19 -145 -130 -145 -236 l0 -65 -93 -55 c-1152 -681
-1717 -931 -2527 -1119 -74 -17 -153 -36 -175 -41 -21 -5 -40 -8 -41 -7 -29
42 -178 269 -224 342 -330 523 -517 893 -589 1165 -181 686 -425 2697 -471
3873 -27 716 65 1558 240 2174 76 271 179 533 208 533 8 0 342 -41 741 -90
748 -94 1109 -147 1103 -165 -2 -5 -220 -214 -484 -463 l-480 -453 -35 51
c-67 99 -218 169 -343 157 -180 -16 -237 -169 -114 -306 102 -113 299 -162
411 -103 17 9 201 177 408 372 207 195 380 356 385 358 5 2 21 -18 37 -45 27
-45 28 -54 28 -168 0 -114 -2 -123 -32 -188 -18 -37 -56 -92 -85 -123 -61 -65
-195 -156 -291 -199 -37 -17 -67 -33 -67 -36 0 -10 166 28 250 57 180 63 294
188 345 380 9 32 22 140 30 239 8 99 22 204 31 234 21 70 65 148 106 188 l33
32 170 -44 c321 -82 393 -115 615 -280 313 -232 511 -326 779 -370 161 -27
448 -12 580 30 14 4 13 -38 -13 -437 l-30 -441 -37 -34 c-50 -45 -79 -107 -79
-167 0 -64 28 -108 86 -136 64 -32 195 -26 276 12 113 52 187 146 188 236 0
116 -111 181 -267 155 -37 -7 -69 -10 -71 -8 -2 2 9 195 24 429 l28 424 41 12
c64 19 213 92 303 148 231 144 367 280 589 592 292 410 425 542 588 585 105
27 249 12 418 -43 108 -35 111 -25 21 63 -118 117 -280 172 -434 148 -169 -26
-370 -167 -569 -398 -47 -55 -95 -113 -106 -128 l-20 -28 -1 133 c0 207 -33
300 -151 428 -81 87 -281 225 -300 206 -3 -3 20 -34 52 -68 118 -127 212 -298
235 -428 22 -120 -7 -305 -66 -423 -70 -139 -210 -285 -355 -371 -251 -150
-620 -237 -878 -208 -181 21 -320 82 -501 220 -80 61 -255 230 -308 299 l-32
41 291 242 c160 133 289 244 286 247 -3 2 -137 -55 -299 -128 -161 -72 -320
-141 -353 -152 -48 -15 -98 -20 -246 -24 l-186 -6 -6 169 c-4 93 -10 374 -13
625 l-7 457 40 48 c56 67 74 107 80 175 12 124 -63 199 -207 207 -176 10 -359
-95 -430 -246 -30 -63 -25 -162 9 -211 55 -77 198 -103 332 -61 35 10 65 17
67 15 8 -7 26 -1155 18 -1162 -9 -9 -303 24 -471 53 -226 39 -378 83 -725 206
-222 79 -634 235 -666 252 -21 11 -20 14 43 101 292 406 427 724 545 1283 l13
64 80 32 c219 89 434 237 555 382 55 66 114 190 141 294 24 96 41 430 21 430
-5 0 -13 -17 -17 -37 -12 -69 -77 -257 -115 -338 -79 -165 -185 -269 -375
-367 -101 -52 -212 -94 -222 -85 -8 8 38 358 83 627 29 174 102 501 115 515 2
2 22 -1 44 -7 61 -16 117 4 180 63 70 66 107 148 113 249 l4 75 77 -79 c134
-139 303 -285 416 -361 118 -80 324 -183 471 -236 l91 -33 0 -146 c0 -165 11
-247 54 -375 51 -154 142 -263 316 -382 103 -70 223 -138 223 -126 -1 4 -28
40 -61 78 -139 161 -231 335 -252 480 -12 83 5 184 46 278 21 46 30 57 49 57
13 0 214 -20 448 -44 380 -40 432 -47 490 -71 252 -105 449 -247 516 -376 28
-52 29 -59 29 -194 0 -155 -13 -222 -65 -334 -39 -83 -37 -95 6 -46 224 253
282 479 179 691 -61 125 -170 223 -321 289 -41 18 -77 35 -80 37 -9 9 107 48
194 64 125 25 370 25 482 1 207 -45 357 -134 556 -334 101 -101 146 -167 185
-273 40 -111 59 -225 59 -360 0 -273 -70 -425 -233 -505 -40 -19 -94 -39 -120
-44 -54 -10 -68 -18 -48 -31 51 -31 202 -12 290 35 108 59 218 174 251 264 33
85 43 199 30 320 -6 58 -14 110 -17 115 -8 16 2 5 107 -109 119 -130 260 -259
385 -353 162 -121 450 -253 723 -330 39 -11 72 -17 72 -13 0 5 -26 25 -57 46
-32 21 -91 63 -131 92 l-74 55 41 20 c60 29 133 99 159 150 28 58 30 140 3
184 -40 66 -171 90 -274 50 -27 -10 -50 -16 -53 -13 -3 3 -18 247 -35 543 -16
296 -33 542 -38 547 -5 5 -21 7 -37 5 -29 -3 -29 -4 -31 -73 -2 -38 10 -299
25 -580 l29 -510 -34 -39 c-18 -22 -33 -44 -33 -50 0 -38 -281 292 -595 699
-150 193 -282 333 -410 435 -236 187 -493 313 -729 358 -127 24 -598 23 -805
-1 -79 -9 -150 -17 -158 -17 -7 0 44 64 114 143 71 78 180 203 244 277 136
158 216 236 319 311 103 75 162 111 250 153 66 32 84 36 153 36 143 0 251 -53
373 -182 86 -91 129 -174 145 -278 6 -41 13 -91 16 -110 l6 -35 28 60 c64 136
77 312 30 403 -31 61 -95 128 -165 173 -34 23 -53 40 -45 43 8 2 106 7 219 10
543 17 792 55 1007 156 102 48 161 88 242 164 101 97 204 256 242 374 18 56
18 49 18 -580 1 -477 4 -638 13 -638 36 0 267 201 343 300 71 93 88 133 83
209 -4 78 -28 119 -84 146 -62 29 -133 15 -266 -53 -5 -2 -8 155 -8 350 0 194
-3 391 -7 436 l-6 84 -39 -4 c-34 -3 -38 -1 -38 19 0 33 -47 178 -85 259 -39
86 -115 217 -122 211 -2 -3 3 -39 11 -81 27 -127 41 -371 28 -473 -38 -297
-324 -505 -834 -607 -212 -43 -304 -48 -673 -41 -295 6 -352 5 -430 -9 -140
-26 -244 -61 -372 -126 -202 -100 -373 -230 -728 -550 -278 -251 -347 -298
-495 -339 -337 -94 -888 11 -1205 229 -157 109 -323 312 -426 520 -71 142 -73
125 26 234 73 81 98 101 158 130 141 67 431 151 662 191 79 14 142 17 305 14
373 -7 629 -2 720 15 115 21 225 76 317 161 67 61 150 161 141 170 -2 2 -60
-24 -128 -59 -69 -34 -170 -77 -225 -96 -93 -32 -109 -35 -220 -35 -88 1 -157
8 -260 28 -220 42 -340 57 -481 57 -206 0 -402 -43 -638 -139 -55 -22 -101
-39 -103 -37 -10 9 106 163 170 225 146 142 567 478 872 696 85 61 290 195
457 300 564 352 819 535 993 709 120 120 279 325 399 516 66 103 230 388 239
413 1 4 88 12 192 17 437 22 753 56 893 96 228 66 495 253 629 442 59 82 80
140 89 243 12 152 -26 310 -93 388 -141 165 -441 143 -654 -47 -27 -24 -49
-48 -49 -52 0 -5 26 2 58 15 93 38 182 58 262 59 100 1 161 -28 204 -98 55
-88 46 -258 -21 -389 -91 -180 -379 -341 -712 -398 -63 -10 -116 -18 -117 -16
-2 2 29 235 69 518 l73 514 56 55 c88 86 101 172 37 245 -45 51 -101 68 -203
63 -69 -4 -96 -10 -149 -36 -184 -91 -229 -280 -84 -353 49 -26 155 -36 210
-21 20 6 37 9 37 8 0 -1 -31 -227 -70 -501 -38 -274 -70 -500 -70 -502 0 -6
-476 -3 -542 4 l-68 6 0 98 c0 213 -61 345 -202 437 -131 85 -293 116 -454 88
-94 -16 -204 -52 -204 -67 0 -5 28 -9 63 -9 76 0 233 -23 307 -46 180 -54 230
-123 238 -324 6 -157 -27 -387 -74 -530 -104 -313 -360 -656 -647 -869 -176
-130 -712 -479 -721 -470 -2 2 16 39 41 83 91 160 153 348 153 466 0 102 -57
177 -198 264 -74 45 -260 131 -267 124 -3 -2 29 -26 70 -53 41 -26 90 -64 109
-84 52 -53 104 -146 116 -208 22 -106 -31 -267 -146 -439 -104 -157 -186 -232
-588 -532 -204 -154 -438 -333 -521 -399 -214 -172 -456 -420 -709 -726 -49
-59 -91 -107 -93 -107 -3 0 -30 23 -61 50 -72 64 -134 94 -251 123 -82 20 -95
27 -118 57 -60 80 -137 149 -197 177 -58 27 -68 28 -206 28 -105 0 -167 -5
-225 -18 -103 -24 -295 -87 -295 -97 0 -4 56 -11 124 -15 109 -6 123 -9 119
-24 -2 -10 4 -27 14 -38 10 -12 151 -141 313 -288 162 -146 301 -276 307 -288
18 -31 16 -208 -3 -308 -8 -46 -33 -154 -54 -239 -21 -85 -60 -256 -85 -380
-66 -324 -230 -1029 -296 -1273 l-10 -39 -51 89 c-105 184 -247 367 -352 454
-72 59 -156 102 -246 126 -97 26 -288 23 -407 -6 -51 -13 -93 -26 -93 -30 0
-5 39 -11 88 -14 233 -16 442 -118 587 -287 112 -131 258 -386 340 -593 l39
-99 -18 -86 c-37 -182 -133 -425 -218 -551 -153 -225 -338 -311 -553 -256
-216 56 -359 318 -510 938 -64 265 -205 939 -234 1122 -63 400 -92 922 -76
1358 l7 209 140 179 c212 274 330 413 452 535 98 98 122 116 208 157 120 59
294 116 461 153 70 15 127 31 127 35 0 12 -100 50 -174 66 -93 20 -262 12
-371 -16 -211 -56 -532 -258 -767 -484 -53 -50 -78 -69 -78 -57 0 79 114 1064
155 1336 42 283 70 372 183 579 165 301 579 841 872 1136 204 206 481 400 826
580 l139 72 94 -41 c146 -64 247 -129 337 -217 96 -95 127 -153 149 -281 14
-80 38 -414 30 -422 -1 -2 -42 5 -89 15 -64 13 -91 15 -104 7 -13 -8 -607
-1090 -775 -1412 l-23 -43 -33 51 c-58 89 -186 174 -302 200 -90 20 -232 9
-299 -23 -82 -39 -125 -80 -161 -152 -30 -61 -31 -69 -27 -157 4 -77 9 -103
34 -152 59 -120 203 -228 341 -257 33 -6 95 -9 146 -6 107 6 194 43 252 109
22 26 183 318 396 718 197 371 362 676 366 677 8 3 1003 -194 1009 -199 1 -2
-124 -238 -279 -526 l-282 -522 -20 27 c-11 16 -47 55 -80 89 -103 103 -231
150 -386 142 -145 -7 -256 -73 -308 -181 -38 -78 -46 -138 -31 -213 34 -169
188 -316 370 -355 29 -6 94 -9 144 -7 148 7 255 69 313 183 14 28 221 417 460
867 466 876 462 866 403 894 -14 7 -238 57 -498 111 -261 54 -477 100 -481
103 -5 3 1 52 11 110 11 60 21 178 25 275 5 153 3 179 -16 255 -45 180 -144
331 -269 411 l-43 27 53 20 c108 40 229 62 478 87 777 78 993 129 1190 280
147 113 289 331 337 519 17 64 23 73 94 140 163 154 341 202 484 131 64 -31
168 -133 214 -209 63 -105 84 -172 90 -286 l6 -105 13 55 c25 107 44 285 39
372 -3 70 -10 99 -36 154 -44 94 -140 186 -248 239 -45 22 -81 43 -80 46 1 4
26 26 55 49 61 48 135 143 168 216 30 67 47 166 38 218 -3 22 -132 381 -285
797 -154 416 -279 761 -279 767 0 17 60 32 130 32 166 0 385 -113 506 -261
115 -140 187 -387 201 -687 3 -73 9 -129 13 -125 9 10 57 294 66 389 13 143
-33 347 -107 471 -46 76 -165 201 -260 273 -46 35 -161 100 -280 160 -110 56
-226 118 -257 138 -118 74 -242 218 -278 320 -22 64 -35 76 -81 75 -42 -1 -73
-28 -73 -62 1 -14 171 -487 379 -1051 l379 -1025 -72 -7 c-204 -21 -427 -225
-476 -437 -23 -99 3 -214 59 -265 12 -11 21 -22 21 -25 0 -4 -28 -27 -61 -51
-34 -24 -74 -60 -89 -78 l-28 -34 -38 43 c-132 153 -262 259 -300 245 -23 -9
-17 -74 16 -186 58 -195 80 -301 80 -391 0 -112 -25 -164 -124 -256 -163 -152
-427 -246 -765 -272 -144 -12 -541 -15 -541 -5 0 3 31 135 69 293 97 401 178
768 197 891 18 121 13 212 -36 665 -59 545 -62 641 -24 692 12 16 47 39 80 52
49 20 77 24 169 25 l110 1 62 -47 c131 -101 152 -146 162 -348 l6 -115 36 70
c20 39 42 87 49 108 15 49 15 142 0 209 -15 62 -68 183 -111 249 l-30 47 64
104 c93 150 117 203 129 276 10 66 2 272 -11 272 -3 0 -17 -30 -30 -67 -41
-117 -119 -273 -186 -373 -103 -155 -197 -228 -340 -265 -59 -15 -197 -20
-252 -9 l-29 6 -42 216 c-86 449 -124 729 -125 937 -2 139 9 183 56 233 67 73
211 92 375 50 50 -13 92 -21 92 -17 0 23 -135 98 -225 124 -84 25 -250 17
-323 -15 -68 -30 -127 -96 -150 -169 -25 -81 -22 -315 7 -551 26 -220 99 -725
141 -976 16 -98 28 -179 27 -181 -2 -1 -22 22 -45 52 -49 63 -109 113 -172
146 -35 17 -62 23 -120 23 -72 1 -170 -19 -170 -34 0 -4 39 -26 87 -49 185
-89 339 -213 400 -322 102 -181 175 -513 191 -866 4 -90 4 -203 0 -251 -19
-217 -142 -584 -328 -979 l-53 -112 -181 -60 c-165 -55 -759 -241 -768 -241
-2 0 -3 78 -3 173 l0 172 -31 65 c-41 85 -104 167 -200 260 -79 77 -100 81
-66 13 31 -60 78 -219 101 -336 52 -268 11 -481 -125 -658 -66 -87 -968 -973
-972 -955 -5 21 34 372 64 571 13 94 69 396 123 672 l98 502 48 73 c238 361
368 459 607 462 43 1 78 4 78 7 0 13 -49 50 -95 71 -74 33 -247 38 -329 9 -81
-28 -156 -75 -232 -144 -41 -38 -64 -53 -64 -43 0 97 77 642 124 876 53 264
119 722 173 1189 l17 155 53 62 c81 95 207 208 265 236 74 36 166 59 270 65
48 3 88 10 88 14 0 17 -84 69 -133 84 -163 48 -386 -23 -554 -178 l-41 -38
-22 58 c-44 117 -99 334 -111 434 -34 294 61 785 211 1094 84 173 149 266 269
385 l105 105 8 -40 c4 -22 14 -291 23 -598 14 -522 14 -559 -1 -590 -25 -46
-24 -119 2 -154 35 -48 79 -65 161 -60 126 7 237 83 278 190 59 156 -117 250
-298 159 l-53 -27 -17 570 c-9 313 -14 572 -9 576 7 8 67 11 168 10 l62 -1 4
-60 c5 -74 40 -128 115 -181 82 -57 148 -74 288 -74 101 1 129 4 177 23 113
46 120 55 424 632 152 289 296 562 321 608 l44 82 31 -17 c109 -64 197 -280
184 -458 -11 -175 -100 -332 -308 -551 -51 -54 -85 -95 -76 -91 10 3 73 41
140 84 140 87 256 196 306 285 105 185 117 412 36 691 -20 67 -44 160 -55 207
-32 144 -20 300 29 397 12 23 22 53 22 66 0 32 -30 57 -68 57 -28 0 -34 -6
-67 -67z m-5127 -3849 c5 -3 52 -817 48 -822 -3 -2 -29 2 -58 8 l-54 12 -17
382 c-10 209 -17 395 -17 412 l0 31 48 -10 c26 -6 48 -11 50 -13z m992 -845
c279 -74 452 -296 545 -699 14 -63 30 -126 33 -140 4 -14 8 56 10 155 3 197
-7 294 -43 393 l-23 63 22 -7 c36 -11 207 -105 296 -163 114 -74 220 -177 258
-250 68 -126 98 -344 89 -646 -10 -330 -48 -577 -168 -1085 -76 -320 -328
-1322 -334 -1328 -8 -8 -135 59 -224 118 -122 82 -274 212 -336 288 -154 186
-227 473 -196 765 36 326 178 564 555 926 37 35 65 66 62 68 -2 2 -37 -10 -76
-27 -39 -17 -74 -30 -76 -28 -2 2 1 22 7 43 6 22 9 76 7 120 l-4 80 -372 662
c-205 364 -372 664 -372 666 0 10 75 39 119 46 60 10 129 4 221 -20z m3320
-6710 c30 -17 72 -45 92 -63 l37 -33 -60 -79 c-33 -43 -64 -83 -69 -87 -4 -5
-18 22 -30 60 -13 37 -40 108 -61 157 -22 49 -39 91 -39 92 0 8 83 -22 130
-47z m6131 -369 c25 -14 49 -62 49 -99 0 -70 -69 -188 -164 -281 l-56 -55 2
199 3 199 44 24 c47 25 91 29 122 13z m-10282 -157 c0 -10 -15 -103 -32 -208
l-33 -190 -172 -14 c-95 -7 -175 -12 -177 -9 -6 6 57 381 65 391 4 5 76 16
161 26 200 24 189 24 188 4z m-5729 -1719 c124 -97 226 -179 228 -183 1 -4
-11 -17 -26 -28 l-29 -21 -232 186 -233 185 24 19 c12 9 28 18 33 18 6 0 111
-79 235 -176z m505 -141 c11 -48 92 -211 139 -282 60 -90 199 -222 316 -300
141 -94 348 -195 543 -266 l88 -31 -78 -63 c-114 -91 -255 -158 -373 -178 -94
-16 -96 -16 -195 9 -192 49 -480 174 -948 411 -163 83 -296 155 -294 160 3 9
777 565 788 566 4 1 10 -11 14 -26z m3285 -6601 c62 -36 177 -154 239 -247 94
-140 168 -315 201 -474 24 -113 37 -422 22 -541 l-9 -75 -73 75 c-250 257
-404 529 -455 803 -19 103 -36 337 -29 391 14 108 14 107 37 100 12 -3 42 -18
67 -32z m-6750 -488 c85 -76 172 -152 193 -171 l37 -33 -16 -33 c-9 -17 -18
-34 -20 -36 -2 -2 -307 256 -382 324 -11 10 -10 18 4 48 10 21 20 37 23 37 3
0 76 -61 161 -136z m-60 -225 l142 -124 -38 -7 c-44 -8 -467 -46 -472 -42 -2
1 35 79 83 174 l86 171 28 -24 c16 -13 93 -80 171 -148z m1370 -209 c243 -18
525 -49 730 -81 179 -28 471 -82 513 -95 15 -5 17 -24 17 -216 l0 -210 -22 5
c-51 13 -443 67 -588 81 -332 33 -478 40 -875 40 -413 0 -612 -9 -960 -44 -99
-10 -182 -17 -184 -15 -2 2 57 125 129 274 l133 270 116 4 c199 7 839 -1 991
-13z m18293 -176 l217 -68 0 -44 c0 -31 -4 -43 -12 -39 -7 2 -122 38 -255 78
l-243 74 0 32 c0 25 5 33 23 36 31 7 28 7 270 -69z m-364 -21 c-1 -122 -14
-352 -20 -358 -3 -3 -60 -14 -126 -25 -669 -109 -1359 -323 -2125 -658 -356
-156 -438 -196 -1893 -931 -964 -487 -1494 -677 -2257 -811 -107 -19 -176 -26
-181 -21 -6 6 -1 12 14 15 13 4 94 22 179 41 754 173 1305 412 2339 1014 236
137 297 169 311 161 28 -15 107 -12 139 5 40 20 99 92 112 135 10 31 24 43
118 98 112 64 131 71 131 48 0 -8 16 -28 35 -45 107 -93 286 32 287 201 l1 56
146 80 c926 510 1704 824 2481 1001 343 78 310 79 309 -6z m-16255 -137 c25
-48 31 -75 34 -145 3 -72 -9 -196 -21 -207 -2 -2 -77 13 -168 33 l-164 36 3
208 3 207 142 -36 142 -37 29 -59z m16634 -66 c158 -50 193 -64 190 -78 -2
-12 -15 -18 -43 -20 -74 -5 -420 -43 -442 -49 -23 -5 -23 -4 -23 90 0 52 3
108 6 125 l6 30 57 -18 c31 -11 143 -46 249 -80z m-16178 -30 c683 -242 1361
-574 2320 -1140 965 -569 1175 -687 1565 -879 382 -189 674 -303 1065 -415
132 -38 308 -106 274 -106 -45 0 -435 89 -634 145 -242 68 -628 213 -905 340
-27 12 -108 50 -180 83 -145 66 -707 347 -1005 502 -1115 578 -1899 915 -2595
1115 -121 34 -234 66 -251 69 l-31 7 26 62 c24 56 26 74 26 193 l0 131 80 -25
c44 -13 154 -50 245 -82z m17475 -130 c598 -32 1237 -123 1798 -257 l147 -35
0 -251 c0 -139 -4 -257 -8 -264 -6 -9 -29 -6 -92 13 -153 44 -511 132 -715
174 -650 134 -1281 200 -1918 200 l-269 0 7 163 c8 227 11 247 38 248 12 1 74
5 137 9 179 10 676 11 875 0z m-1115 -93 c0 -41 -3 -121 -6 -179 l-7 -105 -67
5 c-74 5 -120 -6 -175 -43 -29 -20 -56 -27 -148 -35 -61 -5 -130 -13 -152 -16
l-40 -6 26 28 c43 47 47 63 55 221 l7 151 81 12 c138 19 319 38 374 39 l52 1
0 -73z m-4047 21 l25 -31 -241 -97 c-133 -53 -246 -93 -252 -89 -5 4 -18 20
-27 36 l-17 29 237 91 c130 51 240 92 244 93 4 0 18 -14 31 -32z m3467 -66 l0
-57 -87 0 c-78 0 -93 -3 -134 -27 -26 -15 -58 -41 -73 -58 -52 -62 -58 -152
-15 -199 12 -12 19 -24 18 -25 -2 -2 -40 -9 -84 -15 -735 -112 -1641 -400
-2640 -841 -22 -10 -134 -59 -250 -110 -167 -73 -662 -293 -820 -365 -16 -7
-120 -51 -230 -98 -684 -289 -1130 -433 -1630 -526 -213 -39 -553 -84 -573
-76 -10 4 63 22 168 41 398 74 707 154 1010 263 393 141 686 273 1380 624
1242 628 1421 715 1815 885 693 298 1318 493 1948 607 100 18 185 34 190 34 4
1 7 -25 7 -57z m-16381 -42 c74 -17 136 -32 137 -33 1 -1 -6 -28 -17 -61 -28
-83 -20 -87 24 -12 l38 64 107 -28 c395 -104 862 -266 1292 -450 379 -161 560
-250 2010 -982 923 -466 1452 -663 2110 -788 196 -37 197 -37 183 -51 -13 -13
-306 29 -566 82 -487 99 -975 267 -1717 591 -180 79 -177 78 -520 231 -606
270 -823 364 -1135 489 -728 291 -1373 484 -1945 583 -85 15 -161 29 -167 31
-10 2 -13 49 -13 189 l0 185 23 -5 c12 -2 83 -18 156 -35z m4619 -67 c15 -10
68 -46 119 -81 l92 -65 -20 -39 c-25 -48 -49 -156 -49 -218 0 -72 27 -178 65
-259 44 -93 168 -220 263 -269 34 -18 62 -30 62 -26 0 3 -20 36 -44 73 -103
156 -151 292 -144 404 5 68 41 187 57 187 9 0 265 -206 396 -319 149 -128 288
-264 376 -370 l78 -93 -37 -45 c-124 -149 -364 -273 -529 -273 -143 0 -308 64
-461 180 -245 184 -342 405 -342 775 0 115 18 340 36 448 6 37 6 38 30 23 13
-9 36 -24 52 -33z m8533 -148 c72 -99 136 -185 141 -191 6 -8 -5 -19 -36 -33
-53 -26 -94 -77 -117 -144 -16 -46 -21 -51 -125 -111 l-109 -64 -11 27 c-6 14
-90 134 -188 266 -126 173 -173 242 -164 248 19 13 462 185 470 184 4 -1 66
-83 139 -182z m-7639 84 c135 -28 277 -129 361 -257 120 -180 153 -373 96
-557 l-20 -67 -187 184 c-176 172 -416 389 -579 522 -69 56 -72 61 -56 78 34
38 144 88 223 101 49 8 110 7 162 -4z m12243 -199 c721 -42 1432 -164 2193
-377 l62 -17 0 -249 c0 -219 -2 -248 -15 -243 -9 3 -93 30 -188 60 -1011 321
-1994 470 -2982 453 -636 -11 -1135 -76 -1760 -227 -623 -151 -1062 -297
-2170 -722 -648 -250 -786 -301 -1055 -395 -516 -179 -917 -282 -1330 -342
-216 -32 -652 -71 -640 -58 3 3 82 15 175 26 611 78 1067 198 1691 444 297
118 390 158 1099 472 965 428 1329 576 1849 750 626 210 1328 362 1841 401
l90 6 1 -44 c2 -83 57 -131 154 -132 31 0 76 7 102 17 57 22 122 90 139 146
l12 41 281 0 c155 0 358 -5 451 -10z m2463 -244 c26 -13 65 -40 87 -59 42 -36
102 -114 94 -122 -3 -2 -69 16 -147 41 l-142 45 0 60 0 59 30 0 c17 0 52 -11
78 -24z m69 -237 c132 -43 163 -56 167 -73 11 -40 6 -175 -9 -248 -21 -100
-56 -218 -66 -218 -4 0 -67 22 -141 49 l-133 49 0 56 c2 293 6 436 13 436 4 0
80 -23 169 -51z m-20772 7 c676 -57 1281 -184 2056 -430 259 -82 743 -255
1064 -379 77 -30 237 -91 355 -137 118 -46 249 -96 290 -112 1306 -504 1875
-639 2869 -679 152 -6 277 -12 279 -14 9 -8 -519 -17 -678 -11 -790 29 -1281
131 -2505 523 -690 220 -851 271 -1035 326 -1073 322 -1867 471 -2643 495
-452 15 -971 -11 -1392 -68 -898 -123 -1833 -393 -2700 -779 -27 -13 -81 -37
-120 -54 -38 -17 -192 -92 -341 -167 l-271 -135 -34 59 c-19 32 -63 92 -99
133 -151 171 -189 217 -209 254 l-22 39 178 88 c1178 580 2447 942 3653 1042
381 32 965 34 1305 6z m18115 0 c539 -47 1050 -133 1575 -266 214 -55 566
-157 730 -213 l70 -24 3 -66 3 -66 -33 10 c-180 51 -418 -81 -437 -243 l-6
-54 -150 48 c-750 244 -1450 384 -2210 444 -259 21 -866 24 -1105 6 -563 -43
-1064 -127 -1665 -278 -429 -108 -775 -211 -1690 -505 -1175 -378 -1674 -492
-2345 -539 -156 -11 -759 -12 -930 -1 -85 5 -47 7 195 13 806 19 1366 119
2143 383 211 71 618 220 817 298 1402 551 2083 773 2840 925 381 77 642 110
1150 146 133 10 874 -4 1045 -18z m-23193 -1486 c24 -10 61 -34 84 -52 41 -33
109 -117 109 -135 0 -8 -156 -101 -282 -170 -5 -2 -8 82 -8 186 l0 191 28 0
c15 0 46 -9 69 -20z"/>
<path d="M13758 25970 c-78 -23 -128 -95 -128 -182 0 -104 68 -179 170 -186
107 -8 186 54 205 159 24 134 -113 250 -247 209z"/>
<path d="M13967 25096 c-77 -28 -120 -94 -119 -182 1 -108 78 -184 187 -184
75 0 137 37 171 102 20 39 18 136 -5 178 -41 78 -149 118 -234 86z"/>
<path d="M21855 21005 c-232 -94 -281 -116 -283 -134 -2 -14 68 -117 227 -335
127 -173 231 -316 231 -319 0 -3 -11 -8 -25 -11 -41 -10 -101 -72 -125 -128
-18 -41 -21 -65 -18 -121 4 -65 6 -71 41 -103 32 -29 44 -34 87 -34 61 0 96
17 140 66 59 67 82 160 58 229 -8 22 -94 148 -191 280 -97 131 -174 242 -169
246 16 15 476 188 482 181 4 -4 44 -59 90 -122 46 -63 108 -147 137 -187 l53
-71 -46 -23 c-137 -66 -177 -296 -64 -363 77 -45 190 3 242 103 34 66 39 168
10 213 -9 15 -136 189 -282 387 -229 312 -268 361 -290 360 -14 0 -151 -52
-305 -114z m351 -41 l22 -29 -244 -96 -244 -96 -26 34 c-14 19 -24 36 -23 37
11 9 476 185 483 183 5 -2 19 -16 32 -33z"/>
<path d="M21364 17610 c-12 -4 -24 -16 -28 -26 -4 -11 102 -269 305 -743 171
-399 313 -731 316 -737 2 -7 -12 -13 -36 -17 -61 -8 -145 -51 -200 -102 -162
-151 -187 -373 -51 -447 53 -29 157 -22 234 16 123 61 223 201 233 330 l6 64
-233 544 c-128 298 -235 550 -237 559 -4 13 7 19 47 29 151 36 392 -94 478
-258 55 -105 96 -260 108 -412 4 -44 10 -77 14 -73 12 13 30 195 30 295 0 165
-55 301 -165 412 -85 85 -168 136 -347 215 -85 37 -180 84 -211 105 -71 47
-141 125 -172 190 -31 65 -46 74 -91 56z"/>
<path d="M5040 16315 c-7 -8 -10 -25 -6 -38 3 -12 80 -198 172 -412 91 -215
168 -396 171 -402 4 -9 -7 -13 -33 -13 -67 0 -168 -71 -224 -159 -15 -23 -22
-8 -206 425 -164 385 -194 449 -213 452 -28 4 -51 -14 -51 -42 0 -27 625
-1499 638 -1504 21 -7 149 236 202 385 l36 103 69 -165 c39 -91 73 -165 77
-165 12 0 119 188 159 280 114 259 118 436 11 518 -31 23 -45 27 -106 27 -64
0 -76 -3 -119 -33 -26 -19 -65 -56 -85 -82 -20 -27 -39 -49 -42 -49 -3 -1 -91
199 -195 444 -182 430 -189 445 -216 445 -14 0 -32 -7 -39 -15z m677 -851 c61
-39 83 -134 58 -255 -17 -84 -72 -239 -85 -239 -7 0 -170 379 -170 396 0 19
68 91 102 107 34 17 57 15 95 -9z m-382 -166 c86 -68 85 -244 -3 -440 l-27
-61 -87 201 -86 202 29 40 c56 77 122 99 174 58z"/>
<path d="M22527 10573 l-484 -487 -34 39 c-48 55 -119 85 -199 85 -83 0 -129
-23 -149 -74 -39 -101 71 -213 220 -224 81 -6 130 15 164 67 12 20 89 105 171
190 114 118 150 150 152 135 2 -10 13 -57 24 -104 37 -158 22 -289 -48 -417
-18 -35 -29 -63 -24 -63 16 0 99 111 132 178 40 80 46 166 24 316 -13 85 -14
117 -5 149 13 49 48 121 55 114 3 -3 17 -54 31 -114 20 -87 24 -124 20 -193
-6 -92 -33 -182 -72 -242 -14 -21 -25 -40 -25 -43 0 -33 101 93 139 175 41 86
46 142 26 289 -19 137 -17 166 15 234 23 48 40 61 40 30 0 -10 9 -54 20 -98
37 -148 22 -277 -45 -404 -19 -36 -33 -66 -31 -68 10 -10 100 108 131 171 46
93 52 151 30 305 -19 131 -17 154 16 231 23 53 39 64 39 28 0 -13 9 -56 20
-97 38 -143 22 -286 -46 -410 -19 -35 -33 -65 -31 -68 10 -10 101 108 133 172
46 93 51 152 29 314 -17 122 -17 131 0 180 9 28 32 75 51 102 39 58 44 89 15
89 -12 0 -200 -182 -504 -487z"/>
<path d="M9885 10374 c-192 -96 -355 -180 -362 -186 -7 -6 -13 -16 -13 -24 0
-10 534 -634 648 -756 l25 -27 -28 -11 c-51 -19 -101 -68 -135 -132 -29 -54
-35 -75 -38 -148 -3 -75 -1 -90 20 -130 14 -25 40 -56 59 -68 29 -20 44 -23
100 -20 54 3 75 9 109 33 83 57 130 154 130 267 0 84 -16 123 -73 185 -137
146 -644 739 -638 745 6 7 384 188 539 258 l62 29 267 -307 c146 -169 277
-319 291 -334 l24 -26 -38 -18 c-50 -24 -98 -74 -131 -137 -24 -45 -28 -64
-28 -142 0 -106 18 -153 74 -191 42 -28 121 -33 176 -10 52 22 121 99 144 162
26 67 28 178 6 232 -9 20 -35 57 -59 82 -24 25 -200 225 -391 445 -233 268
-355 401 -369 402 -11 1 -178 -77 -371 -173z"/>
</g>
</svg>
