<?xml version="1.0" standalone="no"?>
<!DOCTYPE svg PUBLIC "-//W3C//DTD SVG 20010904//EN"
 "http://www.w3.org/TR/2001/REC-SVG-20010904/DTD/svg10.dtd">
<svg version="1.0" xmlns="http://www.w3.org/2000/svg"
 width="1566.000000pt" height="1110.000000pt" viewBox="0 0 1566.000000 1110.000000"
 preserveAspectRatio="xMidYMid meet">
<metadata>
Created by potrace 1.16, written by Peter Selinger 2001-2019
</metadata>
<g transform="translate(0.000000,1110.000000) scale(0.100000,-0.100000)"
fill="#000000" stroke="none">
<path d="M6900 11084 c-14 -10 -46 -37 -72 -63 l-48 -45 0 -81 c0 -113 16
-205 45 -269 14 -30 25 -58 25 -61 0 -4 20 -30 44 -57 l44 -51 -41 -23 c-23
-12 -62 -32 -87 -44 -69 -33 -103 -63 -166 -147 l-59 -78 -3 -98 c-4 -94 -2
-102 28 -163 35 -71 97 -138 176 -191 48 -32 58 -35 136 -36 82 -2 86 -1 139
34 30 20 83 64 117 98 l64 61 26 -20 c130 -100 163 -127 206 -163 26 -23 60
-54 74 -69 14 -16 29 -28 34 -28 4 0 41 -35 81 -77 39 -42 87 -90 105 -107 18
-17 61 -57 95 -90 60 -57 286 -246 353 -296 68 -50 168 -136 214 -182 38 -39
53 -48 81 -48 19 0 45 9 58 19 l25 19 69 -62 c38 -33 82 -72 96 -86 30 -28
188 -246 217 -300 10 -19 22 -37 25 -40 4 -3 10 -20 14 -37 3 -18 11 -33 16
-33 5 0 9 -8 9 -18 0 -10 11 -41 25 -68 23 -46 41 -101 81 -254 43 -165 30
-411 -27 -535 -5 -11 -18 -58 -29 -105 -33 -143 -27 -365 19 -616 5 -27 8 -88
7 -135 -2 -76 -6 -91 -42 -157 -79 -148 -124 -237 -124 -248 0 -13 -24 -67
-46 -104 -8 -14 -20 -37 -25 -52 -10 -26 -12 -27 -32 -13 -31 22 -96 19 -137
-6 -19 -12 -54 -40 -76 -63 -23 -22 -61 -59 -85 -81 -24 -22 -75 -92 -113
-155 -38 -63 -89 -143 -113 -177 -32 -47 -43 -72 -43 -101 0 -37 -2 -39 -72
-77 -40 -21 -114 -67 -165 -102 -51 -35 -96 -63 -101 -63 -5 0 -17 -9 -27 -20
-10 -11 -22 -20 -27 -20 -27 0 -303 -229 -363 -301 -11 -13 -39 -46 -63 -74
-61 -71 -93 -143 -118 -270 -24 -120 -18 -215 24 -375 10 -35 60 -141 72 -150
3 -3 17 -21 30 -40 56 -82 186 -225 237 -260 12 -8 57 -40 100 -70 43 -31 96
-66 118 -79 57 -33 261 -108 374 -137 131 -34 269 -83 310 -111 74 -51 131
-165 131 -265 0 -24 4 -69 9 -99 6 -30 15 -99 21 -154 19 -160 57 -331 85
-375 14 -22 25 -45 25 -52 1 -43 150 -228 251 -313 80 -67 133 -108 204 -156
44 -30 86 -59 95 -66 8 -6 35 -28 60 -47 25 -19 74 -53 110 -75 36 -22 74 -46
85 -54 20 -15 20 -15 -5 -21 -14 -2 -74 -7 -135 -11 -60 -3 -157 -10 -215 -15
-58 -5 -161 -14 -230 -19 -69 -6 -177 -18 -240 -26 -63 -8 -149 -17 -190 -21
-158 -12 -630 -87 -750 -118 -30 -8 -73 -17 -95 -21 -22 -3 -65 -14 -95 -24
-30 -11 -75 -22 -99 -25 -40 -6 -119 -33 -163 -57 -10 -5 -26 -9 -36 -9 -11 0
-32 -6 -48 -14 -93 -45 -143 -66 -155 -66 -8 0 -23 -7 -33 -15 -11 -8 -27 -15
-35 -15 -9 0 -97 -40 -196 -89 -339 -167 -500 -244 -561 -267 -95 -36 -174
-77 -174 -91 0 -7 -15 -21 -34 -30 -19 -10 -82 -51 -140 -91 -57 -39 -108 -72
-112 -72 -5 0 -22 -13 -39 -29 -97 -95 -341 -179 -484 -167 -67 5 -77 9 -124
48 -92 77 -99 83 -118 110 l-19 27 28 44 c22 36 27 54 26 96 -3 58 -14 75
-107 174 -31 32 -71 82 -91 111 -49 74 -101 118 -134 114 -21 -2 -33 5 -54 32
-14 19 -26 40 -27 45 -1 6 57 9 162 7 143 -3 165 -1 188 15 15 10 73 49 130
87 57 38 155 107 217 155 62 47 127 96 145 109 18 13 46 35 62 50 17 16 46 39
65 52 19 13 49 37 65 53 17 16 41 37 55 46 44 29 144 106 171 131 14 14 45 40
68 59 57 45 82 89 110 188 l23 82 -23 47 c-13 26 -40 65 -59 88 -40 46 -88
125 -145 236 -81 160 -131 247 -184 322 -31 42 -72 108 -91 145 -34 66 -63
119 -134 242 -19 33 -38 70 -41 83 -6 19 -47 93 -102 183 -7 11 -29 54 -50 95
-22 41 -64 118 -95 170 -30 52 -86 153 -123 224 -37 72 -84 156 -104 188 -20
31 -81 128 -136 215 -55 86 -106 170 -113 187 -7 16 -19 37 -28 46 -21 21
-125 175 -258 380 -34 52 -75 115 -91 139 -17 24 -41 62 -54 85 -13 22 -43 70
-66 106 -23 36 -54 88 -68 115 -14 28 -46 86 -72 130 -26 44 -68 118 -92 164
-55 104 -185 322 -224 376 -16 22 -58 83 -93 136 -35 53 -94 135 -129 182 -36
48 -72 97 -79 110 -11 21 -83 109 -129 157 -9 10 -27 33 -40 52 -51 73 -166
206 -204 236 -22 17 -51 39 -63 49 -13 10 -36 27 -50 39 -38 29 -160 66 -202
61 -123 -16 -149 -22 -180 -42 -19 -13 -51 -26 -70 -30 -19 -4 -57 -20 -85
-36 -27 -15 -74 -37 -102 -48 -54 -21 -85 -40 -183 -111 -30 -21 -91 -54 -135
-72 -81 -32 -138 -61 -210 -106 -22 -14 -67 -39 -100 -55 -33 -17 -82 -45
-110 -62 -27 -18 -81 -52 -120 -77 -95 -61 -169 -104 -305 -177 -142 -77 -134
-71 -253 -156 -54 -38 -112 -79 -130 -90 -18 -11 -61 -40 -96 -65 -88 -62
-112 -78 -141 -92 -50 -25 -136 -87 -185 -136 -28 -27 -70 -61 -95 -77 -24
-15 -58 -42 -75 -59 -54 -54 -155 -173 -155 -182 0 -5 -24 -41 -53 -80 -118
-157 -161 -316 -124 -460 7 -27 35 -85 62 -128 105 -164 123 -194 177 -296 70
-133 131 -247 203 -380 31 -58 95 -179 142 -270 46 -91 116 -217 155 -280 39
-63 103 -178 143 -255 104 -202 132 -253 263 -475 126 -216 215 -371 235 -410
10 -19 26 -49 36 -66 10 -16 22 -41 26 -55 4 -13 18 -37 30 -54 13 -16 49 -82
80 -145 31 -63 61 -120 66 -126 11 -13 119 -231 119 -239 0 -10 58 -132 166
-351 57 -115 104 -213 104 -217 0 -4 27 -50 60 -103 33 -52 67 -108 75 -124 8
-15 20 -34 27 -42 7 -7 19 -24 26 -38 7 -14 40 -61 72 -105 33 -44 60 -84 60
-88 0 -4 17 -34 38 -66 36 -54 66 -109 123 -225 13 -26 34 -55 46 -63 13 -9
23 -20 23 -27 0 -27 123 -155 173 -180 18 -9 52 -27 77 -41 67 -38 181 -35
413 10 181 36 298 71 349 107 14 10 29 18 32 18 3 0 60 32 127 70 68 39 127
70 132 70 20 0 171 81 255 138 49 33 111 72 138 85 70 36 167 107 199 146 21
24 32 53 41 109 8 42 20 83 29 91 8 8 16 13 17 10 2 -2 13 -19 26 -37 21 -29
21 -34 7 -48 -18 -19 -18 -21 -3 -79 8 -29 31 -68 61 -103 27 -31 60 -79 73
-105 14 -26 39 -64 58 -85 18 -20 45 -54 60 -74 25 -34 33 -38 72 -38 24 0 60
8 80 17 l36 18 20 -29 c42 -56 102 -111 188 -168 107 -71 248 -76 480 -15 118
31 166 57 326 176 23 17 44 31 48 31 11 0 97 60 126 88 14 13 39 30 55 39 17
8 45 27 64 41 32 24 213 113 366 180 33 15 138 66 234 114 95 49 177 88 181
88 5 0 47 18 94 40 47 22 88 40 91 40 3 0 39 16 81 35 41 19 80 35 86 35 5 0
42 11 81 24 40 14 106 34 147 45 41 10 88 24 103 30 15 6 51 15 80 20 29 6 88
18 132 29 44 11 134 27 200 36 66 10 136 21 155 26 19 5 73 12 120 15 47 4
126 13 175 21 50 8 182 23 295 34 113 11 241 24 285 29 90 11 278 26 530 42
94 6 172 12 175 12 6 2 53 -26 150 -88 36 -23 85 -50 110 -60 25 -10 52 -24
60 -31 31 -24 216 -108 323 -146 317 -112 313 -111 452 -166 56 -23 192 -86
215 -101 8 -5 40 -22 70 -36 30 -14 66 -32 80 -40 123 -67 401 -178 512 -204
46 -11 108 -27 138 -34 30 -8 84 -20 120 -26 36 -6 110 -19 165 -28 84 -15
159 -18 460 -18 226 1 390 5 440 13 44 7 134 19 200 27 187 24 460 83 513 111
15 8 34 14 42 14 15 1 101 42 190 91 68 37 156 127 190 193 24 47 30 72 30
121 0 73 -12 112 -56 180 -42 65 -74 97 -159 157 -158 111 -317 164 -570 189
-159 15 -515 -5 -637 -36 -32 -8 -97 -17 -145 -20 -49 -4 -99 -10 -113 -15
-59 -21 -261 -42 -460 -47 -221 -6 -387 5 -525 33 -38 8 -95 17 -125 20 -30 3
-101 14 -156 24 -129 24 -350 60 -434 71 -36 4 -105 13 -155 20 -58 8 -234 13
-490 14 l-400 1 -220 149 c-121 82 -252 174 -292 204 -39 31 -90 67 -112 81
-57 36 -192 161 -239 222 -44 57 -124 203 -116 211 3 3 -4 35 -15 71 -11 37
-23 88 -27 114 -3 26 -8 49 -9 52 -2 3 -11 84 -20 180 -17 177 -47 311 -82
367 -21 34 -85 99 -133 134 -71 53 -140 81 -290 119 -148 37 -205 53 -215 62
-5 4 -16 8 -25 8 -8 0 -57 20 -108 45 -51 25 -95 45 -98 45 -11 0 -116 79
-186 141 -70 61 -124 122 -177 199 -14 19 -28 37 -33 38 -4 2 -8 8 -8 14 0 5
-6 24 -14 41 -44 98 -62 229 -45 325 27 153 103 261 299 423 58 49 315 227
387 269 23 14 72 42 109 63 l66 39 26 -25 c62 -57 93 -60 170 -12 55 33 230
105 257 105 7 0 26 6 42 14 15 8 44 21 63 30 19 9 51 25 70 36 80 43 207 97
248 105 40 7 77 38 80 69 3 19 -7 37 -37 69 -41 42 -49 57 -32 57 5 0 40 19
77 42 38 23 143 80 234 126 91 47 176 92 190 102 14 9 59 34 100 54 41 20 95
50 120 66 25 16 55 34 68 40 13 5 42 22 65 38 61 39 78 50 118 71 19 11 54 35
76 53 49 40 114 88 209 153 16 11 63 47 104 80 42 33 91 71 110 85 19 13 73
56 120 95 47 39 99 79 115 89 35 21 138 98 145 108 14 19 320 223 359 240 91
39 152 47 231 32 39 -7 74 -15 79 -18 45 -28 384 -24 621 8 102 13 217 27 255
31 104 9 372 44 388 51 8 3 25 -9 40 -29 42 -56 68 -61 178 -37 52 12 130 25
174 30 157 17 247 31 288 44 23 8 83 17 132 20 50 4 119 12 155 18 36 5 72 10
80 10 8 0 81 8 162 19 172 23 325 53 365 73 41 20 121 44 176 51 36 6 47 4 48
-6 3 -66 12 -90 74 -194 10 -17 40 -46 68 -65 49 -34 54 -35 140 -35 l89 0 45
49 c72 80 77 94 75 232 -2 104 -7 135 -32 213 -16 51 -32 109 -36 129 -4 20
-11 43 -16 49 -16 20 -2 40 31 48 16 3 40 14 53 24 13 10 59 37 103 61 91 50
190 138 211 189 9 21 14 69 14 130 0 89 -2 98 -25 123 -87 94 -352 179 -509
162 -272 -28 -491 -104 -676 -233 -120 -85 -162 -133 -178 -207 -15 -70 -4
-147 29 -201 43 -69 161 -136 268 -152 l44 -6 -99 -27 c-58 -16 -135 -29 -186
-32 -48 -3 -113 -11 -145 -19 -32 -9 -137 -25 -233 -37 -96 -12 -197 -26 -225
-31 -69 -13 -190 -28 -315 -39 -184 -16 -274 -28 -300 -38 -14 -5 -38 -8 -55
-5 -33 4 -91 -26 -102 -54 -3 -9 -1 -29 4 -44 8 -22 8 -29 0 -29 -37 -1 -408
-39 -414 -43 -5 -3 -51 -8 -103 -12 -52 -4 -122 -11 -155 -16 -102 -16 -345
-22 -410 -10 -195 36 -240 40 -310 30 -38 -5 -85 -14 -103 -20 -46 -15 -138
-65 -197 -108 -27 -20 -75 -52 -105 -71 -30 -19 -57 -37 -60 -40 -3 -3 -23
-19 -45 -35 -22 -17 -42 -33 -45 -37 -9 -12 -73 -56 -107 -73 -17 -9 -57 -40
-90 -68 -55 -50 -161 -133 -328 -257 -40 -30 -119 -90 -174 -132 -56 -43 -104
-78 -107 -78 -3 0 -51 -30 -107 -68 -56 -37 -131 -82 -167 -101 -36 -19 -76
-42 -90 -51 -14 -9 -54 -33 -90 -52 -36 -20 -85 -47 -110 -61 -25 -13 -56 -28
-70 -32 -14 -4 -43 -19 -65 -33 -22 -15 -74 -44 -116 -67 -42 -22 -95 -50
-119 -63 -23 -13 -39 -19 -36 -14 3 6 -17 1 -45 -9 -54 -21 -150 -22 -170 -2
-11 11 -6 23 63 168 21 45 38 87 38 95 0 7 6 21 13 29 8 9 20 32 27 51 7 19
17 40 21 46 5 6 29 51 53 100 44 88 71 202 62 264 -12 88 -19 133 -32 197 -9
47 -14 139 -14 267 0 182 2 199 25 268 14 40 28 80 29 88 2 8 12 41 21 74 22
76 23 349 1 446 -28 129 -67 260 -85 292 -10 18 -29 65 -42 103 -13 39 -31 82
-41 97 -10 14 -18 30 -18 35 -1 4 -23 40 -50 78 -27 39 -69 99 -94 135 -48 71
-160 190 -244 259 l-53 44 21 22 c19 20 40 74 40 102 0 12 -141 134 -237 204
-32 24 -128 108 -213 189 -85 80 -167 155 -181 166 -210 157 -343 262 -384
301 -27 26 -61 55 -74 64 -24 15 -22 16 60 22 71 5 97 12 156 42 85 43 154
101 177 149 9 20 16 59 16 95 0 54 -5 69 -48 144 -27 47 -59 95 -72 108 -12
13 -33 42 -47 63 -14 22 -53 69 -87 106 -33 36 -77 84 -96 107 -75 87 -223
179 -375 232 -52 18 -82 21 -245 21 -156 0 -190 -3 -210 -16z m305 -105 c124
-23 310 -114 411 -201 34 -29 82 -70 107 -90 62 -51 161 -192 197 -279 34 -82
37 -104 13 -113 -21 -9 -26 -3 -55 69 -40 99 -112 198 -207 285 -125 115 -176
151 -294 209 -106 52 -174 71 -256 71 -54 0 -87 19 -78 44 8 19 73 22 162 5z
m-414 -939 c101 -66 159 -180 112 -216 -77 -58 -222 57 -235 186 -2 28 1 37
22 47 37 19 52 16 101 -17z m8623 -1719 c47 -15 97 -36 111 -45 50 -33 19 -70
-39 -47 -148 61 -163 63 -326 58 -184 -6 -319 -28 -416 -68 -87 -36 -219 -117
-258 -158 -37 -39 -76 -42 -76 -7 0 34 58 81 188 154 160 90 191 100 417 131
33 5 117 9 187 10 115 1 135 -2 212 -28z m-194 -1029 c38 -33 34 -50 -21 -88
-28 -19 -57 -29 -93 -32 -52 -4 -53 -3 -75 32 -27 44 -21 69 22 89 75 35 128
35 167 -1z m-12247 -417 c26 -8 54 -20 61 -27 8 -7 39 -35 70 -62 32 -27 85
-85 118 -130 34 -44 94 -119 133 -166 39 -47 97 -121 128 -165 31 -44 78 -109
104 -145 27 -35 62 -87 80 -115 17 -27 45 -68 61 -90 27 -36 135 -212 187
-305 31 -54 84 -153 92 -170 3 -8 19 -33 33 -55 15 -22 44 -74 65 -115 20 -41
47 -88 59 -105 13 -16 42 -64 66 -105 23 -41 49 -82 56 -91 8 -8 24 -33 36
-55 13 -22 45 -74 72 -115 26 -40 64 -99 84 -129 20 -30 59 -86 87 -125 42
-58 219 -333 300 -469 23 -37 49 -78 78 -120 10 -15 45 -78 77 -140 75 -146
114 -218 144 -264 13 -21 45 -78 70 -127 26 -50 65 -119 87 -155 22 -36 47
-81 55 -100 9 -19 23 -51 32 -70 9 -19 31 -59 49 -88 19 -30 59 -102 89 -160
31 -59 82 -144 113 -190 73 -107 123 -192 162 -272 17 -36 53 -104 80 -151 27
-48 49 -96 49 -108 0 -11 20 -42 46 -67 61 -62 57 -87 -29 -169 -65 -63 -158
-135 -174 -135 -5 0 -29 -21 -53 -46 -25 -25 -70 -63 -100 -84 -30 -21 -81
-61 -113 -88 -31 -28 -87 -72 -125 -99 -37 -26 -95 -69 -130 -95 -34 -26 -95
-66 -134 -90 l-73 -43 -153 3 c-147 2 -154 1 -204 -24 -51 -26 -119 -78 -182
-139 -17 -17 -62 -53 -101 -80 -38 -27 -74 -56 -80 -64 -5 -9 -15 -49 -22 -89
-7 -40 -18 -82 -23 -93 -6 -10 -52 -43 -103 -73 -50 -30 -114 -71 -142 -90
-27 -20 -54 -36 -59 -36 -5 0 -17 -6 -25 -14 -9 -8 -104 -59 -211 -113 -107
-55 -214 -111 -237 -126 -72 -46 -164 -74 -342 -106 -212 -38 -257 -39 -319
-6 -56 31 -102 81 -102 111 0 20 -52 84 -68 84 -4 0 -13 15 -21 33 -8 17 -41
77 -74 132 -33 55 -70 117 -81 137 -12 21 -55 86 -97 145 -41 60 -79 115 -83
123 -11 23 -27 49 -77 125 -26 39 -50 80 -54 93 -3 12 -58 125 -121 249 -63
125 -114 231 -114 235 0 5 -23 56 -50 113 -28 58 -55 115 -60 127 -5 13 -25
50 -44 83 -19 33 -52 94 -73 135 -20 41 -50 98 -67 125 -16 28 -56 102 -89
165 -32 63 -65 122 -72 130 -7 8 -29 49 -50 90 -20 41 -42 82 -50 90 -13 15
-103 168 -158 270 -16 30 -35 62 -42 70 -6 8 -22 35 -34 60 -34 67 -78 151
-101 190 -11 19 -20 42 -20 51 0 9 -7 22 -15 29 -8 7 -15 17 -15 22 0 5 -11
24 -25 42 -14 18 -25 35 -25 39 0 3 -27 51 -61 108 -33 56 -64 112 -69 124 -5
12 -24 46 -43 76 -19 30 -38 65 -42 79 -4 14 -13 34 -20 45 -6 11 -38 70 -70
130 -32 61 -66 124 -76 140 -10 17 -33 59 -51 95 -117 225 -166 314 -211 388
-57 91 -111 185 -127 220 -30 68 21 211 116 328 19 23 34 44 34 48 0 9 57 83
90 116 14 14 54 48 90 76 36 28 81 66 100 84 36 34 69 57 175 125 62 40 133
86 230 152 28 18 79 55 115 81 76 56 272 173 380 226 41 21 114 64 161 96 90
61 101 68 234 140 44 24 96 56 116 70 35 25 74 43 199 95 36 15 102 52 148 83
46 31 89 60 95 65 44 27 251 118 292 127 27 6 55 16 62 22 7 6 28 14 46 18 17
4 32 8 32 9 0 0 22 -6 48 -14z m7922 -5485 c190 -20 263 -31 470 -70 470 -87
720 -110 985 -91 166 12 352 34 445 51 519 97 828 101 1083 14 111 -38 139
-52 212 -105 86 -63 122 -110 128 -166 6 -61 -2 -84 -44 -127 -34 -35 -134
-106 -150 -106 -3 0 -20 -6 -37 -14 -67 -30 -223 -76 -322 -96 -33 -6 -76 -15
-95 -20 -263 -66 -986 -85 -1289 -34 -47 8 -111 19 -141 23 -30 5 -71 16 -90
24 -19 8 -64 22 -100 31 -159 42 -214 62 -385 146 -409 199 -513 248 -540 254
-16 4 -52 15 -80 26 -27 10 -95 35 -150 56 -55 20 -118 45 -140 55 -22 9 -67
25 -100 34 -48 14 -256 114 -274 131 -14 13 446 1 614 -16z"/>
<path d="M2040 6261 c-72 -28 -190 -100 -252 -153 -32 -27 -117 -85 -190 -129
-151 -92 -265 -166 -273 -179 -3 -5 -25 -19 -50 -31 -24 -12 -61 -39 -81 -60
-21 -22 -46 -39 -55 -39 -21 0 -32 -26 -29 -69 3 -48 13 -71 49 -107 45 -46
72 -49 136 -19 30 14 56 29 60 34 3 5 22 15 43 22 20 6 57 25 81 42 24 17 82
50 128 73 46 24 98 55 117 69 18 14 36 25 40 25 12 0 174 109 283 189 56 42
113 84 127 94 14 10 37 38 52 62 33 58 27 100 -23 156 -30 34 -41 39 -77 39
-22 -1 -61 -9 -86 -19z m-69 -188 c1 -27 3 -57 4 -69 1 -14 -13 -31 -49 -58
l-51 -38 -3 64 c-2 34 -7 67 -12 72 -9 9 29 46 48 46 5 0 15 7 22 15 25 30 40
17 41 -32z"/>
<path d="M2805 5959 c-127 -52 -321 -145 -361 -175 -16 -12 -84 -50 -150 -85
-115 -61 -189 -105 -216 -132 -7 -7 -58 -44 -113 -82 -55 -38 -105 -74 -111
-80 -79 -73 -181 -141 -329 -220 -175 -93 -206 -114 -381 -258 -9 -6 -27 -25
-42 -41 -15 -16 -46 -50 -70 -75 -99 -106 -104 -167 -26 -296 20 -33 65 -116
101 -185 36 -69 90 -172 121 -230 47 -90 133 -254 177 -340 7 -14 23 -47 35
-75 50 -113 94 -202 114 -230 11 -16 78 -144 148 -283 70 -140 136 -266 148
-280 30 -39 118 -190 126 -216 9 -30 52 -73 79 -80 30 -8 70 8 104 40 15 14
36 31 48 37 11 7 54 34 94 61 41 27 120 78 177 115 57 36 120 80 140 98 20 18
73 52 117 78 96 55 89 50 246 152 70 46 135 86 145 89 11 4 39 23 64 43 66 53
180 136 215 155 40 22 72 44 128 86 26 19 75 46 109 59 64 25 127 64 231 146
54 43 198 115 229 115 7 0 29 13 48 29 19 15 54 38 78 50 50 25 60 46 57 118
-2 46 -9 62 -61 135 -33 46 -73 103 -89 128 -15 25 -70 99 -120 165 -80 105
-167 232 -280 410 -17 28 -43 69 -58 92 -15 24 -27 45 -27 48 0 3 -16 31 -35
61 -19 30 -35 56 -35 59 0 6 -62 109 -70 115 -3 3 -27 43 -54 90 -26 47 -52
92 -57 100 -5 8 -15 26 -21 40 -16 32 -73 113 -119 170 -20 25 -44 59 -52 75
-16 31 -176 198 -212 220 -46 29 -86 25 -190 -16z m171 -232 c74 -79 177 -222
237 -328 29 -52 80 -137 111 -189 32 -52 95 -158 141 -236 126 -216 306 -489
395 -599 55 -69 210 -288 210 -298 0 -2 -15 -10 -32 -17 -108 -40 -187 -77
-217 -99 -19 -14 -52 -41 -75 -58 -70 -55 -139 -98 -188 -117 -26 -9 -75 -36
-109 -59 -35 -23 -77 -50 -93 -61 -17 -10 -92 -62 -166 -115 -74 -53 -171
-119 -215 -147 -44 -28 -132 -84 -195 -124 -63 -40 -133 -82 -155 -93 -21 -11
-75 -47 -120 -81 -44 -33 -109 -79 -145 -101 -35 -22 -106 -68 -157 -101 l-93
-62 -32 57 c-18 31 -47 77 -65 102 -18 26 -64 111 -102 190 -38 79 -93 189
-123 244 -84 154 -100 184 -214 420 -59 121 -125 249 -146 284 -21 34 -38 66
-38 70 0 3 -10 24 -21 46 -12 22 -54 101 -94 175 -40 74 -84 155 -98 180 l-26
46 72 74 c104 107 229 196 392 281 111 58 197 112 294 188 262 202 361 269
501 341 47 24 103 55 125 70 44 29 244 130 260 130 6 1 28 9 50 20 61 30 77
26 131 -33z"/>
<path d="M2855 5660 c-37 -8 -104 -34 -202 -81 -22 -11 -58 -35 -78 -54 -20
-19 -43 -35 -52 -35 -8 0 -34 -19 -57 -41 -22 -23 -53 -46 -68 -51 -16 -6 -31
-21 -37 -40 -10 -27 -7 -37 16 -77 14 -25 35 -62 45 -82 10 -20 30 -47 43 -59
22 -21 26 -22 42 -8 10 8 25 18 33 22 17 7 78 47 145 94 25 17 49 32 53 32 5
0 39 20 76 45 38 25 72 45 75 45 3 0 18 6 33 14 14 8 43 19 65 26 46 15 63 28
63 47 0 30 -131 215 -149 212 -3 -1 -24 -5 -46 -9z m-226 -300 l63 -17 -38
-24 c-22 -13 -48 -31 -58 -41 -11 -10 -25 -18 -30 -18 -6 0 -22 -9 -35 -19
l-24 -18 -34 50 -34 51 23 21 c36 33 61 45 83 38 11 -3 49 -14 84 -23z"/>
<path d="M1857 5015 c-15 -14 -28 -31 -28 -38 -5 -51 26 -86 74 -87 34 0 77
40 77 71 0 29 -47 79 -74 79 -12 0 -34 -11 -49 -25z"/>
<path d="M1706 4921 c-24 -25 -27 -34 -21 -63 9 -42 42 -78 71 -78 28 0 74 53
74 87 0 29 -50 83 -77 83 -11 0 -32 -13 -47 -29z"/>
<path d="M1411 4742 c-51 -25 -61 -47 -35 -73 18 -17 25 -19 43 -10 19 11 21
9 21 -22 0 -67 49 -71 117 -12 32 28 36 36 27 52 -6 10 -22 19 -36 21 -14 2
-38 16 -54 33 -32 34 -38 35 -83 11z"/>
<path d="M3550 4208 c-11 -18 -18 -42 -15 -53 2 -11 5 -26 5 -33 0 -7 11 -18
25 -24 15 -7 25 -19 25 -33 0 -46 41 -58 83 -25 22 17 25 27 21 53 -6 34 -49
81 -65 72 -5 -4 -6 7 -2 26 11 56 -45 69 -77 17z"/>
<path d="M3390 4130 c-27 -15 -90 -78 -90 -90 0 -22 84 -150 102 -156 24 -7
48 12 48 38 0 11 -13 38 -29 62 -24 35 -27 44 -16 59 19 27 31 21 66 -32 38
-59 56 -68 82 -43 17 17 17 22 4 53 -8 19 -33 53 -57 77 -43 42 -76 52 -110
32z"/>
<path d="M3224 3986 c-3 -14 -3 -30 1 -36 9 -15 26 -74 18 -67 -3 4 -11 17
-17 29 -24 48 -85 25 -72 -27 8 -33 63 -94 91 -101 59 -15 91 39 75 124 -16
85 -81 138 -96 78z"/>
<path d="M2939 3822 c-34 -35 -39 -45 -39 -85 0 -25 5 -58 12 -72 14 -30 55
-55 92 -55 29 0 106 63 106 86 0 12 4 12 20 2 15 -10 25 -10 38 -2 27 17 25
45 -8 97 -35 56 -50 57 -117 11 -53 -35 -61 -53 -35 -74 16 -13 18 -20 9 -29
-37 -37 -53 36 -17 82 26 32 25 53 -1 67 -17 10 -26 6 -60 -28z"/>
<path d="M2550 3550 c-24 -24 -25 -34 -4 -55 11 -10 25 -14 40 -11 19 5 22 3
17 -11 -3 -10 -13 -26 -22 -36 -11 -14 -12 -22 -5 -35 15 -23 72 -28 80 -8 3
9 28 31 55 51 30 21 49 43 49 55 0 25 -34 44 -57 31 -13 -7 -23 -3 -40 15 -28
31 -84 33 -113 4z"/>
<path d="M2180 3396 c-46 -9 -59 -17 -87 -54 -36 -48 -40 -77 -22 -161 8 -38
20 -58 50 -85 43 -40 46 -41 121 -25 102 21 153 84 146 175 -7 77 -57 137
-133 157 -11 3 -45 0 -75 -7z"/>
<path d="M5012 3244 c-24 -7 -57 -25 -75 -40 -67 -55 -141 -120 -174 -153 -35
-35 -35 -35 -29 -100 4 -37 15 -77 24 -90 9 -13 22 -33 29 -44 17 -30 61 -90
131 -178 116 -146 184 -153 346 -38 94 67 136 117 136 161 0 36 -25 131 -44
165 -8 16 -29 57 -47 93 -89 180 -189 255 -297 224z m94 -269 c17 -33 40 -76
51 -95 38 -68 38 -86 -4 -115 -21 -14 -43 -25 -50 -25 -7 0 -28 21 -47 48 -20
26 -49 65 -65 87 -48 65 -48 69 4 120 26 25 54 45 63 43 9 -2 30 -30 48 -63z"/>
<path d="M3759 2951 c-114 -24 -191 -62 -246 -121 -28 -30 -55 -50 -75 -54
-37 -7 -78 -42 -78 -66 0 -9 -9 -25 -21 -36 -37 -33 -104 -137 -152 -234 -51
-103 -77 -205 -77 -301 0 -60 29 -252 52 -339 24 -94 135 -278 194 -320 19
-14 56 -41 82 -60 116 -87 225 -143 322 -164 187 -41 349 -19 524 70 121 62
185 111 296 227 111 116 115 123 189 317 51 134 64 286 36 422 -20 96 -34 130
-88 210 -97 144 -174 225 -264 277 -32 19 -74 44 -93 57 -67 42 -128 72 -201
99 -99 36 -272 43 -400 16z m343 -212 c90 -33 242 -119 309 -175 l41 -34 -33
-14 c-19 -8 -63 -34 -99 -59 -36 -24 -75 -47 -87 -51 -34 -11 -73 -63 -73 -98
0 -21 10 -40 35 -65 32 -32 39 -35 80 -31 32 4 66 20 118 55 40 28 97 62 125
76 l52 26 11 -21 c18 -33 39 -148 39 -208 -1 -79 -26 -188 -59 -254 -11 -23
-29 -61 -40 -86 -18 -41 -162 -197 -217 -234 -63 -43 -189 -99 -249 -112 -134
-29 -283 -11 -378 46 -18 11 -47 27 -64 36 -18 9 -33 19 -33 23 0 4 -13 15
-30 24 -16 10 -30 22 -30 27 0 4 22 22 49 39 26 17 56 40 66 51 9 10 39 26 65
35 63 21 91 53 97 109 11 97 -89 157 -157 94 -12 -11 -36 -24 -53 -29 -18 -5
-47 -23 -65 -40 -18 -17 -55 -46 -82 -64 l-48 -32 -20 36 c-26 48 -66 308 -58
376 9 66 34 141 63 187 12 21 23 41 23 44 0 19 74 115 103 133 18 11 63 51 99
89 72 74 109 95 208 116 113 24 197 20 292 -15z"/>
<path d="M3635 2527 c-45 -45 -46 -83 -5 -144 17 -24 30 -46 30 -49 0 -17 56
-74 81 -83 59 -20 129 30 129 92 0 26 -56 133 -97 185 -12 15 -33 25 -60 29
-39 5 -46 2 -78 -30z"/>
<path d="M4042 2005 c-21 -9 -38 -27 -48 -50 -17 -41 -11 -69 19 -102 20 -23
20 -23 0 -23 -25 0 -58 -36 -67 -72 -10 -44 17 -96 60 -114 32 -14 41 -13 85
1 44 15 51 15 71 1 62 -44 158 7 158 84 0 20 -5 41 -11 47 -9 9 -6 19 10 39
13 17 21 41 21 66 0 73 -78 121 -141 88 -16 -9 -24 -6 -42 14 -28 31 -73 39
-115 21z"/>
<path d="M2655 1660 c-49 -19 -139 -82 -175 -123 -38 -42 -52 -86 -53 -157 0
-40 141 -276 204 -341 62 -65 94 -78 136 -57 210 106 272 155 290 225 11 46
-2 105 -34 150 -13 17 -23 34 -23 37 0 9 -72 108 -129 178 -68 85 -143 115
-216 88z m74 -229 c34 -34 122 -174 114 -182 -5 -4 -26 -16 -48 -28 l-40 -21
-17 22 c-9 13 -23 34 -30 48 -7 14 -15 27 -18 30 -13 12 -50 82 -50 95 0 17
39 55 57 55 7 0 22 -9 32 -19z"/>
<path d="M11917 11003 c-16 -19 -44 -34 -139 -77 -49 -22 -71 -26 -175 -27
-88 -2 -130 2 -166 14 -71 25 -140 22 -196 -9 -85 -46 -104 -125 -42 -176 25
-20 39 -43 85 -138 7 -14 17 -34 23 -45 6 -11 27 -55 47 -97 20 -43 42 -80 47
-84 6 -3 18 -23 28 -43 9 -20 24 -47 34 -61 9 -14 34 -50 54 -80 20 -30 39
-57 43 -60 3 -3 19 -23 35 -45 15 -22 55 -65 88 -96 58 -56 59 -57 41 -77 -33
-35 -114 -158 -114 -173 0 -5 -4 -17 -9 -27 -29 -56 -36 -114 -35 -302 0 -158
3 -202 16 -230 51 -109 171 -149 290 -97 56 25 113 74 123 107 4 11 10 20 14
20 10 0 53 88 61 125 1 2 10 28 21 57 30 83 27 301 -5 397 -25 73 -90 174
-147 227 -92 86 -252 274 -263 310 -3 11 -15 30 -26 42 -11 12 -31 41 -43 64
-34 64 -50 90 -69 117 -10 13 -18 32 -18 42 0 11 -4 19 -10 19 -5 0 -10 7 -10
15 0 8 -9 30 -19 48 l-19 35 36 -9 c54 -12 270 5 317 26 160 69 258 137 271
189 8 34 -2 72 -26 96 -27 27 -119 28 -143 3z"/>
<path d="M2690 10480 c-19 -5 -114 -14 -210 -20 -283 -19 -378 -28 -500 -46
-63 -9 -141 -16 -173 -15 -69 2 -111 -14 -127 -47 -6 -15 -10 -88 -9 -188 0
-90 -2 -167 -4 -171 -3 -4 -7 -31 -10 -58 -3 -28 -10 -62 -15 -75 -5 -14 -13
-50 -18 -80 -9 -64 -8 -59 -16 -85 -4 -11 -9 -46 -13 -77 -6 -50 -9 -58 -27
-58 -38 0 -228 -103 -251 -135 -12 -16 -25 -31 -29 -33 -4 -2 -8 -10 -8 -17 0
-7 -6 -15 -12 -17 -9 -3 -14 -41 -16 -130 -4 -123 -3 -126 24 -167 38 -58 68
-71 162 -71 73 0 82 2 123 32 24 17 52 42 62 55 10 13 24 29 31 36 7 7 21 30
31 52 9 22 25 58 35 80 10 22 24 58 30 80 7 22 21 48 31 58 26 25 34 64 20
102 -11 32 -6 97 19 205 6 25 13 61 16 80 3 19 9 44 14 55 12 28 19 91 26 238
4 70 9 127 13 127 3 0 51 8 106 16 98 15 181 23 440 43 72 6 173 15 225 21
173 20 310 24 311 9 5 -108 -8 -173 -51 -259 -10 -19 -25 -69 -35 -110 -9 -41
-23 -95 -31 -120 -8 -25 -14 -54 -14 -65 0 -11 -9 -51 -21 -90 -11 -38 -23
-81 -27 -94 -5 -18 -19 -27 -59 -37 -56 -14 -169 -79 -222 -128 -102 -92 -149
-144 -157 -171 -4 -16 -8 -70 -7 -120 0 -127 23 -173 107 -220 43 -24 57 -27
120 -23 55 3 87 12 142 38 78 39 119 87 143 170 7 25 21 64 32 88 10 23 19 51
19 61 0 10 10 40 22 67 11 27 29 83 39 124 9 41 27 111 39 155 23 87 40 160
43 188 1 9 4 17 7 17 3 0 7 12 8 28 3 39 30 128 58 192 48 112 56 152 52 272
-3 107 -5 115 -33 156 -18 25 -49 53 -77 68 -44 22 -57 24 -195 23 -81 -1
-164 -5 -183 -9z"/>
<path d="M13789 5175 c-35 -19 -53 -64 -44 -113 5 -29 0 -52 -18 -93 -34 -77
-40 -108 -51 -257 -4 -52 -11 -103 -16 -115 -14 -36 -46 -146 -70 -243 l-23
-91 -116 -37 c-64 -20 -121 -36 -128 -36 -37 0 -160 -89 -207 -151 -54 -72
-65 -144 -44 -284 14 -88 28 -115 72 -146 20 -13 36 -27 36 -31 0 -5 45 -8
100 -8 55 0 100 4 100 8 0 5 23 20 51 35 50 25 159 137 159 163 0 6 7 17 15
24 17 14 45 67 45 86 0 7 5 14 11 16 6 2 13 17 14 32 2 16 8 32 13 35 7 5 22
46 23 66 0 2 6 20 15 40 8 19 12 35 9 35 -3 0 1 10 10 23 8 13 13 26 10 28 -2
3 4 30 15 60 11 29 20 63 20 74 0 12 8 48 19 81 56 176 56 175 80 379 5 39 19
97 32 130 32 83 34 230 4 261 -43 45 -89 55 -136 29z"/>
</g>
</svg>
