<?xml version="1.0" standalone="no"?>
<!DOCTYPE svg PUBLIC "-//W3C//DTD SVG 20010904//EN"
 "http://www.w3.org/TR/2001/REC-SVG-20010904/DTD/svg10.dtd">
<svg version="1.0" xmlns="http://www.w3.org/2000/svg"
 width="2432.000000pt" height="2832.000000pt" viewBox="0 0 2432.000000 2832.000000"
 preserveAspectRatio="xMidYMid meet">
<metadata>
Created by potrace 1.16, written by Peter Selinger 2001-2019
</metadata>
<g transform="translate(0.000000,2832.000000) scale(0.100000,-0.100000)"
fill="#000000" stroke="none">
<path d="M11325 26854 c-710 -54 -1429 -313 -2070 -746 -518 -350 -1001 -825
-1386 -1363 -47 -66 -110 -158 -139 -205 -29 -47 -90 -132 -135 -190 -225
-291 -383 -546 -560 -905 -223 -452 -375 -871 -515 -1420 -180 -701 -278
-1409 -326 -2345 -26 -507 -13 -1235 31 -1775 8 -99 15 -193 15 -210 0 -29 -6
-33 -162 -110 -238 -117 -421 -244 -513 -354 -59 -72 -86 -135 -92 -215 -15
-202 125 -1067 343 -2120 l56 -270 217 -243 216 -243 309 0 310 0 -45 -37
c-85 -70 -336 -329 -411 -423 -206 -259 -347 -515 -462 -840 l-52 -145 -244
-355 c-260 -379 -318 -481 -383 -680 -74 -223 -116 -475 -120 -722 -2 -135 -3
-146 -15 -116 -88 220 -211 458 -322 622 -166 247 -398 461 -600 555 -36 17
-105 42 -155 57 -79 24 -107 27 -230 28 -105 0 -158 -5 -210 -18 -381 -101
-670 -421 -773 -859 -23 -99 -26 -132 -26 -292 0 -147 4 -198 22 -282 91 -420
346 -783 771 -1093 274 -200 445 -343 617 -514 243 -243 358 -403 421 -586 55
-159 44 -263 -36 -353 -80 -88 -206 -131 -386 -131 -141 1 -200 13 -354 73
-140 54 -300 101 -436 128 -68 14 -137 18 -285 17 -169 0 -206 -3 -275 -22
-258 -71 -441 -246 -500 -477 -95 -372 107 -861 545 -1319 149 -156 414 -380
598 -506 22 -15 22 -15 -29 -75 -28 -33 -122 -154 -209 -270 -237 -313 -217
-294 -330 -311 -192 -27 -427 -90 -664 -176 -159 -58 -143 -58 -363 8 -126 38
-150 37 -188 -8 -33 -39 -33 -87 1 -127 14 -17 30 -31 34 -31 5 0 21 -5 37
-11 26 -10 17 -15 -172 -111 -426 -214 -736 -404 -1005 -617 -128 -101 -382
-357 -453 -457 -236 -333 -294 -661 -176 -988 80 -222 320 -467 584 -597 141
-69 298 -59 428 27 22 14 38 20 34 13 -193 -473 -268 -791 -254 -1078 8 -161
35 -270 97 -396 174 -352 551 -568 968 -554 97 4 114 7 173 36 84 41 160 121
201 210 l32 68 1 215 c2 176 6 236 24 330 58 303 175 688 319 1045 133 332
319 755 332 755 4 0 13 -19 20 -42 34 -116 122 -252 236 -364 85 -85 268 -214
366 -259 155 -71 329 -48 455 59 55 47 95 114 133 216 25 69 113 232 97 180
-2 -8 -25 -78 -50 -155 -86 -263 -153 -557 -180 -785 -11 -95 -15 -106 -37
-117 -14 -7 -86 -41 -161 -76 -173 -82 -267 -142 -349 -226 -204 -207 -236
-540 -83 -845 83 -164 243 -258 415 -242 79 7 132 26 208 74 370 235 1513 335
2231 196 274 -53 431 -111 586 -217 107 -73 167 -91 287 -85 72 3 103 10 146
31 68 33 131 85 170 143 41 59 102 214 136 349 26 99 29 126 29 275 0 129 -4
180 -19 235 -23 88 -102 255 -149 317 l-36 47 72 47 c92 59 174 122 261 198
40 35 71 56 73 49 11 -33 92 -144 147 -201 140 -147 320 -239 540 -277 261
-45 435 11 686 221 86 72 282 269 391 394 41 47 79 86 84 88 5 2 20 -30 35
-71 61 -172 197 -347 355 -456 98 -68 238 -134 345 -162 116 -31 357 -34 470
-5 154 39 297 115 485 256 54 40 214 192 395 373 l305 305 93 -59 c151 -94
245 -120 362 -99 35 6 86 23 113 36 27 14 51 24 53 22 2 -2 -12 -46 -32 -97
-54 -145 -112 -343 -145 -501 -40 -190 -51 -471 -24 -615 64 -344 322 -630
665 -739 119 -38 266 -59 383 -54 89 3 110 8 167 34 132 63 137 71 360 512
200 399 440 852 450 852 3 0 20 -27 39 -60 83 -144 212 -260 386 -345 144 -71
273 -104 430 -112 104 -4 144 -1 214 18 10 3 14 -16 18 -81 17 -334 166 -560
468 -713 163 -81 315 -110 556 -105 162 3 166 4 230 35 89 44 154 111 198 203
l36 75 2 200 c1 222 17 368 64 593 27 134 73 327 84 360 3 8 26 -10 62 -48
142 -153 349 -251 564 -267 167 -12 292 43 454 198 l50 48 60 -50 c72 -60 205
-129 298 -154 62 -17 68 -20 62 -39 -41 -124 -56 -208 -56 -321 0 -234 64
-416 210 -596 111 -137 258 -234 429 -281 66 -19 105 -22 272 -22 174 -1 204
2 280 22 189 52 365 157 520 312 208 208 358 502 424 829 12 61 25 113 28 117
4 3 36 -4 72 -16 87 -29 223 -50 321 -50 148 0 251 42 398 160 l83 67 49 -39
c172 -132 413 -198 680 -185 288 13 582 158 960 471 230 191 643 617 735 758
82 126 92 280 25 414 -75 153 -217 234 -406 234 l-77 0 -7 68 c-25 280 -103
472 -249 617 -154 153 -347 215 -576 185 -52 -7 -106 -16 -119 -21 -13 -5 -25
-8 -28 -6 -2 2 8 35 23 72 47 127 67 231 67 355 0 102 -3 124 -30 201 -16 48
-51 118 -77 157 -50 76 -178 202 -250 248 -36 23 -49 39 -71 93 -87 214 -266
426 -480 571 -379 256 -887 390 -1780 469 -126 12 -333 30 -460 41 -631 57
-871 122 -935 255 -20 42 -21 52 -11 103 23 121 122 280 300 487 346 401 530
725 582 1025 17 102 15 269 -5 354 -89 375 -461 583 -962 538 -269 -25 -559
-105 -821 -227 -51 -24 -93 -42 -93 -41 0 2 23 41 50 87 212 354 356 735 422
1115 19 110 22 166 22 374 1 223 -2 259 -27 401 -44 251 -103 416 -206 576
-28 44 -51 91 -51 104 0 89 -76 408 -137 579 -225 628 -679 1103 -1275 1335
l-97 38 -10 51 c-5 28 -11 63 -14 79 l-4 27 351 0 351 1 270 217 269 217 112
340 c182 552 315 998 399 1335 67 273 89 398 89 525 0 101 -2 116 -31 182 -77
181 -275 376 -545 540 -51 30 -94 56 -95 57 -1 1 11 74 28 161 101 537 181
1150 219 1660 28 385 22 959 -15 1395 -61 709 -205 1450 -484 2487 -112 413
-194 642 -341 948 -308 644 -768 1247 -1341 1759 -884 790 -1978 1319 -3124
1510 -326 55 -488 68 -850 71 -187 1 -362 1 -390 -1z m855 -219 c1917 -206
3686 -1365 4562 -2989 184 -340 297 -632 418 -1071 537 -1963 640 -3150 414
-4770 -39 -283 -139 -868 -161 -939 -5 -19 -16 -19 -332 -13 -179 4 -482 10
-673 14 -346 6 -348 6 -343 27 9 40 35 352 45 536 13 236 13 797 0 1050 -60
1181 -280 2353 -668 3560 -185 573 -422 1163 -619 1540 -191 365 -408 692
-663 1000 -129 156 -447 475 -600 602 -762 632 -1655 995 -2715 1104 -89 9
-304 19 -485 23 l-325 6 155 62 c382 152 728 235 1135 272 144 14 682 5 855
-14z m-1395 -935 c289 -27 595 -96 853 -192 l53 -20 -121 -69 c-327 -187 -634
-425 -959 -744 -565 -554 -1018 -1184 -1450 -2016 -574 -1106 -940 -2911 -941
-4641 l0 -268 -67 0 c-38 0 -436 -9 -886 -21 -449 -12 -819 -20 -821 -18 -5 6
-35 409 -47 654 -23 447 -13 1243 22 1710 118 1581 492 2883 1097 3815 290
448 698 886 1092 1174 490 358 1019 569 1580 630 153 17 447 20 595 6z m1264
-370 c513 -257 1039 -693 1491 -1235 218 -262 468 -621 640 -920 111 -192 316
-605 400 -805 580 -1372 871 -3123 810 -4885 -7 -192 -15 -372 -19 -399 -7
-57 36 -23 -413 -335 l-278 -193 -24 -77 c-13 -42 -153 -498 -311 -1015 l-287
-938 47 -48 c26 -26 43 -50 38 -53 -4 -2 -26 -7 -48 -11 -22 -4 -110 -25 -195
-46 -623 -156 -1284 -464 -1820 -848 l-114 -82 -132 137 c-381 400 -807 716
-1258 933 -343 166 -683 267 -1053 316 -76 9 -133 21 -133 27 0 6 30 124 66
261 l65 251 -230 965 c-127 531 -236 975 -243 988 -8 14 -131 91 -313 196
l-300 172 -3 360 c-4 476 11 779 64 1289 109 1053 321 1971 637 2770 183 462
534 1083 888 1571 226 311 398 513 664 780 329 330 613 560 930 754 75 46 314
170 327 170 5 0 53 -22 107 -50z m-3477 -7956 l304 -176 217 -907 c120 -498
217 -914 217 -924 0 -9 -25 -113 -56 -230 -30 -116 -59 -228 -65 -248 l-9 -36
-213 -6 c-230 -6 -370 -22 -602 -68 l-150 -29 -579 49 c-318 27 -581 53 -586
58 -4 4 -98 429 -209 943 -111 514 -225 1041 -253 1170 l-51 235 22 85 c12 47
30 115 42 153 l20 67 122 1 c67 0 394 9 727 18 333 10 648 19 701 20 l96 1
305 -176z m-2172 118 c0 -5 -16 -64 -35 -133 -19 -68 -35 -133 -35 -144 0 -11
119 -571 265 -1244 146 -674 262 -1228 258 -1231 -54 -48 -476 -361 -483 -358
-16 6 -302 331 -310 354 -12 30 -146 709 -214 1079 -135 733 -189 1130 -166
1216 27 101 262 270 580 416 113 52 140 61 140 45z m9171 -729 c61 -48 120
-88 132 -88 12 -1 38 -2 57 -3 l36 -2 53 -250 53 -251 -142 -417 c-241 -706
-680 -1975 -683 -1979 -2 -2 -73 70 -158 159 -85 89 -261 273 -392 407 -154
158 -237 250 -234 260 2 9 129 424 282 923 l278 907 301 210 c166 116 302 211
304 211 1 0 52 -39 113 -87z m1243 -108 c475 -9 743 -11 751 -5 27 23 344
-218 430 -328 122 -154 128 -226 49 -582 -69 -307 -365 -1294 -497 -1658 l-30
-82 -218 -175 -219 -175 -915 0 c-503 0 -915 2 -915 3 0 2 9 28 19 58 10 30
130 376 266 769 409 1183 565 1650 565 1692 0 33 -78 425 -96 481 -4 14 1 17
33 17 21 0 371 -7 777 -15z m-7354 -2021 c723 -81 1428 -428 2025 -995 152
-145 315 -313 314 -325 0 -5 -41 -43 -91 -84 -137 -114 -360 -332 -487 -478
-320 -369 -559 -731 -767 -1164 l-51 -107 -86 97 c-240 273 -573 560 -864 745
-135 86 -399 216 -520 256 -384 130 -677 80 -790 -136 -41 -79 -55 -141 -54
-253 0 -143 37 -292 122 -497 292 -702 934 -1404 1760 -1924 l126 -80 18 -107
c79 -482 290 -947 610 -1343 113 -139 296 -332 421 -443 49 -45 91 -85 93 -90
3 -11 -31 -22 -214 -71 -271 -72 -528 -105 -816 -105 -214 0 -336 9 -529 41
-138 23 -127 17 -301 152 -264 204 -535 306 -816 307 l-81 0 -144 96 c-447
300 -881 721 -1236 1199 -450 606 -804 1331 -957 1960 -70 287 -90 464 -82
729 9 287 42 480 128 739 125 381 333 712 643 1023 229 229 409 363 653 487
623 316 1311 445 1973 371z m-2242 -109 l172 -78 -95 -54 -96 -53 -261 2 -261
3 174 132 c96 73 179 131 184 129 6 -2 88 -38 183 -81z m7360 -532 c138 -142
251 -262 251 -268 1 -5 -18 -16 -41 -24 -116 -37 -440 -156 -578 -211 -1761
-705 -2894 -1762 -3329 -3105 -93 -285 -148 -554 -177 -865 -20 -202 -14 -642
10 -819 9 -63 14 -117 12 -119 -8 -7 -147 236 -200 350 -132 279 -209 565
-236 878 -72 830 277 1810 944 2644 634 794 1589 1408 2645 1701 145 40 380
93 423 94 22 1 69 -43 276 -256z m431 -443 l93 -100 194 0 c179 0 216 -5 183
-26 -6 -3 -70 -17 -143 -31 -831 -153 -1730 -547 -2421 -1062 -396 -295 -783
-678 -1067 -1056 -425 -566 -722 -1206 -832 -1794 -78 -414 -69 -880 24 -1245
l18 -71 -54 58 c-29 31 -78 88 -108 125 -54 67 -55 70 -75 183 -39 221 -46
318 -46 624 0 315 8 415 51 665 203 1188 940 2197 2167 2968 385 242 892 491
1377 677 172 66 512 184 531 184 8 1 57 -44 108 -99z m1265 -262 c15 -84 30
-155 32 -157 2 -3 41 -15 87 -28 113 -33 270 -102 380 -167 142 -84 142 -88 2
-41 -151 51 -309 87 -485 112 -176 25 -610 24 -805 -1 -1053 -134 -2056 -628
-2813 -1385 -488 -488 -869 -1090 -1067 -1686 -190 -570 -213 -1088 -74 -1614
54 -203 157 -458 253 -621 20 -34 33 -66 29 -70 -4 -4 -24 -12 -43 -19 -33
-11 -38 -9 -100 33 -36 25 -110 80 -165 123 -87 68 -105 87 -137 148 -42 80
-108 269 -137 395 -151 657 -42 1378 316 2094 650 1299 1870 2263 3403 2690
220 62 583 136 661 136 26 0 29 4 49 73 12 39 26 87 31 105 l11 32 272 0 273
0 27 -152z m-58 -629 c467 -45 864 -176 1186 -393 112 -75 132 -102 215 -296
54 -125 140 -396 129 -407 -2 -2 -27 13 -57 33 -257 173 -651 265 -1069 251
-762 -27 -1664 -350 -2460 -880 -446 -297 -851 -673 -1144 -1061 -464 -614
-716 -1327 -716 -2028 l0 -136 -42 -7 c-24 -4 -90 -18 -146 -31 -57 -13 -107
-24 -112 -24 -4 0 -11 23 -15 52 -4 28 -18 83 -32 122 -38 111 -90 334 -112
480 -118 771 53 1560 502 2311 183 306 381 560 631 811 317 316 630 545 1021
745 515 265 994 403 1595 462 86 9 527 6 626 -4z m-10358 -574 c-39 -529 138
-1216 499 -1940 291 -580 650 -1087 1088 -1534 244 -248 419 -398 725 -620
l25 -19 -70 -20 c-38 -12 -98 -26 -133 -32 l-63 -11 -64 46 c-294 209 -661
575 -918 914 -510 670 -908 1529 -1161 2503 -60 232 -118 507 -114 538 4 20
189 304 194 297 1 -1 -3 -56 -8 -122z m-1813 -220 c305 -80 588 -360 815 -805
37 -74 113 -244 168 -377 412 -995 771 -1641 1190 -2139 109 -129 316 -336
427 -426 231 -186 499 -321 748 -378 54 -13 96 -24 95 -26 -2 -1 -50 -15 -108
-30 -94 -25 -122 -28 -265 -28 -145 0 -168 3 -250 28 -119 36 -249 101 -364
184 -121 86 -325 283 -454 437 -55 66 -110 125 -121 132 -75 44 -156 -19 -146
-112 6 -63 394 -469 575 -604 137 -102 334 -201 465 -236 288 -75 535 -47 930
107 353 137 505 187 675 220 89 18 298 4 400 -27 177 -52 339 -144 510 -290
238 -202 331 -265 493 -335 165 -71 299 -99 507 -105 304 -8 545 44 1175 255
634 212 866 263 1188 259 288 -3 490 -57 746 -199 261 -144 591 -464 804 -777
l41 -60 -245 -194 c-341 -270 -459 -349 -605 -407 -249 -99 -485 -79 -769 62
-58 29 -137 74 -177 99 -85 56 -125 61 -172 21 -27 -22 -31 -33 -31 -73 0 -39
5 -52 28 -73 58 -55 286 -179 420 -228 l74 -27 -174 -7 c-95 -3 -226 -14 -291
-24 l-118 -18 -96 121 c-141 175 -431 461 -585 576 -140 105 -301 201 -429
256 -45 20 -110 58 -143 84 -85 69 -220 136 -334 166 -80 21 -128 26 -267 30
-268 8 -434 -19 -1070 -172 -585 -141 -777 -176 -1065 -194 -424 -27 -760 53
-1077 257 -395 254 -738 379 -1123 412 -69 5 -270 9 -447 8 l-322 -3 -39 30
c-22 17 -97 75 -167 129 -153 119 -366 268 -492 343 l-93 55 94 33 c113 38
176 77 245 150 122 129 155 312 95 523 -65 223 -219 448 -490 712 -166 162
-285 262 -499 422 -267 198 -305 229 -404 328 -294 291 -458 655 -450 995 12
487 315 893 713 956 68 10 187 3 261 -16z m1595 -250 c62 -283 174 -673 277
-965 412 -1162 1007 -2059 1768 -2671 l90 -72 -120 6 c-203 10 -442 84 -635
197 -159 93 -433 420 -736 880 -532 807 -814 1583 -814 2240 0 204 22 307 111
528 18 42 20 37 59 -143z m11375 9 c300 -40 539 -148 716 -324 177 -175 266
-364 321 -685 18 -106 22 -169 22 -345 0 -128 -5 -247 -12 -295 -74 -454 -239
-857 -535 -1300 -128 -191 -142 -207 -259 -284 -218 -143 -472 -342 -708 -555
-166 -151 -484 -476 -644 -659 l-129 -147 -121 0 c-281 0 -579 -62 -826 -170
-70 -31 -73 -31 -143 -20 -163 27 -318 75 -447 140 -61 31 -91 56 -158 129
-100 109 -251 242 -375 332 -70 49 -104 82 -140 135 -192 277 -323 632 -384
1039 -28 189 -25 591 6 793 25 167 62 326 111 480 31 99 32 100 138 216 282
306 659 604 1092 861 160 95 529 281 685 345 664 272 1287 382 1790 314z
m2040 -2894 c277 -70 415 -238 415 -505 -1 -284 -171 -626 -500 -1005 -108
-124 -175 -209 -234 -295 -42 -62 -54 -72 -99 -88 -474 -165 -1184 44 -1980
582 -75 51 -137 94 -137 96 0 8 254 237 373 336 554 463 1107 765 1594 869
205 44 420 48 568 10z m-15549 -784 c62 -13 147 -40 190 -59 44 -19 138 -53
209 -76 357 -115 926 -489 1440 -945 50 -43 167 -151 260 -238 322 -298 578
-484 876 -633 212 -107 488 -194 694 -220 28 -4 61 -9 75 -11 72 -13 356 -12
470 1 414 47 688 134 1505 478 585 246 912 327 1260 314 163 -6 269 -25 415
-74 266 -89 513 -249 774 -503 175 -170 373 -403 515 -608 l23 -33 -72 36
c-173 87 -328 120 -560 119 -283 0 -523 -54 -1135 -253 -659 -214 -896 -277
-1225 -325 -253 -37 -557 -47 -790 -25 -209 19 -488 78 -679 144 -41 14 -77
25 -80 25 -9 0 173 -112 289 -177 514 -288 1088 -479 1663 -553 123 -16 164
-25 186 -41 16 -12 51 -25 77 -31 88 -16 317 -47 414 -55 185 -15 628 -9 750
12 14 2 72 11 130 20 340 52 676 169 1270 442 360 166 564 239 782 279 101 19
405 24 487 8 l43 -9 -123 -54 c-187 -82 -527 -250 -679 -336 -180 -103 -479
-303 -615 -412 -151 -121 -352 -319 -436 -429 l-70 -92 -97 98 c-109 110 -203
170 -341 221 -253 92 -449 79 -698 -46 l-127 -64 -78 74 c-173 163 -333 236
-497 229 -171 -8 -317 -86 -469 -250 l-79 -85 -54 34 c-222 142 -464 206 -615
162 -150 -43 -254 -145 -449 -443 l-67 -103 -20 33 c-34 55 -134 172 -190 223
-214 193 -501 299 -808 298 -105 0 -152 -5 -212 -21 -198 -54 -356 -148 -489
-292 -46 -50 -137 -144 -202 -207 -180 -178 -290 -323 -385 -510 -109 -213
-163 -395 -183 -615 -16 -167 3 -360 46 -469 5 -14 -11 -18 -117 -28 -68 -7
-142 -15 -165 -18 l-41 -5 19 88 c64 288 179 680 266 899 63 161 214 467 297
603 183 301 339 495 546 680 173 154 218 245 206 416 -8 125 -29 205 -81 311
-117 240 -337 375 -608 375 -495 0 -1529 -417 -2244 -905 -51 -35 -93 -62 -93
-61 0 2 12 30 27 62 51 110 41 312 -23 468 -72 178 -236 338 -402 391 -36 12
-50 21 -44 29 5 6 78 103 162 216 229 306 398 466 584 554 427 202 1045 132
1927 -219 107 -43 201 -78 209 -80 49 -7 110 46 110 97 0 62 -22 83 -137 131
-360 152 -757 277 -1068 337 -170 32 -229 40 -379 47 l-140 6 -70 59 c-155
130 -335 231 -511 284 -82 25 -104 28 -255 28 -130 1 -179 -3 -230 -17 -96
-27 -235 -96 -314 -156 l-69 -52 -54 53 c-83 81 -206 231 -277 338 -150 225
-233 441 -240 623 -12 282 150 469 449 518 90 14 320 2 441 -25z m7968 -411
c15 -11 16 -16 5 -20 -190 -71 -587 -191 -727 -220 -111 -22 -119 -20 -87 27
19 28 34 39 63 43 216 37 490 106 652 164 67 24 70 24 94 6z m-1089 -245 l-38
-39 -66 6 c-85 7 -254 40 -295 57 -27 13 -4 14 203 15 l234 0 -38 -39z m5585
-486 c567 -74 1189 -320 1943 -771 121 -73 158 -81 206 -45 l30 22 113 -95
c170 -142 326 -223 558 -290 365 -105 720 -147 1635 -195 648 -34 950 -63
1215 -115 115 -24 350 -90 350 -100 0 -2 -15 -3 -32 -1 -59 6 -147 -12 -213
-43 -128 -60 -216 -184 -235 -333 -17 -137 -77 -339 -190 -643 -29 -77 -57
-167 -63 -200 -9 -51 -18 -68 -62 -115 -28 -30 -73 -85 -99 -122 l-49 -67 -68
63 c-108 102 -233 180 -366 228 -89 31 -256 36 -359 10 -121 -31 -233 -77
-328 -137 l-87 -54 -51 38 c-144 110 -272 162 -409 169 -176 8 -270 -39 -455
-225 l-121 -123 -29 31 c-80 85 -277 228 -385 278 -66 32 -180 55 -234 49
l-33 -4 30 80 c68 185 90 276 89 371 -1 111 -19 185 -73 295 -34 71 -59 102
-142 186 -191 192 -436 295 -670 281 -169 -9 -269 -66 -463 -263 l-132 -134
-35 49 c-215 292 -673 433 -981 301 -79 -34 -203 -121 -299 -211 l-88 -83 -21
30 c-11 16 -61 70 -111 119 -178 178 -331 222 -623 180 -56 -8 -138 -24 -182
-35 l-80 -20 -121 79 c-198 130 -486 269 -702 340 -37 12 -126 37 -198 55
l-131 33 74 11 c211 32 441 154 748 398 517 409 669 509 939 617 179 71 395
119 585 129 99 6 292 -3 405 -18z m-1030 -1891 c136 -61 308 -318 284 -426 -3
-16 -73 -142 -156 -280 -196 -328 -362 -626 -516 -927 -69 -135 -123 -243
-119 -240 3 3 49 75 103 160 436 697 806 1207 1079 1488 192 198 305 261 450
249 160 -14 303 -76 400 -172 87 -85 110 -138 109 -245 0 -107 -28 -194 -201
-630 -69 -173 -127 -322 -130 -330 -3 -8 73 102 168 245 421 628 725 1005 881
1095 66 37 116 45 198 30 265 -48 490 -259 490 -460 0 -72 -48 -210 -245 -705
-529 -1330 -710 -1864 -834 -2465 -51 -250 -63 -353 -70 -598 l-6 -234 -36
-32 c-44 -41 -108 -50 -260 -37 -141 13 -187 25 -294 76 -259 125 -339 287
-315 638 27 386 133 808 355 1412 7 18 6 18 -9 -2 -35 -46 -347 -572 -507
-853 -196 -345 -210 -367 -247 -381 -35 -14 -188 -5 -267 16 -33 9 -103 37
-155 62 -77 37 -109 60 -171 122 -105 105 -154 208 -165 346 -14 167 74 475
287 1005 54 134 97 246 95 247 -2 2 -57 -83 -123 -189 -437 -703 -805 -1359
-1169 -2080 -227 -452 -203 -424 -354 -415 -237 14 -442 115 -565 279 -103
137 -137 247 -137 443 -1 488 287 1219 850 2155 87 146 175 281 417 644 23 35
31 39 -136 -70 -662 -434 -1193 -996 -1305 -1382 -23 -78 -38 -98 -89 -118
-36 -13 -50 -14 -79 -4 -59 19 -211 125 -293 203 l-76 73 -121 -125 c-314
-328 -649 -660 -729 -722 -202 -157 -336 -218 -502 -226 -139 -8 -232 12 -365
79 -88 44 -118 66 -190 138 -88 87 -130 154 -166 260 -20 60 -26 250 -11 363
l7 58 -67 -6 c-46 -5 -92 -2 -142 9 -41 9 -75 15 -76 13 -1 -1 -54 -68 -119
-149 -315 -396 -589 -663 -757 -738 -45 -21 -69 -25 -149 -24 -115 0 -196 20
-310 76 -103 50 -208 150 -258 245 -41 78 -72 198 -72 280 0 34 -3 63 -6 63
-3 0 -52 -9 -107 -20 -100 -20 -103 -21 -142 -68 -297 -351 -693 -578 -1015
-583 l-55 0 75 -23 c106 -33 176 -62 244 -103 303 -185 398 -486 272 -862 -60
-177 -78 -201 -157 -209 -48 -4 -54 -2 -122 45 -85 59 -203 120 -305 157 -522
187 -1468 217 -2212 70 -251 -49 -488 -131 -593 -203 -60 -41 -110 -48 -157
-24 -42 22 -72 72 -106 181 -44 139 -25 276 52 378 60 78 254 187 498 279 65
24 120 46 121 47 2 2 8 66 15 143 59 706 403 1602 899 2350 58 88 108 164 110
169 5 12 -174 -125 -319 -243 -617 -504 -989 -921 -1101 -1234 -53 -146 -113
-167 -252 -87 -222 126 -362 291 -412 485 -20 77 -19 221 1 304 23 93 91 231
164 334 82 114 312 337 469 456 602 452 1567 887 2136 962 203 26 340 -28 429
-169 52 -83 87 -241 66 -297 -6 -15 -83 -98 -171 -183 -225 -218 -378 -414
-552 -710 -122 -205 -259 -499 -344 -732 -84 -232 -195 -631 -252 -910 -34
-169 -74 -411 -68 -416 2 -3 71 7 153 21 363 61 597 79 927 72 139 -3 263 -8
277 -12 14 -3 -1 5 -33 18 -201 86 -340 244 -394 447 -24 89 -24 304 1 420 65
312 251 626 502 844 43 38 102 98 129 135 63 83 148 151 250 202 121 59 187
72 330 66 146 -6 247 -31 370 -91 223 -107 360 -271 416 -495 18 -73 21 -106
17 -238 l-4 -152 46 26 c116 68 113 65 195 215 192 353 395 661 476 721 15 10
47 21 72 24 131 15 438 -149 525 -279 21 -33 27 -53 27 -97 0 -52 -4 -63 -61
-146 -130 -195 -255 -407 -354 -605 -74 -147 -132 -280 -128 -292 7 -19 507
592 520 635 3 12 11 60 17 107 28 219 163 488 334 664 87 89 156 127 244 134
56 4 70 1 130 -28 81 -40 222 -171 254 -237 16 -33 20 -56 16 -88 -7 -64 -64
-177 -138 -275 -92 -121 -173 -239 -168 -244 11 -11 114 61 138 96 216 318
432 514 674 609 109 43 234 46 342 10 173 -58 309 -162 362 -277 72 -156 26
-347 -144 -603 -163 -245 -393 -432 -626 -510 -77 -26 -82 -30 -89 -62 -10
-41 -13 -197 -5 -206 20 -19 154 63 248 153 30 27 184 184 342 347 232 238
296 299 325 307 21 5 95 10 166 10 l128 0 -7 27 c-15 57 -21 156 -13 228 45
417 569 911 1428 1344 711 359 1370 554 1570 464z m-11659 -7 c144 -33 246
-145 285 -313 25 -106 17 -144 -53 -253 -362 -571 -803 -1455 -1114 -2233
-156 -389 -282 -806 -340 -1127 -18 -99 -23 -166 -24 -320 -2 -207 -5 -223
-51 -259 -46 -36 -206 -26 -354 21 -122 39 -199 86 -291 178 -69 69 -94 103
-127 170 -108 222 -95 502 42 913 198 593 626 1379 1181 2167 102 146 102 145
84 134 -47 -29 -236 -164 -369 -265 -647 -489 -1095 -977 -1191 -1297 -23 -79
-100 -118 -173 -88 -118 49 -321 216 -392 322 -93 142 -126 331 -85 494 48
191 146 345 346 545 279 279 624 510 1150 771 387 191 715 319 1015 394 227
57 359 70 461 46z m18793 -2 c74 -19 207 -80 273 -125 180 -123 258 -266 235
-429 -20 -141 -97 -331 -213 -525 -117 -196 -186 -250 -289 -225 -69 17 -396
181 -447 225 -23 19 -46 50 -53 69 -12 38 -10 46 94 335 78 215 143 446 152
538 14 138 87 179 248 137z m-3748 -1215 c132 -69 330 -243 368 -324 10 -21
21 -57 23 -80 4 -35 -1 -50 -44 -115 -80 -123 -294 -513 -266 -485 5 6 88 107
184 225 364 451 607 723 698 782 81 51 183 32 317 -59 108 -74 217 -187 237
-246 2 -6 36 23 75 65 71 74 177 155 257 196 72 36 204 72 264 72 119 0 271
-79 389 -203 85 -89 127 -178 127 -268 0 -86 -9 -96 -150 -166 -60 -31 -135
-73 -165 -93 -85 -58 -177 -163 -218 -247 -31 -67 -34 -81 -34 -161 0 -96 11
-155 41 -225 l20 -46 158 162 c291 297 269 269 387 502 162 322 405 693 478
731 68 35 256 0 390 -73 177 -96 256 -262 177 -374 -182 -261 -288 -444 -393
-680 -61 -137 -107 -249 -102 -249 1 0 72 77 157 171 146 162 158 178 224 308
120 234 248 407 422 571 170 160 345 268 510 315 126 36 259 34 346 -7 113
-53 193 -166 238 -335 26 -96 32 -317 11 -403 -49 -197 -206 -378 -376 -432
-78 -25 -183 -20 -247 12 -87 43 -168 143 -170 207 0 25 -2 24 -21 -17 -31
-71 -86 -238 -104 -320 -9 -41 -16 -118 -17 -170 -2 -156 29 -187 135 -134
152 77 408 285 683 555 99 98 193 182 208 188 44 17 340 14 382 -3 64 -27 92
-107 60 -170 -48 -91 -487 -544 -698 -718 -220 -183 -407 -297 -587 -360 -91
-32 -101 -33 -245 -33 -167 0 -242 16 -360 78 -78 41 -201 164 -239 240 l-29
58 -136 -134 c-147 -144 -240 -218 -298 -238 -51 -16 -200 -5 -288 22 -160 49
-296 151 -366 274 l-32 56 -43 -42 c-27 -26 -42 -49 -39 -59 17 -53 24 -222
14 -333 -61 -716 -514 -1208 -1055 -1146 -95 10 -188 38 -250 74 -22 13 -72
57 -111 98 -119 126 -176 270 -175 447 0 102 22 189 65 256 13 20 65 64 124
104 226 153 608 433 666 488 33 32 36 40 31 72 -5 27 -61 176 -111 296 -2 6
-50 -36 -105 -95 -155 -162 -361 -363 -437 -425 -105 -86 -145 -100 -261 -93
-235 15 -405 108 -482 264 -25 50 -32 81 -37 149 l-6 85 -140 -157 c-302 -338
-362 -374 -543 -324 -109 30 -189 75 -258 144 -169 169 -175 360 -25 796 149
434 502 1127 608 1192 46 28 121 23 189 -13z"/>
<path d="M14715 4803 c-11 -2 -65 -13 -120 -23 -448 -88 -1227 -434 -1720
-763 -412 -275 -663 -528 -763 -769 -122 -294 -16 -539 325 -751 l42 -26 22
67 c113 345 518 811 1069 1227 146 110 330 234 498 334 154 92 431 236 438
228 3 -2 -51 -78 -119 -168 -407 -540 -778 -1137 -1052 -1694 -140 -284 -216
-464 -290 -690 -134 -403 -165 -676 -100 -870 23 -69 97 -176 153 -225 94 -80
259 -142 407 -153 l50 -4 126 256 c358 725 825 1554 1314 2331 249 395 841
1268 852 1257 2 -3 -26 -67 -63 -143 -82 -171 -174 -376 -311 -689 -414 -946
-593 -1445 -593 -1658 0 -196 131 -357 352 -431 42 -14 110 -30 152 -34 l76
-8 142 250 c279 494 651 1104 1063 1746 230 358 623 950 631 950 3 0 3 -3 1
-7 -286 -490 -628 -1188 -852 -1738 -156 -384 -311 -899 -364 -1215 -33 -196
-47 -404 -33 -496 17 -108 59 -182 136 -241 116 -88 231 -123 406 -126 l105
-2 6 200 c8 221 23 347 75 599 125 609 323 1193 842 2491 245 614 256 653 206
753 -60 121 -262 241 -406 242 -82 0 -246 -167 -515 -525 -461 -615 -1205
-1832 -1409 -2309 -21 -48 -40 -83 -42 -77 -8 25 113 352 293 786 536 1297
706 1737 708 1836 2 141 -211 288 -419 289 -163 0 -410 -247 -818 -820 -455
-639 -1085 -1670 -1482 -2427 -32 -62 -60 -110 -62 -108 -2 2 8 45 23 97 219
766 675 1742 1287 2761 93 154 118 203 112 220 -26 86 -113 204 -182 248 -39
25 -55 29 -111 28 -37 -1 -75 -3 -86 -6z"/>
<path d="M5986 4784 c-312 -56 -712 -201 -1141 -414 -968 -478 -1491 -978
-1458 -1395 12 -164 99 -299 273 -426 47 -34 124 -79 137 -79 5 0 16 19 23 43
34 113 152 305 300 487 286 350 921 900 1440 1247 124 82 383 239 457 277 50
25 47 21 -79 -101 -153 -150 -276 -290 -401 -457 -604 -810 -1028 -1860 -1065
-2639 l-7 -139 -135 -48 c-346 -122 -523 -228 -550 -332 -19 -67 -9 -174 22
-241 l27 -57 53 33 c189 120 600 226 1050 272 342 35 817 37 1133 5 432 -43
808 -152 1012 -295 36 -25 69 -43 74 -38 18 18 79 223 87 292 67 564 -529 798
-1673 655 -144 -18 -369 -56 -489 -83 l-87 -19 5 26 c3 15 22 126 41 247 123
765 335 1423 624 1940 182 325 335 530 578 774 l183 184 -9 53 c-31 165 -120
245 -270 243 -42 0 -111 -7 -155 -15z"/>
<path d="M9988 3716 c-57 -17 -119 -66 -182 -144 -153 -189 -256 -433 -256
-604 l0 -69 -174 -219 c-276 -345 -519 -622 -582 -661 -32 -20 -36 -20 -59 -5
-51 33 -31 170 57 395 81 207 291 592 459 843 33 48 59 94 59 102 0 58 -234
211 -367 239 l-56 12 -34 -40 c-85 -97 -297 -438 -425 -682 -77 -147 -80 -149
-278 -256 -77 -41 -247 -103 -257 -94 -2 2 5 24 16 49 42 98 64 218 65 343 0
177 -37 291 -134 413 -154 195 -511 307 -740 233 -101 -34 -213 -111 -270
-186 -25 -33 -70 -82 -100 -110 -258 -234 -397 -434 -484 -695 -104 -313 -64
-587 108 -748 216 -201 560 -202 896 -3 163 97 340 251 450 391 49 62 70 81
94 85 17 2 60 10 96 15 80 13 222 53 284 79 25 11 46 17 46 13 0 -4 -9 -40
-20 -81 -38 -143 -21 -302 43 -410 109 -182 392 -292 555 -216 150 70 408 326
703 697 66 84 135 170 152 191 l32 37 55 -27 c49 -25 66 -28 150 -28 94 0 156
12 238 46 24 11 42 14 42 8 0 -6 -9 -45 -19 -87 -30 -117 -44 -246 -39 -358 4
-91 8 -109 41 -178 44 -92 108 -163 204 -227 100 -65 176 -90 298 -96 120 -6
198 10 295 64 161 88 218 138 618 541 217 218 398 405 403 414 9 17 0 18 -129
18 l-140 0 -331 -339 c-409 -418 -491 -481 -632 -481 -64 0 -92 24 -108 94
-18 83 -15 203 9 305 23 99 17 92 105 106 187 30 459 235 612 460 147 218 197
384 147 491 -27 57 -110 134 -185 171 -190 92 -302 82 -509 -43 -156 -94 -297
-237 -427 -431 -73 -110 -77 -114 -161 -162 -169 -96 -326 -132 -371 -86 -19
20 -19 21 52 121 184 259 251 354 297 417 56 79 85 146 76 180 -7 30 -108 131
-161 162 -64 38 -86 43 -127 31z m-2667 -314 c60 -31 111 -96 130 -165 18 -66
26 -203 18 -312 -7 -97 -44 -270 -73 -339 l-14 -35 -59 15 c-105 28 -201 81
-275 153 -37 37 -68 72 -68 78 0 7 81 95 180 197 164 167 180 187 174 211 -9
36 -103 136 -165 176 -60 38 -52 49 37 49 48 0 74 -6 115 -28z m4045 -86 c15
-12 19 -25 17 -69 -4 -119 -94 -272 -252 -427 -58 -58 -132 -120 -163 -139
-57 -33 -218 -94 -227 -86 -5 6 88 187 135 261 147 231 337 435 432 464 37 11
36 12 58 -4z m-4470 -794 c79 -76 205 -148 312 -177 34 -10 62 -21 62 -25 0
-17 -110 -160 -178 -232 -123 -128 -244 -210 -332 -224 -36 -6 -45 -3 -70 21
-49 47 -63 100 -57 212 7 145 59 293 153 441 19 28 35 52 36 52 2 0 35 -31 74
-68z"/>
<path d="M7245 2899 l-100 -100 25 -21 c38 -31 122 -71 130 -61 15 15 60 283
48 283 -2 0 -48 -45 -103 -101z"/>
<path d="M6817 2323 c-55 -123 -82 -323 -44 -323 26 0 152 98 226 175 l75 77
-72 38 c-39 20 -87 49 -106 64 -19 14 -39 26 -44 26 -5 0 -21 -26 -35 -57z"/>
<path d="M3029 4776 c-491 -87 -1240 -414 -1818 -794 -277 -182 -545 -427
-659 -601 -144 -221 -171 -419 -80 -603 42 -84 167 -209 278 -276 l85 -52 16
47 c69 204 243 440 548 744 344 342 814 710 1271 993 165 102 362 216 375 216
4 0 -14 -26 -39 -57 -555 -692 -1016 -1404 -1346 -2078 -259 -529 -377 -887
-388 -1175 -7 -216 30 -322 158 -451 106 -107 234 -163 416 -183 l61 -7 -4
118 c-10 253 74 677 223 1122 254 756 849 1999 1281 2674 27 43 43 79 43 99 0
89 -72 214 -144 252 -50 25 -171 30 -277 12z"/>
<path d="M21955 4766 c-20 -128 -30 -173 -61 -277 -33 -113 -114 -352 -168
-491 l-26 -68 41 -26 c58 -36 307 -159 352 -174 34 -10 41 -10 59 6 67 61 232
371 279 524 34 108 33 201 -3 260 -69 117 -261 239 -424 269 -43 8 -44 8 -49
-23z"/>
<path d="M18196 3584 c-60 -60 -321 -557 -440 -839 -37 -88 -92 -232 -121
-320 -107 -321 -112 -478 -20 -590 48 -59 112 -103 194 -131 99 -35 139 -32
198 15 108 87 289 291 656 736 154 187 286 346 293 354 32 34 20 -3 -36 -110
-102 -193 -217 -430 -248 -510 -48 -120 -57 -183 -38 -260 38 -147 172 -233
382 -246 90 -6 92 -5 137 25 83 57 260 226 468 448 114 120 216 230 227 243
l19 25 13 -40 c7 -21 48 -130 92 -242 70 -179 98 -274 98 -335 0 -25 -69 -96
-169 -176 -93 -74 -585 -426 -639 -457 -66 -38 -102 -165 -84 -295 18 -125 65
-219 153 -308 83 -83 185 -116 354 -115 95 0 121 4 196 31 242 84 442 306 548
607 85 242 111 520 67 710 l-14 60 176 183 c97 100 177 181 179 179 2 -1 -1
-27 -7 -56 -18 -93 -13 -187 13 -239 69 -142 266 -250 453 -251 49 0 68 5 105
29 63 40 247 214 386 364 l118 128 7 -63 c11 -100 27 -153 65 -215 62 -104
139 -168 258 -213 48 -18 87 -24 192 -28 116 -4 140 -2 204 18 289 87 694 405
1105 865 l134 150 -141 3 -142 3 -166 -164 c-365 -359 -679 -595 -817 -614
-88 -12 -173 44 -199 130 -21 72 -19 228 5 347 42 207 179 532 301 713 108
162 229 267 306 267 38 0 43 -12 43 -95 0 -141 -114 -417 -216 -521 l-53 -55
35 -39 c44 -48 89 -64 165 -57 142 13 285 157 333 337 20 73 15 272 -8 361
-38 143 -116 237 -215 258 -266 57 -714 -254 -971 -674 -23 -38 -69 -123 -101
-187 -57 -116 -59 -120 -338 -427 -155 -170 -290 -312 -301 -316 -26 -8 -37
-1 -43 32 -31 164 217 760 485 1164 110 166 117 179 107 206 -32 86 -200 184
-356 207 -50 7 -54 4 -153 -134 -108 -150 -237 -368 -341 -578 l-95 -192 -289
-300 c-159 -165 -293 -299 -299 -297 -13 4 -105 232 -127 316 -39 152 -20 315
51 439 74 127 248 272 424 353 88 40 90 45 47 134 -50 104 -188 216 -308 251
-49 14 -57 14 -128 -5 -258 -71 -482 -297 -546 -551 -9 -36 -14 -108 -13 -208
l0 -154 -324 -334 c-178 -184 -331 -334 -339 -334 -43 0 54 224 267 620 174
321 312 607 318 656 5 48 -12 87 -66 146 -46 51 -144 121 -215 153 -52 24 -58
25 -85 11 -77 -40 -306 -302 -807 -921 -393 -486 -563 -685 -587 -685 -55 0
339 845 560 1198 56 91 63 107 54 127 -32 71 -246 246 -344 284 -21 8 -31 7
-42 -5z m1798 -2161 c-73 -167 -204 -323 -318 -378 -58 -29 -149 -44 -183 -31
-15 6 -12 11 17 34 19 15 88 74 154 132 257 228 341 300 348 300 4 0 -4 -26
-18 -57z"/>
<path d="M22846 3103 c-59 -84 -171 -281 -164 -289 13 -12 108 99 145 171 47
90 86 185 79 192 -2 3 -29 -31 -60 -74z"/>
<path d="M3806 13264 c-63 -20 -147 -102 -164 -160 -41 -140 14 -297 157 -448
140 -147 304 -225 425 -202 52 10 120 78 137 136 44 158 -38 427 -173 563
-106 107 -257 151 -382 111z m185 -210 c81 -42 165 -202 176 -337 l6 -69 -24
7 c-42 13 -76 33 -141 85 -75 61 -122 117 -154 185 -37 79 -29 127 26 148 20
8 78 -2 111 -19z"/>
<path d="M20257 11715 c-114 -42 -238 -165 -315 -314 -64 -123 -85 -195 -80
-276 5 -79 38 -134 100 -164 177 -85 525 84 636 308 34 70 37 81 37 165 0 74
-5 101 -24 143 -26 59 -82 115 -137 138 -45 19 -165 19 -217 0z m156 -202 c44
-50 23 -155 -46 -225 -70 -73 -215 -148 -284 -148 -23 0 -25 3 -19 33 11 56
84 193 133 248 87 96 177 134 216 92z"/>
<path d="M1483 10600 c-106 -25 -203 -106 -251 -208 -35 -74 -42 -210 -17
-299 70 -245 358 -534 622 -625 78 -27 96 -30 182 -26 83 3 103 8 150 33 67
37 124 101 153 174 18 47 22 75 22 171 0 103 -3 124 -31 203 -48 136 -113 237
-228 353 -162 164 -309 235 -483 233 -48 -1 -101 -4 -119 -9z m230 -209 c200
-69 405 -319 433 -528 10 -79 -11 -156 -52 -192 -30 -27 -42 -31 -92 -31 -96
1 -223 63 -348 172 -221 190 -312 415 -217 529 57 67 167 87 276 50z"/>
<path d="M20335 9962 c-161 -60 -282 -161 -411 -344 -72 -102 -148 -264 -169
-362 -41 -185 14 -348 142 -423 200 -117 507 -28 731 212 219 234 293 508 193
721 -38 81 -87 134 -163 175 -58 31 -71 34 -168 36 -83 3 -115 -1 -155 -15z
m224 -197 c93 -48 126 -181 81 -326 -44 -145 -213 -336 -356 -405 -236 -113
-383 -31 -330 184 53 217 257 477 424 543 57 22 143 24 181 4z"/>
<path d="M21793 8856 c-190 -62 -413 -370 -413 -571 0 -242 262 -284 550 -87
143 98 217 211 227 353 10 122 -41 231 -133 285 -56 33 -163 42 -231 20z m143
-207 c26 -29 24 -111 -4 -165 -12 -23 -42 -60 -69 -83 -53 -48 -189 -116 -247
-126 l-38 -6 7 37 c16 85 110 242 178 298 85 68 139 82 173 45z"/>
</g>
</svg>
