<?xml version="1.0" standalone="no"?>
<!DOCTYPE svg PUBLIC "-//W3C//DTD SVG 20010904//EN"
 "http://www.w3.org/TR/2001/REC-SVG-20010904/DTD/svg10.dtd">
<svg version="1.0" xmlns="http://www.w3.org/2000/svg"
 width="882.000000pt" height="304.000000pt" viewBox="0 0 882.000000 304.000000"
 preserveAspectRatio="xMidYMid meet">
<metadata>
Created by potrace 1.16, written by Peter Selinger 2001-2019
</metadata>
<g transform="translate(0.000000,304.000000) scale(0.100000,-0.100000)"
fill="#000000" stroke="none">
<path d="M4400 2833 c-33 -14 -250 -196 -325 -274 -205 -214 -298 -370 -362
-609 -22 -86 -29 -357 -10 -456 27 -142 97 -303 188 -431 57 -81 139 -255 139
-297 0 -103 -127 -239 -315 -337 l-50 -26 0 -84 c1 -78 3 -89 39 -154 22 -38
50 -91 64 -117 l25 -48 87 0 c99 0 129 9 310 97 159 76 299 172 400 273 180
181 259 376 247 619 -6 130 -22 186 -102 356 -85 183 -118 275 -112 323 7 65
74 188 142 261 61 65 241 215 279 232 12 5 41 22 66 37 51 32 58 51 50 148
l-5 63 -109 83 c-60 46 -126 95 -148 110 -21 15 -60 44 -87 65 -27 21 -82 63
-122 93 -39 30 -78 61 -85 68 -13 12 -174 16 -204 5z m377 -290 c213 -161 271
-209 256 -214 -14 -5 -12 -7 12 -11 29 -3 29 -4 -25 -32 -82 -43 -164 -101
-253 -179 -156 -138 -236 -281 -250 -447 l-3 -35 -22 45 c-28 58 -28 110 2
197 34 101 85 175 190 278 102 100 187 163 238 175 l33 8 -32 1 c-25 1 -74 33
-220 143 -103 77 -196 143 -206 146 -40 10 -301 -224 -427 -383 -35 -44 -67
-79 -72 -77 -4 1 -8 -7 -8 -18 0 -11 -4 -20 -10 -20 -16 0 -11 31 15 95 14 33
25 66 25 74 0 24 97 146 175 220 82 78 284 241 298 241 5 0 132 -93 284 -207z
m-888 -534 c-59 -295 -11 -544 149 -782 96 -141 159 -285 177 -404 10 -64 -17
-142 -66 -193 -22 -23 -43 -39 -46 -36 -3 3 2 24 12 48 26 63 24 187 -5 258
-34 87 -84 180 -147 277 -174 265 -217 532 -127 799 21 63 65 157 71 151 2 -3
-6 -56 -18 -118z m599 -411 c17 -18 46 -71 65 -118 19 -47 64 -150 100 -231
67 -148 89 -219 68 -219 -6 0 -11 -6 -11 -14 0 -19 -25 -37 -42 -31 -8 3 -21
25 -28 47 -6 23 -48 122 -91 220 -44 98 -86 203 -94 235 -16 62 -20 143 -7
143 4 0 22 -15 40 -32z m227 -797 c-55 -174 -179 -336 -353 -460 -115 -81
-236 -146 -253 -135 -8 4 -9 3 -5 -5 5 -7 -9 -18 -39 -31 -63 -27 -70 -24 -15
5 59 32 46 32 -22 0 -29 -14 -46 -25 -38 -25 9 -1 5 -6 -10 -15 -29 -17 -54
-19 -45 -5 3 6 0 10 -9 10 -8 0 -22 3 -32 7 -12 4 -15 3 -10 -6 6 -10 4 -10
-11 -1 -10 7 -42 50 -70 96 -46 75 -49 84 -31 84 22 0 118 -49 118 -60 0 -3 9
-16 20 -28 l20 -22 53 21 c78 30 232 114 317 173 161 110 276 248 356 422 19
43 45 95 57 114 l22 35 3 -44 c2 -28 -7 -76 -23 -130z m-572 -260 c5 -20 -26
-74 -72 -125 -35 -39 -160 -126 -180 -126 -9 0 -36 10 -61 21 -41 19 -43 22
-26 32 99 61 176 115 217 154 27 25 49 43 49 39 0 -4 12 0 28 8 35 20 39 20
45 -3z"/>
<path d="M6112 2820 c-164 -100 -377 -322 -547 -569 -18 -25 -66 -103 -107
-171 -269 -451 -420 -1001 -422 -1542 l-1 -217 28 -29 c60 -63 245 -142 425
-181 224 -50 589 -60 832 -23 162 24 341 68 352 85 15 24 8 164 -19 352 -15
105 -31 193 -37 197 -20 14 -175 9 -211 -7 -77 -31 -276 -76 -425 -94 -94 -12
-305 -14 -362 -3 l-37 7 35 105 c40 124 150 350 228 470 55 85 131 193 151
214 6 6 18 22 27 36 24 38 179 212 266 298 137 138 420 358 549 427 88 47 93
55 93 144 0 71 -2 79 -27 103 -16 14 -46 37 -68 51 -22 13 -70 46 -107 73 -36
27 -107 78 -158 114 -50 36 -127 91 -170 123 l-78 57 -89 0 c-71 0 -94 -4
-121 -20z m414 -276 c159 -113 292 -211 296 -219 7 -11 -28 -45 -47 -45 -10 0
-180 -113 -259 -173 -479 -360 -862 -873 -1010 -1352 -14 -44 -28 -97 -31
-118 -9 -47 -19 -53 -45 -27 -24 24 -22 43 17 180 114 398 358 779 730 1141
139 135 404 344 475 376 l38 17 -33 11 c-17 6 -117 73 -222 148 -104 75 -199
137 -211 137 -69 0 -318 -247 -485 -482 -50 -69 -96 -128 -102 -131 -7 -3 -21
-22 -32 -43 -24 -47 -55 -90 -55 -77 0 8 68 145 180 359 71 138 235 319 397
438 48 36 93 66 99 66 5 0 140 -93 300 -206z m-1067 -746 c-138 -344 -233
-790 -246 -1153 -5 -165 -5 -171 17 -198 27 -34 161 -99 260 -127 256 -70 582
-78 880 -20 52 10 120 21 151 24 l56 6 6 -37 c4 -20 5 -38 3 -40 -2 -2 -32 -8
-67 -14 -35 -5 -75 -12 -89 -14 -14 -3 -52 -7 -85 -11 -33 -3 -73 -10 -90 -14
-16 -5 -46 -9 -65 -9 -19 0 -106 -1 -192 -1 -313 -1 -527 42 -727 146 -58 30
-113 54 -123 54 -16 0 -18 11 -18 108 0 370 109 865 265 1209 35 75 73 143 81
143 2 0 -6 -24 -17 -52z m1084 -1200 c2 -25 -1 -52 -8 -63 -8 -14 -10 -37 -4
-75 12 -89 11 -117 -8 -124 -25 -10 -34 5 -46 87 -7 41 -14 78 -18 81 -3 3
-59 -8 -125 -24 -241 -59 -496 -80 -722 -61 -179 16 -203 24 -221 79 -12 41
-12 44 9 62 31 27 58 26 62 -2 4 -28 34 -34 238 -44 235 -11 518 26 727 95 49
16 93 29 99 30 7 1 14 -18 17 -41z"/>
<path d="M7763 2782 c-21 -14 -44 -32 -52 -40 -8 -7 -30 -24 -50 -36 -42 -27
-266 -251 -313 -315 -100 -133 -198 -270 -198 -276 0 -3 -20 -36 -44 -73 -100
-157 -230 -464 -289 -682 -76 -281 -106 -495 -114 -796 l-6 -230 32 -36 c70
-80 243 -159 436 -200 140 -29 507 -37 680 -14 369 48 553 164 683 430 63 129
98 255 134 477 20 125 23 179 23 419 0 244 -3 289 -23 395 -32 169 -74 300
-143 440 -72 147 -101 194 -176 283 -54 64 -183 182 -199 182 -4 0 -21 11 -38
24 -17 13 -55 35 -84 50 -47 24 -64 27 -137 25 -72 -1 -90 -5 -122 -27z m196
-97 c244 -129 439 -379 546 -699 44 -132 52 -189 44 -313 -13 -187 -29 -208
-49 -62 -55 403 -256 773 -510 935 -95 61 -97 62 -171 8 -143 -105 -333 -312
-483 -527 -37 -53 -71 -97 -75 -97 -3 0 -15 -14 -25 -31 -10 -17 -20 -28 -23
-25 -7 6 98 219 139 281 18 28 33 57 33 65 0 8 5 15 12 15 6 0 15 4 20 9 5 5
3 6 -4 2 -29 -16 -9 16 65 105 101 120 226 240 328 312 43 31 81 57 83 57 1 0
33 -16 70 -35z m223 -536 c68 -36 113 -355 88 -634 -20 -238 -57 -421 -127
-640 -56 -174 -106 -265 -131 -241 -2 3 7 36 21 73 62 168 123 442 147 663 17
150 15 425 -5 540 -17 107 -31 169 -38 176 -8 8 -124 -92 -256 -221 -313 -305
-567 -696 -685 -1057 -25 -73 -47 -150 -51 -171 -9 -47 -17 -52 -46 -28 -22
17 -22 20 -9 82 72 353 327 807 649 1154 88 96 274 270 316 296 33 21 95 25
127 8z m-98 -331 c16 -151 16 -197 6 -329 -19 -240 -71 -490 -148 -703 l-39
-110 -64 -17 c-127 -35 -279 -51 -432 -48 -80 3 -148 7 -151 10 -12 12 77 247
143 379 71 140 165 296 235 389 23 30 55 73 71 96 62 87 346 385 366 385 4 0
10 -24 13 -52z m-969 -44 c-27 -62 -112 -338 -140 -451 -58 -235 -95 -529 -95
-753 0 -103 1 -108 26 -134 63 -62 213 -125 368 -153 126 -23 435 -23 566 0
193 35 311 88 406 183 98 98 174 242 229 434 45 157 105 482 105 576 1 34 2
36 12 20 7 -13 9 -62 4 -155 -16 -313 -85 -627 -173 -779 -166 -288 -370 -376
-869 -375 -249 1 -478 49 -606 129 -32 19 -67 37 -77 39 -11 2 -32 12 -47 21
l-27 18 7 191 c8 263 39 466 107 708 60 214 196 543 216 524 2 -3 -3 -22 -12
-43z m944 -1180 c3 -2 0 -21 -5 -41 -12 -49 -43 -66 -184 -97 -204 -45 -394
-56 -620 -36 -143 13 -181 29 -194 84 -8 35 -6 42 14 58 31 25 58 23 62 -4 4
-29 33 -34 233 -44 97 -4 191 -3 267 5 136 14 322 54 352 76 18 13 62 12 75
-1z"/>
<path d="M1105 2750 c-232 -26 -415 -60 -615 -112 -63 -17 -126 -33 -140 -36
-51 -10 -42 41 -95 -542 -13 -151 -36 -412 -50 -580 -14 -168 -44 -503 -65
-745 -39 -423 -47 -575 -34 -609 13 -35 329 -15 539 33 83 19 129 33 290 91
75 27 268 128 346 181 32 21 61 39 64 39 4 0 12 6 20 13 7 6 46 37 86 67 262
198 484 466 637 765 95 185 150 353 184 560 18 110 16 587 -3 670 l-14 60 -74
37 c-77 38 -180 66 -341 94 -111 19 -605 28 -735 14z m653 -105 c163 -24 375
-87 402 -120 14 -16 15 -67 3 -90 -6 -11 -14 -45 -18 -75 -4 -30 -11 -61 -15
-69 -9 -17 -14 -4 -29 84 -13 73 -28 87 -130 119 -344 109 -865 94 -1369 -39
-52 -14 -104 -25 -118 -25 -26 0 -100 59 -87 70 15 14 326 89 468 114 123 21
251 37 405 50 89 8 382 -4 488 -19z m-370 -139 c37 -19 116 -104 140 -152 11
-22 31 -73 43 -114 22 -68 24 -93 23 -255 0 -191 -13 -286 -59 -440 -29 -95
-99 -242 -155 -325 -62 -92 -62 -83 3 60 44 98 87 242 109 365 27 146 32 435
9 525 -20 83 -65 171 -114 223 -50 54 -74 58 -162 31 l-53 -17 -35 -126 c-20
-69 -77 -272 -127 -451 -51 -179 -116 -408 -145 -510 -29 -102 -87 -309 -130
-460 -43 -151 -79 -277 -81 -279 -2 -2 -15 -1 -29 3 -16 4 -25 13 -25 26 0 10
78 297 174 637 152 538 294 1045 327 1165 13 49 46 85 89 97 54 14 167 13 198
-3z m-932 -161 c-3 -38 -10 -124 -16 -190 -5 -66 -16 -199 -25 -295 -8 -96
-25 -278 -36 -405 -11 -126 -24 -277 -29 -335 -6 -58 -21 -238 -35 -400 -14
-162 -28 -321 -31 -352 l-7 -58 45 0 c122 0 356 59 533 135 559 239 1015 727
1209 1293 45 132 100 371 112 491 5 48 9 59 17 46 18 -32 -11 -343 -44 -475
-87 -346 -281 -680 -558 -958 -125 -125 -186 -176 -203 -166 -7 4 -10 4 -6 -1
4 -4 3 -14 -3 -22 -14 -16 -33 -18 -23 -1 4 7 3 8 -5 4 -6 -4 -9 -11 -6 -16 3
-5 -7 -18 -21 -29 -29 -23 -49 -28 -38 -9 4 7 3 8 -5 4 -6 -4 -9 -12 -6 -17 3
-5 -29 -31 -71 -59 -74 -48 -102 -61 -89 -40 3 6 -1 7 -10 3 -12 -4 -13 -8 -5
-13 18 -11 -117 -82 -143 -75 -14 4 -18 3 -9 -2 17 -13 -54 -45 -82 -38 -15 5
-17 4 -8 -3 11 -7 6 -12 -19 -21 -40 -14 -48 -14 -29 0 18 13 25 15 -102 -27
-48 -15 -85 -31 -82 -35 5 -9 -77 -24 -116 -22 -14 0 -38 -3 -55 -8 -16 -5
-61 -11 -100 -13 -38 -2 -89 -11 -112 -19 l-43 -15 0 47 c0 25 4 87 9 136 5
50 12 124 15 165 3 41 31 359 61 705 30 347 66 758 80 915 14 157 25 292 25
299 0 9 14 2 36 -20 l36 -34 -6 -70z m859 -62 c46 -48 82 -127 96 -209 14 -81
7 -262 -15 -384 -42 -231 -169 -507 -332 -716 -90 -116 -244 -256 -244 -223 0
7 25 100 56 208 30 108 84 297 119 421 35 124 84 299 110 390 26 91 67 237 92
325 25 88 49 175 54 193 6 17 14 32 19 32 6 0 26 -17 45 -37z m53 -1195 c-6
-18 -16 -40 -22 -48 -7 -8 -18 -28 -24 -43 -50 -117 -230 -328 -367 -430 -122
-91 -227 -141 -298 -141 -61 -1 -71 5 -84 53 -8 30 5 51 47 75 l32 19 -7 -31
c-4 -22 -3 -32 5 -32 24 0 196 96 269 150 42 31 117 100 168 153 51 53 96 97
101 97 9 0 94 94 151 168 18 23 34 42 36 42 2 0 -1 -15 -7 -32z"/>
<path d="M3237 2710 c-65 -5 -171 -11 -235 -14 -303 -17 -418 -28 -429 -39
-13 -13 -26 -131 -78 -722 -19 -220 -53 -596 -75 -835 -71 -771 -83 -951 -67
-977 10 -16 150 -17 293 -4 55 6 135 12 179 16 45 3 86 12 93 19 14 13 24 49
132 431 34 121 95 339 137 485 41 146 99 353 129 460 31 107 70 247 89 310 18
63 50 176 70 250 20 74 57 205 82 290 31 108 45 178 47 230 5 112 7 110 -132
109 -64 -1 -170 -5 -235 -9z m273 -99 c0 -11 -15 -31 -32 -46 -20 -16 -24 -22
-10 -15 12 6 22 8 22 5 0 -3 -25 -94 -56 -203 -30 -108 -68 -244 -84 -302 -16
-58 -58 -206 -94 -330 -35 -124 -92 -324 -126 -445 -34 -121 -73 -256 -86
-300 -22 -77 -128 -453 -159 -565 -50 -185 -43 -170 -78 -170 -18 0 -38 4 -45
9 -8 4 -32 5 -55 0 -23 -4 -79 -9 -124 -10 -45 -2 -79 -7 -77 -11 7 -11 -4
-10 -29 4 -20 10 -21 10 -8 -5 12 -15 11 -17 -9 -17 -20 0 -22 4 -16 32 3 18
11 86 16 153 28 328 58 676 81 915 38 401 59 624 84 930 9 96 18 203 21 238
l6 63 35 -36 c32 -33 35 -40 29 -78 -3 -23 -13 -121 -21 -217 -9 -96 -17 -197
-20 -225 -7 -74 -43 -475 -60 -670 -8 -93 -20 -213 -25 -265 -6 -52 -15 -156
-20 -230 -5 -74 -12 -155 -15 -180 -3 -25 -7 -59 -9 -76 -2 -16 -7 -81 -11
-143 l-8 -112 114 7 c127 8 155 15 163 41 2 10 135 482 295 1048 160 567 297
1051 305 1077 14 47 14 48 -7 43 -12 -2 -134 -11 -272 -20 -137 -8 -282 -17
-322 -21 l-71 -6 -41 37 c-23 21 -41 43 -41 49 0 9 115 19 413 38 226 14 420
26 430 27 11 0 17 -6 17 -18z"/>
</g>
</svg>
