<?xml version="1.0" standalone="no"?>
<!DOCTYPE svg PUBLIC "-//W3C//DTD SVG 20010904//EN"
 "http://www.w3.org/TR/2001/REC-SVG-20010904/DTD/svg10.dtd">
<svg version="1.0" xmlns="http://www.w3.org/2000/svg"
 width="4360.000000pt" height="1988.000000pt" viewBox="0 0 4360.000000 1988.000000"
 preserveAspectRatio="xMidYMid meet">
<metadata>
Created by potrace 1.16, written by Peter Selinger 2001-2019
</metadata>
<g transform="translate(0.000000,1988.000000) scale(0.100000,-0.100000)"
fill="#000000" stroke="none">
<path d="M34481 19835 c0 -11 -12 -162 -26 -336 -171 -2185 -292 -5240 -310
-7854 -3 -418 -9 -834 -12 -925 l-7 -165 -8 225 c-33 990 -145 2058 -309 2948
-21 116 -39 215 -40 220 -2 17 -43 -180 -84 -403 -158 -863 -250 -1859 -282
-3050 -5 -219 -9 -265 -15 -210 -30 269 -43 358 -69 492 -35 179 -92 385 -148
536 -45 121 -130 307 -141 307 -23 0 -165 -392 -220 -604 -60 -232 -120 -632
-120 -795 0 -137 -8 -45 -19 209 -27 623 -82 1120 -182 1628 -38 193 -117 518
-157 647 l-19 60 -16 -55 c-170 -578 -298 -1409 -338 -2205 -6 -126 -13 -232
-15 -234 -2 -2 -4 63 -4 145 0 390 -41 1149 -91 1694 -53 586 -149 1273 -237
1705 l-18 90 -42 -210 c-176 -891 -277 -1855 -312 -2990 -11 -363 -16 -447
-19 -310 -8 511 -91 1315 -187 1825 -59 314 -158 730 -173 730 -4 0 -26 -78
-49 -172 -169 -698 -266 -1494 -299 -2453 -4 -126 -9 -210 -11 -185 -16 266
-105 623 -219 880 -55 124 -132 270 -141 270 -12 0 -99 -160 -151 -275 -120
-269 -209 -659 -212 -930 l-1 -70 -23 90 c-43 172 -149 339 -291 460 l-55 47
-44 -36 c-113 -93 -248 -306 -284 -447 -22 -87 -31 -72 -31 55 0 269 -59 737
-136 1069 -37 164 -108 398 -160 532 -25 66 -48 128 -51 138 -13 41 -17 32
-104 -223 -134 -393 -222 -838 -263 -1330 -12 -152 -14 -158 -15 -75 -16 1090
-126 2284 -292 3160 -22 116 -42 225 -46 243 -3 17 -9 32 -13 32 -9 0 -113
-527 -150 -765 -112 -718 -156 -1209 -208 -2310 -7 -151 -8 -139 -15 225 -31
1560 -106 2874 -232 4050 -46 425 -126 1041 -132 1010 -1 -8 -16 -123 -33
-255 -173 -1397 -278 -3042 -307 -4795 -8 -489 -7 -493 -33 110 -39 945 -139
1853 -301 2740 -40 222 -39 219 -60 125 -80 -357 -177 -1003 -233 -1550 -55
-531 -103 -1313 -107 -1725 -2 -178 -16 -255 -18 -95 -4 346 -56 1030 -112
1465 -56 437 -146 926 -228 1235 -15 57 -19 66 -25 45 -68 -266 -156 -754
-210 -1160 -66 -491 -125 -1272 -127 -1680 0 -74 -4 -144 -9 -155 -6 -14 -9
-4 -9 38 -1 81 -28 328 -52 477 -54 339 -133 622 -256 914 l-46 109 -15 -29
c-53 -100 -141 -344 -192 -531 -73 -266 -131 -612 -147 -881 -6 -102 -8 -111
-14 -67 -4 28 -8 124 -8 215 -4 757 -102 1968 -222 2740 -35 226 -108 636
-118 664 -14 35 -126 -573 -185 -999 -81 -582 -140 -1286 -166 -1955 -5 -151
-13 -356 -17 -455 l-7 -180 -7 195 c-30 806 -135 1600 -294 2230 -67 263 -59
245 -78 180 -56 -192 -145 -625 -201 -980 -82 -520 -143 -1221 -147 -1683 -2
-156 0 -160 -34 103 -38 294 -150 643 -280 876 l-38 68 -20 -25 c-38 -46 -176
-345 -216 -465 -67 -206 -110 -426 -129 -669 l-8 -100 -12 53 c-20 88 -66 196
-118 273 -44 68 -213 249 -232 249 -4 0 -37 -28 -71 -62 -145 -143 -230 -289
-265 -453 l-13 -60 -7 110 c-31 521 -68 787 -166 1180 -56 227 -183 615 -201
615 -4 0 -9 -8 -12 -17 -3 -10 -26 -72 -51 -138 -133 -343 -240 -840 -276
-1275 -24 -288 -25 -288 -33 10 -26 964 -106 1866 -238 2665 -47 288 -102 558
-109 543 -9 -15 -89 -413 -119 -588 -109 -626 -189 -1411 -221 -2160 -6 -140
-15 -327 -19 -415 l-8 -160 -2 245 c-7 1239 -92 2863 -211 4055 -46 456 -132
1162 -148 1213 -19 62 -161 -1260 -227 -2108 -72 -934 -131 -2228 -136 -2965
-3 -350 -13 -397 -21 -95 -23 824 -102 1745 -213 2485 -45 300 -116 695 -125
695 -16 0 -126 -618 -179 -1005 -101 -734 -178 -1759 -182 -2440 -1 -93 -4
-195 -8 -225 -6 -51 -7 -48 -14 54 -27 407 -149 894 -305 1221 l-48 100 -53
-125 c-147 -345 -240 -734 -278 -1161 -9 -104 -18 -188 -19 -186 -1 1 -7 74
-14 162 -33 451 -112 862 -245 1260 -34 105 -73 214 -87 244 l-24 54 -51 -129
c-149 -376 -243 -791 -288 -1268 -8 -88 -15 -188 -15 -224 0 -36 -2 -63 -5
-61 -2 3 -9 135 -15 295 -34 951 -132 1767 -296 2484 -20 85 -39 159 -44 163
-17 19 -140 -544 -200 -913 -86 -534 -157 -1331 -161 -1805 -1 -66 -4 -145 -9
-175 l-7 -55 -2 60 c-2 95 -38 387 -65 537 -33 176 -83 371 -136 528 -48 142
-143 365 -155 365 -21 0 -149 -344 -210 -563 -85 -310 -152 -742 -156 -1012
l0 -65 -28 110 c-34 132 -73 220 -145 329 -62 92 -161 206 -181 206 -18 0
-145 -136 -192 -206 -81 -120 -143 -269 -162 -391 -6 -37 -9 -7 -15 127 -28
697 -85 1187 -197 1690 -53 241 -160 613 -171 594 -10 -16 -86 -293 -117 -424
-116 -490 -196 -1098 -220 -1657 l-7 -168 -7 200 c-40 1103 -87 1702 -193
2475 -64 470 -163 1026 -176 994 -4 -11 -23 -100 -42 -199 -170 -880 -270
-1838 -306 -2955 -6 -184 -13 -339 -15 -345 -2 -5 -4 87 -4 205 -4 909 -75
2310 -166 3300 -53 565 -177 1565 -197 1585 -5 5 -51 -338 -93 -690 -120
-1017 -205 -2258 -235 -3450 -20 -767 -25 -777 -33 -70 -22 1965 -114 3985
-257 5635 -39 447 -94 980 -101 973 -19 -22 -142 -1519 -199 -2428 -89 -1413
-158 -3372 -161 -4535 0 -184 -4 -344 -9 -355 -5 -13 -9 26 -9 105 -2 222 -30
757 -62 1170 -46 592 -110 1126 -194 1625 -64 380 -78 448 -86 433 -10 -20
-64 -295 -109 -562 -141 -830 -230 -1862 -247 -2849 -3 -202 -7 -366 -9 -365
-1 2 -7 68 -14 148 -35 439 -128 830 -281 1180 -33 74 -63 138 -67 142 -5 5
-30 -43 -56 -104 -166 -391 -267 -849 -292 -1319 -8 -138 -10 -139 -34 -4 -38
212 -156 449 -320 645 l-20 25 -42 -45 c-152 -167 -263 -401 -308 -650 l-17
-95 -7 125 c-32 564 -136 1055 -311 1470 l-49 114 -28 -64 c-49 -109 -135
-372 -176 -537 -67 -265 -109 -528 -132 -823 -7 -80 -13 -146 -15 -148 -1 -1
-5 89 -9 200 -25 751 -103 1432 -232 2043 -31 147 -113 475 -124 494 -4 9 -26
-60 -53 -175 -175 -720 -273 -1465 -309 -2344 l-12 -305 -13 120 c-25 234 -79
465 -160 685 -39 107 -162 360 -174 360 -13 0 -116 -189 -163 -301 -113 -270
-176 -545 -202 -874 l-7 -90 -14 70 c-16 83 -77 215 -137 299 -43 61 -198 216
-215 216 -15 0 -156 -154 -200 -218 -58 -85 -105 -188 -127 -274 l-19 -73 -7
140 c-22 433 -80 828 -178 1200 -66 252 -174 566 -190 548 -24 -27 -136 -352
-185 -538 -85 -319 -161 -818 -166 -1084 -3 -130 -17 -11 -18 149 -5 604 -76
1549 -166 2210 -46 336 -173 1041 -191 1059 -8 8 -12 -7 -47 -194 -164 -860
-266 -1848 -296 -2857 l-7 -233 -6 235 c-4 129 -12 444 -18 700 -31 1370 -122
2741 -255 3865 -37 313 -88 695 -92 691 -16 -15 -130 -1036 -183 -1626 -98
-1106 -175 -2659 -181 -3670 -1 -113 -3 -198 -5 -190 -2 8 -8 161 -14 340 -29
899 -106 1766 -220 2510 -29 186 -110 642 -115 648 -1 1 -16 -66 -33 -150
-187 -910 -301 -2056 -329 -3288 -6 -250 -9 -308 -15 -250 -30 281 -43 372
-69 506 -37 190 -84 363 -144 529 -51 140 -133 325 -145 325 -15 0 -119 -257
-169 -417 -96 -314 -155 -653 -177 -1023 l-7 -125 -13 80 c-18 110 -57 242
-106 353 -41 95 -149 266 -213 337 l-35 40 -31 -35 c-163 -184 -274 -412 -315
-654 -9 -50 -17 -92 -18 -94 -2 -1 -6 62 -10 140 -23 487 -124 986 -278 1372
-21 54 -49 118 -62 143 l-22 45 -43 -107 c-161 -404 -241 -783 -299 -1415 l-9
-95 -2 112 c-5 448 -68 1148 -147 1653 -56 360 -183 964 -213 1018 -10 17
-117 -413 -165 -663 -107 -556 -170 -1146 -197 -1850 -6 -165 -13 -302 -15
-304 -2 -2 -4 17 -4 42 0 59 -26 244 -51 367 -28 137 -74 289 -126 420 -46
118 -151 330 -162 330 -18 0 -132 -222 -190 -368 -94 -235 -171 -594 -171
-796 0 -34 -3 -66 -7 -69 -3 -4 -15 25 -25 64 -36 143 -113 272 -235 394 -111
112 -100 111 -197 13 -323 -327 -365 -701 -118 -1035 56 -75 186 -203 207
-203 18 0 132 100 180 158 26 31 64 86 85 122 40 66 90 201 90 240 0 12 4 19
8 16 5 -3 12 -57 15 -120 12 -200 60 -438 132 -647 57 -164 200 -449 225 -449
25 0 155 277 214 455 65 198 126 507 126 639 0 27 2 47 4 45 2 -2 9 -137 15
-299 24 -611 72 -1116 156 -1615 59 -349 188 -907 205 -888 4 4 28 94 53 198
173 722 279 1539 304 2340 4 127 8 223 10 215 1 -8 9 -100 18 -205 30 -366 95
-708 192 -1010 51 -162 134 -368 143 -358 16 16 103 230 146 360 115 344 187
746 212 1188 l7 130 19 -100 c23 -123 55 -224 107 -334 42 -91 146 -251 205
-316 l36 -40 24 30 c181 220 303 493 337 755 1 14 6 -31 11 -100 23 -376 81
-710 177 -1023 50 -160 154 -417 169 -417 8 0 75 141 118 250 106 269 192 632
222 945 25 248 26 245 33 -85 27 -1228 142 -2378 329 -3288 17 -84 32 -151 33
-150 5 6 86 462 115 648 114 744 191 1611 220 2510 6 179 12 332 14 340 2 8 4
-77 5 -190 7 -1118 89 -2695 207 -3940 44 -471 145 -1344 157 -1356 4 -4 46
303 83 611 139 1150 232 2545 264 3945 6 256 14 571 18 700 l6 235 7 -233 c30
-1009 132 -1997 296 -2857 35 -187 39 -202 47 -194 18 18 145 723 191 1059 90
661 161 1606 166 2210 1 160 15 279 18 149 4 -260 81 -766 162 -1069 53 -198
165 -527 189 -553 16 -17 124 295 190 548 98 372 156 768 178 1200 l7 140 18
-70 c24 -93 84 -215 145 -296 54 -71 167 -179 188 -179 21 0 183 160 226 223
57 83 104 190 121 272 l14 70 7 -90 c33 -419 130 -763 298 -1058 73 -127 62
-131 153 50 131 263 211 546 249 878 13 113 14 116 15 50 1 -38 6 -169 11
-290 37 -830 138 -1583 307 -2272 l48 -196 13 44 c185 621 316 1564 348 2492
4 114 8 206 9 205 2 -2 8 -66 14 -143 39 -486 146 -961 297 -1320 l38 -90 33
70 c178 382 296 918 329 1490 l8 130 12 -75 c41 -235 139 -453 285 -635 33
-41 63 -75 65 -75 11 0 58 61 125 158 118 176 188 344 226 544 l18 93 7 -120
c30 -498 128 -940 294 -1333 26 -61 51 -109 56 -104 4 4 34 68 67 142 153 350
246 741 281 1180 7 80 13 146 14 148 2 1 6 -163 9 -365 17 -987 106 -2019 247
-2849 45 -267 99 -542 109 -562 8 -14 19 41 76 373 88 511 158 1083 204 1685
32 414 60 949 62 1170 0 79 4 118 9 105 5 -11 9 -173 9 -360 3 -1169 72 -3114
161 -4530 57 -906 180 -2406 199 -2428 7 -7 62 525 101 973 143 1650 235 3668
257 5635 8 709 13 698 33 -70 25 -988 88 -2014 181 -2935 58 -575 138 -1204
151 -1174 8 22 66 425 102 724 141 1142 231 2546 253 3920 3 234 8 421 9 415
2 -5 8 -161 14 -345 36 -1117 136 -2075 306 -2955 19 -99 38 -188 42 -199 13
-32 112 524 176 994 106 773 153 1372 193 2475 l7 200 7 -168 c24 -559 104
-1167 220 -1657 31 -131 107 -408 117 -424 11 -19 118 353 171 594 112 504
171 1011 197 1690 l7 175 17 -87 c20 -96 88 -249 147 -331 48 -67 183 -207
199 -207 19 0 140 136 195 219 59 90 104 195 134 316 l23 90 1 -65 c4 -271 71
-702 156 -1012 61 -219 187 -558 209 -561 26 -5 172 388 232 621 61 239 121
625 125 807 l2 60 7 -55 c5 -30 8 -109 9 -175 3 -369 61 -1092 122 -1535 61
-442 216 -1208 239 -1183 11 11 81 326 124 558 117 626 188 1315 216 2089 6
160 13 292 15 295 3 2 5 -25 5 -61 0 -233 73 -712 155 -1023 62 -235 189 -586
205 -568 11 12 102 260 139 378 108 354 182 756 211 1150 7 88 13 161 14 162
1 2 10 -82 19 -186 38 -427 131 -816 278 -1161 l53 -125 48 100 c156 327 280
822 305 1219 3 58 8 104 11 101 3 -2 8 -163 13 -357 28 -1177 132 -2225 311
-3145 22 -117 44 -213 48 -213 8 0 77 382 120 660 114 748 195 1687 218 2520
8 302 18 255 21 -95 5 -737 64 -2031 136 -2965 66 -847 208 -2170 227 -2108
10 33 71 508 112 879 136 1218 220 2665 243 4159 8 512 6 518 33 -100 32 -749
112 -1534 221 -2160 30 -175 110 -573 119 -588 7 -15 62 255 109 543 132 799
212 1701 238 2665 8 298 9 298 33 10 36 -435 143 -932 276 -1275 25 -66 48
-128 51 -137 3 -10 8 -18 12 -18 18 0 145 388 201 615 98 393 135 659 166
1180 l7 110 13 -61 c17 -84 62 -189 117 -271 45 -68 195 -223 215 -223 15 0
119 88 165 139 85 95 160 238 189 362 l13 54 3 -45 c24 -403 128 -789 292
-1079 78 -138 69 -135 122 -39 134 239 236 556 273 851 8 62 18 141 23 177 6
51 9 10 15 -195 22 -805 128 -1637 304 -2370 25 -104 49 -194 53 -198 14 -15
119 420 179 739 96 513 175 1291 182 1784 l2 105 8 -140 c4 -77 13 -284 19
-460 34 -988 136 -1940 297 -2770 35 -181 48 -234 54 -215 28 84 138 769 183
1140 86 693 153 1672 157 2260 0 91 4 188 8 215 6 44 8 35 14 -66 14 -223 66
-554 123 -784 48 -188 148 -474 207 -592 l23 -45 31 69 c109 237 199 536 257
854 28 153 66 464 67 554 0 40 3 53 8 40 5 -11 11 -135 14 -275 17 -657 86
-1384 192 -2005 50 -291 128 -673 145 -704 13 -25 112 419 174 781 98 571 164
1237 183 1848 8 246 21 249 23 5 1 -388 51 -1186 106 -1720 56 -547 153 -1193
233 -1550 20 -92 20 -93 55 95 159 852 266 1823 306 2770 7 146 15 333 19 415
l8 150 2 -210 c8 -1150 83 -2698 187 -3865 37 -423 135 -1313 157 -1430 2 -8
15 73 30 180 150 1077 256 2408 307 3855 13 362 30 1084 30 1269 0 77 2 137 4
135 2 -2 9 -134 15 -294 33 -829 100 -1540 212 -2235 29 -183 128 -691 135
-699 9 -10 15 16 58 244 132 705 220 1482 266 2330 10 197 29 703 31 860 1 83
3 77 15 -75 29 -352 73 -627 149 -939 44 -180 131 -459 179 -577 l25 -59 24
55 c176 399 314 1067 333 1620 7 216 11 234 34 149 22 -84 66 -180 121 -261
46 -67 183 -208 203 -208 7 0 42 24 78 54 131 108 237 278 277 441 l19 80 1
-70 c3 -196 56 -489 127 -705 45 -134 144 -349 204 -444 l32 -49 20 34 c40 65
136 265 173 358 87 222 149 502 168 761 1 19 6 -71 10 -200 32 -947 130 -1739
304 -2452 20 -82 39 -148 43 -148 4 0 22 54 39 119 172 651 275 1383 315 2247
l12 259 7 -235 c32 -1025 100 -1823 222 -2600 41 -268 133 -745 141 -737 6 6
93 496 123 692 63 414 121 927 156 1375 34 439 65 1105 65 1394 0 82 2 147 4
145 2 -2 9 -105 15 -229 29 -567 90 -1062 192 -1573 47 -239 140 -623 158
-654 17 -31 141 462 205 817 84 464 133 929 156 1480 11 253 20 347 20 209 0
-163 60 -563 120 -795 55 -212 197 -604 220 -604 10 0 95 184 141 306 55 147
113 356 148 537 26 134 39 223 69 492 6 55 10 9 15 -210 35 -1284 135 -2307
318 -3243 23 -117 44 -211 45 -209 7 6 93 494 128 722 115 743 198 1650 224
2445 l8 225 7 -165 c3 -91 9 -502 12 -915 16 -2293 108 -4889 250 -7025 27
-407 84 -1169 88 -1184 7 -21 91 1077 131 1709 135 2098 209 4331 238 7225 1
96 5 -48 9 -320 33 -2161 152 -4209 338 -5820 21 -180 21 -178 51 110 164
1605 267 3428 300 5287 6 340 14 722 19 848 l8 230 1 -165 c7 -672 73 -1761
158 -2620 65 -655 190 -1582 206 -1524 4 16 28 160 52 319 170 1099 273 2407
302 3828 4 180 8 326 10 325 1 -2 7 -122 13 -268 35 -791 116 -1507 242 -2135
44 -218 100 -459 110 -470 6 -5 9 -5 9 1 0 6 18 94 40 195 168 781 259 1591
297 2644 l7 210 8 -145 c29 -585 108 -1141 229 -1600 47 -180 122 -411 130
-403 12 13 83 253 128 431 126 502 210 1097 228 1622 7 207 12 207 32 -1 34
-360 134 -721 286 -1033 21 -42 41 -76 44 -76 11 0 136 263 175 366 81 215
145 499 171 754 9 85 17 162 18 170 2 8 6 -39 11 -105 33 -541 148 -1044 331
-1450 l27 -60 25 55 c42 95 111 294 153 440 90 319 146 680 168 1075 l7 130
18 -93 c44 -233 132 -425 290 -635 28 -37 54 -67 58 -67 13 0 136 163 184 244
82 139 133 281 164 455 l18 96 7 -120 c21 -350 76 -671 167 -969 35 -112 122
-332 166 -420 l30 -59 43 99 c138 314 243 732 280 1109 25 248 26 245 33 -90
27 -1229 152 -2469 339 -3336 l22 -104 23 120 c121 629 215 1345 273 2070 33
425 60 941 60 1159 0 71 2 127 5 125 2 -3 9 -351 15 -774 21 -1585 65 -2889
140 -4220 60 -1050 189 -2677 206 -2595 2 8 19 179 39 380 181 1886 281 3920
316 6430 6 432 12 787 15 789 2 2 4 -52 4 -120 0 -68 5 -223 10 -344 44 -960
143 -1829 290 -2551 23 -109 44 -214 47 -232 3 -18 7 -31 9 -30 6 7 68 329
104 548 132 791 218 1735 237 2605 3 171 10 321 14 335 5 18 8 8 8 -36 4 -249
82 -749 171 -1089 65 -249 174 -565 190 -548 11 12 84 205 123 328 159 497
237 1042 237 1665 0 623 -78 1168 -237 1665 -39 123 -112 316 -123 328 -16 17
-127 -303 -190 -548 -89 -343 -167 -841 -171 -1089 0 -44 -3 -54 -8 -36 -4 14
-11 165 -14 335 -22 1018 -140 2166 -307 2990 -16 83 -30 155 -31 160 -6 56
-142 -685 -193 -1050 -88 -636 -166 -1616 -166 -2104 0 -68 -2 -122 -4 -120
-3 2 -9 357 -15 789 -35 2509 -135 4545 -316 6430 -20 201 -37 372 -38 380 -6
29 -17 -70 -52 -455 -167 -1880 -262 -3924 -295 -6355 -6 -426 -13 -776 -15
-779 -3 -2 -5 54 -5 125 0 218 -27 734 -60 1159 -53 670 -137 1329 -246 1925
-24 135 -46 249 -47 255 -12 37 -133 -654 -191 -1085 -100 -742 -171 -1752
-177 -2510 -2 -177 -5 -168 -29 75 -37 377 -142 795 -280 1109 l-43 99 -30
-59 c-44 -88 -131 -308 -166 -420 -91 -298 -147 -621 -167 -969 l-7 -120 -18
105 c-41 242 -155 483 -307 650 l-42 45 -20 -25 c-172 -206 -286 -441 -326
-674 -9 -50 -17 -92 -18 -94 -2 -1 -6 62 -10 140 -25 527 -139 1081 -305 1479
l-38 93 -23 -50 c-182 -405 -293 -881 -331 -1418 -7 -91 -13 -165 -15 -164 -1
2 -8 59 -14 128 -36 382 -127 728 -270 1025 -86 179 -77 176 -138 47 -136
-287 -230 -629 -267 -972 -28 -260 -30 -262 -38 -45 -17 494 -96 1074 -213
1565 -43 181 -135 500 -144 500 -3 0 -27 -66 -53 -147 -167 -531 -271 -1167
-305 -1868 l-8 -150 -7 210 c-39 1068 -131 1888 -298 2663 -23 106 -45 189
-49 185 -19 -20 -121 -502 -174 -818 -79 -470 -141 -1068 -166 -1595 -7 -129
-15 -289 -19 -355 l-8 -120 -2 140 c-10 932 -84 2185 -182 3075 -48 439 -149
1159 -177 1264 -6 23 -16 -21 -40 -185 -177 -1174 -290 -2521 -321 -3829 l-7
-295 -6 245 c-4 135 -12 515 -18 845 -32 1808 -132 3600 -285 5125 -45 453
-44 448 -66 266 -94 -780 -191 -1982 -249 -3096 -47 -907 -87 -2204 -92 -2935
-1 -315 -1 -309 -28 1420 -31 2088 -106 4030 -225 5840 -42 632 -120 1609
-124 1550z"/>
</g>
</svg>
