<?xml version="1.0" standalone="no"?>
<!DOCTYPE svg PUBLIC "-//W3C//DTD SVG 20010904//EN"
 "http://www.w3.org/TR/2001/REC-SVG-20010904/DTD/svg10.dtd">
<svg version="1.0" xmlns="http://www.w3.org/2000/svg"
 width="843.000000pt" height="1189.000000pt" viewBox="0 0 843.000000 1189.000000"
 preserveAspectRatio="xMidYMid meet">
<metadata>
Created by potrace 1.16, written by Peter Selinger 2001-2019
</metadata>
<g transform="translate(0.000000,1189.000000) scale(0.100000,-0.100000)"
fill="#000000" stroke="none">
<path d="M3533 11850 c-70 -38 -115 -65 -458 -275 -150 -92 -315 -179 -412
-218 -41 -16 -43 -19 -43 -60 0 -23 7 -99 15 -167 41 -327 129 -638 261 -917
l53 -113 -90 0 c-236 0 -428 -90 -499 -235 -36 -72 -35 -181 1 -250 52 -102
160 -149 286 -126 37 7 103 27 147 44 103 40 186 119 237 222 30 60 34 78 33
145 0 70 -5 87 -81 275 -145 357 -213 582 -213 699 l0 64 88 50 c48 28 161
102 252 166 230 160 362 233 459 252 28 6 30 4 41 -37 54 -214 152 -433 277
-624 l79 -120 -66 -3 c-250 -12 -400 -128 -429 -335 -11 -80 -3 -117 42 -183
44 -66 117 -104 198 -104 111 0 280 75 381 169 60 55 108 132 108 172 0 11
-46 87 -103 168 -56 80 -121 175 -144 211 -203 321 -296 611 -324 1005 -7 91
-15 165 -18 165 -3 0 -38 -18 -78 -40z"/>
<path d="M1685 10642 c-113 -62 -219 -154 -288 -250 l-30 -42 -24 40 c-29 48
-67 70 -122 70 -54 0 -111 -48 -111 -92 0 -95 139 -194 203 -145 9 6 42 53 75
102 63 97 131 173 184 205 45 27 55 25 68 -14 13 -41 -3 -87 -44 -125 -14 -14
-26 -28 -26 -33 0 -13 58 -9 95 6 51 22 67 61 66 169 -1 65 3 97 14 114 21 31
3 30 -60 -5z"/>
<path d="M2375 8999 c-35 -15 -64 -20 -97 -16 -27 2 -48 1 -48 -3 0 -15 137
-137 200 -178 36 -23 101 -56 145 -74 l80 -31 -39 -39 c-37 -37 -38 -40 -34
-93 5 -59 23 -87 71 -111 25 -13 32 -13 72 5 35 15 49 30 69 70 14 28 26 65
26 83 0 57 -21 74 -132 108 -125 39 -215 82 -269 129 l-42 35 27 23 c39 33 89
34 145 2 18 -11 36 -18 38 -15 12 12 -11 62 -42 93 -28 28 -40 33 -76 32 -24
0 -66 -9 -94 -20z"/>
<path d="M5652 8886 c-48 -133 -75 -232 -98 -371 -24 -137 -24 -450 0 -643 9
-79 15 -146 13 -149 -3 -2 -23 5 -46 16 -61 32 -168 54 -221 46 -99 -15 -205
-90 -242 -172 -29 -66 -41 -146 -28 -194 26 -95 150 -177 282 -187 164 -12
315 57 373 168 15 30 14 40 -24 218 -61 285 -74 386 -74 572 0 172 16 278 51
350 14 30 21 35 47 32 50 -5 132 -51 170 -95 51 -60 69 -128 63 -249 -3 -65
-1 -98 6 -98 5 0 38 28 72 63 101 104 120 209 59 333 -29 58 -65 98 -228 250
-80 74 -116 133 -117 192 0 17 -4 32 -8 32 -4 0 -27 -51 -50 -114z"/>
<path d="M3117 8082 c-127 -145 -239 -318 -305 -474 -14 -35 -27 -64 -28 -66
-1 -1 -28 22 -60 52 -80 74 -148 107 -220 107 -36 0 -60 -4 -65 -13 -5 -7 -14
-13 -21 -14 -53 -4 -93 -72 -86 -146 6 -60 49 -109 130 -150 68 -35 124 -43
186 -29 82 20 115 56 194 215 91 182 141 267 192 323 l41 45 49 -16 c27 -9
115 -33 195 -53 140 -34 261 -79 275 -101 4 -6 -10 -37 -31 -69 -60 -93 -118
-238 -147 -366 l-7 -29 -39 36 c-61 55 -117 80 -180 80 -146 1 -239 -137 -165
-246 56 -83 254 -145 333 -104 28 15 32 24 58 133 70 307 149 464 328 650 49
51 87 95 85 96 -2 2 -22 9 -44 15 -352 107 -452 140 -516 168 -43 19 -79 34
-81 33 -1 0 -34 -35 -71 -77z"/>
<path d="M6060 6294 c-96 -7 -479 -34 -850 -59 -371 -24 -767 -52 -880 -60
-113 -8 -477 -33 -810 -55 -871 -58 -2031 -137 -2275 -155 -115 -8 -223 -15
-239 -15 -36 0 -104 -70 -141 -144 -25 -50 -25 -50 -25 -362 l0 -311 -268 -7
c-147 -3 -318 -9 -381 -13 l-113 -6 -19 -31 c-45 -73 -54 -160 -54 -501 0
-190 5 -376 13 -458 11 -112 11 -160 1 -249 -15 -142 -6 -1068 15 -1563 22
-497 65 -1329 72 -1402 3 -34 11 -67 18 -72 7 -6 159 -27 337 -46 178 -19 423
-46 544 -60 121 -13 488 -54 815 -90 1099 -120 3241 -355 3650 -400 223 -24
632 -69 910 -100 278 -30 673 -74 879 -97 249 -27 381 -38 395 -32 12 5 107
99 211 209 104 110 252 265 331 345 l142 145 6 325 c4 179 13 604 21 945 42
1832 67 3056 61 3071 -3 8 -57 39 -118 69 -62 29 -199 93 -304 143 l-191 89
-164 -8 c-90 -4 -221 -8 -291 -8 l-128 -1 0 45 c0 72 -19 79 -191 70 -137 -7
-141 -8 -150 -32 -5 -13 -9 -39 -9 -57 0 -43 -11 -46 -157 -46 l-113 0 0 384
c0 221 -4 395 -10 410 -11 29 -115 175 -138 194 -20 15 -166 14 -402 -4z m85
-113 c-6 -5 -86 -14 -180 -20 -333 -22 -473 -31 -730 -46 -298 -18 -595 -36
-1045 -65 -173 -10 -470 -29 -660 -40 -190 -11 -408 -24 -485 -30 -77 -5 -257
-17 -400 -25 -234 -14 -606 -36 -835 -50 -47 -3 -152 -10 -235 -15 -311 -19
-471 -13 -230 9 100 10 534 37 1685 106 228 13 480 29 560 34 162 11 330 22
820 51 184 11 364 22 400 25 36 2 218 14 405 25 187 11 430 27 540 34 244 16
402 19 390 7z m216 -299 l76 -108 6 -237 6 -237 -90 0 -89 0 -7 30 c-6 35 -28
50 -72 50 -50 0 -61 -9 -61 -51 l0 -39 -113 0 -113 0 -9 32 c-20 67 -116 60
-123 -9 l-3 -32 -115 -3 -114 -3 0 26 c0 37 -21 51 -72 47 -42 -3 -43 -4 -46
-40 l-3 -37 -114 -3 -114 -3 -3 35 c-3 35 -3 35 -56 38 -48 3 -53 1 -62 -22
-5 -14 -7 -33 -4 -41 4 -10 0 -15 -12 -15 -11 0 -388 -11 -839 -25 -451 -14
-853 -25 -892 -25 l-73 0 0 48 c0 26 -5 53 -12 60 -8 8 -50 12 -125 12 -101 0
-115 -2 -134 -21 -16 -16 -20 -30 -17 -65 l3 -44 -52 0 -53 0 0 49 c0 69 -10
75 -132 69 -91 -5 -103 -7 -121 -29 -13 -16 -18 -35 -15 -60 l3 -38 -80 -5
c-44 -3 -144 -7 -222 -9 l-141 -2 -6 47 c-9 64 -26 72 -139 65 -107 -7 -121
-16 -119 -81 l2 -46 -45 0 -45 0 0 38 c0 21 -7 48 -16 61 -17 23 -20 23 -117
17 -56 -4 -104 -9 -109 -12 -4 -3 -8 -30 -8 -60 l0 -54 -82 0 c-46 0 -180 -3
-299 -7 l-217 -6 -4 194 -5 194 53 82 53 81 63 6 c88 8 474 30 1228 71 355 19
715 39 800 45 85 6 524 31 975 56 841 47 2142 120 2160 123 6 0 44 -48 86
-107z m623 -631 c3 -5 -1 -11 -9 -15 -24 -9 -17 -21 12 -23 16 -1 21 2 13 7
-9 6 -7 11 10 20 18 9 21 9 15 0 -4 -7 -1 -16 6 -21 12 -8 11 -12 -3 -23 -10
-7 -18 -19 -18 -26 0 -9 -17 -11 -67 -6 -85 7 -53 -10 38 -20 56 -6 62 -5 56
10 -5 13 0 18 22 22 20 4 28 11 24 20 -3 10 0 12 10 8 18 -7 19 -44 1 -44 -7
0 -20 -7 -28 -16 -12 -12 -31 -15 -70 -12 -33 2 -52 -1 -50 -7 6 -15 164 -6
180 10 11 10 11 14 1 18 -6 3 0 6 15 6 15 1 30 -4 33 -9 4 -6 11 -8 16 -4 15
9 61 -5 54 -16 -3 -6 3 -10 14 -10 l20 0 -20 35 c-12 19 -26 38 -32 42 -6 3
-7 1 -3 -5 4 -7 1 -12 -6 -12 -7 0 -19 10 -27 21 -12 20 -11 21 8 16 11 -3 25
1 31 8 6 8 18 11 26 8 7 -3 17 2 20 11 3 9 11 16 17 16 8 0 7 -4 -1 -12 -9 -9
-9 -15 1 -26 10 -13 8 -14 -11 -8 -17 6 -22 3 -22 -9 0 -12 6 -15 20 -11 11 3
30 9 42 12 20 6 21 5 9 -10 -7 -9 -25 -17 -40 -17 -23 -2 -24 -2 -3 -6 12 -2
22 -8 22 -13 0 -4 9 -6 21 -3 14 4 17 8 9 13 -12 8 -8 12 22 23 12 4 15 2 11
-10 -3 -8 0 -19 8 -24 11 -7 9 -9 -8 -9 -12 0 -25 -4 -28 -10 -4 -6 14 -10 46
-10 49 0 51 1 33 15 -12 9 -14 14 -5 15 8 0 11 6 7 17 -4 10 -4 14 0 11 3 -4
19 -1 35 7 31 17 52 20 29 5 -9 -6 -10 -10 -3 -10 6 0 14 4 18 10 3 5 12 7 20
4 8 -4 13 -10 10 -14 -3 -5 5 -16 17 -24 12 -9 19 -19 15 -23 -4 -3 -16 3 -28
15 -11 13 -24 20 -28 18 -14 -9 -5 -46 14 -60 24 -17 48 -10 60 17 6 12 19 22
30 23 16 1 16 0 2 -3 -9 -3 -15 -9 -12 -14 4 -5 1 -9 -6 -9 -7 0 -9 -8 -6 -21
5 -17 2 -20 -16 -15 -21 5 -47 -9 -47 -26 0 -5 6 -8 13 -7 27 3 47 -2 47 -12
0 -6 -9 -8 -21 -4 -16 5 -19 4 -14 -6 6 -9 4 -11 -8 -6 -25 9 -17 -63 10 -90
12 -12 23 -19 26 -17 9 9 47 13 47 5 0 -5 11 -11 25 -13 14 -3 25 -1 25 3 0 5
-9 9 -20 9 -14 0 -18 5 -13 16 5 13 7 13 14 2 8 -11 11 -11 18 1 7 11 10 10
13 -5 2 -13 6 -15 11 -7 4 6 0 19 -9 27 -14 15 -12 16 20 16 35 0 47 12 26 25
-6 4 -7 12 -4 18 5 8 3 8 -7 0 -18 -17 -26 -16 -26 3 0 11 9 14 35 12 34 -4
36 -5 37 -46 1 -23 -2 -42 -7 -42 -4 0 -8 3 -8 8 0 4 -11 8 -25 8 -14 1 -25
-2 -25 -7 0 -5 5 -9 10 -9 17 0 11 -28 -7 -32 -15 -3 -15 -4 0 -20 15 -15 15
-17 0 -30 -15 -11 -16 -11 -10 5 7 18 6 19 -36 21 -24 2 -26 0 -13 -10 15 -11
15 -12 1 -18 -9 -3 -13 -11 -10 -17 4 -6 0 -9 -11 -7 -10 2 -19 -3 -20 -9 -1
-7 -2 -18 -3 -24 0 -7 -11 -9 -25 -5 -38 9 -40 -10 -3 -34 17 -12 24 -19 15
-16 -10 3 -18 1 -18 -4 0 -6 5 -10 11 -10 5 0 7 -5 4 -10 -10 -16 -43 7 -48
32 -3 16 -5 11 -6 -12 -1 -26 5 -39 21 -49 17 -11 23 -11 26 -1 3 9 6 9 13 -1
7 -11 9 -10 9 4 0 9 7 17 15 17 8 0 15 4 15 9 0 10 53 5 105 -10 29 -8 29 -8
-10 -8 -22 1 -56 0 -75 -1 -32 -2 -33 -3 -10 -10 14 -4 36 -5 49 -2 16 3 22 1
17 -7 -9 -13 6 -15 20 -2 5 6 17 4 29 -6 19 -15 19 -15 -4 -8 -16 5 -21 4 -17
-4 4 -6 15 -11 24 -12 14 0 13 -2 -3 -9 -19 -8 -19 -9 -1 -9 14 -1 17 -7 14
-26 -3 -14 -1 -25 4 -25 5 0 6 -5 2 -11 -9 -16 -147 -6 -152 11 -3 9 -6 9 -13
-1 -14 -23 -20 -3 -7 22 10 18 22 25 53 26 35 2 38 1 22 -10 -52 -35 -54 -36
-27 -37 14 0 31 4 39 9 9 6 24 6 38 0 16 -6 22 -5 18 1 -3 6 -1 10 5 10 6 0 8
5 5 10 -4 7 -12 7 -25 0 -24 -13 -35 3 -15 20 17 14 20 30 5 30 -5 0 -10 -7
-10 -16 0 -13 -3 -14 -13 -5 -8 6 -33 9 -57 7 -24 -2 -58 3 -77 10 -20 9 -33
10 -33 4 0 -5 8 -10 18 -10 10 0 18 -8 19 -19 1 -14 -3 -17 -18 -14 -11 3 -19
0 -19 -7 0 -8 11 -11 30 -8 36 5 36 -14 0 -22 -32 -7 -36 -27 -9 -35 l23 -8
-23 -18 c-14 -12 -18 -19 -10 -19 12 0 12 -2 0 -9 -7 -5 -9 -11 -5 -13 17 -10
54 -1 75 18 21 18 22 18 16 0 -5 -13 -3 -17 6 -13 8 3 20 1 28 -4 11 -6 11
-11 2 -20 -9 -9 -16 -9 -28 1 -8 7 -18 10 -22 6 -3 -3 -1 -6 5 -6 7 0 12 -7
12 -15 0 -8 4 -15 9 -15 5 0 16 7 25 15 8 8 22 15 32 15 9 0 23 8 30 18 20 26
16 37 -6 17 -18 -17 -20 -17 -20 -1 0 14 -4 15 -20 6 -16 -8 -24 -6 -41 11
l-22 22 32 -5 c31 -5 42 5 19 16 -7 3 5 2 27 -1 22 -4 48 -7 57 -7 10 0 20 -6
22 -13 3 -7 0 -13 -7 -13 -7 0 -21 -14 -31 -31 l-19 -32 25 5 c15 3 25 0 25
-7 0 -8 -15 -11 -44 -10 -23 2 -40 -1 -38 -6 3 -4 12 -6 19 -3 8 3 17 1 21 -5
3 -6 16 -11 28 -12 29 -1 -80 -28 -115 -29 -14 0 -28 5 -30 10 -2 6 -12 12
-23 14 -11 2 -27 7 -36 11 -13 5 -15 1 -12 -19 5 -24 6 -24 28 -10 21 14 24
14 32 -1 7 -12 25 -17 69 -18 33 0 64 2 69 5 6 3 19 2 30 -3 11 -4 15 -8 8 -8
-7 -1 -10 -8 -6 -18 5 -12 3 -14 -7 -8 -10 6 -12 4 -7 -8 3 -9 1 -17 -4 -19
-6 -2 -7 -12 -3 -22 7 -19 8 -19 15 0 6 15 8 12 8 -13 1 -38 -11 -48 -39 -33
-23 12 -56 -4 -63 -32 -6 -23 2 -28 28 -17 17 6 17 8 3 8 -10 1 -18 5 -18 10
0 5 14 9 30 9 17 -1 30 -5 30 -11 0 -5 7 -6 16 -3 9 3 12 2 9 -5 -4 -5 -15 -7
-26 -4 -11 4 -19 2 -19 -4 0 -6 -7 -11 -16 -11 -11 0 -14 -5 -10 -16 5 -13 1
-15 -19 -10 -14 4 -25 2 -25 -4 0 -5 11 -10 25 -10 23 0 24 -2 15 -20 -6 -11
-17 -20 -25 -20 -8 0 -15 -5 -15 -11 0 -5 -3 -8 -7 -6 -5 3 -17 1 -28 -4 -14
-5 -5 -7 28 -5 26 2 51 7 55 11 4 5 1 5 -5 1 -18 -10 -16 4 4 26 20 22 37 24
29 3 -4 -10 1 -15 14 -15 15 0 20 -7 20 -29 0 -24 -3 -28 -20 -24 -16 4 -20 1
-17 -16 2 -11 6 -24 10 -27 4 -4 7 -13 7 -21 0 -9 -16 -13 -55 -13 -32 0 -55
4 -55 11 0 5 5 7 10 4 6 -3 10 -4 10 -1 0 3 -10 10 -21 17 -12 6 -19 7 -15 1
3 -5 -1 -16 -10 -23 -13 -10 -17 -10 -25 2 -6 9 -9 10 -9 2 0 -9 -19 -12 -60
-12 -42 1 -60 5 -60 14 0 7 -7 15 -14 18 -11 4 -13 1 -9 -10 5 -12 1 -14 -15
-8 -12 3 -22 2 -22 -3 0 -5 -104 -7 -247 -5 -191 2 -1086 9 -1685 12 -46 0
-58 3 -58 15 0 14 -24 16 -177 16 -337 0 -498 5 -505 14 -4 6 -12 5 -20 -1
-16 -14 -149 -14 -166 -1 -7 6 -12 6 -12 1 0 -13 -109 -6 -126 8 -11 9 -14 8
-14 -5 0 -10 -8 -16 -22 -16 -19 0 -20 2 -8 10 11 7 7 10 -17 10 -18 0 -33 5
-33 10 0 6 9 10 20 10 11 0 29 9 40 20 11 11 32 20 47 20 38 0 25 6 -25 13
-40 5 -42 4 -36 -15 5 -17 3 -20 -10 -15 -10 4 -14 3 -11 -3 3 -5 -4 -8 -15
-7 -26 2 -26 24 1 32 11 4 18 9 16 11 -2 3 -16 -1 -31 -7 -19 -9 -25 -17 -20
-28 16 -40 16 -51 0 -51 -10 0 -15 4 -12 9 3 5 -1 12 -10 15 -9 3 -12 2 -9 -4
8 -12 -35 -29 -54 -22 -12 5 -12 6 1 11 12 5 11 10 -10 31 -24 25 -24 25 -17
3 5 -20 3 -23 -18 -23 -14 0 -30 7 -37 15 -12 14 -15 14 -31 -1 -16 -15 -17
-14 -12 5 3 11 12 22 22 24 15 4 15 5 -1 6 -23 1 -50 -28 -45 -50 4 -16 -2
-18 -59 -15 -35 2 -68 7 -72 11 -4 5 1 5 10 2 10 -3 20 -2 23 3 8 13 55 13 55
0 0 -5 7 -10 15 -10 16 0 10 30 -9 42 -6 4 -7 10 -3 14 4 4 13 -1 20 -10 12
-16 13 -15 13 13 0 18 -5 31 -12 31 -7 0 -19 9 -27 21 -15 20 -15 20 -41 -6
-27 -27 -81 -33 -81 -8 0 7 -6 18 -14 25 -12 11 -13 10 -6 -2 7 -12 6 -13 -6
-4 -8 7 -36 12 -63 13 -53 0 -55 -7 -4 -18 l33 -8 -38 -4 c-26 -4 -43 0 -55
11 -15 15 -59 16 -402 14 -2009 -14 -2143 -14 -2156 -3 -12 9 -14 80 -14 393
0 209 4 386 8 393 11 17 78 22 442 29 184 3 338 8 342 10 4 3 83 5 175 6 213
2 256 6 240 23 -9 9 -21 10 -58 0 -30 -8 -52 -9 -63 -3 -10 5 -27 7 -39 4 -29
-7 -56 8 -31 18 9 3 25 4 35 1 11 -4 19 -2 19 4 0 6 3 10 7 10 18 -3 33 2 33
9 0 5 -13 9 -30 10 -16 0 -30 -4 -30 -9 0 -6 -9 -8 -19 -4 -11 3 -22 1 -26 -5
-3 -5 -11 -10 -18 -10 -6 0 -2 7 9 15 11 8 14 14 6 15 -10 0 -10 3 0 13 15 16
84 22 93 7 9 -15 25 -12 25 5 0 8 7 15 15 15 8 0 15 -5 15 -11 0 -8 5 -8 15 1
8 7 22 9 31 6 13 -5 14 -9 4 -21 -10 -12 -10 -15 0 -15 6 0 14 9 17 20 5 17
13 20 49 19 46 -3 52 -7 32 -27 -9 -9 -9 -12 -1 -12 7 0 15 5 18 10 3 6 16 10
28 10 17 0 19 2 8 9 -8 6 33 11 110 15 252 12 330 13 335 4 3 -4 11 -8 17 -8
7 0 6 4 -3 10 -10 6 18 9 85 8 55 0 147 2 205 5 58 4 209 9 335 12 127 3 273
7 325 10 109 5 351 13 660 20 118 3 265 7 325 10 61 2 216 7 345 10 129 3 269
8 312 11 52 3 78 1 83 -7 5 -8 10 -8 14 -1 4 7 115 14 311 18 168 4 426 11
575 16 181 5 271 5 273 -2 2 -5 13 -10 25 -10 18 0 19 2 7 10 -10 6 4 9 43 8
31 -1 60 1 64 5 9 10 21 9 27 -2z m-6221 -381 c292 -140 286 -549 -10 -680
-173 -76 -388 9 -473 187 -28 59 -38 179 -20 253 26 108 120 209 233 251 72
27 202 22 270 -11z m-497 -736 c-3 -7 0 -15 7 -18 7 -2 -6 -5 -28 -6 -35 -2
-37 -3 -15 -10 22 -7 21 -10 -9 -14 -5 0 -13 -4 -17 -8 -4 -5 -14 -8 -23 -8
-14 1 -13 3 2 14 17 13 16 14 -6 12 -26 -1 -36 -36 -11 -36 8 0 13 -4 10 -8
-3 -5 8 -6 25 -4 16 2 29 8 29 13 0 20 26 7 28 -14 1 -20 -2 -22 -46 -19 l-47
2 40 -15 c22 -8 41 -15 43 -15 1 0 2 -5 2 -10 0 -7 -29 -10 -77 -8 l-78 3 -3
47 c-2 41 0 47 15 42 12 -4 10 1 -7 15 -23 19 -23 21 -5 19 36 -2 55 2 55 13
0 5 -5 7 -12 3 -7 -5 -8 -3 -3 5 4 7 17 10 30 7 13 -3 27 -2 30 4 3 5 11 10
16 10 6 0 8 -4 5 -9 -4 -5 3 -7 14 -4 11 3 17 9 14 14 -3 5 2 6 11 3 9 -4 14
-12 11 -20z m4673 -260 c30 -6 31 -9 31 -55 0 -36 -4 -49 -14 -49 -8 0 -18 -5
-22 -11 -4 -8 0 -9 15 -4 21 6 21 5 21 -159 0 -151 -2 -166 -17 -167 -17 -1
-17 -2 0 -6 15 -4 17 -18 17 -104 0 -88 2 -99 18 -99 9 0 97 -5 194 -10 98 -5
244 -12 325 -14 239 -9 336 -18 351 -32 18 -19 28 -18 12 1 -10 12 -9 15 6 15
26 0 44 -13 36 -25 -11 -15 -95 -35 -123 -29 -17 4 -20 3 -11 -4 10 -6 0 -13
-35 -23 -26 -7 -50 -14 -53 -14 -3 0 -14 -6 -25 -12 -11 -6 -29 -13 -40 -14
-11 -2 -22 -7 -25 -10 -3 -4 -30 -19 -60 -34 -30 -15 -72 -39 -93 -52 -21 -13
-43 -21 -49 -17 -6 4 -8 3 -5 -3 4 -6 -14 -25 -39 -43 -25 -18 -70 -54 -101
-81 -31 -27 -60 -46 -66 -42 -5 3 -7 2 -4 -4 4 -5 -7 -23 -23 -38 -28 -27 -30
-27 -55 -11 -14 9 -25 12 -25 6 0 -6 11 -15 26 -20 l25 -10 -37 -44 c-21 -25
-41 -43 -46 -40 -4 3 -5 -2 -2 -10 4 -10 -6 -23 -28 -37 -18 -11 -26 -19 -16
-16 11 4 0 -20 -32 -71 -26 -42 -54 -76 -61 -76 -8 1 -26 4 -41 7 -38 8 -35
-2 4 -15 28 -10 30 -12 12 -19 -18 -7 -18 -8 2 -8 21 -1 20 -4 -14 -85 -28
-64 -39 -82 -49 -75 -7 6 -16 8 -22 5 -5 -3 -12 1 -15 10 -5 12 -2 15 9 10 9
-3 13 -2 10 4 -3 6 -17 7 -31 4 -23 -6 -36 10 -14 18 6 2 1 9 -11 16 -20 13
-21 12 -15 -11 3 -14 2 -29 -4 -32 -6 -4 -10 28 -10 89 0 52 4 98 10 101 6 3
10 11 10 16 0 6 -4 7 -10 4 -6 -3 -10 5 -10 19 0 24 2 25 28 16 25 -9 26 -9 8
5 -11 8 -24 15 -29 15 -14 0 -3 63 12 68 9 3 11 -2 6 -17 -4 -15 -2 -21 9 -21
24 0 15 40 -11 46 -25 7 -27 12 -14 33 5 8 14 10 21 6 9 -5 11 -4 6 3 -4 7
-15 12 -24 12 -16 1 -15 2 1 14 17 13 17 14 0 21 -15 6 -12 9 15 17 17 5 32
13 32 20 0 7 -5 6 -15 -2 -19 -16 -36 -3 -36 26 -2 313 2 478 12 490 6 8 8 14
3 14 -5 0 -7 55 -6 122 3 96 8 127 20 143 16 18 16 19 0 6 -17 -13 -18 -7 -18
92 0 63 4 108 10 112 6 4 8 16 4 28 -6 18 -9 105 -5 140 1 9 146 10 190 1z
m-1424 -44 c4 -6 12 -8 18 -4 7 3 3 -2 -7 -10 -18 -15 -16 -16 39 -11 32 3 64
9 70 14 25 20 46 19 64 -1 18 -19 21 -19 35 -5 14 14 14 16 -2 20 -9 3 8 3 38
1 30 -2 127 -4 214 -4 112 0 163 -4 174 -12 9 -7 13 -8 9 -2 -9 15 194 17 231
2 25 -10 26 -11 7 -18 -17 -7 -16 -9 10 -9 17 -1 41 -4 54 -8 17 -4 22 -3 17
5 -4 7 -16 12 -27 12 -11 0 -17 5 -14 10 3 6 49 10 101 10 61 0 93 -4 89 -10
-4 -7 3 -7 20 0 36 14 45 13 45 -6 0 -9 -6 -14 -13 -11 -8 3 -20 1 -28 -4 -12
-8 -12 -10 1 -8 36 4 40 -1 40 -51 0 -43 -2 -49 -17 -43 -16 5 -16 4 1 -9 17
-13 18 -26 12 -149 -3 -74 -5 -167 -6 -208 0 -61 -2 -72 -14 -62 -11 9 -13 6
-13 -14 0 -14 4 -28 10 -32 6 -4 8 0 4 10 -3 10 -2 17 4 17 7 0 9 -74 7 -227
l-4 -228 -25 2 -24 3 21 -18 c20 -17 22 -29 23 -160 l2 -142 -33 6 c-25 4 -29
3 -18 -5 8 -6 23 -11 33 -11 19 0 24 -30 5 -31 -10 0 -10 -2 0 -6 6 -2 12 -15
12 -28 0 -13 -6 -26 -12 -28 -9 -4 -9 -8 -3 -14 13 -11 17 -73 4 -73 -6 0 -7
-4 -4 -10 3 -6 2 -10 -3 -10 -6 0 -13 8 -16 17 -5 12 -9 14 -18 5 -14 -14 -68
-16 -68 -3 0 4 14 7 30 5 32 -4 42 12 13 19 -12 3 -8 7 15 12 40 9 49 20 16
20 -13 0 -24 -3 -24 -6 0 -3 -11 -11 -25 -17 l-25 -12 0 90 c0 60 4 90 11 90
8 0 8 4 2 13 -5 6 -10 25 -11 41 -2 21 2 27 13 22 8 -3 17 -1 20 3 2 5 -4 11
-15 14 -27 7 -25 35 3 40 l22 4 -22 8 c-18 6 -20 11 -13 31 5 13 6 23 2 22 -4
-1 -14 2 -22 5 -27 11 -194 24 -261 21 l-67 -4 12 25 c7 16 17 23 26 19 8 -3
11 -2 7 3 -5 4 -24 8 -43 9 -25 0 -34 -3 -30 -13 3 -7 0 -13 -7 -14 -7 0 -3
-4 8 -9 14 -6 0 -9 -47 -9 -37 -1 -70 4 -73 9 -3 6 -11 10 -16 10 -6 0 -8 -4
-5 -9 3 -5 -9 -7 -27 -6 -17 2 -65 3 -106 4 -41 1 -71 4 -68 8 4 3 2 12 -5 20
-8 11 -7 12 6 7 9 -3 16 -10 16 -15 0 -15 27 -10 41 8 10 11 10 14 2 9 -8 -4
-13 -2 -13 4 0 7 -7 10 -14 7 -10 -4 -13 -1 -9 9 4 11 9 12 16 5 17 -17 45
-13 49 7 3 14 9 11 35 -16 26 -28 31 -31 37 -17 4 12 2 16 -8 12 -10 -4 -13
-1 -9 9 3 7 0 14 -6 14 -6 0 -11 10 -11 23 0 17 -2 19 -10 7 -7 -12 -13 -11
-34 10 -15 13 -26 29 -26 36 0 13 -48 13 -69 0 -7 -5 -15 -5 -18 -2 -3 3 1 8
10 12 9 3 13 12 10 21 -5 12 -3 14 8 7 17 -10 90 -14 84 -3 -3 4 3 13 12 20 9
8 14 9 10 3 -8 -14 14 -24 49 -24 14 0 22 4 19 10 -3 6 3 10 14 10 15 0 21 -6
21 -21 0 -11 4 -18 9 -15 4 3 13 -6 20 -20 15 -33 14 -33 -9 -27 -11 3 -20 10
-20 16 0 6 -3 8 -6 5 -3 -4 -1 -16 6 -27 7 -14 7 -21 0 -21 -5 0 -10 -7 -10
-15 0 -8 9 -15 19 -15 15 0 19 5 16 21 -3 17 0 20 15 16 11 -3 23 -1 26 4 3 5
14 5 27 -2 22 -10 22 -10 2 6 -11 9 -19 20 -18 25 2 5 -3 7 -11 4 -16 -6 -31
12 -18 20 5 3 29 8 53 11 35 5 40 4 27 -5 -22 -14 -23 -30 -3 -30 8 0 15 -7
15 -15 0 -13 3 -13 20 -3 15 10 24 10 38 1 11 -6 25 -7 33 -3 8 5 35 4 58 -1
24 -5 46 -7 49 -4 3 3 -3 5 -14 6 -18 0 -18 1 1 9 15 7 7 9 -30 8 -27 -1 -58
-5 -68 -10 -12 -6 -19 -5 -23 6 -3 8 -15 18 -25 21 -23 7 -21 42 1 37 27 -6
59 8 54 23 -5 11 -2 13 10 9 9 -3 16 -9 16 -13 0 -4 9 -7 20 -7 11 0 20 6 20
14 0 7 -4 10 -10 7 -5 -3 -10 -2 -10 3 0 5 46 7 105 4 104 -5 105 -4 105 18 0
13 8 29 18 37 16 14 16 14 0 9 -17 -5 -18 8 -18 180 0 121 3 183 10 179 6 -3
10 -1 10 4 0 6 -4 11 -10 11 -20 0 -9 26 18 43 l27 17 -25 -3 c-16 -1 -25 4
-28 16 -2 10 0 17 5 16 4 -1 17 -1 28 0 18 1 19 2 2 12 -9 5 -21 7 -27 4 -5
-3 -10 52 -12 140 -3 139 -2 145 17 145 17 0 17 -2 5 -10 -26 -17 -1 -11 33 8
l32 17 -37 3 c-20 2 -46 -2 -57 -7 -13 -7 -137 -11 -358 -10 -186 1 -331 3
-323 4 8 2 33 7 54 10 29 5 36 9 25 16 -18 11 -42 12 -35 1 3 -5 -9 -9 -27
-10 -17 0 -33 -6 -35 -11 -5 -14 -59 -14 -68 0 -3 6 0 16 7 21 11 8 10 8 -4 4
-10 -3 -26 -6 -35 -7 -14 0 -13 -2 3 -10 15 -7 13 -8 -12 -3 -17 3 -34 1 -36
-3 -6 -10 -61 -8 -147 4 -39 6 -55 12 -55 23 0 8 -4 18 -10 22 -6 5 -3 8 7 8
9 0 20 -5 23 -10z m1765 -1 c0 -5 -24 -9 -54 -9 -31 0 -58 -5 -62 -12 -4 -6
-6 -42 -5 -80 2 -42 -2 -75 -10 -84 -9 -11 -9 -14 1 -14 8 0 10 -11 6 -37 -6
-41 -8 -106 -7 -250 l1 -93 89 0 c50 0 92 -4 95 -9 3 -5 -13 -7 -37 -5 -23 2
-99 6 -169 10 l-126 6 -1 111 c-1 99 0 109 13 92 10 -14 11 -22 3 -27 -8 -5
-5 -9 6 -14 10 -4 21 -3 25 2 4 5 5 8 3 7 -5 -3 -30 29 -31 40 0 4 8 7 18 8
10 0 12 3 5 6 -18 7 -16 33 2 33 9 0 12 6 9 15 -4 8 -17 15 -30 15 l-24 0 0
126 c0 107 2 125 15 121 8 -4 17 -2 20 2 2 5 -4 11 -15 14 -11 3 -20 12 -20
21 0 13 20 15 140 14 77 0 140 -4 140 -9z m59 -55 c2 -2 -11 -4 -30 -4 -25 0
-30 -3 -19 -10 15 -9 7 -25 -12 -25 -6 0 -13 -6 -15 -12 -3 -7 0 -13 7 -13 6
0 9 -4 6 -9 -3 -5 10 -12 29 -15 19 -4 33 -12 31 -19 -1 -7 -1 -9 1 -5 2 4 11
4 19 1 11 -4 12 -8 4 -13 -6 -4 2 -7 19 -6 17 1 31 4 31 9 0 4 17 7 38 6 20 0
31 -3 23 -6 -10 -4 -5 -10 15 -19 l29 -12 -27 -1 c-15 -1 -30 4 -33 9 -3 6
-11 10 -16 10 -6 0 -7 -4 -4 -10 3 -5 -1 -10 -9 -10 -14 0 -13 -3 2 -20 9 -12
18 -25 18 -30 1 -6 2 -13 3 -16 0 -3 8 2 17 11 9 9 22 14 29 11 9 -3 11 2 7
17 -4 18 -3 20 9 10 11 -9 18 -8 33 3 11 8 16 14 11 14 -4 0 -6 2 -3 5 3 3 18
0 33 -7 l28 -13 -24 -5 c-15 -4 -25 -14 -27 -27 -3 -23 6 -24 53 -8 14 5 16 4
6 -3 -17 -12 0 -24 19 -12 14 9 40 3 40 -10 0 -4 -11 -5 -25 -2 -15 2 -25 0
-25 -7 0 -6 5 -11 11 -11 5 0 7 -5 4 -10 -5 -8 -11 -8 -19 -1 -7 6 -16 8 -20
4 -4 -4 -11 -1 -16 7 -8 13 -10 12 -10 -2 0 -9 7 -18 16 -20 13 -2 12 -7 -6
-25 -24 -26 -19 -29 13 -9 27 18 83 18 98 -1 14 -16 39 -17 39 -1 0 6 7 3 15
-8 14 -19 14 -19 15 1 0 16 2 17 10 5 7 -11 36 -15 114 -18 59 -3 106 -1 106
3 0 3 -4 14 -9 24 -8 14 -25 18 -89 20 -46 1 -83 -2 -86 -8 -5 -7 -15 -7 -31
-1 -14 5 -31 7 -39 4 -7 -3 -20 2 -29 10 -16 17 -32 22 -23 8 3 -5 -1 -9 -9
-9 -18 0 -19 5 -2 21 7 7 18 11 25 8 7 -2 10 2 6 12 -5 12 0 16 17 16 19 0 21
-2 9 -10 -15 -10 6 -11 175 -14 57 -1 70 2 73 15 4 23 -30 27 -180 24 -86 -2
-126 1 -121 8 4 6 -2 8 -15 5 -12 -4 -25 -2 -28 3 -3 5 3 9 13 9 15 1 15 3 -6
21 l-24 20 44 -5 c24 -2 53 -8 63 -12 15 -6 17 -4 11 7 -7 12 -6 12 7 1 16
-12 64 -12 86 2 7 4 12 1 12 -8 0 -22 164 -23 186 -1 8 8 34 20 57 26 38 10
47 9 96 -17 52 -27 59 -28 210 -29 153 -1 156 -1 159 -23 l3 -23 -155 7 c-86
3 -156 2 -156 -2 1 -34 19 -38 167 -39 135 0 149 -2 150 -17 2 -22 8 -21 -167
-22 -140 -1 -145 -2 -148 -22 -3 -21 0 -22 132 -23 105 -2 136 1 137 11 0 10
2 10 6 1 7 -18 33 -16 33 2 0 8 4 15 9 15 5 0 18 3 28 6 12 3 10 1 -5 -8 -12
-8 -19 -17 -16 -21 4 -4 2 -7 -5 -7 -7 0 -11 -7 -8 -15 4 -8 1 -18 -6 -22 -13
-8 -287 -6 -329 3 -14 3 -29 1 -32 -5 -12 -20 -91 -24 -125 -7 -25 14 -61 16
-194 15 -89 -1 -153 -5 -142 -9 11 -4 23 -6 26 -4 10 6 41 -58 36 -76 -3 -10
1 -21 9 -24 8 -3 11 0 7 10 -8 21 0 17 27 -11 l24 -25 -180 4 c-98 3 -252 8
-341 12 l-163 6 0 39 c0 24 5 39 13 39 8 0 9 2 1 8 -7 4 -11 30 -9 62 3 79 4
82 15 75 6 -3 10 3 10 15 0 13 4 19 11 14 26 -16 79 -22 89 -10 7 10 0 13 -32
14 -23 1 -50 4 -59 7 -11 4 -19 -1 -22 -12 -3 -10 -5 29 -6 86 l-1 103 24 -4
c16 -3 27 0 31 10 4 11 -1 13 -25 10 -24 -4 -30 -1 -30 14 0 15 5 18 20 13 11
-3 20 -2 20 4 0 5 -10 12 -22 14 -13 3 11 3 52 0 41 -3 77 -7 79 -9z m265 -25
c-5 -9 8 -13 38 -10 9 1 19 -3 22 -8 4 -6 14 -8 24 -5 9 4 4 -3 -13 -15 -37
-26 -14 -29 43 -6 32 13 34 13 18 0 -18 -14 -18 -15 5 -34 15 -12 28 -16 35
-10 14 11 24 1 17 -16 -5 -15 -30 -9 -52 13 -13 12 -16 12 -25 0 -13 -17 -56
-30 -56 -17 0 5 -12 4 -26 -1 -28 -11 -44 -6 -44 13 0 7 4 6 11 -3 8 -11 12
-12 16 -2 2 6 18 12 33 12 16 0 32 5 36 12 5 7 2 9 -8 5 -9 -3 -19 -3 -22 0
-3 4 -16 8 -29 9 -12 2 -45 6 -73 10 -33 4 -54 2 -58 -5 -5 -7 7 -9 36 -6 43
4 43 4 11 -7 -18 -6 -33 -17 -33 -24 0 -8 -4 -14 -10 -14 -5 0 -10 7 -10 15 0
8 -7 15 -16 15 -10 0 -14 6 -10 15 7 20 -14 19 -28 -1 -7 -9 -22 -14 -37 -12
-22 3 -20 5 20 26 33 18 46 20 57 11 11 -9 14 -9 14 1 0 7 6 10 14 7 14 -5 56
34 56 53 0 6 10 5 25 -2 13 -6 22 -15 19 -19z m-2104 -60 l0 -61 -87 4 -88 4
-3 57 -3 57 91 0 90 0 0 -61z m-2300 0 c31 -19 51 -22 160 -23 110 -1 125 -3
128 -18 3 -16 -8 -18 -117 -18 -101 0 -121 -2 -121 -15 0 -11 12 -15 43 -16
176 -2 192 -4 195 -21 3 -16 -8 -18 -117 -18 -67 0 -121 -2 -121 -4 0 -2 -3
-12 -6 -21 -6 -15 4 -16 112 -14 120 4 156 -3 135 -24 -7 -7 -62 -12 -149 -12
-95 0 -146 -4 -167 -14 -27 -12 -35 -12 -66 3 -27 13 -58 15 -151 12 -87 -3
-120 0 -128 9 -19 23 10 30 118 27 56 -2 102 -1 102 2 0 31 -14 36 -114 36
-57 0 -105 3 -109 6 -3 3 -3 12 0 20 4 11 29 14 109 14 86 0 104 3 104 15 0
12 -18 15 -105 15 -98 0 -105 1 -105 20 0 19 7 20 115 20 96 0 121 3 152 20
47 25 60 25 103 -1z m1453 -98 l47 -1 0 -60 0 -60 -49 0 c-27 0 -63 3 -80 6
-30 6 -31 8 -31 64 l0 58 33 -3 c17 -2 53 -3 80 -4z m847 -66 l0 -65 -85 0
-85 0 0 65 0 65 85 0 85 0 0 -65z m260 -20 c0 -63 5 -60 -109 -49 l-61 7 0 48
0 49 85 0 85 0 0 -55z m-1121 -91 l61 -7 0 -49 0 -49 -77 3 -78 3 -3 53 c-3
59 -9 57 97 46z m857 -26 c1 -2 4 -27 6 -55 l4 -53 -88 0 -88 0 0 61 0 62 81
-6 c45 -4 83 -8 85 -9z m138 -10 c-6 -10 -4 -10 7 0 14 13 70 15 104 4 16 -6
21 -17 23 -59 l3 -53 -91 0 -90 0 0 60 c0 58 1 60 26 60 17 0 23 -4 18 -12z
m716 -70 l0 -63 -95 3 -95 3 0 60 0 59 95 0 95 0 0 -62z m-1692 -54 l52 -7 0
-58 0 -59 -64 0 c-93 0 -96 2 -96 71 0 67 -2 66 108 53z m850 -86 l3 -58 -91
0 -90 0 0 60 0 61 88 -3 87 -3 3 -57z m194 35 c11 -9 18 -11 18 -5 0 7 11 12
25 12 24 0 25 -3 25 -54 l0 -54 -82 5 c-46 3 -86 10 -89 15 -4 6 -7 30 -7 54
l-1 44 46 0 c29 0 53 -6 65 -17z m-2380 -8 c123 -26 239 -76 333 -143 74 -54
165 -143 158 -155 -3 -5 -1 -7 4 -4 14 9 86 -80 77 -94 -4 -7 -3 -9 3 -6 6 4
27 -17 47 -47 89 -134 176 -376 179 -498 1 -37 5 -68 9 -68 3 0 9 -38 13 -85
14 -165 -26 -406 -96 -583 -38 -95 -60 -133 -72 -125 -6 3 -7 1 -3 -5 18 -30
-129 -222 -251 -327 -80 -69 -225 -152 -274 -157 -13 -2 -29 -8 -36 -14 -42
-40 -353 -54 -473 -21 -321 87 -593 362 -708 717 -55 168 -67 247 -67 440 0
281 50 468 192 714 7 12 29 44 49 72 29 39 42 50 58 47 17 -4 18 -3 6 6 -12 9
-1 25 67 91 96 93 173 145 281 191 155 65 350 86 504 54z m3006 -1 c19 -6 22
-13 22 -61 l0 -56 -37 7 c-21 3 -64 6 -95 6 l-58 0 0 55 0 55 73 0 c39 0 82
-3 95 -6z m1977 -90 c303 -27 585 -164 818 -397 69 -68 107 -113 103 -122 -3
-8 0 -14 7 -12 7 1 11 -6 11 -15 -1 -10 2 -16 6 -13 13 8 39 -35 33 -53 -4 -9
-2 -13 4 -9 19 12 107 -149 117 -211 2 -19 11 -41 20 -51 9 -10 13 -26 10 -41
-4 -19 -3 -21 4 -11 8 11 14 2 25 -36 43 -144 52 -216 52 -413 0 -201 -8 -263
-55 -415 -45 -147 -139 -331 -224 -439 -65 -84 -209 -227 -223 -222 -7 3 -12
0 -10 -6 3 -17 -135 -111 -239 -163 -105 -52 -234 -99 -234 -84 0 5 -5 9 -11
9 -5 0 -8 -4 -4 -10 7 -11 -71 -34 -90 -26 -8 3 -15 1 -17 -4 -5 -16 -199 -32
-309 -26 -58 3 -139 12 -180 20 -95 18 -269 74 -269 86 0 5 -6 7 -14 4 -8 -3
-24 4 -35 15 -12 12 -23 21 -26 20 -16 -3 -66 22 -71 35 -3 9 -10 13 -15 11
-32 -20 -392 295 -373 327 4 6 3 8 -3 5 -6 -4 -18 4 -26 17 -12 18 -13 26 -4
36 10 10 8 12 -5 7 -23 -8 -76 71 -140 208 -89 190 -127 367 -128 596 -1 196
31 367 104 545 73 180 168 318 319 467 80 79 103 97 121 92 14 -4 17 -3 8 3
-10 7 -1 18 35 43 78 56 142 90 155 83 6 -4 8 -3 5 3 -7 11 114 67 208 96 88
28 195 49 289 56 92 7 125 7 251 -5z m-3025 -414 c24 0 26 -3 27 -54 1 -54 1
-55 -25 -51 -15 1 -48 3 -74 4 -44 1 -48 3 -48 26 0 24 3 25 57 25 96 0 54 7
-81 14 -71 4 -133 9 -138 12 -4 3 -8 12 -8 21 0 14 16 15 133 10 72 -4 143 -7
157 -7z m400 -16 c77 -4 128 -10 132 -18 6 -8 8 -8 8 1 0 9 34 11 133 7 72 -3
146 -7 162 -9 17 -3 105 -8 195 -11 91 -3 172 -7 181 -10 13 -4 16 -20 14
-100 -1 -71 -5 -98 -16 -105 -12 -7 -12 -9 1 -9 13 0 15 -31 13 -227 0 -126
-1 -344 -2 -485 -1 -238 -2 -258 -18 -259 -17 -1 -17 -2 0 -6 13 -4 17 -15 17
-58 0 -30 -3 -56 -7 -58 -15 -9 -145 9 -152 22 -4 6 -7 29 -7 49 l2 37 59 6
c39 4 48 6 25 7 -77 4 -79 6 -76 85 2 68 4 72 27 76 l24 4 -24 6 -24 6 1 160
c1 88 4 285 7 438 3 172 2 284 -4 296 -8 15 -24 18 -88 20 -106 3 -103 3 -103
14 0 5 -6 4 -14 -2 -9 -8 -29 -10 -51 -7 -31 5 -77 7 -155 5 -16 0 -333 18
-445 25 -38 3 -94 5 -122 6 -50 0 -53 2 -53 25 0 14 6 25 13 26 10 0 10 2 0 6
-7 2 -13 16 -13 30 l0 25 118 -6 c64 -3 173 -9 242 -12z m-405 -180 c99 -1
190 -2 203 -3 12 -2 52 -2 89 -1 45 1 69 -3 74 -12 7 -10 9 -10 9 1 0 19 149
9 161 -11 7 -11 9 -11 9 0 0 11 25 13 133 7 125 -6 186 -11 197 -15 3 -1 22
-1 42 0 45 2 67 -8 47 -21 -10 -6 -8 -9 9 -9 21 0 22 -4 22 -75 0 -71 -1 -75
-22 -76 l-23 0 23 -10 c22 -8 23 -13 18 -71 -3 -35 -5 -105 -6 -156 0 -91 -1
-93 -21 -87 -15 5 -19 4 -15 -4 4 -6 13 -11 21 -11 11 0 13 -15 10 -71 -2 -39
-6 -73 -8 -76 -2 -2 -23 -1 -45 3 l-41 6 0 154 0 154 27 1 27 2 -27 4 c-20 3
-28 10 -29 26 -2 22 -2 22 -6 0 -3 -17 -12 -23 -31 -24 l-27 -2 28 -4 c27 -4
27 -5 27 -79 0 -63 -3 -74 -17 -75 -17 -1 -17 -2 0 -6 14 -4 17 -16 17 -79 l0
-74 -34 0 c-18 0 -54 3 -80 6 l-46 7 0 74 0 73 35 -3 c20 -3 38 0 41 4 3 5
-13 9 -35 9 l-41 0 -1 123 c-1 67 -1 129 0 137 0 10 -1 11 -5 3 -4 -9 -11 -10
-22 -4 -9 5 -75 12 -147 15 -71 4 -163 9 -203 11 -40 3 -121 7 -180 11 -59 3
-110 10 -113 16 -4 7 -9 6 -14 -1 -3 -7 -14 -10 -23 -7 -10 3 -66 7 -127 11
-143 7 -292 16 -330 20 -16 2 -49 3 -72 4 -36 1 -43 4 -43 21 0 12 7 20 18 21
16 1 16 2 0 6 -15 4 -18 16 -18 78 l0 73 193 -6 c105 -3 273 -7 372 -8z m-169
-270 c72 -34 95 -120 46 -175 -58 -65 -179 -40 -210 43 -19 49 -3 90 47 124
42 28 70 30 117 8z m757 -38 c104 -43 116 -172 20 -212 -92 -39 -195 19 -195
110 0 85 90 138 175 102z m116 -300 c-1 -30 -5 -59 -8 -65 -5 -8 -29 -9 -76
-4 l-69 8 -3 52 -3 52 77 4 c43 1 79 4 80 5 2 1 2 -22 2 -52z m231 -291 c29
-26 27 -80 -4 -100 -47 -31 -116 5 -116 61 0 58 73 82 120 39z m110 -203 l0
-55 -61 7 c-34 3 -70 6 -80 6 -16 0 -19 8 -19 51 l0 50 80 -2 80 -3 0 -54z
m3280 -3 c0 -7 11 -9 25 -7 19 4 25 1 25 -13 0 -23 -8 -23 -34 -4 -11 8 -27
15 -35 14 -9 0 -1 -7 17 -15 18 -8 30 -19 27 -24 -3 -6 1 -7 10 -3 15 5 16 -1
11 -53 -4 -32 -6 -69 -6 -81 0 -12 -5 -25 -11 -29 -8 -4 -7 -9 2 -16 10 -7 6
-8 -14 -5 -27 4 -27 4 -11 -15 14 -14 19 -16 26 -6 5 9 8 5 8 -11 0 -18 -4
-22 -17 -17 -17 6 -17 5 0 -8 19 -15 24 -41 5 -30 -10 6 -10 4 -2 -7 14 -19
18 -79 6 -79 -6 0 -12 6 -15 13 -4 9 -7 9 -18 -1 -11 -11 -10 -14 10 -19 l24
-6 -7 -251 c-4 -138 -10 -253 -12 -256 -3 -2 -7 6 -11 18 -3 12 -12 22 -20 22
-11 0 -13 -4 -5 -12 5 -7 9 -24 8 -38 -1 -20 -6 -25 -26 -23 -17 2 -20 0 -10
-5 31 -15 20 -39 -15 -32 -5 1 -4 -4 2 -11 10 -10 18 -10 39 0 20 9 24 15 16
23 -8 8 -7 15 3 24 7 8 16 14 19 14 8 0 -6 -125 -15 -128 -5 -2 -9 -8 -9 -13
0 -6 5 -7 11 -4 6 5 9 -8 8 -37 -1 -23 2 -63 7 -88 7 -41 6 -44 -10 -31 -9 8
-19 11 -22 8 -3 -3 4 -10 15 -17 28 -14 31 -74 4 -66 -10 3 -45 8 -78 11 -33
2 -116 12 -185 20 -69 9 -140 16 -157 15 -23 0 -33 4 -33 15 0 18 -17 20 -22
3 -6 -17 -306 17 -328 37 -9 8 -28 15 -41 15 -14 0 -29 4 -34 9 -6 5 -19 11
-29 13 -11 1 -20 11 -22 21 -3 23 -23 47 -38 47 -8 0 -7 -3 1 -8 6 -4 -6 -7
-27 -7 -21 0 -33 3 -27 7 9 6 9 12 0 27 -12 18 -11 19 14 6 18 -10 31 -11 39
-4 7 5 25 7 41 3 15 -4 25 -3 21 1 -4 5 -2 15 5 23 13 17 14 17 -37 -4 -16 -6
-18 -4 -14 14 4 12 2 22 -3 22 -13 0 -27 -33 -21 -50 4 -13 3 -13 -11 -2 -9 8
-15 19 -14 25 1 7 -6 11 -17 9 -10 -2 -16 2 -14 8 2 7 40 26 83 42 64 24 85
28 107 20 19 -7 30 -7 35 0 3 6 2 8 -3 5 -6 -3 -16 -1 -24 4 -13 8 -13 10 0
19 8 5 21 8 28 5 7 -3 11 -1 8 3 -3 5 24 25 59 45 35 20 93 59 130 87 37 28
71 48 76 45 5 -3 7 0 4 7 -7 18 34 43 48 29 14 -14 37 -14 37 -1 0 5 -6 7 -14
4 -8 -3 -17 0 -21 6 -9 14 64 92 78 83 6 -3 7 -2 4 4 -3 5 8 26 24 46 24 30
37 37 65 37 32 0 34 -2 30 -27 l-5 -28 17 22 c12 17 21 20 32 13 8 -5 20 -10
25 -10 6 0 4 4 -3 8 -9 6 -5 12 14 21 15 6 24 14 22 17 -3 2 -18 -2 -34 -11
-17 -9 -30 -11 -32 -5 -2 6 -18 10 -36 10 -18 0 -36 3 -39 6 -11 11 13 45 26
38 7 -4 9 -4 5 1 -11 11 11 47 24 39 7 -4 8 -3 4 4 -4 7 11 42 32 79 22 38 52
97 67 133 15 36 30 67 34 70 3 3 6 10 6 15 0 6 9 40 20 78 13 44 25 67 35 67
12 0 12 2 1 9 -8 5 -11 16 -6 30 6 20 8 20 36 6 16 -9 29 -20 29 -26z m-4791
-105 c19 -2 36 -6 38 -8 3 -2 1 -25 -3 -51 l-7 -47 -46 6 c-25 3 -88 8 -138
12 l-93 7 0 50 0 50 108 -7 c59 -4 122 -9 141 -12z m227 -26 l114 -12 0 -35
c0 -66 -8 -68 -185 -45 -11 1 -39 3 -62 3 l-43 1 0 50 c0 49 0 50 31 50 18 0
83 -5 145 -12z m644 -45 c30 -2 57 -9 60 -13 3 -5 4 -28 2 -50 l-4 -42 -69 6
c-38 3 -100 9 -139 12 l-70 6 0 50 0 51 83 -7 c45 -5 107 -10 137 -13z m255
-13 c-4 -6 16 -10 54 -10 33 0 62 -3 64 -7 2 -5 2 -28 -1 -52 l-4 -44 -111 7
c-160 10 -164 12 -169 52 -2 19 -1 38 2 44 3 5 39 11 80 13 41 1 79 4 83 5 5
1 5 -2 2 -8z m393 -30 l42 0 0 -50 0 -50 -53 0 c-30 0 -95 3 -145 6 l-92 7 0
42 c0 23 3 45 8 49 4 4 50 5 102 2 52 -3 114 -5 138 -6z m-978 -228 l75 -7 0
-39 0 -38 -115 7 c-151 8 -150 8 -150 56 l0 39 58 -6 c31 -3 91 -8 132 -12z"/>
<path d="M6555 5054 c-545 -14 -2488 -61 -2885 -70 -140 -3 -261 -7 -267 -9
-8 -3 -13 -22 -13 -47 l0 -43 547 12 c302 7 1007 24 1568 37 561 13 1024 20
1028 16 11 -9 -167 -18 -520 -25 -145 -3 -381 -7 -525 -10 -145 -3 -328 -7
-408 -10 -80 -2 -280 -7 -445 -10 -165 -3 -370 -7 -455 -10 -85 -3 -298 -8
-472 -11 l-316 -7 -4 -57 c-6 -101 -27 -93 225 -86 122 4 461 11 752 16 292 6
850 17 1240 25 829 17 938 18 931 6 -3 -4 -185 -11 -403 -15 -219 -3 -461 -8
-538 -11 -77 -2 -322 -7 -545 -10 -223 -3 -450 -8 -505 -10 -55 -3 -300 -7
-545 -11 -245 -3 -482 -9 -528 -13 l-83 -6 -4 -72 c-2 -50 0 -71 9 -68 6 2
191 6 411 9 1242 19 2260 36 2476 42 161 4 249 3 253 -4 6 -11 -234 -18 -874
-27 -394 -5 -795 -12 -1245 -20 -148 -3 -439 -8 -645 -11 -206 -3 -379 -9
-383 -14 -4 -4 -7 -36 -5 -71 l3 -64 140 0 c153 0 959 10 1930 25 915 14 1074
15 1081 8 14 -15 -63 -17 -701 -23 -363 -3 -761 -7 -885 -10 -124 -3 -421 -7
-660 -10 -239 -3 -631 -7 -870 -10 -239 -3 -536 -7 -660 -10 -404 -9 -1495
-18 -1490 -12 9 9 296 17 925 23 347 3 648 8 670 10 22 1 142 3 268 3 l227 1
0 76 0 75 -207 -5 c-115 -4 -539 -11 -943 -16 -404 -6 -778 -12 -832 -15 -62
-4 -99 -2 -103 5 -4 7 36 11 122 12 70 1 137 2 148 3 11 1 261 5 555 9 294 4
570 9 614 11 43 2 206 5 362 6 l284 1 0 76 0 75 -317 -6 c-175 -4 -554 -11
-843 -17 -289 -5 -616 -12 -727 -16 -127 -4 -203 -2 -203 4 0 10 192 15 1085
32 770 14 999 21 1005 31 3 4 5 36 5 71 l-2 62 -189 -2 c-104 -1 -259 -5 -344
-7 -85 -3 -382 -10 -660 -15 -278 -5 -594 -13 -702 -16 -129 -4 -198 -3 -198
3 0 7 124 13 338 17 475 9 582 15 575 32 -3 8 0 14 6 14 6 0 11 -7 11 -15 0
-12 14 -15 70 -15 58 0 68 3 64 15 -4 8 -1 15 5 15 6 0 11 -7 11 -15 0 -12 14
-15 63 -15 111 0 197 12 197 26 0 8 5 14 10 14 6 0 10 -7 10 -15 0 -12 14 -15
70 -15 58 0 68 3 64 15 -4 8 -1 15 5 15 6 0 11 -7 11 -15 0 -12 13 -15 61 -15
50 0 60 3 56 15 -4 8 -2 17 4 21 6 3 13 -2 15 -12 5 -18 18 -19 222 -16 200 3
247 7 215 19 -18 6 -16 23 2 23 9 0 15 9 15 25 l0 25 -132 0 c-73 0 -394 -7
-713 -15 -319 -7 -726 -17 -905 -20 -179 -3 -344 -8 -368 -11 l-42 -5 2 -352
3 -352 235 0 c285 0 2885 18 2955 20 28 1 606 6 1285 10 679 5 1262 9 1295 11
33 1 160 2 283 3 l222 1 0 118 c0 65 -3 248 -7 406 l-6 287 -216 -2 c-119 -2
-436 -8 -706 -15z m343 -254 c126 -77 75 -280 -71 -280 -45 0 -82 18 -117 55
-22 23 -25 36 -25 95 0 54 4 73 20 90 54 61 132 77 193 40z"/>
<path d="M6770 4793 c-73 -38 -100 -124 -60 -190 27 -45 64 -66 115 -66 51 0
88 21 115 66 67 110 -57 248 -170 190z m122 -33 c39 -30 53 -73 39 -120 -15
-52 -52 -80 -106 -80 -52 0 -89 27 -105 75 -15 44 1 96 37 125 34 27 102 27
135 0z"/>
<path d="M6770 4725 c-48 -51 -13 -135 56 -135 24 0 39 8 58 31 14 17 26 39
26 49 0 10 -12 32 -26 49 -33 40 -80 42 -114 6z"/>
<path d="M551 4859 c-69 -12 -128 -46 -179 -104 -48 -55 -69 -97 -82 -166 -27
-139 59 -303 188 -362 69 -31 210 -31 270 1 66 35 121 90 155 156 28 54 32 70
32 146 0 95 -11 131 -64 204 -71 99 -192 146 -320 125z m130 -41 c29 -8 39
-17 40 -32 1 -12 3 -37 4 -57 3 -30 -5 -47 -60 -119 -35 -46 -62 -87 -59 -91
2 -5 32 -23 65 -40 61 -33 78 -51 78 -85 0 -10 2 -41 3 -69 3 -48 2 -51 -32
-67 -40 -21 -140 -24 -189 -7 -26 9 -31 16 -31 43 0 18 6 38 13 45 10 11 10
14 0 18 -25 9 -13 47 33 105 l45 58 -58 66 c-53 60 -58 70 -58 112 0 25 5 56
12 68 9 20 9 22 -5 17 -13 -5 -14 -3 -6 6 33 35 136 50 205 29z"/>
<path d="M1000 3026 c-63 -12 -160 -44 -170 -56 -3 -3 -25 -14 -50 -25 -25
-11 -47 -22 -50 -25 -3 -3 -27 -23 -55 -45 -27 -22 -69 -59 -92 -82 -23 -24
-52 -44 -65 -44 -17 -1 -18 -3 -5 -6 15 -4 11 -13 -24 -64 -23 -32 -45 -56
-50 -54 -4 3 -11 0 -15 -6 -4 -8 -3 -9 4 -5 17 10 16 6 -23 -72 -183 -372
-155 -823 73 -1156 73 -107 112 -148 206 -218 123 -92 203 -126 347 -147 78
-12 270 -11 263 1 -3 4 14 12 37 18 23 7 67 22 97 36 30 13 59 21 65 17 5 -3
7 -2 4 3 -3 5 23 29 58 53 79 53 192 171 251 261 24 38 44 72 44 77 0 5 9 19
20 31 12 12 18 22 16 22 -3 0 3 24 14 53 88 236 105 527 43 720 -8 27 -13 59
-10 72 2 14 0 22 -4 19 -5 -3 -9 -1 -9 4 0 6 -19 50 -42 99 -23 48 -42 94 -41
101 0 6 -3 12 -7 12 -4 0 -23 24 -43 53 -19 28 -66 84 -103 122 -38 39 -67 73
-66 78 1 4 -5 7 -14 7 -24 0 -75 40 -68 52 4 7 2 8 -4 4 -6 -4 -34 5 -61 19
-144 72 -324 100 -471 71z"/>
<path d="M6015 2904 c-68 -10 -174 -37 -233 -60 -34 -13 -69 -24 -78 -24 -9 0
-29 -11 -46 -25 -16 -14 -35 -25 -42 -25 -7 0 -23 -9 -36 -20 -13 -12 -30 -18
-37 -16 -7 3 -13 2 -13 -2 0 -4 -43 -43 -95 -85 -52 -43 -113 -101 -135 -130
-22 -29 -49 -61 -59 -72 -25 -26 -81 -116 -116 -185 -15 -30 -32 -57 -36 -58
-5 -2 -7 -8 -4 -12 3 -5 2 -17 -3 -27 -19 -36 -54 -159 -67 -233 -3 -19 -8
-96 -11 -170 -7 -158 10 -284 55 -413 32 -94 95 -230 115 -249 7 -8 21 -28 30
-46 9 -17 36 -56 61 -86 42 -52 43 -55 22 -59 -18 -4 -18 -4 5 -6 28 -1 142
-96 133 -111 -2 -4 1 -7 8 -7 7 0 57 -30 111 -67 55 -36 122 -73 149 -83 27
-10 52 -23 54 -30 3 -7 9 -10 14 -8 4 3 39 -3 76 -14 227 -68 461 -63 686 13
40 14 81 27 92 31 16 6 17 5 5 -4 -12 -9 -10 -11 10 -11 15 0 31 -5 38 -12 7
-7 12 -9 12 -5 0 3 -9 15 -21 25 l-20 19 36 22 c20 11 38 21 41 21 12 0 154
102 203 147 30 26 59 47 64 45 4 -1 6 2 3 6 -3 5 4 18 16 28 21 19 121 149
129 169 12 29 52 85 61 85 5 0 18 -5 29 -10 13 -7 19 -7 19 -1 0 6 -11 13 -24
17 -18 4 -23 11 -19 22 4 10 9 19 12 22 10 8 68 188 82 253 7 31 15 57 18 57
3 0 6 70 6 155 0 96 4 155 10 155 6 0 6 3 0 8 -6 4 -17 43 -24 87 -7 44 -20
100 -29 125 -8 25 -16 52 -17 60 -1 8 -10 33 -20 55 -9 22 -18 52 -18 68 0 16
-6 27 -14 27 -7 0 -17 10 -22 23 -35 93 -233 326 -331 392 -25 17 -54 38 -64
48 -11 9 -25 17 -32 17 -18 0 -37 27 -24 35 15 9 12 25 -4 25 -8 0 -16 -6 -18
-14 -2 -11 -17 -8 -68 16 -104 49 -179 73 -300 94 -37 7 -291 13 -325 8z"/>
</g>
</svg>
