<?xml version="1.0" standalone="no"?>
<!DOCTYPE svg PUBLIC "-//W3C//DTD SVG 20010904//EN"
 "http://www.w3.org/TR/2001/REC-SVG-20010904/DTD/svg10.dtd">
<svg version="1.0" xmlns="http://www.w3.org/2000/svg"
 width="764.000000pt" height="1025.000000pt" viewBox="0 0 764.000000 1025.000000"
 preserveAspectRatio="xMidYMid meet">
<metadata>
Created by potrace 1.16, written by Peter Selinger 2001-2019
</metadata>
<g transform="translate(0.000000,1025.000000) scale(0.100000,-0.100000)"
fill="#000000" stroke="none">
<path d="M625 10239 c-3 -4 -21 -71 -39 -149 -19 -78 -37 -144 -39 -147 -3 -2
-19 3 -37 12 -18 9 -34 14 -37 12 -6 -6 -43 -147 -43 -164 0 -7 15 -20 33 -29
17 -9 33 -18 35 -19 4 -3 -47 -218 -53 -223 -2 -2 -18 4 -35 13 -18 9 -36 13
-40 8 -9 -10 -40 -135 -40 -161 0 -12 11 -24 30 -32 17 -7 32 -16 35 -20 2 -3
-14 -76 -35 -160 -22 -84 -38 -155 -37 -157 2 -1 17 -5 33 -9 l29 -6 29 119
c16 65 33 132 38 150 l8 31 45 -25 c25 -13 45 -30 45 -36 0 -7 -18 -79 -39
-162 -22 -82 -36 -153 -33 -157 4 -3 18 -8 32 -10 24 -3 26 1 63 147 21 83 40
151 42 153 2 2 17 -4 35 -13 18 -9 34 -14 37 -12 6 7 43 148 43 168 0 8 -16
23 -36 32 -20 10 -34 23 -31 30 2 7 15 57 28 112 12 55 24 102 25 104 2 2 19
-7 39 -19 20 -12 37 -21 39 -19 1 2 10 40 20 84 11 44 20 85 22 90 2 6 -13 18
-34 28 l-39 19 39 156 c21 86 36 162 34 168 -2 6 -16 14 -30 16 -29 6 -24 18
-72 -177 -15 -60 -30 -114 -34 -118 -5 -6 -50 14 -88 39 -2 1 15 74 38 162 22
89 40 163 40 165 0 8 -61 14 -65 6z m-10 -544 l43 -26 -28 -106 c-16 -58 -31
-108 -34 -110 -4 -4 -61 25 -85 43 -5 4 50 224 56 224 2 0 24 -11 48 -25z"/>
<path d="M3525 9496 c-5 -2 -23 -7 -38 -10 -93 -21 -96 -314 -6 -685 96 -395
241 -663 499 -922 261 -263 623 -475 967 -569 69 -19 83 -27 92 -49 6 -14 56
-153 110 -309 55 -155 103 -286 106 -292 3 -5 -34 -29 -83 -54 -378 -196 -536
-606 -406 -1055 82 -281 283 -519 541 -638 132 -61 245 -85 433 -90 l166 -5
138 -387 c180 -503 225 -592 364 -723 194 -183 431 -229 706 -137 115 38 188
78 268 144 160 131 258 332 258 527 0 151 -50 278 -150 378 -89 89 -227 150
-340 150 -103 0 -231 -62 -284 -138 -58 -85 -71 -129 -71 -247 0 -104 2 -114
32 -175 68 -138 193 -220 332 -220 59 0 155 25 198 51 l33 21 0 -44 c0 -25 -9
-60 -21 -83 -31 -58 -124 -150 -188 -184 -113 -60 -287 -92 -391 -73 -196 37
-343 160 -450 377 -39 78 -281 756 -280 784 0 3 35 17 77 31 316 102 600 354
738 654 92 198 130 393 122 631 -8 251 -50 421 -163 650 -219 448 -628 726
-1389 943 -115 33 -269 75 -340 93 l-130 33 -59 165 c-95 269 -231 555 -338
714 -122 179 -344 414 -511 538 -105 79 -236 149 -331 178 -64 20 -189 35
-211 27z m490 -585 c176 -68 396 -260 553 -484 74 -105 181 -335 227 -484 8
-29 -4 -29 -110 -3 -223 56 -445 152 -619 267 -198 131 -388 355 -417 490 -24
117 29 219 126 244 53 14 162 0 240 -30z m1364 -1696 c541 -111 882 -265 1122
-504 153 -154 249 -315 301 -509 30 -113 30 -314 0 -437 -85 -342 -374 -648
-718 -760 -43 -14 -78 -24 -79 -23 -2 3 -281 779 -405 1130 -57 158 -62 148
75 148 245 0 471 -152 536 -361 37 -119 19 -236 -57 -378 -39 -72 -44 -88 -35
-108 8 -17 19 -23 40 -23 25 0 38 10 70 53 51 67 106 185 128 274 25 99 22
284 -5 386 -31 115 -93 225 -175 313 -81 87 -156 141 -271 194 -131 62 -229
83 -383 84 l-132 1 -77 215 c-42 118 -87 243 -100 278 -13 34 -19 62 -14 62 5
0 85 -16 179 -35z m261 -1648 l217 -612 -49 -3 c-109 -7 -269 44 -388 123
-348 232 -412 733 -129 1016 47 47 120 101 127 94 3 -3 103 -281 222 -618z"/>
<path d="M1246 9341 c-4 -28 -17 -49 -43 -73 -184 -166 -206 -199 -208 -318 0
-41 -6 -85 -13 -97 -28 -51 -2 -243 34 -243 8 0 14 1 14 3 0 1 -7 24 -15 51
-20 65 -19 122 4 172 20 44 41 62 141 116 l65 35 -12 -151 c-19 -250 -17 -294
13 -338 29 -42 111 -88 156 -88 72 0 120 59 99 123 -23 68 -111 129 -188 131
-29 0 -53 5 -53 11 0 5 11 156 25 335 30 393 30 370 6 370 -14 0 -20 -10 -25
-39z m-20 -196 c-16 -38 -64 -105 -75 -105 -4 0 -33 -23 -64 -51 l-57 -51 0
29 c0 31 43 105 81 140 25 23 108 73 122 73 4 0 1 -16 -7 -35z"/>
<path d="M2002 8840 c-173 -43 -315 -80 -317 -82 -2 -2 73 -177 166 -388 189
-426 197 -439 287 -459 108 -23 202 25 202 104 -1 102 -192 159 -291 86 l-27
-20 -80 182 c-45 100 -103 233 -131 294 l-50 113 37 9 c20 6 155 39 298 74
l261 64 149 -336 c81 -185 157 -347 168 -360 48 -55 178 -83 191 -42 6 21 33
47 40 39 3 -2 -4 -14 -15 -26 -18 -19 -18 -22 -4 -22 9 0 28 9 44 20 72 51 57
134 -32 175 -71 33 -138 33 -197 0 -23 -14 -44 -25 -45 -25 -1 0 -69 153 -151
340 -127 287 -153 339 -170 339 -11 -1 -161 -36 -333 -79z"/>
<path d="M3391 8045 c-38 -73 -95 -115 -219 -163 -208 -82 -349 -181 -414
-292 -29 -50 -68 -169 -68 -207 0 -14 -19 -49 -44 -81 -25 -32 -54 -78 -66
-105 -57 -129 -67 -356 -16 -365 17 -4 18 1 13 44 -10 85 10 202 48 279 19 39
40 77 47 86 28 34 104 80 157 96 79 22 321 71 321 64 0 -3 -63 -173 -141 -376
-140 -369 -141 -370 -136 -440 5 -87 30 -139 105 -217 70 -74 137 -108 212
-108 73 0 118 25 147 80 43 81 21 186 -61 298 -67 90 -159 143 -257 146 l-37
1 28 75 c16 41 85 226 155 410 259 684 304 804 302 806 -1 1 -13 5 -27 9 -22
5 -28 0 -49 -40z m-123 -316 c-52 -93 -150 -162 -339 -239 -42 -17 -102 -46
-132 -64 l-55 -34 21 61 c52 146 206 248 452 300 39 9 71 16 73 16 2 1 -7 -18
-20 -40z"/>
<path d="M1640 7543 c-89 -32 -74 -163 18 -165 98 -3 123 129 31 161 -18 6
-32 11 -33 10 -1 0 -8 -3 -16 -6z"/>
<path d="M1353 7469 c-25 -28 -31 -30 -73 -24 -38 5 -50 3 -74 -16 -38 -30
-49 -64 -35 -106 17 -53 82 -78 132 -51 30 15 44 37 52 76 5 26 12 34 35 38
33 7 70 38 70 59 0 22 -37 55 -60 55 -11 0 -32 -14 -47 -31z"/>
<path d="M1718 7000 c-38 -7 -68 -25 -68 -42 0 -5 -9 -17 -20 -26 -29 -26 -35
-64 -12 -92 16 -20 30 -24 87 -27 64 -2 69 -1 96 28 37 39 45 80 23 114 -24
37 -62 53 -106 45z"/>
<path d="M1049 6931 c-44 -45 -35 -107 22 -136 38 -20 72 -13 105 20 32 32 31
75 -2 114 -35 42 -84 43 -125 2z"/>
<path d="M663 6913 c-13 -3 -23 -9 -23 -14 0 -6 -4 -8 -9 -4 -12 7 -39 -21
-65 -66 -13 -22 -14 -29 -5 -24 11 6 12 5 2 -6 -19 -20 -16 -48 12 -94 31 -54
58 -67 132 -66 29 0 49 7 63 21 11 11 23 20 28 20 8 0 28 43 38 83 4 18 2 27
-6 27 -6 0 -9 4 -6 9 11 17 -12 57 -46 82 -34 27 -77 38 -115 32z"/>
<path d="M2236 6645 c-21 -7 -56 -28 -77 -45 -22 -17 -38 -26 -37 -20 6 24
-64 51 -117 47 -44 -4 -54 -10 -87 -48 -44 -51 -53 -75 -44 -124 8 -38 50 -95
72 -95 10 0 6 -15 -16 -53 -43 -76 -108 -274 -117 -354 l-7 -68 -9 55 c-6 43
-4 66 9 106 17 50 11 103 -12 111 -9 3 -11 -22 -16 -196 -3 -87 -13 -106 -43
-81 -9 7 -24 32 -34 56 -12 26 -34 52 -55 66 -20 13 -41 37 -48 56 -14 37 -28
42 -28 9 0 -28 14 -46 58 -76 28 -20 90 -117 80 -127 -2 -1 -19 18 -38 44 -40
53 -228 198 -240 185 -5 -4 -74 -95 -154 -202 -134 -179 -145 -196 -130 -212
10 -11 12 -19 5 -24 -20 -12 -13 -37 8 -30 16 5 18 2 14 -15 -3 -11 -1 -20 3
-20 5 0 17 -7 27 -14 18 -14 18 -16 -2 -53 -11 -22 -27 -45 -35 -52 -23 -20
-19 -46 9 -65 22 -15 25 -22 19 -52 -5 -26 -2 -40 11 -54 17 -19 21 -34 24
-92 1 -17 8 -29 22 -33 16 -5 19 -14 17 -38 -2 -26 -15 -41 -70 -82 -55 -40
-68 -55 -68 -77 0 -18 8 -33 24 -43 33 -22 62 -6 109 61 21 30 44 54 51 54 8
0 19 -13 26 -29 11 -29 12 -29 40 -13 26 15 29 15 59 -11 18 -15 36 -27 41
-27 12 0 45 44 60 80 9 23 19 30 39 30 43 0 66 36 90 140 30 128 65 240 96
300 14 28 27 50 30 50 2 0 9 -19 15 -42 6 -24 22 -60 36 -80 13 -21 24 -46 24
-56 0 -18 56 -80 64 -71 15 14 -2 190 -23 243 -6 16 -9 31 -6 35 17 16 179
-103 330 -242 53 -49 100 -62 125 -32 10 12 17 11 48 -9 56 -37 79 -40 98 -17
17 20 18 20 47 -5 44 -37 91 -33 134 13 30 31 34 42 30 71 -5 27 -3 33 9 28
20 -8 51 9 64 35 9 16 8 26 -4 43 -13 21 -25 24 -102 28 -76 4 -88 7 -104 28
-14 18 -15 28 -7 50 9 23 7 32 -11 55 -26 33 -32 118 -8 109 7 -3 25 9 40 28
14 18 30 38 35 44 14 17 19 77 9 114 -15 55 -101 125 -138 112 -8 -3 -2 6 15
20 39 34 42 94 5 133 -21 22 -32 26 -72 24 -60 -3 -79 12 -46 35 22 16 22 17
4 31 -15 11 -17 22 -12 55 4 25 2 47 -6 59 -10 16 -9 25 1 45 14 26 8 103 -11
141 -33 64 -69 76 -142 50z"/>
<path d="M452 6428 c-19 -19 -14 -65 9 -81 14 -11 17 -16 7 -19 -8 -3 0 -13
21 -26 27 -16 39 -18 62 -10 59 20 70 95 20 130 -26 18 -103 22 -119 6z"/>
<path d="M905 6237 c-68 -31 -79 -70 -48 -167 13 -42 23 -55 50 -68 25 -12 33
-21 29 -35 -3 -12 8 -29 32 -51 31 -29 34 -36 23 -49 -16 -20 -6 -37 21 -37
18 0 20 -4 14 -39 -6 -39 -5 -40 26 -43 32 -3 38 3 180 192 l147 195 -47 22
c-159 74 -358 111 -427 80z"/>
<path d="M367 6072 c-21 -23 -22 -56 -2 -72 11 -9 13 -16 5 -24 -27 -27 4
-126 40 -126 10 0 21 -4 24 -9 9 -14 76 5 98 27 11 10 22 37 25 58 6 48 -21
87 -72 105 -19 7 -35 16 -35 20 0 14 -32 39 -49 39 -10 0 -25 -8 -34 -18z"/>
<path d="M3297 6010 c-24 -19 -28 -20 -49 -6 -28 19 -127 15 -139 -6 -5 -7
-14 -13 -20 -13 -7 0 -21 -12 -32 -27 -24 -32 -37 -138 -18 -138 7 0 10 -4 6
-10 -7 -12 14 -51 40 -70 58 -44 150 -45 193 -3 34 34 62 81 62 106 0 18 7 27
25 31 64 16 86 86 40 131 -30 31 -73 32 -108 5z"/>
<path d="M3864 5858 c-15 -13 -25 -17 -20 -10 10 16 -4 15 -27 -3 -35 -25 -67
-79 -67 -109 0 -55 63 -119 120 -121 24 -1 83 24 100 43 9 10 20 33 23 51 6
30 5 32 -10 20 -10 -8 -7 -1 6 18 28 37 23 72 -14 109 -30 30 -73 31 -111 2z"/>
<path d="M4530 5682 c0 -4 -16 -7 -35 -7 -26 1 -43 -6 -64 -26 -16 -15 -32
-25 -35 -22 -10 10 -66 -61 -62 -79 2 -9 -3 -27 -12 -39 -12 -17 -13 -24 -3
-27 9 -3 9 -7 0 -18 -15 -19 -3 -64 19 -65 10 0 12 -3 5 -6 -15 -5 -18 -33 -4
-33 5 0 12 -11 15 -25 7 -29 67 -77 102 -81 14 -1 32 -8 41 -16 13 -10 17 -11
21 0 3 10 7 10 20 0 12 -10 16 -10 19 0 3 6 9 9 14 6 6 -3 18 -2 27 2 9 4 25
8 34 9 10 1 26 11 35 22 46 55 52 63 46 63 -3 0 3 8 14 18 26 22 39 62 21 62
-9 0 -9 3 -2 8 15 10 25 52 12 52 -6 0 -7 7 -4 16 8 21 -12 56 -27 48 -9 -5
-9 -4 0 6 10 10 8 19 -8 42 -11 15 -25 28 -31 28 -6 0 -18 8 -27 18 -24 26
-67 46 -85 39 -9 -4 -16 -2 -16 3 0 6 -7 10 -15 10 -8 0 -15 -4 -15 -8z"/>
<path d="M381 5574 c-17 -14 -31 -35 -31 -46 0 -20 -1 -20 -18 -5 -39 35 -92
13 -92 -37 0 -55 45 -82 86 -51 27 20 36 18 29 -6 -19 -60 30 -141 96 -159 82
-22 169 41 169 123 0 46 -27 99 -60 117 -11 6 -18 15 -15 20 3 5 -9 22 -27 39
-43 40 -93 42 -137 5z"/>
<path d="M45 5288 c-33 -17 -45 -40 -45 -80 0 -78 87 -116 147 -64 22 19 28
32 28 66 0 35 -6 46 -30 66 -32 26 -68 30 -100 12z"/>
<path d="M4382 5190 c-22 -20 -26 -35 -23 -75 5 -53 90 -74 129 -32 65 69 -37
171 -106 107z"/>
<path d="M2432 4917 c-12 -7 -29 -22 -37 -34 -23 -33 -45 -131 -45 -201 0 -54
4 -67 25 -88 29 -29 32 -60 8 -86 -11 -13 -14 -22 -7 -26 6 -4 16 -25 22 -47
6 -22 13 -49 17 -61 5 -15 0 -23 -19 -32 -34 -15 -33 -29 4 -50 37 -21 37 -33
0 -75 -39 -45 -38 -65 5 -83 28 -12 35 -20 35 -43 0 -16 -7 -34 -15 -41 -23
-19 -18 -29 25 -46 49 -20 55 -54 14 -73 -30 -13 -27 -35 4 -39 26 -4 26 -6
10 -32 -11 -17 -9 -27 10 -62 l22 -41 -22 -24 c-13 -13 -55 -40 -95 -60 -81
-40 -86 -49 -53 -113 23 -44 19 -62 -17 -85 -24 -16 -25 -20 -19 -80 5 -50 2
-71 -14 -106 -24 -55 -25 -77 -1 -109 21 -27 16 -45 -22 -87 -20 -22 -42 -28
-194 -53 -58 -9 -77 -17 -93 -37 -28 -36 -25 -70 10 -105 40 -40 72 -35 176
26 49 29 91 46 110 46 l32 0 -5 -59 -6 -58 51 5 51 4 25 -56 c38 -86 64 -87
164 -6 l62 51 27 -20 c51 -41 108 -17 178 74 71 92 235 273 319 353 65 62 151
120 161 110 2 -2 -2 -35 -10 -73 -19 -106 -9 -385 15 -385 15 0 80 108 80 134
0 15 9 45 20 66 11 22 27 79 36 128 8 48 19 91 23 95 13 13 77 -70 125 -162
55 -109 157 -346 185 -433 29 -88 71 -123 136 -115 l43 6 43 -65 c23 -36 55
-72 71 -80 29 -15 30 -15 78 35 46 47 51 50 77 40 15 -5 33 -15 40 -20 20 -17
33 -1 33 40 0 82 55 69 145 -33 68 -77 108 -95 153 -72 34 17 42 34 42 82 0
38 -25 58 -142 113 -77 37 -107 66 -115 114 -5 32 -2 39 25 62 30 25 31 27 25
94 -5 60 -3 73 16 99 25 35 27 70 6 98 -22 29 -18 47 20 84 19 19 35 40 35 47
0 8 -24 37 -54 66 -29 29 -61 68 -71 87 l-17 34 36 29 c37 30 45 54 24 75 -9
9 -5 12 20 12 34 0 46 25 17 36 -18 7 -20 35 -3 52 7 7 29 12 50 12 31 0 38 4
38 19 0 11 -4 23 -10 26 -15 9 -12 20 10 46 18 20 19 20 9 3 -7 -12 -9 -33 -5
-47 9 -36 72 -95 112 -106 59 -16 129 15 168 74 17 27 34 109 17 85 -8 -12
-11 -7 -11 23 0 49 -21 89 -57 107 -15 8 -43 30 -60 49 -19 19 -39 31 -47 28
-8 -3 -19 0 -25 7 -7 9 2 27 34 66 41 50 44 57 38 96 -5 41 -4 43 29 57 40 17
66 68 75 150 6 49 6 49 20 24 30 -58 103 -64 159 -15 34 30 36 35 31 81 -8 83
-71 117 -153 82 -20 -8 -38 -24 -41 -35 -5 -18 -7 -17 -22 12 -28 56 -71 73
-186 73 -113 0 -188 -22 -350 -100 -199 -96 -322 -183 -498 -354 -125 -122
-192 -211 -238 -319 -35 -83 -36 -77 -3 51 31 122 33 126 91 180 50 46 73 89
73 137 0 44 -18 28 -32 -27 -8 -34 -24 -58 -63 -95 -42 -40 -56 -61 -71 -111
-26 -88 -51 -127 -80 -127 -34 0 -44 28 -48 132 -2 84 -6 99 -36 151 -28 50
-32 65 -28 108 6 63 -13 61 -26 -3 -8 -41 -6 -50 28 -110 35 -64 36 -67 35
-169 -1 -112 -15 -206 -18 -119 -3 113 -36 221 -119 385 -44 88 -102 192 -128
232 -128 187 -351 401 -491 470 -82 41 -189 55 -231 30z m182 -1422 c9 -14 22
-25 29 -25 19 0 36 -21 30 -36 -3 -8 -15 -14 -27 -14 -11 0 -42 -7 -67 -16
-43 -16 -47 -16 -69 2 -65 54 -78 91 -29 86 14 -1 41 4 60 12 47 21 54 20 73
-9z m1683 -275 c15 -17 36 -30 50 -30 13 0 23 -6 23 -14 0 -18 -38 -46 -61
-46 -9 0 -22 -7 -29 -15 -12 -14 -17 -12 -44 13 -17 16 -46 38 -64 48 -38 22
-37 38 4 42 16 2 33 10 37 18 14 24 55 16 84 -16z m-1474 -77 c-3 -61 -2 -63
22 -63 49 0 55 -60 12 -107 -27 -30 -33 -29 -52 12 -23 47 -41 61 -59 45 -24
-19 -61 -8 -64 19 -11 76 52 165 112 159 l31 -3 -2 -62z m1167 -141 c33 -34
47 -90 34 -141 -10 -42 -44 -53 -74 -26 -21 19 -43 11 -72 -24 -26 -30 -45
-26 -58 14 -17 51 4 91 47 87 29 -3 31 -1 37 42 7 44 27 76 47 76 6 0 23 -13
39 -28z"/>
<path d="M4591 4884 c-121 -108 5 -296 151 -225 54 26 78 65 78 126 0 82 -57
135 -144 135 -39 0 -52 -6 -85 -36z"/>
<path d="M5391 4662 c-47 -23 -72 -61 -78 -114 -10 -85 42 -150 132 -167 53
-10 74 -32 75 -78 0 -78 97 -116 147 -58 43 50 32 83 -52 153 -22 18 -26 28
-21 50 26 110 15 158 -46 203 -48 34 -104 38 -157 11z"/>
<path d="M5564 3996 c-99 -43 -101 -191 -4 -241 89 -46 190 17 190 117 0 103
-93 164 -186 124z"/>
<path d="M5165 3915 c-36 -35 -35 -102 1 -139 36 -36 100 -36 138 -1 36 34 37
105 1 140 -34 35 -106 35 -140 0z"/>
<path d="M5846 3673 c-140 -689 -317 -1626 -313 -1660 7 -65 45 -132 113 -201
129 -129 308 -166 393 -81 35 34 61 111 61 178 0 108 -104 245 -237 312 -61
30 -77 34 -151 34 -78 0 -83 1 -78 20 3 11 66 332 141 714 143 725 141 710 93
711 -10 0 -19 -11 -22 -27z m-113 -1514 c62 -32 218 -193 250 -258 70 -142 6
-175 -142 -73 -95 65 -221 240 -221 308 0 47 46 57 113 23z"/>
<path d="M6310 1420 l0 -160 -40 6 -41 7 3 -94 3 -93 43 -9 42 -8 0 -115 0
-116 -40 7 -40 7 0 -96 0 -95 40 -11 c36 -10 40 -14 41 -45 1 -19 3 -39 4 -45
1 -5 3 -63 4 -128 l1 -118 34 4 33 4 -5 154 c-4 129 -3 154 9 150 8 -3 32 -10
54 -15 35 -9 40 -14 41 -38 0 -16 1 -92 2 -170 l2 -143 35 0 34 0 -6 162 -6
161 41 -7 42 -6 0 94 0 95 -40 11 -40 11 0 53 c0 29 -3 81 -7 115 l-6 63 46
-7 47 -7 0 43 c0 24 -3 67 -6 95 -6 51 -7 52 -45 58 l-39 6 -2 148 c-1 81 -1
157 0 170 1 19 -4 22 -34 22 l-34 0 0 -161 c0 -148 -1 -160 -17 -155 -10 2
-33 7 -50 11 l-33 7 0 131 c0 73 -3 149 -6 170 -6 33 -10 37 -35 37 l-29 0 0
-160z m136 -381 l44 -11 0 -114 c0 -125 2 -121 -62 -103 -35 9 -38 13 -38 48
0 21 -3 72 -6 114 -8 86 -9 84 62 66z"/>
</g>
</svg>
