<?xml version="1.0" standalone="no"?>
<!DOCTYPE svg PUBLIC "-//W3C//DTD SVG 20010904//EN"
 "http://www.w3.org/TR/2001/REC-SVG-20010904/DTD/svg10.dtd">
<svg version="1.0" xmlns="http://www.w3.org/2000/svg"
 width="2000.000000pt" height="2000.000000pt" viewBox="0 0 2000.000000 2000.000000"
 preserveAspectRatio="xMidYMid meet">
<metadata>
Created by potrace 1.16, written by Peter Selinger 2001-2019
</metadata>
<g transform="translate(0.000000,2000.000000) scale(0.100000,-0.100000)"
fill="#000000" stroke="none">
<path d="M16767 18918 c-4 -106 -10 -535 -13 -954 l-7 -761 -324 -63 c-178
-34 -326 -61 -328 -58 -3 3 0 393 6 867 6 474 8 865 5 868 -3 3 -29 2 -58 -3
l-53 -9 -7 -160 c-4 -88 -10 -482 -14 -876 l-6 -717 -52 -10 c-28 -6 -53 -8
-55 -6 -3 2 0 431 7 952 6 520 9 948 8 950 -2 1 -384 -72 -850 -163 -466 -91
-852 -165 -857 -165 -6 0 -9 -4 -7 -9 3 -11 250 -227 581 -511 l216 -185 0
-160 c0 -88 -6 -711 -14 -1385 -8 -674 -15 -1330 -15 -1458 l0 -232 -27 7
c-48 13 -264 7 -330 -9 l-63 -15 0 151 c0 83 7 637 15 1231 8 594 15 1184 15
1311 l0 231 -446 385 -446 385 -36 -8 c-20 -4 -39 -5 -42 -1 -3 4 -38 33 -78
65 l-73 59 -1297 -253 c-713 -138 -1300 -255 -1304 -258 -8 -7 230 -217 609
-541 l182 -155 0 -260 c1 -143 -4 -620 -9 -1060 -10 -758 -11 -800 -29 -820
-28 -30 -50 -78 -57 -124 -4 -23 -11 -41 -16 -41 -17 0 -271 -111 -370 -162
-100 -51 -238 -142 -238 -157 0 -5 18 -39 40 -77 21 -37 37 -71 34 -75 -2 -4
-56 -33 -120 -63 -199 -96 -310 -179 -380 -283 -21 -32 -41 -61 -44 -65 -7 -9
-1041 -211 -1047 -204 -3 3 -2 179 3 392 l9 387 442 87 c244 47 444 88 446 91
3 2 7 219 11 483 l6 478 -37 -6 c-21 -4 -50 -9 -64 -12 l-27 -5 -4 -449 c-2
-247 -7 -452 -10 -456 -4 -3 -204 -45 -445 -91 -241 -47 -440 -88 -443 -90 -3
-3 -7 -192 -10 -421 l-5 -417 -54 -11 -53 -12 4 473 c2 261 6 476 8 478 3 3
202 43 444 90 241 47 441 89 444 92 8 8 19 832 12 900 l-5 51 -324 -63 c-178
-35 -325 -62 -326 -60 -4 6 11 776 15 780 3 2 403 82 890 177 487 94 887 174
889 176 10 10 -75 87 -570 514 -313 271 -314 272 -352 266 -36 -6 -43 -2 -116
58 l-78 65 -559 -109 c-307 -60 -815 -159 -1129 -220 -836 -163 -917 -179
-921 -183 -4 -4 317 -285 657 -577 l146 -125 -4 -195 c-2 -107 -10 -892 -18
-1745 -8 -852 -17 -1646 -20 -1763 l-5 -214 43 7 c23 4 49 9 57 11 26 5 616
121 1015 199 209 41 542 106 740 144 197 39 363 67 366 63 12 -11 -54 -112
-76 -118 -11 -2 -444 -87 -963 -188 -519 -101 -946 -186 -948 -189 -3 -3 -4
-16 -2 -29 l3 -24 930 182 c512 101 935 183 942 183 6 1 -24 -59 -68 -131 -67
-111 -80 -138 -75 -163 8 -39 58 -85 94 -85 l28 0 -7 -57 c-4 -32 -8 -152 -8
-266 -1 -240 5 -278 80 -514 44 -136 52 -176 61 -288 6 -77 18 -152 29 -185
33 -94 32 -96 -63 -92 -114 5 -337 -15 -494 -44 -558 -102 -1084 -403 -1490
-852 -102 -112 -361 -443 -548 -699 -324 -445 -499 -791 -566 -1123 -12 -57
-27 -108 -33 -112 -7 -4 -64 -8 -128 -8 -259 0 -499 106 -771 343 -120 103
-147 135 -197 228 -47 87 -71 171 -106 369 -47 267 -130 468 -290 706 -195
290 -403 500 -697 706 -270 190 -771 382 -1173 449 -170 29 -454 32 -593 6
-197 -36 -420 -127 -592 -242 -96 -63 -291 -258 -353 -352 -63 -95 -128 -219
-167 -317 -31 -79 -33 -106 -7 -106 8 0 79 47 158 105 154 112 307 196 404
220 70 18 220 21 288 6 70 -16 239 -85 337 -138 199 -107 396 -253 755 -561
275 -235 382 -337 483 -457 152 -180 229 -321 308 -560 81 -249 129 -510 154
-855 32 -434 44 -536 86 -703 152 -606 668 -1072 1494 -1350 65 -22 153 -63
230 -108 294 -169 472 -245 660 -283 109 -21 129 -29 188 -69 37 -25 79 -51
93 -58 31 -13 56 -80 85 -219 18 -88 17 -99 -6 -455 -24 -366 32 -627 181
-847 21 -31 85 -112 141 -180 177 -212 249 -338 294 -515 55 -219 56 -381 3
-498 -55 -121 -41 -222 58 -419 71 -141 75 -157 83 -328 5 -104 14 -175 26
-210 23 -69 93 -139 182 -181 64 -30 73 -32 195 -33 l127 -1 73 -70 c112 -107
192 -165 225 -161 l27 3 0 187 0 187 55 -53 c69 -66 244 -196 263 -196 8 0 19
6 25 13 16 19 35 183 30 259 l-5 68 76 -78 c101 -102 206 -171 228 -149 3 4
13 65 21 137 11 87 20 130 28 130 21 0 64 60 64 88 0 95 -156 242 -540 513
-97 68 -108 80 -142 144 -20 39 -58 133 -84 210 -25 77 -78 206 -116 287 -107
228 -123 335 -93 598 22 196 4 419 -52 619 -5 21 -4 23 13 16 414 -177 767
-100 1142 250 40 37 74 66 75 64 2 -2 22 -36 45 -76 112 -192 267 -341 528
-509 95 -61 144 -99 157 -120 5 -9 -7 -23 -38 -44 -57 -39 -132 -144 -162
-226 -26 -72 -32 -201 -11 -222 19 -19 36 -15 158 34 66 26 116 41 118 35 8
-25 48 -65 78 -77 44 -19 168 -18 317 2 210 28 554 3 792 -58 117 -29 144 -32
265 -32 212 1 396 48 492 124 20 17 48 30 61 30 13 0 48 7 78 17 38 11 94 16
194 17 l140 1 3 25 c2 15 -8 42 -23 63 -14 21 -25 40 -25 42 0 3 50 5 110 5
105 0 112 1 136 25 18 19 23 31 19 48 -19 62 -117 165 -210 218 -63 37 -165
69 -217 69 -28 0 -49 8 -76 30 -73 58 -103 64 -367 66 -279 3 -424 15 -516 43
-71 22 -111 48 -234 151 -114 94 -128 103 -269 165 -224 98 -283 147 -300 250
-8 47 13 134 48 203 13 26 61 99 106 162 105 147 173 285 206 420 26 105 59
178 92 202 34 25 105 114 142 179 25 42 63 86 107 124 37 32 82 73 98 91 28
31 39 35 175 59 528 95 759 228 951 546 88 147 111 248 69 302 -45 56 -71 48
-286 -94 -84 -55 -174 -107 -201 -115 -117 -36 -235 -55 -376 -61 l-149 -6 30
60 c37 73 62 165 62 230 0 27 4 53 9 59 5 5 5 49 -1 109 -13 132 -5 263 22
364 20 71 28 86 66 119 66 59 120 72 346 83 168 7 208 12 280 35 89 28 204 82
253 119 17 12 41 26 55 30 87 27 166 91 201 165 23 49 25 50 68 50 103 0 201
110 201 226 0 57 -30 122 -73 159 -22 19 -48 35 -57 35 -9 0 -28 12 -43 28
l-26 27 1136 810 c624 446 1140 810 1145 810 6 0 20 -39 32 -88 12 -48 27 -92
34 -99 28 -28 48 0 551 742 110 163 273 395 362 515 201 272 316 435 381 543
60 100 57 112 -36 112 -33 0 -106 7 -161 15 -55 8 -121 15 -146 15 -45 0 -48
-2 -88 -55 -112 -149 -252 -280 -410 -386 -209 -141 -385 -209 -586 -227 l-80
-7 2 -121 2 -121 -68 -5 c-83 -6 -197 -58 -377 -171 -274 -171 -546 -281 -799
-323 -142 -23 -414 -21 -715 6 -184 17 -326 23 -570 24 l-325 2 -82 27 c-83
28 -189 91 -209 124 -11 17 4 23 200 82 718 217 855 245 1211 245 229 1 231 1
455 -41 477 -90 602 -84 784 38 96 64 191 166 228 246 25 54 29 72 26 125 -3
35 -10 77 -16 93 -6 17 -15 71 -20 120 -14 120 -40 199 -69 203 -15 2 -23 -3
-28 -18 -6 -20 -8 -21 -26 -4 -14 13 -16 21 -8 35 13 26 -8 143 -31 172 -17
19 -21 20 -40 9 -12 -7 -23 -12 -24 -10 -1 2 -6 17 -12 33 -13 41 -44 44 -69
5 -26 -39 -35 -38 -35 4 0 43 -18 93 -35 100 -8 3 -31 -14 -54 -39 l-40 -43
-5 41 c-3 23 -8 68 -11 100 -7 71 -29 127 -50 127 -21 0 -51 -51 -77 -133
l-22 -69 -12 82 c-26 184 -87 214 -133 65 l-18 -57 -6 65 c-7 76 -30 137 -51
137 -18 0 -64 -54 -72 -86 -9 -35 -24 -29 -24 9 0 18 -7 57 -15 85 -12 41 -20
52 -36 52 -21 0 -79 -53 -79 -72 0 -5 -4 -6 -10 -3 -5 3 -10 19 -10 35 0 45
-18 82 -37 78 -9 -2 -31 -22 -49 -45 l-32 -41 -4 54 c-3 32 -12 62 -21 71 -14
15 -18 15 -41 0 l-25 -17 -28 58 c-25 52 -27 66 -25 148 3 101 -4 143 -50 291
-17 57 -28 106 -24 110 4 5 24 -11 44 -33 150 -168 206 -224 222 -224 14 0 22
12 31 43 22 83 -8 185 -96 323 -26 40 -31 53 -16 39 37 -32 109 -148 157 -250
48 -103 63 -114 102 -72 71 76 54 216 -55 429 -50 98 -57 128 -33 128 17 0 84
-135 155 -310 57 -141 75 -175 90 -175 27 0 62 66 76 145 10 56 9 80 -5 151
-17 82 -78 241 -118 307 -11 18 -18 35 -15 38 7 7 62 -83 92 -149 14 -34 31
-57 38 -55 6 2 22 24 35 48 20 39 23 56 19 120 -2 41 -11 94 -20 118 -15 43
-15 43 5 25 11 -10 45 -55 75 -100 30 -46 61 -83 69 -83 26 0 47 69 41 134
l-5 58 35 -51 c22 -34 40 -51 51 -49 22 4 35 68 29 153 l-5 69 20 -24 c57 -72
59 -73 75 -57 18 17 43 116 43 169 0 33 3 37 33 43 17 4 35 12 38 17 3 5 71
21 150 36 l144 28 9 956 8 956 313 61 c172 34 320 61 330 61 18 0 18 -191 -1
-1362 -5 -348 -5 -368 12 -368 10 0 180 32 378 71 199 38 391 76 429 83 37 7
71 16 74 20 4 4 11 330 15 724 11 1067 38 3105 41 3108 1 2 26 -18 55 -44 l52
-47 -15 -1165 c-8 -641 -19 -1501 -24 -1913 -4 -411 -11 -750 -14 -754 -4 -3
-181 -41 -394 -82 l-388 -76 -3 -28 c-2 -17 1 -27 10 -26 7 0 213 39 458 87
l445 88 16 1349 c9 743 20 1607 24 1921 l7 570 -448 388 c-437 377 -449 387
-452 357 -2 -17 -6 -31 -8 -31 -4 0 -113 88 -195 157 -15 12 -17 -4 -22 -179z
m-2347 -1387 c0 -243 -31 -2448 -35 -2458 -3 -8 -23 -13 -55 -13 l-50 0 0 118
c0 64 7 599 15 1187 8 589 15 1130 15 1203 l0 134 55 -47 55 -47 0 -77z
m-1010 -86 c0 -30 -3 -55 -7 -55 -7 0 -712 -136 -750 -145 -22 -5 -23 -9 -23
-139 0 -73 -3 -262 -7 -419 -5 -250 -8 -287 -22 -291 -9 -3 -33 -8 -55 -12
l-39 -7 8 469 c5 333 10 472 18 480 7 6 170 42 362 79 193 38 377 74 410 80
107 22 105 23 105 -40z m-8 -502 c-2 -214 -5 -389 -7 -391 -1 -1 -139 -29
-306 -62 -167 -33 -314 -62 -326 -65 l-22 -5 6 387 c3 214 9 391 12 396 8 8
579 124 622 126 l25 1 -4 -387z m-2348 18 c15 -16 16 -22 5 -25 -8 -3 -407
-82 -886 -175 -480 -93 -877 -172 -881 -175 -5 -3 -12 -191 -16 -418 -4 -227
-10 -416 -14 -420 -4 -4 -30 -11 -57 -14 l-48 -7 6 303 c4 167 7 376 7 464 0
89 4 167 9 174 4 8 188 48 462 102 517 101 1096 214 1214 236 44 9 87 18 95
20 11 4 -10 30 -70 86 -65 62 -57 56 35 -25 66 -58 128 -114 139 -126z m5676
-776 c0 -30 -3 -55 -7 -55 -17 0 -764 -148 -767 -151 -2 -2 -9 -431 -14 -953
-6 -521 -13 -950 -16 -953 -6 -7 -125 -32 -152 -33 -15 0 -25 13 -41 50 l-21
49 36 7 c76 12 69 -12 76 267 3 139 9 567 12 952 3 385 8 702 10 704 5 6 833
169 862 170 20 1 22 -3 22 -54z m-3350 -650 c0 -48 -3 -55 -22 -60 -68 -15
-491 -96 -493 -93 -6 8 -27 99 -24 102 2 2 110 24 239 49 129 25 244 48 255
50 44 10 45 8 45 -48z m0 -395 l0 -281 -62 -28 c-35 -16 -124 -58 -199 -94
l-136 -64 -21 136 c-12 75 -33 208 -46 296 -14 88 -28 174 -31 190 l-7 31 234
46 c128 25 241 46 251 47 16 1 17 -19 17 -279z m1035 -210 l27 -80 -31 -35
c-17 -20 -34 -47 -37 -61 -6 -23 -2 -89 7 -123 3 -8 -11 -18 -37 -26 l-41 -12
-18 49 c-24 67 -101 150 -167 179 -66 28 -218 38 -323 19 -172 -30 -447 -144
-528 -219 -100 -92 -112 -204 -38 -357 22 -47 41 -88 41 -90 0 -2 -28 -4 -63
-4 -61 0 -64 1 -107 46 -79 81 -131 94 -180 46 -39 -40 -51 -87 -56 -237 -6
-169 -20 -272 -50 -365 -65 -206 -208 -346 -429 -419 -173 -57 -314 -61 -448
-11 -162 61 -274 178 -487 510 -62 96 -117 178 -123 182 -7 4 -31 -4 -54 -18
l-43 -25 -50 102 c-37 77 -47 105 -39 115 21 26 175 118 274 165 258 122 533
186 960 224 219 20 374 45 480 80 44 14 172 70 285 125 343 164 528 239 671
271 85 18 328 40 526 47 l51 2 27 -80z m-189 -282 c13 -26 24 -54 24 -62 0
-28 -177 -76 -319 -86 -69 -5 -127 -7 -129 -6 -3 4 107 76 258 169 120 75 121
75 166 -15z m784 -57 c126 -43 253 -114 403 -227 141 -105 221 -188 260 -268
40 -80 38 -86 -28 -79 -110 11 -245 -33 -372 -124 -100 -71 -218 -193 -412
-426 -273 -330 -378 -429 -521 -496 -119 -56 -180 -63 -575 -71 -322 -6 -368
-9 -440 -29 -109 -29 -257 -105 -460 -238 -372 -241 -479 -270 -770 -204 -170
39 -273 43 -331 13 -100 -52 -97 -166 9 -314 107 -151 195 -203 412 -243 117
-22 156 -34 240 -75 76 -37 355 -209 384 -236 2 -2 -9 -14 -24 -26 -60 -47
-150 -9 -314 132 -118 103 -192 143 -260 144 -64 1 -113 -21 -109 -48 3 -22 9
-23 85 -10 60 9 126 -25 255 -134 112 -95 174 -136 221 -147 37 -10 34 -20
-15 -52 -34 -23 -52 -28 -102 -27 -70 0 -98 13 -179 78 -33 27 -62 44 -70 40
-26 -10 -42 -66 -41 -144 1 -98 31 -177 93 -243 83 -89 185 -123 340 -114 113
7 209 30 357 88 237 92 274 102 375 107 81 4 120 -1 240 -27 274 -58 356 -64
483 -31 155 39 281 134 341 255 17 33 31 62 33 65 2 3 8 -3 13 -13 14 -25 68
-50 94 -43 15 4 28 -1 40 -14 30 -33 98 -54 137 -41 28 9 40 7 82 -14 50 -25
109 -32 135 -16 9 6 25 2 45 -10 39 -24 102 -24 141 -1 29 18 30 18 72 -6 36
-20 52 -23 91 -18 60 8 87 8 140 0 30 -4 49 -2 65 9 17 11 28 12 41 5 20 -11
72 -4 93 14 8 6 38 13 66 15 29 1 84 4 122 6 79 5 85 1 85 -59 0 -122 -182
-318 -358 -384 -52 -20 -70 -22 -217 -17 -131 4 -200 12 -380 46 -297 56 -433
67 -622 53 -268 -21 -514 -74 -943 -205 -353 -108 -428 -129 -440 -122 -5 3
-10 2 -10 -3 0 -8 -150 -48 -315 -83 -97 -21 -394 -18 -480 5 -160 42 -295
125 -430 262 -242 246 -387 569 -416 927 -7 78 -15 146 -19 150 -4 4 -15 5
-25 1 -16 -7 -17 -18 -12 -133 11 -265 98 -529 250 -759 251 -379 561 -552
952 -528 61 4 163 17 228 30 l117 23 -58 -61 c-32 -34 -71 -80 -87 -103 l-28
-43 -91 0 c-108 0 -162 -12 -372 -82 -156 -51 -161 -52 -280 -53 -119 0 -121
0 -195 37 -52 26 -101 62 -164 122 -90 85 -120 101 -132 69 -9 -22 144 -166
231 -217 141 -84 280 -93 481 -32 294 90 323 97 408 103 l88 6 -26 -49 c-23
-42 -33 -51 -84 -70 -80 -30 -136 -67 -203 -135 -57 -57 -75 -99 -42 -99 9 0
49 30 88 68 60 55 173 128 184 118 1 -2 -5 -32 -14 -67 -25 -94 -21 -236 11
-399 38 -202 42 -275 16 -399 -11 -57 -21 -130 -21 -162 0 -74 48 -261 94
-365 37 -85 80 -245 68 -255 -20 -17 -1213 -830 -1226 -835 -48 -19 -235 136
-283 235 -66 134 -21 316 113 461 71 77 115 102 234 136 52 14 116 37 142 50
162 82 207 226 101 326 -36 34 -123 74 -193 89 -79 16 -231 6 -310 -20 -139
-48 -360 -178 -458 -271 -24 -22 -45 -40 -47 -40 -2 0 5 26 17 58 30 83 30
217 -1 295 -22 57 -44 78 -61 61 -5 -5 3 -42 17 -84 32 -93 28 -180 -12 -285
-64 -168 -77 -220 -82 -316 -5 -80 -2 -109 15 -166 49 -160 250 -366 460 -472
113 -57 160 -113 183 -220 25 -117 -35 -214 -185 -297 -44 -25 -115 -70 -156
-101 -123 -91 -186 -111 -250 -78 -57 30 -98 102 -170 302 -28 76 -96 226
-158 346 -131 253 -154 314 -187 495 -13 75 -31 160 -40 187 -23 79 -71 152
-123 190 -86 63 -261 104 -270 63 -2 -12 5 -19 25 -24 164 -36 216 -62 271
-133 18 -24 31 -45 29 -47 -2 -3 -24 5 -49 16 -48 21 -191 45 -208 35 -7 -4
-7 -13 0 -24 7 -13 26 -20 70 -25 74 -9 126 -26 178 -61 39 -26 40 -28 57
-123 10 -53 26 -131 36 -172 l18 -75 -32 -27 c-56 -47 -134 -89 -224 -121 -83
-29 -96 -31 -233 -31 -111 0 -196 8 -362 32 -242 36 -319 39 -461 17 -289 -43
-581 -203 -768 -420 -28 -33 -55 -64 -60 -70 -14 -15 -119 102 -199 222 -163
243 -263 523 -246 689 9 86 86 308 149 428 46 88 230 234 374 295 248 107 272
122 513 311 153 120 251 185 322 214 l37 16 -19 -43 c-23 -51 -40 -141 -30
-157 4 -7 15 -10 25 -8 12 2 23 24 36 76 42 166 134 274 404 478 88 67 186
147 218 179 67 65 153 178 223 292 81 131 123 181 215 253 51 40 98 87 111
110 13 22 28 40 35 40 6 0 17 17 24 38 15 48 56 107 109 157 64 60 128 152
141 198 6 23 33 82 60 131 51 92 55 116 20 116 -14 0 -30 -20 -57 -70 -26 -47
-41 -67 -48 -60 -6 6 -14 70 -18 143 -7 139 -9 148 -81 378 -25 80 -51 186
-58 235 -14 104 -7 416 12 539 11 76 16 86 97 205 183 266 491 703 618 875
114 154 140 184 183 207 l51 28 27 -43 c213 -335 312 -465 415 -542 194 -147
393 -172 660 -81 127 43 197 86 284 171 144 142 207 314 222 605 l7 135 36 9
c19 5 84 5 143 1 l108 -7 -33 -34 c-27 -28 -30 -36 -19 -49 7 -8 17 -15 22
-15 5 0 54 43 108 95 113 108 277 233 360 275 81 41 163 60 306 70 110 7 140
14 271 59 82 28 166 55 188 60 22 5 83 21 135 35 85 23 110 26 230 23 121 -3
145 -7 230 -36z m-3862 -667 l32 -65 -133 -182 c-176 -240 -340 -471 -572
-809 -104 -152 -196 -277 -202 -277 -7 -1 -20 10 -29 24 -16 25 -15 28 72 168
178 288 371 589 548 852 218 324 239 354 246 355 3 0 20 -29 38 -66z m3945
-461 c31 -65 63 -145 72 -178 19 -72 22 -189 5 -230 -11 -29 -13 -28 -65 102
-29 72 -76 176 -105 231 l-53 99 39 47 c21 25 41 46 45 46 3 0 31 -53 62 -117z
m-196 -180 c78 -147 112 -289 82 -345 -10 -19 -16 -12 -63 78 -55 107 -101
178 -135 208 -11 11 -21 23 -21 28 0 11 80 108 90 108 3 0 25 -35 47 -77z
m-162 -193 c49 -84 75 -153 75 -203 0 -26 -2 -28 -16 -16 -9 7 -56 60 -105
116 l-89 103 37 40 c21 22 41 40 45 40 3 0 27 -36 53 -80z m-202 -177 c44
-144 59 -259 38 -291 -12 -20 -37 19 -113 178 l-64 135 50 32 c28 18 54 32 57
33 3 0 18 -39 32 -87z m-238 -211 c-4 -20 -10 -30 -17 -26 -11 7 -88 167 -88
183 0 4 24 14 53 22 l52 14 3 -80 c2 -44 0 -95 -3 -113z m-1517 -512 c51 -172
151 -345 278 -481 l44 -46 -57 -6 c-32 -3 -86 -15 -120 -27 l-63 -21 -152 99
c-267 173 -318 196 -528 236 -169 32 -221 57 -303 146 -114 124 -157 241 -106
289 45 42 113 40 339 -11 220 -49 340 -33 545 73 l90 46 7 -116 c4 -66 15
-144 26 -181z m2215 -8 c2 -84 1 -87 -21 -90 -30 -5 -72 33 -72 65 0 23 40
113 63 141 17 21 27 -17 30 -116z m-780 65 c85 -39 141 -97 191 -198 59 -118
81 -214 81 -364 0 -92 -4 -134 -20 -180 -39 -121 -160 -238 -290 -280 -48 -16
-86 -20 -195 -19 -117 1 -154 5 -280 35 -123 29 -162 34 -260 33 -126 -1 -151
-7 -430 -117 -141 -55 -241 -77 -358 -77 -114 0 -177 19 -236 71 -67 59 -98
125 -104 223 -5 86 -7 85 53 40 102 -75 202 -89 290 -41 28 15 86 59 130 98
133 118 163 128 420 138 218 8 266 22 300 85 35 64 -2 214 -62 253 -22 15 -26
15 -40 0 -14 -14 -13 -18 9 -49 42 -56 43 -60 11 -52 -141 32 -233 91 -233
149 0 32 67 89 136 115 172 65 389 17 512 -114 74 -78 96 -132 87 -210 -9 -82
-32 -132 -88 -187 -78 -79 -94 -83 -327 -90 -228 -7 -224 -6 -390 -89 -109
-55 -122 -64 -113 -87 8 -21 28 -16 116 28 173 87 190 91 402 93 183 1 192 2
246 27 66 31 148 110 178 171 27 58 43 143 35 193 -13 83 -94 201 -169 251
-32 21 -31 35 1 73 85 101 268 137 397 78z m3337 -472 c58 -8 126 -15 153 -15
l47 0 -49 -78 c-68 -109 -170 -254 -340 -481 -80 -108 -209 -288 -285 -401
-209 -307 -431 -633 -505 -740 l-65 -94 -13 49 c-7 28 -17 73 -22 100 -6 28
-17 78 -26 113 -37 146 -135 765 -135 851 l0 38 73 6 c194 17 435 122 655 287
102 76 270 242 327 322 26 37 47 57 60 57 11 0 67 -6 125 -14z m-2590 -219
c16 -82 30 -155 30 -163 0 -29 -76 -6 -113 35 -17 18 -18 26 -7 79 18 89 53
219 57 208 1 -6 16 -77 33 -159z m170 87 c6 -38 23 -109 38 -160 28 -101 24
-123 -26 -123 -26 0 -92 36 -92 50 0 5 11 75 25 156 14 81 25 149 25 151 0 2
4 2 9 -1 5 -3 14 -36 21 -73z m210 -53 c11 -69 28 -146 36 -172 9 -26 13 -52
9 -58 -10 -16 -42 -12 -87 11 l-41 21 7 86 c7 103 39 252 51 241 2 -3 13 -61
25 -129z m-551 -100 c6 -25 11 -51 11 -57 0 -20 -55 -15 -83 7 l-25 20 23 88
c13 48 29 101 37 117 12 28 13 26 19 -50 4 -44 12 -100 18 -125z m-10934 -435
c278 -38 570 -129 900 -281 378 -174 731 -486 988 -874 144 -218 229 -425 267
-650 30 -179 49 -255 81 -338 16 -40 29 -74 29 -77 0 -2 -17 3 -37 12 -58 25
-168 23 -220 -5 -58 -30 -113 -80 -113 -102 0 -33 29 -31 69 5 75 68 155 82
256 44 31 -12 54 -23 51 -26 -3 -3 -42 -18 -88 -34 -97 -34 -114 -47 -96 -72
12 -15 21 -13 108 17 156 54 131 60 271 -61 311 -266 570 -379 847 -368 l102
3 0 -78 c0 -164 36 -320 116 -512 74 -174 174 -339 423 -699 l53 -76 2 -234
c2 -212 5 -247 30 -368 84 -411 242 -756 601 -1316 142 -222 205 -310 307
-433 78 -93 238 -234 341 -301 75 -49 77 -52 119 -246 20 -89 22 -124 19 -315
-6 -475 -6 -502 12 -570 10 -36 47 -123 82 -195 35 -71 89 -204 120 -295 31
-91 72 -195 92 -232 32 -61 43 -72 151 -149 64 -45 151 -107 192 -137 239
-176 366 -320 317 -361 -13 -10 -16 -7 -22 21 -26 118 -121 188 -257 188 -32
0 -73 -6 -92 -14 -37 -16 -76 -60 -76 -87 0 -22 -7 -23 -40 -4 -29 17 -110 19
-161 5 -56 -16 -102 -51 -125 -97 l-21 -42 -24 25 c-95 101 -329 1 -329 -140
0 -20 11 -59 25 -86 14 -27 25 -52 25 -55 0 -3 -44 -3 -97 1 -114 7 -186 34
-246 92 -64 61 -70 80 -78 254 -9 176 -26 243 -100 391 -90 178 -99 253 -47
370 27 61 32 87 36 168 8 173 -35 390 -106 542 -49 105 -115 203 -228 337
-128 153 -171 214 -219 315 -88 182 -111 334 -99 645 5 118 9 280 9 360 -1
170 -9 206 -109 467 -35 92 -72 197 -82 233 -25 89 -25 264 -1 344 13 42 15
62 7 70 -20 20 -44 -9 -63 -75 -29 -103 -19 -284 23 -413 17 -54 40 -119 51
-143 11 -25 18 -48 15 -50 -2 -2 -26 12 -54 31 -64 47 -104 62 -178 70 -107
12 -263 65 -417 142 -99 50 -318 174 -339 191 -9 8 -81 36 -160 63 -538 180
-946 447 -1196 782 -217 289 -287 518 -326 1053 -30 404 -55 593 -106 812
-126 533 -278 756 -855 1251 -417 358 -589 483 -815 595 -160 80 -214 102
-286 121 -240 60 -436 7 -723 -196 -52 -37 -96 -66 -98 -64 -8 8 92 195 151
281 70 103 199 237 301 313 87 64 249 149 375 195 222 82 471 102 765 62z
m12437 -267 l3 -37 -2325 -1591 -2324 -1592 -45 22 c-38 18 -42 23 -30 35 8 8
1069 736 2359 1619 1501 1027 2347 1600 2352 1593 3 -7 8 -29 10 -49z m-6092
-28 c0 -12 -88 -100 -181 -182 -36 -31 -81 -80 -101 -110 -19 -29 -70 -106
-113 -172 -103 -157 -177 -234 -369 -379 -164 -124 -296 -242 -336 -300 -16
-23 -38 -37 -79 -50 -72 -23 -183 -89 -291 -172 -335 -259 -351 -269 -555
-355 -118 -50 -149 -67 -234 -133 l-65 -50 38 69 c51 93 175 281 250 379 96
125 145 188 170 215 12 14 58 70 101 125 337 427 702 745 1071 933 180 91 335
145 509 177 88 16 185 19 185 5z m6115 -106 c4 -25 2 -41 -7 -49 -26 -25
-4518 -3095 -4528 -3095 -5 0 -25 7 -44 16 l-34 17 2296 1573 c1264 865 2300
1573 2303 1573 4 1 10 -15 14 -35z m28 -166 c4 -26 2 -38 -6 -38 -9 0 -1949
-1322 -2695 -1837 -70 -48 -121 -77 -134 -75 -13 2 -21 -3 -25 -17 -3 -13
-282 -209 -780 -551 l-776 -531 -44 17 c-36 14 -42 20 -31 30 7 7 1016 699
2243 1538 1503 1029 2231 1522 2236 1514 3 -7 9 -30 12 -50z m9 -159 c-9 -9
-546 -377 -1192 -819 -646 -442 -1193 -816 -1215 -832 -37 -26 -44 -27 -73
-17 -18 6 -32 15 -30 19 2 5 568 395 1258 868 l1255 859 7 -31 c5 -23 2 -35
-10 -47z m-3472 -26 c127 -84 372 -183 518 -208 124 -22 326 -19 490 6 118 19
163 21 332 16 107 -3 256 -13 330 -22 74 -10 215 -20 312 -23 l176 -7 -1114
-763 c-613 -420 -1121 -765 -1128 -768 -9 -4 -17 13 -26 58 -6 35 -25 95 -42
133 -40 93 -64 166 -89 272 -23 95 -21 160 6 277 23 95 18 202 -16 391 -57
309 -30 453 124 688 l19 27 26 -20 c15 -12 52 -37 82 -57z m3509 -69 c1 -7 -7
-14 -16 -16 -14 -4 -1982 -1362 -2309 -1594 l-61 -43 -27 18 -27 18 1213 831
c1234 844 1224 838 1227 786z m10 -81 c-1 -5 -520 -378 -1153 -829 l-1151
-822 -23 21 c-16 15 -19 24 -12 31 29 29 2335 1622 2338 1615 2 -5 2 -12 1
-16z m-2553 -1529 c62 -26 148 -89 240 -177 84 -80 85 -83 74 -112 -25 -67
-87 -105 -172 -105 -33 0 -38 3 -43 28 -16 80 -43 149 -102 260 -68 129 -68
136 3 106z m-130 -253 c44 -33 106 -86 138 -119 57 -59 59 -62 53 -104 -8 -58
-43 -88 -101 -88 -61 0 -105 32 -129 95 -11 28 -46 107 -79 178 -32 70 -58
132 -58 137 0 17 92 -35 176 -99z m-197 16 c-2 -2 -335 -230 -739 -506 l-734
-503 -34 16 -34 17 759 519 758 519 14 -29 c8 -17 13 -31 10 -33z m731 -68
c49 -67 39 -169 -23 -234 -48 -50 -86 -64 -125 -44 -15 7 -31 13 -35 14 -4 0
-19 -27 -32 -59 -13 -33 -41 -77 -62 -99 -42 -43 -107 -78 -132 -70 -57 18
-74 30 -101 74 -30 49 -56 62 -66 35 -8 -20 22 -74 63 -117 l35 -37 -63 -35
c-127 -71 -201 -88 -434 -103 -212 -13 -260 -21 -327 -55 -99 -50 0 29 320
257 191 136 353 251 359 257 9 6 21 -1 40 -23 31 -38 94 -69 137 -70 43 0 109
35 129 69 10 16 18 48 20 69 l2 40 66 4 c88 5 142 39 173 109 11 26 24 49 27
49 3 0 16 -14 29 -31z m-680 -30 c0 -10 -1386 -969 -1400 -969 -6 0 -25 7 -41
16 l-30 15 723 495 c705 482 722 494 735 472 7 -13 12 -26 13 -29z m40 -90 c8
-17 9 -34 4 -38 -19 -17 -1279 -914 -1290 -918 -19 -7 -98 37 -86 49 15 15
1346 937 1353 938 4 0 12 -14 19 -31z m-781 -726 c-43 -149 -49 -195 -47 -420
0 -131 -4 -237 -11 -265 -17 -74 -49 -150 -75 -183 l-24 -30 -79 16 c-146 31
-259 87 -305 152 -19 26 -23 45 -23 102 0 59 5 81 33 137 18 37 51 90 72 117
45 57 49 74 20 94 -18 13 -4 25 213 180 127 92 235 167 239 167 4 0 -2 -30
-13 -67z m-1190 -180 c17 -10 31 -21 31 -25 0 -4 -40 -34 -88 -67 l-88 -59
-22 38 -21 38 67 45 c37 25 72 46 79 46 6 1 25 -7 42 -16z m-235 -82 c56 -92
95 -185 96 -223 0 -34 -8 -35 -46 -6 -42 31 -204 191 -204 201 0 9 90 104 101
106 3 1 26 -34 53 -78z m374 -11 c-4 -11 -239 -172 -244 -167 -2 2 -7 17 -10
34 -6 29 -2 33 97 101 101 69 104 70 132 56 15 -9 27 -19 25 -24z m93 -47 c16
-10 29 -20 29 -24 0 -3 -249 -178 -552 -389 -1601 -1111 -1879 -1302 -1882
-1299 -1 2 -7 21 -13 41 -8 28 -8 40 1 46 6 5 380 265 831 578 812 563 820
568 870 569 49 0 49 0 60 40 11 36 24 48 132 123 111 75 124 81 149 72 32 -12
34 -11 43 31 6 28 27 46 146 130 77 53 144 98 148 98 5 1 22 -7 38 -16z m119
-68 c17 -9 30 -17 30 -19 0 -2 -11 -28 -24 -57 -45 -96 -43 -226 5 -355 52
-138 111 -183 328 -253 156 -51 263 -103 244 -122 -5 -5 -70 -16 -146 -24
-151 -17 -189 -28 -527 -157 -222 -85 -271 -109 -390 -186 -207 -134 -293
-222 -603 -619 -267 -340 -447 -492 -653 -547 -84 -23 -246 -31 -329 -17 -184
32 -271 119 -355 356 -32 92 -92 297 -87 301 2 2 1097 762 2042 1416 236 164
431 298 433 298 2 0 16 -7 32 -15z m-686 -24 l28 -29 -34 -25 c-52 -39 -142
-97 -145 -94 -1 2 -9 20 -18 40 l-15 36 73 50 c39 28 75 50 78 50 3 1 18 -12
33 -28z m-564 -94 c10 -3 12 -8 5 -14 -5 -6 -334 -234 -730 -508 -396 -274
-732 -506 -746 -516 l-25 -18 -55 72 c-105 138 -220 248 -369 352 -233 162
-308 252 -298 355 7 67 46 121 131 181 139 97 310 150 488 151 138 0 217 -14
524 -92 276 -70 411 -88 539 -71 168 23 278 74 375 174 l44 46 51 -53 c28 -30
58 -56 66 -59z m335 16 c80 -168 113 -273 87 -273 -26 0 -292 227 -292 249 0
4 15 12 33 19 17 7 52 28 77 46 25 19 48 35 51 35 4 1 23 -34 44 -76z m325
-13 c21 -17 23 -22 10 -29 -8 -6 -58 -39 -110 -75 -52 -36 -99 -61 -103 -57
-4 4 -9 19 -10 33 -2 22 11 35 83 86 47 34 90 61 95 61 6 0 21 -8 35 -19z
m-543 -56 c16 -25 16 -27 -3 -41 -10 -8 -361 -251 -778 -540 l-759 -526 -23
29 c-13 16 -20 32 -16 36 23 22 1539 1067 1549 1068 7 0 20 -12 30 -26z m110
-130 c-25 -22 -1577 -1094 -1585 -1094 -5 0 -16 17 -26 37 -14 29 -15 38 -4
44 7 4 298 205 646 446 348 241 696 481 774 535 l142 96 33 -26 c25 -21 30
-29 20 -38z m82 -53 l24 -18 -64 -45 c-291 -206 -1571 -1088 -1578 -1088 -5 0
-14 13 -19 29 l-10 29 741 513 c408 282 769 532 802 555 33 24 65 43 70 43 6
0 21 -8 34 -18z m1396 -824 c-75 -63 -110 -103 -152 -175 -48 -81 -115 -143
-262 -239 -64 -42 -165 -111 -226 -154 -161 -112 -410 -264 -746 -452 -162
-91 -303 -169 -313 -173 -41 -16 498 622 667 788 158 157 299 246 487 308 82
28 542 138 580 139 8 0 -7 -19 -35 -42z m-3468 -104 c15 -27 84 -124 152 -218
153 -209 243 -345 238 -359 -4 -13 -167 -146 -179 -146 -4 0 -51 64 -103 143
-53 78 -147 213 -210 300 -63 87 -115 164 -115 171 0 7 19 27 43 44 23 17 62
49 87 71 25 22 48 40 52 41 4 0 20 -21 35 -47z m3102 -390 c-28 -151 -98 -303
-213 -461 -178 -247 -210 -398 -111 -528 36 -47 123 -100 261 -160 147 -63
172 -79 289 -177 105 -89 197 -141 286 -161 95 -22 357 -38 499 -31 140 8 233
-4 291 -37 l37 -20 -38 -38 c-21 -21 -43 -54 -50 -74 -10 -31 -16 -36 -44 -36
-52 0 -119 -49 -150 -111 -46 -93 -28 -186 44 -227 16 -9 30 -20 30 -24 0 -14
-102 -59 -175 -78 -106 -27 -280 -41 -370 -30 -40 5 -120 21 -177 36 -126 32
-419 64 -588 64 -69 -1 -172 -7 -230 -15 -144 -20 -227 -19 -270 3 -55 27 -51
52 15 85 30 15 74 39 96 53 l42 26 -7 55 c-16 135 -100 233 -201 233 -28 0
-42 7 -67 36 -17 20 -104 84 -192 144 -214 144 -302 222 -414 367 -44 56 -112
174 -112 193 0 9 17 32 38 51 39 38 50 44 462 274 345 193 528 303 728 439
131 89 292 194 298 196 1 0 -2 -21 -7 -47z m1594 -1656 c104 -52 250 -192 219
-211 -4 -2 -67 -6 -139 -7 l-131 -2 -48 41 c-51 42 -129 85 -176 97 -34 9 -33
8 -6 56 30 54 68 71 146 65 47 -3 83 -13 135 -39z m-2265 -67 c37 -23 78 -102
84 -160 3 -32 0 -36 -61 -72 -36 -20 -132 -64 -214 -97 l-149 -60 4 67 c5 85
48 182 115 253 81 87 154 110 221 69z m2040 -90 c57 -29 101 -61 151 -111 39
-38 71 -74 71 -79 0 -6 -47 -10 -117 -9 -84 1 -132 -3 -168 -15 -92 -29 -176
-14 -211 38 -35 55 0 154 70 197 51 31 112 25 204 -21z m-3373 -1733 c48 -24
84 -66 96 -111 11 -41 6 -195 -9 -265 l-7 -33 -72 56 c-79 62 -186 188 -215
254 -38 84 1 125 112 119 36 -2 79 -11 95 -20z m-329 -83 c73 -35 111 -154
100 -318 -3 -54 -9 -102 -12 -107 -7 -12 -190 128 -242 185 -47 51 -82 115
-82 150 0 77 146 133 236 90z m-347 -102 c54 -53 74 -129 79 -304 2 -87 1
-158 -3 -158 -14 0 -152 120 -216 187 -69 73 -109 141 -109 185 0 33 39 80 82
101 18 9 57 17 86 17 45 0 58 -4 81 -28z"/>
<path d="M12245 14369 c-93 -13 -390 -83 -488 -115 -198 -66 -290 -191 -258
-351 25 -125 126 -289 256 -417 85 -85 163 -134 264 -169 79 -27 93 -29 196
-25 131 6 203 31 306 107 158 117 251 311 253 531 3 275 -130 431 -377 444
-45 3 -113 0 -152 -5z m475 -346 c8 -34 10 -85 5 -127 -22 -237 -136 -416
-324 -509 l-84 -42 -121 0 c-103 0 -130 4 -179 24 -63 25 -179 99 -185 118 -5
16 133 116 336 245 89 57 245 157 345 224 100 67 185 122 189 123 4 0 12 -25
18 -56z"/>
<path d="M11414 13116 c-3 -8 2 -49 12 -92 9 -44 17 -128 17 -189 2 -134 -18
-222 -76 -332 -22 -43 -54 -104 -70 -136 -35 -68 -46 -154 -27 -212 18 -55 65
-102 170 -170 138 -90 175 -136 234 -288 33 -84 41 -93 66 -77 12 7 12 17 -4
67 -49 157 -128 262 -249 334 -139 82 -188 151 -172 237 3 19 38 96 76 171 85
166 109 253 109 396 0 87 -17 223 -36 288 -6 20 -42 23 -50 3z"/>
<path d="M6720 16793 c0 -197 -3 -517 -7 -711 l-6 -353 -62 -82 c-114 -150
-348 -432 -357 -429 -5 1 -61 48 -124 104 l-114 101 5 359 c3 197 7 519 10
716 3 197 3 361 0 364 -3 3 -31 0 -63 -6 l-57 -12 -7 -594 c-4 -327 -8 -641
-10 -698 l-3 -103 -52 43 -53 43 6 650 c3 358 7 683 7 723 1 39 -1 72 -5 72
-20 0 -1703 -332 -1708 -336 -3 -3 11 -20 31 -37 21 -18 153 -133 296 -257
142 -124 307 -265 366 -315 l107 -90 -2 -535 -3 -534 438 -379 439 -379 -6
-587 c-3 -322 -9 -754 -12 -959 l-6 -373 24 5 c12 3 176 35 363 71 187 36 381
74 430 83 l90 18 10 955 10 956 240 299 c132 164 328 406 435 538 107 131 204
250 215 264 18 24 20 48 25 508 3 266 8 485 10 488 3 2 28 -17 56 -42 l50 -47
-6 -485 -6 -486 -179 -219 c-99 -121 -304 -375 -456 -565 l-277 -345 -6 -930
c-4 -511 -9 -941 -12 -955 -5 -26 -10 -27 -382 -99 -207 -40 -385 -75 -394
-77 -23 -7 -25 -54 -2 -54 15 0 897 170 900 173 1 1 6 432 12 958 l10 957 268
333 c148 184 353 438 456 564 l188 230 0 225 c0 124 3 342 6 485 l7 260 -449
387 -449 387 -5 -35 -5 -35 -32 29 c-48 45 -181 152 -187 152 -3 0 -6 -161 -6
-357z"/>
<path d="M17877 11619 c-80 -19 -217 -107 -217 -140 0 -25 53 -84 90 -99 44
-18 165 -8 215 18 57 29 105 82 112 125 4 29 1 40 -20 60 -25 25 -85 48 -122
46 -11 -1 -37 -5 -58 -10z m133 -67 c19 -16 21 -22 11 -40 -27 -51 -114 -92
-196 -92 -44 0 -109 33 -102 53 5 17 78 65 124 82 56 20 136 19 163 -3z"/>
<path d="M17719 11290 c-62 -11 -145 -51 -199 -99 -44 -38 -45 -39 -27 -59 10
-11 46 -32 80 -48 51 -23 76 -28 142 -29 67 0 87 4 124 25 119 68 113 183 -11
209 -27 6 -52 10 -56 10 -4 -1 -28 -5 -53 -9z m146 -73 c7 -10 11 -27 8 -38
-12 -44 -115 -86 -182 -74 -55 9 -131 36 -131 45 0 13 57 51 108 71 61 25 178
22 197 -4z"/>
<path d="M17430 10964 c-96 -26 -208 -111 -195 -146 8 -20 198 -88 245 -88 73
1 170 72 186 136 8 30 -19 72 -57 91 -42 20 -120 24 -179 7z m159 -57 c14 -6
26 -17 28 -23 7 -21 -47 -72 -94 -90 -46 -18 -46 -18 -129 11 -46 15 -84 31
-84 36 0 10 60 47 106 63 49 18 141 20 173 3z"/>
<path d="M17301 10659 c-55 -11 -152 -57 -208 -98 -51 -37 -55 -65 -15 -104
65 -62 193 -77 280 -33 67 34 122 97 122 140 0 44 -32 83 -78 96 -41 11 -40
11 -101 -1z m113 -65 c9 -8 16 -24 16 -34 0 -22 -61 -77 -106 -96 -58 -24
-146 -15 -201 21 l-24 16 23 18 c94 73 253 114 292 75z"/>
<path d="M17049 10350 c-55 -14 -139 -54 -186 -89 -55 -40 -58 -76 -12 -116
115 -96 234 -93 336 9 74 74 82 134 23 178 -30 22 -110 31 -161 18z m132 -60
c28 -15 23 -44 -13 -85 -71 -82 -174 -98 -256 -39 -23 16 -42 31 -42 34 0 10
71 53 127 76 62 25 150 32 184 14z"/>
<path d="M16955 9384 c-313 -6 -618 -12 -676 -13 l-106 -1 -206 -437 c-113
-241 -303 -643 -421 -893 l-215 -455 117 -6 c64 -4 212 -7 327 -9 116 -1 251
-5 302 -9 l92 -6 -350 -760 c-192 -418 -351 -767 -354 -776 -3 -10 4 -21 20
-29 35 -19 31 -30 -10 -30 -20 0 -35 -5 -35 -12 0 -6 -7 -19 -15 -28 -15 -17
-168 -341 -163 -346 3 -2 311 317 743 769 225 235 1011 1056 1090 1137 55 58
211 220 345 360 134 140 271 283 304 317 33 34 58 64 55 67 -2 2 -179 14 -394
26 -214 12 -391 23 -392 24 -1 1 193 253 432 559 239 307 435 560 435 562 0 7
-273 4 -925 -11z"/>
</g>
</svg>
