<?xml version="1.0" standalone="no"?>
<!DOCTYPE svg PUBLIC "-//W3C//DTD SVG 20010904//EN"
 "http://www.w3.org/TR/2001/REC-SVG-20010904/DTD/svg10.dtd">
<svg version="1.0" xmlns="http://www.w3.org/2000/svg"
 width="198.000000pt" height="307.000000pt" viewBox="0 0 198.000000 307.000000"
 preserveAspectRatio="xMidYMid meet">
<metadata>
Created by potrace 1.16, written by Peter Selinger 2001-2019
</metadata>
<g transform="translate(0.000000,307.000000) scale(0.100000,-0.100000)"
fill="#ffffff" stroke="none">
<path d="M606 3016 c-45 -17 -104 -71 -112 -103 -4 -13 -10 -23 -15 -23 -5 0
-9 -129 -9 -295 l0 -295 165 0 165 0 0 -45 0 -45 -165 0 -165 0 0 -110 0 -110
165 0 165 0 0 -40 0 -40 -165 0 -166 0 3 -112 3 -113 163 -3 162 -2 0 -40 0
-40 -165 0 -165 0 0 -260 0 -261 34 -53 c24 -38 47 -60 79 -75 44 -22 51 -22
464 -19 l419 3 42 28 c23 15 52 46 64 70 22 40 23 54 26 305 l3 262 -165 0
-166 0 0 40 0 40 165 0 165 0 0 115 0 115 -165 0 -165 0 0 40 0 40 165 0 165
0 0 110 0 110 -165 0 -165 0 0 45 0 45 166 0 166 0 -4 293 c-3 318 -4 322 -65
378 -59 55 -48 54 -483 56 -328 2 -412 0 -444 -11z"/>
<path d="M190 1633 c0 -391 2 -435 20 -508 23 -93 39 -135 52 -135 5 0 6 -4 3
-10 -3 -5 -1 -10 5 -10 6 0 8 -5 5 -10 -3 -6 -2 -10 3 -10 4 0 18 -20 30 -44
34 -68 97 -141 152 -176 28 -18 50 -35 50 -39 0 -28 206 -104 329 -121 122
-18 386 -8 484 19 78 20 203 75 222 97 6 6 21 18 33 27 13 8 55 45 93 81 58
56 78 84 124 179 30 62 56 123 57 137 2 14 8 28 13 32 6 5 11 174 13 463 l3
455 -126 0 -125 0 0 -55 0 -55 40 0 40 0 0 -332 c0 -321 -9 -455 -32 -469 -6
-4 -7 -12 -4 -18 4 -6 2 -11 -3 -11 -6 0 -11 -5 -11 -11 0 -23 -51 -117 -86
-158 -79 -91 -211 -168 -345 -198 -102 -24 -310 -23 -399 1 -83 22 -198 73
-229 100 -67 58 -150 141 -146 145 3 2 -2 9 -10 15 -8 6 -27 45 -42 86 l-28
75 -3 388 -3 387 31 0 c30 0 30 0 30 55 l0 55 -120 0 -120 0 0 -427z"/>
<path d="M960 360 l0 -160 -245 0 -246 0 3 -63 3 -62 563 -3 562 -2 0 65 0 65
-240 0 -240 0 0 160 0 160 -80 0 -80 0 0 -160z"/>
</g>
</svg>
