<?xml version="1.0" standalone="no"?>
<!DOCTYPE svg PUBLIC "-//W3C//DTD SVG 20010904//EN"
 "http://www.w3.org/TR/2001/REC-SVG-20010904/DTD/svg10.dtd">
<svg version="1.0" xmlns="http://www.w3.org/2000/svg"
 width="996.000000pt" height="1098.000000pt" viewBox="0 0 996.000000 1098.000000"
 preserveAspectRatio="xMidYMid meet">
<metadata>
Created by potrace 1.16, written by Peter Selinger 2001-2019
</metadata>
<g transform="translate(0.000000,1098.000000) scale(0.100000,-0.100000)"
fill="#000000" stroke="none">
<path d="M1390 10857 c-55 -36 -74 -78 -75 -171 -1 -73 7 -146 22 -186 4 -8 5
-21 4 -28 -1 -7 6 -21 17 -30 20 -18 52 -108 52 -149 0 -13 9 -36 20 -51 11
-15 24 -42 29 -59 l10 -33 -31 16 c-37 19 -67 13 -123 -26 -49 -34 -108 -108
-101 -127 4 -8 -3 -13 -20 -13 -63 0 -131 -55 -154 -124 l-11 -34 -51 17 c-29
9 -62 26 -75 39 -12 12 -30 22 -39 22 -14 0 -70 26 -144 67 -14 8 -52 27 -85
44 -116 57 -205 30 -220 -66 -9 -62 26 -122 101 -172 30 -20 54 -42 54 -49 0
-20 38 -38 54 -25 19 16 40 5 53 -29 9 -23 18 -30 37 -30 14 0 26 -4 26 -10 0
-5 11 -12 25 -16 13 -3 29 -12 36 -20 6 -8 22 -14 35 -14 16 0 28 -10 39 -30
9 -18 23 -30 35 -30 11 0 38 -16 60 -36 32 -29 39 -41 34 -60 -6 -23 1 -29 32
-25 16 2 62 -71 66 -105 2 -21 9 -30 26 -32 12 -2 27 -13 33 -25 7 -12 26 -36
43 -54 45 -45 86 -99 86 -112 0 -6 6 -11 13 -11 18 0 47 -53 47 -88 0 -45 49
-223 70 -257 11 -16 25 -44 33 -60 8 -17 30 -43 50 -58 20 -15 50 -47 66 -71
18 -25 54 -57 87 -77 45 -27 60 -42 71 -73 17 -50 28 -63 75 -87 30 -16 45
-33 69 -86 28 -58 37 -68 80 -87 50 -22 56 -30 79 -115 15 -55 50 -91 89 -91
25 0 34 -7 49 -37 11 -21 25 -55 31 -75 14 -41 62 -88 92 -88 11 0 25 -13 34
-31 9 -17 49 -65 89 -107 40 -42 94 -110 119 -149 34 -53 61 -82 99 -107 62
-39 94 -95 128 -221 35 -131 146 -302 221 -340 31 -17 96 -20 119 -6 25 16 27
4 14 -76 -6 -43 -20 -169 -29 -280 -20 -228 -13 -433 24 -683 11 -74 31 -220
45 -325 80 -607 135 -925 191 -1092 63 -189 116 -270 212 -326 30 -18 71 -42
91 -54 20 -13 45 -23 55 -23 9 0 17 -4 17 -10 0 -5 -4 -10 -9 -10 -13 0 -56
-71 -74 -122 -11 -32 -43 -78 -103 -145 -107 -121 -154 -189 -154 -226 0 -15
-11 -45 -25 -65 -14 -20 -25 -42 -25 -49 0 -7 -18 -24 -40 -38 -116 -73 -253
-355 -211 -434 10 -17 9 -21 -4 -21 -27 0 -65 -50 -65 -85 0 -49 -64 -133
-130 -170 -58 -32 -100 -83 -100 -120 0 -12 7 -42 15 -65 20 -56 20 -54 -19
-68 -46 -17 -84 -57 -96 -101 -9 -35 -12 -37 -44 -33 -42 5 -130 -33 -166 -72
-14 -15 -41 -34 -60 -42 -19 -8 -48 -28 -65 -43 -16 -16 -44 -32 -61 -35 -35
-8 -282 -146 -519 -291 -428 -261 -581 -397 -686 -610 -123 -249 -144 -587
-50 -791 31 -66 124 -173 201 -229 42 -31 54 -35 106 -34 33 0 52 3 44 6 -8 3
-35 14 -60 25 l-45 19 28 16 c37 19 30 25 -13 13 -29 -8 -37 -7 -57 12 -26 25
-29 38 -9 38 8 0 18 5 22 12 5 8 -2 9 -26 4 -24 -4 -38 -2 -52 10 -24 22 -23
30 5 39 19 7 17 9 -14 12 -32 4 -40 10 -62 52 -27 49 -57 148 -57 188 0 18 9
25 42 34 66 19 68 29 4 29 l-57 0 3 37 c3 36 5 38 43 43 26 3 35 8 27 13 -7 5
-25 7 -40 5 -25 -3 -27 0 -27 32 0 35 0 35 48 38 60 4 62 22 2 22 -45 0 -45 0
-45 35 0 32 2 35 29 35 17 0 33 5 36 10 4 6 -7 10 -24 10 -33 0 -35 6 -25 59
6 31 7 31 66 31 70 0 69 15 -2 25 -28 4 -50 8 -50 10 0 2 4 15 10 29 7 19 17
26 47 29 l38 3 -33 8 c-36 9 -36 10 -22 37 8 13 22 19 48 20 l37 1 -30 10
c-40 14 -39 12 -19 43 17 26 21 27 73 22 56 -5 53 -1 -13 23 l-28 10 24 32
c23 30 29 32 79 30 39 -2 50 0 39 7 -8 6 -25 11 -37 11 -13 0 -23 4 -23 8 0
19 27 32 65 33 39 1 39 1 12 11 -40 14 -17 38 37 38 38 1 39 2 18 13 -31 18
-10 38 32 30 29 -5 30 -4 12 9 -17 14 -16 17 32 51 29 22 61 37 78 37 21 0 25
3 15 9 -11 7 7 23 70 64 109 70 351 207 367 207 7 0 -3 -24 -23 -52 -84 -128
-119 -273 -120 -498 0 -204 22 -275 120 -380 23 -25 52 -61 64 -81 66 -111
220 -194 414 -222 l87 -12 -43 -43 c-40 -39 -53 -45 -163 -72 -142 -36 -253
-72 -238 -77 6 -2 31 1 55 6 24 5 44 9 46 8 4 -5 -176 -134 -222 -158 -27 -14
-83 -35 -122 -45 -72 -17 -95 -34 -50 -34 18 0 19 -2 7 -10 -8 -5 -43 -10 -77
-10 -34 0 -65 -4 -68 -10 -4 -6 5 -10 21 -10 36 0 23 -12 -29 -27 l-42 -11 63
-1 c50 -1 70 3 89 19 14 11 33 20 41 20 8 0 38 11 66 24 28 13 80 38 116 55
36 16 105 64 155 106 117 99 156 121 238 134 61 9 73 15 122 60 64 58 164 111
211 111 34 0 193 49 243 74 22 12 48 14 110 9 76 -6 84 -4 145 26 44 22 78 31
112 31 83 1 194 64 219 125 11 24 24 35 57 46 47 15 108 63 108 85 0 8 11 19
24 24 13 5 32 21 43 35 42 61 79 97 117 117 57 28 86 57 86 85 0 15 14 37 34
57 19 18 37 45 41 62 11 52 33 91 79 143 57 65 76 100 76 146 0 27 7 44 28 64
15 15 34 36 43 47 9 10 40 39 68 63 28 24 51 49 51 55 0 12 75 46 101 46 42 0
154 98 233 204 31 42 36 57 36 101 0 53 0 53 50 85 66 42 112 99 250 305 62
94 129 192 149 218 78 105 295 188 406 157 36 -10 53 -23 87 -69 117 -156 232
-283 325 -357 102 -83 316 -223 387 -255 43 -19 78 -51 116 -109 55 -83 130
-140 183 -140 33 0 97 -68 97 -103 0 -58 62 -127 113 -127 9 0 17 -8 17 -17 0
-32 39 -82 79 -103 23 -11 47 -33 55 -48 8 -15 32 -51 54 -80 23 -30 42 -69
46 -92 4 -28 21 -55 59 -97 63 -70 89 -104 150 -204 26 -41 58 -86 72 -99 14
-13 25 -30 25 -38 0 -22 85 -160 143 -232 99 -123 402 -360 507 -397 38 -13
54 -28 90 -80 88 -128 301 -294 376 -293 27 1 25 3 -25 33 -111 66 -212 148
-273 223 -35 42 -64 80 -66 85 -2 5 27 9 65 9 55 0 95 9 213 50 80 28 170 65
200 84 30 18 70 39 89 46 101 40 139 120 164 345 13 126 13 307 -2 380 -5 27
-8 52 -6 53 7 7 42 -8 61 -27 11 -10 49 -33 85 -50 35 -18 89 -51 120 -74 95
-70 259 -217 289 -259 50 -69 64 -155 62 -390 -1 -219 -19 -349 -62 -458 l-20
-50 30 0 c22 0 28 4 24 15 -6 14 13 85 23 85 3 0 36 -23 74 -50 38 -28 72 -50
76 -50 12 0 -80 90 -114 111 -18 12 -33 27 -33 35 0 18 13 18 53 -1 l32 -16
-37 34 c-33 30 -37 37 -31 69 l5 36 32 -19 c17 -10 35 -19 40 -19 16 0 -15 28
-44 40 -17 7 -30 19 -30 26 0 20 14 18 71 -12 28 -14 53 -23 55 -21 6 6 -91
77 -105 77 -7 0 -11 20 -11 49 l0 50 102 -61 c56 -33 109 -62 117 -65 21 -7
-76 66 -156 118 l-63 41 0 64 c0 35 2 64 4 64 3 0 17 -5 32 -10 23 -9 25 -9
15 4 -7 9 -21 18 -32 21 -10 4 -19 13 -19 21 0 18 -1 18 61 -7 63 -24 53 -7
-20 36 -30 18 -51 37 -51 48 0 21 -3 22 65 -8 32 -14 60 -24 62 -21 5 5 -70
50 -109 65 -17 6 -28 18 -28 29 0 19 1 19 68 1 52 -14 63 -15 48 -4 -11 8 -40
22 -65 32 -56 20 -71 31 -71 50 0 11 7 13 30 8 44 -10 37 3 -15 26 -62 27 -69
44 -16 35 59 -9 44 10 -23 29 -30 9 -62 25 -72 37 l-19 21 38 -7 c29 -5 37 -4
32 4 -5 9 -1 8 16 0 56 -31 279 -273 279 -305 0 -2 -12 0 -26 6 -15 5 -29 8
-31 5 -6 -6 48 -46 62 -46 13 0 35 -49 35 -76 0 -10 -7 -11 -31 -2 -46 16 -46
3 0 -24 33 -19 41 -30 47 -61 3 -21 4 -41 1 -43 -3 -3 -20 4 -38 15 -50 31
-57 25 -19 -14 19 -19 40 -35 47 -35 7 0 13 -11 13 -25 0 -14 -4 -25 -8 -25
-4 0 -38 16 -75 36 -37 19 -67 33 -67 30 0 -3 31 -29 70 -57 53 -38 70 -56 70
-74 0 -31 -31 -239 -36 -244 -2 -3 -14 4 -27 15 -65 58 -76 55 -21 -5 30 -34
34 -43 24 -60 -9 -18 -8 -21 9 -21 23 0 63 94 81 191 20 104 16 262 -8 352
-49 181 -115 290 -264 433 -63 61 -85 75 -158 103 -114 43 -140 55 -246 116
-50 29 -101 56 -115 60 -13 4 -37 23 -52 41 -16 19 -45 39 -68 45 -21 7 -39
17 -39 24 0 6 -14 39 -30 73 -31 61 -98 132 -125 132 -8 0 -17 10 -19 23 -21
102 -32 133 -55 161 -18 21 -31 52 -38 93 -17 91 -47 152 -81 165 -28 11 -46
35 -83 109 -10 20 -25 39 -33 42 -16 6 -46 99 -46 141 0 50 -31 101 -110 182
-53 54 -82 92 -86 113 -4 17 -18 41 -31 54 -28 26 -63 98 -63 132 0 13 -11 32
-25 43 -14 11 -25 27 -25 37 0 9 -21 45 -47 80 -43 59 -47 68 -44 115 2 46 -2
58 -50 133 -88 137 -175 227 -221 227 -26 0 -224 205 -280 290 -31 47 -70 99
-88 115 -17 17 -52 60 -76 98 -24 37 -54 72 -66 78 -13 6 -32 29 -43 52 -13
28 -27 43 -42 45 -14 2 -23 10 -23 21 0 10 -8 29 -19 42 -10 13 -21 41 -25 62
-4 24 -16 43 -32 54 -27 17 -27 17 -8 124 3 21 1 46 -5 57 -8 15 -7 40 5 99
31 155 29 437 -5 758 -22 201 -40 494 -47 733 -6 223 -5 252 8 247 9 -4 18
-23 22 -44 7 -45 54 -101 85 -101 12 0 21 -6 21 -16 0 -8 4 -12 10 -9 5 3 10
15 10 25 0 11 7 38 16 60 l16 40 18 -23 c19 -22 19 -22 8 21 -9 37 -8 45 8 64
l19 21 -26 -17 c-27 -17 -41 -40 -57 -91 -7 -22 -14 -29 -28 -27 -54 10 -79
78 -90 245 -7 99 -9 107 -17 72 -5 -22 -6 -73 -4 -113 3 -41 2 -70 -3 -67 -11
7 -50 129 -50 155 0 11 -5 22 -11 26 -8 5 -9 -6 -4 -37 7 -43 7 -44 -12 -26
-11 10 -40 54 -64 99 -24 44 -56 94 -72 111 -25 27 -27 33 -17 60 14 41 13 69
-2 42 -17 -31 -60 -75 -74 -75 -27 0 -61 82 -68 161 -6 78 -13 109 -25 109 -8
0 -4 -577 4 -597 6 -16 -26 -17 -79 -2 -45 12 -82 -1 -97 -36 -7 -16 -8 -14
-4 10 2 17 7 76 11 133 4 56 10 104 13 107 4 2 15 -41 25 -96 10 -55 21 -98
23 -95 7 7 -16 187 -28 229 -10 32 -12 207 -3 230 2 7 -3 21 -12 32 -11 15
-14 16 -11 4 3 -9 2 -65 -3 -125 -5 -60 -14 -184 -21 -276 -10 -130 -16 -168
-26 -168 -8 0 -11 -4 -8 -10 3 -5 15 -10 26 -10 17 0 19 -8 20 -62 0 -35 4
-87 8 -116 7 -49 13 -58 79 -120 l72 -67 -1 -425 c0 -234 -4 -462 -7 -507 -4
-46 -4 -83 0 -83 10 0 28 69 28 108 0 56 4 51 98 -112 22 -38 23 -49 19 -146
-4 -69 -17 -157 -40 -255 -19 -82 -34 -151 -32 -153 5 -5 55 145 79 237 14 51
28 96 31 99 3 3 5 -61 5 -141 0 -81 4 -147 9 -147 5 0 14 20 20 44 14 55 36
64 84 36 31 -18 38 -29 47 -76 19 -90 -1 -208 -77 -462 -30 -101 -53 -186 -50
-188 3 -3 24 55 47 128 73 226 134 394 138 375 2 -10 -6 -62 -18 -117 -22
-102 -23 -151 -4 -157 14 -5 48 41 58 77 l7 25 -21 -24 c-11 -13 -22 -22 -23
-20 -2 2 6 45 18 94 26 110 31 98 45 -99 6 -77 12 -141 14 -144 6 -5 15 68 19
138 l2 55 13 -60 c7 -33 17 -69 22 -80 8 -18 9 -16 10 10 l2 30 8 -35 c5 -19
16 -105 25 -191 13 -124 14 -172 6 -234 -6 -43 -10 -80 -8 -82 7 -7 36 111 48
195 6 46 9 131 7 188 -3 57 -3 104 -2 104 2 0 15 -21 29 -47 32 -62 41 -72 99
-117 27 -20 57 -47 66 -59 18 -22 63 -161 74 -229 4 -21 12 -38 17 -38 6 0 8
8 5 18 -3 9 -8 43 -11 74 l-7 57 78 -74 c44 -41 82 -75 86 -75 4 0 23 -20 44
-45 l37 -45 -36 -73 c-43 -85 -133 -212 -235 -330 -183 -214 -595 -573 -739
-646 -88 -44 -199 -18 -448 106 -142 71 -329 234 -478 418 -36 44 -63 82 -61
85 3 2 95 -42 204 -98 110 -56 200 -100 200 -98 0 2 -81 52 -179 110 -99 59
-187 117 -198 128 l-18 21 74 -7 c40 -4 139 -20 220 -36 279 -54 299 -47 67
22 -351 104 -563 120 -725 55 -72 -29 -205 -108 -256 -153 l-40 -34 78 41 c80
42 98 42 48 -1 -16 -14 -76 -66 -133 -116 -56 -49 -127 -109 -156 -132 -30
-23 -51 -42 -48 -42 3 0 46 22 95 49 50 27 91 47 91 45 0 -8 -100 -164 -134
-209 -61 -83 -141 -155 -170 -155 -3 0 -15 17 -25 39 -116 226 -566 562 -985
736 -102 42 -347 125 -370 125 -23 0 -20 7 24 66 75 100 133 127 335 159 145
23 149 25 85 41 -73 18 -166 17 -236 -1 -32 -8 -59 -13 -61 -12 -1 2 16 24 40
48 51 53 93 126 133 227 l28 74 12 -46 c13 -52 80 -171 113 -200 29 -26 27
-17 -15 72 -32 67 -37 89 -41 174 -6 104 0 117 34 75 20 -25 160 -151 233
-208 114 -91 91 -58 -82 117 -104 105 -188 197 -188 206 0 22 21 28 99 28 69
0 131 15 131 31 0 5 -50 9 -111 9 -88 0 -109 3 -101 12 6 7 13 30 17 51 8 42
15 46 32 17 7 -10 22 -24 33 -30 16 -8 13 -1 -12 35 -26 36 -33 57 -34 96 0
27 1 49 4 49 3 0 27 -16 53 -35 61 -44 63 -33 5 24 -82 81 -139 229 -100 261
13 11 18 12 21 3 12 -35 56 -83 116 -127 37 -27 70 -47 72 -44 3 2 -20 34 -49
70 -78 94 -111 168 -131 298 -4 25 -27 81 -50 125 -42 78 -54 125 -71 265 -6
52 -6 54 12 40 10 -8 25 -19 32 -25 7 -5 25 -22 39 -37 16 -17 37 -28 52 -28
25 1 25 1 -6 15 -18 8 -33 21 -33 30 0 8 -11 20 -25 25 -13 5 -34 19 -45 30
-21 21 -21 22 -3 35 17 14 17 14 -5 15 -15 0 -26 9 -32 25 -5 14 -15 25 -22
25 -8 1 -7 6 5 14 25 19 22 23 -25 32 -43 7 -43 8 -15 18 40 15 33 22 -18 18
-28 -3 -45 0 -45 7 0 6 5 11 12 11 6 0 2 10 -10 23 -27 28 -29 49 -4 40 13 -5
12 -1 -5 19 -13 13 -23 32 -23 40 0 26 11 48 24 48 7 0 10 19 8 57 -3 47 -1
56 9 46 18 -18 32 -16 25 2 -7 20 -9 20 70 -20 38 -19 75 -35 82 -35 7 0 50
-18 96 -40 89 -43 146 -59 146 -42 0 5 -15 13 -32 16 -18 4 -51 15 -73 26
l-40 20 44 -4 c65 -7 37 10 -59 34 -160 41 -189 60 -220 147 l-10 28 25 -30
c14 -16 25 -27 25 -23 0 4 -29 60 -65 125 -90 164 -141 284 -160 379 -17 84
-17 199 0 198 12 0 51 -50 230 -290 142 -190 268 -334 339 -386 72 -52 59 -28
-47 82 -58 61 -130 143 -159 182 -29 40 -88 119 -130 176 -43 57 -78 106 -78
108 0 2 34 -19 76 -46 70 -46 94 -57 94 -46 0 3 -46 43 -102 90 -164 136 -259
232 -388 392 -14 18 -43 43 -65 56 -46 29 -74 58 -56 58 7 0 22 11 34 23 12
13 42 35 67 49 93 52 148 96 257 204 62 62 121 115 132 119 10 3 35 37 55 75
21 39 57 90 81 114 24 25 51 58 59 74 8 15 32 47 54 71 62 67 72 80 72 96 0 9
15 25 33 35 32 19 57 56 57 84 0 8 11 24 25 37 13 13 25 32 25 41 0 26 17 31
45 12 33 -22 32 -6 -4 33 -15 17 -39 48 -51 68 -51 82 -200 179 -248 160 -10
-4 -36 14 -76 54 -77 75 -131 111 -167 111 -24 0 -32 7 -50 43 -12 23 -32 54
-46 69 -42 44 -56 135 -55 363 0 166 -2 187 -9 125 -16 -133 -14 -340 4 -390
l16 -45 -34 39 c-18 22 -38 56 -44 77 -12 39 -52 79 -80 79 -9 0 -27 22 -43
53 -49 95 -45 290 8 437 l25 70 -21 47 c-29 67 -34 116 -20 219 10 76 40 174
53 174 2 0 2 -23 -1 -51 -6 -67 11 -58 26 13 16 68 63 150 104 182 46 34 169
99 257 136 84 34 125 36 196 10 l50 -18 -45 -1 c-67 -2 -29 -21 42 -21 54 0
58 -2 92 -42 20 -23 36 -49 36 -58 0 -26 21 -80 31 -80 5 0 6 15 3 33 -10 55
-44 116 -84 150 -39 33 -154 77 -203 77 -15 0 -27 3 -27 8 0 15 143 112 178
121 98 24 92 26 92 -17 0 -62 12 -132 21 -126 5 3 9 32 9 65 0 33 6 75 14 93
13 31 52 76 66 76 3 0 3 -30 -1 -67 -4 -39 -3 -72 2 -78 5 -5 9 6 9 30 1 58
26 155 48 185 10 14 32 34 49 46 51 34 353 171 453 205 l95 32 240 -9 c258 -9
297 -10 565 -5 198 4 249 -5 465 -79 184 -63 259 -103 293 -153 44 -65 52 -98
68 -290 17 -215 25 -251 58 -286 14 -15 35 -51 45 -81 11 -30 20 -45 20 -34 1
34 -28 106 -58 144 -24 30 -29 47 -34 123 l-6 87 65 0 c36 0 107 5 158 11 99
12 154 4 191 -27 19 -15 19 -15 1 -9 -30 9 -142 19 -135 11 3 -3 33 -10 65
-15 l59 -9 -74 -1 c-78 -1 -125 -20 -156 -64 -17 -24 -21 -122 -5 -132 6 -4
10 18 10 58 0 45 5 68 15 77 8 7 15 10 15 7 0 -3 12 5 26 19 18 18 32 24 47
20 12 -3 51 -6 87 -6 l65 -1 27 -44 c27 -44 28 -71 4 -87 -8 -6 -8 -10 0 -15
6 -5 13 -15 16 -23 5 -13 -11 -15 -114 -11 -122 3 -188 -3 -188 -19 0 -4 65
-8 145 -7 106 1 148 -2 157 -11 9 -9 14 -52 17 -132 3 -114 2 -120 -17 -120
-23 0 -46 -25 -37 -40 3 -6 22 -17 41 -25 28 -11 34 -19 33 -42 -1 -27 -1 -27
-8 -4 -4 14 -12 26 -19 29 -9 3 -10 -3 -2 -24 7 -16 8 -56 4 -98 -4 -49 -3
-68 4 -61 6 6 12 21 15 35 4 21 5 20 6 -8 1 -26 -5 -36 -31 -52 -27 -16 -29
-20 -12 -20 41 0 56 22 61 92 3 36 3 86 -1 111 -6 37 -12 47 -36 57 -36 15
-38 27 -7 32 21 3 22 7 21 108 -1 203 -9 292 -32 343 -11 26 -18 47 -15 47 16
0 174 -135 192 -163 27 -44 46 -250 36 -387 l-7 -95 -56 -52 c-31 -28 -60 -50
-63 -47 -4 2 -11 -5 -14 -17 -4 -12 -26 -29 -52 -41 -38 -17 -62 -19 -154 -16
-102 3 -130 -2 -93 -16 9 -3 52 -6 97 -6 68 -1 79 -3 62 -13 -11 -6 -50 -12
-87 -12 -57 0 -70 4 -92 24 -14 14 -26 20 -26 14 0 -21 47 -52 88 -59 55 -9
50 -30 -6 -26 l-41 3 4 -68 4 -68 -14 40 -13 40 -1 -81 c-1 -110 15 -144 70
-144 21 0 39 5 39 10 0 6 -17 10 -38 10 l-38 0 9 93 c4 50 6 102 4 115 -4 21
-1 22 51 22 51 0 54 -1 48 -22 -3 -13 -11 -67 -17 -122 -10 -81 -10 -102 1
-120 17 -27 25 -177 12 -234 -5 -23 -6 -44 -2 -47 12 -8 20 33 27 136 5 78 3
103 -11 129 -18 37 -21 64 -6 55 5 -3 19 -36 31 -73 16 -51 21 -92 21 -172 0
-120 -17 -205 -61 -303 l-30 -67 -52 19 c-28 11 -59 26 -68 34 -22 19 -81 47
-98 47 -27 0 -71 -40 -92 -83 -23 -48 -28 -140 -10 -180 11 -25 47 -47 76 -47
19 0 73 48 73 64 0 5 -13 -3 -29 -18 -23 -22 -36 -27 -55 -22 -52 13 -60 138
-13 208 33 48 61 59 100 40 42 -20 47 -29 47 -80 0 -49 14 -49 24 0 l7 33 24
-30 c19 -23 25 -26 25 -12 0 9 2 17 5 17 14 0 113 -80 128 -103 l17 -26 -38 6
c-26 4 -34 2 -27 -5 6 -6 60 -22 121 -35 184 -42 347 -119 420 -200 30 -32 34
-43 28 -71 -4 -23 -1 -37 8 -44 89 -72 150 -153 126 -168 -6 -4 -8 -21 -5 -40
3 -19 1 -36 -5 -40 -6 -4 -7 -21 -3 -41 9 -47 -11 -93 -39 -93 -107 1 -276
194 -276 317 0 59 24 74 108 67 39 -3 62 -1 62 5 0 15 -166 93 -285 134 -55
19 -157 49 -227 67 -70 18 -129 39 -132 46 -3 7 0 29 5 48 9 33 13 36 47 36
29 1 33 3 20 10 -20 12 -57 15 -78 6 -8 -3 -21 -2 -29 3 -11 7 -11 13 3 32 25
36 19 41 -20 14 -42 -28 -56 -31 -48 -11 4 11 -3 15 -28 14 -18 0 -50 3 -70 7
-52 11 -49 -8 5 -26 23 -7 47 -14 52 -15 6 0 17 -3 25 -6 8 -3 35 -12 59 -19
l43 -13 -5 -44 c-6 -56 12 -76 84 -91 29 -7 90 -23 136 -37 71 -23 85 -31 109
-65 29 -43 46 -47 19 -5 -10 14 -13 26 -9 26 11 0 176 -59 182 -65 3 -2 -7 -9
-21 -16 -88 -40 -55 -215 65 -345 76 -83 162 -124 216 -103 29 11 45 2 19 -12
-9 -6 -17 -19 -17 -30 0 -25 33 -91 56 -110 16 -13 16 -12 6 8 -12 22 -12 22
24 7 50 -21 65 -12 23 13 -19 12 -47 35 -62 51 -24 25 -26 30 -13 42 13 10 21
8 47 -14 17 -15 50 -36 73 -47 38 -19 36 -15 -33 49 -74 69 -75 69 -62 100 8
20 10 46 6 72 l-7 42 26 -17 c40 -26 44 -9 8 28 -38 39 -43 61 -7 27 14 -13
25 -21 25 -17 0 3 -11 23 -25 43 -40 59 -28 63 25 7 28 -28 50 -48 50 -44 0
18 -73 102 -100 116 -16 8 -32 21 -36 27 -5 9 -3 9 9 -1 15 -12 17 -11 17 3 0
11 22 -6 63 -46 34 -35 81 -78 105 -96 45 -36 65 -62 77 -101 7 -23 6 -23 -39
9 -65 47 -69 30 -6 -27 45 -40 80 -93 80 -119 0 -4 -22 14 -50 40 -69 65 -73
57 -6 -15 31 -33 56 -67 56 -75 0 -8 10 -14 23 -14 30 0 37 -6 85 -72 26 -35
39 -63 36 -73 -9 -23 13 -43 59 -56 57 -15 101 -61 93 -97 -11 -45 -89 -151
-197 -267 -147 -159 -152 -165 -99 -125 25 18 114 103 198 188 141 143 154
153 181 147 34 -7 45 -37 35 -93 -6 -33 -6 -36 9 -24 33 28 95 -5 126 -65 16
-31 15 -33 -21 -33 -48 0 -20 -21 41 -31 28 -4 61 -15 73 -24 22 -15 20 -16
-39 -9 -88 9 -80 -8 15 -35 91 -27 160 -62 198 -102 l28 -29 -60 0 c-71 0
-127 -14 -145 -37 -12 -15 -12 -15 4 -7 28 16 147 -1 218 -31 63 -26 129 -69
129 -83 0 -4 -53 -7 -118 -8 -135 -1 -265 -28 -344 -71 -121 -66 -201 -190
-237 -370 -35 -169 -24 -305 34 -425 14 -28 25 -53 25 -55 0 -2 -22 18 -49 44
-36 36 -52 61 -64 103 -25 90 -37 158 -37 211 0 53 30 215 57 307 24 87 8 70
-21 -20 -64 -204 -73 -329 -33 -449 l25 -74 -28 32 c-16 18 -34 51 -40 75 -21
75 -29 88 -29 47 -1 -58 27 -126 68 -162 21 -17 43 -42 50 -55 6 -12 35 -41
64 -63 28 -23 60 -54 70 -71 10 -16 38 -39 65 -51 l47 -22 0 -75 c0 -262 52
-380 166 -380 93 0 174 69 205 177 15 53 16 54 37 38 32 -23 100 -55 119 -55
12 0 19 -12 24 -46 4 -31 9 -42 15 -33 5 8 6 29 3 47 l-6 32 83 1 c90 1 71 15
-26 19 -40 2 -45 4 -25 10 l25 7 -27 8 c-39 10 -35 22 5 17 22 -3 29 -1 22 6
-5 6 -21 12 -34 14 -24 3 -26 7 -45 81 -6 25 -4 27 26 28 l33 1 -40 12 -40 13
30 5 30 5 -33 8 c-21 5 -38 17 -44 31 -14 30 -32 31 -22 2 9 -29 34 -68 44
-68 4 0 5 -11 3 -24 -3 -13 2 -51 11 -85 9 -35 16 -67 16 -72 0 -12 -75 18
-123 49 -41 27 -52 55 -44 106 3 21 -2 48 -14 75 -22 49 -22 51 -11 51 5 0 13
-12 19 -27 l11 -28 1 25 c1 14 10 42 21 63 12 21 18 47 15 56 -7 22 -45 58
-45 43 0 -6 5 -14 10 -17 6 -3 10 -10 10 -15 0 -5 -13 5 -29 21 -28 28 -71 40
-71 19 0 -5 6 -10 14 -10 20 0 76 -67 76 -90 0 -25 -9 -25 -27 -2 -13 16 -14
15 -8 -5 6 -22 5 -22 -22 -8 -15 8 -53 15 -83 14 -59 -1 -54 -4 41 -29 41 -10
48 -16 57 -48 11 -38 24 -132 18 -132 -1 0 -18 8 -37 17 -25 13 -59 18 -124
18 -75 0 -97 -4 -133 -23 -24 -13 -45 -22 -47 -20 -8 10 -13 138 -5 143 6 4
10 16 10 29 0 12 14 35 30 51 32 31 40 51 15 41 -8 -3 -21 -9 -29 -12 -10 -4
-12 1 -9 20 7 34 19 43 88 60 l60 15 -55 -6 c-30 -3 -63 -9 -72 -15 -12 -5
-18 -5 -18 1 0 14 36 32 95 46 46 12 48 13 15 13 -19 1 -52 -5 -72 -12 -21 -8
-38 -12 -38 -9 0 2 15 17 32 34 37 33 21 40 -22 9 l-28 -20 -6 23 c-12 45 -6
99 14 124 11 14 20 32 20 39 0 7 11 24 25 38 14 14 25 36 25 50 0 18 9 30 30
41 16 8 38 25 49 36 13 14 27 20 41 16 28 -7 90 11 97 29 4 10 15 12 43 8 26
-4 49 -1 71 10 27 13 38 14 65 4 26 -9 38 -9 58 1 21 11 28 11 47 -3 32 -22
72 -20 95 5 23 25 25 89 5 137 -15 36 -37 44 -27 10 16 -52 17 -103 3 -122
-12 -16 -20 -17 -52 -10 l-38 9 -1 54 c-1 33 -6 56 -13 58 -8 3 -10 -6 -7 -29
6 -44 -8 -92 -30 -96 -25 -5 -99 60 -152 134 -26 36 -48 63 -51 60 -8 -7 45
-103 77 -139 16 -19 30 -37 30 -41 0 -18 -83 -1 -167 34 -53 22 -98 38 -100
36 -6 -6 59 -57 94 -74 18 -9 33 -18 33 -22 0 -3 -22 -13 -50 -21 l-49 -15 -3
25 c-4 24 -5 23 -21 -15 -30 -68 -81 -81 -140 -34 -15 12 -50 55 -79 96 -53
76 -72 91 -43 32 44 -86 91 -148 127 -165 73 -35 38 -84 -71 -99 -61 -8 -50
-24 17 -24 23 0 42 -4 42 -8 0 -5 -13 -28 -30 -50 -32 -44 -37 -58 -19 -46 7
4 9 0 5 -14 -4 -11 0 -39 9 -63 16 -47 18 -109 7 -172 l-7 -38 -46 30 c-40 25
-51 40 -77 102 -47 113 -62 186 -62 295 0 178 53 359 128 445 55 63 105 90
204 111 259 56 469 1 558 -144 17 -27 49 -73 72 -101 43 -54 85 -138 99 -196
11 -50 -16 -95 -51 -86 -14 4 -26 7 -26 8 -1 1 -13 25 -28 52 -14 28 -32 59
-41 69 -34 43 -21 3 40 -128 57 -122 62 -136 42 -131 -21 6 -21 5 3 -14 14
-11 28 -21 31 -21 3 0 30 -57 59 -127 30 -70 76 -163 102 -207 26 -43 48 -85
48 -91 0 -7 15 -63 34 -124 l34 -111 -28 0 c-30 0 -39 14 -65 105 -9 33 -23
80 -31 104 -8 25 -14 53 -14 63 0 10 -4 18 -10 18 -11 0 -3 -54 13 -84 8 -16
7 -18 -9 -11 -36 15 -64 17 -64 6 0 -6 8 -11 18 -11 42 0 79 -56 97 -148 2
-12 7 -27 10 -32 3 -6 1 -10 -4 -10 -13 0 -15 -27 -3 -32 5 -1 12 -18 15 -36
l7 -32 -28 19 c-34 25 -82 38 -82 22 0 -6 6 -11 13 -11 7 0 29 -9 50 -20 21
-11 41 -19 45 -16 4 2 8 -32 10 -77 l2 -82 -20 32 c-26 40 -95 68 -148 61
l-38 -6 4 72 c5 108 6 124 14 131 4 4 3 18 -3 32 -6 15 -5 31 1 43 10 18 8 32
-10 75 -5 11 -11 33 -14 48 -11 49 -120 97 -180 80 -47 -13 -45 -33 2 -22 42
9 89 0 128 -26 30 -19 33 -40 3 -25 -28 15 -40 2 -14 -16 42 -28 61 -46 43
-40 -9 2 -33 8 -54 12 -48 9 -38 -8 16 -26 46 -15 62 -30 51 -48 -6 -10 -14
-10 -37 -2 -16 7 -47 15 -69 20 l-40 8 38 1 c23 1 36 5 32 11 -8 13 -115 13
-135 0 -12 -8 -9 -10 13 -10 15 0 27 -4 27 -8 0 -4 31 -15 68 -25 71 -18 112
-40 112 -59 0 -6 -8 -4 -18 5 -10 10 -26 17 -36 17 -13 0 -8 -9 19 -34 31 -29
35 -38 26 -54 -6 -11 -10 -43 -10 -70 2 -69 -8 -81 -38 -48 -41 44 -100 68
-170 69 -35 0 -63 5 -63 9 0 5 -4 6 -10 3 -17 -10 -11 -114 10 -186 27 -89 69
-129 138 -129 26 0 53 4 61 9 11 7 19 1 32 -28 21 -49 73 -91 110 -91 19 0 29
-5 29 -15 0 -9 11 -27 25 -41 14 -14 25 -30 25 -37 1 -26 38 -58 82 -71 41
-13 48 -13 75 3 43 27 81 77 89 118 4 19 4 77 0 127 -6 80 -11 108 -34 176 -9
27 -7 65 3 73 9 6 -4 21 -27 29 -4 2 -8 21 -9 43 -1 22 -6 45 -9 50 -11 15
-70 211 -70 231 0 9 -17 49 -39 88 -21 39 -51 107 -66 151 -15 44 -40 107 -55
141 -23 52 -25 62 -13 70 23 15 27 117 6 157 -9 18 -15 47 -14 65 7 92 -110
292 -259 443 -33 33 -68 80 -79 104 -14 33 -33 52 -70 76 -28 17 -51 36 -51
43 0 24 -52 82 -107 119 -31 21 -73 55 -93 76 -21 21 -58 46 -84 56 -32 13
-46 23 -46 37 0 48 -47 102 -107 123 -34 12 -38 16 -35 45 5 46 -21 70 -74 70
-39 0 -43 2 -49 30 -9 43 -40 77 -90 99 -35 16 -49 30 -71 72 -14 29 -52 79
-84 111 -32 31 -61 70 -65 85 -3 15 -12 35 -19 43 -7 8 -16 30 -20 49 -10 53
-43 98 -117 157 -38 30 -81 71 -96 91 -16 20 -39 46 -51 57 -13 12 -38 36 -54
54 -17 17 -36 32 -42 32 -6 0 -17 14 -25 31 -31 71 -242 189 -421 236 -68 18
-106 34 -108 43 -5 23 -50 78 -78 96 -16 11 -21 20 -15 28 4 6 26 58 47 116
39 105 39 106 38 250 0 112 -5 163 -21 225 -19 76 -21 129 -9 216 4 22 1 43
-8 55 -13 17 -10 21 47 51 34 18 78 49 97 69 19 19 59 53 87 75 79 59 87 81
85 226 -2 147 -18 286 -37 323 -25 49 -230 226 -302 262 -72 35 -117 40 -278
28 -69 -5 -70 -5 -83 24 -8 15 -18 63 -23 105 -18 144 -38 172 -172 245 -105
57 -195 91 -322 121 -162 39 -244 45 -416 34 -108 -7 -243 -7 -454 2 l-300 11
-70 -25 c-38 -14 -99 -37 -135 -51 -36 -13 -113 -43 -172 -65 -59 -22 -129
-51 -155 -65 -56 -28 -112 -83 -118 -116 -2 -12 -6 -23 -7 -24 -2 0 -25 -13
-53 -27 -27 -15 -79 -34 -115 -43 -74 -19 -112 -43 -202 -127 -46 -43 -82 -67
-138 -89 -109 -44 -281 -149 -305 -186 -11 -16 -36 -42 -56 -56 -20 -14 -46
-45 -57 -70 -24 -49 -43 -165 -45 -278 -1 -64 2 -82 24 -120 26 -45 26 -45 8
-85 -27 -59 -41 -164 -37 -269 3 -90 3 -92 -15 -70 -10 13 -27 26 -39 30 -32
10 -63 53 -60 84 4 34 -35 91 -75 110 -18 8 -33 20 -33 25 -1 24 -64 107 -101
135 -23 16 -55 49 -72 72 -17 24 -44 58 -61 76 -16 17 -27 32 -23 32 4 0 -1
17 -12 39 -20 37 -73 91 -92 91 -5 0 -9 4 -9 10 0 5 7 7 15 4 30 -12 14 12
-61 94 -113 122 -195 173 -249 152 -20 -8 -24 -5 -30 18 -4 15 -6 60 -6 100 1
40 -3 88 -9 106 -13 39 -133 156 -160 156 -10 0 -22 5 -26 11 -3 6 -18 9 -32
6 -15 -3 -39 1 -54 9 -27 14 -58 10 -58 -8 0 -11 -28 -3 -89 25 -46 22 -64 52
-91 152 -7 28 -21 59 -31 71 -11 11 -19 27 -19 36 0 9 -6 28 -14 44 -10 17
-12 33 -6 43 5 10 4 24 -3 36 -6 11 -12 36 -14 55 -2 19 -9 40 -16 45 -7 6
-23 33 -36 60 -41 94 -58 120 -91 143 -42 28 -88 28 -130 -1z m243 -244 c-3
-10 -15 -28 -26 -40 -24 -27 -12 -31 15 -6 10 9 18 11 18 6 0 -6 -16 -25 -35
-42 -43 -37 -26 -42 22 -5 26 20 33 22 33 9 0 -9 -8 -28 -17 -42 -10 -15 -12
-24 -5 -20 6 5 12 4 12 -2 0 -15 -80 -59 -122 -66 -21 -4 -38 -11 -38 -16 0
-24 129 3 156 32 9 10 21 19 26 19 14 0 9 -59 -13 -122 -11 -33 -19 -70 -17
-82 2 -13 12 4 27 49 31 93 41 101 41 35 0 -35 3 -50 9 -41 10 15 14 10 31
-42 15 -46 70 -113 80 -97 7 11 40 3 40 -10 0 -4 -13 -7 -28 -8 -23 0 -124
-18 -215 -37 -10 -2 -30 3 -45 10 -15 7 -44 20 -64 29 -30 12 -38 21 -38 41 0
15 -5 35 -11 46 -9 18 -7 19 15 13 34 -8 33 2 -2 20 -23 12 -33 29 -51 88 -12
40 -25 79 -27 86 -4 7 3 12 18 13 20 0 18 2 -9 12 -18 7 -38 18 -45 25 -10 10
0 11 49 6 37 -4 67 -2 79 4 16 9 10 11 -33 12 -56 0 -103 14 -103 29 0 6 8 8
18 5 10 -4 4 5 -13 21 -21 19 -24 24 -10 19 26 -9 53 -9 89 1 21 6 27 5 22 -4
-10 -16 6 -14 67 9 30 11 62 29 72 40 22 25 36 26 28 3z m-203 -472 c0 -5 -6
-12 -12 -14 -7 -3 4 -6 26 -6 30 -1 36 -4 28 -13 -8 -10 1 -13 39 -14 27 0 55
-6 61 -12 9 -9 9 -12 0 -12 -15 0 -90 -67 -104 -94 -7 -12 -14 -36 -17 -53
l-6 -33 -41 28 c-37 25 -40 30 -33 56 11 41 1 47 -13 8 -7 -18 -16 -32 -20
-32 -11 0 40 100 65 127 11 13 17 26 13 30 -11 11 -52 -43 -73 -94 -20 -48
-25 -50 -77 -28 -35 15 -36 16 -22 43 17 33 59 73 106 101 36 22 80 28 80 12z
m554 -26 c10 -14 24 -56 32 -93 9 -37 19 -80 24 -97 8 -29 8 -29 9 10 0 38 -7
85 -24 150 l-8 30 22 -19 c22 -20 30 -9 9 12 -9 9 -9 12 -1 12 20 0 43 -42 55
-102 7 -32 16 -58 20 -58 9 0 3 47 -13 109 -11 43 -6 48 19 23 14 -14 23 -40
27 -79 9 -84 18 -96 25 -33 l5 55 27 -40 c14 -22 29 -53 32 -70 9 -42 -10
-131 -35 -166 -11 -16 -16 -29 -10 -29 6 0 18 12 27 26 l17 26 12 -34 c9 -27
8 -40 -7 -73 -41 -94 -7 -116 47 -31 33 53 36 55 64 45 15 -5 69 -44 120 -85
70 -58 91 -81 91 -100 0 -17 10 -30 31 -43 37 -23 69 -67 69 -97 0 -11 10 -29
21 -40 12 -10 39 -41 61 -68 21 -27 56 -62 76 -78 55 -44 101 -106 113 -154 7
-28 15 -41 24 -38 17 7 75 -56 75 -82 0 -21 -43 -87 -128 -198 -68 -89 -32
-58 55 47 42 51 81 92 87 92 6 0 17 -18 24 -40 18 -55 12 -67 -176 -335 -20
-29 -18 -28 18 10 46 49 149 190 174 239 9 16 16 41 16 56 0 31 10 32 38 2 15
-16 23 -41 28 -92 8 -83 23 -121 24 -58 0 50 12 61 40 33 41 -41 18 -125 -74
-262 -77 -117 -213 -252 -389 -389 -49 -38 -85 -69 -79 -69 15 0 160 106 277
204 132 110 212 205 271 321 44 86 45 88 39 45 -3 -25 -32 -123 -63 -217 -32
-95 -56 -173 -54 -173 8 0 92 193 121 277 34 101 39 157 15 191 -17 24 -13 27
18 11 31 -17 46 -66 59 -190 6 -63 12 -115 14 -117 7 -8 15 103 9 136 l-6 37
52 -50 c29 -28 64 -75 79 -106 28 -58 90 -143 98 -135 3 2 -3 16 -12 30 -10
14 -14 26 -9 26 4 0 42 -22 83 -48 42 -27 88 -56 103 -66 22 -13 26 -20 19
-34 -28 -52 -41 -89 -41 -119 0 -27 -5 -35 -25 -43 -14 -5 -30 -21 -35 -35 -5
-14 -16 -25 -23 -25 -30 0 -142 -69 -157 -95 -8 -15 -37 -48 -65 -74 -27 -25
-60 -56 -72 -68 -13 -13 -32 -27 -43 -33 -11 -6 -20 -19 -20 -29 0 -10 -7 -24
-15 -31 -8 -7 -15 -20 -15 -30 0 -13 -6 -16 -25 -12 -14 2 -32 -2 -41 -9 -24
-19 -47 -32 -171 -93 -69 -34 -118 -65 -129 -80 -9 -14 -21 -26 -27 -26 -6 0
-19 -7 -29 -17 -12 -11 -18 -12 -18 -3 0 8 -8 10 -21 7 -16 -4 -37 8 -81 44
-32 27 -71 55 -86 63 -36 19 -84 71 -116 127 -15 26 -63 85 -107 133 -61 65
-74 84 -54 76 32 -12 95 -13 114 -1 10 6 -4 12 -45 17 l-59 7 52 16 c28 9 54
18 57 21 2 3 -42 5 -98 5 -65 0 -112 5 -127 13 -29 15 -104 165 -86 171 41 15
174 92 240 139 94 67 123 98 47 50 -75 -48 -286 -153 -334 -166 -53 -15 -70
-3 -96 65 -19 51 -20 59 -6 68 12 9 6 15 -33 29 -57 20 -78 41 -117 114 -21
38 -42 61 -77 83 -35 22 -53 41 -65 70 -10 26 -21 39 -34 39 -18 0 -67 46
-181 171 -58 63 -58 63 -35 76 13 7 19 12 13 13 -5 0 -23 10 -38 23 -23 18
-34 45 -61 140 l-33 117 26 -1 c14 0 44 -3 65 -7 l39 -7 18 -75 c17 -74 66
-197 74 -188 2 2 -2 24 -9 49 -22 71 -48 238 -41 259 4 11 15 20 25 20 10 0
25 3 34 6 11 4 18 -5 26 -35 6 -22 21 -53 35 -68 l24 -28 -10 46 c-6 26 -9 68
-7 95 3 49 21 70 31 34 8 -32 27 -23 27 13 0 53 11 57 149 57 151 0 191 14 72
25 -89 8 -98 18 -40 47 54 28 105 82 154 165 0 1 29 -6 64 -17 35 -10 89 -22
120 -25 l56 -7 -29 20 c-16 11 -47 28 -70 38 -22 10 -42 19 -44 20 -2 1 19 30
47 65 81 100 67 102 -31 7 -43 -42 -54 -48 -88 -46 -47 2 -67 -14 -91 -67 -20
-46 -45 -71 -107 -109 -23 -15 -48 -38 -54 -51 -9 -21 -18 -25 -55 -25 -42 0
-83 -25 -83 -50 0 -5 -7 -7 -14 -4 -9 3 -30 -9 -51 -30 -24 -25 -45 -36 -65
-36 -20 0 -36 -9 -53 -31 -24 -31 -25 -31 -94 -24 -63 6 -71 9 -87 36 -9 16
-13 29 -8 29 15 0 129 88 136 105 3 8 -18 -4 -47 -26 -67 -54 -117 -76 -128
-57 -4 7 -23 33 -43 58 -25 31 -32 47 -23 52 8 5 4 8 -10 8 -30 0 -66 39 -52
56 8 10 3 13 -22 16 -26 2 -34 9 -40 31 -4 16 -19 44 -33 62 -26 34 -26 34 -6
45 30 16 25 31 -6 20 -33 -13 -44 -13 -44 2 0 17 -71 88 -88 88 -12 0 -12 3 0
23 18 27 33 66 20 52 -5 -5 -18 -22 -29 -37 -20 -27 -20 -27 -39 -7 -15 16
-16 24 -7 39 11 17 10 17 -24 8 -51 -14 -65 3 -31 39 34 37 62 82 55 89 -3 3
-19 -15 -36 -40 -28 -41 -57 -66 -76 -66 -3 0 -4 4 0 9 3 6 -10 13 -30 17 -41
7 -42 10 -12 36 20 18 20 19 2 13 -11 -4 -26 -9 -32 -12 -7 -3 -13 0 -13 6 0
6 4 11 9 11 9 0 61 71 61 84 0 5 -18 -12 -41 -38 -22 -25 -46 -46 -52 -46 -6
0 2 14 19 31 31 34 29 34 -28 5 -30 -16 -40 -17 -52 -7 -13 11 -12 16 14 37
16 14 48 53 70 87 46 68 60 72 110 35 23 -16 29 -32 36 -82 l9 -61 3 63 c2 34
7 62 11 62 4 0 26 -20 49 -45 22 -25 46 -45 53 -45 7 0 5 8 -6 20 -18 20 -18
20 21 6 69 -24 90 -37 99 -59 6 -12 23 -28 39 -37 16 -8 36 -21 45 -28 60 -49
147 -96 163 -86 5 3 23 0 39 -6 23 -10 27 -15 18 -27 -16 -19 -5 -27 13 -9 12
12 23 13 58 4 l42 -11 -74 -70 c-81 -77 -79 -76 40 12 46 33 89 61 95 61 18 0
67 52 67 71 0 10 5 21 10 24 6 3 10 2 10 -3 0 -5 14 -15 30 -22 17 -7 30 -15
30 -19 0 -3 -48 -52 -107 -109 -128 -122 -110 -119 36 6 89 78 109 90 148 95
59 6 103 47 103 95 0 27 3 33 16 28 9 -3 23 -6 32 -6 9 0 23 -4 31 -9 17 -11
-1 -37 -91 -137 -30 -34 -42 -52 -28 -43 14 9 52 48 85 87 33 38 66 71 74 71
8 1 23 -6 33 -15 17 -16 16 -19 -28 -70 -56 -66 -46 -70 17 -8 73 72 85 49 14
-25 -66 -69 -168 -151 -317 -255 -94 -65 -123 -90 -75 -65 12 6 78 50 146 97
140 96 252 191 296 250 17 22 45 48 63 56 44 21 41 39 -4 20 -20 -8 -41 -13
-47 -10 -7 2 -4 5 6 5 37 2 15 21 -25 21 -41 0 -41 0 -23 20 19 21 19 21 -23
14 l-43 -7 11 27 c5 15 9 42 9 59 -1 23 -3 26 -6 10 -5 -28 -58 -73 -84 -73
-11 0 -17 5 -14 10 4 6 -5 10 -20 10 l-26 0 27 35 c32 42 21 46 -21 6 -35 -33
-90 -56 -66 -27 13 15 12 16 -13 6 -37 -14 -37 -14 -20 25 7 19 15 58 16 87
l1 53 8 -45 c6 -37 7 -31 6 35 -2 66 -6 86 -25 113 -13 17 -19 32 -14 32 5 0
21 -17 35 -37 29 -41 38 -29 10 13 -16 25 -16 26 2 23 11 -3 30 -22 42 -44 25
-44 32 -31 8 15 -9 17 -11 30 -6 30 5 0 22 -26 37 -57 32 -68 32 -68 39 -61 4
3 -3 34 -15 68 -30 90 -15 95 39 13 35 -53 45 -31 11 25 -11 18 -20 37 -20 42
0 19 28 10 44 -15z m-770 -160 c-22 -17 -3 -20 27 -4 11 5 29 7 41 3 21 -6 21
-7 2 -17 -28 -14 -64 -49 -77 -72 -9 -19 -9 -19 9 -5 10 8 34 27 52 42 18 16
43 28 55 27 l22 0 -21 -9 c-12 -5 -25 -14 -30 -21 -5 -9 -2 -10 12 -4 40 17
80 16 117 -4 34 -17 36 -20 17 -26 -61 -19 -126 -114 -117 -169 5 -28 5 -29
-5 -8 -6 12 -15 22 -21 22 -12 0 1 -53 16 -62 8 -5 7 -8 -5 -8 -9 0 -21 14
-29 33 -11 28 -13 29 -16 10 l-4 -22 -34 24 c-79 53 -97 73 -94 107 2 18 -1
34 -6 35 -6 2 -10 -13 -10 -32 l0 -34 -29 31 c-23 26 -27 38 -22 66 9 60 74
111 140 112 28 0 29 -1 10 -15z m2711 -1889 c42 -18 127 -96 167 -153 30 -45
29 -55 -11 -106 -13 -16 -16 -14 -31 20 -18 39 -56 80 -66 71 -3 -3 6 -22 20
-43 34 -50 43 -102 24 -134 -8 -14 -20 -25 -27 -23 -6 1 -14 -5 -18 -14 -4
-12 -14 1 -34 45 -15 33 -33 61 -39 61 -7 0 -10 -3 -8 -7 25 -49 41 -95 44
-128 l4 -40 -13 37 c-20 59 -27 56 -21 -10 7 -60 6 -62 -26 -88 -17 -15 -43
-45 -57 -66 -20 -33 -27 -37 -39 -27 -18 15 -31 4 -15 -14 9 -11 2 -23 -32
-58 -24 -24 -46 -51 -49 -59 -3 -11 -17 -4 -53 25 l-49 40 23 -33 c13 -18 32
-39 42 -45 22 -13 25 -32 7 -43 -7 -5 -29 12 -55 42 -38 42 -42 45 -28 17 8
-18 29 -48 46 -67 16 -19 26 -37 21 -40 -14 -8 -49 21 -84 71 -17 26 -33 42
-36 35 -5 -16 45 -102 64 -109 8 -3 14 -9 14 -13 0 -7 -74 -60 -84 -60 -2 0
-6 12 -9 28 -8 33 -43 92 -57 92 -5 0 0 -16 11 -34 11 -20 22 -60 25 -93 l5
-58 -21 50 c-11 28 -31 64 -44 80 l-25 30 24 -60 c24 -59 36 -147 15 -115 -7
12 -11 8 -16 -18 -9 -45 -24 -50 -24 -8 0 19 -4 38 -10 41 -6 4 -10 -15 -10
-50 0 -53 -1 -56 -29 -61 -17 -4 -38 -15 -47 -25 -9 -11 -29 -19 -44 -19 -35
0 -112 51 -141 95 -27 39 -39 44 -39 15 0 -11 19 -40 43 -64 41 -44 72 -86 65
-90 -29 -22 -55 -36 -64 -36 -7 0 -33 16 -59 35 -30 23 -42 29 -36 17 5 -10
17 -24 25 -32 9 -7 16 -17 16 -22 0 -25 -118 94 -160 162 -5 8 -11 12 -15 9
-17 -17 121 -199 151 -199 8 0 14 -4 14 -9 0 -12 -54 3 -85 23 -27 18 -80 102
-132 212 -40 82 -51 160 -26 185 9 9 10 1 7 -32 l-4 -44 14 35 14 35 1 -50 c2
-79 21 -93 21 -15 0 77 19 121 21 50 l2 -45 10 55 c6 30 18 61 26 68 21 17 89
62 94 62 2 0 7 -31 10 -68 3 -38 12 -84 20 -103 19 -42 21 -21 6 72 -6 39 -8
83 -4 97 7 23 9 19 20 -34 12 -57 52 -151 60 -142 2 2 -5 37 -15 78 -20 77
-25 122 -14 133 4 3 17 -1 30 -10 25 -16 33 -6 12 15 -9 9 -6 12 15 12 18 0
25 4 21 14 -3 8 0 17 6 21 8 5 43 -23 91 -71 43 -43 79 -74 79 -69 0 6 -29 45
-65 87 -65 78 -65 78 -39 84 23 6 33 -1 76 -47 l49 -54 -31 62 c-37 76 -38 97
-5 60 14 -15 28 -27 30 -27 3 0 -4 23 -15 50 -11 28 -16 50 -12 51 4 0 20 2
36 2 30 2 50 27 22 27 -25 0 -19 19 9 30 13 5 30 19 37 30 7 12 32 34 56 50
l42 29 32 -62 c17 -34 33 -56 35 -50 6 16 -38 113 -61 136 -11 11 -13 17 -5
17 13 0 89 -75 152 -150 l37 -45 -14 37 c-19 47 -90 153 -116 171 -21 14 -17
27 8 27 8 0 37 -19 66 -42 51 -43 48 -31 -7 29 -31 34 -30 60 3 43 22 -12 31
-13 28 -2 -3 7 5 12 21 12 5 0 35 -35 67 -77 72 -98 78 -104 69 -73 -13 48
-95 161 -126 174 -31 13 -29 26 3 26 26 0 78 28 78 41 0 6 -8 9 -19 6 -14 -3
-17 0 -13 15 5 20 14 20 77 1 17 -5 18 -4 7 10 -7 8 -29 18 -49 22 -24 4 -32
10 -25 17 7 7 33 5 83 -5 63 -13 71 -13 55 -1 -11 8 -46 19 -77 26 -51 10 -57
14 -48 30 12 22 56 24 104 4z m-687 -1378 c83 -92 93 -110 97 -178 6 -125 76
-374 138 -497 30 -58 52 -149 67 -273 15 -124 13 -157 -11 -190 -29 -38 -20
-95 26 -175 78 -133 113 -218 124 -300 16 -110 28 -153 61 -205 22 -34 32 -69
43 -145 l14 -99 -28 -29 c-43 -42 -46 -84 -15 -185 45 -152 49 -179 35 -266
-10 -61 -19 -84 -37 -102 -22 -19 -24 -28 -18 -64 6 -40 6 -41 -16 -35 -99 30
-233 145 -282 243 -31 62 -63 157 -86 256 -28 118 -144 836 -187 1161 -35 264
-37 295 -38 555 0 209 5 312 19 432 21 178 21 177 94 96z m3529 -50 c11 -13
40 -58 64 -102 24 -43 58 -90 74 -104 17 -14 29 -29 27 -34 -11 -40 45 -1004
78 -1313 25 -236 3 -565 -38 -565 -13 0 -83 53 -115 87 -19 20 -30 46 -36 81
-4 29 -15 60 -25 70 -11 13 -16 37 -16 84 0 63 -2 68 -60 154 -65 98 -71 122
-50 235 5 30 16 153 25 274 28 407 33 443 69 500 30 49 31 52 31 173 0 141 -6
152 -78 152 -36 0 -39 2 -33 23 3 12 9 81 12 152 4 72 11 136 17 143 14 18 31
15 54 -10z m-100 -324 c40 -3 76 -11 82 -17 5 -7 13 -59 18 -117 l9 -105 -34
-45 c-33 -43 -38 -45 -95 -51 l-61 -6 -58 51 -58 50 0 129 0 129 63 -5 c34 -4
94 -9 134 -13z m-11 -606 c-9 -296 -21 -516 -28 -523 -8 -9 -16 404 -10 583 5
154 6 162 25 162 20 0 20 -4 13 -222z m2828 -1004 c4 -9 -2 -14 -15 -14 -11 0
-17 -4 -14 -10 3 -5 15 -10 26 -10 12 0 19 -7 19 -19 0 -14 -6 -17 -25 -13
-15 2 -25 0 -25 -7 0 -6 6 -11 13 -11 6 -1 26 -7 42 -15 19 -10 22 -13 8 -9
-25 6 -32 -10 -8 -20 22 -8 18 -26 -5 -26 -27 0 -25 -18 2 -22 26 -3 35 -32
37 -118 l1 -55 -31 33 c-17 18 -40 32 -53 32 -22 0 -23 2 -23 103 1 56 -4 120
-11 141 -7 26 -8 44 -2 51 13 15 57 7 64 -11z m-1632 -1449 c11 -21 45 -65 76
-97 l55 -58 -12 -53 c-24 -106 -117 -226 -291 -371 -47 -39 -154 -136 -239
-215 -162 -151 -286 -248 -438 -344 -51 -33 -93 -61 -93 -64 0 -11 129 8 182
26 63 22 134 57 143 70 3 6 -34 -3 -82 -20 -130 -44 -184 -59 -179 -50 3 4 40
28 83 53 43 25 110 70 149 99 87 66 511 448 613 553 40 42 77 76 81 76 5 0 24
25 42 55 18 30 36 55 39 55 7 0 19 -88 19 -142 0 -20 4 -39 9 -42 11 -7 21 28
21 78 0 54 20 33 27 -28 9 -74 -30 -140 -156 -264 -58 -57 -97 -100 -85 -94
11 6 66 55 121 109 72 70 107 113 124 151 16 34 29 51 39 49 27 -5 14 -76 -35
-192 -27 -63 4 -24 41 52 29 59 33 64 33 38 0 -16 -3 -47 -8 -67 -12 -52 4
-48 22 5 l14 42 21 -35 c12 -19 22 -45 22 -57 0 -49 -45 -138 -117 -231 -97
-125 -106 -138 -49 -77 75 81 163 202 176 241 l12 36 80 -78 c88 -87 108 -122
108 -186 -1 -65 -30 -118 -127 -225 -98 -109 -67 -96 44 19 39 41 75 87 78
101 9 35 21 34 34 -3 5 -16 17 -30 25 -30 11 0 16 -10 16 -33 0 -40 -51 -129
-137 -237 -35 -44 -59 -80 -53 -80 11 0 133 140 166 192 13 20 26 48 30 62 3
14 10 23 15 20 16 -10 59 -106 59 -133 0 -28 -39 -100 -123 -226 -33 -49 -51
-82 -39 -71 26 23 108 141 152 219 20 36 33 73 34 98 0 21 4 39 7 39 6 0 24
-46 50 -125 13 -41 16 -227 4 -288 -4 -24 -3 -28 4 -16 6 9 14 59 19 110 l8
94 22 -35 c17 -27 22 -50 22 -99 0 -68 -30 -191 -60 -251 -35 -68 -112 -161
-173 -207 -74 -55 -93 -73 -52 -49 144 87 266 241 298 375 20 87 32 63 29 -59
-1 -40 1 -50 7 -35 5 11 10 46 10 78 1 31 5 57 9 57 14 0 67 -63 94 -110 83
-145 94 -393 29 -619 -34 -116 -35 -144 -2 -54 l21 58 -5 -55 c-7 -67 -55
-174 -85 -190 -18 -10 -21 -9 -14 1 4 7 -10 2 -32 -11 -129 -78 -205 -109
-327 -135 -191 -41 -387 6 -556 132 l-64 48 69 5 69 5 -60 7 c-68 8 -125 29
-145 52 -11 14 -5 16 49 16 72 0 74 15 4 24 -78 11 -141 36 -163 63 -28 36
-25 45 13 39 89 -14 127 -16 127 -9 0 5 -39 16 -87 25 -79 15 -132 39 -140 64
-2 5 31 8 80 6 70 -3 97 1 178 27 52 17 103 37 114 45 12 9 -20 2 -75 -15
-101 -32 -209 -47 -256 -34 -26 7 -23 9 33 21 34 7 70 18 80 24 16 10 15 11
-7 5 -14 -3 -52 -8 -85 -11 l-60 -5 -68 78 c-80 92 -177 239 -150 228 10 -4
47 -19 82 -32 106 -39 100 -21 -8 25 -66 29 -118 59 -151 89 -61 55 -67 78 -7
30 47 -38 110 -77 123 -77 5 0 -15 20 -43 45 -28 25 -84 89 -124 143 -40 53
-76 102 -81 108 -6 9 8 10 54 7 35 -3 74 0 88 5 21 8 13 11 -50 17 -109 11
-127 21 -56 29 70 9 147 34 266 86 81 34 210 106 210 115 0 2 -33 -11 -72 -29
-40 -18 -134 -57 -208 -86 -124 -49 -143 -54 -232 -58 -78 -3 -103 -1 -122 11
-26 18 -54 84 -40 96 5 5 49 20 97 35 97 30 285 122 332 163 27 23 23 22 -35
-9 -122 -64 -244 -102 -370 -114 -88 -8 -169 14 -170 47 0 3 28 4 63 2 l62 -3
-63 19 c-34 10 -65 21 -68 24 -3 3 16 9 43 12 115 17 319 62 312 70 -2 2 -56
-5 -119 -16 -198 -32 -254 -35 -276 -13 -11 11 -34 26 -51 35 l-33 15 58 18
c174 55 475 251 645 419 104 104 363 392 414 462 50 68 96 152 91 167 -2 5
-21 -21 -43 -58 -95 -163 -380 -482 -568 -636 -206 -169 -487 -332 -592 -344
-49 -6 -52 -5 -87 34 -20 23 -44 54 -52 71 l-16 29 64 22 c65 21 206 105 286
168 217 173 569 527 708 713 58 77 112 184 112 222 l0 31 41 -39 c22 -22 50
-58 61 -80z m-4302 -210 c170 -33 434 -132 609 -229 123 -68 204 -129 315
-236 214 -207 274 -336 217 -464 -30 -68 -167 -206 -204 -206 -3 0 1 17 9 38
19 52 17 89 -6 136 -46 96 -349 348 -528 441 -29 15 -55 25 -58 23 -2 -3 33
-30 79 -60 146 -98 387 -309 441 -387 16 -23 32 -59 36 -82 9 -48 -9 -117 -33
-131 -19 -10 -130 3 -222 27 -32 8 -61 13 -63 10 -9 -9 104 -55 151 -61 36 -5
47 -11 47 -24 0 -32 -25 -42 -82 -35 -53 7 -76 14 -236 74 -46 17 -81 27 -77
21 3 -5 12 -10 18 -10 22 0 277 -133 277 -144 0 -6 -9 -26 -21 -45 l-21 -34
-19 30 c-33 51 -144 129 -234 163 -14 5 -25 8 -25 6 0 -2 24 -22 53 -44 28
-21 76 -62 105 -90 l52 -51 0 -68 c0 -62 -4 -72 -37 -118 -36 -48 -37 -49 -44
-25 l-6 25 -12 -28 c-6 -16 -16 -61 -22 -100 -6 -40 -18 -79 -26 -88 -13 -16
-19 -14 -69 16 -81 49 -296 123 -280 96 3 -4 27 -16 53 -26 118 -44 253 -132
253 -165 0 -21 -59 -61 -120 -82 -56 -20 -86 -23 -207 -23 -78 0 -136 -3 -129
-7 27 -15 163 -30 228 -26 l67 5 -20 -39 c-22 -44 -35 -50 -136 -68 -86 -15
-100 -36 -18 -25 45 5 54 4 49 -8 -2 -7 -22 -23 -42 -35 -40 -22 -243 -82
-279 -82 -12 0 -25 -5 -29 -11 -7 -13 128 -7 176 7 l25 7 -23 -25 c-51 -56
-147 -67 -315 -36 -101 19 -194 102 -356 318 -71 95 -94 120 -66 75 34 -57
103 -150 164 -222 34 -40 57 -73 52 -73 -5 0 -45 39 -90 86 -45 47 -81 82 -81
77 0 -15 152 -177 201 -214 47 -36 103 -66 164 -89 29 -11 29 -12 11 -26 -56
-41 -212 -1 -398 102 -64 35 -122 64 -128 64 -5 0 -10 5 -10 10 0 6 -4 10 -10
10 -22 0 -7 -25 52 -83 57 -58 57 -51 -2 18 -24 28 -23 27 20 -6 68 -54 162
-115 188 -123 13 -4 21 -13 19 -19 -6 -21 -100 -66 -172 -83 -66 -16 -74 -16
-130 0 -32 10 -95 36 -139 58 -44 22 -74 33 -67 24 16 -19 186 -106 207 -106
8 0 14 -4 14 -10 0 -15 -97 -12 -160 5 -69 19 -82 18 -50 -1 25 -15 25 -15
-10 -8 -205 38 -350 165 -415 364 -10 30 -20 50 -22 45 -2 -6 6 -37 17 -70 11
-32 18 -60 16 -63 -10 -10 -68 97 -88 162 -18 61 -20 85 -15 215 6 163 23 233
85 356 83 165 191 298 277 342 l50 25 -21 -23 c-21 -23 -47 -95 -57 -152 -6
-38 6 -23 29 38 l19 50 6 -100 c4 -55 13 -120 20 -145 14 -44 14 -40 19 110 3
88 11 167 18 184 15 35 53 89 58 83 3 -2 -3 -34 -11 -71 -24 -104 -6 -113 34
-16 39 92 93 160 154 189 90 44 119 20 53 -43 -38 -38 -96 -129 -96 -153 0 -4
16 17 36 47 39 58 83 110 95 110 3 0 9 -22 13 -49 4 -27 13 -67 21 -88 l15
-38 -5 40 c-3 22 -7 58 -10 80 -4 29 4 15 27 -50 29 -78 82 -185 92 -185 2 0
-11 35 -29 78 -74 170 -87 280 -43 352 24 41 35 33 13 -10 l-16 -31 30 16 c43
22 89 106 96 175 10 98 22 125 66 156 22 15 47 37 55 48 14 20 15 20 25 3 36
-62 246 -283 333 -349 37 -28 35 -25 -15 28 -174 183 -288 336 -289 387 0 26
17 20 24 -9 11 -42 35 -71 77 -93 53 -28 58 -26 27 7 -49 52 -83 146 -72 201
5 26 16 36 51 53 34 16 45 28 50 50 6 29 7 30 49 23 53 -8 286 -75 418 -120
55 -19 101 -33 103 -31 2 2 -49 26 -114 53 -221 95 -458 153 -470 116 -3 -7
-9 -13 -15 -13 -31 0 33 175 85 231 19 21 26 21 121 16 56 -3 139 -13 186 -22z"/>
<path d="M2617 9266 c-20 -43 -37 -81 -37 -85 0 -3 -20 -36 -44 -73 -88 -133
-175 -218 -421 -409 -165 -129 -227 -168 -305 -193 -39 -13 -74 -26 -77 -30
-33 -33 131 1 219 45 105 53 359 253 466 368 132 140 252 357 240 432 -3 19
-12 8 -41 -55z"/>
<path d="M2416 9014 c-107 -102 -319 -259 -378 -281 -42 -15 -64 -33 -40 -33
74 0 252 119 398 266 69 70 115 125 102 124 -2 -1 -38 -35 -82 -76z"/>
<path d="M7880 2248 c-172 -166 -298 -259 -452 -334 -61 -30 -77 -51 -30 -40
46 12 185 85 247 132 91 67 381 358 353 354 -2 -1 -55 -51 -118 -112z"/>
<path d="M7990 1549 c-88 -40 -306 -108 -385 -119 -44 -6 -118 -10 -163 -8
-45 2 -82 0 -82 -4 0 -17 91 -30 180 -26 110 6 269 53 405 120 104 51 138 80
45 37z"/>
<path d="M8896 1173 c-3 -21 -6 -56 -6 -79 0 -64 -36 -188 -77 -267 -53 -102
-192 -240 -290 -289 -40 -20 -98 -42 -129 -48 -58 -12 -291 -10 -329 3 -11 4
-5 0 14 -9 52 -24 191 -29 296 -11 134 24 220 70 326 176 137 138 183 238 199
435 10 119 8 160 -4 89z"/>
<path d="M3311 2707 c2 -2 67 -28 144 -57 77 -29 207 -86 290 -126 82 -40 151
-71 153 -69 8 7 -96 76 -173 114 -108 54 -449 167 -414 138z"/>
<path d="M3109 2242 c30 -56 251 -228 451 -353 78 -48 279 -149 297 -149 4 0
-29 22 -74 49 -102 60 -309 204 -468 325 -117 89 -199 146 -210 146 -3 0 -1
-8 4 -18z"/>
<path d="M2780 1908 c0 -46 131 -206 311 -383 128 -125 125 -114 -8 37 -127
144 -217 253 -255 309 -33 49 -48 60 -48 37z"/>
<path d="M2150 1272 c0 -143 47 -261 151 -383 52 -60 199 -189 216 -189 2 0
-49 56 -115 125 -163 171 -214 269 -228 446 -4 44 -11 79 -15 79 -5 0 -9 -35
-9 -78z"/>
<path d="M4925 10482 c31 -30 402 -55 703 -47 l242 7 103 -36 c56 -20 107 -40
112 -44 7 -4 9 -54 7 -134 l-4 -127 -62 34 c-230 127 -489 179 -780 156 -157
-12 -256 -34 -379 -84 -175 -70 -365 -209 -450 -329 -43 -60 -117 -196 -117
-214 0 -4 26 28 58 71 249 339 642 521 1081 502 69 -3 151 -11 181 -17 241
-51 449 -170 663 -379 97 -95 127 -119 127 -103 0 11 5 24 10 27 11 7 14 187
4 248 -12 72 -24 36 -24 -72 0 -151 -3 -155 -58 -79 -25 35 -73 90 -106 122
-34 33 -54 57 -45 54 30 -11 155 -20 139 -9 -21 13 -137 33 -158 27 -9 -3 -29
5 -43 17 -25 21 -26 24 -18 92 4 39 8 96 8 129 1 42 4 57 14 54 6 -3 57 -20
111 -38 105 -35 141 -60 151 -107 11 -50 26 -73 19 -28 -13 86 -37 103 -299
206 -187 73 -217 83 -275 83 -36 0 -171 -2 -300 -3 -129 -1 -287 2 -350 8
-234 22 -275 24 -265 13z"/>
<path d="M5320 10151 c-17 -5 15 -9 95 -14 159 -8 317 -40 441 -88 291 -113
527 -365 639 -682 32 -89 52 -114 29 -35 -45 153 -129 304 -241 433 -144 167
-288 261 -528 346 -117 41 -123 42 -265 45 -80 2 -156 0 -170 -5z"/>
<path d="M5300 10104 c-131 -13 -312 -65 -435 -126 -104 -52 -297 -189 -284
-202 3 -3 43 22 89 56 173 123 390 212 592 242 131 20 206 20 328 2 360 -55
654 -266 814 -584 52 -104 102 -260 121 -377 19 -120 30 -139 21 -36 -10 96
-46 238 -85 332 -68 164 -241 381 -388 485 -118 85 -298 162 -440 190 -78 15
-260 24 -333 18z"/>
<path d="M5275 10040 c-214 -51 -414 -142 -633 -288 -68 -45 -125 -82 -128
-82 -3 0 -2 6 1 13 9 18 -50 -49 -99 -113 -24 -30 -75 -116 -114 -190 -40 -74
-72 -132 -72 -128 0 4 16 51 35 104 19 53 33 99 30 102 -2 3 -9 -7 -15 -22 -5
-14 -14 -37 -20 -51 -5 -14 -23 -78 -41 -142 -17 -64 -37 -126 -45 -137 -17
-24 -19 -278 -4 -391 6 -38 13 -99 17 -134 6 -60 9 -67 58 -116 94 -95 185
-143 410 -216 96 -31 294 -68 396 -73 99 -5 95 -4 -81 20 l-45 6 80 29 c97 36
353 158 454 217 40 24 114 70 164 104 50 34 133 78 186 98 250 98 433 189 520
258 40 31 36 21 -28 -66 -136 -187 -249 -307 -411 -438 -196 -158 -355 -247
-476 -266 -40 -6 -135 -9 -224 -6 -107 4 -141 2 -110 -4 55 -11 526 -3 704 11
186 16 277 36 386 88 146 68 261 136 294 172 28 31 6 25 -34 -9 -37 -33 -63
-41 -37 -12 45 50 136 329 142 437 l4 70 -10 -64 c-18 -116 -24 -92 -25 97 0
216 -16 304 -84 474 -121 302 -385 539 -705 633 -124 37 -322 44 -440 15z
m372 -314 c60 -29 80 -57 64 -92 -14 -31 -48 -44 -118 -44 -64 0 -137 29 -154
62 -43 80 92 128 208 74z m-471 3 c162 -41 132 -205 -65 -361 -207 -165 -458
-211 -518 -95 -53 103 85 298 277 395 133 66 217 83 306 61z"/>
<path d="M3739 9877 c-73 -51 -76 -56 -82 -207 -3 -58 -10 -145 -16 -195 -7
-49 -9 -106 -5 -125 4 -19 7 -97 8 -173 l1 -139 33 -29 c49 -44 70 -36 23 9
-37 35 -39 41 -45 112 -4 41 -5 104 -4 140 1 36 -1 81 -5 100 l-7 35 14 -29
c12 -27 13 -20 13 80 0 80 4 119 16 148 15 35 15 38 1 32 -14 -5 -16 -1 -10
25 3 17 6 61 6 98 l0 66 60 39 c54 34 80 56 67 56 -3 0 -33 -20 -68 -43z"/>
<path d="M3838 9823 c-13 -3 -18 -15 -18 -43 0 -49 18 -60 97 -60 l59 0 3 45
c1 30 -2 47 -11 49 -24 8 -113 14 -130 9z"/>
<path d="M6744 9602 c-91 -73 -31 -222 90 -222 53 0 106 52 106 104 0 45 -21
87 -56 115 -34 27 -109 28 -140 3z"/>
<path d="M3906 9590 c-41 -13 -85 -58 -92 -96 -19 -102 84 -177 177 -129 88
46 91 184 4 221 -38 16 -47 16 -89 4z"/>
<path d="M6780 9312 c-79 -79 -16 -212 81 -171 45 18 75 86 59 134 -23 69 -90
86 -140 37z"/>
<path d="M3874 9246 c-45 -45 -45 -77 1 -123 32 -32 40 -35 73 -30 24 4 47 17
65 37 86 96 -47 208 -139 116z"/>
<path d="M6565 8728 c-4 -18 -27 -90 -50 -160 -24 -71 -41 -128 -39 -128 2 0
10 12 18 28 l15 27 1 -31 c1 -78 -137 -183 -359 -275 -57 -24 -99 -45 -94 -46
13 -5 143 47 231 91 172 87 286 211 238 259 -14 14 -14 19 3 59 17 40 41 118
55 181 4 15 2 27 -3 27 -5 0 -13 -15 -16 -32z"/>
<path d="M6722 8630 c-2 -76 -35 -221 -57 -256 -10 -16 -21 -20 -51 -17 -34 3
-36 2 -16 -7 13 -5 28 -8 33 -4 5 3 9 1 9 -5 0 -6 -24 -24 -52 -40 -85 -47
-99 -61 -125 -117 l-24 -54 -105 7 c-57 3 -104 4 -104 1 0 -3 39 -11 88 -18
48 -7 93 -17 99 -22 8 -7 11 -23 7 -47 -4 -26 -2 -41 9 -49 9 -8 13 -21 9 -34
-6 -23 0 -23 -360 2 -202 14 -809 -13 -899 -40 l-28 -8 35 -1 c19 -1 127 4
240 10 188 10 543 4 930 -17 41 -3 80 -1 87 4 12 8 14 31 9 142 -2 59 1 70 31
116 20 30 51 60 76 74 98 56 136 108 164 230 7 34 8 34 13 -20 5 -54 6 -55 39
-58 21 -2 31 0 26 7 -3 6 -14 11 -23 11 -16 0 -17 10 -14 98 2 64 -1 110 -10
136 -21 63 -33 54 -36 -24z"/>
<path d="M3816 8652 c-13 -21 -18 -188 -7 -227 18 -66 33 -80 84 -78 l45 1 25
-71 c14 -40 40 -114 58 -164 17 -51 38 -98 45 -104 18 -15 19 -18 -21 90 -19
51 -35 97 -35 102 0 4 19 -3 43 -16 23 -12 58 -28 78 -34 48 -15 77 -49 100
-113 18 -49 19 -50 13 -13 -12 79 -36 104 -164 171 -39 20 -65 43 -87 78 -37
55 -41 73 -15 79 9 3 -16 5 -55 6 -40 0 -73 4 -73 8 0 3 8 15 18 26 13 15 17
37 16 106 -1 93 -11 167 -22 156 -4 -4 -6 -59 -4 -123 3 -117 -7 -164 -27
-132 -17 26 -22 104 -11 179 10 71 9 93 -4 73z"/>
<path d="M5545 8038 c-541 -14 -816 -28 -945 -48 -69 -11 -129 -20 -135 -21
-5 0 4 -5 20 -10 20 -6 54 -4 105 5 103 20 311 35 650 46 315 11 957 14 1066
5 53 -4 62 -3 39 5 -36 12 -320 31 -425 28 -41 -1 -210 -5 -375 -10z"/>
<path d="M4180 7980 c0 -12 25 -19 86 -26 58 -7 67 -15 77 -71 6 -29 4 -33
-19 -39 -17 -4 -22 -10 -15 -17 14 -14 58 0 63 21 5 19 42 24 407 57 90 8 166
17 169 20 22 21 -389 -9 -549 -41 -23 -4 -28 -1 -34 23 -9 39 -33 62 -69 67
-74 11 -116 14 -116 6z"/>
<path d="M6645 7803 c-23 -64 -31 -248 -16 -354 14 -97 40 -200 54 -214 11
-11 3 143 -15 290 -6 50 -8 143 -5 208 3 64 4 117 2 117 -2 0 -11 -21 -20 -47z"/>
<path d="M5559 7776 c-2 -2 -168 -9 -368 -16 -246 -9 -356 -16 -340 -23 39
-14 722 12 847 33 41 7 36 8 -44 9 -50 0 -93 -1 -95 -3z"/>
<path d="M4487 7718 c54 -58 127 -199 118 -228 -3 -9 3 -28 14 -41 10 -13 37
-61 59 -106 47 -92 72 -119 44 -46 -123 315 -154 375 -223 437 -60 55 -68 43
-12 -16z"/>
<path d="M7327 7602 c-19 -21 -23 -86 -7 -126 5 -14 33 -51 63 -81 53 -54 79
-65 121 -49 22 9 20 24 -3 24 -63 0 -167 186 -121 215 6 3 10 13 10 21 0 20
-44 18 -63 -4z"/>
<path d="M6583 7262 c1 -83 1 -152 0 -152 -1 0 -14 11 -29 25 -56 52 -106 57
-478 57 -330 -1 -576 -10 -931 -33 -309 -20 -338 -23 -343 -38 -4 -11 8 -13
62 -9 65 6 66 5 60 -16 -20 -62 -24 -113 -24 -356 0 -314 -3 -305 93 -315 62
-7 625 11 683 21 l31 6 6 -61 c11 -100 19 -96 -185 -97 -127 -1 -178 2 -178
10 -1 32 -15 34 -175 25 -88 -4 -177 -5 -197 -2 -34 5 -38 9 -38 34 0 17 -7
32 -17 38 -10 5 -78 10 -150 10 l-133 2 0 -135 c0 -164 4 -171 89 -162 31 3
81 7 111 8 l55 3 3 -70 c2 -38 8 -74 13 -80 14 -14 11 116 -4 145 -12 23 -19
25 -107 32 -95 6 -130 1 -94 -13 15 -7 12 -8 -11 -6 l-30 2 -3 121 -3 121 108
6 c156 10 150 13 159 -94 7 -99 24 -131 24 -46 l0 55 178 8 c97 4 182 8 187 9
6 0 10 -16 11 -35 1 -137 5 -174 14 -160 5 8 10 45 10 81 l0 67 128 6 c154 8
159 8 200 7 l32 -1 0 -133 0 -133 -127 -2 c-71 -1 -166 -5 -212 -8 l-83 -7 26
39 c14 21 23 40 20 43 -7 7 -29 -22 -54 -70 l-19 -36 47 7 c26 4 125 11 219
15 194 8 179 14 191 -71 7 -45 10 -49 42 -57 51 -12 214 -17 203 -6 -6 6 -32
11 -59 12 -27 1 -52 6 -56 12 -4 5 -10 2 -13 -8 -6 -14 -11 -15 -28 -5 -12 6
-23 10 -25 9 -1 -1 -8 2 -16 6 -9 6 -15 47 -20 148 -3 77 -9 172 -12 210 l-6
70 52 19 c51 18 121 18 189 0 16 -5 22 -4 18 4 -4 5 -1 12 5 15 7 2 -3 12 -22
23 -48 25 -165 26 -203 1 -31 -20 -34 -16 -39 43 l-3 35 -85 -1 c-47 0 -221
-2 -388 -5 -261 -3 -304 -2 -313 11 -14 22 0 586 16 626 12 28 18 32 66 38
193 22 1215 39 1381 23 102 -10 143 -32 172 -90 10 -21 20 -36 23 -34 9 10 4
343 -6 367 -8 19 -10 -12 -8 -128z"/>
<path d="M6523 7294 l2 -82 -32 28 c-39 35 -93 46 -283 60 -316 23 -581 29
-826 20 -353 -13 -547 -41 -670 -95 -69 -31 -101 -58 -120 -104 -16 -39 -17
-41 -5 -41 5 0 14 13 21 30 17 41 78 94 131 114 61 22 194 43 357 57 300 25
1127 10 1301 -23 41 -7 64 -20 97 -50 l44 -41 -1 79 c-1 44 -5 90 -10 104 -6
17 -8 -1 -6 -56z"/>
<path d="M5690 7110 c-140 -4 -328 -8 -418 -9 -106 -1 -161 -5 -157 -11 3 -5
29 -10 57 -10 l51 0 -7 -46 c-3 -26 -6 -157 -6 -291 l0 -245 -65 4 c-36 1 -65
0 -65 -4 0 -12 109 -21 178 -14 37 3 227 11 422 16 195 6 369 13 387 16 l31 6
1 -77 c0 -43 3 -80 5 -83 18 -17 28 81 33 314 6 256 2 321 -17 309 -6 -4 -10
7 -10 25 0 18 -4 29 -10 25 -6 -4 -10 -96 -10 -244 0 -171 -3 -240 -12 -249
-8 -8 -53 -12 -137 -12 l-126 1 36 19 c174 92 191 393 29 495 -21 13 -50 27
-64 31 -71 17 -3 24 247 24 241 0 314 -4 407 -25 14 -3 5 4 -19 16 -41 20 -64
22 -275 24 -127 1 -346 -1 -486 -5z m-80 -18 c0 -4 -15 -13 -33 -20 -53 -19
-113 -78 -144 -140 -37 -76 -40 -183 -5 -253 28 -58 85 -116 135 -139 22 -10
35 -20 30 -23 -7 -4 -115 -9 -248 -11 l-50 -1 -3 50 c-2 28 -1 159 3 292 l7
242 147 4 c80 1 149 4 154 5 4 1 7 -2 7 -6z m-332 -297 l0 -295 -24 0 -24 0 0
148 c0 81 3 211 7 289 5 118 9 143 22 146 9 3 17 5 18 6 1 0 1 -132 1 -294z
m530 243 c46 -22 115 -99 138 -155 8 -18 14 -59 14 -91 0 -171 -177 -301 -338
-248 -61 21 -135 84 -164 139 -43 86 -32 205 27 283 29 38 101 83 148 94 47
11 126 1 175 -22z"/>
<path d="M5662 7010 c-122 -29 -197 -178 -145 -288 42 -89 148 -145 232 -122
53 14 122 67 143 110 35 68 18 182 -35 238 -46 50 -132 77 -195 62z m28 -94
c0 -65 -3 -85 -15 -90 -8 -3 -15 -12 -15 -20 0 -7 -12 -22 -27 -31 -16 -10
-40 -29 -55 -43 l-27 -25 -12 29 c-6 16 -9 57 -7 90 3 49 10 69 32 99 24 31
92 74 119 75 4 0 7 -38 7 -84z m71 73 c63 -21 128 -105 129 -164 0 -30 -18
-88 -34 -110 -13 -18 -16 -17 -65 19 -36 26 -51 45 -51 61 0 12 -7 25 -15 29
-12 4 -15 24 -15 91 0 47 4 85 9 85 4 0 23 -5 42 -11z m22 -272 c47 -24 55
-32 45 -44 -22 -27 -71 -45 -128 -46 -48 -1 -63 3 -94 26 -20 16 -36 32 -36
37 0 4 21 22 48 38 56 35 80 34 165 -11z"/>
<path d="M7509 7068 c-11 -24 -23 -65 -25 -93 -6 -80 -8 -89 -28 -117 -12 -19
-16 -36 -12 -54 5 -18 0 -37 -14 -61 -11 -19 -20 -43 -20 -54 0 -10 -9 -28
-20 -39 -11 -11 -20 -28 -20 -38 0 -10 -13 -32 -30 -48 -16 -16 -30 -34 -30
-40 0 -6 -7 -17 -15 -24 -8 -7 -15 -24 -15 -39 0 -16 -8 -31 -21 -39 -13 -9
-18 -19 -14 -32 3 -10 1 -21 -5 -25 -6 -4 -9 -14 -5 -22 3 -9 -3 -25 -12 -37
l-18 -21 23 19 c12 11 22 28 22 40 0 15 3 17 12 8 19 -19 30 -14 22 10 l-6 21
27 -21 c15 -12 35 -22 43 -22 9 0 -6 14 -31 31 -26 17 -45 35 -42 40 3 5 23
-2 43 -16 20 -13 51 -27 67 -30 l30 -7 -29 20 c-16 11 -38 31 -50 44 -12 13
-19 19 -16 13 3 -6 -3 -2 -12 8 -21 22 -22 33 -7 42 6 4 26 -11 45 -33 34 -40
101 -89 110 -80 2 3 -18 22 -45 44 -50 40 -91 97 -78 110 4 4 14 -1 23 -12 15
-18 15 -17 10 15 -4 24 -3 32 7 28 8 -3 12 7 13 30 1 44 26 72 48 53 13 -10
16 -10 16 3 0 12 10 11 58 -9 79 -32 127 -32 52 1 -30 13 -72 33 -92 43 -34
18 -36 21 -23 38 8 11 15 40 15 67 0 26 5 56 11 66 11 17 15 16 68 -20 31 -20
67 -41 81 -44 14 -4 -6 15 -45 42 -66 46 -70 51 -67 83 1 19 3 59 4 87 l0 53
28 -30 c16 -17 36 -30 45 -30 13 0 10 8 -15 36 -23 27 -30 43 -26 60 10 39
-12 27 -35 -18z"/>
<path d="M6143 7047 c2 -8 49 -14 158 -18 85 -3 162 -9 171 -13 32 -14 38 -64
38 -335 0 -149 4 -260 9 -253 4 8 9 104 10 215 1 111 5 212 8 225 10 41 -7
131 -30 158 -22 25 -25 26 -195 30 -134 3 -173 1 -169 -9z"/>
<path d="M6234 6899 c-20 -22 -31 -123 -50 -446 l-7 -123 -54 0 c-51 0 -70
-12 -37 -24 20 -8 279 -8 271 0 -3 3 -39 9 -79 12 l-73 7 0 60 c1 61 22 376
31 452 3 24 12 49 20 57 8 8 14 17 14 20 0 13 -18 5 -36 -15z"/>
<path d="M8013 6483 l-231 -228 -61 -125 c-81 -169 -87 -202 -9 -57 128 239
262 366 483 458 28 12 29 13 7 16 -25 5 -118 -35 -172 -73 -22 -16 -18 -11 10
13 92 77 213 200 209 212 -3 7 -109 -90 -236 -216z"/>
<path d="M7689 6638 c-7 -12 -15 -41 -18 -63 -8 -57 -43 -73 -124 -56 -33 7
-62 10 -65 7 -9 -10 66 -36 103 -36 37 0 43 -8 23 -28 -16 -16 -63 -15 -122 3
-27 8 -51 13 -54 11 -6 -6 57 -45 86 -52 22 -6 31 -24 12 -24 -5 0 -13 -15
-18 -32 -10 -42 -63 -62 -140 -55 -31 3 -50 2 -47 -4 4 -5 30 -9 58 -9 37 0
48 -3 37 -10 -8 -5 -25 -10 -37 -10 -12 0 -25 -5 -29 -12 -5 -8 3 -9 29 -5 21
3 37 2 37 -2 0 -16 -65 -36 -112 -34 -27 0 -45 -3 -42 -8 3 -5 31 -9 62 -9 77
0 56 -19 -34 -29 -46 -6 -58 -9 -34 -11 19 -1 46 -2 60 -1 20 2 22 0 10 -8 -8
-6 -32 -11 -53 -11 -40 0 -44 -20 -4 -20 21 -1 21 -1 3 -11 -11 -7 -41 -9 -78
-5 -47 6 -59 4 -56 -6 3 -7 22 -17 43 -23 39 -10 95 -51 95 -71 0 -6 7 -18 16
-25 9 -7 20 -23 25 -36 4 -12 23 -30 41 -39 48 -25 128 -87 128 -99 0 -16 49
-60 85 -76 16 -8 37 -29 46 -47 23 -49 156 -171 217 -199 28 -14 56 -33 62
-42 5 -10 25 -26 44 -35 66 -31 76 -15 16 26 -22 15 -48 45 -59 67 -34 65 -61
181 -62 261 0 61 -2 70 -11 50 -15 -38 -3 -196 21 -262 11 -32 17 -58 13 -58
-24 1 -194 156 -222 202 -9 15 -35 41 -57 57 -49 36 -78 81 -94 146 -19 83
-29 96 -26 35 2 -30 7 -64 12 -75 5 -14 -4 -9 -31 16 -21 20 -54 46 -72 59
-19 13 -31 28 -28 36 3 7 -3 18 -12 23 -10 6 -12 11 -4 11 6 0 12 6 12 13 1
13 44 76 123 179 l49 63 -67 -70 c-36 -38 -80 -91 -97 -117 -17 -27 -34 -48
-37 -48 -3 1 -22 14 -41 30 l-34 30 28 0 c20 0 40 12 65 38 47 48 101 117 101
130 0 5 12 18 26 28 68 50 75 57 71 75 -4 14 9 28 49 54 33 22 56 46 60 61 4
13 15 29 25 35 11 5 19 20 19 33 0 13 7 43 15 66 17 48 13 64 -6 28z"/>
<path d="M4710 6615 c-7 -8 -17 -15 -23 -15 -6 0 -36 -17 -67 -38 -30 -22 -70
-44 -89 -50 -34 -12 -211 -186 -211 -208 0 -6 -8 -18 -19 -25 -20 -15 -37 -79
-21 -79 6 0 10 11 10 25 0 14 7 28 16 32 8 3 20 17 25 32 8 21 12 23 20 11 8
-12 9 -10 4 6 -4 15 0 24 12 28 10 4 19 2 21 -3 2 -6 9 -11 15 -11 8 0 7 4 -1
12 -7 7 -12 17 -12 22 0 6 5 5 12 -2 19 -19 30 -14 17 10 -10 18 -7 25 24 55
20 18 40 33 46 33 6 0 10 5 9 12 -2 6 8 17 22 24 41 22 212 104 216 104 14 0
0 -50 -18 -66 -12 -10 -18 -13 -14 -6 16 28 -40 -4 -91 -51 -31 -29 -32 -29
-26 -6 6 21 4 22 -9 12 -8 -7 -18 -10 -21 -6 -13 13 -7 -18 8 -41 14 -20 14
-37 5 -110 -23 -190 -101 -310 -215 -336 -19 -4 -37 -4 -40 1 -3 4 8 34 25 65
16 31 30 62 30 69 0 7 11 38 25 70 14 32 24 60 21 63 -11 10 -36 -21 -36 -44
0 -25 -18 -71 -55 -144 -30 -58 -49 -154 -29 -146 10 4 6 -9 -9 -37 -18 -31
-31 -43 -51 -45 -16 -2 -33 1 -39 7 -17 17 -26 13 -20 -9 6 -21 36 -35 53 -25
16 10 11 -4 -10 -27 -10 -11 -22 -34 -25 -49 -4 -16 -10 -29 -14 -29 -4 0 -8
-13 -9 -29 0 -16 -6 -48 -12 -71 -6 -23 -9 -44 -7 -47 7 -6 26 54 31 98 6 46
39 116 69 149 13 14 28 33 33 43 7 12 10 -30 10 -135 0 -168 9 -257 27 -282 7
-10 33 -19 67 -22 63 -7 59 6 -6 24 -23 7 -45 20 -49 30 -9 22 -20 415 -12
436 5 13 12 12 55 -7 l49 -22 12 -130 c7 -71 16 -146 21 -165 l8 -35 1 40 c0
22 -4 94 -9 159 -6 66 -8 121 -6 123 2 2 70 11 152 19 81 8 151 17 154 21 3 3
-69 3 -160 0 -159 -5 -166 -5 -212 19 -26 13 -55 24 -65 24 -12 0 -14 3 -6 11
6 6 70 15 143 20 74 5 136 11 138 14 3 3 -28 5 -68 5 l-73 0 27 25 c15 14 39
50 52 80 29 63 64 218 64 286 0 53 25 82 103 119 27 12 52 32 57 44 5 11 9 16
9 9 2 -21 -11 -43 -25 -43 -8 0 -14 -4 -14 -10 0 -18 29 -10 44 12 19 27 21
89 4 106 -17 17 -53 15 -68 -3z"/>
<path d="M3599 6523 c147 -198 427 -547 492 -615 36 -37 36 -38 24 -85 -6 -27
-21 -68 -33 -93 -12 -25 -22 -55 -22 -67 0 -12 -4 -25 -10 -28 -5 -3 -10 -22
-10 -41 0 -19 -4 -42 -9 -52 -5 -9 -14 -35 -21 -57 -21 -71 -64 -169 -87 -201
-13 -17 -23 -36 -23 -42 0 -24 -23 -10 -85 53 -36 36 -70 65 -75 65 -6 0 -10
6 -10 14 0 8 -18 36 -40 61 -23 27 -40 57 -40 71 0 13 -4 24 -9 24 -5 0 -16 3
-25 6 -9 3 -16 1 -16 -5 0 -6 7 -11 15 -11 21 0 19 -20 -2 -21 -16 0 -16 -1 1
-8 25 -10 5 -24 -21 -15 -17 7 -17 6 -1 -11 16 -17 19 -17 35 -2 17 15 19 14
30 -9 6 -14 7 -26 2 -30 -17 -10 -9 -22 13 -16 14 3 19 2 14 -6 -4 -7 0 -15 8
-18 9 -3 16 -13 16 -20 0 -8 11 -19 24 -24 31 -12 52 -48 37 -63 -17 -17 -13
-31 4 -17 8 7 15 19 15 26 0 24 15 15 34 -20 10 -19 27 -36 37 -39 23 -6 26
-27 4 -27 -18 0 -20 -20 -2 -20 6 -1 -1 -12 -18 -25 -27 -23 -28 -25 -9 -25
12 0 25 6 28 13 57 113 72 132 106 138 19 4 29 7 23 8 -7 0 -13 5 -13 10 0 4
11 6 25 3 34 -6 31 5 -5 20 l-29 13 19 43 c10 23 22 58 26 77 3 19 10 35 14
35 4 0 11 21 15 46 5 34 10 43 18 35 19 -19 31 -12 14 7 -20 22 -24 53 -5 34
18 -18 32 -14 17 4 -12 15 -11 16 11 10 l25 -7 -22 20 c-28 23 -28 37 -6 87
10 22 24 66 33 99 12 48 19 59 33 57 15 -3 17 0 8 17 -17 30 -13 36 9 16 23
-21 26 -9 5 19 -23 30 -18 38 10 20 14 -9 28 -14 31 -11 3 3 -4 10 -15 17 -26
14 -27 44 -2 76 11 14 29 54 41 90 26 78 28 76 -89 148 -115 70 -111 68 -111
62 0 -3 44 -38 98 -77 53 -40 99 -74 101 -76 9 -7 -31 -114 -49 -131 -10 -9
-26 -47 -35 -85 -10 -37 -20 -67 -24 -66 -7 1 -34 33 -252 304 -238 297 -279
345 -296 345 -11 0 -10 -6 6 -27z"/>
<path d="M8280 6476 c-71 -27 -197 -95 -248 -136 -96 -75 -170 -194 -228 -368
-34 -100 -26 -124 10 -31 69 181 161 320 261 396 55 42 228 133 253 133 6 0
14 5 17 10 8 13 -22 11 -65 -4z"/>
<path d="M6023 6293 c9 -57 26 -218 33 -306 3 -49 9 -75 16 -71 6 4 8 22 4 42
l-5 35 147 -7 c81 -3 170 -9 197 -12 39 -5 47 -4 39 6 -19 20 -83 30 -235 37
l-146 6 -12 126 c-7 69 -15 138 -18 154 -8 42 -26 33 -20 -10z"/>
<path d="M4955 5890 c-3 -5 3 -10 14 -10 28 0 32 -33 29 -245 l-3 -180 -44 4
c-32 2 -41 0 -36 -10 6 -9 2 -11 -13 -7 -26 7 -39 -7 -16 -16 9 -3 30 -6 47
-6 25 0 29 3 17 11 -11 8 -7 9 16 4 54 -10 58 3 58 223 1 208 -5 242 -44 242
-10 0 -22 -4 -25 -10z"/>
<path d="M5580 5800 c-77 -18 -256 -29 -372 -23 l-123 6 -3 -29 c-1 -16 2
-112 8 -214 6 -102 15 -286 19 -409 7 -168 12 -227 23 -237 22 -23 165 -46
234 -39 l62 6 -5 -45 c-9 -78 44 -126 137 -126 33 0 40 -3 40 -20 0 -17 7 -20
43 -20 23 0 51 7 61 15 11 8 30 15 42 15 60 0 120 46 135 104 6 23 23 66 37
96 33 68 38 170 10 213 -16 24 -18 58 -18 332 0 202 -3 305 -10 305 -7 0 -10
-101 -8 -305 3 -298 3 -304 -17 -307 -11 -2 -19 -7 -17 -13 2 -5 9 -9 16 -7 7
1 21 -7 31 -17 21 -25 23 -126 3 -186 -11 -33 -18 -40 -38 -38 -21 2 -23 0 -9
-9 13 -9 14 -18 6 -52 -5 -23 -16 -49 -24 -58 -15 -17 -103 -52 -111 -43 -12
12 10 33 42 39 20 4 44 18 56 33 21 27 27 63 10 63 -5 0 -10 -11 -10 -24 0
-14 -10 -32 -22 -40 -25 -18 -84 -21 -93 -6 -8 12 -75 13 -94 1 -17 -11 -100
16 -107 34 -9 22 24 74 57 90 16 9 52 19 80 22 52 6 68 23 21 23 -48 0 -127
-28 -151 -54 -12 -13 -25 -42 -28 -65 -5 -39 -4 -41 30 -56 20 -8 48 -15 62
-15 19 0 25 -5 25 -21 0 -20 -4 -21 -47 -14 -113 17 -139 69 -86 171 25 49 76
70 210 88 l41 6 7 -40 c4 -22 11 -40 16 -40 13 0 11 90 -2 129 -14 40 -34 41
-25 1 5 -30 5 -30 -38 -30 -25 0 -52 -3 -62 -7 -16 -6 -17 10 -12 278 4 156 3
295 -1 309 -14 46 -26 -123 -26 -363 l0 -228 -38 -10 c-24 -6 -55 -27 -80 -54
l-42 -43 -79 3 c-43 2 -80 5 -82 7 -2 2 -8 168 -14 368 -6 201 -13 372 -16
380 -24 70 -33 -288 -14 -523 20 -241 22 -217 -15 -217 -65 0 -66 4 -76 240
-11 285 -30 613 -34 620 -2 3 80 6 183 6 147 1 209 5 292 21 88 18 107 19 119
8 11 -11 16 -71 22 -277 4 -145 8 -294 8 -331 1 -43 5 -66 11 -62 22 13 3 632
-20 676 -12 21 -63 24 -130 9z"/>
<path d="M6110 5673 c0 -14 79 -61 207 -124 71 -35 132 -72 147 -89 34 -41 45
-104 53 -305 6 -169 6 -175 -13 -175 -11 0 -26 6 -34 13 -8 6 -6 2 4 -10 26
-31 54 -29 62 4 10 38 -3 338 -16 402 -18 78 -57 112 -248 209 -89 46 -162 79
-162 75z"/>
<path d="M8585 5574 c-45 -46 -58 -54 -77 -49 -21 7 -21 6 5 -19 16 -14 32
-24 37 -21 20 13 66 -25 142 -117 44 -54 83 -96 86 -94 2 3 -6 19 -18 36 -12
17 -21 33 -19 34 5 5 148 44 179 49 14 2 -2 5 -35 6 -33 0 -85 -5 -114 -13
l-54 -14 -26 31 c-64 75 -62 73 -43 90 49 45 165 70 362 80 l55 2 -60 9 c-37
6 -100 5 -165 -1 -116 -11 -178 -35 -206 -79 -12 -17 -20 -22 -28 -14 -7 7 3
23 34 55 57 58 35 59 -25 2 -25 -24 -47 -42 -50 -39 -6 6 28 54 66 92 17 16
25 30 19 30 -6 0 -36 -25 -65 -56z"/>
<path d="M4834 5348 c3 -40 8 -117 11 -170 l6 -97 -33 -6 c-18 -3 -96 -10
-173 -15 -137 -9 -141 -8 -181 15 -22 13 -46 31 -53 39 -7 9 -19 73 -27 143
-8 69 -17 129 -20 132 -9 8 5 -194 16 -243 11 -50 44 -84 94 -97 40 -11 190
-8 319 7 l57 7 0 -59 c1 -106 18 -207 40 -228 26 -26 36 -15 15 17 -15 24 -27
145 -50 520 -4 59 -11 107 -16 107 -6 0 -8 -30 -5 -72z"/>
<path d="M6067 5129 c-15 -9 -18 -18 -12 -46 l6 -35 -55 7 c-39 5 -56 4 -56
-4 0 -7 21 -11 55 -11 l55 0 0 -60 c0 -37 4 -60 11 -60 7 0 10 31 7 94 -3 88
-2 95 17 100 36 10 194 6 200 -4 9 -15 11 -138 2 -185 -7 -37 -6 -38 7 -20 22
29 59 65 68 65 4 0 20 -18 35 -41 22 -33 24 -42 12 -49 -10 -7 -18 -2 -27 15
-17 34 -29 31 -24 -5 9 -59 69 -81 115 -42 23 21 21 46 -8 95 -36 62 -89 111
-114 104 -17 -4 -23 2 -31 34 -6 21 -19 43 -30 49 -25 13 -210 12 -233 -1z"/>
<path d="M6832 4288 c-39 -46 -172 -183 -295 -306 -227 -224 -337 -342 -320
-342 27 0 173 119 288 234 139 139 142 139 27 4 -40 -49 -71 -88 -68 -88 9 0
203 225 302 350 89 112 154 206 154 222 0 20 -22 2 -88 -74z"/>
<path d="M3850 3983 c1 -24 400 -232 530 -277 l105 -36 -60 55 c-67 61 -192
141 -287 184 -106 47 -288 95 -288 74z"/>
<path d="M3848 3693 c34 -63 200 -177 412 -283 80 -40 250 -110 267 -110 4 0
-66 39 -157 86 -91 47 -212 113 -270 146 -92 53 -127 77 -238 162 -24 19 -25
19 -14 -1z"/>
<path d="M7254 3634 c-29 -121 -46 -181 -63 -219 -37 -84 -125 -199 -258 -337
-145 -150 -164 -185 -95 -175 45 6 122 38 105 44 -6 2 -28 -3 -49 -12 -78 -33
-54 -4 143 173 145 128 222 276 237 452 6 80 -7 129 -20 74z"/>
<path d="M4620 3630 c0 -16 108 -117 155 -145 61 -36 161 -76 381 -150 109
-36 244 -89 298 -116 55 -27 101 -47 104 -45 2 2 -20 22 -50 44 -49 38 -363
184 -453 212 -120 37 -301 116 -352 154 -77 56 -83 59 -83 46z"/>
<path d="M3605 3360 c-4 -6 19 -10 60 -10 81 0 239 -31 337 -66 81 -29 343
-155 426 -203 28 -17 52 -29 52 -26 0 14 -181 121 -308 183 -148 72 -204 93
-317 117 -80 17 -241 20 -250 5z"/>
<path d="M1707 1529 c-26 -22 -51 -38 -56 -35 -5 3 -17 3 -26 0 -13 -5 -14 -9
-4 -15 11 -6 7 -15 -16 -39 -27 -29 -34 -31 -72 -25 -49 7 -56 0 -16 -16 l27
-10 -64 -64 c-51 -51 -71 -65 -95 -65 -27 -1 -28 -2 -12 -14 16 -13 16 -15 -4
-40 -13 -16 -30 -26 -47 -26 -23 0 -24 -1 -9 -12 16 -12 15 -16 -9 -50 -21
-30 -34 -38 -58 -39 l-31 0 25 -12 c14 -6 26 -12 28 -12 1 -1 -4 -15 -12 -31
-8 -16 -19 -41 -25 -56 -9 -24 -16 -28 -51 -28 -22 0 -40 -4 -40 -10 0 -5 16
-10 36 -10 l37 0 -7 -37 c-28 -165 -31 -309 -10 -434 6 -35 5 -37 -25 -44 -40
-9 -41 -26 0 -18 21 4 34 1 40 -8 13 -21 11 -59 -3 -59 -7 -1 -26 -7 -43 -15
-30 -15 -30 -15 19 -9 54 6 78 -10 48 -33 -15 -11 -15 -12 5 -13 25 0 54 -36
46 -56 -3 -9 0 -12 9 -9 8 3 21 -1 28 -10 11 -13 10 -18 -6 -31 -18 -14 -18
-15 3 -4 19 9 30 6 64 -17 38 -25 40 -28 22 -41 -16 -12 -13 -13 23 -7 44 7
70 -8 32 -18 -12 -4 -20 -9 -16 -12 3 -3 17 -1 32 5 15 5 37 10 49 10 20 -1
19 -2 -6 -16 -16 -9 -27 -17 -25 -19 6 -6 78 17 78 25 0 4 -19 13 -42 20 -60
17 -116 52 -167 102 -87 87 -110 167 -118 423 -4 140 -2 200 11 272 35 199 77
267 328 516 104 103 185 187 180 187 -5 0 -30 -18 -55 -41z"/>
<path d="M1336 954 c-27 -80 -39 -210 -33 -359 9 -218 45 -307 170 -421 115
-104 128 -92 20 18 -131 134 -148 169 -162 333 -11 125 -2 328 19 419 14 64 6
69 -14 10z"/>
<path d="M9109 731 c-114 -104 -228 -289 -254 -408 -9 -46 9 -42 23 5 23 75
195 334 285 430 52 54 14 36 -54 -27z"/>
</g>
</svg>
