<?xml version="1.0" standalone="no"?>
<!DOCTYPE svg PUBLIC "-//W3C//DTD SVG 20010904//EN"
 "http://www.w3.org/TR/2001/REC-SVG-20010904/DTD/svg10.dtd">
<svg version="1.0" xmlns="http://www.w3.org/2000/svg"
 width="3142.000000pt" height="2465.000000pt" viewBox="0 0 3142.000000 2465.000000"
 preserveAspectRatio="xMidYMid meet">
<metadata>
Created by potrace 1.16, written by Peter Selinger 2001-2019
</metadata>
<g transform="translate(0.000000,2465.000000) scale(0.100000,-0.100000)"
fill="#000000" stroke="none">
<path d="M25787 24399 c-37 -5 -507 -135 -1045 -288 -537 -154 -1107 -316
-1267 -360 -159 -44 -443 -123 -630 -175 -385 -107 -1579 -440 -2305 -642
-267 -75 -912 -255 -1435 -400 -522 -146 -1265 -353 -1650 -460 -655 -183
-986 -275 -1650 -460 -148 -42 -364 -102 -480 -134 -245 -69 -1515 -423 -2080
-580 -730 -203 -4919 -1371 -5220 -1455 -538 -151 -2561 -714 -2930 -816 -435
-120 -437 -121 -452 -156 -36 -79 17 -61 -963 -338 -1651 -468 -1782 -505
-1849 -532 -177 -69 -346 -206 -456 -370 -25 -38 -112 -129 -221 -231 -391
-368 -715 -735 -803 -911 l-28 -56 37 -135 c1419 -5106 2989 -10866 3886
-14260 114 -431 128 -470 231 -630 267 -411 628 -582 1046 -494 67 14 679 187
4922 1394 1892 538 5932 1688 7080 2015 457 130 1136 324 1510 430 681 194
1654 471 3405 970 514 147 1320 376 1790 510 470 134 1559 444 2420 690 861
246 1855 529 2210 630 715 203 885 257 1105 352 262 112 452 230 591 369 341
341 404 811 215 1615 -11 47 -349 1276 -751 2730 -769 2778 -993 3588 -1445
5224 -298 1080 -475 1717 -560 2025 -78 281 -485 1752 -701 2535 -206 745
-333 1203 -430 1555 -36 129 -75 248 -87 265 -289 418 -644 620 -1010 574z
m258 -128 c163 -34 287 -105 439 -251 116 -112 179 -193 220 -282 20 -43 90
-274 169 -563 75 -269 337 -1214 582 -2100 627 -2263 1333 -4814 2060 -7445
243 -880 451 -1632 560 -2025 561 -2025 547 -1972 547 -2080 0 -275 -142 -558
-364 -726 -149 -112 -141 -109 -1483 -489 -682 -193 -1359 -385 -1505 -426
-447 -127 -4436 -1257 -4755 -1348 -165 -46 -1245 -352 -2400 -680 -1155 -327
-2235 -633 -2400 -680 -165 -46 -1245 -352 -2400 -680 -1155 -327 -2266 -642
-2470 -699 -203 -58 -1373 -390 -2600 -737 -1226 -348 -2594 -735 -3040 -862
-445 -126 -853 -241 -905 -256 -84 -23 -113 -26 -245 -26 -163 0 -227 11 -358
65 -210 87 -409 287 -500 504 -14 33 -129 436 -257 895 -127 459 -542 1953
-921 3320 -380 1367 -945 3401 -1255 4520 -311 1119 -766 2757 -1010 3638
-332 1196 -448 1628 -457 1699 -22 189 35 458 112 532 35 34 272 241 399 350
l64 54 461 129 c254 71 837 235 1296 364 459 129 836 232 838 230 3 -2 -30
-56 -73 -120 -70 -105 -76 -118 -62 -134 8 -9 86 -102 174 -207 88 -104 527
-624 975 -1155 1753 -2075 1908 -2260 1904 -2260 -9 0 -3420 -942 -3424 -945
-2 -3 51 -208 119 -457 67 -249 349 -1294 626 -2323 555 -2054 821 -3040 1337
-4944 l342 -1264 685 -394 c377 -217 814 -468 972 -559 l288 -165 307 85 c170
46 596 164 948 261 352 97 703 194 780 215 77 22 739 204 1470 405 732 202
1942 535 2690 741 748 207 1866 515 2485 685 619 171 1604 442 2190 604 586
161 2015 555 3175 875 1161 320 2632 725 3270 901 638 176 1300 358 1470 405
171 47 324 89 342 95 29 9 64 67 431 717 220 389 470 831 556 982 l155 275
-335 1240 c-579 2146 -1512 5598 -1807 6690 -207 763 -288 1050 -298 1049 -14
-1 -2763 -758 -2810 -773 -25 -9 -19 5 76 192 l102 202 17 405 c9 223 19 446
21 495 6 110 22 480 30 670 3 77 8 169 10 205 2 36 7 128 10 205 3 77 8 176
10 220 2 44 7 127 9 185 3 58 8 152 11 210 3 58 12 238 20 400 21 410 25 494
30 580 12 212 15 263 20 355 8 158 15 285 20 350 2 33 7 113 11 177 5 96 9
118 23 122 181 54 1983 566 2001 569 62 11 193 5 275 -12z m-2445 -663 c0 -29
-4 -147 -10 -263 -5 -115 -12 -280 -15 -365 -3 -85 -7 -189 -10 -230 -2 -41
-7 -151 -10 -245 -3 -93 -8 -206 -10 -250 -2 -44 -7 -141 -10 -215 -3 -74 -8
-187 -11 -250 -7 -166 -81 -1942 -95 -2285 -8 -183 -16 -294 -23 -302 -6 -6
-803 -232 -1771 -502 -2117 -589 -5125 -1429 -11600 -3236 l-2169 -605 -22 22
c-11 13 -363 428 -780 923 -417 494 -1071 1268 -1451 1719 -381 451 -691 821
-689 823 4 4 166 51 866 248 1610 455 3520 996 5435 1540 264 75 629 179 810
230 410 117 1709 486 3185 907 1398 398 8154 2327 8270 2361 47 14 91 25 98
26 8 1 12 -16 12 -51z m3415 -7335 c475 -1759 862 -3199 861 -3199 0 -1 -4978
-1373 -11061 -3048 -6083 -1676 -11067 -3049 -11075 -3051 -12 -4 -179 605
-878 3196 -475 1761 -862 3202 -860 3203 5 5 3392 936 3402 936 5 0 21 -14 36
-31 l26 -32 959 267 c5310 1479 10227 2825 14040 3843 l739 198 36 51 c19 29
40 59 45 68 7 12 437 134 1435 410 784 216 1427 391 1428 390 2 -1 392 -1442
867 -3201z"/>
<path d="M25368 23205 c-61 -20 -148 -80 -191 -133 -58 -69 -81 -141 -82 -252
0 -87 3 -101 32 -163 39 -82 110 -155 190 -193 52 -26 69 -28 163 -29 97 0
110 2 170 31 307 145 302 577 -7 722 -71 33 -199 41 -275 17z"/>
<path d="M2573 16676 c-144 -47 -248 -170 -275 -324 -21 -122 25 -254 119
-343 29 -28 79 -62 110 -77 52 -24 70 -27 163 -27 92 0 112 4 160 26 85 40
144 99 187 187 36 73 38 80 38 176 0 93 -3 107 -32 168 -40 84 -107 152 -193
192 -53 25 -80 31 -150 33 -53 2 -101 -2 -127 -11z"/>
<path d="M29332 9739 c-162 -32 -282 -159 -313 -332 -16 -85 -2 -165 44 -250
118 -223 420 -274 606 -102 169 155 174 413 11 575 -54 55 -105 84 -187 105
-63 16 -95 17 -161 4z"/>
<path d="M6220 3509 c-145 -28 -267 -145 -306 -294 -75 -278 185 -549 464
-485 75 18 135 52 198 115 84 83 108 145 108 280 1 87 -3 107 -25 155 -49 105
-150 191 -254 219 -61 16 -135 20 -185 10z"/>
<path d="M21807 22386 c-139 -38 -237 -181 -224 -326 10 -115 81 -217 181
-262 77 -34 182 -32 258 5 234 115 237 442 5 557 -73 36 -150 45 -220 26z"/>
<path d="M19989 19607 c-141 -40 -228 -143 -237 -283 -6 -94 15 -158 75 -224
25 -28 69 -63 97 -78 44 -23 63 -27 136 -27 73 0 92 4 136 27 108 56 168 156
168 278 0 128 -58 227 -167 279 -74 36 -145 45 -208 28z"/>
<path d="M7644 18436 c-148 -69 -221 -247 -164 -400 78 -207 352 -263 509
-106 91 91 114 226 60 351 -27 63 -112 141 -175 163 -71 24 -168 21 -230 -8z"/>
<path d="M10852 17041 c-67 -23 -142 -95 -173 -165 -32 -71 -31 -180 1 -254
61 -140 224 -213 374 -168 122 37 216 163 216 290 -1 224 -207 370 -418 297z"/>
<path d="M21088 16259 c-48 -5 -132 -18 -185 -29 -86 -17 -10478 -2908 -10643
-2961 -246 -78 -488 -223 -683 -409 -309 -295 -503 -668 -562 -1081 -19 -135
-19 -396 0 -524 33 -219 82 -380 171 -559 278 -558 822 -943 1438 -1017 135
-16 422 -6 546 20 121 25 10504 2919 10665 2972 397 133 713 372 940 714 371
556 422 1233 138 1835 -324 687 -1070 1112 -1825 1039z m517 -59 c753 -150
1333 -764 1440 -1526 15 -105 21 -371 10 -454 -85 -640 -443 -1152 -1000
-1427 -129 -64 -224 -95 -705 -229 -250 -69 -606 -168 -790 -219 -184 -52
-749 -209 -1255 -350 -506 -141 -1192 -332 -1525 -425 -333 -93 -1172 -327
-1865 -520 -693 -193 -1354 -378 -1470 -410 -115 -32 -428 -119 -695 -194
-267 -74 -944 -263 -1505 -419 -561 -157 -1063 -292 -1115 -301 -479 -84 -996
44 -1390 344 -489 373 -758 970 -709 1575 58 736 540 1359 1230 1589 57 19
421 123 809 231 388 108 840 234 1005 280 334 94 2600 725 3215 896 217 61
629 176 915 255 845 236 3193 891 3420 954 116 32 431 120 700 195 527 147
638 173 785 183 141 10 369 -3 495 -28z"/>
<path d="M20895 15829 c-242 -29 -474 -116 -675 -253 -100 -69 -282 -246 -354
-345 -230 -320 -328 -695 -281 -1072 45 -356 180 -634 429 -885 211 -212 429
-332 736 -405 129 -31 458 -34 590 -6 309 67 551 197 765 412 228 228 363 491
420 820 19 107 21 327 5 444 -87 639 -560 1143 -1193 1272 -117 23 -326 32
-442 18z m-98 -89 c17 -10 36 -27 42 -38 5 -10 29 -114 53 -230 l43 -212 -20
-38 c-47 -88 -212 -102 -255 -22 -14 26 -90 396 -90 436 0 88 145 154 227 104z
m789 -562 c7 -25 -12 -56 -49 -78 -42 -26 -62 -25 -126 7 -99 51 -114 113 -54
221 l37 66 93 -99 c51 -55 96 -107 99 -117z m-1463 -210 c198 -106 227 -130
227 -191 0 -37 -43 -120 -76 -146 -49 -38 -82 -29 -278 75 -100 52 -191 107
-203 120 -43 47 -23 155 39 210 56 52 78 46 291 -68z m1795 -241 c27 -45 59
-100 70 -123 l21 -40 -33 -12 c-48 -18 -100 -15 -128 8 -14 10 -35 43 -48 71
-30 70 -23 123 20 162 17 15 35 25 40 22 5 -3 31 -43 58 -88z m-1688 -615 c52
-53 68 -159 31 -211 -23 -32 -35 -36 -324 -121 -119 -35 -160 -35 -201 3 -31
28 -60 118 -52 161 11 60 46 80 246 139 219 65 259 69 300 29z m1865 -110
c111 -71 141 -94 147 -118 5 -16 11 -84 15 -151 l6 -123 -24 -2 c-13 0 -35 0
-49 1 -24 2 -333 194 -377 234 -13 11 -25 37 -29 63 -12 82 67 184 142 184 21
0 72 -27 169 -88z m-1417 -418 c57 -28 84 -66 84 -118 0 -45 -171 -396 -207
-424 -81 -64 -251 29 -232 127 3 14 46 112 95 216 96 202 114 225 178 225 16
0 54 -12 82 -26z m753 -81 c32 -37 134 -417 125 -468 -11 -59 -86 -105 -174
-105 -23 0 -42 9 -66 33 -31 29 -38 49 -85 233 -28 110 -51 212 -51 227 0 93
185 153 251 80z"/>
<path d="M16805 14455 c-918 -254 -2097 -580 -2620 -724 -522 -145 -952 -264
-953 -266 -9 -8 584 -2178 596 -2182 11 -5 446 114 2902 793 371 102 1054 291
1518 419 463 128 845 234 848 237 2 3 -31 137 -75 299 -92 339 -95 352 -316
1169 -214 792 -192 720 -213 719 -9 -1 -768 -209 -1687 -464z"/>
<path d="M11125 13139 c-196 -20 -338 -60 -512 -145 -152 -75 -267 -158 -398
-289 -208 -207 -340 -450 -407 -746 -20 -91 -23 -131 -23 -314 0 -165 4 -228
18 -295 185 -866 1026 -1384 1866 -1150 520 146 935 596 1053 1143 30 141 32
453 4 602 -102 545 -493 974 -1038 1139 -168 51 -390 73 -563 55z m-140 -83
c18 -8 40 -25 49 -38 17 -26 96 -388 96 -439 0 -73 -69 -124 -167 -124 -42 0
-82 26 -104 67 -5 9 -27 109 -49 222 -37 186 -39 209 -27 238 18 42 31 53 92
71 64 20 69 20 110 3z m745 -435 c55 -46 100 -89 100 -95 0 -6 -16 -34 -35
-63 -57 -84 -118 -93 -207 -28 -54 40 -76 93 -58 140 20 52 75 136 87 133 7
-2 58 -41 113 -87z m-1396 -349 c106 -57 188 -108 199 -124 28 -38 26 -97 -7
-152 -15 -26 -38 -53 -51 -62 -49 -32 -83 -23 -266 75 -190 101 -239 141 -239
193 0 63 65 161 113 171 40 8 71 -4 251 -101z m1896 -231 c38 -65 70 -123 70
-128 0 -14 -150 -63 -193 -63 -49 0 -84 35 -110 109 -22 63 -16 99 21 134 23
21 110 65 134 66 4 1 39 -52 78 -118z m-1795 -621 c27 -25 55 -98 55 -141 0
-38 -18 -76 -46 -94 -40 -26 -416 -127 -450 -121 -80 15 -132 151 -87 226 22
38 31 42 243 105 201 59 244 63 285 25z m1756 -43 c24 -13 97 -59 163 -102
l119 -78 -5 -134 c-3 -74 -9 -137 -12 -141 -4 -3 -24 -6 -44 -6 -30 0 -72 22
-220 118 -100 65 -187 127 -194 139 -31 59 14 175 83 209 45 23 57 23 110 -5z
m-1311 -485 c40 -20 59 -37 74 -66 18 -37 18 -40 2 -90 -10 -28 -54 -125 -99
-216 -75 -150 -85 -167 -120 -184 -33 -16 -45 -17 -76 -7 -58 17 -104 52 -125
95 l-18 38 27 66 c15 37 59 132 99 212 61 125 76 147 106 162 47 24 65 22 130
-10z m727 -62 c18 -10 39 -29 47 -42 19 -28 106 -387 106 -435 0 -63 -75 -113
-172 -113 -27 0 -46 8 -69 28 -27 25 -36 48 -84 235 -56 215 -58 242 -22 291
13 18 107 55 142 56 11 0 34 -9 52 -20z"/>
</g>
</svg>
