<?xml version="1.0" standalone="no"?>
<!DOCTYPE svg PUBLIC "-//W3C//DTD SVG 20010904//EN"
 "http://www.w3.org/TR/2001/REC-SVG-20010904/DTD/svg10.dtd">
<svg version="1.0" xmlns="http://www.w3.org/2000/svg"
 width="2616.000000pt" height="3328.000000pt" viewBox="0 0 2616.000000 3328.000000"
 preserveAspectRatio="xMidYMid meet">
<metadata>
Created by potrace 1.16, written by Peter Selinger 2001-2019
</metadata>
<g transform="translate(0.000000,3328.000000) scale(0.100000,-0.100000)"
fill="#ffffff" stroke="none">
<path d="M19418 33269 c-1954 -83 -3590 -815 -4919 -2204 -474 -495 -922
-1109 -1255 -1718 l-59 -107 -6 637 c-7 685 -10 732 -63 914 -128 442 -480
736 -932 779 -312 29 -613 -80 -839 -305 -162 -161 -274 -374 -320 -607 -26
-129 -33 -625 -23 -1533 5 -440 7 -968 6 -1174 l-3 -374 -196 -33 c-2608 -442
-4996 -1827 -6607 -3832 -1321 -1644 -2135 -3593 -2366 -5662 -53 -467 -60
-618 -61 -1190 0 -557 9 -732 55 -1153 l19 -170 -66 -156 c-293 -697 -486
-1378 -578 -2046 -48 -349 -67 -827 -46 -1153 37 -574 148 -1076 347 -1560 35
-86 64 -160 64 -165 0 -4 -334 -517 -741 -1140 -408 -623 -751 -1152 -762
-1177 -34 -76 -47 -141 -47 -237 0 -216 115 -404 306 -497 62 -30 154 -52 804
-190 91 -19 334 -71 540 -115 206 -44 852 -182 1435 -306 950 -203 1209 -258
1835 -391 96 -20 176 -38 178 -39 2 -2 -673 -1251 -1500 -2776 -826 -1526
-1513 -2801 -1527 -2834 -29 -72 -40 -228 -22 -316 28 -132 127 -276 242 -350
155 -99 383 -113 543 -32 28 14 863 534 1856 1156 1924 1204 2026 1268 2080
1303 19 12 195 122 390 245 195 122 527 329 737 460 210 132 388 242 396 245
12 4 10 -15 -9 -108 -13 -62 -55 -268 -94 -458 -39 -190 -77 -374 -83 -410
l-12 -64 -120 -13 c-383 -41 -381 -40 -424 -68 -49 -33 -91 -111 -91 -169 0
-51 39 -136 74 -164 48 -37 91 -45 200 -38 56 4 115 9 131 11 17 2 120 13 230
25 248 25 245 25 295 61 57 41 71 80 119 314 22 110 72 355 111 545 39 190 93
458 121 595 28 138 56 255 62 261 7 7 813 513 1792 1126 l1780 1115 350 6
c645 13 1107 53 1681 147 572 94 1050 212 1603 395 140 47 256 84 257 82 1 -1
31 -146 67 -322 80 -391 391 -1907 492 -2400 41 -198 94 -461 119 -585 25
-124 76 -378 115 -565 38 -187 81 -398 96 -470 31 -154 47 -196 92 -235 44
-39 75 -46 308 -70 110 -12 216 -23 235 -25 210 -22 227 -22 289 7 80 38 126
146 101 237 -14 55 -70 116 -123 135 -34 12 -412 56 -478 56 -23 0 -23 1 -73
253 -25 122 -70 344 -101 492 -161 774 -745 3629 -745 3640 0 6 53 32 118 59
348 145 827 384 1177 586 880 509 1634 1094 2355 1826 633 643 1142 1300 1603
2069 l144 240 74 -5 c154 -10 645 -5 759 8 488 57 952 207 1337 433 397 233
788 579 1054 931 490 650 588 1377 289 2138 -57 143 -151 334 -231 465 l-55
90 412 1200 c380 1105 413 1205 414 1267 0 129 -61 232 -170 287 -79 39 -149
47 -227 27 -34 -8 -75 -24 -92 -34 -18 -11 -381 -331 -808 -712 -541 -483
-780 -690 -789 -684 -7 5 -83 63 -171 130 -141 108 -383 282 -421 303 -11 6
-18 53 -28 192 -139 1917 -767 3751 -1812 5294 -568 838 -1272 1615 -2061
2274 -1257 1048 -2731 1802 -4301 2199 -87 22 -93 20 125 57 1031 178 2067
468 2970 830 340 137 544 228 900 405 1488 739 2652 1707 3533 2938 151 211
268 413 298 517 51 176 -6 432 -127 569 -92 104 -179 142 -524 230 -1038 263
-2048 376 -3007 335z m1022 -584 c474 -40 829 -92 1300 -190 178 -37 759 -181
768 -190 14 -14 -168 -301 -308 -486 -19 -26 -44 -59 -55 -75 -63 -88 -321
-396 -435 -519 -113 -121 -321 -330 -450 -451 -87 -81 -427 -373 -507 -434
-18 -14 -67 -52 -110 -84 -43 -33 -80 -63 -83 -66 -3 -3 -21 -17 -40 -30 -19
-14 -39 -28 -45 -33 -49 -41 -365 -259 -505 -349 -52 -33 -111 -71 -130 -83
-92 -59 -250 -155 -254 -155 -3 0 -34 -17 -68 -38 -59 -36 -94 -56 -273 -154
-112 -62 -598 -300 -745 -366 -1431 -638 -3075 -1033 -4850 -1167 -401 -30
-455 -33 -459 -29 -7 7 115 336 201 539 75 177 252 538 353 720 747 1346 1784
2375 3005 2980 603 298 1219 492 1905 599 246 38 414 55 795 80 135 9 818 -4
990 -19z m-7264 -5605 c1301 -75 2493 -368 3683 -904 146 -66 379 -181 491
-241 52 -29 124 -68 160 -87 221 -119 443 -252 725 -436 148 -97 423 -288 435
-303 3 -3 50 -39 105 -80 124 -91 418 -327 474 -380 9 -8 65 -58 126 -110 200
-172 576 -541 775 -759 52 -58 100 -109 106 -115 10 -9 147 -171 199 -234 11
-14 36 -43 55 -65 20 -23 47 -57 62 -76 14 -19 36 -46 48 -60 12 -14 54 -68
94 -120 39 -52 74 -99 79 -105 60 -75 269 -373 398 -570 588 -894 1047 -1934
1319 -2989 324 -1253 408 -2549 250 -3846 -20 -160 -55 -403 -65 -446 -3 -14
-29 -32 -82 -56 -43 -20 -231 -107 -418 -193 -187 -86 -360 -166 -385 -177
-25 -12 -87 -40 -138 -64 -52 -24 -95 -44 -97 -44 -1 0 -52 -23 -111 -51 -60
-28 -221 -103 -359 -166 -137 -64 -279 -129 -315 -145 -36 -17 -177 -82 -315
-145 -137 -64 -277 -128 -310 -143 -33 -15 -85 -39 -115 -52 -177 -82 -277
-128 -408 -189 -46 -22 -85 -39 -86 -39 -2 0 -62 -28 -132 -61 -71 -34 -167
-78 -214 -99 -47 -21 -121 -55 -165 -75 -209 -98 -246 -115 -249 -115 -2 0
-62 -27 -132 -61 -71 -34 -178 -84 -239 -111 -60 -28 -137 -63 -170 -78 -179
-83 -234 -108 -380 -175 -88 -40 -200 -92 -250 -115 -49 -23 -110 -51 -135
-62 -25 -11 -72 -33 -105 -48 -57 -26 -98 -45 -275 -127 -41 -20 -97 -46 -125
-58 -93 -43 -190 -87 -320 -147 -71 -33 -155 -71 -185 -85 -30 -14 -89 -41
-130 -60 -41 -20 -100 -47 -130 -60 -68 -31 -149 -69 -263 -122 -49 -22 -90
-41 -92 -41 -2 0 -69 -31 -150 -70 -81 -39 -149 -70 -151 -70 -3 0 -61 -27
-131 -60 -69 -33 -127 -60 -129 -60 -2 0 -36 -15 -76 -34 -114 -53 -220 -102
-393 -181 -88 -40 -213 -98 -279 -129 -65 -31 -119 -56 -121 -56 -2 0 -50 -22
-107 -49 -56 -26 -213 -99 -348 -161 -135 -61 -267 -122 -295 -135 -27 -13
-75 -34 -105 -48 -30 -13 -89 -40 -130 -60 -41 -19 -124 -58 -185 -85 -60 -28
-163 -75 -229 -106 -65 -31 -119 -56 -121 -56 -2 0 -51 -23 -109 -50 -58 -28
-110 -50 -115 -50 -5 0 -25 30 -44 68 -20 37 -53 99 -74 138 -21 39 -173 325
-338 635 -291 547 -302 566 -370 634 -113 114 -236 166 -390 166 -44 0 -442
-41 -885 -90 -2814 -316 -6547 -731 -6569 -731 -22 0 -35 14 -80 88 -30 48
-71 114 -92 147 -20 33 -46 76 -57 95 -11 19 -44 78 -74 130 -171 298 -288
529 -463 915 -58 129 -156 370 -233 575 -658 1763 -812 3713 -441 5575 181
908 463 1732 873 2555 299 599 600 1080 1039 1663 57 77 225 288 237 297 3 3
28 32 55 65 286 344 700 771 1009 1040 38 33 74 65 80 70 16 15 168 146 197
170 44 36 224 180 250 200 640 489 1137 799 1804 1126 1209 593 2541 941 3895
1018 215 12 951 13 1156 1z m10420 -10267 c71 -54 129 -103 129 -110 0 -9
-279 -267 -280 -259 -5 20 9 466 15 466 4 0 65 -44 136 -97z m1587 -1821 c307
-731 186 -1359 -380 -1987 -98 -108 -281 -278 -418 -387 -470 -373 -1014 -580
-1650 -628 -155 -11 -350 -13 -406 -4 l-37 6 109 222 c113 233 253 554 335
770 30 80 56 133 69 141 11 7 427 201 925 431 498 229 924 430 947 446 23 16
56 48 72 72 20 28 85 206 195 527 92 266 168 490 171 497 9 24 23 3 68 -106z
m-2306 -113 l12 -31 -57 -25 c-31 -14 -3084 -1422 -6784 -3129 -3699 -1707
-6732 -3104 -6738 -3104 -7 0 -23 9 -37 20 l-25 20 98 45 c55 25 3114 1438
6799 3139 3685 1702 6705 3094 6710 3095 6 1 16 -13 22 -30z m-20857 -339
c249 -1126 671 -2206 1237 -3164 35 -59 63 -109 61 -111 -2 -1 -237 -28 -523
-59 -286 -31 -550 -63 -587 -71 -121 -26 -241 -100 -310 -191 -22 -30 -44 -52
-48 -49 -11 7 -104 292 -138 425 -232 900 -196 1871 109 2935 49 170 149 478
154 473 2 -2 22 -87 45 -188z m20687 -74 l11 -35 -95 -43 c-53 -24 -3012
-1389 -6576 -3034 l-6481 -2990 -42 15 c-24 9 -40 18 -36 22 4 3 2946 1362
6537 3019 3592 1657 6559 3028 6595 3046 36 18 68 33 71 34 3 0 10 -15 16 -34z
m-207 -438 c0 -7 3 -22 6 -34 5 -18 -4 -25 -58 -49 -35 -15 -443 -202 -908
-416 l-845 -389 -67 7 -68 6 938 432 c515 237 946 436 957 443 26 15 45 15 45
0z m-177 -395 c2 -10 8 -25 11 -33 5 -12 -9 -22 -51 -42 -32 -15 -215 -99
-406 -187 l-348 -160 -34 17 c-19 9 -35 19 -35 22 0 3 152 75 338 160 185 85
375 174 422 197 100 49 96 48 103 26z m-213 -507 c15 -28 20 -12 -71 -227
-138 -328 -368 -805 -392 -814 -11 -5 -163 28 -172 36 -2 2 -5 69 -6 149 l-3
145 79 150 c43 83 81 155 85 160 22 30 50 132 50 181 l0 55 83 38 c45 21 102
48 127 59 25 11 79 36 120 56 41 20 77 36 81 36 3 0 12 -11 19 -24z m-2260
-340 l-40 -53 -3293 -1516 c-1810 -834 -4050 -1865 -4975 -2291 l-1684 -775
-23 27 -23 26 37 17 c33 15 7349 3384 8306 3824 231 107 713 329 1070 494 358
165 654 300 658 300 4 1 -11 -23 -33 -53z m-160 -379 c0 -13 -6 -31 -12 -40
-10 -12 -9315 -4317 -9615 -4448 l-43 -18 -15 30 -16 30 43 19 c24 10 2203
1016 4843 2234 2640 1219 4803 2216 4808 2216 4 0 7 -10 7 -23z m33 -450 c78
-226 231 -402 442 -507 375 -187 802 -105 1084 207 l59 65 56 -13 c64 -14 74
-23 53 -47 -8 -9 -30 -44 -48 -77 -18 -33 -54 -93 -81 -134 -26 -41 -48 -75
-48 -77 0 -8 -297 -444 -344 -506 -28 -36 -59 -77 -68 -90 -9 -12 -38 -52 -65
-87 -26 -36 -63 -85 -82 -110 -19 -25 -37 -48 -40 -51 -3 -3 -18 -21 -33 -42
-15 -20 -36 -44 -45 -54 -10 -9 -25 -27 -33 -39 -12 -19 -209 -252 -245 -291
-5 -6 -50 -55 -100 -110 -217 -237 -315 -337 -541 -550 -231 -219 -346 -320
-579 -512 -11 -10 -37 -29 -57 -44 -20 -15 -42 -34 -50 -41 -13 -13 -389 -296
-438 -330 -48 -33 -516 -342 -535 -354 -442 -264 -481 -285 -860 -473 -1095
-543 -2261 -876 -3498 -999 -100 -10 -184 -17 -185 -15 -2 1 13 13 35 26 375
233 517 324 559 360 105 88 181 242 191 389 10 134 -17 216 -154 469 -22 41
-84 158 -138 260 -54 102 -105 199 -115 215 -10 17 -43 80 -75 140 -32 61 -72
137 -90 170 -18 33 -51 94 -72 135 -22 41 -68 128 -102 193 -35 65 -61 120
-60 122 5 4 309 145 314 145 1 0 49 22 106 49 57 26 129 60 159 74 30 13 208
96 395 182 187 87 384 177 438 201 54 25 150 69 214 99 63 30 117 55 118 55 2
0 43 19 92 41 48 23 115 54 148 69 33 15 89 41 125 58 36 16 180 83 320 147
140 65 289 133 330 152 41 20 129 60 195 90 66 30 147 67 180 83 33 15 263
121 510 235 491 225 614 282 810 373 72 33 162 75 200 92 67 30 110 51 270
125 58 27 676 311 880 405 33 15 94 43 135 62 41 19 109 50 150 69 41 18 95
44 120 56 25 12 50 22 55 22 6 1 23 -36 38 -82z m-11015 -3616 l-10 -39 -396
-182 c-219 -101 -400 -185 -404 -187 -4 -2 -14 10 -23 27 -16 31 -16 31 17 45
18 7 209 95 423 194 215 99 393 181 396 181 4 0 2 -18 -3 -39z m-358 -480 c0
-4 -5 -22 -11 -38 -9 -27 -28 -39 -155 -97 -80 -37 -151 -69 -158 -72 -13 -5
-41 44 -31 55 10 10 329 159 343 160 6 1 12 -3 12 -8z"/>
<path d="M8385 19284 c-339 -48 -587 -147 -828 -331 -430 -327 -677 -887 -628
-1417 30 -311 136 -595 310 -826 316 -421 783 -660 1296 -662 271 -1 509 54
747 173 67 34 264 159 278 178 3 3 41 38 84 76 86 76 208 222 273 325 262 420
322 912 167 1380 -183 553 -653 966 -1230 1080 -105 21 -389 35 -469 24z m839
-684 c86 -29 143 -66 206 -129 200 -205 199 -524 -4 -727 -205 -205 -527 -205
-731 1 -298 300 -137 797 285 879 51 10 186 -3 244 -24z m-1016 -1249 c103
-52 150 -184 103 -286 -70 -151 -261 -181 -372 -58 -47 52 -63 101 -56 171 16
155 185 244 325 173z"/>
<path d="M16772 19280 c-244 -31 -502 -128 -706 -265 -114 -77 -126 -87 -236
-195 -254 -248 -408 -549 -466 -909 -19 -115 -21 -355 -4 -466 113 -765 724
-1336 1491 -1395 371 -28 751 79 1059 298 125 88 299 263 382 382 190 275 283
551 295 880 21 576 -259 1110 -749 1426 -175 113 -379 191 -613 234 -80 15
-362 21 -453 10z m821 -665 c232 -49 407 -266 407 -504 0 -147 -48 -260 -154
-367 -104 -103 -224 -154 -366 -154 -307 0 -555 284 -512 585 27 184 155 349
323 416 104 40 192 48 302 24z m-1008 -1246 c55 -14 122 -70 146 -123 65 -144
-45 -316 -201 -316 -70 0 -124 25 -172 78 -107 118 -56 302 99 358 47 16 72
17 128 3z"/>
<path d="M11260 13711 c-112 -36 -167 -116 -158 -227 4 -46 14 -68 64 -142
132 -195 340 -427 479 -533 305 -234 586 -334 1013 -361 216 -14 505 0 666 32
470 93 807 327 1160 805 94 127 109 163 104 236 -8 112 -97 194 -208 193 -79
-1 -127 -29 -180 -106 -103 -148 -171 -230 -280 -338 -152 -152 -251 -225
-398 -292 -198 -90 -331 -112 -677 -112 -298 0 -394 11 -557 65 -284 93 -556
321 -788 664 -55 80 -97 110 -170 119 -25 3 -56 1 -70 -3z"/>
</g>
</svg>
