<?xml version="1.0" standalone="no"?>
<!DOCTYPE svg PUBLIC "-//W3C//DTD SVG 20010904//EN"
 "http://www.w3.org/TR/2001/REC-SVG-20010904/DTD/svg10.dtd">
<svg version="1.0" xmlns="http://www.w3.org/2000/svg"
 width="4000.000000pt" height="4000.000000pt" viewBox="0 0 4000.000000 4000.000000"
 preserveAspectRatio="xMidYMid meet">
<metadata>
Created by potrace 1.16, written by Peter Selinger 2001-2019
</metadata>
<g transform="translate(0.000000,4000.000000) scale(0.100000,-0.100000)"
fill="#ffffff" stroke="none">
<path d="M26025 36480 c-137 -36 -221 -85 -334 -194 -113 -110 -185 -219 -226
-346 -20 -61 -28 -70 -65 -70 -44 0 -124 -46 -173 -99 -90 -96 -135 -238 -108
-338 24 -90 123 -173 221 -187 49 -7 119 11 157 40 l33 25 -19 -48 c-10 -26
-39 -88 -64 -138 -69 -137 -77 -214 -32 -308 17 -37 17 -38 -3 -60 -32 -35
-63 -104 -167 -372 -53 -137 -101 -260 -105 -272 -9 -22 -9 -22 -59 11 -113
77 -401 117 -615 86 -38 -6 -70 -9 -72 -7 -2 2 -15 43 -29 93 -66 226 -171
336 -337 351 -128 12 -288 -48 -383 -142 -131 -131 -165 -338 -74 -448 65 -79
205 -116 368 -97 80 10 260 49 340 75 16 5 24 -2 42 -36 49 -97 165 -181 320
-233 81 -27 238 -56 305 -56 l42 0 -40 -127 c-71 -227 -142 -349 -231 -392
-52 -25 -119 -28 -332 -17 -148 7 -221 3 -306 -19 -25 -6 -26 -4 -73 136 -26
79 -61 169 -78 202 -38 77 -113 151 -186 185 -52 25 -68 27 -177 27 -98 0
-134 -4 -195 -23 -202 -63 -342 -193 -410 -382 -84 -228 -49 -458 93 -608 87
-91 178 -133 292 -134 133 -1 216 44 416 224 68 61 146 129 173 151 l50 39 20
-29 c42 -59 126 -139 180 -171 30 -19 106 -56 168 -84 62 -27 137 -61 167 -74
l54 -24 -45 -29 c-137 -87 -181 -301 -99 -476 38 -81 95 -142 175 -189 37 -22
65 -44 63 -50 -31 -83 -937 -2847 -1517 -4631 -597 -1836 -552 -1700 -554
-1702 -1 -1 -89 15 -196 37 -223 44 -356 65 -555 85 -189 19 -702 14 -870 -9
-532 -72 -998 -218 -1530 -481 -513 -254 -922 -541 -1275 -895 -246 -246 -412
-459 -570 -734 -379 -659 -630 -1675 -630 -2551 0 -244 17 -443 60 -704 48
-288 46 -410 -4 -509 -29 -57 -71 -97 -198 -190 -81 -60 -99 -77 -109 -110 -9
-32 -8 -44 5 -70 19 -37 50 -54 222 -121 200 -78 340 -174 546 -373 73 -70 97
-100 100 -123 3 -34 -8 -260 -17 -345 -55 -495 -204 -996 -459 -1540 -165
-353 -323 -606 -607 -975 -247 -320 -330 -455 -380 -615 -12 -41 -26 -79 -30
-83 -4 -5 -24 2 -45 16 -91 56 -251 140 -340 177 -127 53 -229 80 -524 139
-135 27 -302 67 -371 90 -69 23 -142 41 -161 41 -72 0 -116 -71 -103 -168 4
-26 17 -110 30 -187 72 -428 60 -461 -366 -969 -552 -656 -785 -962 -1039
-1366 -173 -274 -383 -679 -488 -941 -431 -1070 -548 -2387 -301 -3374 249
-991 901 -1755 1969 -2307 252 -130 509 -242 1097 -477 459 -183 675 -276 854
-367 159 -80 296 -165 305 -189 13 -32 -183 -369 -317 -548 -325 -434 -879
-755 -1919 -1112 -190 -65 -313 -97 -455 -119 -315 -49 -909 -79 -2045 -106
-228 -5 -509 -12 -625 -15 -115 -3 -327 -7 -470 -10 -143 -3 -377 -7 -520 -10
-370 -7 -742 -14 -1095 -20 -168 -3 -438 -7 -600 -10 -162 -3 -578 -10 -925
-15 -346 -5 -763 -12 -925 -15 -422 -7 -871 -14 -1625 -25 -363 -5 -804 -12
-980 -15 -176 -3 -480 -7 -675 -10 -195 -3 -499 -7 -675 -10 -176 -3 -662 -10
-1080 -15 -418 -5 -850 -12 -960 -15 -110 -3 -318 -5 -463 -6 l-262 0 0 -71 0
-70 298 6 c163 3 473 8 687 11 386 5 767 11 1375 20 173 3 486 7 695 10 209 3
517 7 685 10 363 6 693 11 1995 30 539 8 1106 17 1260 20 154 3 435 7 625 10
190 3 467 7 615 10 149 3 407 7 575 10 1507 26 2309 41 2640 50 113 3 288 7
390 10 901 23 1198 34 1620 61 299 18 544 50 692 89 194 50 685 227 978 352
501 214 819 413 1088 679 83 84 152 150 152 149 0 -2 -6 -38 -14 -81 -24 -131
-28 -195 -17 -283 19 -148 76 -238 187 -292 59 -29 70 -31 143 -27 61 4 88 10
123 31 154 90 231 306 237 658 3 179 -22 353 -64 453 -7 15 -1 13 36 -9 111
-70 192 -140 529 -460 403 -381 538 -498 755 -651 343 -243 704 -398 1080
-464 287 -50 384 -54 1285 -55 465 0 1093 4 1395 8 303 4 840 12 1195 17 2027
29 3497 35 10027 35 l6733 0 0 66 0 66 -4079 7 c-2244 4 -4835 5 -5758 2 -923
-3 -2366 -8 -3208 -11 -841 -3 -1640 -7 -1775 -10 -135 -2 -398 -5 -585 -5
-324 -1 -1205 -12 -2055 -25 -217 -3 -674 -10 -1015 -15 -993 -15 -1613 -10
-1865 15 -509 52 -852 176 -1265 456 -207 140 -371 281 -760 649 -137 131
-285 268 -328 306 -171 150 -318 244 -405 259 -27 4 -51 18 -75 43 l-35 37 72
155 c39 85 119 261 176 392 58 130 106 235 108 233 1 -1 -2 -33 -8 -71 -103
-631 125 -953 780 -1098 584 -130 1677 -111 2595 45 714 120 1241 304 1655
577 390 256 667 545 995 1037 506 759 778 1459 899 2315 59 411 85 915 67
1312 -13 315 -29 466 -91 908 -59 419 -69 558 -46 688 30 174 94 304 241 492
99 126 125 173 125 222 0 61 -36 93 -138 124 -214 63 -318 112 -442 206 -169
126 -360 359 -461 559 -100 199 -149 366 -193 659 -3 19 -9 107 -12 195 -20
491 122 1175 379 1825 249 630 517 981 795 1039 74 15 186 14 279 -4 236 -45
284 -6 343 275 49 241 127 446 274 727 137 262 251 429 411 603 238 260 303
346 383 506 140 277 249 776 277 1269 3 55 8 118 10 140 13 125 16 498 6 700
-55 1105 -301 1781 -892 2451 -367 415 -1028 920 -1539 1174 -127 64 -307 140
-330 140 -5 0 -10 2 -10 5 0 6 91 324 566 1970 643 2229 937 3221 1159 3910
115 360 142 451 165 564 l17 86 61 12 c201 41 260 152 392 741 28 125 54 230
58 233 4 4 68 14 142 22 74 8 176 25 226 38 l91 22 249 -141 c317 -179 401
-219 502 -239 75 -15 87 -15 148 0 173 43 283 182 292 368 7 152 -49 268 -168
348 -89 59 -182 86 -300 86 -117 0 -153 -12 -360 -113 -85 -41 -199 -94 -254
-118 l-99 -42 -86 51 c-173 101 -281 188 -281 226 0 26 98 512 104 518 3 4 74
-6 158 -22 84 -15 189 -31 233 -35 141 -14 283 14 369 74 l29 20 46 -50 c26
-28 82 -95 126 -150 151 -189 208 -237 314 -268 71 -21 95 -20 175 4 176 55
299 278 266 484 -54 337 -356 512 -649 375 -72 -33 -127 -74 -217 -162 l-61
-59 -91 54 c-150 91 -391 158 -569 158 l-63 0 0 78 c0 158 -36 215 -210 333
-58 39 -96 69 -85 65 159 -43 428 -55 545 -23 212 59 414 225 520 428 85 164
87 285 4 358 -43 37 -45 42 -54 117 -12 94 -36 170 -102 323 -28 63 -65 153
-83 200 -121 316 -229 439 -427 486 -84 20 -188 18 -273 -5z m350 -189 c85
-39 131 -119 141 -244 19 -215 -88 -418 -242 -463 -160 -46 -394 67 -434 211
-37 132 63 347 207 446 98 68 242 90 328 50z m-531 -53 c-4 -7 -18 -26 -30
-43 -76 -104 -119 -242 -111 -360 6 -104 33 -162 112 -240 139 -139 366 -191
540 -125 111 43 232 190 266 324 6 25 14 46 18 46 10 0 108 -238 126 -306 8
-32 15 -77 15 -100 0 -38 -2 -42 -30 -48 -111 -22 -229 -120 -256 -213 -39
-134 36 -287 152 -311 l39 -8 -50 -37 c-79 -58 -183 -106 -270 -123 -135 -26
-266 -10 -619 76 -138 34 -164 44 -184 67 -55 66 -55 104 2 219 113 232 151
369 144 522 -4 113 -28 171 -91 229 -46 41 -46 60 7 168 38 79 91 150 168 224
55 53 64 60 52 39z m-386 -607 c16 -123 10 -180 -24 -221 -20 -23 -34 -30 -62
-30 -43 0 -95 29 -113 62 -28 52 -3 158 53 229 24 29 92 70 112 67 18 -3 22
-16 34 -107z m1308 -408 c-26 -109 -79 -229 -101 -227 -19 2 -48 65 -48 105 0
49 35 96 94 126 57 29 63 29 55 -4z m-1169 -595 c31 -24 137 -97 236 -163 99
-66 190 -133 201 -148 18 -24 21 -43 21 -117 0 -49 -2 -90 -5 -93 -3 -2 -26
-8 -52 -11 l-48 -7 10 26 c37 99 -29 259 -129 312 -110 58 -209 8 -288 -143
-15 -30 -31 -54 -34 -54 -3 0 -14 9 -24 20 -24 26 -76 26 -100 0 -31 -34 -18
-97 37 -170 18 -25 18 -26 -13 -102 l-31 -76 -89 -22 c-50 -12 -93 -20 -96
-16 -5 5 50 150 244 646 51 128 69 160 90 160 7 0 39 -19 70 -42z m-1506 -134
c30 -15 82 -72 104 -113 23 -45 66 -204 58 -212 -20 -19 -265 -71 -358 -76
-113 -6 -170 5 -212 41 -25 22 -28 31 -28 88 1 109 68 203 181 255 94 43 192
49 255 17z m1700 -205 c63 -67 58 -154 -12 -189 -59 -31 -169 -26 -169 6 0 22
65 147 95 182 33 40 49 40 86 1z m-935 -224 c96 -20 159 -46 173 -73 11 -21 1
-135 -13 -149 -11 -11 -213 15 -296 38 -98 27 -201 82 -245 130 -19 22 -35 43
-35 49 0 5 15 11 33 14 17 3 43 8 57 10 48 9 247 -3 326 -19z m2659 -49 c62
-29 128 -100 163 -174 24 -50 27 -70 27 -157 0 -89 -3 -105 -27 -151 -50 -96
-117 -144 -198 -144 -85 0 -139 40 -263 195 -45 55 -108 131 -142 169 l-60 68
79 75 c72 68 144 115 206 134 14 4 57 8 95 8 54 1 82 -5 120 -23z m-1056 -55
c105 -23 228 -70 296 -113 l50 -31 -45 -20 c-92 -40 -213 -35 -520 21 l-95 17
10 65 c6 36 13 70 17 75 10 16 190 7 287 -14z m-432 -14 c-3 -8 -8 -40 -12
-71 -7 -52 -11 -60 -46 -83 -136 -90 -194 -384 -118 -598 l22 -60 -38 -180
-38 -180 -89 -96 c-101 -109 -161 -148 -244 -156 -54 -6 -55 -6 -49 18 3 13
10 56 15 94 6 39 16 102 24 140 8 39 12 104 10 145 -3 68 0 83 32 157 41 97
68 225 61 297 -4 46 -1 55 26 86 16 19 42 59 56 90 24 50 26 66 26 184 l0 129
40 14 c71 25 279 82 304 82 15 1 21 -3 18 -12z m-491 -183 c8 -54 0 -125 -19
-160 l-13 -24 -33 47 -33 47 18 54 c32 94 68 111 80 36z m-341 -61 c-26 -64
-22 -160 9 -223 12 -22 7 -41 -39 -170 -40 -113 -61 -158 -98 -205 -26 -33
-58 -83 -71 -110 l-25 -50 -1 35 c-7 152 15 266 107 560 57 180 56 180 94 180
26 0 30 -3 24 -17z m-1499 -151 c47 -24 85 -66 115 -125 22 -41 122 -328 117
-332 -2 -2 -30 -23 -63 -48 -33 -24 -98 -79 -145 -122 -203 -186 -261 -224
-350 -232 -79 -8 -139 16 -206 79 -74 70 -107 147 -112 263 -12 265 145 472
401 531 85 19 191 13 243 -14z m1728 -202 c0 -3 -3 -32 -7 -66 -4 -34 -11 -74
-17 -89 -10 -25 -12 -26 -28 -13 -9 9 -33 23 -52 33 -19 10 -36 18 -38 20 -2
2 34 111 42 123 5 8 102 1 100 -8z m-589 -358 c1 -124 14 -188 62 -293 28 -62
32 -80 24 -101 l-10 -26 -53 17 c-29 9 -96 42 -148 73 -52 30 -153 81 -225
113 -157 69 -251 118 -285 148 -33 30 -80 86 -80 97 0 21 127 27 340 17 180
-9 274 3 335 43 17 11 32 20 35 20 3 0 5 -48 5 -108z m2390 33 c183 -51 265
-227 182 -392 -70 -137 -204 -169 -374 -89 -73 35 -289 153 -431 236 l-62 37
177 87 c309 152 354 163 508 121z m-1211 -44 c12 -10 58 -44 104 -74 46 -30
79 -57 75 -60 -12 -8 -168 -27 -214 -27 l-37 0 19 83 c10 45 19 85 19 90 0 12
13 8 34 -12z m-688 -173 c-8 -53 -62 -196 -86 -228 l-17 -23 -39 23 c-22 13
-53 36 -70 52 l-32 30 16 48 c15 47 16 48 77 65 34 9 82 30 106 46 24 16 46
29 48 29 2 0 1 -19 -3 -42z m373 -473 c-67 -290 -115 -420 -172 -473 -14 -13
-43 -26 -66 -29 l-41 -6 0 80 c0 91 -27 211 -66 290 l-25 52 23 65 c22 64 24
66 58 66 95 1 225 46 295 104 17 13 31 23 32 22 1 -1 -16 -78 -38 -171z m-895
113 c39 -23 54 -38 50 -48 -3 -8 -35 -103 -71 -210 -37 -107 -67 -197 -69
-199 -2 -2 -23 8 -47 23 -84 48 -137 134 -145 232 -8 103 29 182 102 215 63
28 115 24 180 -13z m256 -114 c14 -7 40 -28 58 -46 l32 -34 -15 -43 c-8 -24
-45 -103 -82 -176 l-67 -132 -69 18 c-38 9 -71 19 -73 22 -2 2 28 97 67 210
71 206 71 207 98 201 14 -4 37 -13 51 -20z m220 -345 c5 -35 10 -84 10 -108 0
-40 -2 -43 -22 -38 -13 3 -40 9 -60 12 -21 4 -38 10 -38 13 0 2 17 59 37 125
37 118 38 120 50 90 7 -17 17 -60 23 -94z m-412 -195 c32 -9 58 -18 60 -19 1
-1 -18 -54 -44 -116 -342 -835 -921 -2537 -1869 -5495 l-228 -712 -29 10 c-15
5 -28 15 -28 21 0 18 1147 3541 1622 4982 127 385 279 845 337 1023 58 177
109 322 114 322 5 0 34 -7 65 -16z m345 -75 c41 -9 57 -16 57 -28 0 -9 -11
-63 -24 -121 -25 -108 -36 -144 -200 -658 -220 -691 -543 -1791 -1336 -4542
-176 -613 -325 -1130 -331 -1147 -10 -33 -11 -33 -75 -33 l-64 0 6 43 c71 517
245 1125 1620 5644 201 661 263 853 275 853 9 0 41 -5 72 -11z m-592 -1190
c-33 -107 -189 -619 -346 -1139 -1067 -3519 -1179 -3940 -1174 -4407 1 -132
-3 -168 -35 -338 -211 -1096 -824 -3327 -2261 -8220 -391 -1331 -438 -1490
-445 -1498 -5 -6 -160 53 -177 67 -3 3 163 567 707 2406 1538 5199 1950 6686
2057 7420 23 165 23 379 -1 450 -11 30 -25 64 -33 76 -12 19 4 76 158 555 591
1848 1084 3347 1382 4204 176 504 219 626 223 622 3 -2 -23 -91 -55 -198z
m-2879 -5020 c212 -16 350 -35 578 -79 161 -31 230 -48 230 -56 0 -2 -87 -273
-194 -602 -107 -328 -634 -1951 -1171 -3607 -805 -2481 -1275 -3927 -1838
-5657 -28 -87 -56 -158 -62 -158 -22 0 -393 100 -448 120 -32 12 -69 32 -83
43 l-24 22 24 90 c14 50 56 182 95 295 117 341 192 646 194 790 1 139 -74 320
-174 415 -84 81 -151 109 -267 113 -79 3 -106 0 -175 -22 -137 -42 -257 -126
-365 -255 -91 -109 -208 -296 -295 -471 -124 -247 -153 -326 -332 -895 -81
-258 -154 -444 -255 -650 -126 -257 -203 -366 -298 -422 -64 -38 -156 -63
-230 -63 -73 0 -145 16 -140 31 2 5 53 41 113 81 148 98 170 133 170 263 0 82
-3 97 -33 157 -69 141 -188 181 -449 154 -99 -11 -97 -15 -54 113 50 149 110
244 350 556 346 449 538 776 736 1250 233 561 352 1049 381 1570 11 198 -1
222 -201 406 -190 175 -316 258 -510 336 -71 28 -130 54 -130 56 0 3 36 31 80
64 100 75 149 129 185 205 59 124 63 281 16 560 -51 298 -61 415 -60 713 1
765 183 1592 494 2250 156 332 357 619 625 894 337 346 733 629 1240 886 581
295 1123 457 1685 504 127 11 458 11 592 0z m998 -193 c0 -7 -68 -226 -151
-487 -908 -2855 -2252 -7183 -2859 -9209 -62 -206 -114 -376 -115 -377 -1 -2
-39 11 -86 27 -46 17 -89 32 -96 35 -7 2 10 68 52 197 144 440 1294 3981 2150
6618 504 1554 946 2916 982 3026 l66 202 29 -10 c15 -6 28 -16 28 -22z m92
-284 c-14 -514 -409 -1975 -1868 -6912 -201 -679 -487 -1647 -635 -2150 -149
-503 -271 -915 -272 -916 -1 -1 -72 29 -157 66 -124 55 -155 72 -153 86 4 39
575 1915 1088 3574 569 1842 1031 3318 1602 5125 184 583 346 1097 361 1142
14 46 28 81 31 78 3 -3 4 -45 3 -93z m859 -98 c329 -151 743 -426 1144 -760
161 -134 423 -394 537 -534 458 -561 674 -1136 750 -1990 14 -161 18 -815 6
-1028 -24 -409 -100 -852 -194 -1114 -39 -109 -129 -280 -194 -366 -31 -43
-111 -135 -177 -207 -66 -71 -141 -155 -165 -185 -207 -256 -439 -686 -552
-1024 -19 -56 -48 -168 -65 -247 -16 -80 -35 -157 -40 -172 -12 -32 -23 -33
-146 -11 -111 20 -261 22 -335 5 -218 -53 -413 -218 -588 -497 -315 -505 -603
-1391 -676 -2076 -17 -157 -20 -463 -6 -598 41 -398 188 -776 413 -1055 86
-107 244 -257 340 -323 102 -70 238 -134 365 -171 57 -16 106 -32 108 -34 3
-2 -12 -26 -33 -53 -188 -244 -249 -351 -299 -519 -23 -78 -27 -111 -30 -255
-3 -176 2 -230 61 -630 71 -487 80 -622 79 -1145 0 -304 -5 -458 -18 -595 -49
-532 -128 -937 -262 -1337 -234 -702 -756 -1563 -1206 -1988 -478 -452 -1044
-708 -1913 -865 -148 -26 -450 -71 -570 -84 -299 -32 -544 -51 -760 -57 -1180
-33 -1781 109 -1954 463 -49 100 -64 190 -58 353 7 169 29 298 108 644 l61
265 163 345 c89 191 258 549 375 796 364 773 625 1358 790 1769 77 193 189
502 214 589 l17 57 28 -21 c38 -28 75 -19 101 24 27 44 94 249 254 782 127
426 237 794 755 2544 122 409 222 746 224 747 2 2 57 -8 123 -23 158 -34 294
-36 377 -4 106 41 212 161 302 341 21 41 58 97 82 125 65 74 145 243 203 428
64 203 76 235 129 325 l42 72 57 0 c70 0 127 25 169 73 29 33 52 89 53 127 1
27 38 -32 57 -90 14 -44 18 -86 17 -210 -1 -182 -3 -196 -135 -730 -190 -768
-230 -1008 -225 -1345 3 -204 23 -319 81 -482 92 -258 268 -440 466 -483 80
-18 220 -8 292 19 157 61 251 207 264 410 12 183 -61 315 -180 328 -58 7 -110
-11 -157 -53 -45 -41 -73 -102 -100 -221 -11 -48 -28 -105 -37 -125 -15 -35
-19 -38 -58 -38 -60 0 -152 49 -213 113 -92 98 -121 187 -122 371 -2 236 43
432 245 1077 97 309 134 435 169 574 93 374 82 647 -39 902 -108 229 -258 346
-441 347 -72 0 -90 -4 -147 -32 -162 -80 -257 -285 -192 -416 14 -26 12 -37
-22 -145 -20 -64 -52 -150 -71 -191 -19 -41 -83 -185 -144 -320 -60 -135 -118
-255 -130 -267 -58 -62 -184 -80 -329 -47 -95 21 -239 73 -239 86 0 5 150 521
334 1146 1506 5122 2148 7446 2362 8548 27 139 28 140 53 137 62 -9 128 69
177 205 15 43 31 87 35 99 l8 22 67 -25 c36 -13 111 -45 165 -70z m-5028
-7835 c39 -10 42 -15 28 -37 -6 -10 -39 -14 -117 -15 -104 -2 -112 -4 -172
-36 -151 -82 -306 -330 -455 -726 -24 -66 -84 -246 -131 -400 -121 -391 -195
-609 -272 -803 -80 -203 -195 -440 -264 -543 -134 -203 -334 -307 -574 -297
-83 3 -111 8 -159 31 -125 57 -233 213 -292 421 -23 80 -45 220 -45 287 l0 26
133 8 c168 9 182 8 233 -14 49 -22 78 -68 89 -142 12 -80 -7 -107 -137 -191
-120 -79 -147 -108 -155 -168 -11 -80 53 -140 178 -166 175 -37 371 26 503
160 157 160 345 551 501 1041 184 580 199 620 305 842 160 334 335 570 488
660 106 63 227 87 315 62z m-32 -285 c4 -88 9 -110 38 -168 32 -65 94 -126
128 -126 7 0 13 -4 13 -10 0 -22 -54 -147 -139 -321 -115 -237 -142 -315 -148
-440 -6 -102 8 -168 48 -235 15 -24 19 -51 19 -116 0 -159 57 -302 168 -419
67 -72 198 -166 288 -208 l52 -23 -18 -57 c-89 -272 -539 -1639 -777 -2361
-162 -492 -317 -969 -345 -1060 -75 -250 -92 -356 -67 -443 8 -30 5 -62 -15
-165 -57 -285 -107 -645 -201 -1442 -149 -1263 -208 -1660 -331 -2219 -43
-193 -50 -214 -129 -386 -46 -100 -150 -330 -230 -511 -179 -402 -286 -636
-295 -647 -3 -4 -44 18 -90 49 -173 116 -453 243 -1106 505 -593 237 -734 298
-1034 448 -1059 532 -1699 1275 -1944 2256 -46 184 -78 383 -100 615 -20 201
-15 805 8 1030 75 740 258 1390 563 2000 282 566 629 1067 1232 1780 423 499
485 590 523 764 16 74 4 267 -28 454 -15 89 -25 164 -22 167 2 3 51 -11 109
-30 57 -19 225 -60 374 -90 395 -79 472 -106 742 -258 l162 -92 1 -86 c0 -108
21 -231 61 -357 83 -259 225 -426 413 -484 90 -28 247 -30 350 -5 304 75 464
235 657 658 123 269 192 460 350 964 115 370 162 505 231 665 123 288 253 470
355 498 21 6 58 10 83 9 l45 -2 6 -101z m3265 -779 c117 -69 228 -268 264
-475 16 -92 14 -261 -5 -376 -24 -147 -82 -361 -193 -719 -120 -384 -154 -499
-198 -670 -28 -107 -33 -120 -28 -70 20 213 77 505 180 917 173 695 197 837
174 1021 -24 197 -109 321 -227 335 -25 3 -62 16 -81 28 -31 22 -52 29 -74 25
-5 0 -8 3 -8 8 0 13 67 18 115 8 22 -5 59 -19 81 -32z m-3100 -691 c38 -14
154 -48 257 -74 104 -27 191 -50 193 -53 3 -2 -20 -78 -49 -168 -42 -129 -57
-164 -70 -163 -37 3 -175 92 -243 156 -91 86 -139 175 -159 291 -3 20 -4 37
-2 37 3 0 36 -12 73 -26z m692 -200 c50 -17 82 -34 82 -43 0 -7 -13 -57 -29
-110 -16 -53 -39 -128 -50 -168 l-21 -71 -97 32 c-53 18 -99 38 -101 44 -2 7
20 83 48 169 28 87 54 164 56 172 2 7 10 11 17 9 6 -3 49 -18 95 -34z m387
-159 c72 -31 133 -59 137 -63 4 -4 -13 -72 -36 -152 -39 -130 -46 -145 -64
-142 -31 5 -303 80 -309 85 -4 5 11 62 68 249 28 92 31 97 52 89 12 -5 81 -34
152 -66z m361 -161 c44 -20 81 -37 82 -39 3 -3 -24 -99 -59 -211 l-10 -32 -57
15 c-31 8 -73 19 -93 24 l-37 9 18 63 c10 34 28 95 40 135 11 39 25 72 29 72
5 0 44 -16 87 -36z m326 -129 c132 -44 275 -69 346 -60 53 7 54 7 41 -16 -22
-42 -101 -118 -143 -139 -30 -14 -62 -20 -112 -20 -66 0 -278 34 -301 48 -12
8 45 222 58 222 4 0 54 -16 111 -35z m-1232 -36 c52 -18 96 -33 98 -34 2 -2
-42 -157 -98 -346 -320 -1090 -580 -2054 -671 -2491 l-22 -107 -81 1 c-48 1
-104 -6 -137 -15 -67 -20 -163 -81 -213 -137 -20 -22 -36 -38 -36 -35 0 3 135
413 299 912 499 1515 731 2220 731 2226 0 14 20 57 27 57 4 0 51 -14 103 -31z
m413 -125 c81 -21 147 -42 147 -47 0 -4 -81 -290 -179 -635 -176 -614 -344
-1219 -456 -1637 -141 -529 -215 -778 -234 -790 -5 -2 -23 16 -41 41 -36 50
-113 115 -173 145 -39 20 -39 21 -32 67 28 190 197 855 396 1567 106 377 379
1316 386 1328 3 5 13 7 22 4 9 -2 82 -21 164 -43z m395 -101 c70 -16 73 -18
67 -42 -9 -35 -775 -2620 -933 -3149 -116 -385 -130 -426 -149 -427 -22 -2
-22 0 -16 130 4 84 2 160 -6 211 l-13 79 35 81 c56 131 112 313 232 759 179
664 262 963 472 1698 185 649 198 688 217 683 12 -3 54 -13 94 -23z m2386
-1325 c67 -59 46 -293 -34 -390 -91 -110 -301 -127 -441 -37 -68 44 -82 64
-28 40 117 -52 205 -51 265 1 48 42 70 90 99 214 28 118 44 155 77 178 29 21
32 20 62 -6z m-3914 -1573 c0 -8 -7 -59 -17 -113 -10 -62 -17 -158 -17 -267
-1 -164 0 -172 25 -223 20 -39 23 -54 14 -62 -9 -7 -15 0 -23 28 -6 21 -28 57
-48 80 -107 125 -257 102 -300 -46 -19 -63 -12 -113 22 -178 l25 -46 -28 6
c-15 4 -45 19 -66 32 -31 21 -38 30 -33 47 50 174 47 250 -16 339 -10 14 -3
36 44 130 103 205 203 286 356 288 49 0 62 -3 62 -15z m185 -75 c23 -16 55
-44 69 -61 33 -38 76 -122 76 -145 0 -34 -165 -294 -187 -294 -7 0 -21 12 -30
27 -15 23 -18 48 -17 158 1 139 25 345 40 345 3 0 25 -13 49 -30z m-712 -795
c88 -75 199 -103 290 -72 43 14 46 14 103 -14 33 -15 82 -33 109 -40 28 -6 68
-23 90 -38 58 -40 98 -53 155 -53 31 0 50 -5 50 -12 0 -6 -15 -61 -34 -122
-146 -475 -446 -1181 -1001 -2359 -275 -582 -295 -624 -290 -595 65 349 147
936 225 1605 16 143 32 278 35 300 7 62 33 283 40 350 24 220 97 725 136 940
31 169 27 165 92 110z m-1260 -5582 c54 -115 76 -261 72 -463 -8 -346 -97
-541 -247 -540 -70 1 -145 67 -168 149 -41 146 32 509 147 733 43 85 125 178
156 178 7 0 25 -26 40 -57z"/>
</g>
</svg>
