<?xml version="1.0" standalone="no"?>
<!DOCTYPE svg PUBLIC "-//W3C//DTD SVG 20010904//EN"
 "http://www.w3.org/TR/2001/REC-SVG-20010904/DTD/svg10.dtd">
<svg version="1.0" xmlns="http://www.w3.org/2000/svg"
 width="953.000000pt" height="1019.000000pt" viewBox="0 0 953.000000 1019.000000"
 preserveAspectRatio="xMidYMid meet">
<metadata>
Created by potrace 1.16, written by Peter Selinger 2001-2019
</metadata>
<g transform="translate(0.000000,1019.000000) scale(0.100000,-0.100000)"
fill="#000000" stroke="none">
<path d="M5478 10177 c-14 -6 -31 -20 -37 -31 -6 -12 -23 -36 -36 -55 -27 -36
-41 -79 -50 -150 -3 -23 -8 -48 -13 -55 -4 -6 -8 -45 -8 -86 -1 -78 -10 -190
-20 -250 -3 -19 -7 -51 -9 -70 -5 -61 -14 -124 -21 -150 -4 -14 -7 -62 -7
-107 0 -46 -3 -83 -6 -83 -3 0 -6 -51 -6 -114 0 -75 -4 -112 -10 -109 -7 2
-11 -12 -12 -34 -1 -96 -9 -193 -14 -193 -3 0 -9 -60 -13 -132 -4 -73 -9 -146
-11 -163 -2 -16 -6 -61 -10 -99 -3 -37 -9 -73 -13 -80 -4 -6 -8 -51 -9 -101
-1 -49 -2 -99 -3 -110 -1 -11 -1 -29 -1 -40 1 -34 -6 -137 -13 -190 -3 -27 -8
-112 -11 -187 -7 -157 -12 -238 -20 -323 -3 -33 -7 -87 -10 -120 -11 -175 -19
-252 -27 -268 -6 -12 -6 -23 2 -31 7 -10 7 -22 0 -40 -7 -19 -7 -33 0 -47 8
-13 7 -19 0 -19 -6 0 -9 -13 -8 -29 1 -16 -3 -35 -9 -43 -6 -7 -10 -39 -10
-71 1 -31 0 -57 -3 -57 -3 0 -7 -37 -8 -82 -1 -80 -4 -116 -18 -258 -4 -36 -8
-99 -10 -140 -6 -171 -15 -264 -25 -276 -6 -7 -8 -18 -4 -24 6 -10 7 -173 0
-236 -1 -17 -6 -85 -10 -150 -3 -66 -8 -130 -11 -144 -2 -14 -6 -38 -9 -55
-11 -59 -18 -157 -15 -195 1 -14 -1 -63 -5 -110 -3 -47 -8 -110 -10 -140 -1
-30 -6 -63 -10 -72 -4 -12 -3 -18 5 -18 8 0 10 -8 6 -22 -4 -13 -9 -66 -11
-118 -2 -52 -7 -129 -11 -170 -3 -41 -7 -106 -9 -145 -2 -38 -6 -115 -9 -170
-3 -55 -8 -120 -12 -145 -7 -53 -10 -92 -18 -220 -4 -52 -9 -111 -12 -130 -8
-45 -11 -190 -4 -190 4 0 4 -16 2 -35 -2 -19 -7 -35 -11 -35 -9 0 -5 -126 4
-140 12 -19 -31 -9 -84 20 -29 16 -57 27 -61 25 -5 -3 -21 0 -37 6 -15 7 -45
12 -66 11 -20 0 -35 3 -32 7 2 4 -13 8 -33 9 -21 1 -62 6 -91 12 -30 6 -56 8
-59 5 -3 -2 -14 1 -26 7 -21 12 -108 20 -204 18 -34 0 -51 3 -47 10 4 7 -2 7
-19 0 -26 -9 -121 -6 -185 6 -19 4 -31 3 -28 -2 3 -5 -43 -10 -103 -10 -60 -1
-113 -5 -119 -8 -6 -4 -11 -5 -11 -2 0 3 -10 2 -23 -3 -14 -5 -30 -5 -40 0
-12 7 -17 6 -17 -2 0 -7 -9 -9 -21 -6 -11 3 -45 -3 -76 -14 -30 -10 -64 -17
-76 -15 -12 1 -37 -1 -57 -6 -19 -5 -42 -11 -50 -12 -8 -2 -35 -9 -60 -16 -25
-7 -64 -13 -87 -15 -23 -1 -49 -8 -59 -15 -9 -8 -26 -16 -37 -17 -12 -2 -29
-5 -37 -6 -8 -1 -21 -6 -27 -10 -7 -5 -18 -5 -23 -2 -5 3 -10 2 -10 -4 0 -6
-7 -7 -17 -4 -10 4 -14 2 -10 -4 8 -12 -14 -23 -45 -23 -11 0 -35 -9 -53 -20
-17 -11 -40 -21 -51 -23 -10 -2 -35 -13 -54 -25 -19 -12 -38 -22 -42 -22 -4 0
-35 -13 -68 -29 -34 -17 -77 -35 -96 -41 -18 -6 -34 -16 -34 -22 0 -6 -7 -8
-15 -4 -8 3 -15 1 -15 -4 0 -11 -101 -66 -114 -62 -6 2 -8 0 -4 -3 6 -7 -54
-55 -68 -55 -3 0 -15 -9 -27 -20 -12 -12 -32 -23 -44 -26 -13 -4 -23 -10 -23
-16 0 -5 -4 -7 -9 -4 -5 3 -14 -1 -21 -9 -7 -8 -9 -15 -5 -15 4 0 2 -7 -5 -15
-7 -8 -16 -12 -22 -9 -5 3 -17 -4 -27 -15 -10 -12 -23 -21 -29 -21 -6 0 -14
-9 -17 -21 -4 -11 -9 -18 -12 -15 -6 6 -53 -44 -53 -56 0 -5 -7 -8 -15 -8 -8
0 -15 -5 -15 -11 0 -5 -5 -7 -10 -4 -5 3 -10 0 -10 -7 0 -7 -10 -18 -22 -23
-15 -7 -22 -17 -20 -30 2 -11 0 -17 -4 -13 -7 8 -79 -99 -118 -175 -11 -20
-22 -37 -26 -37 -4 0 -7 -6 -7 -12 1 -7 -26 -68 -59 -136 -46 -95 -63 -122
-76 -118 -9 2 -19 -3 -22 -11 -9 -22 -7 -26 10 -19 12 5 14 1 9 -15 -4 -12 -8
-27 -9 -34 -1 -7 -9 -20 -19 -29 -19 -19 -22 -36 -7 -36 5 0 9 -11 8 -24 -2
-19 -5 -22 -15 -14 -9 7 -13 7 -13 0 0 -6 4 -13 8 -16 5 -3 8 -99 8 -215 -1
-115 2 -205 5 -199 3 5 9 -10 13 -33 5 -33 3 -46 -8 -55 -17 -12 -12 -24 7
-20 7 2 9 1 5 -1 -15 -9 -8 -25 8 -19 14 5 15 4 4 -9 -10 -12 -10 -15 4 -15 9
0 17 -8 18 -17 2 -33 4 -38 11 -50 4 -6 4 -18 1 -27 -3 -9 -2 -16 4 -16 6 0
13 -18 17 -40 4 -22 11 -40 17 -40 6 0 8 -9 5 -20 -3 -11 0 -23 6 -28 22 -13
109 -177 100 -186 -4 -3 1 -6 11 -6 9 0 14 -5 11 -10 -3 -6 8 -22 24 -36 17
-14 29 -30 25 -35 -3 -5 -1 -9 5 -9 5 0 13 -9 16 -20 3 -11 11 -20 16 -20 5 0
20 -10 32 -21 12 -12 15 -19 7 -15 -8 4 -6 0 5 -9 11 -9 19 -24 17 -33 -2 -13
-1 -14 6 -4 7 11 12 11 23 -2 29 -32 38 -41 51 -51 82 -64 97 -78 92 -86 -3
-5 3 -9 13 -9 23 0 88 -46 88 -62 0 -6 7 -13 15 -15 13 -4 13 -3 0 6 -35 25
13 8 106 -38 54 -27 110 -52 124 -56 14 -3 34 -10 45 -15 19 -8 190 -57 228
-65 10 -2 28 -7 40 -11 12 -4 36 -9 52 -10 17 -2 50 -5 75 -9 50 -6 268 -25
288 -25 6 0 22 0 35 0 12 0 55 0 94 -1 40 0 75 -5 78 -10 8 -12 25 -11 25 2 0
5 -4 7 -10 4 -5 -3 -10 -1 -10 4 0 6 9 11 20 11 11 0 20 -5 20 -11 0 -8 4 -8
13 -1 10 8 81 22 192 37 11 1 33 8 48 14 36 14 69 15 47 2 -8 -6 -17 -8 -21
-5 -4 2 -10 0 -13 -5 -4 -5 8 -9 27 -8 27 2 33 6 29 20 -2 9 0 17 6 17 6 0 19
3 29 7 16 6 16 5 5 -10 -8 -9 -12 -22 -9 -29 2 -8 14 3 27 24 24 41 56 53 45
18 -4 -11 -2 -20 4 -20 6 0 13 10 16 23 5 18 23 28 88 51 45 15 100 36 122 46
22 11 47 19 55 20 9 0 22 6 28 12 10 10 17 10 33 0 19 -12 20 -11 14 9 -6 18
-4 21 9 16 10 -4 16 -1 16 6 0 13 63 51 85 52 6 0 12 3 15 6 18 19 59 39 82
39 15 0 30 5 34 11 4 8 0 9 -15 4 -33 -10 -25 1 18 23 21 11 42 18 46 14 3 -3
3 2 -1 13 -6 15 -4 17 10 12 11 -5 15 -3 10 5 -5 8 2 9 22 4 19 -4 24 -3 15 3
-14 9 -7 31 9 31 5 0 29 14 53 30 25 17 50 30 56 30 6 0 11 5 11 11 0 13 51
55 62 52 4 -2 9 6 13 16 6 19 58 44 69 34 3 -4 6 -1 6 6 0 8 -6 11 -16 7 -9
-3 -3 7 12 23 16 17 33 27 42 23 9 -3 13 0 10 8 -8 24 76 111 99 103 7 -3 13
0 13 6 0 6 -5 11 -11 11 -16 0 89 118 112 125 10 4 19 13 19 20 0 9 6 12 15 9
8 -4 15 -1 15 5 0 6 -7 11 -15 11 -13 0 -14 4 -5 20 6 11 18 20 26 20 11 0 14
6 10 16 -3 8 -2 13 3 9 12 -7 41 5 41 17 0 5 -10 7 -22 3 -20 -5 -21 -4 -7 7
8 7 24 28 34 45 11 18 25 33 33 33 8 0 11 7 7 18 -3 11 3 29 15 45 11 14 20
29 20 33 0 21 43 95 50 84 4 -6 7 3 8 20 0 17 12 51 26 76 14 26 23 50 20 55
-3 5 0 9 6 9 6 0 10 6 9 13 -2 6 7 43 19 81 19 59 43 173 68 328 9 51 11 342
3 353 -3 6 -9 33 -12 60 -3 28 -9 66 -13 85 -12 61 -84 272 -111 324 -14 28
-32 63 -40 77 -7 15 -20 33 -29 40 -12 10 -14 24 -9 58 3 25 8 102 10 171 5
152 12 273 25 405 5 55 9 111 9 125 0 14 2 48 5 75 3 28 9 102 12 165 3 63 8
119 11 123 3 5 7 39 9 75 2 37 6 103 10 147 3 44 7 107 9 140 5 83 14 190 16
190 1 0 4 43 14 225 4 63 13 153 20 200 6 47 8 87 3 88 -4 2 -6 7 -3 12 2 4 7
43 10 86 4 44 8 97 11 119 3 22 6 69 8 105 2 36 6 83 10 105 3 22 8 89 11 149
3 60 10 150 15 200 5 50 12 127 15 171 8 128 15 217 20 265 3 25 9 108 15 185
13 183 19 253 26 292 2 18 6 67 9 110 5 102 23 336 31 393 3 25 5 63 5 85 -1
22 2 67 8 100 6 33 12 103 15 155 3 52 7 127 10 165 3 39 8 106 11 150 3 44 8
107 11 140 3 33 7 83 8 110 3 47 11 167 22 299 2 32 9 124 14 205 5 80 12 178
15 216 3 39 7 106 10 150 6 104 16 205 21 205 2 0 12 -4 22 -10 9 -5 58 -26
107 -45 50 -20 108 -44 130 -54 34 -15 74 -31 95 -36 43 -12 60 -19 60 -25 0
-5 13 -11 30 -15 16 -4 32 -11 35 -16 4 -5 13 -9 21 -9 8 0 53 -18 100 -40 47
-22 90 -40 96 -40 5 0 23 -9 39 -20 15 -12 43 -26 61 -33 18 -7 59 -29 90 -50
31 -20 61 -37 66 -37 5 0 15 -11 22 -25 7 -14 17 -25 22 -25 15 0 119 -80 147
-114 9 -10 21 -24 28 -31 7 -7 9 -16 5 -19 -3 -4 4 -9 16 -13 14 -3 22 -13 22
-27 0 -13 12 -27 30 -38 19 -11 28 -22 24 -32 -3 -8 9 -30 30 -52 20 -21 36
-43 36 -50 0 -6 7 -17 15 -24 8 -7 15 -20 15 -29 0 -9 9 -24 20 -34 11 -9 20
-26 20 -37 0 -11 7 -23 15 -26 9 -4 15 -19 15 -41 0 -20 4 -32 10 -28 9 6 14
-14 11 -43 -1 -7 5 -15 14 -18 10 -4 14 -13 10 -22 -3 -8 -1 -18 5 -22 5 -3
12 -22 14 -41 2 -19 4 -37 5 -41 0 -5 8 -8 17 -8 11 0 14 -6 9 -20 -3 -11 -2
-20 2 -20 5 0 18 -28 28 -62 22 -71 21 -69 30 -123 4 -22 11 -42 15 -45 18
-12 25 -226 15 -450 -15 -345 -25 -470 -44 -565 -5 -28 -9 -57 -9 -65 2 -37
-3 -61 -12 -55 -6 4 -9 -12 -7 -40 1 -25 0 -45 -4 -45 -6 0 -11 -23 -23 -100
-3 -14 -5 -25 -6 -25 -3 0 -7 -27 -14 -88 -3 -32 -12 -71 -19 -85 -7 -15 -15
-45 -16 -67 -1 -22 -7 -44 -12 -50 -5 -5 -9 -21 -9 -35 0 -21 -41 -199 -54
-235 -2 -5 -5 -14 -6 -20 -1 -5 -9 -30 -17 -55 -8 -25 -16 -56 -19 -70 -3 -14
-9 -29 -15 -35 -13 -13 -11 -35 4 -35 6 0 17 10 23 23 5 12 27 54 47 92 51 97
101 210 123 275 11 30 24 58 29 62 6 4 7 8 3 8 -6 0 10 58 29 110 4 8 7 20 8
25 1 10 6 25 26 73 5 13 7 28 4 33 -4 5 -2 9 2 9 5 0 10 15 11 32 2 18 9 36
17 41 8 4 15 21 15 37 0 16 5 41 11 57 6 15 12 39 14 53 3 14 10 45 16 70 6
25 12 51 12 58 0 6 3 12 7 12 4 0 7 8 7 18 0 49 4 63 15 56 8 -5 9 -2 4 11 -4
11 -2 22 6 27 11 6 11 10 0 16 -7 5 -10 16 -6 26 6 15 8 15 30 1 31 -20 37
-19 24 4 -5 11 -18 22 -29 26 -15 5 -17 11 -10 43 4 20 16 75 25 122 20 106
43 183 56 191 7 4 8 15 3 25 -14 32 -15 54 -4 54 5 0 7 -4 4 -10 -3 -5 -2 -10
3 -10 18 0 22 14 8 29 -12 13 -13 25 -6 56 5 22 10 54 10 72 0 26 3 30 20 26
25 -7 26 5 3 23 -16 12 -16 15 -3 25 10 7 11 12 4 15 -13 6 -6 54 8 54 6 0 8
14 4 35 -5 25 -2 42 9 57 8 13 15 27 15 33 0 5 -5 3 -11 -5 -8 -11 -9 -8 -5
15 3 17 7 47 8 67 2 30 5 35 15 26 11 -8 12 -7 7 7 -5 13 -4 16 5 11 9 -6 10
0 5 21 -4 15 -11 30 -16 31 -5 2 -3 11 3 19 10 11 10 16 0 23 -8 4 -9 10 -3
14 5 3 8 24 7 45 -1 22 2 38 6 35 11 -6 12 10 2 20 -4 4 -8 39 -9 79 -1 40 -5
90 -9 112 -4 22 -7 56 -7 75 1 19 -4 40 -10 47 -6 7 -7 13 -3 13 4 0 -5 21
-20 46 -15 25 -24 51 -21 59 2 7 -3 31 -13 52 -10 21 -25 56 -32 78 -8 22 -22
49 -31 59 -10 10 -15 22 -13 26 3 4 -4 15 -15 25 -11 10 -17 22 -14 26 3 5 1
9 -4 9 -9 0 -37 55 -37 72 0 4 -12 19 -27 33 -16 14 -28 32 -28 39 0 8 -16 28
-35 45 -19 17 -35 35 -35 40 0 5 -11 18 -25 29 -13 11 -21 22 -18 26 3 3 1 6
-5 6 -17 0 -62 52 -55 63 3 6 1 7 -6 3 -7 -5 -24 8 -44 30 -17 21 -40 46 -49
56 -10 10 -16 18 -13 18 3 0 -4 9 -15 20 -11 11 -22 20 -25 20 -15 0 -84 74
-78 84 3 6 2 8 -2 3 -11 -9 -55 32 -55 51 0 9 -3 12 -6 9 -4 -4 -14 1 -23 11
-9 9 -23 18 -31 20 -20 5 -68 35 -103 66 -19 16 -24 26 -15 29 8 3 6 6 -5 6
-10 1 -16 4 -14 9 3 4 -8 7 -24 8 -17 1 -38 10 -49 20 -34 34 -49 44 -69 47
-11 2 -28 10 -38 19 -10 8 -26 18 -36 21 -10 4 -16 11 -13 16 3 5 0 8 -7 7
-21 -2 -96 38 -97 52 0 8 -6 12 -12 9 -13 -4 -87 30 -99 46 -3 4 -10 7 -15 6
-20 -3 -54 14 -54 28 0 8 -4 12 -9 8 -14 -8 -61 16 -54 28 3 6 1 7 -5 3 -13
-8 -63 14 -56 25 3 5 -1 7 -8 4 -7 -3 -31 4 -53 15 -21 11 -44 20 -51 20 -6 0
-23 9 -37 21 -15 11 -37 22 -49 24 -27 6 -152 67 -156 78 -2 4 -9 7 -16 7 -13
0 -38 18 -95 66 -24 21 -52 34 -85 38 -27 4 -54 9 -60 11 -6 1 -23 -2 -38 -8z
m367 -318 c22 -5 57 -14 78 -20 21 -5 45 -13 55 -18 9 -5 36 -17 58 -27 28
-13 40 -23 37 -34 -4 -12 -3 -12 5 -1 8 11 22 7 78 -20 88 -44 185 -99 202
-116 7 -7 18 -13 24 -13 5 0 23 -10 38 -22 15 -13 42 -31 59 -40 40 -22 44
-68 7 -87 -29 -16 -55 -9 -117 30 -25 16 -49 29 -52 29 -4 0 -30 15 -59 33
-58 37 -129 71 -223 107 -33 13 -72 31 -87 42 -14 10 -30 18 -34 18 -13 0
-173 80 -179 89 -3 5 0 21 6 35 14 29 37 32 104 15z m-1799 -6988 c6 -1 26
-14 44 -29 27 -24 31 -33 26 -58 -13 -55 -67 -101 -192 -163 -45 -23 -85 -41
-89 -41 -4 0 -21 -6 -38 -14 -18 -8 -70 -30 -117 -49 -47 -19 -94 -38 -105
-42 -11 -5 -24 -7 -28 -6 -4 1 -18 -5 -30 -14 -12 -8 -30 -15 -39 -15 -10 0
-26 -4 -36 -9 -23 -13 -54 -24 -72 -27 -13 -2 -160 -51 -225 -74 -70 -26 -195
-63 -220 -66 -16 -2 -63 -11 -105 -20 -116 -25 -156 -18 -160 31 -7 63 1 96
31 129 48 55 157 137 163 123 3 -8 5 -6 5 3 1 9 18 24 39 35 20 11 39 22 42
26 3 3 28 16 55 28 28 13 77 36 110 51 33 15 78 33 100 40 22 7 54 18 70 25
48 20 126 45 173 55 23 5 52 14 63 21 11 6 23 8 26 5 3 -2 16 -1 30 5 34 13
160 32 288 45 39 4 71 7 72 8 2 2 97 -1 119 -3z m-1661 -705 c11 -14 22 -39
23 -56 3 -38 -34 -149 -59 -176 -10 -11 -19 -24 -19 -30 -1 -21 -150 -164
-205 -196 -77 -44 -125 -62 -125 -45 0 9 -2 9 -8 0 -13 -20 -67 11 -82 46 -10
26 -10 43 0 91 7 33 17 60 22 60 5 0 7 4 4 9 -4 5 -3 11 2 13 4 1 29 35 55 75
53 79 121 145 212 205 53 35 65 38 109 35 39 -4 54 -10 71 -31z"/>
<path d="M2684 9302 c-6 -4 -11 -14 -12 -22 -4 -65 -16 -126 -26 -132 -6 -4
-21 -8 -33 -8 -25 0 -56 -27 -50 -44 2 -6 23 -11 45 -11 41 0 42 -1 42 -32 0
-29 -4 -33 -37 -42 -21 -6 -44 -11 -50 -11 -7 0 -13 -11 -13 -25 0 -26 6 -28
70 -27 22 0 25 -5 28 -36 2 -33 25 -72 43 -72 4 0 6 18 5 40 -3 47 5 63 32 65
16 1 22 -6 27 -32 9 -52 45 -38 45 18 0 13 7 19 23 19 60 0 75 55 17 66 -24 5
-30 11 -30 33 0 43 11 71 29 71 24 1 54 27 46 40 -4 7 -20 10 -36 8 l-29 -5 0
64 c0 47 -4 63 -14 63 -22 0 -34 -22 -42 -77 -5 -42 -10 -52 -29 -55 -20 -4
-21 -2 -15 33 8 44 -1 111 -15 116 -6 1 -15 -1 -21 -5z"/>
<path d="M6091 8969 c-6 -18 -11 -44 -11 -59 0 -16 -5 -27 -12 -27 -34 3 -98
-16 -98 -29 0 -8 6 -15 13 -15 6 -1 27 -3 45 -5 19 -1 35 -4 36 -6 2 -1 1 -19
-1 -40 -4 -32 -9 -37 -39 -43 -25 -4 -34 -11 -34 -25 0 -16 7 -20 30 -20 27 0
30 -3 30 -34 0 -18 7 -39 15 -46 12 -10 16 -5 27 34 11 43 14 46 46 46 27 0
32 -3 28 -17 -3 -10 -8 -37 -11 -60 -8 -65 18 -55 39 15 15 49 22 58 42 60 31
2 64 19 64 33 0 12 -62 39 -73 32 -5 -3 -6 5 -1 18 4 13 7 29 7 36 0 6 13 14
30 17 33 7 32 26 -1 41 -15 6 -22 19 -22 37 0 15 -4 29 -9 32 -19 12 -41 -7
-41 -33 0 -25 -3 -27 -30 -23 -30 4 -30 5 -28 55 2 41 0 52 -13 55 -11 2 -20
-8 -28 -29z"/>
<path d="M1140 8833 c-59 -19 -59 -18 -76 -142 -20 -153 17 -411 61 -419 16
-4 17 4 11 100 -4 56 -9 122 -12 146 -6 41 -6 42 23 42 61 0 127 83 118 148
-3 20 -6 44 -7 51 -1 17 -54 71 -68 71 -4 0 -14 2 -22 4 -7 3 -20 2 -28 -1z"/>
<path d="M9345 8723 c-49 -13 -103 -24 -118 -25 -15 -1 -30 -5 -33 -9 -3 -5 0
-54 6 -111 l10 -102 -29 -27 c-67 -61 -39 -129 51 -121 25 3 59 64 53 98 -3
16 -7 47 -9 69 -5 47 -24 143 -31 154 -2 5 26 11 63 14 37 3 81 9 98 12 l31 7
11 -69 c7 -37 14 -77 17 -88 4 -15 -2 -24 -25 -37 -39 -22 -42 -73 -7 -106 27
-25 36 -27 72 -10 l26 12 -2 120 c-1 123 -16 193 -47 229 -19 21 -25 21 -137
-10z"/>
<path d="M3760 8730 c-8 -5 -26 -33 -41 -62 -14 -29 -31 -52 -38 -50 -7 1 -10
-2 -7 -7 8 -12 -14 -61 -26 -61 -5 0 -8 -8 -7 -17 4 -23 -10 -63 -21 -63 -5 0
-16 -27 -26 -59 -9 -33 -25 -69 -35 -80 -11 -11 -20 -32 -21 -46 -1 -14 -6
-25 -10 -25 -4 0 -8 -9 -8 -20 0 -24 1 -24 -39 -4 -65 33 -119 6 -167 -82 -27
-49 -1 -168 43 -193 14 -8 14 -10 3 -11 -11 0 -12 -3 -3 -8 28 -18 186 0 184
21 -2 15 50 107 60 107 5 0 7 4 4 10 -3 5 0 20 7 32 6 13 20 43 29 68 36 96
45 116 61 131 10 9 15 19 11 23 -3 3 -2 6 4 6 6 0 11 12 11 27 0 15 5 29 11
31 6 2 11 15 11 28 0 13 4 24 8 24 4 0 8 10 9 22 1 11 6 24 11 27 6 3 16 26
23 51 14 52 27 70 37 54 16 -24 270 -134 365 -158 33 -8 61 -17 64 -20 3 -3
-18 -57 -46 -120 -28 -64 -51 -120 -51 -126 0 -5 -4 -10 -10 -10 -5 0 -10 -4
-10 -9 0 -5 -8 -26 -17 -47 -9 -22 -18 -46 -19 -54 -3 -14 -25 -34 -48 -44 -8
-3 -7 -7 1 -13 8 -5 -13 -7 -50 -5 -61 4 -65 3 -98 -30 -19 -18 -41 -43 -50
-54 -19 -24 -33 -87 -22 -98 5 -4 9 -12 9 -17 1 -5 2 -14 3 -19 3 -25 63 -70
94 -72 51 -2 70 1 87 17 9 8 19 12 22 9 4 -3 9 4 13 16 4 11 16 30 28 40 11
11 17 20 13 20 -4 0 6 25 23 55 17 30 31 61 31 69 0 7 10 21 23 30 12 9 15 14
7 11 -9 -4 -7 0 4 9 10 8 15 19 11 25 -3 6 -1 11 6 11 7 0 9 3 6 6 -4 4 2 23
12 43 23 47 48 101 55 124 3 10 10 15 16 12 5 -3 7 0 4 8 -3 8 2 17 11 21 9 3
15 11 14 18 -4 19 11 60 29 81 8 9 13 20 10 23 -4 3 0 17 7 31 7 14 11 37 8
52 -3 14 -6 32 -6 39 0 6 -4 12 -9 12 -4 0 -7 6 -6 13 2 6 -2 11 -9 10 -6 -1
-17 4 -23 12 -7 8 -22 15 -35 15 -12 0 -25 3 -29 7 -4 4 -19 9 -34 11 -14 2
-32 7 -38 13 -6 5 -13 6 -16 3 -3 -3 -28 5 -54 17 -27 12 -62 27 -79 34 -16 7
-65 29 -107 49 -42 20 -81 36 -86 36 -5 0 -14 6 -20 13 -13 16 -62 20 -82 7z"/>
<path d="M6545 8284 c-24 -24 -46 -71 -40 -86 3 -7 21 -23 40 -36 l35 -22 45
21 c49 23 62 47 44 81 -7 13 -11 25 -9 28 5 9 -44 30 -72 30 -15 0 -34 -7 -43
-16z"/>
<path d="M8715 7351 c-14 -13 -57 -17 -73 -7 -15 9 -27 1 -27 -17 0 -7 -8 -11
-18 -9 -10 2 -17 -3 -17 -13 0 -8 -6 -14 -12 -12 -7 1 -13 -7 -14 -18 -1 -11
-2 -33 -3 -48 0 -16 -5 -25 -11 -22 -16 10 -12 -11 5 -25 9 -8 15 -30 15 -59
0 -26 6 -70 14 -97 16 -55 30 -125 28 -136 -1 -4 5 -25 12 -46 8 -22 12 -42
10 -45 -3 -3 -1 -13 4 -24 19 -37 40 -124 34 -145 -3 -14 -2 -19 6 -14 7 4 12
1 13 -6 0 -7 2 -20 5 -28 2 -8 7 -28 10 -45 4 -16 11 -32 15 -35 4 -3 10 -17
13 -30 8 -44 35 -111 56 -141 18 -24 25 -27 41 -19 20 11 20 17 4 115 -4 22
-14 60 -22 85 -8 25 -17 55 -19 67 -2 12 -9 35 -16 50 -6 16 -10 34 -9 41 1 8
-2 19 -7 25 -11 13 -42 113 -42 134 0 7 7 13 15 13 8 0 15 5 15 10 0 6 -4 10
-9 10 -5 0 -11 11 -14 25 -2 14 -2 23 1 21 3 -3 10 0 16 7 16 19 66 39 66 27
0 -6 5 -10 11 -10 6 0 9 6 6 14 -6 14 70 63 88 57 6 -1 7 1 3 4 -4 4 -1 20 7
35 8 15 11 30 8 34 -4 3 -1 6 5 6 6 0 10 8 10 18 -1 9 2 31 5 47 6 22 5 26 -3
15 -8 -12 -10 -11 -10 7 0 19 -27 81 -41 93 -3 3 -8 12 -11 21 -3 8 -24 21
-47 29 -22 7 -38 17 -35 21 2 4 -4 13 -15 19 -17 9 -19 8 -15 -5 4 -10 0 -15
-10 -15 -9 0 -16 7 -16 15 0 17 -11 20 -25 6z"/>
<path d="M430 7218 c-19 -5 -46 -20 -61 -34 -14 -13 -31 -24 -37 -24 -32 0
-38 -117 -8 -166 36 -59 111 -69 198 -25 31 16 58 28 60 27 2 0 2 1 1 3 -1 2
9 22 22 45 20 34 23 47 16 78 -10 43 -51 83 -101 98 -41 11 -43 11 -90 -2z"/>
<path d="M2234 6278 c3 -24 7 -54 10 -68 3 -14 8 -41 11 -60 4 -19 12 -57 19
-85 6 -27 10 -57 8 -67 -3 -16 -95 -65 -131 -71 -10 -2 -29 -10 -42 -18 -13
-9 -43 -23 -66 -32 -41 -16 -42 -16 -49 6 -5 12 -7 26 -6 31 2 4 -2 14 -8 20
-5 7 -8 15 -5 18 3 3 -1 27 -9 54 -8 27 -19 67 -25 89 -14 55 -34 80 -56 72
-15 -6 -16 -17 -10 -95 10 -134 12 -153 24 -206 14 -57 19 -51 -119 -129 -81
-46 -140 -95 -140 -117 0 -23 32 -20 87 6 32 15 66 26 76 25 10 -1 17 4 17 13
0 9 8 16 18 16 9 0 31 9 47 20 17 11 33 20 37 20 6 0 26 -57 34 -97 5 -28 36
-119 46 -137 11 -21 14 -18 -75 -68 -26 -16 -55 -28 -62 -28 -8 0 -15 -5 -15
-11 0 -5 -4 -8 -9 -5 -4 3 -8 -6 -7 -21 1 -37 27 -50 69 -35 18 7 42 12 53 12
10 0 28 7 38 15 18 14 66 22 54 9 -9 -8 100 -221 117 -228 12 -4 15 4 15 39 0
53 -16 135 -36 189 -14 36 -13 50 4 52 17 2 92 37 92 43 0 4 8 7 18 8 10 1 47
11 82 23 49 17 65 18 71 9 4 -7 5 -17 2 -22 -3 -5 0 -13 6 -17 7 -4 13 -13 15
-21 5 -31 48 -100 59 -96 8 2 12 34 13 93 l2 88 58 38 c33 21 65 46 72 55 19
26 14 51 -10 59 -31 10 -108 12 -102 3 2 -4 -9 -12 -25 -17 -28 -10 -28 -9
-30 29 -3 65 -5 78 -12 73 -4 -2 -9 13 -12 34 -6 42 -23 120 -31 142 -4 10 6
21 32 33 53 25 95 65 88 83 -5 12 -16 14 -53 8 -27 -3 -52 -10 -58 -14 -15
-11 -45 -8 -46 4 -3 26 -5 32 -18 56 -8 14 -13 25 -12 25 2 0 -5 24 -20 65 -5
14 -11 35 -13 47 -7 34 -47 83 -69 83 -16 0 -18 -6 -13 -42z m82 -405 c-2 -16
-1 -32 2 -38 10 -16 14 -38 13 -72 0 -17 5 -38 13 -45 7 -8 17 -37 20 -64 l7
-50 -43 -18 c-24 -10 -54 -23 -68 -29 -14 -6 -27 -11 -30 -11 -3 -1 -11 -5
-17 -9 -7 -5 -18 -5 -25 -1 -7 4 -8 3 -4 -4 4 -7 1 -12 -9 -12 -9 0 -29 -7
-44 -15 l-29 -14 -17 62 c-9 34 -19 76 -22 92 -3 17 -12 38 -21 48 -8 9 -12
17 -9 17 4 0 2 11 -3 25 -8 20 -5 27 12 39 11 8 27 12 34 9 8 -3 14 0 14 5 0
11 45 35 90 47 14 4 32 13 40 20 8 7 27 15 43 19 15 3 27 11 27 16 0 6 6 10
14 10 10 0 14 -9 12 -27z"/>
<path d="M6575 5130 c-198 -76 -267 -105 -284 -121 -11 -10 -28 -19 -37 -19
-12 0 -15 -5 -9 -22 4 -13 6 -33 6 -45 0 -12 4 -25 9 -28 6 -3 10 -14 10 -23
0 -9 15 -48 34 -86 19 -39 33 -74 30 -78 -3 -4 0 -8 6 -8 6 0 18 -16 26 -35 8
-20 22 -39 32 -42 9 -4 23 -13 30 -20 19 -19 76 -16 94 5 26 29 30 68 11 106
-23 45 -45 53 -87 28 l-34 -20 -11 24 c-6 14 -11 31 -11 39 0 7 -3 15 -7 17
-22 9 -87 178 -69 178 3 0 52 14 109 30 58 17 111 30 119 30 10 0 23 -25 39
-72 12 -40 26 -80 31 -88 4 -8 21 -46 38 -83 35 -80 50 -97 83 -97 39 0 56 10
73 42 14 28 14 34 -1 74 -17 44 -48 65 -68 45 -17 -17 -24 -13 -37 22 -7 17
-21 50 -31 73 -10 22 -25 70 -34 107 -18 69 -27 79 -60 67z"/>
<path d="M8598 5032 c-10 -2 -18 -8 -18 -13 0 -6 -4 -8 -9 -5 -5 3 -19 -14
-31 -37 -18 -33 -21 -50 -15 -73 9 -31 11 -42 13 -61 1 -7 9 -13 17 -13 8 0
15 -4 15 -9 0 -5 11 -12 25 -15 16 -4 23 -11 19 -18 -5 -7 -2 -9 7 -6 8 3 23
2 34 -2 45 -16 165 40 165 77 0 7 4 13 8 13 4 0 9 17 10 38 1 28 -5 44 -27 69
-16 17 -39 36 -50 43 -21 11 -131 19 -163 12z"/>
<path d="M3896 4778 c-14 -22 -63 -149 -71 -186 -2 -9 -11 -38 -19 -65 -8 -26
-15 -49 -16 -52 -7 -52 -14 -67 -24 -53 -34 45 -90 43 -150 -7 -24 -19 -30
-33 -34 -77 -4 -49 -1 -57 25 -85 41 -43 70 -49 125 -23 66 30 84 68 148 305
6 22 13 49 14 60 2 12 11 42 20 68 29 86 16 167 -18 115z"/>
<path d="M12 4429 c-10 -15 -10 -24 -2 -34 6 -8 13 -28 15 -46 3 -18 9 -37 15
-43 5 -5 10 -18 10 -27 0 -10 3 -19 8 -21 7 -3 62 -132 62 -147 0 -5 8 -26 17
-47 9 -22 17 -41 18 -44 0 -3 4 -11 8 -18 5 -8 2 -14 -10 -18 -33 -10 -44 -19
-60 -46 -14 -22 -15 -32 -4 -68 25 -85 95 -109 146 -48 39 46 32 110 -30 263
-7 17 -18 48 -25 70 -7 22 -26 69 -42 103 -32 73 -32 72 -15 72 34 0 86 -23
122 -55 22 -19 45 -35 51 -35 15 0 25 25 18 48 -22 68 -67 101 -164 120 -88
16 -89 17 -102 30 -16 16 -21 15 -36 -9z"/>
<path d="M2317 4248 c-52 -98 55 -161 113 -66 24 40 24 41 2 68 -10 13 -33 23
-57 27 -37 4 -41 2 -58 -29z"/>
<path d="M2354 4014 c-35 -45 -31 -78 10 -103 18 -12 42 -21 52 -21 28 1 60
30 72 66 9 29 7 35 -20 63 -40 41 -81 39 -114 -5z"/>
<path d="M7407 3798 c-28 -58 -50 -114 -77 -198 -17 -53 -44 -120 -82 -207
-10 -24 -18 -50 -18 -58 0 -8 -4 -15 -10 -15 -5 0 -10 -9 -10 -19 0 -11 -4
-30 -9 -43 -5 -13 -8 -26 -7 -29 0 -3 -7 -14 -17 -24 -10 -9 -16 -23 -13 -31
3 -7 -1 -18 -9 -24 -7 -6 -16 -31 -19 -55 -4 -25 -11 -47 -15 -50 -5 -2 -17
-34 -26 -70 -10 -35 -22 -62 -26 -59 -5 3 -9 -5 -9 -18 0 -14 -7 -33 -15 -44
-8 -10 -15 -33 -15 -51 0 -17 -4 -34 -9 -38 -5 -3 -12 -19 -16 -35 -4 -17 -11
-30 -16 -30 -5 0 -9 -12 -9 -28 0 -15 -6 -36 -13 -47 -12 -16 -38 -92 -65
-185 -2 -8 -6 -54 -8 -102 -4 -101 5 -127 68 -199 23 -26 30 -28 105 -30 76
-2 248 53 261 84 2 4 8 5 13 1 5 -3 9 1 9 8 0 7 21 31 45 52 33 28 44 44 40
57 -4 11 -2 19 3 19 12 0 52 83 61 125 13 63 6 199 -12 234 -9 19 -17 42 -17
53 0 10 -7 18 -15 18 -9 0 -18 6 -21 14 -3 8 -25 19 -49 26 -42 12 -78 11
-154 -5 -29 -6 -33 -4 -24 7 12 14 21 47 30 108 3 19 9 40 13 45 9 11 51 158
55 190 2 11 17 62 34 114 17 51 31 99 31 105 0 7 9 31 20 54 11 22 20 54 20
69 0 15 6 40 14 55 8 14 17 45 20 68 3 23 8 44 10 48 11 18 35 162 30 176 -3
9 -16 16 -29 16 -17 0 -28 -12 -48 -52z"/>
<path d="M8880 3780 c-7 -12 -10 -51 -8 -93 l3 -71 -55 -17 c-43 -13 -56 -21
-58 -39 -4 -22 -2 -23 56 -16 l59 7 6 -48 c6 -52 -2 -63 -44 -63 -14 0 -34 -7
-45 -15 -16 -13 -17 -16 -4 -25 12 -8 62 -13 97 -9 4 0 14 -19 22 -42 26 -69
51 -58 46 19 -2 28 2 32 29 37 65 12 91 10 91 -5 0 -28 43 -56 46 -30 1 6 3
15 4 20 1 6 3 19 4 30 0 11 4 19 9 18 13 -4 62 34 62 48 0 14 -15 18 -56 15
-18 -2 -23 6 -31 48 -9 46 -8 51 8 51 31 0 69 22 69 41 0 22 -31 33 -68 24
-28 -6 -29 -4 -43 57 -12 52 -18 64 -36 66 -22 3 -22 1 -18 -66 l4 -70 -45
-12 c-24 -7 -46 -11 -48 -9 -3 2 -7 24 -10 49 -13 114 -25 140 -46 100z"/>
<path d="M1233 3358 c-46 -33 -55 -55 -69 -163 -3 -31 -12 -53 -22 -59 -10 -5
-34 -26 -54 -46 -35 -35 -47 -69 -38 -105 2 -5 3 -17 2 -25 -1 -26 52 -94 85
-110 28 -13 32 -20 31 -51 -1 -31 -4 -35 -23 -31 -16 3 -28 -4 -42 -25 -33
-46 -35 -81 -5 -114 29 -34 39 -35 86 -13 45 22 58 52 64 150 4 74 6 82 32 99
76 51 58 224 -22 213 -38 -6 -31 12 17 43 41 27 85 98 85 138 0 36 -40 109
-63 115 -31 8 -29 8 -64 -16z"/>
<path d="M8654 1698 c-33 -37 -46 -79 -50 -156 -2 -40 -5 -76 -8 -81 -3 -4 -3
-11 1 -15 3 -3 8 -21 10 -39 3 -27 -2 -35 -27 -51 -78 -46 -97 -123 -51 -209
29 -54 73 -86 121 -87 21 0 26 -5 27 -27 1 -16 4 -47 6 -70 4 -41 3 -42 -22
-37 -41 8 -72 -22 -78 -76 -10 -86 65 -131 128 -77 44 37 62 138 45 243 l-11
66 32 34 c77 82 37 217 -59 200 -19 -4 -28 -1 -28 8 0 18 27 39 40 31 5 -3 10
-2 10 3 0 6 15 33 34 61 76 113 65 240 -26 287 -39 20 -72 17 -94 -8z"/>
</g>
</svg>
