<?xml version="1.0" standalone="no"?>
<!DOCTYPE svg PUBLIC "-//W3C//DTD SVG 20010904//EN"
 "http://www.w3.org/TR/2001/REC-SVG-20010904/DTD/svg10.dtd">
<svg version="1.0" xmlns="http://www.w3.org/2000/svg"
 width="401.000000pt" height="407.000000pt" viewBox="0 0 401.000000 407.000000"
 preserveAspectRatio="xMidYMid meet">
<metadata>
Created by potrace 1.16, written by Peter Selinger 2001-2019
</metadata>
<g transform="translate(0.000000,407.000000) scale(0.100000,-0.100000)"
fill="#000000" stroke="none">
<path d="M1330 3922 c-25 -16 -66 -52 -91 -80 -87 -97 -112 -192 -65 -249 13
-15 33 -47 44 -69 12 -23 28 -44 36 -47 10 -4 16 -23 18 -59 3 -48 5 -53 26
-52 12 0 22 -3 22 -7 0 -5 19 -17 43 -27 23 -11 53 -31 66 -46 37 -40 75 -35
106 13 37 55 103 79 133 49 19 -19 15 -26 -24 -38 -36 -12 -74 -59 -74 -91 0
-9 9 -23 20 -30 20 -14 20 -14 -4 -74 -15 -35 -33 -64 -46 -69 -13 -6 -59 -5
-129 3 -98 12 -111 12 -134 -3 -23 -15 -29 -16 -60 -2 -20 8 -41 24 -47 37
-12 21 -8 26 39 67 49 42 66 81 42 96 -16 10 -51 86 -51 110 0 26 -17 36 -61
36 -21 0 -53 18 -106 58 -74 55 -79 57 -137 57 -46 0 -75 -7 -118 -28 -63 -31
-90 -65 -109 -140 -10 -40 -18 -51 -48 -67 -43 -21 -61 -55 -68 -127 l-6 -51
51 -37 c37 -26 54 -46 61 -72 21 -73 66 -91 145 -55 48 22 108 42 124 42 20 0
52 -77 52 -123 0 -25 -7 -61 -16 -82 -22 -54 -11 -88 48 -139 76 -67 158 -104
258 -118 47 -6 90 -15 97 -20 7 -5 17 -35 23 -66 5 -31 19 -75 31 -98 16 -33
18 -46 9 -69 -6 -15 -8 -36 -5 -45 3 -10 1 -21 -5 -25 -13 -8 -13 -85 0 -120
12 -31 -11 -95 -33 -95 -17 0 -61 -96 -53 -116 12 -32 -141 -332 -212 -417
-15 -17 -40 -49 -56 -70 -16 -21 -53 -54 -83 -73 -117 -76 -266 -245 -358
-409 -16 -27 -55 -92 -88 -142 -49 -77 -68 -98 -117 -128 -46 -28 -67 -50
-104 -108 -25 -41 -69 -95 -98 -122 -109 -98 -118 -108 -128 -144 -16 -56 -13
-118 6 -125 45 -17 195 7 232 37 8 6 26 38 41 71 15 34 53 97 85 141 32 44 75
110 96 146 29 49 73 97 177 191 76 70 188 177 248 238 61 61 122 118 137 126
16 8 73 51 129 95 76 62 129 117 218 228 65 80 135 162 156 181 l37 35 -7
-190 c-3 -104 -13 -269 -21 -365 -8 -96 -17 -231 -19 -299 -3 -68 -7 -126 -10
-129 -3 -3 -5 -17 -5 -32 0 -15 -9 -35 -21 -46 -12 -10 -27 -31 -35 -46 -19
-36 -67 -63 -139 -79 -75 -15 -87 -25 -83 -62 4 -43 29 -49 263 -57 110 -4
232 -13 272 -20 57 -11 75 -11 87 -1 21 18 32 152 17 226 -13 66 5 454 35 758
8 86 12 167 9 178 -4 12 0 31 11 47 30 47 136 152 153 152 9 0 92 -25 185 -56
141 -47 177 -63 209 -94 l40 -36 -42 -120 c-37 -106 -44 -143 -67 -344 -15
-124 -31 -231 -37 -238 -6 -8 -28 -21 -49 -29 -45 -18 -96 -72 -103 -111 -16
-84 -29 -120 -52 -150 -19 -25 -22 -37 -14 -45 8 -8 25 3 65 42 l53 52 21 -50
c13 -29 22 -71 22 -100 0 -102 26 -119 185 -123 78 -3 90 -1 93 14 2 12 -8 22
-35 33 -21 9 -47 25 -59 36 l-22 20 19 72 c10 40 35 155 55 257 40 209 139
540 191 643 l34 68 42 -44 c154 -160 164 -176 331 -512 118 -239 236 -515 236
-554 0 -32 -60 -89 -150 -141 -70 -41 -96 -78 -72 -102 11 -11 393 32 502 58
97 22 110 34 110 97 0 58 -38 149 -71 170 -16 10 -17 13 -3 28 14 15 11 26
-31 109 -26 51 -72 159 -102 239 -95 252 -179 431 -238 508 -30 40 -68 101
-85 136 -17 36 -48 84 -69 108 -47 54 -90 131 -130 230 -16 42 -52 123 -79
180 -76 157 -103 247 -112 371 l-8 107 -56 84 c-31 47 -68 109 -83 138 -15 30
-36 64 -46 76 l-20 23 47 44 c26 24 56 51 67 60 14 11 19 29 19 62 0 38 5 49
30 71 17 13 30 33 30 43 0 10 12 27 26 37 l26 19 -11 95 c-15 121 -29 165 -62
198 -15 15 -169 98 -344 184 -362 179 -351 176 -496 126 -87 -30 -92 -31 -154
-18 -51 10 -67 10 -79 0 -23 -19 -99 39 -149 114 -93 139 -169 204 -257 220
-28 5 -44 0 -80 -23z m1213 -795 c34 1 40 -3 53 -31 9 -17 28 -39 43 -47 31
-18 70 -104 54 -120 -6 -6 -40 -15 -77 -21 l-68 -11 -23 29 c-14 16 -24 38
-25 49 0 11 -6 29 -14 40 -7 11 -16 34 -19 50 -3 17 -8 40 -12 53 -7 21 -6 22
21 15 16 -4 46 -7 67 -6z"/>
</g>
</svg>
