<?xml version="1.0" standalone="no"?>
<!DOCTYPE svg PUBLIC "-//W3C//DTD SVG 20010904//EN"
 "http://www.w3.org/TR/2001/REC-SVG-20010904/DTD/svg10.dtd">
<svg version="1.0" xmlns="http://www.w3.org/2000/svg"
 width="1654.000000pt" height="1702.000000pt" viewBox="0 0 1654.000000 1702.000000"
 preserveAspectRatio="xMidYMid meet">
<metadata>
Created by potrace 1.16, written by Peter Selinger 2001-2019
</metadata>
<g transform="translate(0.000000,1702.000000) scale(0.100000,-0.100000)"
fill="#000000" stroke="none">
<path d="M7997 16032 c-15 -2 -25 -6 -23 -10 2 -4 -21 -7 -52 -7 -46 -1 -71
-8 -128 -38 -63 -34 -169 -112 -118 -88 32 15 118 0 122 -22 3 -16 -2 -18 -32
-16 -27 3 -39 -2 -51 -17 -13 -20 -55 -36 -97 -38 -10 -1 -17 -4 -15 -8 1 -4
-8 -15 -20 -23 l-23 -16 20 -39 c24 -47 25 -63 4 -81 -13 -11 -15 -27 -12 -81
3 -37 2 -68 -2 -68 -4 0 -2 -17 5 -37 9 -26 10 -45 3 -67 -22 -66 -21 -104 1
-118 12 -7 21 -20 21 -30 0 -9 25 -46 55 -83 61 -74 99 -149 110 -211 3 -23
15 -51 25 -62 18 -19 18 -21 2 -35 -32 -28 -125 -78 -211 -114 -47 -19 -100
-46 -117 -58 -49 -38 -158 -192 -203 -290 -67 -143 -72 -152 -145 -241 -47
-59 -72 -81 -76 -72 -20 36 -35 133 -35 223 0 131 21 196 86 271 61 69 79 102
86 163 5 43 9 49 47 69 22 12 57 22 76 22 65 0 108 19 135 58 37 54 31 104
-19 144 -45 37 -147 13 -187 -43 -24 -34 -66 -57 -92 -51 -10 2 -27 -4 -38
-14 -17 -15 -19 -15 -19 -1 0 9 -10 19 -22 23 -16 5 -27 0 -42 -17 -13 -15
-30 -23 -43 -21 -13 2 -27 -5 -36 -18 -8 -12 -21 -21 -28 -20 -29 4 -39 -1
-54 -30 -9 -17 -24 -30 -34 -30 -16 0 -51 -28 -51 -42 0 -2 16 -5 36 -6 20 -1
39 -4 42 -6 17 -17 -114 -136 -150 -136 -11 0 -16 -4 -13 -10 6 -9 -8 -14 -27
-11 -5 0 -8 -4 -8 -10 0 -7 -7 -17 -16 -24 -15 -10 -15 -12 -1 -18 8 -3 42 7
75 23 l60 28 7 -53 c4 -36 14 -62 31 -80 29 -31 30 -41 5 -54 -15 -8 -19 -22
-20 -58 0 -27 -5 -70 -11 -98 -5 -27 -15 -177 -22 -332 -9 -224 -9 -291 1
-324 16 -52 29 -41 36 29 6 68 23 88 47 56 24 -29 112 -72 160 -77 20 -2 48
-11 62 -20 24 -16 26 -16 81 36 69 66 68 86 -5 77 -28 -4 -50 -3 -50 1 0 5 -6
6 -13 3 -16 -6 -116 57 -130 81 -10 18 4 20 22 3 11 -11 13 -7 9 20 -4 31 -3
33 19 27 22 -5 32 8 14 19 -18 12 3 47 39 66 28 14 40 16 49 7 6 -6 11 -7 11
-3 0 5 -8 15 -17 22 -10 7 -15 16 -11 20 4 4 15 1 23 -6 20 -17 44 7 72 71 11
24 37 60 57 78 l36 35 0 -33 c0 -30 2 -32 16 -20 14 12 49 80 68 133 3 10 9
16 13 13 3 -4 13 -2 20 5 9 7 17 8 21 2 11 -14 92 -16 139 -3 51 14 95 68 49
60 -12 -3 -26 21 -20 31 8 13 72 9 77 -4 2 -7 -3 -18 -12 -25 -14 -11 -14 -12
-1 -13 9 0 23 -12 32 -27 12 -19 18 -23 18 -12 0 18 24 32 34 22 10 -10 7 -19
-11 -40 -10 -11 -24 -18 -30 -16 -7 3 -13 0 -13 -5 0 -6 6 -13 13 -16 8 -3 3
-12 -15 -26 -16 -12 -28 -26 -28 -32 0 -6 9 -3 20 7 26 24 37 12 18 -18 -14
-21 -14 -26 2 -56 10 -21 20 -30 24 -22 10 16 30 14 54 -8 25 -21 27 -38 11
-92 -11 -35 -9 -44 35 -134 25 -53 46 -100 46 -105 0 -6 5 -10 10 -10 6 0 10
-7 10 -16 0 -9 18 -51 41 -94 l40 -78 32 9 c18 5 43 9 57 10 14 0 59 22 100
50 41 27 86 55 100 62 14 6 40 29 59 49 19 21 40 38 48 38 7 0 12 3 11 8 -2
13 14 42 24 42 6 0 6 -6 -1 -14 -10 -12 -10 -20 0 -38 13 -23 13 -23 21 12 4
19 5 41 3 48 -3 7 5 12 21 12 25 0 26 -1 11 -23 -21 -32 -33 -92 -17 -82 10 6
12 -5 7 -53 -3 -37 -1 -64 5 -68 5 -4 7 -20 4 -36 -3 -18 -2 -27 4 -23 6 3 10
0 10 -9 0 -8 -4 -16 -9 -18 -6 -1 3 -33 18 -69 71 -167 257 -369 417 -453 73
-38 34 -31 -49 8 -104 50 -211 147 -309 282 -44 60 -98 165 -98 191 -1 17 -1
17 -15 0 -13 -18 -15 -18 -52 7 -44 30 -40 34 -66 -74 -12 -46 -13 -68 -5 -77
8 -10 6 -13 -6 -13 -20 0 -21 -19 -1 -26 21 -8 10 -96 -17 -144 -25 -43 -40
-130 -26 -147 7 -9 7 -22 -2 -42 -6 -17 -9 -35 -5 -41 4 -7 -1 -14 -13 -17
-19 -4 -20 -11 -15 -74 5 -61 3 -69 -11 -63 -13 5 -16 -1 -16 -35 0 -27 4 -41
13 -41 20 0 39 -91 22 -105 -22 -16 -24 -68 -2 -60 30 11 41 -13 44 -99 3 -90
-10 -116 -22 -43 -4 23 -13 50 -20 60 -12 17 -13 17 -20 0 -4 -10 -9 -76 -11
-148 -2 -71 -9 -155 -14 -185 -29 -163 -40 -250 -40 -309 -1 -45 -4 -61 -10
-50 -11 19 -35 93 -44 134 -4 17 -16 49 -28 73 -18 36 -25 42 -54 42 -20 0
-34 6 -38 16 -9 23 -8 24 12 18 14 -5 14 -3 -3 11 -16 13 -36 16 -103 13 -74
-4 -85 -7 -112 -33 -17 -16 -30 -35 -30 -42 0 -8 -13 -26 -30 -41 -27 -26 -70
-130 -70 -174 0 -22 -6 -22 58 2 29 11 69 19 90 19 36 -1 35 -2 -11 -9 -27 -5
-63 -19 -80 -33 -18 -13 -46 -31 -62 -40 -48 -24 -80 -62 -116 -135 -18 -37
-39 -75 -47 -84 -8 -10 -11 -18 -6 -18 5 0 -1 -8 -13 -18 -19 -15 -23 -27 -24
-90 -1 -57 2 -77 16 -92 21 -24 25 -19 -46 -62 l-56 -33 27 -60 c37 -82 48
-135 51 -235 1 -56 12 -121 31 -192 48 -180 59 -256 62 -418 2 -85 8 -166 14
-180 6 -14 31 -45 56 -70 25 -24 46 -48 46 -52 0 -4 -13 -23 -30 -41 -42 -48
-40 -82 5 -101 21 -9 35 -22 35 -32 0 -27 -168 -241 -198 -253 -15 -6 -69 -17
-120 -25 -52 -8 -104 -22 -118 -30 -51 -34 -39 -101 26 -140 26 -15 65 -21
189 -29 189 -12 213 -7 321 68 83 56 95 60 220 70 129 11 186 53 184 136 -1
22 2 39 5 39 10 0 41 67 41 88 0 10 -13 49 -30 87 -26 62 -29 82 -30 172 0 56
-5 114 -11 129 -5 16 -21 70 -35 120 -23 87 -34 140 -99 489 -30 160 -77 354
-99 405 -8 19 -30 56 -49 81 l-35 46 17 39 c12 26 34 49 65 68 61 38 93 77
106 129 17 62 52 110 175 237 61 63 133 142 160 175 160 193 317 301 396 273
25 -9 34 -8 37 0 2 7 8 12 14 12 5 0 6 -9 3 -20 -4 -13 1 -31 14 -49 36 -50
126 -248 189 -416 90 -240 217 -523 262 -587 50 -72 104 -232 159 -473 41
-177 67 -270 81 -290 26 -37 43 -113 50 -226 5 -69 12 -137 15 -151 5 -20 39
-52 114 -105 2 -2 2 -6 -2 -9 -3 -4 -24 8 -45 25 -22 17 -42 31 -45 31 -3 0 2
-24 12 -53 29 -84 34 -145 16 -207 -9 -30 -22 -74 -29 -97 -10 -36 -25 -52
-98 -107 -127 -96 -145 -132 -89 -179 41 -34 182 -52 338 -43 63 4 122 10 129
13 7 2 23 25 34 49 12 24 28 44 36 44 15 0 17 9 8 34 -5 12 -9 13 -25 3 -14
-9 -21 -9 -31 1 -9 9 -6 12 17 13 17 1 35 1 41 0 12 -1 44 116 44 160 0 14 -7
34 -15 45 -23 30 -18 57 16 79 16 11 35 19 40 17 6 -1 7 2 4 8 -4 6 6 16 23
22 25 10 30 17 30 47 -1 20 3 79 7 131 7 91 5 105 -44 324 -28 126 -56 235
-61 242 -9 10 -16 9 -38 -1 -18 -9 -39 -11 -62 -6 -33 6 -35 9 -35 46 l0 40
45 0 c39 0 45 -3 48 -22 2 -15 10 -23 23 -23 15 0 19 5 15 18 -3 9 -17 59 -30
111 -23 85 -36 110 -58 111 -5 0 -8 -6 -8 -13 0 -18 -69 -39 -89 -27 -14 8
-14 9 2 15 9 4 17 11 17 15 0 7 -59 20 -115 24 -31 3 -85 32 -85 46 0 4 -22
22 -49 39 -27 18 -51 41 -54 52 -5 18 -2 19 31 12 21 -4 47 -7 60 -8 12 0 22
-3 22 -6 0 -4 21 -4 46 -1 37 4 49 1 56 -12 10 -17 48 -22 48 -6 0 16 40 12
46 -5 4 -8 10 -13 14 -10 5 3 11 1 15 -5 3 -5 15 -10 25 -10 19 0 18 4 -9 78
-16 42 -52 129 -81 192 -82 179 -130 316 -130 370 0 26 -7 83 -15 126 -8 44
-19 125 -25 182 -5 56 -19 137 -30 180 -11 42 -25 136 -31 207 -10 132 -36
356 -41 360 -2 1 -40 -3 -86 -8 -80 -10 -85 -10 -138 16 -73 36 -77 34 -26
-12 29 -27 40 -44 36 -56 -8 -19 -44 -35 -83 -35 -15 0 -32 -5 -38 -11 -14
-14 -68 13 -84 44 -6 12 -25 37 -43 55 -30 32 -30 34 -12 48 11 8 30 15 43 15
13 1 29 2 36 3 6 0 13 11 15 23 3 23 33 36 115 49 20 4 37 10 37 14 0 9 -62
24 -105 25 -16 0 -36 4 -44 9 -9 6 -12 5 -8 0 9 -16 -26 -53 -53 -56 l-25 -3
4 85 c2 47 4 86 6 88 1 2 27 -12 56 -29 42 -25 67 -33 112 -35 54 -2 58 -1 54
18 -5 17 -2 18 26 12 18 -4 46 -6 63 -5 20 1 37 -6 49 -19 21 -24 35 -26 35
-5 0 8 4 15 9 15 10 0 2 37 -25 122 -11 35 -21 48 -41 53 -23 6 -24 7 -9 24
15 16 13 24 -23 108 -21 50 -52 110 -68 134 -16 24 -33 53 -38 64 -6 15 -10 4
-16 -45 -4 -37 -3 -70 3 -77 5 -7 5 -14 -1 -17 -10 -6 -8 -103 3 -113 3 -3 -2
-16 -11 -29 -17 -27 -39 -29 -98 -13 -33 10 -37 13 -20 19 17 6 14 8 -15 15
-19 4 -50 16 -68 26 -18 10 -39 19 -47 19 -15 0 -28 27 -20 41 4 5 -1 6 -10 3
-15 -6 -16 6 -10 126 6 128 6 132 -13 126 -14 -5 -21 -1 -25 13 -2 10 -13 23
-23 29 -18 9 -19 5 -21 -55 -1 -36 -5 -68 -8 -71 -12 -12 -25 23 -19 51 5 23
3 28 -12 25 -12 -2 -20 4 -22 17 -4 17 -2 18 12 6 9 -8 20 -11 23 -7 4 4 1 11
-6 15 -10 6 0 23 38 65 28 31 51 65 51 76 0 10 5 22 10 25 16 10 11 21 -11 22
-14 1 -19 -3 -15 -12 6 -18 -33 -95 -48 -92 -5 1 -10 -7 -11 -18 0 -13 -5 -19
-15 -16 -8 2 -23 4 -32 5 -25 1 -33 44 -12 67 9 10 18 39 19 66 2 26 11 63 20
81 11 20 14 43 10 59 -6 24 -7 25 -25 8 -20 -18 -28 -61 -10 -50 16 10 12 -28
-6 -53 -8 -12 -21 -41 -29 -65 l-13 -42 -3 55 c-1 30 -2 64 -1 75 2 11 4 38 6
60 2 22 4 45 5 51 0 7 10 14 21 17 11 3 20 11 20 17 0 10 -4 10 -15 0 -22 -18
-26 -9 -15 31 6 18 10 47 10 63 0 16 7 38 16 47 14 16 15 25 5 65 -17 67 3
179 23 128 4 -10 12 -14 23 -10 27 11 93 -70 93 -114 0 -14 -9 -44 -19 -67
-15 -32 -16 -41 -5 -36 8 3 14 13 14 22 0 18 18 41 33 41 4 0 5 -5 2 -10 -4
-6 -8 -25 -10 -43 l-4 -32 15 28 c8 15 20 27 26 27 17 0 2 203 -27 366 -14 76
-25 158 -25 182 l0 44 48 -45 c77 -74 103 -91 141 -92 20 -1 44 -5 55 -10 12
-5 21 -3 27 6 5 8 9 10 9 4 0 -19 -17 -36 -38 -38 -33 -2 -17 -13 24 -15 20
-2 41 -5 46 -8 4 -3 8 0 8 5 0 13 46 15 54 3 6 -10 157 -34 225 -36 25 -1 64
1 86 4 30 5 52 1 87 -17 59 -29 62 -29 94 5 22 22 25 23 20 7 -7 -25 61 51 73
80 10 24 -16 39 -38 21 -12 -9 -13 -8 -8 7 4 10 7 21 7 23 0 2 6 4 13 4 38 0
117 170 117 252 0 34 -3 38 -24 38 -14 0 -28 -4 -31 -10 -3 -5 -14 -10 -23
-10 -10 0 -57 -32 -106 -72 -80 -64 -87 -72 -68 -79 32 -12 27 -29 -8 -29 -16
0 -30 -5 -30 -10 0 -6 3 -10 8 -9 13 2 52 -13 52 -21 0 -4 -17 -15 -37 -26
-21 -10 -40 -23 -42 -27 -5 -14 -41 25 -41 45 0 10 -5 18 -12 18 -6 0 -22 10
-34 21 -13 12 -50 40 -82 63 -168 116 -296 212 -358 267 -129 114 -248 179
-330 179 -28 0 -28 0 -9 47 8 19 15 61 15 93 0 75 -23 109 -125 180 -118 82
-130 105 -165 313 -23 137 -60 215 -140 296 -57 58 -142 110 -205 126 -48 12
-128 20 -158 17z m-47 -1253 c0 -30 -40 -75 -100 -109 -13 -8 -12 -11 5 -24
11 -8 30 -12 41 -10 12 3 25 1 28 -5 4 -6 12 -11 17 -11 6 0 7 5 4 10 -3 6 -1
10 5 10 20 0 6 -35 -15 -38 -11 -2 -28 -13 -38 -23 -19 -20 -9 -27 11 -7 9 9
12 9 12 -3 0 -20 -20 -39 -42 -39 -12 0 -18 8 -18 24 0 19 -4 23 -21 19 -13
-4 -27 2 -40 15 -24 26 -24 28 1 35 11 3 20 11 20 18 0 10 -3 10 -12 1 -14
-14 -37 -15 -57 -3 -12 8 -8 17 22 50 20 23 37 52 37 64 0 13 3 26 6 30 9 8
134 5 134 -4z"/>
<path d="M3202 15824 c-18 -35 -32 -77 -32 -93 0 -16 -6 -34 -14 -40 -7 -6
-16 -28 -20 -49 -3 -20 -9 -52 -12 -70 -6 -28 -3 -34 16 -39 16 -4 20 -11 16
-27 -3 -11 -6 -25 -6 -29 0 -5 -4 -6 -9 -3 -16 10 -22 -26 -10 -61 12 -38 25
-42 34 -12 5 13 2 25 -6 30 -11 6 -10 11 3 26 9 11 22 65 33 138 33 226 42
290 41 292 -1 1 -16 -27 -34 -63z"/>
<path d="M14750 15880 c-68 -11 -131 -33 -186 -65 -42 -25 -171 -172 -160
-182 3 -3 36 13 73 35 64 38 129 62 163 62 8 -1 -2 -10 -22 -20 -46 -25 -135
-111 -172 -166 -30 -46 -89 -195 -80 -203 3 -3 10 2 15 11 20 37 59 74 98 96
l42 24 -31 -49 c-58 -90 -90 -258 -52 -271 6 -2 12 2 12 10 1 24 59 90 117
135 52 38 108 65 183 88 l25 7 -27 -28 c-14 -16 -37 -54 -51 -85 -19 -43 -39
-67 -86 -104 -33 -26 -61 -52 -61 -56 0 -5 -8 -10 -17 -10 -10 -1 -4 -4 12 -8
17 -4 32 -3 33 1 5 11 49 10 56 0 6 -10 157 -34 225 -36 25 -1 64 1 86 4 30 5
52 1 87 -17 59 -29 62 -29 94 5 22 22 25 23 20 7 -7 -25 61 51 73 80 10 24
-16 39 -38 21 -12 -9 -13 -8 -8 7 4 10 7 21 7 23 0 2 6 4 13 4 38 0 117 170
117 252 0 33 -3 38 -23 38 -13 0 -27 -4 -33 -10 -14 -14 -115 -24 -168 -16
-78 12 -89 28 -89 132 0 62 7 114 23 172 13 48 19 87 14 92 -5 4 -33 11 -63
15 -47 6 -53 5 -48 -9 8 -20 -2 -21 -17 -1 -14 19 -86 26 -156 15z m148 -447
c0 -14 8 -33 18 -40 11 -8 19 -22 19 -31 0 -11 8 -16 20 -15 10 1 24 -6 31
-15 8 -11 27 -17 50 -17 21 0 39 -6 41 -12 3 -9 -6 -13 -26 -13 -17 0 -31 -4
-31 -10 0 -5 3 -10 8 -9 13 2 52 -13 52 -21 0 -4 -17 -15 -37 -26 -21 -10 -40
-23 -42 -27 -5 -13 -41 24 -41 43 0 10 -9 20 -19 23 -37 9 -71 94 -49 123 5 7
2 16 -6 23 -8 6 -12 21 -9 31 8 29 21 24 21 -7z"/>
<path d="M15097 15698 c-24 -61 -22 -68 16 -68 22 0 28 -3 18 -9 -8 -5 -9 -11
-3 -15 5 -3 17 3 26 13 10 11 25 16 40 14 13 -3 30 2 39 11 8 9 22 16 30 16 8
0 21 8 30 18 25 27 2 55 -38 48 -17 -2 -37 -5 -45 -5 -13 -1 -13 -2 0 -11 9
-6 10 -10 3 -10 -6 0 -14 4 -17 9 -3 5 -16 11 -28 14 -13 2 -30 7 -39 11 -12
5 -20 -3 -32 -36z"/>
<path d="M10517 15443 c-11 -11 -8 -49 8 -86 20 -47 19 -96 0 -103 -9 -4 -33
5 -55 20 -48 31 -50 32 -50 6 0 -11 -9 -46 -19 -78 -11 -32 -19 -83 -19 -117
0 -52 2 -56 10 -32 8 23 13 26 24 16 19 -15 30 -4 15 15 -9 10 -9 16 -1 21 6
4 14 4 17 1 16 -15 53 40 59 86 7 48 12 53 57 50 9 -1 17 3 17 8 0 5 10 18 22
30 l22 20 -18 55 c-11 31 -23 52 -29 48 -6 -4 -8 0 -4 9 10 27 -36 52 -56 31z"/>
<path d="M408 15385 c-20 -19 -50 -37 -65 -40 -44 -9 -110 -47 -156 -88 -23
-21 -51 -44 -62 -52 -17 -12 -18 -14 -3 -14 9 -1 19 3 23 8 15 25 160 90 172
78 8 -9 -99 -118 -126 -128 -29 -12 -61 -3 -61 17 0 20 -27 17 -49 -5 -17 -17
-18 -24 -8 -57 9 -29 20 -40 55 -55 24 -11 52 -19 62 -19 9 0 23 -7 30 -15 14
-17 85 -21 95 -5 12 19 35 11 32 -12 -2 -26 7 -27 116 -13 56 8 57 8 57 40 0
20 -8 39 -21 51 -32 29 -50 70 -50 117 -1 51 28 196 43 214 8 10 4 13 -18 13
-19 0 -42 -13 -66 -35z"/>
<path d="M588 15393 c6 -2 12 -21 12 -41 0 -32 6 -41 41 -66 34 -24 44 -26 67
-18 40 15 116 2 120 -21 3 -16 -2 -18 -32 -16 -27 3 -39 -2 -51 -17 -14 -20
-56 -36 -100 -38 -11 -1 -19 -7 -18 -13 3 -12 -9 -17 -29 -14 -13 2 -9 -18 12
-59 24 -47 25 -63 4 -81 -13 -11 -15 -27 -12 -81 6 -76 -6 -88 -40 -41 l-19
26 -7 -27 c-4 -17 -11 -24 -19 -19 -6 4 -18 8 -27 9 -8 1 -48 11 -87 23 -144
42 -338 22 -338 -34 0 -29 110 -97 210 -130 50 -16 104 -42 122 -56 39 -33 93
-43 183 -34 53 5 74 4 90 -8 13 -9 17 -17 11 -22 -19 -11 -12 -61 16 -114 l26
-52 -26 -92 c-60 -207 -60 -232 1 -384 22 -54 53 -138 70 -188 48 -142 116
-275 168 -327 25 -25 82 -66 125 -89 113 -62 184 -110 262 -178 45 -39 74 -58
84 -54 11 4 14 2 9 -5 -4 -7 -1 -12 10 -12 11 0 15 6 11 20 -4 16 0 20 20 20
25 0 25 0 8 -26 l-17 -26 41 4 c37 3 41 1 41 -19 0 -12 7 -48 16 -80 68 -249
86 -336 85 -410 0 -46 17 -72 100 -150 59 -55 114 -95 175 -127 64 -33 43 -33
-31 0 -73 32 -127 69 -189 130 l-48 48 7 -79 c9 -98 29 -131 90 -147 37 -10
44 -16 49 -44 4 -17 24 -56 44 -85 54 -76 115 -205 114 -240 0 -19 4 -29 14
-29 20 0 17 -9 -10 -35 -37 -34 -43 -114 -20 -250 19 -113 22 -255 9 -380 -7
-67 -7 -71 31 -142 44 -82 42 -88 -31 -99 -74 -12 -138 -103 -170 -240 -19
-84 -128 -295 -270 -524 -99 -159 -184 -316 -273 -505 -23 -49 -60 -123 -82
-164 -40 -73 -50 -129 -31 -160 6 -9 4 -29 -4 -52 -22 -60 -30 -176 -15 -204
17 -33 47 -42 180 -57 157 -18 681 -18 732 0 129 46 110 160 -34 208 -82 26
-143 60 -172 94 -30 36 -32 48 -11 56 8 3 19 21 25 40 9 26 23 40 58 58 26 13
54 32 63 42 9 11 64 116 122 234 105 212 193 416 287 660 26 69 73 177 103
240 71 148 84 189 101 313 19 127 39 299 42 352 1 22 5 67 9 99 l8 59 57 -134
c112 -263 135 -300 200 -334 25 -12 64 -44 88 -69 24 -25 52 -46 63 -46 10 0
19 -2 19 -6 0 -3 -18 -35 -40 -71 -22 -37 -40 -72 -40 -78 0 -7 18 -17 40 -24
22 -6 40 -16 40 -21 0 -13 94 -60 119 -60 30 0 51 -11 51 -26 0 -9 -11 -14
-29 -14 -16 0 -31 -5 -33 -11 -2 -5 -39 -12 -83 -15 -65 -4 -76 -2 -57 7 12 7
22 15 22 18 0 4 -20 26 -44 50 l-43 42 -6 -38 c-4 -21 -7 -81 -7 -133 0 -52
-6 -129 -14 -170 -8 -41 -17 -87 -20 -103 -2 -15 -8 -37 -12 -49 l-6 -21 38
22 c22 13 33 17 27 10 -7 -7 -13 -22 -13 -32 0 -15 -5 -18 -25 -15 -14 3 -25
2 -25 -3 0 -4 -3 -14 -6 -23 -5 -12 1 -14 33 -10 21 3 61 12 89 20 57 15 85 8
151 -40 l32 -23 -58 -16 c-32 -9 -91 -22 -130 -28 -39 -7 -71 -16 -71 -21 0
-5 -9 -6 -20 -3 -13 4 -20 2 -20 -7 0 -7 -10 -18 -22 -23 -18 -8 -26 -29 -44
-110 -12 -55 -25 -125 -29 -155 -8 -64 -15 -79 -64 -139 l-36 -44 -1 -161 c-2
-173 5 -202 48 -223 36 -18 515 -23 548 -6 30 15 88 16 149 2 30 -6 76 -6 150
2 119 12 115 11 166 57 28 26 39 31 50 22 11 -9 17 -5 29 19 22 42 20 74 -6
98 -38 34 -48 36 -166 43 -102 5 -116 8 -131 28 -9 12 -29 26 -44 30 -17 5
-37 23 -52 49 l-25 41 35 22 c41 25 42 31 49 220 3 74 7 144 9 155 3 11 7 41
11 66 9 62 13 86 37 214 59 328 54 298 75 450 17 125 16 421 -2 434 -5 3 -20
30 -34 58 -26 55 -44 65 -66 36 -12 -16 -13 -14 -14 19 0 66 22 84 70 58 18
-10 18 -8 5 37 -33 108 -124 318 -137 315 -42 -12 -55 -14 -75 -13 -11 0 -24
-6 -27 -14 -3 -9 -19 -15 -40 -15 -19 0 -42 -8 -51 -17 -13 -12 -21 -14 -34
-6 -24 15 -21 48 6 48 11 0 25 3 29 8 4 4 28 7 53 7 60 0 127 37 124 67 -3 29
-144 323 -155 323 -5 0 -11 -8 -14 -17 -19 -61 -35 -83 -59 -83 -14 0 -34 -9
-45 -20 -27 -27 -112 -27 -161 -1 -20 11 -62 26 -94 35 -60 15 -74 25 -142 93
-23 23 -59 51 -80 61 -42 22 -64 45 -108 110 -35 53 -39 56 -65 42 -16 -8 -25
-8 -35 0 -8 6 -23 9 -35 5 -26 -8 -62 3 -54 17 4 6 26 19 51 30 44 20 49 38
10 38 -46 0 -70 93 -36 136 9 11 -27 86 -126 269 -25 45 -45 91 -45 101 0 10
-12 74 -27 141 l-27 122 29 52 c15 29 22 49 16 44 -7 -4 -16 -18 -22 -32 -10
-27 -29 -23 -29 7 0 10 -4 22 -10 25 -5 3 -10 15 -10 27 0 15 -5 19 -19 15
-13 -3 -21 1 -24 14 -3 12 0 19 9 19 8 0 14 -5 14 -11 0 -5 5 -7 11 -3 7 4 -3
15 -25 27 -27 16 -41 34 -56 74 -11 30 -20 67 -20 83 0 16 -7 35 -15 44 -39
38 -85 196 -85 286 1 42 2 43 15 25 58 -82 78 -103 91 -98 8 3 14 -1 14 -11 0
-12 10 -15 52 -12 28 2 60 -1 70 -7 15 -10 21 -9 28 3 5 8 10 11 10 5 0 -21
-19 -37 -44 -37 -46 0 -28 -15 19 -16 25 -1 50 -4 55 -7 6 -4 10 -1 10 4 0 13
46 15 54 3 6 -10 157 -34 225 -36 25 -1 64 1 86 4 30 5 52 1 87 -17 59 -29 62
-29 94 5 22 22 25 23 20 7 -7 -25 61 51 73 80 10 24 -16 39 -38 21 -12 -9 -13
-8 -8 7 4 10 7 21 7 23 0 2 6 4 13 4 38 0 117 170 117 252 0 33 -3 38 -23 38
-13 0 -27 -4 -33 -10 -14 -14 -115 -24 -168 -16 -78 12 -89 28 -89 132 0 61 6
113 21 167 12 42 22 83 22 90 0 14 -94 67 -118 67 -14 0 -14 3 -3 -38 15 -49
-1 -38 -34 25 -16 32 -52 81 -79 110 l-49 53 26 34 c15 18 47 53 71 77 25 24
46 49 46 56 0 14 -73 58 -112 67 -48 11 -102 -19 -132 -73 -23 -43 -26 -60
-26 -149 0 -95 -1 -100 -25 -116 -37 -25 -66 -20 -136 24 -35 22 -95 57 -134
77 l-70 38 -145 0 c-164 1 -191 7 -327 71 -101 48 -164 64 -247 64 -49 0 -55
3 -99 48 l-48 49 25 44 c29 50 33 97 12 138 -19 35 -75 85 -124 110 -21 11
-81 51 -132 91 -52 39 -105 73 -119 76 -56 12 -90 26 -101 40 -7 7 -22 14 -34
13 -11 0 -15 -3 -8 -6z m392 -1234 c0 -30 -40 -75 -100 -109 -13 -8 -12 -11 5
-24 11 -8 30 -12 41 -10 12 3 25 1 28 -5 4 -6 12 -11 17 -11 6 0 7 5 4 10 -3
6 -1 10 5 10 20 0 6 -35 -15 -38 -11 -2 -28 -13 -38 -23 -19 -20 -9 -27 11 -7
9 9 12 9 12 -3 0 -20 -20 -39 -42 -39 -12 0 -18 8 -18 24 0 19 -4 23 -21 19
-13 -4 -27 2 -40 15 -24 26 -24 28 1 35 11 3 20 11 20 18 0 10 -3 10 -12 1
-14 -14 -37 -15 -57 -3 -12 8 -8 17 22 50 20 23 37 52 37 64 0 13 3 26 6 30 9
8 134 5 134 -4z m1588 -176 c0 -14 8 -33 18 -40 11 -8 19 -22 19 -31 0 -11 8
-16 20 -15 10 1 24 -6 31 -15 8 -11 27 -17 50 -17 21 0 39 -6 41 -12 3 -9 -6
-13 -26 -13 -17 0 -31 -4 -31 -10 0 -5 3 -10 8 -9 13 2 52 -13 52 -21 0 -4
-17 -15 -37 -26 -21 -10 -40 -23 -42 -27 -5 -13 -41 24 -41 43 0 10 -9 20 -19
23 -37 9 -71 94 -49 123 5 7 2 16 -6 23 -8 6 -12 21 -9 31 8 29 21 24 21 -7z
m-729 -548 c23 13 91 -73 91 -115 0 -14 -9 -44 -19 -67 -15 -32 -16 -41 -5
-36 8 3 14 13 14 22 0 18 18 41 33 41 4 0 5 -5 2 -10 -4 -6 -8 -25 -10 -43
l-4 -32 15 28 c16 29 39 34 66 13 35 -26 51 -109 23 -120 -19 -7 -20 -26 -1
-26 8 0 17 8 20 17 6 14 9 12 22 -12 8 -15 12 -36 9 -45 -3 -9 3 -24 13 -33
11 -10 25 -35 32 -58 12 -36 12 -44 -4 -70 -16 -27 -15 -49 3 -49 4 0 12 12
19 28 l12 27 -5 -34 c-4 -28 -3 -32 9 -22 12 10 19 3 39 -37 24 -47 24 -53 17
-178 -4 -73 -3 -134 2 -141 5 -7 5 -14 -1 -17 -10 -6 -8 -103 3 -113 3 -3 -2
-16 -11 -29 -17 -27 -39 -29 -98 -13 -33 10 -37 13 -20 19 17 6 14 8 -15 15
-19 4 -50 16 -68 26 -18 10 -39 19 -47 19 -15 0 -28 27 -20 41 4 5 -1 6 -10 3
-15 -6 -16 6 -10 126 6 128 6 132 -13 126 -14 -5 -21 -1 -25 13 -2 10 -13 23
-23 29 -18 9 -19 5 -21 -55 -1 -36 -5 -68 -8 -71 -12 -12 -25 23 -19 51 5 23
3 28 -12 25 -12 -2 -20 4 -22 17 -4 17 -2 18 12 6 9 -8 20 -11 23 -7 4 4 1 11
-6 15 -10 6 0 23 38 65 28 31 51 65 51 76 0 10 5 22 10 25 16 10 11 21 -11 22
-14 1 -19 -3 -15 -12 6 -18 -33 -95 -48 -92 -5 1 -10 -7 -11 -18 0 -13 -5 -19
-15 -16 -8 2 -23 4 -32 5 -25 1 -33 44 -12 67 9 10 18 39 19 66 2 26 11 63 20
81 11 20 14 43 10 59 -6 24 -7 25 -25 8 -20 -18 -28 -61 -10 -50 16 10 12 -28
-6 -53 -8 -12 -21 -41 -29 -65 l-13 -42 -3 55 c-1 30 -2 64 -1 75 2 11 4 38 6
60 2 22 4 45 5 51 0 7 10 14 21 17 11 3 20 11 20 17 0 10 -4 10 -15 0 -22 -18
-26 -9 -15 31 6 18 10 47 10 63 0 16 7 38 16 47 14 16 15 25 5 65 -11 42 -7
114 6 137 3 5 11 0 17 -9 8 -10 18 -14 25 -9z m263 -1317 c41 -24 66 -32 111
-34 54 -2 58 -1 54 18 -5 17 -2 18 26 12 18 -4 46 -6 63 -5 20 1 37 -6 49 -19
22 -24 35 -26 35 -5 0 12 6 14 28 8 15 -3 36 -6 47 -5 11 0 31 -9 45 -22 15
-15 38 -24 59 -24 18 0 49 -12 70 -25 43 -30 112 -67 124 -67 5 0 23 -11 41
-25 25 -19 40 -23 68 -19 27 5 40 2 55 -13 11 -11 33 -20 49 -20 61 0 81 -11
88 -48 4 -19 12 -35 18 -35 12 0 88 -79 88 -91 0 -4 -9 -11 -20 -14 -11 -3
-20 -11 -20 -17 0 -5 -6 -8 -14 -5 -20 8 -25 -31 -13 -99 6 -36 6 -63 0 -77
-7 -16 -5 -37 9 -76 10 -30 16 -63 12 -73 -9 -28 -37 -17 -55 21 -11 23 -27
38 -50 45 -31 10 -49 30 -117 128 -13 18 -43 60 -68 93 -24 33 -44 65 -44 70
0 6 5 3 10 -5 5 -8 10 -10 10 -5 0 20 -35 62 -48 57 -9 -2 -13 3 -12 14 5 48
-11 56 -107 54 -74 -2 -107 12 -98 41 6 17 3 19 -17 15 -13 -3 -74 -10 -136
-17 l-113 -13 -55 27 c-73 36 -77 34 -26 -12 29 -27 40 -44 36 -56 -8 -19 -44
-35 -83 -35 -15 0 -32 -5 -38 -11 -14 -14 -68 13 -84 44 -6 12 -25 37 -43 55
-30 32 -30 34 -12 48 11 8 30 15 43 15 13 1 29 2 36 3 6 0 13 11 15 23 3 23
33 36 115 49 20 4 37 10 37 14 0 9 -62 24 -105 25 -16 0 -36 4 -44 9 -9 6 -12
5 -8 0 9 -16 -26 -53 -53 -56 -20 -2 -25 1 -24 20 0 12 1 51 2 87 1 36 4 65 7
65 2 0 28 -14 57 -32z"/>
<path d="M3119 15260 c-35 -38 -66 -70 -71 -70 -4 0 -18 12 -31 26 -24 25 -25
26 -51 9 -47 -31 -29 -69 27 -58 15 3 27 1 27 -5 0 -6 12 -15 28 -20 25 -8 22
-10 -42 -25 -66 -15 -71 -15 -109 3 -40 20 -57 19 -57 -4 0 -23 90 -136 108
-136 10 0 45 9 77 21 57 20 109 22 210 7 17 -3 19 2 18 42 -1 25 -2 57 -2 73
-1 24 -4 27 -25 21 -36 -9 -49 2 -34 29 18 34 21 132 4 146 -11 10 -27 -2 -77
-59z"/>
<path d="M14094 15163 c-8 -21 -11 -29 -13 -43 -2 -22 -21 -9 -21 15 0 31 -14
31 -68 0 -139 -79 -468 -377 -507 -457 -9 -21 -21 -35 -26 -32 -9 5 -13 -8
-10 -38 1 -10 -3 -18 -8 -18 -6 0 -11 6 -11 13 0 6 -25 -26 -55 -73 -30 -47
-53 -91 -50 -97 2 -7 -4 -17 -13 -22 -10 -5 -31 -33 -46 -62 l-29 -52 39 8
c21 4 41 11 45 16 3 5 27 12 55 16 34 4 71 21 124 55 41 26 86 54 100 61 14 6
40 29 59 49 19 21 40 38 48 38 7 0 12 3 11 8 -2 13 14 42 24 42 6 0 6 -6 -1
-14 -10 -12 -10 -20 0 -38 13 -23 13 -23 21 12 4 19 5 41 3 48 -3 7 5 12 21
12 25 0 26 -1 11 -23 -21 -32 -33 -92 -17 -82 10 6 12 -5 7 -53 -3 -37 -1 -64
5 -68 5 -4 7 -20 4 -36 -3 -18 -2 -27 4 -23 6 3 10 0 10 -9 0 -8 -4 -16 -9
-18 -6 -1 3 -33 18 -69 71 -167 257 -369 417 -453 73 -38 34 -31 -49 8 -104
50 -211 147 -309 282 -44 60 -98 165 -98 191 -1 17 -1 17 -15 0 -13 -18 -15
-18 -52 7 -44 30 -40 34 -66 -74 -12 -46 -13 -68 -5 -77 8 -10 6 -13 -6 -13
-20 0 -21 -19 -1 -26 21 -8 10 -96 -17 -144 -25 -43 -40 -130 -26 -147 7 -9 7
-22 -2 -42 -6 -17 -9 -35 -5 -41 4 -7 -1 -14 -13 -17 -19 -4 -20 -11 -15 -74
5 -61 3 -69 -11 -63 -13 5 -16 -1 -16 -35 0 -27 4 -41 13 -41 20 0 39 -91 22
-105 -22 -16 -24 -68 -2 -60 22 8 40 -11 29 -31 -5 -11 -7 -26 -5 -34 3 -9 -2
-7 -12 5 -20 25 -30 11 -39 -49 -9 -57 -17 -67 -65 -73 -41 -6 -41 -6 -35 -42
l6 -36 -34 46 c-19 26 -42 65 -52 87 -16 36 -27 44 -85 67 -67 27 -131 64
-131 77 0 4 12 19 26 33 22 22 25 33 21 62 -4 20 -19 52 -35 72 -61 76 -66
111 -26 181 29 49 84 212 84 248 0 51 -75 150 -97 128 -4 -4 -9 -60 -11 -124
l-4 -118 -48 -23 c-128 -61 -265 -242 -347 -461 -14 -36 -41 -126 -60 -200
-32 -124 -35 -147 -35 -281 -1 -188 14 -242 87 -314 136 -137 342 -151 555
-39 30 16 58 30 61 32 10 5 -10 -121 -41 -258 -34 -150 -43 -206 -65 -407 -8
-76 -17 -149 -20 -163 -51 -240 -59 -511 -16 -605 26 -59 83 -122 128 -141 48
-21 160 -17 238 7 50 15 80 32 116 66 l49 46 135 1 c85 1 135 -3 135 -9 0 -15
67 -114 105 -155 17 -19 40 -56 49 -83 29 -78 106 -103 148 -47 14 20 30 30
48 30 36 0 164 37 214 61 22 12 113 69 200 127 87 58 220 138 295 176 l136 71
0 40 c0 39 1 40 40 43 27 2 43 -1 50 -12 10 -13 24 -10 111 29 140 62 235 79
405 72 167 -6 198 -18 302 -115 82 -76 111 -89 163 -72 38 13 84 62 84 91 0
54 -36 155 -81 226 -95 151 -131 189 -218 233 -104 52 -120 70 -114 121 5 37
2 43 -39 83 -54 52 -122 86 -170 86 -40 0 -290 -120 -496 -237 -64 -36 -160
-88 -212 -115 -52 -27 -85 -47 -72 -45 12 3 22 2 22 -3 0 -4 21 -5 46 -2 37 4
49 1 56 -12 10 -17 48 -22 48 -6 0 16 40 12 46 -5 4 -8 10 -13 14 -10 5 3 12
1 15 -5 8 -13 74 -6 151 16 57 15 85 8 151 -40 l32 -23 -58 -16 c-32 -9 -91
-22 -130 -28 -39 -7 -71 -16 -71 -21 0 -5 -9 -6 -20 -3 -13 4 -20 2 -20 -8 0
-18 -68 -39 -89 -27 -14 8 -14 9 2 15 9 4 17 11 17 15 0 7 -77 25 -94 21 -23
-5 -67 13 -93 37 -15 15 -45 39 -67 54 l-39 27 -51 -26 c-28 -14 -74 -40 -101
-58 -28 -18 -61 -38 -74 -45 l-24 -12 7 50 c9 73 40 184 106 389 32 100 69
228 81 284 20 95 21 119 14 289 -4 102 -8 256 -9 344 l-1 158 238 -7 c134 -4
237 -3 237 2 0 4 -20 35 -45 68 -25 33 -45 65 -45 70 0 6 5 3 10 -5 5 -8 10
-10 10 -5 0 19 -35 62 -47 58 -7 -3 -13 0 -13 5 0 5 -43 13 -95 17 -88 6 -94
8 -85 26 8 14 6 20 -10 29 -15 8 -19 17 -15 31 6 17 3 19 -17 15 -13 -3 -74
-10 -136 -17 l-113 -13 -55 27 c-73 36 -77 34 -26 -12 29 -27 40 -44 36 -56
-8 -19 -44 -35 -83 -35 -15 0 -32 -5 -38 -11 -14 -14 -68 13 -84 44 -6 12 -25
37 -43 55 -30 32 -30 34 -12 48 11 8 30 15 43 15 13 1 29 2 36 3 6 0 13 11 15
23 3 23 33 36 115 49 20 4 37 10 37 14 0 9 -62 24 -105 25 -16 0 -36 4 -44 9
-9 6 -12 5 -8 0 9 -16 -26 -53 -53 -56 l-25 -3 4 85 c2 47 4 86 6 88 1 2 27
-12 56 -29 42 -25 67 -33 112 -35 54 -2 58 -1 54 18 -5 17 -2 18 26 12 18 -4
46 -6 63 -5 20 1 37 -6 49 -19 22 -24 35 -26 35 -5 0 12 6 14 28 8 15 -3 36
-6 47 -5 11 0 31 -9 45 -22 15 -14 38 -24 58 -24 19 0 52 -13 79 -32 42 -27
49 -29 62 -15 14 14 14 18 -1 43 -9 15 -38 42 -65 59 -26 18 -58 39 -70 48
-12 8 -38 40 -59 70 -43 66 -48 69 -74 55 -16 -8 -25 -8 -35 0 -8 6 -23 9 -35
5 -26 -8 -62 3 -54 17 4 6 26 19 51 30 44 20 49 38 10 38 -46 0 -70 93 -36
136 9 11 -27 86 -126 269 -25 45 -45 91 -45 101 0 10 -12 74 -27 141 l-27 122
29 52 c15 29 22 49 16 44 -7 -4 -16 -18 -22 -32 -10 -27 -29 -23 -29 7 0 10
-4 22 -10 25 -5 3 -10 15 -10 27 0 15 -5 19 -19 15 -13 -3 -21 1 -24 14 -3 12
0 19 9 19 8 0 14 -5 14 -11 0 -5 5 -7 11 -3 7 4 -3 15 -25 27 -27 16 -41 34
-56 74 -11 30 -20 67 -20 83 0 16 -7 35 -15 43 -20 21 -65 125 -65 152 0 31
-16 41 -84 54 -80 15 -93 14 -102 -6z m75 -278 c23 13 91 -73 91 -115 0 -14
-9 -44 -19 -67 -15 -32 -16 -41 -5 -36 8 3 14 13 14 22 0 18 18 41 33 41 4 0
5 -5 2 -10 -4 -6 -8 -25 -10 -43 l-4 -32 15 28 c16 29 39 34 66 13 35 -26 51
-109 23 -120 -19 -7 -20 -26 -1 -26 8 0 17 8 20 17 6 14 9 12 22 -12 8 -15 12
-36 9 -45 -3 -9 3 -24 13 -33 11 -10 25 -35 32 -58 12 -36 12 -44 -4 -70 -16
-27 -15 -49 3 -49 4 0 12 12 19 28 l12 27 -5 -34 c-4 -28 -3 -32 9 -22 12 10
19 3 39 -37 24 -47 24 -53 17 -178 -4 -73 -3 -134 2 -141 5 -7 5 -14 -1 -17
-10 -6 -8 -103 3 -113 3 -3 -2 -16 -11 -29 -17 -27 -39 -29 -98 -13 -33 10
-37 13 -20 19 17 6 14 8 -15 15 -19 4 -50 16 -68 26 -18 10 -39 19 -47 19 -15
0 -28 27 -20 41 4 5 -1 6 -10 3 -15 -6 -16 6 -10 126 6 128 6 132 -13 126 -14
-5 -21 -1 -25 13 -2 10 -13 23 -23 29 -18 9 -19 5 -21 -55 -1 -36 -5 -68 -8
-71 -12 -12 -25 23 -19 51 5 23 3 28 -12 25 -12 -2 -20 4 -22 17 -4 17 -2 18
12 6 9 -8 20 -11 23 -7 4 4 1 11 -6 15 -10 6 0 23 38 65 28 31 51 65 51 76 0
10 5 22 10 25 16 10 11 21 -11 22 -14 1 -19 -3 -15 -12 6 -18 -33 -95 -48 -92
-5 1 -10 -7 -11 -18 0 -13 -5 -19 -15 -16 -8 2 -23 4 -32 5 -25 1 -33 44 -12
67 9 10 18 39 19 66 2 26 11 63 20 81 11 20 14 43 10 59 -6 24 -7 25 -25 8
-20 -18 -28 -61 -10 -50 16 10 12 -28 -6 -53 -8 -12 -21 -41 -29 -65 l-13 -42
-3 55 c-1 30 -2 64 -1 75 2 11 4 38 6 60 2 22 4 45 5 51 0 7 10 14 21 17 11 3
20 11 20 17 0 10 -4 10 -15 0 -22 -18 -26 -9 -15 31 6 18 10 47 10 63 0 16 7
38 16 47 14 16 15 25 5 65 -11 42 -7 114 6 137 3 5 11 0 17 -9 8 -10 18 -14
25 -9z m-159 -2880 c-4 -22 -11 -83 -14 -135 -4 -52 -9 -115 -12 -140 l-5 -45
-64 0 c-49 0 -68 -4 -85 -20 l-22 -20 15 36 c8 19 26 54 40 76 14 22 53 98 86
168 34 71 63 126 65 124 3 -3 1 -22 -4 -44z"/>
<path d="M14575 15047 c-4 -15 -12 -27 -19 -27 -6 0 -5 -4 3 -9 8 -5 11 -16 8
-24 -3 -9 -1 -17 5 -19 6 -2 11 -38 12 -90 1 -76 -2 -90 -23 -118 -20 -28 -21
-34 -9 -47 13 -13 19 -11 45 16 27 26 35 29 61 22 17 -5 33 -7 35 -4 3 2 33
-1 67 -8 83 -16 99 -34 94 -107 -4 -47 -1 -61 16 -81 25 -30 34 -23 58 49 18
53 18 57 1 94 -22 51 -94 135 -125 146 -13 5 -24 16 -24 23 0 11 8 12 43 3 23
-6 47 -15 54 -19 6 -4 14 -3 17 2 9 13 -79 41 -149 47 -68 7 -115 -7 -115 -33
-1 -17 -1 -17 -11 0 -5 9 -8 21 -5 26 3 4 1 34 -4 66 -8 50 -7 60 7 70 11 8
14 19 9 31 -6 16 -9 16 -17 4 -8 -13 -10 -13 -18 -1 -8 12 -11 9 -16 -12z"/>
<path d="M3450 14660 c0 -11 -9 -46 -19 -78 -11 -32 -19 -83 -19 -117 0 -52 2
-56 10 -32 8 23 13 26 24 16 19 -15 30 -4 15 15 -13 15 1 32 18 22 4 -3 18 5
30 18 37 39 28 98 -22 154 -25 27 -37 28 -37 2z"/>
<path d="M2767 14248 c-24 -61 -22 -68 16 -68 22 0 28 -3 18 -9 -8 -5 -9 -11
-3 -15 5 -3 17 3 26 13 10 11 25 16 40 14 13 -3 30 2 39 11 8 9 22 16 30 16 8
0 21 8 30 18 25 27 2 55 -38 48 -17 -2 -37 -5 -45 -5 -13 -1 -13 -2 0 -11 9
-6 10 -10 3 -10 -6 0 -14 4 -17 9 -3 5 -16 11 -28 14 -13 2 -30 7 -39 11 -12
5 -20 -3 -32 -36z"/>
<path d="M2245 13597 c-4 -15 -12 -27 -19 -27 -6 0 -5 -4 3 -9 8 -5 11 -16 8
-24 -3 -9 -1 -17 5 -19 6 -2 11 -38 12 -90 1 -76 -2 -90 -23 -118 -20 -28 -21
-34 -9 -47 13 -13 19 -11 45 16 27 26 35 29 61 22 17 -5 33 -7 35 -4 3 2 33
-1 67 -8 83 -16 99 -34 94 -107 -4 -47 -1 -61 16 -81 25 -30 34 -23 58 49 18
53 18 57 1 94 -22 51 -94 135 -125 146 -13 5 -24 16 -24 23 0 11 8 12 43 3 23
-6 47 -15 54 -19 6 -4 14 -3 17 2 9 13 -79 41 -149 47 -68 7 -115 -7 -115 -33
-1 -17 -1 -17 -11 0 -5 9 -8 21 -5 26 3 4 1 34 -4 66 -8 50 -7 60 7 70 11 8
14 19 9 31 -6 16 -9 16 -17 4 -8 -13 -10 -13 -18 -1 -8 12 -11 9 -16 -12z"/>
<path d="M15600 13310 c-11 -11 -20 -28 -20 -39 0 -16 -7 -18 -47 -16 -72 5
-76 -2 -27 -52 50 -50 52 -59 24 -68 -11 -3 -20 -11 -20 -17 0 -5 -6 -8 -14
-5 -20 8 -25 -31 -13 -99 6 -39 6 -63 -2 -80 -10 -22 -9 -24 19 -24 34 0 40
-15 10 -25 -11 -3 -20 -11 -20 -16 0 -21 22 -50 43 -58 45 -17 77 30 42 59
-28 23 -16 30 50 30 62 0 91 -15 43 -22 -15 -2 -24 -11 -26 -25 -4 -29 38 -58
72 -49 31 8 45 45 22 61 -9 7 -16 15 -16 19 0 8 48 8 88 0 30 -6 31 -8 25 -49
-9 -66 37 -73 52 -7 5 23 11 27 38 27 29 0 35 5 61 58 l28 57 -22 73 c-12 39
-29 93 -36 118 -14 43 -64 107 -64 81 0 -7 -13 -12 -30 -12 -25 0 -30 4 -30
25 0 15 -10 31 -25 41 -34 22 -72 6 -87 -37 -8 -25 -15 -30 -32 -25 -11 3 -24
6 -28 6 -4 0 -5 7 -2 15 9 22 -4 62 -21 69 -9 3 -24 -3 -35 -14z"/>
<path d="M9418 7385 c-37 -42 -47 -65 -29 -65 5 0 16 10 24 23 l16 22 0 -25
c1 -15 6 -31 12 -37 9 -9 -1 -26 -37 -67 -48 -56 -55 -60 -106 -71 -70 -13
-83 -17 -93 -24 -5 -5 -22 -11 -36 -15 -15 -3 -40 -18 -57 -34 -24 -23 -37
-27 -66 -24 -22 3 -36 0 -36 -7 0 -6 -6 -11 -14 -11 -15 0 -26 -21 -26 -51 0
-20 20 -24 55 -10 11 5 25 4 33 -2 16 -12 90 8 149 40 23 13 68 48 100 78 32
30 77 67 99 82 23 15 65 54 94 85 40 45 50 62 45 79 l-7 21 -26 -24 c-64 -57
-65 -57 -57 -2 4 27 9 57 12 67 8 28 -10 19 -49 -28z"/>
<path d="M13895 7211 c-119 -30 -169 -108 -178 -278 -5 -81 -3 -103 7 -103 10
0 11 -14 4 -62 -10 -75 -47 -158 -92 -208 -58 -64 -135 -187 -148 -234 -9 -34
-17 -46 -31 -46 -15 0 -18 5 -13 23 8 35 -4 67 -29 73 -12 3 -48 -4 -81 -15
-43 -14 -60 -16 -63 -8 -12 39 -33 47 -121 47 -73 0 -90 3 -104 19 -25 28 -61
34 -125 20 -109 -22 -174 -76 -244 -201 -45 -81 -47 -116 -9 -160 27 -31 28
-35 16 -63 -29 -68 -10 -154 49 -221 32 -37 42 -42 54 -32 9 7 17 8 21 2 11
-14 92 -16 139 -3 51 14 95 68 49 60 -12 -3 -26 21 -20 31 8 13 72 9 77 -4 2
-7 -3 -18 -12 -25 -14 -11 -14 -12 -1 -13 9 0 23 -12 32 -27 12 -19 18 -23 18
-12 0 18 24 32 34 22 10 -10 7 -19 -11 -40 -10 -11 -24 -18 -30 -16 -7 3 -13
0 -13 -5 0 -6 6 -13 13 -16 8 -3 3 -12 -15 -26 -16 -12 -28 -26 -28 -32 0 -6
9 -3 20 7 33 30 33 10 0 -49 -18 -31 -27 -56 -20 -56 6 0 9 -4 5 -10 -3 -5
-13 -6 -22 -3 -11 4 -14 3 -9 -6 10 -15 -15 -44 -72 -83 -24 -17 -41 -32 -38
-35 6 -7 94 57 121 87 22 24 89 70 103 70 17 0 52 -37 52 -55 0 -10 -5 -35
-12 -56 -9 -33 -23 -46 -85 -85 -41 -26 -86 -57 -99 -69 -24 -23 -25 -25 -9
-54 16 -32 29 -39 40 -21 15 24 23 7 11 -22 -13 -31 -12 -36 30 -113 47 -87
54 -91 146 -94 29 -1 48 4 51 12 4 9 8 9 15 -2 11 -15 82 -7 93 10 3 5 27 12
55 16 34 4 71 21 124 55 41 26 86 54 100 61 14 6 40 29 59 49 19 21 40 38 48
38 7 0 12 3 11 8 -2 13 14 42 24 42 6 0 6 -6 -1 -14 -10 -12 -10 -20 0 -38 13
-23 13 -23 21 12 4 19 5 41 3 48 -3 7 5 12 21 12 25 0 26 -1 11 -23 -21 -32
-33 -92 -17 -82 10 6 12 -5 7 -53 -3 -37 -1 -64 5 -68 5 -4 7 -20 4 -36 -3
-18 -2 -27 4 -23 6 3 10 -1 10 -9 0 -9 -4 -16 -10 -16 -27 0 67 -180 127 -244
39 -41 47 -44 38 -16 -9 27 9 25 28 -2 13 -19 16 -20 16 -6 1 9 -4 20 -10 23
-6 4 -8 14 -5 22 3 8 1 11 -4 8 -13 -8 -13 1 1 27 8 16 8 19 -1 13 -9 -5 -10
-1 -5 15 5 16 4 20 -5 15 -9 -5 -10 -2 -5 14 3 11 9 33 11 48 3 16 19 55 35
88 36 70 48 150 28 186 l-13 24 -6 -25 c-3 -14 -13 -25 -22 -25 -9 0 -20 -4
-24 -8 -13 -13 -42 -7 -48 9 -4 12 -2 15 9 10 19 -7 21 24 3 42 -10 10 -10 15
1 21 7 5 9 10 3 12 -15 6 17 79 35 79 8 0 11 5 8 10 -3 6 0 10 8 10 14 0 24
-30 33 -94 7 -48 14 -43 14 8 0 40 3 47 16 42 12 -4 10 1 -5 23 -23 31 -27 46
-11 36 6 -3 10 4 10 18 0 13 12 37 26 52 20 21 25 35 20 57 -3 15 -1 38 4 51
5 12 12 36 15 52 7 28 8 29 15 8 6 -15 15 -20 28 -16 14 3 30 -8 56 -41 l38
-45 43 49 c51 57 63 86 43 103 -36 29 -88 208 -88 297 1 42 2 43 15 25 58 -82
78 -103 91 -98 8 3 14 -1 14 -11 0 -12 10 -15 52 -12 28 2 60 -1 70 -7 15 -10
21 -9 28 3 5 8 10 11 10 5 0 -21 -19 -37 -44 -37 -14 0 -26 -4 -26 -8 0 -13
70 -9 71 4 0 9 81 80 188 164 21 16 23 24 17 57 -6 30 -22 53 -73 101 l-66 63
41 45 c56 61 63 110 36 269 -3 20 -2 37 3 37 10 0 55 -30 191 -128 57 -40 106
-72 108 -69 3 2 14 42 25 88 11 46 22 92 25 102 4 12 0 17 -14 17 -11 0 -22 7
-25 15 -7 15 -77 49 -85 40 -3 -3 0 -11 6 -17 14 -14 17 -102 3 -94 -5 3 -12
22 -15 42 -9 46 -58 127 -109 181 l-41 43 33 40 c32 40 32 40 6 30 -20 -8 -30
-6 -42 5 -9 9 -30 15 -52 14 -46 -3 -156 41 -243 97 -100 64 -123 74 -179 78
-35 3 -57 10 -70 25 -11 12 -24 21 -30 21 -5 0 -9 8 -7 18 2 13 -6 18 -37 22
-30 4 -35 7 -22 12 12 5 17 16 15 30 -2 19 -10 24 -40 26 -21 2 -45 -1 -55 -7
-12 -6 -25 -5 -43 4 -34 17 -99 25 -135 16z m75 -165 c0 -8 10 -27 23 -41 20
-24 25 -25 51 -15 26 9 32 8 57 -16 18 -17 34 -24 44 -20 11 4 30 -5 52 -25
20 -17 45 -35 58 -41 16 -7 21 -16 18 -33 -6 -30 22 -55 113 -102 l72 -37 8
-56 c4 -30 8 -62 9 -70 22 -149 15 -300 -13 -300 -18 0 -332 -301 -332 -319 0
-16 18 -23 23 -9 3 7 6 3 6 -10 1 -12 -6 -39 -16 -60 -17 -40 -20 -46 -22 -62
-3 -23 -21 -8 -21 18 0 15 -3 37 -6 49 -6 23 -6 23 -33 4 -43 -31 -78 -70 -95
-106 -11 -23 -26 -37 -44 -41 -15 -3 -48 -12 -74 -19 -26 -7 -50 -10 -53 -7
-3 3 -5 31 -5 62 0 89 -44 111 -81 39 l-20 -41 -26 23 c-30 29 -53 71 -53 99
0 11 14 47 30 80 40 79 38 98 -11 145 -22 22 -47 52 -54 66 -13 24 -12 28 4
43 10 9 30 16 44 16 32 0 35 15 6 30 -30 16 -18 36 19 32 26 -3 32 0 32 16 0
11 -6 25 -13 31 -11 9 -9 21 15 68 15 32 27 65 26 73 -1 8 10 33 24 55 35 53
55 124 73 255 8 62 34 151 51 178 30 46 114 81 114 48z m-620 -727 c0 -30 -40
-75 -100 -109 -13 -8 -12 -11 5 -24 11 -8 30 -12 41 -10 12 3 25 1 28 -5 4 -6
12 -11 17 -11 6 0 7 5 4 10 -3 6 -1 10 5 10 20 0 6 -35 -15 -38 -11 -2 -28
-13 -38 -23 -19 -20 -9 -27 11 -7 9 9 12 9 12 -3 0 -20 -20 -39 -42 -39 -12 0
-18 8 -18 24 0 19 -4 23 -21 19 -13 -4 -27 2 -40 15 -24 26 -24 28 1 35 11 3
20 11 20 18 0 10 -3 10 -12 1 -14 -14 -37 -15 -57 -3 -12 8 -8 17 22 50 20 23
37 52 37 64 0 13 3 26 6 30 9 8 134 5 134 -4z"/>
<path d="M1328 7031 c-63 -20 -168 -102 -168 -131 0 -9 -16 -28 -36 -42 -19
-14 -43 -41 -52 -59 -10 -20 -24 -33 -34 -33 -19 2 -34 -29 -23 -46 4 -6 2
-17 -4 -24 -13 -15 0 -103 23 -158 21 -50 20 -87 -4 -143 -22 -50 -27 -120 -9
-130 5 -4 33 3 61 15 l50 22 29 -35 c16 -19 64 -64 107 -100 45 -37 84 -79 92
-96 12 -31 11 -33 -19 -59 -31 -26 -33 -30 -42 -135 -5 -59 -14 -115 -20 -125
-6 -9 -46 -46 -89 -82 -43 -36 -95 -90 -115 -120 -35 -53 -37 -58 -33 -130 2
-59 9 -87 32 -130 39 -75 217 -331 281 -405 28 -33 70 -88 93 -121 23 -34 60
-77 83 -95 23 -18 55 -53 71 -78 27 -44 28 -48 28 -184 0 -118 4 -158 30 -268
42 -183 53 -288 53 -509 0 -172 -3 -210 -26 -325 -31 -152 -32 -155 -12 -155
18 0 19 -12 3 -28 -14 -14 -6 -15 50 -12 23 1 32 -2 31 -12 -2 -7 7 -35 19
-62 12 -27 22 -64 22 -82 0 -44 14 -43 57 6 20 22 42 40 50 40 7 0 12 3 11 8
-2 13 14 42 24 42 6 0 6 -6 -1 -14 -10 -12 -10 -20 0 -38 13 -23 13 -23 21 12
4 19 5 41 3 48 -3 7 5 12 21 12 25 0 26 -1 11 -23 -21 -32 -33 -92 -17 -82 10
6 12 -5 7 -53 -3 -37 -1 -64 5 -68 5 -4 7 -20 4 -36 -3 -18 -2 -27 4 -23 6 3
10 0 10 -9 0 -8 -4 -16 -9 -18 -16 -5 42 -130 98 -210 53 -78 186 -216 239
-250 l31 -19 21 73 c11 40 34 107 50 149 35 89 37 102 11 94 -13 -4 -20 0 -24
14 -2 10 -13 23 -23 29 -18 9 -19 5 -21 -55 -1 -36 -5 -68 -8 -71 -12 -12 -25
23 -19 51 5 23 3 28 -12 25 -12 -2 -20 4 -22 17 -4 17 -2 18 12 6 9 -8 20 -11
23 -7 4 4 1 11 -6 15 -10 6 0 23 38 65 28 31 51 65 51 76 0 10 5 22 10 25 16
10 11 21 -11 22 -14 1 -19 -3 -15 -12 6 -18 -33 -95 -48 -92 -5 1 -10 -7 -11
-18 0 -13 -5 -19 -15 -16 -8 2 -23 4 -32 5 -25 1 -33 44 -12 67 9 10 18 39 19
66 2 26 11 63 20 81 11 20 14 43 10 59 -6 24 -7 25 -25 8 -20 -18 -28 -61 -10
-50 16 10 12 -28 -6 -53 -8 -12 -21 -41 -29 -65 l-13 -42 -3 55 c-1 30 -2 64
-1 75 2 11 4 38 6 60 2 22 4 45 5 51 0 7 10 14 21 17 11 3 20 11 20 17 0 10
-4 10 -15 0 -22 -18 -26 -9 -15 31 6 18 10 47 10 63 0 16 7 38 16 47 14 16 15
25 5 65 -17 67 3 179 23 128 4 -10 12 -14 23 -10 27 11 93 -70 93 -114 0 -14
-9 -44 -19 -67 -15 -32 -16 -41 -5 -36 8 3 14 13 14 22 0 18 18 41 33 41 4 0
5 -5 2 -10 -4 -6 -8 -25 -10 -43 l-4 -32 15 28 c16 29 39 34 66 13 35 -26 51
-109 23 -120 -19 -7 -20 -26 -1 -26 8 0 17 8 20 17 6 14 9 12 22 -12 8 -15 12
-36 9 -45 -3 -9 3 -24 13 -33 11 -10 25 -35 32 -58 12 -36 12 -44 -4 -70 -16
-27 -15 -49 3 -49 4 0 12 12 19 28 l12 27 -5 -34 c-4 -28 -3 -32 9 -22 12 10
19 3 39 -37 24 -47 24 -53 17 -178 -4 -73 -3 -134 2 -141 5 -7 5 -14 -1 -17
-10 -6 -8 -103 3 -113 3 -3 -2 -16 -11 -29 -17 -27 -39 -29 -98 -13 -33 10
-36 13 -20 19 17 6 16 8 -9 14 -16 4 -30 5 -32 3 -2 -2 7 -36 20 -75 14 -40
28 -92 31 -117 4 -24 14 -50 22 -57 9 -7 42 -13 75 -14 55 -2 59 -1 55 18 -5
17 -2 18 26 12 18 -4 46 -6 63 -5 20 1 37 -6 49 -19 22 -24 35 -26 35 -5 0 12
6 14 28 8 15 -3 36 -6 47 -5 11 0 31 -9 45 -22 15 -14 38 -24 57 -24 17 0 41
-6 52 -12 20 -10 21 -8 21 34 0 35 -4 46 -19 51 -33 10 -70 44 -107 101 -43
65 -48 68 -74 54 -16 -8 -25 -8 -35 0 -8 6 -23 9 -35 5 -26 -8 -62 3 -54 17 4
6 26 19 51 30 44 20 49 38 10 38 -46 0 -70 93 -36 136 9 11 -27 86 -126 269
-25 45 -45 91 -45 101 0 10 -12 74 -27 141 l-27 122 29 52 c15 29 22 49 16 44
-7 -4 -16 -18 -22 -32 -10 -27 -29 -23 -29 7 0 10 -4 22 -10 25 -5 3 -10 15
-10 27 0 15 -5 19 -19 15 -13 -3 -21 1 -24 14 -3 12 0 19 9 19 8 0 14 -5 14
-11 0 -5 5 -7 11 -3 7 4 -3 15 -25 27 -27 16 -41 34 -56 74 -11 30 -20 67 -20
83 0 16 -7 35 -15 44 -39 38 -85 196 -85 286 1 42 2 43 15 25 58 -82 78 -103
91 -98 8 3 14 -1 14 -11 0 -12 10 -15 52 -12 28 2 60 -1 70 -7 15 -10 21 -9
28 3 5 8 10 11 10 5 0 -21 -19 -37 -44 -37 -46 0 -28 -15 19 -16 25 -1 50 -4
55 -7 6 -4 10 -1 10 4 0 13 46 15 54 2 6 -10 175 -35 231 -34 95 1 118 3 111
10 -4 4 8 12 26 19 38 12 47 39 28 85 -12 29 -30 39 -30 17 0 -6 -9 -3 -20 7
-11 10 -20 26 -20 35 0 10 -9 20 -19 23 -37 9 -71 94 -49 123 5 7 2 16 -6 23
-8 6 -12 21 -9 31 8 29 21 24 21 -7 0 -14 8 -33 18 -40 11 -8 19 -21 19 -30 0
-9 6 -18 14 -21 10 -3 12 0 7 14 -4 11 -25 83 -46 161 -36 132 -217 678 -255
768 -9 22 -53 116 -97 208 -44 92 -79 169 -77 171 2 2 49 0 104 -5 160 -15
294 7 406 68 118 63 120 214 7 538 -39 110 -42 129 -43 221 0 74 -4 106 -15
119 -8 10 -48 33 -89 52 -41 18 -77 35 -79 37 -2 3 4 17 14 33 10 15 18 29 19
30 0 1 56 7 125 13 68 6 131 15 140 20 11 6 21 5 27 -1 22 -22 83 41 83 86 0
20 -20 19 -36 -2 -12 -16 -13 -12 -8 29 9 69 -3 114 -42 157 l-34 38 37 6 c69
11 300 20 327 13 18 -4 33 -21 50 -55 36 -71 86 -111 139 -111 51 0 97 26 125
71 27 45 45 138 37 196 -9 70 -37 164 -51 170 -6 2 -56 -16 -109 -42 -54 -25
-100 -43 -103 -40 -4 3 0 10 8 15 12 7 13 13 4 27 -12 19 -44 19 -55 1 -4 -6
-12 -7 -18 -4 -6 4 -11 1 -11 -6 0 -36 -29 -48 -230 -92 -113 -25 -261 -54
-330 -66 -69 -11 -140 -23 -159 -26 -33 -5 -33 -5 -17 18 20 28 20 52 1 68
-16 13 -58 -7 -109 -55 l-28 -26 7 41 c4 22 3 40 -2 40 -5 0 -10 10 -10 22 -3
30 -32 50 -65 44 -17 -3 -28 0 -32 9 -7 20 -63 19 -100 0 -15 -8 -37 -15 -48
-15 -32 0 -64 -46 -88 -128 l-22 -79 -60 -11 c-33 -6 -68 -18 -77 -26 -10 -10
-73 -22 -171 -35 -85 -11 -156 -18 -157 -17 -2 1 -5 22 -8 45 -8 63 -29 105
-64 130 -23 16 -31 30 -31 52 0 16 -9 38 -21 50 -13 13 -17 24 -11 32 19 25
64 156 59 171 -9 22 -61 20 -124 -4 l-52 -19 -58 43 c-32 24 -74 51 -93 61
-51 26 -144 29 -212 6z m1824 -546 c4 -31 1 -35 -19 -35 -24 0 -34 -29 -10
-31 10 0 10 -2 0 -6 -7 -2 -13 -11 -13 -19 0 -8 -10 -14 -26 -14 -15 0 -23 4
-19 10 12 19 -6 71 -30 86 -30 20 -63 10 -77 -22 -13 -27 -16 -28 -40 -10 -11
8 -15 20 -12 33 5 18 18 23 77 31 40 5 93 10 118 11 46 1 47 1 51 -34z m-720
-102 c15 -78 15 -78 -8 -92 -12 -8 -28 -25 -35 -38 -7 -13 -16 -23 -21 -23
-24 0 -78 31 -93 53 -21 32 -25 97 -9 135 11 26 19 31 56 35 104 9 93 16 110
-70z m-232 31 c-24 -62 2 -149 59 -197 33 -27 98 -50 129 -45 18 3 18 -1 3
-47 -6 -16 -13 -42 -15 -56 -3 -14 -17 -43 -32 -65 -15 -21 -31 -52 -37 -69
-18 -55 -21 -56 -131 -49 -96 5 -104 8 -156 43 -72 50 -114 71 -140 71 -18 0
-20 6 -20 73 l0 73 41 18 c83 37 122 133 83 207 -8 17 -14 33 -12 35 2 2 53
10 114 17 60 8 112 15 116 16 4 0 3 -11 -2 -25z"/>
<path d="M8786 6796 c-33 -52 -74 -155 -100 -255 -15 -58 -32 -114 -36 -127
-7 -17 -5 -23 11 -27 29 -8 24 -37 -6 -37 -14 0 -25 -4 -25 -10 0 -5 9 -10 20
-10 17 0 20 -7 20 -38 0 -48 -32 -85 -48 -56 -13 23 -14 19 -57 -141 -34 -130
-119 -437 -131 -477 -4 -13 -16 -18 -38 -18 l-33 0 -9 73 c-4 39 -8 125 -8
189 -1 68 -5 121 -12 128 -5 5 -44 20 -85 31 -58 16 -96 20 -179 17 l-105 -3
-62 -43 c-35 -24 -63 -49 -63 -55 0 -7 7 -24 14 -39 17 -33 17 -33 -56 -47
-32 -6 -68 -16 -81 -23 -52 -30 -157 -113 -147 -116 6 -2 21 4 32 14 21 19 21
19 15 -7 -5 -20 -2 -29 10 -33 15 -6 13 -10 -11 -29 l-28 -22 62 -120 61 -119
-38 -19 c-21 -11 -39 -21 -41 -22 -2 -1 6 -19 17 -39 l21 -36 -30 -21 c-35
-27 -30 -44 8 -26 32 15 82 11 82 -7 0 -6 -21 -33 -47 -58 -55 -53 -80 -59
-164 -39 -35 8 -68 11 -85 6 -16 -5 -32 -8 -35 -7 -13 2 -160 -207 -235 -335
-104 -175 -109 -181 -226 -261 -57 -39 -132 -99 -168 -132 -119 -112 -204
-186 -277 -239 -85 -62 -94 -62 -193 -2 l-64 39 -46 -31 c-25 -16 -46 -31 -48
-33 -2 -1 1 -12 7 -23 6 -11 47 -38 90 -59 62 -30 77 -42 70 -53 -14 -22 -10
-75 6 -89 11 -9 14 -23 10 -44 -5 -23 -1 -37 15 -54 17 -18 21 -31 16 -54 -6
-30 17 -77 52 -105 22 -18 95 -16 186 6 105 25 132 59 82 104 -20 18 -22 25
-14 48 11 32 11 32 142 -29 l78 -36 24 27 c13 16 24 34 24 41 0 7 -36 29 -80
50 -83 40 -99 56 -55 56 42 0 87 24 150 80 33 29 89 72 125 96 36 23 84 63
107 88 28 30 70 58 128 86 129 61 275 210 349 359 19 36 43 74 55 85 20 18 21
18 79 -40 74 -75 138 -170 154 -227 10 -39 9 -57 -10 -134 -33 -133 -27 -184
25 -218 29 -20 29 -43 -2 -109 -14 -30 -34 -103 -45 -162 -12 -60 -31 -157
-44 -217 -18 -84 -20 -110 -10 -118 8 -7 14 -6 17 3 3 7 6 3 6 -10 1 -12 -6
-39 -16 -60 -17 -40 -20 -46 -22 -62 0 -5 -7 -10 -14 -10 -17 0 -54 -185 -66
-335 -12 -150 -17 -160 -85 -179 -48 -14 -56 -20 -56 -40 0 -42 11 -56 62 -82
l50 -25 -4 -52 c-3 -29 -18 -113 -33 -188 l-29 -137 36 -43 c86 -106 201 -204
294 -253 73 -38 34 -31 -49 8 -81 39 -150 94 -229 184 -32 36 -56 55 -59 48
-12 -20 -39 -239 -51 -396 -12 -171 -5 -707 12 -1004 13 -211 9 -231 -55 -277
-24 -17 -55 -53 -70 -81 -24 -43 -36 -54 -103 -86 -54 -26 -84 -47 -99 -71
-29 -43 -29 -57 2 -77 36 -23 315 -38 450 -24 208 22 258 30 280 44 34 23 49
77 41 157 -3 38 -9 100 -12 138 -4 38 -4 82 0 97 l7 27 77 -7 c346 -31 344
-31 370 -61 21 -25 24 -36 19 -80 -3 -28 -19 -87 -36 -131 -17 -43 -31 -96
-31 -117 0 -33 4 -40 33 -52 17 -7 48 -16 67 -20 32 -6 35 -9 35 -43 1 -20 2
-72 3 -114 l2 -78 40 0 40 0 0 109 0 110 58 6 c179 20 217 75 216 308 l0 129
30 -6 c63 -11 212 -9 237 4 204 106 370 416 417 783 l9 67 -31 20 c-17 10 -56
48 -86 84 -39 46 -60 64 -72 60 -11 -3 -29 9 -54 35 -30 34 -39 39 -55 30 -10
-5 -19 -17 -19 -25 0 -33 -30 -74 -55 -74 -14 0 -34 -9 -45 -20 -27 -27 -112
-27 -162 0 -20 11 -58 25 -85 31 -26 7 -56 16 -65 21 -36 18 -18 -26 21 -54
30 -22 45 -26 73 -21 27 4 40 1 55 -14 11 -11 33 -20 49 -20 61 0 81 -11 88
-48 4 -19 12 -35 18 -35 12 0 88 -79 88 -91 0 -4 -9 -11 -20 -14 -11 -3 -20
-11 -20 -17 0 -5 -6 -8 -14 -5 -20 8 -25 -31 -13 -99 6 -36 6 -63 0 -77 -7
-16 -5 -37 9 -76 10 -30 16 -63 12 -73 -9 -28 -37 -17 -55 21 -11 23 -27 38
-50 45 -31 10 -49 30 -117 128 -13 18 -43 60 -68 93 -24 33 -44 65 -44 70 0 6
5 3 10 -5 5 -8 10 -10 10 -5 0 20 -35 62 -49 57 -10 -3 -12 1 -9 16 5 19 -6
51 -16 42 -2 -3 -6 -25 -9 -50 -6 -52 -52 -195 -94 -290 -36 -81 -82 -170 -88
-170 -3 0 10 30 29 68 49 97 89 235 120 414 l7 38 -61 0 c-74 0 -104 13 -95
41 6 17 3 19 -17 15 -13 -3 -74 -10 -136 -17 l-113 -13 -55 27 c-73 36 -77 34
-26 -12 29 -27 40 -44 36 -56 -8 -19 -44 -35 -83 -35 -15 0 -32 -5 -38 -11
-14 -14 -68 13 -84 44 -6 12 -25 37 -43 55 -30 32 -30 34 -12 48 11 8 30 15
43 15 13 1 29 2 36 3 6 0 13 11 15 23 3 23 33 36 115 49 20 4 37 10 37 14 0 9
-62 24 -105 25 -16 0 -36 4 -44 9 -9 6 -12 5 -8 0 9 -16 -26 -53 -53 -56 l-25
-3 4 85 c2 47 4 86 6 88 1 2 27 -12 56 -29 42 -25 67 -33 112 -35 54 -2 58 -1
54 18 -5 17 -2 18 26 12 18 -4 46 -6 63 -5 20 1 37 -6 49 -19 22 -24 35 -26
35 -5 0 12 6 14 28 8 15 -3 36 -6 47 -5 11 0 31 -9 45 -22 16 -15 38 -24 59
-24 19 0 46 -9 60 -20 14 -10 41 -26 59 -36 l32 -17 0 30 c0 35 -49 90 -108
120 -41 21 -63 44 -107 109 -35 53 -39 56 -65 42 -16 -8 -25 -8 -35 0 -8 6
-23 9 -35 5 -26 -8 -62 3 -54 17 4 6 26 19 51 30 44 20 49 38 10 38 -46 0 -70
93 -36 136 9 11 -27 86 -126 269 -25 45 -45 91 -45 101 0 10 -12 74 -27 141
l-27 122 29 52 c15 29 22 49 16 44 -7 -4 -16 -18 -22 -32 -10 -27 -29 -23 -29
7 0 10 -4 22 -10 25 -5 3 -10 15 -10 27 0 15 -5 19 -19 15 -13 -3 -21 1 -24
14 -3 12 0 19 9 19 8 0 14 -5 14 -11 0 -5 5 -7 11 -3 7 4 -3 15 -25 27 -27 16
-41 34 -56 74 -11 30 -20 67 -20 83 0 16 -7 35 -15 44 -39 38 -85 196 -85 286
1 42 2 43 15 25 58 -82 78 -103 91 -98 8 3 14 -1 14 -11 0 -12 10 -15 52 -12
28 2 60 -1 70 -7 15 -10 21 -9 28 3 5 8 10 11 10 5 0 -21 -19 -38 -44 -37 -46
0 -28 -15 19 -16 25 -1 50 -4 55 -7 6 -4 10 -1 10 4 0 13 46 15 54 3 12 -20
306 -47 320 -31 8 9 15 132 10 159 -4 15 -14 30 -24 33 -37 9 -70 94 -48 123
5 7 2 16 -6 23 -8 6 -12 21 -9 31 8 29 21 24 21 -7 0 -14 8 -33 18 -40 11 -8
19 -22 19 -31 0 -11 8 -16 20 -15 11 1 24 -6 29 -14 6 -12 15 4 31 62 l23 78
-20 17 c-31 25 -30 156 2 277 24 92 24 93 5 107 -11 9 -26 16 -33 16 -8 0 -26
10 -40 21 l-27 22 27 -7 c17 -4 28 -2 31 7 3 7 6 5 6 -5 1 -14 46 -48 64 -48
8 0 29 125 32 198 6 114 -50 268 -134 372 l-36 45 42 -34 c50 -40 100 -102
134 -166 13 -25 28 -45 33 -45 5 0 6 3 3 7 -4 3 9 25 28 49 19 23 35 46 35 51
0 5 -13 22 -30 38 -16 16 -30 32 -30 36 0 4 -13 37 -30 72 -16 36 -30 71 -30
79 0 8 -4 18 -9 24 -12 13 -41 117 -41 149 0 18 -6 29 -20 32 -13 3 -20 14
-20 28 0 19 -4 22 -21 18 -15 -4 -28 2 -44 21 l-23 26 -7 -22 c-5 -19 -10 -12
-21 37 -15 64 -10 214 8 249 6 10 12 57 14 105 4 78 6 88 30 105 17 12 22 21
14 26 -8 5 17 119 88 396 89 344 99 395 93 438 -10 58 -23 68 -78 63 -24 -3
-43 -3 -43 -2 0 7 82 85 89 85 8 0 5 125 -5 188 -6 38 -26 41 -48 8z m-253
-1988 c2 -7 -3 -18 -12 -25 -14 -11 -14 -12 -1 -13 9 0 23 -12 32 -27 12 -19
18 -23 18 -12 0 18 24 32 34 22 10 -10 7 -19 -11 -40 -10 -11 -24 -18 -30 -16
-7 3 -13 0 -13 -6 0 -6 5 -11 10 -11 19 0 10 -21 -15 -32 -14 -6 -25 -18 -25
-26 0 -13 3 -13 18 1 39 35 36 10 -5 -54 -14 -21 -21 -43 -17 -53 5 -12 2 -15
-10 -10 -11 4 -15 2 -11 -8 5 -14 -54 -77 -73 -79 -55 -5 -73 -9 -95 -23 -25
-17 -55 -17 -125 1 -17 4 -23 2 -18 -5 4 -7 2 -10 -7 -6 -21 8 -38 52 -28 72
5 9 19 49 31 87 12 39 28 80 36 92 8 12 14 34 14 48 0 17 6 25 18 26 9 1 28 3
42 4 14 2 44 -1 68 -7 35 -9 46 -8 61 6 9 9 23 16 29 16 16 0 52 41 46 52 -3
4 -10 5 -16 2 -11 -7 -29 16 -22 28 8 13 72 9 77 -4z m105 -287 c25 -21 28
-55 9 -100 -13 -31 -67 -72 -150 -115 -20 -11 -37 -22 -37 -26 0 -13 -38 -18
-48 -8 -9 9 -61 16 -125 18 -22 0 -17 25 4 25 8 0 22 8 33 19 13 13 27 17 51
13 29 -5 32 -3 27 19 -2 13 0 24 6 24 6 0 40 26 74 59 55 51 110 89 129 91 3
0 16 -8 27 -19z m-709 -1396 c23 13 91 -73 91 -115 0 -14 -9 -44 -19 -67 -15
-32 -16 -41 -5 -36 8 3 14 13 14 22 0 18 18 41 33 41 4 0 5 -5 2 -10 -4 -6 -8
-25 -10 -43 l-4 -32 15 28 c16 29 39 34 66 13 35 -26 51 -109 23 -120 -19 -7
-20 -26 -1 -26 8 0 17 8 20 17 6 14 9 12 22 -12 8 -15 12 -36 9 -45 -3 -9 3
-24 13 -33 11 -10 25 -35 32 -58 12 -36 12 -44 -4 -70 -16 -27 -15 -49 3 -49
4 0 12 12 19 28 l12 27 -5 -34 c-4 -28 -3 -32 9 -22 12 10 19 3 39 -37 24 -47
24 -53 17 -178 -4 -73 -3 -134 2 -141 5 -7 5 -14 -1 -17 -10 -6 -8 -103 3
-113 3 -3 -2 -16 -11 -29 -17 -27 -39 -29 -98 -13 -33 10 -37 13 -20 19 17 6
14 8 -15 15 -19 4 -50 16 -68 26 -18 10 -39 19 -47 19 -15 0 -28 27 -20 41 4
5 -1 6 -10 3 -15 -6 -16 6 -10 126 6 128 6 132 -13 126 -14 -5 -21 -1 -25 13
-2 10 -13 23 -23 29 -18 9 -19 5 -21 -55 -1 -36 -5 -68 -8 -71 -12 -12 -25 23
-19 51 5 23 3 28 -12 25 -12 -2 -20 4 -22 17 -4 17 -2 18 12 6 9 -8 20 -11 23
-7 4 4 1 11 -6 15 -10 6 0 23 38 65 28 31 51 65 51 76 0 10 5 22 10 25 16 10
11 21 -11 22 -14 1 -19 -3 -15 -12 6 -18 -33 -95 -48 -92 -5 1 -10 -7 -11 -18
0 -13 -5 -19 -15 -16 -8 2 -23 4 -32 5 -25 1 -33 44 -12 67 9 10 18 39 19 66
2 26 11 63 20 81 11 20 14 43 10 59 -6 24 -7 25 -25 8 -20 -18 -28 -61 -10
-50 16 10 12 -28 -6 -53 -8 -12 -21 -41 -29 -65 l-13 -42 -3 55 c-1 30 -2 64
-1 75 2 11 4 38 6 60 2 22 4 45 5 51 0 7 10 14 21 17 11 3 20 11 20 17 0 10
-4 10 -15 0 -22 -18 -26 -9 -15 31 6 18 10 47 10 63 0 16 7 38 16 47 14 16 15
25 5 65 -11 42 -7 114 6 137 3 5 11 0 17 -9 8 -10 18 -14 25 -9z"/>
<path d="M16190 6349 c0 -21 -58 -135 -117 -226 -18 -29 -33 -54 -33 -57 0 -3
-13 -27 -30 -53 -16 -26 -30 -53 -30 -61 0 -8 -10 -27 -21 -44 -12 -17 -22
-44 -23 -62 -1 -17 -9 -38 -18 -46 -28 -24 -26 -49 5 -68 27 -17 28 -16 46 7
11 14 21 40 24 59 6 33 64 162 74 162 3 0 3 -6 0 -14 -3 -8 1 -20 8 -26 8 -7
13 -16 10 -20 -3 -5 -1 -10 5 -12 6 -2 12 -14 15 -28 3 -13 12 -28 20 -33 9
-5 20 -20 25 -33 5 -13 16 -24 25 -24 8 0 15 -4 15 -8 0 -16 54 -35 109 -39
46 -3 58 0 78 19 16 15 24 32 23 53 -3 45 -1 52 10 35 8 -12 10 -9 8 10 -2 14
-7 28 -13 33 -6 4 2 17 20 32 32 27 45 31 45 15 0 -5 -7 -10 -15 -10 -17 0
-20 -50 -5 -85 7 -19 8 -18 15 7 4 15 13 29 21 32 8 3 14 12 14 19 0 8 9 22
20 32 30 27 25 62 -15 102 -19 19 -35 42 -35 51 0 10 -8 31 -18 47 -15 24 -26
30 -53 30 -24 0 -35 5 -37 17 -3 15 1 16 30 7 18 -5 34 -9 36 -9 10 0 -69 97
-99 121 l-35 28 -37 -33 c-20 -18 -37 -38 -37 -44 0 -7 -4 -12 -10 -12 -15 0
-12 11 15 59 14 23 25 47 25 52 0 5 -13 15 -30 24 -29 15 -30 15 -30 -6z"/>
<path d="M8079 6294 c-29 -35 -99 -41 -99 -8 0 20 -27 17 -49 -5 -17 -17 -18
-24 -8 -57 9 -29 20 -40 55 -55 24 -11 52 -19 62 -19 9 0 23 -7 30 -15 14 -17
85 -21 95 -5 12 19 35 11 32 -12 -2 -21 2 -23 42 -21 24 1 48 6 53 11 22 22
-58 127 -131 174 -52 32 -64 34 -82 12z"/>
<path d="M8824 5562 c-20 -30 -65 -164 -58 -172 3 -2 9 2 14 10 8 13 10 12 10
-2 0 -10 -7 -18 -15 -18 -19 0 -32 -49 -16 -59 6 -4 9 -15 6 -24 -5 -11 -1
-15 12 -13 10 2 20 11 22 22 2 10 8 24 13 31 5 7 7 21 4 31 -4 12 -1 22 7 25
7 3 21 27 31 54 9 26 24 63 31 80 14 32 14 33 -14 48 -28 14 -30 13 -47 -13z"/>
<path d="M9220 5294 c-16 -41 -12 -65 11 -71 15 -4 19 -11 15 -27 -3 -11 -6
-25 -6 -29 0 -5 -4 -6 -9 -3 -16 10 -22 -26 -10 -61 11 -36 18 -40 37 -21 17
17 15 38 -3 38 -8 0 -15 4 -15 9 0 15 18 23 25 12 3 -6 20 -8 37 -6 31 4 48
19 48 43 0 6 7 12 15 12 20 0 9 -25 -37 -84 -21 -27 -38 -54 -38 -60 -1 -6
-34 -46 -74 -89 -53 -57 -77 -76 -89 -71 -9 3 -17 13 -17 20 0 26 -30 27 -64
3 -29 -20 -32 -26 -24 -45 9 -18 16 -21 43 -17 19 3 44 -1 61 -10 l28 -15 -39
-11 c-58 -16 -81 -14 -128 11 -23 12 -55 28 -70 35 l-29 13 37 -68 c41 -75 91
-132 115 -132 9 0 41 9 73 20 68 24 140 26 203 4 55 -19 64 -13 71 47 2 24 13
108 24 186 10 79 19 176 19 217 0 64 -3 75 -22 90 -21 15 -164 86 -174 86 -3
0 -9 -12 -14 -26z"/>
<path d="M9577 5153 c-2 -5 -5 -63 -5 -130 0 -67 -3 -127 -7 -133 -3 -5 -3
-10 2 -10 4 0 7 -59 5 -131 -4 -138 -1 -148 41 -149 12 0 17 8 18 28 2 23 2
24 6 5 3 -17 11 -23 30 -23 19 0 23 3 16 13 -15 17 -23 109 -16 167 5 48 7 49
20 30 12 -17 13 -27 4 -48 -14 -35 -6 -121 12 -140 13 -12 19 -12 46 2 27 14
31 22 31 57 0 31 -3 40 -14 36 -8 -3 -17 1 -20 9 -3 9 -10 13 -15 10 -5 -4 -5
9 0 32 5 20 9 54 9 76 0 31 3 36 13 27 8 -6 17 -8 20 -4 13 12 7 33 -13 50
-14 12 -20 30 -21 58 0 22 -4 49 -8 60 -8 19 -8 19 -19 -1 -6 -11 -10 -26 -10
-34 2 -36 -3 -60 -12 -60 -5 0 -10 18 -10 39 0 29 -4 40 -17 43 -16 3 -16 4 0
20 23 23 21 43 -6 61 -16 10 -28 12 -40 5 -13 -7 -17 -5 -17 11 0 21 -15 37
-23 24z"/>
<path d="M13705 4973 c-3 -15 -12 -52 -20 -82 -11 -40 -12 -58 -4 -68 9 -10 8
-13 -5 -13 -20 0 -21 -19 -1 -26 21 -8 10 -96 -17 -144 -25 -43 -40 -130 -26
-147 7 -9 7 -22 -2 -42 -6 -17 -9 -35 -5 -41 4 -7 -1 -14 -13 -17 -19 -4 -20
-11 -15 -74 5 -61 3 -69 -11 -63 -13 5 -16 -1 -16 -35 0 -28 4 -41 14 -41 13
0 25 -40 31 -100 1 -14 8 -38 15 -55 7 -16 16 -84 21 -150 5 -66 11 -131 14
-145 2 -14 16 -100 30 -190 53 -346 52 -342 123 -372 31 -14 64 -28 73 -31 12
-4 18 -23 22 -79 2 -40 16 -107 30 -148 17 -52 29 -119 37 -215 6 -77 17 -167
24 -201 7 -33 10 -71 7 -85 -3 -13 -5 -58 -5 -99 0 -60 4 -82 22 -110 29 -46
28 -84 -2 -107 -38 -30 -53 -73 -58 -163 -4 -71 -10 -99 -42 -170 -21 -47 -78
-176 -126 -288 -52 -120 -114 -244 -153 -306 -70 -111 -135 -232 -118 -222 12
8 34 -31 25 -45 -4 -7 -12 -5 -24 6 -16 14 -18 12 -38 -40 -30 -78 -22 -225
13 -225 6 0 20 -9 30 -20 22 -24 35 -26 35 -5 0 12 6 14 28 8 15 -3 36 -6 47
-5 11 0 31 -9 45 -22 15 -15 38 -24 59 -24 18 0 49 -12 70 -25 43 -30 112 -67
124 -67 5 0 23 -11 41 -25 26 -20 40 -24 65 -19 l32 7 -21 22 c-12 13 -41 28
-64 34 -31 8 -61 28 -107 72 -34 33 -77 67 -93 76 -48 24 -75 53 -113 122 -43
76 -50 144 -18 167 19 14 45 35 117 96 20 17 44 28 63 28 17 0 25 4 18 8 -8 5
-8 12 3 27 8 11 18 20 22 20 4 0 6 9 5 20 -9 72 -9 141 0 146 5 4 30 0 54 -8
32 -11 51 -13 71 -5 15 6 48 10 75 9 26 -1 47 1 47 4 0 4 24 1 54 -6 30 -7 57
-10 60 -7 3 3 6 -2 6 -11 0 -33 18 -16 39 37 13 31 20 63 16 77 -4 18 2 33 30
62 19 20 35 44 35 52 0 23 46 121 74 158 39 50 62 110 96 247 17 69 43 165 57
214 l27 88 14 -38 c7 -22 16 -74 19 -116 5 -67 3 -82 -17 -120 -13 -24 -38
-72 -56 -108 l-33 -65 25 -13 c20 -11 25 -20 22 -45 -2 -25 -8 -33 -27 -35
-13 -2 -28 1 -34 7 -16 16 -25 13 -32 -11 -4 -13 -32 -67 -62 -121 -51 -91
-54 -100 -43 -128 8 -18 10 -46 5 -75 -6 -43 -5 -46 12 -39 78 32 114 26 106
-18 -2 -12 2 -31 10 -41 14 -19 15 -19 59 2 56 28 60 27 96 -3 48 -40 47 -104
-2 -144 -32 -27 -18 -72 37 -117 18 -15 47 37 76 133 12 39 46 123 76 187 l54
116 -82 61 c-45 34 -84 66 -86 71 -2 6 31 -15 73 -46 43 -32 84 -60 92 -63 10
-4 26 22 58 88 24 52 80 168 125 258 62 127 81 175 81 207 0 30 5 45 20 55 12
8 22 31 26 54 3 22 8 43 11 48 2 4 -6 7 -19 8 l-23 0 23 11 c15 8 22 20 22 40
0 15 -4 28 -10 28 -5 0 -10 -6 -10 -13 0 -18 -69 -39 -89 -27 -14 8 -14 9 2
15 9 4 17 11 17 15 0 7 -59 20 -115 24 -31 3 -85 32 -85 46 0 4 -22 22 -49 39
-27 18 -51 41 -54 52 -5 18 -2 19 31 12 21 -4 47 -7 60 -8 12 0 22 -3 22 -6 0
-4 21 -4 46 -1 37 4 49 1 56 -12 10 -17 48 -22 48 -6 0 16 40 12 46 -5 4 -8
10 -13 14 -10 5 3 11 1 15 -5 9 -15 45 -12 51 5 4 8 1 22 -5 29 -9 11 -9 16 0
21 7 5 9 22 5 49 -3 22 -8 61 -11 86 -4 25 -26 144 -50 265 -24 121 -46 238
-49 260 -14 114 -59 247 -81 239 -8 -3 -14 6 -17 25 -3 17 -1 31 2 31 4 0 5
11 3 25 -4 18 2 31 26 51 17 14 31 34 31 43 0 35 -62 259 -113 409 -59 175
-38 160 -200 140 -97 -12 -98 -12 -152 15 -74 36 -78 34 -27 -12 29 -27 40
-44 36 -56 -8 -19 -44 -35 -83 -35 -15 0 -32 -5 -38 -11 -14 -14 -68 13 -84
44 -6 12 -25 37 -43 55 -30 32 -30 34 -12 48 11 8 30 15 43 15 13 1 28 2 35 3
7 0 15 12 18 26 6 25 27 34 108 47 43 7 41 20 -5 28 -59 9 -107 3 -123 -16 -8
-10 -26 -20 -40 -21 l-25 -3 4 80 c2 44 5 83 7 87 2 3 29 -7 60 -23 50 -25 80
-31 147 -29 16 1 17 3 5 17 -12 15 -9 15 27 8 22 -4 54 -7 71 -6 19 1 37 -6
49 -19 21 -24 35 -26 35 -5 0 18 9 19 44 5 19 -7 26 -6 26 3 0 16 -24 92 -45
144 -15 37 -20 42 -41 37 -28 -7 -74 2 -74 15 0 5 14 15 30 23 17 7 30 17 30
21 0 5 5 5 10 2 6 -3 10 -1 10 6 0 6 -8 9 -20 6 -16 -4 -20 0 -20 18 0 13 -4
26 -9 29 -14 9 -22 -23 -11 -44 8 -15 5 -24 -16 -45 -34 -34 -53 -20 -34 24 7
17 10 38 6 47 -3 8 0 25 8 36 10 13 12 29 6 47 -4 16 -6 39 -3 53 3 15 -4 42
-16 64 l-20 39 -1 -72 c-1 -40 -2 -91 -2 -113 -1 -21 4 -45 10 -53 7 -8 8 -17
3 -23 -5 -5 -11 -22 -13 -39 -2 -23 -9 -31 -27 -33 -13 -2 -28 1 -34 7 -8 8
-6 11 8 11 16 0 17 2 5 10 -8 5 -19 5 -25 1 -34 -27 -122 -14 -111 15 3 8 -7
15 -27 20 -64 14 -139 54 -175 95 -42 47 -75 69 -66 44 10 -24 -23 -18 -41 8
l-16 22 -26 -30 -26 -29 49 -44 c27 -24 78 -58 113 -76 70 -36 72 -57 2 -25
-24 10 -47 19 -52 19 -5 0 -28 14 -51 31 -24 16 -44 25 -46 20 -2 -6 -10 -11
-17 -11 -8 0 -17 -9 -20 -21 -8 -24 -30 -20 -31 7 -3 57 -4 60 -14 44 -12 -18
-12 -3 -1 25 7 15 -1 31 -33 70 -87 104 -186 269 -186 312 -1 17 -1 17 -15 -1
-13 -18 -15 -18 -42 1 -50 35 -52 35 -58 6z"/>
<path d="M9546 4379 c-4 -29 -16 -78 -26 -109 -10 -30 -18 -82 -18 -115 0 -52
2 -56 10 -32 8 23 13 26 24 16 19 -15 30 -4 15 15 -13 15 1 32 18 22 4 -3 18
5 30 18 l23 24 -20 81 c-12 44 -27 92 -35 107 -14 27 -14 27 -21 -27z"/>
<path d="M7002 3760 c-12 -10 -28 -21 -35 -23 -20 -8 25 -36 49 -31 12 3 25 1
28 -5 4 -6 12 -11 17 -11 6 0 7 5 4 10 -3 6 -1 10 4 10 17 0 13 -28 -5 -38
-25 -14 434 -202 674 -275 l82 -25 -1 21 c-3 61 -8 65 -149 113 -124 43 -388
152 -570 237 -74 34 -76 34 -98 17z"/>
<path d="M9013 3719 c-6 -6 -44 -13 -85 -16 l-75 -6 -21 -66 c-19 -57 -20 -67
-7 -74 21 -11 19 -24 -6 -30 -23 -6 -17 -27 7 -27 20 0 18 -8 -10 -33 -20 -18
-26 -35 -31 -94 l-7 -72 31 -15 c40 -21 46 -20 77 12 22 22 25 23 20 7 -7 -25
61 51 73 80 10 24 -16 39 -38 21 -12 -9 -13 -8 -8 7 4 10 7 21 7 23 0 2 6 4
13 4 38 0 117 170 117 252 0 33 -3 38 -23 38 -13 0 -28 -5 -34 -11z"/>
<path d="M2775 3507 c-4 -15 -12 -27 -19 -27 -6 0 -5 -4 3 -9 8 -5 11 -16 8
-24 -3 -9 -1 -17 5 -19 6 -2 11 -38 12 -90 1 -76 -2 -90 -23 -118 -20 -28 -21
-34 -9 -47 13 -13 19 -11 45 16 27 26 35 29 61 22 17 -5 33 -7 35 -4 3 2 33
-1 67 -8 83 -16 99 -34 94 -107 -4 -47 -1 -61 16 -81 25 -30 34 -23 58 49 18
53 18 57 1 94 -22 51 -94 135 -125 146 -13 5 -24 16 -24 23 0 11 8 12 43 3 23
-6 47 -15 54 -19 6 -4 14 -3 17 2 9 13 -79 41 -149 47 -68 7 -115 -7 -115 -33
-1 -17 -1 -17 -11 0 -5 9 -8 21 -5 26 3 4 1 34 -4 66 -8 50 -7 60 7 70 11 8
14 19 9 31 -6 16 -9 16 -17 4 -8 -13 -10 -13 -18 -1 -8 12 -11 9 -16 -12z"/>
<path d="M8335 3287 c-4 -15 -12 -27 -19 -27 -6 0 -5 -4 3 -9 8 -5 11 -16 8
-24 -3 -9 -1 -17 5 -19 6 -2 11 -38 12 -90 1 -76 -2 -90 -23 -118 -20 -28 -21
-34 -9 -47 13 -13 19 -11 45 16 27 26 35 29 61 22 17 -5 33 -7 35 -4 3 2 33
-1 67 -8 83 -16 99 -34 94 -107 -4 -47 -1 -61 16 -81 25 -30 34 -23 58 49 18
53 18 57 1 94 -22 51 -94 135 -125 146 -13 5 -24 16 -24 23 0 11 8 12 43 3 23
-6 47 -15 54 -19 6 -4 14 -3 17 2 9 13 -79 41 -149 47 -68 7 -115 -7 -115 -33
-1 -17 -1 -17 -11 0 -5 9 -8 21 -5 26 3 4 1 34 -4 66 -8 50 -7 60 7 70 11 8
14 19 9 31 -6 16 -9 16 -17 4 -8 -13 -10 -13 -18 -1 -8 12 -11 9 -16 -12z"/>
<path d="M1865 2723 c-3 -15 -12 -52 -20 -82 -11 -40 -12 -58 -4 -68 9 -10 8
-13 -5 -13 -20 0 -21 -19 -1 -26 21 -8 10 -96 -17 -144 -25 -43 -40 -130 -26
-147 7 -9 7 -22 -2 -42 -6 -17 -9 -35 -5 -41 4 -7 -1 -14 -13 -17 -19 -4 -20
-11 -15 -74 5 -61 3 -69 -11 -63 -13 5 -16 -1 -16 -35 0 -27 4 -41 13 -41 20
0 39 -91 22 -105 -22 -16 -24 -68 -2 -60 30 11 41 -13 44 -99 3 -90 -10 -116
-22 -43 -4 23 -13 50 -20 60 -12 17 -13 17 -20 0 -4 -10 -9 -76 -11 -148 -2
-71 -9 -155 -14 -185 -29 -163 -40 -250 -40 -309 -1 -45 -4 -61 -10 -50 -11
19 -35 93 -44 134 -4 17 -16 49 -28 72 -18 37 -25 43 -54 43 -20 0 -34 6 -38
16 -9 23 -8 24 12 18 14 -5 14 -3 -2 10 -30 25 -49 20 -43 -9 2 -14 2 -23 -1
-20 -8 8 -77 -233 -103 -360 -23 -109 -23 -261 0 -303 9 -18 9 -22 -2 -22 -32
0 -41 -28 -29 -88 24 -113 31 -131 58 -138 13 -4 31 -18 38 -33 24 -46 49 -59
160 -85 143 -34 202 -40 254 -27 53 15 109 63 117 101 8 37 -20 101 -68 155
-30 33 -34 43 -24 56 7 9 27 36 45 59 56 74 68 136 72 369 3 132 15 180 90
371 34 85 68 184 76 220 9 36 26 99 39 140 35 109 167 582 163 584 -2 2 -23
16 -48 33 -60 41 -150 132 -216 218 -55 74 -114 181 -114 212 -1 17 -1 17 -15
-1 -13 -18 -15 -18 -42 1 -50 35 -52 35 -58 6z"/>
<path d="M2778 1761 c29 -27 40 -44 36 -56 -8 -19 -44 -35 -83 -35 -15 0 -32
-5 -38 -11 -13 -13 -67 12 -82 38 -19 32 -12 -74 14 -235 35 -216 34 -293 -10
-432 -49 -157 -47 -225 11 -293 22 -26 25 -37 19 -74 -4 -28 -2 -49 5 -58 8
-10 8 -30 -1 -79 -10 -51 -10 -68 0 -80 17 -20 87 -34 236 -46 72 -5 184 -22
250 -36 290 -62 364 -65 463 -18 54 27 102 82 102 118 0 11 -9 30 -21 42 -19
20 -28 22 -97 18 -71 -5 -75 -4 -52 10 l25 14 -30 7 c-17 4 -39 9 -50 12 -11
3 -58 26 -105 53 -47 26 -99 51 -116 54 -27 6 -36 16 -60 69 -58 130 -60 159
-18 274 29 80 29 76 4 326 -13 137 -16 270 -7 327 7 44 7 46 -24 57 -25 10
-29 16 -24 33 6 18 3 20 -17 16 -13 -3 -74 -10 -136 -17 l-113 -13 -55 27
c-73 36 -77 34 -26 -12z"/>
<path d="M14388 579 c-10 -5 -18 -18 -18 -27 0 -9 -9 -31 -19 -49 l-20 -31 22
-6 c12 -3 53 -26 91 -51 38 -25 87 -50 110 -56 44 -12 146 -28 146 -22 0 1
-17 14 -38 28 -20 13 -62 54 -92 89 -38 46 -60 64 -72 60 -11 -3 -30 9 -55 35
-31 33 -41 39 -55 30z"/>
<path d="M13647 389 c-156 -18 -171 -26 -101 -55 19 -8 45 -31 58 -52 50 -78
94 -103 274 -151 102 -28 172 -39 172 -26 0 2 -18 28 -40 57 -22 29 -40 58
-40 63 0 6 5 3 10 -5 5 -8 10 -10 10 -5 0 20 -35 62 -48 57 -9 -2 -13 3 -12
14 5 48 -11 56 -107 54 -73 -2 -107 12 -98 41 4 10 3 18 -2 18 -4 -1 -39 -5
-76 -10z"/>
</g>
</svg>
