<?xml version="1.0" standalone="no"?>
<!DOCTYPE svg PUBLIC "-//W3C//DTD SVG 20010904//EN"
 "http://www.w3.org/TR/2001/REC-SVG-20010904/DTD/svg10.dtd">
<svg version="1.0" xmlns="http://www.w3.org/2000/svg"
 width="1327.000000pt" height="1787.000000pt" viewBox="0 0 1327.000000 1787.000000"
 preserveAspectRatio="xMidYMid meet">
<metadata>
Created by potrace 1.16, written by Peter Selinger 2001-2019
</metadata>
<g transform="translate(0.000000,1787.000000) scale(0.100000,-0.100000)"
fill="#000000" stroke="none">
<path d="M6280 17860 c-226 -21 -402 -57 -680 -140 -52 -15 -110 -31 -129 -34
-19 -3 -42 -12 -50 -20 -9 -8 -45 -26 -81 -41 -265 -111 -474 -271 -691 -530
-223 -265 -329 -510 -449 -1040 -45 -202 -49 -218 -119 -505 -27 -113 -52
-218 -55 -235 -3 -16 -41 -212 -85 -435 -173 -876 -243 -1394 -245 -1820 -2
-390 40 -566 187 -785 177 -264 533 -565 1037 -878 41 -25 106 -74 143 -108
l69 -62 -7 -406 c-10 -626 13 -780 142 -952 78 -104 247 -234 439 -340 l71
-39 7 -183 c9 -260 23 -657 36 -982 5 -154 17 -462 25 -685 8 -223 20 -522 25
-665 5 -143 14 -474 19 -735 6 -261 16 -709 22 -994 10 -410 10 -705 1 -1400
-7 -485 -15 -938 -18 -1008 -6 -122 -8 -128 -28 -128 -25 0 -273 -83 -566
-190 -721 -262 -1171 -488 -1301 -653 -22 -27 -39 -53 -39 -59 0 -6 -14 -26
-31 -46 -30 -34 -31 -36 -26 -116 17 -273 74 -512 149 -628 63 -99 253 -230
586 -404 58 -31 114 -67 125 -81 15 -18 26 -24 46 -20 15 3 43 -4 71 -18 89
-45 428 -184 580 -238 455 -161 838 -243 1125 -241 249 3 467 35 831 124 383
94 1011 328 1341 499 53 28 100 48 104 45 5 -3 9 -1 9 4 0 9 115 90 115 81 2
-14 131 143 151 184 54 105 62 273 30 587 -23 217 -27 232 -89 298 -190 201
-894 524 -1814 833 l-193 64 0 85 c0 235 42 1972 60 2510 6 168 22 766 36
1330 14 564 30 1140 34 1280 9 246 40 1517 40 1611 l0 46 91 13 c176 24 298
70 367 141 129 131 152 282 152 1010 l0 487 53 17 c28 10 111 46 182 80 361
174 611 430 706 725 114 355 316 1457 479 2620 97 692 102 730 136 1125 39
460 -6 617 -258 903 -140 159 -414 398 -605 529 -37 25 -81 56 -98 68 -56 42
-240 148 -356 206 -329 165 -679 271 -1069 324 -136 19 -598 28 -740 15z m140
-255 c0 -2 -43 -72 -96 -155 -95 -151 -109 -191 -72 -198 15 -3 244 173 396
306 l63 55 92 -7 c179 -14 490 -65 509 -84 4 -4 -15 -68 -43 -142 -78 -211
-174 -513 -204 -645 -14 -66 -30 -129 -35 -141 -11 -28 -47 -32 -370 -39 -327
-7 -389 -12 -397 -32 -13 -33 -28 -29 447 -108 151 -26 277 -48 281 -51 4 -2
3 -21 -1 -41 -5 -21 -14 -86 -21 -145 -7 -60 -15 -112 -19 -117 -3 -5 -104
-14 -225 -20 -121 -6 -247 -15 -280 -20 -33 -5 -90 -12 -127 -16 -103 -10
-150 -63 -98 -110 17 -16 49 -19 225 -26 298 -12 501 -45 480 -79 -2 -3 -9
-68 -15 -145 -7 -77 -17 -146 -23 -152 -7 -10 -51 -13 -159 -13 -113 0 -203
-8 -366 -31 -262 -36 -259 -36 -278 -64 -12 -18 -12 -28 -3 -48 14 -31 0 -28
309 -73 184 -26 276 -35 369 -35 l124 1 -7 -142 c-4 -79 -9 -156 -12 -172 -6
-28 -7 -28 -59 -21 -72 9 -519 -18 -683 -41 -65 -10 -90 -46 -59 -87 9 -13 43
-21 147 -32 209 -23 576 -84 626 -104 l20 -9 -19 -143 c-10 -79 -19 -144 -20
-145 -1 -1 -69 -5 -152 -9 -192 -8 -566 -42 -616 -55 -59 -16 -83 -68 -45 -99
6 -5 99 -15 206 -20 287 -16 558 -53 567 -78 6 -15 -24 -270 -33 -285 -3 -4
-31 -8 -62 -8 -167 0 -620 -71 -659 -102 -16 -13 -17 -60 -1 -76 8 -8 58 -12
157 -12 152 0 343 -13 446 -31 99 -17 98 -16 91 -59 -10 -61 -43 -388 -62
-600 -9 -110 -17 -306 -18 -450 -1 -217 2 -265 17 -320 40 -146 157 -314 351
-504 l121 -118 -80 4 c-44 3 -276 -1 -515 -8 -239 -7 -480 -13 -535 -13 l-100
1 -52 59 c-29 32 -53 55 -53 51 0 -4 20 -30 45 -58 l44 -51 -37 -7 c-20 -3
-75 -6 -122 -6 l-84 0 -51 48 -50 47 45 -47 44 -48 -39 0 c-43 0 -171 14 -300
31 l-80 11 -99 102 c-94 96 -102 98 -27 6 l35 -42 -30 15 c-30 15 -336 220
-454 304 -163 115 -405 343 -498 468 -72 97 -128 214 -149 315 -15 69 -18 129
-17 315 1 211 23 497 39 513 3 4 120 9 260 12 l255 5 26 26 c47 48 29 126 -35
151 -13 5 -115 20 -225 34 -246 30 -246 30 -246 52 0 9 14 96 31 193 l32 177
66 6 c36 3 138 11 225 16 88 6 171 16 185 23 33 16 47 59 31 97 -18 43 -25 45
-335 86 -66 9 -121 17 -122 18 -1 1 15 82 36 181 l37 180 54 7 c30 4 126 11
213 17 170 11 199 20 211 65 9 38 -10 75 -46 91 -31 12 -115 29 -278 56 -106
18 -102 6 -64 179 18 83 34 153 36 155 2 3 87 9 188 15 247 14 267 17 285 43
17 25 19 60 5 87 -13 25 -46 34 -260 70 -101 17 -186 33 -189 35 -6 6 14 214
22 221 3 3 54 10 114 16 264 24 334 35 356 56 25 26 25 78 -1 104 -15 15 -57
25 -188 44 -93 13 -189 28 -214 32 l-45 8 2 50 c2 27 5 63 8 80 l5 31 118 12
c172 17 383 47 415 60 36 14 61 70 47 105 -18 48 -44 56 -236 66 -99 5 -201
10 -229 10 -77 1 -78 2 -50 110 38 153 93 282 165 396 16 26 27 51 24 55 -3 5
1 9 8 9 8 0 30 16 49 36 56 59 159 139 251 197 88 55 275 143 285 134 3 -3 -8
-41 -23 -84 -29 -81 -28 -113 3 -113 35 0 330 240 345 280 3 9 247 49 265 43
6 -2 -10 -46 -38 -104 -56 -114 -60 -144 -25 -161 33 -15 57 1 198 133 190
177 177 168 260 178 87 10 148 13 148 6z m1257 -191 c304 -114 583 -272 848
-483 396 -314 574 -518 620 -713 17 -72 19 -214 5 -338 -5 -47 -14 -154 -20
-239 -6 -85 -13 -158 -15 -162 -3 -4 -30 7 -61 23 -46 25 -60 29 -79 20 -28
-13 -40 -45 -27 -69 6 -9 43 -40 84 -68 40 -29 72 -56 72 -61 -1 -5 -7 -63
-14 -129 -6 -66 -14 -122 -16 -124 -2 -3 -31 8 -63 24 -32 15 -64 24 -70 21
-25 -16 -8 -47 54 -98 73 -60 72 -57 54 -199 -14 -117 -11 -112 -65 -89 -49
22 -78 19 -88 -6 -9 -24 9 -48 69 -89 36 -25 55 -45 55 -59 0 -35 -31 -280
-38 -303 l-7 -22 -45 20 c-55 25 -90 19 -90 -16 0 -18 16 -35 66 -71 61 -44
65 -49 60 -78 -3 -17 -12 -87 -21 -156 -22 -175 -13 -164 -97 -119 -55 28 -77
35 -90 28 -38 -20 -21 -53 62 -123 93 -78 90 -63 60 -261 -11 -71 -20 -133
-20 -138 0 -4 -27 6 -60 23 -69 35 -95 37 -110 11 -15 -30 -5 -44 75 -100 50
-35 75 -59 75 -72 0 -20 -26 -197 -35 -236 l-5 -22 -48 27 c-26 16 -55 31 -64
35 -18 6 -48 -16 -48 -34 0 -12 34 -47 99 -101 l44 -38 -16 -96 c-9 -53 -18
-98 -20 -101 -3 -2 -29 8 -57 22 -48 24 -54 25 -68 11 -15 -15 -12 -21 34 -69
80 -84 77 -70 50 -204 -59 -286 -88 -369 -163 -461 -101 -124 -257 -239 -427
-317 -153 -69 -429 -145 -530 -145 -35 0 -45 4 -54 24 -5 13 -70 72 -144 131
-217 176 -387 363 -458 502 -58 117 -63 168 -63 663 0 406 11 691 27 707 15
15 358 -94 616 -195 68 -27 132 -47 142 -44 11 2 18 14 18 28 0 19 -21 38
-102 92 -171 114 -385 240 -528 310 -74 36 -136 66 -137 67 -5 3 16 288 22
293 14 14 326 -60 647 -153 103 -30 198 -55 212 -55 51 0 76 69 39 103 -44 38
-642 290 -806 339 l-79 23 6 100 c4 55 9 124 12 152 7 62 -7 62 179 1 66 -22
188 -59 270 -83 83 -24 206 -65 275 -90 70 -25 132 -42 143 -39 23 7 37 44 26
66 -17 31 -285 225 -424 305 -66 39 -302 123 -388 138 -21 4 -41 13 -43 20 -6
14 33 315 41 324 15 15 296 -97 652 -259 95 -44 185 -80 198 -80 51 0 84 70
52 111 -18 23 -107 81 -335 218 -236 142 -405 232 -481 257 l-53 17 6 66 c4
36 15 104 24 151 l17 85 30 -3 c99 -10 368 -102 639 -218 82 -35 158 -64 169
-64 55 0 76 73 33 113 -77 72 -574 339 -738 398 -49 18 -88 33 -88 35 0 14 63
301 68 310 8 14 116 -33 510 -226 201 -98 257 -122 270 -113 33 20 24 41 -38
90 -95 74 -420 305 -563 401 -86 57 -126 90 -123 99 3 8 26 85 50 171 40 141
153 477 203 607 11 28 23 58 26 68 4 9 9 17 11 17 3 0 50 -16 103 -36z m-452
-6173 c94 -11 214 -23 267 -27 111 -8 102 3 113 -137 l7 -87 -168 6 c-218 8
-302 -3 -398 -54 -99 -52 -174 -130 -225 -234 -64 -129 -76 -244 -46 -438 27
-183 66 -270 164 -368 l51 -51 -41 -11 c-40 -11 -44 -10 -98 27 -86 58 -181
160 -228 243 -40 71 -43 80 -46 170 -3 73 -11 115 -35 184 -17 49 -29 94 -26
98 10 15 6 88 -20 370 -14 152 -26 286 -26 297 0 19 7 21 113 24 334 9 477 6
642 -12z m-1621 -22 c9 -8 10 -141 1 -169 -10 -35 -35 -418 -30 -452 4 -20 2
-79 -4 -130 -15 -132 -20 -281 -11 -365 6 -61 13 -82 49 -137 46 -70 77 -154
62 -169 -11 -11 -170 69 -247 126 -85 63 -111 99 -123 177 -23 142 -11 338 49
800 16 124 32 251 36 282 l6 58 102 -6 c55 -4 105 -10 110 -15z m472 -47 c-45
-89 -137 -309 -165 -395 -22 -66 -24 -68 -55 -65 -31 3 -31 4 -31 58 1 47 13
84 83 242 45 103 82 192 82 198 0 15 38 29 83 29 l37 1 -34 -68z m194 63 c0
-3 -22 -89 -50 -192 -27 -104 -55 -213 -63 -243 -12 -52 -15 -55 -46 -58 -29
-3 -33 -1 -27 15 28 71 107 398 106 436 -1 29 -30 -48 -60 -158 -18 -66 -45
-162 -61 -212 -30 -92 -30 -93 -62 -93 -18 0 -43 -3 -56 -7 -30 -8 -32 -15 74
252 46 116 87 223 90 238 7 26 9 27 81 27 41 0 74 -2 74 -5z m42 -6 c4 -12
-19 -384 -27 -446 l-6 -43 -55 0 c-41 0 -54 3 -51 13 3 6 31 119 63 249 33
131 62 238 66 238 3 0 8 -5 10 -11z m-342 -3 c0 -2 -26 -59 -58 -127 -32 -68
-64 -140 -72 -159 -7 -19 -18 -39 -23 -45 -15 -16 -2 171 19 258 l18 77 58 0
c32 0 58 -2 58 -4z m1340 -296 c-272 -37 -370 -103 -433 -291 -29 -84 -38
-198 -28 -326 11 -135 28 -193 83 -280 43 -69 82 -102 182 -154 53 -28 65 -38
50 -43 -70 -21 -218 94 -283 221 -54 107 -87 375 -62 505 36 183 187 345 351
377 25 5 97 9 160 9 l115 0 -135 -18z m178 -80 c46 -11 92 -24 102 -30 24 -13
27 -38 41 -321 15 -319 -1 -524 -45 -584 -13 -18 -25 -20 -105 -18 -176 3
-324 66 -436 184 -72 77 -107 137 -125 220 -24 108 31 289 122 403 54 67 115
110 204 141 84 30 134 31 242 5z m-1403 -330 c119 -13 156 -24 206 -63 57 -43
129 -150 129 -191 0 -48 56 -277 86 -353 36 -90 89 -169 133 -198 39 -26 117
-50 195 -61 27 -4 65 -17 84 -30 19 -13 41 -24 50 -24 17 0 14 -339 -18 -1865
-11 -506 -25 -1203 -30 -1550 -6 -346 -17 -936 -25 -1310 -21 -982 -38 -2279
-31 -2355 3 -36 22 -124 42 -195 20 -72 47 -168 60 -215 13 -47 24 -106 24
-132 0 -87 -42 -106 -255 -115 -213 -8 -501 35 -639 96 -81 35 -81 65 -4 357
l42 159 0 245 c0 226 -6 371 -50 1215 -24 468 -32 1068 -39 2720 -10 2657 -12
2908 -23 2949 -6 21 -24 53 -40 70 -17 17 -42 63 -57 101 -51 130 -104 230
-145 275 -23 24 -46 53 -52 63 -10 20 -10 251 0 331 6 44 11 50 49 70 35 19
53 22 130 19 48 -2 129 -8 178 -13z m1650 -8219 c99 -29 239 -70 311 -93 l131
-41 -10 -32 c-8 -27 -6 -39 10 -67 38 -66 130 -59 155 13 5 16 12 29 14 29 15
0 356 -139 439 -179 122 -60 242 -138 273 -181 102 -137 -242 -368 -849 -570
-118 -39 -154 -48 -160 -38 -13 20 -189 511 -185 515 6 6 164 5 189 -2 33 -9
37 8 5 22 -22 10 -21 11 16 27 21 9 51 16 67 16 15 0 32 6 36 14 4 7 29 23 56
34 41 18 47 25 47 50 0 52 -15 56 -151 33 -67 -12 -143 -21 -170 -21 -46 0
-49 2 -68 39 -27 51 -71 94 -124 120 -62 30 -102 27 -138 -8 -50 -51 -46 -69
86 -346 87 -183 216 -451 235 -490 l19 -40 -107 -27 c-163 -42 -431 -95 -598
-117 -504 -69 -1200 -48 -1614 50 -47 11 -119 26 -160 34 -206 39 -663 190
-914 301 -278 124 -526 287 -526 347 0 12 -7 35 -15 50 -18 36 -10 54 47 100
192 154 731 348 1523 548 135 34 248 59 251 56 3 -3 -12 -78 -35 -167 -45
-178 -51 -261 -26 -348 50 -167 212 -237 580 -249 256 -8 498 23 609 79 149
74 174 187 112 506 -20 101 -36 189 -36 197 0 14 333 -66 675 -164z m-3573
-954 c-5 -109 11 -285 32 -345 15 -40 14 -42 -3 -32 -83 44 -135 197 -148 436
-8 157 -5 161 66 90 l58 -58 -5 -91z m4939 71 c7 -57 13 -159 14 -228 0 -112
-2 -130 -24 -174 -13 -26 -48 -73 -78 -105 l-54 -56 6 75 c3 41 8 170 11 285
l5 210 47 48 c25 26 49 47 53 47 4 0 13 -46 20 -102z m-4794 -80 c143 -104
553 -336 678 -384 17 -7 75 -32 130 -56 190 -84 416 -169 617 -232 48 -15 90
-27 93 -27 35 -3 153 -42 161 -54 7 -9 15 -39 18 -68 4 -29 18 -95 30 -147 13
-52 23 -96 21 -98 -4 -4 -300 59 -307 66 -4 4 -22 55 -39 112 -17 58 -37 123
-45 145 l-14 40 5 -41 c3 -22 17 -81 31 -130 14 -49 29 -97 31 -106 5 -16 0
-16 -63 3 -38 11 -87 24 -109 30 -22 5 -117 34 -211 64 -156 50 -172 57 -182
82 -16 41 -29 98 -43 188 -6 44 -16 87 -21 95 -15 24 0 -139 20 -219 10 -39
15 -71 10 -71 -5 0 -23 6 -41 14 -30 12 -36 22 -55 88 -13 41 -32 128 -43 194
-11 65 -22 121 -25 123 -30 30 11 -259 51 -361 7 -17 5 -17 -40 0 -26 9 -51
25 -57 35 -5 10 -25 75 -44 145 -29 107 -33 118 -28 67 3 -33 15 -93 25 -134
10 -41 18 -75 17 -77 -6 -4 -237 99 -373 166 -294 146 -302 158 -312 465 l-6
169 21 -14 c12 -8 56 -40 99 -72z m4623 -172 c-13 -211 -10 -294 12 -307 6 -4
-6 -18 -28 -33 -21 -14 -39 -24 -41 -23 -1 2 3 124 9 272 10 248 13 272 31
292 11 13 23 21 25 18 3 -3 0 -101 -8 -219z m-67 123 c-16 -47 -37 -351 -31
-446 l4 -62 -81 -37 c-44 -20 -86 -39 -94 -42 -11 -4 -12 16 -6 119 5 68 8
180 9 249 l1 125 50 32 c28 17 72 48 100 67 27 20 52 36 56 36 4 0 0 -19 -8
-41z m-217 -151 c-16 -118 -30 -235 -40 -342 l-11 -119 -70 -29 c-38 -16 -100
-40 -136 -53 l-66 -23 8 56 c4 32 15 136 24 234 l18 176 38 17 c21 10 80 41
131 71 51 29 97 54 101 54 5 0 6 -19 3 -42z m-300 -135 c-13 -40 -67 -416 -63
-435 2 -9 -24 -21 -91 -42 -21 -7 -21 -6 -11 17 8 18 8 42 2 81 -8 44 -7 56 3
56 24 0 24 17 -1 89 -14 39 -25 92 -25 119 l0 48 88 41 c101 48 105 49 98 26z
m-201 -277 c2 -17 6 -72 7 -122 l3 -92 -80 -25 c-44 -14 -90 -28 -102 -32 -23
-6 -23 -5 -23 87 0 51 4 98 8 103 4 6 33 30 66 55 32 24 65 55 74 68 15 23 16
23 29 6 7 -9 15 -31 18 -48z m-711 -99 c15 -24 20 -56 23 -132 2 -55 6 -111
10 -125 l5 -25 10 25 c5 14 6 61 2 108 l-6 83 33 -20 c19 -10 49 -22 67 -26
l34 -7 -7 -71 c-4 -40 -11 -76 -16 -81 -6 -7 -244 -65 -270 -66 -3 0 -6 41 -7
91 0 84 -27 237 -40 225 -2 -3 1 -54 8 -113 7 -59 11 -130 9 -158 l-4 -49 -60
-13 c-33 -7 -64 -12 -70 -13 -6 0 -9 27 -7 70 4 73 -12 202 -28 229 -6 10 -7
-42 -3 -140 3 -89 2 -158 -3 -161 -5 -3 -37 -9 -70 -13 l-61 -7 -7 79 c-9 101
-26 192 -38 199 -6 4 -6 -29 -1 -83 4 -48 8 -113 8 -143 l0 -55 -66 -3 -66 -3
-6 30 c-14 68 -28 254 -20 261 4 4 78 20 163 35 85 15 220 44 300 65 80 21
150 38 155 39 6 0 19 -14 29 -32z m486 -27 c0 -10 -5 -53 -11 -94 l-11 -74
-112 -31 c-167 -46 -180 -48 -172 -25 3 10 10 43 16 72 12 67 13 68 52 75 18
3 40 8 49 12 13 5 15 -3 11 -55 -5 -73 14 -83 23 -12 3 26 7 54 8 62 2 12 119
88 140 89 4 1 7 -8 7 -19z m-1796 -34 l39 -11 18 -105 c10 -58 22 -125 28
-150 5 -24 8 -46 6 -49 -3 -2 -33 0 -67 5 l-63 9 -41 163 -40 163 40 -7 c22
-3 58 -12 80 -18z m251 -42 c80 -11 148 -14 246 -10 l136 6 7 -102 c3 -57 9
-124 12 -150 l7 -48 -62 0 c-69 0 -60 -14 -90 140 -23 114 -27 81 -6 -40 8
-47 15 -89 15 -94 0 -9 -259 0 -355 13 l-49 6 -28 135 c-37 182 -37 174 15
166 23 -3 92 -13 152 -22z"/>
<path d="M5215 16608 c-17 -46 -135 -566 -216 -948 -121 -571 -174 -913 -184
-1180 -13 -333 38 -1522 66 -1557 7 -8 24 -13 38 -11 18 2 27 11 32 33 4 17
10 219 13 450 7 485 19 768 46 1085 11 124 24 288 30 365 27 364 122 1079 221
1672 6 39 9 79 6 87 -8 19 -46 21 -52 4z"/>
<path d="M5901 16436 c-26 -31 -226 -808 -302 -1168 -58 -278 -68 -356 -79
-580 -17 -351 -6 -1705 16 -1835 9 -58 77 -66 89 -10 2 12 9 209 15 437 13
535 37 1022 66 1340 56 626 75 787 135 1160 36 229 51 315 94 547 10 51 15 99
12 108 -8 19 -31 20 -46 1z"/>
<path d="M4244 12465 c-9 -23 2 -32 89 -65 437 -167 936 -290 1174 -290 125 0
356 57 708 175 188 63 241 84 243 99 2 10 0 22 -5 27 -5 5 -62 -2 -133 -17
-410 -83 -631 -107 -915 -101 -205 4 -238 8 -480 50 -263 47 -436 82 -577 118
-91 23 -97 23 -104 4z"/>
<path d="M8376 15662 c-2 -4 -10 -46 -16 -93 -6 -46 -15 -113 -20 -149 -6 -36
-19 -144 -30 -240 -55 -472 -106 -813 -165 -1105 -18 -93 -43 -224 -55 -290
-12 -66 -39 -209 -60 -317 -22 -108 -37 -204 -34 -213 4 -8 15 -20 26 -26 25
-13 63 10 70 43 3 13 37 139 76 280 101 366 141 581 212 1138 60 476 69 623
51 880 -5 87 -8 95 -28 98 -11 2 -24 -1 -27 -6z"/>
<path d="M8691 15237 c-5 -12 -12 -67 -15 -122 -10 -155 -36 -462 -57 -675
-22 -215 -81 -610 -115 -765 -19 -88 -64 -299 -99 -470 -35 -170 -74 -356 -86
-412 -18 -84 -20 -105 -9 -118 17 -21 27 -19 44 8 21 33 176 541 256 839 94
353 119 481 130 673 11 185 13 876 4 988 -6 66 -10 77 -26 77 -10 0 -22 -10
-27 -23z"/>
<path d="M7110 12305 c-6 -8 -8 -19 -5 -26 15 -23 301 -204 431 -271 151 -79
216 -96 459 -122 190 -21 321 -24 336 -9 22 22 1 39 -67 52 -325 63 -791 218
-1065 356 -79 41 -73 39 -89 20z"/>
<path d="M6677 4277 c-39 -29 -131 -278 -125 -339 3 -29 9 -18 52 87 26 66 61
144 77 172 16 29 29 59 29 67 0 21 -15 27 -33 13z"/>
<path d="M6762 4158 c-23 -30 -102 -285 -102 -333 0 -19 27 -8 33 13 3 9 28
84 56 165 28 82 49 153 45 158 -7 13 -20 11 -32 -3z"/>
<path d="M1326 15327 c-50 -21 -144 -61 -210 -88 -65 -27 -133 -56 -150 -65
-17 -8 -85 -37 -151 -64 -222 -89 -294 -126 -302 -157 -14 -55 -4 -100 52
-238 31 -77 104 -257 162 -400 58 -143 112 -276 121 -295 8 -19 45 -107 81
-194 66 -159 88 -193 113 -168 10 10 9 24 -3 70 l-16 57 96 0 c213 0 349 42
407 127 26 38 29 48 27 120 -1 85 -21 131 -71 167 -62 44 -198 63 -284 41 -21
-6 -53 -14 -72 -19 -36 -9 -112 -58 -161 -103 -21 -19 -32 -24 -36 -15 -4 7
-25 80 -48 162 -60 221 -62 227 -74 259 -13 35 4 50 96 85 34 13 89 36 122 52
33 16 130 57 215 92 85 35 180 76 211 90 l56 25 88 -221 c48 -122 98 -242 109
-267 12 -25 50 -117 86 -205 54 -132 69 -161 87 -163 30 -4 38 27 18 73 -8 21
-15 43 -15 49 0 7 36 11 113 11 130 0 189 8 257 35 119 47 162 102 161 205 0
35 -6 79 -14 97 -44 106 -200 152 -366 109 -86 -22 -138 -51 -206 -113 l-40
-37 -8 32 c-4 18 -9 41 -12 52 -26 107 -221 775 -231 792 -18 28 -64 53 -94
50 -12 -1 -64 -19 -114 -40z m89 -244 c17 -42 31 -80 33 -83 1 -4 -19 -15 -45
-25 -26 -10 -79 -32 -118 -50 -38 -18 -140 -61 -225 -95 -85 -35 -159 -66
-165 -71 -5 -4 -38 -18 -72 -32 l-61 -25 -10 27 c-17 45 -52 161 -52 171 0 5
30 18 68 30 37 11 119 40 182 64 63 24 178 68 255 96 77 29 147 56 155 61 24
13 24 13 55 -68z"/>
<path d="M11308 13587 c-50 -47 -47 -74 25 -227 91 -195 113 -241 175 -370
102 -214 152 -319 152 -323 0 -2 -46 -7 -102 -11 -169 -12 -311 -81 -409 -199
-80 -95 -87 -161 -28 -251 66 -98 159 -120 300 -70 113 40 261 130 339 205
l40 39 25 -50 c18 -35 31 -50 45 -50 25 0 26 26 4 78 -9 20 -27 71 -40 112
-14 41 -33 93 -44 115 -11 22 -35 85 -54 140 -63 180 -123 348 -158 441 -33
87 -34 90 -13 86 26 -4 135 23 192 49 23 10 45 19 48 19 4 0 21 6 38 14 18 8
53 23 80 35 41 17 47 24 47 49 0 54 -15 57 -173 33 -179 -26 -204 -27 -212 -2
-13 42 -66 100 -118 130 -68 39 -123 41 -159 8z"/>
<path d="M9378 10127 c-50 -47 -47 -74 25 -227 91 -195 113 -241 175 -370 102
-214 152 -319 152 -323 0 -2 -46 -7 -102 -11 -169 -12 -311 -81 -409 -199 -80
-95 -87 -161 -28 -251 66 -98 159 -120 300 -70 113 40 261 130 339 205 l40 39
25 -50 c18 -35 31 -50 45 -50 25 0 26 26 4 78 -9 20 -27 71 -40 112 -14 41
-33 93 -44 115 -11 22 -35 85 -54 140 -63 180 -123 348 -158 441 -33 87 -34
90 -13 86 26 -4 135 23 192 49 23 10 45 19 48 19 4 0 21 6 38 14 18 8 53 23
80 35 41 17 47 24 47 49 0 54 -15 57 -173 33 -179 -26 -204 -27 -212 -2 -13
42 -66 100 -118 130 -68 39 -123 41 -159 8z"/>
<path d="M2226 9232 c-7 -11 -15 -419 -18 -867 -3 -349 -2 -383 15 -408 36
-56 30 -55 598 -63 l525 -7 27 32 c17 21 27 44 27 64 0 45 -24 267 -61 565
-17 139 -29 255 -27 258 3 2 20 -2 39 -10 120 -50 298 -42 424 18 87 41 129
80 146 134 10 36 10 50 -6 102 -22 72 -71 123 -137 141 -93 25 -347 -14 -459
-72 l-37 -18 -8 57 c-8 52 -11 57 -34 57 -25 0 -25 -1 -31 -115 -3 -63 -7
-257 -8 -430 -1 -173 -3 -316 -6 -318 -5 -5 -813 13 -819 19 -4 4 -56 415 -56
445 0 9 5 12 11 8 30 -18 163 -44 230 -44 89 0 186 26 266 72 95 54 125 118
98 213 -34 115 -84 145 -242 145 -117 0 -227 -21 -332 -64 l-60 -24 -6 46 c-4
26 -8 53 -10 60 -5 13 -41 17 -49 4z m642 -1008 l322 -7 0 -83 0 -84 -133 0
c-74 0 -249 -3 -389 -7 l-256 -6 -5 29 c-3 16 -9 62 -13 103 l-6 74 78 -6 c44
-4 224 -10 402 -13z"/>
<path d="M11216 8296 c-85 -32 -122 -100 -111 -204 3 -32 10 -97 15 -147 5
-49 16 -155 25 -235 8 -80 20 -180 25 -223 21 -168 31 -248 45 -377 9 -74 20
-164 25 -200 16 -116 30 -236 30 -257 l0 -22 -42 19 c-48 21 -244 66 -328 76
-64 7 -227 -10 -315 -32 -71 -18 -217 -86 -298 -137 -68 -44 -111 -106 -128
-185 -10 -49 -9 -67 10 -141 26 -102 56 -157 113 -205 66 -57 134 -77 278 -83
99 -4 150 -1 245 15 150 26 336 79 437 125 90 41 83 48 92 -81 6 -83 16 -102
56 -102 48 0 53 18 56 188 1 86 6 407 10 712 5 305 8 585 7 621 l-2 66 122 -4
c67 -2 403 -10 746 -18 478 -11 627 -18 633 -27 4 -7 8 -30 8 -52 0 -21 4 -66
10 -100 5 -33 16 -124 25 -201 8 -77 20 -169 25 -205 16 -114 30 -235 30 -257
l0 -22 -42 19 c-48 21 -244 66 -328 76 -64 7 -227 -10 -315 -32 -71 -18 -217
-86 -298 -137 -68 -44 -111 -106 -128 -185 -10 -49 -9 -67 10 -141 26 -102 56
-157 113 -205 66 -57 134 -77 278 -83 99 -4 150 -1 245 15 150 26 336 79 437
125 90 41 83 48 92 -81 6 -83 16 -102 56 -102 48 0 53 16 56 203 1 95 5 402 9
682 4 281 10 582 13 670 8 237 2 665 -9 702 -13 40 -72 113 -108 132 -31 17
-41 18 -861 31 -344 5 -715 12 -825 15 -159 4 -208 2 -239 -9z m1693 -378 c7
-68 16 -151 20 -186 l8 -62 -196 6 c-108 3 -433 11 -723 18 -290 7 -529 14
-532 17 -2 2 -7 72 -11 155 l-7 151 508 10 c280 5 602 10 715 11 l205 2 13
-122z m-1724 -1478 c27 -30 10 -71 -35 -87 -66 -23 -140 -13 -140 19 0 13 54
59 85 74 42 19 69 17 90 -6z m-215 -176 c0 -62 -238 -151 -430 -160 -149 -8
-167 24 -28 50 104 20 277 71 357 105 46 19 71 25 84 19 9 -5 17 -11 17 -14z
m1960 -108 c0 -21 -63 -72 -129 -105 -95 -49 -295 -91 -426 -91 -46 0 -76 12
-64 25 2 2 58 13 124 24 210 38 372 91 440 144 25 20 55 22 55 3z"/>
<path d="M660 5746 c-47 -13 -107 -33 -134 -46 -80 -36 -209 -116 -235 -144
-29 -31 -41 -33 -41 -6 0 34 -32 90 -52 90 -30 0 -30 -20 -2 -115 14 -50 27
-99 28 -111 2 -12 10 -43 20 -70 17 -52 86 -288 91 -316 2 -9 11 -43 20 -75 9
-32 22 -80 30 -108 7 -27 22 -82 34 -121 12 -39 21 -73 21 -77 0 -4 -24 -7
-53 -7 -29 0 -77 -7 -107 -16 -29 -9 -61 -17 -71 -19 -9 -2 -54 -16 -99 -31
-91 -31 -120 -57 -100 -93 14 -27 49 -35 108 -27 26 4 95 9 153 12 l105 6 20
-44 c57 -128 197 -198 268 -133 35 32 35 92 0 182 -15 38 -36 93 -47 123 -11
30 -30 82 -43 115 -13 33 -39 103 -59 155 -20 52 -42 111 -50 130 -58 147 -95
243 -95 246 0 3 9 0 19 -6 19 -10 155 -7 221 5 46 8 156 53 200 81 19 12 60
46 92 76 82 78 99 154 52 237 -69 120 -142 147 -294 107z"/>
<path d="M3868 5407 c-50 -47 -47 -74 25 -227 91 -195 113 -241 175 -370 102
-214 152 -319 152 -323 0 -2 -46 -7 -102 -11 -169 -12 -311 -81 -409 -199 -80
-95 -87 -161 -28 -251 66 -98 159 -120 300 -70 113 40 261 130 339 205 l40 39
25 -50 c18 -35 31 -50 45 -50 25 0 26 26 4 78 -9 20 -27 71 -40 112 -14 41
-33 93 -44 115 -11 22 -35 85 -54 140 -63 180 -123 348 -158 441 -33 87 -34
90 -13 86 26 -4 135 23 192 49 23 10 45 19 48 19 4 0 21 6 38 14 18 8 53 23
80 35 41 17 47 24 47 49 0 54 -15 57 -173 33 -179 -26 -204 -27 -212 -2 -13
42 -66 100 -118 130 -68 39 -123 41 -159 8z"/>
<path d="M9238 3583 c-426 -222 -418 -217 -418 -293 0 -25 76 -182 246 -507
37 -70 118 -230 180 -355 92 -185 118 -228 134 -228 30 0 33 21 11 73 l-20 47
47 0 c94 0 214 28 300 71 113 55 141 99 127 204 -14 113 -83 165 -222 165 -61
0 -99 -6 -147 -24 -60 -21 -149 -83 -187 -130 -16 -19 -17 -19 -26 0 -5 10
-26 64 -46 119 -20 55 -52 142 -71 193 l-34 92 62 34 c92 50 235 126 388 205
76 39 146 76 157 83 11 7 22 10 25 8 2 -3 86 -167 186 -365 100 -198 188 -366
195 -374 16 -16 45 -8 45 13 0 8 -8 34 -18 58 l-19 43 66 2 c130 3 292 54 357
110 41 36 57 82 51 144 -10 115 -69 173 -188 185 -116 12 -244 -35 -340 -126
l-49 -46 -19 50 c-10 28 -35 94 -55 146 -19 52 -63 169 -97 260 -34 91 -70
188 -80 216 -36 107 -60 134 -116 134 -17 0 -185 -82 -425 -207z m410 -55 c18
-35 32 -66 32 -69 0 -7 -611 -332 -614 -327 -6 8 -66 181 -64 183 2 1 55 25
118 54 63 28 194 89 290 136 96 46 182 84 190 84 10 1 29 -24 48 -61z"/>
</g>
</svg>
