<?xml version="1.0" standalone="no"?>
<!DOCTYPE svg PUBLIC "-//W3C//DTD SVG 20010904//EN"
 "http://www.w3.org/TR/2001/REC-SVG-20010904/DTD/svg10.dtd">
<svg version="1.0" xmlns="http://www.w3.org/2000/svg"
 width="1200.000000pt" height="878.000000pt" viewBox="0 0 1200.000000 878.000000"
 preserveAspectRatio="xMidYMid meet">
<metadata>
Created by potrace 1.16, written by Peter Selinger 2001-2019
</metadata>
<g transform="translate(0.000000,878.000000) scale(0.100000,-0.100000)"
fill="#ffffff" stroke="none">
<path d="M4982 8383 c-7 -3 -25 -16 -39 -29 -21 -19 -24 -29 -19 -56 3 -18 10
-39 15 -46 9 -15 111 -25 111 -11 0 6 5 7 11 3 7 -4 10 -1 7 7 -6 17 13 38 29
32 7 -3 13 2 13 11 0 9 -4 16 -9 16 -5 0 -13 10 -17 22 -3 12 -12 27 -18 34
-15 14 -66 25 -84 17z"/>
<path d="M6503 8262 c-13 -2 -23 -9 -23 -17 0 -7 -7 -15 -15 -19 -21 -8 -19
-85 3 -112 9 -12 33 -24 52 -27 39 -5 93 10 84 24 -7 12 18 37 34 31 6 -2 12
1 12 7 0 6 -3 11 -7 11 -5 0 -19 23 -32 50 -14 28 -32 50 -40 51 -9 0 -23 2
-31 3 -8 1 -25 0 -37 -2z"/>
<path d="M9342 8053 c-7 -3 -26 -17 -42 -31 -24 -23 -28 -34 -26 -67 5 -63 22
-95 51 -96 47 -3 50 -4 56 -13 4 -4 15 -3 26 3 11 5 23 8 26 4 9 -8 37 23 37
41 0 9 5 16 10 16 6 0 10 7 10 16 0 13 3 14 13 5 8 -6 17 -8 20 -4 12 11 8 23
-7 23 -7 0 -16 13 -19 29 -10 48 -51 81 -100 80 -23 0 -48 -3 -55 -6z"/>
<path d="M2570 7942 c-59 -27 -77 -67 -47 -104 29 -36 78 -29 126 18 l23 23
-19 33 c-19 33 -51 45 -83 30z"/>
<path d="M1508 7792 c-9 -2 -20 -12 -23 -23 -4 -11 -10 -17 -15 -14 -15 10
-34 -28 -31 -64 4 -60 22 -91 53 -92 50 -3 53 -4 60 -14 5 -6 11 -6 19 2 6 6
18 9 25 6 8 -3 14 0 14 6 0 6 7 11 15 11 8 0 15 9 15 20 0 11 5 20 10 20 6 0
10 8 11 18 0 10 3 12 6 5 7 -18 23 -16 23 2 0 8 -4 15 -10 15 -5 0 -10 9 -10
20 0 11 -4 20 -10 20 -5 0 -10 7 -10 15 0 8 -4 15 -10 15 -5 0 -10 7 -10 15 0
8 -3 16 -7 17 -19 3 -100 4 -115 0z"/>
<path d="M3660 7634 c0 -6 -9 -14 -20 -17 -16 -4 -19 -11 -14 -39 12 -69 23
-86 62 -90 44 -6 95 10 89 26 -6 14 15 34 31 28 6 -2 12 -1 12 2 0 11 -47 81
-63 94 -19 16 -97 13 -97 -4z"/>
<path d="M4517 7393 c-11 -3 -29 -14 -42 -24 -19 -17 -21 -26 -15 -60 10 -53
15 -57 78 -62 29 -2 50 -2 47 1 -2 3 10 19 27 35 19 18 27 32 20 35 -7 2 -12
10 -12 17 0 8 -7 21 -16 29 -8 9 -12 16 -7 16 4 0 1 5 -7 10 -16 10 -42 11
-73 3z"/>
<path d="M3406 7238 c-9 -5 -16 -16 -16 -24 0 -8 -4 -13 -9 -10 -20 13 -38
-20 -34 -64 6 -59 29 -88 73 -92 19 -2 38 -7 42 -12 4 -6 13 -5 22 3 8 7 20
10 26 6 5 -3 10 -1 10 4 0 6 7 11 16 11 11 0 14 6 9 20 -5 15 -2 20 10 20 11
0 15 5 11 16 -4 12 -1 14 14 9 11 -4 20 -2 20 4 0 6 -4 11 -9 11 -5 0 -16 18
-25 41 -9 22 -21 37 -26 34 -5 -3 -7 0 -4 9 3 8 -2 17 -13 20 -26 8 -98 5
-117 -6z"/>
<path d="M8618 7223 c-9 -3 -20 -13 -23 -24 -4 -11 -10 -17 -15 -14 -15 9 -28
-20 -26 -60 4 -61 21 -95 51 -96 47 -3 50 -4 57 -13 4 -6 13 -5 22 3 8 7 20
10 26 6 5 -3 10 1 10 9 0 10 6 13 15 10 10 -4 15 0 15 15 0 12 5 21 10 21 6 0
10 7 10 15 0 9 6 12 15 9 8 -4 15 -1 15 5 0 6 -4 11 -10 11 -5 0 -10 9 -10 20
0 11 -4 20 -10 20 -5 0 -10 7 -10 16 0 39 -72 63 -142 47z"/>
<path d="M10450 7212 c0 -5 -11 -7 -25 -4 -18 3 -25 0 -25 -12 0 -9 -11 -21
-25 -26 -23 -9 -26 -15 -24 -57 3 -64 29 -101 72 -103 79 -3 90 -2 97 10 4 7
13 9 19 6 7 -5 11 2 11 18 0 14 4 26 10 26 14 0 25 73 11 78 -6 2 -11 11 -11
19 0 9 -6 13 -14 10 -10 -4 -12 0 -9 14 3 10 4 19 2 20 -46 7 -89 8 -89 1z"/>
<path d="M1534 7148 c-3 -4 -9 -6 -14 -3 -5 3 -11 -3 -14 -12 -3 -10 -16 -23
-28 -28 -19 -8 -22 -16 -20 -50 4 -52 23 -94 44 -101 36 -11 120 -7 128 6 4 7
13 9 20 5 10 -6 12 -2 8 13 -4 14 -1 25 8 30 17 9 29 82 14 82 -6 0 -10 7 -10
16 0 10 -6 14 -14 11 -10 -4 -12 0 -9 14 6 21 6 21 -60 24 -26 1 -50 -2 -53
-7z"/>
<path d="M3873 7111 c-19 -16 -21 -23 -12 -54 8 -31 14 -36 48 -42 40 -7 81 7
81 25 0 6 7 10 15 10 20 0 19 11 -2 49 -16 27 -23 31 -63 31 -29 -1 -53 -7
-67 -19z"/>
<path d="M2890 6890 c0 -4 -11 -6 -25 -5 -16 2 -25 -2 -25 -11 0 -8 -11 -19
-25 -24 -22 -8 -24 -15 -23 -57 2 -68 26 -99 82 -105 52 -6 98 1 90 13 -3 5 2
6 10 3 11 -4 16 0 16 10 0 28 22 54 42 48 10 -2 18 1 18 7 0 6 -7 11 -15 11
-9 0 -15 9 -15 23 0 13 -9 33 -20 45 -11 12 -20 26 -20 32 0 11 0 11 -52 15
-21 1 -38 -1 -38 -5z"/>
<path d="M10797 6842 c-10 -2 -29 -14 -43 -27 -22 -20 -24 -29 -18 -62 10 -58
20 -70 61 -75 48 -6 80 8 87 38 4 15 11 21 21 18 10 -4 15 0 15 15 0 12 -4 21
-10 21 -5 0 -10 6 -10 13 0 8 -9 25 -21 38 -19 23 -45 29 -82 21z"/>
<path d="M9780 6769 c0 -5 -6 -6 -14 -3 -8 3 -23 -4 -33 -15 -9 -12 -23 -21
-29 -21 -22 0 -31 -25 -25 -70 l6 -45 -75 -30 c-99 -40 -185 -89 -295 -168
l-90 -64 -42 37 c-118 103 -255 174 -409 211 -86 21 -91 21 -161 4 -117 -27
-191 -98 -308 -295 l-53 -90 -6 44 c-9 59 -55 128 -113 170 -76 55 -322 149
-528 200 -293 73 -469 75 -753 6 -149 -36 -242 -75 -337 -139 l-71 -49 -80 54
c-82 57 -172 91 -347 130 -68 16 -85 16 -145 5 -178 -35 -266 -168 -256 -386
l4 -90 -19 68 c-18 65 -44 109 -100 171 -40 43 -200 152 -282 191 -72 33 -293
95 -343 95 -56 0 -161 -33 -203 -63 -46 -32 -104 -111 -137 -184 l-19 -42 -48
42 c-109 94 -253 162 -439 208 -132 33 -169 35 -253 13 -77 -20 -179 -95 -273
-201 -37 -43 -69 -80 -71 -82 -2 -2 -20 14 -40 36 -54 56 -153 121 -257 166
-98 42 -303 97 -363 97 -171 0 -380 -158 -607 -460 -207 -275 -366 -532 -618
-1000 -255 -473 -349 -689 -398 -922 l-23 -104 22 -96 c14 -58 32 -108 47
-129 13 -18 24 -47 24 -63 0 -98 75 -261 146 -318 23 -18 39 -85 25 -102 -14
-18 -11 -79 5 -113 13 -29 20 -33 54 -33 22 0 40 -4 40 -9 0 -5 10 -9 23 -9
12 0 46 -16 74 -35 62 -41 131 -69 250 -99 83 -20 87 -21 157 -4 85 20 154 67
195 131 27 43 35 75 71 286 l12 67 45 -46 c35 -34 49 -59 60 -101 20 -76 72
-143 156 -201 82 -58 139 -81 301 -121 139 -33 170 -35 269 -13 168 38 227
126 257 376 l13 106 47 -46 c35 -35 50 -60 59 -97 18 -74 73 -146 150 -199 87
-59 135 -79 283 -114 178 -43 201 -45 287 -26 129 28 214 111 242 236 l12 57
27 -37 c53 -71 159 -156 255 -205 28 -13 100 -38 160 -53 99 -26 126 -29 270
-29 148 1 169 3 285 33 155 41 238 81 360 172 113 85 184 152 253 240 28 36
54 69 58 74 5 5 39 -20 77 -56 135 -127 317 -238 515 -315 100 -38 369 -106
495 -124 123 -17 305 -7 437 25 178 43 235 70 423 203 14 10 22 7 48 -16 16
-15 43 -44 58 -63 51 -68 133 -120 226 -145 98 -26 142 -28 223 -9 117 27 194
109 222 234 9 40 16 89 15 110 -1 20 -2 64 -1 96 l1 60 53 -77 c81 -118 123
-164 211 -230 108 -80 198 -121 342 -157 189 -46 286 -54 381 -31 100 24 132
40 273 142 136 98 334 288 469 449 143 171 163 202 182 281 15 66 15 74 -3
152 -20 86 -47 135 -109 198 -24 23 -40 53 -48 85 -7 27 -24 66 -38 86 -16 24
-26 53 -28 85 -1 26 -6 62 -10 80 -5 23 -4 31 6 30 8 -1 43 4 79 11 107 23
190 92 299 251 81 119 104 171 141 321 37 152 37 189 4 331 -22 92 -34 122
-71 177 -25 37 -56 78 -69 93 -13 14 -24 32 -24 40 0 8 -11 37 -24 65 -12 27
-34 96 -47 153 -34 151 -103 252 -236 347 -80 57 -123 74 -278 109 -107 24
-133 27 -240 21 -66 -3 -133 -9 -148 -12 -21 -5 -28 -3 -27 7 4 25 -12 60 -25
55 -9 -3 -11 2 -7 16 3 14 1 19 -6 14 -7 -4 -12 -3 -12 1 0 5 -16 8 -35 9 -19
0 -35 -3 -35 -7z m-4790 -411 c110 -35 249 -116 304 -177 19 -21 19 -22 -20
-79 -22 -31 -44 -62 -47 -69 -5 -8 12 -24 45 -46 29 -18 70 -49 90 -69 l38
-35 -83 -125 c-278 -419 -470 -989 -479 -1423 -1 -61 1 -116 6 -123 4 -7 26
-22 49 -35 36 -19 57 -22 153 -22 108 0 112 1 188 38 235 117 470 510 585 980
71 289 104 578 105 924 1 139 4 253 7 253 3 0 39 -9 80 -20 85 -22 155 -51
190 -79 24 -18 25 -22 18 -93 -11 -105 -10 -148 1 -148 6 0 29 -12 51 -26 l41
-26 -6 -86 c-29 -378 -120 -786 -259 -1157 -136 -365 -279 -602 -475 -786
-186 -175 -354 -237 -607 -226 -181 8 -273 46 -378 156 -69 72 -108 152 -132
271 -10 47 -28 108 -41 137 -74 163 -82 416 -23 763 68 396 239 922 414 1270
l45 89 37 -5 c21 -3 67 -15 103 -26z m2320 22 c180 -16 402 -78 593 -165 l55
-26 12 -68 c8 -47 8 -85 2 -121 l-10 -52 43 -19 43 -19 8 -66 c10 -102 0 -178
-36 -250 -29 -59 -99 -135 -124 -134 -6 1 -26 21 -44 46 -92 125 -313 231
-551 265 -104 15 -302 6 -386 -17 -63 -17 -146 -54 -179 -79 -20 -15 -20 -15
0 -30 58 -45 259 -153 528 -284 167 -82 330 -166 362 -188 134 -92 214 -212
238 -360 7 -43 22 -94 33 -113 45 -77 58 -138 58 -275 -1 -148 -20 -227 -83
-350 -49 -95 -172 -218 -267 -267 -134 -69 -199 -83 -385 -83 -184 0 -257 12
-445 72 -225 72 -411 179 -527 301 -82 87 -109 143 -116 236 -4 59 -11 81 -41
130 -35 58 -36 63 -36 155 0 85 4 104 32 169 34 78 99 172 120 172 7 0 16 -12
19 -27 16 -69 80 -170 154 -244 164 -164 418 -277 700 -310 250 -29 441 21
558 145 29 31 51 60 47 65 -11 20 -185 112 -340 181 -242 107 -496 234 -577
287 -177 115 -278 269 -278 424 0 16 -11 47 -24 68 -55 86 -71 227 -41 346 69
271 320 453 668 484 51 5 94 9 97 10 3 0 57 -4 120 -9z m2965 -12 c113 -24
216 -100 252 -185 8 -20 17 -71 20 -112 5 -58 12 -83 29 -107 55 -72 73 -172
50 -282 -24 -114 -104 -258 -188 -340 -32 -30 -36 -32 -69 -20 -82 28 -158
107 -175 180 -6 28 -2 35 35 66 l42 35 -33 19 c-68 41 -109 92 -129 160 -7 25
-3 32 31 59 40 32 120 126 120 140 0 14 -79 -1 -145 -28 -185 -74 -348 -246
-523 -550 -169 -295 -256 -594 -268 -923 l-6 -145 31 -37 c17 -20 51 -46 75
-57 l44 -22 67 26 c133 50 359 205 568 390 105 92 116 95 138 37 8 -22 0 -36
-68 -121 -167 -206 -403 -428 -548 -515 -49 -29 -70 -36 -113 -36 -62 0 -61
-12 1 -40 40 -18 41 -18 104 5 77 29 130 59 253 143 110 75 246 183 343 272
71 66 88 70 109 25 15 -34 7 -50 -98 -175 -172 -205 -380 -395 -524 -480 -54
-32 -56 -32 -155 -27 -335 17 -555 206 -626 537 -10 47 -29 112 -43 145 -46
112 -61 212 -60 415 0 236 30 394 114 612 100 260 297 533 506 699 257 204
574 294 839 237z m-7430 -4 c139 -35 335 -135 335 -169 0 -9 -11 -41 -24 -73
-43 -104 -45 -96 33 -141 77 -46 89 -66 67 -110 -32 -61 -186 -524 -186 -558
0 -4 39 58 86 137 225 377 518 776 654 890 l51 42 61 -12 c111 -21 303 -107
348 -155 l21 -23 -41 -83 c-24 -46 -38 -85 -34 -86 27 -9 139 -80 147 -94 8
-12 -2 -45 -40 -130 -87 -197 -162 -458 -222 -774 -66 -350 -92 -607 -100
-995 l-6 -305 -50 3 c-107 6 -290 72 -321 116 -10 15 -14 51 -14 126 l-1 105
-41 28 -41 29 6 261 c8 386 41 669 116 1011 l29 130 -29 -35 c-16 -18 -64 -86
-108 -149 -306 -449 -566 -1075 -628 -1512 l-16 -118 -41 0 c-91 0 -271 63
-323 112 -21 20 -23 30 -23 130 l0 108 -35 22 c-19 13 -37 29 -40 37 -3 7 -5
108 -5 225 -1 318 34 664 95 955 14 63 23 117 21 119 -6 6 -164 -237 -255
-393 -242 -413 -446 -926 -491 -1233 -9 -60 -16 -82 -27 -82 -8 0 -45 12 -81
27 -159 63 -193 117 -158 250 l14 52 -39 25 c-104 69 -92 170 61 514 114 255
419 815 618 1133 109 176 278 402 370 496 78 80 186 163 211 163 9 0 44 -7 76
-16z m5984 -105 c56 -27 120 -68 143 -90 l42 -39 -31 -33 c-16 -17 -42 -49
-57 -69 l-27 -37 43 -22 c70 -36 129 -79 140 -105 10 -22 7 -29 -24 -62 -201
-209 -489 -992 -612 -1662 -30 -168 -49 -350 -40 -397 l7 -36 -53 5 c-48 5
-58 10 -92 49 -22 24 -57 62 -79 85 -44 45 -72 116 -84 219 -5 33 -17 71 -27
86 -33 44 -58 154 -58 250 0 316 248 1140 495 1644 98 201 143 265 185 265 15
0 74 -23 129 -51z"/>
<path d="M5809 4648 c-120 -237 -294 -444 -464 -553 -106 -68 -262 -115 -385
-115 -33 0 -60 -4 -60 -9 0 -15 50 -59 88 -77 48 -22 153 -29 224 -15 191 40
373 230 527 551 54 113 127 300 116 300 -2 0 -22 -37 -46 -82z"/>
<path d="M6805 6026 c-133 -43 -205 -97 -220 -165 -12 -54 5 -52 61 9 58 62
153 128 232 160 69 28 16 25 -73 -4z"/>
<path d="M10093 6255 c-60 -17 -138 -54 -202 -98 -49 -33 -181 -155 -181 -167
0 -4 41 10 91 32 140 60 241 81 391 82 123 1 127 2 133 24 14 55 -24 115 -84
132 -47 13 -85 12 -148 -5z"/>
<path d="M3691 5915 c-165 -157 -324 -392 -501 -745 -85 -169 -186 -400 -176
-400 2 0 34 57 71 128 172 327 446 742 671 1019 15 18 24 41 22 54 -3 20 -13
13 -87 -56z"/>
<path d="M1138 5793 c-10 -3 -18 -10 -18 -16 0 -7 -10 -17 -22 -22 -20 -9 -23
-16 -20 -55 5 -64 22 -100 49 -100 12 0 34 -5 49 -10 18 -7 30 -7 39 0 6 5 15
7 18 4 9 -9 37 22 37 40 0 9 4 16 10 16 15 0 22 63 11 93 -6 16 -15 26 -20 23
-5 -3 -11 3 -14 14 -4 16 -13 19 -53 18 -27 -1 -57 -3 -66 -5z"/>
<path d="M10798 3253 c-10 -2 -18 -10 -18 -17 0 -7 -11 -18 -25 -24 -23 -11
-25 -16 -19 -54 9 -67 26 -98 51 -98 12 0 34 -5 49 -10 17 -7 31 -7 37 -1 5 5
16 7 23 4 8 -3 14 0 14 6 0 6 6 11 14 11 9 0 12 7 9 20 -3 11 -1 20 5 20 14 0
24 48 17 81 -4 16 -13 29 -21 29 -9 0 -12 5 -8 11 3 6 0 15 -7 20 -14 9 -90
10 -121 2z"/>
<path d="M807 3009 c-9 -5 -22 -7 -27 -4 -6 3 -10 -1 -10 -10 0 -8 -11 -21
-25 -27 -24 -11 -26 -16 -21 -59 9 -78 23 -99 67 -99 21 0 39 -5 42 -12 3 -10
7 -10 20 1 9 7 24 10 33 7 11 -4 15 -2 11 8 -4 10 -1 13 9 9 9 -3 14 2 14 16
0 12 5 21 10 21 6 0 10 6 10 14 0 9 7 12 20 9 11 -3 20 0 20 6 0 6 -6 11 -14
11 -7 0 -16 13 -19 29 -3 16 -13 36 -22 44 -8 9 -15 21 -15 28 0 7 -3 10 -6 6
-3 -3 -17 -2 -29 3 -16 6 -25 5 -29 -3 -3 -9 -5 -9 -5 1 -1 14 -10 15 -34 1z"/>
<path d="M10823 2983 c-13 -2 -23 -11 -23 -19 0 -8 -7 -14 -15 -14 -11 0 -15
-11 -15 -38 0 -54 16 -70 79 -76 30 -3 51 -3 48 0 -8 8 34 54 45 48 4 -3 8 2
8 10 0 9 -4 16 -8 16 -4 0 -14 16 -21 35 -7 19 -15 35 -19 36 -45 5 -60 6 -79
2z"/>
<path d="M1715 2423 c-8 -8 -15 -19 -15 -25 0 -6 -3 -8 -6 -5 -4 3 -15 2 -24
-3 -15 -8 -17 -18 -13 -52 8 -70 24 -98 55 -99 50 -3 53 -4 60 -13 4 -6 12 -5
21 2 7 7 16 9 19 6 10 -10 47 28 41 42 -3 9 2 14 12 14 11 0 15 5 11 15 -3 8
-1 15 4 15 6 0 10 -4 10 -10 0 -5 5 -10 10 -10 6 0 10 7 10 15 0 8 -4 15 -9
15 -5 0 -16 18 -25 41 -9 22 -21 37 -26 34 -6 -3 -7 1 -4 9 7 18 7 18 -64 21
-36 2 -57 -2 -67 -12z"/>
<path d="M9700 2335 c-18 -19 -34 -25 -67 -25 -30 0 -43 -4 -43 -14 0 -7 -9
-16 -20 -19 -16 -4 -20 -11 -15 -31 3 -14 7 -36 10 -49 3 -17 15 -26 45 -34
23 -6 43 -7 46 -2 3 5 10 7 15 4 5 -4 9 -1 9 5 0 6 4 9 9 6 5 -3 12 5 15 19 4
16 11 22 21 19 8 -4 15 -2 15 4 0 5 10 13 23 16 31 8 85 58 69 64 -6 2 -12 10
-12 19 0 47 -81 59 -120 18z"/>
<path d="M6907 1932 c-15 -2 -38 -13 -51 -25 -21 -20 -23 -28 -16 -65 4 -24
10 -45 13 -48 10 -10 107 -12 107 -3 0 6 4 8 9 5 5 -3 12 5 15 19 4 16 11 22
21 19 10 -4 15 0 15 11 0 9 -4 13 -10 10 -5 -3 -10 2 -10 13 0 21 -27 56 -50
63 -8 3 -27 3 -43 1z"/>
<path d="M1449 1657 c-15 -7 -41 -24 -58 -39 -27 -23 -30 -31 -24 -60 3 -18
10 -40 14 -49 12 -23 76 -31 108 -14 39 20 107 88 93 93 -7 2 -12 9 -12 15 0
21 -50 67 -73 67 -12 -1 -34 -6 -48 -13z"/>
<path d="M3787 1539 c-9 -6 -22 -7 -27 -4 -6 3 -10 -2 -10 -12 0 -10 -10 -23
-22 -28 -19 -8 -23 -17 -22 -52 1 -24 7 -56 14 -73 11 -26 18 -30 51 -30 21 0
41 -5 44 -10 4 -7 13 -6 26 1 12 6 23 8 26 5 8 -8 33 20 33 37 0 9 6 17 13 20
20 6 16 96 -5 111 -10 7 -18 18 -18 25 0 6 -8 12 -17 12 -10 1 -29 3 -43 4
-14 2 -33 -1 -43 -6z"/>
<path d="M9128 1407 c-7 -7 -21 -16 -31 -20 -15 -6 -17 -14 -11 -44 10 -57 20
-70 59 -76 45 -7 82 8 89 39 4 15 11 21 21 18 8 -4 15 -1 15 5 0 6 -4 11 -10
11 -5 0 -10 6 -10 13 0 8 -10 26 -23 40 -25 30 -76 37 -99 14z"/>
<path d="M8228 1113 c-10 -2 -18 -10 -18 -16 0 -7 -10 -17 -22 -22 -20 -9 -23
-16 -20 -55 5 -74 20 -97 66 -105 58 -11 120 -9 124 4 2 6 10 11 19 11 10 0
12 6 8 20 -5 14 -2 20 9 20 9 0 16 5 16 11 0 6 7 9 15 5 9 -3 15 0 15 9 0 8
-4 15 -9 15 -5 0 -16 18 -25 41 -10 25 -21 37 -28 33 -7 -5 -8 -3 -3 6 4 7 2
16 -6 21 -14 9 -110 10 -141 2z"/>
<path d="M10030 945 c0 -8 -7 -15 -15 -15 -23 0 -20 -72 5 -103 32 -40 140
-42 140 -3 0 8 9 18 20 21 20 6 28 35 10 35 -5 0 -10 6 -10 14 0 7 -9 25 -21
40 -18 22 -28 26 -75 26 -41 0 -54 -4 -54 -15z"/>
<path d="M4227 873 c-36 -9 -57 -36 -57 -73 0 -64 9 -78 48 -82 46 -6 92 9 92
29 0 8 9 17 20 20 25 7 25 13 -2 60 -31 54 -46 60 -101 46z"/>
</g>
</svg>
