<?xml version="1.0" standalone="no"?>
<!DOCTYPE svg PUBLIC "-//W3C//DTD SVG 20010904//EN"
 "http://www.w3.org/TR/2001/REC-SVG-20010904/DTD/svg10.dtd">
<svg version="1.0" xmlns="http://www.w3.org/2000/svg"
 width="626.000000pt" height="1014.000000pt" viewBox="0 0 626.000000 1014.000000"
 preserveAspectRatio="xMidYMid meet">
<metadata>
Created by potrace 1.16, written by Peter Selinger 2001-2019
</metadata>
<g transform="translate(0.000000,1014.000000) scale(0.100000,-0.100000)"
fill="#000000" stroke="none">
<path d="M6010 10042 c-84 -87 -327 -442 -513 -749 -246 -405 -404 -745 -499
-1071 l-32 -112 -97 0 c-159 0 -357 45 -372 84 -3 7 3 26 14 42 10 16 19 39
19 52 0 23 -42 74 -69 83 -10 4 -7 17 14 57 l27 53 -41 80 c-40 78 -41 83 -41
179 0 176 -27 306 -81 384 -26 38 -175 149 -256 191 -54 27 -66 29 -178 31
-66 1 -133 7 -148 13 -69 27 -149 4 -225 -63 -20 -18 -80 -66 -132 -106 -141
-108 -169 -137 -186 -197 -16 -57 -26 -68 -66 -78 -40 -10 -75 -48 -88 -94 -8
-32 -16 -42 -38 -46 -44 -10 -56 -20 -67 -58 -6 -20 -22 -49 -38 -64 -15 -16
-27 -36 -27 -44 0 -32 71 -184 100 -214 16 -17 30 -35 30 -40 0 -5 -22 -30
-50 -55 -57 -53 -62 -77 -29 -141 11 -23 18 -47 15 -55 -9 -23 -70 -16 -129
15 -123 65 -422 277 -552 392 -120 106 -437 328 -805 566 -52 33 -171 122
-265 198 -203 163 -279 204 -392 216 -56 5 -138 28 -288 78 -344 117 -453 140
-503 105 -12 -8 -22 -26 -22 -39 0 -34 73 -74 227 -126 115 -38 173 -68 173
-90 0 -5 -18 -27 -40 -48 -49 -46 -56 -98 -25 -186 7 -22 19 -59 25 -82 23
-89 90 -131 179 -112 36 7 66 5 141 -11 52 -11 154 -25 225 -31 72 -6 149 -15
173 -21 49 -12 140 -71 250 -162 42 -34 196 -154 342 -266 794 -610 1141 -925
1244 -1129 41 -81 101 -163 189 -258 85 -93 97 -117 107 -222 5 -47 14 -104
20 -126 66 -237 199 -564 370 -904 109 -219 140 -317 140 -443 0 -145 -37
-257 -141 -429 -129 -214 -168 -314 -225 -577 -69 -317 -85 -376 -133 -487
-97 -222 -141 -398 -186 -750 -15 -110 -57 -388 -96 -618 -75 -457 -99 -629
-99 -723 0 -61 0 -61 53 -111 29 -27 78 -67 109 -87 55 -37 56 -39 68 -103 25
-146 32 -245 27 -383 -8 -226 -34 -288 -187 -455 -165 -180 -234 -297 -211
-359 16 -39 51 -56 149 -68 209 -26 413 39 494 158 46 67 51 110 39 334 -21
381 -12 520 43 710 20 71 30 89 58 110 53 40 106 98 130 143 20 36 22 55 20
137 -3 110 11 188 78 460 74 299 81 359 85 650 2 140 6 269 11 285 8 32 301
527 453 765 108 169 168 242 231 282 58 37 99 35 119 -7 12 -26 12 -43 -4
-141 -26 -158 -16 -452 30 -934 21 -228 37 -461 41 -595 3 -143 15 -312 35
-485 22 -203 29 -301 27 -420 -3 -145 -2 -158 21 -203 18 -37 34 -53 70 -72
26 -13 52 -29 58 -37 15 -19 33 -308 40 -638 l5 -285 -27 -99 c-53 -194 -14
-260 169 -285 100 -14 250 -14 301 0 94 26 107 78 45 173 -124 192 -194 453
-194 731 0 255 18 301 132 345 142 54 222 117 242 190 9 34 7 59 -14 153 -59
264 -186 1130 -186 1267 0 100 13 220 75 671 61 445 75 608 76 839 0 312 -4
330 -167 780 -144 395 -194 520 -260 651 -63 127 -105 187 -212 302 -95 102
-148 184 -182 281 -18 54 -19 60 -3 89 41 79 54 201 32 295 -6 26 -64 155
-129 287 -145 293 -171 377 -132 425 17 21 30 23 183 32 285 15 418 56 522
160 93 93 100 114 301 890 58 222 111 421 119 442 10 30 31 53 87 95 41 31 96
85 123 121 42 55 57 67 94 76 41 11 66 30 159 124 56 57 37 109 -66 172 -38
24 -70 47 -70 52 0 5 30 63 67 130 54 97 67 129 68 166 0 40 -3 45 -24 48 -17
3 -35 -9 -71 -46z"/>
</g>
</svg>
