<?xml version="1.0" standalone="no"?>
<!DOCTYPE svg PUBLIC "-//W3C//DTD SVG 20010904//EN"
 "http://www.w3.org/TR/2001/REC-SVG-20010904/DTD/svg10.dtd">
<svg version="1.0" xmlns="http://www.w3.org/2000/svg"
 width="5000.000000pt" height="5000.000000pt" viewBox="0 0 5000.000000 5000.000000"
 preserveAspectRatio="xMidYMid meet">
<metadata>
Created by potrace 1.16, written by Peter Selinger 2001-2019
</metadata>
<g transform="translate(0.000000,5000.000000) scale(0.100000,-0.100000)"
fill="#000000" stroke="none">
<path d="M0 25000 l0 -25000 25000 0 25000 0 0 25000 0 25000 -25000 0 -25000
0 0 -25000z m21715 16209 c1487 -88 2947 -697 4069 -1699 162 -144 200 -187
227 -259 108 -286 -173 -574 -458 -470 -67 25 -88 40 -203 144 -1640 1493
-3973 1967 -6070 1232 -452 -158 -965 -415 -1365 -683 -1039 -698 -1836 -1702
-2286 -2881 -150 -393 -266 -847 -328 -1278 -45 -316 -55 -466 -55 -845 -1
-374 7 -500 46 -790 11 -85 20 -182 20 -215 -3 -255 -286 -427 -518 -315 -120
59 -184 159 -209 330 -50 336 -71 641 -69 1030 9 1737 693 3406 1911 4660 897
924 2029 1568 3287 1870 649 156 1300 211 2001 169z m5087 -2277 c192 -52 318
-123 454 -257 55 -55 115 -120 131 -145 41 -60 766 -1444 797 -1519 77 -190
90 -428 36 -630 -45 -165 -160 -355 -286 -471 -57 -54 -146 -115 -226 -157
l-57 -30 62 -17 c72 -20 154 -71 191 -118 55 -72 74 -135 95 -313 60 -501 66
-1014 15 -1500 -106 -1034 -441 -2010 -994 -2901 -154 -248 -187 -285 -294
-328 l-55 -23 39 -22 c64 -36 110 -99 206 -282 303 -577 737 -1405 801 -1529
42 -80 85 -160 96 -178 10 -18 17 -35 14 -38 -3 -3 -56 -12 -119 -19 -140 -17
-402 -67 -527 -101 -51 -14 -94 -24 -95 -22 -2 2 -136 257 -298 568 -396 756
-419 800 -422 800 -3 0 -226 -117 -1366 -715 -448 -235 -878 -460 -955 -500
-77 -41 -282 -148 -455 -239 -173 -91 -532 -279 -797 -418 -266 -139 -483
-257 -483 -261 0 -5 121 -239 269 -520 147 -282 344 -656 436 -832 92 -176
189 -360 215 -410 55 -104 134 -256 212 -405 31 -58 106 -200 167 -317 l112
-212 -102 -163 c-159 -254 -193 -302 -288 -400 l-87 -92 -126 240 c-69 131
-273 520 -453 864 -180 344 -346 661 -370 705 -23 44 -101 193 -173 330 -72
138 -228 435 -347 660 -331 630 -318 601 -319 690 -1 41 -4 75 -7 75 -4 0 -18
-10 -33 -21 -37 -29 -115 -58 -178 -65 -64 -7 -426 11 -628 31 -1388 142
-2695 701 -3743 1604 -149 129 -187 169 -218 236 -64 137 -39 292 67 405 17
19 -16 6 -130 -51 -84 -42 -189 -86 -234 -98 -218 -59 -468 -39 -678 54 -145
64 -318 210 -407 344 -25 36 -115 201 -202 366 -311 592 -384 732 -465 885
-112 214 -136 266 -166 367 -32 110 -43 302 -24 420 33 209 132 402 281 552
91 91 160 136 369 246 102 54 235 123 295 155 174 92 1268 665 1510 792 121
64 582 306 1025 538 443 232 866 454 940 492 74 39 167 88 205 108 39 21 484
255 990 520 506 265 999 524 1095 575 96 51 236 124 310 162 74 39 223 117
330 173 107 56 564 296 1015 532 879 461 981 514 1120 588 50 26 367 193 705
370 338 178 743 390 900 473 685 360 744 387 930 421 64 12 297 -2 372 -22z
m-13532 -11492 c159 -47 275 -172 315 -342 48 -203 -30 -413 -215 -584 -190
-175 -395 -238 -760 -233 l-185 3 -41 -69 c-242 -413 -418 -843 -851 -2085
-347 -996 -602 -1675 -813 -2165 -82 -189 -263 -581 -329 -714 l-40 -78 167
-41 c444 -109 1004 -310 1387 -497 289 -142 757 -287 1215 -379 250 -50 395
-67 641 -73 240 -6 374 4 565 42 407 82 663 240 855 529 34 50 71 102 82 114
52 56 162 85 242 63 178 -48 247 -256 143 -428 -50 -82 -214 -268 -314 -356
-300 -264 -645 -415 -1099 -479 -143 -21 -625 -17 -815 5 -572 69 -1267 272
-1895 555 -348 156 -595 249 -895 335 -178 52 -454 115 -519 119 l-45 3 -53
-80 c-138 -209 -308 -416 -429 -521 -291 -252 -474 -333 -748 -334 -144 0
-216 16 -342 75 -110 51 -183 119 -236 220 -56 108 -72 174 -65 275 23 335
255 643 594 789 276 119 466 154 808 149 l190 -3 43 75 c59 104 248 489 316
643 277 628 553 1347 851 2212 385 1115 589 1639 796 2043 44 83 79 154 79
157 0 2 -17 9 -37 14 -132 35 -1255 265 -1395 286 -124 19 -303 19 -393 0 -97
-20 -206 -76 -250 -128 -71 -82 -125 -240 -125 -359 0 -83 70 -158 146 -158
17 0 53 10 80 22 67 30 198 31 264 1 91 -41 125 -100 124 -219 0 -127 -43
-195 -159 -252 -212 -105 -413 -106 -605 -6 -181 94 -319 270 -365 466 -29
122 -15 322 32 473 85 272 241 462 478 580 238 119 502 149 883 99 167 -21
1004 -196 1432 -298 l185 -45 74 82 c245 269 408 393 621 473 148 56 275 63
410 24z m14872 -137 c126 -68 173 -221 108 -350 -32 -64 -71 -101 -136 -129
-171 -73 -238 -117 -348 -235 -340 -362 -517 -937 -581 -1894 -26 -397 -44
-759 -55 -1121 -11 -375 -28 -751 -36 -824 -4 -38 -3 -42 7 -25 7 11 126 218
264 460 404 705 622 1072 903 1525 767 1231 1364 1967 1777 2185 67 36 73 37
151 33 65 -3 90 -10 127 -31 91 -54 133 -135 125 -244 -8 -108 -50 -165 -178
-243 -219 -132 -557 -687 -775 -1270 -271 -727 -508 -1752 -639 -2770 -68
-526 -81 -697 -66 -919 36 -527 224 -877 567 -1049 34 -17 76 -34 95 -37 18
-3 51 -11 73 -17 56 -16 229 -15 295 1 84 20 191 75 249 127 29 26 78 85 109
132 74 110 133 147 232 147 132 -1 224 -80 250 -215 20 -104 -17 -205 -120
-333 -192 -239 -485 -381 -811 -394 -224 -9 -410 26 -584 111 -244 119 -453
307 -609 548 -207 318 -308 806 -276 1333 30 510 210 1653 366 2324 29 129 52
236 50 238 -5 6 -361 -581 -616 -1017 -469 -800 -1287 -2309 -1264 -2330 5 -4
37 -13 72 -20 34 -7 60 -15 58 -17 -4 -5 -107 14 -133 24 -8 3 -32 -37 -66
-109 -57 -119 -170 -298 -233 -368 -50 -55 -105 -82 -181 -88 -148 -12 -252
68 -284 218 -17 79 1 135 67 211 93 108 215 368 282 600 130 454 191 1063 232
2319 32 969 70 1422 154 1837 13 65 23 119 22 120 -4 4 -144 -212 -231 -357
-201 -333 -389 -687 -753 -1415 -134 -269 -263 -521 -285 -558 l-40 -69 34
-26 c19 -15 47 -40 64 -55 16 -16 1 -6 -35 22 l-64 51 -17 -28 c-9 -15 -137
-245 -284 -512 -669 -1209 -982 -1707 -1450 -2305 -616 -787 -1150 -1255
-1658 -1454 -203 -79 -410 -111 -713 -111 -286 0 -470 37 -659 132 -214 108
-345 220 -467 403 -146 219 -218 443 -218 681 0 185 37 321 121 451 57 86 107
129 175 149 116 34 226 2 290 -85 l37 -49 66 18 c85 24 93 17 10 -8 -53 -15
-63 -22 -60 -38 2 -10 4 -50 5 -89 0 -82 -22 -140 -75 -195 l-34 -35 1 -125
c1 -107 5 -137 27 -205 15 -44 40 -103 56 -130 87 -151 255 -271 456 -326 69
-20 106 -22 280 -23 170 -1 217 3 313 22 254 51 477 166 738 380 709 579 1441
1616 2397 3392 25 47 93 168 152 270 59 102 220 415 359 695 551 1112 952
1778 1377 2290 105 127 338 359 449 448 296 238 606 374 859 376 72 1 90 -2
133 -26z m-14302 -1614 c94 -42 150 -129 150 -233 0 -48 -9 -78 -51 -175 -32
-74 -63 -129 -86 -153 -71 -73 -193 -89 -299 -39 -101 48 -139 119 -132 244 3
61 12 88 54 178 73 151 132 197 259 198 40 0 75 -6 105 -20z m23948 -5 c94
-47 153 -156 138 -260 -7 -53 -97 -258 -129 -292 -88 -97 -290 -93 -380 7 -44
49 -61 100 -61 181 0 56 7 80 48 172 74 165 138 217 267 218 50 0 77 -6 117
-26z m-20694 -734 c95 -36 172 -120 211 -230 45 -127 40 -261 -15 -429 -53
-162 -287 -701 -431 -995 -88 -182 -88 -175 -7 -252 59 -57 114 -89 205 -121
68 -23 94 -27 198 -27 141 -1 230 21 358 85 217 109 353 250 462 477 153 317
322 565 540 791 308 319 599 483 880 498 304 15 520 -141 606 -439 61 -214 21
-569 -95 -846 -163 -385 -446 -717 -731 -856 -130 -64 -216 -81 -405 -80 -232
1 -353 39 -467 147 -29 27 -55 48 -58 46 -15 -16 -29 -181 -30 -349 0 -154 4
-210 18 -269 41 -168 113 -309 211 -411 90 -94 191 -126 373 -118 90 4 126 11
214 41 459 154 899 535 1274 1101 164 248 316 537 445 848 76 183 143 242 275
243 113 0 210 -69 241 -173 29 -95 18 -141 -87 -380 -162 -367 -373 -740 -578
-1022 -178 -246 -461 -551 -651 -703 -422 -338 -912 -521 -1284 -479 -219 24
-440 124 -572 259 -142 146 -252 323 -321 517 -61 174 -101 436 -90 589 6 72
5 78 -11 72 -160 -66 -298 -94 -487 -101 -235 -9 -404 24 -564 112 -67 36
-173 111 -179 126 -10 24 -34 -5 -97 -119 -229 -413 -520 -823 -760 -1072
-176 -182 -320 -279 -494 -332 -107 -32 -246 -24 -352 21 -125 52 -266 195
-344 351 -59 116 -104 283 -106 388 -1 88 -9 88 -72 1 -222 -307 -513 -573
-767 -700 -36 -18 -68 -37 -71 -42 -3 -5 -8 -9 -10 -8 -2 1 -35 -7 -74 -18
-117 -35 -201 -45 -319 -39 -207 10 -398 86 -533 210 -404 372 -369 1124 112
2372 63 164 227 534 365 825 100 210 142 265 225 293 64 22 113 21 178 -3 101
-38 149 -112 155 -240 l4 -85 -71 -140 c-374 -733 -666 -1570 -720 -2067 -21
-192 -7 -399 33 -476 20 -38 94 -118 102 -109 3 3 12 27 20 54 14 47 14 47 9
8 -3 -22 -8 -49 -11 -61 -5 -17 1 -24 33 -37 170 -68 383 13 615 231 249 235
610 783 871 1324 58 120 84 190 112 295 135 517 399 1193 499 1281 78 69 184
82 281 36 145 -68 184 -229 100 -409 -63 -136 -160 -382 -220 -555 -51 -147
-57 -175 -59 -255 -3 -87 -5 -95 -68 -240 -71 -162 -114 -323 -162 -605 -42
-246 -51 -347 -51 -565 0 -219 12 -310 55 -409 19 -46 63 -101 91 -117 59 -31
283 167 466 411 199 266 439 656 665 1080 l45 85 -5 150 c-3 122 0 176 18 290
119 764 348 1250 630 1336 52 16 177 10 234 -11z m18386 -161 c68 -33 140
-103 174 -171 21 -41 26 -67 26 -122 0 -85 -24 -142 -80 -186 -110 -87 -216
-93 -322 -18 -41 29 -108 -74 -128 -196 -16 -102 15 -304 77 -499 56 -177 141
-470 178 -612 52 -200 68 -325 68 -525 0 -202 -17 -331 -62 -471 -17 -51 -29
-94 -28 -96 6 -5 184 142 262 215 167 158 352 388 528 657 176 269 257 425
341 660 82 228 132 352 258 633 155 348 276 593 311 630 133 140 364 89 422
-93 33 -107 22 -153 -87 -370 -172 -340 -301 -642 -313 -735 -4 -30 -11 -61
-16 -70 -33 -61 -149 -352 -190 -475 -116 -348 -169 -607 -176 -865 -7 -249
10 -321 101 -417 16 -18 33 -33 37 -33 4 0 13 25 20 55 7 30 14 53 16 51 3 -2
-1 -30 -7 -62 -15 -70 -9 -76 85 -94 168 -32 371 65 581 277 268 271 672 894
754 1163 102 336 333 776 543 1036 278 344 606 587 907 671 101 28 348 25 455
-5 176 -50 324 -149 393 -264 70 -118 99 -252 82 -381 -44 -322 -257 -564
-531 -602 -104 -15 -233 33 -329 121 -75 70 -95 117 -88 213 8 106 65 188 155
226 50 21 149 19 200 -4 l41 -19 16 39 c9 22 16 60 16 84 0 63 -21 81 -106 90
-194 19 -385 -71 -611 -289 -164 -158 -343 -390 -343 -445 0 -40 -82 -235
-222 -526 -66 -137 -127 -279 -136 -315 -12 -49 -16 -117 -16 -275 0 -196 2
-217 26 -307 47 -172 119 -309 207 -391 92 -86 182 -113 358 -105 90 4 126 11
217 42 282 95 540 263 806 525 365 361 659 812 904 1390 36 84 77 168 91 186
30 40 112 82 175 91 59 8 152 -24 198 -68 57 -56 77 -103 76 -188 0 -69 -4
-86 -57 -210 -373 -870 -921 -1601 -1471 -1962 -348 -229 -737 -354 -1037
-334 -271 17 -508 132 -673 325 -118 138 -211 295 -266 448 l-22 62 -87 -111
c-210 -271 -472 -501 -693 -609 -49 -24 -68 -39 -69 -54 -1 -15 -2 -16 -6 -3
-4 15 -10 14 -73 -7 -198 -67 -418 -60 -621 21 -109 44 -173 85 -245 154 -152
148 -245 354 -261 575 l-5 80 -147 -145 c-311 -306 -633 -513 -975 -625 -241
-79 -456 -110 -729 -102 -158 4 -200 9 -313 35 -207 49 -364 114 -491 204
l-41 30 -74 -50 c-152 -102 -332 -178 -481 -202 -94 -15 -266 -8 -352 15 -94
25 -252 108 -342 179 -98 78 -154 146 -217 267 -26 49 -50 89 -53 89 -3 0 -60
-51 -127 -114 -224 -210 -393 -319 -607 -390 -333 -112 -675 -31 -925 218
-155 155 -228 354 -241 656 -19 456 127 1062 447 1865 188 470 339 808 383
853 105 109 264 112 370 6 56 -56 72 -98 72 -184 0 -73 -2 -80 -96 -290 -276
-614 -434 -1052 -547 -1510 -135 -546 -143 -854 -25 -1009 54 -70 192 -131
299 -131 233 0 613 333 908 794 l71 111 28 150 c44 236 114 479 233 807 177
490 464 1164 529 1244 76 93 210 122 314 69 59 -29 102 -83 127 -157 27 -84
17 -131 -78 -348 -316 -721 -493 -1231 -603 -1742 -77 -360 -81 -593 -13 -741
27 -58 41 -75 93 -112 68 -49 98 -62 169 -76 91 -17 229 22 346 98 l57 37 -23
45 c-69 136 -100 364 -75 553 22 162 91 337 165 416 59 64 154 95 227 74 l36
-10 17 75 c10 41 20 72 22 70 3 -3 -2 -35 -11 -71 -8 -37 -15 -69 -15 -71 0
-2 19 -16 43 -29 90 -53 131 -129 125 -234 -3 -63 -2 -66 22 -74 21 -6 20 -7
-7 -3 -31 4 -32 3 -62 -73 -27 -72 -51 -171 -51 -215 0 -15 3 -17 14 -8 18 15
174 244 178 262 2 8 8 18 15 24 24 20 167 275 282 505 103 207 281 605 281
629 0 5 61 146 136 313 78 173 147 340 160 390 58 218 208 399 400 484 86 38
119 43 249 41 106 -2 127 -5 175 -28z m-3404 -4955 c26 -9 110 -29 187 -45 77
-15 141 -30 142 -31 1 -2 62 -118 135 -258 111 -213 603 -1151 810 -1545 174
-331 269 -512 320 -610 32 -60 151 -288 265 -505 114 -217 236 -451 272 -520
36 -69 89 -170 118 -225 193 -365 282 -701 292 -1105 6 -217 -2 -331 -38 -524
-119 -640 -497 -1221 -1034 -1585 -111 -76 -191 -122 -405 -233 -80 -42 -307
-161 -505 -265 -488 -255 -586 -298 -828 -363 -220 -58 -347 -74 -612 -74
-251 -1 -322 6 -538 50 -539 112 -1060 434 -1407 869 -138 174 -185 255 -562
975 -34 63 -78 147 -98 185 -21 39 -67 126 -103 195 -35 69 -184 352 -330 630
-437 833 -795 1517 -865 1650 -35 69 -82 157 -102 195 -21 39 -184 349 -363
690 -735 1402 -697 1332 -846 1613 -50 95 -91 178 -91 185 0 7 13 20 30 29 29
16 32 16 110 -13 176 -64 415 -121 622 -147 l129 -17 98 -185 c53 -102 180
-342 281 -535 101 -192 298 -568 438 -835 140 -267 286 -546 324 -620 39 -74
83 -157 98 -185 15 -27 62 -117 105 -200 43 -82 98 -188 123 -235 72 -137 136
-258 195 -370 30 -58 175 -334 322 -615 147 -280 294 -562 327 -625 59 -113
113 -215 208 -395 62 -118 134 -255 263 -501 119 -227 167 -306 254 -414 303
-379 760 -618 1240 -649 325 -20 618 37 898 177 50 24 218 112 375 194 157 83
341 180 410 215 301 157 371 199 487 289 317 247 552 627 632 1020 51 247 49
491 -5 733 -43 193 -102 334 -264 636 -20 39 -64 122 -97 185 -33 63 -108 205
-165 315 -58 110 -131 250 -163 310 -32 61 -199 380 -372 710 -173 330 -344
656 -380 725 -36 69 -83 157 -103 195 -21 39 -138 261 -260 495 -122 234 -242
461 -266 506 l-43 81 64 87 c35 47 90 130 121 184 83 141 72 133 150 106z
m2089 -6729 c69 -18 151 -69 190 -117 31 -40 1 16 620 -1163 275 -522 514
-985 532 -1027 182 -417 84 -920 -242 -1243 -128 -126 -126 -125 -772 -464
-259 -136 -455 -232 -510 -250 -480 -161 -1000 9 -1295 424 -34 49 -65 105
-203 370 -37 72 -85 162 -105 200 -70 129 -777 1479 -819 1563 -71 141 -75
246 -15 365 67 132 228 214 371 189 152 -27 216 -86 330 -302 45 -85 295 -562
556 -1060 361 -689 485 -917 520 -956 28 -31 71 -63 113 -85 66 -33 72 -34
183 -34 l116 0 294 154 c162 84 378 196 480 250 211 109 276 163 326 266 27
55 30 69 30 172 l0 113 -61 117 c-33 65 -155 298 -271 518 -115 220 -245 468
-288 550 -43 83 -88 168 -100 190 -12 22 -110 209 -218 415 -214 411 -224 438
-206 550 13 81 46 144 106 201 99 96 210 127 338 94z"/>
<path d="M26512 38229 c-38 -7 -133 -54 -417 -204 -44 -24 -170 -90 -280 -147
-110 -58 -387 -203 -615 -323 -751 -394 -1423 -746 -1550 -813 -69 -35 -204
-106 -300 -157 -178 -94 -228 -120 -590 -310 -113 -59 -250 -131 -305 -160
-144 -76 -678 -356 -825 -432 -69 -36 -161 -85 -205 -108 -124 -66 -209 -110
-1505 -790 -668 -350 -1264 -663 -1325 -695 -154 -81 -479 -252 -610 -320 -60
-32 -288 -151 -505 -265 -217 -114 -456 -239 -530 -277 -74 -39 -166 -88 -205
-108 -38 -20 -117 -62 -175 -92 -58 -31 -148 -78 -200 -105 -52 -28 -324 -171
-605 -318 -280 -147 -523 -277 -539 -288 -70 -49 -117 -174 -98 -260 10 -51
705 -1388 751 -1447 34 -43 112 -87 170 -96 89 -14 72 -22 1091 513 58 31 146
77 195 103 80 42 744 391 1615 847 162 85 347 182 410 215 63 33 142 75 175
93 33 18 128 67 210 110 83 43 233 122 335 175 102 53 462 242 800 420 338
177 703 368 810 425 107 56 254 133 325 170 72 37 162 85 200 105 39 21 349
184 690 363 341 178 755 395 920 482 165 86 352 184 415 217 63 33 151 80 195
103 44 23 132 69 195 102 149 78 686 360 815 428 55 29 240 126 410 215 377
197 450 236 820 430 160 84 342 179 405 212 311 163 339 180 379 223 49 54 76
135 68 207 -6 48 -89 218 -302 618 -39 74 -108 205 -153 290 -217 415 -282
536 -306 566 -30 38 -114 80 -171 87 -22 2 -59 1 -83 -4z"/>
<path d="M27060 35413 c-129 -68 -399 -210 -600 -315 -201 -105 -396 -208
-435 -228 -72 -38 -243 -128 -780 -410 -170 -89 -355 -186 -410 -215 -109 -57
-891 -468 -1730 -907 -115 -61 -293 -154 -395 -208 -102 -53 -248 -130 -325
-170 -77 -40 -162 -85 -190 -100 -27 -15 -117 -62 -200 -105 -82 -43 -188 -98
-235 -123 -138 -73 -258 -136 -370 -194 -58 -31 -382 -201 -720 -378 -338
-177 -667 -349 -730 -382 -63 -34 -146 -77 -185 -98 -38 -21 -126 -67 -195
-103 -69 -36 -213 -111 -320 -167 -107 -57 -469 -247 -805 -422 -335 -176
-740 -389 -900 -473 -159 -84 -366 -192 -460 -240 -93 -48 -173 -91 -177 -94
-4 -3 32 -6 80 -6 112 0 168 -25 283 -127 925 -818 2043 -1325 3269 -1483 170
-22 472 -45 600 -45 177 0 281 -41 361 -143 48 -60 82 -166 77 -236 -3 -49 0
-52 32 -25 21 17 -4 4 1360 719 679 356 1280 671 1335 700 55 29 188 99 295
155 107 56 240 126 295 155 96 51 808 423 1045 548 63 33 156 81 205 107 227
120 267 140 280 140 23 0 18 15 -11 31 -14 7 -50 40 -80 71 -41 45 -58 73 -74
124 -43 139 -24 213 108 419 143 225 222 366 347 620 303 616 492 1252 574
1935 55 457 56 956 3 1400 -23 201 -22 293 5 353 12 26 19 47 15 46 -4 -1
-113 -57 -242 -126z"/>
<path d="M9288 20715 c-264 -42 -506 -189 -552 -337 -10 -32 -16 -65 -14 -74
12 -63 306 -25 309 40 1 17 2 18 6 3 4 -15 13 -11 66 25 55 39 245 224 327
321 l32 37 -43 -1 c-24 -1 -83 -7 -131 -14z"/>
<path d="M19430 24206 c-127 -47 -242 -127 -388 -270 -126 -123 -226 -245
-326 -398 -91 -140 -133 -228 -114 -240 7 -4 16 -8 20 -8 3 0 29 -18 57 -40
59 -47 91 -103 91 -159 0 -38 2 -40 36 -47 101 -19 255 16 332 76 231 179 421
532 462 856 10 81 -1 207 -21 231 -14 17 -102 16 -149 -1z"/>
<path d="M34777 23233 c-193 -482 -554 -1126 -817 -1458 -33 -41 -60 -76 -60
-78 0 -2 30 -18 68 -35 103 -48 184 -65 297 -65 127 0 232 33 343 107 169 113
291 328 332 586 15 95 12 287 -6 409 -14 97 -79 373 -122 516 l-18 59 -17 -41z"/>
</g>
</svg>
