<?xml version="1.0" standalone="no"?>
<!DOCTYPE svg PUBLIC "-//W3C//DTD SVG 20010904//EN"
 "http://www.w3.org/TR/2001/REC-SVG-20010904/DTD/svg10.dtd">
<svg version="1.0" xmlns="http://www.w3.org/2000/svg"
 width="500.000000pt" height="605.000000pt" viewBox="0 0 500.000000 605.000000"
 preserveAspectRatio="xMidYMid meet">
<metadata>
Created by potrace 1.16, written by Peter Selinger 2001-2019
</metadata>
<g transform="translate(0.000000,605.000000) scale(0.100000,-0.100000)"
fill="#000000" stroke="none">
<path d="M1170 5872 c-47 -25 -74 -79 -60 -117 6 -16 50 -69 98 -120 120 -125
197 -276 236 -465 13 -63 13 -82 1 -145 -13 -68 -13 -78 5 -129 l19 -56 -30
-49 -31 -49 -36 15 c-79 33 -135 -1 -245 -149 -113 -150 -185 -227 -315 -337
-201 -168 -373 -394 -510 -668 -71 -140 -88 -202 -73 -268 22 -97 121 -214
198 -234 129 -32 386 -20 783 38 146 22 266 39 267 38 1 -2 -14 -55 -32 -120
-60 -203 -63 -275 -16 -338 l21 -28 -63 -44 c-34 -25 -123 -83 -197 -130 -150
-95 -245 -176 -316 -270 -52 -68 -114 -190 -114 -222 0 -12 23 -56 50 -100 27
-44 50 -83 50 -87 0 -12 -31 -25 -77 -32 -22 -3 -70 -19 -105 -36 -34 -16 -77
-30 -93 -30 -43 0 -82 -22 -230 -131 -71 -53 -148 -108 -170 -121 -22 -14 -46
-33 -54 -42 -22 -26 -16 -113 14 -191 15 -38 35 -97 45 -131 10 -33 25 -74 33
-91 31 -60 139 -139 225 -164 35 -10 61 -9 157 6 64 10 131 15 154 11 49 -8
77 3 146 55 38 28 65 60 86 99 17 32 42 69 56 82 l25 23 -7 -55 c-18 -148 -37
-268 -46 -297 -19 -59 -64 -109 -130 -142 -54 -27 -73 -31 -140 -31 -118 0
-167 -26 -94 -50 73 -24 49 -32 -184 -56 -85 -8 -164 -20 -177 -25 -62 -23 4
-45 103 -34 89 9 75 -6 -40 -44 -132 -44 -185 -81 -142 -97 8 -4 61 2 118 11
176 31 188 32 185 23 -2 -4 -34 -32 -73 -61 -143 -107 -76 -120 123 -23 122
59 205 87 219 72 3 -3 -19 -38 -50 -78 -63 -83 -76 -115 -53 -124 31 -12 65 7
137 78 50 49 102 88 157 117 45 24 107 67 137 95 60 55 66 70 126 316 26 106
138 472 148 483 18 18 132 -56 213 -140 97 -100 160 -134 385 -210 192 -64
250 -67 408 -19 66 19 152 40 190 46 80 13 616 31 658 23 24 -5 27 -3 27 21
l0 27 58 -8 c31 -4 127 -8 212 -8 127 0 171 4 246 23 108 26 193 28 359 7 186
-23 210 -21 280 22 58 36 64 38 180 44 141 7 175 18 175 53 0 36 16 73 62 144
38 58 40 67 39 129 -1 73 -9 88 -49 98 -21 5 -31 1 -45 -16 -10 -12 -28 -23
-40 -24 -73 -7 -144 -19 -154 -27 -7 -6 -10 -21 -7 -38 8 -38 -15 -49 -126
-61 -49 -5 -108 -17 -132 -26 -65 -26 -157 -20 -408 28 -206 40 -238 43 -380
43 -113 0 -168 -5 -202 -16 l-47 -16 -21 35 c-17 29 -25 34 -43 29 -12 -4 -58
-10 -102 -13 -74 -5 -88 -3 -184 31 -57 20 -140 43 -184 51 -44 8 -83 18 -86
21 -3 3 5 25 18 50 29 53 114 134 185 175 71 41 84 52 96 84 14 37 4 84 -41
189 -22 49 -39 99 -39 111 0 11 19 50 42 86 23 35 61 102 84 149 39 79 183
433 235 580 15 44 42 88 81 134 93 111 103 139 103 281 -1 114 -3 126 -42 241
-45 132 -105 258 -163 344 -46 68 -120 137 -156 146 -39 10 -178 -3 -259 -24
l-69 -18 -81 27 c-44 15 -114 34 -156 44 l-77 16 -7 92 c-4 50 -10 112 -14
139 -8 46 -6 50 43 122 28 41 59 88 68 105 12 22 25 31 42 31 33 0 60 37 87
118 12 37 34 87 49 112 15 25 30 57 34 72 10 44 -19 100 -72 140 -53 39 -92
105 -157 263 -72 177 -154 294 -236 335 -75 39 -334 50 -460 21 -34 -8 -42 -5
-100 36 -89 61 -300 172 -371 194 -75 24 -124 24 -168 1z m851 -1099 c1 -51
21 -114 39 -124 8 -4 27 -10 43 -14 30 -6 33 -19 17 -75 -7 -26 -18 -39 -40
-47 -19 -7 -35 -24 -47 -50 -14 -32 -216 -343 -257 -396 -8 -10 -69 -33 -160
-57 -177 -49 -307 -95 -404 -144 -46 -23 -72 -32 -72 -24 0 21 72 126 142 208
40 46 114 112 194 173 71 54 138 110 149 125 17 23 45 113 95 302 28 105 42
116 160 131 46 5 91 14 99 19 30 18 41 11 42 -27z"/>
</g>
</svg>
