<?xml version="1.0" standalone="no"?>
<!DOCTYPE svg PUBLIC "-//W3C//DTD SVG 20010904//EN"
 "http://www.w3.org/TR/2001/REC-SVG-20010904/DTD/svg10.dtd">
<svg version="1.0" xmlns="http://www.w3.org/2000/svg"
 width="2454.000000pt" height="3192.000000pt" viewBox="0 0 2454.000000 3192.000000"
 preserveAspectRatio="xMidYMid meet">
<metadata>
Created by potrace 1.16, written by Peter Selinger 2001-2019
</metadata>
<g transform="translate(0.000000,3192.000000) scale(0.100000,-0.100000)"
fill="#ffffff" stroke="none">
<path d="M0 15960 l0 -15960 12270 0 12270 0 0 15960 0 15960 -12270 0 -12270
0 0 -15960z m12918 15934 c468 -55 865 -262 1061 -552 147 -218 178 -494 85
-770 -33 -101 -111 -254 -176 -350 -71 -105 -272 -304 -378 -373 -234 -155
-445 -227 -825 -284 -16 -2 -94 -7 -173 -11 l-143 -7 7 42 c4 22 4 41 0 41
-21 0 -68 -34 -76 -56 -9 -24 -11 -24 -102 -18 -142 8 -388 40 -543 70 l-140
27 -46 49 c-25 26 -50 48 -57 48 -7 0 -12 -14 -12 -34 0 -29 -3 -33 -20 -29
-11 3 -20 1 -20 -4 0 -42 237 -698 310 -858 10 -22 44 -98 75 -170 155 -357
431 -879 760 -1440 261 -446 372 -639 450 -788 231 -442 312 -742 281 -1033
l-8 -72 80 -38 c79 -39 80 -39 86 -84 6 -41 1 -73 -19 -122 -6 -14 -2 -18 18
-18 33 0 49 -22 41 -57 -5 -20 -3 -25 4 -18 6 6 16 51 23 101 6 50 15 97 19
104 5 9 23 7 73 -9 177 -54 388 -67 528 -31 190 47 335 136 495 301 129 134
209 247 328 464 61 111 66 117 66 83 0 -46 15 -86 43 -116 l21 -23 17 73 c10
40 21 94 24 121 l7 47 -41 0 c-23 0 -41 2 -41 4 0 2 29 75 64 163 89 222 147
406 220 695 35 137 65 245 69 242 3 -3 11 -3 18 2 9 5 8 10 -4 19 -14 10 -12
30 19 199 44 239 88 547 113 791 11 104 25 191 31 193 13 5 13 39 0 47 -6 4
-8 21 -6 38 13 81 29 437 35 790 l6 389 28 -22 c25 -20 27 -20 27 -4 0 10 -6
42 -12 72 -12 48 -15 52 -35 47 -22 -5 -23 -3 -23 72 -1 43 -3 103 -6 133 -22
257 -23 275 -6 288 14 11 18 9 25 -11 7 -21 16 -25 60 -29 29 -3 59 -7 67 -9
17 -5 58 126 66 216 l6 60 -21 -32 c-25 -40 -47 -52 -148 -78 l-82 -21 -3 30
-3 31 -105 7 c-58 5 -143 15 -190 23 -106 20 -231 57 -207 63 24 5 22 42 -3
42 -13 0 -20 -7 -20 -20 0 -11 -3 -20 -6 -20 -3 0 -40 18 -82 40 -158 82 -265
197 -324 345 -40 104 -50 251 -23 370 49 223 225 428 417 486 56 17 87 20 161
17 112 -6 184 -32 270 -96 163 -124 297 -384 367 -712 40 -187 36 -177 73
-184 135 -26 191 -191 96 -285 -36 -37 -47 -38 -51 -9 -2 13 -11 24 -22 26
-17 4 -18 -2 -12 -90 5 -69 4 -88 -4 -75 -6 9 -18 17 -26 17 -11 0 -9 -8 10
-33 15 -19 26 -47 26 -63 0 -17 4 -34 9 -40 25 -26 44 -741 31 -1159 -6 -192
-12 -357 -15 -365 -2 -8 -6 -73 -10 -145 -3 -71 -8 -137 -10 -145 -2 -8 -6
-51 -10 -95 -31 -398 -142 -1111 -174 -1122 -26 -9 -101 -45 -101 -48 0 -2 5
-16 10 -30 7 -19 6 -43 -5 -85 -8 -32 -15 -72 -15 -89 0 -21 -5 -31 -15 -31
-22 0 -75 -28 -75 -40 0 -6 19 -7 44 -4 25 4 56 4 70 0 l25 -6 -25 -93 c-43
-159 -105 -358 -147 -472 -45 -122 -46 -135 -16 -274 50 -227 145 -435 261
-567 80 -91 223 -164 352 -179 54 -6 58 -5 52 12 -4 10 -18 65 -31 123 -40
181 -39 170 -16 170 21 0 31 29 11 31 -5 1 -16 2 -22 3 -36 3 -56 602 -30 871
34 347 93 689 178 1036 39 155 50 187 68 195 29 13 43 57 29 95 -11 28 -4 55
64 262 146 447 293 811 493 1223 l117 241 32 -5 c29 -4 31 -3 31 28 0 28 -2
31 -15 20 -9 -7 -18 -11 -20 -8 -6 6 171 319 255 453 149 237 269 405 423 598
l71 88 18 -38 c10 -21 30 -48 44 -61 l25 -22 44 59 c24 32 50 73 59 89 20 39
20 98 1 136 -8 15 -15 30 -15 32 0 12 287 262 385 336 396 297 804 442 1196
425 342 -16 635 -141 859 -367 115 -117 190 -233 237 -369 62 -182 65 -333 8
-488 -27 -74 -85 -175 -99 -170 -5 2 -18 36 -27 75 -32 128 -55 140 -79 42
-13 -55 -7 -96 23 -155 l20 -39 -49 -44 c-247 -224 -550 -277 -748 -130 -64
48 -125 132 -152 210 -27 78 -24 214 6 293 68 178 220 304 444 369 103 30 145
32 192 10 102 -49 130 -177 58 -264 -33 -38 -53 -49 -126 -66 -107 -25 -202
-84 -234 -146 -8 -15 -14 -45 -14 -67 0 -68 60 -97 150 -71 23 7 36 7 38 0 7
-19 31 -10 48 18 9 15 50 53 91 85 114 89 153 163 153 287 -1 220 -215 473
-492 580 -162 63 -383 81 -574 47 -467 -84 -960 -449 -1404 -1042 -593 -792
-1120 -1988 -1355 -3070 -24 -110 -46 -222 -50 -250 -4 -27 -20 -71 -36 -96
-35 -55 -35 -59 -8 -59 18 0 20 -4 15 -32 -7 -41 -33 -260 -41 -353 -18 -214
0 -650 35 -834 5 -29 10 -55 10 -57 0 -2 -8 -4 -19 -4 -23 0 -45 -25 -36 -40
5 -9 10 -9 18 -1 28 28 43 11 70 -78 23 -78 31 -92 61 -110 51 -32 80 -98 72
-166 -6 -51 -4 -56 42 -126 96 -146 198 -246 332 -325 279 -165 659 -205 1130
-118 166 31 235 48 515 130 226 66 591 164 614 164 7 0 -4 -19 -24 -42 l-36
-43 25 -3 c29 -4 31 -10 15 -65 -10 -39 -5 -77 12 -77 5 0 9 6 9 14 0 8 22 47
50 88 49 73 74 138 51 138 -6 0 -11 4 -11 8 0 5 35 17 78 26 719 161 1189 227
1736 242 l226 7 0 -27 c0 -20 5 -26 21 -26 28 0 59 18 59 35 0 10 12 13 53 9
28 -2 87 -6 130 -10 83 -6 83 -6 62 -56 -6 -15 -2 -18 25 -18 32 0 32 1 27 34
-5 30 -3 34 11 29 9 -4 20 -11 23 -16 4 -6 13 -6 24 0 33 19 329 -40 528 -104
288 -92 503 -216 678 -392 166 -165 260 -326 316 -539 56 -212 35 -607 -38
-727 -58 -97 -210 -99 -282 -4 -32 43 -35 87 -15 179 10 47 21 141 24 210 5
104 3 142 -14 223 -92 440 -528 731 -1232 821 -199 25 -268 29 -515 29 -340 0
-575 -19 -939 -74 -122 -18 -131 -18 -168 -2 -42 19 -51 48 -18 58 23 7 44 44
55 93 6 28 4 32 -15 32 -14 0 -24 9 -31 30 -12 34 -26 39 -36 13 -4 -10 -17
-32 -30 -49 -29 -39 -31 -84 -4 -84 11 0 23 5 26 10 11 18 35 11 35 -10 0 -13
-10 -24 -25 -30 -34 -13 -41 -35 -21 -65 21 -32 20 -35 -6 -35 -96 0 -869
-181 -1258 -295 -577 -168 -805 -210 -1150 -214 -574 -6 -1022 208 -1295 619
-35 52 -69 107 -75 121 -12 27 -12 27 -159 32 -166 6 -236 21 -358 77 -104 48
-161 88 -246 169 -116 111 -201 237 -272 404 l-42 98 -43 -73 c-65 -110 -172
-256 -260 -356 -144 -163 -382 -340 -438 -325 -36 9 -71 -5 -78 -32 -5 -21
-19 -29 -83 -49 -130 -41 -232 -56 -387 -56 -100 0 -144 3 -144 11 0 6 13 35
29 63 16 28 32 61 36 74 10 33 -18 38 -57 9 -18 -13 -41 -27 -52 -31 -16 -5
-18 -14 -14 -61 l5 -54 -31 6 c-146 27 -351 97 -490 168 -39 19 -73 32 -77 28
-4 -5 -30 -36 -58 -70 -58 -71 -183 -178 -291 -251 -127 -84 -299 -175 -333
-175 -19 0 -39 -9 -51 -23 -35 -38 -273 -118 -441 -150 -68 -12 -126 -15 -240
-12 -134 5 -160 8 -245 36 -129 43 -210 92 -305 187 -123 123 -181 251 -192
425 -18 292 133 551 405 693 340 179 781 162 1317 -50 77 -30 166 -68 198 -84
l57 -29 0 49 c0 132 -64 339 -178 575 -93 191 -188 364 -407 736 -363 617
-601 1045 -578 1038 5 -2 8 1 8 7 0 5 -6 9 -12 7 -14 -3 -187 345 -306 613
-185 419 -372 937 -433 1199 -14 59 -23 80 -39 87 -11 5 -92 36 -180 70 -88
34 -228 94 -312 134 -142 68 -151 71 -155 51 -2 -11 -5 -140 -7 -286 -2 -146
-4 -285 -6 -310 -1 -25 -3 -90 -4 -146 l-1 -101 -40 -16 c-32 -12 -40 -20 -40
-41 0 -13 5 -28 10 -31 16 -10 11 -39 -9 -52 -15 -9 -30 -7 -77 11 -33 13 -77
26 -100 30 l-40 6 27 -83 c14 -46 33 -96 41 -112 l15 -28 11 32 c8 23 17 31
36 31 29 0 71 -47 81 -90 8 -34 20 -38 48 -12 20 17 20 16 13 -128 -7 -159
-32 -570 -41 -665 -2 -33 -7 -94 -10 -135 -17 -248 -77 -903 -90 -993 -2 -18
-12 -97 -20 -177 -29 -263 -27 -255 -55 -252 -13 1 -31 9 -40 17 -15 13 -19
12 -38 -8 -12 -13 -22 -32 -22 -44 0 -18 5 -20 48 -16 26 2 52 0 59 -4 16 -11
5 -83 -12 -83 -7 0 -23 -8 -36 -19 l-23 -18 32 -17 c29 -15 32 -20 27 -54 -38
-265 -80 -529 -106 -660 -9 -46 -13 -52 -31 -47 -10 4 -30 4 -43 1 -18 -5 -23
-13 -24 -43 0 -21 -2 -47 -4 -57 -3 -26 20 -32 28 -7 3 12 15 21 26 21 24 0
24 7 -7 -103 -177 -630 -585 -999 -1104 -1000 -250 0 -486 80 -714 242 -93 66
-196 158 -196 176 0 6 -13 31 -29 55 -16 24 -27 52 -25 64 2 11 2 15 -2 8 -3
-7 -14 -17 -24 -22 -15 -8 -24 -5 -45 17 -49 53 -150 209 -211 326 l-61 118
-53 -71 c-46 -63 -171 -180 -191 -180 -4 0 -13 16 -19 35 -10 29 -8 44 11 99
15 45 19 76 15 100 -6 32 -10 35 -44 38 -27 2 -36 7 -33 18 3 8 6 38 8 65 3
32 18 78 44 131 122 249 146 617 84 1304 -15 166 -24 243 -70 640 -59 519 -80
816 -91 1330 -4 173 -10 473 -14 665 -7 330 -5 976 4 1075 3 25 7 83 11 130
21 289 71 512 150 670 66 131 269 276 422 300 74 12 162 -8 213 -49 32 -25 36
-34 41 -92 5 -55 21 -109 33 -109 2 0 2 17 -1 39 -3 21 -1 47 5 57 9 15 13 9
27 -41 34 -116 4 -279 -81 -434 -80 -147 -257 -347 -421 -475 l-62 -48 1 -532
c1 -292 4 -661 8 -821 5 -159 11 -407 14 -549 3 -143 8 -282 11 -310 3 -28 9
-114 15 -191 13 -167 12 -164 46 -478 15 -136 25 -249 22 -252 -2 -2 -43 6
-91 19 -48 12 -87 20 -87 16 0 -18 69 -95 130 -144 39 -31 70 -60 71 -64 0 -4
2 -16 4 -27 2 -11 13 -114 24 -230 11 -115 23 -232 25 -260 3 -27 9 -164 12
-303 l7 -253 -26 7 c-35 8 -36 -11 -4 -58 19 -27 26 -54 31 -124 32 -391 174
-716 425 -965 171 -171 331 -264 522 -304 282 -59 540 43 722 285 89 118 179
318 226 505 87 343 232 1450 286 2180 6 84 11 151 20 250 4 51 34 533 50 805
2 47 7 162 11 255 4 94 8 188 10 210 2 22 6 272 10 555 l7 515 -84 65 c-104
80 -228 203 -296 295 -67 89 -133 217 -115 222 16 6 16 78 0 106 -12 20 -13
19 -18 -23 l-6 -45 -13 60 c-42 189 44 373 212 454 240 117 527 -11 590 -261
19 -73 43 -263 51 -388 3 -47 8 -131 12 -188 l7 -103 37 -24 c91 -58 567 -282
577 -272 1 2 3 54 4 117 4 220 26 362 85 539 93 280 262 516 500 697 30 23 45
27 105 28 l70 1 -6 31 c-5 27 -2 32 17 37 13 4 35 -2 55 -14 29 -18 33 -18 33
-4 0 8 11 37 24 63 61 120 193 80 146 -43 -9 -23 -8 -26 6 -21 8 3 40 9 69 12
80 10 82 13 62 78 -17 52 -17 58 -2 90 11 22 25 36 43 40 15 3 61 13 102 22
198 42 467 53 688 28z m4838 -146 c3 -11 15 -18 31 -18 21 0 24 -3 19 -22 -3
-13 -11 -48 -18 -79 -11 -53 -13 -56 -33 -47 -18 8 -31 5 -64 -16 l-41 -26 0
50 c0 45 -4 53 -37 83 l-37 34 48 7 c45 7 49 10 68 53 l20 46 19 -24 c10 -13
21 -32 25 -41z m-12172 -128 c363 -92 613 -472 725 -1099 25 -136 25 -142 7
-135 -10 4 -16 -6 -21 -35 -4 -22 -4 -45 0 -51 10 -16 35 -12 36 8 2 33 17
-78 24 -175 3 -54 8 -127 10 -163 7 -106 22 -453 30 -670 14 -413 24 -736 30
-960 7 -238 22 -999 30 -1440 3 -179 7 -415 10 -525 2 -110 7 -389 10 -620 3
-231 8 -431 11 -444 l5 -24 142 6 c167 6 258 25 352 72 l68 35 36 -32 c20 -18
36 -34 36 -37 0 -3 -14 -33 -31 -66 -17 -33 -34 -74 -37 -90 -5 -29 -3 -32 49
-53 30 -12 64 -22 77 -22 67 -1 -124 -87 -265 -119 -106 -25 -165 -30 -311
-31 l-118 0 5 -87 c3 -49 8 -163 12 -254 7 -191 -2 -227 -68 -285 -115 -101
-296 -60 -472 106 -147 140 -209 260 -210 410 -1 112 31 185 115 265 58 56
172 118 240 132 l31 6 -6 366 c-3 201 -9 448 -12 549 -6 163 -4 182 10 182 20
0 21 26 2 33 -11 4 -15 69 -20 334 -3 180 -8 429 -11 553 -3 124 -7 342 -10
485 -3 143 -7 330 -10 415 -3 85 -7 259 -10 385 -3 127 -7 289 -10 360 -3 72
-7 207 -10 300 -3 94 -8 215 -10 270 -3 55 -10 201 -15 325 -10 220 -25 422
-36 508 -6 42 -6 42 26 42 27 0 31 3 28 23 -2 17 -10 22 -33 22 l-30 0 -27
135 c-58 291 -174 550 -293 660 -15 14 -31 36 -36 49 -6 15 -15 21 -25 17 -8
-3 -34 4 -57 16 -30 16 -60 22 -107 22 -169 1 -347 -162 -472 -432 -39 -85
-99 -276 -113 -361 -5 -33 -10 -40 -16 -29 -5 9 -17 15 -26 13 -10 -2 -35 -7
-55 -10 -29 -4 -38 -11 -38 -25 0 -31 36 -118 64 -155 l26 -34 -20 -153 c-34
-258 -63 -630 -90 -1138 -6 -107 -12 -222 -15 -255 -2 -33 -7 -112 -10 -175
-3 -63 -8 -144 -10 -180 -2 -36 -7 -112 -10 -170 -14 -250 -37 -561 -61 -819
-8 -85 -14 -162 -14 -173 0 -10 -7 -18 -15 -18 -18 0 -19 -5 -3 -29 26 -43
-94 -902 -193 -1376 -130 -623 -232 -866 -394 -941 -56 -26 -90 -29 -164 -13
-97 21 -184 127 -246 299 -42 118 -86 293 -75 300 6 4 11 24 13 46 2 35 0 39
-20 38 -13 0 -23 1 -23 3 0 3 -9 55 -20 117 -46 264 -97 672 -126 1011 -2 33
-7 76 -9 95 -2 19 -7 76 -10 125 -3 50 -8 110 -10 135 -2 25 -6 92 -10 150 -3
58 -8 122 -11 142 -5 35 -4 37 22 35 38 -3 42 22 6 35 -30 11 -30 13 -37 107
-4 53 -9 166 -12 251 -2 85 -6 215 -9 289 -4 81 -2 131 3 128 14 -9 9 252 -5
286 -7 16 -12 86 -13 165 -1 75 -2 172 -3 216 l-2 79 23 -29 c13 -16 23 -41
23 -56 0 -31 3 -33 31 -18 23 13 24 29 2 75 -20 42 -13 52 20 30 l25 -16 -10
40 c-11 44 -19 49 -38 26 -7 -8 -28 -15 -46 -15 l-34 0 4 373 c4 386 -2 533
-28 702 -21 134 -20 145 4 145 18 0 20 7 20 58 1 31 3 112 6 180 l6 122 -44
-1 c-23 -1 -56 -4 -73 -8 -30 -7 -30 -6 -82 101 -28 59 -74 141 -102 181 -65
93 -179 204 -252 246 -31 17 -69 48 -83 69 -14 20 -42 57 -61 82 -29 38 -35
53 -35 96 l0 52 -53 20 c-89 36 -103 37 -131 8 -17 -16 -26 -36 -26 -55 0 -29
6 -34 99 -81 l99 -49 -11 -31 c-9 -23 -18 -30 -38 -30 l-27 0 21 -39 c21 -38
21 -40 3 -60 -18 -20 -18 -21 5 -40 22 -18 25 -19 36 -4 11 14 18 4 53 -71 93
-201 117 -375 70 -501 -30 -79 -106 -155 -180 -180 -103 -34 -255 -1 -293 64
l-18 31 25 0 c37 0 72 19 85 47 14 32 14 33 -7 33 -32 0 -52 24 -67 80 -9 35
-24 64 -41 78 l-27 24 -14 -26 c-11 -22 -17 -24 -33 -16 -10 6 -22 15 -25 20
-21 34 -50 -40 -42 -106 6 -58 -5 -48 -74 59 -60 94 -113 203 -130 270 -11 44
-10 50 10 71 29 31 27 39 -16 53 -33 10 -40 10 -50 -4 -17 -22 -16 -44 1 -68
11 -18 8 -35 -30 -140 -43 -119 -43 -120 -44 -70 0 45 -3 52 -31 68 -38 21
-56 22 -39 2 22 -27 -3 -41 -50 -28 -22 5 -42 8 -45 5 -14 -14 -3 -81 19 -113
26 -38 75 -65 101 -55 19 7 20 26 1 26 -19 0 -48 29 -41 41 4 5 18 9 33 9 52
0 54 -8 23 -116 -15 -54 -41 -151 -56 -214 l-29 -115 -15 51 c-9 28 -24 62
-33 75 l-17 24 0 -42 c-1 -51 11 -85 39 -111 l21 -19 -35 -169 c-70 -342 -136
-762 -185 -1189 -21 -180 -71 -685 -71 -719 0 -18 -1 -19 -20 -1 -20 18 -20
18 -14 -27 6 -40 4 -48 -14 -57 -18 -9 -22 -7 -30 17 -8 19 -11 -51 -11 -246
l-1 -272 25 -12 c23 -10 25 -16 20 -57 -5 -57 -13 -199 -21 -401 -3 -85 -7
-175 -9 -200 -7 -98 -20 -791 -20 -1075 0 -723 51 -1260 171 -1824 31 -142
106 -426 130 -485 4 -11 3 -17 -2 -14 -5 3 -19 -8 -32 -23 -18 -23 -20 -29 -8
-29 8 0 24 10 36 22 11 12 20 16 20 9 0 -19 67 -194 118 -311 221 -499 524
-837 817 -909 75 -19 185 -15 256 9 128 43 204 107 331 279 166 225 422 454
553 497 28 9 67 29 87 45 58 46 280 126 400 145 34 6 38 4 38 -15 0 -12 11
-33 25 -47 34 -34 55 -18 55 41 l0 42 61 7 c341 35 748 -59 1055 -245 191
-115 385 -285 528 -464 71 -88 72 -91 69 -140 -3 -29 2 -67 11 -90 8 -22 15
-32 15 -21 1 20 28 56 42 56 12 0 100 -152 175 -301 47 -95 62 -134 56 -147
-5 -9 -12 -39 -15 -67 l-5 -50 31 1 c27 1 33 6 37 28 5 25 10 20 69 -65 182
-258 392 -442 681 -598 83 -44 91 -51 63 -51 -29 0 -53 -21 -53 -44 0 -15 50
-4 75 16 l27 21 62 -23 c221 -83 397 -120 611 -129 404 -17 731 70 1044 279
96 64 189 153 399 378 361 386 707 502 1107 370 503 -166 985 -601 1241 -1123
58 -117 62 -131 47 -142 -22 -17 -21 -72 2 -89 25 -19 35 -18 35 4 1 14 2 15
9 2 13 -21 57 -161 77 -242 l16 -68 433 0 433 0 -19 -50 -19 -50 24 0 c35 0
45 18 51 96 7 91 48 272 92 409 130 403 351 757 660 1055 157 152 280 242 438
320 129 64 299 116 343 105 14 -3 28 -2 31 4 6 9 128 19 134 10 5 -7 150 -204
153 -208 2 -2 15 6 29 17 14 12 51 26 81 33 58 13 64 23 35 60 -10 13 -21 34
-25 47 -10 32 15 29 143 -13 209 -70 452 -209 646 -370 108 -89 288 -267 401
-396 106 -121 168 -176 274 -245 391 -253 964 -256 1846 -9 71 20 138 38 149
41 11 3 6 -3 -12 -15 l-33 -20 25 -25 c21 -21 25 -35 25 -81 l0 -57 62 61 c71
71 180 130 275 150 l63 14 -30 38 c-17 20 -27 40 -23 42 26 16 1063 337 1087
337 3 0 6 -6 6 -14 0 -8 7 -17 16 -20 13 -5 15 -15 8 -59 -13 -90 -5 -125 27
-131 39 -7 61 -20 75 -47 18 -36 13 -45 -29 -54 -55 -12 -463 -138 -862 -265
-759 -242 -1123 -336 -1540 -397 -241 -35 -795 -19 -795 23 0 8 -9 14 -20 14
-11 0 -20 -4 -20 -9 0 -20 -237 58 -355 116 -177 89 -300 191 -508 422 l-122
136 27 26 c30 29 51 95 46 142 l-4 32 -11 -25 c-6 -14 -25 -42 -42 -64 -17
-21 -31 -42 -31 -45 0 -3 -4 -12 -9 -20 -7 -11 -30 4 -108 71 -252 218 -457
334 -713 404 -92 25 -311 25 -400 1 -195 -53 -388 -198 -630 -474 -246 -280
-486 -629 -650 -948 -55 -106 -72 -152 -95 -250 -23 -101 -29 -116 -38 -97 -6
14 -19 22 -34 22 -32 0 -25 -21 11 -39 33 -16 35 3 -30 -268 l-48 -203 -391 0
-392 0 -12 67 c-7 37 -16 72 -21 78 -4 5 -20 48 -34 95 -14 47 -43 131 -65
188 -21 56 -35 105 -30 108 5 3 9 16 9 30 0 18 -5 24 -21 24 -16 0 -30 21 -68
103 -67 143 -140 273 -227 404 -78 117 -84 139 -60 198 13 29 13 35 1 35 -7 0
-24 13 -38 29 -31 37 -42 29 -17 -12 33 -53 -7 -67 -53 -19 -25 26 -26 32 -20
95 l6 67 -49 -6 c-27 -4 -51 -8 -53 -10 -2 -2 -51 41 -110 94 -58 53 -135 120
-171 148 -162 128 -389 257 -562 319 -62 22 -85 34 -77 42 6 6 7 22 3 38 -7
27 -8 27 -21 9 -8 -10 -12 -27 -9 -37 4 -15 1 -18 -17 -13 -48 14 -155 18
-212 7 -141 -25 -336 -154 -482 -319 -142 -159 -327 -336 -423 -405 -175 -124
-450 -246 -680 -301 -205 -49 -501 -66 -720 -41 -680 79 -1262 435 -1640 1002
-37 57 -107 179 -154 273 -93 183 -143 270 -209 359 -291 400 -672 630 -1111
670 -302 29 -592 -45 -853 -215 -108 -69 -286 -246 -366 -362 -327 -471 -827
-572 -1281 -258 -503 347 -880 1128 -1061 2201 -47 281 -86 657 -105 1015 -8
159 -5 1329 4 1380 2 14 7 124 11 245 3 121 8 243 10 270 2 28 6 102 10 165
11 222 18 348 41 665 50 708 152 1511 261 2055 63 316 212 866 221 817 5 -25
42 -22 42 3 0 13 -7 20 -20 20 -20 0 -20 0 1 58 42 113 148 319 206 397 72 98
140 159 213 194 47 22 68 26 150 26 81 0 103 -4 150 -25 l55 -26 65 19 c109
31 374 22 414 -15 6 -4 21 -8 35 -8 15 0 72 -23 128 -51 l102 -50 -5 -42 c-8
-61 27 -124 86 -155 37 -19 54 -23 98 -18 l52 6 64 -87 c182 -245 296 -566
358 -1006 19 -141 21 -204 25 -874 3 -512 1 -723 -6 -723 -16 0 -14 -25 3 -39
10 -9 14 -41 15 -124 2 -185 19 -579 41 -937 16 -254 23 -350 50 -655 11 -129
11 -126 35 -345 52 -470 158 -1052 186 -1023 34 35 190 709 224 969 6 43 10
50 29 50 16 -1 20 4 18 19 -2 11 -9 23 -16 27 -9 5 -5 52 16 195 42 288 84
671 113 1023 8 102 17 212 20 245 3 33 12 170 20 305 8 135 17 281 20 325 3
44 10 166 15 270 10 184 15 283 25 430 3 39 7 117 10 175 4 58 11 161 16 229
5 68 9 130 9 137 0 8 7 14 15 14 8 0 15 9 15 20 0 11 -4 20 -10 20 -14 0 -12
72 5 230 30 281 34 300 76 385 52 105 59 148 30 179 l-22 24 34 133 c65 252
149 439 268 600 217 293 498 420 773 349z m11011 -215 c10 -27 22 -54 25 -58
4 -5 38 -16 75 -26 l68 -17 -56 -48 -57 -48 6 -69 c4 -38 4 -69 1 -69 -4 0
-32 16 -63 36 l-56 36 -62 -26 c-33 -14 -64 -26 -68 -26 -4 0 2 30 12 67 20
74 22 68 -39 138 l-35 39 25 7 c13 4 45 7 71 8 46 1 47 2 83 62 21 33 41 57
45 52 4 -4 15 -30 25 -58z m5411 -426 c63 18 65 16 43 -35 l-19 -47 26 -44 26
-45 -53 4 c-51 3 -54 1 -90 -36 l-37 -40 -7 51 c-6 50 -8 52 -58 73 l-51 22
40 24 c21 13 42 24 47 24 4 0 7 18 7 39 0 71 8 77 50 36 36 -35 39 -36 76 -26z
m-5646 -934 c20 -32 26 -35 67 -35 l44 0 -29 -36 c-27 -32 -29 -40 -20 -71 5
-19 7 -37 4 -40 -2 -3 -20 1 -39 8 -31 11 -38 10 -71 -10 l-36 -23 0 46 c0 38
-4 48 -30 66 -36 25 -32 37 15 46 30 5 37 12 47 45 6 21 15 39 19 39 4 0 17
-16 29 -35z m2939 -507 c45 11 49 6 27 -37 -14 -26 -13 -31 11 -66 l25 -37
-43 4 c-39 4 -47 1 -71 -26 -28 -33 -30 -31 -42 24 -4 17 -17 30 -43 40 l-37
16 37 22 c20 13 36 26 36 30 -1 4 -1 22 0 41 l1 35 29 -28 c28 -27 33 -28 70
-18z m3657 -222 c24 -10 44 -21 44 -24 0 -4 -20 -17 -43 -28 -38 -20 -43 -26
-52 -73 l-10 -52 -35 36 c-34 36 -37 37 -88 31 l-53 -6 21 39 c25 50 25 57 0
104 l-21 39 53 -7 c51 -6 54 -5 88 30 l35 37 9 -54 c8 -51 11 -55 52 -72z
m-17684 -828 c25 -17 30 -18 64 -3 52 22 55 20 39 -26 -15 -41 -14 -42 16 -80
l31 -39 -45 0 c-41 0 -46 -3 -72 -42 l-28 -42 -17 44 c-15 39 -23 46 -56 54
-22 5 -41 10 -43 13 -3 2 11 16 29 32 31 26 34 32 31 76 -3 51 -3 51 51 13z
m17523 -232 c227 -41 424 -140 589 -296 177 -169 289 -371 341 -617 23 -106
24 -312 2 -424 -26 -132 -93 -314 -104 -281 -6 17 -43 15 -65 -5 -22 -20 -23
-54 -3 -93 14 -27 13 -30 -32 -92 -65 -90 -186 -206 -278 -268 -157 -106 -353
-179 -505 -187 -47 -3 -119 -7 -160 -10 -142 -9 -368 45 -452 109 -26 20 -71
44 -100 53 -71 24 -126 63 -231 164 -93 90 -187 219 -237 327 -316 675 76
1457 810 1614 106 23 313 26 425 6z m-17532 -1179 c27 -18 31 -19 70 -3 22 9
42 14 44 12 3 -2 -1 -23 -7 -46 -11 -39 -10 -43 19 -76 32 -35 37 -45 24 -43
-5 1 -26 1 -49 0 -37 -1 -43 -5 -64 -43 l-24 -42 -19 46 c-17 42 -23 47 -65
58 l-46 11 38 33 c38 31 39 33 32 80 -8 52 -9 52 47 13z m13372 -66 c-6 -35
-4 -41 19 -56 30 -20 27 -30 -12 -38 -19 -4 -33 -16 -44 -39 l-16 -33 -18 32
c-15 26 -25 33 -51 33 -38 0 -41 9 -12 35 16 16 19 26 14 57 -8 43 -5 44 34
24 25 -13 30 -13 57 5 16 10 31 19 32 19 2 0 1 -18 -3 -39z m-16849 -172 c27
-29 32 -30 82 -24 l52 6 -21 -44 -22 -45 22 -35 c30 -49 27 -55 -25 -49 -42 4
-48 2 -83 -32 l-38 -37 -7 50 c-6 48 -9 51 -51 70 -55 24 -58 36 -8 28 41 -7
93 10 93 30 0 6 -9 32 -20 58 -11 26 -20 49 -20 51 0 12 20 1 46 -27z m12415
-39 c21 0 39 -3 39 -6 0 -3 -9 -19 -20 -34 -19 -27 -20 -32 -6 -65 14 -32 14
-35 -2 -34 -9 0 -26 4 -37 9 -14 5 -29 1 -52 -16 l-32 -25 -6 24 c-4 13 -5 29
-3 37 2 7 -11 23 -29 34 -40 26 -41 33 -4 41 36 8 47 20 56 64 l7 34 25 -32
c20 -25 32 -31 64 -31z m6398 -70 c28 0 32 -3 25 -17 -10 -23 -10 -63 1 -87 7
-16 5 -18 -24 -11 -28 6 -37 3 -62 -21 l-29 -28 0 37 c0 30 -5 39 -30 52 -16
9 -30 18 -30 20 0 2 14 11 30 20 20 10 30 23 30 39 0 34 11 39 35 16 12 -12
35 -20 54 -20z m3076 -1754 l48 6 -27 -46 -27 -46 21 -41 c12 -22 20 -42 18
-44 -2 -2 -25 2 -51 8 -46 10 -48 10 -81 -22 -37 -36 -46 -30 -46 33 0 28 -6
36 -46 58 l-45 25 49 20 c37 16 53 29 66 58 l18 37 27 -27 c25 -23 33 -25 76
-19z m-9164 -668 c17 -10 23 -10 26 0 3 6 18 12 34 12 22 0 29 -5 29 -20 0
-17 7 -20 40 -20 22 0 40 5 40 10 0 6 13 10 29 10 24 0 34 -8 53 -42 29 -53
42 -57 58 -18 14 35 17 35 117 -10 106 -48 205 -119 298 -214 112 -115 186
-235 238 -387 4 -14 14 -15 74 -6 77 10 198 -4 269 -31 252 -99 261 -385 19
-585 l-37 -30 7 44 c5 31 20 58 50 92 60 69 95 144 96 209 1 66 -10 96 -56
146 -62 70 -196 108 -333 95 l-64 -6 6 -31 c4 -17 9 -89 13 -160 l6 -129 -25
6 c-25 7 -26 5 -31 -56 -3 -34 -11 -89 -18 -121 -11 -47 -11 -60 -1 -64 20 -6
14 -33 -23 -110 -19 -40 -30 -72 -24 -72 5 0 64 27 131 61 101 51 127 60 155
54 18 -3 33 -9 33 -13 0 -16 -206 -125 -324 -172 -49 -19 -79 -44 -165 -129
-73 -73 -132 -121 -189 -155 -260 -154 -556 -187 -839 -92 -84 28 -214 95
-220 112 -2 7 36 11 114 12 65 1 145 4 178 7 33 2 92 7 130 10 223 19 568 93
822 176 90 30 104 40 137 96 8 15 -162 -44 -185 -64 -9 -7 -18 -11 -21 -7 -11
11 -140 -31 -149 -48 -11 -20 -35 -24 -41 -7 -4 13 -138 -19 -138 -33 0 -6 -7
-7 -16 -4 -9 3 -62 -2 -118 -13 -55 -10 -122 -22 -148 -25 -43 -7 -46 -6 -41
14 4 14 1 20 -12 20 -12 0 -16 -6 -12 -20 6 -25 -3 -28 -138 -36 -76 -4 -113
-10 -121 -20 -13 -16 -44 -19 -44 -4 0 5 11 12 25 16 30 7 30 12 8 44 -38 56
-69 55 -80 -2 -7 -34 -13 -44 -31 -46 -13 -2 -22 2 -22 10 0 16 -54 38 -92 38
-17 0 -27 -7 -31 -20 -4 -15 -14 -20 -39 -20 l-33 -1 35 -30 35 -31 -65 7
c-378 39 -642 140 -789 301 -56 61 -62 79 -29 90 18 5 29 -2 62 -40 102 -121
322 -222 583 -266 63 -11 122 -20 131 -20 9 0 -11 27 -49 68 -63 64 -129 152
-129 169 0 4 16 -9 35 -29 18 -21 41 -38 49 -38 21 0 43 36 51 83 12 63 57 78
140 47 54 -21 70 -14 81 35 10 45 10 46 -20 64 -17 10 -61 28 -98 41 -70 22
-108 55 -108 92 0 17 -7 19 -74 16 l-74 -3 -12 -102 c-12 -107 -10 -120 22
-132 19 -7 19 -7 0 -24 -19 -18 -21 -16 -52 60 -55 131 -70 193 -85 358 -4 33
-8 62 -11 64 -9 9 -157 -40 -230 -76 -40 -20 -95 -56 -122 -79 l-49 -43 -22
23 -22 23 48 42 c82 70 296 166 388 173 20 2 24 9 30 58 39 312 254 609 550
758 142 71 375 120 426 90z m-11804 -48 c-5 -36 -2 -43 26 -64 33 -26 32 -28
-23 -40 -18 -4 -30 -16 -39 -42 l-13 -36 -24 36 c-21 30 -31 36 -61 36 l-35 0
25 34 c22 28 25 39 17 65 -9 34 -5 36 36 21 21 -8 33 -7 58 9 17 11 33 20 35
20 2 1 1 -17 -2 -39z m7542 -126 c25 -15 30 -15 65 0 35 14 37 14 33 -2 -17
-61 -16 -69 8 -92 34 -32 31 -40 -15 -40 -34 0 -42 -4 -55 -30 -20 -39 -31
-38 -45 4 -10 30 -17 35 -53 41 l-42 8 34 27 c29 25 33 33 29 64 -4 40 2 43
41 20z m5919 -234 l44 0 -23 -36 c-20 -33 -21 -40 -10 -71 7 -19 11 -36 9 -39
-2 -2 -19 1 -38 6 -29 8 -38 6 -66 -15 l-32 -25 -7 30 c-4 16 -4 34 -1 39 4 5
-10 19 -29 31 -40 25 -40 25 6 48 26 13 36 26 43 56 l9 39 26 -31 c22 -27 33
-32 69 -32z m-9518 -350 c0 -33 3 -60 8 -60 4 0 23 -13 42 -29 l34 -29 -44
-13 c-60 -17 -65 -22 -80 -74 -7 -25 -15 -45 -19 -45 -3 0 -19 18 -34 40 -28
40 -35 43 -104 42 -18 0 -33 3 -33 7 0 4 14 26 31 49 l31 42 -16 47 c-9 25
-14 49 -11 51 2 3 25 -3 51 -13 l46 -17 41 30 c23 17 45 31 50 32 4 0 7 -27 7
-60z m13390 10 l40 -20 40 20 c21 11 41 20 43 20 2 0 1 -20 -3 -45 -6 -41 -4
-47 27 -77 36 -35 33 -41 -27 -52 -29 -5 -38 -13 -53 -49 -20 -46 -22 -45 -59
22 -15 28 -22 31 -65 31 l-47 0 38 39 c38 39 39 42 19 114 -6 22 -1 21 47 -3z
m-9157 -575 l58 -35 59 30 c33 17 64 30 69 30 5 0 2 -31 -7 -70 l-15 -70 52
-60 52 -60 -38 -1 c-95 -1 -114 -10 -147 -70 -17 -31 -35 -58 -39 -60 -5 -2
-21 25 -37 61 l-29 65 -75 15 -75 15 56 49 55 49 -6 74 c-4 40 -3 73 1 73 4 0
34 -16 66 -35z m-2514 -30 l38 -35 49 15 c26 8 50 12 52 10 3 -2 -4 -26 -16
-52 l-20 -47 29 -42 c16 -24 29 -44 29 -47 0 -2 -24 -2 -54 1 -52 4 -54 4 -87
-37 -36 -45 -42 -43 -53 22 -6 34 -13 40 -59 61 l-52 23 48 29 c46 29 47 29
47 81 0 29 2 53 5 53 3 0 22 -16 44 -35z m7511 -587 c0 -4 27 -8 61 -10 l61
-3 -32 -44 -32 -43 17 -45 c9 -24 15 -47 12 -50 -3 -3 -26 2 -50 10 l-44 15
-44 -35 -44 -35 -3 56 c-3 53 -5 58 -43 83 -21 14 -39 29 -39 33 0 3 21 13 48
21 45 14 48 17 61 68 l15 53 28 -33 c15 -19 28 -37 28 -41z m6450 -269 c135
-16 226 -37 367 -84 778 -258 1344 -999 1643 -2150 80 -306 132 -629 155 -950
3 -44 8 -109 11 -145 9 -114 6 -699 -5 -865 -38 -561 -110 -1085 -242 -1740
-127 -631 -278 -1230 -621 -2465 -301 -1087 -396 -1450 -497 -1900 -68 -304
-135 -671 -156 -850 -3 -25 -9 -81 -14 -126 -59 -495 -16 -995 100 -1174 53
-82 166 -323 209 -445 119 -343 167 -669 157 -1059 -6 -225 -17 -297 -72 -442
-85 -225 -296 -427 -547 -524 -206 -80 -404 -113 -674 -114 -175 -1 -192 1
-210 18 -15 15 -20 16 -22 5 -2 -12 -97 -14 -662 -11 l-660 2 -47 -25 c-27
-14 -57 -32 -69 -40 -19 -14 -22 -13 -45 22 -36 56 -82 83 -143 83 -81 0 -135
-47 -136 -117 0 -29 5 -34 54 -56 68 -31 112 -41 121 -28 3 6 2 11 -3 11 -14
0 -35 57 -27 71 8 11 129 8 141 -4 3 -3 -20 -36 -51 -73 -240 -282 -482 -881
-651 -1606 -15 -65 -30 -118 -33 -118 -3 0 -15 15 -25 33 l-20 32 -7 -30 c-12
-52 -10 -113 6 -159 20 -57 11 -99 -17 -90 -16 5 -19 2 -14 -13 9 -29 10 -124
1 -173 -15 -90 -59 -138 -115 -126 -60 11 -28 -39 43 -69 21 -8 34 -20 32 -28
-2 -6 -20 -122 -39 -257 -50 -348 -84 -660 -102 -930 -3 -52 -8 -108 -10 -125
-3 -16 -6 -221 -8 -455 -5 -509 8 -705 65 -999 57 -285 144 -434 329 -556 273
-180 618 -258 1140 -257 349 0 674 33 1027 103 128 25 158 28 193 19 43 -12
110 -70 110 -96 0 -17 -125 -230 -140 -239 -34 -21 -498 -92 -755 -117 -177
-16 -664 -16 -810 0 -244 28 -561 99 -572 129 -3 8 -15 13 -27 12 -30 -4 -87
17 -200 73 -134 66 -233 136 -336 236 l-85 83 -90 -30 c-81 -27 -122 -38 -207
-56 -19 -3 -34 -17 -47 -43 -84 -165 -251 -293 -466 -358 -174 -52 -539 -43
-861 21 -773 155 -1390 628 -1776 1362 -53 99 -69 121 -162 210 -56 55 -138
127 -182 160 -84 64 -183 128 -188 122 -2 -2 9 -62 25 -134 35 -161 84 -447
99 -580 6 -55 13 -116 16 -135 13 -88 16 -503 5 -615 -23 -234 -83 -470 -158
-620 -87 -171 -272 -285 -465 -285 -66 0 -68 1 -68 25 0 25 -31 65 -50 65 -14
0 -12 -54 3 -69 10 -11 6 -12 -23 -6 -62 13 -175 64 -254 116 -142 93 -346
320 -455 506 -19 32 -50 82 -68 111 -61 94 -168 316 -200 413 -50 150 -64 232
-70 405 -6 190 9 308 62 470 124 378 420 674 778 778 108 31 177 42 177 27 0
-6 9 -11 20 -11 11 0 20 7 20 15 0 12 13 15 55 15 42 0 55 3 55 15 0 27 -156
513 -264 820 -57 165 -177 498 -266 740 -286 777 -350 954 -447 1245 -212 634
-360 936 -554 1132 -85 87 -151 124 -203 114 -42 -8 -105 -62 -146 -125 -31
-50 -32 -50 -56 -34 -14 8 -26 14 -27 12 -2 -2 -11 -23 -22 -47 -14 -32 -15
-46 -7 -54 9 -9 17 -7 33 8 22 19 22 19 15 -1 -5 -11 -19 -49 -33 -85 -61
-158 -107 -362 -133 -585 -6 -55 -13 -113 -15 -130 -4 -26 -11 -117 -30 -370
-12 -167 -23 -376 -40 -790 -20 -482 -24 -567 -31 -726 l-6 -136 -57 -16 c-31
-9 -87 -30 -124 -47 -79 -37 -78 -29 -11 -160 52 -100 125 -202 137 -191 5 5
11 27 14 48 5 38 3 41 -26 51 -31 11 -51 43 -51 83 0 26 16 24 52 -7 17 -14
37 -23 45 -20 11 5 13 -3 9 -37 -3 -23 -8 -112 -11 -197 -4 -85 -8 -168 -10
-185 -2 -16 -7 -86 -10 -155 -8 -173 -12 -192 -39 -188 -17 2 -20 9 -18 31 4
41 -14 57 -64 57 -40 0 -44 -2 -44 -24 0 -14 11 -38 24 -53 21 -24 31 -28 76
-27 l52 1 -4 -59 c-2 -31 -7 -60 -10 -64 -4 -3 -42 -8 -85 -11 -81 -5 -103
-14 -103 -41 0 -12 3 -13 12 -4 28 28 174 2 172 -31 0 -10 -1 -31 -2 -48 -1
-16 -6 -28 -11 -25 -5 3 -14 -8 -21 -24 -11 -26 -10 -33 6 -51 17 -19 17 -26
0 -197 -95 -976 -251 -1683 -459 -2087 -128 -248 -408 -377 -842 -387 -110 -3
-130 -1 -130 12 0 8 -18 42 -39 75 -38 58 -77 155 -90 222 l-5 33 177 0 c370
-1 556 65 635 225 177 358 320 1011 402 1840 8 88 17 180 20 205 16 153 59
799 70 1035 3 66 7 156 10 200 5 89 7 130 35 830 11 270 22 526 25 570 2 44 7
134 10 200 5 111 8 165 20 315 2 30 7 96 10 145 47 706 193 1187 429 1418 59
58 197 141 210 126 2 -2 9 -24 17 -49 10 -33 20 -46 36 -48 20 -3 21 -1 12 40
-6 23 -14 47 -19 54 -16 19 1 24 81 24 173 0 346 -97 495 -278 58 -70 65 -87
35 -77 -14 4 -20 0 -23 -20 -5 -22 -2 -25 14 -19 33 10 77 -16 103 -61 29 -49
32 -83 8 -101 -28 -21 -42 -16 -56 18 l-14 33 -7 -29 c-7 -27 -9 -28 -44 -21
-66 13 -86 11 -90 -7 -2 -12 3 -18 16 -18 38 0 52 -12 58 -51 l6 -38 43 6 c34
4 55 0 100 -21 72 -33 85 -33 85 -1 0 14 4 25 9 25 31 0 331 -764 318 -810 -3
-8 -8 -24 -13 -34 -6 -16 -4 -18 13 -14 18 5 26 -12 83 -176 34 -99 157 -437
272 -751 340 -921 497 -1375 618 -1786 77 -262 58 -233 180 -283 58 -24 137
-61 175 -83 39 -23 71 -37 73 -33 1 4 -6 47 -17 96 -23 103 -56 302 -66 389
-3 33 -9 80 -12 105 -11 90 -19 349 -16 500 19 816 265 1592 679 2147 112 150
238 289 242 267 2 -11 8 -34 13 -52 10 -29 14 -32 49 -32 22 0 50 5 64 11 71
33 65 169 -7 169 -30 0 -30 0 -11 21 28 32 171 142 266 205 98 65 332 184 424
214 57 19 67 26 86 63 67 133 306 414 416 491 115 79 257 20 275 -115 9 -67
-15 -107 -125 -210 l-103 -97 190 0 c263 0 347 -11 437 -59 135 -71 243 -194
290 -331 34 -101 32 -248 -6 -357 -39 -113 -98 -219 -183 -329 -115 -149 -235
-236 -389 -282 -80 -24 -255 -24 -344 0 -212 57 -389 203 -495 406 -57 111
-85 211 -92 333 l-6 97 -66 -36 c-106 -59 -237 -152 -332 -236 -49 -43 -89
-74 -89 -68 0 5 -9 10 -20 10 -11 0 -20 -7 -20 -15 0 -8 7 -15 17 -15 10 0 -4
-22 -43 -62 -243 -255 -471 -661 -602 -1070 -177 -551 -222 -1223 -122 -1816
43 -256 132 -556 229 -773 l48 -107 -32 5 -32 5 1 -71 c1 -69 2 -71 27 -71 28
0 55 24 61 55 2 15 15 -1 45 -57 57 -102 167 -264 246 -363 84 -103 269 -284
374 -363 353 -267 786 -416 1278 -438 77 -4 146 -11 153 -17 10 -8 16 -7 20 0
4 6 36 16 72 23 79 14 150 41 203 76 l41 27 -59 30 c-116 58 -213 186 -251
330 -73 277 52 632 255 725 111 51 229 26 318 -66 91 -93 169 -317 195 -555 6
-62 12 -113 13 -114 1 -3 96 27 102 31 1 1 -6 31 -17 67 -30 96 -66 287 -84
434 -8 72 -18 153 -21 180 -10 80 -13 908 -4 1040 4 66 10 156 13 200 18 269
60 640 111 980 38 245 110 644 124 685 5 14 14 59 21 100 7 41 15 80 19 85 4
6 8 22 9 37 1 15 27 125 57 244 30 119 55 218 55 220 0 2 10 4 23 4 33 0 148
71 145 89 -2 8 -27 29 -55 46 -30 17 -53 37 -53 47 0 23 103 320 162 468 71
175 194 415 279 545 50 75 106 143 178 215 116 115 197 169 304 201 66 21 79
21 865 15 1016 -7 940 -8 1060 10 235 34 392 103 512 223 139 140 170 234 175
536 7 431 -73 810 -242 1150 -30 61 -71 132 -90 159 -42 59 -74 147 -107 299
-37 170 -38 185 -16 192 29 9 34 35 6 35 -13 0 -27 8 -31 18 -4 9 -9 116 -12
237 -8 309 14 572 78 965 92 564 217 1074 600 2452 368 1327 518 1921 650
2583 40 200 44 211 80 258 43 53 60 113 38 128 -8 5 -20 13 -27 18 -13 7 -8
46 64 509 4 27 8 31 19 22 8 -6 17 -26 20 -43 12 -60 16 -67 40 -67 24 0 25 2
41 111 5 30 3 36 -13 36 -83 -1 -104 3 -99 21 3 9 7 42 11 72 3 30 10 93 15
140 13 114 28 294 35 410 3 52 8 136 11 185 15 239 -1 743 -32 1015 -87 769
-336 1474 -686 1944 -284 382 -644 625 -1046 708 -154 31 -412 31 -564 0 -165
-34 -359 -109 -452 -175 l-28 -20 87 -44 c114 -57 182 -104 329 -227 322 -269
531 -527 581 -716 40 -150 -11 -296 -128 -364 -51 -30 -160 -61 -165 -46 -5
13 -49 13 -57 0 -17 -28 -217 2 -365 55 -109 39 -291 136 -400 213 -118 83
-339 302 -404 400 -27 41 -60 106 -74 145 -32 93 -41 228 -19 310 l15 57 -123
0 c-208 0 -462 -34 -745 -99 -69 -16 -128 -27 -132 -24 -12 7 -9 31 4 39 6 4
31 6 55 5 38 -1 45 2 53 25 22 57 5 138 -48 221 -23 37 -32 43 -62 44 -44 1
110 38 305 74 251 45 407 58 661 53 l230 -5 70 59 c205 176 458 297 738 353
67 13 137 26 156 28 77 8 330 6 410 -4z m-10359 -119 c11 0 28 9 39 20 34 34
42 25 35 -37 -7 -55 -5 -59 24 -87 38 -37 39 -46 4 -46 -53 0 -74 -12 -100
-58 l-27 -45 -25 51 c-23 48 -27 51 -73 57 -26 4 -48 10 -48 15 0 4 16 22 36
39 35 31 35 32 28 88 l-7 56 48 -26 c26 -15 56 -27 66 -27z m-9531 -545 c14
-12 26 -14 58 -6 l41 9 -20 -39 c-18 -36 -18 -41 -4 -69 24 -46 20 -53 -22
-47 -31 5 -42 2 -64 -19 -32 -31 -49 -25 -49 16 0 24 -7 33 -40 50 -45 23 -45
31 0 50 22 9 33 22 37 41 6 33 35 39 63 14z m-1753 -357 c33 -31 34 -32 86
-21 28 6 53 10 55 8 1 -1 -7 -23 -18 -49 l-20 -47 25 -37 c14 -20 25 -40 25
-45 0 -5 -23 -7 -51 -6 -48 3 -52 1 -83 -36 -35 -41 -40 -40 -51 17 -8 43 -16
50 -67 69 -21 7 -38 16 -38 20 0 4 19 18 43 31 40 22 42 25 45 76 2 28 6 52
10 52 3 0 21 -14 39 -32z m4524 -162 c32 -27 30 -30 -18 -41 -18 -3 -37 -13
-41 -21 -7 -12 -15 -11 -57 7 -33 15 -50 18 -53 10 -2 -6 -15 -11 -29 -11
l-25 0 32 36 c18 21 29 42 26 51 -4 8 -9 26 -13 40 -5 24 -4 25 18 19 52 -16
65 -16 94 2 l30 19 3 -43 c2 -33 10 -49 33 -68z m5179 -780 c0 -14 4 -27 9
-31 12 -7 30 25 24 43 -4 10 19 12 104 10 l108 -3 7 -75 c27 -273 108 -1169
108 -1192 0 -30 -25 -39 -48 -16 -9 9 -15 9 -24 0 -9 -9 -335 -12 -1404 -12
-1318 0 -1393 1 -1398 18 -3 9 -12 49 -20 87 -8 39 -36 160 -61 270 -92 401
-205 904 -205 909 0 6 459 9 2018 14 l782 2 0 -24z m3591 -6 c74 -41 128 -41
162 0 l26 30 444 0 c527 0 813 -8 797 -24 -5 -5 -10 -23 -10 -38 0 -21 5 -28
19 -28 14 0 20 10 25 42 l7 41 751 -6 c413 -4 753 -9 755 -11 3 -3 -25 -170
-61 -373 -36 -202 -86 -483 -111 -623 -25 -140 -47 -261 -50 -267 -3 -10 -256
-13 -1176 -13 -1000 0 -1175 2 -1188 14 -9 8 -33 17 -53 21 -34 6 -38 5 -38
-13 0 -20 -5 -21 -260 -21 l-260 0 0 34 c0 28 17 249 45 580 3 33 12 146 20
250 38 480 30 435 69 435 18 0 57 -13 87 -30z m-6429 -165 c21 -93 40 -176 43
-182 3 -10 -176 -13 -877 -13 l-881 0 -31 23 c-25 19 -35 21 -52 13 -11 -6
-19 -16 -17 -23 3 -9 -131 -12 -542 -13 l-546 -1 11 22 c18 32 1 37 -25 7
l-24 -28 -180 0 -180 0 -11 58 c-7 31 -23 104 -35 161 -13 58 -22 108 -19 112
2 5 141 8 307 9 166 0 371 3 456 6 143 5 154 4 141 -11 -12 -14 -12 -18 1 -26
8 -5 26 -9 42 -9 22 0 27 4 27 25 0 24 2 25 73 25 252 0 1303 13 1306 16 2 2
222 3 489 1 l485 -2 39 -170z m10015 168 l172 -6 12 -31 c15 -39 38 -66 56
-66 24 0 14 31 -23 68 l-35 35 553 -7 c1049 -12 2003 -28 2007 -32 3 -3 -20
-129 -51 -276 l-10 -48 -1637 0 -1637 0 33 183 c18 100 33 183 33 185 0 5 360
2 527 -5z m-13421 -228 c99 -456 224 -1034 224 -1039 0 -3 -705 -6 -1568 -6
l-1567 0 -25 52 -26 53 24 43 c13 23 19 42 13 42 -21 0 -63 -79 -70 -132 l-6
-53 -78 -7 c-50 -5 -98 -16 -134 -33 -30 -14 -57 -25 -59 -25 -1 0 -1 15 2 33
2 17 13 102 24 187 53 401 141 747 231 906 42 74 97 121 152 129 76 12 91 6
101 -43 12 -58 40 -55 44 5 l3 42 165 3 c90 2 164 0 164 -4 0 -13 68 -48 84
-42 9 3 16 17 16 30 l0 24 228 1 c125 0 234 2 242 4 9 1 279 6 600 10 322 4
587 9 589 11 2 2 135 2 295 1 l291 -2 41 -190z m17044 180 c869 -12 1683 -25
1805 -30 197 -7 294 -42 385 -142 136 -148 188 -398 176 -853 -3 -135 -8 -254
-10 -265 -3 -11 -5 -22 -5 -24 -1 -2 -9 3 -18 11 -10 9 -34 24 -53 33 -85 43
-107 45 -742 45 -335 0 -608 2 -608 4 0 2 9 23 20 47 35 78 21 182 -36 256
-39 51 -71 46 -149 -27 l-64 -59 60 -52 c33 -28 57 -54 54 -57 -3 -4 -18 -8
-33 -10 -43 -5 -44 -16 -7 -52 19 -19 35 -38 35 -42 0 -5 -349 -8 -775 -8
-768 0 -775 0 -775 20 0 26 -41 27 -64 1 -15 -16 -33 -19 -127 -20 -96 -2
-109 0 -109 15 0 9 54 287 120 617 66 330 120 601 120 604 0 2 93 1 208 -2
114 -2 380 -7 592 -10z m-20009 -1330 c6 -25 15 -48 19 -50 9 -6 30 48 30 76
0 18 44 19 1373 19 l1372 0 310 -622 c171 -342 372 -743 448 -891 75 -149 137
-272 137 -273 0 -2 -9 -4 -20 -4 -16 0 -20 7 -20 34 0 42 -17 56 -26 22 -8
-33 22 -76 57 -83 25 -5 38 -23 98 -137 167 -317 204 -374 281 -427 92 -64
254 -107 455 -123 33 -3 462 -5 954 -6 492 0 891 -3 888 -7 -7 -7 61 -52 79
-53 6 0 14 14 17 30 l6 30 167 0 c132 0 164 -3 156 -12 -22 -28 -18 -99 8
-129 l19 -24 -9 35 c-12 42 -13 100 -2 118 7 10 405 12 1958 10 l1949 -3 7
-79 c4 -43 9 -81 12 -83 8 -8 25 68 27 120 l3 47 68 0 c39 0 68 -4 68 -10 0
-5 7 -10 15 -10 8 0 15 5 15 10 0 6 108 10 305 10 216 0 305 -3 305 -11 0 -7
6 -8 18 -3 9 5 1381 11 3047 14 l3030 5 79 23 c131 38 241 98 330 181 23 22
40 31 43 24 6 -15 87 8 114 33 36 33 14 61 -38 48 l-26 -7 30 44 c90 134 424
845 894 1902 l114 257 36 0 c29 0 38 -5 42 -21 7 -25 43 -22 41 4 -2 16 32 17
486 17 l489 0 3 -22 c5 -32 28 -35 28 -4 l0 26 933 -2 932 -3 50 -23 c89 -41
135 -100 135 -171 0 -30 -95 -495 -145 -709 -4 -18 -10 -22 -25 -17 -13 4 -20
2 -20 -6 0 -7 -10 -23 -22 -36 -17 -18 -19 -26 -10 -35 9 -9 12 -9 12 0 0 7 9
12 20 12 11 0 20 -7 20 -15 0 -8 -59 -283 -130 -612 -72 -329 -172 -788 -222
-1020 l-92 -423 -1123 0 c-1091 0 -1125 1 -1151 19 -15 11 -37 22 -49 26 -17
5 -22 1 -25 -17 -3 -23 -5 -23 -152 -26 -126 -2 -151 0 -158 13 -11 19 -48 20
-48 0 0 -13 -26 -15 -175 -15 -149 0 -175 2 -175 15 0 8 -6 15 -14 15 -7 0
-19 -7 -26 -15 -17 -20 -275 -22 -284 -2 -5 9 -7 9 -12 0 -4 -10 -777 -13
-3808 -13 l-3803 0 -23 25 c-13 14 -29 25 -37 25 -16 0 -17 -22 -1 -38 8 -8
-238 -11 -1010 -12 l-1022 0 0 25 c0 18 -5 25 -20 25 -15 0 -20 -7 -20 -25 l0
-25 -737 0 -738 0 45 21 c61 28 108 75 121 123 10 38 9 42 -17 62 -39 31 -100
58 -118 51 -8 -3 -20 -25 -25 -49 -22 -88 -41 -144 -61 -175 l-20 -33 -2310 0
-2310 0 0 29 c0 15 -9 40 -20 53 -21 27 -18 38 10 38 10 0 23 7 30 15 11 13 8
15 -19 15 -53 0 -89 -53 -79 -120 l5 -30 -702 0 -702 0 5 26 c3 16 -1 30 -9
35 -23 14 -39 10 -39 -10 0 -39 -11 -51 -49 -51 -31 0 -36 3 -37 25 -4 54 -50
73 -78 33 -22 -31 -20 -46 7 -51 12 -2 -62 -5 -165 -6 -187 -1 -188 -1 -193
22 -3 12 -84 338 -180 724 -96 387 -175 705 -175 708 0 3 6 5 14 5 27 0 -4
109 -44 155 -23 27 -321 1230 -314 1269 18 103 122 172 261 175 42 1 43 1 54
-44z m3195 -253 c148 -290 151 -297 132 -315 -23 -22 -15 -37 21 -37 26 0 36
-18 191 -317 339 -659 530 -1016 606 -1135 72 -112 176 -170 367 -205 80 -15
199 -17 925 -20 634 -3 832 -7 833 -16 1 -7 3 -23 4 -37 2 -14 1 -36 -2 -49
l-6 -23 -901 5 c-959 6 -991 7 -1138 56 -70 23 -144 71 -175 111 -61 80 -238
420 -692 1328 l-361 723 26 34 c14 19 31 36 37 40 7 3 -4 3 -23 0 -19 -3 -40
-12 -47 -21 -10 -14 -19 -2 -57 75 -25 50 -46 93 -46 96 0 3 35 5 78 5 l77 0
151 -298z m1514 283 c17 -20 54 -20 46 0 -4 13 8 15 79 15 47 0 85 -4 85 -9 0
-17 34 -22 42 -7 8 14 562 16 5294 16 l5285 0 -5 -32 c-7 -43 -46 -63 -46 -23
0 25 -28 23 -71 -6 -24 -16 -48 -30 -53 -32 -14 -5 11 -117 31 -139 23 -26 31
-24 109 27 38 24 84 47 102 51 41 8 40 22 -3 74 -43 52 -44 66 -4 74 41 8
3249 8 3249 0 0 -8 -35 -87 -215 -479 -429 -937 -668 -1427 -748 -1530 -112
-146 -265 -234 -457 -265 -43 -6 -814 -10 -2277 -10 l-2212 0 -3 28 c-4 35
-22 35 -26 0 l-3 -28 -775 0 c-767 0 -774 0 -774 20 0 26 -26 26 -42 0 -13
-20 -24 -20 -2207 -20 -1899 0 -2192 2 -2175 14 16 13 19 27 19 110 0 90 -1
96 -20 96 -21 0 -45 17 -45 32 0 4 7 8 16 8 12 0 15 6 9 23 -4 12 -7 30 -8 40
-1 14 -7 16 -32 11 -16 -4 -43 -17 -60 -29 -33 -25 -94 -45 -137 -45 -34 0
-35 -12 -5 -41 l22 -21 -54 7 c-40 5 -56 4 -62 -6 -18 -29 -10 -39 30 -37 24
1 51 -7 72 -19 l32 -21 -31 -16 c-17 -9 -48 -36 -69 -61 -36 -44 -39 -45 -96
-45 -36 0 -56 4 -52 10 14 23 -8 30 -35 10 -30 -21 -114 -28 -125 -10 -3 6
-17 10 -31 10 -15 0 -23 -4 -19 -11 8 -12 -1606 -7 -1685 6 -157 24 -252 60
-319 120 -55 50 -156 229 -478 850 -237 456 -663 1290 -663 1298 0 3 357 6
794 7 700 0 795 -1 806 -15z m14357 3 c-34 -86 -516 -1160 -524 -1168 -2 -3
-9 3 -14 13 -6 9 -19 17 -29 17 -15 0 -20 -7 -20 -29 0 -24 5 -30 25 -33 25
-3 24 -4 -58 -183 -46 -99 -92 -198 -102 -220 -95 -206 -222 -454 -264 -517
-119 -177 -299 -284 -514 -307 -45 -5 -950 -10 -2012 -10 l-1930 -1 -17 23
-18 22 0 -22 0 -23 -1357 0 -1358 0 -49 45 c-26 25 -50 45 -52 45 -9 0 -3 -59
6 -65 16 -10 11 -21 -10 -22 -13 -1 -28 10 -43 32 -28 43 -38 44 -35 3 l3 -33
-1193 -2 c-1023 -2 -1193 -1 -1189 11 7 18 -18 40 -37 33 -9 -4 -12 -14 -9
-27 l5 -21 -731 1 c-402 1 -729 5 -726 10 3 4 27 16 54 26 48 17 49 18 44 51
l-6 33 1429 0 c1418 0 1429 0 1442 -20 7 -11 19 -20 27 -20 18 0 19 12 3 28
-9 9 116 12 565 12 570 0 577 0 577 -20 0 -11 7 -20 15 -20 8 0 15 9 15 20 0
20 14 20 3243 22 l3242 3 73 23 c183 56 323 157 423 303 85 126 344 663 793
1644 99 216 162 342 173 347 10 3 47 7 82 7 47 1 62 -2 58 -11z m-19920 -2577
c87 14 86 16 50 -50 l-32 -59 27 -56 c31 -63 31 -63 -53 -45 l-51 11 -44 -43
c-24 -23 -45 -41 -47 -38 -2 2 -8 31 -13 64 -9 58 -10 61 -56 85 -26 14 -50
29 -54 33 -4 3 20 18 54 33 l60 26 7 56 c4 32 9 60 11 64 3 4 25 -15 49 -41
45 -48 45 -48 92 -40z m12082 -503 c-3 -27 2 -38 16 -38 18 0 20 36 3 43 -7 3
1642 6 3665 6 2908 1 3681 -2 3697 -11 16 -10 24 -10 40 0 14 8 72 12 189 12
141 0 170 -2 175 -15 3 -8 17 -15 31 -15 16 0 25 6 25 15 0 13 23 15 145 15
124 0 144 -2 139 -15 -4 -10 0 -15 10 -15 9 0 28 -11 40 -24 l24 -23 15 38 15
39 1142 0 1142 0 -7 -52 c-8 -60 -11 -68 -28 -68 -8 0 -43 -142 -96 -388 -46
-213 -88 -406 -93 -429 l-10 -43 -2822 0 c-2810 0 -2823 0 -2841 20 -10 11
-22 20 -27 20 -4 0 -8 -9 -8 -20 0 -20 -7 -20 -985 -20 -968 0 -985 0 -985 19
0 20 -17 37 -26 28 -3 -3 -1 -15 6 -26 l11 -21 -1046 0 c-847 1 -1045 3 -1045
14 0 7 -11 23 -24 35 l-25 23 -3 -33 -3 -34 -4684 -3 c-3979 -2 -4682 0 -4678
12 6 15 -31 36 -65 36 -20 0 -20 -1 -5 -18 10 -10 17 -22 17 -25 0 -4 -265 -7
-589 -7 -514 0 -590 2 -595 15 -3 8 -12 15 -20 15 -7 0 -16 -7 -20 -15 -4 -13
-37 -15 -205 -15 l-200 0 -9 33 c-5 17 -53 211 -108 430 -92 370 -100 398
-122 404 -22 5 -35 25 -48 78 l-6 25 720 0 719 0 -17 -37 c-28 -57 -33 -83
-19 -83 7 0 21 -7 31 -17 17 -15 18 -15 18 0 0 10 4 17 8 17 5 0 7 14 4 30 -2
17 1 44 8 60 l13 30 260 -2 260 -3 12 -35 12 -35 19 38 18 37 253 0 c245 0
253 -1 253 -20 0 -21 34 -45 51 -34 6 3 8 17 5 30 l-6 24 3570 0 3571 0 10
-30 c12 -33 8 -32 134 -11 53 9 101 -2 131 -30 23 -22 24 -22 24 -2 0 11 -12
30 -26 44 l-26 24 374 5 c205 3 401 6 436 8 46 1 62 -1 61 -10z m-10489 -1053
c0 -29 25 -44 43 -26 9 9 9 16 -1 31 -12 20 -6 20 948 20 528 0 960 -1 960 -3
0 -2 41 -203 91 -448 49 -244 141 -696 204 -1004 63 -308 150 -738 194 -955
45 -217 81 -403 81 -412 0 -17 -52 -18 -949 -18 l-949 0 -351 1413 c-193 776
-351 1415 -351 1420 0 4 18 7 40 7 36 0 40 -2 40 -25z m4521 -1 c-19 -24 -29
-64 -16 -64 3 0 21 7 40 15 26 10 37 22 41 45 l7 30 3058 0 c2657 0 3059 -2
3059 -14 0 -26 23 -30 41 -8 9 12 26 22 38 22 17 0 20 -4 15 -30 -6 -28 -3
-31 37 -49 l44 -20 -277 0 c-153 -1 -278 1 -278 4 0 4 7 20 16 36 l15 30 -28
-3 c-22 -2 -30 -10 -38 -35 l-9 -33 -783 0 c-761 0 -783 1 -793 19 -18 35 -41
51 -73 51 l-31 0 34 -35 34 -35 -2316 0 -2316 0 -6 -35 c-8 -40 -2 -55 20 -55
8 0 21 -15 28 -32 8 -18 240 -592 517 -1275 l503 -1243 420 0 c231 0 416 -3
413 -7 -4 -3 3 -17 15 -30 15 -16 33 -23 60 -23 36 0 38 2 38 30 l0 30 510 0
c281 0 510 -4 510 -8 0 -5 -13 -21 -30 -37 -16 -16 -30 -35 -30 -42 0 -10
-256 -13 -1407 -13 l-1407 0 -23 22 c-13 12 -23 28 -23 36 0 10 -7 12 -26 8
-45 -12 -99 -42 -97 -54 2 -9 -72 -12 -303 -12 -258 0 -308 2 -320 15 -9 8
-22 15 -30 15 -8 0 -14 -7 -14 -15 0 -11 -12 -15 -50 -15 -49 0 -49 0 -44 29
6 28 4 30 -37 41 -52 14 -109 7 -126 -16 -18 -24 -7 -34 35 -34 20 0 44 -5 52
-10 10 -6 -97 -10 -312 -10 l-328 0 -5 23 c-3 12 -64 312 -136 667 -256 1269
-408 2016 -418 2060 -6 25 -11 55 -11 68 l0 22 1281 0 1280 0 -20 -26z m10553
14 c3 -7 7 -30 10 -50 l5 -38 -642 0 c-549 1 -645 3 -661 15 -25 19 -46 19
-46 0 0 -13 -58 -15 -466 -15 -451 0 -465 1 -459 19 4 12 0 21 -11 25 -24 9
-52 -2 -59 -25 -6 -19 -22 -19 -796 -19 -434 0 -789 3 -789 8 0 4 9 18 20 32
27 34 25 48 -7 53 -16 2 855 5 1935 6 1562 1 1963 -2 1966 -11z m3839 5 c2 -5
-22 -152 -54 -328 -31 -176 -91 -516 -133 -755 -42 -239 -90 -509 -106 -600
-67 -370 -200 -1131 -200 -1140 0 -6 -277 -10 -766 -10 l-766 0 26 31 c14 17
26 34 26 39 0 5 7 15 15 24 17 16 37 -38 -562 1451 -80 198 -149 370 -154 383
-8 20 -6 22 15 16 22 -5 29 2 65 68 31 55 41 84 41 118 0 30 -3 40 -9 31 -7
-11 -14 -7 -30 20 -15 24 -21 29 -21 16 0 -54 -74 -129 -113 -114 -7 2 -70
151 -142 330 l-130 326 -367 1 -368 0 0 28 c0 15 -3 37 -6 50 l-6 22 1870 0
c1029 0 1873 -3 1875 -7z m1837 -5 c0 -6 -59 -282 -131 -612 -282 -1295 -389
-1789 -389 -1793 0 -2 -4 -2 -9 2 -5 3 -13 0 -17 -6 -3 -6 -1 -15 6 -19 9 -6
3 -53 -30 -204 l-43 -196 -162 0 c-162 0 -163 0 -179 25 -9 14 -23 25 -30 25
-8 0 -17 -11 -20 -25 l-6 -25 -651 0 -651 0 6 28 c8 39 67 370 126 707 28 160
61 349 75 420 13 72 44 247 69 390 26 143 82 465 127 715 86 485 99 561 99
573 0 4 407 7 905 7 681 0 905 -3 905 -12z m-10177 -435 c-3 -27 -9 -63 -13
-81 -8 -29 -6 -34 15 -42 49 -19 37 -30 -33 -30 -123 0 -229 -45 -302 -127
-66 -76 -70 -101 -63 -438 l6 -295 -946 0 -947 0 -4 23 c-34 180 -53 257 -83
337 -76 205 -213 424 -375 596 -37 39 -45 54 -36 61 14 11 69 30 108 36 14 2
622 5 1351 6 l1327 1 -5 -47z m284 13 c0 -18 8 -46 18 -62 l19 -29 8 35 c4 19
10 47 14 63 l6 27 124 0 124 0 64 -50 c36 -28 67 -46 70 -41 4 5 3 28 0 51
l-7 41 769 -3 c726 -3 772 -4 818 -22 65 -25 141 -99 155 -151 10 -38 15 -125
7 -125 -2 0 -30 16 -62 35 -113 69 -48 65 -1211 65 -634 0 -1053 4 -1053 9 0
5 22 17 50 26 l50 17 -6 38 c-9 58 3 110 25 110 15 0 19 -7 18 -34z m-4616
-25 c64 -11 170 -38 237 -60 465 -153 798 -470 898 -857 23 -90 25 -113 21
-244 -5 -155 -27 -250 -85 -365 -139 -276 -413 -482 -758 -569 -123 -31 -150
-35 -295 -43 -348 -18 -738 100 -1021 309 -328 242 -509 563 -509 900 0 234
91 440 269 610 91 87 165 139 277 195 273 138 623 182 966 124z m8749 18 c560
-55 975 -366 1074 -804 24 -108 16 -304 -18 -418 -88 -295 -291 -541 -594
-720 -154 -91 -409 -180 -581 -201 l-53 -7 6 25 c9 36 -14 34 -57 -4 -37 -32
-87 -41 -87 -15 0 25 -21 26 -85 7 -54 -16 -69 -17 -152 -6 -174 25 -339 77
-471 150 l-62 35 1 55 c1 30 4 54 5 54 2 0 43 -23 91 -50 388 -222 884 -226
1313 -10 655 330 843 1043 393 1486 -150 148 -346 247 -598 300 -99 21 -131
23 -315 20 -178 -3 -219 -7 -310 -29 -124 -30 -208 -58 -309 -104 -40 -18 -75
-33 -77 -33 -2 0 -4 9 -4 21 0 18 -4 20 -26 15 -14 -4 -41 -4 -60 0 -32 6 -33
8 -17 20 10 7 28 14 39 14 12 0 37 13 57 28 70 56 325 138 502 161 162 22 256
24 395 10z m-7198 -133 c8 -14 4 -24 -16 -45 -14 -15 -26 -38 -26 -52 0 -30
34 -140 43 -140 4 0 21 3 38 6 24 6 41 0 80 -24 59 -36 74 -39 59 -12 -12 23
-13 31 -2 31 12 0 42 -60 42 -85 0 -12 7 -25 15 -28 8 -4 30 -38 50 -77 57
-114 99 -250 129 -422 l7 -38 -241 0 c-222 0 -240 1 -240 18 0 9 -11 157 -24
327 -42 534 -42 525 -18 519 17 -5 21 0 27 46 l7 52 30 -29 c16 -15 34 -36 40
-47z m6666 -108 c10 -18 40 -72 66 -120 l46 -86 -42 -15 c-24 -8 -66 -24 -95
-35 l-52 -21 11 30 c22 65 -36 111 -62 49 -7 -16 -10 -45 -8 -64 2 -20 2 -33
-1 -30 -3 3 -33 56 -67 117 l-62 112 26 14 c26 14 200 79 214 81 3 0 15 -15
26 -32z m-498 -94 c0 -25 -7 -36 -39 -58 -57 -40 -191 -182 -240 -254 -60 -89
-107 -193 -132 -292 -29 -113 -23 -317 11 -425 49 -153 124 -270 254 -392 l85
-81 -41 -32 -40 -33 -26 26 c-24 25 -24 26 -4 20 12 -3 29 0 38 8 13 11 11 15
-22 31 -51 25 -68 24 -61 -4 8 -32 -118 101 -173 182 -177 261 -209 592 -83
877 75 170 217 344 378 461 l70 52 12 -28 c7 -15 12 -41 13 -58z m1507 9 l62
-36 -51 -59 c-49 -56 -52 -57 -62 -36 -14 27 -59 40 -93 27 l-26 -10 42 -30
c24 -18 48 -28 57 -25 12 5 11 0 -4 -22 -48 -66 -52 -67 -131 -24 -70 38 -71
39 -46 52 23 12 55 64 55 89 0 6 -14 11 -32 11 -38 0 -78 -34 -78 -67 0 -24
-7 -28 -27 -15 -7 5 21 43 83 114 l95 107 47 -20 c26 -11 75 -36 109 -56z
m-560 -398 c66 -20 137 -69 175 -122 l30 -41 -31 -46 c-26 -38 -29 -46 -15
-46 25 0 54 -30 54 -55 0 -38 -51 -124 -97 -165 -162 -142 -420 -145 -560 -5
-81 81 -100 178 -58 282 17 40 89 119 137 149 96 61 254 82 365 49z m-978
-211 c2 -2 -1 -28 -7 -56 -7 -29 -16 -76 -22 -103 l-11 -51 -122 12 c-67 7
-130 13 -139 13 -14 1 -18 10 -18 46 0 50 18 145 31 161 6 7 50 6 146 -4 76
-7 140 -16 142 -18z m1951 -77 c0 -40 -3 -89 -6 -109 l-7 -38 -149 0 -150 0 6
78 c4 42 10 92 13 110 l5 33 144 -2 144 -1 0 -71z m-4987 -9 c-6 -7 -13 -23
-16 -35 -5 -21 -2 -23 39 -23 l44 0 0 -65 c0 -52 -3 -66 -18 -74 -22 -12 -61
-4 -64 13 0 6 -2 16 -3 21 -2 6 -3 29 -4 52 l-1 42 -215 3 c-138 2 -215 -1
-216 -7 0 -5 0 -31 1 -56 2 -65 -26 -92 -71 -69 -16 9 -19 22 -19 75 l0 65 40
0 c33 0 40 3 40 19 0 11 -4 23 -10 26 -31 19 14 24 236 25 199 0 245 -2 237
-12z m943 -7 c-29 -32 -20 -51 24 -51 l40 0 0 -65 c0 -70 -15 -90 -58 -78 -26
6 -36 37 -30 92 3 38 2 40 -27 43 -16 2 -90 2 -162 0 l-133 -3 0 -54 c0 -72
-25 -99 -71 -75 -16 9 -19 22 -19 75 l0 65 45 0 c38 0 45 3 45 19 0 11 -10 27
-22 35 -19 14 -2 15 182 15 193 0 202 -1 186 -18z m1169 -21 c0 -21 -5 -36
-12 -36 -7 -1 -137 -2 -288 -3 l-275 -1 0 -60 c0 -49 -3 -61 -20 -70 -28 -15
-59 -4 -65 23 -3 12 -4 42 -3 67 l3 45 43 3 c33 3 42 7 42 22 0 10 -4 22 -10
25 -34 21 13 25 288 22 l297 -2 0 -35z m-5125 -75 c5 -38 7 -40 40 -40 34 0
35 1 38 43 l3 42 97 0 c90 0 95 -1 74 -16 -28 -19 -29 -44 -1 -44 13 0 23 10
30 30 7 19 18 30 30 30 17 0 19 -8 19 -94 0 -249 -98 -530 -271 -775 -35 -50
-68 -89 -74 -88 -5 2 -22 28 -37 58 -23 46 -29 74 -38 194 -17 229 -20 271
-35 470 -21 266 -27 236 53 233 l67 -3 5 -40z m867 -15 c5 -77 8 -82 45 -78
l33 3 0 65 1 65 222 3 222 2 5 -22 c2 -13 6 -43 7 -68 3 -43 5 -45 35 -48 27
-3 33 1 38 21 4 14 5 44 3 68 l-3 44 233 3 232 2 1 -42 c2 -74 11 -93 44 -93
30 0 30 0 33 68 l3 67 139 0 c162 0 153 7 148 -115 -3 -64 -5 -70 -25 -73 -15
-2 -23 -10 -23 -22 0 -19 25 -50 39 -50 5 0 10 -67 13 -149 4 -137 7 -154 32
-204 15 -30 44 -71 66 -91 35 -31 38 -39 30 -60 -12 -33 4 -43 18 -12 l11 24
58 -23 c32 -13 86 -27 120 -31 44 -4 63 -11 63 -20 0 -19 34 -18 50 1 16 19
131 22 128 3 -2 -6 5 -14 15 -16 10 -2 17 2 17 12 0 14 105 16 988 18 l987 3
56 23 c31 12 76 36 99 53 23 17 44 29 46 26 2 -2 1 -31 -2 -65 -5 -45 -11 -62
-22 -62 -11 0 -13 -9 -9 -42 6 -41 4 -45 -47 -94 -35 -34 -71 -58 -107 -70
-52 -18 -129 -19 -2409 -19 l-2355 0 -48 22 -49 23 30 37 c108 138 233 375
277 528 33 115 55 258 55 363 l0 82 226 -2 227 -3 4 -55z m-9842 -38 c20 -55
21 -56 78 -73 33 -10 61 -19 63 -22 2 -2 -21 -21 -51 -42 l-55 -37 7 -71 6
-71 -60 43 -60 42 -57 -22 c-31 -12 -59 -20 -61 -17 -3 3 4 31 15 63 l20 57
-41 52 -41 51 66 3 66 3 37 55 c20 30 39 52 42 48 3 -3 15 -31 26 -62z m15369
-620 c-47 -59 -90 -108 -95 -110 -10 -4 -152 70 -186 96 l-22 17 86 107 86
107 108 -55 109 -54 -86 -108z m1009 111 c90 -146 91 -126 -15 -177 -148 -72
-134 -75 -211 53 l-66 110 57 26 c31 14 80 36 107 49 28 14 55 25 62 25 6 1
36 -38 66 -86z m-3248 -629 c23 -15 25 -15 25 0 0 14 15 16 105 16 63 0 105
-4 105 -10 0 -5 7 -10 15 -10 8 0 15 5 15 10 0 6 130 10 371 10 l372 0 -27
-21 c-14 -11 -33 -34 -41 -50 l-16 -29 -407 0 c-342 1 -410 3 -426 15 -25 19
-46 19 -46 0 0 -13 -286 -15 -2515 -15 -1425 0 -2515 4 -2515 9 0 5 20 27 45
50 l45 41 2435 0 c2225 0 2438 -1 2460 -16z m1561 -1 c-1 -15 14 -28 80 -70
15 -9 -41 -12 -265 -12 -241 -1 -282 1 -278 13 3 8 9 31 13 50 l6 36 223 0
c202 0 223 -2 221 -17z m191 -13 c57 -30 87 -37 97 -21 3 5 -1 14 -9 21 -8 7
-15 16 -15 21 0 13 57 11 79 -3 15 -9 25 -9 46 0 40 19 85 16 85 -6 0 -10 7
-28 16 -40 17 -25 10 -27 -26 -7 -32 18 -74 19 -89 2 -8 -10 -7 -17 1 -25 9
-9 -13 -12 -97 -12 -85 0 -106 3 -97 12 19 19 14 28 -14 28 -36 0 -64 17 -64
40 0 28 21 25 87 -10z m2337 20 c16 -6 27 -6 31 0 4 6 128 10 316 10 l309 0 0
-34 c0 -19 3 -41 6 -50 5 -14 -18 -16 -225 -16 l-231 0 -14 35 c-21 48 -53 48
-62 0 l-6 -35 -934 0 -934 0 0 26 c0 35 -50 54 -145 54 -48 0 -74 4 -70 10 8
13 1924 14 1959 0z m5946 -225 l45 -23 -46 -22 c-44 -22 -47 -26 -53 -73 l-7
-50 -38 37 c-36 35 -38 36 -84 27 -26 -4 -47 -7 -47 -4 0 2 10 21 22 43 l23
39 -23 45 -22 46 53 -6 c49 -6 54 -4 82 26 l30 31 10 -47 c9 -41 15 -49 55
-69z m-19090 63 c15 -10 22 -10 32 0 13 13 198 18 198 4 0 -9 -40 -68 -88
-132 l-35 -45 -148 -5 -148 -5 404 -980 c222 -539 407 -986 412 -993 6 -10
178 -12 816 -12 l808 0 85 -45 c47 -25 94 -45 105 -45 18 0 19 2 4 30 -28 55
-24 58 75 59 77 1 92 -2 101 -17 11 -18 14 -18 53 -3 37 14 267 16 2321 18
2254 3 2280 3 2248 -16 -19 -12 -34 -31 -38 -50 -8 -39 -1 -51 28 -43 44 14
60 30 66 68 l6 39 1725 0 1725 0 0 -35 c0 -24 5 -36 17 -38 13 -2 17 5 20 35
l3 38 113 2 c61 1 112 -2 112 -7 0 -14 -81 -79 -122 -98 -20 -9 -38 -19 -38
-22 0 -12 211 -130 234 -130 16 0 24 -4 20 -13 -2 -7 8 -20 24 -29 26 -16 30
-16 72 3 61 28 90 57 90 91 l0 28 80 -6 c99 -8 132 4 165 61 14 23 25 46 25
51 0 5 -15 16 -33 24 -17 8 -32 22 -32 30 0 13 28 15 183 16 100 1 185 -2 188
-7 3 -5 -5 -22 -17 -39 -32 -43 -39 -138 -11 -163 19 -18 20 -17 26 18 7 37
21 48 128 109 27 15 55 40 63 56 l15 30 1297 0 c713 0 1298 2 1301 4 4 5 -790
1913 -819 1967 -9 18 -25 19 -227 19 -175 1 -221 3 -236 15 -26 19 -56 19 -56
0 0 -13 -114 -15 -1007 -12 -555 3 -1027 8 -1050 12 -29 5 -43 4 -43 -4 0 -8
-175 -11 -623 -11 l-623 0 -19 33 -19 32 -6 -30 -5 -30 -378 -3 c-207 -1 -377
1 -377 5 0 5 7 33 15 63 8 30 15 70 15 88 l0 32 330 0 c323 0 330 0 330 -20 0
-16 7 -20 30 -20 17 0 30 5 30 10 0 6 -4 10 -10 10 -5 0 -10 5 -10 10 0 7 237
10 690 10 380 0 690 -3 690 -6 0 -3 -5 -14 -11 -25 -6 -12 -8 -27 -5 -35 4
-11 15 -4 42 26 l36 40 2758 0 2758 0 5 -21 c3 -12 10 -18 16 -15 6 4 8 13 4
21 -4 13 14 15 116 15 90 0 121 -3 121 -12 0 -7 -9 -49 -18 -93 l-18 -80 -537
-3 -536 -2 -27 35 c-14 19 -35 35 -45 35 -25 0 -46 -49 -27 -62 7 -4 -405 -8
-916 -8 -880 0 -928 -1 -922 -17 4 -10 188 -458 409 -995 l402 -978 45 0 c28
0 56 -8 75 -20 38 -25 45 -25 45 0 0 20 6 20 794 20 436 -1 796 -3 798 -6 5
-4 -20 -121 -143 -684 -33 -153 -59 -249 -74 -276 -31 -53 -95 -111 -154 -138
-45 -21 -55 -21 -759 -24 l-712 -3 -30 23 c-17 12 -30 25 -30 29 0 5 21 17 47
29 l46 20 -44 23 -44 22 -16 -45 c-9 -25 -23 -57 -30 -72 l-14 -28 -5101 0
-5102 0 -7 38 c-15 86 -82 160 -154 169 -81 11 -120 -76 -73 -166 l22 -41
-1426 0 -1426 0 -40 45 c-24 27 -48 45 -61 45 -16 0 -18 -3 -9 -12 7 -7 12
-27 12 -45 0 -30 -3 -33 -31 -33 -25 0 -30 3 -25 16 8 20 -10 44 -33 44 -10 0
-35 -13 -57 -30 l-39 -29 -1231 -1 c-1372 0 -1283 -4 -1380 69 -96 72 -97 75
-225 586 -64 255 -114 467 -111 469 3 3 498 6 1100 6 603 0 1096 1 1098 3 1 1
-626 1507 -802 1925 l-26 62 -937 0 -937 0 -17 73 c-10 39 -20 82 -23 95 l-6
22 1161 0 c899 0 1166 -3 1181 -12z m343 0 c3 -10 9 -10 28 0 17 9 63 12 154
10 126 -3 130 -4 133 -25 2 -14 10 -23 22 -23 19 0 34 25 24 41 -3 5 46 9 117
9 99 0 126 -3 141 -16 16 -16 18 -16 24 0 7 19 65 22 94 4 15 -10 26 -10 53 0
18 7 52 12 74 12 38 0 42 -3 48 -30 11 -51 -5 -61 -73 -44 -68 16 -160 18
-197 4 -22 -8 -26 -14 -20 -33 4 -12 9 -37 12 -55 l5 -32 -358 2 -359 3 -1 74
c-2 102 2 111 41 111 18 0 35 -6 38 -12z m3517 -1 c0 -15 104 -62 118 -53 5 3
15 19 22 36 l12 30 2529 0 c2017 0 2529 -3 2529 -12 0 -7 -18 -42 -39 -78
l-39 -65 38 -3 c39 -3 100 20 100 38 0 6 4 10 9 10 8 0 31 -52 31 -71 0 -5
-1748 -9 -3885 -9 l-3885 0 0 42 c0 65 -9 86 -38 93 -19 5 -30 2 -39 -11 -16
-22 -22 -16 -30 30 l-6 36 1287 0 c1056 0 1286 -2 1286 -13z m3118 -847 c0
-72 -3 -132 -8 -135 -4 -2 -12 7 -18 20 l-12 25 -195 0 -195 0 0 -95 0 -95
125 0 c124 0 126 0 137 25 6 14 15 25 20 25 4 0 8 -58 8 -130 0 -129 -9 -160
-30 -105 -9 25 -10 25 -135 25 l-125 0 0 -105 0 -105 188 -1 c204 -1 216 -1
220 10 1 5 9 17 17 27 13 17 14 3 15 -118 0 -76 -3 -138 -8 -138 -4 0 -12 10
-17 23 -7 16 -20 23 -46 25 -31 3 -38 7 -42 31 -3 15 -3 38 0 50 4 17 1 21
-21 21 -23 0 -26 -3 -21 -23 4 -16 -1 -31 -19 -50 l-25 -27 -211 0 c-210 0
-235 4 -195 34 23 17 23 816 0 829 -8 4 -15 15 -15 22 0 13 43 15 285 15 l285
0 12 25 c6 14 14 25 18 25 4 0 8 -59 8 -130z m-1725 74 c59 -20 144 -96 180
-162 79 -145 82 -405 6 -554 -32 -63 -113 -143 -172 -169 -76 -34 -182 -33
-259 3 -63 29 -130 92 -159 151 l-20 38 38 -25 c57 -37 80 -41 88 -16 5 16
-10 38 -75 107 -45 47 -86 96 -90 107 -13 32 -3 191 16 254 22 78 48 126 96
178 97 105 212 134 351 88z m4217 -31 c53 -27 105 -47 118 -45 27 3 28 8 -20
-125 -17 -46 -33 -83 -37 -83 -4 0 -12 15 -19 34 -19 52 -115 100 -202 100
-36 1 -79 -5 -97 -13 -61 -25 -82 -90 -40 -129 22 -20 52 -30 217 -66 176 -39
220 -84 228 -232 8 -150 -39 -238 -156 -292 -105 -48 -237 -38 -364 28 -32 16
-64 27 -73 24 -8 -4 -15 -2 -15 2 0 17 53 199 61 208 4 5 15 -8 23 -28 12 -30
27 -42 73 -63 153 -70 342 -17 306 86 -14 42 -53 61 -171 81 -135 24 -215 53
-241 86 -49 63 -55 253 -10 340 30 59 96 108 170 128 86 22 141 13 249 -41z
m1007 27 c23 -10 69 -37 102 -59 33 -23 67 -41 76 -41 8 0 18 -6 21 -14 6 -16
-74 -196 -87 -196 -5 0 -9 13 -9 29 0 75 -170 153 -275 127 -41 -10 -110 -81
-136 -139 -20 -44 -24 -67 -23 -152 1 -106 10 -140 58 -204 52 -70 121 -97
207 -81 30 6 66 19 81 30 15 11 33 17 41 14 8 -3 18 -1 22 5 3 6 1 11 -6 11
-7 0 -3 10 9 23 12 13 22 33 22 45 0 46 19 27 58 -61 45 -98 51 -122 28 -114
-8 3 -52 -19 -97 -49 -131 -86 -204 -100 -320 -64 -60 18 -173 98 -141 100 7
0 12 15 12 40 0 33 -3 40 -19 40 -15 0 -21 -8 -23 -32 l-3 -32 -27 50 c-76
141 -79 401 -5 554 25 52 99 130 148 156 87 45 201 51 286 14z m-6727 -4 c0
-7 -7 -19 -15 -26 -13 -11 -15 -69 -15 -411 0 -340 2 -400 15 -413 31 -31 17
-36 -95 -36 -107 0 -110 1 -100 19 5 11 15 23 20 26 6 4 10 149 10 399 0 376
-1 394 -20 418 -10 14 -16 28 -13 32 3 3 53 6 110 6 81 0 103 -3 103 -14z
m600 2 c0 -6 -7 -19 -14 -27 -12 -13 -15 -60 -17 -238 -1 -207 -3 -222 -20
-226 -35 -9 -22 -54 14 -48 4 0 7 -39 7 -88 l0 -90 149 -3 c178 -4 203 0 216
30 5 12 13 22 17 22 5 0 8 -61 8 -135 0 -74 -3 -135 -8 -135 -4 0 -12 10 -17
23 -10 22 -12 22 -282 27 l-273 5 20 30 c19 29 20 48 20 418 0 360 -1 388 -18
405 -34 34 -17 42 94 42 73 0 104 -4 104 -12z m1465 3 c3 -6 -3 -18 -15 -28
-11 -10 -20 -27 -20 -38 0 -30 154 -525 161 -517 8 10 140 438 149 485 6 29 3
43 -11 61 -11 13 -19 29 -19 34 0 15 227 16 236 1 4 -7 0 -17 -8 -23 -8 -6
-20 -21 -27 -34 -19 -36 -241 -733 -241 -758 0 -12 7 -29 15 -38 31 -31 17
-36 -105 -36 -66 0 -120 4 -120 8 0 5 9 17 20 27 11 10 20 26 20 35 0 39 -240
764 -260 785 -11 12 -20 26 -20 32 0 14 236 18 245 4z m1815 -6 c0 -8 -4 -17
-10 -20 -25 -15 -6 -87 71 -283 l82 -205 14 34 c74 174 163 402 163 415 0 10
-7 25 -16 35 -29 33 -8 40 114 38 64 0 120 -3 125 -6 4 -2 -2 -16 -13 -30 -19
-25 -20 -40 -20 -413 0 -372 1 -388 20 -413 11 -14 20 -28 20 -31 0 -3 -49 -6
-110 -6 -87 0 -110 3 -110 14 0 7 7 19 15 26 13 11 15 54 15 279 l-1 266 -113
-279 -114 -280 -14 35 c-8 18 -57 141 -109 272 l-94 239 -3 -253 c-2 -241 -1
-255 18 -281 11 -15 20 -30 20 -33 0 -3 -47 -5 -105 -5 -58 0 -105 2 -105 5 0
3 9 18 20 33 20 27 21 39 18 421 -3 369 -4 393 -22 406 -37 27 -7 36 120 34
96 -1 124 -4 124 -14z m835 4 c4 -6 -1 -16 -11 -24 -18 -13 -19 -33 -19 -302
0 -268 1 -291 20 -327 31 -61 64 -80 137 -80 78 1 119 21 144 71 17 33 19 67
22 283 2 140 8 250 13 256 7 8 6 14 -1 19 -5 3 -10 19 -10 34 0 16 -7 34 -15
41 -8 7 -15 19 -15 26 0 12 20 14 100 13 101 -2 113 -8 85 -39 -12 -13 -15
-66 -16 -305 -1 -306 -9 -376 -48 -454 -50 -98 -214 -145 -366 -106 -82 22
-130 57 -160 119 -37 77 -45 156 -45 457 0 234 -2 278 -15 289 -8 7 -15 19
-15 26 0 11 22 14 104 14 64 0 107 -4 111 -11z m1445 -3 c0 -7 -7 -19 -15 -26
-13 -11 -15 -69 -15 -411 0 -340 2 -400 15 -413 31 -30 17 -36 -89 -36 -58 0
-107 4 -110 9 -3 4 3 16 14 26 18 16 20 31 20 162 0 115 3 143 14 143 20 0 39
27 32 46 -5 14 -9 13 -26 -7 -19 -24 -19 -24 -20 217 0 225 -1 243 -20 266
-10 14 -16 28 -13 32 3 3 53 6 110 6 81 0 103 -3 103 -14z m-13270 -691 c18
-28 28 -35 54 -35 46 0 50 -8 21 -45 -21 -28 -23 -37 -15 -66 14 -49 14 -50
-34 -32 -42 16 -44 16 -74 -5 -16 -12 -32 -22 -35 -22 -2 0 -2 20 0 44 5 40 3
46 -26 67 -17 12 -31 26 -31 30 0 4 18 10 39 14 34 6 42 12 55 46 9 21 18 39
20 39 2 0 14 -16 26 -35z m22264 -253 c6 -45 9 -49 54 -71 l47 -23 -47 -24
c-45 -23 -48 -27 -54 -75 l-7 -50 -37 36 c-37 37 -39 37 -86 27 -27 -6 -50 -9
-52 -7 -2 2 7 23 21 46 l26 42 -25 50 c-22 43 -23 48 -7 44 75 -21 91 -19 120
18 15 19 31 35 34 35 4 0 9 -22 13 -48z m-23174 -2414 c0 -4 21 -8 47 -10 l46
-3 -27 -32 c-26 -30 -27 -36 -16 -69 7 -19 10 -37 8 -39 -2 -3 -20 1 -40 7
-31 9 -40 8 -66 -11 -17 -11 -33 -21 -36 -21 -3 0 -6 19 -6 43 0 36 -5 45 -30
62 -16 11 -30 23 -30 27 0 4 17 12 38 18 34 9 40 15 51 52 l13 43 24 -30 c13
-17 24 -33 24 -37z m10650 1 l35 -50 63 3 c34 2 62 1 62 -2 0 -4 -15 -28 -34
-55 l-35 -48 21 -54 c11 -30 18 -57 15 -59 -3 -3 -30 2 -61 11 l-57 17 -44
-36 c-24 -20 -46 -36 -49 -36 -3 0 -6 19 -6 43 0 67 -9 84 -61 118 -27 17 -49
33 -49 34 0 2 24 11 53 21 69 22 72 25 87 89 7 30 16 55 19 55 3 0 22 -23 41
-51z m3403 -39 c30 0 33 -8 13 -35 -11 -16 -11 -24 0 -51 l14 -33 -32 9 c-25
8 -36 5 -59 -11 l-29 -20 0 23 c0 28 -8 39 -40 61 l-25 17 33 12 c25 10 33 20
38 46 l6 33 27 -25 c16 -15 39 -26 54 -26z m4678 -176 c38 -19 37 -30 -6 -44
-29 -9 -36 -18 -46 -53 l-11 -42 -30 33 c-26 31 -33 33 -69 27 -45 -8 -46 -4
-19 41 20 31 20 35 5 70 -8 20 -15 38 -15 39 0 2 18 -2 40 -7 36 -9 43 -8 73
15 l32 25 9 -44 c6 -35 15 -48 37 -60z m-14766 36 c153 -30 338 -91 483 -161
l124 -58 69 34 c247 125 513 182 727 157 228 -27 480 -149 512 -248 17 -52 8
-130 -19 -155 -11 -11 -21 -24 -21 -30 0 -16 -81 -49 -121 -49 -20 0 -55 11
-80 25 -89 51 -185 93 -237 104 -67 14 -225 14 -294 0 -77 -15 -188 -51 -188
-59 0 -4 32 -34 71 -65 138 -112 215 -195 238 -257 69 -190 37 -353 -93 -484
-117 -117 -285 -176 -496 -176 -194 0 -353 56 -462 164 -185 181 -172 452 36
729 30 40 54 74 53 76 -2 1 -43 17 -92 36 -249 95 -511 123 -756 82 -330 -56
-643 -257 -822 -527 -42 -63 -53 -74 -58 -59 -13 32 -39 33 -88 2 -52 -34 -94
-76 -140 -140 -35 -50 -38 -61 -15 -61 8 0 21 15 29 34 12 28 51 58 59 44 7
-11 26 -77 26 -90 0 -10 8 -14 26 -12 22 2 25 -1 20 -19 -18 -66 -28 -173 -23
-252 10 -176 78 -318 216 -455 93 -93 162 -142 280 -201 229 -113 425 -164
811 -209 96 -12 217 -30 270 -41 121 -26 312 -89 415 -137 l79 -38 -64 -23
c-91 -33 -95 -41 -18 -41 79 0 98 6 98 31 0 10 2 19 5 19 2 0 42 -22 88 -49
158 -94 423 -318 401 -340 -8 -8 -19 -9 -37 -2 -22 8 -27 8 -27 -4 0 -21 38
-37 77 -33 33 4 38 0 95 -71 308 -382 497 -875 580 -1516 14 -111 18 -645 5
-785 -8 -93 -35 -285 -43 -312 -12 -40 454 -15 711 37 424 85 686 250 855 535
38 65 30 -5 105 820 14 151 28 295 30 320 13 133 27 283 50 530 13 151 27 298
30 325 4 41 31 330 80 885 3 30 12 129 20 220 14 151 76 901 90 1080 35 446
423 754 1048 831 112 13 482 7 587 -10 36 -6 119 -23 184 -38 94 -21 120 -31
124 -46 3 -12 10 -16 21 -11 9 4 23 6 32 6 28 -1 210 -73 304 -119 106 -53
311 -186 295 -191 -6 -2 -22 6 -35 18 -22 20 -25 21 -31 6 -3 -9 -1 -23 6 -31
15 -18 82 -37 103 -29 23 8 227 -200 309 -316 209 -294 325 -696 289 -996 -54
-448 -355 -804 -870 -1029 -412 -181 -925 -277 -1481 -277 -229 -1 -543 20
-571 38 -5 2 -36 7 -71 10 -35 3 -68 7 -75 9 -7 2 -13 -9 -15 -28 -2 -24 -8
-33 -25 -35 -15 -2 -24 -13 -28 -34 -4 -16 -24 -47 -44 -67 -29 -29 -39 -49
-44 -83 -9 -65 -42 -147 -88 -218 -21 -34 -37 -65 -34 -71 13 -20 86 -9 125
18 59 43 82 83 88 158 2 36 9 68 13 71 11 7 11 -37 -1 -156 -5 -52 -12 -120
-15 -150 -14 -151 -37 -397 -55 -595 -11 -121 -24 -263 -30 -315 -5 -52 -12
-122 -15 -155 -23 -251 -36 -396 -40 -430 -2 -22 -7 -69 -10 -105 -3 -36 -8
-85 -11 -110 -32 -328 -95 -1022 -92 -1025 9 -9 796 -266 981 -321 133 -39
192 -61 180 -65 -10 -4 -15 -8 -12 -8 4 -1 23 -8 44 -17 35 -14 37 -14 31 2
-8 20 -44 27 334 -69 499 -128 792 -183 1239 -232 29 -3 58 -8 62 -11 19 -11
8 -24 -20 -24 -40 0 -71 -28 -78 -72 -5 -33 -3 -39 18 -47 35 -13 64 -48 93
-111 46 -98 37 -101 -101 -29 -105 54 -155 65 -161 38 -2 -13 16 -25 75 -47
70 -28 74 -31 43 -31 -55 -1 -268 27 -460 60 -582 101 -1178 259 -1965 520
-182 60 -335 109 -341 109 -6 0 -18 -26 -28 -57 -32 -103 -87 -194 -161 -268
-116 -116 -238 -161 -405 -152 -199 11 -411 102 -547 233 -87 85 -117 152
-118 259 0 71 4 88 33 147 69 141 232 243 467 294 91 20 290 28 383 17 69 -9
73 -8 77 11 4 23 43 436 52 560 l6 79 -78 -53 c-162 -110 -403 -206 -633 -254
-225 -47 -379 -63 -691 -72 -119 -4 -219 -9 -222 -13 -3 -3 -25 -62 -48 -130
-23 -68 -64 -173 -91 -234 -64 -142 -170 -329 -192 -335 -9 -2 -14 -10 -11
-17 15 -41 -287 -367 -424 -458 -219 -145 -428 -209 -678 -210 -225 0 -418 49
-660 168 -208 102 -480 295 -651 462 -103 101 -182 246 -239 438 -36 119 -45
315 -21 419 71 301 317 473 705 493 l123 6 -11 -21 c-10 -18 -9 -22 4 -22 9 0
18 -7 21 -15 9 -23 19 -18 40 20 18 34 19 35 74 29 30 -3 70 -13 88 -22 25
-13 36 -14 50 -5 14 8 87 1 323 -33 757 -110 1313 -175 1330 -156 19 20 66
413 68 565 1 21 5 36 10 33 5 -3 14 1 21 10 10 11 10 18 1 27 -9 9 -14 9 -20
-1 -4 -7 -11 66 -14 162 -21 539 -144 995 -373 1376 -57 95 -69 131 -81 249
-6 63 -6 63 16 52 12 -7 31 -9 41 -6 18 6 20 16 20 81 0 70 -1 74 -22 74 -13
0 -56 16 -95 37 -40 20 -75 34 -78 31 -16 -15 12 -63 52 -92 28 -19 39 -32 30
-34 -8 -2 -18 -14 -21 -28 -4 -13 -13 -24 -21 -24 -11 0 -15 -12 -15 -42 l0
-43 -77 80 c-292 301 -614 451 -1063 495 -360 36 -636 108 -895 235 -348 169
-572 417 -671 740 -26 84 -28 102 -28 275 -1 208 12 278 84 457 72 180 256
442 314 449 12 1 25 3 30 3 4 1 6 10 3 21 -4 15 10 34 56 76 68 61 212 161
290 201 62 31 114 28 189 -11 36 -19 54 -24 62 -16 8 8 -3 22 -37 51 -26 22
-47 44 -47 48 0 8 152 59 238 81 177 45 487 49 687 10z m19228 -52 c9 -10 29
-18 44 -18 l27 0 -27 -28 c-22 -23 -26 -34 -21 -60 9 -45 -10 -40 -22 5 -11
44 -29 53 -38 19 -14 -56 -64 -77 -58 -23 3 23 -2 38 -17 51 -28 25 -26 36 3
36 28 0 51 20 62 52 7 22 7 22 18 4 6 -11 19 -28 29 -38z m-1313 -802 c92 -22
165 -48 245 -89 111 -55 255 -170 255 -201 0 -9 6 -16 14 -16 34 0 156 -184
202 -305 21 -54 33 -74 44 -71 84 24 225 12 327 -26 78 -29 154 -105 178 -177
58 -177 -77 -377 -371 -550 -74 -43 -295 -143 -302 -136 -2 2 5 17 17 33 12
17 21 32 21 35 0 3 -41 -10 -90 -29 -50 -18 -98 -31 -108 -28 -14 5 -15 4 -2
-5 14 -10 7 -16 -13 -12 -22 4 -140 -40 -152 -55 -10 -15 -16 -16 -28 -6 -13
11 -12 21 6 83 18 60 19 72 6 80 -14 10 -59 7 -91 -6 -12 -5 -19 2 -29 29 -7
20 -17 36 -22 36 -5 0 -25 -14 -44 -30 -41 -36 -63 -28 -63 25 0 18 -7 39 -17
46 -15 13 -16 11 -8 -16 5 -16 9 -63 9 -103 1 -66 4 -76 26 -94 21 -17 25 -18
28 -5 2 9 -1 25 -7 35 -6 11 -8 22 -5 25 5 5 76 -42 117 -78 20 -18 22 -35 5
-35 -7 0 -26 -7 -42 -15 -15 -8 -31 -13 -36 -10 -4 2 -52 -4 -106 -14 -166
-31 -192 -33 -190 -13 0 9 -6 17 -14 17 -8 0 -15 -9 -15 -20 0 -17 -9 -21 -60
-26 -33 -4 -88 -7 -123 -8 -46 -1 -64 -5 -68 -16 -7 -17 -35 -20 -49 -6 -11 9
-295 25 -295 16 0 -2 18 -16 39 -30 38 -26 41 -26 207 -24 232 2 544 42 761
95 15 4 23 0 26 -13 4 -16 6 -16 12 3 5 17 25 26 93 44 79 21 230 68 275 85
32 13 17 -11 -52 -82 -85 -88 -173 -153 -273 -204 -88 -45 -102 -47 -93 -19 7
22 -1 25 -25 10 -11 -7 -22 0 -43 26 -20 24 -36 34 -51 32 -22 -3 -26 -29 -15
-103 4 -30 4 -30 -61 -41 -216 -38 -465 7 -660 120 -67 39 -86 44 -180 56
-442 52 -745 206 -822 418 -21 59 -22 95 -3 160 18 60 90 144 164 191 57 37
189 91 282 116 64 17 65 17 67 53 4 60 30 157 63 242 l32 80 28 -22 c15 -13
46 -38 68 -56 l41 -34 0 47 c0 45 -14 75 -64 132 -19 22 -19 23 8 62 144 207
381 356 649 407 89 17 286 12 377 -10z m-1736 -508 l39 5 -22 -36 c-21 -34
-21 -37 -5 -68 l16 -32 -37 6 c-29 5 -44 2 -63 -13 -30 -24 -42 -18 -42 20 0
21 -8 33 -32 48 l-32 20 37 15 c29 13 37 22 43 53 l7 38 26 -31 c23 -26 31
-29 65 -25z m-5717 -97 l47 -29 53 23 c29 13 53 21 53 17 0 -4 -6 -30 -14 -58
l-14 -51 40 -46 39 -46 -62 -7 c-60 -7 -61 -7 -92 -57 l-31 -51 -20 57 c-21
56 -21 57 -74 69 -29 6 -55 14 -57 18 -2 3 16 22 40 41 l44 34 -6 58 c-3 31
-3 57 1 57 3 0 27 -13 53 -29z m-13514 -26 c14 -29 23 -36 57 -41 47 -8 50
-15 14 -39 -24 -15 -26 -22 -22 -65 l5 -49 -38 20 c-38 19 -39 19 -71 -1 -18
-11 -36 -20 -39 -20 -4 0 -3 19 2 43 7 39 5 45 -24 75 l-31 32 25 0 c47 0 65
11 78 46 7 19 16 34 20 34 4 0 15 -16 24 -35z m15447 -780 c0 -30 5 -37 40
-55 22 -11 40 -22 40 -25 0 -3 -18 -14 -40 -25 -35 -18 -40 -25 -40 -55 0 -46
-12 -50 -44 -16 -24 25 -31 27 -69 20 -23 -4 -44 -6 -46 -4 -2 2 6 20 18 40
l21 36 -21 41 -21 41 45 -6 c40 -6 47 -3 72 23 33 35 45 31 45 -15z m-10055
-483 c18 -33 25 -37 63 -40 23 -2 42 -7 42 -11 0 -4 -14 -20 -30 -36 -28 -27
-30 -33 -24 -74 6 -41 5 -44 -12 -36 -71 29 -70 29 -108 7 l-37 -22 7 46 c6
42 4 48 -25 78 l-32 33 23 7 c13 3 32 6 44 6 15 0 26 12 39 40 10 22 21 40 24
40 3 0 15 -17 26 -38z m6574 -288 c47 6 49 1 21 -47 -19 -32 -19 -37 -5 -70 8
-20 15 -39 15 -43 0 -3 -20 -3 -45 1 -40 5 -49 3 -76 -19 -17 -14 -35 -26 -40
-26 -5 0 -9 20 -9 45 0 42 -2 46 -40 65 -22 11 -40 23 -40 26 0 3 20 14 44 25
40 17 44 22 51 65 l7 46 38 -37 c35 -34 42 -37 79 -31z m-11633 -60 c247 -43
521 -194 601 -331 30 -52 25 -73 -17 -73 -34 0 -45 -17 -36 -55 11 -43 47 -52
124 -32 l66 18 18 -23 c35 -45 117 -224 142 -309 28 -99 46 -214 46 -300 0
-56 -1 -59 -24 -59 -13 0 -32 -3 -40 -6 -13 -5 -9 -10 16 -23 42 -20 46 -55
23 -167 -15 -71 -19 -81 -36 -77 -23 6 -25 -12 -4 -25 14 -7 10 -22 -24 -106
-56 -136 -149 -272 -262 -381 -214 -207 -453 -310 -745 -322 -159 -7 -261 6
-402 53 -479 157 -793 585 -795 1084 -1 325 123 615 357 838 268 255 625 361
992 296z m2892 -709 c43 19 52 19 52 1 0 -8 -13 -17 -30 -21 -16 -4 -30 -13
-30 -21 0 -17 5 -17 29 -4 15 8 17 6 14 -13 -3 -13 6 -36 22 -57 l26 -35 -50
-3 c-45 -3 -51 -6 -77 -45 l-27 -42 -17 50 c-15 45 -20 51 -60 62 -23 7 -45
14 -47 16 -2 2 15 16 37 31 38 25 40 29 40 77 l0 51 41 -31 c40 -29 43 -30 77
-16z m11871 -142 c28 3 51 4 51 2 0 -3 -10 -24 -21 -48 l-21 -43 21 -42 c11
-23 21 -44 21 -47 0 -3 -23 -3 -51 1 -49 7 -52 5 -89 -31 l-39 -38 -6 39 c-3
22 -7 46 -8 54 -1 8 -24 27 -51 41 l-48 26 48 24 c47 23 49 26 57 78 l9 53 38
-37 c37 -36 41 -38 89 -32z m-6463 -895 c-3 -13 -8 -44 -11 -70 -6 -46 -5 -47
45 -90 52 -45 60 -58 35 -58 -7 0 -37 -5 -66 -11 -51 -11 -52 -12 -81 -77
l-30 -66 -34 60 c-36 64 -49 71 -126 73 -27 1 -48 4 -48 8 0 4 21 28 46 54
l47 47 -16 69 c-8 37 -14 69 -12 71 1 1 31 -10 65 -27 l63 -29 56 34 c66 40
73 41 67 12z m7139 -304 l50 -42 45 14 c54 16 63 17 55 4 -11 -17 11 -11 39
11 14 11 26 18 26 15 0 -3 -14 -40 -30 -82 l-31 -77 34 -51 c19 -28 39 -61 46
-74 l12 -23 -88 6 -88 6 -49 -66 c-27 -36 -52 -63 -55 -59 -3 3 -15 40 -26 82
l-20 76 -75 29 c-41 15 -76 30 -78 32 -2 2 28 25 67 50 69 45 71 47 72 88 1
23 2 49 3 57 2 8 3 28 4 44 2 32 -3 35 87 -40z m4462 -324 l45 0 -27 -36 c-26
-34 -27 -39 -16 -71 16 -43 10 -49 -34 -36 -30 10 -38 8 -67 -14 l-33 -24 -3
46 c-2 25 -6 45 -10 45 -4 1 -20 11 -36 24 l-29 24 42 13 c38 11 43 17 54 56
l12 45 28 -36 c26 -32 34 -36 74 -36z m-19465 -448 c14 -35 20 -40 58 -46 l43
-7 -31 -32 c-28 -29 -30 -36 -25 -76 l6 -44 -40 23 c-38 21 -42 21 -71 6 -43
-22 -45 -21 -38 26 6 37 4 44 -26 75 l-32 33 33 0 c44 0 66 13 81 50 7 16 16
30 20 30 4 0 14 -17 22 -38z m-998 -220 l38 20 -7 -42 c-6 -37 -4 -45 21 -71
29 -30 26 -35 -26 -41 -18 -2 -31 -14 -44 -42 l-19 -40 -21 42 c-17 36 -24 42
-51 42 -45 0 -49 10 -19 41 23 24 26 33 20 69 l-6 41 37 -20 c38 -19 39 -19
77 1z"/>
<path d="M12375 31539 c-60 -10 -116 -16 -124 -13 -8 2 -17 1 -20 -4 -3 -5
-53 -24 -110 -42 -357 -114 -635 -355 -762 -659 -73 -176 -109 -420 -91 -629
5 -62 13 -117 19 -123 15 -15 343 -94 508 -123 236 -40 354 -50 580 -50 409 0
710 78 959 247 231 157 426 472 440 712 18 293 -226 535 -657 650 -210 57
-520 71 -742 34z"/>
<path d="M15017 31400 c-73 -46 -147 -175 -147 -257 0 -20 -5 -23 -42 -23 -58
0 -74 -11 -59 -39 14 -25 18 -26 37 -6 22 21 64 20 64 -2 0 -37 49 -120 94
-161 26 -24 76 -57 111 -74 99 -46 375 -94 375 -65 0 7 -11 59 -24 117 -75
331 -204 540 -333 540 -16 0 -50 -13 -76 -30z"/>
<path d="M9779 31109 c-27 -27 -21 -77 18 -152 39 -78 153 -220 153 -191 0 33
-32 266 -40 296 -19 65 -88 90 -131 47z"/>
<path d="M11155 29552 c-7 -45 7 -107 33 -138 20 -24 71 -59 77 -52 9 9 21
147 14 166 -10 26 -45 50 -86 58 -30 6 -31 4 -38 -34z"/>
<path d="M11643 25421 c-161 -40 -295 -138 -351 -258 -22 -48 -26 -72 -27
-143 0 -77 3 -92 33 -152 139 -282 596 -273 1112 23 66 38 124 69 128 69 20 0
245 211 235 221 -17 14 -263 119 -362 154 -123 42 -267 79 -368 94 -111 17
-315 13 -400 -8z"/>
<path d="M2080 30881 c0 -65 70 -205 139 -281 48 -52 51 -53 45 -25 -11 50
-35 117 -61 170 -36 72 -106 185 -115 185 -5 0 -8 -22 -8 -49z"/>
<path d="M1275 29881 c-52 -22 -71 -79 -46 -140 15 -34 29 -32 97 14 21 14 51
29 67 32 31 6 33 13 12 52 -21 41 -83 61 -130 42z"/>
<path d="M3661 25385 c-16 -14 -40 -43 -52 -63 -12 -20 -31 -47 -42 -59 -25
-28 -22 -28 98 -7 94 16 127 31 145 63 10 19 9 19 -17 5 -30 -15 -52 -17 -77
-8 -20 8 -21 24 -1 24 8 0 29 13 47 30 30 26 31 29 12 30 -11 0 -29 -9 -38
-19 -20 -22 -54 -33 -61 -20 -4 5 9 18 27 29 28 17 30 20 11 20 -12 0 -35 -11
-52 -25z"/>
<path d="M2338 21936 c-47 -17 -58 -25 -58 -43 0 -12 5 -25 10 -28 6 -3 10
-15 10 -26 0 -27 59 -26 94 2 37 29 60 77 46 94 -18 22 -43 22 -102 1z"/>
<path d="M22409 28011 c-77 -25 -119 -82 -119 -163 0 -127 126 -206 237 -149
85 43 118 148 74 228 -39 68 -124 106 -192 84z"/>
<path d="M23059 27721 c-17 -18 -29 -40 -29 -56 0 -38 50 -85 90 -85 44 0 80
39 80 85 0 79 -84 112 -141 56z"/>
<path d="M21723 27569 c-71 -21 -104 -109 -68 -179 28 -55 105 -76 165 -45 42
22 60 53 60 106 0 55 -26 94 -76 115 -37 16 -37 16 -81 3z"/>
<path d="M23340 27324 c-145 -63 -176 -262 -56 -361 38 -31 95 -53 137 -53 75
0 160 56 193 125 21 44 23 130 3 175 -43 103 -176 158 -277 114z"/>
<path d="M22537 27307 c-7 -7 -34 -23 -59 -36 -75 -37 -107 -107 -87 -186 25
-98 130 -151 226 -114 l28 10 -30 -31 c-23 -24 -27 -34 -19 -47 6 -9 15 -18
20 -20 11 -4 64 88 64 111 0 9 9 33 20 53 22 42 25 104 7 144 -7 15 -29 45
-49 69 -39 45 -98 68 -121 47z"/>
<path d="M21880 26803 c-77 -39 -115 -102 -114 -187 1 -72 18 -109 72 -158
134 -121 352 -17 352 168 0 49 -50 135 -96 167 -63 44 -142 47 -214 10z"/>
<path d="M22925 26456 c-89 -39 -106 -153 -34 -222 27 -25 38 -29 89 -29 53 0
63 3 91 31 70 70 51 183 -38 220 -40 17 -69 17 -108 0z"/>
<path d="M21089 21243 c-17 -46 -21 -107 -10 -150 24 -90 193 -275 357 -391
166 -119 416 -222 536 -222 42 0 49 3 44 16 -3 9 -6 28 -6 44 0 17 -5 27 -13
26 -8 0 -41 35 -75 80 -113 150 -410 419 -572 518 -67 42 -213 106 -240 106
-6 0 -15 -12 -21 -27z"/>
<path d="M22090 20515 c0 -28 -40 -75 -64 -75 -8 0 -26 -5 -40 -12 -23 -10
-24 -12 -10 -23 15 -10 14 -16 -6 -54 -16 -32 -19 -46 -11 -54 17 -17 69 15
168 102 74 65 83 76 66 82 -22 8 -37 35 -27 50 3 5 -13 9 -35 9 -37 0 -41 -2
-41 -25z"/>
<path d="M17775 6681 c-126 -16 -204 -33 -215 -46 -23 -28 -34 -143 -22 -232
30 -224 195 -391 394 -401 117 -6 165 14 258 108 162 164 230 354 166 464 -13
23 -45 57 -71 75 l-48 34 -201 3 c-111 1 -228 -1 -261 -5z"/>
<path d="M14720 2723 c-36 -8 -74 -15 -85 -14 -11 0 -22 -4 -25 -8 -3 -5 -30
-21 -60 -36 -140 -70 -281 -204 -360 -341 -52 -91 -105 -242 -121 -344 -16
-105 -7 -295 20 -397 11 -45 36 -118 55 -163 37 -86 154 -304 206 -380 16 -25
30 -51 30 -57 0 -7 4 -13 8 -13 5 0 24 -21 43 -47 156 -218 339 -356 475 -357
106 -2 152 46 209 218 88 263 105 559 59 1051 -19 199 -161 880 -188 897 -19
13 -198 7 -266 -9z"/>
<path d="M19160 2682 c0 -11 -9 -27 -20 -37 -11 -10 -20 -24 -20 -31 0 -8 31
-46 69 -85 53 -54 75 -70 93 -67 18 2 23 9 21 30 -3 40 -49 128 -91 171 -40
41 -52 46 -52 19z"/>
<path d="M18676 1801 c-23 -79 -22 -211 4 -260 19 -38 63 -81 82 -81 20 0 -25
289 -56 364 l-13 31 -17 -54z"/>
<path d="M15634 19292 c-36 -23 -41 -94 -12 -157 10 -22 17 -25 65 -25 44 0
53 3 53 18 0 10 5 23 12 30 9 9 2 20 -30 48 -32 27 -42 43 -42 65 0 29 -20 39
-46 21z"/>
<path d="M16279 19181 c-27 -28 -49 -55 -49 -61 0 -5 14 -10 30 -10 67 0 120
-60 120 -135 0 -23 3 -25 50 -25 l50 0 0 43 c0 24 -9 70 -20 103 -12 32 -22
75 -24 94 -3 35 -3 35 -56 38 -52 3 -53 2 -101 -47z"/>
<path d="M1583 19251 c-30 -64 -30 -81 3 -81 17 0 37 -13 61 -40 48 -53 87
-55 101 -7 17 55 23 122 13 148 -5 13 -10 19 -10 12 -1 -7 -10 -17 -22 -23
-16 -9 -30 -7 -69 14 -28 14 -51 26 -52 26 -2 -1 -13 -22 -25 -49z"/>
<path d="M21342 19258 c-15 -8 -21 -17 -17 -27 4 -9 12 -54 19 -100 10 -67 17
-88 36 -103 13 -10 27 -15 31 -11 16 17 49 134 49 173 0 61 -14 80 -58 79 -20
0 -47 -5 -60 -11z"/>
<path d="M1888 18540 c-185 -33 -337 -132 -396 -257 -23 -50 -27 -71 -27 -149
0 -84 2 -95 38 -167 95 -192 331 -346 601 -393 108 -19 277 -14 371 12 144 39
282 142 330 247 123 267 -116 581 -524 689 -85 22 -313 33 -393 18z m416 -44
c95 -28 201 -78 270 -125 73 -51 164 -155 199 -228 28 -61 32 -78 32 -158 0
-78 -4 -97 -28 -146 -117 -239 -504 -329 -850 -199 -90 34 -53 42 43 10 205
-69 413 -64 576 14 213 101 290 292 197 486 -36 74 -158 196 -247 245 -146 81
-282 117 -446 117 -419 -1 -652 -279 -477 -571 18 -29 65 -84 105 -121 39 -38
72 -71 72 -74 0 -31 -119 70 -175 149 -86 120 -108 244 -63 362 42 113 174
212 341 254 111 29 330 21 451 -15z m-28 -77 c126 -39 213 -88 290 -164 40
-39 81 -92 94 -120 32 -65 39 -169 16 -229 -79 -207 -376 -295 -675 -201 l-80
25 6 34 c3 18 0 42 -6 54 -10 19 -8 20 39 19 44 -2 56 3 124 51 42 28 77 52
79 52 2 0 44 -32 93 -70 105 -83 140 -97 195 -81 43 13 64 41 55 76 -4 14 -45
53 -101 97 -52 40 -93 76 -92 80 1 4 33 29 71 55 80 55 91 70 82 106 -11 47
-91 82 -150 66 -16 -5 -60 -29 -98 -55 l-68 -47 -77 60 c-100 76 -113 83 -165
83 -51 0 -88 -27 -88 -65 0 -24 43 -67 135 -137 25 -18 45 -36 45 -40 0 -4
-34 -30 -75 -58 -78 -54 -93 -76 -76 -109 6 -11 11 -35 11 -53 0 -18 9 -48 20
-65 11 -18 16 -33 11 -33 -22 0 -132 83 -183 138 -101 110 -128 240 -73 356
53 111 279 227 362 186 15 -8 32 -16 37 -19 5 -2 6 6 3 19 l-6 23 88 -6 c48
-4 119 -16 157 -28z"/>
<path d="M22220 18531 c-336 -74 -572 -286 -585 -524 -10 -186 125 -342 360
-417 90 -29 294 -36 402 -15 215 43 406 152 514 295 70 93 92 156 93 260 0 73
-4 93 -28 143 -54 113 -188 212 -341 253 -95 25 -311 28 -415 5z m390 -22
c158 -40 283 -130 340 -244 21 -42 25 -64 25 -141 0 -84 -3 -95 -37 -165 -82
-165 -257 -291 -498 -356 -48 -13 -103 -18 -210 -18 -156 0 -234 16 -344 72
-57 29 -139 102 -172 154 -148 234 23 535 377 664 111 40 192 54 324 53 84 0
143 -6 195 -19z"/>
<path d="M22282 18504 c-103 -15 -153 -30 -238 -69 -154 -71 -262 -167 -318
-285 -28 -58 -31 -75 -31 -155 0 -78 4 -97 27 -141 149 -283 644 -338 987
-109 317 210 325 547 16 703 -107 53 -296 77 -443 56z m270 -73 c152 -39 260
-121 293 -222 110 -331 -395 -647 -812 -508 -149 49 -253 173 -253 301 0 86
40 176 111 249 156 160 438 237 661 180z"/>
<path d="M22109 18287 c-56 -37 -52 -73 16 -153 l56 -67 -50 -28 c-28 -16 -57
-29 -66 -29 -8 0 -15 -4 -15 -8 0 -5 -16 -16 -35 -25 -77 -37 -86 -115 -16
-136 57 -17 63 -15 177 44 70 36 111 52 118 46 6 -5 34 -37 61 -70 36 -44 60
-64 85 -71 45 -12 99 2 127 32 40 45 38 59 -28 137 -33 39 -59 77 -56 84 3 7
44 32 92 56 121 62 151 106 103 151 -40 37 -103 28 -214 -32 l-97 -51 -26 29
c-14 16 -38 43 -52 60 -14 18 -35 37 -47 43 -35 18 -96 13 -133 -12z"/>
<path d="M3198 18332 c-30 -3 -38 -7 -38 -22 0 -11 6 -23 14 -27 27 -15 21
-34 -13 -46 -58 -20 -75 -54 -74 -150 0 -66 6 -98 31 -166 17 -46 43 -103 57
-128 l26 -44 32 20 c56 34 87 96 92 183 3 41 9 87 15 102 10 27 56 76 71 76
14 0 10 -22 -7 -42 -16 -16 -15 -18 0 -24 9 -3 31 -4 48 0 26 5 30 4 20 -6 -7
-7 -12 -29 -12 -49 0 -67 71 -90 84 -27 12 61 6 162 -13 203 -47 104 -175 160
-333 147z"/>
<path d="M21025 18250 c-42 -44 -62 -47 -96 -14 l-29 28 0 -31 c0 -36 -18 -54
-91 -91 -30 -15 -55 -35 -57 -44 -3 -16 -1 -16 29 -1 22 11 37 13 47 6 22 -13
27 -33 8 -33 -27 0 -85 -60 -92 -95 -11 -60 10 -90 55 -78 16 4 20 11 15 25
-4 14 5 28 33 54 l38 35 10 -31 10 -31 40 41 39 40 21 -42 c12 -26 37 -54 63
-71 34 -23 40 -32 32 -42 -16 -19 -8 -79 10 -83 12 -2 14 6 12 42 -3 39 -1 46
23 62 22 15 34 16 66 7 l38 -10 3 51 c7 111 -31 212 -107 291 -53 54 -80 57
-120 15z"/>
<path d="M20683 17635 c-39 -17 -60 -48 -78 -116 l-14 -51 66 4 c79 5 103 26
103 92 0 86 -14 99 -77 71z"/>
<path d="M22545 17590 c-21 -23 -23 -96 -5 -144 13 -35 8 -41 -18 -27 -12 6
-28 11 -37 11 -14 0 -14 -3 2 -31 26 -45 89 -99 116 -99 89 0 167 159 123 252
-20 42 -51 58 -115 58 -35 0 -53 -5 -66 -20z"/>
<path d="M21341 17554 c-57 -48 -36 -131 43 -168 19 -9 45 -16 58 -16 22 0 26
8 42 74 20 80 18 99 -14 116 -18 10 -22 8 -31 -19 -15 -44 -38 -47 -52 -8 -6
17 -10 35 -9 40 4 12 -5 8 -37 -19z"/>
<path d="M3832 17273 c1 -10 -4 -35 -11 -56 -16 -48 -11 -61 33 -82 46 -22
101 -77 128 -128 17 -31 22 -60 23 -110 l0 -68 23 26 c17 20 22 39 22 80 0 41
4 56 17 64 16 8 15 12 -10 31 -28 23 -34 48 -17 81 9 15 7 19 -5 19 -9 0 -54
36 -100 80 -85 82 -105 93 -103 63z"/>
<path d="M4967 16428 c-22 -38 -21 -48 1 -48 33 0 46 -18 52 -74 3 -31 3 -56
0 -56 -3 0 -14 -6 -24 -13 -16 -11 -17 -17 -6 -36 8 -15 17 -20 28 -16 9 4 59
13 110 20 115 16 142 32 142 83 0 50 -28 102 -67 125 -19 11 -67 22 -117 27
-47 5 -89 11 -94 14 -4 2 -15 -9 -25 -26z"/>
<path d="M3993 16400 c-57 -12 -96 -33 -128 -72 -25 -30 -27 -37 -23 -103 6
-86 28 -136 58 -128 28 8 48 39 56 91 8 50 26 72 58 72 18 0 24 10 39 64 25
96 28 93 -60 76z"/>
<path d="M15016 16191 c-16 -11 -33 -27 -38 -35 -7 -13 -3 -16 20 -16 17 0 49
-15 78 -35 62 -44 79 -44 94 0 12 38 7 66 -16 90 -22 22 -102 19 -138 -4z"/>
<path d="M12887 16163 c4 -33 -7 -48 -62 -88 -102 -73 -146 -135 -87 -120 86
21 98 5 57 -81 -14 -30 -25 -63 -23 -71 5 -25 28 -28 28 -4 0 31 13 32 76 11
40 -14 61 -17 68 -10 14 14 -5 44 -30 48 -10 2 -23 8 -28 13 -6 5 19 9 62 9
70 0 72 1 67 23 -3 12 -12 58 -21 102 -17 87 -30 117 -70 164 -32 38 -42 39
-37 4z"/>
<path d="M22347 16143 c-4 -3 -7 -19 -7 -34 0 -36 -15 -45 -47 -28 -21 11 -31
11 -71 -5 -26 -10 -62 -20 -79 -23 -39 -6 -40 -15 -13 -84 14 -35 18 -62 14
-85 l-6 -34 55 0 c92 0 140 28 179 104 l20 39 -24 -8 c-12 -4 -35 -9 -50 -12
-25 -5 -28 -2 -28 20 0 36 13 40 65 22 58 -19 68 -19 95 3 21 17 21 19 7 54
-15 36 -43 60 -83 72 -11 3 -23 3 -27 -1z"/>
<path d="M12339 16093 c-1 -5 0 -24 1 -43 1 -23 -11 -60 -34 -105 -35 -70 -34
-85 4 -85 29 0 78 39 111 87 18 26 43 61 57 77 l24 29 -39 24 c-36 22 -122 33
-124 16z"/>
<path d="M5300 18723 c0 -11 -17 -32 -41 -49 -100 -72 -136 -104 -159 -142
-24 -39 -27 -40 -66 -35 l-42 5 -8 -43 c-13 -75 2 -111 51 -123 18 -5 27 -17
35 -45 23 -85 140 -205 257 -265 78 -39 205 -67 313 -67 215 1 379 80 447 219
119 244 -147 522 -517 539 -58 3 -128 1 -157 -4 -42 -8 -50 -7 -46 4 3 7 -1
13 -8 13 -8 0 -24 3 -36 6 -18 5 -23 2 -23 -13z m375 -58 c151 -32 296 -131
353 -240 35 -66 37 -170 5 -230 -63 -120 -214 -195 -394 -195 -397 0 -666 335
-446 554 110 109 292 151 482 111z"/>
<path d="M5460 18559 c-72 -12 -148 -57 -184 -107 -23 -32 -29 -52 -29 -94 -1
-63 18 -104 74 -157 100 -98 302 -138 427 -85 43 18 52 18 52 -1 0 -16 36 -28
71 -23 19 2 27 14 41 58 21 69 22 107 3 144 -8 15 -15 35 -15 43 0 48 -82 143
-157 182 -77 39 -192 55 -283 40z"/>
<path d="M6882 18700 c-131 -34 -234 -108 -284 -201 -18 -35 -23 -60 -23 -124
0 -72 3 -86 34 -143 89 -163 300 -272 531 -273 118 0 185 13 276 57 178 84
253 240 193 399 -48 129 -220 252 -401 289 -104 21 -235 20 -326 -4z m331 -39
c115 -30 184 -67 258 -141 48 -47 70 -79 82 -114 74 -219 -117 -406 -413 -406
-158 0 -296 50 -398 144 -108 100 -140 223 -88 330 81 165 325 246 559 187z"/>
<path d="M6982 18559 c-241 -41 -299 -266 -102 -397 212 -142 535 -53 534 148
-1 161 -218 286 -432 249z"/>
<path d="M17251 18709 c-136 -27 -250 -87 -334 -178 -64 -69 -90 -128 -90
-211 -3 -304 452 -466 809 -288 84 42 172 121 208 188 33 61 45 160 28 224 -9
31 -8 41 3 53 30 29 11 56 -23 34 -10 -6 -27 6 -58 39 -88 94 -244 151 -408
149 -50 -1 -111 -5 -135 -10z m284 -49 c130 -33 216 -95 261 -185 111 -227
-136 -475 -474 -475 -310 0 -515 215 -412 433 12 25 44 68 73 96 128 128 354
182 552 131z"/>
<path d="M17287 18559 c-154 -23 -277 -132 -277 -247 0 -76 78 -166 173 -199
73 -25 215 -23 283 4 195 77 263 253 138 362 -82 72 -188 99 -317 80z"/>
<path d="M18635 18704 c-111 -24 -229 -86 -303 -160 -140 -140 -149 -300 -26
-433 95 -103 223 -151 400 -151 178 0 336 58 451 164 152 140 164 328 30 458
-121 118 -340 166 -552 122z m293 -39 c222 -52 335 -213 275 -391 -23 -69
-126 -170 -216 -213 -250 -119 -565 -60 -675 128 -38 64 -39 173 -2 244 91
179 381 288 618 232z"/>
<path d="M18710 18563 c-64 -7 -154 -43 -204 -81 -152 -115 -117 -305 68 -369
75 -26 213 -23 289 6 111 43 196 134 199 214 1 22 6 37 13 37 7 0 15 10 18 23
3 12 9 32 12 45 6 17 3 22 -11 22 -9 0 -25 -7 -35 -16 -15 -14 -18 -13 -29 13
-21 48 -193 119 -269 111 -9 0 -32 -3 -51 -5z"/>
<path d="M8885 18575 c-20 -19 -25 -34 -25 -73 0 -43 -14 -103 -34 -153 -5
-12 1 -20 24 -29 17 -7 32 -11 34 -9 15 20 56 175 56 211 0 82 -14 95 -55 53z"/>
<path d="M13240 18584 c-42 -18 -71 -44 -64 -55 9 -16 32 -10 60 16 36 33 44
32 38 -7 -3 -18 2 -53 10 -77 29 -80 17 -108 -35 -81 -29 16 -44 2 -23 -21 16
-18 16 -25 5 -70 -7 -28 -11 -53 -8 -56 13 -12 37 8 42 34 14 65 37 78 55 31
22 -54 38 -68 65 -56 33 15 112 1 137 -24 l20 -20 -7 23 c-23 71 -1 133 75
213 l48 51 -34 39 c-43 50 -69 44 -120 -26 l-39 -53 -5 49 c-5 38 -13 55 -38
77 -28 25 -40 29 -90 29 -31 -1 -73 -8 -92 -16z"/>
<path d="M11663 18547 c-17 -17 -49 -68 -71 -113 -22 -44 -53 -95 -67 -112
-20 -24 -23 -32 -11 -32 26 0 29 -21 10 -76 l-18 -53 24 -26 c13 -14 31 -25
41 -25 18 0 48 61 69 140 16 60 42 110 73 138 24 23 25 25 11 64 -8 22 -14 55
-14 72 0 53 -13 60 -47 23z"/>
<path d="M14087 18325 c-8 -87 -3 -103 29 -111 13 -3 24 -8 24 -10 0 -1 -16
-29 -35 -61 -19 -32 -35 -61 -35 -65 0 -13 89 -9 123 6 78 33 113 110 108 239
-1 23 -5 27 -31 27 -23 0 -31 -5 -36 -26 -4 -14 -1 -37 5 -50 6 -14 11 -34 11
-45 0 -18 -1 -19 -25 -3 -23 15 -25 23 -25 84 0 66 -1 67 -24 63 -14 -3 -35 2
-48 11 -12 9 -25 16 -29 16 -3 0 -9 -34 -12 -75z"/>
<path d="M14424 18003 c-10 -84 -9 -89 13 -110 12 -13 27 -23 33 -23 6 0 8 -4
5 -10 -3 -5 -2 -10 4 -10 12 0 116 101 130 128 20 38 11 40 -23 6 -37 -37 -69
-43 -103 -19 l-22 15 24 35 c31 47 24 75 -20 75 l-32 0 -9 -87z"/>
<path d="M14673 18000 c-27 -11 -30 -26 -5 -35 9 -3 32 -26 50 -50 30 -42 31
-46 18 -68 -34 -52 42 -106 78 -55 22 31 21 39 -19 89 l-35 44 37 5 c24 3 43
14 56 32 12 15 18 30 16 33 -11 10 -175 15 -196 5z"/>
<path d="M12970 17963 c0 -4 11 -23 24 -42 33 -49 39 -74 23 -96 -17 -22 -40
-11 -32 16 4 10 2 19 -4 19 -19 0 -44 -51 -45 -93 -1 -38 1 -42 37 -56 144
-55 220 148 88 236 -32 21 -91 32 -91 16z"/>
<path d="M17090 17774 c-19 -7 -61 -20 -92 -29 -67 -18 -88 -36 -88 -76 0 -28
13 -39 24 -20 3 4 44 11 91 13 62 4 91 11 105 23 15 13 17 22 10 31 -6 6 -8
23 -5 37 8 32 -2 37 -45 21z"/>
<path d="M14807 17683 c-16 -15 -5 -34 33 -58 48 -30 50 -44 10 -73 -39 -30
-43 -82 -6 -82 33 0 49 -24 44 -65 -3 -30 -1 -35 17 -35 11 0 27 5 35 10 12 8
13 13 3 30 -18 27 -17 34 12 76 l25 37 -41 35 c-39 34 -41 38 -35 78 5 37 3
43 -17 48 -30 8 -72 8 -80 -1z"/>
<path d="M8454 17660 c-33 -13 -37 -25 -29 -111 l7 -79 32 0 c53 0 70 19 63
72 -7 49 -35 128 -46 127 -3 0 -16 -4 -27 -9z"/>
<path d="M12145 17628 c-364 -30 -623 -274 -574 -541 26 -148 136 -279 299
-359 137 -67 207 -82 378 -82 129 -1 142 -2 142 -18 0 -10 7 -18 15 -18 18 0
20 40 3 41 -7 0 18 9 57 20 38 11 98 34 134 51 58 27 67 29 102 19 48 -14 99
-65 99 -97 0 -13 3 -24 8 -24 4 0 39 34 78 76 64 68 75 76 99 70 l26 -7 -38
73 c-21 40 -54 89 -74 108 -35 34 -35 36 -22 69 8 18 17 61 20 95 24 259 -240
494 -591 524 -44 4 -117 4 -161 0z m320 -49 c166 -50 311 -161 370 -283 37
-76 46 -190 20 -268 -20 -65 -72 -148 -91 -148 -19 0 -18 3 16 54 46 68 62
122 62 208 1 65 -4 86 -31 143 -62 133 -203 237 -387 286 -109 29 -288 29
-395 1 -167 -45 -304 -142 -370 -265 -32 -58 -34 -68 -34 -157 0 -87 3 -101
33 -162 61 -124 205 -231 377 -279 66 -19 104 -23 218 -22 137 0 178 -9 91
-21 -247 -33 -522 63 -657 229 -66 83 -90 150 -91 255 -1 78 2 92 33 154 62
126 188 224 356 276 135 42 341 41 480 -1z m-73 -68 c154 -40 285 -135 338
-246 36 -76 35 -181 -3 -258 -56 -112 -180 -203 -332 -242 -76 -19 -231 -19
-315 1 -152 35 -286 133 -341 249 -32 67 -37 106 -14 125 8 7 15 19 15 27 0 9
-6 13 -15 9 -10 -3 -15 1 -15 13 0 27 28 103 48 129 18 23 18 22 18 -32 0 -46
5 -61 30 -93 29 -37 79 -68 118 -75 14 -2 22 6 31 32 7 19 18 48 24 63 l11 29
50 -42 c28 -23 50 -45 50 -48 0 -4 -39 -31 -86 -61 -93 -58 -115 -87 -95 -124
18 -34 50 -50 99 -49 44 1 55 7 159 72 l53 33 71 -68 c39 -37 85 -73 101 -80
40 -16 107 -4 130 25 31 39 22 61 -57 140 -41 41 -75 78 -75 81 0 4 38 31 85
60 84 51 102 73 93 115 -6 30 -54 57 -100 57 -35 0 -59 -10 -126 -52 -95 -59
-80 -62 -179 31 -54 51 -66 58 -102 58 -32 0 -43 5 -52 23 -6 12 -23 31 -36
42 l-25 21 73 22 c99 29 101 30 205 31 60 1 116 -5 166 -18z"/>
<path d="M14730 17392 c-68 -71 -96 -167 -70 -237 l10 -27 19 24 c25 30 38 16
23 -25 -7 -19 -12 -38 -12 -44 0 -8 41 -33 55 -33 7 0 25 105 40 238 8 74 18
138 21 143 3 5 -5 9 -17 9 -14 0 -41 -19 -69 -48z"/>
<path d="M13336 17256 c-3 -14 -34 -52 -67 -83 -34 -32 -67 -71 -74 -87 -11
-27 -10 -31 14 -52 21 -18 28 -20 36 -10 6 7 25 20 42 30 29 14 31 19 22 40
-12 25 2 61 44 117 20 28 20 60 1 66 -7 2 -14 -8 -18 -21z"/>
<path d="M9874 16996 c-38 -17 -64 -52 -64 -86 0 -44 49 -127 102 -175 l51
-46 30 48 c58 92 79 180 61 251 -6 20 -12 22 -78 22 -39 -1 -85 -7 -102 -14z"/>
<path d="M14025 16965 c-61 -37 -347 -293 -339 -304 8 -9 97 55 171 122 45 42
96 83 112 92 29 14 31 14 41 -5 20 -38 9 -62 -34 -74 -22 -6 -41 -16 -43 -22
-6 -17 53 -35 80 -25 30 12 51 37 37 46 -19 12 -10 67 21 125 46 87 37 96 -46
45z"/>
<path d="M17620 16800 c0 -12 16 -30 40 -46 31 -21 40 -33 40 -55 0 -37 -7
-36 -46 2 -18 18 -39 29 -47 26 -16 -6 -27 -51 -27 -113 l0 -43 33 10 c17 5
47 24 65 44 26 29 32 43 32 81 0 39 -5 51 -34 80 -39 39 -56 43 -56 14z"/>
<path d="M6883 15653 c-27 -9 -43 -21 -43 -31 0 -33 33 -132 49 -147 16 -14
20 -13 40 9 l23 24 -31 18 c-17 10 -30 23 -28 28 2 6 26 19 53 30 63 26 71 38
32 52 -18 6 -34 16 -36 22 -4 14 -4 14 -59 -5z"/>
<path d="M4641 15424 c-55 -30 -70 -34 -108 -28 l-43 6 0 -32 c0 -47 27 -96
61 -111 18 -7 34 -8 38 -3 16 17 141 194 141 199 0 11 -28 1 -89 -31z"/>
<path d="M3195 15441 c-56 -14 -75 -30 -75 -62 0 -73 53 -93 105 -39 45 47 53
40 47 -35 -6 -75 1 -80 59 -41 123 84 22 215 -136 177z"/>
<path d="M9464 15183 c-13 -77 -10 -175 6 -203 13 -24 14 -23 41 60 41 124 37
168 -18 184 -19 6 -22 2 -29 -41z"/>
<path d="M14652 15133 c-6 -10 -15 -44 -22 -75 -14 -72 -32 -92 -74 -84 l-31
6 1 -71 c2 -70 10 -88 41 -89 7 0 20 15 29 33 9 17 37 57 62 87 82 101 90 149
32 190 -27 19 -29 20 -38 3z"/>
<path d="M3985 15034 c24 -35 55 -121 55 -151 0 -20 16 -16 46 12 15 14 31 25
37 25 15 0 0 58 -24 92 -24 33 -73 58 -113 58 l-25 0 24 -36z"/>
<path d="M4038 12242 c-42 -31 -47 -51 -18 -77 11 -10 20 -29 20 -42 0 -20 5
-23 40 -23 l41 0 -3 83 c-3 73 -5 82 -23 84 -11 2 -37 -10 -57 -25z"/>
<path d="M4493 14568 c6 -16 914 -2253 1001 -2468 l63 -155 606 -3 606 -2
-160 397 c-151 374 -854 2124 -887 2206 l-15 37 -610 0 c-483 0 -608 -3 -604
-12z"/>
<path d="M4253 14433 c-12 -21 -24 -56 -27 -78 -7 -41 -8 -38 260 -1390 58
-291 114 -577 125 -635 11 -58 31 -129 44 -157 43 -96 150 -181 274 -219 31
-9 98 -14 209 -14 89 0 162 1 162 3 0 2 -27 70 -60 152 -33 82 -60 152 -60
157 0 4 7 8 15 8 11 0 15 12 15 45 0 39 -3 45 -20 45 -12 0 -24 -9 -28 -21 -6
-15 -117 252 -442 1060 -239 595 -437 1081 -440 1081 -4 0 -16 -17 -27 -37z"/>
<path d="M18089 14558 c5 -13 93 -230 196 -483 102 -253 277 -683 387 -955
110 -272 263 -648 338 -835 l138 -340 313 -3 c334 -2 352 0 453 50 52 26 132
102 162 155 26 42 63 225 114 558 l22 140 -250 865 -249 865 -816 3 -817 2 9
-22z"/>
<path d="M19944 14563 c3 -11 83 -295 176 -633 93 -337 172 -615 175 -618 3
-3 5 4 5 16 0 12 36 233 80 491 44 258 80 484 80 502 0 93 -55 171 -158 221
-65 32 -70 33 -215 36 -143 4 -149 3 -143 -15z"/>
<path d="M21260 13579 c-48 -33 -50 -42 -24 -104 16 -39 37 -44 82 -21 27 14
42 36 61 87 8 22 6 30 -13 48 -30 28 -53 26 -106 -10z"/>
<path d="M7790 14138 c-153 -7 -253 -26 -378 -70 -176 -62 -308 -145 -425
-267 -152 -159 -220 -327 -219 -541 2 -244 102 -461 311 -671 442 -444 1161
-550 1677 -246 119 70 281 230 341 337 260 464 43 1008 -516 1294 -248 127
-497 179 -791 164z m-184 -235 c42 -58 73 -108 68 -112 -5 -4 -56 -27 -113
-50 -98 -40 -104 -41 -116 -24 -7 10 -47 63 -89 118 l-75 100 47 24 c81 41
175 71 189 59 7 -6 47 -58 89 -115z m956 10 c42 -22 65 -40 61 -47 -20 -32
-135 -196 -141 -200 -4 -2 -58 21 -120 50 -86 41 -112 58 -108 70 3 8 35 57
71 109 l66 94 52 -20 c29 -11 82 -37 119 -56z m-481 -399 c202 -60 316 -226
264 -385 -47 -140 -228 -225 -407 -189 -185 36 -320 170 -322 320 0 70 33 150
61 145 10 -2 42 -6 71 -9 48 -5 52 -3 41 10 -7 8 -25 22 -41 30 -36 19 -35 26
5 47 93 49 224 62 328 31z m-1131 -188 c41 -3 103 -9 138 -12 l62 -6 0 -102
c0 -57 -2 -105 -5 -107 -9 -10 -280 23 -287 34 -9 15 -11 191 -2 200 4 4 10 5
13 3 3 -2 40 -6 81 -10z m2159 -78 c6 -29 13 -79 16 -110 l6 -58 -150 0 c-114
0 -151 3 -152 13 0 6 -2 20 -4 29 -2 9 -6 52 -10 96 l-7 80 145 1 145 2 11
-53z m-1406 -685 c9 -3 17 -9 17 -14 0 -6 -28 -57 -62 -114 -53 -91 -64 -104
-82 -99 -28 8 -206 96 -211 103 -3 6 29 64 97 173 l29 47 97 -46 c53 -25 105
-48 115 -50z m963 -29 c84 -102 87 -107 68 -121 -30 -23 -172 -93 -186 -92 -7
0 -52 49 -100 109 l-87 108 97 50 c53 28 102 51 109 52 7 0 51 -48 99 -106z"/>
<path d="M10461 12910 c-13 -11 -41 -23 -62 -26 -22 -4 -39 -11 -39 -17 0 -5
-11 -25 -25 -43 -33 -43 -32 -60 4 -72 16 -6 42 -25 58 -42 37 -42 81 -66 88
-48 28 78 35 110 35 163 0 45 -5 69 -17 84 -18 20 -18 20 -42 1z"/>
<path d="M3606 9505 c-2 -7 -29 -29 -58 -48 -68 -43 -134 -116 -161 -175 -32
-72 -36 -208 -7 -292 102 -302 457 -509 770 -450 125 24 255 122 302 227 30
67 36 209 13 289 -74 258 -367 465 -657 464 -40 0 -90 -5 -112 -9 -22 -6 -48
-6 -61 -1 -17 6 -25 5 -29 -5z m345 -19 c133 -28 284 -117 374 -218 25 -29 65
-90 87 -136 37 -73 42 -93 46 -168 8 -142 -40 -250 -145 -330 -105 -80 -285
-107 -438 -65 -233 64 -421 238 -480 445 -22 76 -16 192 13 258 24 54 88 128
139 159 39 24 61 15 23 -10 -96 -62 -155 -158 -166 -269 -23 -213 172 -462
426 -546 200 -66 387 -35 504 82 117 116 136 278 54 451 -46 98 -167 215 -279
270 -118 57 -183 72 -309 70 -121 -1 -137 0 -95 11 50 13 176 11 246 -4z m58
-99 c186 -65 322 -213 352 -383 20 -114 -26 -231 -118 -298 -152 -110 -397
-87 -578 56 -163 129 -228 316 -163 470 26 62 107 138 146 138 16 0 40 8 53
19 35 27 54 30 149 27 59 -2 108 -11 159 -29z"/>
<path d="M3674 9272 c-22 -14 -34 -50 -25 -74 5 -13 41 -54 81 -92 l72 -70
-61 -58 c-65 -62 -73 -86 -45 -126 18 -26 65 -52 93 -52 12 0 50 25 86 56 l66
55 79 -74 c44 -41 91 -78 106 -81 34 -9 81 10 90 36 11 36 -5 64 -85 141 l-79
77 60 58 c72 70 78 100 29 144 -51 45 -94 39 -163 -22 -31 -27 -60 -50 -65
-50 -5 0 -33 25 -63 56 -30 30 -67 62 -82 70 -29 15 -76 18 -94 6z"/>
<path d="M20765 9505 c-79 -17 -169 -54 -238 -98 -31 -20 -59 -32 -62 -27 -10
16 -35 11 -35 -6 0 -11 6 -13 19 -9 11 3 -9 -23 -44 -59 -78 -79 -140 -198
-155 -299 -20 -131 19 -253 110 -344 45 -45 159 -113 189 -113 6 0 11 -7 11
-15 0 -15 12 -20 23 -9 3 3 61 7 129 9 96 2 137 7 187 24 45 16 67 19 74 12
18 -18 37 -12 38 12 0 16 18 34 71 67 192 123 311 350 277 533 -44 246 -303
386 -594 322z m316 -34 c286 -110 349 -424 135 -680 -44 -52 -123 -120 -175
-149 -62 -35 -57 -9 7 31 106 66 223 207 253 306 20 68 23 184 5 239 -50 150
-177 243 -356 260 -251 25 -502 -113 -613 -337 -41 -82 -42 -87 -42 -185 0
-94 2 -106 33 -168 90 -184 324 -263 560 -189 46 14 62 16 62 6 0 -20 -108
-46 -216 -52 -150 -8 -250 25 -346 115 -65 60 -95 114 -113 198 -16 78 -8 159
24 245 61 158 220 300 401 357 98 31 97 31 215 28 83 -2 124 -8 166 -25z m-40
-81 c243 -90 276 -382 68 -591 -142 -143 -356 -199 -527 -139 -66 24 -69 26
-40 33 14 4 28 19 35 37 11 30 11 32 -22 46 -19 8 -60 14 -90 14 l-56 0 -19
43 c-98 221 77 491 370 572 74 20 207 13 281 -15z"/>
<path d="M20646 9259 c-56 -44 -53 -75 16 -177 17 -24 27 -46 24 -49 -3 -4
-41 -29 -83 -57 -84 -55 -110 -88 -100 -128 8 -30 55 -53 89 -43 13 4 58 30
101 57 43 27 80 48 81 46 1 -1 22 -34 46 -71 25 -39 54 -73 68 -78 51 -20 132
33 132 85 0 12 -20 51 -45 88 -25 37 -45 71 -45 75 0 4 38 33 85 63 105 69
127 108 85 150 -33 33 -77 25 -160 -26 -41 -26 -80 -48 -86 -51 -6 -2 -30 25
-53 61 -23 35 -49 67 -57 70 -31 12 -72 5 -98 -15z"/>
<path d="M6016 9482 l-36 -14 6 -52 c4 -28 8 -58 10 -66 1 -8 3 -33 3 -56 1
-27 10 -54 27 -79 26 -39 23 -41 -30 -19 -17 6 -18 4 -12 -17 5 -13 12 -51 16
-84 6 -42 15 -65 30 -77 21 -17 21 -18 5 -75 -9 -32 -22 -64 -27 -70 -13 -16
5 -17 32 -3 19 10 34 47 45 112 5 33 11 39 43 48 20 6 55 24 76 40 22 17 49
30 61 30 20 0 21 4 17 93 -3 68 0 102 11 129 14 34 14 38 -4 54 -10 9 -19 23
-19 31 0 15 -46 18 -55 3 -3 -5 -20 -10 -37 -10 -26 0 -29 3 -24 20 20 65 20
64 3 57 -9 -3 -36 0 -60 7 -37 11 -49 11 -81 -2z"/>
<path d="M16476 9349 c-9 -49 -8 -64 15 -125 l22 -57 14 29 c8 16 27 46 41 67
l25 38 -30 37 c-17 21 -41 38 -55 40 -21 3 -26 -2 -32 -29z"/>
<path d="M8081 8763 c24 -48 24 -116 -1 -172 -11 -24 -19 -45 -18 -45 65 -36
85 -32 92 19 10 64 34 90 85 89 45 -2 48 4 27 44 -33 63 -96 102 -166 102
l-38 0 19 -37z"/>
<path d="M9961 10823 c-75 -37 -122 -144 -122 -278 0 -91 9 -128 46 -190 90
-154 268 -127 335 51 41 110 23 275 -39 361 -50 69 -144 93 -220 56z"/>
<path d="M9307 7063 c-198 -29 -352 -83 -483 -169 -89 -58 -137 -110 -178
-193 -32 -62 -30 -44 -81 -671 -20 -234 -37 -443 -40 -465 -3 -22 -9 -96 -15
-165 -6 -69 -13 -143 -15 -165 -2 -22 -7 -76 -10 -120 -4 -44 -13 -143 -20
-220 -7 -77 -12 -141 -10 -143 10 -11 369 -53 520 -62 542 -32 1140 71 1553
266 308 145 509 336 594 566 27 73 31 99 35 213 11 291 -88 558 -300 805 -201
235 -549 427 -902 499 -214 43 -459 52 -648 24z"/>
<path d="M5141 6743 c-71 -91 -112 -169 -118 -227 -10 -86 69 -135 228 -144
103 -5 177 10 244 49 43 25 55 46 55 92 0 31 -9 44 -67 97 -72 66 -260 210
-274 210 -4 0 -35 -35 -68 -77z"/>
<path d="M8192 4628 c-18 -18 -15 -39 14 -83 42 -62 76 -95 100 -95 21 0 21 1
9 66 -7 36 -21 77 -32 92 -22 30 -70 41 -91 20z"/>
<path d="M8600 4571 c-16 -16 -32 -41 -35 -57 -3 -16 -11 -46 -16 -67 -6 -22
-8 -41 -6 -44 9 -8 115 64 126 86 22 41 4 111 -28 111 -7 0 -25 -13 -41 -29z"/>
<path d="M8135 3535 c-33 -16 -89 -100 -79 -117 10 -16 70 -38 106 -38 18 0
46 -7 62 -15 15 -8 31 -15 34 -15 7 0 -6 118 -19 163 -9 33 -13 37 -42 37 -18
0 -46 -7 -62 -15z"/>
<path d="M3802 1695 c-147 -27 -237 -95 -268 -202 -46 -160 41 -442 175 -565
95 -86 231 -192 343 -266 105 -69 106 -70 87 -89 -12 -12 -17 -26 -13 -37 8
-21 26 -16 30 8 7 46 11 48 66 17 212 -119 497 -176 693 -138 295 56 552 267
750 616 89 158 197 424 179 441 -5 4 -49 11 -99 14 -208 15 -359 34 -1045 130
-250 35 -488 68 -529 73 -114 14 -288 13 -369 -2z"/>
<path d="M7450 850 c-41 -5 -103 -18 -137 -28 -67 -21 -153 -67 -153 -82 0
-32 152 -117 258 -144 144 -38 223 -1 283 129 41 90 44 112 16 118 -45 11
-194 15 -267 7z"/>
<path d="M22480 6063 c-30 -104 -21 -233 16 -233 10 0 8 -6 -6 -20 -25 -25
-25 -42 -2 -63 48 -44 99 16 55 65 -15 17 -15 18 11 18 16 0 38 11 53 26 22
22 25 32 21 78 -5 58 -39 117 -85 147 -40 27 -51 24 -63 -18z"/>
<path d="M22075 5914 c-17 -7 -60 -18 -95 -24 -95 -18 -92 -17 -80 -40 9 -16
15 -18 36 -10 65 25 202 0 224 -40 11 -21 50 -16 50 5 0 29 -14 47 -52 66 -21
11 -42 28 -46 38 -6 16 -11 16 -37 5z"/>
<path d="M23312 5862 c-39 -3 -43 -5 -39 -25 3 -12 11 -62 18 -112 21 -165
-12 -364 -89 -529 l-40 -85 56 25 c262 116 446 271 496 417 22 67 20 105 -10
166 -53 106 -194 157 -392 143z"/>
<path d="M21215 5624 c-163 -47 -305 -138 -351 -226 -25 -47 -24 -132 4 -184
83 -160 365 -295 712 -339 l55 -8 -62 67 c-161 171 -255 385 -271 612 l-7 101
-80 -23z"/>
<path d="M1465 4101 c-98 -45 -131 -139 -82 -231 26 -50 90 -90 144 -90 120 0
203 124 155 231 -23 53 -48 76 -99 95 -51 18 -71 17 -118 -5z"/>
<path d="M2135 3825 c-52 -51 -15 -145 57 -145 38 0 88 48 88 85 0 16 -12 38
-29 56 -38 37 -82 39 -116 4z"/>
<path d="M790 3667 c-41 -14 -80 -68 -80 -109 0 -70 58 -128 126 -128 130 0
169 186 49 236 -41 17 -49 17 -95 1z"/>
<path d="M2425 3428 c-88 -32 -151 -128 -143 -218 16 -159 189 -247 324 -165
70 43 108 117 101 198 -10 109 -89 188 -195 194 -32 1 -70 -2 -87 -9z"/>
<path d="M1574 3384 c-178 -61 -133 -324 56 -324 22 0 53 6 69 14 l28 15 -5
-53 c-4 -48 -1 -56 24 -84 38 -41 74 -51 74 -22 0 36 26 74 84 124 31 26 56
54 56 62 0 18 -32 32 -38 16 -5 -17 -20 -15 -79 10 l-52 23 1 55 c1 34 -5 67
-15 87 -35 67 -129 103 -203 77z"/>
<path d="M970 2914 c-46 -20 -87 -60 -112 -108 -29 -56 -22 -149 15 -204 82
-125 271 -125 354 -1 32 48 43 140 23 192 -43 107 -177 166 -280 121z"/>
<path d="M2255 2754 c10 -29 9 -47 -2 -95 -7 -33 -11 -64 -8 -69 4 -6 22 -10
40 -10 66 0 83 77 34 156 -15 24 -55 54 -73 54 -2 0 2 -16 9 -36z"/>
<path d="M1993 2554 c-42 -21 -73 -71 -73 -118 0 -21 -4 -35 -8 -32 -4 2 -13
-4 -20 -14 -9 -15 -8 -19 4 -24 9 -3 20 -3 26 0 5 3 16 -3 24 -15 34 -48 117
-65 174 -36 15 8 38 30 49 48 71 116 -54 251 -176 191z"/>
</g>
</svg>
