<?xml version="1.0" standalone="no"?>
<!DOCTYPE svg PUBLIC "-//W3C//DTD SVG 20010904//EN"
 "http://www.w3.org/TR/2001/REC-SVG-20010904/DTD/svg10.dtd">
<svg version="1.0" xmlns="http://www.w3.org/2000/svg"
 width="1703.000000pt" height="1339.000000pt" viewBox="0 0 1703.000000 1339.000000"
 preserveAspectRatio="xMidYMid meet">
<metadata>
Created by potrace 1.16, written by Peter Selinger 2001-2019
</metadata>
<g transform="translate(0.000000,1339.000000) scale(0.100000,-0.100000)"
fill="#000000" stroke="none">
<path d="M13076 13378 c-3 -7 -7 -37 -10 -65 -3 -29 -14 -74 -25 -99 -91 -205
-304 -297 -618 -265 -69 6 -128 9 -131 6 -5 -5 123 -1511 134 -1580 l5 -30
-123 0 c-118 0 -125 -1 -177 -30 -77 -42 -104 -83 -109 -159 -5 -93 22 -130
144 -202 15 -9 -1 -15 -86 -33 -58 -12 -121 -23 -140 -25 -19 -2 -84 -10 -145
-19 -168 -25 -347 -47 -380 -47 -16 0 -86 -6 -155 -15 -69 -8 -190 -22 -270
-30 -80 -9 -201 -23 -270 -32 -68 -8 -136 -15 -150 -15 -14 0 -79 -8 -145 -18
-66 -10 -123 -16 -126 -14 -4 2 -66 -5 -139 -16 -72 -11 -134 -19 -138 -16 -4
2 -56 -5 -117 -15 -60 -10 -128 -19 -149 -19 -21 0 -92 -9 -158 -20 -65 -11
-122 -19 -126 -16 -4 2 -54 -4 -110 -15 -57 -10 -120 -19 -140 -20 -20 -1 -86
-10 -147 -20 -60 -11 -123 -20 -140 -20 -16 -1 -79 -11 -140 -21 -60 -11 -125
-21 -145 -22 -37 -3 -223 -34 -405 -68 -60 -12 -123 -22 -140 -23 -29 -2 -145
-25 -430 -86 -77 -17 -197 -46 -266 -65 -69 -19 -133 -34 -142 -34 -21 0 -265
-93 -326 -123 -69 -35 -121 -91 -121 -130 0 -42 21 -71 75 -103 25 -14 45 -28
45 -30 0 -2 -13 -10 -30 -19 -16 -8 -46 -31 -65 -51 -41 -41 -47 -87 -15 -127
23 -29 157 -100 228 -120 l46 -14 -54 -18 c-30 -10 -55 -17 -55 -15 0 2 -33
-14 -74 -35 -132 -70 -183 -135 -151 -194 13 -25 94 -75 158 -97 28 -10 52
-22 52 -26 0 -4 16 -10 35 -14 51 -9 52 -21 3 -34 -67 -17 -187 -81 -229 -122
-76 -74 -42 -145 98 -203 37 -16 77 -35 88 -42 18 -12 18 -13 1 -13 -25 0
-143 -63 -189 -101 -43 -36 -66 -94 -48 -127 26 -48 210 -129 376 -167 61 -14
125 -29 141 -34 16 -6 72 -15 124 -21 52 -6 109 -16 125 -21 17 -5 89 -16 160
-24 72 -8 153 -18 180 -22 l50 -8 -60 -18 c-33 -10 -114 -36 -180 -58 -66 -22
-134 -42 -150 -44 -17 -2 -77 -20 -135 -40 -58 -20 -116 -38 -131 -40 -14 -1
-76 -19 -139 -39 -62 -20 -120 -36 -127 -36 -8 0 -73 -19 -146 -42 l-132 -42
-352 -4 -353 -3 0 -65 0 -64 31 0 c82 0 -27 -45 -186 -77 -50 -10 -174 -41
-385 -95 -63 -17 -128 -31 -145 -33 -16 -1 -82 -16 -145 -33 -63 -16 -122 -30
-130 -30 -8 0 -71 -13 -140 -30 -69 -17 -186 -44 -260 -61 -74 -17 -197 -44
-272 -61 -76 -18 -150 -33 -165 -34 -16 -2 -65 -13 -110 -25 -45 -11 -108 -25
-140 -30 -55 -8 -153 -29 -408 -87 -61 -14 -129 -27 -150 -29 -22 -2 -85 -15
-140 -29 -55 -14 -121 -27 -145 -30 -25 -2 -92 -15 -150 -29 -58 -14 -112 -25
-120 -24 -8 0 -72 -12 -142 -26 -322 -67 -375 -78 -398 -79 -14 -1 -70 -11
-125 -23 -90 -20 -100 -24 -103 -45 -2 -14 3 -29 12 -35 12 -9 -19 -20 -156
-51 -93 -21 -172 -44 -175 -51 -4 -10 33 -247 67 -428 6 -27 30 -189 55 -360
106 -734 136 -931 142 -945 3 -8 14 -49 23 -90 l16 -75 42 3 c23 2 73 12 110
22 37 10 67 18 68 17 10 -22 334 -1432 350 -1527 13 -74 26 -149 29 -166 5
-30 4 -32 -32 -39 -137 -25 -499 -208 -965 -486 l-197 -117 -5 26 c-30 144
-295 1797 -312 1943 l-6 55 53 22 c248 97 374 153 371 164 -2 7 -19 37 -37 68
-33 52 -37 72 -90 390 -70 424 -156 954 -191 1180 -15 96 -31 179 -35 184 -5
6 -50 -2 -111 -19 -57 -16 -111 -30 -120 -32 -9 -1 -76 -24 -150 -51 l-133
-49 1 -54 c1 -124 13 -306 22 -339 6 -19 13 -82 16 -140 4 -58 18 -256 31
-440 14 -184 32 -429 40 -545 23 -317 11 -281 114 -343 79 -47 91 -51 116 -42
15 6 30 9 32 6 5 -5 184 -1679 180 -1681 -15 -7 -87 -57 -87 -60 0 -3 18 7 40
21 22 15 43 24 46 21 3 -3 23 -79 44 -169 32 -140 36 -165 24 -178 -8 -8 -258
-218 -557 -465 l-542 -451 -6 66 c-14 148 -29 1155 -40 2580 -5 833 -11 1516
-13 1517 -1 1 -36 -149 -76 -335 l-74 -337 26 -2075 c15 -1141 31 -2097 35
-2124 l8 -49 81 94 c114 132 395 404 549 533 837 699 1808 1161 2845 1351 394
72 701 99 1125 99 429 0 746 -27 1164 -99 1297 -224 2604 -791 4011 -1739 206
-139 296 -185 613 -312 1073 -431 2213 -653 3120 -606 947 49 1665 315 2300
851 183 155 460 446 547 576 8 12 35 51 60 86 49 69 49 69 100 153 78 128 111
187 173 311 91 183 176 391 243 595 36 112 40 140 24 186 -5 16 -16 70 -24
119 l-13 90 -13 -35 c-51 -134 -186 -357 -316 -520 -158 -199 -635 -632 -642
-583 -1 10 -8 106 -16 213 -14 195 -14 195 7 220 l22 25 -27 -23 -26 -24 -874
652 c-480 359 -879 658 -886 665 -11 9 12 11 112 7 l125 -5 5 34 c3 19 7 66 8
104 l3 71 -319 249 c-764 597 -973 762 -999 786 -15 15 -71 60 -124 100 l-96
74 -201 2 c-111 1 -249 5 -308 8 -60 3 -108 2 -108 -2 1 -5 14 -17 30 -28 27
-19 215 -187 706 -630 110 -99 284 -256 388 -349 l188 -168 -6 -42 c-14 -103
-16 -142 -8 -155 7 -10 59 -15 203 -22 106 -5 214 -11 239 -15 41 -6 120 -67
905 -693 473 -378 872 -695 886 -706 25 -19 26 -22 38 -225 l13 -205 -64 -58
c-152 -141 -471 -315 -848 -464 -169 -67 -490 -183 -506 -183 -2 0 -4 101 -4
224 l0 223 -1280 1204 c-704 662 -1275 1206 -1270 1207 6 2 41 -5 78 -16 104
-32 234 -63 239 -59 2 3 9 47 14 99 l10 94 -183 180 c-101 99 -280 274 -398
389 -118 115 -352 346 -520 513 l-305 303 -220 88 c-223 89 -366 154 -463 212
-29 17 -55 29 -58 26 -4 -3 48 -66 113 -139 127 -142 338 -380 624 -704 97
-109 268 -302 380 -428 l203 -229 -3 -97 c-2 -70 1 -99 11 -107 7 -6 87 -28
178 -49 l165 -38 645 -637 c355 -351 918 -911 1252 -1246 l607 -608 -7 -215
-7 -215 -61 -32 c-113 -60 -317 -102 -599 -123 -250 -18 -881 -9 -1118 16
l-59 6 6 67 c3 36 8 152 12 256 l6 191 -1160 1464 c-637 806 -1158 1466 -1157
1468 1 1 79 -18 173 -42 l171 -44 11 56 c6 32 17 82 25 112 7 30 10 57 6 60
-4 3 -90 113 -192 245 -102 132 -311 402 -464 600 -153 198 -288 376 -299 396
-20 33 -220 296 -276 361 -20 24 -61 42 -215 94 -335 114 -466 156 -471 152
-2 -3 238 -369 534 -814 l539 -809 -17 -115 c-10 -63 -16 -116 -15 -117 1 -2
95 -27 209 -57 113 -29 208 -55 210 -57 2 -2 490 -656 1086 -1454 596 -797
1086 -1454 1090 -1460 7 -9 -73 -491 -82 -500 -5 -5 -281 54 -517 110 -299 70
-585 149 -811 225 -186 62 -415 153 -424 169 -2 3 12 103 30 221 l34 215 -931
1398 c-512 769 -929 1400 -927 1403 2 2 47 -7 99 -20 149 -38 300 -69 305 -63
3 3 11 48 18 100 l12 95 -453 684 c-249 375 -453 688 -453 695 0 12 -237 364
-252 374 -5 3 -52 14 -106 24 -91 18 -95 19 -62 28 19 5 90 29 158 53 68 24
129 44 137 44 7 0 71 22 142 49 70 26 148 55 173 64 81 28 252 99 375 155 66
30 132 58 147 62 l27 8 -6 -44 c-7 -54 21 -101 82 -136 98 -55 305 -7 387 91
61 72 61 146 -2 272 l-41 81 70 73 c57 60 73 85 87 131 23 81 16 160 -20 215
-23 34 -26 46 -17 58 6 9 21 36 32 61 11 25 24 53 29 62 24 44 3 136 -48 211
l-30 42 35 40 c42 49 68 132 60 194 -10 76 -15 92 -41 126 l-25 32 25 24 c13
12 36 48 50 78 14 31 30 64 35 73 14 28 11 84 -9 136 -19 50 -19 51 16 129 8
18 12 51 10 72 -4 46 -3 46 107 56 39 4 113 13 165 20 52 8 127 17 167 20 39
3 96 10 125 15 29 6 89 13 133 16 44 2 88 7 98 10 15 5 17 -2 17 -48 0 -29 3
-69 6 -88 l6 -35 -92 4 c-110 4 -164 -13 -210 -65 -60 -69 -31 -162 65 -205
29 -13 64 -19 125 -19 99 0 151 19 194 71 l29 34 -8 188 -7 188 39 -2 c21 -1
94 5 163 14 69 9 190 23 270 32 80 8 197 22 260 29 63 8 116 13 118 11 1 -1 5
-40 9 -87 l6 -84 -100 4 c-86 4 -106 1 -151 -18 -76 -33 -112 -78 -112 -140 0
-98 93 -160 240 -160 100 0 168 26 214 81 l29 34 -7 191 -6 192 102 11 c57 7
153 21 214 31 62 11 124 20 138 20 14 0 74 11 133 25 58 14 122 27 142 29 44
4 256 56 413 102 64 19 123 34 132 34 8 0 72 21 141 46 70 25 136 47 148 50
12 2 74 26 139 54 64 27 121 50 127 50 22 0 351 169 446 229 55 35 109 67 120
71 11 5 69 48 129 97 60 48 129 104 154 123 43 33 114 110 247 267 76 90 195
312 230 430 15 48 33 105 41 125 7 20 16 66 20 102 l7 66 -31 0 c-35 0 -31 7
-52 -110 -7 -36 -15 -69 -19 -75 -5 -5 -14 -32 -21 -60 -16 -62 -69 -198 -80
-205 -4 -3 -19 -28 -33 -55 -92 -183 -304 -416 -523 -574 -85 -61 -274 -183
-315 -203 -19 -9 -61 -30 -94 -48 -88 -46 -205 -101 -224 -105 -9 -2 -62 -24
-118 -49 -57 -25 -120 -50 -140 -55 -21 -5 -87 -28 -146 -51 -60 -22 -121 -43
-137 -45 -15 -2 -78 -19 -139 -39 -61 -20 -120 -36 -131 -36 -11 0 -68 -14
-127 -30 -60 -17 -126 -33 -148 -35 -22 -2 -88 -16 -147 -30 -59 -14 -121 -25
-137 -25 -16 0 -73 -9 -127 -20 -54 -11 -116 -21 -138 -22 -23 0 -76 -6 -118
-13 l-78 -12 -4 31 c-3 17 -7 84 -9 148 l-4 117 26 5 c53 10 166 25 183 24 43
-3 485 78 668 123 69 17 136 32 150 33 14 2 71 17 128 35 56 17 121 36 145 40
195 40 759 279 987 419 58 36 119 73 137 83 18 10 93 66 168 125 275 216 485
484 571 729 15 44 31 82 35 85 10 7 49 199 49 239 0 28 -3 31 -30 31 -23 0
-31 -5 -34 -22 -2 -13 -12 -63 -20 -111 -16 -86 -100 -309 -142 -375 -188
-298 -363 -471 -694 -684 -96 -62 -414 -230 -460 -243 -14 -3 -75 -29 -137
-56 -61 -26 -129 -53 -150 -58 -21 -5 -92 -28 -158 -50 -174 -59 -346 -111
-386 -116 -19 -2 -80 -16 -134 -31 -55 -14 -122 -30 -150 -34 -27 -4 -91 -17
-140 -28 -50 -12 -113 -23 -140 -26 -28 -3 -97 -14 -155 -25 -57 -11 -108 -17
-112 -15 -4 3 -50 -3 -103 -12 -53 -9 -98 -14 -100 -12 -3 2 -8 79 -12 170
l-8 166 85 12 c47 6 110 13 140 15 30 2 102 13 160 23 58 11 115 20 128 20 26
1 214 40 401 84 74 18 142 33 152 33 26 2 256 70 379 112 58 19 132 43 165 53
33 9 103 36 155 59 52 23 104 43 115 45 37 7 359 172 457 234 54 34 100 62
104 62 11 0 149 105 244 186 264 223 463 500 536 743 14 47 32 107 40 133 8
26 14 72 14 102 0 53 -1 56 -25 56 -14 0 -25 -5 -25 -12 0 -6 -2 -9 -5 -7 -5
5 42 138 54 154 12 15 41 138 48 205 5 56 4 60 -14 60 -21 0 -21 0 -2 71 10
39 22 100 25 134 l6 62 -28 6 c-32 6 -44 -5 -44 -41 0 -40 -31 -176 -50 -217
-9 -22 -27 -66 -39 -98 -44 -120 -101 -214 -227 -372 -119 -150 -347 -349
-494 -433 -19 -11 -82 -49 -140 -86 -58 -36 -116 -69 -130 -73 -14 -3 -53 -22
-87 -41 l-63 -34 0 721 0 721 -55 0 -55 0 -2 -746 -3 -746 -35 -13 c-19 -7
-87 -33 -150 -58 -132 -52 -356 -127 -391 -131 -13 -2 -68 -17 -122 -35 -53
-17 -99 -31 -102 -31 -3 0 4 17 15 37 14 26 20 57 20 97 0 32 -36 414 -80 848
-44 434 -80 796 -80 806 0 15 15 17 148 18 157 0 212 13 302 69 100 63 178
191 199 326 17 109 21 204 7 157z m1579 -1099 c-9 -35 -20 -68 -24 -74 -4 -5
-18 -39 -31 -75 -48 -135 -106 -232 -236 -395 -118 -149 -350 -352 -494 -433
-19 -11 -80 -48 -135 -83 -55 -35 -113 -68 -130 -74 -16 -6 -53 -23 -82 -38
-29 -15 -55 -27 -58 -27 -3 0 -5 43 -5 95 l0 95 61 31 c34 17 70 32 81 34 10
2 75 38 144 79 69 42 129 76 133 76 9 0 252 180 319 236 23 20 97 95 165 168
123 133 203 248 270 388 17 37 33 65 35 63 2 -1 -4 -31 -13 -66z m-19 -300
c-4 -28 -11 -58 -16 -67 -5 -10 -19 -53 -30 -97 -23 -87 -121 -290 -178 -370
-75 -104 -227 -278 -276 -316 -28 -22 -91 -73 -141 -114 -49 -41 -101 -80
-115 -87 -14 -7 -63 -38 -110 -69 -47 -31 -107 -68 -135 -82 -94 -48 -173 -87
-176 -87 -2 0 -3 71 -1 158 l3 158 57 28 c31 15 65 30 74 31 10 2 75 38 144
79 69 42 129 76 133 76 9 0 252 180 319 236 23 20 97 95 165 168 114 123 169
201 257 360 14 25 27 46 29 46 2 0 1 -23 -3 -51z m-1286 -864 l0 -95 -27 -6
c-16 -4 -57 -20 -91 -36 -54 -24 -77 -28 -151 -28 -138 0 -247 -36 -313 -104
-25 -25 -56 -41 -130 -65 -54 -17 -112 -33 -130 -35 -18 -2 -86 -18 -152 -35
-65 -17 -128 -31 -139 -31 -11 0 -73 -11 -136 -24 -141 -30 -603 -97 -663 -96
-16 0 -18 11 -18 99 l0 98 138 17 c315 37 619 89 814 137 65 16 126 29 137 29
10 0 71 16 134 35 64 20 129 37 144 39 16 2 82 23 148 46 66 24 127 43 135 43
8 0 70 23 137 51 172 73 163 75 163 -39z m-620 -392 c0 -26 32 -70 70 -98 57
-42 138 -67 240 -74 l95 -6 -125 -43 c-69 -24 -152 -52 -185 -62 -172 -53
-303 -91 -330 -95 -16 -2 -86 -17 -155 -34 -170 -42 -355 -80 -415 -86 -27 -2
-95 -13 -150 -24 -55 -10 -109 -18 -120 -17 -11 0 -66 -5 -123 -13 -56 -8
-104 -12 -106 -10 -2 2 -7 77 -11 165 l-8 161 34 6 c19 3 79 11 134 17 244 27
581 85 767 131 65 16 128 29 140 30 13 0 70 15 128 34 127 40 120 39 120 18z
m-1430 -122 c0 -46 -1 -49 -32 -55 -17 -3 -63 -9 -102 -12 -39 -3 -125 -11
-191 -19 -191 -22 -385 -44 -450 -50 -32 -3 -69 -8 -82 -11 -22 -6 -23 -4 -23
53 l0 59 393 41 c215 22 413 41 440 42 l47 1 0 -49z m-982 -66 c-3 -93 -4
-100 -23 -98 -11 1 -76 -7 -144 -17 -68 -11 -127 -17 -131 -15 -4 2 -58 -4
-121 -15 -63 -11 -132 -20 -154 -20 -22 0 -91 -9 -154 -20 -63 -11 -117 -17
-121 -15 -4 2 -54 -4 -112 -15 -57 -10 -131 -21 -164 -23 -59 -5 -160 -20
-399 -59 -71 -12 -139 -21 -150 -21 -11 0 -63 -8 -115 -19 -52 -10 -117 -20
-145 -23 -27 -2 -95 -13 -150 -25 -55 -11 -118 -22 -140 -25 -22 -2 -83 -13
-135 -25 -52 -12 -112 -24 -132 -26 -21 -2 -92 -17 -159 -34 -67 -17 -123 -29
-126 -27 -2 3 -63 -13 -136 -34 -72 -22 -139 -39 -149 -39 -9 0 -65 -19 -124
-41 l-107 -42 -64 34 c-88 47 -93 59 -41 103 23 20 55 40 72 45 17 6 75 28
128 50 54 22 114 43 135 46 21 4 79 20 130 36 51 16 111 32 135 35 24 4 93 20
153 35 61 16 122 29 137 29 14 0 73 11 130 25 57 14 126 27 153 30 28 2 100
16 162 29 62 13 114 22 117 19 2 -2 62 7 133 20 70 14 135 25 143 25 8 -1 74
8 145 20 202 33 388 60 410 60 11 0 63 8 115 17 52 9 118 18 145 20 28 1 97
10 155 18 161 24 348 48 415 53 33 2 96 10 140 18 44 8 95 14 113 13 l33 -1
-3 -101z m986 -132 c3 -42 6 -116 6 -164 0 -84 -1 -89 -22 -94 -45 -9 -172
-24 -178 -20 -4 3 -67 -4 -140 -15 -73 -11 -136 -17 -140 -15 -4 2 -48 -2 -98
-10 -49 -8 -124 -17 -166 -20 -41 -2 -86 -7 -99 -10 -24 -6 -24 -6 -30 101 -4
59 -7 135 -7 170 l0 62 73 6 c39 4 128 13 197 21 69 8 186 21 260 30 74 8 169
18 210 23 139 17 126 23 134 -65z m-970 -195 c4 -87 4 -163 1 -168 -3 -6 -23
-9 -43 -8 -34 1 -97 -7 -402 -49 -63 -8 -135 -17 -160 -18 -25 -1 -94 -10
-155 -18 -60 -9 -162 -24 -225 -33 -63 -9 -137 -18 -165 -20 -27 -1 -99 -12
-159 -23 -59 -12 -112 -19 -116 -16 -4 2 -54 -5 -111 -16 -57 -11 -125 -22
-150 -24 -50 -4 -227 -33 -404 -67 -60 -11 -128 -22 -150 -23 -22 -2 -73 -11
-113 -20 -62 -14 -84 -15 -140 -5 -37 6 -116 18 -177 25 -152 19 -343 52 -385
66 -19 7 -60 18 -90 24 l-55 12 38 16 c21 9 54 19 75 23 20 3 78 19 127 34 50
16 108 31 130 35 22 3 92 19 155 35 63 16 135 31 160 34 25 2 84 14 131 25 47
12 108 23 135 26 27 2 91 14 143 25 52 12 115 22 140 24 25 2 96 13 156 24 61
11 175 30 255 41 228 34 395 58 520 77 63 9 133 18 156 19 22 1 92 9 155 18
240 34 352 48 412 53 34 2 98 10 142 18 44 7 98 14 121 14 l41 0 7 -160z m986
-245 c0 -65 3 -141 6 -169 l6 -51 -88 -12 c-49 -6 -120 -14 -159 -16 -38 -3
-110 -11 -160 -19 -49 -8 -93 -12 -98 -9 -4 2 -53 -3 -108 -12 -55 -8 -136
-18 -179 -21 l-78 -4 -7 165 c-4 91 -5 168 -3 170 2 3 40 7 84 9 43 3 111 10
149 16 39 6 99 13 135 15 36 3 113 12 172 20 60 9 111 14 115 12 5 -3 44 1 88
8 139 22 125 33 125 -102z m-975 -18 c2 -11 6 -86 9 -166 l6 -147 -35 -6 c-20
-4 -39 -5 -43 -2 -5 3 -60 -4 -124 -14 -64 -10 -133 -19 -154 -18 -22 0 -79
-7 -129 -16 -49 -8 -106 -16 -125 -17 -19 -1 -89 -9 -155 -19 -66 -10 -134
-18 -150 -18 -17 0 -69 -8 -115 -16 -47 -9 -112 -18 -145 -20 -33 -3 -78 -8
-100 -11 -39 -7 -157 17 -180 35 -5 4 -59 18 -120 30 -60 11 -130 27 -155 35
-25 7 -83 19 -130 25 -47 6 -107 18 -135 25 -27 8 -83 17 -123 21 -40 3 -75
10 -77 14 -3 4 39 15 93 24 53 9 150 26 215 38 64 11 136 22 160 23 23 2 81
11 129 20 48 9 109 18 135 20 27 2 91 11 143 20 52 9 119 18 148 21 29 2 93
10 141 19 47 8 100 15 116 16 17 1 84 10 150 20 66 10 129 18 140 17 11 0 79
7 150 16 72 10 186 25 254 35 168 22 201 22 206 -4z m-2915 -251 c80 -15 165
-29 190 -31 73 -8 66 -18 -22 -37 -46 -9 -135 -31 -198 -48 -153 -41 -185 -43
-283 -18 -91 24 -224 86 -238 112 -12 22 56 81 115 100 38 12 51 10 166 -19
69 -18 190 -45 270 -59z m3905 -165 c4 -77 3 -144 -1 -148 -10 -9 -156 -30
-254 -36 -36 -2 -94 -8 -130 -14 -36 -6 -83 -11 -105 -12 -22 0 -85 -7 -140
-15 -55 -8 -128 -16 -161 -18 l-62 -3 -7 144 c-4 79 -5 147 -2 149 3 3 35 8
71 10 37 2 108 10 159 18 50 8 108 15 127 15 19 -1 86 7 147 16 62 9 116 14
120 12 5 -2 42 1 83 8 41 7 91 13 111 14 l37 1 7 -141z m-3247 72 c9 -5 71
-16 137 -24 140 -18 274 -41 365 -63 36 -9 110 -25 165 -36 55 -11 103 -24
108 -27 8 -8 -162 -40 -236 -46 -23 -1 -91 -12 -152 -24 -107 -21 -113 -21
-245 -6 -74 9 -144 20 -155 25 -11 5 -58 11 -105 15 -47 3 -110 10 -140 16
-30 5 -107 16 -170 24 -135 17 -268 40 -276 47 -5 6 114 37 158 42 14 2 74 15
134 29 60 14 134 30 164 36 60 11 222 5 248 -8z m2276 -85 c7 -54 11 -244 5
-250 -3 -3 -38 -7 -79 -10 -41 -3 -122 -12 -180 -20 -58 -8 -112 -14 -120 -14
-15 1 -199 -23 -361 -46 l-86 -12 -67 72 c-57 63 -80 80 -172 124 -58 29 -104
53 -102 55 6 5 202 35 253 39 28 2 97 10 155 19 170 25 373 51 395 49 11 -1
70 7 130 17 61 10 135 18 167 18 l56 1 6 -42z m-2950 -91 c59 -8 112 -18 117
-21 5 -3 64 -12 132 -20 380 -45 417 -51 429 -63 11 -11 10 -13 -3 -8 -9 3
-66 -6 -125 -19 -60 -14 -128 -27 -152 -29 -23 -3 -86 -16 -140 -29 -53 -14
-115 -27 -137 -30 -22 -3 -89 -19 -148 -36 -60 -16 -124 -32 -143 -35 -19 -2
-38 -6 -43 -9 -11 -7 -164 30 -214 53 -23 10 -60 26 -82 35 -22 10 -50 27 -62
38 l-23 22 22 24 c26 27 82 59 148 83 25 9 87 32 139 52 89 32 97 34 135 21
23 -7 90 -20 150 -29z m1682 -45 c94 -33 255 -115 302 -155 37 -32 79 -87 55
-72 -4 3 -57 -3 -116 -14 -87 -14 -114 -16 -135 -6 -15 6 -29 15 -32 19 -3 4
-62 23 -130 43 -69 19 -134 40 -145 45 -11 6 -72 21 -135 35 -231 49 -244 55
-135 60 22 2 87 12 145 23 58 11 123 21 145 21 22 1 56 5 75 10 19 5 38 9 41
10 3 1 32 -8 65 -19z m-626 -114 c58 -9 128 -23 155 -31 28 -8 97 -24 155 -36
58 -12 110 -25 115 -29 6 -4 47 -18 93 -30 45 -12 84 -26 87 -30 3 -4 -34 -13
-83 -19 -48 -7 -145 -21 -217 -33 -71 -11 -148 -22 -170 -24 -22 -2 -87 -12
-144 -23 -57 -11 -107 -19 -111 -16 -3 2 -33 -2 -66 -10 -71 -17 -133 -18
-194 -4 -44 10 -152 24 -415 54 -71 8 -141 19 -155 24 -14 6 -55 13 -92 17
-38 3 -68 9 -68 13 0 8 130 43 169 46 14 2 71 14 126 28 55 15 121 28 145 31
25 2 96 16 158 31 62 14 116 24 120 21 4 -2 54 7 112 20 111 25 116 25 280 0z
m-1220 -226 c28 -15 433 -77 630 -96 30 -3 62 -8 70 -11 17 -6 -72 -30 -140
-37 -25 -3 -92 -16 -150 -30 -58 -14 -119 -27 -136 -29 -32 -4 -228 -54 -350
-89 -70 -20 -73 -20 -138 -3 -36 10 -66 22 -66 26 0 5 -6 9 -12 9 -24 0 -135
58 -141 73 -10 27 103 110 167 123 12 2 59 20 106 39 89 36 128 42 160 25z
m2050 -26 c68 -37 130 -90 130 -109 0 -27 -199 -195 -230 -195 -6 0 -19 4 -29
10 -17 8 -17 13 6 81 32 98 30 127 -3 69 -15 -25 -37 -61 -50 -82 l-23 -36
-93 29 c-51 16 -102 33 -113 39 -25 12 -259 66 -382 87 -51 9 -93 20 -93 23 0
7 170 39 200 38 14 -1 101 13 405 61 170 28 199 26 275 -15z m-1010 -130 c30
-3 60 -9 65 -12 6 -4 64 -16 130 -28 159 -29 386 -82 400 -94 6 -5 40 -16 76
-25 96 -24 99 -28 64 -65 -121 -128 -325 -218 -415 -184 -19 7 -87 20 -150 30
-63 9 -119 20 -125 24 -5 4 -57 13 -115 20 -58 6 -123 16 -144 22 -37 9 -120
20 -410 53 -71 8 -143 19 -160 24 -17 5 -74 15 -126 21 -145 19 -146 22 -18
58 63 18 138 36 168 41 30 5 92 19 138 30 46 12 100 23 120 25 20 2 90 15 155
30 66 15 124 25 130 23 6 -2 34 2 61 9 28 7 62 11 76 9 14 -2 50 -7 80 -11z
m1200 -105 c0 -38 -37 -116 -75 -157 l-22 -23 -56 33 c-31 18 -57 36 -57 39 0
3 37 34 81 69 45 34 89 71 97 81 20 24 32 8 32 -42z m-2320 -133 c36 -8 73
-17 82 -21 35 -14 350 -60 686 -100 68 -8 127 -17 132 -20 4 -3 61 -12 126
-20 66 -8 128 -19 139 -24 11 -5 74 -17 139 -27 117 -16 119 -17 90 -32 -40
-21 -215 -92 -227 -92 -6 0 -70 -23 -142 -51 l-133 -52 -138 17 c-77 9 -182
21 -234 26 -52 6 -117 15 -145 20 -27 6 -97 17 -155 25 -58 9 -118 20 -135 26
-16 5 -75 19 -130 30 -55 11 -118 28 -140 38 -22 10 -60 26 -84 35 -56 22
-101 53 -101 71 0 8 15 25 33 38 33 25 137 81 137 73 0 -2 30 9 68 24 37 16
67 29 67 29 0 1 29 -5 65 -13z m2159 -90 c11 -13 3 -22 -56 -65 -37 -28 -86
-60 -108 -71 -22 -10 -57 -29 -77 -41 l-37 -22 -85 23 c-47 12 -86 26 -86 30
0 3 16 14 36 23 19 10 58 39 85 65 28 26 85 65 127 88 l77 41 56 -28 c30 -15
61 -34 68 -43z m93 -107 c24 -63 22 -112 -7 -167 -45 -86 -47 -87 -92 -59 -22
14 -71 41 -111 61 -40 20 -72 38 -72 41 0 2 15 11 33 20 18 8 73 46 122 84 50
38 95 68 100 67 6 -2 18 -23 27 -47z m-710 -142 c43 -98 43 -94 6 -113 -18 -9
-68 -30 -112 -45 l-79 -27 -91 14 c-50 9 -100 19 -111 24 -11 5 -49 12 -85 16
l-65 7 85 29 c47 16 141 51 210 78 161 62 204 78 210 79 3 0 17 -28 32 -62z
m416 -55 c116 -59 182 -96 182 -101 -1 -11 -107 -91 -153 -116 -26 -13 -58
-32 -72 -41 -20 -13 -33 -15 -58 -8 -28 8 -38 21 -74 96 -23 48 -43 94 -45
103 -2 10 21 29 67 55 75 41 92 43 153 12z m-933 -138 c66 -9 128 -20 137 -25
9 -5 28 -9 42 -9 40 0 31 -15 -16 -30 -24 -7 -99 -34 -168 -60 -69 -26 -132
-47 -140 -48 -8 0 -66 -18 -127 -41 -62 -22 -123 -43 -137 -45 -13 -2 -82 -25
-154 -50 -71 -24 -132 -43 -134 -40 -3 2 -31 -5 -63 -16 -74 -26 -75 -26 -75
10 l0 30 -227 0 c-206 0 -264 4 -186 14 16 2 82 21 148 41 65 20 128 38 139
39 12 2 71 19 131 39 61 20 124 39 140 41 17 3 83 24 147 46 64 22 123 40 130
40 8 0 68 20 134 45 65 24 128 42 139 40 11 -3 74 -12 140 -21z m1187 -31 c28
-32 48 -81 48 -117 0 -30 -36 -116 -59 -139 -4 -4 -34 8 -67 28 -32 19 -80 45
-106 57 -27 12 -48 24 -47 27 0 7 200 159 210 160 3 1 13 -7 21 -16z m-775
-47 c21 -8 65 -20 98 -26 33 -6 83 -18 110 -25 45 -13 52 -19 64 -52 8 -21 14
-40 13 -42 -2 -6 -270 -131 -281 -131 -6 0 -69 -25 -139 -55 -71 -30 -135 -55
-142 -55 -8 0 -57 -18 -111 -40 -53 -22 -121 -46 -151 -54 -29 -8 -102 -33
-163 -56 -60 -23 -119 -42 -130 -43 -11 -2 -76 -21 -145 -43 -156 -51 -353
-111 -535 -163 -77 -22 -198 -56 -270 -77 -71 -20 -141 -38 -155 -40 -14 -1
-79 -18 -145 -37 -66 -20 -149 -42 -185 -51 -36 -9 -95 -25 -132 -35 l-68 -20
0 165 c0 90 1 164 3 164 1 0 49 14 107 31 58 16 125 34 150 38 44 8 138 33
400 108 69 20 134 37 145 38 11 2 74 20 140 40 66 21 130 39 142 41 13 1 71
18 130 38 60 19 122 38 138 40 17 3 83 24 147 46 64 22 123 40 130 40 8 0 69
20 136 45 68 25 133 47 146 49 29 5 245 84 376 136 107 43 124 46 177 26z
m561 -182 c48 -25 102 -56 121 -67 l35 -21 -57 -51 c-63 -57 -108 -85 -114
-70 -2 6 -27 62 -57 125 -29 63 -51 118 -49 123 9 15 37 6 121 -39z m-178
-167 c61 -135 66 -119 -54 -179 -123 -62 -331 -158 -341 -158 -6 0 -68 -25
-138 -55 -70 -30 -132 -55 -139 -55 -6 0 -69 -22 -140 -50 -70 -27 -134 -50
-141 -50 -6 0 -68 -20 -137 -44 -216 -75 -380 -129 -405 -131 -13 -2 -81 -21
-152 -43 -282 -89 -394 -122 -412 -122 -10 0 -37 -7 -60 -15 -40 -14 -57 -12
-289 25 -224 36 -312 46 -312 36 0 -2 22 -48 49 -102 l48 -99 -86 -22 c-47
-13 -98 -26 -114 -29 l-27 -7 2 168 3 168 110 33 c61 18 120 33 133 33 12 1
75 17 139 36 64 20 128 37 142 39 15 2 80 19 146 38 66 20 138 40 160 45 83
21 484 140 650 194 66 22 131 41 145 44 14 2 81 25 148 50 68 25 129 45 137
45 7 0 66 21 131 46 65 25 127 48 138 50 12 2 74 26 140 54 65 27 124 50 131
50 7 0 69 27 139 61 70 33 136 62 148 64 12 3 26 9 32 15 12 12 8 20 76 -133z
m405 -7 c37 -72 9 -178 -72 -270 l-40 -44 -41 87 c-57 122 -57 119 -19 144 18
13 57 43 86 68 29 25 57 45 62 45 4 0 15 -13 24 -30z m-2330 -42 c-33 -10 -78
-23 -100 -27 -22 -5 -98 -25 -170 -46 -315 -89 -374 -105 -391 -105 -11 0 -71
-16 -134 -35 -63 -19 -118 -35 -122 -35 -5 0 -8 44 -8 98 l0 98 123 36 122 36
370 0 370 0 -60 -20z m-1015 -167 l0 -100 -52 -15 c-29 -8 -75 -20 -103 -26
-27 -7 -109 -27 -180 -46 -72 -19 -138 -34 -148 -34 -9 0 -67 -14 -127 -30
-60 -17 -124 -32 -142 -34 -18 -1 -85 -17 -148 -33 -63 -17 -122 -31 -130 -31
-8 0 -73 -14 -145 -31 -120 -30 -190 -46 -505 -116 -82 -18 -144 -25 -215 -25
-55 0 -117 -3 -138 -7 -34 -5 -38 -9 -33 -29 5 -20 2 -24 -31 -29 -21 -4 -96
-20 -167 -36 -71 -16 -130 -28 -133 -26 -2 3 -25 -1 -51 -7 l-47 -12 -21 50
-20 51 -75 -1 c-103 0 -499 -55 -499 -68 0 -11 21 -92 34 -132 6 -19 1 -22
-56 -34 -35 -7 -75 -14 -90 -16 -15 -1 -85 -14 -155 -28 -70 -15 -173 -36
-228 -47 -55 -11 -107 -22 -116 -25 -12 -3 -19 7 -28 43 -27 107 -33 129 -43
140 -7 8 -2 12 19 11 15 0 78 12 140 26 61 14 123 26 136 26 14 0 72 11 129
25 57 13 119 26 138 28 35 4 185 34 413 84 65 14 133 27 150 29 18 1 78 14
134 28 55 14 118 27 140 29 21 2 90 15 153 30 63 14 180 40 260 57 80 17 204
44 275 60 72 16 195 43 275 60 80 18 197 45 261 61 64 16 126 29 138 29 12 0
72 14 134 31 61 17 126 33 142 34 17 2 89 18 160 36 72 17 193 47 270 66 77
19 178 45 225 58 47 12 88 23 93 24 4 0 7 -44 7 -98z m3072 -78 c36 -80 45
-110 37 -120 -6 -7 -15 -13 -19 -13 -5 0 -45 -23 -90 -51 -77 -47 -448 -229
-468 -229 -5 0 -62 -22 -125 -50 -64 -27 -127 -51 -139 -54 -13 -2 -75 -25
-138 -49 -63 -25 -126 -48 -140 -50 -14 -3 -80 -26 -148 -51 -68 -25 -130 -46
-138 -46 -9 0 -49 -12 -91 -27 l-74 -26 -96 17 c-52 9 -97 15 -100 13 -2 -3 5
-23 17 -46 19 -37 19 -41 3 -41 -9 0 -62 -14 -117 -31 -56 -17 -136 -41 -179
-54 l-77 -23 -34 61 c-19 34 -39 74 -45 89 -6 15 -22 45 -36 67 -30 49 -31 51
-3 51 12 0 83 18 157 41 75 22 197 58 271 80 74 22 196 60 270 85 74 24 142
44 150 44 8 0 69 20 135 45 66 25 127 45 134 45 8 0 72 23 142 50 70 28 132
50 138 50 6 0 65 23 132 51 66 28 129 52 139 54 11 2 76 31 146 64 70 34 132
61 138 61 6 0 49 22 96 49 47 27 90 50 95 50 6 1 31 -47 57 -106z m-3072 -256
l0 -164 -97 -25 c-54 -14 -137 -35 -184 -46 -47 -12 -93 -24 -102 -28 -11 -4
-20 2 -28 19 -6 14 -23 30 -38 36 -25 9 -441 27 -441 19 0 -2 15 -42 34 -89
19 -46 33 -85 31 -87 -4 -4 -166 -43 -200 -47 -16 -2 -86 -19 -155 -36 -82
-21 -134 -30 -150 -25 -20 5 -39 35 -90 136 -36 71 -66 134 -68 139 -2 5 41
19 95 31 54 12 152 35 218 52 66 16 134 31 150 33 17 1 84 16 150 33 66 16
183 45 260 62 184 43 400 96 505 125 47 12 91 23 98 24 9 1 12 -38 12 -162z
m0 -402 c0 -91 -2 -165 -4 -165 -2 0 -21 7 -41 16 -27 11 -62 15 -117 13 l-79
-3 -19 32 c-11 18 -18 32 -15 32 3 0 -15 33 -39 72 -25 40 -42 76 -40 79 2 4
39 15 82 24 42 10 113 28 157 40 127 36 115 50 115 -140z m-1972 -56 c53 -130
59 -151 44 -155 -9 -3 -26 -10 -37 -15 -35 -16 -390 -88 -396 -81 -19 22 -110
304 -101 314 4 4 27 9 52 11 25 2 99 16 165 31 183 42 189 43 201 45 7 0 39
-67 72 -150z m1237 -118 c32 -83 56 -154 54 -158 -4 -10 -54 -27 -138 -47 -36
-8 -126 -29 -199 -47 -74 -17 -137 -27 -142 -23 -15 17 -162 305 -158 310 3 2
32 9 64 15 32 6 88 17 124 25 36 8 83 16 105 19 22 3 76 16 120 29 44 13 87
24 96 25 12 1 32 -39 74 -148z m-2287 -78 c18 -76 35 -147 38 -159 4 -16 -1
-23 -23 -32 -50 -20 -605 -124 -613 -115 -7 7 -30 80 -84 264 l-13 46 93 22
c51 11 104 21 118 21 13 0 71 11 128 25 57 13 123 27 148 30 25 3 70 11 100
19 30 8 60 14 65 15 6 1 25 -61 43 -136z m3431 -24 c34 -73 59 -134 56 -137
-13 -13 -434 -132 -470 -132 -5 0 7 17 27 38 58 61 68 89 68 200 0 108 2 112
58 112 15 0 63 11 107 25 44 13 83 24 86 24 3 1 34 -58 68 -130z m1096 -111
c54 -95 159 -281 233 -413 74 -132 192 -341 262 -465 70 -124 164 -292 210
-374 l82 -149 -7 -98 c-8 -112 -22 -98 129 -129 55 -11 101 -21 102 -23 1 -1
388 -607 859 -1347 472 -740 865 -1356 875 -1370 17 -24 16 -30 -28 -195 -24
-93 -51 -194 -59 -223 l-14 -52 -62 34 c-34 19 -417 226 -852 461 -434 235
-793 430 -798 434 -4 4 -3 20 2 37 5 16 26 100 46 186 l37 157 62 -31 c75 -37
66 -25 -12 17 l-57 30 -577 1010 c-318 556 -578 1014 -578 1018 0 5 4 6 8 3
15 -9 375 -67 387 -62 7 2 15 33 19 68 4 34 11 79 17 99 8 34 5 44 -50 140
-32 57 -153 273 -268 479 -116 206 -265 473 -333 593 -67 120 -120 220 -118
222 1 2 35 11 73 20 39 10 120 34 180 55 61 21 115 38 121 39 6 1 56 -77 109
-171z m-3335 -37 c33 -85 57 -157 53 -160 -16 -14 -82 -31 -256 -67 -147 -31
-180 -35 -187 -24 -13 22 -122 311 -119 314 8 7 435 94 446 91 0 0 29 -69 63
-154z m1241 -112 c47 -111 53 -135 40 -137 -9 -2 -30 -10 -48 -18 -17 -8 -37
-14 -45 -14 -7 0 -87 -18 -178 -40 -155 -37 -166 -39 -178 -22 -17 23 -132
248 -132 259 0 12 446 114 475 108 6 -1 35 -62 66 -136z m1372 -502 l276 -564
-6 -106 c-7 -123 -23 -107 136 -132 52 -8 98 -18 102 -22 4 -5 237 -442 518
-973 l510 -965 -20 -160 c-11 -88 -22 -179 -25 -202 l-5 -43 -40 26 c-87 54
-565 253 -974 405 -93 34 -173 65 -177 68 -3 3 -2 83 4 176 l10 170 -466 814
c-257 447 -465 815 -464 816 2 1 94 -7 206 -18 112 -11 206 -16 210 -12 4 3 9
42 12 86 l5 79 -141 242 c-311 537 -434 751 -434 757 0 8 359 101 408 106 19
2 36 6 39 9 27 27 48 -10 316 -557z m-3734 506 c5 -21 23 -90 40 -154 17 -64
31 -121 31 -127 0 -6 -10 -14 -22 -17 -31 -11 -592 -122 -596 -119 -2 1 -27
77 -56 168 l-53 165 56 12 c253 53 532 107 558 108 29 1 33 -3 42 -36z m1211
-116 c0 -2 23 -63 50 -136 28 -73 50 -134 50 -136 0 -12 -434 -114 -444 -104
-2 2 -29 67 -59 144 -47 121 -52 141 -38 146 48 19 441 95 441 86z m1271 -183
c20 -54 91 -231 158 -392 l121 -293 -3 -79 c-1 -43 2 -82 6 -86 4 -5 60 -13
123 -20 72 -7 121 -17 129 -25 7 -8 190 -359 408 -781 l395 -767 -9 -168 c-4
-92 -8 -175 -9 -184 0 -15 -6 -15 -62 3 -92 28 -506 109 -882 173 -181 30
-330 56 -332 58 -1 1 5 83 13 183 l14 181 -335 665 c-185 365 -336 668 -336
671 0 4 98 8 218 9 l217 3 9 86 8 86 -175 339 -175 339 136 33 c183 45 305 71
316 68 5 -1 26 -47 47 -102z m-2359 -195 c34 -132 35 -140 18 -149 -31 -16
-572 -122 -581 -113 -11 12 -94 282 -88 288 9 8 583 121 599 117 11 -2 27 -46
52 -143z m1317 -221 c98 -251 103 -265 101 -333 -1 -38 -2 -76 -1 -82 1 -9 20
-13 60 -13 32 0 85 -3 119 -6 l60 -7 290 -656 290 -656 -14 -179 c-7 -98 -14
-180 -16 -181 -2 -1 -37 2 -78 7 -78 10 -1028 3 -1172 -8 l-78 -7 0 177 c0
100 -4 184 -10 194 -12 21 -421 1235 -417 1239 2 1 110 17 241 35 l237 33 -6
75 c-3 41 -8 93 -10 115 -2 23 -34 117 -70 210 -81 205 -82 216 -35 226 318
71 333 74 386 78 18 1 33 -31 123 -261z m-1241 -68 c42 -159 63 -255 63 -285
-1 -16 5 -64 12 -105 l13 -75 44 -1 c25 -1 69 2 97 6 43 5 54 4 58 -9 2 -9 81
-295 175 -635 l170 -620 0 -183 c0 -101 -2 -183 -5 -183 -19 0 -374 -55 -490
-76 -261 -48 -477 -105 -567 -150 l-48 -24 -4 22 c-54 255 -106 451 -271 1007
-108 365 -193 667 -188 671 4 4 105 33 223 65 118 31 217 59 218 60 11 10 -29
182 -73 323 -29 89 -52 162 -51 163 14 5 567 115 581 114 17 0 24 -15 43 -85z"/>
<path d="M3480 8691 c-469 -95 -490 -102 -490 -165 0 -33 54 -656 65 -753 l6
-53 -72 0 c-95 0 -145 -16 -191 -62 -35 -35 -38 -43 -38 -93 0 -50 3 -58 38
-93 44 -44 96 -62 182 -62 87 0 138 18 184 64 l39 39 -6 71 c-47 554 -67 805
-67 831 l0 32 358 70 c196 39 359 69 361 67 3 -2 28 -170 57 -372 29 -202 55
-382 58 -399 5 -33 4 -33 -35 -33 -86 0 -149 -47 -149 -110 0 -72 63 -110 183
-110 86 0 156 29 171 72 6 17 -14 164 -73 519 -45 272 -87 524 -93 562 -11 63
-13 67 -37 66 -14 0 -217 -40 -451 -88z"/>
</g>
</svg>
