<?xml version="1.0" standalone="no"?>
<!DOCTYPE svg PUBLIC "-//W3C//DTD SVG 20010904//EN"
 "http://www.w3.org/TR/2001/REC-SVG-20010904/DTD/svg10.dtd">
<svg version="1.0" xmlns="http://www.w3.org/2000/svg"
 width="2000.000000pt" height="2000.000000pt" viewBox="0 0 2000.000000 2000.000000"
 preserveAspectRatio="xMidYMid meet">
<metadata>
Created by potrace 1.16, written by Peter Selinger 2001-2019
</metadata>
<g transform="translate(0.000000,2000.000000) scale(0.100000,-0.100000)"
fill="#ffffff" stroke="none">
<path d="M12029 18490 c-118 -30 -252 -110 -325 -195 -45 -52 -47 -53 -112
-60 -341 -34 -777 -129 -1122 -244 -96 -32 -274 -91 -395 -131 -121 -39 -250
-88 -286 -107 -153 -80 -256 -197 -392 -445 -164 -301 -259 -534 -330 -809
-18 -70 -33 -102 -63 -140 -90 -114 -163 -271 -183 -395 -8 -52 -13 -60 -75
-116 -123 -111 -202 -247 -232 -401 l-17 -85 -130 -52 c-71 -28 -209 -89 -306
-135 -97 -46 -261 -113 -366 -150 -322 -115 -434 -176 -698 -383 -240 -188
-655 -567 -830 -760 -400 -438 -694 -951 -813 -1417 -43 -168 -55 -253 -61
-425 -11 -339 60 -575 228 -754 32 -35 83 -80 113 -101 46 -31 59 -48 86 -108
18 -40 43 -94 55 -122 13 -27 40 -92 60 -143 84 -208 201 -331 334 -349 52 -7
58 6 67 146 l7 113 36 -68 c66 -126 196 -239 281 -246 28 -2 36 2 46 22 13 26
34 223 34 323 0 60 13 76 25 30 12 -49 86 -216 128 -288 49 -86 165 -203 230
-234 29 -14 69 -24 100 -25 l52 -1 -1 35 c0 19 -15 89 -32 156 -41 156 -62
295 -62 417 0 94 1 97 23 97 16 0 32 -17 62 -63 126 -195 278 -367 362 -408
55 -27 119 -29 154 -5 53 34 64 82 64 286 0 102 -3 213 -7 248 -9 70 1 81 21
25 28 -78 132 -286 176 -352 77 -117 212 -227 268 -219 17 2 27 17 43 63 38
107 54 235 55 443 l0 192 29 0 c26 0 30 -5 51 -67 26 -79 89 -209 132 -273 17
-25 60 -76 96 -114 l66 -69 -38 7 c-48 9 -216 9 -263 0 -19 -4 -38 -13 -41
-22 -9 -22 30 -133 84 -244 27 -53 44 -94 38 -90 -5 3 -26 18 -45 33 -52 40
-164 99 -188 99 -28 0 -48 -40 -61 -120 -14 -85 4 -205 45 -305 6 -14 -5 -9
-36 18 -96 82 -290 154 -306 113 -18 -46 39 -256 111 -413 19 -40 32 -73 29
-73 -2 0 -74 43 -160 95 -85 52 -162 95 -169 95 -33 0 -35 -35 -6 -146 35
-132 112 -371 152 -468 16 -39 29 -72 29 -74 0 -2 -61 53 -136 122 -231 212
-251 218 -247 80 3 -84 32 -263 62 -381 l19 -73 -51 45 c-57 49 -68 53 -88 28
-21 -24 -17 -228 6 -323 22 -90 22 -87 2 -227 -24 -167 -31 -361 -18 -493 35
-350 166 -588 411 -746 41 -26 77 -51 78 -56 2 -4 15 -8 28 -8 13 0 24 -5 24
-11 0 -6 -55 -91 -122 -188 -154 -221 -487 -693 -499 -705 -16 -17 -62 17
-207 157 -161 154 -223 191 -400 241 -211 60 -263 98 -382 280 -192 291 -320
687 -307 949 8 142 33 207 220 574 92 179 123 266 138 382 43 326 -219 691
-593 831 -106 39 -189 53 -327 54 l-133 1 -33 65 c-53 106 -124 294 -160 424
-49 181 -67 308 -69 491 l-1 160 -26 3 c-23 3 -29 11 -43 60 -43 154 -45 354
-6 607 25 165 25 182 0 195 -30 16 -148 -13 -233 -57 -223 -117 -359 -384
-344 -675 5 -99 4 -108 -12 -108 -10 0 -25 -8 -34 -18 -14 -16 -17 -52 -20
-238 -4 -231 4 -364 31 -530 l17 -100 -73 23 c-244 77 -434 3 -535 -209 -18
-37 -35 -67 -39 -67 -17 -2 -110 147 -124 198 -8 31 -19 64 -24 73 -16 28 -59
208 -74 308 -17 111 -23 181 -36 424 -6 112 -14 184 -22 193 -43 52 -284 -79
-384 -209 -61 -80 -90 -133 -125 -238 -30 -87 -33 -108 -36 -245 -3 -106 0
-172 10 -225 13 -64 13 -77 1 -91 -18 -20 -18 -63 2 -251 43 -431 121 -738
247 -982 46 -87 64 -110 150 -190 55 -52 106 -109 117 -132 13 -26 24 -79 30
-150 24 -245 35 -284 118 -408 110 -167 308 -333 524 -442 159 -80 342 -138
473 -149 114 -10 118 -12 111 -43 -16 -68 -36 -212 -36 -261 0 -93 30 -262 64
-363 56 -164 134 -271 235 -323 29 -14 108 -39 178 -56 220 -52 235 -69 232
-251 -2 -138 9 -179 70 -255 52 -66 116 -103 174 -103 110 0 367 -128 682
-341 110 -74 182 -107 260 -117 l52 -7 -72 -160 c-118 -260 -228 -581 -250
-727 l-7 -48 54 0 c30 0 58 4 64 9 9 9 316 30 854 56 343 17 411 22 1085 70
938 67 1329 81 1805 64 173 -6 321 -14 330 -19 8 -4 36 -11 63 -15 l47 -7 21
46 c53 121 89 333 92 549 1 84 5 126 12 123 5 -3 53 -18 105 -35 121 -38 225
-57 394 -72 158 -14 137 16 160 -234 33 -347 49 -432 94 -478 22 -23 33 -28
59 -24 31 5 32 5 21 -21 -19 -47 -22 -354 -4 -467 46 -299 181 -562 355 -689
106 -78 286 -140 333 -115 38 21 41 46 49 394 5 187 12 356 16 375 6 26 14 36
31 38 13 1 52 22 86 47 101 72 168 98 261 103 71 3 95 -1 215 -37 172 -53 250
-65 375 -58 91 4 123 12 216 51 12 5 18 0 23 -18 8 -32 39 -41 120 -32 339 34
647 284 840 680 54 111 203 477 245 604 113 338 93 596 -66 863 -89 150 -250
351 -344 429 -30 25 -54 51 -52 57 8 22 -135 93 -147 73 -3 -5 -12 -5 -19 -1
-7 5 -11 13 -7 19 3 5 15 70 26 143 27 184 13 281 -67 444 -51 107 -92 154
-216 258 -138 115 -154 142 -168 284 -20 198 -28 234 -79 341 -157 329 -303
426 -548 364 -92 -24 -238 -88 -285 -127 -18 -15 -72 -54 -122 -88 -60 -41
-152 -123 -273 -245 l-184 -182 63 117 c132 249 285 508 482 813 55 85 102
157 103 159 2 2 31 -22 66 -54 363 -329 854 -373 1354 -122 363 182 673 477
909 862 36 61 89 142 117 180 177 248 298 646 328 1079 24 338 -27 641 -149
891 -76 155 -178 277 -294 350 -11 7 -21 52 -36 172 -12 89 -32 221 -46 294
-13 74 -23 135 -21 136 2 2 48 -4 102 -14 79 -13 160 -17 394 -17 352 0 784
10 1005 25 88 6 232 12 320 14 618 15 797 58 986 234 85 79 86 79 99 149 25
134 -8 227 -124 350 -130 137 -295 246 -641 424 -288 149 -373 187 -538 244
-350 120 -700 175 -1336 210 l-124 7 6 100 c8 125 27 167 112 242 65 57 266
296 366 434 75 106 133 219 165 326 23 77 26 108 27 220 0 148 -13 217 -74
400 -47 143 -186 428 -300 615 -45 74 -128 214 -184 311 -292 504 -511 810
-756 1060 -106 107 -216 209 -226 209 -11 0 -123 92 -123 101 0 5 -3 8 -7 7
-5 -2 -48 18 -98 44 -49 25 -110 52 -134 59 -26 8 -46 21 -51 33 -8 18 -9 19
-9 3 -1 -13 -6 -17 -19 -12 -49 15 -184 36 -273 42 -81 5 -99 9 -100 22 0 10
-2 12 -6 4 -5 -14 -60 -16 -165 -7 -50 5 -68 11 -71 23 -3 11 -5 10 -6 -5 -1
-20 -8 -21 -143 -27 -102 -4 -147 -2 -157 6 -12 9 -13 9 -7 0 4 -8 2 -13 -6
-13 -7 0 -58 -7 -113 -14 -55 -8 -129 -14 -165 -15 -36 0 -87 -3 -115 -7 -49
-5 -50 -5 -69 31 -27 50 -88 102 -155 133 -47 22 -73 27 -156 29 -55 1 -116
-2 -136 -7z m1656 -254 c17 -4 55 -11 85 -17 370 -70 649 -322 1115 -1009 39
-58 100 -145 134 -195 90 -131 280 -417 339 -512 59 -94 241 -455 302 -597
167 -390 104 -713 -206 -1056 -166 -185 -195 -218 -234 -270 -49 -65 -104
-169 -119 -228 -7 -23 -12 -78 -12 -122 l0 -80 -49 0 c-193 0 -739 75 -1600
220 -135 22 -261 43 -280 46 -19 3 -69 11 -110 19 -64 12 -150 27 -285 51
-266 47 -376 69 -510 104 -88 23 -182 48 -210 55 -27 7 -77 21 -110 30 -33 9
-75 21 -92 26 -18 5 -48 13 -65 18 -18 5 -81 24 -139 41 l-106 32 -21 62
c-116 332 -79 764 123 1431 69 229 88 291 137 435 27 80 53 156 57 170 32 98
202 452 298 619 132 229 190 317 355 537 54 72 98 136 98 142 0 15 56 22 334
43 237 17 700 20 771 5z m-3956 -2322 c70 -20 132 -82 156 -154 21 -62 17
-182 -9 -266 l-16 -50 -82 27 c-134 45 -278 70 -414 72 l-123 2 6 25 c60 251
276 406 482 344z m-499 -615 c226 -20 309 -37 505 -104 221 -74 945 -294 1285
-390 129 -37 296 -87 370 -111 l136 -44 89 -86 c103 -98 265 -210 410 -282
183 -92 1059 -484 1265 -567 152 -60 488 -175 514 -175 28 0 145 -264 214
-480 37 -117 82 -315 82 -361 0 -34 -1 -34 -78 -57 -232 -71 -505 -261 -724
-505 -76 -85 -199 -241 -249 -317 l-16 -24 -38 43 c-119 132 -304 223 -445
220 -91 -2 -115 -10 -115 -39 0 -25 1 -25 90 -26 107 -1 159 -14 240 -60 104
-59 103 -57 63 -103 -52 -61 -83 -125 -154 -314 -36 -95 -79 -196 -97 -226
-85 -142 -271 -250 -516 -298 -61 -12 -135 -17 -256 -16 -183 0 -313 15 -576
63 -90 17 -247 46 -349 65 -324 60 -701 111 -1000 135 -69 6 -372 17 -675 25
-842 23 -963 13 -1590 -129 -404 -91 -598 -115 -925 -116 -545 0 -906 114
-1107 351 -101 120 -155 264 -174 466 -51 556 264 1290 824 1921 162 182 586
575 832 771 258 206 366 267 690 386 99 36 281 115 405 175 323 155 434 192
650 213 81 8 313 6 420 -4z m4845 -1822 c17 -3 46 -8 65 -11 19 -3 49 -8 65
-11 47 -8 210 -24 318 -31 53 -3 97 -10 97 -15 0 -4 12 -34 26 -66 25 -55 33
-74 53 -125 5 -13 13 -34 18 -48 20 -50 105 -306 109 -329 3 -14 7 -28 10 -33
4 -6 67 -253 80 -313 5 -24 54 -281 60 -310 2 -11 6 -33 8 -50 6 -33 6 -27 45
-323 16 -117 34 -219 41 -227 18 -22 37 -18 56 10 13 20 15 38 9 96 -7 68 -7
71 12 60 11 -5 28 -23 38 -38 10 -15 27 -37 37 -48 20 -21 128 -199 128 -210
0 -4 6 -21 14 -38 12 -27 54 -150 63 -182 14 -57 35 -159 39 -195 3 -25 10
-72 14 -105 5 -33 7 -145 5 -250 -4 -170 -7 -224 -19 -290 -22 -122 -30 -161
-46 -225 -68 -277 -193 -511 -369 -689 -104 -106 -167 -153 -292 -218 -172
-89 -315 -124 -484 -118 -141 4 -230 26 -346 86 -100 51 -209 143 -272 229
-69 95 -148 295 -172 435 -23 134 -34 475 -20 585 7 49 14 91 20 120 3 14 10
43 14 65 16 70 41 157 56 192 8 18 22 50 31 71 21 48 115 236 143 285 94 167
256 415 283 435 10 8 18 19 16 25 -1 7 22 59 50 116 59 118 111 266 138 391
19 92 26 403 11 510 -12 86 -33 199 -43 235 -2 6 -10 35 -18 65 -14 57 -60
200 -75 235 -5 11 -15 36 -22 55 -18 50 -57 140 -74 173 -22 41 -19 46 18 37
17 -5 46 -11 62 -13z m41 -932 c10 -38 -4 -252 -22 -333 -3 -15 -7 -36 -9 -47
-7 -34 -13 -60 -15 -62 -2 -2 -3 -6 -4 -10 -3 -12 -27 -86 -33 -103 -4 -8 -7
-18 -7 -21 -1 -3 -9 -21 -18 -40 -9 -19 -22 -49 -28 -66 -7 -18 -16 -33 -20
-33 -4 0 -14 -15 -21 -32 -7 -18 -19 -39 -26 -46 -7 -7 -13 -20 -13 -28 0 -8
-4 -14 -10 -14 -5 0 -10 -7 -10 -15 0 -8 -4 -15 -10 -15 -5 0 -10 -7 -10 -15
0 -8 -4 -15 -8 -15 -5 0 -17 -18 -28 -40 -10 -22 -22 -40 -26 -40 -5 0 -8 -7
-8 -15 0 -8 -4 -15 -9 -15 -5 0 -11 -8 -15 -17 -5 -18 -26 -53 -36 -63 -10
-10 -31 -45 -36 -62 -4 -10 -10 -18 -14 -18 -5 0 -12 -10 -16 -22 -4 -13 -10
-25 -14 -28 -8 -6 -30 -46 -60 -110 -12 -24 -25 -47 -29 -50 -11 -7 -63 -110
-56 -110 4 0 -2 -17 -13 -37 -23 -45 -53 -115 -56 -133 -1 -3 -4 -9 -7 -15 -8
-12 -28 -73 -34 -104 -3 -11 -7 -30 -10 -41 -3 -11 -7 -29 -10 -40 -33 -131
-39 -200 -39 -425 -1 -242 9 -332 50 -497 3 -13 7 -30 9 -38 2 -8 4 -16 5 -17
2 -2 4 -7 5 -13 1 -5 4 -12 5 -15 1 -3 3 -8 5 -12 5 -21 19 -51 36 -84 10 -20
19 -44 19 -53 0 -9 4 -16 9 -16 5 0 15 -16 21 -35 6 -19 16 -35 21 -35 5 0 9
-5 9 -11 0 -6 6 -16 13 -24 6 -7 21 -25 32 -40 11 -16 47 -55 80 -87 85 -83
90 -88 103 -88 7 0 12 -4 12 -10 0 -5 6 -10 14 -10 8 0 16 -3 18 -7 4 -10 143
-78 181 -88 4 -2 8 -3 10 -5 1 -1 9 -3 17 -5 8 -2 26 -7 40 -10 63 -16 94 -19
220 -18 123 0 163 3 228 18 12 3 30 7 41 9 31 7 114 36 146 50 17 8 49 22 73
32 23 9 42 21 42 25 0 4 10 11 23 15 19 6 90 50 122 76 6 5 23 19 40 33 30 25
48 27 24 2 -8 -8 -21 -24 -29 -37 -8 -12 -24 -32 -35 -44 -11 -13 -36 -42 -55
-66 -68 -84 -243 -253 -329 -317 -13 -10 -32 -26 -42 -35 -11 -10 -23 -18 -29
-18 -5 0 -10 -3 -10 -7 0 -5 -27 -24 -60 -43 -33 -19 -60 -38 -60 -42 0 -5 -6
-8 -14 -8 -8 0 -21 -6 -28 -12 -12 -12 -184 -99 -233 -118 -38 -15 -146 -51
-165 -56 -11 -2 -30 -7 -42 -10 -124 -32 -370 -37 -475 -10 -25 6 -59 15 -83
21 -8 2 -16 4 -17 4 -2 1 -6 1 -10 2 -5 0 -14 5 -20 11 -7 6 -13 7 -13 3 0 -4
-12 0 -26 10 -14 9 -34 18 -45 20 -11 2 -31 13 -46 24 -14 12 -30 21 -34 21
-9 0 -68 40 -122 83 -64 50 -198 190 -237 247 -8 13 -21 28 -27 36 -7 7 -13
17 -13 23 0 6 -3 11 -8 11 -8 0 -10 3 -61 107 -43 87 -83 194 -80 213 0 3 -4
17 -10 33 -6 15 -13 40 -16 55 -5 25 -9 43 -20 112 -25 148 -25 455 0 650 5
38 16 113 21 135 2 11 6 34 9 50 6 34 9 49 18 85 4 14 9 36 11 50 5 23 8 39
21 90 3 11 7 29 9 40 3 11 7 24 10 28 3 5 7 19 10 33 2 13 11 43 20 67 8 23
13 42 10 42 -3 0 -2 6 3 13 4 6 8 15 9 20 1 4 3 9 4 12 1 3 4 10 5 15 1 6 4
12 5 15 1 3 4 10 5 15 1 6 4 12 5 15 1 3 3 8 5 13 1 4 5 15 8 25 4 9 10 25 14
35 3 9 7 19 8 22 14 40 36 91 52 122 7 15 13 29 11 31 -3 4 2 16 97 207 37 74
78 153 91 175 13 22 29 51 36 65 7 14 15 27 18 30 10 10 31 45 36 63 4 9 10
17 15 17 5 0 9 7 9 15 0 8 5 15 10 15 6 0 10 7 10 15 0 8 5 15 10 15 6 0 10 7
10 15 0 8 4 15 8 15 4 0 16 15 27 33 10 17 24 37 29 43 6 6 18 22 26 34 8 13
24 33 35 45 11 13 36 42 55 66 44 54 235 244 285 284 44 36 76 61 92 75 7 5
17 10 23 10 5 0 10 3 10 8 0 4 14 13 30 20 17 8 36 19 43 25 17 16 194 102
230 112 4 2 8 3 10 4 1 2 13 5 26 7 14 2 27 7 30 9 11 11 21 3 27 -20z m-9206
-967 c0 -7 -9 -60 -20 -118 -27 -139 -37 -402 -20 -507 7 -43 22 -106 35 -140
l22 -62 -49 -21 c-107 -46 -251 -43 -340 8 -52 29 -52 30 -66 98 -19 98 -10
270 18 354 63 185 174 317 317 376 64 26 103 31 103 12z m7805 -374 c-138
-304 -250 -711 -290 -1059 -26 -222 -15 -616 20 -726 7 -22 -158 -154 -450
-362 -386 -275 -443 -329 -842 -813 -396 -481 -568 -654 -804 -807 -189 -123
-355 -183 -753 -272 -530 -118 -1022 -147 -1356 -79 -480 99 -714 356 -761
837 -14 147 2 474 23 461 22 -14 62 -117 99 -257 46 -171 67 -227 117 -307
129 -205 339 -337 616 -386 108 -20 351 -22 476 -5 386 53 789 194 1170 409
441 249 796 573 1059 966 192 287 290 492 466 981 106 294 174 459 236 575
136 253 319 445 519 545 30 15 62 34 70 42 8 7 64 43 124 78 125 75 197 133
252 205 21 27 39 50 41 50 1 0 -13 -34 -32 -76z m-3949 -61 c-2 -10 -7 -74
-11 -142 -4 -69 -9 -136 -11 -150 -8 -47 -34 -130 -43 -135 -11 -7 -89 85
-134 159 -40 65 -127 252 -127 273 0 9 40 12 166 12 153 0 165 -1 160 -17z
m188 7 l31 0 -6 -92 c-7 -102 -24 -150 -84 -238 -52 -76 -71 -118 -80 -167 -7
-46 -7 -46 -53 -37 l-31 6 25 50 c36 71 53 162 60 323 3 77 8 146 10 154 3 10
16 12 51 7 25 -3 60 -6 77 -6z m-704 -137 c0 -151 -12 -280 -36 -388 -22 -104
-24 -105 -79 -60 -71 58 -147 168 -214 311 -34 71 -70 145 -80 166 l-18 36 36
8 c20 4 41 8 46 9 6 2 66 12 135 23 110 19 150 25 198 31 9 1 12 -32 12 -136z
m1199 121 c18 -4 22 -9 16 -27 -3 -12 -21 -78 -40 -147 -36 -135 -72 -240 -83
-240 -19 0 -116 177 -170 310 -52 128 -64 115 106 112 81 -1 158 -5 171 -8z
m-265 -329 c52 -95 124 -184 154 -192 20 -5 30 0 48 22 33 42 74 152 109 293
l32 127 28 -85 c73 -220 162 -405 212 -437 20 -13 25 -12 62 22 93 85 149 214
215 506 5 22 10 25 36 21 21 -3 30 -10 30 -23 0 -34 90 -274 143 -380 l52
-106 -25 -11 c-39 -18 -126 -105 -166 -168 -55 -87 -90 -196 -129 -403 -39
-210 -63 -291 -106 -368 -46 -81 -168 -187 -325 -282 -165 -100 -241 -156
-287 -214 -75 -92 -117 -214 -117 -343 0 -78 13 -101 49 -89 23 7 24 11 40
135 15 117 62 211 139 280 31 28 121 92 199 141 233 147 308 216 373 340 48
93 72 180 104 379 46 286 87 383 211 496 l70 65 20 -28 c11 -15 38 -48 61 -72
33 -36 45 -43 65 -37 48 12 222 334 257 474 l19 74 6 -74 c16 -193 121 -425
258 -572 71 -77 88 -73 135 30 65 141 103 279 139 518 6 36 8 38 37 32 16 -3
98 -13 181 -22 148 -16 366 -15 475 2 l42 7 -102 -104 c-185 -187 -329 -444
-469 -835 -18 -49 -33 -90 -34 -92 -1 -1 -30 10 -64 24 -69 30 -68 27 -36 113
19 52 12 83 -18 79 -20 -3 -39 -37 -61 -111 -5 -16 -10 -15 -52 14 -26 17
-105 79 -177 136 -156 125 -162 128 -192 115 -30 -14 -40 -84 -32 -231 6 -128
34 -219 92 -307 l42 -62 -61 29 c-69 33 -113 36 -161 13 -103 -48 -82 -225 55
-454 21 -36 37 -67 35 -69 -2 -1 -19 8 -37 22 -18 14 -64 40 -101 57 -83 39
-162 43 -224 11 -153 -78 -132 -287 61 -594 l56 -88 -53 47 c-72 65 -182 142
-245 171 -92 43 -191 27 -232 -39 -29 -45 -24 -150 11 -233 l25 -60 -100 100
c-105 105 -183 155 -240 155 -16 0 -48 -9 -71 -20 -128 -62 -111 -254 44 -515
l59 -100 -31 -14 c-18 -7 -48 -16 -68 -18 l-35 -5 -111 148 c-164 219 -222
269 -283 244 -50 -21 -63 -68 -68 -246 l-4 -162 -58 68 c-60 69 -156 147 -223
182 -36 18 -40 18 -64 3 -25 -17 -25 -17 -20 -134 3 -71 13 -145 25 -190 l20
-73 -66 6 c-37 4 -90 12 -119 18 -47 10 -53 15 -78 60 -41 75 -128 187 -169
215 -19 14 -50 26 -67 27 -30 1 -35 6 -59 61 -94 209 -77 405 53 594 47 69
161 184 292 296 301 257 334 331 370 831 9 121 22 258 30 305 29 174 90 316
171 399 35 37 45 77 20 86 -24 9 -52 -12 -102 -78 -101 -134 -152 -297 -179
-571 -8 -89 -20 -211 -26 -272 -21 -222 -65 -360 -145 -453 -20 -24 -96 -92
-168 -150 -257 -208 -382 -354 -442 -519 -26 -70 -29 -91 -29 -198 0 -139 21
-219 86 -330 37 -63 38 -67 32 -136 l-6 -70 -44 89 c-25 49 -68 118 -96 153
l-52 64 1 241 c1 272 6 298 76 406 75 116 96 172 119 323 11 77 27 150 35 163
8 12 45 36 82 52 36 17 76 40 88 51 37 35 63 112 74 214 6 54 17 106 26 119
22 35 81 59 144 60 64 1 72 15 45 77 -48 105 21 352 139 504 29 37 31 44 31
130 0 89 0 91 47 172 69 119 89 176 96 271 l5 83 51 -128 c29 -71 69 -160 90
-198z m611 310 c22 -2 74 -7 116 -11 l76 -7 -8 -31 c-4 -17 -15 -56 -23 -86
-23 -88 -63 -196 -91 -248 -29 -54 -71 -109 -77 -102 -31 39 -188 452 -188
493 0 7 87 3 195 -8z m-3893 -71 c31 -13 101 -35 154 -49 54 -14 100 -27 102
-29 7 -8 7 -414 0 -421 -11 -11 -67 15 -106 49 -72 63 -122 157 -219 411 -8
22 -19 48 -25 58 -8 16 -6 18 14 12 13 -4 49 -18 80 -31z m4381 16 c40 -6 83
-12 97 -14 98 -13 306 -50 313 -56 8 -7 -13 -101 -35 -160 -33 -85 -172 -330
-188 -330 -36 0 -182 289 -242 479 -11 35 -22 70 -25 77 -6 17 -10 17 80 4z
m-2609 -204 c12 -301 -12 -371 -112 -320 -44 23 -157 135 -215 213 -42 57
-137 199 -137 205 0 2 24 7 53 11 28 5 54 9 57 10 3 0 28 5 55 10 28 4 55 9
60 11 6 1 26 5 45 9 19 3 62 12 95 20 101 22 91 39 99 -169z m3286 90 c19 -3
58 -10 85 -15 50 -11 78 -16 148 -27 35 -6 38 -9 33 -33 -3 -14 -8 -42 -11
-61 -10 -69 -13 -86 -30 -160 -17 -77 -47 -170 -71 -227 -8 -17 -14 -35 -14
-40 0 -5 -5 -14 -11 -20 -15 -15 -24 -6 -84 83 -99 148 -165 334 -165 468 l0
53 43 -7 c23 -5 58 -11 77 -14z m-4515 -11 c142 -8 148 -10 141 -43 -14 -69
-19 -116 -31 -285 -4 -53 -11 -100 -16 -103 -28 -17 -140 89 -189 178 -32 61
-100 233 -100 257 0 10 11 12 48 7 26 -3 92 -8 147 -11z m571 -103 c2 -129 15
-224 56 -395 17 -70 28 -130 26 -133 -8 -7 -86 37 -128 74 -32 27 -130 153
-130 167 0 2 -19 44 -43 93 -24 48 -46 97 -49 107 -3 11 -19 56 -36 101 l-30
80 26 -3 c22 -3 286 11 302 16 3 0 6 -47 6 -107z m-3632 -179 c15 -344 40
-529 92 -686 l26 -79 -53 -54 c-76 -77 -172 -124 -253 -124 -44 0 -70 6 -96
21 -45 27 -44 26 -82 139 -32 93 -32 99 -32 270 0 162 2 181 26 252 37 110 93
204 162 273 55 54 163 124 192 125 8 0 14 -44 18 -137z m1606 10 c0 -63 25
-257 46 -361 38 -189 118 -422 205 -594 34 -68 34 -68 12 -68 -27 0 -172 -62
-221 -94 -33 -21 -59 -28 -107 -31 -34 -2 -94 -14 -133 -27 l-71 -24 -45 80
c-83 150 -141 316 -177 511 -19 102 -48 579 -36 591 3 4 30 -4 59 -16 109 -47
274 -37 403 25 62 29 65 29 65 8z m3615 -83 c55 -6 125 -15 157 -21 l56 -11
-35 -46 c-67 -88 -136 -247 -149 -341 -3 -25 -7 -47 -9 -49 -5 -5 -191 358
-210 411 -13 34 -15 51 -7 55 18 12 93 12 197 2z m-306 -286 c75 -44 175 -129
227 -193 41 -52 53 -60 77 -58 22 3 27 0 27 -19 0 -13 4 -34 10 -48 8 -23 7
-26 -13 -26 -36 -1 -101 -35 -130 -69 -31 -37 -43 -78 -52 -181 -8 -95 -34
-142 -89 -168 -140 -66 -141 -66 -163 -112 -12 -25 -25 -69 -28 -99 -4 -30 -8
-61 -10 -70 -1 -9 -6 -37 -9 -63 -9 -65 -31 -122 -75 -198 -87 -148 -111 -229
-111 -383 l0 -82 -32 40 c-18 22 -59 68 -92 103 -67 70 -97 79 -114 35 -47
-122 -63 -245 -51 -403 4 -52 6 -96 4 -98 -1 -1 -12 28 -24 66 -23 73 -73 163
-119 217 -23 25 -33 54 -50 136 -24 119 -25 124 -23 199 l2 55 45 -50 c24 -27
66 -83 92 -122 47 -73 76 -91 89 -56 4 9 -5 38 -19 67 -14 28 -36 96 -48 151
-31 144 -69 342 -76 399 l-6 49 28 -22 c16 -12 58 -50 94 -83 81 -76 176 -164
217 -201 22 -20 37 -27 51 -23 40 13 34 48 -33 225 -36 94 -74 204 -86 244
-50 178 -60 213 -66 231 -3 11 -2 17 3 14 5 -3 63 -38 129 -78 66 -40 138 -85
160 -101 52 -37 88 -45 105 -24 11 13 1 40 -68 183 -89 186 -94 199 -121 295
-24 87 -16 91 86 43 61 -29 95 -55 159 -120 86 -87 115 -104 139 -80 13 13 12
21 -6 66 -11 28 -24 58 -29 67 -21 39 -53 151 -60 211 -8 61 -3 160 8 160 3 0
26 -12 51 -26z m2811 -401 c88 -64 223 -133 258 -133 32 0 34 -13 11 -71 -67
-169 -82 -205 -89 -212 -19 -20 -201 87 -278 164 -25 24 -60 77 -83 125 -38
78 -41 91 -46 196 l-6 112 74 -60 c41 -33 112 -88 159 -121z m-6855 -7 c28 -8
77 -24 111 -37 59 -22 61 -24 84 -83 34 -90 98 -211 147 -277 24 -33 43 -61
43 -62 0 -2 -25 -21 -55 -42 -59 -41 -162 -145 -191 -194 -10 -17 -21 -31 -25
-31 -3 0 -14 18 -24 40 -22 50 -101 125 -158 150 -56 26 -157 26 -213 1 -50
-23 -120 -84 -130 -114 -24 -70 -32 239 -9 346 16 79 52 161 90 212 69 90 202
127 330 91z m-656 -121 c12 -23 47 -71 76 -106 47 -56 53 -67 47 -94 -4 -16
-7 -102 -6 -190 1 -139 4 -173 27 -260 15 -55 35 -111 45 -125 14 -18 21 -51
25 -120 13 -196 78 -351 197 -471 41 -41 101 -90 132 -108 126 -71 287 -107
311 -70 11 17 -15 121 -49 198 -14 32 -14 35 10 70 93 134 279 241 419 241
106 0 210 -84 367 -295 106 -143 191 -227 264 -264 97 -47 157 -46 176 5 17
44 -6 75 -71 95 -103 30 -150 73 -316 295 -34 44 -94 111 -134 147 -39 37 -70
69 -68 70 2 2 27 20 56 40 84 61 143 171 143 267 0 48 -26 134 -54 179 -28 43
-106 117 -141 133 -14 6 -24 16 -22 22 2 6 37 30 78 54 219 126 485 132 728
17 201 -96 373 -280 442 -475 19 -52 24 -86 24 -170 0 -143 -20 -203 -164
-490 -203 -403 -224 -493 -180 -758 57 -345 249 -790 427 -992 52 -59 110 -90
273 -146 74 -25 157 -58 184 -74 28 -16 104 -79 169 -139 66 -61 143 -123 173
-138 29 -15 52 -30 50 -33 -1 -3 -53 -81 -116 -175 -136 -202 -281 -437 -371
-599 l-65 -118 -54 6 c-74 9 -123 32 -249 119 -164 114 -316 205 -437 263
-134 64 -190 83 -272 93 -50 6 -70 14 -94 37 -52 49 -59 73 -60 196 -1 123 -8
155 -55 220 -44 62 -110 94 -268 128 -164 35 -194 48 -251 112 -57 64 -99 152
-132 276 -21 81 -26 121 -27 242 -1 124 2 155 21 216 l23 70 77 17 c43 10 102
28 131 42 42 19 52 29 52 48 0 45 -22 52 -106 33 -94 -20 -247 -21 -355 0
-386 73 -793 336 -933 604 -36 68 -41 92 -65 300 -5 47 -19 112 -32 145 -22
60 -47 88 -210 240 -55 51 -74 78 -121 175 -105 214 -181 502 -222 837 l-7 52
43 -19 c115 -52 295 5 422 134 23 23 48 40 56 38 9 -2 26 -23 39 -47z m7231
-221 c54 -25 74 -38 209 -140 37 -28 90 -64 117 -79 27 -16 50 -30 52 -31 6
-4 -106 -216 -151 -287 l-43 -68 -69 103 c-89 132 -85 124 -149 253 -67 133
-87 212 -62 250 20 31 28 31 96 -1z m-5941 -153 c6 -10 36 -31 68 -46 121 -60
187 -147 188 -250 1 -145 -126 -243 -313 -243 -145 0 -282 -58 -402 -169 l-70
-65 0 99 c1 312 166 573 425 670 74 27 92 28 104 4z m7675 -314 c30 -62 80
-145 110 -185 31 -40 56 -76 56 -79 0 -2 -58 -91 -128 -196 -458 -684 -757
-1267 -952 -1856 -93 -281 -177 -650 -196 -855 -7 -75 -9 -82 -44 -116 -20
-20 -39 -41 -41 -47 -5 -15 -206 -78 -308 -97 -86 -17 -179 -20 -242 -10 -36
6 -37 7 -28 38 35 121 -33 378 -145 545 -226 338 -649 520 -1278 550 -520 25
-1141 -67 -1630 -242 -54 -20 -98 -34 -98 -31 0 4 341 506 368 542 l17 22 80
-25 c44 -14 88 -30 98 -35 10 -6 21 -8 26 -6 4 3 59 -2 122 -10 153 -22 488
-21 674 0 349 40 773 133 1044 228 251 87 504 270 761 550 65 70 209 239 321
375 452 550 487 583 956 901 122 82 254 175 294 205 l73 55 17 -54 c10 -31 42
-106 73 -167z m-8419 154 c52 -23 88 -67 130 -154 l33 -68 -19 -61 c-28 -89
-39 -222 -28 -329 12 -118 17 -137 45 -179 21 -32 48 -119 39 -128 -6 -6 -125
45 -181 79 -113 69 -210 206 -250 354 -25 96 -30 259 -10 329 23 79 58 131
103 155 48 25 87 26 138 2z m6453 -106 c56 -24 130 -73 207 -138 39 -32 81
-68 94 -80 14 -11 37 -23 53 -26 l27 -6 -32 -43 c-66 -88 -164 -210 -217 -271
l-55 -63 -28 34 c-49 58 -89 120 -144 227 -65 126 -83 185 -83 267 0 57 2 64
31 88 36 31 90 34 147 11z m-369 -456 c51 -29 179 -124 241 -179 14 -12 43
-38 65 -57 l40 -34 -50 -47 c-62 -58 -144 -126 -209 -175 l-48 -36 -84 167
c-46 92 -91 189 -99 216 -21 68 -19 129 3 148 41 36 72 35 141 -3z m-2408 -67
c100 -107 131 -152 134 -190 1 -20 6 -52 10 -70 l8 -34 -42 22 c-54 27 -62 20
-87 -67 -20 -73 -26 -264 -12 -393 l7 -65 -15 50 c-18 60 -44 160 -50 195 -3
14 -7 31 -9 38 -2 7 -7 34 -11 60 -3 26 -10 67 -14 91 -21 115 0 411 30 411 3
0 27 -21 51 -48z m1957 -58 c48 -31 115 -99 238 -240 67 -77 139 -155 159
-172 l35 -32 -103 -67 c-102 -67 -179 -113 -191 -113 -3 0 -6 4 -6 10 0 5 -30
51 -67 102 -116 161 -203 355 -203 455 0 34 6 49 26 68 21 19 30 22 56 14 17
-4 42 -16 56 -25z m-451 -314 c32 -41 76 -102 98 -135 34 -51 85 -118 152
-200 9 -11 31 -37 50 -58 39 -44 41 -53 11 -63 -13 -4 -48 -18 -78 -31 -30
-14 -64 -29 -75 -33 -11 -4 -38 -15 -60 -24 -22 -8 -45 -17 -51 -18 -7 -2 -44
46 -84 105 l-72 108 -1 142 c-3 224 8 306 39 289 7 -4 39 -41 71 -82z m-1384
9 c77 -40 172 -182 249 -374 27 -66 53 -130 59 -142 5 -13 13 -33 18 -45 5
-13 21 -49 35 -82 14 -32 26 -60 26 -61 0 -8 -162 40 -214 64 -79 36 -173 96
-184 119 -5 9 -13 39 -16 65 -4 27 -9 59 -12 70 -14 72 -4 397 13 397 2 0 14
-5 26 -11z m5292 -103 c50 -30 109 -112 176 -246 54 -108 62 -142 78 -330 13
-163 36 -216 125 -305 39 -39 103 -96 143 -127 54 -43 83 -77 122 -140 74
-119 93 -186 98 -343 2 -71 9 -140 15 -152 16 -32 7 -36 -51 -24 -47 10 -280
41 -308 41 -7 0 -31 33 -54 73 -63 107 -165 204 -269 256 -117 57 -206 74
-350 68 -160 -8 -354 -65 -486 -142 -24 -14 -45 -25 -47 -25 -3 0 -8 21 -12
47 -14 93 -59 143 -130 143 -76 0 -140 -55 -346 -303 -102 -122 -267 -293
-274 -285 -3 2 18 80 45 174 87 302 211 634 237 634 11 0 14 6 10 21 -11 43
51 158 151 278 114 138 382 408 470 475 193 146 448 254 571 241 24 -3 63 -16
86 -29z m-4245 -115 c47 -48 98 -107 115 -132 16 -24 63 -88 102 -143 40 -54
71 -101 68 -105 -4 -7 -20 -13 -149 -51 -58 -17 -126 -26 -126 -17 0 1 -24 74
-54 162 -47 141 -58 176 -73 245 -2 8 -6 46 -10 84 l-6 68 24 -12 c13 -6 62
-51 109 -99z m-569 -35 c62 -87 157 -260 207 -380 26 -62 30 -81 20 -87 -15
-10 -108 -10 -188 -1 l-54 7 -38 74 c-21 41 -38 77 -38 81 0 4 -7 25 -17 46
-20 48 -22 288 -2 336 11 26 13 28 33 15 11 -8 46 -49 77 -91z m467 -321 l39
-110 -26 -7 c-14 -4 -56 -11 -92 -16 l-67 -8 -12 39 c-6 22 -28 79 -49 126
l-37 86 102 0 103 0 39 -110z m4257 -850 c95 -20 184 -66 255 -131 74 -70 140
-171 140 -218 0 -18 6 -38 13 -44 6 -5 62 -15 122 -22 376 -39 494 -93 667
-300 300 -358 377 -617 285 -950 -43 -154 -171 -479 -261 -665 -126 -258 -280
-436 -476 -549 -65 -38 -201 -88 -275 -102 l-39 -7 54 60 c148 164 242 417
305 819 34 217 33 234 -11 248 -45 14 -54 -9 -90 -223 -38 -233 -63 -338 -109
-468 -68 -191 -170 -325 -294 -386 -60 -29 -75 -32 -181 -36 -123 -3 -146 1
-389 74 -175 52 -320 29 -483 -79 -37 -24 -36 -7 2 32 19 21 30 42 30 61 0 17
5 33 10 36 6 3 10 21 10 39 0 44 48 138 109 211 28 33 122 129 211 213 88 85
180 182 205 217 124 173 196 410 221 726 5 73 4 88 -10 102 -10 9 -25 17 -35
17 -35 0 -48 -33 -65 -168 -26 -197 -67 -348 -130 -477 -65 -132 -128 -208
-295 -360 -121 -109 -200 -195 -249 -268 l-26 -39 -22 45 c-40 78 -118 153
-202 194 -74 37 -79 38 -187 38 -98 0 -116 -3 -167 -27 -32 -15 -58 -24 -58
-21 0 3 9 36 20 72 27 93 46 215 70 446 42 408 94 586 225 760 49 65 57 100
24 110 -28 9 -51 -13 -119 -116 -85 -130 -140 -280 -175 -483 -8 -49 -15 -93
-15 -97 0 -5 -10 -9 -22 -9 -13 -1 -45 -7 -73 -14 -27 -8 -51 -12 -53 -11 -1
1 6 25 17 53 34 86 54 208 48 291 -7 98 -27 161 -75 241 l-39 64 57 43 c92 69
234 225 400 438 195 252 296 358 423 442 234 156 494 222 702 178z m-885 -70
c0 -14 7 -42 15 -62 l16 -37 -33 -25 c-58 -43 -170 -162 -323 -341 -163 -191
-356 -391 -362 -373 -2 6 10 79 27 162 16 83 30 153 30 155 0 2 12 6 28 9 52
11 128 72 262 212 206 214 318 325 330 325 5 0 10 -11 10 -25z m-795 -1159
c85 -128 85 -288 0 -471 -54 -116 -39 -109 -200 -90 -507 59 -679 144 -839
409 -20 33 -36 67 -36 77 0 18 69 55 118 65 15 3 98 -9 185 -25 87 -17 180
-31 205 -31 101 0 328 50 467 103 22 9 46 16 52 16 7 1 29 -23 48 -53z m281
-648 c-3 -13 -8 -54 -11 -93 -11 -117 -44 -285 -75 -377 -33 -99 -88 -213 -98
-204 -13 14 -72 394 -72 470 -1 154 3 159 150 195 46 12 86 23 88 26 13 12 22
3 18 -17z m339 -607 c109 -52 184 -158 205 -288 9 -55 8 -61 -21 -116 -83
-157 -107 -292 -116 -664 -7 -315 2 -294 -112 -237 -267 133 -445 572 -403
992 16 159 37 227 83 264 101 82 254 102 364 49z"/>
<path d="M13282 17238 c-11 -24 -50 -117 -87 -208 -37 -91 -73 -178 -80 -195
-7 -16 -23 -55 -35 -85 -11 -30 -27 -68 -35 -85 -7 -16 -23 -55 -35 -85 -11
-30 -27 -68 -34 -85 -8 -16 -28 -66 -46 -110 -18 -44 -38 -93 -45 -110 -31
-72 -45 -108 -45 -119 0 -6 21 -26 48 -44 26 -17 74 -52 107 -77 33 -24 83
-60 110 -80 28 -19 77 -55 110 -80 33 -24 83 -60 110 -80 28 -19 75 -53 105
-76 30 -22 66 -47 80 -57 14 -9 30 -20 35 -25 19 -14 85 -62 140 -102 30 -22
79 -58 109 -80 30 -22 80 -58 110 -80 31 -22 80 -58 110 -80 30 -22 80 -58
111 -80 30 -22 70 -51 89 -65 19 -14 44 -32 56 -40 12 -8 37 -26 55 -40 18
-14 43 -32 55 -40 12 -8 37 -26 56 -40 18 -14 58 -43 89 -65 30 -22 79 -58
109 -80 30 -22 80 -58 110 -80 31 -22 80 -58 110 -80 30 -22 80 -58 111 -80
30 -22 74 -55 98 -72 l42 -33 9 23 c5 12 18 40 27 63 10 22 27 65 39 95 11 30
27 68 34 84 8 17 44 104 81 195 37 91 73 180 81 197 8 18 26 63 40 99 l25 67
-38 31 c-21 17 -54 47 -74 66 -20 19 -75 71 -124 115 -48 44 -102 94 -119 110
-18 17 -72 66 -121 110 -48 44 -102 94 -120 110 -17 17 -71 66 -120 110 -48
44 -102 94 -120 110 -17 17 -71 66 -120 110 -49 44 -103 94 -121 110 -17 17
-71 66 -119 110 -49 44 -105 96 -125 115 -20 19 -74 69 -120 110 -46 41 -100
91 -120 110 -20 19 -76 71 -124 115 -49 44 -103 94 -121 110 -17 17 -71 66
-120 110 -49 44 -98 89 -109 101 -12 11 -40 37 -63 58 l-42 37 -19 -43z m233
-421 c84 -68 103 -91 125 -160 20 -59 21 -73 11 -108 -7 -22 -16 -39 -21 -37
-4 2 -29 20 -54 41 -41 35 -44 41 -34 62 12 26 11 27 -51 78 l-34 28 -29 -73
c-17 -40 -35 -83 -41 -95 -11 -25 -11 -24 72 -92 63 -52 98 -186 61 -236 -4
-5 -20 -44 -35 -85 -16 -41 -35 -80 -42 -86 -7 -6 -36 -14 -64 -17 -49 -6 -52
-5 -123 48 -68 52 -73 58 -95 125 -19 61 -21 75 -10 105 7 19 18 35 24 35 6 0
30 -17 54 -38 36 -32 42 -41 36 -64 -6 -22 -1 -30 32 -54 21 -16 41 -33 45
-38 5 -8 38 54 38 71 0 2 12 30 26 61 l26 56 -24 17 c-13 10 -36 29 -53 43
-16 14 -33 26 -36 26 -6 0 -46 120 -50 150 -2 16 3 30 60 165 l37 90 45 6 c24
3 49 7 54 7 6 1 28 -13 50 -31z m332 -291 l46 -44 -16 -34 c-8 -18 -25 -58
-37 -88 -11 -30 -27 -68 -35 -85 -7 -16 -23 -55 -35 -85 -11 -30 -27 -68 -34
-85 -8 -16 -29 -66 -47 -109 l-32 -79 25 -21 c61 -51 70 -57 72 -54 2 2 13 30
26 63 13 33 31 78 41 101 10 22 27 65 39 95 11 30 27 68 34 84 17 36 71 172
80 198 6 18 7 18 33 -1 42 -30 73 -61 73 -73 0 -10 -44 -123 -75 -194 -8 -16
-23 -55 -35 -85 -11 -30 -27 -68 -35 -85 -7 -16 -23 -55 -35 -85 -50 -129 -46
-126 -122 -133 -39 -4 -52 0 -75 19 -15 12 -47 37 -71 56 -36 27 -47 45 -67
102 l-23 69 35 86 c19 47 41 100 48 116 8 17 23 55 35 85 11 30 27 69 35 85 7
17 23 55 35 85 29 76 59 140 65 140 3 0 26 -20 52 -44z m379 -333 c50 -47 153
-136 164 -143 8 -5 53 -136 53 -156 0 -6 -9 -31 -20 -55 -11 -24 -29 -67 -39
-96 l-18 -51 -54 -7 c-52 -6 -79 2 -118 39 -34 31 -56 46 -63 42 -4 -3 -16
-27 -26 -53 -10 -26 -26 -66 -35 -88 -10 -22 -25 -57 -34 -79 l-16 -38 -47 36
c-54 40 -57 56 -25 127 11 24 50 118 87 209 37 91 75 183 85 205 10 22 26 64
36 93 10 28 21 52 24 52 3 0 24 -17 46 -37z m434 -383 c14 -14 53 -47 85 -75
126 -108 126 -109 99 -164 l-16 -32 -26 23 c-51 46 -59 53 -88 78 -16 14 -41
35 -55 47 l-26 22 -33 -81 -33 -81 30 -26 c17 -14 44 -38 62 -52 30 -25 31
-27 18 -64 -16 -46 -26 -51 -54 -28 -20 17 -36 30 -76 62 -15 12 -19 9 -33
-25 -16 -41 -44 -104 -51 -116 -2 -4 22 -26 54 -49 31 -23 66 -50 77 -60 12
-10 32 -26 45 -37 23 -18 24 -21 11 -53 -7 -19 -16 -37 -20 -41 -3 -5 -53 26
-110 68 -116 86 -111 82 -162 126 l-37 33 21 50 c11 28 26 64 33 80 8 17 23
55 35 85 11 30 27 69 34 85 15 31 102 243 117 283 l9 22 31 -27 c18 -16 44
-39 59 -53z m359 -314 c45 -41 81 -74 124 -113 21 -20 45 -58 61 -98 l26 -66
-21 -52 c-12 -29 -28 -66 -35 -84 -8 -17 -14 -36 -14 -42 0 -6 -9 -11 -20 -11
-16 0 -19 -5 -14 -29 4 -19 -2 -46 -19 -82 -13 -30 -33 -78 -43 -108 -11 -29
-25 -56 -31 -58 -7 -3 -32 10 -55 28 -24 18 -45 34 -47 36 -4 3 28 87 66 171
12 29 23 56 23 61 0 4 -14 19 -32 32 -17 13 -37 30 -45 37 -15 15 -16 13 -83
-150 l-32 -77 -43 32 c-24 18 -47 38 -50 46 -5 12 66 201 130 346 7 17 23 55
35 85 58 152 57 151 119 96z"/>
<path d="M14227 16008 c-9 -18 -25 -56 -36 -84 l-20 -52 24 -20 c13 -11 35
-28 48 -37 25 -16 25 -16 43 32 10 26 24 59 31 73 14 28 17 60 6 60 -5 0 -22
14 -40 30 -18 17 -34 30 -36 30 -3 0 -12 -15 -20 -32z"/>
<path d="M15005 15317 c-10 -29 -22 -56 -26 -61 -18 -20 -8 -45 30 -76 21 -18
42 -33 46 -34 4 0 20 31 35 69 l29 70 -32 30 c-64 60 -61 60 -82 2z"/>
<path d="M11492 13899 c-165 -28 -335 -193 -449 -436 -85 -183 -162 -452 -163
-569 0 -60 20 -84 68 -84 42 0 57 25 77 125 61 298 161 551 274 692 195 242
446 210 633 -81 105 -164 175 -354 279 -758 8 -30 14 -38 33 -38 13 0 26 6 29
14 6 15 -74 335 -118 476 -37 116 -106 275 -157 362 -53 90 -172 216 -235 250
-82 44 -183 62 -271 47z"/>
<path d="M7144 13045 c-150 -75 -416 -373 -454 -509 -11 -42 -11 -48 5 -66 24
-26 41 -25 69 5 13 14 28 25 34 25 6 0 32 19 59 42 27 23 99 65 163 95 167 78
178 84 227 127 131 114 115 306 -25 306 -15 0 -50 -11 -78 -25z"/>
<path d="M13380 13051 c0 -16 6 -21 28 -21 88 0 164 -55 206 -149 29 -66 47
-174 39 -245 l-6 -47 -19 28 c-10 15 -40 69 -66 118 -49 96 -121 179 -150 173
-31 -6 -24 -36 20 -80 24 -23 66 -86 93 -138 59 -112 109 -172 139 -168 28 4
39 66 32 183 -13 211 -107 344 -258 361 -55 6 -58 6 -58 -15z"/>
<path d="M6153 13038 c-11 -13 -23 -31 -26 -40 -8 -23 18 -188 41 -263 31 -96
122 -318 139 -337 28 -31 70 -22 91 18 9 17 5 40 -24 119 -19 54 -32 106 -29
116 8 23 -9 147 -36 269 -25 112 -45 140 -99 140 -25 0 -43 -7 -57 -22z"/>
<path d="M14500 11805 c-91 -48 -194 -128 -306 -240 -220 -220 -383 -507 -470
-830 -3 -11 -7 -31 -10 -45 -3 -14 -9 -38 -14 -55 -15 -50 -30 -186 -33 -296
-2 -99 9 -275 18 -290 3 -3 7 -24 11 -45 17 -108 99 -305 168 -404 114 -162
217 -244 371 -295 126 -41 306 -31 440 24 11 5 33 14 48 20 79 32 228 149 292
231 41 51 113 166 133 210 56 123 69 157 77 201 2 12 11 45 19 74 9 28 18 69
22 91 3 21 7 41 9 44 18 30 27 412 12 550 -15 149 -63 348 -116 485 -25 64
-100 209 -137 265 -44 67 -160 195 -204 224 -63 41 -68 -6 -7 -67 69 -69 122
-146 177 -257 28 -58 56 -115 61 -127 5 -13 14 -33 19 -45 32 -70 88 -320 105
-470 20 -170 3 -518 -29 -609 -3 -8 -8 -25 -10 -39 -16 -81 -50 -179 -99 -280
-12 -26 -97 -161 -107 -170 -3 -3 -20 -23 -39 -44 -84 -98 -249 -197 -371
-223 -57 -12 -158 -14 -212 -4 -155 30 -283 127 -399 304 -33 49 -59 94 -59
99 0 6 -6 24 -14 41 -19 42 -56 158 -62 193 -3 16 -7 36 -9 44 -3 8 -9 67 -15
130 -9 104 -2 278 15 370 9 46 14 71 19 88 3 9 7 28 10 42 48 253 250 615 457
819 84 84 201 174 271 210 29 15 44 43 33 61 -14 22 -40 28 -65 15z"/>
<path d="M11363 10823 c-20 -8 -16 -35 28 -176 23 -76 47 -181 56 -247 19
-144 18 -142 45 -138 22 3 23 8 26 93 3 99 -11 181 -60 335 -41 131 -55 150
-95 133z"/>
</g>
</svg>
