<?xml version="1.0" standalone="no"?>
<!DOCTYPE svg PUBLIC "-//W3C//DTD SVG 20010904//EN"
 "http://www.w3.org/TR/2001/REC-SVG-20010904/DTD/svg10.dtd">
<svg version="1.0" xmlns="http://www.w3.org/2000/svg"
 width="1140.000000pt" height="1132.000000pt" viewBox="0 0 1140.000000 1132.000000"
 preserveAspectRatio="xMidYMid meet">
<metadata>
Created by potrace 1.16, written by Peter Selinger 2001-2019
</metadata>
<g transform="translate(0.000000,1132.000000) scale(0.100000,-0.100000)"
fill="#ffffff" stroke="none">
<path d="M573 11313 l-33 -4 0 -351 c0 -330 -1 -350 -17 -343 -83 36 -132 47
-194 43 -228 -16 -376 -230 -310 -448 19 -62 31 -81 84 -135 46 -47 77 -68
120 -84 78 -28 177 -28 254 1 79 29 162 112 191 191 21 56 22 71 22 512 0 357
3 455 13 455 36 -1 147 -34 184 -55 91 -54 114 -143 60 -239 -15 -27 -27 -51
-27 -54 0 -3 18 11 40 33 182 177 50 437 -241 475 -75 10 -89 10 -146 3z
m-138 -840 c30 -17 72 -65 84 -96 40 -104 -36 -229 -147 -244 -71 -10 -154 34
-187 98 -20 37 -19 123 1 166 41 84 164 122 249 76z"/>
<path d="M6905 11313 c-31 -8 -73 -41 -80 -63 -6 -19 -17 -20 -403 -20 -344 0
-401 -2 -420 -16 -26 -18 -27 -27 -6 -48 13 -14 65 -16 418 -16 l403 0 12 -23
c18 -34 63 -57 111 -57 36 0 48 6 82 40 l40 40 142 0 c146 0 166 5 166 42 0
30 -35 38 -178 38 -138 0 -139 0 -152 25 -23 43 -86 70 -135 58z"/>
<path d="M7943 11310 c-64 -13 -116 -44 -166 -100 -131 -146 -91 -368 85 -466
l53 -29 1617 -3 c1614 -2 1617 -2 1672 18 67 26 139 92 169 158 31 67 30 178
-2 249 -27 61 -93 126 -159 156 l-47 22 -1590 1 c-874 1 -1609 -2 -1632 -6z
m3262 -54 c55 -25 119 -90 141 -142 8 -18 14 -64 14 -101 -1 -110 -49 -191
-144 -241 l-51 -27 -1615 0 -1615 0 -47 23 c-103 51 -167 167 -154 276 13 98
87 190 181 224 21 7 523 11 1635 11 l1605 1 50 -24z"/>
<path d="M10810 11181 c-100 -52 -117 -189 -34 -268 55 -52 152 -58 214 -13
l31 22 87 -52 c62 -37 91 -49 101 -43 37 24 26 38 -84 106 l-69 43 -1 55 c-1
68 -28 116 -83 147 -49 27 -115 29 -162 3z m130 -56 c37 -19 50 -43 50 -95 0
-91 -102 -133 -172 -71 -28 25 -33 36 -33 76 0 40 5 51 33 76 37 33 77 37 122
14z"/>
<path d="M6310 11063 c-23 -8 -70 -55 -70 -70 0 -10 -28 -13 -120 -13 -110 0
-120 -2 -130 -21 -22 -40 1 -49 131 -49 92 0 119 -3 119 -13 0 -7 13 -26 29
-41 56 -54 152 -41 189 25 l17 29 445 2 445 3 0 30 0 30 -445 3 -445 2 -17 31
c-26 44 -99 70 -148 52z"/>
<path d="M1778 10813 l-38 -4 0 -351 c0 -330 -1 -350 -17 -343 -83 36 -132 47
-194 43 -128 -9 -235 -81 -291 -196 -28 -56 -33 -76 -33 -141 0 -111 24 -171
99 -247 45 -46 76 -67 119 -83 78 -28 177 -28 254 1 78 29 161 111 194 193 24
60 24 61 27 513 l3 453 32 -6 c179 -36 258 -105 243 -214 -3 -24 -18 -65 -32
-90 l-25 -46 50 53 c35 37 55 68 66 104 19 64 19 72 0 136 -27 89 -136 181
-250 210 -50 13 -158 20 -207 15z m-150 -837 c93 -49 129 -162 79 -251 -53
-94 -170 -122 -257 -62 -54 36 -73 70 -78 136 -4 52 -1 67 22 106 16 27 42 53
64 65 44 23 131 26 170 6z"/>
<path d="M7203 10801 c-17 -11 -34 -29 -38 -40 -6 -21 -9 -21 -580 -21 -508 0
-575 -2 -589 -16 -9 -8 -16 -19 -16 -24 0 -5 7 -16 16 -24 14 -14 81 -16 590
-16 470 0 574 -2 574 -13 0 -19 41 -55 78 -68 40 -14 89 1 124 39 50 53 44
128 -13 177 -38 31 -100 34 -146 6z m111 -52 c32 -25 35 -70 6 -99 -27 -27
-66 -25 -96 6 -30 29 -27 67 8 97 27 22 49 22 82 -4z"/>
<path d="M887 10633 c-4 -3 -7 -161 -7 -350 0 -188 -1 -343 -2 -343 -2 0 -28
10 -58 22 -84 33 -187 30 -268 -6 -214 -98 -271 -375 -112 -549 86 -94 212
-133 331 -102 113 28 193 95 242 202 22 47 22 56 25 509 l3 461 53 -9 c99 -15
182 -62 212 -120 23 -45 15 -126 -19 -177 -36 -55 -18 -52 31 5 74 83 91 182
46 272 -41 83 -130 149 -239 178 -51 14 -226 19 -238 7z m-103 -837 c119 -69
114 -256 -7 -315 -74 -36 -168 -20 -219 36 -25 28 -48 88 -48 125 0 39 29 106
56 130 61 54 150 64 218 24z"/>
<path d="M5450 9264 c-482 -36 -931 -189 -1320 -449 -171 -114 -274 -198 -415
-340 -628 -628 -904 -1502 -754 -2388 44 -254 116 -472 244 -732 279 -567 731
-1002 1345 -1293 397 -189 878 -282 1304 -252 490 34 913 174 1319 436 261
169 546 446 732 713 410 589 565 1337 426 2058 -73 378 -274 822 -526 1158
-394 527 -982 904 -1610 1034 -215 44 -554 69 -745 55z m850 -1215 c85 -23
248 -98 335 -154 173 -110 319 -314 361 -503 52 -235 -66 -464 -302 -581 -38
-19 -89 -40 -114 -47 l-45 -13 29 22 c90 68 135 108 169 153 127 167 95 367
-85 529 -97 87 -272 195 -288 178 -5 -4 -116 -296 -248 -648 -462 -1229 -439
-1177 -550 -1296 -102 -110 -230 -187 -377 -224 -94 -25 -266 -25 -360 0 -255
65 -456 251 -541 500 -39 114 -46 295 -15 416 55 222 202 404 406 504 98 48
173 66 300 72 91 4 126 2 200 -16 161 -39 321 -137 412 -252 25 -33 49 -56 53
-52 4 4 34 80 67 168 33 88 154 409 269 713 183 485 211 552 229 552 11 0 54
-9 95 -21z"/>
<path d="M4914 6635 c-130 -28 -237 -109 -297 -223 -96 -182 -64 -386 82 -526
183 -174 452 -168 626 15 130 137 159 318 77 494 -59 124 -170 211 -309 240
-81 17 -100 17 -179 0z"/>
<path d="M3189 3333 c-15 -9 -34 -29 -43 -45 l-17 -28 -1435 0 -1435 0 3 -32
3 -33 1437 -3 1437 -2 6 -21 c10 -30 64 -59 112 -59 45 0 96 34 108 70 6 20
44 20 3816 20 l3809 0 0 25 0 25 -3808 0 -3808 0 -11 30 c-22 60 -117 89 -174
53z"/>
<path d="M431 3061 c-23 -23 -36 -104 -26 -163 13 -83 53 -110 96 -67 19 19
20 30 17 121 -2 85 -6 102 -22 114 -26 19 -42 18 -65 -5z"/>
<path d="M581 3061 c-23 -23 -36 -104 -26 -163 13 -83 53 -110 96 -67 19 19
20 30 17 121 -2 85 -6 102 -22 114 -26 19 -42 18 -65 -5z"/>
<path d="M806 3064 c-20 -20 -21 -64 -2 -64 8 0 18 9 21 20 10 32 35 25 35
-11 0 -22 -5 -32 -20 -36 -26 -7 -26 -29 1 -43 26 -14 24 -73 -3 -78 -11 -2
-18 3 -18 12 0 9 -8 16 -20 16 -24 0 -26 -18 -4 -48 19 -28 57 -29 84 -2 23
23 28 88 8 108 -9 9 -9 15 0 24 19 19 14 76 -8 98 -24 24 -53 26 -74 4z"/>
<path d="M954 3059 c-16 -18 -19 -37 -19 -115 0 -82 3 -96 22 -115 28 -29 66
-20 83 21 19 46 10 183 -14 209 -24 27 -48 27 -72 0z"/>
<path d="M10241 3061 c-24 -24 -36 -95 -27 -164 11 -82 53 -110 97 -66 19 19
20 30 17 121 -2 85 -6 102 -22 114 -27 19 -42 18 -65 -5z"/>
<path d="M10433 3068 c-21 -26 -74 -160 -69 -174 3 -8 19 -14 36 -14 28 0 30
-3 30 -36 0 -28 3 -35 17 -32 24 4 31 56 24 169 -6 90 -16 114 -38 87z"/>
<path d="M10618 3069 c-22 -12 -25 -69 -4 -69 7 0 16 9 19 21 8 29 31 19 35
-15 3 -21 -1 -29 -17 -33 -27 -7 -27 -29 0 -43 26 -14 24 -73 -3 -78 -11 -2
-18 3 -18 12 0 9 -8 16 -20 16 -24 0 -26 -18 -4 -48 17 -25 51 -29 79 -8 19
14 20 22 15 121 0 11 2 36 6 57 10 58 -40 96 -88 67z"/>
<path d="M10764 3059 c-14 -15 -20 -40 -22 -94 -5 -84 10 -141 39 -150 56 -18
83 34 77 150 -3 77 -23 115 -58 115 -9 0 -25 -9 -36 -21z"/>
<path d="M5232 2738 c-9 -9 -12 -192 -12 -763 0 -777 0 -775 40 -775 20 0 770
750 770 770 0 17 -759 780 -776 780 -5 0 -15 -5 -22 -12z"/>
<path d="M2082 2238 l-252 -253 0 172 c0 155 -2 173 -18 182 -11 6 -24 6 -35
0 -16 -9 -17 -39 -17 -363 0 -310 2 -355 16 -367 11 -9 20 -10 32 -2 15 9 17
34 20 177 1 91 6 166 10 166 4 0 117 -110 252 -245 135 -135 250 -245 256
-245 7 0 15 7 18 16 8 20 8 978 0 998 -3 9 -11 16 -18 16 -6 0 -125 -114 -264
-252z"/>
<path d="M8897 2483 c-4 -3 -7 -233 -7 -510 0 -452 2 -504 16 -510 11 -4 86
64 265 243 l249 249 0 -162 c0 -134 3 -164 16 -177 18 -19 20 -19 45 -6 18 10
19 25 19 360 0 304 -2 351 -16 364 -8 9 -19 16 -24 16 -5 0 -16 -7 -24 -16
-13 -13 -16 -44 -16 -182 l0 -167 -253 253 c-138 138 -255 252 -258 252 -3 0
-9 -3 -12 -7z"/>
<path d="M660 853 l0 -31 -182 -4 c-159 -4 -190 -8 -240 -27 -110 -43 -200
-150 -228 -270 -45 -193 90 -399 290 -442 47 -10 50 -12 50 -42 l0 -32 42 43
43 42 -43 42 -42 43 0 -33 c0 -28 -3 -32 -27 -32 -44 0 -147 54 -192 100 -63
65 -85 121 -89 222 -4 77 -1 93 24 148 34 77 112 150 189 179 49 18 78 21 230
21 l175 0 0 -32 0 -33 42 43 43 42 -43 42 -42 43 0 -32z"/>
<path d="M882 838 l-42 -44 38 -37 c21 -20 41 -37 45 -37 4 0 7 14 7 31 0 31
1 31 38 25 107 -19 213 -109 252 -214 29 -75 25 -195 -9 -260 -32 -63 -97
-130 -156 -160 -48 -26 -56 -27 -242 -30 l-193 -4 0 34 0 33 -42 -43 -43 -42
43 -42 42 -43 0 32 0 31 183 4 c216 4 262 18 352 99 151 139 162 366 25 522
-46 52 -141 105 -203 113 -44 6 -46 8 -49 41 l-3 34 -43 -43z"/>
<path d="M6943 805 c-90 -45 -135 -126 -137 -245 -1 -63 4 -84 28 -135 40 -83
172 -212 309 -303 l109 -73 36 23 c181 108 340 253 387 353 69 146 13 326
-119 386 -90 41 -229 15 -278 -51 l-20 -28 -35 34 c-45 46 -93 64 -167 64 -46
0 -75 -6 -113 -25z"/>
<path d="M3863 616 l61 -184 -24 -76 -24 -76 -22 21 c-51 48 -157 31 -189 -31
-45 -88 13 -180 114 -180 65 0 93 35 131 159 17 57 35 100 40 95 4 -5 23 -55
40 -112 28 -89 36 -106 64 -123 97 -59 215 26 185 134 -21 77 -113 110 -185
68 -20 -12 -38 -21 -39 -19 -1 2 -12 33 -24 71 l-23 67 58 173 c31 94 59 178
62 185 6 18 -23 15 -40 -5 -9 -10 -35 -76 -58 -148 l-43 -129 -47 138 c-44
130 -58 155 -87 156 -7 0 13 -73 50 -184z m-36 -348 c30 -28 31 -83 1 -115
-31 -33 -90 -32 -117 3 -63 80 42 181 116 112z m345 8 c42 -31 40 -113 -2
-136 -56 -30 -130 10 -130 70 0 62 83 104 132 66z"/>
<path d="M9843 704 c-3 -9 -2 -24 4 -33 9 -14 33 -16 158 -16 125 0 149 2 158
16 6 9 7 24 4 33 -6 14 -27 16 -162 16 -135 0 -156 -2 -162 -16z"/>
<path d="M10312 708 c-16 -16 -15 -23 4 -42 13 -14 66 -16 424 -16 358 0 411
2 424 16 19 19 20 26 4 42 -17 17 -839 17 -856 0z"/>
<path d="M9844 546 c-3 -8 -4 -23 -2 -33 3 -16 17 -18 143 -21 167 -3 185 0
185 32 0 13 -7 27 -16 30 -9 3 -81 6 -160 6 -117 0 -146 -3 -150 -14z"/>
<path d="M10311 541 c-7 -13 -7 -23 2 -35 11 -15 59 -16 541 -14 481 3 530 5
539 20 8 12 7 21 -2 32 -12 14 -72 16 -542 16 -505 0 -529 -1 -538 -19z"/>
<path d="M9850 385 c-6 -8 -10 -22 -8 -32 3 -16 17 -18 163 -18 146 0 160 2
163 18 8 41 -13 47 -163 47 -112 0 -145 -3 -155 -15z"/>
<path d="M10316 384 c-9 -8 -16 -19 -16 -23 0 -28 35 -31 310 -29 260 3 284 4
294 21 9 15 7 21 -8 33 -31 22 -558 21 -580 -2z"/>
<path d="M9847 224 c-14 -14 -7 -43 12 -54 11 -5 78 -10 148 -10 137 0 169 9
161 46 -3 18 -14 19 -159 22 -85 1 -158 -1 -162 -4z"/>
<path d="M10311 216 c-15 -18 -5 -43 22 -50 12 -3 234 -6 493 -6 497 0 511 1
502 46 -3 18 -18 19 -504 22 -417 2 -503 0 -513 -12z"/>
</g>
</svg>
