<?xml version="1.0" standalone="no"?>
<!DOCTYPE svg PUBLIC "-//W3C//DTD SVG 20010904//EN"
 "http://www.w3.org/TR/2001/REC-SVG-20010904/DTD/svg10.dtd">
<svg version="1.0" xmlns="http://www.w3.org/2000/svg"
 width="1179.000000pt" height="1179.000000pt" viewBox="0 0 1179.000000 1179.000000"
 preserveAspectRatio="xMidYMid meet">
<metadata>
Created by potrace 1.16, written by Peter Selinger 2001-2019
</metadata>
<g transform="translate(0.000000,1179.000000) scale(0.100000,-0.100000)"
fill="#000000" stroke="none">
<path d="M5608 11781 c-93 -30 -150 -105 -150 -199 -1 -74 25 -134 74 -176
107 -92 265 -62 330 63 78 148 -6 306 -169 317 -32 2 -70 -1 -85 -5z"/>
<path d="M6486 11746 c-83 -31 -136 -110 -136 -203 1 -130 92 -223 220 -223
82 0 154 48 195 129 28 55 18 158 -20 213 -54 76 -174 115 -259 84z"/>
<path d="M4692 11664 c-88 -44 -129 -121 -119 -222 19 -178 229 -253 363 -130
93 86 95 219 5 309 -73 74 -159 88 -249 43z"/>
<path d="M7345 11561 c-130 -59 -166 -234 -69 -341 46 -51 90 -70 161 -70 105
1 186 60 213 156 27 96 -17 208 -99 251 -56 29 -147 31 -206 4z"/>
<path d="M3810 11408 c-100 -61 -129 -171 -72 -279 70 -135 259 -160 356 -48
74 87 73 208 -2 291 -47 52 -85 68 -165 68 -53 0 -71 -5 -117 -32z"/>
<path d="M8174 11251 c-143 -65 -152 -295 -15 -383 42 -27 52 -29 121 -26 63
3 82 8 118 32 136 92 130 285 -11 366 -63 36 -147 41 -213 11z"/>
<path d="M3071 11070 c-86 -21 -171 -125 -171 -209 0 -129 97 -226 225 -225
109 1 179 61 205 177 34 154 -107 294 -259 257z"/>
<path d="M8976 10825 c-156 -55 -185 -279 -49 -381 141 -107 343 -3 343 176
-1 158 -144 259 -294 205z"/>
<path d="M2318 10566 c-100 -27 -158 -102 -158 -206 0 -99 60 -182 149 -209
51 -15 77 -14 142 5 72 21 122 73 139 144 41 169 -106 312 -272 266z"/>
<path d="M9648 10260 c-70 -37 -110 -110 -110 -201 0 -150 130 -241 285 -198
47 13 115 72 134 116 15 37 17 130 4 166 -15 38 -70 96 -112 118 -52 26 -150
25 -201 -1z"/>
<path d="M1635 9951 c-80 -37 -125 -111 -125 -206 0 -230 326 -295 414 -83 45
106 -7 244 -108 292 -45 21 -131 20 -181 -3z"/>
<path d="M10280 9619 c-118 -47 -169 -192 -110 -313 74 -153 304 -148 388 8
23 43 22 150 -2 196 -43 82 -105 120 -193 119 -32 0 -69 -5 -83 -10z"/>
<path d="M1091 9258 c-50 -17 -117 -85 -130 -133 -25 -92 -7 -163 59 -226 72
-71 160 -84 251 -38 149 74 159 283 18 376 -47 31 -139 40 -198 21z"/>
<path d="M10785 8879 c-43 -12 -102 -64 -125 -110 -27 -52 -27 -146 0 -200 42
-81 152 -130 248 -108 60 13 103 43 136 92 109 169 -62 384 -259 326z"/>
<path d="M645 8476 c-40 -18 -90 -72 -109 -118 -21 -50 -20 -134 3 -183 37
-81 111 -120 217 -113 76 5 136 41 171 103 30 52 31 149 4 203 -24 46 -76 97
-114 111 -39 15 -136 13 -172 -3z"/>
<path d="M3860 5895 c0 -1339 2 -2435 5 -2435 3 0 499 371 1103 825 l1097 826
3 -826 c1 -454 4 -825 7 -825 10 0 3228 2425 3229 2434 1 5 -726 555 -1614
1223 l-1615 1215 -5 -827 -5 -827 -1099 826 c-604 454 -1100 826 -1102 826 -2
0 -4 -1096 -4 -2435z"/>
<path d="M11145 8062 c-52 -24 -111 -90 -124 -139 -43 -152 51 -277 210 -278
56 0 73 4 114 30 129 80 133 281 7 369 -55 39 -146 47 -207 18z"/>
<path d="M351 7646 c-183 -60 -189 -335 -9 -410 90 -38 214 -2 266 77 24 36
27 50 27 123 0 76 -2 86 -30 126 -56 79 -161 114 -254 84z"/>
<path d="M11395 7208 c-146 -53 -188 -233 -83 -353 136 -155 391 -44 376 164
-8 113 -90 193 -202 198 -33 1 -74 -2 -91 -9z"/>
<path d="M164 6766 c-43 -19 -101 -81 -116 -125 -17 -51 -15 -140 4 -176 42
-78 105 -115 198 -115 239 0 307 323 88 414 -45 19 -132 20 -174 2z"/>
<path d="M11518 6326 c-168 -46 -221 -247 -95 -363 54 -50 102 -66 178 -61
110 8 180 84 187 203 9 151 -125 261 -270 221z"/>
<path d="M125 5871 c-118 -53 -159 -204 -87 -320 75 -122 251 -130 350 -17 75
85 68 203 -17 287 -68 69 -163 88 -246 50z"/>
<path d="M11460 5429 c-109 -46 -168 -182 -124 -287 34 -84 109 -132 204 -132
123 0 204 77 217 206 5 44 1 62 -21 107 -38 78 -89 110 -181 114 -38 2 -81 -2
-95 -8z"/>
<path d="M215 4977 c-152 -86 -150 -302 5 -384 52 -27 132 -31 188 -7 170 71
176 310 10 395 -54 27 -151 26 -203 -4z"/>
<path d="M11292 4557 c-123 -45 -175 -180 -118 -303 36 -78 110 -124 200 -124
45 0 131 36 158 66 50 57 64 183 29 253 -50 98 -167 145 -269 108z"/>
<path d="M520 4140 c-108 -21 -170 -99 -170 -213 0 -84 29 -140 96 -185 46
-32 53 -34 121 -30 60 3 79 8 115 33 107 75 130 242 45 333 -46 50 -135 77
-207 62z"/>
<path d="M10976 3715 c-47 -16 -103 -69 -122 -112 -19 -45 -17 -130 5 -178 39
-86 139 -144 224 -131 117 19 189 105 189 227 0 153 -144 248 -296 194z"/>
<path d="M840 3314 c-77 -33 -122 -105 -122 -194 0 -168 176 -273 323 -194
155 85 152 307 -4 383 -52 25 -145 28 -197 5z"/>
<path d="M10521 2928 c-77 -38 -130 -138 -117 -221 19 -115 102 -187 216 -187
233 0 306 304 98 411 -52 27 -140 25 -197 -3z"/>
<path d="M1390 2590 c-184 -36 -236 -273 -87 -394 34 -27 48 -31 111 -34 59
-3 81 0 113 16 115 59 153 189 90 312 -39 75 -136 118 -227 100z"/>
<path d="M9958 2230 c-122 -65 -144 -237 -44 -347 117 -129 330 -64 366 112
20 98 -27 196 -114 236 -56 25 -159 25 -208 -1z"/>
<path d="M1980 1931 c-134 -41 -197 -173 -141 -297 50 -110 196 -163 302 -108
45 23 96 92 110 146 39 165 -110 308 -271 259z"/>
<path d="M9365 1641 c-85 -22 -147 -82 -164 -160 -32 -150 89 -287 236 -267
80 11 159 67 182 129 27 70 6 184 -42 235 -47 51 -146 80 -212 63z"/>
<path d="M2669 1376 c-87 -31 -137 -92 -146 -178 -14 -140 78 -247 215 -248
105 0 189 67 211 170 36 168 -122 313 -280 256z"/>
<path d="M8559 1122 c-122 -78 -135 -263 -25 -360 34 -29 89 -52 129 -52 45 0
109 25 148 58 122 104 100 289 -43 363 -25 13 -58 19 -101 19 -52 0 -71 -5
-108 -28z"/>
<path d="M3430 935 c-113 -51 -164 -189 -109 -301 76 -157 319 -157 390 1 43
95 8 229 -74 283 -50 33 -152 41 -207 17z"/>
<path d="M7788 771 c-102 -33 -161 -148 -137 -263 16 -76 82 -141 160 -158 47
-11 64 -10 112 4 109 32 162 104 155 216 -4 82 -36 136 -103 175 -49 29 -139
41 -187 26z"/>
<path d="M4288 630 c-52 -16 -98 -52 -126 -98 -55 -94 -26 -233 61 -290 36
-24 50 -27 127 -27 79 0 90 3 128 29 54 37 92 112 92 180 -1 148 -140 249
-282 206z"/>
<path d="M6955 531 c-105 -26 -165 -103 -165 -210 0 -73 12 -106 53 -150 139
-147 376 -53 377 148 0 144 -126 245 -265 212z"/>
<path d="M5133 449 c-85 -42 -127 -118 -121 -215 5 -77 38 -132 105 -171 41
-24 59 -28 120 -28 63 0 76 3 114 30 117 82 123 262 14 353 -67 54 -160 67
-232 31z"/>
<path d="M6056 428 c-57 -16 -128 -90 -145 -151 -31 -107 9 -205 100 -251 93
-46 194 -32 264 38 157 157 -4 424 -219 364z"/>
</g>
</svg>
