<?xml version="1.0" standalone="no"?>
<!DOCTYPE svg PUBLIC "-//W3C//DTD SVG 20010904//EN"
 "http://www.w3.org/TR/2001/REC-SVG-20010904/DTD/svg10.dtd">
<svg version="1.0" xmlns="http://www.w3.org/2000/svg"
 width="1122.000000pt" height="1043.000000pt" viewBox="0 0 1122.000000 1043.000000"
 preserveAspectRatio="xMidYMid meet">
<metadata>
Created by potrace 1.16, written by Peter Selinger 2001-2019
</metadata>
<g transform="translate(0.000000,1043.000000) scale(0.100000,-0.100000)"
fill="#000000" stroke="none">
<path d="M8790 10348 c-19 -46 -58 -134 -87 -195 -29 -62 -53 -115 -53 -117 0
-3 -23 -56 -51 -118 -28 -62 -80 -178 -116 -258 -36 -80 -76 -167 -88 -195
-13 -27 -35 -76 -50 -108 l-27 -58 -21 23 c-37 40 -130 106 -182 130 -39 17
-68 22 -135 22 -100 0 -154 -20 -222 -82 -65 -60 -93 -122 -92 -203 2 -123 66
-209 195 -263 91 -38 229 -28 324 23 118 63 162 130 342 521 32 70 106 226
190 401 l66 137 46 -20 c25 -11 55 -23 66 -27 11 -5 31 -13 45 -19 14 -6 48
-20 75 -32 28 -12 59 -25 70 -30 68 -30 95 -41 140 -58 43 -17 86 -36 190 -82
11 -5 58 -25 105 -43 47 -19 110 -46 140 -60 30 -13 88 -37 127 -51 l73 -28
-16 -36 c-9 -20 -36 -86 -61 -147 -25 -60 -77 -183 -114 -273 -38 -89 -69
-165 -69 -168 0 -3 -9 -26 -21 -52 -45 -104 -46 -105 -55 -90 -13 20 -93 82
-139 106 -97 52 -158 61 -248 38 -96 -25 -157 -65 -213 -140 -27 -36 -29 -46
-28 -120 1 -99 30 -165 96 -219 81 -65 102 -72 223 -72 104 0 114 2 176 32 36
18 77 43 92 57 14 13 27 22 29 21 8 -8 89 126 104 171 9 27 25 69 37 94 27 61
140 323 189 440 37 90 86 201 129 297 10 24 19 45 19 48 0 4 10 27 21 53 65
142 139 323 139 339 0 7 -4 13 -9 13 -5 0 -42 15 -83 34 -40 18 -104 46 -143
61 -38 15 -108 44 -155 65 -47 21 -130 56 -185 78 -55 22 -192 79 -305 127
-275 116 -271 115 -364 115 l-82 0 -34 -82z m164 -249 c56 -22 110 -44 121
-49 21 -9 57 -25 135 -58 25 -10 61 -25 80 -32 19 -7 59 -23 88 -36 29 -13 55
-24 58 -24 3 0 34 -13 67 -29 34 -15 73 -32 87 -36 14 -4 82 -32 152 -61 70
-30 131 -54 135 -54 5 0 17 -6 26 -12 14 -11 14 -15 2 -32 -14 -18 -16 -18
-82 9 -37 15 -86 36 -108 45 -104 45 -235 100 -239 100 -5 0 -35 13 -141 60
-79 35 -115 50 -120 50 -3 0 -72 29 -153 63 -81 35 -158 67 -172 71 -37 9 -63
33 -57 51 4 8 10 15 14 15 3 0 52 -18 107 -41z"/>
<path d="M10052 9073 c-12 -70 -75 -273 -110 -353 -55 -125 -125 -274 -238
-507 -52 -105 -94 -195 -94 -200 0 -7 -44 -43 -198 -160 -111 -84 -106 -81
-100 -55 3 12 2 20 -2 17 -5 -3 -12 9 -15 27 -24 107 -134 267 -222 322 -29
18 -49 36 -45 40 4 4 2 6 -3 5 -18 -5 -75 12 -75 23 0 6 -6 8 -14 5 -8 -3 -16
-1 -19 6 -2 8 -43 12 -133 12 -155 0 -201 -14 -287 -88 -57 -49 -89 -101 -117
-189 -6 -21 -17 -38 -23 -38 -8 0 -8 -3 -2 -8 6 -4 11 -33 12 -65 3 -132 44
-229 134 -317 61 -61 181 -130 225 -130 13 0 29 -6 36 -13 7 -8 20 -12 30 -9
10 2 18 -1 18 -8 0 -7 8 -10 20 -7 11 3 22 2 25 -3 3 -4 32 -8 66 -8 39 0 56
4 48 9 -9 6 0 9 26 9 48 0 155 30 211 58 22 11 62 40 89 64 55 49 85 72 85 63
0 -3 -25 -45 -55 -94 -30 -48 -59 -99 -65 -112 -5 -13 -33 -58 -60 -99 -27
-41 -53 -83 -56 -92 -4 -10 -10 -18 -14 -18 -5 0 -14 -16 -20 -35 -6 -19 -17
-41 -23 -48 -24 -25 -77 -106 -77 -116 0 -6 -3 -11 -8 -11 -4 0 -13 -13 -20
-30 -11 -25 -19 -30 -48 -30 -40 0 -55 -23 -31 -47 15 -15 13 -20 -16 -62 -18
-25 -35 -48 -38 -51 -4 -3 -23 -30 -43 -60 -60 -90 -101 -146 -124 -171 -12
-12 -22 -28 -22 -34 0 -7 -9 -20 -20 -30 -18 -16 -20 -16 -53 4 -52 32 -153
61 -213 61 -64 0 -102 -28 -139 -100 -23 -45 -24 -56 -20 -173 2 -69 11 -154
20 -191 l17 -66 -33 -38 c-31 -36 -93 -101 -213 -223 -32 -33 -60 -59 -62 -56
-4 4 3 49 35 222 11 60 17 113 12 118 -8 8 -26 12 -121 27 -36 6 -153 26 -261
45 -107 19 -229 40 -270 45 -41 5 -87 12 -104 15 -72 14 -65 24 -100 -145 -18
-85 -36 -178 -39 -205 -10 -73 -14 -77 -63 -60 -58 20 -119 2 -150 -44 -30
-44 -29 -72 3 -110 61 -73 188 -51 223 37 6 15 28 112 50 216 22 104 41 190
43 191 2 2 26 -1 53 -5 28 -5 101 -16 163 -26 99 -16 112 -20 112 -38 0 -21
-51 -299 -55 -304 -2 -2 -13 1 -24 7 -29 16 -84 16 -121 1 -36 -15 -60 -55
-60 -100 0 -89 138 -127 208 -57 31 31 35 44 67 211 19 98 35 188 35 200 1 50
6 51 182 21 89 -15 164 -28 166 -30 5 -5 -50 -300 -58 -309 -4 -4 -23 -2 -42
4 -82 30 -168 -25 -168 -107 0 -16 6 -37 13 -47 12 -17 8 -24 -47 -72 -34 -30
-85 -75 -115 -102 -29 -26 -57 -47 -61 -47 -5 0 -33 -21 -62 -46 -29 -25 -71
-57 -93 -71 -22 -14 -47 -33 -54 -42 -8 -10 -32 -26 -53 -37 -21 -11 -38 -25
-38 -31 0 -6 -3 -8 -7 -4 -4 3 -20 -6 -37 -22 -17 -16 -65 -48 -106 -72 -41
-24 -84 -52 -94 -62 -18 -17 -21 -16 -72 31 -72 66 -153 85 -279 68 -22 -3
-87 -9 -145 -12 -58 -3 -125 -8 -150 -10 -28 -3 -51 0 -60 8 -31 26 -120 136
-113 139 5 2 24 5 43 7 19 1 85 12 145 22 273 49 336 48 428 -11 37 -23 49
-39 64 -80 12 -34 23 -50 33 -48 41 8 7 125 -55 190 -91 95 -208 118 -410 79
-139 -26 -280 -23 -415 9 -52 13 -108 23 -124 24 -56 2 -49 -9 103 -169 31
-33 148 -160 259 -282 111 -122 207 -225 212 -228 24 -15 5 -37 -62 -69 -40
-19 -129 -62 -198 -95 -69 -33 -128 -61 -133 -60 -4 0 -20 -7 -35 -15 -15 -8
-47 -23 -72 -34 -25 -11 -74 -34 -110 -50 -36 -16 -81 -33 -100 -37 l-34 -7
47 48 c26 27 47 54 46 59 0 6 -13 20 -29 33 l-29 23 -81 -81 c-44 -44 -83 -80
-87 -80 -5 0 -23 32 -42 70 -35 72 -56 86 -81 54 -11 -13 -7 -28 29 -94 40
-75 41 -81 27 -102 -9 -12 -27 -23 -40 -25 -14 -2 -37 -10 -53 -18 -40 -21
-49 -19 -63 15 -19 46 -35 55 -65 36 l-26 -17 22 -35 c12 -19 20 -36 18 -38
-2 -2 -35 -13 -74 -26 -38 -12 -77 -25 -85 -28 -8 -3 -19 -6 -25 -7 -5 -2 -80
-26 -166 -54 -85 -28 -160 -51 -166 -51 -5 0 -23 -7 -40 -15 -16 -8 -45 -17
-64 -19 -19 -3 -51 -12 -72 -21 -32 -13 -180 -63 -212 -71 -31 -8 -288 -105
-340 -129 -16 -7 -50 -21 -75 -30 -43 -17 -83 -34 -173 -74 -118 -54 -181 -81
-189 -81 -4 0 -27 -12 -49 -26 -23 -14 -42 -24 -44 -22 -2 2 61 136 141 297
80 161 143 300 140 307 -4 11 -14 10 -52 -4 l-47 -17 -100 -205 c-55 -113
-126 -260 -158 -327 -67 -142 -90 -163 -137 -125 -15 12 -51 34 -81 48 -46 22
-65 25 -126 22 -59 -3 -81 -9 -121 -33 -59 -37 -91 -82 -100 -141 -5 -38 -2
-54 23 -104 l29 -58 -29 -25 c-15 -13 -57 -41 -93 -62 -36 -21 -69 -45 -74
-54 -5 -9 -10 -12 -10 -7 0 5 -11 -3 -25 -18 -18 -19 -30 -25 -38 -18 -221
172 -238 181 -306 162 -94 -25 -129 -121 -68 -187 47 -52 136 -34 183 36 l26
41 29 -23 c16 -12 42 -32 58 -44 l29 -23 -33 -33 c-18 -18 -49 -45 -69 -60
l-35 -27 -507 0 -507 0 449 453 c880 884 1079 1088 1082 1103 6 24 -18 73 -40
85 -11 6 -37 8 -58 4 -34 -6 -79 -48 -420 -393 -210 -213 -576 -582 -813 -819
l-431 -433 -296 0 c-421 0 -433 -4 -653 -229 -145 -149 -172 -190 -193 -286
-19 -87 -19 -1813 0 -1900 34 -156 137 -248 311 -275 48 -7 512 -10 1500 -8
l1430 3 60 33 c227 124 398 272 429 370 12 39 15 189 20 887 6 768 8 843 24
873 10 19 27 35 42 39 14 3 30 9 35 13 8 6 59 21 85 25 3 0 10 3 16 7 6 4 26
10 45 13 19 3 93 24 166 46 72 21 138 39 146 39 8 0 41 8 73 19 33 10 78 21
100 23 l41 6 22 -54 c19 -44 32 -59 78 -88 106 -66 207 -71 320 -16 75 37 127
94 181 198 l40 77 204 33 c254 42 228 38 327 57 46 9 98 18 117 20 37 5 240
45 355 70 41 9 91 23 112 31 51 19 60 18 47 -6 -6 -11 -40 -91 -75 -178 -109
-269 -174 -425 -179 -429 -3 -3 -30 15 -60 40 -63 51 -148 87 -205 87 -96 0
-227 -74 -257 -146 -32 -76 -7 -184 59 -252 91 -95 288 -95 408 0 48 38 109
118 109 144 0 7 17 50 38 96 21 45 76 171 121 278 45 107 104 244 131 304 l49
110 53 17 c29 10 61 18 71 18 9 1 25 5 35 10 44 21 112 38 112 27 0 -6 -16
-56 -36 -111 -55 -154 -144 -422 -144 -433 0 -6 10 -14 23 -17 12 -4 97 -36
190 -71 92 -35 245 -93 340 -129 94 -36 238 -91 319 -122 l147 -57 -35 -40
c-85 -99 -109 -213 -69 -324 34 -93 137 -172 225 -172 66 1 167 77 205 155 28
57 32 169 9 241 -35 113 -113 183 -256 229 -46 15 -144 51 -218 80 -185 73
-485 189 -543 211 -26 9 -49 20 -52 23 -2 4 12 52 32 107 19 54 51 146 70 204
94 287 121 348 153 356 3 0 14 4 25 9 96 38 144 55 156 55 8 0 77 -22 154 -49
149 -52 422 -148 443 -156 8 -3 1 -20 -23 -54 -104 -144 -98 -313 15 -414 99
-90 202 -88 303 4 71 66 111 243 73 332 -23 56 -106 138 -166 165 -59 26 -211
83 -300 113 -30 10 -120 42 -200 73 -108 41 -140 56 -125 62 19 6 108 47 251
115 33 16 66 29 72 29 7 0 12 5 12 10 0 6 9 10 20 10 11 0 20 3 20 8 0 4 15
13 33 21 17 8 35 18 38 23 3 5 12 10 20 12 14 2 25 8 117 58 48 26 53 27 58
11 3 -10 17 -44 32 -76 31 -69 85 -110 169 -127 47 -10 62 -9 102 5 86 33 138
100 161 209 15 74 6 134 -30 209 l-29 57 21 19 c11 11 33 25 49 31 16 7 29 16
29 21 0 5 6 9 14 9 8 0 23 10 33 23 10 12 36 34 58 47 22 13 45 29 51 35 27
24 61 52 94 74 19 14 42 31 50 38 28 25 67 58 104 88 21 17 52 43 69 58 56 49
66 51 78 20 42 -111 52 -153 52 -233 1 -47 -2 -94 -5 -105 -4 -11 -7 -23 -7
-27 -1 -3 -13 -21 -27 -38 -31 -36 -83 -64 -137 -74 l-38 -7 27 40 c47 71 29
170 -39 212 -61 38 -172 0 -217 -74 -42 -68 -14 -188 53 -234 33 -22 124 -43
189 -43 21 0 68 10 105 22 54 18 80 34 134 85 104 99 142 217 120 372 -11 71
-47 197 -71 240 -8 16 23 52 233 263 133 134 260 264 282 289 94 105 133 149
175 198 25 29 54 63 65 75 37 41 103 121 134 161 29 38 43 57 89 114 l19 24 6
-53 c12 -104 43 -172 105 -235 85 -86 122 -100 263 -100 112 0 117 1 158 30
62 43 147 140 181 207 62 124 67 282 13 399 -56 121 -156 235 -263 296 -25 15
-47 28 -49 30 -3 2 3 11 13 21 9 9 30 37 45 62 16 25 41 65 57 89 40 61 58 90
83 134 105 186 95 166 181 352 18 39 35 78 37 88 1 10 10 31 18 47 15 29 75
228 75 249 0 29 -21 -5 -36 -57 -9 -31 -44 -113 -79 -182 -75 -151 -76 -152
-207 -347 -26 -39 -48 -76 -48 -81 0 -6 -4 -12 -8 -14 -11 -5 -152 -215 -152
-228 0 -5 -4 -10 -9 -10 -6 0 -20 -18 -32 -40 l-23 -40 -35 22 c-20 12 -57 33
-82 47 -206 115 -258 148 -259 158 0 6 4 13 8 15 10 4 66 87 88 131 16 29 18
30 28 13 25 -42 59 -76 77 -76 24 0 24 23 -1 79 -35 77 -26 112 65 256 18 28
54 91 80 140 27 49 56 104 66 121 33 60 99 198 99 209 0 4 7 21 15 38 40 86
113 318 129 410 12 69 -12 38 -39 -50 -15 -49 -31 -92 -36 -97 -5 -6 -9 -17
-9 -26 0 -22 -115 -248 -133 -261 -5 -3 -9 -10 -9 -15 0 -5 -22 -46 -49 -90
-27 -45 -49 -87 -49 -93 0 -6 -4 -11 -10 -11 -5 0 -10 -6 -10 -13 0 -8 -9 -22
-19 -31 -11 -10 -25 -31 -32 -48 l-13 -31 -13 58 c-18 79 -50 131 -123 198
l-61 57 49 92 c80 150 90 171 165 343 56 128 131 362 152 475 3 14 7 37 11 53
6 27 -13 41 -20 15 -41 -150 -148 -416 -175 -438 -3 -3 -12 -22 -20 -44 -7
-21 -40 -81 -72 -133 -32 -52 -59 -97 -59 -100 0 -3 -22 -43 -49 -89 -27 -46
-52 -93 -56 -105 -5 -15 -13 -20 -28 -16 -130 30 -137 30 -224 13 -67 -13
-104 -28 -177 -70 -50 -30 -101 -57 -113 -60 -29 -9 -28 -5 50 132 169 302
367 684 367 710 0 6 4 12 10 12 5 0 9 3 8 8 -3 11 11 51 38 107 13 28 34 80
47 117 24 69 40 86 180 185 37 26 128 97 241 186 43 34 86 67 95 72 44 26 71
55 71 74 0 24 -7 27 -61 35 -20 3 -48 10 -61 15 -58 22 -121 -12 -307 -164
-24 -20 -45 -35 -46 -33 -2 2 3 32 10 68 17 77 19 120 5 120 -5 0 -12 -12 -16
-27 -42 -187 -46 -194 -113 -244 -31 -24 -72 -54 -91 -69 -222 -169 -330 -249
-330 -246 0 2 18 43 40 91 22 48 40 93 40 100 0 7 3 15 8 17 4 2 15 26 26 53
55 145 80 217 97 280 11 39 29 102 40 140 25 89 25 90 44 212 18 124 18 113 1
113 -8 0 -17 -23 -24 -67z m17 -1015 c-19 -35 -37 -64 -41 -66 -5 -2 -8 -8 -8
-14 0 -11 -82 -176 -163 -328 -25 -47 -67 -125 -93 -175 -26 -49 -50 -92 -53
-95 -6 -5 -28 -45 -68 -122 -23 -45 -82 -143 -133 -220 -20 -30 -37 -42 -85
-58 -60 -19 -316 -72 -322 -66 -2 1 6 14 17 29 11 14 20 30 20 35 0 6 15 30
34 55 19 24 40 55 46 68 7 13 16 26 19 29 3 3 15 23 26 44 11 22 25 44 30 50
6 6 19 27 29 46 10 19 32 54 48 78 15 24 28 47 28 52 0 9 40 81 50 90 3 3 27
49 54 103 72 141 79 151 143 196 32 23 78 57 103 77 25 19 74 57 110 84 36 28
103 79 149 115 46 36 86 63 89 61 2 -3 -11 -33 -29 -68z m54 -1015 c-3 -10
-11 -25 -18 -33 -7 -8 -27 -42 -45 -75 -19 -33 -44 -73 -57 -88 -13 -16 -23
-35 -23 -42 0 -7 -11 -27 -25 -43 -14 -17 -25 -33 -25 -36 0 -4 -31 -53 -68
-111 l-68 -104 -35 21 c-18 12 -52 31 -74 42 -22 12 -85 48 -140 81 -55 32
-101 60 -103 60 -5 3 29 63 41 73 6 5 45 23 85 40 81 34 242 123 341 189 61
41 66 43 142 43 70 0 78 -2 72 -17z m166 -64 c77 -55 110 -172 73 -257 -11
-26 -24 -72 -27 -102 -4 -30 -15 -67 -26 -82 -10 -15 -19 -30 -19 -33 0 -3
-30 -50 -66 -105 l-66 -99 -47 27 c-25 15 -86 50 -133 77 -48 28 -88 56 -88
63 0 6 8 20 18 30 19 20 36 48 64 102 10 19 27 44 38 57 11 13 20 26 20 29 0
3 15 29 33 57 19 29 62 100 97 160 35 59 69 107 75 107 7 0 31 -14 54 -31z
m-1101 -297 c34 -20 62 -41 61 -47 0 -5 -10 -24 -22 -41 -12 -18 -48 -71 -80
-118 -33 -47 -63 -86 -68 -86 -5 0 -9 -7 -9 -15 0 -8 -3 -15 -7 -15 -5 0 -24
-24 -43 -53 -19 -28 -54 -74 -77 -102 -24 -27 -43 -55 -43 -62 0 -7 -6 -16
-12 -20 -7 -4 -31 -30 -53 -58 l-40 -50 -7 77 c-8 93 -28 162 -61 214 -22 37
-23 40 -8 65 31 51 56 85 91 125 19 23 48 61 63 85 15 24 43 64 62 89 19 25
38 52 42 60 4 8 14 22 22 32 17 19 8 23 189 -80z m186 -101 c6 -9 62 -42 171
-101 29 -15 77 -42 108 -60 l57 -32 -45 -64 c-25 -35 -45 -67 -45 -70 0 -4 -8
-14 -18 -23 -9 -9 -23 -28 -31 -43 -8 -15 -21 -36 -30 -45 -38 -43 -91 -112
-91 -120 0 -4 -16 -24 -35 -43 -19 -19 -35 -39 -35 -45 0 -9 -18 -31 -96 -117
-13 -14 -24 -29 -24 -33 0 -4 -30 -42 -67 -84 -38 -43 -90 -104 -118 -137 -44
-51 -82 -94 -195 -220 -40 -43 -130 -67 -130 -34 0 4 -19 41 -43 82 -23 40
-54 94 -67 121 -25 47 -25 48 -6 80 10 17 32 59 49 92 34 68 114 185 126 185
4 0 26 26 49 58 22 31 67 89 99 127 32 39 68 86 80 105 12 20 34 49 48 65 15
17 38 48 52 70 14 22 39 56 55 75 36 44 35 42 88 120 71 102 81 112 94 91z
m-923 -227 c82 -41 86 -64 21 -131 -21 -21 -49 -55 -62 -75 -29 -44 -35 -46
-44 -15 -10 33 -20 223 -12 242 7 19 26 15 97 -21z m1495 -100 l134 -76 -21
-27 c-11 -14 -40 -56 -65 -93 -25 -38 -49 -68 -54 -68 -6 0 -10 -5 -10 -11 0
-5 -15 -30 -32 -53 -18 -24 -40 -54 -48 -66 -31 -46 -83 -110 -89 -110 -3 0
-12 -12 -18 -27 -7 -16 -26 -43 -43 -61 -16 -18 -42 -49 -57 -70 -16 -20 -32
-42 -38 -48 -5 -7 -26 -31 -45 -54 -19 -23 -43 -51 -52 -62 -10 -12 -18 -25
-18 -30 0 -4 -6 -8 -12 -8 -7 -1 -31 -24 -53 -52 -22 -28 -59 -70 -81 -94 -41
-42 -42 -43 -59 -23 -26 28 -157 88 -208 95 -67 9 -73 17 -40 50 30 31 50 55
122 144 25 30 53 62 62 70 9 8 37 42 62 75 25 33 59 73 76 89 17 17 31 33 31
38 0 8 14 27 67 87 18 20 33 39 33 42 0 3 8 15 18 27 39 46 49 59 82 107 19
28 52 70 74 95 21 25 41 52 45 60 11 27 86 129 95 130 4 0 68 -34 142 -76z
m-1325 -101 c17 -43 23 -80 23 -143 1 -84 1 -86 -53 -185 -74 -140 -70 -137
-102 -66 -34 74 -79 203 -79 225 0 9 4 16 8 16 4 0 16 14 26 30 9 17 36 50 59
73 47 49 77 87 77 99 0 4 4 8 9 8 5 0 20 -26 32 -57z m1695 -109 c52 -30 96
-54 98 -54 3 0 32 -16 66 -36 l61 -37 -17 -26 c-20 -31 -96 -134 -105 -141 -3
-3 -19 -25 -34 -50 -15 -25 -31 -47 -35 -50 -3 -3 -20 -25 -37 -50 -17 -25
-40 -54 -50 -65 -10 -11 -33 -40 -50 -65 -17 -25 -72 -94 -123 -155 -50 -60
-98 -119 -107 -130 -26 -33 -117 -138 -133 -155 -8 -9 -44 -49 -80 -90 -36
-40 -96 -105 -133 -144 -157 -163 -209 -216 -212 -216 -1 0 9 28 23 63 52 128
39 293 -34 424 l-34 62 46 53 c55 62 83 94 104 117 8 9 35 41 60 71 25 30 47
57 50 60 3 3 30 34 60 70 30 36 61 71 68 78 6 7 12 17 12 22 0 5 6 15 13 22
24 25 147 177 147 183 0 5 67 102 85 121 23 26 43 52 46 60 2 6 24 40 48 76
l44 67 30 -15 c16 -9 71 -40 123 -70z m-1947 -389 c19 -38 35 -73 38 -77 4 -8
-243 -258 -255 -258 -5 0 -15 -11 -22 -25 -7 -13 -16 -23 -19 -22 -3 1 -34
-26 -68 -60 -34 -33 -64 -59 -66 -56 -3 2 -13 -6 -23 -19 -11 -13 -50 -49 -89
-80 -38 -30 -83 -70 -99 -87 -17 -17 -35 -31 -40 -31 -6 0 -31 -19 -56 -41
-25 -22 -57 -47 -72 -55 -27 -14 -28 -13 -28 8 0 42 -45 94 -95 112 -42 14
-50 14 -84 0 -105 -42 -117 -187 -20 -242 16 -10 29 -19 29 -22 0 -3 -26 -21
-57 -39 -32 -19 -76 -49 -98 -66 -22 -17 -59 -41 -82 -53 -56 -28 -83 -44
-105 -62 -23 -18 -142 -86 -188 -107 -19 -8 -37 -18 -40 -22 -3 -3 -24 -16
-46 -28 l-41 -23 -96 108 -95 107 69 36 c38 20 74 41 81 47 30 24 169 89 174
81 11 -19 34 -8 34 15 0 18 15 33 63 65 35 22 69 41 75 41 7 0 12 5 12 10 0 6
6 10 14 10 8 0 38 20 67 45 29 25 58 45 65 45 6 0 36 19 67 43 30 23 65 49 77
57 23 15 81 60 90 70 3 3 23 17 45 31 22 15 63 47 90 73 28 25 54 46 58 46 5
0 48 35 95 78 48 43 99 83 114 90 15 6 41 33 58 59 16 26 30 44 30 39 0 -9
106 97 285 286 l70 73 26 -65 c14 -36 40 -96 58 -135z m179 -352 l53 -106 -42
-41 c-61 -60 -113 -145 -128 -209 -9 -43 -20 -62 -46 -84 -19 -15 -56 -47 -82
-71 -44 -40 -48 -41 -51 -22 -5 28 25 171 49 240 11 30 21 62 23 70 13 52 152
330 164 330 4 0 31 -48 60 -107z m-392 -137 c-31 -48 -88 -200 -102 -275 -22
-115 -23 -130 -13 -213 7 -59 7 -82 -3 -98 -7 -11 -17 -20 -21 -20 -5 0 -25
-16 -45 -35 -20 -19 -49 -41 -64 -48 -16 -6 -28 -15 -28 -19 0 -4 -18 -17 -40
-29 -22 -13 -40 -26 -40 -31 0 -4 -6 -8 -12 -8 -7 0 -35 -18 -63 -40 -27 -22
-53 -40 -57 -40 -4 0 -44 -25 -88 -55 -44 -30 -85 -55 -91 -55 -6 0 -31 -14
-55 -32 l-44 -31 -80 27 c-60 21 -84 26 -94 17 -7 -6 -26 -49 -42 -95 -27 -81
-30 -85 -74 -106 -25 -12 -80 -39 -122 -61 -42 -21 -79 -39 -81 -39 -3 0 0 21
4 48 5 26 7 61 3 77 -10 54 -45 139 -72 178 -36 54 -29 62 111 128 26 12 47
25 47 29 0 4 24 17 53 30 28 13 54 26 57 30 3 4 38 26 77 48 40 22 94 57 119
76 26 20 54 36 62 36 8 0 38 19 66 43 28 23 62 48 76 53 14 6 45 28 69 48 24
21 57 44 72 51 15 8 29 18 31 22 1 5 37 34 78 66 75 57 140 109 193 152 16 13
55 48 87 79 31 30 59 53 62 51 2 -3 20 11 38 30 40 41 49 45 26 11z m858 3
c31 -11 83 -38 116 -61 l60 -40 -60 -61 c-32 -34 -75 -79 -93 -100 l-34 -39
-20 29 c-11 15 -46 76 -78 135 -31 60 -61 111 -67 114 -5 3 -2 14 8 25 23 26
97 25 168 -2z m-241 -299 l75 -145 -50 -45 c-27 -25 -63 -57 -79 -72 -16 -16
-40 -35 -53 -43 -23 -15 -25 -14 -69 35 -57 63 -70 102 -65 194 l3 72 64 59
c36 33 71 68 80 77 8 10 16 16 17 15 1 -1 35 -67 77 -147z m535 30 c14 -31 28
-79 30 -110 7 -102 -43 -237 -105 -283 -13 -11 -26 -17 -27 -15 -2 1 -28 48
-58 103 -31 55 -65 117 -77 139 -12 21 -21 40 -19 43 2 2 48 50 103 107 113
117 106 117 153 16z m-2557 -90 c20 -6 43 -18 52 -28 16 -17 14 -20 -26 -43
-23 -13 -46 -24 -50 -24 -4 0 -12 -7 -17 -15 -5 -8 -10 -10 -10 -5 0 6 -3 6
-8 -1 -4 -6 -51 -34 -104 -62 l-97 -52 -78 86 c-43 47 -79 91 -81 98 -3 13 81
28 238 43 30 3 57 7 59 9 8 8 87 4 122 -6z m1688 -103 c6 -30 21 -71 32 -93
20 -38 77 -98 102 -107 14 -4 -39 -72 -64 -81 -8 -4 -25 -15 -36 -26 -21 -19
-21 -19 -56 8 -47 36 -109 123 -128 179 l-15 46 68 63 c37 35 71 64 76 64 5 0
14 -24 21 -53z m573 -294 c20 -25 1 -45 -67 -76 -66 -30 -77 -31 -195 -32
-125 0 -200 9 -200 24 0 4 11 14 25 21 14 7 25 19 25 27 0 7 3 13 8 13 4 0 32
20 62 45 30 25 63 45 72 45 11 0 18 8 18 19 0 10 23 38 52 62 28 24 58 51 66
60 13 14 20 4 69 -90 31 -58 60 -111 65 -118z m-922 63 c0 -26 100 -151 149
-187 l49 -35 -22 -21 c-11 -11 -50 -39 -86 -62 -35 -23 -67 -45 -70 -49 -7
-10 -78 -62 -84 -62 -6 0 -58 -35 -106 -72 l-36 -27 -131 49 c-73 27 -159 56
-192 66 l-61 17 57 39 c31 22 78 52 104 66 81 47 279 182 279 192 0 6 6 10 14
10 8 0 25 9 38 20 12 10 37 30 53 44 34 29 45 32 45 12z m-1540 -120 l91 -99
-44 -17 c-24 -9 -64 -30 -88 -47 -24 -17 -70 -40 -102 -52 -32 -12 -75 -30
-95 -41 -20 -10 -75 -36 -122 -56 -47 -20 -112 -49 -145 -64 -33 -15 -80 -34
-105 -41 -25 -7 -54 -18 -65 -25 -17 -10 -90 -37 -105 -39 -3 0 -12 -4 -20 -9
-8 -5 14 21 50 58 l65 66 -33 32 -32 33 -78 -78 -78 -77 -43 81 c-24 44 -39
84 -35 88 12 10 177 71 192 71 7 0 12 5 12 11 0 6 7 9 15 5 8 -3 15 -1 15 3 0
5 21 17 48 27 70 26 145 59 396 178 65 31 125 56 132 56 8 0 14 3 14 8 0 9 41
30 57 28 7 0 53 -46 103 -100z m2504 -123 c-23 -21 -61 -54 -85 -73 -24 -19
-45 -38 -47 -42 -2 -4 -10 -8 -18 -8 -8 0 -14 -7 -14 -15 0 -8 -5 -15 -11 -15
-11 0 -78 -52 -134 -102 -16 -16 -33 -28 -37 -28 -5 0 -18 -9 -30 -19 -13 -11
-34 -29 -47 -40 -13 -12 -56 -42 -95 -68 -39 -27 -77 -54 -85 -61 -11 -11 -17
-10 -35 7 -12 12 -58 32 -102 46 -140 43 -313 108 -309 116 3 3 39 30 81 58
41 28 81 56 87 61 7 6 31 23 54 38 23 15 55 40 72 55 18 15 45 36 62 46 28 17
35 18 82 4 78 -21 93 -23 207 -29 128 -7 250 16 362 70 40 19 75 35 78 35 2 1
-14 -16 -36 -36z m-6384 -127 c0 -6 -215 -225 -835 -851 -419 -422 -601 -613
-603 -630 -3 -22 0 -25 31 -25 47 0 177 -34 227 -60 57 -29 85 -24 85 15 0 26
-7 33 -45 52 l-45 22 256 1 c141 0 324 -3 406 -7 l151 -6 -76 -73 -77 -73
-895 -1 c-492 0 -906 -3 -920 -6 -20 -5 -14 5 33 50 104 100 157 116 387 115
l165 0 -60 -22 c-55 -20 -60 -25 -60 -52 0 -42 25 -43 132 -6 48 16 123 35
166 42 l77 13 746 753 c410 414 748 753 750 753 2 0 4 -2 4 -4z m2875 -161
l50 -97 -33 -29 c-18 -16 -41 -29 -52 -29 -10 0 -21 -4 -24 -9 -3 -4 -15 -8
-28 -7 -17 1 -31 18 -60 75 l-38 74 62 63 c34 35 64 61 68 59 3 -2 28 -47 55
-100z m821 57 c-36 -69 0 -239 60 -288 l26 -21 -59 -23 c-32 -12 -77 -31 -100
-41 -24 -11 -47 -19 -53 -19 -6 0 -18 -4 -28 -10 -30 -16 -279 -101 -307 -104
-5 -1 -12 -4 -15 -7 -3 -3 -44 -15 -92 -28 l-87 -23 -59 22 c-57 21 -60 24
-100 99 l-41 77 52 51 c79 77 85 76 133 -20 43 -85 57 -97 88 -74 17 13 16 17
-23 90 -36 67 -52 112 -35 95 3 -3 62 17 132 44 70 27 138 53 152 58 14 4 49
20 77 34 29 14 57 26 62 26 9 0 95 36 166 70 58 28 69 26 51 -8z m1167 -23
c51 -17 125 -42 165 -56 l72 -26 -66 -38 c-36 -21 -89 -51 -117 -66 -29 -15
-71 -40 -94 -55 -23 -15 -48 -28 -55 -28 -8 0 -18 -4 -23 -9 -6 -6 -32 -21
-58 -36 l-48 -25 6 22 c4 13 31 95 61 183 30 87 54 161 54 162 0 6 13 2 103
-28z m-2287 -40 c-13 -10 -43 -41 -66 -69 l-42 -50 24 -29 c12 -17 26 -29 30
-28 4 1 32 26 62 55 l55 53 30 -53 c17 -29 31 -55 31 -58 0 -15 -20 -27 -60
-39 -46 -13 -180 -52 -260 -77 -25 -7 -76 -22 -115 -33 -240 -68 -324 -93
-359 -105 -36 -12 -43 -12 -85 8 -69 31 -233 30 -315 -3 -75 -30 -131 -85
-149 -148 -12 -40 -19 -48 -45 -55 -17 -5 -34 -13 -37 -18 -3 -6 -13 -10 -22
-10 -9 0 -34 -9 -57 -19 -23 -11 -81 -36 -131 -56 -49 -20 -146 -64 -215 -98
-69 -34 -131 -62 -138 -63 -8 -2 -30 -14 -50 -27 -21 -14 -59 -36 -87 -48 -27
-13 -52 -25 -55 -28 -11 -12 -67 -48 -110 -70 -25 -13 -95 -56 -157 -97 -109
-72 -163 -92 -163 -59 0 8 -12 21 -27 29 -16 8 -41 28 -56 44 l-28 30 46 28
c26 16 75 50 110 77 36 26 67 47 71 47 4 0 15 7 24 15 14 13 22 12 65 -1 100
-31 212 -17 271 33 30 26 88 117 123 195 l30 67 125 61 c69 33 129 60 133 60
5 0 39 16 76 35 38 19 72 35 78 35 5 0 32 11 59 24 28 14 64 28 80 31 17 4 30
10 30 14 0 7 66 35 85 36 6 0 15 4 21 7 20 13 437 154 539 183 28 8 70 21 95
30 25 9 52 18 60 20 8 2 52 15 98 28 45 14 82 22 82 20 0 -3 6 -1 13 4 11 10
103 42 130 47 7 1 22 7 34 14 12 7 30 12 41 12 11 0 35 6 53 14 43 18 57 10
25 -15z m1798 -235 c-31 -87 -61 -174 -66 -191 -6 -22 -15 -33 -27 -33 -10 0
-21 -3 -25 -7 -4 -5 -11 -8 -14 -8 -4 -1 -25 -9 -47 -19 -22 -10 -50 -22 -62
-27 -13 -5 -35 -14 -50 -20 -56 -23 -69 -28 -98 -34 -16 -4 -43 -13 -60 -20
-39 -18 -179 -70 -275 -102 -89 -29 -90 -29 -270 50 -69 30 -147 63 -174 74
l-48 20 88 28 c126 39 279 92 351 121 34 14 70 27 80 29 10 2 20 4 23 5 3 1 8
2 13 1 4 0 7 3 7 9 0 5 8 10 18 10 9 0 37 9 61 20 26 12 72 22 110 24 74 3
113 20 181 76 25 21 72 50 105 65 33 15 87 40 120 55 33 16 70 31 83 35 12 3
23 12 23 18 1 7 3 5 6 -4 2 -9 -22 -87 -53 -175z m1013 96 l162 -54 -25 -29
c-28 -33 -84 -139 -84 -159 0 -13 -62 -58 -80 -58 -5 0 -10 -3 -10 -7 0 -5
-10 -13 -23 -19 -60 -29 -174 -89 -187 -100 -8 -6 -26 -15 -40 -19 -14 -4 -36
-15 -50 -24 -14 -9 -50 -28 -80 -41 -30 -13 -62 -30 -71 -37 -9 -7 -19 -10
-22 -6 -4 3 -7 1 -7 -5 0 -7 -7 -12 -15 -12 -9 0 -51 -16 -93 -36 -42 -20 -85
-38 -95 -40 -26 -5 -179 57 -173 70 3 6 26 75 51 153 36 109 53 146 71 158 13
8 24 12 24 9 0 -4 9 1 19 10 11 10 25 19 33 20 20 4 92 40 99 49 3 5 9 8 13 8
8 -2 66 28 85 42 7 6 20 12 28 13 8 1 49 25 91 52 124 79 196 120 207 118 6
-1 83 -27 172 -56z m-2712 -200 l-80 -80 33 -32 32 -33 63 63 c34 34 65 62 69
62 3 0 16 -20 28 -44 l21 -44 -33 -66 c-29 -59 -36 -67 -68 -72 -19 -3 -78
-17 -130 -31 -105 -27 -104 -27 -175 -43 -27 -6 -70 -17 -95 -25 -25 -8 -61
-16 -80 -19 -65 -10 -229 -50 -333 -82 l-22 -6 21 23 c59 66 71 154 30 231
l-24 45 77 18 c42 10 101 26 131 36 79 25 235 70 257 74 10 2 18 4 18 5 0 1 9
3 20 5 11 3 85 24 165 49 80 24 147 45 150 45 2 1 -31 -35 -75 -79z m-907
-313 c2 -69 0 -87 -17 -114 -23 -37 -46 -41 -91 -18 -40 21 -77 72 -89 125
-11 48 -6 64 15 56 7 -3 16 -1 18 3 5 7 38 17 71 21 3 1 19 7 37 15 22 9 36
10 43 4 6 -6 11 -47 13 -92z m2458 -15 c-20 -55 -36 -103 -36 -107 0 -4 -17
-54 -37 -111 -32 -90 -41 -105 -63 -110 -26 -6 -101 -30 -135 -44 -26 -11
-105 -29 -105 -24 0 1 16 38 35 81 20 42 35 86 33 97 -2 16 -29 30 -115 64
-62 24 -113 47 -113 52 0 4 17 10 38 13 20 4 53 15 74 25 20 10 58 25 85 32
26 8 59 20 73 27 14 7 30 13 35 13 8 0 93 32 240 90 11 4 21 6 23 5 2 -2 -13
-48 -32 -103z m-3807 38 c36 -10 101 -50 101 -62 0 -4 -17 -15 -37 -24 -21
-10 -51 -27 -68 -39 -16 -12 -60 -40 -97 -63 l-68 -41 -20 26 c-58 74 -20 166
82 198 53 17 65 17 107 5z m2321 -34 c0 -3 -24 -58 -53 -123 -30 -65 -60 -133
-67 -150 -7 -18 -15 -33 -19 -33 -3 0 -38 -7 -76 -15 -39 -9 -104 -22 -145
-30 -41 -8 -86 -17 -100 -20 -14 -3 -37 -7 -53 -10 -15 -2 -42 -8 -60 -14 -17
-5 -48 -12 -67 -15 -45 -7 -94 -18 -200 -45 -47 -12 -96 -24 -110 -26 -57 -11
-70 -14 -89 -24 -11 -6 -33 -13 -48 -16 -23 -3 -58 -10 -70 -14 -2 -1 -5 -1
-8 -1 -3 0 -21 -6 -41 -15 -29 -12 -43 -12 -79 -3 -62 17 -120 -2 -146 -47
-16 -27 -32 -37 -77 -50 -31 -9 -96 -32 -144 -51 l-88 -34 -36 40 c-21 23 -67
56 -106 75 l-69 34 40 12 c23 7 46 18 52 26 6 7 17 13 24 13 7 0 38 12 70 26
56 26 56 26 78 6 75 -68 208 -26 224 70 7 45 9 47 130 87 51 16 101 35 112 41
12 6 40 14 63 19 24 5 97 25 163 45 66 21 131 39 145 41 14 2 25 4 25 5 0 1 9
3 20 5 11 2 45 11 75 19 30 9 96 25 145 35 50 11 144 33 210 49 66 17 156 38
200 47 44 9 98 23 120 30 45 15 55 17 55 11z m-1356 -66 c14 -22 43 -51 64
-65 40 -26 122 -55 160 -55 51 0 12 -19 -164 -78 -185 -63 -187 -63 -208 -44
-80 72 -203 29 -221 -77 -6 -37 -10 -41 -63 -62 -31 -12 -66 -28 -77 -36 -11
-7 -27 -13 -37 -13 -10 0 -18 -4 -18 -10 0 -5 -7 -10 -16 -10 -8 0 -48 -16
-87 -35 l-73 -35 -199 2 -200 3 38 19 c20 11 37 23 37 28 0 4 6 8 14 8 8 0 28
12 45 26 17 14 31 22 31 18 0 -4 10 2 23 13 27 26 201 121 221 121 5 0 12 4
15 9 8 12 270 141 371 182 41 18 89 38 105 46 73 34 125 55 137 55 7 1 24 7
38 15 34 20 34 20 64 -25z m-813 -73 c-14 -41 -44 -71 -93 -92 -38 -15 -143
-21 -151 -7 -2 4 9 18 26 32 17 14 28 18 23 10 -7 -13 -6 -13 6 0 28 31 181
111 192 100 4 -4 3 -23 -3 -43z m2764 -111 c28 -12 67 -28 87 -35 20 -7 97
-38 170 -69 106 -45 133 -61 130 -74 -2 -10 -7 -18 -11 -18 -3 0 -56 21 -116
46 -61 25 -166 68 -235 96 -150 60 -149 59 -124 69 31 12 46 10 99 -15z m-105
-92 c85 -36 194 -82 242 -102 48 -21 88 -40 88 -45 0 -4 -3 -6 -7 -5 -5 0 -15
-1 -23 -4 -8 -3 -40 -11 -70 -17 -30 -6 -66 -14 -80 -17 -14 -3 -79 -16 -145
-29 -66 -13 -165 -32 -220 -43 -129 -26 -164 -33 -195 -37 -14 -2 -81 -13
-149 -25 -68 -11 -125 -20 -126 -18 -2 2 18 48 44 103 26 55 60 127 75 161 28
60 28 60 84 73 32 7 86 19 122 27 36 8 79 17 95 20 31 7 97 21 105 23 2 0 74
-29 160 -65z m-694 -116 c-19 -40 -51 -111 -72 -157 -46 -99 -70 -115 -112
-75 -15 14 -54 40 -87 57 -52 27 -71 32 -135 32 -115 0 -199 -49 -244 -141
-10 -22 -22 -46 -26 -54 -4 -8 -31 -20 -61 -26 -30 -6 -78 -18 -106 -27 -29
-9 -53 -13 -53 -10 0 3 -6 1 -12 -5 -7 -6 -31 -13 -53 -17 -22 -4 -92 -23
-155 -41 -63 -19 -122 -36 -130 -38 -8 -2 -22 -6 -30 -9 -67 -28 -87 -28 -58
1 15 15 4 27 -65 68 -33 19 -60 45 -74 70 -25 45 -23 47 56 70 25 7 64 20 86
28 53 20 85 20 85 0 0 -9 14 -29 30 -44 92 -86 244 -11 227 111 -5 37 5 49 43
54 3 0 10 3 15 7 12 7 218 65 260 72 17 3 59 12 95 20 36 8 101 22 145 31 44
10 109 24 145 31 36 8 101 21 145 29 44 9 96 20 115 24 60 15 60 14 26 -61z
m-2566 -234 c-29 -19 -59 -41 -64 -48 -6 -7 -28 -24 -48 -39 -35 -26 -41 -27
-165 -27 l-128 0 42 38 c23 20 64 54 90 75 l48 37 140 0 140 0 -55 -36z m521
25 c-22 -9 -87 -46 -192 -111 l-47 -29 -163 3 -163 3 69 45 c39 24 72 47 75
50 3 3 18 16 34 28 27 21 37 22 220 21 131 0 184 -3 167 -10z m190 -6 c-5 -10
-29 -47 -53 -83 l-44 -65 -39 7 c-22 4 -67 7 -100 8 l-60 0 55 32 c197 112
262 140 241 101z m-1291 -219 c0 -3 -18 -23 -41 -45 -22 -21 -38 -39 -35 -39
3 0 -10 -17 -29 -38 -20 -21 -43 -51 -53 -68 -70 -123 -77 -134 -92 -128 -8 4
-60 23 -115 43 l-100 36 -180 0 c-207 0 -260 -12 -420 -92 -187 -93 -313 -221
-409 -415 -69 -140 -88 -224 -89 -398 -1 -168 19 -264 80 -389 101 -205 228
-335 424 -434 216 -109 472 -125 715 -46 98 32 254 130 338 213 132 130 212
276 252 461 16 71 22 303 10 342 -5 16 4 28 47 61 l54 41 32 -49 c40 -61 99
-111 177 -147 53 -25 70 -28 169 -28 102 0 115 2 175 31 213 101 300 358 190
567 l-30 58 47 21 c27 11 94 43 151 69 57 27 110 49 118 49 10 0 14 -12 14
-44 l0 -44 -40 5 c-49 7 -112 -19 -136 -55 -54 -82 19 -192 127 -192 l49 0 0
-674 c0 -414 -4 -694 -10 -727 -20 -105 -77 -181 -164 -221 l-51 -23 -1444 -3
c-1273 -2 -1451 -1 -1504 13 -79 20 -120 47 -157 100 -62 90 -61 72 -58 1067
l3 905 35 69 c37 72 95 123 164 143 33 10 1786 15 1786 5z m320 -3 c0 -5 -4
-11 -10 -13 -39 -13 -329 -306 -380 -383 l-15 -23 -39 28 c-21 16 -43 31 -50
33 -8 3 -8 9 1 23 7 11 22 39 35 63 12 24 34 55 49 70 14 14 30 34 35 43 5 9
41 51 79 92 l70 76 113 0 c61 0 112 -4 112 -9z m385 -11 c-16 -11 -34 -20 -40
-20 -5 0 -26 -14 -45 -31 -19 -17 -60 -46 -92 -66 -31 -19 -59 -41 -62 -49 -3
-8 -12 -14 -21 -14 -8 0 -15 -4 -15 -9 0 -5 -15 -16 -34 -25 -19 -9 -36 -20
-38 -24 -2 -4 -41 -38 -88 -77 -47 -38 -116 -100 -154 -137 -37 -37 -71 -68
-75 -68 -3 0 -23 16 -43 35 l-38 35 30 42 c56 77 301 318 374 368 12 8 33 25
46 38 23 21 32 22 174 22 l151 0 -30 -20z m413 -27 c-18 -25 -37 -45 -42 -44
-5 2 -12 -2 -15 -7 -3 -5 -27 -18 -52 -29 -39 -18 -48 -18 -64 -7 -25 18 -118
18 -153 0 -37 -19 -57 -60 -56 -112 1 -47 -10 -56 -86 -68 -90 -15 -205 -92
-257 -170 -17 -25 -41 -54 -54 -65 -68 -59 -190 -153 -192 -150 -2 2 -17 27
-34 56 l-32 52 72 72 c40 39 91 84 115 100 23 17 42 33 42 37 1 4 26 25 56 47
30 22 86 64 124 93 39 28 74 52 79 52 5 0 19 11 32 25 13 13 30 25 37 25 6 0
12 5 12 10 0 6 7 10 15 10 8 0 15 4 15 10 0 5 11 12 25 16 14 3 25 10 25 15 0
5 6 9 14 9 8 0 16 4 18 8 2 5 21 20 43 35 39 26 43 27 193 27 l154 0 -34 -47z
m425 -14 c115 -73 121 -88 45 -117 -29 -11 -70 -27 -90 -36 l-37 -16 -11 43
c-14 54 -48 122 -72 144 -18 16 -18 17 4 30 39 21 60 15 161 -48z m-204 -56
c23 -36 51 -105 51 -128 0 -11 -25 -24 -137 -72 -18 -7 -36 -13 -39 -12 -4 0
-10 -4 -14 -11 -4 -6 -13 -12 -21 -13 -8 -2 -44 -18 -80 -37 l-67 -33 -42 30
-41 31 28 17 c27 16 61 59 126 159 30 47 63 69 167 116 20 9 41 -5 69 -47z
m301 -117 c0 -17 -153 -255 -161 -251 -5 4 -9 48 -9 100 0 88 1 94 23 101 12
5 25 7 30 6 4 -1 7 3 7 8 0 6 8 10 18 10 10 0 22 4 28 9 5 5 18 11 29 14 30 7
35 7 35 3z m-2060 -109 c92 -26 150 -52 150 -67 0 -14 -6 -13 -76 15 -140 56
-327 70 -489 36 -194 -40 -387 -174 -496 -346 -47 -73 -92 -169 -103 -220 -3
-17 -9 -41 -12 -55 -14 -62 -16 -218 -4 -299 17 -114 73 -262 118 -309 6 -7
12 -18 12 -23 0 -5 35 -46 77 -90 168 -176 350 -253 593 -252 178 0 301 36
440 126 228 147 360 384 364 653 1 77 5 104 17 117 39 42 30 -192 -12 -330
-86 -278 -273 -471 -545 -563 -186 -63 -348 -62 -536 3 -321 111 -529 373
-567 715 -20 181 34 390 142 552 42 64 153 175 217 220 108 73 223 119 355
141 86 14 261 2 355 -24z m2050 -818 l-5 -787 -37 -53 c-21 -30 -61 -74 -89
-98 -52 -45 -52 -45 -44 -15 5 16 10 358 12 761 l4 732 27 29 c15 16 36 47 47
68 17 33 90 155 90 150 0 0 -2 -355 -5 -787z m-1942 674 l57 -28 -197 -3
c-109 -1 -287 -1 -395 0 l-198 3 55 27 55 28 283 0 283 0 57 -27z m1147 -3
l30 -12 -21 -16 c-31 -25 -88 -56 -96 -54 -5 1 -8 -2 -8 -8 0 -5 -5 -10 -11
-10 -12 0 -173 -101 -177 -112 -2 -5 -10 -8 -19 -8 -8 0 -22 -8 -31 -17 -16
-16 -17 -15 -20 12 -6 50 16 102 69 159 37 40 64 60 97 71 52 16 139 14 187
-5z m212 -98 c39 -80 39 -182 1 -265 -33 -70 -96 -135 -169 -173 -48 -26 -64
-29 -144 -29 -79 0 -97 4 -146 29 -67 33 -115 78 -147 134 -18 32 -19 41 -8
45 9 4 18 -4 24 -22 16 -45 67 -96 134 -132 55 -29 72 -33 138 -34 125 0 221
56 278 163 55 103 53 213 -4 304 -14 21 -22 43 -18 49 10 16 31 -8 61 -69z
m-90 -21 c32 -63 38 -119 19 -184 -37 -129 -157 -200 -296 -176 -46 9 -67 19
-107 54 -28 24 -57 59 -66 77 -17 36 -22 29 76 93 l29 18 -31 -48 c-36 -57
-39 -83 -10 -119 26 -33 79 -35 127 -6 45 27 184 167 211 210 23 39 28 99 9
119 -11 11 -10 13 2 9 8 -2 25 -23 37 -47z m-77 -9 c0 -30 -49 -93 -132 -169
-78 -72 -120 -95 -140 -75 -5 5 -7 20 -3 32 9 27 136 163 189 202 45 32 86 37
86 10z m-1084 -18 c-3 -9 -9 -27 -12 -40 l-6 -24 -510 0 c-564 0 -519 -6 -464
58 l19 22 490 0 c443 0 489 -1 483 -16z m526 -61 c-2 -32 0 -76 6 -98 9 -43 6
-65 -10 -65 -5 0 -15 -6 -23 -12 -53 -51 -52 -51 -71 5 -9 29 -23 64 -31 80
-7 15 -10 27 -5 27 4 0 31 23 60 50 29 28 57 50 62 50 6 0 10 5 10 10 0 6 1
10 3 10 2 0 1 -26 -1 -57z m-462 -102 c0 -5 -6 -14 -14 -20 -8 -7 -17 -23 -20
-36 l-6 -25 -580 0 c-319 0 -580 2 -580 5 0 2 7 23 16 45 l16 40 584 0 c328 0
584 -4 584 -9z m31 -221 l-26 -50 -629 0 -629 0 7 38 c3 20 6 43 6 50 0 9 137
12 649 12 l649 0 -27 -50z m24 -161 c29 -8 40 -8 43 0 2 6 13 11 25 11 20 0
20 0 -2 -24 -12 -13 -30 -39 -40 -57 l-18 -34 -654 0 -654 0 -3 58 -3 57 633
0 c430 0 646 -4 673 -11z m62 -210 c19 -7 29 -7 31 0 5 14 42 14 42 1 0 -6 -9
-29 -20 -50 l-20 -40 -664 0 -663 0 -21 50 -21 50 654 0 c437 0 663 -4 682
-11z m-33 -201 c-10 -13 -30 -35 -43 -50 l-25 -28 -528 0 -529 0 -32 36 c-18
20 -36 43 -40 50 -7 12 89 14 604 14 l612 0 -19 -22z m-204 -188 c-14 -11 -38
-22 -55 -25 -16 -3 -181 -5 -365 -3 -331 3 -336 3 -364 26 l-29 22 419 0 c418
0 419 -1 394 -20z"/>
<path d="M7623 4670 c-61 -37 -68 -152 -13 -205 60 -58 184 -38 211 33 6 15 9
51 6 81 -3 47 -9 59 -38 83 -42 35 -116 39 -166 8z"/>
<path d="M2515 1146 c-50 -22 -77 -60 -83 -114 -8 -88 49 -152 135 -152 60 0
88 14 117 57 79 116 -41 266 -169 209z m119 -71 c55 -51 14 -145 -64 -145 -49
0 -90 41 -90 90 0 10 12 32 26 49 34 40 88 43 128 6z"/>
<path d="M2823 1090 c-36 -15 -56 -55 -50 -97 9 -52 38 -78 88 -78 111 0 123
161 14 180 -17 2 -40 0 -52 -5z"/>
<path d="M3045 1065 c-48 -47 -19 -115 49 -115 64 0 90 79 40 119 -35 27 -59
26 -89 -4z"/>
<path d="M2320 770 l0 -70 505 0 505 0 0 70 0 70 -505 0 -505 0 0 -70z m980 0
l0 -40 -475 0 -475 0 0 40 0 40 475 0 475 0 0 -40z"/>
<path d="M2320 600 l0 -70 505 0 505 0 0 70 0 70 -505 0 -505 0 0 -70z m980
-5 l0 -35 -475 0 -475 0 0 35 0 35 475 0 475 0 0 -35z"/>
<path d="M2320 420 l0 -70 505 0 505 0 0 70 0 70 -505 0 -505 0 0 -70z m980 0
l0 -40 -475 0 -475 0 0 40 0 40 475 0 475 0 0 -40z"/>
<path d="M6643 8430 c-85 -18 -187 -86 -238 -160 -25 -36 -27 -48 -28 -132 -2
-103 12 -142 74 -207 75 -78 221 -111 339 -76 30 9 68 17 83 18 15 1 31 7 35
12 4 6 34 30 67 55 33 25 66 51 73 58 7 6 16 12 18 12 3 0 18 -28 33 -62 15
-35 46 -101 68 -148 107 -224 213 -451 238 -505 15 -33 49 -105 75 -160 27
-55 76 -158 110 -230 34 -71 75 -158 92 -192 16 -35 34 -63 39 -63 6 0 -3 -11
-18 -25 -15 -13 -22 -25 -15 -25 6 0 12 5 12 12 0 6 3 8 6 5 11 -11 46 14 40
28 -7 19 47 256 84 366 36 108 109 263 156 329 66 93 78 128 78 225 1 79 -2
97 -26 145 -38 76 -101 146 -159 175 -57 29 -139 33 -234 10 -84 -20 -122 -18
-181 9 -86 40 -97 7 -19 -52 80 -61 165 -72 265 -34 30 11 110 -10 152 -39 15
-11 38 -44 52 -74 21 -44 26 -69 26 -133 l0 -80 -53 -68 c-70 -91 -140 -203
-183 -291 -20 -40 -39 -73 -43 -73 -4 0 -30 46 -56 103 -41 86 -114 239 -295
612 -16 33 -73 152 -128 265 -88 184 -105 211 -159 266 -85 84 -175 128 -268
131 -38 1 -89 -2 -112 -7z"/>
<path d="M4665 4695 c-55 -19 -92 -63 -100 -119 -8 -52 12 -125 88 -326 l44
-115 -56 -23 c-31 -13 -78 -32 -106 -42 -27 -10 -88 -35 -135 -55 -128 -56
-121 -56 -151 17 -45 106 -89 217 -89 221 0 3 17 7 38 11 81 13 132 71 132
149 0 88 -132 129 -203 63 -13 -12 -32 -44 -42 -70 -25 -64 -19 -86 95 -361
20 -49 52 -128 70 -175 43 -113 44 -113 88 -94 21 9 71 29 112 45 87 34 139
56 230 97 36 16 76 32 90 35 53 14 53 16 5 143 -26 65 -57 149 -70 185 -13 36
-33 88 -44 116 l-20 51 42 6 c90 15 145 78 134 156 -6 44 -29 74 -72 90 -32
12 -31 12 -80 -5z"/>
<path d="M10335 4693 c-62 -16 -115 -96 -115 -172 0 -28 10 -61 27 -93 29 -53
103 -118 134 -118 11 0 19 -3 19 -7 0 -5 -42 -53 -93 -108 -248 -270 -442
-488 -445 -501 -4 -18 16 -17 93 1 73 18 169 19 295 4 118 -15 168 -3 221 50
35 34 65 104 53 123 -10 16 -24 7 -38 -26 -27 -64 -98 -90 -202 -74 -33 5 -96
14 -141 21 l-82 12 42 47 42 48 130 -11 c72 -6 147 -8 168 -6 45 6 99 41 121
78 16 27 22 79 10 79 -4 0 -24 -20 -46 -45 -38 -43 -42 -45 -96 -45 -72 0
-212 21 -212 32 0 4 34 45 76 90 120 130 233 267 254 308 45 89 35 163 -32
236 -58 63 -127 92 -183 77z"/>
<path d="M8932 3285 c-41 -41 -78 -75 -83 -75 -5 0 -25 32 -44 70 -36 72 -48
80 -80 56 -17 -12 -16 -17 29 -99 l46 -86 -66 -64 -67 -64 -35 68 c-19 38 -38
69 -42 69 -4 0 -18 -8 -30 -18 l-23 -19 41 -74 41 -75 -66 -68 -66 -67 31 -32
32 -31 57 56 58 57 54 -101 53 -100 -76 -77 -76 -77 28 -27 c15 -15 32 -27 37
-27 5 0 37 27 71 61 l62 61 56 -105 c55 -103 58 -106 82 -95 13 6 24 18 24 26
0 8 -25 59 -55 115 -30 55 -55 103 -55 106 0 4 29 35 64 70 l64 64 27 -54 c15
-30 38 -73 52 -96 23 -39 26 -41 49 -31 33 15 27 38 -32 138 -24 41 -44 79
-44 85 0 6 36 46 80 90 44 44 80 84 80 89 0 6 -12 23 -27 38 l-27 28 -77 -76
-76 -76 -23 39 c-13 21 -38 65 -55 98 l-32 60 96 98 96 98 -28 25 c-15 13 -33
24 -39 24 -6 0 -45 -34 -86 -75z m-33 -320 l51 -100 -62 -62 c-34 -34 -65 -60
-69 -57 -5 3 -27 42 -50 87 -22 45 -45 86 -50 92 -6 6 16 35 58 77 37 37 68
66 69 65 1 -1 25 -47 53 -102z"/>
</g>
</svg>
