<?xml version="1.0" standalone="no"?>
<!DOCTYPE svg PUBLIC "-//W3C//DTD SVG 20010904//EN"
 "http://www.w3.org/TR/2001/REC-SVG-20010904/DTD/svg10.dtd">
<svg version="1.0" xmlns="http://www.w3.org/2000/svg"
 width="872.000000pt" height="838.000000pt" viewBox="0 0 872.000000 838.000000"
 preserveAspectRatio="xMidYMid meet">
<metadata>
Created by potrace 1.16, written by Peter Selinger 2001-2019
</metadata>
<g transform="translate(0.000000,838.000000) scale(0.100000,-0.100000)"
fill="#000000" stroke="none">
<path d="M1390 7623 c-8 -3 -27 -14 -42 -24 -14 -11 -33 -19 -42 -19 -10 0
-31 -31 -57 -84 -22 -47 -49 -92 -60 -102 -25 -23 -24 -31 7 -38 22 -6 25 -11
19 -35 -5 -22 1 -38 30 -75 35 -46 36 -49 20 -72 -9 -14 -15 -35 -13 -47 4
-29 34 -34 43 -8 8 27 39 27 76 1 23 -17 32 -19 50 -10 16 9 24 8 40 -6 10 -9
21 -25 24 -35 9 -29 23 -23 33 13 10 38 28 47 37 18 11 -35 -4 -88 -32 -114
l-26 -24 27 -68 c24 -64 25 -69 8 -78 -29 -16 -82 -73 -82 -89 0 -8 10 -29 23
-48 19 -28 29 -34 57 -34 33 0 35 -2 38 -38 2 -26 -1 -37 -10 -35 -7 2 -14 -8
-16 -21 -3 -18 0 -22 12 -18 30 12 18 -45 -20 -87 l-34 -40 -34 33 -33 32 -67
-11 c-37 -6 -85 -18 -107 -27 -39 -15 -41 -15 -64 7 -19 18 -25 20 -25 8 0 -9
7 -21 15 -28 13 -11 11 -17 -19 -50 -33 -37 -55 -107 -41 -130 4 -6 -11 -10
-41 -10 -40 0 -51 -5 -80 -35 -18 -19 -39 -35 -48 -35 -24 0 -46 -11 -40 -21
3 -5 17 -9 31 -9 17 0 23 -4 20 -13 -3 -8 -1 -20 3 -28 5 -8 4 -19 -3 -27 -9
-11 -4 -20 23 -43 19 -16 42 -31 50 -34 11 -4 19 -32 28 -100 14 -99 9 -124
-27 -152 -23 -18 -30 -16 -24 7 5 18 0 20 -35 20 -32 0 -41 -4 -45 -22 -9 -31
1 -41 37 -35 35 6 56 -14 56 -52 0 -13 9 -21 30 -26 23 -5 30 -12 30 -30 0
-24 -17 -35 -55 -35 -29 0 -39 -14 -27 -37 7 -12 24 -17 55 -18 51 -1 77 -18
77 -50 0 -29 -6 -33 -35 -28 -15 3 -22 10 -18 19 3 9 -2 14 -16 14 -29 0 -27
-12 14 -71 19 -28 35 -57 35 -65 0 -17 3 -17 46 1 32 13 38 13 60 -1 13 -9 27
-28 30 -43 10 -46 13 -51 29 -51 16 0 95 -37 105 -49 3 -3 19 -14 36 -23 l31
-18 18 48 c9 26 48 110 86 187 141 290 361 581 597 791 57 52 96 93 95 103 -2
9 2 23 7 31 9 13 12 13 20 -2 9 -15 18 -11 78 35 37 29 105 76 150 106 l82 54
-33 17 c-91 49 -104 175 -17 172 18 0 38 -6 43 -11 13 -13 47 -14 47 -2 0 5
-7 11 -15 15 -26 9 -17 26 14 26 17 0 33 5 36 10 4 6 10 8 15 5 5 -3 17 9 27
27 l17 33 7 -35 c4 -19 10 -49 14 -67 7 -30 5 -33 -31 -48 -25 -10 -41 -12
-48 -5 -7 7 -5 10 7 10 10 0 17 8 17 20 0 11 -4 20 -10 20 -5 0 -15 -9 -22
-20 -7 -11 -20 -20 -30 -20 -9 0 -18 -9 -20 -21 -3 -22 -16 -32 -51 -43 -26
-8 -6 -41 33 -55 28 -9 40 -5 129 45 109 61 335 162 424 190 31 10 57 20 57
23 0 3 -34 47 -75 96 -75 89 -155 228 -155 268 0 20 0 20 -23 -1 -29 -27 -37
-28 -37 -3 0 19 -40 71 -54 71 -10 0 -7 -50 5 -71 13 -26 5 -49 -30 -85 -16
-16 -32 -43 -35 -61 -10 -45 -43 -54 -123 -32 -35 10 -63 15 -63 11 0 -4 -18
-16 -41 -26 -22 -11 -45 -28 -50 -39 -9 -15 -13 -16 -26 -6 -11 10 -13 24 -9
58 6 43 5 45 -9 27 -8 -11 -15 -29 -15 -40 -1 -16 -5 -12 -18 14 -12 24 -25
36 -42 39 -24 3 -24 2 -7 -16 23 -26 22 -33 -8 -33 -16 0 -28 7 -31 18 -3 9
-10 25 -15 34 -5 10 -9 22 -9 27 0 5 -13 22 -28 39 -20 21 -33 28 -42 22 -9
-6 -18 -3 -26 7 -10 15 -14 14 -40 -6 -27 -21 -29 -21 -41 -5 -7 10 -22 18
-33 19 -12 1 -29 9 -38 19 -14 14 -15 20 -4 37 13 20 12 21 -16 14 -33 -7 -58
12 -73 55 -10 27 -26 30 -83 15 -18 -5 -36 -4 -47 3 -10 7 -20 8 -23 4 -2 -4
-24 -6 -48 -4 -31 3 -48 10 -57 23 -9 16 -9 20 1 18 25 -3 38 1 38 12 0 6 -9
8 -21 4 -20 -7 -21 -4 -19 67 3 107 3 107 -35 141 -19 17 -35 39 -35 48 0 36
-211 84 -270 62z m720 -883 c22 -17 23 -22 12 -40 -7 -11 -10 -25 -7 -29 3 -5
-3 -12 -13 -16 -14 -7 -13 -9 8 -14 24 -7 25 -10 22 -69 -4 -60 -3 -62 24 -73
42 -15 64 -39 64 -66 0 -14 4 -21 10 -18 6 4 7 11 4 17 -4 6 -1 9 7 6 14 -5
68 -76 69 -90 0 -5 -7 -8 -15 -8 -8 0 -15 9 -15 20 0 25 -42 37 -78 20 -24
-10 -28 -9 -41 9 -7 12 -19 21 -26 21 -18 0 -23 18 -18 56 4 26 1 32 -18 37
-18 5 -20 9 -10 21 10 12 6 22 -23 54 -20 22 -36 47 -36 55 0 9 -6 14 -13 11
-7 -2 -23 6 -36 19 l-22 24 38 24 c21 13 41 25 45 27 3 2 9 -11 13 -27 7 -32
25 -43 25 -15 0 8 5 12 10 9 6 -3 10 1 10 10 0 8 -7 18 -15 21 -15 6 -21 24
-7 24 4 0 18 -9 32 -20z m-365 -85 c11 -8 31 -23 44 -33 33 -25 20 -45 -25
-36 -27 5 -34 3 -34 -10 0 -18 -15 -22 -25 -6 -11 18 -25 10 -25 -15 0 -29 0
-29 -35 -13 -21 10 -25 18 -25 56 0 25 3 42 6 39 4 -3 18 3 32 13 29 24 61 25
87 5z"/>
<path d="M6224 7395 c-23 -14 -51 -39 -61 -55 l-20 -31 -127 -4 -128 -5 -29
29 c-16 16 -29 37 -29 46 0 11 -7 15 -22 13 -17 -2 -27 -14 -36 -45 -8 -24
-18 -43 -23 -44 -79 -8 -99 2 -99 48 0 52 -11 66 -43 57 -24 -5 -27 -11 -27
-50 0 -25 -7 -60 -14 -79 -13 -29 -20 -35 -46 -35 -36 0 -48 20 -31 56 17 37
-11 42 -57 10 -21 -14 -48 -26 -60 -26 -26 0 -27 -13 -7 -69 13 -39 13 -43 -5
-61 -11 -11 -20 -24 -20 -30 0 -5 -15 -10 -32 -10 -44 0 -51 -7 -72 -63 -10
-26 -34 -71 -53 -100 -37 -55 -77 -128 -71 -131 2 -1 30 -10 63 -20 242 -73
568 -231 790 -384 238 -164 510 -421 651 -616 l21 -29 32 24 c20 15 31 31 30
44 -2 11 1 45 5 75 7 45 14 60 42 83 19 16 34 35 34 43 0 8 9 14 19 14 12 0
26 14 38 37 10 20 28 43 39 50 20 13 23 11 48 -36 15 -30 22 -52 16 -56 -17
-11 -11 -54 9 -65 22 -11 71 2 71 20 0 16 16 12 97 -20 41 -16 87 -30 102 -30
16 0 57 15 92 33 35 18 83 40 107 49 39 15 46 23 78 94 40 89 64 172 64 224 0
28 6 39 27 52 23 14 29 14 49 2 17 -12 42 -13 118 -8 92 7 98 8 118 37 11 16
34 35 51 42 35 14 69 88 92 195 17 76 11 131 -18 180 -12 19 -21 45 -22 58 0
21 -14 33 -80 69 -44 24 -97 61 -117 82 -40 42 -49 40 -62 -13 -5 -22 -10 -26
-19 -17 -26 26 -78 9 -138 -46 l-26 -24 -25 21 c-34 26 -51 26 -43 -1 11 -33
-3 -86 -31 -119 -23 -27 -25 -34 -15 -63 11 -29 10 -34 -12 -52 -13 -11 -32
-25 -42 -31 -24 -13 -11 -34 21 -34 32 0 43 -28 18 -47 -33 -25 -84 -9 -126
37 l-37 42 -83 -32 c-118 -46 -151 -64 -187 -105 -28 -33 -34 -35 -68 -29 -33
6 -35 5 -28 -12 25 -62 18 -100 -31 -154 -32 -36 -37 -38 -65 -28 -36 12 -37
27 -3 59 36 34 68 79 55 79 -6 0 -21 -11 -33 -25 -12 -14 -35 -32 -52 -40 -34
-18 -36 -18 -36 -6 0 5 14 14 32 20 17 6 28 14 25 17 -4 4 -20 1 -36 -6 -43
-17 -59 -9 -53 29 3 22 13 36 31 46 29 14 57 43 50 49 -2 3 -24 -9 -48 -25
-33 -23 -46 -27 -57 -18 -19 16 -36 81 -24 93 7 7 10 5 10 -3 0 -11 3 -11 15
-1 21 17 19 30 -5 30 -14 0 -20 7 -20 24 0 13 -6 26 -13 29 -24 9 -49 76 -43
112 6 28 3 35 -13 40 -32 10 -69 61 -76 105 -5 31 -12 41 -30 46 -27 7 -60 40
-69 71 -4 13 2 57 15 103 35 131 18 183 -69 221 -55 24 -59 24 -108 -6z"/>
<path d="M3333 7259 c-16 -16 -17 -51 -1 -67 24 -24 -61 -102 -96 -89 -10 4
-16 18 -16 36 0 31 -14 49 -25 31 -12 -19 -55 -10 -77 15 -30 34 -64 33 -83
-5 -8 -16 -15 -42 -15 -57 1 -73 90 -187 210 -269 l71 -48 33 18 c18 9 37 16
42 15 23 -4 34 2 34 19 0 31 -11 33 -52 9 -38 -21 -40 -21 -53 -4 -21 29 -7
54 61 107 59 46 78 70 55 70 -5 0 -28 -16 -52 -35 -40 -34 -78 -59 -80 -53 0
2 -2 12 -3 23 -2 11 -6 35 -10 53 -7 32 -5 36 53 89 59 53 109 127 93 137 -21
13 -78 16 -89 5z"/>
<path d="M4957 7123 c-4 -3 -4 -31 0 -61 7 -59 8 -58 -54 -35 -28 11 -11 -32
28 -70 22 -23 46 -57 52 -76 8 -24 20 -37 38 -42 23 -6 26 -4 22 12 -3 11 -9
22 -14 25 -5 3 -9 16 -9 28 0 19 5 24 26 24 39 0 69 35 69 81 0 54 -29 85 -73
78 -26 -5 -35 -1 -48 19 -17 25 -26 29 -37 17z"/>
<path d="M4485 6558 c-26 -16 -143 -114 -176 -148 -24 -25 -33 -27 -120 -29
-170 -3 -279 -42 -279 -98 0 -14 -5 -43 -12 -64 -9 -32 -17 -40 -43 -45 -25
-4 -32 -10 -28 -24 4 -14 -4 -21 -34 -30 -21 -7 -46 -19 -55 -28 -23 -19 -182
-316 -242 -450 -118 -264 -145 -487 -81 -677 37 -111 79 -176 228 -349 142
-166 227 -287 227 -324 0 -15 7 -26 20 -29 26 -7 26 -13 -12 -77 -39 -65 -123
-125 -176 -126 -19 0 -73 -21 -134 -52 -92 -48 -114 -65 -242 -193 -247 -247
-336 -347 -360 -407 -24 -58 -48 -102 -113 -209 -67 -107 -137 -255 -192 -402
-28 -75 -51 -144 -51 -152 0 -8 -4 -15 -10 -15 -5 0 -10 -6 -10 -13 0 -8 -18
-39 -40 -70 -59 -81 -51 -130 31 -200 34 -30 46 -35 75 -30 33 5 34 5 34 -27
0 -31 -34 -100 -49 -100 -4 0 -12 5 -18 11 -9 9 -18 8 -38 -5 -20 -13 -24 -22
-19 -43 6 -20 4 -24 -7 -18 -46 27 -215 147 -276 197 -64 52 -76 58 -117 58
-25 0 -45 3 -43 8 1 4 -2 7 -8 7 -5 0 -10 -4 -10 -10 0 -5 -10 -20 -23 -33
-31 -31 -20 -42 38 -35 58 7 59 4 29 -68 -19 -42 -20 -53 -9 -79 15 -35 4 -54
-35 -64 -33 -9 -32 -34 3 -41 15 -4 34 -10 42 -14 19 -10 25 -50 11 -64 -19
-19 -12 -46 13 -53 35 -8 51 -30 80 -108 30 -79 41 -94 74 -107 23 -9 23 -10
8 -34 -20 -30 -20 -49 -2 -64 10 -9 22 -4 51 19 26 21 45 28 59 24 38 -11 71
-40 81 -72 11 -38 32 -42 41 -7 12 49 28 50 110 11 104 -49 124 -48 160 10 38
60 102 99 149 90 22 -4 35 -3 35 4 0 5 -6 10 -14 10 -24 0 -29 20 -10 41 37
41 44 26 44 -96 0 -63 4 -115 8 -115 12 0 52 39 52 51 0 21 -23 104 -31 114
-5 5 -9 26 -9 47 0 33 3 38 23 38 37 0 67 -12 67 -25 0 -7 7 -15 14 -18 11 -4
13 -1 9 10 -5 12 -1 14 18 8 30 -9 45 -24 54 -52 6 -22 3 -23 -39 -23 -34 0
-46 -4 -46 -15 0 -8 9 -15 19 -15 10 0 21 -7 25 -15 7 -19 30 -19 49 0 13 12
17 12 33 -7 29 -32 73 -47 105 -36 35 12 91 73 120 130 26 53 23 50 41 43 10
-4 13 -16 10 -35 -4 -27 -1 -30 21 -30 29 0 39 17 25 43 -13 26 24 22 49 -5
20 -22 21 -35 24 -268 1 -135 4 -253 6 -262 5 -20 39 -25 45 -7 2 7 1 39 -3
73 -4 34 -11 143 -15 243 -6 173 -6 183 12 189 52 19 65 59 45 132 -9 31 -8
33 25 47 23 9 39 26 49 47 7 19 23 42 34 52 12 11 21 25 21 32 0 6 16 26 36
44 36 31 36 31 51 11 18 -26 59 -27 72 -3 7 14 6 25 -5 41 -21 29 -10 39 16
16 21 -19 27 -60 10 -70 -5 -3 -15 -15 -21 -27 -9 -18 -8 -19 10 -13 21 6 21
4 21 -179 0 -142 -3 -186 -12 -187 -12 0 19 -17 35 -18 4 -1 7 27 7 62 0 37 5
68 12 75 10 10 10 15 1 20 -7 4 -14 57 -18 135 -8 127 -3 146 25 112 7 -8 18
-15 25 -15 7 0 18 -7 25 -15 7 -8 21 -15 31 -15 16 0 19 -8 20 -52 0 -58 10
-91 24 -87 6 1 26 -28 45 -65 19 -37 45 -74 58 -82 65 -44 139 1 201 124 21
40 43 53 56 32 3 -5 1 -10 -5 -10 -6 0 -10 -10 -8 -22 2 -17 10 -23 28 -23 21
0 25 5 25 28 -1 35 23 35 50 -1 18 -24 20 -47 23 -277 2 -137 8 -254 12 -259
5 -5 16 -6 26 -2 13 5 15 14 10 49 -3 23 -9 135 -13 248 l-6 207 31 16 c38 20
47 49 32 107 -10 38 -10 44 6 56 10 7 23 13 30 13 7 0 25 23 40 50 15 28 31
50 36 50 4 0 8 8 8 18 0 10 20 35 45 56 49 41 50 60 2 53 -19 -2 -37 1 -45 9
-12 13 -9 18 10 15 5 0 7 2 6 7 -1 4 4 18 11 31 7 13 9 21 3 17 -12 -7 -23 17
-14 31 4 6 24 13 44 17 32 6 39 4 53 -18 9 -14 15 -38 13 -53 -2 -19 1 -27 10
-25 7 1 37 -18 65 -42 57 -48 101 -56 125 -24 14 19 72 25 72 8 0 -5 -7 -10
-15 -10 -21 0 -19 -16 6 -34 12 -8 18 -19 14 -26 -4 -6 0 -26 9 -45 9 -18 13
-40 10 -49 -7 -19 7 -21 24 -4 9 9 17 7 35 -10 13 -12 33 -22 44 -22 12 0 24
-7 27 -16 6 -15 9 -15 29 3 12 11 41 31 65 43 25 14 42 31 42 41 0 10 5 21 10
24 29 18 -4 187 -38 199 -9 4 -28 13 -42 21 -15 9 -46 14 -77 13 -29 -1 -54 0
-56 3 -2 2 -8 27 -14 54 -6 28 -14 59 -17 70 -5 17 9 29 93 77 270 156 533
405 716 678 60 90 202 366 193 376 -4 3 -30 -2 -59 -10 -66 -20 -197 -21 -269
-2 -30 8 -56 14 -56 13 -1 -1 -15 -30 -32 -63 -46 -92 -162 -259 -241 -349
-90 -101 -240 -235 -258 -228 -7 3 -13 -2 -13 -10 0 -11 -97 -86 -156 -120 -7
-4 -10 9 -10 36 1 36 -2 42 -22 45 -30 4 -42 -26 -17 -44 10 -8 16 -17 12 -20
-4 -4 -2 -13 4 -20 7 -9 -5 -21 -51 -47 -65 -36 -65 -42 -4 -66 39 -15 74 -47
74 -66 0 -11 -11 -15 -37 -15 -83 0 -379 175 -593 351 -128 105 -166 138 -159
139 3 0 61 -32 129 -71 164 -94 335 -179 359 -179 36 0 32 18 -13 56 -40 33
-43 39 -29 49 15 11 15 15 -3 43 -59 93 -147 223 -181 266 -21 27 -48 64 -61
83 -33 50 -220 233 -278 273 -12 8 -52 40 -90 71 -38 30 -108 79 -156 108 -48
28 -90 56 -93 62 -4 5 11 9 34 9 33 0 56 -12 153 -81 193 -139 380 -312 513
-477 49 -60 75 -77 75 -48 0 8 25 101 55 207 31 105 53 199 50 208 -3 9 -39
47 -80 85 -55 50 -74 73 -70 86 4 12 -4 25 -25 41 -17 13 -48 38 -68 55 -42
36 -170 122 -222 150 -19 11 -46 27 -60 36 -43 29 -253 100 -282 95 -19 -2
-28 1 -28 10 0 7 -4 13 -10 13 -25 0 -6 22 38 44 26 13 59 35 74 49 70 65 137
223 124 292 -8 40 -3 42 45 18 19 -10 58 -17 89 -18 145 -1 224 119 225 340 0
50 5 99 11 110 53 95 58 198 25 495 -31 287 -27 396 20 461 30 43 106 81 164
83 43 1 60 -5 127 -46 82 -51 121 -61 116 -30 -2 11 4 18 20 20 17 3 22 10 22
33 0 23 -10 36 -49 66 -28 21 -50 40 -50 43 -1 3 14 10 32 15 21 7 33 17 35
31 2 17 -12 28 -88 63 -49 23 -90 45 -90 49 1 4 7 18 15 32 22 38 19 45 -25
65 -45 20 -49 29 -20 47 38 24 25 41 -26 33 -155 -23 -236 -23 -419 -1 -32 4
-57 2 -70 -6z m-460 -409 c86 -96 197 -297 279 -506 20 -51 36 -95 36 -98 0
-3 -14 -5 -30 -5 -17 0 -45 -7 -61 -16 -17 -8 -32 -14 -32 -12 -1 2 -26 53
-55 113 -72 148 -128 245 -229 398 -47 70 -84 129 -82 131 4 3 114 32 130 35
4 1 23 -17 44 -40z m411 -653 c101 -47 201 -179 251 -331 21 -66 26 -100 27
-190 0 -101 -2 -115 -28 -173 -33 -72 -69 -107 -128 -123 -143 -38 -314 112
-394 346 -35 103 -40 259 -10 343 47 135 158 186 282 128z m-316 -1740 c117
-58 255 -147 362 -233 64 -52 121 -99 126 -106 11 -13 4 -77 -7 -77 -4 0 -29
16 -55 36 -25 21 -49 34 -52 31 -3 -3 16 -29 43 -59 26 -30 80 -90 119 -133
95 -107 127 -145 120 -145 -4 0 -66 37 -139 83 -72 45 -184 114 -248 152 -92
55 -125 81 -163 129 l-49 61 28 3 c15 2 48 -4 72 -13 37 -14 48 -25 63 -61 22
-51 43 -51 60 2 9 25 9 43 0 68 -14 42 -28 55 -91 78 -27 10 -73 27 -101 38
-29 10 -68 19 -86 20 -30 0 -35 5 -56 53 -13 28 -26 65 -30 80 -6 26 -5 28 16
22 13 -4 43 -17 68 -29z m-1214 -1487 c-10 -40 -10 -42 24 -70 27 -23 31 -32
22 -41 -7 -7 -12 -21 -12 -32 0 -36 -15 2 -19 48 -1 5 -7 3 -14 -3 -8 -6 -17
-8 -20 -4 -4 3 -7 1 -7 -5 0 -7 5 -12 10 -12 6 0 10 -19 10 -41 0 -36 2 -40
16 -29 12 11 18 10 32 -3 9 -10 11 -17 5 -17 -6 0 -16 -14 -23 -30 -10 -24
-10 -33 0 -45 16 -20 54 -19 71 1 11 14 11 21 -3 45 -19 33 -8 39 20 11 23
-23 22 -53 -1 -76 -23 -23 -21 -39 3 -31 16 5 20 2 20 -19 0 -14 -2 -26 -4
-26 -12 0 -234 105 -309 146 -90 49 -104 69 -73 103 8 9 26 40 41 69 14 28 30
52 36 52 5 0 9 6 9 14 0 9 15 15 48 18 26 3 49 3 51 1 2 -1 -8 -34 -24 -73
-16 -39 -25 -73 -21 -77 11 -11 25 10 46 72 21 61 44 95 65 95 9 0 10 -10 1
-41z"/>
<path d="M3380 6274 c-52 -20 -107 -40 -122 -46 -36 -13 -35 -23 4 -39 78 -32
143 -118 155 -204 5 -39 8 -45 25 -39 156 49 150 45 191 120 20 38 47 77 58
86 20 17 18 18 -56 53 -41 20 -91 52 -110 71 -19 19 -38 34 -42 34 -4 -1 -51
-17 -103 -36z"/>
<path d="M5311 6138 c3 -42 -8 -77 -33 -104 -26 -28 -17 -77 25 -141 22 -32
31 -58 31 -83 -1 -33 3 -39 45 -66 84 -52 236 -181 322 -271 185 -195 309
-396 395 -643 18 -52 40 -96 47 -98 10 -2 13 -18 10 -62 l-4 -60 75 0 c42 0
79 -1 84 -2 4 -2 8 14 10 35 3 40 12 46 32 22 18 -22 29 -19 40 11 10 25 30
25 30 0 0 -13 63 -86 74 -86 15 0 3 30 -23 63 -32 41 -32 86 0 94 11 3 19 9
19 14 0 5 -20 71 -45 146 -170 515 -532 934 -1058 1222 l-78 43 2 -34z"/>
<path d="M2970 6088 c-19 -12 -65 -41 -103 -65 l-68 -43 17 -31 c40 -77 134
-154 219 -179 39 -11 42 -10 154 54 63 36 120 66 127 66 29 0 33 99 5 150 -17
33 -76 78 -87 68 -2 -3 3 -19 13 -36 23 -40 10 -78 -36 -109 -42 -28 -86 -29
-128 -3 -41 24 -62 57 -71 108 l-7 41 -35 -21z"/>
<path d="M2710 5912 c-98 -73 -285 -256 -367 -357 -255 -316 -406 -682 -447
-1087 l-6 -58 41 0 41 0 -6 -45 c-6 -36 -3 -51 12 -73 10 -15 22 -44 25 -64 5
-31 1 -43 -21 -68 -18 -20 -36 -30 -55 -30 -27 0 -28 -2 -25 -37 l3 -38 49 3
c56 4 158 38 237 82 l56 30 6 172 c4 112 13 209 27 273 86 424 333 804 703
1080 l38 28 -48 32 c-62 43 -135 119 -165 172 l-24 41 -74 -56z"/>
<path d="M3284 5453 c-139 -92 -273 -218 -369 -346 -24 -32 -26 -40 -14 -48 9
-6 19 -3 29 9 8 9 22 17 30 17 10 0 15 10 15 28 1 25 17 46 37 47 4 0 19 -17
32 -37 l25 -37 -57 -52 c-31 -28 -54 -55 -51 -58 3 -3 45 14 94 39 48 25 90
43 93 41 12 -13 -14 -70 -44 -94 -23 -18 -32 -32 -28 -44 4 -15 -1 -18 -35
-18 -37 0 -43 -3 -58 -35 -9 -19 -23 -35 -30 -35 -7 0 -32 15 -57 33 -50 37
-72 86 -54 121 7 14 7 18 0 11 -24 -23 -93 -166 -125 -260 -45 -132 -90 -375
-68 -375 4 0 52 15 107 33 54 19 129 40 166 47 l67 13 7 41 c28 171 135 384
260 516 l52 55 5 140 c4 101 11 161 26 214 12 40 20 75 18 77 -2 2 -34 -17
-73 -43z"/>
<path d="M1007 5257 c-29 -23 -93 -29 -134 -14 -19 7 -23 5 -23 -12 0 -26 -1
-26 -50 -1 -40 21 -67 24 -94 14 -26 -10 -19 -21 24 -38 22 -9 40 -19 40 -24
0 -4 -16 -23 -35 -42 -20 -19 -39 -48 -43 -65 -7 -26 -13 -30 -42 -31 -42 0
-49 -18 -16 -40 33 -21 33 -54 0 -83 l-26 -23 23 -24 c22 -23 23 -32 21 -128
-2 -70 1 -106 8 -111 8 -5 4 -15 -11 -31 -31 -33 -19 -57 25 -49 19 4 43 4 54
1 27 -9 54 -68 46 -101 -7 -29 15 -35 36 -10 21 26 37 17 85 -45 63 -82 73
-86 131 -55 60 32 119 33 151 3 28 -26 44 -16 18 12 -17 19 -17 20 11 30 26
10 50 9 87 -6 12 -4 16 12 21 88 12 166 51 373 102 546 5 18 3 21 -10 16 -12
-5 -16 0 -16 21 0 24 -3 26 -25 21 -32 -8 -44 17 -21 43 23 25 21 45 -3 31
-40 -21 -89 -2 -103 41 -4 12 -7 12 -21 0 -29 -23 -46 -7 -40 38 5 36 3 41
-13 41 -11 0 -30 -7 -42 -16 -21 -14 -25 -14 -55 4 -32 20 -32 20 -60 -1z"/>
<path d="M5551 4983 c-19 -13 -40 -23 -48 -23 -29 0 -94 -42 -103 -66 -6 -14
-10 -50 -10 -80 0 -41 4 -54 15 -54 8 0 33 -7 55 -16 65 -26 85 -88 44 -135
-12 -14 -11 -18 5 -33 11 -10 23 -31 26 -47 4 -16 10 -29 13 -29 4 0 45 14 92
30 47 16 93 30 103 30 24 0 22 25 -14 137 -29 91 -99 247 -131 291 -13 18 -14
18 -47 -5z"/>
<path d="M3442 4659 c-26 -46 -72 -162 -72 -183 0 -9 16 -17 43 -21 33 -5 191
-40 223 -48 3 -1 12 14 18 35 l13 36 -94 109 c-51 59 -96 109 -101 110 -4 2
-17 -15 -30 -38z"/>
<path d="M3357 4393 c-4 -3 -7 -39 -7 -79 l0 -73 53 24 c30 13 83 29 118 35
82 16 99 30 69 58 -12 11 -41 25 -65 31 -48 12 -158 15 -168 4z"/>
<path d="M5526 4389 c-2 -8 -7 -36 -10 -63 -3 -27 -11 -55 -17 -63 -15 -17
-15 -17 56 -32 67 -15 145 -51 190 -89 l30 -25 6 29 c4 16 7 75 8 130 1 120
12 111 -151 121 -87 5 -108 3 -112 -8z"/>
<path d="M6280 4384 c0 -3 6 -15 14 -27 8 -12 17 -32 21 -44 8 -29 -15 -31
-40 -3 -24 27 -44 25 -55 -5 -5 -14 -16 -25 -25 -25 -12 0 -15 -14 -15 -67 0
-38 -3 -78 -6 -90 -5 -19 0 -23 38 -33 98 -26 148 -81 148 -163 0 -40 -5 -53
-34 -84 -30 -33 -39 -37 -93 -41 -46 -3 -67 0 -87 13 -15 10 -28 16 -30 14 -2
-2 -11 -29 -21 -59 -10 -30 -24 -68 -32 -83 -13 -26 -13 -30 4 -43 10 -8 49
-24 87 -35 77 -24 163 -22 233 6 39 15 41 19 66 103 53 176 87 362 87 475 0
49 -3 58 -31 81 -17 14 -50 37 -73 51 -43 25 -156 68 -156 59z"/>
<path d="M822 4304 c-33 -23 -45 -60 -31 -101 22 -68 84 -61 115 12 20 48 18
71 -8 89 -28 20 -48 20 -76 0z"/>
<path d="M2945 4194 c-54 -45 -109 -72 -170 -84 -33 -7 -72 -18 -87 -26 l-26
-14 14 -62 c8 -35 24 -91 35 -125 l20 -62 53 35 c76 50 153 63 229 37 31 -11
57 -19 57 -18 0 1 -11 28 -24 61 -20 51 -36 112 -65 251 l-6 31 -30 -24z"/>
<path d="M5525 4121 c-79 -28 -91 -39 -108 -100 -9 -31 -14 -57 -12 -59 1 -2
47 -9 100 -17 73 -10 103 -19 118 -34 30 -30 15 -36 -49 -21 l-56 14 -81 -42
c-45 -23 -88 -42 -94 -42 -7 0 -13 -4 -13 -9 0 -23 -108 -170 -180 -245 l-80
-83 25 -17 c15 -10 24 -23 22 -29 -5 -13 -17 -13 -63 1 -46 15 -62 -4 -90
-109 -13 -51 -29 -99 -35 -106 -8 -9 -7 -19 5 -35 9 -13 31 -44 49 -70 l33
-47 43 24 c23 14 56 34 72 46 16 11 29 18 29 15 0 -3 15 8 32 25 34 30 48 36
48 19 0 -13 37 -13 46 1 3 6 1 16 -5 22 -9 9 10 32 71 92 104 100 185 199 248
306 55 90 60 105 31 89 -28 -15 -39 -13 -46 10 -3 11 -13 20 -20 20 -21 0 -27
16 -19 55 4 25 12 35 24 35 26 0 80 -48 80 -71 0 -10 4 -19 10 -19 5 0 7 7 4
15 -4 8 -2 15 4 15 16 0 52 96 83 219 16 63 28 115 27 116 -46 38 -170 46
-253 16z"/>
<path d="M2140 4055 c-52 -13 -125 -26 -163 -30 l-67 -8 6 -36 c29 -177 127
-466 170 -506 15 -14 24 -34 24 -53 0 -43 13 -47 51 -15 48 40 69 99 85 236 7
67 23 149 35 182 l21 60 -20 95 c-13 64 -24 95 -33 96 -8 1 -57 -9 -109 -21z"/>
<path d="M7096 3933 c-79 -513 -325 -995 -709 -1387 -96 -97 -101 -106 -89
-125 13 -18 12 -22 -3 -27 -10 -4 -25 -3 -34 3 -13 8 -33 -3 -101 -58 -273
-222 -599 -399 -945 -514 -146 -49 -366 -105 -410 -105 -14 0 -13 -4 8 -20 21
-17 25 -26 20 -54 -5 -32 -4 -33 37 -39 23 -3 50 -13 61 -23 16 -15 24 -16 59
-5 36 11 44 9 91 -14 66 -34 95 -30 122 17 21 35 21 37 4 55 -25 28 -22 39 20
70 32 24 45 28 105 28 73 0 83 -9 57 -56 -9 -17 -6 -28 15 -60 14 -21 26 -51
26 -67 0 -15 12 -51 26 -79 22 -46 31 -54 75 -68 69 -23 178 -17 216 11 46 34
73 82 73 130 0 44 17 64 55 64 12 0 14 -4 5 -19 -12 -24 -13 -71 -2 -71 5 0
16 -18 25 -40 8 -22 20 -40 26 -40 15 0 25 90 14 132 -10 37 -9 40 28 73 21
19 56 44 79 55 22 11 38 25 34 31 -3 6 5 25 17 44 18 26 32 35 59 37 32 3 35
5 32 33 -1 17 0 40 3 53 5 20 10 22 35 17 28 -6 30 -5 30 24 0 30 1 31 45 31
64 0 95 31 95 97 0 45 -3 50 -61 106 -81 79 -88 100 -54 167 21 41 30 50 45
45 10 -3 21 -1 25 5 4 6 18 16 32 21 20 7 24 14 19 34 -4 17 -1 27 11 34 15 8
25 2 60 -37 49 -55 63 -50 70 25 7 78 11 80 47 22 31 -51 32 -55 15 -69 -10
-8 -27 -40 -39 -71 -13 -36 -29 -60 -45 -69 -29 -15 -31 -23 -11 -40 27 -21 8
-41 -32 -34 l-36 7 27 -32 c29 -34 35 -69 15 -89 -9 -9 -8 -16 5 -30 22 -24
21 -42 -2 -42 -10 0 -25 -7 -32 -16 -11 -14 -9 -20 19 -43 24 -19 32 -34 32
-58 0 -26 6 -36 29 -48 33 -17 71 -72 71 -104 0 -22 14 -28 25 -11 10 17 26 0
20 -20 -9 -30 13 -98 37 -111 20 -11 21 -10 15 35 -7 52 0 56 59 34 25 -9 39
-9 59 0 24 11 27 10 43 -18 22 -39 40 -38 44 1 4 40 30 59 58 41 29 -18 37
-15 43 17 5 24 19 36 78 68 40 21 77 47 83 58 6 11 12 22 14 24 1 2 13 -2 27
-9 33 -18 57 0 37 28 -44 61 -39 103 15 137 40 25 40 30 3 44 -16 5 -30 15
-30 20 0 6 12 40 27 76 21 50 31 65 47 65 16 0 21 -7 23 -27 1 -27 43 -73 66
-73 25 0 77 41 83 65 7 28 -18 65 -43 65 -8 0 10 22 40 49 29 28 64 70 77 94
19 36 29 44 53 45 20 0 36 -7 49 -23 10 -13 44 -33 76 -45 31 -12 62 -26 69
-31 8 -7 22 -5 43 6 19 10 42 14 59 10 23 -5 36 4 95 60 77 76 105 129 106
198 0 27 4 56 9 65 7 13 -4 36 -40 91 -27 40 -54 91 -61 112 -13 45 -23 48
-48 17 l-18 -23 -20 25 c-19 23 -22 24 -82 14 -59 -10 -62 -9 -70 12 -14 37
-27 36 -47 -3 -11 -24 -32 -45 -55 -56 -27 -13 -38 -25 -38 -41 0 -32 -19 -46
-62 -46 -43 0 -47 -9 -18 -35 11 -10 20 -24 20 -32 0 -7 -9 -13 -20 -13 -11 0
-20 7 -20 15 0 8 -9 15 -21 15 -12 0 -17 4 -14 11 4 6 -2 20 -13 32 -10 12
-22 34 -26 49 -5 24 -10 27 -35 22 -16 -3 -37 -1 -48 5 -14 7 -23 7 -31 -1 -8
-8 -18 -6 -36 6 -15 9 -26 12 -26 6 0 -5 -7 -10 -15 -10 -18 0 -20 33 -3 59
10 16 6 27 -23 67 -20 27 -49 58 -65 69 -17 11 -29 26 -26 33 5 15 -3 15 -28
2 -14 -8 -29 -6 -55 5 -34 14 -36 17 -33 57 3 40 5 43 33 46 20 2 34 11 40 25
6 14 21 23 39 25 16 2 38 15 48 28 11 13 28 24 38 24 11 0 20 10 24 25 4 14
17 32 31 41 14 9 25 24 25 33 0 28 22 41 70 41 63 0 93 18 101 59 8 40 -5 67
-42 83 -19 8 -30 27 -47 77 -21 65 -21 66 -2 92 20 29 17 39 -11 39 -18 0 -39
27 -39 50 0 6 11 15 25 20 40 15 22 39 -28 37 -46 -2 -64 22 -28 39 19 9 19
10 -5 38 -23 26 -28 27 -49 16 -29 -15 -55 -7 -62 20 -3 12 -14 20 -27 20 -11
0 -31 3 -42 6 -20 5 -22 -1 -38 -103z"/>
<path d="M2297 3790 c-9 -30 -21 -104 -26 -163 -11 -126 -40 -198 -98 -246
l-35 -29 37 -64 c45 -74 124 -186 172 -242 18 -22 33 -48 33 -58 0 -10 6 -18
14 -18 7 0 51 -38 97 -85 45 -47 85 -85 89 -85 3 0 18 35 34 78 35 94 119 265
177 358 70 114 98 166 115 218 13 37 38 71 105 140 49 49 89 95 89 101 0 20
-46 89 -72 108 -42 31 -124 34 -168 6 l-35 -23 44 -6 c28 -5 51 -15 63 -29 23
-29 24 -53 2 -44 -12 4 -15 2 -12 -8 3 -8 11 -13 17 -11 6 1 11 -10 11 -25 -1
-24 -2 -25 -11 -10 -24 42 -70 1 -66 -59 1 -21 6 -45 11 -53 5 -8 3 -16 -5
-22 -21 -13 -39 -11 -45 6 -8 21 -18 19 -29 -7 -11 -26 -49 -35 -70 -18 -19
16 -38 3 -26 -18 6 -11 3 -21 -14 -34 -12 -9 -25 -31 -28 -48 -5 -24 -11 -29
-29 -27 -21 2 -23 -2 -20 -40 3 -55 -18 -57 -49 -5 -13 20 -51 66 -85 102 -78
81 -112 148 -129 253 -8 45 -20 100 -28 122 l-15 40 -15 -55z"/>
<path d="M1308 3718 l-15 -43 -79 -6 c-43 -4 -86 -10 -96 -14 -24 -10 -42 -61
-43 -121 0 -66 27 -106 76 -115 19 -3 50 -13 70 -23 31 -15 37 -23 42 -60 4
-24 4 -58 1 -77 -5 -28 0 -41 25 -73 36 -45 37 -57 14 -93 -16 -25 -16 -26 6
-44 13 -11 29 -19 37 -19 9 0 14 -11 14 -30 0 -21 -11 -40 -42 -70 -23 -22
-46 -40 -50 -40 -11 0 -42 -49 -35 -56 7 -7 62 21 104 53 l33 24 39 -20 c43
-23 51 -36 51 -91 0 -40 0 -39 83 -70 25 -9 27 -12 16 -32 -6 -13 -25 -37 -42
-55 -25 -26 -30 -41 -31 -80 -1 -56 -20 -64 -45 -19 -13 23 -24 29 -55 31 -41
2 -86 40 -86 72 0 13 -3 13 -15 3 -8 -7 -15 -18 -15 -25 0 -7 -7 -18 -15 -25
-13 -11 -20 -11 -40 0 -22 12 -31 11 -71 -9 -29 -15 -54 -21 -70 -17 -20 5
-27 1 -41 -29 -14 -29 -24 -37 -54 -41 l-37 -6 5 -57 c5 -51 3 -60 -22 -89
-47 -56 -91 -34 -54 27 10 17 19 34 19 36 0 13 -29 3 -45 -15 -41 -46 -61 -11
-23 41 19 26 20 31 8 39 -18 11 -42 5 -88 -21 -44 -26 -55 -24 -96 12 l-35 30
-7 -25 c-4 -18 -13 -26 -29 -26 -12 0 -35 -10 -50 -22 -23 -18 -30 -19 -48 -9
-22 14 -37 2 -37 -32 0 -9 -12 -23 -26 -29 -22 -10 -27 -9 -35 5 -11 19 -39
23 -39 5 0 -6 8 -20 17 -30 15 -17 15 -21 0 -52 -9 -19 -21 -71 -27 -116 -11
-78 -10 -84 9 -104 12 -12 21 -32 21 -45 0 -15 20 -41 56 -74 72 -66 98 -80
134 -72 21 5 34 1 49 -14 28 -28 41 -26 67 6 l21 27 18 -21 18 -21 63 51 c40
31 72 67 85 93 19 40 71 84 97 84 7 0 19 -14 27 -30 23 -45 119 -104 157 -96
37 7 103 -18 92 -36 -11 -19 -205 -248 -311 -367 -72 -80 -93 -110 -93 -133 0
-16 6 -31 15 -34 36 -14 66 8 142 109 193 255 376 483 396 494 12 7 34 13 50
13 22 0 27 4 27 25 0 13 14 41 32 61 19 21 32 47 32 64 1 20 40 77 145 209 78
99 149 181 156 181 7 0 18 -7 25 -15 17 -21 27 -19 36 7 6 21 7 21 21 -5 18
-35 50 -36 59 -2 7 30 24 23 24 -10 0 -34 40 -78 63 -70 9 4 20 18 23 31 5 21
-7 38 -78 112 -177 184 -328 400 -448 644 -68 139 -146 349 -180 486 -9 35
-15 42 -35 42 -19 0 -26 -8 -37 -42z"/>
<path d="M1296 1664 c-29 -77 46 -180 126 -172 30 3 33 6 36 42 7 78 -48 146
-118 146 -25 0 -40 -5 -44 -16z"/>
<path d="M4231 1614 c-52 -67 13 -175 71 -117 17 18 24 19 49 9 24 -9 32 -8
39 4 15 22 8 44 -17 54 -12 6 -25 24 -30 40 -8 27 -14 31 -50 34 -34 3 -44 -1
-62 -24z"/>
<path d="M2700 1508 c-43 -16 -60 -38 -60 -81 0 -35 7 -46 55 -94 31 -29 53
-58 50 -64 -4 -5 -2 -15 3 -22 6 -7 12 -28 14 -47 2 -23 8 -35 18 -35 11 0 16
13 18 48 3 42 6 47 23 42 10 -3 27 -7 37 -10 9 -2 24 0 32 5 13 9 10 14 -15
35 -16 14 -49 30 -72 36 -37 10 -41 14 -33 29 13 24 13 106 0 130 -15 29 -41
39 -70 28z"/>
</g>
</svg>
