<?xml version="1.0" standalone="no"?>
<!DOCTYPE svg PUBLIC "-//W3C//DTD SVG 20010904//EN"
 "http://www.w3.org/TR/2001/REC-SVG-20010904/DTD/svg10.dtd">
<svg version="1.0" xmlns="http://www.w3.org/2000/svg"
 width="928.000000pt" height="654.000000pt" viewBox="0 0 928.000000 654.000000"
 preserveAspectRatio="xMidYMid meet">
<metadata>
Created by potrace 1.16, written by Peter Selinger 2001-2019
</metadata>
<g transform="translate(0.000000,654.000000) scale(0.100000,-0.100000)"
fill="#000000" stroke="none">
<path d="M3026 6504 c-130 -32 -143 -37 -220 -93 -92 -67 -144 -119 -206 -206
-24 -33 -44 -62 -46 -64 -1 -1 -18 12 -37 30 -18 19 -65 55 -103 81 -60 41
-86 51 -198 78 l-129 30 -151 -36 c-83 -20 -164 -43 -181 -51 -75 -39 -178
-127 -228 -196 -74 -99 -82 -116 -118 -263 -29 -118 -32 -149 -39 -359 -5
-126 -9 -455 -9 -730 l-1 -500 34 -140 c36 -155 63 -215 142 -322 30 -40 54
-76 54 -81 0 -4 55 -62 122 -129 l123 -122 115 -46 c154 -62 173 -62 341 5
l134 53 133 131 c126 124 146 151 187 251 l16 39 117 -116 117 -117 120 -48
c75 -30 135 -47 160 -47 24 0 94 21 175 53 107 42 144 62 178 95 l43 42 134
-53 c206 -83 305 -97 466 -69 92 17 371 125 439 171 l50 33 52 -28 c69 -37
288 -124 369 -146 46 -13 101 -18 199 -18 l135 -1 131 53 c71 28 134 52 139
52 5 0 23 -13 40 -29 35 -33 277 -131 324 -131 36 0 243 80 282 110 l27 19 23
-26 c46 -49 140 -101 301 -166 197 -78 290 -101 396 -95 66 3 99 13 232 66
l156 62 130 133 131 132 46 118 c26 64 47 133 47 153 0 33 -67 221 -105 294
-11 21 -13 35 -7 43 27 33 104 245 105 287 0 46 -47 175 -118 325 -18 39 -36
86 -40 105 -17 83 -158 298 -237 361 -95 77 -195 143 -262 175 -94 44 -350
104 -445 104 -59 0 -73 3 -78 18 -3 9 -23 53 -43 97 -21 44 -41 96 -45 115
-11 52 -61 145 -120 225 -59 80 -92 110 -192 179 -65 44 -86 52 -212 82 l-141
32 -137 -32 c-133 -31 -141 -34 -216 -90 -110 -81 -189 -190 -213 -292 -20
-83 -15 -81 -114 -59 -111 25 -193 19 -376 -25 -91 -22 -173 -44 -182 -49 -12
-7 -26 -4 -47 8 -16 10 -94 33 -173 52 l-143 33 -137 -33 c-129 -31 -203 -59
-217 -80 -3 -6 -19 -2 -38 9 -18 11 -58 25 -90 31 -66 13 -91 39 -103 104 -9
52 -45 123 -107 212 -36 52 -71 87 -129 128 -74 53 -90 60 -200 86 -66 16
-136 29 -157 28 -20 0 -98 -16 -175 -35z m302 -81 c129 -32 210 -83 279 -177
64 -86 84 -129 108 -230 l22 -90 100 -26 c65 -17 114 -36 138 -54 l37 -28 55
38 c40 28 84 46 162 66 130 34 163 35 289 4 102 -25 127 -35 173 -68 25 -19
26 -19 62 2 20 12 98 37 174 56 175 43 288 45 438 10 55 -14 100 -24 101 -23
0 1 11 50 24 109 21 97 28 115 75 181 79 109 159 160 303 194 l112 27 117 -28
c107 -24 126 -32 203 -85 145 -98 228 -226 275 -420 26 -112 26 -115 10 -179
-9 -35 -14 -66 -12 -68 2 -2 37 3 78 12 126 27 234 22 389 -18 74 -20 158 -47
185 -61 55 -27 193 -123 239 -165 40 -38 143 -177 172 -233 25 -50 74 -241 74
-289 0 -51 -49 -234 -71 -264 l-21 -29 26 -56 c14 -31 37 -104 51 -163 l26
-106 -27 -119 c-24 -107 -31 -125 -77 -189 -56 -78 -163 -163 -244 -194 -27
-10 -104 -30 -172 -45 -147 -33 -174 -31 -394 21 -171 41 -267 81 -365 152
-37 26 -73 52 -80 56 -8 5 -28 -2 -50 -17 -21 -14 -85 -36 -149 -51 l-112 -27
-109 26 c-138 31 -136 30 -204 77 -47 33 -60 38 -76 29 -12 -6 -78 -25 -149
-42 -181 -43 -293 -42 -498 5 -167 38 -237 63 -308 108 l-47 30 -68 -44 c-83
-55 -124 -72 -277 -109 -87 -22 -154 -32 -245 -36 -116 -5 -135 -3 -259 27
-74 17 -156 40 -182 50 l-48 18 -61 -45 c-72 -52 -85 -57 -217 -89 -127 -30
-132 -30 -265 2 -92 22 -117 32 -173 74 -112 81 -182 193 -226 360 l-27 105
-1 -95 c-1 -69 -9 -129 -30 -213 -24 -101 -36 -128 -77 -188 -94 -137 -195
-206 -355 -243 -60 -14 -120 -26 -134 -26 -14 0 -74 11 -134 26 -92 21 -118
32 -170 70 -63 46 -135 134 -176 214 -12 25 -35 98 -50 163 l-27 118 4 717 4
717 33 132 c35 141 73 214 151 293 79 78 152 116 288 149 70 17 137 31 149 31
12 0 66 -11 121 -24 116 -27 185 -70 292 -183 l66 -68 54 82 c29 46 73 108 97
138 58 73 191 171 262 192 47 13 211 50 234 52 4 1 56 -11 115 -26z"/>
<path d="M3325 5183 l0 -768 -23 -43 c-17 -33 -35 -49 -70 -65 -53 -24 -132
-28 -157 -7 -32 27 -26 -1 8 -35 31 -31 41 -35 86 -35 100 0 161 49 181 143 7
37 10 279 8 783 -3 622 -5 734 -18 762 -13 30 -15 -44 -15 -735z"/>
<path d="M6171 5822 c-4 -96 -131 -149 -225 -94 l-36 21 15 -28 c8 -16 31 -39
50 -51 53 -33 143 -25 185 15 37 35 46 80 27 126 -13 29 -15 30 -16 11z"/>
<path d="M4534 5410 c24 -130 11 -596 -19 -728 -53 -226 -216 -335 -505 -336
-135 -1 -225 22 -309 78 -58 40 -55 19 6 -34 94 -83 250 -120 415 -100 260 31
381 133 427 360 32 158 30 680 -4 751 -12 27 -14 28 -11 9z"/>
<path d="M2969 5370 c-15 -25 -55 -94 -89 -155 -74 -130 -152 -249 -188 -287
-14 -15 -45 -35 -68 -44 -41 -16 -45 -15 -89 6 -42 20 -106 88 -238 250 -25
31 -24 29 4 -14 43 -66 167 -213 217 -258 50 -45 81 -54 132 -39 64 19 136
113 279 363 66 116 72 132 69 175 l-3 48 -26 -45z"/>
<path d="M6145 4913 c0 -521 -1 -531 -56 -578 -38 -31 -89 -33 -144 -5 -21 11
-40 18 -42 17 -10 -11 64 -78 97 -88 78 -24 133 6 162 89 20 58 19 964 -2
1010 -14 30 -15 -12 -15 -445z"/>
<path d="M5600 5288 c0 -46 -21 -76 -62 -93 -49 -19 -70 -14 -192 48 -122 63
-190 73 -246 35 -39 -26 -51 -60 -37 -101 l9 -28 18 29 c29 47 58 62 121 62
50 0 72 -7 164 -55 131 -67 179 -72 226 -26 33 33 39 88 14 131 l-14 25 -1
-27z"/>
<path d="M2188 4774 c-3 -494 -4 -531 -22 -564 -53 -100 -142 -145 -226 -116
-48 16 -51 5 -10 -36 29 -29 34 -30 95 -26 79 5 127 38 165 114 l25 49 5 529
c5 485 4 530 -12 554 -16 25 -17 -1 -20 -504z"/>
<path d="M4820 5015 c0 -3 21 -29 47 -56 60 -64 106 -87 272 -138 72 -22 145
-48 162 -57 38 -19 49 -11 23 17 -28 31 -75 53 -209 95 -154 48 -190 63 -247
108 -27 20 -48 33 -48 31z"/>
<path d="M6784 4970 c-100 -31 -154 -213 -101 -342 13 -32 13 -31 9 29 -18
254 180 345 384 178 101 -83 164 -92 213 -29 25 32 28 103 6 149 -11 21 -13
23 -9 7 9 -37 -23 -110 -56 -127 -57 -30 -114 -11 -197 65 -31 28 -70 54 -92
60 -61 16 -123 20 -157 10z"/>
<path d="M5648 4679 c-9 -130 -74 -224 -198 -283 -63 -30 -69 -31 -200 -31
-190 1 -313 37 -434 130 -59 45 -46 16 21 -46 101 -95 250 -143 443 -143 150
1 210 19 289 90 74 67 106 138 106 239 0 44 -5 88 -11 99 -9 15 -12 5 -16 -55z"/>
<path d="M6481 4400 c23 -45 123 -142 197 -191 83 -55 144 -79 256 -104 237
-53 437 57 373 205 l-15 35 -1 -33 c-2 -55 -30 -90 -101 -125 -52 -26 -80 -33
-142 -36 -188 -8 -411 84 -533 221 -26 29 -41 42 -34 28z"/>
<path d="M5182 3350 c-122 -30 -182 -63 -274 -150 l-46 -45 -55 39 c-47 33
-76 44 -196 71 l-141 33 -127 -29 c-71 -16 -135 -32 -144 -35 -9 -2 -55 -33
-102 -67 -112 -81 -191 -187 -223 -296 -30 -108 -37 -110 -200 -69 -183 47
-293 45 -498 -5 -180 -45 -211 -58 -330 -141 -88 -61 -93 -63 -122 -51 -42 17
-318 82 -384 90 -50 6 -165 -6 -204 -21 -12 -5 -16 0 -16 17 0 32 -47 122
-106 204 -31 45 -75 88 -125 125 -71 53 -88 60 -186 84 -209 50 -198 49 -387
16 -338 -61 -866 -179 -914 -204 -112 -60 -233 -182 -291 -296 -22 -42 -77
-272 -92 -385 -7 -48 -13 -333 -16 -709 l-5 -629 32 -136 c18 -75 44 -161 58
-191 45 -99 145 -232 265 -356 l118 -121 117 -46 c65 -26 132 -47 151 -47 18
0 102 27 185 60 l151 60 127 127 128 128 51 125 c45 110 52 136 58 220 l6 95
29 -45 c34 -54 267 -293 316 -324 52 -34 286 -123 358 -137 96 -18 267 -7 377
26 124 36 363 136 420 174 l47 32 152 -60 c165 -65 233 -81 340 -81 103 0 187
16 295 56 171 63 251 107 316 173 l59 61 76 -74 c73 -73 79 -76 219 -132 174
-68 177 -68 359 5 118 48 133 57 192 116 l64 64 65 -63 c60 -57 78 -67 197
-114 73 -29 146 -52 163 -52 17 0 84 21 148 46 110 43 123 52 193 120 l75 74
115 -115 114 -115 113 -45 c65 -26 129 -45 151 -45 22 0 87 20 152 46 111 44
118 49 205 135 l90 89 90 -91 c50 -50 109 -104 132 -120 57 -40 342 -154 445
-179 103 -25 236 -26 301 -4 31 11 52 13 60 6 6 -5 72 -33 146 -62 l134 -52
64 21 c63 21 64 21 91 1 43 -31 306 -130 346 -130 20 0 89 21 153 46 l118 47
125 126 c115 116 127 132 154 201 72 188 65 100 67 906 l3 729 -68 165 c-37
91 -78 195 -91 231 -55 158 -146 289 -255 368 -91 67 -102 71 -292 116 l-157
37 -131 -31 c-122 -29 -138 -35 -205 -84 -69 -50 -143 -134 -178 -203 -8 -16
-24 -73 -36 -126 -12 -54 -24 -98 -25 -98 -2 0 -23 7 -46 15 -92 32 -342 85
-404 85 -36 0 -105 -9 -155 -21 l-91 -21 -38 34 c-20 18 -69 54 -107 80 -61
41 -87 52 -198 78 -71 16 -140 30 -155 30 -52 0 -257 -52 -300 -77 l-43 -24
-72 52 c-70 51 -123 78 -160 79 -23 0 -53 51 -68 114 -15 65 -40 112 -105 207
-61 87 -100 124 -199 191 -60 41 -88 52 -195 78 -149 36 -172 36 -318 0z m311
-95 c85 -21 108 -32 178 -82 131 -93 220 -232 254 -396 l17 -84 74 -17 c84
-20 168 -70 231 -139 l40 -43 58 45 c51 39 72 48 174 72 l116 28 115 -26 c63
-14 128 -32 144 -40 39 -20 166 -113 166 -121 1 -4 9 -17 19 -30 l19 -22 104
25 c141 34 226 33 392 -6 134 -31 235 -71 293 -115 l33 -25 0 58 c0 32 14 111
29 175 25 99 37 127 75 181 67 93 145 145 265 174 53 13 107 23 120 23 40 0
282 -60 321 -80 95 -49 198 -158 256 -273 14 -26 38 -104 54 -172 l30 -124 0
-703 0 -703 -29 -118 c-24 -101 -36 -128 -77 -189 -71 -102 -148 -155 -273
-184 -123 -30 -151 -30 -282 2 -77 18 -126 37 -173 65 l-66 40 -62 -12 c-57
-10 -74 -8 -168 15 -60 15 -124 38 -151 55 l-46 28 -69 -14 c-55 -11 -87 -12
-159 -4 -140 17 -354 74 -447 120 -104 50 -219 139 -278 214 -45 56 -45 57
-60 35 -47 -70 -143 -152 -212 -182 -18 -8 -74 -25 -125 -36 l-92 -22 -113 26
c-102 24 -120 32 -186 80 -45 33 -92 80 -127 126 -30 40 -56 75 -59 77 -2 3
-16 -13 -31 -35 -15 -23 -59 -62 -100 -90 -60 -40 -91 -54 -165 -71 -115 -26
-151 -26 -273 3 -106 25 -180 66 -248 138 l-36 38 -23 -32 c-12 -18 -51 -53
-85 -77 -53 -36 -84 -49 -182 -72 -145 -36 -167 -36 -300 -2 -86 21 -120 36
-178 74 -39 27 -84 66 -99 88 l-27 39 -27 -25 c-46 -43 -177 -132 -223 -151
-24 -11 -98 -32 -164 -48 -106 -26 -138 -29 -270 -29 -135 1 -162 4 -273 33
-68 17 -144 41 -169 52 -57 25 -58 25 -96 -4 -126 -94 -409 -176 -637 -183
-125 -5 -145 -2 -270 26 -74 18 -157 42 -185 55 -80 38 -185 125 -243 201 -55
73 -136 228 -147 281 l-6 31 -57 -11 -57 -12 -6 -169 c-10 -307 -74 -466 -231
-578 -89 -63 -114 -74 -230 -102 -125 -30 -156 -31 -269 -4 -199 47 -322 192
-384 454 l-25 105 0 582 c0 321 5 635 10 698 10 113 49 317 75 391 25 70 112
175 192 233 70 51 86 57 202 85 323 76 853 181 915 181 17 0 86 -13 154 -30
104 -25 131 -36 183 -74 99 -72 184 -204 209 -324 12 -57 15 -63 34 -58 86 23
199 38 261 33 94 -7 335 -69 390 -101 25 -13 47 -21 50 -16 12 20 174 134 229
162 34 17 122 44 210 65 190 44 284 43 476 -6 114 -29 127 -30 155 -17 16 8
42 18 57 21 22 6 30 16 38 49 31 117 43 148 89 213 34 48 73 87 123 124 66 48
84 56 193 82 l120 29 124 -28 c119 -27 126 -30 208 -91 47 -35 86 -63 88 -63
2 0 22 26 45 58 24 35 68 79 108 107 57 42 83 53 177 76 120 30 129 30 278 -6z"/>
<path d="M5520 2708 c0 -41 -28 -81 -73 -104 -42 -22 -118 -22 -152 0 -43 28
-41 10 2 -34 38 -38 44 -40 99 -40 103 0 161 58 151 148 -6 57 -27 81 -27 30z"/>
<path d="M1644 2500 c-5 -33 -16 -54 -41 -77 -39 -37 -60 -44 -244 -78 -74
-13 -225 -43 -336 -66 l-203 -42 0 -199 c0 -169 2 -198 15 -198 13 0 15 25 15
169 l0 168 145 31 c80 18 243 50 363 73 119 22 228 47 241 56 55 36 71 63 71
122 0 76 -17 101 -26 41z"/>
<path d="M8642 1601 c-3 -786 -3 -779 -53 -815 -36 -25 -98 -20 -163 12 -31
16 -56 26 -56 22 0 -20 49 -65 94 -86 88 -41 156 -28 188 36 17 32 18 90 18
770 -1 568 -4 742 -14 765 -10 24 -13 -104 -14 -704z"/>
<path d="M5495 2260 c2 -19 7 -188 10 -375 8 -389 -2 -560 -34 -624 -36 -69
-110 -90 -184 -52 -43 22 -45 20 -16 -21 39 -54 120 -73 180 -42 79 40 96 189
82 724 -8 296 -13 361 -26 390 l-17 35 5 -35z"/>
<path d="M5000 2207 c0 -49 -23 -93 -58 -111 -33 -17 -160 -36 -240 -36 l-57
0 8 -227 c8 -252 -3 -542 -24 -586 -27 -59 -134 -84 -212 -49 -51 23 -57 18
-27 -21 44 -56 138 -69 225 -32 29 12 36 22 51 72 14 48 17 104 18 333 0 151
-4 314 -8 363 l-8 87 49 0 c79 0 226 21 256 37 51 26 74 127 42 183 -14 25
-14 25 -15 -13z"/>
<path d="M3806 2108 c-3 -19 -20 -48 -37 -64 -44 -42 -117 -41 -219 5 -41 19
-93 36 -115 39 -115 12 -206 -71 -164 -150 10 -19 12 -18 27 13 41 79 134 100
243 54 96 -41 170 -59 203 -51 16 4 41 20 57 36 24 24 29 37 29 77 0 62 -15
88 -24 41z"/>
<path d="M3986 2070 c11 -18 31 -38 46 -46 26 -13 169 -34 241 -34 35 0 37 2
37 30 l0 30 -72 0 c-96 0 -202 16 -240 36 l-30 16 18 -32z"/>
<path d="M6807 2043 c-5 -50 -32 -110 -188 -422 -194 -386 -244 -473 -290
-496 -48 -25 -99 -19 -143 17 -33 27 -37 28 -27 9 7 -12 30 -40 52 -62 34 -34
45 -39 86 -39 43 0 51 4 97 53 43 43 81 111 233 412 190 377 219 448 210 522
-8 70 -23 73 -30 6z"/>
<path d="M2203 1931 c-28 -11 -68 -31 -87 -46 -35 -27 -87 -101 -101 -143 -6
-21 -4 -22 22 -16 15 3 35 16 43 28 69 100 213 161 303 127 14 -5 41 -24 61
-41 47 -42 46 -22 -1 31 -71 78 -140 95 -240 60z"/>
<path d="M2745 1812 c0 -86 -3 -103 -26 -147 -47 -87 -97 -104 -459 -150 -260
-33 -270 -35 -270 -50 0 -27 21 -69 28 -58 8 13 62 23 307 53 350 44 397 65
441 199 15 47 16 65 6 138 -16 122 -28 129 -27 15z"/>
<path d="M1580 1813 c0 -53 -42 -105 -103 -127 -31 -12 -626 -136 -650 -136
-2 0 -7 -144 -10 -319 -5 -298 -7 -323 -28 -370 -19 -45 -29 -54 -82 -81 -61
-31 -114 -38 -147 -20 -15 8 -17 6 -13 -10 8 -32 52 -60 92 -60 41 0 128 38
153 66 45 51 49 82 55 415 3 175 8 319 10 319 29 0 650 133 671 144 55 28 82
71 82 130 0 30 -6 60 -15 72 -13 18 -14 16 -15 -23z"/>
<path d="M3019 1762 c20 -38 112 -111 159 -126 26 -9 105 -27 175 -41 71 -14
142 -32 159 -41 34 -17 47 -11 32 14 -18 31 -97 61 -224 87 -164 33 -209 49
-265 92 -34 25 -44 30 -36 15z"/>
<path d="M7332 1758 c-18 -6 -50 -30 -71 -53 -62 -67 -76 -175 -36 -283 14
-37 14 -37 8 24 -14 155 72 264 209 264 56 0 136 -29 175 -63 l36 -32 -16 32
c-48 93 -194 146 -305 111z"/>
<path d="M3853 1540 c0 -61 -5 -87 -27 -135 -74 -161 -204 -239 -421 -252
-161 -9 -300 24 -390 93 -54 41 -58 29 -9 -26 44 -49 140 -96 237 -117 95 -20
266 -12 358 16 122 38 239 153 270 264 16 57 14 155 -3 197 -15 35 -15 35 -15
-40z"/>
<path d="M2722 1312 c-39 -130 -278 -247 -529 -259 -179 -9 -289 21 -372 100
-51 50 -40 18 16 -44 82 -91 191 -124 378 -116 300 13 568 169 540 313 -8 47
-20 49 -33 6z"/>
<path d="M7046 1162 c28 -49 123 -136 180 -165 27 -13 87 -37 134 -53 74 -24
101 -28 210 -28 117 -1 128 1 175 26 28 14 62 39 77 55 27 28 27 29 9 56 l-17
27 -25 -26 c-13 -15 -51 -40 -84 -55 -52 -25 -71 -29 -150 -29 -178 0 -372 70
-474 172 -47 46 -52 48 -35 20z"/>
<path d="M8116 1090 c27 -119 9 -182 -55 -200 -51 -13 -99 5 -155 58 l-39 37
19 -33 c27 -49 96 -109 137 -120 114 -32 164 60 113 208 -14 41 -23 64 -20 50z"/>
</g>
</svg>
