<?xml version="1.0" standalone="no"?>
<!DOCTYPE svg PUBLIC "-//W3C//DTD SVG 20010904//EN"
 "http://www.w3.org/TR/2001/REC-SVG-20010904/DTD/svg10.dtd">
<svg version="1.0" xmlns="http://www.w3.org/2000/svg"
 width="1113.000000pt" height="1078.000000pt" viewBox="0 0 1113.000000 1078.000000"
 preserveAspectRatio="xMidYMid meet">
<metadata>
Created by potrace 1.16, written by Peter Selinger 2001-2019
</metadata>
<g transform="translate(0.000000,1078.000000) scale(0.100000,-0.100000)"
fill="#ffffff" stroke="none">
<path d="M1040 10745 c0 -29 -4 -35 -25 -40 -14 -3 -36 -7 -50 -10 -16 -4 -25
-12 -25 -25 0 -27 12 -31 63 -21 41 7 46 6 51 -13 3 -12 6 -33 6 -48 0 -37 22
-118 32 -118 13 0 20 46 16 119 l-3 70 35 3 c27 2 35 7 35 23 0 16 -8 21 -41
23 -39 3 -42 5 -48 38 -5 25 -12 34 -26 34 -16 0 -20 -7 -20 -35z"/>
<path d="M3225 10761 c-3 -6 -5 -63 -4 -126 l1 -116 -36 -18 -36 -19 0 73 c0
82 -6 105 -26 105 -18 0 -23 -27 -26 -123 l-3 -79 -65 -27 c-64 -27 -87 -55
-57 -67 9 -3 43 6 76 19 l61 25 0 -105 0 -104 -57 -25 c-32 -14 -73 -32 -91
-40 -19 -8 -32 -20 -29 -27 7 -22 56 -19 113 7 31 14 58 26 60 26 2 0 4 -11 4
-24 0 -25 26 -54 37 -42 4 4 10 27 13 52 4 40 9 48 38 59 l32 14 0 -100 c0
-82 3 -101 16 -106 27 -10 34 17 34 127 l0 106 83 31 c62 23 82 35 82 49 0 28
-27 28 -96 0 -35 -14 -64 -24 -65 -23 -4 4 -6 62 -5 135 l1 73 48 20 c26 12
62 23 79 26 45 8 61 29 40 50 -15 16 -22 14 -96 -14 l-80 -30 -3 111 c-3 94
-6 111 -20 114 -9 2 -19 -2 -23 -7z m5 -391 c0 -55 1 -103 2 -107 1 -10 -61
-47 -67 -41 -3 3 -8 52 -11 109 l-7 104 34 17 c19 9 37 17 42 17 4 1 7 -44 7
-99z"/>
<path d="M8895 10705 c-16 -18 -36 -74 -66 -179 l-42 -153 -35 20 c-23 14 -54
21 -89 22 -46 0 -56 -4 -82 -30 -16 -16 -32 -45 -36 -63 -6 -28 -2 -36 24 -61
49 -46 174 -67 231 -38 21 11 25 20 27 62 1 44 66 295 94 366 l10 26 129 -22
c71 -13 133 -26 138 -29 6 -3 8 -23 6 -44 -2 -20 -13 -131 -25 -247 -12 -115
-23 -214 -26 -218 -2 -4 -20 2 -38 13 -26 16 -47 20 -87 18 -46 -3 -54 -6 -62
-29 -25 -72 37 -126 149 -131 l69 -3 8 35 c9 47 44 336 58 486 14 141 9 158
-48 173 -33 9 -262 51 -277 51 -3 0 -17 -11 -30 -25z"/>
<path d="M2203 10669 c-17 -18 -24 -19 -43 -9 -34 18 -50 -3 -22 -33 25 -27
16 -53 -16 -43 -27 9 -38 -11 -19 -32 18 -20 5 -54 -17 -46 -19 7 -30 -14 -16
-31 8 -9 9 -29 5 -55 -5 -31 -3 -46 9 -59 16 -17 15 -22 -9 -76 -14 -32 -73
-143 -133 -247 l-107 -190 -60 6 c-98 10 -252 -9 -311 -38 -63 -31 -153 -118
-204 -198 -41 -63 -90 -194 -90 -241 0 -83 -45 -120 -189 -156 -114 -29 -142
-44 -229 -127 -132 -124 -171 -214 -176 -413 -3 -97 0 -123 20 -182 66 -194
258 -366 517 -463 51 -19 119 -48 152 -64 121 -60 150 -66 285 -65 143 2 178
12 252 75 50 42 94 100 132 177 34 67 44 107 52 191 8 104 11 127 23 189 6 29
11 69 11 89 0 27 12 49 53 101 193 239 227 315 227 510 0 115 -18 182 -69 253
-17 24 -40 63 -53 88 -22 45 -118 149 -170 186 l-28 19 15 62 c33 139 192 434
234 431 48 -4 62 3 73 33 7 22 14 27 21 20 6 -6 17 -11 24 -11 18 0 16 27 -3
38 -25 14 3 53 36 50 32 -4 41 29 10 40 -18 7 -19 10 -8 20 8 6 27 10 44 9 35
-2 40 22 8 38 -17 8 -19 14 -11 32 16 36 -11 74 -78 110 -70 38 -112 41 -142
12z m115 -47 l53 -28 -47 -89 c-26 -50 -57 -106 -70 -127 l-23 -36 -57 21
c-31 11 -58 27 -61 34 -10 26 116 253 140 253 7 -1 36 -13 65 -28z m-144 -301
c3 -5 -9 -31 -27 -57 -32 -47 -70 -118 -255 -474 -178 -343 -488 -928 -502
-949 -14 -20 -18 -21 -42 -10 -23 10 -27 16 -21 38 8 34 37 91 83 166 21 33
124 213 230 400 106 187 201 351 211 364 11 13 19 28 19 33 0 5 54 103 120
218 66 115 120 217 120 226 0 35 50 69 64 45z m-366 -529 c-1 -5 -67 -121
-145 -258 l-142 -250 -35 4 c-59 7 -185 -82 -217 -153 -27 -58 -26 -179 2
-224 20 -33 19 -46 -4 -46 -32 0 -6 -33 48 -62 70 -37 95 -41 95 -15 0 16 7
18 54 14 102 -8 175 37 227 139 24 48 29 71 29 129 0 78 -8 99 -51 146 l-29
30 131 249 c71 137 132 251 134 254 23 22 183 -116 221 -190 43 -86 66 -192
62 -288 -3 -79 -7 -94 -50 -182 -49 -99 -87 -146 -209 -251 -64 -55 -66 -57
-77 -125 -6 -37 -16 -111 -22 -163 -6 -52 -18 -128 -27 -169 -32 -151 -141
-313 -229 -338 -87 -25 -144 -30 -197 -17 -29 6 -92 21 -140 33 -108 25 -249
82 -297 119 -19 15 -54 40 -78 56 -54 37 -141 130 -174 187 -14 24 -36 77 -48
118 -19 63 -22 88 -17 165 13 187 80 307 230 410 36 24 75 40 126 51 41 9 101
27 133 42 66 29 90 63 103 142 11 68 52 181 82 226 75 114 170 197 246 215 44
11 269 12 265 2z m442 -398 c38 -125 23 -300 -37 -418 -26 -51 -119 -180 -179
-248 -18 -20 -35 -52 -38 -70 -2 -18 -9 -64 -15 -103 -6 -38 -16 -116 -21
-172 -6 -56 -19 -126 -29 -157 -39 -111 -136 -230 -218 -266 -55 -25 -246 -31
-313 -10 l-45 14 105 11 c58 7 124 20 147 30 91 37 197 190 236 340 9 33 23
121 32 195 25 209 30 221 136 315 50 44 104 100 121 124 53 75 100 199 106
273 4 60 -8 161 -25 206 -4 10 -2 13 5 8 6 -4 21 -36 32 -72z"/>
<path d="M1076 8671 c-3 -4 -10 -20 -16 -35 -10 -26 -8 -27 116 -89 l125 -62
19 25 c11 14 18 30 17 35 -3 9 -233 134 -249 135 -4 0 -9 -4 -12 -9z"/>
<path d="M6833 10622 c-64 -27 -93 -70 -114 -170 -10 -48 -21 -123 -24 -167
-4 -44 -15 -149 -27 -232 -11 -84 -17 -160 -14 -169 5 -13 14 -15 44 -9 121
22 272 169 272 264 0 26 8 34 74 70 40 23 89 44 107 48 37 7 50 19 42 40 -10
24 -61 13 -150 -33 -109 -56 -123 -70 -127 -123 -4 -58 -47 -117 -125 -168
-34 -24 -67 -43 -73 -43 -13 0 -6 72 24 250 25 152 31 170 58 170 30 0 100 37
137 73 59 55 68 140 20 185 -32 30 -74 35 -124 14z"/>
<path d="M10754 10409 c-3 -6 -6 -33 -5 -59 1 -52 -8 -60 -76 -60 -45 0 -63
-9 -63 -32 0 -19 5 -20 70 -16 l70 5 0 -62 c0 -45 4 -66 16 -76 25 -20 35 6
31 79 l-4 62 32 0 c40 0 70 22 62 44 -5 13 -15 15 -47 10 -39 -6 -40 -6 -40
23 0 74 -24 117 -46 82z"/>
<path d="M5485 9942 c-55 -34 -93 -90 -136 -197 -4 -11 -10 -59 -13 -106 -9
-137 -63 -264 -170 -398 -99 -123 -272 -255 -385 -292 -90 -30 -114 -52 -107
-104 3 -22 5 -45 5 -51 1 -6 14 -25 30 -41 l29 -31 3 -218 4 -218 -75 -58
c-41 -32 -127 -94 -191 -138 -63 -43 -120 -84 -126 -92 -11 -13 -34 -641 -25
-680 2 -9 32 -30 65 -46 85 -42 740 -343 752 -346 6 -2 49 -22 98 -45 48 -22
91 -41 96 -41 8 0 107 73 121 89 3 4 23 19 45 36 22 16 45 34 50 41 6 6 28 24
50 40 46 33 277 215 285 223 3 3 44 35 91 71 l86 65 6 175 c4 96 10 265 13
376 l7 201 -314 132 c-173 73 -332 141 -354 151 -22 10 -84 37 -137 60 l-98
43 0 48 c0 55 -5 57 -58 30 -20 -11 -68 -34 -107 -52 -38 -18 -86 -43 -106
-55 -20 -13 -40 -20 -43 -17 -3 4 -6 0 -6 -7 0 -7 -3 -10 -7 -6 -5 4 -8 64 -8
132 0 110 2 124 17 124 9 0 29 5 45 12 15 6 30 12 33 13 3 1 12 4 20 8 28 11
95 18 236 23 124 4 148 2 195 -15 30 -11 83 -27 119 -36 36 -9 98 -32 138 -51
95 -43 164 -48 213 -13 47 32 52 38 81 89 22 39 33 72 54 165 13 55 15 180 4
265 -6 52 -13 117 -16 144 -6 59 -88 346 -114 395 -44 86 -130 166 -211 197
-68 26 -148 29 -184 6z m170 -42 c57 -25 135 -84 163 -125 24 -35 81 -200 115
-335 14 -53 31 -162 38 -242 11 -127 11 -159 -3 -241 -26 -162 -83 -249 -171
-264 -51 -8 -153 42 -214 104 -61 62 -107 171 -162 386 -48 185 -57 278 -42
442 9 104 15 129 43 185 55 107 127 135 233 90z m-255 -775 c33 -119 83 -249
120 -313 l19 -32 -27 6 c-15 4 -54 15 -86 26 -122 40 -364 32 -503 -17 -38
-13 -91 -27 -119 -30 -42 -6 -52 -4 -68 14 -12 13 -20 37 -20 63 l-1 42 77 27
c86 31 103 41 208 120 133 100 274 267 320 379 14 33 14 33 30 -66 10 -54 32
-153 50 -219z m-240 -560 c0 -14 -5 -25 -10 -25 -11 0 -116 -60 -227 -130 -42
-27 -63 -35 -63 -26 0 8 -3 21 -6 30 -4 10 1 18 12 23 11 3 33 17 49 30 17 13
35 27 40 31 12 8 153 77 175 85 27 10 30 7 30 -18z m0 -84 c0 -15 -3 -49 -6
-75 -6 -43 -9 -47 -46 -56 -66 -18 -131 -50 -174 -85 -52 -43 -94 -147 -94
-233 0 -61 31 -143 66 -174 51 -45 226 -95 300 -84 109 15 257 95 318 171 60
77 83 203 50 281 -42 101 -97 132 -251 141 l-93 6 0 -26 c0 -14 -4 -29 -10
-32 -5 -3 -10 -19 -10 -36 0 -34 -16 -39 -26 -7 -4 13 -14 29 -23 36 -15 13
-15 13 0 9 9 -3 26 1 38 10 18 12 21 23 19 61 -2 34 -7 47 -18 47 -11 0 -14 9
-12 35 2 19 5 35 5 36 2 1 774 -328 835 -356 21 -9 -2 -30 -321 -294 l-344
-284 -429 184 c-236 101 -445 191 -464 201 -19 10 -48 20 -64 23 -28 5 -25 8
60 64 49 32 143 100 209 151 66 50 156 116 201 147 80 57 262 167 277 168 4 0
7 -13 7 -29z m893 -560 c-6 -22 -93 -104 -343 -324 l-335 -295 -3 47 c-1 25 1
83 5 128 l8 82 335 276 335 276 3 -80 c1 -44 -1 -93 -5 -110z m-1173 -167
c250 -108 459 -199 464 -204 10 -10 8 -218 -2 -236 -5 -8 -146 48 -477 191
-258 112 -477 209 -485 217 -12 10 -15 35 -12 126 l3 114 27 -7 c15 -4 232
-94 482 -201z m1164 -171 c-4 -87 -9 -160 -11 -163 -3 -3 -156 -125 -341 -271
l-337 -267 -3 42 c-2 22 -1 78 3 124 l7 82 331 297 c183 164 334 301 335 305
2 5 8 8 13 8 6 0 7 -62 3 -157z m-1190 -227 l479 -224 -2 -94 c-2 -103 -10
-160 -21 -156 -4 2 -222 102 -484 222 -434 199 -477 221 -472 240 3 12 6 69 6
129 0 59 3 107 8 107 4 0 223 -101 486 -224z"/>
<path d="M5540 9765 c-20 -24 -42 -202 -37 -300 10 -196 128 -484 217 -530 42
-22 56 -19 80 15 64 89 62 396 -3 560 -57 142 -87 190 -161 248 -33 25 -78 29
-96 7z m111 -42 c45 -41 69 -83 124 -223 36 -91 38 -101 42 -245 6 -168 -5
-250 -41 -292 l-22 -26 -38 33 c-46 40 -113 171 -153 295 -27 86 -28 98 -27
277 0 200 4 218 50 218 14 0 42 -16 65 -37z"/>
<path d="M5610 9473 c0 -163 85 -328 121 -235 15 38 5 171 -16 213 -20 40 -63
78 -87 79 -15 0 -18 -9 -18 -57z m57 15 c36 -40 46 -70 51 -158 5 -98 -6 -120
-36 -70 -16 26 -33 92 -58 223 -7 34 14 36 43 5z"/>
<path d="M9963 9598 c-11 -13 -61 -81 -111 -153 -134 -191 -112 -174 -247
-190 -117 -14 -132 -17 -233 -50 -174 -55 -430 -176 -562 -265 -151 -103 -187
-159 -177 -274 6 -66 30 -151 131 -468 95 -294 78 -267 182 -301 49 -15 105
-30 124 -33 19 -3 52 -10 73 -15 22 -6 69 -9 105 -8 l66 2 8 -31 c8 -31 30
-42 42 -23 4 5 2 21 -4 35 -9 24 -7 26 18 27 28 2 47 4 97 13 17 3 57 10 90
15 103 18 179 37 212 54 18 10 40 17 49 17 10 0 71 27 136 60 66 33 124 57
130 54 6 -4 8 -3 5 3 -4 6 0 16 9 24 13 10 16 9 21 -9 6 -23 27 -29 38 -12 4
6 1 17 -5 25 -13 16 9 49 85 125 24 24 58 70 75 101 25 47 28 60 17 71 -7 7
-30 78 -51 158 -66 256 -107 394 -130 445 -13 28 -29 74 -35 102 -12 48 -17
55 -64 82 -65 36 -178 77 -240 86 l-48 7 26 33 c90 119 206 298 198 306 -6 6
-17 1 -30 -13z m-103 -377 c148 -38 213 -80 226 -146 5 -29 1 -43 -21 -76 -26
-36 -99 -99 -116 -99 -4 0 -9 10 -11 23 -3 22 -48 39 -48 18 0 -6 4 -11 9 -11
5 0 11 -12 14 -26 4 -21 -3 -31 -42 -59 -182 -133 -488 -260 -652 -273 -64 -4
-66 -4 -73 21 -3 14 -3 32 0 40 8 21 -15 32 -32 15 -11 -11 -12 -20 -2 -45 7
-18 9 -36 4 -40 -4 -4 -76 -8 -159 -8 -139 0 -157 2 -205 24 -66 30 -92 62
-92 113 0 50 20 94 61 139 39 40 138 111 219 157 90 50 399 178 485 200 77 20
263 48 270 40 2 -2 -12 -22 -31 -46 -28 -33 -42 -42 -67 -42 -42 0 -67 -25
-67 -69 0 -42 7 -54 37 -69 34 -18 79 -4 108 34 27 36 27 62 0 84 -12 10 -8
20 27 66 46 62 49 62 158 35z m260 -239 c0 -10 27 -92 60 -183 32 -90 66 -194
74 -230 9 -36 25 -87 37 -114 25 -56 21 -86 -17 -147 -36 -58 -124 -168 -134
-168 -22 0 -48 73 -101 284 -32 127 -71 274 -87 327 -16 54 -26 102 -22 109 5
9 9 9 14 1 4 -7 37 19 84 64 42 41 80 75 85 75 4 0 7 -8 7 -18z m-184 -243
c13 -46 35 -133 50 -194 51 -214 84 -344 93 -368 7 -18 6 -28 -2 -35 -29 -23
-297 -152 -347 -166 -178 -52 -240 -67 -301 -72 -66 -7 -68 -6 -73 17 -23 99
-101 405 -127 497 -18 61 -30 114 -28 117 3 2 35 9 71 14 35 5 116 29 179 54
63 24 152 57 199 72 92 30 168 74 215 124 16 17 33 30 39 28 5 -2 20 -41 32
-88z m-1158 -189 c49 -15 92 -20 187 -20 68 0 136 5 151 10 36 14 48 1 62 -65
17 -83 78 -313 116 -441 20 -66 36 -129 36 -139 0 -17 -8 -17 -92 -12 -119 9
-206 30 -290 70 -57 27 -69 37 -79 67 -6 19 -22 63 -35 98 -14 34 -47 142 -75
240 -28 97 -52 185 -55 195 -7 21 -3 21 74 -3z"/>
<path d="M10027 8886 l-66 -64 35 -113 c19 -63 48 -170 65 -239 16 -69 41
-163 55 -209 l26 -84 24 29 c13 16 46 62 74 102 l50 73 -21 52 c-12 29 -29 84
-39 122 -9 39 -36 124 -60 190 -23 66 -49 139 -57 163 -8 23 -16 42 -17 42 -1
0 -32 -29 -69 -64z"/>
<path d="M9870 8765 c-44 -47 -117 -85 -256 -134 -76 -27 -177 -63 -224 -80
-47 -17 -102 -31 -122 -31 -21 0 -38 -4 -38 -8 0 -4 16 -64 36 -132 20 -69 44
-162 54 -207 10 -44 24 -101 30 -125 6 -23 16 -60 21 -80 9 -35 13 -38 45 -38
36 0 264 56 341 84 23 8 101 45 173 81 106 54 130 70 124 84 -6 14 -116 443
-146 569 -5 23 -11 42 -12 42 -1 0 -13 -11 -26 -25z"/>
<path d="M8740 8525 c0 -18 94 -336 120 -405 15 -41 30 -82 33 -91 10 -31 113
-80 210 -100 94 -19 187 -25 187 -11 -1 9 -17 75 -83 327 -30 116 -57 221 -60
235 l-6 26 -120 -4 c-106 -4 -220 7 -266 24 -8 4 -15 3 -15 -1z"/>
<path d="M3806 9354 c-3 -9 -6 -28 -6 -43 0 -23 -4 -27 -32 -29 -39 -3 -53
-15 -45 -36 4 -10 19 -16 41 -16 42 0 44 -4 47 -61 3 -59 8 -69 30 -69 21 0
22 3 19 82 -2 57 -2 57 32 66 23 6 33 14 33 28 0 15 -7 19 -38 19 -31 0 -37 3
-37 22 0 31 -10 53 -25 53 -7 0 -16 -7 -19 -16z"/>
<path d="M8973 9355 c-12 -8 -24 -28 -28 -43 -6 -28 -9 -29 -98 -41 -51 -6
-155 -16 -231 -21 -137 -10 -166 -18 -166 -47 0 -12 7 -13 28 -8 15 4 90 10
168 15 77 5 177 14 222 20 l82 12 21 -26 c27 -35 63 -34 100 3 33 34 38 75 14
121 -13 25 -22 30 -53 30 -21 0 -47 -7 -59 -15z"/>
<path d="M7883 9259 c-38 -123 -71 -158 -178 -192 -127 -40 -276 -61 -362 -51
-49 6 -53 5 -53 -15 0 -14 6 -21 18 -21 10 0 87 -23 172 -51 85 -27 200 -61
254 -74 112 -28 186 -50 233 -71 17 -8 34 -14 38 -14 4 0 20 -9 36 -21 16 -11
35 -22 42 -23 7 -2 25 -8 40 -15 62 -25 50 4 -48 117 -45 52 -159 252 -175
307 -11 39 0 87 45 198 5 13 2 17 -13 17 -17 0 -25 -16 -49 -91z m120 -382
c36 -54 61 -96 54 -93 -83 36 -192 72 -332 110 -276 74 -295 80 -295 87 0 3
35 9 78 12 133 11 290 65 336 116 l19 21 37 -77 c20 -43 67 -122 103 -176z"/>
<path d="M7330 8911 c0 -14 27 -28 72 -36 26 -5 55 -24 96 -64 63 -60 99 -116
127 -196 9 -27 20 -57 23 -65 13 -36 8 -81 -20 -175 -192 -654 -210 -710 -237
-733 -14 -13 -35 -31 -46 -41 -11 -10 -48 -39 -82 -65 -35 -26 -63 -51 -63
-56 0 -12 29 -20 35 -10 4 6 43 38 87 72 69 52 80 58 74 37 -18 -63 -36 -164
-32 -176 12 -30 26 -9 42 63 16 74 17 76 33 56 101 -129 138 -172 148 -172 7
0 13 5 13 11 0 12 -86 125 -136 179 l-33 35 19 70 c11 39 33 115 50 170 17 55
32 107 34 115 10 39 52 183 141 486 8 28 15 61 15 74 0 34 59 83 136 114 54
22 82 27 143 26 42 -1 91 -1 109 0 17 0 41 -4 51 -9 14 -8 22 -7 30 2 21 26
-74 78 -234 127 -73 22 -253 87 -360 130 -75 30 -235 51 -235 31z m365 -116
c94 -34 216 -77 273 -94 56 -18 102 -35 102 -38 0 -3 -22 -3 -50 0 -27 3 -75
2 -106 -3 -58 -10 -186 -63 -205 -86 -18 -22 -27 -17 -40 24 -24 76 -73 157
-128 216 -32 34 -47 56 -36 52 11 -4 97 -36 190 -71z"/>
<path d="M2705 7910 c-168 -44 -246 -107 -325 -264 -46 -93 -60 -155 -60 -273
0 -46 -5 -94 -11 -105 -7 -12 -11 -54 -10 -93 2 -65 -1 -73 -25 -95 -56 -54
-84 -141 -84 -270 1 -251 66 -393 206 -451 55 -22 71 -22 220 -1 6 1 21 11 34
22 12 11 26 18 30 15 4 -2 21 -1 37 4 27 8 33 5 69 -37 153 -178 219 -348 250
-642 9 -79 4 -283 -8 -360 -19 -128 -49 -174 -231 -361 -153 -155 -187 -208
-187 -289 0 -59 15 -93 62 -136 61 -58 126 -83 323 -124 155 -32 175 -45 175
-107 0 -20 -17 -70 -39 -117 -78 -165 -86 -214 -47 -317 13 -35 31 -97 41
-136 12 -51 22 -73 32 -73 11 0 13 7 9 23 -3 12 -10 47 -16 77 -7 30 -23 88
-36 128 -33 96 -27 134 43 279 38 79 47 107 45 147 -2 76 -23 91 -172 125
-195 45 -223 52 -260 71 -92 47 -136 110 -124 178 12 68 44 113 175 244 72 72
143 149 158 172 79 115 112 229 117 406 4 138 8 163 40 261 40 122 152 300
268 425 62 66 184 242 195 279 5 20 8 55 6 78 -4 40 -2 43 43 72 56 36 99 113
111 196 11 87 -5 252 -35 341 -30 92 -94 193 -143 225 -36 24 -90 30 -122 13
-14 -8 -19 -7 -19 3 0 8 -18 39 -40 70 -22 30 -40 58 -40 61 0 4 -19 45 -42
93 -65 136 -133 198 -270 244 -77 26 -244 25 -343 -1z m318 -29 c8 -8 -6 -11
-48 -11 -77 0 -196 -31 -244 -63 -135 -89 -219 -211 -242 -352 -12 -70 -15
-75 -38 -75 -15 -1 -42 -14 -61 -31 l-35 -30 -3 32 c-2 18 2 71 8 117 15 104
69 217 141 296 41 45 63 60 131 86 45 17 104 35 132 40 65 11 245 5 259 -9z
m-116 -108 c37 -9 86 -27 110 -40 95 -54 183 -198 188 -309 2 -35 6 -68 9 -73
4 -5 -8 -31 -26 -56 -32 -46 -33 -49 -35 -168 -6 -278 39 -397 169 -451 20 -9
38 -20 40 -26 5 -17 175 -29 200 -14 4 3 8 -19 8 -48 0 -76 -42 -160 -132
-263 -9 -11 -41 -49 -70 -85 -29 -36 -59 -72 -65 -80 -38 -45 -123 -165 -123
-174 0 -4 -11 -23 -25 -44 -26 -39 -84 -196 -87 -234 0 -13 -4 24 -8 82 -15
209 -97 401 -255 594 -24 30 -35 51 -28 53 18 6 68 101 83 156 14 53 9 218
-10 317 -30 159 -166 330 -262 330 -17 0 -23 6 -24 23 -2 30 -33 110 -46 118
-8 5 -7 26 1 71 24 124 76 204 191 295 63 50 90 53 197 26z m654 -369 c40 -20
101 -117 134 -212 32 -94 46 -286 25 -370 -14 -61 -75 -136 -123 -151 -51 -16
-163 -24 -182 -14 -14 8 -9 11 25 17 87 14 143 57 182 141 21 45 23 65 23 202
0 108 -4 156 -12 164 -7 7 -13 24 -13 39 0 49 -45 123 -94 155 -25 17 -46 33
-46 38 0 13 50 8 81 -9z m-117 -23 c-3 -9 -8 -25 -11 -36 -4 -19 -4 -20 11 -1
8 10 17 24 19 30 6 17 85 -40 107 -76 10 -17 17 -35 14 -40 -3 -5 7 -40 22
-78 26 -66 27 -76 21 -187 -6 -134 -24 -187 -79 -239 -34 -32 -69 -54 -87 -54
-5 0 -14 21 -20 48 -5 26 -15 58 -21 72 -11 27 -11 23 6 -87 l7 -43 -42 0
c-51 0 -110 28 -144 70 -44 51 -59 120 -64 280 -6 179 3 220 61 274 70 65 109
83 179 83 22 0 26 -4 21 -16z m-957 -29 c6 -4 21 -31 32 -59 l20 -52 -21 -7
c-27 -8 -38 10 -38 63 0 23 -4 44 -9 48 -15 8 -24 -33 -17 -78 5 -37 2 -46
-24 -74 -16 -18 -45 -39 -65 -47 l-35 -15 0 52 c0 61 19 95 81 144 43 34 55
38 76 25z m135 -157 c47 -19 119 -100 153 -172 15 -32 34 -91 42 -131 l15 -74
-28 -29 c-21 -22 -24 -29 -11 -29 8 0 19 5 22 10 25 41 35 -73 14 -170 -9 -44
-17 -55 -47 -73 -27 -16 -32 -23 -19 -25 25 -5 21 -17 -14 -46 -41 -35 -51
-33 -31 7 9 17 18 62 20 99 4 58 7 67 25 70 11 2 22 9 25 16 3 9 -3 11 -21 7
-23 -6 -25 -3 -31 37 -4 24 -14 79 -23 122 -11 53 -13 81 -6 83 5 2 19 11 29
19 18 14 16 15 -18 9 -28 -4 -38 -2 -38 8 0 7 -15 39 -34 70 -35 57 -35 57
-11 57 13 0 27 5 31 11 4 7 -7 10 -33 8 -29 -2 -47 3 -67 19 l-28 21 29 6 c60
13 70 24 23 24 -25 0 -51 -3 -59 -8 -8 -5 -29 -3 -52 7 -37 14 -38 16 -23 33
27 30 111 37 166 14z m-116 -95 c28 -16 63 -43 78 -61 70 -83 113 -223 123
-395 7 -131 -3 -169 -55 -216 -30 -27 -51 -36 -115 -46 -75 -13 -79 -13 -130
11 -72 33 -118 83 -146 159 -20 53 -25 87 -29 210 -5 169 6 220 65 291 68 82
125 95 209 47z"/>
<path d="M3345 7189 c-43 -12 -55 -35 -54 -98 1 -73 19 -122 53 -141 26 -14
28 -14 52 15 13 17 24 36 24 43 0 7 15 12 40 12 23 0 40 5 40 11 0 8 -13 9
-39 5 l-39 -6 -4 53 c-5 61 3 71 65 83 37 7 39 8 14 11 -15 3 -41 -3 -59 -11
-38 -19 -38 -19 -38 -2 0 23 -23 34 -55 25z"/>
<path d="M2376 6899 c-24 -19 -26 -26 -26 -95 0 -61 5 -86 29 -139 28 -62 31
-65 65 -65 30 0 38 5 53 33 34 64 8 226 -43 266 -33 26 -45 26 -78 0z m72 -34
c26 -33 48 -154 36 -196 -13 -44 -41 -60 -60 -35 -47 65 -69 202 -37 238 22
24 38 23 61 -7z"/>
<path d="M1035 7104 c-55 -7 -112 -14 -126 -16 -24 -2 -26 -6 -24 -38 2 -19 8
-54 14 -78 11 -40 61 -351 61 -382 0 -12 -12 -14 -57 -12 -73 4 -103 -18 -103
-78 0 -30 6 -43 31 -64 27 -23 38 -25 96 -23 58 2 68 6 90 31 20 24 23 35 18
70 -8 51 -63 361 -71 399 l-6 27 59 0 c32 0 94 7 138 14 44 8 81 14 81 13 3
-2 84 -345 84 -351 0 -3 -22 -2 -50 1 -61 7 -106 -10 -125 -47 -12 -24 -12
-30 2 -50 33 -46 126 -64 183 -35 62 32 62 59 4 295 -19 80 -43 188 -53 240
l-17 95 -65 1 c-35 1 -109 -4 -164 -12z m187 -58 c4 -21 0 -24 -61 -36 -36 -7
-99 -15 -138 -19 -72 -6 -73 -6 -82 20 -9 25 -7 27 27 33 21 3 69 8 107 12 39
4 72 8 74 10 2 2 19 4 37 4 25 0 33 -5 36 -24z"/>
<path d="M9042 7062 c-8 -23 6 -98 48 -245 23 -78 43 -148 46 -156 3 -8 -9 -5
-33 9 -22 13 -62 25 -95 27 -51 5 -59 3 -82 -20 -49 -49 -25 -131 54 -183 72
-48 179 -43 230 11 l23 25 -26 77 c-43 129 -119 404 -113 411 14 13 127 10
157 -5 39 -20 49 -47 49 -139 0 -94 17 -139 56 -147 37 -8 194 64 194 88 0 28
-27 27 -89 -4 -100 -51 -111 -43 -111 76 0 77 -11 106 -56 148 -40 38 -78 47
-183 43 -41 -2 -65 -8 -69 -16z"/>
<path d="M4581 6094 c-41 -19 -89 -45 -107 -59 l-31 -24 -49 44 c-76 68 -88
73 -132 50 -48 -25 -91 -54 -123 -83 l-27 -24 -50 26 c-27 14 -52 32 -55 41
-10 24 -37 18 -101 -21 -33 -19 -86 -49 -118 -65 -62 -31 -77 -59 -32 -59 26
0 166 71 193 97 11 12 16 12 30 0 24 -20 118 -67 135 -67 9 0 30 13 48 29 18
16 55 42 81 59 42 26 53 29 73 20 13 -6 24 -15 24 -19 0 -4 21 -22 47 -39 54
-36 65 -35 148 14 32 20 79 42 105 51 52 17 63 14 142 -39 15 -10 48 -24 74
-32 l47 -14 60 40 c97 63 105 62 193 -10 45 -37 80 -60 89 -56 24 9 17 33 -16
58 -17 13 -52 42 -78 66 -63 55 -92 55 -182 2 -37 -22 -75 -40 -84 -40 -18 0
-106 43 -147 71 -37 27 -72 23 -157 -17z"/>
<path d="M10737 6080 c-3 -11 -1 -38 4 -61 5 -23 8 -43 7 -44 -2 -1 -22 -12
-45 -24 -24 -12 -43 -26 -43 -32 0 -17 28 -22 62 -10 38 13 43 8 53 -58 9 -62
31 -111 48 -111 25 0 26 22 5 114 -10 49 -15 93 -11 97 4 4 31 16 58 27 51 20
70 47 40 58 -8 4 -38 -3 -65 -14 -51 -21 -60 -20 -60 9 0 27 -22 69 -35 69 -7
0 -15 -9 -18 -20z"/>
<path d="M9338 5862 c-15 -6 -18 -25 -22 -130 -5 -143 -20 -197 -82 -293 -46
-71 -113 -133 -180 -167 -52 -27 -269 -83 -379 -98 -21 -3 -42 -7 -45 -9 -4
-2 -17 28 -29 68 -45 140 -68 165 -122 137 -25 -14 -25 -65 1 -150 11 -36 20
-70 20 -77 0 -10 -97 -50 -104 -42 -2 2 -15 44 -30 93 -14 49 -32 99 -41 112
-20 31 -53 40 -73 20 -14 -14 -13 -26 11 -129 32 -135 31 -127 12 -127 -9 0
-27 -7 -40 -16 -29 -19 -24 -26 -55 93 -30 114 -84 158 -116 95 -9 -19 -7 -37
11 -95 42 -131 42 -139 1 -171 -42 -32 -126 -70 -176 -81 -19 -4 -40 -11 -46
-17 -17 -13 -287 -13 -312 1 -30 16 -36 -11 -12 -56 10 -20 34 -83 52 -140 36
-114 57 -132 78 -68 15 46 58 80 156 127 45 21 84 38 87 38 3 0 -4 -21 -16
-47 -18 -40 -22 -66 -22 -158 0 -105 2 -113 33 -173 43 -82 119 -156 172 -166
3 -1 32 -11 65 -24 33 -12 89 -28 125 -35 l64 -14 21 -65 c27 -88 47 -117 72
-102 19 12 24 69 9 132 -8 32 -8 32 32 32 38 0 40 -1 73 -67 30 -61 38 -68 66
-71 44 -4 68 32 60 91 -3 24 -9 50 -12 58 -4 12 7 22 42 37 l48 21 15 -48 c25
-80 40 -95 84 -87 20 4 40 14 43 23 4 9 -3 56 -13 104 l-20 88 36 43 c79 94
109 190 109 348 1 79 -4 105 -25 155 -14 33 -27 70 -28 83 -3 21 -31 59 -64
88 -15 14 90 24 254 25 120 0 186 -16 255 -62 101 -68 195 -140 207 -158 13
-22 37 -28 47 -12 3 6 -1 36 -9 68 -8 32 -25 100 -37 152 -11 52 -25 102 -29
110 -7 14 -141 542 -156 616 -10 51 -29 98 -39 101 -5 1 -18 -1 -27 -4z m55
-197 c19 -71 55 -213 81 -315 25 -102 56 -225 70 -275 13 -49 27 -112 31 -138
l8 -49 -104 75 c-157 114 -182 122 -369 121 -162 0 -330 -16 -405 -38 l-44
-14 -15 46 c-9 25 -14 47 -12 49 1 2 48 12 102 22 155 30 275 62 325 87 74 37
156 110 202 182 66 103 79 142 85 270 2 62 6 111 7 110 2 -2 18 -61 38 -133z
m-816 -475 c29 -85 53 -163 53 -173 0 -10 7 -31 15 -48 9 -16 31 -89 50 -162
19 -72 44 -166 55 -207 11 -41 36 -154 55 -250 20 -96 39 -185 42 -197 4 -19
1 -23 -19 -23 -22 0 -26 6 -37 58 -7 31 -18 73 -26 92 -16 38 -71 245 -80 299
-3 19 -8 39 -12 44 -3 5 -29 102 -58 216 -88 342 -113 435 -124 464 -13 33 -6
49 17 45 12 -2 33 -50 69 -158z m-280 98 c11 -14 50 -149 78 -268 10 -41 21
-82 25 -90 4 -9 35 -112 69 -230 34 -118 75 -260 91 -315 29 -97 40 -143 58
-252 9 -54 1 -83 -23 -83 -16 0 -39 71 -95 295 -21 83 -58 229 -83 325 -24 96
-50 214 -56 261 -6 47 -20 117 -30 155 -10 38 -27 102 -38 142 -19 68 -17 87
4 60z m-180 -70 c13 -16 26 -59 52 -173 56 -250 156 -666 190 -795 45 -170 55
-218 42 -205 -14 14 -70 220 -146 535 -36 151 -70 291 -75 310 -5 19 -21 80
-34 135 -14 55 -32 120 -41 144 -8 24 -15 47 -15 52 0 13 16 11 27 -3z m760
-259 c61 -120 83 -187 82 -251 -1 -137 -36 -252 -100 -325 -32 -37 -31 -38
-49 67 -6 36 -22 112 -36 168 -13 58 -24 135 -24 173 0 75 -15 123 -56 177
-14 18 -24 35 -22 37 2 3 31 11 64 19 54 12 62 12 89 -4 17 -10 40 -38 52 -61z
m-731 -52 c5 -33 2 -43 -19 -65 -62 -67 -95 -185 -76 -274 15 -70 65 -123 155
-164 l71 -33 17 -68 c9 -37 19 -76 22 -86 5 -15 1 -17 -38 -11 -24 4 -90 24
-147 45 -123 45 -156 72 -201 171 -31 67 -32 73 -28 171 4 107 2 99 82 242 28
50 137 140 147 123 5 -7 11 -30 15 -51z m455 -149 l43 -176 -35 -46 c-37 -50
-49 -56 -49 -27 0 11 -21 86 -46 168 -25 81 -49 162 -54 178 -5 17 -12 39 -15
51 -5 17 0 23 32 36 59 25 68 26 74 9 4 -9 26 -95 50 -193z m-224 -75 c28
-126 54 -235 58 -244 5 -12 -2 -19 -25 -27 -45 -16 -56 -7 -69 56 -7 31 -23
98 -37 147 -13 50 -32 129 -42 177 l-19 87 36 15 c20 8 38 15 41 15 3 1 29
-101 57 -226z m-416 179 c-15 -29 -34 -41 -96 -62 -80 -27 -178 -84 -208 -119
l-25 -30 -26 75 c-15 41 -29 81 -32 89 -4 11 24 14 148 17 135 3 158 6 193 25
49 27 58 28 46 5z m213 -102 c9 -36 18 -72 21 -80 17 -57 64 -260 59 -260 -1
0 -23 9 -48 20 -139 59 -164 213 -62 378 11 18 12 16 30 -58z m525 -355 c18
-75 32 -137 30 -138 -18 -11 -102 -47 -104 -45 -1 2 -14 52 -28 113 l-25 110
41 46 c23 26 44 47 47 48 3 0 20 -60 39 -134z m-231 -98 c12 -46 24 -91 28
-100 5 -15 -1 -17 -45 -17 l-50 0 -16 53 c-8 28 -18 68 -21 88 -6 34 -5 35 33
46 21 6 41 11 44 12 4 0 16 -36 27 -82z"/>
<path d="M4187 5708 c-14 -18 -35 -60 -48 -93 -24 -59 -24 -65 -23 -371 2
-311 7 -361 37 -351 9 3 12 87 12 328 l0 324 30 70 c30 69 31 70 72 73 35 3
44 -1 60 -25 57 -82 72 -194 73 -545 0 -124 3 -233 6 -242 8 -21 40 -20 49 2
4 9 11 150 15 312 8 289 11 325 50 463 10 33 14 37 44 37 26 0 41 -8 65 -35
68 -78 70 -91 71 -447 1 -167 5 -280 11 -284 6 -3 17 0 25 7 13 11 15 54 12
323 -3 302 -4 312 -26 354 -13 24 -39 61 -59 82 -34 39 -38 40 -98 40 -77 0
-84 -9 -111 -130 -17 -81 -18 -83 -26 -49 -12 61 -54 144 -83 167 -21 16 -41
22 -81 22 -48 0 -55 -3 -77 -32z"/>
<path d="M6682 5702 c-101 -32 -189 -131 -219 -245 -7 -29 -14 -99 -15 -157
l-3 -105 42 -61 c61 -89 123 -140 201 -164 111 -35 213 -22 289 36 36 28 41
45 18 64 -13 11 -21 8 -48 -17 -58 -55 -134 -66 -239 -37 -68 20 -130 69 -178
144 l-33 51 5 117 c6 126 16 161 69 238 45 66 109 94 216 94 77 0 82 -1 102
-27 19 -27 21 -27 37 -11 17 17 17 19 -2 45 -35 47 -151 63 -242 35z"/>
<path d="M5615 5686 c-69 -32 -124 -110 -131 -188 -8 -78 15 -114 96 -156 36
-18 92 -56 123 -85 l57 -52 6 -80 c7 -101 -2 -116 -77 -124 -30 -3 -82 -4
-117 -3 -53 3 -61 6 -51 18 17 21 7 26 -29 13 -48 -17 -50 -44 -4 -68 27 -14
236 -13 270 2 55 25 73 99 53 222 -8 44 -15 56 -72 107 -35 32 -93 73 -128 90
-71 37 -84 58 -75 121 9 58 29 89 78 122 38 25 47 26 114 22 66 -5 72 -4 72
13 0 11 -9 24 -19 30 -28 14 -130 12 -166 -4z"/>
<path d="M5262 5618 c3 -120 -22 -437 -43 -532 -22 -101 -32 -123 -56 -130
-145 -40 -175 -9 -193 200 -9 98 -9 174 1 317 13 191 10 217 -23 204 -10 -3
-17 -46 -26 -158 -15 -189 -15 -281 -2 -407 19 -170 67 -228 181 -219 72 6
108 24 131 63 28 49 57 200 63 330 3 66 10 153 16 195 18 123 2 209 -38 209
-11 0 -13 -16 -11 -72z"/>
<path d="M6125 5649 c-13 -24 -14 -37 -6 -61 14 -41 14 -253 0 -405 l-12 -121
-23 10 c-18 8 -29 7 -49 -6 -32 -21 -39 -38 -31 -71 6 -22 11 -25 55 -25 82 0
91 13 107 170 8 75 13 204 12 292 -3 148 -2 156 15 146 27 -14 30 -30 18 -109
-13 -80 -9 -104 21 -120 28 -15 58 12 39 35 -8 10 -10 38 -7 91 7 88 -8 126
-55 145 -14 6 -31 22 -37 36 -15 32 -28 30 -47 -7z"/>
<path d="M1377 5473 c-4 -3 -7 -75 -7 -159 l0 -154 -33 19 c-73 41 -170 13
-182 -53 -15 -79 27 -110 148 -111 117 0 117 0 117 226 l0 179 29 0 c47 0 80
-17 87 -44 3 -14 -1 -59 -11 -101 -18 -83 -14 -108 19 -130 54 -36 199 30 170
76 -8 14 -23 11 -52 -10 -32 -22 -88 -36 -96 -23 -3 5 1 35 9 68 19 78 19 134
-1 162 -23 33 -70 54 -114 51 -22 -2 -42 0 -46 4 -9 9 -29 9 -37 0z"/>
<path d="M435 4699 c-42 -37 -60 -93 -45 -135 6 -15 34 -66 62 -112 58 -96 61
-78 -28 -147 -85 -65 -114 -118 -114 -206 0 -80 28 -141 81 -176 36 -23 46
-25 112 -20 75 5 124 23 164 60 l22 20 11 -29 c6 -15 15 -69 19 -118 7 -75 6
-99 -8 -135 -23 -62 -77 -104 -136 -105 -54 -1 -65 11 -65 71 0 40 1 42 33 45
28 3 32 6 32 33 0 25 -4 30 -28 33 -44 5 -79 -44 -84 -118 -4 -53 -1 -63 20
-84 69 -69 212 -23 267 85 28 54 28 212 0 300 -17 55 -17 65 -5 79 49 55 53
160 8 225 -35 49 -69 63 -122 49 -37 -10 -40 -9 -51 14 -9 21 -8 28 9 46 47
52 61 89 61 167 0 68 -3 80 -29 116 -40 55 -68 73 -113 73 -27 0 -47 -8 -73
-31z m113 -35 c36 -25 52 -68 52 -136 0 -55 -4 -68 -28 -97 l-28 -33 -50 83
c-62 103 -67 115 -53 142 30 58 64 71 107 41z m-18 -422 c-17 -20 -30 -43 -30
-52 0 -8 14 2 31 24 l32 38 55 -113 56 -112 -32 -27 c-40 -33 -93 -50 -158
-50 -85 0 -124 49 -124 155 0 70 9 87 74 149 66 62 86 70 108 44 17 -19 17
-21 -12 -56z"/>
<path d="M5790 4635 c-19 -12 -51 -39 -69 -59 -19 -20 -39 -36 -44 -36 -10 0
-74 46 -100 72 -10 10 -28 18 -40 18 -30 0 -192 -110 -192 -130 0 -23 38 -23
62 0 12 11 25 20 28 20 4 0 27 14 52 31 51 36 59 34 127 -26 28 -25 48 -35 72
-35 19 0 34 4 34 9 0 17 98 111 116 111 10 0 47 -20 82 -44 35 -25 81 -47 102
-51 33 -6 44 -2 86 31 110 84 143 84 235 -1 39 -36 75 -65 80 -65 6 0 29 13
53 29 23 16 68 45 100 64 l59 36 51 -55 c44 -45 57 -54 86 -54 30 1 43 10 89
60 l54 59 46 -49 c62 -66 97 -68 167 -10 27 22 52 40 55 40 12 0 34 -32 44
-64 7 -21 18 -32 33 -34 31 -5 29 29 -6 93 -21 39 -33 51 -55 53 -29 4 -80
-23 -112 -58 -28 -31 -59 -25 -97 19 -19 22 -46 43 -62 47 -25 6 -35 0 -91
-56 -72 -71 -72 -71 -134 8 -23 28 -50 52 -60 52 -15 0 -103 -49 -198 -110
-20 -13 -26 -10 -88 48 -58 55 -71 62 -106 62 -49 0 -97 -19 -160 -65 -44 -31
-51 -33 -81 -23 -18 6 -49 23 -68 38 -74 57 -97 61 -150 25z"/>
<path d="M5895 4473 c-16 -3 -46 -20 -65 -39 -32 -31 -39 -33 -68 -25 -18 6
-36 10 -40 10 -19 3 -49 15 -62 26 -33 29 -76 19 -158 -37 -68 -45 -91 -68
-85 -84 8 -23 28 -17 95 30 98 68 104 70 128 46 11 -11 29 -20 41 -20 11 0 29
-4 39 -10 10 -5 35 -13 55 -16 33 -5 42 -1 74 29 50 47 64 50 95 19 39 -42
130 -86 159 -78 14 3 56 26 93 51 36 25 68 45 70 45 2 0 26 -16 52 -35 61 -43
129 -74 164 -75 14 0 58 18 96 40 l70 41 63 -46 c106 -75 97 -74 175 -17 93
68 102 69 164 17 49 -41 69 -43 107 -11 15 12 38 28 49 34 19 10 23 8 34 -18
13 -32 31 -38 48 -17 8 9 5 23 -11 52 -30 54 -58 56 -121 11 l-49 -35 -30 25
c-45 38 -86 56 -110 49 -12 -4 -52 -27 -88 -52 l-66 -44 -57 36 c-31 20 -62
45 -69 55 -17 29 -33 25 -117 -25 -41 -25 -81 -45 -90 -45 -25 1 -92 35 -143
74 -26 20 -57 36 -68 36 -12 0 -53 -21 -91 -46 -97 -65 -126 -62 -208 16 -23
22 -42 39 -43 39 -1 -1 -15 -4 -32 -6z"/>
<path d="M2032 4163 c3 -21 8 -45 12 -54 5 -12 -4 -18 -50 -29 -31 -8 -62 -20
-69 -27 -8 -7 -18 -13 -24 -13 -6 0 -11 -5 -11 -11 0 -11 86 -5 146 11 30 7
32 6 37 -26 6 -39 36 -104 47 -104 15 0 17 47 4 96 -7 27 -12 49 -11 50 1 0
22 5 47 10 37 7 46 13 48 33 4 23 2 24 -40 19 -23 -3 -49 -7 -56 -9 -8 -3 -20
13 -31 41 -10 27 -24 46 -35 48 -16 3 -18 -1 -14 -35z"/>
<path d="M6145 3836 c-76 -38 -112 -75 -181 -186 -53 -84 -57 -98 -56 -202 1
-101 13 -152 55 -230 66 -123 136 -169 254 -165 l71 3 121 -213 121 -213 0
-378 c1 -310 -4 -442 -26 -742 -14 -201 -27 -411 -29 -468 -3 -121 6 -108
-165 -250 -63 -52 -131 -110 -150 -128 -19 -18 -46 -34 -60 -36 -38 -5 -32
-32 9 -36 28 -3 41 3 80 41 25 24 73 66 106 93 33 27 91 75 128 108 57 50 67
55 63 35 -3 -13 -10 -51 -16 -84 -21 -111 -82 -320 -97 -328 -23 -14 4 -37 42
-37 38 0 68 26 41 36 -22 8 -21 22 14 144 16 58 38 156 49 218 10 63 21 116
24 118 5 5 237 -222 311 -304 41 -46 51 -52 86 -52 33 0 40 3 40 19 0 15 -8
21 -33 23 -27 2 -49 22 -133 113 -55 61 -138 142 -183 180 l-83 70 6 170 c10
271 15 429 21 600 3 88 10 275 15 415 5 140 10 275 10 300 l0 44 34 -53 c21
-34 45 -59 66 -67 38 -17 43 -17 35 -5 -3 6 11 15 32 20 20 6 37 9 38 8 32
-62 147 -351 176 -444 22 -69 49 -87 49 -32 0 34 -90 275 -154 414 l-42 90 28
23 c19 16 28 33 29 55 0 18 3 26 6 20 2 -7 9 -13 15 -13 6 0 5 6 -2 15 -7 9
-18 14 -24 12 -7 -3 -21 30 -35 82 -64 236 -131 438 -187 559 l-33 72 19 43
c50 110 -8 343 -111 449 -76 76 -125 96 -259 104 -58 4 -72 0 -135 -30z m197
-29 c121 -4 159 -39 170 -156 3 -31 1 -34 -27 -37 -16 -2 -63 -9 -102 -15 -40
-6 -77 -8 -83 -4 -5 3 -10 26 -10 50 0 43 0 43 50 60 28 9 50 19 50 22 0 3
-25 3 -55 -1 -59 -7 -58 -8 -69 47 -11 47 -28 32 -21 -18 8 -48 8 -47 -62 -69
-23 -7 -26 -2 -37 64 -5 32 -2 37 27 52 20 11 44 15 64 12 18 -2 65 -6 105 -7z
m-302 -241 c0 -39 -3 -45 -30 -56 -38 -16 -39 -28 -1 -22 l29 4 1 -115 c0 -63
3 -122 7 -131 10 -25 -14 -19 -46 12 -33 33 -50 102 -50 201 0 81 15 129 44
141 40 16 46 12 46 -34z m476 -3 c-4 -21 -24 -71 -44 -112 -29 -58 -51 -85
-101 -127 -36 -30 -66 -52 -68 -50 -2 2 0 35 3 73 6 68 8 71 38 81 l31 10 -31
1 c-37 1 -44 14 -44 75 l0 43 78 13 c42 7 86 17 97 21 41 16 48 11 41 -28z
m103 -147 c1 -71 -2 -84 -26 -118 -35 -51 -137 -132 -207 -164 -59 -27 -167
-43 -226 -34 -32 6 -29 7 40 24 148 34 268 121 328 236 22 41 45 93 52 115 6
22 14 47 17 55 10 27 21 -30 22 -114z m-335 -77 c5 -47 4 -75 -4 -84 -13 -16
-96 -46 -104 -37 -3 3 -6 45 -6 93 l0 88 33 4 c79 10 74 14 81 -64z m349 -156
c41 -93 67 -162 67 -181 0 -44 -131 -133 -215 -146 l-40 -6 -61 107 c-60 105
-61 108 -40 117 86 38 134 66 189 112 34 29 65 53 68 53 4 1 18 -25 32 -56z
m112 -303 c29 -87 28 -90 -60 -132 -61 -28 -84 -34 -86 -20 -7 85 -17 104 -47
86 -11 -7 -19 -29 -22 -59 l-5 -49 -30 55 c-16 29 -31 57 -33 61 -2 5 12 8 31
8 44 0 143 50 186 94 19 20 36 34 38 32 2 -1 14 -36 28 -76z m70 -241 c14 -57
25 -114 25 -126 0 -28 -59 -68 -111 -76 -37 -5 -37 -5 -83 71 -42 67 -47 81
-44 126 l3 50 60 24 c33 13 71 32 85 42 32 23 33 21 65 -111z"/>
<path d="M9947 3854 c-13 -13 -7 -52 18 -131 14 -43 37 -119 51 -170 13 -50
27 -99 31 -108 4 -12 -7 -8 -37 14 -52 37 -99 47 -151 32 -134 -40 -37 -233
116 -231 32 1 114 25 126 37 25 25 8 127 -57 338 -20 66 -42 142 -48 170 -11
47 -31 67 -49 49z"/>
<path d="M2075 3273 c-53 -4 -54 -4 -155 -51 -87 -41 -196 -116 -342 -236
-145 -117 -217 -315 -218 -592 0 -168 18 -255 80 -373 48 -93 95 -150 143
-176 26 -13 38 -29 47 -59 37 -123 124 -245 209 -293 25 -14 82 -47 126 -72
182 -107 253 -124 473 -118 143 4 166 7 256 36 140 46 179 65 226 107 67 61
121 150 189 314 51 124 71 228 71 375 0 256 -66 443 -204 578 -48 48 -77 87
-91 121 -77 190 -243 336 -445 392 -111 31 -126 34 -202 34 -42 0 -80 5 -83
10 -3 6 -12 9 -18 8 -7 -1 -34 -3 -62 -5z m975 -734 c73 -140 107 -369 80
-536 -24 -155 -106 -359 -185 -466 -52 -70 -101 -100 -239 -146 l-124 -41
-175 0 c-164 0 -181 2 -249 26 -92 33 -311 156 -361 203 -35 33 -134 207 -124
217 3 3 27 -9 55 -25 81 -50 193 -98 258 -111 39 -8 121 -11 220 -8 156 4 162
5 283 46 76 26 142 55 171 77 90 66 195 254 247 441 23 85 27 118 28 239 0 77
-3 167 -7 200 l-8 60 45 -50 c25 -27 63 -84 85 -126z m-838 51 c53 -15 98 -70
98 -121 0 -22 -7 -53 -15 -68 -18 -36 -98 -71 -159 -71 -56 0 -77 26 -84 105
-5 65 24 126 72 149 37 19 41 19 88 6z"/>
<path d="M8346 3035 c-3 -8 -1 -26 4 -40 9 -25 9 -25 -43 -25 -55 0 -79 -13
-70 -36 4 -10 23 -14 63 -14 63 0 61 2 75 -68 8 -37 32 -53 46 -31 8 12 5 56
-7 99 -3 11 7 19 28 25 23 7 33 16 33 30 0 21 -23 25 -57 10 -14 -5 -18 -2
-18 13 0 33 -11 52 -30 52 -10 0 -20 -7 -24 -15z"/>
<path d="M4555 2836 c-8 -19 -15 -41 -15 -48 0 -7 -9 -31 -21 -52 -13 -25 -19
-49 -15 -67 3 -15 -6 -107 -19 -206 -30 -214 -30 -239 -9 -247 9 -4 19 -4 22
-2 2 3 15 81 28 173 35 252 26 228 81 230 95 5 183 76 183 150 0 40 -23 88
-45 97 -43 16 -113 -6 -134 -41 -8 -15 -10 -13 -8 12 3 45 -29 46 -48 1z"/>
<path d="M11036 2713 c-5 -11 -1 -22 10 -30 23 -17 13 -25 -39 -32 -29 -4 -43
-11 -45 -23 -4 -22 35 -33 71 -19 15 6 27 7 27 3 0 -23 30 -185 35 -190 3 -4
10 0 16 8 9 15 7 74 -7 157 -5 34 -3 44 10 49 23 9 22 57 -1 52 -10 -2 -28 7
-39 19 -26 28 -30 28 -38 6z"/>
<path d="M9606 2364 c-19 -19 -47 -54 -62 -77 -16 -23 -32 -44 -35 -47 -4 -3
-9 -15 -13 -27 -4 -13 -12 -23 -17 -23 -6 0 -44 35 -86 77 l-76 76 -41 -44
c-23 -24 -60 -66 -83 -93 l-41 -49 -106 87 c-58 47 -109 94 -114 103 -13 22
-40 10 -54 -24 -6 -16 -11 -31 -10 -34 0 -3 -25 -60 -58 -127 l-58 -121 -79
26 c-43 14 -108 39 -146 55 -55 24 -75 28 -110 23 -63 -11 -354 -125 -414
-163 -30 -19 -29 -30 12 -152 19 -57 35 -105 35 -106 0 -1 -10 -4 -22 -7 -15
-4 -19 -10 -11 -19 5 -7 40 -107 78 -223 37 -115 71 -219 76 -230 10 -27 50
-153 53 -168 1 -7 17 -56 34 -109 18 -53 32 -104 32 -112 0 -9 4 -16 8 -16 5
0 14 -24 21 -52 7 -29 20 -68 28 -87 9 -19 18 -57 22 -85 5 -40 11 -53 28 -61
17 -7 26 -27 39 -80 10 -38 18 -80 18 -92 1 -32 11 -36 48 -20 46 21 142 52
207 67 30 7 102 30 160 51 59 21 115 39 127 39 26 0 58 34 51 54 -3 8 1 17 9
20 7 3 22 19 33 37 l19 31 18 -27 c50 -70 108 -135 120 -135 8 0 22 17 32 38
9 20 19 39 22 42 3 3 10 16 16 29 l10 25 20 -28 c42 -61 62 -78 83 -71 11 3
23 14 26 25 3 10 19 34 34 54 27 34 29 35 45 17 9 -9 16 -21 16 -25 0 -18 67
-86 85 -86 12 0 40 23 72 60 l51 60 7 -40 c5 -28 13 -41 28 -46 14 -4 23 -2
26 7 2 7 19 28 37 47 30 31 33 32 43 15 25 -43 29 -47 43 -36 18 14 226 -9
382 -42 65 -14 133 -25 150 -25 46 0 50 10 81 175 9 44 24 123 35 175 10 52
22 118 26 145 3 28 20 118 36 200 16 83 32 160 34 171 2 12 17 80 33 150 29
129 57 268 67 334 14 98 27 156 35 167 34 40 -72 84 -267 108 -19 3 -69 12
-112 21 -177 37 -236 43 -248 28 -7 -8 -22 -17 -34 -19 -12 -2 -28 -12 -35
-22 -7 -10 -15 -16 -17 -13 -27 32 -98 150 -98 162 0 40 -33 26 -102 -42 l-72
-70 -34 37 c-19 21 -63 68 -98 105 l-64 67 -34 -35z m79 -39 c20 -30 61 -82
92 -115 l55 -60 26 24 c15 13 47 42 72 64 l46 41 55 -82 c30 -45 62 -83 71
-85 10 -2 31 7 47 19 17 12 33 21 35 18 6 -6 -57 -370 -109 -624 -24 -121 -61
-339 -80 -485 -45 -333 -56 -400 -66 -400 -4 0 -11 9 -14 20 -9 29 -24 25 -71
-21 -46 -45 -44 -45 -59 28 -4 18 -10 33 -15 33 -4 0 -26 -24 -48 -53 -23 -29
-52 -63 -65 -75 l-24 -23 -24 30 c-13 16 -37 48 -52 70 -33 48 -47 51 -70 14
-9 -16 -29 -43 -44 -61 l-28 -32 -43 55 c-24 30 -47 53 -52 50 -5 -3 -23 -33
-41 -65 -17 -33 -35 -60 -40 -60 -5 0 -33 34 -64 75 -30 41 -58 75 -63 75 -4
0 -25 -21 -47 -46 l-41 -47 -22 104 c-41 195 -104 412 -200 691 -23 64 -57
195 -77 290 -20 95 -50 213 -65 263 -16 49 -28 91 -26 92 2 2 28 -5 57 -17 30
-11 60 -20 66 -20 13 0 92 151 133 253 l22 57 42 -37 c76 -70 196 -165 205
-161 4 2 36 37 71 78 35 41 68 81 74 87 9 10 29 -4 88 -62 42 -41 83 -75 90
-75 8 0 22 15 33 33 35 59 125 197 129 197 2 0 20 -25 41 -55z m728 -184 c83
-16 186 -35 227 -41 95 -15 140 -34 140 -57 0 -41 -44 -281 -90 -492 -55 -255
-91 -436 -151 -761 -22 -124 -45 -229 -50 -234 -6 -6 -55 0 -131 17 -68 15
-181 34 -252 42 -70 8 -131 16 -133 19 -3 3 0 38 6 78 6 40 23 161 37 268 29
230 51 362 99 600 32 156 105 563 105 582 0 13 34 9 193 -21z m-1888 -53 l72
-33 31 -95 c17 -52 48 -174 68 -270 19 -96 56 -233 81 -305 94 -273 139 -426
193 -660 15 -66 30 -127 34 -135 7 -18 -30 -37 -175 -86 -117 -39 -307 -96
-328 -98 -9 -1 -21 27 -36 81 l-21 82 59 27 c126 56 221 86 274 85 29 0 54 3
57 7 12 20 -99 493 -257 1097 -11 45 -17 52 -61 74 -44 22 -54 24 -100 14 -28
-6 -113 -39 -188 -72 -76 -34 -141 -61 -145 -61 -12 0 -76 211 -66 220 23 20
393 158 427 160 4 0 41 -15 81 -32z m-21 -251 c32 -14 37 -27 81 -196 14 -52
23 -96 21 -98 -2 -2 -21 8 -42 22 -45 30 -73 29 -178 -7 -33 -11 -70 -20 -81
-20 -11 1 -53 -7 -93 -18 -40 -11 -76 -20 -81 -20 -16 0 -31 58 -18 69 7 5 81
43 165 85 113 55 158 73 170 66 10 -5 39 -18 65 -29 44 -19 48 -19 45 -3 -2
10 -26 26 -59 39 -70 28 -84 24 -266 -63 -73 -35 -136 -63 -140 -63 -5 1 -15
21 -24 45 l-17 44 52 24 c58 27 273 121 296 129 26 9 74 7 104 -6z m63 -309
c41 -25 55 -40 63 -67 5 -19 8 -36 6 -38 -1 -2 -16 4 -32 12 -27 13 -37 12
-119 -14 -50 -15 -105 -35 -122 -45 -19 -9 -43 -14 -56 -11 -13 4 -47 -3 -78
-14 -30 -12 -55 -21 -55 -21 -1 0 -4 12 -7 28 -3 15 -8 34 -12 43 -5 12 0 15
22 12 31 -4 143 59 143 81 0 12 138 64 175 65 10 1 43 -13 72 -31z m47 -132
c35 -21 42 -32 58 -87 9 -35 17 -67 18 -71 0 -5 -21 8 -46 27 -25 19 -53 35
-61 35 -9 0 -56 -14 -105 -31 -49 -16 -97 -28 -106 -25 -10 3 -49 -3 -87 -13
-38 -11 -70 -19 -71 -18 -1 1 -5 12 -8 25 -6 18 -4 22 14 22 30 0 120 48 120
64 0 15 47 38 150 70 41 13 77 24 80 25 3 0 23 -10 44 -23z m22 -159 c21 -19
44 -32 50 -30 9 3 37 -87 29 -95 -2 -2 -14 2 -26 9 -31 16 -147 -2 -294 -47
-60 -19 -113 -34 -117 -34 -5 0 -28 54 -28 66 0 2 6 4 13 4 31 0 117 50 130
76 11 21 33 34 88 55 98 35 109 35 155 -4z m64 -153 c20 -12 32 -31 43 -71 8
-30 12 -52 8 -51 -61 32 -58 32 -159 6 -57 -16 -110 -24 -130 -21 -29 5 -91
-6 -136 -23 -15 -6 -22 4 -40 62 -6 20 2 24 93 53 103 33 215 58 264 60 16 1
41 -6 57 -15z m35 -149 c18 -13 35 -33 38 -45 4 -17 0 -20 -26 -20 -18 -1 -71
-11 -118 -23 -58 -16 -91 -20 -101 -13 -10 6 -41 2 -94 -12 -81 -21 -90 -20
-96 12 -3 20 40 38 232 96 117 36 125 36 165 5z m24 -110 c19 -9 30 -25 35
-46 12 -62 9 -69 -31 -69 -35 0 -245 -67 -301 -96 -41 -21 -48 -18 -61 27 -7
23 -15 47 -18 55 -3 8 1 14 11 14 31 0 144 51 164 75 12 14 37 27 59 30 31 5
98 20 111 24 2 1 16 -6 31 -14z"/>
<path d="M9826 2082 c-3 -5 -17 -247 -31 -538 -14 -291 -28 -578 -31 -639 -4
-71 -3 -106 3 -100 6 6 22 272 37 600 15 325 31 611 35 638 7 42 1 61 -13 39z"/>
<path d="M10076 2034 c-4 -10 -38 -213 -77 -453 -38 -240 -83 -521 -100 -624
-17 -104 -28 -191 -25 -194 9 -9 13 9 56 282 23 143 66 411 96 595 29 184 55
347 56 363 1 15 6 27 10 27 4 0 8 5 8 10 0 16 -17 11 -24 -6z"/>
<path d="M9150 2007 c0 -2 22 -190 50 -418 27 -228 58 -493 70 -589 22 -191
28 -225 36 -217 9 8 -139 1227 -148 1227 -4 0 -8 -1 -8 -3z"/>
<path d="M9484 1863 c3 -82 9 -352 12 -600 4 -288 10 -453 16 -453 7 0 8 75 4
213 -3 116 -9 386 -12 600 -4 246 -10 387 -16 387 -7 0 -8 -52 -4 -147z"/>
<path d="M8850 1932 c0 -17 250 -1136 255 -1141 3 -2 7 -2 9 0 6 6 -247 1136
-256 1145 -5 4 -8 2 -8 -4z"/>
<path d="M10272 2020 c-1 -28 -3 -55 -5 -62 -1 -8 20 -15 63 -19 36 -4 110
-16 165 -27 55 -12 117 -24 137 -27 21 -3 37 -11 35 -17 -1 -6 3 -12 10 -15
13 -5 30 47 40 118 7 57 11 55 -147 69 -64 5 -140 14 -169 20 -30 5 -70 10
-90 10 l-37 0 -2 -50z m307 -10 c63 -6 116 -11 117 -13 1 -1 -3 -22 -9 -45
l-11 -43 -51 6 c-27 4 -88 16 -135 26 -46 11 -108 21 -137 22 l-53 2 0 36 c0
20 2 38 5 41 3 3 40 -1 83 -9 42 -7 128 -18 191 -23z"/>
<path d="M5693 1502 c-6 -4 -13 -25 -15 -47 -3 -37 -5 -40 -38 -45 -32 -5 -36
-10 -31 -40 0 -6 17 -8 39 -5 l38 4 3 -41 c3 -50 7 -58 30 -58 16 0 18 8 17
57 -1 56 0 58 29 63 17 3 30 11 29 18 -3 32 -5 34 -34 29 -29 -6 -30 -6 -30
33 0 40 -11 49 -37 32z"/>
<path d="M870 1033 c-310 -52 -447 -83 -530 -120 -68 -30 -106 -73 -63 -73 14
0 15 -13 10 -126 -3 -69 -8 -129 -11 -132 -3 -2 -12 1 -21 8 -38 31 -237 -6
-253 -48 -16 -42 127 -112 229 -112 84 0 122 25 101 68 -5 9 -4 71 2 137 l11
120 55 19 c30 10 88 24 128 31 l72 11 0 -108 c0 -108 0 -109 -21 -97 -12 6
-44 11 -72 11 -40 -1 -55 -6 -76 -26 -21 -22 -24 -30 -15 -53 21 -61 168 -107
219 -69 18 13 19 27 16 184 l-3 170 119 8 c65 5 135 8 156 7 36 -2 38 0 35 25
l-3 27 -105 -4 c-58 -1 -126 -6 -152 -11 l-48 -7 0 33 c0 22 5 34 18 38 21 6
177 32 251 41 l53 7 -3 -270 c-2 -149 -7 -273 -10 -277 -4 -3 -37 10 -74 29
-46 25 -80 36 -110 36 -56 0 -69 -16 -63 -82 5 -43 11 -57 41 -84 56 -51 142
-67 217 -40 l35 13 7 84 c9 114 8 556 -1 599 -7 35 -7 35 -61 36 -30 1 -66 0
-80 -3z"/>
<path d="M4315 1000 c-77 -15 -156 -34 -175 -43 -54 -22 -100 -67 -100 -98 0
-20 63 -263 84 -324 2 -6 -21 2 -52 17 -65 33 -130 37 -155 10 -28 -30 -22
-104 10 -143 61 -72 181 -80 211 -14 8 17 17 22 31 18 35 -9 34 20 -7 164 -22
76 -37 141 -33 145 3 4 71 23 151 42 80 20 175 44 213 55 37 10 70 15 73 10 6
-10 44 -118 49 -139 2 -8 15 -61 29 -117 14 -56 26 -106 26 -111 0 -6 -19 -4
-47 4 -57 17 -144 18 -166 2 -44 -34 -19 -110 46 -141 44 -21 123 -22 162 -1
17 9 44 17 60 18 20 1 29 6 28 16 -4 35 -94 361 -116 423 -14 37 -21 70 -16
73 16 9 10 32 -10 39 -10 3 -30 32 -45 65 -27 60 -27 60 -69 59 -23 0 -105
-13 -182 -29z m209 -57 c18 -52 15 -59 -29 -66 -16 -3 -73 -16 -125 -30 -189
-51 -262 -65 -267 -50 -15 38 -7 76 18 95 22 17 186 58 360 91 13 2 25 5 26 6
0 0 8 -20 17 -46z"/>
<path d="M10875 463 c-4 -16 -10 -35 -16 -43 -25 -40 -30 -65 -18 -90 6 -14
16 -34 21 -45 5 -11 7 -67 6 -124 l-3 -103 -70 -29 -70 -28 98 0 c83 1 97 3
98 17 0 10 0 72 -1 139 -1 119 -1 121 22 128 42 13 113 63 131 93 22 39 22 57
-4 83 -17 17 -31 20 -85 18 -35 -1 -67 1 -71 4 -15 15 -33 5 -38 -20z"/>
<path d="M10645 381 c-38 -10 -111 -47 -121 -62 -19 -31 -22 -84 -7 -116 12
-25 14 -55 11 -118 l-4 -85 27 0 c26 0 27 2 33 80 7 78 8 81 39 95 44 19 61
34 86 75 28 47 28 104 -1 124 -12 9 -25 16 -28 15 -3 -1 -18 -4 -35 -8z"/>
</g>
</svg>
