<?xml version="1.0" standalone="no"?>
<!DOCTYPE svg PUBLIC "-//W3C//DTD SVG 20010904//EN"
 "http://www.w3.org/TR/2001/REC-SVG-20010904/DTD/svg10.dtd">
<svg version="1.0" xmlns="http://www.w3.org/2000/svg"
 width="188.000000pt" height="157.000000pt" viewBox="0 0 188.000000 157.000000"
 preserveAspectRatio="xMidYMid meet">
<metadata>
Created by potrace 1.16, written by Peter Selinger 2001-2019
</metadata>
<g transform="translate(0.000000,157.000000) scale(0.100000,-0.100000)"
fill="#000000" stroke="none">
<path d="M552 1471 c-132 -36 -199 -74 -291 -164 -96 -94 -143 -227 -121 -347
9 -48 8 -68 -5 -108 -14 -41 -16 -100 -13 -394 3 -334 4 -348 24 -375 56 -75
138 -94 207 -48 65 45 67 55 67 333 l0 250 59 -24 c178 -72 424 -50 599 54
178 106 274 299 228 463 -42 152 -181 284 -363 345 -109 36 -285 43 -391 15z
m305 -103 c63 -27 123 -93 123 -135 0 -29 -4 -29 -43 1 -67 50 -119 70 -187
70 -104 0 -180 -50 -295 -194 -46 -58 -107 -110 -129 -110 -26 0 48 151 107
216 58 64 141 121 209 145 61 21 174 25 215 7z m-593 -540 c4 -13 9 -126 13
-253 5 -220 5 -231 -14 -254 l-20 -25 -14 70 c-19 95 -19 407 0 452 16 38 26
41 35 10z"/>
<path d="M1570 1219 c-111 -45 -136 -192 -45 -272 56 -50 132 -60 202 -26 74
36 116 114 99 183 -8 32 -61 93 -97 112 -32 16 -121 18 -159 3z m106 -54 c21
-31 10 -48 -26 -40 -35 8 -70 -22 -70 -59 0 -12 -5 -37 -11 -55 l-11 -32 -24
22 c-28 26 -30 57 -8 102 43 85 115 115 150 62z"/>
</g>
</svg>
