<?xml version="1.0" standalone="no"?>
<!DOCTYPE svg PUBLIC "-//W3C//DTD SVG 20010904//EN"
 "http://www.w3.org/TR/2001/REC-SVG-20010904/DTD/svg10.dtd">
<svg version="1.0" xmlns="http://www.w3.org/2000/svg"
 width="368.000000pt" height="949.000000pt" viewBox="0 0 368.000000 949.000000"
 preserveAspectRatio="xMidYMid meet">
<metadata>
Created by potrace 1.16, written by Peter Selinger 2001-2019
</metadata>
<g transform="translate(0.000000,949.000000) scale(0.100000,-0.100000)"
fill="#000000" stroke="none">
<path d="M1330 9131 c0 -7 26 -56 57 -109 32 -54 63 -106 69 -117 6 -11 28
-47 48 -79 35 -59 45 -82 27 -72 -11 7 -61 -42 -73 -74 -45 -111 36 -162 101
-63 45 70 38 95 -93 313 -121 201 -136 223 -136 201z"/>
<path d="M1020 8605 c-26 -31 -17 -107 14 -127 5 -4 28 -5 51 -2 22 2 84 6
138 9 88 5 97 4 98 -12 0 -10 3 -45 6 -78 3 -33 6 -78 7 -99 1 -45 9 -42 -131
-51 l-91 -7 5 41 c6 43 -15 91 -41 91 -41 0 -64 -101 -30 -135 17 -16 59 -16
237 0 42 4 57 2 58 -7 1 -7 2 -24 4 -38 1 -14 6 -63 10 -110 l7 -85 -28 -1
c-16 0 -66 -4 -112 -7 l-83 -7 4 38 c7 69 -39 118 -73 77 -21 -26 -21 -90 1
-114 15 -16 28 -19 71 -16 29 2 100 7 158 11 58 3 112 8 120 9 8 2 18 4 23 4
4 1 5 13 3 29 -3 15 -8 56 -11 92 -28 342 -33 388 -40 400 -3 5 -14 7 -25 5
-11 -2 -59 -7 -108 -10 -48 -3 -109 -8 -135 -11 -43 -4 -47 -2 -39 13 12 23 7
80 -8 99 -16 18 -44 18 -60 -1z"/>
<path d="M2291 8606 c-12 -15 -18 -69 -10 -96 3 -11 -4 -15 -31 -14 -38 1
-198 13 -243 18 -15 2 -30 0 -32 -4 -5 -8 -10 -53 -20 -180 -4 -41 -8 -91 -10
-110 -2 -19 -6 -71 -10 -114 -4 -44 -8 -88 -10 -98 -2 -10 2 -18 8 -19 7 0 20
-2 30 -4 10 -2 64 -6 120 -10 56 -3 123 -8 148 -10 56 -6 78 8 86 57 7 45 -17
88 -48 88 -27 0 -49 -52 -39 -96 l8 -33 -77 5 c-42 3 -92 6 -111 8 l-35 3 1
49 c1 27 4 74 7 104 3 30 5 62 6 71 1 18 0 18 187 5 77 -6 94 -5 108 9 36 36
14 135 -30 135 -26 0 -47 -48 -40 -91 l6 -40 -95 6 c-53 4 -104 8 -113 10 -19
2 -19 11 -8 145 8 86 12 104 24 96 6 -4 120 -14 226 -21 46 -2 71 19 74 66 5
59 -46 102 -77 65z"/>
<path d="M1465 8460 c-16 -49 27 -130 68 -130 10 0 55 16 98 35 44 19 84 35
89 35 6 0 10 -16 10 -35 0 -30 -4 -35 -32 -43 -18 -5 -43 -5 -55 -1 -13 5 -25
4 -28 -2 -6 -8 11 -32 94 -133 15 -18 15 -18 -4 -9 -26 13 -64 7 -88 -15 -46
-41 -53 -112 -17 -180 18 -33 19 -46 5 -217 -3 -38 -7 -104 -10 -145 -3 -41
-8 -122 -12 -180 -5 -58 -8 -279 -8 -493 1 -259 -3 -386 -9 -384 -7 2 -11 59
-12 143 -3 205 -14 671 -18 734 -2 30 -7 136 -11 235 -4 99 -9 200 -10 225 -2
25 -4 62 -4 83 -1 20 -6 37 -12 37 -8 0 -9 -37 -6 -122 4 -87 2 -128 -6 -139
-8 -10 -11 -45 -10 -90 1 -41 5 -303 9 -584 3 -280 7 -586 8 -678 1 -111 -2
-171 -9 -177 -11 -9 -14 159 -16 918 0 259 -3 342 -12 339 -14 -4 -14 -357 -4
-2255 6 -1146 5 -1163 -14 -1181 -18 -16 -24 -17 -70 -5 -71 19 -108 48 -105
82 2 15 -1 39 -6 54 -24 67 -77 26 -69 -54 1 -9 -8 -23 -20 -32 -18 -12 -23
-25 -22 -55 2 -73 66 -145 138 -157 35 -5 40 -2 100 62 35 38 66 66 69 63 9
-9 11 -407 2 -416 -5 -5 -6 -2 -1 6 5 9 4 12 -3 7 -7 -4 -7 -17 0 -44 6 -20
11 -80 12 -132 2 -87 0 -97 -20 -112 -39 -31 -38 -76 2 -82 17 -3 18 -19 21
-315 1 -260 -1 -311 -12 -301 -7 6 -25 9 -39 7 -28 -3 -76 -40 -76 -58 0 -5
-4 -8 -9 -5 -20 13 -41 -7 -41 -39 0 -32 45 -95 68 -95 5 0 33 16 61 35 l51
35 0 -47 c0 -41 -5 -53 -31 -77 -26 -25 -30 -34 -27 -75 l3 -46 -50 0 c-27 1
-52 -2 -55 -6 -3 -4 -5 -45 -4 -91 0 -74 2 -83 20 -87 10 -1 26 -9 34 -16 8
-8 28 -17 43 -21 16 -3 31 -12 34 -20 6 -16 33 -27 28 -11 -3 7 -7 24 -9 40
-5 27 -4 27 48 27 38 0 61 -6 79 -20 14 -11 27 -20 30 -20 3 0 3 9 0 20 -5 19
0 20 138 21 79 1 151 2 159 3 12 1 15 18 15 91 l0 90 -83 0 c-98 0 -102 3
-107 98 l-3 62 42 2 c22 1 43 -3 46 -8 8 -11 389 -397 400 -404 5 -3 11 -1 14
4 3 5 -75 91 -174 191 -99 100 -180 184 -180 186 0 3 9 15 21 27 48 51 71 144
49 198 -14 33 -9 31 -78 34 -48 2 -56 -1 -97 -37 l-45 -40 -1 79 c-1 84 -5
262 -10 493 -2 109 0 145 9 144 32 -3 33 -5 27 -36 -4 -18 -12 -39 -18 -46 -7
-9 -6 -11 6 -7 8 4 21 20 27 36 7 16 20 34 29 38 21 12 14 18 -33 25 -22 4
-42 9 -45 12 -3 3 -7 42 -7 86 l-1 81 46 -49 c26 -27 68 -72 94 -100 l47 -51
-28 -31 c-62 -67 -63 -192 0 -192 43 0 88 77 88 150 0 41 -5 49 -110 160 -154
163 -155 166 -123 221 10 16 20 29 23 29 3 0 6 -19 7 -42 1 -72 3 -79 13 -73
5 3 10 37 10 76 0 68 0 69 28 70 l27 1 -27 11 c-16 6 -28 16 -29 21 0 6 -2 47
-3 91 -2 74 0 82 24 105 37 36 150 134 166 143 8 4 14 15 14 23 0 13 -3 13
-18 2 -16 -11 -111 -92 -146 -123 -42 -38 -42 -38 -44 53 -1 48 2 101 6 117 5
17 5 45 -1 65 -5 19 -10 55 -11 78 -2 41 -1 43 14 25 18 -21 36 -27 71 -24 19
1 59 38 59 54 -2 52 -87 70 -124 26 l-21 -24 -3 145 c-10 508 -10 511 2 496
29 -39 96 -39 116 -1 28 52 -42 100 -101 71 l-29 -14 0 41 c0 23 -3 152 -6
287 -3 135 -6 314 -8 398 l-3 152 41 34 c63 52 86 73 86 78 0 6 -28 39 -87
101 l-46 49 -3 141 c-9 402 -9 512 1 511 6 -1 35 -5 65 -8 30 -4 72 -9 93 -13
30 -4 37 -2 37 11 0 9 -8 16 -17 17 -10 0 -25 2 -33 3 -8 2 -44 6 -80 10 -35
4 -66 9 -68 11 -8 7 8 36 16 31 4 -2 35 -7 67 -11 33 -4 72 -9 88 -11 19 -3
27 0 27 11 0 8 -6 15 -12 16 -7 0 -20 2 -28 3 -17 4 -139 18 -157 19 -9 0 -13
23 -14 76 -1 80 -5 191 -7 204 -1 4 -17 7 -36 7 l-34 0 4 93 c6 108 12 256 13
310 l1 38 26 -20 c31 -24 68 -27 105 -7 33 17 41 12 66 -39 19 -37 19 -43 6
-80 -23 -65 -13 -169 25 -246 30 -59 32 -61 25 -24 -4 22 -7 65 -6 95 7 239 7
328 3 323 -3 -2 -10 -21 -16 -41 l-10 -37 -22 43 c-21 39 -21 44 -7 72 9 17
16 47 17 68 1 23 8 42 19 50 15 11 17 27 16 122 l-2 111 -102 131 c-77 99
-100 135 -92 145 6 7 14 12 17 11 22 -2 31 5 41 32 5 17 17 30 26 30 12 0 14
-4 5 -19 -14 -28 -12 -36 5 -21 8 7 15 19 15 26 0 8 8 14 18 14 15 1 15 2 1
13 -20 15 -17 66 7 102 l18 28 -24 -8 c-14 -4 -77 -29 -139 -56 -63 -27 -117
-49 -120 -49 -4 0 -7 11 -7 25 -1 13 -12 40 -24 60 -25 40 -64 48 -75 15z
m225 -320 c0 -5 -4 -10 -10 -10 -5 0 -16 -12 -23 -27 -27 -50 11 -104 61 -88
26 7 40 43 35 85 l-5 35 38 -50 c21 -27 40 -52 43 -55 4 -3 18 -21 32 -40 l26
-35 -26 -20 c-15 -12 -43 -20 -68 -21 -22 0 -57 -10 -77 -22 l-36 -21 -24 47
c-16 32 -22 57 -19 80 3 20 1 32 -6 32 -6 0 -11 -10 -11 -22 -1 -18 -2 -20 -9
-8 -9 16 -14 49 -12 87 1 12 11 31 23 43 23 21 68 28 68 10z m-59 -536 c0 -16
-3 -85 -7 -154 -8 -117 -8 -667 -1 -844 3 -59 1 -75 -7 -64 -11 15 -17 208
-19 563 -1 130 9 388 18 480 2 17 3 36 4 44 2 25 10 6 12 -25z m34 -482 c18
-13 21 -375 4 -441 -7 -28 -15 -51 -18 -51 -3 0 -8 82 -9 183 -2 100 -5 209
-6 242 -3 75 2 87 29 67z m24 -624 c2 -95 4 -211 5 -257 l2 -83 -21 24 c-19
22 -21 38 -24 201 -2 139 1 189 14 232 8 30 17 55 18 55 1 0 4 -78 6 -172z
m27 -1179 c3 -140 6 -282 8 -315 l2 -62 -23 17 c-20 14 -23 25 -23 91 -1 41
-4 171 -6 289 -4 196 -3 214 13 226 10 8 19 12 21 11 1 -2 5 -117 8 -257z
m-68 99 c10 -456 10 -548 -2 -541 -7 4 -6 1 2 -9 9 -11 14 -89 17 -282 5 -228
3 -270 -10 -289 -14 -20 -15 -13 -16 83 0 58 -2 221 -5 363 -3 187 -1 257 7
257 8 0 8 4 0 13 -16 20 -24 527 -8 527 9 0 13 -35 15 -122z m-97 -110 c0
-113 5 -419 13 -870 3 -189 1 -241 -10 -255 -11 -15 -14 7 -14 152 -1 94 -3
376 -6 628 -3 308 -1 457 6 457 6 0 10 -43 11 -112z m-43 -256 c2 -174 4 -450
6 -612 3 -271 -1 -330 -22 -330 -4 0 -7 278 -7 618 0 524 3 642 18 642 1 0 3
-143 5 -318z m93 -14 c0 -7 2 -121 5 -253 2 -132 6 -306 7 -386 3 -111 1 -151
-10 -165 -11 -15 -13 -9 -14 52 0 38 -2 164 -4 279 -6 415 -7 470 -6 478 2 12
21 8 22 -5z m128 -286 c8 -330 7 -363 -7 -383 -30 -43 -28 -55 -36 360 -3 119
-1 136 16 153 10 10 19 18 21 18 1 0 4 -66 6 -148z m-211 -749 c1 -49 -4 -103
-11 -120 -8 -26 -8 -41 2 -69 10 -27 14 -157 18 -523 3 -267 5 -539 6 -605 2
-109 0 -120 -18 -132 -20 -13 -20 -11 -22 344 -2 283 1 360 11 372 11 12 11
26 1 74 -14 68 -16 122 -18 429 -2 189 0 227 12 227 12 0 11 3 -1 18 -9 9 -13
24 -10 32 5 15 22 40 27 40 2 0 3 -39 3 -87z m59 -416 c1 -78 -3 -157 -9 -176
-7 -24 -7 -44 1 -71 15 -52 25 -736 10 -745 -24 -15 -22 -53 -29 845 -1 162
-2 299 -1 305 0 5 7 3 13 -3 9 -9 13 -58 15 -155z m54 -301 c1 -22 6 -282 9
-503 1 -72 -1 -136 -5 -142 -17 -28 -22 -1 -24 117 -1 70 -4 222 -5 338 -3
175 -1 211 10 211 8 0 14 -10 15 -21z m55 2 c4 -6 9 -86 10 -177 2 -91 6 -315
9 -498 5 -228 4 -337 -4 -350 -10 -17 -10 -17 -11 2 -1 11 -3 29 -5 40 -9 44
-17 224 -20 470 -5 373 -6 498 -6 513 1 15 18 16 27 0z"/>
<path d="M808 4635 c-51 -47 -57 -62 -54 -130 5 -134 80 -191 204 -154 15 5
62 -103 62 -143 0 -42 -50 -84 -73 -61 -4 3 2 12 13 20 26 18 26 58 -1 77 -27
19 -45 11 -57 -23 -12 -34 7 -84 37 -101 16 -8 28 -7 50 4 54 28 59 75 20 173
-19 49 -27 79 -20 81 20 7 43 63 43 107 0 78 -57 144 -107 124 -35 -14 -44
-10 -59 26 -8 19 -16 35 -18 35 -2 0 -20 -16 -40 -35z m48 -76 c-25 -42 -21
-105 9 -134 13 -14 32 -25 41 -25 13 0 10 5 -10 21 -29 23 -35 63 -13 93 12
16 16 10 43 -55 16 -41 30 -77 32 -81 2 -4 -12 -11 -30 -16 -66 -17 -125 30
-132 105 -3 34 16 123 32 148 4 6 7 13 8 18 4 21 7 19 21 -13 13 -31 13 -37
-1 -61z"/>
<path d="M623 4191 c-86 -24 -137 -47 -82 -37 13 2 24 5 24 6 0 2 35 10 71 16
31 5 31 5 61 -78 17 -46 34 -90 37 -99 6 -12 -7 -19 -61 -32 -37 -9 -78 -20
-89 -23 -16 -4 -22 -1 -21 13 0 10 -1 25 -2 34 -1 21 -40 61 -54 56 -19 -6
-20 -76 -2 -104 17 -25 36 -27 103 -9 48 13 58 16 97 25 22 6 40 9 41 8 6 -9
74 -200 72 -203 -2 -2 -17 -5 -33 -8 -17 -3 -52 -12 -80 -21 -27 -8 -51 -15
-52 -15 -2 0 -3 10 -3 23 0 34 -37 89 -58 85 -29 -5 -28 -70 1 -104 24 -27 26
-28 67 -15 24 7 52 15 62 17 10 2 28 6 41 10 12 3 33 7 45 10 13 3 36 10 52
17 l28 12 -82 217 c-45 120 -84 219 -86 221 -3 2 -46 -8 -97 -22z"/>
<path d="M2100 4108 c0 -4 26 -47 58 -95 140 -212 143 -217 129 -228 -8 -5
-30 -23 -51 -39 -39 -32 -62 -40 -72 -25 -3 5 -10 6 -16 3 -13 -8 28 -33 54
-34 10 0 33 8 53 17 29 14 43 15 75 6 22 -5 41 -8 44 -6 6 7 -212 344 -245
378 -16 16 -29 26 -29 23z"/>
<path d="M2670 3908 c-47 -50 -103 -111 -126 -134 -22 -23 -78 -84 -125 -134
-46 -50 -86 -93 -88 -95 -1 -2 0 -9 4 -15 5 -8 11 -8 20 0 9 8 14 1 20 -32 10
-62 11 -119 2 -150 -10 -38 1 -35 53 13 25 23 70 64 100 92 30 27 79 72 108
99 51 48 72 54 72 20 0 -9 13 -32 29 -50 37 -41 95 -55 115 -26 42 56 -54 188
-119 164 -18 -7 -65 -48 -189 -163 -40 -37 -41 -37 -47 -15 -3 13 -16 41 -28
63 -36 68 -30 81 79 195 19 20 65 69 102 108 37 40 69 72 71 72 3 0 7 -12 11
-27 12 -56 92 -117 144 -111 34 4 55 31 46 60 -6 19 -7 19 -16 5 -26 -47 -158
11 -158 69 0 38 56 42 107 8 28 -18 26 -10 -14 44 -18 24 -31 32 -56 32 -28 0
-44 -13 -117 -92z"/>
<path d="M574 3625 c-9 -14 -28 -32 -43 -39 -25 -14 -24 -15 82 -67 94 -47
107 -57 101 -74 -11 -33 -12 -89 -2 -102 29 -36 68 17 59 77 -5 31 -13 39 -76
72 -38 21 -74 39 -78 40 -12 5 21 76 40 87 17 10 17 10 1 11 -10 0 -32 -16
-49 -35 -18 -19 -34 -33 -36 -31 -8 8 31 75 46 79 10 3 8 5 -6 6 -14 1 -29 -9
-39 -24z"/>
<path d="M932 3524 c-8 -16 -10 -55 -6 -112 l6 -87 -24 45 c-17 32 -24 58 -22
90 l3 45 -16 -28 c-10 -20 -13 -42 -8 -70 9 -59 7 -114 -5 -137 -6 -11 -8 -20
-5 -20 8 0 58 33 70 46 6 6 55 47 110 90 55 43 103 83 107 89 7 9 23 0 23 -13
2 -27 42 -76 73 -89 34 -14 37 -14 53 6 27 33 13 85 -35 130 -30 28 -70 30
-96 5 -11 -11 -31 -28 -45 -39 -15 -11 -32 -25 -38 -30 -7 -6 -31 -25 -53 -43
-42 -32 -61 -41 -49 -22 3 5 -4 31 -16 56 -14 32 -19 58 -16 81 7 40 4 41 -11
7z"/>
<path d="M2514 3311 c-29 -13 -63 -58 -59 -79 2 -9 4 -19 4 -22 2 -10 55 -36
69 -34 6 1 21 2 32 3 27 1 70 47 70 75 0 12 -6 30 -13 39 -14 21 -73 30 -103
18z"/>
<path d="M795 2994 c-24 -24 -36 -52 -40 -92 -3 -34 2 -41 58 -95 34 -32 73
-68 88 -79 l27 -22 -26 -32 c-22 -27 -27 -30 -39 -18 -23 22 -71 17 -98 -11
-22 -21 -24 -27 -13 -50 6 -14 18 -26 27 -27 44 -4 57 -4 67 4 6 5 22 4 36 -1
26 -10 48 -2 83 30 21 19 22 19 58 19 24 1 19 6 -123 130 -103 90 -102 88 -79
111 10 10 19 22 20 27 0 4 3 20 5 36 10 62 -19 102 -51 70z"/>
<path d="M2516 2585 c-28 -102 -53 -188 -58 -191 -4 -3 -8 -1 -8 5 0 13 -63
25 -90 16 -12 -4 -26 -17 -32 -30 -9 -19 -6 -30 12 -59 12 -20 19 -36 16 -36
-13 0 35 -80 53 -89 36 -19 54 8 56 85 2 46 18 122 47 224 l43 155 35 -1 c61
-2 200 -20 205 -26 2 -3 -66 -261 -71 -267 -2 -2 -17 3 -34 11 -57 28 -119 -5
-106 -56 7 -30 39 -49 79 -48 35 1 63 24 71 60 3 15 15 61 26 102 12 41 23 82
25 90 2 8 15 57 30 109 14 51 24 95 22 97 -2 2 -24 7 -48 10 -24 3 -55 7 -69
10 -14 2 -54 6 -90 10 l-65 6 -49 -187z"/>
<path d="M598 2423 c-29 -33 -5 -119 41 -150 34 -23 48 -24 63 -6 19 23 19 44
3 89 -25 67 -78 100 -107 67z"/>
<path d="M900 2343 c-68 -60 -82 -72 -134 -116 -27 -23 -68 -59 -90 -79 l-41
-37 -7 24 c-17 64 -77 112 -124 101 -47 -12 -34 -96 22 -145 19 -17 45 -31 57
-31 12 0 49 23 82 51 87 74 156 134 190 164 17 14 47 40 68 58 36 30 46 47 28
47 -4 0 -28 -17 -51 -37z"/>
<path d="M3140 2179 c-41 -33 -84 -68 -95 -77 -22 -18 -93 -73 -108 -83 -5 -4
7 -63 28 -135 20 -71 38 -137 40 -147 2 -9 7 -22 10 -27 3 -6 -1 -10 -10 -10
-26 0 -77 -57 -73 -81 5 -35 32 -46 62 -25 47 30 51 60 21 161 -14 50 -28 100
-31 112 -2 12 -8 33 -14 47 -8 22 -3 29 48 68 31 24 66 51 76 61 23 20 35 22
40 5 2 -7 9 -30 15 -50 7 -20 14 -45 16 -55 2 -10 9 -34 14 -53 15 -47 15 -47
-13 -54 -29 -7 -65 -61 -59 -86 11 -43 72 -28 96 23 16 32 17 25 -29 182 -9
33 -18 65 -20 71 -1 6 -5 21 -8 32 -5 16 5 29 54 68 33 26 60 51 60 56 0 5 -4
6 -10 3 -6 -3 -7 1 -4 9 3 9 1 16 -5 16 -6 0 -10 5 -8 11 5 27 -23 14 -93 -42z"/>
<path d="M2002 2018 c-6 -15 -25 -73 -42 -130 l-32 -103 -311 0 -312 0 0 -28
c1 -15 -3 -27 -7 -27 -4 0 -28 21 -53 46 -26 25 -48 44 -50 42 -3 -2 -49 -121
-104 -263 l-99 -260 116 -114 c98 -97 113 -116 99 -125 -26 -19 -50 -110 -41
-153 7 -37 12 -103 8 -103 -12 0 -46 94 -42 114 7 35 -9 33 -16 -1 -6 -28 -3
-54 9 -84 4 -10 -2 -19 -20 -27 -19 -9 -44 -50 -100 -163 -41 -84 -77 -154
-79 -156 -2 -3 -13 4 -24 15 -18 18 -18 20 -2 53 10 19 20 45 24 59 3 14 -5 1
-18 -27 -14 -29 -29 -53 -35 -53 -14 0 -31 33 -32 62 0 22 -1 22 -9 3 -7 -19
-8 -18 -18 6 -10 26 -56 69 -73 69 -23 0 -49 -42 -49 -77 l0 -38 -30 30 c-37
37 -45 86 -19 117 27 30 23 36 -6 8 -21 -19 -25 -21 -30 -7 -4 9 -16 14 -30
12 -24 -2 -23 -2 5 25 17 16 30 35 30 44 0 9 6 27 14 39 8 12 17 39 20 60 4
21 11 35 15 32 13 -8 4 -87 -11 -96 -8 -5 -8 -9 -2 -9 18 0 35 25 41 64 3 19
14 44 25 55 23 26 20 27 -52 17 -57 -8 -131 -17 -155 -19 -14 -2 -18 6 -20 29
-2 38 -30 84 -51 84 -16 0 -26 -19 -28 -53 -1 -15 -9 -23 -23 -25 -25 -4 -72
-55 -74 -80 -1 -9 -3 -27 -4 -40 -1 -12 1 -22 6 -22 4 0 11 -10 15 -22 3 -13
21 -47 38 -76 27 -46 34 -51 56 -46 14 4 38 7 54 8 26 1 30 -3 33 -34 4 -28 2
-33 -8 -22 -34 33 -58 -4 -27 -43 13 -17 26 -24 39 -20 14 5 20 -1 27 -27 4
-18 15 -33 23 -33 8 0 19 -9 26 -20 6 -11 15 -20 20 -21 4 0 21 -4 36 -9 17
-4 38 -3 54 4 22 10 28 8 48 -15 l23 -27 -21 -18 c-13 -10 -18 -21 -13 -26 5
-4 11 -2 13 5 5 12 33 17 33 6 0 -4 -7 -12 -15 -18 -13 -9 -10 -14 16 -29 l32
-18 -5 45 c-5 38 -2 45 14 49 14 4 18 1 14 -11 -16 -51 -14 -74 6 -94 17 -17
22 -18 33 -7 8 8 15 28 17 44 3 17 25 73 50 125 42 90 45 93 52 65 4 -17 19
-45 33 -63 l24 -33 -22 -18 c-26 -21 -20 -51 10 -51 22 0 51 25 51 45 0 8 7
11 19 8 24 -6 51 22 51 54 0 30 -28 93 -42 93 -5 0 -6 5 -3 10 5 8 11 7 21 -1
12 -9 13 -9 9 2 -9 20 -79 64 -72 45 5 -12 -1 -15 -28 -14 l-34 1 30 59 29 58
26 -25 c14 -14 30 -26 37 -26 7 -1 23 -3 36 -4 51 -5 73 54 36 95 -14 16 -9
22 62 86 42 38 82 75 89 82 11 10 16 7 28 -22 16 -38 56 -69 82 -64 46 9 42
73 -7 119 -44 41 -58 36 -164 -66 -12 -11 -33 -30 -47 -43 l-25 -23 -20 40
c-11 22 -16 38 -11 35 5 -3 20 1 33 10 20 13 35 47 40 91 3 22 -22 54 -111
142 -52 51 -94 94 -94 97 0 2 16 46 36 97 20 52 40 105 43 118 7 23 11 21 90
-57 l83 -81 -21 -34 c-28 -46 -29 -113 -1 -122 33 -11 65 33 69 95 2 32 -6 43
-98 134 -56 54 -101 102 -101 105 0 15 84 231 90 231 4 0 16 -8 28 -18 15 -13
22 -33 24 -68 l3 -49 50 -3 c27 -2 51 -5 53 -7 2 -2 -6 -18 -18 -35 -24 -34
-31 -103 -13 -121 19 -19 50 0 66 39 16 39 14 95 -3 100 -5 2 -10 8 -10 13 0
5 66 9 151 9 136 0 153 -2 176 -20 14 -11 41 -20 59 -20 21 0 42 8 54 20 11
11 27 20 35 20 11 0 15 12 15 52 0 43 20 124 65 265 7 22 94 -38 104 -72 l9
-30 1 27 c1 30 -18 78 -30 78 -14 0 -42 50 -49 88 l-7 37 -11 -27z m-1384
-1142 l1 -45 -32 6 c-26 4 -40 -1 -66 -22 -28 -24 -32 -33 -29 -69 3 -39 1
-41 -28 -44 -29 -3 -32 0 -38 31 -3 19 -17 44 -31 57 -33 31 -32 52 5 68 16 7
32 21 35 31 3 9 15 17 28 18 43 1 130 12 135 17 12 12 20 -6 20 -48z"/>
<path d="M695 1969 c-30 -22 -49 -29 -77 -27 -21 1 -40 0 -42 -3 -4 -4 39 -52
246 -273 42 -45 53 -63 43 -68 -25 -15 -56 -78 -62 -126 -6 -59 19 -99 56 -87
47 15 93 133 73 187 -4 9 -50 63 -103 120 -184 196 -172 180 -151 198 10 8 30
32 45 52 22 30 32 36 54 32 21 -4 24 -2 15 8 -19 23 -56 18 -97 -13z"/>
<path d="M2476 1912 c-15 -42 -43 -118 -63 -169 -19 -50 -36 -98 -37 -105 -1
-7 -10 -31 -20 -52 -9 -22 -19 -50 -22 -63 -4 -13 -15 -28 -25 -34 -11 -5 -19
-14 -19 -20 0 -6 5 -7 10 -4 13 8 13 -5 0 -25 -9 -13 -10 -13 -10 1 0 8 -17
24 -37 34 -76 37 -155 21 -175 -35 -6 -19 -15 -27 -24 -23 -23 9 -35 -38 -16
-67 27 -43 55 -54 86 -34 13 9 25 10 37 3 29 -15 86 -7 113 16 16 13 43 70 79
170 138 376 121 338 142 315 10 -11 35 -30 54 -42 46 -29 60 -47 61 -80 0 -15
4 -29 8 -32 15 -9 7 90 -8 111 -8 11 -30 39 -47 63 -22 28 -35 59 -39 91 -4
27 -10 51 -13 54 -4 2 -20 -31 -35 -73z"/>
<path d="M130 1664 c1 -10 19 -37 40 -59 l39 -40 -24 -25 c-48 -50 -65 -154
-31 -188 41 -41 116 46 116 135 0 37 -6 50 -42 90 -97 106 -98 107 -98 87z"/>
<path d="M2543 1517 c-32 -14 -63 -84 -63 -142 0 -45 3 -51 53 -99 29 -28 69
-64 89 -81 19 -16 68 -60 109 -97 117 -105 132 -117 142 -111 9 5 -18 33 -137
138 -38 33 -78 69 -90 80 -12 11 -41 36 -64 57 -24 20 -39 38 -34 40 20 8 53
71 58 111 12 83 -15 126 -63 104z"/>
<path d="M366 1318 c-19 -26 -20 -49 -5 -101 12 -45 56 -97 84 -101 68 -10 65
134 -5 197 -37 33 -54 34 -74 5z"/>
<path d="M1639 1319 c-26 -26 -39 -62 -39 -108 0 -41 2 -43 180 -201 40 -36
86 -77 101 -92 16 -15 31 -23 34 -17 4 5 -6 20 -22 33 -15 13 -40 34 -54 47
-14 13 -63 58 -109 99 -45 41 -77 76 -71 78 16 5 38 51 44 91 11 67 -26 108
-64 70z"/>
<path d="M2372 1289 c-9 -21 -21 -62 -37 -119 -1 -3 -12 -39 -25 -80 -13 -41
-25 -78 -26 -82 -1 -5 -3 -10 -4 -13 -1 -3 -3 -8 -4 -12 -1 -5 -13 -42 -26
-83 -22 -72 -40 -108 -40 -82 0 34 -117 55 -152 28 -86 -65 31 -183 130 -132
24 12 34 29 50 78 11 35 43 137 72 227 l52 163 20 -22 c11 -12 34 -26 50 -32
28 -10 63 -59 51 -72 -4 -3 -1 -6 5 -6 14 0 16 30 3 62 -5 13 -25 39 -44 60
-20 20 -39 49 -42 65 -4 15 -10 39 -15 53 l-8 25 -10 -26z"/>
<path d="M745 936 c-66 -68 -78 -161 -23 -180 67 -23 150 52 162 147 6 50 -16
77 -61 77 -30 0 -44 -8 -78 -44z"/>
<path d="M1507 822 c-9 -10 -16 -30 -16 -43 1 -13 -3 -35 -9 -49 -21 -54 47
-159 115 -176 13 -4 23 -13 23 -21 0 -26 29 -71 50 -78 15 -5 43 6 93 36 71
42 81 46 83 32 0 -5 4 -16 8 -25 13 -28 14 -52 4 -73 -9 -20 -9 -20 7 0 10 13
15 36 14 67 -2 26 0 50 3 54 10 9 29 -62 22 -82 -6 -15 -4 -17 6 -7 8 7 13 31
12 57 -1 24 2 56 8 70 5 14 8 26 5 26 -2 0 -52 -29 -112 -65 l-108 -65 -8 30
c-4 16 -12 32 -17 35 -6 4 -4 17 5 34 16 32 11 74 -13 111 -9 14 -25 43 -37
64 -36 69 -106 103 -138 68z"/>
<path d="M2516 638 c-27 -101 -51 -186 -53 -190 -2 -4 -15 -1 -29 8 -26 17
-75 14 -101 -7 -32 -27 -3 -84 48 -94 18 -4 79 11 79 19 0 0 9 33 21 71 11 39
22 77 24 85 1 8 10 42 19 75 9 33 19 68 21 78 7 32 17 38 51 33 19 -3 58 -9
86 -12 29 -4 60 -8 68 -10 8 -1 22 -3 31 -3 13 -1 10 -21 -20 -136 -33 -124
-38 -135 -56 -129 -52 16 -86 16 -105 -1 -41 -37 -12 -95 50 -100 58 -5 84 39
116 194 3 14 7 28 10 33 3 4 7 16 9 25 1 10 15 60 29 112 14 52 25 96 23 97
-1 1 -26 5 -56 9 -30 4 -61 8 -70 10 -9 1 -45 6 -81 9 l-65 7 -49 -183z"/>
<path d="M1440 628 c-4 -33 -13 -84 -14 -85 -1 -1 -20 -5 -42 -9 -21 -3 -43
-7 -49 -7 -5 -1 -10 12 -11 28 -2 47 -4 51 -14 35 -5 -8 -10 -27 -10 -42 0
-26 -12 -34 -42 -29 -10 1 -25 -30 -24 -49 1 -10 10 -14 29 -13 27 2 27 2 21
-45 -7 -62 -15 -106 -17 -109 -1 -1 -15 -4 -30 -7 -21 -4 -31 1 -43 19 -9 13
-24 27 -35 30 -10 4 -19 15 -19 26 0 18 -4 17 -60 -11 -33 -17 -60 -33 -60
-37 0 -3 7 -14 16 -24 12 -13 12 -19 3 -25 -8 -5 -10 -3 -4 6 6 10 4 12 -11 6
-41 -17 -73 -24 -80 -18 -4 4 -4 1 0 -5 4 -7 13 -13 19 -13 7 0 24 -6 38 -14
24 -12 27 -11 44 14 l18 26 21 -21 c19 -19 32 -22 99 -20 l77 2 -2 -31 c-2
-17 2 -32 7 -34 6 -1 11 14 13 33 3 37 8 41 54 49 30 5 42 -19 25 -49 -7 -13
-6 -16 2 -11 6 4 15 21 20 39 l10 32 -2 -34 c-1 -20 3 -36 11 -38 7 -3 12 4
12 17 0 33 18 60 40 60 11 0 20 6 21 13 0 6 2 20 4 31 3 15 -2 17 -25 14 -27
-4 -29 -3 -23 21 6 24 8 46 12 114 0 16 4 26 9 24 16 -10 50 13 54 38 5 25 3
27 -23 23 -29 -5 -29 -4 -24 33 3 21 1 40 -5 44 -5 3 -10 5 -10 3z"/>
<path d="M1946 388 c-26 -32 -154 -175 -193 -218 -32 -34 -32 -35 -11 -40 33
-8 344 -4 408 5 30 4 61 8 68 8 6 0 12 4 12 8 0 5 7 5 17 2 12 -5 14 -3 8 8
-6 11 -5 11 5 2 17 -16 44 -6 27 11 -20 20 -296 226 -310 232 -7 2 -21 -6 -31
-18z"/>
</g>
</svg>
