<?xml version="1.0" standalone="no"?>
<!DOCTYPE svg PUBLIC "-//W3C//DTD SVG 20010904//EN"
 "http://www.w3.org/TR/2001/REC-SVG-20010904/DTD/svg10.dtd">
<svg version="1.0" xmlns="http://www.w3.org/2000/svg"
 width="403.000000pt" height="960.000000pt" viewBox="0 0 403.000000 960.000000"
 preserveAspectRatio="xMidYMid meet">
<metadata>
Created by potrace 1.16, written by Peter Selinger 2001-2019
</metadata>
<g transform="translate(0.000000,960.000000) scale(0.100000,-0.100000)"
fill="#000000" stroke="none">
<path d="M2882 9590 c-94 -10 -142 -64 -107 -120 4 -6 21 2 43 20 20 16 38 27
41 24 3 -3 -2 -10 -12 -16 -64 -35 -204 -215 -350 -447 -92 -147 -220 -404
-272 -545 -46 -126 -100 -320 -115 -416 -6 -41 -17 -97 -23 -125 -7 -31 -11
-154 -11 -325 0 -269 10 -394 44 -555 27 -126 153 -867 147 -870 -11 -7 -98
-71 -227 -168 -437 -326 -626 -528 -814 -871 -75 -137 -246 -501 -322 -684
-19 -46 -41 -93 -49 -105 -20 -32 -158 -378 -189 -475 -19 -61 -40 -100 -81
-155 -63 -81 -292 -530 -363 -710 -96 -243 -170 -534 -193 -763 -16 -158 -6
-442 21 -579 20 -103 82 -308 100 -330 4 -5 28 -49 53 -97 43 -83 119 -190
166 -232 34 -31 24 -8 -28 63 -304 414 -234 1271 160 1948 59 101 173 265 188
271 4 1 15 -20 25 -47 21 -59 128 -245 162 -282 13 -14 24 -29 24 -35 0 -8 37
-53 175 -212 37 -43 165 -154 159 -138 -3 9 -2 16 4 16 6 0 18 3 26 6 12 5 15
2 10 -10 -4 -11 0 -16 14 -16 13 0 19 -6 18 -17 -1 -12 7 -19 23 -21 13 -2 26
-12 28 -23 3 -11 25 -29 48 -40 44 -21 117 -88 81 -75 -16 6 -17 4 -6 -9 7 -9
19 -14 27 -11 17 7 75 -28 65 -39 -4 -5 -2 -5 5 -2 6 4 19 0 28 -10 15 -15
128 -73 142 -73 4 0 -34 25 -83 56 -312 195 -561 499 -726 884 -33 78 -108
307 -108 332 0 16 144 161 256 257 336 291 802 580 1224 758 93 40 249 93 272
93 4 0 8 -13 8 -29 0 -16 9 -69 21 -118 12 -48 38 -167 60 -263 21 -96 45
-202 54 -235 8 -33 20 -82 26 -110 6 -27 15 -68 20 -90 5 -22 17 -80 28 -130
l20 -90 -22 -15 c-63 -44 -65 -48 -105 -240 -22 -102 -37 -190 -35 -195 4 -11
182 -121 253 -155 25 -13 46 -23 47 -24 1 -1 84 -371 105 -471 17 -81 98 -367
113 -400 52 -114 104 -315 145 -570 18 -110 21 -444 6 -557 -86 -617 -444
-916 -1026 -854 -144 16 -232 33 -366 72 -75 21 -154 60 -154 75 0 3 51 6 113
6 98 1 122 5 193 30 181 66 310 195 376 377 26 71 30 94 30 191 0 86 -5 125
-22 180 -62 196 -210 344 -407 407 -105 33 -270 31 -382 -6 -237 -77 -374
-268 -388 -541 -13 -248 66 -459 242 -644 179 -189 399 -263 780 -264 207 -1
350 24 510 90 361 148 575 432 625 828 16 125 8 398 -15 545 -43 280 -157 774
-200 875 -11 26 -26 84 -66 265 -52 234 -66 300 -63 300 2 0 50 -24 106 -53
138 -70 208 -139 271 -265 27 -54 49 -114 53 -145 l7 -51 15 39 c8 22 16 86
18 142 1 57 7 118 13 138 15 54 4 113 -36 195 -64 132 -227 273 -436 376 -42
21 -76 43 -74 48 2 5 22 15 45 21 46 14 127 59 139 78 15 22 198 183 217 190
10 4 16 10 13 13 -6 6 45 54 78 72 17 10 14 11 -23 12 -50 0 -426 -54 -511
-73 l-58 -14 -12 61 c-7 34 -16 75 -21 91 -4 17 -13 57 -20 90 -7 33 -16 74
-21 90 -4 17 -10 48 -13 70 -6 53 -115 554 -126 580 -14 32 -31 117 -25 123 3
3 5 -2 5 -11 0 -21 2 -21 108 2 48 11 174 32 280 46 l192 26 63 -27 c87 -39
200 -118 253 -178 25 -28 64 -89 87 -135 l42 -85 0 -140 c0 -167 -20 -256 -91
-405 -24 -52 -43 -96 -41 -98 7 -6 113 30 169 58 106 53 175 135 220 262 20
53 23 82 23 197 0 122 -3 141 -25 195 -47 112 -128 198 -250 268 -73 41 -147
58 -390 87 -52 6 -151 20 -220 31 -69 11 -152 24 -185 29 -113 18 -256 24
-264 12 -4 -7 -15 25 -25 70 -10 46 -22 97 -26 113 -4 17 -15 66 -25 110 -17
83 -38 179 -85 390 -6 28 -23 111 -38 185 l-27 135 85 66 c80 63 250 218 223
204 -20 -10 -15 9 12 49 14 20 25 46 25 57 0 12 8 23 18 26 15 4 78 99 75 113
-2 8 38 72 69 110 16 19 34 41 40 49 29 36 78 115 109 176 27 55 45 77 91 109
81 58 72 64 -13 10 -44 -29 -74 -43 -80 -37 -6 6 31 37 96 82 68 47 110 83
116 100 6 14 13 76 15 136 5 101 4 108 -10 91 -9 -11 -16 -14 -16 -8 0 7 -4
12 -8 12 -5 0 -8 -10 -8 -22 1 -17 -4 -23 -21 -22 -12 0 -20 -3 -18 -7 3 -4
-2 -12 -11 -19 -12 -11 -12 -15 -2 -21 10 -7 9 -9 -3 -9 -17 0 -59 -32 -59
-45 0 -4 -13 -21 -30 -36 -16 -16 -25 -31 -20 -34 6 -4 10 -2 10 4 0 6 10 16
22 22 21 11 21 11 -3 -18 -15 -18 -27 -26 -31 -19 -8 12 -18 5 -23 -16 -9 -37
-18 -58 -26 -58 -5 0 -9 -7 -9 -16 0 -8 -4 -12 -10 -9 -5 3 -10 1 -10 -5 0 -6
-8 -23 -18 -38 -54 -79 -75 -113 -71 -117 3 -2 33 14 67 37 40 26 66 38 72 32
7 -7 -40 -43 -127 -102 -76 -51 -235 -160 -353 -243 -118 -82 -222 -154 -231
-159 -15 -8 -19 -1 -28 48 -6 31 -20 98 -31 147 -12 50 -25 109 -30 131 -17
77 -33 388 -26 509 33 618 118 1001 306 1375 121 241 226 363 344 398 22 6 40
10 41 9 0 -1 20 -58 44 -127 89 -259 150 -428 188 -530 88 -231 142 -421 168
-596 14 -89 15 -149 10 -331 -4 -123 -10 -223 -14 -223 -3 0 -7 -34 -8 -76
l-1 -76 40 38 c22 22 66 75 97 119 159 221 199 357 188 634 -6 151 -14 207
-48 351 -42 176 -169 579 -262 830 -41 110 -191 572 -189 581 3 15 -46 48 -78
53 -19 3 -52 10 -72 15 -20 5 -39 7 -42 4 -2 -3 -13 -1 -23 4 -10 5 -46 6 -81
3z m-532 -3872 c6 -40 18 -93 25 -118 12 -37 81 -341 116 -510 5 -25 18 -83
29 -130 35 -149 51 -231 48 -242 -2 -6 -10 20 -17 58 -7 38 -14 74 -16 80 -5
16 -183 -16 -341 -61 -383 -107 -729 -289 -1149 -603 -163 -121 -171 -126
-162 -89 4 14 9 45 12 69 18 146 99 454 136 517 47 79 213 283 315 386 152
153 261 238 570 441 148 97 301 198 339 224 39 26 73 48 77 49 3 1 11 -32 18
-71z m-1400 -2763 c10 -26 30 -34 30 -13 0 9 3 8 13 -1 10 -11 10 -14 0 -18
-19 -7 -16 -16 8 -32 19 -11 21 -11 15 4 -9 25 17 13 30 -14 6 -12 22 -33 35
-47 20 -21 21 -27 9 -35 -11 -7 -8 -8 10 -4 20 5 28 0 43 -26 11 -19 23 -29
31 -26 8 3 20 -1 26 -9 9 -9 9 -14 2 -14 -6 0 -9 -7 -5 -16 3 -8 11 -13 18
-10 12 4 45 -22 45 -36 0 -3 -12 -9 -26 -12 -22 -6 -34 1 -72 39 -26 25 -50
45 -54 45 -4 0 -8 7 -8 15 0 7 -6 18 -14 22 -31 17 -166 186 -166 207 0 17 22
3 30 -19z"/>
<path d="M3041 2054 c-106 -35 -209 -47 -326 -40 -138 9 -157 12 -269 35 -55
12 -101 20 -103 18 -5 -5 289 -84 359 -96 136 -24 229 -25 313 -2 102 28 125
43 125 81 0 35 -2 36 -99 4z"/>
</g>
</svg>
