<?xml version="1.0" standalone="no"?>
<!DOCTYPE svg PUBLIC "-//W3C//DTD SVG 20010904//EN"
 "http://www.w3.org/TR/2001/REC-SVG-20010904/DTD/svg10.dtd">
<svg version="1.0" xmlns="http://www.w3.org/2000/svg"
 width="1400.000000pt" height="1339.000000pt" viewBox="0 0 1400.000000 1339.000000"
 preserveAspectRatio="xMidYMid meet">
<metadata>
Created by potrace 1.16, written by Peter Selinger 2001-2019
</metadata>
<g transform="translate(0.000000,1339.000000) scale(0.100000,-0.100000)"
fill="#000000" stroke="none">
<path d="M5957 12959 c-156 -23 -329 -111 -447 -230 -64 -63 -170 -217 -170
-246 0 -6 -27 -42 -60 -80 -107 -122 -170 -278 -170 -424 0 -80 4 -83 113 -81
l69 1 -7 -27 c-11 -46 -81 -187 -122 -248 -87 -127 -206 -234 -348 -310 -116
-62 -276 -175 -346 -244 -139 -136 -160 -251 -77 -415 37 -74 63 -110 259
-360 200 -255 256 -340 334 -500 208 -428 238 -905 83 -1355 -61 -178 -132
-309 -253 -470 -508 -673 -1001 -1449 -1389 -2183 l-68 -128 -31 21 c-18 11
-75 46 -128 77 -74 44 -103 68 -130 107 -142 207 -595 536 -1239 898 -156 88
-486 266 -586 316 -81 41 -81 41 -87 87 -12 85 -66 151 -156 193 -45 21 -63
24 -120 19 -41 -3 -87 -15 -122 -31 -144 -67 -340 -85 -493 -46 l-78 20 -56
-48 c-30 -26 -73 -69 -94 -96 l-38 -48 2 -246 3 -245 45 -14 c86 -26 271 -53
412 -59 l141 -7 216 -108 c642 -321 1107 -679 1661 -1279 287 -311 825 -691
1120 -791 172 -59 281 -44 349 46 159 210 231 326 347 558 255 509 624 1080
999 1549 101 127 368 438 372 435 1 -1 -10 -40 -23 -87 -138 -472 -3 -985 345
-1315 180 -171 260 -256 337 -358 245 -325 379 -695 399 -1107 l5 -115 -24
115 c-87 405 -291 788 -573 1075 -89 90 -212 200 -217 194 -2 -2 -9 -89 -15
-194 -93 -1520 -786 -2924 -1921 -3897 -187 -160 -395 -400 -500 -577 -92
-154 -119 -306 -72 -403 29 -59 78 -103 160 -141 l64 -30 177 6 c666 23 1313
280 1819 723 172 151 200 171 274 195 243 78 494 -97 506 -351 5 -99 -8 -142
-63 -215 -56 -75 -79 -147 -73 -230 8 -94 57 -176 136 -226 44 -28 51 -29 167
-29 129 0 135 2 200 60 17 14 84 58 150 97 367 217 683 519 924 883 72 110
186 324 268 505 83 186 299 292 488 241 128 -34 223 -114 285 -242 65 -131
140 -184 273 -192 100 -6 142 10 250 94 342 268 572 620 676 1033 29 117 41
205 60 443 6 86 13 117 36 164 39 79 110 148 193 187 62 30 75 32 172 32 100
0 109 -2 175 -34 126 -62 223 -187 202 -261 -5 -19 -7 -73 -5 -120 3 -73 9
-94 37 -148 41 -75 103 -135 179 -170 50 -24 70 -27 157 -27 87 0 107 3 155
26 99 47 131 87 190 239 170 439 452 886 771 1225 304 322 596 550 972 758 94
52 113 67 157 126 28 36 69 102 91 147 113 224 30 350 -266 406 -89 17 -556
16 -705 -1 -733 -83 -951 -96 -1625 -96 -601 1 -761 7 -1190 46 -926 84 -1637
285 -2095 592 -345 231 -562 545 -625 901 -22 126 -18 144 11 48 60 -203 199
-409 367 -543 l48 -39 39 20 c51 26 97 84 116 145 12 41 13 87 8 250 -9 279
14 446 94 694 30 91 55 144 100 213 68 107 110 187 142 274 l22 61 66 -45
c127 -85 285 -150 442 -182 l55 -10 0 -98 c1 -115 20 -161 87 -214 72 -57 106
-96 134 -155 24 -49 28 -72 30 -148 1 -71 4 -91 18 -100 29 -18 50 7 63 76 7
35 12 82 12 104 1 64 -26 172 -59 238 -34 68 -32 72 39 81 89 11 198 -25 371
-124 63 -36 173 -20 199 29 9 16 5 20 -37 32 -88 24 -130 47 -200 112 -111
101 -235 176 -371 221 l-64 22 -23 80 c-63 220 -179 418 -343 587 -99 103
-169 158 -326 257 -184 116 -174 100 -140 207 32 103 44 129 91 190 50 66 90
150 115 239 28 102 24 296 -8 387 l-20 59 26 -7 c14 -3 89 -37 166 -74 146
-72 277 -153 382 -238 149 -120 167 -143 291 -388 141 -277 359 -487 625 -604
85 -37 230 -81 317 -95 l35 -6 0 -103 c1 -94 4 -109 30 -163 21 -40 44 -69 75
-91 91 -65 100 -75 137 -150 34 -69 38 -84 43 -182 l5 -106 35 0 c34 0 34 1
47 60 28 139 9 288 -52 404 -19 35 -33 66 -31 69 2 2 33 8 68 14 52 9 77 8
139 -6 83 -18 197 -69 264 -117 73 -53 173 -50 225 6 29 30 23 36 -55 59 -87
27 -128 50 -187 107 -107 105 -262 198 -420 254 -50 18 -78 33 -78 43 0 8 -16
62 -35 120 -121 360 -361 665 -675 855 -47 28 -124 87 -173 131 -106 98 -415
425 -601 636 -262 297 -547 512 -682 514 -45 1 -55 -3 -80 -30 -56 -59 -298
-186 -396 -206 -39 -8 -66 -9 -85 -2 -38 13 -118 114 -162 204 -32 68 -36 83
-36 160 0 72 4 94 27 143 43 92 97 155 138 163 57 11 150 58 217 108 89 67
118 129 118 251 0 78 -4 98 -28 146 -32 66 -99 132 -161 158 -23 11 -73 24
-110 29 -89 14 -145 49 -207 127 -85 109 -213 156 -475 177 l-150 11 32 49
c36 54 49 111 42 193 -6 67 -50 136 -149 235 -178 175 -441 257 -702 219z m93
-1625 c46 -31 122 -42 169 -26 29 10 31 8 70 -43 l40 -53 -6 -84 c-5 -72 -3
-91 16 -132 11 -27 21 -55 21 -62 0 -24 70 -92 107 -105 64 -21 144 6 163 57
11 28 65 64 98 64 46 0 80 -28 111 -92 39 -81 56 -170 46 -245 -6 -48 -13 -63
-41 -90 -66 -61 -199 -90 -285 -62 -81 28 -141 104 -179 229 -49 163 -182 265
-382 295 -45 7 -47 8 -53 49 -4 22 -18 68 -32 101 -36 85 -29 136 26 187 22
21 47 38 56 38 8 0 33 -12 55 -26z"/>
</g>
</svg>
