<?xml version="1.0" standalone="no"?>
<!DOCTYPE svg PUBLIC "-//W3C//DTD SVG 20010904//EN"
 "http://www.w3.org/TR/2001/REC-SVG-20010904/DTD/svg10.dtd">
<svg version="1.0" xmlns="http://www.w3.org/2000/svg"
 width="2840.000000pt" height="4050.000000pt" viewBox="0 0 2840.000000 4050.000000"
 preserveAspectRatio="xMidYMid meet">
<metadata>
Created by potrace 1.16, written by Peter Selinger 2001-2019
</metadata>
<g transform="translate(0.000000,4050.000000) scale(0.100000,-0.100000)"
fill="#ffffff" stroke="none">
<path d="M13910 40494 c-161 -11 -343 -28 -584 -54 -148 -17 -425 -41 -615
-55 -726 -53 -1047 -93 -1671 -211 -1787 -338 -2790 -671 -3990 -1329 -958
-524 -1945 -1241 -2575 -1870 -647 -646 -1159 -1365 -1737 -2440 -411 -763
-595 -1148 -751 -1570 -164 -445 -267 -937 -267 -1276 l0 -77 -75 -11 c-92
-13 -139 -36 -189 -92 -102 -112 -144 -333 -155 -808 l-6 -273 -85 -22 c-242
-64 -436 -201 -569 -403 -64 -97 -178 -326 -225 -453 -115 -314 -203 -703
-256 -1134 -21 -167 -107 -1115 -136 -1481 -21 -286 -30 -957 -15 -1211 57
-939 151 -1694 326 -2595 85 -439 115 -551 186 -698 43 -88 63 -116 132 -185
62 -62 100 -91 157 -119 197 -95 460 -137 861 -137 l215 0 80 -41 79 -41 90 6
c118 6 177 25 266 86 41 27 76 50 79 50 3 0 6 -46 6 -103 1 -56 11 -165 23
-242 11 -77 28 -216 36 -308 18 -191 50 -332 95 -414 18 -34 30 -71 30 -94 0
-57 -33 -152 -105 -301 -36 -74 -73 -165 -82 -202 -17 -63 -33 -87 -33 -48 0
23 -81 343 -110 435 -16 53 -25 67 -38 65 -11 -2 -18 -15 -20 -33 -2 -17 -14
-70 -27 -120 -72 -264 -122 -576 -132 -811 l-6 -157 -21 39 c-11 22 -57 122
-101 224 -93 210 -107 225 -132 130 -29 -112 -44 -261 -50 -480 -9 -362 25
-681 111 -1022 24 -95 43 -174 41 -176 -4 -4 -163 210 -222 298 -28 41 -74
117 -102 168 -72 126 -87 124 -71 -9 14 -120 28 -194 67 -364 19 -82 52 -235
73 -340 47 -228 95 -406 200 -740 227 -720 353 -1039 607 -1535 412 -804 685
-1283 860 -1508 l64 -82 -58 26 c-131 60 -259 114 -270 114 -30 0 -18 -28 60
-147 79 -121 240 -387 356 -590 l53 -93 -32 -53 c-17 -29 -82 -114 -143 -188
-154 -187 -311 -437 -453 -719 -127 -254 -194 -486 -194 -673 0 -34 -12 -53
-94 -155 -292 -366 -560 -789 -761 -1205 -136 -282 -168 -393 -168 -592 0
-229 70 -414 242 -634 211 -272 797 -753 1726 -1417 553 -395 856 -592 1409
-919 298 -176 420 -241 528 -284 l56 -23 -188 -371 c-221 -436 -317 -643 -445
-966 -247 -624 -436 -1262 -580 -1961 -73 -356 -89 -496 -105 -930 -5 -146
-21 -366 -34 -490 -36 -335 -49 -507 -43 -582 6 -75 32 -142 68 -175 52 -48
91 -55 329 -64 237 -8 272 -12 465 -60 331 -83 536 -170 1260 -534 628 -315
814 -400 1062 -484 290 -98 522 -144 723 -145 110 0 150 4 215 23 243 68 412
247 485 512 38 140 50 266 60 610 11 365 28 540 80 796 192 954 743 1988 1501
2821 l48 52 228 -109 c328 -156 470 -206 978 -341 149 -39 344 -92 435 -117
529 -144 1150 -267 1885 -372 701 -101 1165 -135 1845 -135 894 1 1706 78
2420 230 810 173 1633 457 2502 864 420 197 680 362 1365 868 189 140 466 312
583 362 201 87 383 218 641 465 295 281 493 461 857 778 696 606 956 866 1124
1121 225 342 243 646 56 933 -67 104 -131 176 -333 378 -248 247 -399 438
-593 748 l-92 146 6 138 c7 156 -8 273 -52 415 -26 84 -242 541 -341 723 -117
213 -260 399 -358 466 -19 13 -35 27 -35 30 0 4 41 30 91 59 352 203 619 508
982 1123 64 108 169 286 234 395 64 108 154 254 200 325 46 70 81 132 78 137
-12 19 -5 21 -303 -111 l-43 -19 64 83 c159 204 405 629 767 1326 247 476 338
674 470 1031 34 91 86 224 116 296 69 168 117 315 139 429 9 50 37 158 60 240
54 186 87 318 115 460 12 61 39 188 61 284 52 225 57 254 74 390 21 166 10
172 -66 39 -28 -51 -74 -127 -102 -168 -59 -88 -218 -302 -222 -298 -2 2 17
81 41 176 86 341 120 660 111 1022 -6 219 -21 368 -50 480 -25 95 -39 80 -132
-130 -44 -102 -90 -202 -101 -224 l-21 -39 -6 157 c-10 235 -60 547 -132 811
-13 50 -25 103 -27 120 -2 18 -9 31 -20 33 -13 2 -22 -12 -38 -65 -29 -92
-110 -412 -110 -435 0 -39 -16 -15 -33 48 -9 37 -46 128 -82 202 -72 149 -105
244 -105 301 0 23 12 60 30 94 45 82 77 223 95 414 8 92 25 231 36 308 12 77
22 186 23 242 0 57 3 103 6 103 3 0 38 -23 79 -50 89 -61 148 -80 266 -86 l90
-6 79 41 80 41 215 0 c401 0 664 42 861 137 57 28 95 57 157 119 69 69 89 97
132 185 71 147 101 259 186 698 163 840 235 1383 312 2361 25 315 25 1107 0
1430 -26 339 -115 1317 -133 1465 -108 902 -359 1580 -680 1835 -121 96 -217
144 -374 185 l-85 23 -6 273 c-4 193 -12 320 -27 429 -31 223 -57 301 -129
381 -48 53 -97 77 -188 91 l-75 12 0 75 c0 351 -109 857 -282 1315 -160 424
-327 772 -736 1531 -578 1075 -1090 1794 -1737 2440 -630 629 -1617 1346
-2575 1870 -1200 658 -2203 991 -3990 1329 -625 118 -945 158 -1675 211 -192
14 -447 37 -565 50 -433 48 -545 56 -850 60 -168 1 -330 1 -360 -1z m420 -154
c58 -5 143 -17 189 -26 79 -16 86 -16 116 0 29 16 51 16 390 -9 198 -14 432
-32 520 -41 88 -8 210 -19 270 -24 770 -68 1729 -220 2445 -389 1061 -252
2171 -661 3015 -1113 261 -140 300 -161 445 -246 797 -465 1435 -956 2070
-1591 660 -660 1193 -1422 1849 -2641 524 -973 757 -1557 856 -2145 27 -158
48 -395 43 -469 l-3 -50 -140 -18 c-85 -10 -157 -14 -184 -10 l-44 7 -52 260
c-167 826 -320 1325 -586 1907 -495 1084 -1417 2319 -2354 3153 -55 49 -188
169 -295 266 -566 513 -731 622 -1365 902 -305 134 -435 198 -720 355 -433
238 -574 296 -1136 462 -151 45 -456 141 -679 215 -1190 393 -1620 500 -2413
600 -807 102 -1547 141 -2457 132 -614 -7 -903 -19 -1470 -63 -1135 -87 -1527
-164 -2865 -564 -370 -110 -587 -173 -880 -254 -557 -154 -1161 -412 -1665
-713 -129 -77 -269 -158 -310 -180 -85 -46 -250 -117 -311 -133 -48 -13 -68
-46 -51 -85 10 -22 9 -27 -11 -39 -384 -238 -742 -522 -1232 -977 -194 -180
-510 -513 -575 -605 -8 -12 -25 -24 -38 -28 -12 -4 -93 -96 -184 -209 -89
-111 -205 -251 -258 -312 -125 -144 -150 -178 -150 -202 0 -10 -46 -84 -101
-164 -467 -665 -863 -1368 -1131 -2004 -28 -66 -83 -183 -123 -260 -167 -326
-356 -890 -445 -1329 -16 -82 -32 -152 -35 -154 -3 -3 -96 6 -208 19 l-202 25
2 134 c5 443 159 1006 450 1654 73 163 284 581 436 861 652 1210 1175 1963
1822 2623 1215 1241 2853 2191 4775 2771 1152 347 2413 554 4092 671 281 20
298 20 323 4 25 -16 31 -16 121 1 169 32 291 39 444 25z m650 -904 c1042 -68
1912 -204 2945 -460 1188 -294 2109 -617 2946 -1032 946 -469 1614 -955 2290
-1667 476 -501 843 -953 1158 -1427 244 -367 372 -594 664 -1180 209 -418 307
-636 481 -1068 186 -461 233 -615 275 -892 30 -200 31 -183 -10 -201 -25 -12
-42 -29 -57 -62 -46 -97 -51 -236 -27 -652 17 -282 19 -513 6 -534 -14 -21
-193 -8 -386 27 -88 16 -186 33 -219 37 l-58 7 6 31 c33 159 40 245 40 497 1
282 -5 352 -60 800 -20 157 -40 362 -45 455 -25 467 -77 800 -174 1105 -19 58
-41 146 -50 195 -42 234 -114 454 -181 552 -47 69 -87 93 -152 93 -99 0 -137
-61 -177 -285 -21 -114 -116 -401 -190 -570 -98 -226 -208 -416 -492 -847 -80
-123 -202 -310 -269 -416 -279 -436 -453 -631 -793 -887 -122 -92 -197 -155
-386 -325 -198 -179 -315 -274 -428 -348 -72 -47 -97 -69 -95 -83 2 -13 -35
-48 -132 -125 -284 -226 -500 -433 -639 -613 -72 -94 -91 -124 -212 -339 -122
-218 -322 -374 -570 -445 -226 -65 -706 -98 -911 -62 -47 8 -217 60 -379 115
-388 133 -543 171 -739 182 l-45 3 85 53 c47 29 102 58 123 64 49 15 60 29 48
61 -9 23 -14 24 -55 20 -55 -7 -128 7 -296 53 -167 45 -358 74 -502 74 -163 0
-507 -47 -630 -86 -10 -3 -18 0 -18 6 0 19 113 126 157 149 82 41 67 68 -28
52 -167 -29 -268 -40 -439 -50 -279 -17 -548 -40 -617 -55 -61 -12 -62 -12
-51 8 31 59 72 106 130 148 98 73 144 148 81 134 -16 -3 -59 -12 -98 -21 -38
-8 -113 -15 -167 -15 -164 0 -454 -60 -697 -145 -57 -20 -105 -34 -108 -32 -2
3 27 36 65 74 87 87 117 163 64 163 -10 0 -23 -9 -29 -19 -22 -36 -96 -69
-233 -106 -210 -57 -251 -83 -335 -212 -63 -97 -141 -183 -165 -183 -24 0
-102 86 -165 183 -84 129 -125 155 -335 212 -137 37 -211 70 -233 106 -6 10
-19 19 -29 19 -53 0 -23 -76 64 -163 38 -38 67 -71 65 -74 -3 -2 -51 12 -108
32 -243 85 -533 145 -697 145 -54 0 -129 7 -167 15 -39 9 -82 18 -97 21 -64
14 -18 -61 80 -134 58 -42 99 -89 130 -148 11 -20 10 -20 -51 -8 -69 15 -338
38 -617 55 -171 10 -272 21 -439 50 -95 16 -110 -11 -28 -52 44 -23 157 -130
157 -149 0 -6 -8 -9 -18 -6 -123 39 -467 86 -630 86 -144 0 -335 -29 -502 -74
-168 -46 -241 -60 -296 -53 -41 4 -46 3 -55 -20 -12 -32 -1 -46 48 -61 21 -6
76 -35 123 -64 l85 -53 -45 -3 c-196 -11 -351 -49 -739 -182 -162 -55 -332
-107 -379 -115 -205 -36 -685 -3 -911 62 -247 71 -449 229 -570 445 -35 62
-84 147 -108 188 -115 197 -380 472 -693 724 -132 105 -184 153 -182 165 2 13
-28 39 -110 94 -107 71 -224 168 -530 440 -73 65 -187 159 -253 210 -364 275
-525 455 -818 914 -73 114 -206 318 -294 453 -290 443 -401 643 -506 910 -64
164 -124 357 -142 458 -40 221 -78 282 -177 282 -65 0 -105 -24 -152 -93 -67
-98 -139 -317 -181 -552 -9 -49 -32 -138 -50 -198 -99 -313 -149 -632 -175
-1107 -5 -96 -25 -301 -44 -455 -55 -442 -61 -514 -60 -795 0 -252 7 -338 40
-497 l6 -31 -58 -7 c-33 -4 -131 -21 -219 -37 -193 -35 -372 -48 -386 -27 -13
21 -11 241 6 534 24 424 19 555 -27 652 -15 33 -32 50 -57 62 -41 18 -40 1
-10 201 42 277 89 431 275 892 174 432 272 650 481 1068 292 586 420 813 664
1180 477 718 1200 1535 1813 2048 818 684 1890 1248 3196 1682 882 293 1982
561 2840 694 529 82 1083 140 1585 166 116 6 239 12 275 14 154 8 974 -4 1190
-18z m6845 -1854 c156 -92 340 -219 477 -329 65 -52 118 -97 118 -99 0 -2 -51
34 -112 80 -146 108 -454 310 -638 419 -80 48 -152 91 -160 97 -31 22 209
-106 315 -168z m-17806 -3706 c25 -30 97 -227 191 -526 55 -173 112 -346 126
-385 65 -174 366 -717 641 -1155 109 -173 99 -170 -54 20 -99 123 -265 369
-354 525 -78 137 -190 370 -257 535 -28 69 -77 177 -109 240 -33 63 -85 179
-118 258 -32 79 -61 139 -65 135 -23 -24 -78 -325 -101 -548 -16 -153 -16
-689 0 -895 34 -443 58 -650 102 -865 115 -566 380 -1161 737 -1663 46 -64 71
-106 56 -92 -245 217 -409 404 -553 632 -71 113 -151 263 -151 284 0 8 -43
114 -95 236 -112 259 -153 386 -195 594 -79 398 -104 762 -90 1307 12 477 19
539 81 820 72 320 152 557 188 557 5 0 14 -6 20 -14z m20414 -24 c66 -113 193
-622 217 -872 19 -196 30 -794 20 -1056 -8 -212 -25 -428 -35 -444 -2 -3 -18
-86 -35 -185 -18 -98 -41 -202 -51 -230 -10 -27 -44 -126 -77 -220 -32 -93
-82 -222 -110 -286 -27 -64 -62 -148 -76 -188 -53 -148 -243 -443 -390 -606
-35 -39 -34 -37 16 50 160 282 258 576 414 1239 119 508 148 684 194 1176 22
239 25 427 10 630 -6 74 -14 209 -19 300 -8 146 -13 179 -46 290 -20 68 -41
133 -47 144 -9 16 -23 -17 -88 -205 -241 -703 -482 -1145 -791 -1444 -39 -38
-69 -65 -66 -60 2 6 59 100 124 210 148 247 253 436 371 670 71 138 105 220
147 355 214 671 255 778 289 767 6 -2 19 -18 29 -35z m-20784 -2272 c34 -561
79 -881 162 -1161 16 -56 28 -103 26 -106 -3 -2 -40 36 -83 84 -44 48 -107
117 -142 154 l-62 66 -19 274 c-22 321 -17 498 24 809 14 107 31 240 37 295
l13 100 17 -165 c9 -91 21 -248 27 -350z m-1672 -136 l32 -5 -13 -37 c-18 -50
-24 -89 -41 -267 -8 -90 -28 -214 -51 -310 -26 -114 -38 -190 -40 -264 -2 -57
-6 -107 -10 -110 -3 -3 -97 -6 -209 -6 l-203 0 -7 170 c-14 345 32 650 111
745 32 37 114 77 184 89 52 9 175 6 247 -5z m24749 -10 c73 -20 127 -63 158
-126 59 -121 90 -400 79 -703 l-6 -160 -163 0 c-90 0 -164 0 -164 0 0 0 7 22
15 49 21 68 19 121 -10 266 -14 69 -25 161 -25 205 0 106 -14 196 -38 248 -11
23 -25 62 -32 87 -17 64 -44 104 -85 126 l-36 19 68 6 c88 7 175 1 239 -17z
m-1857 -544 c-19 -281 -33 -440 -47 -521 -7 -41 -8 -42 -67 -59 -33 -10 -68
-20 -77 -24 -15 -7 -14 -1 3 56 11 35 29 103 40 152 20 92 124 720 134 816 12
108 19 104 26 -15 4 -80 0 -215 -12 -405z m-22260 -224 l-14 -270 -34 -8 c-18
-5 -34 -8 -36 -6 -2 2 1 28 5 58 16 105 30 375 30 585 0 175 3 215 15 225 8 7
18 28 22 49 18 81 25 -356 12 -633z m23201 610 c0 -7 7 -19 15 -26 12 -10 15
-48 15 -225 0 -210 14 -480 30 -585 4 -30 7 -56 6 -57 0 -1 -17 2 -36 6 l-35
7 -14 282 c-13 285 -8 612 10 612 5 0 9 -6 9 -14z m-23960 -981 c177 -16 433
-52 478 -66 52 -17 55 -32 33 -201 -11 -84 -38 -324 -61 -533 -49 -454 -83
-701 -189 -1350 -132 -810 -169 -1091 -222 -1705 l-22 -255 -63 -165 c-79
-209 -99 -289 -119 -475 -32 -304 -47 -411 -72 -509 -59 -239 -191 -429 -350
-508 -223 -109 -421 67 -631 562 -82 193 -104 284 -147 599 -26 198 -60 377
-76 402 -7 11 -11 11 -21 1 -17 -17 -16 -1621 1 -1877 15 -214 50 -462 101
-708 58 -278 215 -900 244 -962 64 -141 209 -227 486 -289 160 -35 314 -49
495 -44 151 4 155 3 155 -17 0 -11 3 -30 6 -42 6 -22 4 -23 -58 -23 -157 0
-469 33 -671 71 -321 60 -466 177 -551 447 -90 286 -171 706 -276 1442 -72
503 -116 919 -151 1415 -20 295 -23 935 -5 1290 53 1078 98 1523 198 1965 42
188 182 693 228 820 144 405 335 604 657 686 176 44 352 53 603 29z m25244
-15 c256 -54 425 -165 555 -365 108 -164 163 -308 279 -730 199 -720 242
-1053 308 -2390 18 -355 15 -995 -5 -1290 -35 -496 -79 -912 -151 -1415 -105
-736 -186 -1156 -276 -1442 -81 -257 -210 -370 -499 -436 -166 -39 -551 -82
-723 -82 -62 0 -64 1 -58 23 3 12 6 31 6 42 0 20 4 21 155 17 181 -5 335 9
495 44 277 62 422 148 486 289 49 106 256 976 298 1255 9 58 26 133 37 167 47
144 61 239 66 473 10 413 -17 864 -68 1150 -21 117 -95 479 -106 514 -10 36
-23 -7 -34 -121 -8 -80 -8 -154 1 -293 7 -102 12 -203 11 -225 -5 -128 -135
-788 -183 -933 -69 -209 -183 -295 -366 -277 -176 18 -291 91 -400 255 -74
112 -201 419 -280 680 -39 126 -43 149 -57 350 -20 284 -69 860 -101 1190 -43
449 -70 644 -209 1505 -99 610 -132 851 -180 1305 -20 184 -45 404 -56 488
-22 169 -19 184 33 201 41 13 291 49 463 66 180 19 431 12 559 -15z m-24519
-77 c4 -10 10 -56 15 -103 8 -90 -2 -193 -39 -393 -28 -151 -47 -299 -76 -617
-33 -355 -56 -540 -110 -895 -136 -887 -237 -2049 -262 -3005 -6 -233 -9 -271
-15 -205 -19 191 -61 507 -88 671 l-30 176 30 322 c93 976 144 1378 276 2206
88 548 118 750 149 985 15 110 42 288 61 395 23 127 37 240 41 325 2 72 6 136
8 143 6 18 32 15 40 -5z m23297 -128 c4 -89 19 -211 42 -335 19 -107 46 -285
61 -395 26 -197 67 -467 184 -1210 77 -486 109 -728 161 -1209 l42 -388 -20
-37 c-19 -35 -19 -46 -11 -396 18 -752 22 -1330 10 -1670 -13 -381 -28 -668
-41 -795 -6 -61 -6 -41 -2 70 11 247 6 1378 -7 1690 -41 1005 -129 1966 -256
2795 -55 356 -77 540 -110 895 -32 348 -39 400 -82 650 -25 145 -35 233 -35
302 1 117 16 181 40 176 15 -3 18 -23 24 -143z m-22755 -291 c12 -59 30 -220
36 -325 l3 -57 -69 0 -69 -1 4 60 c4 55 8 63 51 107 26 26 47 55 47 65 0 10
-15 23 -36 32 -36 15 -36 15 -29 62 11 79 25 125 38 120 6 -2 17 -30 24 -63z
m22187 -47 c1 -53 -3 -78 -11 -82 -19 -7 -16 -36 6 -59 24 -27 41 -202 19
-194 -7 3 -35 2 -62 -2 l-49 -7 6 96 c9 138 18 191 32 191 17 0 25 24 14 41
-10 16 -2 67 14 87 20 25 29 5 31 -71z m-21254 -111 c130 -174 228 -265 610
-571 299 -239 397 -328 507 -459 143 -170 235 -326 296 -502 63 -182 85 -326
107 -709 18 -316 15 -364 -29 -537 -40 -159 -107 -354 -166 -486 -37 -84 -40
-82 -25 22 6 37 14 138 19 223 17 275 -11 538 -89 831 -26 97 -36 122 -49 120
-11 -2 -17 -16 -19 -43 -12 -201 -37 -488 -57 -670 -23 -207 -78 -572 -91
-605 -3 -8 -16 30 -29 85 -36 158 -45 187 -58 182 -28 -9 -71 -231 -103 -529
-9 -93 -20 -168 -23 -168 -4 0 -15 29 -25 65 -22 78 -64 169 -105 229 -16 23
-33 56 -36 72 -4 16 -18 67 -31 114 -13 47 -35 148 -50 225 -15 77 -42 190
-62 250 -34 109 -35 112 -36 295 0 102 1 311 4 465 4 238 2 294 -13 375 -44
236 -160 479 -347 728 -31 41 -30 40 82 -38 229 -163 270 -195 337 -265 161
-170 255 -377 296 -650 18 -124 34 -427 36 -675 1 -182 10 -288 22 -240 6 29
32 341 48 580 6 91 8 215 4 275 -12 196 -27 263 -141 630 -53 171 -140 333
-324 610 -266 398 -420 647 -501 807 -26 52 -25 51 41 -36z m20344 42 c-115
-222 -227 -404 -496 -803 -193 -288 -277 -445 -332 -620 -142 -458 -141 -453
-141 -740 0 -198 32 -657 52 -745 12 -51 21 75 27 380 10 521 44 725 156 944
98 191 219 311 521 518 l96 65 -101 -151 c-157 -235 -235 -411 -273 -620 -15
-76 -17 -137 -13 -371 3 -154 4 -363 4 -465 -1 -182 -2 -187 -36 -295 -19 -60
-47 -173 -62 -250 -15 -77 -38 -178 -51 -225 -13 -47 -27 -103 -31 -125 -3
-22 -21 -67 -39 -100 -37 -67 -85 -195 -85 -226 0 -10 -4 -19 -8 -19 -5 0 -16
71 -26 158 -37 345 -76 545 -104 540 -12 -2 -24 -34 -44 -113 -14 -61 -27
-120 -27 -132 -3 -100 -54 158 -96 482 -21 168 -53 515 -61 673 -5 88 -11 136
-20 143 -18 15 -27 -6 -67 -166 -91 -363 -106 -685 -51 -1065 l5 -35 -16 28
c-24 42 -119 289 -149 389 -70 232 -111 459 -101 562 3 33 10 142 15 241 15
283 65 525 138 670 40 81 172 295 221 360 81 108 262 278 486 458 121 97 254
204 295 238 104 86 337 323 384 392 44 64 55 73 30 25z m-11514 -223 c112 -21
389 -89 527 -129 80 -23 161 -56 237 -96 111 -57 158 -71 171 -51 6 10 -75
144 -94 156 -6 3 -11 17 -11 31 0 14 -7 40 -15 59 l-14 35 59 -40 c32 -22 94
-79 137 -127 116 -129 151 -160 228 -199 39 -20 76 -40 83 -46 8 -7 12 -7 12
1 0 6 6 11 14 11 27 0 151 70 191 108 22 21 73 75 114 121 75 84 143 141 168
141 19 0 6 -78 -17 -105 -34 -39 -90 -136 -85 -146 13 -20 60 -6 169 50 66 35
156 72 217 90 221 64 616 157 626 147 2 -1 -12 -29 -31 -60 -19 -32 -38 -71
-41 -86 -4 -17 -21 -39 -46 -56 -48 -33 -91 -82 -83 -95 3 -5 35 -9 72 -9 70
1 134 11 337 54 66 14 199 33 296 41 97 9 214 22 260 30 46 8 105 15 130 15
l46 0 -31 -63 c-22 -44 -44 -72 -78 -97 -86 -63 -55 -92 102 -92 111 0 171 10
380 62 330 82 409 88 695 46 99 -14 200 -27 223 -28 l44 -3 -68 -40 c-38 -21
-89 -59 -114 -83 -25 -23 -67 -56 -93 -72 -49 -31 -67 -55 -51 -70 5 -4 81
-13 169 -20 453 -32 705 -77 1090 -193 99 -30 209 -61 244 -68 l64 -12 -26
-23 c-15 -13 -27 -26 -27 -30 0 -4 100 -4 223 -1 176 4 242 10 317 27 52 12
151 32 220 45 69 13 163 35 210 49 47 13 87 23 89 21 8 -8 -121 -82 -219 -126
-114 -51 -230 -90 -325 -111 -93 -20 -430 -17 -528 4 -155 35 -212 61 -234
106 -3 7 -128 36 -373 87 -140 30 -304 65 -365 79 -112 26 -307 43 -530 47
-99 1 -116 -2 -174 -26 -68 -29 -152 -38 -171 -19 -33 33 36 110 158 176 52
28 128 79 169 114 l74 63 -113 1 c-62 0 -140 1 -173 2 -108 4 -492 -22 -567
-37 -120 -26 -399 -105 -460 -131 -43 -19 -62 -22 -81 -15 -58 22 -36 89 58
181 57 56 102 117 92 126 -3 3 -40 -2 -83 -11 -44 -9 -178 -27 -299 -41 -259
-29 -370 -47 -462 -75 -93 -29 -117 -42 -164 -94 -23 -25 -71 -66 -106 -91
-72 -51 -87 -49 -99 13 -8 42 26 113 132 277 40 61 71 112 70 114 -2 1 -21 -4
-42 -12 -22 -8 -104 -31 -184 -50 -191 -47 -349 -99 -430 -143 -87 -47 -173
-111 -199 -148 -12 -16 -32 -43 -45 -59 l-24 -29 -11 39 c-8 31 -6 58 9 129
10 50 22 101 26 115 l8 25 -35 -29 c-19 -16 -81 -73 -139 -128 -60 -58 -106
-94 -108 -87 -2 8 -20 27 -42 43 -21 16 -75 66 -119 112 -87 90 -127 120 -117
87 57 -182 59 -453 3 -453 -17 0 -60 78 -78 140 -17 60 -86 166 -137 212 -52
47 -118 81 -253 129 -98 35 -339 93 -339 82 0 -3 36 -64 79 -136 102 -169 160
-336 120 -345 -20 -4 -154 111 -204 176 -21 29 -46 54 -55 56 -47 14 -266 53
-570 101 -190 31 -360 60 -379 65 -19 5 -37 7 -39 5 -9 -9 106 -92 227 -165
48 -28 79 -72 109 -153 19 -50 20 -58 7 -64 -19 -7 -120 29 -194 68 -52 28
-56 28 -128 18 -85 -12 -174 -3 -382 36 -132 25 -660 85 -746 85 -41 0 -46 -2
-35 -15 7 -8 49 -37 94 -64 94 -57 132 -94 175 -172 43 -77 42 -82 -21 -74
-55 8 -85 21 -129 56 -24 19 -31 20 -155 9 -266 -22 -531 -72 -1048 -195 -479
-114 -492 -117 -671 -122 -193 -6 -263 4 -520 77 -279 79 -428 143 -507 218
-46 42 -32 44 42 7 209 -105 524 -165 870 -165 180 0 288 16 465 67 66 19 179
52 250 73 72 21 186 50 255 64 216 43 292 53 775 94 71 6 80 9 80 27 0 13 -17
31 -50 52 -27 18 -71 52 -96 76 -25 24 -71 58 -103 76 -31 18 -56 37 -56 42 0
5 17 9 38 9 20 0 114 12 207 26 279 42 365 36 695 -46 209 -52 269 -62 380
-62 157 0 188 29 102 92 -35 26 -56 54 -84 109 l-37 73 32 -7 c127 -27 261
-46 414 -60 98 -8 232 -27 298 -41 203 -43 267 -53 337 -54 37 0 69 4 72 9 8
12 -35 62 -78 92 -20 13 -36 32 -36 42 0 9 -4 17 -10 17 -5 0 -10 6 -10 13 0
7 -16 39 -35 71 -33 55 -38 66 -32 66 1 0 36 -7 77 -15z m-9758 -255 l37 0 -5
-67 c-2 -38 -7 -129 -10 -203 l-6 -136 -64 11 c-36 6 -65 14 -64 18 0 4 0 93
0 198 l0 192 38 -7 c20 -3 54 -6 74 -6z m22248 -181 c11 -101 20 -189 20 -194
0 -6 -28 -15 -63 -20 l-63 -10 -18 175 c-9 96 -19 187 -22 202 -5 27 -5 27 58
30 35 2 64 2 66 2 2 -1 12 -85 22 -185z m-11055 -475 c7 -33 23 -126 35 -209
11 -82 32 -199 45 -260 13 -60 31 -152 41 -204 9 -51 50 -191 91 -310 41 -119
130 -385 198 -591 196 -597 278 -825 382 -1057 l46 -103 19 38 c11 20 25 46
32 57 47 76 114 297 131 433 4 29 9 52 11 50 2 -2 15 -62 29 -133 13 -72 30
-146 36 -165 5 -19 14 -98 19 -175 9 -142 28 -249 81 -474 16 -68 52 -246 80
-395 54 -292 92 -454 137 -588 41 -119 51 -135 52 -78 l0 45 31 -38 c31 -37
55 -41 44 -7 -3 10 4 33 15 52 11 19 31 66 44 104 13 38 38 98 56 134 18 36
59 128 91 205 45 111 58 135 63 115 3 -14 37 -220 77 -458 63 -378 70 -436 59
-458 -31 -57 39 -55 77 2 10 15 34 77 55 137 31 92 142 306 158 307 3 0 6 -48
7 -108 2 -59 7 -174 12 -257 6 -82 13 -202 16 -266 l7 -116 -64 -17 c-127 -35
-406 -129 -528 -178 -265 -107 -378 -185 -709 -491 -185 -172 -226 -202 -293
-216 -62 -14 -109 -4 -286 59 -194 68 -271 80 -512 80 -241 0 -318 -12 -512
-80 -177 -63 -224 -73 -286 -59 -67 14 -108 44 -293 216 -331 306 -444 384
-709 491 -122 48 -401 143 -527 177 -74 21 -69 -5 -49 255 37 460 40 481 52
468 32 -34 106 -183 133 -268 36 -111 61 -156 96 -172 36 -16 54 2 35 36 -11
22 -4 80 59 458 40 238 74 444 77 458 5 20 18 -4 63 -115 32 -77 73 -169 91
-205 18 -36 43 -96 56 -134 13 -38 33 -85 44 -104 11 -19 18 -42 15 -52 -11
-34 13 -30 44 7 l31 38 0 -45 c1 -57 11 -41 52 78 45 133 83 297 133 567 25
138 64 328 86 423 41 177 62 288 74 377 3 28 20 106 37 175 16 69 40 178 53
243 23 116 35 153 35 108 0 -43 40 -220 69 -303 15 -46 48 -122 73 -170 l44
-88 72 168 c96 226 161 405 292 807 61 187 147 444 192 570 103 294 144 429
164 535 8 47 26 135 39 195 13 61 34 182 47 270 25 181 27 180 53 -40 15 -128
82 -514 91 -524 13 -14 18 28 26 187 4 97 14 250 23 340 8 90 15 197 15 239 0
42 3 74 6 71 3 -3 11 -32 19 -64z m-11185 2 c0 -29 -3 -67 -6 -84 l-6 -30 -32
18 c-17 10 -46 21 -64 25 -24 5 -32 11 -28 22 3 8 6 32 6 53 0 43 6 46 88 49
l42 1 0 -54z m22282 31 c4 -6 8 -31 8 -53 0 -40 -1 -42 -37 -49 -21 -4 -49
-13 -64 -20 -26 -14 -27 -14 -33 23 -3 20 -6 57 -6 81 l0 44 62 -7 c34 -3 65
-12 70 -19z m57 -523 c11 -98 16 -182 13 -185 -10 -9 -153 -62 -157 -58 -3 4
-25 327 -25 377 0 30 1 30 73 39 39 5 73 8 74 8 2 -1 12 -82 22 -181z m-22370
160 c5 -5 -27 -323 -37 -370 l-7 -30 -63 24 c-37 14 -61 29 -59 36 3 6 13 90
23 185 l19 173 60 -7 c33 -3 62 -9 64 -11z m22357 -659 c65 -8 74 -16 74 -59
0 -16 14 -115 31 -219 34 -212 37 -195 -46 -226 -103 -38 -102 -38 -109 27 -4
31 -9 71 -12 88 -5 27 -2 32 23 43 15 6 43 25 61 42 40 37 30 59 -27 59 -77 0
-77 0 -89 118 -17 152 -17 153 11 143 13 -5 50 -12 83 -16z m-22430 -7 c-3
-13 -10 -59 -16 -103 -19 -140 -17 -135 -60 -135 -20 0 -43 -6 -49 -14 -12
-14 1 -31 61 -79 14 -10 14 -23 4 -97 -11 -81 -12 -85 -35 -82 -13 1 -43 11
-67 21 -39 18 -43 23 -39 48 3 15 19 120 35 232 17 113 32 206 33 207 1 1 29
6 62 11 33 6 63 11 68 12 4 0 5 -9 3 -21z m1353 -630 c57 -106 96 -229 140
-438 43 -205 127 -538 140 -554 42 -52 1 -407 -76 -650 -28 -89 -83 -229 -89
-224 -2 2 3 44 11 93 12 71 45 553 45 650 0 53 -34 -25 -85 -200 -153 -515
-188 -593 -448 -985 -110 -166 -112 -168 -87 -95 57 166 60 187 83 615 3 57
-23 48 -73 -26 -24 -36 -46 -61 -48 -56 -2 6 1 90 7 189 9 155 18 217 71 475
50 247 61 316 63 412 l2 116 18 -42 c38 -88 116 -305 128 -353 6 -28 20 -79
30 -115 10 -36 21 -85 25 -110 3 -25 8 -52 10 -60 23 -72 33 237 13 385 -9 64
-8 112 5 240 9 88 21 268 28 400 10 211 9 255 -6 362 -9 68 -19 131 -23 140
-11 33 77 -95 116 -169z m19743 97 c-22 -108 -20 -448 4 -711 20 -215 20 -255
9 -500 -7 -158 -2 -259 14 -249 5 2 11 28 14 57 4 30 15 83 26 118 10 36 24
87 30 115 12 50 93 273 130 355 19 44 19 44 14 10 -9 -68 17 -262 72 -527 47
-222 58 -295 65 -423 5 -85 7 -156 6 -157 -1 -2 -17 18 -35 43 -39 53 -57 53
-54 -2 14 -353 24 -430 72 -584 12 -36 21 -69 21 -74 0 -14 -243 361 -304 469
-72 128 -122 255 -192 491 -80 270 -114 374 -125 374 -12 0 -12 -13 6 -316 8
-143 21 -297 29 -344 8 -47 12 -87 10 -89 -14 -15 -105 260 -138 415 -53 253
-59 418 -20 550 36 125 88 346 118 500 26 134 69 271 113 359 23 46 126 206
129 202 1 -1 -6 -38 -14 -82z m1541 -382 c10 -64 14 -120 10 -124 -9 -9 -175
-70 -179 -66 -1 1 -10 56 -19 122 -8 66 -18 132 -21 147 l-5 27 88 4 c48 1 93
4 99 5 6 1 17 -44 27 -115z m-22746 85 c-3 -13 -11 -75 -18 -138 -6 -63 -15
-118 -18 -122 -6 -7 -123 31 -135 42 -3 3 2 58 11 123 l16 117 74 0 c73 0 75
-1 70 -22z m22707 -388 l83 0 13 -122 c7 -68 13 -131 14 -141 1 -14 -13 -23
-54 -37 -30 -10 -71 -25 -91 -33 l-35 -16 -22 167 c-27 199 -26 196 -6 188 9
-3 53 -6 98 -6z m-22757 -37 c-4 -21 -12 -93 -18 -160 -7 -67 -15 -127 -18
-132 -4 -7 -31 -1 -71 16 -36 14 -66 26 -67 27 -1 1 4 62 12 136 8 74 15 138
15 143 0 4 34 7 76 7 l77 0 -6 -37z m-53 -445 c-1 -20 -9 -116 -19 -212 l-18
-176 -27 0 c-15 0 -42 3 -60 7 l-33 6 7 161 c4 89 10 183 13 209 l6 48 66 -3
66 -3 -1 -37z m22937 -3 c4 -22 8 -114 10 -205 l4 -165 -68 -9 c-50 -7 -71 -6
-76 2 -4 7 -17 100 -30 208 -18 161 -20 199 -9 206 7 4 47 7 88 6 l75 -3 6
-40z m-23005 -697 c-23 -230 -23 -228 -50 -228 -22 0 -23 5 -30 92 -3 50 -6
137 -6 194 l0 103 48 3 c26 2 48 2 50 1 2 -1 -4 -75 -12 -165z m23003 156 c15
-5 13 -74 -10 -282 l-12 -103 -31 3 -31 3 -12 145 c-6 80 -14 168 -17 196 l-6
51 53 -4 c28 -3 58 -7 66 -9z m-8929 -2740 c-58 -144 -141 -336 -273 -624
-135 -298 -277 -619 -277 -629 0 -3 32 50 71 119 86 151 233 375 323 489 89
114 254 298 272 305 43 17 104 -18 104 -58 0 -27 -144 -385 -343 -851 -175
-410 -177 -415 -173 -415 2 0 23 26 47 57 71 95 225 275 424 498 150 168 192
210 213 210 61 0 57 -11 -160 -452 -114 -230 -220 -447 -236 -483 -17 -36 -50
-109 -76 -162 -25 -54 -43 -98 -41 -98 2 0 18 21 36 46 75 110 323 410 452
548 44 47 47 48 69 34 13 -9 24 -22 26 -30 2 -8 -32 -89 -74 -179 -190 -408
-403 -902 -366 -849 124 178 234 325 247 332 24 14 55 0 55 -25 0 -12 -34
-128 -76 -257 -166 -518 -334 -1063 -334 -1086 0 -5 38 62 85 150 96 178 193
335 332 541 109 160 130 185 154 185 45 0 42 -22 -26 -222 -94 -273 -265 -881
-253 -894 2 -1 30 45 63 104 67 118 227 366 243 376 13 8 39 -2 45 -19 3 -7
-12 -122 -32 -256 -27 -170 -49 -277 -74 -354 -32 -101 -127 -436 -127 -450 0
-4 10 -5 22 -3 16 2 34 24 63 78 23 41 90 165 149 275 60 110 134 238 165 284
31 46 72 113 91 150 182 345 479 536 1055 676 247 60 812 177 1030 214 566 94
1273 139 1444 92 266 -74 601 -286 1161 -735 107 -86 199 -156 203 -156 37 0
-5 87 -122 250 -33 46 -59 85 -57 87 8 9 367 -160 418 -197 124 -90 318 -304
453 -500 65 -94 191 -252 264 -330 60 -65 72 -73 88 -64 27 16 27 55 0 189
-14 66 -24 121 -23 122 5 6 167 -129 172 -142 13 -32 -191 -530 -342 -835
-293 -594 -685 -1154 -1012 -1447 -547 -488 -1315 -798 -2232 -899 -198 -22
-714 -30 -922 -15 -683 50 -1243 210 -1901 543 -993 502 -1530 1164 -1735
2138 -110 522 -146 1240 -101 1980 43 708 186 1320 411 1762 188 368 393 603
711 817 75 50 249 150 255 146 1 -2 -11 -38 -28 -81z m9451 -147 c24 -21 65
-45 91 -55 54 -19 53 -16 33 -122 -8 -41 -16 -88 -18 -105 -1 -23 -7 -30 -24
-31 -12 -1 -40 -4 -63 -8 -47 -7 -112 7 -135 30 -25 25 -14 235 21 397 6 28 6
28 29 -20 12 -27 42 -66 66 -86z m-14367 14 c96 -68 267 -229 346 -326 303
-371 520 -938 620 -1620 53 -363 73 -665 74 -1135 0 -318 -3 -409 -22 -600
-36 -362 -73 -612 -137 -915 -18 -88 -36 -179 -39 -202 -17 -115 -185 -494
-301 -678 -237 -373 -567 -689 -1008 -961 -288 -179 -786 -411 -1107 -517
-323 -106 -738 -187 -1115 -217 -189 -15 -642 -13 -835 5 -1134 100 -2039 509
-2593 1170 -418 498 -769 1113 -1042 1825 -30 79 -55 152 -55 161 0 15 37 47
153 134 36 27 47 32 44 18 -3 -10 -8 -27 -11 -38 -3 -11 -12 -69 -21 -128 -16
-111 -13 -137 20 -137 22 0 159 155 286 323 311 411 470 573 633 640 33 14
112 48 175 76 82 37 110 46 100 32 -48 -65 -170 -251 -180 -274 -11 -24 -10
-30 2 -38 8 -5 17 -9 20 -9 3 0 92 70 199 155 485 391 765 578 1028 689 198
83 236 90 477 83 481 -14 952 -77 1620 -217 590 -123 772 -175 983 -275 345
-165 457 -301 856 -1040 102 -189 140 -251 155 -253 13 -2 21 2 21 11 0 29
-111 411 -149 511 -50 133 -47 120 -71 391 -11 127 -27 282 -35 345 -19 134
-15 160 20 160 30 0 58 -41 186 -274 84 -155 220 -461 290 -654 18 -51 35 -89
37 -84 5 17 -102 652 -153 902 -14 69 -42 192 -62 274 -38 156 -38 178 4 184
15 2 31 -11 56 -47 68 -94 190 -306 259 -446 37 -77 68 -136 68 -132 0 24
-134 531 -230 871 -61 212 -110 397 -110 410 0 30 35 45 55 25 16 -17 277
-459 383 -651 42 -75 78 -135 80 -134 1 2 -38 171 -88 377 -148 610 -250 1076
-250 1145 0 37 25 58 63 52 26 -4 109 -152 308 -553 76 -154 139 -276 139
-270 0 23 -257 1036 -320 1260 -86 303 -86 307 -67 324 45 37 69 6 269 -347
45 -78 82 -141 84 -139 3 2 -74 267 -198 687 -17 57 -34 117 -39 133 l-8 29
27 -18 c15 -9 63 -42 106 -73z m-9774 -131 c30 0 68 7 84 15 40 21 46 9 46
-92 0 -60 -4 -86 -15 -97 -25 -25 -81 -35 -154 -29 l-68 6 -12 86 c-6 47 -14
101 -17 119 l-6 32 43 -20 c27 -12 66 -20 99 -20z m12265 -1535 c238 -80 375
-284 439 -656 15 -88 25 -220 51 -715 21 -396 82 -973 136 -1299 65 -396 131
-645 246 -930 75 -187 136 -300 280 -519 200 -304 345 -488 563 -710 432 -440
831 -688 1560 -964 45 -17 45 -18 135 -197 50 -99 103 -219 118 -266 67 -206
107 -432 107 -601 l0 -59 58 3 57 3 -2 105 c-2 129 -32 275 -108 530 -52 172
-137 378 -164 394 -6 4 -11 11 -11 15 0 5 46 -5 103 -21 252 -72 448 -104 872
-143 149 -14 365 -37 480 -52 612 -79 1412 10 1970 217 472 176 982 455 1310
717 415 332 816 855 1123 1468 93 187 287 600 372 793 l55 124 21 -27 c39 -49
105 -184 149 -306 79 -216 105 -381 130 -826 17 -303 20 -326 38 -320 20 6 89
247 128 442 11 58 12 59 25 33 22 -42 70 -225 88 -333 26 -158 36 -313 36
-550 0 -435 -46 -798 -139 -1085 -26 -81 -28 -97 -17 -109 12 -12 18 -10 41
15 50 53 116 153 171 256 29 57 54 98 54 91 0 -6 -11 -78 -25 -159 -49 -288
-135 -589 -242 -849 l-56 -137 -76 -65 c-42 -35 -82 -78 -90 -96 -7 -18 -22
-53 -32 -80 l-19 -47 53 29 c74 42 237 103 258 98 18 -5 216 87 271 125 14 10
29 18 32 18 4 0 -31 -49 -76 -109 -46 -60 -171 -247 -278 -416 -107 -168 -238
-363 -290 -433 -241 -324 -485 -515 -918 -718 -74 -34 -136 -64 -138 -67 -5
-5 265 -113 430 -173 44 -16 78 -33 77 -39 -1 -5 -12 -9 -24 -7 -21 4 -412
133 -509 169 -38 14 -53 15 -75 6 -144 -57 -273 -104 -318 -113 -30 -6 -55
-15 -55 -19 0 -5 -21 -16 -47 -26 -76 -28 -215 -102 -255 -135 -58 -48 -47
-86 14 -51 54 32 147 59 294 86 134 25 140 25 203 9 37 -9 82 -13 105 -10 23
3 98 13 168 22 71 10 130 15 133 12 14 -13 -14 -42 -93 -101 -48 -35 -186
-144 -307 -243 -313 -255 -453 -358 -640 -470 -91 -54 -165 -101 -165 -104 0
-4 130 -88 151 -98 11 -5 215 120 304 186 93 68 264 213 380 322 44 41 93 86
109 100 l30 25 -21 -30 c-125 -185 -420 -608 -468 -670 -33 -44 -64 -86 -69
-93 -9 -15 19 -41 44 -42 18 0 202 143 319 249 47 42 118 116 158 164 40 48
73 85 73 82 0 -13 -76 -198 -120 -292 -26 -55 -80 -161 -120 -233 -44 -79 -68
-135 -62 -139 5 -3 62 -37 126 -76 64 -38 116 -73 116 -77 0 -17 -30 -5 -143
57 -65 36 -122 65 -127 65 -4 0 -27 -33 -50 -72 -267 -453 -657 -893 -1072
-1211 -52 -39 -65 -54 -58 -66 5 -9 135 -143 289 -298 251 -253 297 -303 275
-303 -13 0 -246 211 -427 387 -103 101 -193 183 -198 183 -6 0 -28 -13 -48
-29 -62 -49 -380 -255 -511 -331 -189 -110 -512 -278 -614 -320 -50 -21 -172
-74 -271 -120 -815 -371 -1025 -429 -1720 -469 -77 -4 -141 -7 -142 -6 -2 1
54 23 122 49 240 90 735 324 735 346 0 15 -10 13 -204 -39 -618 -169 -1034
-258 -1441 -306 -170 -21 -511 -32 -501 -17 3 6 32 16 63 22 31 7 212 63 403
125 190 62 374 121 410 130 72 20 101 38 84 55 -21 21 -300 -19 -864 -123
-275 -51 -440 -73 -611 -83 l-116 -7 -184 61 c-101 33 -193 62 -204 64 -11 2
45 7 125 11 80 3 186 13 235 22 115 21 281 76 365 121 76 42 84 49 76 62 -4 6
-40 -1 -94 -18 -147 -48 -248 -62 -482 -67 -160 -4 -291 1 -510 16 -162 12
-329 21 -370 21 -79 0 -318 40 -665 110 -387 78 -598 106 -929 120 -122 5
-281 19 -354 30 -292 43 -648 150 -998 300 -104 45 -270 109 -369 142 -104 35
-233 87 -307 124 -330 165 -536 237 -848 295 -248 45 -203 25 -615 281 -182
114 -316 187 -553 304 -173 85 -316 154 -318 154 -36 0 130 -140 406 -342 69
-50 118 -89 110 -86 -108 41 -477 184 -515 199 -280 115 -628 208 -1105 294
-80 14 -211 42 -292 61 l-148 36 -140 -96 c-540 -371 -700 -503 -1230 -1018
-184 -179 -400 -384 -480 -457 -130 -118 -170 -147 -170 -123 0 4 73 79 163
167 89 88 285 288 434 445 267 279 529 533 688 665 97 81 339 263 493 370
l112 78 -142 47 c-79 26 -222 82 -318 125 -96 43 -251 109 -345 147 -175 71
-502 234 -706 351 -64 37 -120 67 -124 67 -9 0 -69 -36 -390 -235 -296 -184
-709 -425 -729 -425 -3 0 -6 6 -6 13 0 6 57 47 128 89 103 63 837 541 906 590
17 13 10 20 -95 90 -63 42 -181 133 -264 203 -82 70 -266 215 -407 322 -142
108 -257 197 -255 199 1 1 47 -4 102 -11 55 -7 141 -18 192 -25 78 -10 101 -9
155 5 61 15 68 15 202 -10 147 -27 240 -54 294 -86 61 -35 72 3 15 51 -41 33
-180 107 -255 135 -27 10 -48 21 -48 26 0 4 -24 12 -52 19 -77 16 -201 63
-390 147 l-166 74 -169 -62 c-186 -68 -491 -169 -511 -169 -43 0 15 30 173 90
99 37 227 87 285 110 58 23 116 46 129 52 23 8 14 15 -100 77 -352 192 -549
367 -778 690 -40 56 -76 101 -80 101 -5 0 -43 -7 -86 -16 -42 -9 -79 -13 -82
-11 -12 13 12 26 78 42 51 13 69 21 65 31 -11 29 -315 500 -394 610 -45 64
-82 117 -82 118 0 1 55 -26 122 -61 264 -135 448 -220 448 -207 0 3 -14 31
-30 64 -17 33 -40 84 -51 113 -11 28 -31 61 -45 72 -51 43 -198 442 -268 726
-33 135 -86 414 -86 449 0 8 22 -26 48 -75 78 -147 178 -285 207 -285 24 0 22
23 -11 127 -89 281 -134 635 -134 1068 0 374 26 591 97 808 35 108 37 111 44
77 5 -19 20 -86 33 -149 36 -162 87 -321 102 -321 19 0 21 16 39 325 17 297
22 344 54 525 24 137 60 264 106 379 35 86 110 221 123 221 4 0 27 -46 51
-103 71 -163 271 -587 363 -772 250 -498 538 -909 872 -1240 305 -303 649
-535 1131 -763 460 -218 756 -308 1237 -376 272 -39 434 -51 703 -50 212 0
282 4 460 27 116 15 332 38 480 52 322 30 460 48 620 81 103 22 304 74 354 92
11 4 9 -2 -6 -19 -91 -100 -262 -656 -280 -910 l-6 -89 24 0 c13 0 40 -3 60
-6 l36 -6 7 108 c19 298 86 530 239 829 70 136 73 140 117 157 336 128 598
247 799 365 540 316 971 752 1380 1394 203 320 341 685 430 1139 78 399 144
979 176 1535 30 530 36 617 51 707 49 287 155 491 306 591 147 96 349 121 523
62z m11394 -400 c35 -107 54 -224 47 -294 -7 -67 -6 -65 -121 -231 -20 -30
-35 -46 -32 -35 58 200 68 318 42 503 -11 80 -15 142 -11 167 l8 40 23 -45
c13 -25 33 -72 44 -105z m-23416 -142 c26 -59 27 -71 27 -235 0 -216 14 -386
40 -496 11 -46 50 -171 86 -276 59 -175 114 -398 114 -464 0 -54 -13 -59 -73
-30 -109 54 -303 239 -373 357 -21 36 -37 41 -29 9 3 -13 21 -106 41 -208 94
-488 167 -729 321 -1055 88 -185 158 -354 150 -362 -5 -5 -139 175 -224 302
-142 212 -308 624 -399 987 -53 214 -68 324 -94 690 -11 156 -22 303 -25 328
-6 41 2 30 78 -110 57 -106 86 -171 91 -205 6 -35 24 -74 62 -133 30 -46 70
-114 89 -152 58 -114 143 -212 250 -286 50 -34 79 -42 90 -24 3 5 -16 42 -43
82 -196 293 -294 606 -294 938 0 117 33 455 49 500 3 9 12 -8 22 -40 10 -30
30 -83 44 -117z m23745 -28 c30 -263 34 -331 21 -462 -24 -261 -130 -549 -291
-791 -48 -73 -52 -92 -20 -92 20 0 100 53 154 102 93 84 183 231 229 373 12
38 45 107 74 154 29 47 80 140 115 206 35 66 65 122 67 125 3 3 2 -15 -1 -40
-3 -25 -15 -175 -27 -335 -32 -461 -58 -611 -154 -901 -118 -355 -227 -603
-338 -769 -91 -136 -219 -307 -225 -301 -3 3 26 59 63 123 38 65 91 156 118
202 59 103 101 203 162 385 121 368 235 882 235 1063 l0 36 -49 -69 c-100
-142 -262 -303 -392 -390 -38 -25 -76 -55 -84 -67 -8 -12 -15 -16 -15 -9 0 7
-10 9 -30 6 -22 -5 -31 -2 -36 9 -8 21 36 99 96 173 38 48 58 88 103 209 139
379 163 496 152 738 -4 81 -10 147 -14 147 -3 -1 -30 -40 -60 -87 -109 -172
-220 -287 -328 -342 -45 -22 -88 -27 -98 -11 -8 13 66 138 102 172 l28 27 -3
-48 c-3 -32 1 -51 11 -59 12 -10 19 -5 42 30 16 24 47 66 70 93 50 60 125 173
125 188 0 6 27 69 60 139 34 71 71 160 83 198 12 38 25 65 28 62 4 -4 16 -88
27 -187z m-24323 -1757 c44 -60 123 -172 175 -249 52 -76 129 -178 170 -226
42 -49 95 -119 119 -158 107 -171 245 -329 369 -422 42 -31 83 -64 90 -72 13
-16 17 -71 5 -71 -5 0 -71 55 -148 122 -152 133 -334 310 -438 428 -61 69 -66
72 -56 40 5 -19 55 -191 110 -382 132 -462 173 -576 361 -1018 210 -492 282
-676 393 -1005 13 -38 -303 543 -451 830 -255 493 -487 1151 -734 2075 -23 85
-48 178 -55 205 -10 34 -10 44 -2 31 7 -10 48 -68 92 -128z m24883 66 c4 -53
-200 -768 -338 -1184 -177 -534 -313 -851 -550 -1285 -48 -88 -161 -297 -250
-465 -246 -462 -527 -950 -546 -950 -2 0 98 204 222 453 549 1097 734 1526
991 2297 86 261 178 578 169 588 -2 2 -35 -39 -73 -90 -139 -186 -302 -345
-455 -442 l-56 -36 92 93 c110 109 193 217 286 371 37 62 146 211 242 332 95
121 193 248 217 282 24 34 45 62 45 62 1 0 3 -12 4 -26z m-23093 -5264 c-11
-45 -80 -182 -164 -329 -46 -79 -102 -183 -126 -232 l-43 -88 -28 42 c-15 23
-27 47 -27 53 0 21 267 500 311 557 43 56 45 58 64 41 14 -13 17 -25 13 -44z
m-401 -931 c-18 -120 -21 -377 -5 -489 6 -41 21 -112 32 -157 l20 -83 -38 -55
c-21 -30 -42 -55 -46 -55 -11 0 -69 126 -97 210 -35 104 -50 203 -50 330 0
165 32 318 100 475 l21 49 40 -60 39 -60 -16 -105z m140 -920 c10 -16 40 -59
66 -94 l49 -63 -32 -42 -32 -41 -28 33 c-16 18 -48 58 -72 89 l-43 55 30 47
c17 26 33 47 37 47 4 0 15 -14 25 -31z m351 -409 c75 -82 235 -302 235 -324 0
-10 -148 117 -306 262 l-124 113 33 44 32 44 22 -22 c11 -12 60 -65 108 -117z
m20571 69 c27 -103 44 -239 45 -364 1 -69 -1 -128 -4 -131 -2 -3 -30 25 -62
61 l-58 65 2 178 c2 171 3 178 27 215 14 22 28 37 30 34 3 -3 12 -29 20 -58z
m-22139 -558 l32 -39 -15 -68 c-9 -38 -18 -133 -21 -212 -6 -144 2 -218 34
-311 14 -43 14 -45 -21 -120 -19 -43 -38 -90 -41 -104 -4 -15 -11 -29 -15 -32
-13 -8 -109 194 -126 265 -23 92 -15 298 16 395 23 75 109 265 119 265 3 0 20
-18 38 -39z m22129 -87 c21 -26 34 -52 34 -70 0 -25 -41 -215 -55 -253 -4 -9
-30 21 -69 77 l-63 92 22 92 c13 51 26 111 30 133 l7 40 30 -35 c16 -19 45
-53 64 -76z m-142 -420 l58 -86 -81 -162 c-88 -179 -233 -404 -365 -568 -114
-142 -275 -319 -285 -314 -4 3 -18 28 -31 55 l-23 51 31 43 c132 174 241 329
320 455 102 161 232 413 278 535 16 42 31 77 35 77 3 0 32 -39 63 -86z
m-21844 -331 c0 -5 38 -48 84 -97 l83 -89 -30 -83 c-16 -46 -34 -84 -39 -84
-6 0 -48 34 -94 76 -94 86 -91 70 -46 207 13 42 29 77 33 77 5 0 9 -3 9 -7z
m23003 -328 c107 -142 156 -283 142 -409 -7 -64 -51 -216 -63 -216 -4 0 -18
33 -31 73 -12 39 -47 131 -76 202 -34 83 -55 152 -59 191 -4 33 -16 98 -27
144 -16 69 -18 89 -8 113 l12 28 24 -23 c14 -13 52 -59 86 -103z m-22373 -245
c182 -146 298 -242 357 -295 10 -8 6 -27 -18 -90 -17 -44 -32 -81 -34 -84 -5
-4 -135 103 -260 214 -155 138 -217 190 -335 280 -63 48 -116 89 -118 90 -1 1
12 41 29 88 l32 87 66 -58 c36 -33 163 -137 281 -232z m6779 111 l24 -18 -72
-16 c-40 -9 -161 -32 -270 -52 -394 -69 -709 -168 -1076 -338 -119 -55 -376
-188 -400 -208 -9 -7 -219 52 -232 65 -3 2 85 49 194 104 472 236 969 386
1501 452 274 34 300 35 331 11z m13615 -479 c-22 -19 -84 -70 -138 -114 -99
-80 -99 -80 -112 -57 -11 22 -7 29 64 104 43 44 99 106 127 138 l49 58 24 -48
25 -47 -39 -34z m1895 16 c16 -51 35 -121 42 -155 15 -71 18 -63 -82 -188
l-63 -79 -36 114 -36 115 24 39 c34 55 112 217 112 233 0 30 11 8 39 -79z
m-21706 -135 c51 -42 94 -78 96 -80 4 -3 -51 -122 -65 -141 -2 -3 -150 104
-178 129 -11 9 37 169 51 169 3 0 46 -35 96 -77z m4138 -115 c44 -11 79 -24
79 -28 0 -4 -10 -11 -22 -17 -13 -6 -78 -49 -145 -96 l-122 -86 -106 36 c-126
42 -129 31 40 147 125 87 123 86 276 44z m-3376 -493 c219 -165 201 -147 185
-187 -8 -18 -15 -35 -16 -36 -4 -6 -389 246 -596 389 l-187 130 25 57 c14 31
28 62 31 69 3 7 84 -51 196 -141 106 -84 269 -210 362 -281z m20699 293 l27
-93 -153 -149 c-206 -200 -392 -369 -638 -580 l-205 -175 -14 85 c-7 47 -12
86 -10 87 161 110 420 318 538 431 79 77 278 306 371 429 23 32 46 57 50 57 4
0 19 -42 34 -92z m-17691 -126 c14 -6 -9 -30 -117 -120 -388 -323 -764 -746
-1056 -1187 -50 -77 -94 -142 -95 -144 -6 -5 -105 22 -105 29 0 4 11 16 25 28
13 12 28 34 31 49 16 64 281 480 447 702 173 229 411 485 614 658 l72 61 83
-34 c46 -20 91 -38 101 -42z m16585 -914 l8 -66 -137 -121 c-107 -94 -139
-117 -143 -103 -4 15 -30 186 -31 204 0 4 63 52 140 106 160 112 145 114 163
-20z m-10103 -152 c-77 -29 -169 -66 -205 -81 -36 -15 -96 -38 -135 -51 l-69
-24 -39 38 -38 39 163 36 c253 57 432 95 448 96 8 0 -48 -24 -125 -53z m9683
-120 c22 -172 25 -162 -77 -252 -91 -81 -240 -196 -406 -316 -143 -103 -496
-341 -499 -337 -2 2 -7 67 -11 144 l-7 140 234 181 c322 250 716 533 744 534
6 0 16 -40 22 -94z m-10283 -46 c21 -22 37 -41 34 -44 -2 -2 -44 -20 -93 -40
-98 -41 -94 -41 -147 25 l-29 37 87 30 c49 17 93 31 98 31 6 1 28 -17 50 -39z
m-339 -122 c61 -66 62 -61 -18 -108 -40 -23 -167 -104 -283 -180 -274 -179
-553 -350 -572 -350 -20 0 -145 112 -136 121 43 42 937 548 969 549 5 0 24
-15 40 -32z m-6918 -219 l31 -10 -28 -47 c-15 -26 -52 -94 -81 -150 l-54 -104
-40 7 c-22 3 -42 7 -43 9 -2 1 28 68 67 149 55 116 74 146 92 150 13 2 23 5
24 6 1 0 15 -4 32 -10z m16406 -416 c3 -42 6 -104 6 -138 l0 -62 -80 -53 c-44
-29 -83 -51 -85 -48 -3 2 -8 63 -11 134 l-6 129 78 57 c44 31 82 57 85 57 3 1
9 -33 13 -76z m-10555 -34 l71 -61 -128 -90 c-70 -50 -132 -94 -138 -99 -8 -6
-37 12 -87 53 -42 35 -76 66 -76 70 -1 10 260 187 276 187 6 1 44 -26 82 -60z
m-6049 7 c0 -1 -23 -54 -51 -117 -89 -198 -214 -524 -308 -804 -50 -148 -91
-271 -91 -272 0 -2 -22 8 -49 22 l-50 25 23 67 c77 225 266 701 375 948 l62
140 45 -3 c24 -2 44 -5 44 -6z m16311 -341 c4 -27 -3 -34 -101 -102 -210 -146
-538 -362 -665 -439 -159 -96 -499 -267 -503 -254 -2 5 1 49 7 97 6 49 11 109
11 135 0 45 2 48 43 71 378 216 699 409 994 601 l188 122 11 -101 c6 -55 13
-113 15 -130z m-10643 38 l53 -48 -123 -90 c-258 -188 -563 -465 -741 -673
-63 -73 -75 -83 -98 -78 -40 8 -170 68 -167 77 2 4 52 62 113 130 194 215 444
444 726 665 l132 103 26 -19 c14 -11 50 -41 79 -67z m9222 -755 c0 -57 3 -113
6 -125 5 -18 1 -25 -17 -32 -13 -5 -72 -30 -131 -55 l-108 -45 0 119 0 120
118 59 c64 33 120 60 125 60 4 1 7 -45 7 -101z m-390 -202 l0 -114 -72 -27
c-326 -123 -785 -281 -793 -273 -4 4 -45 162 -42 164 1 1 92 35 202 74 189 69
572 227 653 269 20 11 40 20 45 21 4 0 7 -51 7 -114z m-9892 -28 l73 -33 -82
-95 c-44 -52 -89 -103 -98 -112 -15 -16 -22 -14 -102 26 l-86 42 54 69 c29 39
69 89 89 112 39 48 28 48 152 -9z m-5149 -23 l49 -24 -48 -158 c-26 -86 -51
-158 -56 -160 -6 -2 -30 17 -54 42 l-44 45 28 87 c37 116 66 193 72 193 3 0
26 -11 53 -25z m14007 -272 c3 -16 12 -50 19 -78 8 -27 11 -53 7 -56 -4 -4
-46 -18 -94 -32 l-88 -25 -21 72 c-11 39 -22 76 -23 81 -3 10 141 62 176 64
11 1 20 -9 24 -26z m-9109 -55 c18 -11 33 -21 33 -23 0 -2 -49 -69 -109 -149
-148 -196 -317 -454 -439 -666 -88 -154 -104 -175 -124 -172 -80 9 -99 13
-122 22 -14 5 -26 13 -26 17 0 13 269 437 532 838 l127 195 48 -21 c26 -11 63
-29 80 -41z m8791 -89 c12 -45 21 -83 20 -84 -2 -1 -97 -25 -213 -53 -412
-100 -953 -201 -966 -181 -7 13 -49 201 -49 223 0 8 8 17 17 20 20 8 411 10
433 2 8 -3 173 30 365 73 193 43 355 79 360 80 6 0 20 -36 33 -80z m-13837
-31 c27 -24 49 -49 49 -56 0 -7 -38 -142 -85 -300 -151 -514 -231 -886 -261
-1209 -4 -40 -9 -73 -11 -73 -2 0 -19 11 -37 25 -18 14 -38 25 -44 25 -36 0
13 399 89 733 60 267 234 897 247 897 2 0 25 -19 53 -42z m12494 -113 c3 -30
14 -88 24 -129 l18 -76 -31 -5 c-148 -24 -251 -33 -258 -22 -10 17 -46 154
-53 208 l-7 45 134 16 c73 8 140 16 149 16 13 2 18 -11 24 -53z m-424 -100
c10 -55 21 -112 25 -127 4 -19 2 -29 -7 -32 -8 -3 -106 -12 -218 -21 -411 -32
-1166 -39 -1202 -11 -13 9 -14 26 -6 106 l10 96 91 -4 c117 -5 339 11 681 49
291 33 468 47 554 45 l54 -1 18 -100z m-1984 37 c7 -4 13 -44 15 -105 l3 -97
-37 0 c-124 0 -1141 129 -1230 156 -34 10 -20 34 20 35 20 1 109 5 197 9 225
9 1018 11 1032 2z m439 -16 c1 0 4 -50 8 -110 l7 -109 -143 8 c-79 4 -145 9
-147 11 -2 2 -6 51 -9 109 l-5 105 144 -6 c79 -4 145 -7 145 -8z m-6233 -841
c34 -2 63 -3 64 -4 0 -1 -29 -67 -67 -148 -37 -82 -75 -169 -84 -194 l-18 -47
-81 25 c-45 14 -86 29 -91 33 -12 12 11 72 86 231 l60 127 35 -10 c19 -5 63
-11 96 -13z m-246 -498 c40 -13 75 -26 78 -28 2 -3 -22 -87 -55 -187 -71 -216
-141 -494 -173 -684 -13 -76 -26 -140 -29 -143 -3 -3 -11 67 -18 156 -15 190
-9 443 15 574 23 130 86 335 103 335 4 0 40 -11 79 -23z m-4406 -241 l36 -18
9 -154 c10 -173 14 -164 -65 -148 l-31 7 0 169 c0 93 3 168 8 166 4 -2 23 -12
43 -22z m22 -462 l37 -7 -6 -221 c-6 -253 2 -312 47 -333 14 -7 111 -21 215
-32 104 -11 221 -27 261 -36 l71 -16 4 -92 c2 -51 4 -93 4 -94 -1 0 -75 17
-166 39 -146 35 -184 40 -328 45 -154 5 -165 7 -192 30 -16 13 -31 19 -35 14
-16 -26 -66 34 -86 101 -12 43 2 147 47 348 19 85 37 179 41 208 6 57 9 58 86
46z m894 -718 c136 -40 301 -104 423 -166 205 -103 1163 -710 1176 -745 3 -8
4 -21 2 -29 -6 -27 -423 166 -803 371 -332 179 -602 306 -807 378 l-108 38 0
78 c0 42 -3 84 -6 93 -3 9 -4 16 -1 16 3 0 59 -16 124 -34z"/>
<path d="M12852 15645 c-221 -39 -344 -111 -401 -235 -20 -45 -25 -69 -24
-135 4 -263 224 -569 629 -874 25 -18 110 -63 189 -100 l143 -66 87 -120 c47
-66 133 -190 189 -275 82 -123 125 -176 209 -257 105 -102 215 -183 248 -183
16 0 17 -9 14 -87 -3 -49 -7 -194 -10 -323 -11 -540 -40 -653 -214 -828 -113
-115 -282 -227 -506 -337 -177 -87 -207 -97 -617 -210 -247 -68 -209 -71 -566
47 -133 43 -249 78 -258 76 -22 -4 138 -135 201 -164 85 -39 281 -85 390 -91
132 -7 228 11 475 92 131 43 223 68 280 74 47 5 148 23 225 40 329 70 1001 70
1330 0 77 -17 178 -35 225 -40 47 -5 133 -25 192 -44 59 -19 158 -44 220 -56
62 -11 155 -30 206 -41 110 -25 234 -21 347 11 133 38 387 182 363 207 -4 4
-61 -14 -125 -39 -164 -65 -284 -104 -371 -122 l-75 -16 -201 56 c-476 133
-474 133 -651 220 -220 108 -384 217 -502 334 -176 174 -206 284 -218 811 -3
118 -7 263 -10 322 l-4 107 33 10 c53 14 121 65 235 176 82 79 125 132 207
255 56 85 142 209 189 275 l87 120 143 66 c151 70 173 84 332 215 382 315 568
689 454 913 -42 82 -118 137 -249 180 -127 43 -250 55 -486 48 -390 -11 -713
-71 -933 -172 l-73 -34 -72 34 c-146 67 -359 120 -600 150 -179 23 -571 28
-676 10z m558 -96 c117 -12 305 -43 425 -70 165 -36 300 -71 313 -82 18 -14
72 -12 112 6 39 17 348 88 485 111 427 73 725 67 912 -19 67 -30 138 -97 171
-160 38 -71 38 -193 1 -281 -65 -156 -237 -349 -392 -442 -49 -28 -94 -52
-101 -52 -7 0 -21 9 -31 20 -14 16 -21 52 -31 167 -14 162 -27 212 -74 277
-60 83 -129 120 -226 120 -62 0 -81 -4 -147 -37 -182 -90 -296 -280 -297 -494
0 -39 9 -118 20 -175 32 -158 35 -214 16 -288 -18 -71 -74 -181 -157 -310
l-54 -85 -3 40 c-8 131 -25 243 -47 312 -14 46 -29 125 -34 189 -5 60 -13 117
-17 127 -12 33 -35 13 -58 -53 -13 -36 -42 -107 -65 -158 -52 -113 -78 -187
-86 -247 -4 -25 -10 -45 -14 -45 -15 0 -132 171 -163 235 -41 89 -48 182 -22
332 56 334 -11 509 -236 617 -59 28 -74 31 -165 31 -93 0 -105 -2 -167 -33
-108 -53 -171 -148 -184 -280 -9 -87 9 -164 73 -310 14 -33 -160 66 -247 139
-25 21 -83 83 -130 138 -53 63 -91 98 -100 95 -34 -9 -150 234 -150 313 0 162
119 288 320 339 129 33 321 37 550 13z"/>
<path d="M10380 13115 c-9 -11 -11 -49 -8 -140 2 -68 6 -127 9 -130 3 -3 24
-2 45 3 30 6 39 13 37 28 -2 28 -57 242 -64 249 -4 3 -12 -1 -19 -10z"/>
<path d="M17981 13048 c-7 -35 -31 -118 -53 -186 -22 -67 -39 -125 -36 -127 2
-2 22 -7 45 -11 l41 -6 23 68 c16 51 23 103 27 197 4 122 4 127 -16 127 -16 0
-21 -11 -31 -62z"/>
<path d="M10500 12682 c-19 -2 -39 -7 -44 -12 -12 -12 58 -129 133 -222 67
-85 195 -208 215 -208 48 0 46 12 -17 89 -89 106 -158 204 -202 283 -20 38
-40 69 -43 71 -4 1 -23 1 -42 -1z"/>
<path d="M17762 12522 c-24 -37 -77 -107 -118 -157 -108 -129 -166 -205 -157
-205 19 0 187 137 250 203 83 87 167 203 158 217 -3 5 -25 10 -48 9 -41 0 -43
-2 -85 -67z"/>
<path d="M11754 11244 c-8 -30 12 -165 32 -211 16 -40 56 -62 79 -43 19 16 19
29 -1 51 -9 10 -20 37 -25 61 -12 52 -60 168 -71 168 -4 0 -11 -12 -14 -26z"/>
<path d="M16597 11213 c-14 -32 -29 -76 -32 -98 -4 -22 -16 -53 -27 -69 -36
-51 12 -88 57 -46 28 27 55 131 55 214 0 74 -19 74 -53 -1z"/>
<path d="M21499 10836 c-327 -165 -608 -309 -623 -319 -20 -13 -25 -22 -18
-29 8 -8 48 5 134 40 68 28 274 107 458 176 384 143 560 214 713 289 l108 52
-80 48 c-43 26 -83 46 -88 46 -4 -1 -276 -137 -604 -303z"/>
<path d="M11974 11016 c-10 -25 30 -98 102 -187 38 -48 96 -124 129 -169 72
-99 135 -158 229 -212 39 -22 111 -65 159 -94 99 -59 180 -84 215 -65 27 14
28 33 5 69 -15 22 -10 20 32 -15 81 -67 265 -193 335 -228 86 -43 162 -65 226
-65 29 0 56 -4 59 -10 3 -5 17 -10 31 -10 43 0 28 53 -41 150 -47 66 -52 78
-24 55 13 -11 28 -25 34 -31 5 -6 39 -31 74 -54 103 -69 261 -139 388 -172
107 -28 132 -31 273 -31 141 0 166 3 273 31 174 46 382 151 486 246 37 34 34
25 -15 -44 -68 -97 -82 -150 -40 -150 14 0 28 5 31 10 3 6 30 10 59 10 125 0
247 60 493 241 89 66 92 67 87 40 -15 -73 91 -62 233 23 48 29 120 72 159 94
94 54 157 113 229 212 33 45 91 121 129 169 38 47 77 103 86 124 17 37 17 77
0 77 -18 0 -195 -186 -262 -275 -89 -119 -131 -159 -229 -215 -41 -24 -103
-66 -139 -95 -74 -59 -118 -86 -104 -63 4 7 34 46 66 86 32 40 58 77 58 82 0
5 14 25 31 45 56 64 24 63 -102 -2 -121 -62 -206 -117 -382 -245 -131 -96
-315 -218 -329 -218 -5 0 27 69 71 154 45 84 81 161 81 170 0 35 -30 24 -120
-43 -150 -113 -305 -182 -547 -246 -76 -20 -158 -45 -183 -56 -38 -18 -57 -20
-130 -14 -47 3 -109 15 -137 26 -29 10 -106 32 -171 48 -217 55 -385 131 -532
242 -90 67 -120 78 -120 43 0 -9 36 -86 81 -170 44 -85 76 -154 71 -154 -14 0
-198 122 -329 218 -176 128 -261 183 -382 245 -126 65 -158 66 -102 2 17 -20
31 -40 31 -45 0 -5 26 -42 58 -82 32 -40 62 -79 66 -86 14 -23 -30 4 -104 63
-36 29 -98 71 -139 95 -98 56 -140 96 -229 215 -69 93 -244 275 -264 275 -5 0
-11 -6 -14 -14z"/>
<path d="M19890 9885 c-102 -69 -232 -151 -290 -184 -372 -210 -589 -325 -597
-317 -3 2 7 39 22 82 18 52 25 91 23 118 -3 25 1 50 9 63 10 14 11 23 3 28
-23 14 -120 -46 -224 -138 -60 -52 -161 -133 -225 -179 -64 -46 -197 -143
-296 -215 -241 -174 -461 -319 -574 -377 -51 -26 -90 -50 -87 -53 10 -10 131
19 221 53 122 47 253 122 485 277 231 154 316 216 429 310 69 58 83 66 78 46
-3 -13 -9 -47 -13 -76 -6 -47 -4 -54 19 -77 15 -14 32 -26 40 -26 28 0 243
113 521 274 442 257 467 274 584 411 45 52 82 97 82 100 0 16 -44 -9 -210
-120z"/>
</g>
</svg>
