<?xml version="1.0" standalone="no"?>
<!DOCTYPE svg PUBLIC "-//W3C//DTD SVG 20010904//EN"
 "http://www.w3.org/TR/2001/REC-SVG-20010904/DTD/svg10.dtd">
<svg version="1.0" xmlns="http://www.w3.org/2000/svg"
 width="912.000000pt" height="315.000000pt" viewBox="0 0 912.000000 315.000000"
 preserveAspectRatio="xMidYMid meet">
<metadata>
Created by potrace 1.16, written by Peter Selinger 2001-2019
</metadata>
<g transform="translate(0.000000,315.000000) scale(0.100000,-0.100000)"
fill="#000000" stroke="none">
<path d="M1636 3109 c-84 -59 -193 -165 -288 -281 -46 -55 -85 -105 -88 -112
-3 -6 -50 -77 -106 -156 -189 -271 -382 -597 -651 -1095 -308 -570 -439 -875
-450 -1040 -5 -72 -3 -83 18 -114 15 -22 49 -47 89 -68 70 -35 192 -84 197
-79 2 2 10 47 18 101 74 493 439 1311 859 1923 50 73 96 141 101 150 43 74
239 303 275 322 16 9 16 4 -2 -83 -10 -51 -41 -180 -68 -287 -166 -658 -240
-1203 -240 -1778 0 -181 0 -183 24 -206 31 -28 112 -68 196 -95 66 -22 239
-56 246 -48 2 2 9 42 14 88 32 264 145 651 291 997 240 568 601 1156 826 1349
73 62 123 97 129 90 8 -8 -32 -201 -86 -412 -159 -617 -229 -1130 -233 -1699
l-2 -248 35 -29 c19 -16 69 -43 111 -59 73 -28 253 -70 301 -70 l23 0 1 358
c0 378 10 522 60 891 73 543 213 1089 354 1379 32 67 57 129 54 136 -23 59
-391 216 -506 216 -37 0 -48 -7 -125 -82 -87 -85 -253 -278 -253 -295 0 -6
-16 -26 -35 -46 -20 -21 -34 -37 -31 -37 3 0 -32 -51 -76 -112 -291 -407 -671
-1064 -838 -1450 -35 -82 -49 -96 -30 -31 6 21 14 54 16 73 52 414 332 1450
461 1704 l25 48 -28 29 c-34 36 -220 129 -329 165 -44 15 -107 28 -140 30 -57
4 -63 2 -119 -37z"/>
<path d="M7585 2948 c-7 -18 -43 -158 -65 -248 -25 -104 -41 -226 -34 -258 4
-15 14 -40 22 -57 9 -17 14 -49 13 -73 -3 -54 17 -86 69 -111 l39 -19 16 24
c8 13 15 26 15 28 0 11 64 96 72 96 4 0 8 6 8 13 1 20 138 186 229 275 l84 83
-49 50 c-122 125 -398 254 -419 197z"/>
<path d="M6296 2315 c-80 -33 -161 -88 -222 -152 -72 -74 -160 -251 -175 -352
-14 -95 -8 -141 51 -401 27 -118 51 -244 52 -280 l3 -65 -65 -1 c-245 -7 -500
-175 -613 -404 -55 -111 -77 -191 -77 -276 0 -54 4 -68 39 -121 58 -90 154
-161 253 -187 47 -12 66 -12 129 -1 284 51 472 219 540 480 16 63 20 112 21
233 0 149 0 153 23 168 27 17 116 43 185 53 45 6 45 7 48 49 l3 42 -132 0
-132 0 6 153 c12 321 87 530 212 588 59 27 101 25 134 -9 44 -44 47 -87 11
-189 -16 -48 -30 -97 -30 -108 0 -41 35 -56 83 -34 54 25 133 193 157 337 11
68 11 75 -10 115 -69 132 -342 388 -414 387 -11 0 -47 -11 -80 -25z m-276
-1462 c-1 -95 -69 -276 -141 -374 -35 -47 -185 -189 -201 -189 -13 0 -9 37 10
88 34 88 131 212 243 309 29 24 37 40 43 78 3 27 4 50 2 53 -9 8 -82 -21 -147
-59 -36 -21 -102 -71 -145 -111 -78 -72 -78 -72 -34 -19 93 113 278 240 363
250 4 1 7 -11 7 -26z"/>
<path d="M4240 2092 c-55 -55 -100 -105 -100 -111 0 -5 -27 -52 -61 -103 -81
-125 -213 -391 -278 -562 -81 -214 -120 -368 -133 -527 l-12 -136 28 -56 c49
-101 175 -190 309 -217 112 -23 165 18 371 289 137 180 222 281 235 281 4 0 2
-31 -3 -69 -12 -89 13 -219 55 -286 45 -71 162 -143 318 -194 118 -39 132 -27
86 71 -83 179 -71 400 39 685 35 93 166 374 210 454 42 75 156 329 156 347 0
42 -206 122 -315 122 -51 0 -54 -2 -91 -47 -62 -75 -160 -257 -215 -398 -57
-148 -96 -223 -180 -347 -69 -103 -306 -423 -343 -464 -58 -64 -89 -101 -114
-133 -14 -18 -46 -49 -71 -68 -42 -32 -46 -33 -58 -17 -18 24 -16 60 7 174 47
230 202 625 352 895 57 103 203 330 234 366 24 27 16 47 -29 74 -64 37 -151
64 -229 72 l-69 6 -99 -101z"/>
<path d="M8575 2179 c-169 -33 -329 -115 -480 -246 -68 -59 -182 -188 -178
-201 1 -4 -4 -14 -11 -22 -25 -28 -94 -155 -126 -230 -149 -352 -78 -756 175
-988 104 -95 267 -163 352 -147 110 20 333 161 498 315 118 110 133 136 98
179 l-18 22 -115 -76 c-168 -111 -372 -209 -502 -239 -21 -5 -35 0 -62 25
-123 107 -120 505 5 799 46 108 142 268 211 350 111 132 288 253 389 266 39 5
49 3 75 -19 27 -23 29 -30 29 -94 0 -104 -47 -194 -162 -307 -100 -98 -100
-98 -19 -153 39 -27 58 -33 100 -33 44 0 62 6 109 37 103 70 167 206 175 374
9 196 -64 318 -223 374 -59 21 -244 29 -320 14z"/>
<path d="M7217 1945 c-39 -30 -91 -89 -92 -105 0 -3 -17 -33 -37 -67 -87 -147
-127 -262 -187 -543 -65 -307 -84 -420 -85 -520 -1 -88 1 -99 29 -149 16 -29
50 -71 75 -93 46 -42 132 -88 162 -88 18 0 23 22 32 155 6 89 31 169 151 490
102 273 176 438 244 543 23 34 41 66 41 70 0 5 18 26 40 47 22 21 40 45 40 53
0 21 -62 90 -122 135 -65 49 -183 107 -219 107 -14 0 -46 -15 -72 -35z"/>
</g>
</svg>
