<?xml version="1.0" standalone="no"?>
<!DOCTYPE svg PUBLIC "-//W3C//DTD SVG 20010904//EN"
 "http://www.w3.org/TR/2001/REC-SVG-20010904/DTD/svg10.dtd">
<svg version="1.0" xmlns="http://www.w3.org/2000/svg"
 width="4991.000000pt" height="2192.000000pt" viewBox="0 0 4991.000000 2192.000000"
 preserveAspectRatio="xMidYMid meet">
<metadata>
Created by potrace 1.16, written by Peter Selinger 2001-2019
</metadata>
<g transform="translate(0.000000,2192.000000) scale(0.100000,-0.100000)"
fill="#000000" stroke="none">
<path d="M30944 21480 c-45 -18 -120 -133 -185 -286 l-40 -93 25 -663 c14
-365 30 -690 36 -723 28 -157 10 -583 -41 -924 -63 -429 -198 -1023 -284
-1245 -381 -990 -740 -2794 -975 -4906 -17 -151 -41 -323 -55 -381 -58 -260
-160 -414 -302 -455 l-54 -16 -35 31 c-39 34 -83 41 -108 15 -14 -14 -22 -12
-83 20 -38 20 -93 56 -124 80 l-55 43 -28 109 c-97 372 -302 839 -554 1261
-131 219 -193 306 -319 448 -224 250 -487 424 -737 486 -105 27 -292 36 -393
19 -143 -22 -302 -83 -405 -153 -23 -16 -58 -28 -95 -32 -640 -76 -1071 -467
-1232 -1117 -43 -174 -61 -330 -61 -538 0 -245 -19 -322 -94 -387 -32 -29 -91
-51 -102 -40 -3 2 -16 53 -29 111 -116 515 -488 1258 -980 1961 -78 111 -423
689 -1122 1880 -556 946 -1023 1745 -1038 1775 -82 162 -155 421 -180 639 -39
344 -138 681 -282 964 -88 173 -217 297 -308 297 -79 0 -115 -76 -115 -240 l0
-96 110 -323 c61 -178 124 -354 140 -391 47 -108 36 -168 -36 -186 -35 -9
-136 2 -176 19 -18 8 -105 73 -194 144 -171 138 -181 143 -291 143 -75 0 -97
-9 -118 -50 -19 -37 -19 -79 1 -152 l17 -59 168 -132 c169 -133 217 -186 204
-226 -7 -24 -45 -38 -117 -44 -113 -10 -248 -101 -248 -166 0 -57 63 -91 220
-115 257 -41 377 -93 383 -167 1 -13 618 -1153 1371 -2534 l1369 -2510 64
-200 c239 -740 558 -1488 861 -2020 158 -278 364 -576 483 -700 34 -36 71
-119 300 -680 143 -352 271 -667 285 -699 13 -33 22 -57 20 -55 -2 2 -26 33
-52 69 -93 127 -200 247 -388 435 -262 261 -607 562 -766 667 -144 95 -367
188 -452 188 -14 0 -32 -8 -41 -18 -32 -35 -14 -145 24 -155 31 -8 20 -35 -31
-78 l-46 -39 -147 -8 c-114 -6 -151 -12 -164 -24 -22 -22 -11 -58 31 -102 33
-35 35 -36 112 -36 81 0 154 -14 154 -30 0 -11 -47 -26 -124 -39 -94 -17 -109
-42 -54 -93 l33 -31 197 8 c195 7 196 7 219 -16 l22 -22 -23 -19 c-18 -15 -40
-18 -122 -18 -119 0 -161 -15 -156 -58 2 -19 14 -33 43 -49 36 -19 64 -23 272
-33 238 -11 297 -22 310 -57 10 -25 -43 -65 -133 -102 -104 -43 -124 -57 -124
-85 0 -29 36 -46 110 -53 39 -3 94 4 192 26 76 17 162 31 190 31 90 -1 183
-58 233 -144 25 -44 77 -213 94 -310 38 -208 -21 -444 -161 -643 -62 -88 -159
-196 -169 -186 -4 4 -19 39 -34 78 -57 152 -239 472 -382 670 -107 146 -281
275 -461 338 -81 29 -97 31 -222 32 -114 0 -146 -4 -210 -23 -157 -50 -281
-133 -431 -288 -173 -180 -273 -369 -326 -617 -13 -62 -18 -126 -17 -262 0
-189 17 -303 64 -439 14 -43 20 -85 20 -152 0 -99 -9 -136 -42 -171 -38 -41
-150 -23 -180 29 -8 12 -32 52 -53 88 -48 81 -181 260 -267 360 l-64 75 163
339 c90 187 163 345 163 353 0 7 -9 18 -20 25 -16 10 -20 24 -20 70 0 51 2 58
19 58 26 0 56 52 78 131 14 55 17 116 18 424 l0 361 95 134 c125 179 147 242
95 276 -44 29 -86 5 -167 -97 -68 -85 -89 -101 -103 -79 -10 16 13 50 113 164
82 94 95 114 100 152 6 54 -9 74 -56 74 -88 0 -96 -7 -257 -227 -82 -113 -156
-208 -164 -211 -37 -14 -41 21 -41 340 l0 307 -31 36 c-35 39 -76 47 -101 18
-45 -52 -48 -71 -48 -328 0 -267 -2 -276 -55 -241 -36 24 -45 74 -45 250 0
160 0 160 -27 188 -42 44 -102 37 -137 -17 -15 -23 -15 -43 -1 -283 17 -287
26 -346 59 -395 20 -28 24 -51 29 -158 10 -202 59 -413 127 -549 26 -52 30
-70 30 -145 l0 -85 -52 0 -53 0 -99 -195 -98 -195 -127 119 c-204 191 -449
405 -713 624 -123 101 -143 128 -172 226 -21 73 -20 154 4 289 33 181 98 336
195 462 50 65 65 111 65 197 0 51 -4 66 -25 91 -30 36 -88 49 -139 32 -72 -23
-189 -186 -236 -326 -11 -34 -32 -72 -45 -84 -24 -22 -26 -22 -44 -6 -11 10
-24 29 -30 44 -12 30 -63 320 -86 487 -8 61 -29 183 -46 271 -27 141 -35 166
-61 199 -36 43 -71 59 -98 45 -37 -20 -44 -50 -45 -192 0 -216 -25 -213 -120
17 -32 77 -68 151 -79 163 -25 29 -68 52 -95 52 -27 0 -81 -47 -81 -71 0 -10
41 -131 91 -268 75 -207 88 -253 79 -270 -14 -27 -28 -26 -62 2 -21 17 -41 61
-85 187 l-58 164 -58 30 c-67 34 -86 30 -102 -22 -5 -18 -15 -32 -22 -32 -10
0 -13 30 -13 129 l0 129 54 124 c108 248 166 454 165 588 -1 128 -33 176 -93
136 -19 -12 -24 -26 -28 -76 -5 -76 -19 -93 -45 -54 -15 23 -19 55 -23 174 -4
117 -9 151 -23 173 -19 29 -63 37 -84 16 -8 -8 -13 -5 -18 10 -15 48 -120 68
-167 32 l-24 -19 -23 48 c-13 27 -31 56 -41 65 -52 47 -104 -22 -103 -138 0
-94 -22 -88 -55 14 l-25 76 156 206 157 206 0 55 c0 30 -5 66 -11 80 -23 50
-94 57 -177 18 -28 -14 -64 -61 -192 -252 -151 -226 -159 -236 -209 -259 -47
-22 -53 -23 -67 -9 -32 31 8 121 203 461 l183 319 0 70 c0 72 -17 121 -45 132
-35 13 -85 5 -136 -22 -47 -25 -59 -38 -105 -117 -46 -80 -55 -90 -80 -90
l-29 0 3 72 c3 81 -14 137 -47 148 -23 7 -67 -13 -98 -47 -12 -12 -103 -168
-202 -345 l-181 -322 -1 -98 c-1 -179 -36 -227 -101 -138 -76 106 -120 154
-164 184 -59 39 -107 41 -129 7 -26 -40 -38 -141 -25 -221 49 -308 112 -567
165 -683 35 -74 35 -76 35 -213 l0 -139 -55 0 c-30 0 -55 -1 -55 -3 0 -2 -9
-77 -20 -168 -62 -508 -152 -1027 -246 -1419 -33 -140 -104 -412 -109 -418 -1
-1 -42 4 -90 13 -135 23 -274 20 -375 -10 -373 -108 -595 -313 -682 -630 -18
-68 -22 -106 -22 -260 0 -198 15 -297 73 -466 l29 -86 -30 -47 -29 -48 -77
114 c-43 62 -200 295 -349 518 l-272 405 -98 727 -98 728 -42 0 -43 0 0 198 1
197 215 169 c229 180 273 227 281 300 8 63 -16 79 -109 74 -73 -3 -73 -3 -192
-86 -66 -45 -125 -82 -132 -82 -43 0 -20 60 94 246 77 126 92 158 92 192 0 56
-26 82 -82 82 -24 0 -48 -4 -54 -8 -6 -4 -39 -59 -72 -123 -34 -64 -71 -124
-82 -134 -19 -17 -20 -17 -26 0 -4 10 -2 73 5 142 12 111 11 126 -3 148 -13
20 -25 25 -59 25 -24 0 -51 -6 -60 -12 -9 -7 -37 -71 -60 -141 -24 -70 -48
-128 -53 -128 -5 0 -17 46 -26 103 -19 111 -39 151 -80 156 -28 3 -74 -42 -83
-81 -8 -41 -23 -342 -18 -373 3 -19 0 -34 -9 -41 -27 -23 -70 14 -147 127 -75
111 -86 120 -151 120 -46 0 -60 -15 -60 -65 0 -36 12 -57 99 -175 175 -236
283 -427 266 -468 -4 -10 -6 -92 -5 -184 l1 -168 -50 0 -51 0 0 -174 0 -175
-82 39 c-189 88 -333 123 -513 123 -101 0 -148 -5 -210 -22 -371 -99 -614
-396 -750 -916 -19 -71 -43 -182 -54 -245 -13 -78 -31 -141 -55 -196 -70 -157
-71 -308 -3 -449 32 -65 35 -81 45 -225 6 -85 19 -179 27 -208 9 -30 15 -55
13 -56 -2 -1 -34 -21 -73 -43 -117 -69 -224 -171 -278 -263 l-21 -37 -142 -11
c-172 -14 -344 -56 -453 -109 l-78 -38 33 70 c43 94 107 282 129 379 36 160 6
275 -119 456 l-53 78 53 133 c131 331 215 704 256 1124 18 197 15 659 -6 834
-41 347 -118 604 -237 803 -43 71 -49 88 -49 137 0 130 -60 261 -170 371 l-75
76 -221 91 c-201 84 -224 91 -259 83 -60 -14 -70 -45 -33 -100 15 -21 82 -71
182 -134 88 -56 164 -109 170 -118 8 -13 8 -23 0 -35 -9 -15 -25 -18 -80 -17
-60 0 -84 7 -188 52 -131 57 -166 62 -197 31 -31 -31 -5 -89 65 -142 54 -41
345 -192 410 -212 82 -26 148 -72 157 -110 12 -46 57 -418 76 -625 24 -265 25
-922 0 -1101 -37 -274 -83 -436 -175 -617 l-57 -112 -105 96 c-142 129 -402
347 -472 395 -134 92 -353 178 -412 163 -31 -7 -40 -33 -31 -90 5 -36 12 -47
31 -54 22 -9 24 -12 12 -29 -7 -10 -27 -30 -45 -45 -29 -25 -41 -27 -150 -33
-65 -3 -126 -10 -135 -15 -29 -14 -22 -56 16 -94 33 -33 36 -34 113 -34 51 0
86 -5 98 -14 17 -12 16 -14 -16 -24 -19 -6 -54 -14 -79 -17 -75 -12 -89 -37
-44 -82 l26 -26 167 7 c138 5 170 4 186 -8 16 -12 18 -18 9 -33 -9 -15 -29
-19 -111 -23 -107 -5 -136 -17 -131 -54 6 -44 50 -54 265 -65 208 -10 273 -24
273 -56 0 -14 -83 -75 -103 -75 -4 0 -32 -11 -62 -25 -87 -41 -83 -76 11 -95
50 -11 69 -8 200 20 129 29 150 31 192 20 26 -6 57 -18 70 -26 l23 -15 -33
-46 c-72 -102 -394 -405 -427 -402 -3 0 -25 27 -48 59 -87 122 -291 254 -444
286 -92 20 -228 14 -316 -14 l-63 -20 45 50 c71 79 83 160 33 223 -16 20 -23
49 -29 118 -37 411 -169 756 -370 972 l-61 64 21 148 c61 431 67 917 15 1273
-46 319 -149 627 -265 797 -24 35 -29 52 -29 105 0 139 -67 287 -184 403 l-71
70 -237 99 c-200 83 -243 98 -273 93 -46 -7 -65 -23 -65 -52 0 -49 45 -89 219
-200 180 -114 205 -139 174 -171 -13 -13 -31 -15 -87 -12 -59 3 -94 14 -206
61 -135 58 -164 63 -197 35 -7 -6 -13 -25 -13 -44 0 -58 77 -121 269 -221 91
-48 202 -100 246 -116 90 -34 150 -68 163 -94 17 -32 61 -378 87 -677 20 -237
33 -653 26 -846 -5 -139 -8 -155 -24 -158 -28 -6 -56 26 -72 81 -12 40 -15
115 -15 357 l0 305 -38 65 c-71 123 -146 179 -181 136 -7 -8 -25 -66 -41 -130
-16 -63 -39 -135 -51 -158 l-23 -43 -7 30 c-4 17 -12 66 -18 110 -15 109 -49
231 -72 258 l-19 22 -19 -22 c-10 -12 -28 -61 -40 -110 -31 -127 -57 -145 -81
-56 -18 67 -25 73 -86 73 -40 0 -59 -5 -79 -22 -48 -42 -49 -79 -10 -389 37
-301 44 -443 22 -474 -13 -17 -16 -15 -42 19 -16 21 -57 104 -91 184 -69 161
-78 171 -161 172 -61 0 -93 -40 -93 -117 0 -142 195 -868 298 -1106 l29 -68
-43 -87 c-58 -117 -127 -329 -159 -486 -20 -97 -32 -137 -50 -158 -48 -57 -56
-157 -20 -258 9 -24 12 -47 8 -51 -5 -4 -52 -26 -106 -49 l-98 -42 -44 36
c-56 46 -81 87 -102 169 -15 58 -16 77 -5 165 23 179 74 315 173 457 50 72 52
77 57 154 4 75 3 81 -21 105 -21 21 -36 26 -78 26 -51 0 -55 -2 -104 -53 -57
-59 -114 -154 -139 -233 -9 -29 -26 -60 -37 -70 -19 -17 -20 -17 -41 3 -23 24
-53 159 -88 408 -11 77 -32 201 -46 277 -23 123 -29 140 -59 172 -33 36 -76
48 -91 25 -3 -6 -30 35 -60 91 -29 55 -73 129 -98 163 -33 43 -46 70 -46 94 0
36 -27 58 -59 48 -11 -3 -26 4 -39 18 l-22 24 21 27 c26 33 37 100 19 121 -15
18 -85 20 -127 4 -15 -5 -37 -22 -49 -36 -20 -25 -21 -25 -51 -9 -41 21 -164
53 -235 62 l-58 6 0 103 c0 87 -3 106 -20 127 l-19 25 90 73 c149 121 149 121
149 178 0 78 -41 97 -158 71 -44 -9 -69 -27 -203 -146 -175 -153 -232 -195
-305 -218 -60 -19 -99 -9 -114 30 -6 15 -10 88 -10 163 0 123 -3 141 -23 177
-12 22 -34 46 -48 54 -24 13 -29 13 -53 -2 -14 -10 -35 -35 -46 -57 -18 -35
-20 -59 -20 -213 l0 -173 -53 -55 c-78 -81 -111 -154 -116 -257 -2 -67 1 -95
19 -145 12 -34 27 -67 32 -74 6 -8 7 -54 3 -120 -7 -103 -9 -112 -55 -203 -85
-168 -144 -348 -191 -579 -15 -75 -28 -114 -45 -134 -54 -65 -59 -201 -10
-320 l28 -69 -35 -76 c-57 -128 -71 -180 -72 -267 0 -65 4 -86 20 -109 66 -93
78 -133 51 -168 -16 -21 -69 -23 -286 -8 -866 59 -1445 254 -1648 553 -27 40
-67 91 -89 114 -144 148 -198 764 -157 1771 l7 159 29 17 c52 31 207 187 248
250 71 108 95 230 65 333 -6 18 15 39 140 143 80 67 150 133 155 146 19 48 12
91 -17 114 -24 19 -36 21 -83 17 -100 -10 -118 -21 -300 -183 -192 -169 -278
-224 -355 -224 -74 0 -79 14 -85 214 -5 171 -5 173 -34 210 -15 21 -34 40 -42
43 -31 11 -65 -8 -94 -54 l-30 -47 0 -189 0 -189 -59 -63 c-131 -140 -160
-303 -84 -467 l28 -60 -62 -792 c-34 -435 -62 -820 -63 -854 -1 -138 60 -350
151 -530 124 -243 355 -521 607 -730 55 -45 60 -52 38 -52 -14 0 -36 -4 -51
-10 -22 -8 -33 -5 -74 25 -26 19 -78 49 -114 66 -180 84 -318 78 -415 -18 -88
-89 -122 -213 -122 -449 l0 -125 -66 -73 c-140 -155 -239 -319 -251 -414 -5
-43 0 -62 40 -155 87 -203 168 -317 224 -317 17 0 36 7 43 15 27 32 -14 149
-76 215 -13 14 -30 42 -39 63 -14 35 -14 41 1 72 18 38 69 75 102 75 46 0 70
-74 81 -252 7 -111 12 -142 30 -175 26 -46 66 -73 109 -73 34 0 30 17 53 -240
10 -110 14 -130 40 -171 30 -47 34 -80 23 -152 -9 -53 -30 -46 -49 18 -26 90
-65 122 -143 117 l-23 -2 28 -37 c26 -33 28 -45 31 -140 2 -57 1 -103 -2 -103
-11 0 -343 179 -515 277 -327 188 -538 330 -638 432 -47 48 -52 56 -58 114 -8
82 -22 125 -52 165 -36 49 -65 63 -140 70 l-68 7 -17 100 c-19 108 -24 331
-10 380 11 36 439 1099 457 1136 12 21 27 28 97 43 228 49 405 174 446 317 8
24 24 67 37 94 32 67 37 101 25 160 -6 28 -15 91 -19 140 -11 124 -24 146
-103 175 -35 12 -90 36 -122 52 -62 32 -141 45 -199 34 -62 -12 -91 -50 -127
-168 l-33 -107 -193 -148 c-189 -145 -193 -149 -200 -192 -10 -63 -48 -102
-107 -108 -41 -5 -47 -8 -47 -29 0 -20 -5 -24 -30 -24 l-30 0 0 -116 0 -116
-344 -682 c-310 -614 -345 -688 -356 -755 -15 -90 -4 -176 33 -249 14 -27 296
-405 627 -841 l603 -792 96 -49 c202 -101 359 -228 401 -322 18 -42 18 -58
-20 -958 l-38 -915 -176 -452 c-97 -248 -176 -454 -176 -457 0 -3 10350 -6
22999 -6 l22999 0 36 86 c102 243 140 548 101 793 -21 126 -69 268 -116 340
-21 33 -50 93 -63 133 -27 81 -49 252 -44 340 2 47 -1 60 -19 80 -33 35 -43
72 -43 163 0 105 19 203 74 381 31 101 52 152 74 181 58 71 76 140 77 294 1
154 11 185 64 191 24 2 154 118 620 552 325 302 591 555 591 562 0 6 9 76 19
155 23 166 -10 79 392 1037 139 331 246 598 242 605 -4 7 -51 66 -105 133
l-98 121 0 283 0 283 85 88 c134 139 215 282 215 378 0 34 7 42 166 170 91 74
174 145 184 159 27 34 26 87 -2 106 -46 32 -77 21 -195 -69 -61 -47 -120 -85
-130 -85 -44 0 -56 53 -25 105 10 17 78 108 150 204 123 161 132 176 132 217
0 76 -47 101 -127 69 -33 -13 -54 -40 -148 -181 -89 -135 -116 -169 -148 -186
-93 -47 -71 24 104 329 130 227 131 228 126 282 -7 89 -56 111 -142 62 -17
-10 -46 -45 -68 -82 -46 -80 -73 -87 -70 -19 3 55 -12 106 -34 114 -17 7 -59
-16 -80 -43 -7 -9 -71 -120 -143 -247 l-130 -231 0 -77 c0 -120 -25 -143 -72
-68 -32 53 -87 111 -119 128 -101 52 -126 -24 -85 -256 31 -177 67 -319 101
-395 21 -48 25 -73 25 -151 l0 -94 -40 0 c-27 0 -40 -4 -40 -13 0 -8 -11 -101
-25 -208 -101 -775 -269 -1424 -444 -1719 -29 -48 -38 -73 -34 -92 14 -73 -22
-107 -126 -118 -83 -9 -144 -37 -221 -101 -64 -53 -160 -175 -215 -273 l-35
-64 -46 10 c-103 22 -163 -10 -198 -104 -10 -26 -26 -58 -36 -70 -24 -30 -46
-18 -80 44 -51 93 -106 128 -213 136 -90 6 -161 -10 -287 -68 -58 -26 -106
-46 -108 -45 -2 2 -9 29 -17 61 l-13 58 33 40 c18 23 44 65 59 93 27 54 66
198 66 243 0 17 15 41 46 70 62 62 98 121 129 214 49 147 44 349 -16 548 -17
58 -27 73 -82 124 -170 158 -397 291 -570 334 -55 14 -51 4 -71 195 -32 302
-38 465 -33 797 8 508 55 806 183 1178 236 687 389 1415 459 2180 30 340 37
558 32 1008 -6 572 -32 872 -118 1382 -104 619 -292 1272 -518 1804 l-42 98
35 132 c82 299 111 504 104 730 -4 130 -9 162 -32 231 l-27 81 76 314 c42 173
77 329 76 346 -1 46 -39 142 -64 159 -42 29 -77 19 -131 -38 -50 -52 -53 -59
-170 -386 l-119 -334 -211 7 c-116 4 -212 11 -214 14 -2 4 -87 156 -190 337
-208 367 -205 363 -314 368 -65 3 -93 -26 -86 -88 7 -56 183 -632 226 -735 21
-52 37 -109 40 -147 4 -57 3 -63 -23 -88 -25 -26 -31 -27 -93 -23 -74 6 -97
14 -480 182 -154 68 -249 105 -261 101 -34 -10 -101 -65 -121 -98 -25 -40 -25
-73 -1 -113 21 -34 11 -27 384 -254 252 -153 271 -167 319 -229 161 -207 402
-374 574 -398 l46 -6 -6 -146 c-3 -80 -26 -1158 -51 -2396 -42 -2098 -46
-2257 -65 -2357 -53 -282 -201 -659 -365 -928 -142 -234 -376 -498 -568 -641
-112 -84 -271 -179 -298 -179 -36 0 -85 37 -104 80 -15 34 -17 53 -10 132 5
51 7 136 5 188 -2 52 -4 119 -4 148 l-1 54 60 25 c87 37 191 107 250 169 188
195 192 464 11 772 -26 44 -54 86 -63 94 -8 7 -70 27 -137 44 -104 26 -121 33
-120 50 1 10 12 73 24 139 30 161 33 473 7 610 -86 437 -319 716 -715 859
-150 54 -229 69 -332 63 -404 -24 -752 -228 -919 -539 -92 -170 -117 -282
-167 -733 -8 -77 -17 -144 -19 -150 -2 -5 -4 58 -4 140 -1 154 -10 213 -37
240 -20 19 -57 19 -98 0 l-32 -16 0 -269 c1 -238 -1 -271 -16 -286 -32 -33
-59 -11 -158 132 -52 75 -104 142 -115 149 -30 19 -89 27 -119 15 -23 -8 -26
-15 -26 -60 0 -48 3 -53 70 -127 122 -134 246 -340 336 -559 l36 -89 39 -855
c21 -470 39 -891 39 -936 l0 -81 -107 -10 c-90 -8 -126 -17 -213 -52 -356
-142 -666 -411 -816 -706 -37 -73 -40 -76 -69 -70 -16 3 -45 16 -65 30 -65 44
-127 56 -195 36 -43 -12 -72 2 -92 45 -22 46 -91 89 -213 135 -151 56 -338 51
-454 -14 l-40 -22 -56 112 c-45 88 -58 124 -63 174 -7 85 -60 188 -129 255
-46 45 -74 61 -212 118 -88 36 -168 66 -178 66 -30 0 -58 -19 -58 -40 0 -32
40 -68 160 -144 79 -50 116 -80 118 -94 7 -47 -80 -36 -230 28 -74 32 -77 33
-102 16 -35 -22 -33 -38 10 -85 38 -43 238 -155 333 -186 29 -9 66 -29 82 -44
32 -29 36 -47 64 -295 l16 -139 -27 -28 c-33 -34 -36 -87 -10 -165 15 -45 15
-54 1 -93 -26 -73 -51 -101 -93 -101 -21 0 -48 -7 -60 -16 -23 -16 -72 -102
-72 -127 0 -7 -11 -24 -25 -37 -14 -13 -28 -38 -31 -57 -9 -47 37 -138 83
-165 62 -37 68 -88 9 -88 -40 0 -146 25 -213 50 -252 94 -564 327 -908 681
-153 158 -698 805 -693 825 2 5 286 519 632 1140 l629 1131 46 12 c135 35 298
147 342 234 29 57 35 132 15 200 l-17 57 217 288 c120 158 219 296 222 308 2
11 -1 39 -8 62 -12 47 -42 62 -82 41 -12 -6 -138 -125 -279 -264 -244 -240
-362 -345 -375 -332 -4 3 6 28 22 54 27 46 28 56 40 268 18 305 17 360 -2 379
-35 36 -100 13 -191 -65 l-31 -26 -6 -224 c-4 -123 -9 -241 -12 -261 l-5 -36
-71 -12 c-93 -16 -184 -63 -220 -115 -51 -73 -56 -208 -13 -313 l15 -35 -69
-106 c-201 -311 -1154 -1758 -1165 -1769 -11 -11 -24 5 -76 88 -67 109 -105
142 -155 138 -28 -3 -30 -6 -33 -46 -3 -38 3 -51 53 -123 31 -44 61 -94 67
-110 14 -40 3 -83 -20 -77 -10 3 -78 49 -152 104 l-135 98 -67 4 c-57 4 -69 1
-74 -13 -14 -35 23 -82 110 -141 78 -54 107 -86 92 -101 -3 -3 -16 1 -28 9
-13 8 -64 29 -113 47 -72 25 -103 31 -150 29 -55 -3 -60 -5 -64 -28 -2 -14
-10 13 -17 60 -25 167 -92 338 -190 481 l-53 79 149 247 c146 240 151 247 194
264 69 26 182 105 262 185 l73 72 243 7 c158 5 254 12 274 20 53 22 53 84 2
172 l-20 33 -114 0 c-65 0 -148 -7 -194 -16 -44 -9 -91 -13 -105 -10 -29 7
-43 46 -27 79 5 12 117 95 249 185 132 89 246 173 252 186 7 13 11 32 9 42 -5
26 -62 62 -112 69 -42 7 -47 4 -207 -105 -90 -62 -176 -116 -191 -120 -40 -12
-52 7 -38 62 10 36 29 60 118 143 209 194 222 210 222 254 0 49 -29 75 -103
91 l-52 11 -80 -88 c-240 -266 -325 -324 -325 -223 0 36 17 66 150 259 145
211 150 221 150 269 0 43 -5 55 -30 80 -27 27 -96 52 -144 52 -21 0 -381 -655
-396 -720 -20 -87 -48 -155 -75 -180 l-24 -23 -31 33 -30 32 0 225 c0 186 -3
229 -16 256 -25 50 -55 77 -84 77 -32 0 -53 -21 -79 -80 -16 -39 -20 -78 -24
-280 -6 -239 -20 -363 -58 -520 -34 -140 -74 -223 -186 -395 l-107 -163 -51
39 c-152 115 -332 144 -512 83 -166 -56 -356 -197 -508 -376 -38 -46 -131
-144 -206 -220 -209 -210 -334 -375 -424 -563 -90 -185 -127 -339 -128 -530
-1 -200 41 -373 128 -532 l35 -64 -146 -154 c-81 -85 -153 -156 -159 -159 -11
-4 -151 110 -361 294 l-31 27 25 94 c22 82 25 115 26 269 1 157 -1 183 -22
250 -79 253 -275 448 -567 566 -49 20 -93 39 -98 43 -6 6 1003 991 1069 1044
25 19 172 51 282 61 40 3 95 15 122 25 71 27 172 103 227 170 27 32 119 118
205 190 163 136 202 184 196 239 -3 24 -7 27 -43 26 -55 -1 -285 -103 -336
-148 -51 -47 -84 -55 -111 -28 -11 11 -20 31 -20 44 0 12 32 186 71 385 65
330 70 364 59 400 -12 34 -17 38 -51 41 -42 4 -105 -27 -143 -70 -16 -17 -41
-102 -93 -320 l-73 -298 -146 0 -147 0 -42 195 c-51 234 -62 265 -98 265 -29
0 -55 -37 -81 -114 -14 -43 -15 -66 -5 -195 7 -80 14 -155 16 -167 3 -16 -4
-24 -30 -37 -60 -29 -100 -128 -108 -267 l-2 -45 -925 -712 c-509 -391 -942
-731 -964 -755 -204 -227 -230 -484 -67 -669 l38 -44 5 -138 5 -139 -29 -39
c-28 -39 -81 -79 -105 -79 -8 0 -13 14 -13 38 0 69 -50 90 -123 53 -38 -19
-38 -19 -52 2 -37 58 -39 74 -15 114 26 43 31 132 10 158 -16 19 -51 19 -97 0
-20 -8 -37 -14 -39 -13 -1 2 -183 340 -404 752 l-402 749 6 111 c53 871 204
1834 371 2363 16 51 138 783 354 2118 310 1910 351 2152 653 3805 l323 1765
55 55 c99 97 179 289 220 527 13 76 32 143 53 188 22 49 32 89 35 136 4 58 1
68 -21 95 -32 38 -84 54 -171 54 -55 0 -76 -5 -112 -26 l-46 -27 -26 20 c-50
37 -52 47 -52 359 0 317 -5 351 -58 412 -56 65 -115 44 -189 -67 l-43 -63 0
-198 c0 -140 -5 -220 -15 -271 -29 -138 -70 -168 -129 -96 l-31 39 -5 436 c-5
389 -7 443 -23 487 -18 50 -57 96 -80 94 -7 0 -21 -4 -33 -9z m-12408 -11273
c61 -99 74 -150 74 -297 l0 -130 -36 0 -37 0 6 -52 c33 -270 33 -637 2 -938
-59 -571 -202 -1203 -417 -1847 l-71 -213 -37 0 c-20 0 -85 -3 -144 -7 l-107
-6 35 64 c100 182 140 446 95 622 -11 42 -9 47 270 710 155 367 281 672 281
678 0 6 -67 94 -150 195 l-150 184 0 392 0 391 123 126 c67 69 138 149 157
178 l35 52 18 -22 c9 -12 33 -48 53 -80z m970 -1035 c4 -22 1 -40 -10 -57 -32
-49 -48 -34 -125 113 -40 75 -84 145 -97 155 -24 18 -24 21 -23 170 l1 152
124 -250 c68 -137 127 -265 130 -283z m22856 -118 l37 -6 5 -72 c3 -39 8 -208
11 -376 3 -168 8 -314 11 -326 4 -14 -4 -32 -21 -53 -25 -29 -82 -67 -90 -59
-2 2 -8 158 -14 348 -6 190 -14 394 -18 454 l-6 109 24 -6 c13 -4 41 -10 61
-13z m-22954 -289 c135 -404 417 -813 907 -1314 197 -201 386 -374 504 -462
46 -34 121 -99 167 -143 l83 -81 -298 -582 c-263 -513 -314 -605 -433 -785
-137 -206 -285 -409 -355 -486 l-38 -43 -120 25 c-66 14 -178 33 -248 43 -70
11 -127 23 -126 28 3 16 422 416 446 425 11 5 59 14 105 20 96 13 147 39 205
103 21 24 75 74 120 111 79 66 112 113 98 136 -4 7 -19 10 -34 7 -37 -8 -151
-63 -184 -89 -24 -19 -29 -20 -42 -7 -13 13 -10 38 24 216 40 203 42 237 14
247 -16 7 -76 -18 -91 -37 -5 -7 -27 -83 -48 -169 l-38 -158 -76 0 -77 0 -17
83 c-31 145 -35 157 -57 157 -14 0 -26 -13 -39 -42 -16 -37 -17 -55 -10 -128
9 -83 9 -85 -15 -105 -30 -25 -45 -63 -46 -118 0 -41 -3 -44 -88 -109 l-88
-66 42 63 c88 131 109 281 55 389 -22 44 -130 156 -149 156 -5 0 -12 17 -16
37 -17 90 -94 210 -202 314 -93 90 -178 143 -251 158 l-59 11 87 173 c47 95
105 228 128 297 101 305 102 308 102 1245 l0 780 57 -85 c44 -65 67 -115 101
-215z m16907 -587 c121 -54 146 -76 108 -96 -14 -8 -36 -2 -92 24 -80 37 -134
43 -169 18 -26 -18 -28 -44 -7 -84 12 -23 42 -42 129 -84 112 -53 186 -100
186 -117 0 -11 -274 -432 -308 -474 -13 -16 -43 -43 -66 -58 -34 -24 -49 -28
-88 -24 -31 2 -59 13 -82 31 l-35 26 54 113 c112 232 172 463 182 698 l6 146
31 -33 c20 -22 73 -52 151 -86z m-6264 -373 c57 -59 83 -102 173 -272 58 -111
106 -208 106 -216 0 -7 -7 -22 -15 -33 -9 -12 -14 -43 -15 -86 0 -76 -13 -120
-32 -112 -7 3 -33 33 -58 66 -110 150 -188 113 -162 -76 17 -127 61 -314 90
-381 19 -45 27 -82 29 -147 l4 -88 -35 0 c-41 0 -36 13 -61 -190 -19 -148 -67
-441 -99 -595 l-23 -110 -7 240 c-4 132 -12 517 -17 855 -5 338 -13 680 -18
760 -5 80 -12 240 -16 355 l-6 210 48 -55 c26 -30 78 -86 114 -125z m-4256
-556 c227 -627 340 -1206 307 -1575 -20 -228 -52 -317 -188 -524 -90 -139
-281 -518 -364 -725 -33 -82 -92 -248 -131 -368 -40 -119 -73 -216 -74 -215
-1 2 -71 180 -154 396 -105 270 -155 414 -162 460 -16 109 -16 110 -47 114
l-27 3 -3 187 -2 187 53 103 c147 285 208 540 163 676 -33 99 -83 129 -125 76
-27 -35 -38 -79 -45 -194 -7 -96 -20 -126 -51 -114 -29 11 -35 57 -35 253 l0
198 -37 56 c-20 30 -47 61 -61 68 -21 12 -26 11 -42 -8 -9 -12 -20 -40 -24
-63 -9 -54 -36 -121 -47 -114 -5 3 -9 22 -9 42 0 20 -6 59 -13 86 l-13 50 131
130 c251 251 436 514 582 831 74 161 151 410 169 543 l7 54 89 -219 c49 -120
118 -297 153 -394z m11573 -246 c244 -270 370 -416 390 -454 98 -187 249 -342
424 -437 31 -17 218 -160 415 -318 197 -158 360 -289 362 -290 2 -2 -28 -41
-67 -87 -197 -232 -454 -383 -731 -431 -123 -21 -165 -21 -157 -1 3 9 11 57
17 108 12 98 6 201 -16 272 -11 38 -11 46 2 56 8 7 26 32 40 56 28 48 28 100
-1 132 -8 9 -17 48 -21 86 -27 271 -115 522 -235 672 -62 77 -170 154 -258
185 -56 19 -87 23 -187 22 -104 0 -129 -3 -187 -26 -189 -72 -341 -216 -448
-424 -48 -94 -102 -254 -126 -379 -12 -58 -26 -100 -41 -118 -31 -38 -32 -133
-2 -210 l21 -54 -26 -52 c-34 -66 -59 -174 -50 -215 4 -17 17 -44 29 -61 31
-42 37 -68 21 -90 -13 -18 -20 -19 -197 -6 -101 7 -200 15 -220 18 l-36 5 14
86 c74 475 240 1033 448 1507 55 125 443 844 456 845 4 0 169 -179 367 -397z
m-22545 -360 c9 -14 -10 -23 -322 -160 -227 -99 -286 -115 -326 -89 -24 16
-27 23 -22 53 4 20 20 59 38 88 l32 52 62 5 c133 11 265 111 335 254 l35 70
80 -131 c44 -71 84 -135 88 -142z m16008 -271 l76 -147 -106 -312 c-58 -172
-108 -313 -111 -313 -3 1 -40 44 -82 98 l-78 97 0 236 0 236 73 74 c40 41 88
98 106 127 19 28 37 52 40 52 3 0 40 -67 82 -148z m-9227 -345 c95 -165 114
-209 141 -330 29 -132 78 -292 137 -449 l40 -107 -297 -453 c-163 -249 -308
-463 -322 -476 l-25 -23 -37 33 -37 33 23 50 c51 114 75 224 77 345 2 168 -29
269 -120 397 l-46 64 61 142 c75 179 133 353 175 527 41 168 141 392 161 363
7 -10 38 -62 69 -116z m-17390 -153 c113 -48 151 -70 212 -122 72 -61 232
-236 255 -278 10 -19 1 -36 -70 -143 -287 -428 -627 -804 -782 -862 -75 -29
-167 -36 -210 -15 l-34 16 6 112 c5 101 9 122 43 201 20 48 48 129 61 180 23
90 49 305 43 350 -2 16 14 42 52 85 104 117 170 256 170 356 0 100 -59 208
-147 269 -23 16 -43 36 -46 45 -3 13 38 -3 152 -59 86 -42 218 -103 295 -135z
m26381 -675 c-33 -169 -54 -363 -59 -554 l-5 -160 -162 -77 c-89 -43 -164 -77
-165 -75 -2 2 71 180 162 397 91 217 184 441 207 497 23 56 43 100 44 99 2 -1
-8 -58 -22 -127z m8748 39 c76 -52 205 -169 270 -243 230 -266 367 -598 398
-965 9 -106 9 -148 -1 -194 -12 -56 -18 -65 -142 -195 -72 -74 -169 -182 -217
-239 l-86 -104 -84 7 c-251 19 -693 110 -1008 207 l-103 31 0 33 c0 51 28 370
51 569 15 134 24 182 35 188 34 19 153 103 199 140 238 194 440 427 587 679
35 59 65 108 66 108 2 0 18 -10 35 -22z m-31603 -399 c59 -115 119 -266 154
-389 14 -49 26 -92 26 -97 0 -11 -128 117 -212 210 -58 65 -68 83 -64 105 3
15 8 90 12 167 7 160 4 160 84 4z m14563 -404 c84 -125 210 -293 304 -402 132
-154 256 -382 296 -542 9 -36 15 -66 13 -68 -13 -13 -600 148 -878 241 -351
117 -432 157 -453 218 -4 11 76 166 226 435 127 230 240 433 251 451 l20 32
80 -137 c45 -76 108 -178 141 -228z m-6513 76 c16 -79 30 -147 30 -151 0 -5
-11 -11 -24 -14 -13 -3 -31 -9 -40 -12 -14 -5 -16 11 -16 149 0 86 3 163 7
173 8 22 6 29 43 -145z m-4341 -1001 c42 -86 101 -216 130 -290 60 -152 134
-370 127 -377 -6 -6 -304 12 -311 19 -3 3 -28 79 -55 169 -27 90 -61 191 -76
224 -49 104 -44 298 13 494 l15 54 40 -69 c23 -38 75 -139 117 -224z"/>
</g>
</svg>
