<?xml version="1.0" standalone="no"?>
<!DOCTYPE svg PUBLIC "-//W3C//DTD SVG 20010904//EN"
 "http://www.w3.org/TR/2001/REC-SVG-20010904/DTD/svg10.dtd">
<svg version="1.0" xmlns="http://www.w3.org/2000/svg"
 width="2259.000000pt" height="3171.000000pt" viewBox="0 0 2259.000000 3171.000000"
 preserveAspectRatio="xMidYMid meet">
<metadata>
Created by potrace 1.16, written by Peter Selinger 2001-2019
</metadata>
<g transform="translate(0.000000,3171.000000) scale(0.100000,-0.100000)"
fill="#ffffff" stroke="none">
<path d="M15953 31685 c-58 -35 -86 -96 -91 -201 -6 -121 26 -225 141 -456
l94 -187 -104 -36 c-389 -134 -916 -361 -1402 -604 -555 -278 -1142 -660
-1636 -1066 -840 -688 -1501 -1539 -1935 -2489 -118 -257 -178 -406 -260 -646
l-68 -195 -48 -7 c-27 -3 -130 -11 -229 -17 -238 -15 -390 -33 -685 -82 -491
-81 -863 -182 -1325 -359 -770 -295 -1505 -763 -2135 -1358 -165 -156 -366
-367 -470 -493 l-71 -86 -57 -7 c-334 -39 -768 -233 -1074 -479 -325 -261
-603 -639 -779 -1058 l-53 -125 -65 20 c-55 17 -94 20 -241 20 -169 0 -179 -2
-280 -33 -287 -88 -471 -241 -605 -502 -30 -58 -66 -146 -81 -195 -25 -81 -28
-103 -28 -249 0 -141 3 -171 26 -257 67 -246 203 -438 405 -572 l72 -48 -21
-52 c-36 -92 -158 -458 -198 -596 -126 -438 -218 -931 -251 -1350 -16 -201
-16 -723 0 -915 16 -204 53 -463 97 -682 l36 -182 -62 -137 c-82 -179 -355
-751 -520 -1088 -340 -694 -656 -1763 -780 -2635 -196 -1391 -37 -2537 502
-3616 576 -1153 1604 -2104 3068 -2839 524 -264 829 -393 1485 -630 182 -66
577 -179 823 -236 68 -16 125 -30 126 -32 1 -2 -212 -804 -475 -1783 -263
-979 -480 -1789 -483 -1801 -5 -20 -9 -20 -168 23 -547 148 -917 213 -1209
213 -239 0 -372 -35 -468 -125 -154 -144 -128 -422 58 -618 179 -188 467 -325
951 -451 492 -129 927 -175 1133 -121 162 42 256 142 265 281 10 142 -86 343
-272 572 l-63 78 491 1831 c270 1007 494 1835 498 1838 4 4 40 0 80 -9 196
-42 589 -106 878 -141 1046 -128 2111 -106 3255 66 181 27 558 90 628 105 l27
6 0 -1914 0 -1915 -102 -76 c-324 -238 -440 -425 -379 -609 48 -144 177 -229
446 -294 277 -66 861 -103 1185 -73 529 48 804 172 916 415 62 133 64 232 7
336 -130 238 -551 344 -1420 355 l-393 6 0 1913 0 1914 23 5 c471 107 688 168
1137 320 708 240 1456 594 1995 943 430 279 812 593 1108 910 766 820 1183
1688 1361 2834 42 269 57 468 63 873 9 601 -17 932 -122 1541 -60 349 -176
868 -269 1206 l-45 166 54 115 c121 257 260 643 335 932 186 710 246 1455 185
2270 -8 105 -15 197 -15 206 0 12 15 20 48 28 79 20 245 107 326 170 157 126
286 322 340 521 69 250 16 577 -132 805 -24 39 -78 104 -118 145 l-73 76 19
74 c213 815 108 1807 -263 2500 -154 288 -285 470 -485 674 -239 243 -472 392
-750 480 -117 37 -290 66 -390 66 -46 0 -77 9 -154 43 l-96 42 -87 129 c-348
520 -820 1010 -1376 1430 -682 517 -1388 865 -2232 1101 -434 121 -1010 212
-1535 241 -119 6 -122 7 -116 28 293 959 706 1664 1340 2286 584 573 1281 992
2187 1314 597 212 1395 390 2092 466 118 13 183 32 246 71 129 81 167 255 100
460 -82 252 -315 606 -685 1038 -84 98 -94 106 -180 147 -50 23 -132 57 -182
73 -81 27 -105 31 -205 31 -104 0 -118 -2 -156 -25z m-4193 -6159 c959 -92
1734 -317 2520 -732 658 -347 1275 -835 1760 -1389 103 -117 259 -312 295
-368 l18 -28 -124 7 c-238 12 -490 -28 -761 -122 l-100 -35 -167 163 c-1020
1002 -2234 1618 -3631 1842 -475 77 -665 91 -1240 91 -510 0 -674 -8 -990 -46
-629 -75 -1144 -203 -1740 -432 -174 -67 -586 -261 -715 -336 -81 -48 -125
-71 -125 -68 0 16 336 272 518 394 952 640 2065 1004 3277 1073 228 13 1015 4
1205 -14z m-715 -845 c1388 -137 2559 -617 3570 -1461 136 -114 404 -360 495
-454 39 -41 43 -49 29 -56 -110 -63 -344 -281 -471 -440 -408 -512 -631 -1072
-703 -1765 -22 -210 -22 -620 -1 -845 57 -580 226 -1097 505 -1543 329 -526
740 -886 1176 -1031 255 -85 564 -116 816 -80 l45 6 18 -103 c22 -129 93 -414
141 -574 20 -66 85 -230 145 -365 222 -504 317 -735 467 -1135 159 -423 217
-588 288 -819 l74 -240 -51 -95 c-135 -250 -329 -551 -504 -782 -97 -128 -104
-140 -104 -183 0 -39 6 -52 34 -84 30 -32 40 -37 79 -37 30 0 55 7 74 21 65
48 362 464 513 718 36 59 55 84 60 75 23 -43 152 -623 215 -963 113 -620 152
-1063 142 -1606 -7 -349 -17 -490 -53 -750 -113 -828 -366 -1516 -787 -2139
-775 -1148 -2071 -1996 -3919 -2565 -312 -96 -612 -170 -1033 -255 -316 -63
-806 -137 -1175 -175 -491 -52 -656 -60 -1240 -60 -651 -1 -896 12 -1395 75
-353 44 -881 134 -1015 174 -25 7 -84 20 -132 29 -246 48 -811 211 -1122 326
-491 181 -750 292 -1201 515 -1115 552 -1964 1220 -2566 2018 -381 504 -676
1115 -834 1722 -195 754 -230 1529 -109 2445 106 809 448 1979 759 2600 506
1010 1171 2518 1525 3455 178 473 274 759 396 1180 310 1072 776 2111 1297
2889 223 335 362 517 584 768 238 267 544 557 778 734 143 109 486 282 815
411 586 231 1189 376 1825 439 290 28 405 32 880 29 374 -3 499 -7 670 -24z
m-5401 -1690 c4 -5 -44 -76 -105 -158 -453 -603 -856 -1349 -1204 -2223 -51
-129 -104 -265 -117 -302 -12 -38 -27 -68 -32 -68 -12 0 1 302 20 452 30 244
100 524 186 744 55 143 236 501 318 632 229 364 501 651 826 871 94 64 100 66
108 52z m-629 -153 c-241 -232 -430 -479 -606 -793 -257 -459 -403 -894 -453
-1345 -29 -269 -30 -428 -1 -757 5 -58 5 -58 -30 47 -41 121 -79 299 -96 449
-17 153 -7 494 20 644 123 691 470 1298 955 1667 75 57 330 220 344 220 3 0
-57 -59 -133 -132z m11339 -103 c15 -6 7 -12 -40 -30 -377 -142 -747 -502
-1027 -1000 -191 -339 -320 -785 -358 -1233 -15 -176 -6 -637 15 -802 41 -324
119 -625 231 -895 242 -584 691 -1102 1138 -1310 103 -48 249 -96 350 -116 37
-7 64 -16 60 -19 -11 -10 -186 -57 -257 -69 -175 -31 -391 -22 -591 24 -423
99 -783 369 -1106 830 -318 454 -502 985 -559 1615 -15 164 -15 583 0 735 27
279 89 560 176 803 103 288 301 634 498 868 276 329 623 542 976 599 91 15
459 15 494 0z m753 -191 c614 -91 1179 -667 1460 -1489 160 -469 210 -1063
133 -1570 -25 -159 -61 -325 -71 -325 -4 0 -48 13 -97 30 -189 63 -398 63
-598 -1 -287 -91 -481 -260 -609 -533 -24 -50 -51 -120 -60 -156 -66 -258 -15
-574 130 -793 l44 -68 -27 -10 c-130 -50 -366 -77 -519 -60 -481 54 -848 290
-1189 766 -273 380 -442 832 -511 1360 -26 200 -26 737 0 910 82 544 261 974
565 1355 366 458 834 661 1349 584z m-13556 -1023 c31 -5 74 -14 96 -20 l39
-11 -33 -130 c-94 -376 -107 -777 -38 -1155 13 -71 23 -131 21 -132 -2 -2 -41
-11 -87 -19 -218 -42 -434 33 -615 211 -79 78 -98 103 -137 185 -100 208 -112
393 -37 587 60 156 180 307 304 382 143 86 337 126 487 102z m183 -1768 c30
-83 119 -272 158 -338 l24 -40 -49 -160 c-103 -340 -299 -875 -519 -1425 -101
-251 -422 -1005 -488 -1145 l-43 -90 -13 79 c-81 498 -83 1112 -3 1661 45 312
137 717 234 1030 49 157 159 473 169 482 3 3 40 0 81 -7 90 -15 285 -8 360 13
28 8 52 15 55 16 3 0 18 -34 34 -76z m14649 -779 c222 -50 416 -206 508 -410
225 -496 -126 -1053 -666 -1058 -125 -1 -196 17 -335 86 -90 44 -117 64 -191
137 -71 71 -94 102 -132 181 -57 115 -79 212 -79 345 -1 124 18 198 82 331 78
162 201 275 372 344 148 59 305 74 441 44z m-684 -1569 c146 -88 295 -140 439
-152 39 -3 72 -10 72 -15 0 -5 7 -96 16 -201 24 -275 24 -887 1 -1137 -57
-606 -176 -1123 -372 -1623 l-58 -147 -52 157 c-72 217 -272 760 -360 978 -74
181 -279 662 -375 875 -52 118 -108 286 -160 487 -31 120 -90 402 -90 431 0
13 13 21 47 30 70 19 277 121 374 184 69 45 101 59 179 77 52 12 136 37 185
56 50 18 92 34 94 34 2 1 29 -15 60 -34z m-12568 -16085 c239 -24 564 -90 904
-183 50 -14 135 -37 190 -52 114 -31 118 -35 247 -203 130 -172 179 -301 130
-345 -28 -25 -128 -47 -217 -47 -204 0 -597 71 -950 170 -509 145 -781 326
-802 536 -5 44 -2 58 12 74 18 20 89 45 150 53 63 8 237 7 336 -3z m8384 -469
c50 -6 131 -16 180 -22 251 -29 489 -106 544 -175 26 -34 26 -59 0 -109 -89
-169 -330 -257 -783 -287 -264 -17 -750 13 -993 62 -184 37 -303 97 -303 152
0 68 116 190 320 338 l85 61 430 -4 c237 -3 471 -10 520 -16z"/>
<path d="M5471 18857 c-66 -33 -84 -125 -84 -432 1 -334 53 -573 184 -838 73
-148 133 -233 228 -327 99 -98 166 -140 288 -183 75 -25 107 -31 213 -35 107
-4 137 -1 205 17 415 113 787 593 937 1210 29 121 29 124 13 167 -20 53 -54
74 -119 74 -70 0 -101 -32 -122 -128 -49 -225 -162 -496 -281 -677 -84 -126
-232 -276 -328 -332 -222 -130 -457 -105 -634 67 -235 230 -366 677 -332 1133
16 221 16 220 -23 261 -28 31 -40 36 -77 36 -24 0 -55 -6 -68 -13z"/>
<path d="M11422 18038 c-12 -6 -32 -27 -44 -47 -21 -34 -23 -46 -22 -236 2
-346 52 -573 189 -847 130 -261 301 -427 512 -495 107 -35 291 -43 396 -19 91
22 232 91 319 156 167 126 362 375 473 603 86 179 175 443 175 520 0 36 -23
81 -52 101 -28 20 -100 21 -137 1 -28 -14 -61 -68 -61 -99 0 -36 -94 -299
-146 -406 -80 -167 -172 -298 -289 -415 -145 -145 -271 -213 -415 -222 -141
-10 -266 36 -376 140 -112 104 -197 251 -264 457 -59 180 -74 282 -75 530 -2
234 -6 253 -61 278 -31 15 -91 14 -122 0z"/>
<path d="M7819 14802 c-39 -34 -47 -80 -48 -253 -2 -308 57 -581 181 -836 175
-362 396 -531 718 -550 224 -13 429 72 628 261 202 192 373 474 476 786 64
193 74 250 53 294 -45 96 -180 98 -222 4 -7 -18 -26 -76 -40 -128 -119 -437
-390 -814 -665 -926 -286 -116 -549 13 -719 355 -118 234 -165 465 -161 771 4
195 6 180 -31 218 -28 28 -38 32 -85 32 -45 0 -59 -5 -85 -28z"/>
<path d="M4130 27130 l0 -680 -37 16 c-120 53 -327 77 -470 55 -78 -12 -187
-43 -227 -65 -129 -70 -196 -153 -196 -241 0 -80 16 -118 72 -174 63 -64 182
-124 288 -148 100 -22 300 -22 399 0 157 35 327 149 351 235 6 24 10 332 10
860 l0 822 -95 0 -95 0 0 -680z"/>
<path d="M19540 24935 c0 -428 -4 -695 -9 -695 -6 0 -13 4 -16 10 -11 18 -99
51 -185 71 -180 40 -421 18 -567 -52 -93 -44 -176 -130 -193 -198 -12 -51 -7
-118 12 -156 17 -33 102 -110 154 -139 108 -61 186 -79 354 -84 188 -5 267 9
390 69 106 52 182 125 199 192 8 32 11 247 11 722 l0 677 68 -38 c142 -79 220
-136 309 -224 134 -134 202 -274 204 -423 0 -46 2 -49 11 -27 6 15 8 79 5 165
-11 302 -109 492 -352 683 -39 30 -84 57 -162 97 -82 41 -97 45 -162 45 l-71
0 0 -695z"/>
<path d="M4401 25353 c-24 -10 -61 -55 -67 -82 -3 -14 -7 -31 -9 -38 -9 -30
76 -408 125 -553 53 -159 80 -196 148 -206 59 -9 104 15 136 72 22 40 23 49
16 111 -16 126 -69 351 -115 488 -41 121 -78 188 -113 204 -24 11 -97 14 -121
4z"/>
<path d="M18544 23480 c-73 -29 -207 -231 -341 -510 -25 -52 -49 -103 -54
-112 -25 -50 1 -153 46 -179 63 -37 143 -18 186 43 13 18 29 39 36 46 52 53
303 522 303 565 0 13 -7 45 -16 71 -14 40 -23 51 -58 67 -45 20 -69 22 -102 9z"/>
<path d="M2935 2146 c-307 -325 -408 -709 -280 -1066 73 -203 286 -500 370
-516 76 -14 148 33 160 104 8 51 -4 78 -66 148 -201 228 -284 483 -233 717 23
109 110 275 199 382 41 50 82 105 91 124 22 47 11 96 -31 138 -30 30 -39 33
-91 33 l-59 0 -60 -64z"/>
<path d="M3548 1865 c-33 -19 -120 -147 -146 -218 -84 -224 -28 -471 171 -749
77 -107 190 -237 229 -262 45 -29 123 -18 160 23 23 26 28 40 28 86 0 52 -2
57 -57 117 -189 211 -281 382 -290 544 -6 106 7 159 62 245 41 65 46 123 15
174 -32 52 -115 71 -172 40z"/>
</g>
</svg>
