<?xml version="1.0" standalone="no"?>
<!DOCTYPE svg PUBLIC "-//W3C//DTD SVG 20010904//EN"
 "http://www.w3.org/TR/2001/REC-SVG-20010904/DTD/svg10.dtd">
<svg version="1.0" xmlns="http://www.w3.org/2000/svg"
 width="232.000000pt" height="210.000000pt" viewBox="0 0 232.000000 210.000000"
 preserveAspectRatio="xMidYMid meet">
<metadata>
Created by potrace 1.16, written by Peter Selinger 2001-2019
</metadata>
<g transform="translate(0.000000,210.000000) scale(0.100000,-0.100000)"
fill="#000000" stroke="none">
<path d="M940 1869 c-132 -22 -286 -133 -340 -244 -34 -70 -35 -207 -3 -278
29 -63 122 -153 199 -194 188 -100 388 -81 578 54 l49 35 -45 -84 c-25 -45
-94 -178 -153 -295 l-107 -212 -26 51 c-79 159 -285 260 -472 231 -149 -23
-266 -106 -327 -231 -36 -72 -38 -81 -38 -171 0 -83 4 -104 27 -154 80 -170
285 -278 475 -248 138 21 283 124 343 243 16 34 30 68 30 76 0 7 8 26 18 40
36 52 412 692 412 701 0 5 4 11 8 13 17 7 350 565 341 571 -15 11 -180 79
-183 76 -2 -2 -49 -92 -104 -199 l-100 -195 -5 57 c-13 148 -138 286 -303 338
-75 23 -201 32 -274 19z m143 -76 c18 -11 3 -21 -40 -28 -58 -8 -121 -35 -167
-70 -66 -50 -127 -174 -142 -286 -4 -27 -10 -49 -14 -49 -4 0 -15 16 -25 36
-23 49 -16 105 23 188 40 85 109 158 185 196 54 27 68 30 117 24 30 -3 58 -8
63 -11z m-425 -1022 c-32 -36 -72 -98 -102 -158 -47 -94 -80 -143 -98 -143
-16 0 -8 124 12 168 35 76 172 192 228 192 8 0 -10 -27 -40 -59z"/>
</g>
</svg>
