<?xml version="1.0" standalone="no"?>
<!DOCTYPE svg PUBLIC "-//W3C//DTD SVG 20010904//EN"
 "http://www.w3.org/TR/2001/REC-SVG-20010904/DTD/svg10.dtd">
<svg version="1.0" xmlns="http://www.w3.org/2000/svg"
 width="394.000000pt" height="810.000000pt" viewBox="0 0 394.000000 810.000000"
 preserveAspectRatio="xMidYMid meet">
<metadata>
Created by potrace 1.16, written by Peter Selinger 2001-2019
</metadata>
<g transform="translate(0.000000,810.000000) scale(0.100000,-0.100000)"
fill="#ffffff" stroke="none">
<path d="M1907 7930 c-345 -42 -633 -298 -729 -645 -20 -76 -22 -105 -26 -522
l-4 -443 -37 0 c-97 0 -214 -81 -261 -179 l-23 -51 -109 0 -108 0 0 547 0 546
-25 42 c-59 101 -205 102 -279 2 l-21 -28 -3 -1262 c-3 -1304 -1 -1378 38
-1565 95 -451 387 -862 790 -1113 204 -126 408 -198 698 -245 l32 -5 0 -1174
0 -1175 -519 0 -518 0 -33 -22 c-58 -40 -75 -72 -75 -141 0 -71 24 -115 78
-145 30 -16 112 -17 1237 -17 1187 0 1205 0 1238 20 43 26 71 71 78 126 7 56
-26 124 -75 156 l-34 23 -523 0 -524 0 0 1173 0 1173 128 21 c444 74 848 322
1116 686 181 247 288 521 326 837 6 53 10 549 10 1354 0 1253 0 1270 -20 1310
-32 64 -62 81 -147 81 -66 0 -74 -2 -104 -30 -60 -57 -59 -44 -59 -635 l0
-540 -108 0 -108 0 -23 50 c-45 100 -161 180 -261 180 l-39 0 -3 443 c-5 508
-6 518 -98 704 -105 212 -316 383 -550 442 -92 23 -232 32 -323 21z m-359
-566 c52 -36 48 -110 -9 -139 -39 -21 -53 -19 -88 11 -80 67 12 188 97 128z
m513 3 c46 -35 50 -88 9 -129 -26 -25 -36 -29 -63 -24 -38 7 -77 48 -77 81 0
38 46 85 83 85 18 0 39 -6 48 -13z m524 -12 c37 -36 34 -86 -6 -119 -17 -14
-37 -26 -45 -26 -29 0 -71 29 -83 58 -33 80 73 149 134 87z m-1029 -419 c57
-48 20 -146 -55 -146 -41 0 -81 41 -81 82 1 76 80 113 136 64z m515 -5 c17
-18 29 -40 29 -56 0 -35 -50 -85 -85 -85 -35 0 -85 50 -85 85 0 35 50 85 85
85 16 0 38 -12 56 -29z m498 14 c49 -25 57 -90 16 -130 -64 -65 -172 13 -130
95 26 50 63 62 114 35z m-1034 -417 c27 -12 55 -54 55 -82 0 -8 -12 -28 -26
-45 -67 -80 -188 12 -128 97 14 21 45 39 66 41 4 1 19 -4 33 -11z m543 -24
c29 -33 28 -74 -3 -108 -63 -68 -179 12 -134 93 31 55 95 62 137 15z m510 4
c50 -48 11 -138 -61 -138 -57 0 -99 63 -75 115 25 55 89 66 136 23z m107 -478
c23 -26 13 -68 -21 -80 -39 -15 -1286 -13 -1319 2 -33 15 -43 53 -20 78 18 19
35 20 680 20 645 0 662 -1 680 -20z m-1841 -164 c46 -94 142 -163 242 -173
l54 -6 0 -391 c0 -215 5 -429 10 -475 69 -545 611 -886 1134 -714 265 88 477
316 557 599 21 75 23 101 27 530 l4 451 52 6 c103 10 207 88 250 185 l19 42
109 0 109 0 -4 -682 c-3 -665 -4 -686 -26 -783 -60 -264 -179 -488 -364 -682
-163 -170 -357 -293 -578 -367 -149 -50 -269 -69 -434 -69 -165 0 -285 19
-434 69 -419 140 -757 476 -897 890 -68 203 -67 190 -71 942 l-4 682 109 0
110 0 26 -54z m720 -78 c14 -20 16 -85 16 -513 0 -533 0 -535 -55 -535 -56 0
-55 -13 -55 532 0 453 2 503 17 520 22 25 59 23 77 -4z m960 6 c14 -14 16 -75
16 -519 0 -548 1 -535 -55 -535 -55 0 -55 2 -55 535 0 428 2 493 16 513 18 26
56 29 78 6z m-482 -241 c17 -15 18 -48 18 -638 0 -644 0 -651 -40 -655 -27 -4
-38 0 -54 16 -14 14 -16 85 -16 632 0 543 2 620 16 640 18 26 50 28 76 5z"/>
</g>
</svg>
