<?xml version="1.0" standalone="no"?>
<!DOCTYPE svg PUBLIC "-//W3C//DTD SVG 20010904//EN"
 "http://www.w3.org/TR/2001/REC-SVG-20010904/DTD/svg10.dtd">
<svg version="1.0" xmlns="http://www.w3.org/2000/svg"
 width="386.000000pt" height="255.000000pt" viewBox="0 0 386.000000 255.000000"
 preserveAspectRatio="xMidYMid meet">
<metadata>
Created by potrace 1.16, written by Peter Selinger 2001-2019
</metadata>
<g transform="translate(0.000000,255.000000) scale(0.100000,-0.100000)"
fill="#ffffff" stroke="none">
<path d="M1544 2283 c-12 -2 -34 -18 -50 -34 l-29 -30 -3 -1050 c-3 -1175 -7
-1096 69 -1137 41 -22 41 -22 778 -22 802 0 767 -2 822 56 l24 26 2 1051 c2
823 0 1057 -10 1076 -6 13 -25 34 -40 45 -28 21 -33 21 -785 22 -416 1 -767 0
-778 -3z m1496 -62 c0 -5 9 -12 19 -16 10 -3 24 -18 30 -33 8 -19 11 -308 9
-1039 -3 -956 -4 -1013 -21 -1030 -17 -17 -61 -18 -768 -18 l-751 0 -19 24
c-18 23 -19 54 -19 1040 0 559 4 1022 9 1029 4 8 21 22 37 32 28 18 66 19 752
19 440 1 722 -3 722 -8z"/>
<path d="M1630 2193 c-30 -6 -71 -37 -87 -66 -17 -31 -18 -1914 -1 -1951 6
-14 30 -35 53 -46 40 -19 60 -20 709 -20 729 0 734 0 767 54 18 30 19 72 19
984 0 1046 4 980 -58 1027 -26 20 -44 20 -702 21 -371 1 -686 -1 -700 -3z
m1373 -82 c9 -7 14 -17 11 -22 -3 -5 0 -9 5 -9 8 0 11 -281 11 -925 0 -610 -3
-925 -10 -925 -6 0 -9 -5 -8 -11 2 -6 -10 -20 -27 -29 -28 -17 -71 -19 -680
-19 -626 -1 -651 0 -675 19 l-25 19 -5 935 c-3 515 -2 936 1 936 4 0 9 9 12
19 3 12 16 21 33 24 16 2 324 4 685 3 538 -1 659 -3 672 -15z"/>
<path d="M2210 2085 c-70 -20 -127 -54 -167 -99 -17 -20 -28 -36 -25 -36 4 0
-1 -7 -10 -14 -10 -7 -28 -35 -40 -62 -19 -41 -23 -66 -23 -154 0 -110 18
-180 53 -207 9 -7 14 -13 11 -13 -4 0 20 -27 53 -60 46 -46 73 -64 115 -77
l55 -17 -57 -13 c-121 -28 -254 -121 -324 -228 -14 -22 -30 -43 -36 -47 -7 -5
-7 -8 0 -8 6 0 4 -4 -3 -9 -44 -27 -76 -253 -53 -373 15 -77 32 -128 44 -128
4 0 5 -4 2 -10 -3 -5 -1 -10 5 -10 6 0 9 -4 6 -9 -4 -5 -3 -11 1 -13 11 -5 63
-75 63 -85 0 -33 171 -144 260 -169 30 -9 63 -20 72 -25 23 -12 193 -12 216 0
9 5 37 14 61 21 104 28 271 136 271 176 0 7 9 19 20 26 11 7 20 18 20 25 0 7
4 13 9 13 13 0 57 109 71 177 24 121 -8 360 -55 407 -8 8 -15 19 -15 24 0 6
-7 13 -16 16 -9 4 -15 9 -12 11 2 3 -23 34 -56 70 -67 71 -162 125 -265 150
-31 7 -47 14 -36 14 69 4 207 120 248 209 18 39 22 66 22 162 0 112 -1 117
-34 178 -41 75 -104 135 -176 168 -70 32 -196 41 -275 19z m210 -94 c28 -11
67 -31 86 -46 36 -28 94 -118 94 -147 0 -10 3 -18 8 -18 4 0 7 -27 7 -60 0
-33 -3 -60 -6 -60 -4 0 -12 -20 -19 -45 -17 -60 -78 -128 -146 -161 -49 -24
-63 -26 -138 -22 -67 3 -92 9 -129 31 -167 98 -196 331 -57 466 78 75 199 100
300 62z m66 -721 c115 -40 237 -147 287 -254 15 -31 27 -61 27 -66 0 -6 5 -10
11 -10 5 0 7 -5 3 -11 -3 -6 0 -15 7 -20 11 -6 14 -36 14 -124 0 -88 -3 -118
-14 -124 -7 -5 -10 -14 -7 -20 4 -6 2 -11 -3 -11 -6 0 -11 -6 -11 -13 0 -32
-64 -137 -117 -193 -153 -159 -391 -200 -588 -101 -82 41 -188 145 -225 221
-79 162 -78 312 2 483 56 119 217 237 358 263 66 13 189 3 256 -20z"/>
<path d="M2250 1936 c-78 -29 -89 -36 -113 -68 -71 -94 -59 -253 23 -318 54
-43 101 -60 164 -60 138 0 226 93 226 238 0 101 -58 181 -152 209 -54 16 -103
16 -148 -1z m141 -123 c55 -47 71 -119 32 -150 -8 -6 -14 -15 -13 -19 3 -11
-60 -44 -82 -44 -10 0 -35 8 -57 17 -28 12 -42 26 -51 52 -7 20 -18 39 -24 43
-8 6 -8 8 0 8 7 0 15 15 18 34 15 80 113 112 177 59z"/>
<path d="M2245 1244 c-87 -22 -153 -46 -166 -61 -9 -10 -39 -36 -68 -58 -28
-22 -63 -57 -77 -79 -87 -131 -97 -344 -22 -487 34 -65 124 -157 185 -189 132
-68 337 -66 459 5 99 58 194 187 210 284 4 22 10 41 15 41 11 0 12 167 1 172
-4 2 -16 30 -26 63 -10 33 -29 79 -42 101 -25 45 -118 134 -139 134 -7 0 -15
6 -18 14 -14 37 -236 79 -312 60z m177 -166 c45 -13 130 -76 143 -106 5 -12
13 -22 17 -22 5 0 8 -7 8 -15 0 -8 5 -15 11 -15 5 0 7 -4 4 -10 -3 -5 -1 -10
5 -10 6 0 8 -5 4 -11 -3 -6 0 -15 7 -20 10 -6 14 -30 14 -84 0 -54 -4 -78 -14
-84 -7 -5 -10 -14 -7 -20 4 -6 2 -11 -4 -11 -6 0 -8 -4 -5 -10 3 -5 2 -10 -4
-10 -5 0 -13 -10 -16 -22 -11 -35 -74 -97 -130 -126 -43 -23 -62 -27 -135 -26
-72 0 -93 4 -136 26 -62 32 -102 77 -140 154 -36 75 -39 175 -6 242 79 164
216 228 384 180z"/>
<path d="M2250 981 c0 -5 -10 -13 -22 -16 -29 -9 -76 -52 -92 -85 -21 -40 -26
-99 -14 -153 18 -86 108 -157 198 -157 73 0 153 49 187 114 10 19 17 57 17 96
1 84 -28 139 -96 180 -41 25 -59 30 -113 30 -36 0 -65 -4 -65 -9z"/>
<path d="M253 1605 c-18 -8 -42 -29 -53 -47 -20 -32 -20 -45 -18 -758 l3 -725
39 -37 39 -38 532 0 532 0 31 29 c16 16 28 32 24 35 -3 3 0 6 6 6 9 0 12 182
12 735 0 553 -3 735 -12 735 -6 0 -9 3 -6 6 9 9 -36 52 -66 64 -18 6 -205 10
-529 10 -408 -1 -508 -3 -534 -15z m1068 -74 c10 -13 19 -32 19 -42 0 -16 -5
-13 -29 13 l-29 33 -471 3 c-524 3 -529 2 -556 -60 l-14 -33 -1 28 c0 19 10
39 30 58 l29 30 501 -3 502 -3 19 -24z m-50 -60 l29 -29 0 -635 c0 -627 0
-635 -21 -661 l-20 -26 -465 0 c-526 0 -496 -5 -509 82 -3 24 -5 313 -3 644 3
644 2 624 53 644 11 5 219 9 463 9 l444 1 29 -29z m-994 -1365 l26 -26 486 0
c526 0 519 -1 541 54 8 19 9 19 9 -6 1 -16 -8 -37 -19 -48 -19 -19 -33 -20
-529 -20 l-510 0 -20 26 c-12 16 -20 40 -20 58 1 22 3 25 6 9 2 -12 16 -33 30
-47z"/>
<path d="M685 1456 c-55 -25 -119 -90 -141 -142 -23 -54 -18 -170 10 -229 24
-53 80 -109 129 -130 l30 -12 -39 -13 c-107 -35 -179 -94 -225 -182 -13 -27
-28 -48 -33 -48 -4 0 -6 -6 -3 -14 3 -8 1 -16 -5 -18 -15 -5 -24 -198 -10
-198 6 0 9 -7 6 -15 -10 -26 56 -145 111 -200 29 -29 79 -66 112 -81 54 -27
67 -29 173 -29 106 0 120 2 172 28 31 15 81 52 110 81 56 55 124 176 114 201
-3 8 0 15 6 15 14 0 5 193 -10 198 -6 2 -8 10 -5 18 3 8 1 14 -3 14 -5 0 -20
21 -33 48 -46 88 -118 147 -225 182 l-39 13 30 12 c94 39 153 137 153 253 0
85 -14 124 -67 182 -53 60 -121 90 -203 90 -47 0 -79 -7 -115 -24z m183 -62
c75 -31 132 -110 132 -184 0 -112 -88 -200 -200 -200 -183 0 -267 215 -133
342 58 55 132 71 201 42z m77 -523 c61 -28 130 -91 167 -152 10 -17 26 -59 35
-92 41 -164 -49 -347 -202 -407 -84 -34 -206 -34 -290 0 -164 65 -252 269
-192 446 35 101 153 206 263 233 61 16 151 4 219 -28z"/>
<path d="M720 1352 c-54 -27 -80 -74 -80 -146 0 -44 6 -70 20 -94 24 -38 89
-72 140 -72 51 0 116 34 140 72 29 48 28 143 -3 189 -29 43 -80 69 -137 69
-25 0 -61 -8 -80 -18z m135 -87 c37 -36 34 -86 -6 -119 -17 -14 -39 -26 -49
-26 -10 0 -32 12 -49 26 -24 20 -31 34 -31 60 0 45 37 84 80 84 19 0 40 -9 55
-25z"/>
<path d="M717 870 c-59 -15 -108 -45 -154 -92 -107 -110 -123 -293 -37 -425
33 -52 50 -64 134 -103 25 -12 53 -25 62 -30 23 -13 133 -13 156 0 9 5 37 18
62 30 84 39 101 51 134 103 62 95 72 227 26 334 -26 62 -101 136 -166 164 -51
23 -162 33 -217 19z m169 -131 c52 -25 103 -80 111 -120 3 -16 8 -29 12 -29 3
0 6 -22 6 -50 0 -27 -4 -50 -8 -50 -5 0 -5 -4 -2 -10 3 -5 2 -10 -4 -10 -5 0
-13 -10 -17 -22 -10 -33 -64 -88 -101 -104 -42 -18 -125 -18 -166 0 -39 18
-77 50 -77 65 0 6 -4 11 -9 11 -5 0 -12 11 -15 25 -4 14 -11 25 -17 25 -6 0
-7 5 -4 10 3 6 3 10 -2 10 -4 0 -8 23 -8 50 0 28 3 50 6 50 4 0 9 13 12 29 4
16 21 46 39 67 63 72 162 93 244 53z"/>
<path d="M719 675 c-42 -23 -62 -62 -63 -126 -1 -44 4 -64 20 -85 53 -71 134
-93 193 -52 58 39 76 72 75 136 -1 97 -48 142 -146 142 -29 -1 -65 -7 -79 -15z"/>
<path d="M3293 728 c-48 -23 -53 -54 -53 -362 0 -268 1 -289 20 -326 l20 -40
238 0 238 0 27 31 27 31 0 309 c0 229 -3 309 -12 309 -6 0 -8 3 -5 7 4 3 -8
17 -25 30 -31 22 -37 23 -242 22 -127 0 -220 -5 -233 -11z m147 -73 c-19 -14
-30 -25 -26 -25 4 0 0 -7 -8 -16 -18 -17 -23 -104 -6 -104 5 0 7 -6 5 -12 -2
-7 11 -25 30 -39 l33 -25 -41 -23 c-62 -34 -91 -97 -85 -186 2 -41 9 -70 16
-73 7 -2 12 -9 12 -15 0 -11 37 -39 85 -65 16 -9 8 -11 -44 -12 -53 0 -69 4
-88 22 -23 21 -23 22 -23 285 l0 264 25 24 c20 21 34 25 86 25 l63 0 -34 -25z
m277 1 l28 -24 3 -261 3 -261 -25 -25 c-22 -22 -33 -25 -88 -24 -35 1 -54 4
-43 6 31 8 83 51 100 83 21 41 20 147 -3 190 -10 19 -40 50 -66 68 -27 17 -41
32 -33 32 29 0 67 58 67 103 0 62 -8 79 -47 110 l-36 27 56 0 c45 0 62 -5 84
-24z"/>
</g>
</svg>
