<?xml version="1.0" standalone="no"?>
<!DOCTYPE svg PUBLIC "-//W3C//DTD SVG 20010904//EN"
 "http://www.w3.org/TR/2001/REC-SVG-20010904/DTD/svg10.dtd">
<svg version="1.0" xmlns="http://www.w3.org/2000/svg"
 width="239.000000pt" height="208.000000pt" viewBox="0 0 239.000000 208.000000"
 preserveAspectRatio="xMidYMid meet">
<metadata>
Created by potrace 1.16, written by Peter Selinger 2001-2019
</metadata>
<g transform="translate(0.000000,208.000000) scale(0.100000,-0.100000)"
fill="#ffffff" stroke="none">
<path d="M1502 2009 c-6 -41 -36 -258 -68 -484 -31 -225 -60 -413 -64 -418 -3
-4 -24 7 -46 24 -52 43 -185 104 -259 120 -33 7 -121 13 -195 14 -123 0 -143
-3 -224 -29 -158 -52 -304 -184 -355 -322 -26 -69 -28 -205 -5 -285 36 -124
127 -243 246 -324 120 -81 341 -116 504 -80 101 22 207 71 285 131 86 66 122
108 166 189 36 69 37 73 44 215 4 80 19 228 33 330 14 102 46 338 71 525 25
187 49 364 54 393 4 29 5 55 1 57 -4 3 -46 8 -92 11 l-85 7 -11 -74z m105 -60
c7 -7 7 -28 -3 -72 -7 -34 -22 -127 -34 -206 -12 -80 -28 -157 -36 -172 -14
-28 -32 -44 -39 -37 -12 12 -21 125 -14 176 13 93 90 322 108 322 4 0 12 -5
18 -11z m-883 -835 c26 -10 19 -19 -41 -59 -67 -44 -186 -161 -231 -226 -34
-50 -51 -62 -72 -49 -10 6 -5 24 20 79 42 91 129 175 232 225 85 41 73 37 92
30z m654 -348 c-3 -77 -8 -99 -33 -145 -55 -100 -213 -221 -271 -207 -35 9
-30 18 23 46 114 60 198 184 226 334 15 79 34 109 50 79 5 -8 7 -56 5 -107z
m-896 -173 c7 -63 27 -113 58 -148 21 -24 29 -56 15 -62 -18 -6 -87 60 -106
101 -32 70 -21 185 16 173 5 -2 13 -31 17 -64z"/>
<path d="M1802 759 c-76 -38 -142 -142 -142 -224 0 -48 33 -128 68 -167 48
-54 102 -78 175 -78 72 0 121 23 175 85 137 156 26 405 -180 405 -34 0 -69 -8
-96 -21z m105 -45 c1 -5 -13 -19 -33 -32 -36 -23 -64 -73 -64 -114 0 -12 -9
-41 -21 -65 -17 -35 -24 -41 -35 -32 -21 17 -28 78 -15 128 22 84 87 146 139
132 14 -4 27 -11 29 -17z"/>
</g>
</svg>
