<?xml version="1.0" standalone="no"?>
<!DOCTYPE svg PUBLIC "-//W3C//DTD SVG 20010904//EN"
 "http://www.w3.org/TR/2001/REC-SVG-20010904/DTD/svg10.dtd">
<svg version="1.0" xmlns="http://www.w3.org/2000/svg"
 width="487.000000pt" height="803.000000pt" viewBox="0 0 487.000000 803.000000"
 preserveAspectRatio="xMidYMid meet">
<metadata>
Created by potrace 1.16, written by Peter Selinger 2001-2019
</metadata>
<g transform="translate(0.000000,803.000000) scale(0.100000,-0.100000)"
fill="#000000" stroke="none">
<path d="M2525 7950 c-123 -26 -230 -88 -282 -164 -43 -62 -53 -103 -53 -212
0 -58 -6 -110 -17 -145 -13 -39 -17 -85 -17 -164 1 -100 4 -117 33 -186 43
-103 108 -206 155 -243 36 -30 42 -31 121 -29 79 2 82 2 94 -23 6 -14 16 -56
21 -92 8 -62 8 -68 -13 -90 -12 -13 -55 -44 -96 -68 l-74 -45 -43 42 c-28 27
-48 60 -59 93 -32 99 -109 206 -148 206 -21 0 -180 -46 -217 -63 -49 -22 -73
-45 -105 -97 -15 -25 -43 -68 -62 -97 -20 -29 -33 -59 -30 -67 3 -8 24 -20 47
-26 33 -9 47 -8 72 5 l31 15 88 -90 88 -90 -58 -39 c-77 -53 -148 -134 -202
-231 -24 -44 -63 -115 -87 -157 -23 -43 -61 -102 -83 -132 -34 -44 -40 -59
-35 -84 5 -27 -6 -44 -109 -173 -64 -78 -122 -145 -130 -148 -23 -8 -44 2
-125 65 -41 32 -108 83 -148 112 -150 111 -387 350 -468 472 -18 28 -50 101
-70 163 l-36 113 -102 103 c-55 57 -116 111 -135 121 -34 17 -35 17 -53 -5
-23 -29 -23 -52 2 -100 27 -52 25 -63 -10 -83 -42 -25 -48 -41 -56 -154 -10
-154 -1 -204 49 -262 23 -27 54 -64 69 -84 34 -43 101 -77 155 -77 37 0 46 -6
106 -69 36 -38 84 -98 108 -133 140 -207 317 -417 456 -541 197 -174 209 -180
274 -131 19 14 57 37 85 50 60 29 131 85 351 276 147 127 172 154 234 247 38
57 69 108 69 113 0 11 62 -69 81 -103 17 -33 29 -165 17 -206 -15 -56 -62
-100 -126 -118 -51 -15 -68 -28 -172 -133 -337 -341 -554 -648 -607 -859 -24
-95 -24 -429 0 -603 17 -119 53 -282 76 -344 11 -27 5 -38 -114 -205 l-125
-176 33 -7 c17 -4 88 -19 156 -34 108 -23 130 -25 173 -16 61 15 93 36 130 87
29 39 29 39 23 10 -24 -100 -53 -130 -137 -142 -32 -5 -37 -9 -33 -27 2 -11
16 -88 31 -171 35 -201 54 -269 109 -411 57 -142 64 -199 41 -339 -8 -55 -25
-203 -36 -330 -27 -301 -33 -335 -81 -495 -50 -169 -58 -186 -119 -266 -55
-72 -75 -127 -65 -186 6 -36 2 -46 -54 -128 -80 -120 -92 -184 -40 -222 37
-28 166 -47 314 -48 167 0 186 8 237 105 21 39 38 77 38 86 0 30 40 68 83 80
89 24 127 41 152 70 33 40 32 82 -5 155 -36 70 -37 105 -8 152 12 20 25 59 29
87 8 63 84 230 269 590 75 149 155 313 175 365 40 99 75 219 75 255 0 11 -25
122 -56 245 l-56 225 -9 280 c-6 153 -9 301 -7 327 l3 48 202 -128 c111 -70
240 -151 288 -181 134 -83 241 -165 352 -272 95 -92 138 -119 191 -119 7 0 33
-19 57 -41 50 -46 52 -56 34 -168 -9 -56 -8 -98 10 -257 22 -189 46 -639 35
-656 -4 -6 -7 -83 -9 -172 -2 -144 -5 -166 -24 -205 -15 -28 -20 -52 -16 -70
5 -23 1 -31 -19 -44 -14 -9 -37 -38 -52 -64 -15 -27 -52 -91 -83 -143 -65
-112 -73 -160 -31 -205 23 -25 60 -38 258 -95 40 -12 120 -46 178 -76 140 -74
194 -92 349 -115 259 -38 516 -18 557 45 37 55 -59 160 -162 180 -65 12 -132
58 -185 126 -27 36 -79 95 -115 131 -36 37 -82 87 -102 111 -32 40 -42 46 -88
51 -65 8 -80 20 -80 66 l0 37 74 -10 c87 -11 240 9 351 45 l67 23 -6 60 c-23
247 -29 599 -15 1066 8 267 14 595 14 730 l0 245 -31 55 c-37 66 -120 138
-329 287 -82 59 -154 110 -158 114 -5 4 -1 31 8 60 21 66 10 126 -21 121 -168
-27 -260 1 -550 166 -50 29 -117 78 -150 110 -33 31 -76 68 -96 82 -38 26 -85
89 -95 129 -7 30 30 149 57 184 62 78 79 186 36 226 l-25 23 53 107 c59 118
251 535 300 650 l31 75 61 -3 c44 -2 64 2 73 13 14 17 24 85 42 293 l13 152
25 -6 c14 -3 41 -19 59 -34 18 -16 44 -32 58 -35 47 -12 44 -26 80 357 14 144
15 191 5 254 -26 174 -95 250 -263 290 -74 17 -233 20 -309 4 -30 -6 -102 -11
-160 -11 -120 0 -152 11 -194 67 -35 45 -75 165 -75 224 0 45 6 59 63 153 15
26 33 75 39 110 6 34 15 67 20 73 12 14 96 -73 109 -114 18 -54 5 -157 -35
-262 -19 -51 -33 -95 -31 -97 9 -9 73 36 128 91 116 116 173 288 132 401 l-13
38 33 -32 c48 -46 67 -92 74 -179 l7 -76 12 40 c7 22 12 72 12 110 0 102 -26
150 -140 259 -152 144 -237 203 -316 220 -24 5 -35 16 -49 49 -27 62 -98 133
-153 153 -54 19 -280 29 -347 14z"/>
</g>
</svg>
