<?xml version="1.0" standalone="no"?>
<!DOCTYPE svg PUBLIC "-//W3C//DTD SVG 20010904//EN"
 "http://www.w3.org/TR/2001/REC-SVG-20010904/DTD/svg10.dtd">
<svg version="1.0" xmlns="http://www.w3.org/2000/svg"
 width="1668.000000pt" height="1374.000000pt" viewBox="0 0 1668.000000 1374.000000"
 preserveAspectRatio="xMidYMid meet">
<metadata>
Created by potrace 1.16, written by Peter Selinger 2001-2019
</metadata>
<g transform="translate(0.000000,1374.000000) scale(0.100000,-0.100000)"
fill="#000000" stroke="none">
<path d="M11597 13685 c-162 -99 -239 -182 -285 -306 -41 -110 -36 -269 12
-384 22 -51 31 -38 17 22 -14 58 -17 165 -6 213 9 43 39 104 73 148 25 33 140
114 180 126 l22 7 0 -575 c0 -642 -3 -615 72 -733 70 -110 182 -193 262 -193
52 0 74 14 86 58 35 133 -135 373 -302 426 -17 5 -18 44 -18 626 0 490 -3 620
-12 619 -7 0 -53 -25 -101 -54z"/>
<path d="M13690 13211 c-104 -40 -173 -114 -185 -194 -11 -78 -1 -435 13 -449
9 -10 12 4 12 70 0 130 32 185 122 210 l37 10 3 -376 c3 -363 4 -379 26 -432
44 -110 133 -200 197 -200 48 0 58 19 53 99 -4 51 -13 83 -37 128 -38 71 -102
141 -142 155 l-29 10 0 494 c0 389 -3 494 -12 494 -7 -1 -33 -9 -58 -19z m0
-176 c0 -43 -1 -45 -48 -69 -26 -13 -62 -39 -80 -57 l-32 -33 0 40 c0 82 69
164 137 164 21 0 23 -5 23 -45z"/>
<path d="M14809 12517 c-121 -114 -166 -184 -210 -327 -20 -64 -24 -96 -24
-215 0 -142 25 -305 48 -305 5 0 6 12 2 27 -14 57 -22 221 -14 281 18 128 64
218 155 302 l49 45 5 -695 5 -695 32 -88 c37 -102 71 -163 121 -219 116 -129
192 -66 158 130 -20 114 -96 272 -159 330 -26 23 -53 42 -62 42 -13 0 -15 83
-15 730 0 402 -3 730 -7 730 -5 -1 -42 -33 -84 -73z"/>
<path d="M12744 12557 c-3 -8 23 -110 56 -228 77 -266 177 -626 266 -957 37
-140 73 -261 80 -270 15 -20 44 -9 44 18 0 11 -20 93 -45 183 -25 90 -45 168
-45 172 0 4 8 1 18 -8 26 -23 87 -47 121 -47 80 0 82 158 3 220 -53 42 -101
14 -109 -65 -3 -25 -9 -45 -13 -45 -17 0 -62 82 -80 146 -26 89 -26 89 11 63
17 -12 50 -27 74 -35 40 -12 46 -11 69 7 47 37 42 131 -12 189 -38 40 -63 45
-96 19 -25 -20 -27 -26 -24 -81 l3 -60 -37 42 c-26 30 -44 64 -59 114 -11 39
-23 79 -26 90 -5 16 -1 16 28 -6 103 -76 179 -58 179 42 0 86 -45 149 -107
150 -46 0 -67 -34 -61 -100 5 -49 5 -50 -14 -33 -32 28 -58 79 -78 150 -11 36
-18 69 -15 71 2 2 17 -5 33 -17 36 -26 101 -41 130 -30 45 17 55 96 21 167
-55 113 -173 80 -155 -43 l6 -40 -35 40 c-23 26 -43 66 -58 115 -18 61 -27 76
-45 78 -12 2 -24 -3 -28 -11z"/>
<path d="M16635 12378 c-23 -74 -42 -736 -27 -978 l7 -115 5 200 c4 121 7 -50
9 -435 2 -349 7 -700 11 -780 3 -80 7 365 8 988 1 622 0 1132 -3 1132 -3 0 -7
-6 -10 -12z"/>
<path d="M16506 11425 c-75 -166 -116 -407 -116 -676 0 -187 9 -359 19 -359 3
0 6 109 6 243 0 247 9 323 48 432 13 36 15 -47 19 -775 4 -782 5 -821 26 -952
24 -150 41 -209 59 -215 6 -2 13 8 16 24 2 15 5 -307 5 -717 1 -469 -2 -758
-8 -781 -34 -121 -64 -566 -41 -599 17 -25 31 0 48 86 13 65 17 198 22 734 4
360 8 633 10 605 2 -27 7 -99 11 -160 4 -60 6 237 4 660 -1 424 -6 804 -10
845 -9 74 -9 73 -18 -90 -11 -199 -11 -197 -2 -340 10 -156 -9 -124 -24 40
-13 152 -29 257 -44 290 -8 18 -12 271 -16 875 -3 515 -9 842 -14 830z"/>
<path d="M15852 11083 c-83 -105 -99 -204 -63 -380 l19 -92 -24 -113 c-30
-137 -44 -208 -44 -219 0 -4 16 -5 35 -2 26 4 41 1 56 -13 18 -16 20 -27 15
-74 -3 -30 -14 -81 -24 -113 -20 -59 -14 -79 15 -55 44 36 69 152 54 248 -9
55 -18 76 -55 124 -5 7 2 33 19 66 54 110 57 125 35 180 -11 27 -29 86 -40
131 -23 90 -21 120 21 246 11 34 19 73 17 85 -3 20 -6 19 -36 -19z"/>
<path d="M15250 10871 c0 -28 -4 -51 -9 -51 -17 0 -21 -73 -6 -97 16 -24 21
-153 6 -153 -5 0 -11 -19 -15 -41 -5 -30 -3 -46 8 -58 10 -11 16 -43 18 -96 3
-67 6 -80 21 -83 14 -3 17 4 17 48 0 32 4 49 10 45 6 -3 10 -40 10 -81 0 -59
3 -74 15 -74 11 0 15 12 15 51 0 27 4 48 9 45 17 -11 22 74 6 97 -16 24 -22
163 -6 153 18 -11 24 73 7 98 -9 15 -16 53 -18 102 -2 51 -7 79 -15 82 -10 3
-13 -13 -13 -59 0 -92 -18 -61 -22 36 -3 67 -6 80 -20 83 -15 3 -18 -4 -18
-47z"/>
<path d="M16224 10294 c-24 -25 -50 -68 -68 -115 -30 -74 -30 -75 -33 -324 -4
-247 3 -415 15 -415 4 0 7 57 8 128 1 146 13 200 54 245 l29 32 1 -510 c0
-468 2 -518 20 -605 13 -62 20 -135 20 -211 0 -106 -2 -118 -21 -135 -70 -62
-149 -360 -149 -559 0 -111 13 -155 44 -155 41 0 80 65 115 190 43 155 53 232
58 442 4 164 8 205 18 201 8 -2 19 6 26 18 17 33 6 223 -20 334 -20 86 -21
111 -19 590 l3 500 27 -66 c53 -131 63 -208 63 -501 0 -148 3 -268 6 -268 13
0 22 274 16 489 -8 302 -38 456 -120 616 -23 44 -44 89 -48 100 -5 18 -9 16
-45 -21z"/>
<path d="M12780 9290 c0 -763 -1 -811 -17 -816 -182 -55 -369 -290 -381 -479
-9 -148 66 -194 206 -124 101 50 229 204 282 339 l25 65 3 613 c3 572 4 613
20 608 9 -2 33 -8 52 -11 80 -16 157 -71 190 -136 29 -55 43 -161 37 -263 -5
-79 -4 -89 8 -72 22 29 30 99 29 251 0 77 0 163 0 190 4 279 2 308 -27 370
-53 113 -161 197 -321 249 -43 14 -85 26 -92 26 -12 0 -14 -130 -14 -810z
m240 554 c57 -18 115 -65 139 -113 21 -41 41 -134 41 -193 l0 -39 -56 61 c-43
46 -77 71 -139 100 -45 22 -87 40 -93 40 -8 0 -12 27 -12 86 l0 86 38 -6 c20
-4 57 -14 82 -22z"/>
<path d="M14210 8099 l0 -1054 -45 -19 c-138 -56 -316 -304 -369 -512 -43
-168 1 -294 102 -294 40 0 120 41 174 89 87 77 201 271 244 416 17 55 18 136
24 1048 l5 987 50 -34 c210 -143 310 -424 265 -746 -5 -36 -12 -87 -16 -115
-12 -89 13 -37 35 71 57 280 48 491 -29 704 -71 194 -167 307 -427 503 -10 8
-13 -203 -13 -1044z"/>
<path d="M1750 8656 c-171 -46 -346 -292 -517 -730 -97 -249 -161 -497 -199
-781 -22 -162 -25 -593 -6 -765 11 -97 66 -442 87 -545 5 -27 -8 -49 -112
-191 -274 -374 -458 -673 -633 -1029 -257 -520 -370 -947 -370 -1395 0 -319
65 -565 203 -770 214 -318 626 -494 1059 -452 166 16 247 34 418 93 80 27 152
52 161 55 16 6 37 -98 90 -446 26 -169 37 -511 20 -632 -39 -273 -120 -452
-269 -589 -112 -103 -219 -159 -384 -201 -67 -17 -102 -19 -202 -16 -67 3
-132 10 -145 15 -24 9 -21 12 40 42 167 82 296 232 365 426 13 37 18 82 18
170 1 117 0 122 -32 188 -56 114 -134 153 -284 145 -141 -8 -273 -74 -397
-199 -81 -81 -128 -151 -169 -251 -20 -51 -26 -85 -30 -174 -5 -124 7 -184 60
-288 57 -113 237 -255 396 -313 60 -22 78 -24 172 -20 223 10 454 126 678 342
57 55 133 138 168 185 79 105 166 276 198 391 70 249 58 605 -39 1158 -14 80
-28 155 -31 167 -5 18 2 28 38 50 67 42 224 170 317 259 242 232 440 536 520
800 49 164 56 209 55 385 -1 145 -4 177 -27 262 -95 358 -382 591 -757 615
-162 10 -348 -26 -521 -101 l-77 -33 -22 121 c-12 66 -47 247 -77 401 -30 154
-57 296 -59 315 -5 33 7 51 168 266 244 323 472 638 564 779 208 319 308 615
321 945 11 313 -45 561 -200 883 -94 195 -162 301 -242 375 -99 93 -197 120
-315 88z m42 -283 c71 -131 149 -354 185 -523 28 -130 25 -429 -5 -569 -59
-271 -188 -553 -395 -866 -65 -98 -270 -375 -274 -371 -1 1 -11 90 -22 197
-93 914 -11 1536 256 1937 57 86 198 242 219 242 6 0 22 -21 36 -47z m-472
-3538 c23 -132 53 -293 66 -358 29 -139 36 -123 -102 -257 -213 -208 -388
-476 -443 -680 -106 -394 13 -848 257 -978 74 -39 181 -59 248 -46 64 12 66
36 5 46 -141 24 -243 146 -286 342 -14 61 -16 105 -12 190 7 136 25 203 84
324 36 74 64 113 130 182 78 82 245 211 250 193 1 -4 18 -84 37 -178 46 -221
120 -578 196 -939 33 -159 59 -290 58 -291 -18 -16 -164 -79 -238 -103 -148
-48 -203 -57 -355 -56 -167 1 -252 20 -378 86 -335 174 -524 664 -431 1115 50
243 150 474 392 908 200 359 295 512 457 741 5 7 13 10 16 6 4 -4 26 -115 49
-247z m865 -906 c79 -29 129 -61 185 -119 170 -175 202 -488 74 -741 -53 -107
-129 -221 -218 -326 -70 -84 -206 -217 -213 -209 -2 1 -15 68 -29 147 -28 159
-59 309 -104 499 -49 208 -138 622 -145 672 l-7 47 70 21 c39 12 92 25 119 30
76 14 201 4 268 -21z"/>
<path d="M15782 8628 c-9 -9 -12 -178 -12 -700 l0 -687 23 8 c15 5 38 40 73
108 87 171 142 440 131 635 -11 180 -68 216 -148 90 l-29 -46 0 302 c0 310 -2
326 -38 290z m121 -784 c-2 -75 -33 -239 -67 -359 -13 -47 -14 -37 -15 180
l-1 230 28 18 c49 31 57 21 55 -69z"/>
<path d="M15473 8488 c-6 -7 -16 -49 -23 -93 -13 -85 -37 -157 -63 -196 -16
-22 -16 -21 -11 27 6 56 -13 132 -38 147 -24 16 -66 -16 -89 -68 -38 -85 -35
-211 6 -245 21 -17 71 -3 111 32 20 18 34 24 34 17 -2 -52 -41 -212 -61 -249
l-24 -45 -5 70 c-6 84 -21 115 -56 115 -67 0 -124 -160 -95 -267 19 -68 76
-70 144 -5 20 20 37 32 37 27 -1 -45 -53 -253 -70 -280 -12 -19 -23 -35 -25
-35 -1 0 -2 29 -2 65 0 189 -145 132 -159 -63 -4 -52 -1 -75 13 -102 16 -31
22 -35 56 -34 27 1 50 11 79 34 40 32 41 33 35 9 -3 -13 -15 -78 -27 -144 -11
-66 -43 -243 -71 -393 -28 -150 -48 -280 -45 -288 8 -22 35 -17 46 9 5 12 30
137 55 277 25 140 52 289 60 330 78 408 227 1317 220 1341 -7 22 -18 24 -32 7z"/>
<path d="M12143 8252 l-42 -16 -3 -64 -3 -65 -37 -13 -38 -13 0 60 c0 67 -1
68 -73 43 l-47 -16 0 -69 c0 -38 4 -69 9 -69 5 0 27 7 50 15 l42 14 -3 -56 -3
-57 -47 -15 -48 -15 0 -68 c0 -37 3 -68 7 -68 3 0 30 8 60 17 l53 17 0 62 c0
61 1 62 31 73 48 16 49 15 49 -44 0 -62 1 -63 71 -38 l49 18 0 67 c0 40 -4 68
-10 68 -6 0 -27 -7 -47 -15 -19 -8 -37 -15 -40 -15 -2 0 -3 26 -1 57 l3 57 48
15 47 15 0 68 c0 77 -3 79 -77 50z"/>
<path d="M10690 6840 c0 -920 -3 -1161 -12 -1164 -197 -48 -392 -194 -526
-394 -78 -117 -114 -207 -120 -303 -7 -116 32 -178 125 -200 111 -25 289 53
436 194 137 129 216 245 262 380 l25 76 0 1075 0 1076 52 -20 c79 -30 203
-108 275 -174 103 -94 169 -206 204 -347 27 -109 7 -372 -36 -481 -5 -12 -2
-18 7 -18 14 0 42 72 78 200 28 97 39 339 20 444 -47 271 -243 513 -548 680
-55 30 -118 66 -139 79 -21 13 -53 32 -70 41 l-33 17 0 -1161z"/>
<path d="M5500 5965 l0 -1595 -23 0 c-40 0 -166 -39 -242 -76 -363 -171 -690
-548 -736 -844 -17 -112 -1 -178 59 -240 53 -54 95 -70 187 -70 321 1 797 352
970 715 77 162 70 -4 73 1653 l2 1483 23 -6 c63 -19 212 -82 287 -122 429
-229 613 -567 545 -1003 -8 -52 -26 -137 -40 -188 -29 -108 -28 -102 -15 -102
26 0 121 250 150 396 26 124 30 323 10 434 -14 75 -67 236 -100 300 -85 167
-288 385 -473 508 -83 55 -650 352 -673 352 -2 0 -4 -718 -4 -1595z"/>
<path d="M16503 7273 c-7 -12 -14 -52 -15 -90 -2 -64 -2 -65 -5 -15 -4 45 -6
52 -19 42 -17 -15 -21 -165 -4 -155 6 4 10 -13 10 -44 0 -27 -4 -53 -10 -56
-5 -3 -10 -43 -10 -88 0 -73 1 -79 15 -61 9 12 15 46 16 89 l2 70 6 -55 c5
-50 7 -53 19 -33 15 26 17 167 2 158 -13 -8 -13 71 0 96 6 11 10 52 8 92 -3
63 -5 69 -15 50z"/>
<path d="M12831 6833 c-5 -10 -19 -52 -31 -93 -12 -41 -29 -88 -37 -103 -16
-33 -82 -107 -93 -107 -5 0 -4 17 2 37 12 44 5 96 -17 130 -67 101 -225 -14
-225 -165 0 -44 24 -98 48 -111 47 -25 153 2 222 58 l36 29 -35 -121 c-34
-116 -38 -124 -93 -182 -47 -49 -56 -55 -48 -32 23 66 4 154 -39 177 -110 58
-243 -130 -187 -264 19 -46 61 -62 123 -47 56 14 119 45 149 73 21 18 20 13
-11 -96 -35 -121 -50 -148 -108 -205 l-35 -33 5 62 c7 78 -13 124 -63 140 -93
31 -196 -98 -181 -227 6 -58 41 -93 92 -93 44 0 127 31 170 64 39 30 50 33 41
9 -15 -38 -234 -789 -236 -808 -6 -56 14 -76 49 -47 24 20 32 47 276 897 269
940 296 1040 289 1058 -8 22 -51 22 -63 0z"/>
<path d="M9052 6652 c-15 -16 -36 -56 -46 -88 -54 -175 -76 -215 -156 -294
-82 -81 -170 -140 -155 -104 39 94 45 160 20 221 -31 75 -81 106 -166 106 -74
-1 -137 -30 -197 -90 -74 -74 -97 -130 -97 -234 0 -78 2 -89 28 -122 45 -59
77 -71 177 -64 47 3 110 13 140 22 64 20 186 79 215 104 25 23 50 37 43 25 -8
-12 -257 -710 -314 -877 -44 -132 -46 -166 -10 -180 25 -10 73 3 93 25 10 11
36 72 59 136 57 161 319 901 350 987 128 360 138 393 129 422 -9 23 -17 29
-48 31 -31 3 -43 -2 -65 -26z"/>
<path d="M7960 3988 l0 -813 -74 -23 c-211 -66 -424 -299 -434 -476 -4 -80 19
-120 79 -136 156 -42 422 137 532 359 l42 84 3 604 3 603 28 0 c15 0 62 -9
104 -19 199 -51 263 -140 261 -363 -1 -60 3 -108 7 -108 5 0 16 26 26 58 13
43 17 89 16 187 -1 72 -1 166 0 210 3 277 3 277 -26 340 -61 131 -215 225
-462 280 -38 9 -78 18 -87 21 -17 5 -18 -38 -18 -808z m310 552 c153 -41 225
-129 237 -286 l6 -74 -42 40 c-70 67 -157 117 -262 150 l-99 32 0 82 0 82 58
-7 c31 -3 77 -12 102 -19z"/>
</g>
</svg>
