<?xml version="1.0" standalone="no"?>
<!DOCTYPE svg PUBLIC "-//W3C//DTD SVG 20010904//EN"
 "http://www.w3.org/TR/2001/REC-SVG-20010904/DTD/svg10.dtd">
<svg version="1.0" xmlns="http://www.w3.org/2000/svg"
 width="245.000000pt" height="250.000000pt" viewBox="0 0 245.000000 250.000000"
 preserveAspectRatio="xMidYMid meet">
<metadata>
Created by potrace 1.16, written by Peter Selinger 2001-2019
</metadata>
<g transform="translate(0.000000,250.000000) scale(0.100000,-0.100000)"
fill="#ffffff" stroke="none">
<path d="M376 2444 c-14 -13 -16 -47 -16 -221 l0 -205 -30 -35 -30 -34 0 -217
c0 -199 2 -220 20 -249 11 -18 24 -33 30 -33 7 0 10 -205 10 -612 0 -337 4
-619 9 -626 12 -19 87 -28 106 -12 13 11 15 91 15 627 l0 614 26 22 c36 31 43
79 44 268 0 197 -4 221 -41 259 l-29 28 0 209 c0 149 -3 212 -12 221 -17 17
-84 15 -102 -4z"/>
<path d="M776 2444 c-14 -13 -16 -66 -16 -426 l0 -410 -30 -35 -30 -34 0 -215
c0 -223 6 -263 45 -277 13 -6 15 -57 15 -414 0 -224 4 -414 9 -421 12 -19 87
-28 106 -12 13 11 15 69 15 422 l0 409 26 22 c36 31 43 79 44 268 0 197 -4
221 -41 259 l-29 28 0 414 c0 309 -3 417 -12 426 -17 17 -84 15 -102 -4z"/>
<path d="M1172 2448 c-9 -9 -12 -160 -12 -618 l0 -607 -25 -23 c-38 -35 -45
-79 -45 -265 0 -186 7 -230 45 -265 l25 -23 0 -217 c0 -155 3 -219 12 -228 19
-19 82 -15 101 6 15 16 17 47 17 230 0 210 0 211 24 235 34 34 38 64 34 295
l-3 204 -27 23 -28 24 0 605 c0 674 4 636 -69 636 -20 0 -42 -5 -49 -12z"/>
<path d="M1576 2444 c-14 -13 -16 -66 -16 -425 l0 -410 -27 -24 -28 -23 -3
-231 -3 -231 30 -31 31 -31 0 -406 c0 -224 4 -413 9 -420 12 -19 87 -28 106
-12 13 11 15 69 15 423 l0 411 26 27 c37 38 43 82 44 277 0 183 -7 219 -49
256 -21 19 -21 23 -21 431 0 306 -3 414 -12 423 -17 17 -84 15 -102 -4z"/>
<path d="M1976 2444 c-14 -13 -16 -48 -16 -225 0 -135 -4 -209 -10 -209 -6 0
-19 -15 -30 -32 -18 -30 -20 -51 -20 -250 l0 -217 30 -34 30 -35 0 -608 c0
-335 4 -615 9 -622 12 -19 87 -28 106 -12 13 11 15 91 15 628 l0 616 26 27
c37 38 43 82 44 277 0 183 -7 219 -49 256 -20 18 -21 27 -21 226 0 147 -3 209
-12 218 -17 17 -84 15 -102 -4z"/>
</g>
</svg>
