<?xml version="1.0" standalone="no"?>
<!DOCTYPE svg PUBLIC "-//W3C//DTD SVG 20010904//EN"
 "http://www.w3.org/TR/2001/REC-SVG-20010904/DTD/svg10.dtd">
<svg version="1.0" xmlns="http://www.w3.org/2000/svg"
 width="180.000000pt" height="200.000000pt" viewBox="0 0 180.000000 200.000000"
 preserveAspectRatio="xMidYMid meet">
<metadata>
Created by potrace 1.16, written by Peter Selinger 2001-2019
</metadata>
<g transform="translate(0.000000,200.000000) scale(0.100000,-0.100000)"
fill="#000000" stroke="none">
<path d="M1475 1988 c-16 -49 -127 -403 -206 -654 l-94 -302 -67 63 c-131 121
-284 178 -478 179 -86 1 -128 -4 -167 -17 -120 -42 -223 -136 -292 -267 -114
-215 -96 -449 45 -600 65 -70 165 -134 259 -166 70 -24 95 -27 200 -27 188 0
315 49 441 170 80 76 121 138 145 221 21 68 261 735 395 1096 41 109 74 202
74 206 0 7 -229 110 -245 110 -3 0 -7 -6 -10 -12z m23 -310 c-72 -280 -156
-528 -180 -528 -39 0 50 407 119 543 24 49 65 97 82 97 4 0 -5 -51 -21 -112z
m-658 -563 c11 -13 5 -15 -46 -15 -227 -1 -435 -133 -494 -313 -13 -41 -34
-46 -54 -15 -24 39 89 204 186 271 99 69 158 86 284 87 87 0 114 -3 124 -15z
m-70 -226 c75 -43 117 -131 105 -225 -7 -60 -33 -104 -88 -148 -36 -29 -44
-31 -121 -31 -73 0 -87 3 -123 27 -26 17 -50 45 -67 79 -62 125 -10 268 116
316 46 17 130 9 178 -18z"/>
</g>
</svg>
