<?xml version="1.0" standalone="no"?>
<!DOCTYPE svg PUBLIC "-//W3C//DTD SVG 20010904//EN"
 "http://www.w3.org/TR/2001/REC-SVG-20010904/DTD/svg10.dtd">
<svg version="1.0" xmlns="http://www.w3.org/2000/svg"
 width="1007.000000pt" height="397.000000pt" viewBox="0 0 1007.000000 397.000000"
 preserveAspectRatio="xMidYMid meet">
<metadata>
Created by potrace 1.16, written by Peter Selinger 2001-2019
</metadata>
<g transform="translate(0.000000,397.000000) scale(0.100000,-0.100000)"
fill="#ffffff" stroke="none">
<path d="M5725 3793 c-269 -57 -502 -244 -610 -489 -58 -132 -92 -335 -80
-484 21 -272 112 -479 289 -655 114 -114 234 -194 451 -302 345 -173 423 -245
461 -424 19 -90 14 -240 -11 -314 -48 -139 -162 -207 -321 -191 -141 14 -224
61 -282 156 -45 75 -61 135 -75 273 l-11 117 -285 0 -284 0 6 -117 c14 -280
128 -548 305 -715 90 -84 142 -120 255 -173 151 -71 202 -80 427 -80 184 1
200 3 285 29 347 106 538 363 577 774 19 200 -18 445 -90 605 -103 226 -309
412 -619 559 -409 193 -539 354 -494 614 32 180 145 284 311 284 192 0 299
-135 326 -412 l6 -68 284 0 284 0 0 58 c0 78 -25 239 -51 326 -95 320 -319
546 -615 621 -80 21 -119 25 -233 24 -80 0 -165 -7 -206 -16z m45 -118 c92
-48 134 -167 91 -260 -60 -132 -228 -163 -327 -60 -70 72 -79 164 -25 252 50
80 175 113 261 68z m454 14 c121 -30 188 -163 137 -274 -59 -131 -224 -162
-325 -61 -71 70 -82 154 -33 240 26 46 58 72 113 91 48 17 55 18 108 4z m-821
-400 c113 -31 177 -167 128 -274 -59 -131 -224 -162 -326 -61 -108 108 -67
279 81 331 48 17 68 18 117 4z m1140 -50 c79 -22 147 -111 147 -194 0 -89 -70
-173 -160 -195 -123 -30 -243 66 -243 195 0 89 51 159 139 190 48 17 68 18
117 4z m-1090 -500 c49 -13 105 -63 128 -114 67 -147 -68 -312 -225 -276 -134
31 -201 174 -136 290 28 50 59 76 116 96 48 17 68 18 117 4z m390 -350 c113
-31 177 -167 128 -274 -59 -132 -224 -162 -326 -61 -113 114 -64 288 95 337
36 11 60 10 103 -2z m477 -259 c81 -22 150 -112 150 -195 0 -85 -69 -173 -152
-196 -141 -37 -286 101 -249 237 22 80 61 122 139 150 45 16 66 17 112 4z
m265 -461 c79 -22 145 -116 145 -204 -1 -78 -70 -160 -160 -190 -49 -16 -54
-16 -98 0 -65 25 -126 89 -141 149 -26 103 33 208 134 244 40 14 72 14 120 1z
m-1259 -274 c82 -24 144 -107 144 -192 -1 -52 -30 -112 -73 -150 -129 -113
-330 -20 -330 153 0 88 51 158 139 189 50 18 60 18 120 0z m1244 -220 c130
-83 147 -236 37 -332 -50 -44 -107 -58 -174 -43 -105 23 -156 85 -157 189 0
98 54 170 154 205 52 18 90 13 140 -19z m-987 -216 c78 -21 146 -111 147 -192
0 -47 -23 -104 -58 -140 -92 -97 -250 -77 -319 40 -62 106 -11 247 104 288 46
17 76 18 126 4z m630 -110 c54 -26 85 -76 94 -149 16 -139 -113 -252 -250
-219 -102 24 -174 139 -148 235 38 140 170 198 304 133z"/>
<path d="M8555 3793 c-364 -77 -627 -378 -733 -838 -46 -200 -54 -334 -49
-917 3 -457 6 -560 21 -648 58 -345 166 -589 336 -760 114 -113 213 -171 376
-216 91 -25 364 -31 478 -10 336 64 575 289 685 648 32 105 62 273 68 386 l6
102 -284 0 -285 0 -12 -122 c-35 -367 -133 -476 -416 -466 -96 3 -118 8 -161
30 -126 66 -185 178 -222 425 -16 103 -18 192 -18 683 0 497 2 579 18 679 58
365 173 490 441 479 148 -6 237 -52 287 -150 38 -75 73 -250 82 -418 l2 -45
288 -2 289 -2 -7 72 c-19 219 -68 429 -134 579 -127 288 -334 457 -628 514
-98 18 -335 17 -428 -3z m281 -68 c111 -33 172 -158 128 -263 -57 -138 -225
-172 -330 -67 -70 70 -79 163 -25 252 23 36 55 59 109 79 48 17 58 17 118 -1z
m467 -206 c49 -13 105 -63 128 -114 36 -78 16 -168 -52 -232 -65 -61 -134 -69
-220 -25 -172 87 -147 315 41 373 36 11 60 10 103 -2z m-1000 -60 c79 -22 147
-111 147 -194 0 -85 -69 -173 -152 -196 -141 -37 -286 101 -249 237 22 80 61
122 139 150 46 16 66 17 115 3z m1212 -390 c55 -15 120 -82 135 -138 22 -84
-5 -163 -76 -217 -51 -39 -151 -46 -212 -15 -150 76 -139 297 18 365 42 18 81
20 135 5z m-1362 -130 c43 -12 101 -59 122 -99 41 -79 26 -172 -39 -236 -54
-55 -110 -71 -185 -54 -106 24 -179 138 -152 236 22 80 61 122 139 150 46 16
66 17 115 3z m-50 -580 c79 -22 147 -111 147 -194 0 -85 -69 -173 -152 -196
-105 -28 -224 43 -246 147 -23 109 29 202 134 239 48 17 68 18 117 4z m20
-620 c43 -12 101 -59 122 -99 22 -43 28 -102 15 -150 -16 -60 -80 -124 -140
-140 -142 -38 -282 92 -251 232 18 77 61 126 137 153 48 17 68 18 117 4z
m1360 -360 c43 -12 101 -59 122 -99 41 -79 26 -172 -39 -236 -54 -55 -110 -71
-185 -54 -106 24 -179 138 -152 236 22 80 61 122 139 150 46 16 66 17 115 3z
m-1250 -160 c21 -5 54 -24 74 -42 95 -84 95 -220 0 -304 -129 -113 -330 -20
-330 153 0 88 51 158 139 189 48 17 68 18 117 4z m920 -260 c113 -31 177 -167
128 -274 -59 -131 -224 -162 -325 -61 -71 70 -82 154 -33 240 26 46 58 72 113
91 48 17 68 18 117 4z m-497 -84 c111 -33 172 -158 128 -263 -33 -80 -99 -125
-184 -126 -170 -1 -266 187 -164 322 25 32 66 58 114 73 38 11 52 10 106 -6z"/>
<path d="M220 2100 l0 -1670 285 0 285 0 0 488 c0 340 -8 682 -25 1131 -14
355 -23 646 -22 648 2 1 46 -167 98 -375 91 -365 94 -375 100 -320 8 71 39
121 96 155 119 70 274 -6 298 -147 13 -77 -31 -168 -98 -203 -99 -51 -211 -23
-269 67 -25 39 -27 49 43 -238 41 -168 55 -214 63 -202 6 8 22 33 35 55 71
117 249 111 323 -10 36 -58 44 -106 28 -166 -37 -129 -195 -183 -306 -104
l-43 30 5 -28 c3 -16 47 -197 98 -402 l92 -374 197 -3 197 -2 5 22 c3 13 46
189 96 391 50 203 89 371 86 373 -2 2 -20 -3 -40 -11 -76 -32 -165 -9 -224 58
-29 34 -53 90 -53 128 0 62 60 153 123 185 74 39 193 9 240 -61 l24 -35 46
188 c26 103 47 192 47 199 0 6 -24 -4 -52 -24 -50 -33 -57 -35 -119 -31 -119
6 -188 78 -189 194 0 151 158 250 287 180 50 -28 103 -93 103 -129 0 -59 27
29 96 311 42 174 81 321 86 327 5 5 6 -26 3 -75 -5 -82 -19 -424 -30 -735 -3
-82 -10 -249 -15 -370 -5 -121 -10 -415 -10 -652 l0 -433 290 0 290 0 0 1670
0 1670 -375 0 -375 0 -5 -22 c-38 -165 -188 -840 -205 -923 -11 -60 -28 -135
-35 -166 -8 -31 -46 -200 -84 -375 -127 -582 -202 -918 -206 -922 -2 -2 -11
32 -20 75 -9 43 -37 168 -62 278 -24 110 -69 313 -99 450 -30 138 -68 311 -85
385 -17 74 -44 196 -59 270 -16 74 -69 316 -119 537 -50 220 -91 404 -91 407
0 3 -169 6 -375 6 l-375 0 0 -1670z m380 1618 c119 -61 141 -217 45 -314 -146
-145 -389 -5 -336 193 33 121 174 180 291 121z m2048 -11 c107 -70 111 -243 9
-321 -76 -58 -183 -55 -254 7 -111 98 -91 258 42 331 48 26 152 18 203 -17z
m-2115 -528 c79 -22 147 -111 147 -194 0 -124 -131 -227 -247 -196 -198 54
-210 322 -18 389 40 14 72 14 118 1z m2030 0 c43 -12 101 -59 122 -99 59 -115
-6 -260 -131 -289 -198 -47 -333 191 -190 334 59 58 122 76 199 54z m-1490
-311 c73 -36 120 -144 98 -225 -24 -87 -86 -140 -175 -150 -160 -18 -274 161
-192 300 56 97 166 127 269 75z m1035 7 c102 -43 150 -160 107 -263 -69 -163
-301 -163 -370 0 -41 100 13 226 116 267 37 15 106 13 147 -4z m-1536 -276
c78 -40 123 -140 99 -226 -23 -89 -84 -140 -178 -151 -128 -14 -245 118 -212
241 37 139 165 199 291 136z m2031 -1 c115 -57 140 -225 47 -318 -86 -86 -225
-76 -304 23 -42 52 -49 144 -16 212 49 101 166 137 273 83z m-2070 -549 c79
-22 147 -111 147 -194 0 -116 -119 -220 -229 -200 -107 20 -174 97 -174 200 0
135 126 231 256 194z m2030 0 c43 -12 101 -59 122 -99 41 -79 26 -172 -39
-236 -66 -67 -148 -79 -236 -34 -155 79 -129 320 40 368 47 14 68 14 113 1z
m-1990 -581 c49 -24 94 -88 103 -144 24 -159 -136 -281 -282 -215 -84 38 -136
140 -113 224 37 140 165 199 292 135z m2030 0 c49 -24 94 -88 103 -144 28
-191 -199 -309 -339 -176 -68 64 -81 164 -34 245 57 97 166 127 270 75z
m-1008 -532 c54 -29 94 -89 101 -152 5 -42 2 -62 -18 -106 -63 -136 -240 -159
-335 -43 -57 69 -63 150 -17 232 54 94 168 123 269 69z m-1062 -7 c79 -22 147
-111 147 -194 0 -116 -119 -220 -229 -200 -107 20 -174 97 -174 200 0 135 126
231 256 194z m2030 0 c43 -12 101 -59 122 -99 41 -79 26 -172 -39 -236 -144
-144 -377 -12 -334 190 17 83 102 150 193 155 11 0 37 -4 58 -10z"/>
<path d="M2983 2523 c4 -1217 5 -1251 25 -1358 65 -342 213 -564 456 -684 147
-73 210 -85 456 -85 190 0 224 2 295 22 352 97 565 372 625 807 10 66 14 413
17 1318 l4 1227 -290 0 -291 0 0 -1217 c0 -783 -4 -1241 -10 -1283 -28 -177
-92 -273 -205 -305 -80 -24 -252 -17 -315 11 -87 39 -135 110 -167 240 -15 62
-17 191 -20 1312 l-4 1242 -290 0 -290 0 4 -1247z m384 1202 c63 -27 97 -70
114 -145 31 -136 -111 -268 -249 -231 -117 32 -183 168 -133 276 45 99 165
143 268 100z m1302 -5 c50 -25 88 -71 102 -123 39 -147 -90 -281 -240 -247
-179 40 -213 286 -51 368 57 28 136 30 189 2z m-1356 -541 c79 -22 147 -111
147 -194 0 -124 -131 -227 -247 -196 -198 54 -210 322 -18 389 40 14 72 14
118 1z m1348 0 c89 -30 139 -101 139 -197 0 -134 -123 -226 -252 -188 -60 17
-108 60 -132 118 -64 151 90 318 245 267z m-1308 -581 c49 -24 94 -88 103
-144 23 -155 -131 -278 -274 -218 -91 37 -145 138 -122 226 38 141 165 200
293 136z m1356 -6 c65 -40 94 -98 89 -184 -3 -56 -8 -73 -34 -105 -79 -99
-218 -109 -304 -23 -112 112 -54 302 105 341 45 10 95 0 144 -29z m-1396 -543
c79 -22 147 -111 147 -194 0 -116 -119 -220 -229 -200 -107 20 -174 97 -174
200 0 135 126 231 256 194z m1342 0 c91 -25 145 -98 145 -194 0 -107 -62 -180
-171 -200 -110 -20 -229 84 -229 200 0 80 60 163 136 190 48 17 68 18 119 4z
m-1302 -581 c49 -24 94 -88 103 -144 24 -159 -136 -281 -282 -215 -84 38 -136
140 -113 224 37 140 165 199 292 135z m1356 -6 c136 -82 117 -294 -31 -357
-184 -76 -355 142 -238 304 65 89 173 110 269 53z m-235 -464 c58 -18 120 -82
135 -142 36 -144 -106 -285 -248 -246 -50 13 -105 60 -132 111 -50 99 8 235
117 274 49 18 76 18 128 3z m-951 -19 c44 -12 102 -60 124 -103 26 -49 43
-126 34 -150 -16 -39 -115 -124 -161 -136 -110 -30 -230 49 -255 166 -11 54
14 123 60 170 56 56 123 74 198 53z m497 -134 c61 -32 110 -111 110 -177 -1
-92 -67 -176 -158 -197 -124 -30 -242 65 -259 209 l-6 51 60 58 c39 38 73 62
99 69 45 12 117 6 154 -13z"/>
<path d="M6990 2100 l0 -1670 290 0 290 0 0 1670 0 1670 -290 0 -290 0 0
-1670z m428 1607 c53 -35 85 -96 85 -162 0 -172 -201 -265 -330 -152 -111 98
-91 258 42 331 48 26 152 18 203 -17z m-55 -528 c43 -12 101 -59 122 -99 59
-115 -6 -260 -131 -289 -198 -47 -333 191 -190 334 59 58 122 76 199 54z m39
-580 c61 -31 108 -111 108 -183 0 -44 -43 -130 -76 -153 -94 -65 -208 -53
-281 30 -59 68 -65 151 -17 234 53 92 165 122 266 72z m-39 -550 c43 -12 101
-59 122 -99 8 -16 17 -45 21 -67 20 -125 -102 -249 -225 -228 -168 28 -234
222 -116 340 56 57 123 75 198 54z m39 -580 c61 -31 108 -111 108 -183 0 -44
-43 -130 -76 -153 -94 -65 -208 -53 -281 30 -59 68 -65 151 -17 234 53 92 165
122 266 72z m-39 -540 c43 -12 101 -59 122 -99 8 -16 17 -45 21 -67 20 -125
-102 -249 -225 -228 -168 28 -234 222 -116 340 56 57 123 75 198 54z"/>
</g>
</svg>
