<?xml version="1.0" standalone="no"?>
<!DOCTYPE svg PUBLIC "-//W3C//DTD SVG 20010904//EN"
 "http://www.w3.org/TR/2001/REC-SVG-20010904/DTD/svg10.dtd">
<svg version="1.0" xmlns="http://www.w3.org/2000/svg"
 width="956.000000pt" height="335.000000pt" viewBox="0 0 956.000000 335.000000"
 preserveAspectRatio="xMidYMid meet">
<metadata>
Created by potrace 1.16, written by Peter Selinger 2001-2019
</metadata>
<g transform="translate(0.000000,335.000000) scale(0.100000,-0.100000)"
fill="#ffffff" stroke="none">
<path d="M0 1675 l0 -1675 4780 0 4780 0 0 1675 0 1675 -4780 0 -4780 0 0
-1675z m3520 1410 c36 -9 99 -22 140 -30 111 -21 567 -48 690 -41 334 19 341
19 431 -3 75 -18 116 -21 305 -21 121 1 316 4 434 8 265 9 671 1 593 -12 l-51
-8 41 -32 c23 -17 56 -56 72 -86 29 -53 30 -60 30 -175 0 -125 -8 -165 -62
-310 -30 -82 -126 -280 -151 -312 -16 -21 -18 -22 -50 -6 -44 21 -62 60 -62
132 0 62 8 89 115 386 48 135 64 231 46 277 -16 42 -54 61 -134 66 -133 8
-264 -41 -393 -147 -168 -139 -289 -382 -268 -536 19 -144 96 -219 417 -405
239 -139 350 -239 417 -375 72 -147 62 -353 -24 -500 -14 -23 -46 -66 -73 -95
-26 -30 -37 -46 -23 -37 13 9 27 17 30 17 4 0 7 -21 8 -47 3 -61 27 -83 89
-83 36 0 52 6 84 33 39 34 206 94 232 83 7 -2 3 -5 -7 -5 -11 -1 -17 -3 -15
-6 3 -2 41 2 84 10 44 8 116 14 160 15 l81 0 36 93 c87 223 151 457 328 1216
99 422 144 597 165 653 6 15 2 17 -21 13 -16 -2 -101 -7 -189 -10 -88 -3 -223
-14 -299 -25 -77 -11 -141 -18 -144 -15 -10 10 10 57 40 90 99 114 336 157
738 136 215 -12 565 -48 589 -61 17 -9 -34 -50 -105 -82 -45 -21 -68 -23 -269
-28 l-220 -5 -57 -305 c-223 -1195 -296 -1473 -427 -1622 l-42 -47 43 -5 c50
-6 399 -42 506 -52 84 -7 83 -12 -3 -71 -36 -25 -43 -33 -25 -29 30 6 116 -26
112 -42 -1 -9 60 -12 253 -10 140 2 254 6 253 9 -2 4 8 16 22 27 19 15 29 18
44 10 10 -6 -14 20 -53 57 -81 77 -127 148 -165 253 -56 156 -69 333 -41 544
74 560 472 1171 900 1382 129 64 190 80 305 81 107 0 164 -20 219 -80 51 -56
65 -106 58 -215 -8 -115 -37 -213 -104 -350 -44 -91 -68 -127 -117 -176 -68
-67 -108 -84 -156 -64 -35 14 -64 55 -53 73 4 7 34 46 65 87 83 110 162 240
199 328 40 96 51 207 25 248 -42 63 -165 70 -280 16 -324 -153 -682 -734 -802
-1302 -26 -120 -26 -418 -1 -509 42 -154 111 -252 211 -301 279 -138 709 98
938 512 24 43 45 77 48 77 3 0 13 -6 24 -14 18 -13 17 -16 -14 -72 -135 -240
-302 -424 -495 -544 -46 -29 -68 -47 -52 -43 17 4 27 2 27 -5 0 -6 -6 -12 -12
-12 -24 -3 87 -17 136 -18 77 -1 51 -8 -74 -20 -63 -6 -149 -18 -190 -27 -114
-25 -443 -25 -527 0 -56 16 -89 18 -340 13 -206 -4 -291 -9 -330 -21 -66 -19
-277 -36 -441 -36 -69 0 -163 -4 -211 -10 -307 -35 -420 -43 -611 -45 -148 -1
-238 -7 -290 -17 -93 -19 -163 -23 -415 -22 -181 0 -217 3 -375 32 -154 29
-198 33 -370 35 -107 1 -242 -2 -300 -7 -93 -7 -122 -5 -260 20 -171 31 -317
36 -450 15 -122 -20 -365 -19 -425 1 -53 18 -179 25 -575 29 -196 2 -190 3
123 10 l329 8 24 26 c19 21 31 25 50 21 20 -5 13 3 -28 37 -55 44 -111 125
-129 187 -18 61 -22 184 -10 271 16 110 53 257 146 573 155 532 201 720 211
863 6 83 -4 230 -13 191 -4 -18 -23 -26 -23 -10 0 4 -20 18 -45 30 -73 35
-197 27 -257 -18 -30 -22 -34 -20 -18 11 21 38 1 18 -23 -23 -72 -125 -107
-359 -71 -477 7 -24 6 -24 -37 -17 -73 11 -111 37 -141 96 -59 112 -20 278
100 430 l36 45 -34 -30 c-18 -16 -30 -25 -27 -18 8 13 -29 104 -46 115 -36 23
-137 -4 -191 -51 -18 -15 -18 -15 -12 7 4 12 5 22 2 22 -10 0 -85 -246 -130
-425 -152 -609 -277 -1463 -247 -1681 6 -38 17 -89 26 -113 8 -24 15 -46 15
-49 0 -2 -27 -2 -61 1 -78 7 -129 39 -160 104 -22 44 -24 63 -27 223 -7 333
41 623 221 1333 35 136 62 247 61 247 -6 0 -134 -205 -184 -295 -162 -291
-390 -796 -535 -1185 -32 -85 -61 -159 -65 -163 -14 -16 -81 -10 -102 9 -81
73 -91 288 -48 1044 6 91 12 287 15 435 l5 270 -33 -70 c-19 -38 -105 -241
-191 -450 -471 -1135 -572 -1348 -692 -1454 -40 -35 -90 -59 -100 -48 -6 6 36
101 271 617 229 502 569 1259 636 1415 54 126 63 204 28 229 -31 21 -111 21
-175 -1 -141 -48 -251 -263 -258 -508 -3 -99 -3 -100 -27 -97 -86 9 -155 170
-129 300 25 123 125 254 259 341 64 41 74 54 21 26 -25 -13 -29 -13 -34 0 -4
11 -21 15 -56 15 -27 0 -50 5 -50 10 0 6 24 10 54 10 29 0 78 5 107 12 30 6
71 12 92 12 20 1 37 3 37 6 0 6 12 6 170 9 64 1 142 -4 175 -11 42 -9 155 -13
385 -12 312 0 331 1 469 28 122 23 175 28 340 30 164 3 209 7 277 25 168 45
212 51 369 46 86 -3 178 -11 215 -20z"/>
<path d="M4955 2971 c-75 -4 -123 -12 -149 -24 -21 -10 -48 -16 -58 -13 -19 4
-19 4 -2 -15 15 -17 16 -21 2 -36 -52 -60 -192 -419 -298 -767 -218 -717 -283
-1192 -189 -1378 10 -20 23 -39 29 -43 5 -3 1 10 -11 29 -31 53 -20 60 36 23
28 -18 70 -39 95 -46 25 -8 65 -20 90 -28 50 -16 189 -9 250 12 32 11 35 16
36 51 4 119 1 109 25 88 16 -14 13 -6 -10 31 -111 175 -100 445 23 566 54 53
143 97 217 108 35 5 65 7 67 6 2 -2 -13 -25 -34 -52 -140 -182 -161 -460 -44
-593 25 -28 28 -30 14 -7 l-17 27 50 -24 c69 -35 147 -54 255 -61 152 -11 367
18 452 61 46 22 52 17 20 -18 l-29 -31 38 29 c46 36 93 100 113 156 24 65 22
199 -5 268 -45 117 -126 194 -350 332 -332 204 -429 285 -488 407 -35 73 -44
222 -19 322 61 244 269 482 516 592 36 15 54 26 40 22 -69 -16 -92 -18 -100
-5 -7 11 -58 14 -232 15 -123 1 -272 -1 -333 -4z"/>
<path d="M1585 2943 c-16 -3 -38 -11 -49 -19 -11 -8 -30 -14 -43 -14 l-22 0
29 -62 c16 -35 37 -103 47 -153 26 -132 24 -607 -5 -1015 -12 -168 -24 -343
-27 -390 l-5 -85 28 90 c111 351 413 936 760 1470 46 71 77 123 68 116 -9 -7
-16 -9 -16 -3 0 12 -34 26 -128 51 -64 17 -103 20 -340 19 -147 0 -280 -3
-297 -5z"/>
<path d="M4045 2929 c-144 -12 -285 -30 -310 -39 -11 -4 -45 -37 -75 -74 -37
-43 -57 -60 -60 -51 -3 8 -5 -57 -5 -143 0 -149 -2 -165 -39 -307 -21 -82 -81
-289 -133 -460 -146 -479 -174 -596 -180 -748 -5 -103 -3 -140 12 -192 37
-137 109 -191 246 -183 100 6 172 40 254 123 74 73 127 150 185 264 74 149
110 258 210 651 155 607 252 931 324 1082 18 37 27 63 21 58 -6 -5 -16 -6 -21
-1 -35 30 -207 38 -429 20z"/>
<path d="M4004 1068 c-58 -129 -191 -294 -297 -369 -64 -45 -81 -63 -38 -40
12 7 43 2 102 -15 97 -29 164 -27 231 7 22 11 46 18 53 15 8 -3 4 16 -13 52
-31 67 -40 192 -23 312 5 41 9 76 7 77 -2 2 -11 -16 -22 -39z"/>
</g>
</svg>
