<?xml version="1.0" standalone="no"?>
<!DOCTYPE svg PUBLIC "-//W3C//DTD SVG 20010904//EN"
 "http://www.w3.org/TR/2001/REC-SVG-20010904/DTD/svg10.dtd">
<svg version="1.0" xmlns="http://www.w3.org/2000/svg"
 width="1083.000000pt" height="844.000000pt" viewBox="0 0 1083.000000 844.000000"
 preserveAspectRatio="xMidYMid meet">
<metadata>
Created by potrace 1.16, written by Peter Selinger 2001-2019
</metadata>
<g transform="translate(0.000000,844.000000) scale(0.100000,-0.100000)"
fill="#000000" stroke="none">
<path d="M6785 8159 c-333 -33 -633 -174 -865 -408 -118 -119 -202 -236 -280
-391 -96 -193 -101 -217 -106 -560 -1 -96 -5 -224 -8 -285 -5 -96 -8 -111 -25
-119 -57 -25 -83 -187 -85 -516 -1 -177 1 -209 16 -237 10 -17 27 -34 37 -38
20 -6 20 -6 0 -26 -24 -24 -39 -61 -39 -95 0 -13 -3 -24 -6 -24 -3 0 -50 23
-105 51 -66 35 -116 54 -148 57 -43 4 -51 8 -69 41 -52 92 -116 124 -246 120
-88 -2 -93 -1 -181 41 -107 50 -164 59 -236 36 -63 -21 -102 -9 -125 36 -9 17
-32 37 -53 47 -21 9 -77 58 -126 108 -102 107 -143 129 -229 120 -30 -3 -71
-13 -91 -23 -40 -19 -44 -18 -140 41 -40 25 -89 33 -99 16 -16 -26 -172 29
-204 72 -7 9 -21 17 -31 17 -10 0 -26 9 -36 20 -12 13 -22 17 -28 11 -6 -6 -4
-16 7 -26 9 -9 16 -19 16 -23 0 -4 -18 -68 -39 -142 -44 -155 -54 -203 -42
-196 21 14 101 256 101 308 0 10 6 18 14 18 16 0 34 -41 39 -90 4 -33 4 -32 5
8 2 47 13 52 52 22 14 -11 31 -20 39 -20 9 0 11 -6 6 -17 -13 -31 -66 -245
-62 -249 2 -2 19 40 37 93 37 108 66 173 79 173 19 0 18 -15 -5 -51 -33 -53
-18 -49 33 8 l42 48 48 -25 c46 -24 50 -29 88 -124 30 -74 41 -93 43 -74 2 14
-6 51 -16 82 -17 51 -17 56 -3 51 9 -4 28 -9 43 -12 43 -8 52 -26 44 -89 -7
-58 -19 -91 -181 -503 -53 -133 -94 -248 -93 -253 5 -13 229 511 271 632 38
109 47 193 23 219 -17 19 -16 20 29 27 28 4 63 2 84 -5 52 -15 122 -67 115
-85 -3 -9 4 -19 17 -27 38 -20 57 -51 64 -104 13 -109 -30 -275 -156 -594 -38
-96 -67 -176 -65 -178 5 -6 109 200 167 330 27 62 58 146 69 187 24 93 42 241
34 266 -4 12 8 5 33 -19 22 -21 46 -57 54 -80 22 -66 119 -205 119 -170 0 5
-20 45 -45 89 -51 89 -55 103 -22 81 12 -9 56 -36 97 -61 119 -70 135 -90 150
-177 18 -103 16 -279 -3 -364 -15 -66 -117 -368 -138 -407 -6 -10 -8 -18 -5
-18 2 0 26 34 51 75 53 84 139 288 160 380 19 80 19 227 -1 323 -23 113 -81
209 -104 172 -4 -7 -33 7 -78 37 l-71 48 82 3 c80 3 84 2 172 -42 126 -63 151
-107 180 -318 8 -62 22 -158 30 -213 l14 -100 -5 140 c-8 262 -33 382 -92 449
-17 18 -15 19 64 13 110 -7 144 -25 194 -101 22 -35 68 -91 103 -124 61 -61
135 -117 142 -110 3 2 -31 40 -75 83 -44 44 -80 83 -80 88 0 12 33 0 145 -53
55 -26 114 -51 132 -54 23 -5 33 -14 38 -34 l8 -27 8 32 c12 42 23 48 89 48
30 0 62 4 70 8 13 6 15 -5 16 -71 2 -98 24 -175 69 -243 20 -28 38 -57 42 -62
8 -13 -67 1 -84 15 -9 7 -13 7 -13 0 0 -14 50 -49 81 -57 17 -4 30 -1 38 9 10
12 8 22 -17 58 -50 73 -73 127 -88 205 -8 41 -14 84 -14 96 1 22 1 22 15 3 18
-24 18 -22 0 83 -17 93 -10 134 25 166 24 22 39 12 22 -15 -59 -95 74 -206
358 -298 201 -65 355 -92 598 -105 99 -5 48 10 -58 17 -368 27 -736 145 -853
276 -36 39 -48 82 -27 95 6 3 10 -5 10 -19 0 -107 339 -262 706 -322 156 -26
590 -26 757 -1 284 43 525 138 810 318 60 38 111 69 113 69 2 0 1 -12 -2 -27
-8 -36 -45 -75 -119 -128 -200 -142 -523 -238 -900 -266 -201 -15 -261 -30
-90 -23 382 15 623 67 858 185 91 46 182 105 211 138 11 11 25 21 32 21 8 0
17 12 20 26 l7 26 15 -25 c9 -14 38 -36 65 -48 59 -28 83 -56 92 -109 4 -22
11 -40 16 -40 18 0 92 -88 124 -150 38 -73 64 -111 65 -93 0 8 18 2 48 -15 34
-20 55 -43 75 -80 16 -29 23 -52 18 -52 -6 0 -11 -4 -11 -10 0 -5 22 -10 49
-10 40 0 53 -4 65 -22 24 -34 20 -41 -32 -65 -57 -26 -95 -62 -232 -217 -192
-219 -210 -226 -555 -226 -120 0 -378 -5 -574 -11 -645 -20 -894 3 -1167 111
-257 102 -489 218 -601 302 -82 60 -94 93 -104 280 -9 153 -19 208 -38 208 -5
0 -7 -26 -5 -57 2 -32 5 -112 8 -178 3 -81 9 -134 20 -160 40 -95 167 -188
431 -316 292 -141 410 -182 620 -214 162 -25 515 -29 945 -11 212 10 439 17
505 17 153 -1 277 14 327 40 46 24 165 141 268 264 76 90 169 163 178 137 2
-6 14 -12 26 -12 31 0 87 -50 170 -154 41 -50 89 -109 107 -130 26 -30 29 -38
14 -32 -24 9 -262 21 -254 13 3 -4 50 -11 105 -18 54 -6 124 -19 154 -29 62
-21 84 -16 49 11 -17 13 -19 19 -9 19 27 0 57 -28 114 -107 69 -97 129 -165
120 -138 -5 17 -3 16 14 -4 11 -14 32 -61 48 -105 15 -44 38 -100 51 -124 l24
-45 -33 7 c-64 13 -184 17 -228 8 l-45 -10 45 -1 c76 -3 262 -38 277 -54 12
-12 4 -15 -60 -20 -85 -7 -320 -80 -434 -134 -41 -19 -73 -36 -71 -38 2 -1 68
19 148 45 253 84 422 105 506 64 35 -17 114 -111 114 -136 0 -4 -53 -8 -119
-8 -107 0 -181 -12 -181 -28 0 -4 66 -7 148 -7 120 0 152 -3 177 -17 l30 -17
-56 -1 c-69 0 -225 -31 -301 -60 -159 -59 -353 -243 -517 -489 -126 -189 -141
-269 -85 -449 7 -24 6 -24 -22 -8 -16 9 -41 26 -55 38 -31 27 -136 188 -144
221 -3 12 3 67 14 122 28 146 35 195 24 195 -5 0 -19 -44 -32 -97 -31 -136
-33 -138 -47 -48 l-12 80 2 -100 c2 -55 6 -108 11 -117 14 -34 -10 -17 -45 30
-19 26 -39 50 -45 54 -6 5 -9 81 -7 205 3 242 -13 244 -23 3 -5 -111 -4 -174
4 -193 11 -27 6 -32 -163 -200 -145 -144 -246 -262 -246 -287 0 -3 51 44 113
105 165 162 318 302 311 285 -3 -8 -25 -69 -49 -136 -25 -66 -54 -142 -65
-168 -28 -66 -25 -69 10 -13 17 26 31 47 33 47 1 0 3 -85 5 -189 2 -162 0
-191 -13 -205 -19 -18 -96 -42 -181 -56 -68 -11 -434 -14 -434 -3 0 4 24 32
53 62 l52 54 -55 -38 c-30 -21 -64 -47 -76 -57 -17 -16 -41 -18 -170 -20
l-149 -1 100 -8 c55 -5 208 -13 340 -19 261 -12 357 -5 461 30 80 28 106 47
99 70 -3 11 -2 27 3 36 16 28 23 -1 16 -58 -6 -41 -15 -60 -39 -84 -37 -38
-62 -46 -274 -81 -124 -21 -155 -29 -122 -31 59 -4 302 26 353 44 22 8 42 14
44 14 1 0 -2 -15 -7 -32 -5 -18 -7 -49 -4 -68 5 -31 2 -38 -22 -56 -15 -11
-49 -28 -75 -38 -26 -10 -56 -28 -66 -41 -15 -19 -31 -24 -98 -30 -45 -4 -95
-15 -117 -26 -30 -15 -41 -17 -56 -7 -15 9 -26 9 -46 0 -15 -7 -31 -10 -36 -7
-5 4 -23 -1 -41 -9 -67 -30 -110 -38 -157 -31 -64 10 -87 10 -161 -1 -74 -10
-193 -9 -218 2 -15 7 -61 10 -242 17 -25 1 -51 8 -59 15 -9 9 -27 11 -50 8
-44 -7 -50 -3 -77 54 -26 56 -104 104 -157 97 -30 -4 -31 -4 -8 -12 22 -7 20
-9 -20 -22 -53 -19 -87 -40 -100 -65 -10 -18 -9 -18 18 -4 16 8 56 20 89 27
52 10 63 10 92 -5 33 -17 50 -41 38 -54 -4 -3 -11 0 -16 8 -7 11 -30 15 -89
15 -65 0 -85 -4 -108 -21 -31 -23 -59 -67 -79 -123 l-13 -36 -1 35 c0 19 5 52
11 73 14 50 5 58 -17 15 -11 -20 -17 -56 -17 -93 -1 -61 -14 -44 -16 20 -2 73
84 188 152 202 34 7 46 23 17 23 -64 0 -168 -95 -190 -174 -23 -83 8 -165 76
-205 l35 -21 -7 22 c-20 64 -22 92 -8 140 19 62 67 114 114 122 l35 6 -22 -19
c-28 -24 -73 -90 -73 -108 0 -8 15 5 33 29 41 54 91 88 130 88 l30 0 -34 -23
c-36 -23 -99 -134 -99 -171 1 -13 14 4 35 45 37 71 87 123 114 115 9 -3 32 -8
52 -11 l36 -7 -20 -40 c-11 -22 -22 -63 -24 -92 l-3 -51 23 68 c26 76 55 120
82 125 16 4 15 1 -3 -18 -21 -23 -56 -110 -44 -109 4 0 18 24 33 52 l25 52 55
-1 c53 0 159 -7 159 -11 0 0 -13 -30 -30 -65 -42 -88 -38 -118 5 -39 39 72 71
111 93 111 10 0 12 -4 5 -12 -6 -7 -13 -22 -17 -33 -6 -16 -2 -15 22 8 27 26
33 27 113 25 46 -1 107 3 134 9 61 14 84 3 117 -60 16 -31 23 -37 26 -24 2 10
-6 34 -17 53 -19 32 -20 35 -4 32 10 -2 29 -26 43 -53 14 -28 26 -52 28 -54 1
-2 5 -1 8 2 4 3 0 26 -8 51 l-15 44 41 6 c87 13 89 13 113 -23 18 -26 23 -30
23 -14 0 10 -7 28 -15 39 -20 27 -19 34 9 34 15 0 36 -13 56 -36 38 -44 50
-38 22 11 -21 34 -21 35 -2 35 14 0 28 -16 45 -50 14 -27 28 -50 31 -50 6 0
-3 60 -12 85 -11 27 49 45 152 45 87 0 100 -2 121 -22 33 -30 30 -2 -3 33
l-25 27 35 21 c23 14 47 21 68 19 28 -3 37 -11 60 -53 15 -27 28 -60 28 -73 0
-14 4 -21 11 -17 13 8 3 78 -17 117 -8 15 -24 34 -36 42 -18 13 -19 16 -5 21
54 21 91 -44 107 -189 7 -55 9 -108 7 -118 -3 -10 -1 -16 4 -13 4 3 13 24 19
46 13 49 25 45 16 -4 -9 -49 -60 -114 -102 -132 -47 -20 -47 -20 -29 15 19 37
19 120 0 167 -21 51 -26 37 -13 -34 6 -33 8 -72 4 -86 -8 -34 -63 -97 -84 -97
-13 0 -12 4 5 22 42 47 35 51 -16 11 -47 -38 -71 -51 -71 -40 0 2 7 17 14 33
17 34 33 123 20 111 -5 -5 -25 -38 -44 -75 -21 -41 -48 -75 -69 -89 -46 -31
-56 -29 -30 7 13 16 21 32 18 34 -2 3 -28 -13 -57 -35 -28 -22 -52 -37 -52
-34 0 3 16 27 35 54 41 57 47 88 8 39 -54 -68 -108 -118 -125 -118 -10 0 -20
10 -24 25 -6 24 -24 35 -24 15 0 -5 -13 -10 -29 -10 -16 0 -46 -6 -67 -13 -22
-8 -52 -17 -69 -21 l-30 -8 24 26 c14 14 22 28 19 31 -2 3 -17 -9 -33 -25 -42
-44 -57 -40 -38 10 17 42 9 69 -11 36 -39 -65 -54 -81 -84 -90 -39 -11 -43
-30 -4 -23 206 39 253 47 289 47 23 0 45 -5 48 -10 9 -14 121 -6 139 10 8 6
24 9 35 5 11 -3 37 2 58 11 21 9 55 20 76 25 20 5 56 14 80 20 106 27 102 28
121 -40 16 -59 16 -62 -4 -110 -20 -46 -38 -60 -78 -61 -10 0 -10 5 -2 21 18
33 4 33 -20 -1 -12 -16 -26 -27 -31 -24 -6 3 -19 -2 -29 -11 -27 -24 -141 -31
-400 -23 -52 2 -99 0 -105 -3 -5 -4 -35 -3 -65 2 -33 5 -58 5 -64 -1 -13 -13
-55 11 -93 54 -34 39 -66 46 -98 22 -14 -10 -25 -11 -38 -4 -10 5 -23 8 -30 5
-6 -2 -18 3 -26 10 -8 8 -23 12 -35 9 -12 -3 -30 2 -40 10 -11 8 -37 14 -58
14 -26 0 -46 7 -61 21 l-22 22 25 -8 c14 -4 69 -9 123 -11 54 -2 102 -6 107
-9 4 -3 36 -2 70 2 49 5 70 12 96 35 40 35 64 104 63 177 -1 31 -3 47 -6 36
-27 -130 -38 -160 -71 -197 -33 -36 -37 -38 -96 -38 -69 0 -126 13 -138 32 -4
7 -8 28 -8 46 0 22 -4 32 -12 30 -18 -6 -22 -52 -8 -79 12 -21 11 -21 -27 -15
-21 3 -78 9 -128 12 -49 4 -96 11 -103 17 -10 8 -16 7 -23 -4 -8 -12 -13 -10
-29 10 -11 13 -20 32 -20 42 0 10 -4 19 -10 19 -14 0 -12 -43 3 -60 9 -10 5
-9 -13 2 -28 17 -54 81 -47 116 3 14 0 21 -7 19 -18 -6 -19 -73 -1 -107 l17
-32 -34 7 c-18 4 -51 15 -73 25 -22 10 -64 28 -93 41 -59 24 -92 59 -92 96 0
14 -4 21 -10 18 -14 -9 -12 -41 5 -74 14 -27 73 -60 138 -76 29 -8 33 -15 16
-32 -29 -29 -9 -116 44 -189 12 -18 28 -40 35 -50 11 -17 12 -17 6 6 -5 19 4
12 36 -28 34 -42 47 -52 72 -52 17 0 46 -9 65 -21 18 -12 41 -18 49 -15 25 10
126 -24 156 -51 22 -21 33 -24 61 -19 21 4 47 1 68 -8 19 -8 55 -14 79 -14 52
-1 135 -17 168 -34 17 -9 25 -9 34 0 9 9 17 6 33 -15 25 -31 107 -56 141 -43
31 12 171 12 293 1 84 -8 109 -7 131 4 15 8 76 17 136 21 60 4 115 10 123 14
8 4 29 3 48 -2 27 -7 40 -5 67 11 28 18 37 19 64 9 27 -10 38 -10 65 3 17 9
49 23 70 32 20 9 37 22 37 27 0 6 5 8 10 5 16 -10 57 21 74 53 8 15 17 46 21
67 11 63 15 75 30 75 26 0 55 51 55 97 l0 45 39 -49 c43 -54 121 -131 121
-120 0 4 -23 38 -50 76 -84 115 -105 171 -104 271 1 69 8 102 34 175 36 100
83 197 129 265 17 24 28 46 25 49 -7 8 -60 -59 -101 -128 l-37 -64 -18 39
c-10 21 -18 45 -18 53 0 17 92 133 174 218 32 35 54 63 48 63 -14 0 -144 -127
-195 -190 l-37 -45 0 80 c0 44 7 107 15 140 8 33 14 90 15 127 l0 67 63 44
c34 24 104 68 154 97 51 30 91 56 89 58 -7 6 -159 -74 -230 -122 -38 -25 -71
-46 -73 -46 -9 0 8 70 28 118 11 26 43 71 72 100 58 58 53 72 -6 16 -21 -20
-39 -35 -41 -33 -2 2 -9 14 -15 27 -11 20 -9 29 14 65 l28 42 -34 -32 c-40
-38 -57 -32 -61 19 -2 39 21 75 155 236 38 46 67 85 64 88 -7 7 -160 -160
-199 -216 -18 -27 -35 -50 -38 -50 -3 0 -11 9 -18 20 -10 17 -7 31 29 103 46
90 104 180 154 236 17 20 45 54 61 75 29 39 29 39 4 26 -51 -26 -215 -204
-248 -267 -18 -35 -38 -62 -45 -60 -7 1 -11 -7 -9 -20 2 -12 -7 -53 -18 -92
-16 -53 -19 -78 -12 -98 9 -28 9 -28 32 24 22 53 36 65 45 40 7 -17 -83 -189
-91 -175 -14 22 -16 159 -4 220 17 92 65 199 127 286 67 94 205 236 293 301
141 105 308 164 395 140 45 -13 107 -68 134 -119 l21 -40 -93 5 -92 4 71 -10
c63 -9 76 -15 105 -46 20 -21 27 -33 17 -30 -24 8 -231 -28 -298 -52 -67 -24
-55 -25 75 -6 55 8 132 15 171 15 71 0 72 0 108 -40 20 -22 36 -44 36 -49 0
-5 31 -47 69 -94 61 -76 112 -169 99 -182 -2 -3 -138 0 -301 6 -326 12 -437 4
-227 -17 69 -7 231 -15 360 -19 212 -6 238 -9 263 -27 16 -11 31 -17 34 -14 9
9 -54 66 -74 66 -12 0 -19 8 -20 20 -3 40 -48 112 -120 192 -41 45 -72 87 -69
93 6 16 -30 75 -45 75 -6 0 -8 7 -5 16 4 9 -1 29 -11 43 -9 14 -16 38 -14 53
1 14 -3 29 -9 33 -8 5 -8 11 1 22 10 11 9 25 -6 66 -19 52 -21 97 -12 222 5
74 13 102 34 123 8 8 11 38 10 88 -1 42 1 78 5 80 5 3 8 16 8 30 0 14 5 34 10
44 11 20 -5 70 -22 70 -5 0 -7 9 -3 19 3 11 -1 26 -10 35 -15 15 -15 17 -1 32
18 18 20 32 6 54 -5 9 -5 19 1 26 16 20 7 109 -11 109 -8 0 -15 -7 -15 -15 0
-21 -34 -39 -73 -40 -39 0 -120 19 -127 30 -3 5 0 31 7 59 11 49 13 51 47 51
l36 1 -40 14 c-22 8 -69 21 -104 29 -35 8 -68 19 -73 24 -6 6 -6 43 1 98 6 49
11 123 11 165 l0 75 88 -4 c48 -2 110 -7 137 -11 46 -6 50 -9 53 -35 2 -16 -3
-79 -12 -140 -8 -61 -17 -135 -19 -163 -4 -52 -3 -53 22 -53 25 0 27 -3 23
-35 -6 -49 13 -44 24 7 5 23 14 43 21 45 7 3 9 -4 5 -19 -5 -21 -4 -22 11 -9
9 7 17 19 17 26 0 7 7 18 15 25 9 7 13 20 10 27 -3 8 1 42 9 76 26 114 29 198
11 245 -10 23 -20 43 -24 43 -3 1 -98 2 -211 3 l-205 2 -2 -59 c-2 -33 -7 -85
-13 -116 -5 -31 -11 -88 -12 -127 -3 -81 11 -109 63 -118 98 -19 89 -13 89
-68 0 -42 -2 -49 -14 -39 -20 17 -25 3 -23 -66 1 -51 -3 -67 -26 -100 -28 -40
-34 -72 -18 -88 5 -6 5 -36 -1 -73 -7 -47 -6 -67 3 -78 9 -11 9 -24 -1 -61
l-14 -46 -29 34 c-32 38 -86 140 -116 220 -19 48 -20 63 -11 198 9 138 31 397
46 543 9 90 -2 151 -33 188 -14 17 -24 32 -22 34 11 8 247 -12 266 -22 15 -8
28 -33 41 -74 21 -73 38 -84 48 -32 10 56 -13 113 -56 139 -32 18 -52 20 -210
20 -150 0 -203 5 -372 33 -108 17 -272 39 -365 47 -201 18 -200 18 -187 6 5
-5 103 -21 217 -36 114 -14 284 -38 377 -54 143 -24 175 -33 205 -55 19 -15
38 -39 42 -54 12 -40 9 -232 -5 -442 -7 -102 -15 -222 -18 -268 l-6 -82 -31
26 c-17 14 -50 58 -74 97 -23 40 -50 81 -60 93 -20 23 -167 124 -181 124 -5 0
-34 35 -64 78 -59 81 -138 162 -161 162 -9 0 -12 11 -9 35 3 28 -1 40 -27 65
-26 26 -35 30 -64 25 -34 -7 -34 -6 -41 33 -8 55 -47 97 -109 120 -50 19 -54
23 -93 101 -29 58 -36 80 -25 77 9 -3 108 -10 221 -15 113 -6 244 -13 293 -16
48 -3 87 -1 87 3 0 5 -136 19 -302 31 -167 13 -313 24 -325 26 -37 3 -59 32
-93 123 -10 25 -27 40 -69 62 -67 34 -106 75 -106 112 1 17 19 50 52 90 81
101 90 133 53 181 l-21 26 26 52 c43 83 50 193 20 287 -4 16 9 16 158 10 198
-8 521 -34 679 -53 220 -28 333 -82 374 -177 30 -71 32 -369 4 -546 -12 -75
-28 -151 -35 -168 -7 -17 -36 -50 -64 -74 -28 -24 -51 -47 -51 -51 0 -11 56 7
96 32 48 29 60 51 83 148 52 218 49 551 -6 674 -14 32 -37 67 -51 78 -14 10
-23 21 -21 24 9 9 182 -35 214 -55 38 -23 109 -114 132 -168 20 -46 21 -165 4
-327 -17 -161 -38 -274 -53 -293 -7 -8 -54 -34 -104 -57 -106 -50 -123 -65
-62 -58 113 13 184 47 213 103 18 34 48 206 65 370 15 134 5 221 -33 303 -32
68 -97 140 -150 166 -42 20 -427 102 -568 121 -154 20 -570 52 -707 53 l-142
2 5 25 c28 140 33 390 10 544 -19 128 -77 348 -116 441 -51 123 -141 249 -268
375 -249 247 -533 378 -886 410 -113 10 -128 10 -240 -1z m370 -85 c216 -35
457 -146 629 -288 64 -53 184 -191 240 -275 58 -87 140 -252 160 -321 16 -54
56 -289 56 -329 0 -17 -6 -21 -34 -21 -31 0 -36 4 -47 38 -6 20 -26 66 -44
102 -191 379 -657 674 -1210 766 -140 24 -417 23 -550 0 -209 -38 -401 -113
-524 -206 -29 -23 -55 -39 -57 -37 -2 2 31 46 74 98 71 85 183 188 269 247 65
45 311 163 388 187 212 63 422 76 650 39z m-357 -344 c252 -27 456 -86 677
-197 314 -157 564 -410 651 -661 16 -47 16 -54 3 -68 -14 -13 -19 -8 -44 53
-65 153 -237 363 -397 484 -303 232 -553 329 -928 361 -423 36 -815 -105 -995
-357 -43 -60 -135 -240 -135 -264 0 -27 18 -6 46 51 37 78 110 191 158 243
l37 40 -25 -45 c-37 -67 -84 -193 -111 -300 -80 -320 -66 -654 42 -964 44
-127 132 -301 195 -383 53 -71 50 -71 -37 -2 -81 64 -186 174 -219 230 -35 61
-83 194 -104 289 -23 103 -22 422 1 620 10 80 20 153 23 163 3 9 1 17 -5 17
-14 0 -22 -30 -42 -165 l-18 -120 4 150 c7 222 43 344 141 474 50 67 150 152
240 204 211 124 532 180 842 147z m803 -411 l56 -38 -23 -71 c-55 -169 -69
-276 -69 -535 1 -208 4 -253 23 -340 36 -169 84 -296 162 -434 22 -39 40 -72
40 -75 0 -3 -20 -21 -45 -42 l-46 -37 -37 43 c-56 64 -146 211 -181 293 -40
97 -75 220 -97 342 -23 126 -26 452 -6 565 33 184 78 332 114 377 12 15 25 9
109 -48z m225 -191 c91 -95 137 -162 193 -278 22 -45 45 -87 50 -94 8 -10 6
-26 -9 -59 -71 -161 -61 -387 22 -478 34 -37 34 -48 3 -146 -32 -99 -92 -182
-239 -328 -61 -60 -95 -98 -76 -85 59 41 209 191 260 259 46 62 100 191 100
240 0 16 46 51 66 51 8 0 -61 -181 -93 -245 -66 -131 -112 -185 -217 -254 -53
-35 -96 -65 -96 -68 0 -8 89 42 180 103 92 60 188 149 176 162 -4 3 -23 -10
-43 -29 l-36 -34 27 45 c48 79 103 203 137 309 35 112 41 113 54 10 9 -73 -6
-129 -69 -270 -30 -66 -53 -119 -51 -119 5 0 75 110 75 120 0 19 17 10 28 -15
18 -38 -15 -95 -105 -183 -77 -75 -273 -211 -404 -280 -88 -47 -222 -96 -338
-123 -276 -66 -692 -75 -1011 -23 -106 18 -299 71 -375 104 -74 32 -200 108
-227 138 -22 24 -21 24 17 -4 l40 -29 -37 42 c-20 23 -42 52 -48 65 -11 20 -9
19 21 -7 19 -17 45 -39 59 -50 l25 -20 -25 30 c-14 17 -48 55 -76 85 -77 84
-108 135 -100 166 7 25 8 24 70 -43 60 -65 137 -127 216 -175 48 -29 27 -10
-45 42 -187 135 -287 290 -345 534 -11 45 -20 92 -19 106 0 14 7 -6 15 -45 23
-105 77 -257 115 -321 72 -119 314 -313 512 -410 42 -21 77 -44 77 -50 0 -32
158 -70 351 -85 334 -25 597 25 856 163 172 91 202 116 48 38 -146 -73 -173
-78 -52 -11 184 104 402 288 479 405 36 57 94 214 86 237 -2 6 -18 -27 -36
-74 -41 -108 -159 -287 -189 -287 -14 0 -72 101 -114 199 -150 350 -169 802
-42 1056 25 49 60 95 73 95 4 0 43 -37 86 -82z m412 -357 c27 -17 12 -278 -18
-330 -8 -14 -10 -13 -11 4 -1 11 -3 25 -3 32 -3 33 -16 21 -16 -15 0 -45 13
-60 35 -42 18 15 18 12 1 -67 -16 -75 -57 -136 -89 -131 -57 8 -83 166 -52
320 18 90 69 213 94 228 20 12 42 12 59 1z m-2698 -478 c14 -111 48 -229 92
-318 26 -50 30 -71 29 -122 -2 -63 7 -92 41 -129 19 -21 19 -21 -6 -38 -42
-27 -59 -72 -53 -137 6 -68 4 -69 -88 -69 -43 0 -66 -5 -75 -15 -23 -28 -29
-15 -13 33 8 26 28 59 43 74 l28 26 -28 12 c-59 24 -65 40 -69 183 -3 141 13
419 30 498 9 39 41 99 53 99 2 0 9 -44 16 -97z m4411 -1323 c22 -13 25 -62 9
-205 -15 -136 -17 -142 -52 -154 -49 -17 -61 -14 -54 12 56 186 78 318 56 332
-15 9 -12 25 6 25 8 0 24 -5 35 -10z m-46 -580 c-12 -13 -16 -30 -12 -52 4
-29 -1 -37 -35 -67 -43 -36 -44 -54 -3 -27 38 25 59 14 52 -29 -4 -25 -2 -33
7 -29 8 3 16 -3 20 -13 9 -21 -21 -46 -78 -64 -27 -8 -35 -14 -23 -17 10 -2
32 1 49 7 17 6 34 9 36 6 3 -3 -14 -26 -38 -50 -47 -48 -47 -54 0 -30 30 15
30 15 30 -13 0 -23 -7 -32 -35 -45 -20 -9 -43 -17 -53 -17 -16 -1 -16 -1 1
-11 10 -6 31 -7 47 -4 18 4 30 3 30 -4 0 -10 -39 -22 -115 -36 l-40 -8 30 -9
c17 -5 50 -6 75 -3 l45 6 -35 -31 c-28 -25 -31 -30 -12 -25 26 8 28 -7 9 -97
l-12 -57 -43 39 c-23 22 -42 47 -42 56 0 34 -54 115 -94 142 l-42 27 12 55 c7
30 12 51 13 46 0 -5 4 -7 7 -3 4 3 -4 22 -16 41 -29 48 -18 61 27 31 56 -38
61 -29 9 16 -47 42 -64 73 -24 45 36 -25 42 -19 14 15 -37 44 -43 75 -19 108
12 15 24 50 28 79 4 29 8 52 8 52 1 0 25 -7 52 -15 53 -17 111 -13 155 10 31
16 39 2 15 -25z m-131 -760 c49 -11 74 -35 82 -80 l7 -35 -45 42 c-64 58 -109
69 -205 49 -155 -31 -334 -146 -501 -321 -148 -154 -225 -312 -239 -485 -5
-71 2 -115 34 -200 5 -13 4 -13 -10 0 -8 8 -28 44 -43 80 -21 50 -27 82 -28
141 -1 71 2 81 46 170 106 214 320 465 471 553 72 43 258 94 342 95 28 0 68
-4 89 -9z m-1227 -692 c13 -12 23 -28 23 -35 0 -8 20 -35 44 -61 24 -26 53
-65 64 -88 27 -54 76 -99 128 -121 24 -10 44 -24 44 -31 0 -7 11 -23 23 -36
15 -15 27 -44 33 -77 9 -48 7 -58 -13 -89 -12 -20 -34 -69 -48 -109 -21 -62
-25 -93 -25 -183 0 -85 -3 -107 -12 -101 -14 8 -142 13 -171 6 -9 -2 -15 -8
-12 -13 3 -4 14 -6 24 -3 14 3 35 -9 70 -42 52 -48 65 -47 34 3 l-16 27 20
-20 c33 -31 73 -117 73 -154 0 -57 -21 -112 -48 -122 -35 -13 -46 -11 -32 6
19 23 4 18 -42 -15 -22 -16 -52 -30 -66 -30 l-25 0 23 25 c26 28 18 32 -20 10
-39 -23 -46 -18 -42 26 3 30 -1 48 -17 70 -14 18 -21 43 -21 71 0 24 -9 62
-20 85 -35 78 29 63 84 -19 25 -36 36 -46 36 -33 0 11 -9 35 -20 53 -27 44
-25 50 6 21 52 -49 68 -88 68 -164 0 -38 -6 -81 -13 -94 -11 -19 -11 -23 1
-19 18 6 47 94 48 146 0 24 -7 56 -14 71 -19 37 -82 91 -105 91 -10 0 -32 7
-50 16 -24 12 -39 13 -59 6 -33 -11 -82 9 -82 34 0 9 9 50 19 92 10 43 19 84
19 92 1 8 4 40 8 70 5 45 3 58 -10 69 -14 12 -16 41 -16 213 l0 200 35 78 c19
43 35 83 35 89 0 17 11 13 37 -11z m468 -724 c-9 -43 -15 -116 -14 -163 1 -84
0 -88 -42 -166 -24 -44 -49 -100 -55 -125 l-11 -45 -17 54 c-12 41 -16 96 -16
220 l0 166 33 58 c17 32 55 85 82 117 l50 59 3 -49 c2 -27 -4 -84 -13 -126z
m42 -351 c12 -10 11 -18 -10 -60 -23 -44 -43 -105 -64 -193 -5 -19 -6 -56 -3
-81 l6 -47 -31 23 c-82 63 -186 47 -249 -38 -13 -18 -20 -41 -19 -67 2 -47 -4
-50 -100 -45 -61 2 -72 0 -98 -22 -16 -14 -32 -24 -34 -21 -2 2 1 21 7 41 9
28 9 50 0 88 -18 76 -15 92 21 114 17 11 42 35 54 54 24 35 57 50 68 31 9 -14
51 -12 83 4 16 8 48 12 81 10 41 -3 63 1 88 16 l33 20 37 -57 c36 -56 56 -59
34 -5 -38 96 -33 153 25 257 l27 48 15 -29 c8 -16 21 -34 29 -41z m-112 -395
c27 -26 38 -46 47 -90 10 -45 9 -61 0 -70 -10 -10 -11 -6 -6 18 4 19 0 42 -9
60 -19 37 -53 68 -61 56 -3 -5 1 -16 10 -23 26 -21 44 -66 43 -106 l-1 -38 -8
38 c-4 21 -15 46 -25 55 -17 16 -17 16 -9 -8 22 -68 -9 -236 -52 -271 -20 -16
-28 -5 -15 19 14 26 14 109 1 117 -6 4 -10 -13 -10 -45 0 -56 -28 -123 -59
-140 -28 -15 -33 -13 -21 9 5 11 10 29 10 41 0 18 -8 14 -46 -29 -25 -28 -54
-51 -65 -51 -22 0 -23 7 -4 40 8 14 14 31 15 38 0 22 -17 12 -30 -17 -14 -34
-76 -81 -108 -81 l-21 0 21 35 c25 44 16 58 -13 21 -21 -27 -77 -61 -86 -53
-2 3 0 22 6 44 6 21 10 52 10 68 -1 24 -5 18 -20 -30 -11 -33 -26 -67 -35 -75
-12 -12 -133 -43 -141 -36 -1 1 4 20 12 41 26 73 12 93 -17 25 -9 -23 -30 -48
-50 -60 -44 -27 -48 -25 -35 10 6 16 7 33 3 37 -5 4 -11 3 -13 -4 -2 -7 -13
-23 -24 -37 -17 -22 -29 -26 -71 -26 -27 0 -48 3 -46 8 30 57 49 105 45 115
-2 7 -17 -15 -33 -48 -16 -32 -36 -61 -44 -63 -12 -4 -13 -2 -2 9 6 7 12 22
12 33 0 17 -4 15 -21 -11 -28 -43 -31 -41 -14 7 18 50 6 52 -20 3 -17 -33 -25
-38 -60 -39 -22 -2 -62 -5 -88 -9 l-49 -6 25 33 c37 50 43 80 7 38 -16 -19
-30 -38 -30 -42 0 -3 -14 -9 -31 -13 -32 -7 -74 18 -66 39 2 6 8 22 12 36 6
24 5 23 -25 -7 -17 -18 -33 -33 -34 -33 -2 0 -17 7 -32 15 -16 8 -39 15 -52
15 -15 0 -21 4 -16 12 5 8 -2 9 -23 5 -39 -8 -44 -2 -28 31 16 34 28 72 22 72
-3 0 -19 -25 -36 -55 -17 -30 -35 -55 -41 -55 -5 0 -7 7 -4 15 7 17 -4 19 -25
6 -17 -11 -55 5 -46 18 2 5 -12 3 -33 -4 -33 -12 -40 -11 -71 8 -19 11 -62 31
-95 43 -59 21 -61 23 -68 64 -10 59 -18 62 -18 9 0 -25 5 -50 12 -57 9 -9 9
-12 -4 -12 -8 0 -35 21 -58 46 -39 42 -42 44 -38 20 3 -17 1 -26 -7 -26 -25 0
-32 25 -26 83 5 38 4 56 -3 54 -6 -2 -13 -17 -16 -33 -3 -17 -11 -29 -20 -29
-22 0 -30 15 -30 58 0 23 -4 36 -10 32 -5 -3 -10 -17 -10 -31 0 -14 -4 -22
-10 -19 -16 10 -12 93 6 131 13 27 21 33 38 29 11 -3 39 -7 61 -8 22 -1 47 -7
55 -12 8 -5 35 -10 59 -12 45 -2 131 -32 131 -45 0 -5 15 -8 33 -8 17 0 45 -7
61 -15 15 -8 39 -15 52 -15 26 0 28 -7 15 -42 -4 -13 -11 -36 -15 -52 -6 -26
-5 -28 8 -17 8 7 23 32 32 57 9 24 21 44 27 44 6 0 23 -12 39 -27 28 -26 51
-26 29 1 -9 11 -6 15 15 20 32 8 49 -4 77 -58 15 -29 22 -36 25 -24 3 14 7 15
28 6 13 -6 24 -17 24 -24 0 -7 5 -14 11 -16 7 -2 7 -17 0 -48 -12 -56 -6 -64
14 -17 18 43 20 91 4 81 -7 -4 -10 1 -7 12 2 11 9 19 16 18 6 -1 28 -2 47 -2
36 -2 36 -2 30 -39 l-6 -38 22 40 c12 22 23 41 24 43 1 2 15 0 29 -4 26 -6 27
-9 21 -47 -5 -28 -4 -38 4 -33 6 4 11 18 11 31 0 28 25 56 44 49 10 -4 12 -14
5 -42 -10 -45 -12 -98 -2 -88 4 3 12 32 18 64 l12 57 59 2 c154 6 157 5 187
-29 27 -32 36 -24 16 14 -9 16 -8 19 2 16 7 -2 24 -24 37 -49 l23 -44 -6 54
c-6 50 -5 53 10 41 9 -8 27 -34 40 -59 30 -57 34 -26 5 37 -16 35 -17 44 -5
48 24 9 56 -16 76 -59 14 -32 19 -36 19 -19 0 12 -6 38 -14 57 -17 40 -10 45
60 45 32 0 49 -6 61 -20 23 -27 36 -25 28 3 -14 45 23 -6 49 -68 19 -46 25
-54 26 -33 0 37 -34 113 -60 131 -33 23 -5 32 33 10 17 -10 44 -41 59 -68 35
-63 39 -29 5 37 l-23 46 25 -10 c14 -5 41 -23 59 -41 38 -37 43 -21 6 23 -15
17 -24 33 -22 35 3 3 25 -5 49 -18 36 -19 50 -36 76 -88 24 -47 33 -57 33 -39
-1 39 -34 103 -69 133 l-33 27 28 0 c21 0 41 -14 81 -57 50 -54 72 -56 36 -3
l-16 25 28 -25 28 -25 -16 30 c-20 40 -44 59 -94 75 -24 7 -43 17 -43 22 0 11
36 47 70 70 l25 18 -30 -11 c-35 -12 -85 -57 -85 -76 0 -7 -5 -13 -11 -13 -13
0 -3 48 14 69 26 31 73 51 120 51 40 0 53 -5 82 -32z"/>
<path d="M8187 6702 c-39 -43 -62 -115 -62 -198 0 -75 15 -134 35 -134 4 0 10
51 13 113 5 116 22 179 54 202 17 13 10 35 -11 35 -7 0 -20 -8 -29 -18z"/>
<path d="M260 8073 c-29 -12 -90 -65 -90 -78 0 -8 -7 -18 -16 -23 -27 -15 -54
-101 -61 -194 -6 -81 -4 -90 18 -125 14 -21 31 -50 39 -65 8 -15 36 -51 61
-80 39 -44 56 -79 102 -203 80 -219 81 -223 66 -241 -7 -9 -45 -33 -84 -55
-130 -71 -175 -130 -175 -229 0 -44 18 -110 30 -110 5 0 2 -16 -6 -36 -21 -49
-10 -107 28 -150 17 -19 36 -34 44 -34 10 0 12 -10 8 -43 -7 -52 8 -86 66
-148 22 -24 48 -60 58 -79 12 -24 33 -43 67 -60 46 -23 61 -25 181 -25 l132 0
17 -50 c15 -40 107 -274 168 -426 12 -30 80 -54 130 -46 111 18 229 95 170
110 -14 4 -12 5 5 6 31 1 29 21 -22 174 -25 73 -58 182 -73 242 l-29 110 44
-22 c25 -13 56 -23 68 -23 14 0 37 -14 55 -35 18 -19 37 -35 43 -35 7 0 11
-29 12 -78 1 -104 17 -146 83 -215 56 -60 234 -203 304 -246 20 -12 37 -27 37
-32 0 -17 84 -101 120 -119 19 -9 93 -29 163 -44 149 -31 177 -41 177 -59 0
-15 143 -152 220 -211 45 -34 103 -56 149 -56 39 0 103 36 168 95 l60 54 37
-41 37 -41 -42 -43 c-24 -24 -40 -46 -36 -50 12 -12 58 7 95 40 23 21 52 36
79 41 38 6 50 2 150 -53 59 -33 132 -68 161 -77 28 -9 52 -18 52 -20 0 -5 -44
-79 -61 -103 l-16 -23 -34 20 c-19 10 -79 33 -135 49 -55 16 -133 46 -172 66
-40 20 -86 38 -102 40 -17 2 -55 20 -85 40 -30 20 -55 34 -55 30 0 -36 89
-104 136 -104 20 0 54 -12 81 -29 45 -28 103 -50 270 -101 64 -20 75 -27 91
-59 25 -48 90 -97 140 -105 23 -3 56 -15 74 -25 18 -10 71 -31 118 -45 47 -15
103 -37 124 -49 45 -25 101 -101 116 -156 5 -20 26 -56 45 -79 46 -53 95 -69
158 -54 28 8 55 8 76 2 18 -5 39 -6 46 -3 8 2 21 -2 29 -10 8 -8 57 -31 108
-51 51 -21 111 -48 133 -61 58 -33 176 -95 182 -95 8 0 -50 45 -112 87 -78 53
-144 85 -229 113 -63 21 -68 24 -51 36 10 8 23 14 28 14 4 0 46 18 93 40 68
33 88 39 104 30 16 -9 18 -15 10 -30 -12 -23 -7 -25 19 -9 10 7 30 9 44 5 42
-10 180 -120 226 -179 34 -45 131 -216 131 -232 0 -4 -10 0 -108 50 -29 15
-58 25 -64 23 -14 -5 80 -77 139 -107 33 -16 44 -29 52 -58 6 -21 11 -48 11
-59 0 -12 6 -39 14 -60 7 -22 16 -84 20 -139 10 -144 33 -301 58 -392 27 -100
47 -237 36 -241 -4 -2 -8 -11 -8 -20 0 -10 -13 -29 -29 -44 -22 -21 -33 -46
-46 -104 -9 -41 -14 -78 -11 -82 3 -3 -1 -16 -10 -29 -11 -18 -13 -28 -4 -38
13 -16 4 -59 -16 -76 -8 -6 -14 -24 -14 -40 0 -15 -4 -31 -10 -34 -5 -3 -10
-14 -10 -24 0 -10 -8 -21 -17 -25 -10 -3 -31 -15 -48 -26 -47 -32 -108 -60
-130 -60 -12 0 -26 -5 -32 -11 -6 -6 -35 -11 -65 -11 -57 0 -98 -18 -98 -45 0
-13 3 -14 12 -5 7 7 20 12 30 12 17 0 17 -2 -2 -28 -25 -34 -39 -89 -40 -152
0 -72 16 -81 25 -14 8 69 38 145 67 171 21 18 21 18 4 -14 -27 -53 -19 -51 40
11 30 32 58 55 61 52 4 -3 -2 -15 -11 -25 -10 -11 -24 -37 -32 -58 -15 -44
-18 -171 -4 -193 7 -11 10 3 10 45 1 147 63 245 155 245 l26 0 -19 -27 c-29
-41 -64 -113 -60 -124 2 -5 28 25 58 66 30 42 67 83 82 91 33 17 36 12 8 -16
-11 -11 -20 -27 -20 -36 0 -11 9 -7 29 15 33 35 83 42 117 16 18 -14 18 -14
-7 -15 -27 0 -61 -37 -80 -87 -9 -24 -4 -22 40 21 47 47 51 48 82 37 17 -6 52
-11 78 -11 l45 0 -43 -44 c-37 -38 -44 -52 -48 -93 -3 -34 1 -58 15 -85 19
-36 19 -36 -2 -42 -12 -3 -40 -6 -63 -6 -37 0 -49 6 -87 43 -32 30 -48 55 -56
90 -15 56 -30 62 -30 12 0 -46 21 -87 62 -119 l33 -26 -32 0 c-43 0 -73 15
-103 53 -21 27 -25 42 -25 99 0 59 -2 66 -13 51 -23 -31 -11 -133 22 -183 l28
-43 -41 7 c-54 8 -76 23 -98 63 -10 19 -21 29 -26 24 -11 -11 -1 -46 20 -66 8
-9 13 -18 11 -20 -9 -9 -72 15 -95 37 -19 17 -23 18 -23 5 0 -8 11 -24 25 -35
13 -11 21 -22 18 -26 -15 -15 -64 -4 -94 21 -30 26 -32 26 -27 6 12 -45 -27
-15 -60 48 -30 56 -33 70 -29 117 3 31 17 72 32 98 33 55 23 71 -14 26 -34
-40 -51 -93 -51 -159 0 -39 6 -59 29 -91 16 -22 35 -43 41 -47 5 -3 7 -11 4
-17 -4 -6 -3 -8 3 -5 5 3 21 0 36 -8 14 -7 40 -16 57 -20 l31 -7 -32 -24 c-22
-16 -40 -22 -57 -17 -13 3 -40 1 -60 -5 -21 -6 -56 -15 -78 -21 -53 -14 -90
-43 -114 -92 -27 -52 -25 -99 6 -165 28 -59 64 -92 138 -125 56 -25 94 -21
140 15 25 19 53 26 135 35 56 6 106 9 111 6 4 -3 33 4 65 14 55 18 95 18 95
-1 0 -5 -18 -57 -40 -115 -45 -119 -49 -157 -21 -205 20 -36 18 -91 -13 -254
-8 -44 -20 -139 -26 -210 -17 -212 -28 -271 -61 -322 -59 -93 -73 -193 -41
-279 10 -26 17 -55 15 -64 -2 -8 1 -28 6 -42 9 -23 17 -27 49 -27 l38 0 -40
82 c-35 72 -40 92 -40 148 1 42 8 82 22 115 l21 50 1 -50 c1 -88 17 -125 79
-185 32 -31 86 -71 122 -90 l64 -34 -92 88 c-72 69 -95 97 -107 134 -21 64
-22 230 -2 367 9 61 19 157 22 215 2 58 11 152 18 210 11 89 10 113 -2 163
l-15 59 42 122 c22 68 41 129 41 137 0 25 24 69 37 69 7 0 20 11 29 25 9 14
25 25 36 25 11 0 34 7 51 16 18 9 40 21 51 26 14 7 25 3 47 -18 43 -41 120
-45 176 -8 81 54 109 164 61 242 -25 41 -37 28 -14 -17 25 -48 21 -112 -11
-153 -40 -50 -70 -70 -117 -75 -32 -4 -47 0 -66 16 l-25 21 31 -11 c49 -16
134 29 134 70 0 11 -7 8 -23 -11 -33 -41 -70 -51 -115 -32 -45 19 -28 34 29
27 34 -5 42 -2 68 26 33 35 46 87 32 124 -18 46 -31 42 -25 -7 7 -51 -9 -101
-37 -116 -34 -19 -39 -10 -9 18 40 36 50 88 22 122 -23 28 -43 19 -24 -10 15
-25 15 -45 0 -86 -9 -26 -20 -35 -52 -44 -23 -6 -47 -14 -54 -16 -8 -4 -12 5
-12 30 0 19 -4 38 -10 41 -6 4 -10 -16 -10 -54 0 -33 -4 -63 -10 -66 -5 -3
-10 3 -10 14 0 12 -4 21 -10 21 -5 0 -10 -4 -10 -10 0 -18 -40 -50 -63 -50
-19 0 -27 12 -51 75 -16 41 -33 75 -37 75 -17 0 -9 -42 21 -100 24 -48 28 -64
20 -85 -5 -14 -14 -25 -19 -25 -5 0 -33 50 -62 110 -45 96 -69 131 -69 102 0
-21 42 -126 72 -181 28 -52 31 -63 18 -71 -24 -15 -73 -12 -100 7 l-25 17 18
-27 c21 -32 6 -37 -33 -10 -31 21 -47 42 -83 106 -21 38 -27 44 -27 27 0 -34
37 -105 72 -140 16 -17 25 -30 19 -30 -12 0 -107 56 -134 78 -9 8 -17 11 -17
5 0 -13 39 -47 74 -65 28 -15 26 -16 -87 -28 -86 -9 -124 -9 -148 -1 -39 13
-39 13 -39 2 0 -5 17 -15 37 -24 l37 -14 -35 -12 c-66 -22 -155 24 -190 99
-37 78 -7 194 60 234 18 10 34 16 36 14 3 -3 -2 -25 -11 -51 -8 -25 -14 -58
-12 -74 3 -25 5 -22 22 25 21 61 60 112 86 112 15 0 16 -5 7 -44 -5 -24 -6
-56 -2 -72 8 -27 9 -25 17 26 12 76 23 80 23 10 1 -91 21 -97 27 -10 6 73 28
122 60 128 11 2 13 -10 10 -63 -3 -41 0 -71 7 -78 8 -8 11 -1 11 29 0 56 18
112 40 124 27 15 32 12 20 -10 -14 -27 -4 -25 32 5 43 36 59 29 73 -30 6 -27
19 -63 29 -80 9 -16 15 -22 12 -13 -12 39 -27 141 -23 152 4 11 38 24 122 45
28 7 187 7 500 0 163 -3 202 13 229 98 10 31 -10 97 -38 130 -32 37 -44 23
-14 -17 17 -23 23 -45 23 -82 0 -45 -4 -53 -39 -85 l-39 -36 -161 7 c-89 4
-186 9 -217 13 -52 5 -57 8 -67 37 -25 68 -7 164 33 180 8 3 41 -1 73 -9 143
-36 261 -38 335 -4 42 19 32 30 -14 14 -23 -8 -53 -15 -67 -15 l-26 0 35 36
c44 47 107 76 148 68 18 -4 31 -2 31 4 0 25 -95 30 -140 7 -34 -17 -80 -74
-80 -98 0 -32 -16 -17 -34 32 -16 46 -55 108 -43 70 3 -9 9 -38 13 -64 5 -39
4 -47 -7 -43 -8 3 -53 11 -101 19 -59 9 -88 17 -88 26 0 16 -35 30 -93 39 -24
4 -52 17 -66 30 -22 22 -44 29 -81 26 -8 -1 -25 4 -37 10 -17 8 -29 8 -46 1
-14 -6 -39 -8 -58 -4 l-34 7 47 23 c38 19 51 22 75 13 68 -24 69 -24 38 2
l-30 26 43 -14 c47 -17 57 -5 15 18 l-27 14 58 18 c54 17 77 36 62 51 -3 3
-11 1 -18 -4 -7 -5 -32 -15 -54 -21 -23 -7 -47 -19 -54 -27 -7 -8 -18 -15 -24
-15 -19 1 44 50 64 50 10 0 22 5 25 10 3 6 -3 10 -15 10 -12 0 -18 5 -15 10 8
13 -1 13 -26 0 -12 -7 -19 -7 -19 -1 0 9 21 27 66 59 17 12 16 12 -8 9 -23 -4
-28 -1 -28 18 0 12 10 30 23 39 l22 17 -22 -5 c-13 -2 -23 0 -23 4 0 13 42 40
62 40 10 0 18 5 18 10 0 17 -27 22 -49 10 -15 -7 -21 -8 -21 0 0 6 19 20 43
31 l42 20 -35 -4 -34 -4 34 28 c28 24 31 29 17 35 -10 3 -24 1 -32 -6 -26 -22
-16 4 17 44 l32 39 9 -29 c11 -39 17 -182 17 -386 0 -93 4 -168 8 -168 13 0
22 63 22 163 0 48 2 87 4 87 3 0 28 -14 55 -32 28 -17 53 -29 56 -27 2 3 -23
26 -56 52 -32 26 -59 51 -59 56 0 16 54 -2 134 -45 147 -77 458 -173 681 -209
230 -38 274 -30 60 11 -265 51 -600 153 -750 229 l-120 60 3 70 c2 39 -1 92
-7 120 -10 55 -7 71 8 34 23 -61 92 -202 96 -197 5 5 -37 130 -120 363 -49
136 -69 218 -80 325 -3 36 -9 74 -12 85 -12 44 15 -3 42 -73 16 -39 29 -71 31
-69 4 3 -69 280 -90 345 -10 29 -16 55 -14 57 2 2 30 -44 62 -103 71 -130 167
-284 173 -278 9 8 -184 394 -226 454 -23 32 -41 69 -41 83 0 94 -243 398 -372
465 -15 8 -28 17 -28 20 0 3 25 34 56 67 94 103 157 213 213 370 17 49 33 114
36 145 l6 57 -34 -90 c-19 -49 -45 -112 -59 -140 -36 -70 -139 -225 -206 -309
-31 -39 -58 -73 -59 -75 -9 -12 -164 81 -226 136 -40 34 -88 70 -107 80 -19
10 -37 19 -39 20 -2 1 16 24 39 50 72 82 197 367 224 513 4 19 -52 -82 -123
-225 -72 -143 -141 -273 -155 -290 -23 -28 -26 -29 -49 -15 -14 8 -56 45 -94
81 -64 60 -71 65 -90 52 -25 -17 -52 -8 -124 42 -28 19 -62 35 -76 35 -16 0
-23 4 -20 13 3 6 38 86 77 177 169 387 261 667 285 862 7 53 -7 128 -23 128
-4 0 -7 -39 -8 -88 0 -67 -8 -111 -32 -192 -45 -150 -94 -291 -137 -395 -122
-294 -230 -544 -246 -572 -11 -17 -43 -48 -71 -68 -42 -31 -56 -36 -84 -30
-19 3 -45 16 -60 28 l-25 22 38 3 c22 1 44 10 52 20 27 34 153 301 148 314 -3
7 -12 -5 -22 -27 -9 -22 -28 -66 -42 -98 l-26 -58 -31 29 c-17 16 -39 32 -49
35 -10 4 -15 12 -12 17 9 15 24 70 20 70 -3 0 -14 -18 -25 -40 -11 -22 -25
-40 -30 -40 -40 0 -202 80 -276 137 -24 18 -42 24 -64 21 -16 -3 -30 -3 -30
-2 0 2 29 46 65 99 67 99 130 213 121 222 -2 3 -18 -15 -35 -39 -65 -92 -207
-268 -216 -268 -6 0 -27 17 -47 38 l-37 37 49 79 c48 76 185 374 177 382 -2 3
-14 -19 -27 -48 -146 -342 -285 -532 -399 -545 -81 -9 -116 4 -191 73 -39 36
-95 80 -125 99 -98 63 -88 76 31 39 79 -25 85 -29 59 -34 -29 -6 -30 -6 -8
-18 28 -16 38 -15 79 4 21 10 58 48 95 96 55 74 106 158 95 158 -3 0 -24 -27
-47 -60 -23 -33 -44 -60 -47 -60 -2 0 -21 14 -42 30 -21 17 -82 51 -135 75
-53 25 -117 59 -143 77 -66 45 -142 111 -142 123 0 6 18 29 41 50 22 22 45 49
51 60 14 24 -51 -30 -201 -168 -155 -144 -151 -142 -208 -85 l-46 46 34 17
c71 37 232 171 339 281 60 64 110 118 110 122 0 4 -40 -32 -89 -79 -49 -48
-110 -103 -135 -124 l-46 -37 -42 33 c-24 18 -47 36 -52 41 -5 4 30 48 80 100
132 137 396 538 382 580 -2 6 -19 -15 -37 -48 -89 -157 -252 -376 -391 -524
l-70 -75 -44 48 c-25 26 -58 72 -74 102 l-30 54 75 93 c121 150 205 310 252
479 40 142 24 144 -34 4 -71 -174 -250 -493 -299 -534 -15 -12 -116 71 -116
95 0 9 13 34 29 57 43 63 158 323 147 334 -2 3 -36 -58 -75 -135 -135 -266
-254 -373 -350 -316 -17 10 -31 21 -31 25 0 3 24 19 53 34 121 67 208 192 278
405 36 107 42 140 45 225 2 60 -1 104 -8 112 -7 9 -6 14 6 19 9 4 30 -6 53
-25 31 -26 39 -29 41 -15 4 18 -24 61 -50 78 -25 15 -73 -5 -72 -30 0 -21 0
-21 -60 -2 -74 23 -102 44 -241 179 -60 58 -124 114 -142 123 -21 10 -57 16
-105 16 -77 0 -253 -33 -275 -52 -8 -6 -15 -9 -17 -7 -1 2 -20 65 -41 139 -37
126 -40 146 -45 305 -5 163 -7 173 -33 218 -31 53 -101 113 -174 148 -35 17
-68 24 -123 26 -41 1 -82 0 -90 -4z m216 -702 c15 -31 56 -130 91 -221 55
-143 62 -168 53 -195 l-10 -30 21 25 c12 14 41 63 64 110 24 47 60 104 81 128
l39 43 138 21 c81 12 152 17 173 13 29 -5 65 -33 174 -139 131 -127 180 -161
278 -197 27 -10 32 -16 32 -43 0 -91 -67 -321 -126 -436 -45 -86 -128 -187
-175 -210 -60 -31 -117 -22 -198 33 l-67 46 -58 183 c-32 101 -66 199 -75 219
-17 35 -17 36 6 65 13 16 37 52 53 80 32 56 48 64 122 64 26 0 50 5 53 10 4 6
-9 10 -32 10 l-38 0 30 25 30 26 -52 -26 c-63 -30 -67 -31 -60 -5 10 40 -11
18 -61 -63 -74 -122 -131 -182 -199 -207 -30 -11 -57 -19 -58 -18 -1 2 -7 17
-14 34 -13 34 -53 80 -91 107 -21 15 -23 20 -12 37 6 11 12 25 12 32 0 9 -3 8
-10 -2 -5 -8 -11 -12 -13 -10 -18 19 -157 515 -157 558 0 26 28 -7 56 -67z
m-26 -391 c15 -36 30 -75 34 -88 7 -20 5 -21 -17 -13 -43 17 -147 25 -147 12
0 -6 2 -11 5 -11 25 0 164 -35 199 -49 115 -50 179 -158 125 -212 -19 -19 -28
-20 -102 -14 -69 6 -80 5 -70 -6 9 -11 8 -20 -2 -39 -8 -14 -14 -32 -14 -40 0
-8 9 2 20 23 21 39 22 40 56 31 18 -5 20 -10 12 -31 -12 -32 -12 -93 1 -93 6
0 10 8 10 18 0 9 5 34 11 54 7 29 16 39 37 44 15 3 37 10 49 16 19 9 28 6 59
-17 20 -16 44 -46 52 -67 10 -24 18 -34 23 -27 4 7 52 -125 107 -292 142 -432
162 -527 109 -506 -18 7 -83 164 -158 384 -48 144 -59 185 -53 213 9 46 6 80
-11 107 -13 19 -12 23 8 38 20 14 20 15 2 10 -11 -4 -51 -13 -90 -22 -77 -16
-122 -14 -260 16 -49 11 -117 25 -150 31 -49 10 -67 20 -97 52 -32 32 -38 46
-38 81 0 67 8 73 73 49 30 -12 79 -24 109 -27 50 -5 48 -4 -45 28 -126 44
-137 54 -136 126 1 110 12 127 134 213 61 43 114 76 118 75 5 -2 21 -32 37
-67z m-66 -575 c69 -14 128 -25 130 -25 3 0 6 -17 9 -37 l3 -38 9 33 c8 33 9
34 49 28 23 -3 70 0 106 8 73 15 84 10 96 -52 12 -60 -47 -98 -135 -87 -31 3
-118 9 -194 13 -107 5 -140 10 -147 22 -5 8 -20 30 -34 49 -17 23 -26 48 -26
73 0 21 2 38 4 38 2 0 61 -11 130 -25z m146 -207 c0 -18 5 -40 10 -48 8 -13
10 -13 10 2 0 9 4 28 9 41 9 24 12 24 55 15 42 -9 77 -4 129 17 14 6 17 2 17
-28 0 -37 -18 -63 -54 -77 -32 -12 -225 5 -272 24 -36 15 -47 27 -72 79 -2 4
35 7 82 7 l86 0 0 -32z m1047 -53 l57 -54 -32 -46 c-36 -51 -30 -59 13 -15 16
17 32 30 35 30 3 0 16 -20 27 -44 12 -24 42 -69 68 -101 l47 -57 -48 -51 c-51
-52 -47 -53 24 -4 49 33 56 31 121 -22 l34 -28 -74 -46 c-79 -49 -138 -77
-164 -77 -16 0 -144 102 -238 189 -64 59 -77 88 -92 193 -11 84 -11 88 7 88
28 0 89 34 122 69 17 17 31 31 33 31 1 0 28 -25 60 -55z m529 -516 c50 -53
144 -114 264 -172 63 -30 126 -67 140 -82 l25 -27 -43 -40 c-31 -28 -48 -38
-60 -32 -127 55 -258 95 -486 148 -109 25 -109 25 7 137 56 54 107 98 113 99
5 0 23 -14 40 -31z m1299 -710 c42 -37 43 -48 9 -89 -40 -47 -80 -64 -115 -50
-30 13 -36 24 -19 35 6 4 22 30 36 58 25 50 43 77 50 77 2 0 19 -14 39 -31z
m317 -133 c78 -51 81 -44 -49 -110 -83 -41 -86 -42 -160 -20 l-54 16 44 28
c40 25 54 39 100 105 10 14 26 25 35 25 9 0 47 -20 84 -44z m200 -72 c18 -20
52 -50 76 -66 l44 -30 -24 -25 c-13 -14 -42 -36 -66 -50 -24 -14 -41 -28 -38
-30 11 -12 66 11 112 46 l51 38 39 -20 c21 -11 72 -48 111 -83 40 -35 91 -74
113 -86 22 -13 40 -25 40 -28 0 -6 -201 -80 -215 -80 -5 1 1 7 15 15 31 18 37
18 -104 -5 -161 -26 -170 -22 -230 97 -41 81 -94 146 -139 170 -14 7 -8 12 35
26 29 9 67 28 83 42 21 18 23 23 8 16 -27 -14 -164 -43 -170 -37 -3 3 12 14
34 24 21 11 62 39 92 61 68 51 91 52 133 5z"/>
<path d="M1955 7050 c-66 -14 -148 -48 -180 -76 l-30 -25 40 6 c22 3 74 18
115 32 99 33 160 28 239 -21 31 -19 81 -44 110 -55 29 -12 78 -38 109 -58 31
-20 87 -50 123 -68 36 -17 64 -36 62 -41 -2 -6 11 -8 29 -6 30 3 37 -2 68 -45
27 -37 78 -77 233 -178 l197 -130 -5 -39 c-6 -44 -67 -202 -145 -373 -52 -117
-64 -161 -29 -106 12 18 25 30 30 27 12 -7 97 173 142 301 43 124 53 180 37
200 -10 13 -8 15 11 15 13 -1 34 -6 45 -13 l21 -12 -42 -170 c-32 -126 -60
-210 -110 -325 -75 -170 -226 -552 -221 -557 7 -8 80 146 149 317 42 102 98
235 125 295 50 111 105 288 118 379 6 46 8 48 21 30 21 -28 11 -89 -38 -240
-54 -166 -53 -162 -38 -139 27 42 100 243 110 302 10 56 9 66 -8 95 -11 18
-37 43 -59 55 -40 23 -98 30 -108 14 -9 -15 -376 235 -406 277 -35 49 -57 65
-74 59 -19 -8 -76 21 -174 86 -44 29 -106 63 -138 75 -33 12 -90 42 -128 67
-38 25 -77 45 -86 45 -10 0 -30 2 -46 4 -16 3 -47 1 -69 -4z"/>
<path d="M2630 6609 c0 -38 -159 -362 -250 -509 -62 -100 -112 -190 -107 -190
19 0 236 298 280 385 60 120 116 325 88 325 -6 0 -11 -5 -11 -11z"/>
<path d="M2966 6368 c-34 -110 -79 -217 -175 -414 -78 -159 -107 -225 -88
-203 115 134 257 428 280 581 5 35 -9 64 -17 36z"/>
<path d="M9375 6164 c119 -65 145 -197 106 -528 -27 -224 -32 -245 -66 -290
-37 -49 -26 -56 19 -12 44 45 51 70 77 287 22 187 21 306 -6 397 -25 83 -76
142 -135 157 -22 5 -22 4 5 -11z"/>
<path d="M3527 5947 c-40 -61 -160 -315 -192 -407 -33 -95 -65 -243 -65 -294
1 -11 17 17 37 64 47 114 244 652 239 657 -2 2 -10 -7 -19 -20z"/>
<path d="M3324 5890 c-22 -41 -68 -124 -101 -185 -56 -100 -109 -215 -99 -215
11 0 101 132 143 208 55 100 106 227 101 250 -2 10 -20 -13 -44 -58z"/>
<path d="M4267 5630 c-3 -8 -14 -53 -25 -100 -11 -47 -54 -170 -95 -275 -41
-104 -85 -221 -97 -260 -13 -38 -29 -83 -37 -99 -29 -57 8 -13 63 77 66 105
144 281 180 406 29 100 42 219 26 247 -9 15 -12 16 -15 4z"/>
<path d="M5076 5395 c7 -108 -6 -211 -51 -405 -39 -167 -78 -370 -72 -376 5
-5 90 284 124 421 34 138 39 355 10 415 -16 35 -16 35 -11 -55z"/>
<path d="M5210 5261 c19 -69 22 -177 6 -270 -18 -103 -76 -341 -100 -408 -8
-24 -13 -43 -10 -43 14 0 87 180 119 291 54 190 56 289 8 417 -18 47 -36 58
-23 13z"/>
<path d="M7955 5173 c-32 -24 -100 -69 -150 -98 -113 -66 -499 -258 -579 -287
-33 -12 -55 -23 -49 -25 40 -14 511 193 660 289 71 46 192 152 183 161 -3 3
-32 -15 -65 -40z"/>
<path d="M4716 5049 c-16 -50 -48 -123 -71 -162 -60 -104 -204 -328 -229 -356
l-21 -24 21 11 c66 34 249 285 298 407 24 60 49 215 35 215 -2 0 -17 -41 -33
-91z"/>
<path d="M6053 4768 c36 -31 195 -99 312 -133 199 -57 342 -70 960 -85 231 -6
524 -14 650 -17 133 -3 227 -2 222 3 -18 19 -328 34 -887 43 -332 5 -624 14
-675 21 -176 23 -474 114 -585 178 -23 13 -22 12 3 -10z"/>
<path d="M8440 4443 c-62 -75 -150 -295 -150 -376 0 -37 -12 -9 -30 70 l-18
78 0 -85 c-1 -97 12 -236 23 -264 17 -41 -100 39 -194 132 -97 97 -105 98 -48
10 62 -96 153 -186 208 -205 47 -17 49 -19 49 -56 0 -20 -10 -75 -21 -120 -25
-96 -19 -138 33 -222 20 -34 33 -70 38 -112 8 -63 47 -148 82 -180 14 -12 9 3
-16 57 -20 42 -36 90 -36 110 0 63 21 233 41 330 11 52 22 106 24 120 15 74
-42 -84 -70 -195 l-33 -129 -17 39 c-28 64 -30 122 -7 200 11 39 24 90 27 115
8 51 92 250 106 250 5 0 9 -16 9 -35 0 -41 20 -104 67 -207 l35 -76 -16 -55
c-30 -103 -19 -142 58 -215 53 -51 63 -74 42 -104 -22 -31 -20 -45 4 -23 12
11 20 13 20 6 0 -6 17 -30 38 -54 53 -58 56 -70 26 -129 -30 -59 -25 -77 7
-24 12 20 23 35 26 33 2 -3 -3 -42 -11 -87 -19 -97 -22 -270 -5 -270 7 0 9 14
7 38 -6 41 10 245 21 274 6 16 10 15 44 -13 53 -43 60 -28 9 19 -66 61 -66 61
102 252 89 101 100 117 58 81 -29 -24 -87 -82 -129 -130 -42 -47 -80 -87 -84
-89 -4 -2 -10 6 -14 17 -3 12 -22 33 -41 47 -19 15 -34 34 -34 43 0 21 228
253 310 315 85 63 231 136 367 182 114 39 119 41 112 48 -8 9 -135 -23 -238
-59 -254 -89 -392 -186 -535 -377 l-27 -36 -59 63 c-70 76 -78 100 -56 170 22
69 20 87 -10 147 l-26 51 27 61 c83 184 150 308 200 369 30 37 51 67 45 67
-13 0 -108 -120 -166 -210 -30 -47 -60 -111 -80 -175 l-32 -100 -17 40 c-10
22 -23 73 -29 114 l-10 74 37 71 c30 56 33 65 13 41 -14 -16 -28 -38 -31 -47
-10 -30 -22 -20 -29 22 -3 23 -19 54 -36 73 l-30 34 59 117 c32 64 54 116 50
116 -4 0 -22 -17 -39 -37z m-42 -248 c11 -14 23 -47 27 -73 6 -43 2 -55 -46
-145 -28 -54 -52 -97 -54 -95 -3 4 21 257 30 301 9 44 17 46 43 12z"/>
<path d="M5775 4396 c-123 -54 -176 -318 -176 -886 0 -162 5 -347 11 -410 12
-134 37 -274 56 -311 21 -43 102 -126 149 -154 85 -49 282 -86 560 -105 88 -6
210 -15 270 -20 172 -16 356 17 423 76 l27 23 -80 -26 c-72 -24 -99 -27 -270
-31 -219 -5 -440 10 -641 43 -225 38 -287 66 -364 169 -47 62 -64 126 -79 303
-33 368 18 1105 85 1234 15 31 57 63 93 72 26 6 413 -16 561 -33 170 -19 552
-70 670 -90 192 -33 269 -64 292 -118 20 -45 14 -350 -10 -582 -61 -567 -94
-769 -140 -855 -22 -39 -25 -52 -13 -46 48 26 84 100 104 216 49 272 106 828
112 1081 l3 163 -28 45 c-32 49 -57 65 -141 89 -159 46 -857 135 -1222 157
-217 12 -215 12 -252 -4z"/>
<path d="M5853 4285 c-30 -21 -42 -71 -48 -195 l-4 -105 10 85 c16 149 52 233
80 189 12 -19 11 -663 -1 -829 -10 -131 -25 -200 -40 -183 -12 13 -38 104 -45
158 -4 28 -7 167 -8 310 l0 260 -9 -155 c-7 -104 -6 -211 1 -325 12 -177 22
-236 47 -270 15 -20 15 -20 34 2 33 41 50 280 50 721 0 359 -4 381 -67 337z"/>
<path d="M6036 4251 c-9 -10 -24 -49 -32 -87 -22 -95 -32 -648 -14 -778 12
-90 31 -146 50 -146 13 0 13 1 -4 36 -21 44 -36 257 -36 517 0 241 11 376 35
434 12 29 17 33 33 24 12 -6 22 -26 26 -51 12 -79 27 -388 28 -610 0 -124 4
-211 8 -195 11 44 11 488 0 657 -10 159 -26 218 -58 218 -10 0 -26 -8 -36 -19z"/>
<path d="M6278 4223 c-31 -76 -43 -212 -43 -468 0 -259 11 -356 41 -385 15
-14 15 -13 5 7 -44 85 -42 630 2 810 15 59 39 68 57 21 13 -37 34 -711 24
-763 -4 -16 -16 -43 -27 -59 -14 -20 -16 -27 -6 -24 8 2 23 22 34 44 19 37 20
58 20 369 -1 427 -6 466 -66 480 -23 6 -28 2 -41 -32z"/>
<path d="M6556 4227 c-40 -40 -51 -117 -51 -362 1 -225 9 -287 41 -299 12 -5
12 -1 -2 25 -36 71 -36 507 0 594 17 40 40 46 50 13 13 -44 19 -411 8 -478 -6
-36 -14 -83 -17 -105 l-5 -40 20 42 c26 54 44 258 37 418 -9 184 -33 240 -81
192z"/>
<path d="M7375 4201 c-3 -5 10 -22 29 -36 19 -14 39 -40 45 -57 16 -46 13
-185 -9 -348 -10 -80 -40 -308 -65 -508 -60 -478 -63 -491 -131 -598 -18 -29
-18 -29 1 -14 19 15 19 14 4 -10 -19 -30 -104 -83 -179 -111 -115 -43 -177
-52 -435 -57 -300 -7 -258 -20 68 -21 249 -1 318 9 434 66 88 43 149 104 158
160 3 21 15 58 26 83 10 25 25 77 33 115 16 78 84 525 117 770 22 165 30 381
16 448 -12 56 -95 144 -112 118z"/>
<path d="M6750 3561 c-135 -44 -210 -147 -210 -285 0 -78 31 -147 93 -203 116
-107 273 -109 388 -5 67 60 91 110 97 198 4 62 1 79 -23 131 -48 108 -122 159
-245 167 -41 3 -86 2 -100 -3z m175 -56 c95 -46 145 -122 145 -222 -1 -184
-189 -294 -351 -207 -77 42 -113 103 -117 200 -4 64 -1 78 24 123 62 116 186
159 299 106z"/>
<path d="M6771 3477 c-79 -25 -141 -130 -126 -214 8 -51 43 -109 56 -96 7 7 3
22 -10 44 -59 97 9 226 126 236 70 6 130 -27 162 -90 15 -30 28 -44 34 -38 15
15 -10 74 -46 109 -58 56 -123 73 -196 49z"/>
<path d="M5835 3086 c-13 -13 -29 -43 -35 -67 -16 -57 -5 -184 19 -224 45 -79
195 -125 403 -125 122 0 139 12 168 115 37 132 22 208 -49 245 -82 41 -277 79
-409 80 -64 0 -76 -3 -97 -24z m236 -12 c136 -26 265 -71 289 -101 36 -46 18
-219 -28 -262 -24 -22 -31 -23 -106 -17 -198 17 -326 48 -365 90 -29 31 -40
75 -43 171 -3 118 10 135 101 135 38 0 106 -7 152 -16z"/>
<path d="M5968 2974 c-73 -39 -61 -144 16 -144 35 0 86 49 86 84 0 25 -44 76
-65 76 -5 -1 -22 -7 -37 -16z"/>
<path d="M6200 2938 c-40 -15 -80 -59 -80 -88 0 -33 38 -70 73 -70 91 0 123
85 56 146 -19 18 -29 20 -49 12z"/>
<path d="M10311 2833 c2 -5 37 -38 77 -72 40 -34 91 -86 113 -116 l41 -54 9
-138 c10 -155 15 -188 34 -253 17 -56 13 -89 -15 -135 -27 -43 -14 -45 26 -4
34 36 37 84 10 166 -10 31 -22 120 -29 221 l-13 170 -66 69 c-62 63 -195 168
-187 146z"/>
<path d="M5272 2465 c3 -3 45 -17 93 -30 48 -13 153 -46 233 -73 342 -115 885
-201 1197 -190 81 3 71 4 -100 16 -300 21 -734 98 -1013 179 -269 79 -428 117
-410 98z"/>
<path d="M9674 2240 c-171 -24 -334 -82 -385 -136 -30 -32 -23 -31 63 15 99
53 188 79 343 98 109 14 147 15 235 5 143 -16 277 -54 389 -109 123 -61 181
-119 250 -249 50 -94 52 -97 46 -54 -3 25 -21 77 -40 115 -47 99 -149 181
-306 246 -127 52 -218 70 -384 74 -82 2 -177 0 -211 -5z"/>
<path d="M9568 2135 c-132 -25 -271 -88 -323 -145 -30 -34 -7 -36 28 -3 46 44
146 91 256 120 82 22 117 26 246 26 343 0 591 -108 688 -300 44 -85 60 -158
52 -230 -4 -42 -3 -63 3 -59 20 12 24 133 7 193 -60 206 -212 332 -466 388
-106 23 -391 29 -491 10z"/>
<path d="M9798 1820 c-147 -18 -252 -63 -340 -148 -99 -94 -127 -155 -102
-224 l14 -41 -73 -81 c-67 -75 -85 -98 -159 -208 -15 -23 -30 -60 -33 -83 -6
-39 -12 -45 -68 -77 -81 -47 -208 -110 -212 -106 -2 2 25 23 60 46 89 60 160
139 200 224 33 69 46 138 25 138 -9 0 -30 -61 -30 -88 0 -21 -40 -94 -82 -149
-79 -104 -285 -219 -456 -254 -53 -12 -124 -27 -157 -34 -33 -7 -61 -12 -62
-11 -1 1 -4 17 -5 36 -3 28 1 35 21 40 39 9 46 31 30 91 -21 79 -44 64 -25
-17 6 -29 5 -31 -46 -51 -73 -30 -644 -100 -928 -114 -319 -16 -322 -29 -7
-26 l269 2 -7 -40 c-12 -75 -74 -569 -71 -572 6 -6 97 444 108 532 6 50 12 91
13 93 2 2 265 46 347 57 l48 6 -10 -26 c-6 -14 -10 -54 -9 -88 l1 -62 13 65
c7 36 14 74 16 85 5 23 17 35 39 35 12 0 15 -15 13 -82 l-2 -83 14 74 c8 41
12 78 10 82 -3 4 14 10 37 14 24 3 54 8 68 11 l25 5 -3 -108 c-1 -60 -9 -186
-18 -281 -9 -95 -14 -176 -11 -178 6 -6 32 109 42 183 4 29 11 55 15 58 9 5
85 -299 95 -380 10 -74 14 -85 35 -85 14 0 21 10 26 35 3 19 10 35 14 35 5 0
14 -16 21 -35 8 -22 20 -35 31 -35 33 0 18 50 -32 105 -20 23 -34 58 -55 146
-15 64 -47 175 -72 245 -25 71 -47 145 -50 164 l-5 35 73 19 c50 13 74 15 77
8 4 -14 37 -8 162 26 52 14 100 31 105 37 6 7 42 24 80 39 39 15 84 36 100 46
17 9 67 36 112 60 l82 42 37 -28 c50 -39 128 -44 226 -14 40 12 83 28 95 35
18 12 23 12 32 1 7 -8 35 -24 63 -36 57 -24 118 -23 196 4 l40 14 12 -66 c19
-113 80 -212 132 -212 11 0 13 -14 10 -63 -4 -60 -2 -66 27 -100 18 -20 51
-43 74 -52 58 -22 122 -3 154 44 33 49 28 58 -8 16 -29 -32 -35 -35 -88 -35
-45 0 -62 5 -80 21 -30 28 -51 79 -51 124 0 33 2 35 34 35 21 0 45 9 63 23 22
19 38 23 73 20 34 -2 40 -1 25 6 -11 5 -30 10 -43 10 -20 1 -22 5 -16 24 24
75 33 181 15 191 -5 3 -11 -34 -13 -82 -5 -110 -23 -147 -77 -163 -35 -10 -45
-9 -88 12 -79 39 -98 93 -163 458 -10 57 -60 173 -87 203 -9 10 -23 18 -31 18
-12 0 -9 -8 10 -27 38 -40 74 -133 97 -252 12 -57 21 -110 21 -117 0 -18 -140
-48 -182 -39 -18 4 -52 17 -75 28 l-41 20 34 45 c18 25 42 69 51 99 14 44 24
58 53 73 30 17 32 19 12 20 l-23 0 19 28 c10 15 25 38 32 52 12 23 12 24 -4
11 -27 -23 -72 -92 -117 -180 -65 -129 -151 -184 -291 -185 -61 -1 -70 2 -95
26 -46 46 -32 108 43 192 26 29 27 29 73 17 25 -6 86 -35 134 -62 83 -48 114
-57 88 -25 -20 24 -148 106 -183 117 -18 6 -39 13 -46 15 -19 6 25 60 193 238
171 181 208 209 284 212 31 1 104 5 162 9 99 6 109 5 163 -19 32 -14 69 -26
83 -26 44 0 87 -28 179 -117 87 -84 92 -91 118 -171 15 -45 31 -107 36 -137 5
-29 21 -79 35 -110 22 -46 26 -67 24 -123 -4 -87 -6 -93 -34 -86 -13 3 -26 1
-29 -5 -4 -7 1 -11 13 -11 19 0 20 -4 15 -47 -23 -176 -53 -257 -100 -269 -14
-4 -27 -5 -29 -3 -2 2 1 41 7 87 l11 82 31 1 c30 2 31 2 3 6 -26 4 -27 7 -22
41 3 20 9 48 12 62 8 31 10 49 19 183 6 89 4 110 -8 125 -9 9 -18 38 -21 64
-4 26 -12 56 -19 67 -16 26 -75 58 -85 47 -4 -5 -1 -11 7 -14 19 -7 80 -70 80
-84 0 -6 -7 -7 -17 -3 -36 15 -53 17 -53 8 0 -6 18 -15 40 -22 30 -9 40 -17
40 -32 0 -18 -4 -20 -30 -14 -18 4 -30 2 -30 -3 0 -6 18 -13 39 -17 22 -4 41
-12 43 -18 2 -7 0 -59 -4 -117 -5 -58 -8 -116 -9 -130 0 -14 -3 -32 -6 -40 -3
-8 -7 -19 -8 -25 0 -5 -5 -27 -9 -47 l-8 -38 -65 0 c-44 0 -62 -3 -57 -11 4
-7 28 -10 64 -7 l57 4 -13 -67 c-21 -111 -51 -152 -121 -165 -27 -5 -31 -9
-22 -20 6 -8 21 -14 33 -14 30 0 83 35 91 59 5 16 12 20 29 15 35 -8 90 45
115 111 11 29 23 95 27 145 6 75 10 93 26 101 11 6 18 19 17 32 -1 12 3 41 10
65 13 45 10 61 -19 127 -10 22 -30 84 -45 139 l-27 98 25 27 c76 80 137 284
107 356 -10 25 -14 15 -30 -75 -14 -77 -52 -180 -80 -220 -11 -15 -20 -36 -20
-47 -1 -10 -10 2 -23 27 -12 25 -45 68 -74 96 -29 27 -53 56 -53 63 0 26 -54
111 -84 135 -108 82 -303 126 -468 106z m297 -55 c44 -14 101 -40 126 -56 44
-28 104 -97 93 -108 -2 -3 -11 4 -19 16 -18 26 -75 53 -112 53 -15 0 -54 14
-87 31 -57 30 -61 31 -135 23 -42 -5 -108 -7 -147 -5 -60 2 -80 -1 -125 -23
-72 -34 -141 -91 -219 -183 -36 -42 -70 -78 -76 -80 -7 -2 -15 12 -18 31 -14
74 82 200 200 263 54 29 136 55 209 67 78 12 230 -2 310 -29z"/>
<path d="M5494 1558 c3 -15 11 -105 16 -200 10 -167 34 -468 46 -555 l5 -43
-48 21 c-26 11 -68 36 -92 54 -27 22 -63 38 -100 46 -117 24 -127 28 -139 54
-7 14 -12 32 -12 40 0 8 -5 15 -11 15 -16 0 -3 -59 17 -81 9 -10 42 -23 73
-29 94 -18 129 -30 158 -54 15 -13 56 -37 90 -55 57 -28 63 -34 71 -73 l10
-43 1 39 c1 32 4 37 19 31 34 -13 360 -74 512 -96 120 -17 221 -23 448 -26
186 -3 292 -2 292 5 0 5 -108 11 -277 15 -159 3 -338 13 -418 22 -152 18 -479
77 -541 97 l-39 13 -17 280 c-19 309 -43 524 -60 540 -7 7 -9 2 -4 -17z"/>
<path d="M10180 1537 c0 -4 11 -46 25 -93 31 -106 31 -117 0 -79 -32 38 -32
26 -1 -28 13 -23 27 -51 30 -63 6 -19 3 -20 -51 -18 l-58 3 44 -9 c24 -5 54
-16 67 -25 30 -19 32 -45 4 -38 -32 8 -23 -11 10 -24 17 -6 30 -16 30 -23 0
-6 -6 -8 -12 -4 -10 6 -10 4 0 -7 7 -8 12 -44 12 -96 0 -80 -1 -83 -19 -73
-30 15 -48 12 -24 -5 20 -14 21 -22 18 -117 l-4 -103 9 75 c5 41 15 93 22 115
23 71 12 270 -17 305 -7 8 -15 53 -19 99 -6 80 -35 184 -56 205 -5 5 -10 7
-10 3z"/>
<path d="M9975 1463 c23 -76 18 -80 -33 -33 -18 17 -41 30 -50 30 -15 -1 -15
-2 2 -15 17 -13 17 -14 -10 -20 -64 -14 -67 -23 -6 -18 52 5 66 3 83 -13 l21
-19 -24 -6 c-22 -6 -22 -7 -3 -13 59 -22 60 -25 7 -25 -57 -1 -122 -23 -122
-41 0 -7 3 -10 8 -8 85 44 133 44 180 1 22 -20 23 -23 7 -18 -47 17 -58 18
-51 7 4 -7 13 -12 20 -12 19 0 66 -39 66 -55 0 -10 -7 -12 -30 -5 -41 12 -38
4 5 -14 24 -10 36 -23 41 -43 3 -15 12 -47 20 -71 8 -23 14 -55 14 -70 0 -27
-1 -27 -59 -24 -35 2 -83 -3 -115 -12 -63 -19 -86 -39 -28 -25 79 19 165 28
187 19 21 -8 24 -5 29 23 4 21 -1 52 -14 87 -11 30 -20 65 -20 77 0 12 -4 24
-9 27 -4 3 -11 24 -14 46 -3 22 -13 53 -23 68 -10 15 -17 31 -16 36 2 5 -7 19
-19 32 -11 12 -18 27 -15 32 7 12 -21 109 -34 117 -5 3 -3 -16 5 -42z"/>
<path d="M5077 1335 c-3 -63 -3 -145 0 -182 l6 -68 -24 18 c-54 39 -85 57 -99
57 -16 -1 45 -59 92 -87 15 -9 30 -28 33 -42 15 -64 97 -312 101 -308 7 7 -35
190 -58 255 -17 48 -22 90 -27 259 -3 111 -9 204 -12 207 -3 4 -9 -46 -12
-109z"/>
</g>
</svg>
