<?xml version="1.0" standalone="no"?>
<!DOCTYPE svg PUBLIC "-//W3C//DTD SVG 20010904//EN"
 "http://www.w3.org/TR/2001/REC-SVG-20010904/DTD/svg10.dtd">
<svg version="1.0" xmlns="http://www.w3.org/2000/svg"
 width="1304.000000pt" height="907.000000pt" viewBox="0 0 1304.000000 907.000000"
 preserveAspectRatio="xMidYMid meet">
<metadata>
Created by potrace 1.16, written by Peter Selinger 2001-2019
</metadata>
<g transform="translate(0.000000,907.000000) scale(0.100000,-0.100000)"
fill="#000000" stroke="none">
<path d="M5515 8756 c-27 -13 -59 -31 -70 -40 -19 -14 -15 -15 55 -15 41 1
104 4 138 8 60 6 65 8 77 39 l14 32 -82 0 c-66 0 -92 -5 -132 -24z"/>
<path d="M5810 8746 l0 -34 133 -4 c72 -3 134 -3 136 -1 9 7 -35 46 -66 59
-19 8 -68 14 -118 14 l-85 0 0 -34z"/>
<path d="M5455 8642 l-90 -3 -28 -39 c-30 -43 -89 -144 -100 -174 -7 -18 -1
-19 195 -11 112 4 205 8 206 10 3 3 41 207 42 223 0 2 -60 1 -225 -6z"/>
<path d="M5810 8535 l0 -115 174 0 c95 0 188 -3 206 -7 33 -6 33 -6 27 26 -4
18 -24 70 -46 115 -37 80 -40 83 -77 89 -22 4 -94 7 -161 7 l-123 0 0 -115z"/>
<path d="M6256 8629 c4 -8 19 -30 32 -49 13 -19 39 -65 58 -102 39 -77 28 -73
229 -83 61 -3 130 -9 154 -12 l45 -6 -50 63 c-27 34 -78 89 -114 120 l-64 58
-91 6 c-49 4 -116 9 -149 12 -48 5 -57 4 -50 -7z"/>
<path d="M5065 8618 c-83 -8 -107 -14 -139 -36 -56 -39 -222 -199 -214 -207 3
-4 69 -2 145 5 235 19 211 10 270 98 29 42 66 91 83 109 16 18 30 34 30 37 0
7 -48 6 -175 -6z"/>
<path d="M6695 8578 c22 -18 82 -73 132 -122 l93 -89 107 -13 c60 -7 135 -16
168 -20 l60 -7 -60 52 c-64 55 -210 158 -260 184 -16 8 -73 20 -125 26 -52 6
-108 14 -125 16 l-30 5 40 -32z"/>
<path d="M4696 8574 c-92 -14 -138 -35 -261 -117 -79 -53 -187 -138 -182 -144
3 -2 72 5 155 17 147 21 151 22 189 57 72 68 168 148 206 171 20 13 37 26 37
28 0 7 -50 3 -144 -12z"/>
<path d="M7050 8539 c131 -83 204 -133 262 -179 67 -53 68 -54 205 -81 76 -15
139 -26 141 -24 7 7 -229 157 -328 208 -73 38 -130 60 -185 72 -140 29 -134
28 -95 4z"/>
<path d="M4401 8519 c-100 -23 -265 -105 -431 -213 -63 -42 -110 -76 -105 -76
6 0 64 12 130 26 111 25 125 30 190 79 90 67 196 135 263 169 28 14 52 29 52
31 0 7 -2 6 -99 -16z"/>
<path d="M1276 8375 c-12 -220 -48 -411 -94 -500 -73 -143 -224 -208 -547
-236 -71 -6 -155 -14 -185 -19 l-55 -8 60 -1 c33 -1 121 -8 195 -16 470 -49
567 -144 615 -602 8 -76 15 -163 16 -193 2 -88 16 -19 29 145 39 495 138 600
612 650 81 8 173 16 205 16 l58 2 -70 8 c-38 4 -137 15 -220 23 -170 18 -274
43 -358 88 -144 77 -199 217 -231 581 -8 93 -16 171 -19 173 -2 2 -7 -48 -11
-111z"/>
<path d="M7425 8437 c112 -60 158 -87 262 -159 52 -35 104 -59 180 -83 60 -19
110 -35 113 -35 3 0 -10 10 -28 21 -18 12 -30 24 -28 27 3 3 38 -16 77 -42 39
-26 73 -45 75 -43 3 2 -28 25 -68 49 -102 63 -102 63 -94 50 9 -15 1 -15 -25
-1 -11 5 -16 15 -13 21 4 7 3 8 -4 4 -6 -4 -51 17 -99 47 -118 71 -190 108
-298 150 -141 54 -159 52 -50 -6z"/>
<path d="M4105 8427 c-176 -75 -526 -269 -512 -283 12 -12 181 65 268 123 57
37 163 98 234 135 72 37 126 67 120 68 -5 0 -55 -20 -110 -43z"/>
<path d="M9523 8280 c-26 -273 -78 -338 -298 -370 -38 -5 -95 -10 -125 -11
l-55 -1 60 -9 c33 -5 96 -13 140 -19 98 -12 181 -51 213 -99 33 -50 51 -122
66 -263 10 -89 14 -108 15 -68 2 80 19 197 37 260 11 40 28 66 58 96 51 49
113 68 271 85 122 12 145 19 67 19 -132 0 -288 39 -336 83 -53 50 -82 149 -94
328 l-7 94 -12 -125z"/>
<path d="M5240 8291 l-65 -6 -23 -65 c-27 -75 -92 -294 -88 -297 6 -6 521 18
526 24 4 5 12 79 19 167 7 87 15 165 18 172 4 12 -23 14 -158 12 -90 -1 -193
-4 -229 -7z"/>
<path d="M6470 8176 c21 -62 46 -145 56 -184 l18 -70 105 -6 c58 -4 168 -11
244 -17 76 -6 141 -9 143 -6 7 7 -77 185 -134 284 -45 79 -49 83 -87 88 -39 5
-330 25 -365 25 -16 0 -14 -11 20 -114z"/>
<path d="M4775 8263 c-197 -17 -167 3 -279 -183 -79 -132 -112 -197 -105 -204
4 -4 472 33 474 37 1 1 18 49 39 107 21 58 54 138 72 179 19 41 34 75 34 77 0
6 -46 3 -235 -13z"/>
<path d="M7020 8230 c5 -10 28 -45 50 -79 22 -33 66 -109 97 -168 31 -60 57
-109 57 -109 3 -5 429 -54 433 -50 11 11 -208 308 -265 360 -16 14 -57 23
-164 37 -238 30 -219 30 -208 9z"/>
<path d="M7550 8138 c58 -59 189 -221 234 -289 l37 -56 182 -36 c100 -19 183
-34 184 -33 5 5 -121 154 -187 221 -180 185 -161 172 -295 199 -66 13 -137 27
-158 30 l-39 7 42 -43z"/>
<path d="M3802 8120 l-123 -29 -88 -81 c-80 -74 -251 -257 -286 -307 -15 -21
-15 -21 38 -7 28 8 106 25 171 39 95 20 123 30 135 48 25 36 167 209 206 252
21 22 53 57 73 78 44 46 41 46 -126 7z"/>
<path d="M8034 7999 c55 -52 143 -143 197 -204 l97 -109 119 -37 c65 -20 126
-40 137 -44 13 -6 17 -4 15 4 -7 19 -257 267 -344 341 -82 69 -93 74 -295 135
-17 5 8 -24 74 -86z"/>
<path d="M3500 8036 c-117 -42 -144 -56 -205 -109 -123 -105 -254 -229 -314
-297 l-61 -69 82 31 c46 17 103 37 128 45 35 11 57 28 95 74 28 34 117 126
199 205 82 79 148 144 145 144 -2 -1 -33 -11 -69 -24z"/>
<path d="M8349 7905 c49 -41 152 -138 228 -215 87 -87 153 -145 177 -155 21
-9 56 -27 77 -41 22 -13 39 -20 39 -15 0 19 -333 324 -450 413 -33 25 -145 88
-156 88 -2 0 36 -34 85 -75z"/>
<path d="M11667 7780 c-4 -36 -14 -148 -22 -249 -27 -313 -73 -519 -142 -639
-42 -74 -133 -156 -215 -196 -137 -68 -375 -111 -743 -136 -93 -6 -174 -13
-180 -14 -5 -1 71 -8 170 -15 524 -36 754 -97 890 -235 134 -137 191 -345 230
-845 8 -107 17 -196 19 -198 1 -2 6 52 10 119 33 590 113 851 298 977 147 100
337 144 763 176 116 9 217 17 225 18 8 1 -86 10 -210 20 -452 34 -652 81 -788
186 -100 76 -151 155 -195 301 -45 147 -73 349 -95 680 l-8 115 -7 -65z"/>
<path d="M5163 7761 c-72 -3 -134 -9 -138 -13 -15 -15 -97 -476 -86 -482 3 -2
80 1 171 5 91 4 228 8 306 8 l141 1 7 163 c3 89 9 199 13 245 l6 82 -144 -2
c-79 -1 -203 -4 -276 -7z"/>
<path d="M5800 7530 c0 -184 3 -242 13 -245 6 -2 149 -6 316 -7 l303 -3 -7 90
c-4 50 -17 157 -28 240 -21 143 -23 150 -47 156 -14 4 -143 7 -287 8 l-263 1
0 -240z"/>
<path d="M6590 7736 c0 -8 9 -56 19 -107 10 -52 29 -156 42 -231 l22 -138 46
0 c25 0 153 -7 284 -16 131 -9 240 -14 243 -11 11 10 -120 464 -139 483 -6 6
-382 34 -459 34 -43 0 -58 -4 -58 -14z"/>
<path d="M4570 7725 c-80 -8 -173 -16 -206 -20 l-62 -6 -45 -122 c-52 -141
-123 -365 -116 -370 2 -3 38 -1 79 4 41 4 165 15 275 24 110 9 203 19 206 23
3 4 16 59 28 122 13 63 36 166 52 228 16 62 29 118 29 123 0 11 -57 10 -240
-6z"/>
<path d="M7319 7654 c16 -39 134 -394 146 -439 1 -6 109 -23 238 -38 130 -16
245 -31 256 -34 12 -3 21 -1 21 6 0 19 -93 247 -153 372 -34 74 -62 119 -73
123 -16 5 -198 28 -397 52 l-58 6 20 -48z"/>
<path d="M3890 7648 c-113 -16 -210 -34 -216 -39 -29 -24 -243 -484 -231 -496
3 -2 45 3 93 11 49 8 156 24 238 36 83 11 151 22 153 24 2 1 23 58 47 127 39
112 85 228 130 332 12 28 13 37 4 36 -7 0 -105 -14 -218 -31z"/>
<path d="M7940 7613 c0 -3 38 -82 85 -176 46 -95 97 -206 113 -247 25 -64 34
-76 58 -82 74 -18 397 -78 401 -74 13 12 -249 488 -279 507 -5 3 -37 11 -71
17 -34 7 -117 23 -184 36 -68 13 -123 21 -123 19z"/>
<path d="M3315 7544 c-121 -28 -154 -39 -172 -59 -53 -59 -292 -479 -280 -491
3 -4 63 7 134 24 70 17 153 36 183 42 30 6 62 14 71 16 8 2 21 21 28 42 21 58
119 257 178 361 29 51 53 95 53 97 0 9 -55 0 -195 -32z"/>
<path d="M8525 7402 c36 -56 104 -172 150 -258 l84 -157 113 -33 c62 -17 136
-41 165 -52 l52 -20 -24 49 c-62 122 -212 360 -282 446 -31 39 -44 46 -144 77
-61 20 -126 38 -145 42 l-35 6 66 -100z"/>
<path d="M2940 7440 c-165 -55 -173 -60 -248 -162 -80 -108 -171 -250 -232
-362 -35 -64 -40 -78 -24 -72 10 5 78 30 149 56 126 47 131 49 154 91 87 160
163 288 222 377 38 56 68 102 67 101 -2 0 -41 -13 -88 -29z"/>
<path d="M8890 7328 c60 -80 217 -323 260 -403 l43 -81 109 -57 109 -57 -32
58 c-53 95 -234 363 -292 432 -42 51 -71 74 -134 108 -44 23 -84 42 -88 42 -3
0 8 -19 25 -42z"/>
<path d="M2592 7281 c-61 -40 -111 -97 -225 -255 -75 -105 -182 -265 -182
-274 -1 -4 -8 -21 -17 -38 -16 -30 -13 -29 72 28 79 53 93 67 126 126 49 88
170 274 240 369 30 41 54 77 51 79 -2 2 -31 -14 -65 -35z"/>
<path d="M5068 7060 c-87 -3 -159 -8 -162 -11 -4 -4 -41 -361 -52 -502 l-7
-89 269 6 c148 4 301 9 340 12 l72 6 6 166 c3 92 8 224 11 295 l4 127 -162 -2
c-89 -1 -233 -4 -319 -8z"/>
<path d="M5800 6776 l0 -293 346 -8 c190 -4 347 -5 349 -4 3 4 -15 305 -30
496 l-7 91 -37 6 c-20 3 -168 6 -328 6 l-293 0 0 -294z"/>
<path d="M6700 7044 c0 -5 6 -63 14 -129 8 -66 20 -196 27 -288 12 -156 15
-168 34 -172 11 -2 79 -6 150 -10 138 -6 379 -23 433 -30 30 -3 32 -2 32 25 0
64 -76 538 -90 561 -13 20 -600 62 -600 43z"/>
<path d="M4510 7029 c-197 -16 -422 -38 -427 -42 -10 -11 -87 -419 -106 -566
l-4 -33 56 6 c50 5 281 25 494 42 l77 6 0 32 c0 53 51 475 66 544 5 25 15 24
-156 11z"/>
<path d="M8253 6873 c3 -10 21 -72 40 -138 19 -66 50 -187 67 -270 18 -82 35
-156 39 -164 5 -9 52 -23 132 -37 68 -12 170 -33 227 -45 56 -12 105 -19 109
-15 10 10 -53 251 -114 436 -30 91 -56 166 -57 167 -4 5 -407 83 -427 83 -16
0 -20 -5 -16 -17z"/>
<path d="M3070 6839 c-47 -10 -135 -30 -197 -44 l-112 -26 -29 -77 c-63 -164
-170 -527 -160 -538 2 -2 28 3 57 11 30 8 120 28 200 45 172 37 191 44 191 68
0 30 85 358 123 475 21 65 30 107 23 106 -6 0 -49 -9 -96 -20z"/>
<path d="M8855 6754 c43 -104 152 -453 179 -575 5 -22 15 -28 68 -43 64 -17
259 -79 289 -91 15 -5 14 5 -7 84 -29 108 -112 350 -157 457 -36 87 -20 77
-227 140 -63 19 -124 37 -134 41 -16 4 -18 2 -11 -13z"/>
<path d="M2565 6711 c-11 -4 -73 -27 -138 -51 l-118 -43 -25 -56 c-70 -157
-203 -555 -191 -568 3 -2 16 1 29 8 12 7 84 34 158 60 l135 47 18 63 c54 191
94 316 133 420 24 64 44 119 44 123 0 8 -20 7 -45 -3z"/>
<path d="M9326 6573 c42 -97 128 -336 162 -451 l38 -127 86 -45 c47 -25 97
-53 112 -63 15 -10 30 -16 33 -14 12 13 -122 394 -201 569 -22 50 -33 61 -93
96 -59 34 -137 72 -149 72 -3 0 3 -17 12 -37z"/>
<path d="M2113 6508 c-87 -59 -102 -83 -184 -288 -38 -97 -139 -391 -139 -406
0 -4 8 0 18 8 27 24 116 84 149 101 25 13 33 27 48 84 27 103 102 314 155 441
26 61 44 112 40 112 -5 0 -44 -24 -87 -52z"/>
<path d="M9626 6375 c57 -131 134 -336 168 -449 28 -93 44 -127 71 -157 19
-22 35 -44 35 -51 0 -6 2 -9 5 -6 20 20 -224 629 -276 690 l-29 33 26 -60z"/>
<path d="M5095 6218 c-142 -5 -260 -10 -262 -11 -4 -5 -24 -679 -20 -684 4 -3
699 17 703 21 1 0 4 155 6 344 l5 342 -86 -2 c-47 0 -203 -5 -346 -10z"/>
<path d="M5800 5887 l0 -347 233 0 c127 0 290 -3 361 -7 l129 -6 -6 343 c-4
189 -9 345 -10 347 -2 2 -162 6 -355 10 l-352 6 0 -346z"/>
<path d="M6773 6098 c4 -62 10 -217 13 -345 l7 -232 71 -5 c39 -3 150 -11 246
-17 96 -6 212 -14 258 -18 l82 -7 0 105 c0 120 -18 461 -28 536 l-7 50 -85 7
c-47 3 -166 11 -265 17 -99 6 -207 14 -239 17 l-59 5 6 -113z"/>
<path d="M4275 6170 c-110 -10 -230 -21 -266 -25 l-67 -7 -6 -87 c-18 -239
-26 -387 -26 -490 l0 -114 48 6 c54 7 349 33 495 43 l97 7 0 51 c0 97 20 571
25 604 l6 32 -53 -1 c-29 -1 -143 -9 -253 -19z"/>
<path d="M7664 6064 c16 -190 26 -378 26 -491 l0 -121 63 -7 c92 -10 446 -54
490 -61 l37 -7 0 94 c0 100 -12 266 -31 467 -11 110 -15 125 -33 132 -12 4
-122 19 -246 34 -124 15 -245 30 -269 33 l-44 6 7 -79z"/>
<path d="M3415 6073 c-132 -19 -243 -38 -247 -41 -14 -14 -58 -502 -58 -644 0
-39 3 -49 14 -45 8 3 134 23 279 43 l265 38 6 105 c11 192 27 434 33 508 l6
73 -29 -1 c-16 0 -137 -16 -269 -36z"/>
<path d="M8444 6001 c13 -83 37 -357 44 -500 l7 -154 240 -48 c132 -27 244
-48 248 -49 22 -1 -42 662 -66 687 -10 9 -286 68 -451 96 -27 5 -28 4 -22 -32z"/>
<path d="M2845 5974 c-243 -53 -324 -76 -329 -93 -17 -58 -50 -362 -62 -565
-7 -113 -6 -118 12 -112 49 15 307 75 372 86 62 11 72 16 72 34 0 113 38 545
56 644 4 17 2 32 -2 31 -5 0 -58 -12 -119 -25z"/>
<path d="M9093 5879 c3 -13 13 -76 21 -139 13 -102 19 -168 42 -467 l6 -71 51
-13 c29 -7 113 -31 187 -55 74 -24 136 -42 138 -40 11 11 -28 409 -59 609 -12
76 -14 79 -48 93 -29 12 -209 68 -325 101 -16 4 -18 1 -13 -18z"/>
<path d="M2285 5829 c-59 -20 -247 -90 -253 -94 -8 -6 -43 -243 -56 -373 -23
-230 -28 -322 -19 -322 4 0 53 18 108 39 55 21 128 46 161 56 71 20 74 26 74
144 0 78 23 304 45 448 17 118 18 123 8 122 -5 0 -35 -9 -68 -20z"/>
<path d="M9593 5693 c34 -229 48 -344 58 -486 l12 -168 86 -44 c47 -24 100
-53 116 -64 17 -12 34 -21 38 -21 29 0 -55 664 -89 701 -14 16 -204 119 -219
119 -4 0 -5 -17 -2 -37z"/>
<path d="M9900 5529 c0 -8 9 -64 19 -124 24 -141 39 -267 50 -426 8 -121 10
-129 39 -165 17 -22 38 -52 47 -69 16 -29 16 -26 10 80 -15 263 -69 581 -110
650 -28 49 -55 75 -55 54z"/>
<path d="M1652 5453 c-29 -53 -77 -381 -97 -658 l-5 -80 20 38 c16 29 23 68
30 175 11 148 32 318 56 451 15 84 14 108 -4 74z"/>
<path d="M5036 5248 c-121 -4 -221 -10 -223 -12 -5 -5 17 -709 22 -714 5 -5
685 15 690 20 1 1 0 164 -3 361 l-5 357 -131 -2 c-72 0 -230 -5 -350 -10z"/>
<path d="M6790 5153 c0 -48 -5 -209 -10 -358 -7 -188 -6 -271 1 -276 6 -3 78
-9 160 -13 82 -4 222 -13 311 -21 90 -7 164 -12 165 -11 6 5 24 312 29 503 l7
223 -32 0 c-17 0 -123 6 -234 14 -111 8 -246 17 -299 21 l-98 6 0 -88z"/>
<path d="M4225 5200 c-115 -10 -234 -21 -264 -25 l-54 -7 6 -201 c6 -189 26
-508 32 -515 2 -2 81 3 177 12 95 9 236 21 313 27 77 6 140 11 141 12 1 1 -2
65 -7 142 -4 77 -10 238 -14 358 l-7 217 -57 -1 c-31 -1 -150 -9 -266 -19z"/>
<path d="M7690 5044 c0 -117 -8 -260 -26 -506 l-6 -86 43 -6 c302 -40 525 -64
530 -58 10 11 39 354 46 541 l6 168 -34 7 c-40 7 -393 51 -491 61 l-68 7 0
-128z"/>
<path d="M3455 5115 c-240 -34 -323 -48 -336 -56 -10 -6 -10 -51 -1 -206 18
-299 42 -515 58 -509 7 3 131 22 276 42 l264 38 -7 65 c-6 59 -19 263 -35 549
l-6 102 -26 -1 c-15 -1 -99 -11 -187 -24z"/>
<path d="M8487 4902 c-6 -147 -29 -422 -43 -519 -6 -40 -5 -43 17 -43 22 0
377 -69 440 -85 l26 -6 16 138 c17 142 31 303 42 479 l6 102 -74 16 c-127 28
-379 76 -402 76 -21 0 -22 -4 -28 -158z"/>
<path d="M2730 4990 c-69 -16 -159 -37 -200 -47 l-75 -20 3 -124 c5 -212 48
-589 68 -589 6 0 76 15 155 34 79 19 173 40 209 47 36 6 68 14 72 18 3 3 0 56
-7 116 -14 112 -29 296 -41 488 l-6 107 -26 -1 c-15 -1 -83 -14 -152 -29z"/>
<path d="M9156 4858 c-3 -34 -10 -133 -16 -218 -10 -140 -32 -332 -46 -402 -4
-23 -1 -27 28 -36 18 -6 102 -32 185 -58 84 -26 155 -46 157 -43 13 14 57 392
71 611 l7 97 -154 50 c-85 27 -171 52 -190 56 l-36 7 -6 -64z"/>
<path d="M2165 4835 c-66 -23 -142 -51 -168 -61 l-49 -19 7 -90 c16 -234 52
-544 71 -607 5 -17 8 -17 42 -2 20 9 93 36 161 60 68 24 126 45 128 48 3 2 -4
74 -16 158 -25 184 -41 358 -42 453 -1 112 5 110 -134 60z"/>
<path d="M9651 4587 c-9 -134 -47 -449 -64 -529 -1 -7 21 -22 48 -36 28 -13
81 -42 118 -64 38 -22 71 -38 73 -35 16 15 66 403 79 602 l6 100 -43 26 c-24
15 -79 45 -124 67 l-80 40 -13 -171z"/>
<path d="M1741 4640 c-50 -34 -93 -65 -96 -70 -7 -11 9 -244 26 -380 11 -92
49 -323 54 -328 2 -2 26 14 53 35 27 21 71 51 97 66 46 27 47 29 42 65 -3 20
-15 98 -26 172 -24 161 -41 339 -41 433 0 37 -4 67 -9 67 -5 0 -50 -27 -100
-60z"/>
<path d="M9976 4538 c-3 -13 -6 -47 -6 -76 0 -74 -27 -313 -53 -469 l-22 -132
28 -33 c16 -18 36 -50 46 -71 21 -43 23 -41 37 58 5 39 9 46 15 30 5 -12 6 -1
3 30 -4 38 -3 46 6 35 8 -11 9 -3 5 35 -5 38 -4 47 5 35 9 -11 10 -2 5 40 -4
39 -3 51 4 40 8 -11 10 1 8 45 -1 33 2 119 7 192 8 123 7 134 -13 175 -12 25
-32 55 -45 67 l-23 22 -7 -23z"/>
<path d="M1567 4446 c-28 -82 -16 -331 28 -604 14 -84 25 -156 25 -160 0 -4
12 20 26 53 30 70 30 69 10 177 -25 135 -45 297 -52 419 -4 63 -10 125 -14
139 -6 23 -8 20 -23 -24z"/>
<path d="M5037 4249 c-98 -4 -181 -10 -184 -13 -6 -5 14 -297 39 -565 l11
-124 186 6 c102 4 248 7 323 7 l138 0 -5 168 c-3 92 -8 249 -11 350 l-6 182
-157 -2 c-86 0 -236 -4 -334 -9z"/>
<path d="M5800 3917 l0 -344 197 -6 c108 -4 256 -7 330 -7 l133 0 0 24 c0 14
6 130 14 258 8 128 17 272 19 319 l5 86 -67 7 c-36 3 -193 6 -348 6 l-283 0 0
-343z"/>
<path d="M6741 4053 c-6 -104 -19 -257 -27 -341 -8 -84 -12 -157 -9 -163 4 -5
30 -9 58 -9 29 0 159 -7 290 -16 138 -10 242 -13 246 -8 12 12 91 586 91 655
0 25 -3 27 -67 33 -95 9 -490 36 -533 36 l-36 0 -13 -187z"/>
<path d="M4470 4218 c-63 -5 -200 -16 -305 -26 l-190 -17 3 -35 c10 -114 96
-649 105 -656 1 -1 90 6 197 16 107 10 239 21 292 25 94 7 98 8 93 28 -8 33
-42 354 -56 517 -6 80 -15 147 -18 150 -3 3 -58 2 -121 -2z"/>
<path d="M7625 4145 c-3 -16 -10 -68 -15 -115 -12 -98 -78 -506 -86 -532 -4
-15 1 -18 25 -18 17 0 138 -14 268 -30 130 -17 237 -29 239 -27 14 14 134 602
134 658 l0 26 -162 22 c-90 12 -216 28 -280 34 l-118 13 -5 -31z"/>
<path d="M8395 4048 c-2 -13 -18 -92 -35 -177 -17 -85 -49 -226 -71 -313 -22
-88 -37 -163 -35 -167 3 -5 40 -14 83 -20 43 -7 141 -26 217 -42 77 -16 140
-28 142 -27 16 17 154 533 170 635 6 42 6 42 -32 52 -54 14 -400 81 -418 81
-9 0 -18 -10 -21 -22z"/>
<path d="M2925 4019 c-198 -43 -355 -85 -355 -94 0 -50 169 -636 189 -658 5
-4 53 3 107 17 86 21 294 66 308 66 2 0 -4 30 -15 68 -34 117 -106 413 -125
515 -20 108 -17 106 -109 86z"/>
<path d="M9500 3683 c-34 -129 -96 -322 -146 -451 -24 -63 -44 -118 -44 -122
0 -4 10 -10 23 -14 12 -3 62 -28 111 -56 48 -28 89 -50 91 -48 1 2 30 71 63
153 60 151 145 402 157 468 7 35 6 37 -50 72 -60 39 -153 85 -171 85 -6 0 -21
-39 -34 -87z"/>
<path d="M1913 3683 c-33 -21 -75 -50 -93 -64 l-32 -26 27 -94 c54 -190 181
-523 211 -558 2 -2 20 10 41 26 21 17 61 43 88 58 28 16 51 29 53 30 1 1 -22
65 -52 141 -53 136 -134 382 -157 477 -6 26 -15 47 -18 47 -4 0 -35 -17 -68
-37z"/>
<path d="M9826 3579 c-61 -200 -109 -341 -162 -471 -35 -89 -64 -166 -64 -173
0 -6 9 -20 21 -31 12 -10 30 -37 41 -59 l21 -40 24 55 c85 191 213 547 213
595 0 23 -47 102 -73 124 -14 11 -17 11 -21 0z"/>
<path d="M1715 3490 c-14 -30 -16 -54 -12 -102 7 -81 76 -290 165 -498 63
-146 71 -160 72 -125 0 23 9 58 20 80 l20 39 -56 129 c-31 71 -84 214 -119
319 -34 104 -64 191 -67 193 -3 3 -13 -13 -23 -35z"/>
<path d="M5807 3304 c-4 -4 -7 -150 -7 -324 l0 -317 282 -6 c181 -4 285 -3
288 4 6 9 25 185 54 489 7 74 10 138 7 141 -9 9 -615 22 -624 13z"/>
<path d="M5050 3291 l-115 -6 3 -35 c8 -99 79 -600 86 -607 3 -4 550 17 554
21 2 2 -3 146 -9 320 l-13 316 -195 -2 c-108 -1 -248 -4 -311 -7z"/>
<path d="M6660 3187 c-7 -56 -27 -202 -44 -324 l-32 -223 26 0 c14 0 130 -7
258 -16 128 -9 236 -14 238 -11 14 13 144 572 144 615 0 22 -16 24 -310 42
-91 5 -188 12 -216 14 l-52 4 -12 -101z"/>
<path d="M4375 3248 c-126 -11 -232 -22 -235 -24 -8 -9 150 -617 165 -632 5
-5 496 36 502 42 3 2 -11 94 -31 203 -20 109 -44 250 -54 313 l-18 115 -50 2
c-27 0 -152 -8 -279 -19z"/>
<path d="M7465 3217 c-2 -7 -20 -82 -40 -167 -32 -135 -104 -399 -121 -443 -7
-19 -8 -18 236 -48 96 -11 187 -23 201 -26 25 -5 27 0 74 124 59 157 165 471
165 490 0 19 -2 20 -235 48 -115 14 -225 27 -243 29 -20 3 -34 0 -37 -7z"/>
<path d="M3825 3189 c-236 -33 -366 -54 -376 -60 -14 -8 35 -156 134 -404 99
-249 87 -227 116 -220 53 11 367 55 395 55 21 0 27 4 22 15 -17 44 -110 348
-141 460 -20 72 -38 138 -41 148 -6 19 -16 19 -109 6z"/>
<path d="M3140 3075 c-136 -30 -272 -64 -278 -70 -6 -6 8 -40 85 -210 99 -217
203 -407 220 -400 8 3 90 22 182 42 l168 37 -50 110 c-68 153 -92 210 -153
371 -29 77 -56 140 -61 141 -4 1 -55 -8 -113 -21z"/>
<path d="M8711 2908 c-24 -57 -89 -193 -145 -303 -56 -109 -102 -202 -104
-206 -1 -3 35 -17 80 -29 46 -13 112 -34 147 -46 36 -13 68 -21 72 -18 17 10
201 337 275 488 l55 111 -30 12 c-30 13 -291 93 -301 93 -3 0 -25 -46 -49
-102z"/>
<path d="M2595 2929 c-118 -40 -175 -65 -175 -74 0 -12 103 -210 162 -310 130
-221 172 -285 188 -281 19 6 254 89 258 91 1 1 -21 42 -49 91 -45 78 -188 359
-244 481 l-20 43 -120 -41z"/>
<path d="M9146 2763 c-55 -112 -143 -266 -228 -401 -32 -51 -58 -95 -58 -97 0
-3 28 -19 63 -36 34 -17 74 -40 89 -50 14 -11 30 -19 36 -19 20 0 237 338 332
517 24 47 30 66 22 76 -12 14 -184 107 -198 107 -5 0 -31 -44 -58 -97z"/>
<path d="M2250 2773 c-66 -42 -100 -72 -100 -88 0 -19 199 -345 282 -462 l79
-111 79 51 c44 29 79 55 80 58 0 4 -24 42 -53 85 -67 99 -167 268 -238 401
-30 57 -58 103 -64 102 -5 0 -35 -16 -65 -36z"/>
<path d="M9415 2588 c-44 -79 -238 -380 -298 -462 -5 -7 6 -33 29 -68 l38 -58
23 28 c82 101 353 517 353 542 0 13 -66 114 -76 117 -6 2 -37 -42 -69 -99z"/>
<path d="M2076 2600 c-9 -22 -16 -56 -16 -75 0 -64 129 -284 302 -517 44 -60
81 -108 83 -108 2 0 1 18 -2 40 -4 26 1 56 12 85 l17 45 -65 88 c-73 97 -227
338 -273 426 -16 31 -32 56 -35 56 -4 0 -14 -18 -23 -40z"/>
<path d="M5185 2410 l-120 -5 3 -30 c4 -31 73 -380 95 -475 l13 -55 224 3
c123 2 225 4 225 5 3 4 -27 524 -31 545 -4 22 -6 22 -147 20 -78 -1 -196 -4
-262 -8z"/>
<path d="M5810 2135 l0 -285 164 0 c89 0 190 -3 223 -6 48 -5 61 -4 66 9 12
31 80 536 74 551 -6 14 -38 16 -267 16 l-260 0 0 -285z"/>
<path d="M4570 2373 c-96 -9 -178 -18 -182 -22 -7 -7 93 -275 167 -449 46
-108 50 -114 74 -109 14 3 105 11 201 18 96 7 176 13 178 15 2 1 -19 84 -46
185 -28 101 -60 228 -73 282 l-23 97 -60 -1 c-34 -1 -140 -8 -236 -16z"/>
<path d="M7176 2218 c-26 -73 -75 -197 -108 -276 -33 -79 -59 -144 -57 -146 8
-7 359 -47 368 -42 21 14 281 508 281 536 0 5 -10 12 -22 15 -40 8 -348 45
-382 45 l-33 0 -47 -132z"/>
<path d="M3963 2302 c-95 -14 -173 -30 -173 -35 0 -26 221 -417 292 -516 l17
-25 176 24 c96 13 175 27 175 31 0 3 -23 53 -51 110 -43 88 -128 282 -178 407
-16 40 -20 40 -258 4z"/>
<path d="M7757 2148 c-35 -68 -103 -190 -152 -271 -48 -81 -86 -149 -84 -151
2 -1 72 -16 154 -32 l151 -30 36 46 c101 128 328 466 328 487 0 9 -307 73
-347 73 -17 0 -34 -25 -86 -122z"/>
<path d="M8275 2098 c-68 -104 -204 -290 -274 -378 -64 -79 -70 -90 -48 -90 8
0 62 -15 120 -34 l106 -33 103 116 c121 136 169 194 262 313 l68 88 -29 11
c-34 13 -245 79 -254 79 -3 0 -28 -33 -54 -72z"/>
<path d="M3050 2094 c-52 -20 -103 -38 -112 -41 -10 -3 -18 -9 -18 -13 0 -22
212 -271 359 -423 l85 -88 85 31 c47 17 96 35 109 41 22 9 20 12 -56 97 -80
92 -220 273 -288 375 -21 31 -45 57 -54 57 -8 -1 -58 -17 -110 -36z"/>
<path d="M750 2006 c0 -67 -28 -181 -52 -211 -11 -14 -36 -34 -56 -44 -37 -19
-146 -40 -219 -42 -21 -1 -2 -5 42 -10 216 -23 267 -69 282 -262 3 -42 8 -76
10 -74 1 2 8 39 13 81 25 195 70 236 280 253 l85 7 -75 8 c-222 23 -266 60
-290 249 -11 94 -20 114 -20 45z"/>
<path d="M8644 1972 c-71 -92 -186 -225 -294 -339 -50 -52 -90 -98 -90 -102 0
-3 17 -14 38 -23 20 -9 54 -27 74 -39 l37 -22 58 51 c124 107 417 426 410 446
-5 14 -124 83 -157 90 -22 5 -32 -3 -76 -62z"/>
<path d="M2774 1969 c-27 -17 -59 -40 -71 -52 l-22 -20 72 -81 c95 -106 310
-321 369 -369 l46 -38 45 33 c24 18 53 38 63 44 17 10 5 26 -126 160 -80 82
-183 195 -229 252 -46 56 -87 102 -90 102 -4 0 -29 -14 -57 -31z"/>
<path d="M10017 1888 c-17 -190 -69 -238 -277 -255 l-85 -7 102 -12 c105 -13
175 -37 205 -71 28 -30 48 -101 55 -186 3 -42 8 -76 10 -74 2 2 8 41 14 87 12
95 29 144 66 182 34 35 69 47 195 62 l103 12 -85 7 c-207 17 -256 60 -279 247
-5 39 -11 74 -14 76 -2 2 -7 -28 -10 -68z"/>
<path d="M8855 1809 c-44 -50 -151 -160 -238 -245 l-158 -153 28 -43 c15 -24
28 -45 30 -47 10 -15 493 451 493 476 0 13 -60 103 -68 103 -4 0 -43 -41 -87
-91z"/>
<path d="M2626 1821 c-40 -76 -14 -136 117 -269 95 -96 318 -303 378 -351 l27
-21 -20 38 c-18 35 -20 70 -6 143 2 11 -49 64 -136 145 -77 71 -183 176 -235
234 -53 58 -99 106 -103 108 -4 2 -14 -10 -22 -27z"/>
<path d="M8860 1590 c-80 -80 -188 -181 -241 -225 -74 -62 -101 -92 -120 -132
-17 -36 -20 -48 -9 -40 240 197 534 500 518 535 -2 4 -68 -58 -148 -138z"/>
<path d="M5413 1641 c-94 -3 -174 -9 -178 -13 -6 -6 55 -234 107 -396 l23 -72
155 7 c85 3 156 7 158 9 3 2 -21 309 -34 422 -5 49 -7 52 -32 50 -15 -1 -104
-4 -199 -7z"/>
<path d="M5810 1410 l0 -240 159 0 159 0 16 68 c9 37 32 141 50 232 l33 165
-106 6 c-58 4 -152 7 -208 8 l-103 1 0 -240z"/>
<path d="M6370 1583 c-6 -27 -36 -130 -66 -231 -30 -101 -54 -185 -54 -186 0
-2 44 -7 98 -10 53 -4 120 -9 147 -12 l50 -6 114 231 c63 128 112 233 110 235
-5 5 -283 26 -342 26 l-44 0 -13 -47z"/>
<path d="M4850 1609 c-170 -14 -161 -2 -95 -127 59 -112 166 -294 194 -330 16
-20 19 -21 159 -10 123 10 142 14 136 27 -25 58 -137 356 -150 399 l-15 52
-62 -1 c-34 -1 -109 -6 -167 -10z"/>
<path d="M6857 1488 c-29 -57 -88 -160 -130 -230 -42 -71 -73 -128 -69 -128 4
0 64 -7 132 -15 l125 -16 27 33 c159 190 314 408 298 418 -11 7 -273 40 -312
40 -10 0 -35 -36 -71 -102z"/>
<path d="M4392 1556 c-84 -13 -154 -25 -156 -27 -8 -7 214 -278 297 -364 l82
-84 113 18 c62 10 115 20 118 23 3 3 -26 50 -64 104 -37 55 -104 156 -147 227
-43 70 -81 127 -84 126 -3 0 -75 -11 -159 -23z"/>
<path d="M7298 1428 c-42 -57 -114 -145 -160 -196 -46 -52 -93 -106 -106 -122
l-22 -27 107 -20 108 -21 45 36 c60 48 390 378 390 390 0 9 -157 46 -245 57
l-40 5 -77 -102z"/>
<path d="M4065 1499 c-60 -12 -135 -30 -179 -41 l-39 -10 99 -100 c95 -95 258
-242 335 -301 l36 -27 94 21 c52 12 96 23 98 25 2 2 -55 65 -127 141 -72 76
-161 174 -197 218 -36 44 -69 81 -73 81 -4 1 -25 -2 -47 -7z"/>
<path d="M7655 1340 c-61 -61 -150 -146 -199 -188 -49 -42 -103 -89 -120 -104
-24 -20 -27 -28 -16 -31 8 -3 46 -15 83 -26 l68 -21 47 32 c145 98 462 357
462 377 0 6 -193 72 -210 71 -3 0 -55 -50 -115 -110z"/>
<path d="M3657 1391 c-43 -16 -83 -33 -88 -38 -15 -15 245 -223 434 -348 l88
-58 67 23 c37 12 70 26 75 30 4 3 -14 22 -40 41 -65 46 -260 211 -358 304 -44
41 -84 74 -90 74 -5 0 -45 -13 -88 -28z"/>
<path d="M7985 1288 c-81 -70 -276 -218 -383 -290 l-74 -50 52 -29 c29 -16 55
-29 58 -29 8 0 174 102 267 163 139 93 295 211 292 221 -4 11 -117 76 -132 75
-5 0 -41 -27 -80 -61z"/>
<path d="M3432 1285 c-28 -20 -52 -40 -52 -45 0 -18 291 -216 473 -321 l100
-58 44 30 c24 17 43 32 41 34 -2 2 -59 40 -128 85 -128 85 -235 163 -351 257
-36 29 -68 53 -70 53 -2 0 -28 -16 -57 -35z"/>
<path d="M3330 1181 c-5 -11 -10 -34 -10 -51 0 -67 34 -100 207 -205 45 -27
79 -53 77 -57 -3 -4 1 -5 8 -3 8 3 22 -2 33 -10 19 -15 19 -16 -5 -5 -23 10
-24 10 -6 -4 10 -9 23 -13 27 -10 4 2 66 -25 138 -61 71 -36 132 -65 135 -65
2 0 -3 14 -11 32 -13 26 -14 37 -4 62 9 25 9 33 -1 39 -7 4 -64 37 -127 73
-120 68 -315 193 -390 250 -51 39 -57 41 -71 15z"/>
<path d="M8220 1064 c-94 -65 -268 -169 -396 -236 -79 -41 -114 -66 -123 -84
-6 -15 -10 -28 -8 -30 2 -2 56 23 121 56 65 33 123 57 128 54 7 -5 8 -2 3 6
-6 10 -4 12 9 7 11 -5 15 -3 10 5 -5 8 -2 9 10 5 10 -4 15 -3 11 3 -7 11 52
43 65 35 5 -3 12 0 16 6 5 8 3 9 -6 4 -9 -6 -11 -4 -6 4 5 7 15 10 23 7 8 -3
12 -2 9 3 -3 5 26 28 64 50 81 48 150 110 150 134 0 24 -7 21 -80 -29z"/>
<path d="M5473 1003 c-24 -2 -43 -8 -43 -12 0 -14 79 -199 116 -273 l34 -68
68 0 c37 0 73 4 80 9 11 7 10 36 -7 167 -12 88 -21 165 -21 172 0 12 -118 15
-227 5z"/>
<path d="M5810 836 l0 -173 76 -6 c42 -4 80 -4 85 -2 11 7 109 309 109 336 0
18 -8 19 -135 19 l-135 0 0 -174z"/>
<path d="M6181 976 c-29 -74 -85 -205 -112 -258 -17 -33 -29 -61 -27 -63 2 -1
35 -5 73 -9 70 -7 71 -7 102 26 37 39 193 247 213 283 7 14 11 27 9 29 -2 2
-59 7 -126 11 l-123 7 -9 -26z"/>
<path d="M5138 983 c-32 -2 -58 -8 -58 -12 0 -14 128 -169 211 -256 l77 -80
53 3 c107 6 105 1 44 98 -30 47 -73 123 -97 170 l-43 84 -65 -2 c-36 -1 -91
-3 -122 -5z"/>
<path d="M6765 860 c-44 -39 -135 -110 -202 -158 -74 -52 -117 -89 -110 -93 7
-4 31 -10 54 -14 38 -6 51 -2 145 50 57 31 168 100 248 153 l145 96 -50 12
c-27 7 -72 16 -100 19 l-50 5 -80 -70z"/>
<path d="M4630 908 c-25 -5 -63 -14 -84 -19 l-39 -11 44 -29 c87 -59 261 -160
371 -215 l112 -56 54 12 54 12 -78 47 c-90 54 -232 153 -318 223 -33 26 -62
48 -65 47 -4 -1 -26 -5 -51 -11z"/>
<path d="M7040 834 c-75 -51 -270 -164 -380 -219 l-75 -38 45 -13 c44 -13 47
-13 165 38 127 53 396 188 435 218 l24 18 -71 21 c-38 12 -72 21 -74 20 -2 0
-33 -20 -69 -45z"/>
<path d="M4381 840 c-30 -11 -56 -21 -58 -24 -13 -13 321 -173 500 -240 90
-34 101 -36 133 -24 34 12 46 28 22 28 -22 0 -308 146 -422 214 -59 36 -111
66 -115 66 -3 -1 -30 -9 -60 -20z"/>
<path d="M7126 725 c-93 -46 -225 -105 -292 -132 -68 -26 -124 -51 -124 -54 0
-3 11 -11 25 -17 21 -10 40 -7 108 14 104 33 378 141 481 189 l79 38 -39 23
c-21 13 -46 24 -54 23 -8 0 -91 -38 -184 -84z"/>
<path d="M4233 769 c-18 -12 -33 -24 -33 -27 0 -20 588 -242 641 -242 8 0 24
6 34 14 17 12 14 15 -31 31 -162 60 -296 115 -423 176 -79 38 -147 69 -150 69
-3 0 -21 -10 -38 -21z"/>
<path d="M7388 724 c-59 -32 -311 -129 -460 -178 -139 -46 -155 -53 -144 -68
11 -15 24 -13 152 22 246 68 524 171 524 195 0 11 -31 45 -41 45 -2 -1 -16 -7
-31 -16z"/>
<path d="M4166 703 c-10 -25 -6 -67 8 -86 8 -10 74 -38 147 -63 129 -43 465
-134 498 -134 25 0 20 64 -5 69 -52 9 -376 120 -501 171 -114 47 -143 55 -147
43z"/>
<path d="M7355 618 c-107 -42 -374 -124 -492 -153 -47 -11 -73 -22 -73 -31 0
-8 6 -14 14 -14 51 0 496 128 608 174 30 13 59 50 46 60 -1 2 -48 -15 -103
-36z"/>
<path d="M4240 560 c29 -22 125 -60 230 -91 41 -12 80 -26 86 -31 6 -4 20 -5
29 -1 14 5 16 3 10 -7 -6 -10 -2 -11 19 -6 17 4 25 3 22 -3 -9 -14 329 -89
342 -76 3 2 -14 7 -37 11 -22 4 -41 10 -41 15 0 5 -15 6 -32 4 -27 -4 -28 -3
-8 3 35 11 21 17 -115 47 -131 29 -391 102 -476 134 -51 20 -53 20 -29 1z"/>
<path d="M7335 554 c-93 -35 -310 -96 -439 -125 -76 -16 -148 -37 -160 -44
-11 -8 -16 -15 -11 -16 6 0 -14 -7 -43 -15 -30 -8 -61 -19 -70 -25 -15 -9 -14
-10 3 -4 11 4 45 11 75 16 138 25 272 62 259 71 -9 6 -3 7 20 3 25 -5 32 -4
26 5 -5 9 -1 10 15 5 16 -5 20 -4 15 5 -5 9 -2 10 14 5 13 -4 21 -2 21 5 0 6
6 10 13 9 6 -1 19 0 27 3 8 3 60 20 115 38 95 31 175 65 175 75 0 7 -11 5 -55
-11z"/>
<path d="M5687 541 l-37 -6 26 -40 c15 -22 47 -62 73 -89 35 -38 39 -44 16
-29 -16 12 -61 53 -98 92 -71 73 -85 79 -147 62 -22 -6 -16 -12 66 -66 50 -33
99 -66 110 -73 33 -23 -150 75 -198 105 -36 23 -54 28 -88 25 -43 -4 -43 -5
-21 -21 12 -9 64 -34 116 -56 52 -21 93 -41 90 -43 -2 -2 -61 20 -132 48 -118
49 -169 60 -196 43 -6 -4 38 -23 98 -44 141 -48 123 -50 -25 -3 -69 22 -122
33 -137 29 -38 -9 -19 -21 67 -41 44 -10 78 -20 75 -22 -2 -3 -47 5 -99 17
-67 16 -101 19 -113 13 -15 -9 -12 -12 17 -21 l35 -11 -37 5 c-39 6 -52 -3
-42 -29 4 -10 19 -16 38 -17 29 -1 29 -1 6 -8 -22 -6 -23 -8 -7 -14 10 -4 28
-7 38 -7 11 0 18 -4 15 -9 -8 -12 29 -21 99 -22 49 -1 54 -3 30 -9 -24 -6 -17
-8 33 -9 34 0 62 -5 62 -10 0 -5 54 -12 119 -16 115 -7 122 -6 178 19 32 14
49 19 38 10 -11 -9 -33 -22 -50 -30 -30 -13 -29 -13 28 -14 56 0 58 1 64 30 7
35 23 50 23 21 0 -44 10 -51 69 -51 l56 1 -47 25 c-66 34 -60 39 8 7 54 -25
59 -25 182 -17 101 6 118 10 82 15 -35 5 -22 7 55 9 70 2 91 5 70 10 -24 6
-19 8 30 9 75 2 112 10 93 22 -8 6 0 9 24 9 37 0 65 19 31 21 -10 1 -5 4 12 8
30 6 45 35 28 52 -4 4 -67 -3 -138 -16 -72 -13 -141 -24 -155 -24 -14 0 39 13
117 28 78 15 145 30 148 33 20 20 -49 14 -155 -12 -67 -17 -126 -30 -131 -28
-5 2 42 16 106 32 63 16 115 33 115 37 0 23 -58 17 -152 -16 -56 -20 -106 -34
-111 -32 -6 2 20 14 58 26 37 13 81 29 98 36 29 12 29 12 6 18 -44 12 -66 7
-160 -37 -134 -62 -163 -66 -44 -5 55 28 102 52 103 54 2 2 -17 7 -42 10 -43
7 -49 5 -123 -48 -43 -30 -94 -62 -113 -72 -41 -20 -35 -14 40 43 31 22 66 53
80 67 l23 25 -54 0 -55 0 -53 -75 c-30 -41 -58 -75 -62 -75 -5 0 10 33 32 74
39 73 39 74 17 80 -13 3 -40 6 -60 6 l-38 0 -1 -97 c-1 -106 -6 -101 -33 32
-14 66 -18 68 -89 56z"/>
</g>
</svg>
