<?xml version="1.0" standalone="no"?>
<!DOCTYPE svg PUBLIC "-//W3C//DTD SVG 20010904//EN"
 "http://www.w3.org/TR/2001/REC-SVG-20010904/DTD/svg10.dtd">
<svg version="1.0" xmlns="http://www.w3.org/2000/svg"
 width="471.000000pt" height="999.000000pt" viewBox="0 0 471.000000 999.000000"
 preserveAspectRatio="xMidYMid meet">
<metadata>
Created by potrace 1.16, written by Peter Selinger 2001-2019
</metadata>
<g transform="translate(0.000000,999.000000) scale(0.100000,-0.100000)"
fill="#000000" stroke="none">
<path d="M2632 9805 c-12 -9 -34 -39 -48 -68 -15 -28 -41 -72 -59 -98 -19 -28
-41 -81 -54 -131 -37 -140 -52 -179 -103 -280 -57 -111 -43 -107 -188 -62 -93
29 -154 31 -198 4 -50 -31 -56 -59 -32 -146 33 -117 44 -136 128 -216 78 -74
174 -145 283 -206 45 -25 60 -41 79 -82 22 -48 79 -109 145 -156 l29 -21 -38
-52 c-40 -54 -67 -71 -113 -71 -17 0 -48 -20 -92 -58 -36 -32 -122 -101 -191
-153 -69 -52 -160 -127 -202 -167 -68 -65 -80 -82 -107 -153 -29 -77 -80 -271
-118 -449 -15 -74 -24 -93 -73 -160 -68 -90 -246 -287 -293 -323 -19 -14 -85
-85 -148 -158 -101 -117 -121 -135 -177 -160 -35 -16 -72 -29 -82 -29 -19 0
-76 -59 -101 -107 -10 -18 -28 -33 -45 -37 -43 -11 -54 -25 -54 -67 0 -26 6
-41 17 -48 14 -8 2 -10 -47 -11 -56 0 -262 37 -449 81 -49 12 -54 12 -67 -6
-8 -11 -13 -26 -12 -34 4 -19 93 -68 175 -96 38 -14 61 -26 53 -29 -48 -18
-255 -66 -308 -72 -78 -8 -92 -23 -67 -70 10 -18 29 -41 42 -49 20 -13 23 -22
18 -46 -6 -28 -5 -29 28 -29 19 0 66 10 103 22 38 12 73 22 77 23 4 0 19 -33
33 -73 27 -82 71 -173 88 -184 6 -5 24 -5 40 -2 28 6 29 6 22 -29 -6 -31 -3
-38 16 -50 57 -36 62 -34 172 65 73 66 136 112 213 155 59 34 134 82 165 108
l56 46 114 -46 113 -47 33 39 c19 21 54 76 78 123 33 62 81 126 180 240 75 85
172 198 217 250 44 52 138 155 208 228 l128 134 16 -33 c15 -28 16 -51 10
-168 -17 -345 -51 -559 -121 -756 -55 -157 -120 -379 -168 -575 -39 -163 -106
-482 -106 -509 0 -9 14 -36 31 -58 29 -37 37 -42 88 -48 31 -3 72 -11 93 -16
33 -8 37 -14 49 -62 9 -33 14 -111 13 -217 0 -91 4 -363 9 -605 8 -382 7 -462
-7 -605 -24 -240 -32 -837 -15 -1060 8 -96 14 -242 15 -325 0 -141 3 -158 35
-270 l35 -119 -25 -64 c-23 -59 -24 -67 -13 -121 28 -137 39 -158 115 -232 78
-75 125 -98 238 -118 59 -10 77 -8 198 18 73 16 134 31 137 33 10 11 -62 171
-113 250 -16 26 -16 27 16 63 24 28 31 43 27 61 -11 41 -7 664 4 769 52 494
117 839 245 1289 l34 121 16 390 c8 215 18 450 22 523 l6 132 38 -52 c54 -74
152 -274 193 -395 70 -205 117 -441 132 -659 6 -93 3 -123 -41 -370 -26 -148
-92 -496 -146 -773 -55 -277 -98 -505 -96 -507 1 -2 56 -28 120 -58 64 -30
117 -57 117 -58 0 -33 -51 -158 -95 -232 -57 -97 -127 -254 -139 -311 -6 -29
-1 -35 101 -119 l108 -88 48 6 c26 4 54 9 62 12 8 4 33 -13 62 -43 38 -39 65
-85 132 -228 47 -99 90 -186 95 -194 14 -19 254 -210 322 -257 l52 -36 46 21
c25 11 46 24 46 29 0 4 -11 37 -25 73 -63 157 -175 491 -190 564 -9 44 -48
198 -87 343 -39 144 -69 265 -65 268 3 3 15 0 27 -6 12 -7 26 -8 30 -3 5 4 85
316 180 692 l171 685 15 220 c13 187 21 242 50 359 41 161 40 215 -6 307 -21
42 -37 111 -68 290 -59 333 -81 486 -88 593 -6 85 -10 100 -61 207 -43 90 -67
160 -108 320 -29 113 -57 213 -61 223 -6 17 -1 18 99 11 120 -8 97 -24 182
126 26 47 67 106 90 132 24 26 46 60 49 74 4 15 48 119 98 233 181 411 191
441 207 585 12 104 -1 207 -48 381 -52 193 -87 349 -112 505 -24 154 -108 468
-159 600 -73 187 -193 397 -259 452 -70 59 -300 107 -624 129 -98 7 -196 19
-227 29 l-55 17 105 52 c58 30 135 71 173 93 63 38 67 42 67 77 -1 45 -22 105
-47 133 -26 30 -89 56 -153 63 -103 12 -94 2 -110 122 -9 63 -15 187 -15 298
0 173 -2 194 -21 229 -32 62 -61 78 -156 87 -54 5 -118 20 -184 43 -123 44
-209 55 -242 31z m738 -1346 c108 -36 132 -54 213 -168 128 -178 249 -418 333
-664 38 -111 44 -141 44 -211 0 -44 10 -135 21 -201 15 -86 22 -172 24 -305 1
-102 6 -243 10 -315 13 -230 -20 -341 -147 -497 -35 -43 -94 -115 -132 -162
-66 -81 -70 -84 -120 -90 -93 -12 -220 -46 -288 -78 l-68 -31 -62 23 c-128 46
-235 108 -386 223 -51 38 -121 84 -155 102 l-62 31 -9 68 c-7 47 -5 121 5 239
17 210 16 310 -6 520 -15 145 -15 169 -2 227 13 59 13 76 -3 185 -17 118 -17
121 2 174 20 52 20 55 3 117 -16 59 -16 69 0 156 l17 94 -37 127 c-31 109 -35
130 -23 145 7 9 33 41 57 69 l45 53 48 -75 c63 -96 121 -147 187 -164 74 -19
157 -79 224 -161 38 -46 64 -70 75 -68 21 4 39 42 52 108 13 66 30 334 30 463
0 53 3 97 7 97 5 0 51 -14 103 -31z m-2740 -2660 c61 -14 99 -26 97 -33 -2 -6
-31 -29 -64 -51 -38 -25 -68 -53 -78 -75 l-18 -35 -23 88 c-13 48 -28 97 -34
107 -14 26 -7 26 120 -1z m3131 -46 c38 -44 90 -152 115 -243 l18 -64 -101
-96 c-55 -52 -135 -137 -177 -188 -85 -102 -104 -118 -221 -189 -70 -43 -84
-48 -108 -40 -27 9 -28 10 -11 35 16 24 16 25 -2 18 -11 -4 -43 -14 -73 -22
-44 -11 -57 -11 -63 -1 -16 25 -6 36 90 100 92 61 248 195 238 204 -2 2 -28
-11 -57 -30 -131 -84 -205 -105 -294 -87 -98 20 -85 47 40 83 107 30 154 58
207 121 73 87 96 161 69 229 -6 15 -31 50 -56 76 -25 27 -42 52 -37 55 5 3 67
17 138 30 71 14 149 29 174 35 71 14 76 13 111 -26z m-81 -4263 c85 -23 155
-42 156 -43 1 -1 20 -87 43 -190 23 -104 58 -238 77 -299 18 -60 34 -113 34
-118 0 -5 -15 -4 -32 1 -48 13 -95 11 -156 -8 -43 -14 -56 -15 -60 -5 -2 7
-26 58 -53 113 -27 55 -49 102 -49 104 0 1 23 8 50 15 56 13 70 25 41 35 -40
12 -167 103 -209 149 -48 52 -81 117 -82 158 0 31 55 128 73 128 7 0 82 -18
167 -40z m-1267 -276 c56 -14 103 -27 105 -29 2 -2 -30 -27 -72 -56 -52 -38
-80 -65 -92 -92 -10 -21 -21 -40 -25 -43 -5 -3 -24 19 -43 48 l-36 53 28 73
c14 39 28 72 30 72 2 0 49 -12 105 -26z"/>
</g>
</svg>
