<?xml version="1.0" standalone="no"?>
<!DOCTYPE svg PUBLIC "-//W3C//DTD SVG 20010904//EN"
 "http://www.w3.org/TR/2001/REC-SVG-20010904/DTD/svg10.dtd">
<svg version="1.0" xmlns="http://www.w3.org/2000/svg"
 width="946.000000pt" height="763.000000pt" viewBox="0 0 946.000000 763.000000"
 preserveAspectRatio="xMidYMid meet">
<metadata>
Created by potrace 1.16, written by Peter Selinger 2001-2019
</metadata>
<g transform="translate(0.000000,763.000000) scale(0.100000,-0.100000)"
fill="#000000" stroke="none">
<path d="M3189 7527 c-42 -56 -100 -135 -129 -175 -36 -49 -56 -69 -64 -63 -7
6 -18 4 -31 -5 -17 -13 -18 -17 -7 -35 12 -18 11 -24 -9 -45 -27 -29 -37 -30
-64 -4 -19 18 -23 18 -41 6 -19 -14 -19 -15 5 -40 l23 -25 -28 -24 c-24 -21
-26 -27 -15 -40 10 -13 6 -24 -28 -67 -23 -29 -41 -58 -41 -66 0 -26 47 -15
74 17 16 19 42 35 64 40 46 11 71 11 56 1 -6 -4 -19 -21 -28 -39 -21 -41 -8
-76 34 -98 26 -13 37 -14 68 -4 44 14 82 46 82 69 0 9 5 21 12 28 9 9 6 18
-16 41 l-27 28 30 12 c16 7 32 20 36 29 5 14 11 11 34 -17 25 -31 29 -32 49
-20 27 17 28 35 3 51 -18 11 -17 13 13 33 27 18 31 27 29 61 -3 62 -62 96
-171 98 -39 1 -38 5 25 86 69 90 99 130 126 170 14 19 32 41 41 49 27 22 14
51 -22 51 -4 0 -41 -46 -83 -103z"/>
<path d="M2573 7423 c-47 -9 -15 -82 39 -90 12 -2 23 -5 25 -7 2 -1 7 -58 13
-125 10 -125 14 -141 31 -141 11 0 4 137 -12 255 -7 55 -15 75 -35 93 -14 12
-28 21 -32 21 -4 -1 -17 -4 -29 -6z"/>
<path d="M2361 7093 c-18 -3 -43 -13 -54 -24 -11 -10 -25 -19 -29 -19 -14 0 3
-54 23 -71 28 -26 146 -20 168 8 16 20 19 18 114 -73 53 -51 93 -95 88 -98 -5
-3 -14 1 -21 9 -7 8 -18 15 -26 15 -22 0 -27 -20 -9 -40 16 -18 16 -20 1 -26
-9 -3 -24 -3 -33 2 -10 4 -21 7 -25 6 -11 -2 -68 68 -68 83 0 8 -9 15 -20 15
-17 0 -19 -5 -14 -27 8 -39 85 -106 136 -120 93 -24 112 -31 96 -32 -24 -1
-22 -13 4 -30 16 -10 23 -10 26 -2 5 16 22 14 44 -6 17 -16 20 -16 36 1 15 15
15 18 2 26 -8 5 -11 10 -6 10 5 0 17 -7 27 -16 22 -20 49 -12 49 15 0 11 6 21
13 24 9 3 7 10 -7 25 -17 20 -17 22 -2 28 18 7 19 13 7 33 -7 11 -13 10 -32
-2 -23 -15 -25 -14 -46 9 -18 20 -20 26 -8 31 17 6 20 29 5 38 -5 3 -19 1 -31
-5 -16 -9 -24 -8 -39 5 -14 13 -23 14 -38 6 -17 -9 -33 1 -117 82 -122 116
-144 128 -214 120z"/>
<path d="M1801 7008 c1 -13 -2 -50 -6 -83 -3 -33 -8 -76 -10 -95 -1 -19 -6
-69 -10 -110 -9 -92 -12 -120 -14 -143 -1 -15 -4 -15 -22 -5 -18 11 -23 10
-33 -6 -6 -10 -31 -50 -56 -90 -25 -40 -50 -80 -56 -91 -7 -13 -25 -20 -60
-22 -27 -3 -55 -10 -62 -17 -11 -10 -19 -7 -45 18 -18 17 -62 58 -100 91 l-67
60 31 7 c18 3 52 0 80 -8 39 -12 52 -22 70 -53 13 -24 27 -37 35 -34 23 9 16
29 -25 70 -43 43 -94 62 -181 70 -30 2 -66 11 -79 20 -15 10 -26 12 -33 5 -7
-7 20 -40 79 -97 48 -49 79 -85 69 -81 -11 4 -40 4 -64 0 -51 -8 -116 -59
-126 -99 -14 -57 53 -146 155 -203 59 -33 72 -39 114 -55 77 -29 91 -36 72
-36 -10 -1 -26 -19 -39 -46 -24 -50 -32 -54 -48 -25 -20 37 -100 13 -100 -30
0 -31 -11 -50 -30 -50 -23 0 -70 -55 -70 -82 0 -11 9 -33 20 -48 18 -26 24
-28 49 -19 37 13 46 35 26 66 -19 28 -35 26 -52 -8 -11 -22 -13 -22 -13 -4 0
51 65 94 76 50 3 -14 20 -30 40 -40 33 -15 36 -15 64 5 36 26 46 42 55 98 4
25 12 42 20 42 21 0 57 52 51 73 -4 17 -1 19 30 14 29 -5 35 -3 32 10 -3 15
-15 21 -78 38 -46 13 -107 38 -121 51 -8 8 -21 14 -28 14 -22 0 -102 91 -117
133 -18 51 -18 50 12 86 21 26 33 31 69 31 24 0 47 -4 50 -10 3 -5 0 -10 -8
-10 -7 0 -24 -11 -37 -25 -30 -32 -21 -51 34 -78 38 -20 76 -17 98 7 10 10 20
11 55 0 31 -9 51 -10 70 -3 28 10 62 7 105 -10 34 -13 84 3 99 31 9 17 6 25
-17 49 -15 16 -45 34 -66 40 -21 5 -38 12 -38 15 0 3 11 20 25 38 14 18 25 38
25 45 0 7 28 -9 63 -34 34 -25 72 -50 84 -55 22 -9 22 -10 -24 -97 -45 -87
-60 -138 -46 -159 18 -24 81 -62 114 -68 44 -8 96 9 104 35 13 41 -68 110
-130 111 -19 0 -17 8 26 97 71 147 73 132 -21 192 -48 31 -77 55 -70 59 6 4
13 29 15 56 12 135 18 202 21 229 1 17 3 33 3 37 1 4 25 -10 54 -32 35 -27 62
-40 83 -40 l32 0 -18 -36 c-13 -24 -17 -47 -13 -72 10 -59 85 -162 118 -162
13 0 1 26 -35 75 -45 61 -52 107 -23 151 21 33 118 96 98 65 -3 -5 -1 -12 5
-16 5 -3 10 -21 10 -40 0 -19 4 -36 9 -39 15 -10 20 -97 6 -125 -8 -14 -18
-45 -25 -68 -6 -27 -18 -44 -30 -48 -53 -17 -75 -115 -26 -115 12 0 31 7 43
15 22 15 53 68 53 90 0 7 9 15 20 18 13 3 20 0 20 -8 0 -19 57 -60 104 -75 22
-7 51 -23 64 -35 24 -22 24 -23 4 -29 -11 -4 -23 -13 -26 -21 -7 -19 -25 -19
-46 0 -23 21 -79 9 -89 -19 -12 -31 7 -73 45 -104 34 -27 46 -62 21 -62 -8 0
-24 -11 -36 -24 -32 -33 -21 -90 22 -116 17 -11 34 -17 38 -15 3 3 9 -18 11
-46 7 -68 32 -94 90 -90 45 2 88 32 88 60 0 9 -6 27 -13 41 -23 45 -107 18
-92 -30 4 -12 16 -25 28 -30 19 -7 16 -9 -15 -9 -43 -1 -45 2 -57 63 -7 37 -6
46 6 46 7 0 31 9 52 20 43 21 57 43 60 90 1 13 8 20 21 20 11 0 20 6 20 13 0
6 8 0 17 -15 41 -65 99 -58 90 11 -3 20 -8 46 -12 59 -7 20 -4 22 23 22 17 0
34 5 37 10 3 6 21 10 40 10 19 0 37 5 40 10 3 6 19 10 35 10 18 0 33 7 39 18
5 9 10 69 10 132 1 63 2 122 3 130 4 49 -3 70 -22 70 -11 0 -20 -4 -20 -10 0
-5 -16 -12 -35 -16 -19 -3 -35 -10 -35 -14 0 -4 -12 -11 -27 -14 -16 -4 -41
-13 -58 -20 -52 -24 -79 -35 -107 -46 -19 -6 -28 -17 -28 -32 0 -15 -11 -29
-30 -40 -36 -21 -50 -7 -15 16 35 23 34 67 -2 101 -16 14 -36 28 -45 31 -21 6
-24 24 -5 24 6 0 22 15 34 33 18 26 21 41 16 72 -8 53 -26 73 -61 67 -34 -6
-52 -28 -52 -64 0 -21 6 -29 24 -34 30 -7 46 1 46 24 1 15 2 15 11 -1 14 -24
-12 -64 -48 -73 -21 -6 -29 -3 -37 12 -6 10 -23 30 -38 45 -24 23 -33 26 -62
19 -33 -7 -34 -6 -46 34 -6 22 -16 55 -21 72 -5 17 -9 40 -9 52 0 11 -4 24
-10 27 -5 3 -10 21 -10 38 -1 34 -20 67 -39 67 -10 0 -15 -14 -12 -33 2 -12
-32 -73 -35 -62 -1 6 -5 22 -8 36 -4 19 -17 31 -46 43 -38 15 -42 15 -66 0
-14 -10 -28 -30 -31 -45 -4 -23 -9 -27 -23 -19 -22 12 -44 65 -36 86 9 22 -11
54 -34 54 -14 0 -19 -6 -19 -22z m910 -530 c1 -7 2 -54 3 -104 l3 -91 -32 -12
c-17 -6 -47 -11 -65 -11 l-33 0 21 23 c13 13 22 36 22 54 0 36 -19 95 -34 105
-5 4 3 10 20 14 16 4 38 13 49 20 24 17 45 18 46 2z"/>
<path d="M2982 6813 c-28 -12 -32 -17 -26 -41 8 -34 33 -61 63 -67 12 -2 31
-7 40 -10 10 -3 30 -1 44 4 23 9 25 7 30 -22 3 -18 11 -52 17 -77 6 -25 14
-60 17 -78 3 -18 9 -35 14 -38 5 -3 9 -14 9 -25 0 -29 27 -23 38 9 5 15 24 44
41 66 22 27 31 49 31 75 0 47 -39 115 -68 119 -29 4 -27 -6 8 -48 34 -38 37
-58 15 -99 -12 -24 -44 -49 -49 -39 -14 26 -25 58 -29 78 -22 114 -51 177 -87
189 -41 14 -80 16 -108 4z"/>
<path d="M3014 6295 c-3 -8 -3 -18 0 -23 2 -4 -22 -14 -55 -21 -32 -6 -59 -15
-59 -19 0 -4 -14 -16 -30 -27 -41 -28 -90 -98 -90 -130 0 -37 20 -28 45 20 32
62 89 96 168 101 75 4 107 -13 112 -59 4 -34 -12 -35 -25 -2 -8 21 -16 25 -50
25 -33 0 -42 -4 -49 -22 -18 -48 43 -94 101 -77 46 13 64 40 60 92 -3 35 -10
47 -43 71 -29 22 -39 37 -39 58 0 21 -5 28 -20 28 -11 0 -23 -7 -26 -15z"/>
<path d="M4245 6134 c-154 -19 -254 -40 -374 -80 -376 -125 -703 -413 -915
-806 l-48 -88 -33 35 c-23 25 -41 35 -63 35 -27 0 -32 -5 -47 -45 -24 -62 -17
-182 15 -247 l24 -47 -19 -76 c-14 -54 -21 -70 -26 -57 -10 25 -36 34 -61 21
-29 -16 -34 -4 -15 37 17 35 15 60 -4 49 -23 -15 -179 -205 -179 -219 0 -29
18 -16 81 59 l64 75 13 -37 c14 -44 36 -63 70 -63 18 0 23 -4 18 -16 -3 -9 -6
-19 -6 -22 0 -4 -21 -7 -46 -7 -39 -1 -51 -5 -75 -33 -16 -18 -29 -39 -29 -48
0 -13 -8 -15 -42 -9 -24 4 -52 15 -63 25 -45 40 -91 50 -137 30 -16 -7 -39 -6
-74 3 l-52 12 87 101 c86 101 86 101 140 107 141 15 231 159 172 275 -11 22
-25 43 -31 47 -7 4 -5 14 5 28 39 55 -6 157 -69 157 -9 0 -25 -9 -36 -20 -20
-20 -20 -19 -164 153 l-144 172 63 3 c44 2 82 -3 126 -18 155 -52 234 -133
289 -294 9 -28 22 -52 28 -54 34 -11 -9 142 -63 223 -63 94 -143 144 -332 209
-147 50 -177 64 -246 113 -27 19 -58 33 -70 31 -17 -2 16 -47 199 -268 121
-146 241 -292 268 -325 l48 -59 -43 -12 c-87 -22 -132 -57 -169 -130 l-19 -39
-1 51 c0 42 5 56 26 77 14 15 41 29 60 33 39 7 46 24 9 24 -71 0 -127 -62
-140 -155 -4 -27 -14 -61 -22 -74 -22 -35 -3 -46 39 -21 l35 20 7 -31 c3 -17
24 -49 46 -72 35 -34 39 -42 27 -56 -7 -9 -44 -52 -82 -96 -38 -44 -72 -83
-75 -88 -3 -4 -62 4 -129 18 -68 14 -124 25 -125 25 -1 0 -20 -36 -41 -80
l-39 -80 -39 75 c-44 83 -71 100 -62 38 8 -52 -5 -69 -36 -52 -58 31 -193 7
-246 -43 -19 -18 -23 -19 -23 -5 0 19 -36 41 -55 34 -8 -4 -15 5 -19 25 -10
50 -9 51 34 44 31 -5 40 -3 40 8 0 9 -16 18 -42 23 -39 8 -43 12 -46 41 -4 40
-18 41 -27 2 -6 -29 -8 -30 -70 -30 -34 0 -78 -3 -96 -6 l-34 -5 34 17 c19 10
41 31 50 46 11 19 21 26 34 22 27 -9 47 14 47 55 0 54 31 65 111 40 58 -18 86
-18 74 1 -3 4 -34 22 -70 39 -36 16 -65 36 -65 44 0 21 -25 39 -57 41 -16 2
-38 8 -51 15 -21 11 -21 14 -8 39 8 15 22 36 30 47 16 20 16 20 36 -4 13 -15
18 -31 14 -43 -8 -28 20 -64 61 -78 31 -10 44 -9 82 5 64 25 89 12 96 -50 9
-81 86 -158 159 -159 l43 -1 0 45 c0 33 6 50 23 67 l23 23 10 -24 c8 -18 7
-30 -5 -53 -16 -31 -13 -43 11 -43 18 0 316 448 309 466 -11 29 -28 11 -102
-101 -71 -110 -94 -134 -94 -99 0 9 -15 31 -34 50 -36 36 -81 45 -104 22 -17
-17 -15 -74 4 -92 23 -23 70 -20 88 6 l15 21 11 -27 c11 -31 -2 -69 -44 -121
l-24 -30 -10 26 c-26 68 -121 104 -144 54 -10 -23 -12 -23 -38 -10 -25 13 -27
18 -23 62 10 99 -39 153 -138 153 -50 0 -118 -18 -141 -38 -14 -12 -18 -11
-27 6 -13 24 -5 32 29 32 40 0 51 19 44 76 -13 92 -110 154 -241 154 -101 0
-170 -46 -175 -117 -4 -56 3 -81 31 -124 l30 -43 -22 -15 c-12 -9 -83 -53
-157 -98 -103 -62 -138 -79 -152 -72 -35 19 -100 10 -155 -21 -60 -34 -63 -35
-63 -16 0 8 22 22 50 32 48 17 68 44 34 44 -9 0 -32 14 -51 30 -37 33 -93 42
-93 15 0 -9 9 -15 24 -15 25 0 76 -52 58 -58 -13 -4 -112 66 -112 79 0 10 -40
12 -64 3 -9 -3 -16 -10 -16 -16 0 -5 -14 -21 -30 -35 -17 -13 -27 -29 -24 -35
3 -5 14 -2 26 8 11 11 32 17 50 16 17 -1 36 2 43 8 10 8 18 4 34 -16 28 -36
26 -44 -6 -35 -53 14 -143 -18 -143 -51 0 -5 -18 -26 -40 -47 -22 -21 -40 -46
-40 -55 0 -15 -6 -17 -39 -11 -83 14 -155 -21 -149 -73 6 -50 114 -65 189 -27
25 14 32 13 63 -2 l35 -16 -19 -24 c-10 -14 -22 -45 -26 -71 -3 -26 -12 -57
-20 -69 -29 -46 11 -31 167 62 115 70 163 104 171 123 18 43 13 106 -11 147
-12 21 -20 43 -18 49 8 21 96 57 129 54 l32 -3 -42 -28 c-35 -23 -42 -33 -42
-60 0 -52 23 -75 83 -82 52 -7 53 -8 81 -61 16 -30 32 -54 36 -54 4 0 5 -11 2
-25 -2 -14 -8 -25 -13 -25 -15 0 -10 -48 7 -64 27 -28 64 -15 64 21 0 22 2 24
16 12 15 -13 23 -28 38 -76 7 -20 5 -21 -23 -10 -22 8 -36 8 -54 0 -21 -10
-28 -9 -44 9 -10 11 -31 27 -48 36 -16 8 -42 28 -56 43 -47 50 -118 30 -135
-38 -5 -18 -13 -23 -40 -23 -38 0 -70 -36 -61 -69 4 -16 -1 -18 -35 -17 -50 1
-72 -24 -63 -71 4 -25 2 -33 -9 -33 -18 0 -64 54 -72 86 -6 25 -44 35 -44 12
0 -7 16 -72 36 -145 l37 -131 -69 -99 c-74 -104 -91 -113 -126 -71 -38 44 -17
101 55 148 38 25 47 35 34 38 -22 4 -101 -41 -122 -70 -19 -29 -19 -103 0
-159 9 -24 15 -60 13 -79 -2 -23 1 -34 9 -33 8 2 10 -8 6 -32 -6 -39 3 -85 17
-85 6 0 10 21 10 48 1 51 39 141 39 92 1 -14 -6 -47 -14 -74 -18 -59 -19 -119
-3 -149 6 -12 28 -39 50 -61 36 -36 41 -38 87 -34 l49 5 5 -36 c3 -20 14 -100
23 -178 12 -95 21 -143 29 -143 7 0 15 18 18 40 3 23 23 71 45 108 47 79 58
120 43 165 -12 35 -66 95 -77 84 -3 -3 5 -21 19 -39 36 -47 42 -80 22 -122
-17 -34 -63 -81 -72 -72 -5 5 -32 192 -33 224 0 16 6 22 23 22 53 0 89 64 55
98 -17 17 -89 15 -115 -3 -21 -15 -23 -14 -39 17 -9 18 -38 74 -65 123 l-49
91 66 89 c35 50 68 91 73 93 4 1 30 -75 57 -170 38 -131 54 -174 67 -176 24
-5 22 13 -22 168 l-38 135 77 5 c43 3 84 11 92 18 12 9 23 2 63 -38 29 -30 50
-59 50 -73 0 -16 6 -22 21 -22 12 0 30 -7 40 -16 37 -32 41 -30 64 32 18 46
33 68 63 90 32 23 43 26 59 18 22 -12 118 -3 118 11 0 15 37 -1 73 -31 67 -55
84 -156 36 -208 -30 -32 -42 -22 -43 36 -1 59 -25 93 -65 93 -46 0 -71 -34
-71 -94 0 -46 48 -103 95 -112 40 -7 96 17 125 53 l19 25 38 -31 c21 -17 72
-42 113 -56 41 -14 91 -37 112 -50 73 -48 66 -27 -32 91 -44 53 -80 99 -80
103 0 13 90 51 90 38 0 -6 12 -34 25 -62 14 -27 25 -57 25 -65 1 -19 29 -55
55 -67 32 -16 191 -15 205 1 18 22 1 64 -36 87 -19 11 -34 27 -34 34 0 8 -14
30 -30 49 l-30 34 23 6 c13 3 38 1 56 -4 44 -12 81 2 81 33 0 20 11 28 68 50
37 15 72 27 78 27 6 0 22 -13 37 -28 l27 -28 -111 -84 c-118 -91 -117 -88 -34
-109 33 -9 51 -24 101 -89 99 -125 107 -192 23 -192 -21 0 -40 -4 -43 -8 -3
-5 -37 -5 -77 -1 -40 5 -77 6 -82 2 -5 -3 -13 0 -17 6 -7 12 -370 131 -398
131 -10 0 -12 -18 -8 -82 3 -46 8 -93 11 -104 5 -14 1 -23 -9 -27 -22 -9 -20
-44 4 -64 14 -12 21 -35 26 -84 8 -82 22 -98 96 -108 41 -5 66 -16 104 -47 27
-21 71 -50 97 -64 48 -25 64 -47 26 -35 -11 4 -36 4 -55 1 -59 -12 -82 -90
-33 -117 28 -15 14 -29 -30 -29 -24 0 -49 9 -71 25 -25 19 -37 22 -47 14 -7
-6 -13 -15 -13 -18 0 -4 76 -76 170 -160 154 -137 172 -151 191 -140 18 9 19
13 8 24 -8 6 -62 56 -122 109 -59 54 -107 101 -107 105 0 3 19 11 43 17 23 6
49 14 58 18 13 6 17 -2 23 -45 13 -97 61 -172 128 -200 21 -9 27 -16 22 -28
-4 -9 -9 -33 -12 -54 -3 -31 0 -41 27 -66 35 -33 80 -45 116 -31 25 9 25 9 25
-48 -1 -48 -2 -54 -12 -37 -24 43 -67 47 -103 10 -52 -51 -20 -156 43 -140 31
8 62 33 62 50 0 7 7 15 15 19 12 4 15 25 16 88 2 135 12 202 30 206 23 4 63
-118 55 -169 -9 -56 8 -56 50 -1 36 48 37 49 55 31 11 -11 31 -19 45 -19 22 0
25 -3 21 -22 -30 -113 -39 -178 -27 -193 7 -8 16 -15 20 -15 5 0 20 51 35 114
25 109 28 115 56 125 16 6 43 20 60 32 28 20 31 20 63 5 43 -20 85 -20 114 0
18 12 22 25 22 64 0 69 -31 104 -94 105 -62 1 -72 15 -10 15 29 0 65 8 87 19
21 10 47 17 60 14 27 -7 97 -72 97 -90 0 -8 10 -17 23 -22 37 -15 65 -54 72
-102 l7 -46 -34 -5 c-22 -4 -36 -1 -41 8 -4 8 -17 14 -29 14 -16 0 -19 -5 -15
-21 4 -15 -1 -23 -20 -30 -18 -7 -30 -6 -37 1 -16 16 -49 13 -42 -5 4 -12 -4
-15 -38 -15 -24 0 -58 5 -76 11 -26 9 -34 9 -41 -2 -5 -8 -8 -17 -6 -21 1 -3
83 -70 182 -148 216 -170 220 -174 178 -158 -44 17 -83 -9 -83 -55 0 -65 80
-103 115 -54 16 22 16 22 30 3 19 -25 19 -40 -1 -78 -13 -25 -14 -32 -2 -39
21 -14 23 -12 64 50 l39 59 37 -27 37 -28 -34 -33 c-52 -50 -78 -120 -83 -223
-5 -103 12 -162 59 -202 94 -79 214 40 226 225 10 133 -16 181 -149 280 -32
23 -58 46 -58 51 0 13 112 179 120 179 4 0 13 -14 20 -30 14 -33 36 -35 34 -4
-1 10 -8 33 -15 51 -12 30 -11 35 35 103 45 68 53 100 24 100 -7 0 -31 -28
-53 -62 l-39 -61 -21 29 c-11 16 -40 50 -65 75 -38 39 -55 49 -105 59 -33 8
-61 14 -63 15 -1 1 4 15 12 31 8 16 34 83 57 150 40 115 44 122 85 147 l42 25
24 -25 c32 -35 78 -53 137 -53 27 0 53 -5 56 -11 4 -6 50 -46 103 -90 78 -65
272 -276 272 -296 0 -11 -85 9 -134 31 -63 29 -92 59 -115 122 -22 58 -47 74
-36 23 10 -45 32 -88 61 -120 l24 -25 -37 -25 c-48 -31 -72 -73 -84 -151 -6
-34 -17 -76 -25 -92 -8 -16 -11 -33 -7 -37 5 -4 90 42 190 103 l182 110 46
-31 c72 -49 83 -42 34 21 -17 21 -30 40 -28 41 52 36 54 36 96 11 37 -22 41
-28 46 -77 4 -29 16 -79 27 -112 11 -32 20 -61 20 -65 0 -4 -16 -18 -35 -31
-40 -27 -85 -87 -105 -139 -7 -19 -35 -61 -62 -92 -26 -31 -48 -63 -48 -72 0
-10 -14 -17 -44 -21 -74 -11 -142 12 -178 60 -17 22 -16 24 15 59 30 35 34 36
63 25 55 -22 116 10 130 68 4 15 1 44 -7 67 -19 55 -67 86 -130 86 -42 0 -53
-5 -88 -37 -48 -47 -65 -103 -58 -192 5 -64 4 -66 -34 -111 -50 -60 -53 -107
-10 -151 50 -50 121 -33 121 29 0 35 -33 88 -59 97 -17 5 -18 9 -9 24 11 17
13 17 35 -9 44 -53 82 -63 221 -59 l125 4 13 -39 c19 -54 57 -100 97 -120 43
-20 129 -21 166 -2 61 32 111 114 111 184 0 20 5 22 55 22 50 0 56 -3 69 -28
20 -38 100 -110 141 -128 19 -8 54 -14 77 -14 48 0 125 31 134 54 15 39 -35
113 -102 152 -17 10 -16 12 15 28 33 18 33 17 62 -10 27 -26 30 -27 46 -12 13
14 14 20 3 32 -22 28 0 17 76 -36 l74 -51 -29 -18 c-36 -22 -71 -66 -71 -90 0
-29 12 -22 43 22 32 47 71 66 102 49 11 -6 37 -26 58 -44 l38 -32 -81 -58
c-44 -32 -87 -68 -95 -79 -20 -28 -19 -91 2 -134 15 -32 61 -63 93 -63 20 0
60 49 60 72 0 40 -20 97 -44 125 l-23 27 59 44 c53 38 62 42 76 30 261 -218
538 -501 698 -714 140 -186 176 -244 235 -376 23 -54 45 -98 48 -98 3 0 17 25
30 55 58 134 237 369 453 594 193 201 345 339 609 554 90 73 449 321 509 352
19 10 99 57 177 106 78 49 175 106 215 127 40 21 143 83 228 139 85 55 166
106 180 113 41 21 248 179 355 271 166 143 284 274 390 433 109 165 150 248
195 396 17 58 35 114 40 125 30 66 56 410 45 600 -4 72 -9 155 -10 186 -3 57
-25 178 -51 280 -7 31 -16 71 -18 90 -6 44 -57 189 -108 304 -21 50 -47 108
-56 130 -43 102 -181 285 -333 443 -149 153 -464 349 -686 426 -567 196 -1201
44 -1661 -398 -172 -166 -297 -329 -406 -529 -56 -102 -45 -106 -126 49 -83
160 -254 387 -386 514 -174 166 -383 305 -565 374 -35 13 -77 31 -94 40 -38
19 -201 52 -327 65 -122 14 -242 12 -383 -5z m-2980 -826 c34 -16 32 -23 -15
-37 -29 -8 -41 -18 -46 -36 -6 -24 -1 -34 41 -91 10 -14 -6 -53 -40 -98 -15
-19 -15 -19 -40 4 -38 36 -75 118 -75 168 0 62 40 102 104 102 25 0 57 -5 71
-12z m-297 -512 c18 -24 32 -49 32 -56 0 -21 67 -80 91 -81 16 0 9 -5 -21 -13
-58 -16 -100 -38 -124 -65 -11 -12 -23 -21 -28 -21 -14 0 -9 40 6 46 20 8 38
56 34 90 -2 22 -9 30 -26 32 -33 5 -79 -16 -102 -45 l-19 -24 -15 30 c-10 19
-12 32 -6 36 6 3 10 17 10 30 0 20 11 31 58 54 31 17 62 30 68 31 6 0 25 -20
42 -44z m324 -192 c-5 -30 15 -74 35 -74 12 0 11 4 -1 22 -20 28 -20 52 -1 68
21 17 24 12 36 -60 8 -54 8 -65 -7 -81 -17 -19 -18 -18 -35 10 -23 38 -67 61
-116 61 -42 0 -83 -23 -83 -46 0 -8 -7 -17 -15 -20 -8 -4 -15 -12 -15 -19 0
-8 -17 -14 -45 -17 -43 -3 -45 -2 -45 24 0 32 49 92 94 115 44 23 114 41 162
42 39 1 41 0 36 -25z m-624 -194 c7 0 21 5 32 12 16 10 23 9 46 -12 22 -21 54
-76 54 -94 0 -5 -118 -26 -146 -26 -17 0 -19 5 -16 35 3 23 -3 46 -16 69 -22
37 -11 55 19 30 8 -8 21 -14 27 -14z m317 -47 c18 -43 52 -83 71 -83 25 0 25
-21 1 -44 -26 -24 -46 -103 -32 -125 12 -21 -54 -12 -76 10 -26 26 -49 80 -49
114 0 14 -4 25 -10 25 -10 0 -14 -21 -10 -49 1 -9 -4 -12 -14 -8 -11 5 -24 -6
-41 -34 -17 -25 -30 -37 -38 -32 -7 4 -28 19 -48 33 l-37 26 24 23 c13 13 24
31 24 40 0 14 17 20 92 32 87 13 120 31 81 43 -11 3 -18 15 -18 30 0 29 18 24
33 -10 7 -13 18 -24 26 -24 12 0 13 6 5 32 -11 38 -10 38 -4 38 3 0 12 -17 20
-37z m1103 7 c18 -15 39 -20 71 -19 25 1 92 -9 149 -22 113 -26 127 -42 58
-66 -51 -17 -76 -40 -76 -70 0 -13 -5 -34 -11 -45 -8 -15 -8 -22 1 -28 15 -9
-8 -50 -28 -50 -8 0 -16 -9 -19 -20 -5 -19 -9 -17 -48 19 -62 57 -138 93 -210
98 -52 5 -62 2 -79 -16 -12 -14 -20 -35 -19 -56 1 -29 -2 -35 -20 -35 -53 1
-51 14 18 109 l68 92 26 -30 c26 -30 49 -37 112 -33 56 4 97 76 64 112 -22 25
-102 27 -145 5 l-30 -15 32 45 c36 50 48 54 86 25z m-357 -50 c11 0 19 -2 19
-5 0 -2 -16 -37 -36 -77 l-36 -73 -48 45 -48 45 29 57 29 57 36 -24 c20 -14
45 -25 55 -25z m937 -18 c26 4 27 3 24 -43 -3 -41 -7 -48 -37 -62 -30 -14 -34
-14 -39 -1 -8 22 -60 14 -64 -9 -2 -12 4 -20 17 -24 20 -5 20 -5 0 -41 -36
-69 -18 -134 51 -175 51 -30 76 -78 84 -164 l6 -68 -46 -27 c-51 -32 -67 -34
-84 -14 -6 8 -27 20 -45 26 l-33 11 22 51 c11 28 28 53 36 56 29 10 60 46 60
69 0 19 -5 23 -29 23 -31 0 -81 -47 -81 -76 0 -8 -7 -14 -15 -14 -10 0 -15 10
-15 28 0 36 -27 61 -72 68 -42 7 -64 -4 -181 -89 l-89 -65 -91 24 c-51 14 -98
27 -106 30 -9 3 5 19 39 44 30 22 55 40 56 40 1 0 26 -11 56 -25 29 -14 65
-25 80 -25 33 0 87 45 125 105 21 34 34 45 53 45 24 -1 24 -1 6 -15 -10 -7
-15 -18 -11 -24 8 -14 45 -14 45 -1 0 5 12 13 28 16 32 9 88 58 108 96 22 43
18 102 -10 135 l-24 27 37 52 36 51 38 -20 c20 -10 50 -17 65 -15z m-2063 -69
c3 -10 27 -32 53 -50 26 -18 62 -45 80 -60 l32 -28 -36 -72 c-20 -40 -40 -73
-43 -73 -4 0 -20 14 -36 30 l-29 30 28 28 c15 16 28 42 29 58 2 26 -2 29 -29
32 -21 2 -38 -4 -58 -23 l-28 -26 -20 21 c-15 16 -18 32 -16 72 3 44 7 54 28
65 33 17 38 16 45 -4z m804 -75 c2 -6 21 -30 42 -53 l38 -41 -33 -12 c-41 -15
-56 -37 -85 -124 -25 -75 -51 -98 -51 -44 0 21 8 40 21 52 31 28 40 58 28 94
-22 60 -92 69 -143 18 l-32 -33 -27 31 c-15 18 -27 34 -27 36 0 3 14 3 30 0
39 -6 60 12 60 52 0 20 3 26 8 18 14 -21 43 -3 36 23 l-6 23 69 -14 c37 -8 70
-20 72 -26z m946 -368 c-3 -5 -12 -10 -20 -10 -57 0 -98 -66 -73 -117 10 -21
21 -28 41 -28 17 1 27 -5 27 -13 0 -23 -125 -10 -153 16 -12 11 -34 26 -50 34
l-28 14 113 81 112 81 19 -24 c10 -13 15 -28 12 -34z m-256 -142 c28 -9 31
-12 17 -20 -30 -17 -17 -37 32 -51 33 -10 51 -21 60 -40 16 -33 36 -35 30 -4
-4 23 -3 23 48 16 29 -4 58 -10 63 -14 18 -10 12 -32 -12 -48 -21 -14 -29 -13
-78 4 -30 10 -79 18 -111 19 -54 0 -57 1 -87 42 -17 23 -34 56 -37 74 -3 18
-13 35 -23 38 -9 2 2 2 24 -1 22 -2 55 -9 74 -15z m672 -155 c12 -38 31 -88
41 -113 11 -25 29 -67 39 -93 l19 -49 -26 21 c-28 22 -74 27 -103 12 -10 -6
-26 -28 -36 -50 -22 -50 -37 -52 -53 -7 -7 19 -24 50 -37 70 l-24 36 33 14
c62 26 98 107 78 179 -9 33 -8 36 11 40 12 2 25 5 29 6 3 0 16 -29 29 -66z
m-101 13 c10 -37 9 -48 -4 -74 -21 -40 -44 -52 -100 -52 -55 0 -76 8 -76 27 0
12 -7 14 -31 9 -21 -4 -43 1 -71 15 -42 21 -42 21 -18 34 20 11 29 10 62 -7
55 -29 121 -35 153 -14 20 13 25 25 25 55 0 37 8 48 36 50 6 1 17 -19 24 -43z
m-754 -121 c9 -13 24 -27 35 -30 26 -9 59 3 59 21 0 37 57 -8 66 -52 l6 -31
-56 5 c-52 4 -56 3 -67 -21 -10 -22 -9 -31 5 -52 30 -46 107 -25 91 25 -8 25
6 26 27 3 11 -13 18 -51 23 -123 3 -58 9 -114 11 -126 5 -17 -2 -22 -40 -31
-35 -8 -48 -7 -56 2 -6 7 -24 15 -40 19 -24 4 -30 11 -30 31 0 21 5 25 31 25
43 0 69 17 69 45 0 26 -42 65 -70 65 -10 0 -21 10 -25 23 l-8 22 -4 -22 c-3
-16 -14 -23 -43 -28 -38 -6 -80 6 -80 24 0 5 -17 31 -38 58 -35 46 -37 51 -34
111 l4 62 74 0 c67 0 75 -2 90 -25z m279 -54 c57 -50 156 -53 193 -6 12 15 23
20 32 15 10 -6 1 -24 -36 -74 -43 -58 -50 -64 -58 -47 -16 37 -103 57 -168 38
-26 -7 -28 -5 -43 45 -8 28 -15 53 -15 55 0 2 14 3 31 3 20 0 43 -10 64 -29z
m234 -158 c7 -25 4 -36 -26 -74 -45 -58 -70 -107 -78 -152 -7 -35 -8 -36 -30
-21 -13 8 -49 18 -79 21 l-56 6 0 46 c0 25 -3 69 -6 96 l-6 50 56 -3 c36 -3
66 2 86 11 l30 15 -7 -26 c-12 -42 -9 -95 5 -99 7 -3 12 4 12 19 1 30 32 97
60 126 25 27 27 26 39 -15z m547 -96 c39 -60 40 -63 22 -77 -16 -12 -18 -20
-9 -41 8 -23 6 -28 -16 -40 -22 -12 -27 -11 -39 6 -8 10 -14 29 -14 42 0 33
-24 39 -71 17 -51 -22 -69 -57 -69 -133 0 -70 -9 -76 -64 -49 -21 11 -62 21
-90 22 -48 1 -51 3 -54 30 -2 16 5 44 14 62 18 32 21 34 74 34 77 0 118 26
126 80 6 39 11 43 73 75 36 19 68 34 71 34 3 0 23 -28 46 -62z m-466 -75 c0
-17 -8 -43 -17 -60 -19 -34 -12 -62 17 -62 11 0 20 -6 20 -12 1 -7 5 -32 9
-55 5 -26 5 -40 -1 -37 -5 3 -30 3 -56 -1 -38 -6 -55 -15 -89 -52 -27 -28 -43
-40 -43 -30 0 9 4 18 9 21 5 3 12 18 16 33 3 15 11 31 16 34 6 3 0 29 -15 62
-14 31 -26 64 -26 75 0 33 44 101 84 131 l40 29 18 -23 c10 -13 18 -37 18 -53z
m-225 -166 c29 -19 49 -69 41 -101 -8 -30 -30 -32 -53 -5 -10 11 -24 20 -33
20 -22 0 -132 63 -131 75 3 33 131 40 176 11z m728 -520 c46 -17 69 -37 112
-95 l33 -45 -36 -53 c-19 -29 -38 -53 -41 -53 -3 0 -13 18 -23 40 -29 70 -120
104 -152 58 -36 -51 -2 -118 61 -118 26 0 36 6 45 26 11 24 13 25 25 8 18 -25
16 -68 -5 -93 l-17 -22 -138 107 c-75 59 -137 111 -137 115 0 16 19 9 33 -11
9 -13 20 -18 31 -14 18 7 21 20 6 29 -17 10 -11 21 16 34 22 10 30 9 44 -4 16
-14 50 -21 50 -9 0 3 -5 14 -11 25 -9 17 -7 21 11 26 30 8 19 28 -16 28 -36 0
-44 18 -12 27 38 10 81 8 121 -6z m615 -69 l64 -24 -110 -66 c-60 -37 -114
-67 -119 -67 -17 0 -23 69 -10 108 13 40 71 87 97 78 8 -2 43 -15 78 -29z
m745 -292 c54 -32 100 -61 103 -66 2 -5 -13 -17 -34 -28 l-39 -20 -25 26 c-21
20 -29 23 -45 15 -16 -9 -27 -3 -73 44 -29 30 -57 54 -62 54 -5 0 1 13 14 30
19 27 24 29 42 17 12 -8 65 -40 119 -72z m-252 -34 c54 -34 107 -96 143 -168
14 -29 26 -55 26 -58 0 -3 -20 -5 -44 -5 -41 0 -44 2 -50 31 -7 39 -81 115
-120 125 -32 8 -98 -9 -120 -31 -8 -8 -17 -15 -20 -15 -11 0 -6 41 9 70 8 16
15 33 14 37 -3 19 2 25 14 14 11 -8 18 -6 32 9 25 28 63 25 116 -9z m-208
-142 c6 -42 25 -64 66 -75 28 -8 61 24 61 58 0 27 21 18 48 -22 41 -60 43 -59
-162 -76 l-79 -6 6 55 c5 51 29 107 47 107 4 0 10 -18 13 -41z m197 -155 c0
-48 -70 -114 -122 -114 -37 0 -90 34 -110 71 l-18 34 107 11 c60 6 116 12 126
13 10 0 17 -6 17 -15z"/>
<path d="M287 5330 c-42 -13 -57 -29 -57 -61 0 -38 33 -71 68 -67 47 5 39 78
-9 78 -24 0 -25 20 -1 21 55 4 92 -33 92 -91 0 -31 -6 -44 -34 -68 -19 -17
-44 -33 -55 -37 -32 -10 -26 -28 7 -20 118 29 177 132 117 204 -34 39 -81 55
-128 41z"/>
<path d="M572 5258 c-7 -7 -12 -33 -12 -58 0 -42 6 -53 59 -115 56 -66 58 -70
39 -83 -28 -20 -66 -6 -90 33 -23 40 -28 43 -28 15 0 -11 13 -34 29 -52 26
-30 32 -32 92 -30 59 1 62 0 44 -14 -13 -9 -30 -12 -48 -8 -22 5 -28 3 -25 -7
6 -17 138 -21 138 -4 0 5 -34 50 -75 100 -48 57 -73 95 -69 105 30 79 -8 164
-54 118z"/>
<path d="M623 3790 c7 -28 -32 -50 -45 -26 -14 24 -42 21 -35 -5 3 -12 0 -22
-9 -26 -8 -3 -14 -12 -14 -20 0 -11 7 -14 25 -11 35 7 56 -19 31 -37 -23 -17
-11 -39 17 -31 12 3 28 -1 37 -9 21 -19 49 -3 32 18 -10 11 -7 16 12 25 19 8
26 7 40 -9 15 -18 14 -23 -16 -81 -34 -65 -45 -147 -20 -155 8 -3 12 6 12 27
0 36 19 77 49 104 38 34 35 8 -7 -82 -23 -48 -42 -100 -42 -116 0 -31 44 -116
60 -116 16 0 11 23 -10 50 -30 39 -26 92 11 135 17 19 34 35 38 35 5 0 20 -42
36 -92 15 -51 34 -107 42 -124 25 -56 131 -85 166 -46 41 45 -3 92 -95 101
l-62 6 -57 189 c-32 104 -63 193 -71 197 -10 7 -10 9 0 9 6 0 12 7 12 16 0 12
-6 15 -24 10 -32 -8 -59 21 -33 36 23 12 12 28 -18 28 -13 0 -27 5 -30 10 -12
19 -38 11 -32 -10z"/>
<path d="M363 2990 c-29 -12 -31 -55 -4 -70 26 -13 118 -13 126 1 4 6 30 -22
60 -62 48 -67 52 -77 47 -116 -3 -29 1 -50 12 -67 13 -21 23 -25 66 -24 50 1
51 2 45 30 -4 15 -3 42 0 60 7 28 8 29 17 12 17 -31 40 -44 78 -44 45 0 69 24
105 101 18 42 34 60 56 69 36 15 59 46 59 78 0 56 -86 29 -116 -37 -23 -49
-45 -56 -61 -19 -24 56 -99 42 -128 -25 -9 -19 -14 -25 -15 -14 0 9 -7 17 -15
17 -11 0 -14 -7 -9 -24 4 -15 1 -25 -9 -29 -12 -4 -14 2 -10 34 7 49 -11 94
-49 120 -22 16 -32 19 -41 10 -8 -8 -8 -11 1 -11 22 0 62 -48 62 -75 0 -14 -7
-39 -15 -56 l-16 -30 -59 80 c-32 44 -68 85 -79 90 -24 13 -77 13 -108 1z"/>
<path d="M1652 2368 c-7 -7 -12 -18 -12 -25 0 -22 39 -53 67 -53 l27 0 -34
-35 c-19 -19 -43 -35 -53 -35 -16 0 -17 3 -8 14 18 21 -3 56 -34 56 -26 0 -55
-24 -55 -45 0 -19 39 -45 68 -45 22 0 18 -8 -42 -74 -46 -52 -63 -77 -54 -82
16 -10 291 277 279 289 -6 6 -19 3 -32 -7 -31 -21 -57 -22 -39 -1 21 25 3 55
-34 55 -17 0 -37 -5 -44 -12z"/>
<path d="M2162 2300 c-58 -55 -28 -154 41 -136 51 12 74 99 37 136 -25 25 -50
25 -78 0z"/>
<path d="M1947 2110 c-166 -42 -304 -206 -315 -374 -5 -84 15 -169 54 -229 91
-139 346 -73 362 93 9 97 -20 140 -94 140 -69 0 -107 -28 -145 -106 -17 -36
-37 -68 -46 -71 -28 -11 -56 32 -61 91 -11 136 124 271 284 284 152 12 295
-78 369 -233 29 -61 38 -94 61 -202 2 -13 12 -23 21 -23 14 0 15 11 11 88 -12
207 -154 450 -302 518 -62 28 -142 38 -199 24z"/>
<path d="M2640 1436 c0 -9 -4 -16 -8 -16 -5 0 -17 -18 -27 -40 -10 -22 -21
-40 -25 -40 -3 0 -12 -16 -20 -35 -8 -19 -17 -35 -20 -35 -4 0 -15 -18 -26
-40 -10 -22 -22 -40 -26 -40 -5 0 -8 -4 -8 -10 0 -5 -16 -35 -36 -66 -32 -50
-37 -54 -52 -41 -20 17 -33 13 -96 -33 -27 -19 -49 -33 -50 -31 0 3 -20 -9
-44 -26 -42 -31 -44 -31 -80 -16 -20 9 -49 15 -64 15 -18 0 -28 5 -28 14 0 8
-10 34 -21 56 -12 23 -29 65 -39 93 -10 27 -21 58 -25 67 -6 16 -4 17 26 6 64
-22 109 -79 109 -138 0 -21 5 -30 16 -30 12 0 15 9 13 38 -5 70 -39 115 -137
178 -29 19 -58 44 -65 54 -14 23 -37 27 -37 6 0 -15 42 -132 65 -181 13 -29
11 -50 -3 -29 -8 12 -88 40 -112 39 -40 -2 -87 -28 -104 -56 -44 -75 19 -223
152 -358 26 -26 31 -36 20 -42 -7 -5 -18 -9 -24 -9 -6 0 -21 -11 -34 -25 -28
-29 -40 -32 -40 -7 -1 22 -22 49 -40 53 -22 3 -53 -11 -76 -37 -14 -16 -30
-22 -50 -20 -35 3 -73 -19 -85 -50 -11 -30 7 -82 29 -86 27 -6 62 22 62 48 0
29 -25 42 -51 26 -15 -10 -17 -9 -12 4 7 19 47 36 68 28 8 -4 15 -17 15 -31 0
-14 13 -37 29 -53 26 -26 32 -28 62 -20 19 6 50 28 70 50 19 22 44 41 55 44
46 10 64 19 69 37 8 23 14 24 42 4 13 -9 24 -11 28 -6 3 6 -30 45 -73 89 -118
119 -165 235 -127 315 9 19 24 37 34 40 33 8 82 -1 101 -18 27 -24 25 -33 -4
-28 -37 7 -68 -14 -61 -40 19 -67 65 -101 116 -87 17 5 29 5 29 -1 0 -14 77
-59 102 -59 13 0 40 -16 61 -36 39 -37 80 -49 109 -30 32 20 14 73 -40 122
l-24 21 34 24 c18 13 36 24 40 24 3 0 10 3 14 7 4 4 12 -2 19 -15 30 -58 68
-123 76 -131 10 -11 -40 -58 -113 -109 -61 -42 -69 -57 -57 -101 25 -89 139
-156 175 -101 13 20 13 27 -1 63 -9 23 -32 54 -51 70 l-34 29 43 30 c23 17 54
41 68 54 14 13 41 36 60 51 20 17 30 30 24 35 -13 10 -65 90 -65 99 0 4 -11
22 -25 40 -30 40 -33 54 -5 29 20 -18 21 -18 27 3 3 12 9 22 13 22 4 0 15 18
25 40 10 22 21 40 25 40 3 0 12 16 20 35 8 19 17 35 20 35 4 0 15 18 25 39 23
52 42 59 50 19 4 -17 26 -49 49 -72 l41 -41 -35 -32 c-33 -30 -35 -35 -34 -95
1 -73 18 -134 41 -142 12 -5 14 -1 9 21 -4 16 -9 54 -12 85 -5 48 -3 61 15 84
29 37 58 50 109 51 40 0 43 -1 38 -21 -6 -18 -21 -93 -30 -146 -6 -29 -110
-125 -139 -128 -57 -4 -103 -56 -76 -88 20 -24 74 -14 116 23 37 33 69 44 60
21 -8 -25 65 -138 90 -138 5 0 9 -8 9 -17 1 -10 4 -25 8 -34 4 -10 2 -16 -6
-17 -7 0 -25 -3 -40 -6 -23 -5 -30 -2 -42 22 -12 23 -21 28 -45 27 -48 -3 -63
-22 -58 -72 2 -24 11 -51 19 -61 21 -25 12 -52 -17 -50 -73 6 -114 -81 -61
-131 23 -22 24 -25 10 -63 -20 -56 -18 -84 8 -107 25 -24 76 -36 108 -26 25 8
43 49 34 77 -8 26 -50 41 -75 28 -21 -12 -25 -50 -8 -67 9 -9 7 -11 -9 -6 -38
10 -45 28 -32 83 11 45 14 50 34 44 59 -20 129 7 142 54 4 13 10 19 13 13 4
-5 16 -9 28 -8 19 1 21 6 16 27 -9 38 -9 38 -1 40 4 1 22 5 39 10 29 8 31 7
45 -26 13 -30 17 -33 34 -24 23 12 26 30 8 48 -16 16 -2 26 45 31 12 1 8 29
-5 37 -7 4 -26 7 -43 6 -25 -2 -32 3 -44 28 -14 34 -12 40 16 44 26 4 25 51
-2 52 -11 0 -27 -3 -37 -8 -11 -5 -18 -3 -22 8 -3 8 -1 14 7 13 38 -5 58 3 71
29 17 32 12 64 -16 104 -21 31 -23 40 -5 37 27 -5 64 14 80 41 20 33 22 93 5
107 -43 34 -102 6 -96 -45 3 -24 7 -27 41 -26 20 1 37 -2 37 -6 0 -18 -40 -40
-73 -40 -36 0 -37 1 -37 39 0 52 -45 98 -91 93 -5 -1 -2 21 16 123 2 11 9 45
15 75 20 100 21 120 6 120 -8 0 -21 -8 -28 -17 -7 -10 -24 -27 -36 -38 l-24
-20 6 35 c5 29 2 40 -23 68 -18 20 -38 32 -54 32 -26 0 -67 -33 -67 -54 -1 -6
-7 0 -14 13 -15 27 -11 63 12 108 18 35 17 37 -15 47 -17 6 -23 3 -23 -8z"/>
<path d="M3635 1389 c-4 -5 -1 -24 6 -41 12 -29 11 -32 -16 -54 l-30 -23 -15
24 c-17 29 -23 30 -39 11 -10 -12 -9 -20 5 -42 18 -26 17 -27 -5 -45 -16 -13
-21 -25 -16 -39 8 -24 18 -25 35 -5 19 23 28 19 49 -23 19 -38 19 -38 0 -50
-21 -13 -24 -29 -9 -52 7 -12 12 -11 30 5 18 16 23 17 30 5 6 -8 10 -18 10
-22 0 -5 7 -8 15 -8 22 0 29 24 15 50 -10 19 -8 26 16 51 l28 29 13 -25 c8
-14 18 -25 24 -25 17 0 22 31 8 57 -12 22 -11 26 9 42 15 11 21 23 16 34 -8
21 -27 22 -44 2 -11 -14 -16 -11 -36 22 -22 38 -22 38 -3 59 33 35 18 66 -21
42 -17 -11 -22 -10 -35 10 -18 24 -30 28 -40 11z"/>
</g>
</svg>
