<?xml version="1.0" standalone="no"?>
<!DOCTYPE svg PUBLIC "-//W3C//DTD SVG 20010904//EN"
 "http://www.w3.org/TR/2001/REC-SVG-20010904/DTD/svg10.dtd">
<svg version="1.0" xmlns="http://www.w3.org/2000/svg"
 width="415.000000pt" height="769.000000pt" viewBox="0 0 415.000000 769.000000"
 preserveAspectRatio="xMidYMid meet">
<metadata>
Created by potrace 1.16, written by Peter Selinger 2001-2019
</metadata>
<g transform="translate(0.000000,769.000000) scale(0.100000,-0.100000)"
fill="#ffffff" stroke="none">
<path d="M1990 7683 c-329 -32 -589 -151 -805 -368 -184 -185 -300 -405 -350
-666 -8 -46 -18 -168 -22 -271 l-6 -188 595 0 c564 0 596 -1 611 -18 21 -23
22 -56 1 -76 -14 -14 -83 -16 -610 -16 l-594 0 0 -285 0 -285 588 0 c516 0
590 -2 610 -16 24 -17 30 -62 10 -82 -9 -9 -158 -12 -610 -12 l-598 0 0 -285
0 -285 588 0 c654 0 636 2 630 -63 -6 -57 2 -57 -635 -57 l-583 0 0 -212 c0
-117 3 -243 7 -280 l6 -68 576 0 c631 0 623 0 629 -57 6 -65 23 -63 -620 -63
l-577 0 25 -89 c129 -472 491 -813 976 -917 114 -25 371 -25 485 -1 243 52
454 161 626 326 188 180 309 396 369 659 22 97 22 103 25 1252 4 1226 2 1315
-42 1482 -113 435 -466 790 -899 902 -50 13 -140 29 -200 35 -107 11 -135 11
-206 4z"/>
<path d="M115 4634 c-100 -52 -110 -89 -109 -404 0 -178 6 -294 18 -385 144
-1101 741 -1754 1735 -1899 57 -9 106 -18 110 -21 7 -8 10 -208 13 -972 l3
-573 -539 0 c-519 0 -541 -1 -581 -20 -45 -22 -75 -57 -93 -109 -35 -100 25
-212 126 -241 52 -14 2503 -14 2555 1 160 44 183 276 35 348 -43 21 -55 21
-581 21 l-537 0 0 58 c-1 111 30 1318 36 1408 l6 91 59 7 c164 17 407 81 576
151 697 292 1111 945 1192 1880 13 146 14 405 2 499 -15 113 -82 176 -190 176
-69 0 -125 -31 -157 -86 -24 -40 -24 -45 -24 -281 0 -329 -18 -498 -81 -747
-70 -280 -184 -515 -348 -718 -115 -143 -265 -261 -446 -349 -253 -123 -477
-170 -819 -170 -376 0 -642 62 -902 211 -390 224 -645 632 -748 1194 -37 198
-47 339 -45 586 2 213 1 227 -19 267 -42 81 -165 120 -247 77z"/>
</g>
</svg>
