<?xml version="1.0" standalone="no"?>
<!DOCTYPE svg PUBLIC "-//W3C//DTD SVG 20010904//EN"
 "http://www.w3.org/TR/2001/REC-SVG-20010904/DTD/svg10.dtd">
<svg version="1.0" xmlns="http://www.w3.org/2000/svg"
 width="1032.000000pt" height="1333.000000pt" viewBox="0 0 1032.000000 1333.000000"
 preserveAspectRatio="xMidYMid meet">
<metadata>
Created by potrace 1.16, written by Peter Selinger 2001-2019
</metadata>
<g transform="translate(0.000000,1333.000000) scale(0.100000,-0.100000)"
fill="#000000" stroke="none">
<path d="M9531 13323 c-13 -3 -47 -28 -77 -57 -66 -63 -72 -99 -24 -139 61
-52 220 -76 253 -39 22 24 21 50 -3 115 -18 49 -71 117 -90 117 -5 0 -14 2
-22 4 -7 2 -24 1 -37 -1z"/>
<path d="M10104 13215 c-272 -59 -775 -384 -1327 -858 -179 -153 -466 -434
-523 -511 -38 -50 -44 -65 -44 -106 0 -59 30 -157 70 -229 16 -29 27 -59 23
-65 -36 -60 -3992 -5596 -4023 -5629 -16 -17 -18 -13 -35 84 -30 171 -10 324
76 603 33 105 87 301 120 436 33 135 80 313 105 395 66 220 72 351 19 430
l-25 36 16 81 c53 260 -48 368 -272 293 -96 -32 -181 -84 -311 -192 -206 -169
-371 -348 -479 -521 -105 -166 -163 -309 -254 -620 -127 -435 -213 -665 -348
-935 -102 -203 -260 -470 -317 -535 -70 -80 -206 -157 -800 -451 -635 -315
-775 -390 -970 -519 -187 -124 -281 -222 -420 -437 -190 -295 -304 -544 -356
-778 -26 -116 -36 -388 -19 -497 6 -41 15 -145 20 -231 5 -85 18 -201 29 -256
109 -534 522 -1072 1226 -1598 403 -301 820 -504 1185 -577 96 -19 147 -23
310 -23 168 0 209 3 299 23 465 104 832 413 1155 971 102 178 125 260 211 760
79 462 108 592 166 758 62 178 122 255 264 339 44 26 289 154 545 284 628 320
783 412 916 544 76 76 104 132 126 246 14 75 4 223 -20 290 -16 48 -18 66 -10
128 22 165 -37 351 -130 417 -40 27 -51 30 -120 30 -74 0 -81 -3 -172 -52
-116 -63 -244 -107 -375 -129 -242 -39 -604 15 -820 123 -61 31 -199 168 -192
192 2 9 982 1382 2176 3051 1841 2571 2176 3035 2194 3032 12 -1 67 -3 122 -4
117 -2 188 15 261 64 111 75 155 199 287 810 25 114 56 231 70 261 30 67 86
109 302 227 234 129 236 131 266 265 17 78 18 362 1 435 -25 108 -66 162 -120
159 -9 0 -44 -7 -78 -14z m-63 -344 c21 -22 29 -39 29 -66 0 -47 -13 -70 -55
-98 -23 -15 -217 -277 -606 -822 -314 -440 -576 -804 -582 -810 -23 -22 44 74
579 821 306 427 558 783 561 790 3 9 -2 14 -17 14 -12 0 -35 13 -51 29 -23 23
-29 38 -29 71 0 33 6 48 29 71 23 23 38 29 71 29 33 0 48 -6 71 -29z m-240
-160 c48 -49 38 -124 -21 -160 -17 -10 -89 -100 -162 -202 -72 -101 -302 -422
-510 -713 -208 -291 -378 -525 -378 -520 0 5 228 326 505 714 l505 705 -32 7
c-116 24 -97 198 22 198 33 0 48 -6 71 -29z m-252 -147 c30 -21 51 -71 44
-107 -3 -15 -19 -38 -37 -52 -17 -14 -35 -29 -41 -33 -5 -5 -203 -279 -440
-609 -236 -331 -431 -600 -433 -598 -2 2 190 274 427 605 237 331 431 604 431
606 0 2 -11 4 -24 4 -42 0 -77 39 -83 92 -5 42 -3 50 25 78 35 35 92 41 131
14z m-227 -173 c27 -24 33 -36 33 -71 0 -39 -5 -47 -51 -89 -32 -29 -180 -226
-394 -526 -314 -440 -378 -528 -355 -485 5 8 165 234 357 502 191 267 348 489
348 492 0 3 -11 6 -24 6 -35 0 -74 36 -82 76 -19 101 92 163 168 95z m-244
-156 c16 -14 33 -37 36 -51 10 -40 -11 -91 -48 -113 -21 -13 -128 -155 -306
-405 -151 -211 -277 -383 -279 -381 -2 2 117 171 263 376 147 205 268 377 269
382 1 5 -13 14 -31 19 -37 10 -72 58 -72 98 1 85 103 130 168 75z m-239 -161
c55 -46 48 -134 -14 -166 -14 -8 -108 -130 -211 -273 -102 -143 -193 -267
-202 -275 -17 -16 -15 -14 212 304 85 120 154 222 151 226 -3 4 -18 10 -35 13
-19 4 -37 18 -50 39 -62 98 61 206 149 132z m-4601 -4370 c49 -34 67 -116 37
-174 -32 -62 -129 -80 -184 -34 -92 77 -41 224 78 224 26 0 56 -7 69 -16z
m-45 -365 c53 -57 23 -168 -49 -182 -99 -18 -167 84 -114 170 35 58 114 64
163 12z m-84 -324 c78 -40 56 -158 -31 -172 -32 -5 -41 -1 -68 25 -48 48 -36
128 24 152 31 13 44 12 75 -5z m-47 -296 c26 -14 51 -74 42 -102 -20 -68 -101
-91 -149 -42 -54 53 -18 155 55 155 17 0 40 -5 52 -11z m-10 -329 c24 -25 29
-36 23 -58 -11 -44 -35 -63 -73 -60 -49 4 -79 45 -66 90 9 31 42 58 72 58 8 0
27 -14 44 -30z m-25 -230 c28 -10 53 -45 53 -74 0 -7 -9 -25 -21 -40 -15 -19
-30 -26 -54 -26 -24 0 -39 7 -54 26 -12 15 -21 33 -21 40 0 25 22 62 44 72 11
6 21 11 22 11 1 1 15 -4 31 -9z m-384 -1392 l27 -20 -53 -76 c-30 -42 -57 -85
-60 -95 -4 -10 -62 -95 -129 -189 l-122 -171 30 -23 c16 -13 34 -23 39 -21 6
2 64 78 130 170 111 153 151 205 130 167 -5 -8 -62 -90 -127 -181 -65 -91
-118 -169 -118 -172 0 -7 70 -50 74 -46 1 2 58 82 125 177 68 94 125 172 128
172 7 0 -2 -14 -130 -193 -66 -92 -118 -169 -116 -171 31 -23 71 -47 73 -45 1
2 59 84 129 181 l126 177 -35 28 -35 28 56 78 c31 42 59 77 63 77 4 0 21 -11
37 -24 l30 -24 -20 -29 c-12 -15 -38 -52 -59 -80 -21 -29 -34 -53 -29 -53 4 0
32 34 61 75 29 41 56 75 61 75 4 0 21 -10 38 -23 l31 -22 -54 -75 c-30 -41
-59 -76 -64 -78 -5 -2 -23 7 -39 19 -17 12 -33 21 -35 18 -2 -2 -61 -83 -130
-179 l-126 -175 35 -28 35 -29 -55 -78 c-30 -43 -55 -82 -55 -86 0 -12 -52
-85 -57 -80 -3 3 7 20 21 39 33 43 33 49 -4 70 -16 10 -30 22 -30 26 0 4 25
42 55 85 30 42 51 76 46 76 -4 0 -32 -34 -61 -75 -29 -41 -55 -75 -58 -75 -10
0 -62 42 -62 51 0 5 23 41 51 80 28 38 49 72 47 75 -3 2 -29 -30 -58 -71 -29
-41 -56 -75 -60 -75 -4 0 -19 9 -33 20 -35 27 -41 26 -71 -20 -14 -22 -30 -40
-34 -40 -5 0 -32 -34 -61 -75 -28 -41 -56 -75 -60 -75 -5 0 -20 9 -34 20 -14
11 -29 20 -34 20 -8 -1 -623 -856 -630 -877 -2 -6 13 -21 33 -33 30 -19 38
-21 44 -9 24 42 605 847 624 864 13 11 44 50 70 88 26 37 52 67 58 67 5 0 23
-10 40 -21 29 -21 30 -21 43 -3 7 11 23 30 35 44 26 30 16 7 -17 -36 l-23 -31
35 -27 36 -28 -47 -65 c-26 -37 -54 -81 -63 -99 -19 -39 -624 -884 -629 -879
-2 2 137 200 309 441 l312 438 -32 27 c-37 31 -39 25 31 122 26 37 45 67 40
67 -10 0 -89 -111 -112 -156 -20 -40 -623 -884 -628 -879 -2 2 137 201 309
441 l312 437 -29 24 c-16 12 -33 23 -39 23 -5 0 -140 -183 -300 -407 -159
-223 -301 -421 -315 -440 -21 -30 -22 -36 -9 -43 9 -5 26 -17 38 -27 l21 -18
-22 -28 -23 -27 -33 26 c-32 25 -32 27 -17 51 9 14 15 27 12 29 -2 3 -12 -7
-21 -21 -17 -26 -25 -25 -69 9 -17 13 -16 16 8 63 29 59 606 869 639 898 28
25 120 154 114 161 -3 2 -29 -30 -58 -71 -29 -41 -59 -75 -66 -75 -7 0 -24 14
-38 31 -34 40 -34 88 0 128 21 25 33 31 66 31 22 0 53 -8 69 -17 15 -9 30 -15
32 -12 1 2 15 20 29 40 l27 36 -35 32 c-28 27 -34 40 -34 75 0 60 36 96 94 96
25 0 51 -8 66 -20 l25 -19 -21 -28 c-11 -15 -37 -52 -58 -80 -21 -29 -34 -53
-29 -53 10 1 113 145 113 159 0 6 57 90 126 187 l127 175 -35 32 c-44 40 -55
84 -33 127 30 58 97 70 158 28z m103 -84 c-2 -6 -28 -43 -56 -82 -55 -75 -56
-75 -104 -39 -23 17 -22 19 56 124 l39 53 34 -23 c19 -12 33 -27 31 -33z m78
-57 c-1 -7 -25 -46 -53 -85 l-52 -71 -35 22 c-18 12 -32 27 -29 34 2 6 27 44
55 83 l52 71 32 -21 c17 -11 31 -26 30 -33z m226 -148 l29 -22 -37 -51 c-20
-29 -47 -65 -59 -81 l-21 -30 -31 23 c-17 12 -34 22 -38 22 -4 0 -64 -79 -132
-175 -68 -96 -126 -173 -129 -171 -5 6 213 312 246 345 13 13 46 54 74 92 27
38 54 69 59 69 5 0 23 -10 39 -21z m111 -106 c30 -92 -63 -161 -151 -112 -27
15 -44 20 -48 13 -49 -74 -246 -343 -250 -340 -5 6 224 324 257 356 14 14 47
56 74 93 l47 67 30 -22 c16 -12 35 -36 41 -55z m-477 -427 c17 -14 15 -19 -38
-94 -31 -44 -56 -84 -56 -88 0 -12 -52 -85 -57 -80 -3 3 7 20 21 39 33 43 33
52 -4 74 -35 20 -35 21 -13 53 94 137 94 137 147 96z m-2858 -192 c-43 -184
-71 -325 -98 -489 -19 -123 -16 -414 5 -498 50 -200 181 -391 494 -726 75 -80
144 -159 154 -175 12 -20 19 -50 19 -82 0 -143 -221 -411 -310 -376 -76 30
-306 249 -412 392 -125 170 -223 369 -267 542 -94 365 -19 798 215 1248 77
147 237 392 242 369 1 -9 -17 -101 -42 -205z m2931 137 c51 -46 56 -108 13
-151 -39 -39 -94 -38 -144 1 -26 21 -27 22 -10 48 37 56 95 131 102 131 4 0
22 -13 39 -29z m-333 -135 c17 -14 15 -19 -39 -95 -60 -86 -59 -85 -109 -47
-21 17 -20 19 56 124 41 55 43 56 92 18z m71 -51 l29 -24 -20 -28 c-11 -15
-37 -52 -58 -80 -21 -29 -34 -53 -29 -53 4 0 32 34 61 75 29 41 57 75 62 75 5
0 25 -15 44 -34 29 -26 36 -41 36 -70 0 -95 -90 -133 -173 -74 -16 11 -32 17
-36 12 -4 -5 -147 -203 -316 -441 -170 -238 -311 -431 -313 -428 -2 2 138 202
311 443 l315 440 -34 28 -35 29 56 78 c31 42 59 77 63 77 4 -1 20 -12 37 -25z
m-1270 -685 c28 -11 135 -89 135 -99 0 -3 -9 -17 -19 -30 l-18 -23 -43 31
c-72 52 -157 35 -187 -36 -20 -49 -10 -93 30 -130 26 -25 409 -304 536 -390
66 -45 146 -21 177 52 19 47 3 97 -46 137 -45 35 -48 47 -21 72 19 17 22 16
84 -28 70 -50 77 -60 77 -111 0 -24 -17 -56 -68 -126 -76 -104 -106 -126 -152
-110 -16 5 -179 117 -361 248 -354 254 -371 270 -349 329 12 32 110 172 136
195 11 10 28 19 39 22 11 2 21 5 22 6 1 0 13 -3 28 -9z"/>
<path d="M9245 13151 c-40 -24 -81 -70 -93 -101 -20 -54 18 -94 115 -121 91
-26 137 -25 163 3 11 12 20 28 20 35 0 35 -47 132 -80 166 -43 42 -78 48 -125
18z"/>
<path d="M8986 12935 c-46 -36 -76 -79 -76 -110 0 -47 90 -94 212 -111 42 -5
50 -3 73 20 29 29 28 47 -11 133 -48 110 -113 132 -198 68z"/>
<path d="M8743 12740 c-12 -5 -42 -29 -67 -53 -38 -35 -46 -50 -46 -79 0 -46
31 -74 111 -98 78 -24 137 -25 168 -4 29 21 25 65 -14 148 -38 81 -91 111
-152 86z"/>
<path d="M8418 12476 c-49 -38 -83 -95 -73 -126 14 -43 92 -79 207 -96 42 -5
50 -3 73 20 29 29 28 47 -10 133 -50 111 -113 133 -197 69z"/>
</g>
</svg>
