<?xml version="1.0" standalone="no"?>
<!DOCTYPE svg PUBLIC "-//W3C//DTD SVG 20010904//EN"
 "http://www.w3.org/TR/2001/REC-SVG-20010904/DTD/svg10.dtd">
<svg version="1.0" xmlns="http://www.w3.org/2000/svg"
 width="1200.000000pt" height="1200.000000pt" viewBox="0 0 1200.000000 1200.000000"
 preserveAspectRatio="xMidYMid meet">

<g transform="translate(0.000000,1200.000000) scale(0.100000,-0.100000)"
fill="#000000" stroke="none">
<path d="M7458 9614 c-701 -102 -1258 -526 -1514 -1153 l-38 -94 -21 28 c-269
375 -767 729 -1335 950 -268 105 -572 183 -860 221 -172 23 -514 23 -675 0
-927 -132 -1529 -764 -1687 -1771 -30 -189 -32 -632 -4 -825 162 -1146 766
-2016 1981 -2857 178 -123 370 -245 765 -483 517 -314 722 -448 955 -628 312
-241 562 -498 738 -758 34 -51 73 -100 87 -109 14 -9 32 -31 40 -48 22 -46 62
-70 122 -75 78 -6 110 20 171 138 66 129 143 241 252 368 109 126 174 189 475
458 124 111 251 228 283 262 53 56 57 64 57 109 0 92 -63 153 -157 153 -51 0
-53 -1 -141 -83 -48 -45 -171 -156 -273 -246 -323 -288 -496 -471 -664 -706
l-20 -28 -59 79 c-208 279 -530 581 -896 844 -221 159 -413 281 -1020 651
-674 410 -1029 678 -1411 1066 -165 167 -241 254 -350 398 -348 461 -546 919
-631 1460 -19 122 -22 179 -22 435 0 274 2 305 27 440 104 576 375 1006 787
1251 576 342 1498 287 2352 -142 279 -139 491 -289 678 -478 134 -135 210
-234 286 -374 26 -48 59 -95 73 -104 14 -9 34 -27 44 -40 28 -35 70 -53 126
-53 42 0 56 5 84 30 30 26 37 43 57 127 177 767 710 1228 1507 1304 272 26
636 -25 923 -130 130 -48 373 -171 490 -249 258 -171 492 -417 643 -677 53
-91 73 -113 117 -126 54 -16 110 2 154 51 49 55 51 117 4 199 -180 318 -483
627 -818 836 -321 199 -688 332 -1054 380 -147 19 -492 19 -628 -1z"/>
<path d="M7030 780 c0 -32 -7 -35 -64 -31 -18 2 -26 -1 -21 -8 9 -16 -8 -14
-31 4 -26 20 -48 19 -94 -5 -86 -44 -93 -155 -14 -215 23 -17 87 -19 117 -3
21 11 21 10 6 -13 -22 -33 -84 -39 -111 -10 -10 12 -25 21 -33 21 -23 0 -18
-34 9 -59 20 -19 33 -22 86 -19 89 4 104 25 108 158 4 90 6 98 23 97 17 -1 19
-10 19 -73 0 -66 2 -74 26 -93 30 -24 54 -27 54 -8 0 9 3 9 9 -1 5 -8 17 -12
27 -10 17 3 19 14 22 90 2 76 5 86 22 91 13 3 20 14 20 30 0 27 -15 44 -25 28
-3 -6 -22 -8 -43 -6 -20 2 -43 4 -49 4 -8 1 -13 14 -13 31 0 25 -4 30 -25 30
-21 0 -25 -5 -25 -30z m-122 -88 c56 -43 30 -136 -38 -134 -45 1 -65 24 -65
73 0 31 6 45 25 60 31 23 49 23 78 1z m212 -63 c0 -62 -2 -70 -17 -67 -14 3
-19 15 -21 62 -3 56 5 75 31 76 4 0 7 -32 7 -71z"/>
<path d="M6361 742 c-18 -12 -25 -14 -29 -4 -2 6 -10 12 -18 12 -11 0 -14 -28
-14 -156 0 -143 1 -155 18 -152 12 2 18 16 22 48 3 28 8 40 13 33 5 -8 28 -13
55 -13 74 1 112 42 112 123 0 51 -23 87 -72 111 -39 20 -57 19 -87 -2z m78
-47 c64 -32 51 -124 -19 -140 -70 -16 -111 90 -52 134 33 25 35 25 71 6z"/>
<path d="M6615 750 c-4 -6 -21 -8 -41 -4 l-34 6 0 -122 c0 -120 0 -121 23
-118 20 3 22 9 25 86 3 73 5 84 26 97 19 13 28 13 50 4 25 -12 26 -15 26 -101
0 -82 1 -88 20 -88 29 0 33 18 23 117 -8 84 -9 88 -42 110 -36 25 -66 29 -76
13z"/>
<path d="M7277 743 c-59 -31 -84 -112 -52 -173 22 -42 53 -60 106 -60 40 0 53
5 78 31 17 17 31 35 31 40 0 21 -32 20 -56 -2 -39 -37 -124 -26 -124 17 0 9
25 13 95 16 84 3 95 1 95 -14 0 -10 16 -33 35 -53 31 -30 42 -35 85 -35 41 0
53 5 79 31 17 17 31 35 31 40 0 21 -32 20 -56 -2 -30 -28 -91 -30 -111 -3 -7
10 -13 21 -13 26 0 4 41 8 90 8 l90 0 0 38 c0 20 -6 44 -13 52 -21 27 -74 60
-96 60 -34 0 -101 -48 -116 -83 -11 -24 -14 -27 -15 -12 -1 25 -16 44 -57 73
-35 25 -65 26 -106 5z m88 -49 c14 -9 25 -20 25 -24 0 -5 -29 -10 -65 -12 -36
-1 -65 -1 -65 2 1 18 43 49 68 50 7 0 24 -7 37 -16z m250 -9 l30 -24 -74 -1
-74 0 23 25 c30 32 57 32 95 0z"/>
<path d="M4425 708 c-3 -7 -13 -57 -24 -110 l-18 -98 63 0 c52 0 67 4 93 25
41 35 57 86 42 136 -7 21 -20 43 -31 49 -27 14 -120 13 -125 -2z m113 -80 c3
-40 -1 -52 -22 -73 -22 -22 -64 -33 -78 -20 -2 3 2 37 10 75 l16 71 35 -3 c35
-3 36 -4 39 -50z"/>
<path d="M4990 700 c0 -11 7 -20 15 -20 8 0 19 9 25 20 9 18 8 20 -15 20 -18
0 -25 -5 -25 -20z"/>
<path d="M5714 685 c-7 -38 -19 -52 -29 -35 -10 16 -62 12 -80 -7 -21 -20 -35
-57 -35 -89 0 -34 36 -68 63 -59 12 4 36 6 52 6 31 -1 31 -1 49 86 10 49 20
98 23 111 4 17 1 22 -15 22 -16 0 -23 -8 -28 -35z m-29 -74 c16 -50 -25 -103
-60 -77 -30 22 -3 96 36 96 10 0 20 -9 24 -19z"/>
<path d="M5870 663 c-6 -32 -16 -74 -21 -93 -14 -54 -11 -70 11 -70 11 0 20 4
20 10 0 5 13 2 29 -7 27 -16 30 -16 54 0 37 24 56 90 36 126 -12 21 -22 26
-52 26 -20 0 -37 0 -37 0 0 0 4 15 9 33 9 30 8 32 -14 32 -21 0 -25 -7 -35
-57z m89 -55 c9 -26 5 -45 -16 -70 -23 -26 -43 -11 -43 31 0 57 42 85 59 39z"/>
<path d="M4652 653 c-18 -7 -42 -57 -42 -88 0 -14 11 -37 26 -52 20 -20 31
-24 57 -19 35 7 65 31 54 43 -4 4 -20 2 -36 -4 -18 -6 -35 -7 -45 -1 -29 16
-17 27 37 30 50 3 52 4 55 34 2 19 -3 38 -13 48 -16 15 -65 20 -93 9z m66 -45
c3 -14 -3 -18 -27 -18 -29 0 -41 17 -24 34 13 13 48 1 51 -16z"/>
<path d="M4805 636 c-21 -32 -11 -51 36 -70 21 -9 39 -20 39 -25 0 -18 -33
-21 -57 -6 -15 10 -29 13 -39 7 -14 -8 -12 -12 11 -30 41 -33 102 -24 124 17
16 29 4 47 -40 65 -21 9 -39 20 -39 26 0 13 37 13 45 0 8 -12 16 -12 34 -1 27
17 -6 41 -55 41 -35 0 -47 -5 -59 -24z"/>
<path d="M4971 603 c-7 -32 -15 -68 -18 -80 -4 -18 -1 -23 16 -23 13 0 22 8
26 23 30 133 30 137 7 137 -15 0 -22 -13 -31 -57z"/>
<path d="M5051 634 c-24 -31 -28 -91 -7 -119 10 -14 21 -17 48 -12 32 5 35 3
30 -15 -6 -26 -30 -34 -53 -20 -26 16 -49 15 -49 -3 0 -33 78 -47 117 -20 15
11 27 40 42 106 12 50 21 95 21 100 0 14 -38 11 -43 -3 -4 -10 -7 -10 -18 0
-23 21 -66 14 -88 -14z m87 -36 c4 -36 -14 -68 -38 -68 -28 0 -37 43 -15 76
21 32 49 28 53 -8z"/>
<path d="M5230 603 c-6 -32 -14 -68 -17 -80 -4 -18 -1 -23 15 -23 16 0 23 11
32 50 13 54 32 80 57 80 13 0 14 -8 9 -42 -4 -24 -9 -53 -13 -65 -4 -18 -1
-23 16 -23 13 0 22 8 26 23 19 84 21 106 13 121 -11 19 -59 21 -76 4 -9 -9
-12 -9 -12 0 0 7 -9 12 -19 12 -16 0 -22 -11 -31 -57z"/>
<path d="M5424 635 c-20 -20 -25 -33 -22 -67 5 -72 74 -100 124 -50 16 15 16
17 1 20 -9 2 -24 -1 -34 -6 -11 -7 -24 -7 -35 -1 -32 17 -19 28 35 31 49 3 52
5 55 31 8 64 -74 92 -124 42z m84 -27 c3 -14 -3 -18 -27 -18 -29 0 -41 17 -24
34 13 13 48 1 51 -16z"/>
<path d="M6040 649 c0 -5 5 -41 11 -79 11 -73 2 -110 -26 -110 -8 0 -15 -7
-15 -15 0 -16 36 -20 57 -7 20 13 133 217 122 220 -21 8 -39 -10 -67 -65 l-30
-57 -7 62 c-6 52 -10 62 -26 62 -10 0 -19 -5 -19 -11z"/>
</g>
</svg>
