<?xml version="1.0" encoding="UTF-8" standalone="no"?>
<svg
   xmlns:dc="http://purl.org/dc/elements/1.1/"
   xmlns:cc="http://creativecommons.org/ns#"
   xmlns:rdf="http://www.w3.org/1999/02/22-rdf-syntax-ns#"
   xmlns:svg="http://www.w3.org/2000/svg"
   xmlns="http://www.w3.org/2000/svg"
   xmlns:xlink="http://www.w3.org/1999/xlink"
   xmlns:sodipodi="http://sodipodi.sourceforge.net/DTD/sodipodi-0.dtd"
   xmlns:inkscape="http://www.inkscape.org/namespaces/inkscape"
   version="1.1"
   viewBox="0 0 512 512"
   width="512.0pt"
   height="512.0pt"
   id="svg108"
   sodipodi:docname="tshirt-stroke-and-fill.svg"
   inkscape:version="0.92.5 (2060ec1f9f, 2020-04-08)">
  <metadata
     id="metadata112">
    <rdf:RDF>
      <cc:Work
         rdf:about="">
        <dc:format>image/svg+xml</dc:format>
        <dc:type
           rdf:resource="http://purl.org/dc/dcmitype/StillImage" />
        <dc:title></dc:title>
      </cc:Work>
    </rdf:RDF>
  </metadata>
  <sodipodi:namedview
     pagecolor="#ffffff"
     bordercolor="#666666"
     borderopacity="1"
     objecttolerance="10"
     gridtolerance="10"
     guidetolerance="10"
     inkscape:pageopacity="0"
     inkscape:pageshadow="2"
     inkscape:window-width="1366"
     inkscape:window-height="704"
     id="namedview110"
     showgrid="false"
     inkscape:pagecheckerboard="true"
     inkscape:zoom="0.48889805"
     inkscape:cx="331.53275"
     inkscape:cy="424.4091"
     inkscape:window-x="0"
     inkscape:window-y="27"
     inkscape:window-maximized="1"
     inkscape:current-layer="g106" />
  <defs
     id="defs22">
    <path
       d="M 0.00 0.00 L 512.00 0.00 L 512.00 512.00 L 0.00 512.00 L 0.00 0.00 Z M 167.99 155.34 C 168.00 178.22 168.00 201.10 168.00 223.99 C 164.65 219.67 161.53 215.15 158.09 210.91 C 156.27 208.69 153.82 207.95 151.01 208.00 C 136.02 207.98 121.00 208.03 106.00 207.98 C 100.39 207.34 95.45 211.13 96.06 217.01 C 96.31 219.27 97.86 221.11 99.14 222.88 C 105.50 231.20 111.66 239.67 118.02 247.98 C 118.85 249.21 120.09 250.36 119.98 251.95 C 120.03 283.22 119.99 314.89 120.00 346.20 C 113.17 343.94 106.33 341.67 99.50 339.39 C 93.85 337.48 87.84 336.92 81.98 338.15 C 72.56 340.01 64.23 346.29 59.78 354.78 C 53.76 366.15 55.01 380.85 63.16 390.86 C 66.67 395.35 71.19 398.12 75.96 401.08 C 120.58 429.43 165.16 457.87 209.77 486.22 C 227.81 497.75 250.24 501.41 271.00 496.09 C 308.01 486.45 344.99 476.61 382.00 466.93 C 386.54 465.87 391.33 463.95 396.00 463.98 C 412.98 464.01 430.02 464.00 447.01 464.00 C 450.04 464.09 452.81 463.09 454.57 460.53 C 456.00 458.52 455.97 456.37 456.02 454.00 C 455.96 417.39 456.05 380.56 455.97 343.97 C 456.08 339.44 452.58 335.71 448.02 335.71 C 430.47 335.60 412.86 335.70 395.30 335.67 C 389.39 330.20 383.12 325.66 376.00 321.87 C 376.01 298.62 375.97 275.17 376.02 251.95 C 375.93 250.50 376.82 249.67 377.57 248.55 C 384.06 240.05 390.37 231.40 396.86 222.89 C 398.15 221.11 399.68 219.27 399.93 217.01 C 400.33 213.81 398.75 210.63 395.93 209.04 C 394.06 207.94 392.10 208.04 390.00 207.98 C 374.67 208.02 359.33 207.99 344.00 208.00 C 344.01 190.44 343.99 172.89 344.01 155.33 C 347.71 158.86 351.15 162.67 354.93 166.11 C 358.12 168.86 362.60 168.44 365.65 165.70 C 381.12 152.87 396.58 139.91 412.05 127.08 C 413.99 125.43 415.61 123.67 415.91 121.02 C 416.30 118.39 415.19 116.33 413.79 114.22 C 401.34 95.66 389.01 77.01 376.56 58.45 C 368.98 47.27 358.24 38.49 345.81 33.21 C 333.73 27.97 321.59 22.84 309.50 17.61 C 306.96 16.41 304.40 16.54 301.67 16.48 C 270.47 16.31 239.23 16.25 208.02 16.52 C 204.38 16.39 201.66 18.07 198.43 19.41 C 190.02 23.03 181.61 26.63 173.20 30.24 C 167.39 32.75 161.72 34.93 156.35 38.35 C 147.63 43.73 140.27 51.07 134.65 59.62 C 122.27 78.21 109.77 96.86 97.44 115.46 C 95.09 118.93 95.69 123.41 98.89 126.10 C 114.63 139.32 130.57 152.50 146.35 165.69 C 149.39 168.46 153.88 168.84 157.07 166.11 C 160.87 162.69 164.31 158.87 167.99 155.34 Z M 452.54 120.70 C 450.16 121.83 448.19 124.29 448.08 126.98 C 447.91 130.28 447.90 133.73 448.09 137.03 C 448.32 140.96 452.11 144.18 456.00 144.01 C 459.90 144.17 463.66 140.96 463.91 137.03 C 464.08 133.38 464.18 129.62 463.78 125.98 C 462.61 121.05 457.10 118.63 452.54 120.70 Z M 428.54 144.70 C 426.16 145.83 424.19 148.29 424.08 150.98 C 423.91 154.28 423.90 157.73 424.09 161.03 C 424.32 164.96 428.11 168.18 432.00 168.01 C 435.90 168.17 439.66 164.96 439.91 161.03 C 440.08 157.38 440.18 153.62 439.78 149.98 C 438.61 145.05 433.10 142.63 428.54 144.70 Z M 476.54 144.70 C 474.16 145.83 472.19 148.29 472.08 150.98 C 471.91 154.28 471.90 157.73 472.09 161.03 C 472.32 164.96 476.11 168.18 480.00 168.01 C 483.90 168.17 487.66 164.96 487.91 161.03 C 488.08 157.38 488.18 153.62 487.78 149.98 C 486.61 145.05 481.10 142.63 476.54 144.70 Z M 452.54 168.70 C 450.16 169.83 448.19 172.29 448.08 174.98 C 447.91 178.28 447.90 181.73 448.09 185.03 C 448.32 188.95 452.11 192.18 456.00 192.01 C 459.90 192.17 463.66 188.96 463.91 185.03 C 464.08 181.38 464.18 177.62 463.78 173.98 C 462.61 169.05 457.10 166.63 452.54 168.70 Z M 44.54 176.70 C 42.16 177.83 40.19 180.29 40.08 182.98 C 39.91 186.28 39.90 189.73 40.09 193.03 C 40.32 196.96 44.11 200.18 48.00 200.01 C 51.90 200.17 55.66 196.96 55.91 193.03 C 56.08 189.38 56.18 185.62 55.78 181.98 C 54.61 177.05 49.10 174.63 44.54 176.70 Z M 20.54 200.69 C 18.17 201.83 16.19 204.29 16.08 206.98 C 15.91 210.28 15.90 213.73 16.09 217.03 C 16.32 220.95 20.11 224.18 24.00 224.01 C 27.90 224.17 31.66 220.96 31.91 217.03 C 32.08 213.38 32.18 209.62 31.78 205.98 C 30.61 201.05 25.10 198.63 20.54 200.69 Z M 68.54 200.69 C 66.16 201.83 64.19 204.29 64.08 206.98 C 63.91 210.28 63.90 213.73 64.09 217.03 C 64.32 220.95 68.11 224.18 72.00 224.01 C 75.90 224.17 79.66 220.96 79.91 217.03 C 80.08 213.38 80.18 209.62 79.78 205.98 C 78.61 201.05 73.10 198.63 68.54 200.69 Z M 44.54 224.69 C 42.16 225.83 40.19 228.29 40.08 230.98 C 39.91 234.28 39.90 237.73 40.09 241.03 C 40.32 244.96 44.11 248.18 48.00 248.01 C 51.90 248.17 55.66 244.96 55.91 241.03 C 56.08 237.38 56.18 233.62 55.78 229.98 C 54.61 225.05 49.10 222.63 44.54 224.69 Z"
       id="p0" />
    <path
       d="M 301.67 16.48 C 304.40 16.54 306.96 16.41 309.50 17.61 C 321.59 22.84 333.73 27.97 345.81 33.21 C 358.24 38.49 368.98 47.27 376.56 58.45 C 389.01 77.01 401.34 95.66 413.79 114.22 C 415.19 116.33 416.30 118.39 415.91 121.02 C 415.61 123.67 413.99 125.43 412.05 127.08 C 396.58 139.91 381.12 152.87 365.65 165.70 C 362.60 168.44 358.12 168.86 354.93 166.11 C 351.15 162.67 347.71 158.86 344.01 155.33 C 343.99 172.89 344.01 190.44 344.00 208.00 C 359.33 207.99 374.67 208.02 390.00 207.98 C 392.10 208.04 394.06 207.94 395.93 209.04 C 398.75 210.63 400.33 213.81 399.93 217.01 C 399.68 219.27 398.15 221.11 396.86 222.89 C 390.37 231.40 384.06 240.05 377.57 248.55 C 376.82 249.67 375.93 250.50 376.02 251.95 C 375.97 275.17 376.01 298.62 376.00 321.87 C 383.12 325.66 389.39 330.20 395.30 335.67 C 412.86 335.70 430.47 335.60 448.02 335.71 C 452.58 335.71 456.08 339.44 455.97 343.97 C 456.05 380.56 455.96 417.39 456.02 454.00 C 455.97 456.37 456.00 458.52 454.57 460.53 C 452.81 463.09 450.04 464.09 447.01 464.00 C 430.02 464.00 412.98 464.01 396.00 463.98 C 391.33 463.95 386.54 465.87 382.00 466.93 C 344.99 476.61 308.01 486.45 271.00 496.09 C 250.24 501.41 227.81 497.75 209.77 486.22 C 165.16 457.87 120.58 429.43 75.96 401.08 C 71.19 398.12 66.67 395.35 63.16 390.86 C 55.01 380.85 53.76 366.15 59.78 354.78 C 64.23 346.29 72.56 340.01 81.98 338.15 C 87.84 336.92 93.85 337.48 99.50 339.39 C 106.33 341.67 113.17 343.94 120.00 346.20 C 119.99 314.89 120.03 283.22 119.98 251.95 C 120.09 250.36 118.85 249.21 118.02 247.98 C 111.66 239.67 105.50 231.20 99.14 222.88 C 97.86 221.11 96.31 219.27 96.06 217.01 C 95.45 211.13 100.39 207.34 106.00 207.98 C 121.00 208.03 136.02 207.98 151.01 208.00 C 153.82 207.95 156.27 208.69 158.09 210.91 C 161.53 215.15 164.65 219.67 168.00 223.99 C 168.00 201.10 168.00 178.22 167.99 155.34 C 164.31 158.87 160.87 162.69 157.07 166.11 C 153.88 168.84 149.39 168.46 146.35 165.69 C 130.57 152.50 114.63 139.32 98.89 126.10 C 95.69 123.41 95.09 118.93 97.44 115.46 C 109.77 96.86 122.27 78.21 134.65 59.62 C 140.27 51.07 147.63 43.73 156.35 38.35 C 161.72 34.93 167.39 32.75 173.20 30.24 C 181.61 26.63 190.02 23.03 198.43 19.41 C 201.66 18.07 204.38 16.39 208.02 16.52 C 239.23 16.25 270.47 16.31 301.67 16.48 Z M 216.06 32.05 C 216.10 39.48 215.71 46.42 218.42 53.51 C 223.93 69.13 239.40 80.10 256.00 79.89 C 272.86 80.12 288.52 68.78 293.80 52.82 C 296.29 45.93 295.89 39.23 295.94 32.05 C 290.65 32.10 285.35 32.10 280.05 32.05 C 280.08 37.96 280.56 43.62 278.21 49.20 C 274.96 57.09 267.51 62.84 259.02 63.84 C 248.72 65.28 238.29 59.36 234.08 49.89 C 231.39 44.04 231.91 38.30 231.95 32.05 C 226.66 32.10 221.35 32.10 216.06 32.05 Z M 263.84 32.15 C 258.64 32.33 253.44 32.10 248.24 32.24 C 248.13 35.63 247.98 39.18 248.59 42.53 C 250.32 48.00 257.55 49.53 261.55 45.55 C 264.90 42.50 263.49 36.28 263.84 32.15 Z M 114.66 118.32 C 126.83 128.70 139.12 138.98 151.62 148.96 C 156.86 143.41 162.32 138.07 167.77 132.74 C 167.72 125.81 167.95 118.89 168.06 111.97 C 167.98 107.18 172.30 103.46 177.01 104.08 C 181.51 104.69 184.25 108.56 184.00 112.99 C 184.01 155.32 183.99 197.66 184.00 240.00 C 228.00 240.01 271.99 240.00 315.98 240.00 C 319.57 235.24 323.15 230.47 326.74 225.71 C 328.51 223.67 327.91 221.50 328.03 219.00 C 327.94 184.00 328.05 149.00 327.98 114.00 C 328.05 111.62 327.99 109.47 329.43 107.44 C 331.88 103.85 337.00 102.94 340.55 105.44 C 343.11 107.20 344.07 109.96 343.99 112.99 C 343.97 119.57 344.30 126.13 344.23 132.71 C 349.69 138.04 355.16 143.39 360.39 148.94 C 367.88 143.34 374.89 137.08 382.13 131.16 C 387.19 126.87 392.41 122.75 397.34 118.32 C 386.20 101.87 375.28 85.27 364.23 68.76 C 358.48 59.86 350.31 52.69 340.59 48.41 C 331.09 44.29 321.56 40.22 312.04 36.14 C 312.38 48.42 309.64 60.47 302.75 70.74 C 295.21 82.26 283.38 90.79 270.02 94.18 C 257.03 97.54 242.95 96.10 230.97 90.03 C 216.64 82.93 205.75 69.54 201.81 54.02 C 200.22 48.14 199.99 42.20 199.96 36.14 C 191.37 39.87 182.75 43.51 174.15 47.20 C 167.16 50.04 160.72 54.02 155.37 59.37 C 150.07 64.53 146.73 70.50 142.58 76.57 C 133.25 90.47 124.07 104.47 114.66 118.32 Z M 120.01 224.01 C 124.01 229.34 128.00 234.68 132.01 240.00 C 141.34 239.99 150.67 240.02 159.99 239.99 C 155.99 234.66 152.00 229.32 147.99 224.00 C 138.66 224.01 129.33 223.98 120.01 224.01 Z M 336.01 239.99 C 345.33 240.02 354.66 239.99 363.99 240.00 C 368.00 234.68 371.99 229.34 375.99 224.01 C 366.71 224.10 357.36 223.80 348.09 224.14 C 343.81 229.18 340.09 234.77 336.01 239.99 Z M 136.06 256.06 C 136.15 287.91 136.02 319.76 136.12 351.60 C 146.75 355.03 157.32 358.63 167.92 362.16 C 167.92 326.79 167.88 291.43 167.94 256.06 C 157.32 256.10 146.68 256.10 136.06 256.06 Z M 184.00 256.00 C 184.00 283.98 184.01 311.95 183.99 339.93 C 189.02 337.29 194.28 335.71 200.00 335.71 C 225.55 335.64 251.13 335.70 276.69 335.69 C 289.71 323.48 306.28 315.35 323.99 312.90 C 336.04 311.13 348.29 312.17 360.00 315.42 C 360.00 295.61 360.00 275.81 360.00 256.00 C 301.33 256.00 242.67 256.00 184.00 256.00 Z M 170.23 379.89 C 146.50 371.88 122.74 364.03 99.00 356.08 C 94.29 354.53 90.05 352.68 84.97 353.83 C 77.85 355.31 72.35 361.73 72.03 368.99 C 71.57 375.52 74.60 381.41 80.18 384.81 C 126.24 414.09 172.27 443.39 218.31 472.71 C 230.31 480.38 244.85 483.75 259.00 482.07 C 263.80 481.54 268.35 480.28 273.00 479.04 C 308.36 469.82 343.66 460.40 379.02 451.19 C 383.89 450.07 389.03 447.94 394.00 447.99 C 409.33 448.01 424.66 448.00 440.00 448.00 C 440.00 415.89 440.00 383.78 440.00 351.67 C 424.00 351.63 407.96 351.73 391.97 351.63 C 388.98 351.66 387.00 350.01 384.99 348.02 C 374.00 337.16 359.33 330.20 343.98 328.49 C 324.23 326.17 303.74 332.63 289.07 346.09 C 287.34 347.64 285.69 349.50 283.71 350.71 C 281.93 351.72 279.98 351.63 278.01 351.69 C 252.34 351.64 226.66 351.69 201.00 351.66 C 197.02 351.61 193.22 352.57 190.12 355.13 C 184.79 359.27 182.58 366.64 184.96 373.00 C 187.18 379.36 193.29 383.63 200.03 383.62 C 226.34 383.69 252.70 383.59 279.01 383.67 C 281.87 383.63 284.46 384.40 286.27 386.73 C 288.98 390.13 288.37 395.23 284.96 397.92 C 282.89 399.60 280.56 399.68 278.01 399.69 C 252.34 399.70 226.67 399.68 201.00 399.70 C 195.69 399.77 190.42 398.77 185.67 396.34 C 178.63 392.89 173.47 386.95 170.23 379.89 Z"
       id="p1" />
    <path
       d="M 216.06 32.05 C 221.35 32.10 226.66 32.10 231.95 32.05 C 231.91 38.30 231.39 44.04 234.08 49.89 C 238.29 59.36 248.72 65.28 259.02 63.84 C 267.51 62.84 274.96 57.09 278.21 49.20 C 280.56 43.62 280.08 37.96 280.05 32.05 C 285.35 32.10 290.65 32.10 295.94 32.05 C 295.89 39.23 296.29 45.93 293.80 52.82 C 288.52 68.78 272.86 80.12 256.00 79.89 C 239.40 80.10 223.93 69.13 218.42 53.51 C 215.71 46.42 216.10 39.48 216.06 32.05 Z"
       id="p2" />
    <path
       d="M 248.24 32.24 C 253.44 32.10 258.64 32.33 263.84 32.15 C 263.49 36.28 264.90 42.50 261.55 45.55 C 257.55 49.53 250.32 48.00 248.59 42.53 C 247.98 39.18 248.13 35.63 248.24 32.24 Z"
       id="p3" />
    <path
       d="M 199.96 36.14 C 199.99 42.20 200.22 48.14 201.81 54.02 C 205.75 69.54 216.64 82.93 230.97 90.03 C 242.95 96.10 257.03 97.54 270.02 94.18 C 283.38 90.79 295.21 82.26 302.75 70.74 C 309.64 60.47 312.38 48.42 312.04 36.14 C 321.56 40.22 331.09 44.29 340.59 48.41 C 350.31 52.69 358.48 59.86 364.23 68.76 C 375.28 85.27 386.20 101.87 397.34 118.32 C 392.41 122.75 387.19 126.87 382.13 131.16 C 374.89 137.08 367.88 143.34 360.39 148.94 C 355.16 143.39 349.69 138.04 344.23 132.71 C 344.30 126.13 343.97 119.57 343.99 112.99 C 344.07 109.96 343.11 107.20 340.55 105.44 C 337.00 102.94 331.88 103.85 329.43 107.44 C 327.99 109.47 328.05 111.62 327.98 114.00 C 328.05 149.00 327.94 184.00 328.03 219.00 C 327.91 221.50 328.51 223.67 326.74 225.71 C 323.15 230.47 319.57 235.24 315.98 240.00 C 271.99 240.00 228.00 240.01 184.00 240.00 C 183.99 197.66 184.01 155.32 184.00 112.99 C 184.25 108.56 181.51 104.69 177.01 104.08 C 172.30 103.46 167.98 107.18 168.06 111.97 C 167.95 118.89 167.72 125.81 167.77 132.74 C 162.32 138.07 156.86 143.41 151.62 148.96 C 139.12 138.98 126.83 128.70 114.66 118.32 C 124.07 104.47 133.25 90.47 142.58 76.57 C 146.73 70.50 150.07 64.53 155.37 59.37 C 160.72 54.02 167.16 50.04 174.15 47.20 C 182.75 43.51 191.37 39.87 199.96 36.14 Z M 243.26 179.13 C 240.29 181.89 236.78 184.08 233.95 186.97 C 230.85 190.49 231.73 195.84 235.50 198.48 C 238.25 200.39 241.71 200.40 244.46 198.46 C 248.45 195.63 252.11 192.33 256.01 189.36 C 260.11 192.45 263.91 196.00 268.17 198.84 C 272.08 201.29 277.42 199.34 279.21 195.20 C 280.63 192.22 279.88 188.74 277.56 186.45 C 274.80 183.83 271.61 181.68 268.76 179.15 C 272.76 175.84 277.44 172.67 280.72 168.66 C 287.69 160.21 289.84 148.31 286.04 137.99 C 281.65 125.55 269.21 116.75 256.00 116.83 C 242.82 116.74 230.35 125.58 225.96 137.99 C 222.42 147.64 224.01 158.68 230.01 167.00 C 233.54 172.01 238.56 175.22 243.26 179.13 Z"
       id="p4" />
    <path
       d="M 256.00 116.83 C 269.21 116.75 281.65 125.55 286.04 137.99 C 289.84 148.31 287.69 160.21 280.72 168.66 C 277.44 172.67 272.76 175.84 268.76 179.15 C 271.61 181.68 274.80 183.83 277.56 186.45 C 279.88 188.74 280.63 192.22 279.21 195.20 C 277.42 199.34 272.08 201.29 268.17 198.84 C 263.91 196.00 260.11 192.45 256.01 189.36 C 252.11 192.33 248.45 195.63 244.46 198.46 C 241.71 200.40 238.25 200.39 235.50 198.48 C 231.73 195.84 230.85 190.49 233.95 186.97 C 236.78 184.08 240.29 181.89 243.26 179.13 C 238.56 175.22 233.54 172.01 230.01 167.00 C 224.01 158.68 222.42 147.64 225.96 137.99 C 230.35 125.58 242.82 116.74 256.00 116.83 Z M 256.00 169.05 C 260.62 164.97 267.02 161.47 270.16 156.10 C 273.95 149.16 271.83 140.17 265.28 135.72 C 259.15 131.24 250.56 131.88 245.06 137.07 C 238.76 142.63 238.22 152.86 243.90 159.05 C 247.60 162.72 252.03 165.67 256.00 169.05 Z"
       id="p5" />
    <path
       d="M 452.54 120.70 C 457.10 118.63 462.61 121.05 463.78 125.98 C 464.18 129.62 464.08 133.38 463.91 137.03 C 463.66 140.96 459.90 144.17 456.00 144.01 C 452.11 144.18 448.32 140.96 448.09 137.03 C 447.90 133.73 447.91 130.28 448.08 126.98 C 448.19 124.29 450.16 121.83 452.54 120.70 Z"
       id="p6" />
    <path
       d="M 265.28 135.72 C 271.83 140.17 273.95 149.16 270.16 156.10 C 267.02 161.47 260.62 164.97 256.00 169.05 C 252.03 165.67 247.60 162.72 243.90 159.05 C 238.22 152.86 238.76 142.63 245.06 137.07 C 250.56 131.88 259.15 131.24 265.28 135.72 Z"
       id="p7" />
    <path
       d="M 428.54 144.70 C 433.10 142.63 438.61 145.05 439.78 149.98 C 440.18 153.62 440.08 157.38 439.91 161.03 C 439.66 164.96 435.90 168.17 432.00 168.01 C 428.11 168.18 424.32 164.96 424.09 161.03 C 423.90 157.73 423.91 154.28 424.08 150.98 C 424.19 148.29 426.16 145.83 428.54 144.70 Z"
       id="p8" />
    <path
       d="M 476.54 144.70 C 481.10 142.63 486.61 145.05 487.78 149.98 C 488.18 153.62 488.08 157.38 487.91 161.03 C 487.66 164.96 483.90 168.17 480.00 168.01 C 476.11 168.18 472.32 164.96 472.09 161.03 C 471.90 157.73 471.91 154.28 472.08 150.98 C 472.19 148.29 474.16 145.83 476.54 144.70 Z"
       id="p9" />
    <path
       d="M 452.54 168.70 C 457.10 166.63 462.61 169.05 463.78 173.98 C 464.18 177.62 464.08 181.38 463.91 185.03 C 463.66 188.96 459.90 192.17 456.00 192.01 C 452.11 192.18 448.32 188.95 448.09 185.03 C 447.90 181.73 447.91 178.28 448.08 174.98 C 448.19 172.29 450.16 169.83 452.54 168.70 Z"
       id="p10" />
    <path
       d="M 44.54 176.70 C 49.10 174.63 54.61 177.05 55.78 181.98 C 56.18 185.62 56.08 189.38 55.91 193.03 C 55.66 196.96 51.90 200.17 48.00 200.01 C 44.11 200.18 40.32 196.96 40.09 193.03 C 39.90 189.73 39.91 186.28 40.08 182.98 C 40.19 180.29 42.16 177.83 44.54 176.70 Z"
       id="p11" />
    <path
       d="M 20.54 200.69 C 25.10 198.63 30.61 201.05 31.78 205.98 C 32.18 209.62 32.08 213.38 31.91 217.03 C 31.66 220.96 27.90 224.17 24.00 224.01 C 20.11 224.18 16.32 220.95 16.09 217.03 C 15.90 213.73 15.91 210.28 16.08 206.98 C 16.19 204.29 18.17 201.83 20.54 200.69 Z"
       id="p12" />
    <path
       d="M 68.54 200.69 C 73.10 198.63 78.61 201.05 79.78 205.98 C 80.18 209.62 80.08 213.38 79.91 217.03 C 79.66 220.96 75.90 224.17 72.00 224.01 C 68.11 224.18 64.32 220.95 64.09 217.03 C 63.90 213.73 63.91 210.28 64.08 206.98 C 64.19 204.29 66.16 201.83 68.54 200.69 Z"
       id="p13" />
    <path
       d="M 44.54 224.69 C 49.10 222.63 54.61 225.05 55.78 229.98 C 56.18 233.62 56.08 237.38 55.91 241.03 C 55.66 244.96 51.90 248.17 48.00 248.01 C 44.11 248.18 40.32 244.96 40.09 241.03 C 39.90 237.73 39.91 234.28 40.08 230.98 C 40.19 228.29 42.16 225.83 44.54 224.69 Z"
       id="p14" />
    <path
       d="M 120.01 224.01 C 129.33 223.98 138.66 224.01 147.99 224.00 C 152.00 229.32 155.99 234.66 159.99 239.99 C 150.67 240.02 141.34 239.99 132.01 240.00 C 128.00 234.68 124.01 229.34 120.01 224.01 Z"
       id="p15" />
    <path
       d="M 348.09 224.14 C 357.36 223.80 366.71 224.10 375.99 224.01 C 371.99 229.34 368.00 234.68 363.99 240.00 C 354.66 239.99 345.33 240.02 336.01 239.99 C 340.09 234.77 343.81 229.18 348.09 224.14 Z"
       id="p16" />
    <path
       d="M 136.06 256.06 C 146.68 256.10 157.32 256.10 167.94 256.06 C 167.88 291.43 167.92 326.79 167.92 362.16 C 157.32 358.63 146.75 355.03 136.12 351.60 C 136.02 319.76 136.15 287.91 136.06 256.06 Z"
       id="p17" />
    <path
       d="M 184.00 256.00 C 242.67 256.00 301.33 256.00 360.00 256.00 C 360.00 275.81 360.00 295.61 360.00 315.42 C 348.29 312.17 336.04 311.13 323.99 312.90 C 306.28 315.35 289.71 323.48 276.69 335.69 C 251.13 335.70 225.55 335.64 200.00 335.71 C 194.28 335.71 189.02 337.29 183.99 339.93 C 184.01 311.95 184.00 283.98 184.00 256.00 Z"
       id="p18" />
    <path
       d="M 343.98 328.49 C 359.33 330.20 374.00 337.16 384.99 348.02 C 387.00 350.01 388.98 351.66 391.97 351.63 C 407.96 351.73 424.00 351.63 440.00 351.67 C 440.00 383.78 440.00 415.89 440.00 448.00 C 424.66 448.00 409.33 448.01 394.00 447.99 C 389.03 447.94 383.89 450.07 379.02 451.19 C 343.66 460.40 308.36 469.82 273.00 479.04 C 268.35 480.28 263.80 481.54 259.00 482.07 C 244.85 483.75 230.31 480.38 218.31 472.71 C 172.27 443.39 126.24 414.09 80.18 384.81 C 74.60 381.41 71.57 375.52 72.03 368.99 C 72.35 361.73 77.85 355.31 84.97 353.83 C 90.05 352.68 94.29 354.53 99.00 356.08 C 122.74 364.03 146.50 371.88 170.23 379.89 C 173.47 386.95 178.63 392.89 185.67 396.34 C 190.42 398.77 195.69 399.77 201.00 399.70 C 226.67 399.68 252.34 399.70 278.01 399.69 C 280.56 399.68 282.89 399.60 284.96 397.92 C 288.37 395.23 288.98 390.13 286.27 386.73 C 284.46 384.40 281.87 383.63 279.01 383.67 C 252.70 383.59 226.34 383.69 200.03 383.62 C 193.29 383.63 187.18 379.36 184.96 373.00 C 182.58 366.64 184.79 359.27 190.12 355.13 C 193.22 352.57 197.02 351.61 201.00 351.66 C 226.66 351.69 252.34 351.64 278.01 351.69 C 279.98 351.63 281.93 351.72 283.71 350.71 C 285.69 349.50 287.34 347.64 289.07 346.09 C 303.74 332.63 324.23 326.17 343.98 328.49 Z"
       id="p19" />
  </defs>
  <g
     id="g106"
     transform="translate(-1.5340656,4.6021865)">
    <use
       xlink:href="#p1"
       id="use68"
       style="fill:#000000"
       x="0"
       y="0"
       width="100%"
       height="100%" />
    <use
       xlink:href="#p2"
       id="use70"
       style="fill:#ffffff"
       x="0"
       y="0"
       width="100%"
       height="100%" />
    <use
       xlink:href="#p3"
       id="use72"
       style="fill:#0292c9"
       x="0"
       y="0"
       width="100%"
       height="100%" />
    <use
       xlink:href="#p4"
       id="use74"
       style="fill:#0292c9"
       x="0"
       y="0"
       width="100%"
       height="100%" />
    <use
       xlink:href="#p5"
       id="use76"
       style="fill:#000000"
       x="0"
       y="0"
       width="100%"
       height="100%" />
    <use
       xlink:href="#p6"
       id="use78"
       style="fill:#ffffff"
       x="0"
       y="0"
       width="100%"
       height="100%" />
    <use
       xlink:href="#p7"
       id="use80"
       style="fill:#0292c9"
       x="0"
       y="0"
       width="100%"
       height="100%" />
    <use
       xlink:href="#p8"
       id="use82"
       style="fill:#ffffff"
       x="0"
       y="0"
       width="100%"
       height="100%" />
    <use
       xlink:href="#p9"
       id="use84"
       style="fill:#ffffff"
       x="0"
       y="0"
       width="100%"
       height="100%" />
    <use
       xlink:href="#p10"
       id="use86"
       style="fill:#ffffff"
       x="0"
       y="0"
       width="100%"
       height="100%" />
    <use
       xlink:href="#p11"
       id="use88"
       style="fill:#ffffff"
       x="0"
       y="0"
       width="100%"
       height="100%" />
    <use
       xlink:href="#p12"
       id="use90"
       style="fill:#ffffff"
       x="0"
       y="0"
       width="100%"
       height="100%" />
    <use
       xlink:href="#p13"
       id="use92"
       style="fill:#ffffff"
       x="0"
       y="0"
       width="100%"
       height="100%" />
    <use
       xlink:href="#p14"
       id="use94"
       style="fill:#ffffff"
       x="0"
       y="0"
       width="100%"
       height="100%" />
    <use
       xlink:href="#p15"
       id="use96"
       style="fill:#fbb540"
       x="0"
       y="0"
       width="100%"
       height="100%" />
    <use
       xlink:href="#p16"
       id="use98"
       style="fill:#fbb540"
       x="0"
       y="0"
       width="100%"
       height="100%" />
    <use
       xlink:href="#p17"
       id="use100"
       style="fill:#e59a2c"
       x="0"
       y="0"
       width="100%"
       height="100%" />
    <use
       xlink:href="#p18"
       id="use102"
       style="fill:#e59a2c"
       x="0"
       y="0"
       width="100%"
       height="100%" />
    <use
       xlink:href="#p19"
       id="use104"
       style="fill:#fdc9a6"
       x="0"
       y="0"
       width="100%"
       height="100%" />
  </g>
</svg>
