<?xml version="1.0" standalone="no"?>
<!DOCTYPE svg PUBLIC "-//W3C//DTD SVG 20010904//EN"
 "http://www.w3.org/TR/2001/REC-SVG-20010904/DTD/svg10.dtd">
<svg version="1.0" xmlns="http://www.w3.org/2000/svg"
 width="414.000000pt" height="362.000000pt" viewBox="0 0 414.000000 362.000000"
 preserveAspectRatio="xMidYMid meet">
<metadata>
Created by potrace 1.16, written by Peter Selinger 2001-2019
</metadata>
<g transform="translate(0.000000,362.000000) scale(0.100000,-0.100000)"
fill="#ffffff" stroke="none">
<path d="M2483 3415 c-16 -17 -17 -35 -3 -35 6 0 10 -8 10 -17 0 -10 17 -45
38 -78 20 -34 48 -82 62 -109 14 -26 33 -56 43 -66 9 -11 17 -23 17 -28 0 -5
11 -21 25 -36 l25 -27 -35 -43 c-46 -56 -65 -114 -65 -195 0 -87 10 -100 83
-108 71 -7 91 7 113 85 34 114 -3 217 -153 439 -20 29 -33 59 -30 67 5 14 12
14 59 0 29 -8 60 -24 70 -35 21 -25 63 -24 88 1 11 11 20 23 20 26 0 13 -33
34 -162 102 -137 72 -182 84 -205 57z"/>
<path d="M2205 3256 c-11 -7 -38 -48 -60 -90 -21 -42 -47 -85 -57 -96 -11 -11
-15 -20 -11 -20 4 0 1 -6 -8 -13 -8 -7 -25 -32 -38 -57 -12 -25 -30 -55 -39
-68 -16 -20 -21 -21 -51 -11 -51 18 -148 6 -214 -26 -31 -15 -54 -32 -51 -36
3 -5 0 -9 -5 -9 -6 0 -11 -20 -11 -45 0 -28 5 -45 12 -45 6 0 8 -3 5 -6 -4 -4
3 -15 15 -25 45 -40 197 -12 259 47 15 14 39 50 54 81 16 30 34 57 42 60 7 3
10 9 7 14 -3 5 0 9 5 9 6 0 11 7 11 15 0 8 4 15 10 15 5 0 12 11 16 25 3 14
10 25 14 25 4 0 11 10 14 23 10 37 39 68 55 58 10 -7 15 -33 16 -90 3 -93 14
-113 59 -109 l31 3 0 182 c0 100 -2 184 -5 186 -14 15 -57 16 -75 3z"/>
<path d="M3282 2990 c-58 -35 -62 -60 -62 -345 l0 -255 -1480 0 c-847 0 -1488
-4 -1498 -9 -9 -5 -42 -16 -73 -25 -31 -9 -62 -23 -69 -31 -7 -8 -19 -15 -27
-15 -8 0 -12 -4 -8 -9 3 -5 -4 -16 -14 -23 -11 -8 -25 -27 -31 -42 -7 -18 -10
-346 -10 -999 0 -1086 -4 -1020 71 -1086 75 -64 -63 -60 1985 -61 2083 0 1921
-6 2000 70 78 74 76 35 72 1105 l-3 940 -22 45 c-26 52 -104 107 -167 117 -20
3 -39 10 -42 14 -3 5 -99 9 -215 9 l-209 0 0 248 c0 136 -4 262 -10 281 -23
81 -115 115 -188 71z m-42 -990 c294 -47 502 -223 601 -509 11 -30 19 -65 19
-78 0 -12 4 -23 8 -23 5 0 7 -13 4 -30 -3 -18 0 -30 7 -30 7 0 11 -28 11 -80
0 -52 -4 -80 -11 -80 -7 0 -10 -12 -7 -30 3 -17 0 -30 -5 -30 -5 0 -7 -9 -4
-20 3 -11 2 -20 -2 -20 -4 0 -13 -21 -20 -47 -16 -61 -64 -157 -102 -205 -16
-20 -29 -41 -29 -45 0 -23 -139 -129 -250 -190 -119 -67 -300 -97 -435 -74
-72 13 -216 57 -225 69 -9 12 -89 62 -99 62 -19 0 -142 124 -179 179 -20 31
-40 58 -44 59 -5 2 -8 10 -8 18 0 8 -5 14 -11 14 -5 0 -7 5 -4 10 3 6 1 10 -5
10 -6 0 -8 5 -5 10 3 6 2 10 -4 10 -9 0 -42 95 -60 180 -14 59 -14 171 0 246
14 82 48 184 61 184 6 0 9 3 5 6 -3 3 -1 11 4 18 5 6 19 31 32 54 35 70 145
185 230 242 153 102 352 147 527 120z m-1440 -135 c0 -13 -83 -15 -685 -15
-602 0 -685 2 -685 15 0 13 83 15 685 15 602 0 685 -2 685 -15z m0 -190 c0
-13 -83 -15 -685 -15 -602 0 -685 2 -685 15 0 13 83 15 685 15 602 0 685 -2
685 -15z m0 -190 c0 -13 -83 -15 -685 -15 -602 0 -685 2 -685 15 0 13 83 15
685 15 602 0 685 -2 685 -15z m0 -190 c0 -13 -83 -15 -685 -15 -602 0 -685 2
-685 15 0 13 83 15 685 15 602 0 685 -2 685 -15z m0 -190 c0 -13 -83 -15 -685
-15 -602 0 -685 2 -685 15 0 13 83 15 685 15 602 0 685 -2 685 -15z m-1100
-630 l0 -85 -175 0 -175 0 0 85 0 85 175 0 175 0 0 -85z m440 0 l0 -85 -175 0
-175 0 0 85 0 85 175 0 175 0 0 -85z m440 0 l0 -85 -175 0 -175 0 0 85 0 85
175 0 175 0 0 -85z m440 0 l0 -85 -170 0 -170 0 0 85 0 85 170 0 170 0 0 -85z"/>
<path d="M3000 1849 c-30 -5 -86 -25 -125 -44 -70 -34 -209 -138 -199 -148 3
-2 -6 -14 -20 -25 -15 -11 -26 -24 -26 -30 0 -6 -4 -12 -8 -14 -9 -3 -53 -102
-73 -163 -8 -25 -14 -88 -14 -165 0 -103 4 -137 23 -194 24 -73 61 -146 74
-146 4 0 8 -4 8 -9 0 -19 149 -158 191 -178 139 -65 276 -85 416 -60 120 22
203 66 293 157 81 81 114 120 102 120 -4 0 1 7 10 14 25 19 66 150 73 237 4
41 2 109 -4 151 -12 84 -56 207 -77 215 -8 3 -14 11 -14 19 0 19 -115 139
-158 166 -21 12 -39 25 -42 30 -11 15 -102 49 -168 63 -74 16 -177 17 -262 4z
m248 -54 c104 -25 292 -132 292 -167 0 -6 11 -24 26 -40 34 -41 70 -115 85
-172 6 -25 14 -46 18 -46 4 0 5 -16 3 -35 -3 -21 0 -35 7 -35 6 0 11 -17 11
-40 0 -23 -5 -40 -11 -40 -7 0 -10 -14 -7 -35 2 -19 0 -35 -5 -35 -5 0 -7 -9
-4 -20 3 -11 2 -20 -3 -20 -4 0 -11 -11 -14 -25 -32 -126 -167 -277 -302 -336
-138 -61 -320 -58 -450 9 -168 86 -290 252 -316 431 -11 71 -10 94 5 166 19
94 51 175 67 175 6 0 8 5 5 10 -3 6 -1 10 4 10 6 0 11 7 11 15 0 8 9 20 20 27
11 7 20 18 20 25 0 12 84 86 132 116 30 18 122 52 183 66 61 14 153 12 223 -4z"/>
<path d="M3065 1582 c-6 -5 -28 -14 -50 -20 -37 -11 -161 -92 -139 -92 5 0 -3
-11 -18 -25 -36 -33 -53 -92 -53 -185 0 -73 20 -160 37 -160 4 0 8 -4 8 -10 0
-5 12 -22 26 -37 14 -15 33 -36 42 -46 43 -47 169 -83 250 -72 111 15 214 91
252 186 8 19 17 36 21 39 13 9 23 140 12 140 -6 0 -8 11 -5 25 2 14 0 25 -6
25 -5 0 -12 12 -15 28 -15 75 -109 164 -196 185 -28 6 -51 15 -51 19 0 11
-104 10 -115 0z"/>
</g>
</svg>
