<?xml version="1.0" standalone="no"?>
<!DOCTYPE svg PUBLIC "-//W3C//DTD SVG 20010904//EN"
 "http://www.w3.org/TR/2001/REC-SVG-20010904/DTD/svg10.dtd">
<svg version="1.0" xmlns="http://www.w3.org/2000/svg"
 width="934.000000pt" height="282.000000pt" viewBox="0 0 934.000000 282.000000"
 preserveAspectRatio="xMidYMid meet">
<metadata>
Created by potrace 1.16, written by Peter Selinger 2001-2019
</metadata>
<g transform="translate(0.000000,282.000000) scale(0.100000,-0.100000)"
fill="#ffffff" stroke="none">
<path d="M6948 2809 c-172 -25 -240 -104 -260 -301 -21 -218 24 -389 119 -444
50 -30 135 -53 203 -55 36 -1 30 -3 -30 -10 -198 -23 -268 -92 -290 -284 -12
-113 -13 -1268 0 -1388 23 -219 116 -289 390 -291 245 -2 335 40 392 181 l23
58 0 735 c0 848 3 816 -85 902 -54 52 -109 73 -222 86 l-63 8 75 7 c140 12
211 52 254 139 35 72 50 181 43 308 -13 227 -76 314 -254 345 -86 16 -206 17
-295 4z m293 -57 c4 -18 3 -34 -1 -37 -4 -3 -44 0 -87 6 -102 15 -218 4 -274
-24 -65 -33 -82 -77 -89 -217 -5 -124 -14 -140 -52 -90 -32 44 -38 204 -5 171
19 -19 26 -13 57 53 17 35 42 71 55 80 44 29 135 46 248 46 97 0 108 2 106 18
-2 29 0 34 18 30 10 -2 20 -16 24 -36z m105 -57 c29 -51 29 -48 16 -201 -12
-126 -35 -194 -85 -242 -56 -55 -102 -65 -292 -67 -160 -2 -171 -1 -193 19
-26 23 -54 71 -46 78 2 3 31 -5 64 -19 86 -34 163 -46 267 -40 123 7 177 31
202 89 27 62 35 169 21 297 -6 61 -9 115 -5 121 12 19 24 10 51 -35z m-119
-727 c6 -7 13 -24 16 -38 l6 -26 -167 1 c-149 0 -171 -2 -201 -20 -44 -26 -70
-62 -81 -111 -5 -21 -10 -341 -10 -711 0 -385 -4 -674 -9 -677 -20 -13 -54 31
-62 80 -12 76 -11 1271 1 1279 6 4 17 1 25 -5 12 -10 19 -2 40 46 14 33 36 69
48 82 31 33 116 54 236 58 58 1 112 3 120 3 8 1 11 7 7 17 -11 29 12 46 31 22z
m106 -66 c24 -27 49 -91 40 -105 -4 -7 -10 -322 -13 -702 l-5 -690 -23 -47
c-30 -60 -66 -96 -122 -122 -40 -19 -65 -21 -220 -23 -135 -1 -180 2 -197 13
-24 15 -58 72 -49 81 3 3 40 -8 83 -23 72 -27 89 -29 213 -29 167 0 201 13
240 90 l25 50 0 763 c0 419 3 762 6 762 3 0 13 -8 22 -18z"/>
<path d="M5610 2029 c-333 -39 -534 -189 -597 -446 -22 -93 -22 -283 1 -388
23 -103 81 -227 137 -289 26 -29 39 -51 32 -53 -60 -20 -133 -106 -196 -232
-38 -75 -42 -93 -46 -169 -4 -111 12 -165 64 -217 77 -76 288 -169 480 -211
109 -24 391 -24 527 -1 128 22 269 68 343 112 159 94 248 268 261 510 15 273
-80 492 -255 593 l-54 30 29 15 c103 54 204 250 204 396 -1 124 -56 192 -209
256 -220 92 -462 124 -721 94z m569 -70 c46 -14 111 -69 111 -94 0 -21 -15
-19 -101 11 -190 65 -369 86 -554 66 -129 -15 -204 -34 -290 -77 -169 -82
-245 -221 -245 -448 0 -113 -10 -121 -49 -44 -27 54 -37 125 -21 147 8 13 11
13 19 1 14 -22 29 -5 46 56 27 92 69 164 127 219 69 65 136 99 257 131 120 31
358 42 506 24 99 -13 123 -9 93 13 -38 28 0 26 101 -5z m213 -116 c35 -41 39
-59 18 -99 -10 -22 -35 -73 -55 -116 -89 -187 -201 -240 -353 -168 -93 44
-157 60 -238 60 -73 0 -123 -14 -125 -34 -3 -28 4 -51 19 -63 15 -11 13 -12
-15 -13 -54 0 -77 39 -52 93 16 36 54 50 153 55 104 5 168 -7 283 -54 109 -45
151 -45 202 1 21 19 55 67 75 105 34 65 47 120 56 248 0 8 19 -1 32 -15z
m-652 -463 c0 -5 -4 -12 -10 -15 -33 -21 16 -42 139 -60 53 -8 111 -15 130
-15 34 0 34 0 15 21 l-19 21 45 -7 c25 -3 68 -18 97 -31 52 -25 118 -88 108
-104 -3 -4 -56 9 -117 31 -62 21 -153 45 -203 54 -172 31 -231 46 -253 61 -30
21 -28 32 11 47 32 14 57 12 57 -3z m653 -247 c51 -71 87 -149 94 -201 7 -67
-14 -260 -38 -339 -38 -124 -108 -223 -200 -283 -122 -79 -350 -130 -581 -130
-155 0 -266 19 -422 71 -67 23 -137 46 -156 53 -39 13 -113 81 -107 99 7 20
46 8 157 -48 197 -98 347 -135 554 -135 282 0 508 68 611 182 86 95 120 205
119 378 0 129 -11 189 -54 297 -46 115 -37 138 23 56z m-1219 -41 c123 -118
301 -199 514 -237 97 -17 150 -30 171 -44 12 -8 13 -14 3 -36 -10 -23 -17 -26
-50 -23 -29 2 -37 7 -37 23 0 17 -11 22 -65 32 -137 24 -173 26 -167 9 8 -21
-94 18 -214 80 -98 52 -160 110 -213 198 -61 102 -50 101 58 -2z m257 -307
c27 -45 46 -55 103 -55 65 0 99 -18 91 -47 -5 -20 0 -26 29 -38 41 -17 150
-20 193 -5 17 6 36 23 42 38 11 22 10 28 -5 39 -17 12 -16 13 3 13 29 0 36
-14 28 -51 -11 -48 -56 -62 -185 -57 l-105 4 -130 68 c-117 62 -138 69 -202
73 -58 5 -78 2 -98 -11 -39 -26 -124 -162 -142 -229 -19 -66 -32 -77 -68 -53
-32 21 -32 40 -1 34 14 -3 28 -2 33 1 4 3 28 45 51 93 70 139 128 187 227 188
17 0 39 7 49 15 34 26 65 19 87 -20z m1044 -232 c-63 -217 -212 -333 -499
-388 -103 -20 -332 -29 -411 -17 -54 9 -46 10 80 11 224 2 407 37 553 107 103
50 177 126 236 244 25 51 46 99 47 109 0 10 3 11 6 4 2 -7 -3 -39 -12 -70z"/>
<path d="M8475 2024 c-253 -25 -476 -133 -653 -318 -174 -181 -254 -395 -253
-681 0 -422 184 -720 556 -901 156 -76 236 -95 425 -101 251 -8 404 31 581
150 161 107 216 203 207 353 -7 102 -47 181 -148 287 -104 110 -158 139 -266
145 -95 5 -132 -5 -225 -60 -84 -49 -119 -59 -164 -47 -42 12 -100 60 -121
100 -7 15 -14 48 -14 72 0 54 28 99 89 142 64 45 117 42 199 -12 85 -56 151
-77 242 -77 99 -1 167 31 244 115 195 210 221 473 61 604 -125 103 -278 175
-444 210 -72 15 -248 26 -316 19z m400 -71 c30 -14 93 -88 83 -98 -2 -2 -53
11 -113 30 -268 81 -483 65 -707 -53 -172 -90 -292 -207 -374 -364 -65 -127
-85 -213 -91 -395 -3 -84 -9 -153 -12 -153 -4 0 -19 25 -34 55 -31 65 -44 148
-28 189 11 27 13 28 25 11 16 -23 19 -18 47 85 78 293 236 482 504 606 150 69
329 96 518 77 48 -5 90 -7 92 -4 3 2 -3 13 -12 24 -18 20 -17 20 24 13 24 -3
58 -14 78 -23z m303 -190 c45 -65 53 -89 37 -120 -7 -15 -34 -71 -59 -123 -79
-168 -195 -270 -308 -270 -84 0 -150 20 -184 55 -45 48 -85 65 -151 65 -180
-1 -316 -188 -238 -329 8 -14 21 -42 29 -61 9 -19 23 -45 32 -58 16 -21 15
-22 -4 -22 -28 0 -92 57 -108 97 -23 54 -18 170 10 229 50 108 156 176 286
182 69 3 80 1 130 -27 153 -85 210 -103 272 -82 71 23 184 166 214 269 12 41
14 75 9 138 -7 91 0 103 33 57z m27 -244 c-22 -64 -102 -185 -156 -234 -56
-50 -119 -77 -172 -73 -44 4 -40 7 30 28 89 27 200 140 271 277 41 80 53 81
27 2z m-6 -841 l30 -60 -39 -77 c-21 -43 -51 -92 -65 -110 -67 -78 -237 -174
-380 -212 -96 -26 -334 -32 -426 -11 -66 15 -218 63 -273 87 -41 17 -129 79
-185 130 -68 62 -198 259 -189 287 2 6 30 -21 62 -61 143 -179 294 -291 487
-362 257 -95 523 -74 741 58 203 122 238 252 120 437 -18 28 -32 57 -32 65 1
27 118 -107 149 -171z m7 -203 c-31 -81 -161 -189 -303 -251 -117 -52 -322
-82 -448 -66 -56 7 -51 8 70 14 157 8 258 32 380 92 121 58 207 124 263 201
25 35 48 62 51 60 2 -3 -4 -25 -13 -50z"/>
<path d="M274 2000 c-164 -23 -246 -112 -265 -289 -11 -113 -11 -1270 1 -1384
23 -219 116 -289 390 -291 193 -1 287 26 349 101 63 77 64 86 70 548 5 379 8
423 24 453 36 67 94 64 125 -6 15 -32 18 -95 22 -452 5 -399 6 -417 28 -471
42 -106 118 -152 280 -171 77 -9 122 -9 198 1 181 22 254 77 294 221 9 31 15
175 19 462 l6 418 27 27 c38 37 75 25 106 -37 22 -43 22 -51 22 -410 0 -201 4
-391 10 -423 20 -126 84 -210 179 -237 81 -24 219 -34 315 -23 214 25 290 105
307 322 11 146 11 572 -1 771 -14 241 -45 382 -115 520 -79 158 -240 288 -415
336 -93 26 -314 26 -390 0 -71 -24 -165 -75 -229 -126 -28 -22 -53 -40 -56
-40 -4 0 -31 20 -61 45 -123 99 -248 140 -439 140 -145 0 -204 -14 -287 -66
l-46 -30 -44 30 c-23 17 -69 37 -102 46 -73 18 -242 27 -322 15z m279 -53 c14
-44 1 -49 -99 -37 -128 16 -235 0 -282 -44 -59 -53 -57 -19 -60 -776 -1 -388
-7 -699 -12 -704 -5 -5 -19 2 -33 16 -36 36 -38 88 -35 758 l3 585 26 -3 c23
-2 28 4 44 43 41 109 93 135 278 143 127 5 127 5 127 29 0 34 30 27 43 -10z
m741 -29 c11 -20 18 -39 15 -42 -3 -3 -37 4 -75 15 -50 15 -100 21 -179 23
-100 1 -115 -1 -168 -26 -32 -15 -77 -43 -101 -63 -51 -41 -101 -54 -131 -32
-17 13 -18 18 -5 43 l13 29 7 -30 c5 -27 9 -30 39 -28 20 1 48 13 72 33 22 17
65 43 97 58 51 24 71 27 190 30 124 4 133 5 129 23 -12 46 66 20 97 -33z m973
1 c14 -22 24 -42 21 -45 -3 -2 -39 5 -79 16 -220 62 -384 22 -560 -135 -64
-58 -111 -75 -148 -56 -24 13 -27 38 -6 64 13 18 14 16 17 -15 5 -51 42 -50
104 2 80 66 182 131 242 153 44 16 87 22 189 25 125 4 132 5 123 22 -7 13 -6
20 3 23 25 8 69 -17 94 -54z m224 -147 c56 -69 99 -153 130 -252 23 -74 23
-80 24 -580 0 -469 -1 -509 -19 -559 -23 -68 -85 -131 -146 -151 -52 -17 -363
-24 -393 -8 -17 9 -57 65 -57 81 0 13 22 8 89 -20 61 -26 76 -28 206 -28 153
0 182 8 224 61 40 51 43 86 38 578 -3 430 -6 479 -24 561 -24 104 -64 218
-102 290 -38 74 -42 85 -28 85 7 0 33 -26 58 -58z m-1555 -388 c41 -19 74 -70
74 -113 0 -17 -3 -31 -6 -31 -8 0 -74 72 -74 81 0 16 -59 39 -98 39 -51 0
-101 -34 -127 -85 -19 -38 -20 -66 -25 -460 l-5 -420 -30 -54 c-36 -65 -93
-105 -172 -121 -74 -16 -331 -11 -360 7 -24 14 -58 71 -49 80 3 3 38 -7 78
-22 60 -23 94 -29 189 -33 173 -7 245 19 281 103 9 22 14 138 18 445 5 406 5
416 28 465 13 27 33 61 45 74 52 56 163 78 233 45z m979 2 c19 -8 44 -30 55
-48 21 -34 27 -98 10 -98 -5 0 -10 3 -10 8 0 4 -22 31 -49 60 -45 49 -50 52
-98 52 -62 0 -110 -29 -136 -83 -17 -35 -19 -71 -21 -445 -1 -363 -3 -412 -19
-451 -27 -70 -65 -111 -126 -140 -53 -25 -64 -26 -231 -27 -165 -1 -176 0
-198 20 -31 27 -57 76 -41 76 6 0 44 -12 83 -26 55 -21 95 -28 182 -32 179 -7
256 27 284 126 6 22 10 177 10 382 0 190 5 378 10 418 19 146 90 222 207 222
29 0 69 -6 88 -14z m-835 -232 c6 -15 10 -179 10 -395 0 -393 -1 -398 -46
-348 -18 20 -19 43 -22 353 -2 286 -1 337 13 374 19 48 31 53 45 16z m984 4
c3 -13 6 -191 6 -396 0 -350 -1 -373 -17 -370 -10 2 -26 19 -36 38 -16 32 -17
65 -15 365 3 297 5 334 21 358 21 33 33 34 41 5z"/>
<path d="M3145 2000 c-163 -30 -227 -109 -247 -304 -15 -154 -4 -811 16 -906
67 -317 240 -553 491 -670 110 -52 190 -70 330 -77 140 -6 224 9 323 59 56 28
64 30 80 16 66 -59 174 -82 359 -76 203 7 275 41 333 157 36 72 42 217 38 915
-4 564 -6 647 -21 692 -51 154 -140 199 -392 199 -224 0 -303 -32 -360 -145
-38 -76 -45 -153 -45 -523 0 -386 -1 -395 -64 -441 -50 -38 -102 -50 -147 -37
-53 16 -106 65 -119 109 -6 22 -10 181 -10 387 0 374 -8 452 -51 521 -54 88
-150 125 -334 130 -71 2 -153 -1 -180 -6z m307 -55 c4 -16 4 -33 -1 -38 -4 -4
-39 -3 -76 4 -164 28 -311 -8 -350 -86 -19 -38 -20 -63 -23 -482 -1 -244 -6
-443 -11 -443 -14 0 -51 94 -61 155 -11 65 -14 663 -4 689 5 13 9 14 20 5 18
-15 23 -10 59 64 26 53 37 65 80 87 43 21 68 25 185 30 134 5 135 5 132 28 -5
38 39 26 50 -13z m1161 3 c3 -18 2 -36 -2 -40 -4 -4 -34 -3 -66 2 -128 21
-283 3 -328 -38 -51 -46 -52 -50 -57 -477 -5 -390 -6 -401 -28 -449 -36 -79
-67 -112 -137 -147 -57 -28 -76 -32 -148 -32 -123 -1 -211 50 -142 81 39 18
47 15 43 -15 -5 -41 30 -55 122 -50 87 4 136 26 192 84 20 21 44 55 53 75 26
63 17 171 -11 127 -4 -8 -9 -7 -15 2 -10 16 -12 672 -2 682 3 4 12 2 20 -5 17
-14 20 -11 57 65 27 53 38 66 81 87 43 21 68 25 185 30 132 5 135 5 134 28 0
16 5 22 22 22 17 0 23 -7 27 -32z m-1044 -82 c18 -38 19 -51 10 -115 -6 -39
-9 -207 -7 -374 3 -284 4 -305 24 -347 12 -25 25 -55 28 -67 4 -11 13 -27 21
-33 22 -18 18 -30 -8 -30 -32 0 -85 58 -101 111 -10 33 -14 152 -16 474 -2
237 -2 434 -1 439 2 16 29 -15 50 -58z m1148 17 c13 -22 22 -51 22 -64 -1 -13
-4 -334 -8 -714 l-6 -690 -28 -58 c-31 -63 -70 -98 -138 -124 -35 -13 -79 -17
-213 -17 l-169 -1 -29 30 c-15 16 -31 39 -34 50 -15 45 -62 47 -124 5 -104
-69 -234 -97 -374 -80 -117 14 -271 55 -317 85 -53 34 -163 147 -207 213 -49
72 -95 162 -83 162 5 0 29 -24 52 -52 132 -161 218 -237 332 -294 95 -48 203
-75 312 -77 118 -2 177 14 271 74 105 66 133 65 182 -8 28 -40 92 -62 203 -70
172 -12 275 29 299 118 7 26 11 289 10 787 -1 411 -1 753 0 760 0 24 24 6 47
-35z"/>
</g>
</svg>
