<?xml version="1.0" standalone="no"?>
<!DOCTYPE svg PUBLIC "-//W3C//DTD SVG 20010904//EN"
 "http://www.w3.org/TR/2001/REC-SVG-20010904/DTD/svg10.dtd">
<svg version="1.0" xmlns="http://www.w3.org/2000/svg"
 width="2112.000000pt" height="1728.000000pt" viewBox="0 0 2112.000000 1728.000000"
 preserveAspectRatio="xMidYMid meet">
<metadata>
Created by potrace 1.16, written by Peter Selinger 2001-2019
</metadata>
<g transform="translate(0.000000,1728.000000) scale(0.100000,-0.100000)"
fill="#000000" stroke="none">
<path d="M0 8640 l0 -8640 10560 0 10560 0 0 8640 0 8640 -10560 0 -10560 0 0
-8640z m10975 8565 c93 -7 106 -8 365 -35 470 -50 1012 -146 1475 -261 186
-46 486 -131 481 -136 -2 -2 -71 14 -152 36 -589 159 -1279 276 -1967 336
-170 15 -190 14 -400 -5 -1266 -117 -2366 -391 -3354 -836 -464 -209 -1130
-565 -1117 -598 6 -16 -73 -69 -92 -62 -19 7 -94 -42 -88 -58 6 -16 -81 -77
-93 -65 -11 11 -163 -96 -373 -261 -78 -62 -116 -98 -110 -104 15 -15 13 -20
-30 -55 -32 -25 -44 -30 -55 -21 -20 16 -89 -45 -76 -68 7 -12 -1 -25 -32 -53
-36 -31 -43 -34 -53 -21 -9 12 -36 -9 -160 -125 -336 -316 -716 -755 -978
-1133 l-38 -55 38 45 c56 64 202 227 248 275 21 22 -2 -14 -51 -80 -49 -66
-116 -158 -148 -205 -32 -47 -108 -154 -167 -237 -529 -743 -932 -1681 -1233
-2868 -57 -223 -165 -710 -165 -740 0 -3 9 -5 21 -5 17 0 20 -5 15 -27 -7 -34
-26 -155 -26 -165 0 -5 -7 -8 -16 -8 -13 0 -14 -12 -9 -82 3 -49 0 -120 -8
-173 l-13 -90 -8 70 c-4 39 -11 86 -16 105 l-8 35 -2 -30 c-1 -16 -3 -39 -5
-50 -13 -63 -36 -432 -32 -500 l4 -80 -39 -47 c-43 -52 -58 -59 -58 -28 0 29
-9 25 -49 -22 -24 -28 -35 -49 -33 -67 2 -20 -8 -37 -43 -71 -32 -31 -45 -39
-45 -27 0 9 -3 17 -6 17 -13 0 -135 -115 -164 -157 -47 -64 -93 -164 -129
-277 -41 -128 -46 -165 -32 -268 9 -70 9 -108 -4 -204 -8 -66 -18 -171 -23
-234 l-7 -115 -20 115 -20 115 -8 -130 c-13 -206 -3 -378 31 -555 17 -85 33
-193 37 -240 23 -295 84 -718 156 -1070 58 -285 56 -284 -20 15 -38 149 -70
264 -70 256 -1 -20 73 -374 124 -594 50 -212 149 -580 225 -833 73 -244 251
-786 257 -781 2 3 -12 56 -31 119 -61 195 -39 144 53 -122 189 -546 315 -863
525 -1325 102 -222 145 -304 271 -515 371 -618 716 -980 1143 -1197 116 -59
107 -61 -33 -6 -385 151 -737 460 -1088 954 -11 16 -6 -6 14 -61 87 -245 84
-240 188 -356 328 -366 695 -575 1126 -638 55 -8 127 -21 160 -30 104 -26 268
-46 386 -46 66 0 108 -4 99 -9 -33 -18 -245 -36 -425 -35 -197 0 -299 13 -455
55 -71 19 -101 20 -587 19 l-513 -1 0 56 0 55 377 0 378 0 -105 63 c-167 99
-387 277 -487 394 l-45 53 -324 0 -325 0 3 52 3 53 268 3 c147 1 267 4 267 7
0 3 -35 51 -79 108 -43 57 -106 145 -140 195 l-62 92 -629 0 -630 0 0 50 0 50
595 0 c327 0 595 4 595 8 0 4 -30 60 -66 123 -36 62 -106 196 -157 296 l-92
183 -397 0 -398 0 0 55 0 55 371 0 c349 0 371 1 366 18 -3 9 -36 88 -74 174
l-68 158 -227 0 -228 0 0 55 0 55 200 0 c165 0 200 2 200 14 0 8 -24 76 -54
153 -29 76 -77 206 -106 288 -30 83 -58 156 -63 163 -7 9 -69 12 -248 12
l-239 0 0 55 0 55 224 0 224 0 -58 177 c-33 98 -82 251 -110 340 l-51 163
-172 2 -172 3 -3 53 -3 52 155 0 c111 0 156 3 156 12 0 9 -54 211 -109 403
l-17 60 -107 3 -107 3 0 54 0 54 93 3 92 3 -39 163 -39 162 -269 0 -269 0 3
52 3 53 253 3 c182 2 252 6 252 14 0 14 -57 310 -68 353 l-8 30 -327 3 -327 2
0 55 0 55 319 0 320 0 -5 32 c-3 18 -11 69 -18 113 l-12 80 -172 3 -172 2 0
55 0 55 166 0 166 0 -6 38 c-6 34 -36 334 -36 353 0 5 -31 9 -70 9 l-70 0 0
55 0 55 65 0 65 0 0 73 c0 39 -3 123 -7 184 l-6 113 -294 0 -293 0 0 55 0 55
295 0 c228 0 297 3 299 13 3 6 7 72 11 145 l6 132 -501 0 -500 0 0 55 0 55
508 0 507 0 19 123 c10 67 34 175 52 240 29 100 47 151 101 285 4 9 -32 12
-161 12 l-166 0 0 55 0 55 203 0 204 0 149 153 c175 178 244 258 244 281 0 15
-45 16 -525 16 l-525 0 0 55 0 55 528 0 529 0 11 143 c7 78 15 166 18 195 l7
52 -97 0 -96 0 0 50 0 49 102 3 102 3 21 142 21 143 -231 2 -230 3 -3 52 -3
53 242 2 243 3 37 190 c21 105 38 198 38 208 1 16 -20 17 -299 17 l-300 0 0
55 0 55 315 0 315 0 6 28 c57 246 161 618 248 886 l34 106 -669 0 -669 0 0 55
0 55 689 0 688 0 33 88 c133 356 306 751 468 1065 2 4 -215 7 -482 7 l-486 0
0 55 0 55 499 0 500 0 3 -22 c2 -17 19 6 67 92 35 63 97 171 138 238 40 68 73
128 73 133 0 5 -136 9 -320 9 l-320 0 0 55 0 55 339 0 340 0 3 -26 c2 -22 22
1 119 147 250 373 509 699 811 1022 l120 127 -496 0 -496 0 0 55 0 55 553 0
554 0 24 26 c42 46 330 304 432 388 l100 81 -242 3 -241 2 0 55 0 55 315 0
314 0 123 91 c337 250 720 481 1233 745 967 496 2055 822 3265 978 219 29 448
53 590 62 52 4 97 8 98 9 2 2 22 2 45 0 23 -2 78 -6 122 -10z m220 -175 c497
-41 995 -118 1410 -220 878 -215 1687 -539 2418 -967 70 -41 127 -77 127 -80
0 -3 -17 5 -37 17 -649 387 -1457 691 -2238 844 -606 118 -1074 163 -1790 173
-572 7 -1052 -17 -1515 -77 -204 -27 -482 -72 -476 -77 2 -3 54 3 116 12 61 9
116 15 123 12 6 -2 -22 -9 -63 -16 -377 -62 -1173 -282 -1618 -447 -358 -133
-677 -286 -962 -459 -216 -131 -199 -122 -210 -105 -5 8 -10 17 -10 20 1 17
443 267 700 395 672 337 1216 521 1935 654 746 139 1641 182 2500 120 192 -13
493 -46 649 -69 71 -11 131 -18 133 -17 4 5 -250 58 -440 93 -486 90 -1189
171 -1392 160 l-100 -5 115 15 c160 19 418 41 460 37 19 -1 94 -7 165 -13z
m370 -314 c1047 -105 1840 -315 2677 -710 228 -107 608 -321 796 -448 l72 -49
30 48 c17 26 29 52 27 57 -8 25 -418 261 -680 392 -159 80 -402 191 -534 245
-46 18 -81 34 -79 36 6 6 216 -73 396 -149 338 -142 726 -346 1037 -545 120
-77 131 -86 120 -104 -14 -22 -28 -24 -46 -6 -13 13 -31 -5 -66 -69 -18 -33
-18 -35 0 -48 17 -12 18 -17 7 -41 -12 -27 -13 -27 -33 -9 -26 23 -7 47 -197
-253 -81 -128 -150 -232 -154 -233 -7 0 -168 96 -180 108 -4 4 66 123 157 265
l164 257 -87 58 c-600 402 -1359 731 -2138 926 -875 220 -1903 300 -2954 230
-52 -4 -93 -4 -90 -1 6 7 418 45 615 56 235 14 951 6 1140 -13z m2487 -315
c338 -129 722 -304 1023 -468 224 -122 455 -263 455 -279 0 -21 -27 -29 -46
-13 -13 11 -17 11 -24 -1 -31 -54 -32 -55 -88 -20 -46 28 -50 33 -37 47 45 45
45 45 -133 151 -409 244 -766 419 -1232 604 -70 28 -91 38 -77 38 3 0 75 -26
159 -59z m-2992 -361 c434 -40 750 -87 1161 -170 274 -56 777 -185 766 -197
-2 -2 -82 17 -178 42 -482 124 -1003 213 -1560 265 -248 24 -277 23 -648 -16
-1000 -105 -1893 -335 -2699 -695 -225 -101 -649 -311 -771 -382 -62 -37 -117
-67 -121 -67 -4 0 -14 10 -22 23 -8 12 -22 34 -32 49 l-17 26 93 53 c175 99
633 325 813 402 690 292 1398 485 2205 602 202 29 490 61 635 71 55 4 102 8
104 10 8 7 52 4 271 -16z m270 -181 c258 -25 580 -71 774 -110 535 -107 1176
-316 1686 -548 246 -113 662 -335 812 -435 l27 -17 16 31 c9 18 13 36 8 40 -4
4 -69 42 -143 84 -258 147 -595 310 -882 426 -59 24 -106 45 -104 48 6 5 364
-138 528 -211 1397 -627 2502 -1654 3180 -2957 339 -652 591 -1414 707 -2140
24 -152 28 -165 48 -168 19 -3 22 -11 28 -70 3 -37 8 -88 11 -114 6 -47 5 -48
-21 -48 l-28 0 6 -132 c12 -256 67 -423 237 -709 74 -125 132 -201 237 -310
68 -70 92 -105 133 -188 27 -55 45 -101 41 -101 -23 0 -121 44 -121 54 0 6
-16 45 -35 85 -25 52 -51 88 -92 124 -134 124 -213 209 -271 296 -156 232
-235 475 -249 759 -3 70 -7 128 -8 130 -1 2 -20 6 -40 9 l-38 6 6 -184 c4
-101 13 -218 22 -259 36 -177 121 -373 226 -519 33 -46 58 -85 56 -87 -6 -7
-161 48 -178 63 -25 21 -124 218 -157 313 -16 47 -37 121 -47 165 -9 44 -19
88 -22 98 -4 16 -34 17 -454 17 l-449 0 0 55 0 55 445 0 445 0 0 123 c0 110
-11 248 -25 335 l-6 32 -759 0 -760 0 0 55 0 55 750 0 c659 0 750 2 750 15 0
57 -111 552 -118 523 -3 -17 -29 -18 -363 -18 l-359 0 0 55 0 55 350 0 c290 0
350 2 350 14 0 16 -49 186 -91 314 l-31 92 -289 0 -289 0 0 55 0 55 271 0
c254 0 271 1 264 18 -3 9 -27 71 -52 137 -25 66 -52 132 -60 148 l-14 27 -369
0 -370 0 0 55 0 55 349 2 349 3 -72 155 -71 155 -748 3 -747 2 0 55 0 55 715
0 c393 0 715 2 715 5 0 20 -161 307 -272 488 l-79 127 -145 0 -144 0 0 55 0
55 105 0 c124 0 124 -16 4 151 -110 154 -240 318 -372 472 l-110 127 -598 0
-599 0 0 55 0 55 547 0 548 0 -95 96 c-133 133 -331 313 -490 443 l-135 111
-532 0 -533 0 0 55 0 55 456 2 456 3 -139 96 c-76 53 -139 93 -141 88 -2 -5
-111 -9 -243 -9 l-239 0 0 55 0 55 162 0 c139 0 160 2 148 14 -29 28 -245 146
-248 136 -3 -7 -172 -10 -493 -10 l-489 0 0 55 0 55 403 2 402 3 -105 54
c-550 282 -1257 523 -1970 669 -509 105 -1185 190 -1435 179 l-120 -5 107 14
c202 26 413 42 493 38 44 -3 172 -14 285 -25z m-4907 -338 l17 -30 -46 -32
c-37 -25 -48 -29 -55 -18 -31 55 -34 55 -78 25 l-41 -29 22 -35 22 -35 -30
-24 c-55 -46 -60 -46 -83 -7 l-21 35 -44 -31 c-24 -18 -111 -85 -192 -151 -82
-65 -151 -119 -154 -119 -3 0 -11 9 -18 21 -11 17 -11 23 1 32 209 165 303
237 457 346 l185 131 20 -25 c11 -14 28 -38 38 -54z m9362 -24 c233 -162 505
-371 505 -390 0 -6 -7 -19 -17 -29 -15 -17 -18 -17 -34 -2 -16 15 -20 14 -46
-16 l-28 -31 -43 36 -43 37 25 33 25 32 -107 85 c-128 101 -241 186 -337 253
-38 26 -71 49 -73 51 -2 1 1 12 8 23 13 25 0 32 165 -82z m-9095 -397 c118
-186 215 -341 215 -343 0 -3 -65 -48 -145 -102 -80 -53 -208 -144 -285 -202
-77 -58 -145 -107 -151 -110 -13 -5 -97 104 -90 116 3 4 78 59 166 121 154
107 160 113 147 134 -127 196 -327 516 -331 527 -3 8 11 26 38 46 l43 31 178
-279 c97 -153 182 -279 187 -279 20 0 79 43 75 54 -4 9 -191 306 -320 508
l-37 57 42 30 c23 17 44 31 47 31 4 0 103 -153 221 -340z m9030 207 c142 -105
419 -326 438 -350 9 -11 7 -19 -12 -36 -15 -14 -26 -19 -31 -12 -13 22 -33 10
-73 -41 -37 -48 -39 -54 -26 -70 12 -13 13 -21 4 -37 -13 -25 -18 -26 -40 -6
-14 13 -32 -6 -185 -200 -146 -185 -171 -212 -185 -202 -43 32 -140 110 -140
115 0 2 77 102 171 221 l170 216 -28 23 c-15 13 -107 87 -203 164 -96 78 -174
146 -172 152 11 34 25 36 61 9 30 -22 246 -195 351 -280 l28 -23 41 54 c23 29
41 55 41 59 0 6 -187 156 -322 257 -54 40 -98 74 -98 77 0 2 5 13 11 24 13 25
7 28 199 -114z m-2930 -52 l0 -55 -355 0 -355 0 0 55 0 55 355 0 355 0 0 -55z
m3835 -431 c609 -563 1139 -1247 1532 -1979 465 -864 826 -1942 987 -2942 l23
-143 -49 0 c-26 0 -48 1 -48 3 0 1 -25 126 -56 277 -259 1282 -709 2470 -1237
3265 -179 270 -520 719 -733 966 -168 195 -437 474 -592 613 l-111 100 21 28
20 28 61 -52 c34 -29 115 -103 182 -164z m-10955 151 l43 -56 -34 -29 c-19
-16 -37 -29 -40 -30 -3 0 -17 16 -31 35 l-25 35 -38 -33 -39 -34 29 -37 28
-37 -33 -34 c-19 -19 -38 -35 -44 -35 -5 0 -22 15 -36 32 l-27 33 -89 -82
c-133 -121 -528 -525 -703 -718 -225 -249 -230 -249 -32 0 178 222 351 416
551 615 184 184 452 430 469 430 5 0 28 -25 51 -55z m106 -133 c11 -15 114
-146 229 -292 114 -146 212 -270 216 -276 6 -7 -34 -48 -114 -116 -248 -213
-518 -488 -748 -764 -791 -946 -1353 -2211 -1525 -3431 -16 -113 -19 -123 -38
-123 -12 0 -194 -16 -406 -35 -212 -19 -387 -35 -390 -35 -5 0 -1 69 4 70 10
3 112 13 295 30 124 11 226 21 227 23 1 1 12 59 23 129 80 491 240 1042 456
1563 90 220 323 685 444 888 240 402 486 739 792 1082 119 134 480 491 582
575 36 30 66 57 66 60 1 3 -83 110 -184 239 l-185 235 37 38 c20 21 40 37 44
36 4 -2 88 -106 188 -233 100 -126 185 -231 190 -233 5 -2 24 10 42 26 25 23
31 33 23 43 -6 8 -86 111 -179 229 -92 118 -173 221 -179 229 -8 10 -3 20 22
42 18 16 36 29 40 28 4 0 16 -12 28 -27z m10583 -59 c138 -125 576 -559 695
-688 99 -108 343 -421 483 -620 387 -550 822 -1477 1086 -2316 115 -364 243
-881 298 -1204 22 -127 25 -134 48 -137 23 -3 51 -32 40 -42 -5 -5 -777 58
-847 70 -30 5 -52 27 -39 40 3 3 109 -4 235 -15 289 -26 274 -26 267 2 -2 12
-23 110 -46 217 -237 1123 -624 2174 -1077 2930 -263 440 -515 744 -1108 1338
-272 273 -302 306 -291 323 6 10 15 19 19 19 14 0 449 -434 628 -625 440 -471
620 -706 859 -1125 435 -760 815 -1823 1035 -2900 l42 -205 68 -9 c37 -5 69
-6 72 -3 3 3 -17 117 -45 255 -297 1478 -894 2799 -1746 3862 -198 248 -283
341 -561 617 -140 139 -254 256 -254 260 0 8 31 43 38 43 3 0 48 -39 101 -87z
m-122 -327 c479 -462 884 -985 1141 -1477 230 -438 364 -910 361 -1274 -1
-162 -7 -166 -58 -33 -139 359 -358 787 -571 1118 -343 532 -785 1037 -1189
1360 -60 48 -90 78 -86 87 8 21 249 352 256 353 4 0 69 -60 146 -134z m-10605
-75 c65 -77 119 -143 120 -148 2 -5 -26 -34 -62 -63 -338 -279 -707 -703
-1036 -1189 -213 -316 -349 -549 -542 -931 l-134 -265 6 145 c24 639 333 1338
866 1960 163 190 619 629 655 630 6 0 63 -63 127 -139z m-1942 -206 l0 -55
-260 0 -260 0 0 55 0 55 260 0 260 0 0 -55z m7178 -441 c185 -41 306 -167 347
-359 22 -104 22 -1766 0 -1870 -31 -147 -113 -262 -227 -317 -90 -44 -174 -59
-333 -59 -159 0 -269 18 -352 57 -58 28 -141 98 -162 138 -12 22 -21 26 -58
26 l-43 0 0 60 c0 49 3 60 16 60 13 0 15 7 10 33 -3 17 -9 114 -12 215 l-7
182 -98 0 -99 0 0 60 0 60 100 0 100 0 0 330 0 330 -40 0 -40 0 0 60 0 60 39
0 39 0 5 273 c3 149 9 284 12 300 l7 27 -71 0 -71 0 0 60 0 60 94 0 94 0 21
34 c70 113 209 182 391 195 118 8 263 2 338 -15z m-2960 -24 l42 0 0 -1275 0
-1275 -189 0 c-103 0 -216 3 -250 6 l-61 7 0 158 0 159 -65 0 -65 0 0 60 0 60
65 0 65 0 0 180 0 180 -120 0 -120 0 0 60 0 60 120 0 120 0 0 285 0 285 -60 0
-60 0 0 60 0 60 60 0 60 0 0 260 0 260 -80 0 -80 0 0 60 0 60 80 0 80 0 0 144
0 145 43 3 c23 2 116 2 207 1 91 -2 184 -3 208 -3z m1329 0 l123 0 0 -1070 0
-1070 285 0 285 0 0 -205 0 -205 -479 0 c-263 0 -506 3 -540 6 l-61 7 0 253 0
254 -65 0 -65 0 0 60 0 60 65 0 65 0 0 180 0 180 -120 0 -120 0 0 60 0 60 120
0 120 0 0 155 0 154 -97 3 -98 3 -3 58 -3 57 101 0 100 0 0 70 0 70 -60 0 -60
0 0 60 0 60 60 0 60 0 0 100 0 100 -120 0 -120 0 0 60 0 60 120 0 120 0 0 100
0 100 -80 0 -80 0 0 60 0 60 80 0 80 0 0 49 0 50 43 4 c23 3 82 3 131 1 49 -2
145 -4 213 -4z m2622 -7 c4 -3 218 -1872 221 -1928 3 -41 10 5 34 225 l26 225
-20 169 -19 169 65 570 c35 314 67 573 70 576 6 6 496 3 501 -3 9 -9 -143
-1075 -247 -1736 -66 -421 -122 -776 -125 -788 l-6 -24 -309 4 c-169 1 -311 6
-314 9 -8 7 -249 1534 -287 1814 -16 121 -40 306 -54 410 -14 105 -28 218 -33
252 l-9 62 41 3 c50 5 459 -3 465 -9z m2049 7 l42 0 0 -205 0 -205 -285 0
-285 0 0 -330 0 -330 245 0 245 0 0 -205 0 -205 -245 0 -245 0 0 -331 0 -330
63 1 c34 1 162 1 285 1 l222 -1 0 -205 0 -205 -472 0 c-260 0 -503 3 -540 7
l-68 6 0 1268 0 1268 43 3 c23 2 247 2 497 0 250 -1 474 -2 498 -2z m2092
-685 l0 -55 -335 0 -335 0 0 55 0 55 335 0 335 0 0 -55z m-1230 -255 c0 -15 7
-20 25 -20 22 0 25 -4 25 -35 0 -31 -3 -35 -25 -35 -20 0 -25 -5 -25 -25 0
-22 -4 -25 -35 -25 -31 0 -35 3 -35 25 0 20 -5 25 -26 25 -23 0 -25 3 -22 33
2 24 8 33 26 35 14 2 22 10 22 23 0 15 7 19 35 19 28 0 35 -4 35 -20z m-12540
-385 l0 -55 -155 0 -155 0 0 55 0 55 155 0 155 0 0 -55z m13900 0 l0 -55 -320
0 -320 0 0 55 0 55 320 0 320 0 0 -55z m-12800 -668 c-170 -471 -343 -1099
-454 -1648 -25 -125 -46 -230 -46 -234 0 -4 27 -5 61 -1 l61 6 -7 -33 c-4 -17
-10 -35 -14 -38 -3 -4 -34 -9 -68 -12 -77 -6 -75 -24 -28 235 106 577 269
1164 468 1689 72 188 69 180 73 176 2 -2 -18 -65 -46 -140z m3500 38 c10 -12
10 -18 0 -30 -11 -13 -36 -15 -138 -13 -107 3 -126 6 -136 21 -18 29 10 37
140 37 96 0 124 -3 134 -15z m9430 -820 l0 -55 -225 0 -225 0 0 55 0 55 225 0
225 0 0 -55z m-4728 -333 c170 -49 273 -160 319 -342 10 -39 14 -125 14 -300
l0 -245 -170 -3 c-93 -2 -207 0 -252 3 l-83 7 0 206 c0 160 -3 213 -14 234
-13 25 -13 29 2 37 16 9 16 10 -1 17 -34 13 -91 -4 -119 -35 -33 -37 -42 -100
-36 -259 4 -97 8 -125 28 -162 33 -64 157 -188 287 -286 189 -143 286 -266
335 -424 22 -71 23 -90 23 -350 0 -235 -3 -286 -19 -347 -19 -78 -68 -168
-118 -220 -38 -39 -123 -85 -203 -110 -84 -25 -379 -26 -475 0 -148 40 -247
116 -300 230 -54 114 -60 159 -60 418 l0 236 61 7 c34 3 147 6 250 6 l189 0 0
-187 c1 -208 7 -255 42 -290 39 -39 149 -46 118 -8 -10 12 -10 21 -1 41 7 16
11 93 11 217 0 220 -5 235 -88 338 l-47 59 -142 0 -143 0 0 60 0 60 68 0 67 1
-30 22 c-16 12 -58 46 -92 74 -59 50 -65 53 -118 53 l-56 0 2 73 c2 63 -2 80
-29 137 -56 114 -65 181 -60 443 6 256 12 292 73 395 l33 57 -64 3 -64 3 0 59
0 60 158 0 c86 0 175 5 197 11 121 34 391 35 507 1z m2083 13 c158 -28 275
-110 337 -236 46 -95 58 -183 58 -439 l0 -230 -189 0 c-103 0 -215 3 -249 6
l-60 7 -4 206 c-2 147 -7 213 -16 229 -10 17 -10 27 -3 36 6 7 8 16 4 19 -11
12 -63 7 -93 -8 -63 -32 -60 6 -60 -890 0 -896 -3 -858 60 -890 30 -16 100
-21 100 -7 0 4 -5 13 -11 19 -8 8 -8 17 1 33 7 14 13 97 16 228 3 113 7 208
10 211 3 4 116 8 250 10 l244 3 0 -231 c0 -324 -24 -426 -125 -539 -50 -55
-150 -112 -235 -133 -83 -21 -376 -18 -460 4 -184 49 -285 148 -336 332 -14
48 -18 120 -21 373 l-5 312 -36 2 -37 1 38 4 37 4 0 360 0 359 -35 0 -35 0 0
60 0 60 35 0 35 0 0 121 c0 135 13 235 40 315 l19 54 -40 0 -39 0 0 45 c0 33
4 45 15 45 8 0 15 7 15 15 0 12 14 15 68 15 61 0 72 3 116 35 55 39 144 71
231 84 94 14 272 12 360 -4z m-5752 -47 c224 -961 382 -1625 387 -1631 3 -4
17 40 30 99 23 105 23 106 6 197 l-18 92 51 213 c28 118 51 222 51 233 0 17
-8 19 -60 19 l-60 0 0 60 0 60 78 0 78 0 25 110 26 110 -119 0 -118 0 0 60 0
59 133 3 132 3 17 65 c23 94 25 90 -32 90 l-50 0 0 60 0 60 65 0 c65 0 66 0
72 30 l6 30 248 0 249 0 0 -1275 0 -1275 -242 2 -243 3 1 150 c1 134 5 167 37
313 l37 163 -1 247 -1 247 -28 -125 c-15 -69 -69 -322 -120 -563 l-93 -437
-191 2 -190 3 -33 150 c-29 137 -32 165 -33 330 l-1 180 -54 240 -53 240 -1
-572 -1 -573 -245 0 -245 0 -2 173 -3 172 -77 3 -78 3 0 59 0 60 81 0 80 0 -3
43 -3 42 -72 3 -73 3 0 59 0 60 75 0 76 0 -3 73 -3 72 -132 3 -133 3 0 59 0
60 136 0 135 0 -3 43 -3 42 -127 3 -128 3 0 59 0 60 130 0 130 0 -2 178 -3
177 -72 3 -73 3 0 59 0 60 76 0 75 0 -3 43 -3 42 -67 3 -68 3 0 59 0 60 70 0
70 0 0 155 0 155 -95 0 -95 0 0 60 0 60 95 0 95 0 0 45 0 45 -90 0 -90 0 0 60
0 60 90 0 90 0 0 30 0 30 249 0 249 0 5 -22z m1938 -990 c0 -557 4 -1035 8
-1061 5 -30 17 -58 33 -73 39 -39 150 -47 118 -9 -10 12 -10 21 -1 41 8 18 11
305 11 1069 l0 1045 255 0 256 0 -3 -1092 c-3 -1075 -4 -1094 -24 -1160 -52
-167 -148 -262 -319 -315 -76 -23 -365 -26 -460 -4 -181 41 -290 136 -343 300
-19 61 -25 105 -30 219 -5 141 -5 142 -28 142 -21 0 -24 5 -24 40 0 36 3 40
25 40 l25 0 0 260 0 260 -25 0 c-22 0 -25 4 -25 40 0 36 3 40 25 40 l25 0 0
615 0 615 250 0 250 0 1 -1012z m2799 -263 l0 -1275 -250 0 -250 0 0 615 0
615 -60 0 -60 0 0 60 0 60 60 0 c57 0 60 1 60 25 0 24 -3 25 -60 25 l-60 0 0
60 0 60 60 0 60 0 0 455 0 455 -70 0 -70 0 0 60 0 60 320 0 320 0 0 -1275z
m-6251 1139 c30 -33 33 -41 28 -81 -16 -147 -227 -144 -227 4 0 55 12 78 53
104 48 30 103 20 146 -27z m-2542 -886 c-6 -180 -22 -273 -72 -425 -75 -224
-196 -416 -375 -591 l-65 -64 54 27 54 27 -23 -29 c-12 -15 -60 -100 -106
-188 -46 -90 -85 -153 -88 -145 -2 8 -12 74 -21 145 -9 72 -21 157 -26 189
l-8 59 53 66 c148 182 244 378 292 593 12 54 37 437 29 455 0 1 -115 -8 -255
-21 -235 -21 -271 -23 -259 -12 4 3 588 57 616 56 9 0 11 -40 7 -167 -8 -268
-31 -403 -100 -572 -41 -102 -32 -96 29 19 92 171 147 388 148 580 0 156 -3
152 98 158 l24 2 -6 -162z m14772 127 c211 -18 388 -38 392 -42 5 -5 12 -48
15 -95 5 -68 1 -135 -22 -305 -32 -245 -30 -247 -60 45 -9 95 -19 170 -22 167
-5 -4 -17 -95 -81 -575 -11 -80 -32 -233 -46 -340 -14 -107 -27 -199 -29 -205
-2 -5 -14 11 -26 36 l-23 47 48 348 c62 455 94 696 101 765 l7 57 -58 3 c-33
2 -59 0 -61 -6 -1 -5 -33 -237 -70 -515 -37 -278 -69 -507 -71 -509 -10 -13
-43 36 -43 63 0 17 29 242 65 501 35 258 62 471 60 473 -2 2 -118 14 -257 27
-139 13 -254 24 -255 24 -2 1 -3 17 -3 36 0 32 3 35 28 35 15 0 200 -16 411
-35z m-15669 -55 c-14 -4 -38 -8 -54 -9 -24 -1 -27 -4 -23 -23 3 -13 20 -129
37 -258 17 -129 42 -311 55 -405 13 -93 34 -247 46 -342 22 -164 24 -171 39
-148 8 13 28 33 42 45 l27 21 5 -23 c19 -93 17 -106 -24 -188 -22 -44 -40 -83
-40 -87 1 -5 18 26 40 67 24 47 40 69 43 60 6 -16 27 -173 27 -200 0 -10 -14
-21 -37 -28 -45 -14 -51 -9 -125 90 l-50 68 16 34 c9 19 14 40 11 48 -4 10
-71 498 -125 913 -5 39 -16 119 -25 179 -8 60 -15 126 -15 147 0 37 1 38 43
42 23 2 58 4 77 4 31 1 32 0 10 -7z m16275 -2 c6 -6 54 -484 61 -605 6 -111 9
-124 30 -144 27 -25 29 -52 13 -130 l-11 -52 -23 29 -22 28 -16 -54 c-15 -52
-15 -56 3 -75 24 -26 25 -41 4 -91 -21 -51 -20 -50 -45 -28 -19 16 -23 17 -27
4 -3 -8 -25 -53 -50 -100 -81 -154 -181 -290 -213 -290 -22 0 -22 4 -9 85 5
33 37 263 70 510 33 248 63 466 67 485 5 27 10 4 19 -95 7 -71 13 -166 13
-209 1 -69 4 -83 27 -114 24 -30 28 -32 37 -17 26 48 18 332 -19 640 -8 66
-17 147 -21 179 l-6 59 57 -6 c32 -3 59 -7 61 -9z m-14695 -793 c27 -9 52 -20
54 -23 2 -4 -24 -8 -58 -9 -58 -2 -213 -50 -699 -218 -43 -15 -101 -45 -130
-66 -29 -22 -69 -45 -90 -51 -60 -18 -113 -95 -131 -191 -6 -30 -13 -40 -43
-52 -19 -8 -37 -15 -40 -15 -2 0 22 50 53 111 43 81 70 120 101 146 23 19 74
72 111 117 l69 81 279 95 c154 52 299 97 324 100 56 7 134 -3 200 -25z m12966
9 c28 -7 64 -19 81 -26 28 -12 25 -13 -46 -14 -96 -1 -190 -37 -278 -105 -35
-27 -73 -49 -86 -49 -13 0 -37 -15 -57 -35 -34 -35 -173 -120 -197 -120 -6 0
-22 -10 -35 -22 -13 -12 -57 -46 -99 -76 -60 -42 -75 -50 -71 -34 l5 21 -29
-21 c-406 -290 -854 -824 -1226 -1463 -530 -908 -932 -2046 -1102 -3115 -71
-453 -92 -716 -90 -1175 2 -370 27 -634 90 -925 22 -99 24 -105 36 -75 8 22
13 10 39 -90 17 -67 27 -128 24 -145 -3 -21 -2 -26 4 -15 9 13 11 13 15 0 3
-8 18 -51 34 -96 21 -58 29 -99 30 -150 0 -74 24 -151 65 -207 13 -18 32 -49
43 -71 29 -58 91 -124 148 -156 28 -17 48 -30 45 -30 -16 0 -180 65 -215 85
-107 63 -203 228 -204 351 0 35 -24 101 -32 88 -3 -5 -15 -40 -28 -78 -17 -52
-21 -82 -17 -124 10 -97 81 -208 158 -248 17 -8 173 -65 347 -126 289 -101
324 -111 400 -114 79 -3 222 -39 222 -55 0 -3 -24 -17 -52 -30 -40 -17 -77
-24 -148 -27 l-95 -4 -340 117 c-187 64 -364 130 -394 146 l-55 29 -468 0
-468 0 0 55 0 55 421 0 c397 0 421 1 413 17 -26 62 -54 153 -54 184 0 20 -5
50 -11 68 l-11 31 -289 0 -289 0 0 55 0 55 266 0 c250 0 266 1 259 18 -20 47
-77 245 -97 338 l-23 104 -317 0 -318 0 0 55 0 55 305 0 c247 0 305 3 305 13
0 8 -7 60 -15 118 -7 57 -20 173 -26 257 l-12 152 -329 0 -328 0 0 50 0 50
325 0 325 0 0 123 c0 173 17 504 36 692 15 161 60 505 70 538 5 16 -32 17
-675 17 l-681 0 0 55 0 55 689 0 688 0 17 88 c68 347 161 715 282 1105 5 16
-23 17 -485 17 l-491 0 0 55 0 55 508 0 509 0 63 178 c125 351 290 744 439
1040 l61 122 -620 0 -620 0 0 55 0 55 649 0 648 0 85 150 85 150 -763 0 -764
0 0 55 0 55 798 0 797 1 99 150 c197 302 386 538 621 778 157 160 286 274 419
370 l78 56 -76 3 -76 3 0 54 0 55 145 0 c123 0 145 -2 145 -15 0 -11 22 -4 88
29 159 81 179 75 -270 76 l-398 0 0 55 0 55 478 0 477 1 51 27 c238 125 291
137 440 96z m2131 -344 c148 -153 150 -156 181 -243 48 -132 80 -250 101 -373
l18 -111 -22 -154 c-13 -85 -29 -192 -36 -239 l-14 -85 -6 60 c-4 33 -8 89 -9
125 -2 60 -5 49 -35 -125 -29 -161 -34 -215 -34 -353 -1 -204 -6 -232 -208
-1130 -9 -40 -18 -71 -20 -69 -2 2 10 91 26 198 28 181 47 347 37 324 -3 -5
-21 -84 -41 -175 -206 -932 -572 -2225 -959 -3380 -58 -173 -104 -316 -102
-317 4 -4 107 237 187 439 34 87 64 156 66 154 9 -9 -345 -1042 -383 -1119
-13 -26 -20 -45 -14 -42 9 5 -2 -25 -108 -315 -51 -140 -64 -164 -129 -250
-304 -398 -691 -695 -1018 -779 -133 -35 -272 -51 -430 -51 -131 1 -291 13
-302 23 -2 2 -1 11 2 19 5 13 31 16 153 16 293 0 566 70 745 191 149 100 385
318 480 442 39 51 320 828 562 1554 599 1800 1038 3526 1231 4842 22 155 34
267 31 299 -7 70 -69 250 -118 345 -22 43 -61 99 -85 126 l-44 47 22 53 22 54
68 -68 c38 -37 82 -92 98 -120 73 -128 141 -339 176 -543 l18 -105 12 70 c27
155 28 245 5 329 -57 206 -116 312 -253 452 l-89 91 13 47 12 46 21 -22 c12
-13 89 -93 172 -178z m-14939 159 c56 -27 166 -135 158 -155 -7 -18 20 -94 39
-108 12 -10 75 -166 75 -189 0 -4 -5 -5 -12 -1 -8 5 -9 2 -4 -12 4 -10 74
-215 156 -454 81 -239 507 -1479 945 -2755 438 -1276 859 -2502 935 -2725 138
-404 309 -902 350 -1015 23 -64 23 -59 -11 -232 -16 -81 -63 -164 -127 -225
l-57 -54 -300 -104 c-341 -118 -382 -124 -484 -80 l-54 24 59 12 c32 7 176 53
318 103 212 74 264 95 283 118 33 41 65 131 65 188 0 41 -168 546 -905 2715
-1665 4899 -1592 4688 -1632 4756 -28 48 -109 124 -155 146 l-32 16 63 21 c35
11 70 21 79 21 9 0 34 -18 55 -41 39 -39 215 -138 215 -120 0 18 -72 117 -108
149 l-37 34 38 -6 c21 -3 60 -15 85 -27z m13033 -60 c129 -44 252 -91 274
-104 80 -46 153 -141 185 -238 9 -29 21 -43 46 -53 56 -23 61 -20 54 34 -10
71 -44 129 -122 205 -38 38 -68 71 -65 73 8 9 182 -59 223 -87 26 -18 47 -43
57 -68 9 -22 24 -44 33 -49 33 -19 54 -165 38 -265 -6 -36 -8 -37 -38 -32
l-31 6 -599 -1743 c-329 -959 -889 -2587 -1243 -3618 -354 -1031 -655 -1897
-669 -1923 -25 -48 -25 -49 -5 -54 30 -8 26 -18 -19 -62 -27 -26 -47 -37 -59
-34 -23 6 -62 -13 -58 -29 3 -18 -91 -40 -140 -33 -24 4 -73 17 -110 30 l-68
24 41 0 c35 1 47 7 73 36 17 20 41 55 52 78 17 33 446 1272 1049 3032 32 94
369 1077 750 2185 381 1108 699 2038 707 2065 11 35 14 77 11 140 -6 113 -37
184 -108 248 -43 39 -72 52 -217 102 -92 32 -229 80 -303 105 l-134 47 54 32
c30 17 67 31 81 31 14 0 131 -36 260 -81z m-15018 -114 c73 -145 179 -313 254
-402 23 -28 43 -55 43 -60 0 -4 597 -1675 1327 -3712 895 -2497 1333 -3705
1343 -3708 14 -4 46 -81 37 -89 -14 -15 -207 -26 -362 -21 -139 4 -206 11
-295 30 -97 21 -274 77 -200 63 132 -25 241 -37 342 -37 66 0 123 2 125 5 3 3
-440 1246 -984 2763 l-989 2758 -369 5 -370 5 -3 53 -3 52 350 0 c193 0 351 3
350 8 0 4 -73 210 -162 457 l-162 450 -173 3 -172 2 0 55 0 55 151 0 150 0 -7
23 c-3 12 -62 176 -129 364 -121 336 -124 343 -179 409 -76 88 -146 194 -201
301 l-45 87 42 43 42 43 56 -108 c60 -116 97 -173 172 -269 l49 -62 37 13 c20
7 38 21 40 30 2 9 -12 36 -30 59 -90 110 -237 369 -238 417 0 8 19 34 42 57
l42 43 22 -58 c11 -31 37 -88 57 -127z m14772 10 c145 -42 438 -155 463 -178
13 -12 40 -55 60 -96 34 -68 37 -82 37 -155 -1 -79 -5 -93 -157 -516 -227
-631 -231 -641 -233 -638 -1 2 7 53 18 113 17 92 21 153 21 370 1 238 -1 269
-22 364 -31 139 -73 251 -128 345 -52 88 -165 212 -236 258 -26 17 -48 38 -48
45 0 46 69 113 116 113 12 0 61 -11 109 -25z m-12364 -104 c409 -257 834 -719
1211 -1316 575 -909 1039 -2223 1212 -3425 85 -589 94 -1225 25 -1705 -31
-218 -109 -555 -129 -555 -3 0 -19 36 -35 80 -30 88 -31 78 10 263 29 134 62
380 73 537 11 167 7 742 -6 895 -96 1068 -379 2107 -852 3116 -418 893 -1003
1683 -1523 2059 -46 33 -80 66 -86 83 -5 15 -6 27 -2 27 4 0 50 -27 102 -59z
m-1256 22 c55 -145 2624 -7756 2620 -7763 -10 -15 -56 -11 -100 9 -46 20 -95
73 -126 132 -40 79 -2579 7333 -2579 7370 0 49 27 136 56 178 21 32 96 91 114
91 5 0 11 -8 15 -17z m13130 -72 c-39 -106 -266 -773 -1362 -4003 -560 -1649
-1021 -2994 -1025 -2990 -11 11 -58 184 -58 212 0 15 445 1322 989 2906 543
1583 1054 3073 1135 3309 80 237 154 453 164 480 15 45 25 56 95 103 43 28 80
52 83 52 2 0 -8 -31 -21 -69z m-315 -448 c-70 -208 -256 -754 -413 -1213 -156
-459 -607 -1788 -1003 -2952 -395 -1165 -721 -2118 -725 -2118 -6 0 -49 212
-49 242 0 10 358 1061 796 2335 438 1275 915 2667 1061 3093 146 426 272 793
280 815 10 30 35 57 96 107 45 37 83 68 84 68 1 0 -56 -170 -127 -377z
m-11482 264 c811 -712 1571 -2127 1957 -3642 121 -476 193 -888 242 -1380 24
-248 24 -905 0 -1110 -24 -206 -49 -357 -57 -348 -4 4 -22 52 -40 106 l-32 98
16 157 c96 921 -87 2145 -491 3282 -378 1065 -941 2027 -1529 2616 l-112 111
-36 103 c-20 56 -32 100 -27 98 5 -1 54 -43 109 -91z m13519 -73 c65 -25 130
-51 144 -57 l25 -12 -543 -1515 c-1972 -5496 -2124 -5923 -2111 -5931 7 -5 22
-9 33 -9 12 0 16 -3 9 -10 -6 -6 -36 0 -87 18 -66 23 -78 30 -74 47 2 11 182
517 400 1125 1653 4609 2246 6265 2243 6268 -22 21 -157 -349 -1362 -3708
-719 -2005 -1310 -3655 -1315 -3667 -7 -19 -11 -20 -37 -11 l-29 11 24 42 c18
33 825 2370 1593 4610 20 61 243 683 494 1383 251 699 456 1277 456 1282 0 6
-7 10 -16 10 -12 0 -15 6 -10 23 3 12 9 38 12 59 l6 36 33 -14 c29 -12 34 -11
50 6 17 19 17 20 -11 31 -58 22 -69 28 -57 28 7 1 66 -20 130 -45z m-15224 -2
c7 -36 2483 -7246 2498 -7275 7 -12 32 -55 56 -95 24 -41 42 -76 39 -79 -6 -7
-248 -94 -251 -91 -6 6 -2407 6710 -2521 7038 -69 195 -127 371 -130 390 -5
34 -5 35 42 52 52 18 64 16 64 -12 0 -23 2472 -7225 2505 -7297 26 -57 36 -61
90 -39 l35 15 -29 63 c-24 51 -2464 7143 -2507 7285 l-13 42 52 19 c29 11 55
18 58 16 4 -2 9 -16 12 -32z m-2665 -29 l3 -53 -195 0 -196 0 0 55 0 55 193
-2 192 -3 3 -52z m4781 -743 c586 -696 1009 -1587 1290 -2715 111 -449 212
-1028 255 -1470 20 -205 36 -421 41 -560 4 -88 8 -193 10 -232 2 -40 1 -73 -3
-73 -4 0 -331 960 -727 2132 -396 1173 -795 2355 -887 2627 l-167 494 46 -44
c24 -24 88 -96 142 -159z m-3489 -220 c253 -1413 778 -3286 1441 -5140 48
-135 86 -246 84 -248 -6 -7 -168 283 -254 455 -73 146 -108 232 -190 477 -458
1355 -844 2731 -1073 3821 l-39 190 -5 320 c-2 176 -2 316 0 310 3 -5 19 -89
36 -185z m12660 115 l0 -55 -270 0 -270 0 0 55 0 55 270 0 270 0 0 -55z m5199
-21 c2 -77 -17 -466 -30 -594 -26 -265 -62 -514 -124 -865 -151 -846 -587
-2251 -975 -3140 -105 -240 -346 -722 -356 -712 -2 2 15 54 37 117 23 63 87
250 144 415 57 165 144 404 195 530 117 293 234 617 348 965 305 924 481 1654
587 2432 14 102 41 264 60 360 20 95 49 247 65 338 44 242 46 247 49 154z
m-7509 -19 l0 -55 -242 2 -243 3 -3 53 -3 52 245 0 246 0 0 -55z m-11850 -360
l0 -55 -185 0 -185 0 0 48 c0 27 3 52 7 55 3 4 87 7 185 7 l178 0 0 -55z
m9450 -220 l0 -55 -600 0 -600 0 0 55 0 55 600 0 600 0 0 -55z m-9490 -335 l0
-50 -235 0 -235 0 0 50 0 50 235 0 235 0 0 -50z m8530 -75 l0 -55 -465 0 -465
0 0 55 0 55 465 0 465 0 0 -55z m2460 -10 l0 -55 -280 0 -280 0 0 55 0 55 280
0 280 0 0 -55z m2670 -465 l0 -50 -110 0 -110 0 0 50 0 50 110 0 110 0 0 -50z
m-530 -115 l0 -55 -395 0 -395 0 0 55 0 55 395 0 395 0 0 -55z m-3150 -120 l0
-55 -380 0 -380 0 0 55 0 55 380 0 380 0 0 -55z m9000 -176 c-117 -526 -288
-1123 -480 -1679 -77 -223 -71 -197 24 115 155 502 367 1259 457 1628 18 76
35 134 37 129 1 -5 -16 -92 -38 -193z m-18830 -79 l0 -50 -240 0 -240 0 0 50
0 50 240 0 240 0 0 -50z m11210 -75 l0 -55 -520 0 -520 0 0 55 0 55 520 0 520
0 0 -55z m1820 -600 l0 -55 -292 2 -293 3 -3 53 -3 52 295 0 296 0 0 -55z
m-12370 -135 l0 -50 -160 0 -160 0 0 50 0 50 160 0 160 0 0 -50z m10410 0 l0
-50 -320 0 -320 0 0 50 0 50 320 0 320 0 0 -50z m-7567 -1005 c162 -451 456
-1267 652 -1813 197 -546 355 -996 351 -999 -9 -9 -123 16 -236 53 -197 65
-438 201 -625 354 -96 78 -249 223 -276 262 l-21 29 46 40 c82 72 138 198 172
385 24 134 24 515 0 734 -55 508 -180 1116 -363 1765 -24 86 44 -98 300 -810z
m8087 710 l0 -55 -515 0 -515 0 0 55 0 55 515 0 515 0 0 -55z m-10840 -210 l0
-55 -205 0 -205 0 0 55 0 55 205 0 205 0 0 -55z m16588 -1624 l-372 -1042 -79
-85 c-274 -292 -652 -481 -1017 -509 l-85 -6 77 34 c210 94 367 215 580 446
231 252 505 658 747 1109 152 280 397 800 486 1030 15 39 30 71 32 69 2 -2
-164 -473 -369 -1046z m-4190 667 l-3 -53 -277 -3 -278 -2 0 55 0 55 281 0
280 0 -3 -52z m1513 -189 c-60 -293 -124 -730 -137 -939 -3 -52 -8 -101 -10
-109 -9 -28 -4 -463 7 -558 22 -203 67 -355 134 -448 19 -27 33 -51 31 -52 -9
-9 -540 197 -563 218 -14 13 -32 39 -40 58 -35 82 -35 84 294 1062 169 504
309 916 311 914 2 -1 -10 -67 -27 -146z m-3593 19 l-3 -53 -1342 -3 -1343 -2
0 55 0 55 1346 0 1345 0 -3 -52z m42 -1178 l0 -50 -275 0 -275 0 0 50 0 50
275 0 275 0 0 -50z m-1572 -507 l3 -53 -200 0 -201 0 0 55 0 55 198 -2 197 -3
3 -52z m-4051 -580 c27 -20 71 -46 98 -58 l50 -23 -85 -26 c-106 -34 -208 -37
-293 -7 -31 11 -66 27 -78 34 -20 14 -18 16 38 38 47 18 76 22 148 21 90 -1
90 -1 58 15 -44 22 -42 34 9 42 4 0 29 -15 55 -36z m9776 16 c29 -10 37 -18
35 -34 -3 -18 5 -21 87 -31 50 -7 108 -19 130 -27 63 -24 167 -39 330 -46
l150 -6 -60 -12 c-96 -20 -232 -33 -344 -33 -150 0 -372 27 -445 55 -134 51
-129 40 -38 86 44 22 83 47 86 56 3 8 12 13 19 10 6 -2 29 -10 50 -18z m-9333
-394 l0 -55 -370 0 -370 0 0 55 0 55 370 0 370 0 0 -55z m-1420 -50 l0 -55
-480 0 -480 0 0 55 0 55 480 0 480 0 0 -55z"/>
<path d="M3452 12748 c-320 -598 -564 -1196 -752 -1847 -47 -162 -130 -487
-130 -508 0 -7 9 -13 19 -13 11 0 21 -6 23 -12 3 -7 10 16 17 52 41 208 158
635 256 940 149 457 376 1005 575 1383 28 53 49 97 46 97 -2 0 -27 -42 -54
-92z"/>
<path d="M2526 10203 c-16 -75 -66 -333 -66 -345 0 -4 13 -8 30 -8 26 0 30 4
36 38 3 20 21 115 38 210 l32 172 -27 0 c-26 0 -28 -4 -43 -67z"/>
<path d="M2428 9588 c-21 -18 -55 -298 -83 -693 l-5 -70 39 45 c38 44 40 47
46 140 6 102 41 470 52 545 5 40 4 45 -14 45 -10 0 -26 -6 -35 -12z"/>
<path d="M1876 8253 c-34 -52 -92 -205 -116 -306 -17 -74 -18 -91 -6 -177 10
-78 14 -89 19 -60 3 19 16 94 28 165 20 125 77 344 100 386 20 38 1 31 -25 -8z"/>
<path d="M1673 6883 c23 -872 247 -1923 691 -3238 214 -634 400 -1094 621
-1530 93 -185 298 -545 310 -545 12 0 -172 494 -217 585 -415 825 -885 2207
-1122 3296 -72 332 -126 655 -171 1024 -9 71 -24 287 -30 415 -3 69 -8 149
-11 178 l-5 52 -36 0 -36 0 6 -237z"/>
<path d="M14745 14726 c-9 -14 -15 -29 -13 -35 1 -5 41 -35 88 -66 47 -32 140
-98 206 -146 67 -49 131 -89 143 -89 13 0 21 -6 21 -18 0 -9 25 -37 56 -61
l55 -43 25 23 c13 12 24 28 24 35 0 21 -380 298 -552 403 l-37 22 -16 -25z"/>
<path d="M15423 14229 c-13 -15 -23 -31 -23 -36 0 -5 44 -47 98 -93 53 -47
184 -172 291 -277 113 -112 201 -193 212 -193 13 0 19 -7 19 -22 0 -14 25 -52
61 -93 171 -196 388 -475 510 -657 33 -48 66 -88 74 -88 9 0 15 -9 15 -21 0
-12 31 -71 68 -133 240 -389 409 -725 574 -1136 197 -490 359 -1073 423 -1520
25 -174 19 -160 70 -160 43 0 44 1 40 28 -2 15 -12 83 -20 152 -21 162 -83
474 -134 670 -348 1348 -1061 2543 -2043 3424 -75 68 -153 136 -175 153 l-38
30 -22 -28z"/>
<path d="M4416 12187 c-372 -693 -646 -1487 -759 -2199 l-14 -88 32 0 33 0 12
83 c105 723 343 1473 681 2150 44 86 77 157 75 157 -3 0 -30 -46 -60 -103z"/>
<path d="M10598 13311 l-33 -29 -3 -827 c-2 -733 -1 -830 13 -859 19 -41 51
-56 113 -56 42 1 45 2 29 14 -16 13 -17 17 -5 38 20 35 19 1662 -1 1697 -12
22 -11 26 5 38 16 11 12 13 -34 13 -43 0 -57 -5 -84 -29z"/>
<path d="M14986 6373 c-172 -345 -315 -680 -447 -1052 -33 -90 -59 -179 -59
-197 0 -18 -6 -34 -14 -37 -7 -3 -16 -16 -18 -29 -3 -13 -29 -99 -57 -193
-146 -476 -267 -1058 -320 -1540 -32 -285 -41 -449 -41 -760 0 -387 20 -620
80 -915 28 -142 94 -377 109 -393 4 -4 18 26 30 66 l23 74 -40 159 c-87 343
-124 675 -124 1109 0 784 129 1563 408 2466 134 434 360 1002 545 1372 22 42
37 77 34 77 -3 0 -52 -93 -109 -207z"/>
<path d="M19597 7425 c-3 -16 -22 -124 -42 -240 -249 -1467 -780 -3397 -1456
-5295 -59 -167 -107 -306 -105 -308 11 -11 76 123 127 267 657 1815 1199 3732
1469 5191 28 153 29 174 22 290 -5 83 -10 115 -15 95z"/>
<path d="M4634 8323 c19 -54 124 -361 234 -683 110 -322 281 -821 380 -1110
424 -1237 1795 -5228 1806 -5254 l12 -29 18 59 18 59 -940 2770 c-518 1524
-1040 3063 -1162 3420 -122 358 -232 681 -245 719 -13 38 -29 73 -37 77 -7 5
-36 22 -65 39 l-52 31 33 -98z"/>
<path d="M18166 8067 c-3 -18 -8 -49 -11 -70 -3 -21 -562 -1657 -1242 -3635
-679 -1978 -1237 -3606 -1240 -3617 l-4 -20 16 20 c39 47 78 154 354 956 159
464 697 2032 1196 3484 499 1452 927 2697 950 2767 l43 127 -29 10 c-27 9 -29
8 -33 -22z"/>
<path d="M2800 7981 c-28 -11 -44 -23 -42 -32 1 -8 61 -176 132 -374 307 -858
2499 -6972 2505 -6987 8 -20 68 -25 94 -9 11 7 -95 313 -552 1588 -938 2617
-2075 5787 -2084 5809 -8 22 -9 22 -53 5z"/>
</g>
</svg>
