<?xml version="1.0" standalone="no"?>
<!DOCTYPE svg PUBLIC "-//W3C//DTD SVG 20010904//EN"
 "http://www.w3.org/TR/2001/REC-SVG-20010904/DTD/svg10.dtd">
<svg version="1.0" xmlns="http://www.w3.org/2000/svg"
 width="1102.000000pt" height="798.000000pt" viewBox="0 0 1102.000000 798.000000"
 preserveAspectRatio="xMidYMid meet">
<metadata>
Created by potrace 1.16, written by Peter Selinger 2001-2019
</metadata>
<g transform="translate(0.000000,798.000000) scale(0.100000,-0.100000)"
fill="#000000" stroke="none">
<path d="M3280 7950 c0 -20 5 -30 15 -30 8 0 15 -9 15 -20 0 -19 7 -20 255
-20 248 0 255 1 255 20 0 19 -7 20 -216 20 -200 0 -215 1 -212 18 3 15 22 17
201 20 120 1 197 6 197 12 0 6 -95 10 -255 10 l-255 0 0 -30z"/>
<path d="M5170 7880 c0 -11 5 -20 10 -20 6 0 10 -7 10 -15 0 -13 26 -15 170
-15 144 0 170 2 170 15 0 13 -22 15 -141 15 -108 0 -140 3 -137 13 3 8 43 14
134 17 l129 6 -172 2 c-167 2 -173 1 -173 -18z"/>
<path d="M3850 7870 c0 -11 5 -20 10 -20 6 0 10 -7 10 -15 0 -13 24 -15 160
-15 136 0 160 2 160 15 0 13 -21 15 -130 15 -80 0 -130 4 -130 10 0 6 47 10
120 10 73 0 120 4 120 10 0 6 -60 10 -160 10 -153 0 -160 -1 -160 -20z"/>
<path d="M4080 7790 c0 -11 7 -20 15 -20 8 0 15 -7 15 -15 0 -13 27 -15 185
-15 158 0 185 2 185 15 0 13 -24 15 -155 15 -130 0 -155 2 -155 15 0 12 25 15
143 18 136 2 134 3 -45 5 -182 2 -188 1 -188 -18z"/>
<path d="M5400 7746 c0 -33 -17 -37 -128 -30 -125 8 -442 -11 -641 -38 -108
-15 -196 -20 -288 -19 -90 2 -133 -1 -133 -8 0 -7 44 -11 130 -11 123 0 130
-1 130 -20 0 -19 -7 -20 -145 -20 -122 0 -145 2 -145 15 0 13 -26 15 -175 15
-148 0 -175 2 -175 15 0 12 27 15 163 18 157 2 155 3 -50 5 -204 2 -213 1
-213 -17 0 -11 8 -22 18 -24 9 -3 -133 -5 -315 -6 l-333 -1 0 -45 c0 -45 0
-45 35 -45 33 0 35 -2 35 -34 0 -19 7 -41 15 -50 8 -8 15 -19 15 -25 0 -7 50
-11 150 -11 129 0 150 -2 150 -16 0 -9 -21 -24 -52 -37 -86 -35 -356 -170
-453 -227 l-90 -52 -532 2 -533 2 0 -51 0 -51 35 0 c33 0 35 -2 35 -35 l0 -35
235 0 c228 0 235 -1 235 -20 0 -15 7 -20 25 -20 22 0 25 -4 25 -34 0 -32 3
-35 31 -38 31 -3 29 -5 -77 -93 -60 -49 -172 -152 -250 -227 l-141 -138 -127
0 c-119 0 -126 -1 -126 -20 0 -11 5 -20 10 -20 6 0 10 -9 10 -20 0 -18 7 -20
80 -20 l80 0 -103 -127 c-56 -71 -135 -174 -175 -230 l-73 -103 -114 0 -115 0
0 -25 c0 -14 5 -25 10 -25 6 0 10 -7 10 -15 0 -12 16 -15 80 -15 l80 0 -16
-25 -16 -25 -444 0 -444 0 0 -80 0 -80 40 0 40 0 0 -65 0 -65 -100 0 -100 0 0
-45 c0 -43 1 -45 30 -45 28 0 30 -3 30 -35 l0 -35 355 0 c195 0 355 -4 355 -8
0 -4 -16 -48 -36 -98 -54 -132 -49 -238 13 -322 24 -31 24 -35 10 -70 l-15
-37 -181 -3 -181 -2 0 -35 c0 -24 5 -35 15 -35 8 0 15 -9 15 -20 0 -17 7 -20
40 -20 l40 0 0 -50 c0 -49 1 -50 30 -50 28 0 30 -3 30 -35 0 -34 2 -35 36 -35
30 0 35 -3 29 -17 -3 -10 -16 -46 -28 -80 l-22 -63 -77 0 c-60 0 -78 -3 -78
-14 0 -19 22 -26 87 -26 39 0 53 -4 51 -12 -3 -10 -44 -14 -146 -16 -134 -2
-142 -4 -142 -22 0 -11 7 -20 15 -20 8 0 15 -4 15 -10 0 -6 45 -10 115 -10 63
0 115 -3 115 -7 -1 -5 -18 -75 -39 -158 l-39 -150 -156 -3 c-130 -2 -156 -5
-156 -17 0 -8 7 -15 15 -15 8 0 15 -4 15 -10 0 -5 57 -11 137 -13 85 -1 42 -3
-109 -5 l-248 -2 0 -30 c0 -23 4 -30 20 -30 15 0 20 -7 20 -25 l0 -25 216 0
216 0 -6 -22 c-3 -13 -6 -26 -6 -30 0 -5 -56 -8 -125 -8 -100 0 -125 -3 -125
-14 0 -20 32 -26 144 -26 l99 0 -7 -52 c-16 -114 -36 -347 -36 -410 l0 -68
-30 0 c-23 0 -30 -4 -30 -20 0 -11 5 -20 10 -20 6 0 10 -7 10 -15 0 -8 9 -15
20 -15 18 0 20 -7 20 -65 l0 -65 -235 0 -235 0 0 -40 c0 -36 3 -40 25 -40 21
0 25 -5 25 -30 l0 -30 210 0 210 0 0 -25 c0 -23 -4 -25 -46 -25 -32 0 -44 -4
-42 -12 4 -10 62 -14 236 -16 l232 -2 0 25 c0 30 -5 31 -47 5 l-33 -20 0 35
c0 33 2 35 35 35 31 0 35 3 35 25 l0 25 -327 2 -328 3 -3 28 -3 27 300 0 c221
0 302 3 307 12 4 6 2 14 -4 16 -8 2 -12 31 -12 83 l0 79 -140 0 c-118 0 -140
2 -140 15 0 12 15 15 75 15 l75 0 0 80 c0 78 22 312 39 418 l8 52 -158 0 c-94
0 -160 4 -164 10 -4 7 51 10 159 10 l165 0 7 35 c3 20 12 35 20 35 8 0 14 9
14 20 0 19 -7 20 -260 20 l-260 0 0 25 0 25 255 0 255 0 6 27 c10 46 13 53 24
53 5 0 10 -7 10 -15 0 -10 10 -15 31 -15 29 0 31 -2 25 -26 -16 -63 -55 -319
-66 -429 -7 -66 -15 -127 -18 -135 -3 -8 -6 -54 -6 -102 l-1 -88 28 0 c24 0
27 3 27 35 l0 35 246 0 246 0 -45 -50 c-25 -28 -58 -71 -74 -95 l-28 -45 -162
0 -163 0 0 -35 c0 -28 4 -35 19 -35 12 0 21 -9 25 -25 6 -25 8 -25 111 -25
l104 0 -29 -62 c-16 -35 -32 -62 -37 -62 -4 1 -20 4 -35 8 l-28 6 0 -524 0
-525 73 -3 c124 -5 78 -23 -68 -26 -116 -2 -135 0 -135 13 0 9 9 15 23 15 20
0 22 4 19 52 l-4 53 -349 -3 -349 -3 0 31 0 31 350 -3 350 -3 0 393 0 392
-250 0 c-243 0 -250 1 -250 20 0 20 -7 20 -276 20 l-275 0 3 23 3 22 253 3
c156 1 252 6 252 12 0 6 -121 10 -330 10 l-330 0 0 -35 c0 -28 4 -35 20 -35
15 0 20 -7 20 -25 l0 -25 200 0 c193 0 200 -1 200 -20 0 -19 7 -20 195 -20
l195 0 0 -85 0 -85 65 0 65 0 0 -30 c0 -28 -3 -30 -35 -30 -113 0 -204 -99
-205 -222 l0 -58 -215 0 -215 0 0 -25 c0 -16 6 -25 15 -25 8 0 15 -9 15 -20 0
-19 7 -20 200 -20 l200 0 0 -24 c0 -14 4 -36 10 -50 l10 -26 -210 0 -210 0 0
-40 c0 -36 3 -40 25 -40 21 0 25 -5 25 -30 l0 -30 279 0 c256 0 282 -2 322
-20 24 -11 54 -20 67 -20 20 0 22 -5 22 -60 l0 -60 -65 0 c-51 0 -65 -3 -65
-15 0 -8 7 -15 15 -15 8 0 15 -4 15 -9 0 -6 24 -12 53 -14 28 -2 -12 -4 -90
-5 l-143 -2 0 -25 0 -25 -265 0 -265 0 0 -35 c0 -28 4 -35 20 -35 13 0 20 -7
20 -20 0 -19 7 -20 260 -20 230 0 260 -2 260 -16 0 -38 23 -44 179 -44 187 0
206 18 23 22 -164 4 -168 21 -7 28 l120 6 -117 2 c-111 2 -118 3 -118 22 0 19
-7 20 -251 20 l-250 0 3 23 3 22 264 3 c170 1 268 -1 275 -8 5 -5 48 -10 96
-10 73 -1 91 -4 125 -25 51 -32 55 -31 55 5 0 20 5 30 15 30 8 0 15 4 15 10 0
6 -70 11 -177 12 -160 3 -178 5 -181 21 -3 16 10 17 168 17 143 0 171 2 161
13 -15 19 -4 27 41 27 l38 0 0 -75 c0 -41 -2 -75 -5 -75 -4 0 -20 7 -36 16
-29 15 -30 15 -20 -5 12 -22 65 -64 94 -74 14 -5 17 -1 17 23 0 46 19 45 39
-2 10 -24 28 -63 40 -87 l21 -44 -128 6 c-70 4 -153 7 -184 7 -95 0 -66 19 35
23 86 3 84 3 -30 5 -100 2 -123 -1 -123 -12 0 -8 6 -17 13 -19 6 -3 -41 -6
-105 -6 l-118 -1 0 -35 c0 -28 4 -35 20 -35 15 0 20 -7 20 -25 l0 -25 245 0
c157 0 245 -4 245 -10 0 -5 7 -10 15 -10 8 0 15 -4 15 -9 0 -6 21 -12 48 -14
28 -2 12 -4 -40 -5 -89 -2 -102 -9 -74 -38 17 -17 246 -21 246 -4 0 6 -40 10
-100 10 -60 0 -100 4 -100 10 0 6 42 10 108 9 l107 0 39 -47 39 -47 -131 -3
c-83 -2 -132 -6 -132 -13 0 -23 30 -39 74 -39 25 0 46 -4 46 -10 0 -6 44 -10
111 -10 l111 0 72 -45 c40 -25 76 -45 80 -45 4 0 42 -16 85 -36 80 -36 85 -42
139 -156 2 -5 -87 -8 -197 -8 l-201 0 0 -35 c0 -24 5 -35 15 -35 8 0 15 -9 15
-20 0 -19 7 -20 237 -20 l237 0 81 -39 c44 -21 91 -43 105 -49 20 -8 -5 -11
-112 -11 -131 -1 -138 -2 -138 -21 0 -18 -7 -20 -60 -20 -48 0 -60 -3 -60 -16
0 -37 24 -44 159 -44 163 0 178 18 19 22 -69 2 -112 7 -110 13 1 6 67 9 177 8
105 -1 175 2 175 8 0 5 -49 9 -115 9 -94 0 -115 3 -115 15 0 23 202 26 255 3
22 -10 50 -18 63 -18 22 0 22 2 24 138 l2 137 3 -117 4 -117 32 5 c47 9 135
42 190 72 63 34 166 144 196 209 23 50 24 51 78 57 31 4 77 16 103 27 28 12
62 19 81 17 l34 -4 -39 -18 c-22 -10 -63 -20 -92 -23 -51 -5 -52 -6 -75 -57
-52 -111 -201 -232 -326 -265 -40 -11 -43 -14 -43 -45 l0 -33 51 9 c68 12 141
42 193 77 60 42 140 130 170 188 26 52 40 63 80 63 37 0 134 37 182 70 l45 30
200 0 199 0 0 25 0 25 -295 0 -295 0 0 25 0 25 270 0 c233 0 270 2 270 15 0
13 -20 15 -121 15 -112 0 -121 1 -114 18 22 50 36 99 42 138 l6 44 48 0 c37 0
49 4 49 15 0 12 -29 15 -182 17 -155 3 -183 5 -183 18 0 13 28 16 175 20 96 3
156 7 133 8 -36 2 -43 5 -43 22 0 19 7 20 245 20 157 0 245 -4 245 -10 0 -5 7
-10 15 -10 8 0 15 -7 15 -15 0 -13 31 -15 220 -15 189 0 220 2 220 15 0 13
-27 15 -185 15 -158 0 -185 2 -185 15 0 13 26 15 170 15 107 0 170 4 170 10 0
6 -60 10 -160 10 -100 0 -160 4 -160 10 0 6 -113 10 -320 10 l-320 0 0 30 0
30 295 0 c190 0 295 4 295 10 0 6 -100 10 -280 10 l-280 0 0 55 c0 30 5 55 10
55 6 0 10 -7 10 -15 0 -13 32 -15 225 -15 193 0 225 2 225 15 0 13 -23 15
-145 15 -122 0 -145 2 -145 15 0 13 -30 15 -210 15 -203 0 -210 1 -210 20 0
19 7 20 195 20 123 0 195 4 195 10 0 6 -32 10 -75 10 l-75 0 0 139 c0 142 -2
151 -41 151 -5 0 -9 -64 -9 -145 l0 -145 -45 0 -45 0 0 80 0 80 -315 0 -315 0
0 30 0 30 314 0 315 0 3 43 3 42 238 -4 c235 -3 237 -3 237 18 0 20 -4 21
-247 23 l-248 3 -3 23 -3 22 230 0 c147 0 231 4 231 10 0 6 -85 10 -235 10
-220 0 -235 1 -235 18 0 10 5 23 11 29 8 8 8 17 0 31 -14 27 -14 65 1 80 8 8
8 15 -2 26 -8 10 -10 28 -6 48 3 18 6 39 5 46 0 6 -1 30 -1 52 0 22 1 46 1 53
1 6 -2 27 -5 45 -4 19 -2 38 6 46 8 11 8 20 1 35 -14 26 -14 64 1 79 8 8 8 15
-2 26 -8 10 -10 28 -6 48 3 18 6 39 5 46 -1 16 -1 88 0 105 1 6 -2 27 -5 45
-4 19 -2 38 6 46 8 11 8 20 1 35 -15 26 -14 64 1 79 9 9 9 15 0 24 -14 14 -16
57 -3 77 5 8 3 27 -5 47 -13 30 -12 37 1 58 14 21 14 25 -4 47 -16 19 -22 22
-32 12 -10 -10 -18 -9 -36 9 -19 18 -23 19 -23 5 0 -9 4 -18 8 -21 10 -6 9
-42 -1 -52 -10 -10 -9 -52 1 -58 10 -6 9 -42 -1 -52 -10 -10 -9 -52 2 -58 10
-7 9 -31 -2 -42 -10 -11 -9 -62 2 -68 10 -7 9 -20 -4 -50 -5 -11 -4 -36 2 -58
6 -21 6 -41 2 -44 -11 -7 -12 -51 -1 -58 10 -6 9 -42 -1 -52 -10 -10 -9 -52 2
-58 10 -7 9 -31 -2 -42 -10 -11 -9 -62 2 -68 10 -7 9 -20 -4 -50 -5 -11 -4
-36 2 -58 6 -21 6 -41 2 -44 -11 -7 -12 -51 -1 -58 10 -6 9 -42 -1 -52 -10
-10 -9 -52 2 -58 10 -7 9 -31 -2 -42 -10 -11 -9 -62 2 -68 10 -7 9 -31 -2 -42
-4 -4 -7 -16 -7 -26 0 -10 -7 -18 -15 -18 -8 0 -15 7 -15 15 0 19 -43 47 -62
40 -17 -7 -58 38 -58 61 0 8 -9 23 -21 35 l-21 21 21 19 c24 22 25 32 11 60
-7 12 -21 19 -40 19 -18 0 -30 5 -30 13 0 9 9 12 29 9 54 -8 68 71 15 84 -14
4 -31 1 -39 -6 -13 -10 -15 -8 -15 14 0 23 3 25 32 19 23 -5 34 -2 45 12 19
27 16 42 -11 60 -19 13 -29 14 -45 5 -18 -9 -21 -8 -21 13 0 20 4 23 33 19 44
-5 65 18 48 55 -10 22 -16 25 -46 20 -32 -5 -35 -4 -35 19 0 22 2 23 20 14 43
-23 83 17 60 60 -12 22 -49 27 -68 8 -9 -9 -12 -4 -12 22 0 26 3 31 12 22 32
-32 87 4 73 48 -8 25 -50 37 -70 20 -13 -10 -15 -8 -15 14 0 23 3 25 32 19 23
-5 34 -2 45 12 19 27 16 42 -11 60 -19 13 -29 14 -45 5 -18 -9 -21 -8 -21 13
0 20 4 23 33 19 44 -5 65 18 48 55 -10 22 -16 25 -46 20 -32 -5 -35 -4 -35 19
0 22 2 23 20 14 44 -23 83 17 60 61 -10 17 -18 20 -46 16 -31 -5 -34 -4 -34
21 0 20 3 23 12 14 32 -32 87 4 73 48 -8 25 -50 37 -70 20 -13 -10 -15 -8 -15
14 0 23 3 25 32 19 23 -5 34 -2 45 12 19 27 16 42 -11 60 -19 13 -29 14 -45 5
-19 -9 -21 -8 -21 13 0 20 4 23 30 19 32 -5 60 11 60 35 0 16 -57 43 -76 36
-7 -2 -15 0 -19 6 -3 6 -22 11 -41 11 -19 0 -34 5 -34 10 0 15 87 12 94 -2 5
-10 7 -10 12 0 7 14 44 16 44 2 0 -5 7 -10 15 -10 8 0 15 -9 15 -20 0 -19 7
-20 235 -20 202 0 235 2 235 15 0 13 -28 15 -195 15 -167 0 -195 2 -195 15 0
13 22 15 138 15 75 0 154 3 175 6 39 7 51 24 17 24 -11 0 -20 5 -20 10 0 6
-110 10 -310 10 l-310 0 0 30 0 30 285 0 c183 0 285 4 285 10 0 6 -108 10
-303 10 l-303 0 -35 36 c-67 69 -215 144 -286 144 l-33 0 -2 -92 c-1 -72 -3
-79 -5 -32 -4 58 -5 61 -28 57 -21 -5 -24 -11 -27 -64 l-3 -59 118 0 c71 0
117 -4 117 -10 0 -6 -52 -10 -132 -11 -73 -1 -125 -3 -115 -6 16 -4 17 -40 15
-616 l-3 -612 -42 -3 -43 -3 0 460 0 461 -120 0 c-73 0 -120 4 -120 10 0 6 47
10 120 10 l120 0 0 134 0 135 28 4 c15 2 -10 5 -55 6 -48 0 -83 5 -83 11 0 6
18 10 41 10 24 0 38 4 34 10 -3 6 3 10 14 10 20 0 21 6 21 91 l0 92 -32 -7
c-106 -20 -247 -133 -305 -242 -64 -121 -63 -112 -63 -721 0 -485 -2 -553 -15
-553 -20 0 -19 -17 2 -38 16 -16 13 -17 -46 -20 -35 -2 -65 -1 -68 1 -2 2 -14
56 -28 118 -38 185 -55 420 -39 543 6 40 10 46 30 46 17 0 24 6 24 20 0 19 -8
20 -272 22 l-273 3 0 25 0 25 252 3 c252 2 253 2 257 25 3 12 12 57 21 100 8
44 17 83 21 88 3 5 30 9 60 9 82 0 65 20 -18 22 l-73 1 65 7 65 7 -77 1 c-72
2 -78 0 -78 -18 0 -11 5 -20 12 -20 6 0 3 -9 -8 -21 -11 -12 -25 -53 -34 -102
l-15 -82 -44 -3 -44 -3 7 57 c11 94 26 143 47 149 10 4 19 15 19 26 0 18 -10
19 -260 19 l-260 0 0 25 0 25 240 0 c153 0 240 4 240 10 0 6 -100 10 -280 10
-264 0 -280 1 -280 18 0 56 49 372 76 495 l16 67 160 0 c146 0 159 1 156 18
-3 15 -21 17 -186 20 -153 2 -182 5 -182 17 0 13 27 15 170 15 206 0 235 18
36 22 l-134 3 38 130 c21 72 53 169 70 218 l32 87 49 0 c27 0 49 5 49 10 0 6
-53 10 -140 10 -118 0 -140 2 -140 15 0 13 21 15 130 15 80 0 130 4 130 10 0
6 -11 10 -25 10 -28 0 -29 3 -15 31 10 18 24 19 265 19 l255 0 0 30 0 30 -385
0 -385 0 0 35 0 35 355 0 c348 0 355 0 355 20 0 19 -7 20 -185 20 -102 0 -185
3 -185 6 0 3 5 14 10 25 9 15 22 19 68 19 104 0 141 27 306 223 179 214 283
327 302 327 8 0 14 9 14 20 0 19 -7 20 -240 20 -235 0 -240 0 -240 20 0 20 5
21 267 20 l266 -1 76 74 c42 41 116 108 165 151 l88 76 104 0 c86 0 104 3 104
15 0 11 -12 15 -42 16 -217 7 -283 14 -283 31 0 9 17 30 39 47 29 24 49 31 80
31 l41 -1 -39 -34 -39 -35 61 0 c61 0 64 1 154 68 213 157 463 311 682 418
l109 54 268 0 c262 0 269 0 269 20 0 19 -7 20 -255 20 -255 0 -255 0 -255 22
l0 21 380 -6 c371 -6 380 -5 380 14 0 18 -9 19 -190 19 -162 0 -190 2 -190 15
0 13 26 15 175 15 110 0 175 4 175 10 0 6 -65 10 -172 11 -197 0 -198 -1 28
64 411 119 869 175 1306 161 250 -8 288 -13 288 -37 0 -18 10 -19 157 -19 135
0 177 -4 304 -30 376 -77 726 -201 1024 -361 521 -281 978 -652 1390 -1128 50
-57 106 -114 125 -127 l35 -24 -263 0 -262 0 0 -65 0 -65 40 0 40 0 0 -55 0
-55 -85 0 -85 0 0 -40 c0 -38 2 -40 30 -40 28 0 30 -3 30 -35 l0 -35 335 0
335 0 0 -70 0 -70 60 0 60 0 0 -70 0 -70 109 0 109 0 41 -147 c50 -180 105
-445 125 -613 16 -124 36 -380 36 -452 l0 -38 -55 0 -55 0 0 -45 c0 -43 1 -45
30 -45 28 0 30 -2 30 -40 0 -36 3 -40 25 -40 16 0 25 -6 25 -15 0 -13 -25 -15
-165 -15 l-165 0 -1 -42 c0 -39 -5 -46 -42 -73 -22 -17 -50 -46 -61 -65 -20
-34 -21 -50 -21 -403 0 -202 -3 -367 -7 -367 -31 0 -253 270 -229 278 6 2 11
8 11 13 0 5 -40 9 -90 9 -53 0 -90 4 -90 10 0 6 -50 10 -130 10 -92 0 -130 3
-130 12 0 8 53 10 208 5 126 -3 198 -2 185 3 -13 5 -23 14 -23 20 0 6 -75 10
-220 10 -213 0 -220 1 -220 20 0 19 7 20 255 20 l255 0 31 -62 c32 -64 106
-178 114 -178 3 0 -6 17 -19 38 -42 68 -107 202 -96 202 5 0 10 5 10 10 0 6
-45 10 -115 10 -70 0 -115 4 -115 10 0 6 43 10 108 11 59 0 101 3 95 6 -18 7
-67 167 -94 303 -20 98 -23 147 -24 335 0 121 3 248 7 281 7 60 7 62 -18 67
-13 2 -27 0 -31 -5 -3 -6 -8 -90 -11 -187 -7 -260 20 -461 93 -677 19 -58 35
-108 35 -110 0 -2 -20 -4 -44 -4 -38 0 -45 3 -50 25 l-6 25 -165 0 c-158 0
-165 1 -165 20 0 19 7 20 156 20 145 0 156 1 149 18 -20 53 -55 191 -71 282
-20 111 -27 449 -12 577 l8 62 -48 15 -47 15 55 -1 c157 -2 180 1 180 22 0 19
-7 20 -240 20 -233 0 -240 1 -240 20 0 19 7 20 219 20 136 0 222 4 226 10 6
10 -82 14 -196 10 -45 -1 -48 0 -84 49 -46 64 -101 108 -189 155 -119 62 -106
159 -106 -799 0 -550 -3 -835 -10 -835 -7 0 -10 279 -10 816 0 740 -1 816 -16
810 -9 -3 -20 -6 -26 -6 -7 0 -9 -263 -7 -812 l4 -813 -45 0 -45 0 -3 653 -2
652 -230 0 -230 0 0 25 0 25 230 0 229 0 3 165 3 165 -32 0 c-18 0 -61 -11
-97 -24 -124 -45 -214 -120 -276 -230 l-32 -56 -79 0 c-75 0 -79 -1 -79 -22
-1 -17 -16 -32 -62 -58 -112 -64 -196 -187 -218 -320 -7 -41 -10 -192 -8 -405
l3 -340 -99 3 c-117 4 -117 19 -1 25 70 3 66 3 -32 5 -64 1 -113 -2 -113 -7 0
-38 11 -41 126 -41 l114 0 0 -60 c0 -57 1 -60 25 -60 14 0 25 -5 25 -11 0 -9
-23 -10 -82 -6 -46 4 -107 7 -135 7 -83 0 -62 19 25 23 75 3 75 3 -21 5 -89 2
-98 0 -95 -15 3 -15 21 -19 131 -27 96 -7 127 -12 127 -22 0 -11 -23 -14 -105
-14 -106 0 -121 -6 -91 -36 11 -10 40 -14 105 -14 l91 0 0 -110 0 -110 -215 0
-215 0 0 -30 c0 -20 5 -30 15 -30 8 0 15 -9 15 -20 0 -19 7 -20 199 -20 l198
0 7 -53 c3 -28 6 -109 6 -179 l0 -128 -95 0 c-88 0 -95 -1 -95 -20 0 -11 7
-20 15 -20 8 0 15 -9 15 -20 0 -18 7 -20 80 -20 l80 0 0 -60 c0 -57 -1 -60
-25 -60 -16 0 -25 -6 -25 -16 0 -17 23 -44 38 -44 8 0 22 -22 22 -36 0 -2 -27
-4 -60 -4 -57 0 -60 -1 -60 -25 0 -16 6 -25 15 -25 8 0 15 -7 15 -15 0 -12 13
-15 60 -15 33 0 60 -4 60 -10 0 -6 -57 -10 -150 -10 l-150 0 0 -45 c0 -43 1
-45 30 -45 28 0 30 -3 30 -35 l0 -35 186 0 186 0 77 -36 c106 -51 173 -81 193
-87 9 -3 24 -20 33 -36 l16 -31 -76 0 c-73 0 -75 -1 -75 -25 0 -16 6 -25 15
-25 8 0 15 -7 15 -15 0 -12 17 -15 94 -15 71 0 97 -4 106 -15 11 -13 0 -15
-89 -15 -94 0 -101 -1 -101 -20 0 -11 5 -20 10 -20 6 0 10 -7 10 -15 0 -13 23
-15 149 -15 144 0 151 -1 222 -31 102 -43 167 -66 212 -72 37 -6 37 -5 37 29
l0 34 50 0 c28 0 50 5 50 10 0 6 -42 10 -105 10 -87 0 -105 3 -105 15 0 8 -7
15 -15 15 -13 0 -15 28 -15 188 0 103 -3 312 -7 464 l-6 278 52 0 51 0 -2
-465 -3 -465 85 -1 c47 -1 92 -2 100 -3 8 -2 26 -4 40 -5 l25 -2 -22 -11 c-17
-8 -23 -20 -23 -45 0 -21 5 -33 14 -33 25 0 100 30 138 55 33 22 48 25 133 25
78 0 95 3 95 15 0 13 -24 15 -160 15 -136 0 -160 2 -160 15 0 13 23 15 145 15
90 0 145 4 145 10 0 6 -16 10 -35 10 l-36 0 18 25 c17 23 23 24 121 25 78 0
103 3 100 13 -4 9 -54 13 -196 15 -184 2 -192 3 -192 22 0 19 8 20 183 22 100
1 152 3 115 5 l-67 4 11 29 c11 34 28 40 28 10 0 -20 7 -20 285 -20 277 0 285
1 285 20 0 19 -8 20 -237 22 -230 3 -238 4 -238 23 0 19 8 20 218 23 261 3
296 20 50 24 l-167 3 42 28 42 27 210 0 c203 0 210 1 210 20 0 19 -7 20 -185
20 -117 0 -185 4 -185 10 0 6 -65 10 -175 10 -149 0 -175 2 -175 15 0 13 26
15 175 15 110 0 175 -4 175 -10 0 -6 63 -10 170 -10 107 0 170 4 170 10 0 6
-55 10 -146 10 l-146 0 24 29 23 30 178 0 c150 1 177 3 177 16 0 13 -27 15
-180 15 -153 0 -180 2 -180 15 0 13 25 15 165 15 103 0 165 4 165 10 0 6 -50
10 -131 10 l-130 0 26 43 c15 23 47 84 71 135 l44 92 165 0 c158 0 165 1 165
20 0 19 -7 20 -230 20 -223 0 -230 1 -230 20 0 19 7 20 210 20 163 0 210 3
209 12 -3 20 12 68 22 68 5 0 9 5 9 10 0 6 -43 10 -110 10 -67 0 -110 4 -110
10 0 6 42 10 105 10 l105 0 0 60 0 61 133 -5 c86 -2 108 -1 62 3 l-70 7 65 4
c37 3 -11 7 -110 10 -132 4 -174 8 -172 18 1 7 -8 12 -23 12 -24 0 -25 2 -25
64 l0 63 45 -21 c24 -12 44 -27 45 -33 0 -9 22 -13 76 -13 47 0 73 -4 69 -10
-9 -14 -142 -13 -147 1 -2 6 -13 9 -23 6 -19 -5 -19 -5 3 -12 12 -4 22 -15 22
-26 0 -18 10 -19 175 -19 110 0 175 4 175 10 0 6 -34 11 -77 12 l-78 2 75 6
c41 4 61 7 44 8 l-31 2 42 44 c45 47 65 101 65 180 0 42 -2 46 -25 46 -19 0
-25 -5 -25 -22 0 -113 -102 -209 -220 -208 l-35 1 40 19 c51 25 102 83 115
129 5 20 10 59 10 88 l0 51 -39 -5 c-78 -11 -165 38 -200 111 -15 31 -21 62
-21 114 0 40 -3 72 -7 72 -5 0 -22 -9 -40 -19 l-31 -20 -4 147 c-3 132 -5 151
-25 183 -13 20 -23 39 -23 43 0 4 19 6 43 4 l42 -3 3 -132 3 -133 24 0 c23 0
25 -3 25 -50 0 -54 1 -55 31 -40 14 8 19 21 19 50 0 29 4 40 15 40 10 0 15
-10 15 -30 l0 -30 90 0 90 0 0 40 c0 22 5 40 10 40 6 0 10 -4 10 -10 0 -6 68
-10 185 -10 228 0 255 18 33 22 -108 2 -153 6 -155 15 -3 9 31 13 139 16 142
3 142 3 -39 5 l-183 2 0 25 0 25 158 -4 c86 -2 130 -2 97 1 -33 2 -64 8 -69
14 -6 5 -52 9 -103 9 -123 0 -124 19 0 22 l92 2 -87 3 -88 4 0 49 0 50 90 0
c73 0 90 3 90 15 0 11 11 15 40 15 22 0 40 5 40 10 0 6 -45 10 -115 10 -94 0
-115 3 -115 15 0 12 22 15 113 18 112 3 112 3 -30 5 -95 1 -144 -2 -149 -9 -3
-6 0 -15 7 -20 8 -5 -78 -9 -208 -9 l-223 0 0 30 0 30 295 0 c256 0 295 2 295
15 0 12 -14 15 -65 15 -51 0 -65 3 -65 15 0 13 38 15 286 15 l285 0 -3 33 -3
32 -388 3 -388 2 3 33 3 32 353 3 c304 2 352 4 352 17 0 13 41 15 300 15 l300
0 0 35 0 35 -480 0 -480 0 0 45 0 45 440 0 c433 0 440 0 440 20 0 20 -8 20
-517 22 l-518 3 -3 45 c-13 213 -83 607 -152 848 -22 78 -40 144 -40 147 0 3
297 5 660 5 l660 0 0 60 0 60 -765 0 -765 0 0 70 0 70 700 0 700 0 0 30 0 30
-656 0 -655 0 -23 53 -23 52 158 3 159 2 0 45 0 45 -560 0 -560 0 0 50 0 50
515 0 515 0 0 25 0 25 -176 0 -175 0 24 33 c65 88 69 188 14 320 -20 48 -37
89 -37 92 0 3 27 5 60 5 33 0 60 -4 60 -10 0 -6 35 -10 85 -10 108 0 115 19 8
22 l-78 2 70 6 c51 5 21 7 -107 8 -151 2 -178 4 -178 17 0 10 -10 15 -29 15
-28 0 -34 9 -108 151 l-78 151 -130 1 c-169 2 -180 21 -14 25 66 1 119 6 117
11 -2 4 -28 49 -58 99 l-55 91 -87 1 c-52 0 -88 4 -88 10 0 6 32 10 75 10 74
0 75 0 64 21 -17 32 -164 224 -236 308 -50 59 -63 81 -63 108 l0 33 -395 0
-395 0 0 35 0 35 362 2 c314 3 363 5 366 18 2 12 -7 14 -42 12 -45 -4 -46 -4
-168 109 -513 471 -1124 813 -1783 998 l-70 20 158 0 c97 1 157 5 157 11 0 6
-53 10 -140 10 -117 0 -140 2 -140 15 0 12 24 15 133 18 128 3 126 3 -40 5
-176 2 -197 -3 -155 -34 16 -13 16 -13 -1 -14 -9 0 -77 13 -150 29 -72 16
-181 37 -242 46 -60 9 -126 20 -145 25 l-35 9 43 -2 c28 -2 42 2 42 10 0 10
-45 13 -187 15 -170 3 -188 5 -191 21 -3 16 10 17 172 17 111 0 176 4 176 10
0 6 -82 10 -225 10 l-225 0 0 -24z m40 -106 c0 -19 -7 -20 -230 -20 -223 0
-230 1 -230 20 0 19 7 20 230 20 223 0 230 -1 230 -20z m-1290 -85 l0 -35
-415 0 -415 0 0 35 0 35 415 0 415 0 0 -35z m315 -155 l0 -25 -298 -3 c-258
-2 -298 0 -303 13 -4 8 -4 22 0 30 5 13 45 15 303 13 l298 -3 0 -25z m873 -47
c-3 -16 -23 -18 -221 -21 -212 -2 -217 -2 -217 18 0 19 6 20 221 20 205 0 220
-1 217 -17z m-583 -4 c-22 -4 -114 -22 -205 -40 -393 -75 -821 -232 -1165
-428 -116 -66 -120 -68 -123 -45 l-3 24 -345 0 -344 0 0 30 0 30 374 0 c214 0
376 -4 378 -9 2 -5 69 24 151 64 255 127 556 237 834 304 104 25 169 38 393
74 14 2 41 4 60 4 l35 1 -40 -9z m1103 -53 c274 -36 517 -91 755 -170 117 -39
127 -44 90 -45 -42 -1 -43 -2 -43 -36 0 -31 3 -35 25 -35 20 0 25 -5 25 -25
l0 -25 163 0 162 0 143 -80 c78 -44 195 -115 260 -157 l117 -78 -197 -3 -198
-2 0 -45 c0 -43 1 -45 30 -45 28 0 30 -3 30 -35 l0 -35 278 0 c228 -1 280 -3
296 -15 18 -13 4 -15 -132 -15 l-152 0 0 -50 c0 -49 1 -50 30 -50 28 0 30 -3
30 -35 l0 -35 221 0 221 0 132 -132 c73 -73 184 -191 248 -263 118 -134 129
-141 278 -208 29 -13 31 -16 13 -16 -26 -1 -30 -25 -9 -47 11 -10 40 -14 104
-14 l90 0 22 -52 c70 -160 3 -307 -165 -364 -42 -14 -57 -14 -105 -4 -55 12
-57 13 -355 315 -165 166 -340 336 -390 377 -681 564 -1406 874 -2250 962
-186 19 -731 15 -890 -7 -752 -105 -1394 -375 -1985 -835 -206 -161 -477 -421
-654 -629 l-79 -93 -198 0 c-110 0 -199 3 -199 6 0 3 5 25 11 50 l11 44 169 0
169 0 0 60 0 60 -540 0 -540 0 0 65 0 65 583 0 584 0 92 113 c130 158 318 362
416 451 l83 76 181 0 181 0 0 30 0 30 -370 0 -370 0 0 35 0 35 340 0 c296 0
340 2 340 15 0 12 -13 15 -57 15 l-58 1 34 27 c194 156 486 341 726 461 359
179 753 305 1140 366 132 21 196 25 363 25 144 0 202 3 202 11 0 16 389 5 548
-15z m1552 -261 l0 -25 -295 0 -295 0 0 25 0 25 295 0 295 0 0 -25z m-4753 -5
c3 -11 14 -20 24 -20 12 0 19 -7 19 -20 0 -20 -5 -20 -317 -18 l-318 3 -3 23
c-8 53 -15 52 299 52 282 0 291 -1 296 -20z m753 -5 l0 -25 -300 0 -300 0 0
25 0 25 300 0 300 0 0 -25z m-290 -299 c0 -2 -46 -37 -102 -77 -57 -40 -147
-108 -201 -151 -92 -74 -102 -79 -140 -76 l-42 3 95 76 c52 43 144 111 204
153 90 63 115 76 147 76 22 0 39 -2 39 -4z m5040 -151 l0 -35 -397 2 c-375 3
-398 4 -401 21 -9 48 -19 47 403 47 l395 0 0 -35z m-3324 9 c-367 -42 -749
-138 -1094 -275 -72 -29 -138 -49 -160 -49 l-37 1 29 16 c98 52 493 181 696
227 235 52 516 94 630 94 36 0 14 -5 -64 -14z m1474 -34 c0 -19 -7 -20 -220
-20 -177 0 -220 3 -220 13 0 8 3 17 7 20 3 4 102 7 220 7 206 0 213 -1 213
-20z m-3770 -282 c0 -2 -59 -64 -131 -138 -136 -140 -389 -437 -401 -471 -6
-15 -17 -19 -57 -19 -34 0 -53 5 -58 15 -7 11 -37 15 -138 18 l-130 3 155 2
155 3 42 57 c64 88 227 274 359 410 115 118 121 122 162 122 23 0 42 -1 42 -2z
m944 -53 c4 -11 -20 -28 -93 -64 -183 -93 -505 -290 -623 -383 -31 -24 -45
-29 -80 -26 l-43 3 100 72 c154 110 333 218 530 320 99 51 185 93 191 93 7 0
14 -7 18 -15z m-1005 -655 c21 0 10 -15 -50 -65 -33 -27 -98 -89 -145 -137
-83 -86 -86 -88 -132 -88 l-46 0 59 61 c33 34 110 106 170 160 91 82 112 96
121 84 6 -8 16 -15 23 -15z m-903 -243 c1 -46 7 -75 28 -114 14 -29 31 -53 37
-53 6 0 6 6 -1 19 -14 27 -13 41 5 41 8 0 15 -9 15 -20 0 -19 7 -20 135 -20
79 0 135 -4 135 -9 0 -28 -140 -101 -193 -101 -98 0 -215 86 -239 174 l-12 46
-393 0 -393 0 0 35 0 35 390 0 c338 0 391 2 396 15 4 10 20 15 48 15 l41 0 1
-63z m7704 -94 c13 -32 30 -64 39 -72 9 -7 12 -15 6 -17 -5 -2 -8 -26 -7 -54
3 -41 7 -50 23 -50 12 0 19 -7 19 -20 0 -19 -7 -20 -250 -20 -243 0 -250 1
-250 20 0 19 7 20 213 21 116 1 200 4 185 6 -25 4 -28 8 -28 43 0 37 1 39 38
43 20 2 -11 4 -70 5 -140 3 -145 21 -5 24 56 1 84 3 61 5 -39 4 -41 6 -60 56
-10 28 -20 55 -22 59 -2 4 16 8 41 8 l45 0 22 -57z m-7201 -104 c-23 -28 -60
-62 -81 -75 -21 -13 -91 -88 -156 -167 -135 -162 -170 -187 -265 -193 l-62 -4
37 14 c64 25 86 45 200 185 62 75 146 171 187 214 l74 77 55 0 54 0 -43 -51z
m-584 -449 c-3 -5 -1 -10 4 -10 6 0 11 -11 11 -25 l0 -25 -261 0 -260 0 3 23
c3 22 3 22 223 25 145 2 215 6 205 12 -11 7 -1 10 33 10 30 0 46 -4 42 -10z
m7676 -120 c48 0 49 -1 49 -30 l0 -30 -400 0 -400 0 0 30 0 30 339 0 c254 0
342 3 347 12 6 9 9 9 12 0 2 -7 23 -12 53 -12z m-7841 -268 c0 -4 -17 -60 -39
-123 -21 -64 -51 -164 -66 -222 l-28 -107 -44 0 -45 0 7 33 c4 17 27 101 51
184 24 84 44 155 44 158 0 3 -54 5 -119 5 -69 0 -122 4 -126 10 -4 6 40 10
124 10 l130 0 16 30 c13 26 21 30 55 30 22 0 40 -4 40 -8z m8220 -146 c22 -58
100 -394 124 -531 25 -148 56 -411 56 -480 0 -33 -2 -35 -35 -35 l-35 0 0 -50
0 -50 41 0 40 0 -3 -47 -3 -48 -42 -3 -41 -3 -6 73 c-3 40 -8 127 -11 193 -12
249 -67 584 -140 849 -19 70 -35 134 -35 142 0 10 12 14 40 14 34 0 42 -4 50
-24z m-7001 -2061 l-6 -50 -2 48 -1 47 -205 0 c-198 0 -205 1 -205 20 0 19 7
20 205 20 l205 0 2 618 3 617 5 -635 c3 -349 2 -657 -1 -685z m5718 1149 c20
-6 21 -8 8 -28 -12 -17 -15 -111 -17 -521 -3 -475 -4 -500 -21 -503 -10 -2
-29 -1 -43 2 l-24 6 0 491 c0 554 -1 543 70 558 3 0 15 -2 27 -5z m-5464 -160
c3 -4 0 -16 -8 -28 -13 -17 -15 -105 -15 -578 l0 -558 -45 0 -45 0 0 50 0 50
-80 0 c-47 0 -80 4 -80 10 0 6 33 10 80 10 l80 0 0 500 0 501 25 24 c23 24 73
34 88 19z m72 -1174 c18 0 25 -5 25 -20 0 -19 -7 -20 -210 -20 -203 0 -210 1
-210 20 0 19 7 20 178 20 l177 0 -3 522 c-1 288 1 534 5 548 4 14 9 -221 11
-522 l2 -548 25 0z m-1118 702 c1 -163 21 -319 58 -460 14 -52 25 -97 25 -102
0 -4 -18 -10 -40 -12 l-41 -4 -19 65 c-46 148 -80 382 -80 553 0 102 3 108 54
108 l41 0 2 -148z m7541 -269 l2 -243 -45 0 -45 0 0 246 0 245 43 -3 42 -3 3
-242z m439 110 l3 -133 -45 0 -45 0 0 136 0 135 43 -3 42 -3 2 -132z m-1527
-323 c0 -15 7 -20 25 -20 25 0 25 -1 25 -80 l0 -80 -29 0 c-58 0 -61 4 -61
100 0 85 4 96 33 99 4 1 7 -8 7 -19z m-5720 -115 l0 -95 -45 0 -45 0 0 95 0
95 45 0 45 0 0 -95z m5842 -82 c13 -27 -7 -62 -26 -43 -6 6 -87 10 -218 10
-201 0 -208 1 -208 20 0 19 7 20 215 20 l215 0 2 68 2 67 3 -60 c2 -33 8 -70
15 -82z m963 -253 l0 -365 -42 -3 -43 -3 0 371 0 371 43 -3 42 -3 0 -365z
m-8427 263 c-3 -16 -23 -18 -231 -21 -222 -2 -227 -2 -227 18 0 19 6 20 231
20 214 0 230 -1 227 -17z m1583 -103 c32 0 39 -3 39 -20 0 -30 47 -28 53 3 2
12 4 -183 3 -433 l-1 -455 -2 413 -3 412 -230 0 c-223 0 -230 1 -230 20 0 19
7 20 203 22 111 1 183 3 160 5 -42 4 -43 5 -42 41 1 23 3 29 6 15 4 -19 11
-23 44 -23z m5587 -207 l2 -233 -50 0 -50 0 0 228 c0 126 3 232 7 236 4 4 25
6 48 4 l40 -3 3 -232z m-5853 207 c0 -13 -30 -15 -197 -18 -161 -2 -198 0
-198 11 0 8 3 17 7 21 4 3 93 5 197 4 162 -3 191 -5 191 -18z m6425 -100 c0
-19 -7 -20 -199 -20 -192 0 -222 4 -206 30 4 6 83 10 206 10 192 0 199 -1 199
-20z m-6122 -408 c2 -343 0 -393 -13 -398 -19 -8 -19 -21 0 -40 12 -12 15 -42
15 -135 l0 -119 -45 0 -45 0 0 546 0 545 43 -3 42 -3 3 -393z m4712 348 c0
-19 -7 -20 -225 -20 -218 0 -225 1 -225 20 0 19 7 20 225 20 218 0 225 -1 225
-20z m460 -200 c0 -19 -7 -20 -225 -20 -218 0 -225 1 -225 20 0 19 7 20 225
20 218 0 225 -1 225 -20z m540 -130 l0 -30 -345 0 -345 0 0 23 c0 13 3 27 7
30 3 4 159 7 345 7 l338 0 0 -30z m-100 -540 c0 -300 -3 -460 -10 -460 -7 0
-10 160 -10 460 0 300 3 460 10 460 7 0 10 -160 10 -460z m1090 405 c0 -14
-57 -117 -106 -192 -48 -74 -57 -83 -84 -83 -30 0 -43 -24 -17 -33 7 -3 -2
-20 -28 -46 -34 -36 -45 -41 -83 -41 l-44 0 58 63 c63 68 146 190 190 280 28
56 29 57 71 57 24 0 43 -2 43 -5z m-7630 -130 l0 -25 -300 0 -300 0 0 25 0 25
300 0 300 0 0 -25z m1945 -140 c-7 -25 -11 -54 -8 -65 5 -19 0 -20 -176 -20
-154 0 -181 2 -181 15 0 13 24 15 153 16 83 1 144 3 134 6 -16 4 -18 11 -12
41 9 51 11 52 60 52 l44 0 -14 -45z m-617 -22 c150 -5 182 -9 182 -21 0 -12
-37 -13 -267 -7 -148 4 -270 9 -272 10 -1 2 0 8 4 14 7 13 96 14 353 4z m4932
-128 l0 -35 -400 0 -400 0 0 35 0 35 400 0 400 0 0 -35z m990 -55 c-31 -25
-153 -76 -200 -85 -32 -6 -39 -13 -62 -66 l-26 -59 -45 0 -45 0 26 59 c23 53
30 60 61 66 49 9 138 46 186 78 28 18 54 26 85 26 l45 1 -25 -20z m-6320 -335
c0 -58 -3 -105 -6 -105 -4 0 -24 5 -45 12 l-39 11 0 88 c0 94 1 97 58 98 l32
1 0 -105z m-140 40 l0 -25 -265 0 c-250 0 -265 1 -265 18 0 10 3 22 7 25 3 4
123 7 265 7 l258 0 0 -25z"/>
<path d="M8966 5813 c72 -110 155 -257 151 -268 -3 -7 4 -21 16 -32 12 -10 40
-58 62 -105 l40 -87 188 -1 c118 0 187 4 187 10 0 6 -34 11 -77 12 l-78 2 70
6 70 6 -89 2 c-75 2 -87 0 -82 -13 4 -13 -9 -15 -84 -15 -112 0 -122 19 -12
22 l77 2 -65 3 c-94 5 -106 16 -25 23 l70 6 -80 2 -81 2 -27 55 -27 55 90 0
c53 0 90 4 90 10 0 6 -38 10 -95 10 -120 0 -126 18 -7 23 l87 3 -97 2 -96 2
-23 38 c-49 81 -161 252 -166 252 -3 0 3 -12 13 -27z"/>
<path d="M7570 5150 c0 -23 4 -30 20 -30 13 0 20 -7 20 -20 0 -19 7 -20 265
-20 229 0 265 2 265 15 0 13 -31 15 -220 15 l-220 0 0 25 0 25 200 0 c127 0
200 4 200 10 0 6 -95 10 -265 10 l-265 0 0 -30z"/>
<path d="M7780 4960 c0 -36 3 -40 25 -40 20 0 25 -5 25 -25 l0 -25 381 0 380
0 -3 23 -3 22 -312 3 -313 2 0 25 0 25 287 2 c218 2 287 6 291 16 3 9 -77 12
-377 12 l-381 0 0 -40z"/>
<path d="M1530 4095 c0 -16 6 -25 15 -25 8 0 15 -9 15 -20 0 -19 7 -20 260
-20 224 0 260 2 260 15 0 13 -31 15 -215 15 -208 0 -215 1 -215 20 0 19 7 20
195 20 123 0 195 4 195 10 0 6 -92 10 -255 10 l-255 0 0 -25z"/>
<path d="M3190 3227 c0 -7 5 -18 12 -25 15 -15 3 -16 -23 -2 -16 9 -19 7 -19
-15 0 -22 3 -24 19 -15 26 14 38 13 23 -2 -16 -16 -15 -50 1 -67 10 -11 7 -13
-15 -9 -22 4 -28 1 -28 -14 0 -15 5 -17 28 -12 22 5 25 4 15 -7 -7 -7 -13 -22
-13 -34 0 -12 6 -27 13 -34 10 -11 7 -12 -15 -7 -24 5 -28 3 -28 -14 0 -17 4
-19 28 -14 22 5 25 4 15 -7 -7 -7 -13 -22 -13 -34 0 -12 6 -27 13 -34 10 -11
7 -12 -15 -7 -23 5 -28 3 -28 -14 0 -16 4 -18 24 -10 23 8 23 8 13 -21 -9 -22
-9 -34 1 -49 14 -22 9 -25 -19 -10 -16 9 -19 7 -19 -15 0 -22 3 -24 19 -15 26
14 38 13 23 -2 -16 -16 -15 -50 1 -67 10 -11 7 -13 -15 -9 -22 4 -28 1 -28
-14 0 -15 5 -17 28 -12 22 5 25 4 15 -7 -7 -7 -13 -22 -13 -34 0 -12 6 -27 13
-34 10 -11 7 -12 -15 -7 -24 5 -28 3 -28 -14 0 -17 4 -19 28 -14 22 5 25 4 15
-7 -7 -7 -13 -22 -13 -34 0 -12 6 -27 13 -34 10 -11 7 -12 -15 -7 -23 5 -28 3
-28 -14 0 -16 4 -18 24 -10 23 8 23 8 13 -21 -9 -22 -9 -34 1 -49 14 -22 9
-25 -19 -10 -16 9 -19 7 -19 -15 0 -22 3 -24 19 -15 26 14 38 13 23 -2 -16
-16 -15 -50 1 -67 10 -11 7 -13 -15 -9 -22 4 -28 1 -28 -14 0 -15 5 -17 28
-12 22 5 25 4 15 -7 -7 -7 -13 -22 -13 -34 0 -12 6 -27 13 -34 10 -11 8 -13
-10 -8 -16 3 -23 1 -23 -9 0 -8 10 -14 22 -14 17 0 19 -3 10 -12 -15 -15 -15
-51 0 -66 9 -9 9 -18 0 -37 -18 -40 -15 -65 11 -74 12 -5 28 -6 35 -3 7 2 22
-4 34 -14 21 -19 21 -19 13 1 -15 37 -17 75 -6 88 8 10 7 22 -1 45 -9 24 -9
37 1 58 8 19 9 30 1 38 -14 14 -13 59 2 74 10 10 10 17 0 32 -15 24 -16 62 -1
77 8 8 8 17 0 31 -14 26 -14 65 -1 78 6 6 6 20 -2 41 -9 25 -9 38 1 59 8 19 9
30 1 38 -14 14 -13 59 2 74 10 10 10 17 0 32 -15 24 -16 62 -1 77 8 8 8 17 0
31 -14 26 -14 65 -1 78 8 8 7 19 -1 38 -10 21 -10 34 -1 59 8 21 8 35 2 41
-14 14 -13 52 2 76 10 15 10 22 0 32 -15 15 -16 60 0 76 15 15 -10 44 -39 47
-10 1 -28 7 -40 13 -19 10 -23 10 -23 -1z"/>
<path d="M6390 965 c0 -16 6 -25 15 -25 8 0 15 -9 15 -20 0 -19 7 -20 255 -20
220 0 255 2 255 15 0 13 -30 15 -210 15 -203 0 -210 1 -210 20 0 19 7 20 195
20 123 0 195 4 195 10 0 6 -92 10 -255 10 l-255 0 0 -25z"/>
<path d="M2430 135 l0 -55 35 0 c34 0 35 -1 35 -40 l0 -40 550 0 550 0 0 35 0
35 -460 0 -460 0 0 40 0 40 425 0 c418 0 425 0 425 20 0 20 -7 20 -550 20
l-550 0 0 -55z"/>
</g>
</svg>
