<?xml version="1.0" standalone="no"?>
<!DOCTYPE svg PUBLIC "-//W3C//DTD SVG 20010904//EN"
 "http://www.w3.org/TR/2001/REC-SVG-20010904/DTD/svg10.dtd">
<svg version="1.0" xmlns="http://www.w3.org/2000/svg"
 width="482.000000pt" height="486.000000pt" viewBox="0 0 482.000000 486.000000"
 preserveAspectRatio="xMidYMid meet">
<metadata>
Created by potrace 1.16, written by Peter Selinger 2001-2019
</metadata>
<g transform="translate(0.000000,486.000000) scale(0.100000,-0.100000)"
fill="#ffffff" stroke="none">
<path d="M2060 4805 c-15 -16 -30 -23 -42 -19 -10 3 -18 1 -18 -4 0 -13 -53
-68 -72 -75 -14 -5 -18 -18 -18 -52 0 -37 -3 -44 -17 -43 -45 3 -63 -3 -76
-29 -8 -16 -12 -33 -10 -39 2 -6 -3 -14 -12 -17 -8 -4 -15 -2 -15 3 0 6 -7 10
-15 10 -9 0 -18 7 -21 15 -4 10 -11 12 -22 6 -10 -4 -22 -6 -29 -4 -6 2 -16
-5 -22 -15 -7 -13 -18 -18 -29 -15 -10 2 -29 -6 -45 -21 -16 -14 -32 -26 -36
-26 -5 0 -11 -9 -14 -21 -3 -11 -15 -23 -26 -26 -12 -3 -21 -12 -21 -19 0 -8
-14 -17 -31 -21 -20 -4 -37 -16 -48 -35 -9 -15 -24 -31 -33 -34 -10 -3 -18
-10 -18 -15 0 -5 -9 -18 -21 -30 -20 -20 -20 -22 -3 -40 19 -21 54 -26 55 -6
0 6 5 -1 11 -18 11 -31 37 -57 50 -49 3 2 19 -1 35 -8 15 -6 32 -10 36 -9 5 1
31 -10 59 -24 28 -14 57 -24 64 -21 8 3 16 1 19 -4 4 -6 -2 -10 -12 -11 -16 0
-16 -1 2 -9 30 -13 30 -13 31 25 0 19 8 43 17 53 9 10 14 22 10 25 -3 4 1 7
10 7 27 0 48 -55 45 -113 -3 -51 -4 -52 -37 -55 -18 -2 -38 1 -44 7 -16 16
-42 14 -57 -4 -11 -13 -10 -14 4 -9 10 4 16 1 16 -9 0 -26 -28 -27 -52 -2 -26
28 -73 33 -82 10 -3 -8 -18 -15 -34 -15 -15 0 -33 -5 -40 -12 -16 -16 -15 -47
2 -54 8 -3 14 -20 14 -40 0 -20 8 -44 18 -56 19 -21 19 -21 -3 -9 -13 6 -48
46 -79 89 -32 42 -77 100 -100 128 -40 47 -42 52 -29 71 14 20 13 23 -15 43
-22 16 -28 17 -24 6 9 -23 -41 -21 -74 2 -36 25 -60 33 -67 22 -3 -5 3 -13 12
-19 21 -12 24 -12 -52 -17 -66 -4 -136 -22 -147 -39 -5 -6 -8 -5 -8 3 0 8 -5
10 -12 6 -7 -4 -33 -11 -58 -16 -25 -4 -52 -10 -60 -12 -8 -3 -17 -5 -20 -5
-3 -1 2 -6 10 -11 12 -8 10 -10 -9 -8 -17 2 -28 -4 -35 -18 -6 -11 -17 -19
-24 -16 -7 2 -12 -6 -12 -21 0 -14 -7 -27 -15 -31 -22 -8 -18 -37 5 -43 11 -3
20 -9 20 -14 0 -5 5 -9 10 -9 6 0 10 9 10 20 0 17 3 18 19 8 11 -6 17 -18 13
-26 -3 -10 -1 -13 6 -8 7 4 12 2 12 -4 0 -6 -10 -8 -27 -4 -21 6 -25 4 -20 -9
4 -11 2 -14 -8 -11 -25 10 -38 -7 -18 -22 10 -7 14 -14 8 -14 -5 0 -3 -5 5
-10 9 -6 11 -10 3 -10 -7 0 -10 -7 -6 -16 4 -10 -1 -20 -11 -26 -11 -6 -15
-17 -11 -31 5 -17 4 -19 -4 -7 -8 12 -12 12 -28 -3 -11 -10 -29 -14 -43 -11
-22 4 -23 3 -5 -5 11 -5 63 -10 115 -10 115 -1 123 -5 110 -51 -10 -36 -8 -46
9 -36 6 4 8 13 4 21 -3 9 1 22 8 31 11 14 9 20 -15 41 -33 28 -31 35 10 24 31
-8 32 -11 22 -99 -5 -39 -18 -72 -18 -44 0 22 -18 12 -24 -13 -7 -28 -43 -68
-69 -78 -25 -9 -21 -24 14 -44 32 -19 62 -74 53 -97 -7 -17 33 -93 53 -100 11
-5 12 -10 4 -19 -8 -11 -4 -14 19 -14 18 0 30 6 30 14 0 7 7 13 15 13 8 0 15
-5 15 -11 0 -5 4 -8 9 -5 4 3 13 -5 18 -17 16 -34 15 -42 -6 -43 -26 -2 -41
-13 -41 -30 0 -8 -9 -14 -20 -14 -11 0 -20 5 -20 11 0 5 6 7 13 3 8 -6 8 -3
-2 9 -7 9 -11 23 -8 31 4 10 0 12 -14 9 -14 -4 -16 -9 -10 -17 7 -8 5 -21 -4
-39 -8 -15 -12 -34 -8 -42 3 -8 3 -15 0 -15 -3 0 -10 14 -16 30 -7 22 -7 29 1
24 7 -4 8 -3 4 4 -4 7 -14 12 -22 12 -8 0 -14 5 -14 11 0 5 -19 38 -42 72 -48
71 -65 61 -19 -12 32 -50 33 -81 2 -81 -9 0 -31 -16 -50 -35 -36 -39 -38 -39
-75 -25 -37 14 -33 -6 4 -25 31 -16 38 -33 20 -51 -8 -8 -6 -15 5 -24 17 -14
20 -40 6 -40 -6 0 -12 4 -15 9 -6 10 -132 7 -158 -4 -10 -4 -18 -11 -18 -17 0
-5 -9 -6 -20 -3 -11 3 -20 2 -20 -4 0 -5 -8 -12 -18 -15 -24 -8 -43 -43 -47
-86 -1 -20 -8 -46 -14 -58 -6 -12 -13 -59 -16 -104 -2 -46 -7 -92 -11 -102 -5
-12 -4 -17 3 -13 6 4 16 -12 23 -38 7 -24 27 -61 44 -82 18 -21 37 -56 44 -78
6 -22 27 -56 45 -77 l34 -36 26 21 c14 12 31 33 37 46 l13 25 19 -27 c11 -15
26 -27 33 -27 24 0 55 -42 56 -74 l1 -31 7 30 c7 28 8 26 12 -17 2 -27 1 -59
-2 -72 -6 -23 -4 -25 22 -23 16 1 29 8 29 15 0 6 5 12 10 12 6 0 10 -7 10 -17
0 -22 12 -9 27 30 7 18 12 23 11 12 -2 -11 0 -24 4 -30 3 -5 2 -35 -3 -65 -7
-49 -14 -61 -61 -105 -29 -27 -70 -64 -92 -82 -38 -32 -39 -32 -61 -15 -56 44
-125 111 -125 121 0 6 -11 11 -25 11 -42 0 -34 -47 16 -92 36 -33 40 -41 35
-70 -4 -22 -3 -26 2 -14 12 28 26 3 27 -51 2 -34 0 -39 -9 -27 -15 20 -41 9
-43 -18 -1 -12 -7 -24 -14 -28 -8 -6 -8 -9 0 -14 18 -11 13 -34 -10 -41 -25
-8 -60 20 -52 41 3 8 -3 24 -12 34 -16 18 -17 20 -2 20 17 0 25 19 10 21 -55
9 -58 3 -26 -48 11 -16 11 -23 2 -29 -7 -4 -9 -3 -5 4 12 19 -12 23 -57 7 -67
-22 -110 -21 -141 4 -13 11 -16 11 -16 -2 0 -14 21 -29 45 -32 33 -4 75 -18
75 -24 0 -4 6 -8 13 -9 6 0 21 -3 32 -6 11 -2 21 -5 23 -5 2 -1 -3 -8 -12 -16
-11 -11 -14 -27 -10 -57 5 -36 3 -43 -22 -64 -16 -13 -24 -23 -18 -24 6 0 17
7 24 15 14 17 66 20 75 4 5 -7 13 -5 24 5 10 9 21 13 24 9 4 -3 7 10 7 30 0
20 -5 37 -11 37 -18 0 -48 43 -49 69 0 23 1 24 20 6 11 -10 20 -15 20 -11 0 4
9 -2 21 -13 12 -11 18 -24 14 -30 -3 -6 -1 -11 4 -11 6 0 11 5 11 10 0 6 7 10
15 10 12 0 13 5 3 25 -14 32 10 71 51 80 16 3 35 13 41 21 9 10 24 12 51 8 37
-6 39 -5 39 20 0 15 -5 36 -10 47 -6 10 -7 19 -3 19 4 0 20 10 35 23 59 50 68
57 68 53 0 -1 19 14 42 36 23 21 50 38 60 38 10 0 26 9 35 20 10 11 25 20 34
20 9 0 22 7 29 15 25 31 31 20 45 -87 4 -33 11 -48 21 -48 8 0 12 -4 9 -10 -3
-6 1 -7 9 -4 9 3 16 12 16 19 0 8 5 26 12 42 l11 28 6 -29 c3 -16 12 -31 19
-34 8 -2 10 3 6 15 -5 16 -4 16 8 3 7 -8 25 -21 40 -27 26 -12 29 -10 41 15
13 25 27 85 41 172 4 25 15 40 36 52 31 18 51 53 43 76 -4 9 -8 9 -17 -3 -10
-13 -19 -14 -56 -6 -26 6 -51 19 -59 30 -7 12 -19 21 -26 21 -21 0 -103 119
-109 158 -4 21 0 66 9 102 l15 65 -3 -60 -4 -60 18 40 c22 48 23 81 4 115 -19
33 -19 64 1 102 13 25 14 32 2 40 -10 8 -9 9 4 4 19 -6 34 26 22 45 -4 8 -3 9
4 5 7 -4 14 3 18 19 10 39 26 30 18 -11 -6 -34 -6 -36 14 -25 19 10 21 19 18
71 -1 32 1 57 6 54 4 -3 8 -20 9 -37 0 -18 9 -50 19 -72 17 -38 19 -38 19 -12
1 15 -3 27 -9 27 -5 0 -10 16 -10 35 0 19 4 35 9 35 5 0 12 13 16 30 11 50 25
45 19 -7 -5 -48 -5 -48 11 -20 19 32 21 33 28 7 3 -11 1 -18 -4 -14 -5 3 -9
-11 -9 -30 0 -20 4 -36 10 -36 9 0 24 61 22 92 0 10 3 20 9 23 5 4 9 -6 9 -22
1 -28 1 -28 20 9 18 34 40 58 40 43 0 -3 -7 -20 -16 -36 -8 -17 -14 -32 -12
-34 2 -2 21 3 43 11 46 16 85 18 85 5 0 -5 -12 -11 -28 -14 -27 -6 -102 -69
-102 -88 0 -5 16 9 36 31 39 43 59 49 90 25 18 -13 17 -14 -17 -15 -31 0 -42
-7 -75 -47 l-38 -48 35 33 c43 39 95 44 125 11 15 -16 27 -20 56 -16 24 3 38
1 41 -7 3 -7 0 -13 -6 -13 -39 -3 -75 -11 -92 -20 -19 -11 -19 -12 8 -33 19
-15 27 -30 27 -53 0 -33 -36 -104 -47 -93 -4 4 -1 12 5 18 7 7 12 19 12 27 0
13 -2 13 -14 1 -8 -8 -16 -24 -18 -35 -2 -15 3 -21 25 -23 15 -2 25 -8 22 -13
-4 -5 0 -9 7 -9 7 0 3 -7 -9 -15 -11 -8 -24 -26 -27 -39 -5 -19 -17 -28 -47
-37 -22 -7 -49 -23 -59 -36 -10 -13 -23 -23 -30 -23 -6 0 -8 -4 -5 -10 3 -5
19 -10 35 -10 22 0 38 12 70 50 31 37 49 50 68 50 29 0 228 -92 284 -131 71
-50 98 -82 98 -115 0 -18 4 -35 9 -39 13 -7 34 33 27 51 -3 8 -1 14 4 14 6 0
10 9 10 20 0 20 9 24 43 21 9 -1 17 2 17 8 0 16 -106 66 -175 84 -119 30 -145
51 -145 119 0 29 8 47 33 75 18 21 54 67 79 103 51 74 115 135 179 175 24 15
52 37 61 49 22 27 23 66 2 66 -13 0 -15 6 -9 28 4 15 10 88 15 162 6 117 12
149 45 245 20 61 48 128 61 151 27 47 29 96 8 194 -7 36 -19 99 -25 140 -6 41
-22 125 -34 185 -19 89 -23 135 -20 243 2 117 5 136 23 155 11 12 25 32 31 45
17 33 35 28 27 -9 -5 -28 -4 -30 17 -24 29 9 46 25 27 25 -8 0 -28 21 -45 47
-16 26 -43 60 -60 75 l-30 28 22 17 c12 10 27 32 34 50 9 28 8 37 -11 63 -12
16 -30 30 -41 30 -12 0 -17 4 -13 11 6 10 -11 28 -27 29 -3 0 -16 -11 -29 -25z
m-1102 -1134 c8 -4 14 -12 15 -17 1 -5 6 -8 10 -6 5 1 6 -2 2 -8 -3 -5 -1 -10
5 -10 6 0 15 -12 21 -27 l10 -28 17 28 c18 29 27 33 37 16 4 -5 -3 -19 -16
-30 -17 -14 -18 -19 -6 -19 8 0 17 6 20 13 3 9 7 9 19 0 8 -7 18 -10 21 -6 4
3 7 1 7 -5 0 -6 -4 -13 -9 -16 -12 -8 -20 -56 -10 -56 17 0 9 -19 -12 -31 -12
-6 -19 -7 -16 -2 3 4 -6 9 -19 9 -22 2 -23 1 -9 -19 16 -23 19 -38 8 -35 -5 0
-17 -3 -27 -7 -13 -6 -21 -4 -24 4 -8 23 -44 50 -61 44 -9 -3 -3 6 13 21 16
14 33 26 39 26 5 0 2 12 -8 26 -16 25 -16 26 4 19 18 -5 20 -3 17 17 -4 22
-27 27 -34 7 -2 -5 -10 -9 -18 -9 -9 0 -13 4 -10 9 10 16 -15 73 -30 67 -8 -3
-21 -9 -29 -12 -10 -4 -15 0 -15 10 0 10 9 16 25 16 14 0 25 5 25 10 0 12 20
13 38 1z m-63 -101 c3 -5 1 -10 -4 -10 -6 0 -11 -4 -11 -9 0 -12 54 -22 58
-10 2 5 8 9 14 9 6 0 6 -6 -2 -15 -7 -8 -21 -15 -31 -15 -28 0 -33 -19 -7 -29
23 -10 23 -10 -4 -10 -14 -1 -29 5 -31 12 -3 6 -5 0 -4 -15 1 -15 3 -25 6 -23
2 3 10 0 18 -7 11 -8 12 -7 7 6 -8 20 9 21 27 0 10 -13 10 -17 -2 -25 -8 -5
-9 -9 -3 -9 5 0 16 6 23 13 11 10 13 9 8 -5 -10 -28 28 -61 68 -60 45 2 53
-13 14 -27 -17 -6 -28 -15 -24 -21 3 -5 2 -10 -3 -10 -5 0 -13 -10 -18 -21 -9
-19 -12 -20 -24 -8 -15 14 -70 21 -70 9 0 -20 -34 -2 -48 24 -18 35 -25 67
-14 65 21 -4 31 3 29 21 -1 23 -17 28 -17 5 0 -29 -16 -14 -43 41 -18 37 -31
53 -40 48 -6 -4 6 13 28 38 39 45 85 63 100 38z m65 -625 c16 -8 34 -24 40
-34 13 -25 13 -121 0 -122 -5 -1 -15 -2 -22 -3 -7 0 -17 -10 -23 -21 -5 -11
-15 -27 -20 -35 -6 -8 -10 -38 -10 -67 0 -58 -5 -66 -30 -57 -14 6 -16 16 -13
61 3 34 -2 84 -14 131 -24 102 -24 104 9 96 22 -6 25 -4 20 10 -4 9 1 25 10
36 21 24 17 24 53 5z m-400 -90 c6 -8 9 -18 6 -24 -4 -5 0 -16 8 -24 8 -8 12
-18 8 -22 -4 -4 2 -5 13 -3 13 2 20 -3 20 -12 0 -10 -8 -14 -22 -13 -16 2 -21
-2 -17 -12 4 -8 1 -15 -4 -15 -12 0 -11 -64 1 -76 4 -4 7 -18 7 -30 0 -13 5
-26 11 -30 14 -8 4 -91 -18 -145 -8 -22 -13 -49 -10 -60 7 -27 -1 -49 -18 -49
-23 0 -45 30 -45 59 0 16 -6 34 -14 40 -8 7 -24 33 -36 58 -19 41 -20 51 -10
94 7 26 9 53 5 58 -3 6 5 30 19 54 33 56 33 69 1 61 -22 -5 -25 -3 -25 19 0
40 10 57 34 57 12 0 31 7 42 15 24 18 29 18 44 0z"/>
<path d="M3222 4722 c-7 -15 -23 -45 -37 -67 -14 -22 -25 -52 -25 -67 0 -29
-15 -45 -25 -28 -5 8 -11 7 -21 -1 -11 -9 -19 -4 -40 21 -16 18 -33 29 -41 26
-8 -3 -12 -2 -8 3 5 10 -62 71 -78 71 -5 0 -24 7 -43 16 -26 12 -52 15 -111
11 -82 -6 -222 -39 -232 -55 -3 -6 -36 -24 -73 -42 -51 -24 -70 -40 -83 -66
-20 -43 -31 -49 -45 -24 -6 11 -15 20 -21 20 -6 0 -7 -5 -4 -11 13 -20 -17
-66 -77 -119 l-60 -53 6 -53 c3 -30 17 -89 31 -131 14 -43 32 -134 41 -203 16
-136 23 -174 32 -165 3 3 4 32 3 65 -2 57 0 62 31 90 44 41 96 54 149 39 41
-13 57 -31 66 -77 7 -43 6 -52 -17 -147 -32 -135 -32 -138 -13 -162 14 -16 36
-24 90 -32 44 -5 79 -16 90 -26 14 -14 28 -16 80 -11 35 3 91 9 126 12 43 4
82 1 127 -11 36 -9 97 -19 135 -22 64 -5 73 -3 110 22 52 36 88 46 141 38 41
-5 63 -23 29 -23 -17 0 -20 -16 -5 -25 6 -3 10 -11 10 -16 0 -11 -41 -2 -50
11 -9 13 -50 -9 -50 -26 0 -13 7 -15 35 -10 36 7 45 -3 21 -23 -8 -6 -69 -16
-137 -21 -68 -5 -151 -14 -184 -19 -33 -5 -121 -9 -195 -9 -74 0 -155 -5 -180
-11 -25 -5 -58 -13 -75 -17 -16 -4 -34 -13 -38 -21 -5 -8 -16 -17 -26 -21 -19
-8 -151 -156 -151 -170 0 -5 -8 -20 -19 -33 -10 -13 -22 -40 -27 -59 -10 -44
-9 -42 -18 -62 -4 -9 -5 -21 -2 -27 4 -5 2 -12 -4 -16 -7 -4 -7 -12 0 -25 5
-10 10 -31 10 -45 0 -15 10 -41 22 -58 32 -45 36 -126 9 -173 l-22 -37 25 -56
c13 -31 32 -93 42 -138 18 -81 19 -82 59 -99 62 -25 70 -30 70 -45 0 -8 -11
-15 -23 -17 -19 -3 -23 -8 -17 -25 4 -12 6 -32 6 -44 0 -11 15 -55 34 -97 32
-69 37 -75 54 -64 11 6 17 18 14 25 -8 21 15 15 27 -6 11 -22 0 -34 -23 -25
-24 9 -27 -43 -5 -107 11 -33 23 -57 27 -54 5 2 21 -10 37 -27 24 -25 25 -29
7 -19 -27 14 -46 14 -38 1 4 -6 10 -8 15 -5 5 3 15 -2 24 -10 13 -14 16 -13
25 2 6 10 10 14 10 8 0 -15 -25 -46 -32 -39 -3 4 -5 -4 -4 -17 1 -13 8 -29 15
-35 22 -16 6 -115 -19 -121 -26 -7 -46 -43 -54 -96 -6 -39 -5 -47 9 -47 9 0
16 -2 16 -5 0 -13 -25 -55 -33 -55 -5 0 -4 7 3 15 7 8 8 15 4 15 -5 0 -15 -9
-21 -19 -10 -15 -9 -20 2 -25 8 -3 14 -14 14 -25 1 -12 1 -30 2 -41 0 -14 7
-20 22 -19 12 0 16 3 10 6 -21 8 -15 26 7 20 10 -3 39 6 64 19 45 24 45 24 56
4 8 -15 8 -20 -1 -20 -8 0 -8 -4 -1 -12 12 -15 13 -69 2 -83 -15 -20 -17 -90
-3 -112 8 -12 12 -27 8 -33 -3 -5 1 -10 10 -10 17 0 35 -37 28 -58 -3 -7 0
-19 7 -27 7 -8 9 -15 6 -15 -4 0 -2 -9 4 -20 9 -17 8 -20 -8 -20 -11 0 -32 10
-47 22 -23 18 -31 19 -47 9 -18 -11 -19 -10 -13 9 9 30 -19 101 -52 130 l-26
22 6 -31 c6 -28 5 -30 -12 -22 -10 6 -21 7 -25 4 -3 -3 -6 -1 -6 6 0 7 -4 10
-8 7 -4 -2 -19 4 -32 15 -14 11 -18 17 -10 14 8 -3 21 -1 29 4 13 8 13 12 0
27 -11 13 -11 18 -1 21 17 6 15 33 -3 33 -8 0 -15 -5 -15 -11 0 -5 -5 -7 -10
-4 -6 4 -8 11 -5 16 4 5 -1 9 -11 9 -12 0 -15 6 -12 24 3 16 0 23 -10 22 -18
-1 -26 53 -10 71 6 7 7 13 2 14 -5 0 9 9 31 20 l40 18 -52 1 c-59 0 -71 17
-27 40 29 16 27 37 -7 104 -14 28 -20 59 -21 110 0 88 -6 115 -20 95 -7 -11
-8 -9 -4 5 8 25 -11 118 -29 142 -13 19 -14 18 -20 -1 -4 -11 -20 -48 -36 -82
-29 -66 -35 -69 -106 -66 -26 2 -63 32 -63 52 0 8 -3 12 -6 8 -4 -3 -35 29
-70 72 -34 43 -70 81 -79 85 -45 17 -117 -12 -95 -39 9 -10 5 -11 -22 -1 -18
6 -39 15 -47 20 -16 10 -27 -4 -42 -59 -14 -51 -26 -65 -55 -65 -30 0 -37 -25
-39 -150 -1 -52 -5 -112 -9 -132 -12 -51 -3 -77 42 -129 63 -72 112 -193 123
-304 4 -52 11 -105 15 -119 8 -34 -38 -80 -97 -96 -24 -7 -69 -20 -99 -30 -30
-10 -92 -28 -138 -40 -54 -13 -116 -40 -180 -75 -53 -30 -109 -55 -123 -55
-39 0 -89 -20 -89 -36 0 -13 33 -78 52 -101 6 -7 8 -24 4 -37 -6 -26 -32 -41
-41 -26 -4 6 1 10 10 10 10 0 13 5 9 12 -5 7 -15 2 -31 -18 -24 -30 -32 -57
-11 -36 21 21 55 13 97 -22 23 -19 50 -38 61 -41 11 -4 20 -11 20 -16 0 -5 7
-9 15 -9 9 0 18 -7 22 -16 4 -11 13 -14 29 -10 13 4 24 2 24 -3 0 -6 6 -8 14
-5 8 3 19 -8 29 -28 9 -18 17 -27 17 -20 0 9 10 11 35 6 42 -8 92 13 99 41 5
19 6 19 19 1 8 -11 19 -16 24 -13 6 4 16 0 23 -8 13 -16 55 -21 46 -6 -8 13 4
42 15 36 8 -6 32 65 24 73 -5 5 39 42 50 42 3 0 3 -5 -1 -11 -4 -8 0 -8 15 0
17 10 21 9 21 -4 0 -12 14 -6 51 24 48 38 87 46 75 14 -3 -8 -1 -11 4 -8 6 3
10 1 10 -4 0 -6 -7 -11 -15 -11 -8 0 -15 -7 -15 -15 0 -8 4 -15 9 -15 5 0 16
-3 25 -6 11 -4 16 0 16 12 0 16 2 16 19 -3 19 -20 19 -63 1 -63 -5 0 -13 -13
-18 -29 -9 -25 -8 -29 4 -24 8 3 14 11 14 18 0 10 20 25 35 25 1 0 5 -14 9
-32 8 -39 66 -112 107 -132 29 -14 30 -14 24 5 -8 26 -4 24 36 -11 27 -24 31
-32 20 -39 -22 -14 -2 -33 72 -71 72 -37 157 -51 157 -26 0 20 16 21 23 2 4
-9 21 -14 50 -14 33 1 51 -5 68 -21 13 -13 34 -27 47 -32 32 -12 105 -12 97 1
-3 5 -1 10 4 10 6 0 11 7 11 15 0 9 6 12 15 9 10 -4 15 0 15 12 1 22 45 58 60
49 6 -3 11 -25 11 -48 l1 -42 8 40 c6 29 4 44 -6 56 -37 41 -12 38 149 -23 34
-12 61 -4 53 18 -3 8 1 26 10 40 13 19 14 27 4 38 -6 8 -10 25 -8 38 3 23 5
23 113 20 61 -1 119 2 130 7 11 5 28 12 37 15 9 2 22 15 29 28 10 20 10 21 -2
11 -18 -14 -98 -43 -122 -43 -16 0 -16 2 -2 30 9 17 20 28 24 25 5 -3 11 2 15
10 3 8 12 15 21 15 8 0 15 4 15 10 0 5 7 7 15 4 10 -4 15 0 15 10 0 9 9 24 20
33 11 10 20 23 20 30 0 7 6 13 14 13 9 0 12 7 9 21 -10 37 35 0 52 -44 17 -43
8 -67 -25 -67 -9 0 -25 -9 -35 -20 -16 -18 -8 -30 9 -13 11 11 75 31 81 25 3
-3 5 -22 5 -43 0 -30 3 -37 18 -34 11 1 16 9 13 21 -2 11 -3 31 -4 47 0 15 -4
27 -8 27 -15 0 -10 34 12 74 23 44 27 99 9 120 -9 11 -6 16 12 21 34 11 58 35
58 59 0 12 7 31 15 42 8 12 11 24 7 28 -3 4 1 4 11 0 12 -4 17 -1 17 10 0 8
12 23 28 33 15 9 35 26 44 37 15 19 18 19 35 5 27 -23 113 -10 113 17 0 18 -8
18 -26 -1 -16 -16 -61 -20 -81 -7 -17 11 -28 82 -13 82 9 0 8 6 -4 19 -9 10
-14 25 -11 34 4 8 2 18 -4 21 -7 5 -7 14 0 30 9 18 18 22 45 21 19 -1 45 -11
57 -21 l22 -19 -21 25 c-28 33 -37 70 -18 77 8 3 14 13 14 22 1 14 2 14 11 -2
13 -22 46 -22 53 1 7 20 55 24 77 6 18 -15 108 -48 114 -43 2 3 2 14 -1 25 -4
15 -14 20 -42 21 -20 1 -38 6 -40 12 -2 5 -10 7 -18 4 -10 -3 -14 2 -14 19 0
20 -8 26 -46 36 -29 8 -43 16 -38 24 5 7 3 8 -5 4 -7 -5 -10 -14 -7 -22 3 -8
1 -14 -4 -14 -6 0 -10 6 -10 13 0 7 -10 13 -21 14 -19 2 -20 -2 -15 -28 4 -22
3 -28 -7 -22 -6 4 -22 6 -34 4 -13 -1 -23 3 -23 9 0 7 8 10 20 7 22 -6 35 19
24 47 -4 12 0 16 15 16 12 0 21 5 21 11 0 8 4 8 14 0 11 -9 14 -8 12 6 0 10 4
18 9 18 6 0 16 4 23 8 6 5 16 5 22 2 5 -3 23 4 39 16 31 23 79 29 117 16 23
-8 34 12 34 62 0 19 4 23 25 19 36 -7 68 26 60 63 -5 24 -4 28 9 23 16 -6 21
8 18 49 -2 22 4 22 35 -3 25 -20 27 -20 57 -2 48 28 45 52 -15 106 -28 25 -57
46 -64 46 -24 0 -28 21 -8 43 11 12 35 49 53 82 19 33 37 61 41 63 4 2 5 12 2
23 -3 10 0 25 6 33 10 11 8 17 -6 25 -37 20 2 34 94 33 94 -1 127 4 118 19 -4
5 11 9 31 9 30 0 35 3 26 12 -17 17 -15 25 6 30 21 6 28 64 10 85 -6 7 -7 24
-4 37 3 13 2 26 -2 28 -5 2 -15 28 -23 58 -13 47 -20 57 -46 65 -16 6 -37 16
-46 24 -10 7 -17 9 -17 3 0 -5 7 -13 16 -16 14 -5 14 -9 2 -29 -8 -12 -13 -32
-12 -44 1 -12 -3 -20 -7 -17 -5 3 -9 16 -9 30 0 13 -5 24 -10 24 -6 0 -8 -11
-4 -26 6 -24 5 -25 -15 -15 -28 15 -27 7 6 -35 17 -23 29 -31 33 -23 5 8 10 5
15 -10 3 -11 17 -24 31 -27 13 -3 24 -10 24 -16 0 -5 -5 -6 -11 -2 -8 4 -8 1
-1 -12 12 -25 5 -44 -18 -44 -14 0 -17 -6 -13 -23 4 -19 3 -20 -7 -4 -6 9 -19
17 -28 18 -11 0 -12 3 -4 6 6 2 10 9 7 14 -3 5 -1 17 4 28 9 16 6 19 -22 24
-20 3 -38 -1 -49 -10 -18 -16 -16 -33 3 -33 6 0 7 6 3 13 -5 8 -3 8 9 -2 17
-13 14 -36 -4 -26 -5 4 -9 1 -9 -4 0 -6 5 -11 11 -11 5 0 7 -5 4 -10 -3 -5 -1
-10 4 -10 6 0 11 -5 11 -11 0 -5 -5 -7 -10 -4 -17 11 -52 -5 -46 -21 4 -12 2
-12 -14 -4 -20 11 -27 30 -12 30 5 0 7 13 4 30 -5 35 5 83 17 76 4 -3 8 1 8 9
0 8 -4 12 -8 10 -4 -3 -18 -1 -31 4 -20 8 -21 10 -6 16 14 5 15 11 7 26 -5 10
-6 19 -2 19 4 0 -3 9 -17 19 -20 16 -22 22 -12 34 10 12 10 16 0 20 -10 4 -10
6 0 6 6 1 12 10 12 21 0 15 -6 19 -25 18 -14 -1 -25 -6 -25 -10 0 -17 -19 -7
-26 14 -5 16 -1 27 15 39 28 23 27 31 -3 23 -22 -5 -24 -2 -30 41 -6 35 -3 52
9 71 16 25 16 25 -4 15 -26 -14 -91 10 -91 34 0 12 -7 16 -27 13 -20 -2 -30 3
-43 27 -24 42 -31 90 -17 104 9 9 9 14 -2 20 -11 7 -10 11 5 20 17 9 17 12 4
22 -12 9 -11 10 8 6 18 -4 22 -2 18 10 -3 8 -6 19 -6 24 0 6 -5 7 -10 4 -6 -3
-17 0 -25 9 -11 11 -12 16 -2 19 6 3 4 6 -7 6 -16 1 -16 3 -5 17 10 13 10 17
-2 25 -10 7 -5 8 16 3 17 -3 42 -15 57 -25 15 -10 35 -21 45 -22 10 -2 27 -7
38 -11 11 -5 32 -12 46 -17 14 -6 30 -9 35 -8 17 4 61 -19 68 -36 3 -9 14 -15
24 -13 19 3 72 -49 72 -71 0 -7 7 -14 16 -18 10 -4 14 -16 12 -36 -2 -19 2
-32 11 -35 10 -3 11 3 6 29 -4 18 -11 40 -15 49 -4 8 -16 32 -26 54 -20 41
-61 79 -75 70 -5 -3 -12 2 -15 11 -9 24 -58 45 -103 45 -29 0 -44 6 -54 20
-16 23 -107 55 -107 37 0 -6 -9 -2 -21 10 -21 20 -22 20 -40 2 -22 -22 -47
-24 -80 -6 -22 11 -25 18 -20 44 0 4 12 -5 26 -20 22 -23 55 -37 55 -23 0 16
-14 36 -26 36 -8 0 -14 5 -14 11 0 5 -4 7 -10 4 -5 -3 -10 3 -10 14 0 11 -16
31 -39 48 -25 18 -43 41 -50 64 -6 20 -20 46 -30 58 -18 21 -19 25 -6 45 8 12
18 55 21 96 l7 75 -36 -28 c-21 -15 -38 -26 -38 -23 -1 4 -2 11 -3 16 0 6 -17
25 -36 43 -34 33 -59 61 -73 84 -4 7 4 28 18 49 27 40 55 122 55 162 0 25 0
25 -20 7 -17 -16 -20 -16 -15 -3 4 9 13 19 21 22 8 3 14 15 14 28 0 12 10 33
23 46 l22 25 -27 -17 c-29 -19 -47 -6 -24 17 8 8 12 17 9 20 -5 6 -7 18 -12
66 -1 8 -8 11 -21 8 -24 -6 -38 11 -16 19 9 3 16 15 16 25 0 12 7 19 19 19 14
0 20 10 25 42 4 23 2 46 -3 51 -6 6 -6 19 -1 33 5 12 6 44 1 71 -6 37 -16 58
-48 90 -22 22 -50 46 -62 52 -12 7 -26 23 -31 37 -7 18 -15 23 -32 20 -13 -2
-29 1 -35 6 -9 7 -13 6 -13 -3 0 -12 -2 -12 -9 0 -5 8 -7 21 -4 30 2 9 -2 7
-9 -5 -12 -20 -14 -20 -31 -4 -12 12 -15 20 -8 25 6 3 11 1 11 -5 0 -6 4 -9 9
-5 14 8 9 46 -5 41 -15 -6 -39 28 -46 64 -3 14 -9 34 -13 44 -6 14 -5 17 3 12
7 -4 12 -2 12 4 0 6 -8 10 -17 8 -12 -2 -17 3 -15 15 2 9 -4 20 -13 23 -10 4
-15 19 -15 45 0 21 -4 39 -10 39 -5 0 -10 11 -10 25 0 31 -16 32 -40 3 -17
-22 -18 -22 -56 -5 -22 10 -55 19 -75 21 -20 2 -40 6 -46 9 -5 3 -14 -6 -21
-21z m-87 -1483 c31 -29 45 -49 45 -68 0 -14 -15 -79 -34 -143 -28 -96 -42
-127 -79 -175 -66 -85 -79 -114 -61 -138 17 -23 33 -11 49 37 9 30 14 33 45
30 19 -1 45 -3 57 -3 14 -1 23 -10 27 -25 4 -13 16 -29 29 -35 12 -6 31 -23
43 -37 l21 -26 12 22 c6 11 12 50 14 86 2 56 4 63 15 49 13 -18 9 -92 -8 -145
-5 -17 -5 -28 0 -28 17 0 32 42 26 74 -4 20 -1 39 7 50 11 15 13 9 11 -44 -1
-50 -6 -66 -27 -88 -19 -21 -23 -32 -17 -48 14 -35 31 -39 51 -13 10 13 19 18
19 11 0 -7 -11 -24 -25 -38 -29 -29 -32 -60 -9 -85 14 -15 14 -23 3 -56 -20
-58 -29 -62 -30 -13 l-1 45 -13 -47 c-10 -39 -10 -54 0 -85 7 -21 12 -40 10
-42 -8 -8 -25 12 -25 28 0 10 -6 31 -14 45 l-13 27 -7 -23 c-10 -39 -7 -83 9
-104 27 -36 16 -49 -17 -18 l-31 29 26 -47 c29 -50 35 -70 15 -50 -16 16 -28
15 -28 -2 0 -8 10 -22 22 -30 31 -22 18 -29 -28 -14 -38 13 -53 32 -71 92 -4
16 -13 31 -19 33 -17 6 -26 -44 -13 -68 9 -17 8 -20 -3 -17 -19 6 -38 48 -38
84 0 27 -27 74 -43 74 -5 0 7 -47 28 -105 5 -15 1 -14 -19 8 -26 28 -31 52
-28 132 l1 40 -24 -50 c-19 -37 -25 -63 -23 -99 3 -48 4 -50 38 -58 23 -6 53
-28 86 -64 28 -29 59 -54 69 -54 10 0 53 -18 96 -40 43 -22 84 -40 92 -40 8 0
20 -7 28 -16 7 -8 31 -25 53 -37 35 -18 56 -21 141 -19 l100 2 127 -62 c126
-61 128 -61 168 -48 38 13 42 12 56 -8 8 -12 20 -20 25 -17 5 4 9 1 9 -4 0 -6
6 -11 13 -11 6 1 2 9 -9 18 -23 19 -39 106 -19 98 5 -2 9 -10 7 -17 -3 -10 0
-11 8 -3 6 6 13 28 15 49 2 22 10 42 19 47 9 5 14 14 10 20 -8 12 43 3 92 -18
34 -14 54 -34 33 -34 -8 0 -8 -4 1 -15 9 -11 10 -18 1 -29 -6 -7 -8 -22 -4
-31 4 -12 3 -16 -4 -12 -7 5 -14 -5 -18 -25 -6 -26 -9 -28 -17 -15 -5 10 -7
21 -3 26 3 5 1 12 -5 16 -6 3 -10 -4 -10 -17 0 -17 -6 -24 -22 -25 -13 -1 -31
-12 -42 -25 -18 -23 -18 -23 13 -35 30 -13 83 -81 74 -95 -14 -25 -167 2 -264
46 -76 35 -249 67 -419 77 -206 14 -210 13 -227 -10 -21 -31 -43 -26 -98 23
-28 24 -60 46 -72 50 l-23 7 20 -43 c11 -24 20 -50 20 -57 0 -8 12 -32 26 -52
14 -21 27 -53 29 -72 4 -47 66 -165 115 -222 49 -57 72 -100 116 -221 38 -107
74 -166 109 -182 30 -14 32 -42 8 -79 -14 -21 -18 -48 -18 -120 0 -106 -12
-131 -44 -92 -11 13 -23 38 -26 54 -2 17 -11 69 -19 117 -14 84 -17 91 -101
213 -47 69 -97 148 -109 175 -13 27 -38 66 -57 88 -19 21 -49 59 -66 85 -18
26 -39 47 -47 47 -7 0 -16 7 -20 15 -3 9 -18 15 -34 15 -41 0 -58 24 -82 115
-28 104 -62 200 -98 272 -16 32 -41 96 -56 143 -14 47 -34 108 -43 137 -19 63
-14 258 10 314 14 34 78 99 97 99 6 0 10 8 10 18 1 9 11 41 24 70 l23 53 -39
111 c-29 86 -38 127 -38 179 0 73 -12 89 -52 68 -32 -17 -36 1 -5 25 15 12 27
27 27 33 0 16 -65 36 -90 28 -24 -7 -41 22 -20 35 7 4 10 12 6 18 -6 10 25 22
59 22 11 0 45 -16 75 -35 52 -33 55 -39 82 -117 16 -46 31 -108 34 -138 4 -30
12 -66 19 -79 l12 -23 19 33 c11 19 49 94 84 168 l65 133 -29 23 c-15 12 -33
22 -40 21 -12 -1 -16 6 -16 29 0 12 4 13 19 5 25 -13 31 -13 31 0 0 6 -6 10
-14 10 -8 0 -18 5 -21 10 -4 6 5 10 20 10 16 0 42 -15 70 -41z m-866 -2369
c47 -25 125 -50 157 -50 13 0 40 7 60 15 32 13 35 13 47 -5 6 -11 17 -20 24
-20 6 0 13 -6 16 -12 2 -8 20 -13 43 -13 32 0 41 -5 52 -27 15 -31 6 -78 -14
-78 -8 0 -14 -6 -14 -13 0 -7 -14 -27 -30 -46 -25 -26 -36 -32 -56 -27 -18 5
-24 3 -19 -4 5 -8 1 -8 -12 0 -23 15 -27 49 -7 57 7 3 11 9 8 14 -3 5 -10 7
-15 4 -5 -4 -9 -2 -9 4 0 5 -10 13 -22 16 -13 4 -30 16 -39 27 -15 19 -17 19
-33 3 -16 -16 -18 -16 -36 0 -11 10 -16 24 -13 33 4 10 2 13 -5 8 -7 -4 -12
-2 -12 4 0 23 -92 86 -110 75 -8 -5 -40 32 -40 47 0 14 42 8 79 -12z"/>
<path d="M1680 2257 c0 -1 16 -42 35 -91 19 -49 35 -95 35 -103 0 -32 60 5 60
38 0 8 7 23 15 33 27 36 17 50 -65 88 -44 20 -80 36 -80 35z"/>
<path d="M1340 1903 c-12 -37 -28 -79 -36 -95 -18 -36 -18 -52 2 -44 10 4 18
-1 21 -13 4 -16 8 -17 18 -8 11 10 10 15 -2 30 -10 10 -12 17 -5 17 7 0 12 -4
12 -10 0 -5 10 -10 22 -10 20 0 20 -1 5 -18 -19 -21 -22 -32 -8 -32 5 0 16 17
24 38 8 20 24 45 35 55 11 11 19 24 17 30 -2 7 -6 24 -9 39 -6 27 -51 88 -66
88 -5 0 -18 -30 -30 -67z"/>
<path d="M856 1901 c-9 -14 -9 -134 -1 -162 6 -18 4 -21 -9 -16 -9 4 -16 2
-16 -3 0 -5 -7 -7 -15 -4 -10 4 -18 -3 -24 -19 -5 -14 -16 -27 -23 -29 -11 -4
-11 -8 0 -21 13 -15 9 -17 -27 -23 -44 -7 -51 -27 -13 -32 15 -2 22 2 22 12 0
9 5 16 10 16 6 0 10 -4 10 -10 0 -5 17 -12 38 -15 68 -11 77 -15 115 -48 l38
-34 67 24 c150 53 153 54 142 67 -5 7 -7 16 -3 20 9 9 -29 -4 -43 -15 -6 -5
-15 -5 -19 -1 -5 4 -5 -2 -1 -13 7 -20 7 -20 -12 0 -21 22 -22 39 -4 57 16 16
15 39 0 37 -29 -3 -40 2 -34 16 3 8 0 15 -5 15 -7 0 -9 -11 -7 -25 4 -20 1
-25 -15 -25 -14 0 -18 3 -11 10 12 12 6 80 -7 80 -5 0 -9 7 -9 15 0 18 5 18
31 4 20 -10 20 -10 2 17 -17 27 -17 27 4 22 22 -6 22 -5 5 17 -9 13 -21 20
-27 17 -5 -3 -22 -5 -37 -4 -21 2 -26 -1 -22 -13 4 -8 1 -15 -4 -15 -6 0 -12
-10 -14 -22 -4 -29 -54 -33 -52 -5 1 9 -2 14 -7 12 -9 -6 -6 32 6 58 9 21 -18
57 -29 38z"/>
<path d="M540 1515 c0 -8 -8 -15 -17 -15 -15 0 -16 2 -3 10 8 5 10 10 4 10 -6
0 -17 -7 -24 -15 -7 -8 -16 -13 -20 -10 -13 8 -21 -44 -10 -65 6 -11 12 -20
14 -20 2 0 13 16 25 35 14 24 25 33 36 29 9 -4 15 -3 14 2 -1 5 -1 15 0 22 2
23 37 -8 39 -35 3 -33 11 -45 28 -39 8 3 14 1 14 -4 0 -6 -4 -10 -8 -10 -8 0
-31 -47 -47 -95 -5 -16 -8 -17 -15 -5 -8 12 -10 12 -10 -3 0 -11 9 -21 19 -24
14 -3 18 -12 16 -31 -6 -45 4 -64 32 -60 21 2 27 -2 30 -20 1 -13 -1 -21 -6
-18 -22 14 -41 -7 -41 -45 0 -24 -5 -39 -12 -39 -9 0 -8 -4 2 -11 12 -9 11
-10 -5 -6 -15 3 -21 -1 -22 -14 -2 -21 12 -25 21 -6 5 10 7 10 12 0 8 -18 33
-16 40 2 4 8 9 13 14 10 4 -2 16 2 26 10 27 20 46 18 42 -4 -2 -10 4 -27 13
-37 26 -29 31 -59 14 -74 -24 -20 -17 -33 15 -28 l31 5 -6 -46 c-5 -49 -21
-66 -41 -48 -32 29 -40 33 -51 30 -6 -2 -14 1 -18 6 -5 10 -13 7 -54 -16 -2
-2 1 -8 6 -15 13 -16 5 -78 -9 -78 -6 0 -5 -6 2 -15 7 -8 10 -26 8 -40 -5 -25
4 -37 30 -41 9 -2 12 4 10 14 -4 14 3 17 39 18 40 1 55 -7 35 -20 -13 -8 -8
-42 8 -61 12 -14 12 -18 0 -25 -22 -13 6 -40 44 -41 17 0 40 -4 51 -9 19 -9
19 -9 -2 -16 -13 -3 -23 -8 -23 -11 0 -9 45 -42 57 -43 6 0 13 5 15 11 2 6 16
12 30 12 20 0 27 5 31 25 7 38 -1 54 -23 42 -13 -7 -21 -7 -25 0 -7 12 20 42
29 33 3 -4 6 3 6 15 0 12 5 22 10 22 6 0 10 -5 10 -11 0 -15 35 -7 36 9 1 6 2
16 3 22 0 5 8 7 16 4 16 -7 27 13 30 55 1 14 3 34 3 44 1 9 9 17 17 17 7 0 19
-8 24 -17 6 -10 11 -15 11 -11 0 4 17 -2 37 -13 l37 -21 23 28 c13 16 23 34
23 39 0 6 16 21 34 33 21 14 37 35 41 52 10 44 29 55 72 42 34 -10 41 -9 87
20 28 17 80 53 116 82 36 28 87 58 115 68 l50 17 -28 10 c-16 6 -32 11 -36 11
-17 0 -39 37 -56 93 -10 32 -30 77 -45 100 -15 24 -35 66 -44 94 -9 28 -23 56
-30 62 -15 13 -257 -68 -290 -97 -29 -25 -142 -92 -155 -92 -6 0 -31 18 -55
40 -24 22 -53 40 -65 40 -12 0 -38 17 -59 39 -47 50 -205 133 -236 125 -13 -3
-40 2 -61 10 -46 19 -45 19 -45 1z"/>
</g>
</svg>
