<?xml version="1.0" standalone="no"?>
<!DOCTYPE svg PUBLIC "-//W3C//DTD SVG 20010904//EN"
 "http://www.w3.org/TR/2001/REC-SVG-20010904/DTD/svg10.dtd">
<svg version="1.0" xmlns="http://www.w3.org/2000/svg"
 width="247.000000pt" height="201.000000pt" viewBox="0 0 247.000000 201.000000"
 preserveAspectRatio="xMidYMid meet">
<metadata>
Created by potrace 1.16, written by Peter Selinger 2001-2019
</metadata>
<g transform="translate(0.000000,201.000000) scale(0.100000,-0.100000)"
fill="#ffffff" stroke="none">
<path d="M985 1789 c-3 -19 -23 -133 -44 -254 -126 -718 -146 -816 -161 -811
-8 3 -35 12 -60 21 -108 40 -263 29 -377 -27 -70 -34 -155 -117 -180 -175 -25
-58 -22 -167 6 -225 70 -145 284 -240 472 -209 252 41 411 249 328 431 -15 34
-18 49 -9 65 5 11 23 82 38 159 l27 139 105 -2 c58 -2 290 -8 515 -15 226 -7
414 -11 419 -8 5 3 6 -6 3 -19 -4 -14 -9 -50 -13 -81 -9 -78 -12 -81 -65 -69
-99 23 -215 8 -312 -41 -297 -149 -212 -517 133 -579 237 -42 470 112 470 312
0 25 -6 64 -14 85 -12 35 -8 99 35 589 26 303 51 587 55 631 l7 81 -249 7
c-137 3 -307 8 -379 11 -71 3 -268 8 -437 11 l-307 6 -6 -33z m605 -45 c125
-32 230 -91 230 -128 0 -10 -21 -5 -79 20 -183 79 -382 84 -558 15 -42 -16
-54 -18 -68 -7 -39 28 25 79 138 111 66 19 246 13 337 -11z m510 -419 l0 -95
-497 7 c-274 3 -499 7 -501 8 -3 2 25 135 33 163 3 9 109 12 485 12 l480 0 0
-95z m-491 -210 c48 -15 110 -59 98 -71 -2 -2 -17 1 -33 7 -16 6 -85 14 -154
16 -110 5 -139 2 -240 -21 -138 -31 -156 -32 -170 -6 -16 30 26 51 159 77 132
25 252 24 340 -2z m-959 -497 c54 -37 49 -47 -22 -45 -82 1 -135 -22 -213 -96
-55 -52 -109 -86 -120 -75 -12 12 24 86 64 131 86 95 218 134 291 85z m1239
-44 c36 -7 42 -24 9 -24 -74 0 -157 -53 -184 -118 -8 -20 -15 -64 -17 -99 -1
-34 -6 -63 -11 -63 -6 0 -20 10 -33 22 -18 17 -23 32 -23 70 0 141 121 239
259 212z"/>
</g>
</svg>
