<?xml version="1.0" standalone="no"?>
<!DOCTYPE svg PUBLIC "-//W3C//DTD SVG 20010904//EN"
 "http://www.w3.org/TR/2001/REC-SVG-20010904/DTD/svg10.dtd">
<svg version="1.0" xmlns="http://www.w3.org/2000/svg"
 width="2000.000000pt" height="2000.000000pt" viewBox="0 0 2000.000000 2000.000000"
 preserveAspectRatio="xMidYMid meet">
<metadata>
Created by potrace 1.16, written by Peter Selinger 2001-2019
</metadata>
<g transform="translate(0.000000,2000.000000) scale(0.100000,-0.100000)"
fill="#ffffff" stroke="none">
<path d="M7212 19399 c-246 -31 -600 -201 -740 -354 -98 -108 -139 -244 -129
-439 4 -67 9 -139 13 -162 l6 -40 -70 -26 c-110 -41 -343 -204 -358 -250 -4
-13 -11 -17 -22 -13 -104 40 -271 29 -411 -28 -79 -32 -201 -102 -241 -138
l-32 -29 -29 20 c-97 69 -253 114 -399 113 -172 -1 -312 -45 -454 -143 -179
-124 -308 -310 -368 -531 -18 -67 -23 -110 -23 -209 1 -111 4 -134 28 -205 33
-94 97 -194 164 -256 26 -25 109 -88 184 -141 192 -137 261 -218 303 -356 l15
-54 -252 -306 c-547 -663 -848 -1045 -1091 -1386 -377 -527 -635 -982 -843
-1486 -62 -149 -163 -447 -163 -481 0 -9 9 -47 21 -84 26 -86 74 -133 197
-199 130 -69 288 -199 573 -471 l95 -91 -13 -49 c-7 -28 -31 -144 -54 -260
-26 -132 -46 -213 -55 -218 -23 -13 -17 -29 55 -135 197 -290 439 -559 1121
-1243 411 -413 597 -588 842 -792 l116 -97 7 -63 c16 -147 54 -280 132 -466
23 -57 43 -106 43 -107 0 -2 -11 -4 -24 -4 -57 0 -57 -45 0 -195 115 -298 386
-699 678 -1003 l113 -117 -25 -21 c-17 -14 -23 -26 -18 -40 4 -10 88 -73 187
-139 187 -124 243 -173 419 -365 93 -101 194 -180 232 -180 10 0 18 -4 18 -8
0 -4 -375 -122 -832 -262 -458 -139 -1199 -365 -1647 -501 -447 -136 -815
-249 -817 -251 -3 -4 92 -721 101 -765 4 -16 40 -38 151 -92 142 -69 148 -71
185 -59 22 6 41 9 43 7 2 -2 99 -143 217 -314 117 -170 293 -427 391 -569 98
-142 178 -264 178 -270 0 -6 20 -177 45 -380 25 -204 42 -373 38 -377 -5 -3
-55 -21 -113 -38 -57 -17 -107 -35 -111 -39 -4 -4 4 -81 16 -172 12 -91 35
-257 50 -370 14 -113 28 -212 31 -221 2 -9 69 -46 149 -84 l145 -68 783 238
c430 131 786 241 790 245 9 8 -78 700 -92 735 -5 11 -62 50 -132 89 -68 38
-126 70 -127 72 -2 1 -21 123 -42 270 l-39 268 230 885 c126 487 233 893 237
901 7 11 205 79 233 80 3 0 15 -82 27 -183 32 -267 230 -1836 238 -1879 l6
-37 -107 -33 c-59 -18 -110 -38 -112 -45 -7 -17 94 -765 104 -774 16 -14 278
-132 293 -131 8 0 215 62 459 136 244 75 448 136 453 136 5 0 42 -20 82 -44
201 -122 488 -247 686 -298 150 -39 366 -48 605 -24 88 8 207 18 265 22 99 6
109 5 175 -21 94 -37 232 -107 331 -166 180 -108 338 -167 511 -190 146 -19
256 -1 441 72 40 16 76 29 81 29 5 0 41 -57 81 -127 127 -225 253 -394 434
-580 101 -105 135 -128 151 -103 3 5 9 10 14 10 4 0 54 -35 111 -78 58 -42
134 -90 170 -105 36 -15 74 -33 85 -40 53 -31 130 -65 138 -60 4 3 72 4 150 4
325 -3 588 88 854 295 46 36 84 60 88 54 3 -5 19 -10 34 -10 22 0 39 14 81 63
123 144 219 331 350 682 45 121 109 276 141 344 32 68 56 127 53 132 -6 10 96
211 155 306 23 37 39 52 61 56 107 22 213 159 415 537 221 414 285 580 379
993 l7 28 34 -21 c54 -33 67 -19 98 105 14 58 36 165 49 239 l22 134 258 78
c250 76 258 79 258 104 -1 14 -13 116 -29 228 -15 111 -26 202 -24 202 2 0 19
-18 39 -40 50 -55 150 -120 291 -187 117 -57 119 -57 208 -57 80 1 109 7 255
53 207 65 258 90 325 163 84 91 100 141 100 323 0 132 -4 163 -29 260 -15 61
-37 127 -48 148 -29 58 -94 124 -178 180 -41 27 -76 51 -77 52 -1 0 24 266 57
591 l60 589 -30 230 c-31 242 -59 462 -110 860 -63 494 -70 551 -76 583 -4 29
-20 43 -139 122 l-135 90 -357 -109 c-197 -60 -360 -108 -362 -106 -2 3 -8
114 -13 247 -12 283 5 898 25 935 202 371 237 457 237 578 0 91 -37 159 -154
283 -108 114 -139 168 -161 284 -8 40 -23 121 -34 179 -26 132 -73 249 -188
466 -49 92 -97 187 -108 211 -10 23 -23 46 -29 51 -8 7 -9 34 -5 88 4 43 8
168 9 278 2 189 3 197 16 155 8 -25 31 -128 50 -230 20 -102 40 -195 45 -207
9 -25 38 -30 57 -11 15 15 16 423 2 588 -19 207 -67 453 -114 588 -21 58 -6
46 50 -43 49 -77 76 -93 103 -61 31 37 -106 394 -250 656 -56 102 -45 107 18
9 40 -62 65 -78 88 -59 20 17 19 31 -10 96 -28 64 -24 74 33 74 57 0 322 40
470 71 479 99 893 271 1184 489 177 133 387 371 404 458 6 30 2 37 -62 100
-203 198 -641 403 -1031 482 -256 51 -400 63 -723 57 -347 -6 -528 -26 -943
-103 -77 -14 -141 -24 -143 -22 -2 3 -9 40 -15 84 -18 129 14 283 121 578 143
398 165 502 157 754 -4 143 -9 184 -35 282 -78 299 -223 535 -501 810 -249
248 -568 473 -919 649 -481 241 -1195 228 -2123 -40 l-137 -39 -56 34 c-188
113 -419 26 -475 -179 l-11 -40 -152 -58 c-84 -32 -243 -95 -352 -141 l-199
-83 -79 53 c-162 108 -391 164 -675 164 -114 0 -123 1 -123 19 0 46 -45 156
-92 227 -58 86 -134 149 -226 185 -47 19 -76 23 -167 23 -99 0 -118 -3 -193
-31 -45 -18 -110 -49 -145 -70 -74 -45 -213 -175 -273 -257 -36 -48 -45 -55
-50 -40 -108 300 -265 578 -420 743 -147 157 -275 211 -442 190z m206 -126
c77 -37 210 -172 291 -293 204 -306 371 -777 360 -1013 -6 -105 -49 -189 -148
-288 -87 -86 -160 -132 -251 -155 -123 -31 -184 -6 -432 181 -150 113 -165
128 -192 181 -97 200 -272 402 -406 467 -41 21 -97 41 -123 46 -26 5 -50 10
-52 13 -11 10 -25 145 -25 238 0 229 64 337 275 462 198 118 404 187 558 188
76 0 96 -4 145 -27z m1424 -528 c57 -20 125 -78 167 -143 27 -42 91 -184 91
-202 0 -3 -71 -16 -158 -29 -87 -12 -302 -50 -478 -85 -175 -35 -320 -63 -322
-61 -2 2 -9 26 -17 54 l-13 52 59 89 c118 177 299 308 469 340 58 11 143 5
202 -15z m751 -465 c118 -25 242 -69 319 -113 l58 -33 -139 -63 c-77 -35 -190
-91 -251 -125 l-112 -62 -66 9 c-104 15 -658 14 -792 -1 -175 -20 -363 -52
-452 -78 -15 -4 -15 -1 -1 43 14 43 18 152 10 268 l-2 29 215 42 c245 49 497
90 627 103 151 16 473 6 586 -19z m-3044 5 c81 -28 176 -109 268 -228 58 -75
123 -186 123 -211 0 -11 9 -29 19 -40 41 -44 120 -280 166 -496 41 -197 33
-303 -36 -448 -77 -160 -211 -260 -363 -270 l-71 -4 3 87 c12 302 -132 794
-312 1070 -67 103 -194 238 -270 285 -30 19 -55 38 -56 41 0 10 143 121 205
158 113 68 232 89 324 56z m-665 -235 c82 -26 198 -103 267 -178 129 -141 246
-367 320 -619 80 -277 123 -610 85 -667 -9 -14 -16 -34 -16 -44 0 -34 -61
-102 -138 -152 -136 -89 -297 -144 -462 -156 l-90 -7 34 66 c49 94 70 199 63
311 -12 173 -87 397 -210 626 -97 179 -308 491 -394 581 -42 44 -74 81 -72 83
65 52 223 133 304 157 86 25 225 25 309 -1z m8258 -280 c196 -135 357 -247
357 -250 1 -3 -192 -138 -429 -300 l-430 -295 31 -26 c17 -15 163 -127 324
-250 162 -123 293 -228 292 -233 -3 -7 -984 -628 -1425 -901 l-74 -46 75 108
c448 646 605 878 601 884 -4 7 -440 380 -473 405 -12 9 54 109 379 583 216
315 398 571 404 569 7 -2 172 -113 368 -248z m-9132 151 c159 -54 279 -155
417 -351 220 -314 367 -622 408 -854 18 -105 19 -152 4 -231 -32 -176 -151
-279 -422 -370 -177 -59 -298 -67 -392 -26 -100 44 -189 193 -251 416 -78 286
-122 391 -211 507 -58 76 -109 115 -131 101 -25 -15 -27 -50 -4 -62 30 -16
116 -129 149 -196 38 -75 63 -153 107 -330 19 -77 44 -167 56 -200 l20 -59
-24 -24 -24 -24 -21 64 c-45 136 -117 216 -345 388 -144 108 -192 160 -241
263 -85 175 -63 411 58 627 64 114 207 253 318 309 126 63 209 82 349 77 84
-3 132 -9 180 -25z m3950 -112 c0 -54 -55 -198 -149 -388 -50 -101 -94 -200
-97 -219 -7 -36 -84 -182 -96 -182 -12 0 -397 -180 -549 -255 -204 -102 -355
-191 -571 -334 l-196 -129 -12 28 c-7 16 -21 37 -32 47 -19 17 -22 16 -114
-31 -51 -27 -135 -76 -186 -110 -105 -68 -298 -251 -298 -282 0 -10 7 -32 15
-48 8 -15 15 -30 15 -32 0 -2 -45 -35 -100 -75 l-101 -71 -23 25 c-67 72 -161
38 -363 -129 -54 -44 -152 -116 -218 -158 -272 -177 -365 -287 -329 -392 7
-21 10 -41 6 -45 -4 -3 -37 -31 -74 -63 -37 -32 -72 -56 -77 -54 -15 5 -198
265 -257 364 -63 107 -116 227 -134 304 -7 30 -17 60 -22 67 -6 8 23 39 94
102 208 182 245 208 348 242 115 39 224 87 282 126 40 27 47 28 108 22 92 -10
239 8 350 43 175 55 345 161 405 252 l30 46 81 0 c146 0 253 46 361 155 123
126 193 301 193 487 0 53 -7 131 -15 174 -17 89 -23 79 88 139 l67 36 54 -25
c30 -14 62 -26 72 -26 12 0 2 -16 -34 -54 -115 -121 -249 -389 -220 -439 18
-33 48 -20 69 31 123 293 226 413 415 483 121 45 233 132 322 250 l42 56 94
21 c197 46 398 68 629 71 l127 1 0 -31z m333 2 l38 -6 -89 -62 c-48 -34 -133
-103 -188 -152 l-101 -89 28 73 c36 93 59 179 59 223 l0 34 108 -7 c59 -4 124
-10 145 -14z m-830 -1228 c-49 -166 -146 -536 -163 -628 -18 -93 -19 -97 -41
-90 -25 8 -82 -11 -103 -34 -10 -10 -45 -33 -79 -50 -34 -16 -111 -71 -171
-121 -59 -50 -147 -117 -195 -149 -76 -50 -263 -194 -331 -255 -14 -12 -45
-34 -70 -48 -41 -24 -92 -67 -280 -239 -36 -33 -82 -70 -102 -82 -38 -23 -278
-253 -278 -266 0 -4 -9 -16 -19 -25 -11 -10 -18 -23 -15 -30 3 -7 -8 -18 -23
-25 -75 -34 -158 -114 -298 -291 -83 -106 -90 -131 -54 -201 38 -76 305 -318
367 -334 17 -4 45 3 88 25 51 25 86 55 181 156 151 162 519 486 1100 972 132
111 245 202 251 202 5 0 12 -23 16 -50 4 -28 16 -80 27 -116 l20 -65 -20 -33
c-20 -31 -25 -33 -73 -33 -91 1 -188 -63 -374 -248 -120 -119 -153 -170 -138
-212 13 -37 68 -63 132 -63 63 0 101 15 165 64 27 21 51 36 53 34 2 -2 -3 -27
-10 -55 -12 -44 -12 -55 1 -72 23 -33 48 -25 97 32 l46 52 -45 -108 c-118
-285 -219 -703 -185 -766 17 -34 47 -26 77 22 41 63 41 22 0 -99 -68 -198
-108 -414 -123 -666 l-7 -117 -116 118 c-307 309 -782 673 -1084 831 -231 120
-417 173 -607 174 -132 0 -246 -23 -316 -63 -17 -10 -54 -26 -82 -35 -80 -27
-199 -110 -294 -207 l-87 -89 23 68 c69 201 183 357 334 457 41 27 52 48 32
60 -11 7 -82 -39 -157 -103 -151 -127 -289 -368 -333 -581 -10 -47 -29 -111
-43 -141 -178 -382 -102 -974 194 -1512 70 -128 204 -328 301 -451 106 -134
405 -431 538 -533 326 -253 620 -401 975 -491 123 -31 375 -43 506 -24 178 27
368 101 514 202 99 68 238 216 299 317 48 80 116 256 116 300 0 38 15 25 46
-40 16 -34 46 -79 66 -101 51 -55 83 -168 83 -297 -1 -124 -20 -166 -122 -272
l-78 -80 0 -58 c0 -52 4 -65 41 -117 l42 -59 -64 -74 c-105 -123 -162 -251
-194 -440 -14 -77 -49 -138 -124 -208 -61 -58 -103 -81 -232 -128 -108 -39
-204 -85 -253 -121 -19 -15 -36 -22 -40 -16 -3 5 -89 67 -191 138 -355 245
-662 483 -1003 778 -1265 1092 -2106 2142 -2562 3197 -77 179 -77 181 -16 305
62 124 144 217 477 536 360 346 490 465 772 707 381 327 624 516 1197 933 767
558 1161 817 1603 1054 117 63 438 220 458 225 1 0 -19 -66 -43 -147z m-3633
-453 c70 -110 172 -172 305 -188 l63 -7 -87 -72 c-337 -278 -687 -634 -1191
-1209 -527 -603 -768 -909 -982 -1251 -75 -120 -180 -318 -203 -384 -23 -65
-10 -86 119 -182 428 -322 914 -746 1163 -1017 59 -63 120 -129 137 -147 l29
-32 -99 35 c-123 44 -211 53 -282 30 -41 -14 -68 -34 -131 -99 -44 -45 -88
-97 -98 -115 -10 -18 -23 -31 -30 -30 -7 2 -142 127 -300 279 -422 406 -517
484 -688 569 -130 65 -155 93 -155 175 0 81 51 266 118 425 33 80 68 174 77
210 21 81 184 404 311 615 312 521 637 950 1364 1805 314 369 473 560 504 607
11 18 22 33 22 33 1 0 16 -23 34 -50z m3404 -382 c21 -20 23 -28 18 -68 -5
-30 -12 -45 -22 -46 -36 -2 -40 -5 -40 -28 0 -13 9 -35 20 -49 18 -23 19 -35
13 -165 l-6 -141 -37 -36 -37 -37 -5 55 c-9 109 -147 336 -214 353 -13 3 -24
10 -24 14 0 4 26 27 58 52 145 114 225 142 276 96z m-3199 -473 c63 -127 173
-305 238 -387 l46 -57 -398 -350 c-631 -554 -786 -707 -984 -969 -110 -147
-144 -214 -163 -328 -12 -64 -29 -117 -65 -191 -63 -132 -118 -270 -164 -415
l-38 -117 -76 65 c-156 135 -489 402 -580 466 l-22 16 77 123 c261 419 493
727 1013 1344 419 498 608 710 860 968 l135 138 33 -98 c18 -54 57 -147 88
-208z m2823 191 c81 -42 184 -196 196 -294 11 -80 1 -95 -124 -192 l-115 -89
-6 42 c-8 60 -30 105 -100 207 -64 94 -101 132 -156 158 l-32 15 73 58 c133
106 197 129 264 95z m-343 -295 c67 -38 130 -108 166 -184 23 -50 29 -75 29
-131 l0 -68 -107 -107 c-60 -59 -126 -121 -148 -138 l-40 -31 0 77 c0 67 -5
85 -36 151 -59 123 -141 201 -237 225 l-44 11 99 88 c157 139 223 161 318 107z
m2480 -16 c83 -8 256 -29 385 -45 445 -56 911 -96 1225 -106 l190 -6 92 -39
c220 -92 434 -155 663 -193 534 -90 1059 -41 1963 182 l278 69 86 -43 c47 -24
110 -63 140 -86 58 -44 196 -188 188 -196 -2 -3 -38 17 -80 43 -63 39 -78 45
-91 34 -26 -21 -7 -58 78 -148 96 -103 216 -260 280 -368 68 -114 69 -125 5
-65 -61 57 -71 60 -99 35 -22 -20 -23 -33 -1 -71 16 -28 16 -31 0 -46 -33 -33
-13 -66 38 -66 29 0 36 -7 79 -82 62 -109 168 -327 195 -403 l22 -60 -38 45
c-21 25 -58 68 -84 95 -25 28 -54 64 -64 82 -23 39 -44 49 -63 29 -13 -13 -8
-30 51 -143 134 -262 197 -526 221 -933 5 -86 8 -93 -58 123 -20 64 -41 117
-46 117 -6 0 -10 11 -10 24 0 23 -23 56 -38 56 -34 -1 -35 -13 -33 -371 2
-359 -5 -476 -36 -674 l-18 -110 -6 185 c-6 167 -24 323 -47 405 -6 23 -14 30
-33 30 -24 0 -24 -2 -31 -115 -28 -472 -98 -740 -254 -982 -24 -38 -45 -68
-48 -68 -4 0 107 344 170 523 45 127 49 157 20 157 -20 0 -62 -107 -155 -388
-116 -349 -174 -476 -292 -632 -107 -141 -209 -219 -457 -347 -299 -154 -317
-168 -712 -527 -218 -198 -311 -275 -441 -362 -144 -96 -298 -162 -359 -152
-18 2 12 36 184 202 232 223 279 276 270 300 -15 39 -50 15 -194 -130 -187
-188 -416 -377 -565 -466 -60 -36 -161 -75 -171 -66 -2 3 23 34 57 69 95 100
196 228 333 424 113 162 124 181 110 195 -14 13 -16 13 -27 0 -7 -9 -73 -97
-148 -195 -153 -201 -246 -309 -332 -384 -134 -118 -251 -178 -365 -188 l-67
-6 53 42 c95 75 143 127 136 145 -11 28 -32 18 -109 -48 -86 -76 -149 -119
-179 -123 -11 -2 -30 -14 -41 -27 -24 -28 -133 -89 -263 -145 -142 -63 -454
-173 -463 -164 -11 11 141 240 168 252 26 12 50 87 35 111 -18 29 -40 21 -76
-26 -25 -33 -59 -60 -108 -86 -104 -57 -203 -128 -292 -210 l-78 -71 40 79
c62 124 77 171 62 189 -18 22 -36 19 -87 -16 -126 -87 -273 -227 -386 -369
l-28 -35 2 103 c2 64 -1 106 -8 113 -19 19 -55 3 -114 -50 l-57 -51 9 38 c5
20 9 71 9 113 0 61 -4 82 -19 100 l-19 24 -39 -20 c-20 -11 -64 -47 -97 -80
l-58 -59 7 44 c12 71 35 153 47 167 6 7 27 13 48 13 100 0 401 63 650 136 530
156 836 337 1190 700 188 192 385 452 378 499 -5 37 -35 29 -64 -17 -179 -287
-546 -645 -846 -826 -208 -126 -495 -236 -835 -321 -356 -89 -523 -104 -753
-71 -205 30 -313 31 -407 2 -40 -12 -75 -27 -78 -32 -3 -6 -15 -10 -26 -10
-18 0 -15 9 25 84 73 138 84 252 35 350 -42 86 -99 110 -298 126 -66 5 -136
16 -155 24 -36 15 -86 78 -86 110 0 10 30 50 66 89 123 130 158 271 113 452
-6 22 -12 49 -15 60 -3 11 13 -13 35 -52 62 -111 135 -216 201 -287 33 -35 60
-68 60 -73 0 -14 -157 -163 -217 -207 -54 -39 -65 -64 -38 -86 13 -11 26 -6
83 33 73 51 147 118 202 184 l35 41 70 -24 c150 -51 358 -17 611 101 336 156
483 392 404 648 -72 233 -405 495 -797 628 -132 44 -237 63 -361 63 l-113 0
72 72 71 72 35 -14 c18 -8 107 -32 196 -53 196 -48 258 -70 337 -122 57 -39
80 -43 80 -14 0 22 -98 94 -185 135 -71 35 -330 120 -362 120 -24 0 -13 16 37
53 l50 37 60 -30 c33 -17 117 -51 187 -76 151 -55 241 -99 302 -147 71 -57
100 -26 33 35 -68 61 -131 99 -311 185 -97 47 -177 86 -179 88 -2 1 51 56 116
121 104 104 124 130 160 204 45 93 54 125 34 125 -7 0 -24 -26 -37 -58 -30
-74 -65 -128 -128 -195 -56 -59 -187 -162 -206 -162 -6 0 -23 -11 -36 -24 -14
-14 -69 -57 -122 -97 -293 -216 -450 -446 -482 -704 -9 -75 -3 -190 14 -257 6
-23 4 -26 -13 -21 -26 6 -88 142 -240 523 -135 338 -158 390 -178 404 -30 22
-74 371 -74 591 0 92 -14 129 -51 133 -33 4 -43 -9 -67 -88 l-20 -65 -1 163
c-1 90 4 206 10 258 9 75 9 97 -2 110 -26 31 -52 12 -101 -76 -56 -100 -58
-95 -33 97 29 221 86 426 156 565 24 48 27 61 18 77 -10 15 -8 25 10 54 37 61
-1 98 -49 47 -15 -16 -33 -30 -38 -30 -6 0 -20 -12 -32 -27 l-21 -28 6 40 c33
211 162 570 306 845 30 59 31 61 14 80 -10 11 -24 20 -32 20 -7 0 -47 -29 -88
-65 -41 -36 -75 -63 -75 -60 0 11 81 166 121 233 65 107 111 162 134 162 11 0
37 18 57 39 93 99 225 178 387 231 81 26 274 64 381 74 98 9 612 -4 755 -19z
m-2900 -294 c98 -44 214 -233 222 -358 l3 -68 -67 -53 c-38 -29 -94 -75 -126
-102 -32 -28 -62 -50 -66 -50 -5 0 -11 14 -15 31 -25 124 -188 325 -292 359
l-36 12 78 80 c116 116 186 164 244 167 8 0 33 -8 55 -18z m-319 -389 c74 -49
137 -111 184 -184 61 -93 60 -98 -12 -180 -35 -40 -86 -97 -114 -127 l-51 -54
-18 54 c-25 77 -57 136 -104 196 -47 58 -143 127 -202 144 -21 7 -39 15 -39
19 0 15 140 141 172 155 61 27 118 19 184 -23z m-280 -222 c76 -37 147 -117
198 -222 63 -132 63 -131 21 -151 -45 -22 -117 -22 -158 -1 -49 26 -143 121
-208 211 -32 44 -59 84 -59 88 0 4 20 31 45 60 43 50 47 52 80 45 18 -4 55
-18 81 -30z m-233 -651 c315 -64 692 -291 1226 -737 204 -171 388 -354 492
-488 34 -44 43 -65 47 -107 2 -29 2 -50 0 -47 -3 3 -43 52 -89 109 -134 168
-464 485 -715 687 -333 268 -787 464 -1114 481 -392 20 -677 -200 -794 -612
-78 -274 -49 -549 93 -878 168 -392 432 -721 901 -1125 704 -606 1231 -788
1661 -573 177 89 328 240 403 402 65 140 81 222 81 415 l0 171 54 -144 54
-144 -21 -85 c-143 -580 -732 -902 -1377 -752 -299 69 -674 261 -965 494 -108
87 -331 304 -425 414 -346 408 -557 840 -621 1271 -22 155 -15 407 15 529 71
281 319 576 551 656 36 12 83 30 105 39 112 48 278 57 438 24z m-2343 -2313
c155 -54 346 -200 413 -318 57 -100 68 -206 30 -301 -21 -51 -47 -60 -137 -48
-88 12 -140 30 -234 81 -179 97 -323 250 -381 406 -19 49 -19 59 -7 105 14 56
44 95 79 103 49 10 166 -3 237 -28z m12763 -3126 l99 -765 -52 -540 c-29 -297
-55 -553 -59 -569 -6 -26 -15 -31 -131 -67 -69 -21 -132 -39 -140 -39 -11 0
-70 141 -203 476 l-187 476 -100 756 c-55 417 -102 769 -104 783 l-5 26 377
116 c207 63 383 115 391 114 12 -2 35 -160 114 -767z m-11213 488 c426 -337
853 -633 1187 -823 l140 -79 -52 -81 c-101 -155 -225 -409 -225 -459 0 -28 18
-46 47 -46 19 0 33 22 96 153 112 233 231 416 402 622 98 119 304 323 440 438
l120 101 8 -45 c5 -24 26 -127 47 -229 22 -102 60 -309 85 -460 52 -314 83
-458 131 -616 70 -233 162 -401 284 -518 39 -38 69 -70 68 -71 -11 -8 -747
-228 -762 -227 -10 1 -32 -6 -48 -14 -27 -14 -244 -84 -260 -84 -4 0 -3 11 4
24 6 14 8 31 5 40 -8 21 -91 14 -118 -10 -33 -30 -97 -24 -157 15 -59 37 -174
156 -252 259 -40 52 -61 72 -78 72 -12 0 -47 20 -78 45 -30 25 -96 73 -147
106 -51 34 -94 64 -96 65 -2 2 3 12 12 22 10 10 17 24 17 31 0 7 -55 70 -123
140 -208 214 -393 447 -533 674 -59 93 -166 302 -179 347 -7 22 -6 23 8 12 9
-8 28 -12 44 -10 48 5 42 40 -45 240 -44 101 -91 220 -105 264 -33 106 -59
238 -43 226 6 -5 76 -61 156 -124z m9890 -95 c0 -5 14 -116 30 -248 16 -132
30 -247 30 -255 0 -11 -34 -25 -115 -49 -63 -19 -115 -36 -115 -37 0 -7 180
-1391 194 -1494 8 -58 43 -323 77 -590 35 -267 64 -487 66 -489 2 -2 54 12
117 31 l114 35 12 -81 c52 -379 57 -438 41 -444 -77 -30 -1277 -389 -1282
-384 -11 12 -70 505 -62 512 4 3 48 19 97 34 50 14 92 29 94 31 7 6 -130 1028
-138 1038 -6 6 -635 -177 -648 -189 -3 -2 123 -1001 131 -1040 1 -8 38 -1 107
21 91 28 106 30 109 16 11 -48 67 -497 62 -503 -7 -7 -1156 -358 -1175 -358
-9 0 -19 53 -36 178 -13 97 -26 187 -29 200 -4 12 -32 39 -64 61 -33 21 -55
41 -50 43 4 3 50 18 101 33 l92 28 -5 31 c-3 17 -62 463 -130 991 -69 528
-141 1079 -160 1225 -19 146 -35 274 -35 285 0 45 -11 46 -114 14 -54 -16
-103 -28 -109 -26 -10 3 -81 489 -74 511 4 12 1309 408 1317 399 7 -9 74 -513
68 -517 -1 -1 -47 -15 -101 -31 -54 -16 -99 -31 -101 -34 -2 -3 21 -190 50
-416 29 -225 58 -455 65 -510 6 -55 15 -104 19 -108 6 -6 635 176 648 188 4 4
-128 1038 -133 1043 -2 2 -47 -10 -101 -27 -54 -17 -99 -29 -101 -28 -2 3 -72
521 -69 523 4 4 1283 393 1294 393 6 1 12 -2 12 -6z m-3006 -588 c94 -20 267
-88 254 -100 -1 -2 -59 -20 -128 -41 -69 -20 -126 -37 -127 -38 -1 -1 14 -121
33 -266 18 -146 34 -266 34 -267 0 -1 -24 -18 -53 -36 -103 -66 -150 -149
-150 -262 0 -80 20 -151 63 -219 16 -25 25 -46 20 -46 -23 0 -146 -131 -207
-221 -36 -54 -69 -99 -72 -99 -3 0 -86 214 -185 475 -98 261 -183 476 -188
477 -15 5 99 339 140 408 118 203 321 287 566 235z m-865 -1110 c98 -259 341
-904 541 -1435 199 -531 366 -968 370 -973 5 -6 187 43 252 68 11 5 21 -45 48
-255 18 -143 31 -262 29 -265 -3 -2 -298 -94 -657 -203 l-651 -199 -5 26 c-3
14 -17 116 -31 226 -14 110 -28 216 -31 236 l-5 37 76 23 c89 26 87 -1 16 229
-33 107 -52 155 -62 154 -8 -1 -158 -45 -335 -99 l-321 -98 -7 -105 c-3 -58
-6 -149 -6 -202 l0 -98 81 25 c44 14 82 23 84 21 3 -3 57 -397 67 -492 3 -28
2 -29 -122 -66 -188 -57 -646 -196 -718 -219 -45 -14 -64 -16 -67 -8 -6 20
-66 509 -63 512 2 2 44 15 93 31 50 15 91 28 92 28 1 1 45 739 98 1641 53 902
98 1641 98 1642 5 5 943 290 950 289 5 -1 88 -213 186 -471z m957 215 l9 -71
120 -55 c66 -31 123 -59 127 -62 7 -7 49 -314 44 -319 -2 -2 -29 6 -61 17
-140 48 -283 158 -332 253 -27 54 -39 127 -29 180 7 36 78 127 100 127 8 0 16
-26 22 -70z m129 -576 c50 -23 112 -48 139 -55 l49 -12 -54 -28 c-114 -57
-178 -166 -165 -277 14 -122 121 -276 251 -361 l60 -39 61 -489 c38 -296 58
-490 52 -494 -5 -3 -55 -18 -111 -34 -56 -15 -122 -34 -146 -41 -25 -8 -46
-12 -49 -9 -7 7 -592 1566 -592 1579 0 25 184 291 236 342 l54 54 63 -47 c34
-25 103 -65 152 -89z m205 -177 c0 -7 13 -116 30 -242 16 -125 28 -231 25
-234 -12 -11 -143 137 -170 192 -55 114 -33 217 58 272 48 28 57 30 57 12z
m4081 -300 c58 -39 95 -113 114 -227 13 -82 17 -336 6 -376 -30 -112 -90 -153
-325 -223 -207 -62 -258 -65 -321 -16 -71 54 -98 150 -111 395 -6 103 -4 136
10 185 37 129 78 160 304 231 196 62 267 69 323 31z m-2411 -239 c39 -254 56
-417 48 -447 -38 -146 -33 -138 -94 -156 -31 -9 -57 -15 -59 -13 -7 7 -74 562
-69 567 12 12 173 57 174 49z m-8774 -1223 c-23 -119 -33 -152 -42 -142 -16
17 -134 207 -137 220 -1 7 162 69 204 76 3 1 -8 -69 -25 -154z m9950 -72 c-3
-16 -10 -57 -16 -93 -6 -36 -20 -104 -31 -152 l-21 -88 -41 24 c-55 33 -72 22
-87 -52 -45 -224 -126 -485 -207 -672 -71 -162 -269 -530 -358 -665 -61 -92
-144 -175 -175 -175 -12 0 -30 -4 -40 -10 -22 -12 -99 -137 -160 -260 -24 -47
-62 -120 -87 -163 -28 -50 -42 -85 -38 -97 3 -10 -3 -36 -13 -57 -11 -21 -68
-159 -127 -308 -112 -284 -189 -445 -256 -538 -40 -57 -52 -66 -64 -47 -14 23
-54 6 -120 -52 -224 -197 -445 -309 -696 -352 -125 -22 -315 -32 -342 -18 -12
6 -51 19 -86 27 -88 22 -139 50 -256 140 -123 95 -168 119 -194 106 -16 -9
-31 3 -103 77 -160 166 -301 358 -417 567 -90 162 -201 433 -201 492 0 13 -9
56 -20 95 -11 40 -20 89 -20 110 0 33 3 38 35 48 64 21 84 101 61 245 -8 50
-32 192 -55 316 -45 255 -63 452 -37 409 8 -14 15 -33 16 -42 0 -10 10 -22 21
-29 18 -9 27 -7 50 10 18 14 37 19 51 16 14 -3 783 227 2018 604 1097 335
2001 610 2008 610 10 1 12 -7 8 -26z"/>
<path d="M7983 16256 c-99 -49 -163 -108 -163 -148 0 -39 36 -129 71 -177 80
-112 171 -86 307 87 47 59 57 95 43 143 -21 70 -99 141 -153 138 -13 -1 -60
-20 -105 -43z"/>
<path d="M7425 15924 c-46 -24 -128 -90 -152 -122 -32 -43 -38 -91 -19 -156
34 -115 136 -183 219 -145 22 10 78 83 134 177 39 65 26 139 -36 205 -30 33
-72 57 -98 57 -10 0 -31 -7 -48 -16z"/>
<path d="M6740 15412 c-53 -34 -127 -112 -140 -148 -26 -68 -2 -143 63 -199
53 -45 108 -61 160 -45 46 13 115 73 123 106 3 13 12 24 20 24 24 0 47 59 42
110 -9 93 -85 169 -176 177 -39 4 -54 0 -92 -25z"/>
<path d="M6116 14870 c-61 -24 -98 -59 -143 -135 -32 -54 -34 -62 -24 -95 6
-20 24 -57 41 -82 96 -145 276 -143 350 3 22 43 45 169 36 203 -10 39 -48 78
-100 102 -61 29 -95 29 -160 4z"/>
<path d="M7404 14101 c-17 -11 -60 -48 -95 -83 -36 -34 -105 -98 -155 -141
-84 -71 -108 -98 -158 -180 -17 -28 -17 -29 9 -62 14 -19 46 -46 71 -61 60
-36 116 -30 186 19 75 52 368 336 368 356 0 25 -51 101 -94 139 -43 38 -85 42
-132 13z"/>
<path d="M7960 9681 c-8 -4 -42 -21 -75 -37 -114 -55 -248 -208 -289 -327 -62
-184 59 -339 239 -306 118 22 282 135 342 236 34 59 63 155 63 210 0 137 -95
234 -226 232 -22 0 -46 -4 -54 -8z m58 -206 c42 -35 56 -75 49 -143 -7 -84
-45 -152 -104 -190 -73 -46 -123 -64 -183 -64 -82 -2 -132 38 -141 113 -8 59
129 241 216 287 57 30 125 29 163 -3z"/>
<path d="M7792 15304 c-27 -22 -42 -44 -42 -58 0 -30 36 -76 59 -76 25 0 101
61 101 82 0 17 -56 88 -69 88 -4 0 -26 -16 -49 -36z"/>
<path d="M7483 15008 c-65 -10 -80 -27 -50 -57 10 -10 6 -12 -18 -11 -56 4
-65 1 -65 -22 0 -29 47 -88 71 -88 10 0 19 5 19 11 0 19 35 56 48 51 16 -5 46
21 73 65 17 27 19 36 9 48 -7 8 -15 14 -19 14 -3 -1 -34 -6 -68 -11z"/>
<path d="M9190 14792 c0 -12 20 -26 68 -46 130 -56 358 -178 467 -251 207
-139 364 -301 475 -490 22 -39 21 -38 -41 21 -92 88 -149 127 -165 113 -24
-19 -16 -36 34 -72 99 -73 191 -186 256 -315 32 -62 27 -76 -12 -40 -92 87
-468 294 -632 348 -41 14 -81 31 -88 37 -9 9 -19 10 -31 4 -39 -21 -44 -40
-45 -149 0 -88 4 -117 22 -163 70 -176 232 -339 395 -397 59 -21 90 -26 167
-25 91 0 140 11 255 58 38 15 -47 -64 -169 -158 -65 -51 -125 -97 -133 -104
-9 -7 -13 -19 -10 -28 8 -19 41 -20 57 0 7 8 69 55 139 104 127 91 198 152
227 196 23 35 25 86 4 110 -9 11 -24 49 -33 85 -9 36 -32 110 -52 165 -20 55
-38 107 -41 116 -5 14 0 15 43 6 125 -25 263 77 311 232 24 79 23 455 -2 480
-29 28 -33 -1 -28 -190 5 -208 -5 -278 -52 -348 -46 -68 -103 -104 -174 -109
-45 -3 -68 1 -98 16 -46 24 -61 40 -139 150 -163 230 -429 430 -794 597 -149
69 -181 77 -181 47z m515 -819 c43 -21 55 -32 55 -50 0 -12 11 -62 25 -109 39
-136 32 -254 -16 -254 -6 0 -30 19 -55 43 l-45 42 20 45 c38 82 25 199 -29
267 -19 24 -26 43 -15 43 2 0 29 -12 60 -27z m335 -193 c178 -119 309 -242
279 -260 -25 -16 -167 -51 -231 -56 -67 -7 -154 6 -211 30 l-35 14 25 49 c22
43 24 56 19 123 -3 41 -14 104 -25 140 -12 36 -21 69 -21 73 0 12 94 -42 200
-113z"/>
<path d="M11282 14067 c-20 -24 -24 -138 -8 -242 28 -183 99 -356 193 -470 42
-51 67 -70 135 -104 l83 -42 35 43 c140 172 314 312 520 417 301 154 596 218
884 191 105 -10 130 -9 137 1 19 31 -19 46 -158 59 -250 23 -561 -42 -832
-175 -203 -100 -400 -246 -522 -388 -34 -39 -66 -73 -70 -75 -14 -6 -92 54
-149 114 -139 147 -225 374 -219 576 3 89 -7 122 -29 95z"/>
<path d="M9114 13997 c-73 -54 -171 -160 -231 -250 -93 -140 -137 -299 -111
-402 10 -39 17 -50 33 -50 19 0 20 7 20 110 1 126 16 177 87 304 42 74 193
239 262 287 25 17 27 21 14 32 -13 10 -25 5 -74 -31z"/>
<path d="M12358 13636 c-182 -69 -347 -192 -555 -414 -71 -74 -134 -132 -148
-136 -44 -11 -31 -41 38 -87 118 -80 182 -134 318 -266 75 -73 143 -133 151
-133 33 0 28 32 -11 79 -53 62 -169 174 -261 251 -41 35 -77 65 -79 67 -19 16
180 -19 339 -60 176 -45 206 -50 305 -50 92 0 123 4 192 27 188 61 304 188
332 363 11 68 -1 185 -25 242 -18 44 -25 42 -234 -52 -196 -89 -258 -109 -439
-142 -265 -48 -358 -85 -467 -187 -113 -106 -67 -46 78 101 76 77 174 166 218
199 81 62 248 151 321 173 31 10 39 17 37 32 -2 11 -7 22 -13 23 -5 2 -49 -12
-97 -30z m548 -212 c31 -208 -82 -374 -291 -430 -50 -14 -231 -19 -271 -8 -20
5 -18 9 22 46 69 64 87 152 47 231 -11 22 -11 28 -1 31 7 2 52 16 100 30 48
15 149 53 225 86 76 33 143 59 150 60 6 0 15 -21 19 -46z m-598 -193 c27 -48
27 -67 2 -108 -24 -39 -133 -96 -168 -86 -26 6 -26 2 -7 46 8 20 15 66 15 101
l0 65 38 6 c20 4 42 8 47 10 34 11 53 3 73 -34z"/>
<path d="M9028 13602 c-42 -63 -74 -132 -103 -222 -46 -145 -46 -398 2 -388
12 3 15 27 17 153 1 141 3 156 34 245 18 52 51 124 73 159 22 35 38 70 35 77
-9 25 -33 15 -58 -24z"/>
<path d="M9056 13293 c-9 -60 -7 -300 4 -393 16 -129 51 -309 62 -316 23 -14
25 17 8 111 -30 167 -43 330 -38 487 4 135 3 148 -12 148 -12 0 -19 -11 -24
-37z"/>
<path d="M11510 13060 c-9 -17 -2 -30 51 -92 119 -139 217 -319 333 -620 61
-155 75 -178 96 -153 10 12 2 40 -40 152 -135 354 -228 535 -353 686 -42 50
-70 59 -87 27z"/>
<path d="M13907 13033 c-16 -15 -4 -35 49 -85 31 -29 74 -79 96 -110 39 -58
106 -190 127 -249 7 -21 16 -29 28 -27 25 5 20 36 -21 131 -53 122 -95 185
-176 269 -73 75 -89 86 -103 71z"/>
<path d="M13906 12823 c-5 -12 7 -29 38 -58 54 -49 102 -147 111 -225 l7 -55
-20 31 c-25 39 -93 95 -111 92 -8 -2 -19 -10 -24 -19 -9 -14 -1 -26 40 -66 75
-73 88 -120 88 -318 0 -141 2 -160 17 -163 9 -2 19 2 22 7 15 23 37 184 43
301 10 210 -29 348 -124 443 -49 49 -76 59 -87 30z"/>
<path d="M13882 12417 c-8 -9 -4 -46 13 -132 26 -125 46 -357 42 -485 -2 -70
-1 -75 20 -78 31 -5 38 39 37 223 0 148 -18 297 -49 414 -17 65 -40 86 -63 58z"/>
<path d="M13804 12145 c-3 -8 2 -36 13 -62 13 -35 18 -74 18 -148 0 -110 -19
-184 -82 -332 -34 -79 -37 -119 -10 -111 40 13 142 285 152 408 11 116 -29
260 -71 260 -8 0 -17 -7 -20 -15z"/>
<path d="M13691 11861 c-7 -5 -19 -41 -27 -81 -40 -210 -137 -402 -285 -564
-32 -35 -49 -62 -45 -71 3 -8 9 -15 14 -15 18 0 158 156 206 228 27 41 66 114
88 162 38 87 88 260 88 305 0 27 -21 47 -39 36z"/>
<path d="M6688 14344 c-35 -18 -38 -68 -7 -108 26 -33 62 -34 94 -1 33 32 31
60 -4 96 -33 33 -44 35 -83 13z"/>
<path d="M10800 6325 c-1 -33 -16 -388 -34 -790 -18 -401 -31 -732 -30 -734 3
-3 506 148 512 154 4 4 -423 1379 -437 1410 -7 15 -10 5 -11 -40z"/>
<path d="M12606 5548 c-9 -13 -30 -66 -47 -118 -37 -111 -48 -235 -30 -323 15
-70 70 -181 111 -224 35 -37 42 -39 60 -18 11 13 10 20 -8 43 -37 45 -81 125
-95 167 -6 22 -12 89 -11 150 0 99 3 119 33 200 18 50 33 101 34 115 3 33 -26
38 -47 8z"/>
</g>
</svg>
