<?xml version="1.0" standalone="no"?>
<!DOCTYPE svg PUBLIC "-//W3C//DTD SVG 20010904//EN"
 "http://www.w3.org/TR/2001/REC-SVG-20010904/DTD/svg10.dtd">
<svg version="1.0" xmlns="http://www.w3.org/2000/svg"
 width="1068.000000pt" height="1038.000000pt" viewBox="0 0 1068.000000 1038.000000"
 preserveAspectRatio="xMidYMid meet">
<metadata>
Created by potrace 1.16, written by Peter Selinger 2001-2019
</metadata>
<g transform="translate(0.000000,1038.000000) scale(0.100000,-0.100000)"
fill="#ffffff" stroke="none">
<path d="M1772 10324 c-12 -13 -130 -36 -143 -28 -12 7 -271 -37 -283 -47 -19
-17 4 -21 56 -10 29 6 89 13 133 16 44 3 134 13 200 23 93 13 120 21 123 34 2
12 -7 17 -36 20 -22 2 -44 -2 -50 -8z"/>
<path d="M2095 9749 c-4 -5 -8 -40 -9 -77 -1 -65 -3 -69 -58 -142 -64 -83 -84
-146 -72 -225 8 -53 22 -48 29 11 10 78 34 129 85 179 40 39 50 45 50 30 0
-25 -50 -131 -88 -188 -57 -85 -73 -164 -48 -234 8 -22 12 -44 9 -47 -4 -3 -1
-6 4 -6 6 0 25 -19 42 -42 24 -32 31 -37 31 -22 0 11 -4 24 -8 30 -4 5 -16 33
-26 62 -34 98 4 201 88 242 52 25 66 25 66 3 0 -10 16 -84 36 -165 27 -110 43
-158 65 -188 34 -46 57 -58 150 -73 72 -11 69 -12 135 50 59 54 39 111 -52
153 -46 22 -133 25 -177 6 l-35 -14 -11 41 c-6 23 -24 101 -41 172 -17 72 -46
191 -64 265 -19 74 -36 147 -40 163 -5 20 -12 27 -31 27 -13 0 -27 -5 -30 -11z"/>
<path d="M7 9733 c-15 -14 -5 -69 22 -127 16 -33 34 -84 40 -112 18 -90 50
-164 72 -164 18 0 18 0 0 31 -11 18 -27 62 -36 98 -35 140 -47 187 -57 211 -7
19 -7 22 2 13 13 -12 40 -7 40 7 0 29 -64 63 -83 43z"/>
<path d="M1370 9330 c-10 -13 -49 -28 -111 -44 -135 -33 -153 -45 -184 -115
-19 -43 -19 -66 1 -96 19 -29 34 -33 27 -7 -9 35 46 80 137 112 96 33 106 35
142 18 19 -9 32 -32 58 -103 18 -49 33 -101 34 -115 0 -14 3 -27 6 -30 12 -12
40 -73 40 -86 0 -15 39 -53 89 -86 36 -25 149 -25 158 -1 14 37 -85 93 -164
93 -25 0 -33 4 -33 18 0 9 -9 35 -19 57 -21 41 -24 52 -93 273 -43 138 -56
154 -88 112z"/>
<path d="M780 9216 c-5 -13 -6 -33 -3 -44 3 -13 -10 -40 -41 -82 -40 -54 -46
-69 -46 -111 0 -27 4 -49 9 -49 5 0 5 -16 -1 -38 -12 -50 4 -115 38 -149 35
-35 40 -22 14 33 -24 53 -22 89 10 141 17 29 63 53 75 41 3 -3 9 -27 15 -54
32 -156 39 -179 62 -196 13 -10 28 -22 35 -28 7 -5 36 -10 65 -10 43 0 57 5
80 27 15 15 28 35 28 45 0 21 -24 50 -57 67 -27 14 -98 15 -122 1 -16 -8 -20
-1 -35 58 -9 37 -21 81 -26 97 -6 17 -13 52 -16 78 -4 26 -11 50 -15 53 -5 3
-9 18 -9 34 0 35 -28 110 -41 110 -5 0 -14 -11 -19 -24z"/>
<path d="M4780 9156 c0 -8 -9 -18 -20 -21 -11 -3 -20 -11 -20 -17 0 -5 -7 -7
-16 -4 -8 3 -13 2 -10 -3 6 -10 -6 -13 -111 -32 -40 -7 -73 -17 -73 -21 0 -5
-11 -6 -24 -4 -14 2 -26 0 -28 -5 -2 -6 -13 -11 -25 -12 -12 0 -20 -4 -18 -8
3 -3 -19 -16 -49 -28 -33 -15 -66 -39 -90 -67 -36 -42 -39 -50 -42 -122 l-4
-77 45 -50 c35 -39 42 -43 30 -20 -24 47 -19 81 14 106 16 12 31 29 34 38 5
19 126 81 199 102 26 7 44 17 41 23 -4 5 7 7 28 3 20 -4 29 -3 21 2 -10 6 -4
10 18 15 53 10 90 7 96 -8 3 -8 16 -17 30 -20 14 -4 24 -14 24 -24 0 -10 7
-28 16 -40 8 -12 13 -22 9 -22 -3 0 2 -11 11 -25 9 -14 18 -36 20 -48 2 -12
10 -40 18 -62 10 -30 11 -42 3 -47 -8 -5 -6 -8 5 -8 12 0 24 -22 42 -84 14
-46 33 -96 41 -112 8 -16 15 -38 15 -48 0 -38 41 -101 91 -141 85 -67 115 -79
207 -83 109 -5 129 0 134 38 3 16 2 30 -1 30 -4 0 -11 10 -16 22 -12 28 -65
64 -114 78 -20 6 -72 14 -117 17 -77 5 -81 7 -93 34 -7 16 -14 39 -15 52 -4
33 -28 100 -43 118 -7 9 -20 42 -28 75 -8 32 -24 79 -34 104 -10 25 -38 106
-62 180 -68 216 -79 240 -111 240 -18 0 -28 -5 -28 -14z"/>
<path d="M8898 9163 c0 -5 -2 -57 -2 -118 -1 -96 -4 -114 -23 -141 -32 -45
-63 -133 -63 -182 0 -60 23 -172 35 -172 6 0 10 36 10 93 0 81 4 99 29 150 16
31 43 72 59 90 l30 32 -6 -75 c-4 -58 -13 -93 -41 -153 -51 -109 -70 -187 -61
-260 7 -66 30 -131 54 -157 9 -10 28 -40 43 -68 27 -50 75 -94 61 -55 -3 10
-17 31 -29 46 -13 15 -28 47 -34 70 -6 23 -17 60 -25 82 -17 46 -20 142 -5
147 5 2 11 13 13 25 6 40 97 117 115 98 7 -7 42 -101 122 -329 27 -76 59 -154
70 -173 11 -19 20 -40 20 -47 0 -18 94 -89 145 -111 22 -9 59 -19 81 -21 23
-3 54 -9 70 -13 36 -9 94 21 118 62 14 25 15 35 4 66 -24 73 -67 114 -178 172
-22 11 -54 23 -71 26 -17 2 -41 8 -52 12 -20 8 -88 -7 -103 -22 -4 -4 -38 84
-76 195 -37 112 -77 221 -87 243 -16 34 -171 480 -171 491 0 8 -50 4 -52 -3z"/>
<path d="M2198 8873 c-1 -27 -2 -60 -1 -74 1 -24 -4 -27 -45 -33 -92 -13 -92
-13 -92 50 0 75 -12 94 -57 94 l-36 0 7 -79 6 -80 -42 -3 c-42 -3 -43 -4 -49
-45 l-5 -41 52 5 52 6 4 -37 4 -36 -48 -6 c-50 -7 -55 -13 -42 -62 6 -21 11
-22 50 -16 l42 6 7 -46 c7 -44 9 -46 41 -46 l34 0 0 49 0 49 55 4 55 3 0 -46
c0 -40 3 -48 23 -53 41 -11 45 -7 52 54 6 54 9 60 30 60 41 0 55 11 55 41 0
26 -4 29 -32 30 -18 1 -36 1 -40 0 -5 0 -8 17 -8 39 l0 40 43 0 42 0 1 40 1
40 -39 0 -40 0 4 70 4 70 -43 0 -43 0 -2 -47z"/>
<path d="M8156 8778 c3 -4 1 -8 -3 -8 -5 0 -14 -31 -21 -70 -12 -71 -28 -108
-70 -168 -13 -17 -20 -32 -16 -32 4 0 -5 -13 -21 -30 -15 -16 -33 -27 -38 -23
-6 3 -7 1 -3 -6 4 -6 -6 -33 -23 -59 -43 -68 -60 -122 -67 -218 -5 -65 -3 -94
11 -136 16 -49 22 -72 24 -90 2 -15 54 -68 67 -68 13 0 12 5 -3 32 -10 18 -24
39 -30 46 -16 17 -16 17 1 55 8 18 19 52 26 77 6 25 15 59 19 75 4 17 20 48
34 69 15 21 27 44 27 51 0 15 46 55 55 47 3 -4 3 2 -1 13 -4 11 -4 17 0 14 4
-4 20 7 36 23 30 29 50 30 50 2 0 -12 18 -19 42 -16 3 1 23 -45 43 -101 21
-56 42 -104 46 -105 5 -2 7 -8 3 -13 -3 -5 -1 -9 4 -9 12 0 37 -59 28 -67 -3
-3 -2 -11 3 -17 5 -6 23 -45 39 -86 17 -41 37 -88 46 -105 9 -16 16 -37 16
-45 0 -17 50 -141 83 -209 13 -25 23 -49 23 -52 -1 -3 29 -41 65 -85 62 -75
75 -85 180 -138 l114 -58 108 5 c59 2 110 7 113 10 9 9 -8 77 -23 92 -8 8 -11
15 -6 15 19 0 -115 114 -154 131 -58 25 -180 49 -251 49 -48 0 -61 3 -65 18
-16 54 -63 171 -79 197 -10 16 -18 39 -18 49 0 11 -8 38 -19 60 -10 23 -31 68
-46 101 -15 33 -33 78 -40 100 -27 85 -76 213 -104 270 -16 33 -50 116 -76
185 -95 254 -88 239 -112 237 -12 0 -19 -5 -17 -9z"/>
<path d="M3381 8751 c-12 -8 -13 -20 -4 -68 10 -56 9 -60 -18 -100 -16 -23
-29 -45 -29 -49 0 -4 -12 -21 -27 -37 -26 -26 -28 -34 -27 -102 2 -86 7 -105
30 -105 14 0 15 7 9 46 -3 25 -2 51 3 57 5 7 16 32 25 57 9 25 33 63 52 84
l35 40 0 -39 c0 -35 -29 -114 -65 -175 -57 -97 -63 -170 -21 -251 32 -61 79
-115 107 -122 27 -7 24 7 -9 45 -60 70 -78 168 -43 243 23 50 69 94 101 97 20
3 26 -3 37 -37 13 -39 58 -149 94 -232 11 -24 19 -47 19 -51 0 -5 9 -17 19
-26 11 -10 17 -25 14 -34 -4 -9 -2 -13 4 -9 6 4 31 -4 55 -18 35 -20 57 -25
114 -25 78 0 114 13 163 59 45 42 43 89 -5 127 -19 16 -50 34 -67 41 -51 19
-156 15 -204 -7 l-43 -19 -30 67 c-53 115 -76 165 -109 232 -17 36 -31 70 -31
75 0 6 -13 37 -29 70 -16 33 -37 78 -47 100 -16 40 -42 75 -53 75 -3 0 -12 -4
-20 -9z"/>
<path d="M6100 8578 c0 -6 8 -30 18 -52 24 -54 63 -169 59 -173 -2 -2 -28 1
-57 7 -92 17 -169 12 -228 -15 -68 -31 -82 -60 -57 -115 19 -42 39 -57 200
-148 85 -48 340 -142 386 -142 25 0 25 39 0 88 -11 20 -32 71 -46 112 -15 41
-35 93 -45 115 -10 22 -30 74 -45 115 -15 41 -34 82 -42 91 -8 9 -15 27 -17
40 -2 13 -9 39 -17 57 -12 30 -17 32 -61 32 -30 0 -48 -4 -48 -12z m75 -279
c38 -10 46 -16 56 -48 6 -20 23 -58 36 -84 13 -26 21 -52 18 -57 -4 -6 -2 -10
3 -10 10 0 37 -58 31 -65 -3 -2 -41 11 -84 29 -73 29 -197 107 -222 138 -21
26 -24 56 -8 70 9 7 21 18 28 25 15 15 85 16 142 2z"/>
<path d="M7043 8505 c-33 -23 -45 -78 -26 -118 9 -17 22 -40 30 -49 14 -16 12
-16 -34 -4 -26 7 -65 21 -87 30 -43 18 -66 20 -66 7 0 -5 52 -62 115 -127 130
-135 192 -201 355 -374 235 -251 270 -283 285 -270 21 17 19 22 -22 66 -21 22
-45 49 -54 60 -8 10 -45 46 -80 80 l-65 60 57 -4 c50 -4 61 -1 81 19 61 62 69
106 29 159 -34 47 -77 65 -122 51 -67 -20 -81 -83 -30 -144 8 -9 11 -20 8 -23
-8 -8 -97 16 -97 25 0 4 -20 27 -44 51 l-44 45 43 0 c52 1 84 26 114 89 19 40
19 106 1 106 -5 0 -22 14 -38 30 -43 43 -92 42 -125 -2 -28 -37 -46 -85 -28
-74 6 4 11 0 11 -9 0 -9 11 -31 25 -50 l26 -33 -39 9 c-78 17 -98 31 -150 104
-4 6 -16 21 -27 34 l-20 24 22 -12 c15 -7 29 -8 40 -2 10 5 35 17 55 27 20 10
35 22 32 26 -3 4 -1 8 5 8 6 0 8 7 5 15 -4 8 1 26 10 40 20 31 21 64 1 71 -8
4 -15 13 -15 21 0 14 -72 52 -100 53 -9 0 -25 -7 -37 -15z"/>
<path d="M4160 8057 l0 -34 76 -11 c42 -6 81 -15 86 -20 14 -14 -52 -32 -114
-32 l-48 0 0 -35 0 -35 85 0 c77 0 85 2 85 19 0 27 16 35 69 32 54 -3 82 -16
75 -36 -5 -12 6 -15 60 -15 l66 0 0 30 c0 27 -3 30 -34 30 -38 0 -96 18 -96
30 0 15 39 21 86 14 l47 -7 -7 34 c-8 45 -30 59 -89 59 -47 0 -49 -1 -45 -24
6 -28 -7 -36 -51 -36 -52 0 -91 20 -91 46 0 23 -2 24 -80 24 l-80 0 0 -33z"/>
<path d="M9722 7490 c-39 -24 -50 -72 -28 -123 8 -21 14 -37 12 -37 -13 0 -76
34 -101 55 -16 14 -33 25 -37 25 -16 0 -7 -32 17 -68 14 -20 25 -42 25 -49 0
-7 4 -13 9 -13 5 0 11 -11 15 -23 3 -13 19 -39 36 -58 17 -19 42 -56 54 -84
13 -27 35 -63 49 -79 14 -16 29 -41 32 -55 4 -14 17 -36 30 -49 14 -13 27 -33
30 -43 4 -10 10 -19 15 -19 4 0 10 -11 14 -23 3 -13 27 -52 53 -85 42 -54 68
-93 137 -206 12 -19 21 -25 28 -18 13 13 3 55 -18 77 -9 8 -13 22 -10 31 3 8
2 12 -4 9 -6 -3 -10 0 -10 8 0 8 -13 28 -29 45 -27 27 -61 82 -61 97 0 3 15 5
33 5 17 0 39 4 47 10 9 6 20 5 29 -3 11 -9 13 -9 8 0 -4 6 -3 14 2 18 18 10
41 68 41 99 0 39 -32 93 -65 108 -20 9 -32 8 -59 -5 -29 -13 -36 -24 -44 -63
-11 -53 -7 -71 23 -96 29 -25 12 -22 -45 7 -28 14 -50 32 -50 40 0 8 -9 23
-20 32 -11 10 -20 22 -20 27 0 5 -10 21 -22 34 l-23 24 27 -13 c22 -9 37 -9
73 1 54 15 72 38 81 102 5 38 3 51 -17 78 -13 18 -40 40 -59 50 l-36 18 -28
-30 c-24 -26 -27 -37 -23 -69 3 -21 12 -52 20 -69 16 -30 16 -31 -6 -24 -47
14 -137 99 -137 128 0 7 -9 21 -21 32 -11 10 -25 27 -31 37 -9 17 -8 17 21 3
37 -20 98 -20 131 -1 14 8 21 15 15 15 -5 0 -4 4 2 8 7 4 17 32 23 61 13 69
-1 98 -56 122 -40 16 -43 16 -72 -1z"/>
<path d="M4970 7314 c-63 -23 -129 -66 -164 -106 -23 -27 -43 -43 -47 -37 -3
6 -9 -1 -13 -16 -5 -19 -11 -25 -22 -21 -10 4 -14 1 -11 -6 2 -7 10 -12 16
-10 7 1 10 -2 6 -8 -4 -6 -15 -8 -25 -5 -14 5 -18 1 -17 -14 0 -11 5 -17 9
-15 5 3 5 11 2 17 -5 9 -3 9 6 0 11 -10 11 -15 0 -27 -7 -9 -16 -14 -20 -11
-14 8 -29 -50 -18 -69 7 -12 5 -22 -4 -33 -9 -12 -9 -15 0 -9 6 4 12 2 12 -3
0 -6 -4 -11 -8 -11 -5 0 -9 -7 -9 -15 0 -8 3 -13 5 -10 10 9 31 -17 25 -31 -3
-8 1 -14 8 -14 11 0 11 -3 -1 -10 -13 -9 -13 -11 0 -21 11 -8 12 -12 3 -16 -7
-2 -13 -11 -13 -19 0 -8 -5 -14 -11 -14 -5 0 -7 -5 -3 -11 5 -8 9 -8 14 1 14
22 28 1 26 -37 -1 -21 1 -40 5 -43 4 -3 14 -61 23 -130 8 -69 19 -142 24 -162
6 -21 7 -38 3 -38 -4 0 -7 -9 -7 -20 0 -13 5 -19 13 -16 7 3 12 2 11 -2 -2 -6
11 -55 32 -127 5 -16 12 -50 16 -75 4 -25 13 -57 20 -71 19 -39 25 -79 11 -79
-7 0 -23 -3 -36 -7 -15 -4 -22 -2 -18 4 7 12 -29 10 -40 -2 -5 -4 -2 -5 6 0
11 6 13 3 9 -13 -4 -12 -3 -22 0 -22 4 0 8 -20 9 -45 1 -24 11 -63 21 -87 10
-24 22 -51 25 -60 3 -9 19 -24 35 -32 29 -15 30 -15 36 8 13 52 33 36 61 -47
15 -45 31 -86 35 -92 4 -5 15 -30 23 -55 9 -25 41 -115 72 -200 31 -85 63
-175 72 -200 8 -25 24 -54 34 -66 10 -11 19 -30 19 -43 0 -12 9 -39 19 -60
l20 -38 -25 -41 c-14 -23 -32 -42 -40 -42 -8 0 -14 -6 -14 -14 0 -7 -8 -24
-19 -37 -10 -13 -31 -49 -46 -79 -16 -30 -37 -67 -47 -82 -30 -43 -147 -276
-185 -368 -19 -47 -38 -89 -42 -95 -4 -5 -13 -35 -20 -65 -8 -30 -22 -73 -32
-95 -10 -22 -25 -71 -33 -110 -8 -38 -21 -96 -30 -128 -9 -32 -16 -84 -16
-115 0 -32 -5 -63 -11 -69 -13 -13 4 -552 19 -580 5 -10 13 -40 17 -68 8 -57
58 -218 88 -285 61 -138 154 -322 199 -394 90 -145 221 -291 338 -375 30 -22
71 -53 90 -69 30 -26 179 -102 198 -102 4 0 43 -14 87 -32 79 -31 83 -32 245
-32 187 1 232 11 368 84 40 22 79 40 85 40 7 0 44 15 82 33 l70 34 77 -158
c43 -87 89 -186 103 -221 14 -35 34 -81 44 -103 23 -47 56 -168 67 -240 4 -27
7 -102 6 -166 -2 -105 -5 -124 -32 -190 -44 -107 -71 -147 -140 -209 -113
-102 -220 -152 -220 -103 0 19 33 67 85 123 23 25 56 77 73 116 71 157 26 297
-136 426 -91 73 -100 77 -159 78 -103 0 -242 -52 -303 -114 -59 -60 -90 -132
-90 -208 0 -77 22 -193 49 -252 30 -68 121 -208 165 -254 94 -99 202 -142 307
-122 30 6 72 13 94 16 93 11 161 27 198 45 188 96 301 231 371 444 15 44 31
88 36 97 12 22 13 298 2 298 -5 0 -14 24 -20 52 -6 29 -15 75 -21 101 -6 26
-26 80 -46 119 -19 40 -35 79 -35 87 0 9 -6 28 -14 42 -7 14 -16 37 -19 51 -8
29 -109 246 -164 351 l-35 69 34 36 c39 41 116 150 143 201 30 59 83 234 90
299 3 20 10 75 16 122 34 235 -70 657 -194 792 -12 13 -39 49 -60 79 -62 90
-205 189 -331 230 -140 44 -311 22 -480 -63 -32 -16 -59 -28 -61 -26 -6 7 -95
189 -146 298 -29 63 -59 121 -66 128 -7 7 -13 21 -13 31 0 9 -4 21 -9 27 -10
10 -91 195 -91 207 0 5 18 47 41 95 56 119 52 109 109 276 28 83 59 186 70
230 10 45 23 100 29 124 6 24 9 47 6 52 -3 5 1 22 8 37 16 30 37 121 42 181 1
20 8 75 14 122 38 304 33 557 -16 875 -17 111 -69 294 -108 379 -14 31 -24 57
-23 59 2 1 -7 13 -19 27 -13 13 -23 28 -23 32 0 18 -68 115 -130 186 -35 40
-96 96 -134 124 -72 53 -182 108 -214 108 -10 0 -22 3 -26 7 -20 20 -94 35
-196 39 -63 2 -122 1 -130 -2z m354 -700 c32 -16 33 -19 21 -38 -9 -13 -11
-26 -5 -36 5 -8 5 -21 -1 -32 -7 -13 -6 -18 3 -19 11 0 11 -2 0 -6 -10 -4 -10
-8 -1 -19 10 -12 9 -17 -1 -27 -9 -9 -11 -9 -6 0 8 14 -10 28 -18 14 -10 -15
5 -41 23 -41 14 0 14 -2 1 -10 -12 -8 -12 -10 3 -16 12 -4 16 -13 11 -26 -4
-15 -3 -18 7 -13 9 6 11 3 6 -8 -3 -10 -2 -17 3 -17 5 0 12 -11 16 -25 3 -14
10 -25 14 -25 15 0 17 50 3 61 -11 10 -11 14 2 29 20 22 19 50 -1 50 -9 0 -12
5 -8 12 4 7 9 24 11 39 2 22 -1 26 -22 24 -25 -3 -38 15 -29 40 8 19 20 19 27
1 4 -10 1 -13 -9 -9 -7 3 -14 1 -14 -5 0 -19 29 -21 35 -2 4 12 12 17 23 14
12 -4 11 -2 -3 7 -11 7 -22 12 -24 10 -2 -1 -8 3 -12 11 -8 11 -10 11 -18 -1
-5 -7 -11 -9 -14 -4 -9 14 28 42 43 33 6 -4 11 -11 11 -16 -1 -5 8 -10 20 -10
60 -4 210 -222 182 -267 -3 -4 -11 0 -19 10 -11 14 -13 15 -8 2 4 -13 0 -15
-22 -11 -19 3 -25 1 -20 -7 4 -6 12 -9 17 -6 5 4 9 2 9 -3 0 -5 -9 -12 -20
-15 -14 -3 -20 -14 -20 -32 0 -17 -4 -24 -11 -19 -8 4 -9 -1 -4 -16 6 -19 4
-22 -9 -17 -17 7 -23 -8 -7 -17 5 -3 7 -15 4 -26 -4 -16 -2 -19 13 -14 18 5
18 5 1 -6 -9 -6 -15 -15 -12 -21 4 -5 -1 -12 -10 -15 -9 -4 -14 -13 -11 -20 3
-8 0 -14 -6 -14 -7 0 -7 -4 1 -13 6 -8 8 -16 5 -20 -3 -3 3 -3 14 0 11 2 23
-1 28 -8 5 -9 2 -11 -9 -6 -15 6 -22 -3 -18 -25 0 -5 -3 -8 -7 -8 -4 0 -8 -9
-8 -20 0 -18 4 -22 22 -19 4 0 10 -4 13 -9 3 -5 17 -13 31 -17 24 -7 25 -7 5
9 -20 17 -20 17 0 12 16 -5 21 -1 21 14 0 21 -22 28 -28 9 -2 -7 -11 -9 -18
-6 -10 3 -4 10 18 18 22 9 31 18 27 29 -4 11 -1 10 9 -2 14 -19 32 -25 21 -9
-3 5 -1 12 5 16 16 10 11 35 -7 36 -14 0 -13 3 5 11 13 6 21 17 18 24 -3 8 0
11 10 7 8 -3 14 1 14 10 0 9 5 19 10 22 10 6 9 -42 -5 -180 -10 -97 -15 -116
-31 -132 -11 -11 -12 -19 -4 -28 8 -10 8 -16 -2 -22 -15 -9 -20 -43 -7 -43 5
0 3 -12 -3 -27 -6 -16 -10 -39 -9 -53 1 -14 -3 -34 -8 -45 -5 -11 -19 -54 -31
-95 -34 -114 -60 -189 -90 -255 -15 -33 -33 -78 -40 -100 -13 -42 -27 -65 -40
-65 -7 0 -19 61 -23 117 -1 11 -4 20 -7 18 -8 -5 -97 280 -115 370 -9 44 -21
89 -26 100 -5 11 -13 47 -19 80 -5 33 -17 94 -26 135 -10 50 -17 141 -19 275
-3 171 -1 211 15 274 10 41 24 77 30 81 7 4 11 9 9 11 -4 7 40 86 56 103 20
20 26 20 69 0z m196 -2564 c6 -11 10 -26 8 -33 -2 -11 70 -171 107 -239 8 -14
15 -31 15 -38 0 -7 9 -24 20 -40 11 -15 17 -30 13 -34 -3 -3 -1 -6 5 -6 7 0
11 -3 10 -7 -2 -5 14 -47 35 -94 l39 -86 -42 -84 c-64 -127 -91 -273 -80 -439
5 -69 16 -159 25 -200 9 -41 18 -91 21 -110 3 -19 8 -42 11 -50 3 -8 7 -25 9
-38 3 -22 53 -160 79 -217 7 -16 23 -56 35 -87 27 -73 54 -108 70 -91 10 9 9
22 -4 59 -9 26 -16 48 -16 49 0 1 11 0 25 -3 30 -5 30 -5 5 83 -51 173 -72
392 -50 495 18 79 53 184 72 212 10 14 18 31 18 37 0 6 4 11 10 11 5 0 9 -3 8
-7 -1 -7 211 -449 242 -505 5 -9 48 -92 95 -185 48 -92 93 -179 100 -193 8
-14 29 -58 48 -98 l33 -72 -70 -59 c-71 -58 -130 -84 -231 -99 -70 -11 -308
-7 -360 7 -27 6 -67 16 -87 22 -55 14 -193 95 -283 165 -93 73 -159 141 -214
222 -48 72 -121 211 -121 233 0 9 -7 35 -15 59 -26 73 -47 222 -47 335 0 115
17 296 32 330 5 11 20 63 35 115 14 52 30 97 36 98 5 2 9 8 9 13 0 29 92 200
150 279 14 19 39 60 54 90 16 30 37 67 47 81 10 14 21 38 25 55 8 33 41 84 54
84 5 0 14 -9 20 -20z m834 -816 c9 -8 16 -13 16 -9 0 19 92 -50 155 -117 111
-118 186 -282 208 -459 10 -79 9 -97 -14 -200 -13 -61 -29 -119 -36 -128 -10
-14 -12 -12 -19 14 -4 17 -32 77 -62 135 -30 58 -106 204 -167 325 -62 121
-137 266 -168 323 -32 56 -57 107 -57 112 0 22 123 26 144 4z m545 -287 c66
-133 86 -226 77 -360 -6 -92 -9 -103 -55 -188 -80 -151 -172 -253 -131 -146
12 29 25 81 30 117 5 36 15 88 21 115 13 60 12 238 -1 355 -6 47 -11 94 -11
105 -1 11 -8 45 -16 75 -26 100 -26 98 6 62 16 -19 52 -80 80 -135z m-20
-1379 c22 -46 42 -93 46 -105 3 -13 13 -29 20 -37 13 -13 66 -151 85 -221 48
-176 37 -407 -24 -508 -31 -50 -96 -126 -96 -112 0 6 7 21 16 33 8 12 30 75
47 140 27 103 31 132 30 242 0 139 -28 288 -63 345 -11 18 -20 41 -20 51 0 22
-30 106 -65 182 -25 52 -30 72 -20 72 3 0 23 -37 44 -82z"/>
<path d="M7830 6653 c0 -14 141 -456 196 -613 30 -85 62 -180 70 -210 8 -30
53 -171 99 -313 47 -142 85 -266 85 -275 0 -9 9 -30 20 -47 11 -16 20 -38 20
-47 0 -9 23 -88 51 -175 27 -87 61 -194 75 -238 14 -44 46 -135 70 -202 24
-67 44 -125 44 -130 0 -5 -36 -21 -80 -37 -113 -40 -204 -104 -276 -195 -72
-90 -84 -117 -91 -201 -6 -75 13 -162 52 -240 24 -47 28 -50 64 -50 52 0 163
35 231 72 121 67 190 148 237 281 24 65 26 86 27 222 0 135 -2 154 -22 194
-12 25 -22 52 -22 60 0 22 -220 694 -231 706 -5 5 -9 20 -9 32 0 13 -27 104
-60 201 -33 97 -74 224 -91 282 -17 58 -41 132 -54 165 -42 108 -66 196 -60
216 9 28 48 40 93 30 l37 -9 -42 -1 c-24 -1 -43 -4 -43 -8 0 -18 31 -107 40
-118 6 -7 12 -26 14 -42 5 -39 72 -250 158 -498 38 -110 71 -209 72 -220 2
-12 40 -132 85 -268 44 -137 81 -253 81 -259 0 -13 46 -134 60 -160 6 -10 10
-25 10 -35 0 -9 15 -64 34 -122 19 -58 42 -131 51 -161 9 -30 41 -124 71 -209
55 -156 56 -170 16 -171 -23 0 -143 -64 -214 -114 -69 -48 -147 -140 -174
-205 -36 -87 -23 -234 31 -341 24 -47 28 -50 64 -50 52 0 163 35 231 72 121
67 190 148 237 281 23 64 26 88 27 218 1 103 -3 150 -12 161 -6 8 -14 28 -16
44 -2 22 -148 476 -226 704 -5 14 -18 59 -30 100 -12 41 -43 139 -70 216 -27
78 -63 190 -80 250 -18 59 -38 117 -46 128 -8 11 -14 29 -14 38 0 10 -14 59
-31 108 -55 164 -31 174 245 98 147 -41 400 -168 571 -286 195 -136 238 -186
275 -323 l20 -74 -3 100 c-4 88 -8 109 -37 170 -18 39 -36 72 -40 75 -4 3 -22
35 -40 72 -37 75 -163 225 -232 276 -30 23 -53 51 -69 85 -13 29 -31 63 -41
76 -10 13 -18 29 -18 36 0 24 -71 131 -141 212 -90 105 -213 198 -357 269
-121 60 -278 124 -302 124 -26 0 -209 69 -299 113 -59 29 -106 61 -151 105
-56 54 -69 62 -102 62 -21 0 -38 -3 -38 -7z m590 -546 c118 -26 402 -163 545
-262 50 -34 118 -81 153 -105 67 -45 80 -68 15 -27 -66 42 -291 137 -323 137
-8 0 -60 16 -115 36 -85 30 -143 57 -285 130 -24 13 -100 96 -100 110 0 3 10
4 23 1 12 -3 51 -12 87 -20z"/>
<path d="M9789 6518 c0 -7 -4 -62 -8 -123 -13 -167 -60 -260 -61 -118 0 50
-37 149 -73 195 -16 20 -55 36 -78 31 -45 -10 -64 -149 -34 -250 22 -73 37
-98 88 -148 34 -34 53 -45 76 -45 17 0 31 4 31 8 0 5 10 14 23 21 24 13 47 54
47 85 1 47 18 -12 28 -99 35 -286 55 -421 64 -432 5 -7 8 -29 7 -50 -2 -21 0
-43 3 -48 3 -6 8 -22 12 -37 4 -20 13 -28 27 -28 19 0 20 4 14 53 -4 28 -12
72 -19 97 -7 25 -11 61 -9 80 3 20 0 60 -6 90 -6 30 -13 64 -15 75 -1 11 -6
34 -9 50 -3 17 -9 55 -12 85 -4 30 -16 120 -27 200 -11 80 -26 183 -32 229 -6
50 -16 86 -23 89 -7 2 -13 -2 -14 -10z"/>
<path d="M9793 5275 c-15 -16 -17 -57 -4 -70 5 -6 19 -41 31 -80 21 -65 31
-89 89 -217 11 -26 21 -51 21 -56 0 -4 9 -25 21 -46 11 -22 19 -50 16 -63 -2
-13 -2 -21 1 -18 3 3 16 -20 27 -52 12 -32 64 -159 114 -283 51 -124 97 -238
103 -255 6 -16 25 -68 43 -115 l33 -85 -31 -8 c-29 -8 -72 -38 -132 -93 -43
-39 -111 -160 -128 -226 -32 -125 -17 -190 50 -222 47 -22 73 -20 131 12 142
77 251 252 252 402 0 29 -14 82 -41 150 -22 58 -53 139 -69 180 -16 41 -36 90
-45 108 -9 18 -15 42 -12 54 3 11 3 17 -1 14 -4 -5 -82 184 -82 199 0 1 21 12
48 23 33 14 69 21 119 21 63 0 76 -3 110 -29 85 -64 102 -83 133 -145 36 -72
48 -114 56 -195 6 -67 10 -80 24 -80 15 0 11 206 -5 275 -20 84 -115 218 -172
241 -17 8 -48 25 -68 38 -20 14 -59 32 -88 42 -99 32 -190 85 -254 148 -69 67
-80 92 -35 83 211 -42 277 -71 371 -164 35 -35 65 -63 68 -63 7 0 -8 62 -21
84 -28 51 -89 127 -118 149 -44 32 -131 65 -197 76 -29 5 -56 13 -60 18 -3 5
-21 15 -38 22 -29 12 -75 56 -125 122 -9 12 -20 36 -24 53 -3 17 -13 39 -22
49 -18 20 -72 22 -89 2z"/>
</g>
</svg>
