<?xml version="1.0" standalone="no"?>
<!DOCTYPE svg PUBLIC "-//W3C//DTD SVG 20010904//EN"
 "http://www.w3.org/TR/2001/REC-SVG-20010904/DTD/svg10.dtd">
<svg version="1.0" xmlns="http://www.w3.org/2000/svg"
 width="748.000000pt" height="802.000000pt" viewBox="0 0 748.000000 802.000000"
 preserveAspectRatio="xMidYMid meet">
<metadata>
Created by potrace 1.16, written by Peter Selinger 2001-2019
</metadata>
<g transform="translate(0.000000,802.000000) scale(0.100000,-0.100000)"
fill="#00ba22" stroke="none">
<path d="M4375 7925 c-85 -51 -119 -88 -165 -176 -31 -60 -45 -104 -61 -191
-11 -62 -38 -183 -58 -268 -89 -360 -100 -420 -114 -630 -21 -294 -3 -430 76
-586 61 -121 161 -204 244 -204 l33 0 0 58 c0 31 -23 212 -50 402 -47 324 -95
660 -103 723 -2 15 -1 24 3 20 3 -4 14 -66 24 -136 10 -71 40 -255 68 -410 27
-156 52 -331 55 -392 4 -68 9 -102 14 -90 5 13 8 15 8 5 1 -13 2 -13 11 0 5 8
7 38 4 65 -3 28 4 160 15 295 31 370 42 551 51 815 8 229 8 225 4 -95 -5 -422
-45 -1067 -84 -1350 -25 -183 -40 -264 -50 -274 -8 -8 -9 2 -6 34 3 25 10 95
16 155 6 61 13 120 16 132 4 20 1 22 -26 17 -17 -4 -52 -1 -78 7 -123 34 -259
260 -280 468 -6 59 -10 67 -39 84 -39 22 -92 25 -104 6 -24 -41 -22 -40 -120
-29 -170 19 -183 22 -270 56 -127 50 -189 45 -239 -19 -17 -21 -21 -35 -16
-62 9 -47 77 -136 172 -224 87 -81 132 -112 274 -190 66 -36 140 -91 240 -177
225 -194 307 -241 395 -231 37 4 42 2 37 -12 -34 -96 -320 -376 -577 -566
-107 -79 -286 -226 -344 -283 -146 -143 -300 -249 -551 -377 -315 -161 -346
-177 -370 -199 -82 -76 -415 -265 -565 -321 -38 -15 -77 -33 -85 -40 -28 -25
-105 -55 -143 -55 -43 0 -70 -12 -180 -82 -51 -33 -99 -55 -141 -65 -35 -8
-67 -21 -70 -28 -3 -9 13 -28 43 -49 27 -20 78 -67 115 -106 36 -39 66 -68 66
-64 0 15 -87 105 -149 154 -78 61 -89 82 -14 27 64 -47 164 -152 202 -213 39
-60 71 -162 70 -218 0 -47 -6 -37 -34 59 -33 119 -138 256 -270 356 -54 40
-75 48 -75 27 0 -21 -55 -74 -91 -88 -33 -14 -49 -27 -49 -43 0 -5 8 -6 18 -3
25 8 100 -43 162 -111 27 -30 50 -58 50 -63 0 -21 -34 1 -102 65 -84 80 -153
118 -172 95 -6 -8 -27 -23 -46 -33 -19 -9 -49 -26 -66 -37 -24 -16 -240 -110
-251 -110 -1 0 -3 10 -5 23 -2 16 -11 23 -30 25 -31 4 -32 2 -18 -50 15 -53
51 -78 114 -78 70 0 180 -17 243 -37 61 -19 98 -48 108 -83 l8 -25 -25 26
c-14 15 -33 29 -44 32 -56 17 -185 38 -264 44 -58 4 -100 12 -118 23 -30 19
-62 74 -62 109 0 27 0 27 -68 -8 -72 -37 -164 -119 -198 -177 -14 -24 -31 -47
-38 -52 -26 -16 -66 -80 -66 -106 0 -61 89 -168 235 -281 518 -402 680 -507
894 -580 92 -31 119 -31 162 -2 55 37 82 85 75 135 -6 48 -106 209 -144 233
-13 8 -16 22 -14 64 4 55 -5 76 -55 138 -12 15 -20 34 -17 41 3 8 -4 32 -16
55 -20 40 -20 41 -1 41 10 0 21 -7 25 -15 8 -21 32 -19 128 11 151 46 212 73
265 117 29 23 101 71 160 104 60 34 133 80 163 102 108 79 124 85 250 89 73 2
132 9 160 20 46 17 129 72 190 128 43 38 187 104 252 113 26 4 56 16 67 25 17
15 30 17 69 12 80 -10 147 15 212 82 31 32 71 77 90 102 60 80 92 107 135 112
22 3 101 35 175 71 144 70 281 127 305 127 8 0 32 15 52 34 21 18 61 45 88 60
28 15 67 38 89 50 56 34 144 42 198 18 46 -20 91 -26 206 -27 69 0 75 2 98 28
15 18 24 41 24 63 0 34 1 35 22 20 12 -9 35 -16 50 -16 31 0 98 29 98 42 0 5
5 6 10 3 6 -3 10 -15 10 -26 0 -31 97 -118 133 -120 12 0 17 -3 10 -5 -8 -4
-10 -21 -6 -52 5 -44 3 -49 -26 -70 -36 -26 -38 -40 -11 -75 23 -29 26 -84 6
-112 -13 -20 -29 -149 -29 -240 0 -44 8 -98 28 -200 5 -23 -4 -56 -38 -135
-59 -139 -130 -351 -163 -486 -32 -131 -41 -279 -25 -406 42 -337 51 -586 25
-683 -8 -33 -15 -87 -15 -120 0 -102 32 -415 52 -510 10 -49 23 -119 29 -155
7 -36 32 -146 56 -244 24 -99 44 -192 44 -208 0 -26 -3 -28 -40 -28 -22 0 -56
-7 -75 -14 -60 -25 -39 -72 40 -91 16 -3 43 -23 61 -43 l32 -37 163 -4 c211
-4 349 12 380 46 16 16 34 23 60 23 21 0 50 4 64 10 22 8 26 15 23 42 -2 26
-11 36 -53 59 -27 15 -51 34 -53 42 -4 18 -45 37 -81 37 -16 0 -39 10 -52 23
-33 31 -75 57 -94 57 -10 0 -15 10 -15 30 0 16 -11 98 -24 182 -21 135 -25
197 -29 531 -6 421 -10 388 68 547 60 122 53 66 -8 -64 -46 -99 -46 -102 -36
-358 l4 -88 50 -11 c64 -14 217 2 280 30 40 18 55 19 159 11 63 -5 139 -16
168 -24 60 -17 283 -74 343 -87 60 -13 418 -10 592 5 175 14 171 13 231 115
69 116 101 214 142 426 12 61 30 155 41 209 24 123 26 402 5 522 -8 44 -17
147 -20 229 -3 83 -11 173 -19 200 -8 28 -22 77 -31 110 -13 42 -20 126 -27
285 -5 124 -13 244 -19 268 -6 23 -8 53 -4 66 3 13 1 27 -5 30 -6 4 -11 16
-11 28 0 11 -22 57 -50 102 -27 45 -58 104 -70 130 -25 59 -178 373 -267 551
-64 127 -136 238 -220 342 -24 29 -43 56 -43 61 0 4 -39 46 -86 92 -47 47 -92
97 -100 111 -7 15 -34 45 -60 68 -47 41 -84 105 -110 192 -11 37 -21 50 -48
63 -44 21 -43 21 -62 -16 -28 -56 -74 -97 -194 -171 -63 -39 -164 -104 -223
-145 -59 -41 -110 -72 -113 -69 -3 2 20 21 51 42 31 20 54 39 51 42 -7 8 -116
-78 -111 -87 7 -12 -53 -53 -65 -45 -16 10 10 37 27 31 8 -3 11 -2 8 4 -9 15
216 178 394 285 79 47 127 89 147 126 15 29 8 39 -13 18 -18 -18 -61 20 -73
64 -6 20 -17 37 -24 37 -26 0 -204 -94 -301 -158 -60 -40 -140 -107 -200 -167
-55 -55 -103 -100 -107 -100 -3 0 -10 -4 -15 -9 -5 -5 -3 -6 5 -2 22 13 12
-10 -17 -38 -16 -15 -31 -24 -34 -19 -7 11 61 105 72 98 5 -2 15 3 22 13 13
15 12 16 -3 3 -11 -8 -18 -9 -18 -3 0 18 150 166 220 217 85 62 230 146 303
175 56 23 66 33 48 44 -5 4 -19 26 -31 50 -11 24 -31 51 -44 60 -24 15 -55 71
-76 139 -6 21 -23 51 -37 67 -22 26 -23 34 -14 63 15 45 12 186 -5 218 -7 15
-50 62 -94 105 -118 115 -189 224 -227 348 -8 27 -35 97 -60 155 -25 58 -60
149 -78 201 -18 52 -51 141 -74 198 -42 105 -244 516 -299 609 -45 75 -181
233 -206 238 -12 2 -34 7 -51 11 -16 3 -61 8 -100 11 -66 4 -73 2 -130 -32z
m1490 -5413 c14 -45 14 -48 -12 -85 -24 -35 -25 -41 -14 -72 7 -21 9 -57 5
-97 -6 -64 7 -193 26 -260 6 -20 28 -58 50 -85 22 -26 40 -54 40 -62 0 -8 26
-41 58 -73 31 -32 65 -67 74 -77 17 -20 37 -22 223 -24 108 -1 176 26 259 104
l63 58 1 113 c0 125 19 234 51 297 28 53 44 53 26 0 -29 -80 -47 -224 -43
-341 3 -104 6 -119 37 -184 26 -56 31 -79 26 -103 -5 -26 -9 -30 -21 -20 -10
8 -22 8 -46 0 -18 -7 -68 -16 -110 -22 -42 -5 -111 -18 -154 -29 -93 -24 -184
-25 -359 -4 -105 13 -201 23 -298 33 -4 1 -31 25 -61 54 -92 90 -153 137 -188
143 -33 6 -108 34 -108 41 0 2 9 61 21 131 17 108 19 151 13 282 l-6 155 72
55 c103 79 140 100 180 100 51 0 104 17 124 39 17 19 18 19 37 0 11 -11 27
-41 34 -67z"/>
</g>
</svg>
