<?xml version="1.0" standalone="no"?>
<!DOCTYPE svg PUBLIC "-//W3C//DTD SVG 20010904//EN"
 "http://www.w3.org/TR/2001/REC-SVG-20010904/DTD/svg10.dtd">
<svg version="1.0" xmlns="http://www.w3.org/2000/svg"
 width="510.000000pt" height="1046.000000pt" viewBox="0 0 510.000000 1046.000000"
 preserveAspectRatio="xMidYMid meet">
<metadata>
Created by potrace 1.16, written by Peter Selinger 2001-2019
</metadata>
<g transform="translate(0.000000,1046.000000) scale(0.100000,-0.100000)"
fill="#000000" stroke="none">
<path d="M3078 10130 c-68 -66 -127 -120 -131 -120 -4 0 -41 29 -82 64 -75 66
-110 88 -157 100 -42 10 -58 -14 -58 -87 1 -57 4 -81 25 -174 7 -29 5 -32 -21
-35 -27 -3 -29 -6 -29 -43 0 -28 -9 -52 -29 -81 l-30 -41 -20 24 c-25 28 -101
37 -116 13 -7 -12 -12 -12 -34 0 -21 11 -31 11 -49 1 -17 -9 -30 -9 -51 -1
-15 5 -32 7 -37 4 -18 -11 -30 -54 -20 -73 11 -20 0 -43 -19 -39 -21 5 -24
-31 -5 -52 13 -15 14 -22 4 -38 -15 -25 -5 -54 18 -50 13 2 18 -4 18 -22 0
-20 -5 -25 -22 -23 -25 3 -31 -14 -9 -23 7 -3 13 -17 14 -32 0 -14 5 -28 11
-30 6 -2 18 -19 26 -38 11 -26 20 -34 39 -34 14 0 28 5 31 10 11 19 25 -1 25
-35 0 -22 8 -41 22 -55 25 -23 26 -22 -51 -70 l-60 -36 -88 18 c-48 10 -128
20 -178 24 l-90 6 -24 -36 c-16 -24 -26 -59 -32 -112 -4 -42 -11 -84 -14 -94
-8 -25 -83 -79 -170 -123 -38 -20 -84 -46 -102 -59 -32 -23 -268 -301 -351
-413 -31 -42 -50 -59 -63 -57 -20 3 -26 -12 -9 -23 16 -10 -6 -42 -34 -49 -20
-5 -28 -17 -42 -67 -31 -110 -93 -169 -197 -184 -26 -4 -47 -10 -47 -14 1 -3
14 -21 29 -40 28 -32 30 -32 40 -13 11 20 119 77 129 68 5 -6 -32 -42 -101
-98 -51 -43 -115 -159 -190 -348 -59 -148 -127 -392 -134 -483 -5 -54 -11 -75
-26 -87 -14 -12 -25 -48 -42 -139 -21 -115 -21 -128 -8 -180 14 -51 13 -65 -3
-156 -12 -68 -23 -104 -35 -113 -31 -22 -61 -183 -55 -288 13 -228 14 -213
-25 -279 -27 -44 -43 -91 -63 -180 -15 -66 -29 -130 -32 -141 -5 -18 0 -23 31
-28 29 -6 37 -12 41 -36 5 -23 14 -30 53 -41 51 -14 61 -23 61 -56 0 -19 7
-24 39 -29 l38 -6 -23 -67 c-13 -36 -26 -84 -29 -107 -6 -37 -4 -42 21 -59
l28 -18 26 31 c36 43 105 185 139 287 24 71 31 83 41 70 23 -28 56 -17 99 31
l41 47 0 -34 c1 -77 73 -239 175 -394 36 -55 73 -124 81 -154 9 -30 26 -64 39
-75 12 -12 29 -35 38 -52 13 -26 189 -195 480 -463 44 -40 124 -106 177 -146
147 -109 356 -258 395 -280 45 -26 52 -46 24 -65 -12 -8 -51 -42 -86 -75 -57
-53 -73 -76 -136 -205 -82 -168 -134 -230 -262 -315 -122 -81 -123 -83 -134
-205 -6 -58 -19 -139 -30 -180 -47 -181 -72 -256 -87 -265 -70 -42 -115 -117
-97 -158 9 -20 3 -29 -61 -91 l-71 -69 2 -71 c3 -83 -11 -111 -59 -121 -54
-12 -68 -31 -68 -95 0 -71 -16 -92 -87 -115 -67 -21 -90 -50 -98 -123 -5 -41
-16 -71 -40 -107 -42 -63 -50 -94 -35 -141 19 -56 71 -107 186 -180 81 -52
107 -64 118 -55 11 9 41 -10 142 -91 160 -126 324 -269 324 -283 0 -5 7 -69
14 -141 24 -221 108 -429 210 -520 62 -56 168 -118 269 -158 l69 -27 69 32 69
33 0 41 c0 46 -20 122 -55 205 -24 57 -48 180 -47 239 1 35 60 168 113 255 31
49 28 65 -9 66 -17 0 -2 28 41 73 18 19 43 61 56 94 35 84 91 167 235 348 71
88 140 182 153 210 14 27 52 79 84 114 35 38 63 79 69 101 12 46 203 244 360
372 115 95 168 156 393 460 166 221 327 460 532 786 77 122 189 298 248 390
153 236 212 357 238 485 11 56 23 139 26 183 5 72 3 89 -21 151 -24 62 -33 74
-89 115 -69 51 -172 88 -372 133 -329 74 -497 121 -840 230 -282 90 -333 105
-510 146 -77 17 -158 41 -180 53 -32 16 -66 21 -166 26 -117 5 -129 7 -168 33
-30 20 -52 27 -70 24 -19 -4 -35 3 -63 29 -28 25 -50 35 -88 40 l-51 7 45 43
c25 23 58 61 75 84 29 40 31 41 98 44 38 2 78 8 89 14 10 5 39 48 62 94 38 73
42 88 36 125 -6 38 0 53 59 170 36 70 81 168 102 217 50 122 298 758 321 824
10 29 23 50 29 47 5 -2 76 -31 157 -64 254 -104 448 -151 618 -151 98 0 317
41 365 69 44 25 63 67 74 167 5 50 30 178 55 285 25 107 52 235 61 284 23 132
23 132 44 138 11 3 28 18 38 34 10 17 23 28 30 26 16 -6 41 78 49 162 5 63 4
72 -15 89 -12 11 -21 30 -21 43 0 35 -50 102 -127 172 l-68 61 25 46 25 45
-24 20 c-13 10 -36 19 -52 19 -17 0 -32 7 -38 18 -17 32 -49 208 -81 451 -30
226 -33 238 -75 327 -23 51 -53 123 -65 160 -27 81 -43 98 -148 159 -45 25
-91 60 -103 76 -11 16 -38 38 -59 49 -20 10 -56 42 -79 69 -72 85 -266 216
-454 307 -109 52 -108 52 -249 -86z m759 -1122 c25 -29 203 -395 203 -415 0
-12 -4 -25 -10 -28 -5 -3 -10 -32 -10 -64 0 -37 -7 -75 -20 -103 -12 -28 -22
-79 -26 -134 -3 -49 -15 -138 -25 -199 -20 -108 -75 -334 -84 -343 -2 -3 -42
29 -87 70 -90 81 -235 169 -312 190 -39 10 -54 21 -73 52 -14 21 -38 43 -53
49 -22 8 -31 21 -41 56 -27 101 -89 183 -181 243 -54 36 -52 47 13 55 56 7 72
19 58 44 -8 15 -6 19 9 19 10 0 31 13 46 29 24 25 32 28 53 20 46 -17 88 -11
102 15 12 21 16 22 42 12 23 -8 34 -7 50 3 19 11 24 9 48 -13 31 -30 48 -32
80 -10 17 13 22 23 18 43 -5 22 -1 29 24 40 28 12 32 11 58 -13 30 -29 53 -33
69 -13 14 16 -2 204 -25 304 l-17 73 23 24 c24 26 44 24 68 -6z m-707 -4883
c52 -18 145 -57 205 -87 109 -52 111 -53 205 -53 84 0 97 -3 116 -21 19 -20
20 -25 8 -60 -7 -21 -39 -75 -70 -121 -51 -75 -56 -86 -50 -121 5 -36 2 -42
-40 -88 -64 -70 -166 -226 -204 -314 -77 -177 -125 -258 -244 -410 -66 -85
-134 -173 -150 -195 -16 -22 -82 -103 -147 -180 -148 -178 -179 -226 -179
-281 0 -40 -2 -43 -65 -84 -78 -51 -164 -150 -188 -218 -30 -83 -79 -118 -239
-171 l-67 -22 6 -48 6 -49 -39 -12 c-22 -7 -55 -24 -74 -36 -47 -32 -53 -30
-46 14 13 74 38 133 81 191 60 81 75 114 75 159 0 29 7 45 26 63 24 22 26 29
21 84 l-6 60 67 65 c96 92 139 163 182 299 27 87 51 138 93 202 65 99 117 221
117 274 0 23 10 51 28 78 16 23 41 65 57 92 15 28 83 106 150 175 194 200 217
256 251 608 17 173 17 184 0 218 -16 35 -16 36 1 29 10 -4 61 -22 113 -40z"/>
</g>
</svg>
