<?xml version="1.0" standalone="no"?>
<!DOCTYPE svg PUBLIC "-//W3C//DTD SVG 20010904//EN"
 "http://www.w3.org/TR/2001/REC-SVG-20010904/DTD/svg10.dtd">
<svg version="1.0" xmlns="http://www.w3.org/2000/svg"
 width="634.000000pt" height="558.000000pt" viewBox="0 0 634.000000 558.000000"
 preserveAspectRatio="xMidYMid meet">
<metadata>
Created by potrace 1.16, written by Peter Selinger 2001-2019
</metadata>
<g transform="translate(0.000000,558.000000) scale(0.100000,-0.100000)"
fill="#ffffff" stroke="none">
<path d="M824 5551 l29 -30 -92 -98 c-287 -309 -506 -717 -581 -1081 -44 -219
-47 -468 -6 -659 l14 -63 -44 0 -44 0 0 -130 0 -130 53 -1 52 0 -25 -17 c-54
-36 -130 -116 -149 -156 -43 -90 -42 -93 64 -379 54 -144 99 -268 101 -276 3
-10 19 -12 63 -9 l60 4 -40 -30 c-21 -17 -39 -36 -39 -44 0 -7 48 -125 106
-263 117 -275 101 -256 181 -223 30 12 32 15 25 46 -19 85 8 288 38 288 5 0
19 14 31 31 l22 31 -53 102 c-59 113 -71 126 -114 126 l-29 0 20 23 c27 29 43
61 43 86 0 11 -58 164 -129 341 l-130 320 40 0 39 0 0 130 0 130 -30 0 c-16 0
-30 5 -30 11 0 20 61 263 105 421 87 306 203 627 299 823 l44 90 1 -702 1
-703 605 0 605 0 0 -215 0 -215 575 0 575 0 0 920 0 920 -1181 0 -1181 0 32
58 c96 172 240 356 324 413 42 29 44 38 11 77 -22 27 -23 30 -7 45 15 16 6 17
-133 17 l-149 0 28 -29z m346 -767 c0 -8 170 -666 177 -684 3 -8 42 143 87
335 l82 350 192 3 c166 2 192 0 192 -13 0 -11 -11 -15 -40 -15 l-40 0 0 -465
0 -465 40 0 c29 0 40 -4 40 -15 0 -13 -28 -15 -217 -13 -162 2 -217 6 -221 16
-2 8 9 12 37 12 l41 0 -1 428 c0 235 -2 423 -5 417 -2 -5 -46 -194 -99 -420
-52 -225 -97 -420 -100 -432 -5 -22 -10 -23 -95 -23 -76 0 -89 3 -94 18 -3 9
-57 208 -121 442 -64 234 -117 430 -119 435 -3 6 -5 -187 -5 -427 l-1 -438 40
0 c29 0 40 -4 40 -15 0 -13 -15 -15 -97 -13 -66 2 -98 7 -101 16 -2 8 9 12 37
12 l41 0 0 465 0 465 -40 0 c-29 0 -40 4 -40 15 0 13 28 15 195 15 107 0 195
-3 195 -6z m1320 -54 c0 -17 -7 -20 -50 -20 l-50 0 0 -457 c1 -252 5 -503 10
-559 11 -122 39 -202 85 -243 87 -76 237 -35 296 82 45 86 49 142 49 675 l0
502 -45 0 c-38 0 -45 3 -45 20 0 19 7 20 105 20 98 0 105 -1 105 -20 0 -17 -7
-20 -40 -20 l-40 0 0 -505 c0 -561 -4 -608 -63 -718 -65 -124 -222 -175 -407
-131 -125 29 -210 108 -252 233 -22 64 -23 80 -26 594 l-3 527 -39 0 c-33 0
-40 3 -40 20 0 19 7 20 225 20 218 0 225 -1 225 -20z"/>
<path d="M5262 5563 c16 -15 15 -18 -7 -45 -33 -39 -31 -49 10 -77 88 -60 244
-253 335 -413 l32 -58 -571 0 -571 0 0 -705 0 -705 570 0 570 0 1 703 0 702
46 -90 c95 -186 219 -530 297 -825 39 -150 96 -394 96 -416 0 -9 -11 -14 -30
-14 l-30 0 0 -130 0 -130 39 0 40 0 -130 -320 c-71 -177 -129 -330 -129 -341
0 -25 16 -57 43 -86 l20 -23 -29 0 c-43 0 -55 -13 -114 -126 l-53 -102 22 -31
c12 -17 26 -31 31 -31 30 0 57 -203 38 -288 -7 -31 -5 -34 25 -46 80 -33 64
-52 181 223 58 138 106 256 106 263 0 8 -18 27 -39 44 l-40 30 60 -4 c44 -3
60 -1 63 9 2 8 47 132 101 276 106 286 107 289 64 379 -19 40 -95 120 -149
156 l-25 17 53 0 52 1 0 130 0 130 -44 0 -44 0 14 63 c41 191 38 440 -6 659
-75 364 -294 772 -581 1081 l-92 98 29 30 28 29 -149 0 c-139 0 -148 -1 -133
-17z m37 -734 c62 -21 65 -21 77 -4 8 10 16 16 19 14 2 -3 7 -80 11 -172 6
-145 5 -167 -8 -167 -9 0 -20 17 -27 43 -18 59 -76 182 -101 215 -72 91 -165
80 -216 -24 -41 -84 -53 -184 -53 -434 0 -242 11 -342 48 -426 27 -60 47 -83
89 -101 27 -11 37 -11 65 0 63 27 128 129 173 270 11 35 23 57 32 57 13 0 14
-24 8 -172 -4 -95 -9 -174 -11 -177 -2 -2 -11 4 -20 12 -14 14 -21 14 -73 -5
-44 -16 -82 -22 -162 -22 -96 -1 -110 1 -162 27 -151 74 -218 234 -218 517 0
223 40 366 130 464 105 114 235 141 399 85z"/>
<path d="M3690 3945 l0 -1025 355 0 355 0 0 1025 0 1025 -355 0 -355 0 0
-1025z m431 839 c42 -21 69 -84 69 -159 0 -123 -40 -184 -128 -193 -102 -9
-152 51 -152 184 0 126 41 184 132 184 27 0 63 -7 79 -16z m59 -939 l0 -455
40 0 c33 0 40 -3 40 -20 0 -19 -7 -20 -210 -20 -203 0 -210 1 -210 20 0 16 7
20 35 20 l35 0 0 435 0 435 -40 0 c-33 0 -40 3 -40 20 0 19 7 20 175 20 l175
0 0 -455z"/>
<path d="M3281 4178 c-106 -57 -123 -214 -33 -290 17 -14 69 -38 114 -53 46
-16 95 -36 110 -47 83 -58 7 -169 -95 -138 -46 14 -106 66 -144 126 -15 24
-31 44 -35 44 -5 0 -8 -45 -8 -100 0 -80 3 -100 14 -100 8 0 16 5 18 12 3 9
18 9 63 0 115 -23 206 -11 259 36 52 47 72 165 38 232 -23 46 -68 74 -167 105
-45 13 -94 34 -108 46 -58 45 -15 124 66 124 54 0 94 -28 142 -100 45 -68 60
-71 51 -9 -3 26 -6 63 -6 83 0 36 -1 37 -37 38 -21 1 -74 5 -118 8 -72 6 -84
4 -124 -17z"/>
<path d="M3150 3255 l0 -245 245 0 245 0 0 245 0 245 -245 0 -245 0 0 -245z"/>
<path d="M1338 2917 c-108 -41 -208 -135 -271 -255 l-38 -72 -1 -1012 -2
-1013 35 -65 c47 -89 137 -183 207 -216 67 -32 128 -35 297 -16 223 26 343 72
445 172 83 83 124 171 126 271 0 72 2 79 37 120 86 105 161 327 187 551 19
163 8 452 -23 598 -34 158 -81 280 -142 370 -49 72 -52 81 -57 153 -12 191
-155 332 -403 398 -103 27 -340 37 -397 16z"/>
<path d="M4666 2915 c-273 -56 -443 -199 -463 -387 -5 -52 -9 -58 -47 -85
-110 -78 -202 -293 -242 -567 -23 -156 -15 -500 15 -636 47 -219 105 -346 201
-442 61 -61 68 -72 73 -118 15 -128 122 -266 259 -333 86 -42 162 -61 313 -79
169 -19 230 -16 297 16 70 33 160 127 207 216 l35 65 -2 1013 -1 1012 -38 72
c-49 94 -136 186 -215 229 -62 33 -66 34 -193 36 -81 1 -156 -3 -199 -12z"/>
<path d="M284 1891 c-95 -58 -143 -224 -110 -381 24 -116 73 -181 154 -205 23
-7 23 -6 7 18 -14 22 -16 60 -14 293 1 164 5 274 11 282 16 19 -12 15 -48 -7z"/>
<path d="M6008 1898 c6 -8 10 -118 11 -282 2 -233 0 -271 -14 -293 -16 -24
-16 -25 7 -18 81 24 130 89 154 205 33 160 -20 335 -117 385 -35 19 -55 20
-41 3z"/>
</g>
</svg>
