<?xml version="1.0" standalone="no"?>
<!DOCTYPE svg PUBLIC "-//W3C//DTD SVG 20010904//EN"
 "http://www.w3.org/TR/2001/REC-SVG-20010904/DTD/svg10.dtd">
<svg version="1.0" xmlns="http://www.w3.org/2000/svg"
 width="1097.000000pt" height="1055.000000pt" viewBox="0 0 1097.000000 1055.000000"
 preserveAspectRatio="xMidYMid meet">
<metadata>
Created by potrace 1.16, written by Peter Selinger 2001-2019
</metadata>
<g transform="translate(0.000000,1055.000000) scale(0.100000,-0.100000)"
fill="#000000" stroke="none">
<path d="M8412 10528 c-62 -44 -91 -161 -56 -228 38 -75 174 -180 295 -231 70
-28 88 -44 168 -143 l39 -49 -20 -39 c-35 -67 -35 -115 1 -180 36 -64 35 -62
19 -80 -7 -8 -33 -52 -57 -98 -161 -312 -222 -424 -235 -432 -6 -4 -7 -8 -3
-8 5 0 -2 -19 -16 -42 -14 -24 -37 -65 -52 -93 -40 -72 -98 -176 -112 -200 -6
-11 -20 -36 -29 -55 -10 -19 -31 -57 -48 -85 -16 -27 -43 -77 -59 -110 -32
-67 -55 -97 -68 -89 -5 3 -9 0 -9 -5 0 -6 -7 -11 -15 -11 -8 0 -15 -4 -15 -9
0 -5 -17 -17 -37 -26 -20 -10 -42 -21 -47 -26 -135 -106 -193 -160 -243 -225
-19 -25 -29 -32 -41 -25 -21 12 -94 -14 -122 -44 -19 -20 -21 -27 -10 -40 17
-21 53 -19 84 6 14 11 26 19 26 16 0 -2 -25 -52 -56 -110 -46 -89 -58 -105
-72 -98 -9 5 -36 8 -60 6 -23 -1 -45 2 -48 6 -3 5 -11 6 -17 2 -7 -5 -32 -8
-57 -9 -69 -1 -186 -60 -237 -118 -40 -45 -83 -136 -83 -174 0 -10 -5 -23 -11
-29 -6 -6 -7 -13 -2 -16 15 -10 40 17 53 58 21 67 61 134 97 161 44 34 121 67
139 60 8 -3 14 -2 14 2 0 9 197 9 205 0 4 -3 -4 -37 -18 -75 -23 -63 -48 -161
-62 -240 -3 -18 -9 -43 -14 -56 -6 -14 -7 -27 -5 -30 3 -3 3 -25 -1 -49 -6
-40 -11 -46 -58 -71 -29 -14 -95 -43 -147 -63 -52 -19 -98 -39 -102 -43 -4 -3
-3 -23 3 -42 11 -34 9 -39 -36 -99 -98 -135 -167 -324 -180 -501 -6 -79 -3
-122 35 -404 6 -44 15 -111 20 -150 l9 -70 -37 -39 c-30 -32 -32 -35 -8 -18
16 12 32 22 36 22 11 0 20 -55 34 -187 11 -107 11 -112 -7 -117 -14 -3 -18
-10 -13 -22 8 -21 -20 -54 -45 -54 -10 0 -26 -12 -37 -28 l-20 -27 29 -35 c36
-42 38 -65 7 -56 -60 17 -74 17 -87 2 -11 -13 -11 -20 3 -41 9 -13 16 -31 16
-39 0 -15 -43 -31 -73 -27 -17 2 -17 1 -3 -22 16 -23 15 -25 -11 -51 -14 -15
-27 -37 -28 -49 -2 -19 -6 -22 -43 -19 -28 3 -42 0 -42 -8 0 -7 -7 -10 -17 -5
-18 6 -140 -49 -155 -70 -4 -5 -13 -10 -20 -10 -7 0 -13 -4 -14 -10 -1 -19
-23 -63 -32 -66 -5 -2 -12 -21 -15 -41 -5 -34 -3 -39 19 -44 22 -6 36 -44 16
-44 -5 0 -23 -14 -41 -32 l-32 -31 -27 19 c-15 11 -47 26 -72 34 -25 7 -52 20
-61 27 -9 7 -18 10 -22 7 -3 -4 3 18 14 47 33 84 34 95 10 102 -12 3 -23 2
-25 -1 -2 -4 -25 -68 -51 -142 -48 -135 -83 -193 -114 -188 -12 2 -17 -10 -21
-52 -3 -30 -11 -65 -18 -77 -16 -28 -15 -33 3 -33 18 0 19 -9 3 -47 -7 -16
-17 -28 -23 -26 -6 2 -10 -16 -10 -41 0 -24 -3 -48 -7 -52 -4 -4 -34 7 -67 25
-32 17 -68 31 -79 31 -11 0 -37 7 -58 16 -127 52 -323 143 -570 264 l-281 138
37 77 c66 134 61 275 -15 412 -20 36 -35 74 -33 85 3 19 -25 48 -35 38 -6 -6
-111 -196 -184 -332 -32 -59 -63 -108 -69 -108 -10 0 -374 211 -401 232 -7 6
-13 21 -13 35 0 28 -35 46 -63 31 -13 -7 -38 3 -105 44 -125 75 -559 367 -647
434 -65 51 -75 62 -80 98 -8 50 -45 126 -62 126 -7 0 -13 5 -13 10 0 6 -17 10
-38 10 -41 0 -62 14 -62 42 0 20 -11 23 -26 9 -5 -6 -24 -4 -46 4 -46 16 -50
1 -5 -20 l32 -15 -35 6 c-33 6 -130 68 -130 83 0 3 8 17 17 31 16 23 16 23 -3
15 -38 -16 -64 -18 -64 -4 0 7 -3 10 -6 6 -8 -8 -154 110 -154 124 0 6 -4 8
-9 5 -5 -3 -14 1 -21 9 -11 13 -10 26 3 68 38 119 45 144 52 187 9 62 25 110
36 110 5 0 4 11 -1 26 -15 38 -13 125 3 123 19 -2 57 12 57 22 0 5 -13 9 -30
9 -30 0 -30 1 -30 53 -1 160 -41 330 -110 466 -52 102 -45 100 -134 39 -91
-61 -234 -197 -294 -279 -53 -73 -106 -174 -128 -243 l-17 -54 -117 122 c-162
168 -295 320 -402 459 -95 125 -225 322 -247 375 -13 32 -41 51 -41 29 0 -19
98 -182 177 -295 133 -191 328 -419 525 -615 97 -96 99 -99 89 -130 -14 -45
-41 -214 -41 -256 l0 -35 -56 54 c-224 219 -478 516 -604 708 -68 104 -90 128
-90 101 0 -16 83 -141 175 -264 118 -157 223 -276 410 -465 l163 -165 5 -189
6 -189 -37 34 c-302 278 -647 666 -689 774 -5 14 -33 22 -33 9 0 -23 180 -260
299 -394 92 -103 254 -266 377 -381 87 -80 92 -86 98 -134 l6 -50 -87 -55
c-48 -30 -92 -56 -98 -58 -27 -7 -427 413 -539 567 -22 30 -42 49 -44 42 -9
-28 197 -269 410 -477 l154 -151 -76 -49 c-41 -26 -94 -65 -116 -86 l-41 -38
-119 123 c-66 68 -137 147 -159 175 -39 50 -55 62 -55 42 0 -13 107 -137 221
-255 l97 -100 -38 -43 c-21 -23 -56 -79 -77 -123 l-40 -81 -81 88 c-45 48 -84
85 -88 81 -9 -9 8 -31 93 -124 52 -58 69 -83 63 -94 -11 -20 -38 -227 -40
-309 l0 -35 -51 57 c-28 32 -55 58 -60 58 -22 0 -4 -28 55 -84 l64 -61 6 -90
c9 -157 81 -341 169 -433 107 -113 329 -212 474 -212 21 0 55 -3 76 -7 l38 -6
-3 -108 c-2 -86 -6 -108 -16 -104 -8 3 -15 5 -17 5 -2 0 -1 9 2 20 6 23 -25
40 -37 20 -10 -16 -60 15 -60 37 0 8 -4 12 -10 8 -20 -12 -50 19 -51 55 l-2
35 -6 -33 -6 -33 -191 144 c-209 157 -341 263 -421 341 -29 27 -56 46 -60 42
-18 -18 444 -405 558 -467 53 -29 148 -105 149 -119 1 -9 3 -10 6 -3 3 7 33
-6 82 -36 l77 -48 3 -89 c3 -81 -17 -215 -37 -251 -4 -9 -33 3 -94 40 -81 47
-88 54 -82 77 11 43 17 131 11 155 -3 13 -29 51 -57 85 -49 58 -110 99 -169
113 -16 4 -30 17 -37 38 -15 40 -39 34 -35 -9 2 -22 -1 -32 -11 -32 -7 0 -40
-18 -71 -40 l-57 -40 -106 87 c-139 116 -143 119 -143 102 0 -14 53 -63 165
-152 33 -27 62 -50 64 -53 2 -2 -11 -27 -30 -55 -26 -41 -34 -65 -37 -114 -4
-55 11 -138 34 -200 6 -15 -4 -10 -37 17 -99 84 -150 120 -157 113 -8 -8 53
-63 124 -111 59 -39 91 -69 119 -110 53 -77 159 -148 241 -161 56 -8 193 -91
187 -113 -3 -11 3 -19 15 -22 16 -5 21 -18 27 -81 4 -46 12 -81 21 -88 8 -6
14 -25 14 -41 0 -25 -3 -29 -18 -23 -48 20 -82 24 -131 16 -61 -10 -100 -46
-101 -94 0 -35 48 -87 82 -88 85 -4 121 10 139 53 l12 30 14 -26 c7 -14 17
-26 21 -26 4 0 15 -7 25 -14 18 -14 17 -18 -8 -116 -14 -56 -30 -110 -35 -120
-5 -9 -14 -37 -20 -61 -29 -113 -26 -109 -35 -61 -4 24 -14 46 -22 49 -11 4
-12 8 -3 13 21 13 0 30 -38 31 -20 1 -48 4 -62 8 -28 8 -60 3 -60 -9 0 -14 66
-50 93 -50 24 0 25 -1 14 -35 -9 -29 -7 -38 7 -54 26 -28 13 -63 -20 -55 -45
12 -126 -16 -166 -57 -75 -75 -28 -149 95 -149 97 0 165 47 186 128 54 207 72
267 80 270 6 2 7 11 4 20 -4 13 -3 14 5 4 5 -8 27 -15 48 -16 22 -2 61 -13 88
-26 58 -26 105 -23 175 12 36 18 51 34 71 74 29 58 22 58 153 5 43 -17 87 -31
98 -31 11 0 37 -9 57 -19 20 -11 89 -45 152 -75 121 -59 193 -98 216 -117 8
-6 20 -9 27 -6 15 6 120 -46 117 -58 -1 -5 3 -11 9 -13 6 -2 11 1 11 7 0 6 5
11 10 11 13 0 13 -27 1 -34 -5 -4 -30 -8 -56 -10 -39 -4 -45 -3 -35 9 10 12 9
16 -4 21 -9 3 -16 13 -16 21 0 11 -5 10 -24 -4 -23 -17 -24 -18 -5 -27 23 -11
24 -22 4 -30 -9 -3 -12 -12 -8 -23 7 -17 6 -17 -19 -1 -15 10 -53 20 -84 22
-35 3 -53 1 -44 -4 16 -10 19 -29 22 -133 1 -51 5 -76 12 -72 6 3 19 8 29 11
20 7 23 29 5 41 -18 11 -40 75 -29 86 5 5 24 7 42 5 32 -3 34 -5 34 -40 0 -20
6 -42 13 -49 16 -17 15 -36 -3 -43 -14 -5 -14 -9 2 -33 33 -51 68 -86 100 -99
39 -17 184 -18 233 -3 19 6 56 12 82 13 33 2 53 9 72 27 29 27 32 50 11 82
-12 19 -12 29 -2 64 7 23 16 45 20 49 4 4 7 14 7 23 0 9 12 27 26 40 14 14 23
30 19 39 -3 10 0 12 10 8 9 -3 19 3 25 14 6 12 21 20 35 20 16 0 25 6 25 16 0
12 -9 15 -38 14 -57 -3 -58 -2 -22 25 19 14 38 31 42 37 6 8 7 0 3 -20 -6 -29
-4 -32 19 -32 15 0 30 8 36 20 6 11 17 20 25 20 8 0 15 9 15 20 0 11 4 20 8
20 4 0 138 -31 296 -69 283 -68 352 -91 272 -91 -36 0 -38 -2 -33 -26 7 -38
-41 -90 -92 -98 -51 -8 -91 -56 -91 -109 0 -20 4 -38 10 -42 5 -3 7 -12 3 -20
-4 -11 -17 -14 -50 -11 -39 4 -52 -1 -106 -38 -67 -46 -91 -58 -122 -62 -99
-13 -100 -13 -120 -68 -11 -28 -19 -57 -18 -63 1 -17 -3 -17 -48 9 -29 16 -42
19 -50 11 -8 -8 -20 -8 -35 -3 -13 5 -46 5 -79 0 -45 -7 -65 -18 -110 -57 -38
-34 -55 -56 -55 -73 0 -14 -9 -50 -20 -80 -26 -73 -25 -75 14 -100 23 -14 36
-30 38 -48 3 -23 8 -28 38 -30 19 -2 39 -7 45 -11 5 -5 30 -11 54 -15 35 -5
48 -3 65 12 42 36 71 42 107 22 19 -10 33 -23 31 -29 -1 -6 2 -11 8 -11 5 0
10 7 10 15 0 27 19 16 22 -12 2 -23 9 -29 34 -31 18 -2 47 6 68 17 19 11 42
18 50 15 8 -3 17 -1 21 5 3 6 25 11 49 11 30 0 48 6 61 20 10 11 27 20 37 20
10 0 21 7 24 15 4 8 18 15 33 15 15 0 32 5 37 10 9 9 45 1 72 -16 2 -1 -2 -11
-9 -22 -7 -11 -9 -28 -5 -38 7 -17 10 -16 32 11 24 31 68 43 89 25 20 -16 53
17 60 60 4 22 12 40 18 40 8 0 7 4 -1 12 -19 19 -14 28 13 28 14 0 25 4 25 10
0 5 16 18 37 28 29 16 36 25 37 51 1 17 -3 31 -8 31 -15 0 3 59 25 81 20 20
25 21 53 9 55 -22 85 -24 92 -5 4 9 2 21 -5 28 -8 8 -6 15 6 29 24 27 45 23
37 -7 -7 -28 7 -33 26 -10 10 12 10 18 0 30 -10 12 -7 18 19 32 17 10 31 23
31 28 0 6 16 11 36 13 36 2 36 1 31 -28 -7 -30 -2 -34 35 -31 9 1 19 -8 23
-19 4 -12 20 -26 37 -32 21 -8 26 -14 19 -21 -19 -19 -12 -31 8 -13 11 10 22
13 25 8 3 -6 1 -12 -6 -14 -7 -3 -9 -12 -5 -22 8 -21 51 -18 53 4 3 33 5 34
19 16 8 -11 15 -34 15 -50 1 -53 19 -64 118 -70 24 -1 30 -20 9 -33 -7 -4 -20
-19 -29 -31 -16 -24 -16 -24 -27 -4 -9 17 -16 19 -42 12 -17 -5 -37 -14 -45
-21 -11 -9 -14 -8 -14 4 0 9 -9 21 -20 27 -16 9 -22 6 -36 -15 -13 -20 -14
-28 -4 -40 6 -8 8 -20 4 -27 -4 -6 -9 -25 -11 -40 -2 -21 2 -28 14 -28 9 0 14
3 11 6 -12 11 44 54 70 54 31 -1 69 -25 53 -34 -6 -4 -8 -12 -5 -19 6 -16 -69
-97 -90 -97 -8 0 -18 -5 -21 -10 -4 -6 -10 -8 -15 -5 -5 3 -11 1 -15 -5 -3 -5
-22 -10 -41 -10 -21 0 -33 -4 -29 -10 3 -5 1 -10 -6 -10 -9 0 -9 -3 0 -14 9
-11 6 -16 -16 -25 -49 -19 -88 -47 -99 -70 -6 -12 -23 -35 -38 -50 -14 -15
-26 -30 -26 -34 0 -9 87 -94 122 -118 18 -13 28 -16 28 -8 0 7 3 9 6 6 4 -3
16 -1 27 5 17 9 24 7 37 -9 9 -12 35 -24 58 -28 l42 -7 0 32 c0 41 32 86 66
93 16 3 53 -5 88 -18 93 -34 98 -28 69 88 l-18 68 29 23 c30 23 31 31 10 103
-5 18 1 26 27 42 19 12 46 21 60 21 37 0 53 21 34 46 -9 12 -14 43 -15 83 0
46 -5 70 -17 83 -10 11 -16 32 -15 49 2 20 -2 29 -13 29 -22 0 -23 47 -3 88
10 18 9 25 -1 31 -7 5 -18 19 -25 32 -7 15 -22 25 -38 27 -38 5 -50 25 -52 90
-1 31 -6 65 -10 75 -5 9 -4 23 2 30 5 6 13 28 17 47 4 19 12 40 17 47 12 14 2
33 -16 33 -8 0 -18 6 -24 12 -8 10 41 13 241 14 262 0 419 12 621 45 135 22
350 70 415 94 24 8 46 13 49 10 3 -2 -3 -31 -14 -62 -10 -32 -19 -80 -21 -108
-1 -27 -5 -76 -8 -107 -5 -42 -3 -66 8 -88 11 -21 12 -30 4 -31 -7 -1 -19 -2
-27 -3 -8 0 -17 -16 -21 -35 -4 -18 -11 -36 -16 -40 -4 -3 -28 -32 -51 -63
-25 -33 -53 -58 -65 -60 -12 -2 -23 -12 -25 -23 -2 -11 -13 -30 -24 -42 l-20
-22 22 6 c20 5 21 4 11 -16 -16 -29 -85 -78 -119 -85 -15 -3 -53 -10 -85 -16
-33 -7 -69 -22 -86 -36 -35 -29 -51 -31 -51 -5 0 18 14 32 66 69 18 12 18 13
-1 6 -11 -4 -34 -9 -52 -12 -23 -3 -33 -10 -37 -28 -4 -14 -18 -34 -31 -46
-29 -25 -30 -31 -9 -53 11 -11 13 -20 7 -26 -6 -6 -14 -4 -23 6 -7 8 -16 15
-20 15 -11 0 -18 -60 -8 -66 14 -9 9 -21 -16 -32 -22 -10 -24 -16 -19 -49 3
-21 11 -44 18 -52 10 -10 11 -20 3 -37 -15 -33 5 -54 51 -54 36 0 37 -1 33
-31 l-5 -31 51 7 50 7 27 -49 c14 -27 40 -58 57 -67 27 -16 35 -17 70 -5 45
15 68 49 68 104 0 43 10 63 55 113 19 20 45 48 57 62 20 22 23 23 26 8 4 -20
22 -24 38 -8 6 6 21 6 40 1 37 -11 79 -4 95 15 16 19 32 18 77 -6 l37 -20 8
23 c12 38 49 53 96 39 60 -19 72 -16 65 13 -5 20 -2 25 14 25 11 0 26 7 33 16
11 14 10 19 -9 34 -27 22 -28 32 -2 55 11 10 20 29 20 42 0 20 5 23 35 23 30
0 35 3 35 24 0 14 -4 37 -10 51 l-10 26 48 -7 c26 -3 55 -11 65 -16 13 -7 25
-3 48 16 31 26 77 37 63 15 -4 -7 -7 -26 -6 -42 0 -17 -8 -43 -19 -58 -10 -15
-19 -35 -20 -46 -1 -33 -43 -85 -79 -97 -45 -15 -48 -31 -8 -42 28 -8 33 -15
36 -44 2 -19 17 -52 33 -74 39 -54 37 -81 -8 -122 -31 -26 -36 -35 -25 -45 10
-11 21 -11 59 3 26 10 50 13 53 9 3 -4 15 -13 27 -20 18 -9 29 -9 53 4 30 15
30 15 30 -10 0 -17 7 -28 22 -34 20 -7 83 1 95 12 2 3 36 -10 74 -28 60 -29
73 -32 98 -22 24 9 34 7 56 -7 l27 -18 -21 -22 -21 -23 25 -27 c39 -42 55 -20
66 94 2 20 48 69 82 87 26 13 29 13 34 -5 4 -16 10 -18 44 -12 21 4 46 13 55
21 9 7 34 15 57 19 41 5 42 6 42 45 1 39 21 85 38 85 4 0 26 -14 48 -32 38
-30 41 -31 67 -17 31 18 66 14 58 -6 -6 -17 16 -36 30 -27 12 8 34 46 34 59
-1 4 -7 -3 -15 -17 -15 -27 -15 -28 -33 50 -13 54 -7 63 54 86 33 13 46 23 50
43 8 38 24 68 71 139 34 50 41 67 33 82 -7 13 -5 21 7 31 12 10 15 10 9 2 -4
-7 -3 -13 2 -13 11 0 50 106 61 166 8 44 5 64 -10 64 -6 0 -7 -5 -3 -12 4 -6
3 -8 -3 -5 -6 4 -8 18 -6 31 4 21 2 24 -16 19 -13 -3 -21 -1 -21 7 0 8 12 11
36 8 28 -3 38 0 41 12 2 9 12 20 22 25 70 38 72 39 81 25 5 -9 18 -11 40 -7
19 4 40 2 53 -6 13 -8 50 -13 87 -13 76 1 174 43 192 81 7 15 22 25 44 30 45
8 44 25 -1 25 -38 0 -47 18 -20 40 19 16 19 37 0 47 -22 13 -36 68 -22 83 9
10 9 14 -1 17 -7 3 -25 15 -40 28 -69 57 -120 67 -189 35 -24 -10 -45 -15 -48
-10 -3 5 -3 27 1 49 7 44 5 45 -46 42 -30 -2 -80 -53 -80 -82 0 -28 -68 -99
-96 -99 -24 0 -68 46 -58 61 3 5 -2 9 -10 9 -9 0 -16 5 -16 10 0 6 9 10 21 10
18 0 17 4 -15 42 -41 47 -41 62 -2 66 17 2 31 12 38 28 9 19 63 66 63 54 0 -2
10 2 23 9 23 12 27 50 7 68 -4 4 -5 3 -1 -4 3 -6 3 -14 -2 -17 -4 -2 -9 6 -10
20 -1 13 2 24 8 24 5 0 8 12 6 28 -3 30 17 76 28 65 4 -4 4 -1 1 8 -3 9 6 23
25 37 16 13 30 29 30 37 0 19 18 29 33 17 20 -17 89 37 100 78 15 59 -20 111
-68 100 -5 -1 -20 -2 -32 -2 -24 -1 -30 -12 -13 -23 6 -4 7 -11 4 -17 -4 -6 5
-21 21 -34 18 -14 26 -28 22 -38 -8 -20 -37 -21 -37 -1 0 8 -4 15 -9 15 -5 0
-14 -7 -21 -15 -18 -22 -35 -18 -48 10 -15 33 -15 35 3 35 8 0 15 7 15 15 0 8
5 15 10 15 6 0 10 4 10 9 0 4 -16 7 -35 5 -24 -1 -35 2 -35 11 0 7 -11 26 -24
42 -30 36 -41 75 -28 100 9 15 6 22 -11 33 -27 17 -38 19 -54 8 -7 -6 -25 -1
-47 14 -39 25 -40 41 -5 90 10 15 19 36 19 47 0 12 13 35 29 53 24 27 32 31
42 21 18 -18 29 -16 29 5 0 9 -18 30 -40 45 -22 16 -40 33 -40 39 0 6 8 4 18
-5 10 -10 30 -17 45 -17 14 0 29 -5 33 -11 3 -6 17 -9 31 -6 17 3 27 -2 35
-16 10 -19 12 -19 23 -4 9 12 21 15 50 10 37 -6 38 -5 30 18 -4 13 -8 41 -9
61 -2 21 -10 46 -19 56 -15 16 -14 19 13 37 28 19 46 70 28 81 -11 7 -10 64 1
64 6 0 17 -10 25 -21 18 -27 46 -19 46 13 0 13 -11 35 -25 50 -28 31 -25 69 4
46 49 -39 81 -47 101 -23 16 20 -1 41 -40 50 -28 6 -40 27 -40 71 0 13 -14 31
-35 45 -19 13 -35 28 -35 32 0 5 -4 5 -10 2 -5 -3 -10 -1 -10 5 0 6 -4 8 -10
5 -5 -3 -10 -2 -10 3 0 12 -38 22 -56 15 -21 -8 -17 -31 6 -38 16 -5 18 -9 8
-25 -9 -14 -9 -22 0 -33 10 -11 9 -17 -2 -27 -13 -10 -16 -7 -22 14 -3 14 -11
27 -18 27 -6 1 -22 3 -34 4 -25 2 -70 40 -60 50 3 3 18 1 33 -5 39 -15 43 -5
12 28 -29 31 -33 69 -8 88 19 15 7 44 -19 44 -25 0 -26 9 -2 26 16 12 16 14
-3 28 -19 15 -19 15 8 16 15 0 36 9 47 20 12 12 25 18 30 15 8 -5 27 4 68 31
2 1 -10 16 -27 32 -23 21 -31 38 -31 64 0 33 1 34 60 47 66 15 76 25 86 89 4
24 16 50 30 63 34 32 30 42 -16 36 -22 -3 -43 -1 -46 4 -3 5 -9 7 -14 4 -5 -3
-12 0 -17 7 -10 16 -69 48 -88 48 -7 0 -15 -5 -17 -11 -2 -6 -20 -11 -40 -11
-21 0 -42 -6 -49 -14 -6 -8 -8 -14 -3 -14 5 -1 -4 -11 -20 -24 -20 -17 -26
-28 -20 -37 15 -24 33 -82 28 -91 -7 -11 -34 -10 -34 2 0 5 -11 12 -25 16 -14
3 -25 12 -25 20 0 8 -7 14 -16 14 -11 0 -15 -6 -11 -20 7 -26 3 -25 -28 7 -21
24 -25 34 -19 66 5 31 3 37 -11 37 -23 0 -65 41 -65 63 0 10 -11 22 -25 27
-31 12 -42 37 -27 61 13 20 6 52 -9 43 -5 -3 -9 -1 -9 5 0 5 6 12 13 14 7 4 6
6 -4 6 -9 1 -22 8 -29 16 -18 22 -40 18 -40 -6 0 -16 4 -19 19 -14 15 5 24 -1
36 -24 15 -29 14 -31 -10 -47 -24 -16 -27 -16 -38 0 -12 16 -15 16 -41 -5 -25
-19 -32 -20 -65 -10 -54 16 -59 15 -66 -19 -4 -16 -11 -33 -17 -36 -13 -8 -1
65 14 83 15 18 1 47 -43 93 -36 37 -39 44 -33 78 4 20 13 45 21 54 11 12 13
28 9 52 -4 22 3 92 20 183 14 81 28 165 31 186 5 30 10 37 29 37 12 0 29 6 36
13 7 7 21 16 30 19 9 4 18 17 20 30 2 13 8 22 14 21 9 -1 10 17 6 70 -1 10
-12 21 -24 26 -21 8 -21 8 5 13 24 5 28 1 39 -33 6 -22 15 -39 19 -39 5 0 0
23 -12 52 -33 85 -70 158 -79 158 -5 0 -11 8 -13 18 -2 9 -3 0 -1 -21 4 -31
-1 -45 -26 -76 -17 -21 -28 -44 -25 -53 3 -8 -8 -42 -25 -76 -26 -50 -39 -64
-76 -81 -24 -12 -52 -21 -61 -21 -10 0 -24 -4 -32 -9 -19 -12 3 -24 29 -16 29
9 24 -2 -7 -18 -16 -7 -40 -11 -55 -9 -24 3 -28 8 -29 35 -1 18 0 37 1 42 7
34 6 54 -4 52 -7 -1 -11 14 -11 38 l0 40 55 10 c50 10 53 12 34 23 -19 10 -21
18 -16 59 2 26 9 56 13 65 11 21 57 27 89 11 46 -23 76 -13 48 15 -9 9 -5 12
21 12 17 0 64 7 102 16 39 9 81 13 94 10 13 -3 25 -2 27 3 4 13 487 71 586 71
18 0 40 -7 49 -16 23 -22 76 -14 88 14 8 18 18 22 56 22 26 0 61 3 78 6 l31 7
0 -147 c0 -139 1 -146 20 -146 19 0 20 7 20 144 l0 144 38 6 c20 3 100 10 177
16 437 33 615 48 785 66 201 20 220 24 220 41 0 9 -7 12 -17 9 -29 -8 -286
-34 -613 -61 -168 -13 -357 -29 -422 -35 -179 -15 -168 -18 -168 35 l0 45 198
0 c261 1 869 17 955 26 49 5 67 11 67 22 0 10 -7 12 -23 8 -37 -9 -461 -25
-844 -31 l-353 -5 0 50 0 50 43 -5 c47 -6 300 -20 642 -35 273 -13 527 -10
532 6 3 8 -98 13 -344 17 -191 3 -428 11 -525 18 -161 11 -175 14 -150 26 15
7 35 23 45 35 l17 21 293 -32 c255 -27 554 -51 639 -51 17 0 28 5 28 13 0 11
-35 15 -152 20 -140 7 -308 21 -543 46 -49 5 -117 13 -150 16 -92 10 -105 14
-105 33 0 21 -40 62 -60 62 -7 0 -11 2 -9 4 3 3 67 -6 144 -20 474 -84 875
-132 875 -105 0 6 -12 11 -26 11 -22 0 -25 2 -14 15 7 8 19 15 26 15 17 0 18
27 2 33 -10 3 -10 9 0 26 6 11 12 46 12 78 0 49 -2 54 -13 39 -13 -17 -18 -17
-116 8 -187 47 -180 44 -174 66 8 30 16 31 79 11 117 -37 216 -62 222 -57 12
13 -17 25 -145 61 -100 29 -133 42 -133 54 1 40 14 40 125 2 160 -55 155 -54
155 -39 0 9 -34 25 -90 43 -49 16 -88 31 -86 33 4 3 100 -17 159 -34 14 -4 17
1 17 28 l0 34 -120 29 c-66 15 -120 32 -120 37 0 9 6 8 148 -27 l92 -23 0 34
c0 27 -5 35 -22 39 -49 11 -285 67 -403 95 -69 17 -127 30 -129 30 -2 0 -10
-20 -17 -45 -7 -25 -16 -45 -19 -45 -3 0 -84 31 -180 69 l-175 69 -3 86 c-3
78 -5 86 -22 86 -18 0 -20 -7 -20 -75 0 -41 -2 -75 -4 -75 -2 0 -57 21 -123
46 -65 25 -173 66 -239 90 -91 34 -121 49 -120 62 0 9 -7 18 -16 20 -11 2 -18
-3 -18 -12 0 -12 -10 -11 -59 9 -32 12 -128 44 -212 70 -85 27 -155 49 -157
51 -2 1 2 13 8 26 l11 23 -18 -22 -18 -21 -152 38 c-83 21 -174 41 -202 45
-27 4 -56 12 -64 18 -17 14 -47 89 -47 117 0 11 -2 20 -3 20 -4 0 -161 -54
-190 -65 -16 -7 -17 -2 -14 53 3 34 2 64 -1 67 -3 3 -7 16 -9 28 -2 12 -14 43
-28 70 -13 26 -22 55 -18 65 6 16 125 225 171 300 12 20 36 64 52 97 16 33 34
67 38 75 27 46 46 81 74 137 22 43 42 67 67 82 72 40 197 101 209 101 6 0 63
24 126 54 63 30 117 51 120 48 3 -3 6 0 6 6 0 7 7 12 15 12 8 0 39 11 69 25
30 14 58 25 61 25 3 0 33 14 67 30 33 17 65 30 72 30 7 0 17 5 24 12 6 6 46
30 88 53 42 23 75 45 75 48 -1 4 -1 16 -1 27 0 11 -5 20 -12 20 -6 0 -55 -22
-110 -50 -54 -27 -98 -47 -98 -45 0 3 -21 -6 -47 -19 -89 -44 -148 -70 -166
-73 -10 -2 -37 -13 -60 -25 -23 -12 -44 -23 -47 -23 -3 -1 -14 -5 -25 -10 -11
-4 -40 -16 -65 -26 -25 -9 -90 -38 -144 -63 -55 -26 -101 -45 -102 -43 -4 4
18 47 56 112 12 22 36 65 53 95 16 30 36 62 43 71 8 8 14 19 14 23 0 10 211
390 220 396 4 3 22 34 40 70 18 36 36 67 41 68 5 2 9 8 9 13 0 5 44 86 98 181
54 95 104 188 111 206 16 39 21 39 59 7 33 -28 52 -32 52 -11 0 17 -24 38 -41
34 -7 -2 -15 11 -19 30 -9 40 -35 70 -63 74 -12 2 -23 13 -28 29 -5 22 -4 26
10 22 23 -6 67 30 56 46 -14 24 -99 71 -127 71 -33 0 -43 17 -51 90 -5 40 -2
60 8 74 21 28 20 35 -29 138 -52 108 -131 202 -198 236 -64 32 -180 32 -226 0z
m-300 -2320 c-16 -24 -30 -47 -32 -53 -1 -5 -5 -14 -10 -20 -4 -5 -23 -37 -41
-70 -18 -33 -39 -71 -46 -85 -54 -96 -75 -135 -112 -207 -22 -45 -45 -84 -50
-88 -5 -3 -30 8 -54 25 -25 16 -50 30 -56 30 -6 0 -11 3 -11 6 0 15 92 174
100 174 5 0 11 9 15 20 13 41 88 124 190 212 120 102 128 109 132 104 3 -3 -8
-24 -25 -48z m-382 -528 c65 -33 65 -43 4 -154 -30 -54 -54 -109 -54 -121 0
-18 -4 -21 -30 -17 -23 3 -30 0 -30 -13 0 -11 5 -15 15 -11 11 4 5 -14 -17
-54 -43 -78 -56 -83 -47 -16 15 113 30 168 45 162 19 -7 44 3 44 18 0 6 -8 23
-17 36 -20 28 -25 52 -14 60 4 3 18 33 30 68 13 34 25 62 28 62 2 0 21 -9 43
-20z m125 -151 c14 -39 19 -169 8 -185 -8 -11 -112 -47 -171 -59 -32 -7 -33
-6 -26 22 4 15 11 29 15 31 5 2 30 43 56 90 83 154 96 166 118 101z m280 -263
c1 0 11 -32 23 -70 12 -39 20 -70 19 -71 -1 -1 -65 1 -142 4 -104 5 -139 9
-137 19 1 6 3 28 5 47 2 33 6 37 62 59 48 20 71 23 115 19 30 -3 55 -6 55 -7z
m205 -38 c247 -53 619 -172 975 -312 94 -37 186 -73 205 -80 32 -13 35 -18 38
-59 l3 -45 -93 34 c-51 18 -184 63 -296 100 -152 49 -201 69 -193 78 12 14 4
26 -26 44 -31 17 -33 16 -33 -13 0 -14 -3 -25 -7 -25 -13 0 -272 78 -283 85
-5 3 -10 12 -10 18 0 7 -13 27 -29 46 l-30 35 -17 -37 c-10 -20 -20 -37 -23
-37 -3 0 -61 11 -129 25 -68 14 -133 25 -145 25 -22 0 -29 15 -62 129 -8 26
-19 27 155 -11z m-670 -109 c0 -22 -54 -50 -102 -53 -15 -1 -30 -5 -35 -9 -4
-5 1 -5 12 -2 11 4 -17 -13 -62 -38 -46 -24 -104 -60 -129 -80 -26 -20 -50
-34 -54 -32 -5 3 -15 25 -23 49 l-15 44 51 17 c29 9 97 34 152 55 213 81 205
79 205 49z m516 -32 c7 -7 15 -22 19 -34 5 -20 3 -23 -19 -23 -36 0 -67 -14
-96 -43 -22 -21 -36 -26 -96 -29 l-71 -3 -2 49 c-1 26 -8 58 -16 69 -8 12 -15
26 -15 31 0 14 282 -2 296 -17z m204 -28 c63 -11 117 -23 118 -24 2 -2 -8 -27
-22 -55 l-26 -52 30 7 c25 6 30 4 30 -13 0 -17 -4 -18 -42 -11 -24 5 -80 14
-125 20 -67 9 -83 15 -83 29 0 9 -9 42 -19 73 l-20 57 22 -5 c12 -2 74 -14
137 -26z m-5723 -21 c53 -60 64 -93 62 -182 -2 -113 -8 -139 -27 -131 -27 10
-102 -35 -120 -72 l-17 -35 35 -29 c19 -16 42 -29 52 -29 22 0 24 -44 4 -92
-41 -98 -61 -140 -67 -144 -8 -5 -60 36 -164 129 -43 40 -95 86 -114 103 l-35
31 17 69 c17 70 83 215 121 267 22 31 129 111 168 126 38 16 63 12 85 -11z
m4989 -49 c-3 -39 -9 -75 -12 -80 -7 -12 -61 -12 -68 0 -3 5 -15 7 -25 4 -10
-3 -30 2 -43 11 -24 16 -28 14 -98 -24 -95 -52 -119 -51 -60 1 61 55 177 122
198 114 9 -3 13 -3 9 2 -4 4 12 15 35 24 71 29 72 28 64 -52z m1061 -5 c54
-14 102 -28 107 -31 4 -3 22 -9 40 -13 58 -14 280 -87 456 -150 96 -34 190
-66 208 -71 30 -9 32 -13 32 -56 0 -39 -2 -44 -17 -38 -19 8 -52 18 -288 88
-123 37 -472 134 -510 141 -5 1 -40 8 -76 16 l-66 13 21 24 c16 18 26 22 48
18 28 -7 33 0 22 29 -7 17 -44 22 -44 6 0 -16 -19 -11 -40 10 -20 20 -19 40 1
40 5 0 53 -12 106 -26z m-1463 -60 c17 -55 17 -58 -1 -79 -10 -13 -37 -47 -60
-77 -23 -29 -50 -62 -60 -73 -10 -11 -17 -23 -15 -28 1 -4 -9 -29 -22 -55 -28
-55 -64 -168 -76 -239 l-8 -48 -1 55 c-2 126 37 294 99 425 30 64 106 175 119
175 4 0 15 -25 25 -56z m788 -27 c-2 -22 3 -41 18 -60 18 -23 29 -27 69 -27
33 0 56 6 73 19 15 12 33 18 45 15 27 -7 37 10 21 35 -21 34 -1 42 72 30 36
-5 80 -12 98 -15 39 -6 43 -30 6 -44 -19 -7 -31 -7 -40 1 -11 9 -34 3 -106
-31 -83 -38 -97 -42 -144 -36 -53 6 -278 -8 -307 -20 -12 -4 -20 2 -28 22 -17
45 -22 104 -8 104 7 0 9 -10 7 -25 -3 -14 -2 -25 1 -25 18 0 73 43 83 65 10
23 16 25 78 25 l66 0 -4 -33z m561 -33 c28 -5 35 -10 27 -19 -5 -6 -7 -15 -3
-18 11 -12 61 -8 65 5 5 14 259 -51 568 -145 321 -99 294 -86 298 -137 3 -40
2 -42 -20 -36 -24 7 -214 56 -378 99 -52 13 -174 41 -270 62 -96 20 -179 42
-185 47 -7 7 -3 8 10 5 11 -4 30 0 43 7 21 11 21 14 8 25 -12 11 -21 8 -49
-13 l-33 -25 -135 20 c-73 11 -136 22 -138 25 -2 2 13 18 33 36 24 21 36 40
36 58 0 27 1 27 43 19 23 -5 59 -11 80 -15z m1144 -118 c230 -90 214 -82 201
-114 -7 -15 -13 -28 -13 -30 -2 -2 -65 20 -295 102 -31 12 -35 17 -38 54 -2
23 -1 42 1 42 3 0 67 -24 144 -54z m-1172 -32 c39 -8 74 -14 78 -14 5 0 5 -6
1 -12 -5 -10 -4 -10 5 -2 18 17 61 5 61 -17 0 -10 5 -21 10 -24 6 -3 10 3 10
14 0 33 3 33 395 -65 333 -83 419 -109 423 -128 3 -13 -1 -14 -23 -6 -36 14
-82 12 -130 -5 -35 -12 -49 -12 -110 1 -136 29 -411 83 -450 88 -22 3 -119 17
-215 30 -96 14 -201 26 -232 27 -32 1 -58 4 -58 5 0 2 18 13 40 24 40 20 49
33 30 45 -17 11 -11 23 18 33 17 7 21 11 10 11 -10 1 -18 6 -18 11 0 11 40 7
155 -16z m1202 -85 c147 -52 152 -55 146 -79 -3 -14 -8 -28 -12 -32 -3 -4 -74
14 -156 40 l-150 48 -3 43 c-2 33 0 42 10 39 7 -3 81 -29 165 -59z m-2607 1
c0 -10 -8 -24 -17 -29 -17 -9 -16 -11 5 -26 22 -16 22 -17 3 -43 -35 -50 -81
-151 -106 -234 l-26 -83 6 85 c8 144 77 350 116 350 12 0 19 -7 19 -20z m3000
-49 c65 -25 75 -32 72 -52 -1 -12 -4 -25 -7 -27 -5 -6 -254 78 -259 87 -3 4
-3 17 0 28 6 20 8 20 62 7 32 -7 91 -26 132 -43z m-1787 -21 c6 -25 27 -26 34
-2 4 16 12 17 96 10 112 -10 278 -37 541 -89 110 -21 205 -39 212 -39 7 0 25
-5 40 -10 25 -10 26 -12 10 -29 -9 -9 -17 -29 -18 -42 -2 -24 -4 -25 -48 -18
-121 21 -316 49 -415 61 -105 11 -111 13 -139 45 -31 34 -86 56 -123 49 -12
-3 -27 2 -34 10 -15 19 -29 17 -58 -5 -16 -12 -20 -20 -12 -25 8 -5 5 -13 -11
-26 -20 -15 -37 -17 -122 -12 l-98 5 5 34 c4 19 18 50 32 69 22 28 32 34 64
34 30 0 40 -4 44 -20z m-6069 -32 c18 -18 61 -58 96 -88 34 -30 75 -66 89 -80
15 -14 40 -35 55 -48 26 -20 28 -24 14 -40 -9 -9 -22 -30 -31 -47 -8 -16 -25
-41 -37 -55 -12 -14 -35 -40 -51 -59 -26 -32 -30 -33 -46 -20 -10 8 -55 46
-100 84 -79 65 -83 70 -83 108 0 33 31 214 46 265 5 18 11 15 48 -20z m7786
-12 c105 -37 124 -47 122 -62 -6 -30 -16 -35 -48 -25 -16 6 -75 24 -131 41
l-102 30 11 30 c5 17 13 30 16 30 4 0 63 -20 132 -44z m-2920 -23 c-7 -27 -5
-40 5 -47 24 -19 20 -40 -23 -106 -23 -36 -54 -96 -68 -135 -43 -115 -45 -117
-39 -34 6 95 48 235 75 249 11 6 17 17 14 25 -5 12 30 85 41 85 1 0 -1 -17 -5
-37z m2504 -44 c39 -12 80 -28 91 -35 11 -8 35 -14 55 -14 19 0 73 -10 120
-23 71 -18 85 -25 82 -40 -2 -10 2 -25 10 -34 11 -14 10 -15 -7 -10 -11 3 -96
22 -190 42 -264 57 -245 49 -245 95 0 22 3 40 6 40 4 0 39 -10 78 -21z m-1334
-41 c0 -5 8 -8 18 -8 30 0 42 -22 42 -77 l0 -53 -57 0 c-32 0 -96 -3 -142 -7
-63 -5 -82 -3 -77 5 4 7 33 12 70 12 69 0 82 6 64 27 -6 8 -14 36 -18 61 l-6
47 53 0 c29 0 53 -3 53 -7z m530 -38 c36 -5 110 -15 165 -21 55 -6 103 -13
106 -14 3 -2 37 -9 75 -15 38 -6 76 -17 84 -25 8 -7 28 -19 44 -24 l28 -11
-36 -25 -36 -24 -132 14 c-73 8 -195 19 -270 26 -103 9 -138 15 -138 26 0 7
-9 13 -21 13 -15 0 -19 -5 -15 -15 3 -8 1 -15 -4 -15 -6 0 -10 9 -10 20 0 11
-7 20 -15 20 -9 0 -15 -9 -15 -21 0 -15 -4 -19 -16 -15 -9 3 -63 6 -120 6 -97
0 -104 1 -104 20 0 24 3 24 47 4 25 -13 37 -14 46 -5 6 6 19 11 29 11 29 0 95
37 115 65 20 27 33 28 193 5z m935 -54 c110 -24 250 -54 310 -65 61 -12 134
-27 163 -32 41 -8 52 -14 52 -30 0 -10 -6 -19 -13 -19 -27 0 -240 32 -503 75
-149 25 -273 45 -276 45 -6 0 55 69 62 69 3 1 95 -19 205 -43z m-1529 -88 c-1
-18 5 -23 24 -23 16 0 28 8 35 23 7 15 18 22 37 22 30 0 35 -9 17 -27 -8 -8
-8 -17 0 -31 6 -11 11 -37 11 -56 0 -30 -3 -36 -22 -36 -21 0 -21 0 -2 14 10
8 16 17 12 21 -3 4 -16 -3 -27 -14 -20 -20 -76 -29 -83 -13 -1 4 -20 21 -41
36 l-38 29 -22 -22 c-13 -11 -33 -21 -45 -21 -12 0 -29 -11 -38 -25 -22 -34
-35 -32 -21 4 9 24 7 35 -11 65 -29 49 -28 56 9 56 21 0 28 -4 23 -12 -4 -7 1
-5 12 4 13 11 42 18 84 21 36 2 70 4 76 5 6 1 10 -8 10 -20z m338 -24 c13 -96
17 -91 -81 -96 -49 -2 -90 -3 -92 -2 -2 2 3 10 12 18 8 9 18 34 22 58 6 34 4
44 -11 55 -15 11 -7 13 63 13 l80 0 7 -46z m231 26 c72 -5 193 -16 270 -24 77
-9 147 -16 155 -16 12 0 14 -11 11 -51 -2 -38 -6 -49 -17 -45 -7 3 -149 8
-314 12 l-300 7 0 31 c0 17 -4 46 -9 64 l-10 32 42 0 c23 -1 101 -5 172 -10z
m-6568 -71 c38 -34 78 -68 91 -77 12 -8 22 -18 22 -22 0 -9 -142 -120 -154
-120 -20 0 -36 76 -36 175 0 58 2 105 5 105 2 0 35 -28 72 -61z m514 -51 c98
-78 101 -89 22 -96 -59 -5 -83 -17 -83 -42 0 -11 -6 -20 -12 -20 -7 0 -22 -8
-33 -16 -19 -15 -19 -15 8 -9 17 5 27 3 27 -4 0 -6 -4 -11 -10 -11 -5 0 -10
-13 -10 -30 0 -16 -3 -30 -7 -30 -5 0 -34 21 -65 46 -52 42 -56 48 -46 70 6
13 14 24 17 24 7 0 47 78 76 148 10 23 20 42 22 42 2 0 44 -32 94 -72z m5819
-27 c0 -11 -42 -76 -59 -89 -23 -18 -88 -52 -101 -52 -6 0 -10 28 -10 69 0 68
0 70 28 73 51 6 142 6 142 -1z m533 -7 l137 -7 0 -47 0 -47 -282 -6 c-156 -4
-307 -10 -335 -13 l-53 -7 16 32 c9 18 19 51 22 73 l5 41 176 -6 c97 -4 238
-10 314 -13z m-743 -70 l0 -76 -34 6 c-20 4 -37 2 -41 -4 -3 -5 -24 -10 -45
-10 -39 0 -39 0 -42 43 -3 35 -6 42 -23 40 -21 -3 -84 42 -74 52 7 7 138 22
207 24 l52 1 0 -76z m878 -101 l-3 -48 -74 -7 c-52 -6 -78 -4 -88 4 -8 6 -27
13 -43 15 -16 1 -35 4 -42 5 -7 2 -17 -7 -23 -19 -5 -13 -14 -23 -20 -23 -5 0
-143 -16 -305 -36 -443 -53 -403 -50 -398 -28 2 10 -3 24 -10 30 -18 13 -7 74
14 74 8 0 14 6 14 14 0 13 41 26 81 26 15 0 19 -10 21 -57 3 -64 24 -82 47
-41 6 13 33 35 59 50 26 15 59 37 73 49 27 22 -14 19 642 37 l58 2 -3 -47z
m-6598 -94 c0 -9 -16 -26 -35 -38 -40 -23 -46 -48 -12 -53 17 -2 22 -9 20 -28
-3 -40 6 -70 22 -70 18 0 38 37 31 55 -6 17 15 65 30 65 20 0 42 -35 39 -65
-1 -16 -21 -69 -45 -117 l-43 -86 -66 52 c-36 28 -101 78 -144 111 -43 33 -85
65 -93 71 -11 9 -1 23 51 76 52 52 67 62 76 51 24 -29 95 3 86 38 -4 15 3 13
39 -13 24 -17 44 -39 44 -49z m5413 40 c-5 -19 -2 -20 58 -18 35 2 69 0 75 -4
7 -4 14 -23 16 -42 5 -42 -13 -47 -50 -12 -14 12 -22 17 -18 10 3 -6 2 -14 -4
-18 -5 -3 -10 -14 -10 -24 0 -13 -14 -19 -67 -28 -37 -7 -69 -10 -71 -8 -3 2
0 17 5 32 6 15 6 41 2 57 -6 21 -5 26 3 18 16 -16 42 -3 27 14 -15 19 -4 44
20 44 14 0 18 -5 14 -21z m-5634 -227 c53 -43 123 -99 157 -123 l60 -45 -23
-53 -24 -54 -22 21 c-27 26 -96 38 -125 23 -28 -15 -45 -48 -44 -83 1 -32 -11
-29 -63 18 -16 14 -45 38 -62 51 -30 23 -33 30 -33 79 0 36 4 54 13 54 8 0 8
3 -2 9 -20 13 -28 120 -10 132 10 6 15 1 19 -18 3 -14 11 -28 19 -31 11 -4 13
3 8 34 -6 37 5 64 26 64 6 0 54 -35 106 -78z m1113 -91 c4 -4 -2 -7 -14 -8
-38 -3 -78 -25 -78 -42 0 -9 -5 -22 -12 -29 -9 -9 -9 -15 0 -24 7 -7 12 -20
12 -30 0 -43 111 -41 159 3 17 16 19 24 10 46 -5 14 -8 27 -7 29 2 1 62 -36
133 -82 72 -47 187 -122 257 -166 90 -57 128 -86 130 -101 2 -17 10 -22 34
-23 20 0 84 -31 185 -91 85 -50 180 -105 212 -123 55 -31 57 -33 44 -54 -8
-11 -28 -49 -46 -84 l-31 -62 -30 34 c-44 49 -119 78 -210 80 -86 2 -66 -6
-310 139 -251 150 -478 295 -705 450 -237 162 -230 156 -210 176 13 13 19 13
35 3 16 -10 30 -10 61 -2 23 6 47 9 55 6 8 -3 14 -2 14 2 0 20 -29 32 -79 34
-47 1 -42 2 28 7 77 6 86 9 110 37 l26 31 110 -75 c61 -41 113 -78 117 -81z
m-712 14 l5 -70 19 54 c10 29 21 49 25 44 12 -19 52 -34 72 -28 16 5 18 9 8
21 -35 42 19 11 212 -122 318 -220 640 -425 924 -589 55 -32 101 -59 103 -60
2 -2 -11 -17 -29 -34 -27 -27 -31 -37 -26 -66 7 -42 30 -74 77 -107 50 -36 94
-48 169 -48 68 0 125 23 137 54 4 12 41 -3 157 -64 202 -105 475 -232 721
-336 111 -47 208 -89 216 -94 45 -29 90 -49 122 -55 34 -7 35 -8 31 -46 -7
-54 16 -61 55 -18 l29 32 79 -28 c43 -16 86 -34 95 -42 9 -7 22 -11 30 -9 8 3
46 -5 84 -17 66 -22 70 -24 69 -52 -1 -53 -16 -99 -36 -119 -16 -15 -17 -20
-6 -27 10 -7 10 -9 0 -9 -38 0 -508 146 -518 161 -3 5 4 25 15 44 l20 35 -27
0 c-24 0 -35 11 -77 82 -55 89 -84 116 -132 122 -18 3 -37 8 -44 11 -6 4 -40
9 -76 10 -49 3 -71 9 -87 24 -12 12 -30 21 -38 21 -9 0 -26 15 -37 34 -12 19
-29 37 -39 42 -20 8 -120 15 -143 8 -23 -7 -59 -77 -59 -118 0 -29 -3 -34 -17
-29 -28 10 -336 153 -342 158 -2 3 3 11 13 18 12 9 17 23 14 42 -3 26 -8 30
-35 33 -25 3 -39 -3 -58 -23 l-24 -27 -205 106 c-228 118 -544 296 -743 418
-108 67 -133 86 -135 107 -3 23 -8 26 -52 29 l-48 3 7 37 c10 52 10 52 71 52
53 0 54 0 54 30 0 29 -2 30 -45 30 -25 0 -45 3 -45 8 0 4 7 29 15 56 19 63 19
66 -4 66 -15 0 -23 -14 -38 -62 l-19 -63 -77 -3 c-87 -3 -87 -3 -62 68 20 56
19 70 -4 70 -15 0 -23 -13 -35 -54 -9 -30 -16 -59 -16 -64 0 -6 -4 -13 -9 -17
-11 -6 -255 159 -400 272 -5 3 65 156 87 191 l15 23 16 -23 c9 -14 18 -52 21
-93z m-717 -140 c13 -153 13 -151 -38 -165 -25 -7 -48 -17 -51 -21 -12 -20
-40 -6 -115 57 -69 58 -78 68 -67 83 27 34 95 94 152 131 l58 40 28 -23 c24
-20 28 -31 33 -102z m726 -85 c86 -61 167 -119 181 -130 l25 -19 -48 0 c-47
-1 -48 -2 -45 -28 3 -27 6 -28 61 -31 31 -2 57 -6 57 -9 0 -3 -5 -23 -12 -44
l-11 -39 -64 0 -63 0 0 -30 c0 -30 1 -30 54 -30 l54 0 -10 -37 c-5 -21 -13
-42 -18 -46 -4 -5 -63 29 -131 76 -119 81 -156 116 -110 104 26 -7 32 3 25 40
-9 46 -75 76 -157 72 -57 -3 -68 -1 -98 23 -26 21 -30 27 -16 28 47 1 74 29
117 120 24 49 45 90 48 90 2 0 74 -50 161 -110z m-946 -62 c40 -34 73 -64 75
-67 1 -4 -9 -13 -23 -22 -34 -20 -111 -124 -131 -176 l-17 -43 -71 62 c-39 33
-72 64 -74 69 -2 4 4 22 14 40 24 47 136 199 146 199 5 0 41 -28 81 -62z
m6174 -35 c-3 -16 -13 -77 -22 -138 -22 -149 -24 -157 -35 -150 -6 3 -10 -1
-10 -9 0 -23 -37 -20 -50 4 -8 16 -8 22 4 26 16 6 19 58 5 86 -6 10 -5 19 1
23 6 4 8 15 5 24 -5 17 12 30 59 45 16 6 18 13 12 61 -6 51 -5 55 15 55 18 0
21 -4 16 -27z m-3164 -183 c28 -56 32 -75 32 -140 0 -56 -5 -87 -22 -123 l-22
-48 -43 24 c-24 13 -74 41 -111 61 l-68 37 37 67 c47 84 63 113 99 180 l29 53
18 -23 c10 -13 33 -52 51 -88z m-3121 -125 c-1 -11 -5 -63 -8 -115 -7 -104 10
-196 47 -258 10 -19 15 -32 9 -30 -5 1 -63 47 -129 101 -114 93 -120 100 -127
143 -9 59 3 142 33 237 l24 77 77 -67 c55 -48 76 -73 74 -88z m1116 -3 c117
-75 162 -109 164 -125 2 -17 10 -22 33 -22 20 0 92 -37 225 -116 570 -341
1196 -647 1755 -860 77 -29 141 -54 143 -55 2 -1 -13 -51 -33 -112 l-35 -110
-38 12 c-20 6 -69 23 -109 36 l-72 24 34 23 c77 52 67 155 -18 193 -23 11 -53
20 -67 20 -76 0 -160 -53 -180 -115 l-11 -33 -92 37 c-51 21 -109 49 -130 64
-20 14 -56 28 -80 32 -47 8 -305 122 -564 250 l-168 83 53 1 c51 1 52 2 52 31
0 29 -2 30 -46 30 -36 0 -45 3 -41 14 16 40 28 100 23 112 -13 33 -34 12 -51
-51 l-17 -65 -57 0 c-33 0 -65 6 -76 14 -18 13 -18 15 2 75 17 54 18 64 6 77
-30 30 -77 -1 -55 -36 8 -14 9 -27 1 -49 -6 -17 -13 -31 -15 -31 -18 0 -364
198 -568 326 l-154 95 -4 82 c-3 49 -14 106 -27 142 -12 33 -23 66 -23 73 -1
6 -5 12 -9 12 -4 0 -9 7 -13 15 -4 13 1 14 34 9 28 -5 40 -3 40 5 0 7 5 9 13
4 7 -4 86 -54 175 -111z m-748 78 c0 -5 -11 -12 -25 -16 -29 -7 -33 -38 -9
-72 19 -27 34 -20 35 16 3 67 16 -40 18 -142 l2 -107 -60 40 c-82 56 -92 68
-85 97 4 14 -1 44 -11 71 l-18 45 29 24 c16 13 47 30 69 38 49 18 55 19 55 6z
m401 -269 c11 -53 7 -170 -6 -192 -6 -8 -135 182 -135 199 0 3 -17 31 -39 62
-21 30 -53 81 -70 113 l-31 58 134 -92 135 -92 12 -56z m679 237 c0 -2 -7 -25
-15 -52 -12 -40 -13 -51 -3 -58 23 -14 28 -9 45 52 l18 60 48 0 c44 0 67 -12
271 -134 233 -140 539 -311 754 -422 70 -36 138 -71 152 -78 14 -8 75 -37 135
-64 305 -140 307 -141 302 -156 -9 -24 22 -76 44 -76 29 0 59 -18 59 -36 0
-11 6 -14 23 -9 12 4 26 11 31 16 6 5 20 9 32 9 12 0 24 4 26 9 2 5 37 -5 78
-22 70 -30 75 -34 72 -59 -3 -24 0 -28 21 -28 14 0 27 7 31 15 7 19 18 19 62
0 l35 -14 -22 -30 c-17 -23 -20 -33 -11 -44 10 -11 3 -14 -38 -15 -50 -1 -98
-20 -129 -51 -18 -18 -24 -17 -197 49 -566 214 -1161 505 -1741 851 -179 108
-182 110 -185 146 -4 43 -19 52 -46 25 -19 -19 -20 -19 -43 0 -13 11 -19 17
-12 14 8 -4 18 13 29 49 l18 55 78 0 c43 0 78 -1 78 -2z m-880 -263 c23 -38
46 -72 50 -75 13 -9 111 -172 106 -177 -2 -3 -31 14 -63 36 -32 23 -82 58
-110 78 l-53 36 0 87 c0 48 -2 103 -6 121 l-5 34 19 -35 c10 -19 38 -66 62
-105z m2421 78 c57 -31 106 -58 108 -60 3 -2 -14 -30 -37 -63 -23 -32 -42 -61
-42 -65 0 -18 25 2 65 53 l46 57 262 -130 c144 -72 327 -159 407 -194 160 -70
178 -81 135 -81 -45 0 -112 -45 -124 -83 -7 -19 -8 -42 -5 -52 6 -15 3 -16
-17 -10 -60 19 -394 166 -583 258 -165 81 -204 103 -185 107 51 12 17 60 -43
60 -16 0 -19 -5 -16 -24 5 -24 2 -23 -94 25 -54 27 -98 52 -98 54 0 8 40 85
58 113 14 21 15 21 28 5 10 -14 15 -16 25 -5 10 9 11 19 1 45 -22 62 -22 62
109 -10z m-2791 -10 c20 5 36 -4 126 -76 l61 -48 7 -181 c3 -99 5 -183 2 -185
-2 -2 -37 19 -78 46 -72 49 -75 53 -87 106 -9 39 -24 69 -51 100 -21 24 -44
61 -50 81 -13 39 -8 122 10 170 l11 27 16 -22 c9 -14 22 -21 33 -18z m-331
-131 c31 -26 88 -72 126 -102 39 -30 100 -82 137 -117 36 -35 74 -63 85 -63
10 -1 56 -28 103 -60 l84 -60 -74 0 c-90 0 -163 18 -233 58 -45 25 -52 33 -49
56 4 30 -20 45 -42 27 -18 -15 -104 76 -141 150 -31 60 -67 159 -58 159 3 0
31 -22 62 -48z m1153 -25 c46 -30 138 -86 206 -127 116 -69 136 -83 111 -78
-15 4 -22 -22 -44 -164 -10 -65 -23 -118 -28 -118 -24 0 -404 225 -409 242 -3
7 6 37 19 66 13 30 31 94 40 143 10 49 18 89 20 89 1 0 40 -24 85 -53z m-391
-128 c46 -29 86 -54 89 -56 9 -8 -34 -72 -73 -110 -37 -35 -108 -73 -137 -73
-6 0 -10 63 -10 161 l0 161 24 -15 c13 -9 62 -40 107 -68z m3748 -45 c2 -2 -4
-10 -13 -19 -22 -22 -20 -46 4 -52 19 -5 19 -6 3 -19 -15 -11 -16 -16 -5 -33
6 -12 12 -27 12 -34 0 -8 9 -22 20 -32 18 -16 20 -16 26 -1 3 9 4 25 1 36 -4
17 0 20 24 20 34 0 34 0 14 -47 -8 -19 -15 -41 -15 -49 0 -18 38 -28 56 -13
11 9 20 9 40 0 20 -9 30 -9 40 0 20 17 27 48 14 64 -7 8 -8 15 -3 15 14 0 33
-47 27 -65 -4 -8 -1 -15 5 -15 8 0 9 -6 3 -17 -5 -10 -8 -37 -6 -59 l4 -41
-98 32 c-121 40 -274 96 -284 105 -5 3 12 59 37 125 25 65 45 120 45 122 0 3
40 -15 49 -23z m-2836 -136 c59 -33 107 -66 107 -74 0 -18 -100 -20 -118 -2
-9 10 -16 8 -29 -5 -15 -14 -15 -20 -3 -42 12 -22 20 -25 67 -25 58 0 61 -4
42 -59 -11 -30 -13 -31 -70 -31 l-59 0 0 -31 0 -31 -77 42 c-43 23 -82 46 -86
50 -7 6 16 169 39 283 l6 28 36 -22 c21 -12 85 -49 145 -81z m-458 -97 c99
-58 181 -106 183 -107 2 -1 -32 -228 -43 -281 l-5 -21 -49 18 c-28 10 -104 48
-169 84 l-119 66 33 35 c67 72 71 163 10 259 -20 32 -33 56 -29 55 5 -2 90
-51 188 -108z m2980 18 c71 -19 101 -69 53 -88 -78 -30 -110 -35 -165 -23
-114 24 -126 81 -24 113 38 11 91 10 136 -2z m385 -109 c153 -53 165 -59 168
-84 2 -14 -1 -27 -7 -27 -6 -1 -23 -3 -38 -4 -42 -5 -153 -32 -161 -40 -4 -3
4 -15 18 -25 18 -14 -19 -5 -125 29 -82 27 -163 54 -180 60 -29 12 -29 13 -11
27 11 8 25 14 31 14 19 0 52 42 70 87 16 40 18 41 43 31 15 -6 101 -36 192
-68z m-3840 -40 c0 -52 31 -101 80 -127 51 -27 74 -28 134 -8 l44 15 121 -66
c67 -37 121 -68 121 -70 0 -2 -17 -11 -37 -19 -57 -24 -93 -63 -93 -100 0 -17
5 -36 10 -41 7 -7 8 -19 1 -37 -10 -25 -15 -27 -67 -27 -51 0 -69 7 -170 63
-95 52 -116 67 -124 94 -6 17 -18 37 -27 44 -13 11 -17 10 -28 -5 -13 -17 -15
-17 -45 0 l-30 19 2 149 3 148 35 12 c48 16 70 2 70 -44z m1471 -53 c118 -57
269 -128 337 -157 l122 -54 -36 -18 c-59 -28 -71 -45 -100 -131 -26 -79 -27
-80 -39 -51 -6 16 -10 37 -7 46 3 14 -2 17 -33 15 -23 -2 -41 -9 -47 -20 -12
-23 -13 -22 -223 73 -278 126 -445 210 -445 223 1 29 20 39 94 44 l77 6 -7
-29 c-4 -16 -11 -39 -15 -51 -6 -18 -4 -25 11 -33 17 -9 22 -7 29 14 6 13 13
40 16 60 l7 36 64 0 64 0 0 30 c0 29 -1 30 -50 30 -33 0 -50 4 -50 13 0 14 11
57 15 57 1 0 98 -46 216 -103z m3694 73 c15 -16 15 -22 5 -35 -11 -13 -8 -16
18 -21 21 -4 29 -11 25 -20 -3 -8 0 -14 7 -14 8 0 10 9 6 24 -3 14 -2 28 4 31
5 3 10 1 10 -4 0 -6 5 -11 11 -11 5 0 7 5 4 10 -3 6 3 10 14 10 27 0 26 -4 -5
-35 -16 -16 -23 -32 -20 -42 5 -11 2 -14 -10 -9 -11 4 -15 2 -11 -8 7 -17 -4
-21 -76 -35 -27 -5 -50 -5 -53 0 -3 5 -13 9 -23 9 -39 0 -42 24 -11 84 16 32
34 64 41 72 16 20 43 17 64 -6z m-4339 -86 c106 -56 124 -69 122 -88 -2 -15 3
-22 20 -24 15 -2 22 2 22 12 0 11 42 -5 158 -62 86 -43 195 -95 242 -116 l84
-38 -34 -19 c-56 -29 -99 -24 -177 20 -92 54 -140 52 -213 -9 -44 -37 -55 -55
-51 -82 2 -15 -16 -7 -185 76 l-171 84 26 156 c14 86 27 156 29 156 2 0 59
-30 128 -66z m4504 -183 c5 -11 10 -27 10 -35 0 -22 -127 -94 -223 -126 -140
-47 -133 -48 -155 12 -11 29 -17 56 -14 59 15 14 145 30 155 20 14 -14 72 -14
97 -1 10 5 20 20 24 33 3 13 20 30 38 39 45 21 56 21 68 -1z m-1900 -35 c63
-20 169 -50 235 -69 90 -25 120 -37 120 -49 0 -9 8 -25 18 -36 12 -14 17 -32
15 -58 -2 -32 0 -39 17 -42 48 -8 48 -15 0 -32 -47 -16 -54 -16 -130 1 -133
29 -561 144 -573 154 -1 1 2 14 8 29 7 20 15 26 29 21 12 -3 21 0 25 11 3 9
12 14 20 11 16 -6 46 22 46 42 0 9 8 11 24 7 15 -4 28 0 36 8 9 12 6 18 -17
31 -35 20 -22 17 127 -29z m-3510 -29 c8 -7 21 -25 28 -41 11 -25 16 -28 44
-22 24 5 46 -2 102 -33 132 -71 135 -74 138 -106 3 -28 6 -30 42 -30 36 0 40
-3 48 -34 13 -49 4 -65 -32 -57 -17 3 -44 3 -61 -1 -25 -5 -30 -10 -27 -32 3
-23 8 -26 54 -31 l51 -5 -22 -68 c-12 -37 -25 -71 -29 -74 -3 -3 -18 -1 -32 6
-25 11 -25 13 -9 25 30 21 1 96 -38 96 -2 0 -4 -19 -5 -42 -1 -23 -3 -43 -5
-44 -2 -2 -57 26 -123 61 l-119 65 -2 51 c-1 33 -8 58 -18 68 -15 15 -18 14
-40 -13 l-23 -28 18 53 c10 30 21 98 25 152 4 53 10 97 13 97 4 0 14 -6 22
-13z m5469 -42 c-19 -20 -57 -54 -86 -76 -51 -40 -52 -40 -82 -25 -37 20 -39
20 -37 0 2 -29 -22 -26 -31 3 -9 27 -8 28 71 68 65 32 83 37 91 27 9 -11 19
-8 55 12 25 14 47 26 49 26 2 0 -11 -16 -30 -35z m-4698 3 c22 -12 39 -25 39
-30 0 -4 4 -7 8 -5 4 1 65 -25 135 -57 96 -44 126 -63 122 -74 -10 -26 15 -80
50 -106 18 -14 38 -26 44 -26 16 0 13 -12 -8 -40 -14 -17 -36 -28 -73 -35 -66
-13 -73 -33 -26 -82 l33 -34 -60 26 c-33 15 -69 35 -80 45 -11 11 -29 19 -40
18 -26 -2 -155 58 -155 71 0 5 9 13 20 16 11 4 31 17 43 30 12 13 31 25 42 27
32 5 32 46 -1 58 -15 6 -24 13 -20 17 8 8 -24 43 -40 43 -12 0 -54 50 -54 64
0 12 28 6 40 -9 9 -10 17 -12 23 -6 14 14 1 42 -17 35 -9 -3 -19 3 -26 16
l-12 22 -14 -27 c-8 -15 -14 -38 -14 -51 0 -21 -16 -41 -26 -32 -2 3 3 29 12
58 11 36 12 56 6 58 -10 3 -5 32 5 32 3 0 23 -10 44 -22z m4107 0 c10 -10 15
-10 22 1 7 12 11 12 24 2 13 -11 19 -11 31 -1 13 11 19 4 40 -45 14 -32 23
-60 20 -64 -4 -3 -49 -5 -101 -4 -51 1 -96 -3 -99 -8 -4 -5 -45 -9 -93 -9
l-87 0 27 23 c14 12 29 32 33 44 3 12 15 33 26 47 18 23 28 26 83 26 36 0 67
-5 74 -12z m-2585 -29 c42 -17 77 -36 77 -43 0 -10 -70 -227 -75 -234 -2 -2
-145 48 -153 54 -2 1 4 14 14 29 16 25 16 26 -2 40 -20 15 -74 20 -74 8 0 -5
-7 -16 -14 -26 -13 -17 -18 -17 -95 13 -44 17 -82 34 -85 38 -2 4 0 18 5 30
l9 24 30 -25 c70 -60 215 -35 256 44 7 15 14 39 14 54 0 14 3 25 8 25 4 0 42
-14 85 -31z m3267 -17 c0 -16 -71 -125 -121 -187 -53 -66 -121 -128 -205 -188
l-51 -37 -6 33 c-3 17 -8 39 -11 48 -9 22 51 50 81 36 36 -16 73 -1 80 33 3
17 11 30 18 30 6 0 20 9 30 20 10 11 25 20 33 20 12 0 12 3 2 15 -11 13 -5 23
32 63 24 26 56 64 72 85 27 35 46 47 46 29z m-2025 -131 c72 -17 172 -42 224
-54 l94 -22 -2 -95 c-1 -52 -4 -97 -7 -99 -5 -6 -203 27 -294 49 -75 17 -75
18 -72 49 3 37 -7 39 -38 6 -26 -28 -16 -29 -190 17 -167 44 -354 99 -362 107
-6 5 18 108 27 119 1 2 20 -8 40 -23 29 -19 50 -25 89 -25 53 0 121 25 144 52
11 14 24 12 115 -16 56 -18 161 -47 232 -65z m-1041 29 c21 -5 53 -6 71 -3 23
4 67 -6 141 -32 60 -20 112 -40 117 -44 4 -4 -9 -58 -28 -120 -34 -104 -38
-112 -58 -105 -120 36 -394 128 -399 133 -7 6 22 108 54 193 l10 27 27 -20
c15 -11 45 -24 65 -29z m3076 44 c0 -3 -18 -40 -40 -82 -35 -69 -56 -99 -102
-152 -7 -9 -26 -35 -42 -58 -36 -52 -132 -136 -141 -122 -9 15 -25 12 -25 -5
0 -8 5 -15 11 -15 33 0 -182 -139 -287 -185 -50 -22 -55 -23 -101 -9 -26 8
-60 13 -75 10 -35 -7 -39 2 -23 40 11 26 22 33 81 49 39 11 93 18 125 16 76
-3 129 20 184 81 25 28 75 72 113 98 82 58 228 210 274 284 29 49 48 68 48 50z
m428 -30 c16 -11 22 -25 22 -55 0 -26 5 -42 15 -45 21 -8 19 -24 -3 -24 -19 0
-21 -32 -6 -92 4 -18 2 -28 -5 -28 -6 0 -11 12 -11 27 0 41 -36 73 -82 73 -21
0 -38 -2 -38 -4 0 -2 9 -25 21 -51 18 -41 24 -46 45 -41 30 8 33 -14 4 -32
-23 -14 -26 -35 -6 -51 11 -9 21 -6 46 15 26 22 33 25 41 13 5 -8 9 -23 9 -34
-1 -18 -1 -19 -11 -2 -13 23 -29 22 -29 -2 0 -11 -5 -23 -11 -27 -8 -5 -6 -10
5 -16 9 -5 16 -18 16 -28 0 -42 -151 -51 -222 -14 -43 23 -157 23 -228 0 -30
-10 -71 -46 -65 -57 3 -4 -10 -19 -27 -35 -30 -24 -34 -34 -38 -93 -5 -61 -7
-67 -34 -80 -26 -12 -31 -12 -42 3 -10 15 -3 32 49 114 75 119 136 249 185
392 36 105 37 108 63 103 15 -3 30 0 33 6 4 5 13 8 20 5 7 -3 18 2 25 10 7 8
19 12 27 9 8 -3 20 0 27 6 10 8 19 6 35 -10 12 -11 22 -25 22 -31 0 -6 3 -8 7
-5 3 4 12 -2 20 -13 8 -11 18 -20 22 -20 14 0 22 31 12 48 -7 12 -1 24 22 49
38 38 36 37 65 17z m-1008 -13 c-8 -16 -6 -23 12 -35 12 -9 28 -16 35 -16 7 0
17 -9 23 -19 8 -17 5 -21 -23 -30 -101 -32 -368 -66 -398 -51 -8 5 -24 28 -34
51 l-19 42 22 15 c12 8 22 21 22 28 0 11 20 14 90 14 50 0 90 -3 90 -7 0 -3
-7 -15 -17 -25 -18 -20 -44 -23 -60 -7 -16 16 -32 3 -26 -21 4 -13 14 -20 32
-20 14 -1 40 -7 56 -14 29 -12 30 -11 40 18 12 35 76 83 120 89 17 2 34 5 38
5 4 1 3 -7 -3 -17z m-5262 -45 c45 -27 82 -52 82 -56 0 -4 -7 -13 -15 -20 -17
-14 -36 -5 -29 14 3 8 -4 16 -15 19 -26 6 -63 -2 -56 -13 3 -5 -4 -25 -14 -44
-12 -21 -16 -38 -11 -41 6 -4 10 -11 10 -17 0 -6 -29 -9 -80 -6 -64 2 -84 7
-100 24 l-21 20 26 14 c14 7 25 17 25 22 0 4 4 8 10 8 17 0 55 45 74 88 11 24
22 41 25 40 3 -2 43 -25 89 -52z m2254 -17 c57 -23 145 -57 197 -76 52 -18 98
-36 102 -39 4 -2 -8 -52 -28 -109 -28 -85 -38 -105 -52 -101 -9 3 -37 10 -62
16 -39 10 -45 15 -42 33 2 12 -5 37 -16 55 -17 26 -28 32 -58 34 -46 2 -52 1
-80 -7 -17 -6 -25 -1 -37 24 -23 43 -20 51 14 51 41 0 81 39 73 71 -3 13 -10
30 -16 37 -11 14 -73 10 -90 -7 -24 -24 -36 -13 -24 24 6 19 12 35 13 35 2 0
50 -19 106 -41z m3559 -120 c-73 -165 -172 -313 -301 -452 l-69 -74 -46 12
c-25 6 -46 14 -46 18 0 4 36 34 80 67 146 110 289 284 381 462 19 37 36 65 38
63 2 -2 -14 -45 -37 -96z m-2475 32 l160 -46 -30 -20 c-58 -39 -56 -119 5
-150 40 -21 59 -19 112 15 26 17 50 30 52 30 3 0 5 -15 5 -34 0 -36 -18 -96
-28 -96 -33 0 -426 92 -533 125 -15 5 -3 53 56 224 3 8 12 10 23 6 9 -4 89
-28 178 -54z m2028 -8 c20 -59 21 -57 -14 -49 -16 3 -30 2 -30 -3 0 -5 -9 -7
-20 -4 -11 3 -20 1 -20 -5 0 -19 -87 -62 -125 -62 -20 0 -34 -4 -31 -9 9 -14
-94 -25 -107 -12 -6 6 -19 11 -28 11 -9 0 -41 18 -70 40 -30 22 -61 40 -70 40
-23 0 -118 -62 -118 -77 -1 -10 -58 -33 -83 -33 -5 0 -8 31 -8 69 l0 68 208 6
c198 5 394 29 462 56 37 15 37 15 54 -36z m-1024 7 c0 -5 -7 -13 -16 -18 -30
-17 3 -22 40 -7 19 8 49 15 66 15 27 0 30 -3 30 -30 0 -16 1 -30 3 -30 2 0 35
11 75 24 l71 24 0 -73 c0 -50 -4 -77 -13 -84 -9 -8 -46 -11 -98 -9 l-83 3 2
27 c2 25 0 26 -25 17 -21 -8 -29 -7 -40 8 -13 17 -15 16 -37 -9 -28 -32 -50
-35 -77 -11 -14 13 -21 14 -30 5 -7 -7 -23 -12 -35 -12 -23 0 -24 3 -21 66 l3
67 45 13 c25 8 52 11 62 8 9 -2 19 0 23 6 8 13 55 13 55 0z m-4163 -7 c-14
-13 35 -53 58 -47 14 3 59 -15 136 -55 63 -34 104 -61 93 -61 -40 0 -40 -37
-1 -94 20 -28 20 -29 2 -42 -34 -25 -53 -17 -65 25 -5 21 -17 41 -24 44 -8 3
-12 14 -10 24 7 29 -8 41 -61 46 -27 3 -60 9 -72 13 -19 5 -25 0 -39 -30 -11
-21 -28 -39 -45 -45 -15 -5 -36 -18 -47 -29 -36 -36 -61 -45 -77 -28 -8 8 -24
18 -35 21 -11 4 -55 26 -98 51 -71 41 -75 44 -44 44 18 0 63 11 101 24 38 13
72 22 75 19 3 -3 12 -1 19 5 8 7 16 9 19 6 3 -3 9 0 14 7 5 8 3 10 -6 4 -9 -6
-11 -4 -6 4 5 7 14 10 22 7 9 -3 11 0 7 11 -5 12 -3 14 7 8 8 -5 11 -4 6 3 -7
12 43 69 63 71 8 0 11 -2 8 -6z m5650 -64 c-34 -91 -128 -273 -179 -349 -31
-45 -52 -66 -69 -68 -36 -6 -49 -21 -49 -57 0 -28 -4 -33 -27 -38 -53 -10 -46
11 31 95 109 118 197 246 258 374 29 62 54 111 56 109 1 -1 -8 -31 -21 -66z
m-3021 -38 c103 -34 193 -61 200 -61 8 0 14 -3 14 -7 0 -25 -77 -233 -86 -233
-21 0 -98 30 -115 45 -9 9 -30 14 -50 13 -28 -2 -33 0 -31 15 4 24 -22 32 -57
17 -24 -10 -41 -8 -100 10 -39 11 -70 24 -68 28 3 4 21 60 41 125 27 86 41
117 51 113 8 -3 98 -32 201 -65z m-1724 25 c53 -24 77 -41 81 -56 5 -19 11
-22 34 -17 18 4 51 -3 96 -21 55 -22 67 -31 65 -47 -2 -15 -13 -21 -43 -25
-49 -6 -61 -35 -20 -50 23 -9 26 -14 20 -41 -10 -45 -69 -102 -96 -94 -12 4
-32 2 -45 -5 -20 -11 -34 -8 -104 20 -82 33 -106 50 -72 50 11 0 27 12 37 26
16 25 16 27 -3 47 -21 24 -52 88 -52 108 0 7 -5 27 -12 45 -13 36 4 94 27 94
7 0 46 -15 87 -34z m3016 -86 c21 0 22 -4 22 -80 l0 -80 -23 11 c-17 8 -23 17
-20 33 6 28 -50 78 -114 102 -68 26 -106 -5 -63 -51 13 -14 22 -27 19 -29 -12
-11 -50 -26 -64 -26 -9 0 -28 -9 -44 -21 -23 -17 -36 -19 -75 -14 -42 7 -47
10 -43 29 3 11 13 59 23 106 l17 86 171 -33 c94 -18 181 -32 194 -33z m1612
42 c0 -3 -25 -39 -56 -79 -64 -83 -179 -193 -270 -259 l-62 -44 -70 22 -71 22
110 57 c130 68 220 133 313 227 49 50 73 68 87 65 10 -3 19 -8 19 -11z m-2455
-110 c88 -22 205 -51 260 -64 61 -14 90 -24 75 -26 -14 -2 -36 -14 -50 -27
-23 -21 -27 -22 -50 -10 -41 23 -78 18 -111 -14 -33 -34 -38 -74 -13 -110 l17
-23 -44 7 c-43 6 -322 71 -345 79 -8 3 0 42 25 121 32 102 38 116 56 112 11
-3 92 -23 180 -45z m-920 -101 c97 -28 100 -30 98 -57 -1 -15 -6 -31 -10 -35
-5 -5 -80 10 -167 34 -168 44 -180 52 -150 95 13 19 17 20 71 6 32 -7 103 -27
158 -43z m249 5 c38 -13 38 -26 0 -26 -13 0 -24 -8 -27 -20 -3 -13 0 -20 9
-20 8 0 14 -4 14 -9 0 -15 -22 -25 -29 -13 -23 38 -41 -80 -20 -131 6 -15 9
-30 7 -33 -4 -4 -108 14 -115 20 -2 2 4 24 13 50 14 40 19 46 38 41 20 -6 20
-5 3 9 -18 14 -18 17 4 85 25 77 20 75 103 47z m1258 -95 c-1 -7 3 -17 10 -24
9 -11 17 -7 41 17 21 23 27 26 22 11 -20 -53 7 -90 76 -104 27 -5 35 -12 37
-34 l3 -27 -68 0 c-37 1 -106 7 -153 14 l-85 12 2 31 c3 28 -1 32 -27 38 -30
7 -43 35 -15 35 8 0 15 7 15 15 0 19 19 19 44 0 26 -20 38 -19 35 3 -3 30 0
32 34 28 17 -2 31 -9 29 -15z m-582 -76 c96 -20 181 -38 187 -40 22 -7 3 -32
-42 -56 -39 -21 -44 -28 -47 -63 -2 -31 -10 -45 -39 -68 l-36 -29 -137 26
c-75 14 -148 30 -161 35 -28 10 -32 34 -13 75 9 21 8 32 -5 60 -14 30 -15 42
-5 79 l11 43 56 -13 c31 -7 135 -29 231 -49z m-1236 34 c22 -6 47 -20 56 -31
13 -16 20 -18 36 -10 14 7 48 2 137 -23 66 -19 120 -35 121 -37 7 -8 -16 -68
-25 -68 -14 0 -411 109 -416 114 -8 8 27 66 40 66 6 0 30 -5 51 -11z m-151
-117 c-9 -28 -15 -53 -12 -55 2 -2 112 -34 244 -71 430 -120 433 -122 407
-163 -13 -20 -311 57 -697 179 -154 49 -158 51 -130 63 26 11 34 10 61 -6 47
-28 68 -24 82 14 7 18 12 40 12 49 0 13 40 50 47 44 1 -1 -5 -25 -14 -54z
m3013 4 c-2 -13 -10 -34 -16 -46 -9 -17 -9 -29 -1 -48 13 -28 10 -34 -21 -37
-13 -2 -30 -6 -39 -9 -10 -5 -19 1 -27 18 -8 17 -17 24 -27 20 -11 -5 -13 -10
-5 -19 6 -7 7 -20 4 -29 -8 -22 -40 -16 -36 7 2 11 -9 23 -32 33 l-35 17 47
38 c43 36 134 76 175 78 13 1 16 -5 13 -23z m-999 -17 c67 -7 120 -16 117 -21
-3 -4 0 -8 7 -8 7 0 28 -14 46 -32 41 -40 119 -53 189 -32 26 8 52 17 58 21 7
5 3 0 -7 -9 -11 -10 -28 -18 -38 -18 -15 0 -18 -7 -17 -35 1 -38 25 -56 30
-23 4 26 59 59 87 51 17 -4 19 -8 10 -19 -15 -18 5 -44 32 -44 11 0 19 -4 19
-9 0 -5 8 -11 18 -14 9 -2 -19 -8 -63 -13 -102 -11 -687 -10 -738 2 -34 8 -37
11 -25 27 8 10 21 19 30 21 10 1 27 11 39 22 12 10 19 13 14 5 -6 -10 -4 -12
4 -6 9 5 11 21 7 49 -3 22 -2 47 3 55 7 10 4 19 -7 28 -15 11 -12 12 23 13 22
0 95 -5 162 -11z m-2122 -99 c126 -43 509 -154 657 -191 83 -20 87 -22 76 -42
-10 -20 -31 -171 -30 -225 0 -22 -3 -23 -42 -17 -48 8 -327 69 -401 88 -38 10
-50 18 -50 33 -1 19 -24 21 -36 3 -3 -6 -18 -7 -33 -3 -20 5 -25 11 -21 25 5
14 1 19 -14 19 -27 0 -27 20 -1 27 20 5 29 43 9 43 -6 0 -8 9 -4 20 4 13 1 22
-9 26 -19 7 -48 -14 -40 -28 4 -6 -2 -8 -12 -6 -13 2 -18 10 -16 27 5 35 -45
83 -78 76 -18 -4 -35 1 -52 15 -33 26 -68 26 -102 -1 -33 -26 -70 -22 -74 9
-2 13 2 29 8 37 8 10 8 19 1 33 -13 25 2 39 61 57 63 20 73 19 203 -25z m1388
-55 c160 -27 180 -33 170 -48 -4 -6 3 -8 18 -4 19 5 27 1 34 -15 16 -34 40
-44 60 -25 9 9 25 17 37 17 17 0 19 -4 12 -32 -13 -59 -11 -62 33 -72 46 -9
73 -4 73 16 0 9 -3 9 -11 -2 -8 -11 -9 -5 -5 25 3 22 10 41 16 43 5 2 10 10
10 18 0 12 18 13 118 7 146 -10 569 -10 680 -1 69 6 82 5 82 -7 0 -21 14 -19
35 5 22 24 43 26 52 4 3 -9 13 -14 24 -11 13 4 19 0 20 -11 1 -10 5 -1 11 20
10 36 27 48 74 48 20 0 21 -3 14 -42 -5 -24 -7 -44 -5 -46 2 -2 18 5 37 14 18
11 55 18 83 19 49 0 50 0 50 32 1 18 4 35 8 39 4 4 7 -2 7 -14 0 -11 11 -34
25 -51 31 -36 33 -34 -100 -79 -484 -163 -1087 -192 -1767 -85 -114 18 -116
20 -97 70 6 15 12 46 14 68 6 81 18 125 32 125 7 0 78 -11 156 -25z m1807
-139 c0 -19 -26 -40 -35 -26 -11 18 -21 11 -33 -27 -8 -26 -8 -42 0 -56 9 -17
8 -19 -6 -14 -9 4 -27 -4 -44 -18 -20 -16 -33 -21 -43 -14 -23 15 -29 11 -29
-21 0 -35 -27 -54 -65 -44 -19 5 -25 2 -25 -10 0 -15 -51 -33 -220 -80 -188
-52 -472 -86 -775 -93 -278 -7 -420 1 -411 23 3 8 9 20 12 28 8 19 -62 57
-110 60 -45 2 -96 30 -96 52 0 21 -19 17 -52 -11 -31 -27 -75 -26 -91 2 -4 7
-13 13 -20 13 -7 0 -23 12 -36 25 -29 31 -38 31 -44 3 -3 -13 -4 2 -3 32 1 31
6 53 11 50 6 -3 9 -13 8 -22 -2 -10 6 -22 16 -27 16 -9 20 -6 25 17 12 58 5
57 242 28 121 -14 277 -31 348 -36 167 -13 519 -13 666 0 251 23 560 87 730
153 78 30 80 31 80 13z"/>
<path d="M7497 10148 c-13 -13 -39 -57 -57 -98 -18 -41 -41 -93 -51 -116 -11
-22 -19 -46 -19 -52 0 -21 -20 -13 -29 12 -15 39 -55 47 -89 17 -45 -38 -9
-109 49 -97 34 6 34 8 13 -44 -19 -47 -27 -49 -42 -15 -16 35 -75 36 -98 0
-30 -46 21 -110 71 -87 23 11 24 10 14 -16 -5 -15 -20 -47 -32 -72 -12 -25
-22 -51 -23 -58 -1 -7 -12 -29 -24 -49 -12 -20 -28 -57 -37 -82 -16 -49 -88
-204 -154 -333 -21 -43 -37 -78 -34 -78 3 0 -1 -10 -9 -22 -11 -18 -147 -315
-233 -508 -8 -19 -23 -53 -33 -75 -10 -22 -35 -75 -54 -118 -20 -43 -36 -82
-36 -86 0 -4 18 -16 40 -26 34 -15 53 -35 35 -35 -5 0 -86 39 -93 45 -4 4 58
159 69 169 5 6 9 18 9 28 0 10 5 18 10 18 6 0 10 5 10 11 0 5 18 48 40 94 100
210 160 350 155 363 -4 12 -23 14 -89 10 -69 -4 -96 -10 -150 -37 -83 -41
-121 -86 -193 -229 -32 -62 -66 -129 -76 -148 -16 -31 -31 -39 -64 -35 -20 3
-5 -22 25 -43 16 -10 39 -34 52 -53 19 -28 22 -42 17 -91 -7 -79 -45 -158
-101 -210 -39 -36 -52 -42 -89 -42 -23 0 -60 9 -82 20 -22 11 -40 20 -42 20
-1 0 -15 -19 -30 -42 -15 -24 -31 -45 -34 -48 -4 -3 -17 -27 -29 -55 -12 -27
-27 -61 -34 -75 -7 -14 -19 -47 -26 -75 -17 -66 -23 -72 -84 -91 -59 -18 -104
-8 -113 26 -3 11 -9 20 -14 20 -5 0 -9 16 -9 35 0 27 -4 35 -18 35 -10 0 -23
-5 -30 -12 -9 -9 -12 -9 -12 1 0 11 -3 11 -15 1 -8 -7 -12 -17 -8 -24 3 -6 2
-7 -3 -3 -5 5 -10 21 -11 35 -1 15 -16 65 -33 112 -46 125 -87 260 -95 315 -2
17 -11 62 -19 100 -31 147 -16 299 32 320 12 5 22 13 22 17 0 5 11 8 25 8 15
0 25 6 25 15 0 22 -21 67 -43 92 -19 21 -21 21 -34 5 -12 -16 -14 -16 -28 2
-8 11 -15 29 -15 40 0 21 -76 93 -87 83 -3 -3 -23 8 -46 24 -27 20 -43 26 -48
18 -4 -8 -14 -6 -33 6 -14 10 -26 16 -27 14 0 -2 -2 -17 -3 -34 -1 -16 -4 -34
-6 -40 -8 -23 25 -97 52 -116 l28 -21 -22 -19 -23 -19 24 -20 c28 -24 14 -26
-35 -5 -20 8 -41 12 -46 9 -7 -4 -8 14 -3 54 6 57 6 61 -19 77 -29 19 -56 14
-56 -10 0 -9 -9 -15 -25 -15 -14 0 -25 4 -25 9 0 5 -3 16 -6 25 -4 11 3 19 22
26 25 10 26 12 11 27 -13 13 -21 14 -44 4 -24 -10 -28 -18 -30 -56 -1 -31 2
-45 11 -45 7 0 21 -9 31 -20 10 -11 29 -20 42 -20 26 0 31 -21 8 -40 -8 -7
-15 -18 -15 -25 0 -10 -20 -25 -35 -25 -10 0 -14 35 -4 41 7 4 9 14 4 25 -5
11 -9 21 -9 24 -1 3 -6 12 -11 20 -13 22 -24 -26 -14 -65 4 -16 10 -71 12
-120 4 -68 13 -115 37 -185 18 -52 37 -101 42 -107 6 -7 7 -13 3 -13 -5 0 -1
-8 8 -17 8 -10 23 -44 32 -75 9 -32 22 -70 30 -85 21 -43 95 -226 95 -236 0
-13 52 -141 59 -147 4 -3 25 -54 48 -115 31 -86 38 -114 30 -130 -13 -27 -27
-35 -59 -35 -42 0 -91 71 -83 121 5 31 3 40 -17 55 -13 11 -30 35 -38 54 -7
19 -17 40 -22 46 -5 7 -3 18 7 28 14 14 14 18 0 40 -9 14 -25 28 -36 31 -30
10 -52 73 -38 107 13 31 1 54 -34 67 -10 4 -27 25 -37 48 -18 40 -18 42 1 62
19 20 19 22 3 51 -10 16 -21 27 -26 24 -16 -10 -45 16 -56 53 -10 31 -9 39 3
46 18 10 20 58 3 75 -7 7 -22 12 -34 12 -16 0 -26 10 -38 40 -15 37 -14 42 1
76 17 35 17 36 -6 55 -13 10 -28 19 -35 19 -20 0 -35 -56 -25 -97 21 -91 5
-160 -46 -197 -18 -13 -18 -17 -5 -57 8 -24 17 -46 20 -49 11 -8 70 -139 70
-154 0 -8 14 -47 31 -87 17 -41 43 -108 58 -149 16 -41 54 -142 86 -223 31
-81 55 -150 53 -153 -3 -2 -65 -15 -139 -28 -74 -14 -155 -30 -180 -36 -30 -7
-57 -8 -80 -2 l-34 9 3 92 4 93 -24 -7 c-70 -22 -95 -46 -100 -95 -2 -27 -8
-36 -25 -38 -13 -2 -23 1 -23 7 0 6 -9 11 -19 11 -11 0 -23 5 -26 10 -9 14
-58 13 -73 -2 -7 -7 -12 -21 -12 -32 -1 -19 -2 -19 -11 -4 -5 10 -26 22 -47
28 -31 8 -39 7 -49 -7 -16 -20 -17 -33 -3 -33 6 0 10 8 10 18 1 13 4 11 15 -8
18 -32 19 -50 2 -50 -8 0 -19 -11 -25 -25 -10 -21 -19 -25 -51 -25 -22 0 -42
-4 -45 -9 -4 -5 3 -7 14 -4 12 3 29 -2 41 -13 12 -10 31 -18 44 -16 13 2 26
-2 30 -7 3 -6 1 -11 -5 -11 -7 0 -9 -12 -4 -35 4 -24 2 -35 -6 -35 -22 0 -6
-44 19 -50 13 -3 25 -14 27 -24 1 -10 7 -23 12 -28 6 -6 8 -25 5 -43 -3 -21 1
-41 12 -59 17 -26 17 -26 -15 -56 -18 -17 -39 -29 -47 -26 -15 6 -17 -3 -4
-23 7 -10 21 -4 65 28 31 23 56 38 56 33 0 -5 15 -17 34 -27 29 -16 37 -17 50
-6 18 15 46 8 46 -12 0 -9 15 -17 39 -21 26 -4 47 -15 60 -32 l20 -26 27 21
27 21 23 -37 c13 -21 24 -46 24 -56 0 -24 68 -107 86 -107 8 0 17 -13 20 -30
5 -24 12 -30 31 -30 14 0 38 -9 53 -20 25 -18 40 -20 104 -16 42 3 84 10 95
15 11 6 33 11 50 11 27 0 30 3 30 33 0 80 5 92 34 95 20 2 27 9 27 24 0 27 28
47 66 48 21 0 40 10 60 31 26 27 34 30 68 24 31 -5 37 -3 33 9 -8 21 8 29 23
11 7 -8 21 -15 31 -15 11 0 29 -11 41 -25 17 -20 31 -25 63 -24 22 0 57 -4 79
-9 21 -6 45 -8 52 -5 7 3 20 -2 29 -10 8 -8 20 -17 27 -19 8 -3 5 -14 -10 -35
-19 -26 -20 -35 -10 -64 6 -19 12 -39 14 -45 4 -16 74 -28 87 -15 18 18 46 13
70 -12 12 -12 34 -29 50 -36 19 -10 27 -22 27 -42 0 -18 6 -28 19 -32 11 -3
28 -22 38 -43 18 -39 49 -56 63 -34 6 9 13 9 29 1 22 -12 29 -31 10 -31 -6 0
-9 -10 -7 -22 2 -15 10 -23 23 -23 14 0 19 6 17 19 -5 27 16 36 64 29 48 -6
58 3 43 45 -7 21 -7 42 -1 66 6 21 7 36 1 36 -5 0 -9 11 -9 25 0 14 -4 25 -10
25 -16 0 -12 56 5 70 13 11 20 11 39 0 19 -9 32 -10 59 -1 62 21 87 47 87 92
0 37 12 51 25 29 10 -16 26 0 20 19 -4 13 5 22 30 34 20 9 42 17 50 17 28 0
26 23 -5 55 -18 18 -29 38 -26 44 4 6 0 11 -9 11 -9 0 -19 8 -22 18 -5 19 -62
59 -98 68 -24 6 -35 37 -35 95 0 16 -4 29 -10 29 -5 0 -7 13 -4 29 3 16 1 32
-5 35 -6 4 -3 14 10 27 18 18 18 21 3 50 -18 37 -12 59 16 59 15 0 20 5 18 18
-1 9 1 23 5 30 5 6 5 17 2 22 -9 14 -35 12 -35 -2 0 -7 -11 -18 -25 -24 -20
-10 -28 -9 -45 6 -23 20 -24 31 -8 77 13 36 25 41 42 17 10 -13 14 -13 35 5
13 11 39 26 57 33 36 13 42 26 22 46 -9 9 -3 12 31 12 23 0 51 5 62 11 17 8
24 6 40 -15 11 -14 23 -25 27 -24 17 3 82 -34 82 -47 0 -20 13 -19 33 3 23 25
21 34 -5 31 -13 -2 -33 3 -46 10 -18 9 -21 15 -12 26 8 10 8 15 -1 21 -9 5 -7
11 6 21 22 15 101 18 110 3 3 -5 17 -10 31 -10 26 0 29 -7 14 -30 -7 -12 -11
-12 -28 3 -19 17 -20 17 -25 -5 -7 -26 15 -54 33 -43 15 9 50 87 60 132 7 30
6 32 -24 39 -81 18 -118 79 -104 172 8 51 51 159 68 172 4 3 12 14 18 26 17
32 92 50 156 37 54 -12 72 -8 43 9 -24 13 -17 45 35 162 85 193 97 311 44 420
-25 52 -100 146 -115 146 -7 0 -149 -303 -272 -580 -23 -52 -43 -97 -45 -99
-7 -8 -74 28 -74 39 0 6 13 4 31 -5 17 -9 33 -15 35 -13 2 2 51 110 110 239
229 503 313 689 369 814 31 72 79 176 106 233 27 57 49 108 49 113 0 5 10 29
22 52 12 23 23 44 23 47 5 16 47 100 50 100 3 0 11 -13 20 -29 26 -50 82 -53
103 -5 16 33 15 37 -9 63 -17 18 -28 22 -55 16 -39 -7 -40 -5 -16 52 18 46 37
55 47 22 17 -52 105 -42 105 11 0 41 -64 86 -81 58 -6 -10 -11 -10 -20 -1 -9
9 -2 32 30 95 22 47 41 96 41 109 0 34 -27 69 -66 85 -48 20 -79 17 -107 -8z
m-1033 -2124 c24 -9 21 -54 -4 -54 -10 0 -23 7 -28 17 -9 15 -11 14 -26 -4
-10 -10 -35 -59 -57 -108 -51 -116 -80 -147 -134 -143 -39 3 -40 4 -40 38 0
31 3 35 27 38 19 2 31 -3 40 -17 7 -12 16 -21 20 -21 9 0 49 73 83 153 37 88
73 119 119 101z m298 -141 c8 -10 18 -26 21 -35 8 -23 -15 -97 -57 -189 l-35
-74 37 -5 c47 -6 66 -47 37 -80 -26 -29 -59 -25 -88 10 -21 24 -25 37 -20 68
5 34 51 139 88 202 21 36 19 60 -5 60 -23 0 -35 22 -26 45 7 20 29 19 48 -2z"/>
<path d="M9115 9940 c-3 -5 1 -20 9 -32 22 -31 20 -74 -4 -96 -20 -19 -19 -41
3 -69 7 -10 13 -10 29 2 18 12 24 11 49 -8 16 -11 29 -27 29 -34 0 -20 20 -15
40 10 l19 22 17 -23 c12 -17 19 -21 27 -13 22 22 13 41 -45 98 -33 32 -80 79
-106 106 -47 49 -57 54 -67 37z"/>
<path d="M2944 8582 c-23 -22 -378 -451 -382 -462 -5 -13 27 -20 51 -11 12 4
33 4 47 0 14 -4 52 -7 86 -8 107 -2 200 63 260 182 37 72 26 93 -14 29 -72
-110 -136 -143 -243 -120 l-66 13 119 143 119 142 26 -30 c38 -46 99 -74 162
-74 46 0 56 3 78 28 28 33 25 63 -12 112 -50 65 -186 98 -231 56z"/>
<path d="M4567 8012 c-33 -21 -42 -44 -26 -74 13 -25 69 -77 83 -78 11 0 99
-43 106 -51 3 -4 14 -3 25 1 18 6 18 8 -8 34 -17 17 -34 25 -43 22 -9 -3 -26
-3 -39 0 -20 5 -23 11 -18 34 7 37 -25 75 -56 65 -28 -9 -27 11 1 26 17 9 24
8 34 -5 6 -9 24 -18 38 -19 15 -1 31 -9 37 -17 8 -11 12 -12 16 -2 7 17 43 15
43 -3 0 -12 11 -15 50 -13 28 1 50 6 50 11 0 4 -39 26 -86 47 -96 45 -160 51
-207 22z"/>
<path d="M9852 7826 c-102 -98 -122 -123 -85 -109 8 3 32 0 54 -7 30 -10 45
-11 64 -2 23 11 25 10 25 -14 0 -32 17 -64 33 -64 7 0 39 28 72 61 55 56 58
61 33 57 -35 -7 -50 11 -51 61 -1 21 -5 37 -8 35 -4 -2 -9 2 -12 10 -4 9 3 16
16 20 21 6 21 7 5 20 -10 7 -18 18 -18 25 0 24 -23 7 -128 -93z"/>
<path d="M8664 7739 l-107 -139 -19 31 c-27 45 -51 35 -63 -26 l-10 -51 -40
23 c-81 46 -185 23 -185 -41 0 -55 99 -126 174 -126 19 0 45 9 59 20 l26 20 3
-27 c3 -25 7 -28 38 -28 29 0 36 4 38 23 5 35 -16 55 -51 48 l-29 -6 31 29
c17 16 31 34 31 39 0 6 54 81 120 167 66 86 120 160 120 164 0 5 -6 11 -14 14
-10 4 -49 -39 -122 -134z"/>
<path d="M3716 7855 c-8 -8 -21 -12 -29 -9 -9 3 -17 -2 -20 -13 -43 -152 -135
-483 -202 -733 -95 -347 -118 -434 -121 -438 -1 -2 -18 8 -38 22 -94 63 -293
35 -332 -48 -58 -121 144 -219 314 -151 48 19 81 60 93 114 22 101 157 592
164 599 9 9 110 -100 132 -141 16 -31 25 -117 11 -117 -3 0 -9 -13 -13 -30 -9
-39 -42 -80 -65 -80 -27 0 -48 -71 -33 -111 9 -24 9 -29 -4 -29 -8 0 -23 5
-33 10 -15 8 -21 6 -30 -9 -15 -29 -13 -39 10 -46 13 -4 34 1 56 14 62 37 86
22 39 -24 -13 -14 -25 -31 -26 -38 -5 -39 4 -71 26 -93 14 -14 25 -29 25 -35
0 -16 47 -29 104 -29 29 0 56 -3 60 -7 12 -12 100 -43 122 -43 11 0 29 -7 40
-15 10 -8 41 -15 67 -15 39 0 52 5 72 26 14 15 26 32 27 38 0 6 2 16 3 21 2 6
3 22 4 38 1 17 7 27 16 27 17 0 20 16 5 25 -5 3 -15 16 -21 28 -12 21 -12 21
14 4 15 -9 39 -17 54 -17 21 0 24 -3 15 -12 -20 -20 -14 -28 23 -28 31 0 35 3
41 34 6 36 -11 106 -27 106 -5 0 -9 11 -9 24 0 32 -10 37 -51 26 -24 -7 -38
-20 -49 -43 -12 -25 -20 -31 -40 -29 -14 1 -34 12 -45 23 -20 19 -20 19 7 42
39 33 44 63 16 92 -13 14 -31 25 -41 25 -11 0 -24 14 -34 38 -17 41 -19 49 -9
73 4 9 -3 26 -18 44 -20 23 -28 26 -39 17 -8 -7 -17 -9 -20 -5 -4 3 -7 -2 -7
-13 0 -26 -62 -92 -93 -99 -65 -17 -87 28 -47 93 11 18 32 72 45 120 14 48 37
116 50 152 49 126 48 261 0 363 -30 60 -89 139 -126 166 -33 25 -37 41 -10 41
12 0 20 9 24 27 3 16 3 31 0 35 -7 13 -30 9 -47 -7z m107 -367 c24 -52 36
-125 28 -183 l-7 -50 -8 40 c-13 67 -55 143 -112 204 -63 69 -75 95 -61 135
l10 30 66 -70 c37 -38 74 -86 84 -106z m-67 -220 c19 -37 25 -61 21 -85 -3
-18 -1 -35 4 -39 11 -6 3 -93 -12 -129 -6 -17 -8 -15 -8 10 -2 62 -51 170
-112 244 -32 40 -59 77 -59 83 0 6 5 29 12 51 l12 40 58 -62 c32 -34 70 -85
84 -113z"/>
<path d="M9555 7384 c-83 -59 -187 -134 -232 -167 -46 -32 -83 -63 -83 -67 0
-29 41 -6 216 120 108 78 197 140 199 138 1 -2 12 -22 24 -46 43 -84 158 -129
209 -82 63 59 -29 195 -141 207 -41 5 -48 1 -192 -103z"/>
<path d="M4275 6236 c-63 -131 -115 -241 -115 -246 0 -5 70 -75 155 -156 l155
-148 -28 -18 c-59 -37 -96 -152 -63 -192 18 -22 67 -20 101 4 33 24 70 94 70
136 1 25 -23 52 -157 182 l-157 152 104 210 c58 116 107 210 110 210 3 0 11
-5 17 -11 9 -9 3 -30 -24 -82 l-35 -71 31 -28 c17 -15 35 -28 39 -28 5 0 19
26 32 58 12 31 27 61 31 66 4 5 38 -20 76 -56 l67 -66 -33 -28 c-37 -31 -70
-95 -71 -134 0 -39 27 -70 60 -70 39 0 97 51 111 98 24 82 20 90 -179 280
l-182 175 -115 -237z"/>
<path d="M6166 5911 c4 -16 1 -32 -5 -35 -8 -5 -7 -14 4 -29 17 -25 19 -60 5
-88 -9 -16 -7 -19 8 -19 36 0 45 -24 34 -87 -8 -47 -7 -59 4 -66 20 -12 8 -27
-22 -27 -24 0 -44 -30 -44 -66 0 -22 62 -17 101 9 29 19 33 28 31 55 -2 18 2
39 8 47 15 18 3 100 -17 116 -9 8 -12 22 -8 40 5 22 2 29 -14 34 -12 3 -21 15
-21 25 0 10 -7 20 -15 24 -8 3 -15 17 -15 31 0 30 -16 65 -30 65 -5 0 -7 -13
-4 -29z"/>
<path d="M5455 5606 c-61 -27 -124 -116 -125 -176 0 -17 58 -109 171 -270 93
-135 174 -249 180 -254 6 -6 13 -6 21 2 9 9 2 26 -32 74 -24 35 -93 133 -153
218 l-109 154 29 10 c48 15 90 53 117 108 32 65 33 92 1 123 -27 28 -55 31
-100 11z m68 -64 c-2 -43 -44 -107 -84 -128 -28 -14 -33 -14 -47 0 -14 13 -13
19 2 60 20 53 78 108 109 104 18 -2 22 -9 20 -36z"/>
<path d="M8808 4873 c-9 -2 -19 -11 -22 -19 -11 -28 10 -47 55 -50 103 -8 225
-8 244 0 11 5 30 8 42 7 18 -2 21 1 16 14 -5 14 -2 16 15 10 13 -4 22 -2 22 4
0 6 -12 11 -27 12 -16 0 -37 2 -48 5 -52 11 -185 7 -200 -6 -12 -10 -18 -11
-23 -2 -10 15 -53 29 -74 25z"/>
<path d="M9226 4289 c8 -13 -19 -49 -36 -49 -8 0 -23 7 -33 14 -14 11 -24 11
-54 1 -43 -15 -47 -22 -34 -58 13 -33 24 -33 78 -5 38 20 46 21 75 9 18 -7 42
-13 53 -12 11 1 36 3 55 5 19 2 41 4 48 5 31 3 4 81 -28 81 -11 0 -20 3 -20 8
0 4 -25 7 -55 8 -30 0 -52 -3 -49 -7z"/>
<path d="M8963 3388 c-22 -11 -30 -37 -17 -51 4 -4 8 -21 9 -38 3 -38 12 -47
53 -55 24 -5 32 -3 32 7 0 8 14 23 30 34 38 25 35 49 -8 53 -26 3 -32 8 -32
27 0 33 -27 42 -67 23z"/>
<path d="M8775 3179 c-4 -5 -18 -9 -32 -9 -22 0 -24 -3 -18 -27 8 -36 35 -64
42 -45 3 8 18 -8 36 -39 19 -33 26 -54 18 -57 -18 -6 -13 -27 14 -50 32 -28
37 -28 53 5 17 39 15 50 -13 69 -14 9 -25 25 -25 36 0 11 -4 28 -10 38 -5 10
-7 26 -4 34 10 27 22 18 20 -16 -1 -39 27 -51 44 -19 13 24 -2 61 -25 61 -7 0
-15 5 -17 12 -5 15 -75 21 -83 7z"/>
<path d="M9155 2676 c-69 -33 -143 -104 -160 -152 -12 -35 -11 -41 7 -66 27
-38 61 -37 99 4 20 23 29 43 29 68 0 45 5 51 63 85 54 31 65 48 47 70 -17 20
-26 19 -85 -9z"/>
<path d="M3877 2017 c-24 -8 -51 -29 -77 -61 -22 -26 -40 -51 -40 -55 0 -4 7
-17 16 -30 41 -59 139 -59 199 -1 59 57 58 121 -1 146 -39 16 -46 16 -97 1z"/>
<path d="M2448 1959 c-10 -5 -18 -16 -18 -23 0 -7 -11 -18 -25 -24 -14 -7 -28
-18 -31 -25 -6 -16 58 -87 78 -87 20 0 38 21 38 42 0 11 11 30 25 44 27 27 32
53 13 72 -15 15 -57 15 -80 1z"/>
<path d="M6630 1901 c-8 -5 -41 -11 -72 -14 -32 -3 -62 -8 -68 -12 -17 -11
-12 -65 8 -71 9 -3 31 -11 48 -19 32 -13 64 -5 64 17 0 20 51 67 66 61 19 -7
18 12 -2 31 -17 18 -23 19 -44 7z"/>
<path d="M5850 1695 c0 -7 6 -15 13 -18 15 -5 13 -8 -48 -41 -47 -25 -50 -26
-62 -9 -12 16 -14 16 -30 -7 -9 -14 -29 -36 -43 -50 -18 -17 -27 -36 -28 -59
0 -18 -3 -35 -6 -38 -3 -3 4 -23 14 -44 11 -21 20 -49 20 -63 0 -27 20 -51 50
-61 11 -3 20 -11 20 -16 0 -15 139 -1 156 16 9 8 28 15 43 15 35 0 71 37 71
73 0 19 7 31 24 38 34 16 52 89 22 89 -24 0 -29 19 -13 44 14 20 14 26 0 54
-8 17 -26 43 -39 58 -21 22 -30 25 -62 20 -20 -4 -52 -2 -69 3 -26 7 -33 7
-33 -4z"/>
<path d="M2246 1683 c-34 -9 -79 -38 -98 -64 -25 -33 -15 -103 18 -134 41 -38
89 -59 120 -51 43 11 114 87 114 122 0 46 -40 107 -75 115 -17 4 -37 9 -45 12
-8 2 -24 2 -34 0z"/>
<path d="M9004 1265 c-24 -18 -56 -19 -72 -3 -10 10 -18 6 -40 -22 -14 -19
-43 -51 -64 -70 -45 -42 -47 -53 -13 -68 14 -6 25 -20 25 -30 0 -29 52 -72 87
-72 18 0 34 -4 37 -8 3 -5 18 -7 34 -4 35 5 62 -26 62 -71 0 -24 4 -28 22 -25
14 2 24 12 28 27 3 14 11 26 18 29 14 4 14 5 3 -36 -12 -39 0 -41 29 -5 11 15
36 37 55 50 41 28 45 58 14 94 -12 13 -32 45 -45 71 -13 26 -28 49 -34 53 -5
3 -10 16 -10 29 0 16 -13 28 -53 49 -63 32 -58 31 -83 12z"/>
<path d="M4235 731 c-125 -61 -167 -127 -106 -170 46 -33 102 -28 209 20 50
23 92 45 92 49 0 4 -22 7 -50 8 -37 1 -52 -3 -59 -16 -8 -14 -13 -15 -30 -5
-15 10 -22 9 -31 -2 -7 -8 -23 -15 -36 -15 -13 0 -27 -8 -33 -17 -8 -14 -14
-16 -27 -7 -25 15 -32 39 -9 30 27 -10 55 21 55 61 0 24 5 33 18 34 9 1 24 3
32 3 31 3 60 18 60 31 0 7 6 15 12 17 7 3 4 6 -7 9 -11 2 -51 -11 -90 -30z"/>
<path d="M8928 600 c-9 -6 -24 -30 -33 -54 -15 -39 -15 -47 -2 -72 8 -16 17
-41 21 -56 6 -28 39 -53 56 -43 5 3 18 31 30 62 24 65 21 106 -11 147 -22 28
-34 31 -61 16z"/>
<path d="M9211 386 c-21 -25 -25 -102 -7 -127 9 -13 16 -31 16 -41 0 -21 82
-63 105 -54 24 9 14 40 -14 44 -22 3 -23 6 -16 57 11 88 -44 169 -84 121z"/>
<path d="M8660 220 c-8 -5 -31 -10 -51 -10 -20 0 -39 -3 -42 -6 -11 -11 14
-46 29 -40 7 3 33 -4 56 -14 48 -22 118 -26 136 -8 17 17 15 53 -3 68 -19 16
-105 22 -125 10z"/>
</g>
</svg>
