<?xml version="1.0" standalone="no"?>
<!DOCTYPE svg PUBLIC "-//W3C//DTD SVG 20010904//EN"
 "http://www.w3.org/TR/2001/REC-SVG-20010904/DTD/svg10.dtd">
<svg version="1.0" xmlns="http://www.w3.org/2000/svg"
 width="763.000000pt" height="497.000000pt" viewBox="0 0 763.000000 497.000000"
 preserveAspectRatio="xMidYMid meet">
<metadata>
Created by potrace 1.16, written by Peter Selinger 2001-2019
</metadata>
<g transform="translate(0.000000,497.000000) scale(0.100000,-0.100000)"
fill="#000000" stroke="none">
<path d="M930 4957 c0 -5 -13 -6 -30 -2 -20 4 -30 3 -30 -5 0 -7 -8 -10 -20
-7 -11 3 -20 1 -20 -5 0 -5 -9 -6 -20 -3 -11 3 -20 3 -20 -2 0 -11 -60 -34
-71 -27 -5 3 -9 0 -9 -6 0 -7 -7 -10 -15 -6 -8 3 -15 1 -15 -5 0 -6 -4 -7 -10
-4 -5 3 -10 2 -10 -4 0 -9 -30 -23 -41 -18 -3 1 -13 -6 -23 -16 -10 -9 -22
-15 -27 -12 -5 4 -9 2 -9 -3 0 -10 -80 -63 -93 -62 -4 0 -21 -14 -37 -32 -17
-18 -30 -30 -30 -26 0 3 -34 -28 -75 -69 -41 -42 -75 -79 -75 -83 0 -5 -4 -10
-8 -12 -11 -4 -92 -129 -120 -183 -38 -76 -70 -164 -93 -257 -30 -125 -33
-370 -6 -498 40 -183 141 -378 268 -514 73 -78 76 -82 50 -84 -37 -3 -74 -33
-88 -73 -17 -49 -17 -1659 0 -1708 23 -66 50 -76 207 -76 125 0 141 2 167 21
49 36 52 60 53 454 l1 365 137 -399 c118 -345 141 -402 165 -420 22 -16 47
-21 125 -24 115 -5 172 8 204 46 14 17 76 178 158 411 l135 383 5 -380 c5
-367 6 -382 26 -409 32 -43 82 -55 216 -51 132 3 163 17 185 79 17 49 17 1659
0 1708 -18 52 -56 75 -126 75 -42 1 -57 4 -54 14 3 6 8 12 12 12 8 0 122 134
156 184 35 51 102 187 131 262 12 34 32 109 43 168 93 479 -154 975 -597 1201
-38 19 -74 35 -81 35 -6 0 -11 5 -11 11 0 5 -4 7 -10 4 -5 -3 -10 -1 -10 5 0
6 -4 8 -10 5 -5 -3 -10 -2 -10 3 0 6 -9 8 -20 5 -11 -3 -20 -1 -20 3 0 5 -17
10 -37 11 -20 1 -39 7 -43 13 -4 7 -16 9 -29 5 -11 -3 -21 -2 -21 3 0 4 -83 8
-185 8 -102 0 -185 -4 -185 -9z m-583 -519 c57 -114 103 -216 104 -229 1 -20
60 -99 89 -120 23 -18 92 -45 220 -89 30 -11 105 -38 165 -61 152 -58 171 -57
281 16 49 33 91 62 94 65 7 8 175 121 214 144 17 10 34 23 38 29 4 7 12 7 23
-3 19 -15 15 -19 -257 -198 -98 -64 -177 -120 -178 -123 0 -10 51 -30 61 -24
5 4 9 13 9 21 0 19 5 18 86 -10 63 -22 69 -27 66 -50 -2 -14 2 -26 8 -26 8 0
8 -6 0 -20 -6 -11 -15 -19 -20 -17 -5 1 -15 -6 -22 -17 -14 -18 -16 -18 -64 2
-27 11 -57 23 -68 26 -13 5 -17 12 -12 29 5 20 0 25 -28 34 -19 6 -45 8 -59 6
-17 -3 -29 1 -39 15 -7 11 -41 30 -73 42 -33 11 -143 50 -245 86 -204 73 -250
100 -297 182 -15 26 -33 52 -41 57 -7 6 -30 41 -51 78 -21 37 -41 64 -45 60
-4 -4 -12 0 -17 9 -8 15 -12 15 -49 -3 -44 -21 -50 -23 -50 -10 0 5 13 14 30
21 46 19 52 32 34 69 -9 18 -14 34 -13 35 7 6 64 35 70 36 3 0 19 -28 36 -62z
m370 -1500 c5 -7 106 -300 224 -650 118 -350 215 -635 216 -634 2 2 105 288
229 637 124 349 230 640 236 647 14 17 329 17 346 0 17 -17 17 -1689 0 -1706
-18 -18 -262 -17 -277 1 -8 10 -12 182 -13 580 l-3 567 -199 -565 c-110 -311
-207 -572 -216 -580 -22 -20 -232 -22 -247 -2 -5 6 -97 270 -204 584 l-194
573 -3 -572 c-1 -402 -5 -575 -13 -585 -15 -18 -259 -19 -277 -1 -17 17 -17
1689 0 1706 17 17 382 17 395 0z m734 -275 c-142 -404 -284 -799 -290 -805 -3
-4 -75 196 -159 444 -84 248 -151 452 -149 454 2 2 44 -3 93 -11 113 -19 217
-19 323 0 93 17 190 41 199 49 3 3 11 6 18 6 10 0 -1 -42 -35 -137z"/>
<path d="M350 2085 l0 -825 110 0 110 0 1 698 0 697 237 -698 237 -697 95 2
95 3 242 685 242 685 1 -687 0 -688 110 0 110 0 0 825 0 825 -143 0 -143 0
-227 -637 c-125 -351 -237 -668 -249 -704 l-21 -65 -236 703 -236 703 -167 0
-168 0 0 -825z"/>
<path d="M2884 4956 c-3 -8 72 -200 167 -427 94 -228 174 -422 177 -431 3 -14
-2 -18 -20 -18 -121 0 -278 -157 -278 -278 0 -133 182 -139 307 -10 22 24 50
61 62 83 40 76 34 102 -114 456 -99 238 -131 325 -122 332 7 4 50 6 97 4 137
-6 222 -57 282 -170 21 -37 23 -56 23 -174 0 -73 3 -133 6 -133 23 0 33 41 37
149 9 246 -53 329 -318 426 -148 54 -188 80 -235 151 -36 53 -61 67 -71 40z"/>
<path d="M6473 4246 l-463 -70 0 -443 0 -443 -27 7 c-157 44 -371 -81 -349
-203 4 -18 18 -42 31 -52 l25 -20 -100 -4 c-113 -4 -146 -20 -167 -79 -17 -49
-17 -1659 0 -1708 23 -66 50 -76 207 -76 157 0 184 10 207 76 16 45 18 1645 3
1701 -6 20 -22 46 -37 58 l-26 20 31 0 c46 0 139 38 178 73 66 57 64 41 64
531 l0 446 23 5 c12 2 189 29 392 60 204 30 385 58 403 61 l32 6 0 -386 c0
-379 0 -387 -19 -376 -33 17 -136 12 -197 -11 -115 -43 -191 -152 -150 -214
30 -46 64 -60 142 -60 63 1 82 6 140 35 47 24 77 48 96 75 l28 40 -2 511 -3
510 -462 -70z m-705 -1308 c17 -17 17 -1689 0 -1706 -17 -17 -259 -17 -276 0
-17 17 -17 1689 0 1706 8 8 53 12 138 12 85 0 130 -4 138 -12z"/>
<path d="M5520 2085 l0 -825 110 0 110 0 0 825 0 825 -110 0 -110 0 0 -825z"/>
<path d="M4356 3035 c-163 -34 -265 -83 -358 -172 -217 -210 -223 -535 -13
-732 105 -98 218 -149 469 -212 342 -85 396 -115 396 -217 0 -57 -34 -102
-105 -137 -57 -29 -66 -30 -185 -30 -119 0 -128 1 -190 31 -106 50 -135 89
-168 218 -24 90 -40 112 -96 127 -43 12 -182 5 -248 -12 -81 -21 -101 -94 -68
-238 62 -265 232 -435 508 -508 85 -23 117 -26 262 -26 152 -1 172 1 255 27
134 41 219 89 300 171 82 81 127 160 155 271 25 97 25 161 1 257 -35 136 -98
226 -212 307 -90 63 -186 99 -407 156 -336 86 -382 108 -382 183 0 48 37 96
89 118 49 21 213 28 281 14 100 -21 143 -68 174 -186 27 -105 74 -125 256
-106 121 12 148 26 169 91 12 38 12 53 -2 119 -52 243 -219 407 -477 471 -111
28 -309 35 -404 15z m404 -80 c205 -51 356 -193 405 -380 18 -72 19 -139 2
-153 -7 -6 -69 -14 -137 -18 -143 -8 -140 -9 -159 71 -19 78 -59 142 -109 175
-91 60 -265 75 -402 34 -108 -32 -177 -137 -151 -226 27 -87 74 -111 394 -194
114 -29 241 -67 281 -83 145 -56 262 -163 308 -283 26 -67 35 -203 19 -280
-38 -181 -180 -327 -386 -395 -74 -25 -93 -27 -255 -27 -207 -1 -287 14 -411
76 -97 48 -199 145 -247 235 -58 109 -92 294 -59 321 7 6 67 14 133 18 96 5
121 4 130 -7 6 -8 19 -45 28 -83 32 -131 77 -189 191 -243 96 -45 209 -62 307
-45 80 14 170 51 206 85 63 59 84 166 48 241 -36 72 -119 109 -406 181 -184
46 -315 94 -383 139 -75 50 -143 125 -175 194 -25 52 -27 68 -27 177 0 114 2
123 32 188 36 76 124 175 191 214 57 34 134 62 212 79 85 18 330 12 420 -11z"/>
<path d="M4360 2926 c-192 -41 -314 -128 -383 -274 -29 -61 -32 -75 -32 -167
0 -87 4 -107 26 -156 51 -109 147 -188 292 -241 45 -16 165 -52 267 -78 224
-59 288 -82 342 -123 60 -47 83 -97 83 -182 -1 -80 -22 -130 -77 -181 -124
-118 -392 -138 -577 -44 -111 56 -173 139 -202 273 -14 65 -6 62 -142 51 -75
-7 -77 -8 -77 -34 0 -49 39 -180 72 -242 67 -126 201 -225 365 -270 64 -17
107 -21 243 -22 153 0 171 2 245 27 156 52 263 137 323 257 102 204 47 429
-136 554 -82 56 -176 91 -392 145 -311 79 -383 112 -421 194 -47 104 4 237
113 293 82 42 258 55 379 28 127 -29 212 -114 240 -241 l13 -55 105 7 c58 4
108 9 110 11 11 11 -22 137 -53 199 -64 130 -185 220 -346 260 -90 22 -298 28
-380 11z"/>
<path d="M6689 3041 c-314 -58 -522 -208 -645 -466 -146 -305 -134 -710 28
-1029 44 -86 66 -116 147 -197 81 -81 109 -103 181 -137 140 -66 238 -86 420
-86 140 0 164 3 245 28 131 40 216 89 309 177 99 93 165 199 213 339 30 87 33
104 24 138 -6 21 -20 47 -30 56 -11 10 -79 33 -151 51 -187 47 -217 35 -259
-103 -26 -85 -86 -179 -137 -214 -77 -53 -111 -62 -229 -63 -103 0 -114 2
-176 31 -165 78 -234 211 -246 474 -13 291 65 479 236 563 63 31 70 32 186 32
115 0 122 -1 175 -30 64 -35 119 -103 150 -184 45 -119 86 -133 260 -92 132
31 162 49 179 107 6 23 3 49 -14 101 -37 117 -89 199 -189 298 -103 102 -185
150 -322 186 -88 23 -278 34 -355 20z m356 -85 c114 -32 184 -74 280 -171 95
-95 151 -185 177 -288 11 -43 10 -49 -7 -66 -20 -18 -185 -61 -236 -61 -31 0
-50 21 -73 80 -22 57 -67 128 -103 162 -77 73 -220 110 -350 90 -208 -33 -338
-159 -395 -388 -31 -123 -31 -341 1 -459 60 -226 170 -338 377 -383 129 -27
277 8 378 92 52 42 103 128 136 224 14 41 33 80 42 86 13 8 47 3 135 -18 65
-16 124 -33 131 -39 19 -15 14 -60 -18 -148 -41 -113 -107 -214 -190 -292 -84
-79 -148 -118 -255 -154 -75 -25 -92 -27 -255 -27 -198 0 -263 11 -390 71
-109 52 -239 184 -303 309 -88 173 -124 359 -114 588 7 156 32 267 86 380 67
143 174 260 303 335 61 34 182 77 260 90 79 15 312 6 383 -13z"/>
<path d="M6682 2929 c-190 -33 -357 -129 -459 -264 -206 -270 -230 -729 -56
-1069 64 -124 175 -238 283 -289 123 -58 193 -71 370 -71 141 0 162 3 235 27
44 15 103 40 132 57 126 72 235 210 293 369 17 45 30 85 30 89 0 5 -44 19 -97
31 -54 13 -103 26 -109 28 -7 3 -20 -24 -32 -64 -43 -140 -132 -251 -247 -304
-246 -116 -557 -16 -670 215 -61 124 -78 208 -79 396 0 139 3 179 21 252 56
221 190 363 380 403 259 55 464 -44 549 -265 9 -25 20 -49 25 -54 6 -6 154 21
206 39 9 3 7 19 -7 60 -32 93 -79 166 -159 245 -82 81 -160 126 -266 155 -71
20 -268 28 -343 14z"/>
<path d="M2271 3007 c-19 -6 -44 -25 -55 -40 -21 -28 -21 -39 -24 -560 -3
-553 2 -661 38 -802 46 -181 154 -322 304 -395 134 -66 215 -83 401 -84 169 0
254 14 371 64 177 76 303 237 355 455 21 86 22 117 26 670 5 631 4 639 -50
679 -26 19 -42 21 -167 21 -125 0 -141 -2 -167 -21 -51 -38 -52 -49 -52 -611
-1 -314 -5 -553 -12 -600 -24 -176 -83 -230 -263 -240 -159 -10 -261 29 -305
115 -35 68 -41 173 -42 720 0 567 -1 578 -52 616 -25 18 -45 21 -150 23 -78 2
-134 -2 -156 -10z m277 -70 c7 -8 12 -202 15 -587 3 -472 6 -585 19 -630 32
-120 85 -181 188 -222 43 -17 77 -22 160 -22 221 -1 318 64 367 245 14 56 17
137 20 634 3 381 8 574 15 582 16 20 261 18 277 -1 10 -11 11 -160 8 -618 -4
-520 -6 -613 -21 -673 -60 -250 -231 -404 -496 -446 -95 -15 -324 -6 -405 15
-110 30 -196 80 -267 155 -98 103 -137 198 -158 381 -15 129 -13 1173 2 1188
17 17 262 17 276 -1z"/>
<path d="M2300 2383 c0 -525 6 -643 35 -758 38 -145 127 -260 249 -320 98 -48
172 -65 306 -72 191 -9 333 23 452 103 79 54 128 111 168 196 61 131 62 146
67 791 l4 587 -110 0 -110 0 -3 -572 c-4 -532 -5 -578 -24 -643 -54 -193 -159
-260 -404 -259 -105 0 -134 4 -181 22 -69 27 -142 90 -171 146 -50 97 -51 113
-55 729 l-4 577 -110 0 -109 0 0 -527z"/>
<path d="M817 1253 c-3 -5 45 -182 107 -394 l112 -387 -56 -4 c-102 -7 -254
-100 -296 -179 -8 -16 -14 -49 -14 -74 0 -36 6 -51 26 -72 24 -24 30 -25 97
-21 88 6 164 40 237 105 60 53 80 89 80 138 0 19 -45 192 -101 383 -154 534
-147 512 -169 512 -10 0 -21 -3 -23 -7z m223 -846 c0 -58 -187 -228 -267 -243
-30 -6 -33 -4 -33 17 0 36 43 93 117 154 107 88 183 118 183 72z"/>
<path d="M3824 1204 c-77 -51 -126 -125 -154 -234 -10 -35 -24 -68 -31 -71 -8
-4 -54 -20 -104 -34 -204 -61 -275 -134 -275 -285 0 -75 14 -121 56 -182 30
-43 112 -101 167 -118 42 -13 43 -16 23 -109 -16 -71 -39 -109 -80 -129 -38
-19 -101 -6 -138 27 l-31 27 37 -4 c53 -6 86 19 86 64 0 48 -15 73 -56 90 -40
17 -79 10 -111 -19 -18 -16 -23 -31 -23 -68 0 -40 6 -55 32 -85 18 -21 51 -45
73 -55 54 -25 141 -25 181 0 36 22 50 53 73 158 l16 77 60 11 c34 6 77 21 97
33 43 27 78 92 78 145 0 74 -57 161 -122 188 -29 12 -30 14 -24 61 4 26 9 54
11 61 3 6 39 27 81 46 85 38 151 96 185 162 17 33 24 67 27 131 6 126 2 138
-52 138 -30 0 -55 -8 -82 -26z m90 -116 c16 -26 -15 -81 -66 -116 -47 -31
-135 -68 -144 -59 -15 15 25 96 72 145 47 48 55 53 89 50 22 -2 42 -10 49 -20z
m-294 -340 c0 -7 -3 -29 -6 -50 -6 -34 -9 -36 -52 -43 -102 -15 -152 -64 -152
-148 0 -45 28 -99 62 -121 28 -17 32 0 8 32 -29 39 -28 77 0 107 22 24 85 44
97 32 7 -7 -37 -228 -48 -241 -25 -28 -164 67 -198 136 -56 117 8 224 166 277
100 33 123 37 123 19z m42 -235 c58 -63 64 -115 18 -167 -28 -32 -83 -56 -97
-42 -7 7 38 236 46 236 4 0 19 -12 33 -27z"/>
</g>
</svg>
