<?xml version="1.0" standalone="no"?>
<!DOCTYPE svg PUBLIC "-//W3C//DTD SVG 20010904//EN"
 "http://www.w3.org/TR/2001/REC-SVG-20010904/DTD/svg10.dtd">
<svg version="1.0" xmlns="http://www.w3.org/2000/svg"
 width="590.000000pt" height="800.000000pt" viewBox="0 0 590.000000 800.000000"
 preserveAspectRatio="xMidYMid meet">
<metadata>
Created by potrace 1.16, written by Peter Selinger 2001-2019
</metadata>
<g transform="translate(0.000000,800.000000) scale(0.100000,-0.100000)"
fill="#000000" stroke="none">
<path d="M2830 7311 c-9 -22 -10 -54 -5 -108 4 -43 12 -213 19 -378 11 -293
12 -301 37 -350 14 -27 32 -68 39 -90 7 -22 15 -35 17 -30 2 7 25 9 62 5 32
-3 92 -4 133 -2 l75 4 27 67 c15 36 32 81 38 99 11 31 31 42 43 22 3 -5 16
-10 27 -10 21 0 21 0 -2 25 -13 14 -32 25 -42 25 -16 0 -18 9 -18 73 0 59 5
84 25 123 14 27 25 56 25 65 0 16 47 159 54 167 10 9 64 -39 76 -68 11 -26 9
-35 -10 -72 -12 -24 -31 -51 -42 -62 -29 -27 -12 -33 20 -7 15 12 40 29 57 39
16 9 47 33 67 53 33 32 38 42 38 83 0 57 -10 77 -65 136 -65 71 -78 95 -65
120 6 11 8 25 5 30 -16 26 -34 1 -64 -91 -18 -56 -51 -150 -72 -208 l-38 -106
2 98 c1 53 6 97 11 96 12 -1 49 62 41 70 -4 3 -16 -5 -27 -19 l-20 -25 7 112
7 113 -26 10 c-18 7 -59 6 -128 -1 -71 -8 -117 -8 -157 -1 -31 6 -79 14 -107
17 -50 6 -51 6 -64 -24z m632 -205 c52 -22 98 -69 98 -100 0 -37 -23 -87 -51
-113 l-24 -22 3 44 c3 35 -2 55 -24 92 -44 76 -53 96 -48 105 7 10 6 10 46 -6z"/>
<path d="M1744 7108 c-54 -61 -108 -121 -119 -132 -17 -18 -203 -224 -224
-249 -4 -4 -32 17 -62 46 -71 69 -125 85 -205 62 -71 -21 -82 -41 -53 -101 31
-66 112 -118 183 -118 84 -1 119 22 246 166 63 71 127 142 141 156 14 15 60
66 104 114 l78 88 76 -42 c42 -23 94 -52 116 -65 22 -12 95 -53 162 -90 68
-37 123 -72 123 -76 0 -8 -82 -101 -281 -318 l-88 -96 -54 52 c-82 79 -177 94
-255 39 -30 -21 -24 -61 14 -107 96 -115 231 -122 325 -19 24 26 62 68 84 92
22 25 111 123 198 219 86 96 157 177 157 181 0 3 -53 36 -117 72 -320 178
-431 238 -440 238 -6 0 -55 -50 -109 -112z"/>
<path d="M3010 6331 l-85 -6 -3 -120 c-2 -66 -5 -181 -7 -255 -2 -74 -6 -155
-9 -180 -3 -25 -2 -63 2 -85 14 -72 9 -76 -61 -47 -100 40 -156 52 -257 52
-159 0 -276 -41 -375 -132 -81 -74 -118 -155 -123 -271 -5 -100 8 -179 43
-248 l22 -45 -31 -18 c-149 -87 -214 -116 -262 -116 -58 0 -129 32 -156 70 -9
14 -20 49 -24 79 l-7 54 39 -27 c69 -47 159 -24 190 49 19 46 18 68 -7 116
-51 101 -199 83 -256 -31 -18 -34 -23 -61 -23 -121 0 -68 4 -85 33 -140 27
-54 40 -67 87 -92 48 -25 63 -28 120 -24 70 4 108 20 250 106 l84 51 31 -29
c42 -41 111 -75 182 -90 85 -18 155 -2 228 51 108 81 152 194 123 321 l-15 67
51 32 c28 18 62 38 76 44 l25 11 -3 -149 c-3 -125 -1 -148 12 -148 12 0 15
-19 18 -91 2 -50 0 -93 -4 -96 -5 -2 -8 37 -8 88 0 61 -3 90 -10 83 -5 -5 -12
-111 -16 -240 l-6 -231 58 -2 c71 -2 85 -11 21 -12 -57 -2 -64 -3 -70 -9 -3
-3 -8 -92 -12 -198 -6 -179 -5 -193 12 -200 15 -6 18 -19 18 -73 0 -57 -2 -65
-17 -61 -12 3 -19 -4 -23 -21 -10 -38 -2 -82 15 -83 8 -1 21 -2 28 -3 10 -1
10 -4 0 -15 -8 -9 -17 -11 -23 -5 -12 12 -275 12 -275 0 0 -5 -26 -12 -57 -16
-84 -10 -206 -41 -252 -65 -22 -11 -45 -20 -51 -20 -9 0 -150 89 -173 110 -4
4 6 30 23 57 37 60 42 116 13 165 -25 43 -42 45 -81 11 -36 -32 -62 -88 -62
-132 0 -61 27 -93 136 -165 l104 -69 -37 -41 c-21 -22 -42 -40 -48 -38 -19 6
-57 47 -76 82 -17 33 -18 33 -19 10 0 -14 9 -40 20 -58 11 -18 20 -42 20 -53
0 -11 5 -29 11 -40 7 -15 6 -31 -5 -62 -36 -101 -29 -264 20 -522 51 -263 45
-325 -50 -508 l-61 -119 -7 39 c-10 59 -24 89 -63 131 -44 50 -107 77 -221 97
-106 18 -191 41 -220 60 -12 7 -27 34 -34 60 -12 43 -15 46 -39 40 -14 -4 -27
-8 -29 -9 -1 -2 17 -59 42 -127 24 -68 97 -272 161 -454 65 -181 120 -335 122
-341 3 -8 -16 -13 -54 -16 -117 -8 -230 -86 -252 -173 -19 -74 -14 -131 11
-149 28 -20 109 -21 173 -1 27 8 50 13 51 12 2 -1 -2 -29 -8 -62 -13 -76 -20
-260 -8 -225 6 20 8 14 9 -30 1 -30 8 -86 17 -125 9 -38 17 -86 19 -105 l3
-35 -57 3 c-73 5 -124 -16 -146 -58 -26 -50 -17 -73 34 -89 66 -21 148 1 176
46 11 18 22 32 25 33 3 0 16 -26 28 -58 26 -64 95 -164 138 -202 94 -83 159
-128 240 -167 87 -41 92 -45 99 -81 12 -63 32 -100 65 -117 25 -13 82 -17 320
-22 l290 -5 0 21 c0 21 -2 21 -260 21 l-260 0 2 39 c3 44 -11 42 145 16 40 -7
74 -8 75 -4 2 5 84 4 183 -2 l180 -11 108 -51 c59 -28 106 -56 104 -61 -2 -5
-15 -19 -29 -29 -35 -26 -82 -17 -133 27 -45 39 -56 40 -28 2 28 -39 96 -69
141 -62 20 3 72 9 115 12 42 4 77 10 77 15 0 5 -64 40 -142 78 l-143 70 86 1
c76 0 248 11 394 25 39 3 44 2 25 -5 -20 -8 -16 -9 22 -6 43 3 47 1 53 -22 11
-44 63 -109 96 -121 41 -14 85 -14 111 0 12 6 119 85 239 176 153 114 216 168
212 178 -3 8 -7 15 -9 15 -3 0 -97 -70 -210 -155 -113 -85 -210 -155 -215
-155 -5 0 -9 7 -9 15 0 9 -22 38 -49 65 l-49 49 42 7 c104 17 325 106 326 131
0 7 9 17 21 23 11 7 38 28 60 47 22 20 42 33 45 30 9 -9 66 62 118 146 85 138
130 282 148 477 17 178 14 283 -11 379 -29 111 -173 468 -224 556 -22 39 -58
102 -78 140 -21 39 -47 80 -58 91 -12 12 -42 64 -68 115 l-48 94 1 130 c0 110
5 153 35 285 31 142 34 168 33 310 l-1 155 -35 63 c-78 141 -189 213 -380 246
-44 8 -83 19 -87 24 -3 5 -72 11 -154 13 l-148 4 3 35 3 35 80 12 c135 20 145
23 145 39 0 10 -6 13 -17 10 -10 -3 -36 -8 -58 -11 -22 -3 -64 -10 -94 -15
-70 -13 -71 -13 -71 5 0 18 -16 20 -23 3 -3 -7 -6 -3 -6 9 -1 16 3 21 14 17
12 -5 15 4 15 50 0 40 -4 56 -12 55 -30 -4 -101 2 -95 7 3 4 30 7 59 8 58 1
54 -6 50 82 -2 40 -21 37 -23 -4 -1 -23 -3 -22 -8 8 -8 42 -3 69 10 49 4 -8
10 -11 12 -9 9 10 13 121 5 126 -5 3 -4 12 2 19 7 8 9 19 5 25 -4 6 -6 67 -6
136 0 94 -3 124 -12 122 -6 -2 -13 2 -14 7 -2 6 3 10 10 10 9 0 12 39 12 160
l0 160 -45 4 -45 5 45 5 45 6 1 95 c2 162 -1 150 40 150 175 0 366 82 462 199
89 109 40 183 -132 198 -97 8 -251 -22 -366 -71 -13 -5 -15 9 -12 103 4 108 3
109 -20 114 -23 4 -23 4 0 6 21 1 22 4 22 104 0 61 -4 107 -11 114 -8 8 -8 13
0 17 7 5 11 50 11 122 l0 114 -42 0 c-24 0 -52 2 -63 3 -11 2 -58 1 -105 -2z
m475 -745 c52 -16 95 -50 95 -76 0 -25 -46 -67 -87 -81 -44 -14 -148 -7 -220
16 l-53 16 0 48 0 48 68 21 c80 25 133 27 197 8z m-885 -42 c52 -18 249 -114
256 -125 4 -7 -129 -89 -145 -89 -4 0 -16 12 -28 28 -35 48 -106 77 -189 77
-65 0 -76 -3 -116 -31 -65 -47 -100 -103 -106 -167 -6 -71 10 -79 37 -18 35
83 116 134 184 117 34 -8 91 -49 95 -68 4 -20 -341 -233 -364 -224 -25 9 -57
96 -62 166 -4 66 9 124 44 192 22 43 94 118 124 131 96 39 176 43 270 11z m35
-373 c23 -106 -97 -221 -231 -221 -82 0 -162 39 -117 58 16 6 77 40 213 119
25 14 61 36 80 49 45 30 47 29 55 -5z m203 -1303 c6 -9 8 -110 3 -297 -6 -264
-7 -285 -25 -295 -174 -103 -267 -311 -227 -509 28 -130 124 -263 232 -318 22
-11 39 -23 39 -27 0 -4 8 -8 18 -9 9 0 41 -6 71 -12 74 -15 159 -14 217 4 27
8 49 15 50 15 1 0 4 -45 7 -99 8 -110 32 -202 67 -251 59 -83 232 -100 455
-43 68 17 89 32 116 84 91 179 -23 554 -286 940 -93 137 -192 265 -232 301
-11 10 -36 23 -55 30 l-37 13 -5 238 -6 237 79 0 c182 0 377 -34 487 -84 71
-33 150 -108 185 -177 62 -123 62 -253 3 -544 -45 -217 -49 -326 -16 -421 12
-34 65 -148 117 -254 117 -234 227 -469 267 -568 48 -119 69 -218 80 -376 13
-175 4 -255 -42 -401 -42 -130 -66 -175 -94 -175 -11 0 -27 -4 -34 -9 -11 -7
-11 -9 2 -14 23 -9 20 -44 -4 -50 -11 -3 -20 -14 -20 -24 0 -20 -18 -43 -33
-43 -5 0 -6 11 -3 24 3 14 2 27 -4 31 -14 9 -61 -6 -57 -19 2 -6 0 -19 -5 -28
-7 -14 -4 -18 12 -18 11 0 20 -4 20 -10 0 -5 -4 -10 -10 -10 -5 0 -10 -8 -10
-17 0 -19 -38 -63 -55 -63 -6 0 -18 -9 -28 -20 -20 -24 -37 -26 -37 -5 0 10
-10 15 -27 16 -25 0 -26 1 -8 9 18 7 17 8 -10 15 -26 7 -27 9 -10 16 18 6 19
7 3 14 -25 10 -25 83 -1 92 15 6 15 7 -3 14 -13 5 -3 8 31 9 l50 2 -44 9 c-49
9 -65 19 -33 19 12 0 22 5 22 10 0 6 -9 10 -20 10 -11 0 -20 4 -20 9 0 5 9 7
20 4 11 -3 20 0 20 6 0 6 -9 11 -19 11 -11 0 -22 6 -24 13 -3 6 -6 -1 -6 -18
-1 -16 -7 -42 -15 -57 -11 -20 -11 -28 -3 -32 7 -2 2 -5 -10 -5 -13 -1 -23 2
-23 7 -5 91 -9 121 -18 137 -10 18 -12 16 -12 -15 -1 -19 -4 -29 -7 -22 -10
24 -22 1 -12 -25 13 -34 3 -41 -21 -15 -22 23 -27 63 -8 60 7 -2 14 6 16 17 3
19 -2 20 -70 18 -44 -1 -61 1 -44 5 16 4 31 13 34 20 5 15 -3 15 -29 2 -34
-19 -20 -1 21 26 22 15 40 31 40 35 0 12 -51 11 -70 -1 -13 -8 -12 -10 3 -10
15 0 16 -2 5 -14 -16 -17 -28 -11 -28 15 0 11 10 24 23 29 22 9 22 9 0 9 -25
1 -25 21 1 50 17 18 17 19 -2 25 -17 6 -21 18 -25 84 -6 97 -10 115 -22 124
-6 5 -6 11 2 19 9 9 9 18 2 31 -6 10 -9 26 -8 36 1 9 1 28 0 42 -3 54 -22 -9
-23 -77 0 -45 -6 -74 -15 -85 -9 -10 -13 -25 -9 -34 4 -10 -1 -25 -11 -36 -10
-11 -18 -29 -18 -41 0 -32 -37 -29 -46 3 l-6 25 -11 -25 c-6 -14 -13 -33 -16
-44 -5 -15 -9 -16 -21 -6 -8 7 -12 16 -9 21 3 5 0 9 -6 9 -6 0 -9 4 -6 9 3 5
-1 11 -9 15 -20 7 -19 33 1 44 13 7 14 15 5 48 -6 21 -11 51 -11 67 0 18 -5
27 -16 27 -8 0 -12 5 -9 10 9 14 -1 12 -35 -5 l-30 -16 0 -137 c0 -164 -4
-186 -31 -171 -14 7 -19 19 -17 42 1 18 -2 38 -6 45 -18 29 -28 165 -15 199
12 31 2 44 -15 21 -11 -15 -14 -15 -36 2 -21 16 -22 20 -11 48 14 33 6 86 -9
61 -5 -7 -9 24 -9 74 l0 87 47 35 c50 37 103 57 113 43 3 -5 13 2 23 16 16 25
84 51 151 58 28 3 30 5 28 43 -4 54 -21 102 -39 109 -8 3 -148 6 -310 7 -162
1 -297 5 -300 10 -3 5 -14 4 -25 -2 -28 -14 -59 -2 -60 24 -1 20 -2 20 -8 -3
l-7 -25 -163 -5 c-162 -5 -164 -5 -183 -31 -12 -16 -20 -44 -21 -74 l-2 -49
80 -16 c44 -8 100 -27 125 -42 81 -47 227 -108 287 -119 32 -6 62 -14 66 -18
4 -4 39 1 77 12 67 20 70 20 90 2 17 -15 18 -20 5 -29 -14 -11 -23 -146 -24
-394 -1 -97 -2 -103 -20 -97 -14 4 -21 0 -26 -15 -4 -13 -13 -20 -23 -18 -13
3 -18 17 -20 68 -2 35 -8 68 -14 71 -9 6 -9 18 0 47 7 22 12 49 12 61 0 14 9
25 25 31 14 5 25 14 25 20 0 6 -4 9 -10 5 -11 -7 -40 46 -40 74 0 10 12 29 28
40 l27 20 -32 1 c-21 0 -38 8 -51 25 l-20 25 -6 -288 c-4 -158 -9 -338 -11
-400 -4 -80 -2 -112 6 -112 8 0 9 -4 0 -13 -6 -8 -8 -17 -4 -20 12 -13 -29
-85 -55 -97 -19 -8 -23 -14 -13 -20 11 -6 9 -10 -5 -19 -18 -10 -18 -12 -2
-24 10 -8 15 -16 13 -19 -3 -3 4 -31 15 -63 30 -88 27 -90 -159 -78 -138 9
-186 19 -154 30 7 2 10 10 7 17 -3 7 4 20 15 30 16 14 29 17 58 11 36 -6 37
-6 22 12 -22 25 -34 63 -19 63 6 0 10 6 7 13 -2 6 3 17 12 24 26 19 3 68 -32
68 -24 1 -27 -3 -27 -30 0 -16 -5 -37 -10 -45 -7 -11 -10 -5 -10 25 0 22 -3
85 -7 140 -3 55 -7 196 -7 312 -1 117 -4 213 -8 213 -5 0 -15 0 -23 0 -9 0
-15 -9 -14 -22 0 -13 3 -17 6 -10 2 6 9 12 14 12 15 0 10 -27 -8 -46 -13 -12
-17 -31 -15 -75 2 -50 -1 -60 -20 -73 -18 -13 -19 -16 -5 -16 21 0 21 3 2 -51
-14 -39 -14 -45 0 -55 20 -15 19 -41 -2 -53 -13 -7 -17 -20 -14 -49 1 -22 -5
-63 -13 -92 -9 -29 -13 -56 -11 -61 3 -4 1 -10 -4 -13 -6 -4 -6 -19 0 -39 11
-40 12 -37 -6 -37 -8 0 -24 9 -36 21 -15 15 -28 19 -50 14 -18 -4 -29 -3 -29
4 0 14 45 25 62 15 7 -4 5 2 -5 13 -13 15 -15 26 -8 44 l10 24 2 -25 c1 -24 2
-23 9 5 11 45 11 85 0 85 -5 0 -10 -7 -10 -15 0 -8 -6 -15 -13 -15 -7 0 -13
-10 -12 -22 0 -13 -4 -24 -10 -25 -6 -2 -10 40 -11 109 -1 71 -5 113 -12 116
-6 2 -8 11 -5 20 6 14 4 15 -9 4 -13 -10 -17 -10 -22 4 -11 28 -6 75 9 90 11
11 12 20 5 34 -13 24 -8 59 11 72 11 7 9 9 -9 5 -21 -5 -22 -3 -20 51 1 32 4
62 8 67 3 6 1 30 -5 55 -12 44 -12 45 -18 15 -4 -16 -8 -65 -9 -107 -2 -43 -7
-78 -11 -78 -4 0 -4 -8 2 -17 5 -10 6 -58 2 -108 -5 -75 -10 -94 -28 -113 -13
-12 -23 -32 -24 -44 0 -13 -3 -17 -6 -10 -7 17 -23 5 -23 -19 0 -10 -4 -19
-10 -19 -5 0 -10 11 -10 25 0 14 -5 25 -11 25 -6 0 -9 7 -6 15 5 11 0 13 -23
8 -28 -5 -30 -3 -30 23 0 22 -3 26 -10 14 -7 -11 -10 -5 -11 25 -2 34 -3 36
-6 10 -3 -16 -9 -35 -14 -42 -7 -7 -5 -13 3 -16 8 -4 7 -6 -4 -6 -22 -1 -24
-19 -3 -27 20 -8 19 -24 -1 -24 -13 0 -14 -3 -4 -15 15 -18 4 -36 -17 -28 -11
4 -14 3 -9 -5 4 -7 2 -12 -3 -12 -6 0 -14 18 -17 41 -4 22 -13 47 -22 55 -8 8
-13 16 -11 18 2 2 13 9 24 15 11 7 13 10 4 8 -8 -3 -21 4 -27 14 -7 10 -23 19
-37 19 -17 0 -23 4 -19 14 7 18 -22 29 -69 27 -35 -2 -38 -1 -35 21 3 20 8 23
37 20 22 -2 31 0 26 7 -3 6 -17 11 -31 11 -14 0 -23 4 -19 9 3 5 -4 13 -16 16
-15 5 -18 10 -9 15 8 5 7 9 -5 14 -23 9 -44 -10 -38 -34 4 -15 1 -18 -16 -13
-12 3 -24 16 -27 32 -3 14 -7 31 -9 38 -2 7 0 15 5 18 6 4 10 15 10 25 0 10 6
21 13 23 6 3 -5 6 -25 6 -27 1 -38 5 -38 16 0 11 7 14 25 9 15 -4 25 -2 25 5
0 6 -12 11 -27 12 l-28 1 25 8 c22 6 23 8 7 15 -13 5 -15 11 -7 20 8 9 7 14
-2 18 -7 3 -2 6 12 7 l25 2 -25 8 c-21 7 -22 8 -5 9 20 2 20 2 1 13 -18 10
-18 12 -2 24 17 12 16 13 -3 24 -22 11 -29 40 -10 40 5 0 7 5 4 10 -3 5 -20
10 -36 10 -17 0 -39 5 -50 10 -16 9 -19 7 -19 -10 0 -11 -7 -20 -15 -20 -15 0
-20 41 -15 130 7 139 138 450 353 838 130 235 132 240 132 392 -1 102 -6 149
-30 255 -27 115 -30 148 -30 290 0 203 15 246 114 346 55 55 79 71 147 97 111
43 157 50 470 71 12 0 26 -5 32 -11z m-5 -615 c4 -3 1 -13 -6 -21 -10 -13 -9
-14 11 -3 30 16 28 3 -5 -32 l-28 -30 32 23 c59 42 49 10 -14 -46 -44 -39 -72
-74 -95 -122 -30 -60 -33 -75 -33 -157 0 -76 4 -98 26 -146 34 -73 90 -134
156 -171 49 -28 67 -48 43 -48 -22 0 -95 43 -140 83 -39 35 -38 33 7 -10 49
-48 70 -83 41 -68 -7 4 -2 -2 11 -13 54 -44 244 -77 292 -51 13 7 31 14 39 15
8 1 27 5 43 9 22 6 26 4 21 -8 -20 -53 -219 -66 -344 -22 -141 50 -245 167
-285 322 -45 171 23 366 164 469 49 36 54 38 64 27z m377 -38 c16 -8 36 -12
44 -9 22 8 75 -34 135 -106 l49 -59 -3 -70 c-1 -39 2 -68 6 -65 5 3 9 15 10
27 0 21 1 21 9 2 13 -31 11 -114 -4 -170 -19 -71 -121 -225 -149 -225 -5 0
-22 -9 -39 -21 -16 -12 -31 -19 -34 -16 -3 3 15 19 41 37 54 37 112 108 140
170 11 25 23 47 27 50 4 3 9 35 11 70 3 36 2 52 0 35 -3 -16 -8 -34 -13 -40
-4 -5 -11 -28 -15 -49 -18 -102 -106 -211 -210 -261 -48 -23 -77 -30 -143 -33
-83 -4 -132 2 -132 16 0 5 44 8 98 8 87 -1 104 2 160 28 139 64 220 203 210
359 -7 94 -37 157 -108 228 -42 41 -73 61 -121 79 -35 13 -68 27 -74 33 -15
14 71 -1 105 -18z m-1407 -609 c21 -8 47 -22 57 -31 29 -26 59 -94 71 -160 9
-49 8 -64 -7 -96 l-17 -38 -20 40 c-26 52 -86 99 -172 134 -110 44 -176 78
-187 98 -12 24 -11 25 53 41 105 28 168 31 222 12z m-28 -229 c48 -27 81 -74
90 -126 6 -34 -1 -54 -58 -167 -40 -80 -67 -123 -71 -114 -3 8 -14 40 -25 70
-11 30 -42 120 -70 199 -28 79 -51 145 -51 147 0 6 39 12 90 13 40 0 66 -5 95
-22z m1260 -496 c10 -2 25 5 33 15 10 14 16 15 19 7 7 -19 50 -16 58 5 6 16 7
16 16 -1 11 -19 47 -15 61 7 6 8 8 7 8 -1 0 -8 13 -13 29 -13 17 0 33 -4 36
-10 7 -12 -19 -17 -120 -24 -59 -5 -83 -11 -92 -23 -12 -16 -13 -16 -13 0 0
29 -51 19 -63 -13 -4 -12 -6 -11 -6 3 -1 12 -9 17 -27 17 -15 0 -33 -8 -40
-17 -11 -16 -13 -16 -14 -2 0 22 -60 13 -61 -10 -1 -14 -2 -13 -6 2 -3 12 -15
17 -39 17 -44 0 -44 16 1 24 29 6 35 11 36 34 l2 27 4 -27 c4 -23 9 -28 34
-28 24 0 29 4 29 26 0 14 4 23 10 19 6 -3 10 -15 10 -25 0 -29 54 -11 59 21
l4 24 6 -25 c4 -14 15 -27 26 -29z m747 -1304 c22 -9 40 -12 43 -6 13 21 20 6
20 -41 l0 -51 -68 -21 c-51 -15 -72 -17 -80 -9 -8 8 -7 11 6 11 11 0 17 8 17
24 0 14 10 32 22 40 16 12 18 16 7 16 -26 0 -52 36 -44 60 6 19 9 20 23 7 10
-8 34 -22 54 -30z"/>
<path d="M4023 5964 c-39 -17 -15 -166 33 -203 45 -36 84 -36 232 -2 75 18
199 46 275 63 116 27 137 35 137 51 0 13 -5 17 -17 13 -18 -5 -74 -17 -333
-76 -74 -17 -143 -33 -152 -36 -15 -4 -18 1 -18 33 0 48 -31 117 -62 136 -26
17 -77 28 -95 21z"/>
<path d="M4204 4916 c-45 -20 -101 -81 -120 -133 -15 -39 -16 -54 -6 -100 12
-58 8 -53 171 -233 47 -52 109 -119 136 -150 28 -30 52 -57 55 -60 3 -3 27
-29 53 -58 l48 -53 -44 -62 c-24 -34 -73 -105 -109 -157 -36 -52 -88 -128
-115 -167 l-50 -72 -38 42 c-21 23 -58 65 -84 92 -63 69 -193 213 -229 254
l-30 35 41 26 c85 54 122 145 97 235 -15 55 -42 66 -100 40 -102 -46 -154
-162 -117 -262 7 -18 41 -65 77 -105 241 -268 394 -434 407 -442 11 -6 18 -4
24 5 4 8 41 61 81 119 221 313 269 384 265 394 -4 9 -309 352 -326 366 -4 3
-33 36 -66 74 -42 48 -56 71 -46 74 27 9 93 76 112 113 36 72 16 199 -33 199
-13 -1 -37 -7 -54 -14z"/>
<path d="M2285 4647 c-63 -63 -70 -160 -17 -216 15 -16 130 -93 255 -171 170
-106 231 -140 240 -131 14 14 7 21 -63 64 -71 44 -364 229 -369 233 -3 2 5 14
16 27 26 27 53 91 53 124 0 37 -40 103 -63 103 -10 0 -34 -15 -52 -33z"/>
<path d="M5438 3293 c-22 -51 -458 -956 -461 -960 -2 -1 -19 11 -39 27 -94 78
-219 113 -310 86 -63 -18 -146 -79 -154 -113 -28 -109 221 -245 372 -204 23 6
65 28 94 49 45 32 58 50 99 137 125 262 235 485 241 485 13 0 110 -100 126
-132 25 -47 21 -114 -9 -175 -31 -61 -114 -148 -159 -168 l-33 -14 30 -1 c36
0 98 31 140 70 17 15 46 31 65 35 95 20 190 91 226 169 18 39 24 68 24 126 0
91 -15 127 -120 285 -40 61 -82 129 -92 152 l-19 42 26 50 c14 28 25 54 25 59
0 7 -42 32 -53 32 -1 0 -10 -17 -19 -37z m124 -423 c98 -96 101 -192 10 -313
-43 -56 -122 -127 -142 -127 -4 0 2 19 14 43 16 32 21 60 21 122 0 71 -5 89
-39 165 -59 132 -78 196 -65 224 l11 24 67 -41 c36 -23 91 -67 123 -97z"/>
<path d="M490 2962 c-202 -110 -404 -221 -417 -230 -10 -6 10 -89 81 -337 l93
-330 -50 -8 c-60 -9 -141 -51 -162 -84 -9 -13 -22 -49 -28 -80 -11 -50 -10
-56 8 -69 44 -33 171 -5 229 50 33 30 56 86 56 135 0 14 -39 162 -86 330 -48
168 -87 310 -88 315 0 6 33 28 74 51 276 152 396 217 404 218 9 2 22 -38 110
-348 l54 -190 -48 -6 c-52 -7 -131 -42 -156 -70 -42 -46 -57 -151 -25 -169 68
-36 221 23 257 99 34 71 31 93 -59 407 -47 165 -91 318 -97 342 -6 23 -14 42
-18 42 -4 0 -63 -31 -132 -68z"/>
<path d="M4315 2964 c-18 -18 -45 -79 -45 -101 0 -8 7 -31 17 -50 14 -31 33
-43 156 -101 l139 -66 -26 -23 c-15 -13 -39 -23 -55 -23 -29 0 -121 53 -121
70 0 5 -5 10 -10 10 -16 0 17 -56 42 -75 44 -31 93 -37 157 -20 37 9 76 13
101 9 31 -5 40 -3 40 8 0 8 -68 47 -172 98 -95 46 -174 84 -176 85 -2 2 7 21
19 44 23 45 21 89 -7 129 -18 26 -37 28 -59 6z"/>
<path d="M4851 1455 l-145 -124 -23 33 c-26 39 -71 58 -114 49 -39 -8 -45 -23
-24 -65 25 -49 53 -68 105 -68 43 0 51 5 203 136 136 119 179 165 150 164 -5
0 -73 -56 -152 -125z"/>
<path d="M4983 1310 c-42 -25 -67 -73 -59 -114 3 -17 36 -71 72 -120 69 -93
71 -106 13 -106 -34 0 -68 38 -76 85 -5 29 -8 34 -15 21 -5 -9 -6 -26 -2 -39
4 -12 6 -45 5 -74 -1 -42 3 -57 23 -80 24 -27 26 -28 119 -25 74 2 97 -1 107
-13 15 -18 30 -20 30 -3 0 6 -52 80 -115 164 -99 133 -112 154 -95 159 10 3
31 20 45 36 38 46 32 129 -9 129 -6 0 -25 -9 -43 -20z"/>
</g>
</svg>
