<?xml version="1.0" standalone="no"?>
<!DOCTYPE svg PUBLIC "-//W3C//DTD SVG 20010904//EN"
 "http://www.w3.org/TR/2001/REC-SVG-20010904/DTD/svg10.dtd">
<svg version="1.0" xmlns="http://www.w3.org/2000/svg"
 width="1015.000000pt" height="1041.000000pt" viewBox="0 0 1015.000000 1041.000000"
 preserveAspectRatio="xMidYMid meet">
<metadata>
Created by potrace 1.16, written by Peter Selinger 2001-2019
</metadata>
<g transform="translate(0.000000,1041.000000) scale(0.100000,-0.100000)"
fill="#ffffff" stroke="none">
<path d="M4777 10400 c-731 -77 -1541 -409 -2277 -934 -194 -138 -499 -387
-660 -539 l-66 -63 8 -84 c6 -52 6 -92 0 -105 -5 -11 -53 -87 -105 -167 l-96
-146 -71 16 -72 16 -19 -25 c-43 -54 -236 -397 -338 -599 -249 -492 -402 -909
-485 -1320 -38 -187 -49 -301 -42 -424 14 -234 78 -631 132 -820 8 -27 14 -51
14 -52 0 -2 -107 -4 -237 -6 -231 -3 -239 -4 -287 -28 -27 -14 -66 -44 -87
-68 -68 -78 -70 -88 -67 -542 3 -391 4 -404 20 -367 26 58 112 142 171 168 79
34 168 32 243 -7 108 -55 166 -165 168 -319 1 -156 -47 -224 -259 -363 -132
-86 -263 -202 -316 -279 l-30 -43 3 -302 c3 -300 3 -303 28 -352 27 -52 80
-104 139 -133 33 -16 74 -18 454 -21 l417 -3 0 -100 0 -101 34 -34 c32 -32 38
-34 104 -34 l69 0 -8 -43 c-12 -60 -11 -310 2 -387 5 -36 21 -89 35 -119 l24
-54 40 6 c38 5 41 3 77 -46 52 -72 186 -232 241 -289 25 -26 44 -49 41 -51 -2
-2 -42 -24 -88 -48 -184 -97 -311 -270 -311 -423 0 -154 144 -302 383 -394
355 -138 969 -207 1602 -182 444 18 729 53 1038 131 87 21 148 30 230 32 156
5 244 37 607 220 350 177 508 251 690 322 522 204 874 252 1220 168 111 -27
236 -80 480 -203 374 -188 514 -242 750 -289 185 -36 500 -56 500 -31 0 6 -29
10 -67 10 -189 0 -437 39 -609 96 -157 52 -276 107 -527 243 -322 175 -464
232 -653 265 -114 20 -358 21 -488 1 -307 -46 -692 -176 -1124 -379 l-203 -95
35 39 c42 46 87 133 110 209 49 165 -14 295 -167 348 -74 26 -234 23 -350 -5
-266 -66 -501 -222 -583 -388 -32 -63 -37 -84 -37 -143 0 -57 6 -80 31 -132
17 -35 38 -74 47 -85 16 -22 15 -22 -72 -38 -379 -69 -882 -116 -1258 -116
-671 0 -1197 105 -1370 274 -66 63 -82 110 -61 179 35 116 116 200 263 274
l91 45 69 -54 c182 -146 376 -241 568 -279 86 -17 289 -17 370 0 33 7 101 27
150 43 397 133 417 334 43 442 -170 49 -282 61 -563 60 -284 0 -413 -15 -599
-69 l-89 -26 -25 23 c-73 68 -181 185 -257 280 l-86 106 17 54 c20 64 31 364
16 445 l-9 53 54 0 c49 0 59 4 89 34 l34 34 0 1527 0 1527 -35 35 -34 34 -216
-3 c-155 -2 -215 0 -215 8 0 6 -25 33 -55 59 l-55 47 0 195 c0 197 11 303 50
503 121 607 309 1081 555 1395 70 89 211 229 274 270 31 21 40 32 36 49 -3 11
-11 63 -18 114 l-14 93 144 184 144 185 65 0 65 0 193 185 c189 181 194 186
200 233 l6 48 118 71 c769 462 1626 755 2212 755 366 1 861 -119 1380 -333
192 -79 629 -298 812 -407 131 -78 137 -84 143 -120 11 -64 14 -69 83 -133 37
-34 122 -115 189 -180 l121 -118 68 -3 69 -3 98 -125 c54 -69 118 -150 142
-181 l44 -56 -14 -94 c-22 -140 -22 -139 36 -179 72 -48 214 -193 281 -287
178 -247 291 -490 422 -910 22 -71 73 -278 96 -393 49 -243 60 -340 60 -550
l0 -205 -62 -57 -62 -58 -164 0 -164 0 -34 -34 -34 -34 0 -1527 0 -1527 34
-34 34 -34 207 0 207 0 34 34 34 34 0 101 0 100 423 3 c480 3 461 0 548 90 76
77 79 95 79 440 0 169 -4 297 -9 294 -5 -3 -21 13 -36 35 -48 73 -157 169
-290 257 -148 99 -206 148 -241 207 -72 123 -42 336 61 440 81 80 205 102 312
56 59 -26 146 -111 169 -166 8 -19 19 -35 24 -35 6 0 10 145 10 403 0 452 -1
461 -69 539 -21 24 -60 54 -87 68 -48 25 -53 25 -337 28 -267 3 -288 4 -282
20 13 34 55 220 74 327 47 265 71 470 71 599 0 327 -169 918 -411 1437 -169
362 -448 860 -481 859 -7 -1 -41 -7 -75 -14 l-63 -13 -105 161 c-116 179 -108
149 -89 301 l5 41 -153 136 c-864 770 -1776 1234 -2713 1379 -149 23 -504 33
-648 19z m643 -170 c797 -158 1555 -488 2070 -898 117 -94 325 -300 409 -406
l62 -79 -87 -48 -88 -47 -127 122 c-427 414 -998 768 -1527 946 -308 103 -663
170 -910 170 -52 0 -52 0 -39 23 8 12 34 73 57 135 34 88 46 111 59 108 9 -3
63 -15 121 -26z m-3880 -6455 l0 -1115 -70 0 -70 0 0 1115 0 1115 70 0 70 0 0
-1115z m7210 0 l0 -1115 -70 0 -70 0 0 1115 0 1115 70 0 70 0 0 -1115z m-5900
-2544 c159 -27 289 -69 332 -108 10 -9 18 -27 18 -39 0 -46 -144 -128 -316
-181 -82 -25 -103 -27 -259 -27 -149 -1 -180 2 -250 22 -104 30 -320 138 -414
207 l-74 54 27 11 c40 15 257 58 351 69 99 12 497 6 585 -8z m2236 -116 c43
-18 58 -48 50 -101 -14 -105 -99 -214 -221 -285 -132 -77 -471 -199 -514 -184
-24 8 -81 89 -98 137 -19 55 -9 106 30 165 128 190 567 346 753 268z"/>
<path d="M3645 7471 c-106 -49 -155 -166 -105 -248 14 -24 45 -45 112 -79 51
-25 101 -53 111 -62 25 -22 21 -57 -11 -93 -48 -54 -153 -50 -223 8 l-31 26
-36 -36 c-36 -36 -36 -36 -16 -58 35 -40 113 -69 185 -69 117 0 192 40 234
124 54 109 26 168 -112 236 -110 54 -123 65 -123 99 0 41 40 73 99 79 42 4 58
0 97 -23 l46 -27 30 29 c37 38 30 55 -35 88 -64 32 -161 34 -222 6z"/>
<path d="M4477 7475 c-48 -18 -119 -69 -144 -104 -35 -46 -70 -124 -82 -179
-32 -154 13 -271 121 -316 44 -19 141 -21 189 -4 37 12 119 65 119 76 0 4 -11
20 -24 37 -23 28 -25 29 -43 13 -52 -48 -146 -61 -199 -29 -88 54 -82 249 12
360 59 70 154 90 218 46 l38 -26 33 28 c18 16 32 32 31 37 -1 6 -19 24 -40 40
-34 28 -46 31 -114 33 -48 2 -91 -3 -115 -12z"/>
<path d="M5395 7471 c-106 -49 -155 -166 -105 -248 14 -24 45 -45 112 -79 51
-25 101 -53 111 -62 25 -22 21 -57 -11 -93 -48 -54 -153 -50 -223 8 l-31 26
-36 -36 c-36 -36 -36 -36 -16 -58 35 -40 113 -69 185 -69 117 0 192 40 234
124 54 109 26 168 -112 236 -110 54 -123 65 -123 99 0 41 40 73 99 79 42 4 58
0 97 -23 l46 -27 30 29 c37 38 30 55 -35 88 -64 32 -161 34 -222 6z"/>
<path d="M2212 7183 c-29 -164 -52 -301 -52 -305 0 -5 20 -8 44 -8 34 0 46 4
50 18 11 37 66 376 67 415 1 23 3 33 6 22 2 -11 20 -104 40 -207 l35 -188 37
0 36 0 99 186 c54 102 100 183 102 182 1 -2 -1 -21 -6 -43 -10 -40 -70 -369
-70 -379 0 -3 23 -6 50 -6 28 0 50 4 50 8 0 4 23 135 50 290 28 155 50 289 50
297 0 12 -14 15 -59 15 l-58 0 -111 -207 c-89 -166 -112 -202 -116 -182 -3 13
-20 106 -38 207 l-33 182 -60 0 -61 0 -52 -297z"/>
<path d="M2947 7458 c-3 -13 -20 -109 -38 -213 -35 -209 -34 -259 4 -317 32
-47 80 -68 156 -68 83 0 132 15 180 57 64 55 88 117 127 334 19 107 36 202 38
212 4 14 -4 17 -48 17 l-52 0 -23 -132 c-51 -299 -69 -350 -135 -382 -88 -42
-166 0 -166 91 0 38 45 322 64 406 4 14 -4 17 -49 17 -47 0 -53 -3 -58 -22z"/>
<path d="M4022 7183 c-29 -164 -52 -302 -52 -306 0 -4 23 -7 52 -5 l51 3 53
300 c30 165 54 301 54 303 0 1 -24 2 -53 2 l-53 0 -52 -297z"/>
<path d="M5012 7183 c-29 -164 -52 -302 -52 -306 0 -4 23 -7 52 -5 l51 3 53
300 c30 165 54 301 54 303 0 1 -24 2 -53 2 l-53 0 -52 -297z"/>
<path d="M7591 6188 c-7 -12 -89 -476 -181 -1031 -93 -554 -171 -1011 -174
-1014 -3 -4 -6 5 -6 18 0 13 -65 356 -144 762 -96 497 -147 742 -157 748 -8 5
-109 9 -225 9 -189 0 -212 -2 -226 -17 -9 -11 -87 -369 -198 -906 l-184 -888
-143 698 c-109 538 -146 700 -159 710 -26 19 -652 19 -678 0 -13 -10 -59 -205
-196 -832 -99 -451 -182 -831 -186 -845 -5 -20 -9 -12 -19 40 -7 36 -95 459
-194 940 -194 935 -192 926 -242 899 -11 -6 -22 -16 -24 -22 -5 -14 -85 -1618
-86 -1717 0 -36 -2 -60 -5 -55 -2 6 -51 255 -109 555 -58 300 -108 553 -111
563 -3 9 -14 22 -25 27 -28 15 -56 -3 -63 -42 -6 -34 -153 -1110 -158 -1163
-6 -54 -18 532 -29 1465 -6 510 -15 923 -21 933 -9 18 -48 23 -64 7 -5 -5
-154 -417 -329 -915 l-320 -905 -351 0 c-327 0 -352 -1 -367 -18 -23 -25 -21
-38 5 -56 19 -14 73 -16 389 -16 l368 0 18 24 c10 13 142 375 293 804 151 429
277 779 279 777 1 -2 11 -623 21 -1381 20 -1498 16 -1415 73 -1400 14 3 28 14
31 24 3 9 51 352 106 762 56 410 104 752 107 760 5 12 7 10 10 -5 3 -11 54
-279 114 -595 61 -316 114 -585 119 -597 6 -15 18 -23 34 -23 48 0 52 16 60
202 4 95 22 484 41 863 19 380 35 706 36 725 0 38 4 19 220 -1019 84 -408 149
-700 157 -708 21 -20 55 -12 68 17 7 14 101 436 210 937 l199 913 283 0 c262
0 282 -1 282 -17 0 -36 313 -1548 322 -1560 13 -17 53 -17 66 0 9 10 412 1928
412 1958 0 5 73 9 163 9 l163 0 163 -847 c90 -467 169 -859 175 -873 8 -19 19
-25 41 -25 23 0 32 6 38 25 5 14 81 465 170 1004 l162 978 44 -363 c31 -267
47 -369 59 -381 13 -16 37 -18 207 -18 173 0 194 2 208 18 21 23 21 36 1 56
-13 13 -44 16 -183 16 l-167 0 -11 103 c-42 390 -107 885 -119 905 -18 28 -45
28 -63 0z"/>
<path d="M4862 2533 c-29 -164 -52 -301 -52 -305 0 -5 20 -8 44 -8 34 0 46 4
50 18 11 37 66 376 67 415 1 23 3 33 6 22 2 -11 20 -104 40 -207 l35 -188 37
0 36 0 99 186 c54 102 100 183 102 182 1 -2 -1 -21 -6 -43 -10 -40 -70 -369
-70 -379 0 -3 23 -6 50 -6 28 0 50 4 50 8 0 4 23 135 50 290 28 155 50 289 50
297 0 12 -14 15 -59 15 l-58 0 -111 -207 c-89 -166 -112 -202 -116 -182 -3 13
-20 106 -38 207 l-33 182 -60 0 -61 0 -52 -297z"/>
<path d="M5523 2816 c4 -9 31 -95 61 -191 l55 -176 -19 -107 c-11 -58 -20
-110 -20 -114 0 -5 23 -8 52 -6 l52 3 20 110 19 110 129 192 128 193 -58 0
-58 0 -85 -140 c-46 -76 -86 -139 -89 -140 -3 0 -21 62 -40 138 l-35 137 -59
3 c-49 3 -58 1 -53 -12z"/>
<path d="M6202 2533 c-29 -164 -52 -301 -52 -305 0 -5 81 -8 180 -8 l180 0 6
28 c3 15 7 33 10 40 2 9 -27 12 -126 12 -97 0 -130 3 -130 13 0 12 74 437 86
490 6 27 5 27 -48 27 l-54 0 -52 -297z"/>
<path d="M6662 2533 c-29 -164 -52 -302 -52 -306 0 -4 23 -7 52 -5 l51 3 53
300 c30 165 54 301 54 303 0 1 -24 2 -53 2 l-53 0 -52 -297z"/>
<path d="M6922 2533 c-29 -164 -52 -302 -52 -306 0 -4 24 -7 52 -5 l53 3 12
80 c8 44 18 104 24 133 l10 52 113 0 114 0 6 31 c3 17 6 35 6 40 0 5 -51 9
-113 9 l-113 0 15 90 15 89 135 3 136 3 6 38 6 37 -187 0 -186 0 -52 -297z"/>
<path d="M7392 2533 c-29 -164 -52 -301 -52 -305 0 -5 85 -8 189 -8 l189 0 6
31 c3 17 6 35 6 40 0 5 -61 9 -135 9 -101 0 -135 3 -135 13 0 6 7 51 16 100
l16 87 113 0 113 0 6 31 c3 17 6 35 6 40 0 5 -50 9 -111 9 l-112 0 7 43 c4 23
10 61 13 85 l6 42 133 0 134 0 6 28 c3 15 7 33 10 40 3 9 -39 12 -184 12
l-188 0 -52 -297z"/>
</g>
</svg>
