<?xml version="1.0" standalone="no"?>
<!DOCTYPE svg PUBLIC "-//W3C//DTD SVG 20010904//EN"
 "http://www.w3.org/TR/2001/REC-SVG-20010904/DTD/svg10.dtd">
<svg version="1.0" xmlns="http://www.w3.org/2000/svg"
 width="3464.000000pt" height="2704.000000pt" viewBox="0 0 3464.000000 2704.000000"
 preserveAspectRatio="xMidYMid meet">
<metadata>
Created by potrace 1.16, written by Peter Selinger 2001-2019
</metadata>
<g transform="translate(0.000000,2704.000000) scale(0.100000,-0.100000)"
fill="#000000" stroke="none">
<path d="M24465 27029 c-373 -25 -957 -134 -1423 -265 -747 -209 -1375 -500
-1862 -862 -435 -323 -735 -673 -1074 -1252 -88 -150 -223 -417 -624 -1230
-286 -581 -471 -855 -737 -1092 -301 -269 -719 -454 -1257 -557 -676 -129
-1524 -182 -3628 -226 -1247 -26 -1706 -41 -2145 -70 -1006 -68 -1458 -204
-1762 -529 -170 -182 -289 -422 -344 -693 -31 -152 -38 -460 -15 -639 69 -543
317 -1099 699 -1566 707 -866 1768 -1333 3537 -1557 1980 -251 5274 -221 7215
65 132 20 257 38 277 41 l37 5 -85 -333 c-46 -183 -88 -337 -92 -341 -4 -4
-95 -3 -202 2 -1390 67 -3301 135 -4835 172 -683 16 -2955 17 -3485 0 -1530
-47 -2806 -126 -3695 -228 -486 -56 -658 -108 -782 -236 -172 -179 -215 -446
-215 -1338 0 -602 24 -1219 68 -1780 48 -621 94 -804 224 -891 77 -52 59 -50
758 -75 l163 -6 -46 -45 c-70 -67 -91 -133 -61 -191 32 -61 98 -98 276 -157
227 -75 258 -101 299 -257 50 -189 69 -551 91 -1788 35 -1937 65 -2402 170
-2635 36 -81 70 -119 138 -152 53 -26 66 -28 167 -27 71 1 187 13 325 34 265
42 487 48 580 16 152 -51 247 -159 286 -323 22 -94 14 -226 -20 -323 -38 -110
-42 -111 -101 -33 -80 106 -245 219 -395 269 -70 23 -200 24 -251 2 -147 -64
-225 -262 -173 -438 19 -65 36 -92 86 -146 l39 -41 -233 -6 c-128 -4 -2484 -7
-5236 -7 l-5003 0 -24 -25 c-30 -29 -32 -74 -6 -106 l19 -24 5264 0 c5580 0
5463 -1 5646 46 151 38 321 141 405 245 56 69 108 171 134 264 25 91 25 311
-1 395 -64 213 -220 366 -426 416 -101 25 -364 17 -601 -19 -284 -43 -355 -48
-401 -29 -43 18 -61 43 -89 121 -74 211 -106 756 -134 2251 -34 1859 -49 2072
-159 2260 -56 95 -136 145 -336 210 -63 21 -128 45 -145 53 l-29 15 37 32 c20
17 79 53 131 79 l94 47 148 -16 c419 -46 536 -100 632 -290 191 -381 356
-2064 313 -3195 -29 -747 -26 -908 19 -1053 68 -219 239 -282 373 -138 119
127 183 360 221 801 25 286 35 584 46 1352 6 400 15 805 20 900 26 436 84 698
207 928 61 114 115 192 275 400 237 309 281 386 286 510 2 63 -1 81 -20 115
-78 133 -308 195 -730 195 -578 0 -1253 -121 -1728 -310 l-95 -38 -128 9 c-71
4 -294 13 -495 19 -202 5 -389 13 -415 16 -130 16 -172 136 -216 620 -79 863
-110 2211 -61 2704 39 393 122 516 398 586 175 44 605 94 1282 148 2383 191
4892 215 8595 81 1087 -39 2702 -109 2710 -116 6 -6 -74 -269 -131 -429 -20
-58 -60 -155 -89 -216 -135 -287 -263 -390 -507 -410 -98 -7 -227 3 -673 56
-1565 186 -3400 331 -5445 430 -1733 83 -3132 109 -3799 69 -843 -49 -1237
-199 -1390 -529 -155 -333 -40 -775 291 -1125 347 -366 903 -590 1813 -729
510 -78 1043 -122 2315 -191 1606 -87 2259 -143 2848 -246 535 -92 991 -238
1333 -425 333 -181 548 -380 843 -779 66 -88 146 -191 179 -228 171 -194 405
-316 692 -362 332 -53 766 -43 1725 40 592 51 703 58 913 53 222 -5 287 -21
344 -82 56 -60 58 -81 58 -531 1 -376 3 -420 23 -525 103 -555 418 -856 1134
-1089 462 -150 999 -248 1979 -361 756 -87 962 -131 1200 -257 48 -25 115 -68
148 -95 l60 -48 -25 -56 c-14 -31 -36 -102 -49 -158 -65 -267 -87 -533 -155
-1906 -91 -1830 -140 -2485 -221 -2975 -33 -202 -94 -415 -119 -415 -12 0 -47
88 -69 175 -88 348 -118 927 -91 1750 11 343 21 569 55 1270 40 811 49 1166
36 1424 -29 592 -125 782 -436 866 -94 26 -321 31 -444 11 -278 -47 -411 -143
-450 -324 -18 -86 -13 -226 24 -663 58 -693 79 -1018 135 -2104 72 -1401 150
-2130 281 -2634 74 -288 181 -519 317 -687 l50 -62 -61 -48 c-148 -118 -258
-312 -302 -533 -21 -100 -16 -267 9 -348 26 -81 92 -171 161 -218 95 -65 176
-87 335 -92 167 -6 286 16 411 74 267 126 337 360 195 648 -76 153 -202 290
-391 426 -33 24 -42 35 -32 41 13 7 111 18 338 37 115 10 148 22 198 73 76 77
133 239 226 640 213 919 467 2381 570 3275 144 1249 72 2004 -231 2446 -30 43
-54 82 -54 87 0 19 95 90 167 125 205 100 663 222 1013 271 172 24 500 24 626
1 457 -84 681 -312 809 -821 90 -360 110 -621 125 -1621 11 -740 21 -860 86
-1065 45 -142 120 -243 234 -310 102 -61 200 -84 355 -84 360 1 619 169 665
432 25 141 -36 325 -149 453 l-40 46 10 184 c5 101 12 726 15 1389 7 1184 0
1609 -27 1885 -30 312 -89 435 -207 435 -59 0 -78 -9 -263 -131 -249 -163
-315 -189 -487 -189 -291 0 -1087 167 -1238 261 -70 43 -75 65 -119 574 -75
863 -68 1221 26 1423 43 95 81 137 156 174 59 29 75 32 152 32 104 -1 211 -28
331 -86 72 -34 100 -55 180 -137 152 -154 201 -265 311 -700 70 -277 100 -372
146 -464 118 -237 291 -263 658 -100 381 171 2002 1100 2805 1608 400 253 458
285 517 285 26 0 34 -5 39 -25 8 -34 -11 -110 -44 -169 -30 -55 9 -28 -682
-466 -354 -224 -1024 -667 -1255 -830 -359 -252 -524 -390 -545 -456 -23 -69
21 -124 101 -124 169 0 791 313 1304 655 505 337 964 743 1141 1009 23 35 59
69 107 102 307 210 350 300 327 698 -46 816 -183 1125 -538 1217 -50 13 -140
23 -252 30 -521 28 -571 35 -697 95 -92 44 -145 103 -175 193 -21 65 -22 76
-19 576 3 532 -5 715 -40 957 -56 393 -148 551 -357 610 -73 21 -195 27 -987
48 -1262 34 -1418 26 -1460 -74 -39 -92 37 -167 251 -250 246 -95 495 -139
1109 -196 475 -43 616 -65 713 -112 23 -11 42 -27 42 -35 0 -8 -25 -39 -56
-69 -142 -139 -548 -277 -1254 -428 -118 -25 -372 -79 -565 -120 -820 -175
-1164 -271 -1421 -396 -145 -70 -267 -160 -329 -240 -138 -179 -175 -380 -175
-946 0 -764 90 -1041 344 -1061 205 -17 439 81 1367 572 379 201 825 427 989
500 425 192 731 264 991 236 115 -12 636 -122 894 -188 260 -66 415 -132 480
-204 29 -32 35 -47 35 -82 0 -168 -296 -418 -830 -703 -436 -232 -1137 -531
-1615 -687 -274 -90 -324 -101 -455 -101 -136 -1 -124 -6 -406 170 -363 228
-523 362 -484 409 39 47 213 83 447 92 l161 6 49 -49 c156 -160 570 -334 793
-334 166 0 251 117 176 244 -77 131 -296 218 -672 266 -85 11 -158 20 -162 20
-4 1 9 10 28 20 83 46 263 89 438 106 l73 7 42 -40 c61 -58 125 -99 251 -158
265 -126 503 -166 597 -102 131 89 90 249 -87 344 -114 61 -352 112 -527 114
-117 1 -124 10 -42 51 81 40 160 69 265 98 l74 20 56 -54 c72 -70 129 -107
253 -166 250 -120 465 -159 573 -104 54 28 87 92 80 154 -19 147 -179 292
-386 347 -50 14 -105 18 -232 18 -91 0 -164 3 -162 6 12 20 120 34 249 33 158
-1 228 -9 573 -61 267 -40 281 -39 301 19 13 36 0 71 -31 92 -23 15 -385 74
-593 98 -167 18 -406 16 -485 -5 -121 -33 -200 -96 -225 -180 l-12 -40 -109
-32 c-225 -65 -370 -142 -425 -224 -16 -25 -29 -50 -29 -56 0 -8 -38 -16 -102
-24 -308 -37 -521 -120 -584 -227 l-26 -44 -86 0 c-126 0 -305 -18 -399 -40
-230 -54 -319 -171 -247 -326 24 -53 141 -166 252 -244 130 -91 487 -316 549
-345 161 -77 365 -58 748 70 462 154 1124 434 1550 654 488 253 784 465 917
659 82 119 102 251 52 350 -63 127 -244 226 -568 312 -129 34 -696 160 -836
186 -130 24 -382 24 -505 0 -371 -71 -734 -230 -1723 -755 -906 -480 -1184
-592 -1297 -523 -92 57 -134 290 -142 792 -8 484 14 705 83 849 81 166 255
280 609 397 268 88 551 155 1580 374 662 142 959 227 1200 345 151 74 230 133
282 211 77 116 48 229 -77 294 -105 54 -283 85 -730 125 -346 31 -580 59 -721
85 -138 26 -340 82 -404 112 l-50 23 180 3 c99 2 356 -2 570 -7 215 -6 588
-16 830 -21 467 -11 549 -18 621 -52 109 -51 163 -196 211 -573 14 -107 17
-234 18 -730 1 -440 5 -616 14 -660 51 -239 234 -380 553 -424 42 -6 187 -15
323 -21 137 -6 283 -17 326 -25 242 -42 342 -178 414 -562 42 -225 73 -651 55
-765 -13 -85 -26 -111 -83 -166 l-44 -43 -6 51 c-14 115 -84 180 -196 180
-107 0 -178 -36 -591 -298 -557 -354 -1255 -764 -2100 -1234 -803 -447 -985
-519 -1090 -431 -64 53 -103 160 -200 543 -69 272 -104 378 -162 495 -145 290
-398 471 -718 515 -256 35 -463 -79 -554 -307 -68 -167 -95 -460 -77 -836 16
-352 78 -1056 101 -1149 40 -164 112 -219 397 -303 195 -58 587 -138 836 -170
152 -19 333 -19 417 1 92 21 221 87 389 198 80 53 150 96 157 96 26 0 55 -157
75 -400 16 -208 23 -1948 10 -2634 -6 -313 -12 -570 -14 -572 -2 -2 -28 6 -57
17 -167 63 -408 15 -538 -108 -76 -73 -97 -120 -97 -224 0 -78 3 -91 37 -160
46 -93 121 -169 208 -212 60 -30 72 -32 165 -32 90 0 105 3 153 28 106 56 184
149 227 272 12 36 25 68 28 71 8 8 47 -94 58 -150 11 -62 -1 -132 -31 -181
-114 -183 -450 -267 -695 -173 -118 45 -191 143 -233 313 -49 194 -60 367 -67
1085 -3 316 -10 649 -15 740 -42 690 -159 1105 -391 1388 -143 174 -398 300
-696 344 -127 19 -467 15 -628 -6 -318 -43 -725 -145 -984 -248 -96 -38 -203
-101 -258 -151 l-42 -39 -63 47 c-227 170 -500 259 -1000 325 -84 11 -292 36
-463 55 -915 105 -1447 202 -1889 345 -624 202 -905 439 -1014 855 -43 165
-47 221 -45 612 2 289 0 388 -11 446 -32 166 -116 256 -286 304 -99 27 -567
25 -900 -6 -852 -77 -1123 -95 -1485 -95 -401 0 -586 25 -774 107 -179 77
-280 172 -513 482 -173 229 -264 336 -383 445 -486 450 -1218 719 -2325 855
-572 70 -1094 109 -2410 180 -1224 66 -1712 105 -2200 175 -814 117 -1354 299
-1685 570 -443 362 -585 908 -312 1199 137 145 424 240 862 286 320 33 522 39
1190 39 943 -1 1906 -32 3385 -109 1893 -99 3537 -235 5045 -417 399 -48 630
-56 745 -25 163 44 299 143 396 288 100 150 216 438 313 775 l36 127 70 -2
c398 -12 3578 -172 5475 -276 1143 -62 1206 -65 1570 -65 360 0 496 9 678 46
290 58 470 177 563 371 153 320 81 901 -246 1986 -255 849 -510 1569 -1340
3787 -227 608 -539 1452 -693 1875 -313 861 -428 1170 -536 1443 -423 1068
-734 1564 -1157 1848 -321 215 -707 298 -1224 263z m535 -174 c322 -45 578
-171 808 -397 199 -196 341 -405 532 -787 220 -440 387 -865 943 -2396 146
-401 346 -946 445 -1210 571 -1525 689 -1842 837 -2250 594 -1635 886 -2591
986 -3235 31 -193 33 -472 5 -570 -77 -275 -266 -387 -730 -431 -163 -15 -874
-7 -1241 15 -1124 66 -3912 211 -5543 288 -462 21 -691 36 -689 43 2 5 44 168
93 362 l89 351 110 22 c283 56 652 163 876 255 327 134 590 311 758 510 247
291 359 606 423 1190 18 162 18 865 0 1035 -66 634 -192 1014 -379 1137 -51
35 -64 38 -135 42 -75 3 -84 1 -155 -34 -184 -91 -400 -378 -617 -818 -328
-667 -576 -1425 -922 -2821 -51 -208 -95 -380 -96 -381 -2 -1 -106 -18 -233
-38 -780 -122 -1632 -192 -2885 -239 -433 -16 -1950 -16 -2370 0 -1476 57
-2433 165 -3249 367 -827 205 -1425 498 -1906 932 -539 487 -899 1139 -996
1803 -30 202 -23 493 14 650 28 116 66 229 104 305 81 162 236 343 368 430
369 243 971 332 2530 375 204 5 696 17 1095 25 1107 23 1612 39 2165 70 1387
78 2067 229 2586 574 406 270 658 604 1031 1369 508 1040 625 1256 850 1575
171 241 404 498 608 669 650 547 1668 962 2850 1162 439 74 759 90 1040 51z
m-1737 -6227 c123 -125 218 -449 273 -935 22 -189 30 -726 15 -935 -40 -542
-143 -898 -334 -1153 -227 -304 -609 -523 -1205 -691 -149 -42 -424 -105 -430
-99 -10 10 268 1095 374 1460 331 1137 724 2002 1044 2299 76 70 123 95 178
96 37 0 48 -5 85 -42z m8810 -8143 c90 -19 164 -54 216 -101 40 -36 71 -81 71
-104 0 -32 -208 13 -358 78 -113 49 -235 120 -227 133 9 14 222 10 298 -6z
m-643 -370 c61 -9 141 -25 178 -36 123 -38 210 -99 166 -116 -48 -18 -300 54
-441 126 -70 36 -75 40 -46 41 18 0 82 -7 143 -15z m-19755 -263 c203 -44 236
-80 180 -200 -32 -69 -63 -113 -223 -322 -271 -351 -367 -526 -436 -792 -76
-294 -92 -526 -106 -1538 -11 -761 -21 -1078 -45 -1347 -35 -390 -94 -620
-181 -704 -33 -32 -34 -32 -54 -14 -33 30 -59 119 -72 243 -9 93 -9 204 3 527
17 485 17 1124 0 1425 -36 666 -102 1280 -181 1690 -109 570 -242 741 -635
819 l-90 17 70 22 c308 94 668 157 1115 196 25 2 162 2 305 1 213 -3 276 -7
350 -23z m19115 -63 c168 -34 333 -103 348 -146 6 -20 -72 -16 -168 8 -122 31
-338 119 -394 162 -17 13 -12 13 45 6 35 -5 111 -19 169 -30z m2816 -881
c-411 -376 -994 -764 -1551 -1031 -44 -21 -75 -34 -70 -29 57 50 464 333 805
558 262 173 871 564 879 564 2 0 -26 -28 -63 -62z m-6397 -3453 c293 -599 261
-1678 -114 -3810 -186 -1056 -379 -1944 -464 -2128 -47 -103 -51 -105 -237
-117 -167 -10 -241 -21 -337 -47 l-58 -16 -40 39 c-56 54 -160 212 -207 315
-219 475 -314 1216 -417 3249 -41 803 -69 1223 -125 1884 -45 521 -40 590 42
660 130 111 521 142 715 56 162 -71 218 -254 239 -775 6 -177 -6 -612 -36
-1220 -94 -1920 -92 -2545 11 -3060 43 -216 102 -356 168 -401 49 -33 114 -33
163 1 81 55 152 262 202 586 80 519 127 1161 216 2954 71 1426 93 1680 167
1934 l16 55 24 -29 c13 -17 45 -75 72 -130z m-16378 -1671 c179 -53 384 -227
363 -309 -20 -81 -264 -121 -421 -70 -103 34 -162 111 -163 210 0 64 33 132
79 162 40 27 69 28 142 7z m20032 -617 c32 -14 60 -33 63 -41 8 -20 -20 -151
-45 -208 -25 -58 -83 -123 -132 -149 -50 -25 -128 -25 -177 0 -79 41 -161 155
-162 224 0 37 22 87 51 114 31 28 115 70 165 82 67 17 174 7 237 -22z m-4831
-4074 c271 -212 329 -270 401 -403 38 -68 67 -163 67 -215 0 -129 -108 -226
-309 -276 -68 -17 -105 -20 -200 -17 -187 7 -278 51 -336 163 -29 56 -30 64
-30 184 1 115 4 134 33 221 56 161 145 291 250 360 25 16 49 30 54 30 5 0 36
-21 70 -47z"/>
</g>
</svg>
