<?xml version="1.0" standalone="no"?>
<!DOCTYPE svg PUBLIC "-//W3C//DTD SVG 20010904//EN"
 "http://www.w3.org/TR/2001/REC-SVG-20010904/DTD/svg10.dtd">
<svg version="1.0" xmlns="http://www.w3.org/2000/svg"
 width="769.000000pt" height="1074.000000pt" viewBox="0 0 769.000000 1074.000000"
 preserveAspectRatio="xMidYMid meet">
<metadata>
Created by potrace 1.16, written by Peter Selinger 2001-2019
</metadata>
<g transform="translate(0.000000,1074.000000) scale(0.100000,-0.100000)"
fill="#000000" stroke="none">
<path d="M2325 10726 c-11 -7 -59 -25 -108 -40 -105 -32 -144 -63 -181 -145
-28 -62 -47 -191 -29 -191 5 0 20 23 33 51 15 32 42 65 72 89 44 35 54 38 132
45 124 10 137 5 202 -78 68 -87 87 -122 90 -167 1 -19 14 -69 29 -110 35 -95
44 -201 22 -261 -9 -24 -18 -81 -21 -127 -3 -49 -13 -101 -25 -126 -10 -24
-22 -63 -26 -87 -4 -24 -22 -76 -41 -116 -25 -53 -34 -85 -34 -125 0 -35 -7
-64 -20 -86 -11 -17 -25 -53 -31 -80 -6 -26 -20 -68 -31 -94 -17 -38 -27 -48
-52 -53 -69 -13 -217 -49 -319 -77 -176 -48 -415 -80 -617 -81 -147 -2 -180
-5 -207 -20 -20 -10 -33 -25 -33 -37 0 -34 118 -198 174 -240 94 -71 136 -85
261 -84 95 0 133 6 280 42 174 43 344 71 426 72 l46 0 6 -115 c6 -116 14 -141
94 -322 3 -8 -2 -13 -11 -13 -9 0 -22 -12 -28 -26 -10 -22 -10 -28 5 -39 24
-18 11 -25 -48 -25 -76 0 -89 -13 -83 -88 3 -43 1 -63 -8 -66 -7 -3 -30 -31
-51 -63 -22 -32 -49 -72 -61 -88 -12 -17 -29 -65 -38 -110 -8 -44 -22 -99 -31
-123 -17 -46 -12 -137 9 -172 11 -17 -2 -40 -97 -182 -78 -117 -129 -182 -179
-228 -173 -159 -180 -168 -330 -430 -73 -127 -104 -174 -100 -150 12 71 46
217 66 284 19 67 19 70 2 83 -26 19 -129 17 -148 -3 -32 -31 -73 -203 -122
-510 l-29 -182 -47 -26 c-26 -15 -68 -47 -94 -71 l-46 -44 8 -58 c3 -32 11
-68 15 -81 5 -13 9 -42 9 -64 0 -24 7 -49 16 -59 15 -17 13 -24 -21 -105 -51
-118 -120 -315 -146 -416 -11 -46 -45 -200 -75 -343 -70 -341 -138 -618 -142
-582 -4 33 -42 40 -42 8 0 -11 -4 -22 -9 -25 -5 -3 -7 -15 -4 -25 4 -16 1 -19
-18 -14 -19 5 -21 3 -16 -16 4 -18 3 -20 -8 -11 -16 13 -30 -3 -19 -23 5 -8 2
-7 -9 2 -16 12 -20 11 -37 -7 -25 -26 -25 -34 -2 -56 18 -15 18 -21 5 -69 -10
-39 -10 -60 -2 -82 10 -29 8 -32 -80 -115 -116 -109 -122 -121 -115 -230 l6
-85 -46 -68 c-60 -87 -76 -133 -76 -221 0 -89 -18 -127 -87 -181 -34 -26 -51
-47 -50 -59 3 -30 20 -29 68 6 24 18 52 31 62 29 10 -1 25 3 33 9 11 10 14 9
14 -2 0 -8 -27 -46 -60 -86 -33 -39 -60 -76 -60 -81 0 -20 28 -11 48 14 16 21
21 22 26 9 4 -10 -11 -38 -39 -74 -25 -32 -45 -63 -45 -69 0 -27 33 -6 75 49
25 33 49 60 53 60 4 0 28 20 55 45 26 24 47 42 47 39 0 -20 -34 -144 -45 -165
-9 -17 -12 -36 -7 -54 9 -34 29 -44 38 -20 4 9 18 28 30 41 l24 23 -7 -100
c-6 -95 -5 -101 13 -97 15 3 20 19 32 108 25 203 26 206 32 105 l5 -90 34 0
c18 0 35 5 37 10 1 6 6 46 9 90 3 44 13 107 22 140 15 51 18 56 23 35 4 -14 5
-53 2 -87 -5 -71 14 -187 34 -204 8 -6 14 -17 14 -24 0 -7 7 -18 15 -25 25
-20 37 0 24 40 -5 19 -11 85 -13 147 l-2 111 28 -44 c15 -24 32 -44 38 -44 13
0 13 37 0 45 -5 3 -7 12 -4 20 3 8 -4 27 -16 42 -19 24 -20 28 -6 31 18 4 21
18 7 27 -6 3 -6 18 0 38 5 17 9 51 9 74 0 30 4 41 13 38 8 -4 12 -29 12 -78 0
-65 3 -78 28 -110 26 -35 57 -49 57 -27 0 6 8 5 20 -2 37 -23 33 2 -9 47 -52
56 -52 79 -5 193 28 68 35 98 34 142 -7 170 -7 172 29 230 51 82 51 112 2 188
-46 70 -52 111 -21 144 24 26 44 91 35 117 -4 13 7 26 40 50 49 35 51 38 31
63 -16 22 -30 23 -45 4 -6 -8 -20 -16 -31 -19 -16 -4 -17 -2 -7 14 8 13 9 22
2 27 -20 14 -31 48 -24 72 13 44 10 60 -10 60 -18 0 -18 3 5 88 13 48 53 220
89 382 105 481 111 503 189 695 67 163 119 264 138 271 10 3 18 9 18 14 0 5
18 19 40 30 39 20 51 42 30 55 -19 12 -10 41 20 64 17 12 51 50 75 83 41 56
44 65 38 102 -3 23 -9 50 -14 62 -10 28 42 91 190 231 139 131 323 340 395
448 30 44 77 105 104 135 l51 55 0 -35 c0 -19 -4 -57 -9 -85 -5 -27 -16 -148
-24 -268 -14 -206 -16 -219 -38 -237 -13 -11 -34 -22 -48 -26 -45 -10 -78 -26
-93 -42 -33 -37 -117 -342 -117 -424 0 -26 -7 -77 -16 -115 -15 -64 -20 -72
-87 -136 l-71 -69 -4 -76 c-2 -52 4 -107 19 -171 17 -77 19 -101 10 -131 -14
-46 -14 -100 -1 -100 5 0 0 -25 -11 -55 -32 -85 -15 -109 114 -166 65 -29 79
-39 88 -66 5 -17 7 -47 4 -66 -13 -69 37 -241 69 -235 17 3 56 -12 56 -22 0
-5 10 -12 22 -16 12 -3 28 -13 36 -20 12 -13 44 -13 110 0 13 3 51 8 85 10 34
3 88 15 119 26 32 11 74 20 95 20 22 0 74 17 132 43 53 24 108 49 124 55 17 7
27 19 27 32 0 30 36 25 65 -7 15 -18 26 -47 30 -78 11 -84 124 -641 160 -790
62 -251 83 -320 145 -458 33 -75 60 -143 60 -152 0 -8 13 -48 30 -89 54 -136
116 -412 184 -822 19 -115 40 -247 46 -294 14 -117 48 -609 55 -815 7 -170 7
-170 -29 -324 -40 -172 -45 -254 -21 -366 8 -38 15 -82 15 -97 0 -38 10 -58
29 -58 9 0 24 -12 33 -27 9 -16 33 -45 54 -65 50 -51 89 -51 199 1 93 44 129
82 165 177 27 73 26 131 -1 160 -19 20 -22 37 -25 141 l-4 118 28 -80 c28 -79
29 -80 65 -83 46 -4 47 0 6 138 -33 112 -40 195 -24 322 13 109 -35 239 -104
283 -68 42 -87 150 -72 400 17 279 22 729 11 874 -6 74 -19 174 -30 223 -41
188 -137 479 -164 495 -16 10 -70 140 -90 219 -27 104 -38 294 -31 512 l7 202
42 -30 c22 -17 81 -63 129 -103 48 -40 134 -97 190 -128 56 -31 113 -65 127
-77 14 -12 44 -36 67 -54 24 -18 107 -93 185 -167 79 -74 233 -218 342 -320
110 -102 262 -256 339 -341 126 -140 165 -187 287 -355 57 -77 207 -346 215
-385 4 -19 11 -41 15 -50 4 -8 16 -34 26 -57 10 -22 22 -39 26 -37 4 3 14 -11
22 -29 16 -38 38 -57 44 -38 2 7 13 3 29 -14 31 -31 55 -31 113 -2 66 34 84
76 88 208 l4 105 -66 50 c-61 45 -68 54 -86 114 -21 65 -29 186 -16 227 10 32
42 19 190 -81 103 -70 130 -85 142 -75 28 23 14 46 -58 95 -110 74 -183 148
-234 233 -45 76 -46 77 -130 114 -70 31 -95 38 -142 36 -32 -1 -67 3 -78 9
-34 18 -126 124 -164 188 -65 111 -399 599 -459 669 -32 39 -99 103 -149 144
-110 90 -318 231 -342 231 -19 0 -120 64 -166 106 -33 30 -123 136 -161 190
l-22 31 77 48 c54 33 89 47 117 48 l40 2 -1 71 c-2 89 -35 231 -78 333 l-33
79 47 47 48 48 -69 131 c-88 166 -109 209 -158 326 -84 201 -214 414 -286 469
-124 96 -332 193 -414 193 -58 0 -71 8 -96 58 -32 64 -33 125 -1 188 25 49
187 286 214 312 8 8 12 9 8 3 -11 -21 16 -15 40 8 19 17 25 19 42 8 17 -10 23
-10 37 4 20 20 32 22 37 5 3 -9 12 -7 33 6 19 13 30 15 33 8 2 -8 9 -9 21 -2
10 5 21 7 23 4 3 -2 28 19 56 46 42 41 52 47 52 31 0 -25 15 -35 28 -18 5 6
17 36 26 66 9 29 20 59 25 65 5 6 16 35 25 65 16 53 56 117 85 136 34 21 79
32 95 23 9 -5 25 -7 35 -3 11 3 102 -14 203 -39 458 -111 554 -129 647 -123
98 6 246 40 546 126 468 134 582 155 752 138 85 -8 112 -7 167 7 36 9 89 16
117 16 29 0 100 11 158 24 58 14 150 31 203 39 293 44 578 306 678 622 31 99
39 282 16 394 -23 113 -77 259 -124 340 -110 183 -344 314 -588 328 l-104 6
-16 56 c-9 31 -31 108 -50 171 -19 63 -40 144 -47 179 -15 79 -34 92 -100 67
l-44 -17 1 -132 c1 -91 -5 -164 -18 -234 l-19 -103 -46 0 c-59 0 -202 -32
-264 -59 -68 -29 -180 -103 -238 -158 -88 -82 -176 -249 -234 -448 -36 -119
-45 -297 -21 -399 35 -147 156 -318 299 -424 l51 -36 -60 -28 c-97 -45 -203
-67 -383 -79 -91 -5 -280 -19 -418 -30 -406 -31 -401 -31 -726 82 -197 68
-226 86 -219 140 8 70 -99 165 -298 265 -115 57 -177 115 -250 231 -110 178
-151 253 -137 258 286 90 398 115 607 140 394 46 460 56 520 74 36 11 85 33
110 49 25 15 76 39 114 52 124 44 195 133 181 229 -5 33 -17 55 -51 91 -51 55
-105 81 -219 106 -113 25 -589 25 -830 0 -93 -10 -171 -19 -173 -21 -7 -7 -98
101 -143 170 -89 134 -176 291 -202 365 -15 41 -35 80 -44 85 -40 24 -70 64
-121 165 -13 25 -38 61 -57 80 -18 19 -47 62 -64 95 -26 48 -45 69 -97 104
-36 25 -85 67 -107 93 -23 27 -60 59 -82 70 -22 11 -71 52 -109 91 -37 39 -88
84 -113 99 -39 25 -53 28 -131 28 -58 0 -94 -5 -107 -14z m4739 -1878 c-28
-44 -124 -190 -131 -197 -2 -3 -51 42 -108 99 -57 57 -103 106 -101 107 7 7
223 30 294 32 l72 1 -26 -42z m-791 -110 c-53 -62 -100 -114 -103 -116 -4 -1
-42 39 -85 90 -43 51 -88 103 -99 116 l-19 22 201 0 202 0 -97 -112z m334
-138 c64 -101 96 -160 91 -165 -2 -1 -71 -6 -154 -10 -161 -7 -174 -4 -153 37
48 95 143 248 149 241 4 -4 34 -51 67 -103z m-473 -365 c28 -48 45 -54 86 -30
40 23 63 18 105 -25 21 -22 46 -40 55 -40 9 0 31 16 50 35 19 19 37 35 40 35
4 0 27 -25 51 -55 24 -30 47 -55 51 -55 4 0 27 29 50 64 l43 64 45 -39 c25
-22 49 -39 54 -39 4 0 33 22 63 50 l54 49 54 -26 c54 -27 54 -27 76 -7 l22 19
-6 -26 c-4 -14 -13 -42 -22 -63 l-16 -37 -28 21 c-16 11 -34 20 -40 20 -6 0
-36 -23 -67 -51 -43 -39 -61 -49 -78 -45 -69 20 -73 19 -119 -23 -24 -23 -51
-41 -59 -41 -8 0 -27 14 -43 30 -16 17 -35 30 -42 30 -7 0 -36 -16 -64 -35
-28 -19 -55 -35 -59 -35 -4 0 -24 27 -44 60 -21 33 -44 60 -53 60 -8 0 -42
-14 -74 -31 -33 -18 -61 -30 -63 -28 -1 2 -20 50 -40 107 -30 82 -35 106 -26
118 7 7 14 14 15 14 2 0 15 -20 29 -45z m-5297 -4664 c4 -16 -1 -36 -12 -55
-70 -121 -76 -148 -54 -257 10 -52 9 -58 -30 -154 -43 -105 -52 -105 -25 -1
12 45 14 79 9 131 -12 112 -8 132 41 222 41 75 46 90 41 131 -5 42 -4 45 9 27
8 -11 18 -31 21 -44z m-557 -265 c-19 -38 -35 -92 -40 -129 -4 -35 -13 -73
-19 -85 -6 -11 -11 -30 -11 -42 0 -12 -14 -35 -31 -51 -34 -31 -62 -40 -37
-11 31 35 47 80 53 152 10 124 14 137 63 202 57 76 68 59 22 -36z"/>
</g>
</svg>
