<?xml version="1.0" standalone="no"?>
<!DOCTYPE svg PUBLIC "-//W3C//DTD SVG 20010904//EN"
 "http://www.w3.org/TR/2001/REC-SVG-20010904/DTD/svg10.dtd">
<svg version="1.0" xmlns="http://www.w3.org/2000/svg"
 width="865.000000pt" height="472.000000pt" viewBox="0 0 865.000000 472.000000"
 preserveAspectRatio="xMidYMid meet">
<metadata>
Created by potrace 1.16, written by Peter Selinger 2001-2019
</metadata>
<g transform="translate(0.000000,472.000000) scale(0.100000,-0.100000)"
fill="#ffffff" stroke="none">
<path d="M3440 4690 c-31 -15 -72 -46 -93 -69 -35 -39 -40 -41 -93 -41 -67 0
-113 -20 -161 -69 -43 -44 -68 -93 -78 -149 -8 -52 11 -177 31 -193 8 -6 14
-17 14 -24 0 -24 79 -83 120 -90 22 -4 40 -10 40 -14 0 -14 71 -41 108 -41 27
0 48 8 71 28 l34 28 45 -23 c66 -33 156 -32 207 2 36 25 38 25 57 8 14 -13 36
-18 75 -18 50 0 57 3 86 35 17 19 51 44 77 56 85 40 127 114 117 213 -7 76
-33 137 -71 164 -25 18 -44 22 -98 22 -63 -1 -67 1 -73 25 -8 32 -104 124
-147 140 -18 6 -45 18 -60 26 -44 24 -144 16 -208 -16z m206 -17 c27 -9 65
-26 85 -39 63 -39 142 -146 94 -128 -27 11 -16 -22 11 -35 20 -9 34 -9 61 1
31 11 39 10 81 -12 85 -45 115 -142 71 -230 -26 -53 -54 -74 -101 -74 -37 -1
-42 -4 -49 -30 -11 -41 -48 -76 -79 -76 -29 0 -84 36 -75 50 6 10 -24 22 -36
14 -5 -3 -9 -10 -9 -15 0 -6 -12 -21 -27 -35 -26 -24 -34 -26 -98 -22 -72 4
-140 33 -114 48 6 4 8 13 5 19 -13 20 -34 11 -54 -23 -26 -44 -77 -62 -127
-46 -19 6 -38 16 -41 22 -5 7 -2 8 5 3 9 -5 12 -2 9 11 -3 16 -11 18 -48 16
-38 -3 -51 2 -83 28 -20 18 -45 46 -54 63 -14 28 -14 30 0 19 20 -17 24 -9 31
60 10 90 41 144 101 175 17 9 37 24 46 34 9 10 34 22 55 27 31 6 43 15 56 42
9 19 22 40 27 47 6 7 11 14 11 17 0 3 12 17 27 32 55 55 129 67 219 37z"/>
<path d="M5733 4688 c-6 -7 -18 -28 -28 -47 -14 -28 -15 -38 -5 -60 11 -25 11
-25 -7 -9 -16 15 -87 37 -120 38 -43 1 -56 -75 -21 -126 28 -41 167 -134 200
-134 27 0 39 19 57 95 6 22 18 65 27 96 9 32 14 67 10 80 -12 44 -93 92 -113
67z m54 -40 c30 -28 30 -67 -2 -143 -13 -33 -25 -74 -25 -92 l0 -32 -47 25
c-80 41 -133 91 -133 123 0 31 24 38 50 15 9 -7 33 -20 54 -29 52 -22 64 -10
48 50 -10 38 -10 51 3 75 19 36 22 36 52 8z"/>
<path d="M2058 4564 c-10 -3 -18 -10 -18 -15 0 -5 -6 -9 -13 -9 -34 0 -140
-107 -210 -213 -55 -83 -128 -219 -142 -267 -4 -14 -11 -29 -15 -35 -5 -5 -16
-37 -26 -70 -23 -77 -23 -232 0 -494 9 -107 15 -200 13 -205 -3 -6 -26 -22
-53 -35 -27 -14 -51 -27 -54 -30 -3 -3 -26 -17 -52 -31 -27 -13 -48 -28 -48
-32 0 -5 -6 -8 -14 -8 -8 0 -21 -6 -28 -13 -7 -7 -31 -24 -53 -37 -104 -62
-316 -254 -362 -328 -10 -15 -29 -43 -44 -62 -33 -44 -103 -176 -119 -227 -7
-21 -16 -42 -20 -48 -5 -5 -11 -28 -15 -50 -4 -22 -11 -44 -15 -50 -46 -59
-45 -642 1 -671 5 -3 9 -13 9 -22 0 -20 29 -77 75 -147 81 -123 267 -258 388
-280 20 -4 37 -11 37 -15 0 -4 26 -11 58 -15 31 -4 63 -12 70 -18 9 -7 99 -13
253 -15 168 -3 239 -8 239 -16 1 -6 8 -76 16 -156 23 -208 28 -347 13 -395 -6
-22 -16 -55 -22 -74 -14 -48 -128 -159 -207 -200 -53 -27 -80 -35 -142 -39
-83 -5 -120 7 -197 65 l-33 26 43 20 c24 10 57 35 74 54 32 37 68 131 56 148
-4 5 -13 29 -19 51 -12 42 -80 114 -107 114 -8 0 -15 5 -17 12 -3 8 -30 12
-80 13 -68 0 -79 -3 -103 -25 -47 -44 -70 -106 -70 -190 0 -75 8 -102 57 -194
25 -47 39 -65 95 -120 70 -69 116 -95 185 -103 27 -3 51 -10 54 -14 7 -12 51
-12 58 0 3 4 30 11 59 14 30 3 63 10 73 16 11 5 42 20 69 33 28 13 52 25 55
28 3 3 24 18 48 34 69 47 116 111 184 249 23 46 31 198 19 325 -7 70 -16 141
-21 157 -5 17 -11 63 -14 103 -5 60 -4 72 9 72 8 0 15 4 15 9 0 5 20 12 44 15
24 4 62 16 85 26 39 20 79 20 2326 20 l2285 0 0 820 0 820 -2477 2 -2478 3 -3
56 -3 56 48 39 c88 70 259 248 318 329 75 102 127 203 150 291 14 57 18 126
22 399 5 315 4 333 -15 389 -23 62 -64 124 -91 133 -9 4 -19 11 -23 16 -7 11
-152 19 -180 11z m151 -280 c12 -15 21 -39 21 -53 0 -15 5 -32 11 -38 24 -24
-9 -241 -51 -330 -11 -24 -20 -45 -20 -47 0 -11 -79 -138 -127 -202 -29 -40
-96 -116 -150 -170 l-98 -99 -8 155 c-9 154 3 359 21 384 5 6 14 31 21 56 24
83 143 228 243 296 24 16 49 35 56 42 7 6 20 12 28 12 8 0 14 5 14 10 0 18 18
10 39 -16z m-505 -1466 c3 -24 10 -99 16 -168 6 -69 13 -139 16 -156 6 -31 5
-32 -43 -39 -170 -25 -364 -182 -403 -325 -7 -25 -17 -54 -22 -66 -12 -25 -5
-191 11 -263 16 -71 66 -164 116 -215 49 -52 137 -106 182 -113 18 -3 33 -10
33 -14 0 -5 7 -9 15 -9 33 0 12 44 -26 53 -36 9 -93 70 -126 135 -26 51 -28
64 -28 171 0 107 3 120 29 174 31 63 112 143 155 154 14 3 28 10 31 14 3 5 31
11 63 15 51 6 57 5 58 -12 0 -19 13 -137 48 -439 11 -93 27 -235 35 -315 8
-80 17 -153 20 -163 4 -17 -4 -18 -112 -14 -123 4 -310 32 -326 48 -6 5 -19 9
-30 9 -12 1 -39 9 -61 20 -22 11 -46 19 -52 20 -7 0 -13 4 -13 9 0 5 -12 12
-27 16 -15 3 -30 10 -33 14 -3 3 -29 22 -58 40 -64 41 -151 135 -183 199 -13
26 -27 49 -31 52 -31 24 -63 345 -39 395 5 11 12 40 16 65 8 61 67 179 123
248 45 55 55 65 123 127 31 28 220 172 269 205 12 8 28 20 34 25 6 6 51 36 99
68 48 33 89 63 93 68 12 20 23 7 28 -33z m4714 -797 l2 -751 -120 0 -120 0 2
338 3 337 28 -3 c15 -2 27 1 27 8 0 6 5 8 10 5 7 -4 10 133 10 403 0 225 2
411 4 413 2 2 37 3 78 2 l73 -1 3 -751z m-3938 419 c0 -181 -2 -330 -6 -330
-3 0 -11 15 -19 33 -34 78 -183 228 -242 243 -13 4 -23 10 -23 14 0 5 -15 12
-32 15 -18 4 -38 11 -44 16 -9 7 -111 30 -211 46 l-31 5 -7 96 c-3 54 -11 110
-16 126 -22 71 -45 66 311 66 l320 0 0 -330z m230 -80 l0 -410 23 -5 c13 -4
30 -5 38 -3 12 3 14 -47 17 -329 l2 -333 -120 0 -120 0 0 745 0 745 80 0 80 0
0 -410z m378 -337 l-3 -748 -115 0 -115 0 0 334 0 335 35 0 35 1 3 413 2 412
80 0 80 0 -2 -747z m234 335 l3 -413 35 -1 35 0 0 -335 0 -334 -117 -3 -118
-3 0 751 0 750 80 0 80 0 2 -412z m310 0 l3 -413 30 0 30 0 0 -335 0 -335
-118 -3 -117 -3 2 338 3 338 23 -3 c52 -7 52 -5 52 427 l0 401 45 0 45 0 2
-412z m288 10 c0 -222 4 -409 9 -416 4 -8 19 -12 32 -10 l24 3 3 -332 2 -333
-115 0 -115 0 0 330 0 330 29 0 c17 0 33 4 36 10 3 5 6 192 5 415 l0 405 45 0
45 0 0 -402z m380 -348 l0 -751 -117 3 -118 3 0 335 0 335 23 -3 c52 -8 52
-11 52 424 l0 404 80 0 80 0 0 -750z m232 338 l3 -413 30 0 30 -1 0 -334 0
-335 -110 0 -110 0 -3 748 -2 747 80 0 80 0 2 -412z m300 0 l3 -412 35 0 35
-1 0 -335 0 -335 -118 -3 -117 -3 2 338 3 338 30 0 30 0 3 413 2 412 45 0 45
0 2 -412z m376 -335 l-3 -748 -118 -3 -117 -3 2 338 3 338 23 -3 c52 -8 52
-11 52 424 l0 404 80 0 80 0 -2 -747z m222 342 c0 -278 3 -405 11 -405 5 0 7
-5 3 -12 -5 -8 3 -9 29 -5 l37 6 0 -340 0 -340 -117 3 -118 3 -3 748 -2 747
80 0 80 0 0 -405z m310 3 c0 -222 4 -408 8 -414 4 -6 19 -10 35 -8 l27 3 0
-340 0 -340 -117 3 -118 3 0 335 0 335 29 -3 c16 -2 33 3 37 10 5 7 9 194 9
416 l0 402 45 0 45 0 0 -402z m302 -10 l3 -413 30 0 30 -1 3 -337 2 -338 -112
3 -113 3 0 335 0 334 30 1 30 0 3 413 2 412 45 0 45 0 2 -412z m676 -335 l-3
-748 -117 -3 -118 -3 0 751 0 750 120 0 120 0 -2 -747z m-4683 126 c5 -5 16
-9 24 -9 31 0 138 -61 182 -104 133 -132 145 -326 32 -541 -26 -50 -84 -128
-113 -153 -28 -25 -115 -79 -135 -85 -16 -6 -20 -2 -22 21 -3 53 -31 308 -37
342 -4 19 -13 98 -21 175 -8 77 -16 154 -19 170 -2 17 -8 70 -12 118 l-7 89
59 -7 c33 -4 63 -11 69 -16z"/>
<path d="M1330 4454 c-15 -35 -17 -50 -9 -65 10 -19 9 -20 -18 -6 -43 23 -120
32 -138 17 -23 -19 -18 -79 10 -115 13 -18 50 -50 82 -71 32 -21 60 -41 63
-46 3 -4 21 -9 40 -10 32 -3 35 0 51 42 22 56 59 190 59 211 0 19 -37 62 -68
78 -37 20 -52 13 -72 -35z m77 -6 c29 -27 30 -65 3 -123 -11 -25 -23 -65 -27
-90 -3 -25 -7 -45 -9 -45 -13 0 -96 49 -131 77 -33 26 -43 41 -43 64 0 35 19
38 60 9 16 -11 42 -23 59 -26 38 -8 50 14 33 61 -9 23 -9 40 -1 63 13 38 25
40 56 10z"/>
<path d="M6751 4421 c-8 -15 -8 -33 1 -66 12 -45 12 -47 -12 -66 -14 -10 -49
-26 -77 -35 -29 -8 -56 -20 -59 -26 -11 -17 18 -29 57 -24 54 8 75 -12 93 -93
9 -39 16 -85 16 -104 0 -38 19 -61 47 -55 16 3 18 12 15 74 -7 128 31 197 105
192 41 -3 62 14 43 37 -7 8 -20 15 -30 15 -9 0 -36 10 -60 23 -36 19 -46 31
-65 82 -24 66 -54 84 -74 46z"/>
<path d="M4876 4129 c-14 -17 -29 -48 -32 -69 l-6 -39 -45 49 c-53 59 -77 69
-105 44 -16 -16 -18 -26 -13 -63 4 -25 13 -54 21 -65 8 -12 39 -59 69 -106 64
-100 72 -110 88 -110 20 1 137 267 137 313 0 75 -67 102 -114 46z"/>
<path d="M2585 4040 c-3 -5 3 -27 15 -49 11 -22 38 -84 59 -138 22 -54 64
-158 95 -232 l55 -134 -24 -36 c-38 -58 -75 -166 -75 -222 0 -89 42 -139 116
-139 33 0 45 5 58 24 8 14 24 27 33 30 25 8 78 225 70 285 -7 52 -37 87 -89
103 -21 6 -40 19 -43 29 -4 10 -22 41 -41 70 -20 28 -46 79 -59 112 -13 34
-35 88 -50 120 -15 32 -25 61 -21 64 3 3 25 0 50 -6 25 -6 60 -11 79 -11 19 0
40 -6 46 -14 7 -8 21 -58 32 -112 11 -54 24 -103 29 -108 18 -18 23 3 12 46
-6 24 -16 71 -22 104 -17 88 -39 110 -135 134 -77 20 -155 60 -155 80 0 13
-27 13 -35 0z"/>
<path d="M511 3949 c-25 -24 -51 -78 -51 -107 0 -14 -13 -6 -53 35 -31 30 -63
53 -75 53 -29 0 -45 -34 -37 -79 9 -46 100 -197 159 -263 18 -20 36 -23 36 -7
0 7 13 39 30 73 16 34 41 88 55 121 29 66 45 155 27 155 -6 0 -14 9 -17 20 -8
27 -45 26 -74 -1z"/>
<path d="M5324 3909 c-40 -44 -19 -169 58 -344 17 -38 33 -83 35 -100 5 -29
54 -78 60 -59 6 17 38 62 88 122 110 132 174 239 175 290 0 12 -4 22 -10 22
-5 0 -10 11 -10 24 0 27 -16 36 -65 36 -46 0 -96 -45 -124 -110 l-22 -51 -35
70 c-36 72 -82 121 -113 121 -10 0 -26 -9 -37 -21z"/>
<path d="M6075 3763 c-48 -178 -48 -179 -82 -186 -40 -8 -93 -59 -93 -89 0
-28 28 -58 54 -58 22 0 75 27 104 53 23 22 31 80 12 92 -6 4 -8 22 -4 43 9 58
47 196 55 205 7 10 179 -39 179 -50 0 -4 -18 -64 -41 -133 l-40 -125 -59 -27
c-46 -20 -64 -35 -76 -61 -20 -41 -14 -63 20 -78 20 -9 33 -8 70 10 56 28 91
79 82 122 -4 20 9 79 39 181 24 83 42 155 39 159 -2 4 -48 22 -102 40 -53 17
-102 34 -108 36 -7 3 -26 -49 -49 -134z"/>
<path d="M4062 3858 c-6 -13 -11 -17 -11 -10 -1 6 -7 12 -15 12 -10 0 -16 -18
-20 -62 -21 -236 -26 -314 -26 -370 l0 -63 -46 -24 c-56 -30 -116 -97 -133
-149 -12 -36 -11 -44 5 -78 17 -34 26 -40 83 -57 62 -18 66 -18 103 -1 54 24
106 88 124 152 15 51 13 122 -4 122 -19 0 -27 54 -21 157 3 62 8 115 12 119 4
4 13 1 22 -6 17 -14 20 -51 6 -65 -15 -16 -24 -75 -11 -75 6 0 13 7 17 16 5
13 7 13 15 2 7 -10 12 -9 25 7 16 20 16 16 -3 -30 -3 -8 -2 -15 3 -15 28 0 70
101 59 144 -4 15 -1 44 5 65 10 35 9 43 -10 70 -12 16 -39 40 -59 51 -21 12
-50 41 -66 66 -32 50 -39 53 -54 22z m-28 -608 c-9 -70 -57 -135 -100 -135
-27 0 -29 3 -28 37 1 21 10 48 23 65 22 28 103 94 109 88 2 -1 0 -26 -4 -55z"/>
<path d="M7369 3842 c-19 -16 -20 -22 -10 -57 6 -22 11 -47 11 -56 0 -17 -75
-59 -106 -59 -10 0 -28 -8 -39 -16 -20 -15 -20 -15 -1 -29 13 -10 32 -13 56
-9 60 10 84 -33 99 -176 6 -63 7 -65 36 -68 l30 -3 0 98 c0 133 25 170 112
164 63 -3 50 52 -15 63 -57 9 -89 39 -108 101 -20 61 -34 72 -65 47z"/>
<path d="M3452 3808 c-47 -165 -112 -417 -112 -435 0 -15 -6 -23 -17 -23 -16
-1 -52 -12 -108 -36 -18 -7 -19 -6 -6 9 12 15 12 17 -3 11 -9 -4 -15 -12 -13
-18 2 -6 -11 -28 -29 -49 -25 -27 -34 -46 -34 -72 0 -45 37 -85 78 -85 43 0
117 36 162 79 33 32 40 44 40 77 0 22 -7 50 -16 63 -22 31 -13 105 31 263 19
67 35 128 35 134 0 33 30 28 222 -33 43 -14 80 -29 83 -33 3 -5 -25 -102 -62
-216 -67 -205 -68 -207 -103 -221 -119 -49 -155 -75 -181 -125 -26 -51 -24
-82 7 -107 34 -27 76 -27 132 1 97 46 149 130 129 206 -9 34 -6 53 20 138 84
270 114 387 101 395 -10 7 -333 119 -341 119 -2 0 -8 -19 -15 -42z"/>
<path d="M949 3711 c-25 -25 -30 -37 -28 -73 2 -47 67 -256 99 -318 11 -22 20
-46 20 -55 0 -16 34 -55 48 -55 4 1 19 17 34 38 15 20 50 66 78 102 109 141
130 174 147 228 14 42 15 56 5 60 -6 2 -12 15 -12 28 0 28 -19 38 -67 38 -41
0 -85 -40 -120 -109 l-26 -49 -27 58 c-28 58 -69 109 -103 127 -14 8 -24 3
-48 -20z"/>
<path d="M4622 3663 c-19 -9 -36 -22 -39 -30 -3 -7 -20 -13 -41 -13 -28 0 -43
-8 -74 -40 -33 -36 -38 -47 -38 -88 0 -64 28 -108 86 -132 50 -22 85 -25 100
-10 6 6 23 5 48 -2 27 -9 45 -9 67 -1 16 6 46 9 67 6 31 -4 42 -1 53 13 8 11
28 26 44 34 77 40 56 190 -27 190 -21 0 -37 9 -56 31 -48 57 -125 74 -190 42z
m146 -33 c30 -18 37 -31 33 -54 -3 -15 22 -25 50 -19 20 4 31 -1 48 -22 11
-15 21 -37 21 -49 0 -32 -28 -66 -53 -66 -13 0 -26 -9 -32 -22 -13 -28 -29
-33 -48 -13 -19 19 -25 19 -43 0 -9 -8 -31 -15 -50 -15 -22 0 -37 6 -40 15 -7
17 -34 21 -34 5 0 -13 -41 -29 -57 -23 -7 3 -10 9 -7 14 3 5 -8 9 -24 9 -16 0
-36 7 -43 16 -24 29 -2 118 31 129 10 3 21 12 24 20 3 8 14 15 25 15 11 0 26
10 32 23 24 46 41 57 88 57 28 0 59 -8 79 -20z"/>
<path d="M6522 3507 c-8 -10 -8 -24 -1 -52 10 -35 9 -41 -11 -57 -12 -10 -39
-22 -61 -28 -21 -6 -41 -15 -45 -21 -10 -17 18 -29 53 -23 42 8 58 -18 76
-121 12 -70 16 -80 35 -83 21 -3 22 0 22 73 0 110 22 145 91 145 17 0 29 5 29
13 0 20 -21 37 -46 37 -33 0 -65 31 -83 81 -17 46 -40 60 -59 36z"/>
<path d="M8509 3329 c-17 -34 -19 -47 -10 -66 10 -23 10 -23 -12 -8 -13 8 -46
19 -73 24 -58 11 -84 -5 -84 -51 0 -50 28 -86 108 -140 98 -67 128 -75 146
-39 8 14 17 42 21 61 4 19 16 62 26 94 26 82 24 98 -17 134 -50 45 -78 42
-105 -9z m85 -14 c21 -32 20 -63 -4 -118 -11 -25 -23 -66 -26 -91 -4 -25 -9
-46 -11 -46 -3 0 -17 8 -31 18 -15 10 -38 23 -53 31 -44 22 -89 71 -89 97 0
30 29 32 68 5 15 -10 39 -22 55 -25 35 -8 44 12 27 63 -10 32 -10 43 4 69 18
35 36 34 60 -3z"/>
<path d="M5645 3336 c-17 -7 -36 -20 -44 -29 -7 -10 -24 -17 -38 -17 -38 0
-79 -26 -103 -65 -45 -72 -13 -167 67 -201 38 -17 99 -18 108 -4 5 8 11 7 21
-1 8 -7 32 -9 61 -5 66 8 65 8 94 1 26 -7 44 4 116 72 37 35 41 63 19 118 -15
36 -42 55 -76 55 -12 0 -31 12 -43 26 -24 30 -90 64 -127 63 -14 0 -39 -6 -55
-13z m121 -32 c39 -19 46 -28 48 -58 1 -17 7 -21 40 -21 28 -1 43 -7 57 -24
36 -44 16 -111 -32 -111 -12 0 -23 -10 -29 -25 -11 -28 -47 -34 -56 -10 -7 17
-34 21 -34 5 0 -16 -42 -29 -73 -23 -15 3 -27 12 -27 19 0 20 -14 17 -35 -6
-20 -23 -62 -23 -57 -1 2 10 -4 12 -22 7 -15 -4 -31 0 -45 12 -18 15 -19 22
-10 65 9 39 19 54 51 78 23 16 47 29 55 29 7 0 13 4 13 9 0 5 12 23 26 40 30
36 75 41 130 15z"/>
<path d="M7128 3316 c-21 -15 -34 -117 -44 -344 l-7 -152 -46 -29 c-65 -40
-94 -70 -120 -123 -21 -43 -21 -51 -10 -108 14 -73 42 -100 101 -100 36 0 47
7 102 63 49 48 65 73 74 109 19 75 15 141 -9 172 -20 26 -21 34 -14 152 l7
124 39 -22 c44 -24 45 -30 24 -83 -17 -40 -13 -70 11 -79 22 -8 29 -2 53 48
13 30 21 65 20 103 0 32 2 74 3 93 3 32 -1 37 -56 75 -36 24 -67 55 -79 78
-21 41 -24 42 -49 23z m-4 -608 c-8 -56 -53 -130 -85 -142 -15 -5 -38 -6 -53
-2 -22 5 -26 12 -26 44 0 30 7 45 33 69 40 39 96 73 120 73 15 0 16 -6 11 -42z"/>
<path d="M4949 3279 c-17 -35 -20 -49 -11 -71 l10 -27 -27 19 c-14 11 -51 22
-82 26 -55 6 -56 6 -68 -24 -14 -34 -8 -65 21 -101 26 -35 154 -121 188 -128
26 -5 31 -1 43 28 24 55 57 186 57 222 0 38 -38 81 -82 92 -24 6 -29 2 -49
-36z m80 -14 c22 -29 20 -77 -6 -128 -8 -15 -17 -50 -20 -78 -3 -27 -9 -49
-12 -49 -16 0 -90 43 -127 75 -28 22 -43 44 -46 64 -6 39 16 41 68 6 67 -45
106 -26 83 40 -10 26 -10 40 1 64 15 38 32 39 59 6z"/>
<path d="M583 3108 c-18 -24 -35 -78 -29 -93 6 -17 -5 -20 -19 -6 -13 12 -111
30 -123 22 -5 -3 -14 -16 -21 -29 -26 -49 19 -114 122 -179 23 -14 44 -29 47
-33 3 -4 19 -10 37 -13 28 -6 33 -3 47 27 9 19 16 41 16 48 0 8 9 41 20 73 30
87 27 129 -12 165 -35 31 -69 38 -85 18z m81 -97 c-3 -20 -12 -51 -20 -69 -8
-17 -18 -55 -21 -82 -3 -28 -7 -50 -9 -50 -2 0 -24 11 -49 24 -76 41 -122 83
-127 116 -6 38 9 39 76 5 27 -14 55 -25 62 -25 20 0 24 28 12 74 -10 38 -9 48
6 71 l18 27 29 -28 c25 -24 28 -33 23 -63z"/>
<path d="M7676 2809 c-14 -17 -29 -48 -32 -70 l-7 -40 -28 35 c-16 19 -45 44
-65 56 -34 22 -35 22 -56 4 -16 -15 -19 -27 -14 -60 5 -39 66 -151 112 -206
12 -16 25 -36 29 -47 3 -10 15 -23 28 -28 19 -9 23 -6 33 21 7 17 33 78 59
135 46 100 69 191 47 191 -5 0 -12 9 -15 20 -8 33 -60 27 -91 -11z"/>
<path d="M8129 2591 c-18 -14 -23 -30 -26 -76 -1 -32 2 -66 8 -77 6 -11 20
-52 30 -90 11 -38 33 -96 49 -129 17 -32 30 -69 30 -81 1 -25 51 -70 57 -51 4
12 28 44 98 131 77 97 132 177 148 220 19 48 22 82 7 82 -5 0 -10 9 -10 20 0
22 -34 40 -75 40 -35 0 -80 -44 -110 -105 l-27 -54 -30 60 c-33 66 -87 129
-111 129 -8 0 -25 -8 -38 -19z"/>
<path d="M190 2433 c-14 -9 -29 -23 -33 -30 -4 -7 -24 -13 -44 -13 -29 0 -43
-8 -75 -40 -33 -36 -38 -47 -38 -88 0 -63 48 -131 92 -132 9 0 20 -4 23 -10 8
-13 58 -13 72 1 7 7 22 7 52 -2 31 -9 47 -9 65 -1 14 6 41 8 61 5 27 -4 41 -1
58 14 12 11 32 26 44 32 80 41 56 191 -29 191 -20 0 -37 9 -55 30 -14 17 -38
37 -54 45 -38 20 -109 19 -139 -2z m110 -13 c28 0 80 -48 73 -66 -8 -21 15
-34 48 -27 37 7 69 -26 69 -71 0 -37 -30 -69 -56 -59 -8 3 -18 -5 -24 -21 -11
-30 -54 -36 -64 -9 -6 14 -9 14 -27 -5 -23 -26 -71 -29 -93 -7 -8 8 -19 15
-24 15 -6 0 -12 -7 -16 -15 -3 -9 -18 -15 -35 -15 -24 0 -29 3 -24 16 5 13 2
15 -16 9 -14 -4 -31 -1 -45 9 -23 14 -23 17 -10 65 13 53 54 100 86 101 10 0
29 18 43 39 23 37 52 53 83 45 8 -2 22 -4 32 -4z"/>
<path d="M6970 2194 c0 -9 7 -30 15 -47 8 -18 30 -73 49 -124 19 -51 43 -107
52 -125 10 -18 36 -82 60 -142 l42 -110 -22 -35 c-39 -62 -76 -173 -76 -226 0
-62 28 -111 75 -131 50 -21 71 -17 95 15 11 17 28 32 38 35 24 8 77 226 69
285 -7 52 -38 88 -88 101 -23 6 -40 18 -44 30 -3 11 -21 42 -40 69 -19 27 -50
87 -68 133 -19 46 -42 100 -51 120 -9 20 -12 39 -8 42 5 3 26 1 48 -4 21 -5
55 -10 75 -10 21 0 42 -7 49 -15 7 -9 21 -59 31 -112 18 -92 31 -124 45 -110
4 3 2 26 -4 49 -6 24 -15 68 -21 98 -15 72 -43 118 -78 125 -94 21 -164 48
-193 75 -36 34 -50 38 -50 14z"/>
<path d="M320 1993 c0 -8 14 -43 87 -218 l30 -70 -23 -45 c-35 -71 -39 -111
-14 -143 27 -33 67 -35 96 -4 23 24 44 97 44 150 0 33 -24 67 -48 67 -16 0
-56 65 -85 138 l-25 59 34 -7 c19 -4 34 -5 34 -1 1 22 30 -39 30 -64 0 -31 23
-75 34 -64 10 10 -18 117 -36 138 -9 10 -34 22 -56 26 -22 3 -48 15 -58 26
-17 19 -44 26 -44 12z"/>
<path d="M7767 1985 c-19 -18 -41 -81 -34 -99 4 -9 -9 -7 -47 6 -89 30 -120
18 -120 -46 0 -47 33 -86 122 -144 93 -62 117 -65 136 -19 23 54 56 185 56
219 -1 57 -81 116 -113 83z m74 -111 c-5 -21 -16 -57 -25 -79 -8 -22 -15 -55
-16 -72 0 -40 -7 -40 -68 -7 -74 40 -103 68 -111 107 -8 32 -7 35 13 35 11 -1
30 -10 42 -20 11 -10 35 -22 52 -27 45 -13 56 4 40 62 -10 39 -9 48 6 72 l18
28 30 -30 c27 -27 28 -32 19 -69z"/>
<path d="M7977 1571 c-21 -77 -37 -146 -37 -155 0 -9 -13 -18 -35 -22 -81 -15
-125 -104 -70 -140 23 -15 27 -15 72 7 26 13 56 36 67 51 18 25 18 31 6 69
-13 38 -12 50 15 156 17 67 33 112 39 110 6 -2 48 -16 93 -31 l81 -27 -25 -77
c-60 -186 -61 -188 -103 -201 -75 -22 -125 -102 -88 -139 29 -29 114 0 150 51
17 24 22 43 20 83 -1 29 4 70 12 91 8 21 27 82 42 136 24 84 26 100 14 107
-18 12 -191 70 -206 70 -6 0 -27 -63 -47 -139z"/>
<path d="M532 1351 c-8 -5 -12 -23 -10 -46 3 -38 2 -39 -41 -54 -60 -22 -64
-39 -9 -43 l43 -3 14 -72 c12 -58 19 -73 33 -73 15 0 18 9 18 60 0 68 21 100
65 100 29 0 35 28 8 36 -45 13 -67 32 -78 63 -12 38 -23 45 -43 32z"/>
<path d="M7400 1247 c0 -1 16 -41 36 -87 19 -47 46 -112 59 -146 l24 -61 -24
-49 c-30 -61 -32 -117 -5 -144 56 -56 128 26 130 148 0 33 -29 72 -54 72 -12
0 -113 188 -104 195 2 1 20 0 41 -3 42 -5 51 -18 62 -84 4 -25 11 -38 21 -38
10 0 14 6 10 18 -2 9 -8 33 -11 52 -10 49 -29 67 -90 85 -29 8 -58 22 -65 30
-11 13 -30 21 -30 12z"/>
<path d="M6812 1128 c-47 -165 -112 -417 -112 -435 0 -15 -6 -23 -17 -23 -16
-1 -52 -12 -108 -36 -18 -7 -19 -6 -6 9 12 15 12 17 -3 11 -9 -4 -15 -12 -13
-18 2 -6 -11 -28 -29 -49 -43 -47 -46 -96 -8 -134 22 -22 31 -25 69 -20 70 10
144 57 171 109 19 36 18 67 -4 103 -17 27 -17 36 -5 105 15 87 73 301 85 315
5 6 28 3 61 -7 28 -9 91 -28 139 -43 49 -15 90 -31 93 -35 3 -5 -25 -102 -62
-216 l-68 -207 -70 -31 c-96 -43 -123 -63 -146 -107 -27 -53 -24 -83 9 -109
21 -17 36 -21 69 -17 59 6 138 59 170 114 22 39 25 51 19 103 -6 47 -2 73 18
137 39 123 117 395 114 397 -20 12 -338 126 -351 126 -2 0 -8 -19 -15 -42z"/>
<path d="M5540 1083 c0 -5 14 -42 31 -83 18 -41 44 -104 59 -140 l27 -65 -25
-53 c-42 -92 -26 -162 38 -162 39 0 67 37 81 105 16 78 7 114 -32 128 -24 9
-38 30 -74 103 -25 50 -45 94 -45 97 0 3 16 1 34 -3 19 -4 37 -5 40 -3 7 8 24
-35 31 -79 5 -35 20 -56 31 -45 8 8 -19 112 -34 130 -8 9 -34 22 -56 28 -22 6
-53 20 -67 30 -29 20 -39 23 -39 12z"/>
<path d="M2797 1053 c-2 -16 -30 -119 -61 -231 -31 -111 -56 -211 -56 -221 0
-14 -10 -21 -37 -26 -132 -25 -216 -143 -148 -210 32 -33 76 -32 143 1 99 49
139 131 96 192 -12 18 -15 36 -9 77 7 58 78 331 88 342 9 9 230 -54 280 -79
21 -11 26 10 -55 -241 l-59 -187 -77 -36 c-86 -39 -128 -74 -148 -121 -12 -28
-12 -38 0 -68 25 -59 91 -60 179 -3 65 42 100 95 98 150 -3 94 -2 110 23 190
78 251 108 370 95 379 -12 7 -334 119 -344 119 -1 0 -5 -12 -8 -27z"/>
<path d="M3620 1065 c-10 -13 -39 -329 -40 -440 0 -49 -1 -50 -49 -77 -118
-65 -190 -243 -126 -312 19 -21 33 -26 70 -26 43 0 51 4 104 57 66 67 99 129
108 202 5 45 3 55 -17 76 -22 23 -23 29 -18 150 3 69 8 128 11 132 4 3 24 -6
46 -21 l39 -27 -19 -44 c-19 -42 -18 -95 1 -95 11 0 43 47 59 87 8 18 11 47 8
65 -3 18 0 50 6 72 11 37 10 39 -25 70 -20 17 -51 41 -67 54 -17 13 -34 34
-37 46 -7 31 -39 49 -54 31z m0 -580 c28 -33 -28 -138 -90 -170 -40 -21 -67
-10 -75 32 -8 43 20 89 79 127 46 30 68 32 86 11z"/>
<path d="M4994 1057 c-3 -8 3 -32 14 -54 11 -21 31 -69 45 -108 14 -38 40
-101 57 -140 18 -38 47 -112 66 -163 l34 -93 -24 -37 c-32 -52 -76 -183 -76
-229 0 -69 60 -133 124 -133 34 0 111 76 118 115 3 17 15 68 28 113 15 57 20
96 15 120 -8 45 -63 102 -99 102 -20 0 -30 9 -47 42 -12 24 -32 57 -44 73 -12
17 -32 57 -45 90 -13 33 -34 81 -47 107 -36 74 -33 82 30 73 45 -7 72 -10 110
-14 14 -2 35 -64 46 -141 13 -79 24 -101 42 -83 8 8 8 17 0 30 -5 11 -15 48
-20 81 -12 73 -36 129 -63 143 -10 5 -53 19 -95 29 -54 14 -88 30 -119 56 -34
27 -45 32 -50 21z"/>
<path d="M6066 1053 c-4 -9 -14 -122 -23 -251 l-17 -234 -38 -19 c-74 -38
-135 -119 -140 -185 -7 -109 21 -154 97 -154 43 0 51 4 105 58 38 39 62 72 69
98 14 49 14 141 1 149 -5 3 -10 15 -10 25 0 10 -5 20 -11 22 -8 3 -9 41 -4
136 l7 132 40 -22 c22 -13 43 -28 45 -35 2 -6 -3 -32 -11 -57 -20 -60 -20 -63
5 -69 42 -11 93 98 70 149 -9 20 -8 31 4 54 26 51 19 63 -74 123 -19 12 -43
39 -54 60 -20 39 -50 49 -61 20z m12 -598 c-10 -88 -96 -170 -155 -149 -43 15
-43 57 -1 102 41 43 116 92 141 92 17 0 19 -5 15 -45z"/>
<path d="M894 960 l6 -41 -47 -21 c-27 -11 -50 -23 -53 -25 -10 -9 26 -22 46
-17 28 7 35 -5 54 -86 11 -46 20 -66 33 -68 15 -3 17 5 17 60 0 74 15 102 56
103 44 0 40 23 -8 44 -35 15 -46 26 -54 52 -7 25 -16 35 -33 37 -23 4 -24 2
-17 -38z"/>
<path d="M4261 928 c-37 -127 -50 -172 -56 -205 -5 -25 -13 -33 -36 -38 -45
-10 -99 -61 -99 -94 0 -31 27 -61 54 -61 28 0 80 26 109 55 30 30 34 61 14 90
-10 13 -12 30 -6 63 8 41 48 184 54 190 3 3 99 -22 143 -38 27 -10 32 -16 26
-34 -3 -11 -22 -69 -41 -127 l-35 -107 -50 -23 c-90 -42 -125 -111 -73 -145
24 -15 28 -15 70 0 67 26 95 65 95 134 0 31 6 74 14 97 28 79 69 235 64 240
-7 7 -204 75 -217 75 -5 0 -19 -33 -30 -72z"/>
<path d="M385 788 c-2 -7 -3 -24 -2 -38 2 -20 -5 -27 -33 -36 -45 -15 -49 -32
-8 -36 31 -3 34 -6 48 -60 17 -70 40 -78 40 -15 0 44 22 89 43 86 48 -6 49 16
1 36 -23 10 -40 25 -47 45 -12 31 -34 40 -42 18z"/>
<path d="M4677 426 c-20 -72 -39 -143 -43 -157 -4 -19 -14 -28 -34 -32 -40 -8
-100 -64 -100 -92 0 -57 57 -70 127 -30 48 29 62 62 45 108 -12 33 -5 87 28
198 l21 68 47 -15 c26 -8 64 -19 84 -24 20 -6 39 -14 42 -18 3 -5 -13 -65 -35
-135 l-40 -127 -50 -21 c-52 -23 -99 -69 -99 -98 0 -10 9 -26 20 -36 27 -24
77 -13 126 29 36 31 38 37 39 92 1 37 15 105 39 184 21 69 40 132 43 141 5 18
5 19 -128 64 l-96 33 -36 -132z"/>
</g>
</svg>
