<?xml version="1.0" standalone="no"?>
<!DOCTYPE svg PUBLIC "-//W3C//DTD SVG 20010904//EN"
 "http://www.w3.org/TR/2001/REC-SVG-20010904/DTD/svg10.dtd">
<svg version="1.0" xmlns="http://www.w3.org/2000/svg"
 width="3967.000000pt" height="2656.000000pt" viewBox="0 0 3967.000000 2656.000000"
 preserveAspectRatio="xMidYMid meet">
<metadata>
Created by potrace 1.16, written by Peter Selinger 2001-2019
</metadata>
<g transform="translate(0.000000,2656.000000) scale(0.100000,-0.100000)"
fill="#ffffff" stroke="none">
<path d="M8565 26526 c-236 -55 -393 -202 -452 -426 -12 -47 -17 -104 -17
-205 0 -286 86 -479 237 -532 41 -14 80 -18 190 -17 103 1 137 -1 137 -11 0
-17 -60 -96 -172 -224 -112 -129 -176 -229 -231 -356 -98 -226 -163 -602 -160
-925 1 -176 15 -242 82 -382 47 -99 75 -198 85 -303 11 -109 18 -432 32 -1410
9 -628 2 -672 -102 -669 -27 1 -106 20 -176 43 -150 49 -244 71 -311 71 l-49
0 6 48 c19 144 11 232 -24 302 -22 42 -83 98 -117 106 -13 4 -23 8 -23 10 0 2
23 32 51 66 221 273 294 487 305 891 l5 178 35 54 c45 72 100 238 113 345 14
109 14 268 0 366 -41 299 -207 490 -581 672 -315 153 -618 238 -889 249 -132
5 -153 4 -218 -16 -45 -14 -101 -42 -153 -77 -45 -31 -92 -60 -106 -65 -13 -5
-77 -12 -141 -15 -64 -3 -147 -12 -186 -20 -353 -70 -543 -441 -521 -1019 8
-237 56 -527 102 -623 61 -126 199 -106 263 38 30 69 39 115 67 360 64 564
186 838 426 962 147 75 371 94 593 48 297 -60 608 -204 778 -360 64 -58 131
-147 170 -225 28 -56 71 -189 81 -250 6 -35 3 -33 -22 26 -53 122 -135 230
-233 305 -129 99 -317 178 -499 210 -293 51 -484 -54 -784 -431 -205 -258
-302 -430 -355 -632 -7 -25 -18 -43 -26 -43 -28 0 -74 -52 -96 -108 -17 -43
-23 -79 -23 -147 -2 -161 40 -234 191 -332 86 -55 112 -88 128 -163 11 -51 8
-268 -5 -358 -16 -104 -49 -235 -63 -248 -7 -5 -43 -18 -82 -28 -170 -43 -488
-188 -690 -315 -189 -119 -290 -194 -916 -682 -274 -213 -344 -527 -333 -1484
3 -203 6 -386 9 -405 2 -19 6 -109 10 -200 3 -91 8 -172 10 -180 2 -8 6 -67
10 -130 3 -63 8 -126 10 -140 2 -14 7 -61 10 -105 25 -331 86 -725 150 -980
108 -430 265 -665 442 -665 89 0 130 42 233 238 217 413 379 592 534 592 56 0
96 -8 96 -20 0 -4 -44 -38 -97 -75 -255 -179 -351 -322 -527 -785 -159 -419
-153 -405 -212 -450 -130 -98 -272 -330 -273 -446 -1 -81 62 -112 129 -64 54
38 183 239 255 396 31 68 34 71 81 85 36 10 87 13 194 10 427 -14 535 -5 890
71 102 21 248 52 325 69 405 87 519 31 555 -272 19 -161 -5 -513 -55 -815 -42
-248 -72 -337 -127 -377 -96 -70 -626 69 -1201 314 -236 101 -322 128 -422
134 -181 10 -317 -97 -436 -340 -108 -223 -188 -542 -220 -880 -20 -212 -17
-769 6 -1175 18 -313 46 -746 60 -910 2 -30 7 -89 10 -130 6 -87 23 -309 30
-390 3 -30 14 -163 25 -295 11 -132 22 -262 25 -290 3 -27 9 -104 15 -170 6
-66 12 -142 15 -170 3 -27 19 -201 35 -385 17 -184 32 -357 35 -385 7 -70 13
-131 20 -195 27 -296 60 -628 80 -830 14 -135 28 -267 30 -295 3 -27 12 -115
20 -195 8 -80 17 -170 20 -200 3 -30 8 -71 10 -90 3 -19 14 -123 25 -230 11
-107 22 -215 25 -240 48 -438 76 -692 80 -720 5 -39 22 -189 30 -260 12 -110
97 -793 120 -960 69 -500 127 -863 200 -1250 81 -428 93 -559 74 -775 -33
-389 -19 -505 78 -624 78 -95 180 -134 389 -151 147 -11 186 -16 247 -32 l39
-9 -47 -50 c-84 -90 -120 -203 -95 -296 19 -69 118 -164 235 -225 148 -77 201
-91 540 -143 125 -20 184 -47 208 -97 37 -76 -16 -153 -175 -256 -139 -90
-283 -132 -453 -132 -287 0 -432 101 -476 330 -6 36 -19 77 -28 93 -40 70
-184 98 -571 112 -85 3 -195 7 -245 10 -49 3 -358 7 -685 10 -327 3 -620 8
-650 10 -30 2 -844 7 -1807 11 l-1753 7 0 -61 0 -62 1053 0 c1196 0 1944 -6
3342 -25 821 -12 1139 -30 1200 -70 15 -9 25 -33 34 -81 19 -92 80 -211 135
-262 53 -49 140 -94 227 -118 99 -28 357 -25 464 4 159 44 348 153 442 255 81
89 98 193 47 288 -53 97 -120 126 -382 164 -272 40 -424 98 -534 205 -51 49
-58 61 -58 95 0 21 9 58 21 82 22 46 115 137 149 146 16 4 85 -27 234 -103
134 -68 229 -111 258 -115 107 -16 172 47 147 140 -13 47 -95 122 -174 160
-105 50 -183 67 -300 64 -55 -1 -118 -2 -140 -2 -22 0 -85 12 -140 27 -66 17
-157 32 -265 41 -202 18 -258 33 -315 86 -89 82 -110 198 -85 473 17 188 15
407 -4 536 -9 58 -36 211 -61 340 -67 357 -71 383 -119 695 -82 527 -178 1271
-251 1945 -9 74 -17 151 -20 170 -2 19 -18 163 -35 320 -16 157 -32 303 -35
325 -7 59 -94 910 -100 980 -3 33 -8 76 -10 95 -2 19 -7 61 -10 93 -13 146
-16 178 -25 262 -6 50 -19 189 -30 310 -12 121 -36 387 -55 590 -19 204 -41
449 -50 545 -8 96 -17 198 -20 225 -2 28 -7 82 -10 120 -3 39 -8 90 -10 115
-3 25 -7 79 -10 120 -3 41 -8 91 -10 110 -2 19 -7 76 -10 125 -3 50 -8 110
-10 135 -12 117 -44 547 -60 810 -3 47 -8 103 -10 125 -2 22 -7 103 -10 180
-4 77 -9 156 -10 175 -18 179 -26 917 -12 1123 33 521 209 1023 401 1142 44
27 58 30 125 30 93 -1 143 -17 426 -137 413 -177 924 -328 1110 -329 179 -1
252 69 310 299 l25 97 -6 -120 c-10 -213 -12 -647 -3 -765 30 -394 75 -568
163 -632 59 -42 97 -48 308 -48 322 1 377 -31 425 -254 9 -42 14 -78 11 -82
-9 -8 -306 52 -428 87 -58 16 -238 83 -400 148 -162 65 -352 137 -421 159
-393 128 -730 105 -883 -58 -113 -121 -134 -273 -116 -840 5 -179 12 -350 15
-380 2 -30 7 -125 10 -210 3 -85 7 -180 10 -210 2 -30 7 -118 10 -195 3 -77 8
-174 10 -215 2 -41 7 -129 10 -195 3 -66 7 -158 10 -205 2 -47 7 -134 10 -195
3 -60 7 -153 10 -205 3 -52 7 -149 10 -215 3 -66 8 -151 10 -190 2 -38 7 -128
10 -200 3 -71 7 -166 10 -210 3 -44 7 -134 10 -200 3 -66 8 -156 10 -200 3
-44 7 -136 10 -205 3 -69 8 -163 10 -210 3 -47 7 -137 10 -200 3 -63 8 -153
10 -200 2 -47 7 -141 10 -210 3 -69 8 -152 10 -185 2 -33 7 -123 10 -200 3
-77 8 -162 10 -190 2 -27 7 -122 10 -210 3 -88 8 -176 10 -195 2 -19 7 -102
10 -185 3 -82 8 -172 10 -200 2 -27 7 -108 10 -180 5 -122 9 -188 20 -380 3
-44 7 -129 10 -190 3 -60 8 -141 10 -180 2 -38 7 -119 10 -180 3 -60 8 -137
10 -170 2 -33 7 -105 10 -160 6 -105 13 -209 20 -310 2 -33 7 -100 10 -150 3
-49 8 -110 10 -135 3 -25 7 -81 10 -125 13 -171 46 -507 65 -655 99 -777 238
-1109 508 -1210 47 -18 73 -21 147 -18 77 3 100 9 157 37 207 103 274 324 233
776 -13 147 -23 265 -40 505 -3 41 -8 100 -10 130 -2 30 -7 98 -10 150 -3 52
-8 115 -10 140 -2 25 -7 83 -10 130 -3 47 -10 141 -15 210 -6 69 -12 157 -15
195 -3 39 -7 95 -10 125 -2 30 -7 91 -10 135 -3 44 -7 105 -10 135 -5 62 -12
141 -20 250 -3 41 -8 95 -10 120 -2 25 -7 79 -10 120 -3 41 -8 95 -10 120 -2
25 -7 83 -10 130 -3 47 -8 101 -10 120 -2 19 -7 73 -10 120 -3 47 -10 130 -15
185 -5 55 -12 134 -15 175 -3 41 -8 100 -10 130 -3 30 -12 138 -20 240 -8 102
-17 212 -20 245 -3 33 -9 119 -15 190 -5 72 -12 153 -15 180 -3 28 -9 113 -15
190 -17 240 -21 288 -25 340 -2 28 -7 106 -10 175 -4 69 -8 135 -10 147 -19
120 -28 1099 -12 1318 20 290 70 605 138 880 69 278 181 557 225 563 15 2 52
-32 147 -139 175 -195 246 -292 322 -442 74 -145 74 -149 -2 -193 -43 -26 -55
-28 -168 -29 -108 -2 -127 -4 -165 -26 -113 -62 -147 -198 -165 -659 -3 -80
-8 -174 -10 -210 -25 -424 -26 -1500 -1 -1740 51 -503 166 -847 415 -1247 230
-371 630 -823 946 -1070 281 -220 546 -338 925 -413 l135 -26 12 -38 c13 -37
46 -196 58 -271 3 -22 7 -112 10 -200 5 -179 -9 -303 -69 -630 -55 -301 -67
-405 -65 -570 3 -326 103 -585 279 -724 l48 -38 -19 -29 c-114 -166 -189 -431
-189 -662 0 -294 76 -444 259 -513 124 -46 335 -66 520 -47 163 16 240 60 287
163 41 89 48 166 46 526 l-2 337 23 6 c12 3 39 6 59 6 50 0 164 25 228 49 l53
20 156 -128 c350 -287 516 -390 760 -471 150 -50 320 -79 472 -80 l56 0 7 -47
c3 -26 9 -85 13 -132 l6 -84 -209 7 c-115 4 -222 8 -239 11 -16 2 -66 6 -110
9 -44 3 -152 13 -240 21 -190 18 -410 21 -480 5 -139 -31 -195 -102 -150 -189
47 -92 271 -202 530 -261 117 -27 370 -37 526 -21 312 33 433 100 478 269 8
28 17 42 29 42 9 0 56 3 103 7 l87 6 6 -29 c15 -78 10 -119 -21 -174 -18 -30
-44 -91 -59 -135 -23 -68 -27 -98 -28 -200 -1 -128 11 -172 53 -195 107 -57
176 95 187 415 6 166 -5 149 172 270 l124 85 117 11 c170 15 335 13 521 -6
150 -16 257 -17 1195 -10 567 4 1197 10 1400 14 395 7 1723 5 1790 -3 22 -2
90 -7 150 -10 111 -7 219 -21 252 -33 10 -3 46 -32 80 -64 150 -139 422 -209
758 -196 231 10 343 46 648 209 371 199 526 251 951 324 364 62 470 99 577
201 191 182 254 520 153 819 -44 130 -104 213 -181 251 l-54 26 -222 -6 c-273
-7 -542 5 -707 34 -113 19 -225 22 -304 7 -22 -4 -20 -11 -30 182 -4 74 -9
146 -11 160 -2 14 -6 88 -10 165 -3 77 -8 176 -10 220 -7 137 -21 549 -30 940
-3 121 -7 301 -10 400 -3 99 -7 270 -10 380 -3 110 -7 261 -10 335 -2 74 -7
214 -10 310 -3 96 -8 209 -10 250 -3 41 -7 136 -10 210 -3 74 -7 169 -10 210
-2 41 -7 120 -10 175 -20 339 -68 893 -90 1025 -2 14 -9 66 -15 115 -35 290
-121 737 -225 1162 -144 586 -167 692 -205 948 -35 237 -47 410 -48 665 0 309
20 484 78 679 l21 72 51 -56 c59 -65 119 -98 215 -121 155 -37 768 11 1047 82
228 58 374 134 492 256 115 118 177 225 279 475 32 79 61 140 66 138 12 -8 38
-140 48 -245 5 -52 9 -261 11 -465 1 -203 3 -405 3 -448 l2 -78 -140 -53
c-252 -95 -401 -183 -545 -322 -195 -188 -293 -391 -350 -727 -11 -60 -22
-152 -25 -205 -4 -53 -9 -108 -12 -122 -3 -14 -6 -689 -8 -1500 -1 -811 -5
-1558 -9 -1660 -3 -102 -9 -345 -12 -540 -4 -195 -8 -382 -10 -415 -8 -170
-11 -1310 -4 -1440 32 -550 128 -842 318 -972 151 -103 348 -103 499 1 131 90
183 275 218 771 3 44 7 109 10 145 7 103 14 226 20 345 3 61 7 148 10 195 3
47 7 137 10 200 3 63 7 158 10 210 3 52 7 151 10 220 3 69 8 163 10 210 3 47
7 130 10 185 13 266 16 335 20 395 2 36 7 112 10 170 9 162 29 491 40 653 12
163 16 212 30 382 2 33 12 146 20 250 9 105 18 206 20 225 2 19 7 64 10 100 3
36 10 108 15 160 6 52 17 174 25 270 9 96 17 191 20 210 2 19 9 96 15 170 6
74 15 185 20 245 27 316 32 805 11 1025 -19 198 -21 216 -47 390 -36 243 -72
498 -78 555 -12 119 -17 185 -13 185 2 0 53 11 113 24 226 49 369 66 567 67
78 0 167 -5 197 -11 65 -13 210 -61 210 -69 0 -3 -28 -14 -63 -24 -109 -32
-260 -95 -341 -143 -253 -148 -347 -373 -385 -914 -9 -129 -6 -781 4 -905 27
-333 28 -343 56 -540 24 -166 69 -378 111 -519 39 -132 79 -239 203 -541 145
-351 206 -533 255 -755 44 -203 84 -517 105 -820 12 -168 14 -217 20 -340 3
-69 8 -163 10 -210 2 -47 7 -173 10 -280 3 -107 7 -267 10 -355 3 -88 7 -241
10 -340 39 -1365 86 -1818 214 -2089 103 -219 299 -370 434 -335 155 41 241
309 276 864 8 126 5 1221 -3 1320 -2 22 -7 144 -11 270 -4 127 -8 246 -10 265
-2 19 -6 116 -10 215 -3 99 -8 200 -10 225 -2 25 -7 110 -10 190 -3 80 -8 170
-10 200 -2 30 -7 109 -10 175 -3 66 -7 149 -10 185 -2 36 -7 115 -10 175 -3
61 -7 144 -10 185 -2 41 -7 118 -10 170 -3 52 -8 124 -10 160 -2 36 -7 112
-10 170 -3 58 -8 134 -10 170 -3 36 -7 112 -10 170 -3 58 -7 134 -10 170 -2
36 -7 110 -10 165 -3 55 -7 134 -10 175 -7 110 -14 232 -20 340 -3 52 -7 129
-10 170 -4 69 -7 120 -20 350 -6 101 -13 243 -20 360 -3 47 -7 128 -10 180 -9
168 -23 387 -30 470 -2 30 -7 93 -10 140 -6 87 -13 178 -20 240 -2 19 -7 64
-10 100 -48 495 -152 867 -292 1038 -19 24 -34 45 -32 46 7 6 363 75 464 90
338 50 586 62 687 32 97 -28 150 -105 185 -266 15 -71 18 -133 18 -365 0 -330
-5 -388 -115 -1305 -18 -146 -70 -606 -75 -660 -3 -30 -8 -80 -11 -110 -3 -30
-7 -73 -9 -95 -2 -22 -7 -85 -11 -140 -4 -55 -8 -102 -9 -105 -18 -32 -26
-985 -13 -1510 13 -490 27 -1600 28 -2135 1 -306 16 -1145 24 -1380 26 -672
28 -1106 6 -1150 -32 -64 -118 -79 -505 -89 -249 -7 -356 -18 -450 -47 -126
-38 -200 -124 -199 -229 1 -74 26 -119 123 -223 43 -47 88 -106 100 -130 14
-28 30 -104 46 -210 35 -240 72 -327 177 -422 218 -196 756 -254 1046 -112 86
41 187 141 225 220 99 205 60 568 -83 782 -22 33 -40 63 -40 67 0 3 12 5 28 3
15 -2 81 -6 147 -10 66 -4 134 -9 150 -11 196 -25 1905 -24 2890 1 105 3 341
7 525 10 524 8 936 15 1170 20 118 3 393 7 610 10 217 3 466 8 552 11 127 5
159 3 162 -8 3 -7 10 -32 16 -55 l10 -41 53 14 c101 27 276 48 522 64 88 6
181 12 207 15 l48 5 25 -55 c53 -112 140 -150 375 -164 143 -9 792 -7 840 2
14 3 59 8 102 11 193 16 335 78 508 221 122 102 235 167 297 170 48 3 124 -15
333 -80 280 -87 333 -99 445 -99 94 -1 105 1 167 32 114 56 215 181 342 425
25 48 46 95 46 104 0 11 12 3 34 -23 88 -103 293 -158 458 -123 64 14 97 30
143 71 35 31 37 31 69 15 37 -17 62 -64 91 -167 42 -155 102 -237 208 -286
l62 -29 1608 -3 1607 -2 0 60 0 60 -1602 2 -1603 3 -42 24 c-57 33 -86 79
-124 202 -17 57 -40 120 -50 140 -21 42 -89 106 -121 114 -22 6 -23 10 -24
113 0 120 -13 187 -87 477 -28 110 -51 214 -50 230 0 17 12 60 26 96 91 235
27 749 -138 1104 -139 299 -435 669 -825 1033 -331 309 -468 394 -531 331 -50
-50 -9 -124 206 -369 70 -80 183 -208 250 -285 467 -532 574 -747 804 -1610
79 -297 80 -273 -22 -323 -97 -48 -355 -108 -508 -119 l-86 -6 -5 134 c-12
284 -77 524 -473 1754 -311 964 -427 1348 -529 1750 -171 677 -213 1138 -140
1545 71 398 382 1228 694 1850 89 177 168 326 389 730 240 438 387 768 446
1003 42 167 55 260 60 417 5 170 -13 311 -60 476 -5 17 0 22 37 33 159 47 562
211 721 294 195 100 272 235 262 462 -5 100 -3 87 -50 385 -43 276 -43 272
-50 355 -4 39 -9 81 -13 95 -3 14 -7 322 -8 685 -3 737 -3 749 -70 884 -26 52
-61 99 -118 159 l-81 84 40 31 c69 55 166 150 210 207 185 242 256 584 345
1665 5 66 12 167 15 225 3 58 8 123 10 145 2 22 7 105 11 185 3 80 8 161 9
180 8 86 20 524 20 715 -2 602 -59 963 -207 1306 -206 475 -552 809 -944 910
-174 45 -439 27 -619 -43 -74 -28 -183 -86 -238 -125 l-48 -34 -46 27 c-25 14
-63 44 -84 65 -44 44 -51 86 -23 142 22 44 143 213 229 322 142 178 177 245
177 335 0 104 -60 192 -152 225 -35 12 -64 14 -131 9 l-86 -6 -32 38 c-18 22
-75 116 -128 209 -210 376 -297 457 -811 765 -133 79 -242 148 -242 151 0 33
345 33 460 0 176 -51 358 -165 539 -337 166 -158 280 -306 505 -657 64 -100
102 -127 158 -111 98 28 155 261 109 444 -44 175 -170 385 -329 551 -210 219
-392 312 -757 388 -382 80 -535 118 -730 182 -311 103 -382 108 -462 35 -30
-27 -36 -41 -41 -84 -7 -78 35 -156 135 -253 43 -41 93 -86 111 -100 l33 -25
-70 -48 c-83 -56 -177 -153 -215 -222 -47 -84 -93 -231 -100 -322 -9 -113 -36
-166 -169 -326 -104 -125 -101 -163 20 -247 113 -78 116 -96 32 -225 -29 -43
-55 -90 -58 -103 -7 -25 -22 1 -341 589 -332 611 -508 852 -726 993 -207 134
-388 125 -571 -30 -188 -158 -518 -707 -778 -1294 -209 -469 -297 -785 -290
-1034 2 -60 6 -117 10 -126 5 -13 -8 -18 -74 -28 -245 -37 -491 -189 -609
-376 -29 -46 -62 -144 -62 -184 0 -103 76 -209 190 -266 84 -42 152 -58 385
-90 335 -47 414 -74 835 -286 315 -158 426 -200 548 -207 162 -9 269 41 494
232 76 64 140 116 142 116 3 0 13 -15 23 -32 12 -24 17 -57 17 -118 0 -77 -5
-102 -61 -270 -34 -102 -67 -213 -74 -248 -24 -127 5 -256 85 -376 l42 -63
-64 -69 c-159 -170 -366 -456 -427 -589 -18 -38 -42 -108 -54 -155 -12 -46
-27 -88 -35 -92 -8 -4 -37 -26 -64 -48 -100 -78 -185 -229 -277 -490 -182
-517 -322 -781 -514 -970 -140 -138 -263 -204 -486 -259 -298 -74 -403 -68
-630 40 -115 54 -199 63 -270 29 -114 -55 -253 -271 -384 -593 -91 -226 -214
-410 -396 -591 -204 -203 -406 -315 -528 -292 -42 8 -100 54 -122 96 -73 142
-31 504 116 990 59 192 152 439 285 753 338 795 384 958 459 1632 14 127 32
271 41 320 64 377 225 524 594 542 130 6 218 -7 245 -37 51 -57 -32 -267 -329
-828 -243 -459 -432 -865 -613 -1311 -175 -432 -295 -778 -363 -1045 -50 -198
-63 -291 -58 -428 3 -96 8 -122 30 -169 43 -93 128 -138 219 -118 56 13 74 24
132 78 148 138 239 340 537 1191 172 493 288 813 450 1240 488 1290 614 1644
664 1871 63 284 7 412 -183 411 -82 0 -137 -13 -256 -57 -51 -19 -96 -35 -100
-35 -4 0 -30 21 -59 47 -168 152 -406 257 -676 296 -131 19 -383 21 -500 3
-420 -65 -672 -286 -565 -495 63 -124 262 -224 546 -272 105 -18 150 -20 289
-16 273 9 391 44 878 263 l53 24 24 -52 c35 -75 33 -109 -10 -157 -101 -111
-475 -176 -945 -163 -118 3 -287 6 -375 6 -153 1 -162 0 -205 -24 -57 -32 -90
-92 -90 -165 0 -27 9 -119 20 -202 27 -205 35 -365 34 -628 -3 -421 -34 -544
-314 -1255 -309 -783 -451 -1200 -525 -1542 -91 -424 -84 -760 22 -1010 132
-311 415 -481 704 -424 248 50 539 287 770 628 l40 59 64 -60 c187 -175 538
-257 1055 -246 578 12 923 131 1063 366 80 135 102 258 122 689 21 434 76 706
353 1750 43 162 94 359 112 438 30 127 36 143 57 148 91 23 114 -66 73 -280
-22 -114 -62 -261 -164 -597 -164 -544 -187 -694 -181 -1159 2 -173 6 -326 9
-339 10 -47 15 -507 6 -591 -30 -281 -82 -452 -241 -787 -97 -205 -197 -449
-252 -613 -196 -582 -321 -1435 -263 -1792 18 -109 51 -183 106 -236 l42 -41
-6 -68 c-4 -37 -25 -192 -46 -343 -73 -512 -85 -682 -85 -1155 1 -280 9 -461
30 -635 66 -552 156 -944 350 -1525 254 -765 595 -1489 934 -1985 174 -255
344 -461 664 -803 88 -95 184 -197 213 -228 51 -54 53 -58 137 -315 87 -264
304 -954 396 -1257 64 -210 87 -324 74 -363 -7 -22 -39 -46 -144 -109 -277
-166 -399 -268 -457 -380 -18 -36 -29 -44 -94 -69 -40 -15 -116 -51 -168 -79
-124 -68 -249 -188 -303 -294 -45 -87 -77 -205 -77 -285 0 -38 -4 -60 -12 -63
-7 -2 -57 -6 -110 -9 -94 -6 -98 -5 -98 14 0 20 -4 20 -172 16 -95 -3 -335 -8
-533 -11 -198 -3 -466 -7 -595 -10 -129 -3 -379 -7 -555 -10 -176 -3 -423 -7
-550 -10 -126 -3 -399 -7 -605 -10 -206 -3 -440 -8 -520 -10 -873 -25 -2839
-26 -3030 -1 -52 7 -238 17 -313 18 -87 0 -122 -15 -133 -57 -9 -37 1 -65 49
-136 108 -158 157 -313 157 -497 0 -156 -32 -244 -118 -324 -27 -25 -67 -55
-90 -67 -195 -99 -578 -90 -808 20 -154 73 -225 187 -249 399 -27 233 -51 290
-185 435 -91 98 -107 138 -73 183 50 68 169 97 428 107 384 13 444 17 509 30
131 27 191 85 216 210 12 56 9 401 -5 695 -2 47 -7 198 -10 335 -3 138 -7 324
-10 415 -7 250 -14 826 -20 1625 -3 396 -8 806 -10 910 -3 105 -8 339 -12 520
-15 612 -8 1540 12 1667 2 13 6 64 9 113 4 50 8 108 11 130 2 22 7 63 9 90 19
189 29 285 41 390 38 320 58 486 80 670 68 551 80 715 79 1045 0 211 -4 259
-22 345 -40 187 -116 297 -238 346 -54 22 -73 24 -244 24 -102 0 -219 -4 -260
-8 -172 -18 -516 -77 -710 -122 l-105 -23 -45 28 c-66 43 -152 78 -244 102
-65 16 -118 21 -266 23 -204 4 -383 -15 -584 -60 -60 -14 -113 -22 -117 -18
-4 5 -9 222 -12 483 -3 261 -10 511 -16 555 -14 100 -47 211 -73 249 -29 39
-79 59 -115 45 -58 -22 -81 -58 -154 -241 -145 -365 -287 -520 -559 -612 -131
-43 -351 -85 -530 -100 -36 -3 -115 -10 -177 -16 -148 -14 -355 -14 -420 0
-67 15 -125 54 -168 115 -47 66 -45 82 12 107 74 33 189 21 467 -46 296 -73
378 -87 506 -87 269 -1 437 134 618 496 139 278 319 797 432 1245 30 119 80
360 80 389 0 20 3 22 28 16 75 -20 101 -23 161 -20 36 2 81 7 99 11 l34 7 -9
-309 c-22 -822 9 -1177 132 -1496 86 -223 192 -344 349 -398 157 -54 305 -65
851 -65 818 0 1016 19 1215 116 119 59 229 169 288 289 72 148 119 354 141
615 10 114 7 573 -4 700 -53 605 -173 1024 -371 1301 l-54 75 16 72 c24 116
35 318 29 527 -4 107 -8 211 -10 230 -2 19 -7 100 -10 180 -4 80 -9 147 -10
150 -18 31 -26 709 -10 746 10 21 13 20 106 -35 287 -170 524 -194 706 -70
196 133 396 469 457 771 51 247 27 434 -98 781 -33 91 -60 199 -96 380 -61
304 -98 444 -233 907 -132 449 -153 527 -226 845 -89 392 -122 475 -226 574
-93 88 -158 110 -520 176 -412 75 -636 140 -917 264 -76 34 -199 88 -274 121
-369 162 -531 165 -675 13 -51 -54 -86 -121 -130 -247 -35 -101 -75 -112 -116
-32 -36 69 -26 303 17 418 30 80 30 79 74 64 50 -17 103 -10 142 20 75 56 30
157 -76 171 -22 3 -40 9 -40 13 0 4 16 68 35 143 39 155 55 305 49 462 -2 61
-5 153 -6 206 l-2 97 71 76 c82 89 119 159 140 264 33 160 -33 257 -160 236
-78 -12 -99 19 -182 281 -31 99 -78 220 -103 269 -117 228 -305 337 -579 337
-131 -1 -207 -11 -329 -47 -272 -78 -570 -239 -720 -389 -85 -85 -128 -166
-152 -286 l-16 -84 -12 61 c-98 484 -37 730 234 946 94 75 249 150 377 185 89
23 119 26 270 27 197 1 279 -16 417 -84 108 -54 161 -92 243 -175 125 -125
210 -271 335 -576 100 -245 136 -299 199 -299 87 0 123 131 116 415 -11 403
-96 647 -286 818 -114 104 -248 157 -394 157 -101 0 -135 10 -188 55 -59 51
-164 101 -254 121 -96 21 -285 14 -422 -15 -130 -29 -317 -93 -437 -150 -306
-146 -469 -332 -541 -617 -28 -108 -24 -438 5 -604 57 -314 136 -545 206 -602
11 -9 19 -18 16 -20 -3 -2 -23 -13 -45 -25 -61 -33 -88 -90 -82 -175 5 -85 29
-123 142 -234 103 -101 128 -147 195 -370 67 -222 113 -315 196 -404 114 -120
229 -158 331 -109 29 14 73 55 132 123 99 114 161 155 265 176 110 22 185 -1
311 -100 44 -34 112 -82 150 -107 125 -80 169 -138 163 -216 -3 -38 -7 -44
-43 -62 -34 -16 -71 -20 -265 -26 -247 -7 -301 -18 -407 -79 -80 -46 -178
-143 -209 -207 -26 -53 -27 -57 -13 -97 11 -33 23 -45 60 -64 45 -22 55 -23
315 -23 148 1 275 -3 282 -8 22 -14 -62 -48 -199 -82 -170 -42 -217 -69 -262
-154 -46 -87 -19 -285 69 -509 87 -219 176 -302 271 -252 53 27 76 62 218 331
99 188 188 302 275 353 36 22 58 27 111 27 57 0 76 -5 150 -42 149 -74 452
-321 747 -607 182 -177 262 -273 293 -353 43 -112 37 -413 -17 -778 -14 -93
-30 -187 -35 -208 -17 -65 -13 -130 11 -178 13 -24 68 -89 124 -145 142 -141
233 -184 348 -161 73 15 111 99 71 157 -9 14 -47 57 -85 97 -84 87 -115 151
-130 269 -25 192 35 500 114 590 37 42 78 45 146 10 94 -48 187 -142 367 -371
160 -203 228 -267 478 -454 317 -236 441 -370 542 -584 130 -275 121 -540 -23
-690 -116 -121 -339 -230 -577 -282 -173 -38 -234 -57 -281 -89 l-49 -33 -145
110 c-433 330 -790 665 -1094 1026 -163 193 -264 300 -322 338 -13 8 -24 18
-24 22 0 4 51 45 113 91 146 109 301 264 355 355 85 144 118 297 109 504 -12
275 -85 462 -242 616 -187 184 -470 293 -735 282 -123 -4 -186 -22 -261 -71
-35 -23 -44 -25 -116 -20 -333 25 -636 -265 -717 -687 -5 -24 -8 -25 -64 -21
-57 4 -61 3 -102 -34 -23 -21 -65 -72 -93 -113 -98 -146 -168 -200 -241 -187
-81 15 -155 170 -207 437 -17 84 -23 152 -23 259 -1 177 8 210 104 353 180
272 215 423 170 747 -26 188 -24 291 8 363 17 39 35 56 110 105 50 33 186 108
303 168 244 124 299 166 299 228 0 71 -63 104 -180 93 -165 -15 -443 -216
-572 -412 -25 -39 -67 -88 -94 -110 -27 -22 -116 -105 -199 -185 -82 -80 -180
-167 -216 -193 -79 -56 -211 -120 -447 -216 -242 -99 -397 -170 -621 -284
-285 -145 -347 -192 -398 -304 -48 -104 -59 -222 -68 -703 -3 -157 -8 -343
-13 -415 -4 -71 -7 -202 -7 -290 0 -146 2 -164 23 -206 34 -69 95 -87 170 -52
52 25 179 149 366 358 256 287 374 411 483 510 97 87 203 158 203 136 0 -39
-418 -497 -656 -717 -221 -206 -306 -268 -568 -415 -281 -158 -400 -311 -480
-621 -54 -207 -61 -489 -16 -653 72 -267 258 -442 556 -522 90 -24 115 -27
274 -27 161 1 182 3 263 27 99 31 190 73 260 123 26 19 50 34 53 34 3 0 4 -15
1 -32 -3 -18 -9 -82 -12 -143 -9 -149 -31 -348 -51 -442 -9 -43 -60 -214 -115
-380 -183 -559 -216 -726 -171 -858 l17 -50 -37 -95 c-132 -340 -176 -674
-176 -1325 1 -439 13 -712 44 -1015 14 -140 54 -362 73 -412 7 -20 2 -43 -24
-109 -44 -108 -78 -243 -101 -394 -26 -169 -26 -644 -1 -870 37 -331 75 -533
183 -975 168 -682 208 -885 289 -1457 16 -115 57 -531 70 -713 3 -47 8 -110
10 -140 7 -93 21 -335 30 -520 3 -63 7 -158 10 -210 2 -52 7 -169 10 -260 3
-91 8 -221 10 -290 5 -148 12 -380 25 -925 20 -816 42 -1385 65 -1690 2 -33 7
-121 11 -195 l6 -135 -173 -170 c-171 -167 -352 -320 -599 -505 -289 -217
-370 -291 -370 -341 0 -45 26 -69 75 -69 124 0 570 195 810 355 123 81 243
198 292 285 48 84 74 182 80 298 6 101 6 102 37 121 44 27 96 31 200 15 285
-44 465 -54 826 -45 190 5 212 -1 257 -72 63 -99 111 -308 98 -427 -17 -157
-78 -305 -156 -381 -88 -86 -197 -122 -534 -178 -104 -18 -228 -41 -275 -52
-175 -40 -427 -135 -577 -215 -302 -164 -352 -188 -466 -223 -103 -31 -188
-42 -327 -42 -139 0 -237 12 -352 41 -111 29 -183 66 -252 131 -34 31 -74 63
-91 71 -135 69 -710 84 -2385 64 -393 -4 -776 -9 -850 -11 -74 -2 -441 -4
-815 -5 -570 -3 -700 0 -805 13 -85 11 -190 15 -326 13 l-201 -2 13 33 c27 64
14 135 -34 186 -60 64 -137 84 -350 93 -81 4 -147 7 -148 8 -1 3 -201 787
-418 1646 -301 1188 -363 1419 -388 1452 -24 30 -72 27 -94 -7 -17 -26 -22 6
92 -585 106 -552 251 -1415 375 -2235 16 -110 33 -220 36 -244 l6 -44 -109 6
c-276 16 -508 97 -753 261 -83 56 -278 208 -421 327 l-43 37 41 49 c125 148
143 359 78 923 -14 118 -28 251 -31 295 -4 44 -9 91 -12 105 -2 14 -6 153 -8
310 -4 314 7 442 50 616 26 102 85 267 108 298 8 11 54 24 147 41 74 14 302
59 505 100 493 100 578 112 1000 140 82 5 147 10 295 20 305 21 712 156 1006
333 266 159 561 449 806 788 379 524 637 1147 712 1719 30 225 35 310 31 570
-5 351 -36 592 -125 961 -104 430 -261 860 -457 1244 -201 393 -389 636 -609
787 -108 74 -172 106 -351 179 -187 76 -252 106 -358 165 -77 42 -95 58 -122
102 -17 29 -84 108 -149 177 -136 146 -189 216 -244 328 -109 221 -136 486
-79 786 27 142 67 259 146 430 79 169 86 204 49 241 -33 33 -70 29 -124 -11
-121 -93 -282 -440 -354 -764 -32 -148 -33 -406 0 -524 71 -257 277 -507 602
-731 47 -32 87 -60 89 -62 3 -2 -1 -9 -8 -16 -9 -9 -69 -12 -214 -13 -201 -2
-202 -2 -278 27 -235 90 -508 391 -616 678 -37 98 -67 237 -118 536 -84 492
-88 520 -89 690 l-1 160 33 68 c30 60 43 75 130 140 154 115 199 191 228 381
29 188 3 461 -71 741 -60 231 -148 457 -340 880 -165 364 -246 553 -284 662
-29 85 -49 173 -39 173 11 0 171 -193 250 -302 76 -104 125 -182 211 -340 77
-140 182 -416 236 -620 70 -266 83 -383 82 -781 -1 -260 2 -354 13 -408 43
-203 186 -315 581 -454 212 -75 327 -105 402 -105 260 0 260 218 -1 945 -279
780 -509 1310 -688 1580 -72 110 -184 243 -269 319 -196 178 -477 342 -662
388 -78 19 -96 20 -145 10 l-56 -12 -46 40 c-175 155 -394 331 -552 443 -17
13 -9 11 32 -5 106 -41 190 -59 230 -48 166 45 84 254 -417 1059 -471 757
-1122 1722 -1299 1925 -38 43 -83 102 -101 130 -87 142 -299 297 -486 355 -37
11 -82 21 -101 23 l-34 2 -6 85 c-4 48 -18 176 -32 286 -25 205 -27 225 -44
380 -22 206 -31 384 -31 630 0 143 2 269 5 280 2 11 7 76 11 144 4 69 9 134
11 145 9 45 5 364 -5 415 -6 29 -11 55 -11 57 0 2 10 4 23 4 53 0 130 32 174
73 58 54 76 96 70 169 l-5 56 58 60 c126 129 182 332 135 489 -15 50 -14 54
11 129 32 97 43 253 24 375 -13 84 -14 113 -5 178 7 59 -23 197 -72 324 l-46
122 -1 195 c-2 167 -5 207 -25 280 -73 275 -255 501 -466 579 -75 28 -199 36
-280 17z m278 -144 c180 -89 326 -309 367 -552 8 -49 11 -116 7 -191 -8 -142
1 -195 58 -348 23 -64 46 -133 49 -153 l7 -37 -30 10 c-65 23 -148 -37 -172
-123 -6 -24 -9 -71 -7 -105 3 -52 9 -68 33 -93 43 -45 97 -49 183 -14 25 11
10 -260 -17 -288 -4 -4 -29 1 -57 11 -65 25 -145 31 -216 16 -164 -33 -159
-189 9 -271 77 -38 156 -42 215 -11 47 24 47 24 50 3 2 -12 0 -50 -4 -86 -10
-85 -53 -172 -117 -234 l-49 -48 -46 17 c-125 48 -244 -22 -199 -116 18 -38
61 -52 143 -47 68 4 70 3 70 -20 0 -54 -52 -93 -142 -106 -46 -7 -46 -7 -77
37 -38 56 -93 105 -145 128 -57 26 -148 25 -203 -2 -84 -41 -148 -149 -124
-211 17 -44 53 -55 211 -62 225 -11 214 -7 227 -96 14 -97 10 -236 -14 -585
-10 -139 -10 -636 -1 -775 8 -119 31 -339 52 -510 8 -63 17 -137 20 -165 3
-27 10 -88 16 -135 5 -46 10 -104 10 -127 0 -38 -3 -43 -23 -43 -102 0 -357
-110 -425 -184 -44 -48 -55 -94 -32 -136 16 -31 72 -58 142 -70 l68 -12 -28
-34 c-19 -23 -68 -54 -148 -93 -129 -64 -217 -133 -240 -188 -48 -113 40 -208
219 -238 36 -6 37 -7 37 -52 0 -63 29 -106 93 -137 91 -44 196 -52 407 -30
105 12 244 53 349 105 89 44 118 65 191 138 89 88 151 188 166 267 3 19 9 34
13 34 22 0 507 -703 863 -1250 323 -498 638 -1010 751 -1221 59 -110 120 -254
115 -269 -14 -39 -606 252 -883 434 -238 157 -280 214 -475 646 -164 365 -420
801 -559 952 -75 81 -119 109 -174 113 -23 2 -67 10 -98 19 -62 18 -126 13
-239 -20 -40 -12 -124 -18 -315 -23 -222 -6 -265 -9 -293 -24 -52 -28 -65 -72
-58 -187 3 -52 8 -221 11 -375 8 -425 26 -556 93 -693 80 -163 206 -228 492
-250 244 -20 373 6 426 85 53 78 49 260 -16 708 -35 244 -53 476 -40 525 5 20
9 11 18 -40 12 -68 15 -95 32 -295 28 -308 117 -496 321 -676 188 -166 689
-545 904 -684 493 -318 784 -530 1041 -756 l111 -98 1 -88 c0 -143 56 -305
254 -738 401 -876 503 -1211 493 -1620 -6 -250 -39 -322 -201 -438 -160 -114
-213 -245 -201 -492 7 -130 19 -214 97 -675 67 -402 94 -506 170 -662 116
-239 344 -488 543 -594 l68 -36 -44 -46 c-56 -61 -86 -112 -140 -248 -151
-372 -304 -574 -435 -574 -91 0 -252 110 -367 250 -114 140 -179 281 -219 481
l-25 124 26 65 c23 59 25 74 20 155 -10 156 -96 492 -176 688 -124 304 -306
443 -510 391 -130 -34 -269 -144 -318 -251 -62 -135 14 -245 127 -184 19 10
61 33 93 51 53 29 64 32 125 28 88 -5 165 -43 245 -118 129 -121 182 -259 221
-580 9 -69 18 -141 21 -161 5 -34 3 -37 -43 -62 -101 -55 -292 -92 -584 -113
l-98 -7 0 37 c0 130 -146 200 -400 191 -137 -4 -274 -22 -595 -75 -294 -49
-498 -80 -501 -77 -1 1 -5 142 -9 312 -4 171 -8 333 -10 360 -2 28 -6 149 -10
270 -4 121 -9 222 -11 226 -1 3 -4 50 -5 105 l-2 99 64 21 c195 64 281 150
331 331 19 71 22 106 24 398 2 342 -3 461 -42 850 -13 137 -38 357 -49 445 -3
19 -16 123 -30 230 -14 107 -36 281 -50 385 -46 347 -83 648 -100 810 -28 272
-53 376 -99 414 -8 7 -32 15 -53 18 -99 13 -222 -145 -291 -372 -17 -55 -34
-120 -38 -145 -3 -25 -8 -54 -11 -65 -9 -38 -10 -340 -2 -440 10 -134 46 -501
64 -660 15 -131 27 -256 45 -455 25 -287 28 -315 40 -490 5 -80 12 -174 15
-210 4 -65 11 -171 20 -305 2 -38 7 -119 10 -180 3 -60 8 -132 10 -160 2 -27
7 -111 11 -186 l6 -137 -107 -7 c-173 -12 -267 6 -317 62 -56 61 -111 254
-140 483 -15 127 -17 575 -3 890 12 266 13 1149 2 1369 -4 85 -14 200 -22 255
-26 187 -60 255 -136 278 -61 18 -122 -7 -287 -116 -239 -158 -330 -198 -697
-307 -266 -79 -322 -104 -406 -188 -125 -125 -193 -319 -272 -776 l-12 -70 -2
158 c-4 384 -92 540 -323 578 -98 16 -218 2 -503 -61 -500 -110 -622 -126
-881 -115 -105 4 -231 7 -280 7 -80 -2 -87 0 -81 16 4 9 25 64 47 122 201 530
257 638 400 776 40 38 118 102 174 142 122 86 146 121 123 186 -43 124 -277
142 -426 33 -137 -100 -258 -265 -421 -572 -85 -162 -104 -185 -146 -185 -43
0 -130 92 -184 198 -101 194 -192 564 -242 982 -6 52 -13 109 -15 125 -10 72
-45 481 -50 590 -4 66 -8 131 -10 143 -21 134 -26 1121 -7 1334 26 288 77 478
158 588 24 33 77 85 117 117 544 427 768 593 950 702 194 117 611 297 588 253
-16 -30 -135 -138 -191 -174 -84 -54 -149 -84 -350 -165 -279 -112 -391 -177
-524 -302 -160 -152 -258 -346 -241 -475 15 -109 44 -159 209 -366 130 -164
200 -271 253 -393 85 -192 112 -338 149 -802 33 -416 87 -707 190 -1028 95
-292 255 -632 352 -747 l29 -34 -72 -31 c-208 -91 -419 -273 -495 -430 -112
-228 -6 -442 250 -506 76 -19 280 -17 415 5 148 24 434 96 820 206 176 50 552
156 835 235 284 79 544 154 578 168 164 67 337 232 481 460 152 240 202 272
509 322 176 29 229 43 293 75 69 36 107 69 153 134 83 119 124 245 133 406 11
209 -54 350 -210 455 -162 110 -457 125 -756 39 -46 -14 -85 -23 -87 -22 -2 2
2 33 8 70 10 53 9 73 -3 103 -19 51 -57 78 -107 77 -140 -2 -246 -182 -356
-601 -50 -189 -84 -280 -163 -434 -72 -142 -116 -194 -210 -257 -291 -191
-1011 -457 -1398 -515 -107 -16 -271 -20 -279 -7 -3 5 91 27 207 51 650 130
879 203 991 316 113 113 127 245 72 700 -13 113 -57 499 -66 591 -6 54 -12
117 -15 139 -3 22 -16 146 -30 275 -14 129 -27 253 -29 275 -3 22 -8 65 -11
95 -51 480 -120 810 -200 970 -72 143 -134 207 -385 400 -74 57 -161 126 -193
154 -137 120 -227 273 -293 496 -20 69 -44 139 -54 157 -18 30 -18 33 0 92 42
135 54 229 54 431 1 211 -5 242 -60 322 -23 33 -48 52 -177 137 -51 33 -79 90
-84 171 -6 88 14 151 52 169 53 24 63 41 105 171 61 188 164 357 368 600 195
232 328 327 473 338 136 10 298 -32 474 -121 79 -40 116 -67 176 -127 94 -93
138 -178 210 -402 38 -117 60 -170 82 -195 l30 -34 -6 -177 c-9 -268 -39 -402
-123 -562 -54 -102 -133 -213 -211 -297 l-58 -62 -125 -8 c-142 -9 -329 -10
-575 -3 -190 6 -224 -2 -242 -57 -36 -104 90 -217 289 -259 94 -20 265 -20
343 1 88 23 215 88 292 151 61 49 72 54 106 50 45 -5 80 -27 104 -63 22 -34
24 -166 4 -266 -13 -63 -16 -70 -59 -99 -156 -108 -324 -362 -413 -628 -53
-161 -40 -230 43 -230 35 0 46 7 91 53 125 128 322 463 398 679 22 63 26 68
58 74 62 12 155 -5 316 -56 229 -73 310 -71 379 10 28 34 44 82 57 175 10 74
1 1087 -16 1695 -10 339 -31 463 -104 609 -69 136 -76 173 -75 376 0 111 7
226 18 300 63 446 143 643 361 890 184 208 220 278 180 354 -23 45 -59 53
-233 55 -176 1 -205 10 -250 76 -45 67 -81 228 -82 360 0 226 95 393 268 472
88 40 125 48 219 44 68 -2 92 -8 146 -34z m12790 -1972 c31 -12 88 -46 126
-76 38 -29 81 -58 96 -64 14 -5 76 -12 138 -15 135 -6 194 -22 272 -73 121
-78 217 -211 264 -366 45 -147 72 -426 56 -590 -8 -94 -5 -98 -86 102 -124
304 -224 475 -360 610 -203 203 -443 301 -744 302 -443 1 -879 -268 -1000
-617 -32 -91 -45 -178 -45 -293 1 -119 10 -196 56 -434 19 -103 33 -190 30
-193 -8 -8 -72 204 -100 329 -61 272 -75 547 -36 708 66 273 239 444 590 583
292 117 576 149 743 87z m-14938 -75 c405 -70 861 -275 1043 -470 120 -128
164 -267 161 -511 -1 -133 -14 -233 -41 -314 -11 -33 -12 -30 -30 85 -67 445
-258 690 -688 885 -250 113 -505 173 -725 172 -385 -2 -625 -168 -760 -529
-56 -147 -96 -350 -134 -678 -11 -93 -27 -192 -35 -218 -14 -46 -40 -87 -56
-87 -12 0 -37 104 -66 265 -31 178 -42 445 -25 600 23 216 98 404 202 507 92
92 173 122 364 133 169 9 203 18 307 87 50 33 103 64 117 70 69 27 215 28 366
3z m26660 -718 c237 -77 317 -97 660 -167 109 -23 242 -55 295 -72 274 -87
470 -243 644 -510 102 -156 146 -279 146 -405 0 -65 -23 -163 -39 -163 -4 0
-22 26 -41 58 -237 399 -508 705 -781 882 -259 168 -567 220 -853 145 l-98
-26 -37 27 c-106 79 -176 143 -212 192 -39 56 -51 105 -26 116 31 14 130 -8
342 -77z m-11446 -51 c207 -56 305 -181 407 -515 53 -176 71 -220 113 -278 42
-57 82 -77 161 -77 l65 -1 -1 -55 c-3 -90 -36 -161 -119 -249 -41 -44 -78 -94
-85 -115 -8 -26 -10 -102 -7 -274 6 -268 0 -333 -47 -517 -19 -71 -36 -153
-39 -181 -4 -36 -15 -65 -38 -98 l-33 -46 -18 49 c-26 68 -84 130 -181 192
-45 28 -111 75 -147 104 -87 70 -134 98 -198 120 -99 32 -260 17 -359 -34 -60
-30 -116 -79 -197 -173 -99 -114 -129 -123 -218 -66 -91 58 -161 170 -213 344
-96 317 -112 350 -236 479 -110 114 -119 128 -119 185 0 40 1 42 55 66 63 29
91 60 105 118 6 22 19 57 29 76 27 50 39 102 56 238 16 127 31 182 70 248 104
177 569 422 900 474 76 11 224 4 294 -14z m9438 -211 c165 -49 359 -249 566
-583 92 -149 373 -661 350 -637 -5 6 -50 69 -98 140 -264 386 -543 722 -679
815 -84 57 -165 68 -232 32 -48 -26 -108 -108 -164 -225 -78 -163 -144 -352
-315 -907 -156 -506 -191 -611 -267 -800 -55 -139 -156 -340 -174 -347 -6 -2
-47 5 -90 16 -44 11 -107 23 -142 27 -49 5 -65 11 -74 28 -7 11 -13 73 -14
136 -6 283 130 688 431 1291 202 404 391 713 532 869 129 142 237 184 370 145z
m1974 -159 c19 -13 145 -91 280 -171 338 -205 409 -254 525 -370 104 -104 157
-177 239 -330 163 -305 205 -343 356 -330 99 9 133 -3 160 -56 10 -21 19 -46
19 -56 0 -40 -63 -145 -161 -270 -129 -163 -237 -319 -255 -370 -39 -111 4
-218 122 -299 29 -20 54 -39 54 -41 0 -2 -22 -31 -49 -66 -26 -34 -69 -98 -93
-142 -101 -179 -256 -632 -282 -826 l-7 -45 -72 24 c-94 31 -253 36 -545 14
-218 -16 -386 -10 -514 19 l-47 10 37 49 c20 27 59 91 86 142 58 111 159 266
215 328 l39 45 52 -58 c92 -102 188 -133 324 -103 137 31 315 131 490 277 247
205 315 406 166 489 -41 23 -55 25 -150 24 -83 -1 -124 -7 -195 -28 -170 -51
-383 -175 -570 -331 -49 -41 -92 -75 -95 -75 -3 0 -23 23 -44 50 -52 68 -125
133 -221 195 -87 57 -138 81 -320 150 -66 25 -136 57 -157 70 -50 33 -89 116
-95 203 -5 63 -3 71 36 144 23 43 41 88 41 102 0 16 7 27 20 31 58 18 78 103
35 153 -14 17 -25 33 -25 37 0 4 22 41 50 81 104 156 93 248 -42 347 -75 54
-74 49 -17 112 55 61 138 187 157 238 11 28 22 86 25 127 13 175 96 342 215
433 53 40 150 97 167 97 6 0 26 -11 46 -24z m-1903 -206 c147 -99 410 -425
752 -935 195 -291 293 -411 360 -442 22 -10 40 -23 40 -29 0 -7 -16 -45 -35
-86 -20 -41 -38 -97 -41 -124 -12 -102 35 -246 104 -317 44 -46 101 -77 242
-129 221 -82 338 -153 440 -265 92 -101 91 -91 20 -175 -79 -93 -153 -205
-225 -340 -72 -134 -104 -172 -160 -194 l-45 -17 -87 33 c-121 46 -229 98
-357 174 -120 71 -183 91 -248 81 -65 -10 -192 -76 -298 -155 -52 -39 -100
-73 -106 -76 -6 -3 -49 20 -95 51 -46 31 -201 114 -344 185 -311 154 -375 192
-595 355 -93 69 -197 142 -230 162 -33 19 -60 39 -60 44 0 4 16 35 35 68 104
177 199 436 396 1076 187 609 265 829 345 972 39 71 87 123 114 123 10 0 45
-18 78 -40z m-24498 -1465 c69 -1 157 1 197 4 39 3 69 3 66 -2 -8 -14 -98 -55
-158 -73 -73 -21 -236 -24 -315 -5 -67 16 -153 55 -171 78 -13 15 -3 16 121 8
74 -4 191 -9 260 -10z m28735 -454 c306 -79 602 -353 795 -734 138 -275 214
-586 238 -972 13 -219 5 -1006 -13 -1153 -1 -15 -6 -90 -9 -167 -4 -77 -9
-162 -11 -190 -2 -27 -7 -90 -10 -140 -11 -167 -39 -511 -56 -665 -55 -531
-111 -806 -199 -987 -41 -84 -65 -118 -137 -193 -48 -51 -115 -112 -149 -136
l-63 -45 -61 31 c-129 65 -317 113 -555 141 -71 9 -228 13 -440 13 -654 -1
-1164 -75 -1283 -187 -130 -121 -15 -278 272 -371 190 -62 363 -81 721 -80
540 2 950 97 1346 311 13 8 127 -98 165 -154 43 -62 67 -114 86 -191 8 -33 12
-235 13 -687 1 -669 4 -727 51 -1030 97 -622 97 -668 -7 -779 -53 -59 -101
-85 -339 -189 -175 -76 -503 -197 -534 -197 -7 0 -20 16 -29 36 -29 60 -102
129 -168 159 -108 48 -217 46 -513 -11 -70 -14 -130 -23 -133 -20 -3 3 -9 27
-14 53 -21 109 -121 216 -247 263 -186 70 -541 95 -917 65 -27 -2 -88 -7 -135
-10 -81 -6 -348 -32 -400 -40 -14 -2 -47 -6 -75 -10 -27 -3 -144 -22 -260 -41
-115 -19 -219 -36 -230 -37 -24 -2 -28 28 -125 848 -39 323 -55 466 -80 705
-11 107 -25 236 -30 285 -34 326 -76 842 -87 1075 -4 91 -8 350 -7 575 0 532
17 727 114 1366 57 370 58 433 10 459 -56 30 -97 -5 -160 -133 -198 -406 -327
-1177 -325 -1932 1 -134 14 -490 19 -525 3 -14 7 -63 11 -110 7 -91 18 -202
64 -650 16 -157 32 -321 36 -365 3 -44 8 -100 10 -125 3 -25 9 -130 15 -235 5
-104 12 -230 15 -280 2 -49 7 -153 10 -230 3 -77 8 -171 10 -210 10 -142 14
-522 7 -579 l-7 -59 -128 -39 c-498 -149 -869 -363 -1032 -593 -84 -118 -151
-285 -176 -437 -7 -43 -16 -78 -19 -78 -13 0 -40 73 -50 137 -11 64 -14 359
-6 413 2 14 7 57 11 95 36 389 137 880 252 1225 50 151 125 330 251 606 200
436 253 648 256 1024 1 152 -11 482 -19 548 -2 15 -4 133 -5 262 -1 400 28
558 217 1180 162 536 188 743 105 842 -30 35 -94 67 -134 68 l-27 0 15 53 c43
146 227 416 452 662 l51 56 64 -54 c250 -212 936 -569 1707 -887 470 -195 699
-258 966 -267 169 -6 284 8 420 53 372 121 755 432 1010 819 368 559 485 1326
274 1792 -67 148 -199 297 -349 395 -140 92 -298 160 -723 313 -131 47 -263
96 -295 111 -55 24 -57 26 -38 40 65 50 235 116 355 139 103 19 290 13 395
-14z m-29660 -98 c91 -290 200 -430 520 -673 206 -156 292 -244 343 -351 67
-140 102 -281 147 -599 14 -102 28 -201 30 -220 10 -83 36 -319 55 -495 11
-104 45 -415 76 -690 62 -554 73 -725 55 -803 -40 -165 -213 -231 -1036 -397
-181 -37 -333 -69 -336 -71 -10 -6 -94 88 -132 148 -121 188 -263 548 -347
873 -61 239 -90 426 -115 735 -41 525 -77 705 -187 924 -57 114 -130 223 -255
379 -125 156 -160 215 -169 280 -13 93 51 220 176 351 124 130 244 203 500
304 205 81 251 102 345 157 99 58 209 153 256 221 16 24 32 44 34 44 2 0 20
-53 40 -117z m28399 -13 c34 -13 33 -42 -3 -105 -58 -101 -174 -209 -341 -317
-105 -69 -148 -90 -229 -117 -120 -39 -180 -25 -254 60 -26 30 -47 57 -47 61
0 4 44 44 97 88 194 161 395 277 553 319 81 22 184 27 224 11z m-12169 -148
c0 -152 15 -217 63 -274 72 -85 207 -81 262 7 11 17 33 71 51 120 42 120 86
186 146 222 41 24 58 28 123 27 95 -1 187 -31 451 -150 441 -198 653 -268
1014 -334 424 -77 458 -86 535 -133 98 -59 138 -141 202 -407 111 -464 157
-638 263 -1000 130 -443 178 -631 230 -900 43 -220 63 -295 116 -437 90 -238
115 -407 89 -595 -42 -317 -269 -704 -466 -795 -75 -35 -173 -42 -264 -18 -72
18 -236 94 -318 147 l-53 34 36 17 c19 9 95 30 168 46 401 88 680 253 777 458
90 192 68 459 -61 718 -104 210 -253 369 -560 597 -107 80 -223 171 -258 203
-35 33 -132 145 -216 250 -84 105 -191 227 -237 271 -214 202 -392 204 -492 6
-62 -125 -99 -306 -99 -497 0 -209 37 -313 156 -441 l71 -77 -34 8 c-71 14
-222 137 -285 232 l-25 39 16 79 c20 107 51 313 59 400 4 39 9 81 11 95 2 14
7 97 11 185 9 246 -13 360 -95 483 -51 77 -242 273 -441 451 -437 392 -624
512 -801 515 -65 0 -84 -4 -144 -32 -134 -63 -224 -180 -406 -524 -39 -75 -81
-144 -91 -154 -18 -17 -20 -16 -34 2 -88 112 -192 449 -171 558 13 68 41 83
254 136 215 53 329 176 239 257 -47 43 -80 47 -347 49 -336 3 -320 2 -320 18
0 23 132 139 191 168 83 40 127 47 315 48 177 2 278 15 329 43 17 9 32 16 35
17 3 0 5 -62 5 -138z m-13022 93 c67 -23 178 -84 227 -125 l25 -21 -38 6 c-65
10 -259 14 -329 6 -38 -4 -68 -7 -68 -6 0 1 9 19 19 41 10 21 22 60 26 86 7
46 8 47 39 41 17 -3 62 -16 99 -28z m-257 -7 c-16 -81 -79 -120 -203 -126 -83
-5 -153 3 -153 16 0 28 267 141 334 142 27 0 28 -2 22 -32z m25989 -116 c66
-27 212 -82 325 -121 235 -83 387 -144 492 -197 304 -152 463 -354 524 -671
27 -134 24 -401 -5 -566 -65 -374 -199 -693 -409 -973 -242 -323 -565 -568
-878 -667 -119 -38 -188 -48 -336 -48 -228 -1 -468 61 -878 226 -593 239
-1221 545 -1560 761 -116 73 -249 173 -250 186 0 4 24 25 52 47 l53 40 43 -25
c104 -61 237 -75 319 -32 84 43 105 128 46 191 -71 75 -199 92 -327 43 -79
-30 -78 -31 -122 60 -59 125 -15 292 122 458 127 154 297 238 600 296 l121 23
114 -26 c196 -45 254 -52 454 -50 105 1 204 4 220 7 17 3 98 9 180 12 171 8
262 -3 341 -41 51 -25 51 -26 57 -79 18 -176 163 -396 262 -396 137 0 81 251
-102 459 -50 56 -52 62 -47 103 17 140 57 288 141 523 82 230 158 376 245 471
49 53 38 54 203 -14z m-4933 -55 c97 -97 210 -121 313 -67 55 29 57 29 88 13
48 -24 140 -87 257 -177 186 -141 309 -215 594 -358 154 -77 311 -159 348
-184 l69 -44 -78 -67 c-211 -180 -294 -233 -389 -250 -127 -23 -209 5 -634
217 -401 201 -495 231 -872 280 -86 11 -185 29 -221 40 -119 37 -197 112 -197
191 0 61 53 149 135 227 127 121 292 200 460 221 39 5 71 9 72 10 1 0 26 -23
55 -52z m-20632 -77 c88 -14 148 -35 204 -70 l46 -30 0 -59 c0 -155 -126 -319
-315 -411 -182 -88 -506 -127 -629 -76 -35 14 -41 24 -36 56 3 22 4 22 72 27
220 14 507 86 574 145 26 23 34 38 34 64 0 77 -90 110 -280 101 -184 -8 -296
-49 -403 -147 l-55 -51 -69 11 c-77 12 -136 39 -141 64 -6 29 125 124 223 162
42 16 44 15 73 -6 43 -32 124 -24 190 19 73 47 99 103 67 148 -19 27 -17 28
70 42 136 22 278 26 375 11z m11525 -58 c1 -77 10 -174 25 -253 13 -64 16
-210 6 -259 -24 -119 -69 -219 -151 -338 -120 -176 -151 -278 -141 -465 10
-185 36 -330 87 -489 83 -259 221 -357 394 -279 63 29 115 81 200 200 43 61
85 111 94 111 8 0 25 -10 38 -22 20 -18 23 -31 23 -88 0 -154 40 -352 91 -454
42 -83 88 -135 158 -180 66 -43 62 -35 86 -186 18 -120 32 -248 40 -370 3 -52
8 -117 10 -145 10 -114 6 -346 -9 -445 -18 -125 -89 -568 -117 -730 -156 -913
-233 -1413 -254 -1630 -3 -36 -8 -81 -10 -100 -19 -151 -25 -387 -14 -505 17
-181 68 -315 151 -402 29 -30 30 -35 24 -85 -37 -284 -227 -945 -389 -1348
-119 -300 -211 -462 -324 -572 -105 -102 -213 -136 -379 -119 -113 12 -148 19
-401 80 -114 28 -239 55 -277 62 -116 19 -227 6 -307 -38 -15 -8 -60 257 -74
432 -3 44 -8 94 -10 110 -2 17 -6 104 -10 195 -4 91 -8 176 -11 190 -5 29 -4
778 1 830 1 19 6 80 10 135 7 112 7 117 30 268 28 186 120 517 143 517 4 0 27
-7 52 -16 54 -19 227 -27 320 -13 103 14 221 55 264 90 98 82 84 213 -35 324
-74 70 -147 100 -239 100 -65 0 -85 -5 -142 -33 -65 -32 -145 -100 -202 -172
l-27 -35 5 72 c8 100 51 259 160 591 135 412 166 546 181 802 7 124 11 168 26
314 l11 109 60 71 c72 85 185 244 300 421 269 412 398 681 482 1007 78 300 81
360 19 450 -25 37 -37 67 -39 98 -10 121 -24 162 -142 399 -108 217 -162 291
-214 291 -68 0 -98 -48 -98 -158 0 -166 73 -318 251 -525 43 -51 79 -100 79
-111 0 -69 -111 -320 -265 -596 -262 -469 -356 -656 -430 -854 -43 -118 -91
-294 -100 -374 -7 -53 -11 -61 -64 -110 -70 -66 -176 -133 -262 -166 -272
-102 -645 -39 -840 142 -135 124 -188 270 -190 519 -1 152 19 284 62 420 38
120 73 189 134 271 59 78 131 132 328 242 218 122 312 193 537 401 123 114
479 486 578 604 69 81 112 166 112 222 0 94 -87 130 -195 79 -117 -54 -318
-245 -644 -611 -267 -301 -379 -410 -399 -391 -9 10 -9 316 0 476 4 69 10 260
13 425 9 514 20 585 101 675 74 81 484 288 945 475 196 80 326 142 407 195 34
22 128 103 207 180 80 77 148 140 153 140 4 0 7 -30 7 -68z m11445 -538 c52
-30 143 -79 202 -108 l108 -53 -88 -23 c-48 -12 -119 -35 -157 -50 -412 -162
-644 -610 -460 -888 l33 -51 -51 -40 c-62 -48 -67 -45 -118 56 -32 63 -34 73
-33 168 0 96 3 108 61 280 93 272 101 381 39 503 l-25 49 22 20 c90 82 287
193 342 193 19 0 67 -21 125 -56z m-3770 -89 c144 -11 308 -51 443 -109 97
-42 276 -171 260 -187 -18 -18 -317 -144 -438 -185 -167 -56 -288 -76 -445
-76 -254 0 -526 75 -638 176 -72 66 -72 123 0 195 103 103 295 171 539 190 94
8 122 7 279 -4z m-19337 -262 c-15 -69 -5 -494 12 -523 1 -3 6 -30 9 -60 4
-30 15 -118 26 -195 38 -267 45 -448 20 -495 -6 -11 -23 -26 -38 -32 -70 -27
-399 -10 -511 27 -137 45 -220 200 -236 440 -3 50 -8 196 -10 325 -1 129 -6
292 -10 363 l-8 127 189 1 c104 0 203 2 219 4 17 2 55 6 85 10 30 3 87 14 125
24 39 11 85 20 103 20 33 1 33 1 25 -36z m20594 -19 c25 -25 26 -29 20 -117
-13 -197 -99 -456 -535 -1607 -294 -778 -383 -1018 -569 -1550 -302 -866 -393
-1077 -520 -1205 -83 -85 -149 -81 -182 11 -21 58 -17 219 9 352 65 346 324
1059 630 1733 61 134 311 634 400 799 279 519 367 773 304 880 -41 70 -105 97
-254 106 -188 12 -404 -36 -527 -116 -184 -121 -271 -326 -313 -740 -6 -58
-13 -121 -15 -140 -2 -19 -6 -55 -9 -80 -57 -493 -126 -750 -341 -1260 -48
-113 -118 -279 -156 -370 -237 -563 -384 -1105 -388 -1435 -2 -174 34 -282
122 -361 105 -95 231 -97 412 -8 125 62 241 152 381 296 l119 124 -3 -69 c-3
-47 1 -88 13 -127 l18 -58 -63 -88 c-347 -491 -694 -678 -985 -534 -349 172
-445 673 -265 1375 86 335 212 695 471 1352 310 785 340 909 340 1413 0 252
-7 365 -37 590 -8 64 -14 140 -12 170 3 49 6 56 32 69 29 14 229 17 320 6 23
-3 113 -7 201 -8 403 -9 767 44 938 135 146 78 192 211 122 353 -13 27 -21 53
-17 56 13 12 127 51 187 64 93 21 122 19 152 -11z m-20248 -203 c152 -226 323
-543 481 -895 49 -110 88 -201 87 -202 -5 -6 -332 258 -390 314 -170 165 -229
314 -257 647 -6 77 -17 173 -24 212 -12 71 -12 72 6 56 11 -9 54 -69 97 -132z
m13238 113 c105 -26 233 -83 320 -142 180 -122 284 -321 301 -577 18 -260 -34
-433 -177 -587 -76 -82 -199 -187 -318 -271 l-81 -57 -47 20 c-107 46 -296 80
-520 95 -49 3 -110 7 -135 10 -25 2 -72 7 -105 10 -33 3 -85 12 -115 18 l-55
12 -27 105 c-15 58 -39 137 -53 176 -32 88 -129 282 -178 356 -43 64 -45 86
-17 210 37 168 105 295 220 408 93 93 210 150 308 150 38 0 39 -3 11 -41 -86
-121 -159 -400 -144 -547 14 -127 48 -205 124 -285 224 -236 703 -186 849 88
24 44 27 61 27 145 0 84 -4 103 -31 167 -83 191 -265 386 -463 495 -86 48 -82
56 33 68 91 9 159 3 273 -26z m-357 -150 c268 -147 476 -458 421 -627 -30 -89
-155 -168 -297 -188 -99 -14 -179 -2 -269 39 -178 84 -232 254 -164 520 22 89
86 227 130 283 l30 38 42 -15 c23 -8 71 -31 107 -50z m-14010 -1186 c0 -13 -7
-48 -15 -78 -23 -85 -20 -125 11 -149 33 -26 56 -26 130 -1 423 146 766 96
876 -128 32 -65 33 -70 33 -192 0 -104 -4 -137 -23 -194 -35 -103 -68 -163
-121 -216 -60 -60 -124 -84 -289 -110 -194 -31 -259 -48 -358 -96 -112 -53
-162 -105 -265 -272 -86 -140 -156 -225 -252 -310 -114 -99 -186 -128 -582
-237 -192 -53 -570 -159 -840 -235 -815 -231 -964 -264 -1185 -264 -127 -1
-152 2 -201 22 -91 37 -158 120 -159 199 -1 173 275 439 548 528 l53 17 60
-26 c131 -59 289 -69 515 -31 409 67 1201 372 1447 556 81 61 139 140 217 293
72 142 110 248 166 458 64 243 119 377 185 453 36 41 49 44 49 13z m12315
-234 c-89 -413 -231 -713 -578 -1227 -66 -99 -123 -175 -125 -169 -5 16 63
210 115 327 55 124 184 374 293 565 112 196 252 469 286 557 15 40 29 71 31
69 2 -2 -8 -57 -22 -122z m1250 -43 c50 -6 182 -18 295 -26 112 -9 207 -19
210 -21 3 -3 -65 -2 -150 2 -320 17 -367 7 -411 -90 -20 -46 -22 -43 -38 61
-13 85 -13 96 -3 90 4 -3 48 -10 97 -16z m515 -167 c149 -4 251 -2 279 4 42
10 47 9 90 -21 79 -53 179 -156 329 -337 289 -350 827 -847 1214 -1123 l66
-47 -15 -53 c-11 -37 -16 -110 -18 -252 -2 -180 1 -276 19 -500 3 -38 8 -122
12 -185 3 -63 8 -126 10 -140 10 -59 12 -563 3 -650 -6 -52 -13 -97 -15 -100
-6 -5 -12 -1 -90 63 -69 56 -195 119 -274 138 -75 17 -202 15 -280 -5 -96 -25
-217 -89 -287 -151 -181 -162 -142 -342 101 -456 230 -108 521 -128 678 -48
53 27 149 118 174 164 10 19 23 34 28 32 19 -6 108 -168 155 -283 83 -200 152
-503 181 -794 6 -63 13 -131 16 -150 3 -19 7 -168 9 -330 11 -819 -128 -1142
-531 -1230 -175 -38 -326 -45 -979 -45 -605 0 -730 10 -866 71 -198 89 -333
444 -367 964 -9 143 -9 424 0 862 6 322 7 339 27 367 12 16 29 59 37 94 20 81
7 154 -39 222 -50 72 -57 87 -57 125 0 19 -13 125 -29 235 -26 176 -62 442
-76 560 -2 22 -9 92 -15 155 -5 63 -12 138 -15 165 -14 160 -20 506 -20 1185
0 727 1 775 22 955 12 105 25 233 28 285 3 52 8 111 10 130 18 140 23 144 155
136 52 -3 201 -9 330 -12z m9475 -335 c-47 -306 -76 -576 -95 -879 -8 -127 -5
-904 4 -950 2 -14 7 -90 11 -169 4 -79 8 -154 10 -165 2 -12 6 -68 10 -126 3
-58 8 -118 10 -135 2 -16 6 -59 9 -95 18 -210 86 -873 111 -1085 3 -22 19
-155 35 -295 17 -140 32 -271 35 -290 3 -19 12 -93 20 -165 9 -71 18 -143 20
-160 24 -172 35 -268 33 -269 -2 -1 -50 -12 -107 -25 -57 -12 -110 -25 -118
-28 -11 -4 -13 23 -11 158 3 146 -7 478 -17 629 -2 30 -7 123 -10 205 -3 83
-8 177 -10 210 -2 33 -7 107 -10 165 -13 236 -33 471 -75 860 -17 151 -32 302
-36 335 -3 33 -7 76 -9 95 -63 568 -26 1400 86 1930 39 186 125 488 135 477 2
-2 -11 -105 -31 -228z m-885 -85 c-32 -126 -100 -382 -150 -569 -181 -678
-246 -1036 -265 -1460 -14 -320 -35 -457 -87 -563 -110 -222 -433 -331 -1008
-337 -475 -6 -754 55 -937 205 -35 28 -67 59 -73 69 -8 15 2 41 51 128 213
382 379 833 379 1033 0 34 -5 70 -11 82 -14 26 -9 29 39 30 27 0 78 -17 163
-55 157 -69 208 -81 344 -80 164 1 400 55 569 129 241 106 424 298 595 624 77
147 131 275 227 542 79 220 142 360 189 423 15 19 29 34 31 32 2 -2 -23 -106
-56 -233z m-18998 -411 c164 -66 377 -205 524 -345 181 -172 309 -369 468
-718 203 -448 520 -1298 595 -1595 51 -202 49 -304 -7 -306 -85 -5 -163 14
-366 86 -358 127 -472 199 -525 331 -13 34 -30 168 -25 199 2 11 4 144 4 295
1 285 -8 381 -51 595 -83 407 -264 826 -497 1150 -58 80 -118 153 -253 309
l-43 48 45 -7 c24 -4 83 -23 131 -42z m-2762 -210 c10 -38 22 -134 60 -478 12
-104 28 -237 36 -295 32 -232 108 -817 129 -1000 9 -69 17 -141 19 -160 3 -19
7 -62 11 -95 3 -33 8 -78 10 -100 6 -54 32 -369 40 -476 3 -47 6 -207 6 -355
0 -371 -23 -481 -117 -564 -38 -33 -113 -71 -166 -84 -25 -6 -28 -4 -29 21 0
16 -2 35 -3 43 -2 8 -6 85 -10 170 -4 85 -9 175 -11 200 -3 25 -9 131 -15 235
-6 105 -12 213 -15 240 -6 72 -14 176 -20 285 -3 52 -8 113 -10 135 -2 22 -7
76 -10 120 -3 44 -10 121 -15 170 -5 50 -12 122 -15 160 -6 71 -19 202 -55
535 -10 102 -25 239 -32 305 -7 66 -12 219 -12 340 0 241 13 329 70 472 37 93
113 213 135 213 4 0 13 -17 19 -37z m-855 -453 c21 -40 43 -191 50 -348 4 -70
9 -145 11 -167 5 -54 5 -1015 0 -1040 -8 -43 -21 -512 -20 -740 2 -421 55
-720 152 -871 42 -64 91 -104 162 -130 51 -19 229 -27 325 -15 33 5 61 8 61 7
2 -2 14 -247 19 -416 3 -91 8 -185 10 -210 3 -24 8 -203 11 -396 l7 -352 -74
-12 c-246 -39 -438 -90 -508 -132 -74 -46 -93 -132 -41 -191 39 -45 159 -103
279 -134 124 -33 288 -38 339 -10 66 36 103 133 115 300 2 37 7 70 10 73 3 3
101 21 219 40 117 18 314 49 437 69 279 44 336 50 486 50 167 0 246 -31 231
-90 l-6 -25 -163 0 c-201 0 -415 -16 -483 -35 -94 -27 -135 -78 -110 -138 29
-71 137 -102 321 -93 188 9 335 50 435 121 44 31 50 32 182 39 75 4 147 9 160
11 12 2 55 6 93 10 141 13 315 54 426 99 12 6 18 -6 28 -61 31 -170 115 -361
216 -493 62 -80 190 -201 264 -249 117 -75 234 -95 327 -56 144 60 302 278
423 583 61 153 95 214 141 256 43 38 99 68 129 67 9 0 93 -2 186 -4 160 -3
174 -5 239 -32 85 -35 172 -113 213 -192 42 -80 72 -166 154 -447 38 -132 121
-401 184 -596 315 -981 400 -1365 399 -1805 -1 -410 -89 -735 -329 -1215 -327
-655 -678 -1094 -1105 -1378 -215 -143 -548 -297 -890 -412 -219 -73 -638
-189 -848 -236 -22 -4 -23 -3 -15 33 4 21 8 115 7 208 -1 137 -6 199 -28 320
-79 444 -254 925 -453 1247 -66 108 -178 252 -285 370 l-79 87 1 228 c0 125 2
237 4 248 2 11 7 94 11 185 4 91 9 174 12 185 11 55 15 668 4 770 -24 219 -68
351 -148 436 -51 55 -112 84 -208 99 -70 11 -85 10 -352 -16 -186 -18 -399
-20 -513 -5 -179 25 -356 86 -466 162 -57 39 -154 136 -194 194 l-29 42 28 84
c16 46 34 115 41 153 19 101 8 320 -24 481 -82 413 -85 589 -15 799 16 49 69
173 118 275 102 215 111 239 111 296 0 85 -68 125 -151 87 -153 -68 -310 -329
-423 -705 -95 -312 -116 -583 -66 -826 30 -150 125 -413 210 -583 l33 -66 -31
-43 c-39 -58 -69 -85 -114 -104 -61 -25 -85 -20 -141 31 -88 79 -149 100 -195
68 -28 -19 -29 -68 -3 -108 24 -36 87 -79 149 -102 26 -10 79 -43 117 -74 219
-178 338 -238 749 -375 249 -82 330 -116 415 -174 138 -94 196 -200 302 -553
93 -312 195 -546 324 -744 55 -85 120 -165 245 -304 l77 -85 7 -178 c4 -97 9
-187 11 -200 2 -12 6 -62 10 -111 4 -50 8 -97 10 -105 1 -9 6 -45 9 -81 34
-323 126 -780 212 -1049 126 -398 264 -578 477 -623 51 -11 56 -14 51 -33 -10
-32 -107 -239 -118 -252 -16 -17 -369 -67 -698 -98 l-67 -6 -34 73 c-71 153
-127 192 -522 363 -550 237 -793 411 -1083 775 -325 408 -639 1021 -801 1560
-102 340 -209 930 -285 1580 -14 118 -17 280 -7 394 19 208 53 314 214 681
103 235 144 348 183 504 74 299 109 659 109 1136 0 213 -2 236 -23 304 -39
122 -97 193 -198 239 l-50 24 -28 124 c-43 201 -87 274 -190 322 -94 45 -149
53 -351 51 -163 -2 -195 0 -223 15 -59 30 -87 123 -119 381 -25 212 -24 815 3
1095 75 772 174 1194 315 1340 56 58 114 83 371 160 360 108 477 158 670 287
125 85 207 133 225 133 7 0 19 -13 28 -30z m13360 -362 c0 -682 20 -961 120
-1659 19 -134 35 -251 35 -260 0 -14 -11 -15 -74 -11 -179 11 -262 -67 -282
-264 -4 -35 -10 -64 -14 -64 -5 0 -18 20 -29 44 -82 168 -76 517 20 1176 54
374 211 1320 219 1320 3 0 5 -127 5 -282z m7015 -242 c-44 -172 -127 -382
-243 -616 -83 -166 -103 -200 -105 -176 -5 37 22 156 64 287 41 127 306 675
311 644 2 -11 -10 -74 -27 -139z m6470 33 c201 -16 403 -59 536 -115 45 -19
51 -15 -114 -86 -306 -131 -703 -200 -1137 -197 -344 2 -581 42 -747 125 -55
28 -118 80 -118 98 0 96 563 181 1215 183 138 0 302 -3 365 -8z m-15274 -1179
c96 -47 158 -146 119 -190 -39 -43 -195 -80 -334 -80 -73 0 -167 16 -176 30
-7 12 87 140 135 183 83 76 174 96 256 57z m4097 -94 c77 -29 160 -83 240
-156 l57 -52 -15 -34 c-40 -96 -113 -165 -209 -197 -153 -52 -494 20 -615 129
-27 25 -51 55 -53 67 -10 57 75 153 182 207 145 73 283 85 413 36z m-2169
-580 c33 -14 34 -15 40 -93 3 -43 7 -107 8 -143 l3 -65 -50 -17 c-63 -22 -127
-22 -193 -3 l-52 16 5 37 c3 20 10 73 15 117 14 101 26 132 59 150 34 18 122
19 165 1z m-8979 -707 c-22 -128 -26 -321 -9 -448 17 -123 69 -286 124 -389
47 -86 38 -85 -25 3 -166 232 -198 496 -104 852 12 46 24 81 26 79 2 -2 -3
-46 -12 -97z m-1701 -353 c62 -42 111 -105 161 -205 l37 -75 -53 48 c-110 99
-239 151 -359 144 -55 -3 -83 -11 -140 -40 l-72 -37 17 27 c27 41 55 70 108
109 113 83 209 92 301 29z m-5140 -17 c142 -29 258 -68 546 -184 405 -163 462
-182 774 -246 104 -21 190 -40 191 -41 4 -5 34 -287 41 -373 3 -44 8 -91 11
-105 2 -14 6 -187 8 -385 4 -381 -2 -461 -45 -649 -12 -50 -36 -130 -54 -177
-31 -82 -144 -299 -156 -299 -3 0 -16 21 -29 48 -61 125 -175 279 -350 472
-126 139 -168 170 -227 170 -82 0 -144 -80 -223 -284 -111 -289 -215 -775
-246 -1156 -20 -237 -23 -356 -20 -745 3 -236 6 -448 9 -470 2 -22 7 -103 11
-180 3 -77 8 -160 10 -185 2 -25 7 -92 10 -150 3 -58 8 -121 10 -140 2 -19 7
-84 11 -145 3 -60 8 -117 9 -125 1 -8 6 -67 10 -130 4 -63 9 -122 10 -130 1
-8 6 -62 10 -120 4 -58 9 -112 10 -120 2 -8 6 -62 9 -120 4 -58 9 -121 11
-140 2 -19 7 -66 10 -105 5 -74 22 -280 30 -377 3 -32 7 -84 10 -115 2 -32 7
-87 10 -123 3 -36 7 -90 10 -120 3 -30 7 -82 10 -115 3 -33 14 -175 25 -315
11 -140 22 -282 25 -315 3 -33 8 -85 10 -115 5 -61 32 -414 40 -530 3 -41 8
-100 10 -130 10 -121 14 -178 19 -250 11 -157 33 -463 41 -575 3 -38 10 -126
15 -195 6 -69 14 -165 18 -215 4 -49 7 -157 7 -240 -1 -126 -4 -162 -23 -221
-42 -136 -148 -218 -280 -217 -295 3 -452 422 -552 1468 -26 275 -32 350 -54
680 -8 116 -18 257 -21 315 -3 58 -8 125 -10 150 -2 25 -7 106 -10 180 -4 74
-8 146 -10 160 -2 14 -6 97 -10 185 -3 88 -8 176 -10 195 -2 19 -7 94 -10 165
-3 72 -7 159 -10 195 -2 36 -7 119 -10 185 -3 66 -7 152 -10 190 -3 39 -7 133
-10 210 -3 77 -8 167 -10 200 -2 33 -7 119 -10 190 -3 72 -8 162 -10 200 -2
39 -7 129 -10 200 -3 72 -8 162 -10 200 -2 39 -7 129 -10 200 -3 72 -8 159
-10 195 -2 36 -7 126 -10 200 -3 74 -8 169 -10 210 -6 105 -14 254 -20 400 -5
127 -12 265 -20 400 -2 41 -7 134 -10 205 -3 72 -8 164 -10 205 -3 41 -7 131
-10 200 -8 192 -15 338 -20 410 -2 36 -7 130 -10 210 -3 80 -8 170 -10 200 -2
30 -7 120 -10 200 -3 80 -8 170 -10 200 -2 30 -7 132 -10 225 -4 94 -8 184
-10 200 -9 83 -20 469 -20 695 0 279 9 352 53 433 73 135 304 184 596 126z
m27856 -70 c301 -28 442 -106 466 -257 l6 -40 -68 -15 c-244 -55 -582 -106
-814 -123 -120 -9 -630 -9 -730 0 -411 37 -461 50 -499 130 -20 42 -48 153
-40 160 7 7 416 74 554 91 281 34 383 44 546 51 79 4 145 8 147 9 7 6 351 1
432 -6z m-1794 -196 c15 -69 37 -140 55 -174 26 -52 94 -107 154 -125 60 -18
216 -40 340 -49 50 -3 119 -8 155 -11 85 -7 579 -7 650 0 30 3 91 8 135 11
128 10 416 53 598 89 92 18 167 30 167 26 0 -12 -31 -114 -51 -172 -15 -42
-27 -58 -44 -62 -28 -7 -428 -59 -665 -86 -96 -11 -193 -22 -215 -25 -377 -45
-485 -60 -623 -85 -382 -71 -529 -160 -642 -393 -106 -220 -600 -1480 -734
-1876 -137 -401 -220 -744 -244 -995 -11 -120 -7 -339 7 -441 18 -125 64 -313
112 -452 22 -65 121 -320 219 -568 264 -666 469 -1217 725 -1950 148 -423 148
-425 142 -425 -7 0 -302 320 -391 425 -296 346 -520 692 -751 1160 -238 482
-437 982 -590 1485 -158 520 -241 959 -285 1495 -9 110 -6 848 3 895 3 14 8
66 11 115 9 121 64 543 113 870 l8 50 45 6 c152 22 397 165 730 425 375 292
498 446 564 709 l23 90 129 32 c71 17 132 32 136 32 4 1 10 -11 14 -26z m-416
-96 c0 -26 -39 -127 -75 -195 -73 -138 -223 -286 -507 -499 -287 -215 -454
-314 -592 -352 l-38 -10 6 52 c11 85 46 216 80 297 122 287 394 479 951 671
150 51 175 57 175 36z m3370 -37 c43 -12 97 -53 132 -102 17 -25 18 -32 7 -39
-21 -13 -322 -84 -519 -123 -239 -47 -264 -51 -255 -37 3 6 19 62 35 124 l28
112 64 13 c274 58 428 74 508 52z m-27332 -150 c81 -74 97 -169 89 -540 -4
-157 -9 -298 -11 -315 -3 -16 -7 -64 -10 -105 -17 -214 -45 -390 -91 -565 -41
-157 -62 -213 -173 -468 l-87 -199 -14 66 -14 66 80 142 c143 257 209 461 231
715 16 197 7 721 -18 957 -5 50 -12 120 -15 156 -3 36 -8 77 -11 93 -7 35 4
34 44 -3z m903 -122 c-5 -13 -45 -98 -90 -191 -91 -188 -142 -326 -162 -437
-20 -113 -16 -341 10 -485 11 -66 32 -183 46 -260 30 -170 34 -336 10 -442 -9
-40 -18 -73 -21 -73 -18 0 -146 344 -180 485 -60 248 -35 538 77 877 76 228
165 401 257 500 49 52 66 61 53 26z m26657 -66 c70 -283 53 -560 -54 -880 -81
-245 -184 -460 -482 -1007 -401 -735 -576 -1117 -803 -1748 -192 -535 -243
-775 -242 -1157 0 -589 138 -1159 718 -2950 298 -922 392 -1245 435 -1497 20
-116 27 -273 12 -273 -4 0 -29 13 -54 29 -255 162 -487 605 -955 1821 -920
2393 -1181 3282 -1181 4020 0 271 25 453 93 692 115 397 309 753 932 1703 224
342 366 569 455 730 61 109 181 344 197 387 6 17 19 28 38 32 15 3 96 17 178
32 145 25 518 108 620 138 28 8 55 15 61 15 6 1 21 -39 32 -87z m-1058 -129
c0 -15 -175 -340 -257 -478 -95 -159 -273 -437 -479 -750 -633 -959 -837
-1396 -916 -1955 -22 -157 -16 -540 11 -745 81 -614 297 -1337 806 -2700 661
-1772 897 -2312 1152 -2635 70 -89 175 -180 245 -213 26 -12 47 -26 48 -31 0
-5 -21 -29 -46 -52 -137 -128 -599 -232 -1069 -240 -276 -5 -358 11 -414 82
-45 58 -50 106 -54 514 -4 340 -7 399 -26 502 -76 416 -278 820 -621 1243 -52
65 -61 84 -120 255 -294 867 -634 1795 -895 2445 -301 747 -356 956 -341 1295
20 482 170 971 718 2340 244 610 273 673 347 753 133 143 381 202 1236 292 28
3 61 8 75 10 14 2 52 7 85 10 33 3 157 19 275 34 255 34 240 33 240 24z
m-20345 -383 c271 -109 385 -179 525 -320 263 -265 535 -788 748 -1440 105
-321 165 -593 217 -990 11 -80 14 -612 5 -700 -23 -213 -44 -339 -86 -507
-123 -506 -378 -1020 -726 -1468 -106 -135 -315 -356 -429 -451 -241 -201
-552 -352 -926 -449 -103 -27 -196 -38 -530 -60 -84 -6 -153 -11 -278 -21
-168 -12 -388 -45 -605 -89 -243 -49 -722 -145 -726 -145 -2 0 17 44 40 99 24
54 49 114 55 134 11 31 16 36 58 42 131 19 621 154 895 245 896 299 1386 685
1846 1455 322 539 490 973 543 1400 14 117 14 427 -1 552 -47 407 -135 749
-413 1613 -47 146 -117 374 -156 507 -86 294 -122 397 -169 488 -44 84 -137
182 -209 219 -36 18 -51 31 -47 41 5 11 31 2 122 -44 65 -32 176 -82 247 -111z
m-4741 -117 c-8 -93 -30 -170 -54 -183 -52 -28 -260 7 -390 66 -89 40 -93 49
-29 78 67 29 241 70 419 99 62 10 60 13 54 -60z m12463 -885 c7 -73 30 -252
52 -398 82 -541 91 -655 86 -1055 -2 -170 -6 -321 -9 -335 -2 -14 -7 -72 -10
-130 -4 -58 -11 -152 -16 -210 -5 -58 -19 -208 -30 -335 -11 -126 -22 -248
-25 -270 -2 -22 -14 -141 -25 -265 -11 -124 -22 -245 -25 -270 -2 -25 -11
-130 -20 -235 -8 -104 -17 -215 -20 -245 -2 -30 -7 -93 -10 -140 -3 -47 -8
-110 -10 -140 -5 -59 -11 -159 -20 -305 -3 -49 -7 -121 -10 -160 -2 -38 -7
-122 -10 -185 -3 -63 -7 -144 -10 -180 -2 -36 -7 -121 -10 -190 -3 -69 -7
-159 -10 -200 -3 -41 -7 -131 -10 -200 -3 -69 -7 -163 -10 -210 -2 -47 -7
-139 -10 -205 -3 -66 -8 -163 -10 -215 -5 -99 -11 -204 -20 -400 -30 -604 -67
-910 -127 -1037 -41 -87 -131 -137 -248 -137 -66 -1 -84 3 -142 32 -83 40
-128 91 -179 198 -64 135 -104 337 -129 659 -9 115 -5 1477 4 1600 3 33 7 220
11 415 3 195 8 423 11 505 3 83 7 805 9 1605 2 1475 4 1562 41 1775 75 440
252 690 615 871 89 45 282 123 304 124 6 0 16 -55 22 -132z m1373 45 c196
-223 279 -610 345 -1603 3 -47 8 -114 10 -150 4 -62 9 -142 20 -342 6 -100 13
-226 20 -353 2 -44 7 -127 10 -185 3 -58 8 -134 10 -170 2 -36 7 -119 10 -185
3 -66 8 -142 10 -170 2 -27 7 -108 10 -180 3 -71 8 -146 10 -165 2 -19 7 -89
10 -155 3 -66 8 -140 10 -165 2 -25 7 -101 10 -170 3 -69 8 -147 10 -175 2
-27 7 -104 10 -170 3 -66 8 -138 10 -160 2 -22 7 -103 10 -180 4 -77 8 -153
10 -170 2 -16 6 -95 9 -175 4 -80 9 -163 11 -185 2 -22 7 -105 10 -185 3 -80
8 -167 10 -195 2 -27 7 -122 10 -210 3 -88 8 -173 10 -190 2 -16 7 -115 10
-220 4 -104 8 -208 10 -230 21 -257 26 -1618 7 -1815 -37 -368 -95 -564 -176
-602 -31 -14 -77 7 -152 70 -135 112 -208 286 -254 601 -18 125 -22 163 -35
306 -27 296 -52 872 -70 1615 -3 118 -7 274 -10 345 -3 72 -7 202 -10 290 -3
88 -8 194 -10 235 -3 41 -7 122 -10 180 -28 540 -82 923 -176 1251 -48 168
-86 270 -227 614 -163 399 -217 575 -268 873 -59 349 -81 655 -81 1137 -1 677
60 976 230 1131 96 86 261 162 527 241 54 17 56 16 100 -34z m-15656 -585 c-2
-18 -30 -89 -63 -158 -67 -141 -90 -201 -125 -327 -140 -500 -174 -1181 -86
-1683 104 -588 402 -1249 866 -1926 217 -316 414 -533 588 -648 47 -32 136
-79 198 -107 187 -81 241 -111 288 -159 40 -41 107 -147 98 -154 -6 -6 -180
33 -291 65 -365 103 -669 307 -1035 695 -419 445 -706 900 -825 1309 -64 219
-94 400 -117 695 -8 109 -5 1295 4 1370 2 19 7 127 10 240 4 113 9 228 11 255
2 28 7 97 10 155 8 137 32 269 56 309 26 43 51 50 171 48 96 -1 107 1 168 29
36 17 68 30 72 27 3 -2 5 -18 2 -35z m1315 -232 c106 -78 277 -147 457 -183
70 -14 137 -18 319 -17 127 0 246 3 265 7 19 3 100 12 180 18 127 10 153 10
208 -5 70 -18 100 -36 132 -82 43 -64 70 -155 91 -314 16 -121 12 -621 -6
-825 -3 -27 -7 -113 -11 -190 -3 -77 -8 -156 -9 -175 -2 -19 -4 -95 -4 -169
l-1 -135 -31 30 c-97 92 -233 288 -317 457 -70 143 -114 261 -197 528 -126
406 -213 532 -449 651 -43 22 -203 81 -355 133 -360 121 -457 167 -619 291
l-43 33 36 17 c20 9 62 43 93 74 l56 57 79 -83 c43 -46 100 -99 126 -118z
m-1320 -142 c-19 -112 -14 -406 10 -597 69 -547 151 -1026 232 -1342 187 -732
629 -1555 1079 -2005 236 -238 461 -377 935 -580 305 -131 371 -171 426 -259
50 -79 64 -75 -248 -68 -153 4 -298 9 -323 13 -149 18 -195 25 -201 32 -3 4
-16 32 -29 62 -62 150 -142 231 -300 307 -267 128 -318 155 -381 203 -341 258
-886 1096 -1152 1770 -181 458 -250 825 -246 1319 3 345 44 685 119 968 31
116 80 257 87 250 2 -3 -1 -35 -8 -73z m3185 -2388 c116 -143 236 -350 326
-561 101 -236 207 -593 257 -865 18 -102 25 -422 10 -492 -7 -35 -11 -38 -41
-38 -203 0 -352 232 -486 755 -94 366 -163 826 -186 1240 l-6 110 39 -44 c21
-25 60 -72 87 -105z m24359 -2496 c420 -406 689 -768 801 -1078 77 -214 127
-543 111 -724 -9 -96 -3 -110 -79 172 -105 391 -177 598 -282 810 -122 245
-260 434 -589 805 -92 105 -178 201 -189 215 -42 48 86 -64 227 -200z m-24003
-6 c0 -3 -16 -48 -35 -99 -41 -111 -80 -299 -94 -450 -9 -107 -7 -544 3 -635
3 -25 10 -97 16 -160 11 -114 37 -358 45 -415 11 -78 20 -251 19 -355 -1 -181
-29 -276 -101 -352 l-36 -37 -78 55 c-42 30 -126 80 -186 110 -59 31 -109 57
-111 59 -5 5 -11 147 -17 450 -3 160 -8 324 -10 365 -2 41 -7 163 -10 270 -3
107 -8 229 -10 270 -3 41 -7 127 -10 190 -12 243 -28 449 -46 577 -6 40 -8 77
-5 81 3 5 46 12 96 15 106 8 503 57 509 63 7 6 61 5 61 -2z m-1335 -73 c72 -4
223 -8 336 -7 l206 1 11 -75 c19 -122 34 -305 47 -550 3 -58 8 -136 10 -175 2
-38 7 -155 10 -260 3 -104 8 -230 10 -280 3 -49 7 -202 10 -340 3 -137 8 -303
11 -368 5 -111 4 -118 -13 -113 -51 15 -145 26 -217 26 -148 0 -279 -47 -397
-143 -57 -46 -63 -48 -86 -36 -14 7 -49 40 -79 72 -64 69 -123 185 -156 307
-21 77 -23 106 -23 300 1 199 3 228 34 395 90 491 101 581 95 790 -3 132 -21
281 -49 396 -21 91 -24 87 48 77 34 -4 121 -12 192 -17z m23291 -694 c117
-192 217 -422 265 -609 48 -188 51 -227 58 -658 6 -360 10 -422 25 -465 47
-131 136 -197 303 -224 197 -32 687 10 985 84 51 12 94 22 96 20 5 -4 -189
-111 -251 -139 -141 -62 -216 -78 -577 -120 -25 -3 -153 -9 -285 -12 l-240 -7
-3 49 c-4 64 -44 146 -90 184 -88 73 -257 98 -441 66 -52 -9 -96 -15 -98 -12
-15 14 252 202 431 303 100 57 127 101 128 205 0 42 -9 108 -21 156 -24 91
-239 792 -356 1157 -41 128 -75 237 -75 242 0 11 67 -90 146 -220z m-20511
-2157 c36 -141 65 -261 65 -268 0 -8 -23 -12 -75 -12 -41 0 -75 2 -75 5 0 29
-105 709 -185 1203 -25 150 -45 279 -44 285 0 11 81 -301 314 -1213z m23468
545 c54 -215 77 -346 77 -432 0 -75 9 -72 -155 -43 -60 11 -165 23 -232 27
-111 5 -124 4 -156 -14 l-35 -21 -4 72 c-14 202 -147 309 -365 292 l-88 -6 42
30 c23 17 55 51 72 76 l30 46 108 3 c78 2 155 13 275 39 182 40 247 60 323 99
28 14 53 22 57 19 3 -4 27 -88 51 -187z m-25662 29 l69 -16 1 -56 c1 -31 2
-83 3 -114 1 -33 -2 -59 -8 -61 -15 -6 -206 19 -292 37 -77 16 -250 70 -273
85 -25 16 89 90 189 122 71 23 217 24 311 3z m9764 -86 c-50 -191 -195 -329
-526 -502 -138 -72 -353 -165 -329 -143 8 8 94 74 190 147 248 189 415 327
554 461 67 64 122 113 124 109 2 -5 -4 -37 -13 -72z m-9486 -22 c78 -41 161
-97 156 -106 -5 -8 -92 -25 -179 -35 -35 -4 -52 -2 -57 7 -5 7 -9 50 -9 95 0
93 -7 90 89 39z m-799 -136 c141 -58 423 -120 546 -120 l54 0 1 -92 c0 -51 2
-187 4 -303 6 -314 -14 -442 -76 -486 -46 -33 -155 -48 -319 -43 -284 7 -411
64 -456 206 -25 79 -31 318 -10 433 17 101 56 225 94 300 24 48 79 135 86 135
2 0 36 -14 76 -30z m25471 -43 c58 -31 89 -91 91 -173 2 -81 -7 -116 -54 -208
-100 -199 -216 -345 -302 -381 -80 -34 -195 -15 -484 75 -326 102 -388 110
-507 66 -86 -33 -140 -68 -272 -178 -165 -136 -249 -169 -500 -192 -162 -15
-706 -18 -885 -5 -134 10 -184 23 -220 59 -39 39 -35 50 17 50 66 0 363 28
495 46 371 52 594 179 703 402 l31 62 146 1 c80 0 161 2 180 3 19 2 87 7 150
10 166 10 412 42 505 66 105 28 232 84 386 171 68 38 144 79 169 91 131 61
274 75 351 35z m-2072 -97 c56 -32 81 -65 88 -120 l6 -43 -84 7 c-130 10 -233
25 -314 46 -71 18 -168 61 -179 79 -3 4 13 14 37 20 118 32 179 40 287 38 102
-2 120 -5 159 -27z m-575 -96 c76 -96 254 -154 524 -171 71 -4 102 -10 102
-18 0 -27 -93 -137 -152 -181 -167 -124 -340 -163 -901 -203 -56 -4 -104 -6
-106 -4 -12 9 3 125 24 192 54 170 173 285 399 388 39 17 73 32 76 32 3 1 18
-15 34 -35z m-19559 -511 c78 -29 87 -90 22 -158 -30 -31 -38 -34 -112 -39
-44 -4 -106 -9 -137 -12 -65 -7 -55 -22 -83 120 -25 131 -37 120 123 113 98
-4 151 -10 187 -24z m-427 -102 c12 -62 21 -115 19 -117 -2 -3 -44 -7 -94 -10
l-90 -7 -11 115 c-7 63 -12 120 -12 126 0 9 22 12 83 10 l82 -3 23 -114z
m-1178 -206 c30 -3 78 -7 105 -10 28 -3 75 -7 105 -10 144 -13 331 -25 493
-31 167 -6 177 -8 177 -27 0 -31 -69 -92 -130 -114 -124 -46 -479 -70 -645
-43 -191 30 -422 115 -514 188 l-24 20 22 12 c48 25 221 31 411 15z"/>
</g>
</svg>
