<?xml version="1.0" standalone="no"?>
<!DOCTYPE svg PUBLIC "-//W3C//DTD SVG 20010904//EN"
 "http://www.w3.org/TR/2001/REC-SVG-20010904/DTD/svg10.dtd">
<svg version="1.0" xmlns="http://www.w3.org/2000/svg"
 width="747.000000pt" height="815.000000pt" viewBox="0 0 747.000000 815.000000"
 preserveAspectRatio="xMidYMid meet">
<metadata>
Created by potrace 1.16, written by Peter Selinger 2001-2019
</metadata>
<g transform="translate(0.000000,815.000000) scale(0.100000,-0.100000)"
fill="#000000" stroke="none">
<path d="M3402 8140 c-582 -57 -1213 -277 -1797 -627 -99 -59 -265 -155 -368
-213 l-187 -105 0 -52 c0 -49 -5 -59 -60 -135 l-61 -83 -87 -5 -86 -5 -79
-115 c-233 -343 -394 -670 -526 -1070 -23 -69 -46 -142 -52 -162 -9 -37 -11
-38 -54 -38 l-45 0 0 -89 0 -89 43 -6 42 -7 21 -87 c29 -117 77 -230 129 -301
l43 -59 -31 -9 -32 -10 35 -7 36 -7 42 -1237 c24 -680 45 -1251 48 -1268 6
-42 24 -47 212 -50 l153 -2 28 -39 c35 -48 86 -92 127 -109 30 -12 31 -17 38
-85 5 -58 12 -80 39 -118 17 -25 32 -47 33 -48 0 -2 22 -7 47 -12 41 -7 47 -6
47 9 0 16 29 50 43 50 4 0 7 -8 7 -18 0 -10 9 -37 20 -60 11 -22 20 -59 20
-82 0 -62 15 -55 77 37 23 35 54 97 68 138 26 78 68 167 104 220 35 51 23 18
-39 -108 -64 -128 -65 -136 -40 -222 5 -16 16 -66 25 -110 10 -44 21 -93 25
-110 5 -16 14 -50 21 -75 29 -112 64 -207 83 -229 25 -28 131 -81 162 -81 13
0 26 -5 29 -10 3 -6 19 -10 35 -10 16 0 41 -5 56 -10 26 -10 113 -23 274 -39
79 -9 116 -16 165 -33 78 -27 83 -31 89 -68 3 -19 10 -62 15 -95 38 -250 53
-288 119 -299 62 -10 100 -40 107 -83 8 -55 42 -117 73 -135 40 -24 113 -48
145 -48 17 0 27 -5 25 -13 -7 -35 16 -127 43 -170 16 -26 29 -51 29 -56 0 -4
16 -24 35 -44 35 -36 38 -37 107 -37 62 0 72 -3 89 -24 11 -13 38 -33 62 -44
37 -18 56 -20 165 -15 83 4 122 9 122 17 0 7 6 20 13 30 12 16 16 15 72 -15
33 -17 64 -35 70 -40 11 -11 245 -12 245 -1 0 4 10 13 21 21 19 11 25 10 50
-8 25 -19 42 -21 156 -21 l128 0 17 32 c9 18 19 41 22 51 3 11 16 17 34 17 37
0 136 50 185 93 22 20 63 41 100 52 34 10 74 27 90 37 29 21 59 73 71 122 4
16 26 48 49 71 80 81 97 112 97 184 0 26 3 89 6 138 l7 91 41 12 c23 7 51 16
64 21 13 5 30 9 39 9 8 0 57 20 109 45 51 25 97 45 102 45 22 0 64 57 78 109
32 111 114 231 157 231 39 0 228 52 310 85 l80 32 -41 28 c-55 36 -54 44 1 10
23 -14 59 -36 79 -48 21 -12 38 -27 38 -33 0 -16 46 -34 85 -34 31 0 37 5 59
49 56 110 67 152 80 311 6 85 18 166 25 178 7 13 26 65 42 115 16 51 31 97 33
104 4 8 16 7 48 -4 24 -8 75 -16 113 -16 95 -2 162 31 241 116 l58 62 205 6
c118 3 226 11 254 18 l47 13 0 1259 c0 1160 -1 1259 -17 1267 -15 9 -14 12 4
38 70 98 143 300 143 392 l0 39 50 7 50 7 0 84 0 84 -47 3 c-44 3 -47 5 -55
38 -18 72 -102 320 -150 440 -117 295 -244 520 -493 877 l-30 43 -81 -6 -81
-6 -71 90 c-68 87 -72 94 -72 144 l-1 53 -236 130 c-129 71 -276 160 -327 197
-419 309 -1022 518 -1711 594 -167 18 -583 26 -713 14z m523 -231 c66 -5 173
-17 238 -26 99 -14 117 -19 117 -34 0 -10 -4 -20 -9 -23 -4 -3 -53 3 -107 14
-153 29 -311 41 -529 41 -511 1 -991 -95 -1418 -282 -112 -49 -193 -93 -313
-171 -87 -55 -126 -69 -139 -49 -11 19 138 118 309 205 526 270 1157 381 1851
325z m0 -169 c417 -28 867 -130 1320 -300 186 -69 427 -177 442 -196 6 -9 14
-33 18 -53 6 -35 16 -44 135 -126 128 -87 130 -88 202 -93 83 -5 79 -2 200
-134 l80 -88 -21 -64 c-27 -83 -27 -88 8 -113 150 -112 285 -266 360 -413 80
-155 158 -405 192 -613 l13 -77 67 -53 66 -52 7 -65 c11 -122 9 -137 -24 -162
-30 -22 -30 -23 -30 -117 l0 -96 -121 3 -122 4 -53 57 c-67 72 -149 113 -232
114 -32 0 -63 -2 -70 -4 -16 -5 -23 6 -53 76 -31 74 -121 259 -129 265 -3 3
-9 12 -12 20 -5 12 -108 156 -139 194 -5 6 -33 43 -61 81 -177 241 -408 455
-655 608 -99 61 -411 217 -435 217 -8 0 -18 4 -23 9 -11 11 -55 27 -210 78
-60 19 -126 41 -145 48 -61 22 -161 46 -252 61 -21 4 -38 10 -38 13 0 6 141
68 193 85 12 4 17 16 17 41 l0 35 -170 0 c-99 0 -170 -4 -170 -9 0 -6 -28 -24
-62 -41 -35 -17 -79 -44 -99 -60 -33 -26 -40 -28 -101 -23 -89 7 -118 -1 -118
-32 0 -23 -1 -23 -27 -10 -112 55 -235 77 -408 73 -134 -4 -197 -16 -218 -43
-4 -5 -5 -24 -2 -41 5 -30 4 -32 -37 -37 -24 -4 -65 -13 -93 -21 -27 -9 -72
-22 -100 -30 -224 -66 -468 -197 -689 -370 -54 -43 -123 -89 -153 -103 -137
-62 -278 -164 -396 -286 -85 -87 -207 -251 -207 -278 0 -9 -7 -22 -15 -29 -33
-27 -146 -190 -183 -265 -53 -105 -92 -194 -92 -211 0 -10 -12 -14 -38 -14
-74 0 -128 -28 -216 -111 l-84 -79 -114 0 -114 0 9 102 c6 87 5 103 -8 110
-55 31 -63 49 -70 153 l-6 100 55 23 c76 33 136 95 136 141 0 51 27 199 57
316 69 270 191 462 446 703 l56 52 -30 72 -29 72 42 44 c24 24 73 75 110 113
l68 69 81 0 80 0 130 102 c92 73 129 108 129 123 0 37 22 53 170 115 555 237
1115 386 1571 419 165 12 245 12 414 1z m-632 -1115 c-8 -50 9 -65 74 -65 l55
0 -6 -32 c-17 -88 -18 -118 -6 -133 20 -24 80 -18 139 15 30 17 65 30 78 30
13 0 70 -14 126 -31 102 -30 154 -32 185 -7 15 13 16 50 0 66 -16 16 0 16 81
-3 205 -49 373 -64 391 -35 16 25 11 48 -10 55 -29 9 -24 29 11 42 19 8 34 23
42 42 6 17 17 31 24 31 22 0 240 -75 358 -123 251 -101 450 -215 632 -362 184
-148 291 -262 202 -214 -103 55 -687 184 -994 219 -300 34 -705 43 -930 21
-361 -36 -339 -37 -595 8 -161 29 -591 61 -804 61 -86 0 -156 4 -156 9 0 26
333 223 485 286 155 65 488 150 597 154 25 1 26 -1 21 -34z m-638 -505 c861
-62 1542 -245 2250 -605 110 -56 241 -127 290 -159 50 -32 135 -87 190 -122
55 -35 94 -64 88 -64 -7 0 -51 18 -97 40 -123 57 -153 69 -236 95 -41 13 -127
42 -190 64 -436 151 -984 269 -1450 311 -63 6 -169 16 -235 22 -162 16 -1048
16 -1225 0 -74 -7 -191 -16 -260 -22 -69 -6 -158 -15 -198 -21 -41 -6 -76 -8
-79 -5 -10 9 78 117 169 207 96 96 187 161 317 226 l86 43 220 0 c120 0 282
-5 360 -10z m1825 -61 c69 -5 177 -17 240 -25 241 -31 592 -103 618 -128 10
-10 6 -37 -22 -143 -19 -71 -46 -163 -60 -203 -14 -41 -26 -81 -26 -91 0 -10
-4 -21 -10 -24 -5 -3 -81 33 -169 80 -222 120 -434 217 -701 320 -164 63 -425
145 -582 182 -74 17 -99 31 -60 34 229 18 549 17 772 -2z m-1190 -439 c445
-38 741 -84 1130 -177 80 -19 165 -41 190 -48 25 -8 92 -28 150 -45 86 -26
285 -93 346 -117 16 -6 19 -34 5 -48 -4 -6 -32 -55 -60 -110 -29 -55 -83 -144
-119 -198 -37 -54 -73 -109 -80 -123 -17 -31 -25 -30 -152 6 -154 45 -349 94
-580 146 -24 6 -49 10 -305 53 -305 51 -556 71 -965 78 -232 4 -381 1 -565
-11 -137 -9 -259 -19 -271 -21 -11 -2 -81 -11 -155 -20 -74 -8 -174 -22 -224
-30 -49 -8 -130 -21 -180 -29 -97 -16 -161 -28 -268 -53 -37 -9 -70 -13 -74
-9 -3 3 -1 17 5 31 7 14 12 34 12 44 0 36 70 228 118 326 48 97 145 238 193
281 20 17 50 24 174 37 255 27 384 38 555 47 202 10 962 4 1120 -10z m20 -679
c209 -17 340 -33 340 -41 0 -4 -51 -10 -112 -13 -175 -8 -363 -31 -598 -73
-133 -24 -426 -91 -520 -119 -25 -8 -92 -28 -150 -45 -308 -92 -677 -244
-1039 -431 -95 -49 -175 -89 -177 -89 -16 0 -32 252 -23 358 10 106 46 267 63
281 12 10 22 12 276 61 152 29 216 39 435 69 172 24 246 31 415 42 96 6 177
13 180 16 9 9 781 -5 910 -16z m930 -143 c52 -11 129 -29 170 -40 41 -11 93
-24 115 -30 59 -13 207 -59 228 -69 15 -9 3 -24 -85 -113 -119 -118 -243 -226
-261 -226 -7 0 -28 5 -47 11 -172 52 -465 120 -640 149 -423 70 -728 93 -1153
88 -152 -2 -277 0 -277 3 0 4 26 14 58 23 31 9 71 21 87 25 47 14 275 70 330
81 199 40 418 76 510 85 33 3 96 10 140 16 110 14 475 27 615 22 63 -2 158
-13 210 -25z m-3478 -1188 l-2 -1130 -35 0 -35 0 0 1130 0 1130 38 0 37 0 -3
-1130z m6028 0 l0 -1130 -35 0 -35 0 -2 1130 -3 1130 38 0 37 0 0 -1130z
m-3735 870 c484 -33 992 -126 1330 -243 39 -13 115 -38 170 -56 55 -17 116
-38 135 -46 19 -7 67 -26 105 -40 499 -191 993 -464 1465 -809 114 -83 110
-77 110 -190 0 -107 -23 -242 -44 -264 -11 -11 -20 -9 -52 13 -21 15 -70 45
-109 67 -78 44 -74 42 -305 180 -91 54 -194 117 -230 140 -97 61 -309 176
-445 240 -282 133 -451 199 -730 282 -119 36 -140 42 -245 70 -153 40 -453 94
-567 102 -43 3 -139 13 -213 22 -107 13 -221 17 -555 16 -429 0 -467 -2 -855
-50 -149 -18 -400 -59 -515 -84 -22 -5 -87 -19 -145 -31 -115 -24 -148 -45
-129 -80 8 -16 3 -28 -29 -67 -70 -84 -160 -241 -186 -324 -8 -25 -25 -22 -30
5 -2 12 -9 46 -15 75 -14 70 -14 269 0 346 19 99 71 257 93 282 38 44 558 296
811 395 69 26 198 45 355 52 161 7 707 5 825 -3z m435 -565 c273 -33 613 -111
926 -214 185 -60 445 -159 462 -176 11 -10 2 -29 -52 -109 -36 -52 -66 -100
-66 -106 0 -15 -53 -12 -107 6 -52 18 -92 30 -288 84 -470 130 -1069 210
-1580 210 -342 0 -835 -45 -1155 -106 -181 -35 -238 -46 -287 -59 l-53 -14 0
110 c0 90 4 117 20 149 24 46 15 43 295 99 341 68 702 117 1030 140 193 14
694 6 855 -14z m-230 -404 c58 -6 158 -16 224 -22 138 -13 199 -27 126 -28
-62 -1 -402 -38 -475 -51 -33 -6 -98 -18 -145 -26 -85 -15 -134 -26 -285 -63
-106 -26 -190 -48 -228 -61 -18 -6 -80 -26 -139 -45 -59 -19 -118 -39 -130
-45 -13 -5 -66 -25 -118 -45 -225 -87 -492 -213 -705 -334 l-90 -51 -3 302
c-1 166 1 305 5 309 7 7 134 34 343 74 186 35 458 68 695 85 88 6 171 13 185
15 51 7 639 -4 740 -14z m1001 -165 c202 -52 397 -110 410 -123 6 -6 -31 -51
-93 -114 -147 -150 -216 -209 -243 -209 -13 0 -79 16 -147 36 -220 63 -459
114 -703 148 -310 43 -407 50 -767 50 -196 1 -354 4 -352 8 3 4 22 12 42 18
20 5 78 22 127 36 466 133 858 188 1361 192 l191 2 174 -44z m-1046 -304 c44
-6 118 -16 165 -21 235 -29 502 -80 690 -131 91 -25 177 -51 195 -59 11 -6 83
-31 160 -56 346 -115 755 -307 1045 -490 251 -159 578 -396 604 -438 26 -41
-8 -278 -47 -331 -12 -16 -21 -13 -116 46 -56 34 -150 93 -209 129 -59 36
-160 100 -224 142 -178 117 -447 265 -613 337 -27 11 -59 25 -70 30 -332 150
-868 292 -1205 320 -63 5 -155 15 -205 21 -56 8 -229 12 -460 12 -365 0 -581
-13 -830 -53 -33 -5 -105 -17 -160 -25 -55 -9 -174 -32 -265 -52 -91 -20 -179
-38 -197 -40 -44 -7 -59 -26 -44 -59 10 -23 7 -30 -23 -67 -46 -57 -101 -159
-130 -243 -14 -38 -28 -69 -33 -69 -10 0 -51 158 -52 200 -1 22 6 35 28 49 57
38 61 57 61 254 0 157 2 182 18 200 18 22 236 143 387 217 127 61 265 125 271
125 3 0 24 9 47 19 40 18 169 37 307 45 132 7 828 -2 905 -12z m558 -582 c4 0
7 -5 7 -11 0 -11 -28 -10 -135 7 l-39 7 29 -26 c29 -25 30 -28 31 -124 0 -54
2 -102 3 -108 1 -5 12 31 25 80 12 50 25 96 30 103 4 6 22 12 41 12 58 0 79
-30 130 -187 25 -79 50 -143 54 -143 5 0 11 29 13 65 5 61 27 115 47 115 5 0
16 -28 26 -62 46 -167 122 -267 249 -327 120 -57 168 -66 351 -65 143 1 170 4
248 28 89 26 188 71 241 109 l29 21 24 -30 c30 -37 118 -194 135 -240 19 -53
21 -53 -227 -74 -71 -6 -159 -15 -195 -20 -36 -5 -110 -14 -165 -21 -174 -19
-221 -44 -254 -134 -23 -62 -32 -176 -13 -182 7 -3 12 5 12 20 0 32 37 86 79
114 40 27 238 93 279 93 16 0 68 14 118 30 49 17 123 37 164 46 41 8 103 24
137 35 35 11 67 18 72 15 10 -7 3 -137 -9 -149 -4 -5 -59 -20 -121 -33 -298
-65 -390 -91 -456 -130 -76 -44 -189 -171 -170 -190 3 -3 43 18 89 48 102 68
241 124 273 112 17 -7 25 -52 24 -143 0 -96 -11 -156 -27 -156 -7 0 -23 18
-35 40 -12 22 -30 41 -40 43 -15 3 -17 -7 -17 -86 0 -108 -12 -150 -48 -159
-37 -9 -82 43 -82 97 0 59 -15 90 -44 90 -44 0 -47 -14 -40 -226 6 -187 5
-202 -15 -254 -12 -33 -37 -72 -61 -95 l-40 -39 -15 37 c-8 20 -15 42 -15 49
0 25 -83 178 -96 178 -22 0 -17 -74 7 -122 11 -22 23 -64 26 -93 l6 -52 -64
-61 c-86 -82 -95 -81 -101 11 -4 57 -13 88 -42 147 -45 91 -70 125 -84 116 -8
-5 -7 -18 3 -47 11 -29 12 -47 4 -67 -6 -17 -8 -67 -4 -132 l7 -105 -27 -28
c-22 -21 -37 -27 -70 -27 -75 0 -108 21 -143 92 -17 35 -37 72 -45 82 -14 18
-15 16 -26 -33 -6 -28 -11 -75 -11 -102 0 -75 -11 -89 -70 -89 -37 0 -56 6
-77 24 l-28 24 -1 144 c-1 136 -11 198 -33 198 -25 0 -51 -54 -51 -107 0 -61
-17 -102 -57 -133 -37 -28 -52 -58 -53 -97 0 -37 -10 -40 -83 -24 -23 6 -53
12 -67 15 -38 8 -58 53 -70 152 -5 49 -10 95 -10 102 0 7 -5 10 -10 7 -16 -10
-36 -65 -44 -118 -4 -26 -12 -47 -18 -47 -20 0 -78 50 -94 81 -12 24 -13 40
-5 82 18 96 22 147 15 192 -3 25 -10 45 -15 45 -5 0 -29 -31 -54 -69 -45 -68
-75 -95 -75 -66 0 8 -10 34 -22 57 -20 38 -23 59 -24 173 -1 103 -4 130 -15
132 -28 5 -58 -33 -111 -139 -10 -21 -23 -38 -28 -38 -5 0 -28 20 -50 44 -22
24 -63 53 -90 65 -27 12 -54 29 -59 39 -5 9 -9 46 -9 82 0 36 -3 88 -6 116 -6
41 -4 54 11 73 19 23 20 23 74 7 73 -21 153 -81 145 -109 -5 -22 9 -57 24 -57
6 0 10 30 10 68 -1 149 -90 234 -297 284 -49 11 -90 22 -92 24 -1 1 8 18 22
36 13 18 27 41 31 52 5 16 15 18 89 13 104 -6 296 -41 334 -60 47 -25 69 -55
56 -77 -10 -16 -8 -18 18 -22 16 -3 29 -3 29 -1 0 3 -9 28 -21 56 -70 178 -76
182 -303 182 -134 0 -170 3 -174 14 -4 11 -6 11 -13 0 -5 -9 -37 -16 -91 -19
l-83 -6 62 -13 c81 -18 93 -31 67 -78 -28 -53 -69 -75 -124 -69 -25 3 -119 10
-210 16 -184 13 -314 32 -336 51 -14 11 -74 132 -74 148 0 4 -9 24 -20 46 -21
41 -25 65 -12 65 4 0 27 -14 52 -30 49 -33 128 -60 169 -59 26 1 26 1 -4 14
-17 7 -53 35 -80 62 -28 26 -75 69 -106 95 -59 49 -124 159 -117 195 5 22 37
19 58 -6 23 -26 59 -43 73 -34 6 4 22 9 34 11 13 1 59 18 104 37 92 40 115 44
104 18 -15 -37 -17 -53 -6 -53 6 0 15 8 19 19 10 25 90 91 111 91 22 0 41 -19
41 -43 0 -10 4 -16 9 -13 5 3 31 -12 57 -34 60 -49 191 -116 264 -134 l55 -13
5 -69 5 -69 14 42 c20 59 47 86 79 78 13 -3 70 -6 126 -6 118 0 265 33 348 78
106 58 183 163 223 308 10 33 21 64 26 69 11 13 36 -20 43 -56 3 -16 10 -28
15 -28 17 0 25 44 23 135 -1 50 2 96 6 103 6 8 24 12 48 10 44 -3 33 23 128
-298 21 -70 26 -106 26 -207 0 -67 -4 -133 -10 -147 -5 -14 -35 -52 -67 -85
-32 -33 -78 -93 -102 -133 -24 -41 -58 -83 -75 -94 -71 -47 -114 -141 -123
-270 -5 -76 -4 -85 22 -132 49 -90 154 -136 312 -137 51 0 97 5 102 10 14 14
16 95 4 175 -9 61 -3 190 13 280 l7 35 13 -30 c7 -16 13 -60 14 -97 0 -37 4
-89 9 -115 6 -26 12 -77 15 -113 3 -36 9 -85 12 -109 l7 -43 111 4 c101 4 117
8 181 39 49 24 77 44 92 69 12 19 29 44 37 55 14 20 14 19 25 -7 13 -35 17
-35 37 4 24 47 15 131 -24 209 -41 84 -100 161 -221 290 -91 96 -103 106 -147
115 -47 9 -49 10 -46 41 4 38 -15 78 -57 117 -18 18 -31 40 -32 55 0 14 -4 35
-9 46 -8 18 -9 18 -9 2 -1 -30 -20 -9 -47 51 -24 54 -114 387 -114 421 0 10
24 28 62 47 62 31 62 31 133 17 38 -7 73 -13 78 -13z m-1862 -90 c9 -40 3 -55
-15 -41 -16 13 -26 4 -26 -24 0 -13 10 -27 25 -35 40 -22 123 -164 112 -193
-4 -10 -16 -17 -27 -17 -15 0 -20 7 -20 28 l-1 27 -37 -41 c-26 -30 -59 -51
-112 -73 -86 -36 -90 -36 -90 -16 0 8 -5 15 -11 15 -6 0 -8 -7 -5 -16 5 -13 2
-15 -14 -11 -11 3 -23 1 -26 -4 -9 -15 -40 -10 -58 10 -10 10 -32 22 -51 25
-31 6 -34 10 -44 59 -15 80 -22 200 -12 215 6 11 16 11 47 3 50 -14 234 -27
234 -16 0 4 -18 27 -40 51 -22 24 -40 47 -40 52 0 10 143 41 180 38 19 -1 26
-8 31 -36z m3489 -554 c94 -57 320 -223 320 -236 0 -19 -352 -126 -372 -114
-9 6 -10 121 -1 155 2 12 10 15 25 11 11 -3 19 -1 17 4 -40 91 -86 171 -128
222 l-53 63 50 -25 c28 -14 92 -50 142 -80z"/>
<path d="M3255 1960 c-29 -50 -106 -119 -178 -159 -44 -25 -212 -61 -320 -68
-91 -7 -97 -22 -16 -41 57 -13 197 -9 277 9 70 15 131 49 182 100 73 73 133
210 93 209 -4 0 -21 -23 -38 -50z"/>
<path d="M3974 1976 c-9 -24 49 -139 97 -191 55 -60 108 -90 189 -109 120 -29
371 -14 338 20 -3 3 -46 9 -95 14 -119 11 -239 37 -290 62 -65 32 -161 115
-182 157 -26 50 -49 69 -57 47z"/>
<path d="M3090 957 c0 -7 15 -27 34 -44 21 -18 38 -45 44 -69 28 -109 33 -147
27 -198 -9 -70 8 -75 35 -10 28 64 41 155 29 198 -10 37 -38 62 -121 110 -34
19 -48 23 -48 13z"/>
<path d="M3845 799 c-16 -5 -90 -9 -163 -8 -73 0 -136 -1 -138 -4 -3 -2 25
-10 61 -17 44 -8 69 -18 75 -31 6 -10 10 -55 10 -101 0 -88 7 -128 21 -128 5
0 9 40 9 90 0 112 11 137 64 151 88 24 136 41 141 50 8 11 -40 10 -80 -2z"/>
</g>
</svg>
