<?xml version="1.0" standalone="no"?>
<!DOCTYPE svg PUBLIC "-//W3C//DTD SVG 20010904//EN"
 "http://www.w3.org/TR/2001/REC-SVG-20010904/DTD/svg10.dtd">
<svg version="1.0" xmlns="http://www.w3.org/2000/svg"
 width="382.000000pt" height="309.000000pt" viewBox="0 0 382.000000 309.000000"
 preserveAspectRatio="xMidYMid meet">
<metadata>
Created by potrace 1.16, written by Peter Selinger 2001-2019
</metadata>
<g transform="translate(0.000000,309.000000) scale(0.100000,-0.100000)"
fill="#000000" stroke="none">
<path d="M137 2981 l-42 -40 0 -1414 c0 -1401 0 -1415 20 -1437 47 -52 -46
-50 1843 -50 1896 0 1814 -2 1842 49 11 21 15 2827 4 2867 -3 12 -23 31 -44
43 l-38 21 -1771 0 -1772 0 -42 -39z m3113 -40 c92 -26 145 -55 208 -115 57
-53 112 -122 112 -139 0 -6 -13 9 -28 34 -33 51 -97 109 -162 147 -25 14 -52
31 -60 37 -30 24 -137 45 -226 45 -137 0 -226 -33 -343 -128 -55 -45 -136
-168 -157 -238 -18 -61 -23 -184 -11 -264 5 -30 6 -52 3 -49 -17 16 -27 156
-17 232 26 196 178 377 369 438 78 25 226 25 312 0z m-65 -61 c3 -5 17 -10 29
-10 45 0 161 -68 218 -128 63 -66 91 -116 113 -199 27 -103 12 -240 -37 -337
-24 -48 -99 -129 -153 -166 -92 -63 -263 -88 -385 -56 -50 14 -56 13 -67 -1
-23 -30 -14 -41 51 -58 90 -24 268 -17 345 14 159 65 282 212 312 376 16 85 6
228 -20 294 -11 30 -19 57 -17 59 2 2 14 -23 26 -55 27 -70 37 -212 21 -297
-32 -170 -167 -331 -326 -386 -33 -12 -68 -26 -77 -31 -20 -10 -211 -12 -221
-2 -4 3 -39 16 -77 29 -89 28 -156 71 -220 141 -47 51 -110 157 -110 183 0 6
16 -18 34 -55 35 -66 92 -145 105 -145 3 0 12 14 19 32 10 28 9 35 -12 62 -21
29 -68 112 -72 129 -1 4 -3 10 -4 15 -2 4 -4 12 -5 17 -1 6 -5 18 -10 28 -4 9
-5 61 -3 115 5 106 26 167 88 257 43 63 137 130 208 150 31 8 64 20 72 25 20
12 167 12 175 0z m-1370 -236 c342 -59 621 -256 815 -575 50 -82 57 -99 42
-99 -5 0 -23 31 -40 70 -69 147 -222 316 -382 422 -109 71 -145 89 -255 126
-200 68 -454 82 -665 37 -166 -35 -262 -75 -388 -162 -37 -26 -85 -59 -107
-74 -143 -98 -328 -384 -375 -579 -11 -47 -26 -95 -32 -107 -6 -12 -8 -31 -5
-42 3 -12 1 -24 -4 -27 -12 -7 -12 -311 0 -318 5 -3 7 -15 4 -27 -3 -11 -1
-30 5 -42 6 -12 21 -60 32 -107 25 -104 134 -331 184 -382 20 -21 36 -41 36
-45 0 -19 151 -154 235 -211 221 -148 403 -203 670 -204 338 -1 595 99 828
321 130 124 167 180 280 421 58 123 72 207 72 425 0 110 -3 216 -7 235 -7 30
-6 32 4 15 17 -29 23 -335 9 -434 -14 -93 -62 -254 -98 -326 -109 -216 -326
-441 -523 -540 -188 -95 -438 -149 -630 -138 -41 3 -84 8 -95 13 -11 5 -51 14
-90 21 -142 24 -332 107 -450 196 -102 77 -232 213 -290 302 -25 38 -45 72
-45 75 0 3 -21 48 -46 98 -25 51 -58 136 -72 188 -25 89 -27 107 -26 305 0
194 2 217 26 305 35 126 139 335 216 430 185 231 401 366 677 425 136 29 352
33 490 9z m55 -127 c234 -62 477 -237 619 -446 47 -69 111 -199 111 -226 0 -9
-25 -60 -56 -113 -31 -53 -62 -108 -70 -122 -38 -66 -162 -274 -209 -350 -28
-47 -61 -101 -71 -120 -10 -19 -22 -36 -25 -38 -6 -3 -181 -129 -417 -300
l-101 -73 61 -85 c33 -46 63 -84 67 -84 3 0 70 50 148 110 78 61 144 110 147
110 3 0 64 45 135 101 118 92 131 106 162 167 18 37 53 101 78 142 76 127 201
352 201 361 0 5 5 9 10 9 13 0 14 -217 1 -224 -5 -3 -7 -15 -4 -26 3 -11 0
-26 -6 -34 -7 -8 -11 -20 -10 -28 1 -7 -1 -20 -4 -28 -3 -8 -16 -49 -28 -90
-41 -145 -116 -267 -247 -402 -137 -142 -306 -245 -482 -293 -118 -33 -336
-45 -457 -25 -287 46 -541 205 -714 447 -74 104 -99 154 -137 273 -72 224 -71
474 3 696 39 119 51 144 117 243 100 147 250 283 392 355 212 106 303 127 541
121 120 -2 169 -8 245 -28z"/>
<path d="M2985 2846 c-146 -49 -242 -133 -283 -247 -13 -35 -26 -70 -30 -77
-4 -8 -4 -60 -1 -117 5 -89 10 -112 37 -167 17 -36 40 -72 50 -82 18 -16 20
-15 37 11 17 26 17 28 -3 67 -100 192 -40 412 140 512 50 27 60 29 163 29 97
0 116 -3 163 -25 28 -14 52 -28 52 -33 0 -4 11 -12 24 -17 13 -5 30 -20 38
-33 11 -21 59 -116 77 -155 3 -8 3 -55 0 -106 -5 -79 -11 -101 -39 -155 -37
-69 -81 -111 -150 -142 -25 -12 -55 -26 -67 -32 -31 -14 -171 -13 -185 1 -18
18 -55 14 -61 -5 -2 -10 -8 -26 -12 -35 -5 -14 4 -20 51 -34 87 -25 200 -16
288 23 65 29 165 106 166 128 0 6 11 22 24 36 12 14 34 52 46 84 33 82 33 224
2 305 -43 110 -144 209 -256 253 -65 25 -214 33 -271 13z"/>
<path d="M2995 2690 c-89 -43 -114 -69 -157 -159 -26 -56 -28 -149 -3 -208 9
-24 21 -43 25 -43 8 0 81 124 141 237 18 34 43 75 55 90 l22 28 66 -35 c36
-19 66 -41 66 -47 0 -14 -72 -153 -119 -230 -74 -121 -91 -157 -79 -165 22
-15 170 -4 210 16 49 23 103 77 130 129 32 59 32 194 1 252 -27 52 -75 97
-137 129 -63 33 -160 36 -221 6z"/>
<path d="M1480 2021 c-113 -22 -242 -98 -313 -184 -37 -46 -112 -177 -101
-177 4 0 1 -7 -6 -15 -7 -8 -9 -15 -5 -15 4 0 1 -7 -6 -17 -16 -19 -20 -235
-5 -268 5 -11 10 -24 10 -30 1 -5 18 -45 40 -89 185 -379 730 -414 968 -61 69
101 105 293 79 415 -19 89 -62 188 -98 225 -18 19 -33 38 -33 44 0 14 -89 84
-140 110 -87 45 -152 62 -250 66 -52 2 -115 0 -140 -4z m239 -170 c34 -11 76
-30 94 -43 18 -14 40 -27 49 -31 9 -3 25 -19 35 -34 10 -15 20 -30 24 -33 3
-3 19 -32 35 -65 27 -55 29 -69 29 -170 0 -104 -2 -114 -33 -177 -32 -66 -85
-138 -103 -138 -4 0 -30 -13 -55 -30 -26 -16 -63 -33 -81 -36 -18 -3 -36 -10
-39 -15 -7 -12 -161 -12 -168 0 -3 5 -21 12 -40 15 -85 16 -208 130 -251 231
-26 63 -31 183 -10 261 32 120 135 227 254 265 75 24 183 24 260 0z"/>
<path d="M1525 1545 c-19 -18 -25 -35 -25 -70 0 -63 31 -95 94 -95 37 0 48 5
70 31 17 20 26 42 26 66 0 80 -109 125 -165 68z"/>
</g>
</svg>
