<?xml version="1.0" standalone="no"?>
<!DOCTYPE svg PUBLIC "-//W3C//DTD SVG 20010904//EN"
 "http://www.w3.org/TR/2001/REC-SVG-20010904/DTD/svg10.dtd">
<svg version="1.0" xmlns="http://www.w3.org/2000/svg"
 width="1085.000000pt" height="1016.000000pt" viewBox="0 0 1085.000000 1016.000000"
 preserveAspectRatio="xMidYMid meet">
<metadata>
Created by potrace 1.16, written by Peter Selinger 2001-2019
</metadata>
<g transform="translate(0.000000,1016.000000) scale(0.100000,-0.100000)"
fill="#ffffff" stroke="none">
<path d="M7070 10150 c0 -3 -15 -7 -32 -9 -44 -4 -59 -6 -88 -14 -32 -8 -118
-17 -193 -21 -53 -2 -62 -6 -91 -38 -29 -31 -33 -41 -31 -87 3 -65 1 -63 75
-78 26 -5 70 24 70 46 0 7 3 10 8 8 4 -3 5 16 3 41 -2 26 -8 50 -14 54 -22 14
8 25 93 33 63 7 113 14 127 19 12 5 22 -27 29 -97 8 -84 13 -132 14 -132 1 0
3 -11 6 -25 13 -74 12 -79 -6 -85 -30 -9 -96 -22 -156 -30 -159 -20 -194 -47
-194 -151 0 -39 3 -44 35 -60 32 -15 37 -15 72 3 28 13 39 25 41 46 2 15 7 27
12 27 5 0 2 16 -6 35 -8 19 -11 35 -8 35 4 0 1 6 -5 13 -11 14 -9 14 92 20 9
1 17 4 17 7 0 6 21 9 98 13 17 1 32 5 32 10 0 5 14 7 30 5 17 -3 33 -1 36 4 3
4 16 8 30 8 23 0 24 2 19 58 -3 31 -8 75 -11 97 -3 22 -8 51 -10 65 -5 34 -16
140 -18 165 -1 16 -8 20 -38 20 -21 0 -38 -2 -38 -5z"/>
<path d="M5085 8660 c-172 -37 -259 -189 -194 -339 24 -58 56 -83 129 -104
137 -39 278 24 346 154 l16 33 62 -65 c172 -181 413 -439 481 -515 28 -32 35
-34 93 -34 72 0 79 12 33 61 -16 16 -69 73 -118 126 -48 53 -92 101 -98 107
-5 6 -48 52 -95 101 -143 152 -280 302 -312 342 -88 112 -215 161 -343 133z"/>
<path d="M6915 7639 c-59 -9 -90 -24 -114 -55 -21 -27 -28 -64 -13 -64 5 0 19
11 31 24 33 35 89 42 144 18 37 -16 213 -116 225 -127 2 -2 -19 -15 -46 -29
-43 -22 -52 -23 -62 -11 -7 8 -18 15 -24 15 -7 0 -51 20 -99 45 -78 40 -95 45
-154 45 -63 0 -67 -1 -105 -40 -33 -33 -38 -43 -28 -55 10 -12 17 -11 47 12
46 35 74 33 163 -11 142 -70 148 -57 -67 -166 -214 -108 -275 -155 -297 -228
-16 -59 -4 -121 36 -180 42 -61 68 -75 129 -70 113 11 171 109 140 235 -7 26
-26 65 -43 86 -16 21 -28 40 -27 41 2 2 144 72 314 157 318 157 369 185 360
198 -4 8 -62 18 -144 27 -37 4 -145 52 -191 84 -47 34 -130 57 -175 49z"/>
<path d="M2821 7596 c-7 -8 -11 -27 -9 -43 3 -24 8 -28 33 -28 24 0 31 5 33
23 5 35 22 15 22 -26 l0 -38 -52 0 c-155 -1 -196 -146 -75 -263 32 -30 34 -36
26 -64 -22 -77 -1 -157 40 -157 30 0 70 39 77 74 6 33 -11 80 -41 116 -22 25
-2 56 41 63 56 9 84 41 84 95 0 41 -25 102 -41 102 -4 0 -7 25 -6 55 1 45 -3
59 -23 80 -27 29 -89 35 -109 11z"/>
<path d="M1475 6790 c-14 -22 -25 -46 -25 -54 0 -8 -4 -17 -9 -21 -6 -3 -8
-13 -6 -23 2 -10 -4 -43 -12 -73 -8 -29 -15 -62 -15 -71 1 -10 -3 -18 -8 -18
-4 0 -6 -14 -3 -31 3 -20 1 -29 -6 -25 -6 4 -8 -2 -6 -15 3 -13 0 -28 -6 -36
-7 -7 -8 -13 -4 -13 4 0 3 -6 -2 -12 -6 -7 -9 -21 -8 -30 2 -10 -1 -20 -5 -23
-5 -3 -7 -12 -3 -20 3 -8 0 -15 -7 -15 -6 0 -8 -5 -5 -10 4 -6 2 -16 -3 -23
-6 -7 -11 -15 -11 -19 -1 -5 -2 -10 -2 -13 -1 -3 -2 -13 -3 -23 0 -11 -8 -27
-16 -37 -10 -13 -11 -16 -2 -11 11 6 11 4 3 -10 -18 -33 -30 -84 -25 -99 4 -8
1 -15 -5 -15 -6 0 -10 -3 -9 -7 0 -5 -2 -16 -5 -25 -4 -10 -10 -26 -14 -35 -3
-10 -5 -26 -4 -37 2 -12 -1 -16 -9 -11 -9 5 -10 1 -6 -13 4 -11 2 -23 -4 -27
-5 -3 -10 -15 -10 -26 0 -10 -5 -19 -11 -19 -6 0 -8 -9 -4 -20 4 -12 2 -20 -5
-20 -6 0 -8 -4 -5 -10 3 -5 1 -10 -5 -10 -7 0 -10 -6 -7 -14 3 -8 0 -20 -8
-26 -8 -6 -11 -18 -8 -25 3 -8 -3 -22 -12 -31 -9 -9 -14 -22 -11 -30 3 -7 -2
-18 -10 -25 -8 -7 -13 -18 -10 -26 3 -7 1 -13 -5 -13 -6 0 -8 -4 -4 -9 3 -5
-2 -16 -11 -25 -8 -9 -12 -21 -8 -27 4 -7 3 -9 -3 -6 -6 4 -13 -2 -16 -13 -3
-11 -4 -20 -2 -20 7 0 104 85 236 209 79 74 167 155 194 181 78 73 247 223
278 246 31 25 32 29 11 69 -9 17 -33 82 -54 145 -21 63 -46 129 -54 147 -9 17
-28 71 -42 120 -58 201 -115 259 -169 173z"/>
<path d="M6000 6476 c-14 -14 -54 -53 -90 -88 -94 -91 -248 -218 -265 -218 -8
0 -18 -6 -22 -14 -4 -7 -21 -22 -38 -32 -16 -11 -48 -36 -70 -56 -76 -70 -155
-138 -163 -138 -4 0 -32 -23 -62 -51 l-55 -51 -12 29 c-7 15 -12 33 -13 39 0
6 -9 19 -20 29 -11 10 -20 23 -20 29 -1 21 -75 96 -99 101 -13 2 -32 12 -43
21 -28 27 -121 29 -190 5 -76 -26 -124 -71 -143 -135 -17 -55 -20 -132 -6
-140 5 -3 12 -18 16 -33 3 -16 16 -38 28 -51 58 -62 83 -82 99 -82 9 0 24 -7
32 -16 9 -8 16 -13 16 -10 0 3 12 1 28 -5 91 -35 234 5 342 95 100 84 109 91
135 111 14 11 41 32 59 48 19 15 39 27 46 27 8 0 10 3 7 6 -7 7 30 44 43 44 4
0 25 15 46 34 22 19 52 45 68 58 15 12 57 51 93 86 71 67 83 69 107 11 10 -24
62 -87 146 -179 19 -21 58 -64 85 -96 28 -32 61 -70 75 -84 14 -14 45 -50 70
-80 24 -30 64 -75 87 -100 23 -25 58 -64 78 -86 l35 -42 -41 -41 c-23 -22 -59
-55 -81 -73 -23 -18 -64 -55 -93 -83 -29 -27 -63 -59 -76 -69 -49 -39 -117
-105 -112 -109 2 -3 -18 -23 -44 -45 l-48 -41 -43 87 c-49 96 -81 146 -90 138
-3 -4 -13 1 -23 10 -20 18 -122 43 -164 39 -100 -8 -194 -65 -195 -117 0 -10
-4 -18 -9 -18 -18 0 -21 -107 -4 -159 9 -28 20 -51 25 -51 4 0 8 -5 8 -11 0
-17 72 -89 82 -83 5 3 30 -7 56 -22 41 -25 57 -28 128 -27 103 1 192 37 223
89 11 18 31 36 45 40 14 3 24 10 21 14 -6 10 121 120 138 120 7 0 20 8 28 18
9 9 40 37 69 62 56 48 113 98 170 150 19 18 51 44 70 58 19 15 60 49 91 77 99
90 166 149 207 183 l40 34 -22 34 c-11 19 -31 37 -44 40 -12 4 -31 23 -42 43
-16 31 -58 78 -115 131 -9 8 -36 40 -59 72 -23 31 -49 63 -57 71 -8 8 -36 40
-64 72 -27 32 -63 73 -80 91 -16 18 -55 61 -85 96 -30 34 -71 79 -91 100 -20
21 -35 38 -32 38 3 0 -14 18 -37 40 -23 22 -45 40 -48 40 -4 0 -18 -11 -32
-24z m-63 -248 c13 -12 23 -27 23 -33 0 -7 16 -30 35 -51 19 -22 52 -59 74
-84 22 -25 66 -74 98 -110 32 -35 74 -82 93 -103 77 -87 97 -107 107 -107 6 0
17 -10 25 -22 9 -13 40 -49 69 -81 32 -33 56 -68 57 -82 1 -14 0 -25 -2 -25
-10 0 -146 132 -146 141 0 9 -52 75 -109 139 -170 190 -286 315 -293 318 -5 2
-6 8 -2 13 3 5 -3 12 -13 16 -25 8 -73 54 -73 69 0 10 12 20 29 23 3 1 15 -9
28 -21z"/>
<path d="M9180 5892 c-48 -33 -60 -48 -105 -144 -56 -119 -91 -278 -94 -428
-1 -22 -10 -29 -63 -50 -220 -84 -416 -228 -478 -350 -34 -67 -58 -170 -53
-235 6 -89 43 -157 132 -244 107 -104 219 -153 401 -175 34 -4 13 -167 -33
-261 -31 -63 -65 -95 -104 -98 -17 -1 -29 -5 -26 -9 8 -14 -43 -8 -83 8 l-39
16 36 18 c47 24 57 38 65 87 5 36 3 43 -22 67 -51 46 -144 33 -179 -26 -33
-57 -17 -128 38 -165 91 -61 154 -78 234 -61 132 28 223 167 248 381 6 46 11
57 26 57 49 0 180 70 230 123 69 73 111 239 84 329 -43 143 -120 216 -280 264
l-30 9 -2 118 c-2 103 0 119 15 124 27 10 122 72 150 98 15 14 30 25 34 25 4
0 30 30 58 67 112 148 109 293 -9 414 -48 50 -62 59 -91 58 -19 0 -46 -8 -60
-17z m116 -127 c42 -89 25 -234 -35 -302 -28 -33 -155 -113 -177 -113 -8 0
-10 13 -8 38 6 49 42 228 56 272 14 47 78 173 91 182 17 11 47 -21 73 -77z
m-326 -636 c-1 -35 -4 -76 -4 -91 -2 -35 -3 -35 -55 -43 -82 -12 -161 -82
-204 -180 -57 -132 -43 -211 46 -269 32 -20 46 -16 24 6 -24 23 -46 73 -53
118 -5 32 -2 52 16 91 13 27 27 49 32 49 4 0 8 7 8 15 0 8 9 19 19 25 11 5 26
17 35 25 15 16 100 55 118 55 7 0 8 -35 4 -102 -3 -57 -9 -164 -12 -238 -6
-126 -9 -178 -13 -223 -1 -17 -9 -18 -63 -16 -166 8 -321 159 -335 328 -12
137 60 260 223 382 93 70 198 138 208 135 5 -1 8 -31 6 -67z m163 -210 c41
-20 107 -104 134 -169 63 -155 18 -311 -110 -375 -97 -48 -91 -66 -84 263 4
158 6 288 7 290 1 6 34 1 53 -9z"/>
<path d="M3808 5793 c-10 -2 -18 -10 -18 -17 0 -16 -34 -48 -43 -41 -4 3 -5 2
-2 -2 3 -3 -9 -19 -25 -35 -17 -15 -30 -33 -30 -38 0 -6 -7 -10 -15 -10 -8 0
-15 -7 -15 -15 0 -8 -12 -21 -27 -29 -16 -8 -24 -15 -19 -16 5 0 -5 -14 -23
-30 -17 -17 -31 -35 -31 -40 0 -6 -7 -10 -15 -10 -9 0 -18 -8 -22 -17 -3 -10
-22 -35 -42 -55 -20 -21 -42 -44 -49 -53 -7 -8 -17 -13 -21 -10 -5 2 -14 -9
-21 -25 -7 -17 -15 -28 -18 -25 -3 3 -13 -9 -23 -25 -11 -17 -26 -30 -34 -30
-9 0 -13 -4 -10 -10 3 -5 1 -10 -4 -10 -6 0 -11 -4 -11 -10 0 -6 6 -9 13 -8 6
2 11 -3 9 -10 -1 -8 2 -11 8 -7 5 3 13 -1 16 -9 3 -9 10 -13 15 -10 8 5 13 -9
10 -28 0 -4 9 -10 20 -13 26 -9 101 -80 92 -89 -3 -3 3 -6 15 -6 12 0 23 -8
27 -20 4 -11 10 -18 14 -16 11 7 63 -49 54 -58 -5 -4 -2 -6 6 -4 16 4 156
-119 166 -145 4 -10 9 -16 12 -13 3 2 26 -16 51 -42 26 -26 54 -51 63 -57 8
-5 30 -20 49 -32 18 -12 39 -19 47 -16 8 3 19 0 24 -8 5 -8 9 -9 9 -3 0 7 15
11 38 10 23 -1 50 7 72 20 44 28 90 75 90 91 0 7 4 13 9 13 5 0 11 11 13 25 3
14 2 25 -3 25 -4 0 -6 11 -4 25 1 14 -1 25 -6 25 -4 0 -10 8 -14 19 -9 28 -43
64 -54 57 -5 -3 -17 1 -25 10 -9 8 -16 11 -16 5 0 -7 -8 -7 -27 0 -15 6 -29 6
-32 1 -3 -5 -14 -8 -23 -6 -10 1 -18 -2 -18 -7 0 -5 -7 -9 -15 -9 -16 0 -116
-94 -114 -107 1 -4 1 -16 0 -25 -1 -22 -21 -24 -21 -3 0 8 -7 15 -15 15 -18 0
-111 88 -107 102 1 5 -2 7 -7 4 -5 -4 -14 2 -20 11 -6 10 -11 14 -11 10 0 -11
-50 44 -50 55 0 5 -4 7 -9 4 -5 -3 -25 12 -44 33 -20 22 -45 45 -57 51 -21 11
-20 12 18 53 50 52 146 157 202 219 23 26 46 45 51 42 5 -3 8 0 7 8 -2 7 3 12
10 11 6 -2 11 3 10 10 -2 6 3 11 10 10 6 -2 12 3 12 10 0 16 60 82 82 90 11 4
15 12 12 22 -3 8 -1 15 5 15 21 0 61 -32 54 -43 -3 -5 -1 -7 4 -4 13 8 46 -27
36 -38 -5 -4 -2 -5 5 -1 11 7 90 -55 179 -138 12 -12 40 -36 62 -55 23 -19 41
-41 41 -48 0 -7 6 -10 15 -7 9 4 15 0 15 -10 0 -9 3 -15 8 -14 4 1 33 -8 65
-20 34 -13 72 -20 92 -18 57 7 121 42 151 82 16 22 32 41 36 44 8 6 2 69 -7
78 -2 3 -1 10 5 16 10 14 3 26 -25 43 -11 6 -19 16 -17 23 1 6 -2 9 -7 6 -5
-4 -12 -2 -16 4 -3 5 -15 10 -26 10 -10 0 -19 4 -19 9 0 12 -40 19 -60 10 -74
-33 -93 -38 -102 -33 -7 4 -8 2 -4 -4 4 -7 1 -12 -8 -12 -9 0 -15 -3 -15 -7 3
-20 -2 -34 -11 -28 -5 3 -10 -3 -10 -14 0 -11 -7 -26 -15 -35 -8 -8 -19 -25
-24 -38 l-9 -23 -11 28 c-6 15 -13 27 -16 27 -4 0 -3 -6 1 -12 5 -7 -8 1 -28
17 -19 17 -33 33 -31 38 2 4 -2 7 -11 7 -8 0 -26 14 -39 30 -14 17 -29 30 -34
30 -12 0 -42 37 -36 44 4 3 -4 6 -16 6 -17 0 -21 4 -17 16 3 9 2 12 -5 8 -12
-7 -71 45 -64 56 3 4 -9 13 -25 20 -16 7 -46 30 -65 51 -19 22 -37 39 -40 39
-7 0 -30 18 -60 48 -12 12 -24 21 -26 21 -2 -1 -12 -3 -21 -6z m122 -162 c0
-18 -172 -201 -190 -201 -5 0 -10 -5 -10 -11 0 -6 -22 -34 -50 -61 -27 -27
-50 -54 -50 -59 0 -5 -11 -14 -25 -19 -14 -5 -24 -13 -23 -18 2 -5 -16 -28
-39 -52 -24 -23 -43 -46 -43 -51 0 -5 -4 -9 -10 -9 -5 0 -10 7 -10 16 0 9 -5
12 -12 8 -16 -9 14 28 64 78 21 21 42 38 48 38 5 0 9 4 8 8 -5 15 67 89 81 84
10 -3 12 0 8 13 -5 12 -1 18 13 22 11 3 20 10 20 15 0 10 66 84 148 165 40 40
72 55 72 34z"/>
<path d="M7250 4343 c-58 -70 -126 -151 -152 -181 -27 -31 -48 -58 -48 -62 0
-3 48 -49 107 -101 59 -52 130 -115 158 -141 l50 -47 -39 -33 c-36 -31 -39
-38 -40 -90 0 -60 10 -80 55 -104 23 -11 34 -12 65 -1 75 25 107 122 64 192
-26 42 -14 30 -173 174 l-126 115 52 59 c29 32 63 73 77 91 14 18 46 55 71 83
l45 51 115 -95 c63 -52 116 -97 118 -99 2 -2 -10 -15 -28 -29 -81 -69 -51
-205 46 -205 72 0 113 47 113 131 0 60 -21 85 -192 229 -82 69 -166 140 -186
157 -20 18 -39 33 -42 33 -3 -1 -52 -58 -110 -127z"/>
<path d="M4331 4030 c-32 -7 -69 -72 -63 -110 10 -66 126 -137 188 -115 42 15
40 32 -5 40 -39 6 -40 8 -26 28 18 26 19 83 2 116 -15 28 -63 49 -96 41z"/>
<path d="M5239 4006 c-13 -6 -28 -26 -33 -45 -19 -68 45 -132 124 -124 19 2
72 6 118 10 55 4 82 10 82 18 0 27 -27 35 -105 29 l-77 -5 6 26 c14 55 -64
117 -115 91z"/>
<path d="M6403 3896 c10 -25 197 -588 197 -592 0 -2 -12 -4 -27 -4 -72 -1
-160 -71 -172 -137 -14 -75 17 -124 91 -144 44 -11 66 -7 125 27 90 52 95 134
18 354 -26 74 -49 145 -52 157 l-5 22 63 -17 c35 -10 82 -27 104 -37 34 -17
41 -27 49 -63 12 -54 30 -49 34 9 2 37 -2 50 -27 80 -25 30 -49 43 -140 75
-62 21 -113 45 -117 54 -3 8 -10 28 -15 43 -7 24 -5 28 7 23 9 -3 52 -15 97
-27 137 -34 176 -66 177 -143 0 -24 2 -27 15 -16 20 16 19 69 -1 120 -20 50
-74 84 -156 99 -67 12 -101 28 -185 87 -63 45 -89 55 -80 30z"/>
<path d="M4513 3833 c5 -7 3 -22 -4 -34 -8 -17 -8 -23 1 -29 9 -6 7 -11 -9
-19 -18 -10 -51 -59 -51 -76 0 -15 40 -1 85 29 27 19 55 31 63 29 9 -4 6 -10
-10 -21 -13 -9 -32 -24 -42 -34 -12 -11 -35 -18 -58 -18 -31 0 -38 -4 -38 -19
0 -38 92 -47 130 -12 14 12 37 29 53 37 27 14 27 14 27 -20 0 -38 37 -90 70
-101 30 -10 26 -53 -5 -61 -31 -8 -67 -65 -61 -96 3 -13 8 -36 11 -52 5 -25 4
-28 -8 -18 -8 7 -17 26 -21 43 -7 37 -51 79 -83 79 -13 0 -40 -7 -61 -16 -20
-9 -52 -16 -69 -15 -18 2 -47 -5 -65 -14 -32 -15 -33 -15 -51 9 -27 38 -42 24
-43 -44 -1 -33 2 -58 5 -55 4 2 6 -40 6 -93 -1 -53 2 -114 7 -135 7 -33 -1
-74 -13 -66 -2 1 -26 -1 -52 -5 -40 -6 -51 -13 -72 -45 -28 -41 -26 -90 3
-123 23 -27 135 -25 162 2 41 41 47 76 35 238 -3 39 -1 72 4 72 26 0 77 -49
85 -83 12 -49 40 -47 44 3 2 19 9 42 17 50 7 8 15 24 17 35 2 14 14 21 38 25
44 8 81 27 99 52 21 31 78 15 118 -32 18 -20 41 -40 52 -43 24 -6 79 20 92 44
14 27 -6 59 -36 59 -35 0 -40 17 -8 34 43 22 73 60 80 98 5 33 1 40 -43 84
-27 27 -64 62 -82 77 -20 17 -31 34 -28 43 3 8 1 14 -5 14 -6 0 -9 8 -8 18 1
9 -6 37 -16 60 -19 48 -45 63 -156 95 -31 9 -69 27 -84 39 -16 13 -26 17 -22
11z"/>
<path d="M3960 3770 c-43 -43 -16 -88 70 -119 67 -25 68 -27 38 -98 -6 -15
-10 -34 -9 -42 2 -10 -3 -11 -16 -6 -10 4 -28 10 -41 13 -16 3 -22 11 -21 26
7 55 -31 87 -70 59 -26 -18 -28 -64 -3 -85 9 -9 60 -30 112 -48 89 -30 95 -31
107 -14 7 10 13 23 13 30 0 7 4 23 9 36 5 13 9 26 10 31 0 4 7 23 15 42 14 32
14 36 -4 45 -10 5 -31 10 -47 10 -40 0 -88 32 -91 61 -2 13 -4 32 -5 42 -2 17
-23 37 -39 37 -5 0 -17 -9 -28 -20z"/>
<path d="M5251 3697 c-62 -67 4 -173 99 -158 27 5 36 11 38 29 2 12 -2 22 -8
22 -8 0 -10 10 -7 27 7 36 -16 79 -47 87 -13 3 -30 8 -38 11 -8 3 -24 -5 -37
-18z"/>
<path d="M7515 3416 c-36 -16 -115 -99 -115 -120 0 -8 -5 -37 -12 -65 -10 -46
-15 -51 -56 -69 l-46 -20 -30 31 c-51 50 -86 67 -144 67 -56 0 -132 -31 -164
-66 -19 -22 -48 -115 -48 -155 0 -21 -10 -33 -48 -58 -98 -63 -129 -121 -106
-200 24 -79 94 -126 154 -101 48 20 50 103 2 129 -23 12 -82 -20 -82 -44 0
-24 -17 -9 -24 21 -6 22 -1 34 26 61 18 19 50 43 70 54 l38 19 19 -39 c41 -79
164 -161 242 -161 63 0 94 14 150 69 49 48 60 66 78 126 23 79 29 112 30 172
1 41 2 42 76 83 42 23 88 52 103 65 27 23 37 24 252 31 259 8 240 8 261 6 14
-2 15 -8 8 -39 -23 -100 -5 -176 58 -241 94 -97 218 -89 290 19 55 83 29 216
-56 291 -75 66 -133 78 -311 63 -30 -2 -137 -7 -237 -10 l-182 -7 -3 28 c-2
15 -14 35 -28 45 -34 24 -126 33 -165 15z m-323 -284 l26 -17 -41 -17 c-124
-48 -210 -78 -215 -73 -11 11 33 86 62 105 41 26 130 27 168 2z m173 -94 c-24
-112 -72 -193 -128 -218 -49 -23 -75 -24 -129 -8 -56 17 -139 118 -97 118 6 0
62 22 125 49 63 27 114 46 114 43 0 -4 -5 -24 -10 -44 -14 -50 -54 -80 -102
-76 -53 3 -67 -14 -32 -41 36 -29 71 -26 125 8 53 33 83 87 84 148 0 42 6 49
43 52 10 1 12 -7 7 -31z"/>
<path d="M5298 3305 c-2 -3 -23 -6 -45 -8 -22 -2 -45 -7 -52 -11 -7 -5 -15 -5
-18 -2 -3 3 -11 2 -18 -4 -6 -5 -26 -11 -45 -13 -73 -7 -74 -10 -51 -126 25
-121 24 -114 10 -105 -6 3 -34 -16 -62 -42 -29 -27 -68 -64 -88 -82 l-37 -34
-25 26 c-33 33 -71 33 -101 1 -17 -19 -38 -27 -75 -32 -28 -3 -51 -10 -51 -16
0 -5 -9 2 -21 17 -15 19 -30 26 -53 26 -39 0 -86 -33 -86 -61 0 -13 -4 -18
-12 -13 -6 4 -8 3 -5 -3 3 -5 -3 -34 -14 -64 -12 -30 -23 -64 -25 -76 -2 -12
-9 -35 -15 -50 -24 -60 -20 -76 26 -89 6 -1 59 -19 119 -39 60 -20 110 -35
111 -33 15 18 37 77 41 115 4 27 16 63 27 81 17 30 24 33 50 28 17 -4 35 -12
39 -19 12 -18 10 -61 -4 -75 -9 -9 -6 -12 13 -12 16 0 33 10 46 28 19 26 20
35 12 113 -8 83 -8 84 19 112 15 16 39 38 54 48 27 20 27 20 45 -1 19 -22 87
-28 99 -9 4 7 21 -4 45 -27 l39 -38 -57 -58 c-32 -32 -62 -58 -68 -58 -6 0
-16 9 -23 20 -16 26 -73 27 -95 2 -39 -43 -4 -102 61 -102 34 0 46 9 146 109
123 124 122 119 35 192 -43 36 -50 47 -47 71 3 15 1 28 -2 28 -4 0 -10 21 -13
48 -3 26 -9 63 -13 82 -4 19 -3 32 1 28 5 -4 14 -3 22 3 7 6 13 9 13 5 0 -3
11 -1 25 4 13 5 45 12 71 15 25 3 50 8 55 11 7 4 22 -34 24 -59 0 -9 26 -27
38 -27 7 0 4 78 -6 110 -2 8 -7 27 -12 43 -6 24 -32 37 -47 22z m-659 -537 c0
-24 2 -54 5 -66 4 -18 1 -22 -9 -18 -7 2 -26 -5 -40 -16 -21 -17 -26 -28 -23
-53 l4 -32 -61 21 -61 20 27 76 c21 61 30 74 45 72 41 -7 69 -1 89 18 10 11
20 20 21 20 1 0 3 -19 3 -42z"/>
<path d="M2790 2978 c-85 -26 -169 -51 -186 -54 l-32 -6 15 -46 c9 -26 19 -51
23 -57 4 -5 22 -55 40 -110 18 -55 36 -102 40 -105 5 -3 20 -45 35 -95 15 -49
34 -101 41 -115 13 -24 52 -130 115 -309 16 -46 35 -94 43 -106 8 -12 27 -62
41 -111 15 -49 34 -100 41 -114 13 -24 46 -113 116 -315 17 -49 34 -92 37 -95
4 -3 16 -25 28 -50 70 -149 169 -345 176 -348 4 -2 7 -8 7 -13 0 -12 82 -143
92 -147 4 -2 8 -10 8 -18 0 -8 5 -14 10 -14 6 0 10 -7 10 -15 0 -8 5 -15 10
-15 6 0 10 -5 10 -11 0 -7 8 -19 18 -28 10 -9 33 -36 52 -61 19 -25 47 -56 62
-70 16 -13 28 -30 28 -38 0 -7 4 -11 10 -7 5 3 16 -7 24 -22 8 -15 15 -24 16
-19 0 4 14 -6 30 -24 17 -18 30 -28 30 -24 0 5 14 -7 31 -26 17 -19 28 -28 24
-20 -3 8 1 6 9 -4 9 -11 23 -21 32 -22 9 -1 23 -12 31 -24 8 -11 20 -20 26
-18 13 2 139 -60 147 -73 3 -5 15 -10 25 -12 11 -2 31 -9 45 -14 37 -15 92
-27 114 -24 10 1 16 -2 12 -7 -3 -5 8 -8 27 -7 17 2 38 -2 46 -8 12 -10 13 -9
6 3 -7 12 -6 13 6 5 23 -16 231 -10 354 10 17 3 46 7 65 9 19 1 61 10 93 20
31 9 83 23 115 32 31 9 80 27 108 40 28 13 57 24 64 24 17 0 189 78 200 91 3
3 31 18 63 33 31 16 57 32 57 37 0 5 7 9 15 9 8 0 15 5 15 10 0 6 7 10 15 10
8 0 15 5 15 10 0 6 7 10 15 10 8 0 15 4 15 9 0 6 19 21 43 35 23 14 39 26 35
26 -4 0 15 22 41 49 27 28 47 52 44 55 -3 2 5 9 16 16 12 6 21 17 21 25 0 8 4
15 9 15 4 0 16 20 26 45 9 25 23 52 31 59 8 8 15 23 17 33 1 10 6 24 10 31 5
6 6 16 2 21 -3 5 0 13 6 16 5 4 8 13 5 21 -3 7 -1 16 4 19 5 3 7 14 5 25 -2
11 -1 20 4 20 11 0 5 184 -8 265 -21 123 -41 188 -92 291 -49 99 -50 100 -96
112 -38 10 -49 10 -58 0 -21 -24 -127 -267 -120 -278 3 -5 13 -10 21 -10 32 0
75 -32 95 -71 26 -51 19 -89 -24 -125 -45 -38 -100 -29 -144 21 -53 61 -53
105 -3 211 67 141 120 261 120 271 0 5 -71 27 -157 48 l-158 39 -70 68 c-38
37 -75 68 -80 68 -6 0 -28 -17 -49 -39 l-37 -38 -81 23 -81 24 -29 -25 c-36
-30 -57 -31 -100 -5 -18 11 -41 20 -50 20 -15 0 -38 27 -38 44 0 16 44 3 65
-19 15 -14 25 -19 25 -11 0 8 -7 19 -15 26 -12 10 -10 16 15 41 17 18 32 45
35 67 4 20 8 42 10 49 6 19 62 25 100 12 31 -12 38 -11 62 8 34 25 39 76 9 81
-26 5 -50 -26 -35 -45 6 -7 8 -13 3 -13 -32 1 -51 57 -29 86 21 27 19 87 -4
115 -17 22 -28 24 -106 26 -79 2 -90 4 -114 27 -14 14 -42 32 -62 40 -35 14
-40 14 -98 -9 -34 -13 -64 -24 -66 -25 -41 -10 -65 -25 -65 -41 0 -10 6 -19
13 -19 9 0 12 -11 9 -34 -2 -19 3 -47 13 -65 13 -26 20 -31 38 -25 36 11 56
35 68 78 21 82 18 78 43 50 17 -20 34 -28 74 -32 51 -4 84 -24 62 -37 -14 -9
-12 -76 3 -97 7 -9 25 -20 40 -23 32 -8 36 -31 7 -40 -23 -7 -40 1 -40 20 0
15 -22 25 -54 25 -32 0 -76 -37 -76 -63 0 -14 -11 -28 -31 -40 -17 -9 -33 -26
-36 -37 -3 -11 -8 -20 -10 -20 -3 0 -64 16 -135 35 l-130 35 -28 -20 c-15 -11
-41 -20 -58 -20 -32 0 -82 39 -82 64 0 9 -15 19 -37 25 -52 15 -84 13 -107 -4
-11 -8 -28 -15 -38 -15 -10 0 -18 -4 -18 -8 0 -4 -12 -13 -27 -19 -37 -15 -87
-46 -91 -55 -2 -5 -8 -8 -13 -8 -6 0 -22 -11 -37 -25 -15 -14 -31 -25 -36 -25
-5 0 -19 -11 -32 -25 -13 -14 -25 -25 -28 -25 -12 0 -45 -34 -40 -42 3 -4 0
-8 -7 -8 -14 0 -70 -56 -62 -63 2 -3 -5 -8 -16 -12 -12 -3 -21 -11 -21 -16 0
-5 -8 -17 -19 -28 -18 -18 -19 -17 -36 38 -9 31 -23 65 -30 76 -7 11 -29 74
-50 140 -20 66 -41 125 -46 131 -5 6 -31 73 -58 150 -27 76 -72 202 -100 279
-29 77 -69 190 -91 250 -36 104 -80 219 -83 221 -1 1 -72 -21 -157 -48z m946
-1110 c16 -12 31 -25 34 -29 5 -7 93 -107 197 -223 63 -70 69 -86 30 -86 -15
0 -55 37 -131 121 l-109 120 -26 -24 c-52 -49 -91 -58 -140 -32 -37 19 -54 64
-39 106 22 65 126 91 184 47z m734 -197 c0 -17 7 -18 63 -14 l64 5 9 -112 c5
-61 7 -116 4 -120 -8 -13 -146 -28 -165 -18 -8 5 -15 22 -15 39 0 27 3 30 28
27 19 -2 28 -9 30 -25 4 -25 5 -26 51 -17 25 5 31 11 31 33 0 45 -13 54 -69
49 -60 -6 -84 7 -79 43 4 34 51 35 56 1 3 -19 8 -23 25 -18 12 3 30 6 40 6 12
0 17 8 17 28 0 43 -11 51 -80 54 -63 3 -65 4 -68 32 -2 16 2 32 9 37 18 11 49
-8 49 -30z m-210 -59 c0 -17 -204 -233 -226 -238 -30 -8 -81 12 -94 37 -14 24
-12 63 2 77 22 22 86 14 113 -12 l25 -25 76 85 c68 74 104 101 104 76z"/>
<path d="M6201 2738 c-13 -4 -27 -5 -33 -2 -6 4 -13 1 -17 -5 -4 -6 -26 -12
-48 -14 -23 -1 -38 -6 -35 -11 3 -5 -4 -7 -16 -4 -34 9 -43 -12 -27 -66 8 -27
12 -52 9 -57 -3 -5 -1 -9 4 -9 17 0 6 -38 -22 -74 -15 -20 -26 -41 -24 -46 2
-5 31 -32 66 -60 l64 -50 46 54 c38 46 48 53 64 45 26 -14 51 -4 77 31 41 56
7 104 -74 103 -5 0 -20 -3 -32 -7 -18 -6 -23 -3 -23 9 0 9 -15 22 -34 30 -25
11 -35 22 -38 44 -4 25 0 31 19 36 13 3 28 3 33 0 4 -3 10 1 13 7 3 8 9 1 15
-14 14 -33 40 -48 68 -38 29 11 36 24 28 54 -8 32 -52 56 -83 44z"/>
<path d="M5477 2667 c-9 -13 -22 -40 -30 -59 -12 -28 -25 -39 -61 -53 -25 -10
-46 -23 -46 -30 0 -20 24 -35 40 -25 19 12 30 12 30 2 0 -5 -9 -13 -20 -18
-19 -8 -19 -11 -7 -29 14 -18 16 -18 41 -1 15 9 32 28 38 42 15 32 29 30 69
-7 29 -27 39 -30 74 -26 41 6 85 43 85 73 0 13 12 18 33 15 4 0 7 8 7 19 0 11
-3 20 -6 20 -11 0 -64 -34 -64 -42 0 -17 -49 -39 -74 -32 -33 8 -34 23 -1 19
14 -1 25 2 25 6 0 13 -38 49 -51 49 -5 0 -8 4 -4 9 6 10 -44 90 -56 91 -4 0
-14 -11 -22 -23z"/>
<path d="M5179 2468 c-46 -44 -119 -148 -119 -168 0 -11 7 -23 15 -26 8 -4 15
-11 15 -18 0 -6 25 -31 55 -55 30 -24 55 -47 55 -51 0 -4 -7 -13 -15 -20 -18
-15 -20 -71 -3 -88 35 -35 98 2 98 58 0 36 -17 57 -99 120 -39 30 -71 58 -71
62 0 4 27 34 59 69 58 60 59 61 82 45 28 -19 55 -21 62 -3 3 8 -8 21 -26 32
-18 10 -44 29 -58 42 l-27 24 -23 -23z"/>
<path d="M4162 2438 c-49 -24 -41 -109 13 -144 43 -28 147 1 171 47 l15 30
-37 -16 c-46 -19 -44 -19 -44 8 0 30 -39 75 -70 81 -14 3 -35 0 -48 -6z"/>
<path d="M1022 2348 c-132 -61 -132 -61 -128 -92 12 -96 80 -279 125 -338 10
-13 21 -30 25 -38 15 -32 36 -65 36 -56 0 5 10 -4 22 -20 54 -67 130 -134 176
-153 17 -7 32 -16 32 -20 0 -4 16 -8 35 -9 27 -2 38 3 51 23 15 24 13 72 -4
85 -16 12 -62 80 -62 91 0 7 -3 9 -7 6 -8 -9 -20 9 -70 103 -43 81 -79 182
-88 245 -3 22 -8 51 -10 65 -7 42 -7 148 0 160 8 14 16 17 -133 -52z"/>
<path d="M5785 2361 c-28 -6 -89 -77 -79 -92 2 -3 -19 -35 -47 -69 -49 -61
-50 -64 -32 -79 11 -9 25 -29 31 -44 11 -25 9 -32 -13 -64 -13 -20 -22 -40
-19 -45 10 -16 41 -8 52 15 11 21 11 21 9 -8 -2 -24 2 -30 18 -30 17 0 20 7
21 48 0 26 4 50 8 54 4 4 24 6 46 4 52 -3 80 24 80 79 0 37 2 40 28 42 46 2
50 3 58 11 16 16 31 5 32 -22 0 -17 5 -39 11 -50 6 -11 11 -33 11 -50 0 -16 5
-42 11 -58 6 -15 11 -54 10 -85 -1 -49 2 -58 16 -58 10 0 29 16 42 35 13 19
33 45 45 58 11 13 37 41 57 63 19 21 38 47 42 57 6 17 10 16 44 -8 49 -32 78
-32 113 3 36 36 31 72 -15 107 -62 47 -100 28 -203 -100 -22 -27 -32 -34 -32
-22 0 10 7 28 16 42 13 19 13 31 4 67 -23 85 -55 98 -190 75 l-75 -14 -6 26
c-8 36 7 61 37 61 19 0 25 5 22 18 -3 12 -13 17 -38 16 -19 0 -39 6 -43 13 -8
14 -23 15 -72 4z"/>
<path d="M9618 756 c-40 -28 -92 -121 -103 -185 -6 -35 -11 -41 -51 -56 -50
-19 -43 -21 -115 47 -18 17 -79 38 -113 38 -45 0 -104 -27 -143 -66 -32 -33
-44 -53 -53 -98 -6 -31 -9 -64 -6 -74 4 -13 -5 -23 -38 -40 -24 -13 -61 -41
-82 -63 -38 -39 -39 -42 -39 -111 l0 -70 44 -39 c50 -45 85 -50 125 -18 49 38
24 129 -36 129 -12 0 -32 -10 -45 -21 -19 -19 -23 -20 -28 -6 -10 26 23 75 68
102 55 32 62 31 77 -5 19 -46 86 -109 143 -136 99 -46 197 -27 267 52 50 57
71 117 83 229 l11 102 65 34 c163 86 231 188 166 249 -21 20 -39 25 -93 28
-59 3 -72 0 -104 -22z m-313 -260 c19 -8 35 -19 35 -23 0 -5 -55 -29 -122 -55
-133 -49 -147 -47 -111 15 41 70 121 95 198 63z m195 -77 c0 -29 -42 -149 -63
-180 -52 -78 -148 -102 -226 -58 -31 17 -81 73 -81 91 0 3 28 17 63 31 34 14
88 37 120 52 33 14 61 24 64 21 10 -9 -8 -62 -31 -91 -20 -25 -31 -30 -70 -30
-59 -1 -76 -17 -45 -39 47 -32 118 -16 171 41 33 35 48 73 48 123 0 28 5 40
18 43 29 8 32 7 32 -4z"/>
</g>
</svg>
