<?xml version="1.0" standalone="no"?>
<!DOCTYPE svg PUBLIC "-//W3C//DTD SVG 20010904//EN"
 "http://www.w3.org/TR/2001/REC-SVG-20010904/DTD/svg10.dtd">
<svg version="1.0" xmlns="http://www.w3.org/2000/svg"
 width="1462.000000pt" height="1513.000000pt" viewBox="0 0 1462.000000 1513.000000"
 preserveAspectRatio="xMidYMid meet">
<metadata>
Created by potrace 1.16, written by Peter Selinger 2001-2019
</metadata>
<g transform="translate(0.000000,1513.000000) scale(0.100000,-0.100000)"
fill="#000000" stroke="none">
<path d="M3526 15059 c-175 -24 -306 -81 -402 -174 -54 -53 -65 -70 -82 -130
-12 -39 -23 -90 -27 -115 l-5 -45 67 -19 c92 -25 146 -56 228 -127 39 -34 153
-127 255 -207 102 -80 216 -171 254 -201 38 -31 81 -64 97 -73 27 -17 239
-175 249 -187 3 -3 31 -28 63 -55 32 -26 67 -66 77 -87 19 -36 63 -69 93 -69
21 0 305 -238 322 -270 18 -34 52 -60 80 -60 20 0 299 -187 345 -232 41 -39
74 -81 86 -108 l11 -25 59 60 c110 113 154 231 174 471 13 153 7 338 -16 474
-37 218 -181 374 -397 430 -82 20 -261 40 -373 40 l-71 0 -7 108 c-3 59 -13
139 -21 177 -45 211 -196 357 -425 411 -58 13 -129 18 -320 20 -135 1 -276 -2
-314 -7z m389 -520 c69 -26 156 -107 175 -163 17 -52 9 -142 -19 -198 -12 -26
-44 -70 -71 -99 -42 -45 -50 -50 -69 -40 -31 17 -26 37 20 89 56 64 79 113 79
167 0 55 -18 92 -63 132 -103 91 -244 82 -382 -23 -51 -40 -79 -41 -83 -4 -2
20 7 33 45 61 127 96 250 122 368 78z m881 -734 c57 -25 123 -86 151 -137 43
-82 11 -212 -77 -311 -44 -50 -73 -58 -93 -26 -8 13 -2 27 33 65 48 55 90 136
90 174 -1 99 -117 194 -236 193 -72 -1 -134 -25 -213 -85 -57 -43 -83 -44 -89
0 -2 15 13 31 60 65 135 96 254 116 374 62z"/>
<path d="M2935 14282 c-95 -45 -692 -405 -712 -429 -33 -40 -38 -87 -14 -136
24 -50 65 -77 116 -77 45 0 40 -2 378 196 153 90 280 164 283 164 27 0 967
-743 1515 -1197 l197 -162 17 -73 c45 -188 153 -401 310 -610 175 -234 333
-393 731 -738 104 -90 243 -214 309 -275 235 -217 385 -344 1410 -1190 641
-528 909 -753 1183 -992 247 -216 344 -271 488 -281 294 -19 501 263 570 778
11 88 13 158 8 302 -6 164 -5 193 10 233 10 25 27 52 39 60 101 71 364 -114
519 -365 49 -80 65 -116 124 -275 112 -304 314 -616 558 -861 139 -139 309
-273 413 -324 87 -43 222 -75 441 -105 405 -56 482 -67 604 -91 317 -61 589
-166 807 -311 116 -77 319 -281 395 -397 136 -207 239 -465 296 -745 45 -222
54 -334 54 -636 0 -251 -3 -309 -22 -434 -117 -747 -516 -1430 -1158 -1981
-536 -461 -1221 -799 -1794 -886 -139 -21 -438 -24 -585 -5 -445 56 -867 230
-1215 499 -118 91 -322 298 -406 412 -121 162 -221 340 -295 528 -50 126 -88
269 -129 486 -167 892 -439 1484 -898 1958 -306 315 -508 430 -1147 648 -311
106 -439 157 -610 240 -356 173 -586 374 -877 767 -312 421 -413 758 -256 860
67 43 125 56 263 56 151 0 273 -22 436 -79 209 -72 365 -158 541 -297 450
-354 822 -532 1079 -514 218 15 337 177 307 417 -14 117 -57 166 -142 164 -47
-1 -86 -23 -111 -61 -17 -26 -19 -46 -15 -155 4 -88 -5 -98 -82 -98 -82 0
-211 45 -373 129 -160 83 -295 172 -485 319 -167 130 -264 191 -422 267 -196
93 -410 153 -630 176 -354 36 -629 -101 -693 -347 -63 -241 52 -563 346 -968
326 -449 611 -695 1041 -901 172 -82 300 -131 648 -250 536 -184 678 -259 915
-487 461 -443 735 -1012 895 -1861 68 -361 118 -523 235 -763 336 -687 1007
-1197 1800 -1369 210 -45 336 -59 560 -58 302 0 510 35 820 138 753 247 1486
755 1979 1370 439 548 685 1149 747 1825 15 164 7 526 -16 690 -78 582 -258
1003 -563 1322 -163 170 -314 280 -527 383 -286 139 -573 211 -1135 285 -420
55 -484 74 -640 190 -115 84 -309 282 -404 409 -131 177 -243 384 -316 586
-115 320 -343 600 -588 724 -58 29 -184 61 -243 61 -79 0 -171 -34 -228 -86
-66 -59 -96 -111 -122 -210 -19 -72 -20 -96 -15 -276 9 -279 -20 -462 -100
-637 -41 -89 -75 -136 -118 -162 -82 -50 -165 -10 -392 188 -246 215 -499 429
-929 783 -1301 1075 -1427 1180 -1650 1386 -71 66 -202 182 -290 258 -384 332
-584 532 -740 741 -137 183 -226 360 -265 532 -12 48 -26 100 -32 115 -20 52
-1097 924 -1725 1396 -181 136 -208 147 -278 114z m123 -69 c65 -44 523 -398
812 -627 587 -466 1006 -814 1019 -846 5 -14 15 -50 21 -80 38 -193 148 -407
324 -629 151 -191 327 -365 686 -676 102 -88 226 -198 275 -244 196 -183 474
-418 1260 -1066 652 -537 970 -802 1203 -1004 352 -304 391 -333 481 -347 65
-10 105 3 160 52 139 125 240 506 213 805 -20 215 12 355 102 444 151 151 401
100 648 -133 143 -135 255 -315 344 -552 115 -307 275 -560 503 -794 128 -131
275 -247 372 -295 84 -41 192 -63 510 -106 296 -40 394 -55 557 -90 596 -129
999 -385 1282 -815 176 -269 286 -595 347 -1030 25 -180 25 -676 0 -845 -106
-709 -396 -1299 -906 -1850 -527 -569 -1300 -1034 -2005 -1206 -489 -119
-1030 -78 -1523 117 -706 279 -1240 828 -1468 1509 -45 134 -64 214 -110 460
-134 708 -350 1229 -682 1640 -103 127 -336 355 -433 421 -170 117 -347 194
-800 349 -513 175 -749 289 -1016 491 -188 142 -342 303 -537 561 -404 535
-497 929 -270 1144 102 97 222 134 433 133 241 -2 470 -60 735 -188 143 -69
239 -131 396 -256 310 -248 705 -450 880 -450 114 0 145 39 137 173 -4 59 -1
90 8 109 28 55 103 45 133 -17 9 -19 15 -64 15 -120 0 -73 -4 -99 -22 -140
-48 -105 -114 -146 -242 -153 -243 -12 -588 154 -1025 494 -162 126 -221 164
-360 230 -141 67 -292 117 -435 144 -93 18 -138 21 -254 18 -154 -5 -213 -20
-283 -74 -80 -61 -104 -192 -63 -344 64 -233 334 -648 605 -929 293 -303 564
-457 1175 -666 344 -118 502 -180 660 -261 200 -103 308 -182 485 -359 224
-222 390 -453 535 -744 183 -364 287 -702 395 -1271 97 -519 306 -912 670
-1258 596 -568 1474 -804 2258 -606 623 157 1305 559 1812 1068 547 549 867
1184 957 1896 17 138 17 561 0 705 -106 868 -458 1390 -1112 1649 -240 94
-464 144 -930 206 -475 63 -549 86 -741 229 -351 261 -639 659 -803 1108 -59
164 -132 285 -245 405 -203 216 -390 284 -488 177 -45 -50 -56 -124 -48 -328
8 -209 -5 -342 -50 -510 -68 -251 -166 -406 -303 -473 -39 -19 -63 -23 -142
-23 -88 0 -100 2 -170 36 -91 44 -125 70 -338 256 -203 177 -671 568 -1247
1043 -820 675 -1112 922 -1336 1131 -63 58 -184 166 -269 239 -473 405 -698
648 -870 937 -72 121 -142 285 -172 405 l-21 83 -236 196 c-418 347 -984 796
-1368 1086 l-152 115 -318 -186 c-344 -201 -363 -209 -402 -160 -24 30 -27 62
-8 87 19 26 707 427 732 427 12 0 40 -12 63 -27z"/>
<path d="M2600 13257 c-32 -16 -44 -39 -37 -68 8 -29 1150 -1251 1180 -1262
15 -6 41 3 97 32 110 57 177 74 274 69 56 -3 93 -11 121 -25 131 -69 842 -880
2143 -2446 360 -432 417 -497 441 -497 40 0 64 22 64 57 0 33 0 33 -512 648
-1270 1525 -1926 2267 -2069 2343 -133 70 -298 67 -464 -9 l-66 -31 -70 73
c-38 41 -288 308 -555 594 -268 286 -495 523 -505 526 -11 4 -29 2 -42 -4z
m600 -617 c309 -330 564 -600 567 -600 3 0 34 13 68 29 170 81 353 82 477 4
122 -76 664 -686 1619 -1823 586 -697 929 -1115 929 -1132 0 -10 -10 -23 -22
-29 -27 -15 25 -73 -570 641 -920 1107 -1551 1839 -1847 2142 -157 162 -195
183 -326 183 -102 -1 -162 -17 -268 -73 -49 -27 -72 -34 -83 -27 -8 6 -271
284 -584 619 -393 420 -570 616 -570 631 0 26 8 35 31 35 10 0 253 -252 579
-600z"/>
<path d="M5978 7972 c-44 -53 -78 -235 -78 -421 0 -68 3 -80 18 -85 10 -4 28
-15 39 -25 52 -49 323 -165 648 -279 353 -123 511 -194 689 -309 199 -128 462
-379 626 -598 351 -468 557 -977 715 -1773 53 -267 73 -339 130 -487 76 -196
173 -364 313 -540 253 -317 679 -587 1096 -695 211 -54 291 -64 526 -64 184
-1 231 3 328 22 649 130 1396 573 1899 1125 109 119 239 293 293 392 18 33 44
76 57 95 12 19 23 40 23 45 0 6 11 35 25 63 25 52 25 53 10 124 -40 194 -126
233 -505 233 -359 0 -390 -12 -603 -230 -424 -437 -867 -742 -1280 -881 -194
-65 -346 -65 -544 1 -306 102 -492 255 -621 510 -89 177 -135 337 -282 975
-114 496 -225 821 -393 1156 -275 546 -664 994 -1142 1312 -126 84 -427 243
-512 271 -41 14 -42 13 -86 -23 -57 -47 -150 -88 -262 -116 -123 -32 -307 -32
-452 -1 -111 23 -411 120 -483 156 -25 12 -63 28 -85 35 -22 7 -50 19 -61 27
-20 12 -24 11 -46 -15z m695 -416 c302 -57 626 -193 907 -381 178 -119 275
-199 440 -365 270 -269 471 -553 636 -895 165 -344 239 -580 394 -1262 82
-362 132 -541 196 -697 162 -396 413 -627 832 -766 261 -86 502 -120 717 -101
648 58 1323 456 1978 1169 27 28 52 52 57 52 5 0 16 -7 24 -16 15 -14 15 -18
-1 -47 -10 -17 -101 -114 -203 -216 -553 -556 -1129 -895 -1685 -992 -356 -62
-759 -2 -1111 166 -155 73 -253 142 -370 259 -242 242 -347 485 -494 1139
-161 717 -248 989 -433 1352 -89 175 -237 404 -362 560 -106 133 -335 363
-465 465 -353 280 -803 480 -1169 521 -53 6 -109 14 -126 18 -34 8 -46 38 -22
56 18 13 132 5 260 -19z"/>
<path d="M4386 6690 c-280 -20 -596 -72 -856 -141 -954 -253 -2001 -856 -3136
-1805 -191 -159 -228 -198 -256 -262 -45 -101 -67 -342 -49 -532 29 -305 72
-351 349 -381 115 -12 344 -7 450 11 125 21 156 39 387 231 527 435 978 761
1420 1026 629 376 1213 615 1710 699 141 24 429 24 550 0 283 -56 567 -192
823 -394 114 -90 313 -298 413 -432 233 -310 419 -698 528 -1095 103 -373 121
-598 79 -972 -30 -269 -33 -889 -5 -1078 82 -551 275 -841 642 -964 132 -44
254 -61 480 -68 447 -13 731 48 1095 235 320 165 335 172 395 183 114 21 251
-17 434 -119 166 -93 275 -177 456 -353 95 -91 201 -187 237 -213 142 -100
348 -172 566 -195 149 -16 503 -14 657 4 471 55 940 277 1255 594 119 119 186
209 249 331 103 200 126 324 126 675 0 334 -20 454 -103 622 -71 145 -150 219
-264 249 -66 16 -225 32 -236 23 -4 -4 -45 -27 -92 -51 -47 -24 -143 -78 -215
-119 -71 -42 -148 -85 -170 -97 -22 -11 -53 -32 -70 -46 -16 -14 -37 -28 -46
-31 -9 -3 -20 -16 -23 -28 -10 -36 -7 -249 5 -357 17 -154 6 -185 -95 -285
-93 -92 -228 -186 -360 -250 -174 -85 -270 -104 -339 -69 -18 9 -100 83 -184
165 -166 161 -344 301 -505 396 -87 52 -112 62 -163 66 -177 15 -576 97 -795
163 -80 24 -163 49 -185 55 -22 6 -53 16 -68 22 -34 12 -256 2 -412 -19 -138
-19 -309 -63 -428 -110 -51 -20 -173 -80 -272 -134 -99 -54 -204 -106 -232
-115 -99 -32 -149 -3 -194 112 -34 87 -38 315 -9 573 133 1198 -184 2408 -848
3240 -96 119 -320 345 -432 434 -235 188 -495 332 -775 431 -256 90 -434 130
-711 160 -170 19 -602 27 -778 15z m684 -545 c262 -37 482 -105 715 -219 380
-186 694 -459 962 -836 203 -286 388 -663 502 -1025 164 -525 217 -1026 156
-1494 -35 -271 -48 -477 -41 -616 26 -463 154 -708 420 -803 63 -23 87 -26
206 -26 105 0 154 5 221 21 184 46 328 107 538 227 233 133 389 186 603 205
379 33 776 -99 1156 -383 59 -44 188 -160 287 -256 195 -191 250 -228 395
-267 92 -25 343 -25 460 1 567 122 1096 553 1148 932 19 139 -23 287 -111 392
-30 36 -35 47 -27 63 24 44 71 10 134 -95 120 -200 104 -442 -46 -671 -67
-103 -254 -290 -378 -377 -164 -116 -402 -230 -588 -282 -323 -91 -616 -70
-819 60 -32 20 -134 112 -228 204 -324 318 -607 490 -945 574 -342 85 -668 36
-980 -145 -228 -132 -386 -201 -570 -247 -88 -21 -128 -26 -245 -26 -157 -1
-213 11 -326 70 -326 171 -447 681 -336 1414 29 194 31 629 4 815 -43 288 -93
504 -177 755 -313 939 -918 1614 -1670 1864 -243 81 -430 114 -705 123 -1104
36 -2444 -599 -3973 -1884 -188 -158 -223 -178 -230 -127 -2 17 29 49 150 151
1343 1136 2559 1783 3583 1907 199 24 196 24 425 21 133 -2 259 -9 330 -20z"/>
</g>
</svg>
