<?xml version="1.0" standalone="no"?>
<!DOCTYPE svg PUBLIC "-//W3C//DTD SVG 20010904//EN"
 "http://www.w3.org/TR/2001/REC-SVG-20010904/DTD/svg10.dtd">
<svg version="1.0" xmlns="http://www.w3.org/2000/svg"
 width="955.000000pt" height="950.000000pt" viewBox="0 0 955.000000 950.000000"
 preserveAspectRatio="xMidYMid meet">
<metadata>
Created by potrace 1.16, written by Peter Selinger 2001-2019
</metadata>
<g transform="translate(0.000000,950.000000) scale(0.100000,-0.100000)"
fill="#000000" stroke="none">
<path d="M6490 9135 c0 -201 -2 -365 -4 -365 -3 0 -35 7 -73 16 -87 20 -153
12 -221 -27 -190 -108 -171 -390 31 -479 60 -27 169 -30 214 -6 47 24 91 81
108 139 21 73 35 299 35 578 l0 235 218 -33 c119 -18 227 -35 240 -38 l22 -5
0 -224 0 -223 -47 8 c-177 29 -288 -14 -347 -133 -31 -61 -36 -166 -11 -224
71 -170 306 -232 414 -109 72 83 86 186 95 713 7 348 5 361 -46 394 -30 19
-559 148 -609 148 -18 0 -19 -14 -19 -365z"/>
<path d="M8600 8534 c-89 -23 -249 -108 -337 -179 -160 -128 -267 -289 -300
-450 -39 -195 49 -385 237 -510 88 -58 165 -86 256 -93 188 -12 350 83 432
255 36 75 37 82 37 188 0 98 -3 116 -26 165 -56 118 -133 170 -254 170 -61 0
-77 -4 -117 -29 -54 -35 -102 -100 -129 -178 -40 -117 -14 -183 74 -183 54 0
81 25 102 97 37 124 105 138 150 30 30 -72 10 -164 -52 -236 -51 -60 -104 -84
-183 -85 -83 -1 -153 30 -232 103 -134 123 -144 263 -31 433 108 164 357 327
501 328 44 0 43 1 112 -77 25 -30 87 -31 123 -3 81 64 7 216 -125 255 -64 19
-165 18 -238 -1z"/>
<path d="M1155 8528 c-73 -40 -116 -115 -123 -213 -11 -170 92 -373 278 -549
289 -271 610 -296 824 -65 201 217 219 493 44 684 -96 105 -264 162 -401 135
-137 -27 -228 -98 -262 -206 -54 -171 68 -318 283 -340 53 -6 59 -4 85 21 21
22 27 37 27 71 0 54 -22 79 -82 94 -113 28 -152 62 -124 106 71 107 276 79
359 -49 42 -63 51 -124 32 -198 -20 -79 -61 -144 -131 -208 -67 -62 -106 -75
-201 -69 -60 4 -88 12 -146 42 -167 85 -337 280 -382 439 -22 78 -14 116 30
144 24 16 36 33 41 58 7 41 -10 91 -37 105 -24 13 -89 12 -114 -2z"/>
<path d="M4660 8444 c-330 -40 -561 -107 -830 -240 -266 -132 -470 -282 -705
-518 -193 -195 -331 -371 -481 -616 -54 -88 -58 -100 -62 -167 -3 -49 1 -89
12 -125 l17 -53 -74 -155 c-75 -156 -158 -363 -216 -541 l-32 -96 -45 -7 c-52
-7 -129 -38 -157 -64 -32 -29 -49 -72 -43 -107 8 -39 64 -97 122 -125 40 -20
42 -22 33 -52 -10 -36 -4 -32 -59 -47 -184 -52 -209 -186 -53 -278 l45 -26 -6
-56 c-3 -31 -12 -119 -21 -196 -8 -77 -18 -227 -22 -333 l-6 -193 -52 -79
c-59 -89 -105 -201 -137 -327 -19 -75 -22 -115 -22 -263 1 -155 4 -186 26
-271 56 -206 136 -348 267 -471 119 -112 280 -187 402 -188 31 0 40 -6 63 -41
117 -177 359 -271 576 -225 212 44 371 191 415 380 14 59 15 159 10 824 -4
416 -11 782 -16 812 -28 172 -171 328 -352 385 -160 51 -357 27 -490 -59 -62
-40 -150 -131 -173 -179 -15 -32 -21 -36 -65 -39 l-48 -3 5 60 c11 137 37 371
43 393 6 20 18 28 59 38 113 29 172 81 172 151 0 42 -55 105 -121 138 -41 21
-46 27 -41 50 5 27 9 30 97 61 68 24 125 81 125 125 0 47 -32 94 -84 128 l-45
28 38 109 c61 175 127 327 218 507 73 143 92 172 127 196 55 39 71 58 159 187
41 62 101 145 132 185 93 118 331 350 447 435 326 241 689 364 1069 364 310 0
576 -67 882 -222 248 -126 452 -282 712 -544 171 -173 236 -224 284 -224 43 0
282 -362 418 -635 l50 -100 -29 -37 c-20 -24 -32 -52 -35 -82 -5 -42 -3 -48
29 -80 24 -24 54 -40 96 -52 55 -15 61 -20 76 -57 l16 -40 -50 -53 c-44 -47
-50 -58 -50 -96 0 -24 7 -54 16 -66 21 -30 84 -61 139 -69 44 -6 44 -6 61 -62
14 -47 77 -293 98 -384 l6 -27 -67 0 c-68 0 -68 1 -98 41 -61 82 -189 160
-304 185 -134 28 -291 8 -404 -53 -156 -85 -267 -259 -267 -423 0 -98 216
-1548 240 -1612 106 -283 480 -412 771 -266 85 42 179 134 220 212 32 62 34
64 87 76 91 20 207 86 287 161 61 58 74 67 80 52 14 -35 18 -377 6 -503 -34
-346 -115 -638 -256 -921 -126 -253 -253 -396 -490 -554 -191 -127 -502 -279
-516 -252 -3 7 -12 41 -18 76 -30 156 -140 407 -212 486 -49 53 -93 75 -154
75 -89 0 -151 -57 -187 -173 -19 -59 -23 -94 -22 -197 1 -192 41 -315 134
-414 61 -65 125 -95 209 -98 70 -3 70 -3 40 -90 -99 -296 -454 -474 -1054
-528 -213 -19 -639 -9 -1100 25 -637 49 -1049 147 -1292 309 -122 81 -117 73
-124 200 -4 71 -12 122 -22 141 -51 99 -210 161 -479 187 l-127 12 7 26 c4 14
7 90 7 170 0 124 -3 156 -23 220 -65 208 -194 323 -431 383 -75 19 -113 22
-301 21 -285 0 -406 -18 -985 -144 -320 -70 -511 -106 -618 -115 -90 -9 -123
-28 -133 -81 -7 -40 10 -90 37 -104 51 -28 267 3 704 99 390 85 546 116 695
135 515 68 773 -10 847 -254 19 -60 23 -207 10 -302 -10 -67 3 -61 -168 -77
-160 -15 -321 -44 -469 -85 -455 -125 -670 -322 -670 -612 0 -205 110 -359
308 -431 176 -64 361 -28 557 108 94 64 249 226 337 349 79 111 185 314 219
419 l24 74 125 -6 c124 -6 263 -32 319 -61 27 -14 28 -19 34 -108 3 -51 11
-110 17 -132 23 -78 163 -194 334 -275 296 -142 676 -217 1356 -268 332 -24
1020 -25 1185 0 446 67 715 180 902 381 103 110 183 288 183 407 0 34 1 34 83
62 113 39 284 122 427 207 319 189 514 388 657 675 62 123 154 352 187 468
117 402 140 929 56 1286 -16 68 -18 94 -10 115 5 15 17 69 25 119 51 313 -43
665 -238 897 -27 33 -33 53 -53 174 -26 151 -81 395 -124 548 -26 93 -26 98
-9 103 32 11 118 84 134 115 8 16 15 45 15 66 0 73 -102 134 -226 134 -45 0
-52 3 -58 23 -4 14 -1 25 10 32 79 49 108 73 130 104 31 45 32 108 4 144 -28
36 -115 66 -213 74 l-82 6 -52 106 c-75 153 -181 335 -291 500 l-96 144 -1 71
c-3 97 -26 144 -133 267 -432 500 -981 861 -1535 1009 -213 57 -331 72 -577
75 -124 2 -241 1 -260 -1z m2547 -1596 c39 -57 100 -154 137 -217 68 -115 196
-357 196 -371 0 -4 -27 -13 -61 -20 -33 -7 -87 -26 -121 -42 -33 -15 -63 -28
-68 -28 -4 0 -34 51 -65 113 -74 144 -197 349 -285 474 -76 107 -76 113 3 113
56 0 99 17 147 58 19 16 38 28 42 26 3 -2 37 -50 75 -106z m-4499 -205 c42
-25 57 -28 134 -28 49 0 88 -3 88 -8 0 -4 -29 -66 -65 -138 -77 -152 -148
-323 -195 -464 -18 -55 -34 -102 -36 -103 -1 -2 -34 3 -73 12 -38 9 -99 16
-135 16 -37 0 -66 4 -66 8 0 15 88 269 130 372 44 110 160 360 167 360 3 0 25
-12 51 -27z m5141 -1216 c51 -187 128 -553 118 -563 -2 -2 -37 18 -78 45 -41
28 -108 63 -149 78 l-74 29 -32 139 c-18 77 -44 181 -58 232 -14 51 -26 96
-26 101 0 5 33 12 73 15 39 4 92 13 117 21 78 24 74 27 109 -97z m-5574 -232
c44 -8 106 -14 138 -15 59 0 59 0 53 -27 -26 -121 -63 -727 -50 -800 10 -55
-2 -82 -49 -103 -81 -37 -182 -19 -211 39 -29 56 -19 433 20 779 9 78 17 142
18 142 1 0 37 -7 81 -15z m5446 -262 c394 -153 631 -674 519 -1143 -11 -47
-43 -132 -71 -189 -42 -87 -64 -117 -133 -187 -64 -65 -98 -91 -156 -118 -41
-20 -90 -39 -109 -42 l-34 -7 7 50 c5 38 -20 235 -104 814 -61 420 -117 784
-125 808 -8 25 -15 47 -15 49 0 15 156 -10 221 -35z m-5173 -320 c-16 -57 -1
-1587 16 -1653 13 -48 12 -50 -8 -50 -43 0 -141 31 -210 67 -91 47 -226 180
-285 279 -85 145 -141 354 -141 530 0 168 54 378 131 508 l21 37 32 -63 c37
-75 61 -87 174 -87 78 -1 131 15 169 51 22 21 23 27 23 210 0 186 0 189 23
198 12 5 32 9 44 9 20 1 21 -1 11 -36z m4031 -3117 c39 -82 103 -270 115 -338
l7 -38 -36 0 c-76 0 -126 54 -160 174 -20 70 -23 216 -5 270 16 49 29 37 79
-68z m-4354 -538 c-17 -58 -104 -219 -176 -327 -133 -202 -310 -361 -457 -413
-146 -51 -304 -2 -377 116 -27 44 -30 58 -30 125 1 123 41 193 158 273 174
119 513 215 870 246 15 2 17 -3 12 -20z"/>
<path d="M905 6078 c2 -13 11 -53 19 -89 17 -73 56 -176 178 -462 44 -103 78
-190 76 -192 -2 -2 -32 -8 -66 -14 -116 -19 -207 -88 -249 -191 -25 -63 -23
-170 4 -231 27 -60 92 -125 152 -152 66 -31 187 -30 256 1 100 46 135 102 135
216 0 100 -27 179 -208 601 -79 187 -151 355 -159 374 l-15 34 59 -7 c32 -3
99 -9 149 -12 84 -6 95 -5 128 15 20 13 36 24 36 27 0 2 -18 13 -40 24 -36 18
-225 53 -408 75 -51 6 -52 5 -47 -17z"/>
<path d="M9070 6033 c0 -5 -16 -208 -35 -453 -19 -245 -35 -448 -35 -451 0 -4
-27 2 -61 12 -95 30 -199 26 -274 -10 -69 -32 -137 -100 -168 -169 -17 -37
-22 -66 -22 -137 0 -106 19 -157 86 -230 53 -57 117 -91 199 -104 157 -25 269
48 315 205 23 79 43 284 60 614 25 489 27 530 31 530 2 0 56 -30 121 -66 181
-101 214 -111 247 -75 17 19 11 24 -191 180 -169 130 -214 160 -240 161 -18 0
-33 -3 -33 -7z"/>
<path d="M4277 3339 c-161 -55 -270 -184 -297 -353 -37 -233 114 -456 311
-456 109 0 203 69 233 171 18 61 21 197 5 232 -22 47 -107 63 -150 28 -21 -17
-25 -30 -29 -110 -5 -76 -10 -95 -28 -113 -21 -21 -23 -21 -56 -5 -86 41 -122
177 -76 286 52 120 193 179 331 137 180 -55 271 -173 256 -333 -14 -148 -99
-313 -227 -443 -124 -125 -201 -156 -262 -105 -63 53 -158 17 -158 -60 0 -54
25 -92 83 -125 45 -26 62 -30 127 -30 124 1 218 48 346 175 112 111 206 266
254 420 27 86 37 238 21 317 -37 177 -176 310 -383 368 -97 27 -222 27 -301
-1z"/>
</g>
</svg>
