<?xml version="1.0" standalone="no"?>
<!DOCTYPE svg PUBLIC "-//W3C//DTD SVG 20010904//EN"
 "http://www.w3.org/TR/2001/REC-SVG-20010904/DTD/svg10.dtd">
<svg version="1.0" xmlns="http://www.w3.org/2000/svg"
 width="1038.000000pt" height="318.000000pt" viewBox="0 0 1038.000000 318.000000"
 preserveAspectRatio="xMidYMid meet">
<metadata>
Created by potrace 1.16, written by Peter Selinger 2001-2019
</metadata>
<g transform="translate(0.000000,318.000000) scale(0.100000,-0.100000)"
fill="#ffffff" stroke="none">
<path d="M0 1590 l0 -1590 5190 0 5190 0 0 1590 0 1590 -5190 0 -5190 0 0
-1590z m4570 284 c0 -1094 1 -1070 -62 -1221 -87 -211 -288 -384 -515 -444
-96 -26 -416 -37 -560 -21 -272 31 -504 194 -623 435 -84 170 -80 113 -80
1248 l0 999 240 0 240 0 2 -982 3 -983 28 -56 c32 -67 109 -142 175 -172 43
-20 63 -22 232 -22 179 0 187 1 242 27 69 32 129 92 165 166 l28 57 3 975 c1
536 4 980 6 985 2 6 89 9 240 7 l236 -3 0 -995z m-3706 588 c215 -984 336
-1516 345 -1525 7 -7 12 -6 15 4 3 8 55 244 116 524 62 281 156 710 210 955
l97 445 282 3 281 2 -2 -1342 -3 -1343 -190 0 -190 0 -5 875 c-3 481 -8 868
-12 860 -4 -8 -41 -170 -83 -360 -42 -190 -89 -397 -105 -460 -30 -123 -148
-650 -176 -790 -29 -145 -1 -130 -244 -130 -115 0 -210 3 -210 8 0 4 -14 70
-30 147 -17 77 -79 376 -140 665 -208 997 -193 931 -204 919 -5 -7 -16 -856
-16 -1316 l0 -423 -188 0 -189 0 -6 227 c-4 124 -7 730 -7 1345 l0 1118 283 0
282 0 89 -408z m5936 149 l0 -259 -517 -4 c-501 -4 -520 -5 -584 -26 -114 -38
-154 -100 -153 -237 1 -93 47 -165 134 -211 31 -17 71 -19 390 -25 396 -6 398
-7 545 -82 62 -32 101 -62 175 -136 81 -82 103 -110 143 -191 77 -156 91 -223
91 -435 0 -155 -3 -191 -22 -260 -62 -223 -196 -392 -387 -489 -139 -70 -127
-69 -856 -73 l-656 -4 -7 247 c-4 136 -3 251 1 255 5 5 278 10 608 11 l600 3
55 26 c77 36 124 80 157 147 24 48 28 69 27 137 -1 136 -55 224 -178 288 l-61
31 -310 7 c-328 6 -394 14 -538 64 -163 56 -288 166 -361 316 -58 120 -76 194
-83 349 -4 97 -2 145 11 210 48 235 187 431 376 529 134 70 125 69 798 70
l602 1 0 -259z m1208 -1083 l-3 -1343 -245 0 -245 0 -3 1343 -2 1342 250 0
250 0 -2 -1342z m1816 1322 c125 -32 208 -81 313 -185 80 -80 97 -105 142
-196 47 -99 71 -172 86 -266 l7 -43 -245 0 -245 0 -13 38 c-35 108 -87 172
-157 192 -24 8 -119 10 -267 8 l-230 -3 -47 -28 c-63 -37 -114 -106 -139 -187
-19 -65 -20 -88 -17 -671 3 -602 3 -604 26 -660 29 -72 89 -141 150 -171 45
-22 56 -23 282 -23 217 0 238 2 269 20 46 27 87 81 116 151 l24 59 246 3 247
2 -7 -42 c-22 -143 -89 -299 -170 -400 -90 -114 -244 -210 -392 -245 -114 -27
-552 -26 -666 0 -229 54 -425 215 -531 436 -71 149 -71 147 -71 896 0 747 -2
725 71 883 78 171 197 293 373 381 123 62 174 70 487 70 248 1 290 -1 358 -19z"/>
</g>
</svg>
