<?xml version="1.0" standalone="no"?>
<!DOCTYPE svg PUBLIC "-//W3C//DTD SVG 20010904//EN"
 "http://www.w3.org/TR/2001/REC-SVG-20010904/DTD/svg10.dtd">
<svg version="1.0" xmlns="http://www.w3.org/2000/svg"
 width="3026.000000pt" height="2742.000000pt" viewBox="0 0 3026.000000 2742.000000"
 preserveAspectRatio="xMidYMid meet">
<metadata>
Created by potrace 1.16, written by Peter Selinger 2001-2019
</metadata>
<g transform="translate(0.000000,2742.000000) scale(0.100000,-0.100000)"
fill="#000000" stroke="none">
<path d="M7830 26304 c-433 -32 -880 -139 -1252 -302 -101 -45 -178 -148 -178
-242 0 -25 -5 -61 -11 -80 -12 -41 -85 -1045 -99 -1365 -41 -946 -54 -1979
-55 -4245 0 -1481 3 -1984 13 -2107 24 -307 105 -500 234 -560 50 -23 342 -78
503 -94 140 -14 576 -5 745 16 539 66 1172 255 1640 490 430 216 735 439 1106
810 217 216 342 362 481 560 373 533 690 1305 822 2010 63 334 81 529 81 870
0 441 -41 754 -161 1243 -242 979 -820 1821 -1610 2345 -550 364 -1087 569
-1669 637 -99 11 -495 21 -590 14z m340 -299 c285 -33 554 -89 775 -160 239
-77 617 -289 865 -484 135 -107 402 -376 506 -511 634 -819 909 -1877 784
-3020 -90 -818 -376 -1572 -875 -2307 -481 -706 -1100 -1292 -1681 -1590 -432
-221 -843 -327 -1326 -340 l-216 -6 -16 32 c-21 40 -39 116 -37 161 0 19 6
190 13 380 24 638 10 3586 -22 4995 -22 937 -31 1240 -46 1455 -8 124 -21 340
-29 480 -8 140 -24 343 -35 450 -11 107 -20 233 -20 280 l0 87 188 36 c199 39
351 61 522 76 142 13 485 5 650 -14z"/>
<path d="M21775 25789 c-124 -18 -119 -13 -154 -157 -18 -70 -79 -305 -137
-523 -126 -479 -174 -680 -174 -736 0 -38 3 -43 28 -48 15 -4 36 -8 47 -11 34
-9 222 -24 381 -30 l150 -7 26 59 c80 178 388 1295 388 1404 l0 60 -247 -1
c-137 -1 -275 -5 -308 -10z"/>
<path d="M24288 23720 c-76 -41 -96 -88 -158 -384 -59 -283 -96 -529 -106
-699 l-7 -128 -46 -23 c-76 -39 -180 -67 -281 -76 -222 -20 -452 -150 -519
-295 -19 -40 -23 -65 -22 -135 1 -98 10 -138 46 -191 55 -84 184 -126 430
-140 88 -6 193 -12 233 -15 l73 -6 -4 -166 c-2 -92 -12 -302 -22 -467 -22
-374 -26 -1246 -7 -1530 50 -755 122 -1100 313 -1491 153 -315 313 -501 514
-599 124 -60 177 -69 390 -69 214 -1 298 12 470 71 360 124 701 428 870 774
41 84 45 99 45 166 0 40 -3 73 -7 73 -11 0 -106 -64 -178 -120 -32 -25 -103
-90 -159 -146 -235 -234 -509 -354 -805 -354 -214 0 -359 81 -463 259 -100
171 -179 561 -193 956 -23 622 -38 2637 -21 2778 10 76 1 70 126 86 306 41
857 132 1087 180 196 41 246 59 296 105 27 25 28 29 21 88 -12 107 -23 130
-74 149 -88 34 -132 39 -718 89 -410 35 -607 56 -635 66 -23 9 -58 18 -79 21
l-36 5 -5 111 c-5 133 -33 537 -47 686 -27 288 -169 452 -322 371z"/>
<path d="M14631 22500 c-357 -34 -667 -143 -961 -337 -390 -257 -703 -619
-915 -1058 -150 -311 -232 -574 -286 -925 -31 -195 -33 -651 -5 -855 72 -523
208 -875 479 -1239 301 -403 658 -644 1092 -736 159 -34 401 -38 590 -11 440
63 687 188 1024 516 181 176 285 300 413 490 272 407 435 871 504 1445 24 197
24 584 0 765 -61 465 -189 832 -404 1161 -239 364 -525 598 -872 714 -181 60
-455 89 -659 70z m435 -241 c450 -62 872 -414 1089 -907 88 -200 129 -349 181
-650 35 -204 36 -210 30 -407 -17 -590 -157 -1066 -440 -1489 -109 -162 -187
-259 -316 -386 -131 -130 -258 -222 -415 -300 -221 -110 -397 -154 -605 -153
-165 1 -250 21 -397 93 -255 126 -465 352 -617 665 -242 496 -324 1212 -206
1791 62 303 183 619 340 889 35 61 79 138 97 173 35 67 238 308 325 387 255
230 605 340 934 294z"/>
<path d="M18754 22375 c-163 -29 -298 -86 -430 -181 -130 -94 -291 -196 -434
-276 -137 -77 -255 -138 -265 -138 -3 0 -5 15 -5 34 0 18 -7 53 -15 76 -8 24
-18 68 -21 99 -17 169 -70 236 -222 286 -71 23 -92 13 -185 -84 l-73 -76 -17
-100 c-10 -55 -29 -203 -42 -330 -14 -126 -30 -266 -36 -310 -19 -144 4 -2814
26 -2950 3 -22 17 -212 29 -421 21 -353 25 -384 45 -417 52 -85 121 -118 319
-153 76 -13 105 -15 114 -6 6 6 15 54 19 107 4 52 11 100 14 105 8 12 31 385
50 805 22 493 66 1898 64 2050 -1 82 3 141 10 160 28 69 193 268 366 440 454
454 848 665 1240 665 161 0 290 -41 435 -140 62 -43 161 -143 207 -210 100
-147 225 -485 243 -654 6 -55 26 -235 45 -400 55 -480 60 -601 59 -1411 0
-744 -6 -908 -43 -1239 -21 -185 -17 -211 37 -256 51 -42 103 -55 141 -36 29
16 86 88 109 140 7 16 25 160 38 320 25 283 26 308 21 931 -3 352 -10 726 -16
830 -63 1093 -129 1500 -312 1909 -183 411 -486 692 -851 791 -194 52 -497 71
-664 40z"/>
<path d="M2974 18196 c-50 -50 -47 -87 17 -200 385 -678 1039 -1185 1874
-1455 473 -154 966 -221 1510 -208 508 13 874 64 1656 231 561 120 780 158
1129 197 177 20 633 17 805 -5 677 -87 1285 -318 1840 -697 103 -71 141 -83
186 -59 25 14 49 62 49 100 0 57 -25 85 -157 173 -865 579 -1902 813 -3003
677 -204 -26 -409 -64 -894 -166 -920 -194 -1173 -228 -1716 -228 -381 0 -513
9 -808 59 -1003 170 -1831 712 -2276 1490 -32 55 -65 106 -74 113 -9 6 -36 12
-60 12 -37 0 -50 -6 -78 -34z"/>
<path d="M28799 17759 c-231 -24 -492 -140 -744 -329 -263 -197 -394 -422
-395 -674 l0 -79 -29 39 c-37 51 -144 152 -204 193 -66 45 -178 95 -262 117
-110 29 -286 25 -392 -10 -174 -57 -291 -171 -339 -331 -28 -91 -24 -262 9
-385 84 -322 347 -715 663 -992 225 -199 472 -362 737 -488 127 -61 136 -67
137 -93 0 -16 4 -27 9 -25 15 5 933 802 1070 928 360 331 561 645 637 995 12
56 17 125 17 230 0 130 -4 163 -26 248 -69 259 -241 483 -453 587 -121 59
-285 85 -435 69z"/>
<path d="M21267 16739 c-48 -11 -126 -51 -165 -84 -25 -21 -31 -35 -36 -83
-25 -231 -43 -2876 -27 -4007 25 -1787 58 -2449 151 -3022 86 -531 176 -798
360 -1073 114 -170 289 -346 449 -451 343 -225 778 -209 1331 49 93 43 108 57
162 147 60 100 68 122 68 175 0 77 -20 116 -67 129 -54 15 -58 14 -92 -20 -49
-48 -191 -159 -233 -180 -157 -80 -298 -50 -432 91 -111 118 -182 289 -221
535 -18 112 -50 506 -66 809 -12 238 -7 611 26 1911 21 814 72 3054 90 3966
16 777 14 850 -16 883 -5 6 -9 22 -9 37 0 26 -4 28 -107 53 -149 35 -261 52
-523 76 -124 12 -284 32 -357 46 -136 25 -220 29 -286 13z m431 -310 c42 -5
156 -25 252 -44 96 -19 217 -37 268 -41 l92 -7 0 -244 0 -243 -502 2 -502 3
-10 45 c-12 59 -12 432 0 490 9 41 13 46 44 52 44 8 256 1 358 -13z m417 -943
c28 -9 60 -16 72 -16 12 0 33 -5 46 -11 23 -10 26 -20 42 -162 12 -99 15 -176
11 -226 -7 -73 -42 -270 -49 -277 -2 -2 -107 7 -233 21 -199 21 -532 45 -629
45 -39 0 -48 16 -71 132 -24 118 -16 437 11 452 10 6 30 21 45 33 34 28 94 32
445 27 199 -2 272 -6 310 -18z m-474 -977 c74 -11 184 -24 244 -29 129 -10
332 -37 346 -45 5 -4 9 -144 9 -346 l0 -340 -45 -20 c-156 -69 -427 -71 -755
-7 -58 11 -109 24 -114 29 -25 23 -39 450 -21 642 7 79 10 87 29 87 12 0 48
11 81 25 73 30 62 30 226 4z m314 -1187 c61 -11 145 -27 188 -37 l79 -17 -5
-252 c-5 -225 -18 -420 -30 -432 -2 -2 -35 -11 -73 -19 -127 -27 -332 -38
-568 -30 l-225 7 -13 72 c-17 96 -17 489 1 623 12 90 16 102 35 107 11 2 129
3 261 1 180 -3 268 -9 350 -23z m193 -1118 l42 -7 0 -377 0 -377 -42 -12
c-132 -36 -300 -47 -473 -32 -130 11 -325 38 -332 45 -2 2 -11 46 -20 97 -18
106 -23 410 -10 551 l9 86 70 12 c39 7 103 16 142 21 76 8 543 3 614 -7z
m-318 -1145 c102 -9 255 -30 318 -44 l22 -5 0 -269 0 -269 -117 -23 c-98 -19
-148 -23 -293 -23 -179 1 -257 13 -363 58 l-37 15 0 270 0 269 42 7 c143 24
271 29 428 14z m324 -1007 c23 -71 34 -389 20 -531 l-7 -61 -41 -12 c-26 -8
-108 -13 -226 -13 -154 0 -205 4 -302 24 -136 27 -126 15 -153 182 -9 57 -26
143 -36 190 -10 48 -22 121 -25 163 l-7 76 386 0 c362 0 386 -1 391 -18z m-54
-968 c78 -23 98 -40 114 -95 19 -62 38 -230 34 -288 -3 -44 -4 -45 -58 -65
-43 -16 -79 -21 -165 -21 -145 0 -238 27 -295 86 -50 52 -113 203 -154 372
l-6 27 238 0 c189 0 250 -3 292 -16z"/>
<path d="M24845 16639 c-210 -23 -577 -72 -671 -89 -163 -29 -214 -68 -252
-189 -24 -78 -23 -364 3 -686 18 -228 20 -329 18 -1160 -1 -500 -7 -1376 -12
-1945 -6 -569 -14 -1789 -18 -2710 -6 -1562 -5 -1681 11 -1760 24 -119 49
-161 106 -178 130 -39 239 -53 440 -59 312 -8 543 16 686 74 l62 24 7 76 c4
41 4 276 0 521 -11 648 -11 988 3 1517 10 431 21 585 42 585 8 0 47 -28 107
-75 88 -70 1611 -1429 2212 -1973 359 -326 667 -600 685 -608 17 -9 48 -34 68
-56 43 -46 61 -46 138 0 45 28 45 28 48 89 2 47 -2 72 -18 103 -46 89 -322
350 -980 925 -631 551 -1752 1545 -1855 1645 -191 185 -234 232 -267 289 l-37
64 99 146 c232 344 459 629 800 1006 80 88 240 270 357 405 116 135 327 376
467 535 164 186 267 312 288 350 17 33 42 74 55 92 23 30 63 121 63 143 0 6
-47 10 -119 10 l-119 0 -34 -37 c-18 -21 -54 -56 -80 -78 -25 -22 -142 -150
-260 -285 -549 -630 -1387 -1600 -1447 -1678 -25 -31 -63 -73 -86 -92 -22 -19
-58 -62 -80 -95 l-40 -60 -7 275 c-3 151 -7 298 -8 325 -1 28 1 982 5 2120 8
2127 7 2207 -30 2383 -7 35 -18 69 -24 75 -21 21 -126 47 -186 46 -33 -1 -96
-6 -140 -10z m51 -304 c38 -58 45 -113 38 -287 l-7 -166 -26 -6 c-14 -3 -109
-9 -211 -12 -180 -6 -294 1 -432 28 l-58 11 0 157 0 157 28 13 c96 45 320 97
507 118 136 15 143 15 161 -13z m-103 -799 c48 -7 92 -17 97 -22 5 -5 16 -36
24 -69 19 -72 22 -338 4 -414 -11 -48 -14 -51 -62 -70 -115 -45 -223 -59 -297
-37 -35 11 -93 16 -170 16 l-118 0 -15 50 c-28 95 -39 209 -33 354 3 78 8 149
12 159 9 22 31 27 147 37 150 12 317 11 411 -4z m17 -949 l65 -12 12 -80 c23
-155 25 -312 6 -410 l-18 -90 -40 -7 c-112 -20 -456 1 -530 31 -41 17 -82 221
-70 341 8 79 34 200 43 201 4 0 39 9 77 19 84 23 350 27 455 7z m-29 -963 c31
-8 73 -14 93 -14 l36 0 0 -254 0 -254 -47 -16 c-133 -44 -315 -42 -549 5 l-51
10 -9 57 c-10 74 -10 350 0 424 7 46 13 58 30 62 45 10 442 -6 497 -20z m-201
-885 c19 -6 69 -15 110 -20 41 -5 96 -12 123 -16 26 -3 47 -7 47 -9 0 -1 14
-56 31 -121 36 -138 39 -224 15 -428 -18 -148 -15 -144 -116 -177 -57 -19 -93
-22 -297 -26 l-233 -4 0 370 0 370 27 18 c71 46 215 67 293 43z m240 -1128
l55 -6 17 -52 c25 -76 38 -205 38 -391 l0 -162 -332 2 -331 3 -20 55 c-29 80
-35 286 -13 416 10 54 22 102 28 105 19 12 130 31 223 38 90 8 231 4 335 -8z
m-90 -970 c69 -6 137 -13 153 -17 l27 -6 0 -283 0 -284 -57 -21 c-84 -31 -142
-40 -271 -40 -111 0 -300 23 -333 41 -49 26 -58 414 -13 571 4 14 67 35 164
52 29 5 151 0 330 -13z m53 -996 c72 -14 101 -23 108 -37 15 -27 39 -242 39
-343 0 -49 -6 -110 -14 -135 -13 -43 -16 -46 -72 -63 -122 -37 -278 -57 -455
-57 l-169 0 0 305 0 305 23 10 c94 43 352 50 540 15z m122 -987 c20 -69 35
-168 35 -243 0 -81 -26 -236 -42 -246 -28 -18 -191 -39 -296 -39 -115 0 -216
16 -313 48 l-54 19 -18 69 c-15 57 -17 94 -13 209 3 77 8 150 12 162 12 43
193 69 496 72 l177 1 16 -52z"/>
<path d="M17140 15970 c-199 -25 -367 -74 -545 -159 -243 -116 -423 -248 -650
-476 -328 -328 -575 -670 -779 -1080 -313 -631 -520 -1433 -577 -2243 -15
-217 -6 -817 15 -1017 89 -820 325 -1575 657 -2098 146 -230 339 -453 534
-616 254 -212 579 -375 881 -443 85 -19 129 -23 314 -23 236 0 321 13 515 77
446 147 937 542 1295 1042 202 282 522 912 550 1083 19 113 118 293 161 293 5
0 9 -23 9 -51 0 -29 11 -102 25 -163 13 -61 34 -165 45 -231 100 -562 288
-1115 556 -1635 167 -323 256 -452 346 -500 77 -40 117 -12 155 109 17 52 17
54 -2 70 -11 9 -36 54 -55 101 -19 47 -63 132 -98 190 -84 139 -236 442 -307
610 -242 575 -383 1201 -436 1935 -7 95 -12 474 -13 935 -3 789 -6 879 -46
1232 -71 615 -230 1178 -467 1652 -197 393 -449 732 -714 960 -279 240 -561
376 -899 432 -107 18 -372 26 -470 14z m470 -365 c563 -124 1068 -572 1395
-1240 320 -650 482 -1454 462 -2280 -20 -787 -189 -1567 -483 -2224 -259 -580
-580 -1001 -1012 -1329 -225 -172 -462 -283 -722 -339 -117 -25 -408 -25 -532
0 -126 25 -247 62 -358 108 l-97 40 -16 117 c-15 101 -19 281 -27 1347 -5 677
-10 2155 -10 3286 l0 2056 43 40 c221 204 553 370 846 423 131 24 391 21 511
-5z m-1673 -938 c-7 -55 -31 -77 -82 -77 -51 0 -96 20 -91 40 3 8 7 29 11 46
8 40 64 94 107 103 32 7 34 5 47 -33 7 -22 11 -57 8 -79z m-27 -504 c40 -128
36 -359 -7 -417 -19 -26 -18 -25 -191 -47 -80 -10 -124 -11 -205 -2 -126 15
-247 43 -247 59 0 6 24 58 53 115 29 57 61 127 71 154 11 28 25 59 32 70 7 11
17 40 24 65 6 25 13 51 15 58 3 9 56 12 219 12 l215 0 21 -67z m-278 -803
c112 -9 215 -25 252 -40 20 -7 24 -20 34 -92 13 -87 16 -426 6 -490 -5 -29
-15 -43 -40 -59 -34 -20 -42 -21 -432 -16 -218 3 -412 8 -431 12 l-34 8 6 126
c8 176 58 366 137 522 l20 38 123 4 c125 4 175 2 359 -13z m-57 -1045 c118
-16 233 -37 308 -56 l37 -10 0 -343 0 -344 -62 -15 c-273 -68 -626 -37 -920
80 l-88 35 0 124 c0 152 24 344 65 521 5 20 13 23 83 26 143 8 456 -2 577 -18z
m-411 -1089 c93 -26 179 -39 326 -47 212 -12 291 -27 388 -72 l42 -19 -2 -246
-3 -245 -45 -13 c-177 -52 -513 -65 -767 -30 l-131 18 -34 137 c-31 129 -33
145 -33 320 l0 184 35 13 c48 17 162 17 224 0z m416 -1017 c36 -5 108 -14 160
-18 151 -14 146 -11 166 -94 19 -81 31 -410 19 -522 l-7 -65 -308 0 -309 0
-40 68 c-53 89 -131 285 -179 452 l-39 135 25 13 c69 38 358 56 512 31z m344
-1139 c24 -70 26 -234 3 -339 -9 -41 -19 -76 -21 -78 -16 -17 -223 180 -283
267 -34 51 -103 184 -103 200 0 7 63 10 193 8 l192 -3 19 -55z"/>
<path d="M13232 15911 c-57 -4 -86 -11 -93 -21 -6 -8 -30 -55 -54 -105 -42
-85 -75 -179 -160 -460 -20 -66 -56 -183 -80 -260 -180 -581 -349 -1154 -485
-1650 -137 -499 -321 -1118 -409 -1376 -124 -366 -272 -854 -353 -1169 -33
-129 -82 -318 -108 -420 -27 -102 -53 -198 -59 -213 -6 -16 -16 -61 -22 -100
-20 -136 -140 -492 -163 -484 -10 3 -62 93 -151 259 -27 51 -63 131 -80 178
-32 91 -120 262 -217 425 -89 151 -79 142 -131 111 -93 -54 -209 -220 -252
-361 -30 -97 -116 -271 -157 -319 l-34 -39 -56 119 c-30 66 -77 187 -103 269
-25 83 -121 374 -211 649 -188 567 -272 837 -339 1081 -121 445 -281 963 -502
1630 -177 534 -405 1198 -435 1265 -11 25 -28 72 -38 105 -89 294 -148 420
-234 489 -71 58 -108 70 -221 66 -147 -4 -390 -5 -555 0 -171 4 -238 -10 -291
-62 l-32 -32 6 -106 c7 -132 31 -220 178 -631 359 -1011 711 -2136 1069 -3414
124 -444 456 -1521 559 -1815 23 -63 133 -389 247 -725 125 -371 221 -637 244
-680 78 -146 95 -175 105 -175 18 0 179 100 213 133 47 45 106 173 205 447 47
129 120 327 160 440 41 113 118 320 170 460 52 140 114 314 137 385 52 160 88
237 135 293 l37 42 35 -45 c66 -87 126 -201 155 -295 17 -52 111 -270 210
-485 99 -214 250 -556 335 -760 193 -461 289 -647 352 -680 39 -19 100 -19
129 1 34 23 54 71 125 294 104 323 118 372 666 2350 286 1031 721 2597 967
3480 l447 1605 4 126 5 126 -79 16 c-43 9 -109 22 -148 28 -83 12 -525 20
-643 10z m361 -282 c26 -5 63 -9 81 -9 18 0 46 -5 62 -10 25 -9 31 -19 42 -64
15 -65 2 -103 -57 -167 -37 -40 -40 -41 -71 -30 -18 6 -75 11 -125 11 -66 0
-113 6 -161 21 -78 24 -164 65 -164 78 0 18 117 129 157 150 79 40 118 43 236
20z m-5484 -345 c59 -7 62 -8 97 -56 21 -30 45 -84 61 -136 65 -222 75 -285
48 -326 l-17 -26 -312 0 -313 0 -46 98 c-54 114 -93 241 -102 340 l-7 70 53
11 c139 29 389 40 538 25z m5171 -215 c25 -5 72 -14 105 -18 51 -8 234 -50
243 -57 3 -2 -53 -222 -84 -331 l-15 -52 -62 -6 c-40 -4 -99 0 -167 11 -58 9
-137 19 -177 21 -83 5 -83 4 -83 125 0 55 7 100 25 155 36 112 55 140 107 151
56 13 56 13 108 1z m-4761 -771 c18 -62 45 -149 61 -193 16 -44 35 -108 43
-142 l14 -63 -326 0 -327 0 -32 53 c-17 29 -43 82 -57 117 -25 63 -75 234 -75
255 0 14 49 42 113 65 45 16 85 19 303 19 l251 1 32 -112z m4544 12 c102 0
189 -17 285 -56 l39 -15 5 -77 c3 -42 1 -88 -4 -102 -5 -13 -16 -55 -24 -93
-8 -38 -24 -90 -35 -118 l-21 -49 -270 0 -270 0 6 58 c17 143 57 292 116 424
19 44 22 47 46 38 14 -6 71 -10 127 -10z m-4264 -805 c7 -31 30 -111 50 -178
21 -67 41 -138 45 -158 4 -20 18 -65 32 -99 14 -35 22 -66 17 -70 -4 -4 -66
-27 -138 -50 -151 -50 -183 -51 -395 -20 -74 11 -140 20 -146 20 -7 0 -16 19
-22 43 -6 23 -41 140 -77 260 -36 120 -65 224 -65 231 0 11 68 47 130 69 8 3
137 6 286 6 l271 1 12 -55z m4221 -63 c121 -11 138 -17 146 -49 18 -71 -28
-309 -120 -618 -20 -65 -36 -125 -36 -132 0 -10 -22 -13 -85 -13 -66 0 -119 9
-242 40 -87 23 -173 45 -191 51 l-34 11 7 52 c12 89 56 287 74 335 10 25 24
71 31 101 10 44 69 181 86 199 2 2 32 12 66 22 66 19 105 19 298 1z m-4089
-859 c8 -5 32 -13 53 -16 77 -12 138 -98 176 -248 17 -65 60 -317 60 -351 0
-8 -72 -32 -160 -53 -36 -9 -144 -20 -240 -25 -96 -5 -185 -12 -198 -16 -19
-6 -25 0 -48 52 -62 139 -150 447 -170 598 l-7 46 99 1 c55 0 131 7 169 14 79
16 246 15 266 -2z m3695 -233 c43 -11 117 -38 163 -60 l84 -40 -5 -88 c-7
-108 -36 -223 -95 -372 -25 -63 -46 -116 -47 -118 -2 -1 -23 5 -47 14 -24 9
-69 20 -99 24 -30 4 -128 29 -217 55 l-163 48 0 57 c0 84 27 223 56 293 15 34
33 82 40 107 8 25 20 53 27 62 32 41 179 49 303 18z m-3345 -794 c60 -13 111
-25 113 -27 2 -2 37 -116 78 -254 l75 -249 -56 -36 -56 -35 -280 0 -280 0 -32
60 c-44 81 -89 219 -113 343 -30 156 -33 147 58 175 69 22 141 39 212 51 44 7
169 -5 281 -28z m2820 -72 c24 -9 71 -20 104 -24 100 -13 266 -60 327 -92 l58
-31 0 -79 c0 -97 -19 -177 -67 -280 -42 -90 -47 -93 -168 -78 -122 15 -284 75
-396 146 l-37 23 28 93 c16 51 46 148 66 216 21 67 38 122 39 122 2 0 22 -7
46 -16z m69 -868 c63 -20 141 -39 173 -43 32 -3 59 -9 61 -12 2 -3 -11 -62
-30 -131 -19 -69 -53 -201 -75 -295 -22 -93 -42 -171 -44 -173 -2 -2 -68 16
-147 41 -79 25 -168 50 -198 56 -30 5 -85 23 -121 39 l-67 30 -7 52 c-10 72 1
147 41 273 19 60 34 123 34 142 0 56 24 65 165 61 81 -3 122 -11 215 -40z
m-2542 -23 l63 -8 53 -155 c30 -85 68 -193 85 -239 17 -47 31 -86 31 -88 0 -9
-431 5 -500 15 -41 6 -123 17 -181 23 l-106 12 -32 131 c-18 72 -39 157 -47
188 -7 32 -14 62 -14 67 0 11 78 38 160 57 60 14 375 12 488 -3z m-59 -814
c30 -5 76 -9 102 -9 26 0 85 -9 131 -19 46 -11 111 -23 146 -27 45 -5 62 -11
62 -21 0 -8 15 -56 32 -106 27 -74 33 -107 33 -172 0 -72 -3 -86 -34 -143 -48
-87 -69 -97 -181 -83 -47 6 -135 11 -195 11 -59 0 -137 5 -172 12 -54 10 -69
17 -88 42 -32 44 -90 162 -115 237 -30 87 -63 260 -52 271 25 25 205 29 331 7z
m2288 -47 c101 -34 296 -128 290 -140 -3 -4 -17 -52 -32 -107 -67 -243 -78
-281 -88 -294 -16 -19 -137 -9 -212 18 -33 12 -78 26 -100 31 -42 9 -197 79
-228 102 -17 13 -16 20 21 144 22 72 48 166 58 209 l18 78 91 -5 c64 -4 116
-14 182 -36z m-228 -808 c24 -13 54 -24 68 -24 13 0 62 -16 107 -36 82 -35 84
-37 89 -75 3 -21 1 -67 -3 -101 -13 -101 -84 -328 -102 -328 -14 0 -121 194
-160 289 -36 89 -88 264 -88 298 0 18 27 11 89 -23z m-1999 -59 c16 -9 56 -14
113 -15 l87 0 0 -40 c0 -59 -28 -188 -52 -235 -30 -60 -68 -96 -92 -89 -36 12
-53 39 -85 143 -18 58 -46 137 -61 178 l-28 73 46 0 c26 -1 58 -7 72 -15z"/>
<path d="M3918 15017 c-225 -77 -377 -311 -378 -580 0 -257 123 -499 387 -759
102 -100 742 -658 755 -658 5 0 8 8 9 18 0 12 36 34 118 74 409 198 732 527
870 883 34 85 35 96 36 215 0 117 -2 128 -27 176 -34 66 -104 127 -177 156
-82 32 -251 32 -336 -1 -82 -32 -186 -103 -235 -159 l-40 -47 0 56 c0 207
-179 419 -473 563 -181 88 -367 111 -509 63z"/>
<path d="M1348 12695 c-135 -34 -268 -124 -357 -242 -248 -326 -222 -775 67
-1183 111 -156 308 -347 771 -749 238 -207 438 -377 442 -379 5 -2 9 7 9 20 0
20 17 31 118 80 448 218 827 557 1036 925 109 193 156 343 156 500 0 159 -49
265 -161 348 -159 117 -404 127 -607 25 -91 -46 -187 -122 -237 -187 l-35 -46
0 60 c0 81 -32 199 -77 286 -101 194 -436 438 -718 523 -111 33 -313 43 -407
19z"/>
<path d="M6155 10600 c-121 -19 -329 -117 -484 -227 -315 -226 -607 -654 -795
-1163 -263 -716 -471 -1444 -531 -1860 -28 -192 -41 -242 -91 -341 l-32 -65
-129 32 c-168 42 -257 54 -412 54 -392 0 -743 -157 -1050 -469 -73 -75 -179
-200 -197 -234 -6 -10 -32 -46 -58 -80 -310 -407 -544 -779 -741 -1182 -368
-752 -543 -1413 -562 -2120 -5 -196 -3 -235 16 -358 65 -402 234 -879 405
-1142 214 -328 564 -480 1066 -462 231 8 390 40 555 109 100 43 743 428 969
581 l169 115 58 -82 c239 -337 533 -522 924 -583 148 -22 400 -20 546 6 217
38 461 138 610 250 80 61 189 174 253 264 26 36 83 137 127 224 43 87 101 200
128 251 53 99 180 394 316 727 l82 203 6 -141 c25 -569 257 -992 709 -1296
145 -97 364 -204 498 -243 438 -127 771 -93 1073 111 79 53 108 79 505 459
129 123 235 222 237 220 2 -2 67 -124 144 -271 162 -310 201 -369 325 -492
212 -211 481 -331 846 -376 174 -21 440 5 632 62 208 62 357 149 517 304 164
158 274 309 382 523 32 64 60 109 63 101 2 -8 7 -54 10 -104 3 -49 12 -112 20
-140 9 -27 16 -79 16 -115 0 -122 53 -368 96 -453 26 -50 105 -127 157 -154
98 -49 183 -63 386 -63 208 0 265 10 363 62 109 58 175 151 236 335 52 155
100 447 113 691 5 96 12 179 16 185 4 6 10 126 14 267 6 213 12 277 34 390 18
93 27 183 31 290 3 85 12 191 21 235 16 86 615 1812 677 1955 138 314 369 565
652 710 43 22 79 38 81 36 2 -2 -1 -23 -7 -47 -7 -25 -15 -200 -19 -395 -5
-193 -11 -356 -15 -362 -3 -6 -13 -118 -21 -249 -16 -262 -34 -409 -71 -612
-37 -203 -123 -1037 -134 -1311 -11 -249 1 -664 21 -775 48 -268 140 -457 299
-616 136 -136 302 -235 510 -302 181 -59 276 -72 525 -71 205 0 227 2 318 27
190 51 370 154 509 291 l75 75 41 -62 c125 -188 310 -335 597 -473 237 -114
482 -181 750 -205 156 -14 241 -7 388 30 466 118 1067 505 1802 1162 156 139
466 432 570 538 33 34 62 61 65 61 4 0 12 -30 20 -67 85 -440 341 -914 670
-1243 364 -365 850 -550 1445 -550 609 0 1344 287 2190 854 576 386 955 719
1402 1232 150 172 374 476 360 490 -8 9 -105 -44 -215 -117 -154 -104 -416
-303 -810 -617 -194 -155 -471 -370 -614 -479 -144 -108 -291 -221 -326 -251
-129 -109 -283 -200 -472 -280 -52 -22 -133 -58 -180 -80 -105 -48 -231 -90
-420 -138 -139 -36 -152 -37 -315 -37 -243 0 -402 32 -572 118 -170 84 -296
215 -388 400 -88 177 -132 367 -144 615 -8 179 82 1408 105 1426 18 15 173 47
349 73 77 12 397 46 710 76 314 30 593 57 620 60 28 3 163 12 300 20 138 9
320 22 405 30 85 7 218 17 295 20 180 8 247 20 317 57 122 65 197 173 206 296
10 142 -34 447 -93 642 -125 419 -388 854 -682 1130 -208 195 -524 422 -740
533 -264 135 -547 196 -910 197 -593 1 -1057 -194 -1488 -626 -348 -347 -598
-730 -780 -1194 -265 -674 -355 -1204 -315 -1853 7 -114 13 -214 14 -221 1
-15 -657 -648 -934 -899 -378 -343 -734 -621 -997 -781 -184 -111 -418 -216
-481 -216 -43 1 -106 34 -151 81 -50 51 -146 242 -184 364 -48 155 -52 189
-51 425 0 198 4 245 28 390 222 1317 644 2471 1321 3612 39 65 73 118 78 118
15 0 169 -155 218 -219 28 -37 74 -115 104 -176 55 -110 86 -217 131 -450 21
-112 39 -147 106 -211 57 -55 144 -124 157 -124 12 0 64 121 95 220 50 156 69
295 70 510 1 156 -3 212 -18 280 -81 372 -312 587 -736 686 -405 95 -955 -23
-1355 -291 -562 -376 -1043 -995 -1377 -1770 -192 -445 -339 -990 -398 -1475
-50 -418 -52 -572 -10 -825 l29 -180 -54 -72 c-217 -288 -433 -483 -535 -483
-92 0 -113 57 -129 359 -10 181 -9 207 14 400 105 879 154 1618 175 2616 11
529 9 542 -75 785 -78 222 -139 323 -272 451 -78 74 -131 113 -220 158 -318
160 -802 146 -1135 -31 -156 -83 -236 -154 -452 -402 -225 -257 -323 -375
-393 -473 l-47 -66 -27 119 c-15 65 -34 146 -43 179 -10 35 -20 131 -26 230
-6 118 -15 194 -30 250 -12 43 -24 83 -27 88 -3 5 -9 40 -14 78 -14 117 -70
192 -162 218 -23 7 -65 23 -93 37 -115 56 -329 55 -449 -2 -104 -49 -199 -173
-239 -314 -20 -71 -266 -1360 -312 -1635 -70 -426 -138 -966 -170 -1365 l-16
-205 -173 -405 c-168 -393 -245 -548 -402 -811 -97 -163 -182 -276 -296 -392
-78 -80 -106 -101 -181 -138 -106 -52 -100 -56 -145 99 -54 188 -65 274 -65
517 0 199 4 251 42 545 23 179 53 433 67 565 52 485 86 795 111 985 13 107 31
294 39 415 13 205 19 316 45 920 6 127 18 354 27 505 14 231 15 302 5 445 -14
190 -45 422 -68 502 -32 113 -119 159 -290 151 -90 -4 -111 -9 -168 -37 -38
-19 -80 -49 -100 -73 -42 -48 -106 -171 -131 -248 -28 -88 -60 -143 -109 -188
-43 -40 -135 -92 -162 -92 -13 0 -23 30 -39 110 -11 51 -88 196 -140 262 -92
118 -249 212 -440 265 -97 27 -108 28 -355 28 -476 0 -705 -43 -1009 -192
-243 -119 -428 -259 -697 -527 -300 -300 -477 -547 -667 -926 -149 -296 -270
-629 -382 -1046 -64 -237 -105 -339 -291 -714 -272 -549 -570 -1037 -949
-1550 -71 -96 -180 -251 -243 -343 -123 -182 -145 -202 -256 -243 l-64 -23
-40 97 c-72 177 -118 341 -141 502 -6 41 -26 239 -45 440 -52 551 -49 568 178
1085 440 1001 804 2125 1021 3152 165 780 278 1769 280 2433 0 276 -7 367 -50
616 -38 220 -80 312 -189 411 -98 90 -222 136 -409 153 -114 10 -113 10 -182
0z m182 -501 c79 -197 121 -473 109 -709 -14 -268 -83 -920 -142 -1335 -169
-1204 -465 -2503 -669 -2942 -47 -101 -113 -201 -145 -221 -18 -11 -20 -10
-20 15 0 16 -7 53 -15 83 -18 67 -19 248 -5 845 21 902 63 1573 146 2320 73
659 133 988 240 1317 51 156 178 456 224 528 46 71 200 213 225 206 6 -1 29
-50 52 -107z m4250 -3502 c80 -60 145 -152 239 -342 93 -188 114 -252 114
-359 0 -107 -12 -151 -114 -402 -261 -650 -423 -1278 -495 -1929 -24 -211 -41
-453 -41 -569 0 -156 -47 -280 -183 -480 -114 -166 -332 -373 -621 -589 -158
-117 -292 -207 -309 -207 -18 0 -79 66 -118 128 -62 97 -69 145 -69 446 0 311
-1 304 100 806 119 594 354 1594 439 1873 127 412 340 931 492 1200 77 135
206 328 295 439 l77 97 66 -34 c36 -18 94 -53 128 -78z m-6684 57 c18 -9 88
-48 156 -87 l124 -72 -7 -105 c-7 -131 -32 -676 -46 -1035 -12 -298 -30 -544
-60 -825 -40 -371 -75 -1199 -67 -1550 5 -213 24 -473 43 -606 5 -38 2 -45
-58 -119 -281 -351 -659 -603 -1093 -731 -60 -18 -113 -29 -117 -26 -10 11
-48 110 -69 182 -48 163 -75 486 -73 885 1 312 6 355 110 940 93 524 377 1619
561 2159 132 390 233 619 341 781 58 87 188 225 212 225 6 0 25 -7 43 -16z
m21576 -464 c172 -41 331 -109 454 -192 212 -144 455 -477 611 -839 25 -59 46
-113 46 -120 0 -8 -32 -27 -72 -42 -65 -26 -131 -36 -603 -92 -292 -35 -665
-73 -830 -85 -165 -11 -423 -32 -574 -45 -151 -14 -278 -25 -282 -25 -23 0 4
208 51 390 71 282 212 590 342 749 157 192 430 313 718 320 30 0 93 -8 139
-19z"/>
</g>
</svg>
