<?xml version="1.0" standalone="no"?>
<!DOCTYPE svg PUBLIC "-//W3C//DTD SVG 20010904//EN"
 "http://www.w3.org/TR/2001/REC-SVG-20010904/DTD/svg10.dtd">
<svg version="1.0" xmlns="http://www.w3.org/2000/svg"
 width="803.000000pt" height="1071.000000pt" viewBox="0 0 803.000000 1071.000000"
 preserveAspectRatio="xMidYMid meet">
<metadata>
Created by potrace 1.16, written by Peter Selinger 2001-2019
</metadata>
<g transform="translate(0.000000,1071.000000) scale(0.100000,-0.100000)"
fill="#000000" stroke="none">
<path d="M5338 10502 c-30 -46 -33 -48 -74 -46 -32 2 -56 13 -97 43 -37 28
-64 41 -85 41 -18 0 -32 -4 -32 -9 0 -5 24 -26 52 -47 58 -41 50 -59 -9 -24
-44 26 -91 22 -124 -9 -38 -35 -19 -51 60 -51 89 0 104 -18 19 -22 -48 -2 -63
-7 -63 -18 0 -8 -12 -23 -27 -32 -53 -33 -23 -60 40 -35 20 8 55 17 77 21 l40
6 -42 -21 c-41 -20 -56 -39 -31 -39 6 0 2 -10 -10 -23 -53 -56 -2 -65 60 -10
24 20 37 31 31 23 -7 -8 -13 -22 -13 -32 0 -28 33 -21 55 11 19 30 54 44 75
31 19 -12 29 -85 30 -212 l0 -116 -54 -46 c-29 -25 -58 -46 -65 -46 -15 0 -31
-43 -31 -82 0 -17 12 -57 26 -89 22 -49 25 -66 20 -112 -13 -102 -79 -211
-175 -289 -59 -48 -76 -88 -68 -163 8 -79 43 -149 129 -257 76 -96 178 -278
192 -345 6 -28 1 -39 -44 -94 -73 -92 -94 -140 -98 -229 -4 -88 13 -165 63
-279 38 -86 44 -146 26 -252 -6 -30 -15 -137 -20 -239 -6 -102 -15 -210 -21
-240 -17 -90 -15 -185 4 -214 14 -23 24 -26 71 -26 30 0 55 -4 55 -10 0 -5
-13 -29 -29 -52 -15 -24 -45 -70 -66 -103 -54 -86 -72 -103 -147 -141 -67 -34
-68 -35 -68 -74 l0 -40 53 0 c52 0 52 -1 71 -43 11 -23 22 -76 25 -117 5 -61
9 -75 24 -78 15 -3 17 5 17 57 0 61 0 62 36 79 l36 17 52 -57 c44 -50 58 -59
105 -69 63 -13 137 -7 181 16 25 13 31 22 28 43 -3 23 -11 28 -65 44 -54 16
-68 26 -108 74 -25 31 -45 59 -45 64 0 4 32 11 72 15 119 11 115 7 177 212 30
98 58 189 63 202 8 23 11 21 70 -43 104 -114 142 -166 227 -310 89 -148 115
-212 126 -300 9 -68 30 -97 99 -136 95 -55 142 -34 152 67 6 59 6 63 -29 105
-22 27 -41 66 -51 103 -17 66 -15 82 4 35 15 -36 33 -39 47 -8 8 19 4 31 -29
74 -29 39 -38 60 -38 91 0 52 -29 79 -109 101 l-63 17 -82 173 c-46 95 -93
203 -106 240 l-23 68 26 39 c18 26 27 53 27 78 0 21 -18 153 -40 295 -21 141
-42 289 -45 327 -3 39 -8 93 -10 122 l-5 51 81 -32 82 -33 48 -108 c26 -59 65
-138 87 -174 21 -36 108 -185 194 -331 307 -525 459 -791 477 -837 16 -41 17
-57 8 -110 -8 -47 -8 -65 2 -77 15 -17 137 -39 192 -34 39 4 39 3 39 -32 0
-76 65 -130 157 -130 72 0 88 15 85 85 -1 32 -11 73 -22 95 -22 42 -26 80 -10
80 14 0 12 37 -4 68 -8 16 -20 57 -26 92 -6 36 -24 88 -40 115 -16 28 -77 160
-135 295 -59 135 -160 355 -225 490 -255 531 -407 899 -402 975 1 11 -23 68
-53 127 -48 94 -52 108 -40 125 8 10 15 26 15 36 0 10 7 20 15 23 9 4 15 19
16 38 0 26 2 28 9 11 11 -29 37 -48 56 -41 15 6 15 28 -2 88 -4 12 0 15 16 11
15 -4 20 -1 20 15 0 15 7 22 27 24 23 3 40 26 120 157 51 85 93 162 93 172 0
21 -146 179 -166 179 -7 0 -40 25 -72 55 -93 86 -129 112 -167 119 -70 14
-115 131 -82 214 9 22 14 48 11 59 -3 11 1 25 10 32 18 15 23 145 6 156 -5 3
-10 25 -10 48 -1 66 -15 112 -53 169 -48 73 -69 90 -119 95 -36 4 -58 -2 -130
-36 -72 -35 -88 -47 -98 -74 -17 -46 -25 -189 -12 -225 8 -24 8 -32 -4 -36 -8
-3 -14 -14 -14 -25 0 -35 41 -131 56 -131 9 0 14 -11 14 -35 l0 -36 -72 50
c-79 53 -114 88 -230 226 -42 50 -110 125 -152 167 -42 42 -76 84 -76 92 0 9
9 39 20 68 11 29 20 59 20 66 0 27 -32 9 -62 -36z"/>
<path d="M1370 10002 c-25 -16 -66 -52 -91 -80 -87 -97 -112 -192 -65 -249 13
-15 33 -47 44 -69 12 -23 28 -44 36 -47 10 -4 16 -23 18 -59 3 -48 5 -53 26
-52 12 0 22 -3 22 -7 0 -5 19 -17 43 -27 23 -11 53 -31 66 -46 37 -40 75 -35
106 13 37 55 103 79 133 49 19 -19 15 -26 -24 -38 -36 -12 -74 -59 -74 -91 0
-9 9 -23 20 -30 20 -14 20 -14 -4 -74 -15 -35 -33 -64 -46 -69 -13 -6 -59 -5
-129 3 -98 12 -111 12 -134 -3 -23 -15 -29 -16 -60 -2 -20 8 -41 24 -47 37
-12 21 -8 26 39 67 49 42 66 81 42 96 -16 10 -51 86 -51 110 0 26 -17 36 -61
36 -21 0 -53 18 -106 58 -74 55 -79 57 -137 57 -46 0 -75 -7 -118 -28 -63 -31
-90 -65 -109 -140 -10 -40 -18 -51 -48 -67 -43 -21 -61 -55 -68 -127 l-6 -51
51 -37 c37 -26 54 -46 61 -72 21 -73 66 -91 145 -55 48 22 108 42 124 42 20 0
52 -77 52 -123 0 -25 -7 -61 -16 -82 -22 -54 -11 -88 48 -139 76 -67 158 -104
258 -118 47 -6 90 -15 97 -20 7 -5 17 -35 23 -66 5 -31 19 -75 31 -98 16 -33
18 -46 9 -69 -6 -15 -8 -36 -5 -45 3 -10 1 -21 -5 -25 -13 -8 -13 -85 0 -120
12 -31 -11 -95 -33 -95 -17 0 -61 -96 -53 -116 12 -32 -141 -332 -212 -417
-15 -17 -40 -49 -56 -70 -16 -21 -53 -54 -83 -73 -117 -76 -266 -245 -358
-409 -16 -27 -55 -92 -88 -142 -49 -77 -68 -98 -117 -128 -46 -28 -67 -50
-104 -108 -25 -41 -69 -95 -98 -122 -109 -98 -118 -108 -128 -144 -16 -56 -13
-118 6 -125 45 -17 195 7 232 37 8 6 26 38 41 71 15 34 53 97 85 141 32 44 75
110 96 146 29 49 73 97 177 191 76 70 188 177 248 238 61 61 122 118 137 126
16 8 73 51 129 95 76 62 129 117 218 228 65 80 135 162 156 181 l37 35 -7
-190 c-3 -104 -13 -269 -21 -365 -8 -96 -17 -231 -19 -299 -3 -68 -7 -126 -10
-129 -3 -3 -5 -17 -5 -32 0 -15 -9 -35 -21 -46 -12 -10 -27 -31 -35 -46 -19
-36 -67 -63 -139 -79 -75 -15 -87 -25 -83 -62 4 -43 29 -49 263 -57 110 -4
232 -13 272 -20 57 -11 75 -11 87 -1 21 18 32 152 17 226 -13 66 5 454 35 758
8 86 12 167 9 178 -4 12 0 31 11 47 30 47 136 152 153 152 9 0 92 -25 185 -56
141 -47 177 -63 209 -94 l40 -36 -42 -120 c-37 -106 -44 -143 -67 -344 -15
-124 -31 -231 -37 -238 -6 -8 -28 -21 -49 -29 -45 -18 -96 -72 -103 -111 -16
-84 -29 -120 -52 -150 -19 -25 -22 -37 -14 -45 8 -8 25 3 65 42 l53 52 21 -50
c13 -29 22 -71 22 -100 0 -102 26 -119 185 -123 78 -3 90 -1 93 14 2 12 -8 22
-35 33 -21 9 -47 25 -59 36 l-22 20 19 72 c10 40 35 155 55 257 40 209 139
540 191 643 l34 68 42 -44 c154 -160 164 -176 331 -512 118 -239 236 -515 236
-554 0 -32 -60 -89 -150 -141 -70 -41 -96 -78 -72 -102 11 -11 393 32 502 58
97 22 110 34 110 97 0 58 -38 149 -71 170 -16 10 -17 13 -3 28 14 15 11 26
-31 109 -26 51 -72 159 -102 239 -95 252 -179 431 -238 508 -30 40 -68 101
-85 136 -17 36 -48 84 -69 108 -47 54 -90 131 -130 230 -16 42 -52 123 -79
180 -76 157 -103 247 -112 371 l-8 107 -56 84 c-31 47 -68 109 -83 138 -15 30
-36 64 -46 76 l-20 23 47 44 c26 24 56 51 67 60 14 11 19 29 19 62 0 38 5 49
30 71 17 13 30 33 30 43 0 10 12 27 26 37 l26 19 -11 95 c-15 121 -29 165 -62
198 -15 15 -169 98 -344 184 -362 179 -351 176 -496 126 -87 -30 -92 -31 -154
-18 -51 10 -67 10 -79 0 -23 -19 -99 39 -149 114 -93 139 -169 204 -257 220
-28 5 -44 0 -80 -23z m1213 -795 c34 1 40 -3 53 -31 9 -17 28 -39 43 -47 31
-18 70 -104 54 -120 -6 -6 -40 -15 -77 -21 l-68 -11 -23 29 c-14 16 -24 38
-25 49 0 11 -6 29 -14 40 -7 11 -16 34 -19 50 -3 17 -8 40 -12 53 -7 21 -6 22
21 15 16 -4 46 -7 67 -6z"/>
<path d="M5807 4983 c-13 -12 -7 -53 18 -119 14 -36 25 -68 25 -70 0 -2 -24
12 -54 31 -133 85 -145 38 -13 -52 26 -18 47 -37 47 -42 0 -10 -48 -21 -91
-21 -16 0 -29 -5 -29 -10 0 -17 47 -30 104 -30 69 0 82 -13 55 -57 -21 -33
-23 -84 -3 -90 6 -2 16 8 22 22 14 30 33 32 57 5 17 -19 18 -38 12 -277 -9
-363 -24 -634 -37 -682 -8 -31 -23 -51 -61 -81 -77 -61 -120 -47 -78 25 16 27
23 62 29 165 5 72 7 137 4 145 -12 31 -146 108 -235 135 -23 7 -210 -19 -249
-34 -34 -14 -40 -41 -29 -128 8 -67 7 -94 -6 -148 -12 -52 -14 -80 -6 -140 11
-83 51 -207 73 -222 7 -5 45 -6 84 -3 l71 6 8 -28 c4 -15 10 -22 12 -15 3 6
15 12 28 12 15 0 26 7 30 19 3 11 31 34 63 52 31 17 69 45 84 61 32 34 34 31
42 -55 2 -32 12 -69 21 -83 15 -23 14 -27 -33 -97 -27 -39 -51 -79 -55 -89 -3
-9 -39 -41 -79 -71 -40 -29 -93 -70 -116 -90 -64 -54 -72 -51 -72 36 0 64 5
79 36 137 37 67 59 140 42 140 -5 0 -36 -20 -68 -45 -54 -42 -60 -50 -85 -126
-28 -82 -52 -119 -80 -119 -8 0 -31 12 -52 26 -37 25 -39 25 -209 22 l-172 -3
-44 -31 c-64 -47 -100 -102 -106 -166 -4 -40 -12 -61 -34 -86 -27 -32 -28 -35
-14 -58 9 -13 18 -40 20 -61 3 -21 8 -53 13 -72 9 -37 20 -42 114 -55 57 -8
125 -57 204 -145 52 -58 55 -65 55 -114 0 -43 7 -65 35 -113 47 -79 91 -118
156 -139 68 -23 129 -63 129 -84 0 -15 -107 -235 -185 -381 -19 -36 -44 -106
-56 -158 -20 -85 -21 -111 -16 -310 4 -170 11 -248 31 -362 l26 -144 -40 -59
c-21 -32 -44 -75 -51 -95 -6 -20 -21 -47 -32 -60 -17 -18 -19 -27 -11 -50 8
-22 18 -29 56 -36 54 -11 101 4 284 86 l111 50 6 232 c4 127 7 277 7 332 0
124 9 150 99 303 38 64 96 171 129 238 l61 121 58 6 c32 3 98 10 148 15 49 6
91 8 94 6 2 -3 9 -100 14 -217 8 -158 7 -226 -1 -267 -7 -31 -21 -146 -33
-256 -23 -231 -51 -379 -83 -450 -12 -27 -48 -92 -80 -142 -56 -90 -59 -93
-131 -128 -80 -38 -98 -57 -84 -92 8 -22 13 -23 135 -23 l126 0 77 74 c42 40
88 76 104 80 l27 6 0 -69 c0 -38 5 -73 10 -76 21 -13 38 16 42 73 3 45 11 67
37 102 29 40 32 50 26 89 -4 24 -16 63 -27 86 l-21 42 32 174 c68 382 90 517
97 584 3 39 13 100 21 138 l15 67 176 -228 c98 -125 200 -266 229 -312 58 -95
163 -222 218 -265 43 -32 80 -104 96 -189 l12 -59 114 7 c86 5 125 12 158 28
25 12 46 20 48 17 2 -2 23 -39 47 -82 34 -59 55 -85 94 -111 85 -57 112 -56
122 6 5 28 -3 56 -36 131 -23 53 -45 119 -49 149 -4 32 -22 79 -44 119 -24 42
-37 79 -37 102 0 36 -2 38 -78 76 l-79 39 -105 150 c-59 82 -138 183 -177 225
-38 41 -79 93 -90 115 -12 24 -32 44 -50 52 -17 6 -42 29 -57 49 -15 20 -45
55 -65 78 -21 23 -41 54 -45 70 -17 69 -87 209 -135 269 l-52 65 22 23 c17 18
21 35 21 87 0 81 -25 302 -40 357 -13 50 -8 62 26 62 22 0 24 4 24 43 0 35 -6
49 -29 71 l-29 28 102 156 c68 105 126 181 176 232 91 91 130 149 204 300 77
161 325 492 452 605 195 174 334 336 334 389 0 40 -46 69 -97 62 -85 -11 -133
-46 -227 -165 -47 -60 -99 -120 -115 -133 -16 -13 -34 -34 -41 -48 -25 -48
-85 -111 -223 -232 -137 -121 -217 -209 -299 -331 -49 -73 -202 -227 -308
-312 -41 -33 -122 -105 -180 -160 l-104 -100 -23 95 c-107 454 -112 505 -65
612 48 106 75 255 52 283 -18 22 -38 18 -43 -7 -2 -13 -5 0 -6 28 -1 55 -15
80 -46 86 -19 3 -20 12 -20 258 -1 200 -4 270 -17 325 -29 123 -41 148 -77
170 -78 47 -129 104 -157 177 -15 39 -35 79 -45 89 -11 11 -19 24 -19 29 0 11
-13 13 -23 3z m138 -1984 c13 -52 29 -112 36 -134 11 -38 10 -43 -26 -103 -39
-68 -75 -96 -134 -107 -20 -4 -50 -20 -68 -37 l-31 -30 -49 16 c-30 10 -65 32
-88 56 l-39 39 85 80 c46 44 129 133 184 199 55 65 101 118 103 117 1 -1 13
-45 27 -96z"/>
<path d="M2723 4503 c-7 -2 -29 -32 -50 -66 -37 -60 -38 -66 -44 -177 -8 -163
-23 -229 -79 -361 -28 -63 -57 -145 -66 -182 l-17 -66 -63 -27 c-74 -31 -124
-29 -239 11 -38 14 -83 25 -98 25 l-29 0 7 -52 c10 -72 16 -82 105 -168 69
-67 81 -84 109 -157 17 -45 31 -98 31 -116 0 -38 -44 -125 -67 -134 -8 -3 -35
4 -59 15 -36 18 -45 28 -54 64 -18 69 -48 122 -103 183 -29 32 -70 90 -92 129
-31 53 -54 80 -93 106 -35 24 -51 42 -52 57 0 12 -13 31 -30 43 -17 12 -30 31
-30 43 -1 21 -1 21 -15 -3 -8 -14 -24 -56 -36 -95 -12 -38 -42 -110 -67 -160
-25 -49 -48 -105 -51 -124 -6 -34 -7 -35 -81 -47 -42 -7 -105 -23 -140 -36
-79 -28 -93 -50 -86 -129 7 -75 -6 -91 -106 -129 -79 -31 -83 -31 -145 -19
-50 10 -79 10 -130 2 -121 -21 -158 -70 -158 -208 0 -105 14 -132 92 -184 72
-48 115 -56 192 -37 97 24 146 57 177 119 45 89 53 85 83 -42 11 -47 36 -111
58 -149 52 -91 70 -138 104 -270 19 -75 29 -138 29 -187 0 -53 10 -109 35
-201 20 -71 41 -159 47 -195 12 -66 11 -67 -20 -114 -18 -27 -32 -59 -32 -72
0 -35 -17 -61 -51 -78 -31 -17 -31 -35 2 -35 25 0 24 -3 -7 -50 -30 -46 -26
-59 12 -41 l27 12 -7 -93 c-4 -51 -18 -226 -32 -388 -13 -162 -24 -311 -23
-330 0 -32 5 -38 61 -73 72 -45 176 -74 295 -84 60 -4 87 -2 98 7 21 17 19 42
-5 73 l-20 25 25 106 c14 58 25 135 25 172 0 48 3 65 13 61 16 -5 15 -77 -2
-150 -17 -70 -10 -129 22 -170 20 -26 36 -35 84 -45 107 -22 105 -23 98 56 -8
79 11 255 31 294 9 18 23 28 37 28 13 0 61 10 107 21 l84 21 27 -33 28 -34
103 0 103 0 3 27 c3 23 -3 29 -47 49 -27 13 -52 31 -54 41 -3 10 -1 18 4 18
23 0 5 53 -35 104 -39 50 -48 72 -89 228 -25 95 -49 185 -53 201 -5 20 4 53
34 125 22 53 45 122 51 153 11 51 17 60 73 105 57 45 64 55 92 134 17 47 46
105 65 130 l33 45 -6 135 c-6 149 -31 327 -72 531 -28 142 -28 160 0 344 9 55
24 186 35 291 15 145 27 216 51 295 17 57 36 111 41 119 37 62 89 251 89 325
0 25 5 56 11 67 9 17 8 24 -3 32 -8 6 -18 35 -21 64 -5 42 -2 59 15 87 23 40
19 83 -12 146 -23 43 -45 56 -77 42z m-704 -3374 c1 -80 -18 -230 -30 -244
-16 -16 -89 -35 -89 -22 0 20 70 531 77 562 8 37 41 -193 42 -296z"/>
<path d="M1898 4336 c-72 -21 -109 -47 -150 -106 -36 -50 -38 -58 -38 -127 0
-53 -4 -79 -15 -89 -21 -21 -19 -67 6 -125 17 -38 20 -63 17 -114 l-4 -66 83
-41 c101 -50 163 -59 211 -29 28 18 32 26 32 66 0 31 10 65 30 106 34 66 49
155 50 286 0 69 -4 91 -29 146 -16 36 -40 72 -53 81 -35 22 -87 26 -140 12z"/>
</g>
</svg>
