<?xml version="1.0" standalone="no"?>
<!DOCTYPE svg PUBLIC "-//W3C//DTD SVG 20010904//EN"
 "http://www.w3.org/TR/2001/REC-SVG-20010904/DTD/svg10.dtd">
<svg version="1.0" xmlns="http://www.w3.org/2000/svg"
 width="219.000000pt" height="196.000000pt" viewBox="0 0 219.000000 196.000000"
 preserveAspectRatio="xMidYMid meet">
<metadata>
Created by potrace 1.16, written by Peter Selinger 2001-2019
</metadata>
<g transform="translate(0.000000,196.000000) scale(0.100000,-0.100000)"
fill="#ffffff" stroke="none">
<path d="M770 1659 c-25 -4 -74 -8 -110 -8 -276 -4 -489 -271 -442 -554 43
-254 278 -428 524 -388 229 37 398 235 398 467 l0 74 48 -24 c63 -32 120 -79
149 -122 43 -62 42 -122 -3 -313 -48 -210 -258 -394 -631 -557 -62 -27 -113
-52 -113 -55 0 -23 228 -37 326 -20 101 18 223 61 358 128 113 55 124 63 193
142 182 208 254 380 240 576 -13 184 -123 411 -250 516 -124 104 -281 150
-507 148 -74 -1 -155 -5 -180 -10z m-70 -95 c0 -9 -96 -126 -170 -208 -102
-113 -122 -182 -75 -270 13 -25 20 -46 15 -46 -16 0 -70 73 -87 118 -14 38
-15 51 -4 91 25 93 131 217 245 285 59 36 76 42 76 30z m627 -70 c57 -33 119
-106 143 -170 22 -61 38 -164 24 -164 -5 0 -27 28 -48 61 -22 34 -72 96 -111
138 -80 85 -95 108 -95 146 0 23 3 25 23 20 12 -4 41 -18 64 -31z"/>
<path d="M1909 1527 c-66 -35 -100 -90 -106 -171 -8 -88 11 -150 58 -197 96
-96 224 -66 285 66 42 89 28 185 -38 260 -59 67 -125 81 -199 42z m51 -41 c0
-58 -55 -286 -69 -286 -16 0 -41 68 -41 112 0 49 25 109 64 156 30 34 46 41
46 18z"/>
<path d="M1922 708 c-141 -68 -148 -264 -14 -349 69 -43 102 -46 168 -14 80
39 114 95 114 185 0 56 -5 73 -29 112 -52 82 -151 109 -239 66z m108 -13 c0
-46 -85 -179 -121 -190 -74 -24 -26 116 62 181 38 28 59 31 59 9z"/>
</g>
</svg>
