<?xml version="1.0" standalone="no"?>
<!DOCTYPE svg PUBLIC "-//W3C//DTD SVG 20010904//EN"
 "http://www.w3.org/TR/2001/REC-SVG-20010904/DTD/svg10.dtd">
<svg version="1.0" xmlns="http://www.w3.org/2000/svg"
 width="394.000000pt" height="725.000000pt" viewBox="0 0 394.000000 725.000000"
 preserveAspectRatio="xMidYMid meet">
<metadata>
Created by potrace 1.16, written by Peter Selinger 2001-2019
</metadata>
<g transform="translate(0.000000,725.000000) scale(0.100000,-0.100000)"
fill="#000000" stroke="none">
<path d="M1861 7089 c-19 -12 -56 -39 -81 -60 -25 -21 -55 -39 -66 -39 -28 0
-68 -45 -98 -110 -29 -64 -86 -305 -86 -366 0 -58 -17 -101 -63 -159 -60 -75
-123 -222 -85 -199 8 5 9 -2 4 -27 -18 -92 -19 -110 -3 -122 9 -7 17 -37 21
-72 7 -69 7 -68 -103 -215 -66 -88 -71 -97 -71 -145 0 -27 4 -66 10 -84 5 -19
8 -36 7 -37 -2 -2 -56 64 -121 146 -126 160 -164 198 -226 230 -53 27 -190 49
-350 57 l-135 6 -77 -58 c-43 -32 -78 -64 -78 -72 0 -19 29 -28 49 -16 9 5 34
20 56 33 l40 23 -36 -39 c-47 -51 -82 -111 -74 -125 4 -6 20 -9 36 -7 20 3 29
0 29 -9 0 -19 60 -17 82 3 14 14 20 14 33 4 12 -10 21 -7 51 16 69 55 69 55
98 44 15 -5 67 -10 115 -10 75 0 92 -3 115 -21 18 -14 65 -99 137 -246 122
-251 174 -344 228 -404 l36 -41 -6 -146 c-6 -135 4 -371 17 -415 4 -12 -6 -33
-26 -59 -18 -22 -90 -116 -160 -210 -101 -133 -138 -191 -170 -266 -91 -210
-201 -395 -288 -484 -53 -54 -64 -71 -60 -92 4 -21 -6 -36 -61 -89 -58 -56
-76 -67 -147 -90 -44 -15 -114 -42 -155 -62 -40 -19 -81 -35 -91 -35 -28 0
-21 -25 13 -54 51 -43 90 -59 141 -57 52 1 187 42 300 92 l69 30 62 -20 c81
-28 122 -27 152 3 l23 23 37 -37 36 -37 -30 -213 c-17 -117 -31 -227 -31 -245
0 -39 32 -136 94 -280 30 -70 64 -177 92 -294 25 -102 83 -291 130 -424 88
-250 116 -347 140 -482 18 -101 19 -331 1 -362 -43 -78 -161 -267 -183 -292
-26 -31 -47 -39 -158 -61 -99 -20 -151 -97 -92 -135 50 -33 415 -42 473 -12
16 9 51 48 78 86 26 39 63 85 83 102 29 26 41 30 70 25 20 -3 39 -11 43 -17 4
-7 10 -46 14 -88 11 -137 13 -141 50 -141 l33 0 12 103 c7 57 25 142 42 191
42 125 47 191 18 258 -12 28 -33 68 -45 87 -22 33 -74 165 -111 281 -27 83
-73 374 -78 500 -14 280 -18 328 -36 405 -21 92 -62 209 -96 276 l-23 46 21
20 c28 28 26 79 -7 143 -27 54 -27 55 -16 154 16 143 49 296 72 332 12 20 45
45 88 68 l69 36 31 -80 c37 -95 53 -165 86 -388 35 -233 45 -263 108 -325 29
-29 91 -83 138 -120 96 -77 148 -139 234 -277 33 -52 123 -192 200 -310 195
-297 266 -423 306 -539 22 -63 26 -227 9 -376 -14 -123 -25 -159 -61 -197 -23
-26 -29 -41 -27 -68 l3 -35 82 -3 c138 -5 138 -5 208 136 33 67 68 130 78 139
15 16 18 16 36 -1 11 -10 38 -54 61 -97 l41 -79 41 0 41 0 -9 63 c-5 34 -9
130 -9 213 l0 151 -48 72 c-28 41 -62 80 -80 89 -58 32 -134 112 -170 180 -38
74 -87 199 -202 522 -42 118 -95 249 -117 290 -48 91 -140 222 -226 322 -141
163 -193 346 -207 738 -4 96 -10 208 -14 248 -6 62 -5 71 9 68 8 -3 42 -12 75
-21 33 -9 96 -28 139 -42 69 -22 90 -25 165 -20 197 14 367 97 564 275 67 61
152 113 248 151 96 38 316 98 394 107 67 7 95 25 95 60 0 42 -203 196 -311
235 -42 16 -63 29 -72 48 -9 20 -21 27 -47 29 -71 5 -78 10 -95 61 -9 27 -22
54 -29 60 -16 13 -198 57 -292 71 -40 5 -83 14 -97 19 -14 6 -52 45 -84 87
l-58 77 -130 -7 c-71 -3 -150 -11 -175 -16 -79 -16 -187 -12 -238 9 -30 13
-92 24 -169 30 -67 6 -128 14 -137 17 -38 15 -30 63 35 197 21 43 58 140 84
215 25 75 49 142 53 149 4 6 20 15 35 18 26 7 28 6 21 -19 -7 -30 -5 -30 68
-15 85 18 128 45 146 90 l15 40 28 -77 c31 -82 57 -123 128 -196 81 -85 147
-85 220 -2 68 78 92 182 145 649 34 288 33 287 120 389 28 34 61 77 73 96 27
45 40 139 22 171 -7 13 -13 35 -13 49 -1 16 -9 29 -23 35 -20 8 -25 20 -39 94
-4 22 -51 64 -63 57 -6 -4 -19 -26 -30 -49 -11 -23 -42 -69 -69 -103 -30 -38
-63 -96 -87 -155 -35 -88 -38 -104 -46 -239 -10 -180 -12 -197 -51 -400 l-31
-165 -23 105 c-26 123 -64 367 -68 445 -3 43 -13 70 -52 136 l-48 83 -8 140
c-13 211 -57 399 -134 561 -68 146 -188 215 -374 215 -69 0 -92 -4 -119 -21z"/>
</g>
</svg>
