<?xml version="1.0" standalone="no"?>
<!DOCTYPE svg PUBLIC "-//W3C//DTD SVG 20010904//EN"
 "http://www.w3.org/TR/2001/REC-SVG-20010904/DTD/svg10.dtd">
<svg version="1.0" xmlns="http://www.w3.org/2000/svg"
 width="2087.000000pt" height="3562.000000pt" viewBox="0 0 2087.000000 3562.000000"
 preserveAspectRatio="xMidYMid meet">
<metadata>
Created by potrace 1.16, written by Peter Selinger 2001-2019
</metadata>
<g transform="translate(0.000000,3562.000000) scale(0.100000,-0.100000)"
fill="#ffffff" stroke="none">
<path d="M10166 35610 c-37 -11 -75 -47 -91 -85 -10 -23 -12 -130 -8 -490 4
-356 1 -530 -12 -770 -31 -568 -31 -545 -3 -585 27 -40 81 -60 126 -44 36 12
69 80 81 169 6 39 15 295 21 570 6 275 13 548 17 607 l6 108 114 -188 c314
-514 720 -1080 868 -1210 52 -45 85 -55 134 -39 84 29 94 92 117 722 17 470
15 780 -6 920 -15 102 -49 202 -80 235 -24 25 -36 30 -77 30 -38 0 -54 -5 -71
-22 -49 -54 -53 -110 -16 -283 26 -118 26 -128 31 -650 3 -291 1 -540 -4 -552
-7 -20 -18 -11 -107 98 -286 349 -520 702 -792 1193 -97 176 -159 260 -199
269 -11 3 -33 1 -49 -3z"/>
<path d="M12173 35465 c-23 -14 -51 -40 -62 -58 -13 -22 -46 -162 -101 -432
-45 -220 -127 -585 -182 -812 -96 -389 -101 -414 -89 -453 9 -29 22 -47 43
-58 17 -10 55 -38 85 -64 113 -96 275 -154 463 -165 235 -14 416 72 575 270
82 102 147 232 182 362 35 133 37 337 5 457 -74 275 -239 514 -471 686 -42 31
-125 100 -186 152 -182 159 -186 160 -262 115z m209 -412 c268 -225 372 -340
442 -486 92 -190 88 -410 -11 -600 -45 -86 -175 -222 -244 -256 -163 -77 -461
-27 -573 98 -19 21 -19 24 58 339 59 239 216 960 216 988 0 10 16 -2 112 -83z"/>
<path d="M9027 35342 c-58 -64 -190 -460 -316 -952 -44 -172 -50 -188 -84
-221 -33 -33 -37 -42 -37 -88 0 -29 6 -64 14 -79 13 -25 11 -46 -15 -197 -44
-263 -38 -344 31 -380 62 -32 128 -7 149 58 8 26 72 398 83 485 3 23 92 69
408 212 l104 48 71 -177 c106 -267 195 -408 269 -427 40 -10 89 16 109 59 30
63 21 97 -77 272 -66 117 -297 663 -468 1104 -85 220 -105 260 -143 285 -32
21 -78 20 -98 -2z m153 -666 c44 -109 79 -201 76 -203 -3 -3 -74 -36 -158 -75
-84 -38 -158 -74 -166 -80 -9 -8 -11 -7 -8 3 3 8 39 131 81 274 87 299 84 289
89 284 3 -2 41 -94 86 -203z"/>
<path d="M6926 34761 c-41 -45 -65 -192 -101 -601 -15 -162 -27 -296 -29 -297
-1 -2 -52 24 -112 58 -60 34 -140 77 -178 96 -37 19 -120 66 -183 104 -168
104 -255 143 -328 147 -59 4 -63 3 -88 -28 -21 -24 -27 -42 -27 -79 0 -76 28
-107 135 -151 50 -20 163 -79 252 -131 90 -52 226 -128 303 -169 76 -41 149
-82 160 -90 l22 -16 -51 -295 c-29 -162 -68 -381 -88 -487 -35 -181 -36 -196
-23 -235 30 -84 142 -118 193 -58 27 33 24 20 122 570 36 201 67 367 70 369 5
5 129 -72 385 -241 206 -136 336 -206 399 -214 83 -11 138 92 94 177 -20 39
-25 42 -203 142 -102 57 -597 365 -622 387 -3 3 0 53 7 111 7 58 19 188 25
290 6 102 18 235 26 295 26 193 29 267 10 303 -9 17 -30 38 -46 47 -41 21
-103 19 -124 -4z"/>
<path d="M14503 34740 c-27 -16 -54 -62 -154 -262 -170 -339 -336 -656 -515
-981 -84 -152 -160 -297 -169 -322 -31 -92 -13 -155 58 -209 108 -83 516 -202
752 -221 90 -7 132 7 168 56 27 37 33 108 13 147 -19 37 -40 44 -216 67 -155
21 -360 72 -462 114 l-77 33 26 51 c14 29 56 104 93 167 136 234 427 787 566
1079 93 193 97 248 24 286 -39 20 -69 19 -107 -5z"/>
<path d="M15576 34085 c-32 -30 -56 -83 -56 -126 0 -42 41 -81 163 -154 54
-32 99 -61 102 -65 2 -3 -50 -80 -116 -171 -157 -214 -298 -423 -389 -579 -89
-152 -209 -330 -226 -337 -7 -3 -61 20 -120 51 -117 61 -149 67 -199 36 -59
-37 -85 -137 -48 -189 10 -15 84 -57 187 -106 94 -46 252 -133 351 -195 192
-121 225 -132 280 -96 56 37 81 120 54 179 -6 14 -68 59 -150 111 -76 48 -141
92 -144 97 -3 4 16 39 43 76 28 37 98 147 157 243 124 202 292 452 421 626
l89 122 95 -85 c130 -116 174 -143 225 -143 73 0 125 60 125 143 0 54 -4 59
-135 173 -170 147 -412 317 -562 393 -58 29 -113 28 -147 -4z"/>
<path d="M5090 33650 c-18 -18 -20 -33 -20 -137 0 -171 44 -533 110 -908 26
-152 28 -170 15 -196 -31 -58 -13 -136 40 -178 22 -17 33 -48 71 -191 70 -273
94 -316 180 -326 55 -7 101 23 110 71 6 36 -32 208 -97 439 l-28 98 137 161
c75 89 158 184 183 211 l46 50 129 -123 c137 -131 263 -232 329 -262 110 -51
189 0 172 108 -8 47 -37 76 -180 185 -104 79 -795 724 -982 918 -93 96 -170
125 -215 80z m400 -572 l152 -147 -120 -140 c-113 -130 -121 -138 -126 -113
-3 15 -19 128 -36 252 -16 124 -33 242 -36 264 -4 23 -2 37 4 35 5 -2 78 -70
162 -151z"/>
<path d="M16810 32990 c-119 -19 -195 -55 -273 -129 -89 -85 -128 -196 -107
-305 20 -104 65 -180 171 -291 155 -163 201 -247 203 -370 1 -81 -19 -126 -81
-189 -106 -107 -276 -116 -461 -25 -80 39 -198 149 -237 221 -31 56 -34 86
-24 240 4 59 1 69 -20 92 -61 64 -146 37 -198 -63 -29 -55 -33 -72 -33 -140 0
-260 255 -544 558 -622 93 -24 253 -26 337 -4 171 45 326 191 386 366 30 87
30 228 0 313 -33 93 -65 139 -191 277 -128 139 -160 191 -160 259 0 38 5 48
45 86 118 113 334 94 486 -43 21 -19 70 -77 110 -129 99 -131 154 -155 218
-95 63 59 33 169 -86 318 -92 116 -193 182 -331 217 -73 19 -239 28 -312 16z"/>
<path d="M10830 32913 c-398 -26 -641 -54 -945 -108 -604 -107 -1222 -297
-1800 -552 -1957 -865 -3516 -2509 -4110 -4334 -56 -173 -197 -690 -294 -1074
-280 -1120 -414 -1905 -483 -2835 -17 -235 -18 -1220 0 -1465 53 -745 146
-1453 291 -2215 16 -85 29 -155 28 -156 -1 0 -56 -33 -123 -73 -174 -105 -323
-220 -449 -346 -169 -169 -261 -325 -286 -484 -38 -249 142 -981 557 -2261 68
-212 146 -444 172 -517 l47 -132 345 -276 345 -275 438 0 437 0 0 -22 c-1 -28
-25 -157 -31 -162 -2 -2 -62 -27 -134 -55 -969 -381 -1622 -1256 -1785 -2396
-10 -68 -19 -91 -60 -155 -145 -228 -223 -450 -275 -789 -71 -457 -44 -882 85
-1341 286 -1012 1021 -2012 2130 -2901 301 -241 686 -512 913 -642 832 -478
1697 -639 2612 -486 515 86 1102 316 1528 600 48 32 185 108 305 168 360 183
691 380 968 576 l131 94 166 -54 c196 -64 480 -135 665 -166 l132 -23 33 -50
c207 -324 586 -569 1039 -670 365 -82 813 -82 1258 0 751 138 1547 493 2252
1005 934 678 1699 1661 2113 2714 390 991 401 2008 30 2780 -39 80 -139 236
-373 577 -301 440 -321 472 -347 555 -134 434 -395 897 -712 1264 -93 107
-325 338 -423 422 l-55 47 391 0 391 0 274 306 c251 281 275 311 286 358 7 28
51 240 97 471 274 1356 423 2303 403 2549 -20 233 -279 469 -793 722 -94 46
-176 84 -182 84 -7 0 -10 11 -7 28 25 143 64 849 74 1331 33 1554 -115 2997
-435 4241 -292 1135 -729 2088 -1305 2849 -162 213 -160 210 -281 396 -372
569 -909 1160 -1458 1601 -952 766 -2012 1195 -3140 1274 -131 9 -536 11 -650
3z m850 -282 c490 -58 916 -169 1369 -355 194 -80 197 -76 -59 -69 -367 9
-855 -23 -1235 -82 -1193 -187 -2250 -663 -3110 -1402 -627 -538 -1156 -1221
-1571 -2028 -137 -267 -237 -489 -381 -850 -666 -1662 -1091 -3483 -1217
-5215 -28 -372 -37 -649 -37 -1080 0 -514 21 -942 62 -1279 5 -46 8 -85 7 -87
-6 -5 -1709 -36 -1715 -30 -15 14 -149 778 -203 1151 -97 679 -139 1193 -147
1815 -14 1042 90 1928 368 3145 98 430 296 1196 380 1470 600 1965 2287 3658
4442 4459 649 241 1354 397 2007 446 80 5 165 12 190 14 25 2 187 2 360 1 240
-3 357 -8 490 -24z m1689 -551 c130 -13 146 -19 370 -153 250 -148 454 -289
696 -482 222 -177 571 -497 480 -440 -645 402 -1239 613 -1935 687 -184 19
-666 16 -852 -5 -556 -66 -1060 -218 -1577 -477 -1141 -571 -2171 -1619 -2936
-2985 -759 -1355 -1269 -3149 -1444 -5080 -53 -578 -71 -994 -71 -1640 1 -462
4 -595 25 -1005 l7 -125 -118 -92 -117 -93 -138 0 -138 0 -6 33 c-3 17 -12
100 -20 182 -68 700 -71 1462 -10 2270 14 185 40 459 50 530 3 17 16 122 30
235 184 1475 567 2957 1132 4374 63 160 151 369 195 465 1049 2317 2967 3657
5453 3811 181 11 777 5 924 -10z m-498 -640 c1295 -101 2479 -835 3381 -2096
386 -541 704 -1183 952 -1926 318 -950 519 -2039 601 -3243 29 -429 37 -716
37 -1225 0 -609 -19 -1086 -64 -1583 l-11 -128 -131 6 c-72 3 -570 17 -1106
30 -536 14 -988 26 -1004 28 l-28 2 1 260 c9 1660 -251 3406 -716 4810 -227
687 -456 1181 -860 1858 -754 1261 -1744 2304 -2699 2842 -160 91 -149 84
-142 90 12 12 267 97 405 135 457 126 937 174 1384 140z m-2029 -458 c181 -84
439 -240 728 -442 105 -74 261 -196 398 -313 136 -116 596 -573 668 -663 27
-34 109 -133 183 -220 464 -550 919 -1254 1289 -1994 529 -1057 915 -2601
1061 -4250 55 -614 88 -1529 65 -1802 l-7 -74 -389 -225 c-234 -134 -394 -232
-399 -244 -5 -11 -142 -577 -304 -1257 l-296 -1237 85 -325 c47 -178 86 -327
86 -330 0 -6 -17 -9 -195 -31 -1038 -132 -2015 -659 -2897 -1563 -103 -106
-190 -192 -193 -192 -4 0 -47 29 -96 65 -747 549 -1690 973 -2602 1170 l-79
17 60 62 60 61 -397 1294 -396 1294 -435 303 c-239 167 -437 311 -441 321 -33
89 -48 1531 -21 1983 56 932 140 1614 297 2395 313 1556 840 2888 1563 3950
678 996 1484 1750 2357 2206 83 43 153 79 157 79 3 0 44 -17 90 -38z m5777
-9967 c503 -14 918 -28 922 -32 4 -4 30 -89 57 -188 l51 -180 -64 -295 c-419
-1939 -586 -2705 -592 -2711 -5 -4 -340 -35 -747 -69 l-739 -63 -186 37 c-324
63 -509 84 -835 94 l-210 7 -22 85 c-11 47 -49 193 -84 325 l-62 240 17 75 c9
41 50 212 91 380 109 453 327 1362 391 1630 30 129 60 240 67 247 6 6 182 111
391 231 l380 220 130 -5 c72 -2 541 -15 1044 -28z m1363 -91 c288 -132 547
-292 670 -414 93 -92 103 -121 94 -260 -24 -354 -193 -1348 -414 -2432 l-77
-377 -195 -220 c-107 -121 -198 -220 -201 -220 -4 -1 -146 105 -315 235 -217
165 -308 240 -306 252 1 9 155 719 340 1576 l338 1559 -48 171 c-26 94 -48
174 -48 178 0 18 47 4 162 -48z m-11260 -1078 c273 -190 329 -233 337 -260 47
-147 702 -2295 704 -2307 2 -14 -393 -431 -874 -923 l-126 -128 -85 248 c-587
1702 -728 2114 -838 2439 l-127 380 63 295 c35 162 66 305 69 318 5 20 11 22
78 22 l72 1 140 113 140 113 60 -41 c33 -23 207 -144 387 -270z m-1142 65 c0
-6 -27 -135 -59 -288 -33 -153 -62 -294 -65 -313 -8 -47 130 -459 877 -2620
l212 -615 -1163 -3 -1164 -2 -284 227 -284 227 -129 390 c-392 1182 -629 2078
-607 2288 20 195 188 390 538 624 107 72 129 83 145 74 13 -9 197 -8 733 3
896 18 1250 20 1250 8z m9055 -2561 c567 -37 1092 -168 1625 -406 431 -193
808 -469 1133 -829 449 -497 734 -1093 827 -1727 44 -295 49 -610 14 -878 -93
-726 -464 -1661 -982 -2475 -809 -1273 -1889 -2183 -3042 -2565 -783 -259
-1588 -265 -2436 -19 l-141 41 116 103 c121 107 340 327 452 455 409 467 688
992 828 1560 33 133 46 202 76 395 4 24 15 35 52 55 156 83 630 418 851 603
378 314 729 679 985 1021 315 423 545 874 643 1261 34 133 44 348 20 448 -44
187 -166 319 -356 383 -46 16 -85 19 -230 19 -166 0 -182 -2 -305 -34 -173
-44 -288 -88 -480 -181 -498 -242 -1012 -647 -1458 -1147 -55 -62 -103 -113
-106 -113 -3 0 -40 71 -81 157 -389 815 -948 1534 -1643 2116 l-68 57 188 191
c289 295 519 495 799 695 831 594 1769 875 2719 814z m2615 -221 l215 -164
-336 -3 -336 -2 -117 66 -118 66 229 103 c125 57 233 102 238 100 6 -1 107
-76 225 -166z m-9308 -325 c565 -118 1228 -363 1761 -650 862 -465 1558 -1055
2094 -1778 598 -806 959 -1667 1059 -2531 20 -169 22 -563 5 -715 -49 -436
-170 -835 -362 -1199 -59 -111 -152 -266 -183 -306 -16 -20 -16 -19 -11 5 34
170 59 580 51 840 -36 1209 -446 2273 -1238 3212 -211 250 -552 583 -828 809
-786 643 -1859 1211 -3043 1611 -98 33 -177 64 -175 69 2 4 147 157 323 338
264 273 325 330 347 331 15 0 105 -16 200 -36z m-731 -800 c2619 -893 4309
-2385 4852 -4284 199 -695 245 -1477 126 -2170 -11 -63 -22 -123 -25 -133 -9
-28 -274 -340 -274 -323 0 2 11 51 24 108 67 283 91 500 90 828 -1 373 -32
625 -125 1000 -190 766 -620 1575 -1224 2300 -142 171 -560 595 -725 737 -827
709 -1797 1225 -2889 1538 -188 53 -489 124 -696 162 -78 14 -101 22 -103 36
-3 16 14 17 242 17 l244 0 123 130 c68 72 126 130 130 130 4 0 107 -34 230
-76z m-1237 -201 c3 -10 19 -67 36 -128 18 -60 35 -113 39 -118 4 -4 70 -17
147 -28 480 -70 1099 -248 1619 -464 730 -304 1360 -690 1955 -1199 162 -138
542 -524 685 -696 633 -760 1059 -1596 1220 -2395 53 -264 67 -394 72 -673 6
-268 -4 -420 -38 -622 -58 -345 -193 -736 -280 -815 -92 -82 -462 -347 -622
-444 l-37 -23 59 89 c313 470 500 1003 552 1572 24 267 3 652 -52 946 -146
783 -591 1654 -1213 2375 -646 749 -1542 1370 -2492 1728 -499 188 -956 298
-1469 354 -161 17 -702 17 -860 0 -309 -34 -527 -88 -880 -216 -11 -4 25 22
80 59 187 124 460 245 661 295 l42 10 20 113 c12 61 28 154 37 205 l17 92 348
0 c323 0 349 -1 354 -17z m236 -657 c1004 -123 1964 -501 2805 -1105 1131
-812 1977 -2060 2204 -3253 53 -279 75 -656 52 -918 -40 -463 -177 -910 -401
-1307 -120 -213 -308 -479 -368 -521 -40 -29 -282 -155 -287 -150 -3 2 0 20 5
39 44 159 80 514 80 789 0 1343 -682 2623 -1925 3615 -862 687 -2017 1219
-3008 1385 -279 46 -389 55 -692 54 -236 0 -302 -4 -420 -22 -327 -51 -603
-149 -815 -290 -41 -28 -76 -49 -78 -47 -2 1 7 40 18 86 98 387 245 701 466
994 115 152 128 166 218 229 338 241 794 390 1336 440 114 10 681 -3 810 -18z
m8954 -606 c173 -25 248 -118 248 -310 1 -117 -21 -225 -77 -389 -253 -739
-892 -1532 -1755 -2180 -125 -93 -385 -275 -435 -303 -6 -4 -11 58 -12 176 -6
426 -81 851 -232 1306 l-67 202 94 111 c622 743 1463 1313 2047 1386 97 12
111 12 189 1z m3513 -555 l82 -120 -44 -210 c-225 -1089 -642 -2180 -1163
-3045 -546 -906 -1258 -1631 -2057 -2090 -144 -83 -458 -235 -610 -295 -366
-145 -784 -253 -1175 -304 -221 -29 -372 -40 -629 -48 l-226 -6 -80 76 -80 76
260 1 c351 1 579 24 900 90 1121 233 2222 968 3110 2075 830 1035 1414 2311
1537 3360 13 116 16 515 5 625 l-8 75 48 -70 c27 -38 85 -124 130 -190z m263
-510 c50 -146 104 -397 126 -585 20 -177 15 -601 -10 -774 -96 -666 -338
-1282 -767 -1954 -490 -766 -1170 -1427 -1954 -1899 -655 -394 -1396 -654
-2037 -714 -168 -15 -560 -7 -688 15 -118 21 -307 69 -380 97 -30 11 -93 39
-140 62 l-85 42 195 6 c768 26 1470 202 2125 533 400 203 725 423 1072 728
148 130 473 465 609 628 602 719 1084 1603 1451 2660 127 364 275 894 348
1240 14 69 29 132 32 140 7 20 51 -76 103 -225z m-13939 30 c1412 -136 3078
-1023 4008 -2135 598 -715 934 -1476 1022 -2315 15 -141 15 -528 0 -670 -23
-224 -94 -574 -132 -650 -28 -57 -438 -284 -709 -393 -330 -133 -668 -219
-1040 -264 -138 -17 -573 -17 -715 0 -633 75 -1169 285 -1763 688 -1593 1083
-2591 2453 -2722 3737 -28 267 -1 638 65 915 117 490 432 832 914 992 130 44
320 85 456 98 144 15 449 13 616 -3z"/>
<path d="M3431 32376 c-33 -35 -37 -83 -9 -133 13 -23 116 -144 231 -268 243
-265 442 -493 704 -805 194 -231 241 -275 316 -287 25 -4 48 1 80 16 152 73
516 572 533 729 8 78 -43 138 -125 149 -56 8 -84 -14 -126 -96 -87 -173 -230
-383 -324 -475 -45 -44 -52 -48 -67 -35 -9 8 -62 70 -118 139 -270 336 -912
1056 -962 1079 -44 20 -108 14 -133 -13z"/>
<path d="M17975 32251 c-76 -46 -92 -107 -52 -187 29 -57 118 -176 186 -249
26 -27 55 -60 66 -73 l19 -23 -115 -117 c-63 -64 -173 -180 -245 -257 -167
-180 -555 -569 -618 -619 -55 -45 -80 -94 -72 -141 7 -34 38 -69 72 -79 29 -9
107 17 152 50 39 29 391 387 777 788 l209 219 49 -54 c27 -30 100 -117 162
-194 151 -187 165 -200 220 -200 102 0 178 126 120 199 -194 240 -297 359
-442 510 -106 110 -205 225 -254 294 -45 62 -90 122 -102 132 -27 26 -92 26
-132 1z"/>
<path d="M3055 32008 c-65 -23 -194 -120 -280 -210 -100 -103 -181 -218 -246
-350 -32 -64 -49 -88 -62 -88 -29 0 -87 -63 -87 -95 0 -67 23 -92 215 -234 65
-48 304 -277 475 -455 44 -46 226 -214 340 -314 163 -143 298 -225 390 -238
61 -8 116 8 187 56 133 89 457 458 484 552 13 46 -4 89 -52 132 -32 29 -47 36
-82 36 -49 0 -79 -22 -125 -92 -44 -67 -292 -358 -348 -406 -26 -23 -54 -42
-63 -42 -41 0 -191 117 -373 290 -54 50 -98 96 -98 101 0 5 99 147 220 316
240 334 242 339 200 409 -12 18 -40 42 -66 55 -40 19 -51 20 -85 10 -45 -14
-54 -24 -293 -364 l-168 -237 -129 122 c-137 130 -226 210 -273 244 l-28 20
37 75 c98 196 220 338 378 443 97 64 117 87 117 129 0 95 -98 167 -185 135z"/>
<path d="M19125 31082 c-22 -11 -81 -58 -132 -105 -135 -126 -473 -371 -576
-415 -26 -12 -50 -28 -53 -36 -3 -8 -67 -59 -142 -112 -342 -243 -489 -394
-508 -521 -17 -117 119 -349 372 -630 79 -88 115 -113 164 -113 67 0 140 71
140 136 0 31 -34 90 -60 104 -22 12 -332 396 -355 439 -20 40 -19 67 6 102 39
56 426 355 449 347 5 -1 122 -122 260 -268 138 -146 261 -270 273 -277 33 -18
75 -15 117 8 48 27 70 66 70 123 0 50 2 48 -325 386 -66 69 -133 139 -148 156
l-27 30 92 64 c156 107 281 200 325 243 l42 40 83 -65 c172 -135 283 -278 357
-460 33 -81 42 -95 74 -111 51 -26 102 -14 150 33 33 34 37 43 37 90 0 61 -34
152 -96 258 -84 142 -199 270 -346 384 -61 48 -77 66 -82 94 -15 78 -85 111
-161 76z"/>
<path d="M2141 30545 c-141 -31 -257 -79 -344 -142 -26 -19 -99 -93 -162 -164
-113 -127 -115 -130 -115 -177 0 -79 38 -125 175 -213 198 -126 269 -180 452
-340 98 -85 207 -178 243 -206 100 -77 517 -362 548 -374 69 -26 142 23 142
96 0 68 -23 89 -323 293 l-119 81 59 38 c207 133 473 221 763 255 129 14 150
29 150 108 0 43 -5 55 -34 88 -34 37 -36 37 -121 41 -47 2 -123 -2 -168 -8
-96 -14 -281 -61 -373 -96 l-64 -24 5 22 c21 93 25 123 25 207 0 169 -44 285
-145 378 -66 61 -185 123 -273 141 -72 15 -243 13 -321 -4z m323 -235 c100
-31 139 -73 161 -174 35 -155 -8 -288 -162 -498 l-48 -66 -125 111 c-169 150
-247 211 -368 286 -56 35 -102 68 -102 74 0 15 131 146 178 179 86 60 232 105
343 107 32 1 86 -8 123 -19z"/>
<path d="M19935 29911 c-11 -5 -76 -50 -145 -101 -269 -198 -785 -526 -1258
-799 -89 -52 -115 -87 -109 -151 4 -33 12 -51 33 -68 66 -57 179 -8 568 247
232 152 671 426 701 438 8 2 -24 -76 -69 -174 -282 -604 -527 -1269 -530
-1436 -1 -65 0 -70 32 -98 71 -63 137 -35 620 262 674 415 891 578 953 714 28
61 24 92 -15 131 -65 65 -144 39 -274 -93 -133 -133 -291 -247 -857 -617 -88
-57 -161 -103 -163 -101 -5 4 52 195 105 353 108 323 223 591 452 1050 156
313 169 350 140 404 -21 39 -127 62 -184 39z"/>
<path d="M1468 29193 c-151 -282 -376 -737 -457 -928 -63 -146 -141 -344 -141
-356 0 -7 150 -62 155 -57 2 2 28 67 59 146 111 280 318 710 549 1142 l105
195 -65 37 c-35 21 -70 38 -76 38 -7 0 -65 -98 -129 -217z"/>
<path d="M1971 29307 c-73 -118 -355 -723 -546 -1172 -110 -258 -402 -982
-407 -1010 -2 -13 17 -25 71 -46 40 -17 76 -28 78 -25 3 2 80 193 172 423 263
656 446 1071 668 1522 68 139 121 257 116 261 -4 5 -36 24 -70 44 l-62 35 -20
-32z"/>
<path d="M2237 28838 c-184 -327 -370 -691 -452 -884 -59 -137 -106 -277 -97
-285 9 -8 152 -43 156 -38 2 2 14 36 26 74 55 169 263 596 484 993 60 106 106
194 105 196 -26 17 -133 76 -139 76 -5 0 -42 -60 -83 -132z"/>
<path d="M20230 27859 c-30 -22 -59 -44 -63 -48 -4 -4 16 -48 46 -97 79 -130
187 -349 250 -509 109 -278 155 -460 206 -820 l37 -260 74 3 c41 1 78 6 83 11
11 11 -44 427 -79 593 -64 304 -193 652 -348 937 -67 122 -135 231 -144 230
-4 0 -32 -19 -62 -40z"/>
<path d="M19867 27749 c-37 -22 -67 -44 -65 -47 2 -4 52 -104 110 -222 341
-692 548 -1476 584 -2217 l7 -143 83 0 84 0 0 38 c0 75 -20 341 -36 472 -69
598 -242 1217 -501 1789 -79 175 -180 371 -191 371 -4 0 -38 -18 -75 -41z"/>
<path d="M19578 27556 c-31 -17 -60 -34 -63 -38 -3 -3 12 -42 35 -87 130 -259
279 -660 349 -940 41 -163 81 -400 81 -480 l0 -44 83 8 c45 4 84 9 86 11 6 5
-17 207 -35 313 -26 152 -83 370 -148 565 -96 288 -289 728 -319 725 -6 -1
-38 -16 -69 -33z"/>
<path d="M1730 25981 c-186 -61 -280 -283 -250 -595 37 -386 144 -743 304
-1011 71 -119 80 -126 102 -83 40 79 268 288 539 493 198 151 272 233 338 373
25 54 32 83 35 153 7 147 -36 232 -146 286 -103 50 -250 34 -377 -42 l-53 -32
-17 64 c-45 165 -151 315 -262 369 -57 28 -165 41 -213 25z m216 -203 c95 -44
183 -162 219 -293 9 -33 18 -66 20 -72 3 -9 23 -2 62 21 197 116 383 64 424
-118 34 -152 -73 -329 -306 -504 -224 -169 -409 -336 -453 -410 l-19 -33 -40
63 c-118 187 -206 433 -252 708 -38 230 -36 352 9 473 24 64 87 140 139 167
51 27 138 26 197 -2z"/>
<path d="M18770 25871 c-89 -28 -177 -108 -224 -204 -14 -29 -35 -90 -47 -137
-19 -76 -21 -103 -16 -260 3 -96 11 -262 17 -369 13 -214 2 -422 -25 -487 -19
-47 -20 -44 19 -44 78 0 306 55 442 106 283 106 618 307 771 460 227 229 229
503 5 610 -48 23 -74 29 -158 32 -118 5 -191 -10 -303 -63 -41 -20 -75 -34
-76 -33 -1 2 -7 32 -13 68 -26 148 -127 283 -235 315 -54 16 -116 18 -157 6z
m170 -192 c53 -24 84 -51 116 -101 29 -46 64 -148 64 -188 0 -16 2 -30 5 -30
3 0 32 13 63 29 81 41 162 62 235 63 82 0 137 -16 189 -55 140 -107 120 -292
-51 -462 -186 -184 -590 -390 -883 -449 -101 -21 -122 -21 -114 0 28 73 33
305 12 584 -18 237 -7 350 46 455 75 146 201 207 318 154z"/>
<path d="M19322 22909 c-95 -37 -186 -153 -226 -289 -33 -111 -38 -218 -20
-444 20 -269 16 -638 -9 -706 -9 -24 -14 -46 -11 -49 8 -8 169 18 270 45 232
60 505 187 741 343 283 188 398 342 397 531 0 89 -29 156 -90 210 -125 109
-354 111 -564 5 l-47 -24 -13 70 c-6 39 -28 101 -46 139 -80 160 -231 227
-382 169z m213 -183 c84 -38 144 -129 167 -250 7 -37 15 -65 18 -63 102 61
254 102 335 92 225 -30 304 -224 174 -427 -130 -202 -632 -481 -980 -544 -49
-9 -92 -15 -94 -13 -2 3 0 22 5 44 19 82 22 253 9 455 -23 336 -16 431 37 545
51 109 149 185 239 185 22 0 63 -11 90 -24z"/>
<path d="M860 22641 c-85 -27 -156 -98 -190 -187 -16 -42 -24 -89 -28 -161 -2
-57 -7 -103 -11 -103 -3 0 -38 7 -76 15 -257 54 -490 -38 -541 -213 -44 -152
42 -317 230 -440 175 -114 540 -233 853 -278 114 -16 379 -22 450 -10 l42 8
-24 36 c-56 85 -126 363 -180 710 -27 175 -67 313 -116 399 -78 136 -199 223
-318 229 -36 2 -77 0 -91 -5z m217 -177 c62 -30 133 -106 173 -184 42 -82 67
-176 95 -355 43 -266 99 -488 140 -551 20 -31 8 -34 -145 -34 -275 0 -586 72
-845 194 -107 51 -186 108 -237 174 -127 160 -64 348 136 407 63 19 184 19
261 0 33 -8 63 -14 68 -15 4 0 7 35 7 78 0 96 20 168 63 224 73 96 168 117
284 62z"/>
<path d="M2171 16674 c-102 -51 -169 -171 -178 -322 -5 -71 -8 -82 -22 -76
-50 22 -183 55 -241 60 -121 12 -248 -24 -328 -91 -17 -14 -43 -51 -59 -83
-63 -129 -21 -283 114 -419 78 -79 153 -131 306 -209 219 -112 469 -200 695
-244 97 -19 362 -40 362 -28 0 2 -8 22 -19 44 -44 91 -76 308 -92 618 -13 266
-31 385 -70 487 -53 137 -158 251 -257 279 -69 19 -153 12 -211 -16z m207
-139 c66 -20 148 -94 190 -172 53 -100 71 -188 82 -393 14 -253 36 -445 64
-542 l24 -81 -112 6 c-209 12 -466 87 -713 208 -267 131 -397 260 -410 409 -7
73 9 122 59 176 59 64 123 88 238 88 77 0 110 -6 174 -28 43 -15 80 -25 81
-24 2 2 8 39 14 83 14 100 49 172 107 224 66 58 120 70 202 46z"/>
<path d="M19178 16676 c-124 -48 -188 -170 -188 -355 0 -109 12 -166 75 -366
85 -268 132 -492 119 -564 -6 -31 -5 -33 17 -26 51 15 183 75 252 114 174 100
390 278 529 437 149 170 205 291 196 427 -5 82 -22 121 -74 171 -113 110 -359
76 -516 -72 -15 -14 -29 -24 -31 -21 -1 2 -15 30 -30 62 -33 70 -106 151 -161
179 -51 26 -139 32 -188 14z m200 -162 c54 -27 104 -85 138 -159 10 -22 19
-42 20 -43 2 -2 25 14 53 36 151 120 324 135 410 37 71 -82 65 -203 -17 -340
-41 -68 -212 -249 -317 -335 -125 -102 -314 -214 -397 -235 -25 -6 -25 -6 -31
82 -7 92 -36 215 -107 443 -67 215 -64 354 8 450 68 91 144 112 240 64z"/>
</g>
</svg>
