<?xml version="1.0" standalone="no"?>
<!DOCTYPE svg PUBLIC "-//W3C//DTD SVG 20010904//EN"
 "http://www.w3.org/TR/2001/REC-SVG-20010904/DTD/svg10.dtd">
<svg version="1.0" xmlns="http://www.w3.org/2000/svg"
 width="1214.000000pt" height="1346.000000pt" viewBox="0 0 1214.000000 1346.000000"
 preserveAspectRatio="xMidYMid meet">
<metadata>
Created by potrace 1.16, written by Peter Selinger 2001-2019
</metadata>
<g transform="translate(0.000000,1346.000000) scale(0.100000,-0.100000)"
fill="#000000" stroke="none">
<path d="M4025 13454 c-122 -8 -364 -36 -510 -60 -910 -151 -1571 -517 -1969
-1092 -111 -159 -898 -1579 -964 -1737 -176 -426 -274 -913 -337 -1675 -9
-107 -21 -204 -27 -215 -6 -11 -11 -36 -10 -55 1 -19 -7 -154 -18 -300 -31
-417 -29 -444 56 -547 42 -51 40 -65 -3 -29 -45 38 -84 119 -90 184 -2 31 7
201 20 377 13 176 23 321 22 323 -2 2 -35 -50 -73 -115 l-70 -118 -21 -300
c-26 -367 -26 -417 -2 -472 37 -80 167 -193 224 -193 9 0 17 -2 17 -5 0 -3
-24 -41 -54 -83 l-55 -78 99 -369 98 -370 -34 -46 c-84 -115 -91 -251 -18
-375 61 -104 220 -204 323 -204 l39 0 -28 -68 c-242 -575 -184 -1610 145
-2597 88 -265 104 -301 166 -369 43 -47 53 -67 84 -172 127 -417 339 -819 532
-1006 90 -88 278 -228 360 -269 96 -48 176 -62 266 -48 49 8 64 8 70 -3 4 -7
40 -69 78 -138 142 -251 268 -427 419 -584 98 -103 149 -144 395 -322 290
-211 334 -238 460 -282 156 -54 265 -50 476 18 115 36 137 40 230 40 114 0
197 18 284 62 28 14 99 35 158 47 135 27 174 40 315 107 131 61 333 206 420
299 32 33 98 116 149 183 149 197 215 330 317 642 118 358 166 644 185 1098
54 1279 -329 2844 -947 3872 -210 349 -526 729 -748 897 -90 68 -295 191 -399
239 -192 89 -513 140 -709 114 -55 -8 -160 -15 -233 -16 -135 -3 -246 -25
-302 -61 -16 -10 -71 -18 -175 -25 -211 -13 -289 -39 -426 -144 -78 -59 -87
-71 -297 -351 -122 -162 -208 -287 -241 -352 -29 -55 -57 -103 -62 -106 -5 -3
-27 21 -48 53 l-40 58 34 53 c39 63 59 144 49 204 -9 54 -43 145 -57 153 -7 5
-8 2 -3 -6 6 -9 4 -11 -4 -6 -7 5 -10 14 -7 22 3 8 0 13 -7 11 -7 -1 -12 6
-12 15 0 10 -7 23 -15 30 -12 11 -12 10 0 -7 8 -11 -5 -2 -28 20 -47 43 -58
62 -15 24 l28 -24 -24 27 c-13 15 -29 24 -36 22 -7 -3 -16 0 -21 7 -5 8 -3 10
6 4 8 -5 11 -4 6 3 -4 6 -13 9 -20 6 -8 -3 -17 0 -22 7 -5 8 -3 10 6 4 8 -5
11 -4 6 3 -4 6 -14 8 -23 5 -12 -5 -14 -3 -8 7 6 9 4 12 -7 8 -12 -5 -37 71
-128 393 l-114 399 -47 15 -48 16 68 97 c88 125 102 153 107 216 10 111 33
678 28 690 -3 8 -27 20 -53 27 l-48 14 53 225 c149 640 297 1174 406 1468 29
78 36 87 97 136 362 288 993 520 1636 603 169 21 516 21 718 -1 340 -37 549
-86 997 -236 651 -218 1220 -512 1735 -899 448 -336 1035 -889 1769 -1665
l169 -179 -32 -26 c-17 -14 -31 -30 -31 -35 0 -15 312 -501 342 -533 l31 -32
-39 -6 c-111 -18 -247 -49 -312 -71 -123 -41 -343 -159 -404 -216 -7 -7 -44
-40 -82 -73 -356 -307 -570 -813 -636 -1495 -13 -134 -4 -590 14 -746 72 -610
233 -1159 496 -1684 311 -622 747 -1140 1186 -1411 85 -52 291 -151 396 -190
319 -117 695 -125 994 -19 49 17 116 40 149 51 125 41 223 83 300 129 44 26
109 60 145 76 476 207 798 739 902 1488 17 124 21 203 22 446 0 305 -11 454
-54 705 -10 61 -24 171 -30 245 -13 154 -38 292 -80 441 -16 56 -29 104 -27
105 1 1 32 18 69 38 88 49 93 56 92 135 -2 80 -48 218 -133 396 -104 217 -236
401 -396 554 -106 100 -228 182 -397 266 -122 61 -139 73 -207 146 -80 87
-264 249 -348 308 -29 20 -53 43 -54 51 0 10 -2 11 -6 3 -3 -9 -25 1 -66 28
-34 22 -93 56 -132 75 -73 36 -88 37 -217 18 -30 -4 -56 4 -130 37 -112 51
-111 51 -95 73 21 28 121 25 190 -7 40 -18 59 -22 64 -14 3 6 1 13 -5 15 -6 2
-16 19 -22 38 -7 20 -16 31 -22 28 -7 -4 -8 -2 -4 4 11 18 -66 212 -84 212
-13 0 -13 1 0 11 12 9 11 10 -7 6 -15 -3 -20 -1 -16 9 3 8 9 12 14 9 4 -3 1
15 -7 40 -10 26 -20 42 -26 38 -7 -3 -8 -1 -4 6 8 12 -24 101 -36 101 -4 0 -5
-6 -2 -13 3 -8 -3 -13 -15 -13 -11 0 -19 3 -19 6 2 25 -3 33 -14 22 -15 -15
-28 -15 -28 -1 0 5 5 7 10 4 6 -3 10 -2 10 4 0 6 12 8 30 5 19 -4 30 -2 30 5
0 6 -3 10 -7 10 -36 -6 -10 24 45 52 28 14 32 18 16 19 -11 0 -58 -27 -104
-60 -60 -42 -86 -56 -92 -47 -9 15 -4 21 122 112 114 83 141 117 139 180 l-2
40 -6 -45 c-4 -25 -12 -55 -19 -67 -15 -27 -71 -46 -108 -37 -31 7 -124 64
-124 77 0 4 -6 7 -13 7 -8 0 -23 10 -34 23 -32 33 -333 505 -333 520 0 8 38
29 85 47 46 19 81 37 76 40 -4 3 -62 112 -129 242 -962 1878 -1636 2635 -2917
3276 -593 296 -1169 497 -1685 586 -261 45 -641 72 -845 60z m-3420 -4251
c-13 -180 -35 -559 -35 -617 0 -83 21 -140 75 -206 48 -58 51 -73 10 -46 -39
26 -84 94 -101 154 -15 51 -15 80 5 406 23 362 25 386 42 386 7 0 8 -29 4 -77z
m8726 -375 c68 -106 144 -226 171 -267 50 -76 60 -104 31 -80 -18 15 -62 82
-234 353 -93 146 -113 186 -94 186 2 0 59 -87 126 -192z m-8917 -173 c-29
-421 -29 -418 74 -544 39 -48 28 -54 -20 -12 -51 45 -82 114 -86 196 -4 73 35
693 45 708 3 4 6 7 8 5 2 -2 -8 -160 -21 -353z m8509 3 c183 -292 248 -393
257 -402 12 -12 13 -49 1 -42 -14 9 -331 511 -331 524 0 27 19 7 73 -80z
m-8175 -620 c91 -322 212 -757 212 -762 0 -3 -7 -6 -15 -6 -8 0 -15 2 -15 4 0
7 -211 766 -217 782 -3 8 1 14 10 14 10 0 20 -14 25 -32z m9106 -153 c215 -81
455 -236 661 -428 201 -186 358 -367 504 -579 29 -43 55 -78 58 -78 5 0 -4 15
-39 64 -15 21 -25 43 -21 49 3 6 1 7 -5 3 -7 -4 -12 -1 -12 8 0 9 -4 16 -9 16
-5 0 -16 16 -25 35 -9 19 -20 35 -25 35 -4 0 -18 19 -31 42 -13 23 -37 58 -55
77 -45 52 -92 116 -77 107 7 -4 12 -2 13 6 0 9 2 10 5 1 4 -9 13 -9 31 -2 14
5 34 7 43 4 10 -3 21 -1 25 5 5 8 11 8 21 -1 11 -9 14 -8 14 7 0 16 2 17 10 4
6 -10 10 -11 10 -2 0 6 5 12 11 12 5 0 7 -4 4 -10 -3 -5 0 -10 9 -10 8 0 16 4
18 10 5 17 372 -350 430 -430 117 -161 273 -454 318 -595 27 -86 52 -134 66
-128 9 3 14 -1 14 -12 0 -10 5 -14 13 -9 6 4 2 -4 -10 -16 -30 -32 -45 -18
-79 73 -76 202 -101 261 -151 360 -94 189 -234 387 -354 502 l-52 50 50 -65
c139 -181 287 -425 399 -655 94 -194 127 -275 111 -275 -6 0 -19 -7 -28 -16
-17 -15 -20 -15 -43 0 -24 15 -40 9 -41 -16 0 -17 -13 -16 -18 2 -3 11 -1 18
4 14 5 -3 9 -3 9 0 0 2 3 13 7 23 6 17 5 17 -15 -1 -12 -11 -22 -25 -22 -32 0
-8 -6 -11 -15 -8 -8 4 -15 13 -15 21 0 8 4 11 10 8 6 -3 7 1 4 9 -8 20 -24 21
-24 1 0 -8 -5 -15 -11 -15 -5 0 -7 -4 -4 -10 3 -5 1 -10 -4 -10 -6 0 -11 7
-11 15 0 8 -9 15 -20 15 -17 0 -19 -3 -10 -19 5 -11 10 -26 9 -33 -1 -17 -40
71 -42 95 -1 9 -4 17 -8 17 -3 0 -26 44 -50 98 -24 53 -53 113 -65 133 -12 19
-43 76 -68 126 -25 51 -51 95 -58 99 -7 4 0 -12 14 -37 130 -224 289 -594 381
-889 89 -284 128 -443 166 -680 35 -219 57 -480 40 -480 -5 0 -9 16 -9 36 0
36 -11 118 -51 369 -91 573 -336 1243 -633 1735 -270 446 -634 844 -982 1072
-130 85 -213 130 -226 122 -6 -4 -8 -2 -5 3 8 12 -20 26 -33 18 -12 -8 -60 16
-54 26 3 5 -6 13 -20 19 -14 5 -26 12 -26 15 0 8 2 7 74 -20z m-9449 -657 c37
-139 79 -295 93 -346 18 -68 22 -96 14 -104 -8 -8 -13 -8 -16 3 -8 22 -186
686 -186 693 0 3 6 6 14 6 9 0 35 -80 81 -252z m2968 218 c20 -11 37 -23 37
-27 0 -12 -62 -17 -192 -15 -71 0 -129 -3 -131 -7 -4 -12 -77 3 -77 15 0 6 6
8 14 5 8 -3 17 -3 20 1 8 8 32 12 81 15 22 1 42 5 45 8 9 10 94 27 130 26 19
-1 52 -10 73 -21z m234 -46 c168 -112 379 -338 558 -597 181 -263 369 -619
524 -990 194 -467 361 -1023 470 -1573 47 -235 73 -388 91 -525 6 -49 13 -103
15 -120 3 -28 7 -62 20 -205 3 -30 8 -104 11 -165 3 -60 8 -113 10 -117 2 -4
0 -9 -6 -13 -6 -4 -10 7 -11 27 0 18 -2 42 -4 53 -5 23 -4 18 -40 291 -14 110
-30 225 -35 255 -33 197 -129 639 -194 899 -115 455 -313 1032 -462 1348 -19
40 -34 75 -34 78 0 15 -171 342 -245 469 -199 340 -382 576 -627 810 -67 63
-117 115 -111 115 6 0 38 -18 70 -40z m-498 -72 c104 -84 179 -157 270 -263
671 -779 1226 -2357 1371 -3899 17 -180 25 -366 13 -284 -2 14 -10 29 -18 32
-11 4 -12 0 -5 -19 12 -31 3 -32 -21 -3 -11 11 -19 17 -19 12 0 -5 -4 -3 -9 5
-6 10 -10 10 -16 1 -4 -7 1 -13 14 -17 22 -6 27 -18 11 -28 -5 -3 -15 3 -21
14 -8 11 -19 17 -28 13 -13 -5 -13 -3 2 12 9 9 17 19 17 22 0 7 -54 -28 -68
-45 -11 -13 -12 -9 -8 24 4 24 2 32 -2 22 -7 -17 -9 -17 -21 -3 -7 9 -20 16
-27 16 -8 0 -14 3 -14 8 0 4 -11 7 -24 7 -13 0 -23 -2 -21 -4 9 -8 -17 -41
-27 -35 -5 4 -14 0 -19 -7 -7 -11 -9 -11 -9 -1 0 7 10 17 23 22 24 10 24 10
-15 15 -21 3 -28 -1 -28 -13 0 -13 -2 -13 -15 4 -14 18 -14 18 -15 -8 0 -16
-4 -28 -9 -28 -16 0 -22 18 -10 26 17 10 -18 34 -39 27 -9 -4 -13 -2 -9 4 4 6
1 13 -7 16 -11 4 -13 -1 -11 -24 5 -34 -10 -40 -18 -7 -5 19 -8 20 -23 7 -13
-11 -18 -11 -21 -1 -7 19 -30 14 -47 -10 -20 -28 -33 -16 -18 17 11 23 10 25
-14 25 -22 0 -24 -2 -14 -15 9 -11 8 -19 -4 -37 -9 -12 -16 -18 -16 -12 0 5 5
15 11 21 7 7 6 12 -6 17 -9 3 -13 2 -10 -4 3 -6 1 -10 -5 -10 -6 0 -8 -5 -4
-12 4 -7 3 -8 -4 -4 -7 4 -12 23 -12 42 0 53 -57 473 -90 670 -60 349 -131
685 -204 964 -18 69 -45 176 -60 239 -15 62 -31 121 -36 130 -14 29 -28 65
-59 151 -159 443 -233 622 -365 885 -175 348 -346 601 -540 803 -58 60 -106
112 -106 116 0 7 13 24 48 61 12 13 22 34 22 46 0 12 3 20 6 16 10 -9 32 17
39 46 4 14 18 33 31 42 14 9 22 21 18 27 -4 7 -3 8 5 4 6 -4 14 -1 17 8 3 8
14 18 24 21 10 3 21 17 24 30 3 13 15 26 26 30 11 3 19 9 19 13 -3 20 3 30 22
35 11 3 23 15 26 26 3 12 11 21 18 21 8 0 17 9 20 20 10 32 34 24 114 -42z
m-2426 -354 c-31 -57 -37 -79 -40 -143 -7 -125 8 -155 244 -498 35 -50 63 -94
63 -97 0 -3 -6 -6 -14 -6 -17 0 -258 350 -294 428 -23 49 -27 70 -27 147 1 74
5 98 24 135 20 38 68 100 78 100 1 0 -14 -30 -34 -66z m8660 -106 c479 -322
908 -1068 1096 -1906 58 -260 81 -439 88 -712 7 -272 -11 -476 -63 -690 -29
-116 -97 -270 -120 -270 -20 0 -165 73 -222 112 -44 30 -126 95 -162 128 -9 8
-34 31 -55 51 -134 122 -302 321 -410 489 -26 41 -57 88 -68 104 -34 50 -185
348 -222 441 -152 373 -229 727 -242 1106 -16 484 89 911 282 1152 17 20 31
37 33 37 2 0 31 -19 65 -42z m-6480 -661 c165 -176 346 -430 493 -688 70 -124
220 -429 266 -541 36 -89 42 -113 42 -178 0 -63 -4 -85 -30 -141 -56 -117
-116 -164 -314 -241 -129 -50 -139 -52 -230 -52 -88 0 -100 3 -165 34 -38 19
-78 34 -88 35 -47 4 -90 71 -177 275 -180 422 -393 785 -623 1060 -159 191
-296 313 -463 414 -102 61 -121 87 -38 50 101 -45 199 -114 342 -242 48 -42
69 -56 65 -42 -4 15 0 20 16 20 11 0 21 5 21 10 0 6 9 10 19 10 11 0 23 5 26
10 3 6 15 10 26 10 14 0 18 4 13 13 -5 8 -2 7 10 -2 12 -10 20 -11 28 -3 6 6
17 8 24 5 8 -3 14 0 14 7 0 6 4 9 9 6 4 -3 16 3 26 14 10 11 24 16 33 13 11
-5 13 -3 7 7 -6 10 -4 12 8 7 9 -3 19 -2 22 3 3 4 16 7 30 6 13 -2 26 3 29 11
3 8 11 11 17 8 5 -4 17 1 24 11 13 17 16 17 25 4 8 -13 10 -13 10 2 0 12 5 15
16 11 9 -3 19 -2 23 4 10 15 131 52 131 40 0 -6 6 -3 13 8 8 10 19 15 24 12 6
-4 16 0 23 8 7 8 21 15 30 15 10 0 20 4 22 9 2 5 12 11 23 13 11 1 23 8 28 13
4 6 11 4 17 -5 6 -10 10 -11 10 -2 0 6 7 12 16 12 8 0 12 4 9 10 -4 6 4 6 22
-1 15 -5 50 -34 76 -62z m1766 -189 c10 -24 28 -63 39 -88 157 -344 319 -818
442 -1298 66 -254 160 -726 147 -738 -2 -2 -10 31 -17 73 -12 75 -18 103 -61
308 -73 352 -233 907 -344 1200 -15 39 -30 81 -35 95 -8 25 -152 380 -184 453
-9 20 -14 37 -11 37 3 0 14 -19 24 -42z m-2754 -395 c82 -26 117 -50 175 -124
173 -221 376 -575 500 -874 23 -55 56 -131 75 -170 41 -85 119 -425 139 -610
15 -138 18 -160 21 -165 2 -3 5 -37 6 -75 2 -60 0 -70 -14 -67 -10 2 -17 -2
-17 -8 0 -19 -31 -10 -40 13 -6 16 -9 17 -9 5 -1 -24 -17 -31 -34 -13 -9 8
-22 15 -29 15 -7 0 -2 -9 12 -20 14 -11 30 -18 37 -15 7 2 15 1 17 -4 3 -4 18
-6 33 -4 30 4 62 -11 50 -23 -3 -4 -13 -1 -21 5 -8 7 -20 10 -26 6 -19 -12
-62 -16 -55 -5 6 9 1 11 -37 14 -7 1 -16 6 -20 11 -5 6 -8 3 -8 -6 0 -9 -7
-22 -15 -29 -18 -15 -20 1 -3 18 9 9 9 12 -1 12 -8 0 -11 6 -7 16 5 13 1 15
-17 12 -20 -4 -24 -1 -24 21 -1 38 -79 464 -114 621 -136 612 -380 1133 -652
1399 -31 30 -54 58 -51 63 6 10 64 2 129 -19z m6966 11 c25 -30 68 -205 69
-278 0 -38 5 -86 12 -107 6 -22 9 -41 7 -44 -6 -5 -77 19 -89 31 -12 13 -47
156 -59 247 -14 102 -14 103 7 84 29 -27 34 -20 27 33 -7 52 2 63 26 34z
m-852 -106 c23 -60 41 -174 32 -205 -8 -26 -6 -37 10 -57 31 -39 48 -100 48
-169 0 -58 -11 -133 -22 -143 -8 -8 -74 61 -81 86 -4 14 -11 57 -15 95 -4 39
-20 100 -34 137 -23 57 -26 78 -24 156 2 57 8 96 16 106 20 24 60 20 70 -6z
m-6359 -163 c118 -60 197 -136 300 -290 184 -276 331 -680 419 -1150 54 -292
65 -412 65 -745 1 -402 -6 -491 -61 -735 -57 -256 -169 -458 -296 -535 -32
-20 -106 -27 -121 -13 -4 5 -11 8 -14 9 -21 2 -134 68 -167 96 -67 58 -127
119 -129 131 -1 9 -14 26 -29 37 -15 12 -27 27 -27 35 0 7 -7 16 -16 19 -8 3
-12 11 -8 18 5 7 1 9 -14 6 -15 -4 -19 -2 -15 8 3 8 0 14 -7 14 -9 0 -10 3 -1
13 13 16 5 28 -14 21 -8 -3 -12 2 -12 13 1 10 -3 17 -10 16 -7 -2 -10 4 -7 12
4 8 1 15 -5 15 -6 0 -11 5 -11 11 0 5 4 7 10 4 6 -3 7 1 4 9 -3 9 -14 16 -23
16 -14 0 -14 2 -1 10 9 6 10 10 3 10 -6 0 -17 15 -23 34 -6 19 -20 46 -31 60
-11 14 -17 30 -14 36 10 17 -6 34 -17 19 -7 -10 -8 -8 -3 7 3 14 0 24 -9 27
-10 4 -13 15 -10 31 2 15 0 26 -6 26 -6 0 -9 4 -5 9 3 5 -2 16 -10 24 -8 9
-15 22 -15 31 0 8 -9 21 -20 29 -11 8 -17 17 -13 20 3 4 12 2 19 -3 7 -7 6 2
-4 25 -9 19 -20 35 -25 35 -4 0 -5 -5 -1 -12 4 -7 3 -8 -5 -4 -9 6 -9 11 0 22
6 8 8 21 4 31 -5 10 -7 24 -6 32 1 8 -2 10 -10 5 -8 -4 -10 -3 -5 5 12 18 -4
53 -21 47 -9 -4 -13 -1 -10 6 2 7 10 12 16 10 6 -1 11 2 11 8 0 5 -5 10 -10
10 -7 0 -7 7 0 20 9 16 8 22 -4 26 -9 3 -21 4 -28 1 -7 -3 -2 -6 11 -6 13 -1
21 -4 17 -8 -12 -12 -36 -12 -36 0 0 7 -5 5 -10 -3 -6 -9 -10 -10 -10 -3 0 6
9 18 21 26 16 12 19 19 11 34 -5 10 -7 24 -5 31 3 6 -3 12 -14 13 -12 0 -14 2
-4 6 10 4 11 7 1 13 -8 5 -9 13 -4 21 11 18 12 41 2 55 -5 6 -9 23 -10 37 -2
20 -5 23 -15 15 -20 -16 -28 -1 -9 17 17 18 22 55 7 55 -5 0 -8 12 -5 26 6 31
-4 66 -16 59 -5 -3 -6 13 -4 36 4 30 2 39 -7 33 -7 -4 -9 -3 -5 4 3 6 8 24 10
40 2 22 0 29 -10 25 -8 -3 -14 0 -14 6 0 6 7 11 16 11 11 0 14 5 9 18 -14 32
-22 92 -13 92 4 0 6 10 3 23 -4 13 -8 32 -10 43 -2 10 -4 19 -5 19 -3 0 -12
305 -12 400 0 168 14 366 32 465 6 36 14 85 17 110 3 25 9 50 13 55 5 6 12 33
16 60 10 61 9 59 41 135 3 8 5 21 4 28 -1 6 3 12 9 12 5 0 10 7 10 17 0 21 50
123 72 147 10 11 18 24 18 29 0 5 11 20 25 33 14 13 25 27 25 31 0 5 12 17 27
28 14 11 32 26 39 33 7 6 17 12 22 12 5 0 16 7 23 16 19 23 92 13 159 -21z
m9267 -12 c34 -33 83 -158 83 -212 0 -36 37 -195 62 -261 13 -35 23 -98 28
-175 5 -66 14 -140 20 -165 7 -25 10 -78 7 -119 -5 -82 -21 -106 -60 -92 -32
12 -48 82 -57 246 -7 131 -10 147 -50 250 -37 98 -43 123 -49 230 -4 66 -12
129 -18 140 -5 11 -18 49 -27 84 -15 52 -16 68 -5 87 15 29 25 27 66 -13z
m-9907 -1805 c109 -668 295 -1174 542 -1471 86 -104 88 -134 2 -43 -193 206
-366 581 -479 1041 -62 253 -108 545 -85 545 4 0 14 -33 20 -72z"/>
</g>
</svg>
