<?xml version="1.0" standalone="no"?>
<!DOCTYPE svg PUBLIC "-//W3C//DTD SVG 20010904//EN"
 "http://www.w3.org/TR/2001/REC-SVG-20010904/DTD/svg10.dtd">
<svg version="1.0" xmlns="http://www.w3.org/2000/svg"
 width="809.000000pt" height="802.000000pt" viewBox="0 0 809.000000 802.000000"
 preserveAspectRatio="xMidYMid meet">
<metadata>
Created by potrace 1.16, written by Peter Selinger 2001-2019
</metadata>
<g transform="translate(0.000000,802.000000) scale(0.100000,-0.100000)"
fill="#000000" stroke="none">
<path d="M3855 7860 c-1700 -100 -3131 -1282 -3543 -2927 -82 -323 -114 -598
-114 -948 0 -349 33 -625 113 -945 371 -1481 1568 -2601 3071 -2875 232 -42
421 -58 688 -58 263 0 398 10 637 48 1635 263 2935 1563 3198 3198 38 237 48
373 48 632 0 316 -25 561 -89 847 -266 1212 -1122 2240 -2269 2726 -539 228
-1159 336 -1740 302z m550 -501 c627 -63 1205 -288 1705 -665 751 -566 1224
-1391 1336 -2334 24 -196 24 -553 0 -750 -93 -783 -425 -1469 -976 -2020 -551
-551 -1237 -883 -2020 -976 -197 -24 -554 -24 -750 0 -947 113 -1769 585
-2339 1343 -837 1113 -902 2636 -163 3818 684 1095 1933 1712 3207 1584z"/>
<path d="M2475 5936 c-41 -18 -83 -69 -90 -109 -3 -18 -4 -859 -3 -1869 l3
-1837 21 -28 c11 -15 36 -38 54 -51 l34 -22 552 2 c540 3 553 3 580 24 15 11
37 33 48 48 l21 27 0 1863 0 1863 -29 37 c-51 68 -37 66 -628 66 -421 -1 -539
-4 -563 -14z"/>
<path d="M4545 5936 c-38 -17 -60 -42 -80 -89 -13 -32 -15 -242 -15 -1865 l0
-1828 23 -44 c12 -24 35 -53 50 -64 28 -21 41 -21 581 -24 l552 -2 34 22 c19
13 45 39 57 57 l23 34 0 1852 0 1852 -22 33 c-13 18 -36 43 -51 54 -28 21 -38
21 -575 23 -439 2 -553 0 -577 -11z"/>
</g>
</svg>
