<?xml version="1.0" standalone="no"?>
<!DOCTYPE svg PUBLIC "-//W3C//DTD SVG 20010904//EN"
 "http://www.w3.org/TR/2001/REC-SVG-20010904/DTD/svg10.dtd">
<svg version="1.0" xmlns="http://www.w3.org/2000/svg"
 width="222.000000pt" height="214.000000pt" viewBox="0 0 222.000000 214.000000"
 preserveAspectRatio="xMidYMid meet">
<metadata>
Created by potrace 1.16, written by Peter Selinger 2001-2019
</metadata>
<g transform="translate(0.000000,214.000000) scale(0.100000,-0.100000)"
fill="#ffffff" stroke="none">
<path d="M1377 2121 c-158 -63 -245 -210 -204 -343 9 -27 70 -126 154 -245 76
-109 165 -234 196 -279 l56 -80 -287 -191 c-158 -105 -356 -235 -439 -290
l-153 -100 -120 158 -119 157 33 6 c47 9 144 74 189 126 55 65 80 139 75 225
-17 264 -339 404 -575 250 -98 -65 -183 -215 -183 -325 0 -90 71 -195 165
-246 19 -10 35 -26 35 -35 0 -8 48 -81 108 -161 190 -257 505 -673 512 -676 8
-3 80 37 360 199 118 69 380 219 582 335 202 115 368 213 368 218 0 11 0 11
-314 416 l-236 305 55 16 c190 57 292 214 240 370 -22 67 -88 134 -170 175
-54 26 -71 29 -170 31 -89 2 -119 -1 -158 -16z m260 -97 c66 -38 123 -126 123
-189 0 -35 -13 -31 -32 9 -65 134 -211 175 -354 97 -32 -17 -63 -31 -70 -31
-15 0 -25 25 -18 45 7 18 88 70 140 90 56 21 156 11 211 -21z m-1185 -564
c129 -40 278 -180 278 -262 0 -28 -2 -27 -43 24 -50 62 -122 113 -180 129 -60
16 -191 6 -262 -20 -33 -12 -67 -24 -76 -27 -21 -7 -41 39 -30 68 12 31 59 74
101 92 49 21 136 20 212 -4z m1302 -451 c-63 -69 -102 -102 -182 -155 -81 -54
-138 -86 -481 -269 -91 -48 -193 -105 -228 -126 -35 -22 -66 -39 -70 -39 -27
0 195 184 340 282 79 54 615 336 641 337 6 1 -3 -13 -20 -30z"/>
</g>
</svg>
