<?xml version="1.0" standalone="no"?>
<!DOCTYPE svg PUBLIC "-//W3C//DTD SVG 20010904//EN"
 "http://www.w3.org/TR/2001/REC-SVG-20010904/DTD/svg10.dtd">
<svg version="1.0" xmlns="http://www.w3.org/2000/svg"
 width="852.000000pt" height="1200.000000pt" viewBox="0 0 852.000000 1200.000000"
 preserveAspectRatio="xMidYMid meet">
<metadata>
Created by potrace 1.16, written by Peter Selinger 2001-2019
</metadata>
<g transform="translate(0.000000,1200.000000) scale(0.100000,-0.100000)"
fill="#000000" stroke="none">
<path d="M169 11967 c-24 -18 -53 -51 -64 -72 -11 -22 -24 -43 -29 -46 -5 -4
-6 -16 -3 -28 3 -12 1 -21 -4 -21 -5 0 -9 -143 -9 -340 0 -187 3 -340 8 -340
4 0 3 -402 -1 -892 -4 -520 -4 -894 1 -896 5 -1 7 -14 4 -27 -2 -14 0 -25 5
-25 5 0 15 -17 22 -37 7 -21 25 -50 39 -66 53 -56 67 -57 751 -57 678 1 668 0
734 56 73 62 69 -24 67 1393 -1 1255 -3 1331 -33 1331 -6 0 -8 2 -5 5 3 3 -13
25 -36 48 l-41 42 -681 3 -682 2 -43 -33z m1371 -832 l0 -605 -670 0 -670 0 0
605 0 605 670 0 670 0 0 -605z m-510 -875 c36 -11 78 -30 94 -42 81 -64 156
-131 151 -136 -2 -3 2 -10 10 -16 9 -6 29 -49 45 -96 41 -118 41 -212 0 -330
-16 -47 -37 -90 -47 -97 -9 -7 -13 -13 -7 -13 11 0 -67 -75 -121 -115 -22 -16
-42 -33 -45 -37 -3 -4 -37 -19 -75 -34 -134 -51 -279 -32 -403 53 -64 44 -160
147 -168 180 -4 13 -10 23 -16 23 -5 0 -6 5 -3 10 3 6 2 10 -3 10 -15 0 -42
87 -49 155 -21 222 185 469 422 505 65 10 134 3 215 -20z"/>
<path d="M932 11518 c-9 -9 -12 -81 -12 -264 l0 -252 -34 -6 c-19 -4 -55 -18
-79 -31 -43 -25 -136 -116 -157 -154 -15 -29 -12 -77 6 -95 8 -9 12 -16 7 -16
-4 0 9 -11 29 -25 20 -14 46 -25 58 -25 53 0 151 74 186 140 17 31 19 64 22
265 4 281 12 299 87 204 22 -28 45 -63 52 -79 7 -17 22 -32 37 -36 80 -20 86
28 17 142 -28 45 -51 87 -51 93 0 6 -4 11 -10 11 -5 0 -10 7 -10 15 0 8 -4 15
-10 15 -5 0 -10 7 -10 15 0 8 -5 15 -12 15 -6 0 -9 2 -6 5 3 3 -8 21 -25 40
-31 36 -64 44 -85 23z"/>
<path d="M800 10061 c-78 -24 -146 -87 -175 -164 -22 -57 -17 -165 10 -217 83
-166 305 -201 436 -70 105 105 105 275 0 380 -69 69 -181 98 -271 71z m150
-243 c0 -4 7 -8 15 -8 8 0 15 -4 15 -10 0 -5 -7 -10 -15 -10 -8 0 -15 -4 -15
-8 0 -5 -31 -25 -70 -45 l-70 -36 0 99 0 99 70 -36 c39 -20 70 -40 70 -45z"/>
<path d="M3606 11946 c-45 -17 -104 -71 -112 -103 -4 -13 -10 -23 -15 -23 -5
0 -9 -129 -9 -295 l0 -295 165 0 165 0 0 -45 0 -45 -165 0 -165 0 0 -110 0
-110 165 0 165 0 0 -40 0 -40 -165 0 -166 0 3 -112 3 -113 163 -3 162 -2 0
-40 0 -40 -165 0 -165 0 0 -260 0 -261 34 -53 c24 -38 47 -60 79 -75 44 -22
51 -22 464 -19 l419 3 42 28 c23 15 52 46 64 70 22 40 23 54 26 305 l3 262
-165 0 -166 0 0 40 0 40 165 0 165 0 0 115 0 115 -165 0 -165 0 0 40 0 40 165
0 165 0 0 110 0 110 -165 0 -165 0 0 45 0 45 166 0 166 0 -4 293 c-3 318 -4
322 -65 378 -59 55 -48 54 -483 56 -328 2 -412 0 -444 -11z"/>
<path d="M7660 11804 c-78 -28 -219 -118 -220 -142 0 -7 -7 -15 -15 -18 -8 -3
-24 -26 -35 -50 -90 -184 -53 -415 82 -520 28 -21 58 -47 67 -57 9 -10 45 -27
80 -37 127 -40 334 -15 386 45 6 6 32 29 58 50 60 48 90 100 112 193 29 120 9
267 -50 358 -28 45 -113 114 -182 149 -52 27 -68 30 -163 32 -58 1 -112 0
-120 -3z m254 -85 c75 -35 158 -122 184 -192 30 -79 30 -204 1 -281 -28 -77
-96 -148 -177 -188 -60 -30 -75 -33 -157 -33 -82 0 -97 3 -157 33 -81 40 -149
111 -177 188 -29 77 -29 202 1 281 34 93 142 188 243 214 57 15 186 3 239 -22z"/>
<path d="M7695 11731 c-103 -28 -200 -103 -241 -188 -40 -81 -45 -203 -13
-288 28 -75 106 -155 186 -193 48 -22 72 -27 138 -27 101 0 172 31 249 107 74
75 99 143 94 259 -7 141 -65 231 -196 301 -56 30 -161 44 -217 29z"/>
<path d="M7296 11034 c-3 -9 -6 -27 -6 -40 0 -13 -5 -24 -11 -24 -7 0 -9 -10
-7 -25 3 -14 1 -25 -5 -25 -5 0 -7 -11 -5 -25 3 -13 2 -26 -2 -27 -13 -5 -170
-839 -170 -902 0 -14 -4 -26 -10 -26 -5 0 -10 -25 -10 -55 0 -30 5 -55 10 -55
6 0 10 -12 10 -27 0 -16 12 -71 26 -123 14 -52 28 -127 31 -166 10 -125 -23
-174 -120 -174 -36 0 -55 8 -101 42 -31 23 -56 46 -56 52 0 6 -8 16 -18 23
-33 20 -64 102 -65 168 0 60 36 193 56 206 5 4 6 12 3 18 -4 6 -2 11 4 11 7 0
10 7 6 15 -3 8 -2 15 3 15 4 0 19 30 34 68 54 142 86 230 112 307 15 44 32 83
38 86 5 4 6 12 3 18 -4 6 -3 11 2 11 15 0 52 173 52 245 0 77 -24 133 -61 142
-10 3 -19 9 -19 13 0 13 -55 28 -130 36 -84 8 -91 -5 -27 -51 102 -74 136
-179 98 -307 -29 -95 -72 -198 -83 -198 -5 0 -7 -4 -4 -9 4 -5 3 -11 -2 -13
-18 -8 -182 -450 -182 -492 0 -9 -4 -16 -10 -16 -6 0 -10 -42 -10 -105 0 -58
3 -105 8 -105 4 0 18 -29 30 -64 25 -68 83 -145 130 -169 41 -22 115 -59 134
-69 22 -10 112 -11 122 0 4 4 23 12 42 17 38 11 209 156 229 195 8 14 31 44
53 67 22 23 37 45 34 48 -3 3 0 5 6 5 7 0 12 6 12 14 0 8 4 16 8 18 7 3 62
118 132 276 13 28 28 52 33 52 5 0 7 7 3 15 -3 8 -1 15 5 15 6 0 7 5 4 10 -3
6 -2 10 3 10 5 0 15 15 22 33 7 17 27 68 45 112 19 44 51 121 71 170 21 50 41
92 46 93 4 2 6 8 2 13 -3 5 0 9 5 9 6 0 11 6 11 13 0 6 20 59 44 117 102 243
116 279 116 299 0 22 4 21 -300 106 -91 25 -172 49 -181 54 -16 9 -217 71
-230 71 -4 0 -10 -7 -13 -16z"/>
<path d="M3190 10563 c0 -391 2 -435 20 -508 23 -93 39 -135 52 -135 5 0 6 -4
3 -10 -3 -5 -1 -10 5 -10 6 0 8 -4 5 -10 -3 -5 -2 -10 3 -10 4 0 18 -20 30
-44 34 -68 97 -141 152 -176 28 -18 50 -35 50 -39 0 -28 206 -104 329 -121
122 -18 386 -8 484 19 78 20 203 75 222 97 6 6 21 18 33 27 13 8 55 45 93 81
58 56 78 84 124 179 30 62 56 123 57 137 2 14 8 28 13 32 6 5 11 174 13 463
l3 455 -126 0 -125 0 0 -55 0 -55 40 0 40 0 0 -332 c0 -321 -9 -455 -32 -469
-6 -4 -7 -12 -4 -18 4 -6 2 -11 -3 -11 -6 0 -11 -5 -11 -11 0 -23 -51 -117
-86 -158 -79 -91 -211 -168 -345 -198 -102 -24 -310 -23 -399 1 -83 22 -198
73 -229 100 -67 58 -150 141 -146 145 3 2 -2 9 -10 15 -8 6 -27 45 -42 86
l-28 75 -3 388 -3 387 31 0 c30 0 30 0 30 55 l0 55 -120 0 -120 0 0 -427z"/>
<path d="M3960 9290 l0 -160 -245 0 -246 0 3 -62 3 -63 563 -3 562 -2 0 65 0
65 -240 0 -240 0 0 160 0 160 -80 0 -80 0 0 -160z"/>
<path d="M4826 8744 c-14 -13 -16 -47 -16 -221 l0 -205 -30 -35 -30 -34 0
-217 c0 -199 2 -220 20 -249 11 -18 24 -33 30 -33 7 0 10 -205 10 -612 0 -337
4 -619 9 -626 12 -19 87 -28 106 -12 13 11 15 91 15 627 l0 614 26 22 c36 31
43 79 44 268 0 197 -4 221 -41 259 l-29 28 0 209 c0 149 -3 212 -12 221 -17
17 -84 15 -102 -4z"/>
<path d="M5226 8744 c-14 -13 -16 -66 -16 -426 l0 -410 -30 -35 -30 -34 0
-215 c0 -223 6 -263 45 -277 13 -6 15 -57 15 -414 0 -224 4 -414 9 -421 12
-19 87 -28 106 -12 13 11 15 69 15 422 l0 409 26 22 c36 31 43 79 44 268 0
197 -4 221 -41 259 l-29 28 0 414 c0 309 -3 417 -12 426 -17 17 -84 15 -102
-4z"/>
<path d="M5622 8748 c-9 -9 -12 -160 -12 -618 l0 -607 -25 -23 c-38 -35 -45
-79 -45 -265 0 -186 7 -230 45 -265 l25 -23 0 -217 c0 -155 3 -219 12 -228 19
-19 82 -15 101 6 15 16 17 47 17 230 0 210 0 211 24 235 34 34 38 64 34 295
l-3 204 -27 23 -28 24 0 605 c0 674 4 636 -69 636 -20 0 -42 -5 -49 -12z"/>
<path d="M6026 8744 c-14 -13 -16 -66 -16 -425 l0 -410 -27 -24 -28 -23 -3
-231 -3 -231 30 -31 31 -31 0 -406 c0 -224 4 -413 9 -420 12 -19 87 -28 106
-12 13 11 15 69 15 423 l0 411 26 27 c37 38 43 82 44 277 0 183 -7 219 -49
256 -21 19 -21 23 -21 431 0 306 -3 414 -12 423 -17 17 -84 15 -102 -4z"/>
<path d="M6426 8744 c-14 -13 -16 -48 -16 -225 0 -135 -4 -209 -10 -209 -6 0
-19 -15 -30 -32 -18 -30 -20 -51 -20 -250 l0 -217 30 -34 30 -35 0 -608 c0
-335 4 -615 9 -622 12 -19 87 -28 106 -12 13 11 15 91 15 628 l0 616 26 27
c37 38 43 82 44 277 0 183 -7 219 -49 256 -20 18 -21 27 -21 226 0 147 -3 209
-12 218 -17 17 -84 15 -102 -4z"/>
<path d="M1720 8364 c-63 -8 -227 -44 -292 -65 -76 -24 -259 -108 -273 -124
-5 -7 -39 -30 -75 -51 -92 -54 -171 -120 -275 -227 -103 -108 -145 -156 -145
-168 0 -5 -4 -9 -9 -9 -11 0 -78 -98 -125 -182 -20 -38 -42 -68 -47 -68 -6 0
-7 -4 -4 -10 3 -5 2 -10 -3 -10 -21 0 -182 -411 -182 -465 0 -8 -5 -15 -11
-15 -6 0 -9 -9 -6 -20 3 -11 1 -20 -5 -20 -6 0 -8 -9 -5 -20 3 -11 2 -20 -3
-20 -4 0 -10 -17 -14 -37 -45 -259 -60 -497 -46 -743 5 -99 12 -190 16 -204 5
-22 1 -25 -48 -36 -58 -14 -109 -37 -120 -54 -13 -19 -9 -88 9 -166 9 -41 20
-77 24 -80 3 -3 25 -85 48 -182 25 -106 49 -182 58 -190 17 -14 89 -17 140 -6
28 6 32 4 38 -20 3 -14 20 -56 37 -92 26 -55 41 -73 102 -119 81 -61 144 -93
231 -116 111 -29 177 -3 272 105 105 121 127 212 127 535 1 237 -17 378 -70
564 -13 46 -21 88 -18 92 3 5 1 9 -4 9 -4 0 -18 24 -31 54 -23 57 -97 150
-111 141 -4 -3 -11 2 -14 11 -3 8 -10 12 -16 9 -5 -3 -10 -2 -10 4 0 6 -7 8
-15 5 -8 -4 -15 -2 -15 2 0 13 -167 17 -175 4 -3 -5 -14 -10 -23 -10 -9 0 -61
-21 -114 -47 -54 -25 -101 -43 -104 -40 -25 25 0 391 28 408 6 4 8 14 5 23 -4
9 -2 16 4 16 6 0 9 7 5 15 -3 8 -2 15 3 15 5 0 12 16 16 36 14 79 144 354 166
354 6 0 7 5 4 10 -3 6 1 13 9 16 9 3 16 11 16 16 0 18 94 132 180 219 163 165
361 290 583 368 49 17 97 31 107 31 10 0 20 4 22 9 6 19 202 43 343 43 134 -1
294 -21 333 -42 9 -5 62 -23 117 -41 118 -37 298 -126 345 -169 10 -8 48 -37
85 -65 38 -27 87 -68 109 -90 92 -91 189 -195 181 -195 -4 0 2 -8 13 -17 26
-24 126 -187 147 -240 10 -24 21 -43 26 -43 5 0 6 -7 3 -15 -4 -8 -1 -15 6
-15 6 0 8 -4 5 -10 -3 -5 -2 -10 4 -10 13 0 56 -140 77 -246 19 -101 34 -295
27 -356 l-6 -48 -27 20 c-33 24 -183 90 -204 90 -8 0 -18 5 -22 11 -4 8 -29 9
-75 5 -48 -5 -69 -4 -69 4 0 6 -5 8 -10 5 -6 -4 -8 -10 -5 -15 3 -4 -14 -15
-37 -25 -121 -48 -183 -164 -243 -461 -69 -339 -56 -692 31 -866 13 -26 28
-49 34 -53 6 -4 8 -10 5 -15 -11 -18 71 -69 163 -100 53 -18 102 -36 107 -40
6 -4 31 -13 58 -20 27 -7 47 -18 47 -26 0 -8 -22 -37 -50 -66 -27 -28 -50 -55
-50 -60 0 -4 -5 -8 -11 -8 -5 0 -37 -26 -69 -59 -95 -94 -311 -190 -427 -191
-18 0 -33 -4 -33 -10 0 -5 -25 -10 -55 -10 -30 0 -55 5 -55 10 0 6 -18 10 -39
10 -21 0 -81 12 -132 26 -272 74 -280 75 -379 31 -73 -33 -95 -58 -94 -111 2
-90 64 -170 151 -196 73 -22 239 -8 413 34 85 20 164 41 175 46 11 5 72 23
135 40 125 34 313 120 370 168 19 17 67 58 107 91 40 34 80 73 90 88 10 14 30
38 44 54 15 15 24 30 21 33 -3 3 3 8 12 12 9 3 16 12 16 20 0 8 4 14 9 14 5 0
13 10 17 23 4 12 10 24 14 27 13 9 87 184 105 248 10 34 22 62 27 62 6 0 8 9
5 20 -3 11 -1 20 4 20 5 0 9 11 9 25 0 25 1 25 55 19 68 -8 101 10 111 61 3
19 11 35 16 35 6 0 8 9 5 20 -3 11 -1 20 5 20 6 0 8 9 5 20 -3 10 -2 20 2 22
12 5 91 354 91 400 0 59 -26 83 -114 104 l-72 17 10 61 c5 34 10 192 10 351 1
233 -3 312 -17 405 -32 205 -97 450 -118 450 -6 0 -8 4 -5 9 3 5 -1 21 -8 37
-8 16 -35 76 -61 134 -48 107 -122 240 -134 240 -3 0 -12 12 -18 28 -7 15 -37
60 -68 100 -30 40 -55 75 -55 78 0 3 -55 60 -123 127 -117 116 -270 237 -329
261 -16 6 -28 14 -28 18 0 9 -82 51 -142 73 -251 92 -323 107 -548 110 -96 2
-191 1 -210 -1z m298 -214 c207 -22 371 -81 540 -194 81 -55 163 -118 158
-123 -1 -2 -47 17 -102 41 -54 24 -142 56 -194 71 -52 15 -99 31 -105 35 -51
38 -470 64 -649 40 -95 -12 -157 -25 -191 -39 -11 -5 -65 -23 -120 -40 -55
-18 -138 -47 -185 -66 l-85 -35 45 40 c60 54 200 146 265 176 99 46 247 82
395 97 70 7 137 6 228 -3z m-1126 -2049 c113 -127 187 -447 160 -693 -6 -57
-19 -132 -28 -168 -20 -79 -73 -192 -88 -187 -24 7 -116 163 -140 236 -51 158
-61 224 -61 416 1 154 4 192 23 262 30 111 62 183 82 183 5 0 28 -22 52 -49z
m2093 -20 c97 -194 92 -569 -11 -835 -36 -90 -87 -176 -104 -176 -6 0 -9 -3
-7 -7 1 -5 -3 -10 -8 -12 -19 -8 -64 84 -91 184 -24 89 -27 118 -28 270 -1
276 43 437 164 603 36 51 47 47 85 -27z m-2736 -537 c17 -95 31 -178 31 -185
0 -7 -13 0 -29 15 -44 42 -74 120 -75 196 -1 67 21 167 34 153 4 -4 22 -85 39
-179z m3379 61 c6 -76 -16 -154 -58 -212 -28 -38 -61 -57 -60 -35 1 9 44 209
59 272 6 25 14 56 17 70 l6 25 15 -29 c9 -17 18 -57 21 -91z"/>
<path d="M830 5895 c-55 -66 -51 -346 6 -483 30 -73 101 -96 129 -43 61 118
29 445 -50 525 -20 20 -69 21 -85 1z m73 -23 c43 -48 84 -254 72 -362 -3 -30
-13 -77 -23 -103 -21 -61 -48 -61 -76 -2 -10 22 -22 41 -26 43 -4 2 -6 12 -3
22 3 11 0 20 -6 20 -5 0 -8 7 -4 16 3 9 0 20 -8 25 -20 12 -20 286 0 298 7 5
10 14 7 20 -4 6 -2 11 3 11 6 0 10 3 10 8 -5 28 30 31 54 4z"/>
<path d="M855 5734 c-14 -14 -16 -32 -13 -102 2 -54 7 -87 15 -89 7 -3 10 -10
7 -17 -3 -7 7 -18 22 -25 23 -10 30 -9 43 4 21 21 22 167 0 210 -17 35 -49 43
-74 19z"/>
<path d="M2883 5898 c-13 -6 -23 -15 -23 -20 0 -5 -6 -16 -14 -23 -27 -28 -51
-155 -51 -280 0 -138 8 -188 36 -216 29 -29 74 -25 97 9 65 95 93 380 47 490
-23 53 -45 63 -92 40z m61 -30 c37 -57 43 -234 14 -358 -18 -74 -59 -150 -81
-150 -10 0 -21 9 -24 20 -3 11 -10 20 -16 20 -6 0 -7 3 -4 7 4 3 1 13 -6 21
-18 23 -17 280 2 291 8 5 11 16 8 25 -4 9 -3 16 2 16 5 0 13 19 19 43 11 41
43 87 62 87 5 0 16 -10 24 -22z"/>
<path d="M2875 5740 c3 -5 1 -10 -5 -10 -6 0 -9 -4 -6 -9 4 -5 1 -11 -5 -13
-13 -4 -24 -123 -15 -171 7 -35 32 -52 62 -40 23 9 47 109 41 174 -6 72 -11
79 -48 79 -18 0 -28 -4 -24 -10z"/>
<path d="M4837 5801 l-42 -40 0 -1414 c0 -1401 0 -1415 20 -1437 47 -52 -46
-50 1843 -50 1896 0 1814 -2 1842 49 11 21 15 2827 4 2867 -3 12 -23 31 -44
43 l-38 21 -1771 0 -1772 0 -42 -39z m3113 -40 c92 -26 145 -55 208 -115 57
-53 112 -122 112 -139 0 -6 -13 9 -28 34 -33 51 -97 109 -162 147 -25 14 -52
31 -60 37 -30 24 -137 45 -226 45 -137 0 -226 -33 -343 -128 -55 -45 -136
-168 -157 -238 -18 -61 -23 -184 -11 -264 5 -30 6 -52 3 -49 -17 16 -27 156
-17 232 26 196 178 377 369 438 78 25 226 25 312 0z m-65 -61 c3 -5 17 -10 29
-10 45 0 161 -68 218 -128 63 -66 91 -116 113 -199 27 -103 12 -240 -37 -337
-24 -48 -99 -129 -153 -166 -92 -63 -263 -88 -385 -56 -50 14 -56 13 -67 -1
-23 -30 -14 -41 51 -58 90 -24 268 -17 345 14 159 65 282 212 312 376 16 85 6
228 -20 294 -11 30 -19 57 -17 59 2 2 14 -23 26 -55 27 -70 37 -212 21 -297
-32 -170 -167 -331 -326 -386 -33 -12 -68 -26 -77 -31 -20 -10 -211 -12 -221
-2 -4 3 -39 16 -77 29 -89 28 -156 71 -220 141 -47 51 -110 157 -110 183 0 6
16 -18 34 -55 35 -66 92 -145 105 -145 3 0 12 14 19 32 10 28 9 35 -12 62 -21
29 -68 112 -72 129 -1 4 -3 10 -4 15 -2 4 -4 12 -5 17 -1 6 -5 18 -10 28 -4 9
-5 61 -3 115 5 106 26 167 88 257 43 63 137 130 208 150 31 8 64 20 72 25 20
12 167 12 175 0z m-1370 -236 c342 -59 621 -256 815 -575 50 -82 57 -99 42
-99 -5 0 -23 31 -40 70 -69 147 -222 316 -382 422 -109 71 -145 89 -255 126
-200 68 -454 82 -665 37 -166 -35 -262 -75 -388 -162 -37 -26 -85 -59 -107
-74 -143 -98 -328 -384 -375 -579 -11 -47 -26 -95 -32 -107 -6 -12 -8 -31 -5
-42 3 -12 1 -24 -4 -27 -12 -7 -12 -311 0 -318 5 -3 7 -15 4 -27 -3 -11 -1
-30 5 -42 6 -12 21 -60 32 -107 25 -104 134 -331 184 -382 20 -21 36 -41 36
-45 0 -19 151 -154 235 -211 221 -148 403 -203 670 -204 338 -1 595 99 828
321 130 124 167 180 280 421 58 123 72 207 72 425 0 110 -3 216 -7 235 -7 30
-6 32 4 15 17 -29 23 -335 9 -434 -14 -93 -62 -254 -98 -326 -109 -216 -326
-441 -523 -540 -188 -95 -438 -149 -630 -138 -41 3 -84 8 -95 13 -11 5 -51 14
-90 21 -142 24 -332 107 -450 196 -102 77 -232 213 -290 302 -25 38 -45 72
-45 75 0 3 -21 48 -46 98 -25 51 -58 136 -72 188 -25 89 -27 107 -26 305 0
194 2 217 26 305 35 126 139 335 216 430 185 231 401 366 677 425 136 29 352
33 490 9z m55 -127 c234 -62 477 -237 619 -446 47 -69 111 -199 111 -226 0 -9
-25 -60 -56 -113 -31 -53 -62 -108 -70 -122 -38 -66 -162 -274 -209 -350 -28
-47 -61 -101 -71 -120 -10 -19 -22 -36 -25 -38 -6 -3 -181 -129 -417 -300
l-101 -73 61 -85 c33 -46 63 -84 67 -84 3 0 70 50 148 110 78 61 144 110 147
110 3 0 64 45 135 101 118 92 131 106 162 167 18 37 53 101 78 142 76 127 201
352 201 361 0 5 5 9 10 9 13 0 14 -217 1 -224 -5 -3 -7 -15 -4 -26 3 -11 0
-26 -6 -34 -7 -8 -11 -20 -10 -28 1 -7 -1 -20 -4 -28 -3 -8 -16 -49 -28 -90
-41 -145 -116 -267 -247 -402 -137 -142 -306 -245 -482 -293 -118 -33 -336
-45 -457 -25 -287 46 -541 205 -714 447 -74 104 -99 154 -137 273 -72 224 -71
474 3 696 39 119 51 144 117 243 100 147 250 283 392 355 212 106 303 127 541
121 120 -2 169 -8 245 -28z"/>
<path d="M7685 5666 c-146 -49 -242 -133 -283 -247 -13 -35 -26 -70 -30 -77
-4 -8 -4 -60 -1 -117 5 -89 10 -112 37 -167 17 -36 40 -72 50 -82 18 -16 20
-15 37 11 17 26 17 28 -3 67 -100 192 -40 412 140 512 50 27 60 29 163 29 97
0 116 -3 163 -25 28 -14 52 -28 52 -33 0 -4 11 -12 24 -17 13 -5 30 -20 38
-33 11 -21 59 -116 77 -155 3 -8 3 -55 0 -106 -5 -79 -11 -101 -39 -155 -37
-69 -81 -111 -150 -142 -25 -12 -55 -26 -67 -32 -31 -14 -171 -13 -185 1 -18
18 -55 14 -61 -5 -2 -10 -8 -26 -12 -35 -5 -14 4 -20 51 -34 87 -25 200 -16
288 23 65 29 165 106 166 128 0 6 11 22 24 36 12 14 34 52 46 84 33 82 33 224
2 305 -43 110 -144 209 -256 253 -65 25 -214 33 -271 13z"/>
<path d="M7695 5510 c-89 -43 -114 -69 -157 -159 -26 -56 -28 -149 -3 -208 9
-24 21 -43 25 -43 8 0 81 124 141 237 18 34 43 75 55 90 l22 28 66 -35 c36
-19 66 -41 66 -47 0 -14 -72 -153 -119 -230 -74 -121 -91 -157 -79 -165 22
-15 170 -4 210 16 49 23 103 77 130 129 32 59 32 194 1 252 -27 52 -75 97
-137 129 -63 33 -160 36 -221 6z"/>
<path d="M6180 4841 c-113 -22 -242 -98 -313 -184 -37 -46 -112 -177 -101
-177 4 0 1 -7 -6 -15 -7 -8 -9 -15 -5 -15 4 0 1 -7 -6 -17 -16 -19 -20 -235
-5 -268 5 -11 10 -24 10 -30 1 -5 18 -45 40 -89 185 -379 730 -414 968 -61 69
101 105 293 79 415 -19 89 -62 188 -98 225 -18 19 -33 38 -33 44 0 14 -89 84
-140 110 -87 45 -152 62 -250 66 -52 2 -115 0 -140 -4z m239 -170 c34 -11 76
-30 94 -43 18 -14 40 -27 49 -31 9 -3 25 -19 35 -34 10 -15 20 -30 24 -33 3
-3 19 -32 35 -65 27 -55 29 -69 29 -170 0 -104 -2 -114 -33 -177 -32 -66 -85
-138 -103 -138 -4 0 -30 -13 -55 -30 -26 -16 -63 -33 -81 -36 -18 -3 -36 -10
-39 -15 -7 -12 -161 -12 -168 0 -3 5 -21 12 -40 15 -85 16 -208 130 -251 231
-26 63 -31 183 -10 261 32 120 135 227 254 265 75 24 183 24 260 0z"/>
<path d="M6225 4365 c-19 -18 -25 -35 -25 -70 0 -63 31 -95 94 -95 37 0 48 5
70 31 17 20 26 42 26 66 0 80 -109 125 -165 68z"/>
<path d="M2483 3415 c-16 -17 -17 -35 -3 -35 6 0 10 -8 10 -17 0 -10 17 -45
38 -78 20 -34 48 -82 62 -109 14 -26 33 -56 43 -66 9 -11 17 -23 17 -28 0 -5
11 -21 25 -36 l25 -27 -35 -43 c-46 -56 -65 -114 -65 -195 0 -87 10 -100 83
-108 71 -7 91 7 113 85 34 114 -3 217 -153 439 -20 29 -33 59 -30 67 5 14 12
14 59 0 29 -8 60 -24 70 -35 21 -25 63 -24 88 1 11 11 20 23 20 26 0 13 -33
34 -162 102 -137 72 -182 84 -205 57z"/>
<path d="M2205 3256 c-11 -7 -38 -48 -60 -90 -21 -42 -47 -85 -57 -96 -11 -11
-15 -20 -11 -20 4 0 1 -6 -8 -13 -8 -7 -25 -32 -38 -57 -12 -25 -30 -55 -39
-68 -16 -20 -21 -21 -51 -11 -51 18 -148 6 -214 -26 -31 -15 -54 -32 -51 -36
3 -5 0 -9 -5 -9 -6 0 -11 -20 -11 -45 0 -28 5 -45 12 -45 6 0 8 -3 5 -6 -4 -4
3 -15 15 -25 45 -40 197 -12 259 47 15 14 39 50 54 81 16 30 34 57 42 60 7 3
10 9 7 14 -3 5 0 9 5 9 6 0 11 7 11 15 0 8 4 15 10 15 5 0 12 11 16 25 3 14
10 25 14 25 4 0 11 10 14 23 10 37 39 68 55 58 10 -7 15 -33 16 -90 3 -93 14
-113 59 -109 l31 3 0 182 c0 100 -2 184 -5 186 -14 15 -57 16 -75 3z"/>
<path d="M3282 2990 c-58 -35 -62 -60 -62 -345 l0 -255 -1480 0 c-847 0 -1488
-4 -1498 -9 -9 -5 -42 -16 -73 -25 -31 -9 -62 -23 -69 -31 -7 -8 -19 -15 -27
-15 -8 0 -12 -4 -8 -9 3 -5 -4 -16 -14 -23 -11 -8 -25 -27 -31 -42 -7 -18 -10
-346 -10 -999 0 -1086 -4 -1020 71 -1086 75 -64 -63 -60 1985 -61 2083 0 1921
-6 2000 70 78 74 76 35 72 1105 l-3 940 -22 45 c-26 52 -104 107 -167 117 -20
3 -39 10 -42 14 -3 5 -99 9 -215 9 l-209 0 0 248 c0 136 -4 262 -10 281 -23
81 -115 115 -188 71z m-42 -990 c294 -47 502 -223 601 -509 11 -30 19 -65 19
-78 0 -12 4 -23 8 -23 5 0 7 -13 4 -30 -3 -18 0 -30 7 -30 7 0 11 -28 11 -80
0 -52 -4 -80 -11 -80 -7 0 -10 -12 -7 -30 3 -17 0 -30 -5 -30 -5 0 -7 -9 -4
-20 3 -11 2 -20 -2 -20 -4 0 -13 -21 -20 -47 -16 -61 -64 -157 -102 -205 -16
-20 -29 -41 -29 -45 0 -23 -139 -129 -250 -190 -119 -67 -300 -97 -435 -74
-72 13 -216 57 -225 69 -9 12 -89 62 -99 62 -19 0 -142 124 -179 179 -20 31
-40 58 -44 59 -5 2 -8 10 -8 18 0 8 -5 14 -11 14 -5 0 -7 5 -4 10 3 6 1 10 -5
10 -6 0 -8 5 -5 10 3 6 2 10 -4 10 -9 0 -42 95 -60 180 -14 59 -14 171 0 246
14 82 48 184 61 184 6 0 9 3 5 6 -3 3 -1 11 4 18 5 6 19 31 32 54 35 70 145
185 230 242 153 102 352 147 527 120z m-1440 -135 c0 -13 -83 -15 -685 -15
-602 0 -685 2 -685 15 0 13 83 15 685 15 602 0 685 -2 685 -15z m0 -190 c0
-13 -83 -15 -685 -15 -602 0 -685 2 -685 15 0 13 83 15 685 15 602 0 685 -2
685 -15z m0 -190 c0 -13 -83 -15 -685 -15 -602 0 -685 2 -685 15 0 13 83 15
685 15 602 0 685 -2 685 -15z m0 -190 c0 -13 -83 -15 -685 -15 -602 0 -685 2
-685 15 0 13 83 15 685 15 602 0 685 -2 685 -15z m0 -190 c0 -13 -83 -15 -685
-15 -602 0 -685 2 -685 15 0 13 83 15 685 15 602 0 685 -2 685 -15z m-1100
-630 l0 -85 -175 0 -175 0 0 85 0 85 175 0 175 0 0 -85z m440 0 l0 -85 -175 0
-175 0 0 85 0 85 175 0 175 0 0 -85z m440 0 l0 -85 -175 0 -175 0 0 85 0 85
175 0 175 0 0 -85z m440 0 l0 -85 -170 0 -170 0 0 85 0 85 170 0 170 0 0 -85z"/>
<path d="M3000 1849 c-30 -5 -86 -25 -125 -44 -70 -34 -209 -138 -199 -148 3
-2 -6 -14 -20 -25 -15 -11 -26 -24 -26 -30 0 -6 -4 -12 -8 -14 -9 -3 -53 -102
-73 -163 -8 -25 -14 -88 -14 -165 0 -103 4 -137 23 -194 24 -73 61 -146 74
-146 4 0 8 -4 8 -9 0 -19 149 -158 191 -178 139 -65 276 -85 416 -60 120 22
203 66 293 157 81 81 114 120 102 120 -4 0 1 7 10 14 25 19 66 150 73 237 4
41 2 109 -4 151 -12 84 -56 207 -77 215 -8 3 -14 11 -14 19 0 19 -115 139
-158 166 -21 12 -39 25 -42 30 -11 15 -102 49 -168 63 -74 16 -177 17 -262 4z
m248 -54 c104 -25 292 -132 292 -167 0 -6 11 -24 26 -40 34 -41 70 -115 85
-172 6 -25 14 -46 18 -46 4 0 5 -16 3 -35 -3 -21 0 -35 7 -35 6 0 11 -17 11
-40 0 -23 -5 -40 -11 -40 -7 0 -10 -14 -7 -35 2 -19 0 -35 -5 -35 -5 0 -7 -9
-4 -20 3 -11 2 -20 -3 -20 -4 0 -11 -11 -14 -25 -32 -126 -167 -277 -302 -336
-138 -61 -320 -58 -450 9 -168 86 -290 252 -316 431 -11 71 -10 94 5 166 19
94 51 175 67 175 6 0 8 5 5 10 -3 6 -1 10 4 10 6 0 11 7 11 15 0 8 9 20 20 27
11 7 20 18 20 25 0 12 84 86 132 116 30 18 122 52 183 66 61 14 153 12 223 -4z"/>
<path d="M3065 1582 c-6 -5 -28 -14 -50 -20 -37 -11 -161 -92 -139 -92 5 0 -3
-11 -18 -25 -36 -33 -53 -92 -53 -185 0 -73 20 -160 37 -160 4 0 8 -4 8 -10 0
-5 12 -22 26 -37 14 -15 33 -36 42 -46 43 -47 169 -83 250 -72 111 15 214 91
252 186 8 19 17 36 21 39 13 9 23 140 12 140 -6 0 -8 11 -5 25 2 14 0 25 -6
25 -5 0 -12 12 -15 28 -15 75 -109 164 -196 185 -28 6 -51 15 -51 19 0 11
-104 10 -115 0z"/>
<path d="M6204 2283 c-12 -2 -34 -18 -50 -34 l-29 -30 -3 -1050 c-3 -1175 -7
-1096 69 -1137 41 -22 41 -22 778 -22 802 0 767 -2 822 56 l24 26 2 1051 c2
823 0 1057 -10 1076 -6 13 -25 34 -40 45 -28 21 -33 21 -785 22 -416 1 -767 0
-778 -3z m1496 -62 c0 -5 9 -12 19 -16 10 -3 24 -18 30 -33 8 -19 11 -308 9
-1039 -3 -956 -4 -1013 -21 -1030 -17 -17 -61 -18 -768 -18 l-751 0 -19 24
c-18 23 -19 54 -19 1040 0 559 4 1022 9 1029 4 8 21 22 37 32 28 18 66 19 752
19 440 1 722 -3 722 -8z"/>
<path d="M6290 2193 c-30 -6 -71 -37 -87 -66 -17 -31 -18 -1914 -1 -1951 6
-14 30 -35 53 -46 40 -19 60 -20 709 -20 729 0 734 0 767 54 18 30 19 72 19
984 0 1046 4 980 -58 1027 -26 20 -44 20 -702 21 -371 1 -686 -1 -700 -3z
m1373 -82 c9 -7 14 -17 11 -22 -3 -5 0 -9 5 -9 8 0 11 -281 11 -925 0 -610 -3
-925 -10 -925 -6 0 -9 -5 -8 -11 2 -6 -10 -20 -27 -29 -28 -17 -71 -19 -680
-19 -626 -1 -651 0 -675 19 l-25 19 -5 935 c-3 515 -2 936 1 936 4 0 9 9 12
19 3 12 16 21 33 24 16 2 324 4 685 3 538 -1 659 -3 672 -15z"/>
<path d="M6870 2085 c-70 -20 -127 -54 -167 -99 -17 -20 -28 -36 -25 -36 4 0
-1 -7 -10 -14 -10 -7 -28 -35 -40 -62 -19 -41 -23 -66 -23 -154 0 -110 18
-180 53 -207 9 -7 14 -13 11 -13 -4 0 20 -27 53 -60 46 -46 73 -64 115 -77
l55 -17 -57 -13 c-121 -28 -254 -121 -324 -228 -14 -22 -30 -43 -36 -47 -7 -5
-7 -8 0 -8 6 0 4 -4 -3 -9 -44 -27 -76 -253 -53 -373 15 -77 32 -128 44 -128
4 0 5 -4 2 -10 -3 -5 -1 -10 5 -10 6 0 9 -4 6 -9 -4 -5 -3 -11 1 -13 11 -5 63
-75 63 -85 0 -33 171 -144 260 -169 30 -9 63 -20 72 -25 23 -12 193 -12 216 0
9 5 37 14 61 21 104 28 271 136 271 176 0 7 9 19 20 26 11 7 20 18 20 25 0 7
4 13 9 13 13 0 57 109 71 177 24 121 -8 360 -55 407 -8 8 -15 19 -15 24 0 6
-7 13 -16 16 -9 4 -15 9 -12 11 2 3 -23 34 -56 70 -67 71 -162 125 -265 150
-31 7 -47 14 -36 14 69 4 207 120 248 209 18 39 22 66 22 162 0 112 -1 117
-34 178 -41 75 -104 135 -176 168 -70 32 -196 41 -275 19z m210 -94 c28 -11
67 -31 86 -46 36 -28 94 -118 94 -147 0 -10 3 -18 8 -18 4 0 7 -27 7 -60 0
-33 -3 -60 -6 -60 -4 0 -12 -20 -19 -45 -17 -60 -78 -128 -146 -161 -49 -24
-63 -26 -138 -22 -67 3 -92 9 -129 31 -167 98 -196 331 -57 466 78 75 199 100
300 62z m66 -721 c115 -40 237 -147 287 -254 15 -31 27 -61 27 -66 0 -6 5 -10
11 -10 5 0 7 -5 3 -11 -3 -6 0 -15 7 -20 11 -6 14 -36 14 -124 0 -88 -3 -118
-14 -124 -7 -5 -10 -14 -7 -20 4 -6 2 -11 -3 -11 -6 0 -11 -6 -11 -13 0 -32
-64 -137 -117 -193 -153 -159 -391 -200 -588 -101 -82 41 -188 145 -225 221
-79 162 -78 312 2 483 56 119 217 237 358 263 66 13 189 3 256 -20z"/>
<path d="M6910 1936 c-78 -29 -89 -36 -113 -68 -71 -94 -59 -253 23 -318 54
-43 101 -60 164 -60 138 0 226 93 226 238 0 101 -58 181 -152 209 -54 16 -103
16 -148 -1z m141 -123 c55 -47 71 -119 32 -150 -8 -6 -14 -15 -13 -19 3 -11
-60 -44 -82 -44 -10 0 -35 8 -57 17 -28 12 -42 26 -51 52 -7 20 -18 39 -24 43
-8 6 -8 8 0 8 7 0 15 15 18 34 15 80 113 112 177 59z"/>
<path d="M6905 1244 c-87 -22 -153 -46 -166 -61 -9 -10 -39 -36 -68 -58 -28
-22 -63 -57 -77 -79 -87 -131 -97 -344 -22 -487 34 -65 124 -157 185 -189 132
-68 337 -66 459 5 99 58 194 187 210 284 4 22 10 41 15 41 11 0 12 167 1 172
-4 2 -16 30 -26 63 -10 33 -29 79 -42 101 -25 45 -118 134 -139 134 -7 0 -15
6 -18 14 -14 37 -236 79 -312 60z m177 -166 c45 -13 130 -76 143 -106 5 -12
13 -22 17 -22 5 0 8 -7 8 -15 0 -8 5 -15 11 -15 5 0 7 -4 4 -10 -3 -5 -1 -10
5 -10 6 0 8 -5 4 -11 -3 -6 0 -15 7 -20 10 -6 14 -30 14 -84 0 -54 -4 -78 -14
-84 -7 -5 -10 -14 -7 -20 4 -6 2 -11 -4 -11 -6 0 -8 -4 -5 -10 3 -5 2 -10 -4
-10 -5 0 -13 -10 -16 -22 -11 -35 -74 -97 -130 -126 -43 -23 -62 -27 -135 -26
-72 0 -93 4 -136 26 -62 32 -102 77 -140 154 -36 75 -39 175 -6 242 79 164
216 228 384 180z"/>
<path d="M6910 981 c0 -5 -10 -13 -22 -16 -29 -9 -76 -52 -92 -85 -21 -40 -26
-99 -14 -153 18 -86 108 -157 198 -157 73 0 153 49 187 114 10 19 17 57 17 96
1 84 -28 139 -96 180 -41 25 -59 30 -113 30 -36 0 -65 -4 -65 -9z"/>
<path d="M4913 1605 c-18 -8 -42 -29 -53 -47 -20 -32 -20 -45 -18 -758 l3
-725 39 -37 39 -38 532 0 532 0 31 29 c16 16 28 32 24 35 -3 3 0 6 6 6 9 0 12
182 12 735 0 553 -3 735 -12 735 -6 0 -9 3 -6 6 9 9 -36 52 -66 64 -18 6 -205
10 -529 10 -408 -1 -508 -3 -534 -15z m1068 -74 c10 -13 19 -32 19 -42 0 -16
-5 -13 -29 13 l-29 33 -471 3 c-524 3 -529 2 -556 -60 l-14 -33 -1 28 c0 19
10 39 30 58 l29 30 501 -3 502 -3 19 -24z m-50 -60 l29 -29 0 -635 c0 -627 0
-635 -21 -661 l-20 -26 -465 0 c-526 0 -496 -5 -509 82 -3 24 -5 313 -3 644 3
644 2 624 53 644 11 5 219 9 463 9 l444 1 29 -29z m-994 -1365 l26 -26 486 0
c526 0 519 -1 541 54 8 19 9 19 9 -6 1 -16 -8 -37 -19 -48 -19 -19 -33 -20
-529 -20 l-510 0 -20 26 c-12 16 -20 40 -20 58 1 22 3 25 6 9 2 -12 16 -33 30
-47z"/>
<path d="M5345 1456 c-55 -25 -119 -90 -141 -142 -23 -54 -18 -170 10 -229 24
-53 80 -109 129 -130 l30 -12 -39 -13 c-107 -35 -179 -94 -225 -182 -13 -27
-28 -48 -33 -48 -4 0 -6 -6 -3 -14 3 -8 1 -16 -5 -18 -15 -5 -24 -198 -10
-198 6 0 9 -7 6 -15 -10 -26 56 -145 111 -200 29 -29 79 -66 112 -81 54 -27
67 -29 173 -29 106 0 120 2 172 28 31 15 81 52 110 81 56 55 124 176 114 201
-3 8 0 15 6 15 14 0 5 193 -10 198 -6 2 -8 10 -5 18 3 8 1 14 -3 14 -5 0 -20
21 -33 48 -46 88 -118 147 -225 182 l-39 13 30 12 c94 39 153 137 153 253 0
85 -14 124 -67 182 -53 60 -121 90 -203 90 -47 0 -79 -7 -115 -24z m183 -62
c106 -44 159 -161 117 -262 -69 -163 -301 -163 -370 0 -31 76 -11 160 52 220
58 55 132 71 201 42z m77 -523 c61 -28 130 -91 167 -152 10 -17 26 -59 35 -92
41 -164 -49 -347 -202 -407 -84 -34 -206 -34 -290 0 -164 65 -252 269 -192
446 35 101 153 206 263 233 61 16 151 4 219 -28z"/>
<path d="M5380 1352 c-54 -27 -80 -74 -80 -146 0 -44 6 -70 20 -94 24 -38 89
-72 140 -72 51 0 116 34 140 72 29 48 28 143 -3 189 -29 43 -80 69 -137 69
-25 0 -61 -8 -80 -18z m135 -87 c37 -36 34 -86 -6 -119 -17 -14 -39 -26 -49
-26 -10 0 -32 12 -49 26 -24 20 -31 34 -31 60 0 45 37 84 80 84 19 0 40 -9 55
-25z"/>
<path d="M5377 870 c-59 -15 -108 -45 -154 -92 -107 -110 -123 -293 -37 -425
33 -52 50 -64 134 -103 25 -12 53 -25 62 -30 23 -13 133 -13 156 0 9 5 37 18
62 30 84 39 101 51 134 103 62 95 72 227 26 334 -26 62 -101 136 -166 164 -51
23 -162 33 -217 19z m169 -131 c52 -25 103 -80 111 -120 3 -16 8 -29 12 -29 3
0 6 -22 6 -50 0 -27 -4 -50 -8 -50 -5 0 -5 -4 -2 -10 3 -5 2 -10 -4 -10 -5 0
-13 -10 -17 -22 -10 -33 -64 -88 -101 -104 -42 -18 -125 -18 -166 0 -39 18
-77 50 -77 65 0 6 -4 11 -9 11 -5 0 -12 11 -15 25 -4 14 -11 25 -17 25 -6 0
-7 5 -4 10 3 6 3 10 -2 10 -4 0 -8 23 -8 50 0 28 3 50 6 50 4 0 9 13 12 29 4
16 21 46 39 67 63 72 162 93 244 53z"/>
<path d="M5379 675 c-42 -23 -62 -62 -63 -126 -1 -44 4 -64 20 -85 53 -71 134
-93 193 -52 58 39 76 72 75 136 -1 97 -48 142 -146 142 -29 -1 -65 -7 -79 -15z"/>
<path d="M7953 728 c-48 -23 -53 -54 -53 -362 0 -268 1 -289 20 -326 l20 -40
238 0 238 0 27 31 27 31 0 309 c0 229 -3 309 -12 309 -6 0 -8 3 -5 7 4 3 -8
17 -25 30 -31 22 -37 23 -242 22 -127 0 -220 -5 -233 -11z m147 -73 c-19 -14
-30 -25 -26 -25 4 0 0 -7 -8 -16 -18 -17 -23 -104 -6 -104 5 0 7 -6 5 -12 -2
-7 11 -25 30 -39 l33 -25 -41 -23 c-62 -34 -91 -97 -85 -186 2 -41 9 -70 16
-73 7 -2 12 -9 12 -15 0 -11 37 -39 85 -65 16 -9 8 -11 -44 -12 -53 0 -69 4
-88 22 -23 21 -23 22 -23 285 l0 264 25 24 c20 21 34 25 86 25 l63 0 -34 -25z
m277 1 l28 -24 3 -261 3 -261 -25 -25 c-22 -22 -33 -25 -88 -24 -35 1 -54 4
-43 6 31 8 83 51 100 83 21 41 20 147 -3 190 -10 19 -40 50 -66 68 -27 17 -41
32 -33 32 29 0 67 58 67 103 0 62 -8 79 -47 110 l-36 27 56 0 c45 0 62 -5 84
-24z"/>
</g>
</svg>
