<?xml version="1.0" standalone="no"?>
<!DOCTYPE svg PUBLIC "-//W3C//DTD SVG 20010904//EN"
 "http://www.w3.org/TR/2001/REC-SVG-20010904/DTD/svg10.dtd">
<svg version="1.0" xmlns="http://www.w3.org/2000/svg"
 width="997.000000pt" height="587.000000pt" viewBox="0 0 997.000000 587.000000"
 preserveAspectRatio="xMidYMid meet">
<metadata>
Created by potrace 1.16, written by Peter Selinger 2001-2019
</metadata>
<g transform="translate(0.000000,587.000000) scale(0.100000,-0.100000)"
fill="#ffffff" stroke="none">
<path d="M443 5703 l-33 -4 0 -630 0 -629 -125 0 -125 0 0 -40 0 -40 125 0
125 0 0 -73 c0 -43 -5 -78 -12 -85 -9 -9 2 -12 50 -12 l62 0 0 -45 0 -45 -47
0 c-27 0 -65 -3 -85 -6 l-38 -7 0 -128 0 -128 33 -3 32 -3 3 -87 3 -88 -36 0
-35 0 0 -104 0 -103 38 -7 c20 -3 147 -5 282 -4 135 1 221 3 192 5 l-53 4 3
102 3 102 38 3 37 3 0 90 0 89 -40 0 -40 0 0 130 0 130 50 0 50 0 0 -130 0
-130 35 0 35 0 0 -90 0 -90 -37 -1 c-29 -2 -31 -3 -12 -6 25 -4 28 -10 43 -91
10 -48 19 -95 22 -104 5 -17 27 -18 307 -16 166 1 279 3 250 5 l-52 4 6 32 c3
18 13 64 22 102 l16 70 40 5 39 5 17 80 c10 44 18 83 18 88 1 4 -15 7 -34 7
-23 0 -35 5 -35 14 0 7 11 63 25 124 14 61 25 113 25 116 0 3 22 6 48 6 l48 0
-19 -87 c-10 -49 -19 -105 -19 -125 0 -21 -4 -35 -9 -32 -5 3 -9 0 -9 -5 0 -6
15 -11 34 -11 63 0 66 -4 66 -96 l0 -84 -72 -2 c-40 0 -58 -3 -40 -5 l32 -4 0
-105 0 -104 285 0 285 0 0 105 0 105 40 0 41 0 -3 98 -3 97 -37 3 -38 3 0 125
0 124 35 0 35 0 0 50 0 50 44 0 45 0 4 -52 3 -53 2 58 2 57 -50 0 -50 0 -3
758 -2 757 -3 -757 -2 -758 -45 0 -45 0 0 755 0 755 -307 -2 -307 -3 -19 -90
c-70 -332 -219 -994 -227 -1013 -8 -17 -2 -60 25 -179 19 -86 35 -171 35 -190
0 -32 -1 -33 -39 -33 -29 0 -41 5 -45 18 -3 9 -75 339 -161 732 -86 393 -159
725 -162 738 l-5 22 -272 -2 c-149 0 -286 -3 -303 -5z m491 -983 c33 -162 36
-188 36 -347 l0 -173 -47 0 -48 0 2 352 c2 194 3 355 3 358 0 2 4 0 9 -5 5 -6
25 -89 45 -185z m929 -347 l-38 -173 -48 0 c-41 0 -48 3 -43 18 7 24 111 491
131 587 9 44 20 87 23 95 4 8 8 -68 10 -170 3 -183 3 -187 -35 -357z m387
-413 l0 -130 40 0 40 0 0 -90 0 -90 -40 0 -40 0 0 -105 0 -105 -45 0 -45 0 0
105 0 105 35 0 35 0 0 90 0 90 -35 0 -35 0 0 130 0 130 45 0 45 0 0 -130z"/>
<path d="M2733 5703 l-73 -4 0 -744 0 -745 -35 0 c-19 0 -35 -4 -35 -10 0 -6
35 -10 85 -10 l85 0 0 -45 0 -45 -86 0 -87 0 6 -72 c3 -40 15 -103 28 -140
l22 -68 43 0 c34 0 44 -4 49 -21 4 -11 27 -49 51 -85 l44 -64 -30 0 c-17 0
-30 -4 -30 -8 0 -12 86 -81 148 -119 32 -18 93 -46 137 -60 79 -26 83 -27 405
-29 179 -1 309 1 290 6 -30 6 -32 8 -9 9 85 4 231 74 328 159 38 32 58 42 85
42 29 0 40 7 69 43 31 37 77 117 77 132 0 3 -15 5 -34 5 l-34 0 20 63 c10 34
22 92 25 130 l6 67 88 0 89 0 0 50 0 50 44 0 45 0 4 -52 3 -53 2 58 2 57 -50
0 -50 0 0 655 0 654 108 4 107 3 -112 2 -113 2 0 -660 0 -660 -45 0 -45 0 -2
753 -3 752 -272 0 -273 0 0 -567 0 -568 -95 0 -95 0 0 -50 0 -50 95 0 95 0 0
-130 0 -130 -35 0 c-19 0 -35 -4 -35 -10 0 -6 35 -10 85 -10 l85 0 0 -45 0
-45 -84 0 -84 0 -10 -42 c-14 -56 -61 -129 -104 -161 -47 -36 -116 -59 -156
-53 -18 3 -30 2 -28 -3 12 -18 -126 8 -167 32 -71 42 -136 134 -137 195 0 19
5 22 44 22 26 0 46 -5 49 -12 4 -10 6 -10 6 0 1 7 15 12 36 12 l35 0 0 50 0
50 44 0 45 0 4 -52 3 -53 2 58 2 57 -50 0 -50 0 -3 753 -2 752 -3 -752 -2
-753 -47 0 -48 0 0 752 0 753 -200 1 c-110 0 -233 -1 -272 -3z"/>
<path d="M5157 5693 c-276 -70 -467 -369 -443 -694 23 -306 175 -495 461 -570
68 -18 121 -22 355 -28 256 -6 278 -8 325 -29 60 -28 100 -64 126 -114 10 -21
19 -40 19 -43 0 -3 -16 -5 -35 -5 -19 0 -35 -4 -35 -10 0 -6 37 -10 90 -10
l90 0 0 -45 0 -45 -85 0 -85 0 -12 -47 c-8 -34 -25 -61 -62 -99 -86 -88 -79
-87 -658 -92 -484 -3 -498 -4 -498 -23 0 -16 7 -19 40 -19 l40 0 0 -85 0 -85
-40 0 -40 0 0 -45 0 -45 -90 0 -90 0 0 -45 0 -45 90 0 c83 0 90 -1 90 -20 0
-20 6 -20 658 -19 361 1 641 5 622 9 -29 6 -30 8 -9 9 79 4 251 94 323 170 23
24 38 31 67 31 33 0 42 5 67 43 29 41 72 121 72 132 0 3 -16 5 -35 5 -34 0
-35 1 -29 28 4 15 10 37 15 48 4 12 13 58 19 103 l12 81 87 0 86 0 -3 49 -4
50 54 4 53 3 -52 2 c-48 2 -52 4 -56 30 l-4 27 -2 -27 c-1 -26 -4 -28 -45 -28
l-44 0 -11 68 c-41 238 -164 414 -354 507 -50 24 -112 48 -137 52 l-45 7 35 7
c19 3 -83 7 -227 8 -144 0 -270 4 -280 7 -15 5 -16 4 -3 -6 29 -23 -102 -1
-145 24 -77 45 -110 148 -81 247 28 98 89 132 236 134 52 1 256 3 453 3 l357
2 0 226 0 226 -575 -3 c-437 -2 -588 -6 -628 -16z"/>
<path d="M6950 5363 l0 -343 -100 0 -100 0 0 -45 0 -45 103 0 102 0 -3 -360
-2 -360 -35 0 c-19 0 -35 -4 -35 -10 0 -6 37 -10 90 -10 l90 0 0 -45 0 -45
-90 0 -90 0 0 -140 0 -140 40 0 40 0 0 -85 0 -85 -40 0 -40 0 0 -110 0 -110
333 2 c182 1 308 3 279 5 l-53 4 3 102 3 102 38 3 37 3 0 90 0 89 -40 0 -40 0
0 130 0 130 90 0 90 0 0 50 0 50 46 0 46 0 -4 -50 c-1 -28 0 -50 5 -50 4 0 7
25 7 55 l0 55 -105 0 -105 0 0 756 0 757 -280 -4 -280 -4 0 -342z"/>
<path d="M8441 5689 c-190 -51 -341 -181 -427 -364 -60 -129 -64 -174 -64
-670 l0 -445 -35 0 c-19 0 -35 -4 -35 -10 0 -6 35 -10 85 -10 l85 0 0 -45 0
-45 -85 0 -85 0 0 -36 c0 -42 27 -164 46 -211 13 -29 19 -33 52 -33 34 0 39
-4 66 -51 15 -28 42 -66 58 -85 l30 -34 -36 0 c-20 0 -36 -3 -36 -7 1 -12 102
-92 157 -124 26 -16 84 -41 128 -56 80 -27 81 -27 415 -29 184 -1 322 0 305 3
-26 4 -19 8 43 24 95 24 177 68 251 135 48 44 66 54 95 54 31 0 40 6 67 43 17
23 42 63 55 90 l24 47 -39 0 -40 0 14 40 c8 21 19 66 26 99 9 48 16 61 33 64
11 2 -115 5 -280 6 l-301 1 -6 -27 c-4 -16 -20 -52 -37 -81 -42 -72 -92 -96
-195 -90 -40 2 -72 1 -70 -2 2 -3 -26 -3 -61 1 -87 9 -137 45 -181 129 -18 34
-33 75 -33 91 0 28 2 29 44 29 38 0 45 -3 49 -22 l4 -23 2 23 c1 18 7 22 36
22 l35 0 0 50 0 50 44 0 45 0 4 -52 3 -53 2 58 2 57 -50 0 -50 0 -3 438 -2
437 -3 -437 -2 -438 -45 0 -45 0 0 448 c0 390 2 455 16 497 22 63 95 139 149
154 52 14 280 3 317 -15 35 -18 68 -66 90 -129 l17 -50 275 -3 276 -2 0 28 c0
43 -38 169 -71 236 -77 156 -190 255 -356 313 l-78 28 -317 0 c-265 1 -327 -2
-377 -16z"/>
<path d="M1602 2495 c-40 -7 -107 -29 -148 -49 -79 -37 -164 -93 -164 -108 0
-4 19 -5 43 -2 l42 7 -45 -47 c-39 -40 -49 -46 -86 -46 -36 0 -44 -4 -67 -37
-35 -51 -72 -135 -93 -208 -13 -46 -18 -120 -21 -317 l-5 -258 -119 0 -119 0
0 -55 0 -55 120 0 120 0 0 -145 0 -145 45 0 45 0 0 -45 0 -45 -81 0 -82 0 6
-90 c6 -79 28 -167 61 -242 7 -16 2 -18 -38 -18 -25 0 -46 -3 -46 -6 0 -12 24
-51 62 -101 39 -51 42 -53 89 -53 44 0 56 -5 110 -49 81 -65 159 -106 249
-129 67 -18 107 -19 385 -18 269 2 317 4 365 20 83 27 179 81 238 132 49 43
55 46 102 42 28 -1 50 0 50 5 0 4 -21 7 -46 7 -33 0 -43 3 -38 13 6 9 4 9 -7
0 -7 -7 -35 -13 -62 -13 l-49 0 25 30 c14 17 36 48 48 70 22 38 25 40 71 40
27 0 47 -3 45 -8 -6 -9 95 -3 105 6 4 4 -15 5 -42 4 -28 -2 -50 -2 -50 0 0 3
11 38 25 79 14 40 28 97 32 126 l6 53 -169 0 c-93 0 -219 -3 -281 -7 -109 -6
-111 -6 -117 -32 -10 -48 -65 -130 -98 -147 -39 -20 -249 -30 -306 -15 -88 24
-172 143 -172 244 l0 47 44 0 c43 0 45 -1 49 -32 l4 -33 1 33 2 32 80 0 80 0
0 45 c0 45 0 45 35 45 19 0 35 5 35 10 0 6 -33 10 -80 10 l-80 0 -3 413 -2
412 -3 -412 -2 -413 -45 0 -45 0 0 418 c0 468 2 486 66 560 52 61 104 85 170
80 29 -3 51 -2 49 1 -1 3 36 4 84 1 128 -8 179 -48 210 -167 l12 -43 329 0
c308 0 330 1 329 18 0 10 -3 12 -6 5 -6 -17 -92 -17 -97 0 -2 6 -11 46 -20 89
-14 63 -36 115 -94 230 -2 4 15 8 37 10 l41 3 -40 47 -41 47 48 3 48 3 -52 5
c-28 3 -49 2 -46 -2 2 -5 -17 -8 -43 -8 -38 0 -53 6 -82 31 -47 41 -182 106
-241 115 -44 8 -45 8 -16 15 60 13 -577 8 -653 -6z"/>
<path d="M3100 2425 l0 -85 45 0 45 0 0 -45 0 -45 -45 0 -45 0 0 -470 0 -470
-110 0 -110 0 0 -55 0 -55 110 0 110 0 0 -85 0 -85 45 0 45 0 0 -45 0 -45 -80
0 -80 0 0 -175 0 -175 -50 0 -50 0 0 -80 0 -80 50 0 50 0 0 -94 0 -94 143 -7
c78 -3 471 -5 872 -3 l730 3 3 98 3 97 44 0 44 0 3 -62 3 -63 158 -3 157 -3 0
-24 0 -25 -162 -3 -163 -3 168 -2 167 -2 0 35 0 35 -160 0 -160 0 0 65 0 65
-50 0 -50 0 0 65 0 65 50 0 c48 0 50 1 49 28 -2 23 -2 24 -6 5 -4 -20 -11 -23
-49 -23 -37 0 -44 3 -44 20 0 20 -7 20 -555 20 l-554 0 -4 153 -3 152 -2 -152
-2 -153 -47 0 -48 0 0 155 0 155 130 2 c72 1 106 3 78 5 l-53 4 0 46 0 46 90
-7 c62 -5 90 -4 90 3 0 7 -30 11 -80 11 l-80 0 0 594 0 595 43 4 42 4 -47 1
-48 2 0 -600 0 -600 -45 0 -45 0 0 600 0 600 40 0 40 0 0 50 0 50 -40 0 -40 0
0 80 0 80 45 0 45 0 0 -80 0 -80 48 2 47 1 -42 4 -43 4 0 80 0 79 -320 0 -320
0 0 -85z"/>
<path d="M5230 2425 l0 -85 45 0 45 0 0 -45 0 -45 -45 0 -45 0 0 -610 0 -610
45 0 45 0 0 -45 0 -45 -80 0 -80 0 0 -62 c0 -75 21 -175 49 -240 l20 -48 -44
0 c-25 0 -45 -5 -45 -10 0 -14 26 -55 68 -107 32 -40 38 -43 83 -43 44 0 56
-5 110 -49 82 -66 163 -108 251 -129 63 -16 116 -18 373 -17 331 1 341 3 475
70 66 34 170 110 170 125 0 5 -18 10 -40 12 l-39 3 47 68 47 68 96 -7 c53 -3
99 -2 102 2 3 5 -19 7 -49 6 l-54 -4 24 54 c30 69 43 125 52 221 l7 77 43 0
43 0 4 -58 3 -57 2 58 2 57 80 0 80 0 0 45 c0 45 0 45 35 45 19 0 35 5 35 10
0 6 -33 10 -80 10 l-80 0 0 595 0 595 45 0 45 0 0 60 0 60 -45 0 -45 0 0 80 0
80 -322 -2 -323 -3 -3 -82 -3 -83 46 0 45 0 0 -44 0 -45 -42 -3 -43 -3 0 -303
0 -302 -102 0 -103 0 0 -45 0 -45 103 0 102 0 -3 -260 -3 -260 46 0 45 0 0
-45 0 -45 -80 0 -80 0 0 -42 c0 -49 -34 -127 -75 -176 -15 -18 -50 -44 -78
-58 -43 -22 -64 -26 -151 -27 -86 -2 -107 1 -141 20 -87 47 -154 147 -155 231
l0 42 44 0 c43 0 45 -1 49 -32 l4 -33 1 33 2 32 80 0 80 0 0 45 c0 45 0 45 35
45 19 0 35 5 35 10 0 6 -50 10 -130 10 l-130 0 0 600 0 600 40 0 40 0 0 50 0
50 -40 0 -40 0 0 81 0 81 50 -4 c28 -1 50 0 50 5 0 4 -146 7 -325 7 l-325 0 0
-85z m1790 -5 l0 -80 45 0 45 0 0 -50 0 -50 -45 0 -45 0 0 -600 0 -600 -45 0
-45 0 0 599 0 600 43 3 42 3 3 48 3 47 -45 0 -46 0 0 80 0 80 45 0 45 0 0 -80z"/>
<path d="M7320 2425 l0 -85 40 0 40 0 0 -45 0 -45 -40 0 -40 0 0 -610 0 -610
43 0 42 0 0 -45 0 -45 -77 0 -78 0 0 -175 0 -175 -50 0 -50 0 0 -80 0 -80 50
0 50 0 0 -94 0 -94 143 -7 c78 -4 363 -5 632 -3 474 4 492 5 556 26 78 26 179
90 214 136 14 18 25 36 25 39 0 4 -20 7 -44 7 l-43 0 36 70 c36 70 36 70 79
70 23 0 42 -3 42 -8 0 -13 113 2 116 16 1 7 0 8 -3 2 -2 -5 -26 -10 -52 -10
l-48 0 14 53 c8 28 17 107 20 174 l6 123 131 2 c72 1 107 3 79 5 l-53 4 0 45
0 44 45 0 c40 0 45 -3 46 -22 1 -17 2 -19 6 -5 3 12 15 17 39 17 19 0 34 5 34
10 0 6 -50 10 -129 10 l-130 0 -11 55 c-17 81 -73 186 -126 234 l-45 42 31 35
c37 42 82 130 105 204 22 72 31 298 17 407 -10 71 -30 145 -56 205 -6 14 -1
17 35 20 l42 3 -35 45 c-30 40 -39 45 -78 48 -32 3 -54 12 -84 38 -52 44 -162
100 -218 110 -39 7 -40 8 -18 15 14 4 -262 7 -612 8 l-638 1 0 -85z m620 -600
l0 -265 -45 0 -45 0 0 265 0 265 45 0 45 0 0 -265z m411 220 c27 -19 54 -51
72 -85 l28 -55 -85 -3 -86 -3 0 -34 0 -35 91 0 90 0 -6 -47 c-14 -95 -69 -175
-144 -205 -14 -6 -101 -13 -193 -16 l-168 -4 0 261 0 262 179 -3 179 -3 43
-30z m-28 -886 c42 -11 99 -57 124 -100 15 -25 24 -29 60 -29 47 0 49 -1 58
-53 l7 -37 -81 0 -81 0 0 -52 c-1 -89 -49 -167 -130 -208 -35 -18 -59 -20
-220 -20 l-180 0 0 135 0 135 80 0 80 0 0 45 c0 45 0 45 35 45 19 0 35 5 35
10 0 6 -33 10 -80 10 l-80 0 0 65 0 65 168 0 c92 0 184 -5 205 -11z m-453
-369 l0 -140 -45 0 -45 0 0 140 0 140 45 0 45 0 0 -140z"/>
<path d="M5874 2410 l1 -65 43 -3 42 -3 0 -49 0 -49 -42 -3 -43 -3 0 -590 0
-590 2 587 3 587 43 3 42 3 3 58 3 57 -45 0 -45 0 -4 63 -3 62 0 -65z"/>
</g>
</svg>
