<?xml version="1.0" standalone="no"?>
<!DOCTYPE svg PUBLIC "-//W3C//DTD SVG 20010904//EN"
 "http://www.w3.org/TR/2001/REC-SVG-20010904/DTD/svg10.dtd">
<svg version="1.0" xmlns="http://www.w3.org/2000/svg"
 width="560.000000pt" height="1108.000000pt" viewBox="0 0 560.000000 1108.000000"
 preserveAspectRatio="xMidYMid meet">
<metadata>
Created by potrace 1.16, written by Peter Selinger 2001-2019
</metadata>
<g transform="translate(0.000000,1108.000000) scale(0.100000,-0.100000)"
fill="#0925bb" stroke="none">
<path d="M3640 10990 c-16 -17 -50 -69 -75 -116 -36 -65 -46 -94 -43 -119 l4
-33 -26 18 c-14 10 -65 55 -113 100 -93 86 -118 100 -172 100 -34 0 -86 -33
-72 -46 4 -4 13 -2 19 4 16 16 71 15 111 -2 18 -7 58 -36 89 -64 55 -48 217
-176 248 -195 8 -5 0 4 -17 20 -25 22 -34 41 -39 76 -6 40 -2 55 31 119 42 81
81 138 96 138 5 0 18 -15 30 -32 30 -48 23 -138 -14 -176 -31 -33 -35 -47 -9
-33 16 8 22 4 36 -26 14 -29 15 -38 4 -44 -7 -5 -16 -9 -20 -9 -5 0 -8 -4 -8
-9 0 -5 13 -6 33 0 17 4 50 11 72 15 37 6 38 7 16 15 -13 5 -32 7 -41 4 -26
-8 -63 68 -48 100 14 32 60 50 87 36 12 -7 42 -9 77 -5 43 5 58 4 65 -7 29
-46 -16 -99 -83 -99 -24 0 -37 -4 -33 -10 3 -5 13 -10 22 -10 9 0 40 -16 69
-35 29 -19 55 -35 58 -35 4 0 57 -25 119 -56 125 -62 162 -92 203 -167 l27
-51 -39 -34 c-85 -74 -199 -162 -210 -162 -6 0 -36 11 -65 23 -105 46 -225 64
-314 48 -64 -12 -95 -33 -95 -65 0 -19 1 -19 13 4 27 54 129 63 283 26 128
-31 158 -44 143 -63 -16 -18 -59 -16 -100 5 -28 14 -59 17 -164 16 -113 0
-139 -4 -197 -26 l-67 -25 -40 26 c-23 14 -41 31 -41 37 0 23 64 95 112 124
65 40 56 49 -15 15 -50 -23 -92 -61 -122 -108 -9 -14 -18 -12 -81 14 -39 16
-98 36 -130 45 -79 21 -296 30 -376 15 -280 -53 -539 -234 -673 -471 -74 -131
-122 -333 -113 -475 l4 -63 -41 -6 c-22 -3 -96 -10 -165 -16 -177 -15 -286
-34 -494 -85 -227 -56 -386 -106 -432 -136 -48 -33 -96 -131 -92 -189 4 -60
24 -62 31 -3 16 128 45 168 154 213 93 39 412 121 583 149 190 33 448 57 462
43 6 -6 8 -25 4 -44 -6 -32 -8 -33 -44 -30 -21 2 -116 -4 -211 -13 -288 -27
-491 -90 -575 -178 -39 -41 -39 -41 -13 -5 30 41 35 57 11 37 -57 -47 -94
-158 -94 -278 0 -82 25 -309 35 -320 6 -5 8 62 9 259 1 125 4 152 24 200 42
107 123 159 325 210 130 33 371 63 467 58 l65 -3 23 -65 c13 -36 30 -105 37
-153 8 -49 19 -95 25 -102 14 -17 21 -96 14 -140 -4 -24 -16 -36 -50 -55 -45
-24 -85 -77 -97 -130 l-6 -26 -208 -18 c-114 -10 -282 -24 -373 -32 -162 -14
-165 -14 -192 6 -22 16 -28 17 -28 6 0 -8 10 -22 22 -30 l22 -16 -23 0 c-14 0
-83 14 -154 31 -89 22 -135 38 -148 53 -28 29 -59 138 -59 206 0 33 -4 62 -10
65 -17 10 -12 -166 5 -216 17 -46 60 -99 82 -99 16 0 17 -12 1 -29 -15 -14
-14 -379 2 -458 9 -50 8 -52 -35 -78 -9 -5 -17 -17 -18 -25 -2 -8 -6 -21 -10
-27 -5 -7 -5 -19 0 -25 4 -7 6 -25 4 -40 -1 -14 2 -29 8 -33 7 -4 5 -14 -5
-31 -14 -21 -15 -27 -3 -42 9 -10 14 -36 13 -67 -1 -27 1 -54 6 -60 14 -18 16
-81 3 -94 -14 -13 -18 -53 -6 -64 10 -11 11 -60 1 -80 -7 -13 -5 -24 7 -37 12
-13 15 -28 11 -44 -4 -16 0 -30 10 -41 13 -13 14 -18 3 -31 -9 -11 -9 -18 -1
-26 16 -16 15 -81 0 -96 -9 -9 -9 -15 -1 -23 9 -9 9 -18 0 -36 -9 -21 -8 -27
8 -39 10 -8 14 -14 8 -14 -6 0 -11 -17 -11 -38 -1 -34 3 -41 31 -55 18 -9 25
-16 16 -16 -8 -1 -24 5 -35 13 -17 13 -21 12 -36 -1 -34 -31 -17 -214 24 -255
17 -17 18 -24 9 -45 -10 -21 -9 -29 5 -44 12 -13 17 -44 20 -115 3 -53 8 -104
13 -113 5 -9 12 -46 16 -83 l7 -68 -35 -20 c-50 -30 -58 -57 -56 -185 l2 -111
-40 -75 c-77 -143 -107 -185 -155 -217 -58 -39 -79 -70 -85 -125 -9 -79 12
-124 143 -307 l25 -35 -83 -13 c-110 -18 -220 -17 -292 2 -78 20 -113 6 -131
-52 -4 -15 1 -38 15 -67 26 -53 89 -101 166 -124 l52 -17 -52 -69 c-66 -87
-113 -130 -254 -228 -129 -90 -143 -108 -115 -146 67 -90 194 -76 333 39 36
30 58 45 49 34 -21 -25 -78 -129 -140 -256 -35 -70 -49 -108 -45 -124 23 -89
204 -31 279 88 18 29 43 78 54 108 l21 55 12 -33 c13 -35 19 -37 120 -47 35
-4 72 -11 81 -16 23 -12 76 7 90 32 8 15 5 29 -13 61 -25 45 -120 118 -153
118 -20 -1 -20 -1 0 -12 19 -11 19 -11 0 -19 -17 -6 -16 -8 8 -8 68 -2 124
-45 134 -104 l5 -36 -48 -3 c-59 -4 -174 11 -191 24 -6 5 -14 27 -18 48 -5 32
-1 49 27 99 18 33 29 63 25 67 -14 15 -44 -37 -118 -209 -23 -53 -56 -113 -73
-132 -40 -45 -119 -85 -167 -85 -66 0 -62 21 25 115 48 51 161 265 168 315 2
17 10 25 23 26 11 1 26 2 34 3 8 1 11 4 8 8 -4 3 1 12 11 19 15 12 13 13 -18
8 -56 -10 -111 -37 -181 -91 -121 -93 -231 -131 -289 -101 -36 19 -38 53 -3
75 15 9 48 33 72 53 24 19 79 60 122 90 43 30 126 97 184 148 84 75 105 89
105 72 0 -26 23 -72 46 -91 16 -13 16 -12 2 16 -18 36 -31 85 -22 85 3 0 19
-9 34 -20 29 -21 103 -50 124 -50 6 1 -23 18 -64 38 l-75 37 45 5 c39 4 42 6
20 12 -14 4 -59 8 -101 8 -104 0 -175 15 -229 48 -52 32 -86 89 -75 129 6 24
8 25 58 20 29 -3 77 -17 107 -31 97 -46 230 -31 374 41 39 19 80 43 91 53 17
16 27 17 68 9 63 -11 128 -41 180 -81 63 -48 69 -56 52 -82 -8 -12 -24 -48
-34 -79 -22 -64 -59 -121 -139 -217 -67 -81 -189 -193 -200 -186 -5 3 -18 -2
-28 -10 -19 -15 -19 -15 0 -10 16 6 17 4 6 -9 -23 -28 -1 -29 28 -2 32 31 42
34 42 12 0 -18 59 -57 73 -48 5 3 -5 13 -21 23 -42 26 -50 56 -21 86 17 18 33
24 65 24 92 0 77 -64 -35 -155 -38 -31 -57 -53 -52 -58 20 -20 126 76 163 147
20 38 20 39 0 65 -10 14 -31 27 -46 29 -27 3 -27 3 19 44 78 69 175 209 175
253 0 12 6 14 27 9 22 -6 32 0 67 38 23 25 54 48 70 52 32 8 156 122 187 173
23 37 49 124 49 165 0 15 5 39 10 53 9 24 11 25 26 11 17 -17 57 -21 197 -16
l87 2 0 -54 c0 -29 5 -92 11 -138 25 -204 54 -284 160 -451 34 -53 59 -108 80
-180 38 -127 79 -213 125 -263 l34 -37 -18 -27 c-10 -15 -27 -49 -38 -75 -21
-54 -36 -65 -109 -82 -41 -10 -54 -9 -73 3 -32 21 -90 19 -137 -3 -53 -26
-197 -169 -225 -224 -25 -50 -60 -211 -60 -274 1 -63 16 -28 45 103 30 133 58
189 133 261 55 53 55 46 -2 -21 -16 -19 -43 -64 -60 -100 -29 -60 -31 -74 -34
-195 -3 -105 -1 -128 9 -118 7 8 16 56 20 120 10 146 35 210 120 306 33 37 35
37 73 26 42 -12 132 -5 156 12 11 8 0 9 -39 5 -29 -3 -73 -3 -98 1 l-45 6 31
19 c22 14 52 20 108 23 43 1 96 10 117 19 22 9 45 15 52 12 7 -3 25 24 44 62
63 129 75 141 227 222 182 97 291 165 403 251 l91 71 -22 -43 c-25 -50 -64
-158 -51 -144 5 6 41 62 80 126 42 69 93 136 126 167 53 50 85 65 87 40 0 -7
0 -71 0 -143 -1 -201 14 -232 21 -45 7 178 26 248 85 309 24 24 33 29 28 16
-20 -56 -27 -162 -16 -217 7 -32 17 -58 22 -58 5 0 9 31 9 68 0 79 18 148 52
199 18 28 51 48 167 105 166 80 147 83 208 -36 38 -75 129 -220 175 -278 27
-35 28 -37 10 -50 -10 -7 -35 -38 -55 -68 -20 -30 -44 -66 -54 -80 -13 -19 -8
-17 20 9 30 28 35 30 30 13 -11 -42 -87 -100 -162 -122 -96 -30 -110 -21 -22
14 97 38 90 52 -9 17 l-80 -28 -62 69 c-33 38 -63 66 -66 64 -7 -7 18 -43 72
-103 l46 -51 -31 -26 c-17 -14 -36 -26 -42 -26 -7 0 -23 -9 -37 -20 -20 -16
-21 -19 -5 -13 17 6 15 1 -9 -28 -29 -34 -53 -45 -48 -21 1 6 -2 12 -7 12 -19
0 -74 104 -102 191 -27 82 -36 129 -55 284 -5 43 -8 47 -15 27 -17 -45 -22
-158 -10 -228 15 -85 45 -151 104 -229 l46 -60 -36 -18 -35 -19 -30 34 -30 33
22 -37 c12 -21 19 -42 15 -48 -3 -6 4 -10 16 -10 36 0 8 -20 -37 -27 -38 -5
-38 -5 -19 11 19 17 19 17 -16 11 -36 -5 -37 -5 -48 41 -16 62 -41 239 -41
292 0 52 -16 55 -29 5 -22 -83 -22 -165 -1 -258 11 -49 22 -99 23 -109 3 -26
-265 -200 -446 -290 -103 -51 -149 -80 -210 -136 -43 -38 -81 -70 -86 -70 -5
0 -20 27 -35 60 -61 136 -72 305 -31 465 8 30 8 30 -12 12 -42 -37 -60 -245
-34 -372 14 -65 69 -206 84 -216 5 -4 5 -9 -2 -13 -15 -10 -113 192 -136 280
-21 79 -35 102 -35 57 0 -26 31 -144 54 -208 6 -16 6 -17 -3 -5 -15 21 -58
156 -66 206 l-6 41 -62 -19 c-34 -11 -91 -23 -127 -27 l-65 -8 83 -2 c50 0 95
4 115 13 l33 13 12 -73 c21 -137 115 -285 291 -460 92 -92 111 -116 111 -141
0 -54 -89 -153 -235 -259 -168 -122 -241 -212 -305 -374 -84 -214 -135 -264
-318 -311 -101 -25 -114 -23 -25 5 87 28 154 66 177 101 21 33 6 32 -25 -1
-34 -37 -94 -69 -172 -93 -82 -25 -97 -21 -200 57 -37 28 -67 48 -67 44 0 -21
102 -103 155 -126 45 -19 53 -25 34 -26 -36 0 -138 53 -193 101 -95 84 -138
182 -155 355 -25 243 58 454 254 644 56 54 92 107 81 117 -3 4 -16 -7 -28 -23
-24 -32 -64 -71 -150 -150 -74 -66 -121 -143 -158 -253 -60 -177 -59 -327 1
-499 53 -150 134 -243 267 -309 64 -31 137 -29 161 6 8 13 24 21 42 21 44 0
137 36 197 75 65 44 116 120 168 249 54 137 119 217 289 353 143 113 184 157
237 251 24 41 35 52 52 50 28 -4 36 -48 8 -48 -46 0 -62 -114 -23 -168 l24
-34 -32 -60 c-37 -73 -39 -93 -7 -113 22 -14 22 -18 13 -68 -7 -36 -21 -64
-45 -91 -28 -32 -33 -43 -28 -70 4 -17 6 -39 6 -48 -3 -70 -6 -88 -12 -88 -19
0 -40 -54 -42 -107 -1 -45 -8 -70 -31 -108 -17 -26 -37 -60 -45 -74 -9 -14
-32 -42 -53 -62 -20 -21 -37 -47 -37 -59 0 -26 -14 -54 -52 -101 -16 -20 -32
-53 -35 -75 -3 -21 -44 -106 -89 -188 -81 -145 -95 -176 -128 -298 -9 -31 -32
-77 -50 -102 -65 -84 -77 -125 -56 -180 8 -21 3 -40 -25 -101 -18 -41 -48 -96
-66 -122 -42 -60 -79 -149 -78 -188 0 -16 6 -43 13 -60 9 -20 10 -37 3 -51 -6
-16 -4 -31 8 -57 15 -32 15 -38 0 -73 -9 -22 -43 -85 -76 -141 -33 -56 -69
-125 -80 -152 l-19 -51 25 0 c16 0 25 6 25 15 0 30 59 132 130 223 l71 93 32
-21 c99 -66 323 -151 505 -190 111 -24 131 -19 225 62 79 69 89 95 86 222 -3
86 1 114 24 187 31 98 119 244 165 271 17 10 45 41 63 70 18 29 46 74 63 101
17 27 47 58 73 72 51 30 67 58 88 153 15 65 19 71 45 77 57 13 110 74 110 128
0 17 7 27 23 31 37 9 74 56 102 131 42 112 92 195 129 211 43 19 56 31 103 94
90 122 128 214 143 347 11 97 38 193 55 193 31 0 48 40 50 112 1 83 20 149 39
142 31 -12 83 105 66 150 -3 10 -2 40 3 66 9 47 10 47 37 37 64 -24 82 8 126
229 47 238 51 252 74 259 23 7 62 125 80 239 14 88 3 105 -101 161 l-74 39 35
6 c44 8 128 51 204 104 32 22 64 44 70 48 6 4 30 12 54 18 24 6 60 26 80 43
20 18 75 50 122 71 191 87 257 145 333 293 91 177 132 338 125 488 -7 141 -53
208 -253 367 -55 43 -125 99 -155 124 -70 56 -222 159 -260 176 -15 6 -35 26
-43 44 -17 34 -67 77 -104 88 -12 4 -48 2 -78 -3 -49 -9 -62 -8 -93 8 -37 18
-83 34 -134 45 -20 5 -28 13 -28 27 0 20 4 21 48 16 26 -2 56 -8 67 -13 18 -7
18 -6 7 8 -7 9 -28 20 -45 23 -67 13 -87 26 -87 55 0 32 27 90 42 90 7 0 7 -4
1 -12 -14 -18 -26 -71 -15 -64 5 3 15 19 22 36 11 26 17 30 52 30 38 0 39 0
24 -22 -9 -12 -16 -34 -16 -48 1 -21 5 -17 26 23 28 54 43 57 25 6 -16 -47 -6
-47 19 0 11 23 25 41 30 41 18 0 21 -20 6 -42 -9 -12 -16 -32 -16 -43 1 -17 3
-16 16 8 19 36 35 35 28 -3 -4 -19 -2 -30 5 -30 6 0 11 7 11 16 0 14 2 14 22
0 37 -26 45 -18 11 10 -40 31 -42 46 -5 39 l27 -6 -30 17 -30 17 32 13 c39 17
56 39 18 24 -15 -6 -39 -10 -55 -10 l-29 0 24 36 c44 65 32 73 -21 14 -20 -22
-41 -40 -47 -40 -7 0 -7 4 1 12 20 20 14 33 -7 14 -13 -12 -39 -17 -91 -19
-66 -2 -74 0 -91 22 -11 14 -19 40 -19 63 0 38 2 40 55 64 31 13 65 24 76 24
11 0 28 4 38 9 12 7 37 5 77 -5 78 -21 99 -33 167 -96 52 -49 57 -57 57 -97 0
-54 -11 -76 -69 -131 l-46 -45 -77 2 c-43 1 -78 -2 -78 -7 0 -12 24 -19 93
-26 55 -5 66 -3 97 18 47 32 102 127 108 187 4 43 1 52 -27 84 -18 20 -41 39
-53 43 -18 5 -17 9 17 37 44 36 65 80 65 138 0 35 -6 47 -37 75 -21 19 -43 32
-49 30 -7 -3 -15 1 -17 8 -8 20 -87 57 -107 51 -10 -3 -21 -1 -24 4 -4 5 -24
10 -45 9 -64 -1 -78 8 -85 53 -4 23 -17 51 -32 66 l-25 25 10 262 c9 250 11
268 41 367 17 57 37 146 45 197 11 73 20 100 40 124 15 17 40 58 57 92 17 34
48 80 68 103 21 24 71 91 111 150 99 143 152 199 257 271 109 75 134 102 167
177 14 33 31 69 38 80 6 11 21 38 32 60 17 34 25 39 47 37 23 -3 28 1 34 25 4
15 19 42 34 58 35 37 70 114 122 268 35 105 39 127 36 190 -5 83 -36 200 -66
249 -11 18 -37 49 -57 68 -36 34 -77 101 -73 117 1 5 -3 18 -10 30 -6 12 -9
28 -6 36 3 8 -4 35 -15 60 -12 25 -21 59 -21 75 0 16 -8 40 -17 53 -10 13 -24
33 -31 44 -7 11 -21 34 -32 50 -11 17 -20 47 -20 67 0 29 -6 41 -27 55 -25 16
-77 69 -173 175 -19 22 -43 40 -52 42 -25 3 -57 36 -79 77 -22 43 -76 80 -133
90 -23 4 -55 13 -73 20 -49 20 -68 -3 -71 -85 -2 -36 2 -67 8 -71 6 -4 10 10
10 39 0 36 5 48 25 65 23 17 24 20 8 24 -10 2 -7 2 7 0 143 -23 160 -33 208
-119 18 -32 47 -73 63 -89 16 -17 29 -40 29 -51 0 -56 -129 -192 -270 -286
-100 -66 -409 -218 -457 -225 l-38 -5 -35 69 c-19 37 -36 71 -38 76 -2 4 12 7
31 7 45 0 157 35 227 70 59 30 212 139 226 162 5 7 -14 -4 -41 -25 -164 -124
-252 -169 -370 -190 -74 -13 -115 -4 -115 23 0 17 4 18 26 10 14 -6 35 -10 47
-9 21 0 21 1 2 9 -11 5 -32 11 -46 14 -16 4 -29 15 -33 28 -11 43 -6 128 10
169 15 37 18 39 33 24 14 -14 14 -17 1 -25 -13 -9 -13 -11 0 -20 8 -5 23 -10
33 -10 14 0 17 -5 11 -22 -15 -48 -15 -53 -2 -34 37 53 54 69 96 90 26 13 82
49 126 80 43 31 76 50 73 41 -12 -30 3 -14 17 18 16 39 70 87 97 87 10 0 19 5
19 11 0 6 -7 8 -16 5 -9 -3 -21 -6 -28 -6 -7 0 -47 -31 -89 -69 -91 -84 -184
-148 -249 -173 l-48 -18 -16 31 c-8 17 -14 32 -12 33 2 1 28 13 58 26 58 27
213 142 294 219 26 25 56 63 66 85 16 34 19 36 25 17 3 -11 11 -21 16 -21 6 0
7 10 3 23 -15 49 -38 58 -86 33 -24 -13 -28 -13 -33 3 -14 46 -137 121 -365
222 l-35 16 31 16 c35 18 44 34 44 76 0 43 -29 62 -91 61 -30 0 -73 2 -95 5
l-42 7 -5 51 c-3 41 -10 56 -36 79 -39 35 -46 35 -81 -2z m-430 -790 c229 -55
454 -221 602 -446 62 -95 69 -118 21 -73 -91 87 -236 157 -381 185 -357 68
-887 -133 -1107 -420 -27 -35 -53 -65 -56 -65 -4 -1 -10 15 -13 34 -4 20 -21
51 -38 70 -38 44 -78 47 -115 8 l-26 -28 7 50 c12 80 64 225 103 285 48 75
225 247 295 288 85 50 205 99 283 116 108 22 321 20 425 -4z m1714 -128 c98
-103 98 -103 92 -144 -10 -64 -50 -120 -155 -220 -78 -74 -130 -112 -257 -188
-193 -114 -259 -143 -337 -144 -57 -1 -58 0 -100 49 -23 28 -65 75 -94 106
-29 31 -53 59 -53 62 0 4 16 7 35 7 111 0 520 225 655 360 70 70 112 138 113
185 1 19 1 33 2 32 0 -1 45 -48 99 -105z m-999 47 c4 -6 -5 -38 -20 -71 -26
-58 -27 -67 -21 -157 5 -78 10 -99 27 -114 27 -25 80 -143 73 -161 -3 -8 1
-27 9 -43 22 -41 171 -205 204 -224 20 -11 29 -25 31 -49 4 -35 64 -110 88
-110 6 0 18 -10 26 -22 10 -15 25 -21 47 -21 30 0 32 -2 26 -26 -3 -14 -7 -34
-8 -43 -2 -24 -72 -48 -140 -48 -32 0 -73 -6 -92 -14 -39 -17 -176 -145 -250
-235 -27 -33 -51 -58 -54 -56 -2 3 6 27 18 54 11 27 27 77 35 110 12 53 12 61
0 61 -8 0 -14 -4 -14 -10 0 -5 -19 -49 -41 -97 -36 -77 -54 -101 -141 -186
-64 -62 -127 -113 -176 -142 -42 -24 -78 -42 -81 -40 -2 3 12 24 31 47 48 59
125 191 196 333 69 139 97 204 158 370 42 116 43 118 39 65 -2 -30 -7 -93 -10
-140 -6 -109 -25 -181 -80 -305 -25 -55 -45 -105 -45 -110 0 -17 52 66 81 131
51 112 66 209 73 472 2 73 7 136 10 139 3 4 6 -2 6 -13 -2 -85 11 -498 15
-502 3 -3 8 -2 13 2 11 12 2 486 -10 526 -7 19 -11 46 -10 60 3 34 -100 241
-160 323 -28 37 -86 100 -129 141 -72 67 -78 74 -57 79 13 3 46 13 73 21 59
17 250 21 260 5z m1157 -326 c-1 -24 -4 -48 -7 -53 -4 -6 -2 -10 4 -10 6 0 14
12 17 26 6 22 8 24 16 10 29 -51 -104 -241 -230 -328 -52 -36 -48 -50 5 -17
57 35 160 137 205 202 28 41 43 56 51 48 19 -19 9 -68 -29 -142 -29 -59 -32
-70 -15 -55 12 11 31 36 44 55 l21 35 10 -33 c5 -19 33 -59 61 -90 76 -84 93
-112 111 -187 20 -87 14 -230 -15 -329 -26 -88 -112 -260 -130 -260 -7 0 -22
23 -32 50 -30 78 -88 153 -158 203 -80 58 -76 42 6 -27 55 -45 69 -64 109
-149 25 -53 50 -105 55 -115 11 -19 3 -41 -11 -32 -5 3 -26 38 -47 78 -38 72
-108 154 -154 177 -18 9 -14 2 17 -31 59 -64 74 -89 29 -48 -113 101 -336 249
-375 249 -8 0 14 -16 50 -35 36 -20 93 -54 128 -78 56 -38 62 -45 62 -76 0
-27 -9 -42 -41 -73 l-40 -38 -77 70 c-100 92 -206 146 -317 162 -79 11 -195 4
-195 -11 0 -5 35 -11 78 -14 139 -11 221 -46 397 -170 55 -39 101 -71 103 -72
13 -8 -39 -94 -127 -210 -62 -81 -130 -186 -163 -250 -51 -98 -57 -106 -58
-76 0 19 -2 32 -4 30 -3 -2 -17 -81 -32 -174 -30 -181 -27 -177 -51 -59 -5 20
-8 -59 -9 -183 0 -260 -9 -320 -75 -523 -58 -175 -99 -345 -99 -405 l1 -40 13
31 c8 18 20 57 27 88 8 36 15 52 20 44 9 -14 5 -167 -7 -236 -6 -39 -9 -43
-30 -38 -36 9 -29 -9 16 -45 22 -18 42 -39 44 -48 16 -62 16 -71 -1 -71 -37 0
-92 -21 -127 -49 -47 -38 -127 -50 -171 -27 -42 22 -52 20 -86 -13 -23 -24
-29 -38 -29 -75 0 -36 4 -48 21 -57 21 -11 21 -9 15 24 -4 19 -2 46 3 60 7 18
7 27 -2 30 -7 2 2 7 20 11 22 5 39 2 56 -9 22 -14 31 -14 85 -2 l60 14 4 -41
c3 -23 8 -49 12 -58 6 -14 4 -18 -11 -18 -10 0 -43 -7 -73 -14 -50 -14 -56
-13 -68 2 -7 9 -11 30 -9 45 3 20 0 26 -10 23 -16 -7 -17 6 -1 22 14 14 4 27
-16 19 -35 -13 -32 -83 4 -126 l20 -23 87 17 c49 9 91 20 95 24 4 3 2 25 -4
48 -9 36 -7 48 9 79 10 20 35 46 55 57 32 19 38 20 64 7 16 -8 32 -16 37 -18
4 -2 4 4 0 14 -5 14 -2 16 18 10 13 -3 36 -9 51 -12 29 -7 34 -14 54 -89 l13
-50 -3 50 c-2 28 -7 58 -11 68 -5 12 -3 17 8 17 18 0 37 -56 37 -107 0 -18 5
-33 11 -33 8 0 10 20 7 65 -5 50 -3 65 8 65 18 0 36 -72 28 -107 -4 -15 -15
-47 -25 -71 -10 -24 -14 -40 -9 -37 20 12 53 90 59 140 l7 50 21 -40 c22 -40
22 -40 23 -11 l0 30 20 -22 c12 -12 25 -22 30 -22 13 0 13 -72 -1 -107 -12
-32 -48 -73 -63 -73 -6 0 -3 5 7 11 18 11 47 60 47 81 0 7 -9 -1 -20 -19 -10
-18 -30 -39 -43 -48 -21 -14 -28 -14 -59 -1 -19 8 -59 18 -89 21 -82 10 -81 8
-58 60 13 28 18 56 15 71 -8 32 -25 31 -19 0 3 -14 -3 -46 -12 -71 -14 -36
-22 -44 -34 -39 -9 4 -40 10 -69 12 -51 4 -55 6 -69 40 -8 19 -13 51 -11 69 5
38 -9 45 -18 9 -7 -31 12 -94 38 -123 30 -33 20 -63 -31 -89 l-44 -22 -34 20
c-59 35 -113 5 -113 -63 0 -61 41 -132 87 -150 24 -9 53 -3 53 12 0 4 -7 6
-15 3 -26 -10 -84 37 -101 83 -20 53 -7 98 33 108 28 7 63 -2 63 -16 0 -6 -9
-5 -22 2 -18 10 -24 8 -40 -11 -21 -26 -23 -41 -5 -34 8 3 13 -4 14 -17 2 -25
22 -51 34 -43 5 3 6 -2 3 -10 -4 -11 0 -16 12 -16 17 0 16 -1 -2 -15 -19 -14
-19 -14 2 -15 12 0 32 8 45 18 51 39 54 37 57 -60 1 -49 -2 -96 -7 -105 -7
-13 -25 -17 -78 -18 -53 -1 -80 -7 -118 -27 -54 -29 -145 -42 -208 -30 l-38 7
66 65 c69 69 86 98 33 58 -18 -13 -75 -48 -126 -78 -91 -52 -95 -53 -200 -62
-59 -4 -144 -15 -190 -24 -76 -15 -84 -15 -100 0 -38 34 -325 146 -374 146
-24 0 8 -18 72 -41 107 -37 106 -38 -94 -59 -55 -6 -102 -13 -105 -17 -9 -9
260 5 298 16 29 9 41 6 103 -26 38 -20 71 -40 74 -44 7 -13 -129 -71 -186 -80
-37 -5 -88 -3 -158 7 -113 17 -148 13 -55 -6 93 -19 93 -21 -1 -40 -85 -18
-120 -31 -80 -29 10 0 71 8 134 18 63 10 116 17 118 16 2 -2 -39 -23 -90 -48
-190 -93 -377 -210 -469 -294 -31 -29 -59 -53 -62 -53 -7 0 -17 116 -22 270
l-5 135 65 54 c36 29 63 56 61 59 -3 3 -29 -15 -58 -40 -29 -25 -64 -48 -78
-51 -14 -3 -35 -15 -47 -27 -28 -26 -68 -26 -86 1 -20 28 -29 9 -12 -24 16
-32 3 -36 -33 -11 -21 14 -22 14 -22 -5 0 -33 -20 -25 -36 14 -20 48 -27 44
-18 -11 7 -47 7 -47 -20 -40 -16 4 -26 2 -26 -5 0 -25 -26 0 -37 37 l-13 39 3
-38 c3 -32 0 -38 -14 -34 -10 3 -20 0 -22 -7 -8 -21 -29 49 -25 87 2 20 0 37
-4 37 -12 0 -21 -48 -15 -85 4 -25 2 -32 -9 -31 -24 4 -26 13 -13 73 9 38 22
68 40 86 38 38 51 35 33 -8 -17 -42 -6 -46 18 -6 9 16 26 34 37 41 21 11 22
10 15 -41 -5 -38 -4 -50 5 -45 7 5 11 -3 11 -23 0 -16 3 -32 8 -35 4 -2 7 22
7 55 0 32 -3 59 -8 59 -4 0 -3 9 3 20 16 30 30 24 30 -12 0 -18 5 -40 10 -48
7 -11 10 -1 11 35 1 42 2 45 8 20 7 -29 7 -29 14 14 8 48 4 59 -15 44 -7 -6
-26 -13 -41 -15 -35 -7 -57 14 -57 52 0 34 15 39 106 33 62 -4 72 -2 104 21
65 47 120 78 132 74 13 -5 -80 -98 -98 -98 -7 0 -14 -7 -17 -14 -3 -8 -22 -18
-41 -21 -19 -4 -41 -14 -48 -23 -11 -14 -10 -15 7 -8 11 4 32 10 48 13 24 5
27 3 27 -21 0 -28 25 -96 35 -96 3 0 3 12 0 28 l-6 27 16 -28 c9 -16 19 -26
22 -24 10 10 -19 77 -33 77 -9 0 -14 11 -14 30 0 38 14 39 30 1 11 -28 50 -72
50 -57 0 4 -9 24 -20 46 -23 46 -27 79 -4 37 20 -37 26 -30 14 14 -12 42 -12
49 -1 49 5 0 12 -16 15 -35 11 -56 26 -51 21 7 -4 47 -4 49 5 21 18 -56 28
-45 24 25 -3 52 -2 60 5 33 5 -18 17 -41 26 -50 16 -15 17 -15 12 0 -3 9 -8
36 -12 60 -5 41 -4 45 27 67 l33 22 6 -42 7 -43 -1 47 c-1 45 2 50 41 80 76
58 35 41 -61 -26 -52 -36 -114 -74 -139 -85 -24 -10 -60 -33 -78 -50 -40 -36
-51 -38 -75 -11 -10 11 -23 20 -28 20 -6 0 0 -11 12 -24 l22 -23 -27 -6 c-36
-7 -105 18 -126 46 -17 21 -18 22 -18 2 0 -12 5 -26 12 -33 15 -15 0 -16 -36
-2 -14 5 -28 20 -32 35 -8 31 -24 33 -25 3 0 -20 -2 -19 -11 7 -6 17 -16 33
-21 37 -17 11 5 102 25 106 14 3 16 -1 8 -27 -15 -52 6 -34 26 22 15 40 24 53
43 55 l24 4 -23 -32 c-24 -33 -37 -98 -26 -127 6 -14 12 -5 26 36 21 59 46
101 59 101 5 0 7 -8 4 -19 -5 -22 14 -98 27 -106 5 -3 8 22 7 60 -2 56 1 69
18 81 11 8 21 11 22 7 1 -4 4 -25 8 -45 9 -57 25 -46 25 17 0 30 4 55 10 55 5
0 7 -7 4 -15 -7 -17 43 -125 57 -125 6 0 5 9 -2 21 -20 39 -29 83 -23 116 3
18 10 33 14 33 4 0 15 -30 24 -67 9 -37 21 -72 28 -78 8 -7 9 -5 4 10 -4 10
-10 54 -13 96 -5 70 -4 78 14 88 28 14 33 6 34 -53 l1 -51 15 60 c7 32 19 66
26 74 10 12 9 14 -6 8 -18 -7 -18 -8 -3 64 3 14 10 59 16 99 6 41 15 79 21 87
14 16 3 17 -54 3 -68 -17 -291 -48 -298 -41 -9 8 7 143 21 186 8 24 24 41 57
59 45 26 49 26 267 27 126 1 210 4 196 9 -14 4 -119 8 -235 9 -168 1 -216 -2
-239 -14 -15 -8 -30 -15 -31 -15 -11 0 -37 100 -50 187 -21 143 -23 137 32
103 87 -52 104 -48 41 9 -70 64 -88 92 -127 200 -48 131 -112 216 -216 285
-66 43 -62 30 14 -46 40 -40 82 -91 93 -112 25 -49 50 -118 44 -123 -2 -3 -29
16 -59 40 -82 67 -237 150 -237 128 0 -5 31 -32 68 -60 67 -49 124 -107 211
-211 41 -49 44 -57 45 -114 l1 -61 -142 3 c-79 2 -143 1 -143 -1 0 -8 130 -27
214 -30 l80 -4 14 -69 c7 -38 22 -85 33 -104 19 -33 19 -38 5 -65 -9 -17 -16
-46 -16 -66 0 -42 -8 -47 -90 -59 -50 -7 -198 7 -262 25 -23 6 -23 6 -3 -10
42 -33 176 -67 265 -67 l85 -1 0 -76 0 -76 -46 1 c-52 2 -242 86 -399 177 -89
51 -95 57 -98 89 l-3 35 82 -23 c111 -32 155 -31 59 2 -110 37 -140 54 -146
79 -6 23 2 65 45 258 10 48 15 87 10 87 -5 0 -10 -10 -10 -22 -1 -18 -3 -17
-8 7 -10 42 -6 45 37 25 88 -42 137 -53 257 -56 66 -2 111 -1 100 2 -11 3 -58
14 -105 26 -47 11 -127 34 -179 51 l-94 30 6 95 c5 77 16 122 57 241 31 90 56
185 65 249 25 169 66 262 159 360 55 58 81 76 96 67 6 -4 -12 -23 -38 -44 -96
-76 -157 -203 -212 -439 -22 -96 -51 -210 -66 -255 -36 -114 -45 -170 -36
-225 6 -45 7 -43 13 39 3 53 19 130 41 205 20 65 50 181 68 258 40 170 97 292
171 371 72 76 79 77 147 14 113 -103 276 -193 420 -230 92 -23 361 -59 435
-58 35 1 -11 10 -138 29 -372 56 -561 147 -794 384 -73 73 -72 87 3 107 53 14
105 41 145 74 l31 27 0 -29 c0 -15 6 -46 12 -68 12 -38 13 -35 18 75 4 89 10
122 25 148 11 18 22 31 26 30 3 -2 26 -28 50 -58 116 -144 366 -250 710 -300
116 -17 321 -28 308 -16 -2 2 -56 11 -119 21 -432 62 -756 195 -874 357 -38
53 -13 61 33 10 43 -48 109 -99 174 -137 61 -35 70 -28 14 12 -83 60 -185 163
-197 198 -20 59 -6 60 44 1 57 -67 138 -126 266 -194 130 -70 206 -97 362
-129 113 -23 157 -27 293 -27 188 0 282 18 425 85 78 36 95 49 137 103 46 58
48 60 51 33 2 -16 -5 -39 -18 -57 -32 -45 -178 -137 -313 -197 -67 -30 -108
-52 -92 -48 48 10 252 92 299 120 48 28 130 101 140 125 5 12 7 12 12 2 3 -7
17 -25 31 -40 23 -26 24 -26 18 -4 -6 21 -5 21 19 11 53 -25 74 -154 36 -228
-26 -51 -122 -138 -246 -220 -193 -130 -255 -149 -514 -159 -211 -7 -186 -20
41 -21 210 -1 314 33 515 167 225 152 282 244 239 386 -18 60 -37 83 -76 91
-16 4 -36 16 -43 28 -19 30 -29 92 -21 128 5 23 12 29 34 29 26 0 141 -52 231
-105 l45 -26 -38 33 c-22 18 -77 56 -125 85 -65 40 -81 54 -68 59 31 12 105
-5 204 -47 210 -90 227 -84 36 11 -74 37 -145 65 -170 68 -24 2 -44 8 -44 12
0 3 51 59 113 123 145 151 163 159 350 165 83 3 133 8 125 13 -7 5 -29 9 -48
9 -32 1 -33 2 -12 11 13 5 74 9 135 8 121 -1 293 25 410 61 38 12 67 23 65 24
-1 2 -50 -5 -108 -16 -106 -19 -488 -39 -496 -26 -6 9 44 47 85 64 19 8 106
35 194 60 160 45 226 69 157 58 -61 -10 -259 -55 -304 -68 -27 -8 -72 -11
-121 -8 l-78 5 88 29 c92 30 276 115 310 143 l20 17 -20 -8 c-41 -14 -75 -16
-75 -4 0 7 7 10 15 6 8 -3 15 -1 15 4 0 5 27 24 61 41 34 16 59 33 56 35 -3 3
-33 -9 -68 -26 -55 -28 -63 -30 -71 -16 -5 9 -27 28 -49 41 -21 14 -39 33 -39
43 0 11 41 44 110 91 133 88 226 176 270 254 l32 58 25 -28 c20 -20 25 -37 25
-70z m-1562 -152 c60 -23 138 -80 157 -114 30 -54 -2 -124 -72 -161 -54 -28
-191 -34 -267 -12 -105 30 -188 107 -188 174 0 34 32 87 62 103 81 44 209 48
308 10z m388 -132 c8 -93 -83 -347 -224 -626 -96 -189 -177 -316 -244 -379
-45 -43 -127 -94 -152 -94 -10 0 -18 -5 -18 -11 0 -14 64 -4 145 23 85 28 228
104 287 152 82 67 96 73 48 20 -64 -69 -84 -94 -76 -94 4 0 32 23 62 51 57 55
63 56 39 10 -23 -46 -113 -118 -200 -161 -118 -58 -231 -82 -395 -83 -114 -1
-126 -3 -80 -10 78 -12 241 -1 331 22 76 19 177 65 232 103 16 11 31 18 34 15
9 -10 -88 -65 -167 -96 -129 -50 -224 -64 -389 -58 -289 11 -534 103 -785 294
-84 64 -155 137 -145 148 3 2 31 -20 63 -50 75 -72 243 -183 359 -240 93 -45
258 -105 286 -105 9 1 -22 13 -69 29 -241 79 -399 175 -590 359 -65 62 -93 96
-102 124 -14 46 -9 53 26 37 23 -11 30 -9 56 10 17 12 30 17 30 12 0 -6 14
-48 31 -95 32 -89 86 -162 152 -208 19 -12 9 1 -24 33 -71 70 -114 156 -140
285 -24 117 -33 338 -14 354 9 8 13 -27 18 -143 4 -84 13 -179 22 -212 49
-190 167 -318 377 -408 125 -54 343 -116 423 -122 63 -4 66 -4 32 6 l-38 11
62 37 c85 50 235 194 322 310 192 254 337 553 353 723 8 90 10 93 37 75 14 -9
23 -26 25 -48z m-894 -40 c35 -27 36 -86 4 -116 -42 -38 -110 -65 -166 -67
-48 -1 -57 2 -79 28 -27 32 -26 62 6 106 47 65 179 93 235 49z m1628 -30 c31
-13 58 -35 58 -48 0 -11 -142 -75 -223 -100 -37 -11 -96 -23 -130 -27 -70 -7
-80 -1 -90 52 -6 30 -5 30 54 43 34 7 107 36 164 65 l103 53 11 -24 c6 -13 18
-23 26 -23 9 0 27 -12 41 -26 15 -14 24 -19 22 -12 -3 7 -23 26 -46 41 -23 16
-42 36 -41 45 0 13 3 12 11 -5 6 -12 24 -27 40 -34z m-2432 -101 c27 -62 34
-137 20 -213 -13 -66 -40 -115 -65 -115 -57 0 -76 294 -23 357 21 26 49 14 68
-29z m1484 -200 c-118 -233 -379 -556 -527 -654 -85 -55 -139 -57 -277 -9
-212 74 -281 118 -313 195 -21 50 -31 120 -18 120 6 0 11 -6 11 -13 0 -7 7
-22 16 -33 15 -18 15 -18 9 10 -6 28 -6 28 32 21 207 -39 359 -31 555 31 212
67 417 210 512 357 29 43 29 31 0 -25z m1336 -447 c6 -25 19 -61 28 -80 24
-52 20 -90 -22 -171 -46 -90 -107 -157 -198 -216 -78 -51 -131 -111 -242 -267
-43 -62 -75 -103 -71 -92 28 76 75 222 75 234 0 32 -20 -8 -80 -159 -34 -85
-72 -173 -85 -194 l-23 -39 2 104 c3 91 7 113 34 176 40 94 95 188 199 341 46
68 97 151 114 185 17 34 47 81 65 104 19 23 34 45 34 49 0 4 15 26 34 49 19
23 38 54 42 69 l7 28 37 -37 c26 -25 42 -53 50 -84z m-3030 -270 c0 -26 -140
-111 -184 -111 -11 0 -35 -17 -55 -38 -20 -21 -65 -58 -101 -82 -141 -95 -200
-160 -263 -292 -50 -106 -67 -166 -87 -297 -19 -130 -18 -132 -45 74 -20 150
-40 539 -31 597 15 95 23 98 395 124 130 8 261 19 291 24 78 11 80 11 80 1z
m-913 -52 c48 -11 101 -21 116 -21 21 -1 26 -5 21 -17 -24 -59 -1 -499 39
-726 18 -107 22 -167 22 -340 -1 -190 -3 -218 -24 -294 -23 -82 -28 -132 -21
-216 3 -31 -6 -61 -39 -130 -68 -146 -63 -140 -120 -143 -28 -2 -51 -8 -51
-14 0 -6 18 -9 45 -6 25 2 45 0 45 -3 0 -8 -52 -19 -86 -19 -12 0 -26 -5 -30
-11 -5 -9 8 -10 45 -7 49 5 52 4 47 -15 -2 -11 2 -39 10 -63 14 -41 13 -49 -6
-112 -11 -37 -29 -83 -39 -102 -19 -35 -19 -35 -25 -10 -3 14 -7 41 -10 60 -3
19 -10 60 -16 90 -5 30 -12 78 -15 105 -2 28 -5 66 -7 85 l-3 35 74 -3 c91 -5
87 10 -9 27 -87 16 -95 27 -104 134 l-7 78 48 -8 c57 -9 224 -5 236 6 4 5 -17
11 -49 14 -66 7 -71 10 -57 40 13 26 16 75 6 90 -4 7 -6 24 -4 39 1 14 -3 29
-9 33 -8 5 -8 11 1 21 9 11 9 20 1 37 -13 27 -13 78 0 94 6 7 6 19 -1 31 -5
10 -10 27 -10 38 -1 10 -1 26 -1 34 -1 8 1 31 3 50 3 19 1 55 -3 80 -5 25 -5
49 -1 55 12 15 12 83 1 90 -6 4 -4 12 5 21 20 20 19 31 -3 43 -21 11 -22 35
-4 69 9 16 10 27 2 42 -7 14 -7 26 -1 39 6 10 8 21 5 24 -6 6 -14 73 -14 115
0 12 -5 22 -10 22 -6 0 -10 -4 -10 -9 0 -14 -58 -31 -107 -31 -30 0 -43 4 -41
12 3 8 22 11 54 10 61 -3 81 8 64 34 -17 27 4 99 36 126 28 25 33 73 7 82 -19
8 -78 -45 -90 -78 -6 -17 -8 -14 -14 19 -10 50 -11 359 -2 368 9 10 12 9 110
-14z m687 -241 c-121 -93 -194 -237 -214 -425 -8 -65 -23 -132 -47 -198 -46
-129 -72 -233 -79 -318 -6 -66 -7 -69 -30 -64 -28 5 -31 -1 -7 -18 15 -11 16
-20 4 -96 -7 -45 -24 -112 -37 -147 -13 -35 -24 -75 -24 -88 0 -37 -16 -28
-40 22 l-23 46 33 161 c28 138 33 188 36 334 5 250 27 369 94 508 62 127 183
259 289 313 40 20 47 21 60 8 13 -14 11 -18 -15 -38z m-694 -349 c0 -9 -8 -20
-17 -24 -16 -6 -15 -8 5 -16 12 -4 22 -16 22 -26 0 -9 -10 -28 -22 -41 -19
-21 -20 -24 -5 -19 24 9 32 -15 16 -45 -7 -13 -12 -28 -11 -35 1 -6 -7 -18
-20 -27 -25 -18 -16 -36 11 -19 26 16 49 0 32 -21 -15 -18 -36 -22 -25 -5 4 7
0 9 -12 6 -50 -15 -94 -18 -113 -8 -29 16 -16 38 26 46 42 8 39 13 -8 19 -20
2 -34 9 -34 17 0 8 8 13 20 11 16 -3 15 1 -9 21 -34 28 -30 66 7 64 54 -2 88
3 81 14 -4 7 -24 9 -50 6 -39 -4 -64 5 -64 24 0 4 19 2 43 -3 27 -5 52 -5 68
1 20 8 14 10 -33 10 -31 1 -60 6 -64 12 -5 9 1 10 20 5 14 -3 26 -2 26 3 0 4
-13 11 -30 15 -44 8 -36 26 13 27 23 0 58 6 77 12 37 13 50 7 50 -24z m9 -305
c2 -2 5 -18 6 -34 1 -24 -4 -34 -27 -48 -33 -19 -36 -32 -8 -32 14 0 20 -7 20
-22 0 -13 3 -33 6 -45 5 -18 2 -23 -12 -23 -11 0 -30 -9 -44 -20 -28 -22 -14
-28 15 -6 24 18 47 0 34 -26 -6 -10 -6 -18 -2 -19 4 0 -5 -5 -20 -9 -32 -10
-97 -2 -97 11 0 5 11 7 24 3 13 -3 27 -1 30 5 5 7 -2 11 -16 11 -39 0 -68 12
-68 27 0 10 6 12 21 8 21 -7 21 -6 5 16 -19 28 -21 53 -3 46 6 -2 23 -7 37
-11 22 -6 21 -5 -5 10 -54 30 -66 44 -54 66 6 11 17 17 25 14 8 -3 21 -9 31
-13 11 -4 14 -3 9 6 -6 9 0 10 21 6 24 -5 25 -5 10 5 -10 7 -25 9 -33 6 -20
-8 -54 11 -54 29 0 11 8 13 33 9 l32 -5 -32 15 c-31 14 -48 34 -20 23 8 -3 29
-1 48 3 31 8 78 4 88 -6z m-3 -333 c2 -46 -11 -55 -64 -45 -25 5 -33 4 -28 -5
4 -6 16 -11 27 -11 12 0 17 -4 14 -11 -4 -6 4 -9 22 -7 25 3 28 0 26 -26 -1
-17 3 -36 9 -43 8 -10 7 -18 -6 -32 -15 -17 -15 -19 -1 -25 11 -4 16 -15 13
-35 -1 -16 3 -35 10 -44 8 -10 9 -17 3 -21 -6 -4 -8 -13 -5 -21 3 -7 -2 -25
-11 -39 -13 -20 -26 -26 -51 -26 -19 0 -34 5 -34 11 0 6 -10 19 -22 28 -22 18
-18 41 8 41 10 0 7 7 -8 22 l-23 23 30 6 c31 6 27 10 -23 25 -22 6 -3 24 26
24 27 1 27 1 -5 15 -48 21 -42 38 10 31 l42 -5 -37 16 c-56 23 -50 44 9 36 34
-4 44 -3 39 5 -4 7 -20 12 -36 12 -16 0 -32 4 -35 10 -4 6 1 7 12 4 17 -5 16
-4 -1 10 -10 8 -24 17 -29 19 -6 2 -8 11 -4 20 5 13 13 16 32 11 15 -4 25 -2
25 5 0 6 8 11 18 12 12 0 11 3 -7 10 -13 5 -35 8 -49 7 -14 -2 -27 2 -29 9 -3
8 15 13 59 16 35 2 65 4 68 5 3 1 6 -16 6 -37z m247 -542 c4 -3 -15 -54 -42
-112 l-51 -105 -55 -4 c-39 -2 -55 1 -55 9 0 7 22 51 48 97 27 46 57 105 66
131 l18 47 32 -29 c17 -15 35 -31 39 -34z m45 -58 c-11 -14 -11 -14 4 -3 14
11 24 8 70 -21 80 -51 178 -98 328 -157 74 -29 139 -56 143 -60 14 -12 -4
-110 -22 -119 -40 -22 -330 59 -576 160 l-71 29 46 93 c59 121 58 121 76 106
12 -9 12 -15 2 -28z m939 -181 c-7 -45 -17 -74 -24 -73 -6 1 -14 -11 -18 -27
-4 -17 -13 -30 -20 -30 -7 0 -19 -13 -27 -30 -9 -21 -18 -28 -30 -25 -9 3 -19
1 -23 -4 -6 -10 -40 -27 -104 -51 -26 -11 -40 -11 -67 -1 -19 7 -38 9 -44 6
-13 -8 -13 -14 9 90 22 99 38 125 104 173 49 35 212 96 234 88 7 -3 14 0 15 7
0 7 3 -1 5 -18 2 -16 -2 -64 -10 -105z m-1106 -20 c29 -16 24 -51 -26 -169
-62 -146 -76 -167 -117 -175 -39 -7 -94 -58 -83 -76 5 -8 13 -6 29 8 11 11 32
25 45 32 21 11 26 10 38 -6 13 -17 11 -20 -24 -27 -62 -12 -84 -29 -109 -82
l-24 -50 6 80 c7 92 14 109 52 129 41 21 68 55 96 118 29 64 56 163 56 202 0
29 25 35 61 16z m215 -84 c170 -65 261 -93 367 -117 52 -11 56 -14 42 -28 -39
-44 -58 -148 -35 -192 6 -10 33 -30 60 -44 30 -15 50 -32 50 -43 1 -9 7 -34
14 -54 12 -34 12 -38 -3 -38 -34 0 -62 13 -57 26 3 7 8 29 12 50 9 47 -11 39
-21 -9 -4 -17 -14 -43 -23 -57 -24 -36 -58 -146 -92 -295 -17 -71 -36 -135
-43 -143 -11 -11 -13 -8 -9 18 5 38 -14 40 -22 3 -3 -16 -11 -72 -16 -127 -8
-75 -17 -114 -40 -162 -36 -73 -108 -150 -153 -162 -29 -7 -33 -5 -48 22 -21
41 -130 129 -205 167 -48 24 -80 32 -150 37 -98 8 -206 -8 -235 -34 -19 -17
-26 -9 -78 93 -34 68 -41 148 -18 190 7 12 55 59 107 105 93 83 170 176 170
207 -1 9 -33 -18 -76 -64 -42 -44 -66 -65 -54 -48 33 50 85 171 106 245 15 55
23 70 46 79 29 12 123 18 132 8 11 -10 -33 -101 -44 -94 -7 4 -4 19 10 42 11
20 19 38 16 40 -6 6 -46 -57 -46 -73 0 -5 -20 -20 -45 -32 -54 -26 -60 -45
-10 -29 19 6 38 8 41 4 16 -16 -59 -140 -134 -221 -90 -97 -122 -153 -122
-213 0 -32 -4 -42 -17 -45 -16 -3 -16 -6 5 -23 12 -11 46 -30 74 -41 l53 -22
-58 -7 c-31 -4 -57 -10 -57 -14 0 -3 71 -6 158 -7 104 -1 140 2 107 7 -27 4
-71 8 -97 8 -35 1 -48 5 -48 15 0 8 -11 28 -25 44 l-25 30 95 7 c52 4 95 11
95 15 0 5 -47 6 -105 3 -95 -5 -105 -4 -99 10 3 10 1 17 -5 17 -6 0 -11 -7
-11 -15 0 -8 -4 -15 -10 -15 -17 0 -11 69 9 109 11 20 47 68 81 106 74 81 136
174 152 227 6 21 15 38 20 38 15 0 8 -25 -37 -125 -25 -55 -45 -102 -45 -105
0 -12 59 100 80 155 35 88 35 88 99 80 45 -5 208 -40 336 -71 11 -2 -2 7 -30
22 -87 47 -185 75 -281 82 l-91 7 18 43 c18 41 20 42 66 43 l48 1 -52 16 c-35
10 -55 21 -59 34 -3 11 -3 22 0 25 3 3 51 1 106 -6 99 -11 197 -15 189 -7 -2
2 -67 14 -144 27 -77 12 -141 24 -143 25 -2 1 6 20 17 42 20 39 81 200 81 211
-1 14 -31 -49 -50 -105 -22 -65 -77 -160 -87 -150 -3 3 13 44 36 92 24 48 52
118 64 155 12 38 22 69 23 69 1 0 78 -29 170 -64z m2805 -472 c46 -8 95 -22
109 -29 22 -12 23 -14 7 -20 -10 -4 -24 -1 -33 6 -27 22 -122 16 -174 -10 -66
-34 -200 -128 -320 -224 -78 -61 -112 -96 -132 -133 -22 -42 -84 -259 -122
-433 -17 -76 -36 -78 -37 -4 -1 32 -5 69 -9 83 -6 17 -8 -7 -7 -69 1 -66 -2
-96 -11 -99 -17 -5 -15 210 2 308 16 90 83 254 134 330 27 39 61 71 122 113
47 31 113 82 147 112 34 31 77 62 95 70 44 19 127 19 229 -1z m-346 -44 c-3
-5 -50 -40 -103 -76 -53 -37 -108 -77 -122 -90 -14 -12 -52 -29 -85 -39 -99
-27 -232 -88 -385 -176 -185 -104 -202 -112 -351 -144 -68 -15 -131 -32 -139
-37 -12 -7 -10 -8 5 -4 11 2 71 14 134 26 137 25 195 47 371 135 147 74 356
165 378 165 29 0 -8 -27 -75 -56 -38 -15 -150 -70 -250 -121 -201 -103 -300
-140 -473 -177 -63 -13 -137 -34 -164 -45 -27 -12 -51 -19 -53 -17 -3 3 6 16
20 30 14 14 21 26 16 28 -5 2 27 63 72 136 44 74 78 136 75 139 -12 12 -112
-98 -159 -174 -27 -46 -55 -83 -60 -83 -6 0 -24 -12 -41 -27 l-30 -28 23 35
c12 19 40 66 63 104 89 146 152 195 435 334 218 107 273 129 351 142 149 25
559 40 547 20z m718 -38 c15 -14 27 -28 27 -32 0 -3 -17 -4 -38 -2 -106 10
-362 -131 -530 -292 -93 -90 -157 -170 -227 -287 -40 -68 -68 -99 -89 -99 -14
0 74 193 137 298 50 86 149 215 220 290 52 53 35 55 -29 2 -140 -114 -289
-330 -345 -503 l-24 -72 -5 80 c-6 101 -20 66 -20 -52 0 -82 0 -83 -30 -98
-30 -15 -30 -15 -41 12 -11 30 17 164 72 338 25 80 34 96 81 141 80 78 212
173 249 181 28 5 30 7 14 13 -16 6 -13 9 20 19 22 6 67 14 100 17 l60 7 -23
-23 c-42 -40 -14 -34 96 18 113 55 217 84 267 75 17 -3 42 -17 58 -31z m76
-87 c62 -33 124 -80 359 -272 l100 -82 18 -73 c9 -40 21 -113 24 -163 l7 -90
1 90 c1 50 -5 117 -12 150 -8 33 -13 61 -12 63 8 7 99 -85 120 -121 76 -131
33 -396 -102 -622 -57 -97 -84 -126 -145 -166 -48 -31 -70 -38 -131 -44 -41
-4 -97 -4 -126 0 l-52 7 55 28 c117 59 143 90 276 322 70 122 122 240 120 276
0 9 -12 -17 -27 -58 -48 -130 -193 -373 -270 -448 -31 -31 -81 -66 -119 -83
-55 -27 -71 -30 -111 -24 -167 25 -373 105 -458 179 -103 88 -264 402 -264
513 0 12 29 39 75 72 41 30 80 60 86 68 25 29 -2 23 -71 -17 -40 -22 -74 -39
-76 -37 -2 2 14 29 36 60 22 32 36 57 32 57 -4 0 -38 -36 -76 -80 -37 -44 -72
-80 -77 -80 -12 0 48 95 118 188 146 192 473 417 612 421 12 1 53 -15 90 -34z
m-2429 -110 c0 -33 7 -100 15 -150 8 -49 15 -115 15 -145 0 -65 16 -129 34
-136 7 -3 24 0 39 5 22 9 31 6 54 -13 26 -23 29 -23 60 -8 18 9 35 13 38 11 2
-3 -2 -27 -11 -54 -17 -57 -23 -183 -11 -239 5 -21 10 -36 13 -34 2 3 11 54
19 114 24 167 30 181 89 211 62 32 81 37 227 68 173 37 240 64 485 190 123 63
230 115 238 115 12 0 10 -11 -10 -56 -14 -31 -36 -95 -51 -143 -23 -76 -26
-105 -27 -241 l-1 -156 -36 -17 c-20 -10 -49 -35 -63 -57 -14 -22 -31 -40 -38
-40 -24 0 -117 -68 -223 -164 -143 -128 -285 -224 -542 -366 -94 -52 -129 -67
-135 -58 -19 29 -88 158 -88 164 0 3 9 -4 21 -17 11 -13 19 -19 16 -14 -2 6
-59 123 -127 260 -186 381 -207 464 -194 788 6 164 9 179 28 192 11 8 32 15
47 15 14 0 34 9 44 20 11 12 28 18 46 17 28 -2 29 -3 29 -62z m-409 -2 c13 -3
47 -7 74 -8 28 -1 56 -2 63 -3 23 -3 40 -63 35 -118 l-5 -52 -97 -6 c-62 -5
-107 -3 -125 4 -35 13 -46 5 -20 -15 15 -13 42 -15 132 -12 76 2 111 0 109 -7
-2 -7 -49 -11 -129 -11 -149 0 -165 7 -142 61 8 19 21 64 30 102 21 95 22 96
38 83 8 -7 25 -15 37 -18z m-708 -428 c63 -16 91 -33 184 -110 77 -64 87 -79
72 -108 -7 -12 -15 -24 -19 -27 -4 -3 -12 -14 -18 -25 -11 -19 -11 -18 -12 6
0 57 -95 149 -188 182 -56 20 -201 47 -255 47 -21 0 -47 -4 -57 -10 -13 -7
-19 -6 -24 5 -16 43 200 71 317 40z m3182 -697 c74 -37 467 -127 558 -128 36
0 28 -12 -29 -44 -57 -32 -108 -46 -199 -56 l-70 -7 80 -2 c71 -1 78 -3 64
-16 -27 -27 -233 -31 -349 -7 -73 16 -90 17 -76 6 40 -28 133 -57 206 -63 l75
-6 -55 -36 c-116 -76 -140 -81 -245 -54 -53 14 -120 46 -195 94 -24 15 -24 15
-11 -2 21 -26 152 -105 204 -123 26 -9 47 -18 47 -20 0 -2 -16 -10 -36 -19
-78 -32 -189 17 -414 183 -144 106 -134 96 -118 121 13 21 38 29 38 12 0 -16
146 -136 201 -166 29 -15 49 -23 46 -18 -4 5 -56 52 -117 104 -60 51 -110 96
-110 99 0 4 26 14 57 24 93 30 127 57 168 135 22 42 49 78 67 89 l30 19 77
-52 c42 -29 90 -59 106 -67z m-536 -260 c91 -83 231 -188 294 -220 33 -16 57
-31 56 -33 -2 -2 -42 5 -89 16 -47 10 -89 18 -95 18 -23 0 44 -29 93 -40 28
-7 52 -15 52 -18 0 -3 -17 -17 -37 -30 -45 -29 -108 -30 -252 -1 -57 12 -105
19 -107 17 -7 -6 114 -44 185 -58 56 -11 62 -14 46 -25 -56 -41 -183 -96 -278
-120 -59 -14 -107 -29 -107 -33 0 -3 29 -6 65 -5 36 1 65 0 65 -1 0 -4 -136
-92 -165 -107 -17 -8 -102 -32 -190 -53 -88 -20 -178 -42 -200 -48 l-40 -11
31 -4 c17 -2 73 4 125 12 51 8 95 13 97 11 2 -2 -14 -13 -35 -24 -68 -34 -195
-54 -365 -55 -86 0 -160 -4 -164 -9 -4 -4 3 -18 16 -32 28 -30 51 -34 25 -5
-10 11 -16 22 -13 25 3 3 36 1 74 -5 38 -5 96 -10 129 -10 l60 0 -49 -35
c-102 -72 -172 -74 -297 -8 -107 56 -126 73 -168 153 -29 54 -30 60 -13 60 10
0 33 -18 50 -39 17 -22 46 -50 64 -63 31 -22 30 -19 -18 51 l-52 73 75 72 c93
88 137 119 205 141 90 29 210 92 278 145 36 28 94 71 129 97 60 44 65 46 75
28 16 -27 78 -96 83 -92 2 2 -10 34 -27 71 -21 47 -26 68 -17 71 6 2 36 9 65
15 l52 12 65 -61 c62 -58 129 -101 157 -101 7 0 -16 20 -52 44 -36 24 -84 64
-108 88 l-42 44 36 17 c30 15 39 15 52 5 14 -11 14 -11 5 7 -9 16 -6 26 18 57
27 33 44 42 88 47 7 0 39 -22 70 -51z m-473 -136 c-8 -14 -212 -161 -273 -198
-30 -18 -99 -50 -152 -71 -114 -44 -132 -55 -235 -150 -72 -67 -103 -88 -94
-64 2 5 42 46 91 90 74 67 109 90 230 150 143 70 331 179 390 226 31 24 53 33
43 17z m1094 -145 l85 -42 -1 -55 c-1 -69 -41 -217 -66 -242 -31 -31 -54 -22
-110 47 -37 44 -59 63 -71 60 -31 -6 -40 33 -30 141 l8 98 30 6 c22 5 70 25
70 29 0 0 38 -18 85 -42z m-217 -114 c-4 -71 -2 -117 4 -125 8 -9 4 -44 -12
-118 -12 -58 -32 -159 -44 -225 -12 -66 -24 -131 -27 -145 -5 -23 1 -28 85
-65 50 -22 91 -43 91 -47 0 -3 -51 15 -114 40 -62 26 -109 50 -103 54 7 4 0
11 -16 17 -22 9 -26 14 -18 28 33 63 148 625 135 665 -10 33 -24 19 -24 -25 0
-71 -48 -310 -95 -481 -25 -88 -45 -168 -45 -179 0 -27 30 -51 98 -78 31 -12
62 -26 68 -31 15 -11 12 -206 -4 -234 -11 -20 -17 -22 -99 -17 -64 3 -84 2
-73 -6 8 -6 30 -11 48 -11 30 0 32 -2 25 -27 -3 -16 -7 -64 -7 -108 -1 -75 -2
-80 -21 -76 -32 7 -620 13 -614 6 3 -3 39 -9 80 -13 l74 -7 3 -58 3 -57 -38 5
c-343 45 -510 81 -610 131 -92 46 -117 72 -108 112 6 30 7 30 39 17 76 -32
380 -99 496 -109 84 -7 52 3 -141 44 -215 46 -375 96 -424 133 -19 15 -19 16
10 79 16 34 30 64 30 65 0 0 34 -10 75 -23 81 -27 168 -37 440 -54 96 -6 253
-20 347 -30 187 -22 224 -23 178 -9 -84 26 -367 60 -675 80 -97 6 -207 20
-247 30 -83 21 -151 62 -159 96 -8 30 4 93 18 93 5 0 8 -7 4 -15 -7 -20 29
-38 144 -69 126 -34 231 -46 435 -51 l170 -4 -188 19 c-224 22 -307 35 -406
62 -115 31 -123 36 -116 72 12 58 16 66 37 66 29 0 104 40 177 94 35 25 75 49
90 52 88 19 134 39 199 83 40 28 92 59 115 69 23 10 92 49 152 87 61 37 144
85 185 105 41 21 100 58 131 84 31 25 62 46 70 46 8 0 29 9 48 21 18 11 35 18
37 16 2 -2 -1 -29 -7 -59 -11 -52 -14 -57 -44 -62 -37 -7 -51 -29 -65 -105
-15 -82 -13 -146 6 -162 17 -14 17 -70 -1 -224 -10 -87 12 -17 31 100 17 103
17 106 -2 132 -19 25 -19 31 -7 121 14 104 23 122 59 122 34 0 55 39 59 112 1
35 3 64 4 65 1 1 14 1 30 0 l29 -2 -5 -112z m130 -230 c31 -24 61 -43 67 -43
6 0 8 -10 5 -22 -3 -13 -21 -99 -41 -192 -19 -93 -40 -179 -44 -192 l-9 -24
-73 35 c-40 19 -78 35 -85 35 -16 0 -16 5 1 66 8 27 21 85 29 129 57 304 51
282 77 263 9 -7 43 -32 73 -55z m-1346 -1006 c93 -34 331 -81 503 -101 123
-15 420 -23 409 -11 -3 2 -56 8 -117 13 -62 5 -114 11 -116 13 -2 2 -1 28 1
57 l6 52 151 -1 c83 0 160 -4 171 -8 16 -6 19 -16 16 -52 -1 -24 -8 -53 -14
-64 -6 -11 -12 -27 -13 -35 -17 -100 -28 -150 -44 -192 -23 -61 -125 -240
-148 -262 -17 -14 -93 -46 -113 -46 -4 0 36 69 88 153 130 204 162 285 132
327 -8 12 -9 8 -6 -14 8 -48 -15 -105 -91 -224 -40 -62 -83 -133 -96 -160 -50
-95 -53 -97 -160 -100 -58 -3 -96 0 -96 6 0 21 35 36 91 39 56 3 117 19 108
28 -2 2 -45 5 -94 6 -94 2 -442 34 -485 45 -16 3 -21 2 -15 -4 13 -13 172 -49
250 -58 78 -9 92 -16 71 -37 -11 -11 -27 -14 -54 -11 -215 30 -473 119 -508
176 -5 8 3 6 19 -4 40 -27 44 -22 11 15 -54 57 -74 89 -90 143 -15 54 -21 130
-11 141 3 3 28 -11 56 -31 81 -60 268 -129 450 -167 146 -30 147 -22 6 25
-291 97 -473 183 -492 232 -9 23 5 29 25 11 24 -22 166 -83 212 -92 l35 -6
-30 19 c-16 10 -62 37 -102 60 -108 63 -130 100 -98 163 l16 29 47 -24 c26
-13 79 -35 119 -49z m-236 -413 c47 -92 127 -140 332 -198 48 -14 118 -30 155
-36 124 -20 115 -12 79 -75 -18 -30 -53 -92 -80 -138 l-47 -85 -103 33 c-209
66 -319 118 -440 207 -76 56 -87 72 -87 121 0 28 10 45 46 83 25 27 60 68 77
92 17 23 33 42 37 42 4 0 17 -21 31 -46z m-46 -371 c107 -80 362 -193 436
-193 10 0 19 -4 19 -8 0 -18 -60 -91 -97 -118 -43 -32 -42 -31 -65 -63 l-16
-23 -69 22 c-111 36 -266 132 -382 236 -57 51 -65 47 -23 -12 76 -105 214
-197 369 -246 120 -37 123 -43 63 -113 -23 -27 -40 -57 -40 -71 0 -23 -2 -24
-72 -24 -79 -1 -76 -13 5 -25 47 -6 49 -8 42 -33 -4 -15 -35 -56 -69 -92 -35
-36 -71 -80 -80 -97 -9 -18 -21 -33 -27 -33 -32 0 -234 97 -321 154 -38 25
-35 7 5 -31 51 -49 155 -111 216 -130 68 -21 66 -20 54 -35 -6 -7 -16 -38 -22
-68 -15 -70 -48 -140 -67 -140 -42 0 -251 119 -321 183 -13 11 -26 17 -30 13
-4 -3 29 -42 73 -85 81 -79 144 -119 222 -140 32 -9 42 -17 42 -32 0 -29 -62
-138 -82 -144 -27 -9 -170 52 -258 110 -44 30 -90 60 -101 66 -20 10 -20 10
-4 -15 36 -55 134 -114 260 -156 55 -19 81 -33 84 -45 3 -16 -3 -17 -58 -12
-34 4 -73 10 -88 13 -17 5 -24 3 -20 -3 4 -6 36 -19 71 -28 l64 -17 -13 -31
c-7 -17 -17 -33 -23 -35 -15 -5 -183 70 -260 116 -76 46 -142 105 -142 129 0
13 7 10 29 -11 l28 -27 -28 58 c-54 110 -49 151 30 276 27 43 59 105 72 139
23 61 23 61 38 38 40 -60 150 -160 226 -205 l30 -17 -30 27 c-189 170 -245
276 -200 380 14 33 18 37 24 21 5 -13 17 19 38 102 34 131 74 225 160 375 l56
98 49 -56 c61 -68 80 -72 34 -7 -41 58 -66 106 -66 125 0 7 14 31 30 53 l31
39 57 -54 c31 -29 84 -74 117 -98z m705 112 c0 -2 -20 -35 -44 -72 -46 -72
-118 -212 -91 -178 9 11 47 70 86 132 l69 111 98 4 c53 2 98 4 99 3 1 -1 -20
-34 -48 -75 -62 -93 -91 -148 -86 -163 2 -6 37 45 78 115 52 90 79 127 93 128
17 0 16 -3 -6 -32 -33 -43 -61 -101 -83 -168 -10 -30 -22 -61 -27 -67 -20 -25
-72 -43 -122 -42 -71 1 -211 22 -210 32 1 5 35 69 75 142 61 110 78 134 97
135 12 0 22 -2 22 -5z m65 -347 c-14 -48 -43 -74 -129 -116 -85 -42 -110 -66
-46 -43 29 10 31 9 25 -12 -4 -12 -9 -31 -11 -42 -14 -54 -31 -79 -82 -115
-56 -41 -84 -52 -62 -25 10 12 10 15 -3 15 -9 0 -28 -5 -44 -11 -31 -12 -173
-28 -173 -19 0 3 23 31 50 63 28 32 50 67 50 77 0 14 5 17 23 13 21 -5 21 -5
3 9 -19 15 -15 20 75 122 l94 106 118 0 c118 0 118 0 112 -22z m-355 -393 c0
-4 -19 -15 -42 -26 -39 -19 -40 -20 -12 -15 18 3 43 8 57 11 l26 7 -36 -67
c-38 -71 -81 -110 -158 -142 -53 -21 -58 -31 -12 -25 l32 5 -21 -24 c-38 -42
-81 -122 -110 -202 -27 -77 -27 -80 -15 -176 11 -85 11 -102 -2 -128 -25 -48
-102 -126 -148 -151 l-44 -23 -110 34 c-118 38 -122 42 -89 95 21 33 37 17 19
-18 -8 -16 -15 -33 -15 -37 1 -4 10 9 21 30 16 31 25 38 42 33 45 -11 184 -16
230 -9 108 18 34 35 -190 44 -45 1 -63 6 -63 16 0 7 5 13 10 13 6 0 10 -4 10
-8 0 -5 15 -6 32 -4 28 4 30 7 16 15 -15 10 -15 13 4 39 11 16 30 54 42 85
l22 57 59 -2 60 -1 -45 16 c-25 9 -46 16 -47 17 -4 3 77 189 89 206 6 8 -1 3
-15 -12 -14 -15 -35 -52 -46 -83 -12 -31 -28 -67 -37 -81 -23 -34 -39 -16 -20
22 9 16 21 54 27 84 19 94 34 111 84 100 31 -7 34 -5 66 44 l34 51 63 3 c36 2
62 7 62 14 0 7 -19 9 -56 5 l-55 -6 25 35 c14 19 37 49 51 67 14 19 25 44 25
55 0 20 5 22 63 23 50 1 85 6 115 18 1 1 2 -1 2 -4z"/>
<path d="M4870 10033 c0 -34 -64 -129 -130 -194 -92 -90 -303 -198 -510 -260
-50 -15 -67 -24 -52 -27 72 -12 394 127 518 224 68 52 147 143 174 200 22 44
26 74 10 74 -5 0 -10 -8 -10 -17z"/>
<path d="M4968 9984 c-5 -4 -8 -16 -8 -26 0 -55 -76 -143 -185 -215 -192 -127
-370 -214 -510 -250 -50 -12 -63 -19 -45 -21 66 -10 208 44 393 150 195 110
301 197 344 281 22 44 29 100 11 81z"/>
<path d="M4018 8753 c-32 -5 -38 -23 -8 -23 41 0 176 -32 231 -56 31 -13 98
-46 149 -74 51 -27 95 -50 99 -50 3 0 -13 18 -34 41 -49 50 -153 125 -201 145
-37 16 -186 26 -236 17z"/>
<path d="M3420 7714 c-96 -7 -221 -12 -278 -11 -66 2 -101 -1 -99 -8 5 -15
195 -18 322 -5 159 16 338 23 391 15 42 -6 47 -10 64 -50 28 -66 44 -69 38 -6
-6 58 3 66 22 20 17 -41 17 -97 2 -569 -14 -426 -19 -500 -32 -500 -5 0 -6 8
-3 18 6 15 5 15 -11 3 -14 -12 -71 -16 -294 -18 -153 -2 -296 -5 -320 -7 -23
-2 -45 0 -48 6 -3 5 -28 8 -55 7 -27 -2 -52 0 -55 4 -10 10 -52 9 -72 -2 -10
-5 -38 -11 -64 -14 -25 -3 -60 -12 -76 -21 -17 -9 -42 -16 -56 -16 -15 0 -30
-8 -36 -19 -7 -13 -16 -17 -32 -13 -15 4 -27 -2 -43 -22 l-22 -28 -92 12 c-50
6 -110 9 -132 5 -65 -11 -27 -25 71 -26 47 0 93 -4 103 -8 17 -6 16 -8 -5 -27
-13 -11 -38 -31 -57 -44 -18 -12 -58 -45 -89 -71 -30 -27 -63 -49 -72 -49 -36
0 -55 -38 -52 -103 2 -63 22 -107 22 -51 l1 29 13 -31 c22 -50 36 -49 17 1 -9
24 -20 47 -24 51 -13 13 -7 41 13 65 l19 24 -6 -37 c-8 -53 10 -48 26 7 15 51
45 81 148 147 37 25 74 52 82 61 19 24 31 21 31 -6 0 -13 6 -32 14 -42 12 -17
14 -13 13 41 0 64 6 84 27 84 10 0 12 -14 9 -52 -3 -56 5 -48 25 22 l10 35 1
-30 2 -30 16 38 c17 40 72 77 116 77 13 0 45 7 72 16 44 16 50 16 76 0 16 -10
29 -13 29 -7 0 5 17 9 38 8 35 -3 38 -5 49 -47 l11 -45 1 38 c1 31 4 38 19 35
14 -3 18 -16 20 -75 3 -72 3 -72 -25 -80 -15 -4 -67 -7 -115 -7 -49 -1 -88 -4
-88 -7 0 -8 54 -19 95 -19 32 0 45 -15 60 -67 9 -32 82 -57 140 -49 91 14 144
95 127 196 -5 30 -13 62 -16 72 -7 14 5 17 91 24 55 4 169 2 258 -4 160 -10
465 2 465 19 0 21 -72 30 -194 23 l-129 -7 9 339 c13 494 12 712 -4 751 -14
31 -36 48 -52 38 -5 -3 -11 -1 -15 5 -8 13 -194 11 -415 -6z m-102 -1160 c68
-14 89 -67 53 -137 -21 -42 -5 -53 22 -14 16 22 16 22 16 1 1 -32 -40 -87 -79
-106 -43 -22 -92 -23 -131 -2 -39 20 -32 28 10 13 37 -13 108 -6 125 11 8 10
1 11 -32 6 -55 -8 -117 8 -136 36 -20 28 -10 41 24 35 15 -4 34 -1 42 6 21 16
38 71 38 118 0 42 1 42 48 33z"/>
<path d="M2923 7713 c-30 -6 -135 -120 -163 -178 -30 -63 -44 -274 -37 -575 6
-255 15 -304 63 -350 41 -41 42 -37 7 30 l-27 52 -8 332 c-10 424 -5 466 76
572 l31 40 0 -245 c0 -135 6 -336 13 -446 18 -290 23 -331 33 -314 10 18 -3
320 -27 605 -24 297 -9 434 48 434 39 0 52 14 33 34 -9 9 -17 15 -18 15 -1 -1
-12 -4 -24 -6z"/>
<path d="M2906 7588 c-7 -37 9 -407 24 -538 6 -47 10 -132 11 -190 1 -110 9
-164 22 -143 9 14 -6 348 -29 661 -8 118 -13 220 -10 228 3 8 2 14 -3 14 -5 0
-11 -15 -15 -32z"/>
<path d="M3122 7544 c-72 -37 -114 -125 -93 -196 43 -143 220 -174 315 -55 42
52 48 137 14 186 -38 57 -71 75 -141 78 -44 3 -72 -1 -95 -13z m156 -24 c43
-26 77 -96 68 -141 -15 -79 -72 -129 -148 -129 -104 0 -164 139 -96 225 50 63
117 81 176 45z"/>
<path d="M3848 7480 c-4 -14 -10 -160 -14 -325 -7 -309 1 -532 17 -503 5 10 8
199 7 435 -2 230 -6 407 -10 393z"/>
<path d="M3285 7130 l-80 -6 110 -3 110 -4 -183 -12 c-100 -7 -185 -15 -189
-19 -3 -3 1 -6 9 -6 9 0 19 -10 23 -22 l8 -23 4 23 c7 37 33 27 33 -13 0 -19
5 -35 10 -35 6 0 10 16 10 35 0 19 5 35 10 35 6 0 10 -17 11 -37 0 -21 4 -56
8 -78 7 -38 8 -35 15 38 7 71 10 77 30 77 15 0 26 -9 33 -27 l11 -28 1 28 c2
43 31 35 31 -9 0 -21 4 -33 10 -29 6 3 10 19 10 36 0 27 3 29 35 29 l35 0 0
-55 c0 -72 17 -71 26 3 l7 57 12 -40 12 -40 4 39 c5 46 25 58 38 24 l10 -23 0
23 c1 36 25 21 32 -19 l5 -34 8 38 c5 20 11 37 15 37 4 0 12 -26 17 -57 l10
-58 8 50 c4 28 9 56 12 63 7 22 24 2 24 -28 0 -44 18 -46 22 -3 2 27 8 39 21
41 10 2 17 -3 17 -12 0 -13 4 -12 21 5 16 16 18 23 8 35 -13 16 -39 19 -39 4
0 -6 -30 -10 -72 -9 -55 1 -66 3 -43 9 36 9 -163 9 -280 0z"/>
<path d="M2897 6467 c-4 -10 -7 -38 -7 -61 0 -47 -17 -62 -75 -68 -27 -3 -30
0 -33 30 -2 18 -8 30 -13 27 -5 -4 -6 -24 -3 -45 6 -36 4 -40 -32 -63 -36 -23
-64 -50 -148 -144 -50 -56 -21 -47 43 13 67 62 167 116 200 107 12 -3 33 -27
48 -55 15 -28 29 -45 31 -39 2 6 -8 32 -22 58 -15 25 -24 48 -21 51 9 10 36
-21 55 -66 28 -62 36 -47 10 19 -24 64 -23 60 -5 53 11 -5 13 -2 9 10 -4 12 0
16 16 16 32 0 57 -17 84 -57 l25 -36 -2 39 c-1 25 -9 45 -22 56 -28 24 -10 22
36 -4 22 -12 42 -32 45 -44 14 -54 -56 -162 -96 -149 -11 3 -28 1 -37 -5 -17
-11 -17 -11 1 -6 10 4 24 1 32 -5 7 -6 22 -8 32 -5 29 10 83 92 89 136 6 41
23 46 23 7 0 -36 -45 -121 -73 -140 -19 -12 -50 -17 -114 -18 -73 -1 -93 -5
-118 -23 -16 -12 -55 -33 -85 -45 -66 -28 -74 -34 -35 -27 17 3 60 22 98 41
67 35 94 40 220 35 45 -2 97 58 118 134 12 44 0 86 -25 86 -7 0 -20 7 -27 17
-26 30 -75 44 -135 37 -30 -4 -61 -12 -68 -19 -6 -7 -34 -15 -61 -19 -27 -5
-66 -16 -87 -27 -51 -26 -58 -24 -18 6 19 14 38 32 43 41 6 10 17 13 35 10 18
-4 37 0 55 13 16 10 37 17 46 14 31 -8 44 21 33 74 l-10 48 -1 -47 c-1 -35 -5
-48 -16 -48 -13 0 -18 17 -28 90 -2 11 -4 11 -10 -3z"/>
<path d="M1190 7873 c0 -38 4 -122 10 -188 5 -66 17 -223 26 -350 9 -126 20
-246 24 -265 16 -71 10 164 -10 400 -12 129 -24 288 -27 353 -6 126 -23 161
-23 50z"/>
<path d="M3992 5743 c-74 -41 -274 -199 -307 -243 -39 -54 -94 -176 -125 -280
-36 -120 -16 -112 24 10 41 123 72 193 109 247 24 37 224 194 315 250 58 35
45 48 -16 16z"/>
<path d="M4580 5546 c0 -8 16 -41 35 -73 57 -94 68 -141 62 -252 -6 -113 -25
-190 -72 -286 -57 -120 -132 -223 -236 -327 l-99 -99 62 33 c82 43 154 116
216 219 113 189 151 293 159 440 5 82 2 106 -17 165 -37 114 -110 233 -110
180z"/>
<path d="M4287 5319 c-39 -4 -91 -19 -120 -33 -56 -28 -166 -120 -156 -130 4
-4 35 11 69 33 88 57 156 81 314 112 41 8 55 14 45 20 -16 10 -56 10 -152 -2z"/>
<path d="M2146 4863 c31 -84 93 -180 147 -230 77 -71 216 -144 271 -142 21 0
20 0 -2 9 -12 5 -59 34 -105 64 -117 77 -215 178 -274 280 -26 47 -51 86 -55
86 -4 0 4 -30 18 -67z"/>
<path d="M3480 3543 c-144 -21 -283 -35 -420 -42 -152 -7 -163 -8 -135 -21 38
-18 250 -18 355 -1 104 17 230 51 230 62 0 5 -1 8 -2 8 -2 -1 -14 -3 -28 -6z"/>
<path d="M2981 3056 c14 -8 80 -31 148 -50 92 -27 154 -38 254 -46 162 -12
200 -13 193 -1 -6 9 -82 21 -286 47 -69 8 -161 24 -205 34 -44 11 -91 22 -105
25 l-25 6 26 -15z"/>
<path d="M3140 2771 c0 -12 15 -17 137 -42 83 -18 144 -21 398 -25 203 -2 290
0 270 6 -37 12 -302 30 -442 30 -90 0 -297 22 -345 36 -10 3 -18 1 -18 -5z"/>
<path d="M2806 2485 c14 -36 165 -102 334 -146 120 -31 310 -51 310 -32 0 6
-69 27 -152 47 -241 58 -338 85 -416 117 -86 34 -83 33 -76 14z"/>
<path d="M2800 2154 c0 -35 120 -97 249 -131 93 -23 271 -45 271 -32 0 3 -46
16 -102 28 -125 27 -267 74 -354 116 -42 20 -64 27 -64 19z"/>
<path d="M2564 1917 c-24 -63 171 -171 438 -242 132 -35 139 -30 21 14 -241
92 -351 148 -420 214 -28 26 -33 28 -39 14z"/>
<path d="M3120 10854 c0 -44 36 -89 118 -145 42 -29 110 -84 149 -123 40 -38
76 -66 80 -62 8 8 -103 116 -191 185 -41 32 -54 47 -42 49 10 2 49 -25 93 -65
131 -117 162 -139 63 -43 -107 104 -143 130 -182 130 -23 0 -31 8 -50 50 -25
56 -38 63 -38 24z"/>
<path d="M3199 10391 c-22 -17 -26 -18 -52 -4 -26 13 -28 13 -25 -3 5 -30 59
-52 153 -63 109 -13 275 -14 275 -2 0 10 -34 15 -205 32 -127 13 -164 22 -132
35 16 6 246 -16 342 -32 22 -4 26 -3 15 5 -9 5 -68 16 -130 25 -220 28 -215
28 -241 7z"/>
<path d="M1797 3323 c-9 -15 -62 -73 -120 -128 -87 -84 -110 -113 -140 -175
-43 -90 -67 -199 -74 -340 -5 -100 7 -214 25 -232 5 -5 9 54 11 129 3 215 36
378 93 471 12 20 66 82 120 139 87 92 121 143 105 159 -3 3 -12 -7 -20 -23z"/>
<path d="M2448 3197 c-22 -45 -110 -140 -199 -213 -221 -181 -207 -163 -290
-352 -32 -73 -117 -167 -227 -252 -97 -74 -115 -102 -40 -57 127 74 232 194
318 365 47 93 61 111 148 190 192 174 236 218 278 276 43 57 52 76 36 76 -5 0
-15 -15 -24 -33z"/>
<path d="M2504 3168 c-11 -35 -109 -133 -224 -223 -143 -112 -184 -159 -236
-271 -84 -182 -154 -269 -286 -355 -44 -29 -76 -55 -70 -57 32 -10 177 101
247 190 30 38 82 122 116 186 34 64 73 132 86 150 14 18 77 75 141 126 131
104 224 199 240 245 6 17 7 31 2 31 -5 0 -12 -10 -16 -22z"/>
<path d="M2110 212 c0 -18 73 -74 128 -100 30 -14 110 -34 181 -46 83 -14 139
-29 163 -44 19 -12 44 -22 54 -21 12 0 3 8 -23 22 -24 11 -43 25 -43 29 0 13
62 9 79 -5 27 -23 99 -47 139 -46 35 0 33 2 -23 18 -33 9 -80 26 -105 38 -33
15 -73 22 -150 26 -157 8 -295 51 -370 114 -17 14 -30 20 -30 15z"/>
<path d="M2862 49 c3 -10 35 -16 119 -21 63 -4 161 -12 219 -18 133 -13 225
-13 193 0 -52 21 -199 39 -362 46 -145 6 -173 4 -169 -7z"/>
</g>
</svg>
