<?xml version="1.0" encoding="UTF-8" standalone="no"?>
<svg
   xmlns:dc="http://purl.org/dc/elements/1.1/"
   xmlns:cc="http://creativecommons.org/ns#"
   xmlns:rdf="http://www.w3.org/1999/02/22-rdf-syntax-ns#"
   xmlns:svg="http://www.w3.org/2000/svg"
   xmlns="http://www.w3.org/2000/svg"
   xmlns:xlink="http://www.w3.org/1999/xlink"
   xmlns:sodipodi="http://sodipodi.sourceforge.net/DTD/sodipodi-0.dtd"
   xmlns:inkscape="http://www.inkscape.org/namespaces/inkscape"
   version="1.1"
   viewBox="0 0 926 1132"
   width="926.0pt"
   height="1132.0pt"
   id="svg1936"
   sodipodi:docname="—Pngtree—dance hip hop dancer cool_3796626-stroke-and-fill.svg"
   inkscape:version="0.92.5 (2060ec1f9f, 2020-04-08)">
  <metadata
     id="metadata1940">
    <rdf:RDF>
      <cc:Work
         rdf:about="">
        <dc:format>image/svg+xml</dc:format>
        <dc:type
           rdf:resource="http://purl.org/dc/dcmitype/StillImage" />
        <dc:title></dc:title>
      </cc:Work>
    </rdf:RDF>
  </metadata>
  <sodipodi:namedview
     pagecolor="#ffffff"
     bordercolor="#666666"
     borderopacity="1"
     objecttolerance="10"
     gridtolerance="10"
     guidetolerance="10"
     inkscape:pageopacity="0"
     inkscape:pageshadow="2"
     inkscape:window-width="1366"
     inkscape:window-height="704"
     id="namedview1938"
     showgrid="false"
     inkscape:pagecheckerboard="true"
     inkscape:zoom="0.34849823"
     inkscape:cx="523.67853"
     inkscape:cy="984.22307"
     inkscape:window-x="0"
     inkscape:window-y="27"
     inkscape:window-maximized="1"
     inkscape:current-layer="g1880" />
  <defs
     id="defs1826">
    <path
       d="M 0.00 0.00 L 926.00 0.00 L 926.00 1132.00 L 0.00 1132.00 L 0.00 0.00 Z M 706.26 142.68 C 698.17 142.39 689.67 145.58 682.11 148.21 C 671.74 152.25 660.61 156.79 651.75 163.61 C 645.91 164.53 639.91 164.52 634.02 165.18 C 618.65 165.96 603.45 168.76 589.00 174.11 C 565.83 181.69 543.07 192.75 523.78 207.75 C 516.56 213.94 508.59 219.16 501.33 225.31 C 490.07 234.62 479.07 244.42 469.21 255.22 C 460.38 264.75 452.51 275.27 444.59 285.57 C 413.18 327.52 385.80 372.55 362.43 419.44 C 360.18 423.64 359.25 428.14 357.46 432.53 C 352.69 444.77 347.21 456.77 341.64 468.68 C 337.62 476.81 334.28 484.92 333.14 494.00 C 330.83 509.80 335.34 526.17 345.56 538.45 C 346.73 539.72 346.03 540.74 345.74 542.17 C 342.52 553.81 340.46 566.06 338.64 577.99 C 337.35 589.05 338.70 600.05 339.81 611.01 C 342.46 630.73 346.43 650.31 351.75 669.49 C 353.10 674.68 355.22 679.46 355.67 684.87 C 359.88 706.75 366.77 728.35 372.02 750.00 C 372.66 753.06 373.67 755.72 372.84 758.88 C 371.05 767.13 369.45 775.43 367.51 783.65 C 359.18 787.55 350.37 790.54 341.71 793.61 C 315.12 802.63 288.26 810.90 261.20 818.39 C 256.69 819.69 251.99 819.87 247.50 821.34 C 230.54 826.46 216.85 836.88 202.84 847.15 C 191.27 845.60 178.73 851.09 166.99 851.60 C 164.65 851.55 162.30 850.70 160.00 850.24 C 143.73 847.36 127.95 846.08 112.02 851.46 C 95.95 853.02 79.93 854.95 63.99 857.51 C 60.99 858.06 56.83 858.35 54.57 860.58 C 51.41 863.82 49.69 868.57 48.64 872.89 C 47.02 878.92 47.21 885.63 47.85 891.80 C 45.78 891.80 43.16 891.24 41.34 892.35 C 33.41 896.90 27.24 904.54 24.29 913.18 C 21.01 923.27 21.59 933.54 20.83 944.00 C 20.75 956.67 20.88 969.33 20.71 982.00 C 20.58 994.25 17.95 1006.78 17.30 1019.01 C 16.32 1030.37 16.23 1041.68 17.86 1053.00 C 19.10 1060.90 21.67 1068.31 24.26 1075.88 C 27.17 1083.88 30.54 1091.92 34.90 1099.25 C 34.65 1099.77 34.40 1100.30 34.14 1100.81 C 31.14 1102.13 28.01 1103.04 25.10 1104.56 C 26.15 1104.99 27.21 1105.42 28.27 1105.83 C 28.55 1107.05 28.77 1108.27 28.93 1109.50 C 24.76 1110.51 20.53 1111.45 16.41 1112.65 L 15.96 1113.66 C 18.42 1113.59 20.72 1113.30 23.09 1112.66 C 23.86 1113.05 24.64 1113.44 25.41 1113.83 C 25.92 1115.94 26.06 1117.96 25.23 1120.02 C 23.72 1121.60 20.91 1121.80 18.87 1122.40 C 14.24 1123.63 9.51 1124.30 4.87 1125.42 C 25.83 1126.98 46.98 1126.75 68.00 1126.75 C 74.11 1126.54 81.48 1127.04 87.19 1124.57 C 91.12 1122.95 94.51 1119.86 95.12 1115.46 C 95.62 1111.01 95.91 1106.57 96.79 1102.15 C 98.90 1097.12 100.89 1092.06 102.60 1086.88 C 103.13 1085.28 103.16 1083.66 103.05 1082.00 C 102.45 1074.68 102.37 1067.33 101.84 1060.00 C 101.93 1056.65 101.60 1052.59 104.06 1049.99 C 107.42 1045.58 109.91 1040.24 112.27 1035.22 C 113.67 1031.95 115.22 1029.11 114.77 1025.41 C 115.95 1024.36 117.02 1023.20 118.06 1022.01 C 119.49 1025.53 124.62 1022.64 126.83 1021.18 C 130.39 1019.33 132.29 1015.77 136.37 1014.42 C 140.40 1013.19 144.82 1011.85 149.01 1012.95 C 152.89 1013.93 156.95 1013.58 161.00 1013.64 C 175.69 1013.70 190.33 1012.92 204.99 1012.02 C 211.21 1011.34 218.10 1011.78 224.11 1010.08 C 229.18 1008.12 233.99 1005.36 238.76 1002.76 C 253.28 994.83 267.50 986.00 282.16 978.39 C 290.20 977.98 298.09 977.46 305.98 975.76 C 312.64 975.12 318.64 972.70 325.01 970.90 C 350.93 962.75 374.16 950.59 398.17 938.33 C 417.35 928.53 436.49 918.66 455.49 908.51 C 463.14 904.21 470.49 901.14 476.59 894.58 C 484.03 887.21 487.91 878.34 493.66 869.81 C 500.70 857.79 507.58 845.66 514.60 833.62 C 518.68 825.53 524.04 818.25 528.23 810.24 C 538.88 790.42 549.55 770.28 561.42 751.20 C 566.27 743.35 571.51 735.78 577.17 728.49 C 582.52 738.22 591.27 746.06 599.40 753.58 C 605.92 759.70 613.42 765.50 619.60 772.11 C 621.60 775.35 624.59 777.24 627.13 780.10 C 627.64 782.62 627.04 785.41 627.25 788.00 C 627.42 795.72 630.85 802.46 635.75 808.25 C 639.05 812.49 644.20 816.18 643.76 822.16 C 635.64 828.48 627.67 835.11 620.46 842.46 C 614.15 848.69 607.83 855.95 604.22 864.12 C 601.55 869.93 601.55 876.50 603.54 882.52 C 604.11 884.62 605.13 886.82 605.18 889.01 C 603.49 900.15 604.24 911.83 605.41 923.00 C 605.58 929.66 605.29 936.34 605.55 943.00 C 605.88 948.22 604.69 952.82 606.02 958.00 C 607.58 965.02 611.75 970.76 617.13 975.40 C 617.14 976.26 617.05 977.11 616.86 977.93 C 613.27 990.95 611.02 1004.40 610.36 1017.89 C 609.85 1020.16 608.30 1022.25 607.44 1024.42 C 603.63 1033.22 602.62 1043.50 602.59 1053.00 C 602.49 1054.85 603.14 1056.42 603.78 1058.10 C 601.15 1058.24 598.52 1058.46 595.91 1058.78 C 585.71 1060.09 575.44 1060.75 565.26 1062.06 C 571.30 1062.64 578.11 1063.07 583.84 1065.23 C 586.88 1066.35 588.90 1068.59 590.58 1071.28 C 588.85 1073.21 586.72 1074.67 584.88 1076.48 C 595.57 1076.76 606.31 1077.40 616.99 1076.98 C 635.09 1075.13 652.58 1079.54 669.01 1086.88 C 689.81 1093.55 712.23 1095.87 734.00 1095.23 C 741.99 1094.57 751.57 1094.43 758.94 1090.91 C 762.27 1089.35 765.09 1087.13 767.75 1084.62 C 771.08 1083.31 776.69 1082.76 777.54 1078.58 C 778.70 1071.03 776.53 1063.73 777.72 1056.16 C 776.12 1052.25 773.41 1048.53 769.96 1046.05 C 767.42 1044.24 764.48 1044.74 762.85 1042.09 C 759.67 1037.81 757.16 1032.86 754.71 1028.14 C 760.23 1028.94 768.16 1030.46 773.01 1026.96 C 775.76 1024.42 776.51 1019.56 776.76 1016.00 C 777.99 1006.89 775.31 997.29 776.07 988.00 C 776.06 980.00 776.02 970.70 770.91 964.06 C 766.25 957.86 760.42 952.45 754.50 947.46 C 751.46 945.23 752.49 940.21 754.86 937.85 C 758.20 934.17 763.14 933.83 767.30 931.30 C 770.05 929.55 772.64 927.89 774.28 924.99 C 777.58 921.95 779.36 918.14 780.97 914.03 C 783.95 907.48 785.40 900.01 786.90 892.99 C 790.15 876.63 791.66 859.61 793.34 843.01 C 794.17 826.96 797.61 810.91 796.63 795.00 C 795.86 773.27 794.46 751.81 794.77 730.00 C 794.48 720.63 796.00 711.38 795.73 702.00 C 795.77 690.24 792.93 678.37 788.51 667.52 C 784.27 657.10 778.49 647.96 772.48 638.53 C 768.96 632.81 765.01 627.40 761.08 621.97 C 739.54 592.32 716.94 563.43 694.89 534.21 C 705.65 534.40 716.76 532.80 727.24 530.43 C 735.36 528.79 743.54 527.68 751.49 525.25 C 759.79 522.90 770.89 520.38 777.18 514.14 C 785.38 505.73 787.79 495.27 789.36 484.01 C 790.45 476.14 790.50 468.81 795.09 461.98 C 801.54 459.03 807.83 455.82 813.46 451.45 C 826.68 441.90 838.96 431.02 850.46 419.48 C 858.11 410.56 866.24 401.72 873.09 392.18 C 876.18 389.06 878.37 385.47 880.80 381.83 C 882.66 378.77 884.82 375.75 884.74 372.01 C 884.91 367.26 882.17 363.89 878.83 360.89 C 883.45 354.28 889.32 348.49 893.70 341.68 C 896.41 337.45 897.47 332.71 897.97 327.77 L 898.92 326.04 C 900.95 325.29 901.75 323.63 902.93 321.97 C 906.80 316.25 910.78 310.65 915.28 305.41 C 919.15 299.68 923.00 291.50 921.39 284.47 C 920.40 282.99 919.02 281.11 917.00 281.35 C 914.01 281.14 911.52 284.06 908.79 285.24 C 908.28 281.86 908.15 278.53 909.27 275.25 C 910.41 271.11 909.91 267.30 906.77 264.21 C 904.18 261.55 900.91 262.61 897.55 262.45 C 897.51 259.85 897.76 257.08 897.25 254.52 C 896.46 252.36 894.91 250.38 893.65 248.47 C 891.25 248.29 888.86 248.24 886.46 248.40 C 885.41 249.69 884.29 250.91 883.08 252.05 C 884.54 246.58 888.05 241.64 890.47 236.52 C 895.97 227.40 900.44 217.78 903.45 207.55 C 904.66 204.76 901.82 201.67 899.21 201.47 C 894.93 201.10 890.68 205.13 888.26 208.28 C 885.71 213.64 882.93 218.95 880.69 224.45 C 880.51 221.96 881.90 219.96 882.78 217.59 C 884.82 212.51 887.24 207.80 888.61 202.48 C 891.80 192.06 895.42 181.74 899.59 171.66 C 900.99 168.15 900.45 163.71 900.30 159.99 C 899.14 146.85 898.15 133.18 899.12 120.00 C 900.60 99.28 897.20 77.81 886.00 60.00 C 880.16 50.92 876.06 40.75 870.18 31.87 C 868.82 29.78 867.25 28.03 864.92 27.02 C 859.64 24.64 853.37 23.64 847.74 22.41 C 841.17 21.02 835.52 17.52 829.71 14.32 C 825.39 11.72 818.86 12.02 814.65 14.69 C 800.64 24.36 786.35 33.74 772.20 43.20 C 765.59 47.33 760.12 52.84 754.22 58.21 C 740.67 71.44 729.68 86.77 724.18 105.08 C 723.04 109.69 720.03 112.78 717.80 116.84 C 713.08 125.00 709.12 133.70 706.26 142.68 Z"
       id="p0" />
    <path
       d="M 829.71 14.32 C 835.52 17.52 841.17 21.02 847.74 22.41 C 853.37 23.64 859.64 24.64 864.92 27.02 C 867.25 28.03 868.82 29.78 870.18 31.87 C 876.06 40.75 880.16 50.92 886.00 60.00 C 897.20 77.81 900.60 99.28 899.12 120.00 C 898.15 133.18 899.14 146.85 900.30 159.99 C 900.45 163.71 900.99 168.15 899.59 171.66 C 895.42 181.74 891.80 192.06 888.61 202.48 C 887.24 207.80 884.82 212.51 882.78 217.59 C 881.90 219.96 880.51 221.96 880.69 224.45 C 879.49 228.03 877.21 231.12 875.61 234.61 C 872.49 241.33 869.34 248.40 867.53 255.59 C 866.54 259.55 866.30 263.51 865.47 267.47 C 865.72 259.93 865.40 252.81 867.54 245.47 C 871.26 232.86 877.52 221.05 881.45 208.53 C 883.28 198.13 886.16 188.16 889.00 178.00 C 892.16 168.42 888.65 156.57 885.68 147.26 C 884.48 142.73 880.84 140.92 876.92 139.09 C 871.09 136.74 865.35 134.83 859.00 136.24 C 851.26 135.60 842.55 131.38 834.87 133.27 C 823.39 134.56 811.49 133.58 800.00 132.65 C 795.77 132.32 791.54 133.46 788.32 136.28 C 783.36 140.61 779.48 145.32 773.54 148.50 C 761.57 154.67 750.39 162.51 739.82 170.82 C 738.55 171.99 736.51 173.13 736.64 175.09 C 736.52 179.68 736.14 184.13 734.58 188.49 C 733.53 192.24 730.74 194.79 729.47 198.44 C 727.13 205.33 727.85 212.10 729.46 219.04 C 729.12 221.17 728.08 223.22 727.32 225.24 C 726.01 228.37 725.34 231.34 722.66 233.66 C 719.28 236.77 715.45 240.65 711.02 242.14 C 709.07 242.88 707.69 241.81 706.93 240.07 C 702.11 229.66 695.24 218.96 685.73 212.27 C 677.90 206.63 668.33 204.50 658.81 205.91 C 661.88 210.86 669.58 214.50 671.50 220.42 C 655.26 219.41 638.59 221.27 624.09 229.10 C 611.39 235.94 601.93 246.97 595.67 259.84 C 589.72 271.80 586.49 284.18 583.51 297.13 C 582.43 302.09 580.49 306.77 580.33 311.73 C 583.04 294.94 591.47 278.97 601.18 265.18 C 606.39 257.80 612.15 250.98 619.04 245.10 C 621.59 243.11 624.55 240.78 628.01 241.55 C 633.65 242.49 639.07 244.98 643.76 248.21 C 645.23 249.18 646.18 250.51 647.13 251.96 C 645.75 253.52 644.29 254.83 643.61 256.85 C 641.27 263.59 641.39 270.01 640.82 277.00 C 640.72 283.20 640.43 289.99 642.12 296.00 C 645.62 305.45 653.19 314.91 655.24 324.85 C 655.79 329.43 655.07 333.67 656.81 338.15 C 658.24 342.36 661.72 344.30 663.73 348.28 C 666.84 354.70 668.58 361.93 669.38 368.99 C 670.43 381.71 667.10 393.92 668.44 406.75 C 670.83 406.72 672.06 405.18 673.82 403.82 C 684.55 394.59 694.77 384.75 705.47 375.48 C 707.38 373.83 709.35 372.52 712.01 372.99 C 717.00 373.71 721.79 377.24 725.65 380.32 C 728.07 382.40 731.25 384.77 732.07 387.99 C 735.40 398.42 735.50 408.59 736.24 419.23 C 738.33 418.13 739.31 415.35 740.37 413.35 C 745.11 402.92 747.74 390.90 750.33 379.79 C 753.55 382.10 754.62 387.36 756.36 390.80 C 756.57 385.59 757.24 380.41 757.51 375.20 C 759.03 375.90 759.69 377.18 760.45 378.57 C 763.19 383.70 765.21 389.13 767.37 394.62 C 768.05 396.29 768.49 397.91 769.83 399.18 C 768.56 390.89 764.62 383.03 763.64 374.71 C 766.96 376.12 769.19 382.26 773.02 382.24 C 772.93 376.66 769.39 373.61 767.27 368.88 C 766.48 366.15 769.35 366.15 771.00 364.97 C 775.09 362.03 777.73 356.93 782.20 354.18 C 786.43 351.46 791.84 348.73 797.01 349.48 C 803.82 350.38 808.98 353.68 815.10 356.08 C 813.54 350.57 809.30 347.99 804.59 345.39 C 799.53 342.49 794.54 340.48 788.86 339.12 C 789.39 337.83 790.93 337.75 792.10 337.38 C 799.88 335.56 807.73 335.33 815.12 338.74 C 812.63 335.00 807.24 333.54 803.01 333.11 C 798.64 332.35 794.55 333.26 790.21 333.60 C 792.14 324.70 801.44 319.52 810.00 319.19 C 818.41 318.67 825.49 321.70 832.97 325.05 C 849.31 332.86 863.88 344.26 877.14 356.47 C 879.29 353.00 880.65 349.11 882.61 345.52 C 884.29 341.95 886.59 338.66 888.11 335.02 C 888.65 331.25 886.82 326.95 885.36 323.52 C 880.12 312.80 872.02 303.18 863.23 295.19 C 869.19 297.11 874.49 300.82 879.34 304.69 C 885.06 309.54 890.40 315.32 894.20 321.82 C 895.47 323.97 895.96 326.15 897.97 327.77 C 897.47 332.71 896.41 337.45 893.70 341.68 C 889.32 348.49 883.45 354.28 878.83 360.89 C 882.17 363.89 884.91 367.26 884.74 372.01 C 884.82 375.75 882.66 378.77 880.80 381.83 C 878.37 385.47 876.18 389.06 873.09 392.18 C 874.10 388.80 875.76 386.22 874.44 382.59 C 872.32 377.15 867.46 372.63 862.92 369.12 C 858.32 366.13 853.05 364.03 847.99 361.94 C 842.92 360.07 838.18 358.32 832.72 359.84 C 832.94 365.69 834.39 372.07 831.58 377.58 C 830.49 379.71 828.32 380.66 825.99 380.11 C 818.57 378.81 814.02 373.33 809.15 368.16 C 809.84 374.36 812.74 380.11 813.26 386.40 C 807.50 385.85 801.95 381.64 799.30 376.55 C 796.59 374.74 793.13 373.35 789.99 372.46 C 787.63 371.79 785.64 375.67 786.65 377.45 C 791.28 384.28 793.67 393.34 792.36 401.52 C 789.93 407.28 785.00 413.16 778.73 414.82 C 777.76 420.28 778.73 425.24 775.60 429.59 C 773.56 432.49 772.31 435.35 771.33 438.75 C 771.67 433.13 772.79 427.64 772.71 421.98 C 772.66 418.82 775.97 416.31 775.71 412.99 C 775.74 411.12 774.43 409.92 773.08 408.84 C 772.21 416.18 767.36 420.01 763.96 426.01 C 764.27 427.57 764.55 429.13 764.80 430.69 C 763.30 431.18 761.79 431.64 760.27 432.04 C 759.49 428.62 758.94 424.83 757.32 421.69 C 756.77 420.85 755.26 419.32 754.24 420.24 C 752.32 424.26 752.63 429.49 751.81 433.87 C 750.85 439.77 749.67 447.05 746.06 451.98 C 744.36 452.53 744.80 448.95 744.64 448.00 C 744.89 437.15 746.98 426.15 746.50 415.09 C 745.79 416.21 745.11 417.36 744.53 418.56 C 740.80 426.85 736.52 434.94 731.55 442.55 C 729.77 445.07 728.19 447.73 725.57 449.43 C 725.15 441.70 728.07 433.50 729.86 426.00 C 732.40 417.83 731.16 409.07 728.90 401.00 C 728.23 399.72 728.50 397.65 726.51 398.23 C 724.56 411.16 717.78 423.39 708.55 432.55 C 705.89 434.88 702.14 438.56 698.30 437.75 C 697.24 430.04 703.21 421.88 705.10 414.83 C 699.55 417.39 695.20 422.71 690.14 426.03 C 693.37 419.96 698.52 413.84 700.02 407.08 C 693.14 412.75 685.85 419.69 677.88 423.83 C 675.34 425.38 670.93 424.17 670.59 427.96 C 670.01 433.36 673.71 436.13 675.28 440.83 C 677.29 446.58 678.47 452.66 680.56 458.40 C 681.87 462.06 684.10 465.22 685.18 468.99 C 686.95 474.27 688.27 479.53 692.74 483.25 C 695.13 485.34 697.89 485.86 700.84 486.71 C 697.06 487.95 692.92 488.19 689.00 488.88 C 684.79 489.39 680.17 490.14 675.97 489.36 C 665.98 481.39 655.03 479.21 643.56 473.86 C 643.87 475.46 644.81 476.62 645.65 477.97 C 641.73 475.67 638.78 471.41 636.30 467.68 C 629.05 456.35 623.87 443.32 617.48 431.48 C 615.11 426.95 611.95 422.94 609.58 418.40 C 600.46 401.61 592.35 384.24 583.77 367.18 C 576.15 352.04 568.73 336.52 559.99 322.00 C 558.21 319.36 556.51 315.90 553.64 314.37 C 542.65 307.81 532.10 300.05 523.07 290.96 C 514.12 281.59 506.67 271.46 503.53 258.67 L 503.38 258.64 C 502.27 263.24 503.07 268.28 502.82 273.00 C 502.15 287.65 508.07 302.12 515.50 314.47 C 516.23 315.78 516.18 317.02 514.55 317.47 C 509.68 318.56 503.89 316.54 499.46 314.54 C 489.05 309.59 479.76 301.45 471.80 293.20 C 470.93 292.39 470.01 291.66 469.08 290.94 C 469.66 295.26 471.38 298.96 473.13 302.91 C 476.93 311.31 481.67 319.19 488.43 325.56 C 493.73 330.88 499.90 334.01 506.30 337.70 C 507.98 338.83 510.21 339.73 510.91 341.75 C 497.99 337.52 485.30 332.38 473.63 325.35 C 467.44 321.56 461.28 317.02 456.50 311.53 C 454.97 309.77 454.03 307.70 452.41 306.06 C 453.29 313.41 458.22 320.50 463.28 325.69 C 472.13 334.60 483.49 341.24 495.19 345.67 C 512.67 352.32 531.35 356.14 549.89 358.35 C 549.62 361.81 547.97 365.17 546.08 368.03 C 543.35 371.08 540.56 373.94 538.47 377.51 C 527.92 394.37 521.32 414.35 511.82 431.83 C 509.99 435.42 506.69 436.78 503.97 439.98 C 495.98 448.93 492.89 460.30 491.73 471.99 C 490.98 482.71 491.64 493.37 493.10 504.00 C 493.81 507.13 491.10 510.03 489.25 512.26 C 482.02 520.22 473.08 526.88 464.98 533.93 C 462.31 536.23 460.46 538.76 457.09 540.13 C 452.54 542.29 447.73 543.01 442.89 544.12 L 442.02 544.84 C 449.34 552.97 460.51 556.51 470.99 558.23 C 477.77 559.49 484.56 557.85 490.47 554.47 C 492.80 553.21 494.87 551.53 497.17 550.25 C 497.82 550.17 498.47 550.36 499.12 550.82 C 502.73 552.99 507.24 556.01 508.89 560.05 C 509.96 562.21 509.14 564.91 507.72 566.70 C 504.79 568.90 500.50 569.61 496.99 570.35 C 485.78 572.35 474.35 573.17 462.99 573.66 C 459.06 573.92 455.89 572.24 452.56 570.41 C 448.54 568.12 444.37 565.04 441.82 561.12 C 440.53 558.92 441.18 557.14 441.97 554.95 C 433.78 553.87 425.84 551.42 418.61 547.42 C 415.83 545.82 413.36 543.97 411.91 541.04 C 410.23 538.09 410.30 534.96 409.21 531.91 C 408.45 529.98 406.70 530.37 405.00 529.83 C 397.07 528.07 388.24 525.66 379.97 526.80 C 375.58 527.36 372.07 530.18 369.96 533.98 C 368.66 536.03 367.95 538.83 365.99 540.26 C 364.77 537.82 364.36 534.48 362.63 532.42 C 360.52 531.16 358.59 534.31 357.85 535.87 C 356.10 541.80 357.94 547.13 358.97 552.80 C 353.21 554.63 351.29 559.89 348.79 564.83 C 347.33 568.06 345.74 571.40 345.52 574.98 C 344.65 591.50 346.86 607.63 349.27 624.01 C 349.78 627.33 350.15 630.60 351.30 633.79 C 351.30 622.57 352.88 611.22 353.94 600.01 C 355.25 591.24 355.77 581.85 358.53 573.41 C 360.49 572.00 362.65 573.58 363.71 575.32 C 367.72 581.94 366.09 588.71 369.31 595.53 C 374.06 606.31 382.69 615.83 390.21 624.81 C 391.96 627.08 394.79 629.30 395.52 632.11 C 397.52 639.77 402.10 646.80 407.88 652.15 C 410.33 654.31 412.57 656.37 415.87 657.07 C 414.77 650.76 413.15 644.39 412.72 638.00 C 412.66 635.95 412.72 632.83 414.26 631.28 C 414.85 630.91 415.49 631.08 416.19 631.79 C 418.11 633.54 419.66 635.77 421.18 637.86 C 426.35 645.10 431.18 652.59 435.80 660.19 C 448.56 681.95 461.41 703.18 471.64 726.32 C 474.48 733.00 477.61 738.89 478.69 746.07 C 480.74 758.26 481.47 771.97 477.92 783.93 C 477.61 785.60 475.76 784.87 474.81 784.24 C 469.79 780.82 465.55 776.00 461.38 771.61 C 456.48 766.49 452.43 760.58 447.47 755.53 C 444.61 752.80 441.71 750.08 437.59 749.64 C 437.71 755.41 439.78 762.02 443.43 766.55 C 445.83 769.57 449.08 769.93 452.12 771.86 C 455.25 774.32 457.47 778.18 459.34 781.64 C 463.84 790.50 467.09 800.43 470.28 809.83 C 471.29 812.94 472.53 815.85 473.05 819.10 C 468.67 816.03 465.76 810.85 462.10 806.96 C 459.40 803.65 456.06 802.43 454.42 798.52 C 449.58 787.95 446.61 777.13 439.23 767.75 C 434.27 761.52 425.73 758.84 418.00 758.94 C 414.06 759.18 409.10 760.21 406.49 763.46 C 404.65 765.62 404.86 768.65 405.83 771.15 C 407.70 775.69 411.33 779.77 414.73 783.26 C 421.03 789.35 427.90 795.01 435.36 799.63 C 436.69 800.51 438.37 801.19 439.44 802.38 C 441.78 810.06 444.54 817.39 448.76 824.28 C 450.95 827.87 453.98 829.88 455.39 833.84 C 457.88 841.17 457.36 848.50 455.86 855.97 C 454.60 860.86 450.92 864.27 446.59 866.57 C 441.96 869.06 435.89 870.61 430.70 869.39 C 426.03 867.38 422.84 861.73 420.61 857.39 C 418.16 852.87 416.82 847.91 414.64 843.30 C 411.53 840.54 406.34 841.71 402.41 840.83 C 401.53 838.53 400.80 833.66 398.00 832.98 C 396.21 834.22 395.11 836.81 392.93 837.89 C 391.54 838.67 389.69 838.67 388.13 838.86 C 379.15 839.35 370.25 841.68 361.82 844.73 C 358.03 846.03 356.31 848.92 353.45 851.45 C 342.20 861.41 330.14 869.96 318.06 878.77 C 325.26 876.49 332.02 872.66 339.31 870.65 C 338.49 875.39 335.51 879.95 332.85 883.89 C 331.52 886.02 329.35 886.65 327.02 887.13 C 318.65 888.46 310.38 888.99 302.00 887.30 C 294.34 885.79 286.84 884.78 279.00 885.02 C 277.25 885.22 274.73 885.15 273.33 886.36 C 271.71 888.47 270.49 890.68 268.26 892.26 C 259.57 899.06 249.85 904.75 240.34 910.32 C 232.28 915.83 220.47 913.99 211.70 918.69 C 209.96 919.68 207.64 921.85 208.69 924.04 C 210.93 929.24 215.33 933.75 219.53 937.45 C 228.11 944.65 237.89 950.34 248.12 954.87 C 252.63 957.03 258.81 960.67 260.10 965.88 C 253.74 964.73 247.50 963.44 241.00 963.37 C 233.66 963.46 226.00 961.11 219.01 959.00 C 205.71 954.81 192.70 949.80 180.16 943.69 C 174.00 940.70 168.12 936.50 163.87 931.08 C 161.41 927.91 159.52 924.08 159.50 920.00 C 159.46 917.47 161.15 914.98 162.19 912.72 C 152.53 913.98 141.88 916.21 133.65 921.68 C 129.32 924.42 127.66 928.91 123.13 931.18 C 116.39 934.40 109.35 934.81 101.99 934.40 C 92.85 933.72 83.88 931.45 75.80 927.04 C 76.16 942.57 81.76 955.83 86.98 970.13 C 83.98 968.80 81.56 966.03 79.27 963.74 C 71.28 954.98 65.19 944.29 60.38 933.51 C 59.44 931.62 58.87 929.08 57.20 927.76 C 56.20 934.15 57.83 939.92 59.70 945.94 C 53.22 937.04 49.09 926.18 47.62 915.28 C 47.51 909.28 48.04 903.66 50.26 898.04 C 49.36 895.99 48.48 893.95 47.85 891.80 C 47.21 885.63 47.02 878.92 48.64 872.89 C 49.69 868.57 51.41 863.82 54.57 860.58 C 56.83 858.35 60.99 858.06 63.99 857.51 C 79.93 854.95 95.95 853.02 112.02 851.46 C 127.95 846.08 143.73 847.36 160.00 850.24 C 162.30 850.70 164.65 851.55 166.99 851.60 C 178.73 851.09 191.27 845.60 202.84 847.15 C 216.85 836.88 230.54 826.46 247.50 821.34 C 251.99 819.87 256.69 819.69 261.20 818.39 C 288.26 810.90 315.12 802.63 341.71 793.61 C 350.37 790.54 359.18 787.55 367.51 783.65 C 369.45 775.43 371.05 767.13 372.84 758.88 C 373.67 755.72 372.66 753.06 372.02 750.00 C 366.77 728.35 359.88 706.75 355.67 684.87 C 355.22 679.46 353.10 674.68 351.75 669.49 C 346.43 650.31 342.46 630.73 339.81 611.01 C 338.70 600.05 337.35 589.05 338.64 577.99 C 340.46 566.06 342.52 553.81 345.74 542.17 C 346.03 540.74 346.73 539.72 345.56 538.45 C 335.34 526.17 330.83 509.80 333.14 494.00 C 334.28 484.92 337.62 476.81 341.64 468.68 C 347.21 456.77 352.69 444.77 357.46 432.53 C 359.25 428.14 360.18 423.64 362.43 419.44 C 385.80 372.55 413.18 327.52 444.59 285.57 C 452.51 275.27 460.38 264.75 469.21 255.22 C 479.07 244.42 490.07 234.62 501.33 225.31 C 508.59 219.16 516.56 213.94 523.78 207.75 C 543.07 192.75 565.83 181.69 589.00 174.11 C 603.45 168.76 618.65 165.96 634.02 165.18 C 639.91 164.52 645.91 164.53 651.75 163.61 C 660.61 156.79 671.74 152.25 682.11 148.21 C 689.67 145.58 698.17 142.39 706.26 142.68 C 709.12 133.70 713.08 125.00 717.80 116.84 C 720.03 112.78 723.04 109.69 724.18 105.08 C 729.68 86.77 740.67 71.44 754.22 58.21 C 760.12 52.84 765.59 47.33 772.20 43.20 C 786.35 33.74 800.64 24.36 814.65 14.69 C 818.86 12.02 825.39 11.72 829.71 14.32 Z M 723.41 216.00 C 726.14 211.01 723.92 203.43 723.74 198.00 C 723.73 192.15 722.60 185.63 723.65 179.94 C 724.65 178.19 725.97 176.66 726.91 174.89 C 730.14 168.00 730.21 161.02 731.82 153.85 C 739.65 134.72 745.73 114.77 753.64 95.66 C 757.07 89.69 759.07 83.19 761.89 76.94 C 759.33 78.93 757.43 81.90 755.38 84.41 C 741.87 102.36 731.21 123.04 726.52 145.11 C 723.97 157.19 722.28 169.64 722.58 182.00 C 722.36 187.73 723.72 193.26 723.30 199.00 C 723.63 204.68 723.09 210.33 723.41 216.00 Z M 862.85 84.79 C 867.49 85.90 872.61 85.37 876.93 87.08 C 879.49 88.16 881.59 90.60 880.35 93.49 C 878.66 95.84 876.09 97.89 873.02 97.59 C 863.15 97.69 853.31 100.73 844.99 106.00 C 844.25 106.43 843.96 107.02 844.13 107.75 C 854.47 110.87 866.02 109.63 875.93 115.75 C 871.93 115.87 867.99 115.19 864.00 115.29 C 858.64 115.36 853.26 116.02 848.00 117.06 C 844.61 117.84 840.99 118.65 838.08 120.62 C 843.33 119.10 851.76 116.54 856.34 120.64 C 859.61 123.96 863.29 128.53 867.68 130.37 C 871.24 131.21 874.82 131.25 878.25 132.70 C 879.49 132.96 881.43 134.31 882.60 133.66 C 884.27 130.72 885.17 127.27 885.94 124.00 C 888.56 111.56 888.63 98.52 886.68 85.98 C 886.55 83.32 884.34 81.85 882.14 80.84 C 876.62 78.95 870.04 80.47 864.89 82.86 C 863.98 83.19 863.29 83.83 862.85 84.79 Z M 718.53 196.60 C 719.82 179.36 721.21 162.16 723.30 144.99 C 724.39 137.86 724.96 129.95 727.41 123.15 C 730.79 114.43 732.69 105.06 734.97 96.00 C 735.93 91.37 737.35 86.75 737.80 82.03 C 729.51 95.02 724.95 110.83 722.90 126.01 C 721.96 136.38 720.60 146.73 718.91 157.01 C 717.80 165.72 716.34 174.16 716.55 183.00 C 716.65 187.42 716.66 192.52 718.53 196.60 Z M 745.39 137.98 C 747.88 137.01 749.65 134.36 751.34 132.37 C 756.24 125.89 760.90 119.44 767.00 114.00 C 769.87 111.23 773.62 108.97 775.54 105.56 C 777.34 102.48 778.81 99.29 779.14 95.69 C 775.23 97.99 772.17 101.76 768.87 104.84 C 759.75 114.22 749.60 125.40 745.39 137.98 Z M 479.21 437.95 C 485.43 429.47 491.21 420.04 495.41 410.39 C 496.79 407.02 498.19 403.79 498.65 400.13 C 491.69 410.70 485.94 422.19 480.59 433.65 C 479.91 435.02 479.51 436.45 479.21 437.95 Z M 420.06 538.04 C 423.33 537.57 426.22 534.72 428.59 532.58 C 433.27 527.87 432.64 522.30 435.83 516.85 C 439.60 510.16 444.31 503.94 448.66 497.62 C 455.82 487.66 462.69 477.51 469.01 467.00 C 471.26 463.11 471.58 458.23 473.16 454.00 C 474.50 449.19 476.77 444.70 478.03 439.89 C 475.45 441.96 473.83 445.17 471.70 447.69 C 463.68 457.83 455.33 468.09 445.62 476.66 C 443.26 479.05 439.76 479.15 437.52 481.52 C 433.61 485.56 430.76 490.69 429.00 496.01 C 427.55 500.67 426.92 505.39 428.93 510.00 C 431.21 515.24 429.16 519.97 426.63 524.61 C 424.38 528.87 420.57 533.23 420.06 538.04 Z M 202.14 852.87 C 204.23 850.80 206.10 848.73 206.91 845.83 C 204.69 847.48 203.39 850.46 202.14 852.87 Z M 181.90 917.90 C 181.23 913.85 179.90 910.11 179.57 906.01 C 178.96 897.32 179.54 888.44 182.02 880.07 C 185.58 876.02 189.97 872.58 193.83 868.80 C 194.84 867.80 195.30 866.20 195.86 864.92 C 197.21 861.23 199.21 857.89 200.82 854.32 C 192.09 863.45 181.97 871.18 173.56 880.54 C 170.71 883.97 167.81 887.20 168.31 892.00 C 168.87 899.96 171.41 908.32 176.25 914.74 C 177.91 916.87 179.19 917.64 181.90 917.90 Z"
       id="p1" />
    <path
       d="M 761.89 76.94 C 759.07 83.19 757.07 89.69 753.64 95.66 C 745.73 114.77 739.65 134.72 731.82 153.85 C 730.21 161.02 730.14 168.00 726.91 174.89 C 725.97 176.66 724.65 178.19 723.65 179.94 C 722.60 185.63 723.73 192.15 723.74 198.00 C 723.92 203.43 726.14 211.01 723.41 216.00 C 723.09 210.33 723.63 204.68 723.30 199.00 C 723.72 193.26 722.36 187.73 722.58 182.00 C 722.28 169.64 723.97 157.19 726.52 145.11 C 731.21 123.04 741.87 102.36 755.38 84.41 C 757.43 81.90 759.33 78.93 761.89 76.94 Z"
       id="p2" />
    <path
       d="M 882.14 80.84 C 884.34 81.85 886.55 83.32 886.68 85.98 C 888.63 98.52 888.56 111.56 885.94 124.00 C 885.17 127.27 884.27 130.72 882.60 133.66 C 881.43 134.31 879.49 132.96 878.25 132.70 C 874.82 131.25 871.24 131.21 867.68 130.37 C 863.29 128.53 859.61 123.96 856.34 120.64 C 851.76 116.54 843.33 119.10 838.08 120.62 C 840.99 118.65 844.61 117.84 848.00 117.06 C 853.26 116.02 858.64 115.36 864.00 115.29 C 867.99 115.19 871.93 115.87 875.93 115.75 C 866.02 109.63 854.47 110.87 844.13 107.75 C 843.96 107.02 844.25 106.43 844.99 106.00 C 853.31 100.73 863.15 97.69 873.02 97.59 C 876.09 97.89 878.66 95.84 880.35 93.49 C 881.59 90.60 879.49 88.16 876.93 87.08 C 872.61 85.37 867.49 85.90 862.85 84.79 C 863.29 83.83 863.98 83.19 864.89 82.86 C 870.04 80.47 876.62 78.95 882.14 80.84 Z"
       id="p3" />
    <path
       d="M 737.80 82.03 C 737.35 86.75 735.93 91.37 734.97 96.00 C 732.69 105.06 730.79 114.43 727.41 123.15 C 724.96 129.95 724.39 137.86 723.30 144.99 C 721.21 162.16 719.82 179.36 718.53 196.60 C 716.66 192.52 716.65 187.42 716.55 183.00 C 716.34 174.16 717.80 165.72 718.91 157.01 C 720.60 146.73 721.96 136.38 722.90 126.01 C 724.95 110.83 729.51 95.02 737.80 82.03 Z"
       id="p4" />
    <path
       d="M 779.14 95.69 C 778.81 99.29 777.34 102.48 775.54 105.56 C 773.62 108.97 769.87 111.23 767.00 114.00 C 760.90 119.44 756.24 125.89 751.34 132.37 C 749.65 134.36 747.88 137.01 745.39 137.98 C 749.60 125.40 759.75 114.22 768.87 104.84 C 772.17 101.76 775.23 97.99 779.14 95.69 Z"
       id="p5" />
    <path
       d="M 800.00 132.65 C 811.49 133.58 823.39 134.56 834.87 133.27 C 842.55 131.38 851.26 135.60 859.00 136.24 C 865.35 134.83 871.09 136.74 876.92 139.09 C 880.84 140.92 884.48 142.73 885.68 147.26 C 888.65 156.57 892.16 168.42 889.00 178.00 C 886.16 188.16 883.28 198.13 881.45 208.53 C 877.52 221.05 871.26 232.86 867.54 245.47 C 865.40 252.81 865.72 259.93 865.47 267.47 C 866.30 263.51 866.54 259.55 867.53 255.59 C 869.34 248.40 872.49 241.33 875.61 234.61 C 877.21 231.12 879.49 228.03 880.69 224.45 C 882.93 218.95 885.71 213.64 888.26 208.28 C 890.68 205.13 894.93 201.10 899.21 201.47 C 893.05 202.76 889.80 208.25 888.54 213.98 C 887.82 217.84 888.85 221.22 889.35 224.99 C 887.93 231.73 883.40 238.09 879.93 243.97 C 877.42 248.33 873.18 250.09 872.28 255.17 C 877.82 258.92 883.33 258.09 889.53 258.54 C 894.53 262.04 897.00 269.16 897.94 274.96 C 900.40 275.55 903.39 275.79 904.52 278.44 C 905.48 281.91 903.48 285.20 902.09 288.23 C 905.70 290.46 909.60 292.05 913.44 293.83 C 914.95 294.40 914.76 296.60 914.48 297.86 C 913.19 302.22 910.62 305.45 907.85 308.94 C 903.82 314.14 901.40 320.01 898.92 326.04 L 897.97 327.77 C 895.96 326.15 895.47 323.97 894.20 321.82 C 890.40 315.32 885.06 309.54 879.34 304.69 C 874.49 300.82 869.19 297.11 863.23 295.19 C 872.02 303.18 880.12 312.80 885.36 323.52 C 886.82 326.95 888.65 331.25 888.11 335.02 C 886.59 338.66 884.29 341.95 882.61 345.52 C 880.65 349.11 879.29 353.00 877.14 356.47 C 863.88 344.26 849.31 332.86 832.97 325.05 C 825.49 321.70 818.41 318.67 810.00 319.19 C 801.44 319.52 792.14 324.70 790.21 333.60 C 794.55 333.26 798.64 332.35 803.01 333.11 C 807.24 333.54 812.63 335.00 815.12 338.74 C 807.73 335.33 799.88 335.56 792.10 337.38 C 790.93 337.75 789.39 337.83 788.86 339.12 C 794.54 340.48 799.53 342.49 804.59 345.39 C 809.30 347.99 813.54 350.57 815.10 356.08 C 808.98 353.68 803.82 350.38 797.01 349.48 C 791.84 348.73 786.43 351.46 782.20 354.18 C 777.73 356.93 775.09 362.03 771.00 364.97 C 769.35 366.15 766.48 366.15 767.27 368.88 C 769.39 373.61 772.93 376.66 773.02 382.24 C 769.19 382.26 766.96 376.12 763.64 374.71 C 764.62 383.03 768.56 390.89 769.83 399.18 C 768.49 397.91 768.05 396.29 767.37 394.62 C 765.21 389.13 763.19 383.70 760.45 378.57 C 759.69 377.18 759.03 375.90 757.51 375.20 C 757.24 380.41 756.57 385.59 756.36 390.80 C 754.62 387.36 753.55 382.10 750.33 379.79 C 747.74 390.90 745.11 402.92 740.37 413.35 C 739.31 415.35 738.33 418.13 736.24 419.23 C 735.50 408.59 735.40 398.42 732.07 387.99 C 731.25 384.77 728.07 382.40 725.65 380.32 C 721.79 377.24 717.00 373.71 712.01 372.99 C 709.35 372.52 707.38 373.83 705.47 375.48 C 694.77 384.75 684.55 394.59 673.82 403.82 C 672.06 405.18 670.83 406.72 668.44 406.75 C 667.10 393.92 670.43 381.71 669.38 368.99 C 668.58 361.93 666.84 354.70 663.73 348.28 C 661.72 344.30 658.24 342.36 656.81 338.15 C 655.07 333.67 655.79 329.43 655.24 324.85 C 653.19 314.91 645.62 305.45 642.12 296.00 C 640.43 289.99 640.72 283.20 640.82 277.00 C 641.39 270.01 641.27 263.59 643.61 256.85 C 644.29 254.83 645.75 253.52 647.13 251.96 C 646.18 250.51 645.23 249.18 643.76 248.21 C 639.07 244.98 633.65 242.49 628.01 241.55 C 624.55 240.78 621.59 243.11 619.04 245.10 C 612.15 250.98 606.39 257.80 601.18 265.18 C 591.47 278.97 583.04 294.94 580.33 311.73 C 580.49 306.77 582.43 302.09 583.51 297.13 C 586.49 284.18 589.72 271.80 595.67 259.84 C 601.93 246.97 611.39 235.94 624.09 229.10 C 638.59 221.27 655.26 219.41 671.50 220.42 C 669.58 214.50 661.88 210.86 658.81 205.91 C 668.33 204.50 677.90 206.63 685.73 212.27 C 695.24 218.96 702.11 229.66 706.93 240.07 C 707.69 241.81 709.07 242.88 711.02 242.14 C 715.45 240.65 719.28 236.77 722.66 233.66 C 725.34 231.34 726.01 228.37 727.32 225.24 C 728.08 223.22 729.12 221.17 729.46 219.04 C 727.85 212.10 727.13 205.33 729.47 198.44 C 730.74 194.79 733.53 192.24 734.58 188.49 C 736.14 184.13 736.52 179.68 736.64 175.09 C 736.51 173.13 738.55 171.99 739.82 170.82 C 750.39 162.51 761.57 154.67 773.54 148.50 C 779.48 145.32 783.36 140.61 788.32 136.28 C 791.54 133.46 795.77 132.32 800.00 132.65 Z"
       id="p6" />
    <path
       d="M 899.21 201.47 C 901.82 201.67 904.66 204.76 903.45 207.55 C 900.44 217.78 895.97 227.40 890.47 236.52 C 888.05 241.64 884.54 246.58 883.08 252.05 C 884.29 250.91 885.41 249.69 886.46 248.40 C 888.86 248.24 891.25 248.29 893.65 248.47 C 894.91 250.38 896.46 252.36 897.25 254.52 C 897.76 257.08 897.51 259.85 897.55 262.45 C 900.91 262.61 904.18 261.55 906.77 264.21 C 909.91 267.30 910.41 271.11 909.27 275.25 C 908.15 278.53 908.28 281.86 908.79 285.24 C 911.52 284.06 914.01 281.14 917.00 281.35 C 919.02 281.11 920.40 282.99 921.39 284.47 C 923.00 291.50 919.15 299.68 915.28 305.41 C 910.78 310.65 906.80 316.25 902.93 321.97 C 901.75 323.63 900.95 325.29 898.92 326.04 C 901.40 320.01 903.82 314.14 907.85 308.94 C 910.62 305.45 913.19 302.22 914.48 297.86 C 914.76 296.60 914.95 294.40 913.44 293.83 C 909.60 292.05 905.70 290.46 902.09 288.23 C 903.48 285.20 905.48 281.91 904.52 278.44 C 903.39 275.79 900.40 275.55 897.94 274.96 C 897.00 269.16 894.53 262.04 889.53 258.54 C 883.33 258.09 877.82 258.92 872.28 255.17 C 873.18 250.09 877.42 248.33 879.93 243.97 C 883.40 238.09 887.93 231.73 889.35 224.99 C 888.85 221.22 887.82 217.84 888.54 213.98 C 889.80 208.25 893.05 202.76 899.21 201.47 Z"
       id="p7" />
    <path
       d="M 503.38 258.64 L 503.53 258.67 C 506.67 271.46 514.12 281.59 523.07 290.96 C 532.10 300.05 542.65 307.81 553.64 314.37 C 556.51 315.90 558.21 319.36 559.99 322.00 C 568.73 336.52 576.15 352.04 583.77 367.18 C 592.35 384.24 600.46 401.61 609.58 418.40 C 611.95 422.94 615.11 426.95 617.48 431.48 C 623.87 443.32 629.05 456.35 636.30 467.68 C 638.78 471.41 641.73 475.67 645.65 477.97 C 644.81 476.62 643.87 475.46 643.56 473.86 C 655.03 479.21 665.98 481.39 675.97 489.36 C 680.17 490.14 684.79 489.39 689.00 488.88 C 692.92 488.19 697.06 487.95 700.84 486.71 C 697.89 485.86 695.13 485.34 692.74 483.25 C 688.27 479.53 686.95 474.27 685.18 468.99 C 684.10 465.22 681.87 462.06 680.56 458.40 C 678.47 452.66 677.29 446.58 675.28 440.83 C 673.71 436.13 670.01 433.36 670.59 427.96 C 670.93 424.17 675.34 425.38 677.88 423.83 C 685.85 419.69 693.14 412.75 700.02 407.08 C 698.52 413.84 693.37 419.96 690.14 426.03 C 695.20 422.71 699.55 417.39 705.10 414.83 C 703.21 421.88 697.24 430.04 698.30 437.75 C 702.14 438.56 705.89 434.88 708.55 432.55 C 717.78 423.39 724.56 411.16 726.51 398.23 C 728.50 397.65 728.23 399.72 728.90 401.00 C 731.16 409.07 732.40 417.83 729.86 426.00 C 728.07 433.50 725.15 441.70 725.57 449.43 C 728.19 447.73 729.77 445.07 731.55 442.55 C 736.52 434.94 740.80 426.85 744.53 418.56 C 745.11 417.36 745.79 416.21 746.50 415.09 C 746.98 426.15 744.89 437.15 744.64 448.00 C 744.80 448.95 744.36 452.53 746.06 451.98 C 749.67 447.05 750.85 439.77 751.81 433.87 C 752.63 429.49 752.32 424.26 754.24 420.24 C 755.26 419.32 756.77 420.85 757.32 421.69 C 758.94 424.83 759.49 428.62 760.27 432.04 C 761.79 431.64 763.30 431.18 764.80 430.69 C 764.55 429.13 764.27 427.57 763.96 426.01 C 767.36 420.01 772.21 416.18 773.08 408.84 C 774.43 409.92 775.74 411.12 775.71 412.99 C 775.97 416.31 772.66 418.82 772.71 421.98 C 772.79 427.64 771.67 433.13 771.33 438.75 C 772.31 435.35 773.56 432.49 775.60 429.59 C 778.73 425.24 777.76 420.28 778.73 414.82 C 785.00 413.16 789.93 407.28 792.36 401.52 C 793.67 393.34 791.28 384.28 786.65 377.45 C 785.64 375.67 787.63 371.79 789.99 372.46 C 793.13 373.35 796.59 374.74 799.30 376.55 C 801.95 381.64 807.50 385.85 813.26 386.40 C 812.74 380.11 809.84 374.36 809.15 368.16 C 814.02 373.33 818.57 378.81 825.99 380.11 C 828.32 380.66 830.49 379.71 831.58 377.58 C 834.39 372.07 832.94 365.69 832.72 359.84 C 838.18 358.32 842.92 360.07 847.99 361.94 C 853.05 364.03 858.32 366.13 862.92 369.12 C 867.46 372.63 872.32 377.15 874.44 382.59 C 875.76 386.22 874.10 388.80 873.09 392.18 C 866.24 401.72 858.11 410.56 850.46 419.48 C 838.96 431.02 826.68 441.90 813.46 451.45 C 807.83 455.82 801.54 459.03 795.09 461.98 C 791.63 463.24 788.29 464.66 785.15 466.60 C 787.00 466.06 788.87 465.63 790.77 465.28 L 790.53 466.75 C 784.47 471.97 776.24 476.94 772.36 484.07 C 774.60 487.58 779.75 486.96 783.20 488.73 C 784.58 489.96 784.27 491.38 783.94 493.00 C 782.21 500.18 778.57 506.90 777.18 514.14 C 770.89 520.38 759.79 522.90 751.49 525.25 C 743.54 527.68 735.36 528.79 727.24 530.43 C 723.26 529.50 719.51 530.08 715.92 527.81 C 700.53 532.19 684.79 533.89 668.86 534.79 C 651.61 536.06 634.37 535.23 617.14 535.43 C 627.31 537.05 637.26 538.45 647.57 536.99 C 644.87 541.98 643.04 546.75 639.15 550.85 C 646.07 549.82 653.03 548.87 659.89 547.49 C 662.96 546.88 665.86 545.70 668.97 545.19 C 659.03 553.05 648.30 560.74 636.53 565.57 C 651.23 563.93 666.13 561.25 680.08 556.27 C 682.78 556.67 685.35 558.89 687.45 560.53 C 692.16 564.72 696.99 569.44 700.14 574.93 C 701.46 577.09 701.03 579.77 700.57 582.12 C 699.11 588.22 697.02 594.02 693.18 599.05 C 703.01 605.91 716.70 611.34 725.79 620.22 C 739.72 633.65 754.64 647.09 767.31 661.67 C 770.79 665.82 774.45 670.27 776.94 675.09 C 778.65 678.11 778.14 681.65 778.20 685.00 C 777.80 699.77 777.02 714.35 775.06 729.00 C 774.06 735.61 773.01 742.53 770.81 748.85 C 769.75 751.99 768.15 754.88 767.12 758.02 C 768.10 757.05 769.03 756.05 769.81 754.91 C 776.01 745.86 781.08 735.62 783.51 724.89 C 784.66 719.42 785.84 713.80 787.48 708.45 C 787.98 707.13 788.12 705.90 789.42 705.14 C 789.57 711.49 788.69 717.75 788.58 724.09 C 788.28 735.26 787.76 746.88 789.03 758.00 C 789.96 763.69 790.69 769.38 791.18 775.13 C 792.19 796.47 792.97 817.64 792.07 839.00 C 791.56 846.02 791.72 853.17 790.46 859.99 C 789.75 864.75 788.39 869.37 787.65 874.12 C 785.46 887.46 783.99 900.84 780.97 914.03 C 779.36 918.14 777.58 921.95 774.28 924.99 C 771.15 926.07 768.68 928.22 765.69 929.69 C 759.96 932.87 752.61 935.93 745.97 935.19 C 740.50 934.69 737.65 927.90 734.26 924.20 C 734.62 925.59 735.03 926.96 735.65 928.26 C 738.84 935.08 741.83 941.73 745.81 948.16 C 747.33 950.62 749.16 952.80 751.47 954.54 C 756.37 958.31 761.34 962.00 766.28 965.72 C 768.40 967.00 768.75 970.21 769.54 972.40 C 771.20 978.54 773.51 985.89 772.15 992.22 C 765.42 992.31 756.54 988.09 750.28 991.29 C 746.49 993.58 742.94 998.29 741.38 1002.40 C 748.84 1002.14 758.06 1001.56 764.90 1005.14 C 767.79 1006.58 769.00 1009.08 770.04 1011.98 C 771.25 1015.22 772.38 1018.47 771.90 1021.99 C 771.50 1024.51 769.33 1026.19 766.89 1026.53 C 762.63 1027.03 758.27 1027.01 753.99 1026.87 C 747.53 1025.56 739.15 1027.87 734.24 1032.22 C 728.48 1040.64 717.02 1046.74 713.09 1056.29 C 719.86 1058.69 727.87 1058.85 735.01 1058.46 C 742.68 1058.00 749.29 1055.09 756.47 1052.86 C 755.10 1056.69 750.32 1059.57 746.92 1061.49 C 753.68 1063.03 760.00 1061.74 766.78 1061.46 C 758.42 1062.78 750.38 1065.28 741.99 1066.51 C 737.05 1067.50 732.04 1067.70 727.08 1068.53 C 739.67 1070.69 753.29 1071.45 766.02 1070.32 C 763.95 1071.74 760.30 1072.78 759.33 1075.18 C 763.20 1075.56 767.07 1075.64 770.96 1075.60 C 764.37 1077.84 758.26 1080.92 751.48 1082.62 C 741.97 1085.12 731.64 1086.08 721.87 1084.89 C 725.89 1081.96 733.08 1084.41 737.16 1081.51 C 731.76 1080.72 726.49 1080.12 721.23 1078.52 C 726.69 1079.57 731.66 1077.63 736.03 1074.50 C 726.21 1072.78 716.88 1070.62 707.87 1066.18 C 703.87 1064.61 705.08 1060.59 702.09 1057.91 C 697.23 1053.29 691.88 1048.60 687.89 1043.06 C 686.10 1040.59 685.49 1037.78 684.08 1034.93 C 681.84 1030.44 678.87 1026.23 675.37 1022.63 C 671.80 1018.94 667.12 1017.15 663.48 1013.54 C 660.67 1011.06 658.64 1008.02 656.27 1005.16 C 653.68 1010.31 649.27 1017.10 651.20 1022.99 C 651.92 1027.23 651.01 1030.96 650.68 1035.12 C 651.67 1037.70 653.69 1039.80 656.45 1040.42 C 659.77 1041.21 662.73 1041.21 665.48 1043.53 C 666.97 1044.78 667.10 1046.84 666.57 1048.60 C 664.94 1050.03 662.69 1050.70 660.86 1051.88 C 663.72 1053.15 666.02 1054.83 667.23 1057.82 C 667.98 1060.87 667.84 1064.08 668.77 1067.13 C 669.42 1069.03 669.47 1070.93 669.53 1072.91 C 669.60 1075.27 671.59 1076.69 671.15 1079.18 C 674.65 1081.15 678.99 1081.76 682.86 1082.68 C 694.10 1085.16 705.58 1086.81 716.99 1088.25 C 726.54 1088.85 735.49 1090.17 745.02 1088.57 C 752.57 1087.20 760.15 1085.69 767.75 1084.62 C 765.09 1087.13 762.27 1089.35 758.94 1090.91 C 751.57 1094.43 741.99 1094.57 734.00 1095.23 C 712.23 1095.87 689.81 1093.55 669.01 1086.88 C 652.58 1079.54 635.09 1075.13 616.99 1076.98 C 606.31 1077.40 595.57 1076.76 584.88 1076.48 C 586.72 1074.67 588.85 1073.21 590.58 1071.28 C 588.90 1068.59 586.88 1066.35 583.84 1065.23 C 578.11 1063.07 571.30 1062.64 565.26 1062.06 C 575.44 1060.75 585.71 1060.09 595.91 1058.78 C 598.89 1058.62 602.00 1058.51 604.94 1059.06 C 614.85 1064.18 626.90 1065.50 637.91 1065.63 C 636.06 1065.13 633.51 1065.43 632.06 1064.20 C 636.87 1060.81 641.11 1057.09 643.46 1051.54 C 644.11 1049.22 643.80 1046.76 641.83 1045.18 C 637.86 1041.77 632.06 1039.87 627.46 1037.49 C 626.03 1036.87 625.88 1035.39 625.70 1034.02 C 625.76 1029.54 627.26 1024.74 630.74 1021.73 C 634.67 1018.55 639.76 1016.85 643.69 1013.70 C 645.04 1012.07 646.07 1010.32 647.79 1009.02 C 647.36 1006.97 645.96 1005.84 644.63 1004.37 C 640.72 1000.29 637.56 995.71 634.63 990.89 C 637.05 988.71 639.95 987.75 642.90 986.52 C 638.83 986.24 633.79 988.37 630.05 986.97 C 627.99 986.09 627.53 984.22 629.38 982.76 C 631.29 980.85 634.19 977.78 631.83 975.11 C 625.97 967.31 626.77 955.59 631.38 947.40 C 633.61 943.51 636.91 940.76 641.11 939.19 C 652.51 934.21 663.78 928.79 674.52 922.50 C 680.00 919.12 686.27 915.36 689.82 909.85 C 695.09 902.08 699.48 893.65 702.70 884.83 C 704.57 879.91 704.87 875.11 705.83 869.99 C 706.46 866.74 706.69 863.46 706.70 860.16 C 702.11 873.83 694.28 886.81 683.68 896.66 C 677.36 902.54 669.87 907.06 661.57 909.54 C 657.57 910.71 653.61 911.86 649.84 913.67 C 645.27 915.75 641.09 918.58 636.54 920.66 C 632.24 922.68 627.66 922.12 623.00 922.52 C 618.47 922.74 613.47 923.80 609.00 923.06 C 607.25 922.66 607.23 921.55 606.85 920.04 C 605.86 912.55 606.55 905.28 608.41 898.00 C 607.43 890.32 602.88 881.80 603.66 873.98 C 604.07 869.67 607.20 866.56 611.10 865.04 C 615.18 863.19 619.33 863.50 623.56 862.47 C 626.00 861.27 627.94 858.78 629.92 856.92 C 636.44 850.13 642.76 841.67 645.31 832.50 C 647.97 822.41 643.46 811.91 638.82 803.12 C 637.07 799.43 634.43 794.98 637.07 791.04 C 641.41 784.85 649.81 782.05 656.56 779.46 C 648.05 778.67 639.52 778.64 630.99 778.33 C 626.55 778.78 623.74 772.49 619.60 772.11 C 613.42 765.50 605.92 759.70 599.40 753.58 C 591.27 746.06 582.52 738.22 577.17 728.49 C 571.51 735.78 566.27 743.35 561.42 751.20 C 549.55 770.28 538.88 790.42 528.23 810.24 C 524.04 818.25 518.68 825.53 514.60 833.62 C 507.58 845.66 500.70 857.79 493.66 869.81 C 487.91 878.34 484.03 887.21 476.59 894.58 C 470.49 901.14 463.14 904.21 455.49 908.51 C 436.49 918.66 417.35 928.53 398.17 938.33 C 374.16 950.59 350.93 962.75 325.01 970.90 C 318.64 972.70 312.64 975.12 305.98 975.76 C 298.09 977.46 290.20 977.98 282.16 978.39 C 267.50 986.00 253.28 994.83 238.76 1002.76 C 233.99 1005.36 229.18 1008.12 224.11 1010.08 C 218.10 1011.78 211.21 1011.34 204.99 1012.02 C 190.33 1012.92 175.69 1013.70 161.00 1013.64 C 156.95 1013.58 152.89 1013.93 149.01 1012.95 C 144.75 1011.75 140.40 1011.17 136.00 1010.70 C 133.96 1010.54 131.56 1010.57 129.82 1011.79 C 128.13 1014.42 127.02 1017.46 125.61 1020.25 L 126.83 1021.18 C 124.62 1022.64 119.49 1025.53 118.06 1022.01 C 117.02 1023.20 115.95 1024.36 114.77 1025.41 C 110.74 1028.31 109.81 1033.44 107.65 1037.66 C 105.78 1041.96 102.65 1045.57 100.78 1049.83 C 99.61 1054.62 99.89 1060.22 99.20 1065.01 C 98.46 1070.24 98.06 1075.81 96.56 1080.88 C 94.72 1085.73 90.13 1089.90 86.88 1093.91 C 84.94 1095.88 83.56 1098.67 80.29 1097.62 C 71.47 1092.93 63.07 1085.19 53.00 1083.09 C 51.37 1082.55 48.90 1082.72 48.12 1080.95 C 54.06 1076.27 60.45 1076.79 67.49 1074.62 C 69.94 1073.82 73.56 1073.18 75.15 1071.00 C 76.10 1068.14 74.14 1064.83 72.02 1062.99 C 69.89 1061.25 67.21 1060.84 65.30 1058.70 C 61.95 1055.21 58.61 1051.48 56.21 1047.26 C 58.02 1049.25 59.33 1052.49 61.96 1053.28 C 63.57 1053.15 64.71 1052.64 65.35 1051.08 C 66.17 1048.54 63.75 1046.70 62.44 1044.86 C 64.95 1043.57 67.25 1042.38 68.90 1039.99 C 67.74 1037.97 65.02 1038.06 62.99 1037.51 C 53.95 1035.58 44.88 1033.68 35.87 1031.59 C 37.05 1029.62 39.95 1028.85 41.99 1028.06 C 45.66 1026.64 49.50 1026.63 53.24 1025.58 C 52.29 1024.32 51.37 1023.03 50.48 1021.73 C 56.37 1020.61 62.11 1023.30 66.56 1019.55 C 68.11 1018.56 67.82 1016.45 67.13 1015.01 C 64.90 1010.69 60.00 1007.95 57.09 1004.96 C 52.74 999.53 54.14 991.10 51.38 984.86 C 49.50 980.71 48.96 976.41 48.07 971.99 C 44.58 951.16 42.22 930.26 39.64 909.31 C 42.75 910.11 45.13 913.34 47.62 915.28 C 49.09 926.18 53.22 937.04 59.70 945.94 C 57.83 939.92 56.20 934.15 57.20 927.76 C 58.87 929.08 59.44 931.62 60.38 933.51 C 65.19 944.29 71.28 954.98 79.27 963.74 C 81.56 966.03 83.98 968.80 86.98 970.13 C 81.76 955.83 76.16 942.57 75.80 927.04 C 83.88 931.45 92.85 933.72 101.99 934.40 C 109.35 934.81 116.39 934.40 123.13 931.18 C 127.66 928.91 129.32 924.42 133.65 921.68 C 141.88 916.21 152.53 913.98 162.19 912.72 C 161.15 914.98 159.46 917.47 159.50 920.00 C 159.52 924.08 161.41 927.91 163.87 931.08 C 168.12 936.50 174.00 940.70 180.16 943.69 C 192.70 949.80 205.71 954.81 219.01 959.00 C 226.00 961.11 233.66 963.46 241.00 963.37 C 247.50 963.44 253.74 964.73 260.10 965.88 C 258.81 960.67 252.63 957.03 248.12 954.87 C 237.89 950.34 228.11 944.65 219.53 937.45 C 215.33 933.75 210.93 929.24 208.69 924.04 C 207.64 921.85 209.96 919.68 211.70 918.69 C 220.47 913.99 232.28 915.83 240.34 910.32 C 249.85 904.75 259.57 899.06 268.26 892.26 C 270.49 890.68 271.71 888.47 273.33 886.36 C 274.73 885.15 277.25 885.22 279.00 885.02 C 286.84 884.78 294.34 885.79 302.00 887.30 C 310.38 888.99 318.65 888.46 327.02 887.13 C 329.35 886.65 331.52 886.02 332.85 883.89 C 335.51 879.95 338.49 875.39 339.31 870.65 C 332.02 872.66 325.26 876.49 318.06 878.77 C 330.14 869.96 342.20 861.41 353.45 851.45 C 356.31 848.92 358.03 846.03 361.82 844.73 C 370.25 841.68 379.15 839.35 388.13 838.86 C 389.69 838.67 391.54 838.67 392.93 837.89 C 395.11 836.81 396.21 834.22 398.00 832.98 C 400.80 833.66 401.53 838.53 402.41 840.83 C 406.34 841.71 411.53 840.54 414.64 843.30 C 416.82 847.91 418.16 852.87 420.61 857.39 C 422.84 861.73 426.03 867.38 430.70 869.39 C 435.89 870.61 441.96 869.06 446.59 866.57 C 450.92 864.27 454.60 860.86 455.86 855.97 C 457.36 848.50 457.88 841.17 455.39 833.84 C 453.98 829.88 450.95 827.87 448.76 824.28 C 444.54 817.39 441.78 810.06 439.44 802.38 C 438.37 801.19 436.69 800.51 435.36 799.63 C 427.90 795.01 421.03 789.35 414.73 783.26 C 411.33 779.77 407.70 775.69 405.83 771.15 C 404.86 768.65 404.65 765.62 406.49 763.46 C 409.10 760.21 414.06 759.18 418.00 758.94 C 425.73 758.84 434.27 761.52 439.23 767.75 C 446.61 777.13 449.58 787.95 454.42 798.52 C 456.06 802.43 459.40 803.65 462.10 806.96 C 465.76 810.85 468.67 816.03 473.05 819.10 C 472.53 815.85 471.29 812.94 470.28 809.83 C 467.09 800.43 463.84 790.50 459.34 781.64 C 457.47 778.18 455.25 774.32 452.12 771.86 C 449.08 769.93 445.83 769.57 443.43 766.55 C 439.78 762.02 437.71 755.41 437.59 749.64 C 441.71 750.08 444.61 752.80 447.47 755.53 C 452.43 760.58 456.48 766.49 461.38 771.61 C 465.55 776.00 469.79 780.82 474.81 784.24 C 475.76 784.87 477.61 785.60 477.92 783.93 C 481.47 771.97 480.74 758.26 478.69 746.07 C 477.61 738.89 474.48 733.00 471.64 726.32 C 461.41 703.18 448.56 681.95 435.80 660.19 C 431.18 652.59 426.35 645.10 421.18 637.86 C 419.66 635.77 418.11 633.54 416.19 631.79 C 415.49 631.08 414.85 630.91 414.26 631.28 C 412.72 632.83 412.66 635.95 412.72 638.00 C 413.15 644.39 414.77 650.76 415.87 657.07 C 412.57 656.37 410.33 654.31 407.88 652.15 C 402.10 646.80 397.52 639.77 395.52 632.11 C 394.79 629.30 391.96 627.08 390.21 624.81 C 382.69 615.83 374.06 606.31 369.31 595.53 C 366.09 588.71 367.72 581.94 363.71 575.32 C 362.65 573.58 360.49 572.00 358.53 573.41 C 355.77 581.85 355.25 591.24 353.94 600.01 C 352.88 611.22 351.30 622.57 351.30 633.79 C 350.15 630.60 349.78 627.33 349.27 624.01 C 346.86 607.63 344.65 591.50 345.52 574.98 C 345.74 571.40 347.33 568.06 348.79 564.83 C 351.29 559.89 353.21 554.63 358.97 552.80 C 357.94 547.13 356.10 541.80 357.85 535.87 C 358.59 534.31 360.52 531.16 362.63 532.42 C 364.36 534.48 364.77 537.82 365.99 540.26 C 367.95 538.83 368.66 536.03 369.96 533.98 C 372.07 530.18 375.58 527.36 379.97 526.80 C 388.24 525.66 397.07 528.07 405.00 529.83 C 406.70 530.37 408.45 529.98 409.21 531.91 C 410.30 534.96 410.23 538.09 411.91 541.04 C 413.36 543.97 415.83 545.82 418.61 547.42 C 425.84 551.42 433.78 553.87 441.97 554.95 C 441.18 557.14 440.53 558.92 441.82 561.12 C 444.37 565.04 448.54 568.12 452.56 570.41 C 455.89 572.24 459.06 573.92 462.99 573.66 C 474.35 573.17 485.78 572.35 496.99 570.35 C 500.50 569.61 504.79 568.90 507.72 566.70 C 509.14 564.91 509.96 562.21 508.89 560.05 C 507.24 556.01 502.73 552.99 499.12 550.82 C 498.47 550.36 497.82 550.17 497.17 550.25 C 494.87 551.53 492.80 553.21 490.47 554.47 C 484.56 557.85 477.77 559.49 470.99 558.23 C 460.51 556.51 449.34 552.97 442.02 544.84 L 442.89 544.12 C 447.73 543.01 452.54 542.29 457.09 540.13 C 460.46 538.76 462.31 536.23 464.98 533.93 C 473.08 526.88 482.02 520.22 489.25 512.26 C 491.10 510.03 493.81 507.13 493.10 504.00 C 491.64 493.37 490.98 482.71 491.73 471.99 C 492.89 460.30 495.98 448.93 503.97 439.98 C 506.69 436.78 509.99 435.42 511.82 431.83 C 521.32 414.35 527.92 394.37 538.47 377.51 C 540.56 373.94 543.35 371.08 546.08 368.03 C 547.97 365.17 549.62 361.81 549.89 358.35 C 531.35 356.14 512.67 352.32 495.19 345.67 C 483.49 341.24 472.13 334.60 463.28 325.69 C 458.22 320.50 453.29 313.41 452.41 306.06 C 454.03 307.70 454.97 309.77 456.50 311.53 C 461.28 317.02 467.44 321.56 473.63 325.35 C 485.30 332.38 497.99 337.52 510.91 341.75 C 510.21 339.73 507.98 338.83 506.30 337.70 C 499.90 334.01 493.73 330.88 488.43 325.56 C 481.67 319.19 476.93 311.31 473.13 302.91 C 471.38 298.96 469.66 295.26 469.08 290.94 C 470.01 291.66 470.93 292.39 471.80 293.20 C 479.76 301.45 489.05 309.59 499.46 314.54 C 503.89 316.54 509.68 318.56 514.55 317.47 C 516.18 317.02 516.23 315.78 515.50 314.47 C 508.07 302.12 502.15 287.65 502.82 273.00 C 503.07 268.28 502.27 263.24 503.38 258.64 Z M 509.77 443.06 C 514.42 443.80 518.46 445.42 522.73 447.32 C 527.96 448.79 532.74 450.29 536.49 454.49 C 540.49 458.80 541.38 464.33 541.62 470.00 C 541.58 475.62 538.94 481.38 536.20 486.19 C 535.33 487.92 533.68 488.47 532.08 489.38 C 529.66 490.53 527.35 491.88 524.93 493.02 C 520.74 494.08 515.15 494.49 511.79 491.22 C 510.33 489.76 510.20 488.23 510.36 486.24 L 511.96 486.53 L 513.05 487.35 C 515.87 486.88 518.48 485.21 521.14 484.17 C 526.08 481.98 532.10 479.82 535.94 475.91 C 537.17 474.72 537.08 473.25 536.02 471.98 C 534.36 469.80 531.32 469.90 529.07 471.03 C 522.83 474.06 516.62 477.15 510.45 480.35 C 508.07 481.42 505.85 479.24 504.62 477.42 C 503.54 475.60 502.02 474.03 504.30 472.36 C 509.81 470.07 515.61 468.43 521.12 466.14 C 523.77 464.93 525.32 463.66 526.59 460.98 C 525.09 457.80 522.41 456.57 518.99 456.51 C 514.07 457.00 510.07 461.94 505.17 461.98 C 503.49 459.72 501.61 456.57 504.20 454.19 C 506.97 452.39 512.70 451.74 513.73 448.02 C 513.96 444.74 508.36 444.24 506.02 443.82 C 503.77 445.44 501.37 447.54 500.20 450.11 C 500.01 453.06 500.29 456.08 500.59 459.01 C 500.92 461.93 502.70 465.04 501.75 467.86 C 501.42 469.26 500.99 470.62 500.64 472.02 C 500.23 473.99 499.72 476.47 500.66 478.35 C 502.01 481.13 504.69 482.35 507.17 483.96 C 506.96 489.22 507.14 494.85 511.44 498.56 C 514.13 500.22 516.89 501.84 519.65 503.38 C 520.39 503.73 521.14 504.06 521.90 504.37 C 524.58 505.41 527.18 505.52 530.04 506.03 C 534.53 502.07 537.19 497.07 539.69 491.72 C 542.42 485.64 544.61 479.51 545.23 472.82 C 548.21 473.00 551.00 474.66 553.90 475.41 C 554.74 474.56 555.68 472.21 556.96 472.20 C 566.96 477.82 579.31 480.33 590.43 482.86 C 590.75 481.84 591.08 480.81 591.41 479.78 C 595.81 481.13 598.30 484.33 603.13 483.69 C 605.85 484.91 608.05 487.07 610.99 488.02 C 615.70 489.74 620.83 491.86 625.90 491.89 C 624.62 486.76 621.66 482.79 618.13 478.98 C 623.99 480.82 629.11 484.90 634.89 486.91 C 629.36 480.78 623.08 475.23 616.92 469.74 C 617.51 468.90 618.10 468.07 618.70 467.24 C 612.35 464.05 606.63 460.27 601.10 455.83 C 588.64 447.62 575.41 440.50 562.16 433.67 C 557.32 431.36 551.47 428.09 545.99 428.59 C 540.61 429.18 537.24 432.26 532.91 434.95 C 526.90 438.02 519.42 438.92 513.00 440.96 C 511.68 441.47 510.31 441.55 509.77 443.06 Z"
       id="p8" />
    <path
       d="M 498.65 400.13 C 498.19 403.79 496.79 407.02 495.41 410.39 C 491.21 420.04 485.43 429.47 479.21 437.95 C 479.51 436.45 479.91 435.02 480.59 433.65 C 485.94 422.19 491.69 410.70 498.65 400.13 Z"
       id="p9" />
    <path
       d="M 545.99 428.59 C 551.47 428.09 557.32 431.36 562.16 433.67 C 575.41 440.50 588.64 447.62 601.10 455.83 C 606.63 460.27 612.35 464.05 618.70 467.24 C 618.10 468.07 617.51 468.90 616.92 469.74 C 623.08 475.23 629.36 480.78 634.89 486.91 C 629.11 484.90 623.99 480.82 618.13 478.98 C 621.66 482.79 624.62 486.76 625.90 491.89 C 620.83 491.86 615.70 489.74 610.99 488.02 C 608.05 487.07 605.85 484.91 603.13 483.69 C 598.30 484.33 595.81 481.13 591.41 479.78 C 591.08 480.81 590.75 481.84 590.43 482.86 C 579.31 480.33 566.96 477.82 556.96 472.20 C 555.68 472.21 554.74 474.56 553.90 475.41 C 551.00 474.66 548.21 473.00 545.23 472.82 C 544.61 479.51 542.42 485.64 539.69 491.72 C 537.19 497.07 534.53 502.07 530.04 506.03 C 527.18 505.52 524.58 505.41 521.90 504.37 C 523.47 504.43 525.55 505.27 526.58 503.61 C 529.52 499.71 531.77 495.24 533.77 490.80 L 532.08 489.38 C 533.68 488.47 535.33 487.92 536.20 486.19 C 538.94 481.38 541.58 475.62 541.62 470.00 C 541.38 464.33 540.49 458.80 536.49 454.49 C 532.74 450.29 527.96 448.79 522.73 447.32 C 518.46 445.42 514.42 443.80 509.77 443.06 C 510.31 441.55 511.68 441.47 513.00 440.96 C 519.42 438.92 526.90 438.02 532.91 434.95 C 537.24 432.26 540.61 429.18 545.99 428.59 Z"
       id="p10" />
    <path
       d="M 478.03 439.89 C 476.77 444.70 474.50 449.19 473.16 454.00 C 471.58 458.23 471.26 463.11 469.01 467.00 C 462.69 477.51 455.82 487.66 448.66 497.62 C 444.31 503.94 439.60 510.16 435.83 516.85 C 432.64 522.30 433.27 527.87 428.59 532.58 C 426.22 534.72 423.33 537.57 420.06 538.04 C 420.57 533.23 424.38 528.87 426.63 524.61 C 429.16 519.97 431.21 515.24 428.93 510.00 C 426.92 505.39 427.55 500.67 429.00 496.01 C 430.76 490.69 433.61 485.56 437.52 481.52 C 439.76 479.15 443.26 479.05 445.62 476.66 C 455.33 468.09 463.68 457.83 471.70 447.69 C 473.83 445.17 475.45 441.96 478.03 439.89 Z"
       id="p11" />
    <path
       d="M 506.02 443.82 C 508.36 444.24 513.96 444.74 513.73 448.02 C 512.70 451.74 506.97 452.39 504.20 454.19 C 501.61 456.57 503.49 459.72 505.17 461.98 C 510.07 461.94 514.07 457.00 518.99 456.51 C 522.41 456.57 525.09 457.80 526.59 460.98 C 525.32 463.66 523.77 464.93 521.12 466.14 C 515.61 468.43 509.81 470.07 504.30 472.36 C 502.02 474.03 503.54 475.60 504.62 477.42 C 505.85 479.24 508.07 481.42 510.45 480.35 C 516.62 477.15 522.83 474.06 529.07 471.03 C 531.32 469.90 534.36 469.80 536.02 471.98 C 537.08 473.25 537.17 474.72 535.94 475.91 C 532.10 479.82 526.08 481.98 521.14 484.17 C 518.48 485.21 515.87 486.88 513.05 487.35 L 511.96 486.53 C 511.43 486.06 510.91 485.60 510.40 485.12 C 510.12 486.48 509.65 487.19 508.96 487.25 C 507.54 485.08 508.11 482.78 505.64 481.35 C 502.38 479.12 500.72 475.96 500.64 472.02 C 500.99 470.62 501.42 469.26 501.75 467.86 C 502.70 465.04 500.92 461.93 500.59 459.01 C 500.29 456.08 500.01 453.06 500.20 450.11 C 501.37 447.54 503.77 445.44 506.02 443.82 Z"
       id="p12" />
    <path
       d="M 795.09 461.98 C 790.50 468.81 790.45 476.14 789.36 484.01 C 787.79 495.27 785.38 505.73 777.18 514.14 C 778.57 506.90 782.21 500.18 783.94 493.00 C 784.27 491.38 784.58 489.96 783.20 488.73 C 779.75 486.96 774.60 487.58 772.36 484.07 C 776.24 476.94 784.47 471.97 790.53 466.75 L 790.77 465.28 C 788.87 465.63 787.00 466.06 785.15 466.60 C 788.29 464.66 791.63 463.24 795.09 461.98 Z"
       id="p13" />
    <path
       d="M 500.64 472.02 C 500.72 475.96 502.38 479.12 505.64 481.35 C 508.11 482.78 507.54 485.08 508.96 487.25 C 509.65 487.19 510.12 486.48 510.40 485.12 C 510.91 485.60 511.43 486.06 511.96 486.53 L 510.36 486.24 C 510.20 488.23 510.33 489.76 511.79 491.22 C 515.15 494.49 520.74 494.08 524.93 493.02 C 522.54 494.03 520.16 493.92 517.62 494.01 C 517.57 497.13 518.88 500.32 519.65 503.38 C 516.89 501.84 514.13 500.22 511.44 498.56 C 507.14 494.85 506.96 489.22 507.17 483.96 C 504.69 482.35 502.01 481.13 500.66 478.35 C 499.72 476.47 500.23 473.99 500.64 472.02 Z"
       id="p14" />
    <path
       d="M 532.08 489.38 L 533.77 490.80 C 531.77 495.24 529.52 499.71 526.58 503.61 C 525.55 505.27 523.47 504.43 521.90 504.37 C 521.14 504.06 520.39 503.73 519.65 503.38 C 518.88 500.32 517.57 497.13 517.62 494.01 C 520.16 493.92 522.54 494.03 524.93 493.02 C 527.35 491.88 529.66 490.53 532.08 489.38 Z"
       id="p15" />
    <path
       d="M 715.92 527.81 C 719.51 530.08 723.26 529.50 727.24 530.43 C 716.76 532.80 705.65 534.40 694.89 534.21 C 716.94 563.43 739.54 592.32 761.08 621.97 C 765.01 627.40 768.96 632.81 772.48 638.53 C 778.49 647.96 784.27 657.10 788.51 667.52 C 792.93 678.37 795.77 690.24 795.73 702.00 C 796.00 711.38 794.48 720.63 794.77 730.00 C 794.46 751.81 795.86 773.27 796.63 795.00 C 797.61 810.91 794.17 826.96 793.34 843.01 C 791.66 859.61 790.15 876.63 786.90 892.99 C 785.40 900.01 783.95 907.48 780.97 914.03 C 783.99 900.84 785.46 887.46 787.65 874.12 C 788.39 869.37 789.75 864.75 790.46 859.99 C 791.72 853.17 791.56 846.02 792.07 839.00 C 792.97 817.64 792.19 796.47 791.18 775.13 C 790.69 769.38 789.96 763.69 789.03 758.00 C 787.76 746.88 788.28 735.26 788.58 724.09 C 788.69 717.75 789.57 711.49 789.42 705.14 C 788.12 705.90 787.98 707.13 787.48 708.45 C 785.84 713.80 784.66 719.42 783.51 724.89 C 781.08 735.62 776.01 745.86 769.81 754.91 C 769.03 756.05 768.10 757.05 767.12 758.02 C 768.15 754.88 769.75 751.99 770.81 748.85 C 773.01 742.53 774.06 735.61 775.06 729.00 C 777.02 714.35 777.80 699.77 778.20 685.00 C 778.14 681.65 778.65 678.11 776.94 675.09 C 774.45 670.27 770.79 665.82 767.31 661.67 C 754.64 647.09 739.72 633.65 725.79 620.22 C 716.70 611.34 703.01 605.91 693.18 599.05 C 697.02 594.02 699.11 588.22 700.57 582.12 C 701.03 579.77 701.46 577.09 700.14 574.93 C 696.99 569.44 692.16 564.72 687.45 560.53 C 685.35 558.89 682.78 556.67 680.08 556.27 C 666.13 561.25 651.23 563.93 636.53 565.57 C 648.30 560.74 659.03 553.05 668.97 545.19 C 665.86 545.70 662.96 546.88 659.89 547.49 C 653.03 548.87 646.07 549.82 639.15 550.85 C 643.04 546.75 644.87 541.98 647.57 536.99 C 637.26 538.45 627.31 537.05 617.14 535.43 C 634.37 535.23 651.61 536.06 668.86 534.79 C 684.79 533.89 700.53 532.19 715.92 527.81 Z"
       id="p16" />
    <path
       d="M 619.60 772.11 C 623.74 772.49 626.55 778.78 630.99 778.33 C 639.52 778.64 648.05 778.67 656.56 779.46 C 649.81 782.05 641.41 784.85 637.07 791.04 C 634.43 794.98 637.07 799.43 638.82 803.12 C 643.46 811.91 647.97 822.41 645.31 832.50 C 642.76 841.67 636.44 850.13 629.92 856.92 C 627.94 858.78 626.00 861.27 623.56 862.47 C 619.33 863.50 615.18 863.19 611.10 865.04 C 607.20 866.56 604.07 869.67 603.66 873.98 C 602.88 881.80 607.43 890.32 608.41 898.00 C 606.55 905.28 605.86 912.55 606.85 920.04 C 607.23 921.55 607.25 922.66 609.00 923.06 C 613.47 923.80 618.47 922.74 623.00 922.52 C 627.66 922.12 632.24 922.68 636.54 920.66 C 641.09 918.58 645.27 915.75 649.84 913.67 C 653.61 911.86 657.57 910.71 661.57 909.54 C 669.87 907.06 677.36 902.54 683.68 896.66 C 694.28 886.81 702.11 873.83 706.70 860.16 C 706.69 863.46 706.46 866.74 705.83 869.99 C 704.87 875.11 704.57 879.91 702.70 884.83 C 699.48 893.65 695.09 902.08 689.82 909.85 C 686.27 915.36 680.00 919.12 674.52 922.50 C 663.78 928.79 652.51 934.21 641.11 939.19 C 636.91 940.76 633.61 943.51 631.38 947.40 C 626.77 955.59 625.97 967.31 631.83 975.11 C 634.19 977.78 631.29 980.85 629.38 982.76 L 628.70 981.50 C 624.65 979.52 620.53 978.61 617.13 975.40 C 611.75 970.76 607.58 965.02 606.02 958.00 C 604.69 952.82 605.88 948.22 605.55 943.00 C 605.29 936.34 605.58 929.66 605.41 923.00 C 604.24 911.83 603.49 900.15 605.18 889.01 C 605.13 886.82 604.11 884.62 603.54 882.52 C 601.55 876.50 601.55 869.93 604.22 864.12 C 607.83 855.95 614.15 848.69 620.46 842.46 C 627.67 835.11 635.64 828.48 643.76 822.16 C 644.20 816.18 639.05 812.49 635.75 808.25 C 630.85 802.46 627.42 795.72 627.25 788.00 C 627.04 785.41 627.64 782.62 627.13 780.10 C 624.59 777.24 621.60 775.35 619.60 772.11 Z"
       id="p17" />
    <path
       d="M 206.91 845.83 C 206.10 848.73 204.23 850.80 202.14 852.87 C 203.39 850.46 204.69 847.48 206.91 845.83 Z"
       id="p18" />
    <path
       d="M 200.82 854.32 C 199.21 857.89 197.21 861.23 195.86 864.92 C 195.30 866.20 194.84 867.80 193.83 868.80 C 189.97 872.58 185.58 876.02 182.02 880.07 C 179.54 888.44 178.96 897.32 179.57 906.01 C 179.90 910.11 181.23 913.85 181.90 917.90 C 179.19 917.64 177.91 916.87 176.25 914.74 C 171.41 908.32 168.87 899.96 168.31 892.00 C 167.81 887.20 170.71 883.97 173.56 880.54 C 181.97 871.18 192.09 863.45 200.82 854.32 Z"
       id="p19" />
    <path
       d="M 41.34 892.35 C 43.16 891.24 45.78 891.80 47.85 891.80 C 48.48 893.95 49.36 895.99 50.26 898.04 C 48.04 903.66 47.51 909.28 47.62 915.28 C 45.13 913.34 42.75 910.11 39.64 909.31 C 42.22 930.26 44.58 951.16 48.07 971.99 C 48.96 976.41 49.50 980.71 51.38 984.86 C 54.14 991.10 52.74 999.53 57.09 1004.96 C 60.00 1007.95 64.90 1010.69 67.13 1015.01 C 67.82 1016.45 68.11 1018.56 66.56 1019.55 C 62.11 1023.30 56.37 1020.61 50.48 1021.73 C 51.37 1023.03 52.29 1024.32 53.24 1025.58 C 49.50 1026.63 45.66 1026.64 41.99 1028.06 C 39.95 1028.85 37.05 1029.62 35.87 1031.59 C 44.88 1033.68 53.95 1035.58 62.99 1037.51 C 65.02 1038.06 67.74 1037.97 68.90 1039.99 C 67.25 1042.38 64.95 1043.57 62.44 1044.86 C 63.75 1046.70 66.17 1048.54 65.35 1051.08 C 64.71 1052.64 63.57 1053.15 61.96 1053.28 C 59.33 1052.49 58.02 1049.25 56.21 1047.26 C 58.61 1051.48 61.95 1055.21 65.30 1058.70 C 67.21 1060.84 69.89 1061.25 72.02 1062.99 C 74.14 1064.83 76.10 1068.14 75.15 1071.00 C 73.56 1073.18 69.94 1073.82 67.49 1074.62 C 60.45 1076.79 54.06 1076.27 48.12 1080.95 C 48.90 1082.72 51.37 1082.55 53.00 1083.09 C 63.07 1085.19 71.47 1092.93 80.29 1097.62 C 83.56 1098.67 84.94 1095.88 86.88 1093.91 C 90.13 1089.90 94.72 1085.73 96.56 1080.88 C 98.06 1075.81 98.46 1070.24 99.20 1065.01 C 99.89 1060.22 99.61 1054.62 100.78 1049.83 C 102.65 1045.57 105.78 1041.96 107.65 1037.66 C 109.81 1033.44 110.74 1028.31 114.77 1025.41 C 115.22 1029.11 113.67 1031.95 112.27 1035.22 C 109.91 1040.24 107.42 1045.58 104.06 1049.99 C 101.60 1052.59 101.93 1056.65 101.84 1060.00 C 102.37 1067.33 102.45 1074.68 103.05 1082.00 C 103.16 1083.66 103.13 1085.28 102.60 1086.88 C 100.89 1092.06 98.90 1097.12 96.79 1102.15 C 95.74 1105.88 94.05 1109.59 91.70 1112.69 C 87.44 1116.99 80.83 1119.22 75.01 1120.40 C 68.36 1121.15 60.58 1121.44 54.37 1118.63 C 47.20 1115.72 41.34 1109.24 37.18 1102.89 C 36.29 1101.84 35.85 1100.12 34.14 1100.81 C 34.40 1100.30 34.65 1099.77 34.90 1099.25 C 30.54 1091.92 27.17 1083.88 24.26 1075.88 C 21.67 1068.31 19.10 1060.90 17.86 1053.00 C 16.23 1041.68 16.32 1030.37 17.30 1019.01 C 17.95 1006.78 20.58 994.25 20.71 982.00 C 20.88 969.33 20.75 956.67 20.83 944.00 C 21.59 933.54 21.01 923.27 24.29 913.18 C 27.24 904.54 33.41 896.90 41.34 892.35 Z"
       id="p20" />
    <path
       d="M 734.26 924.20 C 737.65 927.90 740.50 934.69 745.97 935.19 C 752.61 935.93 759.96 932.87 765.69 929.69 C 768.68 928.22 771.15 926.07 774.28 924.99 C 772.64 927.89 770.05 929.55 767.30 931.30 C 763.14 933.83 758.20 934.17 754.86 937.85 C 752.49 940.21 751.46 945.23 754.50 947.46 C 760.42 952.45 766.25 957.86 770.91 964.06 C 776.02 970.70 776.06 980.00 776.07 988.00 C 775.31 997.29 777.99 1006.89 776.76 1016.00 C 776.51 1019.56 775.76 1024.42 773.01 1026.96 C 768.16 1030.46 760.23 1028.94 754.71 1028.14 L 753.99 1026.87 C 758.27 1027.01 762.63 1027.03 766.89 1026.53 C 769.33 1026.19 771.50 1024.51 771.90 1021.99 C 772.38 1018.47 771.25 1015.22 770.04 1011.98 C 769.00 1009.08 767.79 1006.58 764.90 1005.14 C 758.06 1001.56 748.84 1002.14 741.38 1002.40 C 742.94 998.29 746.49 993.58 750.28 991.29 C 756.54 988.09 765.42 992.31 772.15 992.22 C 773.51 985.89 771.20 978.54 769.54 972.40 C 768.75 970.21 768.40 967.00 766.28 965.72 C 761.34 962.00 756.37 958.31 751.47 954.54 C 749.16 952.80 747.33 950.62 745.81 948.16 C 741.83 941.73 738.84 935.08 735.65 928.26 C 735.03 926.96 734.62 925.59 734.26 924.20 Z"
       id="p21" />
    <path
       d="M 617.13 975.40 C 620.53 978.61 624.65 979.52 628.70 981.50 L 629.38 982.76 C 627.53 984.22 627.99 986.09 630.05 986.97 C 633.79 988.37 638.83 986.24 642.90 986.52 C 639.95 987.75 637.05 988.71 634.63 990.89 C 637.56 995.71 640.72 1000.29 644.63 1004.37 C 645.96 1005.84 647.36 1006.97 647.79 1009.02 C 646.07 1010.32 645.04 1012.07 643.69 1013.70 C 639.76 1016.85 634.67 1018.55 630.74 1021.73 C 627.26 1024.74 625.76 1029.54 625.70 1034.02 C 625.88 1035.39 626.03 1036.87 627.46 1037.49 C 632.06 1039.87 637.86 1041.77 641.83 1045.18 C 643.80 1046.76 644.11 1049.22 643.46 1051.54 C 641.11 1057.09 636.87 1060.81 632.06 1064.20 C 633.51 1065.43 636.06 1065.13 637.91 1065.63 C 626.90 1065.50 614.85 1064.18 604.94 1059.06 C 602.00 1058.51 598.89 1058.62 595.91 1058.78 C 598.52 1058.46 601.15 1058.24 603.78 1058.10 C 603.14 1056.42 602.49 1054.85 602.59 1053.00 C 602.62 1043.50 603.63 1033.22 607.44 1024.42 C 608.30 1022.25 609.85 1020.16 610.36 1017.89 C 611.02 1004.40 613.27 990.95 616.86 977.93 C 617.05 977.11 617.14 976.26 617.13 975.40 Z"
       id="p22" />
    <path
       d="M 656.27 1005.16 C 658.64 1008.02 660.67 1011.06 663.48 1013.54 C 667.12 1017.15 671.80 1018.94 675.37 1022.63 C 678.87 1026.23 681.84 1030.44 684.08 1034.93 C 685.49 1037.78 686.10 1040.59 687.89 1043.06 C 691.88 1048.60 697.23 1053.29 702.09 1057.91 C 705.08 1060.59 703.87 1064.61 707.87 1066.18 C 716.88 1070.62 726.21 1072.78 736.03 1074.50 C 731.66 1077.63 726.69 1079.57 721.23 1078.52 C 726.49 1080.12 731.76 1080.72 737.16 1081.51 C 733.08 1084.41 725.89 1081.96 721.87 1084.89 C 731.64 1086.08 741.97 1085.12 751.48 1082.62 C 758.26 1080.92 764.37 1077.84 770.96 1075.60 C 767.07 1075.64 763.20 1075.56 759.33 1075.18 C 760.30 1072.78 763.95 1071.74 766.02 1070.32 C 753.29 1071.45 739.67 1070.69 727.08 1068.53 C 732.04 1067.70 737.05 1067.50 741.99 1066.51 C 750.38 1065.28 758.42 1062.78 766.78 1061.46 C 760.00 1061.74 753.68 1063.03 746.92 1061.49 C 750.32 1059.57 755.10 1056.69 756.47 1052.86 C 749.29 1055.09 742.68 1058.00 735.01 1058.46 C 727.87 1058.85 719.86 1058.69 713.09 1056.29 C 717.02 1046.74 728.48 1040.64 734.24 1032.22 C 739.15 1027.87 747.53 1025.56 753.99 1026.87 L 754.71 1028.14 C 757.16 1032.86 759.67 1037.81 762.85 1042.09 C 764.48 1044.74 767.42 1044.24 769.96 1046.05 C 773.41 1048.53 776.12 1052.25 777.72 1056.16 C 776.53 1063.73 778.70 1071.03 777.54 1078.58 C 776.69 1082.76 771.08 1083.31 767.75 1084.62 C 760.15 1085.69 752.57 1087.20 745.02 1088.57 C 735.49 1090.17 726.54 1088.85 716.99 1088.25 C 705.58 1086.81 694.10 1085.16 682.86 1082.68 C 678.99 1081.76 674.65 1081.15 671.15 1079.18 C 671.59 1076.69 669.60 1075.27 669.53 1072.91 C 669.47 1070.93 669.42 1069.03 668.77 1067.13 C 667.84 1064.08 667.98 1060.87 667.23 1057.82 C 666.02 1054.83 663.72 1053.15 660.86 1051.88 C 662.69 1050.70 664.94 1050.03 666.57 1048.60 C 667.10 1046.84 666.97 1044.78 665.48 1043.53 C 662.73 1041.21 659.77 1041.21 656.45 1040.42 C 653.69 1039.80 651.67 1037.70 650.68 1035.12 C 651.01 1030.96 651.92 1027.23 651.20 1022.99 C 649.27 1017.10 653.68 1010.31 656.27 1005.16 Z"
       id="p23" />
    <path
       d="M 136.00 1010.70 C 140.40 1011.17 144.75 1011.75 149.01 1012.95 C 144.82 1011.85 140.40 1013.19 136.37 1014.42 C 132.29 1015.77 130.39 1019.33 126.83 1021.18 L 125.61 1020.25 C 127.02 1017.46 128.13 1014.42 129.82 1011.79 C 131.56 1010.57 133.96 1010.54 136.00 1010.70 Z"
       id="p24" />
    <path
       d="M 34.14 1100.81 C 35.85 1100.12 36.29 1101.84 37.18 1102.89 C 41.34 1109.24 47.20 1115.72 54.37 1118.63 C 60.58 1121.44 68.36 1121.15 75.01 1120.40 C 80.83 1119.22 87.44 1116.99 91.70 1112.69 C 94.05 1109.59 95.74 1105.88 96.79 1102.15 C 95.91 1106.57 95.62 1111.01 95.12 1115.46 C 94.51 1119.86 91.12 1122.95 87.19 1124.57 C 81.48 1127.04 74.11 1126.54 68.00 1126.75 C 46.98 1126.75 25.83 1126.98 4.87 1125.42 C 9.51 1124.30 14.24 1123.63 18.87 1122.40 C 20.91 1121.80 23.72 1121.60 25.23 1120.02 C 26.06 1117.96 25.92 1115.94 25.41 1113.83 C 24.64 1113.44 23.86 1113.05 23.09 1112.66 C 20.72 1113.30 18.42 1113.59 15.96 1113.66 L 16.41 1112.65 C 20.53 1111.45 24.76 1110.51 28.93 1109.50 C 28.77 1108.27 28.55 1107.05 28.27 1105.83 C 27.21 1105.42 26.15 1104.99 25.10 1104.56 C 28.01 1103.04 31.14 1102.13 34.14 1100.81 Z"
       id="p25" />
  </defs>
  <g
     stroke-width="10pt"
     id="g1880">
    <use
       stroke="#6c6c6c"
       xlink:href="#p1"
       id="use1830" />
    <use
       stroke="#0e0e0e"
       xlink:href="#p2"
       id="use1832" />
    <use
       stroke="#0e0e0e"
       xlink:href="#p3"
       id="use1834" />
    <use
       stroke="#0e0e0e"
       xlink:href="#p4"
       id="use1836" />
    <use
       stroke="#0e0e0e"
       xlink:href="#p5"
       id="use1838" />
    <use
       stroke="#0e0e0e"
       xlink:href="#p6"
       id="use1840" />
    <use
       stroke="#a3a3a3"
       xlink:href="#p7"
       id="use1842" />
    <use
       stroke="#0e0e0e"
       xlink:href="#p8"
       id="use1844" />
    <use
       stroke="#0e0e0e"
       xlink:href="#p9"
       id="use1846" />
    <use
       stroke="#6c6c6c"
       xlink:href="#p10"
       id="use1848" />
    <use
       stroke="#0e0e0e"
       xlink:href="#p11"
       id="use1850" />
    <use
       stroke="#a3a3a3"
       xlink:href="#p12"
       id="use1852" />
    <use
       stroke="#6c6c6c"
       xlink:href="#p13"
       id="use1854" />
    <use
       stroke="#6c6c6c"
       xlink:href="#p14"
       id="use1856" />
    <use
       stroke="#a3a3a3"
       xlink:href="#p15"
       id="use1858" />
    <use
       stroke="#6c6c6c"
       xlink:href="#p16"
       id="use1860" />
    <use
       stroke="#6c6c6c"
       xlink:href="#p17"
       id="use1862" />
    <use
       stroke="#0e0e0e"
       xlink:href="#p18"
       id="use1864" />
    <use
       stroke="#0e0e0e"
       xlink:href="#p19"
       id="use1866" />
    <use
       stroke="#a3a3a3"
       xlink:href="#p20"
       id="use1868" />
    <use
       stroke="#6c6c6c"
       xlink:href="#p21"
       id="use1870" />
    <use
       stroke="#a3a3a3"
       xlink:href="#p22"
       id="use1872" />
    <use
       stroke="#a3a3a3"
       xlink:href="#p23"
       id="use1874" />
    <use
       stroke="#6c6c6c"
       xlink:href="#p24"
       id="use1876" />
    <use
       stroke="#0e0e0e"
       xlink:href="#p25"
       id="use1878" />
  </g>
  <g
     id="g1934">
    <use
       fill="#6c6c6c"
       xlink:href="#p1"
       id="use1884" />
    <use
       fill="#0e0e0e"
       xlink:href="#p2"
       id="use1886" />
    <use
       fill="#0e0e0e"
       xlink:href="#p3"
       id="use1888" />
    <use
       fill="#0e0e0e"
       xlink:href="#p4"
       id="use1890" />
    <use
       fill="#0e0e0e"
       xlink:href="#p5"
       id="use1892" />
    <use
       fill="#0e0e0e"
       xlink:href="#p6"
       id="use1894" />
    <use
       fill="#a3a3a3"
       xlink:href="#p7"
       id="use1896" />
    <use
       fill="#0e0e0e"
       xlink:href="#p8"
       id="use1898" />
    <use
       fill="#0e0e0e"
       xlink:href="#p9"
       id="use1900" />
    <use
       fill="#6c6c6c"
       xlink:href="#p10"
       id="use1902" />
    <use
       fill="#0e0e0e"
       xlink:href="#p11"
       id="use1904" />
    <use
       fill="#a3a3a3"
       xlink:href="#p12"
       id="use1906" />
    <use
       fill="#6c6c6c"
       xlink:href="#p13"
       id="use1908" />
    <use
       fill="#6c6c6c"
       xlink:href="#p14"
       id="use1910" />
    <use
       fill="#a3a3a3"
       xlink:href="#p15"
       id="use1912" />
    <use
       fill="#6c6c6c"
       xlink:href="#p16"
       id="use1914" />
    <use
       fill="#6c6c6c"
       xlink:href="#p17"
       id="use1916" />
    <use
       fill="#0e0e0e"
       xlink:href="#p18"
       id="use1918" />
    <use
       fill="#0e0e0e"
       xlink:href="#p19"
       id="use1920" />
    <use
       fill="#a3a3a3"
       xlink:href="#p20"
       id="use1922" />
    <use
       fill="#6c6c6c"
       xlink:href="#p21"
       id="use1924" />
    <use
       fill="#a3a3a3"
       xlink:href="#p22"
       id="use1926" />
    <use
       fill="#a3a3a3"
       xlink:href="#p23"
       id="use1928" />
    <use
       fill="#6c6c6c"
       xlink:href="#p24"
       id="use1930" />
    <use
       xlink:href="#p25"
       id="use1932"
       fill="#0e0e0e" />
  </g>
</svg>
