<?xml version="1.0" standalone="no"?>
<!DOCTYPE svg PUBLIC "-//W3C//DTD SVG 20010904//EN"
 "http://www.w3.org/TR/2001/REC-SVG-20010904/DTD/svg10.dtd">
<svg version="1.0" xmlns="http://www.w3.org/2000/svg"
 width="1279.000000pt" height="1279.000000pt" viewBox="0 0 1279.000000 1279.000000"
 preserveAspectRatio="xMidYMid meet">
<metadata>
Created by potrace 1.16, written by Peter Selinger 2001-2019
</metadata>
<g transform="translate(0.000000,1279.000000) scale(0.100000,-0.100000)"
fill="#ffffff" stroke="none">
<path d="M6044 12772 c-73 -35 -134 -130 -134 -210 0 -55 34 -129 79 -173 130
-126 335 -68 387 109 29 100 -5 201 -87 258 -37 25 -52 29 -123 32 -63 2 -90
-2 -122 -16z"/>
<path d="M7014 12742 c-87 -42 -143 -144 -131 -243 28 -232 338 -294 441 -88
45 91 32 205 -32 272 -65 69 -196 97 -278 59z"/>
<path d="M5130 12681 c-110 -34 -174 -119 -174 -231 0 -96 44 -173 128 -218
46 -25 159 -22 211 5 111 58 159 192 110 311 -39 96 -177 163 -275 133z"/>
<path d="M7964 12546 c-150 -70 -181 -272 -59 -385 51 -47 109 -65 181 -58
131 13 214 105 214 237 0 178 -171 283 -336 206z"/>
<path d="M4155 12396 c-90 -42 -135 -112 -135 -208 1 -70 27 -125 83 -174 80
-70 175 -83 268 -36 75 38 112 99 117 193 7 109 -31 179 -120 223 -68 34 -143
35 -213 2z"/>
<path d="M8915 12231 c-146 -37 -217 -196 -151 -337 70 -151 263 -178 383 -52
88 91 84 238 -8 325 -57 53 -155 82 -224 64z"/>
<path d="M3290 11999 c-188 -85 -198 -336 -16 -431 83 -44 210 -24 273 44 55
58 80 182 52 255 -47 127 -187 187 -309 132z"/>
<path d="M9785 11763 c-86 -19 -142 -59 -176 -125 -79 -154 33 -347 201 -348
67 0 111 16 160 57 56 48 80 101 80 181 0 117 -71 208 -181 231 -27 6 -53 10
-57 10 -4 -1 -16 -3 -27 -6z"/>
<path d="M2510 11471 c-111 -36 -170 -114 -170 -223 1 -137 97 -238 228 -238
99 0 178 45 217 124 58 116 13 261 -98 317 -44 23 -137 33 -177 20z"/>
<path d="M10480 11144 c-50 -22 -89 -61 -116 -119 -79 -168 48 -351 231 -332
215 22 297 271 135 409 -66 57 -174 75 -250 42z"/>
<path d="M1763 10799 c-111 -55 -165 -203 -114 -315 74 -163 322 -181 416 -29
27 43 30 57 30 124 0 106 -42 178 -127 222 -52 27 -149 26 -205 -2z"/>
<path d="M11190 10450 c-52 -10 -92 -34 -133 -79 -103 -114 -57 -316 85 -375
80 -34 207 -7 265 55 76 83 82 204 14 310 -44 70 -141 107 -231 89z"/>
<path d="M1165 10041 c-89 -41 -135 -114 -135 -213 0 -79 24 -133 79 -180 147
-125 375 -31 389 162 2 32 -1 75 -8 95 -16 50 -75 114 -125 136 -53 24 -147
24 -200 0z"/>
<path d="M11691 9636 c-94 -34 -154 -123 -155 -227 0 -57 4 -74 30 -115 44
-72 108 -108 198 -112 63 -3 77 0 126 25 74 39 113 100 118 189 5 79 -20 136
-83 192 -67 59 -155 77 -234 48z"/>
<path d="M715 9209 c-46 -13 -110 -72 -134 -124 -27 -58 -28 -154 -2 -210 38
-82 111 -125 211 -125 72 0 122 19 169 63 64 61 86 149 59 239 -15 51 -82 126
-133 149 -42 20 -119 23 -170 8z"/>
<path d="M4620 6030 c0 -1600 2 -2910 4 -2910 11 0 5020 2898 5023 2906 2 7
-2764 1611 -4979 2887 l-48 27 0 -2910z"/>
<path d="M12085 8751 c-149 -68 -192 -268 -82 -381 104 -107 296 -90 371 33
75 123 28 286 -101 351 -43 22 -137 20 -188 -3z"/>
<path d="M339 8282 c-39 -20 -62 -41 -84 -77 -27 -43 -30 -57 -30 -124 1 -90
23 -141 82 -190 105 -87 277 -61 347 52 55 89 46 209 -22 288 -72 84 -191 104
-293 51z"/>
<path d="M12353 7824 c-60 -22 -120 -85 -138 -147 -19 -63 -19 -81 0 -145 31
-102 113 -162 223 -162 98 0 173 43 213 121 49 98 33 196 -45 274 -74 73 -157
92 -253 59z"/>
<path d="M162 7339 c-101 -50 -153 -177 -121 -294 14 -51 93 -130 146 -144
136 -38 268 32 310 166 32 103 -18 217 -118 267 -68 34 -154 36 -217 5z"/>
<path d="M12490 6871 c-164 -50 -229 -232 -132 -367 90 -124 294 -130 381 -12
134 182 -38 443 -249 379z"/>
<path d="M157 6386 c-56 -15 -111 -64 -138 -121 -23 -50 -25 -151 -4 -203 38
-90 139 -150 236 -139 167 20 264 185 195 332 -50 109 -171 163 -289 131z"/>
<path d="M12430 5894 c-96 -42 -150 -122 -150 -224 0 -132 100 -230 235 -230
97 0 171 47 211 135 46 98 25 205 -54 277 -63 57 -166 75 -242 42z"/>
<path d="M229 5407 c-143 -76 -167 -278 -46 -384 113 -99 284 -75 362 52 26
42 30 58 30 119 -1 106 -49 184 -137 220 -57 24 -156 21 -209 -7z"/>
<path d="M12235 4945 c-54 -19 -120 -91 -135 -146 -15 -55 -6 -138 20 -189 88
-173 367 -154 429 29 14 43 14 114 0 164 -13 49 -73 115 -124 138 -48 22 -134
24 -190 4z"/>
<path d="M505 4481 c-53 -24 -111 -90 -126 -143 -24 -90 7 -196 75 -255 103
-91 275 -61 351 61 27 45 30 58 30 132 0 75 -3 86 -30 125 -62 89 -201 126
-300 80z"/>
<path d="M11900 4037 c-57 -18 -125 -94 -140 -156 -28 -118 34 -240 146 -287
46 -19 131 -17 179 5 75 34 145 141 145 223 0 81 -61 176 -134 209 -46 21
-140 24 -196 6z"/>
<path d="M915 3605 c-22 -8 -59 -34 -82 -58 -65 -69 -81 -162 -42 -247 53
-117 171 -173 294 -139 83 23 165 137 165 229 0 162 -173 272 -335 215z"/>
<path d="M11446 3200 c-63 -19 -129 -83 -152 -148 -31 -88 -2 -196 69 -259
105 -92 285 -62 361 61 74 120 12 293 -123 341 -47 16 -109 18 -155 5z"/>
<path d="M1440 2793 c-102 -54 -149 -164 -116 -276 31 -106 110 -169 216 -170
101 -1 174 43 216 129 22 45 26 64 22 117 -8 136 -87 218 -217 225 -57 3 -73
0 -121 -25z"/>
<path d="M10815 2431 c-134 -61 -175 -241 -81 -364 47 -62 97 -87 176 -87 80
0 133 23 179 75 46 53 61 94 61 166 0 104 -64 192 -161 219 -53 15 -130 11
-174 -9z"/>
<path d="M2125 2095 c-57 -21 -114 -71 -136 -119 -22 -49 -25 -143 -6 -189 53
-126 210 -183 334 -122 81 41 123 114 123 215 0 80 -39 154 -102 193 -57 36
-150 45 -213 22z"/>
<path d="M10105 1766 c-170 -79 -181 -311 -21 -411 43 -26 59 -30 120 -30 60
0 79 5 125 30 91 50 133 143 112 248 -32 151 -193 230 -336 163z"/>
<path d="M2881 1497 c-160 -61 -203 -273 -80 -396 45 -46 93 -64 164 -64 74 1
126 25 178 82 129 143 28 379 -167 388 -33 1 -76 -3 -95 -10z"/>
<path d="M9329 1247 c-164 -61 -214 -280 -91 -400 96 -94 229 -91 327 8 121
120 93 299 -59 377 -50 25 -130 32 -177 15z"/>
<path d="M3750 1031 c-133 -41 -210 -178 -169 -302 53 -156 257 -216 379 -112
57 49 80 101 80 183 0 80 -22 132 -78 182 -57 52 -140 71 -212 49z"/>
<path d="M8414 825 c-82 -41 -124 -115 -124 -213 1 -126 82 -216 206 -229 73
-8 135 12 188 58 58 51 76 92 76 171 0 54 -5 72 -32 118 -46 75 -105 111 -195
117 -59 4 -75 1 -119 -22z"/>
<path d="M4650 691 c-108 -35 -169 -119 -170 -232 -1 -199 237 -302 391 -171
55 47 79 101 79 178 0 131 -84 223 -212 230 -35 2 -74 0 -88 -5z"/>
<path d="M7512 572 c-99 -36 -152 -113 -152 -222 0 -114 60 -195 169 -226 91
-27 175 -1 244 75 43 48 61 107 54 180 -16 153 -167 245 -315 193z"/>
<path d="M5603 509 c-52 -12 -130 -79 -154 -134 -44 -95 -13 -219 70 -282 191
-146 439 27 369 258 -33 111 -167 185 -285 158z"/>
<path d="M6557 466 c-97 -35 -157 -124 -157 -232 0 -75 9 -100 51 -148 47 -54
99 -77 174 -78 98 0 179 46 223 127 25 46 22 159 -5 211 -57 107 -178 158
-286 120z"/>
</g>
</svg>
