<?xml version="1.0" standalone="no"?>
<!DOCTYPE svg PUBLIC "-//W3C//DTD SVG 20010904//EN"
 "http://www.w3.org/TR/2001/REC-SVG-20010904/DTD/svg10.dtd">
<svg version="1.0" xmlns="http://www.w3.org/2000/svg"
 width="2568.000000pt" height="4010.000000pt" viewBox="0 0 2568.000000 4010.000000"
 preserveAspectRatio="xMidYMid meet">
<metadata>
Created by potrace 1.16, written by Peter Selinger 2001-2019
</metadata>
<g transform="translate(0.000000,4010.000000) scale(0.100000,-0.100000)"
fill="#ff008a" stroke="none">
<path d="M9485 38833 c-26 -39 -16 -145 16 -179 20 -22 25 -39 30 -117 4 -64
13 -107 28 -142 13 -27 27 -83 32 -124 7 -59 14 -80 34 -101 19 -20 25 -37 25
-71 1 -24 10 -69 21 -99 11 -30 30 -89 43 -130 12 -41 28 -86 35 -99 8 -14 17
-58 22 -99 5 -44 17 -88 29 -109 11 -19 25 -56 30 -81 6 -26 21 -72 34 -102
13 -30 29 -88 35 -128 6 -41 18 -87 27 -104 8 -16 24 -70 35 -120 11 -50 24
-99 29 -109 6 -9 19 -62 29 -116 19 -96 53 -198 90 -271 10 -21 24 -61 30 -90
6 -29 18 -67 27 -85 9 -17 23 -59 31 -92 8 -33 30 -87 50 -120 49 -83 112
-228 129 -299 8 -32 33 -95 56 -140 23 -44 51 -115 64 -156 12 -41 36 -109 53
-150 139 -341 169 -421 185 -499 9 -40 27 -93 41 -117 49 -84 73 -139 80 -187
4 -31 16 -59 34 -80 37 -42 76 -122 85 -172 4 -22 16 -60 27 -84 11 -24 26
-71 35 -104 8 -33 35 -99 59 -148 24 -48 50 -109 56 -136 6 -26 22 -62 34 -78
12 -17 26 -45 29 -62 4 -18 16 -43 27 -57 10 -13 28 -50 39 -83 54 -162 71
-206 89 -229 10 -13 22 -41 26 -61 4 -21 13 -50 22 -66 8 -16 22 -53 30 -81 8
-28 25 -67 38 -86 13 -19 26 -51 30 -70 4 -19 15 -51 25 -70 9 -19 23 -60 30
-90 7 -30 21 -71 31 -90 9 -20 20 -53 24 -73 4 -21 20 -56 36 -80 16 -23 29
-51 29 -62 0 -11 11 -43 24 -70 12 -28 26 -66 29 -85 4 -19 17 -51 29 -70 22
-34 49 -103 89 -228 11 -35 31 -78 43 -97 13 -19 27 -51 31 -72 4 -20 15 -53
25 -73 9 -19 21 -51 25 -70 4 -19 20 -55 35 -80 15 -25 31 -61 35 -80 4 -19
15 -51 25 -70 10 -19 21 -51 25 -70 4 -19 20 -56 36 -81 16 -25 29 -54 29 -65
0 -10 11 -42 24 -70 13 -28 27 -66 31 -85 4 -19 17 -50 30 -69 13 -19 29 -55
35 -80 7 -25 20 -61 30 -80 9 -19 20 -51 24 -71 4 -21 18 -53 31 -73 16 -24
25 -51 25 -76 0 -45 14 -87 38 -113 9 -11 24 -44 34 -75 33 -111 68 -204 86
-230 12 -18 19 -46 20 -85 0 -37 8 -74 22 -103 13 -25 26 -76 30 -112 7 -64
29 -124 49 -137 6 -3 13 -26 17 -50 3 -25 14 -55 23 -68 10 -12 23 -46 29 -75
7 -29 23 -68 37 -86 14 -18 25 -41 25 -51 0 -9 11 -43 24 -74 13 -31 30 -76
37 -100 7 -25 23 -59 35 -76 11 -17 24 -44 28 -60 4 -16 16 -39 27 -53 10 -14
24 -43 30 -66 6 -22 35 -90 65 -150 30 -60 54 -109 54 -110 0 -1 -16 0 -35 2
-39 5 -75 -18 -75 -47 0 -9 -9 -33 -20 -54 -13 -24 -20 -56 -20 -90 0 -40 -5
-60 -20 -77 -11 -13 -20 -35 -20 -50 0 -15 -9 -35 -20 -45 -11 -10 -20 -22
-20 -27 0 -6 -9 -21 -20 -35 -11 -14 -20 -34 -20 -44 0 -11 -4 -19 -8 -19 -5
0 -19 -23 -32 -51 -14 -28 -38 -62 -54 -76 -16 -13 -44 -49 -63 -80 -31 -53
-143 -173 -160 -173 -5 0 -55 -45 -113 -100 -57 -55 -107 -100 -112 -100 -7 0
-64 -53 -188 -174 -25 -24 -61 -52 -80 -61 -46 -23 -214 -194 -239 -243 -11
-21 -32 -47 -46 -56 -15 -10 -51 -42 -81 -72 -30 -29 -69 -61 -87 -70 -18 -9
-50 -31 -72 -49 -22 -18 -60 -42 -84 -54 -24 -13 -65 -38 -92 -56 -26 -19 -87
-54 -136 -79 -48 -25 -126 -68 -173 -95 -137 -80 -352 -188 -390 -195 -19 -4
-60 -22 -90 -41 -30 -19 -60 -35 -67 -35 -8 0 -37 -12 -66 -27 -29 -14 -81
-34 -117 -44 -69 -19 -181 -57 -242 -83 -21 -9 -48 -16 -60 -16 -13 0 -57 -16
-98 -36 -41 -20 -169 -67 -285 -105 -115 -38 -223 -74 -240 -80 -16 -6 -52
-16 -80 -23 -27 -7 -60 -18 -72 -24 -12 -7 -30 -12 -40 -12 -11 0 -56 -18
-102 -40 -45 -22 -97 -40 -115 -40 -17 0 -57 -9 -89 -20 -31 -11 -69 -20 -84
-20 -30 0 -137 -32 -201 -61 -29 -13 -65 -19 -115 -19 -54 0 -80 -5 -105 -20
-42 -26 -79 -26 -87 0 -3 11 -11 20 -16 20 -5 0 -9 5 -9 10 0 12 -41 73 -52
78 -5 2 -8 8 -8 14 0 11 -48 75 -88 118 -13 14 -57 75 -98 135 -40 61 -90 128
-109 150 -20 22 -48 58 -63 80 -15 22 -31 45 -37 51 -5 6 -17 22 -25 34 -27
41 -128 168 -139 175 -6 3 -20 23 -31 43 -10 20 -31 51 -46 67 -15 17 -41 53
-60 80 -18 28 -54 73 -79 100 -26 28 -53 61 -60 75 -13 25 -59 94 -179 270
-32 47 -76 103 -98 125 -68 69 -144 168 -173 225 -39 77 -173 278 -246 369
-26 31 -53 71 -62 87 -9 17 -35 52 -59 80 -24 27 -55 67 -68 89 -14 22 -41 58
-62 81 -20 22 -46 62 -58 88 -19 46 -87 148 -167 250 -21 27 -55 74 -76 105
-21 31 -61 79 -87 106 -27 28 -58 73 -70 100 -12 28 -39 73 -59 100 -21 28
-51 70 -66 94 -15 24 -44 62 -64 85 -21 22 -49 61 -63 86 -45 79 -127 212
-151 244 -13 17 -31 45 -40 61 -8 17 -30 46 -48 65 -18 19 -46 64 -62 100 -16
36 -43 85 -60 110 -17 25 -40 59 -51 75 -11 17 -66 100 -123 185 -56 85 -116
173 -132 196 -16 22 -53 88 -81 145 -29 57 -64 117 -77 133 -13 16 -47 73 -74
127 -54 109 -133 230 -193 299 -21 25 -60 90 -86 145 -31 65 -68 123 -105 165
-31 36 -72 96 -91 134 -19 38 -40 77 -48 85 -7 9 -40 65 -71 126 -32 60 -77
137 -102 170 -24 33 -59 95 -77 137 -18 42 -52 105 -75 140 -22 35 -50 81 -62
103 -12 22 -61 101 -109 175 -48 74 -107 171 -130 215 -23 44 -57 104 -76 133
-20 28 -51 84 -70 123 -19 39 -51 93 -69 120 -101 142 -125 185 -178 310 -32
74 -78 168 -103 209 -26 41 -61 109 -80 153 -18 44 -52 110 -74 147 -23 38
-50 92 -61 121 -30 77 -44 103 -129 229 -91 137 -152 246 -175 317 -9 29 -54
115 -100 192 -46 76 -94 165 -107 198 -21 51 -81 150 -170 280 -16 23 -43 73
-60 110 -33 73 -154 256 -223 338 -51 61 -148 207 -168 255 -9 19 -21 50 -28
68 -7 19 -57 102 -112 185 -113 173 -189 304 -207 361 -7 21 -34 75 -61 119
-27 44 -54 97 -59 116 -6 20 -26 61 -45 91 -19 30 -35 58 -35 64 0 5 -15 39
-34 75 -18 36 -54 118 -79 181 -58 144 -154 330 -201 389 -20 25 -50 70 -67
100 -27 53 -44 73 -111 135 -43 39 -32 -6 14 -60 12 -13 37 -59 55 -101 19
-43 43 -87 53 -98 29 -31 143 -272 184 -390 21 -58 51 -132 68 -163 16 -31 37
-77 45 -102 8 -25 24 -57 34 -72 11 -14 32 -57 47 -95 15 -38 42 -89 58 -113
17 -25 42 -75 56 -111 30 -78 107 -215 222 -394 46 -71 89 -148 96 -170 16
-55 125 -238 182 -307 83 -100 188 -256 223 -335 20 -42 74 -137 122 -212 47
-74 97 -162 110 -196 13 -33 45 -96 73 -140 66 -108 107 -185 126 -242 24 -71
80 -177 143 -273 30 -47 58 -87 61 -90 20 -18 73 -116 95 -175 14 -38 44 -100
66 -136 22 -36 55 -102 73 -145 18 -43 47 -101 64 -129 44 -69 83 -151 137
-282 26 -62 61 -131 79 -155 70 -93 124 -176 148 -229 14 -30 46 -87 70 -125
25 -38 68 -112 96 -165 27 -53 75 -132 105 -175 29 -43 73 -113 97 -154 23
-41 58 -99 77 -128 19 -29 57 -101 84 -159 27 -58 57 -112 66 -121 28 -28 84
-122 121 -200 18 -41 43 -84 54 -96 11 -12 35 -54 54 -94 21 -46 53 -93 84
-125 37 -37 66 -84 106 -167 31 -64 72 -133 93 -155 53 -55 132 -178 187 -288
26 -50 61 -112 79 -137 18 -25 53 -87 79 -138 46 -91 112 -198 159 -257 13
-16 32 -46 42 -65 10 -19 29 -48 42 -65 55 -68 176 -264 195 -314 12 -30 37
-73 57 -95 48 -53 156 -219 248 -381 19 -33 51 -78 72 -100 21 -22 50 -60 64
-85 15 -25 38 -58 51 -74 14 -15 35 -49 47 -75 11 -25 26 -56 31 -68 6 -12 36
-48 67 -80 32 -32 68 -76 81 -98 13 -22 40 -58 60 -80 21 -22 49 -60 63 -85
15 -25 34 -54 44 -65 22 -24 53 -72 53 -81 0 -3 -10 -4 -23 0 l-23 5 -3 -218
c-2 -191 0 -223 15 -252 14 -28 17 -66 18 -235 1 -193 2 -204 24 -233 19 -26
22 -43 22 -115 0 -59 6 -102 19 -138 11 -30 21 -89 23 -138 3 -53 11 -97 21
-117 14 -26 17 -61 17 -175 0 -121 3 -153 21 -203 21 -59 21 -66 15 -593 -6
-450 -10 -540 -23 -575 -12 -32 -18 -101 -23 -287 -4 -156 -11 -256 -19 -274
-6 -16 -16 -79 -20 -140 -5 -61 -15 -124 -21 -141 -8 -18 -15 -105 -19 -215
-5 -131 -11 -192 -21 -210 -9 -17 -16 -76 -21 -175 -4 -98 -12 -164 -22 -190
-12 -29 -16 -76 -17 -173 0 -100 -4 -142 -16 -170 -12 -26 -19 -83 -24 -187
-5 -99 -12 -163 -23 -190 -11 -28 -16 -74 -17 -153 0 -87 -4 -120 -17 -145
-12 -23 -19 -68 -23 -167 -4 -95 -11 -146 -23 -172 -9 -21 -17 -59 -17 -85 0
-26 -9 -72 -20 -101 -11 -29 -20 -74 -20 -102 0 -27 -9 -72 -20 -100 -11 -28
-20 -72 -20 -98 0 -26 -9 -71 -20 -100 -13 -34 -20 -76 -20 -121 0 -47 -6 -83
-20 -112 -17 -38 -20 -67 -20 -199 0 -132 -3 -161 -20 -199 -16 -34 -20 -65
-20 -151 0 -90 -4 -118 -25 -174 -18 -47 -25 -86 -25 -134 0 -48 -6 -78 -20
-105 -15 -27 -20 -56 -20 -111 0 -52 -6 -88 -20 -121 -11 -27 -20 -69 -20 -99
0 -28 -7 -76 -16 -106 -8 -30 -20 -90 -24 -132 -5 -43 -16 -90 -23 -105 -8
-16 -17 -59 -20 -98 -3 -38 -13 -87 -21 -107 -9 -21 -16 -56 -16 -78 0 -23 -9
-62 -19 -88 -11 -26 -22 -75 -25 -110 -3 -34 -12 -72 -20 -85 -8 -12 -17 -42
-21 -67 -4 -25 -12 -54 -18 -65 -6 -11 -16 -65 -23 -120 -7 -55 -17 -120 -24
-143 -6 -24 -13 -85 -15 -134 -3 -61 -9 -96 -19 -107 -9 -9 -18 -47 -21 -86
-4 -39 -13 -86 -20 -105 -7 -19 -16 -71 -20 -115 -4 -44 -13 -107 -21 -140 -7
-33 -14 -85 -14 -115 0 -30 -7 -66 -15 -80 -8 -14 -15 -38 -15 -55 0 -16 -9
-50 -20 -74 -11 -24 -23 -62 -27 -85 -3 -22 -21 -74 -40 -115 -18 -40 -33 -78
-33 -84 0 -5 -16 -34 -35 -63 -19 -29 -35 -57 -35 -63 0 -5 -26 -43 -59 -83
-53 -66 -119 -126 -217 -198 -19 -14 -55 -56 -80 -93 -34 -50 -58 -74 -92 -91
-26 -14 -64 -40 -86 -60 -21 -20 -44 -36 -50 -36 -6 0 -42 -16 -80 -35 -39
-19 -75 -35 -81 -35 -6 0 -28 -9 -50 -20 -22 -11 -51 -20 -66 -20 -14 0 -38
-9 -52 -20 -14 -11 -39 -20 -55 -20 -17 0 -61 -16 -99 -36 -42 -22 -92 -39
-132 -45 -35 -5 -75 -15 -90 -23 -43 -21 -152 -54 -205 -60 -27 -3 -59 -12
-70 -20 -12 -7 -46 -16 -76 -19 -30 -3 -80 -13 -110 -21 -34 -10 -95 -16 -163
-16 -88 0 -115 -4 -147 -20 -27 -14 -59 -20 -102 -20 -45 0 -72 -6 -96 -20
-18 -11 -45 -20 -61 -20 -24 0 -59 -19 -181 -100 -14 -9 -41 -22 -60 -30 -19
-8 -46 -27 -58 -42 -13 -16 -32 -28 -42 -28 -21 0 -141 -103 -269 -231 -82
-81 -207 -241 -261 -334 -14 -24 -33 -51 -42 -62 -19 -21 -58 -108 -58 -129 0
-9 -20 -63 -45 -121 -43 -100 -45 -110 -45 -201 0 -75 -5 -107 -20 -141 -19
-41 -20 -66 -20 -525 0 -458 1 -483 20 -525 12 -25 20 -65 20 -94 0 -50 4 -59
109 -267 4 -8 17 -33 28 -55 11 -22 23 -52 26 -67 4 -14 23 -50 42 -79 19 -30
35 -60 35 -67 0 -8 6 -28 14 -45 7 -18 19 -48 26 -67 17 -46 135 -292 274
-568 127 -254 122 -246 157 -292 14 -19 43 -68 63 -109 20 -41 45 -82 54 -90
23 -21 71 -92 112 -166 19 -33 45 -70 57 -83 13 -13 23 -27 23 -32 0 -14 48
-82 74 -105 12 -11 36 -42 52 -70 16 -27 76 -97 134 -155 58 -58 116 -121 130
-139 14 -18 36 -43 50 -55 13 -11 42 -41 65 -64 22 -24 64 -69 92 -99 29 -31
63 -71 75 -90 13 -18 31 -36 41 -39 9 -3 26 -22 36 -43 21 -40 28 -46 146
-123 44 -28 86 -60 93 -70 17 -24 52 -57 89 -85 63 -48 323 -315 359 -368 20
-31 47 -60 60 -65 12 -5 29 -19 38 -32 24 -34 120 -140 214 -237 46 -47 93
-99 105 -115 12 -16 47 -55 77 -87 30 -32 73 -83 95 -114 22 -30 52 -69 68
-86 15 -17 27 -34 27 -38 0 -3 15 -22 33 -41 18 -19 50 -61 70 -93 21 -32 55
-77 76 -100 21 -23 41 -51 45 -63 3 -11 25 -41 49 -65 23 -25 53 -61 67 -81
13 -20 36 -43 51 -52 15 -9 82 -70 148 -136 67 -66 125 -120 129 -120 7 0 23
-16 116 -113 20 -20 40 -37 44 -37 4 0 30 -21 58 -47 28 -27 67 -63 87 -81 31
-27 37 -39 37 -72 0 -22 9 -57 20 -77 13 -25 20 -57 20 -94 0 -31 7 -73 15
-92 9 -22 15 -67 15 -112 0 -55 6 -88 20 -120 19 -41 20 -64 20 -266 -1 -179
2 -225 14 -243 10 -17 15 -60 18 -157 2 -105 7 -142 21 -171 18 -35 19 -69 15
-585 -3 -507 -2 -550 15 -580 15 -29 17 -70 17 -431 0 -377 1 -402 20 -443 18
-41 20 -67 20 -440 0 -363 2 -402 20 -474 18 -70 20 -111 20 -403 0 -309 1
-325 20 -349 18 -23 20 -41 20 -200 0 -160 2 -177 20 -200 18 -23 20 -41 20
-163 0 -122 2 -140 20 -163 18 -23 20 -40 20 -200 0 -153 2 -180 20 -218 17
-39 20 -66 20 -232 0 -154 3 -194 16 -220 12 -22 16 -54 15 -107 -1 -56 4 -91
19 -131 11 -30 22 -83 25 -118 3 -35 13 -79 21 -99 9 -21 22 -55 29 -77 7 -22
26 -76 42 -120 17 -44 33 -101 37 -125 4 -25 13 -54 20 -65 8 -11 17 -40 21
-64 10 -62 91 -226 147 -299 26 -35 48 -68 48 -73 0 -6 26 -38 58 -72 32 -34
76 -87 97 -117 22 -30 46 -60 55 -67 22 -18 70 -16 92 4 16 14 29 15 116 5 53
-6 124 -14 157 -17 33 -3 67 -8 75 -12 24 -9 152 -22 315 -32 83 -5 168 -14
190 -20 24 -6 180 -11 390 -11 333 0 351 1 380 20 23 15 47 20 103 20 47 0 84
6 104 16 17 9 59 18 92 21 34 2 77 8 96 14 19 5 98 14 175 19 330 22 442 31
470 39 17 5 53 12 80 16 28 4 86 16 130 27 44 11 101 25 127 31 25 7 57 22 70
33 27 25 91 58 131 68 20 5 27 3 27 -9 0 -25 47 -49 73 -38 36 17 76 84 83
138 6 47 30 124 60 190 7 17 16 44 20 60 4 17 16 44 26 60 10 17 18 37 18 45
0 9 9 33 20 55 14 27 20 59 20 102 0 45 6 72 20 95 15 25 20 51 20 102 0 51 4
74 17 88 12 13 19 46 24 111 4 51 15 112 24 137 9 25 20 77 25 115 4 39 15 88
24 110 8 22 15 67 16 101 0 35 7 75 16 93 9 18 18 69 22 114 3 53 12 92 24
112 14 23 18 50 18 119 0 66 4 94 15 106 11 12 18 47 22 106 3 49 12 104 19
122 7 17 16 60 20 94 4 35 15 81 25 103 13 27 19 64 19 115 0 56 5 86 20 115
15 29 20 59 20 112 0 49 7 89 20 123 16 40 20 74 20 161 0 75 5 121 15 146 9
20 18 85 21 152 4 64 12 125 18 136 7 13 13 138 16 355 5 287 8 340 23 372 15
32 17 73 17 282 0 222 2 249 20 291 19 43 20 69 20 356 l0 310 -25 47 -25 47
0 373 c0 336 -2 376 -17 405 -15 27 -18 59 -18 196 0 158 -1 164 -22 178 -21
14 -23 23 -23 107 0 73 -4 97 -20 124 -12 19 -20 50 -20 77 0 24 -9 67 -20 95
-13 33 -20 74 -20 119 0 42 -8 90 -20 126 -15 43 -20 84 -20 161 0 80 -5 115
-20 154 -13 33 -20 74 -20 120 0 46 -7 87 -20 120 -14 36 -20 75 -20 133 -1
55 -7 100 -20 137 -14 41 -19 82 -20 162 0 84 -5 122 -22 170 -20 60 -21 73
-15 349 l6 287 -25 28 -26 27 3 732 c3 667 2 734 -13 757 -15 22 -17 69 -20
364 -3 317 -4 341 -23 374 -19 34 -20 56 -23 616 -3 565 -2 583 18 633 18 47
20 74 20 276 0 206 2 228 20 262 18 34 20 57 20 231 0 164 3 198 17 225 14 26
19 69 24 227 4 146 10 205 22 235 13 33 16 83 17 289 0 223 2 251 18 269 14
15 18 45 23 151 4 85 12 145 22 171 13 31 16 78 17 211 0 140 3 179 17 210 13
29 19 80 24 189 4 103 11 163 22 190 12 31 16 76 17 195 0 111 5 169 16 205 8
28 19 111 24 185 4 74 15 160 24 190 9 30 16 80 16 111 0 31 7 72 15 91 8 20
17 65 21 100 6 58 10 67 35 82 52 31 51 89 -1 109 -35 13 -36 20 -14 73 13 31
16 84 18 284 1 213 3 249 19 277 14 27 17 60 17 225 0 176 2 196 20 223 19 28
20 48 20 350 0 297 2 323 20 364 14 31 20 65 20 118 0 48 6 85 16 105 9 17 19
68 24 114 4 46 13 91 21 100 10 12 15 54 17 143 3 102 7 134 24 170 15 31 22
67 23 120 1 42 7 89 14 104 6 16 11 71 11 123 0 75 4 100 17 118 l18 23 30
-41 c17 -23 46 -71 64 -108 18 -37 41 -75 50 -85 20 -24 37 -50 54 -83 12 -26
15 -30 47 -69 11 -13 36 -52 55 -86 19 -35 50 -78 68 -96 18 -19 46 -56 62
-84 30 -52 68 -107 97 -139 9 -10 22 -32 29 -50 7 -17 25 -47 40 -66 14 -19
41 -59 58 -89 18 -29 37 -59 44 -67 38 -43 73 -94 107 -159 17 -31 43 -69 60
-85 16 -15 34 -39 39 -53 9 -24 136 -206 151 -217 4 -3 19 -26 34 -52 15 -26
49 -70 75 -96 27 -27 53 -63 59 -81 6 -17 29 -50 52 -74 85 -89 151 -172 170
-213 10 -24 41 -68 68 -97 27 -28 93 -116 145 -194 90 -135 145 -212 157 -223
4 -3 19 -23 35 -45 17 -22 37 -47 45 -55 32 -31 81 -99 94 -132 8 -18 29 -46
46 -63 18 -16 41 -48 52 -69 11 -22 47 -66 79 -99 33 -32 84 -93 114 -136 137
-188 167 -228 194 -251 15 -14 38 -40 51 -58 12 -18 40 -44 61 -57 21 -14 46
-40 55 -57 9 -18 47 -65 85 -104 38 -40 69 -77 69 -84 0 -7 55 -67 123 -135
136 -136 209 -218 249 -282 15 -23 44 -51 65 -62 21 -10 60 -43 87 -73 138
-153 173 -192 200 -216 16 -15 43 -42 60 -60 17 -18 85 -85 150 -150 66 -64
179 -177 252 -249 73 -73 139 -133 148 -133 19 0 157 -122 311 -275 152 -152
346 -336 511 -485 76 -69 160 -148 188 -176 28 -28 83 -78 122 -110 39 -33
104 -89 145 -126 140 -126 194 -170 230 -188 19 -10 42 -26 50 -36 8 -9 57
-50 109 -89 52 -40 106 -85 120 -100 14 -15 48 -43 75 -63 28 -20 73 -57 101
-83 28 -26 82 -68 120 -93 38 -24 87 -63 109 -86 22 -23 65 -58 95 -77 30 -20
75 -55 100 -78 25 -23 72 -58 105 -78 33 -20 86 -61 118 -92 31 -31 78 -67
104 -81 26 -13 71 -46 101 -72 30 -26 69 -56 86 -67 17 -10 33 -22 36 -26 3
-3 24 -18 48 -33 24 -15 57 -40 74 -57 17 -16 34 -29 39 -29 4 0 14 -6 21 -13
7 -7 32 -23 56 -35 23 -12 58 -37 76 -55 52 -50 69 -62 167 -121 50 -31 99
-64 108 -74 9 -10 34 -31 56 -47 22 -17 42 -33 45 -36 3 -3 41 -24 85 -45 43
-21 96 -55 117 -75 21 -20 53 -42 70 -50 18 -7 40 -21 49 -31 9 -10 21 -18 28
-18 6 0 11 -4 11 -9 0 -5 15 -14 33 -20 18 -6 39 -20 47 -31 8 -11 20 -20 27
-20 7 0 13 -4 13 -8 0 -4 15 -16 33 -27 17 -10 37 -24 43 -29 6 -6 23 -20 38
-31 15 -11 37 -28 48 -38 12 -9 26 -17 32 -17 6 0 25 -11 41 -25 17 -13 35
-28 40 -33 6 -4 30 -18 55 -31 25 -12 77 -46 116 -75 39 -30 96 -66 125 -82
30 -16 56 -31 59 -35 3 -3 23 -18 45 -34 22 -17 42 -33 45 -37 3 -4 21 -14 40
-22 19 -8 49 -26 65 -41 17 -15 44 -33 61 -40 17 -8 45 -27 62 -42 47 -42 75
-63 87 -63 9 0 27 -14 82 -60 7 -5 15 -10 18 -10 3 0 18 -11 32 -25 15 -13 61
-41 103 -62 41 -21 86 -49 100 -63 38 -38 92 -77 131 -93 19 -8 43 -22 53 -32
10 -10 44 -28 75 -39 53 -19 94 -43 125 -72 6 -6 45 -27 86 -48 41 -20 90 -50
109 -66 18 -17 38 -30 44 -30 5 0 35 -15 66 -34 31 -18 85 -44 121 -57 36 -13
82 -35 103 -50 21 -16 62 -35 90 -45 29 -9 56 -20 62 -25 5 -5 15 -9 23 -9 8
0 25 -9 39 -20 14 -11 41 -22 62 -25 20 -4 52 -15 72 -26 20 -10 48 -19 61
-19 13 0 41 -9 63 -20 22 -11 59 -20 84 -20 28 0 51 -6 64 -18 17 -15 46 -17
286 -17 237 0 269 2 291 18 17 12 44 17 92 17 56 0 71 4 85 20 12 14 30 20 58
20 24 0 57 10 84 25 23 14 48 25 55 25 6 0 36 23 66 50 30 28 72 59 92 70 20
11 39 24 43 30 3 5 18 10 33 10 15 0 36 6 47 14 11 7 42 16 69 20 55 7 76 20
76 47 0 26 48 70 112 102 29 15 66 38 82 52 16 14 34 25 41 25 7 0 23 9 36 20
36 29 41 33 73 54 36 23 85 72 109 109 10 15 39 44 66 65 27 20 56 51 66 69
10 18 37 52 60 77 24 24 63 71 87 103 23 32 62 76 84 99 23 23 50 64 60 91 10
26 26 56 35 66 23 26 39 86 39 153 0 46 5 65 27 96 34 50 38 127 28 552 l-7
317 -54 59 c-30 32 -61 77 -69 100 -8 23 -41 70 -72 105 -32 34 -83 97 -113
139 -30 43 -73 99 -94 124 -22 26 -46 63 -55 82 -26 57 -127 187 -228 292 -51
53 -93 102 -93 108 0 11 -259 287 -356 380 -20 19 -93 91 -161 160 -147 149
-116 119 -336 332 -141 137 -185 186 -209 233 -17 33 -59 89 -93 125 -34 36
-90 106 -126 155 -35 50 -98 126 -140 170 -43 44 -94 103 -115 130 -20 28 -70
83 -111 124 -41 41 -83 91 -94 110 -11 20 -40 51 -65 69 -24 18 -51 47 -60 65
-9 17 -35 57 -58 87 -24 30 -55 79 -71 108 -17 31 -78 103 -146 172 -75 77
-129 141 -149 178 -17 32 -42 70 -55 85 -14 14 -42 55 -61 89 -44 76 -82 118
-140 154 -24 16 -44 31 -44 35 0 19 -86 114 -126 139 -25 15 -59 48 -76 71
-17 24 -73 88 -125 142 -51 54 -93 103 -93 109 0 6 -69 82 -153 167 -85 86
-168 176 -186 201 -17 25 -70 81 -118 125 -47 44 -109 112 -138 150 -29 39
-65 81 -80 95 -15 14 -51 57 -81 96 -29 39 -74 88 -100 110 -25 21 -67 68 -92
104 -26 36 -69 88 -95 116 -27 29 -54 62 -61 75 -38 71 -60 107 -82 130 -13
14 -24 33 -24 43 0 22 -18 56 -41 79 -16 15 -19 34 -20 105 0 48 -4 111 -8
139 -6 43 -3 63 16 109 21 53 23 71 23 255 0 195 0 199 27 256 l27 58 6 392 5
391 25 27 25 27 3 1041 c2 573 0 1056 -3 1073 -3 18 -19 51 -35 75 l-30 44 0
435 0 435 -26 55 c-21 44 -27 75 -32 155 -4 77 -10 113 -29 155 -19 41 -27 83
-33 163 -6 71 -14 117 -25 133 -9 14 -25 59 -36 101 -10 42 -25 86 -33 98 -7
11 -19 47 -26 80 -7 33 -22 76 -33 95 -15 26 -22 59 -25 125 -4 86 -25 153
-52 170 -5 3 -10 15 -10 26 0 11 -11 44 -24 72 -13 29 -29 77 -36 107 -7 30
-35 98 -62 150 -40 78 -51 109 -58 173 -7 60 -15 85 -34 107 -13 16 -27 44
-31 62 -4 18 -15 49 -25 68 -10 19 -23 62 -30 95 -7 33 -29 94 -50 135 -20 41
-50 107 -65 145 -15 39 -34 77 -42 86 -7 9 -18 32 -24 52 -5 19 -20 50 -33 70
-13 19 -27 50 -31 68 -11 48 -128 280 -154 303 -11 10 -23 34 -27 53 -4 19
-22 53 -41 75 -19 23 -47 67 -63 97 -15 31 -37 65 -49 75 -12 11 -38 49 -58
85 -59 106 -191 231 -244 231 -7 0 -38 25 -70 55 -32 30 -65 55 -74 55 -9 0
-45 16 -79 35 -35 19 -70 35 -79 35 -8 0 -30 12 -47 26 -23 20 -47 28 -93 33
-39 4 -73 14 -92 28 -16 12 -50 27 -75 33 -25 7 -61 20 -80 30 -19 10 -51 21
-70 25 -19 4 -55 20 -79 36 l-44 29 -263 0 c-267 0 -300 -4 -339 -40 -11 -10
-43 -25 -70 -33 -44 -13 -128 -52 -215 -100 -14 -8 -55 -28 -92 -45 -37 -18
-84 -46 -105 -64 -47 -40 -68 -53 -138 -79 -30 -11 -55 -24 -55 -28 0 -11 -76
-87 -95 -94 -8 -4 -20 -18 -27 -32 -6 -13 -19 -27 -29 -30 -9 -3 -45 -35 -80
-70 -35 -36 -67 -65 -72 -65 -5 0 -25 -14 -44 -30 -18 -17 -56 -42 -84 -56
-28 -14 -76 -50 -107 -81 -31 -30 -75 -61 -97 -69 -22 -8 -49 -23 -60 -33 -11
-10 -38 -24 -60 -31 -22 -7 -53 -23 -68 -36 -16 -13 -37 -24 -46 -24 -10 0
-30 -9 -44 -20 -24 -19 -40 -20 -260 -20 -206 0 -236 2 -248 17 -26 31 -76 43
-179 43 l-101 0 -72 65 c-40 35 -98 88 -131 117 -32 29 -70 73 -84 98 -14 25
-31 50 -37 55 -6 6 -24 28 -40 50 -31 43 -84 95 -97 95 -4 0 -19 18 -32 39
-14 22 -70 87 -126 146 -55 59 -100 111 -100 115 0 4 -15 27 -34 49 -19 23
-49 67 -67 99 -18 31 -40 66 -49 77 -10 11 -23 38 -30 60 -7 22 -22 51 -35 65
-40 45 -75 104 -75 128 0 13 -13 37 -30 54 -22 21 -30 39 -30 63 0 38 -26 100
-52 127 -10 10 -18 28 -18 41 0 12 -11 38 -24 58 -13 19 -30 55 -36 80 -6 24
-18 54 -26 66 -7 12 -18 40 -23 63 -9 38 -7 42 16 53 52 23 53 36 53 445 0
208 3 382 7 386 21 21 33 92 33 205 0 72 6 146 14 180 8 31 17 90 21 131 4 41
10 80 14 85 18 24 31 98 31 171 1 52 7 98 20 134 15 44 19 83 20 193 0 106 4
146 17 175 12 29 18 84 23 242 5 152 11 215 23 245 13 31 16 78 17 213 0 142
3 179 17 205 11 22 18 66 21 142 3 71 10 121 20 140 9 18 18 75 22 145 4 65
14 133 23 155 11 26 16 73 17 136 0 66 5 106 15 125 10 19 15 58 15 117 0 62
6 104 20 144 17 50 20 84 20 253 1 154 4 203 17 235 13 32 17 99 22 330 5 223
10 296 20 315 10 16 17 77 22 175 5 83 15 175 24 205 9 34 15 98 15 166 0 84
5 127 20 174 16 50 20 90 20 199 0 103 5 154 20 211 16 62 20 110 20 275 1
159 4 208 17 240 12 31 17 87 19 240 3 152 8 212 21 250 15 46 16 125 7 980
-5 511 -9 994 -9 1073 0 119 -2 142 -15 142 -39 -1 -41 -8 -50 -316 -5 -164
-11 -640 -15 -1058 -5 -664 -8 -763 -22 -795 -12 -27 -17 -87 -22 -246 -5
-153 -11 -217 -21 -235 -11 -19 -16 -83 -20 -260 -4 -176 -9 -241 -20 -260
-10 -18 -16 -76 -20 -200 -5 -143 -9 -181 -24 -210 -15 -27 -20 -64 -23 -170
-3 -74 -11 -157 -19 -185 -8 -27 -17 -111 -21 -185 -4 -91 -12 -153 -24 -192
-17 -50 -19 -91 -19 -310 -1 -206 -4 -260 -17 -293 -12 -30 -17 -96 -22 -268
-5 -184 -9 -229 -21 -237 -10 -6 -16 -40 -20 -132 -4 -83 -12 -135 -23 -160
-12 -26 -17 -65 -17 -130 0 -71 -5 -103 -20 -137 -15 -33 -20 -65 -20 -136 0
-71 -5 -103 -20 -136 -15 -34 -20 -66 -20 -140 0 -75 -5 -107 -20 -140 -17
-38 -20 -66 -20 -221 0 -154 -3 -182 -20 -223 -17 -41 -20 -69 -20 -223 -1
-136 -5 -186 -16 -217 -11 -27 -18 -95 -23 -210 -4 -93 -12 -182 -18 -196 -7
-15 -14 -75 -18 -135 -4 -60 -13 -128 -21 -152 -8 -23 -14 -73 -14 -110 -1
-51 -7 -79 -25 -117 -22 -45 -25 -62 -25 -176 0 -105 -3 -134 -20 -170 -18
-41 -20 -67 -20 -416 0 -296 -3 -373 -13 -373 -18 0 -103 166 -112 218 -4 23
-17 55 -29 70 -12 15 -28 45 -34 68 -7 22 -21 49 -32 59 -11 10 -23 34 -26 54
-4 20 -15 52 -24 71 -10 19 -25 62 -35 95 -9 33 -25 69 -34 80 -10 11 -23 40
-30 65 -7 25 -19 59 -26 75 -30 71 -35 87 -35 102 0 9 -10 30 -23 47 -13 17
-29 60 -36 95 -7 36 -21 82 -32 103 -11 21 -24 70 -28 109 -6 47 -18 83 -34
107 -13 21 -31 60 -40 87 -42 132 -69 200 -84 217 -9 11 -20 46 -24 80 -4 36
-15 72 -28 89 -23 31 -62 129 -92 228 -10 35 -27 73 -36 83 -17 19 -40 78 -84
218 -12 36 -29 74 -40 85 -10 12 -22 36 -25 55 -4 19 -17 55 -29 80 -12 25
-25 61 -29 81 -4 21 -17 53 -30 72 -13 19 -31 57 -39 83 -38 118 -75 216 -90
232 -8 9 -21 37 -27 62 -7 25 -20 61 -30 80 -10 20 -21 52 -25 72 -4 20 -16
51 -28 69 -20 32 -43 90 -82 204 -16 48 -31 83 -59 135 -13 24 -28 66 -63 170
-8 25 -21 64 -29 88 -8 23 -21 63 -30 90 -8 26 -22 59 -30 75 -7 15 -21 39
-28 55 -8 15 -22 50 -31 77 -43 131 -59 171 -72 186 -15 17 -49 105 -85 219
-12 36 -32 78 -45 93 -12 16 -23 36 -23 46 0 10 -13 37 -29 62 -16 24 -32 60
-36 79 -4 19 -29 78 -56 131 -26 53 -55 124 -64 159 -9 34 -23 72 -30 84 -8
12 -19 46 -26 76 -13 63 -49 139 -90 191 -15 20 -33 56 -38 81 -15 66 -27 95
-71 168 -21 36 -41 85 -45 110 -9 52 -68 227 -96 282 -11 21 -40 93 -64 159
-25 67 -49 127 -54 133 -5 6 -17 40 -26 75 -9 35 -36 104 -61 153 -25 49 -51
115 -59 147 -17 65 -100 258 -140 327 -15 25 -36 78 -46 117 -11 39 -24 76
-29 82 -4 5 -18 46 -29 90 -12 43 -26 84 -31 90 -18 22 -78 201 -89 267 -6 36
-18 86 -27 110 -8 23 -22 73 -29 110 -8 38 -22 85 -31 105 -8 21 -22 78 -30
127 -8 50 -19 95 -25 102 -6 7 -23 55 -39 106 -15 51 -35 111 -44 133 -8 22
-15 61 -16 87 0 26 -10 71 -21 100 -12 29 -28 79 -35 111 -8 32 -23 76 -35 98
-12 24 -23 70 -26 110 -5 55 -11 74 -30 93 -18 19 -26 40 -32 98 -5 42 -18 92
-31 118 -18 34 -25 70 -30 147 -5 88 -10 106 -29 127 -13 14 -25 42 -28 68 -5
40 -26 78 -43 78 -4 0 -16 -12 -25 -27z m3695 -10075 c7 -24 20 -61 29 -83 10
-22 26 -65 35 -96 8 -31 22 -62 30 -68 8 -7 22 -34 31 -61 9 -26 25 -56 35
-65 14 -13 20 -31 20 -60 0 -53 17 -103 40 -115 9 -5 20 -22 23 -37 4 -15 31
-60 61 -99 29 -40 59 -89 66 -110 7 -22 26 -54 41 -72 16 -18 40 -55 54 -82
14 -27 38 -64 53 -82 16 -18 39 -49 52 -68 13 -19 63 -75 110 -125 47 -49 96
-106 109 -125 13 -19 41 -47 62 -62 21 -15 50 -45 63 -67 14 -22 30 -42 35
-45 5 -4 23 -26 39 -50 46 -67 81 -103 155 -158 l68 -51 -28 -17 c-15 -10 -54
-55 -86 -101 -94 -137 -98 -143 -192 -253 -91 -107 -218 -275 -245 -325 -32
-60 -317 -354 -378 -391 -15 -9 -34 -25 -42 -34 -20 -26 -119 -100 -159 -121
-19 -9 -74 -55 -123 -101 -61 -58 -112 -96 -166 -123 -42 -22 -102 -63 -132
-90 -30 -28 -93 -73 -140 -101 -47 -28 -105 -69 -130 -91 -25 -22 -79 -57
-120 -79 -41 -21 -93 -55 -115 -75 -22 -20 -67 -49 -100 -65 -33 -16 -102 -59
-152 -97 -111 -82 -177 -123 -222 -140 -19 -7 -49 -25 -68 -39 -19 -14 -76
-45 -126 -69 -51 -24 -121 -60 -157 -81 -36 -20 -87 -48 -115 -62 -27 -13 -62
-33 -77 -43 -14 -11 -35 -19 -45 -19 -11 0 -89 -35 -175 -77 -168 -84 -239
-117 -278 -128 -14 -4 -65 -28 -114 -52 -86 -43 -489 -183 -527 -183 -11 0
-37 -9 -59 -20 -22 -11 -49 -20 -60 -20 -11 0 -38 -9 -60 -20 -22 -11 -58 -20
-80 -20 -22 0 -58 -9 -80 -20 -29 -15 -59 -20 -115 -20 -42 0 -84 -5 -95 -12
-10 -7 -21 -10 -23 -8 -2 3 -48 73 -102 155 -54 83 -118 175 -141 205 -22 30
-51 73 -62 95 -12 22 -49 72 -82 110 -68 79 -167 222 -191 276 -9 19 -29 51
-45 70 -51 60 -111 143 -129 179 -31 61 -187 293 -232 345 -23 27 -59 80 -78
116 -19 37 -51 87 -71 110 -19 23 -45 61 -56 83 -11 23 -29 53 -39 68 -25 35
-24 40 12 61 21 11 52 17 99 17 42 0 90 7 122 19 114 40 186 61 211 61 14 0
49 9 77 20 28 11 66 20 86 20 19 0 65 14 102 31 37 17 141 55 232 85 91 30
174 59 185 64 11 5 56 21 100 35 44 14 94 30 110 36 17 6 57 19 90 29 33 10
87 30 120 44 33 14 70 26 82 26 21 0 150 38 223 65 19 7 71 22 114 34 44 12
131 47 195 78 64 30 137 62 163 69 52 16 247 112 353 175 39 23 122 69 185
103 133 72 268 152 325 194 22 16 54 36 71 45 17 9 68 50 114 92 45 41 86 75
90 75 5 0 21 21 36 48 33 58 187 217 234 242 19 10 76 57 125 105 50 47 110
103 135 123 25 20 84 72 132 117 48 44 120 109 159 145 38 35 90 94 115 130
24 36 59 84 77 106 17 23 41 56 52 74 41 68 61 99 91 143 18 25 35 60 39 78 4
19 14 42 22 51 8 9 17 36 20 60 3 24 21 75 39 114 19 39 34 76 34 83 0 28 20
7 30 -31z m-6848 -471 c14 -16 33 -43 42 -60 9 -18 38 -57 66 -87 27 -30 50
-60 50 -67 0 -6 24 -40 53 -75 82 -100 184 -251 243 -363 40 -76 127 -194 197
-265 24 -25 75 -92 112 -150 38 -58 72 -107 75 -110 3 -3 19 -27 35 -55 16
-27 35 -56 42 -63 7 -7 13 -17 13 -21 0 -5 25 -36 55 -70 30 -33 60 -71 66
-83 6 -12 16 -27 21 -32 4 -6 20 -24 34 -41 13 -16 38 -52 54 -80 16 -27 45
-68 65 -90 20 -22 48 -58 63 -80 15 -22 29 -42 32 -45 3 -3 26 -36 52 -75 26
-38 66 -90 88 -115 22 -25 48 -58 57 -75 9 -16 19 -32 22 -35 3 -3 25 -33 47
-67 23 -35 62 -86 87 -115 75 -87 146 -201 135 -215 -15 -19 -2 -43 24 -43 13
0 38 -17 63 -44 58 -63 68 -77 88 -122 10 -23 30 -53 43 -68 14 -14 46 -61 71
-104 46 -77 94 -144 124 -172 8 -8 28 -37 44 -65 16 -27 52 -84 81 -126 29
-41 59 -91 67 -110 14 -33 95 -142 136 -184 11 -11 26 -36 32 -55 12 -34 40
-79 67 -108 7 -8 20 -28 29 -45 8 -18 33 -51 53 -73 21 -23 50 -60 65 -83 15
-22 31 -41 35 -41 5 0 18 -21 31 -47 12 -27 30 -55 39 -63 9 -8 41 -53 72
-100 31 -47 65 -96 77 -109 12 -13 21 -30 21 -36 0 -7 13 -28 30 -46 16 -19
40 -54 52 -79 20 -38 120 -185 137 -200 16 -14 49 -69 59 -98 12 -34 104 -179
141 -221 12 -13 21 -30 21 -36 0 -7 13 -28 30 -46 16 -19 35 -50 41 -69 6 -19
27 -59 45 -87 19 -29 51 -79 72 -110 20 -32 40 -59 45 -61 4 -2 7 -9 7 -15 0
-6 11 -22 24 -36 14 -15 41 -53 60 -86 43 -74 80 -129 173 -256 40 -54 87
-126 104 -161 17 -34 57 -97 89 -138 32 -41 71 -102 88 -135 17 -33 50 -86 74
-117 53 -71 98 -141 120 -191 10 -22 40 -65 67 -98 27 -32 63 -87 80 -121 17
-35 50 -86 74 -113 25 -28 61 -83 81 -123 20 -40 59 -97 86 -127 28 -30 50
-59 50 -64 0 -8 28 -53 102 -164 20 -29 16 -45 -23 -96 -15 -19 -19 -41 -19
-113 0 -85 -19 -165 -37 -156 -5 2 -33 15 -63 30 -101 49 -191 78 -244 78 -34
0 -61 7 -81 20 -16 11 -44 20 -60 20 -17 0 -39 6 -50 14 -11 8 -56 26 -100 41
-44 15 -94 36 -111 46 -17 11 -44 19 -60 19 -16 0 -38 6 -49 14 -11 7 -83 35
-160 61 -77 26 -156 56 -175 66 -19 11 -47 19 -62 19 -15 0 -51 10 -80 21 -52
22 -61 22 -840 23 l-786 1 -31 -22 c-29 -22 -38 -23 -234 -23 -177 0 -213 -3
-267 -20 -34 -11 -90 -20 -124 -20 -33 -1 -79 -8 -101 -16 -22 -8 -72 -19
-112 -24 -40 -5 -82 -15 -95 -23 -13 -8 -49 -17 -80 -20 -32 -3 -68 -13 -80
-21 -12 -9 -41 -16 -63 -16 -22 0 -60 -9 -84 -20 -24 -11 -72 -27 -106 -35
-34 -8 -88 -26 -120 -40 -32 -14 -64 -25 -72 -25 -32 0 -148 -47 -309 -125
-94 -46 -218 -100 -275 -120 -57 -20 -132 -54 -165 -76 -34 -22 -98 -55 -143
-74 -81 -34 -81 -34 -81 -12 0 13 9 48 20 80 13 37 20 82 20 131 0 43 6 89 15
109 9 21 15 67 15 107 0 45 7 91 20 127 15 44 20 83 20 165 0 84 4 118 20 158
17 43 20 74 20 200 0 126 3 157 20 200 14 35 20 74 20 126 0 50 5 86 16 107 9
17 19 61 21 97 3 36 13 89 24 118 10 29 19 74 19 100 0 26 9 71 20 100 11 29
20 74 20 100 0 26 9 73 20 105 15 43 20 82 20 167 0 85 4 119 17 143 12 23 19
70 24 167 4 84 13 150 22 175 12 28 16 76 17 165 0 96 5 138 20 180 15 43 19
83 20 180 0 96 5 140 20 188 15 48 20 93 20 180 1 89 5 130 20 172 16 45 19
83 20 205 0 101 5 168 15 205 8 30 19 102 24 160 6 58 15 121 22 140 7 21 15
136 19 280 6 169 13 265 24 310 14 57 15 128 10 605 -6 493 -9 543 -25 580
-15 33 -19 66 -19 185 0 122 -4 152 -20 189 -14 29 -20 65 -20 112 0 45 -7 87
-20 121 -15 39 -20 77 -20 143 0 71 -4 97 -19 122 -17 27 -20 55 -23 235 -2
163 -6 209 -19 233 -12 22 -18 73 -23 200 l-7 169 23 -29 c13 -17 35 -43 50
-58z m11204 -422 c19 -13 49 -27 67 -30 18 -4 55 -17 82 -30 28 -12 66 -25 86
-29 20 -3 44 -15 54 -26 21 -23 74 -40 126 -40 23 0 42 -7 54 -20 9 -10 39
-26 65 -35 27 -9 54 -22 60 -30 6 -8 33 -21 59 -30 29 -9 64 -32 91 -60 27
-28 62 -51 91 -60 57 -19 142 -105 188 -191 17 -33 45 -75 62 -94 16 -19 43
-60 59 -91 16 -31 40 -69 53 -85 13 -16 30 -46 36 -66 7 -20 26 -54 43 -75 39
-50 111 -193 132 -264 8 -31 24 -67 34 -80 11 -13 25 -42 32 -64 7 -22 20 -51
30 -65 9 -14 25 -47 35 -75 10 -27 35 -85 57 -127 21 -43 43 -102 49 -130 6
-29 19 -69 29 -88 9 -19 23 -57 30 -85 7 -27 23 -63 35 -80 15 -20 24 -51 28
-93 4 -48 17 -87 55 -165 28 -56 56 -124 62 -150 6 -27 21 -74 34 -105 13 -32
27 -71 30 -88 4 -17 18 -46 32 -65 20 -28 24 -44 24 -107 0 -55 6 -89 24 -135
14 -34 30 -84 37 -112 7 -27 20 -66 29 -85 10 -19 23 -60 30 -90 7 -30 22 -73
33 -95 14 -28 22 -71 27 -145 5 -80 12 -116 30 -150 19 -36 24 -63 25 -136 2
-75 7 -101 29 -150 l27 -59 -1 -423 c-1 -437 3 -482 41 -530 18 -24 19 -57 19
-1049 l0 -1023 -27 -42 -28 -41 -5 -396 c-5 -395 -5 -396 -30 -446 -23 -47
-25 -63 -30 -270 -6 -201 -8 -224 -29 -268 -16 -35 -25 -78 -31 -150 -5 -73
-14 -116 -31 -152 -20 -44 -24 -71 -29 -220 -5 -119 -12 -182 -23 -210 -27
-69 -37 -142 -37 -276 0 -120 -2 -134 -27 -192 l-28 -62 -3 -385 c-4 -410 5
-559 38 -675 11 -38 25 -108 31 -155 10 -86 44 -215 72 -280 40 -92 59 -131
63 -128 2 2 -5 35 -16 74 -14 49 -23 127 -30 269 -6 110 -17 229 -25 265 -12
52 -15 156 -15 516 l0 451 30 91 c27 84 30 103 30 229 0 119 4 149 26 223 21
69 27 115 33 240 4 111 9 155 18 155 18 0 62 -64 73 -106 6 -20 24 -54 41 -75
17 -22 42 -61 56 -89 14 -27 54 -80 89 -117 35 -36 64 -71 64 -77 0 -7 38 -51
83 -99 46 -48 103 -114 127 -147 24 -33 67 -86 97 -117 29 -31 53 -61 53 -67
0 -6 56 -69 125 -141 69 -72 134 -144 144 -161 11 -17 83 -96 160 -176 78 -79
152 -161 165 -181 13 -20 60 -75 105 -122 45 -47 93 -103 107 -125 15 -22 54
-60 87 -85 34 -25 77 -67 95 -95 19 -27 58 -67 88 -88 37 -26 65 -57 90 -100
20 -34 53 -85 74 -112 20 -28 47 -70 60 -95 12 -24 77 -100 145 -169 67 -69
132 -146 145 -171 13 -25 42 -70 65 -100 23 -30 52 -74 63 -96 20 -39 74 -94
92 -94 5 0 19 -17 31 -37 13 -21 62 -78 109 -128 47 -49 100 -110 117 -135 17
-25 61 -74 98 -110 36 -36 96 -108 133 -160 37 -52 95 -124 128 -160 34 -36
78 -95 98 -132 29 -52 81 -110 249 -276 117 -115 246 -245 288 -288 42 -44
107 -108 145 -144 124 -117 338 -344 389 -410 27 -36 78 -94 112 -129 35 -35
82 -90 103 -122 22 -32 44 -61 50 -64 6 -4 20 -25 31 -48 27 -52 218 -313 280
-381 25 -28 53 -71 62 -96 10 -26 37 -65 62 -90 l45 -44 0 -361 0 -360 -30
-44 c-27 -39 -30 -52 -30 -117 0 -64 -4 -79 -30 -121 -16 -26 -30 -55 -30 -66
0 -10 -24 -44 -53 -75 -30 -31 -61 -68 -70 -82 -28 -41 -147 -178 -217 -249
-36 -36 -81 -84 -100 -106 -37 -42 -101 -90 -160 -120 -19 -10 -48 -29 -64
-42 -16 -13 -50 -35 -75 -48 -25 -13 -68 -44 -96 -69 -27 -25 -56 -46 -65 -46
-9 0 -33 -9 -55 -20 -22 -11 -47 -20 -56 -20 -9 0 -28 -9 -42 -20 -14 -11 -35
-20 -47 -20 -14 0 -45 -24 -83 -62 -74 -75 -116 -98 -177 -98 -27 0 -58 -8
-78 -20 -19 -12 -50 -20 -75 -20 -24 0 -60 -9 -82 -20 -35 -18 -59 -20 -243
-20 -189 0 -206 1 -229 20 -19 15 -41 20 -82 20 -37 0 -70 7 -96 20 -22 11
-50 20 -62 20 -13 0 -40 9 -60 20 -21 11 -48 20 -61 20 -12 0 -58 18 -102 40
-44 22 -86 40 -94 40 -7 0 -36 16 -64 35 -28 19 -63 37 -79 41 -41 9 -222 102
-257 131 -16 13 -60 40 -98 59 -38 19 -88 49 -111 67 -24 18 -59 39 -78 46
-76 28 -198 99 -254 149 -27 24 -83 61 -125 82 -41 22 -97 57 -125 79 -27 22
-70 53 -95 68 -25 15 -67 46 -94 70 -26 24 -54 43 -61 43 -7 0 -32 16 -56 36
-23 19 -56 41 -74 48 -17 8 -61 35 -96 61 -35 26 -82 56 -103 67 -22 11 -73
46 -114 77 -41 31 -98 70 -127 86 -88 51 -141 86 -269 182 -68 50 -137 99
-152 107 -38 22 -117 76 -179 124 -27 21 -66 47 -85 57 -19 10 -53 27 -75 38
-41 20 -100 63 -145 105 -14 13 -56 42 -95 64 -68 40 -112 72 -185 136 -19 17
-57 44 -85 58 -27 15 -72 46 -100 69 -27 23 -81 62 -120 87 -38 25 -90 64
-115 87 -25 23 -75 59 -111 81 -36 21 -87 59 -115 85 -27 25 -79 64 -116 86
-37 23 -87 58 -110 78 -24 21 -58 46 -76 55 -18 9 -63 45 -100 79 -37 35 -87
75 -112 89 -25 15 -78 56 -118 92 -40 36 -77 66 -82 66 -5 0 -45 33 -88 73
-83 76 -206 175 -302 242 -66 46 -127 96 -221 180 -37 33 -97 85 -134 115 -37
30 -76 66 -88 80 -12 14 -39 41 -61 60 -21 19 -88 83 -150 141 -61 58 -122
113 -136 122 -14 10 -132 122 -262 249 -312 306 -433 418 -454 418 -9 0 -69
53 -133 118 -104 104 -301 300 -408 405 -85 83 -156 159 -236 250 -32 37 -78
78 -102 92 -24 15 -53 42 -65 62 -29 50 -106 137 -242 274 -65 65 -118 123
-118 128 0 6 -28 40 -62 77 -35 37 -76 87 -93 113 -16 25 -47 57 -68 71 -20
14 -46 39 -56 56 -10 17 -31 40 -46 52 -15 12 -48 51 -74 86 -116 160 -198
265 -247 318 -30 31 -54 61 -54 67 0 6 -20 33 -45 61 -25 28 -45 56 -45 64 0
13 -40 68 -149 202 -61 75 -144 193 -203 290 -37 60 -98 142 -136 183 -18 18
-45 58 -62 90 -17 31 -52 81 -78 112 -88 104 -117 142 -129 171 -7 16 -39 57
-71 91 -32 34 -63 73 -69 87 -6 14 -27 45 -47 70 -20 25 -40 50 -44 55 -5 6
-17 24 -28 40 -10 17 -22 32 -26 35 -4 3 -16 26 -26 50 -11 25 -34 58 -51 75
-18 16 -46 57 -63 90 -25 50 -68 113 -118 172 -6 7 -20 30 -32 50 -12 21 -29
47 -38 58 -10 11 -37 54 -60 95 -24 41 -52 84 -63 95 -10 11 -36 49 -57 85
-21 36 -52 80 -70 98 -17 18 -47 61 -67 95 -20 34 -46 73 -58 87 -12 14 -38
50 -57 80 -19 31 -41 62 -49 70 -8 8 -22 33 -32 55 -20 42 -111 184 -160 248
-16 21 -27 41 -24 44 4 3 29 -4 56 -16 43 -18 69 -21 198 -21 123 0 159 -3
206 -20 46 -16 82 -20 196 -20 117 0 149 3 191 20 35 14 74 20 126 20 44 0 86
6 102 14 15 7 54 17 86 21 33 4 71 11 85 17 14 5 62 15 106 22 83 13 307 82
383 117 23 10 68 26 100 34 31 8 89 24 127 35 99 28 170 46 244 59 35 7 71 16
80 21 26 14 100 46 196 84 50 20 117 51 150 68 33 18 80 42 105 54 25 12 101
49 170 83 69 33 147 68 173 77 26 10 66 34 89 55 23 21 69 48 102 60 34 13 86
41 116 64 30 23 88 59 128 79 41 20 92 54 115 75 23 21 66 51 96 66 29 14 75
47 102 72 27 25 66 57 87 72 22 14 65 43 97 65 32 21 85 60 117 86 32 26 81
60 110 75 73 40 231 161 308 237 36 35 90 81 120 103 30 22 99 82 154 134 73
69 101 90 106 80 4 -8 25 -66 45 -129 20 -63 43 -131 50 -150 17 -46 43 -123
59 -182 8 -25 17 -52 21 -58 4 -6 13 -33 21 -58 22 -80 54 -166 64 -176 6 -6
10 -31 10 -56 0 -26 9 -63 20 -85 11 -22 20 -58 20 -82 0 -23 9 -65 20 -93 11
-28 20 -73 20 -100 0 -27 9 -72 20 -100 11 -28 20 -64 20 -80 0 -17 9 -53 20
-82 11 -29 20 -66 20 -83 0 -16 9 -45 20 -63 11 -18 20 -44 20 -57 0 -14 9
-48 20 -77 11 -29 20 -66 20 -83 0 -16 9 -45 20 -63 12 -20 20 -50 20 -78 0
-25 9 -62 20 -84 11 -22 20 -48 20 -60 0 -11 9 -46 20 -77 11 -32 20 -70 20
-85 0 -15 9 -50 20 -78 11 -28 20 -72 20 -98 1 -26 9 -65 20 -87 11 -22 19
-50 20 -62 0 -12 9 -45 20 -73 15 -37 20 -74 20 -138 0 -62 6 -104 20 -145 14
-40 20 -82 20 -144 0 -64 6 -103 20 -141 14 -38 20 -77 20 -140 0 -70 4 -93
20 -117 17 -26 20 -47 20 -162 0 -109 4 -141 20 -183 16 -39 20 -74 20 -156 0
-85 4 -112 20 -144 18 -34 20 -59 20 -202 0 -138 3 -173 20 -221 15 -42 20
-82 20 -160 0 -77 5 -117 20 -160 16 -45 20 -82 20 -180 0 -97 4 -135 20 -180
16 -46 20 -82 20 -200 0 -117 4 -153 20 -200 16 -45 20 -82 20 -182 0 -89 4
-136 15 -161 9 -23 16 -81 19 -157 2 -82 9 -135 20 -161 9 -21 16 -60 16 -85
0 -26 9 -81 20 -122 11 -44 20 -107 20 -155 0 -48 7 -102 17 -135 16 -47 18
-99 18 -404 0 -307 2 -353 16 -375 14 -21 18 -76 23 -390 6 -353 6 -367 -14
-405 -15 -29 -20 -59 -20 -116 0 -56 -4 -80 -15 -89 -8 -7 -15 -23 -15 -37 0
-55 -88 -187 -137 -203 -31 -11 -43 -27 -43 -56 0 -19 59 -44 105 -44 31 0 39
6 71 50 20 28 40 50 45 50 5 0 14 12 21 28 6 15 28 62 49 104 36 71 39 85 39
160 0 65 4 90 20 116 19 31 20 50 20 428 0 357 -2 398 -17 427 -16 28 -19 74
-23 392 -4 282 -8 365 -19 384 -8 15 -17 74 -21 145 -5 67 -15 143 -24 170 -9
27 -16 71 -16 97 0 27 -9 71 -20 99 -16 40 -20 74 -20 160 0 86 -4 120 -20
160 -16 41 -20 74 -20 180 0 106 -4 139 -20 180 -17 43 -20 74 -20 200 0 126
-3 157 -20 200 -16 41 -20 74 -20 180 0 106 -4 139 -20 180 -16 40 -20 74 -20
160 0 86 -4 120 -20 160 -17 43 -20 74 -20 216 0 145 -2 169 -20 204 -16 31
-20 60 -20 142 -1 70 -6 116 -17 143 -11 27 -18 89 -22 191 -5 125 -9 155 -23
171 -14 16 -18 38 -18 106 0 63 -6 101 -20 139 -15 39 -20 77 -20 145 0 69 -5
103 -20 138 -15 35 -20 69 -20 136 0 65 -5 103 -20 141 -11 29 -20 63 -20 76
0 12 -9 40 -20 62 -11 22 -20 59 -20 84 0 25 -9 68 -20 96 -11 28 -20 64 -20
80 0 16 -9 52 -20 80 -11 28 -20 63 -20 78 0 15 -9 45 -20 67 -11 22 -20 57
-20 80 0 22 -9 57 -20 78 -11 20 -20 46 -20 57 0 11 -9 46 -20 77 -11 32 -20
69 -20 83 0 14 -8 41 -18 60 -11 19 -22 55 -26 79 -4 24 -13 56 -21 72 -8 15
-15 43 -15 61 -1 18 -8 51 -16 73 -8 22 -19 74 -24 116 -5 43 -16 91 -24 107
-9 17 -16 55 -16 84 0 34 -7 67 -20 91 -11 20 -20 56 -20 78 0 24 -11 65 -24
93 -28 58 -48 111 -68 176 -8 25 -57 170 -108 323 -78 230 -92 282 -82 297 16
26 -12 112 -34 103 -19 -7 -43 25 -44 57 0 14 -9 43 -20 65 -11 22 -20 49 -20
60 0 11 -9 39 -21 60 -23 45 -44 98 -64 165 -26 85 -55 163 -64 174 -5 6 -17
34 -26 61 -20 61 -128 291 -281 601 -63 127 -114 238 -114 245 0 8 -8 28 -19
45 -23 38 -97 255 -105 308 -3 21 -12 46 -21 56 -8 9 -15 29 -15 44 0 14 -7
43 -16 64 -9 20 -20 80 -24 132 -4 53 -14 109 -23 126 -10 20 -18 73 -23 155
-4 83 -13 140 -25 172 -17 43 -19 79 -19 346 0 292 0 299 -25 369 -14 39 -25
91 -25 115 0 29 -7 53 -20 70 -11 14 -20 37 -20 52 0 14 -7 39 -15 56 -15 28
-15 30 10 39 15 6 30 10 34 10 4 0 22 11 41 25 19 14 41 25 51 25 9 0 32 11
51 24 20 13 53 29 74 36 21 7 61 34 89 60 27 27 79 65 115 86 36 20 78 48 93
61 16 12 33 23 39 23 6 0 42 29 79 65 37 36 73 65 80 65 7 0 52 40 100 89 47
49 97 92 110 96 33 10 83 41 157 97 34 26 81 52 105 58 23 6 60 24 82 39 55
37 141 77 197 91 26 7 62 23 80 37 l33 25 243 -7 c233 -6 245 -8 278 -30z
m-3024 -989 c13 -3 70 -7 128 -8 93 -3 108 -6 130 -25 13 -13 37 -25 54 -28
17 -4 145 -5 284 -3 l252 3 0 -38 c0 -21 7 -49 17 -63 10 -15 17 -50 18 -88 2
-34 10 -76 19 -94 14 -27 16 -76 16 -351 0 -302 1 -323 21 -373 18 -45 20 -66
15 -138 -5 -64 -2 -99 10 -140 9 -30 19 -98 23 -150 5 -56 15 -108 24 -127 10
-18 17 -49 17 -70 0 -21 8 -51 18 -68 10 -16 21 -51 25 -76 3 -26 13 -62 20
-80 8 -19 22 -59 32 -89 l17 -55 -57 -58 c-31 -31 -69 -64 -85 -72 -16 -8 -46
-31 -67 -50 -21 -20 -64 -52 -96 -73 -31 -20 -92 -61 -135 -91 -42 -30 -103
-70 -134 -88 -32 -19 -58 -38 -58 -42 0 -4 -19 -17 -42 -27 -23 -10 -62 -36
-86 -56 -24 -21 -51 -38 -60 -38 -10 0 -51 -34 -92 -76 -41 -41 -95 -87 -120
-101 -25 -15 -56 -36 -70 -48 -14 -13 -41 -31 -60 -40 -19 -10 -48 -29 -64
-42 -35 -29 -425 -226 -494 -249 -25 -9 -60 -26 -77 -39 -40 -30 -150 -85
-171 -85 -9 0 -28 -8 -42 -19 -15 -10 -43 -23 -63 -29 -19 -5 -55 -22 -80 -38
-60 -38 -142 -78 -214 -104 -33 -12 -73 -28 -88 -36 -16 -8 -38 -14 -50 -14
-12 0 -35 -8 -52 -18 -16 -10 -50 -24 -75 -31 -25 -7 -63 -21 -85 -31 -22 -10
-58 -26 -80 -35 -22 -9 -53 -22 -70 -30 -16 -7 -97 -34 -180 -60 -82 -26 -158
-51 -169 -57 -78 -41 -276 -81 -276 -55 0 4 4 7 8 7 12 0 32 47 32 75 0 13 4
25 9 27 10 3 71 131 71 148 0 5 4 10 9 10 5 0 15 17 22 38 7 20 18 46 25 57 7
11 24 58 39 105 15 47 33 99 40 115 8 17 26 75 41 130 14 55 34 118 42 139 9
22 17 58 17 80 0 23 8 55 16 71 9 17 19 52 23 79 3 27 11 55 17 63 7 7 14 46
17 86 2 39 10 79 17 87 7 8 19 35 26 60 7 25 16 50 20 55 4 6 11 28 15 50 4
22 13 49 20 61 8 11 18 47 23 80 10 61 32 137 56 189 8 17 17 46 20 65 4 19
13 45 21 57 8 12 14 29 14 38 0 8 9 41 20 72 11 32 20 71 20 88 0 17 7 40 15
52 8 11 26 56 40 98 14 43 30 84 36 91 6 7 50 34 97 60 61 33 112 71 170 128
45 44 95 87 111 96 82 44 397 339 476 445 24 34 56 72 71 85 14 14 35 43 46
65 12 22 40 65 64 96 23 30 57 80 74 109 30 51 64 94 156 198 23 26 51 66 63
89 11 23 25 45 31 48 6 4 24 33 40 65 16 32 34 61 40 65 5 3 10 18 10 32 0 25
1 25 44 -15 25 -23 55 -44 68 -46z m-1707 -1658 c-4 -13 -11 -43 -16 -68 -5
-25 -22 -83 -39 -130 -17 -47 -37 -105 -45 -130 -25 -82 -46 -145 -61 -178 -8
-18 -14 -45 -14 -60 0 -32 -83 -274 -106 -309 -9 -14 -19 -57 -24 -97 -4 -39
-15 -89 -24 -111 -8 -22 -15 -50 -16 -62 0 -13 -9 -37 -20 -55 -13 -21 -20
-51 -20 -82 0 -30 -6 -56 -15 -66 -9 -10 -18 -35 -22 -56 -5 -34 -56 -197
-111 -349 -10 -27 -53 -119 -95 -203 -42 -85 -77 -161 -77 -169 0 -8 -9 -26
-20 -40 -11 -14 -20 -36 -20 -49 0 -13 -5 -24 -10 -24 -6 0 -15 -11 -20 -24
-8 -22 -15 -24 -104 -28 -76 -3 -99 -8 -116 -23 -21 -19 -41 -20 -422 -23
-388 -3 -400 -2 -425 18 -14 11 -40 20 -58 20 -37 0 -165 42 -197 64 -12 9
-38 16 -56 16 -19 0 -45 9 -59 20 -15 11 -41 20 -61 20 -20 0 -43 7 -53 16 -9
8 -41 19 -71 24 -29 4 -71 15 -93 24 -22 8 -53 15 -70 16 -16 0 -38 7 -48 14
-10 8 -50 24 -88 37 -67 22 -89 39 -50 39 32 0 51 28 51 74 0 28 11 63 35 109
19 37 35 79 35 95 0 15 18 79 40 142 22 63 40 121 40 128 0 7 11 38 25 68 14
30 25 68 25 84 0 26 5 30 43 40 23 6 58 17 77 25 42 16 118 41 180 59 25 7 91
36 147 65 57 28 108 51 114 51 15 0 79 29 274 125 83 41 164 77 180 80 17 4
37 12 45 19 23 19 285 159 363 195 38 17 90 46 115 65 26 18 61 37 79 40 17 4
37 14 44 22 7 8 33 27 58 42 25 14 81 52 124 85 43 32 102 70 132 83 31 14 79
46 108 71 28 24 83 60 120 79 38 19 87 52 110 73 47 43 154 111 176 111 9 0
11 -7 6 -22z m3122 -993 c14 -33 45 -98 68 -145 23 -47 55 -116 69 -155 15
-38 36 -92 47 -120 12 -27 43 -113 70 -189 27 -77 53 -144 59 -150 5 -5 10
-21 10 -34 0 -13 8 -44 18 -70 10 -26 26 -67 34 -92 9 -25 22 -60 29 -78 13
-31 12 -34 -6 -44 -11 -6 -58 -48 -105 -93 -47 -45 -119 -107 -160 -138 -41
-30 -97 -78 -125 -107 -60 -62 -224 -189 -285 -220 -24 -12 -80 -49 -124 -81
-82 -60 -141 -100 -225 -152 -25 -16 -64 -46 -86 -67 -22 -21 -67 -52 -100
-70 -33 -18 -81 -52 -106 -76 -26 -23 -75 -57 -110 -74 -35 -18 -83 -48 -107
-67 -24 -19 -80 -50 -125 -69 -45 -19 -97 -49 -117 -68 -20 -20 -64 -45 -104
-60 -38 -15 -83 -35 -100 -45 -64 -40 -377 -194 -531 -262 -109 -49 -185 -76
-238 -85 -42 -7 -90 -20 -105 -28 -15 -7 -47 -17 -72 -21 -25 -4 -56 -13 -70
-20 -14 -7 -45 -16 -70 -20 -25 -4 -57 -14 -72 -21 -52 -27 -367 -133 -415
-140 -26 -4 -72 -15 -102 -25 -30 -11 -67 -19 -83 -19 -16 0 -45 -7 -66 -16
-20 -9 -80 -20 -132 -24 -54 -5 -109 -15 -127 -25 -44 -22 -288 -17 -348 8
-31 12 -75 16 -193 17 -116 0 -160 4 -182 15 -16 8 -56 18 -88 21 -56 6 -59 8
-87 53 -16 25 -48 67 -71 92 -23 26 -59 79 -79 120 -20 40 -56 94 -80 120 -24
25 -60 80 -81 120 -20 41 -59 98 -85 127 -27 30 -49 59 -49 66 0 14 -96 168
-146 233 -20 26 -47 69 -61 97 -14 28 -54 89 -88 136 -34 47 -75 110 -90 140
-15 30 -54 91 -86 135 -85 116 -144 205 -184 282 -35 67 -74 127 -135 209 -16
23 -30 46 -30 53 0 16 48 3 79 -21 13 -10 39 -18 57 -18 18 0 56 -9 84 -20 28
-11 63 -20 78 -20 15 0 41 -9 57 -20 17 -11 44 -20 60 -20 17 0 44 -9 60 -20
17 -11 44 -20 60 -20 17 0 42 -8 55 -17 31 -22 148 -63 179 -63 13 0 39 -9 58
-21 32 -20 50 -21 452 -26 416 -6 419 -6 454 15 29 19 50 22 143 22 75 1 121
6 149 17 22 8 72 19 110 22 61 6 174 39 350 102 28 10 87 29 131 43 45 14 135
48 200 76 66 27 126 50 134 50 8 0 38 11 65 25 28 13 58 25 68 25 10 0 28 5
39 11 11 6 59 24 107 40 90 31 195 81 222 105 8 7 42 23 74 34 32 11 63 24 69
29 6 4 29 14 51 21 53 17 132 57 171 86 17 12 44 26 60 30 43 10 484 232 519
261 33 27 103 73 171 113 24 14 78 60 121 102 43 41 89 79 103 83 14 4 42 23
62 43 21 19 57 47 81 61 65 38 154 98 222 151 33 25 80 58 105 72 25 15 72 49
105 77 33 28 77 60 97 71 21 11 59 40 84 64 l47 43 104 -211 c58 -116 116
-238 130 -271z m-5707 -333 c0 -4 -7 -17 -14 -28 -8 -12 -20 -43 -27 -70 -6
-27 -18 -59 -25 -71 -8 -12 -14 -29 -14 -38 0 -8 -9 -41 -20 -72 -11 -32 -20
-71 -20 -88 0 -17 -4 -35 -9 -40 -19 -19 -81 -147 -81 -167 0 -27 -20 -18 -39
18 -23 40 -53 86 -68 102 -7 7 -13 17 -13 22 0 5 -15 28 -33 52 -18 24 -38 61
-45 83 -6 22 -28 58 -47 80 -19 22 -35 43 -35 46 0 3 -9 17 -21 30 l-21 24 96
6 c68 5 100 11 111 23 11 10 33 16 64 16 27 0 63 8 86 20 22 11 48 20 60 20
11 0 36 8 55 19 38 20 60 25 60 13z m-273 -2952 c32 -11 69 -20 83 -20 14 0
35 -6 46 -14 20 -14 97 -44 184 -70 74 -23 132 -46 154 -61 11 -8 34 -15 51
-15 17 0 39 -6 50 -14 11 -8 56 -26 100 -41 44 -15 94 -36 111 -46 17 -11 43
-19 57 -19 15 0 41 -9 59 -20 20 -12 51 -20 78 -20 40 0 154 -33 188 -53 22
-15 12 -26 -25 -29 -33 -3 -38 -6 -38 -28 0 -27 15 -31 158 -46 31 -4 60 -10
63 -15 3 -5 -3 -24 -14 -42 -16 -25 -22 -59 -27 -151 -5 -69 -14 -135 -23
-155 -8 -20 -18 -67 -22 -106 -4 -38 -15 -88 -23 -110 -9 -22 -16 -71 -17
-111 0 -49 -6 -85 -20 -115 -18 -41 -20 -67 -20 -353 0 -280 -2 -311 -17 -329
-16 -16 -19 -48 -23 -231 -5 -169 -9 -218 -23 -248 -12 -26 -17 -63 -17 -123
0 -104 -7 -106 -86 -32 -31 28 -68 56 -82 61 -15 5 -40 21 -57 36 -30 28 -55
43 -175 101 -119 58 -146 69 -166 69 -11 0 -37 9 -59 20 -22 11 -49 20 -61 20
-12 0 -35 7 -51 15 -54 27 -118 54 -148 61 -16 4 -35 11 -41 15 -6 5 -46 20
-90 35 -43 14 -93 35 -109 45 -17 10 -51 21 -75 25 -25 3 -69 15 -98 25 -41
15 -80 19 -172 19 -102 0 -126 3 -158 20 -36 20 -48 20 -482 14 -358 -6 -453
-10 -485 -22 -26 -10 -100 -17 -215 -22 -159 -7 -186 -11 -295 -42 -80 -24
-150 -37 -211 -41 -49 -3 -117 -12 -150 -20 -32 -8 -99 -18 -149 -22 -49 -3
-119 -12 -155 -20 -36 -7 -114 -16 -175 -19 -60 -3 -132 -12 -160 -20 -27 -8
-98 -17 -156 -21 -59 -3 -131 -13 -160 -21 -30 -7 -99 -17 -154 -20 -55 -3
-120 -12 -145 -20 -25 -7 -121 -34 -215 -58 -155 -41 -187 -53 -360 -142 -175
-89 -297 -136 -313 -120 -3 4 1 44 10 89 9 45 20 107 23 137 4 30 13 77 21
104 8 27 14 64 14 82 0 18 9 56 20 84 12 29 20 75 20 108 0 31 7 89 16 127 9
39 19 106 24 150 8 78 19 125 60 250 11 33 20 79 20 101 0 23 9 61 20 85 11
24 20 62 20 85 0 22 9 67 20 99 11 32 20 77 20 100 0 23 9 68 20 100 11 32 20
77 20 100 0 41 15 102 30 118 4 5 24 4 44 -1 42 -12 47 0 11 24 -14 9 -25 20
-25 24 0 5 25 18 55 29 69 26 137 61 195 101 25 17 99 48 165 69 66 21 152 53
190 71 141 65 281 121 350 139 38 11 113 33 165 51 187 62 215 70 242 70 15 0
50 9 78 20 28 11 63 20 78 20 15 0 53 9 85 20 31 11 76 20 100 20 25 0 64 7
88 16 24 8 78 18 120 20 42 2 96 11 119 19 33 12 93 15 259 15 196 0 219 2
246 19 29 19 58 20 783 20 728 1 754 0 809 -19z m-587 -2162 c30 -19 55 -23
185 -29 105 -5 171 -13 220 -27 90 -26 252 -89 279 -108 11 -8 29 -14 39 -14
18 0 37 -7 142 -55 28 -13 66 -26 85 -30 19 -4 44 -13 55 -19 11 -7 38 -16 60
-20 22 -4 49 -13 60 -20 11 -7 38 -17 61 -24 23 -7 58 -25 79 -42 21 -16 44
-30 51 -30 7 0 34 -18 59 -40 25 -22 52 -40 59 -40 19 0 54 -42 58 -69 2 -19
12 -27 37 -34 19 -4 48 -19 65 -31 17 -13 40 -26 50 -30 17 -6 18 -14 13 -84
-3 -42 -12 -94 -21 -114 -9 -21 -16 -53 -16 -72 0 -61 -5 -66 -79 -66 -49 0
-74 -5 -96 -20 -16 -11 -43 -20 -60 -20 -16 0 -43 -9 -60 -20 -16 -11 -41 -20
-55 -20 -14 0 -42 -9 -63 -20 -24 -13 -53 -19 -84 -18 l-48 2 49 3 c27 2 59
11 73 20 13 9 37 18 54 22 16 3 29 10 29 15 -1 5 4 13 12 18 10 7 10 11 1 15
-10 3 -9 11 2 32 11 22 11 31 2 41 -9 10 -9 11 1 6 9 -6 11 0 7 24 -3 18 -2
29 4 26 5 -3 8 14 7 40 -1 42 -3 45 -26 42 -14 -1 -32 2 -40 7 -24 15 -42 15
-36 -1 4 -11 -5 -14 -39 -14 -25 0 -45 -4 -45 -10 0 -5 8 -7 18 -3 9 3 14 3
10 -1 -3 -4 -14 -9 -25 -11 -10 -2 -20 -4 -22 -4 -2 -1 2 -7 8 -15 9 -11 9
-16 0 -22 -8 -5 -9 -3 -4 6 6 9 4 11 -4 6 -7 -5 -10 -14 -7 -22 3 -8 0 -14 -7
-14 -8 0 -6 -4 3 -10 13 -9 7 -14 -12 -11 -4 0 -12 -9 -19 -20 -9 -17 -8 -20
3 -14 8 4 8 2 -2 -7 -19 -17 -19 -46 0 -58 13 -9 13 -10 0 -10 -9 0 -16 -8
-17 -17 -1 -10 -4 -28 -8 -40 -6 -18 -3 -23 11 -23 15 0 12 -5 -11 -20 -16
-11 -40 -20 -53 -20 -38 0 -416 -130 -436 -150 -5 -5 -26 -10 -45 -10 -20 0
-56 -9 -80 -20 -24 -11 -51 -20 -60 -20 -9 0 -49 -15 -88 -34 -39 -19 -105
-44 -148 -55 -42 -12 -93 -30 -113 -40 -20 -10 -69 -28 -108 -40 l-72 -23 -53
37 c-30 21 -61 43 -69 51 -8 7 -46 29 -85 49 -38 21 -101 54 -140 75 -38 21
-88 47 -110 58 -81 43 -179 83 -239 98 -33 8 -88 24 -121 34 -33 10 -127 39
-210 63 -289 86 -614 195 -705 236 -107 48 -221 89 -285 101 -33 6 -89 18
-125 27 -36 8 -87 19 -115 24 -27 5 -81 18 -120 29 -127 37 -379 99 -469 115
-49 9 -101 21 -115 27 -14 5 -44 13 -66 18 -22 4 -76 15 -120 24 -44 9 -102
20 -130 26 -27 6 -66 11 -85 13 l-35 2 65 37 c46 26 111 48 225 77 88 23 193
50 234 61 42 11 106 20 146 20 39 0 98 7 130 16 33 8 116 19 185 24 69 4 139
13 155 20 17 6 93 16 170 20 77 5 158 14 180 19 21 5 80 13 130 16 49 4 121
13 158 21 38 8 96 14 130 14 71 1 98 6 257 49 103 28 130 31 260 32 113 0 157
4 200 19 50 16 96 18 475 19 417 1 420 1 455 -21z m-3520 -508 c30 -5 69 -12
85 -16 67 -15 252 -64 285 -74 19 -6 78 -19 130 -30 52 -11 113 -25 135 -31
22 -5 56 -14 75 -19 35 -9 83 -22 285 -78 61 -17 151 -39 200 -50 50 -11 115
-26 145 -32 61 -14 168 -56 245 -97 60 -31 184 -78 278 -103 37 -10 73 -23 80
-28 15 -13 86 -39 152 -57 93 -25 150 -43 225 -70 41 -15 108 -36 148 -46 39
-11 105 -27 145 -38 84 -22 198 -71 322 -140 28 -15 99 -53 158 -85 59 -31
117 -65 129 -76 l21 -19 -29 -7 c-16 -4 -57 -22 -92 -41 -35 -18 -72 -33 -83
-33 -10 0 -74 -27 -141 -59 -209 -101 -307 -141 -342 -141 -7 0 -67 -27 -133
-60 -65 -32 -153 -71 -194 -85 -41 -15 -94 -37 -119 -49 -25 -13 -99 -45 -165
-71 -165 -64 -174 -68 -285 -118 -30 -14 -89 -32 -130 -41 -145 -33 -205 -49
-245 -67 -22 -10 -82 -30 -134 -45 -90 -25 -309 -111 -441 -172 -36 -17 -93
-40 -126 -51 -34 -11 -106 -43 -160 -70 -118 -59 -300 -141 -313 -141 -5 0
-36 -13 -68 -29 -160 -80 -303 -145 -348 -158 -27 -8 -71 -30 -98 -49 -26 -19
-52 -34 -58 -34 -26 0 -110 -44 -124 -66 -18 -27 -71 -58 -85 -49 -6 3 -10 13
-10 21 0 8 -9 32 -20 54 -11 22 -20 59 -20 84 0 25 -8 67 -19 93 -10 26 -21
68 -25 92 -4 24 -16 56 -26 71 -11 16 -20 33 -20 39 0 18 -69 152 -99 191 -63
83 -133 208 -163 290 -7 19 -34 58 -60 87 -26 29 -48 60 -48 68 0 14 -52 79
-126 156 -18 21 -34 40 -34 44 0 4 -9 18 -20 32 -11 14 -20 32 -20 39 0 7 25
25 57 40 31 15 71 42 88 60 18 18 47 40 64 49 48 24 110 84 131 126 22 43 24
45 121 124 147 120 192 172 253 294 14 26 31 53 40 60 8 7 18 26 21 43 4 17
23 63 41 103 19 39 37 89 41 111 3 21 13 53 23 69 10 17 20 50 23 75 3 25 13
61 21 80 13 32 22 38 88 59 40 12 109 39 152 60 71 34 84 37 120 29 23 -5 66
-13 96 -18z m5132 -640 c-2 -24 -11 -57 -19 -73 -8 -16 -17 -70 -20 -120 -3
-52 -12 -105 -21 -122 -10 -20 -18 -77 -22 -175 -4 -80 -13 -158 -20 -175 -8
-18 -14 -94 -17 -195 -3 -120 -9 -176 -21 -205 -10 -27 -18 -89 -22 -190 -5
-101 -12 -163 -23 -190 -13 -31 -16 -78 -17 -213 l0 -173 -22 15 c-25 18 -75
21 -110 7 -13 -5 -59 -19 -103 -31 -44 -12 -105 -30 -135 -40 -30 -10 -82 -23
-115 -30 -161 -32 -280 -65 -380 -104 -108 -43 -213 -78 -267 -90 -15 -3 -73
-28 -130 -55 -57 -27 -130 -57 -163 -66 -135 -39 -222 -69 -259 -87 -21 -11
-64 -28 -96 -38 -32 -10 -76 -28 -98 -39 -22 -11 -57 -27 -79 -35 -21 -8 -83
-32 -138 -54 -55 -22 -190 -71 -300 -110 -219 -77 -294 -106 -460 -177 -60
-26 -166 -67 -234 -91 -69 -24 -161 -61 -205 -83 -45 -22 -119 -56 -166 -76
-47 -20 -105 -46 -130 -60 -48 -25 -74 -35 -245 -94 -60 -21 -150 -58 -200
-81 -49 -24 -115 -51 -145 -61 -30 -10 -120 -43 -200 -74 -140 -55 -232 -85
-445 -144 -142 -40 -277 -86 -334 -116 l-50 -25 -21 46 c-11 26 -20 59 -20 75
0 16 -9 55 -19 86 -11 32 -22 78 -25 102 -4 24 -13 56 -21 72 -8 15 -15 43
-15 61 -1 18 -8 51 -17 73 -8 22 -19 73 -22 112 -5 42 -14 80 -23 90 -8 10
-18 39 -21 66 -4 26 -13 61 -22 77 -8 16 -15 52 -15 79 0 28 -9 74 -20 103
-11 29 -20 67 -20 83 0 17 -9 45 -20 63 -11 18 -20 41 -20 52 0 11 -9 46 -20
77 -11 32 -20 83 -20 115 0 54 2 58 38 85 20 15 52 40 69 55 18 15 55 34 83
42 28 8 69 29 93 45 23 16 56 33 72 37 17 3 66 24 110 44 252 120 318 149 352
160 21 7 112 48 203 92 91 44 194 90 230 103 36 12 108 42 160 65 178 80 335
141 415 161 43 11 106 32 139 46 33 13 114 36 180 50 86 17 156 40 241 78 66
29 171 71 234 94 62 23 139 55 170 70 31 16 88 39 126 51 39 13 123 49 189 82
65 32 129 58 142 58 28 0 222 80 368 151 54 27 106 49 114 49 9 0 45 15 81 34
36 18 87 38 112 44 26 7 80 28 120 47 40 19 79 35 85 35 7 0 46 13 86 29 41
17 96 35 123 40 28 6 84 26 125 45 93 43 160 65 226 76 28 4 69 17 90 28 71
37 355 132 395 132 14 0 42 9 64 20 22 11 59 20 85 20 27 0 58 8 78 20 18 11
45 20 60 20 15 0 42 9 60 20 18 11 45 20 60 20 15 1 45 9 67 20 25 13 56 19
85 17 l45 -2 -3 -45z m-6576 -777 c9 -10 23 -33 31 -53 8 -19 29 -49 47 -66
48 -48 116 -135 116 -149 0 -8 22 -39 49 -70 28 -31 53 -71 57 -88 6 -29 40
-107 65 -147 47 -79 68 -111 95 -146 33 -45 108 -225 119 -289 4 -21 13 -52
21 -67 8 -15 14 -50 14 -78 0 -33 14 -94 40 -171 23 -69 40 -140 40 -167 1
-26 8 -65 16 -87 9 -22 19 -60 23 -85 4 -25 14 -58 23 -75 8 -16 18 -50 22
-74 4 -24 13 -56 21 -72 8 -15 15 -52 15 -81 1 -29 8 -71 16 -93 9 -22 19 -63
24 -92 4 -29 15 -62 24 -75 9 -13 16 -43 16 -73 0 -28 9 -69 20 -94 11 -24 20
-60 20 -80 0 -20 9 -56 20 -80 11 -24 20 -58 20 -77 0 -18 9 -56 20 -84 11
-28 20 -64 20 -80 0 -16 9 -52 20 -80 11 -28 20 -64 20 -80 0 -17 9 -53 20
-82 11 -29 20 -66 20 -82 0 -15 9 -45 19 -65 36 -68 61 -140 61 -173 0 -18 9
-48 20 -66 11 -18 20 -45 20 -60 0 -15 9 -42 20 -60 11 -18 20 -45 20 -60 0
-15 8 -41 18 -57 11 -17 29 -62 42 -100 13 -39 40 -104 61 -145 20 -41 49
-106 64 -145 38 -99 63 -151 107 -219 20 -32 47 -83 58 -115 25 -66 178 -379
197 -402 8 -9 35 -56 62 -105 26 -49 60 -111 76 -139 15 -27 44 -69 65 -91 44
-48 170 -236 170 -255 0 -6 26 -53 58 -103 32 -50 61 -98 64 -107 12 -32 97
-155 127 -183 17 -17 31 -37 31 -46 0 -9 46 -85 103 -169 56 -84 122 -191 148
-239 43 -83 85 -149 188 -291 25 -36 60 -86 76 -111 80 -125 110 -168 140
-200 17 -19 42 -53 55 -75 13 -22 33 -51 45 -65 33 -37 165 -232 201 -296 17
-30 53 -78 81 -107 28 -29 75 -86 106 -127 30 -41 85 -106 122 -145 37 -38 74
-83 82 -99 8 -16 45 -62 82 -102 36 -40 100 -112 141 -160 69 -80 150 -164
292 -300 81 -78 148 -152 148 -163 0 -6 32 -37 71 -69 38 -33 83 -81 99 -106
18 -27 51 -60 84 -81 30 -19 58 -45 61 -57 4 -13 71 -88 149 -166 110 -113
166 -160 256 -220 63 -42 177 -122 253 -179 76 -57 153 -109 170 -117 18 -7
73 -55 122 -106 141 -146 154 -159 267 -265 131 -122 211 -185 237 -185 11 0
41 -11 67 -25 49 -26 47 -31 -19 -44 -41 -9 -57 -35 -35 -58 16 -15 25 -15 95
-5 100 15 183 15 233 0 l40 -13 0 -172 0 -172 -32 6 c-18 4 -46 15 -63 25 -16
10 -41 18 -53 18 -13 0 -41 15 -62 32 -21 18 -58 43 -82 54 -154 76 -237 114
-247 114 -20 0 -414 201 -451 230 -19 15 -64 42 -100 60 -60 30 -145 90 -195
137 -11 10 -54 44 -95 75 -41 31 -86 67 -100 80 -14 13 -61 51 -105 85 -44 34
-117 96 -161 140 -45 43 -97 92 -115 109 -19 17 -81 79 -138 138 -58 58 -108
106 -111 106 -3 0 -28 29 -54 65 -26 36 -51 65 -55 65 -8 0 -47 40 -150 155
-147 163 -190 211 -243 270 -31 33 -60 69 -66 81 -6 12 -43 63 -82 115 -39 52
-102 135 -139 184 -38 50 -87 108 -111 130 -23 22 -51 58 -62 80 -12 22 -49
69 -83 105 -34 36 -74 85 -88 110 -54 90 -105 162 -237 337 -75 98 -155 214
-178 257 -24 44 -53 91 -65 106 -25 31 -66 99 -109 180 -16 30 -40 66 -53 80
-29 31 -91 115 -127 172 -16 24 -46 70 -68 103 -21 33 -48 78 -60 100 -35 70
-84 141 -120 176 -20 19 -53 62 -75 97 -22 34 -68 101 -103 148 -34 47 -77
109 -96 137 -18 29 -63 90 -100 137 -38 47 -81 110 -97 140 -30 57 -67 112
-143 215 -66 88 -113 171 -132 229 -9 28 -27 65 -39 81 -32 44 -85 151 -85
174 0 11 -4 22 -9 25 -5 4 -21 37 -36 76 -14 38 -40 86 -57 107 -33 41 -251
471 -262 516 -4 15 -20 46 -36 69 -17 22 -34 55 -39 72 -5 17 -25 68 -44 114
-20 46 -39 96 -42 112 -4 17 -10 32 -15 35 -18 11 -118 232 -142 315 -5 19
-16 42 -23 50 -7 8 -16 26 -19 40 -4 14 -22 59 -40 100 -32 73 -53 128 -81
220 -38 125 -56 171 -140 355 -13 28 -36 85 -51 128 -15 43 -31 80 -35 83 -5
3 -9 16 -9 29 0 14 -26 105 -59 202 -32 98 -62 198 -65 222 -4 24 -13 56 -21
72 -10 19 -15 59 -15 121 0 72 -4 101 -19 128 -13 25 -20 64 -23 135 -3 61
-11 112 -20 130 -8 17 -18 54 -22 84 -4 30 -12 63 -18 74 -5 11 -14 51 -19 88
-5 38 -18 87 -29 108 -11 22 -20 50 -20 61 0 12 -9 38 -19 58 -11 20 -38 78
-61 127 -23 50 -50 99 -60 110 -10 11 -21 31 -25 45 -4 14 -15 34 -25 45 -24
28 -75 123 -89 167 -16 48 -91 161 -143 214 -31 33 -36 43 -24 47 23 9 20 37
-3 37 -11 0 -23 -4 -26 -10 -10 -17 -35 -11 -35 9 0 21 125 81 169 81 15 0 44
9 66 20 22 11 46 20 55 20 8 0 31 9 50 19 44 25 74 26 96 4z m-509 -199 c71
-44 136 -113 169 -176 13 -26 28 -49 33 -52 5 -4 13 -21 16 -39 7 -30 54 -125
120 -242 90 -159 136 -263 150 -335 4 -19 13 -44 19 -55 7 -11 16 -46 20 -78
3 -32 13 -74 21 -94 8 -19 15 -49 15 -64 0 -16 9 -55 20 -86 14 -41 20 -83 20
-148 0 -72 4 -96 20 -123 16 -25 20 -51 20 -115 1 -55 7 -100 20 -137 11 -30
19 -65 20 -78 0 -13 27 -105 60 -204 33 -99 60 -192 60 -206 0 -15 8 -41 18
-57 11 -17 32 -68 47 -115 16 -47 34 -92 41 -100 7 -8 16 -28 20 -45 4 -16 22
-60 40 -97 19 -37 34 -75 34 -83 0 -9 8 -37 19 -63 10 -26 31 -87 46 -137 16
-49 41 -115 55 -145 15 -30 33 -73 40 -95 7 -22 17 -45 22 -51 5 -7 21 -48 37
-92 15 -44 53 -129 83 -189 31 -59 67 -143 82 -185 14 -42 33 -89 41 -105 8
-15 26 -53 40 -83 15 -30 34 -70 43 -89 9 -19 70 -141 134 -272 64 -130 133
-258 152 -284 20 -26 38 -59 42 -73 3 -15 13 -45 24 -67 37 -80 111 -231 125
-255 7 -14 27 -54 43 -90 30 -67 76 -141 182 -290 34 -47 72 -106 85 -132 14
-25 66 -103 117 -172 51 -70 107 -148 125 -174 18 -26 75 -111 128 -188 52
-78 106 -149 119 -157 21 -14 78 -101 98 -150 5 -10 21 -37 36 -60 16 -23 55
-82 87 -131 32 -49 82 -120 112 -157 29 -38 66 -93 81 -122 35 -64 67 -114
109 -172 18 -25 47 -73 64 -107 17 -34 104 -160 193 -279 88 -120 181 -250
206 -290 25 -40 73 -103 107 -140 34 -37 70 -83 79 -101 9 -18 43 -60 74 -93
60 -64 287 -361 313 -411 8 -16 39 -54 69 -85 57 -61 135 -148 242 -269 204
-232 681 -709 786 -787 41 -31 93 -72 115 -93 22 -20 72 -60 111 -88 40 -29
78 -60 85 -68 25 -30 157 -123 221 -155 34 -17 76 -43 92 -56 30 -25 421 -225
466 -238 14 -3 59 -24 100 -45 41 -21 86 -41 100 -45 27 -9 71 -37 112 -74 28
-25 57 -43 97 -61 13 -6 34 -19 47 -29 14 -11 56 -25 94 -32 l70 -12 0 -287
c0 -248 -2 -293 -17 -331 -14 -36 -18 -92 -23 -304 -5 -209 -9 -268 -23 -300
-14 -34 -16 -85 -17 -340 0 -232 -4 -312 -15 -355 -8 -30 -18 -100 -21 -155
-4 -55 -15 -126 -25 -157 -14 -42 -19 -87 -19 -163 0 -75 -5 -117 -16 -143 -9
-20 -20 -73 -24 -117 -4 -44 -15 -98 -23 -120 -9 -22 -16 -71 -17 -111 0 -49
-6 -85 -20 -115 -11 -24 -20 -65 -20 -90 0 -26 -7 -64 -16 -85 -9 -21 -18 -72
-21 -113 -3 -44 -14 -92 -24 -113 -14 -27 -19 -59 -19 -118 0 -61 -5 -90 -20
-120 -14 -28 -20 -59 -20 -107 0 -44 -7 -87 -20 -121 -12 -31 -20 -76 -20
-112 0 -41 -6 -72 -20 -97 -14 -27 -20 -57 -20 -108 -1 -43 -8 -91 -20 -125
-11 -30 -19 -80 -20 -111 0 -35 -8 -74 -20 -100 -12 -27 -20 -66 -20 -102 0
-38 -7 -70 -20 -94 -14 -27 -20 -57 -20 -103 0 -40 -5 -73 -14 -86 -8 -11 -17
-37 -21 -57 -4 -21 -11 -40 -16 -43 -5 -2 -13 -24 -20 -47 -15 -60 -52 -136
-65 -137 -15 0 -24 -24 -24 -65 0 -30 -3 -33 -38 -39 -21 -3 -99 -36 -173 -73
l-134 -68 -166 -5 c-127 -4 -170 -9 -184 -20 -39 -32 -161 -54 -390 -70 -77
-5 -165 -14 -195 -20 -30 -6 -134 -15 -230 -21 -290 -15 -453 -28 -500 -38
-25 -5 -94 -13 -155 -18 -223 -16 -687 9 -845 46 -25 5 -91 10 -147 11 l-102
0 -10 37 c-6 21 -12 49 -13 62 -5 43 -28 37 -28 -6 0 -22 -3 -42 -6 -45 -8 -8
-129 123 -149 161 -9 18 -32 53 -50 77 -47 61 -115 209 -122 264 -3 25 -13 56
-21 70 -9 14 -19 45 -23 70 -4 25 -32 117 -63 205 -36 105 -56 176 -56 207 0
26 -9 70 -20 98 -15 38 -20 74 -20 143 0 75 -4 98 -20 122 -18 27 -20 47 -20
217 0 164 -3 194 -20 238 -17 44 -20 74 -20 223 0 155 -2 175 -20 202 -17 26
-20 47 -20 153 0 103 -3 129 -20 162 -18 34 -20 59 -20 202 0 145 -2 167 -20
196 -19 31 -20 50 -20 355 0 292 -2 329 -20 395 -18 66 -20 103 -20 459 -1
337 -3 393 -17 428 -14 34 -18 101 -22 445 -5 363 -8 409 -24 445 -17 37 -19
85 -24 575 -5 443 -8 542 -21 575 -8 23 -18 95 -22 170 -5 100 -11 138 -26
165 -17 31 -19 63 -24 265 -4 194 -8 235 -22 262 -13 22 -18 54 -18 103 0 47
-6 87 -19 118 -11 26 -22 74 -25 106 -3 38 -13 70 -25 87 -23 31 -27 49 -10
49 5 0 42 -31 82 -68 40 -37 95 -83 122 -102 28 -19 73 -53 100 -75 28 -23 96
-64 152 -93 55 -28 135 -81 178 -116 48 -40 107 -78 154 -98 41 -18 118 -55
171 -82 52 -27 129 -66 170 -87 146 -75 356 -167 436 -192 45 -14 132 -36 193
-47 62 -12 157 -37 212 -55 105 -36 132 -36 127 -2 -2 17 -26 28 -128 62 -69
22 -161 55 -205 72 -44 17 -114 44 -155 59 -92 34 -450 207 -505 244 -50 34
-137 78 -238 120 -55 23 -103 53 -159 101 -46 38 -125 91 -182 121 -56 29
-123 71 -151 93 -27 23 -72 56 -99 74 -26 19 -78 62 -115 96 -36 34 -91 78
-121 97 -30 20 -84 64 -120 98 -36 34 -78 71 -95 83 -16 11 -45 39 -64 60 -19
22 -53 53 -75 69 -71 51 -395 378 -423 426 -15 26 -43 65 -63 88 -21 22 -53
65 -73 96 -19 31 -41 59 -47 63 -6 4 -52 62 -102 128 -88 119 -115 151 -330
385 -154 167 -186 203 -215 240 -14 18 -38 39 -53 47 -15 8 -39 34 -53 57 -22
37 -199 216 -432 437 -33 32 -99 83 -147 115 -48 31 -90 65 -93 75 -3 10 -22
34 -43 54 -20 20 -73 77 -117 128 -44 51 -93 104 -109 118 -16 14 -43 41 -60
60 -17 18 -86 90 -152 160 -67 69 -129 141 -138 159 -9 18 -38 57 -64 86 -48
55 -78 100 -142 210 -20 34 -59 91 -87 127 -28 37 -67 98 -87 136 -19 39 -46
83 -59 99 -27 32 -267 506 -298 588 -11 30 -28 61 -39 71 -11 10 -27 41 -35
68 -8 28 -21 60 -28 71 -8 12 -26 56 -41 100 -15 43 -40 98 -56 121 -16 23
-32 54 -36 70 -4 15 -42 97 -85 183 -62 122 -79 164 -79 198 0 24 -9 66 -20
94 -19 48 -20 74 -20 484 0 411 1 436 20 477 15 34 20 66 20 143 0 92 2 104
40 191 21 51 44 113 51 139 20 78 213 358 325 470 101 102 222 206 239 206 7
0 35 18 60 40 25 22 52 40 59 40 7 0 26 10 42 23 55 43 132 84 171 91 21 4 47
13 58 20 11 7 52 16 92 19 39 3 85 13 102 21 22 12 59 16 134 16 74 0 124 6
168 19 35 10 87 22 116 25 28 4 68 13 87 21 19 8 46 15 59 15 14 0 64 13 113
30 49 16 95 29 101 30 7 0 39 -16 70 -36z m6846 -1021 c-3 -60 -5 -111 -6
-115 -1 -4 -36 16 -77 43 -41 28 -102 65 -135 82 l-60 31 30 7 c81 20 228 54
246 58 3 0 4 -47 2 -106z m-297 -19 c76 -40 113 -64 187 -118 l67 -50 0 -256
c0 -230 -2 -261 -20 -313 -17 -48 -20 -82 -20 -219 0 -139 -3 -171 -20 -216
-17 -45 -20 -76 -20 -237 0 -160 -2 -189 -17 -212 -16 -23 -19 -62 -24 -273
-4 -195 -9 -253 -22 -285 -14 -36 -16 -107 -17 -645 0 -581 1 -608 20 -663 18
-52 20 -82 20 -382 0 -307 1 -326 20 -357 19 -32 20 -51 20 -753 0 -702 1
-721 20 -753 19 -30 20 -51 20 -320 1 -239 4 -294 17 -327 10 -25 19 -89 23
-175 5 -91 12 -147 23 -172 12 -25 17 -65 17 -123 0 -60 6 -103 20 -142 12
-34 20 -83 20 -120 0 -38 8 -87 20 -120 15 -42 20 -83 20 -154 0 -69 6 -116
20 -161 11 -36 20 -91 20 -130 0 -43 7 -85 20 -118 11 -28 20 -72 20 -98 0
-29 8 -59 19 -78 15 -24 20 -55 23 -132 2 -78 7 -104 21 -119 15 -17 17 -41
17 -169 0 -130 3 -154 20 -187 16 -29 20 -56 20 -132 0 -105 -5 -110 -61 -58
-16 15 -44 27 -70 30 -24 3 -51 11 -59 18 -8 7 -42 24 -75 39 -33 15 -67 31
-75 36 -8 5 -28 17 -45 26 -66 37 -285 243 -380 359 -32 39 -65 74 -74 79 -9
5 -32 23 -51 41 -19 18 -51 40 -71 49 -20 9 -45 25 -55 34 -11 10 -66 54 -124
97 -58 44 -111 85 -118 92 -6 6 -22 15 -35 19 -12 4 -24 10 -27 13 -11 14 -95
71 -105 71 -17 0 -262 251 -298 305 -17 27 -48 60 -67 73 -63 42 -80 57 -80
68 0 12 -59 75 -135 146 -22 21 -62 63 -90 95 -27 31 -75 81 -105 110 -197
191 -304 302 -362 378 -13 17 -47 54 -75 83 -29 28 -62 69 -72 90 -11 20 -50
66 -87 102 -37 36 -92 99 -122 140 -31 41 -82 103 -114 137 -32 34 -58 68 -58
75 0 8 -8 23 -18 34 -21 23 -39 49 -99 139 -25 39 -63 91 -84 116 -21 26 -49
65 -62 87 -12 22 -42 62 -66 89 -24 26 -74 95 -112 153 -38 58 -103 152 -144
210 -41 58 -96 148 -124 200 -27 52 -63 112 -80 134 -17 21 -31 42 -31 46 0 3
-17 29 -37 57 -52 71 -95 142 -110 183 -7 19 -27 48 -45 64 -33 30 -85 105
-111 161 -8 17 -37 65 -66 107 -28 43 -51 84 -51 92 0 17 -122 200 -190 284
-27 34 -50 66 -50 71 0 4 -12 26 -27 47 -57 82 -159 279 -337 644 -25 52 -61
124 -80 160 -18 36 -44 92 -56 125 -12 33 -39 96 -59 140 -21 44 -50 114 -64
156 -15 41 -33 89 -42 105 -8 16 -15 40 -15 54 0 14 -6 34 -14 45 -7 11 -16
38 -20 60 -4 22 -13 49 -20 60 -7 11 -15 39 -19 63 -5 41 -36 132 -63 184 -8
14 -14 38 -14 52 0 14 -7 44 -16 66 -15 38 -15 42 0 59 30 33 187 96 352 140
61 17 122 35 135 40 13 5 59 17 102 26 43 9 94 23 113 31 19 8 58 21 86 29 90
24 320 105 383 135 116 54 151 68 210 85 60 18 195 69 224 86 21 12 152 65
220 90 30 10 82 33 115 50 34 17 121 51 195 75 73 24 138 47 145 53 6 5 44 21
85 35 41 14 85 33 97 41 12 8 44 20 71 26 26 7 57 18 69 26 11 7 80 33 153 58
210 72 478 176 611 238 80 37 282 112 375 139 55 16 145 51 200 77 55 27 115
52 134 56 48 10 214 68 301 105 41 18 138 45 215 61 76 16 141 32 144 34 12
13 63 2 107 -21z"/>
<path d="M16177 26874 c-14 -15 -6 -53 17 -81 40 -47 93 -172 130 -302 17 -62
40 -68 33 -10 -9 79 -65 221 -122 308 -16 25 -34 56 -40 69 -5 13 -13 20 -18
16z"/>
<path d="M17174 26708 c-5 -7 -12 -128 -15 -268 -4 -185 -10 -271 -21 -315 -9
-33 -19 -103 -23 -155 -18 -262 -137 -827 -245 -1163 -58 -180 -69 -241 -36
-206 8 8 52 129 99 269 126 376 213 767 237 1065 6 66 17 156 26 200 13 63 15
130 12 322 -2 163 -7 246 -14 253 -9 9 -14 8 -20 -2z"/>
<path d="M16144 26029 c-6 -8 -14 -45 -17 -83 -4 -45 -13 -76 -24 -88 -16 -18
-18 -49 -21 -323 -3 -284 -2 -305 18 -354 13 -35 20 -75 20 -122 0 -41 6 -85
16 -107 9 -20 22 -57 29 -82 25 -84 45 -131 80 -181 19 -28 35 -59 35 -68 0
-9 11 -37 25 -63 14 -26 25 -54 25 -62 0 -7 16 -37 35 -66 19 -29 35 -54 35
-57 0 -3 18 -42 39 -87 22 -44 60 -142 85 -216 24 -75 52 -149 60 -165 9 -17
16 -44 16 -61 0 -17 7 -37 16 -45 9 -7 43 -67 76 -133 33 -67 69 -132 79 -145
11 -13 19 -36 19 -50 0 -26 26 -80 133 -281 31 -58 62 -123 68 -145 6 -22 16
-46 22 -53 17 -21 48 -113 57 -170 5 -30 16 -62 24 -71 9 -10 16 -23 16 -30 0
-7 8 -33 19 -59 10 -26 31 -85 46 -132 15 -47 32 -91 38 -98 22 -27 97 -268
97 -314 0 -26 9 -70 20 -98 11 -28 20 -65 20 -83 0 -18 9 -45 20 -62 15 -23
20 -47 20 -100 0 -53 5 -77 20 -100 16 -24 20 -47 20 -120 0 -72 4 -96 20
-123 15 -24 20 -51 20 -105 1 -50 7 -84 20 -112 11 -22 20 -56 20 -75 0 -19 9
-48 20 -65 14 -21 20 -47 20 -85 0 -39 6 -62 20 -80 13 -17 20 -41 20 -75 0
-33 7 -60 20 -80 11 -16 20 -43 20 -60 0 -16 9 -43 20 -60 11 -16 20 -44 20
-62 0 -18 9 -55 20 -83 11 -28 20 -65 20 -83 0 -18 9 -43 20 -57 14 -18 20
-41 20 -80 0 -39 6 -62 20 -80 14 -18 20 -41 20 -83 0 -32 7 -71 15 -87 8 -16
19 -55 24 -87 5 -32 16 -76 25 -98 8 -22 15 -72 16 -113 0 -45 6 -84 15 -102
9 -17 18 -62 20 -100 3 -39 11 -83 19 -99 8 -15 17 -60 20 -100 4 -40 13 -86
22 -103 9 -18 17 -63 19 -117 2 -52 9 -100 18 -117 9 -18 16 -70 19 -139 3
-76 10 -120 21 -142 9 -18 17 -46 17 -63 0 -17 9 -56 20 -87 11 -32 20 -78 20
-103 1 -25 9 -70 20 -100 15 -43 19 -83 20 -182 0 -103 4 -138 20 -180 15 -41
20 -78 20 -163 1 -77 6 -122 17 -150 10 -26 18 -86 22 -171 5 -106 9 -136 24
-151 13 -16 17 -38 17 -109 1 -57 7 -103 17 -129 9 -23 18 -87 22 -151 4 -84
10 -117 23 -130 13 -16 17 -47 20 -184 3 -133 7 -171 21 -197 15 -29 17 -69
17 -407 0 -354 1 -378 20 -427 20 -50 21 -69 18 -433 -3 -337 -5 -385 -20
-412 -9 -17 -20 -62 -23 -100 -7 -80 -16 -103 -101 -279 -52 -106 -75 -141
-123 -189 -32 -32 -68 -63 -79 -69 -11 -7 -40 -26 -64 -42 -38 -27 -68 -37
-171 -60 -36 -7 -33 -39 3 -43 14 -2 47 -10 73 -19 63 -20 100 -12 165 37 29
22 56 40 60 40 17 0 161 148 177 181 64 136 82 155 113 122 9 -10 13 -13 8 -6
-5 8 -4 13 2 13 22 0 42 -13 42 -28 0 -12 4 -11 18 5 9 11 23 18 30 16 6 -3
12 0 12 6 0 5 12 8 28 6 15 -2 21 -2 15 1 -16 7 -17 34 -2 34 15 0 59 51 59
68 0 7 -6 10 -12 7 -7 -4 -5 0 4 8 13 10 14 17 6 25 -8 8 -4 17 15 34 23 20
24 23 8 35 -15 12 -15 13 2 7 13 -5 16 -2 11 10 -4 11 1 23 12 32 11 9 14 13
9 10 -6 -2 -17 -1 -25 5 -8 5 -10 9 -4 9 7 0 14 9 17 20 6 22 -8 28 -16 8 -2
-7 -4 -1 -4 15 0 15 4 27 9 27 7 0 7 4 0 13 -5 6 -8 23 -5 37 3 24 3 24 -11 5
-16 -21 -18 -2 -2 23 11 18 -11 41 -34 35 -14 -4 -20 0 -20 10 0 9 -4 18 -9
21 -4 3 -8 -5 -7 -17 2 -21 -10 -37 -27 -37 -5 0 -6 4 -3 9 4 5 -2 7 -12 4
-17 -4 -20 5 -25 88 -4 51 -7 226 -7 390 0 275 -1 301 -20 344 -18 42 -20 69
-20 256 0 133 4 209 10 209 6 0 10 -20 10 -44 0 -25 4 -47 9 -50 8 -5 11 14
31 214 5 58 24 161 42 230 27 111 136 406 233 635 19 44 39 105 46 135 12 58
79 236 123 330 15 32 26 73 26 98 0 23 7 54 16 68 23 34 10 43 -21 14 -16 -15
-26 -39 -31 -69 -3 -25 -22 -75 -41 -110 -45 -84 -117 -255 -131 -311 -6 -25
-30 -86 -53 -135 -22 -50 -77 -178 -120 -286 -67 -167 -91 -242 -124 -396 -8
-37 -19 -27 -43 40 -19 54 -22 82 -22 212 0 133 -2 153 -20 180 -16 24 -20 47
-20 118 0 60 -5 99 -17 125 -10 23 -18 79 -22 149 -5 85 -10 116 -24 130 -14
16 -17 40 -17 129 -1 76 -6 121 -17 149 -10 26 -18 88 -22 175 -5 98 -12 144
-24 167 -14 25 -17 59 -17 162 0 107 -4 141 -20 183 -11 29 -20 72 -20 96 0
23 -9 68 -20 99 -11 32 -20 69 -20 83 -1 14 -8 43 -16 65 -9 22 -19 92 -24
155 -4 69 -14 128 -22 145 -9 17 -18 70 -20 120 -3 51 -12 104 -20 120 -8 17
-18 63 -22 103 -3 41 -12 86 -20 100 -7 15 -16 59 -19 99 -3 39 -13 86 -23
104 -10 21 -19 67 -22 124 -2 49 -11 102 -18 117 -8 15 -18 53 -23 85 -5 32
-16 76 -25 98 -8 22 -15 63 -16 90 0 34 -7 58 -20 75 -14 18 -20 41 -20 80 0
39 -6 62 -20 80 -11 14 -20 39 -20 57 0 18 -9 55 -20 83 -11 28 -20 65 -20 83
0 18 -9 43 -20 57 -11 14 -20 39 -20 55 0 17 -9 44 -20 60 -13 20 -20 47 -20
80 0 33 -7 60 -20 80 -13 20 -20 47 -20 80 0 33 -7 60 -20 80 -11 17 -20 42
-20 57 0 15 -9 50 -20 78 -13 34 -20 74 -20 123 0 55 -5 79 -20 102 -16 24
-20 47 -20 121 0 76 -3 96 -20 117 -16 20 -20 40 -20 99 0 56 -5 80 -20 103
-11 17 -20 42 -20 57 0 15 -9 50 -20 78 -11 28 -20 71 -20 96 0 50 -69 268
-106 334 -14 26 -38 90 -55 150 -6 19 -17 49 -25 67 -8 17 -14 37 -14 45 0 7
-9 28 -20 46 -11 18 -20 43 -20 55 0 22 -44 153 -71 211 -39 84 -122 245 -139
271 -22 33 -40 72 -40 84 0 5 -6 14 -14 20 -7 6 -16 32 -20 58 -3 26 -15 56
-25 67 -11 12 -47 75 -82 141 -34 66 -68 127 -75 136 -8 8 -18 37 -23 62 -4
26 -14 54 -21 63 -13 15 -41 86 -60 149 -12 43 -53 147 -64 164 -5 7 -25 45
-46 85 -20 39 -48 88 -62 108 -14 21 -29 54 -33 75 -4 21 -12 45 -20 53 -7 8
-18 33 -25 55 -7 22 -25 58 -39 80 -26 40 -54 110 -71 175 -5 19 -16 52 -25
72 -8 22 -15 67 -15 107 0 47 -7 87 -20 121 -18 47 -20 74 -20 338 0 243 2
291 15 310 20 27 18 215 -1 191z"/>
<path d="M18051 25793 c-19 -71 -49 -238 -75 -408 -15 -93 -31 -192 -36 -220
-5 -27 -21 -151 -36 -275 -14 -124 -32 -254 -39 -290 -8 -39 -10 -69 -5 -74
14 -14 27 30 45 155 9 63 34 224 55 359 88 543 102 638 107 713 6 83 0 99 -16
40z"/>
<path d="M19102 16582 c-17 -32 -41 -94 -52 -137 -12 -44 -46 -129 -76 -190
-29 -60 -57 -126 -60 -145 l-7 -35 22 20 c13 11 40 54 61 95 21 41 48 94 59
117 12 22 33 84 47 137 13 53 31 113 39 133 34 81 10 85 -33 5z"/>
<path d="M2957 15303 c26 -20 90 -60 143 -88 289 -158 581 -349 647 -424 17
-20 34 -33 38 -29 12 12 -103 136 -187 203 -43 34 -113 81 -155 105 -43 23
-119 67 -170 97 -51 29 -127 68 -170 87 -43 19 -98 45 -123 60 -66 38 -79 32
-23 -11z"/>
<path d="M4300 12683 c0 -40 347 -191 619 -269 63 -18 124 -42 136 -54 36 -34
41 -22 6 14 -36 37 -62 48 -386 161 -121 43 -255 94 -297 115 -43 20 -78 35
-78 33z"/>
<path d="M5030 11372 c0 -16 93 -88 165 -128 127 -72 219 -112 298 -129 43
-10 80 -22 83 -27 3 -4 12 -8 21 -8 13 0 13 3 2 16 -16 19 -62 43 -154 79 -84
33 -244 112 -337 166 -70 41 -78 44 -78 31z"/>
<path d="M6663 7843 c-7 -3 3 -18 25 -39 64 -60 203 -164 219 -164 8 0 110
-93 226 -208 191 -187 223 -213 321 -271 60 -35 146 -92 192 -127 132 -100
364 -199 575 -244 53 -11 150 -38 214 -60 96 -32 141 -41 249 -50 72 -7 177
-20 234 -31 124 -23 242 -26 242 -5 0 9 -24 15 -91 19 -49 4 -125 16 -167 26
-42 11 -133 27 -202 35 -89 11 -159 27 -245 56 -66 23 -167 52 -225 66 -214
51 -419 137 -530 222 -36 28 -108 76 -160 108 -182 110 -204 127 -372 292 -98
97 -191 180 -222 197 -29 17 -94 59 -145 95 -51 36 -101 70 -110 76 -9 7 -21
10 -28 7z"/>
</g>
</svg>
