<?xml version="1.0" standalone="no"?>
<!DOCTYPE svg PUBLIC "-//W3C//DTD SVG 20010904//EN"
 "http://www.w3.org/TR/2001/REC-SVG-20010904/DTD/svg10.dtd">
<svg version="1.0" xmlns="http://www.w3.org/2000/svg"
 width="1774.000000pt" height="1364.000000pt" viewBox="0 0 1774.000000 1364.000000"
 preserveAspectRatio="xMidYMid meet">
<metadata>
Created by potrace 1.16, written by Peter Selinger 2001-2019
</metadata>
<g transform="translate(0.000000,1364.000000) scale(0.100000,-0.100000)"
fill="#ffffff" stroke="none">
<path d="M17058 13626 c-53 -14 -175 -91 -291 -183 -43 -35 -82 -63 -86 -63
-4 0 -13 11 -20 24 -12 22 -10 28 15 61 16 20 44 45 62 57 43 27 38 48 -18 75
-89 42 -191 38 -293 -14 -108 -54 -162 -137 -162 -253 l0 -75 44 -6 c49 -6 71
-28 71 -69 0 -22 -16 -39 -86 -93 l-86 -67 -28 20 -28 20 44 44 c38 38 44 49
44 86 0 24 -11 67 -26 101 -31 70 -35 70 -149 33 -175 -57 -314 -153 -360
-249 -10 -22 -21 -64 -23 -93 -4 -49 -7 -53 -26 -48 -67 16 -107 17 -167 2
-128 -33 -216 -119 -315 -309 -52 -101 -57 -107 -73 -93 -23 21 -56 20 -132
-4 -124 -39 -262 -171 -353 -341 -50 -93 -45 -99 85 -102 85 -2 98 0 141 25
54 30 65 25 75 -39 3 -21 11 -44 17 -52 8 -10 3 -19 -19 -38 -98 -83 -288
-256 -338 -306 -120 -123 -144 -182 -109 -266 30 -67 52 -216 52 -342 l0 -107
-80 -103 c-44 -57 -158 -205 -252 -329 -285 -372 -503 -653 -548 -705 -24 -28
-82 -102 -129 -165 -46 -63 -128 -169 -181 -235 -114 -143 -549 -707 -605
-785 -21 -30 -91 -122 -155 -205 -167 -216 -221 -265 -294 -265 -34 0 -45 7
-105 68 -37 37 -120 141 -186 232 -309 426 -496 612 -729 725 -139 67 -241 88
-406 83 -118 -4 -147 -9 -230 -37 -127 -43 -217 -98 -318 -195 -223 -215 -362
-525 -542 -1216 -219 -839 -231 -881 -315 -1075 -82 -190 -134 -269 -269 -412
-184 -194 -374 -326 -891 -618 -492 -278 -673 -393 -893 -562 -442 -343 -734
-769 -838 -1223 -127 -559 40 -1122 506 -1705 124 -154 453 -488 632 -640 442
-375 1036 -780 1576 -1077 1090 -598 1880 -672 2542 -238 288 189 630 533 797
801 105 169 231 453 322 727 131 397 217 763 376 1602 128 677 178 878 245
975 67 97 211 215 600 490 403 286 522 380 739 590 181 175 284 337 366 574
117 343 94 599 -67 718 -58 42 -131 63 -223 63 -115 0 -173 -14 -291 -70 -117
-55 -171 -90 -386 -252 -343 -258 -510 -339 -728 -354 -269 -20 -455 130 -544
438 -14 47 -28 112 -31 145 l-6 58 107 170 c58 94 161 260 227 370 66 110 170
277 231 372 61 95 201 315 310 490 840 1339 1477 2276 1688 2481 91 89 332
282 461 370 271 185 469 340 606 475 204 201 273 350 326 709 14 95 32 196 40
225 29 98 65 121 255 158 259 51 386 134 465 301 58 123 56 243 -8 374 -46 94
-176 222 -282 277 -133 69 -259 94 -347 69z m-506 -139 c-34 -37 -24 -103 26
-160 8 -9 13 -19 11 -20 -47 -37 -103 -70 -106 -62 -12 36 -48 78 -78 92 -19
9 -35 19 -35 22 0 17 43 72 74 96 32 25 96 53 120 55 5 0 0 -10 -12 -23z m752
-65 c59 -30 105 -62 149 -105 148 -146 159 -290 32 -426 -58 -62 -108 -84
-298 -127 -314 -71 -353 -116 -402 -468 -26 -189 -69 -365 -106 -439 -84 -167
-239 -310 -695 -643 -444 -324 -563 -423 -651 -537 -43 -55 -229 -329 -587
-862 -166 -248 -382 -579 -459 -705 -83 -137 -414 -648 -531 -820 -51 -74
-112 -169 -136 -210 -24 -41 -168 -268 -320 -505 -520 -808 -480 -741 -480
-792 0 -61 35 -227 66 -315 72 -202 179 -335 344 -426 119 -66 323 -76 529
-25 90 22 271 108 390 186 54 36 181 128 283 204 296 224 360 256 513 257 96
1 130 -10 172 -56 86 -92 66 -341 -49 -618 -69 -165 -162 -294 -324 -450 -162
-156 -430 -363 -715 -555 -278 -187 -550 -418 -619 -525 -81 -126 -126 -306
-271 -1080 -190 -1016 -342 -1567 -549 -1995 -135 -278 -220 -393 -466 -636
-186 -182 -310 -283 -452 -366 -272 -160 -478 -217 -792 -217 -362 0 -706 90
-1180 309 -776 359 -1829 1103 -2329 1645 -221 240 -390 473 -499 688 -54 105
-132 296 -132 321 0 5 15 12 32 16 192 39 765 169 771 174 10 10 -12 101 -25
101 -5 0 -181 -38 -392 -85 -211 -47 -393 -85 -404 -85 -17 0 -21 9 -27 51 -4
27 -5 52 -3 54 2 2 125 27 273 55 526 100 923 193 932 217 8 20 -15 93 -29 93
-5 0 -51 -11 -102 -25 -146 -40 -469 -109 -785 -169 -319 -61 -311 -61 -311 1
0 31 1 32 73 47 282 61 592 130 702 158 l130 33 -2 44 c-1 24 -6 48 -12 54 -6
6 -85 -9 -218 -41 -227 -56 -623 -142 -647 -142 -12 0 -16 11 -16 43 0 23 4
48 8 55 5 7 89 27 193 47 221 41 347 67 492 101 l109 26 -7 36 c-14 75 -6 74
-190 31 -199 -45 -563 -114 -570 -108 -2 3 -1 18 4 35 7 27 12 30 97 47 188
38 524 110 648 139 l128 30 -6 46 c-3 26 -10 50 -14 54 -4 4 -102 -15 -217
-41 -252 -59 -575 -124 -581 -118 -11 10 41 120 60 128 12 4 68 16 126 25 175
28 649 144 676 166 15 11 -3 87 -21 94 -7 3 -80 -13 -161 -35 -255 -70 -564
-134 -564 -118 0 3 16 33 36 66 41 70 17 61 344 117 113 20 208 38 212 42 7 7
-10 102 -19 102 -3 0 -86 -14 -186 -30 -99 -17 -186 -30 -194 -28 -9 2 18 40
71 99 204 232 565 498 976 718 74 40 173 97 220 126 47 29 157 94 245 145 508
294 762 525 924 839 119 232 190 445 334 1006 200 772 323 1096 497 1304 136
162 295 243 500 257 109 8 208 -13 317 -65 221 -106 366 -249 688 -681 149
-201 248 -310 308 -341 55 -29 123 -34 188 -16 99 29 153 79 319 294 227 293
332 426 348 443 8 8 -75 -118 -184 -280 -458 -679 -689 -1019 -695 -1020 -3 0
-11 48 -17 108 -20 193 -91 343 -227 477 -129 127 -269 189 -425 189 -224 0
-402 -139 -578 -451 -73 -129 -123 -253 -213 -528 -198 -597 -281 -701 -924
-1150 -446 -311 -625 -455 -725 -581 -82 -103 -112 -171 -118 -266 -4 -69 -2
-84 22 -131 38 -79 126 -179 256 -291 117 -101 439 -345 653 -496 65 -45 117
-88 115 -94 -5 -20 -500 -746 -509 -746 -4 0 -52 28 -106 61 -147 93 -291 166
-358 184 -163 42 -327 -11 -400 -129 -25 -41 -30 -60 -30 -110 1 -99 39 -150
185 -245 234 -153 1196 -815 1575 -1085 116 -82 230 -158 255 -169 131 -59
271 8 331 159 18 47 23 79 24 154 0 84 -3 101 -28 152 -28 57 -32 60 -350 279
-177 122 -324 224 -326 225 -2 2 3 10 11 17 8 8 118 173 244 366 126 193 234
351 239 351 14 0 260 -195 394 -314 242 -214 332 -360 397 -646 23 -101 31
-154 89 -572 56 -403 137 -574 314 -661 58 -29 75 -32 151 -32 72 0 92 4 135
27 138 72 242 253 335 580 57 201 99 397 194 914 152 823 202 1015 336 1289
153 315 327 492 695 709 420 249 509 313 732 530 247 240 445 491 510 647 35
84 38 184 7 225 -43 59 -68 69 -162 68 -163 0 -249 -53 -517 -314 -104 -102
-213 -202 -241 -223 -70 -50 -168 -95 -239 -108 -112 -21 -329 7 -514 67 -114
38 -344 155 -451 231 -94 68 -269 232 -328 309 l-31 40 485 740 c266 406 521
793 567 859 45 65 107 160 138 210 56 91 531 812 662 1005 40 58 96 144 126
190 262 408 593 916 1206 1850 587 894 730 1106 781 1155 52 50 65 71 79 119
19 66 15 127 -11 179 -29 56 -106 139 -146 156 l-39 16 87 65 c48 36 92 68 98
72 8 4 10 -11 8 -49 -5 -74 13 -134 55 -183 93 -108 227 -117 323 -21 96 96
107 259 21 335 -11 11 -21 24 -21 31 0 12 -55 67 -83 82 -19 10 -16 13 157
131 79 53 81 54 142 50 48 -3 82 -14 148 -46z m-1174 -222 c0 -11 -19 -30 -50
-49 -43 -26 -50 -35 -50 -62 0 -41 26 -94 58 -120 15 -11 21 -23 16 -28 -26
-22 -93 -71 -97 -71 -3 0 -27 32 -53 71 -53 77 -48 75 -142 52 -18 -4 -21 -2
-16 13 23 65 107 131 239 189 82 35 95 36 95 5z m620 -66 c0 -18 8 -22 51 -28
56 -8 99 -40 99 -76 0 -59 -67 -140 -116 -140 -64 0 -114 60 -114 137 1 71 52
172 72 141 4 -7 8 -23 8 -34z m-1060 -261 c0 -12 7 -14 28 -9 47 11 136 26
137 23 1 -1 16 -21 33 -44 l33 -42 -108 -85 c-59 -47 -112 -84 -117 -83 -21 7
-48 56 -53 96 -6 46 23 175 38 165 5 -3 9 -12 9 -21z m684 -39 c9 -3 16 -12
16 -19 0 -7 15 -28 34 -47 19 -19 38 -47 42 -62 16 -67 -53 -166 -116 -166
-37 0 -95 50 -110 94 -16 50 4 119 50 167 36 38 53 45 84 33z m-842 -59 c-6
-68 12 -133 49 -184 l27 -38 -31 -24 c-71 -54 -64 -53 -87 -10 -24 49 -71 85
-130 102 -25 7 -47 14 -48 15 -8 5 59 93 94 124 32 28 106 69 125 70 3 0 4
-25 1 -55z m597 -57 c-20 -101 34 -214 125 -263 20 -11 35 -23 34 -26 -7 -16
-3834 -5848 -3838 -5849 -5 0 -84 137 -119 208 l-22 42 1753 2628 1753 2627
63 7 c187 21 346 192 318 343 -12 62 -93 136 -148 134 -13 0 -43 4 -68 10 -25
5 -56 7 -70 4 -23 -4 -22 -2 10 24 81 66 215 170 217 168 2 -1 -2 -27 -8 -57z
m-781 -209 c33 -11 66 -65 60 -98 -3 -21 -195 -181 -216 -181 -7 0 -31 17 -53
38 -34 31 -41 44 -41 75 0 20 9 52 21 70 12 19 21 41 21 50 0 10 18 21 48 31
89 28 115 31 160 15z m657 -59 c7 -6 24 -8 38 -5 33 9 51 -23 42 -73 -9 -47
-105 -143 -159 -159 -36 -11 -42 -10 -69 13 -19 16 -39 24 -56 22 -36 -4 -57
39 -41 87 36 110 173 175 245 115z m-1019 -97 c0 -69 26 -125 80 -172 l36 -32
-28 -30 c-15 -16 -30 -29 -34 -29 -3 0 -17 27 -31 59 -26 58 -91 121 -126 121
-8 0 -32 -14 -54 -32 -21 -17 -42 -28 -45 -25 -20 20 155 194 197 197 3 0 6
-26 5 -57z m666 0 c-18 -71 -6 -126 38 -176 l29 -33 -23 -29 c-22 -27 -24 -28
-30 -9 -3 11 -19 33 -35 48 -26 25 -38 28 -113 32 -49 3 -97 0 -114 -6 -26
-10 -27 -9 -14 4 12 11 272 225 276 226 0 0 -6 -26 -14 -57z m-377 -283 c-8
-16 -15 -40 -15 -54 0 -18 -6 -25 -22 -28 -14 -2 -40 -28 -72 -75 -47 -65 -53
-71 -81 -66 -16 2 -52 -3 -78 -11 -27 -8 -47 -13 -45 -11 19 18 323 275 326
275 1 0 -4 -13 -13 -30z m291 -11 c35 -28 18 -109 -31 -147 -36 -28 -73 -28
-116 1 -62 41 -65 111 -6 148 26 16 42 19 86 14 30 -3 60 -10 67 -16z m-210
-240 c20 -12 53 -27 75 -33 l39 -12 -1600 -2399 c-880 -1320 -1604 -2401
-1609 -2403 -16 -5 -96 276 -89 312 3 12 471 710 1042 1551 841 1238 1078
1581 1247 1800 185 239 208 274 209 307 0 32 25 74 154 265 133 197 157 228
178 226 113 -11 157 5 192 72 26 50 28 155 4 199 -15 29 -15 31 36 108 l51 77
18 -24 c10 -13 34 -34 53 -46z m-480 -98 c-22 -41 -20 -114 4 -160 l19 -39
-112 -165 -112 -165 -13 91 c-6 51 -19 115 -27 144 -8 28 -15 54 -15 58 0 10
263 276 267 271 3 -2 -3 -18 -11 -35z m-3237 -3676 c102 -49 222 -169 275
-276 37 -76 44 -106 72 -319 9 -69 19 -138 21 -155 4 -26 -119 -212 -972
-1470 -538 -792 -979 -1442 -981 -1444 -8 -8 -547 386 -694 508 -110 92 -239
220 -271 270 -63 98 -29 184 140 351 121 120 246 217 581 450 330 229 459 329
581 450 197 195 288 363 434 805 129 392 221 574 368 731 137 147 278 178 446
99z m465 -1097 l49 -148 -883 -1325 c-570 -855 -888 -1324 -897 -1321 -7 3
-60 38 -117 78 -69 48 -104 78 -100 87 10 30 1888 2790 1894 2783 3 -4 27 -73
54 -154z m236 -478 l21 -29 -827 -1261 c-454 -693 -830 -1260 -834 -1260 -16
0 -215 152 -214 163 1 7 389 595 863 1306 l863 1294 53 -92 c30 -50 63 -105
75 -121z m354 -390 c343 -279 836 -450 1161 -400 180 27 292 97 534 334 97 94
201 191 231 215 75 60 164 101 219 101 l44 0 -7 -32 c-24 -126 -253 -432 -502
-668 -197 -188 -305 -267 -594 -435 -400 -233 -545 -353 -715 -590 -82 -113
-192 -334 -245 -490 -60 -175 -132 -478 -195 -820 -126 -680 -158 -838 -200
-1011 -108 -438 -225 -654 -356 -654 -134 0 -231 113 -284 331 -13 57 -38 210
-55 339 -58 450 -97 615 -185 796 -103 213 -237 348 -714 723 l-35 27 818
1247 818 1247 96 -101 c53 -55 128 -127 166 -159z m-2509 -1981 l114 -81 -250
-374 c-137 -206 -251 -374 -254 -374 -3 0 -60 36 -126 81 -112 75 -120 82
-107 100 7 11 121 179 253 374 132 195 244 355 248 355 4 0 59 -36 122 -81z
m332 -237 c60 -44 99 -80 96 -86 -4 -6 -112 -171 -240 -366 -128 -195 -234
-359 -236 -364 -5 -16 -237 147 -233 164 1 9 112 179 245 378 163 245 246 360
254 356 7 -4 58 -41 114 -82z m-1485 -274 c164 -78 642 -390 1367 -893 420
-291 407 -278 398 -393 -9 -117 -77 -202 -147 -187 -16 4 -110 63 -207 133
-285 202 -988 688 -1374 950 -196 133 -361 248 -368 255 -6 8 -14 28 -17 44
-5 26 0 37 27 67 71 77 191 86 321 24z"/>
<path d="M11364 1286 c-163 -76 -207 -308 -82 -437 125 -128 338 -139 467 -23
64 57 91 113 91 187 0 67 -19 120 -60 162 -15 17 -30 39 -32 50 -2 15 -25 27
-98 52 -121 42 -210 45 -286 9z m260 -126 c73 -44 106 -90 106 -148 0 -36 -6
-49 -41 -87 -78 -85 -201 -95 -299 -24 -52 38 -74 87 -67 152 5 54 28 91 78
125 29 20 44 23 100 20 53 -3 76 -10 123 -38z"/>
<path d="M9704 1156 c-42 -19 -139 -116 -164 -165 -53 -105 -44 -204 27 -273
58 -57 122 -81 218 -82 286 -2 400 217 211 406 -50 50 -167 114 -226 123 -20
3 -48 -1 -66 -9z m175 -160 c58 -43 91 -87 98 -132 5 -29 1 -40 -22 -64 -37
-38 -85 -54 -165 -53 -73 0 -141 28 -161 64 -30 56 5 146 82 212 40 35 41 35
81 21 22 -7 61 -29 87 -48z"/>
<path d="M10610 1021 c-151 -46 -256 -207 -221 -337 18 -67 51 -106 116 -139
56 -28 68 -30 165 -29 126 1 193 22 265 86 117 103 114 252 -7 348 -82 65
-230 98 -318 71z m143 -121 c4 -15 14 -20 37 -20 64 0 120 -48 120 -104 0 -95
-141 -169 -285 -151 -138 17 -174 125 -76 229 46 49 83 65 147 66 43 0 53 -3
57 -20z"/>
<path d="M8548 12768 c-8 -7 -30 -38 -48 -68 -138 -231 -357 -402 -592 -460
-26 -7 -53 -19 -59 -26 -7 -8 -13 -42 -15 -76 -3 -73 -39 -15 329 -527 l269
-375 -28 -24 c-16 -13 -52 -38 -79 -56 -101 -66 -135 -127 -135 -241 0 -88 15
-125 83 -197 43 -47 45 -48 103 -48 150 1 262 122 272 295 2 44 8 85 13 91 5
6 3 18 -5 29 -12 17 -12 21 2 31 13 10 12 15 -11 46 -15 19 -38 41 -53 48 -22
12 -478 630 -489 664 -2 6 39 31 92 56 216 101 408 255 483 388 19 35 40 69
45 77 8 11 57 -51 222 -278 140 -194 207 -294 200 -299 -7 -4 -22 -8 -35 -8
-35 0 -95 -35 -130 -74 -39 -45 -50 -84 -57 -213 -9 -158 22 -201 155 -211 80
-5 129 15 184 79 54 63 67 117 65 254 l-2 117 -187 262 c-102 143 -232 323
-288 400 -56 76 -102 144 -102 152 0 8 -4 14 -10 14 -14 0 -100 121 -100 141
0 20 -36 49 -60 49 -9 0 -23 -6 -32 -12z m91 -230 l30 -41 -31 -59 c-79 -148
-260 -291 -519 -412 l-96 -44 -31 43 -30 43 61 22 c219 79 403 222 529 410 29
44 54 79 55 80 1 0 15 -19 32 -42z m558 -900 c-12 -102 -93 -218 -134 -192
-33 20 -56 61 -50 86 14 54 127 158 171 158 17 0 18 -5 13 -52z m-689 -590 c5
-28 -42 -121 -82 -161 -37 -37 -74 -54 -100 -44 -32 13 38 190 85 215 34 18
93 11 97 -10z"/>
<path d="M6530 10815 c-10 -12 -12 -65 -8 -232 6 -209 7 -218 28 -235 27 -22
63 -23 83 -3 22 22 12 441 -11 468 -19 21 -75 22 -92 2z"/>
<path d="M5933 10710 c-12 -5 -25 -20 -28 -33 -7 -27 63 -563 76 -589 13 -25
71 -24 94 2 17 19 17 29 -19 307 -33 248 -41 290 -58 306 -22 19 -32 20 -65 7z"/>
<path d="M7383 10688 c-6 -7 -22 -56 -37 -108 -15 -52 -46 -137 -68 -189 -39
-88 -40 -96 -27 -120 11 -20 24 -27 52 -29 l38 -3 39 83 c83 178 119 328 85
361 -19 20 -68 22 -82 5z"/>
<path d="M5445 10440 c-17 -19 -18 -26 -7 -68 7 -26 27 -76 45 -112 30 -61 34
-65 70 -68 73 -6 85 33 38 126 -15 31 -32 68 -36 82 -18 59 -74 80 -110 40z"/>
<path d="M8195 10183 c-102 -46 -266 -140 -282 -161 -16 -20 -17 -74 -1 -90
20 -20 61 -14 103 15 22 15 108 62 190 103 136 68 150 78 153 103 4 36 -22 67
-57 67 -14 0 -62 -17 -106 -37z"/>
<path d="M6225 9719 c-199 -19 -439 -97 -557 -180 -26 -19 -27 -19 -54 6 -69
64 -189 56 -234 -17 -25 -41 -27 -127 -5 -193 l16 -45 -49 -72 c-142 -210
-214 -436 -216 -673 l-1 -120 -31 3 c-26 3 -39 -5 -91 -56 -75 -74 -130 -180
-146 -281 -10 -63 -14 -71 -33 -71 -47 0 -156 -162 -171 -253 -5 -30 -27 -60
-123 -160 -394 -412 -1185 -1316 -1538 -1757 -125 -158 -482 -622 -564 -737
-107 -147 -225 -362 -253 -457 -17 -57 -17 -58 11 -142 l28 -84 -27 -28 c-15
-15 -27 -37 -27 -48 0 -11 23 -54 50 -95 l51 -74 -43 46 c-24 25 -53 58 -65
73 -24 29 -41 32 -66 13 -44 -31 -27 -144 37 -250 l35 -58 -86 80 c-93 88
-131 102 -154 60 -14 -26 -4 -99 21 -156 11 -24 17 -43 15 -43 -3 0 -30 16
-60 36 -76 48 -92 44 -130 -34 -24 -50 -58 -89 -176 -205 -226 -219 -325 -388
-397 -677 -23 -93 -26 -126 -26 -288 l-1 -183 -25 -5 c-101 -21 -254 -95 -348
-168 -265 -204 -419 -576 -399 -962 7 -134 27 -237 72 -367 22 -66 29 -100 21
-102 -6 -2 -38 -8 -70 -14 -131 -24 -238 -103 -321 -235 -36 -59 -95 -176 -95
-190 0 -5 82 -37 86 -34 1 2 23 44 48 93 46 92 97 161 149 204 40 33 134 69
205 79 l59 8 29 -45 c66 -104 126 -149 185 -136 86 19 104 181 29 257 -27 26
-34 28 -108 28 l-80 0 -30 72 c-188 456 -72 982 278 1261 77 62 228 140 291
152 l36 7 22 -64 c77 -215 315 -495 498 -585 59 -29 83 -36 137 -36 58 -1 71
3 108 29 54 38 93 110 113 209 65 318 -191 531 -662 552 l-132 6 -7 55 c-10
85 3 255 30 373 51 224 150 409 308 573 l97 101 28 -26 c56 -52 68 -54 137
-20 37 18 83 52 113 84 50 52 50 53 83 39 80 -32 111 17 61 98 -17 28 -31 52
-31 55 0 3 20 -11 45 -30 68 -52 176 -80 203 -53 22 22 12 60 -31 122 -63 88
-63 89 -12 57 53 -33 157 -64 200 -59 26 2 30 8 33 35 l3 32 32 -19 c45 -26
133 -50 183 -50 75 0 174 63 425 273 479 401 1377 1248 2110 1992 324 329 419
432 425 466 5 22 15 27 75 43 79 20 166 79 214 143 21 29 44 46 78 58 94 34
187 116 287 254 51 70 51 70 108 76 230 26 443 96 587 195 40 28 42 28 95 14
69 -18 94 -18 159 2 120 35 192 171 148 277 -8 18 -21 38 -30 45 -14 12 -11
23 33 105 156 293 190 617 100 974 -119 471 -500 772 -1045 823 -122 11 -162
11 -280 -1z m600 -159 c87 -34 83 -27 36 -62 l-42 -31 -130 44 -130 43 53 27
52 27 66 -19 c36 -10 79 -23 95 -29z m-505 -58 c0 -5 -35 -36 -77 -69 -43 -33
-141 -115 -218 -182 -77 -66 -143 -121 -146 -121 -4 0 -30 39 -58 87 l-52 87
23 18 c93 72 245 172 271 178 44 11 257 12 257 2z m315 -62 l99 -32 -25 -22
c-14 -11 -86 -70 -159 -131 l-134 -110 -192 0 c-177 0 -192 1 -176 16 53 49
229 195 306 254 87 65 91 67 135 62 25 -3 91 -20 146 -37z m410 14 c65 -44
135 -98 135 -105 0 -3 -19 -14 -43 -23 l-43 -16 -95 56 c-52 31 -95 58 -97 59
-5 5 74 54 88 54 9 1 33 -11 55 -25z m-135 -135 c41 -22 79 -44 84 -49 4 -5
-11 -21 -35 -35 -24 -15 -83 -56 -130 -91 -48 -35 -95 -64 -105 -64 -11 1 -61
11 -112 23 l-94 22 94 77 c176 144 193 157 208 158 8 0 49 -19 90 -41z m388
-98 c35 -45 128 -210 120 -215 -1 -1 -57 54 -124 122 -66 68 -116 125 -110
127 6 2 18 6 26 8 35 12 52 4 88 -42z m-143 -74 c83 -74 180 -175 174 -182 -3
-2 -41 -22 -86 -45 l-82 -41 -42 27 c-49 30 -203 106 -249 123 -46 16 -44 18
180 164 14 9 27 16 30 16 3 1 37 -27 75 -62z m-916 -165 c-141 -133 -170 -157
-177 -145 -4 6 -36 54 -71 107 -35 53 -62 98 -60 101 11 11 146 23 268 24
l133 1 -93 -88z m329 52 c45 -9 81 -20 80 -23 -2 -4 -89 -91 -194 -194 -146
-143 -197 -187 -216 -187 -19 0 -36 13 -65 53 -22 28 -42 57 -46 64 -5 7 55
69 155 162 123 114 166 149 182 146 12 -2 58 -12 104 -21z m291 -91 c79 -33
140 -64 199 -100 23 -14 21 -15 -70 -80 -51 -36 -128 -95 -172 -131 l-78 -64
-142 22 c-77 12 -159 25 -180 29 l-40 6 100 100 c114 115 272 255 287 255 5 0
49 -16 96 -37z m-1279 -33 c10 -18 0 -31 -82 -113 -114 -112 -186 -207 -236
-309 -20 -43 -41 -77 -46 -78 -4 0 -6 38 -5 83 4 76 8 93 51 179 55 111 106
163 215 221 79 42 89 44 103 17z m1838 -66 c15 -26 37 -59 50 -74 12 -16 25
-41 28 -57 5 -25 1 -30 -31 -46 l-37 -17 -46 48 c-26 27 -69 67 -96 89 l-48
40 63 31 c35 17 70 31 77 31 7 1 25 -20 40 -45z m-1670 -239 c-2 -1 -39 -13
-83 -24 -96 -27 -235 -90 -290 -133 -22 -17 -46 -36 -54 -42 -8 -6 2 21 23 60
44 84 139 206 225 288 l62 58 60 -102 c33 -56 59 -103 57 -105z m1518 82 l78
-73 -70 -39 c-38 -21 -93 -54 -123 -72 l-54 -34 -125 36 c-69 19 -127 37 -129
39 -4 4 190 152 267 204 32 21 50 27 62 21 9 -5 51 -42 94 -82z m-711 -173
c49 -8 91 -17 93 -19 6 -5 -160 -160 -171 -160 -14 0 -177 181 -177 196 0 15
122 7 255 -17z m894 -33 c22 -33 45 -61 51 -63 6 -2 8 -16 4 -36 -5 -25 -15
-36 -40 -47 -33 -13 -37 -12 -149 42 -106 50 -114 57 -97 69 36 25 167 94 179
94 7 0 30 -27 52 -59z m-1732 -34 c-77 -89 -165 -204 -235 -308 -50 -75 -51
-76 -108 -87 -32 -7 -58 -11 -59 -9 -1 1 -15 35 -30 75 l-28 72 33 48 c73 104
157 172 273 219 61 25 179 61 205 62 7 1 -15 -32 -51 -72z m1129 9 c27 -8 75
-22 107 -30 l57 -17 -77 -61 c-43 -34 -113 -95 -155 -136 -42 -41 -81 -73 -87
-71 -5 2 -42 31 -82 64 l-71 60 106 102 c114 111 118 113 202 89z m-923 -86
l67 -89 -55 -85 c-53 -81 -57 -85 -98 -90 -53 -6 -269 -26 -286 -26 -14 0 27
60 138 200 84 106 150 180 160 179 3 0 36 -40 74 -89z m-727 -250 c108 -307
330 -562 614 -705 120 -60 254 -102 373 -116 56 -7 104 -14 106 -15 2 -2 -17
-29 -42 -61 -150 -195 -304 -248 -527 -181 -265 81 -573 366 -706 652 -115
251 -94 470 60 619 l60 58 17 -88 c10 -48 30 -122 45 -163z m2039 204 c58 -25
105 -48 105 -50 0 -1 -21 -17 -47 -35 -27 -18 -72 -52 -101 -77 l-53 -44 -165
8 -165 9 103 87 c135 114 179 146 200 147 10 1 65 -20 123 -45z m209 -110 c20
-8 20 -28 0 -88 -10 -30 -21 -45 -29 -42 -7 2 -34 7 -61 11 -27 3 -59 8 -72
11 l-23 5 28 23 c33 28 124 86 134 86 4 0 14 -3 23 -6z m-1220 -182 c3 -5 -13
-35 -35 -68 -50 -74 -121 -213 -143 -281 -15 -44 -22 -53 -41 -53 -29 0 -226
37 -232 44 -8 7 80 217 121 289 l37 66 77 4 c165 7 211 7 216 -1z m1097 -13
c38 -7 69 -15 69 -18 0 -4 -19 -38 -43 -76 -41 -67 -44 -70 -77 -67 -32 4
-190 49 -199 58 -2 1 18 28 44 59 44 51 50 55 92 55 24 0 75 -5 114 -11z
m-1534 -86 c-24 -49 -56 -121 -71 -160 -15 -40 -32 -73 -37 -73 -5 0 -38 11
-75 25 -36 14 -74 25 -83 25 -9 0 -34 22 -54 49 l-38 49 21 54 c33 88 29 86
185 101 77 8 152 15 168 16 l27 1 -43 -87z m572 -22 c33 -27 69 -55 81 -64
l21 -15 -34 -68 c-19 -38 -40 -86 -46 -106 l-13 -38 -128 0 -129 0 15 43 c31
89 148 297 167 297 4 0 34 -22 66 -49z m-1450 -178 c158 -400 545 -740 903
-796 l82 -13 -34 -26 c-60 -45 -103 -61 -173 -66 -174 -12 -385 111 -674 395
-225 221 -300 358 -273 502 12 66 39 123 82 175 l32 39 17 -79 c9 -43 26 -103
38 -131z m1753 -31 c27 -15 48 -30 48 -33 0 -7 -192 -39 -230 -39 -24 0 -22
16 12 85 34 67 35 68 82 40 22 -14 62 -38 88 -53z m-1904 -314 c46 -66 255
-283 367 -381 132 -115 306 -214 430 -246 l67 -16 -57 -65 c-127 -144 -485
-508 -823 -837 -926 -902 -1613 -1525 -1888 -1713 -79 -54 -93 -60 -138 -60
-165 0 -360 202 -446 464 -27 82 -22 106 47 236 227 424 1176 1587 2147 2628
l189 203 27 -69 c15 -38 50 -103 78 -144z m1092 182 c52 -11 109 -20 126 -20
31 0 32 0 36 -62 3 -35 4 -64 3 -66 -2 -2 -39 11 -83 28 -111 44 -186 91 -190
118 -4 26 -9 26 108 2z m930 15 c0 -9 -39 -148 -43 -151 -7 -7 -158 -43 -205
-50 -47 -6 -47 -6 -70 34 -13 23 -22 57 -22 80 0 39 2 41 33 46 17 3 86 13
152 24 139 22 155 24 155 17z m-425 -99 c3 -27 12 -64 20 -83 l14 -33 -62 0
c-76 0 -198 17 -210 29 -12 12 -28 101 -22 120 4 13 25 16 129 16 l124 0 7
-49z m-4770 -4997 c104 -22 232 -80 292 -133 23 -20 54 -61 69 -92 24 -50 26
-62 21 -133 -9 -135 -61 -221 -134 -221 -135 0 -407 267 -524 513 -48 101 -48
101 79 93 59 -4 148 -16 197 -27z"/>
<path d="M4460 6031 c-83 -25 -194 -105 -324 -230 -163 -158 -296 -339 -296
-401 0 -64 55 -78 138 -36 121 63 527 407 593 503 20 28 35 40 44 36 20 -7 45
14 45 39 0 27 -29 67 -61 84 -30 15 -97 17 -139 5z m-253 -317 c11 -10 27 -14
47 -11 30 4 29 3 -24 -45 -71 -63 -244 -196 -265 -205 -14 -5 -16 -3 -7 13 27
51 211 264 228 264 3 0 13 -7 21 -16z"/>
<path d="M8245 9365 c-5 -2 -27 -6 -48 -10 -50 -8 -74 -43 -57 -84 14 -36 40
-43 100 -30 66 15 242 15 337 -1 77 -13 84 -12 103 5 26 23 27 80 3 94 -34 18
-163 31 -295 30 -73 0 -137 -2 -143 -4z"/>
<path d="M8195 8716 c-20 -30 -10 -74 19 -86 11 -5 145 -23 296 -40 151 -16
289 -33 307 -35 62 -11 93 58 48 104 -8 9 -110 25 -301 47 -351 41 -349 41
-369 10z"/>
<path d="M1560 8013 c-344 -399 -355 -412 -347 -419 2 -3 82 -13 177 -24 94
-10 175 -21 178 -24 3 -3 -69 -167 -160 -363 -91 -197 -163 -360 -161 -363 5
-5 866 851 870 865 2 6 -58 41 -133 78 -74 38 -138 75 -141 84 -3 8 11 126 32
262 35 231 39 281 17 281 -4 0 -154 -170 -332 -377z"/>
<path d="M8145 8176 c-17 -25 -12 -67 9 -85 7 -6 98 -25 203 -43 161 -27 193
-30 207 -19 21 18 21 74 -1 93 -15 13 -337 78 -388 78 -8 0 -22 -11 -30 -24z"/>
<path d="M7823 7704 c-15 -23 -15 -29 -2 -51 19 -34 205 -142 245 -143 48 0
80 49 56 87 -4 6 -54 38 -112 72 -120 70 -159 77 -187 35z"/>
<path d="M16616 5603 c-7 -16 -20 -48 -27 -73 -17 -62 -75 -147 -121 -181 -22
-15 -72 -40 -111 -54 -261 -96 -324 -170 -315 -369 6 -138 42 -203 184 -334 8
-7 14 -10 14 -5 0 5 10 13 23 18 33 15 32 47 -2 117 -70 142 -62 240 26 338
38 43 201 165 209 157 1 -1 -18 -76 -42 -167 -25 -91 -72 -277 -106 -415 -34
-137 -63 -251 -64 -253 -1 -2 -28 4 -60 14 -159 46 -401 -29 -486 -151 -52
-74 -55 -180 -6 -232 121 -132 504 -62 602 110 16 28 26 65 29 112 11 136 276
1145 328 1247 16 31 29 68 29 80 0 65 -76 94 -104 41z"/>
<path d="M4596 3254 c-20 -20 -20 -29 4 -106 22 -69 26 -171 10 -229 -6 -20
-44 -87 -85 -148 -45 -68 -81 -134 -91 -168 -33 -113 3 -230 99 -320 62 -58
113 -87 194 -108 89 -23 127 -20 142 11 18 40 7 56 -64 93 -132 68 -196 173
-181 297 9 76 78 262 88 237 4 -10 51 -134 104 -277 53 -142 120 -318 149
-392 l52 -133 -31 -7 c-101 -21 -237 -138 -296 -254 -45 -88 -53 -196 -21
-264 30 -62 72 -86 148 -86 81 0 150 35 239 124 98 97 136 174 141 281 4 72 1
84 -21 120 -40 62 -58 106 -180 423 -214 558 -286 769 -286 840 0 61 -76 105
-114 66z"/>
<path d="M15545 2065 c-148 -94 -480 -277 -591 -325 -41 -18 -74 -36 -74 -40
0 -3 61 -55 135 -115 74 -60 135 -111 135 -114 0 -7 -303 -179 -382 -217 -32
-16 -58 -31 -58 -34 0 -3 67 -43 150 -90 82 -47 149 -88 150 -91 0 -3 -265
-224 -590 -490 -324 -266 -586 -485 -580 -487 8 -3 1667 841 1683 857 4 4 -63
63 -148 130 -85 68 -155 126 -155 130 0 3 97 55 216 114 118 59 214 112 212
116 -2 5 -76 69 -166 142 -92 75 -161 138 -158 145 2 6 85 107 183 224 98 116
180 216 181 221 7 17 -13 7 -143 -76z"/>
</g>
</svg>
