<?xml version="1.0" standalone="no"?>
<!DOCTYPE svg PUBLIC "-//W3C//DTD SVG 20010904//EN"
 "http://www.w3.org/TR/2001/REC-SVG-20010904/DTD/svg10.dtd">
<svg version="1.0" xmlns="http://www.w3.org/2000/svg"
 width="373.000000pt" height="1029.000000pt" viewBox="0 0 373.000000 1029.000000"
 preserveAspectRatio="xMidYMid meet">
<metadata>
Created by potrace 1.16, written by Peter Selinger 2001-2019
</metadata>
<g transform="translate(0.000000,1029.000000) scale(0.100000,-0.100000)"
fill="#000000" stroke="none">
<path d="M3013 10270 c-253 -90 -485 -336 -682 -723 -117 -229 -220 -512 -285
-787 -63 -260 -95 -715 -77 -1086 10 -215 29 -455 36 -462 2 -2 24 10 49 27
24 17 47 31 49 31 9 0 105 -135 127 -180 23 -45 222 -321 269 -372 13 -16 30
-28 36 -28 17 0 65 54 65 72 0 14 -209 297 -262 355 -15 16 -31 22 -56 20 -34
-2 -39 3 -96 76 -57 74 -59 78 -40 92 61 43 57 29 45 169 -32 379 -3 669 101
994 148 464 386 797 629 881 117 40 184 36 264 -17 22 -14 45 -25 50 -24 6 1
10 -16 10 -37 1 -52 20 -74 59 -68 22 3 35 -2 48 -17 9 -12 17 -26 18 -32 0
-11 -63 -34 -94 -34 -11 0 -16 -9 -16 -26 0 -20 3 -24 13 -17 6 6 36 16 65 24
46 11 54 11 69 -3 22 -23 10 -45 -29 -53 -41 -9 -58 -22 -58 -45 0 -10 -7 -24
-16 -31 -14 -11 -18 -11 -29 5 -12 15 -14 11 -20 -41 -25 -238 -65 -388 -162
-613 -5 -11 -2 -10 11 3 9 9 22 17 27 17 19 0 84 -31 104 -50 20 -19 127 -71
197 -96 46 -16 62 -4 72 52 10 50 -7 66 -114 103 -105 37 -110 37 -143 11 -24
-19 -28 -20 -62 -6 -44 19 -52 39 -32 82 23 48 27 48 210 -7 72 -21 136 -39
144 -39 10 0 13 28 13 128 l0 127 -58 2 c-31 0 -93 5 -137 10 l-80 8 -3 33
c-6 62 46 106 78 66 22 -25 52 -37 110 -45 30 -4 63 -10 72 -14 14 -5 16 -2
14 22 -16 136 -18 145 -29 134 -6 -6 -36 -11 -68 -11 -41 0 -63 -5 -82 -20
-31 -24 -41 -25 -62 -4 -17 17 -13 66 7 91 9 11 74 11 175 -2 l33 -4 -16 31
c-8 16 -13 32 -10 35 3 3 8 -1 12 -10 4 -13 10 -14 29 -5 22 10 23 15 19 62
-62 621 -238 1165 -405 1251 -35 18 -41 18 -106 -5z m275 -1656 c12 -8 22 -23
22 -33 0 -28 22 -41 112 -64 77 -20 83 -24 86 -50 2 -18 -2 -29 -12 -33 -17
-7 -262 62 -284 80 -28 21 8 116 42 116 6 0 22 -7 34 -16z"/>
<path d="M3046 8228 c-17 -29 -18 -31 -2 -25 37 14 116 -43 116 -84 0 -29 20
-44 183 -134 77 -42 90 -39 108 27 8 30 7 43 -2 55 -19 23 -225 123 -253 123
-33 0 -75 19 -106 47 l-26 23 -18 -32z"/>
<path d="M2889 7984 c-10 -13 -10 -17 2 -25 8 -5 17 -9 21 -9 4 0 38 -29 75
-64 99 -93 283 -227 307 -224 27 4 60 62 52 92 -4 16 -44 48 -130 105 -68 44
-130 81 -138 81 -7 0 -23 -7 -34 -15 -19 -13 -26 -12 -70 16 -27 17 -54 37
-60 45 -10 12 -13 12 -25 -2z"/>
<path d="M2804 7866 c-6 -14 23 -45 77 -84 10 -7 23 -30 29 -51 8 -32 33 -59
138 -150 69 -61 135 -111 145 -111 20 0 57 55 57 87 0 17 -34 50 -131 128
-107 86 -137 105 -164 105 -24 0 -48 12 -89 46 -44 36 -57 42 -62 30z"/>
<path d="M2710 7748 c0 -7 23 -36 52 -65 46 -46 50 -55 41 -75 -6 -13 -7 -32
-3 -43 5 -11 67 -78 140 -150 l132 -130 34 39 c19 22 34 45 34 53 0 26 -239
252 -300 283 -19 10 -53 37 -75 59 -40 42 -55 50 -55 29z"/>
<path d="M2605 7650 c-6 -10 381 -440 397 -440 28 0 -14 53 -184 238 -106 114
-195 208 -199 210 -4 2 -10 -2 -14 -8z"/>
<path d="M2490 7549 c0 -6 20 -35 46 -66 25 -31 51 -72 59 -90 14 -33 158
-215 234 -295 19 -21 43 -38 52 -38 22 0 59 46 59 74 0 13 -47 76 -116 156
-145 170 -148 172 -181 157 -24 -11 -28 -8 -80 51 -53 60 -73 74 -73 51z"/>
<path d="M2370 7451 c0 -5 17 -31 38 -58 54 -68 66 -93 53 -106 -6 -6 -11 -20
-11 -31 0 -28 256 -350 281 -354 22 -4 69 42 69 68 0 22 -245 327 -284 353
-17 11 -53 47 -79 79 -44 54 -67 71 -67 49z"/>
<path d="M2244 7355 c3 -8 74 -104 159 -212 84 -109 173 -224 196 -255 42 -56
66 -74 59 -44 -5 25 -392 525 -407 526 -8 0 -11 -6 -7 -15z"/>
<path d="M1986 7191 c-4 -5 20 -47 53 -93 47 -65 59 -90 58 -118 -1 -30 19
-62 139 -225 77 -104 147 -191 155 -193 20 -4 69 42 69 66 0 10 -61 101 -136
203 -114 156 -141 186 -172 197 -28 9 -49 30 -86 82 -56 80 -71 95 -80 81z"/>
<path d="M1856 7101 c-3 -5 15 -37 40 -71 82 -112 85 -118 67 -155 l-16 -33
89 -126 c171 -242 193 -276 188 -290 -9 -24 -36 -28 -55 -9 -9 10 -103 142
-209 293 -212 304 -216 308 -229 295 -6 -6 68 -118 193 -293 246 -344 239
-334 222 -357 -26 -36 -28 -33 -243 270 -68 96 -82 110 -108 112 -17 0 -35 2
-41 2 -6 1 -37 39 -69 86 -32 47 -62 85 -66 85 -23 0 -13 -26 40 -101 32 -46
63 -99 69 -118 11 -31 127 -203 249 -370 46 -62 58 -72 79 -68 13 2 21 1 19
-4 -3 -4 8 -211 25 -460 17 -249 29 -453 28 -453 -2 -1 -37 -12 -78 -25 -234
-73 -490 -260 -656 -480 -79 -105 -165 -275 -199 -396 -25 -90 -46 -258 -40
-325 2 -19 6 -66 10 -105 31 -350 281 -719 597 -881 45 -23 50 -23 83 -10 37
16 54 52 37 82 -6 10 -52 50 -104 89 -207 158 -308 338 -308 549 0 318 201
614 512 755 79 36 180 63 188 51 3 -5 29 -382 58 -837 29 -455 55 -843 58
-860 5 -33 5 -33 67 -34 34 -1 51 -3 37 -6 -14 -2 -44 -8 -67 -15 -39 -10 -43
-13 -43 -42 1 -79 30 -370 39 -379 5 -5 20 -15 33 -21 19 -9 25 -24 35 -81 12
-76 10 -85 -15 -85 -45 -1 -45 6 -6 -471 47 -589 42 -755 -30 -965 -117 -344
-365 -535 -747 -575 -171 -18 -299 5 -444 79 -108 55 -167 119 -186 200 -6 29
-5 33 9 27 41 -17 143 -17 216 -1 119 27 222 83 298 165 112 118 153 234 146
410 -5 129 -35 223 -104 323 -224 329 -652 330 -917 3 -64 -80 -134 -222 -153
-315 -22 -106 -14 -299 16 -395 82 -258 291 -484 562 -609 241 -112 542 -128
837 -46 317 89 561 326 667 647 28 87 59 256 69 378 6 75 -58 1162 -70 1173
-2 3 -25 -1 -51 -7 -25 -7 -48 -10 -50 -9 -10 10 -22 134 -17 184 3 36 -3 112
-16 196 -29 190 -28 218 12 202 20 -7 22 -12 61 -188 19 -83 46 -177 60 -209
14 -31 29 -74 32 -96 8 -51 20 -69 34 -55 8 8 7 28 -5 73 -17 66 -14 95 10
105 24 9 18 58 -25 206 -22 76 -40 145 -40 154 0 19 -12 26 -74 41 -50 12 -50
13 -14 14 20 1 39 4 41 9 3 4 -6 156 -18 337 -13 182 -37 535 -54 785 -17 250
-34 488 -38 528 l-6 72 34 -6 c406 -71 695 -354 779 -764 31 -147 25 -344 -14
-475 -28 -94 -84 -225 -96 -225 -16 0 -140 -123 -140 -140 0 -28 117 -185 207
-277 87 -90 119 -97 57 -12 -34 47 -36 53 -26 86 14 45 9 53 -74 152 -62 72
-74 94 -55 105 18 12 39 -7 166 -144 85 -93 132 -137 139 -130 11 11 15 6
-138 172 -103 112 -121 145 -89 155 7 3 48 -30 92 -71 44 -42 84 -76 90 -76 5
0 22 5 36 12 22 10 30 8 64 -20 31 -25 40 -28 45 -17 3 9 -3 20 -15 28 -11 6
-29 28 -41 47 -11 19 -55 67 -97 106 -76 71 -76 72 -57 93 11 11 23 21 27 21
4 0 38 -21 75 -46 37 -25 84 -52 105 -59 21 -8 49 -21 62 -30 37 -24 41 -2 7
29 -24 20 -30 35 -30 65 0 37 -3 41 -65 81 -43 28 -65 49 -63 59 6 30 38 22
144 -34 82 -44 108 -54 115 -44 8 14 -20 33 -126 86 -63 32 -85 51 -78 69 7
20 39 17 100 -8 l53 -22 23 22 c13 12 35 22 50 22 15 0 27 4 27 10 0 12 -76
64 -123 83 -40 17 -45 28 -22 50 12 12 22 13 50 6 28 -8 44 -6 80 10 25 11 45
24 45 28 0 12 -64 73 -76 73 -5 0 -15 5 -22 12 -18 18 3 45 40 53 18 4 43 13
55 21 l22 14 -24 42 c-21 36 -25 56 -25 127 0 46 -4 100 -9 120 -5 20 -15 74
-22 121 -24 168 -95 368 -185 516 -228 378 -572 585 -1014 611 -91 5 -110 9
-110 22 0 9 -14 207 -30 441 -16 234 -30 460 -30 502 0 42 -4 79 -9 83 -5 3 6
28 25 56 34 51 34 52 17 80 -46 74 -225 311 -285 377 -37 41 -85 101 -105 133
-38 59 -47 67 -57 50z"/>
<path d="M1485 6799 c-4 -6 15 -42 41 -80 27 -38 53 -76 59 -84 6 -10 6 -25
-2 -46 -9 -24 -9 -37 -1 -53 29 -54 301 -426 313 -426 23 0 65 41 65 64 0 27
-282 430 -316 453 -14 9 -52 53 -85 99 -33 46 -62 84 -64 84 -2 0 -7 -5 -10
-11z"/>
<path d="M1356 6692 c-6 -10 441 -622 455 -622 5 0 9 4 9 8 0 12 -438 616
-449 620 -5 2 -12 -1 -15 -6z"/>
<path d="M1234 6576 c-3 -8 15 -39 40 -71 26 -31 57 -78 71 -105 14 -27 81
-121 149 -208 67 -88 138 -180 156 -206 36 -50 65 -59 93 -28 10 10 17 29 17
42 0 15 -60 103 -161 238 -163 217 -163 217 -211 197 -12 -5 -31 13 -77 74
-34 45 -64 81 -67 81 -2 0 -7 -6 -10 -14z"/>
<path d="M1115 6460 c-4 -6 19 -42 50 -81 48 -60 56 -75 51 -99 -5 -26 13 -51
170 -242 96 -117 183 -214 193 -216 19 -3 61 40 61 64 0 13 -310 410 -338 432
-9 6 -26 12 -38 12 -16 0 -40 21 -80 70 -31 39 -58 70 -60 70 -1 0 -6 -5 -9
-10z"/>
<path d="M986 6341 c-3 -4 22 -39 55 -77 44 -51 58 -74 53 -89 -3 -11 -8 -29
-11 -41 -3 -15 38 -67 182 -227 102 -114 190 -207 196 -207 16 0 59 48 59 66
0 16 -17 38 -195 244 -82 95 -319 340 -330 340 -2 0 -6 -4 -9 -9z"/>
<path d="M866 6222 c-7 -11 508 -565 530 -570 8 -2 14 1 14 7 0 10 -515 564
-530 569 -4 2 -11 -1 -14 -6z"/>
<path d="M746 6092 c-3 -5 22 -35 55 -68 33 -32 68 -74 78 -93 22 -42 399
-401 421 -401 23 0 50 32 50 60 0 16 -55 78 -194 218 -157 158 -197 194 -212
187 -46 -18 -53 -16 -117 44 -67 63 -72 67 -81 53z"/>
<path d="M620 5961 c0 -4 32 -36 71 -71 67 -59 71 -65 66 -97 -5 -27 -1 -40
21 -63 43 -46 405 -340 419 -340 8 0 22 15 33 32 16 27 17 36 7 50 -26 38
-399 359 -433 373 -19 8 -64 39 -98 70 -60 52 -86 66 -86 46z"/>
<path d="M502 5827 c-8 -10 61 -66 308 -252 175 -132 326 -241 334 -243 49
-10 22 11 -620 500 -7 5 -16 3 -22 -5z"/>
<path d="M385 5679 c-4 -6 -5 -12 -4 -13 2 -2 33 -20 68 -42 36 -21 91 -63
123 -92 65 -60 482 -332 509 -332 21 0 39 28 39 59 0 15 -56 60 -217 176 -120
85 -228 158 -241 161 -14 4 -29 0 -41 -10 -10 -9 -22 -16 -28 -16 -6 0 -44 22
-85 49 -104 68 -115 73 -123 60z"/>
<path d="M280 5518 c0 -7 49 -40 108 -73 72 -40 108 -67 111 -80 1 -11 10 -28
19 -37 21 -25 480 -260 499 -256 24 5 42 40 33 64 -5 13 -94 71 -244 158 -214
124 -239 136 -271 130 -29 -5 -50 2 -139 50 -57 31 -107 56 -110 56 -3 0 -6
-6 -6 -12z"/>
<path d="M190 5337 c0 -8 42 -30 98 -52 131 -51 142 -58 142 -99 0 -44 16 -56
140 -101 58 -21 167 -62 244 -92 81 -31 147 -51 157 -48 11 4 22 18 25 32 9
35 -13 53 -126 103 -52 23 -159 71 -238 106 -78 35 -156 64 -173 64 -17 0 -82
23 -144 50 -62 28 -116 50 -119 50 -3 0 -6 -6 -6 -13z"/>
<path d="M120 5147 c0 -11 768 -267 804 -267 55 0 -17 30 -266 110 -156 50
-337 109 -403 131 -134 44 -135 44 -135 26z"/>
<path d="M40 4856 c0 -18 6 -19 145 -47 61 -12 130 -32 155 -44 43 -22 485
-115 544 -115 18 0 30 7 37 24 16 34 -3 63 -49 75 -364 94 -474 121 -495 121
-16 0 -31 -9 -42 -26 -19 -30 -13 -30 -174 5 -112 25 -121 25 -121 7z"/>
<path d="M15 4659 c-12 -18 2 -22 122 -35 142 -16 163 -20 163 -38 0 -8 8 -23
18 -35 15 -19 40 -23 272 -43 140 -12 267 -18 283 -15 23 6 27 13 27 42 0 27
-5 38 -22 45 -13 5 -111 21 -218 35 -107 14 -222 30 -255 36 -41 7 -69 7 -87
0 -19 -7 -64 -6 -155 4 -155 18 -140 17 -148 4z"/>
<path d="M12 4459 c6 -17 70 -24 371 -38 317 -15 510 -15 505 2 -3 7 -26 13
-59 14 -30 1 -175 7 -324 13 -148 5 -321 13 -384 16 -95 6 -113 5 -109 -7z"/>
<path d="M342 4353 c-14 -3 -28 -17 -36 -37 -16 -38 -43 -46 -168 -46 -81 0
-108 -6 -108 -23 0 -7 39 -8 120 -4 73 4 138 3 167 -4 37 -8 107 -6 307 10
142 11 263 24 268 29 5 5 8 25 6 43 l-3 34 -265 1 c-146 1 -275 -1 -288 -3z"/>
<path d="M568 4181 c-208 -25 -218 -27 -247 -55 -26 -25 -41 -29 -141 -41
-101 -12 -143 -25 -128 -40 3 -3 63 1 133 10 123 15 128 15 159 -4 l31 -20
245 34 c135 19 250 35 257 35 35 0 58 71 31 98 -17 17 -92 13 -340 -17z"/>
<path d="M620 4000 c-126 -21 -245 -47 -270 -58 -25 -11 -92 -28 -150 -37
-100 -15 -132 -27 -117 -41 3 -4 59 3 125 15 65 11 123 21 130 21 6 0 18 -13
27 -30 10 -20 23 -30 38 -30 31 0 476 89 510 102 21 8 27 17 27 42 0 68 -10
68 -320 16z"/>
<path d="M795 3854 c-49 -13 -220 -53 -378 -89 -159 -35 -293 -67 -298 -70
-16 -11 -10 -25 11 -25 11 0 134 29 273 65 138 36 312 80 385 97 72 17 132 35
132 40 0 12 -26 9 -125 -18z"/>
<path d="M701 3745 c-134 -41 -248 -78 -254 -84 -6 -6 -16 -26 -21 -43 -10
-31 -18 -36 -129 -74 -125 -44 -152 -59 -124 -70 9 -3 73 13 141 36 69 23 134
39 144 36 18 -6 492 165 520 187 17 13 15 52 -4 71 -8 9 -18 16 -22 15 -4 0
-117 -34 -251 -74z"/>
<path d="M750 3561 c-124 -59 -238 -120 -255 -135 -16 -15 -72 -47 -123 -70
-106 -48 -142 -74 -122 -86 9 -5 53 12 122 46 59 30 115 54 124 54 9 0 27 -9
41 -20 20 -16 29 -17 47 -9 83 43 439 256 443 267 11 26 -7 62 -30 61 -12 0
-123 -49 -247 -108z"/>
<path d="M711 3335 c-318 -217 -351 -241 -351 -257 0 -28 70 15 323 200 336
245 354 258 346 266 -3 3 -146 -91 -318 -209z"/>
<path d="M878 3354 c-100 -85 -189 -163 -196 -172 -9 -11 -11 -31 -7 -56 6
-39 5 -40 -80 -119 -47 -44 -85 -86 -85 -94 0 -22 12 -14 97 63 43 39 93 79
112 88 33 18 387 352 404 382 11 20 -18 64 -42 64 -11 0 -102 -70 -203 -156z"/>
<path d="M1142 3393 c-11 -10 -73 -76 -138 -148 -65 -71 -137 -151 -161 -177
-33 -36 -43 -55 -43 -81 0 -27 -14 -49 -75 -120 -68 -80 -89 -117 -66 -117 8
0 34 27 134 138 28 31 45 42 66 42 25 0 48 23 184 193 85 106 159 203 165 214
9 17 8 26 -9 47 -24 31 -30 32 -57 9z"/>
<path d="M1238 3293 c-49 -58 -280 -398 -291 -430 -7 -21 -41 -78 -75 -126
-34 -48 -62 -92 -62 -97 0 -30 25 -10 70 57 78 115 85 122 128 116 l37 -5 133
216 c72 119 132 224 132 235 0 19 -29 51 -47 51 -5 0 -17 -8 -25 -17z"/>
<path d="M1306 3148 c-19 -35 -102 -189 -185 -343 -133 -248 -161 -315 -123
-291 10 6 362 677 362 690 0 22 -24 -3 -54 -56z"/>
<path d="M1412 3182 c-15 -10 -212 -440 -212 -463 0 -9 7 -22 15 -29 23 -19
18 -49 -25 -150 -38 -88 -43 -120 -22 -120 5 0 28 46 51 103 24 56 51 111 61
122 26 29 48 77 136 299 l79 198 -28 24 c-31 26 -36 28 -55 16z"/>
<path d="M1553 3088 c-20 -25 -163 -439 -163 -470 0 -18 -17 -83 -37 -145 -35
-106 -38 -151 -8 -109 8 10 28 61 45 112 30 90 41 104 80 104 11 0 23 8 28 18
11 19 142 440 142 453 0 16 -40 49 -59 49 -10 0 -23 -6 -28 -12z"/>
<path d="M1760 2988 c-14 -33 -100 -416 -100 -444 0 -13 8 -28 19 -33 30 -17
32 -36 10 -142 -16 -75 -18 -104 -9 -113 17 -17 25 3 44 109 9 51 25 113 35
137 18 39 91 409 91 456 0 49 -72 72 -90 30z"/>
<path d="M2822 2994 c-12 -8 -22 -22 -22 -30 0 -15 123 -237 148 -266 8 -9 24
-18 35 -20 13 -2 37 -26 60 -62 27 -39 42 -55 49 -48 7 7 0 28 -21 65 -23 40
-31 66 -29 94 2 33 -8 54 -80 161 -85 127 -98 136 -140 106z"/>
<path d="M1587 2653 c-75 -266 -95 -348 -85 -354 7 -5 16 -5 19 -1 9 9 179
663 179 685 0 56 -27 -21 -113 -330z"/>
<path d="M1912 2948 c-5 -7 -24 -110 -42 -228 -31 -208 -31 -216 -15 -247 18
-33 18 -40 -1 -185 -6 -43 -5 -48 13 -48 18 0 21 9 26 85 6 86 15 113 46 144
13 13 21 48 30 132 7 63 17 150 22 194 12 109 11 131 -7 149 -19 19 -58 21
-72 4z"/>
<path d="M2678 2939 c-28 -16 -22 -44 45 -199 l62 -145 39 -5 c35 -5 41 -10
70 -67 23 -46 35 -60 44 -54 11 7 9 18 -12 59 -14 28 -30 71 -36 95 -12 55
-119 285 -144 310 -20 19 -42 21 -68 6z"/>
<path d="M2063 2918 c-25 -32 -41 -678 -17 -678 12 0 24 67 24 137 0 39 4 46
34 64 44 25 46 40 46 265 0 171 -1 185 -20 204 -23 23 -53 26 -67 8z"/>
<path d="M2585 2900 c-6 -10 158 -495 174 -512 3 -4 11 -4 18 0 8 5 -16 83
-79 257 -49 138 -93 254 -97 258 -5 5 -12 4 -16 -3z"/>
<path d="M2205 2870 c-4 -6 -3 -146 1 -311 5 -244 10 -302 21 -306 8 -3 16 -3
19 0 9 8 -17 611 -26 620 -4 5 -11 4 -15 -3z"/>
</g>
</svg>
