<?xml version="1.0" standalone="no"?>
<!DOCTYPE svg PUBLIC "-//W3C//DTD SVG 20010904//EN"
 "http://www.w3.org/TR/2001/REC-SVG-20010904/DTD/svg10.dtd">
<svg version="1.0" xmlns="http://www.w3.org/2000/svg"
 width="792.000000pt" height="376.000000pt" viewBox="0 0 792.000000 376.000000"
 preserveAspectRatio="xMidYMid meet">
<metadata>
Created by potrace 1.16, written by Peter Selinger 2001-2019
</metadata>
<g transform="translate(0.000000,376.000000) scale(0.100000,-0.100000)"
fill="#ffffff" stroke="none">
<path d="M6170 3650 c-81 -17 -164 -66 -226 -133 -109 -116 -154 -240 -154
-422 0 -198 65 -366 223 -578 124 -166 462 -477 598 -549 67 -36 146 -38 210
-5 96 48 371 286 501 432 225 252 328 472 328 701 0 173 -57 323 -164 429
-103 103 -214 142 -376 132 -103 -7 -165 -26 -245 -78 -111 -73 -170 -74 -282
-6 -106 63 -155 79 -268 83 -55 2 -120 -1 -145 -6z m496 -410 c5 -57 6 -201 1
-206 -3 -3 -43 -8 -89 -11 -46 -3 -93 -6 -105 -6 l-23 -2 0 -288 c0 -265 -1
-288 -17 -295 -10 -4 -70 -7 -133 -7 l-115 0 -2 299 -3 299 -72 -2 c-40 -2
-84 -4 -98 -5 l-25 -1 -3 122 -3 122 53 3 c29 2 183 3 342 3 l289 0 3 -25z
m526 -16 c49 -18 82 -40 120 -78 250 -248 112 -702 -220 -724 -139 -9 -250 52
-327 179 -116 190 -70 460 99 582 97 69 215 84 328 41z"/>
<path d="M7020 3033 c-68 -26 -130 -118 -132 -195 -2 -131 64 -212 173 -209
61 1 110 30 149 89 39 58 43 77 38 156 -4 74 -34 127 -85 151 -30 15 -113 19
-143 8z"/>
<path d="M1040 3494 c-46 -20 -87 -60 -112 -108 -19 -38 -20 -54 -16 -525 4
-485 4 -487 26 -518 12 -18 48 -44 80 -60 l57 -28 305 0 c297 1 307 1 365 24
72 29 150 100 191 173 27 50 29 60 29 163 -1 130 -18 178 -91 245 l-45 41 40
45 c66 76 85 126 85 226 -1 119 -31 181 -118 244 -107 78 -195 94 -521 94
-192 -1 -247 -4 -275 -16z m544 -248 c109 -46 113 -151 8 -199 -41 -19 -65
-22 -195 -22 -135 0 -150 2 -163 19 -37 52 -25 162 23 205 27 23 30 24 159 18
82 -4 146 -12 168 -21z m43 -487 c63 -31 97 -79 90 -129 -3 -21 -15 -53 -27
-70 -39 -55 -70 -64 -232 -68 -165 -4 -206 6 -234 60 -28 55 2 183 49 206 40
19 51 20 181 21 112 1 136 -2 173 -20z"/>
<path d="M4303 3476 c-17 -8 -36 -23 -42 -34 -7 -14 -9 -186 -6 -554 3 -293 5
-541 5 -551 0 -10 13 -32 29 -48 25 -24 38 -29 80 -29 65 0 96 15 116 55 12
28 15 82 15 328 0 163 3 302 6 311 3 9 14 16 24 16 19 0 129 -130 272 -320
193 -255 284 -365 318 -382 54 -28 132 -24 169 8 l31 26 -2 560 -3 560 -28 24
c-40 34 -124 34 -163 0 -35 -30 -40 -73 -50 -419 -8 -278 -11 -293 -57 -257
-30 24 -199 241 -389 500 -75 102 -146 191 -159 199 -33 20 -128 24 -166 7z"/>
<path d="M2359 3436 c-121 -50 -232 -145 -304 -261 -66 -107 -83 -158 -91
-281 -6 -94 -4 -121 16 -199 34 -136 61 -184 158 -284 100 -101 150 -129 297
-166 94 -24 106 -25 190 -14 50 6 117 20 149 31 130 43 269 166 330 290 130
267 91 543 -103 738 -133 133 -235 171 -452 169 -115 -1 -144 -5 -190 -23z
m357 -250 c79 -36 118 -68 159 -129 39 -58 75 -160 75 -215 0 -59 -58 -216
-96 -260 -52 -62 -119 -99 -205 -115 -73 -14 -80 -13 -148 8 -83 27 -156 71
-205 125 -45 50 -60 81 -81 160 -20 76 -16 134 15 235 17 55 32 79 66 112 111
108 286 140 420 79z"/>
<path d="M3265 3406 c-18 -19 -37 -54 -43 -78 -7 -27 -12 -228 -14 -535 l-3
-493 23 -22 c20 -20 33 -23 108 -23 82 0 87 1 111 29 23 27 24 34 19 105 -4
42 -7 122 -9 179 -2 123 4 132 91 132 71 0 99 -18 147 -93 154 -242 196 -305
215 -329 47 -61 163 -60 195 2 28 54 20 81 -63 207 -43 65 -91 140 -106 166
-27 47 -27 49 -10 68 10 11 38 25 63 31 36 9 61 26 118 83 60 60 74 80 88 130
47 162 -24 342 -165 419 -94 51 -130 56 -444 56 l-289 0 -32 -34z m590 -208
c59 -22 88 -69 83 -135 -3 -32 -12 -61 -23 -73 -29 -32 -110 -51 -241 -57
-101 -5 -126 -3 -157 12 -44 20 -46 28 -50 136 -2 90 6 112 48 130 31 14 293
3 340 -13z"/>
<path d="M310 3382 c-23 -11 -43 -33 -57 -62 -52 -102 -14 -210 118 -334 120
-113 138 -113 256 -2 94 88 133 154 140 234 11 142 -113 225 -233 156 -30 -17
-33 -17 -82 4 -61 27 -96 28 -142 4z"/>
<path d="M289 2523 c-110 -93 -65 -263 109 -408 89 -74 115 -74 200 -2 72 61
112 107 142 166 46 87 35 187 -25 240 -31 27 -43 31 -93 31 -36 0 -66 -6 -78
-15 -24 -18 -62 -18 -94 0 -14 8 -48 14 -77 15 -42 0 -58 -5 -84 -27z"/>
<path d="M7015 1921 c-144 -41 -273 -140 -322 -248 -52 -112 -42 -265 23 -380
l24 -41 -56 -32 c-151 -85 -247 -239 -261 -420 -11 -149 30 -281 126 -400 138
-172 305 -257 522 -267 144 -7 237 12 348 68 138 71 296 227 360 354 30 60 44
143 32 194 -18 80 -71 132 -118 115 -43 -15 -49 -36 -31 -105 14 -52 15 -67 4
-104 -39 -129 -225 -302 -384 -357 -98 -34 -269 -32 -362 3 -137 52 -261 162
-322 286 -29 60 -33 77 -33 148 0 99 24 177 80 259 55 84 112 117 207 124 99
6 128 22 128 68 0 31 -9 44 -65 96 -147 137 -158 289 -29 408 61 57 120 86
215 106 168 36 344 -40 415 -178 28 -54 30 -78 10 -116 -37 -70 -89 -96 -193
-93 -74 1 -83 0 -93 -19 -20 -37 -8 -72 30 -95 28 -16 52 -20 120 -20 77 0 90
3 140 31 102 57 160 166 147 275 -8 66 -57 155 -120 218 -63 63 -112 93 -201
120 -87 27 -251 28 -341 2z"/>
<path d="M2880 1921 c-165 -51 -301 -265 -379 -601 -23 -95 -66 -408 -76 -545
-9 -118 -10 -122 -50 -135 -18 -6 -45 -20 -59 -31 -55 -43 -15 -129 59 -129
19 0 35 -3 35 -7 0 -5 5 -60 10 -123 19 -217 37 -263 100 -263 56 0 63 15 56
133 -8 137 -11 299 -4 305 8 8 257 79 556 159 257 69 322 83 322 72 0 -2 9
-55 19 -117 11 -63 25 -177 31 -254 18 -230 25 -267 55 -292 29 -26 42 -28 80
-13 47 18 49 44 20 304 -15 132 -33 280 -40 330 -14 88 -13 92 6 119 30 42 19
93 -25 113 -31 15 -34 22 -61 128 -116 461 -293 782 -463 840 -47 17 -149 20
-192 7z m165 -165 c67 -40 148 -168 221 -348 45 -111 144 -434 144 -469 0 -12
-11 -21 -32 -27 -268 -77 -772 -212 -792 -212 -19 0 18 373 54 551 41 203 105
349 194 447 79 86 136 101 211 58z"/>
<path d="M5571 1904 c-88 -23 -151 -64 -241 -154 -68 -67 -95 -104 -132 -175
-80 -157 -128 -347 -128 -510 0 -225 93 -496 232 -680 165 -218 497 -312 727
-205 140 66 293 286 309 442 6 60 -8 78 -59 78 -46 0 -64 -21 -133 -155 -80
-157 -162 -219 -307 -231 -337 -29 -603 308 -602 761 0 157 20 244 89 383 56
115 145 213 236 263 59 32 69 34 158 34 84 0 102 -3 152 -28 77 -38 172 -140
227 -246 50 -96 49 -119 -7 -155 -55 -34 -65 -50 -58 -90 9 -45 29 -61 77 -59
56 3 119 40 146 88 79 139 -65 463 -255 579 -93 56 -167 76 -279 75 -54 0
-122 -7 -152 -15z"/>
<path d="M834 1841 c-42 -19 -54 -36 -54 -77 0 -45 32 -64 109 -64 61 0 70 -3
76 -20 3 -11 0 -327 -7 -702 -15 -822 -15 -751 1 -782 25 -46 70 -58 240 -64
183 -5 289 10 448 63 303 101 522 287 596 504 96 283 -84 700 -416 966 -192
153 -354 195 -755 195 -170 0 -203 -3 -238 -19z m594 -157 c232 -47 425 -200
570 -451 128 -219 149 -382 72 -540 -91 -184 -373 -353 -673 -404 -72 -12
-263 -9 -285 5 -10 6 -12 139 -7 699 4 381 9 698 11 706 4 11 26 13 120 7 64
-3 150 -13 192 -22z"/>
<path d="M4797 1842 c-22 -25 -21 -57 7 -225 44 -262 43 -520 -5 -834 -33
-218 -79 -358 -116 -351 -26 5 -81 92 -167 263 -88 177 -131 280 -261 630
-119 320 -163 411 -221 465 -38 35 -49 40 -92 40 -59 0 -88 -22 -126 -99 -64
-125 -81 -311 -80 -881 1 -357 4 -451 17 -526 27 -149 63 -214 118 -214 42 0
73 34 65 73 -36 193 -55 684 -37 997 11 197 35 400 51 429 11 20 47 -62 167
-379 176 -464 264 -659 372 -820 74 -109 129 -150 207 -150 48 0 58 4 95 37
54 49 84 111 119 246 55 209 82 456 82 747 1 232 -34 451 -83 535 -18 30 -26
35 -58 35 -24 0 -44 -7 -54 -18z"/>
<path d="M299 1687 c-98 -65 -90 -213 16 -335 61 -70 153 -142 182 -142 50 0
182 118 237 212 76 130 17 288 -108 288 -21 0 -58 -10 -82 -22 l-44 -22 -44
22 c-57 29 -114 28 -157 -1z"/>
<path d="M327 856 c-51 -19 -63 -31 -83 -82 -42 -110 9 -222 160 -351 91 -78
111 -76 220 28 136 129 175 233 125 336 -13 26 -34 50 -53 60 -41 22 -116 22
-149 0 -32 -21 -61 -22 -90 -3 -34 22 -88 27 -130 12z"/>
</g>
</svg>
