<?xml version="1.0" standalone="no"?>
<!DOCTYPE svg PUBLIC "-//W3C//DTD SVG 20010904//EN"
 "http://www.w3.org/TR/2001/REC-SVG-20010904/DTD/svg10.dtd">
<svg version="1.0" xmlns="http://www.w3.org/2000/svg"
 width="2848.000000pt" height="1795.000000pt" viewBox="0 0 2848.000000 1795.000000"
 preserveAspectRatio="xMidYMid meet">
<metadata>
Created by potrace 1.16, written by Peter Selinger 2001-2019
</metadata>
<g transform="translate(0.000000,1795.000000) scale(0.100000,-0.100000)"
fill="#ffffff" stroke="none">
<path d="M8205 17935 c-143 -31 -260 -100 -376 -222 -120 -127 -207 -260 -485
-740 -48 -84 -90 -153 -94 -153 -3 0 -28 132 -55 293 l-49 294 -126 -34 c-175
-46 -437 -99 -620 -124 -200 -26 -619 -37 -822 -20 -296 25 -617 93 -908 191
-79 27 -146 47 -148 45 -7 -7 113 -218 196 -345 99 -151 251 -304 372 -375 85
-49 297 -138 503 -210 59 -21 107 -39 105 -40 -2 -2 -345 -71 -763 -155 -1115
-222 -1459 -296 -1665 -355 -509 -147 -999 -382 -1544 -742 -103 -69 -191
-121 -195 -116 -4 4 -30 37 -58 73 -82 104 -110 126 -213 166 -207 80 -428
115 -503 79 -21 -9 -50 -34 -66 -54 -36 -46 -95 -162 -110 -216 -24 -90 -32
-273 -25 -537 l7 -268 -43 0 c-33 0 -65 -12 -129 -46 -180 -98 -310 -200 -358
-282 -58 -98 -37 -236 58 -392 28 -47 57 -102 65 -124 22 -62 17 -182 -15
-344 -59 -294 -66 -362 -66 -687 1 -257 4 -319 22 -435 62 -390 181 -750 365
-1100 164 -311 198 -380 233 -469 43 -109 114 -384 250 -966 226 -975 233
-1000 300 -1170 35 -88 69 -189 75 -225 9 -48 10 -146 4 -375 -15 -530 -11
-991 10 -1130 26 -180 84 -389 191 -700 54 -154 109 -317 123 -362 28 -89 29
-91 95 -72 42 11 43 15 22 66 -27 65 -114 366 -149 515 -193 826 -172 1654 65
2549 l32 120 72 -108 c39 -59 113 -173 163 -253 195 -311 362 -472 619 -597
168 -82 305 -114 513 -120 200 -7 310 7 566 72 219 56 339 72 426 58 94 -16
241 -73 453 -178 183 -90 325 -178 619 -385 550 -387 1212 -594 2161 -676 230
-20 300 -16 475 27 74 18 146 32 160 32 14 -1 102 3 195 8 279 14 500 58 790
154 355 118 658 273 1075 553 74 49 137 88 139 87 2 -2 -43 -56 -99 -120 -57
-64 -100 -118 -98 -121 7 -6 181 94 278 160 108 74 102 72 94 39 -4 -15 -11
-34 -17 -41 -5 -7 -6 -16 -2 -20 4 -4 10 -2 12 5 9 26 120 172 176 232 84 91
137 165 191 271 26 50 54 94 61 96 8 3 42 -9 75 -27 147 -78 210 -221 210
-473 0 -151 -21 -267 -69 -392 -120 -311 -389 -586 -1094 -1119 -109 -82 -194
-151 -188 -153 5 -2 176 64 378 146 l369 149 17 -116 c24 -164 24 -166 -22
-199 -95 -69 -334 -172 -492 -212 -97 -25 -103 -23 -169 70 -25 34 -63 88 -86
119 l-41 57 -89 -8 c-48 -5 -90 -11 -93 -13 -2 -3 1 -60 7 -127 15 -152 15
-216 1 -256 -21 -62 -175 -137 -332 -162 -89 -15 -360 -9 -501 11 l-88 12 50
21 c28 12 55 25 59 29 4 5 -53 4 -127 0 -74 -4 -180 -8 -235 -8 -55 0 -102 -3
-105 -6 -5 -6 -250 -23 -710 -50 -107 -7 -339 -12 -515 -13 -346 -1 -369 1
-543 60 -169 56 -316 136 -647 349 -121 79 -261 166 -311 194 -101 57 -285
141 -310 141 -58 0 479 -486 703 -635 73 -49 83 -59 96 -102 9 -27 63 -196
121 -378 241 -752 311 -1063 311 -1375 0 -178 -11 -242 -61 -349 -100 -219
-350 -354 -725 -392 -125 -12 -232 -8 -579 22 -313 27 -401 53 -501 146 -94
88 -126 179 -139 398 -12 197 -34 282 -154 580 l-97 240 5 -130 c3 -78 17
-199 35 -304 48 -272 56 -403 56 -956 0 -438 -2 -504 -16 -535 -25 -54 -104
-136 -155 -161 -44 -21 -55 -22 -185 -15 -161 7 -270 25 -354 56 -68 26 -529
330 -733 485 -229 172 -392 328 -528 505 -60 77 -412 612 -474 719 -93 161
-164 347 -191 501 -17 94 -16 296 0 374 28 128 84 207 173 246 45 19 64 22
128 17 80 -6 144 -26 614 -196 138 -50 252 -89 254 -86 11 11 -80 139 -149
207 -66 65 -94 85 -191 132 -152 74 -460 166 -557 166 -174 0 -368 -116 -441
-263 -42 -86 -53 -162 -54 -387 -1 -222 10 -288 74 -450 256 -647 666 -1194
1233 -1642 221 -175 372 -272 653 -423 109 -58 237 -131 284 -163 114 -76 462
-423 774 -775 l239 -268 -16 -77 c-9 -42 -25 -120 -37 -172 -22 -105 -26 -205
-9 -264 24 -87 192 -201 332 -225 59 -10 84 -9 219 14 568 96 874 215 1147
447 85 72 210 219 264 309 88 148 101 298 37 417 -40 76 -115 147 -213 203
-242 138 -407 298 -569 549 -90 140 -260 452 -251 460 16 16 378 171 477 205
232 78 462 101 601 58 124 -38 217 -54 356 -60 274 -12 483 47 711 199 108 73
272 233 310 303 66 123 98 355 80 574 -14 171 -10 166 -298 376 -38 28 -72 51
-75 53 -3 1 -24 -20 -47 -47 l-42 -49 16 -124 c23 -182 3 -289 -70 -374 -72
-84 -244 -143 -376 -129 -170 18 -349 109 -466 238 -80 87 -99 133 -154 373
-28 120 -98 405 -155 633 -58 228 -103 416 -101 419 3 2 44 -5 93 -16 232 -54
447 -81 718 -88 410 -12 791 43 1175 169 l105 35 153 -77 152 -76 -46 -75
c-107 -172 -120 -243 -60 -322 40 -51 122 -111 185 -133 71 -24 503 -33 594
-11 132 31 238 101 308 202 47 68 94 90 249 114 234 35 327 69 397 142 59 62
67 94 70 283 l2 170 66 82 c90 113 163 227 176 275 9 36 7 45 -21 99 -90 174
-72 305 65 469 358 427 513 698 582 1020 25 118 25 416 0 509 -57 211 -223
323 -482 325 -113 1 -168 -18 -225 -80 -53 -57 -72 -104 -104 -249 l-26 -117
-66 -77 c-122 -140 -293 -267 -492 -366 -484 -240 -1227 -448 -2097 -586 -158
-25 -168 -24 -515 32 -469 76 -877 189 -1235 341 -144 62 -399 187 -393 194 2
2 134 -12 293 -31 550 -64 615 -69 900 -69 275 -1 389 8 610 45 1020 171 1858
814 2339 1793 153 313 221 519 435 1326 141 531 172 612 281 720 69 69 234
210 441 378 l126 102 194 -194 c274 -274 456 -401 649 -453 100 -27 244 -22
345 10 91 30 303 156 285 169 -3 2 -37 27 -76 56 -86 62 -215 195 -268 276
-53 80 -91 174 -112 276 -16 78 -16 113 -5 425 15 435 28 675 47 900 26 286
29 478 10 558 -42 179 -133 257 -313 265 -109 5 -182 -6 -365 -58 -75 -21
-152 -42 -171 -45 l-34 -7 -42 164 c-149 578 -189 723 -245 893 -189 569 -400
866 -671 944 -22 7 -95 16 -161 21 -184 14 -264 49 -341 148 -46 60 -69 132
-119 362 -82 380 -143 586 -239 806 -172 398 -479 742 -768 863 -139 57 -294
74 -422 46z m313 -241 c126 -25 232 -84 333 -184 90 -89 138 -161 183 -272 14
-37 26 -68 26 -70 0 -2 -28 23 -62 56 -151 143 -352 270 -493 312 -89 27 -231
25 -317 -4 -174 -60 -361 -241 -552 -534 -77 -118 -105 -184 -166 -384 -29
-93 -55 -174 -59 -180 -4 -8 -14 -9 -28 -3 -22 8 -23 14 -23 106 0 157 37 296
121 466 174 350 490 625 794 690 92 20 149 20 243 1z m-1534 -601 c10 -35 129
-783 125 -787 -2 -2 -125 20 -273 50 -175 34 -319 57 -410 64 -263 20 -302 33
-535 166 -80 46 -180 96 -221 110 -219 78 -285 106 -505 212 -132 63 -241 116
-242 117 -2 1 5 20 14 43 l16 42 1013 0 c956 0 1013 -1 1018 -17z m-1709 -948
c-100 -167 -123 -356 -60 -490 45 -95 167 -210 286 -269 203 -100 330 -83 488
68 214 206 271 372 196 572 -13 34 -35 80 -49 103 -30 46 -32 55 -12 48 32
-13 360 -48 656 -72 375 -30 534 -48 695 -80 225 -45 403 -106 574 -197 110
-59 93 -67 172 80 28 51 54 90 59 87 4 -3 104 -158 221 -345 594 -946 721
-1142 958 -1479 225 -319 292 -431 393 -659 336 -759 415 -1815 222 -2977
-161 -973 -570 -1782 -1220 -2416 -158 -153 -284 -256 -429 -351 -325 -213
-682 -342 -1116 -403 -179 -26 -612 -31 -844 -11 -857 74 -1728 321 -2670 757
-85 39 -155 74 -155 78 0 3 28 26 61 50 33 24 57 47 52 51 -10 9 -293 114
-348 129 -22 6 -92 16 -155 21 -325 27 -489 121 -900 516 -80 76 -172 162
-205 190 -55 47 -426 332 -451 347 -7 4 -68 -146 -170 -413 -150 -396 -160
-418 -171 -391 -23 54 -553 1575 -550 1578 2 1 187 -160 411 -358 225 -198
411 -358 414 -355 2 3 -93 135 -212 295 -460 615 -599 824 -761 1146 -183 363
-287 676 -346 1040 -30 188 -37 558 -14 755 79 685 360 1286 812 1736 142 142
273 247 476 383 579 386 1094 648 1572 801 160 51 675 178 1050 260 575 125
1100 236 1103 235 1 -1 -13 -28 -33 -60z m-4102 -983 c98 -33 180 -62 182 -64
2 -1 5 -28 6 -59 l4 -56 -319 -282 c-175 -155 -320 -281 -321 -279 -2 2 -20
83 -40 181 -36 177 -46 312 -29 382 20 85 95 179 179 225 61 33 128 23 338
-48z m10562 -1581 c136 -63 160 -207 110 -673 -40 -370 -35 -457 75 -1228 32
-228 62 -450 66 -492 l6 -78 -61 0 c-412 0 -719 277 -889 801 -61 186 -122
515 -122 657 0 91 -15 78 -70 -65 -68 -178 -112 -262 -169 -323 -56 -60 -144
-102 -223 -108 l-57 -4 -5 33 c-4 19 -20 126 -36 239 -17 113 -55 351 -86 529
-30 178 -53 326 -50 328 2 3 220 67 483 143 263 77 566 166 673 199 217 67
284 75 355 42z m-1682 -8258 c54 -27 107 -138 107 -224 0 -42 -5 -55 -35 -87
-19 -22 -63 -54 -97 -73 -59 -32 -68 -34 -153 -32 -73 1 -277 30 -417 59 -28
6 -27 7 74 125 55 66 120 136 143 154 109 90 284 126 378 78z m-943 -430 c63
-17 232 -85 337 -136 l72 -34 -44 -32 c-153 -110 -330 -146 -578 -116 -194 23
-182 13 -141 118 81 210 158 254 354 200z m-1234 -1377 c55 -159 25 -255 -131
-424 -142 -153 -318 -267 -475 -307 -207 -52 -449 -16 -707 105 l-103 48 66
188 c36 104 66 189 67 189 1 1 92 -9 202 -21 399 -46 596 -26 755 77 100 65
154 124 245 274 l18 29 20 -44 c10 -25 30 -76 43 -114z m-3047 -1047 c90 -24
164 -59 213 -99 20 -17 78 -91 127 -165 167 -246 270 -377 405 -511 107 -107
158 -148 276 -226 162 -106 262 -202 330 -317 155 -261 127 -456 -83 -589 -93
-58 -168 -85 -473 -166 -553 -146 -696 -169 -791 -127 -81 37 -92 115 -43 307
17 65 32 119 33 120 1 1 67 -11 147 -27 79 -15 146 -26 148 -24 2 2 -54 33
-125 69 -185 96 -296 179 -469 351 -159 158 -269 297 -374 471 l-61 100 142
255 c230 411 335 576 387 603 28 15 94 7 211 -25z"/>
<path d="M3786 15514 c-156 -21 -248 -78 -331 -208 -59 -92 -89 -195 -88 -306
0 -152 19 -191 247 -495 70 -93 142 -201 161 -239 42 -83 44 -123 15 -318 -28
-193 -89 -560 -93 -564 -2 -2 -613 113 -1358 256 -745 143 -1361 259 -1369
257 -17 -3 394 -180 652 -281 1711 -668 3399 -932 5063 -790 312 26 888 106
910 125 5 6 1 9 -10 9 -44 1 -3726 358 -3730 362 -5 5 130 717 139 725 3 3
151 -17 328 -46 531 -85 768 -107 879 -81 280 65 442 338 374 629 -34 145
-165 341 -337 507 -365 351 -930 530 -1452 458z"/>
<path d="M7793 14461 c-231 -84 -370 -333 -305 -548 49 -159 216 -344 398
-439 76 -39 108 -42 195 -14 169 52 379 259 426 419 22 76 6 169 -47 277 -70
142 -224 265 -390 309 -78 21 -213 19 -277 -4z"/>
<path d="M1007 13570 c-12 -48 -27 -226 -39 -462 -32 -645 74 -1423 267 -1963
61 -172 215 -482 310 -625 204 -306 439 -540 748 -744 376 -248 755 -394 1197
-463 146 -23 641 -26 790 -5 727 102 1474 418 2058 869 540 419 951 976 1176
1596 25 69 82 247 126 394 45 147 95 310 112 361 16 52 26 97 22 102 -16 14
-78 30 -85 23 -4 -5 -30 -66 -57 -138 -163 -426 -374 -840 -567 -1110 -277
-388 -685 -792 -1092 -1081 -818 -580 -1871 -815 -2707 -603 -164 41 -283 87
-471 179 -298 146 -540 318 -854 609 l-114 106 39 8 c159 33 449 79 564 88
235 20 420 -9 625 -96 99 -43 110 -45 198 -45 51 0 239 14 417 31 398 39 756
45 925 16 140 -25 272 -62 400 -113 109 -44 363 -119 373 -110 6 7 -140 101
-264 170 -543 304 -1114 394 -1714 270 -120 -25 -210 -21 -325 14 -166 51
-207 57 -400 56 -205 -1 -318 -19 -576 -94 -124 -36 -154 -41 -215 -38 -81 5
-173 43 -198 80 -24 37 -234 539 -309 739 -186 497 -242 775 -307 1539 -35
409 -43 479 -53 440z"/>
<path d="M23931 17385 c-126 -35 -273 -138 -377 -263 -172 -206 -331 -528
-430 -866 -22 -78 -33 -102 -36 -85 -29 127 -89 436 -94 482 -4 31 -12 57 -18
57 -6 0 -89 -20 -186 -44 -463 -118 -859 -169 -1305 -169 -341 0 -579 25 -844
88 -57 14 -106 23 -109 20 -7 -6 35 -118 71 -190 129 -257 356 -439 640 -514
121 -32 235 -43 382 -39 l135 3 0 -66 0 -66 -112 -12 c-821 -88 -1622 -312
-2265 -634 -70 -36 -167 -81 -216 -101 -312 -129 -700 -359 -987 -586 -638
-505 -1044 -1107 -1216 -1805 -67 -274 -78 -380 -79 -755 0 -299 3 -352 23
-490 30 -197 48 -282 68 -323 25 -47 243 -399 349 -562 l91 -140 2 -103 c4
-292 154 -857 424 -1597 159 -436 361 -928 502 -1221 67 -139 74 -158 80 -235
60 -731 296 -1413 701 -2024 91 -138 148 -209 113 -140 -65 124 -232 560 -301
785 -75 244 -187 650 -207 750 -18 96 -28 171 -78 600 -12 109 -16 233 -17
500 0 357 8 472 48 710 l13 74 28 -64 c158 -366 529 -686 1026 -885 l95 -39
177 -4 c136 -3 200 -1 280 13 173 28 350 97 487 189 29 20 59 36 66 36 7 0 48
-16 91 -36 117 -54 378 -138 554 -177 l155 -35 113 -75 c207 -138 506 -278
789 -371 847 -276 1769 -269 2749 20 248 73 644 218 630 231 -2 2 -21 -3 -42
-12 -76 -32 -411 -124 -579 -158 -207 -43 -452 -80 -685 -104 -220 -21 -812
-25 -1030 -5 -551 50 -1083 164 -1560 335 -69 25 -169 61 -224 81 -96 34 -137
55 -85 43 48 -12 331 -45 489 -58 197 -17 840 -17 1065 0 440 31 871 82 1001
116 366 99 762 333 1083 641 672 645 1064 1631 1143 2876 l12 187 30 7 c105
22 242 135 329 271 50 77 147 268 147 290 0 7 2 13 4 13 2 0 73 -69 157 -154
157 -156 249 -231 374 -303 312 -180 607 -160 836 55 43 41 79 80 79 87 0 7
-26 22 -58 33 -127 47 -261 153 -342 272 -213 314 -282 852 -190 1490 24 161
25 262 6 362 -40 201 -118 294 -260 305 -94 8 -153 -10 -340 -102 -145 -72
-364 -165 -387 -165 -3 0 -9 96 -12 213 -9 348 -64 603 -187 864 -197 416
-518 664 -975 753 -58 11 -130 20 -159 20 l-53 0 -33 113 c-123 421 -311 868
-485 1158 -162 267 -454 523 -705 614 -63 23 -95 28 -195 31 -86 3 -135 0
-174 -11z m-1097 -847 c37 -232 166 -666 222 -750 19 -27 34 -52 34 -54 0 -2
-268 -4 -595 -4 -506 0 -595 2 -595 14 0 8 10 40 22 71 24 64 19 75 -39 75
-53 0 -312 47 -435 79 -211 55 -374 128 -474 215 -39 33 -104 139 -93 150 3 3
82 10 175 16 878 53 1501 130 1699 208 70 28 72 27 79 -20z m1408 -948 l45
-109 -41 4 c-23 3 -76 7 -119 11 l-77 6 39 44 c21 24 52 69 67 99 16 30 32 55
35 55 3 0 26 -49 51 -110z m-692 -60 c257 -12 493 -32 479 -40 -6 -4 49 -10
123 -14 73 -4 136 -10 140 -14 4 -4 25 -44 48 -89 23 -46 49 -87 60 -93 10 -5
74 -94 142 -197 123 -185 366 -515 490 -665 226 -273 381 -442 450 -490 113
-79 273 -246 356 -372 255 -386 401 -936 442 -1656 6 -102 15 -263 20 -357 15
-263 12 -734 -5 -917 -73 -764 -288 -1392 -667 -1953 -457 -676 -1192 -1117
-2043 -1228 -455 -59 -1021 -27 -1526 85 -49 11 -185 36 -304 55 -243 39 -467
86 -692 145 -163 43 -434 128 -511 161 -42 18 -122 83 -122 99 0 4 25 12 55
19 31 7 93 25 138 41 l82 29 -100 -6 c-103 -6 -365 11 -445 28 -144 31 -673
224 -772 282 -168 98 -428 344 -536 505 -34 51 -62 89 -62 83 0 -14 69 -221
82 -246 l11 -20 -24 20 c-12 11 -38 35 -57 53 -18 18 -37 30 -42 27 -4 -3 -11
6 -14 19 -4 16 -24 33 -61 52 -54 28 -55 30 -36 45 19 16 15 20 -97 115 -320
272 -687 684 -927 1039 -86 129 -97 148 -61 116 14 -14 26 -22 26 -18 0 14
-87 145 -122 184 -42 48 -146 248 -218 424 -159 387 -243 816 -226 1154 33
639 284 1209 784 1775 154 175 531 535 707 675 177 142 421 293 684 425 627
313 1293 510 2149 634 l43 6 -20 -38 c-40 -78 -54 -150 -49 -249 5 -82 10
-103 41 -167 167 -336 627 -337 793 -2 31 64 37 87 42 164 7 134 -25 243 -98
326 l-30 34 112 7 c343 23 912 25 1368 5z m-1861 -84 c66 -68 47 -169 -39
-213 -54 -28 -104 -29 -150 -4 -74 39 -102 130 -61 198 17 28 26 32 78 38 32
4 63 8 68 10 37 13 73 3 104 -29z m3478 -896 c124 -148 412 -530 361 -480 -47
47 -368 444 -497 615 -77 102 -79 106 -26 50 31 -33 104 -116 162 -185z m2315
-881 c114 -24 191 -86 223 -178 12 -36 15 -99 15 -320 0 -634 64 -1130 186
-1459 49 -129 81 -192 147 -284 l56 -78 -77 0 c-213 0 -447 74 -617 195 -83
60 -213 196 -270 283 -140 217 -221 502 -247 872 -5 60 -110 -297 -117 -395
l-6 -80 -150 -42 c-82 -23 -155 -42 -160 -42 -6 -1 -60 155 -120 347 -60 191
-137 429 -170 530 l-60 183 25 5 c267 60 552 179 860 359 121 71 167 87 300
108 52 9 131 7 182 -4z m-9896 -3579 c332 -481 704 -918 949 -1115 60 -49 84
-74 80 -85 -4 -8 -22 -69 -41 -135 -62 -216 -120 -539 -143 -801 -6 -66 -20
-124 -51 -212 -23 -67 -46 -122 -49 -122 -4 0 -204 597 -446 1328 -241 730
-440 1332 -442 1337 -7 19 37 -41 143 -195z"/>
<path d="M20088 14714 c-473 -85 -606 -426 -306 -783 76 -90 210 -201 325
-267 l84 -49 -5 -95 c-14 -226 -18 -618 -7 -704 6 -49 9 -92 6 -94 -2 -2 -125
3 -272 12 -717 44 -1473 114 -2111 196 -128 17 -236 30 -240 29 -24 -2 375
-143 596 -210 1158 -352 2437 -472 3767 -354 538 48 1113 145 1600 270 233 60
340 93 310 94 -11 1 -101 -6 -200 -14 -626 -52 -1180 -68 -2077 -62 -655 4
-1263 21 -1278 34 -3 3 -5 107 -4 231 0 167 5 256 18 336 18 110 50 231 64
240 4 2 57 -13 119 -34 561 -194 1124 -116 1263 175 37 78 40 199 7 292 -121
349 -644 679 -1200 758 -127 18 -357 18 -459 -1z m347 -325 c59 -15 95 -49 95
-90 0 -80 -154 -137 -257 -94 -53 22 -73 44 -73 77 0 41 15 65 53 85 63 32
115 39 182 22z"/>
<path d="M23900 14135 c-391 -110 -439 -661 -72 -842 64 -32 85 -37 162 -41
205 -10 368 97 441 289 82 215 -16 461 -225 565 -66 32 -86 37 -163 40 -59 3
-106 -1 -143 -11z m148 -185 c129 -79 71 -260 -83 -260 -59 0 -106 25 -135 72
-57 94 17 208 135 208 32 0 62 -7 83 -20z"/>
<path d="M17637 12765 c-4 -27 -9 -169 -13 -315 -5 -213 -3 -298 11 -430 48
-477 189 -978 407 -1454 513 -1120 1454 -1643 2698 -1501 249 29 589 107 804
186 202 74 614 297 860 465 856 588 1362 1405 1456 2353 17 176 8 608 -12 546
-4 -11 -12 -76 -18 -145 -14 -154 -34 -239 -114 -478 -242 -725 -577 -1301
-1010 -1737 -171 -172 -225 -220 -372 -329 -402 -299 -818 -481 -1334 -586
-287 -58 -444 -73 -685 -67 -824 21 -1494 422 -1969 1177 -75 119 -213 386
-276 534 -199 470 -350 1082 -400 1626 -7 69 -15 143 -19 165 l-8 40 -6 -50z"/>
<path d="M20590 10458 c-136 -12 -365 -61 -511 -107 l-126 -41 -74 15 c-41 8
-148 18 -239 21 -320 12 -615 -52 -880 -192 -152 -81 -151 -87 10 -43 473 131
798 153 1025 72 78 -28 107 -45 148 -82 32 -29 4 -35 220 48 59 23 167 57 240
75 287 74 456 89 917 84 394 -3 387 -7 145 67 -274 83 -575 112 -875 83z"/>
<path d="M27480 9339 c-57 -10 -194 -53 -219 -68 -9 -6 -17 -42 -22 -107 -16
-192 -61 -398 -125 -573 -46 -126 -168 -373 -239 -486 -139 -219 -380 -507
-550 -656 -58 -51 -105 -94 -105 -96 0 -6 101 59 180 116 184 132 340 286 491
487 217 289 405 679 507 1051 l38 137 34 8 c46 10 114 1 172 -24 61 -26 157
-126 197 -207 31 -60 32 -68 32 -181 -1 -400 -206 -798 -622 -1206 -174 -170
-364 -322 -575 -462 -34 -22 92 -3 191 29 160 53 326 162 485 321 l91 89 14
-35 c69 -164 66 -342 -7 -464 -81 -134 -263 -234 -505 -278 l-78 -14 125 6
c69 3 169 13 223 23 l97 18 2 -26 c5 -83 -19 -195 -59 -274 -53 -106 -160
-188 -289 -222 -61 -16 -216 -22 -314 -12 l-55 6 48 -11 c45 -11 47 -13 47
-47 0 -56 -41 -130 -106 -192 -51 -47 -71 -59 -144 -82 -189 -59 -327 -61
-434 -8 -64 32 -183 135 -187 161 -6 57 39 104 164 166 80 41 105 48 203 60
188 23 308 70 427 166 123 99 177 197 177 321 0 186 -184 287 -515 286 l-120
-1 80 -13 c154 -24 248 -60 315 -121 84 -76 94 -165 31 -290 -60 -119 -99
-159 -177 -183 -121 -38 -241 -54 -414 -54 -177 -1 -288 11 -469 49 -63 13
-116 22 -118 20 -10 -9 161 -76 195 -76 26 0 52 -9 77 -26 21 -14 77 -34 128
-46 75 -18 88 -23 72 -32 -67 -39 -144 -109 -172 -156 -28 -45 -33 -64 -33
-115 0 -89 19 -114 117 -153 203 -80 385 -112 530 -92 217 29 372 138 466 330
l42 85 80 -7 c164 -14 312 18 392 86 44 37 82 118 89 192 7 67 -9 180 -37 261
l-18 53 74 34 c90 41 160 105 191 171 29 61 32 173 8 256 -20 67 -75 179 -119
240 l-33 47 40 48 c148 177 300 410 419 639 79 151 80 155 95 272 20 152 15
449 -10 538 -42 153 -128 262 -241 304 -69 26 -192 35 -275 20z"/>
<path d="M21780 6360 c25 -30 88 -100 140 -154 317 -330 713 -602 1095 -751
66 -26 135 -54 154 -62 46 -21 275 -77 391 -97 462 -77 974 -21 1450 160 63
24 189 80 280 124 171 84 402 211 396 217 -2 2 -39 -14 -82 -36 -304 -151
-834 -292 -1256 -336 -170 -17 -518 -20 -669 -5 -428 43 -836 172 -1184 375
-227 133 -381 252 -605 470 -88 86 -135 126 -110 95z"/>
<path d="M2957 6300 c-382 -48 -706 -356 -772 -735 -16 -91 -19 -256 -6 -290
6 -16 13 -9 43 45 19 36 75 137 122 225 143 261 234 363 401 446 232 115 477
82 761 -102 153 -100 280 -204 414 -338 300 -302 515 -642 765 -1211 38 -85
70 -157 72 -159 1 -2 23 4 48 14 34 13 45 21 40 33 -3 8 -50 146 -104 306
-140 412 -167 471 -337 742 -332 530 -526 741 -820 891 -215 110 -435 157
-627 133z"/>
<path d="M20288 6144 c-210 -50 -420 -251 -587 -559 -17 -33 -24 -49 -14 -35
155 213 295 321 473 366 93 24 239 15 345 -21 195 -65 379 -189 594 -399 233
-229 435 -480 676 -840 158 -238 167 -216 25 63 -523 1033 -1057 1536 -1512
1425z"/>
<path d="M23169 5178 c158 -331 262 -639 318 -938 14 -73 18 -145 17 -310 0
-189 -3 -225 -22 -295 -47 -170 -140 -322 -259 -420 -110 -91 -312 -177 -517
-219 -174 -36 -499 -39 -776 -6 -136 16 -137 17 -144 54 -6 31 -10 34 -66 46
-55 12 -60 15 -60 39 0 51 -104 430 -115 419 -2 -2 7 -46 20 -98 78 -303 115
-545 115 -758 0 -164 -14 -250 -56 -342 -29 -66 -105 -145 -150 -156 -44 -11
-251 3 -367 26 -196 38 -472 145 -677 262 -209 120 -368 241 -590 451 -163
155 -260 263 -411 462 -55 72 -133 168 -175 215 -146 164 -251 345 -294 505
-58 216 -28 362 103 502 78 83 165 143 208 143 111 0 461 -85 641 -156 173
-68 228 -104 427 -278 23 -20 23 -20 13 -1 -15 29 -119 127 -172 161 -25 16
-83 57 -129 92 -169 126 -438 277 -582 326 -215 73 -364 66 -485 -22 -128 -93
-204 -331 -204 -639 l0 -133 80 -157 c170 -337 381 -630 652 -909 430 -441
921 -739 1486 -900 119 -34 161 -50 172 -66 62 -91 375 -435 467 -514 243
-209 492 -335 760 -384 161 -30 185 -26 88 14 -375 154 -714 398 -941 676 -59
72 -124 167 -124 180 0 4 29 2 64 -3 56 -8 68 -6 107 14 105 53 170 136 216
272 25 77 27 93 27 275 l1 193 115 -8 c63 -5 199 -8 301 -7 l187 0 32 -73 c40
-92 128 -225 214 -325 137 -160 345 -314 576 -425 173 -84 254 -136 330 -214
150 -154 163 -304 44 -501 -48 -79 -177 -208 -274 -272 -149 -100 -327 -183
-539 -252 -118 -38 -154 -44 -71 -11 48 19 52 22 28 25 -15 2 -74 -6 -130 -17
-156 -30 -182 -32 -237 -20 -141 30 -195 149 -158 344 8 44 19 88 23 99 6 17
5 17 -17 6 -13 -8 -52 -41 -87 -76 -81 -81 -116 -154 -116 -244 -1 -266 288
-352 717 -214 221 72 498 207 780 383 322 200 460 445 377 666 -35 91 -152
203 -287 273 -274 142 -505 334 -679 564 -75 101 -186 279 -188 305 -1 10 36
24 129 48 265 67 433 152 575 291 l65 63 94 -35 c141 -53 248 -74 406 -81 224
-9 396 32 580 138 146 83 266 221 364 418 71 142 86 201 86 341 0 119 -1 128
-31 190 -57 121 -146 205 -289 275 -49 25 -103 48 -119 51 l-28 7 8 -54 c5
-30 9 -117 9 -194 0 -136 -1 -142 -31 -206 -52 -110 -121 -164 -246 -194 -128
-30 -296 -11 -505 56 l-122 40 -7 37 c-37 217 -155 548 -264 740 -17 31 -61
111 -97 177 -63 115 -241 405 -248 405 -2 0 27 -64 64 -142z m1617 -917 c145
-107 201 -256 159 -421 -53 -211 -218 -401 -430 -495 -155 -68 -345 -105 -549
-105 l-138 0 -100 47 c-74 35 -98 51 -94 62 2 9 16 44 31 79 25 61 49 160 60
252 l6 45 82 -7 c127 -10 318 -9 423 3 348 38 524 174 524 403 0 40 -6 94 -14
119 -8 26 -11 47 -7 47 5 0 26 -13 47 -29z"/>
<path d="M1830 4383 c1 -4 44 -37 98 -73 119 -80 379 -274 487 -365 565 -472
942 -978 1152 -1543 19 -53 40 -101 45 -107 14 -14 1 142 -24 295 -120 738
-709 1450 -1418 1713 -131 48 -340 98 -340 80z"/>
<path d="M19223 4284 c28 -28 192 -106 258 -123 270 -68 693 -387 1124 -847
117 -124 154 -172 221 -284 83 -137 136 -236 160 -300 l14 -35 -6 35 c-13 77
-89 282 -149 405 -280 575 -769 953 -1449 1121 -134 33 -186 41 -173 28z"/>
</g>
</svg>
