<?xml version="1.0" standalone="no"?>
<!DOCTYPE svg PUBLIC "-//W3C//DTD SVG 20010904//EN"
 "http://www.w3.org/TR/2001/REC-SVG-20010904/DTD/svg10.dtd">
<svg version="1.0" xmlns="http://www.w3.org/2000/svg"
 width="1079.000000pt" height="307.000000pt" viewBox="0 0 1079.000000 307.000000"
 preserveAspectRatio="xMidYMid meet">
<metadata>
Created by potrace 1.16, written by Peter Selinger 2001-2019
</metadata>
<g transform="translate(0.000000,307.000000) scale(0.100000,-0.100000)"
fill="#000000" stroke="none">
<path d="M660 2246 l0 -474 80 -7 80 -7 0 -39 0 -38 -145 -3 -145 -3 -3 -692
-2 -692 80 -6 c44 -3 339 -5 656 -3 l576 3 88 44 c146 72 252 195 313 363 l27
73 5 450 5 450 200 -1 c110 -1 176 0 148 3 l-53 4 0 44 0 44 53 4 c42 3 37 4
-25 5 l-78 2 -3 198 -2 197 -3 -197 -2 -198 -45 0 -45 0 0 179 c0 196 -13 289
-53 388 -57 141 -165 261 -290 324 -44 21 -91 40 -106 41 -16 0 -9 4 19 8 25
4 -264 8 -642 8 l-688 2 0 -474z m1116 -11 c89 -52 123 -147 124 -347 l0 -116
75 -7 75 -7 0 -39 0 -39 -150 0 -150 0 0 -358 c0 -389 -4 -420 -54 -487 -15
-19 -48 -47 -74 -62 -47 -28 -48 -28 -259 -31 l-213 -4 0 86 0 86 100 0 100 0
0 50 0 50 -100 0 -100 0 0 325 0 325 150 0 150 0 0 55 0 55 -130 0 -130 0 0
248 0 248 273 -4 c263 -4 273 -5 313 -27z m-636 -900 l0 -335 100 0 100 0 0
-40 0 -40 -100 0 -100 0 0 -95 0 -95 -45 0 -45 0 0 470 0 470 45 0 45 0 0
-335z"/>
<path d="M2960 2246 l0 -474 80 -7 80 -7 0 -39 0 -39 -150 0 -150 0 0 -700 0
-700 265 0 265 0 0 694 0 694 203 -3 c111 -2 178 -1 150 2 l-53 4 0 44 0 44
53 4 c42 3 37 4 -25 5 l-78 2 0 475 0 475 -320 0 -320 0 0 -474z m630 -6 l0
-470 -45 0 -45 0 0 470 0 470 45 0 45 0 0 -470z"/>
<path d="M4444 2706 c-163 -51 -323 -204 -397 -382 -57 -135 -73 -350 -36
-501 l12 -51 83 -7 c73 -6 83 -10 87 -29 2 -11 8 -29 12 -39 7 -17 -1 -18
-139 -15 -94 2 -146 -1 -146 -7 0 -18 72 -118 116 -160 56 -55 151 -111 238
-140 121 -40 261 -57 526 -62 282 -6 299 -10 373 -93 50 -55 67 -103 67 -186
0 -140 -63 -225 -201 -270 -48 -16 -109 -18 -586 -22 l-533 -3 0 -50 0 -49
-105 0 -105 0 0 -35 0 -35 108 0 107 0 -3 -145 -3 -145 643 0 c705 0 700 0
823 60 173 85 300 247 356 456 31 113 31 335 0 449 -36 136 -101 254 -190 344
l-77 79 193 -6 c111 -3 193 -1 193 4 0 5 -21 8 -47 6 -41 -3 -62 4 -135 42
l-87 45 42 4 c52 4 -117 12 -190 9 -29 -2 -87 4 -130 13 -63 13 -128 16 -344
13 l-266 -3 -48 30 c-32 20 -57 45 -73 75 -21 40 -23 55 -20 128 5 91 18 119
78 160 64 43 89 45 638 43 l522 -2 0 245 0 246 -657 -1 c-502 0 -668 -3 -699
-13z m1346 -231 l0 -235 -45 0 -45 0 0 235 0 235 45 0 45 0 0 -235z"/>
<path d="M6860 2692 c-177 -64 -320 -192 -400 -357 -60 -125 -71 -177 -77
-381 l-6 -182 82 -7 81 -7 0 -39 0 -39 -150 0 -150 0 0 -65 0 -65 -90 0 -90 0
0 -50 0 -50 89 0 89 0 4 -297 c3 -296 4 -299 31 -378 88 -251 283 -428 530
-479 108 -23 596 -23 682 -1 247 64 423 253 488 524 l22 91 49 0 c27 0 47 3
44 6 -4 3 -146 8 -316 10 l-310 5 -17 -49 c-26 -70 -65 -124 -106 -145 -39
-19 -326 -43 -377 -31 -48 11 -109 53 -141 96 -58 79 -61 104 -61 505 l0 363
45 0 45 0 0 -335 0 -335 105 0 105 0 0 -35 0 -35 -100 0 c-55 0 -100 -3 -100
-7 0 -5 47 -7 105 -5 l105 3 0 45 0 44 -105 0 -105 0 0 325 0 325 148 2 c81 1
123 3 95 5 l-53 4 0 44 0 44 53 4 c28 2 -6 4 -77 5 l-128 2 4 153 c4 171 16
211 83 285 64 71 99 79 359 74 l139 -2 44 -45 c30 -32 48 -62 60 -104 l17 -59
66 -6 c36 -3 156 -6 266 -6 l202 0 -15 76 c-52 278 -220 476 -472 554 l-95 30
-311 -1 -310 0 -75 -27z"/>
<path d="M9100 2701 c-187 -60 -336 -192 -425 -376 -59 -121 -75 -207 -75
-399 l0 -154 78 -7 77 -7 -3 -39 -4 -39 -144 0 -144 0 0 -90 0 -90 -95 0 -95
0 0 -45 0 -45 95 0 95 0 0 -257 c0 -283 7 -332 60 -449 85 -189 251 -336 450
-400 81 -26 603 -33 703 -10 192 45 365 182 461 365 70 135 70 132 76 591 l5
415 48 3 47 3 2 -363 3 -363 2 358 3 357 79 0 c107 0 111 2 111 61 0 45 -2 49
-25 49 l-25 0 -3 163 -3 162 -2 -162 -2 -163 -44 0 -44 0 -5 178 c-5 201 -17
255 -77 377 -72 146 -173 246 -325 320 -49 24 -110 48 -135 52 l-45 8 45 6
c25 3 -115 6 -310 7 -315 1 -361 -1 -410 -17z m597 -438 c42 -19 90 -74 117
-132 18 -39 21 -70 24 -203 l4 -156 77 -7 76 -7 -3 -39 -4 -39 -143 0 -144 0
-3 -373 -3 -372 -33 -67 c-63 -128 -123 -156 -347 -160 -148 -3 -151 -3 -197
24 -25 15 -60 47 -77 70 -58 79 -61 104 -61 505 l0 363 45 0 45 0 0 -325 0
-325 70 0 70 0 0 -30 c0 -29 0 -29 -67 -33 l-68 -3 73 -2 72 -2 0 40 0 40 -70
0 -70 0 0 315 0 315 150 0 150 0 0 55 0 55 -131 0 -131 0 4 153 c4 169 15 209
78 281 65 73 115 86 315 79 102 -4 160 -10 182 -20z"/>
</g>
</svg>
