<?xml version="1.0" standalone="no"?>
<!DOCTYPE svg PUBLIC "-//W3C//DTD SVG 20010904//EN"
 "http://www.w3.org/TR/2001/REC-SVG-20010904/DTD/svg10.dtd">
<svg version="1.0" xmlns="http://www.w3.org/2000/svg"
 width="533.000000pt" height="794.000000pt" viewBox="0 0 533.000000 794.000000"
 preserveAspectRatio="xMidYMid meet">
<metadata>
Created by potrace 1.16, written by Peter Selinger 2001-2019
</metadata>
<g transform="translate(0.000000,794.000000) scale(0.100000,-0.100000)"
fill="#000000" stroke="none">
<path d="M1099 7780 c-244 -28 -456 -127 -621 -293 -146 -145 -256 -363 -284
-559 l-6 -48 1032 0 1032 0 -7 43 c-4 23 -18 79 -31 125 -90 310 -344 575
-654 682 -134 45 -320 66 -461 50z"/>
<path d="M185 6688 c26 -297 192 -594 435 -780 l69 -52 5 -60 c3 -34 37 -855
76 -1826 48 -1196 75 -1787 85 -1830 36 -175 133 -317 248 -365 36 -15 37 -16
37 -70 0 -100 30 -419 55 -581 60 -384 148 -630 267 -746 62 -60 118 -82 200
-76 84 5 145 36 229 116 136 128 264 329 634 1002 224 406 358 612 476 732
165 169 275 167 406 -6 121 -161 226 -429 372 -953 178 -635 335 -961 512
-1058 69 -38 151 -40 218 -6 217 112 398 506 636 1385 25 93 44 170 43 171 -4
4 -162 44 -164 42 -1 -1 -22 -79 -48 -174 -172 -643 -331 -1050 -463 -1193
-85 -92 -138 -91 -221 7 -112 130 -210 386 -371 960 -100 355 -209 640 -316
823 -72 122 -200 250 -280 280 -220 81 -445 -79 -714 -511 -59 -96 -103 -173
-411 -724 -287 -513 -430 -703 -543 -722 -154 -25 -304 491 -343 1172 l-7 120
37 13 c96 35 210 207 240 362 11 54 35 583 86 1855 39 979 73 1798 76 1820 4
36 10 43 56 70 68 39 224 193 278 274 99 148 164 337 176 517 l7 94 -1043 0
-1042 0 7 -82z m1106 -1276 c15 -8 35 -29 45 -46 18 -29 19 -60 19 -576 0
-516 -1 -547 -19 -576 -25 -42 -65 -64 -116 -64 -59 0 -98 24 -121 73 -17 40
-19 73 -19 567 0 494 2 527 19 567 34 75 117 98 192 55z"/>
</g>
</svg>
