<?xml version="1.0" standalone="no"?>
<!DOCTYPE svg PUBLIC "-//W3C//DTD SVG 20010904//EN"
 "http://www.w3.org/TR/2001/REC-SVG-20010904/DTD/svg10.dtd">
<svg version="1.0" xmlns="http://www.w3.org/2000/svg"
 width="2007.000000pt" height="1970.000000pt" viewBox="0 0 2007.000000 1970.000000"
 preserveAspectRatio="xMidYMid meet">
<metadata>
Created by potrace 1.16, written by Peter Selinger 2001-2019
</metadata>
<g transform="translate(0.000000,1970.000000) scale(0.100000,-0.100000)"
fill="#09255b" stroke="none">
<path d="M9556 17581 c-26 -29 -18 -91 15 -110 73 -40 142 54 83 113 -22 22
-77 20 -98 -3z"/>
<path d="M10807 17482 c-23 -25 -21 -78 3 -102 27 -27 66 -25 97 6 20 20 24
31 19 57 -3 18 -14 38 -23 45 -25 18 -77 15 -96 -6z"/>
<path d="M8985 17428 c-49 -26 -58 -69 -24 -112 27 -34 77 -36 107 -3 29 31
28 72 -3 102 -26 27 -49 31 -80 13z"/>
<path d="M11216 17409 c-52 -41 -24 -119 43 -119 46 0 71 24 71 68 0 33 -38
72 -70 72 -10 0 -29 -9 -44 -21z"/>
<path d="M8550 17363 c-23 -30 -21 -65 8 -96 13 -15 26 -18 57 -14 45 6 65 28
65 69 0 66 -88 94 -130 41z"/>
<path d="M8156 17305 c-30 -28 -32 -44 -9 -88 14 -28 17 -30 23 -12 6 18 7 18
12 -3 5 -19 11 -22 35 -16 40 10 52 21 59 61 13 70 -65 109 -120 58z"/>
<path d="M11607 17312 c-25 -28 -22 -87 5 -106 34 -24 73 -20 97 10 12 15 21
34 21 44 0 10 -9 29 -21 44 -25 32 -77 36 -102 8z"/>
<path d="M12011 17207 c-51 -25 -47 -107 5 -127 49 -19 94 11 94 63 0 38 -7
50 -37 66 -27 14 -32 14 -62 -2z"/>
<path d="M9371 17154 c-26 -33 -27 -75 -2 -105 14 -18 29 -24 61 -24 32 0 47
6 61 24 43 53 7 131 -61 131 -30 0 -43 -6 -59 -26z"/>
<path d="M8986 17139 c-20 -16 -26 -29 -26 -59 0 -68 78 -104 131 -61 34 27
33 95 -1 122 -33 24 -71 24 -104 -2z"/>
<path d="M10564 17096 c-59 -50 -25 -136 52 -136 47 0 74 29 74 79 0 72 -72
104 -126 57z"/>
<path d="M12147 16992 c-23 -25 -22 -85 1 -105 25 -23 85 -22 105 1 23 25 22
85 -1 105 -25 23 -85 22 -105 -1z"/>
<path d="M7842 16970 c-12 -5 -26 -20 -31 -32 -8 -19 -2 -31 32 -68 l42 -45
-42 40 c-46 42 -60 30 -22 -19 42 -53 139 -18 139 51 0 29 -51 83 -77 82 -10
0 -28 -4 -41 -9z"/>
<path d="M11900 16930 c-12 -12 -20 -33 -20 -55 0 -22 8 -43 20 -55 12 -12 33
-20 55 -20 22 0 43 8 55 20 12 12 20 33 20 55 0 22 -8 43 -20 55 -12 12 -33
20 -55 20 -22 0 -43 -8 -55 -20z"/>
<path d="M11689 16851 l-24 -20 35 -16 c32 -15 33 -15 6 -10 -36 8 -47 -8 -34
-46 17 -48 86 -60 131 -21 24 21 23 86 -3 112 -26 26 -80 26 -111 1z"/>
<path d="M7655 16765 c-50 -51 -20 -129 53 -133 54 -4 84 22 85 72 2 75 -85
113 -138 61z"/>
<path d="M9565 16758 c-32 -19 -44 -40 -45 -81 0 -75 83 -114 142 -67 82 64
-7 199 -97 148z"/>
<path d="M13120 16747 c-53 -27 -49 -106 6 -127 50 -19 94 11 94 65 0 31 -21
65 -40 65 -5 0 -14 2 -22 5 -7 3 -24 -1 -38 -8z"/>
<path d="M9171 16724 c-47 -60 -10 -144 64 -144 48 0 71 13 83 50 13 35 1 86
-25 106 -10 7 -37 14 -60 14 -33 0 -46 -5 -62 -26z"/>
<path d="M12049 16731 c-30 -24 -32 -83 -3 -111 53 -53 134 -23 134 51 0 50
-27 79 -74 79 -19 0 -44 -8 -57 -19z"/>
<path d="M6284 16708 c-49 -23 -49 -89 -1 -119 31 -18 61 -17 82 3 7 7 -5 8
-35 4 -44 -5 -44 -5 -10 5 55 17 65 24 68 51 2 18 -5 32 -24 47 -29 23 -48 25
-80 9z"/>
<path d="M12870 16690 c-25 -25 -26 -71 -2 -98 40 -48 132 -19 132 42 0 13 -9
35 -21 50 -26 33 -79 36 -109 6z"/>
<path d="M11245 16675 c-17 -16 -25 -35 -25 -60 0 -25 8 -44 25 -60 16 -17 35
-25 60 -25 25 0 44 8 60 25 17 16 25 35 25 60 0 25 -8 44 -25 60 -16 17 -35
25 -60 25 -25 0 -44 -8 -60 -25z"/>
<path d="M11835 16680 c-30 -12 -48 -37 -42 -60 3 -12 1 -18 -5 -14 -21 13 4
-41 30 -65 50 -45 132 -6 131 64 0 61 -57 99 -114 75z"/>
<path d="M12620 16648 c-63 -68 44 -174 110 -108 26 26 27 90 2 113 -27 25
-87 22 -112 -5z"/>
<path d="M9402 16615 c-55 -24 -69 -95 -28 -142 20 -23 32 -28 70 -28 51 0 72
15 84 60 14 49 -4 94 -43 111 -41 17 -42 17 -83 -1z"/>
<path d="M12423 16610 c-45 -18 -58 -95 -23 -130 31 -31 93 -27 119 6 27 34
27 67 -1 98 -26 29 -63 39 -95 26z"/>
<path d="M7543 16600 c-13 -5 -26 -24 -32 -47 -15 -52 -14 -57 14 -87 72 -78
196 32 126 113 -22 25 -75 35 -108 21z"/>
<path d="M11624 16595 c-92 -39 -41 -181 57 -160 40 9 64 40 64 86 0 65 -59
101 -121 74z"/>
<path d="M12162 16540 c-16 -15 -22 -33 -22 -60 0 -53 27 -80 78 -80 50 0 82
32 82 82 0 67 -88 104 -138 58z"/>
<path d="M13217 16512 c-10 -10 -17 -33 -17 -50 0 -85 115 -100 143 -19 7 20
-9 68 -26 79 -23 15 -83 8 -100 -10z"/>
<path d="M7725 16495 c-26 -25 -35 -62 -12 -49 8 5 7 2 -2 -9 -20 -26 1 -65
44 -83 32 -13 39 -13 69 1 61 29 71 114 18 141 -12 6 -19 14 -15 17 3 4 -13 7
-36 7 -31 0 -48 -6 -66 -25z"/>
<path d="M11950 16470 c-27 -27 -35 -65 -20 -101 22 -52 86 -66 134 -28 21 16
26 29 26 64 0 35 -5 48 -26 64 -34 27 -88 27 -114 1z"/>
<path d="M9223 16473 c-61 -12 -85 -112 -38 -158 33 -34 102 -35 133 -2 47 50
36 123 -23 151 -18 9 -37 15 -42 15 -4 -1 -18 -4 -30 -6z"/>
<path d="M12743 16434 c-21 -21 -24 -32 -20 -62 4 -19 12 -42 20 -49 7 -8 30
-16 49 -20 48 -7 88 29 88 80 0 71 -85 103 -137 51z"/>
<path d="M10259 16421 c-21 -22 -29 -39 -29 -66 0 -27 8 -44 29 -66 22 -21 39
-29 66 -29 27 0 44 8 66 29 21 22 29 39 29 66 0 27 -8 44 -29 66 -22 21 -39
29 -66 29 -27 0 -44 -8 -66 -29z"/>
<path d="M11175 16405 c-19 -18 -25 -35 -25 -65 0 -106 150 -128 176 -25 23
90 -86 156 -151 90z"/>
<path d="M6640 16412 c-54 -17 -77 -84 -44 -130 20 -30 30 -28 92 15 47 32 53
39 47 62 -9 35 -60 64 -95 53z"/>
<path d="M7400 16407 c-57 -29 -62 -110 -9 -148 16 -11 29 -16 29 -10 0 6 23
22 51 37 28 14 49 21 45 16 -3 -5 -23 -17 -46 -27 -46 -21 -54 -40 -12 -31 35
9 72 50 72 81 0 74 -65 115 -130 82z"/>
<path d="M11724 16402 c-48 -40 -34 -134 22 -148 30 -8 34 -4 45 38 l8 33 -2
-37 c-2 -21 1 -38 6 -38 43 0 77 72 57 120 -14 33 -40 47 -52 28 -6 -10 -8 -8
-8 5 0 23 -48 22 -76 -1z"/>
<path d="M8479 16369 c-40 -43 -40 -90 1 -131 28 -27 36 -30 73 -25 84 11 115
95 58 156 -22 24 -38 31 -66 31 -28 0 -44 -7 -66 -31z"/>
<path d="M12303 16348 c-48 -23 -54 -112 -10 -143 59 -41 137 -2 137 69 0 67
-64 105 -127 74z"/>
<path d="M9748 16335 c-86 -48 -51 -185 47 -185 81 0 126 103 73 165 -28 32
-83 41 -120 20z"/>
<path d="M10110 16323 c-40 -16 -60 -46 -60 -94 0 -40 4 -51 31 -73 43 -36 91
-35 130 3 58 58 27 156 -51 166 -19 2 -42 2 -50 -2z"/>
<path d="M8679 16261 c-39 -39 -40 -93 -3 -136 21 -25 33 -30 69 -30 63 0 95
32 95 96 0 40 -4 51 -31 73 -43 36 -91 35 -130 -3z"/>
<path d="M13082 16270 c-15 -15 -22 -33 -22 -60 0 -94 133 -108 156 -16 7 28
-18 81 -41 90 -32 12 -71 6 -93 -14z"/>
<path d="M12852 16253 c-16 -6 -42 -56 -42 -81 0 -28 35 -69 64 -74 33 -6 82
15 96 42 16 30 4 86 -23 105 -21 14 -69 19 -95 8z"/>
<path d="M10783 16226 c-61 -28 -74 -107 -24 -157 70 -69 184 -6 165 91 -13
60 -81 92 -141 66z"/>
<path d="M8335 16205 c-19 -18 -25 -35 -25 -68 0 -61 35 -97 95 -97 59 0 95
36 95 96 0 34 -6 48 -27 69 -38 35 -104 35 -138 0z"/>
<path d="M11856 16208 c-47 -40 -42 -121 9 -148 65 -35 135 4 135 74 -1 55
-26 86 -76 93 -33 4 -46 1 -68 -19z"/>
<path d="M9551 16194 c-81 -57 -44 -184 53 -184 77 0 119 57 97 130 -19 63
-97 91 -150 54z"/>
<path d="M12622 16190 c-82 -77 23 -199 112 -129 21 16 26 29 26 64 0 35 -5
48 -26 64 -34 27 -84 27 -112 1z"/>
<path d="M12425 16163 c-65 -16 -88 -101 -40 -148 51 -52 145 -19 147 51 1 49
-12 75 -48 90 -18 8 -35 13 -36 13 -2 -1 -12 -3 -23 -6z"/>
<path d="M13653 16120 c-67 -27 -52 -132 22 -146 74 -14 118 88 59 135 -29 23
-46 25 -81 11z"/>
<path d="M5482 16104 c-50 -35 -10 -134 54 -134 32 0 74 42 74 73 0 31 -36 77
-60 77 -11 0 -26 -12 -34 -27 -8 -16 -15 -24 -16 -20 0 5 5 17 10 28 13 23 2
24 -28 3z"/>
<path d="M12175 16075 c-19 -18 -25 -35 -25 -65 0 -55 34 -90 87 -90 42 1 63
13 81 47 35 64 -6 133 -78 133 -30 0 -47 -6 -65 -25z"/>
<path d="M9413 16059 c-41 -12 -63 -44 -63 -92 0 -52 15 -76 57 -93 46 -20 86
-10 118 28 34 41 33 89 -2 127 -32 35 -65 44 -110 30z"/>
<path d="M9742 16055 c-70 -31 -77 -129 -11 -173 82 -56 185 27 150 120 -19
51 -86 77 -139 53z"/>
<path d="M10915 16058 c-51 -27 -69 -87 -44 -142 11 -24 62 -56 89 -56 27 0
78 32 89 56 42 92 -49 189 -134 142z"/>
<path d="M11964 16028 c-45 -21 -58 -98 -24 -141 40 -51 126 -44 155 12 22 43
19 75 -11 110 -20 25 -33 31 -62 30 -21 0 -47 -5 -58 -11z"/>
<path d="M8731 15996 c-89 -49 -51 -185 52 -186 21 0 48 7 60 15 22 14 22 13
19 -29 -5 -54 8 -79 48 -98 47 -23 99 -10 127 31 31 46 29 84 -6 123 -25 28
-36 33 -74 33 -30 0 -52 -6 -66 -19 -20 -18 -20 -18 -11 14 25 87 -69 160
-149 116z"/>
<path d="M12705 15985 c-33 -32 -34 -93 -2 -122 32 -29 56 -35 94 -22 39 13
69 65 57 102 -20 68 -101 91 -149 42z"/>
<path d="M11218 15961 c-28 -25 -33 -36 -33 -76 0 -60 35 -95 96 -95 53 0 78
14 95 55 19 45 8 90 -28 120 -41 35 -88 33 -130 -4z"/>
<path d="M11754 15951 c-27 -16 -53 -65 -41 -77 2 -2 38 -7 80 -10 42 -4 77
-11 77 -17 0 -6 -29 -7 -75 -4 -67 5 -75 3 -75 -13 0 -11 16 -26 41 -38 44
-22 85 -17 119 13 40 36 29 119 -19 148 -38 22 -68 22 -107 -2z"/>
<path d="M10721 15946 c-28 -16 -50 -52 -51 -84 0 -31 26 -79 49 -92 29 -15
93 -12 118 5 26 18 43 71 36 109 -12 60 -95 94 -152 62z"/>
<path d="M9893 15906 c-41 -19 -56 -48 -51 -101 3 -38 1 -42 -14 -34 -62 33
-138 -18 -138 -93 1 -64 36 -98 102 -98 33 0 34 -1 30 -34 -2 -18 1 -43 7 -54
11 -20 10 -20 -20 -5 -26 13 -38 13 -70 4 -89 -27 -93 -162 -5 -191 71 -23
136 22 136 95 l0 43 45 -5 c39 -5 47 -2 75 25 24 25 30 39 30 75 0 38 -5 49
-32 72 -25 22 -40 26 -74 23 -39 -3 -41 -1 -32 16 6 10 8 34 5 52 -5 32 -5 33
20 23 38 -14 79 -2 108 33 34 41 33 88 -2 128 -33 36 -76 45 -120 26z"/>
<path d="M5165 15885 c-26 -25 -35 -62 -12 -49 9 6 9 5 -1 -8 -20 -25 20 -68
64 -68 73 0 103 88 45 129 -38 28 -66 26 -96 -4z"/>
<path d="M13720 15880 c-31 -31 -27 -93 6 -119 47 -37 103 -22 123 32 13 32
-3 83 -29 97 -31 16 -79 11 -100 -10z"/>
<path d="M7573 15880 c-59 -25 -70 -123 -19 -167 27 -23 104 -34 91 -13 -3 5
0 7 8 4 7 -2 25 4 38 15 34 27 35 110 1 141 -26 25 -86 35 -119 20z"/>
<path d="M13471 15864 c-45 -57 -8 -134 62 -134 52 0 82 29 82 80 0 53 -30 80
-85 80 -30 0 -43 -6 -59 -26z"/>
<path d="M10519 15822 c-27 -24 -33 -37 -33 -71 -1 -33 -4 -40 -16 -35 -34 15
-69 15 -98 0 -93 -48 -57 -186 48 -186 55 0 100 42 100 93 l0 34 49 -5 c59 -5
88 9 107 53 28 68 -10 132 -84 142 -33 4 -44 1 -73 -25z"/>
<path d="M12070 15837 c-71 -36 -62 -151 14 -177 45 -14 80 -4 111 32 70 83
-26 195 -125 145z"/>
<path d="M7746 15769 c-52 -61 -22 -147 57 -165 93 -20 156 99 88 167 -24 23
-38 29 -74 29 -38 0 -49 -5 -71 -31z"/>
<path d="M9394 15753 c-28 -31 -39 -63 -30 -96 19 -76 108 -102 167 -49 69 62
24 172 -72 172 -30 0 -46 -6 -65 -27z"/>
<path d="M12572 15737 c-68 -72 -3 -185 92 -161 64 16 89 112 41 159 -33 34
-102 35 -133 2z"/>
<path d="M6503 15713 c-7 -2 -13 -22 -13 -42 0 -105 137 -138 177 -44 24 59 8
71 -112 87 -22 2 -46 2 -52 -1z"/>
<path d="M12385 15703 c-39 -11 -57 -44 -52 -96 5 -58 22 -77 73 -83 65 -8 69
3 29 85 -20 41 -34 75 -32 78 2 2 23 -26 46 -61 51 -77 71 -79 67 -5 -1 29 -9
56 -18 65 -16 17 -80 26 -113 17z"/>
<path d="M14250 15658 c-45 -49 -9 -128 58 -128 43 0 72 30 72 75 0 22 -8 43
-20 55 -27 27 -83 27 -110 -2z"/>
<path d="M12168 15644 c-15 -8 -32 -23 -38 -35 -10 -18 -5 -23 56 -50 125 -57
126 -57 126 6 0 35 -20 64 -59 84 -29 15 -52 13 -85 -5z"/>
<path d="M14500 15640 c-45 -45 -11 -124 54 -124 42 0 63 17 72 59 13 68 -77
114 -126 65z"/>
<path d="M6970 15633 c0 -14 -2 -15 -9 -4 -12 18 -25 8 -45 -33 -33 -69 14
-141 90 -141 77 0 125 76 90 143 -20 38 -44 52 -90 52 -28 0 -36 -4 -36 -17z"/>
<path d="M14760 15638 c-31 -11 -40 -25 -40 -65 0 -54 49 -85 97 -61 80 39 27
157 -57 126z"/>
<path d="M4381 15614 c-27 -35 -26 -59 4 -89 47 -48 115 -22 115 44 0 70 -77
99 -119 45z"/>
<path d="M6029 15621 l-23 -18 25 -68 c31 -83 53 -97 99 -59 25 21 30 33 30
69 0 36 -5 48 -31 69 -36 31 -68 33 -100 7z"/>
<path d="M9258 15622 c-31 -13 -58 -59 -58 -98 0 -88 107 -128 171 -65 76 76
-12 204 -113 163z"/>
<path d="M6243 15590 c-12 -5 -27 -18 -33 -30 -9 -17 -4 -29 35 -80 54 -70 81
-77 114 -31 25 35 26 64 4 101 -26 44 -71 59 -120 40z"/>
<path d="M8940 15593 c-53 -21 -68 -116 -26 -158 33 -33 69 -40 114 -23 96 36
68 189 -35 187 -21 0 -45 -3 -53 -6z"/>
<path d="M12869 15571 c-46 -46 -35 -117 22 -146 67 -35 139 10 139 87 0 84
-99 121 -161 59z"/>
<path d="M7174 15580 c-31 -12 -64 -63 -64 -98 0 -18 11 -43 26 -61 22 -27 32
-31 74 -31 41 0 54 5 75 27 29 32 34 92 10 117 -8 8 -15 19 -15 24 0 10 -53
33 -74 31 -6 0 -21 -4 -32 -9z"/>
<path d="M10771 15481 c-67 -63 -23 -171 69 -171 33 0 48 6 71 29 23 23 29 38
29 71 0 91 -102 134 -169 71z"/>
<path d="M12457 15500 c-36 -23 -66 -130 -36 -130 5 0 7 -5 3 -11 -15 -25 42
17 98 70 32 32 61 56 63 54 3 -1 1 2 -4 8 -13 16 -102 22 -124 9z"/>
<path d="M9424 15490 c-62 -25 -82 -107 -39 -158 30 -36 66 -47 110 -32 41 14
65 48 65 95 0 47 -14 71 -50 90 -32 17 -54 18 -86 5z"/>
<path d="M12000 15488 c-41 -5 -76 -11 -79 -13 -11 -12 13 -57 39 -70 36 -19
63 -19 99 0 44 22 67 98 28 94 -7 -1 -46 -6 -87 -11z"/>
<path d="M7563 15421 c-50 -31 -61 -100 -24 -147 12 -15 21 -23 21 -18 0 4 5
3 12 -4 17 -17 80 -15 107 5 14 9 21 11 17 5 -13 -22 14 -82 44 -97 44 -23 97
-19 125 9 l23 23 -6 -36 c-5 -34 -4 -35 14 -21 17 14 18 14 6 -2 -28 -35 19
-78 85 -78 49 0 78 21 93 65 10 30 9 41 -7 73 l-18 37 37 0 c45 1 74 26 89 75
26 86 -68 154 -151 110 -10 -5 -25 -26 -35 -47 -18 -37 -18 -40 9 -104 6 -13
1 -15 -22 -11 -20 3 -37 -4 -58 -21 l-30 -26 3 27 c5 35 -29 90 -65 103 -31
12 -79 5 -101 -15 -14 -13 -16 -11 -17 20 -1 72 -87 115 -151 75z"/>
<path d="M13393 15416 c-61 -53 -21 -156 62 -156 21 0 44 9 62 24 61 53 21
156 -62 156 -21 0 -44 -9 -62 -24z"/>
<path d="M5840 15411 c-8 -5 -43 -12 -78 -16 -68 -8 -79 -17 -68 -60 16 -65
104 -88 151 -40 18 18 25 35 25 65 0 22 -5 40 -11 40 -5 0 -7 5 -4 10 7 12 5
12 -15 1z"/>
<path d="M5945 15408 c-32 -18 -44 -40 -45 -79 0 -23 7 -42 19 -53 18 -16 23
-16 82 -1 81 21 92 31 85 69 -13 65 -84 97 -141 64z"/>
<path d="M12048 15384 c-33 -18 -48 -43 -48 -83 0 -50 18 -81 54 -96 46 -20
90 -9 121 27 74 87 -27 207 -127 152z"/>
<path d="M12953 15380 c-35 -21 -51 -69 -38 -112 26 -84 148 -91 182 -10 19
45 9 85 -29 117 -35 30 -72 32 -115 5z"/>
<path d="M14786 15378 c-39 -55 -4 -122 61 -116 66 6 93 76 47 122 -24 25 -90
21 -108 -6z"/>
<path d="M7049 15361 c-48 -49 -35 -126 26 -156 41 -19 58 -19 95 0 37 19 50
43 50 93 0 85 -109 124 -171 63z"/>
<path d="M6220 15357 c-14 -12 -43 -36 -65 -54 -36 -30 -38 -34 -26 -57 27
-50 103 -61 148 -22 23 20 28 32 28 69 0 30 -6 52 -19 66 -24 26 -35 26 -66
-2z"/>
<path d="M12728 15337 c-91 -85 11 -220 122 -162 58 30 61 132 5 169 -37 24
-97 21 -127 -7z"/>
<path d="M11369 15335 c-39 -21 -55 -67 -40 -115 21 -69 103 -92 159 -45 36
30 47 66 32 110 -20 60 -91 83 -151 50z"/>
<path d="M12542 15305 c-39 -17 -65 -69 -56 -114 21 -103 180 -101 200 3 15
82 -66 145 -144 111z"/>
<path d="M12309 15231 c-23 -23 -29 -38 -29 -71 0 -33 6 -48 29 -71 23 -23 38
-29 71 -29 33 0 48 6 71 29 23 23 29 38 29 71 0 33 -6 48 -29 71 -23 23 -38
29 -71 29 -33 0 -48 -6 -71 -29z"/>
<path d="M5015 15240 c-51 -20 -67 -90 -31 -135 17 -21 28 -26 56 -23 l35 3
-53 24 c-29 13 -51 26 -49 28 3 2 31 -8 63 -22 l59 -26 17 22 c21 25 23 77 4
101 -12 16 -58 39 -74 37 -4 0 -16 -4 -27 -9z"/>
<path d="M5228 15234 c-33 -17 -48 -43 -48 -82 0 -53 37 -62 147 -35 30 7 38
47 16 83 -16 27 -26 34 -73 45 -8 2 -27 -3 -42 -11z"/>
<path d="M5439 15221 c-16 -16 -29 -36 -29 -45 0 -15 109 -96 129 -96 24 0 51
41 51 76 0 47 -45 94 -90 94 -22 0 -41 -9 -61 -29z"/>
<path d="M6103 15180 c-42 -17 -44 -40 -12 -100 27 -50 23 -47 -25 15 -15 19
-15 19 -16 -14 0 -25 8 -43 27 -63 52 -55 155 -26 169 48 16 85 -61 147 -143
114z"/>
<path d="M14825 15155 c-52 -51 -20 -125 53 -125 48 0 72 24 72 73 0 71 -76
102 -125 52z"/>
<path d="M11944 15131 c-40 -17 -66 -62 -61 -104 10 -70 63 -105 133 -85 43
12 64 42 64 95 0 73 -71 122 -136 94z"/>
<path d="M6501 15083 c-21 -21 -28 -39 -29 -71 -5 -114 148 -142 188 -36 24
62 -26 134 -93 134 -29 0 -45 -7 -66 -27z"/>
<path d="M14172 15013 c-23 -9 -44 -64 -37 -99 8 -43 38 -64 91 -64 34 0 47 5
63 26 48 61 9 145 -66 143 -21 0 -44 -3 -51 -6z"/>
<path d="M13269 14981 c-23 -23 -29 -38 -29 -71 0 -33 6 -48 29 -71 23 -23 38
-29 71 -29 33 0 48 6 71 29 23 23 29 38 29 71 0 33 -6 48 -29 71 -23 23 -38
29 -71 29 -33 0 -48 -6 -71 -29z"/>
<path d="M14395 14975 c-17 -16 -25 -35 -25 -60 0 -25 8 -44 25 -60 16 -17 35
-25 60 -25 25 0 44 8 60 25 17 16 25 35 25 60 0 25 -8 44 -25 60 -16 17 -35
25 -60 25 -25 0 -44 -8 -60 -25z"/>
<path d="M4973 14962 c-73 -29 -79 -47 -34 -93 49 -48 114 -34 141 31 10 24
10 36 0 60 -15 36 -26 36 -107 2z"/>
<path d="M6253 14940 c-12 -5 -29 -22 -37 -39 -19 -36 -21 -55 -3 -45 9 6 9 4
-1 -8 -11 -14 -11 -22 2 -47 9 -16 24 -35 33 -40 16 -9 16 -10 -3 -11 -12 0
-36 -13 -53 -29 -25 -24 -31 -37 -31 -71 0 -122 178 -137 197 -17 4 28 2 37
-8 37 -11 0 -11 2 -1 9 10 6 6 15 -17 39 -26 29 -27 32 -9 32 34 0 78 53 78
95 0 47 -13 71 -50 90 -32 17 -64 18 -97 5z"/>
<path d="M15105 14898 c-29 -16 -35 -28 -35 -70 0 -71 87 -102 133 -47 37 45
10 114 -48 124 -16 3 -39 0 -50 -7z"/>
<path d="M4021 14874 c-28 -35 -26 -69 4 -99 50 -51 125 -15 125 61 0 63 -89
89 -129 38z"/>
<path d="M6654 14848 c-47 -22 -58 -111 -20 -155 20 -23 32 -28 71 -28 40 0
51 5 76 33 16 18 29 43 29 57 0 38 -19 77 -40 82 -11 3 -20 9 -20 14 0 12 -70
10 -96 -3z"/>
<path d="M12257 14799 c-27 -16 -48 -72 -41 -109 9 -41 56 -80 99 -80 44 0 92
41 101 84 7 38 -15 89 -45 106 -25 13 -91 12 -114 -1z"/>
<path d="M3590 14793 c-51 -19 -68 -84 -30 -118 44 -40 120 -9 120 50 0 42
-52 82 -90 68z"/>
<path d="M13327 14789 c-21 -12 -47 -61 -47 -89 0 -85 103 -130 169 -74 27 22
31 32 31 72 -1 50 -12 72 -47 90 -27 15 -82 15 -106 1z"/>
<path d="M6002 14765 c-42 -18 -65 -69 -52 -115 12 -41 28 -60 51 -60 32 0 28
-15 -4 -17 -35 -3 -73 -38 -83 -78 -9 -34 8 -75 39 -99 23 -17 31 -18 47 -8
16 10 18 9 13 -5 -5 -13 -2 -15 11 -10 10 4 22 7 27 7 6 0 20 11 33 25 l23 25
12 -28 c7 -16 27 -36 44 -45 l32 -16 -28 0 c-18 -1 -40 -12 -58 -30 -56 -57
-30 -151 47 -166 101 -19 166 95 95 166 l-30 29 34 14 c41 17 55 42 55 94 0
85 -111 125 -171 62 -26 -27 -29 -28 -29 -9 0 11 -11 31 -25 45 l-25 25 23 8
c40 16 62 50 62 97 0 75 -72 120 -143 89z"/>
<path d="M14415 14755 c-56 -55 -16 -145 63 -145 60 0 87 27 87 85 0 37 -5 51
-24 66 -34 28 -96 25 -126 -6z"/>
<path d="M4890 14751 c-24 -46 -5 -96 45 -117 49 -20 63 -18 96 15 37 37 41
88 7 95 -47 10 -129 26 -133 26 -2 0 -9 -9 -15 -19z"/>
<path d="M12944 14743 c-69 -13 -94 -118 -41 -170 55 -55 156 -27 171 48 9 46
-17 97 -58 114 -20 8 -39 14 -43 14 -4 -1 -18 -4 -29 -6z"/>
<path d="M5732 14562 c-34 -32 -41 -68 -19 -91 10 -11 10 -13 0 -7 -24 13 -13
-15 16 -45 42 -41 101 -41 143 1 27 28 30 36 25 77 -6 58 -32 84 -89 90 -38 5
-48 1 -76 -25z"/>
<path d="M10439 14531 c-40 -41 -41 -97 0 -140 33 -35 73 -41 121 -16 91 47
53 185 -50 185 -33 0 -48 -6 -71 -29z"/>
<path d="M14666 14509 c-20 -16 -26 -29 -26 -60 0 -54 13 -75 53 -88 61 -21
117 18 117 81 0 77 -83 115 -144 67z"/>
<path d="M8443 14503 c-12 -2 -34 -18 -48 -34 -43 -52 -29 -124 31 -153 51
-24 72 -20 111 19 33 33 35 39 30 81 -5 44 -34 84 -63 84 -7 0 -18 2 -26 4 -7
2 -23 1 -35 -1z"/>
<path d="M3333 14480 c-71 -29 -47 -130 30 -130 41 0 67 26 67 66 0 35 -8 47
-37 63 -25 13 -30 13 -60 1z"/>
<path d="M14924 14480 c-102 -41 -40 -199 62 -160 37 15 53 38 53 80 0 42 -16
65 -53 80 -32 12 -34 12 -62 0z"/>
<path d="M15143 14440 c-35 -15 -56 -55 -49 -95 8 -41 38 -65 82 -65 43 0 73
27 80 71 10 61 -56 113 -113 89z"/>
<path d="M8159 14410 c-26 -26 -30 -36 -27 -77 3 -41 7 -50 37 -70 47 -32 94
-30 126 5 14 15 28 37 31 50 25 96 -96 163 -167 92z"/>
<path d="M5297 14375 c-46 -26 -61 -94 -31 -140 16 -25 61 -45 100 -45 68 0
110 109 63 164 -30 34 -91 44 -132 21z"/>
<path d="M14031 14377 c-31 -18 -50 -54 -51 -95 -1 -81 114 -125 174 -66 35
35 36 101 3 139 -27 32 -90 42 -126 22z"/>
<path d="M13403 14368 c-12 -6 -29 -26 -39 -46 -22 -46 -6 -104 34 -128 l28
-16 -28 -28 c-48 -48 -37 -123 24 -160 28 -17 29 -18 9 -25 -26 -8 -51 -54
-51 -95 0 -21 9 -41 29 -61 53 -52 145 -34 166 32 7 21 8 20 21 -7 8 -16 27
-37 42 -47 19 -11 22 -17 10 -17 -29 0 -58 -49 -58 -97 0 -33 6 -50 25 -68 46
-46 143 -30 164 28 l8 22 7 -22 c21 -65 116 -84 167 -34 64 65 20 171 -72 171
-35 0 -47 -6 -75 -36 -21 -21 -34 -30 -34 -21 0 9 -14 27 -31 42 -17 14 -30
27 -28 29 2 2 14 8 26 15 31 16 47 72 33 116 -6 19 -21 40 -33 46 -12 7 -23
13 -25 14 -2 1 11 16 28 33 42 42 42 101 1 143 -65 64 -171 20 -171 -72 0 -35
6 -47 34 -74 l35 -32 -24 -11 c-14 -6 -27 -23 -31 -37 l-6 -26 -20 31 c-10 18
-28 34 -39 37 -24 7 -25 6 11 41 24 24 30 39 30 73 0 35 -6 47 -36 75 -27 26
-32 35 -21 40 9 3 23 22 32 41 43 90 -50 175 -142 131z"/>
<path d="M4883 14355 c-35 -15 -52 -40 -58 -85 -4 -32 -13 -27 114 -60 52 -14
69 -5 77 38 9 47 -17 95 -60 110 -39 14 -33 14 -73 -3z"/>
<path d="M7919 14331 c-53 -53 -32 -137 39 -160 57 -19 88 -8 112 39 28 55 25
86 -9 121 -23 23 -38 29 -71 29 -33 0 -48 -6 -71 -29z"/>
<path d="M9681 14324 c-63 -52 -28 -154 53 -154 49 0 65 8 82 42 23 45 11 92
-30 117 -44 28 -68 26 -105 -5z"/>
<path d="M9188 14300 c-26 -27 -30 -36 -25 -67 9 -54 38 -78 93 -78 57 0 84
28 84 87 0 83 -92 118 -152 58z"/>
<path d="M15570 14293 c-39 -50 -3 -123 60 -123 63 0 99 73 60 123 -17 21 -30
27 -60 27 -30 0 -43 -6 -60 -27z"/>
<path d="M11142 14253 c2 -10 26 -32 54 -48 l51 -31 -23 -28 c-27 -31 -30 -65
-9 -105 41 -80 175 -52 175 36 0 62 -32 103 -81 103 -10 0 -19 4 -19 9 0 8
-130 81 -145 81 -3 0 -5 -8 -3 -17z"/>
<path d="M14915 14258 c-31 -17 -45 -39 -45 -74 0 -46 9 -63 41 -79 40 -21 74
-18 106 9 22 19 28 32 28 66 0 34 -6 47 -28 66 -30 26 -69 30 -102 12z"/>
<path d="M4248 14212 c-60 -23 -68 -30 -68 -53 0 -63 92 -92 144 -44 30 28 36
84 10 109 -8 9 -16 16 -17 15 -1 0 -32 -12 -69 -27z"/>
<path d="M4015 14211 c-6 -6 -8 -43 -5 -83 5 -73 5 -73 36 -76 72 -7 113 90
59 143 -25 25 -73 33 -90 16z"/>
<path d="M8495 14208 c-32 -18 -44 -40 -45 -79 0 -50 37 -89 84 -89 49 0 65 8
82 42 41 80 -45 169 -121 126z"/>
<path d="M10626 14194 c-57 -57 -20 -154 59 -154 48 0 95 45 95 90 0 22 -9 41
-29 61 -39 38 -88 40 -125 3z"/>
<path d="M5273 14156 c-23 -20 -30 -34 -32 -71 -2 -39 2 -50 28 -75 55 -56
149 -29 166 48 7 36 -9 82 -30 82 -9 0 -14 4 -10 9 3 6 -3 15 -14 20 -33 18
-78 12 -108 -13z"/>
<path d="M5723 14173 c-12 -2 -34 -18 -49 -36 -21 -25 -25 -38 -21 -70 8 -58
40 -87 96 -87 84 0 126 73 86 149 -12 24 -63 54 -84 50 -3 -1 -16 -4 -28 -6z"/>
<path d="M14258 14145 c-36 -20 -48 -44 -48 -95 0 -47 33 -89 72 -91 78 -4
116 23 125 88 4 34 1 45 -23 72 -35 38 -86 49 -126 26z"/>
<path d="M7246 14035 c-41 -35 -47 -100 -13 -137 29 -31 88 -45 123 -29 34 15
58 70 50 114 -14 73 -102 102 -160 52z"/>
<path d="M9441 14024 c-37 -47 -24 -102 29 -124 77 -32 141 57 89 124 -16 20
-29 26 -59 26 -30 0 -43 -6 -59 -26z"/>
<path d="M9675 14025 c-30 -29 -33 -74 -6 -106 14 -18 29 -24 61 -24 49 0 80
29 80 75 0 72 -84 107 -135 55z"/>
<path d="M11880 14008 c-30 -23 -56 -45 -58 -50 -2 -4 -16 2 -31 13 -24 17
-33 19 -72 10 -51 -12 -79 -41 -79 -83 0 -62 35 -97 98 -98 62 0 96 35 90 94
l-5 42 68 48 c38 27 66 53 63 57 -8 14 -15 11 -74 -33z"/>
<path d="M3311 13984 c-12 -15 -21 -37 -21 -49 0 -38 37 -75 76 -75 45 0 74
29 74 75 0 72 -86 104 -129 49z"/>
<path d="M8550 13910 c-31 -31 -27 -93 6 -119 61 -48 131 -2 125 80 -4 53 -91
79 -131 39z"/>
<path d="M10565 13905 c-61 -60 6 -158 85 -125 53 22 66 77 29 124 -28 35 -80
36 -114 1z"/>
<path d="M16032 13897 c-12 -13 -22 -36 -22 -51 0 -34 41 -76 75 -76 14 0 37
11 50 25 14 13 25 36 25 50 0 35 -42 75 -78 75 -17 0 -37 -9 -50 -23z"/>
<path d="M7961 13874 c-29 -37 -27 -85 4 -114 78 -73 190 30 124 114 -16 21
-29 26 -64 26 -35 0 -48 -5 -64 -26z"/>
<path d="M9782 13884 c-16 -11 -22 -25 -22 -55 0 -65 48 -96 103 -68 30 16 37
28 37 67 0 61 -66 93 -118 56z"/>
<path d="M11894 13860 c-55 -22 -56 -127 -1 -161 58 -36 147 3 147 65 0 37
-21 86 -40 96 -22 12 -77 12 -106 0z"/>
<path d="M14899 13815 c-32 -17 -51 -64 -42 -106 13 -67 109 -94 158 -44 19
18 25 35 25 69 0 37 -5 48 -31 70 -34 29 -71 32 -110 11z"/>
<path d="M7759 13791 c-58 -58 -23 -141 60 -141 88 0 113 116 34 158 -35 19
-63 14 -94 -17z"/>
<path d="M6854 13796 c-39 -17 -64 -52 -64 -89 0 -33 16 -68 38 -81 12 -7 10
-12 -10 -30 -17 -14 -27 -36 -32 -68 -6 -42 -4 -50 18 -72 32 -33 69 -41 107
-26 66 28 78 124 20 166 -13 10 -12 12 8 19 26 8 51 60 51 104 0 30 -42 81
-67 81 -6 0 -17 2 -25 5 -7 2 -27 -2 -44 -9z"/>
<path d="M8121 13774 c-12 -15 -21 -37 -21 -49 0 -12 9 -34 21 -49 26 -33 88
-37 119 -6 26 26 26 80 0 108 -31 33 -92 30 -119 -4z"/>
<path d="M3354 13778 c-48 -26 -58 -78 -23 -122 39 -50 122 -26 135 40 11 58
-59 109 -112 82z"/>
<path d="M10638 13743 c-52 -60 -11 -136 67 -124 51 7 72 72 39 119 -19 28
-83 31 -106 5z"/>
<path d="M15105 13735 c-47 -46 -26 -131 36 -150 33 -11 87 4 104 28 8 12 15
39 15 60 0 53 -35 87 -90 87 -30 0 -47 -6 -65 -25z"/>
<path d="M7940 13712 c-31 -15 -35 -22 -38 -59 -4 -58 23 -85 81 -81 36 3 44
8 58 35 22 44 13 81 -25 104 -38 23 -33 23 -76 1z"/>
<path d="M11195 13705 c-33 -32 -34 -83 -2 -113 43 -41 118 -21 131 34 20 79
-73 136 -129 79z"/>
<path d="M15340 13698 c-54 -29 -64 -95 -21 -139 39 -38 88 -40 125 -3 69 70
-17 187 -104 142z"/>
<path d="M4665 13686 c-59 -26 -74 -114 -29 -160 21 -21 36 -26 74 -26 57 0
89 29 97 88 4 33 1 44 -23 71 -34 36 -77 46 -119 27z"/>
<path d="M10840 13680 c-27 -27 -26 -81 0 -105 25 -23 84 -25 105 -4 8 8 17
28 21 44 13 68 -77 114 -126 65z"/>
<path d="M14439 13671 c-48 -49 -38 -125 21 -156 74 -38 150 5 150 85 0 33 -6
48 -29 71 -23 23 -38 29 -71 29 -33 0 -48 -6 -71 -29z"/>
<path d="M4430 13630 c-30 -28 -32 -34 -27 -76 7 -63 37 -94 94 -94 24 0 43 5
43 11 0 5 4 7 10 4 13 -8 50 54 50 83 0 33 -28 78 -57 91 -42 19 -79 13 -113
-19z"/>
<path d="M3588 13630 c-26 -16 -51 -76 -44 -105 6 -24 51 -63 61 -53 3 3 -6
26 -21 51 -14 26 -23 47 -20 47 2 0 17 -22 33 -50 33 -58 60 -65 92 -24 25 32
27 81 3 112 -20 26 -78 38 -104 22z"/>
<path d="M7750 13633 c-52 -20 -68 -90 -30 -131 22 -23 68 -29 100 -12 39 21
45 97 8 127 -17 15 -59 23 -78 16z"/>
<path d="M11396 13619 c-55 -43 -23 -139 47 -139 40 0 63 15 75 50 28 80 -56
141 -122 89z"/>
<path d="M11040 13610 c-30 -30 -27 -83 6 -109 50 -39 108 -16 120 46 13 65
-78 111 -126 63z"/>
<path d="M12271 13584 c-25 -31 -27 -74 -6 -113 17 -34 33 -41 86 -41 30 0 47
7 66 26 22 23 25 31 19 72 -9 65 -28 82 -92 82 -45 0 -56 -4 -73 -26z"/>
<path d="M7910 13543 c-32 -12 -50 -37 -50 -70 0 -43 30 -73 73 -73 81 0 100
113 24 140 -16 5 -30 10 -31 9 -1 0 -8 -3 -16 -6z"/>
<path d="M15759 13531 c-18 -14 -24 -29 -24 -61 0 -32 6 -47 24 -61 54 -44
141 -6 141 61 0 67 -87 105 -141 61z"/>
<path d="M3992 13498 c-20 -20 -14 -75 12 -105 20 -23 32 -28 71 -28 40 0 50
4 71 30 16 20 23 41 22 62 -1 18 -4 31 -5 29 -2 -2 -32 3 -66 10 -78 17 -90
17 -105 2z"/>
<path d="M11935 13475 c-31 -30 -33 -79 -5 -115 27 -35 103 -36 131 -1 46 56
6 141 -66 141 -25 0 -44 -8 -60 -25z"/>
<path d="M16450 13470 c-11 -11 -20 -33 -20 -50 0 -17 9 -39 20 -50 11 -11 33
-20 50 -20 17 0 39 9 50 20 11 11 20 33 20 50 0 17 -9 39 -20 50 -11 11 -33
20 -50 20 -17 0 -39 -9 -50 -20z"/>
<path d="M14635 13427 c-20 -16 -28 -35 -32 -69 -5 -42 -3 -50 25 -78 40 -40
96 -42 141 -4 26 22 31 33 31 71 0 36 -6 50 -29 74 -38 37 -97 40 -136 6z"/>
<path d="M7850 13350 c-23 -23 -26 -68 -7 -93 6 -9 26 -20 44 -23 26 -5 37 -1
57 19 33 33 33 61 1 92 -29 30 -68 32 -95 5z"/>
<path d="M11616 13339 c-52 -41 -19 -129 49 -129 39 0 69 33 69 75 0 67 -64
96 -118 54z"/>
<path d="M5094 13325 c-54 -37 -51 -122 4 -166 50 -39 147 -3 152 56 8 81 -25
125 -94 125 -23 0 -51 -7 -62 -15z"/>
<path d="M15071 13326 c-87 -48 -50 -186 49 -186 51 0 100 49 100 99 0 75 -83
124 -149 87z"/>
<path d="M7151 13284 c-52 -67 12 -156 89 -124 36 15 50 37 50 78 0 67 -97 99
-139 46z"/>
<path d="M15278 13255 c-38 -21 -53 -73 -34 -118 17 -42 41 -57 91 -57 50 0
85 36 85 89 0 53 -7 69 -41 86 -35 19 -66 18 -101 0z"/>
<path d="M2710 13240 c-30 -30 -27 -83 6 -109 15 -12 34 -21 44 -21 10 0 29 9
44 21 35 27 37 90 4 113 -31 22 -74 20 -98 -4z"/>
<path d="M7343 13238 c-25 -12 -45 -60 -36 -86 12 -34 36 -52 70 -52 68 0 98
76 48 125 -26 27 -47 30 -82 13z"/>
<path d="M11789 13229 c-29 -29 -23 -85 12 -112 54 -40 130 12 113 78 -13 53
-86 73 -125 34z"/>
<path d="M12314 13228 c-22 -10 -44 -47 -44 -73 0 -72 94 -112 145 -60 71 70
-11 177 -101 133z"/>
<path d="M3165 13205 c-25 -24 -32 -65 -19 -100 10 -25 62 -47 95 -40 89 20
71 165 -21 165 -19 0 -40 -9 -55 -25z"/>
<path d="M14835 13178 c-62 -34 -74 -110 -26 -159 24 -23 38 -29 74 -29 38 0
49 5 71 31 28 33 34 85 16 120 -22 40 -93 60 -135 37z"/>
<path d="M13025 13168 c-33 -19 -44 -41 -45 -89 0 -57 23 -84 81 -93 49 -8 84
11 108 59 17 35 1 97 -32 120 -25 18 -83 19 -112 3z"/>
<path d="M16636 13119 c-50 -39 -23 -119 42 -121 69 -2 100 79 46 121 -15 12
-34 21 -44 21 -10 0 -29 -9 -44 -21z"/>
<path d="M12645 13105 c-28 -27 -34 -88 -12 -116 32 -42 90 -50 130 -19 31 25
41 62 27 105 -19 57 -101 75 -145 30z"/>
<path d="M15043 13120 c-50 -21 -72 -105 -39 -154 8 -13 31 -29 51 -36 70 -23
144 41 131 114 -12 61 -86 101 -143 76z"/>
<path d="M4906 13079 c-56 -66 -11 -169 75 -169 28 0 77 27 89 49 18 35 12 87
-16 120 -22 27 -32 31 -74 31 -42 0 -52 -4 -74 -31z"/>
<path d="M12324 13050 c-28 -11 -54 -48 -54 -76 0 -12 9 -33 21 -48 16 -20 29
-26 59 -26 49 0 80 30 80 77 0 31 -28 73 -49 73 -5 0 -15 2 -23 4 -7 3 -23 1
-34 -4z"/>
<path d="M15260 13046 c-25 -8 -40 -22 -54 -49 -16 -34 -17 -42 -4 -75 25 -67
108 -84 159 -33 33 34 38 75 14 121 -9 17 -17 30 -18 30 -1 0 -16 4 -32 9 -20
5 -44 4 -65 -3z"/>
<path d="M6812 13027 c-41 -43 -21 -118 34 -131 67 -17 122 51 90 112 -25 49
-87 58 -124 19z"/>
<path d="M3201 12984 c-58 -74 24 -173 107 -130 33 17 42 34 42 80 0 46 -35
76 -87 76 -33 0 -46 -6 -62 -26z"/>
<path d="M14788 12964 c-37 -20 -56 -81 -38 -124 17 -42 46 -60 96 -60 59 0
94 36 94 97 0 83 -78 128 -152 87z"/>
<path d="M11966 12935 c-38 -38 -23 -101 28 -118 59 -19 107 54 71 109 -18 28
-74 33 -99 9z"/>
<path d="M14991 12898 c-44 -29 -57 -74 -37 -123 31 -74 134 -80 177 -11 58
91 -51 195 -140 134z"/>
<path d="M12459 12891 c-31 -25 -32 -83 -1 -113 27 -28 83 -29 112 -3 27 25
27 88 0 115 -25 25 -80 26 -111 1z"/>
<path d="M12140 12817 c-32 -16 -47 -58 -32 -91 21 -47 99 -47 120 -1 17 38
15 53 -13 80 -27 28 -39 30 -75 12z"/>
<path d="M14530 12802 c-42 -42 -42 -101 -1 -143 64 -64 171 -20 171 70 0 57
-32 91 -92 98 -42 5 -50 3 -78 -25z"/>
<path d="M6996 12798 c-34 -48 -4 -108 54 -108 58 0 88 60 54 108 -11 16 -25
22 -54 22 -29 0 -43 -6 -54 -22z"/>
<path d="M5983 12800 c-52 -12 -63 -27 -63 -85 0 -46 4 -56 28 -75 35 -29 107
-23 134 10 34 42 18 128 -29 149 -26 12 -25 12 -70 1z"/>
<path d="M4385 12771 c-35 -15 -56 -47 -57 -89 -1 -68 34 -102 105 -102 41 0
67 17 83 55 36 87 -45 171 -131 136z"/>
<path d="M2330 12750 c-26 -26 -26 -81 -2 -103 22 -20 71 -22 95 -4 9 6 20 26
23 44 12 63 -71 108 -116 63z"/>
<path d="M12610 12738 c-38 -41 -23 -106 30 -128 80 -33 142 65 82 133 -22 25
-86 23 -112 -5z"/>
<path d="M4184 12696 c-35 -15 -64 -51 -64 -78 0 -9 10 -24 23 -33 l22 -17
-23 7 c-21 6 -22 5 -14 -12 51 -95 192 -67 192 37 0 50 -22 85 -62 99 -38 13
-36 13 -74 -3z"/>
<path d="M3075 12680 c-42 -16 -60 -63 -43 -111 12 -34 35 -49 77 -49 43 0 60
9 77 42 38 74 -34 150 -111 118z"/>
<path d="M13315 12618 c-59 -33 -62 -137 -6 -168 32 -17 86 -12 115 11 22 17
26 28 26 67 -1 55 -14 76 -55 86 -16 4 -37 9 -45 11 -8 2 -24 -1 -35 -7z"/>
<path d="M6535 12555 c-57 -56 -8 -140 71 -121 35 9 59 62 45 99 -10 26 -44
47 -77 47 -8 0 -26 -11 -39 -25z"/>
<path d="M12589 12562 c-49 -40 -15 -125 50 -125 42 0 71 28 71 70 0 64 -70
96 -121 55z"/>
<path d="M16295 12563 c-47 -12 -72 -63 -54 -112 22 -55 92 -69 134 -26 58 57
0 157 -80 138z"/>
<path d="M2397 12530 c-36 -28 -38 -91 -5 -114 53 -37 118 -5 118 57 0 61 -66
94 -113 57z"/>
<path d="M3764 12532 c-45 -38 -53 -75 -29 -127 38 -79 146 -72 181 11 27 64
-24 134 -96 134 -19 -1 -44 -9 -56 -18z"/>
<path d="M14879 12471 c-37 -37 -41 -104 -9 -139 l21 -22 -25 0 c-42 0 -77
-39 -83 -92 -5 -42 -3 -50 25 -78 40 -40 96 -42 141 -4 26 21 31 33 31 69 0
28 -7 51 -21 69 l-20 26 21 0 c45 0 90 49 90 99 0 88 -109 134 -171 72z"/>
<path d="M15529 12431 c-22 -23 -29 -39 -29 -69 0 -75 64 -117 135 -88 41 17
55 42 55 94 0 33 -6 45 -31 66 -43 36 -91 35 -130 -3z"/>
<path d="M4034 12419 c-28 -14 -54 -61 -54 -99 0 -43 47 -90 91 -90 l32 0 -27
-26 c-35 -36 -36 -91 0 -133 22 -27 32 -31 74 -31 42 0 52 4 74 31 14 17 26
42 26 55 0 24 1 24 17 9 62 -62 173 -17 173 71 0 39 -38 89 -76 98 -56 14
-124 -32 -124 -84 0 -20 0 -20 -32 0 -18 11 -42 20 -52 20 -18 0 -18 1 -3 18
21 23 31 73 23 107 -12 49 -91 78 -142 54z"/>
<path d="M12745 12419 c-49 -28 -58 -70 -24 -113 41 -52 129 -23 129 43 0 55
-60 95 -105 70z"/>
<path d="M13645 12411 c-51 -22 -75 -92 -49 -142 27 -54 116 -67 159 -24 34
33 35 103 3 140 -25 28 -79 41 -113 26z"/>
<path d="M3395 12350 c-61 -24 -80 -107 -36 -154 34 -36 101 -37 136 -1 68 68
-11 190 -100 155z"/>
<path d="M2911 12326 c-33 -35 -31 -93 4 -123 72 -62 175 21 131 105 -26 50
-96 59 -135 18z"/>
<path d="M16683 12298 c-55 -27 -50 -114 8 -138 89 -37 151 99 63 139 -30 13
-42 13 -71 -1z"/>
<path d="M15954 12230 c-31 -12 -54 -49 -54 -86 0 -69 75 -112 139 -80 64 34
57 142 -12 166 -35 12 -44 12 -73 0z"/>
<path d="M16142 12120 c-28 -12 -52 -66 -45 -103 7 -33 47 -67 80 -67 31 0 79
25 87 45 10 27 6 79 -7 96 -27 36 -71 46 -115 29z"/>
<path d="M5775 12044 c-34 -37 -33 -78 4 -115 33 -32 58 -36 100 -14 47 24 56
83 20 129 -29 37 -90 37 -124 0z"/>
<path d="M3982 11940 c-41 -25 -56 -58 -48 -103 12 -62 71 -97 131 -77 43 14
65 44 65 87 0 52 -17 83 -55 98 -45 19 -54 19 -93 -5z"/>
<path d="M15579 11921 c-40 -40 -41 -106 -3 -145 29 -28 87 -36 125 -16 22 12
49 61 49 89 0 88 -109 134 -171 72z"/>
<path d="M3090 11923 c-37 -14 -60 -47 -60 -84 0 -51 8 -67 41 -84 43 -23 77
-18 110 14 37 37 39 88 7 125 -23 26 -70 40 -98 29z"/>
<path d="M13097 11900 c-52 -41 -25 -130 41 -130 45 0 72 26 72 68 -1 46 -18
70 -56 78 -21 4 -37 0 -57 -16z"/>
<path d="M5853 11885 c-42 -29 -34 -112 13 -134 36 -16 58 -14 88 10 20 16 26
29 26 59 0 65 -73 103 -127 65z"/>
<path d="M13260 11878 c-36 -38 -25 -100 21 -124 55 -28 113 9 113 73 0 66
-88 100 -134 51z"/>
<path d="M3791 11836 c-57 -32 -68 -111 -22 -157 65 -64 171 -20 171 71 0 78
-80 124 -149 86z"/>
<path d="M14883 11836 c-38 -17 -53 -43 -53 -91 0 -47 14 -71 52 -91 43 -22
90 -11 123 28 68 81 -24 196 -122 154z"/>
<path d="M15319 11837 c-37 -28 -51 -96 -29 -138 13 -22 61 -49 90 -49 85 0
130 103 74 169 -22 27 -32 31 -72 31 -26 0 -54 -6 -63 -13z"/>
<path d="M17283 11830 c-66 -26 -45 -130 26 -130 37 0 60 19 67 55 10 52 -43
95 -93 75z"/>
<path d="M5313 11791 c-17 -11 -34 -29 -38 -41 -7 -21 -7 -21 -27 -3 -13 12
-36 18 -65 18 -58 0 -93 -36 -93 -96 0 -53 14 -78 56 -95 32 -13 39 -13 79 5
29 13 49 29 55 46 9 25 11 25 32 11 61 -43 148 5 148 82 0 78 -76 116 -147 73z"/>
<path d="M16985 11745 c-14 -13 -25 -36 -25 -50 0 -35 42 -75 79 -75 35 0 71
39 71 77 0 32 -42 73 -75 73 -14 0 -37 -11 -50 -25z"/>
<path d="M13022 11727 c-29 -31 -28 -62 4 -93 29 -30 67 -27 97 8 56 66 -41
149 -101 85z"/>
<path d="M5745 11685 c-50 -49 -15 -135 55 -135 41 0 80 39 80 80 0 41 -39 80
-80 80 -19 0 -40 -9 -55 -25z"/>
<path d="M15969 11697 c-48 -37 -52 -105 -9 -149 27 -27 36 -30 72 -25 57 8
83 36 83 93 0 38 -5 50 -28 70 -31 26 -90 32 -118 11z"/>
<path d="M15703 11624 c-38 -19 -58 -62 -50 -110 8 -47 21 -61 68 -75 118 -36
185 133 74 186 -41 19 -52 19 -92 -1z"/>
<path d="M16145 11535 c-28 -27 -34 -88 -12 -116 55 -72 167 -38 167 51 0 56
-34 90 -90 90 -30 0 -47 -6 -65 -25z"/>
<path d="M16890 11540 c-26 -26 -27 -90 -2 -113 26 -24 87 -22 112 3 28 28 26
75 -5 105 -30 31 -77 33 -105 5z"/>
<path d="M5860 11542 c-33 -10 -50 -36 -50 -73 0 -43 27 -69 70 -69 43 0 70
26 70 69 0 51 -44 87 -90 73z"/>
<path d="M2490 11463 c-43 -54 -5 -133 64 -133 54 1 92 48 81 101 -14 62 -105
82 -145 32z"/>
<path d="M3493 11405 c-32 -32 -35 -39 -30 -78 8 -57 43 -87 103 -87 61 0 94
32 94 90 0 52 -13 76 -50 95 -47 24 -78 19 -117 -20z"/>
<path d="M2782 11423 c-23 -9 -44 -64 -37 -99 7 -41 38 -64 86 -64 56 0 84 28
84 85 0 37 -5 51 -24 66 -22 18 -79 24 -109 12z"/>
<path d="M13210 11370 c-28 -28 -27 -84 2 -104 50 -36 108 -4 108 58 0 59 -68
88 -110 46z"/>
<path d="M15316 11324 c-14 -15 -27 -36 -28 -48 -2 -37 3 -70 14 -83 8 -10 4
-13 -17 -13 -71 0 -122 -75 -95 -140 17 -42 46 -60 96 -60 58 0 94 34 94 90 0
23 -4 50 -10 60 -8 15 -5 19 23 22 17 3 40 8 50 13 14 6 17 2 17 -18 0 -60 40
-100 100 -100 108 0 139 138 44 189 -32 17 -37 18 -77 3 -43 -15 -43 -15 -39
7 5 27 -22 80 -47 94 -38 20 -96 12 -125 -16z"/>
<path d="M4963 11296 c-39 -18 -53 -43 -53 -96 0 -46 30 -85 74 -96 53 -13
126 41 126 93 0 27 -22 74 -42 90 -23 19 -72 23 -105 9z"/>
<path d="M15765 11285 c-27 -26 -34 -89 -15 -126 28 -52 116 -61 158 -16 43
46 34 129 -17 157 -37 19 -100 12 -126 -15z"/>
<path d="M13285 11180 c-44 -49 -4 -128 59 -116 35 7 55 32 56 69 0 58 -77 89
-115 47z"/>
<path d="M13880 11178 c-28 -31 -35 -63 -20 -99 16 -38 62 -62 101 -54 67 15
94 114 43 154 -37 29 -97 28 -124 -1z"/>
<path d="M13615 11080 c-11 -12 -19 -36 -19 -55 0 -47 28 -75 76 -75 49 0 78
28 78 75 0 47 -29 75 -78 75 -27 0 -45 -7 -57 -20z"/>
<path d="M4893 11056 c-39 -18 -53 -43 -53 -96 0 -77 74 -121 140 -83 49 28
66 65 51 113 -20 66 -76 93 -138 66z"/>
<path d="M14224 11041 c-55 -51 -52 -119 6 -158 57 -39 117 -25 146 35 13 29
14 41 5 73 -6 21 -21 45 -34 54 -30 21 -98 19 -123 -4z"/>
<path d="M5319 11021 c-47 -38 -22 -136 36 -141 71 -7 105 18 105 80 0 53 -27
80 -79 80 -23 0 -48 -8 -62 -19z"/>
<path d="M5793 11000 c-69 -28 -48 -130 27 -130 64 0 91 70 45 115 -26 27 -37
29 -72 15z"/>
<path d="M5600 10930 c-12 -12 -20 -33 -20 -53 0 -78 107 -100 139 -30 33 73
-63 139 -119 83z"/>
<path d="M16865 10915 c-73 -72 28 -178 109 -114 20 16 26 29 26 59 0 72 -84
106 -135 55z"/>
<path d="M3834 10870 c-36 -14 -66 -61 -62 -97 3 -27 1 -30 -13 -22 -10 5 -35
9 -57 9 -115 0 -128 -175 -15 -196 68 -13 133 47 121 110 -4 22 -3 24 13 16
10 -6 34 -10 54 -10 32 0 35 -2 25 -19 -20 -39 -12 -91 21 -123 28 -28 34 -30
77 -24 58 8 82 31 89 84 5 37 2 45 -30 77 -28 28 -43 35 -73 35 -30 0 -35 3
-26 12 14 14 16 88 2 88 -5 0 -9 3 -9 8 4 21 -4 33 -31 47 -32 17 -54 18 -86
5z"/>
<path d="M16295 10835 c-35 -34 -35 -96 1 -132 22 -22 32 -25 71 -20 56 6 82
35 83 90 0 53 -35 87 -90 87 -30 0 -47 -6 -65 -25z"/>
<path d="M3076 10815 c-37 -34 -37 -101 0 -139 40 -39 103 -37 138 5 58 69 19
159 -69 159 -31 0 -49 -7 -69 -25z"/>
<path d="M1800 10790 c-43 -43 -11 -120 50 -120 36 0 70 31 70 64 0 63 -77 99
-120 56z"/>
<path d="M5711 10784 c-12 -15 -21 -35 -21 -46 0 -24 44 -68 68 -68 33 0 72
38 72 71 0 65 -80 93 -119 43z"/>
<path d="M17320 10790 c-29 -29 -26 -74 6 -99 15 -12 34 -21 44 -21 30 0 70
39 70 69 0 65 -74 97 -120 51z"/>
<path d="M3358 10771 c-27 -24 -33 -36 -33 -71 0 -109 161 -138 195 -35 34
103 -81 178 -162 106z"/>
<path d="M15729 10762 c-26 -24 -32 -36 -32 -72 0 -36 6 -48 32 -72 79 -71
192 1 162 102 -14 48 -43 70 -93 70 -27 0 -46 -8 -69 -28z"/>
<path d="M5573 10743 c-27 -5 -53 -39 -53 -69 0 -12 9 -33 21 -48 41 -52 129
-23 129 43 0 51 -44 84 -97 74z"/>
<path d="M13752 10665 c-32 -14 -42 -32 -42 -75 0 -67 97 -97 139 -44 26 33
27 64 1 96 -24 31 -59 39 -98 23z"/>
<path d="M1919 10592 c-28 -23 -30 -73 -4 -102 26 -29 89 -27 109 2 52 74 -35
156 -105 100z"/>
<path d="M2215 10578 c-51 -30 -60 -84 -20 -123 51 -52 135 -17 135 55 0 56
-68 96 -115 68z"/>
<path d="M16652 10520 c-12 -5 -30 -25 -39 -45 -16 -33 -16 -37 0 -70 21 -45
57 -60 104 -44 71 23 78 120 12 154 -32 17 -44 18 -77 5z"/>
<path d="M5063 10500 c-38 -25 -47 -49 -39 -96 19 -98 176 -81 176 20 0 73
-76 115 -137 76z"/>
<path d="M3309 10441 c-70 -71 -5 -186 95 -167 75 14 103 112 49 168 -39 40
-103 40 -144 -1z"/>
<path d="M15769 10431 c-22 -23 -29 -39 -29 -70 0 -57 32 -91 92 -98 42 -5 50
-3 78 25 42 42 42 101 1 143 -23 23 -38 29 -71 29 -33 0 -48 -6 -71 -29z"/>
<path d="M13770 10428 c-37 -40 -22 -108 27 -125 82 -28 145 54 92 121 -27 34
-88 37 -119 4z"/>
<path d="M13513 10388 c-21 -10 -33 -35 -33 -70 0 -24 39 -58 67 -58 30 0 73
42 73 70 0 26 -43 70 -67 69 -10 0 -28 -5 -40 -11z"/>
<path d="M17365 10375 c-30 -30 -31 -54 -4 -89 15 -19 30 -26 53 -26 42 0 66
26 66 73 0 64 -69 89 -115 42z"/>
<path d="M13925 10345 c-59 -58 0 -161 80 -141 98 25 80 166 -20 166 -25 0
-44 -8 -60 -25z"/>
<path d="M16227 10319 c-11 -6 -25 -26 -33 -44 -21 -52 -1 -105 48 -123 62
-24 119 6 131 66 7 34 -15 87 -41 101 -26 14 -81 14 -105 0z"/>
<path d="M3754 10260 c-65 -26 -83 -109 -35 -162 25 -28 36 -33 74 -32 44 1
44 1 34 -26 -13 -34 -2 -76 28 -106 34 -34 93 -33 134 2 27 22 31 32 31 74 0
42 -4 52 -32 75 -26 22 -40 26 -74 23 -27 -2 -40 0 -34 6 15 15 12 84 -6 111
-8 13 -29 28 -46 34 -36 13 -45 13 -74 1z"/>
<path d="M14079 10241 c-20 -20 -29 -39 -29 -61 0 -45 47 -90 95 -90 87 0 121
126 44 165 -43 23 -77 18 -110 -14z"/>
<path d="M13805 10205 c-50 -49 -15 -135 55 -135 40 0 80 39 80 78 0 39 -43
82 -82 82 -17 0 -39 -10 -53 -25z"/>
<path d="M13530 10170 c-40 -40 -12 -120 43 -120 41 0 67 27 67 70 0 29 -6 43
-22 54 -31 22 -64 20 -88 -4z"/>
<path d="M16945 10130 c-11 -12 -19 -36 -19 -57 0 -73 90 -108 137 -52 23 29
22 84 -3 109 -27 27 -90 27 -115 0z"/>
<path d="M13980 10133 c-55 -20 -70 -101 -27 -141 26 -25 82 -29 109 -8 77 58
8 182 -82 149z"/>
<path d="M16660 10120 c-43 -43 -32 -112 23 -138 33 -16 70 -9 97 18 27 27 27
93 0 120 -27 27 -93 27 -120 0z"/>
<path d="M5440 10080 c-49 -49 -3 -139 65 -126 38 8 53 23 61 61 13 68 -77
114 -126 65z"/>
<path d="M13676 10084 c-48 -47 -19 -117 52 -122 32 -2 43 1 56 20 22 31 20
74 -4 98 -24 24 -82 27 -104 4z"/>
<path d="M15515 10077 c-18 -15 -28 -36 -32 -64 -5 -39 -2 -46 30 -78 46 -46
95 -49 138 -6 43 43 38 121 -10 158 -27 21 -97 16 -126 -10z"/>
<path d="M4712 10035 c-34 -28 -44 -65 -30 -106 13 -38 28 -41 109 -22 98 24
110 54 52 123 -33 39 -88 42 -131 5z"/>
<path d="M5298 10000 c-9 -6 -21 -25 -28 -44 -26 -79 58 -137 124 -85 55 43
21 139 -50 139 -16 0 -37 -5 -46 -10z"/>
<path d="M13825 9975 c-35 -34 -34 -86 1 -114 67 -52 156 12 124 89 -23 55
-84 67 -125 25z"/>
<path d="M1753 9970 c-44 -18 -54 -90 -17 -121 22 -18 71 -15 94 6 55 50 -7
143 -77 115z"/>
<path d="M2012 9947 c-29 -31 -28 -72 3 -102 31 -32 74 -33 103 -2 28 29 29
87 4 110 -28 25 -84 22 -110 -6z"/>
<path d="M2575 9945 c-31 -30 -33 -82 -5 -118 27 -34 52 -41 96 -27 64 21 79
109 26 150 -35 28 -87 26 -117 -5z"/>
<path d="M15963 9958 c-12 -6 -29 -26 -39 -46 -41 -87 54 -176 139 -130 90 47
57 188 -43 187 -19 0 -45 -5 -57 -11z"/>
<path d="M16247 9959 c-11 -6 -25 -27 -33 -46 -41 -98 75 -175 153 -101 33 31
32 100 -2 133 -26 27 -84 34 -118 14z"/>
<path d="M3419 9931 c-41 -42 -41 -101 1 -143 26 -26 36 -29 74 -26 l43 3 -5
-47 c-4 -40 -1 -50 21 -72 46 -46 108 -46 154 0 20 21 24 33 21 68 l-3 43 40
-5 c100 -11 153 128 70 182 -31 20 -94 21 -122 1 -26 -18 -47 -77 -38 -105 6
-18 2 -20 -42 -20 l-48 0 3 45 c4 39 0 49 -26 75 -42 42 -101 42 -143 1z"/>
<path d="M2728 9795 c-31 -17 -52 -75 -39 -108 32 -84 160 -79 176 7 12 60
-34 117 -93 116 -9 -1 -29 -7 -44 -15z"/>
<path d="M2155 9775 c-51 -50 -18 -135 52 -135 40 0 71 27 79 67 5 27 1 37
-24 63 -37 37 -74 39 -107 5z"/>
<path d="M15835 9781 c-58 -25 -82 -115 -41 -160 51 -57 143 -44 172 25 18 43
13 73 -19 109 -24 28 -78 41 -112 26z"/>
<path d="M13565 9748 c-27 -15 -35 -28 -35 -60 0 -33 35 -68 67 -68 30 0 73
42 73 70 0 26 -43 70 -67 70 -10 0 -27 -6 -38 -12z"/>
<path d="M17273 9740 c-75 -30 -57 -140 24 -140 20 0 41 8 53 20 53 53 -8 147
-77 120z"/>
<path d="M14274 9660 c-51 -21 -77 -86 -53 -131 9 -19 9 -19 -10 -10 -31 17
-86 13 -112 -8 -18 -15 -23 -29 -24 -64 0 -39 -2 -44 -17 -36 -9 5 -33 9 -52
9 -49 0 -76 -28 -76 -80 0 -52 27 -80 76 -80 19 0 44 4 54 10 22 12 43 70 34
93 -5 15 -3 15 25 1 19 -9 42 -13 59 -9 27 5 28 5 24 -34 -3 -35 1 -45 27 -72
27 -26 38 -30 70 -27 34 3 38 1 30 -14 -5 -9 -9 -25 -9 -35 0 -15 -7 -18 -48
-15 -44 3 -51 1 -75 -28 -82 -96 50 -214 139 -125 15 15 24 36 24 55 0 27 2
30 19 20 60 -32 142 15 144 82 2 69 -37 108 -106 108 -32 0 -33 1 -29 34 3 26
-3 43 -24 71 -26 34 -31 36 -73 33 l-46 -3 0 42 c0 38 2 42 20 36 69 -25 135
15 135 82 0 63 -73 118 -126 95z"/>
<path d="M5460 9653 c-33 -12 -50 -37 -50 -73 0 -46 25 -70 72 -70 43 0 69 26
70 70 2 47 -50 88 -92 73z"/>
<path d="M15382 9615 c-73 -61 -34 -175 59 -175 51 0 75 13 95 52 50 96 -71
193 -154 123z"/>
<path d="M17115 9558 c-29 -16 -35 -28 -35 -69 0 -45 25 -69 71 -69 47 0 68
18 75 62 11 63 -55 108 -111 76z"/>
<path d="M1731 9524 c-12 -15 -21 -34 -21 -44 0 -30 39 -70 69 -70 44 0 71 26
71 69 0 70 -77 99 -119 45z"/>
<path d="M3884 9490 c-62 -25 -82 -107 -39 -158 30 -36 75 -47 120 -28 40 17
55 42 55 91 0 49 -15 74 -55 91 -39 16 -51 16 -81 4z"/>
<path d="M3569 9461 c-23 -24 -29 -38 -29 -74 0 -38 5 -49 31 -71 65 -55 155
-22 166 61 5 39 2 46 -30 78 -46 46 -95 49 -138 6z"/>
<path d="M3320 9461 c-38 -11 -73 -69 -66 -110 16 -101 152 -120 191 -27 34
81 -39 162 -125 137z"/>
<path d="M15535 9446 c-59 -26 -73 -106 -27 -157 60 -67 172 -25 172 64 0 49
-13 73 -50 92 -35 18 -55 18 -95 1z"/>
<path d="M2741 9426 c-100 -56 -31 -203 77 -165 32 11 62 52 62 83 0 29 -24
68 -51 82 -34 17 -57 17 -88 0z"/>
<path d="M15930 9253 c-43 -41 -45 -105 -4 -147 52 -52 152 -24 170 48 24 95
-93 165 -166 99z"/>
<path d="M2035 9135 c-49 -48 -16 -125 54 -125 48 0 75 28 75 77 0 68 -80 98
-129 48z"/>
<path d="M17392 9133 c-29 -6 -54 -55 -46 -89 4 -15 19 -32 39 -41 29 -14 35
-14 63 1 49 25 47 102 -4 125 -14 6 -26 10 -27 10 -1 -1 -12 -4 -25 -6z"/>
<path d="M15788 9104 c-15 -8 -32 -23 -38 -34 -13 -24 -13 -76 0 -100 10 -18
8 -18 -17 -4 -45 23 -87 18 -122 -15 -26 -24 -31 -37 -31 -74 0 -38 5 -49 31
-71 61 -51 151 -24 165 50 4 20 2 46 -5 60 -10 23 1 35 14 14 3 -5 27 -10 51
-10 37 0 51 6 75 29 82 83 -20 212 -123 155z"/>
<path d="M13775 9065 c-71 -70 29 -179 106 -116 18 14 24 29 24 61 0 32 -6 47
-24 61 -32 27 -77 24 -106 -6z"/>
<path d="M13617 8982 c-23 -25 -22 -85 1 -105 25 -23 85 -22 105 1 23 25 22
85 -1 105 -25 23 -85 22 -105 -1z"/>
<path d="M16641 8986 c-47 -26 -55 -93 -16 -131 53 -54 145 -16 145 60 0 68
-67 105 -129 71z"/>
<path d="M4954 8911 c-53 -23 -72 -111 -31 -149 52 -49 108 -46 145 8 17 26
22 43 17 65 -11 58 -79 97 -131 76z"/>
<path d="M5660 8900 c-24 -24 -26 -57 -4 -88 11 -16 25 -22 54 -22 29 0 43 6
54 22 35 49 7 108 -50 108 -21 0 -42 -8 -54 -20z"/>
<path d="M13460 8900 c-41 -41 -12 -120 45 -120 31 0 75 41 75 70 0 29 -44 70
-75 70 -14 0 -34 -9 -45 -20z"/>
<path d="M15167 8860 c-48 -38 -44 -130 7 -165 11 -8 35 -15 52 -15 32 0 32
-1 27 -39 -3 -22 -3 -51 1 -66 7 -29 59 -65 94 -65 55 0 102 48 102 104 0 21
3 22 53 18 47 -4 55 -1 80 23 29 30 37 88 17 126 -12 22 -61 49 -89 49 -54 0
-101 -49 -101 -106 0 -20 -4 -25 -16 -20 -9 3 -31 6 -50 6 -31 0 -34 2 -24 19
5 11 10 38 10 59 0 33 -6 45 -31 66 -38 33 -95 35 -132 6z"/>
<path d="M16006 8714 c-20 -21 -26 -37 -26 -71 0 -62 32 -93 95 -93 64 0 95
31 95 95 0 63 -31 95 -93 95 -34 0 -50 -6 -71 -26z"/>
<path d="M13415 8695 c-31 -30 -32 -68 -3 -95 31 -28 72 -26 97 6 12 15 21 35
21 46 0 25 -44 68 -70 68 -11 0 -32 -11 -45 -25z"/>
<path d="M14127 8664 c-54 -29 -62 -100 -18 -145 34 -34 77 -38 119 -12 36 23
42 33 42 66 0 84 -71 130 -143 91z"/>
<path d="M3555 8651 c-39 -17 -60 -51 -60 -98 0 -37 5 -49 28 -69 41 -35 109
-34 142 2 33 36 34 102 3 139 -25 28 -79 41 -113 26z"/>
<path d="M15839 8581 c-39 -40 -41 -109 -4 -146 26 -27 89 -34 126 -15 22 12
49 61 49 89 0 88 -109 134 -171 72z"/>
<path d="M5600 8560 c-56 -56 10 -152 83 -119 70 32 48 139 -30 139 -20 0 -41
-8 -53 -20z"/>
<path d="M1969 8541 c-17 -13 -23 -29 -23 -56 0 -67 64 -96 118 -54 34 27 35
71 1 104 -29 30 -64 32 -96 6z"/>
<path d="M2988 8534 c-35 -18 -48 -43 -48 -89 0 -53 36 -85 94 -85 37 0 48 5
70 31 44 51 26 127 -35 148 -40 14 -48 14 -81 -5z"/>
<path d="M2709 8475 c-38 -20 -52 -67 -35 -110 38 -91 166 -65 166 34 0 32 -6
44 -31 65 -34 29 -61 32 -100 11z"/>
<path d="M3445 8466 c-63 -28 -81 -89 -43 -146 46 -69 135 -62 171 12 16 32
17 43 7 73 -19 58 -81 85 -135 61z"/>
<path d="M13611 8414 c-52 -67 12 -156 89 -124 36 15 50 37 50 78 0 67 -97 99
-139 46z"/>
<path d="M15232 8400 c-109 -67 -17 -235 96 -176 38 20 52 44 52 91 0 46 -23
81 -62 94 -42 15 -48 14 -86 -9z"/>
<path d="M13446 8358 c-37 -53 -8 -118 52 -118 45 0 58 8 71 43 20 51 -13 97
-70 97 -28 0 -42 -6 -53 -22z"/>
<path d="M2146 8349 c-55 -43 -23 -129 49 -129 70 0 100 76 50 125 -30 30 -64
32 -99 4z"/>
<path d="M13285 8305 c-14 -13 -25 -33 -25 -45 0 -28 43 -70 73 -70 33 0 67
35 67 70 0 35 -34 70 -67 70 -13 0 -35 -11 -48 -25z"/>
<path d="M17263 8302 c-23 -15 -32 -56 -18 -90 35 -82 156 -29 124 55 -13 34
-26 43 -64 43 -16 0 -35 -4 -42 -8z"/>
<path d="M5414 8286 c-37 -16 -54 -58 -43 -101 11 -39 34 -55 81 -55 51 0 78
27 78 80 0 38 -26 80 -49 80 -5 0 -15 2 -23 5 -7 2 -27 -2 -44 -9z"/>
<path d="M13563 8230 c-45 -18 -58 -95 -23 -130 25 -25 80 -26 109 -2 11 9 24
31 27 49 5 27 1 37 -24 63 -31 31 -51 35 -89 20z"/>
<path d="M5122 8190 c-24 -22 -37 -77 -28 -115 6 -22 3 -25 -23 -25 -59 0
-102 -92 -71 -151 13 -23 61 -49 92 -49 13 0 35 6 50 14 25 13 27 13 37 -13
15 -34 87 -66 122 -52 44 16 60 44 57 96 -2 39 -8 52 -31 68 -33 25 -89 27
-114 5 -17 -16 -19 -15 -29 18 -10 32 -10 34 12 34 13 0 36 11 51 24 23 20 28
32 28 71 0 39 -5 51 -28 71 -36 31 -94 32 -125 4z"/>
<path d="M13969 8181 c-16 -16 -29 -40 -29 -52 0 -20 -2 -21 -17 -7 -57 49
-153 7 -153 -67 0 -37 30 -74 70 -86 28 -9 37 -16 30 -23 -5 -5 -10 -30 -10
-53 0 -79 67 -116 141 -78 16 9 34 27 39 41 9 24 11 24 32 10 67 -47 158 8
158 95 0 41 -48 89 -89 89 -29 0 -30 1 -20 24 15 32 3 92 -22 117 -31 31 -94
26 -130 -10z"/>
<path d="M16325 8105 c-56 -55 -16 -145 63 -145 60 0 87 27 87 85 0 37 -5 51
-24 66 -34 28 -96 25 -126 -6z"/>
<path d="M15147 8109 c-29 -17 -49 -68 -43 -105 9 -43 57 -84 101 -84 42 0 91
39 100 79 7 34 -24 105 -50 115 -25 9 -88 7 -108 -5z"/>
<path d="M3219 8051 c-51 -51 -33 -137 32 -160 70 -24 129 19 129 94 0 86
-100 127 -161 66z"/>
<path d="M3675 8007 c-39 -39 -44 -70 -20 -117 19 -37 43 -50 92 -50 60 1 93
38 93 104 0 49 -34 86 -87 93 -39 5 -46 2 -78 -30z"/>
<path d="M5650 8010 c-27 -27 -27 -90 -1 -114 11 -10 36 -18 56 -18 51 0 75
25 75 77 0 28 -6 47 -18 58 -26 24 -87 22 -112 -3z"/>
<path d="M13455 8010 c-27 -30 -25 -88 4 -111 31 -25 86 -24 111 1 24 24 26
77 4 108 -21 30 -93 31 -119 2z"/>
<path d="M3425 7946 c-59 -26 -73 -106 -27 -157 24 -26 36 -32 72 -32 36 0 48
6 72 32 49 55 32 137 -34 160 -39 14 -46 13 -83 -3z"/>
<path d="M15679 7931 c-64 -65 -20 -171 71 -171 33 0 48 6 71 29 64 65 20 171
-71 171 -33 0 -48 -6 -71 -29z"/>
<path d="M2676 7907 c-55 -55 -18 -147 59 -147 48 0 85 36 85 83 0 48 -27 77
-77 84 -35 5 -45 2 -67 -20z"/>
<path d="M1950 7890 c-43 -43 -11 -120 50 -120 38 0 70 32 70 70 0 38 -32 70
-70 70 -17 0 -39 -9 -50 -20z"/>
<path d="M17166 7888 c-24 -34 -20 -73 10 -97 15 -12 34 -21 44 -21 30 0 70
39 70 69 0 45 -26 71 -70 71 -29 0 -43 -6 -54 -22z"/>
<path d="M16415 7875 c-67 -67 18 -175 103 -131 34 17 42 34 42 82 0 47 -29
74 -80 74 -30 0 -47 -7 -65 -25z"/>
<path d="M3147 7859 c-9 -5 -24 -24 -33 -41 -49 -94 63 -181 145 -112 26 21
31 33 31 69 0 36 -5 48 -31 69 -32 27 -80 34 -112 15z"/>
<path d="M2866 7759 c-21 -16 -26 -29 -26 -62 1 -49 16 -73 57 -87 58 -21 113
19 113 81 0 78 -82 117 -144 68z"/>
<path d="M5323 7755 c-40 -17 -63 -80 -45 -121 16 -33 15 -34 -9 -34 -11 0
-34 -13 -50 -29 -64 -65 -20 -171 71 -171 76 0 126 83 90 150 -9 17 -5 22 24
34 40 17 56 42 56 86 0 42 -15 67 -50 85 -35 18 -46 18 -87 0z"/>
<path d="M2591 7664 c-44 -56 -8 -134 62 -134 67 0 105 92 57 140 -31 31 -93
27 -119 -6z"/>
<path d="M3051 7644 c-25 -21 -31 -33 -31 -65 0 -55 34 -89 90 -89 56 0 90 34
90 89 0 32 -6 44 -31 65 -17 15 -43 26 -59 26 -16 0 -42 -11 -59 -26z"/>
<path d="M16064 7640 c-55 -22 -71 -99 -30 -147 52 -60 156 -22 156 58 0 51
-8 67 -41 84 -31 17 -54 18 -85 5z"/>
<path d="M15143 7626 c-42 -19 -56 -49 -50 -105 6 -50 31 -78 79 -88 25 -5 27
-8 15 -22 -33 -38 -25 -118 16 -146 25 -17 89 -20 118 -5 21 12 49 60 49 85 0
52 -51 105 -101 105 -20 0 -20 0 0 26 30 38 27 87 -6 124 -33 36 -76 45 -120
26z"/>
<path d="M6032 7604 c-24 -17 -30 -70 -12 -104 13 -24 63 -35 92 -19 31 16 38
28 38 67 0 61 -66 93 -118 56z"/>
<path d="M2343 7598 c-33 -16 -48 -61 -33 -97 24 -60 112 -63 139 -5 17 38 14
53 -18 85 -31 30 -52 35 -88 17z"/>
<path d="M13879 7589 c-85 -31 -50 -189 42 -189 71 0 118 56 105 124 -12 63
-76 91 -147 65z"/>
<path d="M4145 7525 c-30 -29 -34 -97 -9 -133 14 -20 14 -22 -1 -22 -51 0 -95
-52 -95 -111 0 -80 116 -121 173 -61 31 33 37 94 11 130 -14 20 -14 22 4 22
11 0 31 9 45 20 l25 20 7 -28 c11 -45 33 -71 71 -81 104 -29 176 96 98 170
-32 30 -102 33 -132 6 -19 -18 -20 -17 -26 17 -9 48 -47 76 -103 76 -33 0 -50
-6 -68 -25z"/>
<path d="M16312 7527 c-31 -33 -30 -90 3 -122 77 -77 194 39 120 119 -32 35
-92 36 -123 3z"/>
<path d="M3697 7520 c-52 -41 -44 -136 14 -165 73 -38 149 6 149 85 0 84 -97
132 -163 80z"/>
<path d="M13520 7507 c-81 -41 -50 -167 41 -167 54 0 89 31 89 80 0 52 -8 68
-41 85 -34 18 -56 19 -89 2z"/>
<path d="M12981 7433 c-11 -10 -24 -32 -27 -50 -13 -67 77 -110 124 -60 31 33
29 80 -4 106 -33 26 -65 27 -93 4z"/>
<path d="M3453 7425 c-61 -26 -74 -106 -24 -156 39 -38 87 -39 130 -3 25 21
31 33 31 66 0 50 -13 74 -50 93 -35 18 -46 18 -87 0z"/>
<path d="M2262 7380 c-45 -19 -51 -96 -9 -125 76 -53 163 57 91 114 -29 23
-46 25 -82 11z"/>
<path d="M13771 7376 c-80 -29 -82 -144 -3 -182 69 -33 142 14 142 91 0 46
-23 81 -62 94 -36 13 -33 13 -77 -3z"/>
<path d="M2717 7320 c-22 -17 -27 -29 -27 -64 0 -68 58 -103 118 -72 33 17 42
34 42 76 0 65 -80 101 -133 60z"/>
<path d="M3185 7329 c-33 -19 -45 -41 -45 -84 0 -71 67 -112 129 -80 53 27 67
95 29 140 -26 29 -82 41 -113 24z"/>
<path d="M16395 7315 c-54 -53 -18 -135 58 -135 50 0 77 28 77 80 0 75 -82
109 -135 55z"/>
<path d="M13392 7304 c-13 -9 -27 -27 -32 -40 l-9 -23 -30 29 c-38 38 -82 40
-116 5 -53 -52 -16 -145 58 -145 39 0 59 14 81 55 9 19 15 24 16 13 0 -9 12
-26 28 -38 21 -17 36 -21 67 -17 50 7 75 36 75 89 0 73 -78 114 -138 72z"/>
<path d="M15944 7311 c-49 -21 -66 -78 -39 -130 33 -66 133 -62 161 6 16 38 6
90 -21 113 -19 15 -76 21 -101 11z"/>
<path d="M5934 7293 c-58 -11 -81 -107 -35 -144 58 -47 141 -9 141 64 0 35
-27 77 -49 77 -5 0 -15 2 -23 4 -7 2 -23 1 -34 -1z"/>
<path d="M14844 7280 c-30 -12 -64 -58 -64 -88 l0 -25 -22 20 c-32 29 -63 36
-103 23 -44 -15 -65 -44 -65 -93 0 -49 13 -73 50 -92 37 -19 54 -19 95 0 33
17 55 50 55 87 l0 21 23 -20 c31 -29 62 -36 102 -23 43 14 65 44 65 87 0 52
-17 83 -55 98 -39 17 -51 17 -81 5z"/>
<path d="M13020 7253 c-41 -53 -6 -123 62 -123 49 0 78 28 78 75 0 48 -29 75
-79 75 -31 0 -44 -6 -61 -27z"/>
<path d="M16197 7190 c-33 -26 -43 -70 -23 -108 17 -33 34 -42 79 -42 38 1 63
17 76 51 31 82 -63 153 -132 99z"/>
<path d="M12569 7116 c-32 -15 -46 -58 -31 -90 23 -50 108 -45 126 7 20 57
-41 110 -95 83z"/>
<path d="M15554 7120 c-33 -13 -54 -50 -54 -96 0 -35 5 -47 32 -69 27 -23 39
-26 72 -22 52 7 86 44 86 93 0 46 -14 70 -50 89 -32 17 -54 18 -86 5z"/>
<path d="M2640 7100 c-31 -31 -27 -93 6 -119 15 -12 36 -21 48 -21 29 0 65 27
76 56 11 29 -5 81 -30 94 -31 16 -79 11 -100 -10z"/>
<path d="M14870 7052 c-65 -66 -22 -172 70 -172 33 0 48 6 72 30 27 28 30 36
25 77 -6 58 -32 84 -90 90 -41 5 -49 2 -77 -25z"/>
<path d="M4434 7011 c-12 -5 -31 -22 -44 -38 -29 -37 -23 -98 15 -130 37 -33
107 -32 140 2 34 33 35 103 3 140 -25 28 -79 40 -114 26z"/>
<path d="M2377 6992 c-23 -25 -22 -85 1 -105 25 -23 85 -22 105 1 23 25 22 85
-1 105 -25 23 -85 22 -105 -1z"/>
<path d="M3295 6985 c-81 -80 45 -208 129 -130 20 18 26 34 26 65 0 56 -34 90
-90 90 -30 0 -47 -6 -65 -25z"/>
<path d="M15820 6993 c-66 -25 -81 -103 -31 -154 20 -20 39 -29 61 -29 45 0
90 47 90 94 0 60 -67 110 -120 89z"/>
<path d="M2845 6965 c-46 -45 -22 -127 40 -136 34 -5 74 10 86 33 47 87 -58
172 -126 103z"/>
<path d="M16267 6978 c-41 -32 -39 -115 3 -138 85 -45 176 64 107 128 -26 25
-83 30 -110 10z"/>
<path d="M12422 6964 c-16 -11 -22 -25 -22 -54 0 -29 6 -43 22 -54 49 -35 108
-7 108 50 0 62 -58 94 -108 58z"/>
<path d="M15131 6934 c-27 -22 -31 -32 -31 -75 0 -67 30 -99 93 -99 56 0 94
28 103 76 18 98 -89 162 -165 98z"/>
<path d="M5981 6916 c-48 -51 -22 -138 43 -150 39 -8 89 12 100 39 14 38 6 91
-17 113 -33 31 -96 30 -126 -2z"/>
<path d="M6173 6925 c-30 -21 -39 -74 -19 -114 9 -17 22 -31 29 -32 6 0 -2 -7
-20 -15 -59 -25 -78 -77 -48 -133 16 -33 33 -41 81 -41 81 0 116 102 53 154
-28 23 -28 26 -9 26 34 0 70 44 70 85 0 70 -80 110 -137 70z"/>
<path d="M12275 6815 c-30 -30 -31 -54 -4 -89 14 -17 30 -26 50 -26 65 0 93
80 43 119 -35 27 -59 26 -89 -4z"/>
<path d="M3695 6788 c-23 -27 -26 -39 -22 -72 7 -52 44 -86 93 -86 46 0 70 14
90 52 35 68 -11 138 -91 138 -36 0 -48 -5 -70 -32z"/>
<path d="M14737 6799 c-48 -28 -57 -114 -16 -157 54 -58 154 -29 173 50 8 34
-15 93 -42 107 -26 14 -91 14 -115 0z"/>
<path d="M12616 6769 c-54 -42 -18 -139 52 -139 48 0 77 30 77 80 0 32 -6 47
-24 61 -30 25 -72 24 -105 -2z"/>
<path d="M15845 6755 c-56 -55 -16 -145 63 -145 60 0 87 27 87 85 0 37 -5 51
-24 66 -34 28 -96 25 -126 -6z"/>
<path d="M13145 6745 c-19 -18 -25 -35 -25 -67 0 -24 6 -50 13 -58 14 -18 91
-65 82 -50 -3 5 7 12 22 16 49 12 63 32 63 90 0 45 -4 56 -26 73 -38 30 -98
28 -129 -4z"/>
<path d="M3449 6671 c-37 -37 -39 -88 -6 -127 19 -21 32 -27 67 -27 56 0 90
35 90 93 0 30 -6 43 -31 64 -41 35 -83 34 -120 -3z"/>
<path d="M12116 6678 c-36 -51 -7 -108 54 -108 29 0 43 6 54 22 36 51 7 108
-54 108 -29 0 -43 -6 -54 -22z"/>
<path d="M6860 6662 c-32 -10 -50 -36 -50 -72 0 -46 25 -70 72 -70 44 0 68 25
68 72 0 48 -46 84 -90 70z"/>
<path d="M16130 6647 c-14 -7 -31 -25 -38 -41 -40 -82 68 -156 133 -91 64 63
-16 173 -95 132z"/>
<path d="M6680 6633 c-52 -20 -69 -94 -30 -133 47 -47 134 -12 134 54 0 55
-56 97 -104 79z"/>
<path d="M12653 6610 c-28 -11 -43 -40 -43 -83 0 -43 34 -77 77 -77 45 0 62 9
79 42 39 74 -34 150 -113 118z"/>
<path d="M6470 6590 c-40 -40 -32 -113 16 -134 21 -9 20 -10 -9 -25 -25 -13
-40 -29 -53 -59 -1 -2 -13 8 -27 22 -39 38 -99 36 -137 -4 -22 -24 -30 -28
-37 -17 -21 37 -84 47 -133 22 -57 -29 -61 -132 -7 -170 34 -24 99 -19 131 10
14 13 26 30 26 37 0 7 7 3 15 -9 20 -29 98 -40 131 -19 13 9 27 28 30 41 l6
25 24 -24 25 -24 -31 -30 c-32 -33 -35 -48 -20 -101 12 -43 36 -60 83 -61 30
0 45 7 69 30 27 28 30 36 25 73 -4 27 -14 49 -30 62 l-23 21 28 26 c22 20 28
34 28 67 0 40 -25 81 -50 81 -5 0 -10 5 -10 10 0 6 7 10 15 10 29 0 55 38 55
80 0 27 -7 47 -20 60 -27 27 -93 27 -120 0z"/>
<path d="M15453 6600 c-12 -5 -29 -23 -38 -41 -35 -67 10 -139 87 -139 55 0
88 34 88 92 0 24 -6 50 -13 59 -27 36 -78 48 -124 29z"/>
<path d="M2740 6498 c-43 -46 -6 -128 58 -128 61 0 96 86 52 130 -27 27 -83
27 -110 -2z"/>
<path d="M4709 6481 c-38 -38 -40 -97 -5 -137 l23 -28 -31 -15 c-61 -31 -72
-113 -20 -162 33 -31 102 -33 133 -5 43 39 44 123 0 158 l-20 17 25 7 c15 3
35 18 46 31 18 23 20 24 20 6 0 -11 11 -32 24 -46 92 -100 237 28 150 132 -22
27 -32 31 -74 31 -42 0 -52 -4 -74 -31 -24 -28 -26 -29 -26 -9 0 12 -13 35
-29 51 -23 23 -38 29 -71 29 -33 0 -48 -6 -71 -29z"/>
<path d="M12490 6457 c-33 -17 -53 -60 -45 -97 20 -92 165 -75 165 19 0 45
-14 67 -51 80 -39 14 -38 14 -69 -2z"/>
<path d="M11799 6439 c-45 -45 3 -129 65 -113 54 13 70 78 30 118 -22 22 -70
20 -95 -5z"/>
<path d="M7159 6382 c-38 -31 -29 -41 54 -64 58 -16 35 -17 -45 -1 -20 4 -28
1 -28 -8 0 -27 18 -41 57 -46 49 -6 83 21 83 65 -1 66 -70 97 -121 54z"/>
<path d="M11966 6389 c-34 -27 -35 -71 -1 -104 13 -14 36 -25 50 -25 33 0 75
42 75 75 0 33 -41 75 -73 75 -13 0 -36 -9 -51 -21z"/>
<path d="M16636 6379 c-52 -41 -21 -119 47 -119 42 0 67 26 67 68 0 64 -62 92
-114 51z"/>
<path d="M7495 6325 c-14 -13 -25 -33 -25 -45 0 -26 43 -70 68 -70 33 0 72 38
72 71 0 63 -70 90 -115 44z"/>
<path d="M3162 6297 c-50 -53 -13 -137 59 -137 49 0 79 30 79 80 0 51 -30 80
-80 80 -25 0 -43 -7 -58 -23z"/>
<path d="M3825 6285 c-19 -18 -25 -35 -25 -69 0 -37 5 -48 31 -70 78 -66 185
13 145 107 -17 42 -41 57 -91 57 -25 0 -43 -8 -60 -25z"/>
<path d="M2696 6271 c-23 -25 -23 -76 -1 -101 24 -26 79 -26 105 0 26 26 26
81 2 103 -25 23 -85 22 -106 -2z"/>
<path d="M7349 6283 c-9 -2 -24 -18 -33 -36 -30 -55 7 -107 75 -107 29 0 59
36 59 71 0 53 -48 87 -101 72z"/>
<path d="M16416 6259 c-20 -16 -26 -29 -26 -59 0 -44 26 -70 70 -70 44 0 70
26 70 70 0 30 -6 43 -26 59 -15 12 -34 21 -44 21 -10 0 -29 -9 -44 -21z"/>
<path d="M7670 6230 c-28 -28 -27 -84 2 -104 51 -36 108 -7 108 54 0 29 -6 43
-22 54 -31 22 -64 20 -88 -4z"/>
<path d="M7151 6204 c-25 -32 -27 -62 -5 -92 22 -32 57 -43 94 -31 35 13 50
35 50 78 0 69 -96 100 -139 45z"/>
<path d="M15724 6206 c-57 -48 -22 -146 52 -146 46 0 63 9 80 42 20 38 10 82
-23 108 -34 27 -76 25 -109 -4z"/>
<path d="M14864 6184 c-77 -38 -70 -157 11 -184 43 -14 97 1 120 33 20 28 19
91 -1 122 -14 21 -61 45 -88 45 -6 0 -25 -7 -42 -16z"/>
<path d="M7015 6179 c-39 -11 -55 -34 -55 -81 0 -49 28 -78 76 -78 47 0 70 13
82 48 23 67 -35 130 -103 111z"/>
<path d="M16204 6172 c-39 -26 -40 -100 -1 -127 73 -51 162 38 107 108 -16 21
-30 27 -58 27 -20 0 -42 -4 -48 -8z"/>
<path d="M7865 6148 c-28 -16 -35 -28 -35 -65 0 -57 77 -85 115 -43 21 23 23
77 3 96 -20 19 -61 25 -83 12z"/>
<path d="M14664 6141 c-40 -17 -66 -62 -61 -104 10 -70 63 -105 133 -85 43 12
64 42 64 95 0 73 -71 122 -136 94z"/>
<path d="M7360 6107 c-32 -16 -52 -55 -45 -87 13 -59 92 -81 133 -37 59 63
-12 163 -88 124z"/>
<path d="M4668 6084 c-17 -9 -32 -28 -39 -53 -20 -67 27 -131 96 -131 40 0 73
21 91 58 44 92 -55 177 -148 126z"/>
<path d="M7690 6060 c-24 -24 -27 -82 -4 -104 56 -56 147 -6 128 70 -13 52
-86 72 -124 34z"/>
<path d="M11428 6063 c-39 -44 -27 -104 24 -122 75 -26 134 63 78 119 -25 25
-81 27 -102 3z"/>
<path d="M12655 6057 c-20 -16 -28 -35 -32 -69 -5 -42 -3 -50 25 -78 67 -67
172 -18 172 80 0 76 -105 119 -165 67z"/>
<path d="M15299 6067 c-47 -36 -51 -97 -10 -138 60 -59 156 -23 156 59 0 57
-34 92 -89 92 -23 0 -48 -6 -57 -13z"/>
<path d="M8035 6056 c-13 -9 -19 -26 -19 -51 0 -25 6 -42 19 -51 27 -20 79
-17 98 4 22 25 21 75 -1 95 -23 21 -71 22 -97 3z"/>
<path d="M11935 6035 c-35 -34 -33 -78 4 -116 40 -40 93 -36 128 10 11 14 12
12 13 -14 1 -33 15 -55 45 -73 20 -11 20 -11 -1 -12 -25 0 -60 -36 -69 -71 -9
-35 17 -95 45 -104 20 -6 17 -10 -27 -39 l-49 -32 -79 11 c-69 10 -80 9 -84
-4 -2 -8 9 -25 23 -38 23 -19 24 -23 9 -23 -10 0 -28 -7 -40 -15 -19 -14 -22
-13 -33 16 -14 32 -55 59 -90 59 -26 0 -60 -17 -60 -30 0 -5 32 -28 70 -51 68
-40 70 -42 70 -81 0 -84 101 -130 165 -75 20 16 28 35 32 69 5 42 2 50 -23 76
l-29 29 33 10 c27 8 35 8 39 -3 3 -8 9 -14 14 -14 19 0 149 92 149 106 0 8 -4
12 -10 9 -5 -3 -10 -2 -10 3 0 5 9 12 20 15 11 3 27 18 36 34 l17 29 85 -8
c47 -4 88 -5 91 -2 3 3 0 13 -5 22 -14 22 -130 39 -156 23 -15 -10 -18 -8 -18
13 0 14 -10 33 -24 44 l-25 19 29 21 c49 37 50 112 1 149 -28 22 -89 16 -116
-12 l-25 -24 0 25 c0 37 -42 74 -85 74 -25 0 -44 -8 -60 -25z"/>
<path d="M16446 6018 c-24 -34 -20 -73 10 -97 15 -12 34 -21 44 -21 30 0 70
39 70 69 0 45 -26 71 -70 71 -29 0 -43 -6 -54 -22z"/>
<path d="M4034 6020 c-56 -22 -72 -107 -29 -154 19 -21 33 -26 69 -26 37 0 48
5 70 31 67 79 -14 188 -110 149z"/>
<path d="M15079 6001 c-21 -22 -29 -39 -29 -66 0 -51 44 -95 95 -95 51 0 95
44 95 95 0 51 -44 95 -95 95 -27 0 -44 -8 -66 -29z"/>
<path d="M6989 5981 c-16 -16 -29 -40 -29 -53 l-1 -23 -12 22 c-7 12 -14 22
-17 22 -3 0 -13 3 -22 6 -36 14 -35 -2 2 -75 l39 -75 11 32 12 32 21 -19 c11
-11 24 -20 28 -20 5 0 -3 -11 -16 -25 -40 -39 -30 -126 17 -155 l29 -18 -23
-18 c-32 -25 -38 -103 -11 -120 15 -9 29 -1 88 53 l70 64 -22 18 -22 18 23 45
c23 45 23 45 45 27 21 -17 21 -19 6 -43 -16 -24 -16 -25 22 -49 21 -13 49 -29
61 -36 13 -7 22 -15 19 -17 -3 -3 -29 8 -59 25 -54 31 -68 31 -68 3 0 -7 -25
-43 -56 -78 -59 -67 -59 -81 1 -70 27 5 50 29 70 73 10 22 10 22 34 4 l24 -19
-21 -27 c-34 -43 -29 -59 16 -52 96 16 102 15 40 -5 -75 -23 -82 -35 -43 -73
36 -37 97 -35 136 4 16 17 29 40 29 54 0 37 -27 95 -51 107 -11 7 -18 14 -15
17 3 3 -2 12 -12 19 -15 12 -15 12 6 7 18 -4 23 0 28 26 6 29 8 30 27 16 32
-23 82 -19 114 9 39 34 39 98 0 132 -16 13 -40 24 -55 25 -25 0 -26 1 -6 9 83
33 63 160 -25 160 -20 0 -46 -7 -58 -15 -47 -33 -36 -117 19 -143 l27 -12 -25
-25 c-13 -13 -24 -35 -24 -49 l0 -25 -32 17 c-18 9 -35 18 -37 20 -3 1 5 11
17 22 21 20 27 42 22 85 -2 21 -37 65 -52 65 -4 0 -8 -39 -8 -87 0 -109 -8
-105 -11 5 -2 79 -3 82 -26 82 -29 0 -73 -42 -73 -69 0 -20 -1 -20 -33 2 l-32
21 22 23 c26 25 31 87 10 114 -36 47 -97 51 -138 10z"/>
<path d="M7525 5985 c-16 -15 -25 -36 -25 -55 0 -19 9 -40 25 -55 15 -16 36
-25 55 -25 19 0 40 9 55 25 16 15 25 36 25 55 0 19 -9 40 -25 55 -15 16 -36
25 -55 25 -19 0 -40 -9 -55 -25z"/>
<path d="M15759 5981 c-31 -32 -36 -55 -18 -95 20 -44 96 -58 136 -25 36 30
21 117 -23 138 -40 18 -63 13 -95 -18z"/>
<path d="M3341 5974 c-56 -71 17 -161 104 -128 25 10 47 62 40 95 -14 61 -105
82 -144 33z"/>
<path d="M8221 5974 c-24 -30 -24 -34 -11 -68 26 -70 130 -50 130 25 0 65 -80
93 -119 43z"/>
<path d="M7882 5967 c-45 -48 -16 -127 47 -127 45 0 75 30 75 75 0 68 -77 100
-122 52z"/>
<path d="M11238 5973 c-37 -43 -28 -101 19 -122 73 -33 139 63 83 119 -25 25
-81 27 -102 3z"/>
<path d="M14900 5973 c-40 -16 -60 -46 -60 -94 0 -41 4 -51 32 -74 27 -23 39
-26 72 -22 112 15 117 178 6 192 -19 2 -42 2 -50 -2z"/>
<path d="M11765 5938 c-49 -29 -60 -87 -24 -132 44 -56 149 -19 149 53 0 59
-77 108 -125 79z"/>
<path d="M8427 5920 c-33 -26 -36 -71 -7 -100 45 -45 130 -1 115 60 -13 54
-65 73 -108 40z"/>
<path d="M10700 5920 c-41 -41 -12 -120 45 -120 31 0 75 41 75 70 0 29 -44 70
-75 70 -14 0 -34 -9 -45 -20z"/>
<path d="M8081 5893 c-11 -10 -24 -32 -27 -50 -5 -26 -1 -37 19 -57 51 -51
127 -22 127 48 0 62 -72 97 -119 59z"/>
<path d="M14488 5893 c-59 -9 -94 -87 -67 -147 27 -59 128 -71 169 -19 22 28
27 91 9 125 -9 16 -71 52 -81 47 -2 -1 -15 -4 -30 -6z"/>
<path d="M4639 5861 c-64 -65 -20 -171 71 -171 80 0 123 76 85 151 -30 56
-109 66 -156 20z"/>
<path d="M10497 5862 c-22 -25 -21 -75 1 -95 19 -17 68 -22 88 -9 37 24 39 93
4 112 -30 16 -75 12 -93 -8z"/>
<path d="M3122 5843 c-21 -8 -44 -62 -36 -86 12 -39 35 -57 75 -57 43 0 79 35
79 77 0 49 -67 87 -118 66z"/>
<path d="M8290 5827 c-14 -7 -28 -27 -34 -45 -13 -46 17 -86 67 -90 46 -4 77
25 77 71 0 56 -60 90 -110 64z"/>
<path d="M8826 5819 c-33 -26 -34 -68 -3 -97 32 -30 71 -28 96 4 27 35 26 59
-4 89 -30 30 -54 31 -89 4z"/>
<path d="M5259 5791 c-23 -23 -29 -38 -29 -71 0 -33 6 -48 29 -71 23 -23 38
-29 71 -29 33 0 48 6 71 29 23 23 29 38 29 71 0 33 -6 48 -29 71 -23 23 -38
29 -71 29 -33 0 -48 -6 -71 -29z"/>
<path d="M7923 5805 c-44 -31 -37 -111 13 -134 38 -17 63 -13 89 14 70 69 -21
177 -102 120z"/>
<path d="M4005 5798 c-52 -30 -62 -102 -20 -143 56 -56 155 -18 155 60 0 69
-77 116 -135 83z"/>
<path d="M3350 5773 c-34 -12 -50 -37 -50 -75 0 -47 28 -78 71 -78 43 0 65 15
78 50 22 65 -36 126 -99 103z"/>
<path d="M8515 5772 c-52 -11 -72 -73 -39 -120 19 -28 83 -31 106 -4 52 58 8
140 -67 124z"/>
<path d="M7772 5733 c-22 -9 -44 -64 -38 -96 l6 -30 -21 27 c-16 21 -29 26
-63 26 -23 0 -51 -7 -63 -15 -49 -34 -33 -134 25 -156 56 -22 122 20 122 78 0
33 1 34 22 19 58 -41 138 -1 138 69 0 63 -66 103 -128 78z"/>
<path d="M2877 5680 c-54 -43 -25 -123 45 -123 57 0 88 67 51 111 -27 32 -64
37 -96 12z"/>
<path d="M16251 5674 c-41 -53 -13 -114 52 -114 42 0 67 26 67 68 0 67 -79 97
-119 46z"/>
<path d="M10235 5678 c-33 -19 -45 -41 -39 -73 11 -57 66 -82 112 -49 26 18
29 41 5 47 -14 4 -12 5 5 6 31 1 29 34 -4 60 -30 24 -50 26 -79 9z"/>
<path d="M8896 5658 c-37 -52 -5 -118 57 -118 38 0 50 7 66 38 16 29 5 79 -19
92 -34 18 -87 12 -104 -12z"/>
<path d="M14449 5651 c-64 -65 -20 -171 71 -171 33 0 48 6 71 29 64 65 20 171
-71 171 -33 0 -48 -6 -71 -29z"/>
<path d="M8327 5652 c-23 -26 -22 -94 1 -115 27 -24 94 -22 117 3 24 26 23 84
-1 111 -23 26 -94 26 -117 1z"/>
<path d="M11524 5656 c-35 -16 -44 -32 -44 -84 0 -23 8 -44 22 -59 19 -20 19
-23 4 -23 -31 0 -76 -55 -76 -93 0 -18 3 -37 7 -41 18 -18 12 -44 -12 -50 -14
-4 -25 -10 -25 -14 0 -7 143 -82 155 -82 13 0 3 40 -15 63 -23 29 -25 41 -7
34 6 -2 20 2 29 11 16 13 18 12 28 -14 16 -41 48 -72 81 -79 30 -7 69 1 69 14
0 4 -34 26 -75 50 -77 44 -80 47 -66 69 6 10 26 3 85 -32 94 -55 105 -57 102
-13 -4 49 -9 61 -36 79 -24 17 -24 18 -3 18 12 0 24 4 27 9 7 10 -114 85 -122
76 -3 -3 0 -20 6 -38 15 -41 15 -47 0 -47 -6 0 -20 -7 -30 -17 -17 -15 -18
-15 -18 0 0 10 -3 17 -6 17 -8 0 -106 -81 -116 -95 -5 -6 -13 -5 -22 5 -13 13
-7 22 55 74 67 56 69 59 53 77 -16 18 -16 19 9 19 81 0 101 127 26 165 -34 18
-45 18 -85 1z"/>
<path d="M9150 5653 c-33 -12 -50 -37 -50 -73 0 -46 25 -70 72 -70 44 0 68 25
68 72 0 48 -48 86 -90 71z"/>
<path d="M10000 5640 c-20 -20 -27 -74 -12 -96 10 -16 48 -34 69 -34 31 0 63
37 63 74 0 66 -75 101 -120 56z"/>
<path d="M14239 5621 c-41 -42 -41 -101 1 -143 28 -28 36 -30 78 -25 60 7 92
41 92 98 0 57 -42 99 -100 99 -33 0 -48 -6 -71 -29z"/>
<path d="M9355 5628 c-28 -16 -35 -28 -35 -65 0 -62 66 -94 118 -57 16 11 22
25 22 54 0 64 -52 98 -105 68z"/>
<path d="M9782 5624 c-16 -11 -22 -25 -22 -54 0 -101 130 -105 138 -5 3 31 -1
42 -20 57 -29 22 -67 23 -96 2z"/>
<path d="M8563 5610 c-47 -19 -58 -92 -20 -128 15 -14 36 -22 59 -22 82 0 106
115 31 149 -28 13 -40 13 -70 1z"/>
<path d="M13431 5606 c-56 -31 -67 -108 -23 -155 27 -30 41 -34 95 -32 41 2
77 45 77 93 0 50 -13 74 -50 93 -35 18 -67 19 -99 1z"/>
<path d="M16020 5580 c-25 -25 -27 -81 -2 -102 27 -23 49 -28 81 -17 32 11 55
56 44 87 -19 53 -84 71 -123 32z"/>
<path d="M10926 5559 c-21 -16 -26 -29 -26 -64 0 -35 5 -48 26 -64 35 -28 76
-27 110 3 83 70 -24 192 -110 125z"/>
<path d="M8766 5549 c-20 -16 -26 -29 -26 -59 0 -84 108 -112 146 -38 12 24
13 36 4 64 -19 56 -75 72 -124 33z"/>
<path d="M10344 5554 c-13 -11 -15 -17 -6 -20 17 -8 15 -25 -3 -18 -11 5 -15
-1 -15 -25 0 -35 37 -81 65 -81 26 0 56 20 49 32 -5 7 -2 8 6 3 34 -21 42 73
8 105 -26 24 -76 26 -104 4z"/>
<path d="M10158 5532 c-33 -4 -68 -45 -68 -79 0 -57 88 -95 136 -58 17 13 17
16 4 26 -13 9 -12 10 3 5 14 -4 17 1 17 27 0 33 -24 71 -50 78 -8 3 -27 3 -42
1z"/>
<path d="M14885 5495 c-58 -57 -15 -155 67 -155 54 0 88 35 88 90 0 56 -34 90
-90 90 -30 0 -47 -6 -65 -25z"/>
<path d="M8412 5503 c-17 -6 -42 -57 -42 -83 0 -30 53 -80 85 -80 l26 0 -20
-26 c-12 -15 -21 -40 -21 -56 0 -26 -2 -28 -21 -17 -31 16 -85 2 -109 -28 -25
-31 -26 -75 -3 -111 22 -34 33 -42 60 -42 21 0 21 -1 6 -31 -41 -81 43 -173
129 -140 34 13 61 53 62 92 1 20 5 28 14 24 8 -3 22 -5 33 -5 16 0 18 -3 9
-19 -20 -39 -12 -91 19 -122 62 -62 171 -20 171 66 0 36 1 36 31 30 59 -13
131 57 116 114 -4 17 0 18 34 14 33 -5 42 -1 69 25 33 34 38 67 15 111 -16 33
-33 41 -81 41 -51 0 -87 -39 -82 -88 l3 -37 -42 3 c-38 4 -42 6 -33 22 19 35
12 89 -15 115 -53 53 -148 16 -149 -59 -1 -26 -5 -35 -14 -31 -8 3 -25 5 -38
5 -21 0 -23 3 -14 19 32 61 -8 141 -70 141 -30 0 -31 1 -16 22 52 74 -26 166
-112 131z"/>
<path d="M9209 5491 c-18 -14 -24 -29 -24 -61 0 -32 6 -47 24 -61 53 -43 131
-7 131 61 0 68 -78 104 -131 61z"/>
<path d="M9890 5490 c-26 -26 -27 -90 -2 -113 54 -49 132 -18 132 52 0 49 -29
81 -75 81 -22 0 -43 -8 -55 -20z"/>
<path d="M9453 5490 c-45 -19 -56 -80 -22 -124 44 -56 139 -20 139 54 0 55
-63 93 -117 70z"/>
<path d="M9684 5489 c-23 -12 -44 -49 -44 -78 0 -10 9 -30 21 -45 44 -55 139
-21 139 51 0 59 -64 98 -116 72z"/>
<path d="M8043 5476 c-34 -16 -53 -42 -53 -76 0 -18 -4 -20 -17 -14 -36 16
-91 9 -118 -16 -46 -43 -24 -145 34 -156 l28 -6 -20 -39 c-16 -33 -17 -44 -7
-74 15 -46 44 -65 98 -65 49 0 86 29 98 76 9 36 -22 93 -63 115 -27 14 -29 17
-17 34 8 10 14 30 14 43 0 20 3 22 23 16 66 -23 127 16 127 81 0 40 -33 82
-70 89 -14 3 -39 -1 -57 -8z"/>
<path d="M10486 5438 c-36 -33 -43 -71 -17 -97 12 -12 21 -25 21 -30 0 -24 61
-27 94 -6 l23 16 -10 -40 c-9 -32 -8 -44 6 -65 17 -26 17 -26 -8 -26 -15 0
-35 -5 -45 -10 -18 -9 -19 -8 -14 19 6 30 -9 68 -35 88 -19 15 -75 17 -100 4
-13 -7 -20 -5 -28 9 -10 15 -9 17 8 13 42 -11 6 81 -39 98 -57 22 -111 -18
-112 -83 0 -51 39 -82 95 -76 l40 5 0 -53 c0 -44 -3 -53 -20 -57 -11 -2 -27
-7 -35 -11 -13 -5 -15 1 -12 33 3 33 -1 45 -23 67 -23 23 -33 26 -73 22 l-47
-5 3 46 c4 58 -21 86 -78 86 -54 0 -80 -27 -80 -82 0 -60 27 -86 85 -81 l42 3
-4 -36 c-3 -20 -1 -45 5 -56 10 -17 7 -19 -25 -20 -51 -2 -86 -39 -86 -93 0
-57 37 -95 93 -95 40 0 40 0 40 -38 0 -50 43 -97 90 -97 76 0 122 59 103 131
l-10 39 32 0 c30 0 33 -3 38 -41 8 -60 36 -84 98 -84 45 0 54 4 75 30 l24 30
-43 22 c-23 12 -37 22 -32 22 6 0 21 -6 35 -14 14 -8 28 -14 33 -15 15 0 6 59
-14 84 l-20 26 55 67 c40 50 52 71 44 80 -7 8 -7 13 -1 13 14 0 66 146 58 161
-7 11 -56 8 -86 -5 -13 -6 -15 -1 -11 24 l5 32 -53 -27 c-29 -14 -50 -22 -46
-17 3 5 23 17 45 27 51 22 57 39 24 65 -34 26 -76 25 -107 -2z"/>
<path d="M14463 5445 c-34 -24 -47 -76 -29 -118 17 -43 41 -57 96 -57 55 0 90
36 90 92 0 78 -94 127 -157 83z"/>
<path d="M7500 5408 c-44 -12 -69 -43 -70 -85 0 -69 36 -103 110 -103 30 0 43
6 64 31 14 17 26 41 26 54 0 37 -30 92 -57 104 -27 13 -26 13 -73 -1z"/>
<path d="M3780 5387 c-14 -7 -31 -25 -38 -39 -38 -81 70 -157 133 -93 35 34
33 78 -4 116 -32 32 -53 35 -91 16z"/>
<path d="M9080 5360 c-14 -14 -20 -33 -20 -63 0 -56 26 -82 82 -82 51 0 78 30
78 86 0 52 -27 79 -80 79 -27 0 -47 -7 -60 -20z"/>
<path d="M13177 5359 c-6 -21 31 -91 61 -116 12 -10 10 -13 -14 -19 -34 -8
-63 -31 -75 -59 -8 -20 -8 -19 -8 1 -1 34 -38 73 -77 80 -100 19 -165 -96 -95
-167 l29 -29 -24 -6 c-63 -16 -87 -116 -39 -168 20 -21 33 -26 74 -26 43 0 53
4 75 31 23 28 26 28 26 9 0 -11 11 -32 25 -46 l25 -25 -23 -8 c-90 -35 -81
-175 13 -196 43 -9 98 18 115 57 l14 33 7 -32 c16 -77 115 -107 171 -51 53 53
28 147 -43 167 -50 14 -100 -7 -118 -50 l-13 -31 -12 33 c-6 18 -21 43 -33 56
-21 22 -21 23 -1 23 11 0 30 12 44 26 46 49 26 141 -36 164 -16 6 -12 8 17 14
22 4 45 17 57 32 l20 25 15 -29 c30 -59 125 -67 166 -15 30 38 27 106 -5 138
-36 37 -106 35 -144 -3 l-28 -28 -11 28 c-6 17 -24 34 -44 43 -19 8 -25 14
-15 15 9 0 17 3 17 7 0 12 -92 143 -100 143 -4 0 -10 -10 -13 -21z"/>
<path d="M9805 5358 c-52 -30 -61 -93 -19 -134 20 -21 33 -25 62 -22 l37 3 0
-55 0 -56 -36 -1 c-32 -2 -36 1 -32 17 15 57 -28 110 -87 110 -86 0 -121 -90
-60 -152 26 -26 36 -30 67 -25 35 6 35 6 29 -23 -3 -17 -2 -40 3 -53 8 -21 6
-22 -28 -19 -28 2 -43 -4 -67 -27 -40 -37 -48 -62 -34 -105 14 -44 48 -66 100
-66 69 0 114 64 92 130 -11 29 -10 30 14 24 18 -5 36 1 64 21 43 30 57 66 41
108 -10 26 -9 27 20 27 21 0 40 10 61 30 26 27 30 36 25 68 -9 53 -49 86 -98
79 l-37 -5 5 35 c12 73 -59 127 -122 91z"/>
<path d="M9311 5334 c-45 -57 -9 -136 63 -136 31 0 36 -3 30 -16 -5 -10 -8
-34 -8 -54 0 -37 -1 -38 -36 -38 -46 0 -76 -21 -90 -64 -13 -41 -2 -75 36
-105 35 -28 68 -27 109 4 37 29 49 62 36 99 -10 24 -9 24 23 19 49 -8 96 35
96 88 0 59 -36 92 -94 87 -42 -3 -43 -2 -30 17 20 28 17 68 -7 99 -16 21 -29
26 -64 26 -35 0 -48 -5 -64 -26z"/>
<path d="M10925 5299 c-42 -35 -68 -49 -90 -49 -17 0 -39 -6 -50 -14 -19 -13
-20 -12 -17 23 3 26 -2 41 -15 53 -18 17 -20 14 -47 -58 -15 -42 -26 -78 -23
-80 2 -3 16 0 31 5 25 10 26 9 26 -20 0 -17 5 -39 10 -50 15 -28 68 -52 104
-46 19 2 35 -1 41 -9 16 -21 178 34 172 58 -3 9 0 19 7 21 12 5 6 170 -7 183
-14 14 -55 -8 -72 -39 -17 -32 -17 -70 -1 -107 4 -11 -3 -18 -29 -26 l-35 -11
0 33 c0 18 -4 36 -10 39 -18 11 -11 22 20 35 41 17 77 89 53 103 -5 3 -35 -17
-68 -44z"/>
<path d="M11100 5224 c0 -72 2 -85 15 -80 11 4 15 -2 15 -20 0 -38 22 -39 110
-3 88 35 95 47 49 82 -34 25 -89 30 -111 9 -17 -14 -18 -13 -18 12 0 33 -29
86 -47 86 -10 0 -13 -23 -13 -86z"/>
<path d="M14034 5194 c-57 -28 -71 -102 -29 -152 29 -34 63 -44 111 -30 42 11
64 42 64 91 0 49 -13 73 -50 92 -36 19 -57 19 -96 -1z"/>
<path d="M5494 5166 c-33 -33 -36 -40 -31 -79 8 -57 43 -87 103 -87 62 0 94
32 94 94 0 60 -30 95 -87 103 -39 5 -46 2 -79 -31z"/>
<path d="M3755 5145 c-16 -15 -25 -36 -25 -55 0 -19 9 -40 25 -55 15 -16 36
-25 55 -25 19 0 40 9 55 25 50 49 15 135 -55 135 -19 0 -40 -9 -55 -25z"/>
<path d="M15110 5083 c-44 -56 -5 -133 67 -133 70 0 107 77 62 134 -16 21 -29
26 -64 26 -36 0 -47 -5 -65 -27z"/>
<path d="M4240 5073 c-61 -23 -78 -91 -36 -139 49 -58 146 -20 146 56 0 52
-65 100 -110 83z"/>
<path d="M6361 5067 c-55 -32 -67 -107 -25 -156 22 -27 32 -31 75 -31 40 0 55
5 74 25 34 33 35 103 2 140 -27 32 -90 42 -126 22z"/>
<path d="M10988 5053 c-97 -28 -110 -44 -62 -82 44 -35 128 -19 154 28 12 23
14 82 3 80 -5 -1 -47 -12 -95 -26z"/>
<path d="M12730 5037 c-32 -26 -17 -102 27 -137 l26 -20 -27 0 c-38 0 -63 -16
-81 -50 -8 -16 -25 -32 -37 -36 -72 -22 -127 -47 -123 -55 4 -5 24 -9 46 -9
31 0 47 7 69 28 l28 28 11 -38 c23 -75 131 -93 178 -29 31 42 21 111 -20 143
-20 15 -20 17 -5 23 16 6 13 16 -25 86 -23 43 -44 79 -47 79 -3 -1 -12 -6 -20
-13z"/>
<path d="M15807 5022 c-21 -23 -22 -76 -1 -96 59 -59 153 10 113 83 -19 34
-86 42 -112 13z"/>
<path d="M5929 4991 c-38 -39 -40 -97 -5 -138 21 -24 32 -28 76 -28 44 0 55 4
76 28 33 39 33 95 -2 136 -22 26 -33 31 -71 31 -36 0 -50 -6 -74 -29z"/>
<path d="M14250 4993 c-63 -23 -83 -111 -35 -158 31 -32 91 -34 127 -5 81 63
4 198 -92 163z"/>
<path d="M13567 4970 c-48 -38 -44 -130 7 -165 36 -26 94 -19 127 14 23 24 29
38 29 74 0 38 -5 49 -31 71 -38 33 -95 35 -132 6z"/>
<path d="M14013 4979 c-30 -16 -56 -74 -48 -107 16 -65 86 -98 143 -68 87 45
63 171 -33 181 -22 3 -50 0 -62 -6z"/>
<path d="M5085 4948 c-78 -92 50 -213 142 -134 23 20 28 32 28 69 0 65 -32 97
-96 97 -41 0 -51 -4 -74 -32z"/>
<path d="M5313 4965 c-27 -19 -46 -75 -38 -108 10 -37 48 -68 92 -74 32 -4 45
0 70 21 17 15 34 39 38 55 8 36 -16 95 -43 110 -30 16 -94 13 -119 -4z"/>
<path d="M15568 4953 c-24 -28 -28 -50 -17 -83 16 -45 82 -57 122 -23 23 22
22 78 -3 103 -25 25 -81 27 -102 3z"/>
<path d="M15337 4902 c-27 -30 -22 -87 9 -111 35 -28 69 -26 99 4 31 30 33 77
5 105 -26 26 -90 27 -113 2z"/>
<path d="M5987 4799 c-11 -6 -25 -26 -33 -44 -51 -122 125 -206 182 -87 13 29
14 41 5 73 -6 21 -21 45 -34 54 -25 17 -93 20 -120 4z"/>
<path d="M4680 4760 c-27 -27 -35 -65 -20 -101 36 -85 170 -57 170 36 0 51
-36 85 -90 85 -26 0 -47 -7 -60 -20z"/>
<path d="M13529 4751 c-23 -24 -29 -38 -29 -74 0 -38 5 -49 31 -71 61 -51 151
-24 165 51 19 100 -96 165 -167 94z"/>
<path d="M13994 4761 c-58 -25 -73 -110 -28 -155 39 -38 95 -36 136 4 27 27
30 36 25 72 -3 22 -14 49 -24 60 -22 22 -79 32 -109 19z"/>
<path d="M15583 4730 c-68 -28 -48 -133 25 -133 69 0 99 80 46 122 -29 23 -38
24 -71 11z"/>
<path d="M12221 4708 c-9 -24 2 -75 19 -92 17 -17 12 -24 -26 -36 -19 -7 -40
-22 -46 -34 -5 -13 -15 -23 -21 -23 -29 0 -157 -36 -157 -44 0 -17 48 -32 84
-25 20 4 44 18 56 33 l20 26 0 -31 c0 -37 40 -87 76 -96 34 -9 90 10 109 37
15 21 15 21 15 -9 0 -36 25 -74 48 -74 13 0 23 20 40 83 12 45 22 85 22 90 0
4 -13 7 -29 7 -20 0 -37 -9 -55 -31 l-26 -31 0 37 c0 25 -8 43 -25 60 l-24 25
23 0 c13 0 30 7 37 16 12 15 6 24 -51 75 -36 32 -69 59 -73 59 -4 0 -11 -10
-16 -22z"/>
<path d="M6429 4651 c-41 -42 -41 -101 1 -143 28 -28 36 -30 78 -25 60 7 92
41 92 98 0 57 -42 99 -100 99 -33 0 -48 -6 -71 -29z"/>
<path d="M12664 4671 c-12 -5 -29 -19 -37 -31 -10 -14 -16 -17 -19 -9 -3 9
-25 5 -84 -16 -43 -15 -82 -31 -87 -35 -4 -3 1 -16 10 -27 28 -32 118 -25 139
11 10 17 13 16 23 -17 7 -20 22 -44 34 -52 21 -15 21 -15 -6 -15 -33 0 -73
-37 -83 -74 -15 -62 31 -126 91 -126 70 0 104 33 105 99 0 32 -6 51 -21 67
l-20 22 38 18 c67 33 81 114 29 163 -26 25 -80 35 -112 22z"/>
<path d="M15340 4669 c-32 -13 -40 -26 -40 -70 0 -44 25 -69 68 -69 42 0 72
31 72 73 0 53 -50 85 -100 66z"/>
<path d="M11986 4614 c-29 -30 -39 -101 -12 -91 8 3 32 10 53 16 21 5 57 15
81 21 49 12 51 21 17 55 -35 36 -102 35 -139 -1z"/>
<path d="M15090 4620 c-26 -26 -27 -90 -2 -113 19 -17 78 -23 98 -9 16 11 34
48 34 72 0 11 -11 32 -25 45 -30 31 -77 33 -105 5z"/>
<path d="M4257 4590 c-33 -26 -41 -63 -23 -99 17 -32 34 -41 75 -41 68 0 99
97 45 139 -33 26 -64 27 -97 1z"/>
<path d="M13315 4581 c-52 -16 -75 -49 -75 -106 0 -60 64 -106 126 -91 62 16
92 86 63 149 -17 37 -75 61 -114 48z"/>
<path d="M5809 4551 c-64 -65 -20 -171 71 -171 33 0 48 6 71 29 64 65 20 171
-71 171 -33 0 -48 -6 -71 -29z"/>
<path d="M13485 4534 c-58 -63 -12 -164 75 -164 58 0 90 33 90 95 0 64 -31 95
-95 95 -37 0 -51 -5 -70 -26z"/>
<path d="M5170 4537 c-13 -7 -30 -29 -38 -49 -40 -105 113 -176 164 -76 43 84
-41 168 -126 125z"/>
<path d="M5404 4541 c-48 -21 -68 -86 -42 -134 18 -34 40 -46 83 -46 60 0 95
36 95 98 0 61 -77 107 -136 82z"/>
<path d="M7394 4520 c-41 -16 -66 -61 -61 -107 2 -23 12 -49 21 -58 15 -16 18
-14 46 15 17 18 42 54 58 81 15 28 32 47 40 44 24 -9 11 4 -20 19 -34 18 -53
19 -84 6z"/>
<path d="M6335 4430 c-51 -13 -75 -47 -75 -105 0 -88 113 -126 176 -58 65 70
-8 189 -101 163z"/>
<path d="M12811 4427 c-55 -32 -67 -107 -25 -156 22 -27 32 -31 74 -31 38 0
53 5 74 26 35 35 36 101 3 139 -27 32 -90 42 -126 22z"/>
<path d="M7644 4408 c-25 -12 -44 -48 -44 -85 0 -23 3 -25 40 -21 22 2 40 0
40 -4 0 -5 -16 -8 -35 -8 -41 0 -46 -17 -14 -46 14 -13 36 -19 64 -19 43 0 44
0 25 -20 -26 -28 -32 -71 -15 -113 11 -25 18 -32 28 -25 6 5 32 24 57 42 l45
33 -42 -39 c-53 -48 -54 -63 -6 -63 34 0 35 -1 20 -18 -10 -11 -17 -36 -17
-61 0 -110 148 -142 190 -42 27 66 -17 141 -82 141 l-29 0 17 31 c9 17 14 42
11 55 l-4 23 29 -20 c19 -14 40 -20 61 -17 l32 3 -18 -35 c-34 -70 7 -144 83
-145 35 0 37 -1 23 -17 -8 -9 -15 -32 -16 -51 -1 -33 -1 -33 -26 -20 -34 17
-65 16 -101 -2 -37 -19 -50 -43 -50 -90 0 -55 44 -95 103 -95 38 0 49 5 71 31
15 18 26 43 26 61 0 25 3 29 18 22 70 -30 134 -7 153 57 21 67 -25 129 -95
129 -24 0 -24 1 -9 31 8 16 13 38 10 48 -4 17 -2 18 35 3 31 -12 46 -13 69 -5
l29 11 -20 -25 c-48 -62 -11 -149 67 -160 37 -5 41 -8 33 -24 -24 -44 -1 -116
45 -137 102 -47 191 71 119 157 -21 25 -33 31 -65 31 -37 0 -51 12 -29 25 6 3
10 24 10 46 0 32 -7 47 -30 71 -26 26 -36 29 -74 26 -42 -3 -43 -2 -30 17 19
26 18 90 -2 120 -19 29 -65 46 -105 38 -38 -7 -79 -56 -79 -94 0 -26 -2 -29
-19 -19 -11 5 -36 10 -55 10 l-36 0 16 34 c35 72 -9 146 -88 146 -51 0 -98
-43 -98 -89 l0 -32 -31 17 c-18 9 -46 14 -66 12 -27 -3 -32 -2 -21 6 73 54 32
177 -59 175 -21 0 -48 -5 -59 -11z"/>
<path d="M11469 4413 c-27 -7 -58 -74 -49 -105 5 -16 6 -28 3 -28 -3 0 5 -9
18 -20 l24 -19 -38 -1 c-49 0 -73 -13 -93 -52 -51 -99 78 -197 157 -118 l30
30 80 -46 c44 -24 84 -42 89 -39 16 10 12 64 -7 96 -24 41 -92 51 -134 20
l-30 -22 6 23 c3 13 -2 39 -13 60 -11 20 -17 37 -13 36 38 -4 39 0 25 75 -24
127 -20 120 -55 110z"/>
<path d="M13007 4380 c-52 -41 -44 -136 14 -165 74 -39 149 6 149 88 0 35 -6
50 -26 71 -34 33 -98 36 -137 6z"/>
<path d="M11886 4360 c1 -14 2 -32 3 -40 2 -22 63 -60 97 -60 16 0 41 7 57 14
24 13 27 13 27 -1 0 -8 16 -31 35 -50 32 -32 40 -35 76 -30 42 5 69 22 69 41
0 15 -155 77 -175 70 -10 -4 -15 -2 -13 6 2 7 -34 25 -87 44 l-91 31 2 -25z"/>
<path d="M5895 4361 c-38 -16 -58 -49 -58 -93 0 -35 6 -47 33 -71 28 -25 38
-28 74 -24 112 15 117 178 6 192 -19 3 -44 1 -55 -4z"/>
<path d="M13219 4341 c-72 -72 -3 -187 95 -160 62 18 87 73 62 134 -27 63
-106 76 -157 26z"/>
<path d="M4290 4340 c-28 -28 -26 -81 3 -108 31 -29 72 -28 102 3 50 49 20
125 -50 125 -22 0 -43 -8 -55 -20z"/>
<path d="M11658 4333 c-10 -2 -18 -10 -18 -18 0 -19 131 -127 146 -121 8 3 14
-1 14 -9 0 -8 1 -15 3 -15 28 2 163 49 165 58 1 6 -5 12 -13 12 -8 0 -15 4
-15 8 0 4 -17 9 -39 10 -29 2 -46 -4 -67 -21 l-29 -25 -1 27 c-2 44 -8 55 -38
79 -28 21 -66 26 -108 15z"/>
<path d="M4774 4316 c-35 -15 -44 -32 -44 -81 0 -24 7 -39 26 -54 57 -45 134
-11 134 60 0 37 -26 79 -49 79 -5 0 -15 2 -23 5 -7 2 -27 -2 -44 -9z"/>
<path d="M14356 4309 c-20 -16 -26 -29 -26 -59 0 -55 27 -85 80 -85 51 0 80
30 80 82 0 70 -77 107 -134 62z"/>
<path d="M4972 4297 c-22 -23 -29 -68 -16 -102 8 -19 55 -45 84 -45 33 0 80
53 80 90 0 71 -99 109 -148 57z"/>
<path d="M10585 4165 c-26 -25 -34 -89 -16 -123 8 -15 3 -17 -36 -17 -37 -1
-50 -6 -69 -28 -34 -39 -32 -95 3 -137 25 -30 30 -32 80 -28 50 4 53 3 53 -18
0 -13 4 -25 10 -29 10 -6 171 32 183 45 10 9 -9 50 -32 67 -22 17 -82 16 -107
-1 -19 -14 -20 -13 -16 14 2 16 0 42 -6 58 -9 27 -8 28 18 24 15 -2 41 3 59
12 l31 17 0 -41 c0 -70 68 -116 134 -92 16 7 31 10 33 9 1 -2 3 -17 5 -35 1
-18 6 -32 10 -32 4 0 8 -4 8 -10 0 -5 -11 -10 -25 -10 -34 0 -82 -25 -95 -49
-24 -46 -5 -119 36 -142 51 -27 122 -8 143 38 14 30 14 90 1 98 -20 12 -9 25
20 25 17 0 30 2 30 6 0 3 -12 46 -27 95 -25 83 -29 90 -50 86 -19 -3 -23 0
-23 19 0 39 -21 72 -57 89 -43 21 -87 12 -121 -24 -21 -22 -23 -22 -13 -4 36
69 -13 143 -94 143 -35 0 -51 -6 -70 -25z"/>
<path d="M11910 4158 c-19 -5 -52 -14 -73 -19 -37 -10 -38 -11 -23 -33 15 -23
14 -24 -24 -30 -77 -12 -107 -103 -54 -165 22 -27 32 -31 74 -31 42 0 52 4 74
31 l26 31 0 -40 c0 -25 8 -49 21 -66 l20 -26 -41 0 c-53 0 -100 -42 -100 -90
0 -96 105 -146 171 -81 40 40 41 102 2 143 l-27 28 32 -6 c66 -13 122 36 122
105 0 81 -117 125 -175 66 l-25 -24 0 35 c0 24 -8 43 -25 59 l-24 25 35 0 c41
0 94 45 94 79 0 24 -21 26 -80 9z"/>
<path d="M13177 4145 c-52 -29 -62 -96 -21 -144 22 -26 33 -31 70 -31 58 0 94
35 94 91 0 74 -78 120 -143 84z"/>
<path d="M4096 4135 c-23 -24 -28 -52 -14 -82 39 -81 156 -28 126 57 -5 13
-15 28 -21 32 -20 13 -75 9 -91 -7z"/>
<path d="M8802 4135 c-37 -16 -67 -73 -56 -107 5 -17 3 -19 -18 -12 -48 18
-90 9 -120 -24 -32 -36 -36 -77 -13 -122 16 -30 72 -56 105 -47 16 4 18 2 10
-13 -47 -89 58 -184 144 -130 81 49 47 180 -47 180 -32 0 -38 3 -33 16 3 9 6
31 6 49 0 33 1 34 30 23 82 -28 162 53 131 134 -19 51 -86 77 -139 53z"/>
<path d="M10309 4135 c-43 -24 -56 -74 -35 -145 4 -15 -1 -59 -13 -109 -11
-47 -18 -87 -16 -90 3 -2 15 0 27 6 14 6 36 5 67 -3 25 -6 70 -15 100 -19 52
-7 53 -7 46 16 -13 44 -45 69 -87 69 -22 0 -47 -4 -56 -9 -15 -8 -17 -4 -14
29 2 21 -1 46 -6 57 -10 17 -7 18 24 15 65 -8 114 31 114 88 0 16 -7 20 -37
21 -39 1 -38 3 10 13 26 6 26 7 12 30 -29 44 -88 57 -136 31z"/>
<path d="M10025 4109 c-16 -5 -37 -19 -47 -31 -20 -26 -24 -89 -7 -120 12 -23
78 -53 90 -41 4 4 10 33 12 63 l3 55 2 -57 c1 -34 7 -58 13 -58 6 0 24 13 40
29 38 39 39 87 3 130 -32 38 -41 39 -47 4 l-4 -28 -2 26 c-1 32 -16 39 -56 28z"/>
<path d="M11045 4097 c-21 -33 -9 -81 27 -112 31 -26 38 -28 78 -25 23 1 69
35 59 43 -2 2 -36 29 -76 60 l-72 57 -16 -23z"/>
<path d="M13371 4094 c-47 -60 -11 -154 59 -154 62 0 99 34 100 93 0 55 -35
87 -94 87 -36 0 -48 -5 -65 -26z"/>
<path d="M9081 4089 c-28 -26 -44 -67 -37 -95 6 -21 4 -22 -24 -14 -39 11 -95
-5 -115 -33 -24 -34 -19 -101 9 -134 19 -22 32 -27 68 -28 l45 0 -9 -33 c-5
-19 -7 -40 -4 -47 4 -10 -3 -12 -29 -8 -78 13 -125 -24 -125 -98 0 -41 4 -51
32 -74 28 -23 39 -26 80 -23 43 5 46 3 38 -13 -16 -29 -11 -79 9 -105 l19 -24
68 71 c38 38 70 74 72 78 1 5 -13 16 -32 25 -31 14 -40 15 -75 2 l-40 -13 15
30 c9 16 14 42 12 58 -4 23 3 36 36 66 l41 38 -33 -36 c-18 -19 -29 -38 -26
-42 13 -13 79 -7 101 8 25 18 44 74 36 107 -4 13 -19 36 -36 52 -25 24 -35 28
-68 23 -36 -5 -38 -4 -28 15 6 11 9 35 7 52 l-4 32 37 -10 c49 -13 93 6 113
49 19 39 20 59 5 88 -30 58 -114 77 -158 36z"/>
<path d="M9405 4086 c-59 -26 -74 -114 -27 -158 37 -34 58 -40 103 -28 87 24
93 159 8 189 -40 14 -47 13 -84 -3z"/>
<path d="M9712 4084 c-42 -22 -55 -46 -50 -98 l3 -41 -53 0 c-45 0 -57 -4 -74
-24 l-19 -25 23 -19 c22 -17 22 -18 1 -8 -12 6 -24 11 -27 11 -12 0 -5 -53 11
-80 22 -38 53 -53 96 -48 l36 4 -1 -46 0 -45 -44 0 c-122 0 -139 -175 -19
-199 69 -14 134 57 115 125 -8 27 -7 27 25 22 51 -8 81 3 104 41 24 39 27 74
7 101 -13 18 -18 15 -91 -43 -43 -34 -81 -60 -84 -57 -3 4 -1 9 5 13 6 4 43
31 83 61 81 61 81 76 1 76 l-49 0 1 41 c0 23 -3 47 -7 54 -6 9 -3 9 14 1 33
-18 87 -3 116 31 20 23 24 38 21 70 -7 75 -78 115 -144 82z"/>
<path d="M7605 4061 c-101 -21 -107 -25 -94 -55 20 -44 103 -61 145 -31 27 18
48 69 37 88 -7 12 -19 12 -88 -2z"/>
<path d="M11275 4053 c-19 -5 -35 -20 -35 -34 0 -4 32 -33 71 -64 68 -55 73
-57 85 -40 28 38 10 96 -38 125 -33 20 -46 22 -83 13z"/>
<path d="M12684 4020 c-30 -12 -64 -58 -64 -87 0 -32 26 -80 49 -93 32 -16 86
-12 114 10 55 43 43 140 -19 166 -38 16 -50 16 -80 4z"/>
<path d="M10184 3976 c-61 -27 -67 -132 -11 -171 26 -18 53 -20 55 -2 0 6 10
48 22 91 17 64 19 81 8 87 -18 12 -38 10 -74 -5z"/>
<path d="M11210 3960 c0 -12 7 -34 15 -50 l16 -30 -37 0 c-26 0 -43 -8 -65
-29 -64 -65 -20 -171 71 -171 83 0 132 97 81 161 l-19 24 44 -2 c55 -1 50 9
-30 72 -65 51 -76 54 -76 25z"/>
<path d="M11433 3928 c-20 -26 -23 -51 -11 -90 9 -30 19 -42 46 -54 44 -18 76
-18 91 0 10 12 1 28 -46 85 -31 39 -60 71 -64 71 -4 0 -11 -6 -16 -12z"/>
<path d="M13105 3929 c-33 -19 -45 -41 -45 -83 1 -65 44 -103 106 -92 68 13
97 98 52 151 -26 29 -82 41 -113 24z"/>
<path d="M5779 3881 c-20 -20 -29 -39 -29 -61 0 -43 47 -90 90 -90 43 0 90 47
90 90 0 43 -47 90 -90 90 -22 0 -41 -9 -61 -29z"/>
<path d="M14975 3885 c-14 -13 -25 -33 -25 -45 0 -28 43 -70 73 -70 31 0 67
39 67 72 0 30 -41 68 -72 68 -10 0 -30 -11 -43 -25z"/>
<path d="M4402 3880 c-51 -21 -51 -103 1 -125 50 -21 97 8 97 59 0 37 -7 49
-37 65 -25 13 -30 13 -61 1z"/>
<path d="M7458 3874 c-35 -18 -48 -43 -48 -89 0 -96 113 -137 175 -63 44 52
25 136 -36 157 -41 14 -58 13 -91 -5z"/>
<path d="M11639 3861 c-40 -40 -41 -106 -3 -145 55 -54 156 -24 170 50 19 100
-96 165 -167 95z"/>
<path d="M14742 3874 c-28 -20 -31 -83 -4 -107 29 -26 77 -22 101 9 27 35 26
59 -4 89 -28 29 -61 32 -93 9z"/>
<path d="M5104 3858 c-23 -11 -44 -48 -44 -77 0 -10 9 -30 21 -45 44 -56 139
-21 139 53 0 60 -60 96 -116 69z"/>
<path d="M6726 3844 c-20 -21 -26 -37 -26 -71 0 -62 32 -93 95 -93 64 0 95 31
95 95 0 63 -31 95 -93 95 -34 0 -50 -6 -71 -26z"/>
<path d="M14250 3840 c-28 -28 -26 -75 5 -105 30 -30 64 -32 99 -4 32 25 37
86 8 112 -26 24 -87 22 -112 -3z"/>
<path d="M12573 3796 c-23 -20 -28 -32 -28 -71 0 -59 35 -95 94 -95 56 0 91
36 91 94 0 37 -5 48 -31 70 -40 34 -88 34 -126 2z"/>
<path d="M7775 3781 c-39 -17 -60 -51 -60 -96 0 -50 21 -79 71 -95 69 -23 143
42 130 114 -11 60 -86 101 -141 77z"/>
<path d="M10290 3756 c0 -14 12 -38 26 -56 l26 -31 -33 19 c-19 10 -40 18 -46
17 -7 -2 -20 -3 -28 -4 -25 -2 -65 -48 -65 -74 0 -22 5 -25 68 -30 126 -12
125 -13 120 31 l-5 37 38 0 c30 0 46 7 69 30 18 19 27 35 22 43 -7 10 -147 42
-184 42 -5 0 -8 -11 -8 -24z"/>
<path d="M12783 3738 c-30 -33 -36 -62 -19 -101 26 -65 97 -78 147 -28 32 33
37 67 14 110 -17 33 -33 41 -84 41 -26 0 -44 -7 -58 -22z"/>
<path d="M10494 3685 c-13 -20 -14 -31 -6 -55 6 -16 8 -30 5 -30 -4 0 8 -11
27 -25 38 -28 86 -32 116 -11 18 14 16 18 -46 80 -36 36 -68 65 -72 66 -4 0
-15 -11 -24 -25z"/>
<path d="M5874 3690 c-12 -5 -29 -19 -38 -32 -51 -72 33 -165 112 -124 33 17
42 34 42 77 0 43 -15 65 -51 78 -37 13 -37 13 -65 1z"/>
<path d="M7574 3690 c-58 -23 -74 -117 -28 -164 39 -38 105 -37 145 3 79 79
-12 204 -117 161z"/>
<path d="M8061 3674 c-26 -22 -31 -33 -31 -71 0 -36 6 -50 29 -74 38 -38 55
-37 69 4 l11 32 -5 -32 c-5 -28 -3 -33 15 -33 27 0 70 47 77 86 17 91 -93 149
-165 88z"/>
<path d="M11539 3671 c-16 -16 -30 -40 -30 -53 -1 -13 -2 -30 -3 -38 -2 -18
33 -60 49 -60 13 0 87 159 79 171 -12 20 -66 9 -95 -20z"/>
<path d="M13255 3678 c-49 -28 -60 -87 -24 -132 16 -21 29 -26 64 -26 35 0 48
5 64 26 36 46 27 105 -20 129 -33 18 -57 18 -84 3z"/>
<path d="M9244 3670 c-12 -4 -31 -21 -43 -36 -64 -82 34 -198 127 -150 38 20
52 44 52 91 0 49 -15 74 -55 91 -39 16 -51 16 -81 4z"/>
<path d="M9872 3652 c-24 -23 -32 -38 -32 -65 0 -20 4 -38 8 -41 5 -3 31 2 58
10 27 8 66 19 87 25 25 7 37 15 37 28 0 27 -44 62 -87 68 -33 4 -43 1 -71 -25z"/>
<path d="M6838 3654 c-50 -27 -54 -118 -7 -156 24 -20 80 -24 111 -7 11 6 26
25 33 43 38 90 -51 167 -137 120z"/>
<path d="M5629 3641 c-18 -14 -24 -29 -24 -61 0 -53 30 -80 85 -80 72 0 106
85 55 135 -30 31 -83 33 -116 6z"/>
<path d="M14670 3620 c-24 -24 -26 -57 -4 -88 22 -32 88 -31 110 3 19 30 11
81 -16 95 -30 16 -68 12 -90 -10z"/>
<path d="M4917 3612 c-23 -25 -22 -85 1 -105 25 -23 85 -22 105 1 23 25 22 85
-1 105 -25 23 -85 22 -105 -1z"/>
<path d="M5161 3604 c-28 -35 -27 -75 2 -102 50 -48 127 -15 127 53 0 72 -86
104 -129 49z"/>
<path d="M8383 3615 c-26 -18 -43 -71 -36 -109 7 -35 57 -76 94 -76 60 0 109
45 109 101 0 28 -27 77 -49 89 -29 15 -93 12 -118 -5z"/>
<path d="M11263 3603 c-37 -7 -73 -59 -73 -105 0 -37 18 -67 41 -68 8 0 113
159 108 164 -9 7 -55 13 -76 9z"/>
<path d="M7877 3589 c-27 -16 -48 -72 -41 -109 4 -17 20 -42 36 -55 41 -35 88
-33 130 4 28 25 33 36 33 76 0 39 -5 51 -28 71 -31 26 -96 33 -130 13z"/>
<path d="M8717 3569 c-23 -14 -47 -62 -47 -96 0 -35 37 -80 72 -89 25 -5 27
-3 33 33 17 102 24 118 19 41 -5 -74 -5 -76 15 -71 31 8 61 56 61 96 0 51 -59
119 -61 70 0 -14 -2 -13 -9 5 -10 24 -51 30 -83 11z"/>
<path d="M11949 3511 c-21 -22 -29 -39 -29 -66 0 -51 44 -95 95 -95 51 0 95
44 95 95 0 51 -44 95 -95 95 -27 0 -44 -8 -66 -29z"/>
<path d="M8214 3514 c-36 -17 -54 -51 -54 -97 1 -31 29 -77 47 -77 6 0 37 35
70 78 54 69 59 80 44 89 -32 20 -75 23 -107 7z"/>
<path d="M9395 3517 c-17 -8 -36 -21 -43 -30 -13 -16 -21 -81 -11 -91 3 -3 46
5 97 16 81 19 92 24 92 43 0 50 -79 87 -135 62z"/>
<path d="M10572 3445 c-18 -12 -29 -25 -25 -28 3 -4 2 -7 -3 -7 -13 0 -17 -61
-5 -79 7 -10 25 -4 90 30 44 24 81 49 81 55 0 19 -28 36 -68 44 -31 5 -45 2
-70 -15z"/>
<path d="M9672 3432 c-3 -39 37 -98 69 -102 61 -9 119 20 119 58 0 14 -21 23
-93 43 l-93 25 -2 -24z"/>
<path d="M10048 3443 c-28 -3 -38 -9 -38 -22 0 -23 19 -46 54 -64 51 -25 136
14 136 63 0 12 -11 19 -37 24 -38 6 -48 6 -115 -1z"/>
<path d="M13403 3428 c-47 -23 -53 -103 -10 -133 81 -57 172 51 102 120 -25
26 -56 31 -92 13z"/>
<path d="M5487 3400 c-21 -17 -27 -30 -27 -60 0 -73 86 -105 133 -49 57 69
-35 165 -106 109z"/>
<path d="M8857 3390 c-27 -24 -41 -80 -24 -97 10 -9 181 27 189 40 11 18 -24
66 -57 77 -44 14 -76 8 -108 -20z"/>
<path d="M14135 3388 c-28 -16 -35 -28 -35 -64 0 -40 27 -64 73 -64 64 0 89
69 42 115 -26 27 -49 31 -80 13z"/>
<path d="M8490 3352 c0 -32 30 -69 68 -83 28 -11 79 -3 97 15 16 16 38 57 33
62 -6 5 -158 34 -180 34 -13 0 -18 -8 -18 -28z"/>
<path d="M9557 3369 c-21 -12 -47 -61 -47 -89 0 -86 106 -131 170 -72 43 40
45 104 4 146 -20 20 -37 26 -68 26 -22 0 -49 -5 -59 -11z"/>
<path d="M9870 3348 c-30 -33 -24 -83 17 -123 31 -30 37 -31 106 -26 24 1 22
34 -4 57 -12 10 -39 40 -60 67 l-38 47 -21 -22z"/>
<path d="M6486 3329 c-21 -16 -26 -29 -26 -64 0 -35 5 -48 26 -64 89 -70 195
52 112 129 -28 26 -78 26 -112 -1z"/>
<path d="M8344 3338 c-31 -15 -52 -66 -43 -108 7 -30 31 -60 50 -60 4 0 28 34
55 76 45 73 46 78 29 90 -22 16 -61 17 -91 2z"/>
<path d="M7964 3326 c-9 -24 15 -65 48 -82 45 -23 93 -18 117 12 31 40 26 51
-29 63 -110 24 -129 25 -136 7z"/>
<path d="M6293 3290 c-81 -33 -59 -160 28 -160 41 0 58 10 74 41 21 39 19 64
-7 93 -26 29 -63 39 -95 26z"/>
<path d="M8705 3293 c-57 -14 -86 -78 -61 -136 17 -42 41 -57 91 -57 74 0 117
79 80 149 -12 24 -63 54 -84 50 -3 -1 -15 -3 -26 -6z"/>
<path d="M6032 3240 c-30 -28 -36 -62 -18 -98 17 -33 34 -42 75 -42 68 0 99
97 45 139 -34 27 -74 27 -102 1z"/>
<path d="M13060 3230 c-31 -31 -27 -93 6 -119 30 -24 52 -26 88 -10 50 23 57
103 13 134 -31 21 -83 19 -107 -5z"/>
<path d="M9733 3230 c-25 -10 -53 -58 -53 -90 0 -51 49 -100 100 -100 51 0
100 49 100 99 0 73 -76 120 -147 91z"/>
<path d="M8829 3101 c-21 -22 -29 -39 -29 -66 0 -51 44 -95 95 -95 51 0 95 44
95 95 0 51 -44 95 -95 95 -27 0 -44 -8 -66 -29z"/>
<path d="M10272 3123 c-19 -7 -42 -58 -42 -91 0 -68 76 -110 139 -77 55 28 67
95 25 144 -21 26 -33 31 -67 30 -23 0 -48 -3 -55 -6z"/>
<path d="M6366 3067 c-53 -53 -20 -137 53 -137 21 0 41 9 58 26 21 21 24 32
20 62 -8 45 -24 61 -69 69 -30 4 -41 1 -62 -20z"/>
<path d="M11944 3056 c-34 -15 -44 -33 -44 -76 0 -42 9 -59 42 -76 84 -43 168
60 106 130 -29 32 -64 39 -104 22z"/>
<path d="M12976 3019 c-30 -24 -35 -72 -10 -107 11 -16 25 -22 55 -22 50 0 79
27 79 74 0 39 -37 76 -75 76 -12 0 -34 -9 -49 -21z"/>
<path d="M5898 2983 c-8 -10 -18 -26 -21 -36 -7 -20 9 -68 26 -79 23 -15 83
-8 100 10 23 25 21 78 -3 102 -25 25 -81 27 -102 3z"/>
<path d="M5700 2962 c-67 -21 -67 -116 0 -137 29 -9 73 16 84 48 18 51 -33
105 -84 89z"/>
<path d="M13455 2945 c-48 -47 -19 -115 48 -115 43 0 67 26 67 73 0 64 -69 89
-115 42z"/>
<path d="M7520 2947 c-50 -25 -63 -104 -22 -140 45 -39 116 -24 138 29 12 29
12 39 0 69 -21 50 -68 66 -116 42z"/>
<path d="M11034 2948 c-25 -12 -44 -48 -44 -84 0 -37 51 -84 90 -84 22 0 41 9
61 29 75 75 -11 186 -107 139z"/>
<path d="M9363 2940 c-49 -20 -60 -110 -19 -149 43 -41 127 -26 146 25 17 44
11 74 -19 105 -30 30 -65 36 -108 19z"/>
<path d="M12378 2900 c-25 -26 -29 -36 -24 -63 8 -41 39 -67 82 -67 47 0 74
29 74 79 0 31 -6 44 -26 60 -37 29 -70 26 -106 -9z"/>
<path d="M8805 2815 c-18 -18 -25 -35 -25 -65 0 -67 59 -105 121 -80 37 16 49
37 49 89 0 31 -6 44 -26 60 -37 29 -89 27 -119 -4z"/>
<path d="M10292 2817 c-31 -33 -30 -96 1 -125 33 -31 96 -30 125 1 31 33 30
96 -1 125 -33 31 -96 30 -125 -1z"/>
<path d="M12856 2799 c-50 -40 -23 -129 40 -129 59 0 92 45 72 100 -17 50 -68
63 -112 29z"/>
<path d="M7066 2779 c-20 -16 -26 -29 -26 -60 0 -50 27 -79 74 -79 77 0 111
86 52 136 -33 29 -65 30 -100 3z"/>
<path d="M8585 2695 c-17 -16 -25 -35 -25 -60 0 -25 8 -44 25 -60 53 -54 145
-16 145 60 0 76 -92 114 -145 60z"/>
<path d="M8959 2651 c-32 -33 -36 -58 -14 -100 16 -32 33 -41 79 -41 46 0 76
35 76 87 0 79 -84 110 -141 54z"/>
<path d="M11104 2666 c-35 -15 -44 -32 -44 -81 0 -24 7 -39 26 -54 55 -43 134
-11 134 54 0 47 -8 64 -41 80 -34 18 -36 18 -75 1z"/>
<path d="M6596 2638 c-39 -55 -4 -122 61 -116 66 6 93 76 47 122 -24 25 -90
21 -108 -6z"/>
<path d="M12496 2639 c-52 -41 -22 -129 45 -129 43 0 73 31 73 75 0 67 -64 96
-118 54z"/>
<path d="M6377 2582 c-20 -22 -22 -71 -4 -95 6 -9 26 -20 44 -23 63 -12 108
71 63 116 -26 26 -81 26 -103 2z"/>
<path d="M8395 2575 c-51 -50 -17 -135 55 -135 55 0 85 27 85 80 0 32 -6 47
-24 61 -33 27 -86 25 -116 -6z"/>
<path d="M7210 2570 c-12 -12 -20 -33 -20 -55 0 -22 8 -43 20 -55 12 -12 33
-20 55 -20 22 0 43 8 55 20 12 12 20 33 20 55 0 22 -8 43 -20 55 -12 12 -33
20 -55 20 -22 0 -43 -8 -55 -20z"/>
<path d="M7820 2573 c-34 -12 -50 -37 -50 -75 0 -49 28 -78 74 -78 43 0 74 26
82 67 5 27 1 37 -24 63 -29 29 -50 35 -82 23z"/>
<path d="M11281 2544 c-24 -30 -26 -52 -10 -88 23 -50 103 -57 134 -13 21 31
19 83 -5 107 -31 31 -93 27 -119 -6z"/>
<path d="M8781 2533 c-33 -27 -38 -82 -11 -116 18 -22 29 -27 65 -27 36 0 47
5 65 27 43 55 5 133 -65 133 -18 0 -42 -8 -54 -17z"/>
<path d="M9165 2495 c-43 -42 -29 -112 26 -134 60 -22 109 14 109 80 0 71 -85
105 -135 54z"/>
<path d="M9555 2485 c-32 -31 -32 -75 -1 -111 44 -52 126 -30 141 36 18 80
-82 134 -140 75z"/>
<path d="M10905 2465 c-52 -51 -11 -135 66 -135 32 0 69 44 69 83 0 70 -85
103 -135 52z"/>
<path d="M6752 2434 c-16 -11 -22 -25 -22 -54 0 -44 26 -70 71 -70 30 0 69 40
69 70 0 10 -9 29 -21 44 -24 30 -63 34 -97 10z"/>
<path d="M7981 2378 c-33 -17 -46 -61 -31 -98 24 -58 116 -58 140 -1 12 30 5
74 -14 91 -21 17 -70 21 -95 8z"/>
<path d="M11740 2370 c-45 -45 -11 -120 55 -120 44 0 75 29 75 70 0 41 -31 70
-75 70 -22 0 -43 -8 -55 -20z"/>
<path d="M11995 2295 c-28 -27 -31 -45 -14 -78 16 -30 28 -37 65 -37 40 0 64
27 64 73 0 64 -69 89 -115 42z"/>
<path d="M7725 2270 c-44 -48 -10 -120 56 -120 28 0 42 6 53 22 22 30 20 81
-2 101 -26 24 -85 22 -107 -3z"/>
<path d="M8516 2124 c-46 -46 -19 -116 47 -122 65 -6 100 61 61 116 -18 27
-84 31 -108 6z"/>
<path d="M11216 2089 c-52 -41 -24 -119 43 -119 46 0 71 24 71 68 0 33 -38 72
-70 72 -10 0 -29 -9 -44 -21z"/>
<path d="M10420 1973 c-40 -15 -55 -87 -24 -117 19 -20 87 -21 103 -3 21 27
24 72 4 94 -19 23 -58 36 -83 26z"/>
<path d="M9565 1905 c-28 -27 -31 -45 -14 -78 16 -30 28 -37 65 -37 40 0 64
27 64 73 0 64 -69 89 -115 42z"/>
</g>
</svg>
