<?xml version="1.0" standalone="no"?>
<!DOCTYPE svg PUBLIC "-//W3C//DTD SVG 20010904//EN"
 "http://www.w3.org/TR/2001/REC-SVG-20010904/DTD/svg10.dtd">
<svg version="1.0" xmlns="http://www.w3.org/2000/svg"
 width="377.000000pt" height="443.000000pt" viewBox="0 0 377.000000 443.000000"
 preserveAspectRatio="xMidYMid meet">
<metadata>
Created by potrace 1.16, written by Peter Selinger 2001-2019
</metadata>
<g transform="translate(0.000000,443.000000) scale(0.100000,-0.100000)"
fill="#000000" stroke="none">
<path d="M1720 4294 c-63 -8 -227 -44 -292 -65 -76 -24 -259 -108 -273 -124
-5 -7 -39 -30 -75 -51 -92 -54 -171 -120 -275 -227 -103 -108 -145 -156 -145
-168 0 -5 -4 -9 -9 -9 -11 0 -78 -98 -125 -182 -20 -38 -42 -68 -47 -68 -6 0
-7 -4 -4 -10 3 -5 2 -10 -3 -10 -21 0 -182 -411 -182 -465 0 -8 -5 -15 -11
-15 -6 0 -9 -9 -6 -20 3 -11 1 -20 -5 -20 -6 0 -8 -9 -5 -20 3 -11 2 -20 -3
-20 -4 0 -10 -17 -14 -37 -45 -259 -60 -497 -46 -743 5 -99 12 -190 16 -204 5
-22 1 -25 -48 -36 -58 -14 -109 -37 -120 -54 -13 -19 -9 -88 9 -166 9 -41 20
-77 24 -80 3 -3 25 -85 48 -182 25 -106 49 -182 58 -190 17 -14 89 -17 140 -6
28 6 32 4 38 -20 3 -14 20 -56 37 -92 26 -55 41 -73 102 -119 81 -61 144 -93
231 -116 111 -29 177 -3 272 105 105 121 127 212 127 535 1 237 -17 378 -70
564 -13 46 -21 88 -18 92 3 5 1 9 -4 9 -4 0 -18 24 -31 54 -23 57 -97 150
-111 141 -4 -3 -11 2 -14 11 -3 8 -10 12 -16 9 -5 -3 -10 -2 -10 4 0 6 -7 8
-15 5 -8 -4 -15 -2 -15 2 0 13 -167 17 -175 4 -3 -5 -14 -10 -23 -10 -9 0 -61
-21 -114 -47 -54 -25 -101 -43 -104 -40 -25 25 0 391 28 408 6 4 8 14 5 23 -4
9 -2 16 4 16 6 0 9 7 5 15 -3 8 -2 15 3 15 5 0 12 16 16 36 14 79 144 354 166
354 6 0 7 5 4 10 -3 6 1 13 9 16 9 3 16 11 16 16 0 18 94 132 180 219 163 165
361 290 583 368 49 17 97 31 107 31 10 0 20 4 22 9 6 19 202 43 343 43 134 -1
294 -21 333 -42 9 -5 62 -23 117 -41 118 -37 298 -126 345 -169 10 -8 48 -37
85 -65 38 -27 87 -68 109 -90 92 -91 189 -195 181 -195 -4 0 2 -8 13 -17 26
-24 126 -187 147 -240 10 -24 21 -43 26 -43 5 0 6 -7 3 -15 -4 -8 -1 -15 6
-15 6 0 8 -4 5 -10 -3 -5 -2 -10 4 -10 13 0 56 -140 77 -246 19 -101 34 -295
27 -356 l-6 -48 -27 20 c-33 24 -183 90 -204 90 -8 0 -18 5 -21 10 -7 11 -155
10 -155 -1 0 -4 -19 -14 -42 -24 -121 -48 -183 -164 -243 -461 -69 -339 -56
-692 31 -866 13 -26 28 -49 34 -53 6 -4 8 -10 5 -15 -11 -18 71 -69 163 -100
53 -18 102 -36 107 -40 6 -4 31 -13 58 -20 27 -7 47 -18 47 -26 0 -8 -22 -37
-50 -66 -27 -28 -50 -55 -50 -60 0 -4 -5 -8 -11 -8 -5 0 -37 -26 -69 -59 -95
-94 -311 -190 -427 -191 -18 0 -33 -4 -33 -10 0 -5 -25 -10 -55 -10 -30 0 -55
5 -55 10 0 6 -18 10 -39 10 -21 0 -81 12 -132 26 -272 74 -280 75 -379 31 -73
-33 -95 -58 -94 -111 2 -90 64 -170 151 -196 73 -22 239 -8 413 34 85 20 164
41 175 46 11 5 72 23 135 40 125 34 313 120 370 168 19 17 67 58 107 91 40 34
80 73 90 88 10 14 30 38 44 54 15 15 24 30 21 33 -3 3 3 8 12 12 9 3 16 12 16
20 0 8 4 14 9 14 5 0 13 10 17 23 4 12 10 24 14 27 13 9 87 184 105 248 10 34
22 62 27 62 6 0 8 9 5 20 -3 11 -1 20 4 20 5 0 9 11 9 25 0 25 1 25 55 19 68
-8 101 10 111 61 3 19 11 35 16 35 6 0 8 9 5 20 -3 11 -1 20 5 20 6 0 8 9 5
20 -3 10 -2 20 2 22 12 5 91 354 91 400 0 59 -26 83 -114 104 l-72 17 10 61
c5 34 10 192 10 351 1 233 -3 312 -17 405 -32 205 -97 450 -118 450 -6 0 -8 4
-5 9 3 5 -1 21 -8 37 -8 16 -35 76 -61 134 -48 107 -122 240 -134 240 -3 0
-12 12 -18 28 -7 15 -37 60 -68 100 -30 40 -55 75 -55 78 0 3 -55 60 -123 127
-117 116 -270 237 -329 261 -16 6 -28 14 -28 18 0 9 -82 51 -142 73 -251 92
-323 107 -548 110 -96 2 -191 1 -210 -1z m298 -214 c207 -22 371 -81 540 -194
81 -55 163 -118 158 -123 -1 -2 -47 17 -102 41 -54 24 -142 56 -194 71 -52 15
-99 31 -105 35 -51 38 -470 64 -649 40 -95 -12 -157 -25 -191 -39 -11 -5 -65
-23 -120 -40 -55 -18 -138 -47 -185 -66 l-85 -35 45 40 c60 54 200 146 265
176 99 46 247 82 395 97 70 7 137 6 228 -3z m-1126 -2049 c113 -127 187 -447
160 -693 -6 -57 -19 -132 -28 -168 -20 -79 -73 -192 -88 -187 -24 7 -116 163
-140 236 -51 158 -61 224 -61 416 1 154 4 192 23 262 30 111 62 183 82 183 5
0 28 -22 52 -49z m2093 -20 c97 -194 92 -569 -11 -835 -36 -90 -87 -176 -104
-176 -6 0 -9 -3 -7 -7 1 -5 -3 -10 -8 -12 -19 -8 -64 84 -91 184 -24 89 -27
118 -28 270 -1 276 43 437 164 603 36 51 47 47 85 -27z m-2736 -537 c17 -95
31 -178 31 -185 0 -7 -13 0 -29 15 -44 42 -74 120 -75 196 -1 67 21 167 34
153 4 -4 22 -85 39 -179z m3379 61 c6 -76 -16 -154 -58 -212 -28 -38 -61 -57
-60 -35 1 9 44 209 59 272 6 25 14 56 17 70 l6 25 15 -29 c9 -17 18 -57 21
-91z"/>
<path d="M830 1825 c-55 -66 -51 -346 6 -483 30 -73 101 -96 129 -43 61 118
29 445 -50 525 -20 20 -69 21 -85 1z m73 -23 c43 -48 84 -254 72 -362 -3 -30
-13 -77 -23 -103 -21 -61 -48 -61 -76 -2 -10 22 -22 41 -26 43 -4 2 -6 12 -3
22 3 11 0 20 -6 20 -5 0 -8 7 -4 16 3 9 0 20 -8 25 -20 12 -20 286 0 298 7 5
10 14 7 20 -4 6 -2 11 3 11 6 0 10 3 10 8 -5 28 30 31 54 4z"/>
<path d="M855 1664 c-14 -14 -16 -32 -13 -102 2 -54 7 -87 15 -89 7 -3 10 -10
7 -17 -3 -7 7 -18 22 -25 23 -10 30 -9 43 4 21 21 22 167 0 210 -17 35 -49 43
-74 19z"/>
<path d="M2883 1828 c-13 -6 -23 -15 -23 -20 0 -5 -6 -16 -14 -23 -27 -28 -51
-155 -51 -280 0 -138 8 -188 36 -216 29 -29 74 -25 97 9 65 95 93 380 47 490
-23 53 -45 63 -92 40z m61 -30 c37 -57 43 -234 14 -358 -18 -74 -59 -150 -81
-150 -10 0 -21 9 -24 20 -3 11 -10 20 -16 20 -6 0 -7 3 -4 7 4 3 1 13 -6 21
-18 23 -17 280 2 291 8 5 11 16 8 25 -4 9 -3 16 2 16 5 0 13 19 19 43 11 41
43 87 62 87 5 0 16 -10 24 -22z"/>
<path d="M2875 1670 c3 -5 1 -10 -5 -10 -6 0 -9 -4 -6 -9 4 -5 1 -11 -5 -13
-13 -4 -24 -123 -15 -171 7 -35 32 -52 62 -40 23 9 47 109 41 174 -6 72 -11
79 -48 79 -18 0 -28 -4 -24 -10z"/>
</g>
</svg>
