<?xml version="1.0" standalone="no"?>
<!DOCTYPE svg PUBLIC "-//W3C//DTD SVG 20010904//EN"
 "http://www.w3.org/TR/2001/REC-SVG-20010904/DTD/svg10.dtd">
<svg version="1.0" xmlns="http://www.w3.org/2000/svg"
 width="3267.000000pt" height="2955.000000pt" viewBox="0 0 3267.000000 2955.000000"
 preserveAspectRatio="xMidYMid meet">
<metadata>
Created by potrace 1.16, written by Peter Selinger 2001-2019
</metadata>
<g transform="translate(0.000000,2955.000000) scale(0.100000,-0.100000)"
fill="#000000" stroke="none">
<path d="M15812 29539 c-1362 -43 -2695 -252 -3992 -624 -277 -79 -674 -205
-822 -259 l-93 -35 110 -1 c142 -2 103 -15 -76 -25 -132 -7 -136 -8 -306 -71
-345 -127 -824 -328 -1195 -500 l-127 -59 977 -5 c537 -3 948 -8 912 -12 -36
-4 -546 -39 -1135 -78 -588 -39 -1081 -74 -1095 -78 -14 -4 389 -9 895 -12
l920 -5 -1038 -57 -1039 -56 -186 -102 c-103 -56 -281 -157 -396 -224 l-208
-121 1028 -5 c566 -3 1013 -8 994 -11 -19 -4 -309 -37 -644 -75 l-608 -69
1193 -5 c657 -3 1183 -8 1169 -12 -14 -4 -783 -98 -1710 -208 -927 -110 -1698
-204 -1714 -208 -16 -4 449 -42 1115 -90 1018 -74 1292 -97 1184 -101 -16 0
-790 -37 -1719 -82 l-1690 -80 -130 -102 c-185 -143 -306 -240 -501 -401
l-169 -141 5312 -3 c2922 -1 7701 -1 10621 0 l5309 3 -201 167 c-363 301 -608
487 -642 488 -16 0 -734 34 -1595 75 -861 41 -1578 75 -1595 76 l-30 1 30 8
c17 4 545 45 1174 91 676 50 1132 87 1115 91 -16 4 -787 98 -1714 208 -927
110 -1696 204 -1710 208 -14 4 513 9 1170 12 l1194 5 -604 68 c-333 38 -621
71 -640 75 -19 4 388 9 905 12 l940 5 -130 76 c-203 119 -326 189 -510 289
l-169 92 -946 51 -945 52 840 5 c669 4 834 7 810 17 -18 7 -450 40 -1069 82
-571 39 -1041 73 -1044 76 -3 3 395 5 884 6 l889 1 -105 50 c-459 218 -1371
588 -1453 588 -18 0 -43 3 -56 7 -23 6 -23 7 -5 13 22 8 -420 157 -784 264
-1658 488 -3410 711 -5150 655z m2440 -1190 c174 -37 288 -150 334 -331 11
-42 17 -110 18 -203 l1 -140 -151 -3 -152 -3 -4 143 c-4 160 -15 194 -71 228
-23 15 -50 20 -100 20 -65 0 -71 -2 -102 -33 -18 -18 -38 -52 -44 -75 -8 -29
-11 -229 -9 -669 3 -715 -1 -677 85 -715 84 -37 185 -10 219 59 17 33 19 67
22 281 l3 242 -80 0 -81 0 0 145 0 145 233 -2 232 -3 0 -385 c0 -336 -3 -393
-18 -450 -62 -230 -212 -340 -462 -340 -249 0 -400 111 -462 340 -16 59 -18
123 -18 710 0 700 0 695 57 817 49 104 158 189 281 219 66 16 201 17 269 3z
m-6520 -442 l3 -424 200 423 200 423 163 1 162 0 -191 -375 -191 -375 191
-638 c105 -350 191 -643 191 -649 0 -10 -40 -13 -165 -13 l-164 0 -25 83 c-14
45 -71 235 -126 422 -56 187 -106 356 -112 374 l-11 35 -61 -120 -61 -119 -5
-335 -5 -335 -157 -3 -158 -3 0 1026 0 1025 160 0 160 0 2 -423z m1758 278 l0
-145 -275 0 -275 0 0 -270 0 -270 220 0 221 0 -3 -147 -3 -148 -217 -3 -218
-2 0 -310 0 -310 275 0 275 0 0 -150 0 -150 -437 2 -438 3 -3 1010 c-1 556 0
1016 3 1023 3 9 101 12 440 12 l435 0 0 -145z m1060 0 l0 -145 -275 0 -275 0
0 -270 0 -270 220 0 221 0 -3 -147 -3 -148 -217 -3 -218 -2 0 -310 0 -310 275
0 275 0 0 -150 0 -150 -437 2 -438 3 -3 1010 c-1 556 0 1016 3 1023 3 9 101
12 440 12 l435 0 0 -145z m808 130 c172 -41 277 -154 317 -342 20 -93 20 -404
0 -496 -20 -97 -58 -174 -113 -230 -90 -93 -192 -127 -379 -127 l-123 0 -2
-417 -3 -418 -160 0 -160 0 -3 1010 c-1 556 0 1016 3 1023 7 19 539 17 623 -3z
m827 -1010 l0 -1020 -160 0 -160 0 -3 1023 -2 1022 162 -2 163 -3 0 -1020z
m672 908 c17 -65 86 -336 154 -603 l124 -485 3 603 2 602 145 0 145 0 0 -1025
0 -1025 -159 0 c-115 0 -161 3 -168 13 -5 6 -95 343 -199 747 l-189 735 -5
-745 -5 -745 -140 0 -140 0 -3 1023 -2 1022 204 0 204 0 29 -117z m2741 -905
l-3 -1023 -157 -3 -158 -3 0 1026 0 1025 160 0 160 0 -2 -1022z m1152 877 l0
-145 -170 0 -170 0 0 -880 0 -880 -160 0 -160 0 0 880 0 880 -170 0 -170 0 0
145 0 145 500 0 500 0 0 -145z"/>
<path d="M15060 27725 l0 -318 108 5 c184 7 192 20 192 313 0 291 -8 304 -197
313 l-103 5 0 -318z"/>
<path d="M5035 25005 l-180 -174 1204 -1 c662 0 1202 -2 1200 -4 -2 -2 -386
-19 -854 -38 -467 -18 -841 -34 -830 -36 11 -1 433 -18 938 -36 505 -19 921
-36 924 -40 4 -3 -72 -6 -168 -6 -96 0 -667 -7 -1269 -15 -602 -8 -1150 -15
-1217 -15 l-121 0 -186 -197 c-167 -178 -183 -199 -163 -205 12 -3 463 -14
1002 -23 539 -10 1002 -20 1028 -24 34 -4 -311 -41 -1130 -120 -1135 -111
-1179 -116 -1198 -137 -176 -197 -515 -616 -743 -919 l-173 -230 78 -3 c43 -2
544 4 1113 12 1157 18 1125 18 1119 12 -2 -3 -575 -86 -1274 -186 -698 -100
-1272 -183 -1276 -185 -13 -9 -111 -157 -106 -161 3 -3 543 -16 1202 -29 658
-12 1199 -25 1202 -29 4 -3 -3 -6 -14 -6 -29 0 -2606 -259 -2608 -262 -7 -8
-119 -191 -193 -313 -128 -212 -268 -458 -401 -706 -100 -185 -118 -225 -103
-227 10 -1 658 15 1441 38 783 22 1426 39 1428 36 2 -2 -22 -8 -54 -14 -32 -5
-734 -124 -1560 -263 -1448 -244 -1502 -254 -1512 -277 -6 -12 -11 -27 -11
-32 0 -6 623 -10 1683 -11 937 0 1673 -4 1662 -9 -15 -6 -3445 -321 -3491
-320 -8 0 -54 -80 -54 -95 0 -3 507 -5 1128 -6 620 0 1123 -2 1117 -5 -10 -4
-2324 -264 -2350 -264 -8 0 -48 -89 -104 -227 -135 -341 -200 -523 -187 -523
68 3 2866 -74 2879 -79 10 -3 -654 -53 -1475 -109 -821 -57 -1499 -107 -1507
-111 -12 -6 -71 -158 -71 -183 0 -4 6993 -8 15539 -8 l15540 0 -36 105 c-19
58 -40 105 -46 105 -40 -2 -2825 196 -2821 200 3 3 617 21 1365 41 748 20
1362 39 1364 41 11 11 -281 757 -299 763 -6 3 -497 59 -1091 125 -594 66
-1084 122 -1090 125 -5 2 459 4 1033 4 573 1 1042 4 1042 7 0 3 -10 28 -21 55
-14 33 -29 51 -43 54 -11 2 -752 70 -1646 150 -894 80 -1638 150 -1655 154
-17 5 656 9 1572 10 l1602 1 -22 50 c-12 27 -26 50 -31 50 -16 0 -2911 490
-2921 494 -18 7 55 6 1395 -33 723 -21 1316 -37 1318 -36 9 8 -317 597 -493
890 -177 294 -228 375 -239 375 -17 0 -2401 240 -2416 243 -39 8 326 18 1215
33 534 8 980 18 993 20 22 4 20 9 -40 96 -35 50 -70 95 -78 99 -8 4 -541 83
-1185 174 -643 92 -1172 168 -1174 171 -6 6 -23 6 1114 -11 560 -9 1019 -14
1022 -12 6 7 -301 414 -484 643 -239 297 -443 535 -467 543 -12 4 -502 55
-1091 112 -817 79 -1057 106 -1015 111 30 4 465 14 965 23 501 10 911 18 913
20 3 2 -307 333 -355 377 l-29 28 -1150 15 c-632 8 -1218 15 -1303 15 -85 0
-152 3 -148 6 3 4 419 21 924 40 505 18 927 35 938 36 11 2 -362 18 -830 37
-467 18 -852 35 -854 37 -2 2 499 4 1115 4 l1119 1 -179 174 -178 175 -11122
0 -11121 0 -180 -175z m1684 -1391 c182 -14 404 -101 533 -208 167 -139 275
-340 326 -610 16 -83 17 -202 17 -1426 0 -1241 -1 -1341 -18 -1425 -85 -428
-305 -681 -679 -780 -325 -86 -698 -44 -946 106 -233 141 -378 382 -428 712
-12 83 -14 296 -11 1435 3 1318 3 1338 24 1427 56 239 136 390 281 527 153
144 362 228 616 247 99 8 137 8 285 -5z m8106 1 c144 -11 318 -68 431 -140 74
-47 188 -161 239 -239 115 -176 174 -429 175 -743 l0 -153 -324 0 -323 0 -6
173 c-7 238 -28 318 -101 395 -65 70 -180 100 -310 81 -133 -18 -208 -83 -248
-214 -31 -97 -30 -295 0 -408 60 -220 201 -403 567 -732 494 -444 679 -728
739 -1138 19 -122 21 -353 5 -482 -26 -213 -113 -435 -222 -566 -188 -226
-508 -345 -872 -326 -488 26 -788 261 -900 702 -34 134 -46 267 -43 470 l3
180 323 3 322 2 0 -172 c1 -211 12 -302 46 -378 50 -112 138 -169 278 -177
189 -12 314 64 362 222 24 78 29 282 10 393 -45 261 -180 452 -553 789 -383
346 -563 566 -674 824 -79 183 -116 401 -106 624 29 618 345 970 912 1014 98
8 127 7 270 -4z m2430 -7 c336 -51 585 -236 705 -525 79 -189 102 -368 98
-743 l-3 -255 -325 0 -325 0 -5 330 c-5 312 -7 333 -28 386 -32 79 -80 131
-152 163 -82 37 -214 40 -302 7 -100 -38 -166 -131 -187 -261 -15 -89 -15
-2590 0 -2679 20 -126 78 -209 178 -255 37 -17 66 -21 151 -21 99 0 109 2 173
33 49 25 75 45 97 77 64 93 64 91 70 540 l5 410 329 3 328 2 -5 -412 c-4 -364
-7 -424 -25 -508 -104 -492 -407 -747 -922 -777 -356 -20 -679 104 -860 330
-63 79 -132 217 -165 332 -54 187 -55 194 -55 1585 0 832 4 1315 10 1370 33
263 113 450 258 602 109 114 195 168 355 224 166 57 396 73 602 42z m5067 -4
c449 -70 716 -352 799 -846 16 -96 25 -2435 10 -2639 -30 -404 -159 -660 -421
-835 -291 -195 -817 -217 -1155 -49 -267 133 -429 373 -492 725 -17 99 -18
186 -18 1405 0 1377 0 1370 47 1550 86 328 290 551 592 650 189 61 408 75 638
39z m2504 0 c302 -47 531 -201 668 -447 46 -82 101 -248 123 -372 17 -93 18
-195 18 -1410 0 -1229 -1 -1316 -18 -1415 -50 -278 -159 -482 -337 -627 -225
-183 -611 -256 -970 -183 -370 75 -620 310 -715 672 -51 195 -50 174 -50 1558
0 1448 -3 1387 71 1610 53 158 122 270 233 378 217 209 585 299 977 236z
m-16076 -1919 l0 -1875 565 0 565 0 -2 -312 -3 -313 -905 0 -905 0 -3 2188 -2
2187 345 0 345 0 0 -1875z m2823 1847 c398 -97 617 -341 694 -772 17 -98 18
-185 18 -1385 0 -1201 -1 -1286 -18 -1385 -89 -500 -372 -756 -884 -800 -78
-7 -331 -10 -648 -8 l-520 3 -3 2188 -2 2188 637 -4 c611 -3 642 -4 726 -25z
m7587 -862 l0 -890 365 0 365 0 0 890 0 890 345 0 345 0 0 -2190 0 -2190 -342
2 -343 3 -3 983 -2 982 -365 0 -365 0 -2 -982 -3 -983 -342 -3 -343 -2 0 2190
0 2190 345 0 345 0 0 -890z m7630 -985 l0 -1875 565 0 565 0 -2 -312 -3 -313
-907 -3 -908 -2 0 2190 0 2190 345 0 345 0 0 -1875z"/>
<path d="M6478 22989 c-31 -4 -72 -15 -91 -23 -85 -35 -155 -137 -177 -259 -7
-35 -9 -520 -8 -1368 3 -1463 -2 -1359 71 -1466 26 -36 50 -56 102 -83 66 -34
72 -35 179 -35 101 0 116 2 168 28 105 51 160 144 179 301 6 50 9 564 7 1346
-4 1406 0 1323 -70 1434 -66 101 -202 149 -360 125z"/>
<path d="M22020 22990 c-106 -13 -188 -67 -230 -151 -51 -100 -50 -57 -50
-1461 0 -923 3 -1323 11 -1360 16 -77 58 -155 102 -194 108 -92 335 -98 455
-11 58 41 107 129 122 217 8 46 10 441 8 1385 l-3 1320 -24 60 c-58 148 -202
219 -391 195z"/>
<path d="M24520 22990 c-118 -15 -206 -83 -251 -196 l-24 -59 0 -1355 c0
-1039 3 -1364 12 -1395 20 -66 75 -147 119 -177 119 -80 342 -74 445 12 43 35
93 127 108 198 8 37 11 442 11 1360 0 1405 1 1361 -50 1462 -59 115 -198 172
-370 150z"/>
<path d="M10900 21371 l0 -1561 188 0 c192 0 283 10 337 37 44 22 94 72 117
118 54 104 52 46 56 1335 2 784 -1 1228 -7 1292 -18 166 -65 254 -165 306 -51
27 -53 27 -288 30 l-238 4 0 -1561z"/>
<path d="M657 17786 c-3 -8 -33 -117 -67 -242 -34 -126 -67 -250 -75 -276
l-13 -48 952 -1 c553 -1 938 -5 921 -10 -16 -4 -453 -43 -970 -85 -517 -42
-941 -77 -942 -78 -2 -2 -6 -17 -9 -34 l-6 -32 738 -2 739 -3 -750 -59 c-412
-32 -753 -60 -756 -62 -4 -2 -9 -16 -11 -31 -3 -16 -31 -152 -62 -303 -31
-151 -72 -367 -92 -480 -19 -113 -37 -215 -39 -227 l-5 -23 826 -2 827 -3
-819 -78 c-450 -43 -828 -82 -839 -86 -17 -7 -22 -25 -35 -118 l-16 -110 586
-72 c322 -40 701 -86 843 -104 141 -17 257 -34 257 -37 0 -3 -368 -34 -818
-68 -449 -35 -838 -66 -863 -69 l-47 -5 -6 -50 c-4 -28 -4 -53 -1 -56 3 -3
377 -36 831 -73 454 -37 828 -70 832 -73 3 -3 -1 -6 -9 -6 -29 0 -1684 -202
-1688 -206 -14 -13 -48 -654 -57 -1076 l-7 -298 1239 -1 c681 -1 1232 -3 1224
-5 -8 -2 -546 -56 -1195 -119 -649 -63 -1199 -117 -1222 -120 -34 -5 -43 -10
-43 -26 0 -19 19 -19 1137 -19 625 0 1133 -3 1129 -7 -3 -4 -509 -84 -1124
-177 l-1117 -171 -3 -65 c-5 -110 52 -906 74 -1027 l6 -33 912 -1 c501 -1 895
-5 876 -9 -19 -4 -423 -65 -897 -136 -1161 -172 -1166 -163 81 -166 l944 -3
-921 -129 c-507 -71 -923 -130 -924 -130 -4 -3 66 -430 101 -621 19 -104 59
-301 88 -437 l52 -248 906 -1 c498 0 901 -2 895 -5 -5 -2 -356 -76 -780 -165
-748 -156 -772 -160 -857 -155 l-86 7 14 -58 c8 -32 22 -82 30 -110 l15 -53
1259 0 1260 0 2 3628 3 3627 27 97 c92 333 333 574 666 666 l97 27 12730 0
12730 0 87 -22 c181 -46 316 -121 439 -243 125 -123 205 -264 256 -452 16 -59
18 -297 20 -3695 l3 -3633 988 0 988 0 25 104 26 105 -51 11 c-28 6 -375 78
-771 161 -395 82 -721 152 -724 154 -2 3 363 5 812 5 449 0 817 2 817 4 0 2
22 106 50 232 84 388 203 1075 188 1089 -3 3 -380 58 -839 123 l-834 117 858
3 857 2 0 30 c0 23 -5 31 -22 35 -13 2 -374 56 -803 120 -429 63 -784 117
-790 119 -5 3 364 5 821 5 l830 1 23 243 c20 228 42 526 56 788 l6 117 -33 5
c-18 4 -481 74 -1028 157 -547 83 -1004 155 -1015 160 -12 5 425 9 1033 9
l1052 1 0 30 c0 17 -5 30 -10 30 -27 0 -2266 221 -2275 224 -5 3 507 5 1139 5
l1149 1 -6 353 c-8 414 -41 1032 -57 1042 -3 2 -346 45 -761 95 -414 50 -755
93 -757 95 -2 2 16 6 40 9 50 7 1403 116 1434 116 19 0 20 3 12 67 -4 37 -12
69 -17 73 -6 3 -357 32 -781 65 -423 33 -770 62 -770 65 0 3 341 47 757 98
417 52 759 95 761 96 1 2 -5 62 -14 134 l-17 130 -41 5 c-23 3 -362 36 -755
74 l-714 68 741 3 c408 1 742 5 742 8 0 44 -146 814 -193 1014 -12 53 -13 55
-52 61 -22 4 -323 28 -670 55 l-630 49 656 3 657 2 -8 36 c-5 20 -11 38 -13
41 -3 2 -399 37 -881 77 -482 40 -879 76 -883 79 -3 4 384 7 861 7 l866 0 -6
28 c-19 75 -146 537 -150 544 -3 4 -7058 8 -15679 8 -13363 0 -15674 -2
-15678 -14z"/>
<path d="M4175 16619 c-84 -12 -195 -69 -260 -134 -65 -65 -121 -174 -135
-265 -14 -90 -14 -15720 0 -15810 24 -151 127 -289 269 -358 l76 -37 12720 -3
c12630 -2 12720 -2 12785 17 173 53 305 207 330 386 13 96 13 15704 0 15800
-29 204 -201 376 -405 405 -88 12 -25293 11 -25380 -1z m3319 -116 c3 -10 53
-223 111 -473 296 -1268 619 -2587 719 -2936 30 -105 69 -219 86 -254 79 -156
249 -250 517 -285 100 -13 1040 -15 7951 -15 7772 0 7838 0 7919 20 295 71
496 289 618 672 90 284 437 1775 733 3148 l29 135 1699 0 1699 0 60 -28 c79
-37 156 -114 192 -191 l28 -61 3 -2287 2 -2288 -12990 0 -12990 0 0 2273 c0
2093 1 2277 17 2323 40 119 135 211 258 250 32 10 386 13 1687 13 1560 1 1647
0 1652 -16z m503 -876 c326 -1307 540 -2128 627 -2402 56 -176 130 -261 281
-324 91 -38 189 -58 355 -71 96 -8 2320 -10 7695 -8 l7560 3 73 23 c292 90
461 286 576 666 101 331 381 1478 662 2709 l68 297 88 0 c87 0 88 0 83 -22 -3
-13 -54 -249 -115 -526 -308 -1411 -560 -2478 -647 -2741 -101 -306 -260 -482
-513 -567 -53 -18 -278 -19 -7850 -22 -5531 -2 -7832 0 -7922 8 -217 18 -348
62 -438 146 -61 57 -82 90 -110 173 -76 226 -352 1341 -726 2929 -79 337 -144
615 -144 617 0 3 39 5 88 5 l87 0 222 -893z m17823 885 c0 -5 -61 -270 -135
-590 -355 -1534 -564 -2361 -645 -2556 -101 -243 -276 -402 -503 -456 -81 -20
-146 -20 -7648 -20 -5142 0 -7599 3 -7668 10 -256 27 -423 108 -490 238 -41
80 -169 544 -401 1452 -118 462 -480 1912 -480 1924 0 3 4043 6 8985 6 4942 0
8985 -4 8985 -8z m4040 -5002 l0 -50 -12990 0 -12990 0 0 50 0 50 12990 0
12990 0 0 -50z m0 -755 l0 -675 -12990 0 -12990 0 0 675 0 675 12990 0 12990
0 0 -675z m-23450 -3035 l0 -2250 -1265 0 -1265 0 0 2250 0 2250 1265 0 1265
0 0 -2250z m21160 0 l0 -2250 -10562 2 -10563 3 -3 2248 -2 2247 10565 0
10565 0 0 -2250z m2290 0 l0 -2250 -1127 2 -1128 3 -3 2248 -2 2247 1130 0
1130 0 0 -2250z m0 -2505 l0 -155 -12990 0 -12990 0 0 155 0 155 12990 0
12990 0 0 -155z m0 -1700 l0 -1515 -12990 0 -12990 0 0 1515 0 1515 12990 0
12990 0 0 -1515z m-2 -2367 l-3 -753 -27 -57 c-37 -80 -107 -152 -187 -191
l-66 -32 -12705 0 -12705 0 -58 27 c-80 38 -158 115 -193 191 l-29 62 -3 753
-2 752 12990 0 12990 0 -2 -752z"/>
<path d="M5078 16120 c-121 -21 -268 -90 -372 -176 -266 -219 -353 -617 -205
-934 103 -221 288 -374 524 -436 93 -24 283 -24 380 -1 95 24 236 95 312 157
125 102 222 255 264 415 27 105 29 280 4 380 -75 300 -310 528 -607 589 -81
17 -219 19 -300 6z m280 -36 c271 -55 487 -246 579 -509 26 -74 28 -92 28
-230 0 -131 -3 -159 -23 -220 -110 -328 -389 -536 -722 -538 -126 0 -211 19
-324 72 -361 169 -530 595 -383 961 40 98 87 168 167 250 180 183 436 264 678
214z"/>
<path d="M5065 16055 c-149 -33 -253 -90 -360 -199 -92 -93 -144 -177 -182
-291 -24 -71 -27 -95 -27 -220 0 -123 3 -149 26 -217 41 -122 92 -204 187
-298 71 -71 102 -94 181 -132 114 -56 208 -78 327 -78 165 0 315 52 450 154
267 202 352 600 193 904 -73 141 -171 239 -311 312 -141 73 -332 99 -484 65z
m350 -123 c102 -36 176 -85 258 -171 74 -79 118 -161 147 -275 51 -201 -5
-407 -153 -562 -129 -136 -273 -199 -452 -198 -175 0 -310 58 -435 183 -123
124 -182 264 -184 431 0 106 15 172 66 279 84 176 273 314 473 345 69 10 200
-5 280 -32z"/>
<path d="M4942 15730 c-40 -25 -66 -81 -58 -125 4 -18 42 -80 87 -139 l80
-107 -25 -20 c-202 -159 -230 -201 -190 -285 20 -42 59 -64 111 -64 44 0 70
15 177 103 l79 65 79 -104 c96 -125 118 -144 170 -144 75 0 128 50 128 120 0
41 -8 55 -103 183 -44 59 -78 109 -76 110 39 28 193 164 204 180 34 49 10 144
-45 172 -65 34 -110 17 -230 -84 -30 -26 -62 -52 -71 -58 -13 -10 -27 3 -90
86 -40 55 -86 106 -101 115 -36 22 -86 20 -126 -4z"/>
<path d="M28440 16115 c-241 -49 -440 -205 -550 -429 -52 -106 -70 -178 -77
-306 -13 -238 74 -452 249 -616 431 -402 1140 -202 1297 367 122 438 -155 891
-602 983 -91 19 -227 19 -317 1z m345 -39 c33 -9 103 -37 155 -63 79 -39 109
-61 186 -137 134 -134 200 -266 225 -451 19 -150 -20 -332 -102 -471 -48 -82
-180 -213 -264 -262 -87 -51 -200 -89 -305 -103 -144 -20 -329 21 -467 102
-93 55 -231 199 -280 294 -237 458 19 993 527 1101 80 17 241 12 325 -10z"/>
<path d="M28445 16056 c-383 -88 -627 -452 -561 -836 13 -72 29 -120 67 -199
44 -89 63 -116 133 -185 92 -92 176 -145 291 -183 72 -24 95 -27 225 -27 133
0 151 2 225 28 247 86 424 278 481 523 20 88 20 248 -1 338 -57 246 -253 452
-505 530 -75 23 -275 29 -355 11z m331 -117 c88 -27 125 -46 200 -102 322
-243 323 -739 1 -983 -292 -221 -691 -155 -895 149 -73 110 -97 195 -97 342 0
100 4 132 24 194 85 259 350 442 617 426 45 -3 113 -14 150 -26z"/>
<path d="M28323 15730 c-40 -24 -53 -48 -53 -100 0 -51 6 -61 93 -178 39 -52
66 -96 61 -101 -5 -4 -48 -40 -96 -79 -107 -89 -118 -104 -118 -165 0 -42 5
-54 34 -83 30 -30 40 -34 84 -34 47 0 56 4 128 63 42 34 89 72 103 84 l27 22
79 -105 c98 -129 104 -135 158 -141 81 -9 137 42 137 126 0 34 -11 54 -77 143
-43 56 -84 111 -91 120 -11 15 -2 26 80 93 51 42 101 89 110 103 22 34 23 110
2 140 -32 46 -109 66 -157 41 -12 -7 -62 -45 -110 -85 l-89 -74 -74 97 c-41
54 -87 106 -102 115 -36 23 -89 23 -129 -2z"/>
<path d="M9091 16380 c-216 -57 -390 -241 -437 -461 -19 -86 -14 -226 10 -302
50 -159 165 -296 307 -366 189 -93 369 -93 558 0 212 105 343 336 328 580 -24
382 -392 646 -766 549z m294 -65 c195 -51 357 -225 396 -423 49 -256 -101
-517 -351 -609 -66 -25 -89 -28 -185 -27 -95 0 -119 4 -179 27 -374 147 -477
608 -197 886 71 71 156 122 242 145 72 19 201 20 274 1z"/>
<path d="M9130 16141 c-101 -33 -187 -107 -236 -201 -27 -51 -29 -64 -29 -165
0 -106 1 -112 34 -173 41 -75 103 -135 179 -170 50 -24 70 -27 157 -27 87 0
107 3 157 27 79 37 142 98 181 177 30 61 32 73 32 166 0 87 -3 107 -27 157
-35 76 -95 138 -170 179 -57 30 -72 33 -158 36 -52 1 -106 -1 -120 -6z"/>
<path d="M10890 16393 c-228 -38 -425 -221 -485 -448 -19 -76 -20 -233 0 -309
37 -143 159 -302 285 -373 106 -60 172 -77 305 -77 104 0 130 4 193 26 104 38
174 83 248 161 112 118 164 250 164 417 0 151 -36 260 -125 377 -80 106 -229
198 -359 222 -58 11 -175 13 -226 4z m265 -87 c96 -31 159 -71 236 -154 205
-219 191 -553 -33 -757 -130 -119 -304 -168 -470 -134 -129 27 -277 128 -348
239 -111 174 -112 406 -2 575 42 65 125 147 185 184 117 72 293 91 432 47z"/>
<path d="M10853 16132 c-104 -37 -166 -95 -217 -202 -27 -58 -31 -75 -31 -155
0 -80 4 -97 32 -157 39 -82 100 -145 179 -184 54 -26 68 -29 164 -29 95 0 111
3 162 28 284 139 286 544 3 682 -77 38 -211 46 -292 17z"/>
<path d="M22669 16385 c-179 -44 -326 -163 -406 -330 -112 -236 -66 -512 117
-695 187 -187 464 -230 705 -111 99 49 168 109 229 198 125 184 140 423 38
626 -45 90 -160 208 -249 255 -125 66 -301 89 -434 57z m276 -70 c183 -48 342
-207 390 -390 19 -76 19 -191 -1 -269 -63 -244 -301 -419 -549 -403 -469 30
-684 585 -355 917 107 107 227 158 375 159 45 1 107 -6 140 -14z"/>
<path d="M22678 16137 c-103 -39 -182 -110 -227 -206 -23 -49 -26 -69 -26
-156 0 -93 2 -105 32 -166 39 -79 102 -140 181 -177 50 -24 70 -27 157 -27 87
0 107 3 157 27 76 35 138 95 179 170 33 61 34 67 34 173 0 104 -2 113 -32 170
-38 73 -100 134 -173 171 -46 23 -70 28 -150 31 -63 2 -107 -1 -132 -10z"/>
<path d="M24279 16385 c-214 -52 -379 -212 -445 -431 -27 -88 -25 -248 3 -339
94 -300 402 -485 703 -421 399 84 605 513 422 879 -45 90 -160 208 -249 255
-125 66 -301 89 -434 57z m276 -70 c185 -49 342 -206 390 -392 90 -345 -196
-693 -550 -670 -407 26 -643 465 -438 814 65 112 198 212 329 248 67 18 198
18 269 0z"/>
<path d="M24288 16137 c-103 -39 -182 -110 -227 -206 -23 -49 -26 -69 -26
-156 0 -93 2 -105 32 -166 39 -79 102 -140 181 -177 50 -24 70 -27 157 -27 87
0 107 3 157 27 76 35 138 95 179 170 33 61 34 67 34 173 0 104 -2 113 -32 170
-38 73 -100 134 -173 171 -46 23 -70 28 -150 31 -63 2 -107 -1 -132 -10z"/>
<path d="M16748 14660 c-169 -29 -355 -136 -464 -268 -113 -138 -173 -293
-181 -472 -8 -171 24 -304 108 -448 48 -80 189 -220 274 -270 305 -178 688
-135 949 108 99 92 189 248 223 387 24 99 22 285 -5 386 -78 287 -315 512
-604 571 -81 17 -220 19 -300 6z m327 -44 c33 -9 103 -37 155 -63 81 -39 109
-60 185 -137 101 -102 154 -185 190 -298 80 -251 33 -508 -129 -708 -126 -157
-297 -252 -503 -280 -147 -20 -315 15 -462 96 -98 55 -235 197 -288 299 -69
134 -88 210 -87 355 0 89 5 144 18 190 79 289 318 506 614 560 66 12 236 4
307 -14z"/>
<path d="M16735 14595 c-248 -55 -457 -240 -535 -474 -89 -269 -22 -553 179
-751 138 -136 282 -198 476 -207 141 -6 230 12 350 71 205 103 331 258 387
478 29 115 22 299 -16 406 -68 195 -191 332 -381 423 -44 22 -111 46 -150 54
-85 18 -229 18 -310 0z m341 -119 c361 -114 537 -528 367 -867 -42 -85 -143
-196 -227 -251 -122 -79 -296 -112 -441 -84 -293 57 -508 316 -508 611 0 305
231 571 538 619 65 10 192 -3 271 -28z"/>
<path d="M16609 14267 c-38 -26 -62 -81 -53 -126 3 -15 42 -76 86 -135 45 -59
79 -108 77 -110 -209 -166 -241 -206 -220 -277 16 -53 62 -89 114 -89 50 0 75
15 182 103 43 37 82 64 86 59 3 -4 40 -52 81 -107 91 -121 97 -126 151 -132
81 -9 137 42 137 126 0 35 -12 55 -91 161 -51 66 -90 122 -88 124 98 77 197
163 206 180 17 29 16 91 -2 126 -27 52 -106 76 -158 49 -12 -7 -58 -41 -102
-77 -44 -36 -85 -69 -91 -73 -6 -5 -38 29 -85 92 -41 56 -86 107 -101 115 -40
21 -90 17 -129 -9z"/>
<path d="M7116 9809 c-110 -26 -236 -127 -293 -235 -67 -126 -63 -6 -63 -1854
0 -1845 -4 -1729 61 -1851 60 -112 193 -211 319 -238 42 -9 2393 -11 9865 -9
l9810 3 58 23 c132 54 246 175 287 308 20 65 20 84 20 1764 0 1665 0 1699 -20
1762 -24 80 -83 171 -141 222 -24 21 -78 55 -119 75 l-75 36 -9835 2 c-5898 0
-9851 -3 -9874 -8z m19692 -107 c110 -35 186 -104 240 -219 l27 -58 3 -1670
c2 -1240 0 -1684 -8 -1725 -7 -30 -24 -77 -38 -103 -36 -67 -129 -150 -199
-179 l-58 -23 -9805 0 -9805 0 -57 23 c-118 48 -215 171 -238 302 -8 46 -10
540 -8 1715 l3 1650 23 58 c42 104 146 198 257 233 32 10 1950 13 9822 13
9486 1 9783 0 9841 -17z"/>
<path d="M13741 9424 c-175 -47 -318 -198 -351 -373 -6 -35 -10 -540 -9 -1450
0 -1286 2 -1401 17 -1462 45 -173 198 -316 371 -349 79 -15 6172 -14 6243 1
168 36 307 162 358 327 21 66 21 84 21 1487 0 994 -3 1436 -11 1470 -26 116
-129 249 -236 307 -115 62 130 58 -3259 57 -2665 0 -3097 -2 -3144 -15z m6252
-99 c124 -32 207 -100 260 -213 26 -57 32 -82 35 -161 l5 -95 -53 47 c-63 54
-154 101 -228 116 -71 15 -2905 16 -2983 1 -188 -35 -347 -204 -379 -400 -5
-37 -10 -255 -10 -512 l0 -448 -1219 0 -1219 0 -7 93 c-36 513 -207 1006 -492
1421 -30 43 -52 84 -49 91 6 16 89 55 140 65 23 4 1414 8 3091 9 2678 1 3058
-1 3108 -14z m-6353 -251 c259 -393 417 -856 455 -1332 l6 -82 -308 2 -308 3
0 675 c0 618 1 679 18 725 17 51 52 115 62 115 3 0 37 -48 75 -106z m6331
-154 c124 -23 229 -105 283 -220 l31 -65 3 -487 3 -488 -1771 0 -1771 0 3 493
3 492 29 60 c54 109 160 191 278 214 64 13 2843 13 2909 1z m-6311 -1413 c0
-61 20 -97 55 -97 35 0 55 36 55 97 l0 53 166 0 166 0 -6 -97 c-34 -471 -175
-878 -459 -1317 -70 -108 -71 -108 -88 -87 -10 12 -28 48 -41 79 l-23 57 -3
669 c-2 368 -1 675 2 683 4 9 29 13 91 13 l85 0 0 -53z m1128 -55 c3 -98 4
-103 27 -114 19 -9 29 -7 50 6 24 16 25 20 25 116 l0 100 290 0 290 0 0 -100
c0 -94 1 -100 24 -115 23 -16 54 -11 68 9 4 6 8 55 8 109 l0 97 303 -2 302 -3
3 -103 c3 -98 4 -103 27 -114 19 -9 29 -7 50 6 24 16 25 20 25 116 l0 100 179
0 180 0 3 -442 c4 -419 5 -446 25 -505 53 -158 169 -268 332 -317 49 -14 201
-16 1516 -16 1598 0 1517 -3 1628 58 28 15 73 47 100 71 l49 45 -3 -140 c-4
-131 -6 -143 -35 -204 -54 -114 -160 -197 -283 -220 -78 -15 -6087 -14 -6166
1 -54 10 -122 37 -152 61 -9 7 6 37 56 111 294 442 453 896 486 1390 l7 107
292 -2 291 -3 3 -103z m2072 8 c0 -96 1 -100 25 -116 21 -13 31 -15 50 -6 23
11 24 16 27 114 l3 103 288 3 287 2 0 -97 c0 -54 4 -103 8 -109 14 -20 45 -25
68 -9 23 15 24 21 24 115 l0 100 290 0 290 0 0 -100 c0 -96 1 -100 25 -116 21
-13 31 -15 50 -6 23 11 24 16 27 114 l3 103 215 0 215 0 3 -103 c3 -98 4 -103
27 -114 19 -9 29 -7 50 6 24 16 25 20 25 116 l0 100 290 0 290 0 0 -100 c0
-94 1 -100 24 -115 23 -16 54 -11 68 9 4 6 8 55 8 109 l0 97 375 0 375 0 0
-418 c0 -469 -3 -497 -67 -590 -43 -63 -91 -103 -170 -140 l-58 -27 -1445 -3
c-943 -2 -1461 1 -1492 8 -117 25 -226 110 -276 217 l-27 58 -3 448 -3 447 56
0 55 0 0 -100z"/>
<path d="M11165 9314 c-148 -20 -194 -29 -290 -54 -677 -178 -1187 -759 -1281
-1460 -121 -914 479 -1756 1392 -1950 129 -28 419 -38 560 -20 749 93 1346
647 1504 1395 31 145 38 430 16 585 -55 377 -210 696 -471 968 -269 281 -577
446 -970 519 -76 14 -397 26 -460 17z m343 -35 c583 -64 1098 -421 1360 -944
388 -776 139 -1708 -587 -2196 -187 -126 -401 -214 -632 -261 -98 -20 -143
-23 -324 -22 -179 0 -225 3 -314 22 -360 78 -629 220 -879 466 -287 281 -454
615 -507 1015 -44 329 14 664 170 976 87 175 175 295 325 445 296 297 627 453
1065 504 68 7 232 5 323 -5z"/>
<path d="M11173 9119 c-488 -47 -936 -333 -1192 -761 -275 -460 -292 -1040
-45 -1518 153 -294 382 -524 674 -674 221 -113 406 -162 650 -173 458 -19 872
143 1190 466 114 116 200 235 273 379 92 179 137 321 162 509 51 383 -37 764
-249 1082 -323 484 -881 747 -1463 690z m442 -123 c130 -29 246 -69 241 -82
-3 -7 -57 -94 -120 -195 -64 -100 -116 -190 -116 -200 0 -23 27 -42 230 -172
179 -113 204 -125 225 -107 8 7 65 91 126 189 62 97 116 180 121 186 12 13 97
-73 182 -185 107 -142 211 -358 250 -522 l6 -28 -214 0 c-182 0 -217 -2 -230
-16 -14 -13 -16 -51 -16 -259 0 -241 0 -244 22 -259 19 -13 59 -16 240 -16
l218 0 -6 -27 c-34 -157 -83 -303 -137 -409 -64 -126 -261 -384 -316 -413 -17
-9 -31 10 -131 182 -62 105 -118 195 -124 200 -6 4 -20 6 -32 4 -37 -6 -423
-238 -429 -258 -7 -22 1 -38 126 -252 55 -92 99 -169 99 -172 0 -9 -166 -56
-254 -72 -127 -23 -370 -23 -496 1 -105 20 -276 72 -285 86 -3 5 47 97 111
204 91 153 115 201 110 220 -4 18 -54 52 -210 145 -113 66 -214 121 -224 121
-27 0 -32 -8 -153 -212 l-106 -179 -58 60 c-175 181 -309 434 -365 690 -11 47
-20 100 -20 116 l0 31 211 -25 c181 -21 212 -22 224 -10 9 9 23 90 39 226 30
245 31 276 11 293 -8 7 -110 23 -227 37 -117 14 -215 27 -217 29 -2 2 11 45
28 96 73 206 183 381 346 544 102 103 161 152 169 143 2 -2 52 -100 110 -216
100 -201 108 -213 134 -213 15 1 122 49 237 108 183 93 210 110 213 132 1 16
-35 102 -98 229 -55 111 -100 204 -100 206 0 1 39 10 88 19 48 8 96 18 107 20
46 11 392 -3 460 -18z m-667 -242 l92 -185 -152 -74 -153 -74 -39 77 c-22 42
-63 127 -92 189 l-53 112 57 33 c60 34 220 107 237 107 6 1 52 -82 103 -185z
m1200 16 c51 -34 92 -66 92 -72 0 -8 -175 -294 -206 -336 -2 -3 -254 153 -283
174 -2 2 45 80 104 173 l107 170 47 -24 c26 -13 89 -51 139 -85z m-2060 -951
c151 -18 182 -25 182 -38 0 -40 -34 -307 -40 -314 -3 -4 -80 2 -170 13 -90 11
-169 20 -176 20 -18 0 -21 37 -13 156 8 118 18 184 28 184 3 0 88 -10 189 -21z
m2696 -76 c13 -88 18 -197 11 -248 l-6 -55 -190 0 -189 0 0 170 0 170 184 0
184 0 6 -37z m-2045 -1058 c69 -41 132 -79 140 -84 11 -7 -6 -43 -84 -176 -55
-92 -105 -169 -111 -172 -23 -9 -274 153 -274 176 0 12 189 331 196 331 3 0
63 -34 133 -75z m1383 -116 c54 -90 97 -167 98 -170 0 -10 -127 -93 -211 -138
l-74 -40 -104 176 c-79 135 -100 178 -90 184 8 4 70 42 139 82 69 41 130 74
135 73 6 -2 54 -77 107 -167z"/>
<path d="M11210 8245 c-261 -59 -450 -295 -450 -563 0 -172 50 -295 169 -412
124 -123 237 -170 411 -170 169 0 289 49 405 164 127 126 182 269 172 446 -9
153 -67 282 -173 385 -135 132 -348 192 -534 150z m260 -112 c83 -22 143 -59
209 -127 70 -74 107 -143 128 -240 50 -241 -107 -487 -352 -551 -164 -42 -344
11 -461 137 -114 124 -158 282 -119 433 30 116 85 200 178 270 124 95 263 121
417 78z"/>
<path d="M22289 9305 c-578 -79 -1092 -456 -1343 -985 -61 -131 -105 -260
-138 -411 -19 -91 -22 -133 -23 -334 0 -201 3 -244 23 -343 77 -382 291 -750
573 -988 176 -150 404 -278 609 -344 192 -62 290 -75 545 -74 253 0 332 11
534 76 558 177 1014 661 1155 1224 44 180 51 239 50 454 0 182 -3 219 -27 331
-160 757 -763 1312 -1522 1399 -119 13 -317 11 -436 -5z m520 -39 c358 -66
652 -214 910 -461 685 -657 707 -1735 49 -2420 -258 -269 -542 -425 -919 -507
-89 -19 -135 -22 -314 -22 -181 -1 -226 2 -324 22 -701 142 -1231 671 -1373
1373 -20 98 -23 143 -22 324 0 178 4 226 23 314 81 379 236 660 508 922 267
257 615 421 993 468 102 13 366 5 469 -13z"/>
<path d="M22373 9119 c-615 -59 -1136 -477 -1333 -1068 -139 -416 -94 -886
122 -1264 231 -406 627 -688 1083 -773 148 -28 452 -26 591 4 494 106 899 422
1108 862 176 373 202 801 71 1186 -75 219 -205 425 -380 599 -213 214 -438
342 -729 415 -174 44 -350 57 -533 39z m477 -132 c118 -28 203 -58 203 -70 0
-5 -53 -91 -117 -192 -110 -174 -125 -205 -108 -231 10 -16 402 -264 417 -264
25 0 55 39 165 213 62 97 115 177 120 177 13 0 116 -114 178 -198 105 -141
185 -305 231 -469 l20 -73 -218 0 c-155 0 -220 -3 -229 -12 -9 -9 -12 -80 -12
-259 0 -245 0 -248 22 -263 19 -13 59 -16 239 -16 l217 0 -18 -82 c-38 -174
-116 -353 -219 -508 -62 -93 -230 -275 -242 -263 -4 4 -53 87 -110 183 -112
193 -124 210 -149 210 -10 0 -109 -54 -221 -119 -149 -87 -206 -126 -213 -143
-7 -21 8 -53 104 -219 62 -107 115 -197 117 -201 5 -10 -137 -53 -247 -74
-126 -24 -369 -24 -496 -1 -112 20 -294 77 -294 91 0 6 52 98 116 204 85 141
114 199 110 215 -4 16 -65 58 -210 145 -195 116 -227 131 -252 114 -6 -4 -57
-86 -114 -182 -57 -96 -109 -181 -115 -188 -10 -11 -27 2 -89 73 -133 153
-228 314 -290 492 -33 96 -79 300 -71 313 2 3 93 -4 202 -17 199 -24 237 -24
246 0 3 7 17 120 33 250 25 214 27 239 13 253 -11 11 -78 23 -233 41 l-218 27
6 29 c23 114 150 358 254 489 60 74 227 239 262 258 18 10 29 -8 127 -202 103
-202 109 -213 138 -215 46 -4 449 204 453 233 2 13 -41 109 -97 223 -56 110
-101 205 -101 210 0 8 56 22 165 41 28 5 133 7 235 5 155 -2 202 -7 290 -28z
m-710 -219 c45 -95 84 -178 87 -185 3 -7 -53 -41 -144 -87 l-149 -74 -93 186
c-88 176 -92 187 -74 200 41 31 252 131 279 132 6 0 48 -78 94 -172z m1227
-12 c40 -28 73 -55 73 -59 0 -9 -186 -305 -204 -324 -8 -9 -43 8 -148 75 -76
48 -138 90 -138 94 0 4 48 81 106 173 l106 165 67 -36 c36 -20 99 -60 138 -88z
m-2044 -942 c89 -10 147 -21 147 -28 0 -29 -38 -318 -42 -322 -5 -5 -334 33
-355 41 -16 5 -17 67 -3 190 17 152 15 148 64 142 22 -3 107 -14 189 -23z
m2661 -80 c3 -26 6 -102 6 -170 l0 -124 -195 0 -195 0 0 163 c0 90 3 167 7
170 3 4 88 7 188 7 l182 0 7 -46z m-2035 -1056 c75 -44 138 -82 139 -84 7 -5
-201 -344 -211 -344 -17 0 -117 59 -199 117 l-77 56 15 28 c13 27 139 237 170
287 8 12 17 22 20 22 3 0 67 -37 143 -82z m1372 -112 c55 -93 96 -172 92 -175
-124 -87 -250 -161 -274 -161 -8 0 -59 77 -113 171 -79 136 -97 173 -85 180 8
4 70 42 139 83 69 41 129 74 134 73 4 -2 53 -79 107 -171z"/>
<path d="M22410 8244 c-205 -44 -381 -212 -435 -414 -19 -72 -19 -230 0 -304
51 -195 216 -360 411 -411 94 -24 240 -20 330 10 152 51 273 154 340 290 113
229 70 491 -110 671 -145 145 -336 202 -536 158z m260 -111 c199 -54 340 -243
340 -456 0 -315 -305 -547 -601 -457 -93 27 -154 66 -222 140 -84 91 -127 196
-127 315 0 182 108 352 272 430 113 54 213 62 338 28z"/>
<path d="M15903 4729 c-204 -34 -349 -170 -400 -376 -22 -89 -25 -391 -4 -473
29 -117 92 -210 185 -275 l28 -20 -50 -33 c-88 -57 -151 -157 -177 -279 -20
-95 -20 -462 0 -558 39 -187 158 -324 330 -379 132 -42 345 -40 478 5 159 53
265 168 314 340 15 54 18 103 18 314 0 270 -5 307 -62 418 -26 53 -98 129
-144 153 -34 17 -37 30 -9 39 34 11 117 99 144 154 50 97 60 160 60 351 0 195
-11 258 -65 368 -62 126 -189 218 -344 247 -83 16 -219 18 -302 4z m195 -329
c59 -14 98 -45 125 -99 20 -43 22 -60 22 -226 0 -172 -1 -182 -25 -230 -29
-58 -74 -91 -136 -101 -90 -13 -161 20 -204 96 -23 42 -25 56 -28 206 -3 128
-1 174 12 218 21 71 69 121 128 134 57 13 57 13 106 2z m39 -1011 c18 -6 46
-26 62 -44 50 -57 61 -115 61 -319 -1 -198 -9 -253 -45 -306 -40 -57 -78 -75
-166 -75 -65 0 -81 4 -116 27 -26 17 -49 45 -64 75 -23 46 -24 56 -24 278 0
216 1 232 22 270 53 100 148 132 270 94z"/>
<path d="M17263 4729 c-110 -18 -232 -85 -292 -160 -44 -54 -85 -138 -108
-219 -17 -60 -18 -120 -18 -825 0 -850 -2 -827 72 -967 63 -120 185 -209 328
-238 77 -16 243 -16 320 -1 194 40 326 169 383 373 15 57 17 132 17 828 0 841
2 814 -63 950 -62 133 -181 222 -337 255 -76 16 -219 18 -302 4z m238 -345
c43 -22 77 -70 89 -126 8 -38 10 -260 8 -768 l-3 -715 -25 -45 c-69 -124 -265
-121 -330 5 l-25 49 -3 711 c-2 472 1 727 8 759 23 107 101 162 210 149 25 -3
57 -11 71 -19z"/>
<path d="M19117 4729 c-152 -36 -237 -162 -237 -354 0 -171 44 -251 245 -450
180 -179 209 -225 210 -339 0 -116 -44 -164 -141 -153 -77 8 -104 53 -104 175
l0 62 -106 0 -106 0 4 -112 c3 -86 9 -124 24 -159 30 -66 78 -114 142 -146 52
-26 67 -28 167 -28 105 0 114 2 178 33 37 19 78 47 92 66 94 124 107 347 29
506 -32 65 -58 96 -194 230 -188 186 -204 211 -205 328 0 82 1 84 33 113 54
48 153 35 180 -26 7 -14 15 -57 18 -95 l7 -70 103 0 104 0 0 63 c0 194 -85
325 -230 356 -59 13 -159 13 -213 0z"/>
<path d="M18230 4530 l0 -180 55 0 c30 0 55 -4 55 -9 0 -5 -29 -93 -65 -196
-36 -102 -65 -189 -65 -191 0 -3 38 -3 85 -2 l86 3 99 214 100 213 0 164 0
164 -175 0 -175 0 0 -180z"/>
<path d="M4676 1763 c-292 -62 -521 -284 -596 -577 -24 -95 -27 -267 -6 -367
83 -388 464 -659 860 -610 269 33 487 183 611 422 110 212 115 483 15 698 -83
176 -237 322 -417 396 -133 53 -324 69 -467 38z m308 -27 c238 -46 442 -205
546 -427 101 -217 92 -476 -25 -684 -148 -263 -446 -418 -740 -384 -384 43
-675 367 -675 748 0 145 34 266 109 396 42 74 177 208 254 254 166 98 349 131
531 97z"/>
<path d="M4680 1704 c-36 -7 -105 -34 -155 -58 -156 -78 -253 -175 -331 -331
-52 -106 -74 -197 -74 -318 0 -118 22 -212 77 -327 39 -81 59 -108 137 -186
78 -78 106 -98 186 -137 125 -60 229 -82 365 -74 190 10 337 77 475 216 71 71
94 103 132 181 151 308 78 662 -184 886 -69 59 -214 131 -303 149 -87 18 -239
18 -325 -1z m362 -121 c104 -36 179 -85 256 -167 113 -122 165 -251 166 -416
0 -178 -55 -312 -184 -441 -98 -99 -203 -153 -342 -177 -89 -15 -102 -15 -189
1 -234 41 -418 199 -496 424 -23 66 -27 94 -27 188 0 94 4 122 27 189 36 102
68 155 140 232 173 185 415 247 649 167z"/>
<path d="M4568 1382 c-50 -30 -72 -107 -46 -155 6 -12 44 -66 85 -119 l73 -97
-104 -86 c-130 -108 -147 -142 -110 -221 20 -41 59 -64 109 -64 48 0 64 9 166
96 l86 73 20 -22 c11 -12 47 -59 81 -104 84 -111 105 -126 165 -120 79 7 132
77 113 151 -3 13 -44 75 -91 137 -47 62 -84 116 -83 120 2 4 47 44 101 89 54
44 102 92 107 106 35 91 -22 174 -119 174 -36 0 -52 -10 -145 -85 l-104 -84
-74 98 c-40 55 -85 106 -100 115 -34 21 -96 20 -130 -2z"/>
<path d="M28801 1770 c-251 -53 -455 -210 -562 -435 -51 -107 -69 -179 -76
-305 -20 -372 223 -705 584 -802 101 -27 287 -29 386 -5 458 113 718 597 557
1040 -85 232 -266 405 -505 483 -66 22 -103 27 -210 30 -71 2 -150 -1 -174 -6z
m379 -59 c128 -43 221 -103 317 -205 285 -301 278 -752 -16 -1047 -209 -208
-499 -276 -779 -180 -187 65 -341 202 -435 388 -165 325 -46 750 267 957 191
127 432 159 646 87z"/>
<path d="M28775 1702 c-259 -67 -462 -265 -531 -522 -24 -88 -24 -272 -1 -360
82 -311 349 -531 662 -547 300 -16 564 137 694 401 53 107 71 187 71 321 0
128 -17 208 -64 308 -86 185 -233 316 -431 383 -107 36 -293 43 -400 16z m364
-116 c195 -66 338 -212 407 -416 28 -83 26 -262 -3 -355 -61 -193 -216 -349
-407 -412 -115 -37 -257 -37 -372 0 -188 62 -336 204 -401 387 -35 97 -43 254
-19 351 43 173 169 330 326 408 47 23 114 48 150 56 91 21 225 13 319 -19z"/>
<path d="M28673 1380 c-41 -24 -53 -48 -53 -102 0 -49 11 -69 99 -183 33 -43
61 -82 61 -85 -1 -3 -45 -41 -100 -85 -54 -44 -104 -90 -109 -103 -6 -13 -11
-43 -11 -68 0 -39 5 -51 34 -80 29 -29 41 -34 79 -34 49 0 82 18 177 99 30 26
62 52 71 58 13 10 28 -5 99 -98 87 -114 117 -139 170 -139 71 0 120 53 120
129 0 35 -12 56 -90 161 l-91 121 25 20 c89 70 173 144 183 163 17 30 16 107
-3 134 -36 51 -115 67 -169 33 -16 -10 -66 -48 -109 -84 l-79 -66 -77 102
c-42 57 -89 108 -104 115 -39 18 -86 15 -123 -8z"/>
<path d="M721 8443 c459 -1494 1130 -2916 1994 -4223 118 -179 337 -495 356
-515 5 -5 9 942 9 2428 l0 2437 -1199 0 -1199 0 39 -127z"/>
<path d="M30140 6540 c0 -1117 2 -2030 4 -2030 2 0 13 15 24 33 10 17 70 115
131 215 709 1163 1295 2481 1687 3795 5 16 -43 17 -920 17 l-926 0 0 -2030z"/>
</g>
</svg>
