<?xml version="1.0" standalone="no"?>
<!DOCTYPE svg PUBLIC "-//W3C//DTD SVG 20010904//EN"
 "http://www.w3.org/TR/2001/REC-SVG-20010904/DTD/svg10.dtd">
<svg version="1.0" xmlns="http://www.w3.org/2000/svg"
 width="1907.000000pt" height="2015.000000pt" viewBox="0 0 1907.000000 2015.000000"
 preserveAspectRatio="xMidYMid meet">
<metadata>
Created by potrace 1.16, written by Peter Selinger 2001-2019
</metadata>
<g transform="translate(0.000000,2015.000000) scale(0.100000,-0.100000)"
fill="#ffffff" stroke="none">
<path d="M7122 20135 c-257 -48 -449 -196 -681 -529 -79 -113 -248 -394 -309
-513 -26 -51 -50 -93 -54 -93 -3 0 -30 28 -58 63 -185 221 -286 312 -426 382
-93 47 -103 50 -177 50 l-78 0 -40 -42 c-25 -27 -39 -52 -39 -69 0 -14 -8 -38
-19 -52 -73 -106 -197 -396 -256 -602 -78 -270 -113 -509 -122 -815 -8 -312
21 -618 93 -975 56 -277 204 -777 310 -1048 89 -227 253 -536 431 -815 52 -81
99 -164 105 -185 12 -45 25 -62 47 -62 9 -1 30 -13 48 -28 l32 -28 21 -264
c25 -316 68 -792 76 -837 6 -30 4 -33 -19 -33 -90 0 -387 -310 -611 -638 -294
-431 -594 -1075 -796 -1707 -63 -197 -65 -206 -124 -420 -109 -401 -175 -756
-191 -1015 -6 -95 -5 -108 13 -130 11 -14 29 -43 40 -65 39 -76 172 -200 280
-264 249 -146 641 -183 1065 -100 589 115 1224 395 2247 991 11 6 43 -19 130
-103 63 -62 177 -168 253 -237 l137 -124 0 -51 c-1 -119 -65 -324 -198 -632
-172 -399 -207 -497 -227 -634 -38 -249 55 -402 345 -571 41 -24 117 -63 168
-86 79 -36 90 -43 70 -49 -61 -19 -280 -133 -366 -192 -261 -176 -486 -402
-847 -848 -114 -141 -323 -450 -464 -687 -424 -713 -652 -1322 -675 -1796 -2
-45 -8 -88 -14 -95 -18 -22 -22 -52 -9 -73 6 -12 46 -73 88 -135 88 -132 157
-251 294 -509 147 -278 165 -313 250 -470 78 -146 206 -375 318 -570 89 -154
294 -474 393 -614 107 -150 158 -212 245 -298 l67 -67 -35 -45 c-137 -177
-898 -731 -1361 -993 -150 -84 -162 -98 -143 -165 26 -86 39 -105 101 -147
204 -136 509 -134 1079 5 248 61 636 234 1031 459 36 21 79 46 97 56 24 13 44
16 85 12 110 -11 287 66 341 148 26 40 8 157 -80 499 -51 199 -89 307 -125
354 -13 17 -13 23 8 60 39 71 39 97 4 171 -21 44 -59 177 -111 386 -43 175
-93 365 -110 421 -17 57 -48 162 -69 233 -39 130 -69 229 -154 510 -110 359
-196 551 -294 657 -14 15 -23 30 -21 32 3 3 68 30 144 60 230 89 418 172 620
273 104 52 195 98 200 103 6 4 51 28 100 55 106 56 282 163 291 176 3 5 13 9
24 9 15 0 124 55 155 79 6 5 33 16 61 26 l50 18 100 -54 c185 -99 328 -192
549 -358 172 -129 265 -206 515 -431 371 -334 611 -590 945 -1010 l179 -225
-3 -67 c-4 -88 23 -148 84 -187 24 -15 85 -79 136 -142 51 -63 155 -177 230
-254 l138 -140 0 -165 c3 -376 44 -565 162 -736 81 -119 238 -237 368 -278
233 -74 575 -85 766 -25 33 10 71 19 84 19 31 0 70 43 155 169 91 137 130 236
123 314 -7 78 -38 134 -172 312 -62 83 -133 182 -158 220 -57 89 -108 196
-100 209 4 6 35 55 70 108 65 101 76 138 45 160 -13 10 -21 38 -30 113 -24
192 -112 524 -169 639 -18 35 -36 114 -63 270 -85 488 -154 825 -250 1221 -23
94 -50 206 -60 250 -28 115 -209 814 -273 1056 l-55 206 -11 249 c-17 393 -65
913 -97 1074 -52 255 -174 491 -319 616 l-54 47 47 30 c34 22 60 31 92 31 43
1 46 3 72 51 16 29 56 75 100 113 84 73 92 84 84 118 -5 17 -16 26 -36 31 -17
3 -30 6 -30 8 0 1 9 28 20 61 57 164 124 479 162 764 30 226 33 741 5 985 -31
268 -104 628 -182 895 -20 69 -43 145 -50 170 -36 125 -135 394 -215 580 -144
340 -448 862 -564 969 -14 14 -26 29 -26 34 0 40 404 461 690 719 101 91 505
437 680 584 80 67 370 290 470 362 25 18 77 56 116 85 752 552 1304 917 1661
1098 118 61 203 94 388 155 130 42 251 86 268 98 35 24 66 77 67 117 0 24 5
26 67 38 136 25 344 111 447 185 112 81 229 219 326 386 55 95 157 300 199
401 32 77 44 93 96 135 49 40 64 48 94 45 29 -2 57 10 142 61 280 169 478 355
497 469 7 40 16 51 108 129 185 156 226 195 295 274 82 94 119 154 123 201 3
28 14 43 60 81 119 96 179 205 179 324 1 66 -22 130 -57 159 -36 30 -326 -34
-521 -114 -44 -18 -91 -36 -105 -40 -14 -4 -38 -13 -55 -20 -16 -8 -91 -39
-165 -70 -74 -31 -198 -89 -275 -128 -238 -120 -266 -133 -592 -273 -175 -75
-403 -175 -508 -222 -104 -47 -230 -102 -279 -124 -49 -21 -107 -47 -130 -57
-23 -11 -107 -48 -188 -85 -143 -63 -364 -173 -480 -237 l-58 -32 -24 26 c-39
42 -96 77 -125 77 -37 0 -71 -26 -71 -56 0 -19 -5 -24 -25 -24 -37 0 -369
-125 -455 -172 -85 -46 -177 -115 -212 -156 -18 -23 -46 -35 -138 -61 -142
-41 -469 -147 -530 -171 -25 -10 -119 -48 -210 -83 -138 -54 -375 -154 -504
-211 -863 -388 -1302 -620 -1576 -834 l-65 -51 -16 62 c-23 88 -66 190 -100
237 l-29 40 20 72 c42 154 107 525 135 773 10 91 14 608 5 735 -30 412 -71
685 -151 989 -77 295 -202 584 -320 741 -51 67 -64 79 -104 90 -34 10 -51 10
-73 1 -40 -17 -871 -19 -1062 -3 -524 45 -918 119 -1435 272 -437 128 -708
188 -997 219 -130 15 -376 12 -466 -4z m438 -150 c292 -31 498 -75 930 -200
587 -170 983 -247 1460 -286 150 -12 511 -7 765 11 72 5 185 12 251 16 l122 7
46 -64 c95 -130 212 -395 281 -634 142 -494 199 -1210 145 -1810 -19 -206 -63
-586 -76 -648 l-6 -27 -29 24 c-61 52 -325 116 -476 116 -135 0 -285 -45 -394
-120 -32 -22 -68 -40 -79 -40 -11 0 -134 -57 -273 -126 -138 -70 -313 -155
-387 -189 -213 -99 -449 -215 -660 -326 -132 -70 -204 -102 -222 -100 -14 1
-44 -7 -66 -18 -69 -35 -199 -139 -258 -206 -60 -69 -74 -77 -74 -46 0 20
-106 592 -161 871 -88 446 -198 824 -346 1200 -160 406 -314 637 -478 720 -55
28 -80 34 -149 38 -174 9 -326 -72 -478 -255 -162 -195 -273 -411 -267 -519 1
-16 -12 -74 -28 -129 -17 -55 -41 -155 -54 -222 -27 -145 -22 -176 27 -181 17
-2 36 3 42 10 14 17 71 214 117 398 51 211 131 369 274 540 112 136 235 210
344 210 101 -1 188 -64 283 -205 59 -90 171 -316 230 -465 34 -88 36 -95 19
-105 -10 -5 -32 -22 -49 -37 -129 -109 -559 -322 -842 -417 -145 -48 -625
-139 -784 -148 -127 -7 -200 6 -291 49 -61 30 -67 36 -73 71 l-6 37 -70 0
c-39 0 -70 -4 -70 -8 0 -4 11 -104 25 -222 47 -415 112 -1108 130 -1385 3 -55
8 -113 11 -130 5 -28 4 -28 -21 12 -30 49 -43 116 -79 408 -96 759 -146 1711
-110 2063 l6 54 24 -23 c61 -57 269 -428 290 -515 3 -16 12 -39 20 -51 7 -12
28 -70 45 -130 18 -59 36 -116 41 -126 13 -25 59 -19 74 11 14 28 -5 157 -42
287 -14 50 -32 114 -40 144 -31 114 -188 387 -289 498 -123 138 -242 95 -275
-98 -29 -171 -22 -647 15 -1079 27 -310 93 -870 131 -1100 5 -31 1 -27 -37 35
-66 112 -213 410 -262 535 -169 429 -319 1015 -384 1499 -22 163 -25 709 -5
846 56 374 126 609 268 900 66 135 86 165 113 165 9 0 62 -23 118 -50 122 -60
234 -150 388 -313 92 -97 105 -115 100 -137 -72 -284 27 -1262 189 -1874 34
-129 43 -146 82 -146 27 0 59 58 51 91 -3 13 -15 65 -26 114 -12 50 -27 106
-35 125 -16 38 -66 373 -91 610 -43 415 -60 949 -33 1029 12 33 105 188 315
526 128 205 212 316 322 425 78 77 125 115 176 142 161 84 325 103 605 73z
m11368 -1103 c-5 -51 -36 -121 -74 -168 l-23 -29 6 57 c5 46 2 65 -16 98 l-21
41 23 8 c12 5 38 16 57 24 51 23 53 21 48 -31z m-228 -128 c0 -3 -14 -33 -32
-65 -57 -109 -201 -269 -398 -442 -164 -145 -145 -137 -174 -80 -37 74 -109
133 -160 133 -31 0 -66 -24 -66 -45 0 -7 -32 -26 -71 -43 -125 -55 -706 -389
-992 -570 -66 -41 -122 -84 -126 -95 -21 -57 27 -89 87 -58 20 10 255 150 522
311 266 161 515 307 553 326 37 19 70 41 74 50 9 23 32 -2 65 -71 37 -78 37
-141 2 -210 -54 -106 -66 -125 -102 -156 -20 -17 -109 -98 -197 -179 -89 -81
-175 -156 -192 -167 -39 -23 -103 -107 -103 -133 0 -24 -40 -106 -123 -250
-107 -186 -197 -310 -307 -422 -97 -99 -114 -111 -210 -157 -118 -56 -238 -98
-303 -107 -42 -6 -46 -4 -81 33 -23 25 -68 107 -121 217 -154 325 -336 661
-462 855 -30 46 -51 87 -46 92 4 4 109 56 233 114 429 205 1202 569 1355 640
l70 32 0 -41 c0 -34 4 -42 21 -44 12 -2 109 40 215 92 243 119 708 322 899
392 142 52 170 60 170 48z m-61 -371 c-19 -22 -523 -483 -526 -480 -1 2 3 24
10 50 10 41 19 51 59 75 72 42 276 203 375 296 48 46 90 82 92 80 2 -2 -2 -11
-10 -21z m-3025 -958 c59 -88 233 -388 374 -645 83 -153 282 -543 279 -547 -1
0 -78 5 -172 13 -93 7 -267 16 -385 20 -242 8 -226 3 -277 94 -14 25 -59 101
-99 170 -39 69 -117 215 -171 325 -105 213 -168 318 -233 388 l-40 44 75 42
c138 79 434 204 500 211 70 7 65 11 149 -115z m-727 -312 c30 -43 99 -166 153
-274 55 -108 130 -245 166 -305 37 -60 85 -140 107 -179 23 -38 71 -100 107
-136 62 -63 68 -66 125 -73 33 -3 220 -9 415 -11 330 -5 413 -12 333 -31 -140
-32 -276 -69 -363 -100 -120 -41 -160 -60 -160 -75 0 -6 -47 -32 -105 -59
-370 -174 -1057 -619 -1890 -1224 -715 -520 -1535 -1266 -1751 -1594 -37 -56
-41 -59 -71 -54 -64 9 -113 -59 -65 -89 12 -8 17 -21 15 -38 -5 -37 9 -53 53
-60 36 -6 45 -15 114 -112 319 -445 592 -1053 759 -1689 48 -185 118 -535 135
-675 72 -615 30 -1246 -119 -1781 -64 -226 -60 -220 -177 -294 -234 -147 -688
-356 -1033 -474 -244 -84 -520 -136 -718 -136 -111 0 -115 1 -131 24 -11 18
-27 26 -53 28 l-38 3 116 86 c195 146 533 384 747 526 112 75 206 142 209 151
9 22 -10 47 -39 50 -25 3 -103 -40 -338 -188 -246 -154 -927 -614 -1064 -718
-57 -44 -59 -45 -85 -29 -20 12 -25 22 -23 45 3 28 -9 39 -150 153 -310 250
-412 377 -412 518 0 80 21 132 87 211 88 106 296 270 343 270 14 0 30 10 40
25 21 33 7 70 -33 86 -115 44 -229 140 -304 255 -33 51 -43 78 -47 119 -4 53
-4 53 37 83 30 22 59 33 99 37 65 8 112 43 112 83 0 13 -22 61 -49 106 -58 97
-430 759 -526 936 -70 127 -296 582 -292 586 1 2 28 -6 59 -17 173 -58 535
-50 803 17 126 31 281 105 297 140 17 37 0 59 -46 58 -29 -1 -36 2 -32 15 14
47 49 231 71 364 83 515 88 817 17 979 l-18 43 34 100 c18 55 54 172 78 260
24 88 49 161 54 163 75 26 233 211 457 535 l75 107 25 -47 c83 -159 329 -488
378 -507 29 -12 55 7 55 39 0 13 -51 91 -120 185 -66 89 -150 212 -187 274
-36 61 -73 119 -81 128 -12 15 -6 31 66 150 412 687 611 1212 614 1619 1 108
2 109 25 109 31 0 70 20 163 85 286 199 950 540 1715 882 350 156 575 244 903
353 163 54 214 67 255 64 l50 -2 54 -79z m-6880 -29 c52 -144 113 -355 168
-579 78 -313 207 -867 203 -870 -2 -1 -52 -23 -113 -49 -280 -121 -405 -215
-405 -304 0 -58 64 -74 107 -28 45 49 426 288 437 274 2 -1 22 -83 46 -182 46
-191 68 -236 116 -236 29 0 42 12 117 110 114 149 98 138 407 286 332 159 611
286 616 281 2 -1 -45 -43 -104 -92 -125 -106 -621 -538 -807 -705 -116 -104
-139 -120 -211 -148 -135 -52 -223 -73 -334 -78 -102 -6 -106 -5 -139 20 -40
30 -76 33 -103 9 -36 -32 -18 -94 41 -137 61 -45 174 -56 321 -31 l35 6 -29
-24 c-16 -14 -35 -23 -43 -20 -7 3 -25 -3 -40 -12 -43 -29 -310 -243 -318
-255 -4 -7 -17 3 -32 27 -114 172 -284 216 -366 95 -49 -71 -61 -126 -61 -272
-1 -74 3 -147 7 -163 7 -27 7 -27 -11 -9 -11 11 -41 23 -68 27 -65 9 -290 -4
-339 -21 -21 -7 -40 -12 -40 -11 -1 1 -7 18 -15 37 -82 218 -147 300 -240 300
-76 0 -136 -67 -161 -182 -7 -32 -16 -58 -20 -58 -33 0 -334 281 -473 442
l-58 68 -19 257 c-47 645 -89 1110 -134 1480 -14 112 -25 205 -25 208 0 3 22
-6 50 -20 85 -43 171 -58 295 -51 225 12 672 106 869 182 237 93 561 269 748
406 51 38 97 67 102 65 5 -2 16 -21 23 -43z m3115 -759 c162 -28 217 -50 278
-113 167 -172 216 -455 140 -806 -73 -331 -249 -728 -546 -1226 -131 -221
-511 -787 -521 -777 -1 2 6 48 17 103 62 322 136 848 160 1149 16 189 13 180
52 181 27 0 75 30 228 139 107 76 238 167 290 201 53 34 101 68 109 77 18 22
5 56 -26 63 -42 11 -213 -87 -446 -254 -81 -59 -157 -114 -169 -122 -21 -14
-21 -14 -13 45 4 33 13 68 21 79 8 12 14 45 14 79 0 125 71 277 263 560 114
169 165 224 182 197 20 -33 82 18 69 56 -23 62 -79 77 -157 41 -45 -20 -68
-42 -130 -118 -165 -206 -238 -323 -288 -460 -42 -115 -56 -192 -63 -354 -19
-405 -117 -1125 -211 -1559 -145 -664 -317 -1073 -598 -1421 -68 -85 -309
-308 -437 -405 -149 -113 -389 -261 -493 -305 l-34 -14 -37 98 -36 98 54 104
c30 57 60 129 66 160 11 48 36 88 175 280 98 136 168 223 176 221 8 -2 52 -6
99 -9 84 -5 86 -4 146 32 120 73 272 223 342 339 18 29 38 77 44 108 10 50 9
59 -11 102 -18 35 -36 54 -75 76 -28 17 -55 31 -60 33 -6 2 29 57 76 123 47
65 104 148 127 183 22 35 56 78 75 95 37 33 393 579 432 661 39 82 31 142 -28
217 -63 77 -154 109 -207 72 -40 -28 -153 -80 -211 -97 -30 -9 -82 -33 -115
-53 -33 -20 -96 -54 -140 -76 -44 -23 -102 -55 -130 -72 -27 -18 -86 -45 -130
-60 -186 -66 -371 -159 -710 -359 -338 -199 -615 -386 -760 -513 l-70 -61 -43
49 c-31 34 -51 48 -70 48 -27 0 -62 -25 -62 -44 0 -7 -98 -60 -217 -118 -316
-154 -650 -345 -1018 -583 -48 -31 -89 -54 -92 -51 -13 13 -95 386 -84 386 3
-1 17 -7 31 -15 45 -25 158 -19 265 15 205 66 597 252 783 372 81 53 92 64 92
89 0 61 -22 56 -251 -60 -411 -207 -813 -345 -835 -286 -21 55 65 135 471 439
176 132 340 257 365 278 25 21 53 45 63 53 22 19 22 63 0 87 -26 29 -64 22
-129 -24 -274 -192 -284 -198 -284 -174 0 13 -7 30 -17 37 -41 34 -87 182 -99
319 -6 76 7 207 28 269 10 33 11 34 26 15 21 -28 73 -141 142 -310 33 -81 67
-156 76 -165 26 -29 54 -30 80 -4 29 29 30 62 5 112 -11 21 -22 48 -26 61 -6
20 -3 22 37 22 89 1 361 48 374 64 15 21 24 20 24 -3 0 -28 67 -215 100 -280
15 -31 43 -79 62 -107 19 -29 38 -71 42 -94 10 -64 50 -132 106 -183 81 -73
148 -81 208 -24 85 79 78 506 -13 847 l-26 95 28 20 c15 11 72 59 125 107 53
49 103 88 111 88 9 0 100 75 203 166 103 91 201 172 218 181 94 47 266 158
271 174 4 10 2 26 -3 35 -8 14 31 50 222 208 553 459 898 727 1135 884 114 75
115 75 129 54 21 -33 69 -30 83 4 5 15 7 34 4 43 -10 32 104 116 198 147 105
35 247 42 379 19z m-4922 -2028 c147 -142 340 -287 401 -302 26 -7 27 -7 31
-123 4 -93 11 -134 33 -201 33 -96 94 -196 129 -213 24 -10 17 -17 -162 -152
-214 -162 -294 -233 -334 -295 -15 -25 -28 -41 -28 -35 0 5 -13 104 -30 219
-34 243 -82 679 -105 945 -8 102 -17 197 -18 213 -2 15 -3 27 -3 27 1 0 39
-37 86 -83z m1568 39 c96 -87 164 -302 192 -606 6 -69 10 -161 8 -205 l-3 -80
-68 80 c-178 211 -285 566 -232 769 9 32 18 63 21 67 11 18 45 8 82 -25z
m2501 -135 c39 -54 29 -81 -114 -326 -73 -126 -70 -122 -96 -99 -17 15 -36 19
-98 18 -139 -1 -263 -55 -527 -229 -328 -217 -594 -456 -594 -533 0 -17 30
-42 50 -42 11 0 52 30 92 66 186 169 660 493 811 555 39 16 88 32 110 36 l39
6 -42 -84 c-43 -85 -78 -138 -341 -509 -163 -230 -517 -749 -663 -972 -53 -81
-103 -151 -111 -155 -8 -5 -33 -53 -55 -108 -23 -55 -45 -103 -49 -108 -4 -4
-26 37 -50 90 -122 278 -358 704 -549 993 -107 163 -108 165 -88 181 48 37
325 229 331 229 3 0 -13 -23 -35 -51 -41 -52 -51 -94 -28 -117 27 -27 55 -9
192 126 214 209 490 441 615 516 130 78 301 170 306 164 2 -2 -71 -73 -163
-157 -265 -244 -531 -501 -584 -564 -57 -69 -68 -100 -43 -127 28 -31 49 -24
97 28 101 112 750 689 997 886 128 102 195 148 291 198 69 36 152 81 185 101
66 39 79 38 114 -12z m-4189 -926 c42 -323 98 -630 159 -880 16 -66 27 -123
23 -126 -4 -4 -77 -53 -162 -109 -544 -361 -858 -599 -966 -731 -56 -69 -59
-120 -7 -140 31 -11 52 0 118 61 85 80 267 222 458 358 171 122 1023 695 1205
809 79 51 82 52 82 28 0 -13 43 -115 96 -227 53 -111 116 -248 141 -303 25
-55 108 -237 185 -405 388 -845 382 -832 429 -849 49 -17 82 -13 166 18 153
57 686 298 695 315 14 24 0 55 -27 62 -35 9 -290 -79 -633 -217 -95 -39 -175
-69 -177 -67 -2 2 -45 107 -95 233 -301 752 -594 1405 -666 1482 -21 22 -28
36 -20 42 52 40 655 381 675 381 11 0 226 -326 383 -580 150 -243 260 -440
371 -667 75 -155 88 -189 78 -204 -19 -31 -13 -67 14 -85 13 -8 28 -13 34 -10
8 5 111 -238 111 -262 0 -4 13 -41 30 -82 16 -41 29 -80 30 -87 1 -34 -923
-599 -1470 -898 -785 -429 -1405 -662 -1905 -716 -142 -15 -372 -6 -486 20
-225 51 -384 159 -509 347 l-52 79 16 110 c78 507 323 1307 602 1965 153 363
360 749 539 1005 143 206 353 446 455 521 l45 33 7 -32 c4 -18 16 -104 28
-192z m3620 -454 c0 -34 -102 -173 -200 -273 -80 -81 -99 -96 -118 -91 -13 3
-34 0 -48 -7 -63 -34 -40 11 112 223 l157 216 48 -25 c33 -16 49 -31 49 -43z
m510 -418 c18 -200 -49 -865 -113 -1118 -11 -47 -14 -50 -57 -62 -158 -46
-505 -66 -678 -39 -107 16 -207 51 -280 96 l-42 26 114 69 c292 175 627 468
784 687 81 112 178 274 222 370 19 42 37 74 38 73 2 -2 8 -48 12 -102z m-1108
-1551 c154 -313 292 -559 581 -1039 l176 -293 -33 0 c-39 0 -143 -50 -175 -84
-13 -14 -33 -45 -45 -70 l-22 -45 -23 49 c-35 74 -87 130 -120 130 -61 0 -66
-41 -15 -143 41 -80 87 -197 81 -204 -7 -6 -63 85 -92 150 -15 32 -29 77 -32
100 -8 62 -20 79 -51 75 -41 -5 -58 -48 -44 -117 6 -31 14 -65 18 -76 18 -45
-436 343 -906 775 -124 114 -251 229 -282 256 -31 27 -57 52 -57 57 -1 4 43
35 97 69 357 229 718 480 726 506 11 38 25 135 21 142 -5 8 33 60 43 59 4 0
73 -134 154 -297z m-315 -1303 c81 -69 254 -208 383 -308 129 -100 260 -202
290 -226 145 -116 224 -175 236 -175 19 0 44 29 44 50 0 10 -22 38 -50 63 -48
43 -49 45 -38 80 l11 35 31 -41 c29 -38 114 -115 180 -162 l28 -20 -68 -50
c-149 -109 -264 -245 -305 -359 -26 -75 -27 -195 -3 -257 44 -111 163 -249
306 -353 37 -27 67 -51 65 -52 -1 -1 -27 6 -57 16 -68 24 -88 24 -112 3 -35
-32 -16 -66 69 -120 l38 -24 -76 5 c-144 10 -463 88 -744 182 -409 135 -697
286 -788 412 -43 60 -57 101 -57 172 0 111 38 229 193 590 160 375 227 571
227 667 l0 35 24 -19 c13 -10 91 -75 173 -144z m1249 -2016 l115 -68 -7 -41
c-4 -31 0 -56 19 -103 l25 -61 -97 -1 c-53 -1 -127 -3 -166 -4 -102 -4 -133 3
-137 29 -2 14 -14 25 -37 32 -40 13 -44 19 -85 142 l-33 97 118 -3 c115 -4
119 -3 141 21 13 14 24 25 26 26 2 1 55 -29 118 -66z"/>
<path d="M8599 18818 c-9 -20 -2 -45 41 -153 99 -247 195 -538 260 -790 102
-397 218 -1024 275 -1492 15 -120 32 -224 37 -230 13 -16 50 -17 66 -1 18 18
15 109 -13 348 -77 665 -201 1297 -336 1710 -62 188 -155 425 -212 540 -39 78
-45 85 -74 88 -26 3 -35 -1 -44 -20z"/>
<path d="M9266 17538 c-16 -23 -18 -14 31 -126 18 -43 50 -195 68 -326 12 -87
25 -255 39 -494 2 -34 9 -69 16 -77 16 -20 45 -19 66 2 15 15 16 39 11 248 -6
229 -17 339 -57 537 -40 197 -122 310 -174 236z"/>
<path d="M6229 15311 c-20 -16 -22 -22 -12 -43 12 -27 46 -38 112 -38 57 0
235 -44 360 -89 125 -45 152 -49 171 -26 42 51 -25 131 -139 165 -107 32 -236
50 -356 50 -96 0 -116 -3 -136 -19z"/>
<path d="M6897 14601 c-26 -27 -77 -63 -114 -81 -64 -32 -67 -32 -177 -28
-121 5 -166 19 -228 68 -58 47 -98 36 -98 -27 0 -48 76 -122 156 -153 49 -19
78 -23 170 -23 104 0 116 2 180 32 153 72 264 214 195 251 -29 15 -32 14 -84
-39z"/>
<path d="M8909 10729 c-16 -16 -20 -30 -17 -56 4 -29 0 -36 -19 -44 -35 -13
-29 -51 24 -140 99 -166 184 -259 238 -259 34 0 73 37 81 76 12 65 -83 288
-157 369 -37 40 -92 75 -118 75 -6 0 -20 -9 -32 -21z"/>
<path d="M9282 8435 c-82 -69 -122 -181 -102 -282 14 -67 69 -191 106 -240 69
-91 178 -81 205 20 23 84 -16 387 -58 459 -20 35 -67 66 -100 67 -12 1 -35
-10 -51 -24z"/>
<path d="M3560 16943 c-35 -13 -50 -37 -50 -78 0 -46 22 -75 58 -75 18 0 33
-23 87 -132 35 -73 107 -239 159 -368 52 -129 113 -279 135 -333 23 -54 77
-207 121 -340 45 -133 86 -245 93 -249 23 -15 57 -8 71 15 14 21 11 37 -34
197 -88 306 -326 955 -418 1138 -84 167 -163 246 -222 225z"/>
<path d="M2449 16226 c-227 -48 -488 -155 -504 -208 -4 -11 -16 -29 -27 -40
-27 -27 -20 -71 25 -163 36 -74 144 -342 195 -485 219 -611 316 -863 461
-1188 120 -271 132 -294 168 -339 28 -36 40 -43 69 -43 21 0 42 8 55 21 18 18
21 30 16 74 l-5 52 47 36 c79 60 272 266 358 381 137 183 247 419 287 618 39
189 1 342 -102 411 -56 38 -109 51 -202 50 -139 -1 -275 -42 -482 -145 -54
-26 -98 -47 -98 -44 0 2 13 34 28 72 78 188 139 402 150 523 25 275 -72 417
-292 427 -45 2 -110 -3 -147 -10z m211 -164 c112 -55 96 -279 -47 -652 -67
-176 -176 -400 -195 -400 -4 0 -10 10 -13 23 -11 37 -165 438 -189 492 -13 28
-35 82 -51 120 -16 39 -50 112 -76 163 -30 62 -41 91 -30 86 66 -29 117 -5
107 51 l-6 31 122 39 c218 69 312 80 378 47z m709 -826 c51 -18 72 -53 78
-129 17 -208 -145 -561 -393 -857 -76 -91 -226 -240 -241 -240 -5 0 -31 53
-58 118 -128 307 -265 659 -265 680 0 17 164 166 245 221 127 88 295 164 465
210 49 13 129 12 169 -3z"/>
<path d="M1086 15154 c-30 -30 -14 -87 35 -119 30 -20 37 -39 19 -50 -16 -10
-12 -49 25 -243 19 -100 51 -275 70 -389 47 -277 94 -517 170 -879 80 -378 92
-422 122 -441 29 -19 68 -10 89 22 14 21 14 42 4 182 -13 184 -18 205 -47 218
-12 5 -25 21 -27 35 -6 31 -72 381 -126 675 -36 195 -128 638 -147 705 -5 19
18 3 100 -70 153 -136 284 -247 423 -359 l121 -98 -135 -114 c-248 -209 -272
-236 -272 -303 0 -60 53 -97 84 -58 42 50 131 136 210 202 49 41 118 100 153
133 l63 59 127 -99 c71 -55 162 -125 203 -156 137 -102 192 -152 214 -191 29
-52 47 -63 80 -48 21 9 26 19 26 48 0 20 -7 51 -16 70 -20 41 -126 143 -259
248 -55 44 -138 111 -185 150 -47 38 -87 71 -89 73 -2 1 19 28 46 60 81 94
163 213 163 238 0 42 -44 68 -77 47 -7 -4 -27 -29 -45 -54 -19 -26 -68 -83
-111 -128 l-78 -81 -57 49 c-31 26 -167 142 -302 257 -135 115 -289 247 -343
294 -54 47 -113 96 -130 109 -37 26 -79 29 -101 6z"/>
<path d="M4338 15014 c-10 -22 -8 -33 18 -80 39 -74 73 -98 127 -91 46 6 67
27 67 67 0 35 -18 56 -61 69 -20 6 -46 23 -57 36 -30 35 -78 34 -94 -1z"/>
<path d="M32 14783 c-26 -10 -32 -50 -16 -95 31 -83 33 -103 13 -127 -42 -52
-8 -108 59 -99 l38 6 43 -107 c24 -58 103 -263 176 -456 73 -192 149 -391 169
-441 132 -338 317 -727 363 -764 59 -46 123 -7 123 75 0 33 5 46 23 58 16 10
28 38 45 98 138 510 145 1031 21 1403 -71 212 -171 330 -322 380 -72 24 -191
34 -287 24 -68 -6 -222 -46 -286 -74 -7 -3 -28 22 -48 54 -42 69 -67 84 -114
65z m692 -214 c185 -62 306 -422 306 -912 0 -202 -15 -349 -61 -597 -27 -146
-38 -179 -60 -180 -16 0 -227 505 -324 775 -112 312 -238 640 -298 775 -46
103 -47 96 35 121 40 12 93 25 118 30 61 11 236 4 284 -12z"/>
</g>
</svg>
