<?xml version="1.0" standalone="no"?>
<!DOCTYPE svg PUBLIC "-//W3C//DTD SVG 20010904//EN"
 "http://www.w3.org/TR/2001/REC-SVG-20010904/DTD/svg10.dtd">
<svg version="1.0" xmlns="http://www.w3.org/2000/svg"
 width="1570.000000pt" height="962.000000pt" viewBox="0 0 1570.000000 962.000000"
 preserveAspectRatio="xMidYMid meet">
<metadata>
Created by potrace 1.16, written by Peter Selinger 2001-2019
</metadata>
<g transform="translate(0.000000,962.000000) scale(0.100000,-0.100000)"
fill="#ffffff" stroke="none">
<path d="M4430 7521 c0 -84 1 -89 23 -95 34 -9 370 -7 385 3 9 5 12 31 10 92
l-3 84 -207 3 -208 2 0 -89z"/>
<path d="M1741 7190 l-1 -90 210 0 210 0 0 90 0 90 -209 0 -209 0 -1 -90z"/>
<path d="M4430 7190 l0 -90 210 0 211 0 -3 88 -3 87 -207 3 -208 2 0 -90z"/>
<path d="M1740 6870 l0 -90 210 0 210 0 0 90 0 90 -210 0 -210 0 0 -90z"/>
<path d="M4430 6870 l0 -90 210 0 211 0 -3 88 -3 87 -207 3 -208 2 0 -90z"/>
<path d="M8207 6953 c-4 -3 -7 -44 -7 -90 l0 -83 203 2 202 3 1 75 c1 41 -1
81 -3 87 -4 10 -53 13 -197 13 -106 0 -196 -3 -199 -7z"/>
<path d="M863 6632 l-193 -2 0 -85 0 -85 205 0 205 0 0 84 c0 59 -4 85 -12 87
-7 2 -100 3 -205 1z"/>
<path d="M1745 6628 c-2 -7 -3 -49 -2 -93 l2 -80 208 -3 207 -2 0 89 c0 72 -3
90 -16 95 -9 3 -101 6 -205 6 -143 0 -191 -3 -194 -12z"/>
<path d="M4434 6631 c-2 -2 -4 -41 -4 -87 0 -65 3 -83 16 -88 9 -3 98 -6 199
-6 143 0 185 3 194 14 7 8 10 44 9 92 l-3 79 -203 0 c-112 0 -206 -2 -208 -4z"/>
<path d="M8200 6545 l0 -85 203 2 202 3 3 60 c2 32 1 69 -3 82 l-5 23 -200 0
-200 0 0 -85z"/>
<path d="M670 6220 l0 -90 205 0 205 0 0 90 0 90 -205 0 -205 0 0 -90z"/>
<path d="M1747 6303 c-3 -5 -4 -44 -3 -88 l1 -80 208 -3 207 -2 0 90 0 90
-204 0 c-113 0 -207 -3 -209 -7z"/>
<path d="M3360 6220 l0 -90 205 0 205 0 0 90 0 90 -205 0 -205 0 0 -90z"/>
<path d="M4430 6220 l0 -90 208 2 207 3 0 85 0 85 -207 3 -208 2 0 -90z"/>
<path d="M5510 6220 l0 -90 205 0 205 0 0 90 0 90 -205 0 -205 0 0 -90z"/>
<path d="M7660 6220 l0 -90 203 2 202 3 0 85 0 85 -202 3 -203 2 0 -90z"/>
<path d="M8206 6303 c-3 -4 -6 -44 -6 -90 l0 -83 203 2 202 3 0 85 0 85 -196
2 c-108 1 -199 -1 -203 -4z"/>
<path d="M670 5900 l0 -90 205 0 205 0 0 90 0 90 -205 0 -205 0 0 -90z"/>
<path d="M1746 5974 c-3 -9 -6 -49 -6 -90 l0 -74 210 0 210 0 0 90 0 90 -204
0 c-177 0 -205 -2 -210 -16z"/>
<path d="M3360 5900 l0 -90 205 0 205 0 0 90 0 90 -205 0 -205 0 0 -90z"/>
<path d="M4430 5900 l0 -90 208 2 207 3 0 85 0 85 -207 3 -208 2 0 -90z"/>
<path d="M5510 5900 l0 -90 205 0 205 0 0 90 0 90 -205 0 -205 0 0 -90z"/>
<path d="M7660 5900 l0 -90 203 2 202 3 0 85 0 85 -202 3 -203 2 0 -90z"/>
<path d="M8207 5984 c-4 -4 -7 -45 -7 -91 l0 -83 203 2 202 3 0 85 0 85 -196
3 c-107 1 -198 -1 -202 -4z"/>
<path d="M823 5662 l-153 -3 0 -84 0 -85 205 0 206 0 -3 87 -3 86 -50 1 c-27
1 -119 0 -202 -2z"/>
<path d="M1746 5654 c-3 -8 -6 -49 -6 -90 l0 -74 210 0 211 0 -3 88 -3 87
-201 3 c-177 2 -202 0 -208 -14z"/>
<path d="M2827 5664 c-4 -4 -7 -45 -7 -91 l0 -83 205 0 205 0 0 89 0 89 -198
2 c-109 0 -201 -2 -205 -6z"/>
<path d="M3367 5663 c-4 -3 -7 -44 -7 -90 l0 -83 205 0 205 0 0 90 0 90 -198
0 c-109 0 -202 -3 -205 -7z"/>
<path d="M4443 5663 c-9 -3 -13 -31 -13 -89 l0 -84 208 2 207 3 3 65 c2 35 0
75 -3 88 l-6 23 -192 -2 c-105 -1 -198 -3 -204 -6z"/>
<path d="M4970 5580 l0 -90 205 0 206 0 -3 88 -3 87 -202 3 -203 2 0 -90z"/>
<path d="M5523 5663 c-9 -3 -13 -31 -13 -89 l0 -84 205 0 205 0 0 85 0 85
-112 1 c-62 1 -149 2 -193 4 -44 1 -86 0 -92 -2z"/>
<path d="M6050 5575 l0 -85 205 0 205 0 0 85 0 85 -205 0 -205 0 0 -85z"/>
<path d="M7120 5575 l0 -85 205 0 205 0 0 85 0 85 -205 0 -205 0 0 -85z"/>
<path d="M7660 5575 l0 -86 203 3 202 3 0 80 0 80 -202 3 -203 2 0 -85z"/>
<path d="M8200 5574 l0 -84 203 2 202 3 3 83 3 83 -206 -1 -205 -1 0 -85z"/>
<path d="M8731 5575 l2 -85 136 0 c159 0 273 9 265 21 -3 5 -58 7 -122 5 -64
-2 -82 -1 -39 1 68 3 77 6 77 23 0 16 7 20 35 20 28 0 35 4 35 19 0 15 -8 21
-37 24 l-38 4 41 1 c23 1 44 8 47 15 3 9 -8 12 -42 10 l-46 -1 40 7 40 6 -55
8 c-30 4 -119 7 -198 7 l-143 0 2 -85z"/>
<path d="M130 5250 l0 -90 205 0 205 0 0 90 0 90 -205 0 -205 0 0 -90z"/>
<path d="M670 5250 l0 -90 205 0 205 0 0 90 0 90 -205 0 -205 0 0 -90z"/>
<path d="M1210 5250 l0 -90 205 0 205 0 0 90 0 90 -205 0 -205 0 0 -90z"/>
<path d="M1744 5327 c-3 -8 -4 -47 -2 -88 l3 -74 208 -3 207 -2 0 90 0 90
-205 0 c-163 0 -207 -3 -211 -13z"/>
<path d="M2820 5250 l0 -90 205 0 205 0 0 90 0 90 -205 0 -205 0 0 -90z"/>
<path d="M3360 5250 l0 -90 205 0 205 0 0 90 0 90 -205 0 -205 0 0 -90z"/>
<path d="M4430 5250 l0 -90 208 2 207 3 0 85 0 85 -207 3 -208 2 0 -90z"/>
<path d="M4970 5250 l0 -90 205 0 205 0 0 90 0 90 -205 0 -205 0 0 -90z"/>
<path d="M5510 5250 l0 -90 205 0 205 0 0 90 0 90 -205 0 -205 0 0 -90z"/>
<path d="M6050 5250 l0 -90 203 2 202 3 3 88 3 87 -206 0 -205 0 0 -90z"/>
<path d="M7122 5253 l3 -88 203 -3 202 -2 0 90 0 90 -205 0 -206 0 3 -87z"/>
<path d="M7660 5250 l0 -90 203 2 202 3 0 85 0 85 -202 3 -203 2 0 -90z"/>
<path d="M8204 5327 c-3 -8 -4 -47 -2 -88 l3 -74 197 -3 198 -2 5 23 c3 12 5
52 3 87 l-3 65 -198 3 c-159 2 -198 0 -203 -11z"/>
<path d="M8735 5330 c-3 -5 -5 -46 -4 -90 l2 -80 76 0 c42 0 135 3 206 7 103
6 120 9 80 14 l-50 6 45 3 45 3 -40 6 c-40 6 -40 6 -43 54 l-3 47 39 0 c23 0
42 5 45 13 3 9 -7 11 -39 8 -28 -2 -44 1 -44 8 0 14 -306 15 -315 1z"/>
<path d="M130 4930 l0 -90 205 0 205 0 0 90 0 90 -205 0 -205 0 0 -90z"/>
<path d="M670 4930 l0 -90 205 0 205 0 0 90 0 90 -205 0 -205 0 0 -90z"/>
<path d="M1210 4930 l0 -90 205 0 205 0 0 90 0 90 -205 0 -205 0 0 -90z"/>
<path d="M1744 5007 c-3 -8 -4 -47 -2 -88 l3 -74 208 -3 207 -2 0 90 0 90
-205 0 c-163 0 -207 -3 -211 -13z"/>
<path d="M2280 4930 l0 -90 208 2 207 3 0 85 0 85 -207 3 -208 2 0 -90z"/>
<path d="M2820 4930 l0 -90 205 0 205 0 0 90 0 90 -205 0 -205 0 0 -90z"/>
<path d="M3360 4930 l0 -90 205 0 205 0 0 90 0 90 -205 0 -205 0 0 -90z"/>
<path d="M3894 5007 c-3 -8 -4 -47 -2 -88 l3 -74 208 -3 207 -2 0 90 0 90
-205 0 c-163 0 -207 -3 -211 -13z"/>
<path d="M4430 4930 l0 -90 208 2 207 3 0 85 0 85 -207 3 -208 2 0 -90z"/>
<path d="M4970 4930 l0 -90 205 0 205 0 0 90 0 90 -205 0 -205 0 0 -90z"/>
<path d="M5510 4930 l0 -90 205 0 205 0 0 90 0 90 -205 0 -205 0 0 -90z"/>
<path d="M6050 4930 l0 -90 203 2 202 3 0 85 0 85 -202 3 -203 2 0 -90z"/>
<path d="M6580 4930 l0 -90 205 0 205 0 0 90 0 90 -205 0 -205 0 0 -90z"/>
<path d="M7124 5007 c-3 -8 -4 -47 -2 -88 l3 -74 203 -3 202 -2 0 90 0 90
-200 0 c-159 0 -202 -3 -206 -13z"/>
<path d="M7664 5007 c-3 -8 -4 -47 -2 -88 l3 -74 200 0 200 0 0 85 0 85 -198
3 c-159 2 -198 0 -203 -11z"/>
<path d="M8204 5007 c-3 -8 -4 -47 -2 -88 l3 -74 200 0 200 0 0 85 0 85 -198
3 c-159 2 -198 0 -203 -11z"/>
<path d="M8735 5012 c-3 -3 -5 -40 -5 -83 0 -70 2 -78 21 -84 23 -8 261 3 329
15 l45 7 -40 3 -40 3 50 7 50 7 -47 1 c-44 2 -48 4 -48 28 0 34 22 54 62 56
26 1 22 3 -17 8 l-50 7 42 1 c58 3 62 17 5 18 -26 1 -116 4 -199 6 -84 3 -155
3 -158 0z"/>
<path d="M130 4660 l0 -90 205 0 205 0 0 90 0 90 -205 0 -205 0 0 -90z"/>
<path d="M670 4660 l0 -90 205 0 205 0 0 90 0 90 -205 0 -205 0 0 -90z"/>
<path d="M1210 4660 l0 -90 205 0 205 0 0 90 0 90 -205 0 -205 0 0 -90z"/>
<path d="M1740 4660 l0 -90 210 0 210 0 0 90 0 90 -210 0 -210 0 0 -90z"/>
<path d="M2280 4660 l0 -90 210 0 211 0 -3 88 -3 87 -207 3 -208 2 0 -90z"/>
<path d="M2820 4660 l0 -90 205 0 205 0 0 90 0 90 -205 0 -205 0 0 -90z"/>
<path d="M3360 4660 l0 -90 205 0 205 0 0 90 0 90 -205 0 -205 0 0 -90z"/>
<path d="M3890 4660 l0 -90 210 0 210 0 0 90 0 90 -210 0 -210 0 0 -90z"/>
<path d="M4430 4660 l0 -90 210 0 210 0 0 90 0 90 -210 0 -210 0 0 -90z"/>
<path d="M4970 4660 l0 -90 205 0 205 0 0 90 0 90 -205 0 -205 0 0 -90z"/>
<path d="M5510 4660 l0 -90 205 0 205 0 0 90 0 90 -205 0 -205 0 0 -90z"/>
<path d="M6050 4660 l0 -90 205 0 205 0 0 90 0 90 -205 0 -205 0 0 -90z"/>
<path d="M6580 4660 l0 -90 205 0 205 0 0 90 0 90 -205 0 -205 0 0 -90z"/>
<path d="M7120 4660 l0 -90 205 0 205 0 0 90 0 90 -205 0 -205 0 0 -90z"/>
<path d="M7660 4660 l0 -90 205 0 206 0 -3 88 -3 87 -202 3 -203 3 0 -91z"/>
<path d="M8200 4660 l0 -90 205 0 206 0 -3 88 -3 87 -202 3 -203 3 0 -91z"/>
<path d="M8730 4659 l0 -90 160 2 c88 2 160 7 160 11 0 4 16 8 35 8 19 0 35 5
35 10 0 6 -16 10 -35 10 -34 0 -35 1 -35 40 0 39 1 40 35 40 19 0 35 5 35 10
0 6 -16 10 -35 10 -19 0 -35 4 -35 9 0 6 -19 12 -42 14 -24 2 -4 4 44 3 47 0
84 2 81 7 -2 4 -94 7 -204 7 l-199 0 0 -91z"/>
<path d="M130 4340 l0 -90 205 0 205 0 0 90 0 90 -205 0 -205 0 0 -90z"/>
<path d="M670 4340 l0 -90 205 0 205 0 0 90 0 90 -205 0 -205 0 0 -90z"/>
<path d="M1210 4340 l0 -90 205 0 205 0 0 90 0 90 -205 0 -205 0 0 -90z"/>
<path d="M1740 4340 l0 -90 210 0 210 0 0 90 0 90 -210 0 -210 0 0 -90z"/>
<path d="M2280 4340 l0 -90 210 0 211 0 -3 88 -3 87 -207 3 -208 2 0 -90z"/>
<path d="M2820 4340 l0 -90 205 0 205 0 0 90 0 90 -205 0 -205 0 0 -90z"/>
<path d="M3360 4340 l0 -90 205 0 205 0 0 90 0 90 -205 0 -205 0 0 -90z"/>
<path d="M3897 4423 c-4 -3 -7 -44 -7 -90 l0 -83 210 0 210 0 0 90 0 90 -203
0 c-112 0 -207 -3 -210 -7z"/>
<path d="M4430 4340 l0 -90 210 0 211 0 -3 88 -3 87 -207 3 -208 2 0 -90z"/>
<path d="M4970 4340 l0 -90 205 0 205 0 0 90 0 90 -205 0 -205 0 0 -90z"/>
<path d="M5510 4340 l0 -90 205 0 205 0 0 90 0 90 -205 0 -205 0 0 -90z"/>
<path d="M6050 4340 l0 -90 205 0 206 0 -3 88 -3 87 -202 3 -203 2 0 -90z"/>
<path d="M6580 4340 l0 -90 205 0 205 0 0 90 0 90 -205 0 -205 0 0 -90z"/>
<path d="M7127 4423 c-4 -3 -7 -44 -7 -90 l0 -83 205 0 205 0 0 90 0 90 -198
0 c-109 0 -202 -3 -205 -7z"/>
<path d="M7667 4424 c-4 -4 -7 -45 -7 -91 l0 -83 205 0 206 0 -3 88 -3 87
-196 3 c-107 1 -198 -1 -202 -4z"/>
<path d="M8200 4340 l0 -90 205 0 206 0 -3 88 -3 87 -202 3 -203 2 0 -90z"/>
<path d="M670 4020 l0 -90 205 0 205 0 0 90 0 90 -205 0 -205 0 0 -90z"/>
<path d="M1210 4020 l0 -90 205 0 205 0 0 90 0 90 -205 0 -205 0 0 -90z"/>
<path d="M1740 4020 l0 -90 210 0 210 0 0 90 0 90 -210 0 -210 0 0 -90z"/>
<path d="M2280 4020 l0 -90 210 0 211 0 -3 88 -3 87 -207 3 -208 2 0 -90z"/>
<path d="M2820 4020 l0 -90 205 0 205 0 0 90 0 90 -205 0 -205 0 0 -90z"/>
<path d="M3360 4020 l0 -90 205 0 205 0 0 90 0 90 -205 0 -205 0 0 -90z"/>
<path d="M3897 4103 c-4 -3 -7 -44 -7 -90 l0 -83 210 0 210 0 0 90 0 90 -203
0 c-112 0 -207 -3 -210 -7z"/>
<path d="M4970 4020 l0 -90 205 0 205 0 0 90 0 90 -205 0 -205 0 0 -90z"/>
<path d="M5510 4020 l0 -90 205 0 205 0 0 90 0 90 -205 0 -205 0 0 -90z"/>
<path d="M6050 4020 l0 -90 205 0 206 0 -3 88 -3 87 -202 3 -203 2 0 -90z"/>
<path d="M6580 4020 l0 -90 205 0 205 0 0 90 0 90 -205 0 -205 0 0 -90z"/>
<path d="M7120 4020 l0 -90 205 0 205 0 0 90 0 90 -205 0 -205 0 0 -90z"/>
<path d="M7667 4104 c-4 -4 -7 -45 -7 -91 l0 -83 205 0 206 0 -3 88 -3 87
-196 3 c-107 1 -198 -1 -202 -4z"/>
<path d="M8200 4020 l0 -90 205 0 206 0 -3 88 -3 87 -202 3 -203 2 0 -90z"/>
<path d="M1217 3784 c-4 -4 -7 -47 -7 -96 l0 -88 203 2 202 3 0 90 0 90 -196
3 c-107 1 -198 -1 -202 -4z"/>
<path d="M1745 3767 c-3 -12 -5 -54 -3 -92 l3 -70 205 0 205 0 3 93 3 92 -205
0 c-205 0 -206 0 -211 -23z"/>
<path d="M2292 3782 c-9 -6 -12 -32 -10 -93 l3 -84 205 0 205 0 0 90 0 90
-195 2 c-107 2 -201 -1 -208 -5z"/>
<path d="M3364 3777 c-3 -8 -4 -49 -2 -93 l3 -79 203 -3 202 -2 0 95 0 95
-200 0 c-158 0 -202 -3 -206 -13z"/>
<path d="M3902 3778 c-7 -7 -12 -43 -12 -90 0 -72 2 -78 23 -83 12 -3 105 -4
207 -3 l185 3 3 86 c3 83 2 87 -20 93 -45 12 -373 7 -386 -6z"/>
<path d="M4970 3695 l0 -95 203 2 202 3 0 90 0 90 -202 3 -203 2 0 -95z"/>
<path d="M5515 3777 c-8 -20 -1 -172 8 -169 4 1 95 2 202 2 l195 0 0 84 c0 71
-3 84 -17 88 -10 2 -100 5 -200 7 -151 2 -184 0 -188 -12z"/>
<path d="M6050 3695 l0 -85 205 0 205 0 0 85 0 85 -205 0 -205 0 0 -85z"/>
<path d="M7120 3695 l0 -85 205 0 205 0 0 85 0 85 -205 0 -205 0 0 -85z"/>
<path d="M7660 3695 l0 -85 205 0 206 0 -3 83 -3 82 -202 3 -203 2 0 -85z"/>
<path d="M1210 3370 l0 -90 205 0 205 0 0 90 0 90 -205 0 -205 0 0 -90z"/>
<path d="M1744 3447 c-3 -8 -4 -47 -2 -88 l3 -74 208 -3 207 -2 0 90 0 90
-205 0 c-163 0 -207 -3 -211 -13z"/>
<path d="M2280 3370 l0 -90 208 2 207 3 0 85 0 85 -207 3 -208 2 0 -90z"/>
<path d="M3360 3370 l0 -90 205 0 205 0 0 90 0 90 -205 0 -205 0 0 -90z"/>
<path d="M3894 3447 c-3 -8 -4 -47 -2 -88 l3 -74 208 -3 207 -2 0 90 0 90
-205 0 c-163 0 -207 -3 -211 -13z"/>
<path d="M4970 3370 l0 -90 205 0 205 0 0 90 0 90 -205 0 -205 0 0 -90z"/>
<path d="M5510 3370 l0 -90 205 0 205 0 0 90 0 90 -205 0 -205 0 0 -90z"/>
<path d="M6050 3370 l0 -90 203 2 202 3 0 85 0 85 -202 3 -203 2 0 -90z"/>
<path d="M7124 3447 c-3 -8 -4 -47 -2 -88 l3 -74 203 -3 202 -2 0 90 0 90
-200 0 c-159 0 -202 -3 -206 -13z"/>
<path d="M7667 3454 c-4 -4 -7 -45 -7 -91 l0 -84 203 3 202 3 0 85 0 85 -196
3 c-107 1 -198 -1 -202 -4z"/>
<path d="M1210 3050 l0 -90 205 0 205 0 0 90 0 90 -205 0 -205 0 0 -90z"/>
<path d="M1744 3127 c-3 -8 -4 -47 -2 -88 l3 -74 208 -3 207 -2 0 90 0 90
-205 0 c-163 0 -207 -3 -211 -13z"/>
<path d="M2280 3050 l0 -90 208 2 207 3 0 85 0 85 -207 3 -208 2 0 -90z"/>
<path d="M3360 3050 l0 -90 205 0 205 0 0 90 0 90 -205 0 -205 0 0 -90z"/>
<path d="M3897 3133 c-4 -3 -7 -44 -7 -90 l0 -83 210 0 210 0 0 90 0 90 -203
0 c-112 0 -207 -3 -210 -7z"/>
<path d="M4970 3050 l0 -90 205 0 205 0 0 90 0 90 -205 0 -205 0 0 -90z"/>
<path d="M5510 3050 l0 -90 205 0 205 0 0 90 0 90 -205 0 -205 0 0 -90z"/>
<path d="M6050 3050 l0 -90 205 0 206 0 -3 88 -3 87 -202 3 -203 2 0 -90z"/>
<path d="M7127 3133 c-4 -3 -7 -44 -7 -90 l0 -83 205 0 205 0 0 90 0 90 -198
0 c-109 0 -202 -3 -205 -7z"/>
<path d="M1212 2728 l3 -93 200 0 200 0 0 90 0 90 -203 3 -203 2 3 -92z"/>
<path d="M1747 2814 c-9 -9 -9 -146 -1 -168 5 -14 33 -16 210 -16 l205 0 -3
93 -3 92 -201 3 c-110 1 -203 -1 -207 -4z"/>
<path d="M3364 2807 c-3 -8 -4 -49 -2 -93 l3 -79 203 -3 202 -2 0 95 0 95
-200 0 c-158 0 -202 -3 -206 -13z"/>
<path d="M3903 2813 c-17 -6 -18 -154 -1 -171 13 -13 341 -18 386 -6 22 6 23
10 20 93 l-3 86 -195 2 c-107 1 -201 -1 -207 -4z"/>
<path d="M4970 2725 l0 -95 203 2 202 3 0 90 0 90 -202 3 -203 2 0 -95z"/>
<path d="M5513 2804 c-2 -6 -3 -46 -1 -90 l3 -79 185 -1 c102 0 193 1 203 4
14 4 17 17 17 88 l0 83 -201 3 c-139 2 -203 0 -206 -8z"/>
<path d="M7120 2725 l0 -85 205 0 205 0 0 85 0 85 -205 0 -205 0 0 -85z"/>
<path d="M1210 2400 l0 -90 205 0 205 0 0 90 0 90 -205 0 -205 0 0 -90z"/>
<path d="M1740 2400 l0 -90 210 0 210 0 0 90 0 90 -210 0 -210 0 0 -90z"/>
<path d="M3360 2400 l0 -90 205 0 205 0 0 90 0 90 -205 0 -205 0 0 -90z"/>
<path d="M3892 2403 l3 -88 208 -3 207 -2 0 90 0 90 -210 0 -211 0 3 -87z"/>
<path d="M4970 2400 l0 -90 205 0 205 0 0 90 0 90 -205 0 -205 0 0 -90z"/>
<path d="M5510 2400 l0 -90 205 0 205 0 0 90 0 90 -205 0 -205 0 0 -90z"/>
<path d="M1210 2080 l0 -90 205 0 205 0 0 90 0 90 -205 0 -205 0 0 -90z"/>
<path d="M1740 2080 l0 -90 210 0 210 0 0 90 0 90 -210 0 -210 0 0 -90z"/>
<path d="M3360 2080 l0 -90 205 0 205 0 0 90 0 90 -205 0 -205 0 0 -90z"/>
<path d="M3892 2083 l3 -88 208 -3 207 -2 0 90 0 90 -210 0 -211 0 3 -87z"/>
<path d="M4970 2080 l0 -90 205 0 205 0 0 90 0 90 -205 0 -205 0 0 -90z"/>
<path d="M3360 1760 l0 -90 205 0 205 0 0 90 0 90 -205 0 -205 0 0 -90z"/>
<path d="M3890 1760 l0 -90 210 0 210 0 0 90 0 90 -210 0 -210 0 0 -90z"/>
<path d="M4970 1760 l0 -90 205 0 205 0 0 90 0 90 -205 0 -205 0 0 -90z"/>
<path d="M3894 1507 c-3 -8 -4 -47 -2 -88 l3 -74 208 -3 207 -2 0 90 0 90
-205 0 c-163 0 -207 -3 -211 -13z"/>
<path d="M4970 1430 l0 -90 205 0 205 0 0 90 0 90 -205 0 -205 0 0 -90z"/>
<path d="M3897 1193 c-3 -5 -4 -44 -3 -88 l1 -80 208 -3 207 -2 0 90 0 90
-204 0 c-113 0 -207 -3 -209 -7z"/>
<path d="M4970 1110 l0 -90 205 0 205 0 0 90 0 90 -205 0 -205 0 0 -90z"/>
<path d="M3896 864 c-3 -9 -6 -49 -6 -90 l0 -74 210 0 210 0 0 90 0 90 -204 0
c-177 0 -205 -2 -210 -16z"/>
<path d="M4970 790 l0 -90 205 0 205 0 0 90 0 90 -205 0 -205 0 0 -90z"/>
<path d="M3900 545 c-12 -16 -12 -146 1 -161 9 -11 52 -14 198 -14 102 0 192
4 199 9 9 5 12 31 10 91 l-3 84 -198 0 c-121 1 -202 -3 -207 -9z"/>
<path d="M4978 554 c-5 -4 -8 -47 -8 -96 l0 -88 203 2 202 3 3 84 c2 48 -1 87
-7 90 -15 9 -385 14 -393 5z"/>
<path d="M3894 217 c-3 -8 -4 -47 -2 -88 l3 -74 208 -3 207 -2 0 90 0 90 -205
0 c-163 0 -207 -3 -211 -13z"/>
</g>
</svg>
