<?xml version="1.0" standalone="no"?>
<!DOCTYPE svg PUBLIC "-//W3C//DTD SVG 20010904//EN"
 "http://www.w3.org/TR/2001/REC-SVG-20010904/DTD/svg10.dtd">
<svg version="1.0" xmlns="http://www.w3.org/2000/svg"
 width="3112.000000pt" height="2328.000000pt" viewBox="0 0 3112.000000 2328.000000"
 preserveAspectRatio="xMidYMid meet">
<metadata>
Created by potrace 1.16, written by Peter Selinger 2001-2019
</metadata>
<g transform="translate(0.000000,2328.000000) scale(0.100000,-0.100000)"
fill="#ffffff" stroke="none">
<path d="M26125 23214 c-72 -10 -224 -48 -284 -71 -300 -113 -597 -342 -800
-616 -64 -87 -115 -169 -262 -421 -37 -64 -88 -134 -122 -168 -97 -99 -250
-157 -414 -158 l-72 0 -6 48 c-44 330 -172 636 -344 824 -213 233 -519 233
-587 1 -57 -197 101 -573 334 -794 95 -91 195 -155 311 -199 l92 -35 -6 -39
c-9 -60 -63 -152 -116 -200 -131 -118 -342 -181 -645 -193 l-151 -6 -13 39
c-23 73 -151 319 -224 429 -204 311 -398 488 -575 526 -277 59 -521 -238 -432
-529 82 -270 463 -515 949 -609 l142 -28 -6 -30 c-37 -176 -279 -381 -1529
-1298 -1108 -813 -2069 -1537 -2718 -2049 -997 -786 -1678 -1358 -3237 -2718
-1720 -1500 -2249 -1938 -2912 -2413 -722 -517 -1383 -853 -1734 -882 -97 -8
-105 0 -63 67 101 159 428 444 894 779 334 240 1033 713 1725 1165 424 278
534 350 925 609 1255 830 1813 1259 2101 1618 517 642 232 1261 -761 1655
-285 113 -633 194 -980 227 -139 13 -604 13 -690 0 -22 -3 -92 -13 -155 -21
-392 -52 -811 -186 -1190 -382 -338 -175 -676 -414 -1040 -738 -204 -181 -681
-659 -1055 -1059 -375 -401 -700 -727 -840 -844 -55 -45 -147 -114 -204 -153
l-104 -69 -36 34 c-183 173 -399 262 -519 212 -111 -47 -158 -186 -104 -309
31 -69 111 -148 185 -182 57 -27 71 -29 177 -29 92 0 130 5 188 23 l72 23 33
-37 c119 -135 233 -331 282 -484 40 -124 46 -293 16 -424 -44 -188 -163 -383
-361 -589 -338 -352 -769 -611 -1265 -762 -212 -64 -402 -104 -713 -150 -184
-27 -402 -49 -907 -90 -553 -46 -821 -117 -908 -241 -130 -186 123 -419 529
-488 132 -23 264 -26 409 -11 280 30 504 90 1205 325 1076 360 1620 458 1884
337 70 -32 157 -114 200 -187 18 -30 68 -134 111 -230 165 -367 234 -478 695
-1112 291 -401 505 -733 653 -1009 31 -59 57 -111 57 -115 -1 -5 -67 -61 -147
-124 -80 -63 -166 -133 -192 -156 -136 -121 -1274 -1033 -1773 -1422 -1143
-889 -1807 -1341 -2383 -1621 -299 -146 -544 -235 -1110 -401 -443 -130 -751
-228 -1002 -316 -102 -36 -187 -63 -189 -61 -3 2 34 112 82 243 143 399 295
837 529 1524 248 729 275 803 340 929 87 168 170 223 298 198 l37 -8 1 -72 c1
-119 17 -197 71 -367 179 -555 573 -1146 857 -1288 67 -33 82 -37 155 -37 97
0 142 20 204 90 60 68 77 127 76 260 -1 88 -7 128 -28 200 -79 264 -300 589
-621 911 -165 166 -296 277 -423 358 -39 26 -72 52 -72 58 0 37 88 168 182
270 140 153 505 428 1103 831 105 70 327 221 495 334 984 663 1394 968 1671
1243 280 278 375 490 293 657 -33 68 -94 115 -189 146 -58 18 -92 22 -200 21
-246 0 -516 -78 -836 -239 -271 -136 -445 -255 -1046 -713 -364 -277 -615
-435 -891 -561 -286 -130 -516 -191 -725 -191 -230 0 -432 94 -501 233 l-27
52 88 6 c151 10 278 52 362 120 150 120 105 332 -85 405 -65 25 -172 16 -247
-21 -69 -34 -165 -118 -204 -180 -15 -25 -31 -45 -35 -45 -14 0 -65 113 -92
200 -66 218 -142 715 -159 1034 l-3 60 75 70 c212 201 357 511 346 741 -10
220 -192 283 -356 123 -152 -147 -241 -405 -252 -727 -5 -125 -1 -120 -171
-205 -215 -107 -414 -175 -1036 -355 -662 -191 -898 -275 -1213 -435 -312
-158 -517 -300 -733 -508 -254 -246 -432 -492 -594 -823 -221 -451 -347 -944
-399 -1570 -12 -137 -6 -845 8 -980 6 -55 13 -129 16 -165 19 -207 73 -568
121 -815 246 -1258 727 -2425 1337 -3245 773 -1039 1780 -1637 3054 -1814 172
-24 228 -29 453 -46 111 -9 780 -5 865 5 28 3 102 10 165 16 282 25 670 91
942 159 832 209 1471 545 1986 1044 541 525 902 1187 1018 1861 39 233 40 526
1 711 -7 35 -10 73 -5 89 24 92 12 208 -32 303 -54 115 -159 198 -303 239 -62
18 -339 25 -472 13 -120 -12 -323 -14 -360 -5 -114 28 -162 134 -152 334 9
179 70 336 191 487 149 185 363 338 1056 751 785 468 1096 675 1290 860 161
153 230 285 230 437 -1 250 -150 513 -357 627 -60 33 -64 37 -103 123 -22 49
-39 89 -38 91 2 1 91 73 198 161 107 88 216 177 243 198 l47 38 43 -38 c248
-229 608 -383 1077 -463 220 -37 347 -46 670 -46 353 0 525 9 755 40 17 2 55
7 85 10 88 11 392 63 524 91 459 96 952 262 1305 439 562 281 1030 710 1346
1231 91 150 223 422 283 584 105 282 185 630 217 945 3 33 8 74 10 90 2 17 6
75 10 130 3 55 8 132 10 170 2 39 7 241 10 450 6 459 11 546 36 695 22 133 33
178 41 165 3 -6 24 -68 47 -138 94 -289 174 -678 201 -977 6 -69 13 -138 16
-155 10 -53 13 -847 4 -950 -5 -55 -11 -136 -15 -180 -8 -102 -42 -366 -60
-470 -127 -722 -338 -1131 -760 -1470 -271 -217 -616 -401 -1280 -682 -1025
-433 -1217 -528 -1447 -712 -83 -66 -94 -72 -113 -60 -108 68 -310 147 -493
193 -236 59 -535 80 -735 51 -299 -44 -587 -160 -879 -355 -446 -297 -1044
-890 -1729 -1712 -289 -347 -350 -463 -334 -643 13 -149 110 -493 200 -716
138 -338 293 -570 534 -801 l123 -118 -81 -87 c-187 -204 -343 -414 -676 -908
-225 -333 -345 -505 -475 -680 -561 -752 -1067 -1196 -1725 -1514 -606 -293
-1333 -465 -2150 -509 -268 -14 -966 -6 -1060 13 -11 2 -54 7 -95 10 -510 40
-1150 191 -1619 381 -873 355 -1529 887 -2111 1714 -704 1000 -1225 2350
-1385 3584 -37 286 -53 540 -53 846 1 773 106 1418 426 2622 l39 146 -76 21
c-43 12 -84 21 -93 21 -11 0 -21 -23 -36 -78 -118 -458 -199 -782 -236 -953
-97 -438 -167 -890 -191 -1219 -4 -47 -8 -103 -11 -125 -3 -22 -6 -179 -8
-350 -4 -281 2 -484 18 -642 3 -32 11 -107 16 -168 14 -144 63 -459 100 -646
204 -1017 631 -2082 1169 -2919 654 -1019 1413 -1661 2426 -2053 526 -204
1193 -348 1775 -382 58 -4 110 -8 117 -10 6 -2 137 -7 290 -10 672 -16 1368
59 1941 211 649 171 1225 455 1697 835 466 376 844 824 1450 1724 376 558 561
802 731 967 l49 47 50 -31 c135 -84 365 -175 495 -196 94 -15 233 -7 312 17
276 87 330 350 112 549 -109 101 -250 154 -404 154 -169 0 -336 -64 -506 -193
-36 -27 -70 -49 -77 -49 -21 0 -182 147 -262 238 -148 169 -276 387 -379 647
-85 216 -176 550 -176 648 0 105 69 216 316 512 341 408 604 697 903 995 597
594 1006 863 1464 962 85 18 135 22 302 22 228 1 355 -17 562 -80 113 -34 337
-131 330 -143 -35 -65 -80 -169 -92 -216 -35 -135 -10 -308 65 -461 144 -293
396 -313 495 -40 83 228 30 506 -129 683 l-56 61 35 31 c150 132 472 300 975
511 525 219 822 350 1055 465 446 220 671 369 895 594 138 138 209 228 303
383 234 386 375 962 426 1743 11 155 11 685 0 840 -37 569 -143 1079 -311
1507 l-50 127 37 68 c242 444 789 995 1730 1745 1527 1215 2725 1916 3645
2132 246 58 366 71 630 71 165 -1 232 -5 344 -24 337 -55 667 -181 956 -364
163 -103 152 -90 135 -171 -32 -152 -47 -346 -42 -531 3 -99 10 -207 17 -240
33 -174 94 -315 171 -400 104 -113 210 -161 341 -152 97 6 169 38 242 107 220
208 185 567 -94 943 -78 104 -243 279 -352 373 l-57 49 43 130 c139 418 340
749 636 1046 159 160 255 238 445 363 670 443 1548 749 3310 1156 187 43 367
84 400 91 33 7 63 15 67 18 7 6 -25 168 -35 177 -7 7 -669 -146 -1155 -267
-2215 -550 -3171 -1103 -3688 -2131 -47 -94 -129 -294 -159 -388 -10 -30 -21
-59 -25 -63 -4 -5 -41 13 -81 39 -362 232 -808 387 -1209 422 -129 11 -423 7
-530 -7 -440 -57 -885 -202 -1407 -456 -631 -308 -1255 -706 -2098 -1339
-1181 -886 -1908 -1558 -2247 -2076 -38 -58 -72 -105 -77 -105 -4 0 -30 29
-57 65 -28 37 -70 77 -98 95 -44 26 -58 30 -125 30 -68 0 -84 -4 -161 -41
-175 -85 -223 -123 -1600 -1269 -1201 -1000 -1810 -1505 -2935 -2435 -897
-741 -1395 -1150 -1400 -1150 -2 0 -11 23 -20 52 -63 215 77 471 436 793 207
186 405 344 1234 980 783 601 1122 874 2505 2020 2167 1795 2773 2274 4870
3849 1822 1368 2057 1553 2369 1863 l134 133 66 -33 c57 -28 76 -32 141 -31
98 0 163 26 294 116 55 38 157 107 225 154 68 46 125 83 127 81 2 -2 6 -30 10
-63 34 -369 228 -717 496 -891 130 -84 300 -133 412 -118 114 15 208 86 236
177 75 249 -138 771 -406 992 -128 105 -284 166 -426 166 l-69 0 18 31 c29 50
124 132 199 171 83 43 199 81 313 103 106 19 120 19 127 -2 101 -322 445 -674
730 -748 216 -56 382 45 400 245 8 83 -12 167 -68 280 -33 67 -58 102 -127
170 -167 167 -365 247 -661 266 -58 4 -107 8 -109 11 -3 2 0 29 7 61 27 130
149 320 329 510 l88 93 100 -15 c240 -38 499 -4 704 90 352 162 626 530 697
938 19 108 14 298 -11 391 -44 163 -175 364 -314 480 -223 187 -471 284 -741
290 -74 2 -148 1 -165 -1z m368 -213 c272 -75 509 -257 619 -474 152 -303 47
-735 -252 -1038 -99 -101 -209 -175 -320 -219 -127 -49 -194 -61 -355 -66
l-150 -5 115 107 c466 435 593 608 594 814 0 66 -4 95 -21 132 -26 57 -93 132
-147 163 -226 130 -683 81 -1000 -106 -39 -24 -107 -79 -152 -123 -314 -315
-251 -797 135 -1026 50 -29 91 -55 91 -57 0 -3 -34 -42 -76 -87 -194 -213
-310 -421 -330 -596 l-6 -59 -72 -11 c-367 -59 -609 -197 -719 -409 -19 -36
-40 -82 -46 -101 -9 -30 -20 -39 -68 -58 -74 -30 -169 -86 -268 -158 -247
-178 -303 -210 -365 -201 -21 2 -49 12 -62 21 l-25 17 24 61 c50 123 33 223
-73 447 -141 297 -308 465 -488 490 -164 23 -304 -48 -347 -176 -25 -75 9
-189 84 -288 17 -22 148 -158 291 -303 l261 -263 -150 -148 c-294 -288 -607
-535 -2135 -1681 -2222 -1667 -2881 -2186 -4914 -3870 -613 -508 -705 -584
-966 -799 -749 -617 -1072 -873 -1913 -1518 -720 -552 -901 -699 -1111 -903
-182 -178 -291 -317 -358 -462 -50 -105 -63 -165 -62 -283 0 -96 4 -119 28
-180 15 -38 29 -79 32 -90 3 -16 -42 -57 -218 -200 -121 -99 -224 -181 -228
-183 -4 -2 -40 57 -81 130 -90 164 -204 351 -320 524 -87 130 -162 237 -516
730 -268 375 -329 479 -488 830 -94 208 -151 299 -235 378 -74 68 -197 129
-305 152 -156 33 -393 20 -680 -37 -316 -63 -621 -151 -1280 -369 -669 -222
-892 -278 -1160 -296 -113 -7 -258 7 -374 37 -151 40 -331 148 -302 183 52 63
367 123 836 161 851 67 1262 133 1666 266 751 247 1426 795 1630 1324 145 373
59 771 -248 1153 -24 30 -43 57 -43 61 0 5 30 28 67 53 248 165 468 377 1173
1128 405 431 854 870 1115 1090 511 431 1044 716 1605 860 96 24 327 67 410
76 36 3 97 10 135 14 96 11 498 10 615 -1 809 -79 1554 -430 1759 -830 50 -99
65 -170 58 -284 -17 -283 -228 -557 -755 -979 -410 -328 -977 -718 -2319
-1596 -433 -283 -1278 -847 -1493 -995 -809 -560 -1204 -896 -1325 -1129 -55
-105 -46 -200 24 -259 43 -36 100 -50 201 -49 425 3 1239 432 2200 1160 518
392 1053 838 2119 1767 228 198 610 531 850 740 1947 1695 3065 2589 5186
4149 1364 1003 1571 1162 1772 1363 130 129 213 265 213 348 0 13 3 26 8 29 4
2 66 7 137 11 72 4 137 8 145 10 8 1 40 6 70 10 76 9 228 50 308 82 196 78
323 202 383 376 16 45 29 89 29 97 0 12 13 14 69 12 144 -7 322 41 448 120
120 75 192 169 363 468 101 176 171 272 294 399 218 224 478 379 736 436 97
22 322 14 423 -14z m-2935 -381 c149 -68 311 -331 387 -629 27 -107 32 -161
14 -161 -6 0 -47 19 -91 42 -92 47 -216 158 -283 253 -131 183 -212 438 -158
497 21 24 76 23 131 -2z m2827 -334 c129 -34 170 -76 169 -171 -1 -142 -142
-314 -598 -728 l-149 -135 -51 19 c-236 92 -372 296 -339 508 28 180 142 319
339 412 89 42 227 85 319 98 94 13 255 12 310 -3z m-4143 -303 c156 -61 379
-330 546 -658 28 -55 49 -101 47 -103 -8 -8 -178 33 -283 69 -208 72 -364 163
-470 273 -34 36 -72 86 -83 111 -50 112 -6 255 93 304 52 25 93 27 150 4z
m875 -1731 c83 -43 197 -192 278 -365 62 -130 88 -214 80 -254 l-6 -34 -197
191 c-355 343 -412 427 -322 473 43 22 110 17 167 -11z m2528 -87 c117 -19
185 -40 265 -81 169 -86 286 -239 298 -390 4 -53 2 -63 -20 -88 -20 -23 -32
-28 -67 -28 -62 1 -99 11 -166 45 -125 62 -277 197 -379 337 -47 63 -116 189
-116 210 0 14 80 12 185 -5z m-843 -523 c163 -54 308 -202 422 -430 85 -170
136 -390 107 -460 -31 -75 -161 -69 -326 16 -94 48 -232 187 -297 298 -56 95
-102 206 -129 312 -21 81 -36 239 -26 266 9 24 175 22 249 -2z m1449 -2280
c143 -148 224 -257 291 -390 85 -170 99 -317 41 -430 -39 -77 -93 -114 -172
-120 -51 -4 -66 0 -112 24 -100 55 -173 193 -205 392 -20 124 -20 383 1 526 8
60 15 113 15 118 0 21 27 -1 141 -120z m-17289 -2846 c94 -47 172 -106 159
-119 -6 -6 -45 -11 -86 -10 -65 0 -81 4 -121 29 -49 30 -91 92 -80 119 9 24
56 17 128 -19z m9160 -223 c32 -35 79 -106 106 -159 l21 -41 -29 -74 c-86
-222 -117 -447 -119 -873 -1 -142 -3 -262 -6 -266 -2 -3 -5 -96 -6 -206 -8
-711 -137 -1289 -400 -1793 -361 -690 -920 -1182 -1694 -1491 -525 -210 -1218
-365 -1805 -405 -52 -4 -106 -9 -120 -11 -54 -8 -572 -4 -690 6 -393 34 -755
130 -1015 270 -77 42 -203 132 -244 174 l-32 33 218 179 c260 213 1331 1096
1628 1342 116 96 309 256 430 356 646 535 1725 1431 2360 1961 979 816 1109
919 1249 990 84 43 114 44 148 8z m-13012 -1960 c-1 -132 -99 -370 -200 -483
l-31 -35 6 65 c15 167 83 350 165 443 23 26 46 47 51 47 5 0 9 -17 9 -37z
m-416 -955 c3 -24 8 -74 11 -113 9 -115 25 -230 56 -418 70 -430 136 -628 245
-747 47 -50 52 -60 57 -116 17 -171 120 -308 299 -398 144 -72 222 -89 413
-90 192 0 302 19 525 93 368 123 706 315 1166 662 491 371 597 449 704 520
279 184 517 299 776 374 270 78 503 71 553 -16 12 -21 11 -32 -3 -81 -26 -89
-107 -200 -255 -349 -179 -179 -347 -316 -706 -576 -283 -204 -488 -345 -1175
-808 -485 -327 -815 -556 -965 -669 -347 -262 -540 -456 -623 -629 -31 -64
-34 -67 -60 -60 -15 5 -70 8 -122 8 -122 -1 -168 -22 -265 -119 -55 -56 -82
-95 -126 -181 -76 -147 -106 -226 -263 -692 -284 -843 -544 -1587 -690 -1983
l-76 -205 -78 -29 c-125 -47 -479 -200 -628 -272 -672 -325 -974 -624 -976
-964 -1 -188 98 -348 265 -430 243 -119 536 -21 837 280 175 174 300 352 447
637 70 134 218 467 258 580 10 29 26 55 34 59 214 85 801 278 1231 404 599
176 798 244 1090 372 566 249 1255 702 2342 1540 437 336 1097 860 1583 1257
l140 114 7 -64 c16 -139 78 -252 177 -321 108 -75 287 -110 456 -90 329 41
421 180 328 502 -2 8 7 -5 21 -30 64 -118 77 -261 33 -352 -45 -92 -152 -203
-312 -324 -208 -157 -437 -303 -1080 -688 -663 -398 -872 -542 -1045 -722
-145 -150 -228 -295 -277 -482 -31 -120 -39 -302 -17 -402 31 -146 116 -255
232 -302 51 -20 74 -22 232 -23 96 0 229 4 295 9 l120 9 -28 -22 c-75 -61
-105 -183 -72 -297 36 -126 130 -247 237 -305 57 -31 71 -34 143 -34 63 0 90
5 124 22 25 12 47 20 50 17 13 -13 9 -344 -5 -444 -86 -625 -424 -1283 -915
-1780 -461 -468 -1024 -789 -1749 -1000 -349 -101 -819 -189 -1155 -215 -44
-4 -123 -10 -175 -15 -127 -10 -715 -10 -860 1 -169 13 -436 47 -590 75 -1323
241 -2347 992 -3077 2259 -526 912 -912 2130 -1048 3300 -13 116 -27 257 -30
315 -3 58 -8 121 -11 140 -7 46 -7 652 0 710 3 25 8 83 11 130 41 558 206
1142 443 1565 334 599 792 982 1507 1262 224 88 410 149 775 253 422 121 692
204 826 254 141 52 317 128 359 155 42 27 43 26 49 -21z m892 -1079 c8 -7 14
-21 12 -33 -7 -46 -169 -111 -260 -104 l-43 3 55 58 c92 99 176 126 236 76z
m5756 -1679 l47 -12 50 -127 c61 -158 91 -264 91 -324 0 -56 -20 -73 -118 -98
-161 -40 -345 -13 -430 65 -51 46 -67 93 -67 201 0 87 3 107 26 156 32 68 110
135 167 144 20 4 42 8 47 11 17 7 137 -4 187 -16z m3773 -1015 c46 -92 61
-191 46 -293 -12 -77 -32 -132 -57 -153 -20 -17 -73 35 -112 110 -73 137 -82
301 -23 426 l33 70 39 -45 c22 -25 55 -76 74 -115z m-9119 -15 c307 -234 651
-634 791 -920 84 -171 113 -325 79 -415 -19 -49 -39 -65 -83 -65 -185 2 -566
514 -777 1045 -72 183 -135 425 -110 425 4 0 49 -31 100 -70z m4133 -2699 c21
-11 53 -37 71 -57 31 -36 90 -147 90 -170 0 -5 -15 -25 -34 -43 -41 -40 -98
-51 -142 -28 -74 39 -154 161 -154 235 0 32 6 45 26 61 34 27 93 27 143 2z
m-6065 -373 c-33 -105 -231 -509 -315 -645 -163 -261 -377 -481 -559 -577
-173 -91 -310 -88 -419 10 -77 69 -113 180 -92 277 24 102 70 176 181 288 149
149 308 254 638 419 176 87 536 246 565 249 5 1 5 -9 1 -21z m8447 -417 c81
-31 143 -76 178 -128 39 -59 40 -100 4 -136 -81 -77 -254 -87 -444 -26 -81 26
-289 126 -289 139 0 11 110 85 178 119 117 59 266 72 373 32z"/>
</g>
</svg>
