<?xml version="1.0" standalone="no"?>
<!DOCTYPE svg PUBLIC "-//W3C//DTD SVG 20010904//EN"
 "http://www.w3.org/TR/2001/REC-SVG-20010904/DTD/svg10.dtd">
<svg version="1.0" xmlns="http://www.w3.org/2000/svg"
 width="3960.000000pt" height="1520.000000pt" viewBox="0 0 3960.000000 1520.000000"
 preserveAspectRatio="xMidYMid meet">
<metadata>
Created by potrace 1.16, written by Peter Selinger 2001-2019
</metadata>
<g transform="translate(0.000000,1520.000000) scale(0.100000,-0.100000)"
fill="#000000" stroke="none">
<path d="M13517 15126 c-85 -31 -118 -94 -125 -238 -5 -114 5 -226 58 -603
157 -1118 237 -2492 179 -3058 l-12 -117 -101 98 c-201 195 -389 298 -586 320
-121 14 -405 6 -474 -13 -158 -43 -262 -102 -371 -210 -129 -129 -181 -250
-173 -404 6 -100 36 -184 98 -271 22 -30 63 -91 93 -135 98 -146 225 -236 382
-271 39 -8 102 -24 140 -34 139 -37 191 -43 337 -37 197 7 334 47 502 146 75
44 195 149 229 200 9 14 20 21 24 17 5 -4 8 -107 8 -229 -1 -203 -3 -233 -28
-350 -71 -333 -228 -668 -426 -911 -236 -290 -533 -512 -1316 -981 -446 -267
-569 -344 -765 -475 -566 -378 -864 -689 -972 -1010 -31 -91 -32 -101 -32
-255 1 -145 3 -170 31 -275 17 -63 59 -187 93 -275 35 -88 87 -221 116 -295
29 -74 62 -171 74 -215 28 -101 37 -258 20 -333 -87 -398 -743 -856 -1740
-1217 -232 -83 -700 -223 -700 -208 0 2 20 28 44 56 154 182 271 436 311 675
24 141 16 423 -15 567 -105 490 -393 900 -762 1086 -92 46 -253 97 -368 115
-122 19 -384 15 -488 -9 l-62 -14 -10 36 c-65 251 -173 736 -235 1056 -25 132
-50 260 -55 285 -8 44 -8 46 39 100 485 563 745 991 921 1519 137 412 198 795
187 1176 -12 398 -103 671 -293 874 -122 130 -256 192 -414 192 -299 0 -542
-241 -683 -678 -186 -573 -176 -1539 28 -2863 l35 -224 -23 -26 c-154 -168
-410 -456 -513 -576 -600 -700 -959 -1361 -1024 -1887 -16 -123 -7 -374 15
-476 70 -316 260 -641 520 -890 321 -307 748 -518 1220 -602 113 -21 161 -24
370 -23 222 0 249 2 360 26 66 15 129 30 140 33 18 6 23 -6 53 -142 331 -1470
417 -2300 266 -2560 -117 -202 -464 9 -1279 778 -700 660 -1141 1030 -1525
1281 -402 263 -724 388 -1035 404 -251 13 -448 -49 -1165 -366 -542 -240 -744
-316 -964 -361 -391 -81 -785 101 -1384 639 -82 73 -109 92 -133 92 -41 0 -64
-14 -78 -48 -18 -44 -2 -70 101 -163 455 -414 841 -642 1167 -690 125 -18 290
-7 436 30 229 57 413 128 940 361 512 227 754 317 914 341 301 43 694 -93
1159 -403 265 -177 680 -517 1042 -852 877 -813 946 -875 1160 -1033 176 -129
278 -187 398 -223 88 -27 195 -25 257 5 323 157 295 920 -96 2693 -33 151 -59
275 -57 277 2 1 48 26 102 54 55 29 127 70 159 92 49 32 81 44 172 64 284 61
609 154 869 247 875 313 1499 696 1752 1074 108 162 139 271 131 456 -6 152
-34 260 -123 488 -206 522 -217 560 -218 750 -1 123 1 142 27 217 77 223 294
469 652 738 210 158 431 301 945 610 740 446 917 566 1176 797 333 296 566
680 679 1122 46 182 65 328 65 515 0 220 -25 347 -102 529 l-40 93 16 102 c66
407 57 1118 -24 2102 -40 481 -68 732 -137 1220 -36 259 -47 361 -47 472 -1
78 2 145 6 149 19 19 694 -392 1468 -894 426 -276 670 -445 743 -515 l62 -58
-49 6 c-173 23 -437 152 -1169 571 -452 260 -509 285 -652 291 -90 4 -104 2
-144 -19 -90 -47 -113 -124 -64 -218 33 -66 82 -106 308 -259 213 -144 389
-249 820 -488 508 -283 661 -378 852 -532 172 -138 217 -202 253 -354 36 -158
60 -510 60 -907 0 -558 -59 -949 -200 -1317 l-32 -82 -26 19 c-60 44 -171 62
-417 67 -406 9 -672 -44 -865 -172 -345 -230 -344 -666 3 -841 66 -34 188 -64
257 -64 32 0 83 -9 116 -21 314 -109 655 129 940 656 l46 85 36 -16 c75 -31
230 -118 332 -187 505 -338 868 -845 982 -1371 33 -149 32 -457 -1 -640 -30
-172 -85 -389 -186 -746 -204 -721 -252 -958 -262 -1310 -6 -226 8 -366 57
-557 166 -641 684 -1265 1437 -1729 926 -570 1896 -676 2828 -307 453 179 876
441 1245 771 472 422 690 834 690 1306 0 88 -23 277 -39 320 -6 13 -3 53 5
101 48 272 68 814 45 1224 -36 631 -104 1219 -256 2211 -83 544 -95 632 -95
706 0 93 5 96 103 63 142 -48 305 -139 672 -379 381 -249 557 -347 745 -415
278 -100 539 -96 769 12 98 47 225 140 318 235 110 111 150 160 366 445 269
356 421 512 575 590 62 31 84 37 155 41 134 7 223 -37 361 -175 189 -192 405
-542 751 -1218 392 -767 451 -881 578 -1110 280 -504 466 -775 681 -991 148
-148 249 -217 381 -261 72 -24 95 -27 220 -27 127 0 148 2 225 28 302 101 549
303 1106 911 413 449 596 602 841 702 94 38 227 75 231 63 2 -4 -8 -70 -22
-146 -123 -677 -126 -1343 -11 -2257 52 -411 148 -992 185 -1117 23 -79 66
-148 111 -183 78 -57 134 -77 534 -187 555 -152 1074 -314 1330 -415 181 -72
326 -143 470 -230 107 -65 138 -79 172 -80 53 0 83 27 89 81 6 47 -15 130
-130 529 -224 771 -361 1410 -423 1975 -25 230 -25 777 0 964 104 773 367
1250 742 1346 74 19 215 27 248 14 10 -4 -6 -17 -49 -39 -82 -43 -258 -161
-348 -234 -76 -61 -174 -177 -211 -250 -123 -244 -49 -558 184 -773 77 -72
157 -120 256 -154 71 -25 94 -28 205 -28 144 0 210 15 337 74 145 68 262 165
365 304 182 245 225 517 116 738 -47 94 -180 224 -278 271 -41 19 -84 38 -94
41 -10 4 -17 8 -15 10 8 8 220 35 364 47 196 16 1029 6 1325 -16 429 -31 859
-81 1565 -184 428 -62 654 -91 718 -91 50 0 87 35 87 83 0 56 -30 73 -135 81
-49 4 -340 42 -645 86 -1242 177 -1544 203 -2390 204 -614 1 -677 -3 -961 -60
l-129 -26 -64 25 c-224 90 -473 73 -686 -46 -95 -53 -237 -192 -309 -302 -178
-271 -301 -653 -356 -1105 -22 -177 -30 -607 -16 -815 43 -607 170 -1233 443
-2188 50 -175 88 -320 85 -323 -3 -3 -23 6 -44 19 -22 14 -80 45 -129 70 -328
164 -778 313 -1859 612 -267 74 -297 97 -334 253 -46 197 -142 815 -186 1202
-89 785 -86 1341 11 1940 33 211 27 198 82 149 93 -82 299 -162 497 -194 117
-19 329 -19 441 0 258 44 493 161 682 340 292 275 356 559 197 875 -60 121
-193 270 -308 349 -198 135 -433 163 -688 81 -51 -17 -102 -30 -114 -30 -12 0
-57 -9 -101 -20 -261 -67 -441 -238 -581 -554 -48 -107 -118 -312 -154 -446
-12 -47 -23 -87 -25 -88 -1 -2 -44 -12 -96 -22 -174 -34 -329 -99 -493 -207
-178 -118 -313 -244 -653 -613 -409 -444 -628 -647 -820 -763 -239 -144 -440
-165 -637 -66 -160 81 -351 281 -551 579 -208 309 -362 586 -823 1487 -416
814 -606 1136 -811 1378 -114 135 -261 238 -385 271 -74 20 -211 18 -283 -5
-214 -66 -404 -243 -732 -681 -290 -387 -426 -526 -600 -615 -150 -76 -298
-99 -460 -71 -249 44 -444 141 -951 473 -295 194 -445 281 -586 340 -116 50
-208 70 -266 59 -55 -10 -104 -58 -122 -119 -29 -97 -19 -205 65 -744 157
-1007 229 -1620 270 -2283 19 -318 9 -902 -18 -1038 l-7 -34 -63 80 c-184 234
-470 443 -667 488 -333 75 -354 78 -463 63 -321 -45 -655 -347 -736 -665 -24
-94 -21 -234 8 -315 90 -257 447 -506 921 -644 402 -116 742 -101 933 42 38
29 39 23 8 -59 -83 -222 -225 -427 -446 -647 -459 -455 -1091 -822 -1676 -971
-257 -66 -401 -84 -684 -84 -203 0 -269 4 -387 22 -721 112 -1428 490 -1988
1063 -354 362 -566 732 -652 1138 -25 116 -27 145 -27 356 0 364 37 563 246
1300 116 412 161 593 195 785 24 136 27 181 28 365 0 229 -10 306 -63 490
-175 608 -658 1167 -1283 1485 l-119 61 14 27 c29 57 107 287 141 414 78 299
105 530 112 959 5 314 -5 621 -28 854 -27 275 -80 410 -213 540 -125 122 -337
276 -591 427 -60 36 -273 156 -472 267 -410 227 -536 302 -743 442 -165 112
-260 185 -260 199 0 18 104 10 172 -14 73 -26 108 -45 563 -306 710 -407 963
-523 1172 -537 102 -7 164 12 194 61 54 89 -9 200 -196 340 -322 243 -1750
1152 -2098 1336 -108 57 -139 64 -190 46z m-6472 -4125 c62 -31 155 -116 201
-185 42 -62 101 -194 128 -290 82 -282 72 -725 -25 -1152 -100 -440 -273 -845
-520 -1216 -136 -205 -417 -564 -430 -550 -4 4 -21 104 -38 222 -242 1682
-162 2699 243 3088 135 130 287 158 441 83z m-705 -3996 c53 -271 115 -553
184 -843 31 -128 56 -236 56 -240 0 -4 -37 -25 -81 -46 -226 -107 -406 -282
-516 -501 -105 -207 -164 -519 -148 -780 41 -667 366 -1124 926 -1303 153 -49
344 -82 475 -82 45 0 63 -4 68 -15 6 -17 -46 -34 -183 -63 -121 -24 -486 -24
-621 1 -374 70 -686 201 -970 410 -123 91 -317 287 -403 407 -73 103 -184 316
-218 420 -78 240 -79 512 -2 790 130 471 493 1065 1002 1640 226 255 386 430
388 423 1 -4 21 -102 43 -218z m941 -1181 c242 -46 410 -134 579 -304 197
-196 339 -469 406 -780 15 -68 19 -126 18 -290 0 -188 -3 -213 -26 -301 -62
-229 -168 -413 -341 -591 -131 -135 -146 -144 -272 -162 -206 -28 -215 -29
-219 -14 -3 7 -38 144 -80 303 -41 160 -162 612 -270 1005 -211 775 -299 1110
-294 1115 2 2 37 10 78 18 103 21 317 21 421 1z m-607 -261 c27 -104 140 -525
253 -938 112 -412 231 -856 264 -985 33 -129 63 -243 65 -252 5 -15 -1 -18
-35 -18 -22 0 -75 5 -118 10 -595 79 -962 412 -1077 980 -24 118 -39 306 -31
405 32 461 203 766 525 939 47 25 90 46 95 46 6 0 32 -84 59 -187z"/>
</g>
</svg>
