<?xml version="1.0" standalone="no"?>
<!DOCTYPE svg PUBLIC "-//W3C//DTD SVG 20010904//EN"
 "http://www.w3.org/TR/2001/REC-SVG-20010904/DTD/svg10.dtd">
<svg version="1.0" xmlns="http://www.w3.org/2000/svg"
 width="3163.000000pt" height="3219.000000pt" viewBox="0 0 3163.000000 3219.000000"
 preserveAspectRatio="xMidYMid meet">
<metadata>
Created by potrace 1.16, written by Peter Selinger 2001-2019
</metadata>
<g transform="translate(0.000000,3219.000000) scale(0.100000,-0.100000)"
fill="#000000" stroke="none">
<path d="M24083 30616 c-64 -21 -125 -60 -172 -111 -54 -58 -116 -187 -135
-279 -29 -141 -66 -395 -86 -586 -26 -254 -45 -324 -102 -378 -20 -18 -57 -28
-194 -52 -165 -28 -234 -45 -479 -116 -196 -57 -258 -105 -258 -199 0 -84 53
-136 156 -156 51 -9 92 -4 409 51 194 33 365 63 381 66 24 5 29 1 44 -33 28
-67 33 -112 43 -405 24 -752 79 -1261 201 -1888 75 -382 176 -703 328 -1039
165 -366 415 -733 648 -951 194 -181 384 -303 559 -357 83 -25 102 -27 269
-28 162 0 188 2 255 23 206 65 382 195 612 449 277 307 513 654 708 1044 196
390 270 615 270 818 0 79 -39 264 -60 285 -16 16 -107 -80 -142 -149 -17 -33
-49 -87 -71 -119 -22 -32 -52 -93 -67 -135 -77 -216 -272 -539 -496 -821 -366
-461 -582 -653 -735 -654 -58 0 -144 49 -200 114 -21 25 -62 72 -91 106 -107
124 -211 369 -242 569 -52 344 -67 478 -81 730 -53 927 -155 1927 -261 2559
-14 82 -24 150 -22 151 2 1 26 8 53 14 28 7 183 51 345 98 408 118 468 150
531 288 47 103 47 103 -7 111 -63 9 -213 -2 -419 -31 -93 -13 -202 -26 -242
-30 -39 -3 -134 -17 -210 -29 -101 -18 -140 -21 -145 -12 -4 6 -22 54 -39 106
-18 52 -53 142 -79 200 -26 58 -66 165 -90 237 -81 256 -216 434 -390 517 -57
27 -77 31 -160 33 -59 2 -111 -3 -137 -11z"/>
<path d="M21623 30136 c-184 -49 -320 -144 -402 -284 -140 -234 -117 -448 68
-633 86 -85 150 -121 256 -144 89 -19 139 -19 244 0 46 8 87 12 92 10 4 -3 11
-26 15 -51 5 -37 1 -63 -21 -127 -32 -94 -30 -158 5 -227 l22 -43 75 74 c61
60 84 91 119 164 53 111 104 262 140 420 38 161 40 348 6 470 -49 169 -143
300 -258 356 -58 29 -77 33 -167 36 -84 3 -118 -1 -194 -21z"/>
<path d="M19030 28745 c-245 -39 -457 -148 -657 -339 -92 -88 -112 -114 -315
-428 -61 -95 -186 -249 -208 -256 -5 -2 -29 40 -54 92 -26 53 -61 113 -80 133
-18 21 -60 77 -94 124 -105 149 -159 183 -287 183 -231 1 -352 -120 -403 -402
-14 -81 -17 -159 -16 -472 0 -502 17 -730 130 -1740 36 -322 68 -612 72 -645
l7 -60 -94 -140 c-122 -183 -183 -257 -255 -312 -50 -37 -61 -42 -68 -28 -17
29 -11 120 16 270 78 421 97 981 46 1325 -69 468 -244 881 -515 1215 -145 178
-264 292 -450 430 -263 195 -490 300 -784 362 -117 25 -144 27 -371 27 -213 1
-262 -2 -374 -22 -327 -59 -592 -167 -870 -353 -585 -393 -1010 -1023 -1151
-1705 -44 -215 -59 -400 -59 -739 0 -421 33 -707 124 -1080 204 -840 715
-1531 1378 -1864 285 -143 538 -200 832 -188 373 17 675 134 979 380 109 88
320 296 413 407 104 124 353 534 486 801 44 87 97 147 245 272 147 125 381
365 464 475 l60 79 27 -166 c84 -504 136 -746 192 -894 77 -202 233 -469 329
-562 106 -104 255 -154 425 -142 274 19 439 141 571 421 68 145 83 225 76 401
-9 209 -53 550 -97 750 -16 72 -38 180 -49 240 -11 61 -38 197 -60 303 -22
107 -57 298 -76 425 -41 258 -72 414 -117 586 -44 168 -47 185 -48 299 -1 283
108 696 274 1037 184 376 390 591 581 603 80 5 135 -18 211 -90 141 -133 255
-376 298 -633 33 -196 38 -318 36 -800 -7 -1087 -2 -1575 15 -1706 24 -183 68
-358 119 -465 123 -259 382 -570 590 -709 160 -106 273 -145 421 -145 318 1
532 181 756 635 181 368 289 841 289 1260 0 229 -38 331 -148 403 -23 15 -25
14 -43 -9 -31 -39 -96 -180 -108 -234 -6 -27 -16 -93 -21 -146 -24 -237 -108
-516 -228 -755 -62 -123 -176 -295 -231 -348 -40 -39 -41 -39 -61 -21 -43 39
-110 153 -135 231 -38 114 -44 211 -55 874 -19 1071 -38 1608 -66 1820 -62
479 -261 916 -558 1227 -216 227 -469 396 -696 468 -170 53 -380 68 -560 40z
m-4239 -1249 c380 -51 708 -220 923 -476 94 -112 150 -199 226 -355 180 -367
220 -661 165 -1230 -49 -516 -136 -922 -260 -1215 -58 -139 -135 -236 -222
-279 -61 -30 -244 -45 -493 -38 -534 14 -823 141 -1153 505 -94 103 -133 168
-147 242 -6 30 -20 82 -31 115 -24 76 -37 293 -45 775 -4 235 -2 414 6 530 6
96 15 308 20 470 7 274 9 302 34 388 93 330 223 491 443 547 136 34 364 43
534 21z m-71 -4050 c195 -1 398 3 450 7 55 5 105 5 118 0 22 -8 20 -12 -53
-85 -87 -87 -179 -151 -309 -216 -87 -44 -95 -46 -176 -46 -138 1 -227 43
-359 168 -53 51 -151 173 -151 188 0 3 28 0 63 -5 34 -6 222 -10 417 -11z"/>
<path d="M6586 28160 c-197 -50 -332 -156 -416 -326 -106 -216 -126 -697 -61
-1499 17 -209 40 -517 51 -685 67 -993 170 -1768 391 -2930 125 -659 176 -847
300 -1093 70 -140 130 -228 223 -325 152 -158 277 -220 464 -229 180 -10 328
27 477 118 357 218 1051 691 1396 950 602 453 1139 984 1536 1519 389 525 615
980 747 1505 63 251 82 439 65 643 -30 379 -167 692 -449 1032 -249 300 -521
522 -850 694 -423 220 -800 318 -1230 319 -412 1 -730 -73 -1105 -258 -150
-74 -414 -234 -470 -285 -11 -10 -58 -39 -105 -63 l-86 -44 -59 156 c-32 86
-78 194 -101 241 -23 47 -49 110 -59 140 -25 79 -88 196 -141 263 -51 66 -143
130 -218 153 -83 25 -208 27 -300 4z m2784 -1430 c433 -39 895 -280 1128 -589
108 -144 171 -295 172 -413 0 -58 -32 -233 -66 -353 -85 -306 -239 -618 -485
-980 -335 -493 -813 -985 -1351 -1391 -219 -165 -459 -319 -472 -303 -20 23
-198 1004 -236 1299 -50 391 -154 1084 -226 1515 -53 319 -53 345 9 469 34 68
59 100 161 201 175 173 343 287 571 385 208 90 406 144 584 160 47 4 88 8 91
9 3 0 57 -4 120 -9z"/>
<path d="M22075 21296 c-90 -22 -134 -61 -145 -128 -4 -24 -17 -88 -29 -143
-73 -339 -97 -825 -60 -1235 5 -58 29 -339 54 -625 73 -842 103 -1164 145
-1568 22 -210 67 -647 100 -972 33 -324 87 -817 120 -1095 33 -278 66 -579 75
-670 31 -321 99 -532 197 -603 34 -25 112 -33 177 -17 147 35 230 292 187 585
-41 288 -307 2776 -306 2859 1 25 52 -28 267 -278 206 -238 263 -296 393 -401
315 -252 905 -652 1390 -942 757 -453 1355 -735 1763 -833 106 -26 153 -25
207 3 64 32 95 95 94 197 0 137 -69 238 -246 358 -54 37 -127 86 -161 110 -34
23 -138 81 -232 129 -291 148 -1025 565 -1452 824 -328 199 -692 458 -1031
732 -185 150 -282 247 -410 410 -200 255 -243 434 -167 697 85 294 186 478
369 668 280 290 701 556 1356 855 267 122 1184 510 1234 523 46 11 122 92 136
143 30 114 -56 293 -165 342 -79 36 -125 28 -407 -75 -319 -116 -1514 -681
-1843 -870 -464 -268 -922 -677 -1163 -1038 -42 -64 -47 -68 -59 -52 -24 33
-31 85 -43 299 -33 641 -36 1065 -9 1480 10 150 10 177 -4 226 -21 70 -42 89
-120 106 -76 15 -146 15 -212 -1z"/>
<path d="M13955 20756 c-140 -28 -254 -79 -382 -175 -268 -199 -473 -624 -668
-1386 -164 -640 -296 -1577 -345 -2451 -16 -286 -49 -2017 -43 -2249 3 -115 3
-253 -1 -305 l-8 -95 -169 -89 c-183 -96 -239 -142 -258 -213 -12 -45 -1 -104
26 -142 51 -70 187 -96 344 -67 47 9 88 16 92 16 3 0 11 -26 17 -57 6 -32 20
-89 30 -128 11 -38 28 -117 40 -174 11 -58 34 -150 51 -205 55 -180 114 -263
201 -287 55 -15 199 -6 258 15 53 20 110 72 110 100 0 12 -13 73 -30 138 -16
64 -34 156 -40 205 -28 218 -43 315 -61 407 -16 74 -19 116 -14 168 7 64 9 70
39 85 125 65 652 386 960 585 472 306 1184 815 1856 1328 234 178 324 240 348
240 26 0 60 -87 109 -280 28 -113 78 -311 111 -440 66 -257 90 -382 157 -810
24 -157 65 -391 90 -520 25 -129 57 -302 71 -385 14 -82 36 -181 49 -219 72
-207 222 -301 370 -232 127 59 176 193 155 425 -27 298 -346 1966 -519 2706
l-49 210 55 117 c65 141 74 197 48 294 -13 48 -28 77 -55 105 -34 36 -41 39
-94 39 -31 0 -77 5 -101 11 -40 10 -46 15 -61 58 -10 25 -28 72 -41 105 -13
32 -53 140 -87 240 -204 584 -434 1129 -648 1531 -322 606 -612 1022 -963
1384 -201 207 -393 333 -580 382 -102 27 -275 33 -370 15z m357 -786 c188 -70
374 -269 649 -695 283 -439 590 -1063 856 -1740 214 -544 298 -780 308 -858
l7 -53 -89 -80 c-128 -116 -289 -249 -632 -523 -765 -610 -1338 -1029 -1866
-1363 -184 -117 -425 -258 -440 -258 -30 0 -36 96 -42 670 -10 1075 34 2086
118 2700 64 468 166 941 276 1285 121 375 279 677 429 816 131 121 277 155
426 99z"/>
<path d="M17628 20721 c-105 -41 -144 -98 -180 -262 -19 -88 -21 -142 -29
-819 -4 -399 -13 -912 -19 -1140 -6 -228 -13 -667 -17 -975 -6 -619 0 -786 47
-1300 16 -176 36 -403 45 -505 21 -246 81 -764 106 -909 121 -710 414 -1089
918 -1188 122 -23 348 -21 521 5 264 41 768 241 1355 537 536 271 884 516
1268 892 159 156 265 288 315 391 118 246 -27 592 -248 592 -35 0 -68 -7 -90
-19 -19 -10 -161 -113 -315 -228 -356 -266 -535 -392 -760 -536 -622 -396
-1146 -649 -1570 -757 -189 -49 -304 -64 -425 -57 -212 12 -303 87 -373 312
-43 137 -65 308 -132 1015 -72 766 -79 851 -99 1205 -41 686 -41 797 -20 3062
5 556 4 585 -38 638 -48 62 -166 83 -260 46z"/>
<path d="M10980 19274 c-135 -58 -187 -234 -145 -489 66 -402 183 -1788 215
-2545 13 -315 13 -1089 0 -1340 -36 -692 -113 -1186 -245 -1567 -76 -223 -116
-293 -165 -293 -30 0 -197 119 -285 201 -222 210 -422 516 -688 1049 -150 299
-194 408 -258 630 -62 218 -205 777 -259 1015 -115 501 -179 723 -237 822 -35
61 -104 127 -160 154 -70 34 -177 38 -237 9 -57 -27 -100 -85 -128 -170 -20
-63 -21 -85 -25 -705 -5 -1031 -25 -1361 -114 -1875 -72 -417 -222 -973 -286
-1058 -13 -18 -35 -51 -48 -73 l-23 -41 -50 73 c-127 189 -224 397 -387 834
-257 684 -480 1377 -665 2062 -201 746 -464 1845 -669 2794 -45 209 -78 294
-141 363 -52 56 -135 86 -242 86 -78 0 -113 -14 -152 -60 -40 -48 -49 -99 -43
-250 7 -192 71 -516 223 -1125 69 -275 192 -772 274 -1105 312 -1269 575
-2180 794 -2752 211 -550 356 -854 543 -1137 107 -161 243 -298 343 -345 120
-57 215 -68 345 -41 205 43 339 181 505 520 135 274 232 630 329 1205 36 216
49 255 82 255 18 0 29 -10 46 -45 12 -25 60 -122 107 -217 119 -242 409 -716
539 -882 76 -97 252 -271 341 -337 152 -114 318 -197 456 -228 97 -22 269 -23
375 -1 122 25 216 75 296 156 133 135 193 240 273 479 85 256 146 548 186 887
61 520 74 839 67 1668 -8 938 -26 1259 -132 2340 -25 253 -55 505 -66 560 -43
212 -100 336 -199 435 -52 52 -76 69 -121 83 -68 21 -123 21 -169 1z"/>
<path d="M5375 12856 c-58 -22 -97 -71 -134 -167 -62 -161 -81 -268 -81 -469
0 -74 -7 -193 -16 -265 -17 -138 -17 -165 6 -1060 5 -225 17 -657 27 -960 9
-302 17 -584 17 -625 1 -80 -16 -132 -45 -138 -9 -2 -89 36 -177 83 -394 211
-691 301 -1075 325 -440 28 -988 -94 -1417 -317 -600 -310 -1086 -864 -1393
-1588 -143 -336 -235 -679 -284 -1060 -22 -175 -25 -710 -5 -875 94 -761 376
-1447 810 -1974 109 -132 330 -347 462 -449 324 -252 736 -428 1150 -494 160
-25 547 -25 750 0 534 66 1002 227 1455 498 50 30 109 61 131 70 23 9 70 36
105 61 35 25 78 53 95 61 l31 16 16 -52 c9 -29 21 -81 26 -117 11 -77 59 -217
108 -315 43 -84 154 -199 228 -235 43 -20 65 -24 160 -24 95 -1 116 2 151 21
58 31 154 140 193 218 45 93 59 171 72 395 15 264 16 348 1 605 -6 121 -17
324 -22 450 -65 1424 -249 3677 -385 4700 -19 143 -59 454 -89 690 -47 371
-72 527 -152 964 -7 41 -21 136 -29 210 -31 275 -65 509 -85 601 -12 52 -41
194 -66 315 -25 121 -65 279 -89 350 -24 72 -60 181 -80 244 -57 180 -104 254
-187 297 -44 23 -134 28 -183 10z m-1505 -4327 c332 -41 627 -164 911 -379
134 -102 341 -311 401 -403 112 -175 149 -300 178 -596 25 -252 53 -496 85
-741 14 -102 56 -464 95 -805 38 -341 79 -674 90 -740 11 -66 38 -318 59 -559
l39 -439 -21 -29 c-12 -17 -42 -45 -67 -63 -25 -18 -70 -52 -100 -75 -147
-113 -668 -324 -1005 -408 -306 -77 -464 -96 -765 -96 -261 0 -341 9 -542 59
-816 207 -1521 973 -1749 1900 -110 451 -102 1062 21 1539 89 345 313 794 531
1063 254 313 595 556 945 672 276 92 636 133 894 100z"/>
<path d="M28185 11613 c-391 -34 -807 -168 -1117 -360 -225 -139 -471 -358
-645 -573 -279 -345 -551 -863 -682 -1300 -230 -764 -212 -1766 45 -2537 246
-739 752 -1393 1360 -1757 350 -210 724 -306 1183 -306 467 1 859 141 1281
458 129 97 391 352 494 482 305 383 545 888 691 1455 20 77 43 157 52 177 19
44 13 133 -13 197 -20 51 -95 118 -141 127 -84 16 -192 -52 -232 -146 -12 -28
-31 -86 -42 -128 -32 -128 -126 -397 -186 -530 -239 -541 -589 -921 -1072
-1166 -158 -80 -283 -126 -436 -162 -109 -25 -138 -28 -310 -29 -215 0 -330
18 -522 81 -410 134 -752 424 -998 848 -198 341 -335 750 -390 1166 -65 487 9
1166 164 1502 16 36 29 49 49 54 15 3 39 12 54 20 19 10 224 36 620 79 599 66
704 76 1353 140 453 45 964 109 1074 135 47 12 127 25 177 30 110 12 270 60
336 102 47 29 102 84 133 131 15 24 15 31 -4 109 -89 373 -307 744 -621 1058
-381 381 -801 591 -1279 640 -96 9 -285 11 -376 3z m566 -683 c204 -21 396
-79 594 -180 283 -144 496 -318 685 -560 33 -43 39 -56 26 -58 -9 -2 -16 -8
-16 -13 0 -5 -17 -20 -37 -33 -36 -23 -48 -24 -258 -30 -258 -8 -1108 -44
-1970 -83 l-611 -27 -32 23 -32 23 25 41 c107 181 362 457 532 577 357 251
720 357 1094 320z"/>
<path d="M22075 11155 c-473 -67 -852 -241 -1232 -567 -385 -330 -748 -890
-942 -1451 -160 -465 -220 -942 -192 -1527 32 -678 158 -1205 405 -1699 178
-354 359 -605 646 -891 264 -265 464 -414 747 -556 355 -179 696 -253 1107
-241 347 10 603 74 901 225 301 153 655 449 875 733 214 276 420 652 550 1004
18 50 39 97 46 105 17 21 29 106 15 114 -6 4 -11 18 -11 30 0 13 -13 40 -30
61 -16 21 -30 44 -30 52 0 12 -11 14 -62 8 -113 -13 -122 -22 -193 -211 -55
-145 -160 -347 -248 -479 -322 -485 -830 -853 -1319 -955 -552 -115 -1148 81
-1553 512 -302 321 -520 761 -618 1248 -49 241 -61 387 -61 745 0 375 12 518
69 800 60 296 133 511 265 780 130 262 278 479 477 700 178 196 362 338 578
445 233 115 399 155 650 154 257 0 469 -51 705 -169 69 -34 157 -72 195 -85
39 -12 91 -38 118 -56 26 -19 81 -52 122 -74 42 -22 94 -54 117 -70 22 -17 46
-30 53 -30 6 0 24 -13 40 -30 36 -37 53 -38 61 -2 4 15 13 36 20 47 8 11 14
28 14 39 0 11 5 33 11 50 21 60 -36 169 -208 393 -217 283 -443 475 -733 622
-201 102 -406 168 -664 213 -158 27 -540 34 -691 13z"/>
<path d="M16717 10470 c-351 -26 -621 -134 -863 -347 -191 -168 -435 -348
-701 -517 -83 -53 -154 -96 -156 -96 -3 0 -8 19 -12 41 -4 23 -20 69 -36 103
-15 33 -33 89 -38 123 -13 81 -57 194 -94 238 -15 19 -48 46 -71 60 -45 26
-180 65 -228 65 -36 0 -87 -46 -177 -159 -66 -83 -69 -89 -80 -166 -12 -79
-36 -817 -33 -987 2 -101 161 -1942 197 -2286 14 -130 39 -345 55 -477 16
-132 39 -346 50 -475 24 -271 42 -430 70 -585 10 -60 49 -312 85 -560 36 -247
67 -460 70 -472 3 -12 30 -49 61 -82 40 -43 70 -65 107 -79 63 -24 216 -49
353 -58 l102 -7 7 44 c12 66 9 685 -4 1019 -29 743 -134 2696 -158 2935 -20
204 -21 262 -3 306 46 111 292 465 455 654 110 128 381 394 508 500 472 392
966 553 1367 445 109 -30 282 -119 376 -194 174 -140 301 -325 447 -656 73
-166 102 -250 116 -335 5 -33 50 -258 99 -500 49 -242 95 -483 102 -535 24
-196 40 -300 55 -367 8 -37 42 -383 75 -768 94 -1099 93 -1082 96 -1605 2
-261 4 -483 4 -492 0 -27 59 -87 111 -114 69 -34 128 -33 172 5 18 16 39 42
47 58 8 15 22 39 31 53 41 63 43 87 40 540 -2 459 -16 676 -87 1390 -54 544
-177 1444 -250 1829 -136 722 -242 1075 -436 1453 -203 397 -458 675 -793 867
-266 152 -636 220 -1038 191z"/>
<path d="M10405 10079 c-491 -25 -949 -196 -1383 -518 -162 -120 -503 -459
-656 -651 -538 -676 -854 -1487 -961 -2462 -43 -400 -46 -1011 -6 -1272 90
-576 331 -1048 761 -1490 327 -336 651 -516 1061 -592 214 -39 594 -25 814 31
398 101 730 355 1012 775 80 119 179 301 196 358 26 87 67 171 136 283 l65
107 96 -192 c52 -106 112 -228 132 -272 70 -149 263 -376 423 -497 88 -66 245
-145 341 -171 217 -58 448 -32 804 89 352 120 429 155 587 274 153 115 230
249 221 387 -4 62 -7 69 -41 100 -43 40 -55 41 -162 13 -44 -11 -102 -25 -130
-31 -27 -6 -78 -21 -111 -34 -160 -60 -449 -89 -525 -51 -87 43 -293 254 -393
403 -138 205 -251 511 -325 882 -111 556 -159 1031 -168 1667 -6 461 17 939
63 1324 37 303 10 416 -160 670 -320 481 -683 743 -1163 840 -89 18 -146 24
-333 35 -30 1 -118 -1 -195 -5z m525 -824 c171 -28 351 -99 555 -220 153 -91
295 -228 295 -284 0 -38 -30 -159 -85 -346 -231 -781 -348 -1372 -404 -2040
-30 -353 -23 -695 20 -943 10 -63 19 -144 19 -180 0 -102 -25 -247 -60 -344
-30 -87 -49 -122 -160 -308 -31 -52 -79 -135 -107 -185 -27 -49 -88 -151 -134
-225 -73 -117 -103 -154 -229 -280 -150 -151 -227 -209 -367 -279 -345 -172
-772 -131 -1129 110 -107 72 -259 221 -356 349 -87 116 -214 358 -268 515 -46
133 -87 307 -106 457 -14 110 -16 188 -11 458 5 324 17 475 57 749 100 674
330 1317 678 1896 194 322 472 613 782 820 372 248 679 333 1010 280z"/>
<path d="M17110 3333 c-543 -13 -1196 -58 -1735 -119 -1266 -143 -2361 -379
-3800 -816 -276 -84 -555 -177 -2325 -773 -910 -307 -1467 -474 -2075 -625
-1167 -289 -2198 -417 -3140 -389 -682 20 -1283 122 -1856 314 -89 30 -165 52
-167 50 -25 -25 86 -141 191 -199 206 -116 842 -287 1332 -360 591 -87 1258
-102 1930 -40 783 71 1652 245 2645 530 595 171 720 212 2695 878 992 334
1638 531 2335 710 2036 525 4302 704 6440 510 1103 -100 2156 -294 3169 -584
141 -41 217 -58 224 -51 24 24 -117 156 -226 209 -121 59 -886 262 -1397 371
-1352 287 -2802 419 -4240 384z"/>
</g>
</svg>
