<?xml version="1.0" standalone="no"?>
<!DOCTYPE svg PUBLIC "-//W3C//DTD SVG 20010904//EN"
 "http://www.w3.org/TR/2001/REC-SVG-20010904/DTD/svg10.dtd">
<svg version="1.0" xmlns="http://www.w3.org/2000/svg"
 width="5004.000000pt" height="4628.000000pt" viewBox="0 0 5004.000000 4628.000000"
 preserveAspectRatio="xMidYMid meet">
<metadata>
Created by potrace 1.16, written by Peter Selinger 2001-2019
</metadata>
<g transform="translate(0.000000,4628.000000) scale(0.100000,-0.100000)"
fill="#ffffff" stroke="none">
<path d="M24340 46269 c-3365 -113 -6620 -1023 -9540 -2667 -4375 -2463 -7744
-6446 -9434 -11155 -623 -1735 -1019 -3576 -1160 -5392 -43 -551 -57 -859 -65
-1510 -7 -545 -8 -562 -30 -630 -68 -206 -195 -357 -376 -445 -150 -73 -150
-73 -632 -77 l-433 -4 0 -9682 c0 -6378 4 -9713 10 -9772 63 -570 336 -1051
748 -1322 151 -100 307 -164 497 -205 89 -20 131 -22 385 -22 226 0 304 3 376
16 115 22 252 67 344 113 40 20 76 33 80 28 4 -4 49 -80 100 -168 525 -907
1278 -1695 2165 -2263 993 -636 2160 -1002 3318 -1040 l197 -7 0 10084 0
10084 -202 -6 c-510 -16 -1047 -102 -1568 -252 -1160 -334 -2198 -978 -3044
-1885 l-116 -125 3 2854 2 2854 85 23 c168 44 281 95 426 192 308 207 529 550
600 929 10 52 18 160 20 263 20 884 34 1222 69 1645 189 2242 778 4377 1764
6390 1812 3699 4879 6693 8626 8418 2733 1258 5735 1803 8765 1592 3628 -254
7080 -1603 9925 -3880 587 -470 1031 -871 1580 -1426 1581 -1600 2835 -3462
3722 -5529 779 -1813 1252 -3756 1398 -5740 28 -391 36 -598 45 -1120 7 -479
10 -534 29 -633 86 -427 353 -787 732 -987 95 -49 314 -130 357 -130 l22 0 0
-2887 -1 -2888 -31 35 c-605 683 -1260 1194 -2033 1585 -844 427 -1800 674
-2712 702 l-203 6 0 -10086 0 -10086 33 4 c17 2 111 7 207 9 176 6 392 24 595
52 2037 277 3843 1499 4865 3294 46 80 86 149 90 153 4 4 46 -12 94 -37 114
-58 232 -100 358 -128 93 -20 131 -22 393 -22 262 0 300 2 392 22 445 96 791
367 1026 802 103 190 180 440 211 678 15 113 16 1005 16 9812 l0 9689 -432 4
c-483 4 -483 4 -633 77 -179 87 -310 242 -376 445 -22 68 -22 86 -30 630 -8
646 -23 983 -65 1510 -238 3009 -1127 5925 -2609 8560 -1684 2995 -4108 5554
-7015 7405 -3373 2148 -7264 3272 -11275 3258 -236 0 -531 -5 -655 -9z"/>
<path d="M11310 10120 l0 -10120 1263 0 c1415 0 1335 -4 1492 74 163 81 287
220 349 395 l31 86 3 9533 c2 8385 0 9542 -13 9605 -8 40 -35 114 -60 165 -37
74 -62 109 -123 170 -115 115 -234 176 -392 201 -43 7 -488 11 -1307 11
l-1243 0 0 -10120z"/>
<path d="M36115 20225 c-38 -7 -89 -20 -113 -29 -188 -68 -348 -230 -418 -422
l-29 -79 -3 -9548 c-2 -8575 0 -9555 13 -9615 9 -37 34 -105 56 -151 33 -68
58 -101 128 -171 95 -95 155 -134 276 -177 l80 -28 1293 -3 1292 -2 0 10120 0
10120 -1252 -1 c-991 -1 -1268 -4 -1323 -14z"/>
<path d="M2116 13869 c-974 -103 -1826 -883 -2051 -1879 -60 -264 -58 -215
-62 -1685 -4 -1368 -1 -1559 32 -1765 126 -777 635 -1466 1340 -1811 272 -133
534 -203 833 -224 l102 -8 0 3692 0 3691 -57 -1 c-32 -1 -93 -5 -137 -10z
m-296 -3680 l0 -2611 -62 7 c-204 23 -431 135 -628 307 -327 286 -552 710
-614 1157 -23 162 -23 2122 -1 2280 81 571 426 1099 878 1345 122 66 295 120
400 125 l27 1 0 -2611z"/>
<path d="M47730 10190 l0 -3693 103 8 c298 21 560 91 832 224 705 345 1214
1034 1340 1811 33 206 36 397 32 1765 -4 1470 -2 1421 -62 1685 -102 453 -341
880 -679 1213 -403 397 -923 637 -1458 673 l-108 7 0 -3693z m700 2574 c531
-151 1000 -765 1095 -1435 22 -158 22 -2118 -1 -2280 -62 -446 -287 -871 -614
-1157 -197 -172 -424 -284 -627 -307 l-63 -7 0 2612 0 2612 63 -7 c34 -4 100
-18 147 -31z"/>
</g>
</svg>
