<?xml version="1.0" standalone="no"?>
<!DOCTYPE svg PUBLIC "-//W3C//DTD SVG 20010904//EN"
 "http://www.w3.org/TR/2001/REC-SVG-20010904/DTD/svg10.dtd">
<svg version="1.0" xmlns="http://www.w3.org/2000/svg"
 width="1188.000000pt" height="761.000000pt" viewBox="0 0 1188.000000 761.000000"
 preserveAspectRatio="xMidYMid meet">
<metadata>
Created by potrace 1.16, written by Peter Selinger 2001-2019
</metadata>
<g transform="translate(0.000000,761.000000) scale(0.100000,-0.100000)"
fill="#ffffff" stroke="none">
<path d="M461 7540 c-24 -11 -49 -19 -55 -18 -6 2 -13 -1 -15 -7 -1 -5 48 -31
110 -56 l113 -47 -3 -40 c-6 -90 63 -117 83 -32 10 43 -14 70 -84 98 -36 14
-67 27 -70 29 -3 3 6 13 20 23 33 26 75 25 101 -1 28 -28 38 -15 11 14 -22 23
-111 57 -148 57 -10 0 -39 -9 -63 -20z"/>
<path d="M2442 7458 c-20 -20 -14 -84 11 -112 19 -22 46 -30 211 -61 103 -19
195 -35 203 -35 22 0 10 24 -15 30 -12 3 -43 32 -70 65 -34 43 -59 64 -87 73
-42 14 -109 9 -131 -9 -9 -8 -17 -3 -28 19 -21 41 -68 56 -94 30z"/>
<path d="M1754 7406 c-38 -38 -46 -92 -18 -120 34 -35 89 -10 82 36 -3 26 -41
37 -64 18 -11 -10 -14 -9 -14 4 0 19 35 56 53 56 24 0 57 -31 78 -73 19 -36
21 -52 16 -124 -3 -46 -2 -83 2 -83 14 0 41 114 41 174 0 131 -96 192 -176
112z"/>
<path d="M1120 7394 c-8 -1 -36 -6 -62 -9 -27 -3 -48 -10 -48 -15 0 -5 25 -51
56 -102 31 -51 58 -96 61 -100 2 -5 -7 -13 -21 -19 -13 -6 -30 -24 -37 -40
-26 -64 46 -104 105 -58 37 29 33 57 -20 144 -25 42 -44 78 -41 81 2 2 27 7
55 11 l50 6 30 -49 31 -48 -22 -15 c-30 -20 -37 -32 -37 -61 0 -36 18 -50 60
-50 43 0 70 24 70 64 0 16 -30 77 -71 147 -70 119 -71 119 -107 118 -20 -1
-44 -3 -52 -5z"/>
<path d="M3705 7131 l-38 -119 -34 5 c-70 12 -114 -59 -50 -81 52 -19 79 1
106 79 13 39 26 72 28 75 8 9 53 -50 53 -69 0 -10 -9 -30 -21 -45 -17 -22 -18
-26 -5 -26 16 0 33 31 55 101 16 52 14 71 -14 123 -14 26 -25 54 -25 62 0 40
-20 2 -55 -105z"/>
<path d="M1580 7148 c-6 -24 -20 -77 -31 -118 l-20 -75 -40 3 c-72 7 -102 -46
-54 -93 29 -29 75 -33 98 -7 8 9 25 56 37 104 l22 88 27 -20 c69 -52 65 -44
52 -104 l-12 -54 -37 5 c-65 8 -99 -43 -61 -90 16 -21 29 -27 59 -27 21 0 43
6 50 15 10 13 79 262 80 290 0 10 -142 125 -154 125 -3 0 -10 -19 -16 -42z"/>
<path d="M2432 7158 c-7 -7 -12 -28 -12 -49 0 -66 70 -138 136 -141 16 0 107
25 203 56 96 31 177 53 180 50 3 -3 -10 -35 -28 -71 -46 -87 -72 -103 -176
-104 -78 -1 -79 -1 -45 -14 52 -20 150 -19 180 2 31 21 29 19 118 136 41 53
84 99 97 104 17 6 22 12 16 21 -7 11 -53 0 -230 -57 -122 -40 -228 -74 -236
-78 -11 -4 -15 2 -15 23 0 79 -140 170 -188 122z"/>
<path d="M2285 7126 c-24 -19 -34 -22 -54 -14 -60 22 -116 -19 -114 -83 2 -45
-16 -60 -59 -52 -45 9 -96 -6 -133 -39 -19 -16 -35 -39 -35 -49 0 -30 81 -26
135 6 36 21 48 23 76 15 76 -22 152 -1 179 51 11 19 10 84 -1 117 -2 7 12 23
32 35 33 19 39 20 54 7 17 -14 16 -15 -11 -20 -33 -6 -44 -39 -20 -59 37 -31
88 27 65 72 -24 45 -68 50 -114 13z"/>
<path d="M660 7005 c-5 -14 -7 -38 -4 -54 11 -55 35 -66 240 -105 218 -41 214
-41 214 -21 0 9 -9 15 -24 15 -19 0 -37 16 -72 61 -66 86 -129 108 -209 75
-31 -13 -35 -13 -35 0 0 24 -38 54 -70 54 -23 0 -33 -6 -40 -25z"/>
<path d="M5160 6863 c0 -10 -7 -81 -15 -158 -8 -77 -15 -143 -15 -147 0 -5
-14 -8 -30 -8 -65 0 -108 -43 -98 -97 2 -14 14 -19 51 -21 38 -3 51 1 70 20
25 25 22 6 54 361 4 47 2 67 -6 67 -6 0 -11 -8 -11 -17z"/>
<path d="M3483 6860 c-88 -35 21 -212 121 -197 17 2 104 28 194 57 90 29 166
50 169 47 10 -11 -6 -52 -38 -101 -43 -64 -79 -79 -172 -72 l-72 6 35 -17 c21
-10 61 -17 102 -17 63 -1 69 1 103 34 20 19 68 77 107 128 39 50 77 92 84 92
16 0 27 17 20 29 -3 5 -108 -24 -233 -65 -126 -40 -231 -74 -234 -74 -4 0 -9
13 -12 30 -15 72 -117 143 -174 120z"/>
<path d="M405 6786 c-18 -18 -25 -36 -25 -63 0 -32 18 -64 111 -200 60 -90
117 -163 125 -163 17 0 17 10 0 33 -10 13 -12 40 -8 104 4 71 2 92 -13 120
-19 34 -70 73 -98 73 -13 0 -13 5 -4 30 27 71 -35 119 -88 66z"/>
<path d="M2180 6675 c-58 -30 -110 -54 -117 -54 -6 -1 -14 8 -18 18 -8 26 -62
48 -84 34 -24 -15 -24 -36 -1 -66 28 -36 65 -35 140 3 l60 30 0 -34 c0 -40
-21 -65 -61 -73 -32 -6 -40 -23 -10 -23 22 0 108 45 137 72 12 10 27 39 34 64
7 24 19 49 26 55 15 12 19 29 7 28 -5 0 -55 -24 -113 -54z"/>
<path d="M1102 6680 c-29 -12 -46 -51 -38 -85 6 -23 11 -26 44 -23 32 3 37 6
37 28 0 16 -8 28 -22 35 -28 12 -29 22 -3 30 31 10 60 -4 71 -33 22 -58 -27
-146 -116 -209 -45 -32 -24 -38 33 -9 104 52 161 131 148 202 -12 61 -85 91
-154 64z"/>
<path d="M2563 6680 c-33 -13 -38 -30 -77 -227 -38 -195 -41 -213 -27 -213 5
0 23 75 41 168 l33 167 46 -3 c36 -3 51 1 69 18 27 25 31 85 6 94 -22 8 -65 6
-91 -4z"/>
<path d="M3391 6593 c-17 -15 -29 -57 -61 -217 -22 -110 -38 -202 -35 -205 13
-12 24 23 49 154 36 185 30 172 70 167 47 -6 93 21 101 58 4 19 2 36 -5 45
-17 21 -93 19 -119 -2z"/>
<path d="M3025 6580 c-22 -14 -39 -18 -63 -14 -64 12 -125 -41 -108 -94 10
-30 -19 -46 -74 -43 -53 3 -92 -13 -129 -53 -52 -56 16 -76 105 -31 45 23 53
24 97 14 67 -16 110 -5 146 37 33 37 41 87 21 124 -8 15 -5 23 16 39 31 24 57
27 73 8 8 -11 6 -13 -10 -13 -25 1 -45 -25 -36 -48 4 -10 18 -16 36 -16 25 0
32 5 37 26 4 15 3 39 -2 53 -12 35 -66 40 -109 11z"/>
<path d="M4457 6485 c-64 -48 -117 -93 -117 -100 0 -17 38 -176 43 -181 2 -2
48 30 103 70 57 44 101 70 103 63 9 -28 36 -47 67 -47 54 0 72 55 33 104 -31
40 -62 34 -145 -29 -40 -30 -75 -51 -78 -47 -3 5 -7 30 -11 58 -6 49 -5 49 38
80 42 31 44 31 56 13 19 -31 59 -42 87 -24 45 29 22 106 -36 120 -21 5 -47
-10 -143 -80z"/>
<path d="M1760 6553 c-27 -10 -50 -36 -50 -55 0 -25 -51 -24 -75 2 -36 40
-143 51 -181 19 -33 -27 29 -69 102 -69 41 0 52 -5 96 -45 47 -42 54 -45 105
-45 47 0 59 4 84 29 19 19 29 40 29 59 0 27 4 30 36 34 39 5 74 -14 74 -40 0
-10 -3 -13 -8 -6 -12 18 -39 23 -57 10 -24 -18 -15 -49 19 -61 24 -8 31 -6 47
14 23 28 24 60 5 87 -11 15 -25 19 -67 17 -43 -1 -55 3 -73 23 -22 24 -61 37
-86 27z"/>
<path d="M789 6414 c-21 -22 -24 -35 -24 -95 l0 -69 -221 0 c-122 0 -246 -5
-275 -10 -95 -18 -133 -68 -90 -121 19 -24 21 -24 225 -27 135 -2 206 -7 206
-14 0 -9 -12 -60 -40 -168 -9 -34 -11 -35 -52 -32 -58 5 -98 -25 -98 -73 0
-36 12 -45 65 -45 58 0 81 31 110 150 14 58 31 122 36 143 l10 38 86 -3 86 -3
19 -35 c11 -19 37 -52 58 -72 37 -36 42 -38 107 -38 37 0 111 7 163 14 66 10
100 11 113 4 13 -7 22 -7 30 1 14 14 18 11 -88 65 l-90 47 65 -6 c36 -2 98 -8
138 -11 l73 -7 42 -58 c28 -41 44 -56 51 -49 7 7 7 17 -2 30 -11 19 -17 70 -7
70 40 0 416 -54 432 -61 11 -6 25 -9 31 -5 10 6 263 -36 488 -80 130 -26 131
-26 140 -58 17 -57 97 -73 110 -20 5 18 11 23 28 19 139 -33 374 -92 462 -116
l112 -31 -15 -56 c-37 -144 -28 -131 -73 -125 -72 10 -104 -44 -55 -92 27 -28
75 -33 98 -11 8 8 25 56 37 105 l22 91 27 -20 c69 -52 65 -44 52 -106 -12 -53
-14 -55 -38 -49 -15 3 -39 1 -55 -6 -22 -9 -28 -18 -28 -44 0 -18 8 -39 18
-48 23 -21 85 -22 101 -3 17 20 83 277 77 299 -3 13 0 17 12 13 9 -3 58 -17
109 -32 l92 -27 -29 -27 c-41 -39 -50 -85 -26 -141 9 -20 -53 -62 -78 -53 -23
9 -20 22 7 26 30 4 37 53 8 63 -34 10 -61 -11 -61 -49 0 -64 64 -87 118 -41
25 21 34 23 59 15 58 -21 121 30 110 88 -14 68 81 61 318 -23 188 -66 252 -99
234 -121 -6 -8 -15 -29 -18 -47 l-7 -32 -29 52 c-27 48 -33 53 -65 53 -42 0
-160 -17 -167 -23 -2 -3 23 -51 57 -108 l61 -103 -30 -24 c-24 -18 -31 -31
-31 -57 0 -55 55 -73 104 -34 38 30 33 65 -19 150 -49 82 -48 87 30 88 37 1
42 -2 68 -45 l27 -45 -30 -25 c-32 -27 -40 -70 -18 -92 7 -7 29 -12 49 -12 60
0 97 59 66 105 -8 11 -27 42 -42 69 l-29 49 26 -17 c43 -28 98 6 98 61 0 40
-9 41 146 -19 l102 -39 6 -40 c4 -22 12 -48 18 -59 10 -16 8 -22 -15 -41 -23
-17 -28 -28 -25 -58 3 -35 5 -36 44 -39 66 -5 93 25 101 111 3 37 9 67 12 67
3 0 63 -24 134 -52 112 -46 125 -54 101 -60 -15 -4 -31 -13 -35 -20 -13 -21
-10 -84 4 -97 8 -6 49 -16 93 -22 108 -16 108 -16 76 -67 -29 -44 -44 -49
-111 -36 -28 6 -32 10 -26 31 6 24 -9 62 -29 75 -36 25 -86 -13 -86 -65 0 -57
13 -64 159 -87 74 -11 140 -20 148 -20 11 0 96 119 109 155 4 9 -30 18 -116
30 -117 18 -121 19 -116 41 3 12 2 34 -4 48 -5 14 -8 26 -6 26 12 0 666 -293
662 -297 -1 -1 -64 0 -139 4 l-137 6 0 37 c0 51 -32 90 -74 90 -17 0 -37 -5
-44 -12 -27 -27 0 -112 41 -127 12 -5 108 -11 212 -15 183 -7 193 -8 263 -38
l74 -31 -29 -15 c-38 -20 -73 -53 -73 -69 0 -8 -19 -79 -42 -159 -38 -134 -43
-144 -62 -138 -42 12 -65 35 -76 73 -12 47 -5 70 46 141 20 28 34 53 32 56 -9
9 -95 -75 -108 -105 -7 -17 -10 -50 -9 -74 l4 -45 -50 20 c-27 11 -61 24 -74
29 -13 5 -35 18 -49 29 -13 11 -35 20 -49 20 -32 0 -37 20 -23 80 10 44 10 58
-4 94 -9 24 -26 52 -37 62 -20 18 -21 18 -35 -1 -18 -25 -18 -86 1 -131 10
-25 12 -41 5 -54 -9 -17 -14 -17 -87 12 -43 17 -193 72 -333 123 l-255 94 -5
50 c-3 27 -8 53 -12 56 -14 14 -47 -7 -63 -41 -9 -20 -22 -33 -28 -31 -68 26
-470 153 -647 204 -234 67 -686 183 -714 183 -10 0 -31 16 -49 34 -31 34 -38
36 -217 70 -102 20 -194 36 -204 36 -23 0 -15 -24 10 -28 10 -2 24 -9 29 -14
7 -7 3 -8 -10 -4 -26 7 -414 72 -527 87 -85 12 -86 12 -73 33 47 73 10 216
-55 216 -58 0 -97 -106 -68 -186 l14 -40 -59 8 c-44 6 -66 15 -83 33 -26 28
-57 31 -94 10 -14 -8 -51 -14 -82 -15 l-58 0 0 34 c0 31 4 35 52 55 37 15 54
18 57 10 8 -25 42 -49 69 -49 36 0 52 16 52 53 0 39 -16 66 -47 78 -21 8 -46
-1 -159 -55 -120 -58 -134 -67 -134 -90 0 -31 -21 -34 -47 -7 -44 45 -88 52
-138 21 -32 -20 -43 -20 -334 -14 -283 7 -301 8 -301 26 0 11 -7 18 -20 18
-13 0 -20 -7 -20 -19 0 -22 -49 -31 -179 -31 -127 0 -301 -17 -347 -33 -39
-13 -42 -12 -67 9 -15 13 -27 30 -27 39 0 14 -26 32 -35 24 -3 -3 95 -419 111
-471 4 -14 -1 -18 -21 -18 -34 0 -62 -15 -102 -53 -29 -27 -33 -37 -33 -83 0
-60 14 -71 76 -59 41 7 110 70 119 108 5 19 -6 84 -34 198 -22 93 -41 174 -41
180 0 6 6 6 19 -1 11 -5 30 -10 43 -10 29 0 86 -53 94 -87 4 -14 4 -57 1 -97
l-6 -71 21 45 c30 63 30 139 0 179 l-23 31 43 1 c24 0 120 4 213 8 159 8 171
8 190 -10 41 -37 125 -33 125 6 0 13 23 15 138 14 127 0 135 -1 115 -16 -13
-8 -23 -19 -23 -24 0 -15 24 -10 50 11 30 23 110 26 356 10 224 -15 227 -15
220 -48 -4 -21 6 -46 44 -107 l49 -80 -27 -6 c-70 -17 -86 -11 -115 37 l-27
46 30 28 c42 39 39 83 -6 100 -46 18 -104 -19 -104 -66 0 -12 126 -240 146
-263 4 -5 196 17 201 23 2 2 -24 49 -57 105 -33 57 -60 106 -60 109 0 4 10 12
22 17 13 6 27 24 32 40 6 17 11 31 12 33 1 2 59 -4 130 -13 100 -12 131 -20
138 -33 5 -9 26 -34 46 -54 37 -37 39 -38 111 -38 41 0 115 7 164 14 55 8 97
10 107 5 24 -13 38 -11 38 6 0 17 -27 21 305 -44 138 -27 330 -69 428 -92
l177 -43 26 -43 c44 -75 120 -94 188 -48 47 32 54 31 58 -2 3 -24 8 -29 38
-31 22 -2 38 2 45 12 10 13 33 9 191 -38 209 -62 447 -137 453 -142 2 -2 -4
-20 -14 -40 -24 -50 -14 -101 25 -136 17 -16 39 -28 50 -28 16 0 20 -7 20 -31
0 -42 -17 -69 -42 -69 -21 0 -21 1 -4 13 21 15 18 45 -6 60 -23 15 -48 -8 -48
-44 0 -31 23 -49 64 -49 33 0 56 34 56 82 0 31 5 41 25 50 27 12 49 65 39 94
-4 10 -14 28 -23 38 -15 18 -15 19 2 13 9 -4 84 -30 165 -58 323 -114 517
-190 542 -213 33 -32 77 -48 111 -41 24 5 30 2 43 -24 21 -39 20 -58 -2 -70
-15 -8 -17 -5 -17 22 0 25 -5 33 -21 35 -51 7 -58 -72 -7 -84 16 -5 36 -1 52
7 21 12 26 22 26 55 l0 41 100 -40 c55 -22 102 -42 105 -44 2 -2 5 -25 6 -51
2 -57 24 -64 38 -12 5 19 10 36 11 37 1 2 36 -11 79 -29 l77 -31 -53 -56
c-115 -121 -130 -139 -123 -151 5 -8 14 -5 29 9 16 15 41 22 94 27 83 8 124
29 153 79 12 19 24 35 27 35 3 0 50 -19 103 -42 93 -40 98 -44 107 -80 8 -32
7 -42 -14 -70 -37 -49 -49 -98 -35 -140 17 -52 52 -80 101 -82 38 -1 41 -3 52
-38 8 -29 8 -41 -2 -53 -19 -23 -25 -18 -25 17 0 23 -5 34 -18 36 -38 8 -64
-47 -35 -76 17 -17 74 -15 92 4 18 17 20 45 7 90 -7 23 -4 35 10 53 40 49 13
129 -44 133 -36 3 -44 30 -21 79 14 32 21 38 37 33 39 -12 603 -272 882 -406
154 -74 305 -145 335 -159 30 -13 57 -27 58 -31 2 -5 12 -8 22 -8 16 0 81 -25
99 -37 3 -2 -5 -10 -17 -19 -27 -18 -52 -65 -52 -95 0 -12 29 -79 65 -150 36
-70 65 -130 65 -133 0 -10 -51 5 -92 25 -45 23 -53 38 -63 109 -6 42 -10 50
-16 35 -22 -58 -1 -137 45 -167 42 -27 29 -22 -128 47 l-137 60 7 30 c4 19 24
45 52 70 94 81 117 104 110 111 -4 3 -42 -23 -85 -59 -75 -64 -78 -66 -84 -42
-4 13 -14 34 -22 46 -15 20 -14 23 9 41 17 14 24 29 24 53 0 45 -27 61 -75 45
-52 -17 -65 -43 -65 -126 0 -98 -10 -105 -94 -69 l-63 27 5 43 c3 35 0 47 -18
65 -26 26 -58 21 -106 -15 l-32 -24 -171 71 -172 72 -64 79 c-61 78 -63 81
-44 96 11 9 22 32 25 53 5 30 3 38 -15 47 -27 15 -58 -1 -71 -35 -15 -40 -13
-48 35 -110 51 -66 48 -83 -12 -68 -29 7 -42 17 -55 44 -16 34 -17 34 -18 9
l0 -27 -232 92 c-128 51 -331 128 -450 172 l-218 79 0 158 c0 98 -4 157 -10
157 -6 0 -10 -57 -10 -150 0 -86 -4 -150 -9 -150 -5 0 -62 18 -125 41 l-116
40 -156 160 c-87 87 -161 159 -166 159 -23 0 3 -32 109 -135 102 -97 116 -114
105 -128 -12 -14 -19 -14 -70 4 -31 11 -181 58 -332 105 -151 47 -282 87 -290
90 -9 3 0 12 28 24 38 17 42 23 42 53 0 29 -5 37 -30 47 -43 18 -89 2 -117
-38 -12 -18 -23 -38 -25 -44 -3 -8 -44 -2 -134 22 -129 33 -129 33 -180 88
-53 55 -64 56 -64 0 0 -18 -4 -19 -35 -14 -20 4 -51 16 -70 27 -22 13 -64 24
-117 29 -46 4 -167 27 -270 49 -102 23 -193 41 -201 41 -25 0 -28 14 -11 57
21 53 8 128 -21 128 -26 0 -65 -76 -65 -128 0 -32 -3 -38 -17 -34 -10 3 -48
11 -85 17 -71 13 -96 32 -30 23 28 -4 44 0 62 15 23 19 24 20 7 46 -32 48
-109 26 -122 -34 -7 -31 -31 -39 -70 -24 -14 6 -14 8 0 31 21 32 9 45 -15 15
-10 -12 -20 -26 -22 -31 -2 -4 -69 2 -149 15 -212 33 -448 62 -660 81 l-186
17 14 44 c7 25 14 46 16 46 1 1 22 11 46 24 49 24 56 21 68 -30 3 -16 9 -28
12 -28 4 0 25 54 46 120 l39 120 31 -5 c56 -10 104 35 75 70 -14 17 -63 20
-90 5 -11 -6 -28 -39 -41 -80 -13 -39 -28 -69 -33 -67 -6 2 -17 25 -24 50 -12
44 -12 49 7 73 23 29 28 83 9 102 -7 7 -29 12 -51 12 -34 0 -40 -4 -53 -35 -7
-19 -14 -44 -14 -55 0 -11 -6 -20 -14 -20 -8 0 -27 -11 -42 -24 -36 -30 -38
-84 -6 -119 31 -33 28 -52 -13 -77 -22 -14 -43 -39 -57 -70 l-23 -49 -145 6
c-93 4 -150 10 -160 18 -8 7 -75 32 -148 56 l-133 44 -49 -51 -49 -51 -217 -7
-217 -7 -173 47 -174 47 6 37 c8 48 -17 97 -53 106 -40 10 -58 -7 -61 -59 -5
-72 13 -84 212 -137 l168 -45 -203 -18 c-112 -9 -227 -24 -255 -32 -95 -27
-130 -79 -84 -125 15 -15 34 -20 77 -20 l58 -1 23 -46 c16 -32 20 -49 12 -57
-5 -5 -10 -25 -10 -43 0 -46 37 -83 84 -83 19 0 38 -5 42 -12 4 -6 6 -40 5
-75 -2 -50 2 -71 19 -99 27 -43 59 -62 71 -43 15 23 10 82 -11 127 -18 40 -18
47 -4 101 12 48 12 65 2 97 -22 66 -85 95 -156 73 -16 -5 -59 47 -48 58 4 4
16 2 26 -5 26 -16 47 -15 57 3 7 12 45 18 165 27 l155 12 124 -51 123 -50 -2
-44 c-2 -26 3 -52 11 -64 13 -17 18 -18 41 -7 22 10 26 18 26 56 0 50 -1 51
-85 86 -33 14 -60 30 -59 35 0 6 15 18 32 28 30 18 33 18 62 1 16 -10 30 -22
30 -27 0 -4 5 -5 11 -2 7 5 2 16 -12 31 l-22 24 196 0 c159 0 195 -3 191 -13
-3 -8 0 -25 5 -40 21 -56 102 -40 116 23 4 16 12 30 18 30 7 0 100 -5 207 -10
348 -18 666 -49 1025 -101 226 -32 245 -39 245 -96 0 -35 23 -24 34 16 9 33
10 33 60 27 52 -7 76 -25 76 -57 0 -24 47 -67 81 -74 25 -6 29 -11 29 -40 0
-35 -21 -65 -46 -65 -13 0 -13 2 0 16 19 19 20 36 4 52 -18 18 -46 14 -58 -7
-14 -28 -13 -38 10 -61 46 -46 110 -10 110 61 0 33 6 45 30 66 17 13 30 33 30
44 0 10 5 17 13 14 6 -2 37 -9 68 -15 l56 -11 -12 -37 c-7 -20 -18 -91 -25
-157 -8 -80 -18 -126 -28 -138 -12 -13 -13 -20 -4 -29 9 -9 15 -9 25 2 8 8 71
81 141 163 117 134 130 146 154 141 65 -14 541 -134 580 -146 l42 -13 -29 -61
c-41 -86 -45 -104 -27 -104 8 0 18 9 21 21 4 13 31 31 73 51 37 16 74 36 83
44 13 12 44 5 245 -56 127 -38 342 -106 480 -152 227 -76 249 -85 254 -108 6
-23 10 -25 71 -25 42 0 89 -8 137 -25 78 -26 74 -21 56 -85 -4 -15 9 -39 45
-85 l50 -65 -40 -3 c-46 -4 -64 8 -84 52 l-13 31 -1 -26 c-1 -17 13 -44 39
-75 48 -58 58 -64 123 -74 29 -4 60 -11 70 -15 30 -13 19 8 -62 108 l-78 99
23 23 c13 13 24 31 24 40 0 8 3 15 7 15 21 0 99 -36 107 -49 27 -45 113 -122
152 -137 53 -20 112 -13 135 15 16 20 23 17 390 -131 206 -83 386 -155 400
-161 30 -12 25 -5 123 -180 101 -179 98 -171 50 -163 -61 11 -143 54 -158 84
-8 15 -17 55 -21 90 -4 34 -11 62 -16 62 -14 0 -10 -127 5 -164 18 -44 52 -69
176 -127 58 -28 115 -62 127 -77 18 -22 23 -23 28 -10 4 10 -37 93 -110 223
-65 113 -114 209 -111 212 3 4 63 -19 133 -49 l128 -55 3 -47 c2 -32 7 -46 18
-46 9 0 14 10 14 29 0 40 17 48 40 18 11 -13 32 -30 47 -36 21 -9 33 -25 46
-62 15 -41 25 -53 54 -65 42 -18 89 -10 106 17 6 10 19 19 29 19 19 0 48 -26
48 -43 0 -8 -4 -7 -12 1 -17 17 -47 15 -54 -3 -8 -20 13 -45 37 -45 23 0 53
44 45 65 -3 8 -3 15 -1 15 2 0 57 -20 122 -44 154 -57 291 -102 433 -142 106
-30 111 -33 68 -33 -27 -1 -48 -5 -48 -10 0 -14 108 -25 144 -14 17 5 42 6 56
2 14 -5 72 -15 130 -24 58 -9 106 -20 108 -25 2 -5 23 -7 47 -3 57 7 116 -4
109 -20 -8 -22 33 -49 81 -55 34 -3 50 -11 62 -29 18 -28 63 -53 93 -53 39 0
80 29 87 60 4 25 11 30 33 30 15 0 32 -6 38 -13 8 -10 5 -13 -16 -12 -22 0
-27 -4 -27 -25 0 -28 27 -39 50 -20 18 15 20 61 3 78 -7 7 -28 12 -48 12 -23
0 -39 6 -47 19 -11 17 -6 19 75 25 47 3 102 9 122 12 35 6 35 5 38 -34 1 -26
-3 -44 -13 -52 -8 -7 -15 -28 -15 -46 0 -26 6 -38 28 -51 15 -9 29 -18 31 -19
2 -2 -14 -18 -35 -36 -22 -18 -76 -68 -122 -112 l-82 -80 19 57 20 57 -100 -6
c-96 -7 -99 -6 -99 14 0 37 -11 52 -39 52 -15 0 -32 -5 -39 -12 -17 -17 -15
-58 5 -80 14 -15 14 -18 1 -18 -24 0 -51 -37 -46 -62 4 -20 0 -23 -31 -23 -41
0 -52 -22 -24 -50 17 -17 13 -18 -97 -11 -147 9 -299 29 -473 62 -130 25 -137
27 -122 44 20 23 35 74 28 100 -17 66 -143 1 -143 -75 0 -8 -3 -15 -6 -15 -15
0 -200 53 -209 60 -5 4 -27 10 -48 14 -21 4 -47 16 -57 26 -12 12 -33 19 -52
19 -41 -1 -95 18 -332 117 -172 71 -185 78 -166 91 22 15 26 43 9 60 -8 8 8
17 55 33 62 20 85 35 73 46 -7 7 -259 -84 -267 -95 -3 -5 -101 29 -217 76
l-213 85 0 32 c0 22 -8 40 -25 56 -20 19 -31 22 -68 17 -50 -7 -67 4 -67 43
-1 40 -35 105 -68 128 -40 29 -72 29 -72 0 0 -30 39 -107 61 -121 22 -13 27
-72 7 -65 -7 3 -111 41 -230 84 l-218 79 0 178 c0 111 -4 177 -10 177 -6 0
-10 -63 -10 -170 0 -93 -3 -170 -6 -170 -7 0 -697 232 -702 236 -2 1 -1 16 3
32 l6 29 68 -5 c55 -4 75 -1 108 16 42 22 53 38 53 76 0 49 -67 75 -143 56
-59 -15 -91 -51 -107 -123 -7 -32 -17 -60 -21 -63 -11 -6 -99 17 -99 26 0 4 9
19 21 34 26 33 10 34 -30 0 l-31 -26 -202 61 c-112 33 -270 78 -351 100 -172
47 -263 91 -247 121 16 29 12 75 -8 93 -25 22 -44 21 -76 -4 -20 -15 -26 -29
-26 -58 0 -20 5 -42 12 -49 8 -8 8 -12 1 -12 -6 0 -16 7 -23 15 -8 9 -27 14
-49 13 -20 -1 -84 9 -143 22 l-106 24 1 60 c2 49 -1 61 -15 64 -19 4 -66 -43
-74 -75 -4 -13 -10 -23 -14 -23 -5 0 -95 18 -202 39 -106 22 -266 52 -355 67
-90 15 -163 31 -163 35 0 3 29 69 65 144 44 93 62 142 56 148 -7 7 -20 -11
-40 -54 -108 -238 -110 -241 -134 -236 -12 3 -122 18 -244 33 -201 26 -220 30
-212 46 16 30 10 74 -14 96 -13 12 -29 22 -36 22 -24 0 -286 -82 -289 -91 -2
-5 -27 -9 -55 -9 l-51 0 73 35 73 35 -53 48 c-140 123 -136 118 -116 139 10
11 17 35 17 57 0 30 -5 39 -26 48 -32 15 -73 -4 -92 -44 -18 -37 -6 -58 71
-124 l68 -58 -43 -23 c-24 -12 -48 -22 -54 -23 -6 0 -29 16 -52 36 l-42 36 20
25 c25 32 26 65 2 86 -26 24 -59 21 -87 -8 -47 -47 -36 -73 69 -167 52 -45 94
-84 93 -85 -2 -1 -69 1 -150 4 -134 6 -147 8 -142 23 8 25 -19 32 -34 9 -10
-18 -22 -19 -119 -17 -119 3 -108 -5 -95 73 7 46 -28 85 -77 85 -21 0 -42 5
-46 11 -4 7 -6 42 -5 78 2 60 -1 71 -29 109 -40 55 -64 53 -68 -5 -2 -27 4
-60 17 -89 20 -44 20 -50 6 -97 -18 -60 -11 -107 19 -140 l22 -24 -235 -7
c-129 -3 -236 -4 -238 -2 -2 2 2 26 10 52 l14 48 44 -3 c57 -3 99 26 99 69 0
33 -23 50 -68 50 -51 0 -77 -31 -102 -122 -12 -46 -26 -88 -31 -94 -5 -6 -60
-14 -121 -18 -292 -17 -520 -49 -582 -81 -15 -8 -36 -15 -46 -15 -15 0 -16 -6
-10 -40 4 -22 14 -48 23 -58 8 -9 26 -44 40 -77 24 -56 25 -61 9 -72 -52 -37
-67 -78 -38 -102 19 -16 61 1 82 34 17 26 16 29 -13 101 l-31 74 28 0 c37 0
67 -27 79 -70 l9 -35 1 38 c1 21 -6 49 -15 63 -9 13 -15 26 -13 29 5 4 331 40
462 51 84 6 87 6 87 -15 0 -26 17 -28 25 -2 3 11 13 22 23 26 9 4 187 9 396
12 l378 6 -12 -24 c-13 -24 -79 -134 -107 -177 -13 -21 -16 -22 -31 -9 -29 25
-91 39 -136 33 -57 -9 -88 -38 -84 -79 2 -27 11 -36 48 -54 50 -26 96 -29 143
-9 24 10 46 37 91 112 107 178 126 204 146 204 23 0 40 -51 40 -119 0 -37 -5
-49 -37 -80 -21 -20 -51 -47 -67 -59 -16 -12 -27 -24 -25 -27 10 -9 105 44
134 74 28 30 30 38 33 121 l4 88 71 -4 c274 -16 382 -26 385 -34 2 -5 30 -7
65 -4 34 3 98 0 142 -6 44 -6 107 -13 140 -15 93 -7 419 -52 645 -90 328 -55
350 -60 366 -84 18 -25 34 -27 34 -5 0 13 7 15 31 10 17 -3 35 -6 40 -6 4 0 5
-22 2 -48 -7 -60 14 -104 57 -122 24 -10 30 -19 30 -41 0 -35 -33 -71 -56 -62
-15 6 -14 7 4 14 43 16 16 78 -27 64 -12 -3 -24 -18 -27 -32 -6 -21 -1 -31 21
-50 46 -40 105 -13 105 49 0 15 7 33 16 40 60 49 66 58 62 103 -2 36 0 44 12
41 8 -2 87 -21 175 -41 114 -27 183 -49 239 -77 70 -35 81 -38 107 -28 24 10
44 9 119 -11 91 -24 106 -33 70 -42 -23 -6 -28 -55 -8 -75 19 -19 49 -14 55 8
6 22 20 25 43 10 18 -12 7 -34 -34 -64 -39 -30 -135 -28 -194 2 -61 32 -74 16
-17 -20 61 -38 118 -58 165 -58 32 0 36 -3 36 -22 -1 -17 5 -24 22 -26 16 -3
22 2 22 17 0 11 -8 25 -17 30 -11 6 -13 11 -5 11 7 0 24 11 37 25 19 18 25 35
25 66 0 41 0 41 31 35 17 -3 47 -6 65 -6 30 0 34 -3 34 -27 0 -48 22 -78 55
-78 29 0 30 1 30 48 0 26 2 47 3 47 2 0 34 -9 71 -20 l68 -21 43 -132 c24 -73
44 -141 44 -152 1 -11 6 -22 11 -25 6 -2 25 52 44 120 19 69 35 127 37 128 1
2 28 -4 60 -13 42 -12 54 -19 45 -28 -22 -22 -12 -68 21 -99 26 -24 32 -37 29
-64 -2 -27 4 -40 27 -64 33 -32 51 -36 83 -19 28 14 59 -14 59 -53 0 -47 26
-94 66 -122 51 -34 64 -33 64 5 0 40 -26 94 -56 118 -21 16 -24 27 -24 84 0
51 -5 70 -22 92 -42 53 -116 66 -161 27 -16 -15 -20 -13 -48 15 -24 23 -29 36
-24 53 l7 22 12 -23 c15 -31 56 -38 63 -11 4 19 17 16 206 -48 498 -168 973
-344 1003 -371 11 -11 32 -19 47 -19 31 0 136 -40 572 -218 176 -71 345 -138
375 -147 l55 -17 0 -67 0 -66 60 -32 c69 -36 75 -33 75 42 0 28 4 55 8 61 5 7
43 1 120 -19 l112 -30 0 -48 c0 -64 26 -92 131 -148 46 -24 92 -53 101 -65 9
-11 20 -17 24 -13 5 4 -18 60 -49 123 l-58 116 43 -7 c27 -4 50 -15 63 -31 14
-17 31 -24 54 -24 23 0 41 -8 57 -25 35 -38 86 -30 110 17 8 15 12 16 34 3 63
-37 94 -46 127 -40 18 3 33 11 33 18 0 9 33 10 137 5 127 -7 463 4 531 18 28
6 29 5 29 -42 0 -39 4 -51 27 -71 15 -12 34 -23 42 -23 16 0 20 -55 4 -65 -6
-3 -10 5 -10 18 0 14 -6 27 -13 30 -23 9 -39 -9 -35 -39 2 -23 8 -30 31 -32
38 -5 57 14 57 54 0 22 8 41 25 58 33 33 32 62 -6 97 -34 32 -34 32 43 47 47
9 48 9 92 -34 25 -24 63 -48 86 -55 27 -8 39 -17 38 -28 -2 -8 6 -17 16 -19
15 -3 18 0 13 17 -3 12 -1 21 4 21 5 0 18 9 29 20 27 27 27 87 -1 117 -17 17
-19 24 -8 27 8 3 61 22 119 44 58 21 122 42 143 46 21 4 41 14 44 22 5 14 102
69 108 62 1 -2 8 -13 14 -26 28 -53 108 6 84 61 -9 19 -2 27 56 65 204 136
421 350 568 561 2 3 13 -5 26 -17 13 -12 35 -22 50 -22 24 0 27 -4 27 -34 0
-42 -17 -57 -22 -19 -2 20 -9 28 -23 28 -24 0 -33 -38 -15 -61 10 -12 7 -14
-19 -14 -34 0 -80 -20 -99 -43 -6 -7 -21 -74 -32 -148 -12 -74 -23 -141 -26
-149 -7 -20 -59 42 -75 88 -10 29 -7 39 21 93 38 73 20 75 -28 3 -41 -60 -39
-83 18 -202 22 -46 40 -95 40 -108 0 -13 6 -24 13 -24 10 0 22 53 42 185 28
183 29 184 52 179 61 -16 143 30 143 80 0 14 -8 30 -17 35 -16 9 -16 10 3 11
31 0 46 23 42 67 -2 26 2 43 15 55 32 33 11 108 -30 108 -20 0 -21 27 -2 56
10 16 19 38 19 48 0 10 14 56 32 102 33 89 39 92 82 45 11 -12 25 -21 33 -21
18 0 133 58 133 68 0 4 -32 34 -70 66 -59 50 -67 61 -54 70 10 8 14 24 12 46
-2 30 -7 35 -31 38 -24 3 -26 6 -20 30 11 38 7 366 -5 430 -7 40 -6 55 4 63
10 8 19 -1 39 -40 14 -28 30 -51 36 -51 14 0 4 30 -42 123 -36 71 -58 95 -60
65 -1 -13 -10 13 -22 64 -10 39 18 40 77 1 54 -37 99 -42 147 -17 17 8 32 14
34 12 1 -2 13 -47 25 -101 l22 -98 -44 -57 c-25 -31 -66 -84 -91 -117 -26 -33
-47 -63 -47 -67 0 -14 28 -9 33 6 3 7 33 18 67 25 34 7 70 21 81 32 23 23 25
19 33 -69 5 -59 5 -63 -14 -57 -33 10 -60 -12 -60 -48 0 -40 15 -57 52 -57 26
0 28 -3 28 -40 0 -22 -4 -40 -10 -40 -5 0 -10 10 -10 23 0 29 -18 47 -45 47
-30 0 -45 -19 -45 -55 0 -42 16 -55 67 -55 l43 0 -6 -62 c-5 -61 -34 -251 -38
-255 -1 -2 -16 3 -33 9 -25 9 -35 9 -47 -1 -23 -20 -20 -58 5 -66 24 -8 35 1
41 30 4 19 4 19 16 -2 11 -19 9 -26 -8 -43 -32 -32 -96 -27 -154 11 -60 40
-74 28 -21 -18 48 -42 94 -63 135 -63 16 0 30 -4 30 -9 0 -5 -9 -7 -20 -4 -14
4 -20 0 -20 -11 0 -9 5 -16 10 -16 15 0 12 -23 -10 -84 l-21 -55 -41 15 c-22
8 -44 14 -48 14 -16 0 24 -83 42 -88 10 -2 18 -6 18 -8 0 -2 -14 -33 -32 -68
-30 -61 -33 -64 -52 -50 -28 19 -70 18 -94 -3 -29 -26 -182 -229 -182 -242 0
-15 11 -14 31 5 10 9 40 20 66 25 66 12 95 37 112 92 11 34 20 47 33 47 16 0
14 -8 -18 -58 -122 -192 -313 -400 -497 -540 -102 -78 -105 -79 -135 -48 -21
20 -24 28 -14 38 7 7 12 27 12 45 0 28 -3 33 -25 33 -25 0 -45 -25 -45 -56 0
-10 18 -37 41 -60 39 -39 40 -42 20 -49 -29 -9 -59 2 -66 26 -4 10 -11 19 -16
19 -14 0 -11 -15 11 -43 11 -14 20 -27 20 -30 0 -6 -195 -97 -209 -97 -7 0 -9
9 -6 23 2 12 12 67 20 122 25 161 22 155 55 149 56 -12 140 38 140 82 0 67
-170 51 -184 -18 -7 -31 -46 -274 -46 -284 0 -15 -43 32 -61 68 -25 49 -24 75
6 123 32 52 32 65 -1 34 -66 -61 -69 -110 -14 -227 22 -47 37 -89 33 -93 -11
-10 -184 -64 -273 -84 l-76 -18 -60 64 c-33 35 -82 88 -109 116 -45 50 -65 64
-65 44 0 -4 38 -49 85 -99 72 -76 83 -92 70 -102 -8 -7 -15 -18 -15 -26 0 -7
-8 -15 -17 -18 -33 -10 -227 -35 -355 -46 l-127 -11 -33 36 c-57 62 -143 56
-168 -11 -8 -19 -17 -24 -45 -24 -19 0 -35 4 -35 8 0 4 12 8 28 7 20 0 27 5
27 19 0 50 -67 44 -73 -8 l-3 -26 -98 0 c-54 0 -125 3 -157 6 l-59 6 3 37 c3
34 -3 43 -103 148 -59 62 -111 113 -116 113 -14 0 -10 -26 6 -40 10 -8 15 -31
15 -70 0 -67 21 -102 75 -121 27 -10 35 -19 35 -37 0 -25 0 -25 -77 -18 -137
12 -151 16 -146 37 7 26 -23 69 -48 69 -12 0 -59 -12 -106 -27 l-86 -26 -96
18 c-128 23 -388 88 -481 120 -41 14 -183 68 -315 121 l-240 95 -33 60 c-27
48 -30 59 -16 59 47 0 114 92 114 157 0 37 -27 63 -65 63 -43 0 -112 -76 -120
-133 -6 -41 -3 -51 34 -113 22 -37 39 -69 38 -71 -2 -1 -151 52 -333 118 -359
131 -840 295 -1111 379 l-173 54 0 88 c0 72 -3 88 -15 88 -10 0 -15 -10 -15
-27 -1 -18 -15 -44 -40 -72 l-38 -44 -82 23 c-68 19 -84 28 -96 52 -11 21 -45
43 -133 88 -130 65 -133 65 -271 80 -52 6 -115 13 -139 16 l-45 6 26 -34 26
-35 -126 31 -127 31 3 30 c5 42 -30 85 -68 85 -41 0 -53 26 -35 76 8 21 14 49
15 62 0 29 -22 83 -45 105 -39 39 -68 -41 -43 -118 15 -43 14 -47 -8 -92 -13
-25 -24 -60 -24 -76 0 -22 -4 -28 -15 -23 -8 3 -55 13 -104 22 l-88 17 -17 80
c-10 43 -20 85 -22 92 -3 7 6 15 25 18 50 10 76 85 35 101 -22 8 -61 -10 -79
-37 -14 -23 -14 -31 1 -97 9 -39 14 -73 11 -76 -2 -3 -16 0 -30 5 -34 13 -61
55 -55 86 3 14 1 25 -3 25 -18 0 -20 -51 -3 -104 10 -31 16 -58 13 -60 -2 -3
-88 10 -189 29 -102 19 -224 40 -272 46 -73 11 -88 16 -92 33 -6 19 -7 20 -19
4 -12 -15 -25 -15 -187 7 -169 23 -559 65 -601 65 -16 0 -2 21 66 100 l87 100
30 -25 c99 -84 269 -33 203 61 -29 42 -134 69 -188 48 -8 -3 -68 -66 -132
-140 -67 -77 -124 -134 -135 -134 -33 0 -34 116 -1 178 6 12 33 33 59 46 47
24 92 55 81 56 -3 0 -30 -7 -60 -16 -103 -31 -134 -69 -145 -177 -4 -36 -9
-70 -13 -76 -5 -7 -51 -7 -151 -1 -80 5 -162 10 -182 10 -37 0 -38 1 -38 35 0
19 -2 35 -5 35 -3 0 -38 -16 -77 -36 -63 -32 -78 -36 -122 -30 -27 3 -54 10
-60 16 -13 13 -69 13 -82 0 -6 -6 -124 -15 -290 -20 -153 -6 -335 -15 -404
-21 -69 -6 -144 -8 -167 -4 -26 4 -49 1 -62 -7 -17 -11 -26 -7 -70 30 -27 23
-54 42 -60 42 -22 0 -10 -19 31 -52 l42 -33 -84 -12 c-47 -6 -98 -12 -114 -12
l-28 -1 30 34 c17 19 33 48 37 65 14 64 -36 141 -91 141 -21 0 -24 5 -24 39 0
30 6 44 22 55 27 19 33 14 17 -12 -18 -29 -4 -54 28 -50 23 2 29 8 31 35 4 40
-31 68 -72 57 -32 -8 -46 -31 -46 -79 0 -28 -7 -44 -30 -65 -22 -20 -30 -37
-30 -62 0 -41 24 -78 51 -78 29 0 24 -41 -9 -73 -15 -15 -54 -36 -87 -47 -72
-25 -95 -45 -95 -81 0 -66 66 -73 365 -34 209 27 592 61 600 54 2 -3 -13 -68
-34 -145 -36 -131 -41 -161 -22 -149 5 2 26 70 47 149 l39 146 40 4 c22 3 132
8 245 11 l205 6 1 -37 c1 -40 31 -74 65 -74 11 0 51 16 89 35 l69 35 45 -57
45 -57 -25 -22 c-31 -29 -34 -88 -5 -104 32 -16 60 -12 86 15 39 38 32 67 -35
148 l-60 72 38 12 c63 20 77 16 115 -30 34 -42 35 -44 16 -55 -54 -34 -38
-112 22 -112 35 0 79 39 79 71 0 11 -23 50 -50 84 l-50 63 102 -5 c57 -2 110
-7 118 -9 8 -3 68 -7 134 -9 129 -5 146 -13 121 -52 -36 -55 -2 -133 58 -133
32 0 44 -31 28 -74 -17 -42 -13 -93 9 -135 41 -81 76 -56 66 46 -3 38 -7 75
-7 83 -1 8 9 38 21 66 27 62 22 113 -17 152 l-25 25 78 -7 c94 -8 379 -44 411
-51 l23 -5 -32 -65 c-21 -43 -36 -61 -42 -55 -6 6 -31 10 -57 10 -39 0 -51 -5
-68 -26 -12 -15 -21 -32 -21 -39 0 -25 37 -45 83 -45 56 0 67 12 121 134 38
85 39 86 70 81 17 -3 128 -21 246 -40 118 -20 328 -59 465 -87 138 -28 261
-53 275 -55 15 -3 30 -14 35 -26 11 -25 68 -36 90 -17 10 8 84 -7 299 -61 281
-71 286 -72 280 -96 -4 -14 0 -33 10 -48 23 -35 61 -33 96 5 l28 30 129 -37
c113 -32 132 -41 146 -65 15 -27 15 -29 -9 -53 -19 -19 -24 -34 -22 -58 3 -30
6 -32 44 -35 33 -2 48 2 70 21 24 21 28 31 26 70 l-1 45 82 -25 c45 -14 93
-29 107 -33 19 -5 26 -14 28 -41 6 -57 22 -66 122 -71 49 -2 92 -7 95 -10 3
-3 -4 -26 -17 -52 l-22 -46 -58 0 -58 0 0 31 c0 49 -16 69 -55 69 -54 0 -79
-48 -53 -105 14 -31 19 -32 190 -40 l137 -7 37 75 37 75 141 -48 c268 -91 411
-142 421 -151 5 -5 -14 -9 -49 -9 -103 0 -156 -43 -156 -127 0 -21 7 -49 17
-62 16 -23 15 -25 -16 -53 -28 -25 -35 -27 -54 -16 l-22 12 25 6 c43 10 37 69
-7 70 -19 0 -43 -30 -43 -54 0 -28 39 -66 69 -66 12 0 36 15 54 34 26 28 39
35 72 34 30 0 44 6 62 27 24 27 31 79 12 90 -16 11 20 45 47 45 13 0 42 7 64
16 40 16 41 16 161 -27 110 -40 122 -47 134 -76 17 -39 69 -74 200 -133 57
-26 97 -51 101 -62 6 -20 34 -25 34 -7 0 6 -14 36 -31 65 -17 30 -27 54 -22
54 4 0 70 -25 146 -55 242 -96 420 -147 688 -200 122 -25 136 -29 132 -46 -6
-23 -6 -23 43 -6 33 12 51 11 109 0 39 -7 95 -15 125 -16 156 -9 359 -31 354
-39 -9 -14 15 -74 36 -93 15 -14 20 -31 20 -72 0 -47 4 -59 29 -84 31 -31 86
-40 109 -17 16 16 52 -17 51 -46 0 -20 -1 -20 -9 2 -11 25 -45 30 -54 7 -14
-37 26 -65 64 -45 27 14 27 64 0 87 -12 11 -20 30 -20 50 0 48 -32 77 -77 70
-37 -6 -37 -6 -48 57 -4 24 -17 49 -34 65 l-28 26 184 -4 c500 -9 984 62 1349
199 134 50 348 161 434 224 291 214 532 505 682 824 28 59 55 110 62 114 6 4
8 10 4 13 -3 4 3 32 13 63 58 164 109 430 109 562 0 58 0 59 31 62 28 3 33 9
55 67 13 35 24 67 24 72 0 5 -24 9 -53 9 l-54 0 -8 118 c-5 64 -9 145 -10 179
-1 34 -7 68 -12 75 -11 14 -53 187 -53 220 0 11 -6 32 -14 46 -8 15 -33 81
-56 147 -48 137 -165 385 -240 510 l-51 84 3 91 3 92 28 -22 c15 -12 34 -35
43 -52 14 -26 14 -34 -1 -79 -21 -61 -15 -72 14 -26 36 59 29 101 -34 194 -30
46 -55 87 -55 93 0 5 -4 10 -10 10 -6 0 -10 -52 -10 -136 l0 -136 -56 78 c-31
44 -72 98 -91 122 -32 39 -35 47 -28 87 3 25 5 45 3 45 -2 0 -19 -4 -37 -10
-34 -9 -36 -8 -100 58 -35 37 -65 76 -65 87 -1 14 -9 21 -26 23 -30 4 -111 63
-106 77 1 6 16 10 32 10 22 0 30 5 32 21 6 39 -20 47 -82 28 -50 -16 -57 -16
-69 -2 -6 8 -27 21 -46 28 -28 11 -31 15 -19 24 10 8 14 22 10 44 -5 36 -9 38
-39 17 -12 -8 -29 -12 -38 -9 -9 4 -20 2 -24 -4 -4 -7 -27 -1 -66 18 -33 16
-67 30 -75 30 -30 0 -57 30 -70 74 -12 43 -11 47 10 64 27 22 21 52 -9 52 -41
0 -46 -49 -14 -138 6 -15 3 -14 -15 2 -12 11 -22 31 -22 45 -1 23 -2 24 -11 8
-6 -10 -8 -28 -5 -41 l5 -22 -107 27 c-88 23 -106 30 -104 45 3 14 -2 16 -31
11 -20 -3 -40 -1 -46 6 -10 9 -15 8 -25 -5 -9 -13 -22 -15 -52 -11 -36 5 -40
8 -36 28 5 31 -17 43 -35 19 -13 -18 -14 -18 -19 4 -4 12 -11 22 -16 22 -10 0
-8 -17 7 -52 5 -14 2 -18 -14 -18 -12 0 -21 6 -21 15 0 8 -6 15 -14 15 -7 0
-33 -7 -56 -15 -57 -20 -104 -20 -96 0 3 8 9 22 12 30 3 8 2 15 -4 15 -5 0
-15 -13 -21 -29 -12 -27 -17 -29 -104 -41 -51 -7 -132 -22 -182 -35 -76 -19
-116 -33 -234 -82 -9 -4 -12 -2 -8 4 5 7 -6 11 -28 10 -33 -1 -52 -17 -20 -17
20 0 9 -25 -18 -38 -12 -7 -32 -19 -45 -28 -22 -16 -23 -16 -29 5 -7 26 -29
22 -25 -5 2 -10 4 -27 5 -36 1 -10 5 -18 10 -18 4 0 5 -5 2 -10 -3 -6 -18 -7
-33 -3 -23 5 -25 4 -15 -8 9 -12 5 -19 -23 -38 -36 -25 -44 -41 -19 -41 27 0
16 -19 -24 -39 -22 -12 -47 -17 -61 -14 -17 4 -21 2 -18 -8 6 -18 56 -20 90
-3 49 25 53 14 5 -16 -26 -16 -52 -30 -57 -30 -6 0 -10 -7 -10 -15 0 -8 3 -14
8 -14 20 3 32 -2 32 -16 0 -26 19 -16 22 12 2 22 12 31 52 48 37 15 50 17 53
8 7 -19 20 -16 26 6 6 23 82 40 100 22 15 -15 37 -14 37 3 0 27 97 34 224 16
78 -12 89 -17 63 -31 -28 -16 -20 -44 19 -63 33 -15 38 -15 60 -1 30 20 30 21
-6 40 -44 23 -36 36 13 21 138 -45 266 -117 359 -204 67 -63 145 -165 130
-170 -34 -11 -53 -40 -62 -95 -5 -33 -12 -67 -15 -78 -11 -34 12 -20 70 43 44
47 59 58 66 47 23 -36 73 -171 97 -258 22 -85 25 -116 26 -271 0 -175 -9 -231
-36 -229 -10 0 -10 2 -1 6 21 8 15 33 -7 33 -14 0 -20 -7 -20 -21 0 -12 8 -23
20 -26 23 -6 24 -12 8 -65 -10 -34 -15 -39 -35 -33 -25 6 -32 -9 -8 -19 21 -7
19 -28 -7 -80 -21 -45 -22 -45 -76 -48 l-55 -3 -17 -50 c-34 -100 -34 -95 -8
-95 20 -1 17 -6 -27 -45 -27 -25 -55 -45 -61 -45 -6 0 -25 14 -42 31 -25 25
-39 31 -79 33 -27 1 -54 6 -61 10 -7 4 -12 2 -12 -6 0 -7 25 -38 56 -69 l55
-56 -80 -36 c-45 -21 -118 -46 -163 -58 -109 -26 -297 -35 -423 -19 -126 15
-129 16 -110 43 23 33 18 50 -25 92 -22 21 -40 43 -40 47 0 4 16 8 35 8 28 0
38 -5 47 -25 6 -14 15 -25 20 -25 20 0 -4 43 -45 81 -25 22 -42 28 -75 29 -24
0 -52 5 -63 10 -40 22 -19 -16 45 -79 63 -63 63 -63 49 -92 -8 -17 -12 -36 -9
-44 7 -18 4 -18 -59 -2 -42 11 -50 17 -53 39 -2 20 -16 33 -61 57 -33 17 -64
31 -70 31 -6 0 -11 -15 -11 -34 l0 -34 -102 39 c-149 58 -473 218 -703 349
-210 119 -653 367 -670 374 -5 3 23 36 63 73 39 38 72 73 72 78 0 5 -14 49
-31 97 l-32 88 -28 -22 c-15 -13 -57 -50 -94 -82 l-66 -59 -20 21 c-23 26 -80
30 -99 7 -7 -8 -10 -28 -8 -44 l4 -29 -80 40 c-45 22 -82 42 -84 43 -2 2 13
24 32 50 30 38 36 55 36 94 0 26 -8 63 -19 84 l-19 38 24 24 c26 26 31 64 12
83 -7 7 -29 12 -49 12 -30 0 -43 -7 -64 -32 l-27 -32 7 -143 c3 -79 3 -143 -1
-143 -13 0 -139 73 -149 86 -11 15 -242 125 -253 121 -5 -1 -31 9 -59 22 -51
24 -52 24 -35 47 14 19 26 23 68 24 28 0 66 3 84 6 46 10 98 66 106 114 6 38
9 40 41 40 50 0 73 16 73 50 0 37 -32 60 -86 60 -39 0 -46 -5 -179 -140 -76
-76 -141 -144 -145 -150 -4 -6 -104 35 -261 109 -257 120 -565 257 -783 347
l-118 49 4 57 c3 43 1 58 -9 58 -7 0 -13 -10 -13 -22 0 -12 -12 -32 -27 -43
l-26 -22 -118 47 c-64 25 -168 77 -230 115 -109 67 -113 68 -139 53 -26 -15
-40 -11 -351 93 -178 59 -418 135 -533 169 -115 33 -211 62 -213 64 -2 2 1 23
8 47 22 87 21 102 -5 152 -14 26 -26 55 -26 63 0 40 -20 2 -55 -105 l-38 -119
-36 5 c-20 3 -142 29 -272 59 -130 29 -315 68 -412 87 -133 25 -172 35 -160
43 21 13 10 47 -14 42 -10 -2 -19 -13 -21 -26 -7 -44 -17 -21 -14 31 3 46 0
55 -23 77 -34 32 -112 35 -144 6 -26 -24 -28 -80 -3 -96 19 -12 15 -12 -170
11 l-96 13 34 44 c18 24 31 49 27 55 -6 10 -28 -10 -69 -67 l-20 -28 -94 11
c-80 10 -98 16 -127 41 -18 16 -44 32 -57 36 -22 5 -23 9 -15 36 11 39 -8 82
-37 86 -56 8 -103 -83 -69 -134 9 -14 15 -28 13 -30 -3 -2 -88 1 -189 8 l-185
12 4 56 c8 111 -60 176 -119 114z m302 -360 c48 -24 50 -26 32 -39 -31 -22
-131 -47 -161 -40 -16 3 -51 28 -77 55 l-49 50 102 0 c90 0 109 -3 153 -26z
m8419 -394 c0 -11 7 -20 15 -20 7 0 18 -8 24 -17 5 -10 13 -15 16 -11 4 4 -3
21 -15 37 l-21 31 41 0 c51 0 60 -19 25 -54 -22 -22 -35 -26 -86 -26 -50 0
-59 3 -57 16 4 24 -22 30 -28 7 -6 -22 -49 -28 -89 -13 -18 7 -33 7 -46 0 -10
-6 -19 -7 -19 -2 0 11 -48 3 -56 -9 -10 -17 -29 -9 -41 16 -6 14 -7 22 -2 19
6 -3 15 -1 22 4 15 13 166 34 285 40 26 2 32 -2 32 -18z m383 -21 c83 -17 107
-25 103 -36 -5 -11 2 -12 27 -8 48 9 220 -54 227 -84 5 -22 157 -117 169 -105
6 6 -10 19 -59 46 -36 20 -33 45 3 27 51 -26 221 -144 263 -183 l47 -42 -27
-53 c-15 -29 -25 -55 -23 -57 6 -6 79 35 93 53 9 11 20 4 58 -38 33 -36 44
-55 36 -63 -14 -14 -13 -53 3 -59 7 -3 25 -3 40 0 31 6 31 7 149 -156 l76
-105 -29 -18 c-33 -20 -47 -61 -28 -84 13 -16 60 -16 100 0 12 6 30 -21 82
-121 107 -210 208 -470 184 -478 -16 -5 -188 -25 -214 -25 -12 0 -24 7 -27 16
-5 14 -4 15 8 5 25 -21 37 -2 35 53 -1 32 4 63 14 83 10 18 17 43 17 56 0 37
-35 75 -73 79 -25 2 -33 8 -35 27 -2 13 0 27 5 32 6 6 9 1 9 -13 -1 -17 5 -23
19 -23 15 0 20 7 20 25 0 22 -4 25 -35 25 -35 0 -35 0 -36 -45 -3 -107 -11
-101 -99 77 -46 93 -106 204 -134 248 -28 43 -51 85 -51 92 0 6 -8 18 -18 25
-10 7 -29 29 -42 48 -13 19 -42 57 -64 83 -30 37 -37 50 -27 56 7 5 22 6 32 4
11 -3 21 1 25 11 3 9 16 16 29 16 25 0 58 30 34 31 -8 0 -33 2 -56 5 -34 3
-45 0 -55 -15 -6 -10 -18 -17 -25 -14 -7 3 -13 0 -13 -6 0 -7 -59 48 -130 121
-77 78 -126 136 -121 141 5 5 18 4 30 -3 35 -18 85 -9 89 16 3 24 -12 40 -49
49 -21 5 -34 0 -62 -24 -22 -20 -41 -29 -51 -25 -22 8 -20 21 4 29 11 3 20 11
20 17 0 5 -6 8 -12 5 -47 -17 -56 -16 -93 11 -37 27 -39 30 -36 76 3 56 -17
61 -34 9 l-10 -30 -60 33 c-62 35 -158 72 -258 100 -42 11 -56 19 -48 27 7 7
2 16 -19 29 -30 18 -41 48 -17 48 6 0 61 -10 120 -21z m-473 -94 c7 -8 16 -15
21 -15 5 0 6 7 3 15 -4 10 0 15 15 15 14 0 23 -8 27 -25 7 -30 30 -32 52 -5
23 28 82 18 82 -14 0 -17 -2 -18 -10 -6 -8 12 -10 10 -10 -9 0 -14 7 -32 16
-42 14 -16 12 -16 -28 -9 -24 5 -65 12 -91 15 -43 6 -47 8 -42 28 l6 22 -18
-23 c-17 -20 -24 -22 -82 -16 -51 6 -65 11 -69 26 -6 23 -38 19 -36 -4 1 -11
-11 -17 -45 -21 -41 -5 -48 -3 -68 20 -27 33 -22 43 24 43 33 0 35 -2 29 -25
-8 -33 7 -32 34 3 22 28 56 38 136 41 26 0 46 -5 54 -14z m375 -45 c22 -11 46
-18 55 -15 33 10 266 -90 275 -118 2 -7 6 -24 9 -39 4 -19 13 -28 26 -28 11 0
20 -4 20 -10 0 -5 -10 -9 -22 -7 -17 1 -23 -3 -23 -18 0 -15 7 -20 25 -20 20
0 26 6 28 27 4 33 23 41 51 22 18 -13 20 -21 14 -62 -3 -26 -10 -52 -14 -58
-5 -6 -6 -14 -2 -18 4 -3 24 10 45 31 28 27 38 33 38 20 0 -10 8 -17 18 -17
10 0 29 -11 43 -26 14 -15 17 -23 8 -19 -9 3 -45 -5 -81 -18 l-65 -25 -63 65
c-55 56 -214 173 -244 180 -6 1 -50 17 -98 35 -81 30 -88 35 -88 61 0 15 -4
27 -10 27 -5 0 -10 11 -10 25 0 30 13 31 65 5z m61 -192 c42 -21 45 -25 40
-51 -6 -28 -5 -29 28 -25 25 3 37 -1 45 -14 9 -14 8 -18 -3 -18 -8 0 -18 -10
-22 -22 -12 -38 -26 -38 -69 0 -22 21 -55 49 -73 63 -29 22 -31 27 -18 38 9 8
16 22 16 32 0 24 0 24 56 -3z m210 -131 c47 -43 48 -44 34 -76 -11 -27 -17
-31 -36 -27 -24 6 -58 -18 -51 -38 2 -6 18 -12 35 -14 29 -3 34 1 54 42 12 25
25 46 29 46 12 0 109 -113 109 -127 0 -7 4 -13 9 -13 12 0 91 -125 91 -145 0
-8 4 -15 9 -15 10 0 27 -41 36 -87 4 -18 15 -39 24 -45 24 -17 33 -36 75 -156
20 -57 36 -122 36 -145 0 -40 0 -40 -21 -21 -33 30 -40 49 -28 84 15 42 4 50
-15 11 -24 -45 -20 -64 24 -122 22 -30 40 -57 40 -61 0 -5 4 -8 9 -8 6 0 11
17 13 38 2 30 7 20 22 -56 l19 -93 -32 -33 c-24 -25 -31 -41 -31 -73 0 -34 6
-46 32 -68 27 -23 30 -30 22 -52 -13 -38 -32 -40 -26 -3 4 27 1 30 -21 30 -42
0 -46 -49 -5 -71 28 -15 57 -2 73 34 14 30 15 22 10 -103 -6 -163 -13 -210
-31 -210 -17 0 -19 -27 -2 -32 17 -6 -34 -172 -79 -260 -29 -57 -38 -68 -41
-50 -6 38 -22 24 -22 -20 0 -36 -10 -57 -56 -126 -31 -46 -90 -119 -131 -162
-68 -72 -76 -78 -99 -70 -54 21 -107 -25 -74 -65 17 -20 10 -27 -84 -90 -71
-47 -260 -145 -280 -145 -3 0 -6 8 -6 18 0 26 -21 50 -51 57 -22 6 -28 1 -43
-33 -16 -35 -22 -40 -49 -38 -26 1 -36 -6 -55 -35 -22 -34 -29 -38 -95 -47
-40 -6 -108 -14 -153 -18 -78 -6 -81 -6 -87 16 -8 29 1 50 22 50 9 0 33 9 54
20 20 11 49 20 64 20 16 0 64 11 108 25 44 14 93 25 108 25 58 0 18 24 -113
66 -74 24 -151 48 -170 54 l-35 9 0 75 0 75 68 3 68 3 44 -52 c43 -50 44 -53
25 -63 -26 -14 -26 -56 0 -70 12 -6 35 -10 53 -8 27 3 44 19 124 123 52 66 92
127 90 135 -1 9 12 21 33 31 l35 15 10 -30 c6 -17 20 -36 33 -42 34 -17 35
-19 13 -60 -24 -44 -26 -67 -10 -113 22 -61 59 -27 59 54 0 36 6 54 25 77 45
53 45 112 0 151 l-23 21 46 32 c117 79 230 208 301 347 22 42 43 72 46 67 3
-6 22 -10 40 -10 32 0 41 9 128 118 109 138 112 142 95 142 -7 0 -46 -43 -87
-95 -73 -94 -84 -104 -96 -85 -3 6 -19 10 -35 10 l-29 0 14 40 c23 65 44 190
51 307 6 85 11 114 27 135 17 22 18 30 7 43 -7 8 -18 15 -25 15 -13 0 -27 100
-29 208 -1 48 -5 67 -18 76 -12 9 -18 27 -18 51 0 21 -6 46 -14 54 -7 9 -18
30 -24 48 l-11 32 62 -30 c57 -28 62 -34 62 -62 0 -27 4 -32 25 -32 20 0 26 6
28 27 3 25 -4 31 -86 72 -49 25 -92 42 -96 39 -3 -4 -6 0 -6 7 0 7 -21 56 -46
109 -62 130 -66 145 -43 159 11 7 19 19 19 27 0 21 -37 19 -50 -2 -10 -17 -12
-16 -28 7 -9 14 -38 53 -64 87 -41 55 -45 63 -27 63 12 0 19 5 16 13 -2 6 -16
12 -30 12 -15 -1 -27 3 -27 7 0 4 13 8 30 8 33 0 52 25 43 58 -8 33 10 27 63
-21z m488 -222 c-32 -23 -13 -56 55 -92 39 -20 74 -48 88 -68 l24 -35 -27 10
c-36 14 -42 5 -10 -14 14 -9 36 -22 49 -30 12 -7 33 -33 46 -56 l24 -43 -47 7
c-50 8 -58 0 -26 -29 19 -17 57 -14 46 3 -3 5 6 7 20 4 22 -4 38 -30 109 -176
74 -150 150 -348 169 -442 l7 -32 -45 5 c-43 5 -48 3 -163 -80 -65 -47 -122
-82 -126 -78 -12 12 12 104 35 128 11 12 42 27 69 33 55 13 74 30 34 30 -44 0
-113 -21 -130 -40 -9 -10 -24 -40 -35 -66 l-18 -49 -5 45 c-24 201 -25 245 -6
269 23 29 35 89 21 103 -8 8 -18 6 -35 -5 l-25 -16 -15 59 c-13 53 -13 60 0
60 21 0 73 55 73 78 0 11 7 22 15 26 17 6 20 42 4 51 -26 17 -56 -6 -84 -66
l-30 -61 -14 46 c-13 41 -13 47 2 64 20 22 22 52 5 52 -9 0 -10 3 -2 8 12 8
25 99 17 120 -3 6 -13 12 -24 12 -16 0 -18 5 -13 43 4 30 1 48 -10 62 -14 17
-17 18 -26 5 -6 -8 -8 -31 -4 -51 3 -22 1 -40 -5 -44 -17 -10 -13 -60 7 -77 9
-9 26 -18 36 -19 11 -2 21 -10 22 -17 1 -7 0 -8 -3 -2 -9 18 -32 10 -35 -12
-4 -22 -5 -21 -18 7 -7 17 -30 67 -51 113 -21 45 -36 89 -32 97 3 9 -1 15 -9
15 -20 0 -42 40 -29 53 14 14 14 50 0 64 -8 8 -5 17 10 32 19 19 30 81 14 81
-14 0 -43 -34 -43 -50 0 -9 -11 -22 -24 -28 -23 -10 -28 -7 -66 44 l-41 54 29
0 c16 0 35 7 42 15 8 9 21 13 37 9 20 -5 25 -2 30 17 6 21 12 17 80 -55 63
-68 71 -81 57 -91z m-585 0 c27 -39 69 -111 93 -160 44 -87 45 -91 30 -122
-11 -24 -22 -32 -48 -35 -20 -2 -34 1 -34 7 0 8 -50 133 -77 193 -3 6 2 12 10
12 20 0 39 24 31 43 -7 19 -59 41 -79 33 -8 -3 -15 -2 -15 3 0 5 -20 36 -45
70 -27 37 -40 61 -31 61 8 0 16 -7 20 -15 8 -23 47 -19 53 6 6 21 6 21 25 -2
10 -13 41 -56 67 -94z m186 -375 c29 -88 75 -283 75 -323 l0 -27 -62 32 c-82
43 -78 41 -78 29 0 -6 28 -25 63 -42 58 -29 63 -34 59 -60 -3 -20 1 -31 12
-35 13 -5 16 -22 15 -103 -1 -78 -3 -88 -9 -51 -4 25 -5 48 -3 53 6 10 -16 77
-25 77 -13 0 -8 -158 6 -171 6 -7 12 -29 12 -49 0 -32 -4 -37 -35 -49 -35 -12
-51 -40 -43 -78 2 -13 12 -18 36 -18 17 0 32 -3 32 -7 0 -4 -15 -50 -34 -102
-43 -121 -124 -259 -146 -250 -55 25 -75 18 -189 -66 -126 -91 -141 -99 -141
-75 0 37 23 105 42 122 11 10 45 26 76 35 l57 16 -53 1 c-97 2 -125 -29 -177
-189 -10 -30 -24 -63 -32 -72 -8 -9 -12 -21 -9 -27 4 -6 72 37 157 100 83 61
152 109 153 107 0 -2 11 -15 24 -29 l23 -26 -63 -50 c-117 -92 -219 -144 -356
-182 l-71 -19 10 22 c8 17 1 42 -41 130 l-50 109 -47 -7 c-25 -3 -61 -6 -80
-6 l-33 0 40 -80 c22 -44 40 -82 40 -85 0 -3 -11 -5 -25 -5 -33 0 -59 -41 -51
-80 l6 -30 -100 0 c-75 0 -100 3 -100 13 0 7 -18 31 -40 52 -22 21 -40 43 -40
47 0 4 16 8 35 8 27 0 37 -6 49 -27 13 -24 15 -25 16 -8 0 11 -18 37 -40 58
-33 33 -46 39 -83 39 -66 0 -72 7 -42 60 l25 46 96 1 95 2 -36 -71 c-19 -38
-32 -70 -28 -70 23 0 82 22 92 34 14 16 4 46 -15 46 -19 0 -18 14 4 38 13 16
42 25 117 38 55 9 142 32 195 51 52 19 109 37 125 40 17 3 39 15 50 28 11 12
40 35 65 50 25 15 82 65 128 111 46 46 85 84 87 84 3 0 5 -11 5 -24 0 -45 50
-72 78 -44 7 7 12 26 12 43 0 38 -16 55 -52 55 -30 0 -34 6 -18 30 9 13 12 13
21 -2 12 -22 52 -23 68 -4 19 23 9 79 -16 91 l-22 11 19 42 c11 23 24 41 31
40 6 -2 14 3 16 10 3 6 0 12 -6 12 -10 0 -9 30 4 93 14 67 14 67 53 61 45 -7
88 18 62 36 -8 6 -28 8 -45 5 -16 -2 -34 -1 -40 3 -6 4 -9 47 -7 105 3 95 4
97 28 97 32 0 30 15 -5 36 -24 14 -29 25 -34 73 -4 31 -9 70 -13 87 -5 26 -2
32 15 37 11 3 30 25 43 51 25 53 27 52 63 -54z m-3590 -220 c410 -207 556
-285 970 -515 121 -68 263 -144 315 -170 l95 -47 -3 -39 c-4 -36 0 -43 104
-151 59 -62 111 -114 116 -116 11 -5 10 25 -1 32 -4 3 -11 37 -15 75 -8 79
-34 117 -86 127 -16 4 -30 11 -30 16 0 6 6 8 13 5 6 -3 64 -28 127 -55 63 -27
151 -62 195 -77 83 -29 115 -46 71 -38 -34 7 -56 -12 -56 -48 0 -22 6 -32 25
-39 46 -18 85 10 85 61 0 16 5 19 20 15 11 -3 29 -9 40 -12 28 -8 25 -24 -4
-24 -13 0 -31 -3 -40 -6 -23 -9 -20 -60 4 -77 20 -14 20 -14 1 -31 -19 -17
-21 -17 -51 5 -24 18 -35 21 -48 13 -38 -24 -17 -104 29 -104 9 0 41 20 71 44
29 25 56 42 60 38 4 -4 10 -21 14 -37 4 -25 0 -35 -26 -60 -29 -27 -32 -28
-41 -12 -11 19 -68 24 -86 6 -13 -13 -247 54 -275 79 -10 8 -39 18 -65 23 -27
4 -86 22 -133 40 l-85 33 48 15 c26 8 47 19 47 24 0 10 -15 8 -90 -13 -40 -11
-50 -10 -93 10 -41 18 -46 24 -37 40 14 27 12 80 -4 112 -13 24 -12 28 5 44
12 11 19 28 17 43 -3 22 -9 26 -39 29 -52 4 -66 -17 -76 -120 l-8 -88 -110 53
-110 54 40 13 c44 14 62 26 52 36 -3 3 -34 -3 -67 -15 l-62 -20 -156 79 -157
79 53 0 c59 1 122 28 146 63 46 65 -4 158 -83 158 -42 0 -81 -26 -81 -53 0
-28 26 -49 55 -45 36 4 45 31 19 59 -16 18 -16 19 9 19 17 0 32 -9 42 -24 15
-22 15 -28 2 -53 -28 -53 -69 -79 -151 -94 -53 -9 -55 -9 -177 50 l-124 59 67
1 68 1 40 80 c22 44 40 84 40 89 0 5 -56 12 -125 16 -119 7 -125 8 -119 27 3
11 0 33 -6 49 -26 62 -110 41 -110 -27 0 -66 9 -72 120 -79 55 -4 100 -9 100
-12 0 -2 -12 -26 -26 -54 -21 -43 -29 -50 -47 -45 -12 3 -37 6 -54 6 -29 0
-33 3 -33 28 0 70 -74 100 -108 43 l-17 -28 -199 88 c-132 60 -207 99 -226
119 -22 24 -36 30 -69 30 -55 0 -261 86 -261 109 0 9 15 69 33 133 26 94 36
115 45 106 8 -8 37 -12 71 -12 65 1 125 30 136 65 5 15 12 18 28 13 12 -3 207
-99 432 -214z m444 86 c15 -61 16 -59 -30 -95 l-40 -33 -23 21 c-12 12 -35 21
-52 21 -28 1 -26 4 46 69 41 38 78 67 81 65 4 -2 12 -24 18 -48z m-3447 -317
l57 -12 -77 -87 -77 -88 -12 26 c-28 62 -3 189 34 178 10 -2 44 -10 75 -17z
m7421 -253 c34 -31 96 -54 116 -42 5 3 12 -11 16 -32 10 -52 14 -242 5 -242
-4 0 -22 16 -39 35 -21 25 -32 50 -37 85 -10 77 -28 62 -22 -20 3 -42 12 -80
23 -97 12 -18 14 -28 7 -31 -15 -5 -16 -42 -2 -42 6 0 14 10 19 22 5 14 10 17
15 10 4 -7 16 -12 27 -12 10 0 19 -4 19 -9 0 -5 -9 -7 -21 -4 -17 5 -20 2 -17
-13 2 -11 11 -18 21 -16 13 2 17 -4 17 -28 0 -68 -22 -176 -42 -203 -14 -20
-18 -39 -15 -60 9 -62 -85 -275 -185 -419 -29 -42 -87 -116 -128 -164 -95
-110 -284 -280 -288 -259 -2 8 4 22 12 31 9 8 16 31 16 50 0 28 -6 38 -30 52
-33 19 -37 37 -15 66 27 35 15 146 -16 146 -16 0 -41 -71 -36 -104 3 -24 -2
-39 -24 -64 -55 -62 -28 -162 43 -162 23 0 28 -4 28 -25 0 -22 -2 -24 -19 -14
-28 18 -54 4 -48 -27 4 -23 -3 -31 -64 -70 l-69 -45 -69 56 c-66 52 -91 65
-91 47 0 -4 29 -30 65 -57 36 -27 65 -52 65 -57 0 -4 -50 -32 -111 -62 l-110
-53 -37 19 c-20 10 -48 17 -62 14 -14 -2 -64 7 -112 21 -77 23 -86 28 -77 44
21 40 2 131 -31 149 -47 25 -80 -2 -80 -66 0 -82 16 -97 135 -134 101 -32 117
-41 95 -55 -5 -3 -10 -17 -10 -30 0 -28 -30 -41 -60 -25 -26 14 -25 16 8 15
20 0 27 5 27 20 0 26 -46 33 -65 10 -12 -14 -15 -14 -31 1 -35 31 -33 4 1 -31
18 -19 32 -36 29 -38 -7 -7 -138 -37 -159 -37 -13 0 -20 7 -20 20 0 29 -27 25
-47 -8 -9 -15 -18 -28 -19 -30 -5 -8 -247 -31 -321 -32 l-83 0 22 25 c17 20
31 25 70 25 36 0 48 4 48 15 0 8 7 15 16 15 8 0 54 35 100 78 47 42 89 79 94
80 6 2 10 -16 10 -40 0 -47 20 -85 38 -74 6 4 17 25 23 46 7 22 18 40 25 40
22 0 36 37 24 60 -7 14 -8 26 0 39 5 11 10 37 10 58 0 48 -29 83 -69 83 -23 0
-30 5 -34 27 -5 28 0 53 12 53 4 0 7 -10 7 -23 -1 -17 5 -22 24 -22 20 0 25 5
25 25 0 52 49 54 104 5 l40 -36 71 36 72 36 -33 29 -34 28 45 18 c25 10 73 33
108 51 72 38 72 38 72 16 0 -10 18 -36 41 -59 39 -39 40 -42 20 -49 -29 -9
-59 2 -66 26 -4 10 -11 19 -16 19 -16 0 -10 -17 16 -48 l24 -29 -76 -55 c-74
-53 -77 -54 -95 -36 -37 37 -92 12 -68 -32 19 -35 57 -34 111 5 l49 35 0 -35
c0 -31 -5 -38 -32 -50 -31 -13 -31 -14 -8 -14 14 0 43 15 65 34 30 26 42 45
50 82 8 34 15 47 26 44 24 -7 134 -18 138 -14 3 2 -26 35 -64 73 -57 57 -66
71 -56 84 7 8 11 30 9 48 -3 30 2 37 56 77 87 64 220 195 292 287 35 45 71 84
79 88 8 3 15 13 15 23 0 13 3 14 12 5 19 -19 70 -14 95 10 40 38 28 118 -19
118 -16 0 -15 6 10 58 16 31 35 74 41 95 7 20 16 37 21 37 4 0 17 -22 29 -50
12 -27 26 -50 31 -50 16 0 12 17 -20 80 -34 66 -34 70 -19 123 9 32 12 36 29
27 30 -16 82 -12 119 11 31 19 34 19 52 3 29 -26 69 -11 69 25 0 16 -8 39 -19
52 -18 23 -19 23 -122 12 -57 -7 -104 -11 -104 -10 -1 1 1 27 3 57 l4 55 127
92 c69 51 126 92 127 93 1 0 17 -15 37 -34z m-2292 -527 c34 -7 71 -21 81 -31
12 -12 26 -17 36 -12 9 3 28 9 41 12 21 4 22 2 16 -19 -10 -34 -53 -99 -70
-106 -17 -6 -20 -23 -4 -23 6 0 22 8 35 19 l24 19 69 -71 c90 -93 85 -102 -49
-93 -52 3 -144 16 -203 29 l-109 22 61 49 c34 27 61 51 61 54 0 2 -9 35 -21
73 -18 60 -24 69 -40 64 -15 -5 -19 -1 -19 15 0 15 5 20 14 17 8 -3 42 -11 77
-18z m-635 -241 c-6 -4 -35 -8 -63 -8 -29 0 -53 -4 -53 -9 0 -16 116 -24 155
-11 28 9 39 9 50 0 8 -7 20 -10 27 -7 7 2 33 -2 58 -10 115 -34 337 -86 462
-108 99 -16 145 -29 164 -44 31 -25 90 -27 118 -6 23 17 56 20 56 5 0 -13 43
-13 55 -1 6 6 10 -10 10 -44 0 -76 16 -88 179 -142 75 -24 134 -49 131 -54 -8
-13 -81 -49 -98 -49 -10 0 -13 8 -9 25 5 28 -14 33 -50 14 -16 -9 -26 -7 -49
10 -39 29 -44 26 -19 -9 29 -40 14 -70 -35 -70 -18 0 -45 -4 -59 -10 -18 -7
-33 -5 -53 5 -15 8 -34 15 -40 15 -7 0 -43 -26 -80 -57 -73 -62 -71 -57 36 81
61 78 72 114 24 76 -14 -11 -36 -20 -49 -20 -63 0 -121 -46 -130 -102 -5 -31
-11 -38 -30 -38 -12 0 -29 -7 -37 -15 -14 -13 -26 -13 -107 4 -62 13 -99 26
-115 41 -19 18 -32 21 -67 17 -57 -6 -195 29 -208 54 -12 21 -10 22 53 39 26
7 47 17 47 21 0 14 -17 11 -109 -17 -74 -23 -90 -24 -124 -14 l-39 11 20 22
c41 44 50 116 20 154 -6 8 -2 21 12 41 31 42 20 72 -26 72 -63 0 -74 -23 -74
-154 l0 -114 -50 16 -50 16 -81 155 c-47 90 -76 157 -69 159 44 15 100 101 87
135 -3 8 41 -4 108 -28 63 -22 108 -43 101 -47z"/>
<path d="M10316 3384 c-11 -10 -16 -34 -16 -70 0 -57 -8 -65 -35 -37 -12 11
-15 26 -12 50 6 37 -10 46 -18 11 -6 -28 0 -107 9 -130 4 -9 19 -24 32 -33 13
-8 24 -22 24 -30 0 -8 5 -15 10 -15 6 0 10 40 10 100 0 98 0 100 23 100 29 0
62 34 54 55 -8 20 -61 20 -81 -1z"/>
<path d="M10796 4348 c-35 -50 -24 -70 100 -180 122 -109 134 -118 133 -96 0
7 -42 49 -94 92 -80 68 -91 81 -79 93 17 18 18 85 2 101 -19 19 -45 14 -62
-10z"/>
<path d="M6302 4398 c-27 -27 -8 -78 30 -78 19 0 42 35 33 50 -9 14 9 12 23
-2 17 -17 15 -53 -5 -70 -48 -41 -136 -24 -215 42 -27 23 -52 40 -55 37 -8 -9
33 -62 84 -106 84 -75 183 -78 217 -7 22 46 20 67 -7 107 -17 26 -31 35 -57
37 -19 2 -41 -3 -48 -10z"/>
<path d="M10907 3392 c-15 -15 -27 -34 -27 -40 0 -7 -24 -23 -54 -36 -61 -27
-76 -47 -76 -105 0 -30 6 -44 24 -59 22 -16 23 -22 12 -43 -6 -13 -20 -25 -31
-27 -20 -4 -20 -4 -1 11 25 19 14 47 -19 47 -21 0 -25 -5 -25 -29 0 -63 63
-69 95 -9 11 21 28 38 37 38 41 0 65 71 34 102 -16 16 -4 48 18 48 24 0 76 68
76 100 0 39 -27 40 -63 2z"/>
<path d="M10827 3022 c-12 -13 -17 -37 -17 -77 0 -57 0 -57 -22 -42 -17 11
-23 24 -23 51 0 60 -20 34 -23 -31 -3 -57 -1 -63 35 -106 21 -25 41 -46 46
-46 4 -1 7 44 7 99 0 98 0 100 23 100 30 0 60 32 51 54 -8 22 -57 21 -77 -2z"/>
<path d="M10440 2820 c0 -5 43 -44 95 -85 82 -66 94 -79 85 -95 -5 -10 -10
-35 -10 -55 0 -29 5 -38 26 -47 23 -11 29 -10 45 11 19 23 25 67 11 87 -8 13
-239 194 -247 194 -3 0 -5 -4 -5 -10z"/>
<path d="M8230 2968 c0 -12 19 -39 45 -65 30 -29 45 -51 45 -68 0 -85 99 -134
156 -78 13 13 19 14 40 3 14 -8 24 -22 24 -34 -1 -19 -2 -19 -11 -3 -5 9 -19
17 -30 17 -31 0 -22 -54 9 -58 57 -8 73 64 22 95 -18 10 -30 26 -30 38 0 12
-11 32 -24 45 -25 22 -45 23 -88 5 -14 -6 -22 2 -38 39 -29 68 -120 117 -120
64z"/>
<path d="M8607 2853 c-4 -3 -7 -19 -7 -34 0 -36 28 -54 95 -64 l50 -7 -29 -25
c-18 -15 -35 -22 -45 -18 -9 4 -22 9 -28 12 -7 3 -13 0 -13 -5 0 -12 17 -18
83 -27 42 -6 54 -3 88 19 21 14 43 26 49 26 25 0 7 20 -22 24 -18 3 -60 10
-92 16 -33 5 -61 10 -63 10 -2 0 -3 9 -3 21 0 44 -39 76 -63 52z"/>
<path d="M3607 6403 c-15 -15 -5 -83 18 -128 24 -44 25 -51 14 -100 -14 -63
-8 -93 27 -134 30 -36 83 -49 122 -31 24 10 29 9 49 -15 24 -27 30 -59 14 -69
-5 -3 -12 5 -15 18 -11 46 -66 43 -66 -3 0 -34 17 -51 50 -51 59 0 78 69 36
125 -17 22 -22 36 -15 46 31 49 -15 123 -74 118 -48 -4 -57 6 -57 68 0 62 -21
114 -58 143 -27 21 -35 24 -45 13z"/>
<path d="M5283 6358 c-12 -6 -27 -23 -33 -39 -12 -29 -2 -56 54 -141 l18 -28
-40 0 c-43 0 -72 25 -72 62 0 10 -4 18 -10 18 -20 0 -9 -48 19 -86 53 -71 67
-82 115 -89 25 -4 51 -13 57 -21 14 -17 29 -18 29 -3 0 5 -29 55 -65 111 l-65
101 25 23 c29 27 35 88 9 98 -9 3 -16 6 -17 5 -1 0 -12 -5 -24 -11z"/>
<path d="M5636 6274 c-31 -31 -13 -74 31 -74 18 0 23 6 23 25 0 32 17 32 31 1
25 -54 -41 -91 -118 -65 -21 6 -64 37 -95 67 -70 66 -76 49 -14 -35 73 -100
169 -131 227 -74 23 23 29 38 29 71 0 71 -73 125 -114 84z"/>
<path d="M3989 6181 c-22 -23 -29 -39 -29 -69 0 -38 22 -72 48 -72 14 0 52 36
52 49 0 12 -29 41 -40 41 -5 0 -16 -7 -24 -16 -15 -14 -16 -14 -16 1 0 55 59
74 98 32 41 -44 66 -130 40 -140 -10 -4 -10 -7 0 -15 10 -6 11 -19 3 -51 -11
-52 7 -52 24 0 14 39 21 40 138 14 l72 -16 0 -38 c0 -45 19 -71 50 -71 25 0
35 17 35 60 0 35 -20 56 -62 65 -18 4 -50 11 -72 17 l-38 9 28 30 c32 33 50
36 82 13 27 -19 43 -10 21 12 -9 8 -46 19 -83 25 -59 10 -71 8 -106 -9 l-40
-19 0 39 c0 84 -44 138 -113 138 -29 0 -46 -7 -68 -29z"/>
<path d="M4886 6120 c-32 -10 -76 -47 -76 -64 0 -19 -125 -326 -132 -326 -12
0 -56 92 -63 132 -8 43 2 64 63 136 50 58 46 65 -13 24 -91 -63 -102 -119 -60
-298 14 -58 24 -119 22 -136 -6 -75 25 -23 101 174 95 245 96 246 114 231 39
-32 142 -22 184 18 32 30 32 73 -1 95 -30 20 -99 27 -139 14z"/>
<path d="M5496 5933 c-3 -21 -11 -96 -17 -168 l-12 -130 -43 0 c-54 -1 -84
-26 -84 -71 0 -45 28 -61 80 -45 21 6 43 18 50 25 9 11 48 335 50 414 0 29
-19 9 -24 -25z"/>
<path d="M2045 5860 c-99 -53 -111 -57 -117 -41 -15 43 -89 68 -102 35 -10
-27 -7 -43 14 -64 28 -28 71 -25 140 10 l60 30 0 -30 c0 -36 -38 -80 -70 -80
-11 0 -20 -5 -20 -11 0 -17 54 -3 107 27 45 27 83 75 83 105 0 9 9 28 20 41
17 22 18 39 1 37 -3 0 -55 -27 -116 -59z"/>
<path d="M903 5785 c-12 -8 -23 -28 -25 -43 -4 -32 -35 -41 -70 -18 -52 33
-157 28 -188 -10 -11 -12 -10 -18 4 -32 13 -13 36 -17 97 -18 65 -1 84 -6 102
-22 50 -45 113 -55 168 -26 34 17 63 75 54 104 -5 15 1 21 31 29 41 11 74 0
74 -24 0 -12 -4 -13 -19 -3 -15 9 -23 9 -35 -1 -41 -34 4 -86 50 -56 34 22 34
78 -1 101 -21 14 -32 15 -67 6 -37 -10 -45 -9 -63 8 -26 24 -82 26 -112 5z"/>
<path d="M5770 5780 c0 -5 6 -10 13 -10 6 0 77 -7 157 -15 80 -8 147 -15 151
-15 3 0 5 -16 5 -35 0 -66 69 -119 110 -84 24 20 17 75 -13 108 -27 28 -31 29
-208 45 -211 19 -215 19 -215 6z"/>
<path d="M1290 5751 c0 -10 24 -16 210 -52 l115 -22 -3 -41 c-5 -56 26 -96 73
-96 37 0 45 12 45 66 0 64 -24 76 -230 117 -201 40 -210 41 -210 28z"/>
<path d="M4836 5738 c-23 -32 -20 -53 14 -91 25 -28 28 -40 23 -70 -5 -31 -1
-40 26 -68 27 -26 37 -30 63 -25 40 8 58 -8 58 -51 0 -66 58 -153 102 -153 29
0 23 65 -9 119 -24 39 -28 57 -28 119 0 72 -1 74 -37 108 -42 38 -96 46 -135
19 -18 -13 -22 -13 -35 3 -23 25 -36 55 -31 70 7 20 21 14 25 -10 4 -28 45
-32 62 -5 17 26 -4 51 -47 55 -27 2 -39 -2 -51 -20z"/>
<path d="M5865 5610 c-10 -31 3 -74 34 -117 25 -34 27 -45 23 -99 -5 -74 13
-114 62 -138 42 -20 63 -20 101 0 29 15 30 14 52 -13 24 -29 30 -58 14 -67 -5
-3 -12 6 -15 20 -5 20 -12 25 -34 22 -53 -6 -37 -78 18 -78 59 0 79 66 35 118
-18 22 -25 42 -25 74 0 62 -33 93 -89 85 -50 -6 -57 2 -63 77 -4 54 -9 63 -46
98 -47 43 -58 46 -67 18z"/>
<path d="M2790 5549 c-13 -6 -32 -17 -41 -25 -14 -13 -24 -13 -56 -5 -83 24
-150 5 -178 -49 -17 -33 -20 -83 -5 -109 7 -14 3 -22 -20 -39 -34 -26 -53 -28
-69 -8 -10 12 -7 15 16 18 33 4 43 37 18 58 -12 10 -21 10 -40 2 -20 -9 -25
-19 -25 -46 0 -65 62 -88 117 -42 20 17 34 21 48 15 39 -15 67 -9 97 21 26 26
29 36 24 64 -8 40 7 50 69 47 22 -1 54 3 70 9 39 15 85 59 85 82 0 15 -8 18
-42 17 -24 0 -54 -5 -68 -10z"/>
<path d="M5437 5263 c-13 -12 -7 -81 7 -96 8 -8 43 -20 78 -27 81 -17 83 -18
61 -42 -32 -35 -51 -40 -85 -24 -37 19 -38 19 -38 6 0 -14 38 -32 76 -35 18
-2 42 -6 53 -10 22 -7 103 25 115 44 4 6 18 11 32 11 75 0 -26 35 -188 65 -35
7 -38 10 -38 42 0 19 -5 43 -10 54 -10 18 -50 26 -63 12z"/>
<path d="M1277 5193 c-14 -14 -6 -88 14 -129 19 -41 19 -45 4 -98 -20 -69 -9
-112 38 -152 28 -23 37 -26 85 -21 52 6 53 5 69 -28 16 -34 13 -65 -8 -65 -6
0 -9 6 -6 13 14 39 -43 64 -63 27 -25 -46 37 -87 85 -56 31 21 33 66 5 107
-16 22 -19 33 -10 48 18 35 11 71 -20 103 -24 24 -35 28 -59 23 -36 -8 -44 9
-41 87 1 59 -8 87 -43 126 -21 22 -38 28 -50 15z"/>
<path d="M872 5090 c-29 -18 -39 -19 -67 -10 -58 19 -123 -29 -113 -84 6 -32
-18 -45 -74 -39 -25 3 -62 0 -81 -7 -42 -13 -93 -68 -78 -83 16 -16 101 -9
137 12 32 19 36 19 80 4 27 -9 62 -13 86 -10 74 10 124 85 99 149 -9 25 -7 29
24 48 29 18 37 19 57 8 l23 -12 -30 -6 c-25 -4 -30 -10 -30 -35 0 -24 5 -31
23 -33 32 -5 52 15 52 53 0 35 -25 65 -56 65 -10 0 -34 -9 -52 -20z"/>
<path d="M2364 5003 c-35 -7 -60 -44 -77 -113 -9 -36 -32 -122 -51 -192 -28
-105 -32 -128 -20 -132 10 -4 16 3 20 22 4 19 23 38 65 64 32 21 68 52 79 70
22 36 26 100 10 142 -8 21 -6 26 6 26 19 0 64 44 64 63 0 36 -47 60 -96 50z"/>
<path d="M2667 4928 c-92 -117 -147 -191 -147 -202 1 -20 85 -161 97 -161 6 0
43 42 82 93 l72 93 26 -21 c31 -24 51 -25 81 -4 28 19 28 53 1 88 -17 22 -28
26 -57 24 -32 -3 -43 -12 -90 -73 -30 -38 -57 -71 -61 -73 -4 -1 -18 20 -30
47 l-23 49 34 45 34 45 23 -19 c28 -23 49 -24 79 -3 29 20 28 59 -3 89 -38 39
-77 33 -118 -17z"/>
<path d="M9533 4788 c-24 -5 -43 -13 -43 -17 0 -4 14 -26 30 -48 19 -25 27
-44 20 -48 -16 -10 -12 -45 7 -52 10 -4 22 1 32 13 10 12 26 18 43 16 46 -5
45 29 -3 93 -23 30 -42 55 -43 54 0 -1 -20 -5 -43 -11z"/>
<path d="M11502 4758 c-7 -7 -12 -20 -12 -30 0 -15 -7 -17 -63 -11 -67 6 -107
-6 -107 -32 0 -17 51 -29 90 -20 20 4 37 1 52 -9 29 -20 87 -20 116 0 15 10
22 25 22 48 0 32 15 45 53 46 16 0 6 -18 -13 -23 -23 -6 -27 -32 -5 -41 21 -8
42 2 47 22 11 47 -19 70 -65 53 -17 -7 -28 -7 -32 -1 -9 14 -69 12 -83 -2z"/>
<path d="M3377 4682 c-23 -26 -23 -104 1 -124 9 -9 80 -49 157 -90 216 -115
205 -110 205 -95 0 8 -65 48 -144 90 l-143 77 11 34 c5 18 15 32 21 29 5 -2
27 -28 49 -58 55 -78 126 -104 202 -75 25 10 30 8 52 -20 25 -32 67 -41 90
-18 25 25 3 118 -30 130 -7 3 -95 20 -195 39 -162 30 -183 36 -187 55 -5 18
-43 44 -65 44 -4 0 -15 -8 -24 -18z"/>
<path d="M4095 4450 c-119 -45 -181 -73 -183 -84 -4 -19 2 -20 29 -5 15 8 37
4 97 -17 98 -35 139 -29 195 27 33 32 42 37 58 28 27 -14 80 -7 92 12 24 39
-33 110 -88 108 -11 0 -101 -31 -200 -69z"/>
<path d="M7539 4457 c-22 -16 -59 -78 -59 -97 0 -9 29 -72 65 -140 35 -69 65
-130 65 -137 0 -9 -12 -9 -47 2 -63 19 -103 63 -103 113 0 20 -5 44 -10 52 -7
11 -10 -5 -10 -51 0 -86 14 -104 135 -169 52 -28 95 -56 95 -61 0 -5 7 -9 15
-9 8 0 15 3 15 7 0 3 -38 80 -85 170 -47 89 -81 163 -75 163 22 0 80 63 86 95
10 53 -2 75 -39 75 -18 0 -39 -6 -48 -13z"/>
<path d="M9773 4432 c-2 -10 -14 -22 -26 -27 -12 -6 -23 -20 -25 -31 -2 -17 9
-29 51 -53 30 -17 60 -31 67 -31 16 0 70 39 70 50 0 5 -18 19 -40 31 -32 18
-40 28 -40 51 0 23 -4 28 -26 28 -16 0 -28 -7 -31 -18z"/>
<path d="M1675 4320 c-12 -4 -26 -15 -33 -23 -12 -14 -112 -367 -112 -394 0
-7 7 -13 15 -13 8 0 15 9 15 20 0 12 20 33 58 58 31 22 66 49 76 61 24 26 34
127 17 160 -9 17 -9 21 2 21 8 0 26 9 41 21 63 49 -1 121 -79 89z"/>
<path d="M2342 4248 c-18 -18 -15 -83 6 -100 9 -8 43 -25 75 -38 31 -12 57
-26 57 -30 0 -12 -47 -40 -68 -40 -11 0 -31 10 -46 21 -15 12 -30 18 -34 14
-10 -10 45 -55 67 -55 10 0 33 -8 52 -17 32 -16 36 -16 95 5 35 12 70 22 78
22 39 0 7 20 -102 64 l-117 47 3 45 c4 47 -9 74 -37 74 -9 0 -22 -5 -29 -12z"/>
<path d="M11781 4225 c-11 -14 -22 -38 -26 -54 -4 -20 -17 -32 -46 -45 -47
-21 -74 -65 -65 -109 7 -35 32 -67 53 -67 16 0 16 1 2 -39 -6 -18 -18 -31 -27
-31 -13 0 -14 2 -4 9 23 14 10 46 -18 46 -21 0 -25 -5 -25 -30 0 -23 6 -32 26
-39 39 -13 57 -2 69 43 6 23 17 41 24 41 39 0 62 84 31 110 -22 18 -19 27 25
69 34 32 40 44 40 79 0 35 -3 42 -19 42 -11 0 -29 -11 -40 -25z"/>
<path d="M2663 4188 c85 -228 108 -303 96 -307 -26 -8 -79 -69 -79 -91 0 -80
96 -81 130 -1 11 28 6 46 -56 220 -43 120 -74 191 -83 191 -7 0 -11 -6 -8 -12z"/>
<path d="M7850 4038 c0 -13 18 -38 43 -62 32 -30 45 -51 50 -80 9 -56 41 -86
90 -86 24 0 48 7 59 17 25 22 69 4 67 -29 -1 -17 -2 -19 -6 -5 -3 10 -14 17
-29 17 -22 0 -25 -4 -22 -27 2 -20 9 -29 26 -31 32 -5 52 15 52 50 0 22 -7 33
-30 46 -19 11 -30 25 -30 40 0 45 -60 77 -99 53 -22 -14 -39 -2 -46 29 -14 62
-125 123 -125 68z"/>
<path d="M106 3934 c-9 -24 -7 -83 4 -104 11 -21 41 -31 258 -91 134 -36 180
-43 160 -23 -4 3 -75 25 -159 48 l-153 42 0 51 c-1 63 -24 93 -71 93 -21 0
-35 -6 -39 -16z"/>
<path d="M3846 3880 c29 -123 85 -190 160 -190 51 0 81 21 95 68 20 70 -30
140 -86 119 -20 -8 -30 -54 -15 -72 18 -22 51 -19 57 5 7 25 20 26 28 0 8 -25
-9 -57 -35 -65 -29 -9 -103 28 -136 68 -15 20 -35 55 -44 78 -27 67 -41 60
-24 -11z"/>
<path d="M9025 3903 c-12 -12 -15 -26 -11 -51 4 -25 0 -41 -15 -61 -27 -37
-17 -80 22 -95 28 -10 39 -39 20 -51 -21 -13 -32 -73 -21 -114 19 -73 60 -43
60 45 0 37 6 53 30 81 39 44 42 102 5 138 -13 14 -35 25 -49 25 -27 0 -41 27
-31 60 8 25 25 27 18 2 -2 -10 3 -24 11 -31 31 -26 63 28 34 57 -17 17 -54 15
-73 -5z"/>
<path d="M3476 3701 c-99 -37 -182 -73 -184 -81 -3 -9 3 -11 24 -7 19 4 56 -3
104 -20 96 -34 138 -28 193 28 33 32 42 37 58 28 27 -14 80 -7 92 12 24 39
-33 110 -88 108 -11 0 -101 -31 -199 -68z"/>
<path d="M4450 3741 c-17 -33 -12 -76 13 -99 29 -27 35 -27 127 3 88 30 99 30
95 8 -2 -10 -7 -35 -10 -56 -6 -39 -17 -47 -80 -61 -28 -6 -33 -3 -48 29 -14
30 -22 35 -51 35 -43 0 -58 -19 -54 -66 2 -26 11 -43 28 -56 25 -18 27 -18
165 23 77 23 142 44 145 46 4 4 29 196 26 200 -1 1 -53 -13 -116 -32 -63 -19
-118 -35 -122 -35 -5 0 -8 9 -8 20 0 50 -87 83 -110 41z"/>
<path d="M6757 3653 c-22 -21 22 -133 57 -146 10 -4 15 -28 18 -81 4 -86 25
-118 89 -138 32 -9 44 -8 78 9 l40 20 26 -27 c26 -27 32 -54 16 -65 -5 -3 -11
5 -13 17 -2 18 -9 23 -33 23 -24 0 -31 -5 -33 -23 -5 -31 15 -52 47 -52 34 0
48 10 59 40 12 32 1 62 -32 88 -20 16 -26 29 -26 61 0 64 -59 108 -110 81 -30
-16 -46 0 -54 53 -8 55 -37 102 -78 127 -36 22 -41 23 -51 13z"/>
<path d="M4843 3547 c-56 -51 -102 -98 -102 -106 -2 -25 53 -181 63 -181 5 0
48 36 96 80 l87 79 23 -24 c42 -45 110 -25 110 31 0 33 -42 74 -76 74 -18 0
-46 -18 -91 -60 -36 -33 -69 -60 -73 -60 -3 0 -13 22 -22 49 l-16 49 44 43
c34 34 45 39 49 27 10 -26 62 -43 90 -30 20 9 25 19 25 47 0 45 -29 75 -72 75
-27 -1 -51 -17 -135 -93z"/>
<path d="M594 3415 c-3 -8 -3 -19 1 -25 4 -6 -6 -10 -25 -10 -64 0 -107 -58
-94 -127 7 -38 48 -75 78 -71 27 4 48 46 35 70 -15 29 -56 23 -67 -9 l-10 -28
-11 28 c-22 57 26 90 99 68 43 -13 112 -76 130 -121 15 -37 44 -43 30 -6 -35
92 -107 185 -143 186 -7 0 -4 5 6 11 24 14 22 49 -3 49 -11 0 -23 -7 -26 -15z"/>
<path d="M1850 3401 c-29 -55 -3 -97 83 -132 31 -12 57 -26 57 -30 0 -13 -44
-39 -66 -39 -12 0 -33 9 -48 21 -21 16 -26 17 -26 5 0 -18 38 -46 63 -46 10 0
29 -7 42 -16 15 -9 37 -14 54 -12 22 3 31 0 34 -14 6 -21 46 -25 65 -6 7 7 12
23 12 36 0 17 4 23 15 18 9 -3 15 0 15 9 0 8 -7 15 -15 15 -8 0 -15 4 -15 9 0
5 -32 29 -71 54 l-71 44 42 17 c45 18 68 12 94 -26 9 -12 19 -19 22 -15 12 12
-27 58 -61 73 -19 7 -36 18 -40 24 -3 5 -33 10 -65 10 -32 0 -62 5 -65 10 -10
17 -44 11 -55 -9z"/>
<path d="M830 3396 c0 -2 23 -57 50 -122 28 -65 50 -120 50 -121 0 -2 -6 -3
-13 -3 -23 0 -57 -45 -57 -73 0 -52 70 -48 96 6 15 30 14 35 -15 102 -27 63
-28 70 -12 73 37 6 69 -16 84 -60 15 -42 15 -42 16 -11 1 39 -41 125 -75 152
-14 11 -38 22 -54 26 -16 3 -34 13 -41 21 -10 13 -29 19 -29 10z"/>
<path d="M3056 3309 c-30 -24 -33 -53 -12 -141 l14 -56 -37 12 c-40 14 -64 49
-56 84 3 12 1 22 -5 22 -13 0 -13 -87 0 -95 6 -3 10 -19 10 -35 0 -20 10 -36
36 -57 19 -15 49 -41 66 -56 17 -15 33 -26 36 -23 3 3 -7 56 -22 118 -14 62
-26 118 -26 124 0 6 16 18 35 27 38 18 55 58 35 82 -17 21 -43 19 -74 -6z"/>
<path d="M3226 3128 c28 -118 89 -188 164 -188 47 0 77 23 91 68 20 70 -30
140 -86 119 -20 -8 -30 -54 -15 -72 18 -22 51 -19 57 5 6 22 18 26 28 9 11
-17 -4 -58 -26 -69 -51 -28 -141 36 -183 130 -15 33 -31 60 -36 60 -4 0 -2
-28 6 -62z"/>
<path d="M6250 2970 c0 -6 63 -10 170 -10 l170 0 0 -34 c0 -47 33 -86 74 -86
39 0 56 15 56 50 0 25 -23 67 -44 82 -17 12 -426 10 -426 -2z"/>
<path d="M11806 2785 c-11 -12 -16 -34 -16 -76 0 -32 -4 -59 -8 -59 -5 0 -19
11 -32 25 -20 22 -22 28 -11 51 9 20 9 25 -1 22 -8 -3 -14 -27 -16 -65 -3 -57
-1 -63 35 -106 21 -25 41 -46 46 -46 4 -1 7 41 7 92 l0 92 33 15 c42 20 46 63
6 68 -15 2 -34 -4 -43 -13z"/>
<path d="M526 2730 c-34 -11 -84 -56 -97 -87 -7 -20 -12 -21 -44 -12 -43 12
-85 -9 -85 -42 0 -31 53 -79 88 -79 42 0 383 196 375 216 -4 11 -9 11 -32 -1
-20 -10 -39 -11 -67 -5 -76 16 -109 18 -138 10z"/>
<path d="M1295 2685 c-14 -13 -25 -30 -25 -38 0 -10 -8 -13 -25 -9 -29 5 -34
-14 -5 -23 10 -3 25 -18 33 -33 35 -72 180 -323 189 -328 26 -17 13 17 -62
151 -46 80 -80 148 -77 151 2 3 31 -11 62 -31 42 -27 54 -40 46 -48 -12 -12
-15 -65 -5 -91 8 -20 48 -21 63 -2 7 8 11 34 9 57 -3 40 -6 44 -70 84 l-68 42
40 18 c37 17 41 17 65 1 14 -10 29 -24 32 -32 7 -18 23 -18 23 0 0 16 -55 66
-73 66 -18 1 -51 32 -64 63 -16 35 -55 36 -88 2z"/>
<path d="M3360 2607 c0 -8 65 -43 149 -82 130 -60 148 -71 140 -86 -5 -10 -9
-35 -9 -57 0 -75 79 -110 108 -49 17 34 9 88 -16 109 -9 8 -82 45 -162 83
-212 99 -210 98 -210 82z"/>
<path d="M2306 2577 c-3 -15 -18 -27 -43 -36 -113 -39 -158 -92 -151 -181 3
-46 1 -49 -23 -54 -64 -12 -79 -79 -25 -105 26 -12 36 -12 70 0 39 14 41 17
122 194 46 99 83 186 84 193 0 22 -28 13 -34 -11z"/>
<path d="M7800 2584 c0 -3 38 -47 84 -98 l84 -91 -19 -24 c-37 -46 -14 -110
35 -97 32 8 52 50 39 83 -4 13 -52 70 -106 128 -88 94 -117 118 -117 99z"/>
<path d="M50 2533 c-39 -15 -50 -35 -50 -99 0 -54 3 -65 22 -78 34 -24 67 -20
80 10 15 33 0 59 -33 59 -17 0 -25 -6 -27 -23 -5 -33 -26 -21 -30 16 -2 24 2
34 22 47 53 35 148 -13 201 -103 28 -49 45 -64 45 -42 0 5 -11 33 -24 63 -49
112 -137 175 -206 150z"/>
<path d="M658 2453 c-30 -48 -88 -143 -129 -210 l-74 -122 -23 22 c-35 33
-146 37 -184 7 -54 -42 -26 -112 49 -126 19 -4 55 -4 81 -1 57 6 59 9 176 201
48 80 92 146 97 146 12 0 39 -96 39 -138 0 -46 -22 -80 -85 -127 -29 -22 -52
-42 -50 -43 7 -8 73 19 105 43 63 47 65 54 65 235 0 91 2 171 5 179 3 7 0 15
-7 18 -6 2 -36 -36 -65 -84z"/>
<path d="M4112 2423 c-18 -8 -44 -29 -58 -46 -24 -28 -25 -34 -19 -121 4 -50
10 -140 14 -201 4 -60 6 -112 4 -114 -6 -8 -83 52 -108 85 -37 48 -40 81 -16
159 12 37 19 70 17 72 -2 3 -17 -17 -32 -43 -20 -35 -29 -65 -32 -109 l-4 -61
90 -115 c49 -63 91 -124 94 -135 2 -10 10 -20 18 -22 16 -3 13 65 -14 416 l-6
72 35 0 c50 0 96 22 128 59 29 35 36 88 15 109 -17 17 -87 14 -126 -5z"/>
<path d="M3386 2405 c-10 -26 -7 -115 5 -136 8 -16 4 -31 -17 -75 -34 -70 -30
-123 15 -167 24 -25 38 -30 76 -30 41 0 48 -4 61 -29 16 -30 12 -63 -9 -71 -8
-3 -12 6 -12 27 0 28 -3 31 -30 31 -28 0 -30 -3 -30 -35 0 -29 5 -36 28 -44
21 -8 35 -7 55 5 33 18 38 48 19 97 -13 32 -13 40 -1 57 36 49 -3 135 -60 135
-36 0 -47 26 -29 69 9 22 13 52 10 79 -8 69 -64 129 -81 87z"/>
<path d="M5967 2413 c-12 -12 -7 -68 8 -90 13 -18 29 -23 95 -29 l81 -7 -25
-31 c-19 -24 -31 -31 -57 -30 -19 0 -42 4 -51 8 -10 5 -18 4 -18 -1 0 -18 50
-33 115 -34 57 -1 70 2 106 27 23 16 50 33 60 39 22 11 25 25 7 25 -21 0 -191
20 -215 26 -17 3 -23 11 -23 32 0 37 -26 72 -54 72 -12 0 -26 -3 -29 -7z"/>
<path d="M8178 2409 c-10 -5 -18 -19 -18 -30 0 -38 18 -57 62 -64 80 -12 82
-14 61 -37 -14 -16 -26 -19 -58 -14 -35 5 -38 4 -22 -8 9 -7 40 -16 69 -19 46
-6 56 -3 105 27 62 39 63 38 -64 56 -81 12 -83 13 -83 41 0 21 -22 61 -33 59
-1 0 -10 -5 -19 -11z"/>
<path d="M919 2380 c-22 -13 -30 -47 -21 -89 6 -28 3 -39 -15 -57 -34 -34 -32
-96 3 -123 15 -12 33 -21 40 -21 20 0 17 -37 -5 -74 -28 -46 -33 -85 -18 -136
9 -33 18 -45 32 -45 28 0 45 41 45 111 0 54 3 63 30 89 82 79 55 208 -47 224
-36 6 -38 9 -41 46 -3 38 14 65 42 65 6 0 5 -4 -2 -9 -21 -13 -11 -65 12 -70
20 -3 46 22 46 46 0 38 -63 65 -101 43z"/>
<path d="M11690 2351 c-6 -16 -10 -45 -9 -65 3 -25 -3 -42 -18 -58 -49 -52
-51 -122 -5 -158 13 -11 35 -20 47 -20 23 0 37 -30 27 -58 -6 -20 -20 -14 -24
11 -5 34 -42 30 -46 -5 -3 -21 2 -30 21 -39 41 -18 67 3 67 54 0 23 7 51 15
61 29 38 12 106 -25 106 -24 0 -27 35 -5 64 8 11 15 37 15 59 0 73 -37 103
-60 48z"/>
<path d="M4417 2348 c-21 -16 -189 -377 -181 -389 9 -15 20 -10 32 15 6 14 36
35 78 55 56 26 76 31 113 26 111 -14 106 -12 107 -52 0 -24 8 -42 22 -54 41
-32 82 1 66 54 -13 44 -32 54 -110 62 -40 4 -74 10 -74 14 0 4 13 20 29 35 30
28 48 30 94 11 9 -4 17 -3 17 2 0 16 -49 33 -95 33 -40 0 -45 3 -45 23 0 12
-3 32 -6 45 -5 18 -2 22 18 22 25 0 68 37 68 58 0 7 -9 21 -20 32 -23 23 -86
27 -113 8z"/>
<path d="M8500 2314 c0 -3 38 -46 84 -96 82 -87 84 -91 70 -114 -9 -13 -14
-39 -12 -61 2 -31 7 -39 26 -41 33 -5 62 25 62 63 0 26 -17 50 -106 143 -94
100 -124 125 -124 106z"/>
<path d="M2846 2208 c-17 -24 -21 -65 -8 -84 4 -6 36 -30 71 -52 l64 -40 -31
-16 c-43 -22 -59 -20 -89 10 -14 14 -27 23 -30 20 -10 -10 20 -49 50 -63 18
-8 45 -21 61 -30 26 -14 38 -14 92 -3 35 6 68 9 73 5 6 -3 11 0 11 7 0 7 -47
42 -105 78 -58 35 -105 68 -105 72 0 4 5 10 10 13 16 10 12 72 -6 89 -21 22
-40 20 -58 -6z"/>
<path d="M8348 2199 c-25 -14 -40 -46 -33 -69 8 -26 60 -28 69 -3 7 18 -20 47
-35 37 -5 -3 -9 -1 -9 5 0 6 12 14 27 17 19 5 30 2 40 -11 28 -39 7 -109 -46
-159 -30 -29 -39 -46 -23 -46 20 0 96 69 113 103 13 24 26 37 37 35 9 -2 18 5
20 16 3 15 0 18 -17 13 -13 -3 -21 0 -21 8 0 7 -9 24 -21 39 -22 28 -68 35
-101 15z"/>
<path d="M2369 2129 c-14 -14 -19 -30 -17 -57 3 -35 7 -39 86 -82 45 -24 82
-48 82 -51 0 -4 -19 -21 -41 -38 l-42 -30 -49 25 c-39 20 -48 29 -42 42 27 63
11 102 -41 102 -41 0 -65 -27 -65 -73 0 -42 5 -46 173 -136 l98 -52 74 58 c41
32 74 63 75 68 0 6 -47 35 -105 65 -104 54 -114 63 -95 75 14 9 13 78 -2 93
-19 19 -66 14 -89 -9z"/>
<path d="M6340 2130 c0 -6 63 -10 170 -10 l170 0 0 -34 c0 -19 9 -45 21 -60
18 -23 28 -27 63 -24 34 3 42 7 44 27 5 34 -6 69 -28 91 -19 19 -34 20 -230
20 -133 0 -210 -4 -210 -10z"/>
<path d="M1904 2060 c-24 -10 -68 -64 -78 -96 -4 -14 -23 -26 -59 -37 -30 -9
-63 -27 -75 -39 -51 -55 -51 -130 1 -174 30 -25 30 -25 14 -60 -19 -38 -42
-53 -60 -35 -8 8 -7 11 5 11 22 0 33 37 17 56 -30 37 -80 -5 -63 -53 22 -63
104 -53 125 16 10 33 17 40 45 46 18 3 40 16 49 28 21 29 19 83 -3 105 -25 25
-11 52 41 77 46 22 87 87 87 137 0 29 -10 33 -46 18z"/>
<path d="M1527 2024 c-10 -19 -29 -34 -54 -43 -104 -36 -147 -89 -141 -177 3
-49 1 -54 -17 -54 -56 0 -90 -76 -46 -100 34 -18 90 -12 114 13 35 35 183 365
169 379 -7 7 -15 2 -25 -18z"/>
<path d="M7168 2039 c-12 -6 -18 -22 -18 -43 0 -55 18 -68 109 -80 l82 -11
-29 -34 c-29 -35 -29 -35 -102 -16 l-25 7 24 -21 c19 -17 37 -21 96 -21 69 0
77 2 119 35 26 19 53 35 61 35 8 0 15 5 15 10 0 6 -3 10 -7 10 -14 0 -187 20
-220 26 -29 4 -33 8 -33 38 0 19 -8 41 -20 54 -23 25 -28 26 -52 11z"/>
<path d="M440 1902 c0 -4 71 -31 158 -60 l159 -52 -5 -53 c-3 -46 -1 -55 21
-75 32 -30 66 -26 86 10 14 24 14 32 1 69 l-15 42 -190 64 c-190 63 -215 70
-215 55z"/>
<path d="M5160 1828 c-11 -24 -20 -62 -20 -85 0 -35 -5 -45 -31 -64 -40 -28
-73 -100 -64 -140 10 -44 51 -87 91 -95 30 -5 34 -10 34 -36 0 -41 -17 -68
-42 -68 -21 0 -21 1 -4 13 21 15 18 45 -6 60 -23 15 -48 -8 -48 -44 0 -31 23
-49 63 -49 36 0 57 30 57 81 0 36 5 50 25 67 46 40 24 142 -30 142 -20 0 -20
44 1 61 38 31 55 111 38 177 -10 37 -42 27 -64 -20z"/>
<path d="M11246 1838 c-24 -35 -20 -50 29 -98 l46 -45 -27 -7 c-32 -8 -60 5
-69 32 -4 11 -10 18 -15 15 -14 -9 9 -47 47 -80 27 -22 47 -30 84 -31 27 -2
53 -5 59 -9 5 -3 10 0 10 7 0 8 -29 42 -64 77 l-63 63 15 30 c26 52 -20 92
-52 46z"/>
<path d="M3080 1808 c0 -9 60 -42 150 -83 119 -55 149 -72 144 -85 -4 -8 -9
-32 -12 -52 -8 -67 68 -115 102 -66 23 33 20 83 -6 111 -13 14 -97 59 -188
102 -205 95 -190 90 -190 73z"/>
<path d="M2228 1799 c-21 -11 -24 -68 -7 -100 8 -16 7 -30 -5 -58 -24 -63 2
-121 55 -121 36 0 53 -28 39 -65 -23 -62 -6 -151 35 -185 15 -12 19 -12 31 5
17 23 18 90 3 133 -9 27 -7 39 10 75 31 65 28 129 -8 169 -26 29 -35 33 -81
33 -50 0 -51 0 -62 38 -10 32 -9 40 5 55 16 15 17 14 17 -15 0 -29 14 -43 41
-43 19 0 32 46 20 69 -13 23 -62 29 -93 10z"/>
<path d="M267 1779 c-22 -12 -44 -34 -54 -55 -15 -31 -20 -34 -50 -28 -70 13
-106 -17 -82 -69 14 -30 49 -50 87 -50 17 0 93 38 197 98 94 54 172 99 174
102 3 2 0 8 -6 14 -8 8 -16 7 -31 -2 -15 -10 -32 -10 -77 -1 -80 16 -114 14
-158 -9z"/>
<path d="M5587 1772 c-27 -30 -21 -69 15 -103 26 -23 32 -36 30 -60 -7 -60 53
-110 108 -91 36 13 60 -6 60 -47 0 -63 47 -126 108 -145 20 -7 22 -4 22 29 0
42 -12 69 -49 108 -21 23 -26 38 -27 85 0 66 -21 112 -59 132 -39 21 -99 18
-125 -5 -21 -19 -21 -19 -51 12 -24 23 -29 36 -24 53 l7 22 12 -23 c7 -16 20
-24 36 -24 20 0 26 6 28 29 2 16 -2 32 -10 37 -22 15 -64 10 -81 -9z"/>
<path d="M10938 1749 c-11 -6 -18 -22 -18 -42 0 -26 10 -41 52 -78 l53 -47
-37 -17 -37 -18 -35 31 c-27 23 -31 32 -20 36 11 4 14 17 12 43 -3 33 -7 38
-30 41 -31 4 -68 -27 -68 -57 0 -18 157 -171 176 -171 19 0 133 56 134 65 0 6
-31 37 -68 69 -66 58 -68 60 -50 78 45 45 -8 100 -64 67z"/>
<path d="M7880 1702 c-42 -19 -89 -75 -95 -115 -4 -23 -12 -48 -17 -54 -25
-30 22 -9 90 41 73 53 74 54 93 35 39 -39 93 -14 69 32 -19 34 -57 35 -105 0
-24 -17 -46 -31 -49 -31 -3 0 -6 14 -6 31 0 25 6 33 30 42 17 6 30 15 30 19 0
9 -19 9 -40 0z"/>
<path d="M4850 1659 c0 -12 -23 -48 -50 -81 -28 -33 -53 -71 -56 -85 -10 -38
2 -103 25 -134 l20 -27 -24 -16 c-14 -9 -27 -27 -31 -40 -16 -67 62 -92 117
-37 l29 29 0 130 c0 154 -10 282 -21 282 -5 0 -9 -9 -9 -21z"/>
<path d="M8970 1625 c-64 -55 -80 -64 -80 -45 0 6 -11 15 -24 21 -54 25 -89
-38 -46 -81 29 -29 48 -25 99 18 68 57 69 57 81 15 10 -36 9 -39 -22 -65 -29
-25 -33 -26 -49 -12 -10 9 -30 14 -46 12 -22 -2 -29 -9 -31 -31 -4 -33 22 -67
51 -67 24 0 187 136 187 157 0 28 -35 133 -45 133 -5 0 -39 -25 -75 -55z"/>
<path d="M3580 1499 c-72 -29 -98 -82 -89 -181 17 -187 21 -308 9 -308 -20 0
-128 115 -132 141 -2 13 4 53 14 89 10 36 18 69 18 75 -1 21 -40 -42 -56 -89
-28 -84 -14 -116 123 -284 31 -38 53 -74 53 -88 0 -15 6 -24 15 -24 18 0 18
-3 0 245 -21 279 -23 255 25 255 50 0 89 19 124 60 29 36 34 81 10 104 -17 18
-75 20 -114 5z"/>
<path d="M2864 1481 c-36 -22 -58 -69 -52 -110 4 -25 0 -31 -29 -45 -25 -12
-39 -13 -54 -6 -27 15 -24 28 5 23 31 -6 55 30 35 53 -14 17 -51 18 -67 2 -18
-18 -14 -73 6 -91 23 -21 42 -21 88 -2 32 13 38 13 57 0 49 -35 127 0 127 56
0 38 31 52 77 33 47 -20 84 -17 134 9 50 27 55 45 19 64 -26 14 -99 9 -132 -8
-12 -6 -31 -2 -64 16 -56 30 -108 32 -150 6z"/>
<path d="M6393 1468 c-44 -21 -41 -83 4 -94 19 -5 30 -2 40 11 17 24 16 30 -2
49 -19 19 -2 31 24 16 32 -17 41 -41 26 -70 -33 -62 -104 -100 -190 -100 -63
0 -74 -14 -17 -24 75 -12 138 -7 183 17 44 22 45 22 45 2 -1 -13 6 -21 22 -23
16 -3 22 2 22 17 0 11 -7 24 -16 29 -13 7 -14 13 -5 30 28 52 3 114 -55 138
-39 16 -51 17 -81 2z"/>
<path d="M278 1375 c-30 -17 -58 -62 -58 -93 0 -11 9 -30 19 -43 16 -20 23
-22 47 -14 23 8 29 17 29 40 0 24 -5 31 -23 33 -13 2 -30 -2 -38 -8 -25 -21
-17 14 9 38 31 30 50 28 80 -8 47 -55 55 -113 31 -222 -12 -53 12 -27 35 37
31 88 27 184 -10 221 -31 31 -85 39 -121 19z"/>
<path d="M946 1348 c-21 -30 -20 -56 3 -94 17 -28 31 -34 212 -82 107 -29 197
-52 202 -52 18 0 5 30 -13 30 -13 0 -32 18 -54 53 -19 28 -45 63 -59 75 -32
30 -91 44 -142 32 -24 -5 -41 -5 -43 0 -2 5 -12 20 -23 34 -25 32 -63 34 -83
4z"/>
<path d="M3762 1358 c-16 -16 -15 -83 2 -100 7 -7 36 -26 64 -43 29 -16 52
-33 52 -36 0 -9 -49 -29 -71 -29 -11 0 -31 12 -46 26 -14 14 -28 23 -30 20
-10 -10 26 -54 49 -62 12 -4 35 -16 50 -27 22 -16 35 -19 80 -12 29 4 68 7 86
7 17 -1 32 3 32 7 0 5 -50 39 -110 76 -85 52 -108 71 -99 81 5 7 9 32 7 56 -3
37 -6 43 -28 46 -14 2 -31 -3 -38 -10z"/>
<path d="M1724 1285 c-28 -42 4 -115 50 -115 12 0 56 12 100 25 43 14 81 24
83 21 3 -2 1 -28 -4 -57 l-8 -53 -57 -17 c-54 -16 -58 -16 -58 0 0 9 -7 27
-16 39 -23 34 -85 28 -98 -9 -12 -36 0 -76 29 -95 24 -16 32 -15 169 27 l144
43 7 56 c3 30 8 74 12 98 7 51 9 51 -122 12 -105 -32 -125 -32 -125 -2 0 50
-78 70 -106 27z"/>
<path d="M5558 1149 l-87 -80 -25 26 c-64 64 -142 -7 -85 -79 35 -44 70 -36
146 34 36 33 69 60 73 60 5 0 13 -23 20 -51 l12 -51 -37 -38 -38 -39 -29 24
c-33 28 -56 31 -83 11 -25 -18 -24 -71 3 -98 41 -42 71 -30 184 73 57 51 105
95 107 97 8 5 -54 185 -64 189 -6 1 -49 -34 -97 -78z"/>
<path d="M2806 1174 c-9 -8 -16 -24 -16 -34 0 -21 25 -50 44 -50 23 0 39 28
32 56 -7 27 -7 27 16 12 14 -9 24 -27 26 -45 3 -26 -3 -34 -35 -54 -49 -31
-120 -30 -191 1 -54 23 -81 21 -46 -5 45 -33 129 -68 172 -72 93 -8 156 52
133 128 -20 67 -96 102 -135 63z"/>
<path d="M6834 1155 c-7 -29 11 -81 31 -89 7 -2 45 -8 84 -12 39 -3 71 -9 71
-12 0 -3 -12 -19 -27 -34 -28 -30 -70 -37 -91 -16 -6 6 -15 9 -19 5 -15 -15
20 -32 80 -37 76 -8 108 0 153 39 19 17 41 31 49 31 8 0 15 4 15 9 0 4 -48 13
-107 20 -155 17 -153 16 -153 52 0 46 -16 69 -50 69 -23 0 -31 -5 -36 -25z"/>
<path d="M145 981 l-38 -118 -27 10 c-14 6 -39 7 -53 3 -24 -6 -27 -11 -27
-51 0 -50 16 -65 69 -65 37 0 50 19 81 115 12 39 26 73 29 77 4 5 24 -10 46
-32 l38 -39 -18 -55 c-17 -51 -20 -54 -42 -45 -36 13 -51 11 -73 -11 -43 -43
-9 -100 59 -100 21 0 43 6 48 13 6 6 31 73 57 147 l48 135 -74 67 c-40 38 -75
68 -78 68 -3 0 -23 -53 -45 -119z"/>
<path d="M9310 1066 c0 -18 -3 -61 -6 -95 -7 -59 -8 -61 -35 -61 -49 0 -75
-43 -43 -74 17 -18 79 -22 89 -6 4 6 9 44 12 85 l6 75 39 -22 c36 -21 39 -25
36 -63 -3 -37 -5 -40 -35 -43 -44 -4 -61 -34 -38 -68 21 -32 69 -33 89 -1 8
13 17 65 21 128 l7 106 -66 37 c-37 20 -69 36 -71 36 -3 0 -5 -15 -5 -34z"/>
<path d="M916 1054 c-14 -13 -17 -27 -13 -57 6 -47 31 -83 78 -115 41 -29 53
-28 274 26 88 22 161 38 163 37 8 -7 -29 -75 -59 -110 -47 -53 -77 -63 -152
-53 -76 10 -93 5 -46 -14 55 -24 115 -31 152 -19 32 11 119 93 204 194 18 20
39 37 47 37 17 0 30 16 22 29 -4 6 -380 -78 -468 -105 -14 -4 -18 1 -18 21 0
90 -132 182 -184 129z"/>
<path d="M768 1039 c-21 -16 -32 -18 -47 -10 -35 19 -71 12 -103 -19 -24 -25
-29 -37 -25 -59 8 -37 -9 -45 -84 -42 -60 3 -100 -12 -133 -48 -10 -11 -16
-27 -13 -36 9 -22 84 -19 132 5 39 20 42 20 94 4 67 -21 117 -8 156 38 24 29
27 38 22 86 -6 52 -5 53 28 69 29 14 36 14 51 2 16 -13 15 -14 -12 -19 -22 -4
-29 -11 -29 -29 0 -54 60 -52 79 2 23 63 -56 101 -116 56z"/>
<path d="M8240 1052 c-47 -21 -90 -66 -95 -100 -3 -21 -10 -45 -16 -54 -24
-44 0 -37 86 26 72 54 73 54 91 35 21 -23 62 -25 71 -3 8 22 -8 47 -39 58 -20
7 -33 2 -76 -29 l-52 -37 0 30 c0 29 26 62 48 62 7 0 12 5 12 10 0 11 -8 12
-30 2z"/>
<path d="M9932 1000 l-71 -61 -21 21 c-37 37 -80 20 -80 -31 0 -27 30 -59 56
-59 6 0 37 21 68 46 31 26 58 45 60 43 1 -2 7 -20 12 -39 9 -31 7 -37 -20 -61
-30 -27 -31 -27 -55 -8 -13 10 -30 19 -37 19 -19 0 -44 -29 -44 -51 0 -24 34
-59 58 -59 17 0 184 131 190 149 3 8 -37 151 -42 151 -1 0 -35 -27 -74 -60z"/>
<path d="M8630 932 c0 -5 7 -15 15 -22 10 -8 15 -31 15 -67 0 -30 7 -67 15
-83 15 -29 61 -60 89 -60 9 0 12 -7 9 -19 -7 -29 14 -61 41 -61 31 0 50 24 50
66 0 29 -13 48 -104 141 -99 102 -130 127 -130 105z"/>
<path d="M10132 814 c-34 -24 -28 -78 10 -82 20 -2 28 2 33 18 8 25 0 36 -30
42 -17 4 -16 6 8 13 37 10 57 -8 57 -52 0 -42 -19 -79 -59 -117 -31 -30 -39
-46 -22 -46 15 0 101 82 116 111 19 36 19 79 -1 107 -19 27 -78 30 -112 6z"/>
<path d="M2169 693 c-6 -18 -32 -42 -69 -66 -83 -53 -106 -105 -87 -197 7 -33
5 -36 -23 -47 -32 -12 -50 -55 -33 -82 13 -20 79 -26 109 -10 13 6 27 23 33
38 13 33 101 363 101 379 0 23 -21 12 -31 -15z"/>
<path d="M2863 613 c-46 -2 -83 -6 -83 -9 0 -2 25 -54 55 -114 49 -98 53 -111
38 -117 -35 -12 -53 -36 -53 -69 0 -54 65 -74 108 -34 31 29 28 59 -18 150
l-40 80 60 0 60 0 25 -50 25 -50 -24 -10 c-52 -19 -60 -84 -14 -109 24 -14 30
-14 62 2 60 28 58 51 -17 204 -51 100 -71 132 -84 131 -10 -1 -55 -4 -100 -5z"/>
</g>
</svg>
