<?xml version="1.0" standalone="no"?>
<!DOCTYPE svg PUBLIC "-//W3C//DTD SVG 20010904//EN"
 "http://www.w3.org/TR/2001/REC-SVG-20010904/DTD/svg10.dtd">
<svg version="1.0" xmlns="http://www.w3.org/2000/svg"
 width="1200.000000pt" height="676.000000pt" viewBox="0 0 1200.000000 676.000000"
 preserveAspectRatio="xMidYMid meet">
<metadata>
Created by potrace 1.16, written by Peter Selinger 2001-2019
</metadata>
<g transform="translate(0.000000,676.000000) scale(0.100000,-0.100000)"
fill="#000000" stroke="none">
<path d="M2055 6180 c-3 -5 0 -10 8 -10 7 0 14 -7 14 -15 0 -8 -4 -12 -8 -9
-4 2 -14 -2 -21 -10 -8 -7 -24 -17 -36 -20 -12 -4 -22 -12 -22 -17 0 -5 -6 -9
-14 -9 -7 0 -20 -7 -27 -16 -12 -14 -14 -14 -20 3 -7 16 -8 16 -8 0 -1 -14 -4
-15 -20 -6 -12 8 -17 19 -13 33 3 12 2 19 -1 16 -16 -15 -14 -58 4 -71 10 -7
19 -18 19 -24 0 -16 75 -34 95 -23 9 6 23 7 31 4 8 -3 14 -2 14 2 0 4 11 12
25 19 19 8 23 8 18 0 -3 -7 6 -1 20 12 48 44 45 117 -6 125 -8 1 -22 8 -30 14
-10 9 -17 10 -22 2z"/>
<path d="M3438 6134 c-27 -8 -48 -19 -48 -25 0 -6 -10 -19 -21 -28 -18 -15
-20 -21 -10 -39 17 -32 39 -39 108 -34 51 3 63 7 69 24 3 11 19 24 35 30 32
11 37 23 14 32 -8 3 -15 12 -15 19 0 8 -12 17 -27 20 -16 3 -35 8 -43 11 -8 2
-36 -2 -62 -10z"/>
<path d="M6299 5972 c-1 -4 -1 -10 0 -14 0 -3 -13 -3 -29 2 -22 6 -28 5 -24
-2 5 -8 1 -9 -10 -5 -11 4 -25 -1 -40 -16 -13 -13 -29 -21 -35 -19 -10 3 -10
0 -2 -17 11 -20 8 -26 -14 -21 -5 1 1 -10 14 -24 13 -14 28 -23 32 -20 5 3 9
0 9 -7 0 -6 8 -9 20 -6 12 3 18 1 14 -5 -4 -6 2 -8 12 -6 11 2 18 9 17 15 -2
7 6 10 18 8 16 -3 19 0 14 16 -5 15 -2 22 14 26 11 3 19 9 16 13 -6 9 25 44
43 48 6 1 12 -5 12 -13 0 -8 5 -15 10 -15 27 0 -4 46 -37 55 -44 13 -53 14
-54 7z"/>
<path d="M5439 5395 c-3 -2 -20 -6 -38 -7 -18 -1 -35 -6 -37 -10 -3 -4 -10 -5
-17 -2 -7 2 -21 -4 -31 -15 -10 -11 -23 -18 -27 -15 -5 3 -12 -2 -15 -10 -3
-9 -10 -14 -14 -11 -4 3 -13 -1 -19 -9 -15 -18 11 -46 39 -41 11 2 20 -1 20
-6 0 -6 9 -8 19 -4 10 3 33 8 51 10 52 6 116 37 127 62 8 16 8 21 0 16 -7 -4
-8 0 -4 11 4 10 3 15 -3 11 -6 -3 -10 -1 -10 6 0 7 -3 9 -7 6 -3 -4 -11 -2
-18 3 -7 5 -14 8 -16 5z"/>
<path d="M2283 5295 c-20 -5 -42 -20 -50 -32 -13 -20 -12 -22 24 -34 21 -7 90
-13 153 -14 132 -3 170 9 163 48 -6 31 -59 35 -113 7 l-41 -21 7 25 c5 23 3
24 -51 28 -31 1 -73 -1 -92 -7z"/>
<path d="M1197 5152 c-60 -32 -114 -66 -119 -76 -10 -18 -7 -18 43 -12 l54 7
-33 -21 c-18 -11 -44 -20 -58 -20 -14 0 -23 -4 -20 -9 3 -5 40 -2 83 6 63 11
82 19 100 41 13 15 23 32 23 38 0 6 8 22 19 35 21 28 36 69 24 69 -4 0 -57
-26 -116 -58z"/>
<path d="M1950 5163 c-22 -9 -31 -26 -17 -35 19 -12 -9 -33 -46 -35 -18 0 -33
-2 -34 -3 -2 -2 -7 -3 -12 -4 -10 -1 -51 -50 -51 -60 0 -16 95 -4 144 18 50
22 56 28 66 68 7 24 14 46 17 51 5 8 -45 8 -67 0z"/>
<path d="M2269 5043 c-9 -2 -21 -14 -27 -27 -6 -13 -32 -36 -58 -51 -27 -16
-58 -38 -71 -49 -34 -33 -52 -46 -58 -46 -3 0 -19 -14 -34 -31 -32 -34 -52
-24 -27 13 10 15 12 28 6 37 -7 12 -14 11 -43 -9 -20 -14 -33 -28 -31 -32 3
-4 0 -8 -6 -8 -6 0 -9 -4 -5 -9 3 -5 1 -12 -5 -16 -14 -9 -12 -25 3 -21 6 3
26 7 42 10 26 5 24 3 -15 -19 -25 -13 -41 -24 -36 -25 5 0 -4 -10 -18 -21 -17
-14 -45 -23 -74 -24 -26 -2 -40 0 -32 2 31 11 40 24 27 38 -7 7 -15 11 -18 9
-3 -1 -28 -6 -55 -9 -53 -7 -151 -38 -196 -61 -15 -8 -37 -13 -50 -13 -17 1
-18 3 -5 6 9 2 17 9 17 14 0 5 8 9 17 9 9 0 14 3 11 6 -7 6 -50 12 -97 13
l-34 1 27 25 c15 14 33 25 40 25 8 0 19 6 25 14 10 11 3 16 -39 26 -27 7 -50
14 -50 17 0 3 11 14 26 25 14 11 23 22 21 25 -3 2 -29 6 -58 9 -42 4 -62 0
-89 -15 -19 -11 -69 -37 -112 -59 -42 -22 -90 -56 -108 -75 -20 -24 -47 -41
-73 -48 -23 -6 -59 -15 -79 -21 -20 -6 -44 -8 -54 -4 -15 6 -13 10 13 26 38
23 54 45 27 37 -11 -4 -31 -9 -46 -12 -14 -4 -34 -16 -44 -26 -16 -18 -16 -21
-1 -36 14 -15 11 -19 -41 -50 -31 -18 -75 -54 -98 -79 -27 -31 -51 -48 -75
-53 -18 -4 -34 -12 -34 -19 0 -19 -26 -32 -62 -32 -26 0 -37 -8 -68 -50 -39
-53 -45 -56 -62 -39 -8 8 -1 20 24 46 19 19 33 36 30 39 -2 2 -33 -5 -68 -15
-35 -11 -65 -19 -67 -17 -6 7 97 65 130 74 18 5 32 14 31 20 -2 6 15 25 37 42
28 22 40 39 40 57 0 20 -4 24 -17 18 -103 -42 -159 -53 -165 -34 -4 12 -94
-20 -150 -54 -129 -78 -150 -88 -166 -82 -14 6 -7 16 38 57 30 27 82 68 115
91 52 35 67 41 116 41 45 1 72 9 145 46 49 24 98 43 109 41 16 -2 17 0 8 9 -9
10 -7 19 9 40 16 22 18 32 9 48 -15 28 -59 34 -79 11 -16 -19 -78 -28 -67 -9
3 5 -11 2 -31 -6 -21 -9 -48 -13 -64 -9 -32 7 -135 -35 -157 -63 -7 -9 -13
-13 -13 -8 0 5 -9 1 -19 -8 -12 -11 -17 -25 -14 -34 5 -11 2 -14 -10 -9 -11 4
-23 -4 -39 -25 -12 -18 -17 -29 -12 -25 5 3 16 2 23 -3 11 -6 8 -11 -10 -20
-13 -7 -35 -22 -48 -34 l-24 -21 6 23 c4 18 3 21 -7 13 -7 -6 -15 -8 -19 -5
-3 3 -6 -132 -6 -300 -1 -168 1 -306 4 -306 3 0 22 9 42 20 53 28 75 25 31 -5
-20 -14 -46 -25 -57 -25 -14 0 -21 -6 -21 -20 0 -14 7 -20 24 -20 37 0 55 -10
49 -27 -5 -12 -1 -14 14 -9 28 9 93 -22 86 -41 -4 -9 0 -11 11 -7 25 9 66 -4
66 -22 0 -11 5 -14 17 -10 9 4 68 -14 137 -43 67 -27 134 -53 151 -58 l30 -10
-43 -26 c-23 -15 -42 -29 -42 -32 0 -14 42 -2 76 21 l38 26 71 -20 c38 -11 90
-26 115 -32 25 -7 50 -16 55 -21 6 -4 20 -8 30 -7 11 1 61 -5 110 -13 117 -18
469 -19 486 -2 10 10 -19 11 -137 7 -103 -4 -144 -2 -134 5 27 18 0 25 -33 8
-28 -15 -43 -16 -112 -7 -128 16 -137 19 -129 42 5 18 4 19 -23 5 -31 -16 -89
-11 -148 14 -16 7 -34 14 -40 14 -43 6 -85 19 -85 25 0 4 -15 10 -32 13 -49 8
-138 40 -138 49 0 4 4 8 8 8 5 0 17 7 28 15 17 14 16 14 -13 0 -18 -8 -39 -15
-47 -15 -25 0 -136 52 -130 61 2 5 21 16 41 26 20 9 31 19 25 21 -6 2 -29 -6
-51 -17 -22 -12 -48 -21 -57 -21 -14 0 -15 2 -3 17 13 15 12 15 -8 5 -27 -15
-33 -15 -33 -2 0 6 39 30 88 53 53 26 88 49 90 59 4 23 -20 15 -71 -25 -21
-16 -40 -27 -42 -25 -10 10 84 86 126 102 25 9 54 23 65 32 18 15 17 15 -14
10 l-33 -6 20 28 c21 30 67 59 77 49 4 -4 1 -13 -6 -22 -10 -12 -10 -15 1 -15
9 0 8 -4 -3 -12 -9 -7 -19 -24 -23 -37 -8 -25 -4 -25 62 -5 10 3 -3 -6 -28
-20 -25 -13 -51 -32 -58 -40 -8 -9 -19 -16 -25 -16 -21 0 -107 -60 -101 -70
10 -16 65 1 155 46 47 24 123 56 170 73 88 31 124 36 46 6 -25 -10 -53 -26
-62 -36 -16 -18 -16 -19 8 -19 27 0 193 74 203 90 4 6 -1 13 -9 16 -9 3 -13
10 -10 15 9 14 41 10 48 -6 3 -9 18 -15 38 -15 30 0 31 -1 12 -14 -10 -8 -16
-18 -12 -22 9 -8 -83 -55 -94 -48 -5 3 -8 1 -8 -5 0 -6 -8 -8 -18 -4 -9 3 -14
3 -10 -2 4 -4 3 -14 -2 -21 -8 -9 0 -11 39 -8 35 2 76 17 138 50 78 41 173 68
159 45 -3 -4 42 -8 100 -7 87 1 102 -1 87 -11 -16 -12 -15 -13 4 -13 12 0 23
-8 26 -20 3 -11 1 -20 -4 -20 -5 0 -9 -7 -9 -15 0 -19 30 -19 58 1 12 8 26 13
31 10 5 -3 22 1 37 9 37 19 46 9 14 -15 -19 -15 -21 -20 -8 -20 9 0 18 -5 20
-11 2 -6 25 -11 51 -11 58 0 144 41 139 66 -2 11 5 16 21 16 14 0 35 8 48 18
l22 19 -39 6 c-22 4 -55 2 -74 -3 -25 -7 -31 -7 -22 2 6 6 39 12 72 14 34 2
70 6 81 9 24 8 25 -3 2 -21 -15 -12 -16 -13 -2 -8 10 3 20 1 24 -5 3 -6 1 -11
-5 -11 -13 0 -40 -25 -40 -37 0 -5 16 -7 35 -5 23 3 45 -3 68 -17 40 -24 77
-19 70 10 -3 11 0 19 6 19 7 0 9 5 6 10 -3 6 -19 10 -36 10 -16 0 -29 4 -29 9
0 14 28 21 59 15 26 -6 29 -10 27 -44 -1 -21 -8 -46 -16 -55 -12 -14 -12 -18
0 -25 12 -7 9 -11 -10 -20 -21 -9 -18 -10 23 -6 39 3 47 1 43 -11 -9 -23 4
-62 22 -65 24 -5 -178 -92 -331 -143 -71 -24 -132 -46 -135 -50 -14 -13 75 8
167 41 52 18 98 31 103 28 4 -3 8 -1 8 5 0 5 10 13 23 17 12 4 63 26 112 50
86 40 124 44 95 9 -18 -22 -8 -27 31 -14 19 6 40 13 48 15 11 4 11 7 0 20 -11
14 -11 18 2 28 9 6 14 17 12 23 -3 7 3 16 12 19 12 5 14 9 4 14 -9 6 -9 12 3
24 9 9 14 24 11 36 -3 13 0 20 8 20 10 0 10 3 1 12 -19 19 -14 28 14 28 14 0
33 7 41 16 12 12 26 14 57 9 23 -3 60 -7 84 -8 23 -1 42 -3 42 -4 0 -2 -30
-17 -67 -33 -55 -25 -72 -29 -91 -20 -30 13 -32 13 -25 -6 3 -8 -4 -26 -18
-41 -22 -24 -22 -25 -3 -15 12 6 44 9 75 6 62 -6 74 -6 109 0 14 2 28 5 32 5
3 1 4 10 1 21 -5 20 -16 23 -63 21 -25 -2 -25 -1 -5 15 11 8 55 34 99 55 43
22 76 43 73 45 -3 3 -23 -4 -46 -16 -23 -11 -41 -16 -41 -10 0 6 -9 14 -20 18
-18 7 -13 11 29 26 35 12 54 15 63 7 7 -5 32 -26 55 -46 48 -41 85 -47 143
-23 19 8 58 20 87 27 28 7 54 20 57 28 4 10 14 13 26 10 25 -6 90 10 90 23 0
5 6 7 13 5 6 -3 39 4 71 14 l59 18 -37 7 c-20 4 -46 4 -58 0 -14 -4 -18 -3
-13 5 4 8 29 10 79 5 61 -5 86 -2 168 21 83 24 96 30 95 49 0 11 3 35 7 53 7
29 4 33 -31 54 l-39 22 21 21 c31 31 99 50 124 34 24 -15 101 5 101 27 0 8 14
16 35 20 19 3 51 7 70 10 19 3 35 10 35 15 0 13 -3 13 -80 -6 -35 -8 -89 -17
-118 -19 -30 -2 -62 -11 -71 -19 -55 -49 -237 -36 -206 14 8 13 -9 20 -67 26
-29 3 -56 8 -60 11 -17 9 -7 23 25 32 67 20 109 38 101 43 -5 3 -26 11 -47 18
-49 15 -37 27 33 33 30 3 57 6 59 6 12 3 -25 31 -41 31 -10 0 -21 7 -24 15 -4
9 -12 12 -22 7 -17 -7 -74 -7 -121 1 -24 3 -43 27 -23 27 6 0 17 6 24 13 15
14 53 33 84 42 20 5 44 42 44 68 0 13 -113 14 -188 2 -42 -8 -43 -7 -37 18 6
23 3 26 -49 41 -53 16 -58 16 -81 -1 -15 -11 -24 -26 -22 -38 2 -18 9 -20 70
-20 73 0 89 -15 35 -34 -17 -6 -28 -14 -25 -18 11 -10 -32 -35 -46 -27 -6 4
-9 4 -5 -1 4 -4 0 -14 -10 -21 -15 -11 -12 -13 23 -19 65 -11 68 -12 45 -35
-11 -11 -32 -20 -47 -19 -16 0 -22 3 -15 6 6 2 12 9 12 14 0 14 -87 11 -111
-3 -17 -10 -23 -10 -26 0 -3 7 -23 12 -49 12 -62 0 -55 16 14 30 77 16 102 32
37 24 -27 -3 -63 -9 -80 -14 -79 -22 -224 -22 -210 -1 2 5 -4 16 -14 25 -14
13 -24 14 -45 6 -15 -5 -32 -7 -38 -4 -5 3 -15 -2 -22 -12 -9 -11 -31 -19 -70
-22 -55 -4 -76 8 -38 23 28 11 -26 28 -67 20 -34 -6 -32 -19 4 -28 13 -3 9 -5
-12 -6 -17 0 -35 4 -38 9 -3 6 -16 10 -28 11 -16 1 -14 3 11 10 17 5 32 14 32
19 0 6 -3 9 -7 8 -5 -1 -22 2 -40 6 -23 5 -30 12 -26 22 3 9 13 14 24 11 11
-3 17 -1 14 4 -3 4 11 19 32 32 21 13 44 32 52 41 7 9 18 16 23 16 6 0 32 21
59 48 27 26 62 52 77 57 16 6 30 15 31 20 1 10 -61 16 -90 8z m667 -419 c27
-9 53 -21 59 -25 5 -5 28 -9 52 -9 37 0 45 -4 53 -25 12 -30 -18 -134 -53
-186 -32 -48 -150 -133 -212 -153 -91 -28 -135 -19 -153 34 -9 26 -8 34 14 59
24 29 109 59 138 48 11 -4 10 2 -1 36 -28 78 -17 170 25 220 18 21 17 21 78 1z
m-2536 -539 c-7 -8 -18 -15 -24 -15 -7 0 -21 -7 -32 -16 -18 -15 -18 -15 9 -9
36 7 28 -8 -13 -25 -18 -7 -33 -22 -36 -36 -4 -13 -28 -44 -56 -69 l-49 -44
-35 16 -34 17 32 33 c42 44 32 50 -20 12 -31 -22 -48 -29 -64 -23 -22 7 -22 7
7 30 17 13 35 24 41 24 6 0 19 9 30 21 25 28 74 53 74 38 0 -6 15 -2 36 10 19
12 43 21 52 22 9 0 33 6 52 13 19 8 37 14 39 15 2 0 -2 -6 -9 -14z"/>
<path d="M3683 4976 c-18 -6 -42 -19 -53 -28 -11 -10 -23 -18 -26 -18 -3 0
-21 -15 -40 -32 -30 -29 -32 -34 -19 -44 30 -22 131 22 193 84 12 12 30 22 39
22 13 0 14 3 5 12 -16 16 -60 18 -99 4z"/>
<path d="M8023 4954 c-7 -19 75 -107 94 -100 7 3 10 -1 7 -9 -4 -8 21 -42 60
-82 36 -37 66 -71 66 -75 0 -4 17 -23 37 -42 26 -23 46 -33 65 -32 17 1 28 -3
28 -10 0 -18 39 -44 56 -37 24 9 15 37 -21 63 -20 14 -45 40 -56 58 -13 19
-27 31 -35 28 -7 -3 -16 -1 -19 4 -4 6 -15 10 -25 10 -13 0 -25 12 -33 33 -8
17 -24 40 -35 51 -12 10 -19 22 -17 26 3 4 -9 13 -25 20 -17 7 -30 16 -30 21
0 5 -11 19 -25 31 -14 12 -25 27 -25 34 0 6 -10 14 -22 18 -34 9 -38 8 -45
-10z"/>
<path d="M2638 4844 c-4 -3 -32 -16 -65 -29 -32 -13 -58 -29 -58 -34 0 -6 -9
-17 -20 -25 -11 -9 -14 -16 -7 -16 6 0 12 -7 12 -15 0 -32 108 3 164 52 32 29
35 35 24 53 -12 19 -38 27 -50 14z"/>
<path d="M11061 4827 c-1 -16 -10 -18 -68 -16 -38 1 -97 -4 -133 -10 -75 -15
-208 -56 -230 -72 -13 -10 -13 -10 0 -6 205 63 413 88 426 52 8 -20 34 -19 34
1 0 13 7 15 36 11 20 -3 38 -8 40 -10 8 -8 -18 -75 -35 -91 -18 -17 -20 -17
-41 4 -25 25 -51 12 -43 -21 6 -21 36 -42 46 -32 4 3 13 0 21 -6 12 -10 20 -4
45 32 32 48 53 61 68 46 5 -5 22 -12 38 -15 15 -3 36 -9 47 -15 23 -12 38 -4
38 22 0 12 7 19 19 19 18 0 18 -3 6 -52 -21 -82 -28 -138 -18 -138 12 0 43
109 43 150 0 16 2 30 5 30 19 0 122 -62 133 -80 8 -14 19 -19 29 -16 10 4 43
-15 91 -50 69 -52 74 -58 54 -65 -12 -5 -22 -12 -22 -17 0 -5 -11 -21 -25 -36
-29 -31 -27 -49 10 -107 28 -44 30 -52 20 -105 l-7 -42 -58 3 c-53 3 -67 9
-137 59 -43 30 -133 83 -200 117 -68 34 -123 65 -123 70 0 5 -20 9 -44 9 -25
0 -48 5 -51 11 -4 5 3 37 15 70 13 33 21 62 18 64 -4 4 -73 -95 -80 -115 -2
-6 -17 -8 -36 -4 -23 5 -31 11 -28 21 3 8 1 23 -4 33 -15 27 -43 14 -37 -16 3
-18 0 -24 -14 -24 -73 0 -54 39 42 83 62 30 79 42 79 59 0 18 -4 20 -32 14
-17 -3 -39 -12 -47 -20 -20 -17 -154 -76 -173 -76 -8 0 -19 5 -26 12 -8 8 -12
8 -12 1 0 -26 -31 -21 -52 10 -16 21 -32 33 -51 34 -31 2 -30 4 -10 -83 5 -24
-24 -41 -41 -24 -16 16 -36 12 -36 -9 0 -15 -10 -19 -57 -24 -61 -6 -78 1 -89
36 -4 11 -16 29 -28 38 -19 16 -23 16 -38 2 -10 -9 -18 -22 -18 -30 0 -7 -4
-13 -9 -13 -5 0 -11 -9 -14 -20 -3 -11 -17 -24 -31 -30 -19 -7 -26 -17 -26
-37 -1 -25 -10 -33 -98 -75 -53 -26 -140 -75 -192 -108 l-95 -60 80 76 c43 42
91 81 106 86 14 5 31 19 37 32 10 22 142 127 240 191 23 15 40 30 38 33 -3 3
-17 -3 -30 -12 -33 -21 -39 -20 -24 4 9 14 10 25 2 37 -30 48 -74 42 -74 -10
0 -27 5 -36 27 -46 l26 -12 -24 -16 c-13 -9 -59 -43 -102 -76 l-77 -58 6 43
c11 68 10 71 -16 85 -31 16 -36 4 -46 -103 l-7 -78 -63 -58 c-102 -96 -115
-104 -126 -85 -5 9 -9 18 -9 19 0 2 -4 19 -8 39 -5 21 -5 42 -1 49 14 22 -9
104 -35 125 -24 20 -37 63 -71 235 -6 30 -32 60 -51 60 -11 0 -19 -36 -13 -65
1 -5 6 -30 11 -55 5 -25 12 -63 15 -85 3 -22 8 -47 11 -55 2 -8 6 -38 7 -65 2
-48 1 -50 -23 -50 -23 0 -26 -4 -24 -29 1 -18 13 -38 29 -51 l27 -21 -32 -14
c-20 -8 -42 -30 -59 -59 -24 -41 -27 -57 -28 -140 -1 -75 -4 -96 -17 -106 -9
-7 -15 -14 -12 -16 2 -3 -4 -5 -13 -6 -9 -1 -47 -10 -84 -21 l-68 -19 0 32 c0
31 -24 71 -63 107 -22 20 -47 13 -47 -13 0 -32 -1 -34 -21 -41 -26 -10 -20
-32 9 -36 17 -3 22 2 23 20 0 21 2 21 16 -8 8 -16 28 -39 44 -49 l28 -20 -22
-11 c-12 -6 -37 -15 -56 -19 -31 -7 -33 -6 -28 15 4 16 2 20 -8 16 -8 -3 -17
-1 -20 4 -4 6 -15 10 -27 10 -15 0 -18 -4 -12 -17 4 -10 7 -28 7 -40 -1 -13 4
-23 11 -23 6 0 0 -10 -14 -21 -24 -19 -24 -20 -2 -9 31 15 59 6 42 -14 -9 -11
-9 -20 0 -37 11 -19 7 -27 -41 -75 -29 -29 -55 -51 -59 -49 -4 2 -12 -6 -19
-18 -12 -22 -63 -46 -111 -51 -14 -2 -27 -4 -30 -5 -3 0 11 -16 31 -34 46 -41
65 -75 50 -90 -19 -19 -12 -31 8 -13 18 17 20 17 41 -4 20 -20 20 -23 6 -45
-13 -20 -13 -23 -2 -19 17 6 36 -24 36 -57 0 -12 10 -37 21 -56 26 -41 18 -51
-36 -46 -33 4 -45 11 -63 39 l-23 35 28 37 c15 20 18 29 8 20 -17 -16 -19 -15
-46 26 -26 42 -77 87 -111 99 -15 5 -18 1 -18 -23 0 -25 -4 -30 -24 -30 -14 0
-31 8 -38 18 -13 17 -36 30 -96 53 -31 11 -35 10 -60 -16 -24 -24 -24 -26 -5
-16 17 9 30 8 57 -6 20 -9 36 -23 36 -30 0 -7 9 -13 21 -13 14 0 19 -5 16 -14
-3 -8 0 -20 8 -26 8 -6 17 -26 21 -43 7 -35 41 -72 64 -72 9 0 16 -11 18 -27
2 -16 -2 -28 -7 -28 -7 0 -10 -19 -9 -45 1 -25 4 -42 7 -38 8 11 87 16 117 9
27 -7 48 -48 39 -76 -7 -23 -48 -40 -95 -40 -42 0 -55 -18 -20 -27 32 -8 23
-26 -10 -21 -27 4 -31 1 -38 -26 -11 -44 -48 -47 -86 -7 -26 27 -27 32 -15 48
13 17 13 17 -5 3 -11 -8 -38 -15 -60 -16 -71 -2 -76 -3 -76 -23 0 -23 16 -37
22 -19 8 23 36 0 31 -26 -4 -20 -9 -23 -26 -17 -12 5 -37 4 -55 -1 -43 -12
-62 2 -41 29 13 16 12 17 -3 4 -15 -11 -22 -11 -43 3 -25 16 -34 36 -16 36 5
0 14 -7 21 -15 7 -8 16 -15 21 -15 17 0 9 22 -23 66 -25 35 -34 41 -45 32 -20
-17 -28 -1 -13 27 16 29 40 34 33 6 -5 -21 0 -25 40 -35 20 -5 27 -3 27 8 0
19 27 28 34 10 11 -29 25 -12 38 48 l13 62 36 -32 c58 -51 69 -44 46 29 -20
59 -20 61 -2 97 10 20 19 44 19 52 1 8 8 15 16 15 9 0 14 8 12 20 -2 11 -4 27
-5 36 -5 36 -64 62 -74 32 -2 -6 -19 -9 -38 -7 -28 2 -34 -2 -37 -18 -3 -20
-5 -19 -34 8 -18 16 -45 36 -60 45 -32 19 -72 72 -79 103 -14 71 -16 76 -36
76 -18 0 -19 -4 -13 -50 4 -27 4 -57 0 -66 -6 -16 -8 -15 -26 1 -19 17 -20 17
-30 -10 -9 -22 -7 -31 6 -47 37 -40 -47 -60 -89 -20 -12 11 -34 25 -49 31 -23
9 -27 7 -32 -15 -11 -41 38 -88 92 -91 26 -2 42 1 42 8 0 8 4 8 15 -1 22 -18
1 -53 -27 -44 -25 8 -38 -10 -38 -52 0 -21 -7 -36 -22 -46 -16 -11 -22 -24
-21 -50 l1 -35 -34 10 c-18 5 -31 14 -27 20 3 5 -5 3 -17 -3 -23 -12 -23 -13
11 -27 19 -8 49 -28 67 -46 18 -18 36 -30 39 -27 3 3 7 -2 9 -12 3 -23 -33
-78 -52 -78 -13 0 -14 -3 -4 -15 8 -10 9 -28 4 -57 -4 -24 -6 -56 -5 -71 1
-21 -4 -30 -18 -34 -18 -4 -18 -8 -6 -36 11 -26 11 -39 1 -68 -12 -34 -8 -71
7 -70 4 1 7 4 6 7 -1 13 26 24 59 24 17 0 32 -4 32 -8 0 -15 -86 -92 -102 -92
-8 0 -18 -10 -20 -22 -4 -22 -2 -23 46 -19 46 3 48 4 31 17 -10 8 -23 14 -29
14 -6 0 14 25 44 56 47 47 59 54 83 50 28 -6 33 4 28 55 -1 8 8 24 20 35 19
16 21 16 16 2 -4 -11 8 -32 36 -62 l42 -45 -25 -31 c-19 -23 -28 -28 -37 -19
-8 8 -14 6 -22 -10 -10 -17 -9 -21 5 -21 11 0 5 -13 -23 -47 -49 -60 -64 -85
-35 -60 11 10 33 36 48 58 15 21 33 39 40 39 8 0 14 7 14 16 0 8 12 31 26 50
23 29 31 34 61 30 18 -2 37 -6 40 -10 9 -9 13 -36 5 -34 -14 4 -72 -21 -72
-31 0 -24 14 -41 34 -41 12 0 31 -7 42 -15 27 -21 35 -18 28 9 -4 19 -1 24 20
28 31 6 41 0 51 -32 4 -14 16 -34 26 -45 13 -14 15 -25 9 -35 -5 -8 -10 -28
-10 -45 -1 -27 -2 -28 -10 -8 -11 28 -50 41 -61 20 -6 -9 -17 -13 -30 -10 -18
5 -20 3 -15 -15 8 -24 -2 -32 -41 -33 -53 -3 -64 -9 -53 -29 14 -26 13 -30 -5
-23 -9 3 -15 2 -14 -3 5 -29 -3 -34 -62 -34 -60 0 -60 0 -57 -27 2 -19 10 -29
30 -34 19 -5 27 -3 25 4 -3 19 75 20 98 3 l20 -15 -20 -2 c-11 0 -33 0 -50 1
-26 1 -30 -2 -32 -27 -2 -44 11 -52 82 -47 35 2 66 0 70 -5 9 -16 35 -1 35 20
0 11 7 19 18 20 75 4 136 23 166 50 11 11 31 18 45 17 14 -1 37 4 50 11 15 8
21 9 17 2 -4 -6 9 -4 29 6 26 12 35 22 32 35 -6 22 6 32 63 53 79 29 85 29
122 -3 33 -29 35 -30 46 -11 13 21 33 26 30 7 -2 -6 10 -18 25 -26 22 -11 26
-18 21 -35 -10 -35 -22 -43 -43 -30 -26 17 -60 5 -67 -23 -5 -18 -13 -24 -33
-23 -67 4 -64 12 -47 -126 3 -24 0 -43 -7 -48 -8 -5 -3 -15 16 -32 30 -26 47
-25 47 3 0 11 3 13 10 6 14 -14 106 9 103 25 -4 18 26 0 32 -20 5 -15 13 -17
38 -12 47 8 62 25 47 53 l-12 22 31 -18 c27 -16 35 -17 52 -6 32 21 31 9 -3
-32 -30 -37 -31 -39 -13 -52 25 -19 50 -18 70 3 41 40 44 120 4 110 -27 -7
-11 12 29 35 29 17 31 17 56 -3 14 -11 39 -22 54 -23 43 -3 53 -13 42 -42 -14
-35 -12 -108 2 -122 8 -8 8 -12 1 -12 -19 0 -22 -38 -3 -55 15 -13 23 -14 39
-5 28 14 27 44 -1 58 -14 6 -17 11 -8 11 21 1 80 71 80 95 0 20 0 20 16 -2 19
-28 44 -28 51 -1 4 12 11 18 20 15 8 -3 26 -6 39 -6 19 0 26 -6 30 -29 8 -38
52 -81 63 -62 5 7 11 12 15 12 23 -3 32 2 44 26 6 15 12 35 12 44 0 25 -30 51
-51 46 -22 -6 -23 -3 -7 22 9 15 8 24 -5 45 -10 14 -24 26 -32 26 -8 0 -15 6
-15 13 0 8 -3 7 -10 -3 -8 -12 -10 -12 -15 2 -15 40 22 51 57 16 27 -27 93
-33 141 -13 34 14 35 16 26 47 -12 42 3 56 30 29 24 -24 34 -26 61 -9 26 17
36 3 23 -32 -9 -24 -8 -32 8 -46 19 -17 21 -17 41 4 19 18 20 23 7 38 -13 16
-12 17 14 10 24 -6 27 -4 27 19 0 17 -7 28 -22 34 -19 7 -19 8 -4 14 14 5 16
14 12 33 -4 15 -2 32 5 40 6 7 8 22 5 31 -4 12 2 9 17 -8 22 -25 71 -37 82
-19 3 5 12 7 19 4 8 -3 17 -1 21 5 3 6 11 11 17 11 6 0 1 -11 -11 -24 -13 -13
-24 -39 -25 -60 -3 -28 3 -42 30 -72 19 -20 34 -33 34 -29 0 5 8 1 18 -8 14
-13 25 -14 57 -6 22 5 48 12 59 14 27 6 46 25 46 45 0 23 19 37 48 34 13 -1
26 5 29 14 8 19 -31 52 -62 52 -13 0 -30 6 -37 13 -7 6 -20 13 -28 15 -8 2
-18 8 -21 14 -3 5 -10 10 -15 10 -5 0 -15 3 -22 5 -7 3 -26 3 -42 1 -31 -5
-44 17 -16 28 8 3 17 16 20 29 8 30 43 52 59 36 16 -16 38 -14 51 5 10 14 14
14 41 0 17 -9 39 -16 51 -16 11 0 31 -11 44 -25 12 -13 27 -22 32 -19 11 7 34
-17 43 -46 11 -37 55 -80 82 -80 16 0 27 8 33 24 10 26 38 40 63 30 10 -4 16
-22 19 -60 1 -30 0 -54 -3 -54 -3 0 -11 -11 -17 -25 -12 -26 -4 -37 30 -42 21
-3 42 32 33 55 -3 9 -3 13 1 10 8 -8 28 10 36 34 4 10 -1 23 -13 34 -31 28
-22 40 39 54 85 20 92 25 92 70 0 22 5 40 10 40 6 0 10 -6 10 -13 0 -19 50
-36 100 -33 41 2 45 5 48 30 5 39 -13 56 -52 49 -21 -3 -36 0 -44 10 -13 15
-62 12 -62 -4 0 -24 -18 -4 -29 32 -11 37 -11 43 8 63 11 12 26 36 32 54 6 18
18 32 26 32 8 0 13 7 11 17 -5 25 -74 38 -95 17 -10 -9 -25 -13 -39 -10 -12 3
-24 2 -26 -4 -5 -17 -72 -20 -90 -3 -15 13 -19 12 -37 -6 -12 -12 -32 -22 -46
-22 -14 -1 -31 -2 -37 -3 -17 -3 -38 13 -38 28 0 6 5 3 11 -7 11 -18 12 -18
30 2 11 11 25 18 33 15 8 -3 16 4 19 16 3 12 10 19 16 16 5 -4 16 3 24 15 16
22 18 20 43 -26 9 -19 27 -21 62 -10 10 4 10 10 2 24 -5 11 -10 27 -10 36 0
14 6 16 38 10 20 -4 42 -11 48 -16 17 -14 32 11 29 51 -4 60 17 81 42 41 19
-30 62 -36 93 -12 l27 20 29 -30 c15 -16 31 -29 36 -29 16 0 7 19 -22 48 -16
17 -30 40 -30 52 0 32 -18 60 -39 60 -11 0 -22 7 -25 15 -3 9 -22 23 -42 31
-38 16 -42 41 -4 36 12 -2 37 -12 54 -22 43 -24 78 -21 91 8 7 16 16 21 30 18
23 -6 85 14 85 27 0 4 -4 6 -9 3 -5 -4 -7 3 -4 14 3 12 0 20 -6 20 -7 0 -9 5
-6 11 5 7 15 5 32 -6 18 -12 28 -14 38 -5 7 6 17 10 21 9 26 -4 35 2 29 21 -5
17 -2 19 26 16 17 -2 34 -8 38 -12 5 -8 30 -10 73 -6 16 2 35 37 29 56 -1 5 4
4 12 -2 8 -7 22 -10 31 -6 14 5 16 26 15 148 0 88 -4 131 -9 114 -4 -14 -11
-32 -15 -39 -13 -20 -15 -81 -5 -118 9 -32 8 -33 -10 -16 -10 9 -24 14 -29 10
-6 -3 -11 -2 -11 3 0 10 -86 10 -96 -1 -14 -14 -69 -7 -101 13 -46 28 -59 57
-37 81 23 26 42 24 56 -6 16 -36 33 -25 33 20 0 37 -2 40 -39 49 -26 6 -45 5
-57 -2 -14 -9 -16 -8 -12 9 3 10 0 33 -7 49 -11 27 -11 32 6 45 11 8 26 12 35
9 9 -2 25 3 35 13 9 10 22 18 28 18 28 2 65 26 71 47 4 13 27 46 51 75 24 28
44 58 44 67 0 9 4 16 9 16 9 0 12 -8 27 -62 4 -13 0 -18 -15 -18 -12 0 -21 -7
-21 -15 0 -18 26 -20 33 -2 2 6 7 0 11 -15 18 -82 21 -76 24 52 4 147 -9 229
-40 257 -16 14 -21 15 -44 3 -22 -12 -27 -12 -34 0 -18 28 -10 35 34 30 18 -2
61 32 77 62 13 23 1 47 -21 43 -11 -2 -20 4 -23 17 -7 27 -41 20 -45 -10 -3
-17 2 -22 19 -22 22 0 22 -1 -6 -30 -21 -22 -32 -27 -41 -19 -9 7 -15 5 -23
-8 -9 -16 -15 -13 -62 34 -52 51 -53 53 -35 72 16 18 17 24 6 51 -11 28 -10
36 14 79 14 27 26 61 26 76 0 22 3 26 18 20 33 -14 56 -11 60 9 5 23 -23 47
-44 39 -10 -4 -14 3 -14 25 0 17 -3 39 -6 49 -4 10 30 -18 75 -62 44 -44 81
-84 81 -90 0 -6 7 -20 15 -31 13 -17 14 -14 14 41 0 52 -1 58 -13 42 -12 -15
-24 -7 -127 96 -63 62 -153 141 -201 176 -49 35 -88 67 -88 72 0 5 -6 9 -12 9
-7 0 -50 17 -95 37 -76 35 -83 40 -84 68 -1 17 -1 33 0 38 0 4 -6 7 -14 7 -8
0 -15 3 -15 8 0 4 -45 7 -100 7 -93 0 -99 -1 -94 -19 5 -15 3 -18 -11 -13 -9
4 -29 7 -45 7 -19 0 -30 6 -33 18 -4 16 -5 16 -6 -1z m-215 -358 c4 -7 9 -8
13 -1 5 8 139 -3 149 -13 8 -7 -91 -188 -113 -207 -16 -13 -25 -32 -25 -50 0
-33 -3 -33 -80 -11 -50 15 -58 21 -55 38 3 11 -4 31 -15 45 -17 22 -22 23 -40
12 -16 -10 -20 -10 -21 0 0 7 -13 24 -30 36 -55 44 -73 -14 -22 -70 15 -17 10
-17 -87 -14 -105 3 -132 14 -107 44 9 12 12 11 17 -4 6 -17 8 -17 18 3 7 12
12 32 12 45 0 13 5 30 10 38 9 13 13 12 28 -5 18 -22 43 -27 49 -10 2 6 -10
24 -27 40 -53 50 -42 67 51 79 38 6 48 3 64 -14 19 -21 46 -21 84 0 16 8 21 8
21 -2 1 -8 5 -7 14 4 7 10 16 15 19 11 4 -3 7 -1 7 5 0 15 57 16 66 1z m265
-50 c11 -11 28 -19 37 -18 36 5 82 -12 82 -31 0 -10 10 -26 22 -35 21 -14 24
-14 35 1 13 18 35 10 27 -10 -3 -8 0 -17 7 -22 9 -5 10 -2 6 9 -10 26 7 20 85
-29 120 -76 158 -111 158 -144 0 -31 -13 -45 -32 -34 -6 4 -37 9 -67 11 -41 2
-63 -3 -87 -18 -31 -19 -35 -19 -57 -4 -32 21 -52 11 -70 -34 -12 -29 -21 -37
-44 -39 -37 -3 -267 110 -253 124 12 12 -4 39 -19 30 -6 -4 -11 -14 -11 -21 0
-9 -6 -12 -15 -9 -13 5 -12 12 7 43 12 20 23 38 24 40 2 2 10 -2 18 -8 8 -7
20 -10 26 -6 13 8 13 52 0 60 -19 12 -10 42 30 103 42 66 58 74 91 41z m-959
-190 c20 -15 17 -17 -48 -33 -38 -10 -96 -29 -129 -42 -33 -14 -73 -29 -88
-34 -26 -8 -28 -7 -25 13 2 16 35 42 123 94 l119 73 14 -28 c8 -15 23 -34 34
-43z m451 -23 c59 -8 110 -15 112 -17 2 -2 0 -23 -5 -46 -7 -41 -6 -43 17 -43
29 0 39 21 23 50 -6 12 -9 24 -7 27 3 3 30 -2 61 -11 l55 -16 -15 -38 c-9 -20
-29 -51 -45 -67 -24 -25 -27 -34 -17 -44 8 -8 8 -11 2 -8 -7 4 -17 -6 -24 -22
-6 -17 -17 -28 -24 -25 -7 3 -18 -5 -24 -18 -11 -21 -12 -21 -6 9 4 23 0 36
-15 50 -11 10 -27 36 -36 56 -13 32 -20 37 -43 35 -22 -2 -28 1 -30 22 -5 28
-49 74 -58 59 -3 -5 -1 -15 4 -22 5 -7 13 -23 17 -37 l7 -25 -25 24 -25 23 -4
-26 c-2 -15 -7 -26 -11 -26 -17 2 -39 -32 -35 -54 4 -18 1 -22 -13 -19 -9 3
-19 16 -22 29 -2 13 -1 21 3 19 8 -5 11 24 12 113 l0 62 32 0 c17 -1 80 -7
139 -14z m-280 -2 c-14 -6 -5 -35 14 -47 7 -4 13 -15 13 -24 0 -13 3 -13 15
-3 9 8 15 9 15 2 0 -6 -4 -13 -8 -16 -5 -3 -9 -22 -10 -42 -2 -50 -16 -63 -42
-39 -14 13 -17 22 -10 30 13 15 2 47 -14 42 -6 -3 -18 1 -26 9 -12 10 -18 10
-34 -1 -17 -13 -17 -15 10 -51 l29 -37 -35 7 c-19 4 -70 9 -112 13 -72 6 -79
8 -114 44 -21 21 -35 41 -32 44 11 12 181 56 196 51 9 -3 28 1 42 9 14 8 45
14 70 14 25 0 40 -3 33 -5z m660 -103 c26 -11 47 -25 47 -31 0 -6 4 -9 10 -5
14 9 112 -44 107 -58 -2 -7 -12 -12 -23 -12 -14 0 -20 -9 -24 -35 -4 -27 -10
-36 -29 -38 -21 -3 -23 -1 -17 24 6 22 1 33 -25 60 -37 38 -54 42 -80 18 -25
-22 -46 -12 -54 28 -4 18 -12 36 -17 39 -5 3 -6 14 -2 23 8 21 35 18 107 -13z
m-765 -78 c62 -7 79 -27 60 -68 -7 -15 -17 -24 -25 -21 -8 3 -13 -2 -13 -15 0
-28 -29 -81 -40 -74 -6 4 -10 24 -10 45 0 28 -5 40 -17 43 -11 3 -7 5 10 6 15
0 27 6 27 13 0 16 -31 48 -47 48 -7 0 -13 5 -13 11 0 5 -5 7 -11 3 -6 -4 -9
-19 -5 -36 4 -20 1 -30 -9 -34 -9 -4 -15 -19 -15 -35 0 -16 -2 -29 -5 -29 -3
0 -38 9 -77 20 -80 22 -118 25 -118 10 0 -5 12 -12 28 -16 15 -3 50 -12 79
-20 51 -14 52 -15 41 -39 -9 -21 -8 -28 7 -46 32 -34 27 -214 -5 -194 -25 15
-29 -9 -6 -32 30 -30 43 -24 52 23 4 20 14 38 23 42 9 3 19 10 23 16 4 6 8
-13 8 -41 0 -46 -3 -53 -20 -53 -21 0 -27 -15 -10 -25 6 -3 18 2 28 11 16 17
17 17 20 -4 4 -28 22 -29 22 -2 0 19 24 26 68 21 7 -1 12 9 12 24 0 18 12 37
35 58 19 17 35 37 35 45 0 12 3 12 16 2 35 -30 35 -47 2 -107 -34 -63 -51 -83
-67 -83 -6 0 -11 -6 -11 -13 0 -7 -16 -28 -35 -47 l-34 -33 -10 24 c-10 24
-10 24 -10 2 -1 -32 -36 -30 -66 5 -13 15 -25 32 -25 37 0 6 -25 30 -55 55
-42 35 -55 51 -55 73 0 17 -5 27 -14 27 -26 0 -76 35 -76 53 0 12 -6 17 -17
15 -13 -2 -18 -13 -18 -33 0 -17 5 -30 10 -31 29 -2 45 -18 45 -45 0 -19 4
-27 13 -24 7 3 47 -28 90 -69 l78 -74 -33 -19 -33 -19 -37 56 c-36 53 -88 98
-135 120 -27 11 -30 35 -7 48 18 10 10 34 -9 31 -43 -5 -48 0 -43 50 4 42 1
52 -20 72 -17 16 -24 33 -24 60 0 21 4 41 10 44 5 3 9 21 8 40 -2 60 47 89
101 60 27 -13 31 -13 45 1 9 8 16 27 16 41 0 25 0 25 18 5 9 -11 27 -23 39
-26 17 -5 24 -1 34 24 13 28 17 30 69 30 30 0 79 -3 108 -7z m292 -105 c6 -24
17 -55 25 -70 8 -14 15 -39 15 -55 0 -16 6 -35 12 -41 10 -10 10 -15 1 -20 -8
-5 -9 -19 -3 -46 10 -48 -5 -36 -35 27 -11 23 -27 42 -35 42 -8 0 -24 11 -34
23 -15 19 -25 23 -52 18 -37 -7 -46 1 -37 33 3 14 11 20 19 17 8 -3 21 -9 29
-12 9 -4 15 -1 15 7 1 8 14 29 29 47 18 21 27 41 24 53 -3 10 0 19 5 19 6 0
16 -19 22 -42z m-975 -29 c-4 -6 2 -5 14 3 28 17 41 3 52 -58 l9 -49 -57 -57
c-51 -51 -63 -58 -103 -60 -37 -3 -45 0 -42 14 1 9 -2 19 -8 23 -5 3 -10 -3
-10 -14 0 -16 -6 -21 -25 -21 -27 0 -32 9 -13 28 9 9 9 12 1 12 -7 0 -15 -5
-19 -12 -5 -8 -10 -6 -15 8 -4 13 0 27 15 44 20 24 20 24 0 7 -11 -9 -23 -17
-25 -17 -9 0 -8 40 2 45 5 4 9 2 9 -4 0 -6 6 -8 14 -5 8 3 17 1 20 -4 3 -6 18
2 34 17 15 15 38 34 51 44 14 9 22 19 19 22 -3 3 -22 -8 -43 -25 -20 -16 -42
-27 -47 -24 -12 8 71 62 122 80 44 16 53 17 45 3z m-756 -1146 c37 5 61 -6 61
-26 0 -5 -7 -4 -15 3 -9 8 -15 9 -15 2 0 -6 4 -13 9 -16 5 -3 7 -28 5 -56 -3
-41 0 -51 16 -60 17 -9 20 -7 20 14 0 22 3 24 22 17 27 -10 45 -61 22 -61 -9
0 -12 -4 -9 -10 3 -5 1 -10 -4 -10 -6 0 -20 -9 -31 -20 -25 -25 -39 -19 -32
15 3 17 0 25 -9 25 -11 0 -11 2 -2 8 24 15 -11 46 -53 49 -29 1 -45 9 -61 30
-13 15 -27 28 -32 28 -19 0 -22 13 -9 34 9 15 20 20 35 16 12 -3 25 -1 28 5 3
5 1 10 -4 10 -6 0 -11 5 -11 11 0 8 5 8 15 -1 9 -8 30 -11 54 -7z"/>
<path d="M7533 4676 c4 -10 2 -26 -3 -37 -7 -13 -7 -25 0 -38 11 -21 -1 -23
-30 -7 -12 7 -13 6 -2 -5 18 -20 15 -31 -8 -24 -29 9 -26 -26 5 -55 23 -22 25
-22 50 -6 15 10 33 15 40 12 18 -7 25 16 18 57 -3 19 0 43 6 54 13 25 -8 47
-53 59 -25 6 -28 5 -23 -10z"/>
<path d="M11757 4660 c-10 -15 -17 -39 -17 -53 0 -25 22 -52 33 -41 3 3 10 -4
17 -15 14 -27 31 -26 64 4 17 16 26 34 26 54 0 25 -6 33 -37 46 -21 9 -45 20
-54 25 -12 6 -20 1 -32 -20z"/>
<path d="M7058 4619 c-10 -6 -18 -16 -18 -24 0 -19 29 -47 42 -39 6 4 6 -1 -1
-14 -33 -62 3 -181 53 -178 14 0 26 3 27 6 5 27 3 92 -3 96 -10 6 -11 74 0 73
21 -4 32 3 32 20 0 23 -36 52 -55 44 -8 -2 -24 2 -37 11 -16 10 -28 12 -40 5z"/>
<path d="M8580 4564 c-6 -14 -10 -28 -10 -31 0 -11 75 -83 87 -83 14 0 36 -37
29 -48 -4 -7 36 -74 91 -152 10 -14 27 -43 38 -65 10 -22 29 -54 40 -71 31
-46 88 -164 83 -170 -3 -2 -17 0 -32 6 -37 14 -46 6 -44 -38 3 -66 60 -93 98
-45 11 15 24 22 28 17 5 -5 28 -33 51 -61 46 -57 61 -65 61 -32 0 11 5 17 10
14 13 -8 -46 103 -67 127 -9 10 -13 24 -10 32 3 8 -8 28 -29 48 -18 18 -34 37
-34 42 0 5 -16 31 -35 57 -19 27 -35 51 -35 54 0 3 -8 15 -19 26 -10 11 -29
40 -41 65 -13 24 -29 49 -37 55 -7 6 -13 18 -13 26 0 7 -7 16 -15 19 -8 3 -17
14 -20 25 -4 10 -13 19 -20 19 -19 0 -47 42 -36 53 6 6 0 20 -15 36 -13 14
-24 31 -24 37 0 11 -52 64 -63 64 -4 0 -12 -12 -17 -26z"/>
<path d="M8334 4530 c-12 -5 -24 -13 -28 -18 -17 -27 54 -158 80 -148 7 3 20
-14 30 -37 20 -46 53 -87 70 -87 6 0 21 -11 34 -25 13 -14 20 -25 16 -25 -5 0
7 -18 25 -39 19 -22 48 -57 64 -79 25 -32 71 -65 95 -67 3 0 10 -4 17 -8 19
-12 25 29 9 61 -8 16 -22 34 -30 41 -9 8 -16 18 -16 23 0 6 -13 26 -30 45 -16
18 -30 41 -30 51 0 13 2 14 9 4 4 -7 15 -14 25 -16 9 -1 32 -19 51 -40 37 -40
68 -45 73 -11 2 13 -11 33 -33 55 -19 18 -35 39 -35 45 0 19 -46 56 -61 50 -9
-3 -39 19 -78 60 -35 36 -67 65 -72 65 -4 0 -12 -7 -17 -17 -8 -14 -12 -11
-26 19 -39 82 -92 118 -142 98z"/>
<path d="M4704 4350 c-17 -6 -16 -8 6 -14 29 -9 157 -60 215 -86 22 -10 71
-33 109 -50 38 -17 75 -38 83 -48 8 -9 12 -11 8 -4 -9 18 281 -131 345 -178
52 -38 53 -40 26 -40 -27 0 -28 -2 -24 -39 3 -34 1 -38 -14 -30 -10 6 -19 5
-23 -1 -9 -15 6 -59 25 -73 13 -9 18 -32 23 -94 l5 -82 -59 51 c-32 29 -59 56
-59 61 0 11 -48 59 -82 81 -16 10 -28 27 -28 37 0 12 -15 26 -41 39 l-40 21
-17 -20 c-16 -19 -44 -26 -83 -23 -18 2 -39 42 -39 76 0 13 9 31 20 41 13 11
18 25 14 37 -7 22 7 23 46 3 42 -22 46 -1 4 24 -19 12 -38 21 -41 21 -4 0 -15
8 -25 17 -17 15 -19 15 -32 -2 -10 -14 -26 -19 -62 -19 -27 1 -52 -4 -56 -9
-4 -6 -33 14 -68 46 -34 31 -65 57 -69 57 -11 0 -133 149 -135 166 -4 24 -22
36 -52 32 -28 -3 -29 -4 -32 -70 -3 -65 -4 -68 -27 -68 -14 0 -25 -4 -25 -9 0
-5 9 -7 21 -4 21 6 39 -10 39 -35 0 -9 -8 -7 -27 5 -19 13 -28 14 -31 5 -5
-17 -47 -15 -62 2 -8 11 -18 12 -35 6 -12 -5 -33 -6 -46 -3 -22 6 -23 5 -10
-11 14 -16 12 -17 -22 -11 -54 10 -45 -1 16 -19 28 -9 63 -25 76 -35 l25 -19
-35 -15 c-23 -9 -47 -32 -67 -63 -17 -27 -40 -55 -52 -62 -24 -14 -26 -32 -5
-32 8 0 15 -6 15 -14 0 -15 -20 -26 -53 -27 -21 0 -21 -1 2 -10 15 -6 21 -14
17 -25 -3 -9 -6 -19 -6 -22 0 -4 -9 4 -19 17 -15 20 -21 22 -39 12 -50 -27
-120 4 -149 66 l-18 38 -90 -1 c-102 -2 -156 -11 -154 -28 1 -6 -1 -23 -5 -37
-5 -18 -1 -36 15 -63 26 -45 20 -55 -56 -83 -42 -16 -51 -23 -55 -48 l-5 -30
-98 -6 c-54 -4 -101 -10 -105 -14 -4 -4 41 -4 101 0 111 8 113 7 107 -34 -2
-18 84 -10 164 15 46 14 55 21 50 36 -4 13 3 21 28 32 72 30 111 38 155 31 38
-5 45 -4 50 12 4 16 106 73 130 73 14 0 43 -34 43 -49 0 -9 -12 -12 -40 -9
-22 2 -40 2 -40 0 0 -2 9 -15 20 -29 22 -28 27 -78 9 -89 -7 -4 -43 -7 -80 -7
-38 0 -66 -4 -63 -8 3 -5 22 -9 43 -9 44 0 63 -16 54 -48 -5 -19 -1 -22 23
-22 16 0 38 -3 50 -6 12 -3 27 1 37 10 24 25 40 20 34 -10 -8 -44 22 -132 55
-159 23 -20 41 -25 81 -25 51 0 128 27 141 49 4 6 20 11 35 11 15 0 32 5 39
12 14 14 130 -32 157 -62 9 -10 30 -22 46 -25 16 -4 38 -20 50 -36 13 -19 29
-29 45 -29 14 0 36 -7 49 -16 21 -13 25 -14 25 -2 0 7 -25 29 -55 47 -62 38
-80 62 -80 106 0 23 -5 31 -22 33 -25 4 -31 -16 -11 -36 9 -9 7 -13 -6 -18
-10 -4 -54 12 -111 40 -52 25 -100 46 -105 46 -7 0 -10 27 -8 71 2 66 3 70 23
64 37 -12 70 -11 87 3 12 10 25 11 54 3 36 -10 39 -9 66 23 37 45 68 51 145
30 50 -14 69 -15 89 -5 17 7 31 8 44 1 10 -5 31 -10 46 -10 l27 0 -24 27 c-13
15 -16 21 -7 14 10 -7 33 -17 53 -21 30 -7 38 -5 54 15 l18 24 59 -61 c32 -33
52 -57 44 -52 -8 4 -29 7 -47 6 -18 -2 -33 2 -33 8 0 5 5 10 11 10 5 0 7 5 4
10 -12 20 -85 9 -85 -13 0 -6 11 -22 25 -37 16 -17 23 -32 19 -47 -5 -19 -12
-20 -70 -18 -65 4 -76 -2 -49 -25 8 -7 15 -16 15 -21 0 -5 -28 11 -61 36 -34
25 -64 44 -66 42 -9 -10 12 -38 43 -58 18 -11 42 -31 53 -45 10 -13 23 -24 28
-24 5 0 17 -6 28 -13 16 -13 15 -14 -14 -9 -20 3 -40 15 -53 33 -17 23 -24 26
-40 18 -11 -6 -17 -13 -14 -16 3 -3 0 -15 -5 -26 -26 -48 36 -91 116 -81 l43
6 5 -43 c4 -41 2 -46 -39 -86 -43 -40 -45 -41 -66 -24 l-21 18 24 -1 c17 -1
25 5 27 20 4 25 -34 47 -74 42 -22 -2 -30 -9 -32 -28 -3 -26 -1 -28 191 -161
5 -4 0 -28 -12 -54 l-21 -48 -23 20 c-31 29 -99 60 -119 55 -27 -6 -21 -31 10
-45 15 -6 31 -18 36 -25 4 -8 24 -20 43 -29 19 -8 33 -16 30 -19 -3 -3 -37 11
-76 30 -49 25 -71 32 -71 23 0 -14 143 -87 170 -87 7 0 42 -16 77 -35 40 -22
63 -30 63 -22 0 7 -16 19 -36 26 -21 8 -34 18 -31 26 3 7 -3 26 -13 43 -18 29
-18 34 -5 67 9 19 19 35 23 35 5 0 18 -13 30 -30 32 -43 58 -39 53 6 -1 6 5
17 13 23 8 7 12 19 10 26 -4 10 0 12 15 8 12 -3 21 -9 21 -13 0 -4 18 -15 39
-23 22 -9 43 -22 47 -28 5 -9 2 -10 -10 -6 -16 6 -17 2 -11 -31 4 -27 0 -58
-14 -100 -26 -75 -26 -76 -1 -69 11 3 20 1 20 -4 0 -5 13 -15 30 -24 36 -19
49 -59 26 -84 -18 -19 -21 -41 -7 -41 6 0 13 5 16 10 4 6 14 1 25 -12 15 -19
20 -20 34 -9 9 8 16 19 15 25 -4 33 2 35 64 12 34 -13 87 -29 117 -36 30 -7
65 -18 77 -26 29 -18 43 -18 43 1 0 8 -19 23 -42 33 -40 17 -75 47 -72 61 6
24 -47 56 -64 39 -12 -12 -121 59 -122 79 0 6 -13 23 -30 36 -52 44 -40 51 58
31 13 -3 22 1 22 7 0 7 3 10 6 6 4 -3 3 -14 -1 -24 -15 -33 -13 -42 10 -57 25
-17 35 -12 35 16 0 10 3 18 8 18 14 0 173 -166 165 -174 -4 -4 0 -4 9 -1 9 4
19 2 22 -3 3 -5 26 1 53 14 34 18 56 23 80 18 l33 -6 0 41 c0 55 -34 108 -127
196 -40 39 -73 74 -73 78 0 11 68 8 75 -3 3 -5 28 -20 56 -31 27 -12 54 -29
59 -38 8 -13 9 -12 10 6 0 16 -7 24 -24 29 -13 3 -28 16 -35 30 -6 13 -15 24
-20 24 -5 0 -17 7 -25 16 -14 13 -14 17 -2 30 22 22 59 0 84 -49 l21 -42 0 38
c1 21 -3 36 -8 33 -5 -3 -11 1 -15 9 -3 9 0 15 10 15 30 0 11 43 -22 52 -18 4
-34 15 -38 23 -6 17 11 19 48 5 26 -9 26 -9 26 35 0 25 -4 45 -9 45 -12 0 -36
-30 -25 -31 5 0 -4 -5 -20 -9 -31 -10 -46 -6 -46 12 0 5 7 7 16 4 8 -3 13 -2
9 3 -6 11 5 42 14 37 3 -2 21 2 40 10 24 10 31 18 27 30 -3 9 -6 23 -6 31 0
16 -37 15 -110 -1 -21 -5 -33 3 -72 46 -27 28 -48 55 -48 59 0 4 9 10 19 14
36 11 45 32 21 52 -19 16 -20 25 -15 98 3 44 2 126 -2 182 -5 56 -5 99 -1 97
15 -10 19 19 4 35 -9 10 -19 41 -23 70 -3 28 -11 51 -17 51 -6 0 -95 -18 -199
-39 -103 -21 -190 -35 -192 -30 -15 23 -162 109 -293 170 -119 56 -148 74
-153 94 -4 14 -2 26 4 29 21 9 -25 36 -60 36 -33 0 -48 -23 -21 -32 8 -3 8 -7
2 -11 -6 -3 -28 3 -50 13 -164 78 -252 109 -280 100z m1216 -585 c0 -86 -3
-105 -15 -105 -9 0 -12 -6 -9 -15 4 -8 12 -15 20 -15 9 0 14 -11 14 -30 0 -28
-2 -29 -32 -24 -18 4 -40 16 -48 27 -8 12 -43 58 -77 103 -34 45 -58 86 -55
90 4 4 2 4 -5 0 -6 -3 -14 -2 -17 2 -3 5 45 23 107 39 62 17 113 31 115 32 1
1 2 -46 2 -104z m-171 -79 c94 -125 102 -139 74 -130 -10 3 -3 -3 16 -13 19
-10 37 -24 39 -32 3 -8 0 -11 -7 -7 -16 10 -120 -4 -134 -18 -6 -7 -22 -10
-36 -8 -30 6 -80 54 -62 60 14 5 14 49 -1 58 -6 4 -19 -4 -30 -19 -18 -25 -20
-26 -44 -11 -23 15 -24 22 -24 110 0 63 4 95 13 101 10 6 64 18 102 22 6 0 48
-50 94 -113z m269 -782 c44 -31 15 -114 -40 -114 -20 0 -17 -6 25 -44 26 -24
47 -52 47 -62 0 -13 -26 9 -79 66 -43 47 -75 87 -70 88 5 2 9 10 9 18 0 21 46
64 67 64 10 0 29 -7 41 -16z"/>
<path d="M7802 4317 c-34 -15 -25 -49 15 -59 24 -6 37 -18 46 -41 21 -49 42
-62 81 -50 26 8 35 7 42 -4 5 -8 16 -15 24 -17 8 -1 39 -18 69 -37 62 -39 106
-45 106 -14 0 11 -10 25 -23 31 -12 6 -28 19 -35 28 -7 9 -19 18 -28 19 -8 2
-28 12 -44 23 -17 11 -37 24 -45 28 -25 11 -57 31 -73 45 -9 7 -21 10 -27 6
-5 -3 -10 -2 -10 4 0 6 -17 19 -37 30 -30 14 -43 16 -61 8z"/>
<path d="M3478 4188 c-2 -16 -14 -26 -36 -34 l-33 -10 78 -36 c94 -44 135 -53
163 -38 17 9 25 8 39 -4 27 -25 55 -21 47 7 -3 12 -6 31 -6 43 0 20 -2 20 -47
9 -29 -8 -60 -9 -83 -4 -19 5 -50 9 -67 9 -18 0 -33 4 -33 9 0 20 30 30 130
44 58 8 91 15 73 16 -18 0 -67 -4 -109 -10 -68 -11 -78 -10 -86 5 -13 23 -26
20 -30 -6z"/>
<path d="M7157 4049 c-9 -6 -15 -14 -12 -19 6 -9 -19 -7 -57 6 -31 9 -38 -13
-18 -55 22 -45 46 -67 83 -77 28 -6 29 -5 27 27 -3 53 -1 62 14 56 24 -10 41
20 28 48 -12 26 -35 31 -65 14z"/>
<path d="M8622 3872 c-21 -7 -13 -28 21 -52 17 -14 35 -25 40 -26 4 -1 12 -2
17 -3 6 0 10 -14 10 -30 0 -34 8 -41 53 -47 22 -3 47 -20 80 -55 42 -45 47
-48 47 -27 0 13 -6 30 -12 37 -8 9 -9 12 -1 7 7 -4 14 8 18 35 4 23 20 55 36
73 l29 33 -22 10 c-61 27 -120 -56 -82 -115 l17 -27 -24 21 c-13 12 -28 20
-34 19 -5 -2 -28 19 -50 46 -75 93 -105 114 -143 101z"/>
<path d="M2361 3783 c-37 -19 -70 -78 -71 -128 0 -16 -8 -40 -18 -52 -15 -19
-313 -213 -327 -213 -8 0 -1 42 12 64 8 14 18 18 44 14 34 -5 41 -2 89 43 35
32 47 87 30 129 -34 83 -129 106 -210 51 -49 -33 -48 -31 -58 -191 -4 -63 -12
-124 -18 -135 -6 -11 -10 -25 -7 -31 4 -11 -227 -134 -252 -134 -8 0 -15 -4
-15 -10 0 -18 23 -10 143 49 77 38 116 52 111 42 -3 -9 -9 -24 -11 -33 -3 -10
-10 -15 -16 -11 -6 4 -8 0 -4 -10 3 -10 2 -17 -3 -17 -11 0 -24 -37 -25 -72
-2 -38 42 -49 67 -18 18 22 18 20 18 -58 l0 -80 -122 -86 c-72 -51 -185 -118
-273 -161 -156 -77 -215 -98 -215 -75 0 8 -3 10 -7 7 -3 -4 -12 -2 -18 3 -8 7
-20 2 -40 -16 -15 -14 -39 -30 -54 -36 -42 -16 -279 -22 -371 -9 -100 15 -110
19 -103 37 6 16 -14 18 -49 5 -27 -10 -214 49 -201 63 4 5 3 6 -4 2 -17 -9
-93 23 -93 40 0 9 -10 14 -28 12 -17 -1 -71 21 -145 59 -97 51 -117 58 -117
43 0 -13 30 -33 102 -70 87 -45 98 -54 82 -63 -20 -11 -34 -27 -34 -39 0 -13
37 -9 78 7 37 15 42 15 103 -8 35 -14 63 -30 62 -36 -2 -5 4 -8 12 -5 8 3 49
-5 92 -19 123 -40 263 -60 408 -60 72 1 148 5 170 10 31 8 44 7 53 -4 15 -15
36 -18 27 -3 -3 5 0 7 8 4 9 -3 22 4 31 18 9 12 16 19 16 14 0 -5 6 -4 13 1 6
5 41 20 77 33 71 25 210 92 251 121 14 10 32 19 39 21 7 2 21 8 29 15 9 7 61
44 116 82 l100 71 3 -70 c3 -69 3 -70 30 -70 15 0 56 7 91 15 35 9 65 14 67
13 9 -10 -110 -99 -133 -101 -38 -3 -63 -26 -63 -58 0 -21 -18 -43 -77 -98
-42 -39 -81 -68 -86 -64 -6 3 -7 1 -3 -5 4 -7 4 -12 -1 -12 -4 0 -34 -25 -66
-54 -61 -56 -221 -169 -318 -224 -149 -84 -312 -132 -474 -139 -204 -9 -385
38 -645 169 -84 42 -156 75 -158 73 -15 -15 24 -42 150 -104 260 -127 421
-166 648 -158 107 4 154 10 225 31 102 31 240 95 335 156 74 49 351 267 363
287 5 7 13 10 19 7 6 -4 8 -3 5 3 -3 5 18 31 48 56 40 35 62 47 87 47 18 0 71
9 118 20 47 11 89 20 93 20 5 0 -32 -44 -81 -97 -50 -54 -112 -124 -139 -155
-368 -433 -612 -661 -816 -764 -147 -75 -259 -104 -401 -104 -102 0 -229 18
-221 31 3 4 -3 5 -14 2 -27 -7 -211 68 -321 131 -52 30 -97 50 -99 44 -5 -14
5 -22 94 -73 71 -40 216 -105 270 -121 93 -27 183 -36 308 -32 115 4 144 9
227 37 161 54 317 150 469 286 38 35 73 64 78 66 5 2 71 75 147 161 76 87 143
155 148 152 4 -3 7 -2 6 3 -2 5 35 53 82 107 47 54 101 118 120 142 19 25 70
80 113 122 l79 77 101 25 c86 21 102 28 105 46 5 34 -19 46 -69 35 l-44 -10
64 61 63 60 -1 99 -2 98 113 84 c62 45 139 98 171 117 59 35 80 63 27 35 -17
-9 -35 -13 -41 -10 -5 4 -8 2 -7 -3 2 -6 -57 -56 -129 -111 -103 -78 -133 -96
-133 -81 0 10 4 21 9 24 5 4 4 19 -2 36 -14 37 4 79 41 95 12 5 22 15 22 22 0
17 -30 44 -41 38 -5 -4 -9 -4 -9 -2 0 3 25 21 55 41 30 20 57 41 61 47 7 12
-27 -8 -91 -54 l-40 -29 -3 32 c-5 49 3 63 28 48 23 -15 37 -4 42 31 3 22 -1
25 -32 25 -30 1 -35 5 -38 28 -3 26 -3 27 33 17 49 -14 108 -3 132 24 31 35
42 88 28 130 -7 20 -10 39 -6 43 3 4 0 4 -6 0 -7 -4 -13 -2 -13 4 0 16 -63 40
-102 40 -18 0 -48 -8 -67 -17z m-71 -327 l0 -133 -42 -29 c-24 -16 -90 -65
-148 -110 -58 -44 -122 -93 -142 -108 l-37 -28 2 157 2 158 100 63 c76 48 106
62 124 57 17 -4 22 -2 17 6 -4 6 -13 8 -19 5 -8 -5 -9 -4 -2 4 9 9 137 92 143
92 1 0 2 -60 2 -134z m-8 -247 l-4 -77 -45 -17 c-27 -11 -41 -21 -35 -27 5 -5
19 -5 36 2 15 5 32 10 37 10 11 0 12 -127 1 -134 -5 -3 -33 -8 -63 -12 -52 -7
-53 -6 -39 12 12 15 9 14 -17 -4 -23 -17 -191 -62 -229 -62 -2 0 -4 28 -4 63
l0 63 143 109 c78 60 157 122 176 138 18 16 36 25 40 20 4 -4 5 -42 3 -84z
m-30 -358 c-51 -45 -58 -48 -169 -70 -63 -12 -117 -20 -119 -18 -2 2 18 25 45
50 34 32 59 47 78 48 15 0 69 9 118 19 50 10 92 18 95 19 3 0 -19 -21 -48 -48z"/>
<path d="M6870 3768 c-12 -10 -31 -18 -41 -18 -16 0 -17 -3 -7 -19 10 -16 9
-23 -5 -39 -9 -10 -17 -26 -17 -34 0 -22 27 -41 50 -35 10 3 24 -1 31 -9 6 -8
33 -20 60 -28 65 -20 77 -28 54 -36 -27 -10 -31 -72 -5 -95 11 -10 18 -21 15
-25 -4 -6 14 -7 48 -1 5 0 5 6 1 12 -3 6 0 15 7 20 11 7 10 9 -3 9 -17 0 -44
37 -35 47 3 2 14 0 25 -6 12 -6 30 -11 42 -11 34 0 22 42 -17 59 -38 17 -43
37 -11 47 12 3 29 13 37 21 22 22 -2 59 -59 90 -24 14 -49 32 -55 40 -6 8 -29
18 -52 22 -31 6 -45 4 -63 -11z"/>
<path d="M6464 3497 c4 -14 0 -20 -14 -24 -11 -3 -20 -14 -20 -24 0 -29 -33
-23 -94 16 -59 38 -76 44 -56 20 6 -8 9 -19 5 -25 -4 -6 12 -29 37 -52 23 -23
35 -38 26 -35 -14 5 -17 1 -15 -16 2 -19 -2 -22 -30 -19 -36 4 -38 0 -23 -29
13 -24 60 -25 121 -4 24 9 64 18 89 21 65 7 173 23 187 29 19 7 28 -17 10 -27
-14 -7 -14 -13 -1 -49 26 -75 16 -77 -62 -14 -76 62 -88 56 -20 -10 31 -31 56
-58 56 -60 0 -11 -53 -4 -88 10 -20 9 -47 13 -60 10 -21 -5 -22 -7 -7 -28 19
-27 19 -81 0 -97 -19 -16 -45 -6 -45 18 0 36 -62 71 -72 41 -6 -18 -47 8 -58
37 -10 26 -44 33 -53 10 -7 -19 16 -39 85 -71 72 -34 128 -93 128 -135 0 -28
29 -70 48 -70 5 0 15 -11 22 -25 7 -14 19 -25 26 -25 18 0 43 -45 38 -67 -8
-30 50 -75 90 -71 27 3 32 7 36 39 5 33 7 36 28 28 52 -20 2 -99 -62 -99 l-36
0 6 -47 c4 -36 13 -54 35 -74 l30 -26 -92 -6 c-78 -6 -96 -4 -120 10 -135 87
-212 163 -165 163 7 0 25 9 39 20 23 18 24 23 15 55 -11 35 -48 70 -125 118
l-43 27 0 -69 c0 -107 8 -131 47 -147 19 -8 39 -27 46 -42 7 -15 27 -49 45
-76 18 -27 30 -51 28 -54 -3 -2 -27 11 -53 30 -33 23 -49 42 -51 60 -6 52 -62
65 -62 15 0 -34 -27 -107 -48 -130 -9 -11 -36 -28 -60 -39 -38 -17 -42 -22
-36 -46 8 -34 14 -40 42 -44 28 -4 64 -58 45 -65 -15 -5 -18 -33 -4 -33 5 0
12 7 15 16 5 13 16 15 54 11 34 -4 52 -1 64 10 15 14 20 12 45 -13 61 -62 93
-82 146 -89 35 -5 64 -16 89 -36 20 -16 40 -29 43 -29 14 0 82 -59 159 -136
105 -104 166 -152 166 -129 0 9 -26 41 -57 71 -63 59 -57 76 6 18 38 -34 40
-34 50 -15 6 11 11 22 11 24 0 2 -43 25 -95 51 -102 51 -142 80 -176 127 l-21
30 39 -15 c48 -19 178 -46 221 -46 26 0 32 4 32 21 0 33 -19 60 -55 75 -56 23
-65 19 -65 -27 0 -29 -4 -40 -12 -36 -7 2 -40 12 -73 22 -97 28 -110 34 -97
47 19 19 14 31 -12 24 -20 -5 -30 1 -55 36 -17 23 -30 43 -28 44 1 1 40 -2 87
-6 105 -11 267 -11 300 0 15 4 -34 8 -117 8 -124 1 -227 11 -284 28 -15 4 -99
122 -99 139 0 4 11 4 25 1 13 -3 75 -2 136 4 70 6 117 6 124 0 6 -5 38 -14 70
-19 l60 -10 30 34 c20 22 43 36 68 40 52 10 59 27 7 19 l-41 -7 16 39 c25 61
37 68 68 44 15 -12 31 -19 36 -16 13 8 72 -14 65 -25 -3 -5 4 -9 16 -9 30 0
57 -16 109 -66 25 -24 50 -44 56 -44 5 0 28 19 49 42 38 39 38 42 20 56 -10 8
-36 22 -57 32 l-39 17 33 12 c49 17 30 22 -23 6 -35 -10 -49 -11 -58 -2 -10 9
-11 9 -6 -1 10 -17 -21 -27 -38 -13 -7 6 -20 9 -29 5 -10 -3 -18 2 -22 16 -10
31 7 45 36 29 24 -12 24 -12 5 10 -23 26 -16 37 14 21 18 -10 24 -9 31 1 6 10
12 9 28 -5 14 -13 28 -16 47 -12 14 4 31 3 37 -3 7 -5 23 -11 36 -13 14 -2 31
-15 41 -32 18 -34 40 -45 40 -22 0 9 6 16 14 16 32 0 28 -65 -5 -73 -14 -4
-19 -14 -19 -36 0 -25 -4 -31 -21 -31 -11 0 -18 -4 -15 -9 3 -5 14 -7 24 -4
10 2 28 -4 41 -14 l23 -19 -67 -23 c-36 -13 -64 -26 -61 -28 3 -3 35 7 72 21
60 24 68 25 84 11 25 -23 30 -19 30 23 0 82 50 130 113 109 37 -12 49 -39 45
-95 l-3 -47 38 2 c21 2 52 12 68 24 21 15 45 21 80 21 l49 0 0 73 c0 83 -3 87
-98 136 -34 17 -71 42 -81 54 -9 13 -26 23 -37 22 -12 -1 -20 5 -22 19 -2 16
7 25 38 39 39 17 41 17 60 0 20 -18 21 -18 35 1 8 10 14 26 12 34 -1 9 17 24
45 39 27 14 48 28 48 32 0 4 -25 -6 -55 -22 -30 -16 -63 -29 -72 -29 -10 0
-36 22 -58 50 -22 27 -43 49 -48 50 -8 0 36 -74 60 -102 14 -15 12 -19 -18
-37 -44 -27 -46 -27 -41 9 3 23 0 30 -12 30 -8 0 -23 11 -32 25 -17 27 -66 55
-95 55 -10 0 -20 4 -23 9 -4 5 -18 5 -34 -1 -35 -13 -82 6 -97 39 -20 47 -92
26 -82 -24 2 -13 1 -23 -2 -23 -3 0 -6 -17 -6 -37 0 -31 -3 -37 -17 -35 -11 2
-18 -3 -18 -14 0 -10 -3 -14 -7 -10 -5 4 -8 13 -8 19 0 6 -19 15 -43 20 -31 6
-55 20 -81 48 -21 21 -57 47 -79 57 -32 14 -39 21 -30 30 9 9 7 12 -9 12 -11
0 -23 7 -27 15 -3 8 -14 15 -24 15 -33 0 -41 20 -29 74 9 42 9 49 -6 58 -9 5
-17 20 -17 33 0 17 -9 29 -30 40 -34 18 -40 36 -10 30 25 -5 26 7 3 27 -12 10
-65 22 -148 32 -182 23 -239 40 -277 85 -17 20 -28 28 -24 18z"/>
<path d="M0 3407 c0 -15 138 -83 336 -166 134 -56 321 -112 459 -139 166 -31
582 -18 560 18 -3 4 -22 4 -42 -1 -21 -5 -108 -12 -193 -16 -157 -6 -225 0
-384 34 l-78 16 45 24 c25 12 49 28 53 34 8 13 10 14 -67 -24 l-56 -28 -124
44 c-209 75 -240 88 -233 99 4 7 2 8 -4 4 -6 -4 -65 21 -131 54 -128 64 -141
68 -141 47z"/>
<path d="M3675 3393 c-99 -2 -183 -7 -187 -11 -4 -4 69 -5 163 -3 125 2 173 0
184 -9 9 -7 18 -10 22 -7 3 4 12 2 20 -4 9 -8 17 -8 26 -1 19 16 317 -39 467
-87 158 -50 261 -87 269 -98 3 -4 12 -9 20 -11 8 -2 30 -10 50 -18 l36 -16
-25 -10 c-14 -5 -34 -8 -46 -5 -11 2 -25 -1 -32 -7 -6 -6 -18 -17 -27 -24 -32
-27 -11 -76 41 -91 23 -6 49 -3 104 15 l72 23 25 -30 c14 -16 33 -29 43 -29
25 0 43 26 38 54 l-5 25 69 -35 c45 -22 68 -30 68 -21 0 7 -30 27 -66 45 -60
30 -65 34 -49 46 12 9 16 21 13 39 -6 29 -3 30 65 42 23 4 37 11 37 20 0 18
-16 19 -106 1 -83 -15 -95 -21 -87 -41 12 -32 -13 -13 -41 30 -26 42 -69 75
-96 75 -7 0 -25 -13 -40 -30 -28 -30 -28 -30 -66 -14 -22 8 -48 19 -59 25 -90
43 -374 116 -535 139 -47 6 -99 15 -116 21 -17 5 -39 8 -50 7 -10 -1 -100 -4
-199 -5z"/>
<path d="M6380 2970 c0 -6 12 -20 26 -33 35 -29 64 -94 57 -128 -5 -25 -2 -28
52 -44 43 -12 60 -13 69 -5 8 8 5 16 -12 30 -17 14 -21 25 -16 44 5 20 1 27
-24 40 -17 9 -39 26 -49 38 -40 50 -103 85 -103 58z"/>
<path d="M8166 2641 c-4 -6 -3 -11 2 -11 5 0 12 -13 14 -30 4 -23 1 -30 -13
-30 -22 0 -43 26 -33 42 6 10 5 10 -7 1 -11 -9 -20 -8 -39 2 -40 23 -63 19
-56 -7 3 -13 6 -36 6 -51 0 -19 4 -26 12 -21 8 5 10 -4 6 -34 -6 -43 4 -62 34
-62 16 0 17 3 8 21 -14 25 -6 49 15 49 8 0 15 7 15 16 0 13 7 15 35 10 l36 -7
-5 52 c-6 54 -18 79 -30 60z"/>
<path d="M8230 2311 c-14 -27 -13 -30 15 -41 14 -5 25 -17 25 -25 0 -29 -209
-243 -339 -347 -75 -60 -128 -91 -222 -129 -46 -18 -79 -22 -218 -25 -90 -2
-166 -5 -168 -8 -18 -18 231 -18 328 -1 25 5 40 2 51 -8 17 -18 44 -6 35 16
-4 10 10 21 46 38 112 52 341 253 452 396 25 33 46 50 55 47 11 -3 20 8 29 33
7 21 21 47 30 58 16 20 16 20 -5 2 -20 -17 -25 -17 -59 -3 -46 20 -42 20 -55
-3z"/>
<path d="M5877 2036 c-8 -8 -17 -33 -21 -56 -7 -47 7 -80 52 -124 17 -15 36
-42 43 -60 12 -29 69 -104 69 -90 0 3 7 0 16 -7 28 -23 61 -22 78 3 26 36 20
80 -14 113 -21 20 -30 38 -30 61 0 26 -11 45 -52 89 -29 31 -68 63 -87 71 -41
17 -37 17 -54 0z"/>
<path d="M11479 2014 c8 -28 6 -33 -14 -42 -18 -8 -22 -16 -17 -34 4 -19 3
-21 -9 -12 -8 6 -25 11 -39 12 -14 1 -35 4 -47 7 -15 3 -30 -2 -44 -16 -21
-21 -21 -22 -3 -33 11 -6 22 -11 27 -12 4 -1 10 -3 15 -4 4 -1 12 -3 17 -4 6
-1 25 -5 44 -10 45 -11 105 16 121 55 7 15 11 31 10 35 -1 4 4 10 11 15 9 5 4
11 -17 20 -16 7 -37 22 -46 33 -17 21 -17 20 -9 -10z"/>
<path d="M11656 1892 c-4 -4 -24 -8 -44 -9 -43 -2 -62 -6 -79 -16 -7 -5 -18
-5 -25 -1 -7 4 -8 3 -4 -5 6 -8 1 -10 -17 -6 -17 5 -26 2 -30 -8 -7 -19 22
-32 37 -17 13 13 46 13 46 0 0 -5 -10 -10 -22 -10 -13 0 -30 -5 -38 -10 -10
-6 -2 -8 25 -4 35 6 38 5 23 -7 -10 -8 -21 -28 -24 -46 -5 -25 -2 -33 14 -42
39 -21 80 9 84 60 2 26 -1 34 -17 37 -20 4 -35 19 -35 35 0 4 8 3 18 -2 9 -5
19 -9 22 -9 17 -2 39 -15 35 -22 -3 -4 2 -10 10 -14 8 -3 15 -1 15 5 0 6 5 7
11 3 11 -6 123 -16 159 -14 29 2 75 8 83 10 4 1 10 3 15 5 50 13 61 19 65 34
2 9 -1 21 -7 26 -17 16 -66 35 -66 27 0 -4 -10 -8 -22 -8 -77 -1 -98 -5 -98
-19 0 -25 -41 -17 -67 13 -17 18 -27 23 -30 14 -3 -9 -9 -10 -17 -3 -7 6 -16
7 -20 3z"/>
<path d="M10138 1776 c-10 -7 -18 -18 -18 -24 0 -6 -7 -15 -17 -20 -11 -7 -14
-15 -8 -28 5 -11 7 -22 7 -26 -3 -11 30 -41 58 -55 34 -16 110 -32 112 -24 0
3 2 17 4 31 2 14 4 35 6 47 3 25 18 20 18 -6 0 -10 16 -35 36 -55 20 -20 37
-43 38 -49 3 -21 60 -97 73 -97 7 0 10 -6 8 -12 -7 -18 43 -70 63 -66 25 5 26
41 2 63 -11 10 -20 24 -20 32 0 7 -6 16 -14 19 -7 3 -27 27 -45 54 -17 26 -38
50 -46 54 -8 3 -21 20 -28 38 -19 45 -78 107 -84 90 -4 -10 -12 -7 -32 12 -32
30 -88 41 -113 22z"/>
<path d="M8602 1668 c-19 -19 -14 -52 11 -78 12 -14 21 -29 19 -34 -14 -41 -6
-83 20 -108 16 -15 28 -24 28 -21 0 3 6 1 13 -5 26 -22 55 -17 81 13 14 17 26
38 26 47 0 23 -27 48 -61 55 -31 6 -69 56 -69 91 0 23 -25 52 -44 52 -6 0 -17
-5 -24 -12z"/>
<path d="M11695 1324 c-49 -45 -33 -128 23 -120 92 13 115 27 115 72 0 35 -30
62 -75 68 -29 3 -42 -1 -63 -20z"/>
</g>
</svg>
