<?xml version="1.0" standalone="no"?>
<!DOCTYPE svg PUBLIC "-//W3C//DTD SVG 20010904//EN"
 "http://www.w3.org/TR/2001/REC-SVG-20010904/DTD/svg10.dtd">
<svg version="1.0" xmlns="http://www.w3.org/2000/svg"
 width="769.000000pt" height="769.000000pt" viewBox="0 0 769.000000 769.000000"
 preserveAspectRatio="xMidYMid meet">
<metadata>
Created by potrace 1.16, written by Peter Selinger 2001-2019
</metadata>
<g transform="translate(0.000000,769.000000) scale(0.100000,-0.100000)"
fill="#ffffff" stroke="none">
<path d="M3700 7683 c-1151 -48 -2189 -582 -2895 -1488 -745 -956 -989 -2239
-650 -3421 226 -788 720 -1504 1380 -2000 934 -704 2133 -940 3280 -647 1335
341 2407 1413 2748 2748 228 894 139 1815 -257 2640 -260 542 -666 1036 -1151
1401 -526 397 -1163 656 -1815 738 -132 17 -441 37 -525 34 -27 -1 -79 -3
-115 -5z m620 -2922 c827 -477 1508 -875 1514 -883 29 -47 65 -24 -1523 -941
-1373 -793 -1521 -876 -1545 -868 -14 6 -28 21 -32 35 -3 13 -1 653 5 1423 6
769 11 1546 11 1726 l0 328 25 24 c13 14 28 25 32 25 4 0 685 -391 1513 -869z"/>
</g>
</svg>
