<?xml version="1.0" standalone="no"?>
<!DOCTYPE svg PUBLIC "-//W3C//DTD SVG 20010904//EN"
 "http://www.w3.org/TR/2001/REC-SVG-20010904/DTD/svg10.dtd">
<svg version="1.0" xmlns="http://www.w3.org/2000/svg"
 width="900.000000pt" height="1242.000000pt" viewBox="0 0 900.000000 1242.000000"
 preserveAspectRatio="xMidYMid meet">
<metadata>
Created by potrace 1.16, written by Peter Selinger 2001-2019
</metadata>
<g transform="translate(0.000000,1242.000000) scale(0.100000,-0.100000)"
fill="#000000" stroke="none">
<path d="M1274 12405 c-18 -14 -17 -15 11 -8 45 10 66 6 89 -17 15 -15 17 -20
6 -20 -10 0 -7 -7 10 -21 l25 -21 -25 16 c-75 50 -129 57 -195 27 -89 -40
-141 -106 -230 -293 -87 -183 -114 -319 -115 -564 l0 -111 -167 -141 c-188
-158 -284 -252 -335 -329 -19 -29 -38 -50 -43 -45 -5 4 -5 2 -1 -5 9 -16 -14
-64 -27 -56 -6 3 -7 1 -4 -4 4 -6 0 -28 -9 -49 -62 -145 -82 -393 -45 -541 39
-157 124 -299 213 -357 15 -10 25 -22 22 -27 -3 -5 -2 -8 3 -7 4 1 35 -12 68
-29 86 -44 190 -74 289 -81 l85 -7 -18 -55 c-10 -30 -21 -67 -25 -82 -4 -19
-11 -26 -21 -21 -13 5 -14 7 -1 17 16 13 28 66 15 66 -5 0 -9 -6 -9 -12 0 -10
-2 -10 -9 0 -6 10 -10 7 -13 -12 -3 -17 -1 -23 6 -19 6 4 3 -3 -7 -14 -9 -11
-15 -22 -12 -25 3 -3 -1 -21 -10 -40 -13 -32 -13 -37 0 -42 12 -4 14 0 9 21
-5 17 -3 24 4 19 6 -3 16 2 22 11 19 31 0 -27 -22 -69 -29 -51 -74 -82 -127
-85 -48 -4 -93 -22 -54 -23 12 0 34 5 49 10 15 6 29 8 32 6 8 -9 -49 -27 -116
-38 -66 -10 -137 -4 -127 12 3 4 -1 11 -7 14 -7 3 22 2 65 -1 42 -3 77 -2 77
3 0 5 -26 10 -58 11 -88 4 -148 34 -173 88 -12 25 -25 42 -30 39 -14 -8 -11
-31 6 -47 8 -8 11 -17 8 -21 -4 -3 -1 -6 5 -6 5 0 20 -16 32 -36 13 -20 32
-39 44 -44 16 -7 17 -9 4 -9 -9 -1 -20 4 -23 9 -4 6 -10 8 -15 5 -13 -8 -74
69 -108 138 -21 40 -34 84 -37 122 -4 37 -11 63 -20 68 -9 5 -15 23 -15 43 0
23 -4 33 -11 28 -6 -3 -8 -17 -5 -29 5 -21 4 -23 -22 -16 -32 9 -82 -11 -100
-40 -33 -53 -19 -177 32 -278 65 -128 123 -188 216 -222 57 -21 82 -24 195
-24 154 1 214 16 306 77 107 72 177 186 224 366 15 61 18 72 30 140 7 41 10
43 99 89 179 92 292 246 352 478 34 131 42 299 20 403 -21 102 -72 189 -141
242 -63 49 -70 58 -21 29 49 -29 178 -167 170 -182 -5 -9 -4 -9 6 0 11 10 10
16 -5 33 -10 11 -14 20 -10 20 4 0 -2 8 -13 19 -12 10 -19 20 -17 23 3 3 -28
37 -69 76 -82 78 -148 114 -245 133 -65 12 -83 9 -59 -13 17 -17 38 -21 38 -8
0 19 150 -29 180 -57 13 -12 11 -13 -13 -4 -39 15 -44 14 -21 -4 18 -14 17
-15 -8 -4 -15 7 -25 16 -21 22 3 6 1 7 -4 4 -6 -4 -45 2 -86 13 -43 11 -91 17
-110 13 -40 -6 -38 -12 -58 163 l-12 112 68 63 c80 75 199 215 251 297 89 138
131 286 120 419 -7 77 -27 151 -52 191 -13 20 -13 22 2 22 10 0 14 -3 11 -7
-4 -3 1 -12 11 -19 9 -7 17 -16 17 -21 0 -5 8 -17 18 -27 15 -15 17 -15 17 -2
0 9 -9 25 -20 36 -11 11 -15 20 -9 20 16 0 -10 31 -69 83 -57 50 -92 59 -128
32z m13 -252 c12 -29 13 -41 3 -56 -7 -12 -7 -17 -1 -12 16 10 14 -67 -5 -138
-15 -58 -59 -157 -70 -157 -2 0 0 9 6 19 13 26 13 31 -4 25 -16 -6 -28 -52
-14 -56 4 -2 1 -14 -8 -27 -11 -16 -19 -19 -24 -11 -5 8 -9 7 -13 -5 -4 -9 -3
-13 3 -10 21 13 8 -12 -25 -48 -19 -21 -35 -41 -35 -46 0 -4 -16 -22 -35 -41
l-35 -34 0 46 c0 62 18 192 34 248 19 63 120 266 154 306 35 43 50 42 69 -3z
m-406 -1033 c5 -36 2 -47 -20 -74 -19 -23 -20 -26 -4 -13 15 13 23 15 28 7 4
-6 5 -13 3 -15 -10 -11 -78 -34 -78 -28 0 5 -5 0 -11 -9 -5 -10 -15 -18 -20
-18 -23 0 -104 -83 -144 -147 -59 -95 -80 -162 -79 -253 0 -55 6 -88 22 -123
26 -59 87 -138 128 -166 46 -32 137 -61 190 -61 l47 0 -7 -152 c-4 -84 -9
-154 -12 -157 -3 -3 -40 -6 -82 -5 -125 0 -228 42 -315 127 -210 205 -193 629
35 873 35 37 108 104 164 150 55 45 106 90 114 99 20 24 34 13 41 -35z m323
-271 c80 -29 142 -90 167 -164 45 -129 13 -362 -72 -527 -32 -61 -142 -178
-169 -178 -3 0 -6 147 -7 328 -1 192 -8 375 -16 445 l-13 117 28 0 c15 0 52
-9 82 -21z m-283 -46 c1 -21 0 -42 -1 -48 -3 -13 -3 -24 3 -65 3 -19 8 -95 12
-167 l8 -133 -40 0 c-52 0 -99 31 -140 94 -27 39 -33 58 -33 100 1 79 54 176
129 231 48 35 61 32 62 -12z"/>
<path d="M487 10151 c-3 -14 -1 -19 6 -14 6 4 8 0 4 -10 -4 -10 -1 -17 5 -17
6 0 9 -3 5 -6 -6 -6 10 -28 68 -91 25 -28 59 -51 93 -63 61 -23 68 -19 15 9
-51 27 -38 26 49 -3 40 -13 95 -26 123 -28 l50 -3 3 108 c2 86 0 108 -10 105
-15 -5 -21 -98 -7 -98 5 0 9 -5 9 -11 0 -5 -4 -8 -9 -5 -5 3 -11 -8 -13 -24
-3 -17 0 -30 6 -30 6 0 4 -7 -4 -15 -30 -30 -217 26 -287 86 -17 15 -36 28
-41 30 -6 2 -21 26 -35 52 -20 41 -25 45 -30 28z"/>
<path d="M7960 12131 c0 -17 -4 -18 -34 -9 -48 15 -78 -6 -115 -81 -40 -78
-56 -146 -81 -341 -35 -262 -39 -303 -55 -520 -26 -359 -39 -476 -76 -662 -16
-81 -29 -149 -29 -152 0 -14 -16 -4 -29 17 -13 20 -13 21 2 8 15 -12 17 -11
19 5 0 11 0 29 -1 42 -2 24 23 192 39 257 6 22 12 72 16 110 9 120 16 218 17
267 1 27 4 48 7 48 3 0 6 17 6 38 1 66 13 215 24 301 6 46 9 90 6 97 -3 7 -1
16 4 19 6 4 10 -2 11 -12 1 -10 5 0 10 22 5 21 7 45 5 51 -4 11 6 100 19 164
20 103 29 139 42 174 19 51 24 88 12 80 -8 -5 -48 -84 -56 -109 -9 -34 -33
-165 -38 -208 -4 -44 -16 -120 -20 -137 -2 -6 -15 -106 -21 -160 -2 -19 -6
-73 -10 -120 -3 -47 -7 -96 -9 -110 -2 -14 -7 -66 -10 -115 -3 -50 -7 -99 -9
-110 -2 -11 -7 -60 -11 -110 -10 -120 -12 -141 -24 -200 -5 -27 -12 -66 -16
-85 -3 -19 -9 -51 -12 -70 -4 -19 -6 -38 -5 -42 3 -11 -26 -10 -30 0 -5 13
-111 82 -125 82 -6 0 -13 4 -15 10 -1 5 -12 11 -23 13 -11 1 -25 6 -32 10 -19
12 -195 19 -228 9 -23 -7 -6 -10 75 -11 111 -1 129 -3 145 -12 6 -4 28 -12 50
-19 33 -11 80 -40 128 -80 4 -4 1 -7 -8 -7 -8 0 -15 4 -15 9 0 5 -5 6 -11 3
-6 -4 5 -21 28 -42 l38 -35 -45 34 c-125 96 -203 127 -342 135 -156 9 -290
-30 -362 -106 -16 -17 -34 -27 -40 -24 -6 3 -8 3 -4 -2 12 -12 -31 -65 -53
-65 -11 0 -17 -5 -14 -10 4 -6 10 -8 15 -5 4 3 -4 -30 -18 -73 -19 -59 -25
-97 -25 -162 0 -101 22 -166 86 -250 23 -30 41 -59 39 -63 -1 -5 2 -6 7 -3 5
4 15 0 23 -7 25 -25 118 -86 171 -111 85 -41 192 -55 277 -36 144 32 290 150
385 310 27 47 62 100 77 118 21 25 28 43 28 76 0 24 9 72 19 107 46 150 95
441 107 638 4 58 8 113 10 121 1 8 3 46 3 84 l1 70 50 -75 c27 -41 64 -92 82
-114 18 -22 25 -34 15 -26 -26 21 -21 -3 13 -53 28 -41 54 -101 66 -151 15
-59 32 -217 30 -265 -4 -75 -28 -240 -36 -240 -3 0 -6 -8 -7 -17 -1 -10 -6
-39 -11 -65 -6 -28 -6 -48 0 -48 11 0 30 49 23 60 -3 5 -1 11 4 14 9 6 28 80
37 146 2 19 8 63 13 98 4 34 5 62 2 62 -3 0 -7 35 -7 78 -1 65 -13 123 -48
237 -9 29 -29 71 -47 99 l-21 31 30 -33 c79 -88 123 -241 124 -423 0 -87 -5
-128 -32 -235 -21 -84 -31 -140 -26 -158 14 -55 107 -58 162 -5 71 68 128 362
104 529 -32 219 -81 317 -268 531 -115 132 -202 341 -202 484 0 68 21 206 47
300 23 88 27 123 13 139 -8 11 -8 20 -1 35 14 25 14 31 1 31 -5 0 -10 -9 -10
-19z"/>
<path d="M5118 11830 c-31 -19 -55 -138 -88 -435 -21 -195 -24 -221 -40 -315
-5 -30 -23 -152 -40 -270 -53 -385 -61 -433 -95 -610 -38 -192 -55 -392 -36
-404 6 -4 8 -12 5 -18 -4 -6 -2 -8 4 -5 13 9 42 -2 42 -14 0 -5 -12 -7 -27 -4
l-28 6 25 -15 c23 -13 26 -13 38 7 l13 22 -5 -23 c-4 -20 24 -60 43 -63 3 0
13 -2 21 -4 87 -19 189 -29 305 -29 122 1 150 4 217 26 180 60 332 207 411
398 27 65 33 224 13 318 -29 136 -122 264 -232 318 -28 14 -88 32 -133 41 -75
15 -90 15 -170 1 -89 -16 -149 -38 -210 -79 l-34 -23 6 55 c5 46 15 127 51
399 13 104 27 229 36 345 6 72 18 175 26 229 l15 99 -28 29 c-28 29 -72 37
-105 18z m411 -1256 c70 -21 138 -88 166 -164 31 -85 28 -207 -8 -284 -30 -65
-48 -73 -20 -10 35 82 11 341 -33 358 -15 6 -20 -9 -6 -18 34 -20 41 -251 11
-320 -9 -22 -15 -46 -11 -54 3 -9 1 -13 -5 -9 -5 3 -10 -1 -10 -9 0 -10 7 -14
19 -11 26 7 -42 -68 -100 -110 -94 -68 -136 -78 -339 -78 -100 0 -184 3 -187
6 -3 3 8 93 24 200 27 173 35 203 70 275 67 136 133 196 253 229 69 18 112 18
176 -1z"/>
<path d="M5038 11764 c-11 -19 -29 -154 -22 -165 4 -7 3 -9 -4 -5 -6 4 -11 -1
-10 -11 0 -10 -3 -40 -6 -68 -3 -27 -8 -70 -11 -95 -3 -25 -9 -74 -14 -110 -5
-36 -6 -68 -4 -72 2 -5 1 -8 -4 -8 -4 0 -8 -12 -9 -27 0 -16 -4 -53 -8 -83 -5
-30 -9 -67 -11 -82 -2 -14 -6 -31 -9 -36 -7 -11 -19 -112 -20 -164 -1 -21 -4
-38 -8 -38 -4 0 -8 -10 -7 -22 0 -13 -5 -50 -11 -83 -6 -33 -9 -68 -6 -77 2
-10 0 -18 -4 -18 -5 0 -7 -16 -5 -35 2 -19 0 -33 -3 -31 -4 2 -8 -6 -9 -17 -3
-44 -11 -102 -16 -117 -3 -8 -5 -22 -5 -30 1 -20 -13 -103 -18 -111 -2 -4 -6
-22 -8 -40 -3 -19 -9 -54 -14 -79 -25 -114 -42 -303 -28 -317 13 -13 18 9 36
145 11 77 27 173 35 214 9 40 18 80 19 88 1 8 5 22 9 30 7 16 4 46 -5 55 -3 4
-2 20 3 37 4 17 6 35 3 40 -3 5 -2 14 3 21 10 13 15 42 17 100 0 20 3 37 7 37
3 0 6 18 7 40 1 22 7 61 12 86 7 32 7 51 1 57 -7 7 -6 14 4 21 8 6 16 38 19
76 3 36 7 76 10 90 2 14 9 57 15 95 6 39 13 81 16 95 3 14 8 43 10 65 3 34 22
192 41 350 3 22 11 69 19 104 12 57 7 119 -7 95z"/>
<path d="M2978 11285 c-2 -2 -19 -5 -38 -8 -52 -8 -81 -18 -115 -39 -38 -23
-33 -23 40 3 33 12 83 23 112 26 57 6 163 -11 203 -32 24 -13 23 -14 -15 -9
l-40 6 53 -26 c30 -14 66 -34 80 -45 15 -10 47 -30 72 -44 25 -13 50 -34 56
-46 6 -11 34 -44 62 -72 28 -28 50 -55 47 -59 -2 -4 6 -18 18 -31 12 -13 21
-27 19 -31 -1 -5 3 -8 9 -8 5 0 7 -4 4 -10 -3 -5 -1 -10 5 -10 6 0 8 -5 4 -12
-5 -7 -3 -8 6 -3 10 6 12 4 7 -9 -5 -11 -3 -15 5 -10 8 5 9 2 5 -9 -4 -10 -2
-17 4 -17 6 0 8 -7 5 -16 -4 -9 -2 -13 5 -8 8 4 9 -1 4 -17 -5 -19 -4 -21 5
-9 9 12 10 9 5 -13 -4 -19 -2 -26 5 -22 7 4 9 -2 4 -19 -4 -17 -2 -26 6 -26 7
0 9 -8 5 -21 -5 -15 -4 -19 4 -15 6 4 11 15 12 24 0 14 2 13 9 -3 7 -19 8 -19
15 -2 6 14 0 26 -19 43 -26 25 -34 58 -16 69 5 3 14 -12 20 -34 14 -53 51 -81
107 -81 102 0 166 66 169 175 3 69 -6 89 -49 115 -44 27 -86 25 -147 -7 -53
-27 -90 -78 -90 -123 0 -12 -6 -28 -14 -36 -12 -12 -17 -7 -32 34 -10 26 -35
81 -57 122 -27 52 -34 70 -21 61 23 -17 -97 101 -148 147 -57 49 -170 120
-219 136 -39 13 -163 28 -171 21z"/>
<path d="M8065 11281 c-3 -6 -1 -11 5 -11 6 0 8 -4 5 -10 -3 -5 -1 -10 5 -10
10 0 35 -51 28 -58 -2 -2 5 -8 15 -13 9 -6 14 -16 11 -22 -4 -7 -4 -9 1 -5 9
9 51 -42 47 -57 -2 -5 -1 -7 3 -3 4 3 23 -12 43 -34 20 -23 35 -42 32 -44 -3
-2 5 -11 18 -19 12 -9 22 -22 22 -29 0 -8 7 -17 16 -20 8 -3 12 -10 9 -16 -3
-5 -1 -10 4 -10 6 0 10 -6 9 -12 -2 -7 3 -12 11 -10 9 2 11 -3 7 -13 -4 -11
-2 -14 6 -9 7 5 9 2 6 -7 -3 -8 0 -25 7 -38 10 -20 13 -21 18 -7 5 12 3 15 -5
10 -8 -5 -9 -2 -5 10 7 18 -37 108 -71 148 -7 9 -11 22 -6 29 5 8 3 10 -6 4
-10 -6 -12 -4 -7 8 3 9 1 19 -5 23 -7 5 -8 2 -3 -6 5 -9 4 -11 -3 -6 -7 4 -12
13 -12 21 0 7 -7 16 -16 19 -9 4 -14 9 -11 13 4 3 -9 21 -28 40 -19 19 -35 39
-35 44 0 5 -6 8 -12 7 -7 -2 -12 3 -10 10 1 8 -2 11 -7 8 -13 -8 -34 21 -25
35 5 8 3 9 -6 4 -10 -6 -12 -4 -6 11 4 10 4 15 0 11 -4 -4 -15 0 -25 9 -11 10
-19 12 -24 5z"/>
<path d="M2895 11229 c-76 -11 -188 -66 -243 -119 -24 -22 -55 -66 -70 -98
-23 -50 -26 -70 -27 -162 0 -86 4 -113 21 -151 32 -68 70 -99 121 -99 56 0 71
7 89 42 19 37 11 74 -21 100 -30 23 -39 65 -30 135 7 61 36 99 105 138 53 30
188 28 253 -4 68 -33 150 -111 142 -133 -4 -10 -11 -15 -16 -12 -5 3 -7 9 -4
14 3 5 1 11 -5 15 -6 4 -8 10 -5 15 3 4 -3 7 -13 6 -9 0 -16 5 -14 12 1 8 -2
11 -8 7 -11 -7 -8 -15 26 -61 13 -16 35 -57 50 -90 25 -56 29 -68 40 -123 3
-14 7 -28 9 -32 4 -6 15 -114 19 -189 1 -19 -1 -45 -6 -57 -4 -14 -4 -23 2
-23 6 0 3 -11 -6 -25 -9 -14 -12 -25 -6 -25 6 0 13 6 16 13 3 6 3 1 0 -13 -4
-13 -13 -30 -20 -38 -8 -7 -14 -25 -13 -40 0 -15 3 -21 6 -14 2 6 12 12 21 11
11 0 12 -2 4 -6 -6 -2 -10 -9 -6 -14 3 -5 0 -9 -6 -9 -6 0 -8 -4 -5 -10 4 -6
-1 -7 -12 -3 -15 5 -16 4 -5 -8 10 -11 8 -17 -10 -32 -13 -10 -16 -16 -8 -12
8 4 -16 -23 -55 -60 -63 -61 -233 -185 -252 -185 -4 0 -1 5 7 11 13 9 13 10 0
6 -8 -2 -15 -9 -15 -16 0 -7 -11 -19 -25 -26 -31 -18 -43 -19 -34 -3 4 7 3 8
-5 4 -6 -4 -9 -11 -6 -15 6 -11 -44 -33 -57 -25 -7 4 -8 2 -4 -4 4 -7 -16 -23
-53 -42 -67 -34 -81 -52 -81 -107 0 -31 -5 -42 -27 -55 -16 -10 -22 -18 -13
-18 8 0 21 4 28 9 9 5 22 1 36 -14 22 -22 26 -23 87 -11 128 25 435 205 575
338 114 109 176 226 204 388 23 127 16 237 -24 431 -11 49 -37 114 -72 177
-19 35 -29 60 -22 56 7 -4 -8 15 -35 43 -26 27 -44 53 -40 58 5 4 3 6 -2 2 -6
-3 -31 10 -55 30 -60 47 -156 99 -205 111 -64 16 -155 21 -220 11z m403 -427
c40 -90 41 -95 58 -187 19 -106 17 -194 -6 -280 -11 -38 -17 -52 -13 -30 9 58
11 195 3 195 -3 0 -7 15 -7 33 0 49 -14 122 -24 125 -5 2 -7 8 -4 12 3 5 -1
26 -10 46 -17 42 -18 47 -7 40 4 -2 9 4 9 15 2 16 -1 18 -11 10 -18 -15 -29
11 -13 29 9 10 9 11 0 6 -12 -6 -18 5 -14 27 0 4 -3 6 -8 5 -5 -2 -9 0 -10 5
-7 49 24 22 57 -51z"/>
<path d="M5425 10790 c-20 -5 1 -8 63 -8 103 0 200 -28 250 -70 21 -18 22 -21
5 -13 -44 22 -45 10 -2 -23 46 -35 124 -121 124 -136 0 -5 4 -12 9 -17 5 -5 6
-2 1 6 -5 9 -4 12 3 7 7 -4 12 -14 12 -22 0 -8 5 -14 11 -14 5 0 7 -5 3 -12
-5 -7 -3 -8 6 -3 8 5 11 3 8 -6 -7 -18 9 -49 25 -49 7 0 6 4 -3 10 -10 6 -11
10 -2 10 6 0 12 4 12 10 0 5 -7 6 -17 3 -11 -4 -14 -3 -9 5 4 6 0 25 -9 42 -9
17 -13 35 -10 41 4 5 1 8 -6 7 -7 -2 -15 7 -18 19 -3 12 -35 52 -71 89 -86 89
-157 122 -272 128 -46 2 -96 0 -113 -4z"/>
<path d="M149 10473 c-5 -59 -3 -99 6 -105 6 -5 6 -8 -2 -8 -6 0 -10 -8 -8
-17 2 -10 11 -56 20 -101 9 -46 20 -91 24 -100 5 -10 23 -46 41 -81 31 -64
157 -214 171 -205 4 2 10 0 14 -6 3 -5 11 -10 16 -10 5 0 -13 19 -40 43 -27
23 -52 49 -55 57 -3 8 -17 27 -31 43 -14 15 -22 27 -18 27 4 0 0 5 -9 11 -21
12 -63 100 -85 178 -9 32 -16 100 -17 158 0 55 -4 99 -8 96 -5 -2 -8 1 -8 6 0
6 5 11 10 11 6 0 10 5 10 10 0 18 -30 11 -31 -7z"/>
<path d="M3778 10424 c-16 -8 -28 -19 -28 -25 0 -5 -8 -29 -19 -52 -27 -61
-33 -96 -22 -149 6 -37 5 -48 -4 -48 -18 0 -22 16 -20 79 1 44 0 51 -10 37
-17 -22 -25 -20 -25 6 0 12 -3 19 -6 15 -12 -11 6 -58 19 -51 9 5 9 4 0 -6
-14 -15 0 -70 22 -86 12 -9 13 -17 5 -40 -21 -59 -56 -119 -88 -152 -33 -36
-39 -49 -11 -29 23 18 89 114 82 121 -4 3 -2 6 4 6 5 0 15 18 22 40 14 46 26
56 47 39 21 -17 111 -12 145 8 14 9 39 34 53 57 24 36 27 48 23 102 -5 71 -18
95 -68 123 -43 24 -83 26 -121 5z"/>
<path d="M8398 8649 c-120 -17 -250 -101 -298 -192 -16 -31 -29 -43 -39 -40
-13 4 -13 3 -2 -5 11 -8 11 -17 -4 -57 -14 -36 -20 -43 -27 -31 -5 9 -6 21 -2
28 4 6 3 8 -4 4 -9 -5 -23 -50 -24 -73 0 -5 -4 -13 -10 -20 -5 -7 -7 -17 -3
-23 3 -5 2 -10 -2 -10 -5 0 -15 -30 -21 -67 -7 -38 -15 -79 -18 -93 -3 -14 -6
-51 -7 -82 -1 -32 -5 -58 -8 -58 -3 0 -5 -27 -5 -59 1 -33 -2 -57 -7 -54 -4 2
-8 -82 -8 -189 0 -106 -1 -262 -2 -345 -1 -84 2 -153 7 -153 5 0 4 -6 -1 -12
-6 -8 -10 -108 -9 -245 l1 -231 -85 -16 c-47 -9 -137 -25 -200 -36 -63 -12
-135 -25 -160 -30 -25 -5 -58 -11 -75 -14 -76 -11 -220 -38 -224 -42 -12 -11
11 -11 69 0 36 7 97 18 135 25 39 7 90 16 115 21 25 5 112 21 194 36 82 14
156 28 165 29 9 2 37 7 64 11 26 3 47 10 47 15 0 5 -6 9 -12 9 -10 0 -13 83
-13 380 0 209 2 380 5 380 10 0 5 135 -5 142 -7 5 -6 8 1 8 7 0 11 25 11 68
-1 111 13 312 29 401 8 47 12 91 10 98 -3 7 -2 13 3 13 8 0 12 14 27 97 6 32
23 70 23 53 0 -8 -6 -43 -14 -77 -45 -193 -65 -581 -62 -1241 1 -193 0 -352
-3 -352 -11 0 -795 -142 -927 -168 l-143 -28 0 95 c0 53 -5 184 -10 291 -16
336 -23 696 -15 826 7 122 8 126 29 119 42 -12 52 -15 91 -24 76 -20 282 -8
333 18 9 5 36 17 60 27 59 24 136 110 158 176 51 153 -15 362 -158 499 -74 71
-142 101 -238 107 -149 9 -265 -48 -340 -165 -15 -23 -31 -39 -35 -35 -5 4 -6
2 -2 -4 3 -5 -7 -49 -23 -97 -24 -69 -31 -115 -39 -234 -12 -178 -7 -907 7
-1158 6 -99 14 -259 17 -355 6 -149 9 -178 26 -201 10 -15 19 -31 19 -35 0 -4
-6 1 -14 12 -8 10 -18 16 -22 11 -13 -13 26 -33 69 -36 22 -1 44 -4 47 -6 4
-3 86 9 181 26 96 16 266 45 379 65 113 19 297 50 409 70 113 19 215 33 227
30 62 -16 106 42 93 122 -9 50 -2 1145 7 1223 l5 45 67 -17 c118 -31 300 -21
383 22 209 106 301 284 256 495 -25 115 -63 181 -136 237 -67 51 -73 62 -13
23 41 -27 152 -136 137 -136 -10 0 26 -29 37 -30 3 0 -8 24 -25 53 -33 53
-147 169 -147 149 0 -14 -55 -9 -130 12 -60 17 -86 18 -172 5z"/>
<path d="M5590 8631 c0 -6 10 -11 23 -11 41 0 164 -42 193 -66 16 -13 21 -21
12 -18 -29 10 -21 -12 15 -39 75 -58 204 -207 190 -221 -3 -3 -1 -6 6 -6 7 0
10 -4 7 -9 -3 -4 0 -16 8 -26 11 -15 13 -16 13 -1 0 9 -4 16 -8 16 -5 0 -6 6
-3 14 3 8 -2 28 -11 45 -9 18 -13 36 -10 41 3 5 -4 14 -15 20 -11 6 -17 16
-14 22 4 6 3 8 -4 4 -6 -3 -13 2 -16 12 -4 11 -40 51 -80 91 -72 69 -145 112
-213 126 -79 16 -93 17 -93 6z"/>
<path d="M2870 8602 c0 -4 5 -13 12 -20 9 -9 4 -12 -25 -12 -20 0 -37 -4 -37
-10 0 -5 -6 -10 -14 -10 -7 0 -25 -9 -40 -21 -22 -17 -26 -28 -26 -72 1 -94
46 -366 104 -622 93 -409 133 -590 131 -593 -2 -2 -36 5 -77 17 -154 42 -259
37 -373 -19 -112 -55 -185 -155 -215 -298 -24 -117 5 -295 70 -422 10 -20 16
-41 12 -45 -4 -3 -2 -5 4 -3 6 2 30 -17 53 -42 23 -25 45 -45 49 -45 4 0 28
-12 54 -28 26 -15 51 -27 56 -27 5 0 24 -8 43 -17 46 -24 200 -24 287 0 151
41 234 109 271 220 28 85 43 199 36 277 -5 61 -64 388 -85 475 -12 49 -54 229
-81 345 -11 47 -22 94 -25 105 -4 12 10 2 32 -25 22 -24 38 -48 37 -52 -2 -4
5 -8 15 -8 22 -1 169 -135 156 -143 -13 -8 -129 92 -128 110 1 7 -3 10 -9 6
-6 -4 -7 -1 -2 8 8 12 6 12 -8 1 -15 -12 -13 -16 14 -43 27 -26 29 -34 6 -30
-5 1 -6 -3 -3 -8 4 -5 15 -8 26 -6 11 2 19 -1 17 -8 -1 -7 3 -11 9 -10 6 1 10
-9 8 -25 -2 -15 -1 -19 2 -9 7 23 12 22 36 -9 11 -14 23 -23 25 -20 8 8 44
-14 39 -23 -3 -5 4 -17 16 -27 12 -11 18 -14 15 -7 -5 8 1 11 20 9 28 -3 38
-24 18 -38 -6 -5 -3 -8 6 -8 28 0 29 27 2 51 -15 13 -23 18 -18 10 5 -9 3 -12
-6 -9 -8 3 -13 11 -11 17 1 7 -2 10 -7 7 -5 -4 -12 -2 -15 3 -27 44 149 -52
198 -107 11 -12 16 -22 12 -22 -4 0 2 -10 13 -22 39 -41 74 -195 85 -372 6
-90 21 -131 53 -143 9 -4 19 -1 21 5 2 7 13 12 23 12 34 0 58 19 75 58 15 37
15 43 -2 232 -22 241 -95 376 -256 472 -38 22 -68 45 -68 50 0 5 -4 7 -9 4
-21 -13 -338 266 -375 329 -10 17 22 -10 71 -60 48 -49 104 -101 123 -115 19
-14 58 -44 87 -68 29 -23 90 -67 136 -97 45 -30 94 -66 108 -79 15 -14 30 -22
34 -18 4 4 5 0 3 -8 -2 -8 2 -14 8 -13 7 1 20 -7 29 -17 10 -11 14 -20 10 -20
-5 0 9 -19 30 -41 22 -23 34 -38 26 -34 -9 5 -12 4 -7 -3 4 -7 14 -12 23 -12
10 0 13 -6 9 -16 -4 -10 -2 -13 6 -8 8 5 9 2 5 -10 -5 -11 -3 -15 5 -10 7 5 9
2 6 -7 -3 -8 0 -28 8 -44 8 -17 12 -21 9 -9 -4 14 0 21 9 21 8 0 14 -7 13 -16
0 -9 5 -46 12 -84 7 -37 11 -76 8 -87 -3 -11 -1 -18 4 -14 5 3 9 -10 10 -28 0
-18 3 -27 6 -19 3 8 0 53 -6 100 -18 125 -21 147 -15 134 3 -7 10 -13 15 -13
5 0 4 11 -3 24 -8 19 -17 24 -37 22 -14 -2 -21 -2 -15 1 8 2 -1 24 -23 56 -19
28 -30 53 -25 55 6 2 -2 15 -17 30 -15 15 -35 39 -44 55 -10 15 -22 27 -27 27
-16 0 -50 38 -38 42 8 3 7 23 -2 71 -7 37 -10 76 -7 87 3 11 1 20 -3 20 -5 0
-7 11 -6 25 2 14 -4 30 -13 37 -14 11 -14 11 -6 -2 6 -9 2 -7 -7 3 -10 11 -15
23 -12 28 3 5 -3 6 -12 2 -13 -5 -15 -3 -9 7 5 9 4 11 -3 6 -15 -9 -16 -36 -2
-36 12 0 40 -65 40 -95 0 -13 6 -26 13 -28 6 -3 7 -6 1 -6 -12 -1 -6 -58 7
-67 5 -3 9 -10 9 -15 0 -6 -6 -7 -12 -3 -10 6 -10 4 0 -8 10 -13 10 -17 -4
-22 -21 -8 -26 -8 -21 2 3 4 -18 21 -45 37 -57 34 -205 143 -257 189 -73 66
-151 144 -151 152 -1 11 -46 64 -55 64 -12 0 -47 39 -49 56 -1 9 -10 18 -20
20 -23 3 -12 -32 23 -70 18 -21 9 -16 -27 14 -63 51 -77 72 -87 124 l-6 38 48
-41 c27 -22 52 -41 56 -41 3 0 33 -16 67 -36 75 -44 179 -88 285 -120 44 -14
100 -32 125 -41 49 -18 119 -61 121 -74 2 -14 5 -22 16 -49 6 -14 16 -72 22
-129 12 -102 30 -151 56 -151 7 0 35 7 63 16 43 14 51 21 62 55 25 75 -3 289
-48 374 -9 17 -15 33 -14 38 1 4 -2 7 -8 7 -5 0 -14 9 -20 21 -11 19 -10 20 9
10 23 -13 31 -23 36 -52 3 -12 14 -28 25 -36 11 -8 18 -18 15 -23 -3 -5 0 -12
6 -16 8 -5 9 -3 4 6 -6 9 -4 11 4 6 7 -5 10 -14 7 -22 -6 -17 6 -25 22 -15 9
6 6 17 -12 44 -28 40 -24 47 8 20 19 -17 -60 71 -94 104 -23 22 -89 63 -151
94 -61 31 -177 61 -184 48 -3 -4 2 -10 10 -12 11 -3 10 -4 -2 -3 -10 1 -17 7
-16 13 1 6 -41 25 -93 42 -156 52 -306 134 -286 156 4 5 2 5 -4 2 -7 -4 -23
11 -38 33 -15 23 -21 40 -14 40 6 0 8 3 4 8 -4 4 -13 7 -18 7 -6 0 -13 6 -16
14 -3 9 0 11 8 6 9 -5 11 -4 6 4 -4 6 -11 9 -15 7 -3 -3 -17 11 -30 30 -26 37
-46 45 -38 14 5 -19 4 -19 -18 -2 -13 9 -23 19 -23 22 1 24 -4 40 -12 40 -5 0
-10 -4 -10 -8z"/>
<path d="M5345 8590 c-119 -31 -199 -68 -256 -119 -30 -27 -58 -48 -62 -49 -5
0 -12 -4 -15 -8 -4 -4 -1 -4 7 1 9 5 12 3 9 -6 -3 -8 -11 -13 -17 -11 -7 1
-10 -2 -6 -8 3 -5 -2 -22 -13 -38 -39 -55 -102 -217 -102 -264 0 -10 -16 -80
-35 -156 -44 -176 -70 -307 -90 -457 -9 -66 -29 -201 -45 -300 -16 -99 -32
-209 -35 -244 -7 -68 -36 -222 -83 -436 -40 -181 -31 -219 55 -231 38 -5 48 0
154 72 63 43 139 94 169 115 145 97 407 353 492 480 90 134 118 210 127 343
l7 111 -32 33 c-31 31 -63 40 -98 26 -28 -11 -39 -46 -46 -145 -6 -80 -13
-107 -40 -163 -18 -37 -37 -69 -43 -73 -5 -3 -4 4 2 15 8 15 8 22 -2 25 -7 3
-6 6 5 6 17 1 43 60 40 93 0 10 3 20 9 23 14 9 11 25 -6 25 -15 0 -19 -16 -16
-52 1 -10 -3 -18 -9 -18 -6 0 -8 -4 -5 -10 3 -5 1 -10 -6 -10 -7 0 -9 -8 -6
-21 3 -12 3 -18 0 -15 -9 8 -32 -26 -33 -46 0 -10 -3 -18 -7 -18 -5 0 -21 -24
-37 -53 l-29 -52 30 30 c16 17 27 37 25 45 -3 8 -2 12 3 8 4 -4 15 -2 24 5 33
26 -57 -90 -120 -155 -60 -62 -91 -86 -73 -56 4 7 3 8 -5 4 -6 -4 -9 -11 -6
-15 4 -8 -156 -154 -208 -190 -12 -8 -30 -22 -39 -31 -9 -8 -30 -23 -46 -33
l-30 -17 13 57 c7 32 16 76 19 98 4 22 11 56 16 75 5 19 14 73 20 120 11 77
42 279 101 645 19 123 57 305 65 314 2 2 23 -12 46 -31 54 -44 141 -88 238
-119 64 -20 95 -24 210 -24 151 0 167 4 270 70 163 105 232 231 216 396 -4 37
-11 83 -16 101 -11 37 -73 140 -109 181 -128 143 -353 208 -546 157z"/>
<path d="M2704 8373 c3 -21 7 -58 10 -83 3 -25 8 -63 10 -85 10 -91 19 -151
24 -160 3 -5 7 -23 9 -40 1 -16 10 -59 18 -95 8 -36 17 -76 19 -90 3 -14 5
-25 6 -25 1 0 3 -11 6 -25 9 -52 49 -215 54 -220 3 -3 6 -16 6 -30 1 -14 5
-38 9 -55 4 -16 8 -37 10 -45 1 -8 7 -35 14 -59 7 -23 11 -44 9 -46 -2 -2 -28
3 -58 11 -59 15 -109 18 -159 8 -50 -10 -35 -20 22 -14 28 3 68 2 87 -2 19 -4
47 -9 62 -12 15 -2 35 -9 45 -15 14 -8 9 -9 -22 -5 -54 7 -25 -11 33 -21 45
-7 50 -1 28 30 -13 20 -22 53 -32 115 -3 19 -8 42 -11 50 -4 8 -7 24 -8 35 -2
11 -10 52 -20 90 -9 39 -19 84 -22 100 -2 17 -7 37 -10 45 -9 23 -14 42 -20
87 -3 24 -9 40 -14 38 -4 -3 -7 9 -7 27 0 34 -5 68 -15 103 -3 11 -8 37 -12
59 -3 21 -8 42 -11 47 -3 5 -7 30 -9 56 -2 27 -9 77 -14 113 -6 36 -11 84 -11
108 0 30 -4 42 -15 42 -11 0 -14 -9 -11 -37z"/>
<path d="M1142 8079 c4 -22 1 -24 -40 -24 -34 0 -48 -5 -63 -24 -17 -21 -19
-41 -19 -207 l0 -184 -95 1 -95 1 0 46 c0 84 -22 277 -33 291 -6 7 -12 24 -13
37 0 13 -4 28 -9 32 -4 4 -6 -5 -3 -20 5 -25 3 -26 -23 -21 -16 3 -35 0 -42
-6 -8 -6 -16 -8 -20 -5 -3 3 -13 -8 -22 -26 -13 -25 -16 -61 -16 -176 l1 -144
-116 0 c-179 0 -206 -26 -171 -165 3 -11 6 -26 6 -32 1 -14 36 -12 48 2 5 4 3
5 -3 2 -6 -4 -20 0 -30 9 -18 13 -16 14 16 10 19 -3 84 -8 145 -11 60 -3 110
-7 111 -8 1 -1 0 -53 -3 -114 l-6 -113 -139 0 c-144 0 -188 -10 -202 -45 -10
-26 -7 -103 4 -110 6 -4 8 -10 5 -15 -17 -27 30 -50 52 -25 5 4 3 5 -3 2 -6
-4 -20 1 -30 9 -18 14 -17 15 15 10 18 -3 93 -6 166 -6 l133 0 5 -97 c5 -124
16 -168 34 -149 4 4 2 10 -4 14 -6 4 10 8 35 9 41 1 51 7 80 39 30 35 32 42
32 111 l0 73 84 0 c46 0 91 3 99 6 10 4 16 -4 20 -28 2 -18 1 -34 -3 -36 -4
-2 -4 -20 0 -40 5 -20 13 -90 19 -154 7 -70 19 -137 31 -165 10 -27 19 -44 19
-40 1 4 10 3 21 -3 14 -7 20 -7 20 0 0 5 11 10 25 10 13 0 36 12 50 28 26 26
26 30 20 107 -10 119 -22 320 -20 323 1 1 79 3 174 3 l171 1 20 28 c29 40 39
72 30 96 -7 18 -5 20 18 17 26 -4 26 -4 8 11 -23 18 -61 22 -50 5 3 -6 -6 -3
-22 7 -24 16 -53 20 -191 22 l-163 4 0 94 0 94 48 0 c91 1 142 8 158 21 27 22
46 70 40 101 -4 23 -2 28 11 26 9 -2 18 3 20 10 3 8 -6 12 -27 12 -22 0 -29
-4 -24 -12 4 -7 -2 -5 -14 6 -14 12 -43 20 -87 23 -65 6 -65 6 -66 37 l-2 31
-6 -35 c-5 -30 -10 -35 -31 -32 -13 1 -25 4 -26 5 -2 1 -6 83 -9 182 -5 140
-10 185 -23 205 -9 14 -15 35 -13 47 1 11 -3 24 -10 29 -8 5 -11 0 -7 -17z
m-151 -635 l37 -6 -2 -94 c0 -55 -5 -94 -11 -94 -5 -1 -49 -3 -97 -7 l-87 -5
3 83 c2 46 4 94 5 107 1 20 6 22 59 22 31 0 73 -3 93 -6z"/>
<path d="M6639 7888 c-3 -126 0 -389 5 -397 4 -5 3 -12 -2 -15 -9 -6 -8 -149
2 -165 4 -6 2 -11 -4 -11 -6 0 -9 -3 -7 -7 3 -5 8 -111 12 -238 4 -126 9 -248
10 -270 2 -22 6 -128 10 -235 4 -107 11 -202 16 -212 14 -26 30 -13 20 15 -5
12 -9 78 -10 147 -2 122 -6 205 -17 365 -10 153 -14 362 -15 708 0 214 -4 347
-9 347 -6 0 -10 -15 -11 -32z"/>
<path d="M4756 7695 c-11 -8 -16 -21 -13 -30 4 -8 2 -15 -3 -15 -6 0 -9 -3 -8
-7 1 -5 -2 -25 -6 -45 -5 -21 -10 -57 -11 -80 -2 -24 -8 -59 -13 -79 -5 -20
-9 -58 -8 -83 0 -25 -2 -46 -5 -46 -4 0 -7 -15 -7 -32 -1 -18 -5 -46 -10 -63
-5 -16 -8 -42 -8 -57 1 -16 -2 -28 -6 -28 -4 0 -7 -8 -7 -17 -1 -20 -6 -66
-21 -187 -5 -44 -7 -82 -5 -85 3 -2 1 -9 -4 -15 -5 -6 -12 -29 -15 -51 -12
-84 -18 -111 -30 -155 -7 -25 -12 -52 -11 -60 1 -8 -3 -21 -8 -28 -6 -7 -7
-15 -4 -18 3 -3 -1 -21 -9 -40 -8 -19 -12 -39 -9 -44 3 -5 1 -11 -5 -15 -5 -3
-10 -19 -10 -34 0 -33 24 -70 34 -53 4 7 2 12 -5 12 -7 0 -5 8 6 20 18 20 18
21 0 14 -14 -6 -16 -4 -10 6 4 7 10 23 11 34 2 12 12 57 23 101 11 44 18 82
16 84 -3 2 1 13 7 24 6 12 12 37 13 56 2 20 5 43 8 51 6 17 13 56 27 155 17
125 19 155 8 155 -5 0 -2 7 6 16 9 8 17 29 17 45 2 34 6 68 9 72 1 1 3 16 5
32 2 17 7 49 13 70 5 22 10 58 12 80 4 72 7 100 13 115 6 16 16 78 24 149 2
24 9 55 14 68 10 27 10 27 -15 8z"/>
<path d="M3465 7359 c-4 -6 -14 -8 -22 -5 -8 3 -11 1 -8 -4 4 -6 14 -9 23 -8
9 2 16 -2 15 -9 -2 -8 4 -10 15 -6 9 3 14 2 9 -2 -4 -5 2 -18 13 -30 46 -49
90 -236 103 -442 2 -34 26 -70 28 -42 1 7 1 17 0 21 0 4 -3 39 -5 76 -2 38 -9
79 -15 90 -7 14 -8 23 -1 27 6 4 7 13 1 23 -5 9 -12 39 -15 66 -4 27 -13 61
-21 76 -8 15 -11 30 -8 33 3 4 1 13 -5 20 -7 8 -9 17 -5 20 3 4 2 7 -4 7 -10
0 -38 49 -35 61 1 4 -6 6 -16 5 -9 0 -16 4 -15 11 2 8 -4 10 -14 6 -11 -4 -14
-3 -9 5 4 7 5 12 2 12 -3 0 -8 -5 -11 -11z"/>
<path d="M8407 6043 c-2 -5 -3 -16 -1 -26 2 -15 -2 -18 -19 -13 -12 3 -53 1
-92 -4 -79 -10 -135 -16 -273 -30 -54 -5 -153 -17 -222 -25 -69 -8 -253 -31
-410 -51 -157 -19 -301 -39 -322 -44 -20 -6 -49 -25 -66 -44 -33 -38 -30 -4
-57 -621 -8 -187 -17 -383 -20 -435 -2 -52 -5 -142 -5 -199 0 -94 -1 -103 -15
-85 -16 21 -20 60 -7 68 5 3 9 22 10 43 1 28 -1 34 -8 23 -8 -13 -10 -12 -10
3 0 9 4 17 9 17 5 0 9 11 9 25 0 16 -5 22 -12 18 -6 -4 -6 -1 1 9 8 9 11 33 9
62 -3 27 -1 44 5 41 5 -4 9 0 9 9 0 8 -6 17 -12 19 -10 4 -10 6 0 6 6 1 12 14
12 30 0 16 -6 32 -12 34 -10 4 -9 8 2 16 12 9 13 14 3 31 -7 11 -13 25 -12 32
0 7 4 4 9 -7 8 -17 9 -16 9 10 0 17 2 55 5 85 9 110 10 185 2 199 -6 10 -5 12
2 7 8 -5 11 38 11 156 -1 169 5 280 15 297 4 5 -3 9 -14 8 -18 -1 -20 -9 -22
-72 -1 -76 -3 -109 -14 -285 -4 -63 -7 -161 -8 -216 -1 -56 -4 -100 -7 -98 -3
2 -7 -27 -7 -64 -1 -37 -4 -112 -7 -167 -3 -55 -8 -140 -10 -190 -2 -49 -4
-93 -4 -96 -1 -3 -31 9 -68 27 -37 18 -70 31 -75 28 -4 -3 -8 -1 -8 3 0 15
-123 7 -160 -10 -39 -18 -27 -23 17 -6 55 21 124 13 206 -25 76 -35 110 -60
42 -31 -20 8 -50 14 -68 14 -18 -1 -45 4 -60 10 -16 6 -62 11 -102 11 -125 0
-233 -62 -307 -174 -21 -33 -38 -53 -38 -46 0 12 -2 12 -12 1 -11 -11 -10 -14
0 -18 6 -3 10 -8 8 -12 -11 -17 -18 -73 -23 -177 -6 -124 8 -193 55 -274 24
-42 78 -105 91 -105 3 0 40 -15 81 -32 108 -45 179 -60 320 -68 98 -5 134 -3
167 9 91 32 156 95 181 176 10 33 21 680 22 1271 l0 237 78 7 c86 7 905 109
995 123 l57 9 0 -33 c0 -18 -5 -36 -10 -39 -6 -4 -8 -10 -5 -15 5 -8 -32 -890
-37 -896 -2 -1 -12 5 -23 13 -16 13 -17 15 -2 10 11 -4 17 -1 17 8 0 8 -6 15
-12 15 -10 0 -9 3 1 9 9 6 10 14 4 27 -5 11 -8 30 -7 44 1 14 5 93 9 175 4 83
9 153 12 158 2 4 -1 7 -6 7 -6 0 -11 -5 -11 -12 0 -6 -3 -8 -7 -5 -3 4 1 15
10 25 12 13 16 38 16 100 0 45 2 86 5 90 8 13 11 211 3 218 -9 9 -23 -31 -30
-84 -3 -28 -2 -40 5 -35 6 3 9 2 6 -3 -7 -10 -22 -189 -19 -219 1 -11 1 -27 0
-35 -1 -8 -2 -61 -3 -118 0 -56 -5 -102 -9 -102 -4 0 -3 -9 3 -20 6 -12 7 -20
1 -20 -5 0 -9 -24 -9 -53 0 -29 -2 -63 -6 -74 -6 -19 -10 -20 -36 -11 -16 5
-37 8 -47 6 -11 -3 2 -11 35 -22 50 -17 69 -36 36 -36 -8 0 -13 -4 -10 -8 3
-5 -21 0 -52 11 -41 14 -86 20 -157 21 -94 1 -104 -1 -165 -31 -74 -37 -119
-89 -155 -180 -55 -136 -71 -322 -35 -400 10 -24 15 -43 10 -43 -6 0 -10 5
-10 11 0 5 -4 8 -8 5 -5 -3 -16 10 -25 29 -13 27 -15 52 -11 111 7 94 8 96 17
110 3 6 8 32 9 57 2 25 6 43 11 40 6 -4 8 4 11 49 1 9 4 20 9 24 11 11 8 26
-4 18 -12 -7 -47 -84 -52 -117 -2 -12 -7 -30 -11 -39 -4 -9 -5 -21 -2 -27 4
-5 2 -12 -3 -15 -5 -3 -10 -30 -10 -58 -4 -140 3 -163 66 -218 21 -19 37 -37
36 -41 -1 -4 5 -13 15 -21 16 -12 16 -11 2 6 -14 18 -13 19 5 13 17 -6 18 -5
5 5 -8 7 -22 22 -30 33 -8 12 -1 8 16 -7 42 -39 191 -115 260 -133 69 -18 206
-20 272 -3 112 27 231 138 252 234 5 22 11 179 14 349 4 171 9 357 11 415 2
58 7 274 11 480 3 206 9 453 13 548 4 110 2 177 -4 185 -5 6 0 3 13 -8 l23
-19 -3 27 c-5 35 -12 41 -37 27 -23 -12 -25 -8 -21 43 1 26 -4 35 -13 20z
m-135 -320 c-2 -27 -5 -49 -6 -50 0 -1 -55 -9 -121 -17 -66 -9 -145 -21 -175
-26 -30 -6 -208 -33 -395 -60 -187 -27 -356 -54 -375 -60 -69 -20 -70 -19 -70
74 l0 83 98 8 c53 3 309 28 567 54 259 26 473 46 476 45 4 -2 4 -25 1 -51z"/>
<path d="M4855 5890 c-19 -8 -45 -17 -55 -18 -7 -1 -210 -71 -235 -81 -23 -9
-46 -17 -210 -72 -66 -22 -129 -44 -140 -49 -11 -5 -49 -18 -85 -29 -148 -45
-370 -131 -370 -143 0 -5 3 -8 8 -6 39 19 75 33 187 71 72 25 148 50 170 57
22 7 45 15 50 19 6 3 15 6 20 8 13 3 461 157 500 172 55 21 60 23 82 27 12 2
43 13 68 24 57 24 62 25 69 3 4 -14 4 -14 3 2 -2 22 -30 29 -62 15z"/>
<path d="M4505 5736 c-541 -185 -707 -243 -765 -265 -30 -12 -61 -21 -68 -21
-8 0 -28 -10 -44 -22 l-31 -21 6 -76 c4 -42 20 -157 37 -256 17 -99 42 -247
55 -330 14 -82 51 -305 84 -495 32 -190 58 -346 57 -347 -1 -1 -19 9 -40 23
-68 47 -142 67 -215 59 -133 -14 -235 -86 -292 -205 -19 -38 -38 -70 -42 -70
-5 0 -5 -4 -2 -10 3 -5 1 -37 -5 -71 -17 -93 1 -186 52 -276 44 -77 77 -114
126 -141 17 -9 50 -28 73 -41 28 -15 67 -26 107 -29 107 -8 201 29 317 126 96
81 127 129 157 243 l22 87 -28 158 c-25 141 -85 477 -101 559 -3 17 -23 127
-45 245 -101 551 -130 707 -136 726 -5 17 0 23 23 28 31 8 658 211 870 282 73
24 137 44 142 44 6 0 12 -15 15 -32 3 -18 19 -121 36 -228 34 -214 61 -347
115 -575 39 -166 85 -389 85 -416 0 -13 -5 -16 -22 -11 -20 5 -20 7 -5 10 18
4 18 5 1 23 -9 10 -15 19 -11 19 3 0 -1 26 -8 58 -7 31 -16 77 -20 102 -3 25
-13 72 -22 105 -8 33 -17 69 -19 80 -2 11 -11 47 -19 80 -21 83 -22 87 -45
210 -12 61 -24 121 -27 135 -3 14 -7 36 -9 50 -1 14 -4 39 -7 55 -3 17 -8 53
-12 80 -10 77 -28 155 -36 160 -7 5 -5 -47 6 -130 3 -27 6 -58 6 -67 0 -10 3
-18 7 -18 4 0 8 -8 9 -17 2 -42 10 -99 16 -113 3 -8 5 -22 5 -30 -1 -15 7 -65
17 -110 3 -14 10 -47 15 -75 5 -27 14 -65 19 -84 6 -19 8 -37 6 -42 -3 -4 -1
-10 4 -13 7 -5 15 -32 26 -91 1 -5 3 -12 4 -15 2 -3 4 -16 6 -30 2 -14 13 -72
25 -130 32 -163 32 -161 1 -153 -85 22 -230 -1 -309 -49 -46 -28 -33 -34 18
-8 85 43 173 57 274 44 44 -6 64 -23 29 -25 -10 0 0 -7 22 -15 22 -8 46 -17
54 -19 8 -3 12 -8 9 -10 -2 -2 -27 4 -55 15 -76 29 -184 35 -267 16 -91 -21
-199 -79 -241 -129 -37 -43 -75 -131 -75 -173 0 -21 -3 -24 -22 -19 -16 4 -19
3 -10 -3 11 -7 11 -10 -2 -15 -18 -7 -22 -47 -5 -47 7 0 8 -5 3 -12 -24 -33
23 -195 76 -267 31 -44 67 -80 73 -75 2 3 10 -3 18 -13 12 -15 12 -16 -1 -8
-13 8 -13 7 -1 -8 11 -14 17 -15 28 -5 13 10 11 16 -13 36 -83 67 -98 83 -83
93 11 7 11 9 -4 9 -10 0 -22 11 -27 25 -6 14 -15 37 -21 53 -21 50 -34 208
-19 217 6 4 10 -9 10 -28 0 -47 35 -180 64 -241 23 -51 104 -151 114 -142 2 3
19 -2 36 -11 22 -11 68 -18 152 -21 209 -8 316 24 416 123 67 66 118 162 118
223 0 35 -26 194 -85 512 -24 132 -44 220 -101 444 -49 194 -163 737 -183 870
-9 60 -38 86 -96 85 -24 0 -172 -45 -370 -113z"/>
<path d="M890 5625 c-154 -43 -228 -109 -317 -282 -73 -141 -94 -203 -168
-480 -90 -345 -142 -598 -176 -858 -17 -135 -58 -289 -80 -303 -18 -12 -19
-11 -11 5 5 10 17 54 26 98 10 44 20 88 22 98 4 11 0 17 -10 17 -14 0 -22 -31
-17 -62 0 -5 -3 -8 -9 -8 -5 0 -9 -10 -9 -22 1 -27 -4 -49 -13 -63 -13 -22
-20 -83 -9 -89 8 -5 8 -13 1 -26 -14 -26 -2 -68 23 -81 29 -16 179 -35 797
-99 200 -20 238 -24 397 -39 50 -5 102 -16 115 -24 47 -29 75 -29 108 0 30 27
31 32 41 148 5 66 14 149 20 185 16 105 239 987 254 1008 2 2 31 -13 66 -32
106 -58 263 -84 404 -66 111 14 198 67 279 170 81 103 101 160 100 280 0 78
-15 119 -76 215 -34 53 -54 74 -110 117 -26 19 -44 39 -40 43 4 5 2 5 -4 2 -7
-4 -41 4 -77 18 -87 33 -149 39 -237 26 -90 -14 -145 -38 -196 -84 -22 -19
-42 -35 -46 -36 -24 -4 -38 -15 -43 -32 -4 -11 -10 -17 -15 -14 -13 8 -62 -62
-62 -90 0 -13 -6 -23 -12 -22 -6 1 -11 -6 -11 -15 0 -9 -4 -20 -9 -25 -5 -5
-6 -2 -1 6 5 9 4 12 -3 7 -7 -4 -12 -15 -12 -24 0 -9 -7 -25 -15 -35 -7 -11
-11 -25 -8 -33 3 -8 1 -14 -5 -14 -9 0 -26 -52 -25 -77 0 -7 -2 -13 -6 -13 -4
0 -8 -8 -9 -17 -4 -39 -9 -54 -20 -65 -7 -7 -12 -20 -12 -30 0 -10 -6 -29 -14
-41 -8 -12 -22 -51 -31 -87 -9 -36 -20 -69 -25 -75 -7 -9 -19 -59 -23 -97 -1
-10 -4 -18 -7 -18 -4 0 -7 -6 -7 -12 -2 -32 -11 -75 -21 -100 -6 -15 -9 -36
-7 -47 2 -12 0 -21 -4 -21 -5 0 -11 -19 -15 -42 -4 -24 -9 -53 -11 -65 -2 -12
-7 -28 -11 -35 -5 -7 -10 -24 -11 -38 -4 -30 -32 -158 -40 -180 -3 -8 -7 -24
-8 -35 -5 -33 -24 -76 -32 -72 -8 5 -82 12 -218 22 -38 3 -88 7 -110 10 -22 2
-74 7 -115 10 -41 3 -95 8 -120 10 -120 10 -238 18 -262 18 -16 1 -28 3 -28 6
0 3 -11 7 -25 7 -29 2 -34 -12 -7 -19 9 -3 60 -8 112 -12 52 -3 165 -12 250
-20 85 -8 198 -17 250 -21 52 -3 106 -7 120 -9 191 -18 215 -18 203 -3 -7 8
-11 17 -8 20 3 3 16 47 29 99 19 72 21 97 13 108 -8 10 -8 13 -1 8 6 -4 15 9
22 31 8 25 8 38 1 41 -6 2 -4 8 5 15 8 6 17 28 20 50 4 21 8 42 11 46 2 3 7
22 10 41 4 29 13 68 21 102 1 4 2 8 4 10 2 2 9 39 12 65 1 6 5 12 10 12 4 0 8
8 8 18 0 9 14 62 31 117 17 55 31 107 32 115 2 8 12 37 25 64 12 26 20 52 17
56 -3 5 -2 10 3 12 4 1 21 41 36 88 16 47 46 119 67 160 21 41 34 77 28 78 -6
3 -5 9 2 18 10 12 14 12 21 2 6 -9 7 -5 3 10 -4 12 -2 21 2 20 5 -2 22 11 37
27 22 25 21 20 -10 -29 -50 -81 -78 -145 -135 -309 -87 -248 -145 -453 -224
-792 -43 -181 -78 -331 -79 -332 -1 -1 -46 2 -101 7 -55 5 -131 11 -170 14
-38 3 -207 17 -375 32 -168 14 -329 25 -357 25 -29 -1 -53 3 -53 7 0 24 54
331 71 407 52 225 81 345 100 408 l20 67 27 -14 c47 -23 134 -45 235 -57 121
-15 209 -2 305 47 126 63 212 150 232 236 18 74 8 258 -18 325 -11 29 -17 55
-13 59 3 4 0 4 -6 0 -8 -4 -13 -2 -13 6 0 26 -94 106 -150 129 -72 29 -230 36
-310 14z m-204 -1820 c137 -13 274 -26 304 -28 114 -9 445 -41 449 -43 1 -2 0
-26 -4 -54 l-7 -51 -67 5 c-280 22 -583 47 -616 51 -22 2 -87 7 -145 11 -58 3
-125 8 -150 10 -25 2 -59 3 -76 4 l-31 0 16 60 c19 72 -12 69 327 35z"/>
<path d="M2295 5550 c-24 -6 -19 -8 28 -9 90 -2 237 -57 221 -83 -4 -7 -9 -6
-15 3 -6 9 -9 10 -9 2 0 -6 15 -21 33 -32 18 -11 44 -33 57 -48 14 -16 44 -50
67 -77 24 -27 40 -53 36 -59 -3 -6 -1 -7 5 -3 11 7 17 -6 13 -27 -1 -5 4 -5
10 -1 8 5 10 2 7 -8 -4 -9 0 -15 8 -15 18 0 19 -2 -16 66 -16 32 -26 62 -22
66 4 5 2 5 -4 2 -10 -6 -25 13 -28 35 -2 13 -49 48 -57 42 -5 -3 -6 2 -3 10 4
9 -13 28 -49 54 -78 58 -118 73 -227 86 -14 2 -38 0 -55 -4z"/>
<path d="M564 5408 c-9 -18 -28 -47 -41 -65 -13 -17 -25 -41 -26 -52 -1 -12
-4 -21 -8 -21 -7 0 -53 -106 -55 -125 0 -5 -10 -30 -21 -55 -11 -25 -19 -56
-18 -69 2 -14 -4 -31 -12 -39 -10 -11 -11 -17 -2 -28 6 -8 7 -14 2 -14 -5 0
-15 -26 -22 -57 -7 -32 -17 -66 -22 -75 -5 -10 -6 -24 -3 -31 3 -8 -2 -17 -11
-21 -9 -3 -14 -10 -10 -16 3 -5 -1 -31 -10 -57 -9 -27 -18 -55 -20 -63 -10
-55 -18 -99 -22 -125 -9 -55 -10 -60 -22 -103 -14 -49 -21 -91 -25 -142 -2
-19 -6 -49 -10 -65 -3 -17 -9 -41 -12 -55 -2 -14 -7 -54 -10 -90 -2 -36 -7
-75 -10 -87 -5 -27 12 -31 20 -5 3 9 8 46 11 81 3 35 7 67 10 70 2 4 6 35 9
69 3 34 13 92 21 129 9 37 18 83 21 101 2 18 8 41 13 50 5 9 12 40 15 67 6 50
13 90 16 90 1 0 3 7 5 15 2 8 11 42 20 75 10 33 18 71 19 85 0 14 5 28 9 31 7
5 34 103 42 149 1 8 5 22 8 30 11 30 38 115 42 132 2 9 9 26 15 38 6 11 8 24
5 29 -3 5 -1 11 3 13 5 1 28 41 51 88 24 47 53 99 64 115 19 27 19 28 2 15
-17 -14 -18 -13 -12 3 11 29 -1 19 -19 -15z"/>
<path d="M3556 5282 c2 -20 8 -38 12 -39 4 -2 6 -24 6 -49 -1 -25 2 -62 7 -83
4 -20 11 -52 14 -71 3 -19 8 -42 10 -50 2 -8 9 -53 15 -100 11 -95 16 -123 30
-194 6 -27 8 -51 5 -54 -3 -3 3 -14 12 -25 10 -11 13 -18 7 -14 -8 4 -7 -18 3
-71 8 -42 16 -97 18 -122 2 -25 8 -46 12 -47 4 -2 8 -24 8 -51 -1 -26 4 -71
11 -99 7 -29 10 -53 7 -53 -3 0 -1 -6 5 -12 6 -7 10 -24 9 -38 -1 -14 2 -42 6
-62 l8 -38 -28 12 c-72 29 -209 11 -249 -33 -15 -17 -10 -16 42 7 46 21 73 26
123 25 35 -1 73 -7 85 -13 21 -12 21 -12 -3 -18 -22 -5 -19 -8 28 -33 29 -15
55 -27 57 -27 10 0 3 35 -11 50 -8 9 -17 34 -21 55 -3 22 -10 58 -14 81 -5 22
-12 67 -16 100 -3 32 -9 60 -13 62 -3 1 -6 18 -5 37 1 19 -2 54 -8 77 -5 24
-11 57 -13 73 -5 48 -17 89 -29 97 -8 6 -8 8 0 8 7 0 8 15 3 48 -5 26 -13 79
-19 117 -6 39 -13 84 -16 100 -3 17 -7 44 -10 60 -3 17 -6 39 -8 50 -3 21 -17
115 -21 150 -1 11 -4 20 -5 20 -1 0 -3 11 -4 25 -1 14 -5 41 -9 60 -6 29 -12
67 -16 101 -1 4 -8 9 -15 12 -12 5 -14 -2 -10 -31z"/>
<path d="M6160 2421 c-25 -4 113 -10 305 -13 193 -4 400 -12 460 -18 165 -15
203 -19 280 -25 165 -15 347 -49 429 -81 13 -5 17 -4 12 4 -11 18 -164 56
-291 72 -133 18 -144 19 -320 34 -320 28 -771 42 -875 27z"/>
<path d="M6081 2389 c-286 -25 -765 -133 -1071 -241 -149 -52 -773 -302 -1027
-411 -124 -54 -273 -99 -302 -92 -20 4 -22 3 -11 -5 8 -5 12 -10 9 -10 -3 0
-51 -11 -105 -24 -105 -26 -248 -50 -379 -66 -44 -5 -226 -7 -405 -6 -454 5
-553 24 -979 191 -78 30 -143 55 -146 55 -18 0 -330 142 -418 191 -164 90
-347 256 -347 315 0 19 -41 54 -62 54 -28 0 -58 -37 -58 -70 0 -54 40 -112
154 -227 61 -61 113 -111 116 -110 3 0 37 -18 75 -40 137 -80 294 -152 555
-256 304 -120 450 -169 596 -197 159 -30 241 -35 614 -34 327 0 353 1 502 27
342 58 400 78 1238 424 403 166 638 245 890 298 280 59 418 85 510 95 327 37
1207 -18 1475 -91 38 -10 86 -19 106 -19 34 0 39 4 56 40 14 31 22 38 38 34
19 -5 19 -4 3 9 -10 8 -18 19 -18 26 0 6 -7 11 -16 11 -14 0 -14 -3 -3 -16 9
-11 3 -10 -22 5 -96 56 -353 96 -853 131 -211 15 -599 20 -715 9z"/>
<path d="M784 2083 c3 -19 1 -21 -24 -16 -20 4 -34 -1 -49 -16 -45 -45 -19
-105 97 -223 36 -37 70 -64 76 -61 6 3 8 2 3 -2 -4 -5 1 -18 10 -29 10 -12
-23 17 -71 64 -49 47 -106 112 -127 144 -22 33 -39 52 -39 44 0 -24 51 -86
158 -192 69 -68 102 -94 107 -86 6 9 4 11 -5 5 -9 -5 -11 -4 -6 3 9 15 68 -27
59 -42 -3 -6 -3 -8 1 -4 4 3 40 -15 79 -42 107 -71 221 -136 427 -242 280
-145 474 -216 747 -274 116 -24 153 -27 388 -31 192 -3 294 0 390 11 133 15
570 81 615 92 69 17 284 90 436 148 225 85 485 166 714 221 287 70 293 72 495
126 105 28 206 55 225 59 19 4 125 28 235 53 403 92 661 134 885 144 340 15
833 -61 1111 -173 110 -44 143 -44 168 -3 10 17 17 38 14 47 -11 44 -146 100
-373 157 -411 104 -870 131 -1240 75 -285 -43 -742 -144 -1130 -250 -66 -18
-125 -29 -140 -25 -16 3 -20 2 -12 -3 9 -6 -27 -18 -105 -36 -358 -84 -627
-164 -913 -273 -273 -104 -391 -138 -586 -167 -93 -15 -209 -33 -259 -41 -233
-38 -604 -47 -790 -20 -187 27 -387 83 -565 157 -192 81 -523 256 -669 353
-99 67 -290 244 -312 290 l-19 40 28 -30 c16 -16 28 -32 28 -35 -1 -3 7 -16
17 -30 9 -13 17 -22 17 -19 0 4 31 -24 68 -60 108 -105 188 -165 205 -154 6 3
7 2 4 -4 -7 -11 67 -56 77 -46 3 3 6 1 6 -6 0 -7 5 -9 12 -5 7 5 8 3 3 -6 -6
-10 -4 -12 8 -7 11 4 21 -1 28 -14 6 -12 17 -18 24 -15 8 3 27 -5 42 -18 29
-24 33 -26 59 -26 8 0 12 -4 9 -10 -4 -6 1 -7 11 -3 10 4 15 2 11 -3 -3 -6 3
-10 13 -11 24 -2 130 -62 130 -74 0 -6 6 -9 13 -7 16 4 78 -22 73 -31 -3 -4 3
-7 12 -7 9 -1 43 -13 75 -27 31 -15 57 -23 57 -18 0 5 -15 14 -32 21 -43 16
-364 177 -448 224 -36 20 -81 44 -100 54 -19 9 -41 23 -49 30 -8 8 -24 18 -35
23 -49 22 -246 181 -246 199 0 5 -10 12 -21 15 -15 5 -18 10 -9 15 8 5 8 9 -4
13 -9 4 -16 13 -16 22 0 8 -3 14 -7 13 -12 -4 -53 34 -64 57 -9 19 -9 19 -5
-2z"/>
<path d="M1565 1848 c11 -8 54 -27 95 -42 92 -34 124 -46 225 -86 87 -35 295
-106 335 -114 14 -3 57 -12 95 -20 81 -17 225 -36 270 -35 47 1 1 16 -56 18
-115 3 -449 82 -554 130 -32 15 -248 97 -410 156 l-20 7 20 -14z"/>
<path d="M568 1719 c-10 -5 -18 -20 -18 -32 0 -13 -5 -28 -12 -35 -8 -8 2 -30
42 -89 78 -114 123 -173 133 -173 4 0 -7 19 -26 43 -19 23 -52 69 -74 102 -53
80 -58 89 -46 82 5 -3 39 -50 76 -104 36 -54 88 -120 116 -147 27 -27 47 -54
44 -61 -2 -7 0 -16 6 -20 7 -3 8 0 5 9 -9 23 19 20 41 -4 16 -18 14 -25 -8
-21 -5 1 -6 -3 -2 -9 5 -8 11 -8 20 0 10 8 27 1 72 -33 208 -157 466 -256 967
-372 174 -40 335 -60 614 -76 818 -46 1264 21 2028 307 122 45 243 91 270 103
662 273 1077 365 1654 365 336 0 570 -28 801 -98 175 -53 490 -128 513 -122
30 7 56 55 45 83 -12 32 -28 38 -230 88 -101 25 -226 59 -279 75 -434 134
-1108 145 -1645 27 -55 -12 -117 -21 -137 -21 -24 0 -33 -3 -25 -9 7 -5 -2 -6
-23 -3 -19 3 -30 2 -23 -2 7 -4 -39 -23 -112 -44 -133 -40 -228 -75 -595 -218
-348 -136 -561 -212 -582 -207 -10 3 -16 1 -13 -4 5 -7 -17 -17 -55 -24 -3 -1
-36 -11 -75 -23 -334 -102 -700 -157 -1055 -157 -336 0 -717 23 -908 56 -284
48 -681 163 -842 244 -115 58 -146 78 -286 182 -113 84 -144 118 -238 261 -60
90 -91 109 -138 81z"/>
<path d="M6452 1715 c3 -3 68 -8 145 -11 289 -8 521 -40 720 -100 166 -50 493
-132 493 -124 0 7 -66 29 -105 36 -22 4 -119 27 -180 42 -22 5 -100 28 -174
51 -136 41 -287 72 -446 91 -110 13 -463 25 -453 15z"/>
<path d="M850 1482 c0 -29 279 -240 300 -227 4 3 11 -2 14 -11 3 -8 11 -14 18
-12 21 4 98 -34 91 -45 -3 -6 -2 -7 4 -4 5 3 43 -7 84 -23 112 -43 477 -145
486 -136 7 6 8 6 -119 40 -54 14 -105 26 -113 26 -8 0 -23 4 -33 9 -14 8 -105
38 -137 46 -11 2 -20 5 -125 47 -109 42 -280 142 -385 225 -52 41 -73 62 -68
67 4 3 1 6 -5 6 -7 0 -12 -4 -12 -8z"/>
<path d="M520 1452 c0 -13 47 -71 78 -95 12 -10 20 -23 17 -28 -4 -5 -2 -9 2
-9 5 0 74 -66 153 -146 155 -156 255 -238 277 -230 8 3 11 1 8 -4 -3 -6 1 -7
10 -4 10 4 15 2 13 -7 -2 -7 6 -14 18 -15 11 0 46 -13 77 -27 32 -14 57 -22
57 -18 0 4 -28 20 -61 34 -146 63 -212 112 -390 290 -94 95 -191 194 -215 221
-24 26 -44 44 -44 38z"/>
<path d="M450 1410 c-11 -11 -20 -30 -20 -43 0 -24 42 -96 79 -134 12 -13 18
-23 14 -23 -7 0 -55 56 -109 125 -12 16 -11 12 2 -15 18 -38 134 -163 142
-155 3 3 -3 12 -14 21 -13 11 -9 10 13 -2 18 -10 54 -43 80 -74 87 -100 185
-200 193 -195 4 3 14 -3 21 -13 13 -16 12 -16 -6 -2 -19 14 -20 14 -2 -6 9
-11 14 -24 10 -29 -5 -4 -2 -5 5 -1 7 4 10 12 7 17 -10 15 12 10 25 -7 38 -45
387 -209 580 -272 131 -43 320 -80 475 -93 72 -6 218 -19 325 -30 302 -29 490
-20 1140 56 216 26 445 61 575 90 39 8 91 20 117 25 136 27 212 50 583 170
341 111 451 135 1010 219 378 58 447 64 720 65 299 1 338 -3 710 -79 144 -29
321 -61 395 -70 85 -11 142 -23 153 -33 58 -50 145 19 117 93 -7 17 -7 24 0
20 6 -3 10 -1 10 5 0 7 -7 10 -15 7 -8 -4 -26 0 -41 8 -15 7 -57 17 -93 20
-113 11 -298 43 -496 84 -359 74 -377 76 -725 75 -329 0 -361 -3 -750 -63
-624 -97 -709 -116 -1084 -242 -164 -55 -248 -78 -265 -74 -17 4 -21 3 -13 -3
41 -27 -564 -148 -963 -192 -656 -73 -781 -80 -1018 -56 -164 17 -235 23 -367
32 -137 9 -377 59 -499 104 -173 64 -398 167 -472 215 -37 25 -89 66 -114 91
-26 25 -44 39 -40 32 4 -7 -4 0 -17 15 -56 69 -153 168 -189 193 -22 15 -38
33 -35 40 3 7 -3 18 -12 26 -15 12 -16 11 -3 -4 8 -11 9 -18 3 -18 -6 0 -13 9
-17 19 -10 32 -61 81 -84 81 -12 0 -30 -9 -41 -20z"/>
<path d="M6229 1266 c-2 -2 -43 -7 -91 -11 -48 -3 -109 -10 -135 -15 -38 -7
-31 -8 32 -3 216 16 316 19 505 17 113 -1 234 -6 270 -12 36 -6 83 -13 105
-17 22 -3 164 -30 315 -60 151 -29 304 -57 340 -60 108 -11 184 -26 192 -38 5
-8 8 -6 8 4 0 23 -16 27 -128 40 -54 6 -108 13 -122 15 -14 2 -63 11 -110 18
-47 8 -128 24 -180 36 -88 19 -153 32 -223 44 -15 3 -35 7 -45 10 -54 18 -305
35 -503 35 -125 0 -228 -1 -230 -3z"/>
<path d="M410 1060 c0 -5 7 -10 15 -10 8 0 49 -31 92 -68 43 -38 149 -118 236
-178 86 -60 181 -126 210 -146 28 -21 58 -35 65 -33 7 3 11 1 8 -4 -7 -11 42
-44 54 -36 16 10 12 23 -9 30 -22 7 -143 84 -181 115 -14 11 -90 64 -169 118
-79 53 -165 115 -190 138 -50 45 -131 91 -131 74z"/>
<path d="M342 1024 c-22 -15 -30 -57 -14 -80 4 -6 28 -21 54 -33 26 -11 67
-44 94 -73 26 -29 41 -44 33 -33 -9 12 -1 9 21 -9 19 -16 34 -33 32 -38 -1 -5
2 -7 8 -3 6 3 79 -43 163 -102 211 -151 234 -166 392 -262 340 -205 538 -266
980 -301 132 -11 1104 -7 1220 4 33 4 114 11 180 17 155 13 284 42 642 145
161 46 356 100 433 119 129 33 224 63 540 173 204 71 378 115 580 148 133 21
522 29 694 15 217 -18 530 -76 876 -161 306 -74 390 -92 412 -87 13 4 32 23
43 44 23 43 34 54 50 46 5 -3 0 4 -12 16 -25 24 -53 30 -34 7 6 -7 -9 -3 -34
9 -25 13 -89 33 -143 45 -53 12 -160 37 -237 55 -247 59 -316 73 -520 109
-315 55 -376 60 -675 60 -414 -1 -632 -39 -1048 -179 -122 -42 -228 -73 -234
-69 -7 4 -8 3 -4 -4 8 -14 -37 -27 -55 -16 -7 4 -9 3 -5 -4 7 -12 -43 -30
-213 -72 -68 -17 -130 -29 -138 -26 -8 3 -12 2 -9 -3 8 -12 -252 -83 -277 -76
-15 4 -18 3 -9 -3 8 -6 -49 -26 -170 -60 -241 -68 -345 -89 -508 -102 -74 -5
-157 -13 -185 -15 -127 -13 -967 -17 -1115 -6 -564 43 -733 113 -1385 566 -93
65 -193 138 -222 162 -63 53 -131 93 -158 93 -11 0 -31 -7 -43 -16z"/>
<path d="M1095 580 c-6 -9 8 -14 28 -11 4 0 7 -3 7 -9 0 -5 3 -9 8 -9 19 3 33
-2 27 -11 -3 -5 0 -7 8 -4 8 3 18 0 23 -7 4 -8 3 -10 -4 -5 -7 4 -12 5 -12 3
0 -8 144 -90 157 -90 7 0 13 -4 13 -9 0 -5 5 -6 10 -3 6 3 10 2 10 -4 0 -6 7
-7 17 -4 12 5 14 3 8 -7 -5 -9 -4 -11 3 -6 7 4 12 2 12 -4 0 -6 4 -9 9 -6 14
9 42 -5 34 -17 -3 -5 -1 -7 5 -3 6 3 44 -7 84 -23 119 -47 326 -90 508 -106
36 -3 90 -8 120 -11 84 -8 438 -9 446 -1 4 4 -73 7 -172 8 -98 0 -186 2 -194
3 -8 2 -64 6 -125 10 -179 11 -392 46 -510 84 -73 24 -272 110 -288 126 -7 6
-32 22 -57 35 -25 13 -52 30 -60 36 -15 13 -95 55 -104 55 -3 0 -8 -4 -11 -10z"/>
</g>
</svg>
