<?xml version="1.0" standalone="no"?>
<!DOCTYPE svg PUBLIC "-//W3C//DTD SVG 20010904//EN"
 "http://www.w3.org/TR/2001/REC-SVG-20010904/DTD/svg10.dtd">
<svg version="1.0" xmlns="http://www.w3.org/2000/svg"
 width="987.000000pt" height="505.000000pt" viewBox="0 0 987.000000 505.000000"
 preserveAspectRatio="xMidYMid meet">
<metadata>
Created by potrace 1.16, written by Peter Selinger 2001-2019
</metadata>
<g transform="translate(0.000000,505.000000) scale(0.100000,-0.100000)"
fill="#000000" stroke="none">
<path d="M7784 5011 c-109 -39 -161 -76 -226 -159 -85 -107 -137 -245 -167
-437 -12 -73 -46 -197 -66 -236 -8 -15 -15 -33 -15 -40 0 -20 -120 -250 -158
-304 -49 -69 -60 -78 -30 -25 109 193 177 492 141 620 -30 110 -68 158 -143
185 -64 22 -118 22 -172 -2 -52 -24 -102 -84 -118 -142 -19 -72 -14 -263 10
-366 12 -54 6 -55 -14 -3 -47 120 -141 206 -213 195 -19 -3 -46 -13 -60 -22
-30 -20 -63 -73 -63 -101 0 -33 36 -108 98 -203 84 -128 142 -248 142 -293 0
-48 38 -93 74 -86 20 4 25 -1 34 -29 10 -32 9 -34 -26 -52 -21 -10 -66 -27
-100 -36 -74 -21 -95 -49 -67 -91 20 -31 51 -38 138 -30 133 12 299 69 485
166 103 54 114 51 21 -6 -68 -42 -96 -83 -79 -114 23 -43 44 -43 139 0 149 67
244 77 691 72 113 -1 222 2 242 7 20 5 39 7 42 4 6 -6 84 34 124 64 18 13 46
48 62 76 39 68 40 132 5 204 -49 99 -143 143 -300 143 -55 0 -116 -5 -135 -10
-19 -6 -51 -12 -71 -15 -35 -4 -153 -51 -238 -95 -40 -20 -35 -14 49 66 239
228 397 470 435 669 15 79 9 128 -25 215 -37 94 -167 203 -256 214 -111 15
-141 14 -190 -3z m187 -22 c53 -12 146 -68 191 -117 58 -63 85 -185 64 -293
-54 -284 -369 -656 -788 -931 -49 -32 -90 -58 -92 -58 -2 0 -35 -17 -73 -39
-183 -103 -373 -164 -513 -165 -94 -1 -95 -1 -95 23 0 21 8 27 55 42 126 38
213 94 316 201 56 57 83 93 166 214 28 42 138 266 138 282 0 5 6 22 14 38 17
34 61 199 71 264 15 97 48 208 83 279 37 75 138 196 177 212 11 4 47 19 80 33
66 28 125 32 206 15z m-890 -390 c117 -25 178 -139 165 -307 -18 -216 -127
-485 -268 -659 -56 -69 -87 -91 -108 -78 -14 9 -12 33 10 95 25 72 25 157 -1
350 -35 262 -41 348 -29 425 14 89 41 130 105 161 58 28 58 28 126 13z m-373
-364 c88 -79 143 -248 141 -439 0 -56 -5 -117 -12 -136 -10 -30 -17 -35 -42
-35 -28 0 -30 2 -38 54 -4 30 -21 79 -37 109 -17 31 -30 59 -30 64 0 4 -24 45
-54 91 -118 182 -136 234 -100 285 20 29 48 41 96 41 30 1 46 -7 76 -34z
m1660 -312 c91 -32 146 -109 144 -201 -2 -61 -24 -104 -78 -151 -79 -70 -100
-73 -486 -71 -368 1 -452 -9 -594 -71 -52 -23 -100 -39 -109 -35 -28 11 -12
48 35 83 25 18 81 60 125 93 241 183 339 246 479 305 164 69 369 89 484 48z"/>
<path d="M7802 4954 c-144 -38 -271 -195 -322 -398 -11 -44 -20 -89 -20 -101
0 -32 -47 -205 -79 -292 -138 -370 -361 -639 -605 -729 -61 -23 -61 -23 -22
-23 50 -1 178 29 191 44 6 7 21 12 35 11 18 -1 26 5 28 21 2 12 10 27 18 33
12 10 14 8 14 -15 0 -42 24 -24 31 24 8 61 29 77 29 22 0 -35 3 -42 18 -39 13
3 18 17 22 70 7 89 20 98 20 14 0 -64 1 -66 20 -56 18 9 20 21 20 95 0 46 5
87 10 90 6 4 10 -23 10 -75 0 -72 2 -81 18 -78 15 3 18 19 22 125 3 67 8 125
13 129 4 4 7 -45 7 -110 0 -106 2 -117 18 -114 15 3 18 21 22 163 3 100 10
168 17 180 10 16 12 -10 13 -142 0 -90 4 -163 8 -163 28 0 32 30 32 225 0 112
5 207 10 215 6 10 10 -57 10 -199 0 -213 0 -214 20 -196 19 17 20 31 21 284 1
146 5 277 9 291 4 14 8 -100 9 -257 1 -156 5 -283 9 -283 30 0 32 29 33 410 1
212 5 396 9 410 4 14 8 -156 9 -377 1 -222 5 -403 9 -403 30 0 32 28 32 470 0
377 2 449 15 466 13 17 14 -34 15 -435 0 -402 2 -452 15 -441 13 11 15 77 15
485 0 408 2 474 15 485 13 11 15 -41 15 -459 0 -296 4 -471 10 -471 27 0 30
54 30 514 0 311 3 476 10 476 7 0 10 -164 10 -472 0 -470 0 -471 20 -453 19
18 20 31 20 486 0 301 4 470 10 474 7 4 10 -150 10 -454 0 -254 4 -461 8 -461
30 0 32 28 32 482 0 299 3 458 10 458 7 0 10 -153 10 -440 0 -276 4 -440 10
-440 27 0 30 53 30 464 0 372 2 426 15 426 13 0 15 -52 15 -411 0 -365 2 -410
15 -399 13 11 15 69 15 411 0 348 2 399 15 399 13 0 15 -49 15 -377 1 -377 1
-378 20 -354 19 22 20 40 20 373 0 230 3 347 10 343 6 -4 10 -126 10 -333 0
-311 1 -325 18 -309 15 16 17 48 20 318 2 188 6 297 12 294 6 -4 10 -114 10
-273 0 -257 1 -266 18 -242 15 22 18 57 22 259 l5 234 -44 38 c-48 40 -149 79
-204 78 -17 0 -56 -7 -85 -15z"/>
<path d="M6953 4551 c-78 -49 -89 -156 -48 -476 31 -240 31 -395 2 -455 l-18
-34 31 29 c17 16 33 40 36 52 4 13 12 23 18 23 32 0 36 50 36 439 0 336 2 390
15 395 13 5 15 -40 15 -366 0 -298 3 -370 13 -360 9 10 13 103 17 369 4 273 8
357 18 361 9 3 12 -64 12 -310 1 -300 1 -312 18 -283 15 26 17 68 20 303 2
161 7 272 13 272 5 0 9 -91 10 -222 0 -212 1 -221 16 -183 20 53 30 303 14
362 -17 62 -66 96 -145 101 -48 2 -68 -1 -93 -17z"/>
<path d="M6582 4228 c-46 -23 -38 -83 24 -178 l29 -45 3 93 c4 131 22 116 22
-19 0 -96 3 -116 21 -145 11 -19 21 -34 22 -34 1 0 1 63 -1 141 -2 105 0 139
8 134 7 -4 5 4 -4 17 -28 43 -78 58 -124 36z"/>
<path d="M6730 4016 c0 -87 -4 -135 -10 -131 -5 3 6 -27 25 -67 19 -39 38 -94
41 -121 5 -35 10 -45 18 -37 14 14 12 273 -2 315 -8 24 -11 6 -11 -90 -1 -99
-4 -117 -14 -100 -7 13 -14 81 -17 182 -3 110 -9 166 -17 175 -10 10 -13 -16
-13 -126z"/>
<path d="M8071 3899 c-134 -26 -295 -101 -443 -206 -128 -90 -342 -253 -334
-253 4 0 23 8 44 19 20 10 64 27 97 37 33 10 68 27 77 38 16 19 18 20 18 3 0
-34 35 -15 40 22 7 48 30 53 30 7 0 -25 4 -36 15 -36 11 0 15 12 15 49 0 31 5
53 15 61 13 11 15 4 15 -50 0 -53 2 -61 18 -58 14 3 18 16 20 73 4 99 22 109
22 12 0 -70 2 -77 20 -77 19 0 20 7 20 89 0 50 5 93 10 96 6 4 10 -28 10 -89
0 -89 1 -96 20 -96 19 0 20 7 20 110 0 67 4 110 10 110 6 0 10 -43 10 -110 0
-67 4 -110 10 -110 6 0 13 0 18 0 4 0 9 55 12 122 3 83 9 123 17 125 9 3 13
-28 15 -123 2 -91 7 -129 16 -132 9 -3 12 29 12 136 0 115 3 141 15 146 13 5
15 -15 15 -140 0 -133 1 -145 18 -142 15 3 17 19 20 148 4 202 22 208 22 7 0
-150 1 -157 20 -157 19 0 20 7 20 160 0 100 4 160 10 160 6 0 10 -60 10 -160
0 -153 1 -160 20 -160 19 0 20 7 20 165 0 103 4 165 10 165 6 0 10 -62 10
-165 0 -158 1 -165 20 -165 19 0 20 7 20 170 0 144 2 170 15 170 13 0 15 -26
15 -170 0 -143 2 -170 15 -170 12 0 15 28 17 167 2 122 6 167 16 171 9 3 12
-34 12 -163 0 -153 1 -166 18 -163 15 3 17 20 20 166 1 103 6 161 12 157 6 -4
10 -70 10 -156 0 -138 1 -150 18 -147 15 3 17 19 20 146 3 182 22 192 22 12 0
-77 4 -130 10 -130 20 0 30 43 30 135 0 74 3 95 13 90 6 -4 -7 11 -29 33 -23
22 -59 45 -80 51 -45 13 -209 13 -273 0z"/>
<path d="M8555 4419 c-172 -37 -421 -182 -547 -317 -54 -58 -59 -82 -23 -118
l26 -25 63 35 c35 19 105 46 157 59 82 21 120 24 289 25 217 2 267 12 315 62
24 26 30 40 33 93 6 117 -49 173 -198 201 -14 2 -65 -4 -115 -15z m200 -34
c56 -25 75 -48 86 -105 16 -78 -3 -123 -65 -151 -39 -17 -73 -20 -258 -24
-244 -4 -325 -19 -435 -80 -71 -39 -93 -39 -93 0 0 18 19 43 66 88 226 214
548 339 699 272z"/>
<path d="M8542 4356 c-113 -28 -253 -99 -377 -192 -74 -55 -171 -151 -125
-122 14 8 50 26 80 38 30 13 65 32 78 43 12 12 22 15 22 9 0 -7 7 -12 15 -12
8 0 15 8 15 19 0 10 7 24 15 31 13 11 15 8 15 -15 0 -42 34 -29 38 15 5 52 22
62 22 14 0 -45 5 -55 26 -47 9 3 14 21 14 53 0 27 5 52 10 55 6 4 10 -15 10
-49 0 -49 2 -56 20 -56 18 0 20 7 20 65 0 83 18 85 22 3 2 -50 7 -63 20 -66
15 -3 18 7 20 74 2 51 7 79 16 82 9 3 12 -17 12 -78 0 -72 2 -81 18 -78 14 3
17 16 20 86 4 109 22 106 22 -3 0 -78 2 -85 20 -85 19 0 20 7 20 90 0 53 4 90
10 90 6 0 10 -37 10 -90 0 -83 1 -90 20 -90 19 0 20 7 20 95 0 57 4 95 10 95
6 0 10 -37 10 -90 0 -83 1 -90 20 -90 18 0 20 7 20 85 0 71 2 83 15 79 11 -5
15 -24 15 -78 1 -65 2 -69 15 -52 9 11 15 41 15 69 0 41 -5 53 -30 77 -45 42
-131 51 -238 26z"/>
<path d="M819 4275 c-291 -59 -541 -233 -653 -457 -89 -178 -101 -302 -46
-462 35 -105 37 -127 10 -151 -37 -33 -79 -110 -95 -172 -14 -56 -14 -68 0
-127 35 -153 105 -229 250 -271 65 -19 179 -17 226 5 55 25 54 28 -78 440
l-124 385 4 105 c3 87 8 114 29 160 108 230 388 383 668 366 147 -9 244 -46
339 -132 58 -52 90 -109 132 -233 35 -103 35 -107 3 -75 -19 20 -31 24 -52 19
-37 -9 -62 -34 -62 -60 0 -35 187 -607 202 -616 31 -20 94 -1 107 33 5 15 2
41 -10 77 -11 30 -17 56 -15 58 2 2 12 -20 21 -49 31 -94 57 -101 159 -44 88
49 158 129 185 212 26 81 26 92 -3 185 -44 145 -116 213 -262 248 l-50 12 -28
87 c-41 127 -82 198 -158 273 -159 158 -447 234 -699 184z m370 -37 c167 -40
305 -132 387 -255 21 -32 54 -105 74 -167 l37 -110 55 -12 c132 -26 211 -95
246 -216 26 -87 27 -122 6 -185 -26 -75 -68 -127 -142 -176 -77 -52 -113 -64
-129 -45 -6 7 -27 63 -46 123 -20 61 -75 231 -122 379 -48 147 -96 286 -108
309 -32 61 -118 141 -189 176 -93 45 -168 61 -289 61 -128 0 -228 -23 -348
-81 -71 -33 -100 -55 -176 -132 -97 -98 -133 -159 -155 -258 -24 -110 -13
-165 119 -577 92 -289 120 -387 111 -397 -25 -30 -170 -35 -255 -9 -74 24
-138 80 -177 158 -27 53 -31 71 -31 141 0 95 14 131 77 202 25 28 46 60 46 70
0 11 -13 57 -29 104 -39 116 -46 195 -26 294 45 222 206 411 450 530 103 50
234 87 340 97 71 7 195 -4 274 -24z m295 -630 c46 -124 177 -552 172 -564 -3
-8 -17 -19 -31 -26 -33 -15 -48 0 -68 67 -8 28 -49 157 -91 287 -42 130 -76
239 -76 242 0 13 34 36 55 36 18 0 27 -9 39 -42z"/>
<path d="M800 4211 c-157 -32 -316 -113 -432 -220 -198 -183 -263 -400 -189
-632 41 -126 40 -142 -8 -194 -64 -70 -85 -119 -84 -200 0 -56 5 -81 27 -123
28 -55 55 -92 68 -92 5 0 8 80 8 178 0 97 5 184 10 192 6 10 10 -52 10 -185 0
-195 4 -225 32 -225 4 0 8 238 8 528 0 449 2 531 15 548 14 18 14 17 15 -16
l1 -35 14 25 c8 14 14 41 15 61 0 19 7 44 15 55 14 18 14 18 15 -6 l1 -25 19
24 c11 13 20 34 20 47 0 12 5 26 10 29 6 3 10 -2 10 -11 0 -16 1 -16 20 1 11
10 20 26 20 36 0 21 17 34 22 17 6 -17 28 -1 39 29 5 13 13 22 18 19 14 -9 41
4 41 19 0 7 7 15 15 19 8 3 15 1 15 -4 0 -5 7 -7 15 -4 8 4 15 12 15 19 0 17
28 27 32 13 3 -7 14 -2 28 12 13 13 25 19 27 13 5 -15 43 -4 43 13 0 16 17 19
22 3 5 -14 38 0 38 17 0 8 5 14 10 14 6 0 10 -4 10 -10 0 -5 9 -10 20 -10 11
0 20 7 20 15 0 8 7 15 15 15 8 0 15 -7 15 -15 0 -9 6 -12 15 -9 8 4 15 12 15
20 0 22 27 17 33 -6 3 -11 10 -20 17 -20 7 0 14 9 17 20 3 11 9 20 13 20 4 0
10 -9 13 -20 3 -11 12 -20 21 -20 9 0 16 8 16 20 0 11 5 20 10 20 6 0 10 -9
10 -19 0 -10 7 -22 16 -25 23 -9 24 -8 24 14 0 27 18 25 22 -2 4 -30 38 -37
38 -9 0 12 6 21 15 21 10 0 15 -10 15 -30 0 -23 4 -30 20 -30 13 0 20 7 20 20
0 11 5 20 10 20 6 0 10 -13 10 -30 0 -19 7 -33 20 -40 18 -10 20 -8 20 20 0
16 5 30 10 30 6 0 10 -15 10 -34 0 -20 8 -42 18 -52 16 -17 17 -16 20 24 4 55
22 44 22 -12 0 -29 7 -52 20 -67 l19 -24 1 54 c0 46 2 52 15 41 10 -8 15 -32
15 -74 1 -45 7 -73 25 -106 13 -25 24 -37 25 -28 0 9 -4 20 -10 23 -5 3 -10
38 -10 77 0 63 2 69 16 58 12 -11 15 -33 13 -114 l-2 -101 113 -352 c62 -194
117 -350 121 -347 4 2 3 19 -2 37 -5 17 -9 136 -9 264 0 202 2 232 15 227 13
-5 15 -44 15 -261 0 -199 3 -254 13 -251 9 4 13 65 15 252 2 191 5 247 15 243
9 -3 13 -63 15 -235 1 -128 6 -232 10 -232 28 0 32 30 32 232 0 132 4 208 10
208 6 0 10 -73 10 -197 l1 -198 19 24 c18 21 20 39 20 181 0 155 -1 159 -25
189 -33 38 -116 78 -182 87 -45 5 -54 11 -67 38 -15 30 -16 26 -16 -93 0 -68
-3 -121 -7 -117 -5 4 -10 85 -13 179 -4 135 -9 178 -22 202 -17 30 -17 28 -18
-85 -1 -74 -4 -108 -10 -95 -5 11 -9 70 -9 132 -1 61 -6 124 -11 139 -6 14
-38 54 -72 87 -72 70 -200 135 -317 161 -94 21 -251 19 -361 -3z"/>
<path d="M280 3023 c0 -295 2 -333 16 -333 13 0 15 35 12 313 -2 223 -6 318
-15 332 -10 16 -12 -47 -13 -312z"/>
<path d="M340 2922 c0 -235 1 -242 20 -242 19 0 20 7 20 183 0 167 -13 273
-34 295 -3 3 -6 -103 -6 -236z"/>
<path d="M413 3350 c-33 -13 -38 -51 -15 -122 12 -35 55 -170 97 -301 66 -208
79 -239 100 -247 31 -12 82 5 96 32 8 15 -8 79 -82 311 -53 168 -101 302 -112
315 -21 23 -47 27 -84 12z m132 -207 c31 -98 73 -229 93 -291 28 -87 34 -117
26 -130 -14 -21 -57 -27 -71 -10 -17 22 -194 588 -187 599 10 17 48 27 66 18
10 -6 37 -73 73 -186z"/>
<path d="M5444 3220 c-133 -35 -242 -103 -318 -200 -89 -114 -126 -220 -126
-365 0 -205 85 -372 234 -460 84 -50 247 -111 373 -141 189 -44 223 -69 203
-144 -15 -57 -56 -80 -138 -80 -77 0 -107 14 -189 91 -158 146 -250 171 -360
95 -58 -39 -138 -142 -153 -194 -15 -57 10 -127 75 -214 91 -122 248 -222 410
-264 97 -25 305 -25 395 -1 111 30 265 113 330 176 217 213 233 629 31 830
-74 75 -219 134 -441 181 -190 40 -244 70 -238 132 5 50 45 73 127 73 60 0 72
-3 105 -30 104 -82 183 -112 249 -94 61 16 115 57 162 123 85 120 96 191 44
270 -66 99 -217 184 -391 220 -107 22 -292 20 -384 -4z m421 -30 c157 -40 300
-132 345 -221 27 -52 25 -75 -10 -146 -58 -117 -150 -193 -231 -193 -43 0
-111 31 -163 74 -61 49 -79 56 -146 56 -68 0 -124 -21 -141 -53 -20 -36 -13
-87 16 -117 34 -35 78 -51 233 -84 359 -78 485 -169 542 -391 36 -143 21 -295
-45 -433 -70 -147 -224 -262 -420 -312 -148 -38 -351 -24 -494 34 -168 68
-341 242 -357 358 -8 55 17 109 84 180 87 94 171 114 257 63 27 -15 81 -58
121 -95 112 -104 173 -126 279 -99 59 15 96 56 102 113 5 36 2 51 -13 67 -30
33 -86 57 -181 79 -206 48 -390 128 -474 207 -131 122 -184 370 -120 555 68
198 227 331 446 374 95 18 267 11 370 -16z"/>
<path d="M5550 3181 c-144 -17 -237 -58 -332 -149 -115 -110 -161 -218 -161
-377 1 -110 23 -198 68 -270 l24 -40 1 265 c0 153 4 271 10 280 6 10 10 -83
10 -273 0 -276 5 -327 30 -327 6 0 10 126 10 334 0 213 4 337 10 341 7 4 10
-115 10 -349 0 -345 1 -356 20 -366 20 -11 20 -8 20 379 0 249 4 392 10 396 7
4 10 -130 10 -394 0 -389 1 -401 20 -411 20 -10 20 -6 22 416 2 331 6 428 16
432 9 3 12 -89 12 -436 0 -392 2 -441 16 -446 9 -3 18 -6 20 -6 2 0 4 207 4
460 0 297 4 460 10 460 6 0 11 -167 12 -467 3 -436 4 -468 21 -471 16 -3 17
25 17 477 0 314 3 481 10 481 6 0 10 -74 10 -202 0 -200 0 -201 20 -183 19 17
20 31 20 207 0 119 4 188 10 188 6 0 10 -67 10 -180 0 -178 0 -181 20 -170 19
10 20 21 20 185 0 149 2 175 15 175 13 0 15 -26 15 -176 0 -136 3 -175 13
-172 9 4 13 50 15 176 2 143 5 172 17 172 12 0 15 -30 17 -172 3 -146 5 -173
18 -173 13 0 15 27 18 173 3 229 21 226 24 -5 3 -160 5 -178 21 -181 16 -3 17
11 17 177 0 114 4 181 10 181 6 0 10 -69 10 -188 0 -176 1 -190 20 -207 20
-18 20 -17 20 183 0 128 4 202 10 202 6 0 10 -76 10 -208 0 -202 4 -232 32
-232 4 0 8 97 8 215 0 186 2 214 15 209 13 -5 15 -40 15 -225 0 -188 2 -219
15 -219 13 0 15 31 15 216 0 168 3 215 13 212 9 -4 13 -59 15 -222 2 -193 4
-217 18 -212 9 3 18 6 20 6 2 0 4 90 4 200 0 127 4 200 10 200 6 0 10 -70 10
-190 0 -104 4 -190 8 -190 27 0 32 30 32 188 0 106 3 161 10 157 6 -4 10 -66
10 -153 l1 -147 19 24 c17 20 20 38 20 128 0 67 4 102 10 98 6 -3 10 -41 10
-83 0 -80 14 -89 29 -20 14 63 -30 127 -134 196 -119 79 -332 122 -505 103z"/>
<path d="M5482 2370 c3 -203 5 -225 20 -228 16 -3 17 15 20 203 3 203 3 207
-20 228 l-22 21 2 -224z"/>
<path d="M5538 2338 c3 -196 6 -217 35 -218 4 0 7 84 7 186 0 144 3 185 13
182 9 -4 13 -53 15 -191 2 -157 5 -187 17 -187 13 0 15 28 15 180 0 154 2 179
15 174 12 -5 15 -38 17 -187 3 -164 5 -182 21 -185 16 -3 17 11 17 177 0 114
4 181 10 181 6 0 10 -68 10 -184 0 -158 2 -185 16 -190 9 -3 18 -6 20 -6 2 0
4 83 4 185 0 117 4 185 10 185 6 0 10 -69 10 -188 0 -182 5 -212 32 -212 4 0
8 86 8 190 0 262 18 249 24 -17 2 -115 7 -231 11 -259 14 -109 -50 -173 -180
-182 -66 -4 -81 -1 -128 21 -29 15 -82 54 -117 88 -130 123 -191 144 -276 94
-51 -30 -120 -114 -135 -165 -10 -34 -9 -44 17 -96 l28 -59 6 87 c3 49 10 92
18 100 9 10 12 -12 12 -108 0 -108 2 -123 20 -139 20 -18 20 -17 20 143 0 96
4 163 10 167 7 4 10 -56 10 -172 0 -173 5 -203 32 -203 4 0 8 95 8 210 0 133
4 210 10 210 6 0 10 -79 10 -218 0 -212 4 -242 32 -242 4 0 8 106 8 235 0 150
4 235 10 235 6 0 10 -88 10 -243 0 -237 4 -267 32 -267 4 0 8 113 8 251 0 222
2 250 15 239 13 -10 15 -52 15 -260 0 -239 1 -248 20 -253 20 -5 20 0 20 235
0 157 3 237 10 233 6 -4 10 -97 10 -246 0 -232 1 -239 20 -239 19 0 20 7 20
217 0 142 3 214 10 207 5 -5 11 -101 12 -224 3 -195 5 -215 21 -218 16 -3 17
12 17 199 0 132 3 200 10 193 5 -5 11 -95 12 -204 3 -176 5 -195 21 -198 16
-3 17 11 17 183 0 145 3 186 13 183 9 -4 13 -52 15 -186 2 -153 5 -182 17
-182 13 0 15 27 15 175 0 149 2 175 15 175 13 0 15 -26 15 -175 0 -168 1 -175
20 -175 19 0 20 7 20 175 0 110 4 175 10 175 6 0 10 -65 10 -176 0 -162 1
-175 18 -172 15 3 17 21 20 181 1 107 6 177 12 177 6 0 10 -68 10 -176 0 -162
1 -175 18 -172 15 3 17 21 20 183 1 99 7 184 12 189 7 7 10 -54 10 -172 0
-172 1 -182 19 -182 18 0 19 13 25 243 3 133 5 249 5 257 -1 8 -3 125 -5 259
-4 197 -3 242 8 239 10 -4 14 -103 16 -492 2 -383 5 -487 15 -483 9 3 13 112
15 480 2 415 4 477 17 477 13 0 15 -60 15 -466 0 -421 2 -466 16 -460 9 3 18
6 20 6 2 0 4 203 4 451 0 297 3 448 10 444 6 -4 10 -162 10 -441 0 -239 4
-434 8 -434 30 0 32 29 32 437 0 266 4 413 10 413 6 0 11 -147 12 -407 3 -387
4 -406 21 -389 16 16 17 49 17 392 0 243 4 374 10 374 6 0 10 -127 10 -362 0
-360 0 -361 20 -343 19 17 20 31 20 348 l0 330 -37 35 c-65 61 -228 123 -430
163 -59 11 -128 29 -152 40 -24 10 -44 19 -45 19 0 0 0 -91 2 -202z"/>
<path d="M8146 3215 c-199 -41 -400 -143 -535 -269 -188 -178 -292 -476 -261
-755 15 -134 41 -226 100 -346 77 -159 184 -272 356 -376 199 -121 447 -173
647 -135 115 22 246 69 328 117 183 109 217 190 142 340 -45 91 -130 180 -188
197 -49 14 -88 5 -160 -38 -136 -80 -151 -85 -270 -85 -106 0 -113 1 -187 37
-142 67 -222 180 -234 328 -16 195 62 338 231 421 68 33 72 34 195 34 120 0
127 -1 175 -29 133 -78 179 -98 219 -93 59 8 126 55 183 131 78 105 94 186 53
272 -38 77 -203 175 -389 230 -108 33 -297 41 -405 19z m366 -34 c40 -11 99
-29 130 -41 84 -31 228 -122 263 -164 26 -33 30 -46 30 -100 0 -49 -6 -71 -28
-109 -62 -105 -146 -177 -208 -177 -49 0 -80 12 -154 60 -138 89 -301 93 -463
11 -83 -42 -146 -106 -185 -189 -56 -119 -49 -313 15 -422 77 -130 226 -211
389 -212 102 0 170 19 246 69 66 43 114 63 151 63 49 0 115 -51 169 -132 114
-171 93 -252 -97 -363 -192 -112 -426 -153 -635 -110 -178 37 -356 131 -492
259 -189 178 -283 426 -270 711 14 302 144 535 387 694 243 159 513 213 752
152z"/>
<path d="M8140 3156 c-181 -38 -370 -137 -495 -261 -113 -111 -181 -234 -222
-401 -22 -91 -22 -312 0 -410 15 -68 70 -221 85 -236 4 -4 6 168 4 383 -2 252
1 396 8 407 7 12 10 -114 9 -406 0 -393 1 -426 18 -450 18 -26 18 -14 21 463
1 306 6 493 12 499 7 7 10 -165 10 -506 0 -498 1 -517 20 -539 19 -24 19 -22
20 548 0 370 4 574 10 578 7 4 10 -190 10 -575 0 -564 3 -620 30 -620 6 0 11
236 12 627 2 490 6 627 16 631 9 3 12 -131 12 -647 0 -640 0 -650 20 -661 20
-11 20 -8 20 669 0 442 3 682 10 686 7 4 10 -228 10 -689 0 -685 0 -695 20
-706 20 -11 20 -8 20 709 0 469 3 722 10 726 7 4 10 -89 11 -272 l0 -278 19
45 c17 40 19 73 19 293 1 157 5 247 11 247 6 0 10 -82 10 -227 0 -225 0 -226
20 -208 19 17 20 31 20 240 0 189 2 224 15 229 13 5 15 -22 15 -206 0 -185 2
-209 15 -198 12 10 15 51 17 218 2 153 6 206 16 210 9 3 12 -41 12 -198 0
-198 0 -201 20 -190 19 10 20 21 20 210 0 127 4 200 10 200 6 0 10 -70 10
-191 0 -176 1 -190 18 -187 15 3 17 22 20 201 1 120 6 197 12 197 6 0 10 -73
10 -191 0 -170 2 -190 16 -185 9 3 18 6 20 6 2 0 4 86 4 190 0 120 4 190 10
190 6 0 10 -68 10 -185 0 -178 1 -185 20 -185 19 0 20 7 20 190 0 162 2 190
15 190 13 0 15 -28 15 -190 0 -162 2 -190 15 -190 13 0 15 28 15 190 0 162 2
190 15 190 13 0 15 -28 15 -190 0 -183 1 -190 20 -190 19 0 20 7 20 190 0 117
4 190 10 190 6 0 11 -75 12 -192 3 -174 5 -193 21 -196 16 -3 17 11 17 194 0
129 3 195 10 188 5 -5 11 -95 12 -204 3 -176 5 -195 21 -198 16 -3 17 12 17
198 0 132 3 199 10 195 6 -4 10 -84 10 -208 0 -191 1 -203 20 -215 20 -12 20
-10 20 199 0 164 3 210 13 207 9 -4 13 -59 15 -220 2 -176 5 -218 17 -228 13
-11 15 15 15 210 0 173 3 221 13 218 9 -4 13 -62 17 -229 5 -203 7 -224 23
-227 16 -3 17 12 17 218 0 145 3 219 10 215 6 -4 10 -89 10 -221 0 -212 0
-215 20 -204 19 10 20 21 20 206 0 128 3 193 10 189 6 -4 10 -77 10 -186 0
-108 4 -179 10 -179 22 0 30 47 30 185 0 95 4 144 10 140 6 -4 10 -61 10 -138
l1 -132 19 24 c17 19 20 38 20 118 0 64 3 92 11 88 6 -4 5 3 -3 14 -27 45
-175 127 -311 173 -81 27 -108 31 -227 34 -88 2 -158 -1 -200 -10z"/>
<path d="M7843 1815 c2 -286 3 -310 20 -313 16 -3 17 15 16 270 0 244 -2 277
-19 313 -19 40 -19 39 -17 -270z"/>
<path d="M7900 1743 c0 -252 1 -263 20 -273 20 -11 20 -8 20 239 0 233 -1 250
-20 272 -19 24 -19 24 -20 -238z"/>
<path d="M7957 1929 c9 -11 13 -83 15 -249 2 -176 6 -234 16 -238 9 -3 12 45
12 218 0 197 2 221 15 210 12 -10 15 -49 15 -231 0 -212 1 -219 20 -219 19 0
20 7 20 205 0 127 4 205 10 205 6 0 11 -82 12 -212 3 -193 5 -213 21 -216 16
-3 17 11 17 197 0 127 4 201 10 201 6 0 10 -75 10 -205 0 -198 1 -205 20 -205
19 0 20 7 20 195 0 121 4 195 10 195 6 0 11 -77 12 -197 3 -179 5 -198 21
-201 16 -3 17 11 17 192 0 170 2 195 15 190 13 -5 15 -36 15 -195 0 -161 2
-189 15 -189 13 0 15 28 15 190 0 162 2 190 15 190 13 0 15 -28 15 -190 0
-183 1 -190 20 -190 19 0 20 7 20 190 0 120 4 190 10 190 6 0 10 -70 10 -191
0 -170 2 -190 16 -185 9 3 18 6 20 6 2 0 4 85 4 189 0 116 4 192 10 196 7 4
10 -60 10 -184 0 -184 1 -191 20 -191 19 0 20 7 20 195 0 123 4 195 10 195 6
0 10 -70 10 -191 0 -176 1 -190 18 -187 15 3 17 22 20 205 2 166 5 202 17 207
13 5 15 -22 15 -195 0 -156 3 -200 13 -197 9 4 13 58 15 215 2 175 5 212 17
217 13 5 15 -23 15 -204 0 -116 4 -210 8 -210 28 0 32 30 32 232 0 132 4 208
10 208 6 0 10 -75 10 -205 0 -113 4 -205 8 -205 28 0 32 30 32 217 0 122 4
193 10 193 6 0 10 -68 10 -185 0 -102 3 -185 8 -185 27 1 31 21 32 180 l2 164
-36 33 c-19 18 -47 35 -61 39 -30 7 -87 -15 -153 -59 -164 -109 -390 -97 -566
30 -28 21 -45 30 -39 22z"/>
<path d="M3322 3210 c-85 -18 -139 -68 -162 -149 -6 -22 -10 -212 -10 -477 0
-474 5 -538 53 -679 127 -371 411 -585 777 -585 178 0 315 41 458 139 171 116
305 331 353 568 18 87 20 133 17 566 -3 466 -3 473 -26 518 -14 30 -35 52 -60
66 -112 62 -314 51 -387 -22 -52 -53 -55 -76 -55 -506 0 -422 -7 -523 -40
-611 -26 -71 -87 -141 -142 -163 -54 -22 -180 -23 -229 -2 -83 34 -146 127
-169 247 -6 30 -10 233 -10 464 0 517 -6 551 -112 604 -52 26 -183 37 -256 22z
m251 -44 c25 -12 46 -33 60 -60 21 -40 22 -52 28 -511 6 -500 6 -495 59 -607
60 -129 214 -188 369 -142 89 26 162 119 196 251 12 46 15 139 15 488 0 236 5
448 10 469 11 49 37 85 81 111 29 17 52 20 149 20 99 0 121 -3 156 -22 89 -47
94 -80 94 -587 0 -435 -8 -529 -54 -663 -71 -207 -206 -379 -371 -472 -217
-123 -502 -133 -720 -25 -216 106 -372 308 -440 569 -28 107 -37 289 -33 680
3 362 5 382 25 427 36 79 84 98 238 95 73 -2 110 -8 138 -21z"/>
<path d="M3315 3149 c-49 -12 -82 -42 -96 -88 -7 -24 -9 -199 -7 -521 l4 -485
27 -88 c22 -71 100 -247 110 -247 1 0 1 313 -1 695 -1 470 1 695 8 695 7 0 10
-230 10 -707 -1 -689 0 -708 19 -733 20 -25 20 -23 20 713 1 484 4 737 11 737
7 0 10 -258 10 -753 0 -741 0 -754 20 -772 20 -18 20 -17 20 753 0 508 3 772
10 772 7 0 10 -268 10 -783 0 -782 1 -807 32 -807 4 0 8 356 8 790 0 696 2
790 15 790 13 0 15 -96 15 -804 0 -699 2 -805 15 -816 13 -11 15 82 17 801 3
671 1 817 -10 831 -27 33 -175 48 -267 27z m-6 -686 c-1 -541 -3 -624 -14
-598 -11 24 -14 142 -15 621 0 325 3 594 7 597 3 4 10 7 15 7 4 0 8 -282 7
-627z"/>
<path d="M4426 3143 c-40 -14 -54 -26 -70 -58 -20 -38 -21 -59 -26 -515 -5
-404 -8 -481 -22 -516 -51 -130 -112 -203 -196 -235 -47 -17 -73 -20 -147 -17
-94 4 -152 25 -202 71 l-23 20 0 -240 c0 -210 2 -242 16 -247 9 -3 18 -6 20
-6 2 0 4 99 4 221 0 144 3 218 10 214 6 -4 10 -90 10 -226 0 -212 1 -219 20
-219 19 0 20 7 20 201 0 156 3 200 13 197 9 -4 13 -56 15 -206 2 -170 5 -202
17 -202 13 0 15 30 15 196 0 152 3 195 13 192 9 -4 13 -56 17 -199 4 -164 7
-194 20 -194 13 0 15 29 18 193 1 113 6 192 12 192 6 0 11 -79 12 -192 3 -164
5 -193 18 -193 13 0 15 29 18 193 1 116 6 192 12 192 6 0 10 -73 10 -190 0
-183 1 -190 20 -190 19 0 20 7 20 189 0 116 4 192 10 196 7 4 10 -60 10 -184
0 -184 1 -191 20 -191 19 0 20 8 22 197 2 146 6 197 16 201 9 3 12 -40 12
-193 0 -176 2 -196 16 -191 9 3 18 6 20 6 2 0 4 94 4 209 0 129 4 212 10 216
7 4 10 -67 10 -205 0 -189 2 -211 16 -206 9 3 18 6 20 6 2 0 4 105 4 234 0
146 4 237 10 241 7 4 10 -74 10 -225 0 -208 2 -231 16 -226 9 3 18 6 20 6 2 0
5 127 5 283 1 155 5 296 9 312 4 17 8 -106 9 -272 0 -167 5 -303 9 -303 31 0
32 25 32 806 0 682 2 783 15 794 13 11 15 -76 15 -770 0 -621 3 -781 13 -778
9 4 13 173 15 791 2 690 4 787 17 787 13 0 15 -93 15 -767 0 -765 0 -766 20
-748 20 18 20 31 20 772 0 492 3 753 10 753 6 0 11 -259 12 -742 3 -714 4
-742 21 -711 16 30 17 85 17 743 0 467 3 710 10 710 7 0 10 -239 10 -697 l0
-698 20 30 c19 29 20 48 20 693 0 434 3 662 10 662 7 0 10 -218 11 -632 1
-629 1 -633 20 -593 17 38 18 72 19 623 0 423 3 582 11 582 18 0 -10 29 -45
47 -47 24 -189 28 -250 6z"/>
<path d="M3625 2240 c0 -739 1 -785 18 -788 16 -3 17 16 17 290 0 189 -5 307
-12 333 -7 26 -14 202 -18 495 -5 390 -6 343 -5 -330z"/>
<path d="M3680 1708 c0 -153 2 -278 4 -278 2 0 11 -3 20 -6 14 -6 16 20 16
242 -1 226 -3 252 -20 284 l-19 35 -1 -277z"/>
<path d="M6782 3209 c-84 -10 -140 -43 -172 -99 l-25 -45 0 -780 0 -780 25
-50 c43 -87 163 -128 305 -105 96 15 143 43 174 105 l26 49 0 776 c0 769 0
775 -21 821 -41 87 -154 126 -312 108z m218 -50 c24 -13 53 -37 64 -52 21 -28
21 -36 24 -800 2 -532 0 -784 -8 -809 -25 -87 -99 -128 -230 -128 -140 0 -220
50 -237 147 -4 26 -8 379 -8 783 0 577 3 743 13 772 31 86 104 120 248 114 74
-2 100 -8 134 -27z"/>
<path d="M6761 3150 c-59 -13 -88 -33 -106 -76 -13 -31 -15 -142 -15 -793 0
-725 1 -758 20 -798 10 -24 24 -43 30 -43 7 0 10 253 10 814 0 533 3 817 10
821 7 4 10 -273 10 -824 0 -457 2 -831 4 -831 2 0 11 -3 20 -6 15 -6 16 72 16
839 0 740 2 846 15 851 13 5 15 -95 17 -846 2 -670 6 -852 16 -856 9 -3 12
172 12 852 0 754 2 856 15 856 13 0 15 -102 15 -856 0 -809 1 -855 18 -852 16
3 17 53 20 861 1 566 6 856 12 852 7 -4 10 -303 10 -856 0 -842 0 -849 20
-849 20 0 20 7 20 850 0 560 3 850 10 850 7 0 10 -288 10 -845 0 -465 4 -845
8 -845 31 0 32 24 32 847 0 542 3 823 10 823 7 0 10 -276 10 -807 0 -646 3
-804 13 -795 9 10 12 182 12 790 0 875 4 824 -75 856 -50 20 -161 28 -219 16z"/>
<path d="M1022 3196 c-62 -20 -89 -41 -114 -89 l-23 -42 0 -785 0 -785 25 -45
c37 -67 97 -94 218 -98 141 -6 217 25 260 103 15 26 18 82 22 412 l5 382 125
-171 c69 -94 138 -184 154 -200 43 -43 103 -70 172 -76 52 -4 70 0 123 23 74
34 94 55 241 261 l115 161 5 -376 5 -376 25 -44 c38 -68 97 -94 219 -99 54 -2
115 1 139 7 57 16 107 62 129 119 17 44 18 97 18 812 l0 765 -26 50 c-36 71
-92 98 -214 103 -125 6 -195 -15 -250 -72 -22 -23 -145 -180 -274 -349 -128
-169 -237 -306 -242 -305 -5 2 -121 152 -259 333 -233 307 -255 332 -307 360
-49 26 -67 30 -152 32 -62 2 -111 -2 -139 -11z m223 -22 c33 -8 69 -21 81 -29
12 -7 141 -171 288 -364 l267 -351 162 212 c284 375 377 492 405 510 40 25
156 42 224 34 84 -11 139 -42 166 -96 l22 -44 0 -749 c0 -530 -3 -761 -11
-794 -17 -66 -64 -108 -136 -123 -121 -25 -260 8 -307 73 -20 27 -21 43 -24
454 l-3 426 -62 -84 c-34 -47 -106 -146 -159 -220 -81 -111 -108 -141 -154
-169 -73 -44 -153 -48 -228 -10 -56 28 -96 76 -271 318 l-110 152 -5 -407 c-5
-403 -5 -409 -28 -451 -29 -54 -83 -81 -180 -89 -136 -11 -234 31 -264 115
-19 53 -19 1530 0 1583 35 99 175 143 327 103z"/>
<path d="M1012 3130 c-75 -34 -72 7 -72 -849 0 -692 2 -763 17 -796 9 -19 20
-35 25 -35 4 0 8 357 8 794 0 437 3 803 8 813 4 10 9 -353 12 -807 5 -775 6
-825 23 -828 16 -3 17 42 17 837 0 554 3 841 10 841 7 0 10 -288 10 -845 0
-838 0 -845 20 -845 20 0 20 7 20 850 0 557 3 850 10 850 6 0 11 -296 12 -852
3 -750 5 -853 18 -853 13 0 15 103 18 853 2 748 4 852 17 852 13 0 15 -103 15
-850 0 -749 2 -850 15 -850 13 0 15 101 15 850 0 749 2 850 15 850 13 0 15
-101 15 -845 0 -465 4 -845 8 -845 31 0 32 24 32 847 0 542 3 823 10 823 7 0
10 -279 10 -817 1 -687 3 -814 14 -793 11 20 15 186 20 805 l7 780 -33 31
c-45 42 -85 54 -187 54 -63 0 -97 -6 -129 -20z"/>
<path d="M2492 3137 c-23 -7 -52 -33 -91 -81 -50 -62 -364 -473 -479 -627
l-42 -56 0 -256 c0 -250 1 -257 20 -257 19 0 20 7 20 244 0 153 4 247 10 251
7 4 10 -78 10 -240 0 -229 1 -246 18 -243 16 3 17 26 20 278 1 163 6 278 12
284 7 7 10 -84 10 -262 0 -150 4 -272 8 -272 29 0 32 30 32 316 0 247 2 293
15 304 13 11 15 -20 15 -271 1 -252 2 -282 15 -265 12 16 15 71 15 310 1 239
3 294 15 310 13 17 15 -14 17 -270 3 -281 3 -288 21 -257 15 28 17 64 17 317
0 179 4 287 10 291 7 4 10 -89 10 -272 1 -278 1 -278 20 -254 19 22 20 40 20
312 0 181 4 290 10 294 7 4 10 -89 10 -272 0 -278 0 -278 20 -253 18 23 20 43
20 312 0 180 4 289 10 293 7 4 10 -87 10 -266 0 -271 0 -272 20 -254 19 17 20
31 20 305 0 243 2 289 15 300 13 11 15 -19 15 -260 0 -241 2 -271 15 -260 13
11 15 56 15 294 0 233 3 286 15 302 13 17 14 -18 15 -302 0 -278 -2 -323 -15
-334 -14 -12 -15 -66 -13 -444 3 -397 4 -433 21 -458 49 -71 47 -97 47 787 0
543 3 825 10 825 7 0 10 -283 10 -829 0 -747 2 -829 16 -835 9 -3 18 -6 20 -6
2 0 4 380 4 845 0 557 3 845 10 845 7 0 10 -288 10 -845 0 -838 0 -845 20
-845 20 0 20 7 20 850 0 560 3 850 10 850 7 0 10 -290 10 -849 0 -719 2 -850
14 -854 8 -3 17 -3 20 0 3 4 6 388 6 855 0 747 2 848 15 848 13 0 15 -101 15
-850 0 -749 2 -850 15 -850 13 0 15 101 15 851 0 676 3 850 13 847 9 -4 13
-183 15 -841 1 -460 6 -837 10 -837 31 0 32 25 32 843 0 580 3 816 11 812 6
-4 5 2 -3 14 -22 35 -79 51 -181 50 -50 -1 -107 -6 -125 -12z"/>
<path d="M2812 2280 c0 -432 4 -774 8 -760 11 34 11 1500 0 1525 -5 11 -8
-319 -8 -765z"/>
<path d="M1380 2714 c0 -305 1 -323 20 -345 19 -24 19 -24 19 296 1 302 -1
321 -19 345 -20 25 -20 24 -20 -296z"/>
<path d="M1440 2628 c0 -296 1 -315 20 -343 l20 -30 0 325 c-1 254 -4 329 -14
343 -7 9 -16 17 -20 17 -3 0 -6 -141 -6 -312z"/>
<path d="M1510 2536 c0 -307 1 -325 20 -347 19 -24 19 -24 20 294 0 266 -2
323 -15 347 -9 17 -18 30 -20 30 -3 0 -5 -146 -5 -324z"/>
<path d="M1570 2459 c0 -310 1 -328 20 -350 19 -24 19 -24 19 301 1 307 -1
326 -19 350 -20 25 -20 24 -20 -301z"/>
<path d="M1630 2379 c0 -310 1 -328 20 -350 19 -24 19 -24 19 301 1 307 -1
326 -19 350 -20 25 -20 24 -20 -301z"/>
<path d="M1690 2299 c0 -311 1 -328 20 -350 19 -24 19 -24 20 302 0 311 -1
328 -20 350 -19 24 -19 24 -20 -302z"/>
<path d="M1760 2214 c0 -277 2 -323 15 -328 22 -8 23 600 0 630 -13 17 -14
-18 -15 -302z"/>
<path d="M1820 2158 c0 -291 0 -298 20 -298 20 0 20 7 20 273 0 255 -2 274
-20 297 -20 25 -20 25 -20 -272z"/>
<path d="M9295 1761 c-81 -37 -80 -33 -83 -307 l-3 -244 -68 6 c-168 16 -340
-77 -390 -210 -40 -109 -16 -203 67 -261 42 -29 49 -30 163 -33 140 -4 200 10
281 67 37 26 61 54 87 101 l36 65 -2 218 -1 217 26 0 c15 0 58 -7 97 -15 133
-28 189 -14 286 73 59 53 73 81 58 119 -14 38 -25 43 -94 43 -70 0 -109 18
-201 91 -110 87 -180 106 -259 70z m117 -12 c21 -5 75 -38 120 -73 114 -87
142 -100 213 -101 71 0 85 -7 85 -42 0 -19 -15 -41 -48 -73 -86 -83 -139 -95
-298 -63 -137 26 -129 40 -129 -233 0 -262 -4 -276 -89 -351 -65 -57 -135 -77
-271 -77 -125 -1 -169 14 -207 68 -34 46 -37 150 -9 210 57 118 224 196 373
175 29 -4 61 -8 71 -8 16 -1 17 18 17 254 l0 256 27 25 c23 21 66 40 98 43 6
1 27 -4 47 -10z"/>
<path d="M9342 1719 c-18 -3 -42 -15 -52 -24 -19 -17 -20 -33 -20 -275 0 -291
0 -289 -67 -271 -134 38 -307 -16 -377 -117 -47 -68 -46 -204 2 -220 9 -3 12
16 12 71 0 120 14 124 20 7 4 -89 8 -105 23 -108 15 -3 17 8 17 127 0 76 4
132 10 136 6 4 10 -43 10 -134 0 -134 1 -141 20 -141 19 0 20 7 20 155 0 209
19 206 22 -2 3 -133 5 -158 18 -158 13 0 16 28 20 169 4 123 8 171 18 174 9 3
12 -35 12 -167 0 -145 2 -171 15 -171 13 0 15 26 15 175 0 149 2 175 15 175
13 0 15 -26 15 -171 0 -157 1 -170 18 -167 15 3 17 20 20 171 1 100 6 167 12
167 6 0 10 -63 10 -161 0 -143 2 -160 16 -155 9 3 18 6 20 6 2 0 4 68 4 150 0
93 4 150 10 150 6 0 10 -53 10 -140 0 -77 4 -140 8 -140 25 0 32 30 32 146 0
71 4 125 10 129 6 4 10 -32 10 -102 1 -99 2 -106 15 -82 11 21 15 100 19 378
3 193 8 356 11 361 18 29 25 -1 25 -105 0 -96 3 -115 15 -115 13 0 15 20 15
120 0 100 3 120 15 120 13 0 15 -20 15 -120 0 -113 1 -120 20 -120 19 0 20 7
20 110 0 146 18 144 22 -2 3 -98 5 -113 21 -116 15 -3 17 6 17 92 0 57 4 96
10 96 6 0 10 -40 10 -100 0 -93 1 -100 20 -100 18 0 20 7 20 82 0 103 18 94
22 -12 2 -59 6 -75 18 -75 11 0 16 14 18 58 4 71 25 74 30 3 4 -56 25 -59 30
-3 2 26 7 34 18 30 8 -3 14 -15 14 -26 0 -19 4 -17 35 13 19 19 35 39 35 44 0
7 -26 11 -63 12 -74 0 -109 17 -221 103 -43 34 -79 61 -80 61 -1 0 -15 4 -31
8 -17 5 -45 5 -63 1z"/>
<path d="M1720 1199 c-279 -47 -598 -167 -881 -331 -194 -112 -207 -125 -190
-171 11 -29 59 -44 88 -29 33 18 196 70 313 101 229 61 422 86 660 85 286 0
507 -34 1093 -168 327 -75 510 -100 722 -100 270 0 426 32 742 152 144 55 442
234 462 278 9 22 8 28 -14 49 -31 32 -53 31 -123 -4 -98 -49 -258 -101 -410
-134 -137 -29 -161 -31 -352 -32 -183 0 -222 3 -360 28 -153 28 -273 58 -500
122 -230 65 -348 95 -495 126 -144 30 -161 32 -425 35 -151 1 -300 -2 -330 -7z
m540 -24 c198 -23 383 -64 720 -160 558 -160 868 -188 1224 -110 122 26 287
81 382 126 69 32 112 37 121 13 8 -22 -17 -44 -127 -113 -389 -243 -780 -345
-1197 -313 -188 15 -338 40 -616 103 -530 120 -653 141 -922 159 -154 9 -350
0 -523 -26 -127 -19 -373 -81 -492 -125 -47 -17 -101 -32 -120 -33 -31 -1 -35
2 -35 23 0 19 12 32 50 54 438 261 716 364 1110 410 80 10 313 5 425 -8z"/>
<path d="M1865 1154 c-366 -39 -637 -131 -1012 -346 -111 -64 -152 -92 -105
-73 9 4 72 26 139 49 67 23 128 48 136 55 11 8 16 9 19 1 5 -17 35 -1 43 23 6
19 8 20 12 5 7 -29 41 -22 45 9 4 36 28 43 28 8 0 -38 24 -26 30 15 7 48 30
51 30 5 0 -30 3 -36 16 -31 9 3 18 6 20 6 2 0 4 18 4 40 0 22 5 40 10 40 6 0
10 -16 10 -35 0 -28 4 -35 20 -35 17 0 20 7 20 44 0 25 5 48 10 51 6 4 10 -11
10 -38 0 -48 5 -58 26 -50 9 3 14 21 14 53 0 67 18 73 22 8 2 -39 7 -53 18
-53 11 0 16 15 20 59 7 83 30 88 30 7 0 -48 3 -61 15 -61 12 0 15 14 15 64 0
48 4 65 15 70 12 4 15 -7 15 -65 0 -62 2 -70 18 -67 14 3 18 16 20 76 4 92 22
94 22 2 0 -63 2 -70 20 -70 18 0 20 7 20 75 0 43 4 75 10 75 6 0 10 -32 10
-75 0 -68 2 -75 20 -75 18 0 20 7 20 79 0 44 5 83 10 86 6 4 10 -25 10 -79 0
-79 2 -86 20 -86 17 0 19 8 22 87 2 58 7 88 16 91 9 3 12 -19 12 -87 0 -84 1
-91 20 -91 19 0 20 7 20 90 0 119 18 117 22 -2 2 -75 6 -93 18 -93 12 0 16 19
18 98 4 129 22 127 22 -3 0 -93 1 -100 20 -100 19 0 20 7 20 100 0 133 18 131
22 -2 3 -89 5 -103 21 -106 15 -3 17 7 17 102 0 87 3 106 15 106 11 0 15 -21
17 -107 2 -64 7 -108 13 -108 6 0 11 44 13 108 2 86 6 107 17 107 12 0 15 -20
15 -110 0 -103 1 -110 20 -110 19 0 20 7 20 110 0 67 4 110 10 110 6 0 10 -45
10 -115 0 -108 1 -115 20 -115 19 0 20 7 20 115 0 70 4 115 10 115 6 0 10 -47
10 -120 0 -113 1 -120 20 -120 19 0 20 7 20 115 0 70 4 115 10 115 6 0 10 -46
10 -119 0 -93 3 -120 14 -124 8 -3 17 -3 20 0 3 4 6 59 6 124 0 100 2 117 15
113 11 -5 15 -31 17 -127 2 -85 7 -122 16 -125 9 -3 12 26 12 122 0 107 2 125
15 120 12 -5 15 -29 15 -130 0 -117 1 -124 20 -124 19 0 20 7 20 120 0 73 4
120 10 120 6 0 10 -48 10 -125 0 -118 1 -125 20 -125 19 0 20 7 20 120 0 163
19 157 22 -7 3 -112 5 -128 21 -131 15 -3 17 8 17 122 0 168 19 167 22 -1 3
-112 5 -128 21 -131 15 -3 17 8 17 122 0 107 2 125 15 120 12 -5 15 -29 15
-129 0 -100 3 -124 15 -129 13 -5 15 13 15 119 0 103 3 125 15 125 12 0 15
-23 17 -127 3 -112 5 -128 21 -131 15 -3 17 8 17 117 0 74 4 121 10 121 6 0
10 -48 10 -125 0 -118 1 -125 20 -125 19 0 20 7 20 120 0 163 19 157 22 -7 3
-112 5 -128 21 -131 15 -3 17 8 17 117 0 161 18 160 22 -1 3 -108 5 -123 21
-126 15 -3 17 7 17 112 0 96 3 116 15 116 13 0 15 -20 15 -120 0 -113 1 -120
20 -120 19 0 20 7 20 110 0 150 19 143 22 -7 2 -97 6 -118 18 -118 12 0 16 20
18 113 1 61 7 112 12 112 5 0 11 -53 12 -117 3 -103 5 -118 21 -121 15 -3 17
7 17 107 0 147 18 146 22 -1 3 -98 5 -113 21 -116 15 -3 17 7 17 102 0 90 2
106 16 106 13 0 15 -15 12 -105 -3 -101 1 -115 28 -115 2 0 4 47 4 105 0 87 3
105 15 105 12 0 15 -18 15 -105 0 -98 1 -105 20 -105 19 0 20 7 20 95 0 57 4
95 10 95 6 0 10 -40 10 -100 0 -93 1 -100 20 -100 19 0 20 7 20 95 0 57 4 95
10 95 6 0 10 -38 10 -95 0 -88 1 -95 20 -95 19 0 20 7 20 90 0 119 18 117 22
-2 2 -75 6 -93 18 -93 12 0 16 18 18 87 2 72 5 86 17 81 12 -4 15 -25 15 -89
0 -68 3 -84 15 -84 12 0 15 16 15 86 0 64 3 85 13 82 7 -3 14 -33 17 -81 3
-43 8 -77 13 -77 4 0 12 0 17 0 6 0 10 32 10 75 0 43 4 75 10 75 6 0 10 -32
10 -75 0 -68 2 -75 20 -75 18 0 20 7 20 70 0 40 4 70 10 70 6 0 10 -28 10 -63
0 -68 4 -79 26 -70 10 4 14 23 14 69 0 82 18 84 22 2 2 -48 7 -63 18 -63 11 0
16 15 18 63 2 46 7 62 17 62 12 0 15 -14 15 -61 0 -78 23 -77 30 1 7 76 30 79
30 5 0 -48 3 -56 16 -51 9 3 18 6 20 6 2 0 4 23 4 50 0 28 5 50 10 50 6 0 10
-21 10 -46 0 -38 3 -45 18 -42 12 2 18 15 20 46 4 51 22 57 22 7 0 -28 4 -35
20 -35 17 0 20 7 20 40 0 22 5 40 10 40 6 0 10 -13 10 -30 0 -23 4 -30 20 -30
16 0 20 7 20 35 0 24 5 35 15 35 9 0 15 -10 15 -26 0 -19 5 -25 17 -22 11 2
18 12 18 27 0 13 6 26 13 28 7 3 12 -4 12 -17 0 -27 21 -22 35 8 10 23 25 30
25 12 0 -19 32 -10 37 10 4 15 11 18 27 14 14 -3 28 1 35 10 8 9 20 16 27 16
8 0 62 29 121 64 123 74 171 108 106 77 -129 -63 -329 -126 -497 -158 -127
-24 -461 -24 -606 -1 -139 23 -317 65 -575 138 -435 123 -625 158 -880 164
-88 2 -178 2 -200 0z"/>
<path d="M5955 1073 c-106 -7 -264 -24 -360 -39 -381 -58 -585 -117 -1065
-307 -481 -190 -627 -233 -910 -267 -192 -23 -570 1 -865 55 -44 8 -123 22
-175 30 -52 9 -127 23 -166 31 -237 46 -546 78 -754 78 -410 -1 -753 -100
-1093 -317 -81 -51 -98 -77 -78 -116 20 -37 46 -44 88 -22 44 22 212 73 298
91 33 6 78 15 100 20 119 25 234 32 440 28 183 -4 254 -10 420 -37 110 -17
236 -40 280 -51 44 -10 96 -21 115 -25 32 -6 198 -43 430 -95 82 -18 161 -32
373 -65 270 -43 551 -43 774 0 235 44 333 77 943 315 351 137 553 200 798 250
855 173 1694 91 2299 -225 59 -30 115 -55 125 -55 10 0 30 11 44 25 23 23 24
27 10 52 -25 50 -209 217 -311 284 -369 243 -909 373 -1521 367 -104 -1 -211
-3 -239 -5z m579 -34 c373 -28 746 -122 1001 -252 114 -58 112 -57 200 -116
97 -66 278 -244 273 -269 -4 -22 -64 -29 -86 -9 -45 38 -336 163 -493 211
-564 171 -1229 190 -1873 55 -261 -55 -446 -113 -796 -249 -498 -194 -588
-227 -760 -274 -205 -57 -310 -70 -550 -70 -128 0 -266 5 -320 13 -244 33
-394 61 -705 131 -343 78 -651 134 -832 149 -206 19 -469 10 -608 -19 -27 -6
-75 -16 -105 -22 -83 -16 -249 -67 -297 -90 -48 -24 -73 -19 -73 15 0 30 30
54 160 128 344 198 738 281 1175 249 150 -10 430 -46 555 -70 597 -115 969
-150 1240 -116 266 34 408 76 880 263 493 195 720 260 1100 313 278 39 640 50
914 29z"/>
<path d="M5980 1014 c-612 -54 -850 -111 -1430 -341 -532 -211 -755 -271
-1055 -280 -258 -9 -459 12 -950 97 -493 86 -622 101 -875 101 -301 0 -507
-38 -765 -141 -116 -46 -364 -185 -351 -197 2 -2 12 0 23 6 23 14 218 81 234
81 6 0 18 8 25 17 11 15 15 16 23 4 10 -15 31 -7 31 14 0 7 7 15 15 19 10 4
15 -1 15 -15 0 -15 5 -19 16 -15 9 3 18 6 20 6 2 0 4 11 4 25 0 14 5 25 10 25
6 0 10 -8 10 -18 0 -24 8 -32 26 -25 8 3 14 18 14 34 0 16 5 29 10 29 6 0 10
-10 10 -23 0 -29 7 -37 26 -30 8 3 14 19 14 39 0 43 18 45 22 2 2 -22 9 -34
21 -36 14 -3 17 4 17 42 0 34 4 46 15 46 11 0 15 -11 15 -40 0 -28 4 -40 14
-40 11 0 16 14 18 47 4 67 28 70 28 3 0 -44 3 -51 18 -48 13 2 18 15 20 56 4
67 20 67 24 0 2 -39 7 -53 18 -53 11 0 16 14 18 58 2 31 7 57 12 57 5 0 10
-26 12 -57 2 -44 7 -58 18 -58 11 0 16 15 18 63 4 80 20 80 24 0 2 -50 6 -63
20 -66 16 -3 18 5 18 67 0 56 3 71 15 71 12 0 15 -14 15 -70 0 -56 3 -70 15
-70 12 0 15 14 15 70 0 56 3 70 15 70 12 0 15 -14 15 -70 0 -63 2 -70 20 -70
18 0 20 7 20 75 0 43 4 75 10 75 6 0 10 -33 10 -80 0 -73 2 -80 20 -80 18 0
20 7 20 80 0 106 18 104 22 -2 3 -70 6 -83 21 -86 15 -3 17 6 17 82 0 51 4 86
10 86 6 0 10 -35 10 -84 0 -63 4 -85 14 -89 23 -9 26 2 26 90 0 67 3 83 15 83
12 0 15 -17 15 -90 0 -83 1 -90 20 -90 19 0 20 7 20 90 0 53 4 90 10 90 6 0
10 -38 10 -95 0 -88 1 -95 20 -95 19 0 20 7 20 90 0 53 4 90 10 90 6 0 10 -38
10 -95 0 -88 1 -95 20 -95 19 0 20 7 20 95 0 57 4 95 10 95 6 0 10 -40 10 -99
0 -76 3 -100 14 -104 23 -9 26 2 26 100 0 75 3 93 15 93 11 0 15 -20 17 -102
2 -70 7 -103 16 -106 9 -3 12 22 12 102 0 88 2 104 15 100 11 -5 15 -29 17
-107 3 -88 5 -102 21 -105 15 -3 17 7 17 102 0 64 4 106 10 106 6 0 10 -43 10
-110 0 -103 1 -110 20 -110 19 0 20 7 20 105 0 63 4 105 10 105 6 0 10 -43 10
-109 0 -107 4 -121 36 -121 2 0 4 50 4 110 0 146 18 144 22 -2 3 -98 5 -113
21 -116 15 -3 17 7 17 107 0 92 3 111 15 111 12 0 15 -19 15 -115 0 -96 3
-115 15 -115 12 0 15 19 15 110 0 90 3 110 15 110 12 0 15 -22 17 -117 3 -103
5 -118 21 -121 15 -3 17 7 17 112 0 154 18 153 22 -1 3 -103 5 -118 21 -121
15 -3 17 7 17 112 0 71 4 116 10 116 6 0 10 -46 10 -119 0 -99 3 -120 16 -125
9 -3 18 -6 20 -6 2 0 4 54 4 120 0 160 19 158 22 -2 3 -108 5 -123 21 -126 15
-3 17 8 17 117 0 103 2 120 15 115 12 -5 15 -29 15 -125 0 -99 3 -119 15 -119
12 0 15 19 15 115 0 96 3 115 15 115 13 0 15 -20 15 -120 0 -113 1 -120 20
-120 19 0 20 7 20 115 0 70 4 115 10 115 6 0 10 -46 10 -119 0 -99 3 -120 16
-125 9 -3 18 -6 20 -6 2 0 4 54 4 120 0 160 19 158 22 -2 3 -108 5 -123 21
-126 15 -3 17 8 17 117 0 161 18 160 22 -1 3 -108 5 -123 21 -126 15 -3 17 8
17 122 0 107 2 125 15 120 12 -5 15 -29 15 -131 0 -113 2 -124 18 -121 15 3
17 18 20 126 1 67 7 122 12 122 5 0 11 -57 12 -127 3 -112 5 -128 21 -131 15
-3 17 8 17 122 0 77 4 126 10 126 6 0 10 -48 10 -124 0 -97 3 -125 14 -129 8
-3 17 -3 20 0 3 4 6 60 6 125 0 159 19 155 22 -4 3 -108 5 -123 21 -126 15 -3
17 8 17 123 0 97 3 126 13 122 8 -3 12 -39 14 -128 1 -105 4 -125 17 -127 14
-3 16 13 16 122 0 105 2 126 15 126 13 0 15 -21 15 -125 0 -118 1 -125 20
-125 19 0 20 7 20 125 0 77 4 125 10 125 6 0 10 -48 10 -125 0 -118 1 -125 20
-125 19 0 20 7 20 120 0 160 19 158 22 -2 3 -101 6 -123 18 -123 12 0 15 22
18 123 1 67 7 122 12 122 5 0 11 -55 12 -122 3 -101 6 -123 18 -123 12 0 15
22 18 123 2 99 5 122 17 122 12 0 15 -21 15 -120 0 -100 3 -120 15 -120 13 0
15 21 15 125 0 104 2 125 15 125 13 0 15 -21 15 -126 0 -114 2 -125 18 -122
15 3 17 18 20 126 1 67 7 122 12 122 5 0 11 -55 12 -123 3 -100 6 -122 18
-122 12 0 15 22 18 128 3 168 22 169 22 1 0 -114 2 -125 18 -122 15 3 17 19
20 131 1 70 7 127 12 127 5 0 11 -55 12 -122 3 -101 6 -123 18 -123 12 0 15
22 18 128 2 104 5 127 17 127 12 0 15 -22 15 -126 0 -96 3 -125 13 -122 8 3
13 41 15 131 2 104 5 127 17 127 12 0 15 -21 15 -121 0 -109 2 -120 18 -117
15 3 17 19 20 131 3 168 22 169 22 1 0 -111 2 -125 16 -120 9 3 18 6 20 6 2 0
4 56 4 125 0 77 4 125 10 125 6 0 10 -47 10 -121 0 -109 2 -120 18 -117 15 3
17 19 20 131 3 164 22 170 22 7 0 -113 1 -120 20 -120 19 0 20 7 20 130 0 109
2 130 15 130 13 0 15 -20 15 -121 0 -106 2 -120 16 -117 14 3 16 20 15 129 -2
106 1 127 14 132 13 6 15 -10 15 -119 0 -114 2 -125 18 -122 15 3 17 18 20
128 4 170 22 183 22 16 0 -113 2 -127 16 -122 9 3 18 6 20 6 2 0 4 58 4 130 0
80 4 130 10 130 6 0 10 -49 10 -126 0 -111 2 -125 16 -120 9 3 18 6 20 6 2 0
4 58 4 130 0 80 4 130 10 130 6 0 10 -47 10 -121 0 -109 2 -120 18 -117 15 3
18 20 22 132 4 91 9 131 18 134 9 3 12 -26 12 -122 0 -69 4 -126 8 -126 25 0
32 30 32 147 0 75 4 123 10 123 6 0 10 -47 10 -121 0 -109 2 -120 18 -117 15
3 17 18 20 128 4 170 22 183 22 16 0 -113 2 -127 16 -122 9 3 18 6 20 6 2 0 4
58 4 130 0 80 4 130 10 130 6 0 10 -47 10 -121 0 -109 2 -120 18 -117 15 3 17
19 20 130 2 100 6 127 17 132 13 5 15 -14 15 -120 0 -96 3 -125 13 -122 8 3
13 43 17 133 4 90 9 130 18 133 9 3 12 -26 12 -123 0 -123 0 -125 20 -115 18
10 20 21 20 135 0 72 4 126 10 130 6 4 10 -38 10 -120 0 -115 2 -126 18 -123
15 3 17 18 20 128 4 170 22 183 22 16 0 -116 2 -127 18 -124 15 3 17 18 20
128 4 166 22 185 22 23 0 -67 4 -124 8 -127 24 -14 31 16 34 134 2 88 7 125
16 128 9 3 12 -25 12 -117 0 -100 3 -121 15 -121 12 0 15 23 17 127 2 90 7
128 16 131 9 3 12 -25 12 -118 0 -110 2 -121 18 -118 15 3 17 18 20 123 4 163
22 176 22 16 0 -111 2 -122 18 -119 15 3 17 18 20 126 3 158 22 163 22 6 0
-105 2 -115 18 -112 15 3 17 18 20 126 3 157 22 163 22 7 0 -108 1 -115 20
-115 19 0 20 7 20 119 0 96 3 120 15 125 13 5 15 -12 15 -115 0 -92 3 -120 13
-117 8 3 14 41 17 123 3 82 9 120 18 123 9 3 12 -24 12 -113 0 -106 2 -116 18
-113 15 3 17 18 20 121 4 154 22 155 22 1 0 -102 2 -115 16 -110 9 3 18 6 20
6 2 0 4 52 4 115 0 70 4 115 10 115 6 0 10 -43 10 -110 0 -103 1 -110 20 -110
19 0 20 7 20 115 0 70 4 115 10 115 6 0 10 -43 10 -110 0 -103 1 -110 20 -110
19 0 20 7 20 115 0 96 3 115 15 115 12 0 15 -19 15 -111 0 -97 2 -110 16 -105
9 3 18 6 20 6 2 0 4 50 4 110 0 67 4 110 10 110 6 0 10 -44 10 -111 0 -97 2
-110 16 -105 9 3 18 6 20 6 2 0 4 47 4 104 0 142 18 149 22 9 2 -88 6 -108 18
-108 12 0 16 20 18 108 1 59 7 107 12 107 5 0 11 -46 12 -102 2 -84 6 -103 18
-103 12 0 16 20 18 108 2 86 6 107 17 107 12 0 15 -19 15 -105 0 -87 3 -105
15 -105 12 0 15 18 15 105 0 87 3 105 15 105 12 0 15 -18 15 -100 0 -93 1
-100 20 -100 19 0 20 7 20 105 0 137 18 139 22 3 2 -84 6 -103 18 -103 12 0
16 19 18 103 4 133 22 135 22 2 0 -93 1 -100 20 -100 19 0 20 7 20 100 0 130
18 132 22 3 2 -79 6 -98 18 -98 12 0 16 19 18 103 2 76 6 102 15 99 8 -2 13
-36 15 -100 2 -76 6 -97 17 -97 11 0 15 21 17 97 2 66 7 98 16 101 9 3 12 -21
12 -97 0 -94 1 -101 20 -101 19 0 20 7 20 100 0 60 4 100 10 100 6 0 10 -40
10 -100 0 -93 1 -100 20 -100 19 0 20 7 20 95 0 57 4 95 10 95 6 0 10 -38 10
-95 0 -88 1 -95 20 -95 19 0 20 7 20 95 0 123 18 125 22 3 3 -79 6 -93 21 -96
15 -3 17 6 17 92 0 79 3 96 15 96 12 0 15 -17 15 -95 0 -78 3 -95 15 -95 12 0
15 17 15 90 0 73 3 90 15 90 12 0 15 -17 15 -90 0 -83 1 -90 20 -90 19 0 20 7
20 90 0 119 18 117 22 -2 2 -75 6 -93 18 -93 12 0 16 18 18 88 1 48 7 87 12
87 5 0 11 -39 12 -87 3 -74 6 -88 21 -91 15 -3 17 6 17 82 0 51 4 86 10 86 6
0 10 -35 10 -84 0 -63 4 -85 14 -89 23 -9 26 2 26 90 0 63 3 84 13 81 8 -3 13
-33 15 -91 3 -79 5 -87 22 -87 18 0 20 7 20 86 0 54 4 83 10 79 6 -3 10 -44
10 -91 0 -77 2 -84 20 -84 18 0 20 7 20 87 0 110 18 100 22 -12 3 -67 6 -80
21 -83 15 -3 17 6 17 77 0 106 18 105 22 -1 3 -70 6 -83 21 -86 15 -3 17 6 17
78 0 61 3 81 13 78 8 -3 13 -32 15 -86 2 -64 6 -82 17 -82 12 0 15 17 15 80 0
66 2 78 15 74 12 -5 15 -24 15 -85 0 -72 2 -79 20 -79 18 0 20 7 20 75 0 43 4
75 10 75 6 0 10 -33 10 -80 0 -73 2 -80 20 -80 18 0 20 7 20 70 0 95 18 89 22
-7 3 -65 6 -78 21 -81 15 -3 17 5 17 67 0 41 4 71 10 71 6 0 10 -29 10 -68 0
-63 10 -92 32 -92 4 0 8 31 8 70 0 58 3 68 15 64 11 -5 15 -23 15 -75 0 -55 3
-69 15 -69 12 0 15 13 15 60 0 46 3 60 15 60 11 0 15 -16 17 -67 2 -55 6 -68
21 -71 15 -3 17 5 17 59 0 80 18 67 22 -16 2 -48 7 -60 21 -63 14 -3 17 5 17
53 0 35 4 54 10 50 6 -3 10 -31 10 -60 0 -44 4 -56 20 -65 19 -10 20 -8 20 45
0 35 4 54 10 50 6 -3 10 -28 10 -54 0 -43 12 -71 32 -71 4 0 8 21 8 46 0 65
24 53 28 -14 2 -37 7 -52 18 -52 9 0 14 11 14 36 0 51 24 38 30 -17 4 -31 10
-45 23 -47 13 -3 17 3 17 24 0 36 17 19 22 -21 3 -32 38 -50 38 -20 0 9 5 13
10 10 6 -3 10 -15 10 -25 0 -24 35 -46 46 -28 11 17 -121 137 -235 213 -257
171 -627 287 -1066 335 -102 11 -554 21 -635 14z"/>
<path d="M5985 605 c-101 -11 -250 -38 -405 -75 -202 -48 -480 -151 -752 -278
-124 -58 -151 -86 -124 -127 23 -36 58 -41 114 -17 70 30 355 98 532 126 259
42 360 49 637 43 230 -4 284 -9 493 -41 129 -19 323 -54 430 -76 359 -75 569
-114 693 -130 120 -15 546 -12 650 5 259 42 520 145 828 328 105 62 124 88 95
132 -23 34 -51 40 -89 17 -38 -23 -237 -91 -353 -121 -227 -58 -276 -64 -534
-64 -210 -1 -264 2 -380 22 -148 24 -146 24 -505 110 -533 128 -756 162 -1055
160 -85 -1 -209 -7 -275 -14z m600 -30 c161 -16 389 -61 690 -135 378 -92 485
-113 685 -135 266 -29 497 -12 763 56 112 28 314 97 358 121 48 27 74 21 74
-16 0 -26 -11 -36 -105 -93 -208 -127 -413 -217 -621 -271 -182 -48 -263 -57
-509 -57 -302 0 -343 6 -1045 149 -643 131 -1068 148 -1565 62 -160 -28 -445
-98 -496 -122 -18 -9 -45 -14 -61 -12 -22 2 -28 8 -28 28 0 27 6 31 175 109
108 49 323 136 415 166 62 21 208 64 255 75 151 36 303 64 400 75 158 17 446
18 615 0z"/>
<path d="M6035 549 c-284 -26 -652 -122 -954 -248 -110 -46 -302 -134 -299
-137 2 -1 80 20 173 48 94 28 180 50 192 49 12 0 27 7 32 17 9 14 12 15 20 3
11 -17 41 -7 41 14 0 8 5 15 10 15 6 0 10 -4 10 -10 0 -21 39 -10 42 12 4 28
28 36 28 9 0 -31 28 -26 32 6 4 34 28 43 28 11 0 -30 7 -38 26 -31 8 3 14 19
14 39 0 43 18 45 22 2 4 -48 32 -44 36 5 4 47 22 49 22 2 0 -28 4 -35 20 -35
17 0 20 7 20 45 0 25 5 45 10 45 6 0 10 -18 10 -40 0 -33 3 -40 20 -40 17 0
20 7 20 50 0 38 4 50 15 50 11 0 15 -12 15 -51 0 -43 3 -50 18 -47 13 2 18 15
20 56 4 66 22 68 22 2 0 -43 3 -50 20 -50 18 0 20 7 20 60 0 33 4 60 10 60 6
0 10 -27 10 -60 0 -53 2 -60 20 -60 18 0 20 7 20 65 0 83 18 85 22 3 2 -50 6
-63 21 -66 15 -3 17 5 17 67 0 56 3 71 15 71 12 0 15 -14 15 -70 0 -56 3 -70
15 -70 12 0 15 15 15 75 0 60 3 75 15 75 12 0 15 -15 15 -76 0 -66 2 -75 18
-72 14 3 17 16 20 81 4 102 22 100 22 -3 0 -73 2 -80 20 -80 18 0 20 7 20 80
0 47 4 80 10 80 6 0 10 -33 10 -80 0 -73 2 -80 20 -80 18 0 20 7 20 85 0 112
18 110 22 -2 2 -70 6 -88 18 -88 12 0 16 18 18 88 2 68 6 87 17 87 12 0 15
-18 15 -90 0 -72 3 -90 15 -90 11 0 15 19 17 92 2 60 7 93 15 95 9 3 13 -22
15 -94 2 -79 6 -98 18 -98 12 0 16 19 18 98 4 129 22 127 22 -3 0 -93 1 -100
20 -100 19 0 20 7 20 100 0 133 18 131 22 -2 3 -89 5 -103 21 -106 15 -3 17 7
17 97 0 133 18 132 22 -1 3 -89 5 -103 21 -106 15 -3 17 7 17 102 0 87 3 106
15 106 11 0 15 -21 17 -107 2 -72 7 -108 15 -110 9 -3 13 24 15 104 4 142 21
141 28 -2 4 -94 7 -110 23 -113 15 -3 17 7 17 107 0 147 18 146 22 -1 3 -98 5
-113 21 -116 15 -3 17 7 17 107 0 147 18 146 22 -1 3 -98 5 -113 21 -116 15
-3 17 7 17 107 0 147 18 146 22 -1 3 -98 5 -113 21 -116 15 -3 17 7 17 107 0
92 3 111 15 111 12 0 15 -19 15 -115 0 -108 1 -115 20 -115 19 0 20 7 20 110
0 149 19 143 22 -7 3 -103 5 -118 21 -121 15 -3 17 7 17 112 0 154 18 153 22
-1 3 -103 5 -118 21 -121 15 -3 17 7 17 112 0 154 18 153 22 -1 3 -103 5 -118
21 -121 15 -3 17 7 17 107 0 91 3 111 15 111 12 0 15 -22 17 -117 2 -82 7
-118 16 -121 9 -3 12 24 12 112 0 95 3 116 15 116 12 0 15 -22 17 -117 3 -103
5 -118 21 -121 15 -3 17 7 17 107 0 67 4 111 10 111 6 0 10 -45 10 -115 0
-108 1 -115 20 -115 19 0 20 7 20 110 0 67 4 110 10 110 6 0 10 -45 10 -115 0
-108 1 -115 20 -115 19 0 20 7 20 111 0 71 4 108 10 104 6 -4 10 -53 10 -115
0 -106 4 -120 36 -120 2 0 4 50 4 111 0 84 3 110 13 107 8 -3 14 -39 17 -113
3 -74 9 -110 18 -113 9 -3 12 22 12 102 0 86 3 106 15 106 11 0 15 -21 17
-107 2 -88 6 -108 18 -108 12 0 16 19 18 103 1 56 7 102 12 102 5 0 11 -48 12
-107 2 -88 6 -108 18 -108 12 0 16 19 18 98 4 128 22 127 22 -2 0 -76 3 -100
14 -104 23 -9 26 2 26 100 0 55 4 93 10 93 6 0 10 -40 10 -100 0 -93 1 -100
20 -100 19 0 20 7 20 96 0 72 3 95 13 92 8 -3 13 -35 15 -101 2 -77 6 -97 17
-97 12 0 15 18 15 90 0 73 3 90 15 90 12 0 15 -17 15 -90 0 -83 1 -90 20 -90
18 0 20 7 20 85 0 112 18 110 22 -2 2 -70 6 -88 18 -88 12 0 16 17 18 82 2 46
7 83 12 83 5 0 10 -37 12 -82 3 -70 6 -83 21 -86 15 -3 17 6 17 84 0 108 18
103 22 -6 2 -62 6 -75 21 -78 15 -3 17 6 17 77 0 65 3 81 15 81 12 0 15 -16
15 -81 0 -71 2 -80 18 -77 14 3 18 16 20 76 4 91 22 95 22 4 0 -73 4 -84 26
-75 10 4 14 24 14 74 0 39 4 69 10 69 6 0 10 -30 10 -71 0 -62 2 -70 18 -67
14 3 18 16 20 71 4 83 22 80 22 -4 0 -52 2 -59 20 -59 18 0 20 7 20 60 0 47 3
60 15 60 12 0 15 -13 15 -55 0 -42 3 -55 15 -55 12 0 15 13 15 60 0 47 3 60
15 60 12 0 15 -13 15 -56 0 -47 3 -55 18 -52 13 2 18 15 20 56 4 67 22 68 22
1 0 -43 3 -50 16 -45 9 3 18 6 20 6 2 0 4 20 4 45 0 25 5 45 10 45 6 0 10 -18
10 -41 0 -33 3 -40 18 -37 12 2 18 15 20 46 4 51 22 57 22 7 0 -28 4 -35 20
-35 17 0 20 7 20 40 0 29 4 40 15 40 10 0 15 -10 15 -30 0 -20 5 -30 15 -30
10 0 15 11 15 35 0 24 5 35 15 35 9 0 15 -10 15 -26 0 -20 4 -25 16 -20 9 3
18 6 20 6 2 0 4 11 4 25 0 14 5 25 10 25 6 0 10 -9 10 -20 0 -18 3 -19 20 -10
11 6 20 20 20 30 0 11 5 20 10 20 6 0 10 -7 10 -16 0 -11 5 -14 16 -10 9 3 18
6 20 6 2 0 4 7 4 16 0 11 6 13 19 9 10 -3 25 0 33 8 7 7 24 16 38 20 22 5 231
125 248 141 3 4 -25 -5 -64 -20 -356 -136 -607 -182 -933 -171 -247 8 -374 29
-776 127 -222 54 -454 106 -566 125 -238 42 -521 55 -744 34z"/>
</g>
</svg>
