<?xml version="1.0" standalone="no"?>
<!DOCTYPE svg PUBLIC "-//W3C//DTD SVG 20010904//EN"
 "http://www.w3.org/TR/2001/REC-SVG-20010904/DTD/svg10.dtd">
<svg version="1.0" xmlns="http://www.w3.org/2000/svg"
 width="2736.000000pt" height="2536.000000pt" viewBox="0 0 2736.000000 2536.000000"
 preserveAspectRatio="xMidYMid meet">
<metadata>
Created by potrace 1.16, written by Peter Selinger 2001-2019
</metadata>
<g transform="translate(0.000000,2536.000000) scale(0.100000,-0.100000)"
fill="#000000" stroke="none">
<path d="M13500 25289 c-1463 -134 -2671 -375 -3850 -768 -661 -221 -1141
-419 -1750 -722 -1755 -876 -3186 -2099 -4332 -3704 -132 -185 -382 -569 -515
-790 -852 -1417 -1460 -3067 -1777 -4821 -14 -76 -32 -184 -41 -239 -8 -55
-22 -143 -30 -195 -47 -308 -90 -707 -106 -990 -7 -122 -17 -213 -24 -225 -24
-39 -192 -223 -386 -420 -210 -215 -235 -247 -303 -382 -167 -330 -274 -836
-306 -1443 -17 -324 1 -909 40 -1300 114 -1139 384 -2347 852 -3810 726 -2272
1465 -3725 2312 -4547 499 -485 1030 -752 1666 -839 244 -34 674 -19 919 30
37 8 171 53 299 100 129 47 238 86 243 86 6 0 33 -18 62 -39 70 -53 160 -96
249 -121 86 -24 246 -27 323 -6 115 30 1006 342 1070 374 103 50 226 178 283
292 46 94 68 166 83 282 5 46 22 105 39 144 17 37 55 139 86 228 148 431 236
915 274 1501 19 299 12 895 -15 1240 -117 1508 -560 3177 -1236 4655 -81 177
-347 704 -440 870 -745 1337 -1617 2302 -2468 2732 -121 61 -168 91 -216 137
-169 162 -401 239 -609 200 -82 -15 -1036 -343 -1110 -382 -34 -18 -65 -33
-69 -35 -4 -2 25 38 66 88 191 239 343 546 416 840 45 186 60 310 66 565 13
589 139 1262 387 2065 282 915 753 1905 1291 2710 530 794 1156 1494 1877
2098 1446 1211 3283 2015 5415 2371 469 78 1094 153 1405 167 181 9 553 -24
1095 -97 2179 -293 4064 -1035 5570 -2194 348 -268 621 -509 956 -844 646
-647 1170 -1341 1637 -2166 89 -157 317 -603 391 -765 389 -849 689 -1819 815
-2640 43 -279 57 -434 66 -720 10 -299 25 -420 79 -612 81 -286 245 -596 431
-817 42 -50 53 -68 34 -54 -16 11 -46 30 -68 42 -45 26 -1002 355 -1091 377
-205 48 -446 -28 -630 -199 -50 -46 -97 -78 -147 -101 -387 -176 -864 -545
-1261 -973 -1037 -1121 -1917 -2798 -2462 -4693 -270 -937 -428 -1812 -496
-2740 -14 -188 -18 -878 -6 -1110 31 -628 156 -1245 348 -1716 27 -67 49 -136
49 -155 0 -52 26 -160 56 -235 57 -146 178 -286 303 -353 62 -33 1017 -364
1104 -383 28 -6 100 -8 161 -6 159 7 268 51 432 172 8 7 94 -20 266 -82 177
-64 281 -97 344 -106 649 -102 1214 -21 1749 248 602 304 1141 854 1642 1676
547 899 1097 2244 1607 3930 389 1288 643 2535 716 3525 6 83 13 175 16 205 9
106 12 807 3 950 -40 658 -178 1216 -373 1508 -25 37 -130 153 -233 258 -233
236 -374 394 -390 437 -7 17 -12 61 -12 97 -2 211 -64 787 -132 1220 -290
1853 -934 3654 -1845 5162 -227 375 -512 792 -790 1155 -519 675 -1199 1374
-1864 1914 -1401 1137 -3063 1946 -4989 2429 -644 161 -1182 263 -1926 365
-34 4 -139 17 -325 40 -249 30 -676 65 -775 64 -55 -1 -143 -6 -195 -10z
m-362 -1231 c-237 -299 -443 -555 -457 -571 -19 -19 -38 -28 -66 -30 -38 -2
-68 19 -682 473 l-643 475 133 22 c172 28 503 72 592 79 l70 6 18 -39 c53
-113 194 -232 325 -274 93 -30 247 -37 331 -15 125 32 219 91 286 180 44 59
64 102 80 171 l11 50 60 6 c32 3 130 6 216 7 l157 2 -431 -542z m1070 536 l90
-7 6 -42 c18 -115 132 -262 248 -318 221 -106 501 -62 673 107 34 33 77 87 95
119 27 49 36 57 61 57 43 0 402 -47 592 -78 l169 -27 -647 -478 -647 -478 -41
8 c-39 8 -55 26 -489 572 -246 310 -448 565 -448 567 0 6 239 5 338 -2z
m-1218 -24 c0 -30 -49 -118 -85 -155 -21 -21 -68 -51 -104 -68 -56 -27 -80
-32 -161 -35 -78 -3 -106 0 -159 18 -87 29 -164 82 -211 144 l-39 51 27 7 c31
8 367 35 552 44 69 4 126 7 127 8 1 0 13 1 27 1 17 0 26 -6 26 -15z m1640 6
c192 -10 524 -37 549 -45 l23 -7 -34 -44 c-44 -58 -119 -114 -188 -142 -45
-18 -76 -22 -170 -23 -104 0 -120 3 -172 27 -74 34 -141 97 -173 161 -35 72
-34 84 13 81 20 -1 89 -5 152 -8z m-990 -564 l0 -448 -162 -13 c-90 -7 -262
-23 -382 -37 -121 -13 -221 -23 -222 -21 -3 2 758 965 764 967 1 0 2 -202 2
-448z m544 -41 c207 -260 375 -475 373 -477 -2 -2 -82 5 -178 16 -96 11 -267
27 -381 37 l-208 17 0 450 c0 260 4 446 9 441 5 -6 178 -223 385 -484z m-2920
-201 l122 -535 -266 -66 c-241 -61 -510 -135 -680 -188 -35 -11 -65 -19 -67
-18 -1 2 170 310 380 686 210 376 383 678 385 670 2 -8 58 -255 126 -549z
m5416 -121 c206 -369 377 -675 379 -681 2 -7 -3 -9 -15 -4 -65 25 -462 137
-704 197 -157 40 -287 73 -289 75 -5 5 242 1084 248 1084 3 0 175 -302 381
-671z m-4821 161 c286 -211 519 -385 518 -386 -2 -2 -86 -17 -187 -34 -102
-17 -292 -51 -422 -77 -131 -26 -240 -44 -242 -42 -3 3 -50 205 -106 449 -56
245 -104 456 -107 469 -5 19 -3 22 10 15 8 -5 249 -182 536 -394z m4156 -78
c-58 -254 -105 -463 -105 -465 0 -2 -93 16 -207 39 -115 23 -307 59 -428 79
-121 20 -221 38 -222 39 0 0 238 178 530 393 293 216 533 389 535 385 1 -5
-45 -216 -103 -470z m-5691 426 c-11 -82 -35 -161 -62 -211 -38 -72 -117 -148
-187 -183 -53 -26 -71 -29 -150 -29 -108 0 -159 20 -234 90 -51 48 -118 141
-108 151 13 13 701 221 740 223 4 1 5 -18 1 -41z m7091 -44 c230 -67 435 -135
435 -143 0 -20 -82 -129 -121 -161 -95 -76 -224 -100 -335 -62 -145 51 -265
216 -281 388 l-6 63 94 -25 c52 -13 148 -41 214 -60z m-7917 -984 c242 -168
441 -307 441 -310 1 -3 -43 -20 -97 -39 -53 -19 -207 -79 -342 -133 -135 -55
-254 -102 -265 -104 -19 -5 -33 33 -183 493 -90 274 -163 502 -162 506 0 4 37
-18 83 -50 46 -32 282 -195 525 -363z m8986 223 c-35 -109 -110 -338 -166
-509 l-103 -311 -150 63 c-82 35 -243 98 -358 141 -114 42 -206 81 -205 85 3
9 1028 725 1039 727 4 1 -22 -88 -57 -196z m356 -288 c81 -231 195 -551 254
-712 58 -161 106 -295 106 -298 0 -3 -42 17 -92 45 -136 74 -473 244 -623 312
-71 33 -131 61 -133 63 -2 2 72 236 164 520 93 284 170 511 173 503 2 -7 70
-202 151 -433z m-9921 -76 c88 -273 161 -501 161 -506 0 -5 -98 -55 -218 -111
-119 -56 -310 -151 -422 -211 -113 -60 -206 -108 -207 -107 -2 1 33 101 78
221 72 197 241 674 380 1072 29 84 56 149 60 145 4 -4 79 -230 168 -503z
m10660 224 c207 -115 411 -238 411 -248 0 -24 -129 -130 -199 -163 -64 -31
-84 -36 -150 -36 -99 0 -162 27 -229 98 -87 93 -129 211 -139 400 l-6 118 99
-53 c54 -29 150 -81 213 -116z m-11419 72 c0 -232 -92 -425 -233 -491 -100
-46 -190 -41 -306 17 -63 31 -187 142 -177 158 5 8 176 111 385 231 95 55 314
170 324 170 4 0 7 -38 7 -85z m-1117 -840 l76 -120 -15 -85 c-19 -111 -28
-139 -77 -235 -125 -242 -416 -382 -693 -334 l-62 11 -106 134 c-58 73 -106
137 -105 141 1 18 444 369 708 562 l154 112 22 -33 c12 -18 56 -87 98 -153z
m13613 80 c255 -186 722 -556 717 -571 -7 -25 -212 -268 -232 -276 -52 -20
-193 -21 -281 -4 -269 55 -455 236 -520 509 -32 132 -31 133 73 299 50 81 93
147 95 148 1 0 68 -47 148 -105z m-14454 -1198 l348 -442 -38 -35 c-21 -19
-101 -91 -177 -160 -77 -69 -237 -222 -355 -340 l-215 -215 -75 0 c-100 0
-166 32 -249 120 -119 128 -175 297 -175 530 0 158 17 263 66 408 47 141 64
167 186 281 174 163 323 296 330 295 4 0 163 -199 354 -442z m15532 314 c77
-71 180 -166 227 -212 83 -80 88 -88 119 -174 71 -199 96 -349 87 -525 -13
-264 -131 -491 -296 -569 -45 -21 -70 -26 -131 -25 l-75 0 -245 245 c-135 134
-312 302 -392 373 l-147 129 73 91 c39 50 197 250 350 444 152 193 280 352
283 352 3 0 69 -58 147 -129z m-16580 -568 c-65 -281 -21 -607 111 -818 81
-130 217 -233 335 -253 l42 -7 -84 -95 c-127 -143 -288 -338 -414 -501 -107
-138 -117 -147 -170 -168 -125 -47 -247 -17 -326 82 -212 268 -208 828 8 1258
39 80 60 104 274 323 128 130 233 236 235 236 1 0 -4 -26 -11 -57z m17570
-415 c87 -113 179 -381 206 -602 15 -119 8 -342 -14 -442 -42 -194 -122 -325
-230 -381 -44 -22 -59 -25 -125 -21 -120 7 -149 28 -276 192 -110 142 -300
371 -418 506 -37 41 -67 78 -67 81 0 4 17 9 38 13 76 12 175 72 250 151 186
195 263 539 197 880 -8 44 -15 85 -15 90 1 14 400 -397 454 -467z m-18319
-368 c-47 -178 -63 -474 -36 -645 56 -345 243 -575 467 -575 31 0 54 -3 52 -7
-1 -5 -80 -123 -173 -263 -158 -236 -321 -500 -410 -662 -31 -58 -48 -75 -110
-117 -118 -79 -170 -95 -300 -96 -104 0 -113 2 -177 33 -230 112 -366 432
-329 771 13 125 51 281 82 344 93 185 420 659 630 914 85 103 312 361 316 359
1 -1 -4 -26 -12 -56z m18777 -129 c246 -277 500 -624 716 -977 109 -177 147
-327 146 -569 -1 -132 -5 -174 -23 -240 -53 -196 -168 -352 -307 -417 -133
-62 -296 -48 -439 37 -87 52 -114 84 -201 235 -109 191 -262 435 -408 650
l-126 185 73 6 c85 7 132 25 204 80 230 173 322 639 219 1101 l-24 102 32 -36
c17 -19 79 -90 138 -157z m-19902 -1826 c11 -44 43 -127 71 -184 44 -89 63
-116 137 -190 95 -95 166 -139 272 -166 82 -22 228 -16 315 12 l60 19 -116
-235 c-64 -130 -154 -321 -199 -426 -90 -208 -100 -224 -209 -338 -214 -224
-441 -308 -606 -225 -108 55 -199 188 -247 363 -19 70 -22 105 -22 275 0 165
3 211 23 300 45 213 116 389 344 854 l132 269 12 -124 c7 -68 21 -160 33 -204z
m21056 49 c244 -502 318 -696 354 -934 14 -97 15 -315 0 -405 -34 -212 -135
-382 -265 -445 -68 -34 -202 -34 -286 -1 -118 45 -247 144 -364 277 -63 73
-78 99 -144 250 -41 93 -132 288 -202 433 -71 145 -129 265 -129 266 0 1 26
-7 58 -18 71 -24 218 -33 293 -18 166 35 319 157 418 333 68 120 121 330 121
478 l0 65 27 -45 c14 -25 68 -131 119 -236z m-21730 -1357 c87 -549 498 -757
914 -464 35 25 66 45 67 43 2 -2 -12 -43 -30 -92 -88 -230 -259 -780 -323
-1037 -14 -57 -29 -84 -88 -160 -297 -385 -621 -553 -859 -444 -183 84 -275
343 -222 624 46 242 299 1076 471 1553 37 102 50 127 52 105 1 -17 9 -74 18
-128z m22334 -101 c129 -368 269 -817 381 -1231 46 -170 52 -204 56 -320 6
-150 -8 -228 -57 -325 -41 -82 -87 -130 -162 -171 -61 -33 -67 -34 -168 -34
-93 1 -114 4 -182 32 -42 17 -117 57 -165 89 -165 110 -407 380 -437 487 -8
29 -40 144 -71 257 -54 195 -202 656 -265 823 -16 42 -23 74 -17 70 7 -5 46
-30 87 -57 204 -135 425 -153 590 -48 106 67 199 195 252 344 31 88 58 224 58
297 1 64 6 52 100 -213z m-422 -2045 c190 -143 410 -208 584 -172 140 29 274
135 341 270 20 40 39 67 42 60 17 -49 169 -788 163 -794 -2 -2 -275 21 -608
51 -333 29 -610 54 -615 54 -6 0 -21 72 -33 163 -19 136 -81 482 -98 552 -3
13 25 -8 76 -56 44 -43 111 -101 148 -128z m-21413 14 c-19 -99 -46 -261 -60
-360 -15 -99 -28 -181 -29 -182 -3 -4 -1230 -112 -1233 -110 -5 6 144 727 164
792 5 16 10 10 28 -30 54 -122 172 -234 293 -277 115 -42 275 -34 412 19 124
48 287 162 399 277 30 30 56 54 57 53 2 -2 -12 -84 -31 -182z m-115 -1004 c0
-248 -2 -257 -65 -334 -99 -120 -265 -205 -442 -227 -274 -35 -563 88 -649
274 -28 62 -74 341 -58 355 5 4 227 27 494 51 267 23 521 46 565 50 44 4 97 8
118 9 l37 1 0 -179z m22065 128 c330 -29 603 -55 606 -58 4 -3 -4 -74 -16
-157 -26 -180 -45 -226 -129 -309 -113 -111 -269 -167 -471 -168 -96 -1 -136
4 -200 22 -111 31 -209 85 -287 160 -113 106 -111 100 -116 348 -3 119 -1 213
4 213 5 1 279 -23 609 -51z m-410 -742 c81 -40 209 -76 311 -88 195 -21 419
31 572 134 52 35 52 36 52 12 0 -69 -64 -463 -80 -495 -40 -77 -141 -146 -251
-170 -75 -17 -248 -8 -318 15 -89 31 -153 75 -193 135 -78 115 -199 389 -232
523 l-6 27 47 -34 c27 -18 71 -45 98 -59z m-22630 -13 c171 -79 395 -100 579
-55 95 23 238 85 293 127 19 14 37 24 39 21 12 -12 -72 -234 -141 -373 -91
-182 -123 -222 -215 -268 -93 -46 -161 -59 -289 -54 -159 7 -265 56 -335 155
-27 38 -32 61 -62 275 -19 128 -34 241 -34 251 0 15 7 13 46 -14 25 -17 79
-46 119 -65z m141 -729 c56 -13 107 -16 194 -13 l119 4 -29 -35 c-16 -20 -58
-61 -94 -91 -63 -52 -71 -65 -183 -277 l-118 -221 -17 121 c-31 219 -78 573
-78 583 0 6 29 -4 65 -22 35 -18 99 -40 141 -49z m23324 58 c0 -28 -89 -676
-93 -680 -3 -2 -53 90 -113 204 l-109 208 -103 100 -104 100 154 0 c141 0 159
2 234 28 45 15 90 34 100 42 25 19 34 19 34 -2z m1257 -570 c72 -101 166 -327
208 -501 l18 -74 -43 -43 c-50 -51 -131 -96 -214 -120 -45 -13 -84 -16 -156
-13 -82 4 -107 10 -168 38 -85 39 -160 112 -197 192 -25 52 -25 56 -25 343 l0
290 39 90 c21 50 51 129 66 176 l26 86 206 -209 c114 -114 221 -229 240 -255z
m-25573 392 c10 -36 38 -114 62 -173 l44 -107 0 -293 0 -293 -26 -52 c-35 -69
-71 -112 -130 -153 -128 -91 -336 -99 -495 -19 -52 27 -123 86 -139 115 -25
47 119 441 209 575 21 31 442 465 451 465 3 0 14 -29 24 -65z m312 -802 c43
-280 130 -793 184 -1088 22 -121 40 -225 40 -232 0 -7 -10 -13 -22 -13 -39 0
-107 -41 -148 -88 -31 -37 -40 -43 -40 -27 0 11 -7 103 -15 205 -33 417 -65
1091 -65 1380 0 124 1 133 15 112 10 -13 30 -112 51 -249z m24541 -60 c-8
-406 -47 -1133 -73 -1351 l-6 -52 -41 46 c-42 48 -104 83 -144 84 -13 0 -23 2
-23 5 0 3 25 141 55 308 61 339 129 744 175 1041 28 184 41 236 57 236 3 0 3
-143 0 -317z m-21422 235 c7 -7 40 -93 74 -191 61 -177 61 -178 38 -186 -134
-49 -1717 -591 -1727 -591 -20 0 -7 54 44 173 144 336 376 569 696 701 130 53
272 86 480 110 19 2 113 3 209 1 129 -2 177 -7 186 -17z m18806 -7 c490 -86
840 -368 1023 -825 36 -89 45 -136 26 -136 -11 0 -1732 591 -1740 597 -5 4 83
276 111 340 18 41 19 42 76 46 128 10 389 -2 504 -22z m-21401 -1121 c169
-470 304 -859 300 -863 -4 -4 -63 -17 -130 -28 -68 -11 -143 -28 -166 -39 -40
-17 -44 -17 -48 -2 -8 27 -131 674 -175 917 -31 172 -108 625 -155 920 l-5 30
36 -40 c31 -35 71 -138 343 -895z m23755 584 c-79 -475 -262 -1469 -280 -1521
-3 -9 -16 -7 -47 7 -24 10 -96 28 -162 39 -65 10 -123 24 -128 29 -6 6 98 311
295 860 244 682 311 859 338 891 18 23 34 39 36 37 2 -2 -21 -156 -52 -342z
m-2130 -289 c429 -148 781 -269 783 -270 25 -18 -165 -122 -308 -169 -158 -52
-272 -69 -460 -70 -142 0 -196 4 -286 22 -135 27 -265 69 -406 132 -110 49
-336 180 -398 230 l-35 29 54 163 c29 90 62 186 73 214 l19 52 92 -33 c51 -18
443 -153 872 -300z m-18776 113 c39 -116 68 -214 64 -217 -152 -116 -441 -268
-615 -325 -183 -60 -309 -80 -503 -80 -192 0 -284 14 -455 70 -163 53 -333
145 -310 168 9 8 1714 595 1731 595 12 1 34 -52 88 -211z m1025 12 c94 -33
105 -42 225 -195 317 -401 621 -868 910 -1398 l43 -78 -74 45 c-159 96 -328
143 -483 133 -49 -4 -112 -13 -138 -21 -145 -46 -286 -159 -367 -294 -44 -76
-110 -248 -110 -291 0 -16 -4 -21 -9 -15 -19 18 -571 1646 -571 1681 0 52 27
148 62 216 59 118 178 212 298 236 57 12 149 4 214 -19z m15891 19 c85 -16
162 -58 226 -125 66 -70 101 -139 130 -253 l21 -83 -288 -839 c-158 -461 -290
-836 -293 -834 -2 3 -13 38 -23 78 -34 133 -121 289 -210 374 -64 61 -157 117
-240 144 -61 20 -92 24 -193 23 -81 0 -141 -6 -185 -18 -71 -19 -232 -92 -281
-127 -16 -11 -32 -19 -34 -17 -12 12 313 569 489 838 164 249 414 591 555 758
25 29 95 60 174 77 79 17 82 17 152 4z m-18777 -1156 c116 -340 213 -624 214
-631 2 -8 -66 -42 -181 -92 -102 -44 -185 -79 -186 -77 -1 1 -97 269 -214 596
-176 491 -210 596 -199 606 16 16 339 215 348 215 4 0 102 -278 218 -617z
m21863 504 c93 -56 168 -106 169 -112 0 -5 -95 -276 -211 -602 -182 -510 -214
-591 -228 -585 -143 57 -351 149 -351 157 0 6 95 290 212 632 164 481 216 622
227 618 8 -3 90 -52 182 -108z m-23477 -537 c9 -88 52 -499 62 -582 16 -134
-103 -326 -246 -396 -48 -23 -67 -27 -147 -27 -133 0 -140 7 -175 166 -43 191
-199 971 -196 974 2 2 37 -8 78 -22 141 -47 304 -28 430 52 25 15 72 56 105
90 l60 62 11 -121 c6 -67 15 -155 18 -196z m24824 207 c154 -128 353 -154 546
-72 17 8 18 5 12 -31 -36 -206 -212 -1060 -222 -1075 -2 -4 -24 -15 -48 -24
-63 -24 -175 -17 -239 14 -101 49 -194 160 -237 284 l-20 57 30 267 c16 148
36 349 45 448 8 99 18 195 21 213 l5 33 30 -38 c17 -21 52 -55 77 -76z
m-24488 13 c25 -14 31 -36 95 -357 30 -156 80 -398 110 -540 30 -141 55 -260
55 -265 0 -4 -15 -8 -32 -8 -87 -1 -179 -80 -239 -204 -22 -44 -39 -77 -39
-73 0 4 -15 123 -34 264 -38 288 -36 273 -72 581 -22 195 -24 233 -14 300 22
140 71 261 122 297 27 18 24 18 48 5z m24083 -30 c44 -52 74 -131 95 -250 15
-94 15 -101 -12 -340 -29 -263 -92 -760 -101 -798 -5 -20 -11 -13 -40 45 -19
38 -51 88 -71 112 -42 49 -122 91 -173 91 -29 0 -33 3 -28 23 20 79 126 588
173 827 44 224 60 290 77 308 28 31 40 28 80 -18z m-20578 -158 c14 -7 38 -63
80 -186 33 -96 57 -177 54 -181 -4 -3 -395 -140 -870 -304 l-864 -299 -11 27
c-15 32 9 100 87 252 125 244 300 419 539 543 156 80 305 126 495 151 116 16
460 14 490 -3z m17445 8 c565 -62 961 -355 1154 -855 22 -57 25 -75 17 -98
l-10 -27 -53 20 c-29 10 -419 145 -867 300 -448 154 -817 282 -819 285 -5 5
104 333 118 355 4 7 28 16 52 20 74 11 308 11 408 0z m-20129 -769 c127 -353
157 -447 147 -458 -26 -32 -103 -66 -211 -92 -127 -32 -168 -50 -214 -94 -24
-23 -34 -27 -37 -16 -6 17 -28 115 -100 444 -100 457 -119 553 -112 579 11 45
57 66 185 87 65 10 129 23 142 28 20 7 25 5 32 -13 5 -11 80 -221 168 -465z
m22691 453 c57 -8 118 -20 135 -25 41 -13 73 -53 73 -90 0 -38 -206 -996 -217
-1008 -2 -3 -18 9 -36 26 -45 43 -104 71 -189 88 -40 9 -95 23 -121 31 -51 17
-117 67 -117 89 0 12 316 900 326 917 3 4 14 4 24 -2 10 -5 65 -17 122 -26z
m-19750 -402 c39 -111 67 -209 64 -217 -6 -18 -166 -124 -281 -187 -244 -134
-465 -204 -724 -230 -261 -25 -554 34 -793 159 -64 33 -91 65 -71 83 11 11
1716 599 1727 596 5 -1 40 -93 78 -204z m17421 -86 c468 -162 860 -297 869
-301 14 -6 15 -11 5 -33 -9 -19 -41 -39 -122 -78 -356 -169 -737 -186 -1145
-52 -52 18 -162 66 -245 108 -145 73 -353 202 -361 225 -3 6 20 83 50 170 82
239 88 255 92 255 2 0 388 -132 857 -294z m-20921 -345 c39 -31 54 -78 123
-381 36 -157 97 -415 136 -573 39 -159 69 -290 66 -293 -2 -2 -16 0 -31 6 -15
5 -53 10 -85 10 -106 0 -191 -61 -259 -187 l-30 -56 -11 54 c-36 180 -133 730
-146 829 -8 61 11 240 35 337 35 139 116 273 164 273 8 0 24 -9 38 -19z
m23571 -10 c100 -89 177 -407 149 -618 -13 -94 -138 -795 -148 -827 -5 -16
-12 -9 -32 33 -60 122 -155 191 -261 191 -33 0 -72 -5 -87 -10 -15 -6 -28 -9
-30 -7 -2 2 32 150 76 328 43 178 106 442 139 587 59 257 80 319 119 342 27
15 39 12 75 -19z m-22568 -851 c125 -349 229 -638 231 -642 9 -14 -61 -48
-181 -88 -66 -22 -143 -53 -170 -69 -72 -41 -148 -113 -194 -182 -31 -48 -40
-57 -45 -42 -37 123 -234 899 -310 1220 l-36 151 20 54 c22 58 68 110 113 128
16 5 68 19 115 29 89 20 161 47 197 74 11 9 23 13 26 9 4 -4 109 -293 234
-642z m21944 559 c63 -14 119 -33 145 -50 53 -33 91 -104 89 -169 -1 -71 -328
-1370 -344 -1370 -4 0 -21 22 -39 50 -42 66 -132 148 -205 187 -33 17 -109 48
-170 68 -125 42 -165 61 -165 77 0 8 417 1181 457 1284 3 9 21 4 66 -21 38
-20 102 -42 166 -56z m-19124 -298 c28 -7 32 -16 93 -194 36 -103 63 -189 61
-191 -15 -12 -1732 -597 -1737 -591 -10 9 43 156 90 250 133 267 326 461 582
585 184 89 362 135 586 148 118 8 280 4 325 -7z m16345 -11 c512 -91 860 -370
1044 -836 33 -83 44 -134 31 -134 -8 0 -1716 590 -1726 595 -8 6 107 363 123
380 22 24 386 21 528 -5z m-18239 -905 c115 -335 206 -612 202 -616 -26 -25
-307 -189 -313 -182 -12 14 -442 1223 -438 1234 4 12 319 179 332 176 4 -2
102 -277 217 -612z m20021 528 c126 -66 167 -92 162 -103 -3 -8 -102 -285
-220 -615 -119 -330 -219 -603 -223 -607 -3 -4 -77 35 -163 88 l-157 95 105
307 c273 796 314 915 314 919 0 8 24 -3 182 -84z m-16463 -20 c116 -31 237
-110 354 -227 l67 -68 74 -227 c115 -351 249 -817 311 -1082 l18 -77 -37 -108
c-105 -306 -261 -472 -486 -520 -216 -45 -480 63 -705 291 -149 151 -138 128
-337 706 l-179 521 21 77 c29 105 127 303 199 398 204 271 455 384 700 316z
m12863 -22 c91 -39 178 -102 268 -197 88 -92 144 -174 205 -299 44 -91 95
-232 95 -265 0 -10 -79 -249 -176 -532 -198 -575 -187 -553 -343 -708 -137
-136 -273 -222 -422 -268 -341 -105 -626 88 -769 519 l-32 96 55 214 c78 299
172 625 267 916 l81 248 94 92 c178 174 346 243 539 220 38 -4 100 -21 138
-36z m-14307 -138 c70 -201 125 -368 125 -378 0 -17 -190 -140 -315 -204 -293
-151 -541 -209 -847 -198 -168 6 -242 18 -388 64 -90 29 -322 141 -327 159 -3
9 1690 602 1724 603 6 1 19 -20 28 -46z m16293 -248 c471 -163 858 -298 861
-301 10 -10 -27 -34 -124 -82 -126 -63 -214 -94 -346 -124 -91 -20 -130 -23
-309 -23 -226 1 -316 14 -502 76 -161 53 -448 204 -592 310 -11 8 132 439 146
439 6 0 396 -133 866 -295z m-20524 -231 c36 -175 83 -399 105 -497 l40 -179
-20 -54 c-41 -110 -158 -185 -261 -170 -64 10 -76 22 -98 101 -10 39 -59 216
-108 395 -49 179 -106 385 -125 457 l-35 133 26 -8 c15 -4 65 -7 112 -7 73 0
93 4 143 29 32 15 79 49 105 76 26 26 48 46 49 45 2 -1 32 -145 67 -321z
m24110 188 c63 -24 174 -30 222 -12 15 6 28 9 30 7 5 -4 -239 -910 -282 -1045
-2 -7 -21 -20 -41 -29 -71 -29 -175 0 -239 69 -40 42 -74 109 -74 145 0 15 25
141 55 278 30 138 75 357 101 487 l47 238 62 -58 c40 -38 81 -65 119 -80z
m-23627 59 c87 -63 98 -86 178 -388 41 -153 92 -340 113 -415 22 -76 38 -138
37 -138 -1 0 -24 10 -51 22 -39 18 -68 22 -139 23 -117 0 -173 -24 -249 -105
l-53 -58 -57 251 c-73 325 -75 343 -65 461 14 159 58 279 126 344 46 43 103
45 160 3z m23057 -2 c78 -68 128 -224 129 -404 1 -99 -4 -132 -51 -340 -29
-126 -58 -249 -64 -273 l-11 -43 -29 40 c-56 77 -169 131 -272 131 -28 0 -81
-11 -118 -24 -38 -12 -68 -20 -68 -18 0 3 18 69 39 146 22 78 72 260 111 406
76 286 89 316 169 376 60 46 115 47 165 3z m-22050 -291 c9 -24 90 -250 181
-502 114 -320 161 -463 154 -472 -18 -22 -106 -54 -232 -83 -221 -53 -300 -92
-394 -194 l-49 -55 -11 37 c-6 20 -63 216 -127 436 l-117 400 22 58 c28 75 81
162 127 210 57 59 117 92 244 136 65 22 130 47 145 55 39 21 39 21 57 -26z
m20939 26 c17 -10 83 -34 145 -55 128 -43 180 -70 234 -123 51 -50 89 -108
128 -198 l34 -78 -67 -232 c-36 -128 -94 -326 -128 -440 l-62 -208 -33 43
c-43 55 -116 110 -188 142 -31 14 -129 43 -217 64 -94 23 -178 50 -204 65
l-44 26 28 78 c16 42 97 269 181 505 84 235 155 427 157 427 2 0 18 -7 36 -16z
m-21719 -785 c53 -19 146 -92 166 -129 5 -10 51 -155 101 -322 76 -256 140
-460 156 -504 2 -7 -25 -10 -79 -10 -72 1 -91 -3 -143 -28 -78 -38 -170 -132
-215 -218 -19 -37 -38 -64 -41 -60 -12 12 -184 641 -229 835 -74 319 58 521
284 436z m22622 2 c85 -39 127 -128 126 -271 0 -81 -8 -124 -50 -290 -46 -179
-153 -572 -185 -680 l-13 -45 -35 65 c-93 176 -268 283 -407 252 -36 -9 -43
-8 -38 4 10 26 164 527 207 674 46 158 64 190 139 245 89 65 178 81 256 46z
m-18697 -59 l54 -7 65 -193 c35 -106 62 -195 60 -197 -4 -4 -1676 -583 -1711
-593 -15 -4 -13 7 14 84 207 586 691 909 1364 912 55 0 124 -3 154 -6z m15065
-22 c505 -86 860 -381 1040 -864 21 -54 35 -100 33 -103 -4 -4 -1717 584
-1725 592 -2 2 26 91 63 199 l67 195 52 4 c106 9 353 -3 470 -23z m-17642
-749 l169 -474 -28 -29 c-65 -69 -148 -98 -343 -123 -172 -22 -241 -41 -310
-86 l-58 -37 -46 131 c-75 213 -226 690 -226 712 0 30 53 115 101 164 60 60
137 94 298 132 75 17 163 44 196 59 33 16 64 27 69 26 4 -1 84 -215 178 -475z
m20005 444 c34 -14 112 -37 174 -51 242 -54 318 -103 393 -251 l26 -52 -136
-413 c-75 -227 -138 -416 -141 -420 -2 -4 -22 6 -44 22 -63 45 -135 67 -291
90 -79 11 -165 25 -193 31 -62 14 -154 62 -189 98 l-26 27 172 477 c104 289
176 476 182 473 6 -3 39 -16 73 -31z m-17121 -425 l73 -215 -24 -21 c-39 -36
-239 -152 -348 -204 -392 -185 -803 -218 -1172 -96 -78 26 -282 121 -318 148
-17 13 74 46 840 311 472 163 862 295 867 294 5 -2 42 -100 82 -217z m14838
-46 c424 -147 811 -280 860 -297 104 -35 106 -31 -44 -107 -120 -60 -243 -104
-373 -132 -148 -32 -416 -32 -573 0 -246 49 -502 159 -731 313 l-72 49 75 216
c40 118 74 217 74 220 0 2 3 4 7 4 3 0 353 -120 777 -266z m-19233 -559 c39
-132 97 -325 130 -428 32 -103 59 -197 59 -208 0 -33 -59 -109 -108 -140 -59
-38 -139 -40 -189 -5 -5 4 -313 974 -313 988 0 3 31 8 68 10 84 6 157 43 211
104 l36 42 18 -61 c10 -34 50 -170 88 -302z m23010 244 c34 -18 61 -23 117
-23 43 -1 71 -5 68 -11 -2 -5 -36 -113 -75 -240 -183 -584 -240 -750 -262
-763 -29 -19 -111 -17 -148 3 -40 20 -106 90 -122 127 -11 26 -4 52 59 256 86
274 222 739 222 759 0 8 22 -8 48 -35 27 -28 69 -60 93 -73z m-22445 52 c81
-37 87 -49 214 -421 64 -190 138 -403 164 -474 25 -71 44 -131 42 -134 -3 -2
-19 0 -36 6 -92 33 -214 21 -312 -29 -52 -27 -139 -113 -166 -165 l-20 -39
-10 25 c-20 53 -192 588 -212 660 -24 88 -26 211 -5 289 33 127 113 237 200
277 60 29 87 29 141 5z m21757 7 c135 -41 261 -281 243 -464 -6 -62 -51 -214
-173 -588 l-68 -210 -33 51 c-107 167 -299 239 -473 179 -22 -8 -39 -12 -39
-10 0 3 36 105 80 228 43 122 117 337 164 477 82 242 88 256 127 292 59 53
105 65 172 45z m-20411 -828 l160 -445 -24 -45 c-30 -58 -130 -164 -185 -197
-52 -30 -110 -49 -218 -69 -101 -20 -160 -45 -206 -90 -20 -20 -39 -32 -42
-26 -13 19 -201 514 -297 778 l-100 276 22 42 c35 61 100 93 235 111 253 35
343 60 430 118 46 31 48 32 56 12 5 -11 81 -220 169 -465z m19188 444 c76 -48
157 -71 354 -99 196 -28 245 -47 291 -113 l29 -43 -23 -67 c-94 -266 -366
-988 -377 -1001 -2 -2 -15 10 -29 27 -37 44 -95 68 -231 98 -65 14 -142 37
-171 51 -70 32 -143 100 -198 183 l-45 68 166 466 c92 256 170 466 173 466 3
0 31 -16 61 -36z m-18660 -97 c0 -1 94 -277 209 -612 116 -336 207 -613 203
-616 -7 -6 -247 -74 -285 -81 -16 -3 -48 79 -232 592 -118 327 -213 595 -212
596 10 5 304 122 310 123 4 1 7 0 7 -2z m18060 -61 c79 -31 146 -58 147 -60 5
-4 -416 -1179 -425 -1187 -4 -4 -74 13 -157 36 -108 30 -149 46 -147 56 15 67
419 1218 427 1215 5 -2 75 -29 155 -60z m-14246 -427 c9 -103 19 -258 22 -345
l6 -159 -32 -90 c-93 -260 -221 -405 -361 -405 -112 0 -242 73 -375 212 -151
157 -147 151 -292 573 -72 209 -130 381 -128 382 2 2 34 -17 72 -43 163 -109
295 -155 469 -161 143 -6 223 10 332 63 78 39 181 127 228 194 l30 43 7 -39
c4 -21 14 -123 22 -225z m10380 153 c54 -59 164 -130 249 -160 104 -37 277
-42 401 -13 103 25 223 78 321 144 38 26 70 45 72 43 9 -9 -258 -762 -284
-799 -15 -23 -82 -96 -148 -163 -101 -102 -132 -127 -199 -160 -151 -74 -260
-55 -366 64 -56 63 -123 194 -165 321 l-28 85 12 205 c7 113 19 274 27 356 7
83 14 159 14 170 1 17 6 14 28 -15 15 -19 45 -54 66 -78z m-11892 -68 l57 -6
39 -111 c56 -159 86 -256 81 -260 -2 -2 -341 -120 -754 -262 -412 -142 -798
-275 -857 -295 l-108 -38 -12 40 c-14 47 -8 69 63 211 176 354 463 583 856
681 194 48 420 63 635 40z m13698 1 c541 -60 938 -351 1133 -832 22 -53 24
-67 14 -98 -5 -19 -15 -35 -21 -35 -10 -1 -1706 580 -1715 586 -1 2 25 86 59
188 l61 185 52 5 c116 13 304 13 417 1z m-17501 -296 c80 -34 150 -117 191
-225 24 -67 194 -492 247 -623 5 -10 0 -10 -23 2 -53 27 -146 40 -203 28 -139
-30 -225 -121 -274 -291 l-24 -82 -78 204 c-43 111 -109 291 -148 398 -70 192
-71 196 -72 295 0 90 3 106 28 157 71 145 213 199 356 137z m21080 15 c65 -19
133 -79 169 -149 21 -41 26 -67 30 -145 4 -93 3 -98 -46 -235 -131 -365 -241
-655 -254 -670 -4 -5 -8 0 -8 12 0 42 -41 151 -79 210 -87 135 -237 182 -393
123 l-47 -18 15 37 c9 20 67 167 130 326 63 160 123 309 134 332 38 82 117
152 203 179 56 17 84 17 146 -2z m-16975 -442 c36 -107 66 -200 66 -207 0 -8
-40 -40 -89 -73 -378 -253 -721 -363 -1091 -349 -226 9 -398 50 -580 140 -73
36 -86 47 -94 75 -5 18 -7 34 -5 35 2 2 389 136 859 298 528 182 857 291 861
284 4 -5 36 -97 73 -203z m13625 -83 c465 -161 849 -295 852 -298 4 -3 0 -21
-8 -39 -11 -28 -28 -40 -96 -72 -123 -58 -251 -98 -389 -121 -104 -18 -148
-20 -288 -16 -259 9 -431 53 -689 178 -130 63 -391 222 -391 238 0 5 120 369
135 409 2 6 9 12 16 12 6 0 392 -131 858 -291z m2104 100 c76 -61 159 -97 292
-125 171 -36 196 -53 214 -150 9 -47 7 -56 -49 -189 -130 -313 -386 -875 -399
-875 -3 1 -17 24 -30 53 -37 80 -163 198 -301 282 -126 77 -210 140 -210 156
0 9 261 745 332 936 l19 53 40 -50 c22 -27 63 -68 92 -91z m-18461 -356 l176
-488 -42 -40 c-24 -22 -101 -76 -172 -119 -149 -92 -253 -189 -299 -278 -17
-32 -33 -58 -36 -58 -3 0 -22 35 -42 78 -19 42 -74 162 -122 267 -171 374
-285 650 -285 691 1 55 32 120 68 138 17 9 84 27 149 41 165 35 247 76 343
175 41 43 77 78 80 79 3 0 85 -218 182 -486z m-1045 -198 c65 -19 159 -89 210
-157 22 -29 78 -136 123 -238 46 -102 130 -283 187 -403 56 -121 103 -220 103
-222 0 -2 -26 -1 -58 2 -194 18 -391 -132 -462 -350 -7 -22 -15 -35 -20 -30
-8 9 -179 398 -265 601 -70 168 -85 228 -92 382 -8 186 22 303 96 377 51 51
99 61 178 38z m20395 -20 c79 -52 119 -167 119 -345 0 -206 -17 -263 -211
-705 -48 -110 -102 -231 -120 -270 l-32 -70 -22 61 c-33 90 -67 142 -133 205
-96 92 -213 137 -325 125 -32 -3 -58 -3 -58 -1 0 3 23 51 51 106 53 106 202
427 285 613 109 245 309 371 446 281z m-20963 -193 c46 -119 124 -315 174
-435 l89 -218 -16 -42 c-55 -143 -137 -180 -255 -117 -103 56 -102 54 -167
237 -75 210 -214 605 -214 608 0 1 24 5 54 8 29 3 71 14 93 26 39 19 143 123
143 142 0 35 26 -19 99 -209z m21574 94 c41 -31 108 -56 153 -56 19 0 34 -4
34 -8 0 -7 -74 -218 -236 -672 -37 -104 -58 -129 -148 -175 -115 -58 -202 -15
-251 124 -14 42 -14 44 24 134 69 163 131 317 212 527 44 113 84 215 89 228
10 23 11 22 50 -26 21 -28 54 -62 73 -76z m-19554 -818 c94 -262 171 -479 171
-482 0 -7 -85 -32 -167 -50 -153 -34 -245 -85 -293 -165 -14 -23 -27 -41 -30
-41 -8 0 -114 195 -270 494 l-83 158 6 67 c11 148 84 253 250 358 50 32 123
79 161 105 39 26 74 44 78 40 3 -4 83 -222 177 -484z m17566 460 c24 -18 92
-62 150 -98 198 -120 269 -217 289 -395 4 -35 -8 -63 -98 -240 -128 -249 -246
-465 -255 -465 -3 0 -15 16 -26 36 -43 80 -130 129 -297 170 -168 41 -168 41
-158 72 4 15 80 230 169 477 89 248 163 456 166 463 6 17 11 16 60 -20z
m-14953 -135 l107 -17 71 -209 c39 -116 68 -212 66 -215 -7 -6 23 0 -1211
-237 -302 -58 -558 -107 -568 -109 -39 -9 113 242 226 374 297 349 771 498
1309 413z m12660 3 c394 -64 709 -283 920 -642 60 -102 83 -155 66 -149 -7 2
-251 50 -543 105 -291 56 -609 116 -705 135 -96 19 -255 49 -353 68 -98 19
-180 37 -182 39 -6 5 133 409 143 420 7 7 176 34 257 41 85 7 304 -2 397 -17z
m-14505 -780 c79 -230 142 -421 139 -423 -10 -10 -271 -72 -277 -65 -3 4 -48
124 -99 267 -50 143 -118 332 -150 420 -36 101 -54 161 -46 163 145 36 255 60
270 58 16 -1 43 -71 163 -420z m16099 393 c77 -17 140 -32 141 -33 2 -2 -28
-88 -65 -192 -38 -104 -106 -295 -152 -424 -46 -129 -84 -236 -86 -238 -2 -4
-274 64 -279 70 -4 3 95 297 241 716 25 72 50 132 54 132 4 0 70 -14 146 -31z
m-17689 -183 c78 -37 116 -85 230 -297 236 -438 480 -843 701 -1163 l76 -109
-106 6 c-299 18 -636 105 -866 221 l-51 26 -170 342 c-175 353 -215 450 -226
553 -14 121 29 256 106 340 91 98 204 128 306 81z m19188 -6 c132 -64 217
-235 202 -408 -10 -111 -40 -187 -225 -554 l-177 -353 -60 -29 c-238 -114
-562 -195 -849 -213 l-106 -6 124 184 c234 349 413 647 633 1054 145 267 182
313 283 346 39 13 127 2 175 -21z m-15385 -213 c38 -114 70 -209 70 -212 0 -9
-194 -102 -314 -150 -138 -55 -340 -108 -480 -125 -147 -19 -393 -8 -526 23
-186 44 -358 120 -516 229 -77 53 -111 84 -101 94 6 6 1789 353 1794 349 1 -1
34 -94 73 -208z m12358 34 c479 -92 875 -171 879 -174 18 -19 -115 -116 -270
-198 -99 -52 -257 -108 -377 -134 -104 -22 -373 -31 -495 -16 -111 15 -264 50
-374 87 -172 59 -425 179 -418 199 2 5 34 99 72 208 59 173 70 197 89 197 11
-1 414 -76 894 -169z m-14909 -777 c111 -309 201 -566 201 -571 0 -11 -45 -17
-190 -29 l-85 -6 -106 153 c-135 195 -229 340 -358 554 l-103 169 6 54 c8 71
38 126 84 157 46 30 333 106 343 90 4 -5 97 -263 208 -571z m16847 541 c184
-46 218 -68 249 -154 30 -85 23 -111 -67 -260 -116 -193 -264 -423 -380 -588
-87 -126 -102 -143 -127 -143 -38 0 -245 21 -250 25 -2 2 90 265 205 585 170
475 211 580 223 574 9 -3 75 -21 147 -39z"/>
<path d="M6512 19878 c10 -35 46 -148 79 -253 33 -104 65 -205 71 -223 8 -28
23 -39 107 -82 209 -104 414 -157 576 -147 203 13 342 106 431 291 l33 68 -65
122 c-36 66 -84 158 -107 204 l-41 82 -552 0 -552 0 20 -62z"/>
<path d="M9382 19895 l-21 -44 37 -7 c249 -43 467 -146 630 -298 80 -75 134
-147 189 -251 26 -50 44 -74 47 -65 18 50 216 691 216 700 0 7 -169 10 -538
10 l-538 0 -22 -45z"/>
<path d="M10741 19933 c0 -5 37 -123 82 -262 l82 -255 88 -67 c110 -83 248
-160 352 -195 64 -22 99 -27 175 -28 88 -1 100 1 162 32 77 38 138 100 186
190 l32 60 0 266 0 266 -580 0 c-319 0 -580 -3 -579 -7z"/>
<path d="M12490 19609 c0 -261 3 -330 13 -326 229 99 300 118 462 124 183 7
281 -15 409 -92 32 -19 62 -35 66 -35 4 0 13 19 19 43 6 23 51 171 100 330
l88 287 -578 0 -579 0 0 -331z"/>
<path d="M14830 19926 c42 -39 811 -706 814 -706 5 0 376 705 376 714 0 3
-271 6 -602 6 -512 0 -600 -2 -588 -14z"/>
<path d="M16056 19838 c-138 -260 -338 -643 -339 -652 -1 -6 14 -15 33 -22 19
-7 164 -58 321 -113 158 -56 290 -101 293 -101 3 0 6 223 6 495 l0 495 -129 0
-130 0 -55 -102z"/>
<path d="M16842 19878 c10 -35 40 -128 65 -208 24 -80 60 -194 78 -254 19 -59
36 -111 39 -113 3 -3 72 35 153 84 81 50 315 190 518 313 204 122 374 227 380
231 5 5 -268 9 -622 9 l-631 0 20 -62z"/>
<path d="M19224 19930 c-200 -20 -342 -71 -437 -159 -123 -114 -177 -213 -203
-371 -14 -86 -32 -670 -21 -670 3 0 20 26 37 58 115 217 313 319 515 267 101
-27 173 -72 278 -176 l97 -96 0 228 0 228 152 3 152 3 43 64 c65 98 86 161 87
261 1 70 -4 93 -23 133 -50 101 -160 178 -302 212 -81 19 -257 26 -375 15z"/>
<path d="M19791 19920 c66 -35 137 -108 170 -176 61 -124 50 -271 -31 -422
-22 -40 -40 -75 -40 -78 0 -2 49 -4 110 -4 104 0 110 -1 135 -26 14 -14 58
-41 98 -59 220 -101 467 -83 577 43 75 85 80 113 80 447 l0 295 -567 0 c-562
-1 -568 -1 -532 -20z"/>
<path d="M14484 19914 c-111 -18 -182 -47 -251 -100 -107 -82 -189 -201 -213
-308 -13 -60 -42 -307 -36 -313 2 -2 107 114 232 259 125 145 270 311 322 371
l94 107 -34 -1 c-18 -1 -70 -7 -114 -15z"/>
<path d="M14658 19848 c-296 -335 -649 -751 -642 -758 11 -10 891 -490 899
-490 3 0 5 144 5 320 l0 320 290 2 289 3 -357 311 c-196 171 -371 323 -389
338 l-31 26 -64 -72z"/>
<path d="M17638 19581 c-306 -185 -557 -339 -558 -342 0 -6 871 -566 896 -576
12 -4 14 40 14 283 l0 287 106 339 c58 187 105 340 103 342 -2 2 -255 -148
-561 -333z"/>
<path d="M9257 19658 c-336 -633 -393 -744 -383 -750 6 -4 29 -8 51 -8 52 0
173 -34 233 -64 149 -76 240 -217 241 -373 0 -32 -2 -204 -5 -384 l-6 -325 38
-11 c96 -28 168 -37 284 -37 101 -1 138 3 195 21 172 54 283 176 335 366 21
74 21 94 18 475 -4 391 -4 398 -30 494 -79 291 -261 496 -556 626 -74 33 -219
74 -303 87 l-47 7 -65 -124z"/>
<path d="M7819 19383 c-44 -77 -150 -181 -225 -221 -194 -101 -495 -78 -803
64 -41 19 -75 33 -77 31 -1 -1 1 -20 6 -42 5 -22 14 -79 20 -128 22 -182 96
-397 188 -551 71 -119 197 -248 286 -291 122 -60 211 -57 300 10 l46 36 0 67
c1 74 1 74 53 -7 27 -42 100 -71 198 -78 115 -9 184 38 231 159 17 41 22 82
26 185 6 185 -15 319 -80 523 -29 90 -121 300 -132 300 -2 0 -19 -26 -37 -57z"/>
<path d="M12846 19324 c-90 -17 -205 -57 -286 -97 l-65 -32 -3 -469 -2 -468
72 74 c167 170 320 237 521 226 102 -6 214 -43 297 -98 l45 -30 3 378 2 377
-32 28 c-50 41 -168 96 -245 112 -84 18 -215 18 -307 -1z"/>
<path d="M10956 19263 c5 -10 11 -191 14 -403 l5 -385 44 -60 c24 -33 87 -103
140 -156 223 -222 420 -242 600 -62 38 38 84 94 105 125 l36 57 0 433 0 434
-73 -72 c-89 -87 -151 -115 -278 -122 -66 -3 -105 1 -170 17 -96 24 -252 97
-353 165 -77 51 -82 53 -70 29z"/>
<path d="M20845 19129 c-88 -90 -240 -131 -404 -109 -97 13 -216 49 -278 86
l-43 25 0 -156 0 -155 385 0 385 0 0 175 c0 96 -1 175 -3 175 -2 0 -21 -18
-42 -41z"/>
<path d="M17050 18570 l0 -589 443 296 c243 163 446 299 450 303 5 4 -34 34
-85 67 -394 254 -800 513 -803 513 -3 0 -5 -265 -5 -590z"/>
<path d="M13983 18754 c7 -346 23 -458 78 -573 86 -175 281 -311 481 -336 l54
-7 153 333 c83 183 150 338 148 343 -4 9 -869 488 -910 505 -6 2 -8 -97 -4
-265z"/>
<path d="M18934 18986 c-134 -33 -245 -148 -314 -329 -60 -153 -61 -165 -58
-806 l3 -584 40 66 c82 136 192 244 310 303 95 47 164 64 266 64 94 0 165 -17
244 -59 28 -14 53 -27 58 -29 4 -2 7 229 7 513 l0 517 -37 56 c-52 79 -177
201 -244 240 -57 32 -155 63 -199 61 -14 0 -48 -6 -76 -13z"/>
<path d="M8123 18909 c4 -14 11 -79 17 -143 15 -171 -4 -316 -55 -416 -27 -53
-92 -115 -141 -136 -38 -16 -172 -19 -222 -5 -17 5 -32 8 -32 5 0 -3 178 -324
397 -715 323 -578 399 -708 409 -697 21 21 70 128 92 198 34 112 45 234 39
427 -6 195 -22 317 -69 523 -61 269 -76 307 -259 653 -93 176 -172 323 -176
327 -3 3 -3 -7 0 -21z"/>
<path d="M8787 18768 c-19 -35 -82 -153 -140 -263 l-106 -201 25 -84 c100
-339 153 -704 139 -950 l-6 -115 24 40 c13 22 154 279 313 570 l289 530 0 120
c0 116 -1 123 -33 187 -38 77 -98 135 -179 174 -65 30 -168 54 -240 54 l-52 0
-34 -62z"/>
<path d="M6722 18375 l3 -430 35 -69 c66 -133 207 -241 346 -267 170 -31 336
67 427 253 37 77 37 77 37 207 l0 130 -67 -36 c-65 -34 -71 -35 -154 -31 -72
3 -97 9 -150 36 -177 87 -336 281 -432 527 -22 55 -41 102 -44 105 -2 2 -3
-189 -1 -425z"/>
<path d="M17905 18465 c-44 -30 -248 -166 -453 -303 l-373 -249 448 -285 448
-285 7 311 c4 171 7 436 5 589 l-2 277 -80 -55z"/>
<path d="M15041 18480 c8 -10 61 -81 119 -157 58 -76 163 -214 234 -308 71
-93 132 -174 136 -178 8 -9 910 -227 938 -227 23 0 11 357 -16 451 -45 160
-139 273 -285 343 -172 83 -276 96 -791 96 -344 0 -348 0 -335 -20z"/>
<path d="M12921 18474 c-128 -34 -261 -131 -373 -272 l-58 -73 0 -379 0 -380
85 56 c95 62 200 113 290 140 45 14 93 18 190 19 148 0 197 -14 303 -85 l57
-39 6 152 c4 84 7 281 8 439 l1 287 -42 29 c-156 107 -323 145 -467 106z"/>
<path d="M14822 18153 c-133 -291 -140 -308 -120 -316 11 -4 182 -6 378 -5
l359 3 -206 270 c-112 149 -219 289 -238 312 l-32 43 -141 -307z"/>
<path d="M10970 17858 l0 -498 42 -31 c135 -97 241 -134 388 -134 158 0 278
49 423 171 l77 65 0 406 0 405 -46 -56 c-55 -66 -120 -116 -200 -153 -75 -35
-188 -38 -278 -9 -112 37 -259 151 -369 286 l-37 45 0 -497z"/>
<path d="M10225 17878 c-16 -28 -54 -72 -84 -100 -161 -147 -390 -183 -718
-113 l-33 8 0 -370 0 -370 88 -41 c211 -100 395 -114 550 -42 65 31 161 113
206 179 l26 37 -2 431 -3 431 -30 -50z"/>
<path d="M17050 17442 c0 -324 -3 -407 -15 -441 -8 -22 -13 -41 -11 -41 1 0
196 74 432 163 236 90 435 166 443 168 10 4 -801 532 -841 547 -4 2 -8 -176
-8 -396z"/>
<path d="M6720 17431 c0 -349 1 -363 21 -403 48 -94 208 -207 344 -243 78 -21
197 -21 255 0 101 36 174 118 211 234 17 57 19 94 19 408 l0 346 -28 -39
c-148 -202 -377 -258 -600 -145 -65 33 -151 106 -194 165 l-28 39 0 -362z"/>
<path d="M15550 17440 l0 -311 29 15 c32 17 610 297 739 358 46 22 82 41 80
43 -2 2 -185 47 -408 100 -223 53 -413 98 -422 101 -17 5 -18 -14 -18 -306z"/>
<path d="M19063 17615 c-213 -58 -400 -254 -474 -498 -26 -84 -25 -219 1 -323
31 -120 73 -198 150 -274 155 -153 337 -200 765 -200 l170 1 -38 31 c-52 42
-124 146 -148 212 -42 120 -16 280 66 402 l35 54 -50 0 -50 0 0 244 0 245 -32
24 c-115 86 -264 117 -395 82z"/>
<path d="M20120 17340 l0 -270 48 -35 c75 -56 240 -134 322 -151 135 -29 253
-2 354 81 24 19 55 52 70 73 l26 38 0 267 0 267 -410 0 -410 0 0 -270z"/>
<path d="M12951 17509 c-117 -23 -250 -85 -378 -176 l-83 -58 0 -127 0 -128
-123 0 -123 0 47 -50 c62 -67 104 -130 130 -199 17 -45 20 -72 17 -141 -5
-101 -31 -166 -101 -253 l-47 -57 168 0 c429 0 613 44 754 178 149 142 208
333 208 678 l0 172 -55 50 c-113 104 -257 142 -414 111z"/>
<path d="M16015 17273 c-385 -186 -460 -226 -460 -243 0 -11 103 -169 228
-350 l228 -329 64 24 c97 36 153 72 226 145 75 74 117 152 150 275 19 70 22
114 26 365 3 157 3 296 1 310 -3 25 -12 21 -463 -197z"/>
<path d="M14040 16840 l0 -520 270 0 270 0 23 48 c48 95 300 663 296 666 -2 2
-179 70 -394 150 -214 81 -407 153 -427 161 l-38 15 0 -520z"/>
<path d="M11825 17273 c-86 -66 -190 -117 -275 -137 -83 -20 -217 -20 -298 -1
-68 16 -194 71 -241 104 -16 12 -32 21 -37 21 -11 0 3 -416 16 -480 30 -144
133 -291 250 -357 144 -82 287 -103 716 -103 l221 0 65 68 c36 37 78 92 94
122 25 47 29 66 29 135 0 67 -5 89 -28 137 -32 64 -99 143 -170 200 l-49 38
-109 0 -108 0 -3 153 -3 154 -70 -54z"/>
<path d="M17479 17054 l-486 -186 -82 -262 c-44 -145 -81 -268 -81 -275 0 -8
182 -11 691 -11 653 0 690 1 685 18 -3 9 -55 177 -116 373 -104 337 -110 360
-110 442 0 48 -3 87 -7 87 -5 -1 -227 -84 -494 -186z"/>
<path d="M14977 17013 c-11 -18 -307 -682 -307 -688 0 -8 1246 -2 1254 6 4 4
-100 160 -230 348 l-236 341 -238 0 c-132 0 -241 -3 -243 -7z"/>
<path d="M19675 17007 c-180 -239 -178 -421 7 -591 39 -36 75 -66 80 -66 6 0
8 -7 4 -15 -5 -13 62 -15 582 -13 l587 3 3 314 2 314 -39 -36 c-188 -170 -467
-153 -759 46 l-83 57 -187 0 c-144 0 -189 -3 -197 -13z"/>
<path d="M10238 16916 c-57 -65 -141 -122 -228 -155 -56 -22 -81 -25 -190 -25
-141 0 -226 18 -358 79 -41 19 -76 35 -78 35 -2 0 -4 -119 -4 -265 l0 -265
550 0 c405 0 550 3 550 11 0 9 -189 629 -194 636 -1 1 -22 -22 -48 -51z"/>
<path d="M6605 16680 c-48 -151 -94 -294 -101 -317 l-13 -43 544 0 545 0 0
282 0 282 -49 -55 c-88 -99 -217 -148 -355 -134 -151 14 -313 91 -422 199
l-61 61 -88 -275z"/>
<path d="M12293 15946 c3 -7 31 -97 63 -200 43 -139 61 -186 73 -186 9 0 126
-13 261 -30 135 -16 251 -30 258 -30 6 0 12 8 12 19 0 10 29 112 65 226 36
115 65 210 65 212 0 2 -180 3 -401 3 -333 0 -400 -2 -396 -14z"/>
<path d="M14001 15923 c19 -21 96 -103 169 -183 74 -80 139 -146 145 -148 5
-1 93 81 195 183 l185 185 -365 0 -364 0 35 -37z"/>
<path d="M13634 15852 c-128 -53 -233 -101 -235 -105 -2 -4 102 -66 231 -137
l235 -130 3 46 3 47 182 -8 182 -7 -26 29 c-242 262 -332 358 -337 360 -4 1
-111 -42 -238 -95z"/>
<path d="M14555 15715 c-104 -101 -188 -185 -185 -188 3 -2 88 -33 190 -69
l185 -65 3 129 c1 71 1 185 0 252 l-3 124 -190 -183z"/>
<path d="M13346 15658 c-14 -46 -19 -442 -7 -563 13 -129 34 -192 86 -253 29
-34 96 -82 115 -82 6 0 28 37 49 83 21 45 91 189 154 319 l115 237 -211 117
c-117 64 -231 127 -253 141 l-42 23 -6 -22z"/>
<path d="M12420 15229 l0 -260 29 23 c42 34 460 432 457 435 -1 2 -95 14 -207
28 -112 13 -221 27 -241 30 l-38 5 0 -261z"/>
<path d="M12702 15127 c-173 -164 -249 -243 -240 -248 7 -4 121 -66 253 -138
l240 -131 3 190 c1 105 1 275 0 378 l-3 189 -253 -240z"/>
<path d="M13759 15024 c-58 -120 -105 -220 -104 -222 1 -1 118 62 260 140
l258 143 -151 3 -151 3 -3 76 -3 77 -106 -220z"/>
<path d="M14347 15075 c-3 -5 -17 -95 -33 -198 l-28 -188 259 -253 c226 -220
261 -251 267 -232 9 32 9 438 -1 542 -18 179 -98 275 -266 317 -76 19 -193 27
-198 12z"/>
<path d="M13966 14887 l-290 -161 39 -8 c21 -5 142 -7 269 -6 l231 3 25 168
c15 92 24 167 21 166 -3 0 -136 -73 -295 -162z"/>
<path d="M12420 14550 c0 -143 1 -260 3 -260 2 0 114 58 249 128 l247 128
-243 132 c-134 73 -246 132 -250 132 -3 0 -6 -117 -6 -260z"/>
<path d="M14282 14424 l3 -169 210 -47 c116 -26 214 -47 218 -45 4 1 -91 98
-213 216 l-220 213 2 -168z"/>
<path d="M12712 14356 c-129 -68 -233 -127 -231 -132 2 -8 571 -325 576 -320
1 1 -20 73 -47 160 -49 155 -50 160 -50 287 0 71 -3 129 -7 128 -5 0 -113 -55
-241 -123z"/>
<path d="M13360 14095 l0 -295 290 0 290 0 -6 24 c-3 13 -33 109 -67 213 l-62
188 -215 82 c-118 45 -218 82 -222 83 -5 0 -8 -133 -8 -295z"/>
<path d="M13900 14184 c0 -12 102 -326 105 -322 5 5 175 321 175 325 0 2 -63
3 -140 3 -77 0 -140 -3 -140 -6z"/>
<path d="M14163 13998 c-54 -100 -99 -185 -101 -190 -2 -4 93 -8 211 -8 186 0
224 3 279 20 117 36 216 127 234 215 l6 31 -254 57 c-139 31 -258 57 -265 57
-6 0 -56 -82 -110 -182z"/>
<path d="M12349 13987 l-55 -182 199 -3 c109 -1 285 -1 391 0 l193 3 -333 183
c-183 100 -334 182 -336 182 -2 0 -28 -82 -59 -183z"/>
<path d="M11630 13494 c0 -4 28 -92 62 -198 l62 -191 6 -193 5 -193 305 276
c168 153 307 279 309 280 2 2 -23 54 -55 114 l-58 111 -318 0 c-175 0 -318 -3
-318 -6z"/>
<path d="M13308 13371 c-38 -70 -68 -131 -68 -135 0 -3 153 -6 339 -6 l339 0
37 118 c20 64 38 125 41 135 5 16 -14 17 -308 17 l-313 0 -67 -129z"/>
<path d="M14202 13403 c22 -54 57 -136 77 -183 l36 -84 55 -18 c64 -20 157
-23 211 -7 83 25 106 57 225 317 l33 72 -339 0 -339 0 41 -97z"/>
<path d="M15114 13411 c49 -97 82 -131 166 -169 45 -21 71 -26 140 -26 76 0
92 3 150 32 36 17 72 38 81 45 9 7 35 56 57 110 l41 97 -340 0 -339 0 44 -89z"/>
<path d="M15166 13212 c-2 -4 -24 -59 -49 -123 -42 -107 -44 -119 -36 -165 15
-81 48 -151 90 -189 33 -30 46 -35 87 -35 57 0 163 47 185 82 19 29 170 389
165 393 -2 2 -28 -5 -58 -15 -102 -35 -254 -18 -347 39 -18 11 -34 17 -37 13z"/>
<path d="M12150 12968 c-146 -132 -289 -262 -318 -289 l-52 -48 227 -201 228
-201 5 213 5 213 42 -75 c23 -41 151 -272 286 -512 l244 -437 77 142 78 141
-88 286 c-48 157 -103 317 -122 355 -45 92 -333 638 -341 647 -3 4 -125 -101
-271 -234z"/>
<path d="M14727 13124 c-70 -80 -174 -114 -295 -95 -36 6 -68 8 -70 6 -3 -2
31 -89 75 -192 68 -162 83 -190 108 -202 41 -20 164 -26 210 -11 44 14 105 67
136 116 l21 34 -66 173 c-36 94 -69 182 -73 194 -8 20 -10 19 -46 -23z"/>
<path d="M13224 13143 c4 -14 98 -401 121 -502 6 -23 7 -23 21 -5 14 17 15 -3
9 -196 -4 -133 -3 -211 3 -205 10 10 502 913 502 921 0 2 -149 4 -331 4 -310
0 -330 -1 -325 -17z"/>
<path d="M13007 12802 l-147 -278 76 -244 c42 -135 79 -250 82 -257 4 -6 69
103 145 242 l137 253 -66 273 c-36 151 -69 277 -73 282 -4 4 -73 -118 -154
-271z"/>
<path d="M13630 12538 c-129 -238 -235 -436 -235 -440 0 -9 465 -231 471 -225
2 2 3 250 2 550 l-3 547 -235 -432z"/>
<path d="M14991 12762 c-17 -42 -35 -76 -40 -75 -5 2 -19 -11 -31 -27 -57 -80
-192 -131 -300 -113 -33 5 -60 7 -60 4 0 -3 26 -67 58 -141 57 -133 58 -135
107 -162 75 -42 151 -61 235 -61 89 1 142 19 226 75 l62 40 71 171 c39 94 69
172 67 174 -2 2 -29 -3 -61 -12 -118 -30 -206 13 -267 132 l-37 72 -30 -77z"/>
<path d="M11760 12191 l0 -351 228 151 c125 84 228 152 229 153 3 2 -440 390
-449 394 -4 2 -8 -154 -8 -347z"/>
<path d="M15154 12158 c-119 -56 -242 -60 -378 -12 -38 13 -71 24 -73 24 -2 0
-3 -87 -3 -194 l0 -193 55 -52 c110 -104 233 -133 327 -78 51 29 126 109 134
141 2 12 3 105 2 207 l-3 185 -61 -28z"/>
<path d="M11995 11908 l-240 -158 -57 -177 c-32 -98 -60 -190 -63 -205 l-7
-28 311 0 311 0 -1 303 c-1 166 -4 329 -8 363 l-6 60 -240 -158z"/>
<path d="M13370 11695 c0 -173 3 -315 6 -315 5 0 363 320 437 390 l28 27 -225
106 c-124 59 -230 107 -236 107 -6 0 -10 -110 -10 -315z"/>
<path d="M13670 11543 c-113 -103 -206 -190 -208 -195 -2 -4 118 -8 267 -8
149 0 271 3 271 7 0 15 -115 383 -120 382 -3 0 -97 -84 -210 -186z"/>
<path d="M14617 11526 c-31 -94 -57 -175 -57 -179 0 -4 178 -7 395 -7 217 0
395 3 395 6 0 9 -101 327 -106 336 -3 4 -24 -11 -47 -33 -70 -69 -129 -94
-222 -94 -95 0 -157 24 -246 97 l-55 45 -57 -171z"/>
<path d="M11022 10959 c-70 -9 -171 -36 -188 -50 -8 -7 -9 -23 -2 -57 37 -176
185 -316 404 -381 61 -18 97 -21 255 -21 l184 0 0 143 c0 162 15 225 72 310
19 28 36 54 39 59 7 10 -680 8 -764 -3z"/>
<path d="M11867 10929 c-87 -76 -133 -212 -123 -358 3 -42 8 -160 12 -263 l6
-188 294 0 294 0 0 425 0 425 -219 0 -218 0 -46 -41z"/>
<path d="M12637 10828 c24 -79 63 -199 86 -268 l42 -125 65 -32 c121 -59 194
-77 315 -78 128 0 173 15 250 86 75 69 75 69 75 329 l0 230 -439 0 -439 0 45
-142z"/>
<path d="M13950 10795 l0 -174 42 15 c61 21 212 44 294 44 129 0 273 -36 359
-91 26 -16 49 -29 50 -27 2 2 98 312 121 391 5 16 -20 17 -430 17 l-436 0 0
-175z"/>
<path d="M15043 10958 c42 -111 161 -528 166 -580 l6 -67 399 212 399 212 33
110 c19 61 34 113 34 118 0 4 -234 7 -521 7 -413 0 -520 -3 -516 -12z"/>
<path d="M10692 10805 c-57 -62 -96 -136 -113 -210 -6 -27 -13 -192 -16 -366
l-5 -316 75 -51 c111 -74 174 -96 277 -96 69 -1 94 3 132 22 60 30 131 102
180 182 l38 64 0 177 0 176 -47 13 c-130 35 -271 123 -343 212 -47 58 -94 153
-105 211 -4 20 -11 37 -15 37 -4 0 -31 -25 -58 -55z"/>
<path d="M15607 10437 c-196 -105 -356 -195 -355 -199 4 -8 655 -518 663 -518
3 0 5 161 5 358 l0 358 30 94 c16 52 30 96 30 98 0 7 -47 -17 -373 -191z"/>
<path d="M14225 10604 c-58 -6 -152 -23 -217 -41 l-58 -16 0 -338 0 -338 83
44 c117 62 183 79 302 79 108 -1 189 -22 272 -70 l42 -24 4 272 c2 150 6 284
8 298 4 22 -4 29 -78 66 -102 51 -242 78 -358 68z"/>
<path d="M13402 10323 c-35 -24 -89 -50 -120 -59 -118 -35 -306 -11 -449 56
l-63 29 0 -368 0 -367 64 -47 c35 -26 103 -65 151 -89 73 -35 99 -42 164 -46
64 -4 86 -1 129 18 62 27 129 97 167 173 l25 53 -2 344 -3 345 -63 -42z"/>
<path d="M15210 9511 c0 -363 2 -661 3 -661 7 0 676 775 677 783 0 4 -147 123
-327 264 -180 141 -334 260 -340 266 -10 7 -13 -124 -13 -652z"/>
<path d="M14275 9923 c-91 -13 -197 -56 -282 -115 l-43 -29 0 -314 0 -314 93
44 c227 110 438 113 574 9 l33 -25 -2 318 -3 318 -54 32 c-94 56 -229 89 -316
76z"/>
<path d="M11195 9814 c-33 -34 -85 -74 -115 -90 -51 -27 -62 -29 -170 -29
-103 0 -122 3 -180 28 -36 15 -89 43 -117 62 l-53 35 0 -299 0 -298 98 -34
c90 -31 106 -33 227 -34 124 0 133 1 188 29 64 33 134 102 166 165 20 39 21
54 19 284 l-3 242 -60 -61z"/>
<path d="M15665 9254 c-137 -159 -292 -337 -344 -397 l-94 -108 264 -265 c145
-145 267 -264 270 -264 6 0 299 476 299 486 0 2 -31 4 -70 4 l-70 0 -2 416 -3
416 -250 -288z"/>
<path d="M12770 9211 l0 -308 74 -71 c177 -168 375 -200 584 -93 l42 21 0 376
0 375 -47 -48 c-145 -149 -359 -142 -595 18 l-58 39 0 -309z"/>
<path d="M11212 9193 c-127 -124 -337 -153 -566 -78 -42 14 -79 25 -82 25 -3
0 -4 -127 -1 -282 3 -256 6 -289 25 -349 12 -36 36 -85 53 -108 34 -48 41 -49
159 -4 112 42 191 92 276 177 65 65 89 98 122 166 55 115 64 168 60 345 l-3
150 -43 -42z"/>
<path d="M14245 9192 c-83 -22 -193 -68 -252 -105 l-43 -27 0 -170 c0 -170 0
-171 30 -231 65 -129 77 -279 31 -399 -11 -30 -21 -59 -21 -64 0 -14 239 1
304 19 140 39 225 105 281 218 60 122 67 158 72 412 l5 231 -42 38 c-95 86
-226 114 -365 78z"/>
<path d="M16385 9197 c11 -8 133 -76 270 -152 138 -76 269 -149 293 -162 l42
-25 0 176 0 176 -312 0 c-263 0 -309 -2 -293 -13z"/>
<path d="M11760 8999 c0 -94 3 -169 8 -167 4 2 35 18 69 36 171 88 337 84 536
-16 4 -2 7 69 7 157 l0 161 -310 0 -310 0 0 -171z"/>
<path d="M16340 8920 l0 -209 -61 -3 -60 -3 227 -243 c125 -134 230 -240 234
-235 13 13 290 539 290 549 0 9 -609 354 -624 354 -3 0 -6 -94 -6 -210z"/>
<path d="M11971 8845 c-72 -20 -167 -72 -196 -107 -24 -28 -24 -28 -144 -28
l-121 0 31 -47 c83 -131 90 -316 18 -440 l-18 -33 419 0 420 0 0 285 0 284
-44 26 c-111 65 -260 89 -365 60z"/>
<path d="M12773 8670 c14 -262 88 -372 307 -453 51 -20 80 -21 437 -25 l382
-3 20 40 c28 54 51 145 51 201 0 79 -46 206 -93 258 -20 21 -27 22 -189 22
l-168 0 -47 -29 c-63 -39 -155 -69 -234 -77 -141 -14 -289 41 -438 163 l-34
28 6 -125z"/>
<path d="M11230 8643 c-87 -134 -235 -249 -405 -314 -44 -17 -81 -32 -83 -34
-9 -8 97 -60 157 -78 55 -16 107 -20 312 -24 l247 -5 38 78 c35 71 39 84 38
158 0 93 -23 162 -79 239 l-35 47 -74 0 -73 0 -43 -67z"/>
<path d="M15986 8439 c-81 -133 -145 -243 -143 -245 2 -2 172 -3 377 -2 l373
3 -224 242 c-123 133 -227 242 -230 242 -3 1 -72 -108 -153 -240z"/>
<path d="M15140 8509 c-28 -90 -62 -197 -75 -238 -14 -41 -23 -76 -21 -78 1
-2 143 -2 315 -1 l311 3 -239 239 -239 239 -52 -164z"/>
<path d="M16868 8417 l-117 -222 116 -3 c64 -1 117 -1 120 1 2 2 2 103 1 225
l-3 220 -117 -221z"/>
<path d="M8820 7405 l0 -466 98 80 c53 44 165 136 247 205 140 117 153 126
193 126 l42 0 -19 38 c-62 122 -69 326 -16 465 7 16 -10 17 -269 17 l-276 0 0
-465z"/>
<path d="M9439 7843 c-57 -150 -50 -308 17 -435 l29 -53 83 -3 82 -3 0 -163 0
-164 34 -30 c49 -43 204 -118 273 -132 134 -28 262 8 353 99 l50 50 0 170 0
170 147 3 148 3 13 55 c7 30 14 102 15 160 1 110 -14 183 -54 262 l-19 38
-580 0 -580 0 -11 -27z"/>
<path d="M10705 7853 c54 -140 67 -273 41 -421 -9 -50 -16 -96 -16 -101 0 -6
80 -76 178 -157 97 -81 201 -168 230 -192 l52 -44 0 466 0 466 -246 0 c-230 0
-246 -1 -239 -17z"/>
<path d="M11381 7863 c0 -5 17 -57 37 -118 32 -93 41 -110 62 -116 14 -4 191
-64 394 -133 203 -69 373 -126 378 -126 4 0 8 113 8 250 l0 250 -440 0 c-242
0 -440 -3 -439 -7z"/>
<path d="M12730 7695 c0 -96 4 -175 8 -175 10 0 794 338 801 345 2 3 -179 5
-402 5 l-407 0 0 -175z"/>
<path d="M13830 7862 c0 -5 6 -28 14 -53 63 -194 146 -482 146 -507 0 -24 10
-39 46 -71 68 -59 148 -110 228 -145 62 -26 83 -30 166 -31 83 0 102 3 152 27
32 15 74 39 93 54 l35 26 0 94 0 94 110 0 109 0 12 43 c6 23 9 77 7 119 -4 66
-11 91 -46 160 -22 46 -64 109 -92 141 l-52 57 -464 0 c-255 0 -464 -4 -464
-8z"/>
<path d="M14899 7820 c91 -121 126 -233 119 -376 l-5 -94 103 0 104 0 0 -139
0 -140 58 -34 c104 -63 209 -85 312 -67 84 14 210 77 279 137 l54 47 -6 155
c-8 234 -40 326 -149 426 -64 59 -136 97 -218 115 -32 7 -187 14 -373 17
l-318 5 40 -52z"/>
<path d="M16272 7853 c3 -10 36 -118 74 -241 49 -162 72 -221 81 -218 16 6
723 455 738 467 5 5 -190 9 -444 9 -427 0 -453 -1 -449 -17z"/>
<path d="M17502 7611 l133 -259 250 246 c138 135 257 252 265 259 12 11 -55
13 -383 13 l-398 0 133 -259z"/>
<path d="M17155 7766 c-71 -45 -242 -154 -380 -241 -137 -87 -263 -167 -278
-177 l-28 -20 38 -27 c127 -91 614 -431 618 -431 3 0 5 108 5 240 l0 240 210
0 211 0 -126 250 c-70 138 -130 250 -133 250 -4 0 -65 -38 -137 -84z"/>
<path d="M13178 7626 c-219 -94 -396 -174 -395 -178 2 -7 643 -438 651 -438 4
0 6 70 6 155 l0 156 70 230 c39 127 70 235 68 239 -2 4 -182 -69 -400 -164z"/>
<path d="M17937 7543 c-137 -134 -247 -246 -245 -247 19 -14 491 -256 494
-253 2 2 3 171 2 374 l-3 371 -248 -245z"/>
<path d="M11495 7503 c8 -27 23 -75 35 -107 18 -54 20 -83 20 -363 0 -166 2
-303 6 -303 4 0 504 426 657 560 5 4 -11 15 -35 24 -48 17 -691 236 -695 236
-1 0 4 -21 12 -47z"/>
<path d="M12730 6955 l0 -435 38 23 c20 13 172 106 337 207 165 101 301 184
302 184 1 1 -151 104 -337 229 l-340 227 0 -435z"/>
<path d="M16440 6638 l0 -613 24 25 c13 14 155 176 316 360 161 184 301 344
312 356 18 20 17 21 -311 252 -181 128 -332 232 -335 232 -3 0 -6 -276 -6
-612z"/>
<path d="M11917 6939 l-338 -291 88 -64 c48 -35 201 -144 338 -242 l250 -178
3 269 c1 148 1 387 0 532 l-3 265 -338 -291z"/>
<path d="M13990 6774 l0 -395 55 -59 c60 -62 147 -114 229 -136 110 -29 299
-8 411 46 38 18 62 20 288 20 l247 0 0 -99 0 -99 53 -40 c198 -151 389 -148
554 10 l65 63 -6 50 c-10 75 -49 147 -115 207 -46 43 -72 58 -132 77 -84 27
-168 62 -175 72 -2 4 26 17 63 30 107 35 182 77 245 137 88 83 127 179 141
343 l4 45 -71 -46 c-95 -62 -161 -88 -257 -103 -116 -16 -212 5 -361 81 -5 2
-8 -57 -8 -132 l0 -136 -255 0 -255 0 0 176 c0 97 -3 174 -7 172 -5 -1 -39
-19 -77 -38 -62 -31 -80 -35 -166 -38 -146 -6 -250 29 -395 133 l-75 54 0
-395z"/>
<path d="M9650 6652 l0 -270 37 -33 c213 -186 442 -196 616 -26 l57 55 0 256
c0 141 -2 256 -5 256 -3 0 -27 -16 -54 -36 -161 -115 -400 -97 -618 47 l-33
21 0 -270z"/>
<path d="M13122 6675 c-173 -106 -314 -195 -314 -199 1 -4 142 -113 314 -242
l313 -235 3 215 c1 118 1 313 0 433 l-3 219 -313 -191z"/>
<path d="M16868 6398 c-160 -183 -321 -366 -356 -406 l-65 -72 86 -128 c295
-440 458 -676 465 -672 4 2 107 112 230 245 l223 240 -161 3 -160 2 0 335 0
335 290 0 290 0 0 225 0 225 -275 0 -274 0 -293 -332z"/>
<path d="M11553 6028 c6 -580 8 -607 58 -705 14 -25 29 -48 35 -50 11 -4 589
789 589 807 0 8 -670 490 -682 490 -3 0 -3 -244 0 -542z"/>
<path d="M12730 6021 l0 -411 -171 0 -172 0 44 -47 c24 -27 131 -139 239 -250
l197 -203 63 93 c69 100 204 293 373 534 59 84 110 159 113 166 3 9 -107 98
-328 263 -183 138 -339 253 -345 258 -10 6 -13 -78 -13 -403z"/>
<path d="M9650 5971 l0 -309 48 -42 c26 -22 85 -60 131 -83 82 -41 87 -42 185
-42 92 0 107 3 166 31 36 17 91 54 123 83 l57 53 0 305 0 305 -42 -37 c-97
-82 -221 -118 -354 -103 -78 8 -149 38 -241 99 l-73 49 0 -309z"/>
<path d="M13990 5962 l0 -300 56 -50 c31 -28 86 -65 123 -84 62 -31 72 -33
171 -33 100 0 109 2 180 36 41 20 101 57 133 83 l57 47 0 246 0 245 -22 -5
c-13 -3 -59 -14 -102 -26 -56 -15 -109 -21 -183 -21 -150 0 -253 37 -385 140
l-28 22 0 -300z"/>
<path d="M15825 5923 c-88 -67 -164 -93 -266 -93 -97 0 -185 26 -268 80 -34
22 -64 40 -66 40 -3 0 -5 -110 -5 -244 l0 -243 68 -31 c99 -45 146 -56 252
-55 75 0 108 5 155 23 68 26 141 71 199 122 39 34 39 35 26 69 -9 22 -16 97
-20 209 l-5 175 -70 -52z"/>
<path d="M11981 5593 c-151 -209 -274 -384 -274 -389 1 -12 110 -71 168 -91
43 -14 111 -17 479 -20 l430 -4 -229 236 c-125 130 -243 249 -261 265 l-34 29
-2 177 -3 177 -274 -380z"/>
<path d="M17926 5789 c-165 -87 -304 -163 -308 -167 -5 -5 70 -121 175 -268
l183 -259 132 -3 132 -3 0 431 c0 236 -3 430 -7 429 -5 0 -143 -72 -307 -160z"/>
<path d="M13191 5449 c-134 -192 -242 -351 -240 -353 2 -2 36 3 74 9 215 39
341 159 389 375 16 67 35 320 25 320 -2 0 -114 -158 -248 -351z"/>
<path d="M16440 5721 c0 -64 -11 -108 -85 -345 -47 -150 -85 -275 -85 -279 0
-4 146 -7 324 -7 l324 0 -230 343 c-127 188 -235 346 -239 352 -5 5 -9 -22 -9
-64z"/>
<path d="M17307 5342 l-228 -247 200 -3 c110 -1 292 -1 404 0 l204 3 -164 230
c-90 127 -169 237 -176 247 -10 14 -42 -16 -240 -230z"/>
<path d="M9559 5338 l-76 -243 264 -3 c146 -1 381 -1 523 0 l258 3 -73 233
c-40 128 -74 234 -76 237 -2 2 -31 -17 -64 -42 -145 -111 -286 -136 -451 -82
-67 22 -164 76 -205 115 l-25 24 -75 -242z"/>
<path d="M13901 5336 c-39 -128 -71 -236 -71 -240 0 -3 198 -6 440 -6 l440 0
0 236 c0 185 -3 234 -12 228 -7 -5 -34 -23 -59 -41 -192 -137 -402 -133 -604
12 l-62 44 -72 -233z"/>
<path d="M15910 5439 c-93 -81 -248 -139 -372 -139 -69 0 -193 27 -257 56 -29
13 -56 24 -58 24 -3 0 -3 -36 -1 -79 6 -100 35 -152 106 -184 45 -21 63 -22
399 -25 l351 -3 -13 43 c-41 134 -107 343 -109 344 0 1 -21 -16 -46 -37z"/>
</g>
</svg>
