<?xml version="1.0" standalone="no"?>
<!DOCTYPE svg PUBLIC "-//W3C//DTD SVG 20010904//EN"
 "http://www.w3.org/TR/2001/REC-SVG-20010904/DTD/svg10.dtd">
<svg version="1.0" xmlns="http://www.w3.org/2000/svg"
 width="1272.000000pt" height="1272.000000pt" viewBox="0 0 1272.000000 1272.000000"
 preserveAspectRatio="xMidYMid meet">
<metadata>
Created by potrace 1.16, written by Peter Selinger 2001-2019
</metadata>
<g transform="translate(0.000000,1272.000000) scale(0.100000,-0.100000)"
fill="#000000" stroke="none">
<path d="M6010 12693 c-101 -52 -145 -142 -122 -250 33 -156 187 -235 329
-169 90 43 138 130 131 242 -3 50 -10 73 -34 106 -40 59 -118 98 -194 98 -42
0 -70 -7 -110 -27z"/>
<path d="M6999 12675 c-53 -17 -115 -73 -137 -124 -23 -55 -20 -148 7 -204 73
-150 281 -180 386 -55 45 53 57 94 53 174 -3 61 -8 80 -33 116 -57 81 -180
123 -276 93z"/>
<path d="M5070 12594 c-86 -37 -140 -120 -140 -216 0 -78 23 -131 78 -180 163
-147 428 6 384 222 -16 75 -56 128 -121 162 -62 32 -143 37 -201 12z"/>
<path d="M7965 12491 c-116 -30 -180 -120 -173 -242 5 -92 43 -153 118 -192
48 -25 63 -28 120 -24 143 9 224 93 224 232 0 99 -37 165 -116 206 -42 21
-129 32 -173 20z"/>
<path d="M4175 12341 c-111 -29 -175 -113 -175 -229 0 -119 94 -218 219 -229
81 -8 138 14 189 72 131 149 43 376 -152 390 -28 2 -64 1 -81 -4z"/>
<path d="M8811 12138 c-120 -59 -156 -239 -71 -357 97 -134 319 -111 394 41
61 123 8 271 -116 322 -55 24 -154 21 -207 -6z"/>
<path d="M3275 11932 c-98 -46 -147 -121 -147 -223 0 -112 74 -205 182 -228
68 -15 122 -5 178 33 138 93 136 315 -2 400 -62 39 -151 46 -211 18z"/>
<path d="M9715 11691 c-68 -18 -132 -67 -162 -124 -24 -47 -28 -127 -9 -185
23 -69 96 -135 167 -152 220 -53 374 200 235 383 -47 61 -155 98 -231 78z"/>
<path d="M2477 11396 c-98 -36 -152 -111 -151 -216 1 -184 178 -289 348 -206
127 62 162 225 75 346 -56 77 -175 110 -272 76z"/>
<path d="M10448 11088 c-21 -5 -57 -27 -82 -49 -103 -91 -108 -258 -9 -351
106 -101 306 -66 375 65 34 64 32 157 -5 219 -34 58 -81 95 -143 114 -53 16
-83 16 -136 2z"/>
<path d="M1764 10741 c-117 -53 -177 -203 -125 -316 22 -50 86 -109 136 -125
61 -20 165 -9 213 23 119 78 134 266 29 370 -66 67 -169 86 -253 48z"/>
<path d="M11074 10371 c-86 -39 -143 -142 -131 -241 20 -164 179 -256 327
-189 94 42 134 107 134 214 0 104 -48 183 -136 219 -51 22 -143 20 -194 -3z"/>
<path d="M1153 9979 c-92 -45 -140 -134 -130 -237 15 -145 157 -240 297 -199
110 33 170 113 170 228 0 133 -98 229 -234 229 -42 0 -74 -7 -103 -21z"/>
<path d="M11603 9565 c-142 -71 -176 -259 -67 -369 113 -112 303 -92 381 41
23 40 28 59 28 113 -1 180 -183 294 -342 215z"/>
<path d="M727 9156 c-105 -29 -172 -121 -172 -236 1 -137 88 -221 230 -223
139 -1 235 90 235 223 0 72 -19 123 -63 168 -63 66 -146 91 -230 68z"/>
<path d="M4380 6360 l0 -2630 665 0 665 0 0 2630 0 2630 -665 0 -665 0 0
-2630z"/>
<path d="M7010 6360 l0 -2630 660 0 660 0 0 2630 0 2630 -660 0 -660 0 0
-2630z"/>
<path d="M12037 8706 c-97 -36 -157 -124 -157 -230 1 -138 91 -226 230 -226
140 0 232 90 233 227 1 132 -88 233 -211 240 -32 2 -73 -3 -95 -11z"/>
<path d="M362 8245 c-118 -51 -168 -169 -130 -299 16 -54 90 -128 144 -144
115 -34 235 12 284 108 61 121 13 272 -103 326 -60 28 -143 31 -195 9z"/>
<path d="M12295 7780 c-45 -14 -115 -78 -136 -124 -40 -88 -19 -197 51 -266
72 -73 171 -90 265 -46 219 102 153 433 -89 443 -33 1 -75 -2 -91 -7z"/>
<path d="M198 7308 c-48 -13 -113 -70 -140 -121 -11 -23 -23 -69 -25 -102 -4
-52 -1 -67 24 -115 22 -43 41 -62 83 -87 47 -28 63 -33 120 -33 80 0 133 23
179 75 45 52 61 93 61 162 0 105 -63 188 -164 218 -56 17 -84 17 -138 3z"/>
<path d="M12437 6829 c-115 -27 -187 -115 -187 -226 1 -109 68 -197 175 -228
113 -33 217 11 271 115 27 52 25 163 -3 216 -32 60 -95 111 -155 123 -55 12
-49 12 -101 0z"/>
<path d="M205 6354 c-5 -1 -27 -5 -48 -9 -47 -8 -113 -65 -138 -120 -23 -50
-25 -152 -3 -203 42 -100 149 -155 259 -132 220 46 263 339 63 433 -50 24
-110 38 -133 31z"/>
<path d="M12342 5844 c-196 -99 -165 -379 48 -435 103 -27 212 23 263 121 25
48 28 63 25 126 -4 84 -33 137 -100 181 -33 22 -55 28 -112 31 -61 3 -78 0
-124 -24z"/>
<path d="M255 5384 c-105 -38 -173 -168 -145 -275 43 -157 219 -228 356 -143
71 43 108 108 108 187 -1 175 -158 290 -319 231z"/>
<path d="M12172 4913 c-50 -18 -108 -71 -128 -119 -8 -18 -14 -62 -14 -98 0
-133 85 -226 215 -234 149 -10 245 79 245 228 0 42 -7 79 -19 105 -51 111
-178 161 -299 118z"/>
<path d="M489 4443 c-129 -66 -160 -248 -61 -364 61 -71 148 -95 245 -68 59
16 132 92 151 158 20 67 20 84 1 147 -39 133 -202 194 -336 127z"/>
<path d="M11832 4005 c-60 -26 -94 -57 -118 -109 -113 -243 201 -464 378 -267
114 126 81 315 -64 375 -47 20 -152 20 -196 1z"/>
<path d="M945 3591 c-110 -28 -175 -113 -175 -228 0 -135 104 -233 246 -233
65 1 122 28 167 80 47 55 60 97 55 176 -3 50 -10 72 -33 105 -54 75 -175 122
-260 100z"/>
<path d="M11405 3181 c-107 -27 -185 -124 -185 -230 0 -84 55 -173 131 -211
95 -49 241 -11 304 79 25 35 30 54 33 115 5 84 -19 148 -72 193 -56 47 -147
70 -211 54z"/>
<path d="M1455 2785 c-48 -19 -100 -67 -126 -117 -28 -55 -26 -155 5 -216 44
-87 104 -122 209 -122 53 0 71 5 117 33 148 88 147 323 -1 406 -52 30 -148 37
-204 16z"/>
<path d="M10755 2411 c-49 -23 -89 -64 -109 -113 -18 -43 -21 -143 -5 -185 57
-153 244 -202 368 -96 61 52 84 109 79 198 -3 62 -8 80 -33 116 -63 89 -201
126 -300 80z"/>
<path d="M2112 2077 c-43 -13 -115 -78 -136 -121 -9 -20 -16 -59 -16 -96 0
-112 72 -203 183 -231 98 -24 202 20 254 108 24 41 28 59 28 124 0 67 -4 81
-30 124 -55 89 -174 127 -283 92z"/>
<path d="M10055 1756 c-124 -54 -173 -202 -107 -327 68 -131 250 -160 366 -57
58 50 81 108 73 186 -8 91 -53 159 -130 196 -42 20 -159 21 -202 2z"/>
<path d="M2895 1491 c-110 -27 -180 -117 -179 -231 1 -182 182 -292 345 -209
109 55 152 199 94 316 -49 98 -157 149 -260 124z"/>
<path d="M9260 1229 c-14 -6 -40 -24 -58 -42 -161 -153 -66 -417 150 -417 67
0 127 29 177 86 106 120 62 309 -86 371 -37 15 -146 16 -183 2z"/>
<path d="M3720 1015 c-96 -31 -170 -129 -170 -225 0 -89 64 -182 150 -218 52
-22 148 -19 196 6 52 27 100 81 113 129 25 88 3 192 -52 251 -55 59 -156 83
-237 57z"/>
<path d="M8395 829 c-143 -53 -197 -241 -105 -368 94 -130 314 -115 397 26 23
40 28 59 28 113 -1 98 -46 169 -138 217 -39 20 -142 26 -182 12z"/>
<path d="M4618 678 c-47 -13 -113 -70 -140 -121 -23 -47 -28 -142 -8 -192 58
-150 267 -193 384 -79 50 49 69 95 69 169 1 166 -137 268 -305 223z"/>
<path d="M7495 571 c-116 -30 -180 -120 -173 -242 5 -91 42 -152 118 -192 49
-25 63 -28 126 -25 86 4 140 35 184 105 95 149 1 346 -172 358 -29 2 -66 1
-83 -4z"/>
<path d="M5559 495 c-49 -16 -109 -68 -135 -117 -25 -48 -30 -140 -10 -191 35
-92 122 -150 226 -151 270 -2 317 381 56 459 -60 18 -77 18 -137 0z"/>
<path d="M6516 455 c-47 -17 -100 -66 -129 -120 -16 -30 -21 -58 -22 -111 0
-61 4 -77 30 -119 89 -144 315 -141 403 5 113 189 -75 419 -282 345z"/>
</g>
</svg>
