<?xml version="1.0" standalone="no"?>
<!DOCTYPE svg PUBLIC "-//W3C//DTD SVG 20010904//EN"
 "http://www.w3.org/TR/2001/REC-SVG-20010904/DTD/svg10.dtd">
<svg version="1.0" xmlns="http://www.w3.org/2000/svg"
 width="1200.000000pt" height="590.000000pt" viewBox="0 0 1200.000000 590.000000"
 preserveAspectRatio="xMidYMid meet">
<metadata>
Created by potrace 1.16, written by Peter Selinger 2001-2019
</metadata>
<g transform="translate(0.000000,590.000000) scale(0.100000,-0.100000)"
fill="#000000" stroke="none">
<path d="M2782 5595 c-17 -19 -34 -51 -38 -70 -7 -41 2 -161 18 -220 6 -22 12
-60 14 -85 8 -99 22 -227 28 -255 3 -16 11 -88 16 -160 14 -167 17 -198 24
-232 10 -46 14 -213 5 -219 -5 -3 -15 -27 -23 -55 -16 -53 -12 -109 9 -109 17
0 45 -33 45 -54 0 -9 -11 -38 -24 -64 -50 -101 -42 -163 28 -211 36 -25 44
-37 47 -68 10 -83 1 -260 -15 -323 -29 -114 -48 -323 -35 -383 15 -70 15 -187
0 -267 -7 -36 -14 -83 -16 -105 -2 -22 -7 -54 -10 -71 -3 -17 -1 -43 4 -56 8
-20 5 -30 -15 -51 -13 -14 -24 -30 -24 -34 0 -4 -11 -26 -24 -48 -22 -36 -25
-38 -32 -20 -17 48 -54 124 -63 129 -5 4 -13 21 -16 39 -4 17 -12 35 -17 38
-5 3 -15 41 -22 85 -8 43 -21 99 -30 122 -9 24 -21 73 -27 108 -10 55 -9 68 5
89 9 14 16 40 16 58 -1 17 3 61 10 97 15 89 29 221 25 240 -7 39 -8 210 -1
260 20 146 28 209 31 257 1 28 5 55 8 60 4 8 -9 371 -17 447 -3 21 -9 43 -15
49 -6 6 -11 35 -11 63 0 29 -4 55 -9 58 -5 4 -12 25 -16 49 -14 87 -96 183
-250 292 -15 11 -42 32 -60 48 -18 15 -38 27 -44 27 -6 0 -11 4 -11 8 0 5 -15
16 -34 25 -34 16 -35 15 -83 -16 -26 -17 -50 -34 -53 -37 -3 -3 -24 -18 -47
-33 -47 -30 -52 -46 -25 -69 15 -14 25 -15 87 -2 93 18 85 20 140 -28 108 -94
195 -197 195 -232 0 -11 7 -39 15 -61 16 -44 19 -187 6 -299 -6 -58 -12 -73
-35 -92 -49 -43 -77 -21 -36 27 36 43 63 155 56 230 -8 84 -24 124 -77 183
-103 115 -271 134 -356 41 -48 -53 -51 -62 -42 -154 4 -47 3 -95 -2 -108 -11
-29 7 -119 31 -153 16 -23 33 -102 20 -96 -60 29 -101 42 -189 57 -321 55
-367 68 -525 146 -60 29 -135 60 -168 68 -85 23 -108 35 -114 64 -3 14 -9 33
-13 41 -5 9 -9 58 -10 110 -1 107 -11 129 -52 110 -26 -12 -69 -87 -69 -121 0
-11 -4 -29 -10 -39 -5 -10 -11 -49 -13 -86 -4 -62 -2 -70 21 -91 14 -13 29
-23 34 -23 5 0 37 -26 71 -58 158 -146 395 -272 624 -333 132 -35 154 -73 178
-309 7 -69 11 -128 9 -131 -5 -9 -6 -171 0 -221 2 -26 9 -56 15 -66 6 -11 12
-45 13 -75 l2 -55 -71 -68 c-38 -38 -90 -98 -113 -134 -48 -71 -97 -118 -210
-206 -41 -31 -91 -75 -110 -97 -74 -85 -121 -128 -172 -158 -29 -18 -61 -39
-70 -47 -13 -11 -33 -13 -77 -9 -69 6 -121 28 -162 70 -40 40 -89 150 -89 201
0 63 -10 73 -62 59 -58 -16 -185 -87 -225 -126 -28 -26 -33 -38 -33 -78 0 -61
13 -71 97 -69 37 1 78 1 89 1 29 -1 74 -48 74 -77 0 -14 4 -32 9 -42 6 -9 20
-51 32 -92 12 -41 33 -89 46 -107 52 -68 173 -93 258 -54 22 10 64 39 93 64
52 45 186 116 327 172 74 30 120 34 237 20 l68 -8 112 63 c62 35 134 78 161
97 l47 35 23 -28 c36 -46 39 -48 117 -111 48 -39 96 -90 135 -144 117 -166
213 -267 287 -305 58 -29 87 -30 138 -4 42 21 130 124 130 151 0 8 7 24 15 35
8 10 15 30 15 44 0 14 7 39 16 55 9 17 17 39 18 51 2 11 26 50 54 86 27 36 62
88 76 116 32 62 56 76 194 112 50 13 56 38 15 62 -25 14 -137 42 -200 50 l-23
3 25 50 c21 45 22 52 9 72 -16 26 -18 57 -5 116 5 23 14 69 21 102 6 33 17 86
25 119 7 32 11 64 8 71 -7 19 26 163 48 206 9 19 24 41 32 48 13 10 16 5 22
-30 4 -23 9 -69 11 -103 3 -33 9 -113 15 -176 6 -63 12 -145 13 -182 2 -57 17
-110 37 -128 13 -12 51 -135 54 -181 2 -27 7 -54 10 -59 3 -5 13 -51 21 -102
39 -248 117 -441 217 -537 19 -19 34 -39 32 -45 -2 -6 -6 -23 -9 -38 -4 -16
-13 -28 -21 -28 -13 0 -15 -77 -13 -640 l3 -640 -27 0 -28 0 0 525 0 525 -177
0 -178 -1 -32 -29 -33 -30 0 -435 0 -435 -28 0 c-58 0 -62 -16 -62 -233 0
-190 -1 -197 -20 -197 -20 0 -20 7 -20 355 0 309 -2 355 -15 355 -11 0 -15 12
-15 45 0 25 -4 45 -10 45 -5 0 -10 11 -10 25 0 20 -5 25 -24 25 -56 0 -56 1
-56 157 l0 145 -27 -7 c-16 -3 -68 -18 -118 -34 -131 -42 -125 -54 -125 239
l0 238 -80 20 -80 20 -148 -60 c-81 -33 -149 -64 -152 -69 -3 -4 -12 -4 -20 1
-8 6 -27 10 -42 10 -21 0 -28 -5 -28 -20 0 -15 -7 -20 -25 -20 -24 0 -25 -2
-25 -75 0 -55 -3 -74 -12 -72 -10 1 -14 -101 -16 -481 -2 -380 -5 -483 -15
-480 -6 3 -14 27 -17 54 -5 49 -5 49 -12 14 -4 -19 -15 -89 -24 -155 l-17
-120 -106 -212 -107 -213 5148 0 5148 0 0 570 c0 324 -4 570 -9 570 -11 0 -41
-62 -41 -84 0 -13 -11 -16 -50 -16 -47 0 -50 -2 -50 -25 0 -16 -6 -25 -15 -25
-10 0 -15 -10 -15 -34 0 -18 -7 -39 -15 -46 -13 -11 -15 3 -15 114 0 119 -1
126 -20 126 -13 0 -20 7 -20 20 0 19 -7 20 -95 20 -79 0 -95 -3 -95 -15 0 -11
-14 -6 -52 20 -29 19 -65 35 -80 35 l-28 0 0 -129 0 -130 -49 -42 c-36 -30
-51 -50 -54 -73 -2 -17 -5 69 -5 192 -2 192 0 226 14 248 22 32 11 43 -52 55
-48 9 -104 4 -136 -13 -19 -9 -24 -43 -8 -53 6 -4 10 -108 10 -279 l0 -273
-30 -66 c-24 -54 -33 -64 -49 -60 -20 5 -20 6 2 24 22 18 21 18 -55 19 -61 0
-78 -3 -78 -14 0 -8 8 -17 18 -19 15 -4 15 -5 0 -6 -9 0 -23 6 -32 14 -8 8
-19 15 -25 15 -11 0 -14 16 -11 62 1 25 -2 28 -29 28 -29 0 -30 -2 -33 -47 -2
-26 -9 -48 -15 -51 -10 -3 -13 100 -15 480 -2 380 -6 482 -15 480 -10 -1 -13
18 -13 73 0 73 -1 75 -25 75 -18 0 -25 5 -25 20 0 15 -7 20 -27 20 -16 0 -35
-4 -43 -10 -8 -5 -17 -5 -20 -1 -3 5 -71 36 -152 69 l-148 60 -80 -20 -80 -20
0 -238 c0 -293 6 -281 -125 -239 -49 16 -102 31 -117 34 l-28 7 0 -145 c0
-156 0 -157 -56 -157 -19 0 -24 -5 -24 -25 0 -14 -4 -25 -10 -25 -5 0 -10 -20
-10 -45 0 -33 -4 -45 -15 -45 -13 0 -15 -46 -15 -355 0 -348 0 -355 -20 -355
-19 0 -20 7 -20 198 0 180 -2 200 -18 215 -10 10 -31 17 -45 17 l-27 0 0 435
0 435 -32 30 -33 29 -177 1 -178 0 0 -525 0 -525 -27 0 -28 0 3 640 c2 545 0
640 -12 640 -15 0 -26 21 -26 51 0 10 -7 19 -15 19 -8 0 -15 9 -15 20 0 13 -7
20 -19 20 -22 0 -29 27 -38 143 -4 50 -10 77 -18 77 -8 0 -15 -27 -19 -77 -11
-123 -16 -143 -37 -143 -12 0 -19 -7 -19 -19 0 -10 -7 -22 -16 -25 -10 -4 -14
-14 -12 -24 5 -18 -13 -42 -32 -42 -7 0 -9 -195 -8 -640 l3 -640 -52 0 -53 0
0 718 0 719 23 12 c13 7 37 43 57 88 19 42 67 116 105 165 75 95 108 151 151
266 26 68 43 79 44 28 0 -34 23 -95 37 -100 33 -13 74 41 100 129 l8 30 95 3
c111 4 158 -8 216 -55 51 -41 120 -72 159 -73 17 0 51 11 77 25 26 14 53 25
61 25 50 0 68 134 71 505 1 160 5 296 10 303 4 7 9 70 11 140 4 176 49 343
112 418 54 65 168 77 290 30 77 -29 87 -37 97 -78 16 -67 69 -77 115 -21 43
52 42 96 -4 167 -19 30 -35 58 -35 61 0 3 -8 17 -17 32 -9 14 -17 37 -18 51 0
29 -22 46 -163 127 -104 60 -151 69 -246 44 -39 -11 -111 -28 -161 -39 -188
-41 -230 -50 -236 -50 -6 0 5 108 11 113 3 2 37 22 75 44 39 23 92 60 118 83
41 36 48 47 45 74 -4 40 -43 55 -152 55 -68 1 -86 -3 -123 -25 -25 -14 -50
-23 -58 -20 -7 2 -19 30 -26 60 -7 31 -20 69 -30 86 -16 25 -25 30 -59 30 -23
0 -60 -10 -83 -21 -53 -27 -183 -115 -192 -130 -4 -6 11 -30 34 -52 l40 -42
-65 -34 c-36 -19 -73 -45 -81 -58 -15 -23 -15 -26 23 -64 22 -23 47 -39 61
-39 27 0 36 -26 31 -90 -3 -43 -3 -44 -53 -55 -27 -6 -72 -21 -100 -33 -27
-12 -75 -28 -106 -36 -102 -26 -160 -71 -174 -136 -4 -16 -11 -30 -17 -30 -11
0 -6 67 11 163 6 31 15 81 20 110 21 124 32 181 37 189 3 4 7 29 10 55 3 27 8
55 11 63 3 8 10 40 14 70 5 30 13 82 19 115 6 33 14 83 17 110 3 28 11 57 18
65 7 8 17 33 20 55 4 22 13 47 20 55 8 8 16 29 20 45 16 79 30 105 68 136 29
23 52 57 83 124 69 145 60 162 -78 144 -60 -8 -88 -16 -100 -30 -9 -10 -22
-19 -30 -19 -22 0 -78 -63 -78 -88 0 -12 4 -22 9 -22 18 0 20 -31 9 -117 -11
-83 -24 -121 -81 -230 -21 -41 -116 -146 -172 -190 -15 -12 -49 -42 -75 -67
-32 -31 -53 -44 -64 -40 -25 10 -68 111 -57 133 22 40 -21 116 -72 126 -17 4
-38 12 -45 18 -24 19 -94 17 -134 -5 -48 -27 -70 -73 -63 -130 l5 -43 -14 30
c-9 17 -15 37 -16 46 0 9 -7 29 -15 46 -30 61 -90 314 -86 363 8 77 6 84 -19
96 -32 16 -126 36 -175 38 -53 2 -64 -20 -40 -74 11 -24 37 -60 58 -81 44 -42
42 -36 47 -254 1 -49 6 -98 11 -107 5 -10 11 -35 13 -55 5 -42 37 -140 73
-218 12 -27 25 -66 27 -85 3 -19 9 -55 15 -79 8 -38 7 -46 -11 -65 -11 -11
-45 -56 -76 -99 -30 -42 -59 -77 -64 -77 -4 0 -8 -6 -8 -13 0 -7 -34 -49 -76
-92 -63 -67 -75 -76 -73 -55 1 14 -4 45 -11 70 -7 25 -15 54 -17 65 -6 33 -52
94 -85 115 -62 38 -123 51 -186 41 -31 -5 -69 -14 -83 -19 -30 -12 -89 -71
-89 -89 0 -7 -4 -13 -9 -13 -5 0 -12 -34 -16 -75 l-7 -76 -41 68 c-23 37 -67
93 -97 124 -71 74 -68 71 -120 158 -35 59 -41 76 -32 90 6 9 19 31 28 48 9 18
33 48 53 66 49 44 84 93 99 139 14 42 7 88 -14 88 -8 0 -18 8 -21 18 -10 25
-29 42 -48 42 -21 0 -75 -59 -75 -81 0 -9 -7 -22 -15 -29 -8 -7 -15 -19 -15
-26 0 -8 -4 -14 -10 -14 -5 0 -10 -6 -10 -14 0 -8 -6 -16 -14 -19 -17 -7 -28
19 -56 134 -37 149 -85 204 -122 141 -42 -71 -61 -225 -37 -302 5 -19 12 -46
15 -60 3 -14 17 -45 32 -70 56 -91 56 -92 10 -157 -45 -64 -59 -77 -103 -97
-37 -16 -82 -61 -91 -90 -4 -11 -17 -34 -28 -51 -12 -16 -28 -43 -36 -58 -8
-16 -29 -45 -47 -65 l-32 -37 10 39 c6 21 19 55 30 76 37 71 5 117 -125 179
-107 51 -154 63 -218 55 -68 -8 -102 -23 -188 -78 l-70 -45 -21 22 c-12 12
-33 38 -48 57 -14 19 -48 58 -75 87 -27 29 -67 87 -89 130 -21 43 -43 86 -48
95 -19 37 -3 198 20 198 4 0 14 18 21 40 19 59 4 102 -41 117 -20 6 -53 23
-74 37 -21 14 -50 26 -64 26 -14 0 -35 3 -46 6 -27 7 -65 -29 -65 -62 0 -21
29 -70 95 -160 6 -9 3 -19 -10 -34 -17 -18 -18 -26 -8 -63 9 -33 9 -69 -3
-162 -8 -66 -20 -131 -26 -145 -27 -62 -34 -74 -55 -87 -32 -21 -142 -37 -183
-26 -26 7 -51 5 -100 -9 -36 -10 -101 -21 -145 -25 l-81 -6 -12 39 c-6 21 -8
41 -4 44 28 19 42 59 42 120 1 36 4 83 8 105 5 22 6 62 4 89 -4 41 -11 55 -51
96 -116 120 -269 89 -366 -76 -33 -56 -42 -133 -21 -178 9 -19 24 -71 33 -115
16 -77 16 -82 0 -98 -11 -12 -32 -17 -60 -16 -38 1 -259 10 -298 12 -9 1 -43
19 -77 41 -96 62 -116 127 -112 360 2 172 6 200 35 258 23 47 24 57 14 90 -10
33 -55 78 -117 116 -16 9 -92 -12 -92 -26 0 -4 -5 -8 -11 -8 -5 0 -7 5 -4 10
4 6 1 18 -6 26 -9 11 -10 50 -5 154 l7 140 -45 45 c-59 59 -91 61 -114 6 -12
-28 -26 -42 -49 -50 -40 -15 -42 -34 -9 -82 57 -84 60 -98 59 -314 -1 -146 -6
-209 -16 -233 l-14 -33 -27 40 c-28 40 -49 51 -100 51 -16 0 -38 8 -49 18 -14
12 -36 17 -82 17 -58 0 -69 -4 -122 -41 -46 -31 -65 -54 -91 -105 -36 -69 -35
-55 -15 -229 5 -48 4 -54 -9 -42 -16 13 -57 267 -45 279 4 3 2 12 -3 18 -6 7
-11 43 -11 81 -1 38 -7 80 -14 94 -12 24 -17 61 -31 262 -6 81 -5 90 20 134
33 60 33 79 -3 115 -16 16 -32 43 -36 59 -8 38 -41 70 -71 70 -13 0 -35 -15
-52 -35z m929 -1298 c21 -25 62 -59 91 -77 177 -110 215 -140 222 -182 6 -36
20 -56 56 -82 22 -17 40 -34 40 -38 0 -5 8 -25 17 -46 9 -20 17 -44 18 -52 1
-8 9 -40 18 -70 38 -134 45 -222 26 -354 -6 -45 -12 -121 -14 -171 -2 -58 -11
-111 -25 -150 -11 -33 -20 -61 -20 -63 4 -8 -14 -70 -25 -87 -7 -11 -18 -45
-25 -75 -7 -30 -18 -75 -26 -100 -23 -76 -46 -182 -54 -245 -23 -171 -23 -183
-6 -234 14 -44 16 -136 16 -835 l0 -786 -52 0 -53 0 3 640 c2 455 -1 640 -9
640 -17 0 -36 24 -31 39 3 8 -3 20 -12 26 -10 8 -19 37 -25 83 -6 45 -17 82
-30 101 -12 16 -21 41 -21 55 0 17 -5 26 -16 26 -10 0 -30 32 -56 88 -41 86
-50 116 -69 222 -5 30 -14 59 -20 66 -7 9 -22 238 -21 339 0 11 -4 70 -9 130
-5 61 -11 188 -14 284 -3 96 -9 179 -12 184 -7 11 -22 125 -28 207 -5 75 9
201 31 279 8 29 17 65 19 80 2 14 11 46 20 71 13 37 30 156 36 250 1 14 6 -7
11 -47 9 -63 15 -78 49 -116z m3150 8 c6 -16 13 -36 15 -43 1 -7 12 -29 23
-50 30 -53 67 -132 81 -172 7 -19 18 -51 25 -70 7 -19 16 -62 19 -95 4 -33 11
-73 16 -90 10 -34 20 -216 21 -375 0 -84 -4 -122 -25 -189 -19 -64 -22 -89
-14 -104 19 -37 -2 -96 -126 -349 -68 -139 -129 -270 -137 -291 -19 -54 -43
-74 -72 -58 -12 6 -44 16 -72 21 -27 5 -62 12 -77 16 -17 4 -39 0 -59 -10 -18
-9 -33 -16 -34 -16 -1 0 -2 31 -3 68 0 37 -7 88 -15 113 -17 49 -27 114 -32
198 -6 108 -16 196 -25 241 -6 25 -10 54 -11 65 0 11 -2 54 -5 95 -2 41 -1 81
4 88 6 9 37 15 82 18 106 7 144 32 209 138 23 36 41 71 41 76 0 6 5 10 10 10
20 0 10 59 -14 82 -13 13 -45 43 -70 67 l-46 44 6 56 c3 31 12 70 18 86 7 17
28 66 46 110 56 134 68 158 115 225 25 35 45 70 45 77 0 7 8 28 17 48 14 30
18 33 24 18 4 -10 13 -31 20 -48z m-1285 -60 c9 -33 22 -73 29 -90 6 -16 18
-46 25 -65 7 -19 19 -49 26 -67 8 -17 14 -38 14 -46 0 -9 4 -18 9 -21 4 -3 14
-34 21 -68 6 -35 16 -71 21 -80 23 -43 27 -115 13 -257 -8 -80 -13 -209 -12
-286 1 -111 -2 -148 -15 -176 -9 -20 -21 -88 -28 -150 -10 -107 -33 -205 -64
-274 -7 -16 -19 -65 -26 -108 -12 -70 -11 -81 4 -110 18 -33 18 -34 -52 -297
-39 -146 -77 -285 -86 -310 -17 -49 -29 -143 -30 -232 0 -49 4 -62 26 -83 29
-29 62 -27 97 5 28 26 85 179 178 473 90 285 105 313 168 302 l38 -8 -4 -431
c-3 -429 -3 -431 18 -434 50 -7 113 85 139 206 8 37 31 144 51 237 19 94 41
177 48 185 7 8 23 56 36 105 12 50 27 95 32 102 5 7 26 17 45 24 31 10 37 9
45 -5 12 -21 36 -20 109 5 87 30 149 23 224 -27 42 -29 68 -39 97 -39 50 0 73
25 223 232 35 49 58 69 104 92 32 17 75 48 97 70 36 39 48 43 49 18 1 -7 4
-32 8 -57 4 -25 9 -68 12 -96 2 -28 7 -59 11 -68 7 -17 5 -17 -26 -1 -32 16
-36 16 -64 1 -17 -10 -47 -38 -66 -63 -19 -24 -43 -55 -54 -68 -13 -16 -17
-31 -12 -49 8 -33 45 -35 88 -5 38 27 107 36 150 19 18 -8 51 -26 72 -42 22
-15 45 -28 52 -28 15 0 59 57 69 90 4 14 13 39 20 55 22 51 35 143 46 315 17
279 17 280 -14 325 -26 38 -36 85 -18 85 5 0 12 12 16 27 6 24 8 26 18 13 34
-45 89 -61 139 -41 19 8 131 44 288 92 19 6 44 14 55 19 41 19 184 50 202 44
59 -19 60 -20 120 -164 8 -19 23 -53 33 -75 10 -22 21 -49 24 -61 10 -32 78
-102 108 -109 74 -19 168 89 168 192 0 51 -15 101 -35 115 -5 4 -7 8 -3 8 3 0
0 20 -7 43 -18 59 -4 219 26 295 5 13 9 44 10 70 1 26 5 58 9 72 8 24 8 24 9
3 1 -13 17 -41 37 -63 30 -33 43 -40 75 -40 46 0 55 11 36 50 l-15 29 24 -16
c23 -14 26 -14 44 2 26 23 25 35 -4 78 -32 47 -27 121 15 195 52 93 104 128
172 117 72 -12 109 -42 149 -120 23 -44 30 -141 11 -153 -22 -14 -56 -140 -48
-180 5 -20 9 -45 10 -55 2 -17 -29 -69 -69 -114 -39 -46 -57 -107 -86 -301 -6
-34 -14 -70 -19 -80 -5 -9 -14 -29 -21 -43 -6 -14 -21 -37 -33 -51 -58 -68
-71 -88 -99 -148 -16 -36 -38 -81 -48 -100 -10 -20 -23 -55 -29 -78 -9 -33
-46 -105 -78 -151 -3 -4 -233 52 -266 65 -16 6 -17 -60 -17 -930 0 -617 -3
-936 -10 -936 -5 0 -10 -22 -10 -50 0 -27 -4 -50 -10 -50 -5 0 -10 21 -10 48
0 56 -30 112 -60 112 -11 0 -20 -4 -20 -9 0 -5 -9 -7 -20 -4 -20 5 -20 14 -20
513 l0 508 -47 10 c-27 6 -97 20 -158 32 l-110 22 -120 -30 c-66 -16 -132 -33
-147 -36 l-28 -6 0 -210 c0 -116 -3 -209 -7 -208 -14 3 -287 -13 -305 -18 -10
-3 -18 -11 -18 -19 0 -9 -19 -16 -57 -20 -131 -14 -123 -9 -123 -70 0 -48 -2
-55 -20 -55 -19 0 -20 -7 -20 -90 l0 -90 -30 0 c-25 0 -30 -4 -30 -25 0 -16
-6 -25 -15 -25 -12 0 -15 15 -15 75 0 72 -4 81 -32 76 -5 0 -8 26 -8 59 0 44
-4 60 -14 60 -7 0 -16 9 -19 20 -6 24 -24 25 -122 3 l-75 -16 0 -149 0 -148
-55 0 c-43 0 -55 3 -55 15 0 9 -7 18 -15 21 -9 4 -15 19 -15 35 0 24 -4 29
-24 29 -13 0 -40 7 -60 15 -28 12 -36 21 -36 40 l0 25 -115 0 -115 0 0 -25 c0
-19 -8 -28 -36 -40 -20 -8 -47 -15 -60 -15 -20 0 -24 -5 -24 -29 0 -16 -6 -31
-15 -35 -8 -3 -15 -12 -15 -21 0 -12 -12 -15 -55 -15 l-55 0 0 148 0 149 -75
16 c-98 22 -116 21 -122 -3 -3 -11 -12 -20 -19 -20 -10 0 -14 -16 -14 -60 0
-33 -3 -59 -7 -59 -29 5 -33 -4 -33 -76 0 -60 -3 -75 -15 -75 -9 0 -15 9 -15
25 0 21 -5 25 -30 25 l-30 0 0 90 c0 83 -1 90 -20 90 -18 0 -20 7 -20 55 0 61
8 56 -122 70 -39 4 -58 11 -58 20 0 8 -8 16 -17 19 -19 5 -292 21 -305 18 -5
-1 -8 92 -8 208 l0 210 -27 6 c-16 3 -82 20 -148 36 l-120 30 -110 -22 c-60
-12 -131 -26 -157 -32 l-48 -10 0 -508 c0 -499 0 -508 -20 -513 -11 -3 -20 -1
-20 4 0 5 -9 9 -20 9 -30 0 -60 -56 -60 -112 0 -27 -4 -48 -10 -48 -5 0 -10
23 -10 50 0 28 -4 50 -10 50 -7 0 -10 281 -10 824 l0 825 33 25 c93 71 169 91
228 61 16 -9 33 -14 38 -11 4 3 30 -38 57 -91 52 -104 83 -133 142 -133 45 0
83 21 128 73 37 41 56 74 74 122 4 11 12 32 18 47 13 32 20 89 27 217 7 137
24 167 224 391 143 161 183 241 147 295 -10 15 -26 25 -40 25 -44 0 -142 -60
-251 -154 -60 -53 -113 -95 -116 -96 -8 0 -49 83 -94 191 -32 75 -32 79 -29
205 8 289 25 424 63 494 4 8 49 35 98 60 107 53 123 65 123 94 0 16 10 26 38
36 35 12 114 47 208 91 63 29 96 73 103 133 2 28 6 42 8 31 2 -11 11 -47 19
-80z m2562 -28 c18 -29 32 -58 32 -65 0 -7 4 -12 9 -12 5 0 15 -16 22 -35 7
-19 17 -35 21 -35 4 0 8 -6 8 -14 0 -8 9 -30 19 -48 29 -51 33 -97 15 -188
-17 -90 -43 -137 -110 -202 -41 -39 -277 -198 -294 -198 -6 0 -10 -4 -10 -8 0
-12 -115 -72 -138 -72 -29 0 -67 59 -64 100 5 68 24 145 41 170 10 14 26 44
36 68 10 23 22 42 27 42 4 0 8 6 8 14 0 8 20 41 44 73 24 33 54 78 67 100 37
62 80 125 106 157 13 15 41 65 63 110 41 84 48 96 60 96 3 0 20 -24 38 -53z
m1341 -1151 c-1 -23 1 -63 5 -90 9 -62 9 -59 7 -71 -2 -16 -87 -42 -192 -58
-26 -4 -25 -2 23 65 27 37 62 81 78 96 16 16 35 53 45 87 16 54 18 58 26 36 5
-13 9 -43 8 -65z"/>
</g>
</svg>
