<?xml version="1.0" standalone="no"?>
<!DOCTYPE svg PUBLIC "-//W3C//DTD SVG 20010904//EN"
 "http://www.w3.org/TR/2001/REC-SVG-20010904/DTD/svg10.dtd">
<svg version="1.0" xmlns="http://www.w3.org/2000/svg"
 width="736.000000pt" height="941.000000pt" viewBox="0 0 736.000000 941.000000"
 preserveAspectRatio="xMidYMid meet">
<metadata>
Created by potrace 1.16, written by Peter Selinger 2001-2019
</metadata>
<g transform="translate(0.000000,941.000000) scale(0.100000,-0.100000)"
fill="#000000" stroke="none">
<path d="M5050 9200 c-78 -9 -154 -33 -195 -60 -16 -11 -36 -20 -44 -20 -7 0
-79 -60 -160 -133 -80 -74 -186 -161 -236 -194 -95 -63 -250 -143 -277 -143
-8 0 -41 11 -72 25 -61 27 -177 49 -207 40 -11 -4 -39 1 -63 10 -29 11 -62 15
-98 12 -73 -6 -177 -26 -199 -38 -34 -18 -173 -49 -221 -49 -40 0 -50 -4 -64
-25 -19 -29 -44 -32 -80 -8 -21 14 -31 14 -58 5 -43 -16 -61 -15 -97 3 -20 11
-67 17 -145 19 l-116 4 -37 42 c-35 41 -39 43 -77 36 -44 -8 -39 -8 -114 0
l-55 6 -65 -56 c-36 -30 -78 -58 -95 -62 -36 -8 -87 -33 -97 -47 -4 -6 -53
-10 -125 -9 -85 1 -171 -7 -308 -28 -242 -37 -410 -52 -489 -44 -48 5 -70 3
-94 -10 -17 -9 -43 -16 -57 -16 -15 0 -38 -9 -52 -20 -14 -11 -32 -20 -40 -20
-8 0 -49 -12 -91 -26 -42 -14 -89 -26 -104 -26 -15 -1 -69 20 -120 45 -124 61
-133 63 -152 35 -21 -29 -20 -31 9 -66 l25 -30 -35 8 c-19 4 -91 27 -159 51
-122 43 -125 43 -145 25 -47 -42 -21 -72 129 -146 143 -71 144 -72 73 -86
-114 -23 -194 -26 -278 -10 -97 19 -90 19 -109 0 -22 -21 -20 -57 4 -79 12
-11 20 -31 20 -50 0 -55 47 -86 185 -121 107 -28 166 -30 271 -8 130 27 267 5
294 -46 10 -20 8 -27 -23 -59 -48 -50 -57 -70 -45 -100 16 -44 38 -61 80 -61
39 0 88 34 88 61 0 6 60 69 133 139 85 82 140 143 152 169 10 23 23 41 29 41
6 0 26 13 44 30 18 16 47 32 66 35 40 8 426 -30 514 -50 35 -8 95 -18 134 -22
69 -6 73 -8 125 -59 32 -33 67 -57 90 -63 43 -12 159 -13 218 -2 30 5 51 2 84
-12 37 -16 61 -19 137 -15 70 4 96 2 106 -9 12 -11 132 -58 245 -95 31 -11 31
-12 15 -33 -15 -20 -19 -20 -55 -8 -42 15 -106 8 -305 -33 -22 -4 -40 -1 -57
10 -13 9 -30 16 -37 16 -21 -1 -62 -42 -80 -82 -9 -20 -26 -39 -37 -43 -22 -7
-57 -58 -81 -117 -14 -34 -28 -43 -173 -117 -131 -67 -168 -82 -214 -84 -30
-2 -58 -9 -62 -15 -8 -14 -109 -42 -150 -42 -16 0 -34 7 -41 15 -7 9 -41 31
-75 50 -75 42 -90 58 -104 110 -19 74 -117 205 -152 205 -10 0 -23 -9 -29 -20
-9 -17 -6 -29 20 -68 17 -26 33 -58 36 -72 3 -14 12 -44 19 -67 8 -25 10 -44
4 -44 -5 -1 -13 -2 -18 -3 -5 -1 -26 22 -47 50 -40 52 -197 194 -215 194 -23
0 -49 -22 -49 -41 0 -11 17 -36 39 -57 73 -71 181 -210 175 -226 -5 -14 -11
-12 -37 10 -16 14 -56 38 -87 54 -31 16 -87 49 -124 75 -52 35 -75 45 -99 43
-28 -3 -32 -7 -35 -35 -3 -30 4 -38 98 -112 55 -45 127 -99 160 -121 33 -23
60 -46 60 -53 0 -15 -184 -12 -273 4 -49 9 -62 8 -83 -6 -28 -18 -31 -46 -6
-68 20 -18 148 -50 267 -66 101 -14 148 -27 206 -57 92 -46 114 -115 62 -190
-38 -55 -44 -147 -13 -186 36 -46 80 -32 80 26 0 47 44 132 77 149 15 8 39 27
52 41 14 15 45 38 69 52 39 23 45 24 60 11 24 -21 40 -22 92 -7 25 7 49 13 53
12 4 -1 22 5 39 14 17 9 41 18 54 20 43 8 73 23 83 42 14 25 178 68 295 77 49
3 114 11 144 16 43 8 57 8 70 -4 70 -61 145 -62 212 -2 14 12 43 27 66 33 22
7 49 21 59 32 10 11 23 20 29 20 18 0 20 -250 2 -360 -27 -166 -36 -404 -32
-769 4 -275 7 -357 18 -367 7 -7 96 -29 198 -49 102 -19 194 -37 205 -40 11
-2 33 -26 50 -52 25 -40 30 -59 31 -114 1 -36 7 -75 13 -87 6 -11 11 -44 11
-72 0 -37 4 -52 16 -57 8 -3 13 -11 10 -19 -3 -7 4 -24 15 -37 10 -14 19 -32
19 -41 0 -9 7 -19 15 -22 8 -4 15 -17 15 -30 0 -16 9 -28 28 -38 18 -10 33
-30 45 -64 9 -28 35 -74 57 -103 22 -30 40 -62 40 -71 0 -11 23 -33 58 -56 31
-21 71 -51 88 -67 17 -17 48 -41 68 -55 20 -14 41 -35 46 -48 6 -13 23 -31 40
-40 16 -9 30 -20 30 -24 0 -4 20 -31 44 -61 51 -63 66 -89 66 -115 0 -11 8
-30 19 -43 10 -13 16 -30 14 -36 -3 -7 17 -72 42 -145 26 -73 54 -155 62 -183
8 -27 21 -63 28 -80 32 -72 85 -214 85 -227 0 -8 9 -23 20 -33 11 -10 20 -29
20 -43 0 -13 14 -41 30 -62 17 -21 30 -49 30 -63 0 -14 5 -29 10 -32 6 -3 10
-16 10 -28 1 -12 7 -39 15 -61 13 -37 12 -39 -20 -82 -18 -24 -36 -57 -40 -73
-4 -19 -19 -38 -41 -51 -18 -12 -44 -36 -56 -53 -12 -18 -91 -101 -175 -185
-135 -134 -169 -175 -283 -341 -108 -158 -137 -193 -176 -216 -26 -15 -78 -58
-116 -96 -38 -37 -89 -79 -111 -93 -23 -14 -61 -47 -84 -75 -41 -47 -256 -201
-311 -222 -22 -9 -24 -13 -18 -49 l6 -40 -27 12 c-16 7 -35 18 -44 25 -8 7
-26 13 -40 13 -13 0 -35 12 -48 25 -13 14 -27 25 -31 25 -14 0 -65 -47 -77
-72 -65 -131 -114 -244 -128 -298 -9 -36 -23 -87 -30 -115 -8 -27 -17 -68 -21
-90 -4 -22 -24 -83 -44 -135 -20 -52 -52 -137 -71 -189 -23 -63 -47 -108 -72
-137 -32 -37 -40 -54 -48 -110 -12 -83 -53 -170 -119 -252 -55 -69 -73 -103
-64 -127 4 -9 31 -32 61 -52 49 -32 64 -37 132 -41 94 -5 123 7 197 84 36 37
76 65 130 90 44 21 99 56 124 80 121 113 185 164 204 164 5 0 1 -9 -8 -19 -23
-25 -17 -55 12 -59 16 -3 34 7 58 33 19 20 34 42 34 49 0 16 32 46 48 46 15 0
16 -36 2 -45 -19 -12 -10 -42 15 -53 38 -18 42 -16 49 28 6 37 8 40 27 29 40
-21 173 28 204 75 9 13 29 29 45 36 33 14 56 37 46 47 -3 4 -22 -1 -41 -10
-20 -9 -53 -17 -73 -17 -21 0 -42 -4 -47 -9 -6 -5 -39 -21 -74 -35 -60 -24
-65 -25 -77 -8 -11 15 -9 18 14 27 68 25 91 45 102 86 16 60 2 93 -42 99 l-36
5 64 69 63 69 53 -41 c98 -76 163 -83 219 -26 18 20 54 47 79 62 136 79 290
242 440 467 29 44 85 114 123 155 69 74 249 333 321 463 31 55 50 75 104 111
183 122 207 141 253 211 26 39 80 99 119 134 79 70 152 163 180 226 10 23 20
68 24 100 3 33 11 110 17 172 18 175 -4 350 -105 833 -54 259 -100 412 -215
715 -55 147 -79 239 -91 355 -6 63 -14 124 -16 135 -4 16 5 26 36 45 23 14 69
43 103 66 72 47 229 121 412 195 169 68 287 123 409 192 55 31 102 54 106 52
4 -2 10 -35 13 -73 4 -38 21 -123 38 -188 38 -142 42 -240 15 -297 -18 -37
-18 -42 -2 -130 9 -51 21 -141 26 -202 6 -60 13 -117 15 -125 3 -9 -9 -24 -31
-38 -68 -44 -81 -125 -39 -244 14 -39 25 -79 25 -89 0 -9 -16 -41 -36 -70 -32
-48 -36 -59 -32 -106 4 -46 2 -52 -19 -62 -13 -6 -31 -11 -40 -11 -9 0 -26 -8
-37 -18 -12 -10 -41 -24 -65 -31 l-43 -13 4 -47 c5 -53 65 -163 169 -311 33
-47 75 -107 95 -135 78 -111 94 -136 190 -280 54 -82 101 -152 104 -155 3 -3
32 -43 63 -90 122 -180 145 -208 246 -308 160 -159 208 -178 269 -111 76 86
68 193 -27 343 -34 55 -41 74 -41 118 0 29 -5 85 -11 123 -6 39 -14 99 -18
134 -4 36 -13 67 -19 69 -8 2 -8 12 3 33 9 16 13 41 10 56 -4 22 -2 20 8 -7 8
-19 20 -36 29 -38 22 -4 51 34 48 65 -8 97 -5 126 18 141 26 17 30 37 6 28
-10 -4 -25 1 -35 10 -15 14 -17 26 -12 80 5 49 2 69 -11 89 -21 32 -37 32 -65
-1 -12 -14 -27 -24 -34 -21 -11 3 -35 127 -36 188 -1 39 33 49 165 49 194 0
220 33 147 185 -35 75 -36 79 -24 129 21 89 42 347 32 396 -5 25 -9 72 -10
105 -4 147 -22 405 -32 460 -7 39 -10 176 -7 395 3 366 6 345 -62 555 -21 66
-46 151 -55 189 -32 134 -94 233 -179 286 -126 77 -349 100 -747 75 -171 -10
-265 -21 -349 -40 -63 -14 -144 -32 -180 -39 -36 -8 -119 -32 -185 -54 -92
-31 -123 -38 -131 -29 -6 7 -17 44 -24 82 -7 39 -26 112 -41 164 -16 51 -29
100 -29 107 0 13 -33 140 -87 334 -15 52 -42 130 -60 173 -33 79 -38 111 -27
177 5 31 13 38 63 63 49 23 63 25 88 16 25 -8 38 -6 73 12 43 22 84 74 73 92
-3 5 12 -2 33 -17 21 -14 46 -26 55 -26 17 0 69 53 69 70 0 4 44 10 98 12 106
5 169 25 191 60 7 11 15 45 16 74 2 28 10 65 18 80 27 54 46 159 48 269 3 120
-8 256 -23 295 -5 14 -16 64 -24 113 -21 127 -53 199 -131 290 -49 56 -82 85
-122 104 -30 15 -74 42 -97 59 -23 18 -51 37 -62 43 -23 12 -130 12 -232 1z"/>
</g>
</svg>
