<?xml version="1.0" standalone="no"?>
<!DOCTYPE svg PUBLIC "-//W3C//DTD SVG 20010904//EN"
 "http://www.w3.org/TR/2001/REC-SVG-20010904/DTD/svg10.dtd">
<svg version="1.0" xmlns="http://www.w3.org/2000/svg"
 width="2000.000000pt" height="2000.000000pt" viewBox="0 0 2000.000000 2000.000000"
 preserveAspectRatio="xMidYMid meet">
<metadata>
Created by potrace 1.16, written by Peter Selinger 2001-2019
</metadata>
<g transform="translate(0.000000,2000.000000) scale(0.100000,-0.100000)"
fill="#000000" stroke="none">
<path d="M10613 18443 c4 -356 8 -664 11 -683 2 -19 7 -109 10 -200 4 -91 9
-183 11 -205 2 -22 7 -83 10 -135 9 -159 31 -443 40 -520 2 -19 9 -89 15 -155
6 -66 13 -136 15 -155 2 -19 11 -100 20 -180 8 -80 18 -163 20 -185 l6 -40
-17 35 c-59 129 -833 2000 -1079 2610 -81 201 -151 373 -157 383 -8 16 -49 17
-685 15 l-676 -3 -223 -605 c-198 -536 -552 -1503 -753 -2060 -38 -107 -71
-193 -72 -190 -3 10 -7 77 -13 225 -13 312 -26 572 -31 625 -2 30 -7 100 -10
155 -3 55 -7 125 -10 155 -2 30 -7 100 -10 155 -3 55 -8 123 -10 150 -6 74
-14 165 -25 310 -13 171 -39 478 -45 535 -3 25 -14 142 -25 260 -11 118 -23
226 -26 238 -5 23 -7 24 -87 18 -45 -3 -129 -8 -187 -11 -58 -3 -141 -7 -185
-10 -44 -3 -125 -7 -180 -10 -55 -3 -136 -7 -180 -10 -44 -3 -120 -7 -170 -10
-49 -3 -160 -9 -245 -15 -85 -5 -198 -13 -250 -16 -52 -3 -96 -7 -97 -8 -4 -4
-223 -691 -394 -1236 l-42 -135 -28 105 c-38 140 -268 1008 -314 1185 -20 77
-38 148 -41 158 -5 16 -13 17 -57 13 -61 -7 -119 -12 -277 -26 -63 -6 -133
-12 -155 -15 -22 -2 -67 -7 -100 -10 -33 -3 -76 -7 -95 -10 -19 -2 -66 -7
-105 -10 -38 -3 -81 -8 -95 -10 -14 -2 -56 -7 -95 -10 -38 -3 -108 -10 -155
-16 -47 -5 -101 -11 -120 -14 -288 -31 -436 -49 -441 -54 -4 -3 -10 -82 -13
-176 -4 -93 -9 -199 -11 -235 -2 -36 -7 -132 -10 -215 -3 -82 -8 -186 -10
-230 -3 -44 -7 -143 -10 -220 -3 -77 -8 -178 -10 -225 -2 -47 -7 -152 -10
-235 -3 -82 -8 -186 -10 -230 -2 -44 -7 -143 -10 -220 -3 -77 -8 -180 -10
-230 -2 -49 -7 -153 -10 -230 -7 -168 -14 -326 -20 -455 -3 -52 -7 -160 -10
-240 -3 -80 -7 -190 -10 -245 -3 -55 -7 -163 -10 -240 -3 -77 -7 -185 -10
-240 -3 -55 -7 -165 -10 -245 -3 -80 -7 -192 -10 -250 -5 -106 -11 -254 -20
-455 -3 -60 -7 -177 -10 -260 -6 -161 -11 -299 -21 -487 -3 -65 -3 -118 0
-118 3 0 115 46 248 101 389 163 684 275 1146 439 52 18 95 38 97 44 2 6 9
112 15 236 6 124 13 250 15 280 2 30 7 132 11 225 4 94 8 177 9 185 2 8 4 38
6 65 1 31 4 40 6 23 2 -16 7 -28 9 -28 3 0 100 30 217 66 297 92 614 183 872
249 121 31 237 61 257 66 20 5 39 17 41 27 6 18 0 -472 -8 -785 -4 -130 -2
-193 5 -193 5 0 110 22 233 49 471 105 887 181 1315 242 l82 11 0 98 0 97 152
6 c83 4 212 7 286 7 118 0 133 -2 128 -16 -3 -9 -6 -48 -6 -88 l0 -72 -107
-18 c-126 -21 -476 -91 -547 -109 -54 -13 -43 5 -120 -210 -16 -43 -30 -76
-33 -74 -2 3 -26 67 -53 143 -40 114 -51 138 -66 136 -47 -9 -512 -139 -690
-193 l-202 -61 -6 -78 -7 -78 -57 35 c-104 62 -176 78 -352 77 -168 0 -257
-16 -432 -74 -238 -80 -461 -243 -619 -453 -33 -43 -59 -75 -59 -72 0 4 16 58
36 121 20 64 33 118 30 121 -15 15 -543 -106 -731 -167 -346 -113 -582 -249
-803 -464 -274 -267 -403 -549 -389 -851 13 -294 172 -518 427 -600 31 -10
103 -21 165 -24 l110 -6 -66 -13 c-84 -15 -265 -15 -396 2 l-103 13 -34 -111
c-98 -315 -336 -1131 -336 -1152 0 -10 14 -8 57 6 32 10 155 48 273 85 700
216 1143 472 1388 803 68 92 156 230 196 310 l26 52 45 -34 c24 -19 70 -45
102 -58 52 -20 74 -23 203 -22 171 0 256 20 485 111 255 101 505 245 647 372
56 50 60 52 290 122 128 39 330 97 448 129 l215 57 7 89 c14 195 19 248 21
249 1 1 20 7 42 12 75 20 320 84 338 89 17 5 18 -5 16 -161 -1 -91 1 -168 4
-171 2 -3 114 15 248 40 219 40 332 58 609 99 85 13 85 13 88 44 4 37 -5 34
187 63 209 31 528 68 745 85 41 3 100 8 130 10 30 2 101 7 158 11 l102 6 1 72
c1 39 2 85 4 101 1 17 5 118 9 225 3 107 9 252 12 323 l6 127 -41 0 -41 0 6
93 c3 50 7 112 9 137 2 25 4 69 4 98 l1 52 65 0 65 0 0 436 c0 410 -1 435 -17
430 -10 -2 -108 -7 -218 -11 -110 -4 -213 -8 -230 -10 -16 -2 -79 -7 -140 -10
-135 -7 -173 -10 -454 -36 -123 -11 -225 -18 -226 -17 -2 3 385 1271 389 1274
3 3 184 14 321 19 83 3 171 8 196 10 l46 5 22 -72 c12 -40 96 -315 188 -611
155 -498 169 -538 188 -534 295 66 1090 212 1365 251 l45 6 19 -112 c33 -195
33 -182 -2 -175 -35 7 -42 -4 -42 -61 0 -31 -2 -33 -12 -19 -16 19 -50 24
-233 32 -77 4 -158 8 -180 10 -22 2 -141 7 -264 11 l-224 7 7 -694 c3 -382 8
-712 10 -734 3 -22 10 -134 16 -250 7 -115 13 -211 14 -212 1 -1 98 -4 216 -7
118 -4 257 -8 308 -11 248 -13 292 -16 351 -21 l64 -6 -7 59 -7 58 24 -35 c13
-19 34 -54 47 -77 13 -24 31 -45 39 -47 9 -2 63 -7 121 -11 58 -3 121 -8 140
-10 19 -2 69 -7 110 -10 93 -8 415 -43 454 -50 l28 -5 -7 57 c-4 31 -10 63
-13 72 -4 10 7 6 29 -12 71 -58 203 -140 292 -182 178 -85 487 -176 712 -211
204 -31 441 -8 567 57 l40 20 -3 -86 -4 -87 185 -82 c263 -117 695 -324 677
-325 -4 -1 -70 14 -145 33 -392 99 -845 164 -1322 191 -52 3 -133 8 -180 10
-81 5 -111 7 -315 20 -49 3 -137 10 -195 16 -58 5 -141 12 -185 15 -44 3 -86
7 -92 9 -84 26 -1149 26 -1433 0 -25 -2 -83 -7 -130 -10 -47 -4 -101 -8 -120
-10 -19 -2 -87 -9 -150 -15 -477 -46 -648 -87 -890 -211 -169 -87 -285 -174
-456 -344 -159 -157 -260 -279 -462 -557 -190 -260 -318 -464 -448 -713 -160
-308 -260 -567 -340 -882 -58 -229 -77 -286 -149 -438 -149 -317 -195 -491
-181 -675 17 -215 83 -355 222 -470 91 -76 110 -111 135 -251 23 -129 30 -150
69 -197 36 -44 40 -103 10 -161 -27 -55 -71 -88 -180 -138 -96 -44 -148 -70
-298 -149 -46 -24 -94 -44 -107 -44 -29 0 -122 75 -186 151 -69 81 -72 89 -58
157 10 50 10 69 -4 125 -24 92 -22 117 17 210 79 192 85 260 41 440 -14 59
-23 117 -20 128 4 11 42 58 86 104 88 93 115 145 149 280 16 65 21 114 21 211
-1 199 -37 312 -131 419 -66 75 -80 108 -80 188 0 133 57 267 154 362 34 33
136 111 226 174 216 150 311 244 371 365 44 89 44 89 44 200 0 102 -2 116 -29
171 -35 71 -127 166 -208 213 -124 73 -272 103 -473 96 -492 -16 -874 -300
-1029 -765 -39 -115 -65 -256 -68 -366 -1 -40 -3 -73 -5 -73 -3 0 -48 11 -101
25 -222 56 -361 70 -672 69 -261 0 -380 -12 -575 -59 -311 -74 -544 -192 -710
-360 -223 -226 -282 -516 -157 -774 29 -61 115 -158 177 -201 174 -120 488
-96 829 61 72 34 145 63 162 66 28 5 32 2 46 -33 9 -22 25 -72 37 -111 24 -82
26 -77 -43 -178 -75 -112 -88 -247 -36 -395 34 -97 37 -149 13 -187 -15 -23
-18 -50 -18 -163 0 -132 1 -137 33 -204 65 -138 153 -224 304 -296 126 -60
213 -78 418 -83 269 -7 328 -33 552 -243 68 -64 161 -151 208 -192 47 -42 141
-131 210 -197 194 -187 298 -245 415 -231 76 9 125 28 270 109 124 68 222 110
236 101 4 -2 13 -43 19 -91 17 -118 8 -289 -24 -438 -14 -66 -30 -149 -36
-185 -6 -36 -18 -89 -26 -117 -17 -63 -15 -62 -196 -36 -109 16 -121 16 -193
0 -182 -39 -394 -171 -511 -319 -30 -37 -61 -68 -69 -68 -8 0 -53 14 -100 31
-120 43 -120 43 -121 249 -1 112 -7 192 -19 249 -95 468 -368 748 -814 838
-133 27 -490 24 -627 -5 -266 -57 -462 -154 -627 -312 -172 -163 -275 -369
-322 -644 -9 -54 -26 -122 -37 -150 -54 -134 -62 -271 -26 -440 44 -203 183
-454 436 -789 29 -37 52 -75 52 -84 0 -33 -83 -94 -213 -158 -130 -63 -201
-87 -284 -99 -38 -6 -43 -4 -47 16 -2 13 -11 61 -20 107 -8 47 -29 113 -46
147 -31 63 -50 83 -132 140 -42 29 -46 36 -57 95 -8 44 -9 94 -3 158 11 124 6
216 -13 268 -18 47 -71 98 -124 120 -47 20 -166 20 -211 0 -131 -57 -155 -175
-86 -419 40 -140 52 -219 42 -271 -3 -19 -27 -66 -52 -106 -44 -69 -47 -77
-52 -159 -6 -107 9 -181 53 -270 115 -228 401 -372 737 -372 311 0 556 125
745 380 27 36 56 66 65 68 10 2 64 -43 140 -116 140 -135 225 -200 386 -297
256 -154 561 -261 835 -295 112 -14 361 -9 447 10 92 19 212 59 285 95 38 18
71 33 72 32 1 -1 11 -61 23 -132 93 -575 313 -899 667 -979 247 -56 474 -7
612 132 91 90 151 223 151 333 0 81 17 97 193 182 237 114 272 155 272 322 0
109 -12 151 -67 238 -78 122 -229 161 -340 87 -24 -16 -97 -87 -162 -159 -66
-71 -135 -138 -155 -149 -20 -11 -67 -25 -106 -31 -54 -8 -99 -25 -198 -76
-162 -84 -198 -88 -257 -30 -50 49 -119 185 -163 321 -19 60 -58 213 -87 339
-28 127 -65 264 -82 305 -71 174 -69 204 11 292 64 71 73 89 71 156 -3 94 -2
97 40 140 36 36 40 46 40 90 0 54 -22 95 -90 167 -49 52 -54 71 -29 96 26 26
103 59 138 59 49 0 63 -29 72 -142 l9 -103 45 -41 c40 -35 51 -56 89 -157 53
-141 93 -207 153 -246 83 -55 158 -68 393 -70 115 -1 257 -12 470 -37 333 -38
369 -41 571 -49 75 -3 151 -10 169 -16 30 -11 31 -14 26 -48 -4 -20 -9 -106
-12 -191 -6 -201 -5 -196 -51 -202 -98 -14 -207 -98 -256 -199 -75 -153 -68
-386 18 -572 16 -34 63 -99 115 -158 51 -57 87 -106 84 -114 -3 -7 -23 -25
-43 -40 -49 -33 -83 -83 -157 -223 -40 -77 -81 -138 -127 -190 -91 -102 -109
-139 -115 -234 -9 -146 37 -257 152 -366 198 -188 615 -303 1096 -303 631 -1
979 246 1039 736 9 69 6 310 -4 393 -3 23 -7 62 -10 86 l-6 44 73 -38 c96 -50
227 -95 335 -116 285 -53 780 59 981 223 57 46 102 126 102 179 0 51 20 78 97
130 143 96 259 182 289 213 42 42 58 90 58 166 0 148 -145 283 -315 293 -125
8 -201 -46 -281 -198 -79 -149 -104 -190 -130 -220 -24 -28 -31 -30 -95 -30
-129 0 -198 -34 -371 -186 -181 -160 -298 -172 -556 -60 -56 25 -130 53 -164
63 l-64 18 6 45 c4 25 9 102 13 172 19 385 -113 643 -367 718 -169 50 -356 21
-518 -80 -35 -22 -64 -40 -65 -40 -7 0 13 180 23 207 14 39 31 46 79 33 20 -5
106 -14 191 -20 85 -6 247 -20 360 -31 275 -28 357 -24 455 25 90 44 155 113
207 219 33 66 112 283 174 477 13 41 33 90 44 109 20 32 23 33 66 26 75 -11
440 -120 589 -175 270 -101 509 -218 700 -344 136 -90 195 -137 372 -299 168
-154 255 -220 370 -283 189 -103 449 -187 673 -218 154 -21 434 -14 573 13
480 96 859 421 981 842 71 247 56 499 -44 707 -73 152 -151 258 -381 512 -57
63 -122 138 -145 165 -75 93 -223 311 -250 369 -25 55 -26 60 -11 90 8 17 44
64 79 104 41 47 84 113 123 189 69 135 94 159 151 148 29 -5 51 -21 93 -68
173 -189 262 -238 435 -237 218 1 401 165 450 403 60 291 -53 548 -295 665
-110 54 -216 75 -356 70 l-108 -3 67 200 c77 229 99 340 97 478 -3 180 -35
274 -131 388 -97 113 -117 144 -137 201 -11 31 -33 76 -49 100 -75 109 -76
134 -18 304 74 213 178 823 204 1184 14 199 7 584 -12 715 -61 405 -189 645
-434 813 -144 99 -344 189 -567 257 l-110 33 -2 101 c0 56 3 101 7 101 5 0 67
-37 137 -83 295 -192 548 -333 709 -395 153 -59 311 -77 410 -47 27 8 50 15
52 15 1 0 2 -46 2 -102 l0 -103 53 -29 c407 -227 887 -537 1316 -848 113 -81
206 -146 208 -145 1 2 5 156 8 343 3 186 7 433 10 547 l5 208 -36 21 -37 22 6
260 c4 144 7 283 7 309 l0 49 55 -31 c30 -17 58 -31 61 -31 4 0 4 212 0 470
-4 323 -3 470 4 470 6 0 29 -9 51 -21 23 -11 43 -19 44 -17 4 4 12 335 20 828
3 173 8 482 11 686 7 358 6 372 -12 382 -10 5 -181 64 -379 130 -389 131 -767
247 -1100 338 -115 31 -215 61 -221 66 -7 5 -12 49 -13 114 -2 97 -1 105 16
100 10 -3 108 -28 218 -55 302 -76 644 -170 1002 -278 178 -53 325 -95 327
-92 2 2 7 130 10 284 4 154 9 334 11 400 3 66 7 246 10 400 3 154 8 330 11
392 2 61 1 114 -4 117 -26 16 -964 176 -1490 255 -67 10 -125 21 -128 24 -3 3
-7 62 -10 131 -4 125 -4 126 19 126 82 0 1640 -206 1865 -247 l33 -6 -7 969
c-3 533 -7 970 -8 971 -3 4 -589 15 -1421 28 -187 3 -439 7 -560 10 -121 3
-489 8 -817 11 l-598 7 0 -112 c0 -61 -3 -111 -7 -111 -5 0 -51 6 -103 14 -52
8 -115 17 -140 20 -25 3 -151 19 -280 36 -281 36 -245 32 -561 71 -141 18
-263 30 -271 27 -8 -3 -36 -43 -63 -89 -249 -428 -624 -1039 -636 -1039 -5 0
-7 64 -4 143 2 78 7 237 10 352 3 116 8 233 10 260 2 28 7 93 10 145 3 52 8
128 11 168 l6 72 -53 1 c-30 0 -61 2 -70 4 -9 1 -110 6 -225 9 -115 4 -234 9
-264 11 -30 3 -127 7 -215 10 -88 3 -203 8 -255 10 -52 3 -167 7 -255 10 -88
3 -193 8 -234 11 l-74 5 6 -648z m5137 486 c923 -13 1580 -26 1585 -31 9 -8
18 -1488 9 -1488 -5 0 -166 22 -359 50 -507 71 -1463 190 -1532 190 -23 0 -23
-1 -23 -143 0 -79 3 -232 7 -339 l6 -195 261 -37 c425 -62 1340 -217 1353
-229 11 -11 -20 -1148 -31 -1144 -27 10 -590 171 -760 217 -182 49 -783 200
-798 200 -10 0 -11 -432 -2 -557 l7 -89 251 -69 c473 -128 1430 -426 1459
-454 6 -6 -12 -1400 -18 -1409 -2 -2 -52 20 -111 49 -881 418 -1683 726 -2526
970 l-188 54 0 364 c0 335 -1 363 -17 357 -31 -12 -1067 -325 -1068 -323 -1 1
-73 103 -160 227 -310 440 -685 947 -1028 1388 -126 163 -153 192 -155 172 -6
-36 16 -329 39 -535 37 -340 105 -723 182 -1038 l34 -138 -91 7 c-50 3 -299 7
-553 8 l-462 1 -6 25 c-2 14 -20 120 -39 235 -150 906 -241 1805 -275 2710
-12 296 -19 991 -11 997 4 4 628 -19 998 -37 l143 -7 -8 -187 c-11 -245 -10
-1198 1 -1375 7 -113 11 -136 21 -125 33 36 581 914 852 1368 91 152 167 278
169 280 2 3 55 -1 117 -8 163 -18 946 -120 989 -129 l38 -7 -121 -175 c-352
-507 -873 -1212 -1240 -1676 -6 -7 71 -82 219 -216 441 -398 946 -891 1280
-1250 l147 -158 6 427 c3 236 7 1002 8 1703 0 701 4 1346 8 1434 l6 158 326
-6 c179 -4 657 -11 1061 -17z m-6406 -232 c195 -486 510 -1248 1002 -2429 206
-493 374 -899 374 -902 0 -3 -10 -6 -23 -6 -43 0 -619 -99 -910 -156 -158 -31
-290 -54 -293 -51 -4 4 -177 556 -335 1071 l-33 108 -235 -7 c-130 -4 -238 -8
-241 -10 -3 -1 -76 -6 -163 -10 -180 -8 -218 -11 -228 -22 -4 -5 -88 -273
-187 -598 -100 -324 -190 -620 -202 -656 l-20 -67 -203 -6 c-111 -3 -319 -8
-462 -12 -143 -3 -300 -9 -350 -14 -49 -5 -91 -7 -94 -5 -2 3 13 51 33 107 20
57 86 243 146 413 325 929 680 1908 1139 3150 61 165 113 306 116 313 3 9 121
12 542 12 l538 0 89 -223z m4919 -759 c-2 -211 -3 -801 -3 -1312 l0 -928 -294
290 c-242 238 -652 624 -804 758 l-33 29 168 220 c291 380 635 849 888 1213
43 61 78 112 79 112 1 0 0 -172 -1 -382z m-1719 -2412 c204 -277 515 -710 651
-909 44 -64 87 -117 95 -117 8 1 227 65 485 143 l470 143 3 -219 c1 -121 1
-222 -2 -224 -2 -2 -58 7 -123 21 -66 14 -227 45 -359 70 -131 25 -254 48
-272 52 l-33 7 7 -94 7 -94 -42 38 c-163 147 -452 264 -737 299 -55 6 -100 12
-101 13 -4 2 -104 386 -137 526 -19 85 -51 244 -71 354 -46 263 -45 255 -40
255 2 0 91 -119 199 -264z m-3474 -1065 l0 -189 -92 -6 c-277 -18 -554 -38
-633 -46 -49 -5 -100 -10 -112 -10 -23 0 -23 -1 -23 -155 l0 -155 23 5 c24 5
480 50 618 61 l87 6 -5 -113 c-2 -63 -6 -128 -9 -146 -5 -37 18 -32 -304 -58
-107 -8 -246 -20 -307 -26 l-113 -12 0 -149 c0 -138 1 -149 18 -144 41 12 656
76 734 76 l39 0 -6 -177 c-4 -98 -10 -181 -14 -184 -3 -4 -73 -12 -156 -18
-229 -18 -574 -58 -834 -97 -128 -19 -235 -34 -236 -32 -2 2 12 347 31 768 18
421 34 793 34 827 0 59 1 62 28 67 48 10 521 55 742 71 301 21 305 21 403 23
l87 2 0 -189z m3130 159 l75 -1 -53 -19 c-154 -55 -280 -149 -410 -305 l-34
-40 7 80 c8 107 14 168 21 239 l6 58 157 -5 c86 -4 190 -7 231 -7z m-974 -21
l201 -22 -5 -356 c-3 -222 0 -420 7 -526 11 -162 42 -450 60 -563 4 -29 5 -54
2 -56 -11 -5 -416 34 -428 42 -10 6 -212 324 -522 821 l-46 75 -7 -90 c-9
-119 7 -396 32 -574 11 -79 20 -149 20 -154 0 -10 -411 2 -421 12 -17 18 -45
1107 -34 1286 l7 119 172 -7 c94 -3 206 -9 248 -13 l77 -6 197 -363 c120 -223
202 -364 211 -364 8 0 23 4 33 10 15 8 17 15 10 42 -18 61 -39 295 -46 501 -7
199 -6 207 12 207 10 0 109 -10 220 -21z m1424 -114 c190 -42 357 -113 471
-200 149 -115 251 -300 335 -605 64 -232 81 -440 49 -579 -61 -257 -291 -388
-615 -351 -287 33 -687 166 -867 288 -94 64 -187 171 -238 276 -59 119 -76
187 -82 326 -19 419 215 777 558 855 81 18 283 13 389 -10z m-5096 -207 c14
-99 46 -449 61 -663 12 -181 36 -794 31 -802 -1 -1 -106 -19 -235 -40 l-233
-39 7 417 7 418 -27 7 c-14 4 -30 3 -35 -2 -4 -5 -45 -124 -90 -264 -45 -140
-86 -259 -91 -264 -8 -9 -411 -119 -414 -113 -1 1 -25 108 -54 237 -29 129
-55 245 -58 258 -5 22 -36 30 -59 14 -8 -4 -23 -168 -44 -457 -17 -247 -33
-451 -33 -451 -10 -8 -410 -114 -415 -110 -3 4 21 360 54 792 l59 787 140 42
c215 64 385 109 391 103 2 -3 59 -158 125 -344 67 -187 125 -343 129 -348 4
-4 11 3 15 15 23 74 268 746 276 753 9 10 414 93 460 95 24 1 27 -3 33 -41z
m6306 -33 c123 -25 224 -46 226 -48 3 -3 -27 -1801 -30 -1804 -2 -2 -94 39
-207 91 l-204 94 1 53 c0 30 4 200 8 379 9 341 -2 716 -29 1055 -18 220 -18
225 -2 225 7 0 114 -20 237 -45z m938 -245 c106 -14 241 -48 367 -94 102 -37
545 -252 545 -264 0 -22 -130 -347 -138 -345 -5 1 -53 35 -108 76 -199 149
-328 209 -454 210 -109 1 -159 -32 -160 -106 0 -91 91 -191 405 -444 309 -248
426 -382 486 -553 20 -54 23 -86 24 -190 0 -114 -2 -130 -26 -180 -46 -97
-145 -173 -259 -199 -127 -28 -375 75 -766 319 -112 70 -490 317 -512 335 -1
1 41 75 94 163 l96 161 125 -112 c236 -211 399 -332 530 -395 70 -33 86 -37
160 -37 96 0 130 18 151 80 34 101 -65 228 -298 382 -249 166 -445 336 -558
488 -99 132 -192 347 -192 445 0 65 27 133 67 172 51 48 93 68 177 83 90 17
141 18 244 5z m-9275 -120 c116 -44 199 -164 266 -385 53 -175 64 -261 57
-432 -5 -118 -12 -170 -31 -238 -101 -348 -382 -651 -790 -850 -262 -128 -453
-188 -600 -189 -81 -1 -95 2 -136 26 -136 80 -197 261 -186 553 12 306 79 568
214 840 138 277 319 473 538 583 75 37 233 88 333 107 109 20 260 14 335 -15z
m10564 -319 c290 -124 422 -185 694 -318 l236 -115 6 -181 c8 -221 9 -367 1
-367 -3 0 -67 35 -142 77 -75 42 -251 134 -389 205 l-253 130 0 -135 c0 -74 3
-161 6 -193 l6 -59 172 -88 c94 -48 242 -126 329 -174 l157 -87 0 -121 c0 -66
-3 -156 -6 -201 l-7 -81 -180 109 c-178 108 -454 268 -463 268 -2 0 -3 -82 -2
-182 l3 -181 195 -114 c107 -63 267 -159 355 -214 l160 -100 -3 -252 c-2 -139
-5 -253 -7 -255 -2 -2 -61 37 -132 86 -243 170 -592 391 -877 557 l-99 58 6
516 c4 284 7 738 7 1009 0 309 4 492 10 492 5 0 103 -40 217 -89z m-12137 -98
c0 -3 -32 -113 -72 -243 l-71 -237 -99 -7 c-125 -9 -269 -45 -351 -88 -76 -40
-196 -156 -225 -219 -14 -28 -22 -65 -22 -96 0 -44 5 -56 30 -81 48 -48 105
-56 315 -46 343 16 400 10 462 -49 50 -47 66 -110 61 -236 -9 -171 -76 -348
-225 -583 -161 -254 -333 -405 -653 -572 -172 -89 -593 -257 -608 -242 -4 5
51 199 151 531 l33 110 190 6 c200 7 269 20 386 72 216 97 393 370 306 472
-28 32 -93 48 -157 40 -25 -4 -111 -22 -190 -42 -128 -31 -155 -35 -245 -31
-84 3 -109 8 -151 30 -213 110 -268 418 -126 713 106 222 352 455 621 590 160
80 303 131 570 204 43 11 70 13 70 4z m7940 -2178 c41 -3 145 -10 230 -16 458
-31 966 -101 1455 -200 191 -39 613 -142 777 -189 74 -22 76 -24 83 -59 18
-93 11 -374 -11 -474 l-6 -29 -33 49 c-56 82 -113 140 -190 192 -124 82 -272
118 -448 108 -205 -13 -356 -75 -501 -206 -95 -87 -115 -96 -264 -121 -117
-19 -137 -39 -354 -353 -45 -66 -92 -126 -105 -134 -27 -18 -70 -14 -214 22
-198 50 -677 123 -979 150 -36 3 -78 8 -95 10 -92 13 -330 20 -635 19 -295 -1
-370 -4 -515 -23 -212 -28 -342 -54 -450 -91 -125 -44 -146 -45 -259 -16 -54
15 -126 26 -160 26 -36 0 -70 6 -81 14 -16 12 -17 18 -6 62 7 27 30 92 52 144
22 52 59 145 81 205 124 336 229 527 362 661 147 147 295 187 856 229 41 3 89
8 105 10 17 2 116 7 220 11 105 4 192 9 195 11 6 6 784 -5 890 -12z m-4647
-549 c179 -49 277 -145 277 -271 0 -61 -25 -118 -85 -194 -56 -72 -110 -118
-305 -262 -298 -222 -386 -356 -406 -624 -4 -52 -8 -95 -9 -95 -1 0 -22 7 -48
16 -48 16 -114 16 -72 0 184 -71 278 -183 326 -384 18 -73 20 -107 16 -207 -6
-137 -23 -206 -76 -320 -44 -94 -130 -192 -205 -236 -37 -21 -45 -29 -29 -29
27 0 70 -50 82 -98 53 -196 -8 -423 -153 -568 -80 -80 -151 -114 -237 -114
-45 0 -55 4 -85 34 -53 53 -43 121 25 155 21 11 55 39 75 63 91 106 116 230
77 391 -33 140 -34 139 63 232 85 81 116 129 152 235 28 82 26 245 -4 321 -66
167 -224 237 -472 210 -118 -12 -179 -27 -258 -62 l-52 -23 -88 29 c-106 34
-232 43 -381 26 -57 -7 -109 -15 -117 -18 -8 -3 -14 0 -14 6 0 6 37 39 83 72
45 34 84 64 87 67 13 14 -223 -116 -385 -212 -403 -241 -690 -347 -901 -333
-235 14 -371 190 -335 435 37 252 273 463 656 585 216 69 409 97 667 97 392 0
628 -62 1102 -290 137 -66 251 -118 253 -116 7 7 -67 62 -149 111 -227 133
-248 171 -249 455 -1 212 41 363 142 511 156 228 382 367 689 423 54 10 287
-2 343 -18z m6787 -255 c161 -50 270 -188 326 -411 26 -102 27 -330 2 -411
-23 -74 -48 -132 -54 -126 -3 2 -9 71 -14 151 -25 391 -109 595 -278 678 -62
31 -73 33 -172 33 -142 0 -215 -21 -332 -96 -102 -65 -146 -75 -189 -40 l-24
20 50 48 c84 81 235 150 380 173 83 12 233 3 305 -19z m-119 -252 c46 -16 86
-54 113 -109 51 -102 66 -209 73 -539 5 -223 4 -263 -8 -258 -206 89 -332 130
-474 152 -89 13 -259 13 -322 0 -26 -6 -33 -4 -33 7 0 23 69 123 149 218 129
153 166 260 127 369 -21 58 -20 74 7 99 59 55 276 91 368 61z m-675 -54 c97
-28 164 -100 164 -174 0 -36 -35 -109 -93 -196 -55 -82 -136 -186 -161 -207
-42 -35 -110 -17 -241 66 -71 45 -122 67 -166 73 l-39 6 33 36 c18 20 64 87
101 149 78 129 154 218 211 243 49 22 124 24 191 4z m-1866 -329 c320 -33 609
-78 1043 -161 305 -59 408 -85 479 -121 103 -52 96 -69 -176 -433 -67 -90
-277 -346 -297 -361 -28 -22 -189 -258 -233 -341 -70 -133 -97 -205 -140 -376
-49 -195 -78 -262 -241 -548 -101 -178 -212 -392 -310 -600 -231 -489 -340
-729 -460 -1010 -125 -292 -194 -470 -251 -641 -62 -187 -80 -225 -116 -235
-14 -3 -70 -2 -124 3 -67 7 -265 6 -605 -3 -660 -16 -906 -2 -1179 67 -350 88
-630 302 -794 605 -97 180 -140 343 -140 539 -1 151 -3 144 171 610 386 1033
715 1706 1163 2380 53 80 135 204 182 276 48 71 104 147 127 167 170 154 549
209 1381 202 238 -2 419 -9 520 -19z m-2220 -76 c74 -5 156 -12 183 -16 l47
-6 -22 -38 c-39 -66 -145 -223 -172 -256 -40 -48 -60 -49 -201 -4 -124 39
-203 49 -249 31 -12 -5 15 -13 82 -24 98 -16 237 -62 277 -92 19 -15 19 -15
-3 -31 -12 -8 -49 -50 -81 -93 -114 -149 -136 -156 -308 -90 -131 50 -249 67
-368 53 l-80 -9 105 -17 c131 -21 251 -58 353 -110 l78 -39 -26 -31 c-15 -17
-47 -72 -72 -122 -49 -99 -86 -146 -115 -146 -10 0 -50 9 -89 20 -89 24 -348
44 -449 34 l-75 -7 140 -22 c205 -33 417 -92 434 -122 11 -21 0 -60 -40 -131
-69 -121 -99 -185 -99 -208 l0 -24 -202 0 c-239 -1 -247 -14 -19 -30 189 -12
205 -16 197 -44 -4 -11 -13 -50 -22 -86 -8 -36 -24 -97 -35 -136 l-21 -71 -88
-11 c-135 -18 -156 -33 -38 -28 53 2 99 2 102 -1 3 -3 -2 -15 -10 -28 -8 -12
-34 -80 -58 -151 -50 -150 -73 -199 -113 -236 -95 -91 -237 -46 -307 97 -62
127 -92 355 -76 573 39 506 299 1080 637 1403 164 157 308 227 512 248 110 12
141 12 291 1z m4465 -480 c50 -6 133 -22 185 -36 94 -24 253 -96 299 -134 l24
-20 -25 -58 c-14 -31 -33 -79 -43 -107 -28 -76 -74 -116 -187 -159 -113 -44
-160 -72 -248 -150 -74 -65 -137 -101 -206 -116 -161 -36 -276 -153 -291 -294
-4 -42 0 -70 21 -130 30 -88 28 -109 -21 -216 -81 -176 -142 -389 -164 -574
-14 -120 -6 -299 17 -376 9 -30 44 -108 78 -173 61 -117 61 -119 61 -202 0
-77 -2 -87 -25 -110 -51 -50 -176 -49 -385 5 -328 85 -547 250 -625 473 -18
51 -43 177 -36 184 1 2 50 -19 108 -46 122 -57 244 -98 320 -106 50 -6 46 -3
-69 44 -145 59 -292 133 -326 165 -32 30 -47 83 -47 171 0 64 23 242 33 251 2
2 48 -12 103 -31 126 -46 261 -81 344 -89 l65 -6 -74 20 c-72 19 -319 124
-380 161 -42 25 -55 76 -37 149 30 125 60 210 74 210 8 0 95 -20 194 -45 158
-39 333 -68 318 -52 -3 3 -75 25 -160 50 -154 45 -312 99 -339 116 -12 8 -9
25 18 102 18 51 46 118 61 149 l28 56 89 -8 c139 -12 348 -47 472 -79 63 -16
116 -27 118 -25 7 6 -135 65 -231 95 -55 17 -163 45 -240 62 -77 16 -142 32
-143 33 -8 8 134 253 166 286 82 86 229 82 505 -16 159 -56 257 -85 271 -81
15 6 -186 100 -285 135 -79 27 -213 61 -302 77 l-38 6 80 94 c62 72 94 100
136 121 52 25 60 27 162 21 74 -4 152 -17 251 -41 79 -20 146 -35 148 -33 6 7
-88 44 -152 61 -33 8 -103 22 -155 31 -52 8 -106 18 -120 21 l-25 6 30 24 c74
61 226 119 352 133 99 12 147 12 248 1z m-7303 -404 c79 -17 115 -35 157 -77
46 -46 63 -86 69 -161 16 -221 -148 -406 -423 -479 -115 -31 -330 -37 -465
-14 -266 44 -478 163 -553 310 -39 78 -60 160 -47 184 27 52 171 121 307 147
117 22 325 15 285 -10 -7 -4 -54 -10 -105 -12 -150 -9 -203 -39 -67 -39 110 0
114 -7 49 -99 -29 -42 -51 -78 -48 -80 2 -3 40 27 84 65 262 229 512 316 757
265z m8211 -34 c99 -53 174 -174 221 -352 33 -127 50 -232 80 -500 14 -124 29
-247 33 -275 7 -46 8 -48 14 -20 19 86 3 493 -26 665 -41 237 -2 311 159 298
166 -14 251 -133 263 -369 9 -171 -18 -314 -108 -578 -27 -80 -47 -146 -45
-149 7 -6 81 127 111 198 46 108 83 226 111 349 14 64 27 118 30 120 7 7 53
-29 79 -63 44 -58 65 -143 65 -266 0 -208 -44 -369 -171 -622 -87 -174 -90
-182 -144 -403 -30 -124 -68 -267 -85 -317 -131 -391 -407 -685 -713 -758
-215 -52 -538 -6 -772 110 -213 105 -332 247 -386 461 -18 69 -20 102 -16 203
9 238 102 453 256 599 107 100 228 133 326 88 38 -17 100 -76 137 -131 16 -23
17 -23 17 -5 1 35 -28 133 -55 188 -49 97 -134 196 -288 331 -210 185 -287
269 -338 372 -34 68 -41 94 -42 141 -1 176 182 279 388 219 242 -71 414 -250
656 -686 51 -91 94 -167 97 -170 3 -3 2 15 -2 40 -14 87 -66 206 -145 335
-191 310 -223 414 -184 603 38 192 154 336 299 373 48 13 126 0 178 -29z
m-9331 -693 c34 -11 77 -28 95 -37 l33 -17 -25 -37 c-14 -20 -25 -39 -25 -42
0 -3 19 4 43 14 59 27 138 25 293 -7 107 -22 156 -27 284 -27 141 -1 164 2
255 28 155 44 140 45 161 -16 13 -35 19 -81 19 -138 0 -76 -3 -91 -30 -139
-51 -92 -162 -163 -315 -198 -105 -25 -372 -25 -488 1 -168 36 -303 94 -383
164 -53 47 -93 127 -114 229 -18 85 -19 125 -1 166 32 76 91 93 198 56z m-49
-614 c61 -35 174 -73 282 -97 131 -29 416 -36 553 -14 57 9 108 16 114 16 19
0 2 -112 -25 -166 -71 -140 -234 -218 -457 -216 -303 1 -525 145 -538 350 -4
50 12 152 23 152 1 0 23 -11 48 -25z m1492 -215 c23 -136 -84 -253 -280 -306
-71 -19 -312 -31 -326 -17 -15 15 79 113 140 146 27 15 97 45 154 66 135 50
209 87 255 127 20 17 40 30 44 28 3 -2 9 -22 13 -44z m1219 -102 c18 -14 17
-18 -17 -124 -152 -470 -113 -1079 94 -1484 200 -390 573 -593 1214 -660 55
-5 120 -12 145 -15 128 -14 442 -17 695 -5 658 31 1042 7 1535 -96 396 -82
750 -207 1090 -386 213 -112 246 -140 220 -188 -15 -28 -45 -25 -110 10 -561
303 -1079 459 -1735 522 -174 16 -672 14 -910 -5 -253 -20 -794 -16 -985 7
-502 62 -825 199 -1053 447 -207 225 -334 471 -381 739 -67 382 -25 860 106
1222 20 57 20 57 47 43 14 -7 34 -20 45 -27z m3983 -10 c27 -30 40 -89 53
-234 6 -65 15 -135 20 -154 14 -50 14 -51 -31 -35 -81 29 -246 10 -280 -32
-13 -15 -11 -16 11 -10 64 18 148 19 196 3 83 -27 127 -80 139 -167 l7 -44
-74 77 c-61 66 -80 79 -118 87 -88 19 -187 -22 -262 -108 -53 -63 -77 -121
-77 -193 -1 -71 18 -123 78 -211 25 -37 61 -91 79 -120 l33 -52 -27 -3 c-76
-10 -159 59 -216 176 -16 35 -32 62 -34 59 -9 -8 19 -113 41 -157 28 -55 78
-104 125 -123 19 -8 67 -18 107 -22 83 -8 98 -20 91 -73 -7 -45 -283 -757
-330 -850 -17 -33 -59 -52 -115 -52 -52 0 -422 45 -429 52 -8 9 106 323 213
583 83 202 423 982 509 1168 36 77 95 195 131 261 115 211 121 217 160 174z
m4030 -189 c168 -52 257 -188 257 -394 0 -131 -29 -212 -103 -286 -84 -83
-185 -105 -286 -60 -56 25 -319 285 -341 337 -18 42 -17 78 2 184 9 53 12 107
8 143 l-6 57 37 16 c87 36 319 38 432 3z m-3783 -455 c27 -40 31 -86 11 -128
-20 -42 -33 -45 -64 -12 -27 29 -36 78 -26 151 l6 55 28 -20 c16 -11 36 -31
45 -46z m277 -189 c55 -29 60 -52 40 -188 -12 -80 -15 -87 -30 -75 -155 129
-174 154 -169 216 2 30 9 40 36 54 36 17 80 15 123 -7z m596 -160 c31 -8 71
-15 89 -15 29 0 35 -7 82 -88 70 -121 81 -165 59 -236 -10 -31 -21 -58 -26
-60 -7 -4 -58 -1 -256 19 -27 2 -55 5 -61 5 -7 0 -17 49 -25 128 -16 145 -15
227 2 248 15 18 63 18 136 -1z m-7577 -25 c112 -27 249 -95 332 -164 224 -186
351 -513 353 -906 0 -159 -11 -195 -60 -195 -27 0 -35 9 -88 96 -126 212 -358
379 -658 476 -71 23 -119 43 -119 51 0 21 68 180 107 251 19 35 61 93 91 130
45 53 51 62 27 47 -77 -48 -140 -130 -236 -306 -34 -63 -63 -117 -65 -119 -3
-4 -236 17 -276 25 -28 6 -28 6 -28 92 0 132 38 258 120 396 l31 51 -53 -56
c-89 -92 -163 -264 -183 -419 l-7 -55 -56 -1 c-32 0 -101 -12 -155 -28 -103
-29 -153 -29 -177 -1 -22 26 -29 97 -19 188 14 120 8 148 -15 72 -14 -44 -18
-90 -18 -176 l1 -117 -47 -17 c-26 -10 -73 -31 -106 -47 -32 -16 -60 -27 -62
-25 -9 8 49 185 83 257 31 65 54 93 172 207 92 89 159 145 206 172 111 64 281
114 475 141 105 14 332 4 430 -20z m7277 13 c27 -6 29 -19 28 -238 0 -176 0
-180 -21 -183 -12 -2 -34 8 -50 22 -28 24 -29 27 -29 123 0 54 2 142 5 196 5
92 6 97 25 92 11 -4 30 -9 42 -12z m935 -384 c264 -122 396 -156 550 -144 164
12 239 -20 224 -99 -18 -96 -247 -205 -431 -206 -199 0 -473 149 -541 295 -46
97 -20 215 47 215 10 0 78 -28 151 -61z m1271 -59 c19 -22 65 -95 103 -162 89
-158 122 -201 304 -398 240 -260 324 -386 381 -570 20 -64 23 -95 23 -215 -1
-173 -20 -253 -98 -410 -137 -276 -372 -467 -687 -559 -230 -66 -628 -62 -902
9 -437 113 -775 386 -1016 819 -133 240 -218 479 -305 859 l-7 28 58 -3 57 -3
14 -50 c79 -297 132 -445 227 -635 180 -360 424 -619 724 -770 98 -49 285
-107 417 -131 142 -25 408 -29 549 -9 201 28 383 114 526 248 144 135 229 276
270 447 17 74 20 109 16 195 -10 202 -62 295 -312 560 -70 74 -174 196 -230
271 -136 180 -290 439 -267 447 5 1 32 18 58 37 27 19 52 35 56 35 3 0 22 -18
41 -40z m-7075 -336 c206 -351 536 -564 1027 -663 283 -57 598 -68 1417 -47
l358 9 -10 -34 c-6 -19 -10 -45 -10 -59 0 -38 -19 -97 -36 -115 -22 -22 -105
-19 -279 10 -83 13 -350 43 -595 66 -388 36 -497 42 -850 49 -223 5 -454 12
-514 15 -96 7 -108 6 -103 -8 3 -9 11 -42 17 -74 28 -159 -68 -327 -234 -404
-138 -65 -277 -56 -378 24 -29 23 -21 29 13 11 103 -53 269 -10 358 92 46 51
61 93 61 162 0 79 -17 124 -88 229 -62 92 -85 133 -96 171 -7 21 -5 22 49 22
38 0 78 -9 121 -26 36 -14 68 -23 71 -20 11 10 -49 65 -81 75 -17 5 -71 15
-120 20 -99 12 -122 23 -162 78 -15 21 -63 73 -107 115 l-80 76 6 65 c4 40 25
115 56 199 27 74 53 148 57 164 12 51 16 48 54 -44 21 -49 56 -121 78 -158z
m6874 -9 c139 -210 245 -343 419 -528 191 -205 239 -293 247 -458 16 -344
-244 -608 -685 -696 -131 -26 -366 -23 -504 5 -581 120 -951 503 -1162 1202
-19 63 -38 130 -42 148 l-7 33 164 -2 c89 -1 206 -5 258 -9 526 -41 717 -4
968 187 123 94 189 186 200 280 2 24 8 41 12 36 3 -4 63 -93 132 -198z m-2707
14 c98 -109 184 -183 257 -220 49 -25 151 -49 210 -49 l46 0 7 -42 c4 -24 34
-143 66 -266 33 -123 59 -227 59 -232 0 -5 -51 15 -112 44 -225 106 -491 205
-732 271 -71 19 -131 37 -134 40 -7 7 30 104 123 325 45 107 85 205 89 218 4
12 11 22 15 22 4 0 52 -50 106 -111z m-6913 12 c482 -98 824 -374 908 -734 26
-112 37 -204 55 -462 17 -230 33 -333 66 -419 52 -132 122 -216 302 -359 152
-122 201 -171 223 -223 18 -42 4 -77 -40 -98 -35 -17 -40 -13 -50 45 -8 47
-55 112 -105 144 -45 30 -141 69 -141 57 0 -12 56 -62 123 -112 84 -63 112
-134 68 -174 -22 -20 -127 -40 -299 -57 -407 -40 -834 110 -1242 438 -130 104
-364 344 -470 481 -172 223 -353 509 -391 617 -53 151 14 244 226 314 146 47
266 64 475 65 199 1 285 -10 403 -50 204 -69 360 -219 480 -459 19 -38 78
-180 132 -315 54 -135 114 -279 135 -321 55 -108 150 -246 214 -309 l56 -54
-64 124 c-74 143 -105 218 -186 450 -118 336 -170 460 -244 584 -140 235 -311
367 -561 432 -82 21 -131 27 -270 31 -188 6 -290 -4 -443 -42 -132 -34 -260
-85 -367 -146 -49 -28 -94 -53 -101 -56 -16 -6 -34 80 -34 166 0 74 22 162 45
181 18 15 18 12 0 -70 -15 -69 -18 -131 -9 -167 10 -36 22 -27 29 20 35 229
54 288 100 309 19 9 29 7 49 -5 24 -16 25 -22 28 -128 l3 -111 -67 -34 c-82
-41 -90 -53 -12 -19 77 34 227 81 332 104 148 33 272 44 454 39 159 -3 168 -2
118 9 -154 37 -444 23 -642 -30 l-88 -24 -5 31 c-13 67 49 197 117 246 50 37
90 38 123 5 26 -25 29 -40 25 -112 -1 -23 1 -52 5 -64 l7 -22 14 24 c35 65 24
172 -22 208 -58 46 -150 34 -210 -26 -58 -57 -88 -134 -90 -224 -1 -81 -7 -99
-29 -99 -11 0 -13 8 -7 33 4 17 7 64 7 102 -1 81 -22 130 -62 146 -14 5 -24
11 -22 13 2 3 40 18 83 36 89 35 245 75 351 89 111 15 404 5 517 -18z m1227
-571 c221 -86 294 -220 213 -394 -27 -58 -104 -156 -122 -156 -12 0 -184 156
-209 190 -29 41 -30 88 -2 200 11 47 21 95 21 108 0 16 6 22 22 22 l21 0 -21
23 c-44 46 -29 47 77 7z m4707 -165 c87 -8 178 -18 201 -21 l41 -6 -19 -43
c-10 -23 -48 -125 -83 -226 -35 -101 -76 -210 -91 -242 -19 -41 -24 -61 -16
-70 7 -9 5 -16 -10 -25 -26 -17 -25 -52 2 -52 34 0 60 19 58 43 -2 12 9 40 23
62 14 23 42 86 62 140 99 269 156 399 156 357 0 -25 -181 -557 -201 -588 -14
-23 -30 -35 -52 -39 -39 -8 -115 9 -168 36 -93 47 -239 316 -239 438 0 79 50
206 92 235 28 20 45 20 244 1z m-4224 -84 c189 -79 329 -215 243 -237 -44 -11
-90 5 -175 60 -71 47 -143 76 -156 63 -2 -2 30 -25 71 -51 99 -63 179 -137
204 -189 36 -75 23 -137 -28 -137 -25 0 -40 15 -105 100 -42 54 -103 125 -135
156 -33 31 -62 69 -65 83 -3 14 0 65 6 112 13 100 2 97 140 40z m-3489 -31
c40 -31 50 -98 46 -294 l-4 -171 -50 -12 c-73 -18 -75 -17 -75 20 0 19 -13 80
-29 138 -41 146 -47 186 -41 252 4 42 11 63 25 73 28 21 98 18 128 -6z m5824
-70 c179 -8 290 -19 361 -35 20 -5 22 -8 11 -22 -12 -14 -9 -15 26 -10 22 4
78 8 125 11 85 5 85 5 35 -8 -57 -15 -106 -38 -153 -74 -37 -28 -126 -160
-162 -240 -19 -43 -26 -50 -33 -36 -13 24 0 109 30 182 14 35 22 66 19 69 -10
10 -57 -28 -67 -55 -6 -15 -19 -72 -29 -127 -21 -118 -26 -132 -51 -145 -32
-18 -141 -11 -324 20 -132 22 -212 30 -304 30 -138 0 -275 12 -340 30 -70 19
-72 36 -16 207 75 229 69 226 420 218 138 -3 341 -10 452 -15z m786 -79 c42
-11 90 -27 107 -36 36 -19 50 -13 33 14 -10 16 -4 17 106 14 136 -4 280 -19
334 -34 64 -18 110 -68 151 -168 21 -49 52 -109 69 -132 87 -114 97 -133 97
-177 0 -43 -1 -44 -27 -38 -16 4 -145 11 -288 15 -259 9 -309 16 -348 50 -17
14 -18 27 -12 132 5 81 4 122 -4 138 -17 31 -31 16 -31 -33 0 -98 -32 -192
-68 -204 -10 -3 -11 12 -6 60 3 35 1 97 -5 138 -21 138 -83 227 -183 261 -73
25 -25 25 75 0z m-3599 -132 c97 -103 146 -199 154 -297 6 -86 -7 -98 -54 -51
-32 33 -174 256 -222 351 -14 26 -27 69 -30 95 l-5 47 40 -32 c23 -18 75 -68
117 -113z m361 -12 c37 -21 85 -77 85 -100 0 -6 -8 -3 -18 6 -27 25 -87 47
-127 47 -57 0 -92 -24 -107 -72 l-12 -41 -13 29 c-16 38 -16 96 0 116 35 44
127 52 192 15z m40 -229 c109 -118 173 -284 255 -670 81 -381 130 -530 215
-658 53 -79 111 -134 172 -162 66 -29 73 -46 66 -153 -6 -102 6 -131 27 -62
43 145 161 269 298 311 21 7 22 5 22 -41 0 -58 35 -137 76 -174 57 -50 69 -55
38 -14 -73 94 -96 184 -59 225 28 30 32 25 27 -34 -9 -110 40 -177 136 -186
l57 -5 -3 -65 c-9 -164 -110 -282 -274 -320 -171 -39 -425 27 -556 145 -117
105 -204 303 -271 616 -11 53 -43 226 -71 385 -62 352 -91 467 -170 671 -103
265 -109 281 -103 287 9 9 57 -29 118 -96z m-495 52 c11 -6 22 -26 25 -48 24
-139 87 -263 193 -373 75 -80 113 -105 70 -48 -51 68 -88 122 -88 128 0 4 16
7 36 7 28 0 42 7 60 29 24 30 44 94 44 142 l0 28 20 -25 c44 -56 64 -159 52
-267 -8 -69 -2 -94 13 -55 6 15 9 14 30 -10 29 -34 66 -130 68 -180 2 -48 -21
-73 -57 -64 -14 3 -58 33 -98 66 -40 33 -104 86 -143 117 -151 123 -218 215
-251 343 -23 92 -22 220 2 220 3 0 14 -5 24 -10z m-2765 -143 c31 -17 48 -39
75 -90 30 -59 34 -78 35 -144 0 -61 -3 -78 -17 -87 -14 -8 -24 -4 -54 24 -34
33 -36 33 -29 10 17 -54 58 -100 113 -127 106 -52 276 -30 470 62 51 24 121
64 155 88 34 23 67 46 74 50 8 5 18 -7 31 -35 10 -24 36 -65 57 -92 l38 -50
-19 -34 c-26 -49 -127 -138 -194 -172 -33 -17 -99 -42 -147 -57 -81 -24 -102
-27 -258 -27 -143 1 -183 4 -248 22 -175 48 -312 149 -371 272 -26 56 -31 76
-31 145 0 85 16 129 70 193 59 70 173 93 250 49z m7081 -517 c101 -49 181
-164 205 -295 7 -37 9 -103 5 -170 -4 -60 -9 -148 -12 -195 -6 -110 -13 -150
-25 -150 -6 0 -15 14 -20 30 -13 37 -33 40 -26 4 10 -54 -61 -34 -91 26 -9 19
-31 42 -48 51 l-31 15 48 47 c60 59 89 132 89 225 0 161 -80 322 -205 415
l-40 29 51 -4 c28 -3 73 -15 100 -28z m-166 -75 c105 -53 188 -168 197 -276 7
-76 -2 -122 -33 -159 -46 -54 -78 -37 -94 51 -30 157 -156 283 -339 339 l-56
17 58 12 c84 18 193 -9 279 -70 l30 -22 -12 22 c-17 32 -93 78 -153 91 -106
23 -106 23 -62 29 58 9 125 -4 185 -34z m-1106 -121 c37 -14 6 -81 -99 -212
-62 -77 -79 -180 -49 -283 32 -107 98 -188 187 -227 55 -24 66 -40 41 -59 -23
-17 -61 -10 -131 23 -108 52 -197 211 -224 399 -18 133 14 242 92 308 52 45
137 69 183 51z m3375 -103 c60 -31 101 -84 101 -131 0 -53 -40 -97 -150 -168
-47 -31 -116 -82 -155 -115 -152 -128 -245 -153 -245 -65 0 37 21 79 74 148
23 30 59 82 78 115 20 33 50 79 67 102 l31 43 41 -45 c43 -46 110 -79 150 -73
19 3 12 9 -39 32 -35 16 -74 42 -87 58 -28 34 -32 79 -9 102 22 22 96 20 143
-3z m-4189 -97 c65 -55 98 -181 67 -255 -20 -49 -53 -72 -263 -179 -150 -77
-191 -94 -238 -98 -71 -6 -96 12 -96 68 0 54 59 129 219 280 73 69 136 126
139 128 4 1 15 -20 25 -47 9 -26 35 -68 57 -92 l40 -44 -19 45 c-30 71 -46
166 -33 195 16 34 61 33 102 -1z m999 -235 c58 -13 123 -47 118 -62 -2 -7 -26
-14 -53 -17 l-49 -5 50 -17 c132 -46 338 -69 554 -62 80 2 155 6 166 8 11 2
64 7 117 11 54 4 95 11 92 16 -3 5 -17 9 -32 9 -21 0 -24 2 -12 10 23 15 96
12 110 -4 28 -35 -57 -149 -136 -182 -51 -21 -85 -17 -196 24 -162 61 -174 63
-483 60 -261 -3 -283 -2 -330 17 -82 34 -121 123 -80 182 23 32 60 35 164 12z
m2671 -145 c0 -81 60 -144 136 -144 l28 0 -35 -36 c-47 -49 -179 -131 -273
-171 -168 -71 -352 -101 -509 -84 -121 14 -185 37 -339 122 -182 101 -213 109
-419 109 -93 0 -169 3 -169 8 0 23 37 53 82 67 117 34 292 13 458 -57 58 -25
127 -53 154 -63 l49 -18 -22 -18 c-23 -19 -23 -19 47 -19 156 0 239 35 437
184 139 106 204 140 295 156 82 14 80 15 80 -36z m-2035 -138 c87 -24 177 -68
224 -111 22 -21 41 -41 41 -46 0 -4 -32 5 -70 22 -163 69 -353 103 -570 103
-141 0 -152 1 -121 13 18 8 61 20 95 28 82 19 318 13 401 -9z m-65 -166 c169
-43 327 -137 408 -243 82 -106 126 -241 103 -317 -41 -137 -270 -244 -582
-272 -69 -6 -134 -8 -144 -4 -15 6 -17 15 -11 78 15 145 79 295 170 392 28 31
50 56 49 56 -15 0 -88 -58 -125 -98 -74 -84 -109 -161 -184 -411 -5 -16 -62
-8 -106 15 -93 48 -97 234 -11 539 9 33 -13 6 -41 -51 -34 -69 -63 -194 -75
-334 -6 -63 -11 -118 -11 -122 0 -16 -82 -7 -120 12 -82 42 -106 110 -131 370
-1 8 -5 -5 -10 -30 -4 -25 -3 -98 2 -164 6 -65 8 -120 6 -122 -6 -7 -132 40
-163 60 -14 10 -32 33 -40 52 -13 31 -13 43 1 97 26 104 80 202 157 283 117
123 253 196 425 229 110 21 320 13 433 -15z m669 -94 c24 -128 6 -252 -40
-277 -15 -8 -20 -5 -25 16 -3 14 -42 74 -85 133 -81 110 -98 155 -61 166 9 3
44 8 77 12 33 3 71 12 85 19 31 16 34 11 49 -69z m76 -42 c55 -266 35 -526
-55 -719 -46 -99 -104 -174 -173 -220 -54 -37 -159 -75 -207 -75 -24 0 -28 5
-34 37 -9 59 -7 172 4 194 25 46 62 10 93 -92 12 -40 27 -74 32 -76 20 -6 35
53 35 133 0 128 31 186 80 146 15 -12 24 -36 32 -91 8 -57 13 -70 21 -56 14
26 2 113 -20 143 -11 15 -31 33 -44 39 -13 7 -19 13 -13 13 25 0 112 92 142
148 57 106 76 212 77 414 0 184 3 191 30 62z m-1617 -752 c11 -17 17 -46 17
-84 0 -43 3 -57 12 -53 7 2 13 -3 13 -11 0 -11 -6 -14 -22 -9 -35 11 -121 51
-142 67 -18 14 -18 16 2 61 31 69 85 82 120 29z m1129 -14 c-3 -13 -9 -56 -13
-97 l-7 -73 -13 38 c-20 60 -56 89 -109 89 -63 0 -103 -41 -120 -121 l-12 -59
-35 76 c-20 42 -46 83 -58 92 -22 15 -21 16 21 21 24 3 76 8 114 11 39 3 104
14 145 24 97 24 93 24 87 -1z m-771 1 c32 -6 62 -13 66 -15 4 -3 -8 -20 -26
-39 -23 -23 -42 -57 -57 -105 -28 -87 -43 -78 -41 25 1 47 -4 89 -13 111 -16
40 -17 39 71 23z m-105 -48 c24 -25 29 -38 29 -80 0 -27 -5 -61 -11 -74 -10
-23 -14 -24 -48 -15 -20 5 -62 18 -93 30 -53 19 -58 23 -58 50 0 101 113 157
181 89z m432 -2 c-30 -11 -59 -72 -74 -153 -7 -36 -16 -63 -19 -59 -4 5 -15
40 -25 78 -10 39 -28 88 -40 110 l-23 40 102 -4 c69 -2 94 -6 79 -12z m347
-27 c14 -12 26 -40 36 -86 8 -38 19 -76 26 -83 6 -7 9 -15 7 -18 -9 -9 -176
-28 -192 -22 -39 15 -8 169 40 207 32 25 54 25 83 2z m-532 -22 c32 -30 50
-70 58 -130 l7 -53 -56 7 c-110 14 -152 29 -155 55 -5 33 25 108 51 126 30 21
69 19 95 -5z m266 -21 c33 -26 63 -83 68 -129 l3 -35 -65 -3 c-87 -4 -150 5
-150 23 0 44 24 117 47 139 31 31 61 33 97 5z"/>
<path d="M8696 17710 c-12 -29 -243 -785 -241 -788 1 -1 97 4 213 13 117 8
223 15 237 15 14 0 25 5 25 12 0 10 -93 323 -205 688 -14 45 -25 69 -29 60z"/>
<path d="M12449 14077 c-92 -35 -196 -134 -246 -234 -25 -53 -28 -68 -28 -164
0 -104 1 -107 42 -190 121 -240 288 -361 483 -347 136 10 288 115 351 244 30
60 31 69 27 151 -4 74 -10 100 -40 163 -74 158 -203 292 -343 356 -71 33 -188
43 -246 21z m302 -352 c90 -47 211 -215 213 -298 1 -35 -5 -44 -47 -83 -96
-87 -172 -83 -268 15 -67 68 -119 167 -119 226 0 60 63 148 120 167 19 6 55
-4 101 -27z"/>
<path d="M4968 13377 c-108 -41 -198 -126 -283 -268 -135 -228 -180 -460 -116
-604 83 -189 235 -255 399 -175 179 88 415 417 452 631 27 156 -58 327 -197
395 -67 33 -194 43 -255 21z m302 -362 c50 -50 49 -110 -2 -218 -69 -144 -222
-331 -288 -352 -41 -13 -80 50 -80 129 0 134 141 403 244 468 41 25 82 17 126
-27z"/>
<path d="M10300 9674 c-19 -2 -84 -9 -145 -14 -159 -16 -439 -65 -532 -95
-149 -47 -165 -65 -424 -500 -186 -314 -325 -574 -414 -780 -56 -128 -185
-497 -185 -529 0 -15 11 -16 108 -9 207 15 1077 8 1332 -10 543 -41 1042 -110
1310 -182 177 -48 192 -49 222 -25 15 11 44 61 68 117 24 53 120 239 215 412
95 174 218 402 275 506 57 105 119 219 138 255 20 36 96 173 169 304 73 132
133 242 133 246 0 7 -125 37 -484 116 -384 84 -673 133 -1001 170 -132 14
-701 28 -785 18z m1005 -348 c105 -14 276 -41 380 -60 183 -34 616 -123 621
-129 2 -1 -66 -128 -150 -282 -242 -446 -549 -1022 -595 -1117 -31 -66 -47
-89 -65 -94 -14 -3 -87 10 -168 29 -511 125 -1259 196 -2071 197 -327 0 -348
1 -343 18 2 9 18 69 35 132 193 739 604 1166 1245 1295 195 39 264 44 601 40
273 -3 348 -7 510 -29z"/>
<path d="M9645 8640 c-103 -51 -175 -142 -175 -222 0 -38 4 -50 21 -58 11 -7
26 -9 34 -6 7 2 35 46 61 97 57 107 84 129 159 129 54 0 121 -26 145 -55 8
-10 33 -54 55 -99 34 -69 44 -81 65 -81 65 0 14 165 -76 244 -80 70 -206 92
-289 51z"/>
<path d="M10635 8569 c-46 -13 -113 -75 -141 -131 -19 -38 -24 -61 -22 -101 4
-72 25 -68 65 12 56 111 119 161 203 161 35 0 48 -7 86 -42 24 -24 63 -79 87
-123 35 -67 46 -80 67 -80 38 0 48 41 26 112 -24 75 -108 162 -180 186 -53 18
-141 21 -191 6z"/>
<path d="M9380 7484 c-14 -2 -59 -9 -100 -15 -93 -14 -241 -60 -338 -106 -234
-111 -440 -311 -557 -543 -98 -194 -138 -358 -138 -560 1 -334 108 -609 327
-839 181 -189 405 -311 671 -367 71 -15 130 -19 280 -18 179 1 197 2 307 32
472 124 818 503 903 989 19 111 19 297 0 409 -21 120 -77 281 -130 379 -181
331 -527 575 -892 630 -88 13 -269 18 -333 9z m483 -138 c495 -148 855 -682
799 -1186 -30 -268 -140 -497 -331 -688 -366 -368 -912 -455 -1365 -219 -293
152 -498 421 -561 736 -26 126 -17 361 19 496 32 121 124 313 196 408 187 247
484 421 805 472 139 22 328 14 438 -19z"/>
<path d="M10379 6929 c132 -175 186 -430 147 -695 -42 -284 -156 -536 -325
-715 -66 -71 -77 -87 -55 -79 92 35 199 125 267 224 245 361 245 949 0 1250
-60 75 -88 87 -34 15z"/>
<path d="M9230 6844 c-233 -62 -390 -228 -436 -461 -30 -151 0 -324 76 -443
72 -112 211 -207 360 -247 100 -27 283 -24 380 6 166 51 290 150 354 283 42
89 56 154 56 259 0 296 -179 534 -455 604 -76 19 -261 19 -335 -1z m301 -64
c180 -34 357 -210 397 -395 21 -98 22 -122 8 -203 -29 -166 -131 -302 -280
-376 -313 -155 -662 -23 -741 279 -18 69 -20 201 -4 277 32 154 135 285 281
357 125 62 231 81 339 61z"/>
<path d="M9782 6555 c2 -5 16 -35 31 -66 39 -81 54 -195 40 -306 -6 -48 -10
-89 -8 -91 2 -2 16 18 32 45 25 43 28 57 28 138 -1 109 -26 182 -86 247 -22
24 -39 39 -37 33z"/>
<path d="M14318 6561 c-80 -162 -141 -258 -238 -370 -59 -68 -67 -80 -40 -65
104 61 235 219 289 349 27 63 67 215 59 220 -2 1 -33 -60 -70 -134z"/>
<path d="M14591 6513 c-50 -103 -153 -226 -301 -357 l-65 -58 60 32 c164 88
274 215 325 373 18 58 7 64 -19 10z"/>
<path d="M14856 6402 c-46 -66 -218 -227 -300 -281 -43 -28 -76 -51 -73 -51
22 0 122 49 179 86 81 54 146 125 194 211 41 72 41 93 0 35z"/>
<path d="M5220 5562 c0 -14 14 -23 60 -35 84 -24 202 -80 379 -182 84 -48 154
-85 157 -82 15 14 -17 69 -70 123 -75 75 -189 133 -331 169 -121 31 -195 33
-195 7z"/>
<path d="M4732 5430 c-60 -13 -127 -57 -151 -101 -24 -42 -26 -63 -10 -109
l12 -33 22 61 c40 111 95 162 174 162 76 0 103 -26 116 -112 3 -21 8 -55 11
-75 l7 -38 12 35 c18 48 18 115 0 150 -27 53 -107 77 -193 60z"/>
<path d="M5057 5361 c-28 -19 -54 -46 -67 -70 -21 -42 -27 -111 -10 -111 5 0
24 28 41 61 41 81 71 109 120 109 46 0 78 -27 80 -67 1 -16 1 -62 0 -103 l-2
-75 22 25 c19 23 21 34 17 119 -4 90 -5 95 -34 117 -43 35 -106 33 -167 -5z"/>
<path d="M5402 5184 c-50 -25 -92 -74 -92 -108 0 -25 13 -19 60 30 55 55 88
74 134 74 49 0 86 -34 93 -87 5 -37 -12 -112 -44 -193 -4 -11 0 -10 15 3 56
50 85 190 52 251 -32 61 -129 74 -218 30z"/>
<path d="M5733 4948 c-35 -9 -79 -56 -100 -107 -25 -58 6 -53 49 9 38 54 69
73 100 61 14 -5 28 -17 32 -27 8 -21 -18 -112 -50 -176 -28 -55 -29 -59 -10
-52 24 9 66 81 81 141 30 113 -12 175 -102 151z"/>
<path d="M5863 4675 c-29 -12 -93 -86 -93 -107 0 -19 24 -5 62 37 81 89 105
39 42 -91 -47 -98 -42 -126 9 -50 67 100 83 170 47 206 -23 23 -25 24 -67 5z"/>
<path d="M4922 3824 c-45 -8 -104 -23 -132 -32 l-49 -17 197 -1 c226 0 367
-17 567 -69 158 -40 306 -95 443 -164 56 -28 102 -48 102 -44 0 15 -101 95
-186 149 -104 65 -260 127 -403 161 -138 32 -410 41 -539 17z"/>
<path d="M6275 4824 c127 -70 168 -198 104 -320 l-30 -59 35 35 c49 47 76 106
76 166 0 75 -25 113 -101 151 -71 35 -139 57 -84 27z"/>
<path d="M10370 1775 c-57 -33 -241 -105 -315 -124 -44 -12 -120 -27 -170 -34
l-90 -14 69 -8 c94 -11 198 0 292 29 105 33 208 99 235 149 11 20 11 20 -21 2z"/>
</g>
</svg>
