<?xml version="1.0" standalone="no"?>
<!DOCTYPE svg PUBLIC "-//W3C//DTD SVG 20010904//EN"
 "http://www.w3.org/TR/2001/REC-SVG-20010904/DTD/svg10.dtd">
<svg version="1.0" xmlns="http://www.w3.org/2000/svg"
 width="246.000000pt" height="231.000000pt" viewBox="0 0 246.000000 231.000000"
 preserveAspectRatio="xMidYMid meet">
<metadata>
Created by potrace 1.16, written by Peter Selinger 2001-2019
</metadata>
<g transform="translate(0.000000,231.000000) scale(0.100000,-0.100000)"
fill="#000000" stroke="none">
<path d="M1385 1972 l-510 -2 -73 -478 c-40 -262 -77 -515 -84 -562 -6 -47
-12 -86 -13 -88 -1 -1 -22 6 -46 17 -121 53 -287 49 -406 -9 -79 -39 -147
-113 -168 -183 -19 -64 -19 -81 1 -146 28 -94 129 -176 269 -216 68 -20 176
-16 262 10 70 21 170 98 208 159 27 45 30 58 32 140 2 88 9 123 154 789 l11
47 266 0 c147 0 349 3 450 7 l183 6 -3 -49 -3 -49 -55 -7 c-30 -4 -127 -11
-215 -15 l-160 -8 -12 -100 c-6 -55 -12 -120 -12 -144 l-1 -44 236 5 237 5 -6
-105 c-3 -57 -7 -106 -9 -107 -2 -2 -38 2 -81 8 -229 33 -450 -83 -481 -253
-24 -135 124 -278 322 -312 184 -31 404 59 473 194 28 55 25 133 -7 194 l-26
49 16 335 c19 386 32 635 42 803 l7 118 -144 -3 c-79 -2 -373 -4 -654 -6z
m-56 -160 c125 -5 176 -11 179 -19 6 -20 -35 -30 -163 -43 -179 -18 -445 8
-445 44 0 33 14 34 429 18z m-731 -1033 c37 -23 19 -34 -64 -36 -93 -1 -155
-20 -246 -75 -77 -45 -121 -49 -126 -10 -3 17 8 34 36 61 40 38 112 65 202 75
66 7 175 -1 198 -15z m1103 -60 c46 -16 99 -56 99 -76 0 -11 -6 -14 -22 -9
-71 20 -122 25 -170 16 -52 -10 -124 -46 -148 -74 -16 -21 -59 -21 -67 0 -3 9
7 28 28 50 82 85 194 122 280 93z"/>
<path d="M990 584 c-59 -20 -90 -58 -90 -109 0 -66 69 -123 134 -111 48 9 96
60 96 103 0 38 -22 83 -49 100 -22 14 -72 23 -91 17z"/>
</g>
</svg>
