<?xml version="1.0" standalone="no"?>
<!DOCTYPE svg PUBLIC "-//W3C//DTD SVG 20010904//EN"
 "http://www.w3.org/TR/2001/REC-SVG-20010904/DTD/svg10.dtd">
<svg version="1.0" xmlns="http://www.w3.org/2000/svg"
 width="1124.000000pt" height="1014.000000pt" viewBox="0 0 1124.000000 1014.000000"
 preserveAspectRatio="xMidYMid meet">
<metadata>
Created by potrace 1.16, written by Peter Selinger 2001-2019
</metadata>
<g transform="translate(0.000000,1014.000000) scale(0.100000,-0.100000)"
fill="#ffffff" stroke="none">
<path d="M3900 9954 c-102 -13 -266 -49 -359 -80 -238 -80 -531 -261 -545
-338 -11 -63 -49 -217 -52 -213 -2 2 3 41 12 86 11 57 12 87 5 94 -7 7 -12 1
-17 -19 -3 -16 -26 -108 -49 -204 -24 -96 -58 -236 -75 -310 -21 -91 -38 -142
-53 -157 -17 -19 -18 -23 -4 -23 29 0 55 50 88 171 l33 121 91 83 c114 105
216 187 224 179 3 -3 -24 -32 -61 -65 -79 -70 -152 -164 -183 -235 -39 -85
-86 -336 -102 -535 -5 -68 -3 -83 19 -130 23 -51 99 -139 120 -139 5 0 -6 21
-23 47 -18 26 -38 72 -46 102 -20 86 -14 95 8 12 19 -73 60 -141 128 -213 15
-14 37 -38 51 -53 35 -37 356 -252 475 -318 226 -127 391 -188 775 -287 398
-104 458 -114 619 -106 161 8 219 29 322 114 71 58 107 105 42 55 -75 -58
-161 -103 -228 -118 -94 -22 -106 -17 -50 25 62 46 154 154 204 238 175 294
237 757 151 1119 -10 43 -17 79 -15 81 9 9 69 -186 91 -296 14 -69 27 -130 30
-134 3 -4 5 -90 5 -192 0 -141 -4 -212 -20 -307 -12 -68 -30 -197 -40 -286
-23 -189 -39 -229 -144 -350 -126 -146 -274 -252 -422 -302 -120 -41 -135 -51
-73 -51 55 0 191 41 263 79 28 14 54 28 59 30 5 2 -2 -11 -15 -29 -26 -34
-118 -105 -214 -163 -33 -20 -76 -50 -95 -67 l-35 -30 30 6 c55 11 194 86 267
145 70 56 73 57 81 36 19 -49 80 -257 98 -329 24 -99 68 -186 115 -229 20 -19
45 -41 54 -50 9 -9 37 -26 61 -38 24 -12 60 -35 79 -52 l35 -29 -30 9 c-16 5
-68 12 -115 14 l-85 5 87 -18 c76 -17 97 -26 172 -80 49 -35 114 -94 153 -139
286 -329 324 -380 302 -407 -20 -25 9 -78 86 -154 74 -73 75 -75 75 -125 0
-60 -28 -180 -69 -295 -16 -46 -29 -86 -27 -87 1 -1 16 16 33 38 27 35 67 118
88 183 5 17 9 15 32 -19 39 -57 41 -112 9 -172 -50 -91 -219 -306 -286 -362
-36 -30 -87 -74 -115 -98 l-50 -44 60 26 c93 40 162 91 270 200 86 86 127 139
203 264 l15 24 14 -27 c12 -23 12 -38 -5 -119 l-20 -91 22 24 c11 14 31 39 43
55 l23 30 25 -28 c26 -29 40 -71 51 -154 4 -35 3 -53 -4 -53 -6 0 -14 5 -17
10 -3 6 -16 10 -27 10 -21 0 -21 -1 -3 -20 10 -12 33 -30 51 -40 32 -20 105
-119 162 -220 35 -63 65 -93 139 -139 50 -31 103 -88 103 -110 0 -6 -10 -11
-23 -11 -12 0 -45 -19 -72 -43 -28 -23 -119 -92 -204 -152 -85 -61 -197 -146
-250 -190 -263 -219 -322 -265 -332 -260 -5 4 -21 25 -35 47 -24 38 -25 40 -7
54 21 16 2 19 -26 5 -9 -5 -23 -6 -29 -2 -9 5 1 14 27 26 22 10 48 26 57 36
14 16 7 15 -46 -7 -41 -17 -74 -24 -92 -20 -37 7 -36 -9 2 -29 17 -9 30 -19
30 -24 0 -19 -42 -44 -75 -45 l-36 -1 -4 55 c-5 67 -20 81 -113 111 -97 31
-328 38 -477 14 -204 -32 -429 -124 -711 -292 -191 -113 -270 -154 -421 -219
-199 -85 -251 -88 -323 -21 -51 49 -143 158 -160 190 -8 16 -36 44 -62 63 -26
20 -48 40 -48 45 0 5 -29 40 -65 77 -53 56 -87 81 -185 133 -66 35 -120 69
-120 76 0 6 11 24 24 40 34 41 53 81 76 164 26 96 25 161 -4 255 -40 126 -172
328 -256 392 -24 19 -51 47 -58 62 -8 16 -30 47 -50 71 l-36 42 29 -5 c17 -3
39 -8 50 -12 18 -7 18 -6 -2 12 -19 17 -20 21 -7 26 25 10 31 8 65 -21 30 -25
31 -26 25 -5 -11 33 14 28 47 -10 l29 -33 -6 28 c-8 33 -2 33 69 4 49 -20 55
-25 56 -52 0 -16 5 -39 10 -50 7 -14 8 -5 5 34 -5 52 -5 53 13 37 15 -14 20
-14 25 -4 5 10 7 10 12 1 3 -8 17 -10 37 -6 l32 6 -20 -22 -19 -22 27 6 c63
16 62 17 62 -70 0 -94 -8 -128 -35 -155 -20 -20 -56 -28 -45 -10 9 14 -5 12
-35 -5 -31 -18 -48 -19 -32 -3 14 14 16 48 3 48 -5 0 -11 -10 -13 -21 -2 -12
-13 -28 -24 -36 l-22 -14 15 45 c11 32 13 56 6 82 -14 60 -30 53 -25 -11 3
-32 -1 -68 -8 -86 -11 -26 -11 -32 0 -39 8 -5 18 -6 24 -3 17 11 125 17 134 8
3 -2 0 -11 -7 -19 -19 -22 -25 -109 -11 -152 27 -84 114 -157 188 -156 72 1
78 2 63 11 -10 6 -2 11 26 15 73 13 133 64 135 118 1 12 7 30 14 38 35 42 40
113 10 143 -7 7 -16 39 -20 71 -6 53 -5 58 11 51 19 -7 171 -38 493 -100 151
-29 244 -56 504 -143 310 -103 317 -106 285 -118 -48 -18 -80 -17 -101 3 -25
23 -79 22 -114 -2 -16 -11 -33 -18 -38 -17 -4 2 -19 -4 -32 -13 -13 -8 -32
-15 -43 -15 -10 0 -31 -14 -45 -31 -23 -27 -26 -39 -26 -111 0 -103 14 -148
62 -203 60 -68 108 -76 208 -32 34 15 110 95 122 128 4 9 34 23 73 34 l66 18
27 -25 c27 -25 72 -52 103 -61 12 -4 18 -21 21 -61 8 -95 33 -91 33 5 0 32 3
59 7 59 4 0 19 5 35 11 15 6 54 12 86 14 32 1 63 7 69 13 8 8 5 9 -11 5 -18
-4 -21 -1 -21 23 l-1 29 -14 -26 c-22 -40 -44 -44 -77 -13 -15 15 -30 36 -34
46 -3 10 -10 18 -15 18 -17 0 -9 -28 16 -58 l25 -30 -40 -7 c-46 -8 -82 13
-126 71 -15 19 -29 33 -31 30 -8 -7 17 -49 51 -85 46 -49 2 -24 -67 39 -59 54
-73 88 -79 196 -3 55 2 62 91 124 35 24 169 48 274 50 65 0 88 -26 142 -165 7
-18 8 -18 12 -2 3 10 0 31 -6 47 -13 40 -6 38 15 -2 24 -47 30 -16 6 32 -11
22 -17 40 -13 40 18 0 56 -38 87 -86 19 -30 37 -54 39 -54 7 0 -22 69 -41 97
-19 30 -18 33 9 33 43 0 73 -50 98 -160 l17 -75 1 55 c0 30 -6 72 -13 93 -8
20 -12 37 -9 37 2 0 18 -15 35 -33 17 -18 28 -24 25 -14 -9 26 9 20 33 -10 28
-36 23 -97 -13 -172 -15 -30 -25 -56 -24 -58 9 -9 51 51 72 103 l25 59 0 -58
c0 -32 4 -56 9 -53 14 9 20 56 11 87 -9 31 -2 36 30 19 13 -7 20 -27 25 -80 7
-71 25 -107 25 -51 0 48 15 37 35 -24 21 -67 15 -93 -32 -157 -43 -59 -28 -62
27 -5 l41 42 -20 -53 c-24 -60 -11 -61 19 -2 20 39 26 80 13 80 -5 0 -9 18
-10 40 -1 42 -47 150 -64 150 -5 0 -9 7 -9 16 0 8 -14 29 -30 46 -23 23 -36
29 -55 24 -18 -5 -25 -1 -30 14 -12 36 -56 81 -75 75 -9 -3 -23 1 -30 10 -7 8
-19 15 -27 15 -8 0 -28 14 -45 30 -24 25 -39 30 -81 32 -29 1 -64 2 -78 3 -15
1 -42 14 -60 29 -30 26 -39 28 -96 24 -35 -2 -62 -2 -61 2 2 3 25 48 52 102
l49 96 56 21 c90 33 433 268 516 354 l20 20 -25 -15 c-14 -8 -116 -74 -226
-146 -111 -73 -232 -145 -269 -162 -65 -29 -66 -29 -59 -7 15 49 23 63 54 92
66 62 379 622 368 657 -3 7 -22 -17 -43 -53 -70 -117 -328 -510 -332 -506 -2
3 1 33 6 68 6 35 15 127 22 204 11 136 12 141 43 175 18 20 47 58 65 85 l33
50 -34 -35 c-18 -19 -46 -50 -61 -69 -15 -18 -30 -32 -32 -30 -11 12 41 365
71 483 8 32 13 60 11 63 -7 6 -40 -85 -63 -172 l-18 -70 -13 63 c-7 35 -20 73
-29 85 -9 12 -14 15 -11 7 32 -99 33 -249 2 -570 -33 -347 -66 -519 -120 -642
-20 -46 -44 -100 -53 -120 -17 -37 -18 -38 -73 -38 -60 0 -53 3 -192 -96 l-38
-27 -53 26 c-74 37 -133 58 -380 137 -216 69 -360 104 -551 135 -55 8 -165 29
-244 46 -125 27 -148 35 -174 60 -16 16 -46 38 -66 49 -20 10 -31 19 -26 20
25 1 320 -53 414 -76 403 -96 1012 -278 1088 -325 18 -12 39 -19 46 -16 20 7
-150 85 -278 127 -160 52 -810 224 -960 255 -66 13 -178 31 -250 40 -71 9
-155 23 -185 31 -30 9 -66 18 -80 21 -14 4 -35 13 -47 21 -13 8 -29 12 -36 9
-20 -8 -119 18 -151 38 -18 12 -37 16 -61 12 -19 -3 -37 -1 -41 5 -3 5 -17 8
-31 5 -14 -2 -38 0 -53 6 -24 9 -37 7 -74 -11 l-45 -23 -81 56 -80 57 0 45 c0
60 -38 120 -131 207 -38 36 -63 66 -55 66 34 0 80 87 91 172 5 42 12 56 28 64
12 5 29 28 37 52 9 23 26 49 38 58 34 23 72 96 81 155 10 62 1 135 -30 231
l-21 68 27 85 c43 131 28 227 -47 314 -37 43 -35 74 18 221 31 87 38 119 38
186 1 73 -2 87 -36 155 -29 58 -56 94 -117 152 -44 42 -103 89 -132 106 l-52
30 39 3 39 4 -30 13 c-43 19 -235 26 -348 12 -98 -11 -201 -30 -195 -36 2 -2
102 1 222 7 l219 9 71 -48 c100 -68 207 -177 240 -244 40 -82 43 -147 16 -284
-13 -63 -26 -115 -29 -115 -3 0 -14 39 -23 87 -31 158 -81 235 -248 377 l-45
38 50 -7 50 -6 -23 20 c-49 43 -125 61 -250 60 -64 0 -135 -4 -157 -8 -33 -6
-22 -9 70 -15 202 -13 194 -10 337 -149 142 -138 142 -137 187 -342 16 -71 33
-141 37 -155 8 -25 7 -25 -27 5 -65 57 -504 314 -515 302 -3 -3 34 -29 81 -58
364 -226 499 -338 529 -438 19 -63 21 -134 5 -182 -6 -19 -13 -41 -15 -49 -3
-9 -13 -1 -28 25 -40 72 -144 222 -195 281 -75 90 -115 133 -97 104 8 -14 66
-103 127 -199 166 -258 213 -372 212 -511 0 -50 -6 -77 -27 -118 -15 -29 -30
-50 -35 -48 -5 3 -11 27 -15 53 -4 27 -13 62 -20 78 -11 26 -12 14 -8 -91 4
-94 1 -126 -10 -148 -15 -28 -15 -28 -28 50 -20 126 -75 323 -86 311 -2 -2 10
-70 26 -153 51 -260 50 -343 -7 -428 l-26 -40 -22 65 c-53 157 -167 341 -269
436 -55 51 -109 87 -218 146 -264 141 -369 177 -526 177 -106 0 -172 -19 -249
-70 -120 -81 -513 -531 -513 -588 0 -8 16 7 37 34 20 27 68 83 107 124 39 42
121 131 181 198 128 143 198 205 275 241 49 23 67 26 160 26 128 -1 207 -26
430 -133 285 -138 381 -225 494 -450 31 -61 86 -202 80 -202 -3 0 -27 18 -55
40 -28 22 -54 40 -59 40 -4 0 -20 24 -35 53 -79 150 -215 305 -375 426 -151
114 -258 155 -400 156 -86 0 -101 -3 -161 -31 -95 -45 -176 -103 -262 -186
-137 -135 -403 -520 -449 -651 l-17 -52 -1 60 c0 88 29 323 45 362 8 19 44 66
80 106 102 111 189 240 256 377 90 183 100 203 118 224 21 24 74 51 191 97 52
21 90 38 84 38 -19 1 -138 -37 -199 -64 -68 -30 -84 -24 -36 14 70 54 78 64
29 38 l-47 -25 10 25 c40 107 134 191 331 299 46 25 72 42 58 38 -62 -17 -200
-78 -247 -109 l-53 -35 0 83 c0 67 5 96 26 148 58 142 203 314 347 409 77 51
86 60 57 54 -54 -10 -227 -138 -298 -218 -48 -55 -46 -43 6 32 147 211 278
290 587 358 208 46 367 43 698 -12 197 -33 305 -72 587 -211 395 -194 587
-279 865 -380 125 -46 122 -47 -35 -13 -149 31 -209 34 -250 13 -33 -17 -78
-78 -67 -90 3 -3 23 13 45 36 48 50 61 51 240 16 201 -39 803 -194 839 -216
17 -11 34 -27 39 -37 4 -9 10 -98 13 -197 8 -218 26 -203 26 22 0 142 0 142
21 128 28 -18 240 -105 256 -105 16 1 -250 130 -267 130 -7 0 -16 11 -19 25
-14 54 -99 91 -396 170 -383 103 -578 174 -915 330 -237 110 -680 330 -646
320 16 -5 21 -4 17 4 -4 5 -23 15 -44 21 -77 21 -434 90 -532 103 l-101 12 78
52 c99 66 108 69 251 88 109 14 230 39 241 50 14 14 -18 14 -112 1 -57 -9
-112 -16 -121 -16 -11 0 6 21 44 56 33 31 58 59 55 62 -3 3 -18 -6 -33 -20
-29 -27 -73 -58 -82 -58 -4 0 2 120 9 194 1 6 17 -6 37 -25 l36 -34 -22 55
c-46 116 -69 187 -76 235 l-7 49 48 -42 c26 -23 52 -42 57 -42 5 0 -14 30 -42
66 -27 36 -50 69 -50 74 0 5 27 -5 60 -22 34 -16 80 -32 103 -35 40 -4 39 -2
-45 42 -109 58 -133 91 -132 180 1 81 28 167 73 234 56 82 77 127 105 227 28
101 59 255 51 262 -7 7 -11 -9 -40 -132 -38 -161 -60 -219 -132 -345 -37 -63
-75 -136 -85 -163 -22 -59 -23 -138 -2 -197 15 -46 12 -91 -7 -91 -33 0 -182
140 -222 209 l-18 31 108 1 108 2 -105 12 c-149 19 -281 49 -296 70 -9 11 -9
26 -3 48 17 60 68 333 73 393 6 62 43 179 119 374 24 63 47 126 51 140 23 86
-62 -117 -151 -360 -19 -52 -39 -99 -45 -105 -8 -7 -9 -5 -6 5 3 8 29 88 57
178 107 337 174 492 214 492 6 0 21 17 32 37 24 44 125 103 147 86 18 -14 138
-53 163 -53 41 0 85 -79 85 -154 1 -36 2 -39 14 -24 7 10 16 15 20 11 11 -11
-6 59 -24 102 -23 53 -55 81 -110 95 -67 17 -144 44 -151 53 -13 18 -169 -60
-169 -85 0 -5 -20 -33 -44 -60 -36 -41 -55 -80 -98 -194 -42 -114 -57 -144
-73 -146 -30 -4 -71 -92 -59 -127 10 -26 32 -28 26 -2 -5 20 28 101 40 101 14
0 4 -37 -43 -154 -22 -55 -43 -122 -46 -148 -5 -43 -4 -48 14 -48 20 0 19 -7
-23 -212 -24 -117 -44 -223 -44 -236 0 -18 11 -28 53 -47 28 -13 66 -25 82
-26 30 -3 65 -25 65 -41 0 -17 79 -115 122 -152 24 -21 61 -49 84 -62 39 -23
41 -27 47 -82 4 -32 13 -74 21 -93 11 -27 12 -45 5 -75 -5 -21 -8 -84 -7 -139
l2 -99 -55 3 c-57 3 -243 32 -517 81 -292 53 -607 65 -697 26 -46 -19 -110
-77 -132 -120 -17 -33 -13 -32 67 29 107 82 101 80 330 79 191 -1 220 -3 415
-38 413 -74 550 -95 574 -89 17 4 22 2 19 -8 -2 -7 -37 -21 -77 -31 -86 -21
-124 -43 -179 -101 l-39 -44 -109 -6 c-291 -17 -587 -117 -726 -245 -65 -61
-141 -155 -174 -216 -23 -43 -41 -49 -142 -46 -50 1 -56 -1 -92 -39 -21 -22
-60 -78 -86 -125 -27 -47 -53 -86 -57 -86 -4 0 -23 7 -42 15 -35 14 -35 14
-30 67 3 29 12 127 21 218 10 99 23 184 34 213 34 90 247 467 264 467 2 0 2
-10 -1 -22 -4 -16 3 -11 22 17 81 118 139 147 305 153 140 5 297 -12 715 -79
170 -27 323 -51 338 -54 20 -3 27 -1 25 8 -3 7 -43 17 -99 25 -52 7 -191 28
-309 47 -399 64 -677 91 -767 74 -69 -13 -164 -61 -205 -103 -94 -97 -303
-464 -333 -584 -17 -69 -35 -248 -35 -349 l0 -73 -53 20 c-28 11 -60 20 -70
20 -30 0 -66 -31 -111 -94 -74 -105 -114 -193 -136 -300 -27 -130 -26 -157 5
-186 28 -27 47 -20 22 8 -10 10 -17 26 -17 35 0 26 67 133 97 156 16 11 22 21
15 21 -23 0 -63 -33 -82 -69 -12 -23 -19 -29 -20 -18 0 38 33 164 57 212 38
77 130 194 157 201 24 6 226 -71 226 -86 0 -11 -39 -260 -48 -310 -9 -46 -70
-149 -122 -207 -19 -20 -32 -48 -36 -75 -4 -24 -10 -47 -14 -53 -14 -19 -58
-160 -73 -235 -33 -158 -69 -381 -64 -386 3 -3 10 21 16 53 6 32 17 92 25 133
8 41 20 109 27 150 6 41 14 70 16 63 2 -7 -5 -67 -16 -135 -10 -68 -20 -139
-20 -158 0 -19 -10 -75 -21 -124 -17 -70 -21 -115 -19 -221 1 -72 0 -136 -3
-141 -3 -5 -18 -66 -33 -136 l-28 -126 -40 14 c-46 16 -107 19 -107 4 0 -5 14
-10 31 -10 16 0 50 -5 75 -11 44 -11 44 -12 44 -56 l0 -44 -139 7 c-99 5 -140
3 -145 -5 -5 -8 13 -11 61 -12 l68 -1 -67 -13 c-37 -8 -72 -17 -78 -20 -15 -9
-12 11 11 89 12 39 23 77 25 84 2 6 14 12 28 12 14 0 27 4 30 8 3 5 -8 6 -24
4 -28 -4 -29 -3 -26 34 3 30 8 38 21 36 15 -3 15 -1 -1 23 -9 14 -14 29 -10
33 4 4 37 12 74 18 l67 12 -67 1 c-38 0 -68 4 -68 9 0 16 16 29 45 37 29 8 29
9 5 12 -51 8 -53 11 -30 47 22 36 28 80 16 108 -6 13 0 17 33 23 56 9 61 24 6
17 l-45 -5 7 34 c8 44 16 49 83 49 47 1 52 3 30 11 -14 6 -44 8 -67 5 l-43 -6
0 38 c0 21 5 43 11 49 7 7 7 13 1 17 -5 3 -17 -2 -25 -12 -13 -14 -16 -41 -17
-127 0 -61 0 -123 0 -138 0 -16 -10 -41 -21 -56 -20 -27 -18 -61 5 -61 6 0 4
-4 -4 -10 -8 -5 -15 -19 -15 -32 -1 -13 -5 -30 -9 -36 -4 -7 -2 -19 4 -27 7
-8 8 -15 3 -15 -6 0 -13 -28 -16 -62 -3 -35 -15 -90 -27 -123 -11 -33 -19 -69
-18 -80 2 -12 -8 -29 -25 -44 -37 -31 -71 -101 -102 -207 -30 -103 -31 -143
-6 -175 20 -26 36 -155 20 -165 -5 -3 -9 -21 -9 -41 0 -20 -7 -44 -16 -54 -19
-21 -36 -89 -22 -86 16 3 35 -32 22 -41 -6 -4 -10 -20 -8 -37 2 -16 -1 -46 -6
-65 -7 -25 -5 -51 5 -90 8 -30 15 -69 15 -87 0 -35 18 -83 32 -83 4 0 8 -9 8
-20 0 -11 16 -37 35 -59 19 -21 35 -44 35 -52 0 -7 14 -28 32 -46 l31 -32 -17
-168 c-24 -232 -32 -544 -16 -625 14 -72 25 -96 88 -193 119 -182 168 -213 75
-47 -129 229 -133 241 -133 497 0 143 23 492 33 502 12 11 45 -18 40 -35 -7
-28 47 -68 124 -91 37 -11 70 -18 74 -16 4 3 12 -2 19 -10 7 -8 19 -15 26 -15
8 0 23 -5 34 -12 13 -9 27 -9 47 -2 22 7 30 19 39 54 15 61 4 75 -13 16 -8
-26 -20 -49 -28 -53 -23 -8 -45 4 -39 22 4 9 13 14 20 11 13 -5 21 16 38 99 6
29 6 29 -9 10 -9 -11 -19 -32 -22 -47 -7 -37 -59 -86 -75 -70 -9 9 -8 16 5 30
28 30 19 34 -22 10 l-40 -23 -26 25 c-21 19 -28 22 -34 11 -7 -11 -17 -9 -49
9 -47 26 -63 51 -29 42 21 -5 21 -4 4 15 -10 11 -33 29 -52 39 -37 20 -45 34
-20 34 8 0 15 5 15 11 0 7 -9 9 -21 6 -15 -4 -10 5 20 39 53 56 52 64 -1 23
-24 -18 -49 -37 -55 -42 -9 -6 -16 -1 -24 17 -11 24 -9 30 21 61 39 41 29 48
-12 8 -23 -22 -30 -24 -43 -13 -16 13 -16 35 0 72 11 28 -9 21 -27 -9 l-17
-28 -1 33 c0 18 9 51 20 72 16 32 17 40 6 40 -8 0 -23 -18 -34 -41 l-20 -40
-6 28 c-7 29 27 130 60 182 l17 26 -25 -23 c-14 -13 -34 -42 -44 -64 -17 -39
-19 -40 -25 -17 -24 85 -2 145 74 200 22 16 35 29 28 29 -17 0 -52 -19 -78
-43 -30 -27 -31 -4 -1 39 13 19 46 44 80 60 32 15 56 29 54 31 -7 7 -113 -38
-133 -56 -23 -22 -43 -11 -43 22 0 33 20 57 76 88 64 36 65 52 2 20 l-43 -21
44 40 c48 44 46 51 -6 18 -33 -20 -35 -20 -25 -2 6 11 22 26 36 34 27 14 37
36 11 26 -8 -3 -21 -8 -29 -12 -21 -8 -28 50 -11 99 8 23 15 49 15 58 0 24 18
27 223 44 l67 6 0 -47 c0 -25 7 -71 16 -101 15 -52 15 -59 0 -90 -14 -30 -20
-34 -41 -29 -27 7 -35 -8 -10 -18 15 -5 21 -37 9 -49 -3 -3 -17 -1 -31 4 -40
15 -39 2 1 -22 46 -27 56 -61 27 -99 -19 -27 -20 -33 -8 -80 16 -61 30 -55 21
10 -5 36 -2 54 12 75 15 23 16 32 6 59 -15 39 -6 92 19 117 27 27 34 67 21
116 -7 24 -12 67 -12 97 l0 53 61 7 c34 3 123 6 198 6 l136 0 1 -64 c1 -84 34
-141 109 -193 30 -21 54 -41 55 -44 0 -3 -11 -11 -24 -17 -13 -6 -34 -30 -47
-53 -25 -45 -101 -107 -132 -108 -10 -1 -29 -12 -42 -26 -20 -19 -25 -34 -25
-72 0 -62 42 -178 75 -213 25 -26 26 -29 11 -51 -20 -31 -66 -155 -66 -177 0
-9 23 26 50 78 54 103 73 124 104 114 28 -9 28 -7 10 -43 -24 -47 -11 -48 22
-2 36 50 48 52 28 5 -26 -63 -10 -57 36 13 25 38 54 70 65 72 15 3 17 0 8 -10
-6 -8 -14 -25 -18 -39 -6 -21 -2 -19 28 15 l36 40 -9 -35 c-12 -44 -13 -133
-1 -126 5 3 12 27 16 53 4 27 10 41 14 34 5 -8 15 5 27 36 l18 48 7 -49 c12
-76 33 -86 24 -11 -4 33 -11 61 -16 63 -11 4 24 73 45 91 19 16 21 41 3 41 -8
0 -23 -10 -35 -23 -19 -20 -28 -23 -71 -17 -27 3 -60 14 -75 23 -34 23 -34 5
0 -22 18 -14 41 -21 70 -21 32 0 44 -4 44 -14 0 -8 -5 -18 -10 -21 -6 -3 -10
-2 -10 3 0 5 -21 12 -47 16 -27 3 -61 9 -78 12 l-30 5 23 -19 c12 -11 22 -23
22 -26 0 -3 -22 -6 -49 -6 -43 0 -51 4 -73 33 -49 63 -89 180 -70 199 6 6 12
-5 17 -28 7 -40 29 -89 43 -98 5 -3 3 18 -5 47 -15 58 -18 147 -4 147 4 0 10
-33 13 -73 3 -40 10 -82 17 -92 10 -16 11 -3 6 71 -7 108 4 161 42 195 15 13
22 17 16 9 -17 -23 -45 -128 -37 -141 3 -6 14 11 23 39 10 27 25 61 34 76 18
26 37 35 37 16 0 -5 -4 -10 -10 -10 -13 0 -42 -104 -38 -137 3 -24 6 -21 22
27 22 63 41 96 61 104 21 8 72 -13 80 -32 4 -9 23 -62 42 -116 55 -157 87
-212 174 -298 99 -97 114 -120 99 -147 -19 -36 -53 -50 -145 -60 l-90 -9 -27
31 c-16 17 -28 26 -28 19 0 -19 59 -78 67 -67 7 9 143 17 143 8 0 -3 -34 -20
-76 -39 -79 -37 -96 -60 -22 -30 98 41 108 46 108 61 0 8 11 17 25 21 14 3 36
20 50 36 25 29 26 30 40 12 13 -17 10 -23 -35 -64 -90 -82 -138 -174 -159
-309 -9 -54 3 -61 14 -8 20 92 68 190 123 249 31 33 63 69 70 79 12 17 14 17
47 -2 l35 -21 -50 -45 c-79 -71 -185 -218 -211 -293 -9 -24 -8 -24 7 -5 8 11
38 56 67 100 48 76 201 244 211 234 3 -3 -30 -41 -72 -85 -74 -76 -180 -220
-169 -230 2 -3 25 23 50 58 50 71 178 206 220 233 25 16 29 16 45 2 10 -9 43
-28 75 -42 52 -24 66 -26 165 -24 89 3 112 0 132 -14 13 -9 39 -17 57 -17 17
0 34 -4 37 -9 3 -5 -40 -14 -97 -21 -201 -24 -544 -127 -756 -227 -210 -98
-394 -242 -449 -349 -28 -54 -55 -152 -48 -170 6 -15 -68 38 -80 57 -3 5 -9 7
-13 4 -5 -2 -34 22 -65 55 -99 104 -144 226 -172 468 l-13 117 3 -130 c4 -143
32 -262 84 -360 31 -58 134 -162 208 -212 55 -37 64 -57 64 -149 0 -56 27
-196 52 -267 11 -32 18 -60 15 -63 -15 -15 -344 125 -432 185 -25 17 -45 27
-45 22 0 -12 96 -83 160 -119 69 -38 283 -122 313 -122 17 0 32 -18 65 -72
l43 -72 -25 -56 c-28 -64 -50 -140 -42 -148 9 -8 13 -2 48 83 18 43 38 80 43
81 16 5 140 -183 137 -205 -2 -11 -20 -75 -41 -143 -22 -68 -57 -215 -80 -328
-86 -423 -149 -605 -293 -850 -17 -30 -25 -49 -15 -42 23 19 96 149 144 257
74 164 112 302 183 653 22 106 59 252 82 324 l42 130 25 -32 c15 -18 48 -53
76 -79 27 -25 73 -69 103 -96 l53 -50 -60 -130 c-56 -121 -104 -214 -195 -377
-30 -54 -36 -74 -31 -98 10 -44 28 -50 19 -6 -6 33 1 48 64 154 76 128 155
283 193 377 13 33 24 62 26 64 1 2 44 -34 95 -79 147 -131 344 -286 460 -363
59 -39 106 -72 105 -73 -1 -1 -60 5 -131 14 -110 14 -155 14 -305 4 -97 -6
-219 -18 -272 -26 -91 -14 -219 -59 -219 -77 0 -12 2 -11 36 5 39 20 206 53
329 65 210 21 299 23 453 7 l153 -16 87 -48 c359 -202 652 -271 1155 -272 134
0 341 22 382 40 11 5 57 19 102 30 190 47 367 125 528 233 172 114 369 283
537 460 177 185 322 317 376 343 40 19 174 56 281 79 42 9 200 22 364 30 273
14 291 14 304 -3 44 -57 291 -404 350 -492 117 -175 123 -197 72 -246 -38 -36
-62 -81 -55 -101 4 -9 1 -22 -5 -30 -7 -7 -9 -17 -5 -21 12 -12 34 26 29 51
-4 21 29 77 45 77 4 0 16 -17 27 -37 21 -39 194 -231 223 -247 18 -10 -20 46
-68 99 -15 17 -56 69 -93 117 -64 84 -65 87 -46 104 10 9 19 26 19 36 0 21
-277 440 -397 602 -41 54 -73 100 -71 101 2 2 48 11 103 20 55 9 152 33 215
53 63 20 120 36 125 37 6 0 12 3 15 6 3 4 28 18 55 32 61 31 131 90 149 126 7
14 16 66 20 115 4 62 14 108 32 150 14 34 28 73 31 87 6 35 -12 69 -37 69 -11
0 -20 4 -20 9 0 5 -14 14 -30 21 -35 14 -129 10 -300 -15 -245 -34 -588 -4
-819 72 -176 58 -245 144 -252 314 l-3 62 215 67 c1559 489 1883 590 1886 586
3 -2 -13 -10 -34 -16 -173 -56 -580 -220 -1013 -410 -536 -234 -951 -459 -925
-501 11 -16 27 -10 79 30 28 22 101 67 161 102 146 83 466 239 477 233 4 -3 8
-1 8 3 0 32 320 76 502 70 203 -7 265 -28 374 -126 47 -43 130 -81 176 -81 10
0 18 -12 22 -33 7 -39 62 -124 96 -149 43 -31 256 -56 495 -58 116 -2 251 -3
302 -4 82 -1 94 1 112 21 11 12 29 27 39 35 23 17 116 144 151 207 30 56 73
95 116 105 47 11 112 53 140 90 20 27 34 34 70 38 57 7 94 31 101 67 5 25 15
32 83 55 42 15 90 29 106 32 17 3 40 7 51 9 12 3 62 51 110 107 49 57 131 148
183 202 112 119 164 194 159 229 -2 20 17 45 98 129 56 57 104 114 108 125 7
21 10 20 117 -29 88 -40 115 -48 132 -41 18 8 24 6 32 -11 11 -22 23 -22 235
-17 14 1 44 1 68 0 54 -1 94 24 90 54 -3 21 -24 35 -98 66 -24 10 -24 10 5 5
47 -9 83 -25 89 -39 9 -25 67 -47 122 -47 127 -1 140 89 16 112 -33 6 -30 8
35 15 82 9 115 22 119 48 1 10 14 33 28 51 29 39 42 81 27 90 -6 4 -36 13 -66
21 -30 8 -166 58 -303 111 l-247 95 -144 -5 c-79 -3 -146 -8 -149 -11 -7 -7
-112 -6 -149 1 -25 5 -34 15 -53 61 -26 64 -58 88 -130 97 -31 4 -60 16 -80
33 -30 25 -38 26 -153 28 -126 2 -236 17 -246 33 -24 36 -138 46 -209 17 -56
-23 -92 -67 -92 -111 0 -62 38 -107 99 -119 l34 -6 -31 -32 c-37 -40 -55 -74
-48 -92 3 -8 -1 -27 -9 -41 -15 -29 -44 -41 -212 -85 l-82 -22 -18 22 c-20 25
-76 40 -143 41 -64 0 -161 27 -183 50 -10 11 -19 21 -20 21 -2 1 -186 13 -388
25 -79 4 -127 3 -151 -5 -29 -10 -49 -9 -105 4 -37 8 -83 22 -101 31 -26 12
-39 13 -67 4 -19 -6 -37 -16 -40 -21 -4 -5 -23 -6 -43 -3 -29 4 -45 0 -73 -19
-53 -36 -161 -63 -203 -50 -20 6 -40 7 -47 2 -8 -5 -28 -9 -44 -9 -17 0 -36
-5 -42 -11 -7 -7 -19 -1 -41 20 -31 32 -80 41 -112 21 -11 -7 -20 2 -40 38
-18 34 -38 53 -73 71 -79 40 -132 94 -174 178 -21 42 -57 98 -81 124 -40 44
-43 53 -53 131 -14 115 -24 141 -72 184 -27 24 -41 45 -39 57 6 32 -17 73 -59
106 -25 21 -39 40 -39 55 0 27 -46 100 -78 122 -19 13 -22 24 -22 85 0 84 -11
106 -83 178 -46 45 -56 61 -62 100 -14 98 -38 133 -291 421 -46 53 -115 120
-154 150 -46 36 -70 62 -70 76 0 24 -46 69 -118 114 -43 26 -52 37 -48 54 14
61 17 159 6 204 -15 64 -49 104 -134 155 -59 36 -71 48 -81 82 -6 22 -28 73
-48 114 -34 68 -36 78 -26 114 6 21 8 42 5 45 -3 3 43 55 102 116 108 111 160
186 182 261 9 34 39 308 40 370 0 15 3 16 12 7 7 -7 18 -12 26 -12 9 0 5 11
-12 31 l-27 31 7 192 c8 247 24 278 22 43 0 -97 1 -179 4 -182 2 -2 10 116 17
263 7 147 15 282 18 300 3 20 1 32 -6 32 -6 0 -11 -15 -11 -32 0 -18 -4 -39
-9 -46 -5 -8 -10 32 -13 98 l-6 112 37 34 c35 33 70 49 91 42 5 -1 -11 -19
-37 -38 -43 -32 -49 -41 -57 -88 -11 -63 1 -83 29 -52 16 18 17 20 2 14 -14
-5 -17 0 -17 27 0 39 19 80 39 87 10 3 12 -5 7 -39 -6 -47 7 -29 18 23 4 17
23 39 52 59 45 31 55 51 15 29 -12 -6 -36 -8 -57 -4 -32 6 -40 3 -78 -35 l-43
-42 -23 108 c-54 259 -172 468 -372 659 -133 127 -315 242 -464 295 -169 60
-207 71 -304 90 -78 16 -152 22 -285 24 -99 2 -196 1 -215 -1z m405 -49 c194
-27 329 -67 480 -140 119 -58 153 -86 45 -36 -369 168 -770 171 -1176 10 -112
-45 -273 -136 -371 -210 -31 -23 -70 -44 -87 -46 -42 -5 -96 -42 -152 -108
-74 -86 -98 -133 -32 -64 55 59 148 139 160 139 4 0 -26 -33 -65 -73 -40 -40
-99 -107 -132 -149 -33 -42 -61 -76 -62 -74 -1 1 13 49 31 106 19 58 42 145
52 193 17 82 21 89 54 109 19 12 52 36 73 54 21 17 59 43 85 56 107 57 188
100 197 107 43 33 282 104 421 125 118 19 354 19 479 1z m187 -115 c212 -36
381 -109 548 -236 209 -159 362 -375 439 -619 35 -111 61 -246 60 -309 0 -33
-6 -20 -29 69 -52 202 -136 396 -231 536 -57 84 -247 274 -329 327 -134 88
-274 146 -449 185 -139 31 -403 30 -550 -2 -276 -59 -514 -170 -786 -367 l-50
-36 45 42 c229 216 572 380 877 419 128 16 333 12 455 -9z m-169 -199 c276
-92 381 -252 225 -341 -39 -23 -54 -25 -153 -25 -133 1 -212 20 -344 83 -178
84 -244 184 -173 262 44 50 90 61 229 56 103 -3 137 -9 216 -35z m730 -143
c150 -126 270 -329 328 -553 27 -104 31 -143 36 -295 10 -324 -26 -515 -142
-757 -64 -132 -103 -191 -188 -279 -97 -103 -129 -118 -224 -109 -40 4 -73 9
-73 12 0 3 34 36 75 75 204 191 338 513 377 907 33 345 -62 779 -219 994 -19
26 -32 47 -28 47 4 0 30 -19 58 -42z m-1323 -97 c37 -27 38 -66 1 -100 -54
-51 -158 -61 -207 -20 -25 20 -17 68 17 100 51 47 136 57 189 20z m-2539
-2439 c-10 -20 -53 -249 -66 -362 -13 -104 6 -42 29 96 13 77 29 158 35 181
13 49 79 113 116 113 l24 0 -20 -34 c-11 -18 -33 -71 -49 -117 -32 -90 -38
-168 -19 -248 9 -42 9 -44 -31 -87 -47 -51 -69 -97 -99 -209 -12 -43 -66 -169
-120 -279 -78 -158 -110 -213 -150 -256 l-52 -55 4 234 4 234 25 19 c15 10 41
41 58 69 18 27 34 48 36 47 1 -2 -11 -89 -27 -193 -16 -105 -28 -199 -27 -210
2 -11 20 79 40 200 104 616 108 633 148 702 45 77 55 87 46 50 -11 -45 -76
-500 -75 -522 2 -41 29 97 64 325 19 129 35 238 35 242 0 11 72 89 77 84 3 -2
0 -13 -6 -24z m4188 -130 c42 -21 60 -37 79 -72 22 -41 23 -53 19 -132 -7
-115 -16 -130 -49 -86 -49 65 -82 148 -115 296 -7 28 0 28 66 -6z m-3724 -827
c102 -26 198 -79 347 -190 101 -76 158 -126 195 -173 51 -64 121 -182 108
-182 -3 0 -22 8 -43 19 -81 40 -172 63 -231 58 -42 -3 -65 0 -93 14 -50 26
-161 25 -253 -1 -112 -31 -284 -123 -357 -189 -35 -33 -72 -74 -82 -92 -15
-27 -7 -22 42 28 169 172 517 288 652 218 27 -14 37 -14 61 -5 64 27 174 -8
319 -99 118 -75 226 -166 301 -255 71 -84 77 -108 12 -44 -27 25 -78 64 -115
87 -81 48 -209 114 -214 109 -2 -2 40 -31 93 -63 132 -82 317 -225 290 -225
-3 0 -54 27 -114 60 -113 63 -167 83 -74 27 181 -109 447 -315 429 -333 -3 -3
-21 4 -39 15 -54 31 -141 62 -157 56 -10 -4 29 -28 105 -66 151 -76 203 -116
275 -209 98 -127 158 -274 158 -386 0 -59 -35 -210 -56 -241 -22 -34 -32 -28
-37 25 -2 26 -10 84 -18 129 -14 86 -10 105 16 83 18 -15 20 1 3 18 -19 19
-37 14 -44 -14 -4 -14 1 -91 11 -170 10 -80 16 -147 13 -149 -2 -2 -29 5 -59
16 -53 20 -55 21 -67 72 -27 115 -115 209 -225 242 -122 36 -349 12 -481 -50
-222 -105 -388 -360 -388 -593 1 -40 6 -89 13 -110 15 -46 74 -141 102 -165
22 -18 22 -18 -13 -13 -19 3 -60 8 -91 11 -30 3 -69 14 -85 24 -32 20 -96 134
-164 296 -42 98 -42 100 -30 155 7 30 30 109 51 175 21 65 37 121 35 122 -5 6
-75 -154 -102 -234 -32 -95 -40 -229 -13 -227 11 1 20 -13 28 -48 6 -27 23
-79 37 -115 14 -35 23 -67 20 -70 -6 -7 -59 46 -230 231 -54 58 -90 103 -81
99 15 -5 17 -2 12 13 -41 128 -47 164 -47 279 0 127 23 383 45 500 7 39 12 72
10 73 -12 13 -62 -237 -80 -400 -21 -187 -19 -286 5 -355 31 -90 4 -47 -44 68
-23 57 -63 142 -87 188 -40 75 -44 91 -47 165 -5 103 11 152 124 379 l85 172
-53 -55 c-69 -72 -164 -224 -194 -308 -18 -51 -24 -88 -23 -152 0 -98 13 -142
59 -200 18 -22 30 -43 28 -45 -2 -3 -49 39 -105 93 -115 112 -129 139 -120
241 3 36 29 152 57 256 28 105 60 231 70 280 38 184 24 253 -18 90 -23 -89
-131 -423 -155 -479 l-13 -29 -32 41 c-54 68 -74 125 -82 242 -5 58 -12 123
-17 145 -7 35 -9 26 -13 -59 l-5 -100 -28 68 c-15 37 -36 118 -46 180 -19 111
-19 114 0 171 39 118 138 266 346 516 174 210 298 315 412 349 43 14 133 11
196 -5z m1882 -1240 c93 -32 155 -73 177 -119 35 -73 12 -191 -48 -246 -45
-41 -118 -28 -177 31 -21 21 -26 69 -6 69 6 0 32 -11 56 -25 48 -28 51 -29 51
-16 0 15 -75 59 -126 74 -32 10 -48 20 -45 28 28 95 32 120 26 172 -4 39 -2
57 5 57 6 0 45 -11 87 -25z m-2775 -72 c20 -19 28 -37 28 -62 1 -51 31 -111
82 -165 34 -35 44 -53 41 -70 l-5 -23 -261 -6 c-338 -8 -466 -25 -498 -63 -10
-13 -10 -17 0 -24 9 -5 10 -10 3 -14 -6 -4 -18 4 -27 18 -15 23 -15 30 5 103
28 103 73 196 110 227 19 15 48 27 78 31 99 13 348 56 377 64 17 5 32 10 34
10 3 1 18 -11 33 -26z m8566 -80 c-26 -27 -48 -72 -48 -96 0 -7 10 6 23 27 25
45 76 80 101 70 16 -6 16 -8 0 -25 -9 -11 -12 -19 -6 -19 6 0 14 5 17 10 3 6
11 10 17 10 6 0 2 -10 -10 -23 -29 -31 -28 -46 1 -19 32 30 85 48 100 33 8 -8
7 -11 -5 -11 -9 0 -20 -5 -23 -11 -5 -7 5 -8 29 -4 43 9 46 1 9 -20 -27 -16
-27 -16 -3 -10 63 17 81 17 107 0 l26 -18 -24 -13 -24 -13 30 -1 c24 0 27 -2
15 -11 -11 -8 -3 -9 32 -6 25 2 52 1 60 -4 10 -7 10 -9 1 -9 -7 0 -13 -4 -13
-10 0 -5 7 -10 15 -10 29 0 74 -30 89 -58 7 -15 17 -53 20 -84 7 -56 7 -58
-16 -59 -19 0 -16 -3 15 -17 32 -15 44 -30 82 -107 25 -49 48 -107 51 -127 4
-21 11 -38 17 -38 19 0 -3 76 -49 165 -25 50 -49 95 -54 100 -4 6 -13 42 -20
80 -16 92 -34 129 -76 148 -19 9 -34 21 -34 26 0 5 -21 17 -47 27 -27 10 -61
28 -77 41 -16 13 -42 27 -58 30 -63 13 -34 23 66 23 133 0 147 -5 109 -36
l-28 -24 38 15 c43 18 68 11 40 -11 -17 -13 -16 -14 8 -8 22 4 38 -5 100 -61
41 -37 82 -76 92 -87 21 -25 22 -58 2 -58 -20 0 -85 -32 -85 -42 0 -9 48 8 69
25 12 10 14 9 8 -7 -6 -14 -4 -17 10 -12 10 3 2 -7 -17 -24 -19 -16 -30 -30
-24 -30 6 0 17 7 24 15 18 22 24 19 37 -17 6 -18 21 -60 33 -93 25 -69 34
-162 19 -201 -5 -15 -49 -66 -97 -114 -49 -48 -96 -105 -106 -128 -26 -58 -61
-67 -236 -57 -247 14 -238 15 -270 -24 -48 -57 -98 -257 -84 -332 9 -44 29
-83 55 -108 21 -19 20 -19 -63 -50 -46 -18 -94 -36 -108 -42 -23 -10 -30 -6
-82 50 -75 80 -124 179 -152 309 -8 32 -7 32 31 30 82 -3 125 29 291 216 137
155 151 182 152 294 0 54 4 82 11 82 8 0 8 4 -1 15 -6 8 -9 18 -6 23 8 13 -32
70 -65 94 -14 11 -44 22 -67 25 -36 5 -42 9 -42 30 0 13 7 37 15 53 12 24 22
30 47 30 25 0 29 -3 20 -12 -25 -25 -10 -28 19 -4 48 40 80 33 51 -12 l-17
-25 30 19 30 19 -25 -34 c-24 -35 -13 -34 27 2 20 17 26 19 49 8 l27 -12 -23
-24 c-27 -29 -20 -32 15 -9 14 9 32 13 42 9 14 -5 6 -13 -37 -38 -124 -71
-134 -93 -13 -26 79 44 101 42 82 -8 -5 -14 -5 -23 1 -23 5 0 12 -21 15 -47 3
-27 15 -85 25 -130 11 -45 20 -98 20 -117 0 -19 5 -38 10 -41 19 -12 10 90
-20 223 -16 74 -30 144 -30 156 0 13 -9 33 -20 46 -20 23 -101 70 -121 70 -7
0 -21 7 -31 17 -13 12 -39 16 -98 17 l-80 1 0 32 c0 46 53 85 123 91 42 3 69
-3 142 -31 50 -19 104 -38 122 -42 40 -8 53 -23 60 -72 3 -21 16 -61 29 -90
13 -28 37 -89 53 -135 16 -45 37 -103 46 -128 13 -33 16 -64 12 -120 -4 -69
-4 -73 9 -45 19 43 17 122 -5 180 -11 28 -32 84 -48 126 -15 42 -33 82 -38 90
-15 20 -33 77 -40 131 -4 26 -12 52 -19 57 -6 5 -66 30 -134 55 -154 57 -205
60 -275 16 -47 -29 -49 -30 -80 -14 -78 39 -97 86 -55 139 28 36 72 54 132 55
l50 0 -26 -27z m1402 -332 c107 -45 231 -93 275 -106 73 -22 76 -24 40 -25
-128 -2 -523 -69 -585 -99 -34 -16 -36 -16 -67 5 -35 24 -207 74 -253 74 -32
0 -41 -16 -12 -23 16 -4 16 -5 0 -6 -13 -1 -27 19 -48 65 -31 68 -34 92 -24
154 l6 35 116 -3 c65 -2 151 1 192 7 123 16 150 10 360 -78z m-2872 -8 l51 -8
-35 -55 c-40 -63 -67 -143 -84 -251 -14 -88 -8 -126 9 -59 37 142 104 294 154
348 35 38 88 46 176 27 42 -9 128 -19 191 -21 170 -7 165 -4 110 -63 -46 -49
-110 -156 -110 -184 0 -10 -29 -22 -92 -40 -51 -14 -94 -24 -96 -22 -4 3 93
183 122 228 27 40 -4 37 -38 -4 -37 -43 -56 -82 -81 -164 l-21 -69 -270 -73
c-371 -101 -387 -105 -378 -84 4 9 11 42 15 75 28 185 114 374 201 437 l39 27
43 -19 c24 -10 66 -22 94 -26z m1385 -37 c-2 -49 0 -53 17 -49 36 10 88 -7
122 -39 40 -37 26 -47 -34 -23 -28 11 -54 14 -79 10 -48 -8 -76 0 -84 26 -6
16 -13 19 -33 15 l-27 -6 28 16 c20 11 26 20 22 34 -4 13 4 26 27 44 18 14 35
26 39 26 3 0 4 -24 2 -54z m-1698 -8 c-63 -70 -87 -107 -183 -279 -73 -129
-106 -209 -89 -209 4 0 24 35 45 78 53 104 164 289 201 332 l31 35 -29 -65
c-47 -106 -71 -200 -72 -283 -1 -43 -4 -79 -8 -81 -11 -7 -244 -67 -247 -63
-2 1 2 23 7 47 23 100 184 356 296 468 83 83 118 98 48 20z m-2433 -27 c3 -45
13 -82 26 -105 l20 -35 -71 -21 c-40 -12 -91 -32 -113 -45 -47 -27 -50 -26
-91 45 -61 104 -49 159 40 184 43 13 155 41 178 45 4 1 9 -30 11 -68z m2029
11 l22 -19 -55 -69 c-30 -38 -64 -82 -75 -99 -35 -53 -65 -105 -60 -105 2 0
55 61 117 135 62 74 116 133 118 130 3 -3 -2 -13 -10 -22 -34 -41 -29 -45 12
-12 65 53 88 62 156 64 33 2 72 6 85 9 13 4 19 4 14 -1 -24 -19 -96 -114 -147
-193 -72 -110 -105 -177 -139 -275 l-27 -80 -458 -126 c-253 -70 -488 -133
-524 -141 l-65 -15 -3 86 -2 86 36 24 c37 23 37 23 53 3 9 -11 30 -27 48 -36
37 -19 162 -46 201 -45 15 0 -11 9 -59 19 -88 18 -155 46 -179 75 -11 14 -10
18 8 30 11 8 78 62 148 120 113 93 300 231 479 353 33 22 73 53 90 69 20 20
47 31 90 39 87 17 100 16 126 -4z m1479 -21 c41 -6 89 -12 106 -14 l31 -2 -52
-47 c-49 -44 -59 -48 -205 -87 -85 -22 -155 -39 -157 -37 -4 4 87 149 110 175
27 29 57 41 77 31 8 -4 49 -13 90 -19z m-5989 -33 c0 -13 4 -32 9 -43 7 -16 9
-12 15 23 7 38 11 43 29 38 12 -3 26 -6 32 -6 6 0 15 -15 19 -32 l8 -33 4 28
c3 17 10 27 21 27 29 0 39 -13 48 -60 l7 -45 12 40 12 40 56 -55 c60 -59 143
-198 110 -185 -96 37 -217 44 -320 20 -117 -28 -243 -98 -243 -136 0 -6 18 7
41 29 74 74 255 123 386 103 84 -13 283 -91 400 -157 83 -48 88 -50 77 -33
-17 28 79 -39 123 -85 26 -28 41 -45 33 -38 -7 6 -19 12 -24 12 -15 0 63 -78
102 -102 18 -11 40 -34 48 -51 44 -86 122 -172 247 -269 71 -55 131 -107 135
-116 3 -10 21 -39 39 -66 18 -27 36 -60 39 -73 10 -40 -2 -98 -31 -147 l-27
-47 -55 2 c-47 2 -56 6 -64 26 -5 13 -15 26 -23 29 -8 3 -16 14 -19 25 -3 11
-18 24 -34 30 -29 10 -99 92 -119 140 -7 14 -28 36 -47 48 -45 28 -101 96
-116 143 -15 45 -35 63 -25 22 5 -21 4 -25 -6 -19 -29 18 95 -132 128 -155 44
-31 52 -49 17 -42 -28 5 -115 -24 -115 -39 0 -5 11 -4 26 1 14 6 46 10 72 9
l47 -1 -45 -14 c-71 -22 -132 -46 -127 -50 2 -3 42 5 88 16 46 11 90 20 97 20
7 0 28 -17 47 -37 l34 -37 -51 -28 c-53 -29 -91 -58 -84 -65 2 -2 23 8 47 22
59 34 115 49 137 36 16 -9 15 -10 -3 -16 -39 -12 -85 -38 -102 -58 -13 -14 -2
-11 39 12 76 43 97 39 127 -24 19 -40 25 -46 30 -32 6 17 8 18 20 3 8 -9 12
-18 10 -19 -2 -1 -20 -10 -39 -19 -42 -19 -100 -65 -100 -80 0 -6 8 -4 18 4 9
9 43 30 75 48 l57 32 73 -65 c121 -109 159 -179 131 -245 -20 -49 -42 -71 -89
-93 -48 -22 -113 -24 -159 -5 -19 8 -53 37 -75 66 -41 52 -49 70 -32 70 5 0
15 16 21 35 17 50 53 90 112 122 66 36 38 43 -32 8 -53 -27 -110 -98 -110
-139 0 -19 0 -19 -21 0 l-22 19 13 -25 c20 -38 39 -161 29 -187 -17 -45 -121
-85 -183 -69 -69 17 -225 175 -218 220 2 12 15 44 28 71 l24 50 -25 -30 c-14
-16 -28 -45 -31 -63 l-6 -33 -24 22 c-13 12 -24 19 -24 16 0 -9 50 -90 60 -97
3 -3 24 -24 45 -48 46 -52 37 -75 -16 -37 l-34 26 -12 -29 c-10 -23 -21 -31
-66 -42 -30 -7 -66 -10 -79 -7 -42 11 -104 63 -171 144 l-65 78 41 50 41 50
-37 -34 c-40 -38 -46 -36 -21 7 l16 27 -21 -25 c-11 -14 -23 -33 -27 -42 -8
-26 -21 -22 -36 13 -8 19 -27 37 -48 46 -24 10 -30 17 -20 20 20 7 77 61 103
98 18 26 14 24 -24 -11 l-46 -41 -58 9 c-32 5 -62 11 -66 13 -4 3 -17 25 -28
49 -31 64 -168 223 -274 318 -137 124 -162 152 -208 242 -24 44 -71 125 -105
178 -101 156 -105 167 -89 221 36 122 163 309 250 369 142 99 368 102 544 7
30 -16 56 -27 58 -25 6 6 -77 71 -112 89 -57 29 -182 50 -268 45 -144 -8 -255
-78 -375 -237 -32 -42 -76 -113 -97 -156 -22 -44 -41 -82 -43 -85 -1 -2 -21
15 -44 38 l-42 41 17 53 c26 81 30 84 62 54 42 -39 51 -31 15 14 -30 38 -30
40 -16 69 21 41 30 44 52 20 20 -23 74 -54 74 -43 0 4 -15 28 -34 54 l-34 48
37 36 37 36 34 -35 c41 -42 50 -38 21 10 -27 46 -26 51 3 71 24 15 26 14 56
-18 l31 -33 -16 39 c-8 21 -13 41 -10 45 2 4 23 16 45 26 l42 19 18 -24 18
-24 4 29 c2 21 10 30 29 36 24 6 28 3 38 -32 15 -50 31 -50 31 0 0 42 7 48 63
50 22 1 27 -3 28 -21z m8448 -65 c-34 -58 -37 -60 -149 -82 -95 -19 -107 -19
-128 -5 -35 23 -42 6 -9 -21 25 -22 82 -44 117 -45 8 -1 26 -7 39 -14 l24 -13
-23 -13 c-34 -18 -94 -4 -145 34 -50 39 -134 57 -161 36 -13 -11 -13 -15 0
-29 9 -9 38 -25 66 -35 55 -20 70 -34 49 -47 -35 -22 -129 -6 -129 21 0 29
-106 91 -124 73 -12 -13 -5 -20 35 -38 41 -19 65 -48 54 -65 -3 -6 -42 -10
-86 -10 l-79 0 6 25 c4 17 1 32 -9 43 -12 14 -13 25 -4 64 l11 46 71 21 c38
12 95 26 125 32 77 15 387 56 433 58 l39 1 -23 -37z m-829 -18 c36 -9 85 -26
108 -37 41 -19 44 -23 37 -52 -4 -17 -9 -48 -12 -68 -3 -21 -10 -38 -15 -38
-5 0 -42 15 -81 34 -40 19 -91 40 -114 47 -38 11 -42 15 -41 43 0 17 -2 41 -6
54 -4 12 -4 22 1 22 4 0 51 -15 103 -34 115 -40 150 -49 150 -37 0 11 -29 22
-142 56 -49 14 -88 28 -88 31 0 3 8 3 18 0 9 -3 46 -12 82 -21z m-838 -87 c9
-124 -5 -151 -182 -339 -127 -136 -175 -165 -266 -160 -19 1 -23 10 -33 89 -6
49 -11 111 -11 140 l0 51 154 50 c85 28 160 51 167 51 7 0 3 -10 -10 -24 -15
-16 -29 -22 -46 -18 -18 3 -46 -10 -99 -44 -42 -27 -78 -55 -81 -63 -5 -12 -3
-12 12 1 40 34 43 27 12 -26 -17 -32 -29 -59 -26 -62 2 -3 17 17 32 43 37 64
62 91 107 114 50 26 53 24 29 -15 -35 -55 -24 -51 47 22 52 53 80 93 118 169
27 55 54 98 60 96 6 -2 14 -36 16 -75z m-92 12 c-12 -16 -27 -30 -33 -30 -15
0 -212 -59 -252 -75 -16 -7 -41 -16 -55 -20 -14 -4 -104 -31 -200 -61 -193
-61 -399 -125 -558 -175 -93 -29 -105 -31 -119 -16 -14 14 -7 18 73 42 49 15
96 28 104 29 8 0 17 3 20 7 6 6 191 62 205 62 6 -1 19 -4 30 -8 16 -7 18 -6 7
6 -18 19 212 93 242 77 17 -8 19 -8 9 2 -17 19 177 83 224 75 25 -5 31 -3 27
8 -6 17 193 82 230 75 17 -3 23 -1 19 8 -4 11 10 19 40 23 5 0 -1 -12 -13 -29z
m-46 -89 c-10 -11 -50 -28 -89 -39 -38 -11 -214 -65 -390 -120 -176 -55 -482
-150 -680 -212 -198 -61 -574 -178 -835 -260 -261 -82 -630 -196 -820 -255
-190 -58 -447 -138 -572 -177 -125 -40 -231 -69 -235 -65 -3 4 -4 8 -2 10 2 2
90 29 194 61 105 32 438 136 740 231 303 95 782 246 1065 335 519 163 1378
435 1545 488 50 16 92 27 94 25 3 -2 -4 -12 -15 -22z m-8441 -100 c-6 -22 13
-88 28 -97 6 -4 7 13 3 44 -4 32 -2 52 5 56 7 5 11 -2 11 -16 0 -39 45 -123
92 -172 36 -37 51 -46 79 -46 32 -1 33 -1 15 -15 -23 -18 -59 -19 -87 -4 -15
7 -27 6 -48 -4 -28 -14 -29 -14 -59 37 -17 28 -36 64 -41 79 -12 31 -15 140
-4 150 10 11 11 8 6 -12z m6941 -19 c7 -12 -188 -64 -208 -56 -9 3 -16 2 -16
-4 0 -11 -26 -21 -140 -51 -41 -11 -149 -41 -240 -66 -91 -25 -180 -47 -197
-48 -18 0 -33 -4 -33 -8 0 -3 -36 -16 -79 -29 -57 -16 -84 -19 -97 -12 -21 12
-78 -5 511 156 248 68 460 125 472 125 12 1 24 -3 27 -7z m1132 -185 c1 -135
4 -162 28 -240 14 -49 35 -105 45 -125 36 -70 112 -163 156 -191 49 -31 47
-43 -10 -57 -17 -4 -40 -14 -52 -22 -13 -8 -29 -12 -37 -9 -9 4 -12 0 -9 -12
6 -22 -70 -77 -119 -86 -36 -7 -83 9 -120 43 -12 10 -18 11 -18 3 0 -6 20 -26
45 -43 25 -18 45 -35 45 -39 0 -20 -59 -43 -112 -44 -67 0 -74 -18 -9 -23 32
-2 41 -7 37 -17 -7 -18 -145 -225 -150 -225 -2 0 -4 36 -4 80 0 82 -10 110
-41 110 -14 -1 -14 -2 2 -14 18 -14 23 -92 11 -168 -12 -69 -23 -39 -17 42 4
54 2 80 -5 80 -9 0 -19 -61 -25 -148 -1 -21 -5 -23 -32 -16 -16 3 -156 8 -311
10 -262 3 -366 11 -456 35 -43 11 -88 68 -108 136 -17 54 -7 89 30 108 17 9
28 20 24 26 -9 15 -67 -23 -82 -53 -12 -26 -13 -27 -52 -13 -67 24 -130 66
-146 98 -24 46 -43 170 -44 281 0 80 -3 97 -12 88 -17 -17 -17 -242 0 -296 6
-22 10 -41 9 -42 -9 -9 -154 77 -165 97 -7 15 -11 55 -10 107 l3 83 70 30 c38
16 73 29 78 29 5 0 35 11 66 24 69 30 237 96 244 96 3 0 7 -91 9 -202 4 -185
7 -208 28 -263 13 -33 23 -63 22 -67 -1 -3 5 -11 12 -17 21 -17 341 -24 556
-12 l195 11 18 -22 c45 -57 51 -62 54 -51 6 18 -25 71 -48 84 -12 6 -56 9
-107 7 l-87 -3 -22 45 c-12 25 -29 81 -38 124 -20 98 -30 338 -21 468 l8 96
106 37 c59 20 125 47 147 59 22 13 50 27 62 30 22 7 22 6 9 -26 -23 -55 -46
-261 -46 -409 0 -162 25 -314 66 -397 27 -56 88 -107 120 -100 13 2 7 10 -23
30 -48 32 -80 79 -100 151 -20 73 -28 343 -14 517 18 230 21 250 40 250 9 0
75 20 146 44 72 25 137 45 145 45 13 1 15 -23 16 -152z m-3056 82 c0 -5 -42
-30 -92 -53 -381 -177 -418 -207 -418 -336 0 -62 14 -67 17 -5 2 54 22 94 65
131 28 24 384 204 403 204 4 0 4 -8 0 -17 -4 -10 -10 -61 -14 -113 l-6 -95
-139 -70 c-77 -38 -141 -76 -144 -83 -3 -10 5 -9 34 3 105 45 169 65 172 55 5
-15 22 -12 22 5 0 8 10 20 23 26 12 6 34 23 50 37 25 24 27 32 27 103 l0 77
35 0 c36 0 88 27 120 62 16 18 17 23 5 30 -8 6 -10 10 -5 10 23 -1 53 -37 59
-73 7 -35 4 -41 -45 -92 -29 -31 -63 -58 -76 -61 -33 -9 -29 -27 5 -20 17 3
10 -2 -18 -15 -25 -11 -57 -23 -72 -26 -32 -6 -38 -23 -8 -23 30 0 139 38 178
62 19 12 32 28 32 40 0 19 -2 20 -17 6 -20 -17 -74 -46 -58 -31 6 5 26 21 47
36 30 22 37 24 42 11 9 -24 7 -82 -3 -88 -5 -3 -132 -40 -282 -82 -406 -113
-460 -127 -465 -122 -2 3 -11 32 -20 64 -27 105 -2 166 99 238 82 59 181 106
299 145 54 18 108 41 120 51 27 23 28 23 28 9z m-503 -30 c32 -12 43 -26 43
-55 0 -22 -32 -54 -104 -104 -81 -56 -119 -161 -109 -295 3 -41 4 -75 2 -75
-8 0 -275 -78 -291 -84 -11 -5 -20 -1 -27 12 -10 19 -13 19 -58 5 -27 -8 -100
-30 -163 -48 -63 -18 -110 -34 -104 -34 5 -1 77 14 159 33 l148 34 38 -31 c21
-18 36 -34 34 -36 -2 -2 -95 -30 -206 -62 l-203 -58 -47 40 c-63 53 -73 50
-19 -6 37 -37 41 -45 24 -45 -28 0 -80 56 -76 83 3 22 2 22 -13 3 -20 -26 -20
-28 15 -61 33 -31 38 -45 16 -45 -11 0 -277 -72 -315 -86 -8 -2 -12 -7 -9 -9
2 -3 83 17 179 44 162 46 175 48 192 33 17 -15 4 -20 -200 -79 -120 -34 -226
-62 -237 -60 -10 1 -25 12 -34 25 -14 21 -13 22 15 22 22 0 43 12 76 43 37 34
46 50 52 89 6 41 3 57 -24 114 -17 37 -30 68 -29 69 2 1 41 14 88 29 185 60
354 157 546 312 132 107 200 152 309 206 109 55 152 69 230 78 33 4 63 8 67 9
4 0 19 -4 35 -10z m4301 -55 c93 -4 161 -3 185 4 20 6 37 7 37 4 0 -4 -51 -61
-113 -127 -61 -66 -154 -169 -206 -228 -77 -88 -98 -107 -121 -107 -35 0 -85
54 -100 109 -18 67 8 199 59 299 25 49 47 64 84 57 15 -2 94 -7 175 -11z
m-1813 -68 c17 -12 14 -15 -41 -31 -117 -34 -155 -42 -160 -34 -3 5 -10 9 -17
9 -8 0 -8 -3 1 -12 9 -9 -26 -24 -150 -65 -89 -29 -166 -53 -172 -53 -6 0 -19
7 -29 15 -17 12 -12 16 53 35 40 12 83 19 96 16 16 -4 22 -2 19 6 -4 9 22 21
77 37 46 14 128 39 183 57 116 38 115 38 140 20z m371 -43 c-3 -16 -9 -102
-12 -193 -6 -145 -4 -179 15 -280 22 -114 48 -191 70 -204 28 -18 4 -26 -80
-26 l-90 0 -24 53 c-41 90 -67 245 -63 380 3 114 -3 149 -16 86 -22 -113 8
-355 58 -464 l25 -55 -57 0 c-31 0 -107 3 -168 7 l-112 6 -21 38 c-34 59 -51
174 -51 335 0 127 2 146 18 162 21 21 243 106 307 118 22 4 73 20 115 35 93
35 94 35 86 2z m-956 -138 c19 -10 21 -15 10 -19 -8 -3 -109 -35 -225 -71
-244 -77 -478 -151 -727 -230 -171 -54 -178 -55 -203 -39 -14 9 -25 19 -25 23
0 3 29 14 64 25 53 15 68 16 87 5 21 -11 23 -11 11 4 -11 13 -6 17 45 32 44
13 65 15 86 7 24 -9 27 -9 17 3 -13 16 -5 21 77 45 30 9 45 9 61 1 29 -15 37
-14 22 4 -10 12 -7 17 16 26 45 17 101 23 108 10 4 -6 12 -11 18 -11 6 0 6 6
-2 15 -7 9 -11 17 -9 19 2 1 41 14 85 28 72 22 84 23 108 11 16 -8 26 -10 26
-3 0 5 -4 10 -10 10 -5 0 -10 4 -10 8 0 5 34 19 75 31 61 18 79 19 98 10 19
-11 20 -10 9 3 -11 14 -2 19 65 41 94 30 92 30 123 12z m-159 -333 c9 -37 16
-68 15 -68 0 -1 -74 -7 -164 -13 -90 -6 -185 -14 -210 -18 -27 -3 -44 -2 -39
3 11 12 348 162 367 163 10 1 20 -20 31 -67z m-2126 -80 c-2 -2 -95 -30 -206
-62 -180 -52 -205 -57 -223 -45 -24 17 -41 11 204 78 149 41 199 51 212 43 9
-5 15 -12 13 -14z m977 8 c23 -14 28 -21 17 -25 -8 -3 -84 -28 -169 -55 l-155
-49 -24 24 -25 24 30 12 c16 6 43 12 61 13 17 0 29 4 27 7 -4 7 66 29 94 29
11 0 24 -4 27 -10 3 -5 11 -10 18 -10 6 0 4 8 -6 17 -16 17 -15 18 20 29 52
16 49 16 85 -6z m-913 -70 c-8 -4 -101 -33 -207 -64 l-192 -57 -31 23 c-20 15
-26 24 -17 27 7 3 101 30 208 61 l195 57 29 -20 c21 -15 25 -22 15 -27z m55
-25 c15 -11 16 -15 5 -19 -49 -17 -395 -116 -405 -116 -6 0 -17 6 -24 14 -9
12 -5 17 27 25 21 6 112 33 203 60 91 27 167 50 170 50 3 0 14 -6 24 -14z m80
-59 l29 -24 -84 -26 c-46 -14 -141 -43 -211 -64 l-127 -39 -33 28 c-30 26 -31
29 -13 35 238 73 374 112 390 113 11 0 33 -10 49 -23z m-645 -37 c13 -11 22
-22 19 -24 -3 -3 -103 -34 -223 -70 l-219 -65 -33 23 c-18 12 -33 24 -33 27 0
7 419 128 445 129 11 0 31 -9 44 -20z m791 -71 c0 -5 -6 -8 -12 -8 -22 0 -229
-63 -224 -68 6 -5 183 37 209 50 27 14 31 4 11 -26 -9 -15 -19 -25 -21 -22 -5
5 -100 -20 -246 -66 -54 -16 -96 -32 -93 -35 2 -3 62 11 133 30 70 20 148 41
172 47 25 7 55 24 70 41 l27 29 68 -75 c86 -96 163 -150 309 -219 123 -57 167
-93 167 -133 0 -73 -47 -93 -222 -93 -168 0 -291 -20 -441 -71 -223 -75 -579
-239 -897 -412 -85 -47 -157 -83 -160 -82 -3 2 1 56 9 119 l14 116 38 -6 c71
-12 150 36 149 90 -1 16 -5 13 -20 -16 -39 -72 -135 -77 -196 -9 -33 36 -42
40 -100 46 -67 8 -134 0 -134 -15 0 -4 35 -8 78 -7 89 1 132 -18 132 -59 0
-35 -42 -58 -107 -58 -50 -1 -58 2 -82 32 l-28 32 -11 -25 c-13 -28 -16 -95
-6 -144 11 -52 24 -24 24 50 l0 70 26 -20 c20 -16 41 -21 86 -21 60 0 93 11
116 39 12 14 13 13 8 -9 -3 -14 -8 -70 -12 -124 -7 -91 -9 -98 -31 -107 -13
-5 -37 -9 -53 -9 -16 0 -32 -4 -35 -10 -3 -5 1 -10 9 -10 9 0 16 -4 16 -10 0
-6 -9 -6 -25 0 -29 11 -36 -6 -7 -18 12 -5 6 -8 -23 -12 -40 -5 -40 -5 -52
-65 -7 -33 -13 -84 -15 -113 l-3 -54 -75 4 c-41 3 -83 8 -92 12 -11 5 -18 4
-18 -2 0 -29 127 -48 195 -28 29 8 29 8 12 -10 -27 -28 -168 -27 -217 2 -39
23 -37 11 -20 159 4 44 9 87 9 96 1 14 8 13 48 -7 58 -30 96 -30 153 -1 75 37
82 109 13 143 -45 22 -175 26 -194 7 -10 -10 1 -13 57 -13 125 0 180 -31 155
-87 -12 -26 -65 -53 -106 -53 -37 0 -102 36 -118 65 -14 27 -15 24 -43 -123
-4 -22 -14 -36 -29 -42 -45 -17 -200 -40 -310 -47 -95 -5 -129 -2 -242 21
-331 65 -638 208 -894 414 -132 107 -201 241 -203 397 -2 150 55 267 176 365
66 53 311 181 410 215 l58 19 36 -34 c19 -19 51 -60 69 -91 19 -30 45 -61 59
-68 22 -12 55 -67 45 -75 -2 -1 -29 -13 -59 -26 -92 -38 -392 -191 -387 -196
5 -5 244 100 394 174 75 37 104 41 131 20 18 -15 15 -25 -11 -32 -12 -3 -115
-50 -227 -106 -252 -123 -229 -120 50 7 l209 95 35 -33 c20 -18 36 -36 36 -40
0 -4 -15 -12 -32 -18 -18 -6 -118 -56 -222 -111 -137 -72 -195 -98 -212 -94
-25 6 -68 -28 -61 -49 7 -23 50 -20 72 6 11 13 119 74 240 136 l220 112 18
-22 c10 -12 14 -25 10 -30 -4 -4 -96 -48 -203 -98 -107 -50 -199 -96 -205
-102 -15 -15 17 -2 235 100 l194 92 34 -34 33 -34 -48 -18 c-72 -27 -310 -133
-375 -167 -74 -38 -89 -55 -63 -74 24 -18 28 -18 56 5 19 16 22 22 12 32 -19
19 -16 26 12 33 13 3 113 45 222 92 l198 86 43 -21 c52 -26 73 -26 136 -4 31
12 55 28 66 46 16 26 18 26 33 10 15 -17 10 -21 -71 -57 -48 -22 -183 -88
-300 -149 -156 -79 -217 -106 -225 -98 -16 16 -59 14 -85 -5 -26 -18 -27 -27
-6 -48 22 -23 48 -20 82 9 17 14 157 89 312 166 l281 141 55 -60 c34 -38 75
-71 109 -87 54 -27 54 -27 100 -9 26 9 57 26 71 36 24 20 33 62 14 73 -6 4
-10 -5 -10 -20 0 -22 -9 -30 -52 -50 -65 -30 -89 -31 -145 -4 -38 18 -123 102
-123 122 0 16 28 6 51 -19 48 -53 100 -84 141 -84 37 0 105 26 95 36 -3 3 -19
-2 -36 -10 -53 -28 -84 -21 -151 35 -54 45 -68 69 -39 69 5 0 32 -16 60 -35
58 -40 95 -44 177 -20 65 20 92 52 92 112 l0 44 33 -25 c56 -43 105 -59 156
-51 108 16 181 86 181 173 0 29 5 41 18 45 9 2 122 37 250 77 220 68 234 71
255 56 83 -60 128 -87 139 -84 7 3 -17 26 -55 53 -39 28 -64 52 -58 58 11 11
121 -62 121 -80 0 -7 5 -13 10 -13 6 0 10 6 10 14 0 8 17 20 38 26 47 16 69
34 27 24 -16 -4 -39 -10 -50 -14 -13 -5 -35 2 -68 23 -26 16 -46 31 -44 33 2
3 96 33 208 68 l204 63 47 -31 c26 -17 48 -34 48 -38z m-730 17 c15 -18 36 -9
-210 -84 -107 -32 -202 -62 -211 -65 -9 -4 -22 1 -33 13 -17 19 -17 20 21 30
21 6 119 36 218 65 99 30 185 55 191 55 6 1 17 -6 24 -14z m110 -85 c0 -3
-103 -36 -228 -74 -125 -38 -234 -72 -242 -77 -10 -5 -21 4 -37 33 -13 23 -22
42 -21 43 2 1 104 32 228 67 l225 65 37 -26 c21 -14 38 -28 38 -31z m2393
-439 c-32 -43 -111 -78 -274 -122 -85 -22 -156 -43 -159 -46 -22 -24 317 58
376 91 47 26 50 26 33 -5 -6 -11 -14 -58 -19 -105 -10 -100 -29 -131 -104
-178 -149 -94 -380 -146 -761 -171 -121 -9 -264 -20 -319 -26 -54 -5 -100 -9
-102 -7 -2 2 72 17 164 32 153 27 226 45 180 46 -33 0 -373 -60 -476 -85 -117
-28 -229 -82 -308 -147 -176 -146 -355 -307 -534 -484 -223 -219 -282 -263
-464 -349 -213 -101 -337 -141 -537 -174 -274 -46 -343 -46 -584 -5 -548 93
-1189 416 -1658 836 -67 59 -68 61 -45 72 32 16 45 73 29 127 -7 22 -15 39
-17 36 -3 -3 0 -23 7 -45 11 -39 6 -92 -9 -92 -4 0 -6 20 -4 44 6 77 -58 171
-114 164 -15 -2 -29 -9 -32 -17 -3 -9 1 -11 16 -6 12 3 31 1 42 -5 28 -15 60
-69 60 -102 0 -29 -29 -98 -41 -98 -15 0 -28 26 -19 40 13 20 12 54 -2 85 -18
40 -28 29 -21 -22 6 -44 5 -47 -10 -34 -11 9 -17 29 -17 57 0 48 -5 52 -30 29
-16 -14 -24 -5 -106 110 -109 153 -197 297 -224 365 -18 46 -53 220 -45 228 2
2 13 -17 26 -42 46 -93 159 -227 368 -437 251 -252 321 -309 651 -530 341
-229 518 -325 710 -383 184 -55 497 -117 585 -115 28 1 8 7 -71 24 -152 31
-156 34 -29 27 207 -13 409 -5 565 22 330 57 498 128 845 359 210 139 327 231
527 414 180 166 269 235 359 282 218 115 456 164 933 191 410 23 577 71 654
187 15 23 17 24 20 9 2 -10 -5 -30 -15 -45z"/>
<path d="M1844 5125 c-39 -13 -96 -35 -126 -48 -77 -34 -281 -159 -351 -215
-77 -63 -191 -200 -230 -278 -31 -64 -31 -99 0 -54 40 57 167 202 216 245 28
26 79 67 112 91 76 53 400 252 431 265 13 4 24 11 24 14 0 7 5 8 -76 -20z"/>
<path d="M1571 4763 c-181 -181 -274 -319 -306 -454 -17 -73 -20 -169 -5 -169
6 0 10 11 10 24 0 46 49 214 80 277 45 88 158 235 279 362 79 82 34 51 -58
-40z"/>
<path d="M1722 4723 c-96 -117 -187 -277 -231 -410 -26 -77 -31 -105 -30 -184
l1 -94 17 90 c9 50 25 117 36 150 26 82 183 390 242 473 28 39 6 24 -35 -25z"/>
<path d="M2033 4350 c-107 -54 -248 -155 -327 -235 -93 -94 -161 -234 -172
-353 -8 -84 7 -98 25 -24 28 112 155 317 235 379 13 10 75 61 137 113 63 53
132 109 154 125 83 60 76 60 -52 -5z"/>
<path d="M2189 4130 c-102 -67 -283 -249 -319 -321 -70 -136 -71 -378 -3 -474
13 -18 13 -15 6 30 -12 77 -7 232 11 309 9 38 31 96 48 129 33 62 183 240 266
315 55 50 52 53 -9 12z"/>
<path d="M2610 3760 c-71 -24 -134 -91 -151 -163 -32 -134 49 -430 130 -471
45 -24 69 -7 163 113 187 241 244 289 380 317 85 18 109 35 107 78 -2 31 -2
31 -6 3 -6 -35 -34 -53 -106 -66 -32 -6 -81 -23 -108 -37 -58 -32 -212 -188
-292 -296 -31 -43 -68 -85 -82 -94 -25 -16 -27 -16 -53 3 -58 44 -110 191
-119 339 -5 93 -4 105 18 149 52 104 137 141 309 133 58 -3 94 -2 80 2 -51 16
-212 10 -270 -10z"/>
<path d="M2396 3668 c-56 -134 -31 -365 57 -532 39 -73 132 -172 171 -182 54
-13 88 15 210 179 67 90 150 187 203 237 76 73 107 94 215 148 70 35 132 70
139 78 18 21 -220 -94 -271 -131 -78 -58 -194 -185 -299 -327 -56 -76 -112
-144 -124 -153 -106 -74 -265 148 -307 429 -12 83 -8 158 16 234 16 56 10 68
-10 20z"/>
<path d="M2930 2922 c0 -5 12 -31 27 -57 15 -27 21 -45 15 -41 -34 21 11 -46
80 -121 50 -54 56 -70 36 -92 -11 -11 -8 -12 14 -7 40 9 41 -6 3 -37 -18 -14
-44 -41 -56 -59 -18 -26 -10 -21 35 21 31 29 60 50 64 46 4 -4 1 -10 -5 -12
-21 -8 -15 -25 6 -18 21 6 38 -10 21 -20 -19 -12 -10 -24 18 -22 20 2 27 -3
27 -16 0 -12 16 -25 45 -38 25 -11 52 -25 60 -32 9 -7 4 -1 -11 13 -14 14 -41
36 -59 50 l-32 25 48 54 c30 33 40 50 26 42 -12 -6 -32 -25 -44 -41 -31 -43
-48 -39 -48 13 l-1 42 -13 -30 c-10 -23 -14 -26 -19 -13 -3 10 7 41 25 75 18
32 25 52 16 46 -8 -7 -23 -31 -33 -52 -17 -39 -18 -40 -41 -23 -13 9 -24 22
-24 29 0 6 -20 35 -45 64 -34 40 -45 61 -46 88 0 20 -4 45 -9 56 l-9 20 -1
-20 c-1 -15 -5 -12 -20 16 -20 37 -50 69 -50 51z"/>
<path d="M8865 3681 c-3 -5 -10 -72 -16 -148 -13 -159 -1 -326 32 -444 23 -82
38 -114 75 -158 39 -47 47 -37 14 17 -69 111 -106 338 -98 593 3 82 4 149 2
149 -2 0 -5 -4 -9 -9z"/>
<path d="M7670 2662 c8 -6 139 -15 290 -21 151 -6 336 -14 410 -17 98 -5 132
-4 125 5 -12 12 -287 28 -625 37 -138 3 -210 2 -200 -4z"/>
<path d="M9497 3503 c-63 -40 -117 -221 -88 -295 15 -39 33 -36 19 3 -14 39 5
135 40 206 38 79 48 85 106 68 27 -8 65 -15 85 -15 41 0 116 19 107 27 -3 3
-47 6 -98 8 -51 1 -104 5 -118 9 -16 4 -35 0 -53 -11z"/>
<path d="M4164 2170 c-53 -16 -73 -48 -80 -127 -4 -39 -3 -88 1 -109 7 -35 8
-37 16 -17 4 13 9 56 10 96 l2 74 24 -23 c38 -35 172 -60 188 -34 17 27 22 2
17 -82 -2 -51 -2 -91 1 -88 10 9 29 190 23 215 l-6 23 -31 -30 c-28 -28 -34
-30 -79 -25 -92 11 -148 62 -104 94 20 15 133 14 167 -1 10 -5 17 -4 17 2 0
23 -119 46 -166 32z"/>
<path d="M5975 8580 c7 -11 -12 -569 -21 -616 -3 -17 -18 -45 -34 -62 -22 -24
-25 -32 -13 -36 20 -8 23 -8 23 5 0 6 11 20 24 30 19 15 25 31 30 86 11 117
26 570 20 587 -3 9 -13 16 -21 16 -8 0 -11 -4 -8 -10z"/>
<path d="M1199 7528 c-7 -40 -13 -136 -14 -213 0 -136 1 -141 28 -186 21 -36
39 -52 77 -68 69 -30 95 -26 40 6 -93 54 -90 47 -90 222 0 141 -1 153 -15 135
-15 -18 -16 -18 -11 11 3 17 8 60 11 98 9 91 -10 88 -26 -5z"/>
<path d="M1874 6980 c-72 -11 -209 -58 -236 -81 -21 -18 -21 -19 -3 -10 12 5
59 19 105 31 171 44 360 23 577 -65 48 -19 88 -33 90 -31 14 13 -166 100 -269
130 -44 12 -205 39 -211 35 -1 -1 -25 -5 -53 -9z"/>
<path d="M3837 6666 c-3 -8 -11 -52 -17 -98 -7 -46 -15 -87 -20 -93 -5 -6 -46
-9 -98 -7 l-90 3 14 61 c8 33 18 68 23 77 11 18 10 19 32 -62 10 -40 14 -46
22 -32 12 22 2 112 -14 132 -37 43 -99 -39 -99 -131 0 -40 -5 -55 -26 -77 -22
-23 -27 -40 -32 -100 -6 -88 11 -88 29 1 18 93 20 94 147 98 109 4 110 4 120
30 6 15 13 54 17 87 3 33 9 75 12 93 5 32 -10 46 -20 18z"/>
<path d="M1625 6600 c-67 -12 -125 -35 -220 -87 -77 -42 -131 -83 -109 -83 5
0 45 15 89 33 153 64 286 86 535 87 96 0 159 4 150 9 -57 33 -344 59 -445 41z"/>
<path d="M4175 6551 c-135 -34 -230 -147 -230 -276 0 -166 153 -297 330 -283
266 22 382 317 191 485 -56 49 -131 82 -148 65 -8 -8 -6 -13 8 -18 122 -39
194 -123 194 -226 0 -77 -18 -119 -75 -175 -198 -192 -519 -25 -443 231 24 79
113 146 231 172 21 5 39 14 40 19 2 12 -58 16 -98 6z"/>
<path d="M3410 6437 c-6 -29 -11 -76 -9 -103 l4 -51 -45 -16 c-25 -9 -56 -27
-69 -40 -37 -40 -101 -201 -111 -281 -12 -93 -13 -246 -1 -246 5 0 18 12 29
28 33 48 36 58 9 33 l-27 -24 0 24 c1 114 22 226 60 323 23 57 48 110 56 117
13 10 13 8 3 -17 -15 -38 -25 -315 -10 -294 6 8 11 31 11 50 1 74 30 254 45
277 15 23 21 24 92 21 58 -2 77 0 81 11 3 10 0 12 -12 8 -25 -10 -44 2 -39 24
3 10 9 19 14 19 5 0 9 31 9 69 0 54 -4 74 -21 95 -33 42 -54 34 -69 -27z"/>
<path d="M4171 6429 c-75 -22 -141 -81 -141 -126 0 -30 6 -29 36 6 14 17 49
42 80 57 45 22 64 26 113 22 60 -4 81 -15 169 -85 51 -41 37 -7 -22 52 -73 73
-151 98 -235 74z"/>
<path d="M2100 6428 c3 -3 52 -43 110 -89 218 -174 382 -356 456 -506 15 -29
30 -50 35 -47 12 7 -32 122 -72 191 -65 111 -326 342 -481 427 -29 16 -51 27
-48 24z"/>
<path d="M656 6278 c-8 -29 -16 -62 -18 -73 -3 -16 -10 -19 -36 -17 -29 3 -46
-12 -22 -20 5 -1 -4 -23 -21 -47 -16 -25 -40 -79 -53 -122 -13 -42 -40 -105
-61 -140 -36 -62 -37 -65 -21 -92 15 -26 14 -31 -5 -69 -13 -25 -18 -49 -15
-64 5 -17 -2 -39 -19 -68 -31 -52 -33 -106 -5 -131 13 -11 20 -14 20 -6 0 9
23 12 85 9 47 -2 85 0 85 4 0 14 -75 30 -126 26 -65 -6 -66 -1 -27 90 19 41
35 64 48 67 102 22 104 23 33 24 l-67 1 18 43 c16 38 17 45 3 74 -14 30 -13
34 20 95 19 34 44 92 57 128 30 85 77 159 106 166 12 3 40 1 61 -5 22 -6 53
-11 69 -11 l30 0 -30 20 c-16 11 -48 22 -71 26 l-41 6 11 38 c6 21 15 42 19
46 10 11 9 54 -3 54 -5 0 -16 -24 -24 -52z"/>
<path d="M4940 6128 c0 -6 11 -26 25 -44 29 -38 80 -59 244 -99 160 -39 155
-31 146 -224 -9 -197 -20 -298 -34 -315 -9 -10 -41 -12 -150 -8 -86 3 -145 1
-156 -6 -15 -8 -5 -11 51 -17 38 -4 101 -17 140 -29 l72 -21 -86 -69 -86 -68
-53 12 c-76 17 -81 24 -72 113 4 42 10 85 14 96 10 33 -13 25 -32 -11 -13 -26
-18 -65 -21 -174 l-4 -141 -74 -36 c-91 -45 -135 -47 -230 -11 -167 64 -495
146 -714 178 -141 20 -401 54 -473 62 l-59 6 24 25 23 26 -23 -12 c-13 -7 -26
-10 -30 -6 -11 11 18 295 33 325 30 57 9 59 -24 3 -5 -10 -22 -8 -76 7 -81 23
-115 26 -98 9 7 -7 44 -18 84 -26 40 -7 74 -15 76 -16 2 -2 -2 -30 -8 -63 -18
-93 -17 -260 1 -278 9 -8 63 -20 135 -30 66 -8 192 -24 280 -36 287 -37 657
-122 850 -195 91 -34 147 -33 221 5 97 49 105 58 111 127 l6 60 26 -13 c14 -7
44 -16 67 -20 39 -6 45 -3 144 72 139 107 146 121 160 329 15 243 14 329 -8
348 -9 8 -84 34 -166 57 -168 46 -170 47 -210 89 -31 33 -46 39 -46 19z"/>
<path d="M5065 5910 c-27 -11 -61 -49 -74 -83 -43 -114 52 -257 171 -257 96 0
157 122 113 228 -38 89 -137 143 -210 112z"/>
<path d="M3794 5685 c-16 -39 -19 -132 -4 -155 7 -11 10 -5 10 25 0 30 3 36
10 25 5 -8 10 -24 10 -36 0 -49 67 -79 271 -119 131 -26 185 -31 191 -16 2 4
13 11 25 15 17 6 22 2 25 -16 3 -22 4 -21 21 8 43 82 30 162 -33 194 -78 40
-399 106 -451 93 -13 -3 -30 -11 -38 -17 -12 -9 -13 -7 -9 12 9 35 -11 26 -28
-13z"/>
<path d="M4560 5523 c8 -4 37 -12 65 -19 l50 -13 -55 5 c-30 2 -69 7 -87 10
-27 5 -32 3 -31 -12 1 -11 -2 -32 -5 -49 -4 -16 -3 -37 3 -45 7 -12 10 -8 10
16 0 16 6 38 13 48 12 17 18 17 131 -3 131 -24 186 -43 186 -64 0 -12 -17 -8
-77 16 -80 31 -202 44 -209 22 -3 -6 20 -10 54 -11 34 0 92 -11 145 -28 76
-25 87 -31 87 -52 0 -28 16 -40 24 -18 10 27 7 89 -6 102 -9 9 -9 12 0 12 7 0
19 -15 27 -32 14 -33 14 -33 15 -6 0 15 -7 34 -15 42 -18 18 -117 50 -218 72
-67 14 -137 18 -107 7z"/>
<path d="M3560 5405 c24 -8 94 -22 155 -30 204 -28 250 -36 381 -65 148 -33
413 -76 519 -85 105 -8 70 1 -135 35 -102 17 -243 44 -315 60 -184 40 -229 48
-415 70 -91 11 -181 22 -200 25 -31 4 -30 3 10 -10z"/>
<path d="M6415 4748 c-114 -93 -287 -212 -390 -268 -99 -54 -196 -112 -192
-116 9 -9 149 30 226 65 49 21 92 37 95 34 9 -9 241 184 301 249 59 66 90 114
77 121 -4 2 -56 -36 -117 -85z"/>
<path d="M717 4040 c-28 -205 -85 -574 -92 -597 -13 -40 -135 84 -135 136 0
11 -4 23 -10 26 -5 3 -10 16 -10 27 0 26 -55 114 -77 122 -22 9 -26 1 -8 -14
14 -12 10 -15 -37 -27 -29 -8 -57 -19 -63 -25 -7 -8 -5 -9 8 -4 50 17 95 18
121 1 35 -23 33 -35 -7 -35 -31 0 -87 -30 -134 -73 -35 -31 -27 -41 10 -14 35
27 80 51 114 61 15 5 27 0 42 -15 26 -28 27 -39 3 -39 -11 0 -27 -9 -37 -21
-19 -20 -19 -20 5 -11 14 5 32 7 40 4 17 -5 90 -73 90 -83 0 -4 -13 -12 -30
-19 -16 -7 -30 -16 -30 -21 0 -12 5 -11 51 2 20 7 45 9 54 5 14 -5 8 -16 -34
-62 -72 -78 -63 -88 13 -16 60 56 101 81 112 69 3 -3 -2 -26 -10 -51 -18 -52
-31 -126 -23 -126 3 0 15 28 26 63 31 91 55 127 87 127 16 0 24 5 21 13 -2 6
-17 11 -33 10 -104 -9 -105 -9 -100 12 11 38 75 440 91 566 9 69 15 146 13
170 -2 29 -13 -27 -31 -161z"/>
<path d="M6818 4136 c-269 -187 -460 -316 -530 -358 l-78 -46 0 39 c0 56 -16
48 -37 -17 -10 -34 -27 -62 -40 -71 -13 -9 -23 -19 -23 -23 0 -13 43 2 75 25
17 13 68 44 115 70 136 77 374 239 502 342 65 52 118 97 118 99 0 9 -14 1
-102 -60z"/>
<path d="M5804 3939 c-58 -46 -90 -60 -121 -53 -43 10 -15 -10 35 -26 24 -8
48 -22 53 -32 5 -10 16 -18 23 -18 8 0 16 -9 19 -21 3 -11 15 -23 26 -26 11
-3 23 -13 26 -23 3 -10 25 -25 50 -34 57 -19 59 -5 3 18 l-43 16 79 35 c44 19
87 42 95 51 18 19 21 20 -74 -20 -68 -29 -145 -35 -145 -12 0 8 10 17 23 19
18 3 16 5 -8 6 -16 1 -39 6 -50 10 -15 6 -7 9 31 15 28 3 59 13 70 21 17 13
14 14 -31 9 -27 -3 -56 -8 -63 -10 -8 -2 -24 -1 -38 2 -24 6 -23 7 13 34 38
27 81 70 71 70 -3 0 -23 -14 -44 -31z"/>
<path d="M966 3273 c-12 -37 15 -114 58 -162 l21 -24 -27 7 c-18 4 -32 1 -42
-10 -19 -18 -36 -10 -36 17 0 24 -16 25 -23 2 -2 -10 -8 -27 -13 -38 -7 -17
-6 -18 8 -7 8 7 23 10 32 6 9 -3 22 -2 29 3 6 5 35 10 62 11 34 1 69 12 108
32 32 16 67 30 78 30 11 0 22 7 25 15 4 8 14 15 24 15 35 0 28 15 -16 36 -44
21 -58 18 -29 -6 17 -14 20 -40 5 -40 -5 0 -9 3 -8 8 2 4 -22 30 -52 57 -44
40 -51 44 -36 20 10 -16 30 -43 45 -59 l26 -29 -34 23 c-19 13 -41 41 -50 62
-18 43 -31 49 -31 16 0 -29 30 -75 63 -97 l26 -16 -28 -17 c-27 -15 -28 -15
-24 2 3 11 -8 31 -27 51 l-31 34 20 -42 c22 -44 20 -67 -6 -77 -21 -8 -71 47
-82 92 -5 21 -14 53 -19 72 -7 31 -9 33 -16 13z"/>
<path d="M1063 1502 c-162 -212 -314 -540 -448 -965 -25 -82 -66 -194 -90
-250 -130 -304 -124 -287 -96 -287 12 0 26 11 35 29 34 65 105 255 206 556
148 437 253 677 389 884 34 51 60 95 58 97 -2 2 -26 -27 -54 -64z"/>
<path d="M5870 779 c-90 -19 -163 -29 -192 -26 -47 4 -64 -5 -32 -17 30 -11
89 -6 209 20 272 59 643 24 813 -76 19 -12 37 -18 40 -15 25 25 -213 101 -406
130 -150 23 -265 18 -432 -16z"/>
<path d="M6487 599 c142 -7 370 -44 428 -70 11 -5 46 -31 78 -58 32 -27 84
-63 116 -80 136 -72 200 -162 250 -348 9 -32 17 -43 31 -43 25 0 25 2 -4 86
-57 170 -119 252 -242 323 -32 19 -95 60 -140 91 -58 42 -92 59 -125 63 -24 3
-87 15 -139 26 -76 16 -127 20 -250 19 l-155 -1 152 -8z"/>
<path d="M6005 564 c-143 -18 -288 -55 -367 -93 -93 -45 -220 -145 -333 -263
-106 -110 -183 -208 -162 -208 6 1 32 28 57 62 64 87 223 246 302 301 138 99
261 139 553 182 93 14 171 28 174 30 8 9 -113 3 -224 -11z"/>
<path d="M1294 513 c12 -42 9 -80 -9 -106 -16 -25 -17 -30 -3 -44 14 -13 34
-13 169 -3 85 6 307 14 494 17 337 5 390 3 640 -33 84 -12 8 14 -95 32 -90 16
-159 19 -485 19 -209 0 -453 -4 -542 -8 -148 -7 -163 -6 -163 9 0 12 6 15 25
10 14 -4 69 3 122 15 387 83 579 87 928 18 173 -34 184 -34 192 -14 8 22 -4
30 -21 16 -11 -9 -29 -8 -82 4 -128 30 -301 54 -435 61 -170 8 -327 -7 -533
-51 -88 -19 -163 -32 -168 -29 -4 3 -8 17 -8 32 0 38 -11 72 -22 72 -5 0 -7
-8 -4 -17z"/>
<path d="M6495 380 c-55 -5 -161 -14 -236 -20 -146 -11 -336 -42 -366 -59 -25
-14 -6 -14 74 3 72 15 171 25 504 52 259 21 443 16 544 -16 100 -32 117 -42
206 -127 95 -91 106 -82 14 11 -129 129 -209 157 -465 161 -96 2 -220 -1 -275
-5z"/>
<path d="M6540 324 c-14 -2 -97 -8 -185 -14 -350 -26 -564 -70 -692 -146 -50
-29 -183 -142 -183 -155 0 -21 27 -5 85 50 70 68 168 120 287 155 169 49 534
88 828 90 222 1 285 -9 432 -68 34 -14 64 -24 66 -21 10 10 -131 69 -216 91
-81 21 -116 24 -246 23 -83 -1 -162 -3 -176 -5z"/>
<path d="M6595 270 c-60 -10 -198 -26 -305 -35 -370 -30 -508 -68 -685 -189
-41 -28 -55 -42 -43 -44 9 -2 43 14 75 36 170 115 315 155 663 182 80 6 219
20 310 32 91 11 188 18 215 15 53 -5 243 -75 347 -128 34 -17 86 -56 115 -85
58 -60 84 -71 56 -23 -47 81 -145 142 -338 212 -138 49 -241 56 -410 27z"/>
<path d="M3535 217 c-92 -50 -145 -89 -205 -153 l-55 -59 28 -3 c20 -3 34 4
54 28 24 29 30 31 67 26 22 -4 66 -18 97 -32 31 -14 69 -24 85 -22 29 3 29 3
-16 29 -25 15 -64 33 -87 39 -24 7 -43 16 -43 20 0 17 214 35 400 34 184 -2
543 -34 700 -64 89 -17 67 -3 -32 19 -157 37 -546 88 -691 92 -36 1 -31 3 33
15 108 20 115 24 30 18 -88 -6 -371 -51 -407 -65 -14 -5 -28 -8 -30 -6 -3 4
84 72 134 104 38 25 -5 11 -62 -20z"/>
<path d="M1545 160 c-312 -22 -610 -57 -670 -80 -38 -15 -26 -22 16 -10 102
30 610 74 859 74 267 1 380 -23 570 -119 31 -16 66 -25 92 -25 l43 1 -50 26
c-89 46 -238 101 -320 118 -97 20 -358 27 -540 15z"/>
</g>
</svg>
