<?xml version="1.0" standalone="no"?>
<!DOCTYPE svg PUBLIC "-//W3C//DTD SVG 20010904//EN"
 "http://www.w3.org/TR/2001/REC-SVG-20010904/DTD/svg10.dtd">
<svg version="1.0" xmlns="http://www.w3.org/2000/svg"
 width="1031.000000pt" height="1011.000000pt" viewBox="0 0 1031.000000 1011.000000"
 preserveAspectRatio="xMidYMid meet">
<metadata>
Created by potrace 1.16, written by Peter Selinger 2001-2019
</metadata>
<g transform="translate(0.000000,1011.000000) scale(0.100000,-0.100000)"
fill="#ffffff" stroke="none">
<path d="M4475 9704 c-16 -2 -84 -11 -150 -20 -282 -37 -525 -97 -790 -194
-535 -196 -1000 -464 -1390 -801 -143 -124 -384 -373 -497 -515 -191 -239
-341 -476 -485 -770 -161 -326 -230 -527 -293 -859 -18 -93 -47 -243 -64 -333
-18 -90 -28 -166 -24 -168 4 -3 36 2 72 10 l65 16 51 -32 c28 -17 53 -29 56
-25 3 3 10 41 15 84 61 488 344 987 859 1517 377 387 782 648 1310 844 169 62
226 76 437 108 92 13 213 36 268 49 310 75 610 92 1185 68 256 -12 637 -48
808 -78 272 -47 670 -184 962 -330 339 -170 586 -350 871 -634 395 -396 681
-807 802 -1157 43 -122 76 -271 84 -375 3 -43 9 -83 13 -89 5 -8 25 -4 70 14
77 31 105 32 149 5 l34 -21 -6 94 c-4 69 -26 175 -86 415 -125 495 -213 747
-334 955 -268 460 -338 569 -462 718 -275 330 -543 570 -895 805 -272 181
-526 313 -857 445 -211 85 -299 109 -563 155 -113 20 -241 45 -285 56 -59 15
-137 23 -295 30 -255 12 -593 19 -635 13z m530 -578 c172 -6 403 -34 585 -71
667 -136 1252 -429 1855 -929 201 -167 290 -261 449 -476 46 -61 43 -59 -44
33 -307 325 -748 614 -1240 812 -161 65 -801 220 -968 235 -64 6 -139 13 -167
16 -27 3 -138 10 -245 15 -107 4 -220 13 -250 18 -202 35 -728 -9 -1145 -96
-772 -160 -1225 -347 -1634 -673 -185 -147 -484 -437 -571 -553 -23 -32 -45
-55 -48 -52 -3 3 2 13 10 22 8 10 103 126 211 259 110 135 239 281 294 334
292 277 670 530 1108 741 306 147 452 196 855 283 170 37 267 52 460 70 135
12 265 21 290 20 25 -2 113 -6 195 -8z"/>
<path d="M1959 6109 c-68 -24 -165 -107 -200 -173 -17 -32 -29 -44 -40 -41
-27 9 -49 -6 -49 -32 0 -15 7 -27 18 -29 16 -5 17 -40 20 -531 2 -491 2 -527
-15 -545 -17 -19 -17 -20 0 -33 21 -15 22 -35 2 -35 -17 0 -20 -16 -6 -24 5
-4 12 0 14 6 3 7 6 -35 6 -94 1 -76 -3 -108 -11 -111 -10 -4 -10 -8 -2 -14 8
-5 12 -63 13 -172 2 -164 2 -165 -18 -147 -11 10 -25 15 -30 11 -13 -8 -15
-62 -2 -69 14 -9 39 4 44 22 3 10 5 -9 6 -40 0 -33 -3 -58 -9 -58 -5 0 -10 -5
-10 -11 0 -5 5 -7 10 -4 7 4 10 -98 10 -299 0 -234 -3 -306 -12 -310 -10 -5
-10 -7 0 -12 14 -7 16 -34 2 -34 -5 0 -10 -7 -10 -15 0 -8 5 -15 10 -15 6 0
10 -11 10 -25 0 -16 -4 -23 -14 -19 -18 7 -31 -27 -14 -37 7 -5 15 -4 16 1 10
28 17 3 14 -50 -2 -33 -8 -58 -12 -55 -5 3 -11 1 -15 -5 -3 -5 0 -10 7 -10 10
0 14 -20 16 -70 2 -47 0 -70 -8 -70 -7 0 -8 -5 -3 -12 10 -16 11 -358 1 -352
-18 11 -17 -20 1 -40 12 -12 21 -31 21 -43 0 -36 60 -140 105 -182 25 -23 65
-51 90 -63 25 -12 45 -28 45 -36 0 -8 7 -11 18 -8 18 6 106 -16 98 -24 -2 -3
40 -5 95 -5 79 0 98 -3 94 -14 -4 -9 0 -11 11 -7 8 3 18 6 20 6 2 0 4 6 4 14
0 16 54 38 75 30 8 -3 25 5 37 18 35 37 87 70 98 63 6 -4 9 -1 8 6 -2 7 3 14
10 15 6 1 17 2 22 3 6 0 10 6 10 12 0 5 -5 7 -12 3 -7 -5 -8 -2 -3 7 21 37 27
40 44 25 22 -20 55 -10 71 20 11 20 11 27 -5 44 -10 11 -25 20 -33 20 -10 0
-12 7 -8 25 4 14 9 46 12 73 9 79 14 98 24 83 5 -9 13 -10 21 -5 8 5 25 9 39
10 91 4 90 3 90 27 0 33 15 51 36 43 18 -7 18 -8 2 -20 -10 -7 -18 -25 -18
-40 0 -14 -4 -26 -10 -26 -5 0 -10 -7 -10 -15 0 -21 -21 -28 -52 -16 -33 12
-36 9 -29 -36 6 -34 10 -38 39 -40 17 -2 32 2 32 7 0 6 18 10 40 10 25 0 40
-5 40 -12 0 -7 3 -23 6 -34 4 -14 0 -23 -11 -28 -13 -5 -15 -2 -9 16 6 20 5
21 -10 9 -9 -7 -16 -20 -16 -27 0 -17 -12 -18 -27 -3 -16 16 -35 1 -28 -23 5
-14 1 -21 -13 -25 -11 -2 -22 -13 -25 -24 -6 -21 8 -35 18 -19 4 7 21 -3 42
-25 28 -29 38 -34 45 -23 7 10 11 10 15 1 2 -7 11 -13 19 -13 8 0 14 -4 14
-10 0 -12 80 -51 91 -44 15 9 10 44 -6 50 -8 4 -15 11 -15 17 0 6 -7 19 -16
29 -16 16 -16 18 0 24 24 9 19 32 -11 48 l-28 15 27 1 c23 0 28 5 34 35 6 36
24 49 24 18 0 -10 14 -26 31 -35 16 -10 27 -13 23 -7 -4 7 -1 10 6 7 13 -4 70
46 70 62 0 4 10 6 22 2 17 -4 20 -2 15 12 -4 10 -7 22 -7 27 0 6 -6 7 -12 3
-10 -5 -10 -3 0 7 10 11 14 11 21 1 11 -19 53 0 70 32 15 28 26 32 36 16 3 -5
14 -10 24 -10 17 0 18 7 13 66 -4 59 -3 67 17 80 16 12 19 19 12 28 -7 9 -7
17 2 26 8 9 4 8 -13 -2 -24 -14 -29 -14 -60 3 -19 10 -44 19 -55 19 -11 1 -14
4 -7 7 12 5 17 43 5 43 -4 0 -17 -9 -29 -21 -26 -24 -60 -19 -69 11 -8 24 3
43 20 36 23 -8 25 33 3 54 l-21 19 24 20 c13 11 34 20 47 21 17 0 22 5 20 18
-3 13 -12 16 -36 14 -18 -1 -45 4 -61 13 -34 17 -44 10 -30 -19 10 -20 10 -20
-9 1 -11 12 -22 19 -26 16 -3 -4 -6 4 -6 16 0 44 -16 60 -54 51 -39 -9 -46 -5
-46 21 0 10 -9 23 -20 29 -26 14 -60 -3 -60 -30 0 -10 -4 -20 -8 -22 -5 -1 -5
-17 -1 -33 8 -29 11 -31 54 -30 25 1 45 -3 45 -8 0 -5 -11 -7 -25 -4 -30 5
-65 -32 -65 -69 0 -26 -15 -32 -23 -10 -3 8 -16 16 -28 18 -28 4 -38 28 -11
28 27 0 43 22 38 51 -3 13 -5 26 -5 28 -1 3 -10 -5 -22 -18 -25 -27 -44 -23
-44 10 0 15 -6 24 -15 24 -8 0 -20 4 -26 7 -6 4 -20 1 -30 -7 -10 -8 -23 -14
-29 -15 -5 0 -3 5 5 11 12 9 11 10 -7 6 -20 -4 -22 -2 -17 19 4 15 2 24 -5 24
-6 0 -11 11 -11 25 0 23 8 29 36 26 6 -1 19 8 29 18 15 18 16 22 2 35 -8 8
-17 13 -20 10 -3 -3 -15 -3 -26 1 -18 5 -21 15 -21 56 0 36 4 49 14 49 8 0 18
-4 21 -10 10 -16 25 -12 25 6 0 11 5 14 16 10 9 -3 21 -3 27 1 7 4 16 8 21 8
5 0 9 24 10 54 1 43 -3 56 -19 67 -17 13 -18 14 -2 14 23 0 33 26 17 45 -10
12 -9 15 8 15 18 0 20 4 15 35 -5 31 -3 35 16 35 11 0 21 -6 21 -12 0 -10 3
-9 9 1 7 11 13 8 26 -13 14 -20 20 -24 26 -14 5 7 9 16 9 19 0 10 -77 49 -95
49 -8 0 -15 5 -15 10 0 6 7 10 15 10 27 0 16 16 -20 30 -19 8 -35 17 -35 22 0
4 -11 8 -25 8 -15 0 -25 -6 -25 -14 0 -8 -6 -17 -12 -19 -10 -4 -10 -8 1 -15
8 -6 9 -12 3 -16 -13 -8 -36 20 -27 34 3 5 -1 10 -9 10 -10 0 -16 9 -16 25 0
19 4 23 18 18 16 -6 16 -5 0 13 -10 11 -17 33 -15 50 2 25 6 30 23 26 12 -2
25 1 28 7 11 17 46 13 46 -4 0 -11 -7 -14 -25 -9 -21 5 -25 3 -25 -15 0 -22
14 -28 25 -11 3 6 18 10 32 10 25 0 25 0 8 -26 -21 -33 -13 -59 14 -45 13 7
17 18 14 31 -3 11 0 27 7 35 11 13 9 20 -10 40 -13 14 -29 25 -36 25 -23 0
-28 23 -8 39 25 21 24 53 -3 85 -13 14 -23 30 -23 35 0 5 -9 7 -20 4 -14 -4
-20 0 -20 11 0 21 24 21 41 0 12 -14 14 -14 25 1 11 15 14 15 33 -4 26 -26 27
-35 2 -28 -11 3 -22 0 -24 -7 -3 -6 7 -11 24 -12 20 -1 29 5 33 20 3 11 1 25
-4 30 -10 10 -2 36 10 36 5 0 10 -10 12 -22 3 -20 4 -21 20 -5 22 22 70 23 62
2 -6 -15 11 -45 26 -45 4 0 7 15 6 33 -1 26 3 33 22 35 19 3 22 8 16 25 -4 12
-7 30 -6 40 1 16 -9 21 -35 18 -7 -1 -13 5 -13 14 0 9 -4 13 -10 10 -6 -3 -7
1 -4 9 3 9 15 16 25 16 12 0 16 -5 13 -15 -8 -19 0 -19 20 1 14 13 18 14 31 1
16 -17 10 -28 -11 -20 -23 9 -16 -13 11 -33 30 -23 33 -38 5 -29 -11 4 -20 2
-20 -4 0 -6 5 -11 11 -11 5 0 7 -4 4 -10 -9 -15 2 -12 31 7 20 13 27 14 33 4
5 -7 11 -12 15 -12 27 4 38 -1 32 -14 -7 -20 11 -68 24 -60 6 4 4 15 -6 31
-10 15 -12 24 -5 24 20 0 12 27 -10 33 -18 5 -19 10 -13 44 7 36 6 37 -12 23
-10 -8 -24 -21 -30 -29 -6 -8 -16 -11 -22 -7 -15 9 -15 27 -1 24 7 -2 15 9 20
25 6 23 4 27 -12 27 -10 0 -19 4 -19 9 0 11 39 26 58 23 6 -2 12 3 12 11 0 10
8 13 25 9 29 -5 31 -14 10 -32 -19 -16 -19 -50 0 -50 9 0 14 8 12 23 -1 15 3
22 14 21 11 -1 14 5 11 22 -2 14 0 24 7 24 6 0 16 12 21 26 6 14 14 23 19 20
15 -9 31 18 21 34 -6 8 -9 22 -9 30 0 8 4 5 9 -7 10 -26 22 -28 51 -12 16 8
18 14 9 24 -8 10 -8 19 2 36 11 18 11 22 0 26 -10 4 -10 8 -1 19 7 9 8 14 1
14 -6 0 -7 10 -3 28 9 33 51 42 51 10 0 -26 24 -17 28 10 2 16 -2 22 -15 22
-15 0 -16 2 -3 10 12 8 13 13 3 30 -17 26 -16 30 5 24 15 -5 15 -4 -1 9 -17
14 -17 18 -4 49 19 42 19 101 0 94 -7 -3 -13 -1 -13 4 0 5 -9 8 -21 7 -18 -1
-18 -3 -5 -13 17 -12 22 -29 6 -19 -5 3 -10 1 -10 -4 0 -16 -23 -13 -46 5 -19
15 -18 15 4 11 26 -6 30 17 7 47 -8 11 -12 29 -9 39 4 12 2 17 -4 13 -5 -3
-12 4 -16 17 -3 12 -1 24 4 25 6 2 10 8 10 13 0 6 -4 8 -9 4 -5 -3 -12 -1 -16
5 -3 5 -1 10 4 10 6 0 11 5 11 11 0 6 -7 9 -15 5 -8 -3 -15 -1 -15 4 0 5 -7 7
-15 3 -9 -3 -23 1 -33 9 -27 24 -50 28 -56 12 -3 -9 -11 -12 -17 -8 -6 3 -15
0 -20 -7 -7 -12 -9 -12 -9 0 0 8 8 20 18 27 16 13 16 13 0 14 -10 0 -18 5 -18
10 0 6 -8 10 -17 11 -11 0 -13 3 -5 6 6 2 12 16 12 29 0 22 -13 30 -42 25 -4
0 -15 13 -25 29 -18 30 -33 39 -33 19 0 -6 -7 -9 -15 -5 -8 3 -15 3 -15 1 0
-11 36 -45 47 -45 20 0 15 -17 -7 -23 -11 -3 -20 -1 -20 4 0 5 -5 9 -11 9 -6
0 -8 -9 -4 -20 3 -11 3 -21 -2 -21 -75 -10 -80 -9 -67 25 3 9 10 13 15 10 5
-3 9 2 9 10 0 10 -8 14 -27 12 -16 -2 -28 -8 -27 -15 1 -6 2 -22 3 -35 0 -14
9 -27 19 -29 16 -4 16 -5 0 -6 -10 0 -18 -9 -18 -19 0 -19 -18 -42 -32 -42 -4
0 -8 7 -8 15 0 22 -37 18 -43 -5 -6 -23 -37 -27 -37 -5 0 20 -7 19 -32 -5 -12
-11 -16 -20 -10 -20 7 0 12 -5 12 -11 0 -6 -7 -9 -15 -5 -8 3 -15 1 -15 -5 0
-6 -4 -7 -10 -4 -6 3 -10 50 -10 106 0 89 2 99 18 99 10 0 23 5 30 12 9 9 12
7 12 -11 0 -14 7 -25 20 -28 23 -6 26 -19 8 -26 -9 -3 -8 -7 4 -12 10 -4 23
-1 31 7 15 14 11 42 -4 32 -5 -3 -9 -1 -9 5 0 5 5 11 11 13 22 7 -14 48 -41
48 -19 0 -26 6 -27 20 -1 11 2 20 6 20 5 0 11 14 15 31 3 17 10 28 16 24 10
-6 8 -54 -5 -76 -4 -8 4 -2 19 13 14 15 26 34 26 43 0 8 4 15 9 15 5 0 8 15 7
33 -1 27 -6 32 -26 33 -14 1 -33 5 -42 9 -10 4 -25 5 -33 1 -23 -8 -18 12 10
42 14 15 21 28 15 30 -5 2 -10 8 -10 13 0 6 4 8 9 5 5 -4 17 -3 27 1 16 6 16
7 0 19 -12 8 -14 14 -6 19 18 11 -23 35 -49 28 -17 -4 -20 -10 -15 -27 4 -11
11 -23 16 -24 5 -2 4 -10 -3 -18 -23 -28 -29 0 -29 144 -1 301 -49 421 -195
488 -61 28 -143 41 -300 48 -102 4 -128 2 -176 -15z m513 -704 c0 -5 4 -18 9
-27 7 -12 6 -18 -2 -18 -6 0 -9 -7 -6 -15 4 -8 0 -26 -8 -41 -7 -15 -11 -32
-8 -39 2 -8 -5 -19 -17 -25 -16 -8 -20 -18 -16 -33 3 -11 0 -27 -6 -35 -9 -10
-8 -16 2 -22 20 -13 5 -24 -22 -16 -13 3 -28 16 -34 30 -10 21 -9 25 7 29 27
7 45 52 33 85 -8 22 -15 26 -36 24 -18 -2 -30 3 -37 17 -16 28 -14 51 2 31 7
-8 22 -14 35 -12 12 2 22 -1 22 -6 0 -6 7 -13 16 -16 14 -5 15 0 10 38 -6 37
-4 46 11 55 21 12 44 10 45 -4z m-599 -647 c42 -22 58 -53 138 -267 54 -145
72 -177 91 -165 4 3 8 0 8 -5 0 -6 -4 -11 -10 -11 -5 0 -10 -4 -10 -10 0 -5 7
-7 15 -4 9 4 15 0 15 -10 0 -9 -5 -16 -10 -16 -14 0 11 -58 66 -153 25 -43 44
-80 42 -81 -2 -1 -27 -13 -56 -25 -52 -21 -54 -22 -68 -4 -100 128 -248 472
-274 635 -10 64 -7 90 13 116 12 15 13 15 40 0z m519 -600 c2 -13 2 -89 0
-170 l-3 -148 -125 0 c-68 0 -124 3 -124 7 0 3 32 36 70 73 75 72 84 96 58
157 -6 15 -13 35 -14 43 -2 8 -6 25 -10 38 -6 21 -4 22 69 22 71 0 76 -1 79
-22z m-508 -333 c16 -12 58 -15 212 -15 193 0 284 -6 284 -20 0 -12 -59 -37
-166 -68 -82 -25 -109 -29 -140 -22 -34 8 -43 6 -72 -18 -19 -15 -40 -31 -47
-36 -21 -16 -65 3 -85 37 -14 23 -20 50 -20 95 0 66 3 70 34 47z m1316 -1069
c0 -19 5 -36 12 -38 6 -2 9 -12 5 -21 -4 -10 -12 -14 -21 -11 -27 10 -75 -18
-78 -46 -2 -16 -8 -24 -18 -21 -8 2 -28 5 -44 7 -16 2 -35 12 -42 21 -12 17
-13 17 -19 1 -4 -10 -11 -15 -17 -12 -17 11 -58 -5 -52 -21 4 -8 12 -15 20
-15 17 0 37 -36 31 -58 -3 -11 -5 -9 -6 7 -1 21 -4 23 -36 18 -30 -5 -35 -3
-35 14 0 10 -5 19 -12 19 -6 0 -4 7 5 18 19 21 21 45 7 72 -8 15 -6 20 10 25
21 7 40 0 40 -15 0 -5 -7 -7 -15 -4 -8 4 -15 2 -15 -4 0 -9 22 -22 37 -22 3 0
3 14 1 30 -5 36 9 40 22 5 11 -28 20 -31 38 -13 9 9 12 9 12 0 0 -7 16 -11 44
-10 33 2 42 5 35 14 -10 13 13 79 24 67 4 -3 7 -1 7 5 0 10 19 18 48 21 7 1
12 -12 12 -33z"/>
<path d="M7292 6105 c-35 -12 -74 -33 -87 -45 -16 -15 -30 -20 -44 -15 -14 4
-21 2 -22 -7 -1 -7 -2 -20 -3 -28 0 -8 -16 -39 -35 -68 -26 -41 -37 -51 -52
-47 -27 9 -34 -17 -15 -52 12 -25 13 -42 4 -104 -10 -72 -7 -337 8 -650 l7
-136 26 13 c33 18 55 18 90 -1 40 -20 46 -51 16 -81 -26 -26 -81 -32 -116 -14
-19 11 -19 -4 -21 -942 -4 -1220 -3 -1296 16 -1390 20 -101 59 -182 117 -240
50 -50 62 -54 220 -88 152 -32 182 -29 314 34 134 64 192 115 226 204 27 66
26 -43 14 1437 -5 648 -4 1056 4 1315 18 564 -3 723 -107 828 -67 66 -149 87
-367 96 -118 4 -136 2 -193 -19z m-122 -1415 c34 -34 17 -101 -22 -87 -7 2
-21 0 -32 -5 -17 -9 -17 -11 5 -22 13 -6 24 -16 24 -21 0 -6 6 -25 14 -43 11
-26 11 -35 1 -47 -10 -13 -10 -19 4 -33 21 -25 20 -39 -4 -45 -59 -15 -70 12
-70 174 0 82 3 100 21 123 25 31 33 32 59 6z m-25 -413 c23 -18 31 -125 9
-134 -8 -3 -14 -11 -14 -19 0 -8 -10 -14 -22 -14 -19 0 -20 -2 -8 -10 8 -5 25
-10 36 -10 23 0 34 -17 34 -51 0 -12 -7 -19 -20 -19 -32 0 -30 -56 1 -78 16
-11 17 -17 8 -28 -6 -8 -20 -14 -30 -14 -26 0 -24 -18 3 -22 13 -2 27 -15 35
-35 11 -28 10 -34 -6 -54 -20 -25 -73 -31 -94 -10 -25 25 -5 439 24 492 12 23
19 23 44 6z m785 -21 c0 -8 -7 -44 -15 -80 -14 -58 -14 -70 -1 -101 l15 -35
-50 0 -49 0 0 115 0 115 50 0 c37 0 50 -4 50 -14z"/>
<path d="M8733 6022 c-7 -4 -20 -26 -30 -47 -17 -37 -18 -103 -23 -925 -3
-487 -6 -878 -8 -870 -2 13 -3 13 -12 0 -12 -19 -16 -6 -25 80 -8 80 -7 712 1
756 6 30 4 32 -42 48 -26 9 -51 16 -56 16 -4 0 -8 -149 -8 -332 0 -320 -1
-331 -18 -315 -10 10 -28 17 -41 17 l-21 0 0 493 c1 535 -2 568 -55 649 -43
64 -141 98 -287 98 l-68 0 0 -197 c0 -109 -3 -362 -7 -564 l-6 -365 -29 4
c-22 3 -27 1 -22 -11 3 -8 16 -18 30 -21 24 -6 32 -30 14 -41 -5 -3 -10 -15
-10 -26 0 -10 5 -19 10 -19 7 0 10 -308 10 -904 l0 -904 48 -6 c100 -14 242
37 317 114 l40 41 7 242 c5 133 9 248 10 256 2 17 38 -25 38 -45 0 -7 4 -15 9
-18 4 -3 6 6 3 21 -3 17 -1 24 6 19 6 -3 13 2 15 11 2 10 2 -7 -1 -37 -5 -50
-4 -54 11 -41 10 7 17 10 17 5 0 -5 5 -1 11 9 13 22 43 22 65 0 17 -17 17 -16
11 9 -5 18 -3 28 8 32 11 4 13 -1 9 -23 -4 -21 -1 -30 11 -34 9 -4 13 -12 9
-18 -4 -7 -3 -9 4 -5 5 3 13 0 16 -6 5 -11 7 -11 12 0 3 6 10 10 15 6 5 -3 9
-1 9 4 0 5 13 12 29 15 22 5 31 13 36 37 4 16 11 27 16 24 6 -3 8 -12 6 -19
-4 -8 3 -11 20 -9 14 1 22 0 19 -3 -9 -9 27 -31 41 -26 10 4 11 9 3 18 -9 11
-5 11 25 2 30 -9 38 -8 46 4 5 8 9 17 9 20 0 9 -34 7 -47 -3 -7 -5 -14 -5 -17
1 -4 5 1 14 9 19 13 7 14 14 5 36 -13 34 -13 46 0 26 8 -13 11 -13 19 -1 11
17 34 4 27 -15 -7 -19 8 -18 24 1 11 13 10 18 -6 30 -10 8 -28 12 -39 9 -16
-4 -17 -3 -5 5 12 8 12 13 2 23 -17 17 -15 41 3 35 27 -11 39 48 13 64 -7 5
-7 13 1 25 10 18 10 18 11 1 0 -20 24 -49 33 -41 7 8 -4 44 -14 44 -5 0 1 11
13 25 12 14 30 25 40 25 11 0 16 5 13 10 -11 19 -57 11 -62 -10 -5 -20 -23
-28 -23 -10 0 33 99 76 115 50 3 -6 -1 -7 -9 -4 -26 10 -18 -12 9 -24 14 -6
25 -18 25 -26 0 -10 6 -13 15 -10 8 4 21 1 29 -5 11 -9 15 -8 20 5 5 12 10 13
19 5 10 -8 18 -5 31 10 10 12 24 18 32 15 9 -3 20 -6 25 -6 6 0 8 -9 4 -20
-13 -41 40 -85 66 -54 15 18 21 18 45 -2 15 -12 16 -15 2 -10 -9 2 -22 -1 -28
-9 -6 -8 -19 -11 -27 -8 -13 5 -15 2 -10 -11 4 -10 7 -20 7 -22 0 -2 6 -4 14
-4 8 0 18 -5 21 -10 8 -13 -3 -50 -15 -50 -27 0 -99 108 -86 129 4 5 0 13 -7
18 -7 4 -17 16 -20 26 -4 10 -12 15 -17 12 -8 -5 -8 -11 0 -20 7 -9 6 -16 -5
-25 -9 -7 -13 -20 -10 -28 4 -12 3 -13 -9 -3 -16 13 -40 6 -31 -9 7 -11 -32
-23 -46 -14 -7 4 -10 1 -7 -6 6 -20 -23 -45 -54 -45 -16 0 -28 3 -28 8 0 16
-18 6 -23 -14 -5 -17 -2 -20 14 -16 12 3 19 0 19 -9 0 -12 19 -19 43 -15 7 1
11 -22 8 -46 -1 -7 2 -13 7 -13 6 0 13 -11 16 -25 8 -31 19 -31 60 0 42 32 46
31 46 -5 0 -16 5 -30 10 -30 7 0 7 -7 -1 -22 -10 -18 -9 -20 4 -15 9 3 18 1
20 -6 3 -9 9 -9 23 -1 28 16 28 33 0 40 -15 3 -23 11 -20 19 4 10 14 11 35 5
16 -5 29 -6 29 -2 0 4 15 24 34 45 37 41 69 47 73 12 2 -11 0 -14 -3 -7 -3 6
-10 12 -16 12 -5 0 1 -14 15 -31 20 -25 33 -32 71 -35 44 -3 47 -2 44 18 -2
14 -12 24 -27 28 -14 3 -26 11 -29 18 -2 7 2 10 12 6 11 -4 16 -1 16 10 0 9
-4 16 -10 16 -5 0 -10 16 -10 36 0 26 -4 35 -13 31 -21 -8 -33 5 -40 41 -6 28
-3 34 18 42 14 5 25 14 25 19 0 6 -7 7 -17 4 -11 -4 -14 -3 -9 6 4 6 2 19 -6
28 -7 9 -8 14 -2 10 16 -9 36 17 28 37 -7 18 -20 21 -29 6 -9 -15 -25 -12 -25
5 0 8 -7 15 -15 15 -17 0 -20 21 -4 37 7 7 3 12 -15 15 -18 4 -26 1 -26 -8 0
-8 -6 -14 -12 -14 -9 0 -8 -3 2 -10 8 -5 11 -12 7 -16 -4 -4 -12 -3 -19 4 -8
8 -8 15 1 25 9 12 8 16 -4 20 -8 4 -14 1 -12 -6 1 -7 -6 -11 -15 -9 -16 3 -23
-13 -19 -40 0 -5 -6 -8 -14 -8 -8 0 -15 9 -15 19 0 30 -11 51 -27 51 -8 0 -11
-4 -8 -10 3 -5 -1 -10 -10 -10 -15 0 -15 -1 -1 -16 17 -16 21 -29 8 -20 -4 2
-14 1 -22 -4 -12 -7 -12 -11 1 -26 12 -16 12 -17 -3 -11 -12 4 -18 2 -18 -8 0
-19 -9 -19 -31 1 -17 15 -17 18 -2 50 9 19 20 34 25 34 4 0 8 7 8 17 0 15 -2
15 -19 -1 -18 -17 -19 -16 -26 16 -4 18 -12 39 -19 47 -8 11 -8 13 2 7 17 -10
15 9 -2 23 -14 12 -11 47 5 57 5 3 6 -2 3 -10 -9 -23 9 -19 38 7 22 21 27 22
36 8 9 -13 13 -14 20 -2 6 7 15 11 20 7 22 -13 57 4 58 29 1 13 -3 23 -10 22
-6 -1 -10 6 -8 17 3 14 -1 17 -13 12 -9 -3 -27 1 -40 10 -21 14 -24 14 -28 -3
-4 -14 -5 -13 -6 5 0 12 -6 22 -12 22 -6 0 -9 7 -5 15 3 9 0 15 -9 15 -8 0
-18 6 -22 14 -12 20 -51 38 -58 26 -3 -5 -13 -10 -21 -10 -11 0 -14 15 -14 65
0 51 3 65 15 65 8 0 14 -5 13 -11 -2 -6 3 -14 11 -17 8 -2 11 0 7 6 -3 6 -2
13 4 17 5 3 10 18 9 33 0 26 -1 26 -9 5 -10 -24 -18 -28 -36 -15 -6 4 -16 66
-22 137 -13 141 -38 273 -73 390 -20 67 -25 75 -47 75 -20 0 -23 -4 -19 -22 3
-13 9 -125 13 -249 5 -166 4 -228 -5 -233 -7 -4 -11 0 -11 11 0 14 -2 15 -9 4
-19 -30 -23 119 -20 879 2 544 -1 803 -8 820 -6 14 -19 32 -29 42 -22 19 -103
33 -121 20z"/>
<path d="M825 5987 c-41 -97 -55 -326 -54 -852 0 -236 4 -563 8 -725 9 -320
15 -357 65 -394 22 -17 31 -19 56 -9 28 11 30 10 30 -13 0 -22 -4 -24 -46 -24
-39 0 -51 5 -75 31 -62 66 -83 221 -74 532 7 208 7 217 -11 217 -28 0 -101
-174 -114 -270 -12 -98 -12 -536 0 -623 12 -80 41 -155 118 -297 64 -117 105
-162 188 -207 49 -27 54 -32 35 -38 -13 -4 -21 -15 -21 -30 0 -59 34 -74 69
-29 17 22 19 30 9 42 -7 8 16 0 51 -17 35 -18 64 -31 66 -29 5 6 15 1828 10
1828 -4 0 -26 -5 -51 -11 -34 -9 -46 -17 -51 -37 -3 -13 -3 -196 1 -406 8
-445 0 -558 -44 -569 -23 -6 -24 -3 -8 26 9 17 11 241 9 957 -3 932 -3 935
-24 958 -16 17 -31 22 -74 22 -51 0 -55 -2 -68 -33z"/>
<path d="M1400 5683 c0 -6 -29 -32 -64 -57 -36 -25 -73 -57 -84 -71 -12 -15
-30 -25 -46 -25 -16 0 -31 -9 -42 -25 -15 -23 -15 -27 0 -50 9 -14 22 -25 29
-25 9 0 12 -35 13 -132 1 -73 4 -375 9 -672 6 -450 5 -540 -6 -548 -11 -7 -11
-11 -1 -15 9 -3 12 -69 12 -279 0 -257 -1 -274 -18 -274 -43 0 -56 -49 -19
-75 22 -15 22 -18 23 -268 1 -277 10 -335 62 -412 38 -56 117 -94 211 -102 47
-4 75 -11 78 -20 3 -7 9 -13 15 -13 5 0 6 5 3 10 -4 6 7 10 24 10 l31 0 1 63
c2 146 5 172 14 174 5 1 13 17 17 35 5 25 2 40 -12 60 -18 25 -20 45 -20 253
0 168 3 225 12 225 9 0 9 3 0 12 -16 16 -17 238 -1 238 8 0 8 4 0 14 -14 17
-14 253 0 262 5 3 6 11 2 17 -4 7 -6 63 -5 126 1 112 2 115 29 137 26 21 27
23 9 30 -12 5 -21 3 -24 -4 -2 -7 -7 -12 -11 -12 -10 0 -1 51 12 68 6 8 6 16
-2 25 -8 10 -11 203 -11 667 0 359 -2 655 -4 658 -3 2 -57 5 -120 5 -82 2
-116 -1 -116 -10z"/>
<path d="M4375 4512 c-60 -13 -72 -88 -19 -123 41 -27 78 -24 103 7 18 23 19
29 7 57 -14 36 -61 66 -91 59z"/>
<path d="M1428 2183 c-38 -47 -39 -104 -3 -165 9 -15 47 -23 85 -19 17 1 40
45 40 73 0 10 7 21 15 24 19 8 19 30 0 38 -8 3 -12 12 -9 20 15 38 -98 64
-128 29z"/>
<path d="M2378 2164 c-4 -4 -5 -17 -2 -29 3 -13 1 -26 -5 -29 -29 -18 11 -73
65 -90 26 -8 59 26 69 71 5 25 2 35 -16 52 -33 30 -58 35 -79 16 -17 -15 -18
-15 -22 0 -1 9 -6 13 -10 9z"/>
<path d="M5859 153 c-28 -7 -53 -77 -43 -115 9 -31 12 -33 64 -36 30 -2 65 0
78 3 23 6 24 9 19 58 -9 76 -51 108 -118 90z"/>
</g>
</svg>
