<?xml version="1.0" encoding="UTF-8" standalone="no"?>
<svg
   xmlns:dc="http://purl.org/dc/elements/1.1/"
   xmlns:cc="http://creativecommons.org/ns#"
   xmlns:rdf="http://www.w3.org/1999/02/22-rdf-syntax-ns#"
   xmlns:svg="http://www.w3.org/2000/svg"
   xmlns="http://www.w3.org/2000/svg"
   xmlns:xlink="http://www.w3.org/1999/xlink"
   xmlns:sodipodi="http://sodipodi.sourceforge.net/DTD/sodipodi-0.dtd"
   xmlns:inkscape="http://www.inkscape.org/namespaces/inkscape"
   version="1.1"
   viewBox="0 0 728 782"
   width="728.0pt"
   height="782.0pt"
   id="svg43"
   sodipodi:docname="—Pngtree—headphones vector icon_3720267-stroke-and-fill.svg"
   inkscape:version="0.92.5 (2060ec1f9f, 2020-04-08)">
  <metadata
     id="metadata47">
    <rdf:RDF>
      <cc:Work
         rdf:about="">
        <dc:format>image/svg+xml</dc:format>
        <dc:type
           rdf:resource="http://purl.org/dc/dcmitype/StillImage" />
        <dc:title></dc:title>
      </cc:Work>
    </rdf:RDF>
  </metadata>
  <sodipodi:namedview
     pagecolor="#ffffff"
     bordercolor="#666666"
     borderopacity="1"
     objecttolerance="10"
     gridtolerance="10"
     guidetolerance="10"
     inkscape:pageopacity="0"
     inkscape:pageshadow="2"
     inkscape:window-width="1366"
     inkscape:window-height="704"
     id="namedview45"
     showgrid="false"
     inkscape:pagecheckerboard="true"
     inkscape:zoom="0.22634271"
     inkscape:cx="485.33333"
     inkscape:cy="521.33333"
     inkscape:window-x="0"
     inkscape:window-y="27"
     inkscape:window-maximized="1"
     inkscape:current-layer="g25" />
  <defs
     id="defs9">
    <path
       d="M 0.00 0.00 L 728.00 0.00 L 728.00 782.00 L 0.00 782.00 L 0.00 0.00 Z M 50.99 621.67 C 51.08 637.44 50.99 653.22 51.03 669.00 C 51.10 682.49 55.01 696.83 63.55 707.47 C 69.35 714.68 77.49 720.10 86.99 720.33 C 95.99 720.40 105.00 720.35 114.01 720.36 C 123.40 720.36 131.47 715.42 137.42 708.45 C 146.53 697.74 150.69 682.90 150.75 669.02 C 150.78 621.36 150.75 573.67 150.77 526.00 C 151.13 508.92 145.35 489.48 131.39 478.64 C 126.40 474.79 120.35 472.48 114.01 472.48 C 104.73 472.51 95.44 472.37 86.16 472.54 C 80.82 472.70 76.53 474.99 71.80 477.13 C 71.48 438.77 71.75 400.36 71.67 362.00 C 71.55 318.32 81.39 274.72 100.37 235.37 C 124.82 184.43 164.29 140.96 212.53 111.56 C 250.16 88.53 293.07 74.24 337.01 70.21 C 380.23 66.15 424.31 71.92 465.00 87.06 C 516.72 106.17 562.50 140.27 596.01 183.99 C 625.91 222.86 645.79 269.28 653.06 317.79 C 655.22 332.09 656.30 346.54 656.33 361.00 C 656.38 399.91 656.28 438.83 656.38 477.75 C 651.56 474.41 645.94 472.44 640.04 472.48 C 631.07 472.48 622.10 472.43 613.13 472.50 C 604.29 472.77 596.65 477.43 590.94 483.95 C 581.53 494.74 577.28 509.87 577.23 523.98 C 577.21 570.32 577.23 616.66 577.22 663.00 C 577.22 666.37 577.19 669.78 577.36 673.14 C 553.65 692.60 525.83 706.38 496.25 714.31 C 480.67 718.49 464.75 721.06 448.67 722.31 C 444.61 708.94 432.01 699.53 418.02 699.53 C 395.35 699.54 372.65 699.49 349.99 699.56 C 335.86 699.83 323.20 710.08 319.83 723.77 C 318.43 729.16 318.97 734.44 318.89 740.00 C 318.98 746.54 318.27 752.41 320.40 758.77 C 324.43 771.57 336.58 780.72 350.01 781.02 C 372.32 781.13 394.69 781.03 417.00 781.07 C 424.36 781.20 431.62 778.94 437.45 774.42 C 444.45 769.08 448.97 760.94 449.89 752.19 C 487.01 749.51 523.19 740.58 556.26 723.26 C 567.04 717.64 577.37 711.16 587.16 703.96 C 593.03 712.77 602.00 719.98 612.99 720.32 C 622.33 720.40 631.67 720.38 641.01 720.33 C 650.01 720.12 657.82 715.21 663.55 708.54 C 672.49 698.09 676.71 683.58 676.94 670.00 C 677.02 653.89 676.90 637.77 677.00 621.66 C 678.19 627.47 680.69 632.83 685.17 636.82 C 692.19 643.27 702.68 645.15 711.49 641.48 C 720.92 637.70 727.26 628.17 727.13 618.01 C 727.12 533.34 727.14 448.67 727.12 364.00 C 727.13 312.04 715.81 260.16 694.02 212.98 C 667.80 155.92 626.52 106.08 575.60 69.36 C 530.19 36.55 477.14 14.45 421.81 5.56 C 372.87 -2.37 322.25 -0.12 274.23 12.24 C 221.73 25.66 172.46 51.13 131.02 86.03 C 81.22 127.79 42.82 182.87 21.32 244.23 C 7.79 282.63 0.89 323.29 0.88 364.00 C 0.86 446.66 0.88 529.33 0.87 612.00 C 0.90 616.82 0.54 621.34 2.11 625.99 C 4.52 633.48 10.56 639.60 18.05 642.05 C 25.58 644.62 34.17 643.28 40.60 638.62 C 46.31 634.58 49.68 628.45 50.99 621.67 Z"
       id="p0" />
    <path
       d="M 421.81 5.56 C 477.14 14.45 530.19 36.55 575.60 69.36 C 626.52 106.08 667.80 155.92 694.02 212.98 C 715.81 260.16 727.13 312.04 727.12 364.00 C 727.14 448.67 727.12 533.34 727.13 618.01 C 727.26 628.17 720.92 637.70 711.49 641.48 C 702.68 645.15 692.19 643.27 685.17 636.82 C 680.69 632.83 678.19 627.47 677.00 621.66 C 676.94 590.78 676.99 559.88 676.98 529.00 C 677.03 524.15 676.91 519.33 676.51 514.49 C 676.94 510.31 677.04 506.20 676.95 502.00 C 676.92 455.67 676.96 409.33 676.93 363.00 C 676.82 316.48 666.09 270.09 645.74 228.26 C 620.50 176.14 580.55 131.41 531.77 100.22 C 489.89 73.37 441.57 56.75 392.01 52.36 C 347.99 48.37 303.17 53.85 261.46 68.48 C 205.77 87.84 156.15 123.37 119.40 169.43 C 84.97 212.42 62.19 264.54 54.33 319.08 C 51.82 335.94 50.89 352.96 51.06 370.00 C 51.06 413.67 51.07 457.33 51.06 501.00 C 50.98 505.51 51.01 509.98 51.48 514.48 C 51.25 517.65 51.04 520.82 51.02 524.00 C 50.99 556.55 51.07 589.11 50.99 621.67 C 49.68 628.45 46.31 634.58 40.60 638.62 C 34.17 643.28 25.58 644.62 18.05 642.05 C 10.56 639.60 4.52 633.48 2.11 625.99 C 0.54 621.34 0.90 616.82 0.87 612.00 C 0.88 529.33 0.86 446.66 0.88 364.00 C 0.89 323.29 7.79 282.63 21.32 244.23 C 42.82 182.87 81.22 127.79 131.02 86.03 C 172.46 51.13 221.73 25.66 274.23 12.24 C 322.25 -0.12 372.87 -2.37 421.81 5.56 Z"
       id="p1" />
    <path
       d="M 392.01 52.36 C 441.57 56.75 489.89 73.37 531.77 100.22 C 580.55 131.41 620.50 176.14 645.74 228.26 C 666.09 270.09 676.82 316.48 676.93 363.00 C 676.96 409.33 676.92 455.67 676.95 502.00 C 677.04 506.20 676.94 510.31 676.51 514.49 C 673.91 500.17 668.55 486.54 656.38 477.75 C 656.28 438.83 656.38 399.91 656.33 361.00 C 656.30 346.54 655.22 332.09 653.06 317.79 C 645.79 269.28 625.91 222.86 596.01 183.99 C 562.50 140.27 516.72 106.17 465.00 87.06 C 424.31 71.92 380.23 66.15 337.01 70.21 C 293.07 74.24 250.16 88.53 212.53 111.56 C 164.29 140.96 124.82 184.43 100.37 235.37 C 81.39 274.72 71.55 318.32 71.67 362.00 C 71.75 400.36 71.48 438.77 71.80 477.13 C 69.78 479.65 66.85 481.28 64.82 483.84 C 57.14 492.61 53.57 503.18 51.48 514.48 C 51.01 509.98 50.98 505.51 51.06 501.00 C 51.07 457.33 51.06 413.67 51.06 370.00 C 50.89 352.96 51.82 335.94 54.33 319.08 C 62.19 264.54 84.97 212.42 119.40 169.43 C 156.15 123.37 205.77 87.84 261.46 68.48 C 303.17 53.85 347.99 48.37 392.01 52.36 Z"
       id="p2" />
    <path
       d="M 86.16 472.54 C 95.44 472.37 104.73 472.51 114.01 472.48 C 120.35 472.48 126.40 474.79 131.39 478.64 C 145.35 489.48 151.13 508.92 150.77 526.00 C 150.75 573.67 150.78 621.36 150.75 669.02 C 150.69 682.90 146.53 697.74 137.42 708.45 C 131.47 715.42 123.40 720.36 114.01 720.36 C 105.00 720.35 95.99 720.40 86.99 720.33 C 77.49 720.10 69.35 714.68 63.55 707.47 C 55.01 696.83 51.10 682.49 51.03 669.00 C 50.99 653.22 51.08 637.44 50.99 621.67 C 51.07 589.11 50.99 556.55 51.02 524.00 C 51.04 520.82 51.25 517.65 51.48 514.48 C 53.57 503.18 57.14 492.61 64.82 483.84 C 66.85 481.28 69.78 479.65 71.80 477.13 C 76.53 474.99 80.82 472.70 86.16 472.54 Z"
       id="p3" />
    <path
       d="M 613.13 472.50 C 622.10 472.43 631.07 472.48 640.04 472.48 C 645.94 472.44 651.56 474.41 656.38 477.75 C 668.55 486.54 673.91 500.17 676.51 514.49 C 676.91 519.33 677.03 524.15 676.98 529.00 C 676.99 559.88 676.94 590.78 677.00 621.66 C 676.90 637.77 677.02 653.89 676.94 670.00 C 676.71 683.58 672.49 698.09 663.55 708.54 C 657.82 715.21 650.01 720.12 641.01 720.33 C 631.67 720.38 622.33 720.40 612.99 720.32 C 602.00 719.98 593.03 712.77 587.16 703.96 C 581.12 694.73 578.11 684.08 577.36 673.14 C 577.19 669.78 577.22 666.37 577.22 663.00 C 577.23 616.66 577.21 570.32 577.23 523.98 C 577.28 509.87 581.53 494.74 590.94 483.95 C 596.65 477.43 604.29 472.77 613.13 472.50 Z"
       id="p4" />
    <path
       d="M 577.36 673.14 C 578.11 684.08 581.12 694.73 587.16 703.96 C 577.37 711.16 567.04 717.64 556.26 723.26 C 523.19 740.58 487.01 749.51 449.89 752.19 C 450.19 746.47 449.96 740.73 450.05 735.00 C 450.11 730.70 449.91 726.46 448.67 722.31 C 464.75 721.06 480.67 718.49 496.25 714.31 C 525.83 706.38 553.65 692.60 577.36 673.14 Z"
       id="p5" />
    <path
       d="M 349.99 699.56 C 372.65 699.49 395.35 699.54 418.02 699.53 C 432.01 699.53 444.61 708.94 448.67 722.31 C 449.91 726.46 450.11 730.70 450.05 735.00 C 449.96 740.73 450.19 746.47 449.89 752.19 C 448.97 760.94 444.45 769.08 437.45 774.42 C 431.62 778.94 424.36 781.20 417.00 781.07 C 394.69 781.03 372.32 781.13 350.01 781.02 C 336.58 780.72 324.43 771.57 320.40 758.77 C 318.27 752.41 318.98 746.54 318.89 740.00 C 318.97 734.44 318.43 729.16 319.83 723.77 C 323.20 710.08 335.86 699.83 349.99 699.56 Z"
       id="p6" />
  </defs>
  <g
     stroke-width="10pt"
     id="g25">
    <use
       stroke="#e53935"
       xlink:href="#p1"
       id="use13" />
    <use
       stroke="#b71c1c"
       xlink:href="#p2"
       id="use15" />
    <use
       stroke="#263238"
       xlink:href="#p3"
       id="use17" />
    <use
       stroke="#263238"
       xlink:href="#p4"
       id="use19" />
    <use
       stroke="#e53935"
       xlink:href="#p5"
       id="use21" />
    <use
       stroke="#263238"
       xlink:href="#p6"
       id="use23" />
  </g>
  <g
     id="g41">
    <use
       fill="#e53935"
       xlink:href="#p1"
       id="use29" />
    <use
       fill="#b71c1c"
       xlink:href="#p2"
       id="use31" />
    <use
       fill="#263238"
       xlink:href="#p3"
       id="use33" />
    <use
       fill="#263238"
       xlink:href="#p4"
       id="use35" />
    <use
       fill="#e53935"
       xlink:href="#p5"
       id="use37" />
    <use
       fill="#263238"
       xlink:href="#p6"
       id="use39" />
  </g>
</svg>
