<?xml version="1.0" standalone="no"?>
<!DOCTYPE svg PUBLIC "-//W3C//DTD SVG 20010904//EN"
 "http://www.w3.org/TR/2001/REC-SVG-20010904/DTD/svg10.dtd">
<svg version="1.0" xmlns="http://www.w3.org/2000/svg"
 width="728.000000pt" height="782.000000pt" viewBox="0 0 728.000000 782.000000"
 preserveAspectRatio="xMidYMid meet">
<metadata>
Created by potrace 1.16, written by Peter Selinger 2001-2019
</metadata>
<g transform="translate(0.000000,782.000000) scale(0.100000,-0.100000)"
fill="#ffffff" stroke="none">
<path d="M3440 7804 c-546 -33 -1110 -198 -1575 -462 -925 -524 -1583 -1433
-1784 -2463 -67 -345 -65 -280 -69 -1834 -2 -1022 0 -1424 8 -1462 14 -66 57
-124 117 -160 41 -24 59 -28 123 -28 64 0 82 4 123 28 55 33 103 94 114 146 5
22 10 -80 14 -259 6 -322 11 -356 71 -477 36 -74 108 -152 169 -185 41 -21 57
-23 237 -26 234 -4 264 3 352 85 67 61 117 152 147 263 17 60 18 134 18 890 0
770 -1 829 -18 890 -42 147 -131 269 -230 315 -50 24 -61 25 -247 25 -173 0
-200 -3 -239 -20 -24 -11 -45 -20 -47 -20 -9 0 -3 1372 6 1455 41 360 136 685
296 1005 149 298 312 521 563 770 553 551 1274 850 2051 850 777 0 1498 -299
2051 -850 251 -249 414 -472 563 -770 160 -320 255 -645 296 -1005 9 -83 15
-1455 6 -1455 -2 0 -23 9 -47 20 -39 17 -66 20 -239 20 -186 0 -197 -1 -247
-25 -68 -31 -131 -96 -175 -182 -75 -142 -71 -96 -75 -996 l-4 -808 -75 -55
c-314 -232 -700 -377 -1126 -422 l-78 -8 -25 52 c-28 58 -82 111 -147 146 -43
23 -44 23 -473 23 -429 0 -430 0 -473 -23 -66 -35 -119 -88 -149 -150 -26 -53
-28 -67 -31 -205 -4 -171 7 -224 67 -303 26 -35 56 -59 105 -84 l69 -35 389
-3 c324 -2 399 0 442 12 110 32 190 112 222 223 9 29 21 53 27 53 49 1 324 43
422 65 287 63 599 193 826 343 l107 70 64 -62 c93 -92 119 -98 360 -94 180 3
196 5 237 26 61 33 133 111 169 185 60 121 65 155 71 477 4 179 9 281 14 259
11 -52 59 -113 114 -146 41 -24 59 -28 123 -28 64 0 82 4 123 28 60 36 103 94
117 160 8 38 10 440 8 1462 -4 1554 -2 1489 -69 1834 -201 1030 -859 1939
-1784 2463 -406 230 -891 387 -1365 442 -134 16 -486 27 -610 20z"/>
</g>
</svg>
