<?xml version="1.0" standalone="no"?>
<!DOCTYPE svg PUBLIC "-//W3C//DTD SVG 20010904//EN"
 "http://www.w3.org/TR/2001/REC-SVG-20010904/DTD/svg10.dtd">
<svg version="1.0" xmlns="http://www.w3.org/2000/svg"
 width="765.000000pt" height="1113.000000pt" viewBox="0 0 765.000000 1113.000000"
 preserveAspectRatio="xMidYMid meet">
<metadata>
Created by potrace 1.16, written by Peter Selinger 2001-2019
</metadata>
<g transform="translate(0.000000,1113.000000) scale(0.100000,-0.100000)"
fill="#000000" stroke="none">
<path d="M6021 11053 c129 -162 264 -380 374 -603 77 -157 99 -186 126 -166
10 7 28 26 40 42 l23 29 -32 -29 c-18 -16 -33 -28 -35 -25 -2 2 -20 42 -41 89
-87 195 -240 450 -388 648 -60 79 -73 92 -99 92 l-29 0 61 -77z"/>
<path d="M6130 11126 c0 -3 23 -35 51 -72 128 -169 250 -371 351 -580 58 -121
61 -124 79 -108 11 10 17 19 14 22 -3 3 4 11 15 19 11 8 25 24 31 36 10 18 6
17 -20 -7 -17 -16 -32 -28 -34 -25 -2 2 -32 60 -66 129 -78 155 -179 323 -285
471 -66 92 -86 115 -108 117 -16 2 -28 1 -28 -2z"/>
<path d="M6290 11125 c0 -2 29 -44 64 -92 81 -111 189 -289 268 -441 33 -64
62 -120 65 -124 7 -12 33 3 33 20 0 22 -127 263 -201 379 -113 180 -178 263
-205 263 -13 0 -24 -2 -24 -5z"/>
<path d="M6450 11125 c0 -3 29 -47 64 -98 73 -106 179 -284 231 -386 33 -67
58 -87 68 -58 9 26 -129 275 -255 460 -47 68 -65 87 -84 87 -13 0 -24 -2 -24
-5z"/>
<path d="M6648 11058 c54 -81 168 -271 202 -337 l21 -43 -26 -34 c-14 -19 -22
-34 -18 -34 4 0 17 13 28 29 10 16 22 28 26 25 4 -2 13 3 20 12 15 19 -16 87
-113 246 -121 195 -130 208 -161 208 l-28 0 49 -72z"/>
<path d="M6852 10560 c-189 -203 -346 -370 -350 -370 -4 0 -19 20 -33 44 -71
116 -311 148 -387 51 -33 -42 -30 -111 7 -162 57 -79 200 -123 306 -93 39 11
67 37 261 247 120 128 220 230 224 226 16 -17 60 -212 60 -262 0 -29 -8 -69
-17 -89 -27 -57 -112 -136 -181 -168 -68 -32 -77 -44 -34 -44 81 0 228 117
268 214 11 25 30 51 42 58 13 7 48 38 77 70 39 42 59 74 76 125 21 62 23 83
21 247 -2 165 0 182 19 214 21 36 19 62 -3 62 -8 0 -168 -166 -356 -370z m259
17 c18 -112 -7 -213 -71 -288 l-29 -34 -3 110 c-6 229 -2 262 44 335 l22 35
13 -45 c7 -25 18 -76 24 -113z"/>
<path d="M6142 10396 c-99 -33 -147 -99 -140 -195 15 -208 357 -322 509 -170
23 23 42 39 44 37 12 -11 109 -358 102 -364 -2 -2 -36 8 -76 23 l-72 26 -27
-20 c-15 -11 -49 -54 -77 -95 -36 -55 -56 -75 -70 -74 -29 2 -69 -84 -72 -152
-1 -29 -11 -81 -22 -115 -26 -82 -35 -141 -23 -164 7 -14 -5 -45 -55 -139 -54
-103 -67 -121 -83 -117 -15 4 -20 14 -20 40 0 69 -45 123 -104 123 -86 0 -157
-78 -164 -181 -5 -70 9 -112 48 -139 48 -34 106 -25 161 27 15 14 29 20 33 15
4 -7 -111 -247 -130 -270 -1 -2 -12 -1 -23 3 -15 4 -21 15 -21 36 0 66 -52
128 -108 129 -87 0 -165 -92 -165 -197 0 -87 28 -130 96 -147 29 -7 92 19 116
48 28 34 39 19 34 -44 -5 -51 -3 -60 11 -60 9 0 16 -2 16 -3 0 -3 -209 -520
-294 -729 -28 -67 -44 -89 -133 -180 -114 -115 -300 -287 -411 -380 -47 -39
-85 -81 -104 -115 -16 -29 -48 -70 -69 -90 l-39 -37 36 -33 c42 -38 58 -44 26
-10 l-22 24 49 64 c26 36 59 70 72 76 22 10 20 1 -29 -93 -44 -86 -51 -107
-42 -124 6 -11 15 -18 20 -15 5 3 39 64 76 135 71 139 83 155 128 166 26 6 28
5 21 -12 -38 -89 -82 -216 -103 -300 -23 -87 -24 -104 -13 -118 8 -9 18 -13
22 -9 4 4 24 62 43 129 34 118 109 321 125 337 4 4 29 15 56 22 44 14 47 13
40 -3 -3 -9 -16 -55 -28 -102 -11 -47 -24 -87 -28 -90 -4 -3 -37 -79 -75 -170
-37 -91 -69 -167 -71 -169 -2 -3 -15 6 -30 20 l-27 24 28 -35 c36 -45 116
-130 121 -130 2 0 6 30 8 68 3 64 3 64 5 -19 1 -58 6 -90 15 -98 22 -17 27 -3
27 73 1 66 2 70 16 51 16 -20 16 -20 10 1 -6 20 51 179 559 1562 75 203 111
290 118 283 14 -14 21 9 -218 -641 -108 -294 -259 -706 -336 -914 -78 -213
-139 -394 -139 -413 0 -28 10 -46 53 -91 75 -80 107 -121 107 -137 0 -7 -12
-27 -26 -44 -29 -34 -72 -41 -98 -16 -21 21 -26 19 -27 -12 -1 -21 -3 -18 -8
12 -4 26 -11 40 -21 40 -12 0 -15 -15 -12 -85 1 -48 -2 -79 -6 -72 -8 11 -141
-344 -179 -478 l-13 -45 3 42 c1 23 -1 39 -5 37 -5 -3 -8 10 -8 28 l1 33 15
-25 c12 -21 14 -21 9 -4 -3 13 27 114 80 262 47 132 85 254 85 271 l0 31 -74
0 c-40 0 -88 3 -105 6 -26 5 -31 3 -31 -12 0 -16 2 -17 11 -4 8 11 9 9 3 -10
-4 -14 -10 -83 -14 -155 l-6 -130 -2 161 c-2 128 -5 163 -16 167 -8 3 -17 3
-20 0 -3 -4 -7 -79 -7 -167 -1 -89 -4 -146 -8 -127 -5 29 -18 2 -106 -233 -55
-146 -103 -266 -107 -266 -5 0 -7 26 -7 58 2 52 2 54 8 17 6 -37 13 -21 109
233 l102 272 0 105 c0 76 -4 107 -12 109 -68 20 -119 46 -152 78 -22 21 -43
35 -48 30 -4 -4 -14 -46 -21 -93 -9 -62 -13 -76 -17 -54 l-5 30 -78 0 c-42 0
-77 2 -77 5 0 3 19 60 42 128 30 89 38 126 30 134 -6 6 -17 8 -25 5 -13 -5
-97 -237 -97 -269 0 -10 -8 -13 -28 -10 -15 2 -51 -1 -79 -6 -45 -8 -51 -7
-46 7 16 44 104 225 142 289 36 62 40 75 30 94 l-12 22 -22 -28 c-31 -39 -147
-266 -185 -361 -31 -77 -50 -114 -36 -67 7 22 6 22 -89 -13 -349 -126 -587
-408 -650 -770 -17 -98 -19 -248 -5 -344 l9 -64 -50 -60 c-27 -32 -49 -64 -49
-71 0 -18 27 -40 88 -70 62 -32 127 -88 149 -129 17 -34 19 -142 3 -245 -31
-194 -96 -337 -237 -513 -114 -142 -148 -164 -248 -163 -39 0 -93 8 -124 18
l-53 18 -24 -28 c-29 -36 -29 -39 -4 -79 l20 -32 -63 -31 c-34 -17 -89 -55
-122 -85 -56 -49 -65 -54 -133 -64 -95 -15 -202 -66 -273 -131 -50 -46 -62
-52 -100 -52 -101 -1 -214 -47 -317 -131 -54 -43 -66 -49 -109 -49 -93 -1
-194 -37 -283 -101 -38 -28 -41 -32 -27 -46 14 -14 18 -14 44 4 68 49 209 102
270 103 7 0 -5 -24 -27 -53 -22 -28 -52 -76 -67 -104 -16 -29 -32 -53 -36 -53
-4 0 -25 9 -47 20 -21 11 -41 16 -45 11 -6 -11 85 -89 129 -111 16 -8 76 -60
134 -114 91 -87 103 -103 98 -125 -23 -103 -68 -396 -83 -541 -13 -133 -17
-262 -17 -535 0 -390 14 -613 40 -653 28 -43 34 -12 24 118 -30 361 -23 890
15 1225 15 125 52 356 59 363 2 2 20 -17 41 -42 l37 -45 -16 -78 c-26 -132
-30 -238 -12 -341 32 -187 95 -317 225 -468 l78 -91 7 -79 c28 -312 96 -744
157 -989 39 -158 38 -155 61 -155 16 0 19 5 15 22 -3 13 -21 91 -41 173 -54
228 -104 555 -141 923 l-6 63 86 -64 c102 -76 211 -142 352 -213 86 -44 112
-63 170 -127 195 -213 416 -368 613 -428 109 -33 235 -32 310 2 83 39 150 98
200 177 31 49 51 71 65 71 l20 0 -20 -9 c-11 -4 -28 -22 -38 -39 l-18 -31 109
0 c339 0 592 121 793 380 32 41 85 109 118 150 34 41 61 78 61 82 0 5 -8 9
-17 9 -10 1 19 5 64 10 102 10 173 42 242 111 29 29 65 80 84 118 l32 66 43
-4 c52 -6 155 14 202 38 48 25 121 90 114 101 -3 5 -12 9 -21 9 -9 0 -53 35
-97 78 -45 42 -100 94 -123 115 -24 20 -43 41 -43 45 0 14 -36 43 -43 35 -4
-3 -7 -31 -7 -60 0 -67 -16 -179 -37 -254 l-15 -56 -41 8 c-23 5 -70 19 -104
31 l-61 21 6 36 c10 50 9 413 -1 486 l-8 60 133 -130 c91 -89 77 -73 -44 50
-97 99 -183 194 -191 210 -23 48 -28 98 -16 156 29 142 143 238 246 209 59
-16 83 -43 98 -107 16 -63 20 -183 7 -183 -4 0 -13 -15 -20 -32 -6 -18 -26
-48 -43 -67 l-31 -35 61 -59 c33 -32 61 -62 61 -66 0 -5 9 -16 20 -26 19 -17
20 -17 27 1 25 66 -84 850 -125 897 -32 36 -32 -3 -2 -168 16 -92 30 -172 30
-177 0 -5 -17 0 -37 11 -21 11 -46 22 -55 25 -13 4 -18 16 -18 43 0 38 -1 39
-64 66 -78 34 -132 86 -147 141 -19 68 -5 346 20 434 23 77 86 212 99 212 5 0
19 -46 32 -102 26 -115 33 -129 55 -108 12 13 10 32 -20 150 -19 74 -30 136
-25 138 5 2 19 19 31 38 40 66 139 91 244 63 22 -6 49 -11 61 -11 18 0 27 -24
77 -207 70 -254 126 -489 162 -686 19 -103 33 -156 46 -169 17 -19 19 -19 25
-2 15 40 -129 673 -231 1013 -43 145 -54 192 -35 148 7 -16 9 -11 9 22 1 38 7
47 57 95 78 73 166 194 209 284 72 151 108 359 86 499 -12 75 -75 295 -118
410 -82 222 -264 435 -503 593 -47 31 -87 57 -89 59 -3 2 3 19 12 39 23 46 37
113 26 119 -4 3 -13 -13 -20 -35 -7 -22 -14 -38 -17 -36 -2 3 92 308 209 679
l213 675 51 30 c86 52 212 160 283 242 159 183 219 255 252 300 19 26 63 83
97 126 136 173 292 391 385 540 87 140 151 320 191 539 30 165 32 596 3 780
-21 141 -89 420 -107 441 -11 13 -18 10 -51 -25 -21 -23 -38 -49 -37 -59 0
-10 6 -5 14 14 28 64 41 51 73 -74 67 -255 92 -439 92 -687 0 -251 -27 -430
-95 -635 -33 -99 -66 -171 -50 -110 56 219 78 403 78 650 0 267 -34 519 -99
749 -20 68 -27 77 -44 56 -12 -14 -10 -29 8 -100 124 -471 130 -931 18 -1320
-26 -87 -100 -281 -117 -305 -9 -12 -9 -11 -3 5 22 60 74 263 88 345 28 168
36 271 36 470 0 265 -20 436 -77 682 -26 115 -42 142 -65 111 -17 -25 -83 -65
-91 -56 -4 3 -16 -2 -27 -12 -14 -13 -29 -16 -55 -12 -19 3 -35 2 -35 -4 0 -5
19 -9 43 -9 l43 0 27 -114 c62 -262 95 -609 79 -831 -5 -66 -10 -96 -11 -67
-1 47 -4 55 -29 69 l-29 16 -10 191 c-6 105 -9 207 -6 226 3 27 2 31 -6 20 -8
-12 -11 -6 -13 25 -4 73 -5 90 -11 105 -3 8 -15 67 -27 130 -22 108 -80 321
-114 419 -16 43 -16 43 15 82 17 22 27 39 22 39 -4 0 -19 -16 -33 -34 -14 -19
-29 -33 -33 -33 -5 1 -14 -7 -20 -18 -30 -51 -94 -103 -147 -119 -64 -19 -91
-20 -162 -5 -312 66 -316 419 -5 419 46 0 143 -25 165 -42 7 -6 15 -8 19 -5 3
4 -15 16 -42 28 -61 27 -183 35 -243 15z m753 -528 c61 -267 85 -462 85 -701
0 -328 -43 -566 -151 -844 -55 -141 -74 -148 -33 -13 40 131 67 260 90 430 24
172 24 536 0 715 -15 109 -62 356 -81 430 -4 14 2 25 22 37 15 9 33 17 40 17
6 1 19 -31 28 -71z m-155 -783 c0 -127 -1 -134 -21 -140 -12 -4 -38 -22 -58
-41 -36 -31 -39 -33 -75 -22 -23 7 -35 16 -32 24 3 7 21 65 41 129 20 63 40
115 45 115 5 0 19 17 31 38 18 31 27 38 46 34 23 -4 23 -6 23 -137z m-191
-336 c27 -10 31 -16 31 -47 0 -68 54 -141 108 -145 21 -1 22 -5 16 -47 -8 -55
-14 -64 -14 -22 0 26 -5 32 -35 42 -49 16 -86 5 -138 -41 -40 -34 -48 -38 -71
-29 -14 5 -26 12 -26 16 0 5 72 237 85 272 5 15 4 15 44 1z m261 -221 c-22
-100 -81 -294 -114 -370 -9 -21 -25 -42 -35 -48 -19 -10 -19 -9 -4 37 9 27 26
62 38 78 33 44 47 99 42 158 -5 62 13 187 27 187 16 0 56 42 56 58 0 9 3 13 6
9 3 -3 -4 -52 -16 -109z m-380 -244 c0 -87 59 -148 135 -142 25 2 45 3 45 2 0
0 -7 -21 -15 -45 -15 -42 -22 -49 -98 -89 -102 -55 -321 -141 -325 -129 -2 5
6 39 19 76 16 49 35 81 69 118 41 43 53 65 81 156 l34 106 28 -9 c22 -8 27
-16 27 -44z m-801 -714 c-288 -757 -311 -816 -305 -780 4 24 212 576 485 1285
32 83 61 159 65 169 3 10 8 17 11 15 2 -3 -113 -313 -256 -689z m377 508 c-82
-233 -348 -984 -428 -1208 -43 -124 -92 -261 -108 -305 -16 -44 -53 -149 -83
-233 -42 -120 -56 -150 -65 -140 -9 11 15 88 104 339 146 412 266 751 444
1253 78 220 143 404 146 408 3 4 12 8 19 8 11 0 4 -31 -29 -122z m108 94 c2
-4 -5 -32 -17 -62 -12 -30 -30 -80 -39 -110 -10 -30 -24 -75 -32 -100 -7 -25
-19 -44 -25 -42 -7 1 -10 -2 -7 -7 3 -5 2 -22 -3 -37 -5 -16 -14 -48 -20 -72
-8 -27 -16 -40 -23 -36 -7 4 -8 3 -4 -4 11 -18 -25 -133 -214 -682 -67 -195
-166 -484 -219 -643 -81 -236 -100 -285 -111 -273 -10 13 9 76 100 343 62 180
141 411 175 513 149 435 369 1081 392 1148 23 67 35 83 47 64z m415 -233 c-18
-31 -44 -54 -104 -90 -81 -49 -237 -122 -287 -134 l-27 -7 18 53 18 54 124 47
c68 26 157 64 199 85 41 21 77 37 79 36 2 -1 -7 -21 -20 -44z m-71 -144 c-20
-45 -206 -169 -342 -229 -40 -18 -56 -22 -53 -12 3 8 11 32 18 54 11 39 14 41
118 81 58 23 142 62 186 86 44 24 81 45 82 45 2 0 -3 -11 -9 -25z m-139 -195
c-79 -71 -299 -215 -299 -195 0 4 5 24 11 45 10 34 18 40 98 74 47 20 118 56
156 80 39 24 72 42 74 40 2 -2 -16 -22 -40 -44z m-1091 -2049 c-22 -64 -64
-187 -93 -274 -50 -151 -53 -155 -59 -116 -4 22 -4 44 -1 50 15 24 175 504
176 527 1 15 5 5 10 -22 7 -44 3 -63 -33 -165z m-251 -38 c-3 -21 -46 -148
-97 -283 -50 -135 -95 -263 -99 -285 l-7 -40 -8 53 c-4 30 -3 59 2 65 5 7 51
128 103 270 89 244 117 303 106 220z m33 -220 c0 -10 2 -36 5 -58 3 -31 3 -33
-3 -10 -6 25 -20 -8 -100 -232 -50 -145 -92 -277 -93 -295 l-1 -33 -8 35 c-11
47 -21 131 -12 101 6 -19 28 33 101 242 86 243 111 299 111 250z m40 -222 c0
-5 3 -24 6 -42 3 -21 2 -29 -3 -22 -6 9 -17 -11 -32 -60 -13 -39 -55 -164 -94
-277 -68 -195 -71 -203 -79 -167 -5 26 -4 45 6 60 7 12 51 133 96 270 46 136
87 247 92 247 4 0 8 -4 8 -9z m-324 -266 c-8 -16 -55 -142 -106 -280 -50 -137
-95 -254 -99 -258 -5 -5 -11 15 -15 44 -4 28 -5 54 -1 57 3 3 5 -6 5 -19 0
-13 5 -31 11 -39 8 -12 9 -11 4 6 -5 18 84 276 180 527 8 20 16 50 16 65 1 16
5 7 10 -23 6 -37 5 -58 -5 -80z m-7 -360 c-34 -94 -62 -174 -64 -180 -1 -5 -5
-17 -8 -25 -28 -66 -77 -216 -78 -238 -1 -19 -4 -13 -10 18 -9 46 4 105 22 94
5 -3 6 1 3 9 -2 7 34 123 82 258 48 134 89 260 92 279 l6 35 8 -40 c7 -36 1
-61 -53 -210z m70 -179 c-25 -71 -45 -113 -52 -109 -6 4 -7 1 -3 -6 9 -15 -74
-262 -86 -255 -4 3 -5 -1 -3 -8 3 -7 -3 -38 -14 -68 -14 -41 -21 -50 -26 -38
-9 23 83 300 97 292 7 -5 8 -2 3 6 -7 11 13 87 40 155 7 17 26 70 41 118 26
82 29 86 36 59 6 -24 -1 -57 -33 -146z m-300 -120 c1 -15 -1 -16 -14 -6 -13
11 -14 10 -10 -2 3 -8 -40 -138 -95 -289 -56 -151 -108 -296 -116 -324 l-14
-50 3 42 c1 23 -1 39 -5 37 -5 -3 -8 4 -8 15 0 10 4 21 9 23 8 3 98 240 199
526 37 103 46 108 51 28z m50 -276 c-1 -8 -5 -4 -9 10 -4 14 -8 19 -9 12 -1
-7 -5 -10 -11 -7 -5 3 -7 0 -4 -8 4 -11 -74 -240 -219 -647 -3 -9 -6 -4 -6 11
-1 15 -4 42 -7 60 -4 26 -3 30 5 19 8 -11 11 -12 11 -2 0 7 4 11 9 8 5 -4 7 4
3 16 -3 13 -1 19 5 15 7 -5 9 1 5 15 -4 16 -2 19 8 13 9 -6 11 -4 6 4 -10 15
73 253 85 245 5 -3 6 1 3 9 -2 7 18 78 46 157 27 79 50 157 51 174 1 23 5 15
15 -29 7 -33 13 -67 13 -75z m-424 -2 c13 -15 26 -24 29 -21 12 13 5 -45 -9
-74 -32 -64 -89 -89 -124 -54 -29 29 -11 78 35 97 19 8 34 18 34 22 0 18 -26
32 -58 32 -27 0 -43 -10 -87 -53 -63 -64 -93 -114 -205 -352 -90 -188 -143
-271 -213 -328 -62 -51 -103 -68 -161 -70 -69 -1 -91 8 -116 47 -46 75 -9 160
67 154 69 -6 77 -90 11 -124 -37 -19 -31 -39 12 -37 54 2 103 60 174 208 35
72 91 186 124 255 117 241 230 333 396 327 60 -2 71 -6 91 -29z m49 -153 c3
-33 2 -52 -2 -42 -5 13 -48 -90 -149 -355 -147 -389 -150 -399 -279 -955 -16
-68 -32 -123 -35 -123 -4 0 -3 17 2 38 123 521 172 719 184 745 52 114 265
697 265 726 0 51 7 34 14 -34z m422 -100 c-2 -5 -5 1 -6 15 -1 18 -7 10 -23
-33 -13 -32 -25 -55 -29 -52 -4 4 -4 -3 -1 -16 4 -15 3 -20 -5 -15 -7 4 -10 2
-7 -6 5 -13 -165 -533 -185 -567 -7 -12 -9 -9 -10 14 0 39 100 336 111 329 5
-3 6 1 4 9 -3 7 24 100 60 207 36 106 65 207 66 224 1 21 6 10 15 -34 8 -35
12 -69 10 -75z m253 1 c38 -20 100 -91 121 -140 26 -58 35 -175 20 -270 -6
-43 -34 -163 -62 -265 -34 -125 -52 -214 -55 -271 -5 -82 -4 -87 22 -118 15
-17 31 -32 36 -32 5 0 6 24 3 55 -8 63 10 95 53 95 29 0 73 -42 73 -70 0 -29
-26 -76 -52 -94 -44 -31 -127 -14 -165 34 -11 13 -13 13 -14 0 -1 -8 -11 59
-24 150 -28 208 -36 270 -28 245 3 -11 26 62 56 180 45 178 50 212 51 312 1
103 -1 113 -22 136 -29 31 -61 41 -69 21 -3 -9 -1 -20 6 -27 6 -6 11 -24 11
-40 0 -65 -42 -87 -87 -45 -53 50 -10 158 63 158 19 0 47 -6 63 -14z m-629
-183 c0 -10 -44 -142 -99 -293 -55 -151 -119 -343 -142 -427 -24 -83 -46 -150
-51 -147 -4 3 -5 -2 -2 -10 3 -8 -15 -91 -41 -183 -26 -92 -48 -179 -49 -193
-4 -32 -46 -43 -46 -11 0 11 4 22 9 25 5 3 17 35 26 71 10 35 22 62 26 59 5
-3 6 2 3 10 -7 18 127 497 136 491 4 -3 5 6 3 18 -6 30 86 279 100 270 6 -4 7
-1 3 6 -9 15 93 303 104 296 5 -3 6 4 3 15 -3 11 0 20 6 20 6 0 11 -8 11 -17z
m-1194 -69 c-3 -9 -6 -27 -6 -41 0 -16 -15 -40 -42 -67 l-43 -43 -64 16 -65
17 46 37 c42 34 152 97 172 97 4 0 5 -7 2 -16z m-341 -206 c-15 -24 -40 -71
-56 -105 l-30 -61 -57 23 c-31 13 -75 27 -97 31 l-39 7 39 34 c63 55 182 109
248 112 16 1 15 -4 -8 -41z m196 26 c6 -3 -15 -28 -48 -57 -32 -29 -86 -78
-121 -111 -34 -33 -65 -56 -69 -53 -8 9 60 145 100 200 28 39 30 39 78 34 27
-3 54 -9 60 -13z m1382 -69 c3 -33 3 -47 -1 -31 -6 25 -14 9 -59 -120 -28 -82
-71 -208 -94 -281 -24 -72 -47 -130 -51 -127 -4 3 -5 -1 -2 -9 2 -8 -24 -108
-60 -223 -53 -172 -68 -209 -83 -209 -11 0 -18 7 -18 20 0 14 6 19 19 17 13
-3 17 1 13 12 -7 18 26 120 35 111 4 -4 4 3 1 16 -5 17 -3 20 7 14 9 -6 11 -4
5 4 -9 16 14 103 26 95 5 -3 6 1 3 9 -9 24 182 611 196 602 5 -3 6 5 2 17 -4
16 -2 19 8 13 9 -5 11 -4 6 4 -9 14 29 140 39 129 1 -2 5 -30 8 -63z m-1959
-107 c-5 -7 -28 -43 -52 -81 -24 -37 -48 -81 -53 -97 l-11 -29 -36 18 c-21 10
-63 27 -95 37 l-57 18 21 22 c33 35 153 94 222 109 34 7 63 14 65 14 2 1 0 -5
-4 -11z m192 -22 c36 -13 70 -28 75 -33 19 -19 -20 -87 -105 -183 l-89 -99
-41 30 c-23 17 -56 41 -73 52 -18 12 -33 27 -33 34 0 14 57 115 100 177 26 39
36 46 65 46 19 0 64 -11 101 -24z m1807 -171 c3 -38 3 -58 -1 -43 -6 23 -15 4
-61 -122 -29 -82 -58 -147 -62 -144 -5 3 -6 -1 -4 -8 3 -8 -11 -59 -31 -113
-20 -55 -51 -147 -69 -205 -22 -71 -38 -106 -49 -108 -19 -4 -31 21 -21 46 5
11 9 13 12 5 3 -7 9 -13 15 -13 6 0 7 7 4 16 -8 21 54 195 67 187 6 -3 7 -1 3
6 -11 16 33 143 46 135 7 -4 8 -2 4 5 -11 16 64 222 77 214 6 -3 7 -1 3 6 -6
10 53 216 60 208 1 -1 4 -33 7 -72z m-2190 -24 c26 -11 47 -26 47 -33 0 -7
-15 -53 -34 -103 -18 -49 -44 -129 -57 -176 l-24 -86 -93 84 c-52 45 -107 91
-123 100 -16 10 -29 22 -28 28 0 15 78 138 119 189 l35 43 55 -13 c30 -7 77
-22 103 -33z m169 -103 c37 -29 68 -53 68 -55 0 -1 -21 -34 -46 -74 -47 -72
-111 -203 -133 -272 l-13 -37 -39 49 c-21 27 -39 56 -39 64 0 41 113 377 127
377 4 0 37 -23 75 -52z m3574 -958 c6 0 43 -33 82 -74 l70 -74 -21 -20 c-47
-43 -109 -65 -193 -70 l-82 -4 18 76 c10 42 21 102 25 134 3 31 8 68 11 81 5
24 5 24 42 -13 21 -20 43 -36 48 -36z m-236 -270 c31 0 33 -18 4 -70 -40 -73
-85 -122 -140 -152 -50 -27 -168 -54 -201 -45 -10 3 -2 5 18 6 34 1 37 4 73
77 20 42 47 111 59 153 l22 77 73 -23 c40 -13 81 -23 92 -23z m-2429 -706 c24
-40 52 -56 166 -95 86 -30 135 -36 175 -20 17 6 54 0 138 -24 132 -38 292 -71
399 -83 l74 -9 28 46 c16 25 29 40 29 34 0 -21 -94 -137 -138 -170 -54 -41
-127 -63 -210 -63 -184 0 -422 126 -646 342 -84 81 -96 96 -69 87 19 -6 41
-25 54 -45z"/>
<path d="M7554 9836 c6 -68 5 -74 -14 -79 -16 -4 -20 -13 -20 -50 0 -44 1 -46
28 -44 25 2 27 -1 30 -40 3 -34 0 -42 -17 -48 -16 -5 -21 -15 -21 -38 0 -43
13 -61 38 -53 19 6 21 1 27 -59 6 -53 11 -65 25 -65 16 0 17 12 17 119 0 92
-3 121 -13 125 -20 8 -19 85 1 92 10 4 15 20 15 50 0 42 -1 44 -24 38 -22 -5
-24 -3 -31 60 -6 58 -9 66 -27 66 -20 0 -20 -4 -14 -74z"/>
<path d="M7335 8626 c-23 -10 -80 -68 -111 -114 -1 -2 -21 6 -44 18 -35 18
-44 19 -51 8 -16 -24 -9 -37 25 -55 l34 -18 -37 -43 -38 -43 -38 22 c-37 22
-38 22 -51 4 -20 -26 -18 -29 22 -49 33 -15 35 -18 22 -34 -180 -212 -419
-516 -414 -528 3 -9 12 -14 20 -12 8 2 109 120 226 263 116 143 216 261 220
263 5 2 92 -42 194 -97 101 -56 189 -101 194 -101 10 0 28 39 20 44 -1 2 -85
47 -185 102 -101 54 -183 101 -183 104 0 3 15 23 34 44 l33 40 187 -102 c103
-56 192 -102 196 -102 5 0 14 9 20 20 9 17 3 23 -61 59 l-71 39 33 7 c85 18
128 70 115 138 -8 44 -77 108 -134 125 -51 16 -139 15 -177 -2z"/>
<path d="M4715 7202 c-98 -47 -176 -177 -177 -297 0 -78 20 -126 83 -192 l51
-53 -39 -48 c-66 -81 -64 -77 -49 -97 12 -16 18 -12 71 54 48 60 55 74 45 86
-7 9 -15 13 -17 11 -3 -3 -29 22 -58 54 -63 71 -80 122 -73 215 17 207 218
343 343 234 47 -42 68 -103 63 -184 -2 -39 0 -61 5 -56 19 19 11 137 -12 184
-45 92 -148 131 -236 89z"/>
<path d="M4730 7142 c-46 -25 -106 -104 -119 -158 -24 -95 -9 -168 47 -224 46
-47 347 -381 350 -389 4 -13 -203 -44 -258 -39 -35 4 -65 15 -93 35 -51 36
-114 124 -130 181 -15 55 -42 59 -34 5 16 -95 124 -242 191 -259 12 -3 31 -21
41 -40 10 -20 45 -60 77 -90 79 -72 144 -92 339 -102 129 -7 149 -10 178 -31
28 -20 35 -22 47 -9 12 12 -30 62 -307 367 l-320 354 48 28 c76 44 122 128
123 227 0 59 -17 108 -48 135 -31 28 -90 32 -132 9z m236 -891 c81 -1 159 -21
198 -52 45 -35 20 -44 -122 -44 -118 0 -130 2 -177 27 -27 14 -62 39 -77 55
l-28 29 68 -7 c37 -5 99 -8 138 -8z"/>
<path d="M2624 4098 c-109 -189 -220 -380 -247 -426 l-49 -83 -20 27 c-57 72
-227 99 -319 51 -49 -26 -89 -77 -89 -114 0 -60 61 -124 142 -148 126 -37 241
2 294 100 6 11 126 219 267 462 142 243 257 446 257 451 0 8 -22 22 -34 22 -2
0 -92 -154 -202 -342z"/>
<path d="M5643 3370 c-70 -42 -112 -152 -92 -241 9 -40 36 -70 314 -349 l305
-305 -186 -265 c-102 -146 -188 -267 -190 -269 -3 -3 -69 60 -149 139 l-144
143 37 19 c74 36 125 162 102 248 -17 62 -49 90 -104 90 -88 0 -156 -91 -155
-210 0 -36 5 -75 13 -88 14 -26 633 -652 644 -652 9 0 426 578 430 596 2 7
-175 189 -392 405 -218 215 -396 395 -396 398 0 3 14 12 31 20 60 27 117 156
102 233 -8 46 -30 86 -52 98 -31 16 -83 12 -118 -10z m671 -1039 c17 -19 11
-29 -169 -285 -103 -146 -190 -266 -194 -266 -12 0 -43 38 -40 48 7 18 374
522 380 522 3 0 14 -9 23 -19z"/>
<path d="M1123 3058 c-28 -31 -455 -698 -461 -720 -9 -36 9 -66 70 -118 l63
-53 -62 64 c-39 40 -63 73 -63 87 0 23 439 717 468 740 34 26 63 14 141 -61
129 -124 261 -240 267 -235 2 3 -15 21 -38 41 -24 19 -101 89 -173 156 -142
132 -170 145 -212 99z"/>
<path d="M947 2679 c-120 -188 -221 -347 -223 -354 -3 -7 203 -198 470 -436
417 -373 472 -425 453 -432 -68 -25 -118 -112 -125 -214 -4 -65 -2 -76 22
-118 43 -73 94 -83 170 -35 37 24 53 43 73 87 30 66 36 158 14 210 -9 22 -161
165 -467 439 -286 255 -452 410 -447 417 4 7 93 150 198 318 l190 306 242
-216 c213 -191 239 -217 220 -224 -116 -43 -167 -258 -86 -361 39 -49 129 -43
182 12 63 66 91 201 58 280 -9 21 -118 126 -325 311 -171 153 -327 295 -345
315 -19 20 -40 36 -45 36 -6 0 -109 -154 -229 -341z"/>
<path d="M1428 2622 c-66 -70 -159 -245 -239 -447 -35 -89 -44 -123 -36 -133
16 -20 29 0 66 103 44 120 139 305 202 394 l51 73 41 -38 c23 -22 63 -58 88
-82 l47 -44 -38 -54 c-48 -69 -66 -141 -60 -239 2 -24 6 -6 10 45 8 94 37 174
76 211 13 12 24 28 24 34 0 7 -28 36 -62 66 -34 30 -81 73 -104 96 l-41 43
-25 -28z"/>
<path d="M6170 2613 c0 -6 77 -85 171 -175 94 -90 174 -172 179 -183 4 -11 4
-30 -1 -42 -7 -18 -327 -468 -432 -608 -27 -35 -27 -37 -4 -15 34 33 443 601
451 628 10 31 -14 70 -85 135 -35 32 -112 106 -171 165 -59 59 -108 102 -108
95z"/>
<path d="M796 2148 c-44 -68 -170 -396 -224 -584 -54 -189 -116 -460 -109
-478 3 -8 18 -14 34 -14 69 2 246 -105 341 -206 29 -31 55 -56 58 -56 16 0
-78 97 -139 144 -68 51 -206 126 -234 126 -19 0 -16 26 22 198 71 319 151 569
245 769 39 83 46 104 35 113 -11 9 -17 6 -29 -12z"/>
<path d="M915 2057 c44 -39 102 -92 128 -117 l48 -45 -35 -140 c-65 -260 -105
-493 -136 -790 -17 -162 -17 -182 -3 -204 8 -13 19 -19 24 -14 4 4 13 62 19
128 15 171 46 406 76 575 23 133 82 400 90 409 4 4 36 -23 204 -174 68 -60
121 -105 119 -99 -2 6 -53 55 -114 109 -60 54 -138 125 -172 158 -35 33 -63
56 -63 52 0 -4 -8 2 -17 12 -10 11 -63 60 -118 109 -55 49 -101 92 -103 97 -2
4 -9 7 -15 7 -7 0 24 -33 68 -73z"/>
<path d="M1566 2101 c-7 -11 -50 -195 -66 -284 -10 -54 -10 -70 0 -83 7 -8 17
-11 21 -7 8 8 56 246 66 329 5 39 -8 66 -21 45z"/>
<path d="M1465 1569 c-18 -28 -55 -519 -55 -728 0 -119 7 -144 34 -122 9 8 15
73 20 248 9 292 17 394 33 413 7 8 26 31 43 51 36 44 37 49 7 77 -34 32 -45
27 -15 -5 l26 -28 -34 -45 -35 -44 7 90 c6 78 4 92 -9 97 -9 3 -19 2 -22 -4z"/>
<path d="M116 1055 c-21 -7 -43 -20 -47 -27 -32 -49 24 -173 121 -269 103
-102 270 -192 407 -219 93 -18 152 -40 163 -60 6 -11 24 -58 41 -106 38 -109
97 -237 144 -315 l36 -59 125 0 124 0 -40 53 c-58 76 -95 150 -135 271 -20 60
-35 109 -33 111 5 3 181 -36 198 -44 9 -5 20 -35 27 -74 23 -125 80 -209 175
-256 51 -26 72 -31 132 -31 39 1 87 7 106 14 57 20 130 74 130 96 0 29 -31 25
-93 -10 -31 -17 -68 -30 -88 -30 -62 0 -132 57 -164 134 -16 38 -20 106 -7
106 5 0 105 -22 223 -50 118 -27 221 -50 230 -50 8 0 23 -6 34 -13 17 -13 17
-16 0 -70 -10 -31 -32 -79 -51 -107 l-33 -50 43 0 c42 0 43 1 70 56 15 30 33
78 39 105 12 49 12 49 47 43 253 -43 359 -84 413 -160 26 -37 36 -44 64 -44
l33 0 -15 37 c-45 106 -133 158 -350 203 -77 16 -148 32 -156 35 -11 4 -20 30
-29 82 -25 155 -114 272 -247 323 -81 32 -205 32 -285 1 -76 -29 -159 -106
-193 -177 -20 -42 -30 -54 -43 -50 -9 3 -62 15 -116 26 -55 12 -103 23 -107
26 -4 2 -27 46 -52 96 -79 161 -181 277 -317 358 -81 48 -162 75 -282 95 -114
18 -191 18 -242 0z m330 -85 c56 -27 143 -112 188 -183 35 -55 101 -205 94
-213 -8 -7 -125 29 -177 56 -110 55 -198 135 -240 217 -28 55 -27 88 4 118 30
31 73 32 131 5z m1354 -445 c68 -35 127 -117 145 -202 l6 -31 -78 17 c-43 10
-154 35 -248 56 -93 21 -172 40 -174 41 -8 7 71 94 104 114 64 40 173 42 245
5z"/>
<path d="M1605 490 c-27 -12 -71 -48 -65 -53 3 -2 70 -18 150 -36 80 -18 155
-35 168 -38 12 -3 22 -1 22 5 0 19 -85 105 -117 118 -36 16 -127 18 -158 4z
m164 -20 c36 -18 91 -72 91 -89 0 -7 -59 5 -235 48 l-70 18 35 21 c46 29 126
29 179 2z"/>
<path d="M381 548 c-11 -25 -27 -210 -38 -415 -6 -130 -6 -133 15 -133 23 0
27 17 36 175 3 50 11 151 17 226 l12 135 34 -17 c18 -9 66 -24 106 -33 157
-36 137 -19 191 -163 50 -131 114 -269 122 -261 2 3 -18 52 -45 109 -27 57
-63 144 -81 194 -17 49 -32 91 -34 92 -1 2 -56 16 -121 33 -65 17 -138 42
-162 55 l-43 26 -9 -23z"/>
<path d="M1491 250 c15 -40 83 -100 115 -100 20 0 81 26 133 57 12 8 -19 18
-126 44 -65 15 -121 28 -125 29 -4 0 -2 -13 3 -30z"/>
</g>
</svg>
