<?xml version="1.0" standalone="no"?>
<!DOCTYPE svg PUBLIC "-//W3C//DTD SVG 20010904//EN"
 "http://www.w3.org/TR/2001/REC-SVG-20010904/DTD/svg10.dtd">
<svg version="1.0" xmlns="http://www.w3.org/2000/svg"
 width="1016.000000pt" height="822.000000pt" viewBox="0 0 1016.000000 822.000000"
 preserveAspectRatio="xMidYMid meet">
<metadata>
Created by potrace 1.16, written by Peter Selinger 2001-2019
</metadata>
<g transform="translate(0.000000,822.000000) scale(0.100000,-0.100000)"
fill="#000000" stroke="none">
<path d="M2322 8205 c-105 -46 -113 -175 -10 -175 30 0 68 31 68 55 0 25 -42
57 -67 50 -16 -4 -23 -1 -23 9 0 33 65 55 109 36 53 -21 66 -100 32 -189 -26
-69 -65 -116 -140 -169 -36 -25 -68 -47 -70 -49 -3 -2 0 -8 5 -13 12 -12 153
68 218 122 85 71 120 193 77 264 -22 36 -93 74 -137 74 -16 -1 -44 -7 -62 -15z"/>
<path d="M8235 8014 c-253 -46 -461 -83 -462 -84 -2 0 -3 -237 -3 -526 0 -498
-1 -526 -17 -518 -10 5 -49 9 -88 9 -83 0 -141 -25 -206 -89 -48 -47 -69 -90
-69 -141 0 -49 50 -103 107 -116 100 -22 234 43 291 140 l27 46 0 530 0 531
215 38 c118 20 308 54 423 75 l207 38 0 -453 0 -454 -26 10 c-106 41 -284 -41
-335 -155 -24 -52 -24 -82 1 -122 26 -44 68 -63 138 -63 109 0 236 88 262 179
12 42 14 1211 3 1210 -5 0 -215 -38 -468 -85z"/>
<path d="M3190 7625 l0 -465 -26 10 c-119 46 -314 -77 -314 -198 0 -54 69
-112 133 -112 82 0 204 76 233 147 11 25 14 98 14 308 l0 275 85 -52 c100 -63
153 -110 171 -155 23 -54 17 -169 -11 -238 -30 -71 -29 -65 -9 -65 21 0 63 95
76 173 8 51 7 73 -6 122 -10 33 -16 71 -14 85 1 14 2 61 2 105 0 116 -29 172
-156 299 -105 105 -122 129 -133 189 -5 27 -12 37 -26 37 -18 0 -19 -16 -19
-465z m121 174 c103 -70 164 -157 175 -254 l7 -56 -107 110 c-102 104 -133
151 -150 224 -8 32 -11 33 75 -24z"/>
<path d="M7051 7949 c-261 -51 -382 -209 -293 -380 90 -173 443 -242 717 -141
97 36 178 115 193 187 33 157 -84 283 -306 330 -78 16 -239 18 -311 4z m190
-65 c105 -53 171 -270 118 -386 -24 -54 -125 -75 -196 -41 -38 17 -85 76 -109
132 -21 51 -34 159 -25 209 18 94 117 135 212 86z"/>
<path d="M1070 7424 c-289 -234 -526 -429 -528 -433 -2 -5 34 -12 80 -15 46
-4 144 -19 218 -33 156 -30 237 -27 303 9 54 30 87 87 87 151 0 87 -39 136
-147 184 l-42 18 285 230 c157 127 295 238 307 247 l22 17 -24 25 c-14 14 -27
26 -30 25 -3 0 -242 -191 -531 -425z m7 -207 c22 -22 20 -72 -3 -105 -44 -59
-147 -87 -299 -80 l-69 3 129 104 130 103 48 -5 c27 -2 56 -11 64 -20z"/>
<path d="M2615 7759 c-46 -9 -881 -159 -889 -159 -3 0 -6 -236 -6 -524 l0
-525 -32 10 c-78 22 -157 3 -239 -57 -98 -71 -130 -184 -71 -244 89 -88 280
-39 368 95 18 27 19 60 24 569 l5 540 155 28 c375 68 660 118 674 118 14 0 16
-48 16 -451 l0 -450 -22 8 c-13 4 -52 8 -88 7 -81 0 -147 -32 -208 -98 -48
-52 -62 -82 -62 -131 0 -46 49 -101 102 -115 98 -27 250 46 300 144 20 40 21
52 22 643 1 332 -1 603 -4 602 -3 -1 -23 -5 -45 -10z"/>
<path d="M9030 7216 l0 -464 -60 5 c-172 16 -333 -160 -244 -266 70 -83 246
-44 322 72 l27 40 3 284 3 283 82 -51 c45 -28 97 -65 116 -82 84 -80 93 -196
26 -349 -5 -13 -3 -18 9 -18 11 0 27 21 43 57 34 73 43 190 20 256 -11 34 -13
56 -5 93 25 129 -21 234 -165 379 -102 102 -127 141 -127 195 0 25 -4 30 -25
30 l-25 0 0 -464z m131 163 c103 -69 169 -169 169 -253 l0 -44 -100 103 c-96
99 -150 180 -150 228 0 20 -1 21 81 -34z"/>
<path d="M3845 7536 c-41 -18 -73 -56 -81 -93 -12 -62 78 -111 119 -65 35 38
8 92 -46 92 -18 0 -25 4 -21 14 12 30 86 46 124 26 29 -16 43 -82 31 -141 -20
-92 -66 -155 -163 -220 -56 -39 -72 -59 -45 -59 23 0 179 98 220 138 56 54 91
132 85 186 -12 106 -123 166 -223 122z"/>
<path d="M6423 7509 c-51 -15 -93 -64 -93 -108 0 -47 24 -71 73 -71 66 0 85
69 28 99 -10 6 -28 7 -41 4 -39 -10 -6 33 36 47 125 42 155 -140 45 -277 -21
-26 -66 -66 -100 -88 -33 -22 -61 -46 -61 -54 0 -17 16 -11 109 42 99 56 154
107 185 169 48 95 27 183 -54 225 -46 24 -75 27 -127 12z"/>
<path d="M3887 7041 c-166 -36 -298 -118 -350 -216 -29 -55 -29 -162 0 -225
89 -197 452 -299 783 -219 262 62 387 217 329 408 -31 103 -159 198 -326 242
-116 31 -320 35 -436 10z m239 -67 c50 -24 120 -107 143 -170 50 -132 48 -280
-5 -335 -47 -49 -147 -63 -212 -30 -91 47 -154 152 -174 290 -14 92 -2 179 29
214 42 47 153 62 219 31z"/>
<path d="M6895 6990 c-22 -5 -206 -38 -410 -74 -203 -37 -394 -71 -423 -77
l-52 -10 2 -525 c3 -463 1 -523 -12 -517 -8 4 -43 9 -77 11 -205 13 -376 -236
-226 -329 42 -26 111 -28 182 -4 59 19 148 94 167 142 11 26 14 139 14 561 l0
529 103 17 c226 39 713 127 730 132 16 5 17 -21 17 -450 l0 -455 -31 11 c-46
16 -137 5 -193 -22 -62 -31 -143 -119 -152 -165 -17 -95 42 -155 153 -155 96
1 203 63 246 144 22 41 22 43 25 644 2 484 0 602 -10 601 -7 -1 -31 -5 -53 -9z"/>
<path d="M738 5808 c-2 -497 -2 -905 0 -908 1 -2 58 50 125 116 67 67 160 152
206 189 141 116 211 222 211 323 0 92 -49 170 -134 214 -74 38 -193 14 -293
-58 l-23 -16 0 521 0 521 -45 0 -45 0 -2 -902z m270 -178 c116 -71 61 -264
-136 -480 l-41 -45 -1 222 0 222 32 37 c30 33 77 63 103 64 6 0 25 -9 43 -20z"/>
<path d="M9645 6619 c-226 -33 -339 -153 -280 -297 22 -51 51 -79 115 -112 76
-38 146 -52 250 -52 243 0 398 106 375 258 -13 87 -116 168 -245 192 -89 17
-151 20 -215 11z m90 -49 c25 0 82 -59 106 -108 17 -35 23 -66 23 -123 1 -89
-13 -112 -76 -130 -60 -16 -122 19 -160 88 -35 62 -49 173 -28 223 7 16 13 30
14 30 0 0 19 7 41 15 22 8 46 12 53 10 8 -3 20 -5 27 -5z"/>
<path d="M3080 6444 c-137 -28 -224 -65 -284 -122 -50 -48 -66 -87 -66 -162 0
-122 72 -200 237 -256 101 -35 292 -45 394 -21 107 26 174 55 223 99 61 53 86
103 86 170 -1 129 -95 223 -275 273 -59 16 -266 28 -315 19z m162 -77 c90 -54
135 -168 129 -329 -2 -52 -40 -94 -97 -106 -116 -25 -213 65 -244 226 -14 68
-8 149 12 181 32 53 136 67 200 28z"/>
<path d="M7190 5987 l0 -464 -50 11 c-69 14 -142 -10 -208 -69 -99 -89 -102
-183 -8 -232 68 -35 206 12 271 91 l30 38 3 294 3 293 67 -41 c177 -107 206
-146 206 -268 -1 -53 -7 -91 -22 -130 -26 -64 -26 -70 -9 -70 20 0 56 83 69
160 9 55 9 81 0 122 -7 29 -14 107 -15 173 -2 110 -4 124 -30 174 -16 30 -75
101 -137 165 -80 83 -109 121 -114 146 -13 62 -17 70 -37 70 -18 0 -19 -12
-19 -463z m190 113 c76 -74 102 -122 108 -200 l5 -55 -36 43 c-19 23 -61 65
-92 93 -61 57 -100 115 -121 184 l-13 45 41 -22 c23 -13 71 -52 108 -88z"/>
<path d="M8055 6389 c-238 -23 -369 -162 -292 -310 48 -92 183 -150 352 -151
152 -1 266 34 332 104 110 115 43 274 -139 332 -71 22 -177 33 -253 25z m137
-98 c61 -64 88 -203 53 -271 -20 -38 -80 -56 -130 -40 -80 26 -128 114 -129
232 -1 88 14 114 75 127 50 11 89 -4 131 -48z"/>
<path d="M4431 6320 c-100 -27 -158 -57 -214 -112 -87 -86 -121 -211 -83 -302
30 -72 134 -125 218 -112 153 24 200 198 76 277 -29 18 -43 20 -111 14 -87 -6
-99 2 -77 55 32 77 136 130 257 130 156 0 239 -96 250 -292 12 -191 -61 -399
-202 -575 -80 -100 -172 -179 -341 -291 -110 -72 -131 -90 -127 -107 3 -11 8
-22 10 -25 13 -14 416 214 539 306 189 139 332 351 365 540 14 81 -1 195 -35
269 -47 102 -180 204 -302 230 -90 19 -133 18 -223 -5z"/>
<path d="M386 6178 c-19 -62 -114 -356 -210 -653 -96 -297 -174 -541 -172
-543 2 -1 55 23 117 55 63 32 149 71 193 87 98 37 188 102 216 155 51 101 -6
238 -108 257 -33 6 -105 1 -148 -12 -20 -5 -11 29 97 360 65 202 119 373 119
381 0 8 -6 15 -12 15 -7 0 -23 3 -34 6 -20 5 -25 -4 -58 -108z m-29 -723 c53
-37 32 -135 -43 -207 -37 -35 -171 -128 -185 -128 -3 0 17 70 45 156 49 148
53 157 86 175 43 22 69 24 97 4z"/>
<path d="M5115 6201 c-61 -25 -80 -108 -36 -155 62 -66 171 -25 171 64 0 70
-70 117 -135 91z"/>
<path d="M1845 6163 c-220 -28 -380 -173 -380 -345 0 -58 4 -72 30 -109 42
-59 94 -84 176 -84 79 0 128 28 159 91 25 51 25 68 0 118 -33 67 -61 81 -160
81 -81 0 -85 1 -88 22 -4 24 27 76 62 105 32 27 142 58 205 58 71 0 125 -25
173 -78 50 -55 70 -128 70 -251 1 -217 -97 -443 -267 -615 -68 -70 -217 -184
-332 -256 -70 -44 -91 -74 -59 -86 24 -9 311 145 479 258 212 142 372 352 417
547 17 73 8 211 -19 281 -63 166 -278 287 -466 263z"/>
<path d="M2473 6033 c-12 -2 -34 -18 -48 -34 -35 -43 -34 -92 4 -130 78 -77
206 13 156 110 -9 19 -31 39 -50 47 -19 8 -36 13 -37 13 -2 -1 -13 -4 -25 -6z"/>
<path d="M9530 5915 c-250 -46 -456 -84 -457 -84 -2 -1 -3 -237 -3 -526 0
-517 0 -526 -19 -515 -11 5 -46 10 -79 10 -141 0 -301 -145 -275 -249 16 -67
69 -101 155 -101 95 0 212 73 249 155 17 37 19 79 19 568 0 290 3 527 6 527
10 0 795 140 822 147 l22 5 0 -456 0 -456 -26 10 c-14 6 -51 10 -82 10 -95 -1
-190 -55 -243 -138 -95 -151 57 -269 236 -184 61 30 128 93 145 138 6 15 10
268 10 625 0 473 -3 599 -12 598 -7 0 -218 -38 -468 -84z"/>
<path d="M5115 5831 c-89 -37 -74 -169 21 -187 55 -10 113 35 114 88 0 76 -68
126 -135 99z"/>
<path d="M3365 5671 c-68 -17 -117 -65 -136 -133 -20 -78 11 -142 103 -208
l38 -27 -328 -153 c-180 -84 -340 -158 -355 -164 -23 -9 -27 -15 -22 -36 10
-41 21 -45 67 -24 239 106 1193 554 1195 560 2 5 -32 20 -75 32 -42 13 -133
50 -202 82 -141 66 -223 86 -285 71z m310 -165 l80 -23 -130 -63 c-147 -70
-187 -80 -234 -56 -63 33 -60 97 8 143 46 31 163 31 276 -1z"/>
<path d="M2464 5660 c-12 -4 -31 -21 -43 -36 -64 -82 26 -187 123 -143 23 11
56 62 56 89 0 28 -34 73 -65 86 -39 16 -42 16 -71 4z"/>
<path d="M8060 5644 c-192 -52 -310 -176 -312 -330 -1 -56 2 -70 28 -107 54
-78 183 -114 262 -73 37 19 80 69 88 102 9 35 -1 89 -23 119 -29 39 -97 69
-141 60 -63 -12 -84 -11 -95 7 -15 24 18 83 66 119 47 34 171 64 229 55 209
-34 277 -282 164 -606 -68 -195 -225 -374 -478 -545 -81 -55 -147 -104 -147
-110 -1 -5 3 -16 8 -24 7 -11 36 0 144 57 427 223 596 369 713 616 97 204 74
411 -60 540 -125 119 -286 163 -446 120z"/>
<path d="M6280 5137 l0 -463 -68 4 c-81 5 -144 -20 -204 -80 -44 -44 -58 -74
-58 -125 0 -45 53 -102 96 -104 109 -4 196 35 251 113 l28 41 5 284 5 284 106
-70 c94 -62 110 -77 133 -123 38 -77 32 -168 -19 -290 -5 -13 -2 -18 9 -18 11
0 27 21 43 56 33 72 42 192 21 256 -12 34 -13 57 -7 99 23 134 -20 230 -163
373 -102 103 -128 142 -128 196 0 25 -4 30 -25 30 l-25 0 0 -463z m195 108
c70 -69 105 -135 105 -199 l0 -44 -100 103 c-96 99 -150 180 -150 228 0 17 3
16 42 -5 23 -13 70 -50 103 -83z"/>
<path d="M8729 5515 c-14 -8 -32 -28 -39 -45 -41 -99 91 -181 162 -101 77 86
-21 202 -123 146z"/>
<path d="M4990 4926 l0 -464 -37 10 c-69 19 -164 -12 -231 -76 -44 -41 -62
-77 -62 -123 0 -133 188 -153 311 -34 67 65 70 84 67 389 l-3 259 84 -51 c113
-69 164 -119 180 -179 17 -59 9 -152 -19 -214 -24 -54 -25 -63 -6 -63 7 0 26
28 41 62 35 78 44 173 22 249 -12 41 -13 67 -6 109 21 127 -22 223 -167 370
-104 106 -124 137 -124 191 0 24 -4 29 -25 29 l-25 0 0 -464z m115 179 c68
-45 141 -124 165 -178 11 -23 20 -64 20 -91 l0 -50 -29 40 c-17 21 -59 65 -95
96 -63 57 -126 156 -126 200 0 24 3 23 65 -17z"/>
<path d="M8717 5136 c-49 -45 -46 -111 6 -150 64 -48 157 0 157 80 0 81 -104
125 -163 70z"/>
<path d="M6950 4085 c0 -498 2 -905 4 -905 2 0 41 39 87 86 46 48 129 124 184
169 191 158 254 242 263 350 6 83 -15 141 -70 190 -92 84 -184 87 -312 10 -32
-19 -60 -35 -62 -35 -2 0 -4 234 -4 520 l0 520 -45 0 -45 0 0 -905z m283 -185
c54 -43 60 -142 15 -240 -23 -51 -105 -166 -178 -250 l-30 -34 0 218 c0 202 2
221 20 252 43 68 123 93 173 54z"/>
<path d="M375 4764 c-138 -29 -244 -95 -286 -176 -38 -73 -20 -189 39 -252
133 -141 482 -181 708 -81 152 67 213 203 148 333 -73 146 -358 228 -609 176z
m216 -72 c119 -76 171 -352 76 -412 -12 -7 -39 -17 -61 -21 -112 -20 -209 76
-237 235 -19 110 6 192 65 216 46 19 110 11 157 -18z"/>
<path d="M2726 4764 c-192 -43 -305 -140 -306 -263 0 -107 50 -180 163 -236
259 -127 669 -62 757 121 32 65 26 164 -13 223 -39 58 -129 114 -229 141 -107
30 -274 36 -372 14z m200 -60 c83 -39 136 -150 138 -284 1 -96 -13 -129 -66
-151 -145 -60 -280 81 -282 297 0 52 4 78 17 98 35 53 126 72 193 40z"/>
<path d="M4070 4698 c-245 -44 -451 -82 -458 -84 -10 -3 -12 -111 -10 -528 l3
-524 -23 9 c-45 17 -134 10 -188 -15 -174 -81 -221 -259 -84 -316 44 -18 136
-7 196 23 54 27 119 92 134 133 6 15 10 242 10 555 0 291 3 529 6 529 9 0 795
140 822 147 l22 5 0 -456 c0 -456 0 -457 -20 -446 -11 6 -47 11 -80 11 -75 1
-152 -33 -210 -91 -69 -69 -87 -137 -51 -196 56 -92 229 -81 335 22 75 73 71
30 74 702 2 572 2 602 -15 601 -10 0 -218 -37 -463 -81z"/>
<path d="M9585 4449 c-82 -12 -192 -46 -240 -75 -148 -86 -179 -245 -72 -361
132 -144 447 -185 694 -90 79 29 167 115 183 177 23 85 -8 170 -86 238 -93 82
-321 135 -479 111z m107 -61 c52 -15 121 -92 145 -161 22 -64 24 -202 4 -240
-27 -51 -129 -74 -189 -43 -86 45 -134 140 -140 276 -4 92 -3 97 22 127 15 17
43 35 64 41 51 14 50 14 94 0z"/>
<path d="M1000 3905 l0 -465 -26 10 c-94 36 -245 -33 -294 -136 -28 -57 -21
-103 21 -138 83 -70 241 -24 317 92 15 23 18 63 22 314 l5 288 107 -70 c135
-89 161 -126 161 -234 0 -66 -5 -86 -48 -188 -5 -13 -3 -18 9 -18 22 0 63 85
77 163 10 54 10 77 -1 124 -8 32 -14 108 -15 168 0 101 -2 115 -29 170 -20 41
-62 94 -132 165 -109 113 -118 125 -128 183 -5 28 -12 37 -26 37 -20 0 -20
-10 -20 -465z m179 129 c70 -63 111 -136 118 -210 l6 -55 -100 103 c-95 98
-141 166 -157 231 l-7 29 41 -23 c23 -13 67 -47 99 -75z"/>
<path d="M8860 3906 l0 -465 -31 11 c-40 14 -117 4 -166 -21 -58 -29 -121 -97
-133 -143 -23 -83 47 -153 143 -145 63 5 152 52 191 100 l31 39 5 293 5 294
85 -52 c47 -28 103 -70 126 -93 69 -69 81 -172 33 -301 -12 -30 -18 -57 -15
-60 11 -12 36 20 56 74 28 76 36 159 19 224 -8 33 -12 94 -11 154 3 94 1 104
-28 164 -22 47 -59 93 -139 175 -91 94 -110 119 -116 151 -10 60 -13 65 -35
65 -20 0 -20 -4 -20 -464z m182 125 c76 -69 108 -125 115 -197 l6 -57 -101
101 c-101 102 -131 143 -150 215 l-11 37 42 -22 c22 -13 67 -47 99 -77z"/>
<path d="M5662 4190 c-147 -39 -239 -108 -289 -217 -30 -65 -34 -152 -10 -199
54 -105 199 -145 296 -81 94 62 93 188 -1 248 -29 18 -43 20 -110 14 -83 -6
-94 -1 -84 41 13 50 74 102 143 124 123 38 221 22 289 -46 62 -61 79 -122 78
-269 -1 -142 -29 -250 -97 -378 -91 -171 -214 -295 -446 -447 -71 -47 -130
-89 -130 -95 0 -5 4 -17 9 -25 8 -13 28 -6 127 45 146 74 353 198 431 259 91
70 168 152 232 249 119 180 152 343 101 506 -20 66 -30 82 -91 143 -77 77
-162 123 -256 138 -81 13 -107 12 -192 -10z"/>
<path d="M2220 4079 c-239 -43 -450 -81 -467 -84 l-33 -6 0 -524 0 -524 -32
10 c-75 21 -153 4 -234 -52 -100 -68 -135 -184 -76 -247 52 -56 154 -63 244
-16 36 19 114 89 131 118 9 15 13 171 17 561 l5 540 100 17 c55 10 245 44 423
76 l322 58 0 -454 c0 -429 -1 -454 -17 -447 -10 4 -43 10 -75 13 -70 5 -152
-28 -217 -91 -50 -48 -71 -91 -71 -143 0 -49 62 -113 111 -115 67 -3 105 3
154 25 66 30 111 69 137 120 20 40 21 52 22 643 1 332 -1 603 -4 602 -3 0
-201 -36 -440 -80z"/>
<path d="M6350 4073 c-57 -22 -84 -91 -54 -141 52 -90 184 -52 184 52 0 53
-81 108 -130 89z"/>
<path d="M4820 3544 l0 -465 -22 6 c-128 41 -308 -74 -308 -197 0 -128 201
-146 319 -27 59 58 61 71 61 369 l0 271 23 -12 c12 -7 59 -37 105 -66 108 -72
136 -111 140 -207 4 -67 -5 -106 -43 -198 -5 -13 -2 -18 9 -18 11 0 27 21 43
58 33 71 43 194 20 259 -11 33 -12 54 -5 95 23 127 -21 229 -162 372 -97 99
-130 150 -130 201 0 20 -5 25 -25 25 l-25 0 0 -466z m118 177 c113 -77 181
-174 182 -259 l0 -43 -103 103 c-86 85 -108 113 -125 161 -22 59 -26 77 -16
77 3 0 31 -17 62 -39z"/>
<path d="M7930 3684 c-250 -45 -458 -83 -462 -84 -5 0 -8 -236 -8 -525 l0
-525 -26 10 c-134 51 -344 -83 -344 -219 0 -50 17 -77 63 -106 39 -25 131 -23
190 3 57 25 136 97 153 139 11 26 14 139 14 562 l0 529 48 7 c47 7 751 132
785 139 16 4 17 -23 17 -449 l0 -454 -31 11 c-45 16 -137 5 -192 -22 -53 -26
-132 -104 -147 -145 -37 -98 28 -175 147 -175 96 1 203 63 246 144 22 41 22
43 25 644 2 484 0 602 -10 601 -7 -1 -218 -39 -468 -85z"/>
<path d="M6345 3701 c-32 -13 -55 -46 -62 -84 -5 -32 -1 -41 30 -72 22 -22 45
-35 61 -35 108 0 146 139 51 185 -36 17 -50 18 -80 6z"/>
<path d="M2880 2770 l0 -471 -21 12 c-30 16 -126 7 -174 -16 -22 -11 -59 -38
-82 -61 -83 -84 -78 -175 12 -215 50 -22 96 -20 162 7 37 16 108 76 126 108 8
14 14 112 17 309 l5 288 90 -56 c118 -73 160 -119 175 -192 13 -61 3 -139 -26
-209 -8 -20 -13 -38 -10 -41 25 -25 75 87 82 187 4 42 0 81 -9 112 -10 33 -13
73 -9 137 8 144 -24 208 -183 365 -87 85 -94 95 -105 149 -9 46 -15 57 -31 57
-18 0 -19 -12 -19 -470z m105 185 c114 -72 182 -166 192 -260 l6 -56 -95 94
c-53 52 -107 114 -121 138 -24 42 -51 119 -41 119 3 0 29 -16 59 -35z"/>
<path d="M6540 3044 c-120 -26 -261 -113 -282 -175 -3 -10 -11 -8 -32 9 -34
26 -83 37 -131 28 -48 -9 -103 -59 -111 -101 -5 -26 -12 -35 -33 -39 -14 -3
-204 -37 -421 -76 -217 -38 -405 -72 -417 -75 l-23 -5 0 -526 c0 -516 0 -525
-19 -514 -36 19 -132 12 -187 -14 -104 -48 -164 -125 -164 -209 0 -75 54 -117
153 -117 94 0 205 68 248 152 18 35 19 65 19 568 0 346 3 530 10 530 11 0 782
137 818 145 21 5 22 3 22 -68 0 -45 -5 -78 -12 -86 -10 -11 -10 -14 0 -18 9
-4 12 -87 12 -369 l0 -364 -26 10 c-43 17 -135 11 -183 -11 -136 -61 -210
-197 -150 -273 66 -84 214 -74 319 21 84 76 80 45 80 552 l0 450 62 37 c77 47
134 98 154 137 l16 29 23 -34 c121 -179 582 -212 797 -58 130 93 137 263 16
366 -113 95 -365 139 -558 98z m221 -67 c41 -28 94 -104 111 -160 19 -67 17
-197 -5 -229 -22 -32 -64 -48 -125 -48 -115 0 -203 132 -204 306 0 83 15 117
63 141 41 21 121 16 160 -10z m-596 -122 c20 -19 25 -34 25 -76 0 -28 -5 -69
-11 -89 -14 -45 -71 -123 -116 -158 l-33 -25 0 107 0 106 27 0 c34 0 63 26 63
56 0 29 -41 58 -70 49 -33 -11 -22 22 15 43 33 19 74 14 100 -13z"/>
<path d="M8771 3009 c-50 -15 -77 -36 -96 -75 -14 -29 -15 -41 -5 -64 26 -62
121 -59 128 3 5 38 -14 57 -55 57 -30 0 -33 2 -23 20 11 21 72 42 98 33 55
-20 74 -87 48 -175 -22 -74 -71 -136 -149 -188 -37 -25 -67 -51 -67 -57 0 -18
3 -17 63 13 178 90 273 210 253 318 -16 84 -110 139 -195 115z"/>
<path d="M4110 2750 c-80 -15 -243 -44 -362 -65 l-218 -39 0 -416 0 -417 -40
10 c-51 14 -115 -2 -175 -43 -53 -36 -77 -72 -82 -124 -15 -128 173 -151 284
-34 17 18 37 46 42 61 7 18 11 174 11 441 l0 412 333 60 332 60 3 -355 c1
-195 1 -355 -1 -357 -1 -2 -21 2 -43 7 -106 27 -254 -76 -254 -177 0 -72 69
-117 152 -99 75 16 155 79 177 138 17 44 15 967 -1 966 -7 -1 -78 -14 -158
-29z"/>
<path d="M6280 1755 l0 -465 -26 10 c-65 25 -159 -1 -229 -62 -56 -49 -75 -84
-75 -138 0 -74 77 -122 167 -105 50 9 122 47 155 82 55 57 58 79 58 368 0 146
3 265 6 265 15 0 181 -111 206 -137 60 -63 75 -170 37 -273 -32 -89 -33 -90
-17 -90 9 0 27 27 43 63 35 77 45 189 22 255 -12 36 -13 56 -5 108 9 53 8 75
-7 129 -23 88 -62 144 -166 245 -87 85 -119 134 -119 185 0 20 -5 25 -25 25
l-25 0 0 -465z m156 153 c84 -63 144 -161 144 -237 l0 -39 -99 99 c-97 97
-134 151 -147 218 l-7 33 29 -18 c16 -10 52 -35 80 -56z"/>
<path d="M7080 2064 c-115 -21 -192 -57 -242 -112 -64 -71 -64 -160 2 -235
149 -169 598 -148 690 32 59 117 -17 241 -178 291 -65 21 -217 34 -272 24z
m131 -66 c21 -14 45 -46 64 -83 26 -51 30 -71 30 -137 0 -95 -17 -118 -92
-125 -63 -6 -107 23 -146 95 -32 59 -46 168 -28 215 21 55 114 73 172 35z"/>
<path d="M5290 765 l0 -465 -26 10 c-135 52 -353 -112 -304 -230 38 -92 160
-103 275 -25 90 61 89 59 95 387 l5 287 85 -52 c121 -74 165 -120 180 -192 14
-66 2 -152 -31 -219 -20 -42 -19 -52 6 -42 20 7 54 86 68 159 8 43 7 72 -2
120 -7 34 -14 114 -14 177 -2 106 -4 119 -31 170 -17 33 -72 100 -136 165 -95
98 -108 116 -120 163 -9 40 -16 52 -31 52 -18 0 -19 -15 -19 -465z m109 185
c120 -81 191 -188 191 -289 l0 -35 -29 40 c-16 22 -57 64 -90 93 -34 29 -73
72 -87 97 -26 43 -58 134 -48 134 3 0 31 -18 63 -40z"/>
<path d="M4455 1189 c-242 -37 -368 -135 -369 -286 0 -143 120 -240 344 -280
223 -40 487 34 566 158 17 28 28 61 31 100 13 139 -105 253 -304 294 -96 20
-198 25 -268 14z m135 -71 c84 -43 140 -160 140 -292 0 -87 -21 -128 -75 -146
-96 -32 -178 12 -235 125 -32 64 -35 76 -35 161 0 108 17 141 81 161 57 17 75
16 124 -9z"/>
</g>
</svg>
