<?xml version="1.0" standalone="no"?>
<!DOCTYPE svg PUBLIC "-//W3C//DTD SVG 20010904//EN"
 "http://www.w3.org/TR/2001/REC-SVG-20010904/DTD/svg10.dtd">
<svg version="1.0" xmlns="http://www.w3.org/2000/svg"
 width="737.000000pt" height="779.000000pt" viewBox="0 0 737.000000 779.000000"
 preserveAspectRatio="xMidYMid meet">
<metadata>
Created by potrace 1.16, written by Peter Selinger 2001-2019
</metadata>
<g transform="translate(0.000000,779.000000) scale(0.100000,-0.100000)"
fill="#000000" stroke="none">
<path d="M7010 7783 c-14 -3 -981 -261 -2150 -574 -1642 -440 -2135 -576
-2170 -597 -24 -15 -59 -47 -77 -70 -68 -89 -63 75 -63 -2260 0 -1690 -3
-2112 -13 -2104 -24 20 -141 83 -216 116 -474 208 -1058 208 -1532 0 -183 -81
-322 -176 -464 -319 -169 -170 -263 -339 -307 -554 -26 -125 -21 -325 12 -446
48 -178 157 -361 301 -505 693 -692 2072 -596 2600 182 57 84 124 228 149 323
12 44 24 125 27 180 3 55 11 119 19 143 12 36 14 417 14 2442 l0 2400 25 6
c14 3 827 221 1807 484 l1783 477 3 -1965 c1 -1081 0 -1967 -2 -1970 -3 -2
-29 9 -58 26 -226 129 -572 212 -883 212 -298 0 -555 -57 -812 -180 -370 -177
-622 -458 -715 -798 -18 -64 -21 -105 -22 -247 0 -156 3 -177 28 -260 56 -188
150 -345 287 -485 385 -391 1017 -559 1635 -435 510 103 926 414 1085 812 52
128 71 246 64 387 -3 67 -9 1302 -13 2746 l-7 2625 -27 51 c-31 59 -85 109
-142 134 -45 20 -126 31 -166 23z m125 -122 c46 -21 79 -54 94 -94 8 -20 11
-761 11 -2458 l0 -2431 -51 77 c-58 86 -195 234 -269 291 l-50 38 0 2054 c0
1396 -3 2060 -10 2073 -6 11 -21 19 -35 19 -14 0 -864 -225 -1890 -500 -1026
-275 -1868 -500 -1870 -500 -2 0 -11 -7 -19 -16 -14 -14 -16 -237 -16 -2307 0
-2285 -1 -2292 -20 -2249 -43 96 -135 220 -241 326 l-109 109 0 2162 0 2161
28 45 c16 24 44 52 64 63 47 25 4252 1154 4303 1155 22 0 58 -8 80 -18z
m-1045 -4376 c653 -96 1135 -521 1175 -1037 4 -48 2 -119 -5 -168 -61 -445
-437 -810 -978 -951 -578 -149 -1211 -8 -1590 355 -47 45 -107 110 -134 146
-68 89 -143 246 -169 355 -27 112 -30 286 -5 387 57 242 209 460 436 628 99
73 307 177 437 219 256 83 555 107 833 66z m-4399 -945 c252 -21 460 -79 669
-186 152 -78 238 -141 351 -255 139 -139 221 -281 271 -467 29 -109 29 -305
-1 -417 -27 -103 -98 -250 -162 -336 -65 -87 -216 -231 -307 -292 -623 -417
-1566 -355 -2079 135 -106 103 -168 184 -226 296 -85 165 -118 334 -97 502 43
355 280 658 665 846 204 100 405 155 629 174 133 11 159 11 287 0z"/>
</g>
</svg>
