<?xml version="1.0" standalone="no"?>
<!DOCTYPE svg PUBLIC "-//W3C//DTD SVG 20010904//EN"
 "http://www.w3.org/TR/2001/REC-SVG-20010904/DTD/svg10.dtd">
<svg version="1.0" xmlns="http://www.w3.org/2000/svg"
 width="1183.000000pt" height="1364.000000pt" viewBox="0 0 1183.000000 1364.000000"
 preserveAspectRatio="xMidYMid meet">
<metadata>
Created by potrace 1.16, written by Peter Selinger 2001-2019
</metadata>
<g transform="translate(0.000000,1364.000000) scale(0.100000,-0.100000)"
fill="#000000" stroke="none">
<path d="M4480 13409 c-264 -44 -507 -230 -624 -480 -45 -94 -83 -226 -102
-354 -19 -124 -14 -381 10 -503 l17 -84 -67 -61 c-80 -73 -126 -142 -155 -231
-20 -62 -24 -66 -58 -73 -177 -36 -349 84 -377 263 -5 37 -2 48 30 95 151 223
69 543 -168 659 -131 64 -230 63 -376 -7 -151 -72 -278 -239 -310 -408 -11
-60 -17 -71 -59 -108 -166 -147 -312 -331 -419 -527 -30 -55 -55 -86 -94 -115
-73 -55 -272 -255 -344 -345 -127 -157 -260 -370 -327 -522 -30 -70 -32 -78
-32 -203 0 -116 3 -138 27 -204 37 -103 111 -219 166 -264 60 -47 169 -101
248 -121 80 -21 245 -21 332 -1 37 9 95 30 129 48 53 27 66 40 90 86 35 67
101 116 228 167 l89 36 28 -34 c181 -214 268 -540 268 -998 0 -225 7 -191
-119 -560 -273 -798 -402 -1430 -418 -2032 l-6 -238 193 0 193 0 -5 -877 -5
-878 -71 -135 c-194 -371 -327 -782 -387 -1200 -19 -131 -15 -125 -198 -400
-144 -216 -270 -395 -433 -611 -102 -136 -166 -236 -282 -440 -82 -145 -171
-300 -198 -344 -95 -155 -156 -352 -176 -561 -6 -66 -8 -142 -4 -167 l7 -47
268 0 c148 0 295 -3 329 -6 59 -7 60 -6 76 24 34 65 123 98 199 72 33 -10 67
-41 92 -85 10 -16 36 -16 500 0 417 15 492 20 503 33 16 21 15 105 -2 145 -38
90 -194 155 -372 157 -46 0 -55 4 -97 45 -117 111 -116 190 3 250 67 34 314
298 515 549 316 397 671 963 960 1529 44 86 83 157 86 157 7 0 70 -211 94
-315 45 -198 58 -457 30 -617 -29 -168 -105 -344 -175 -405 -69 -60 -121 -189
-152 -378 -9 -54 -13 -185 -13 -408 l0 -328 -25 -5 c-103 -23 -177 -61 -227
-118 -50 -56 -65 -109 -61 -206 l3 -75 385 0 c382 0 385 0 432 23 55 27 147
114 205 192 39 54 40 58 32 105 -18 110 -4 268 33 360 16 41 16 41 34 19 34
-43 94 -180 120 -279 19 -70 34 -105 43 -105 25 0 191 53 191 61 0 4 -35 104
-79 222 l-79 214 14 54 c21 79 18 214 -6 290 -22 72 -73 162 -131 231 -39 46
-39 47 -39 131 0 46 -5 175 -10 287 -6 111 -9 204 -7 206 2 3 85 -105 184
-238 98 -134 406 -549 683 -922 l504 -679 18 -140 c10 -77 19 -141 21 -143 2
-2 120 -25 263 -50 142 -25 269 -47 280 -50 18 -5 24 1 34 30 36 111 161 166
259 116 47 -23 90 -73 98 -111 l6 -29 738 0 738 0 7 36 c12 67 -4 154 -43 234
-89 183 -353 367 -749 524 -121 48 -124 50 -250 166 -360 327 -724 796 -1078
1389 -64 107 -116 200 -116 207 0 13 120 54 255 88 171 43 438 76 620 76 206
0 482 -39 653 -91 232 -71 421 -57 590 43 128 76 273 256 369 458 25 52 47 97
49 99 1 2 46 -23 99 -54 485 -290 870 -712 1112 -1222 30 -64 75 -140 99 -170
80 -98 293 -426 469 -723 77 -131 146 -206 440 -479 416 -387 524 -479 584
-502 75 -28 205 -24 269 10 65 33 118 87 149 149 24 50 28 69 28 147 0 75 -4
98 -24 139 -31 62 -90 122 -145 147 -79 34 -406 350 -605 583 -223 261 -445
587 -624 916 -39 72 -47 98 -57 175 -47 386 -204 748 -466 1075 -155 192 -431
442 -679 615 -117 81 -115 80 -204 212 -188 281 -365 748 -536 1416 -63 245
-63 249 -49 295 22 71 44 227 44 312 0 176 -45 393 -125 596 -56 143 -189 408
-220 437 -34 32 -110 159 -145 243 -80 192 -112 416 -91 636 7 73 23 186 37
250 24 115 83 320 101 352 7 13 23 4 98 -56 248 -199 438 -439 598 -756 42
-81 85 -156 97 -167 22 -20 141 -181 383 -517 70 -97 149 -201 176 -230 57
-63 145 -207 231 -378 97 -194 183 -310 325 -440 185 -169 421 -282 675 -324
l35 -6 -3 -90 c-4 -114 15 -186 65 -241 20 -22 49 -47 64 -55 36 -18 64 -47
101 -104 40 -63 60 -139 62 -239 l1 -86 34 0 c34 0 35 2 47 55 18 76 17 224
-1 295 -9 32 -31 88 -50 124 -24 45 -32 68 -24 76 6 6 55 10 117 10 96 -1 115
-4 187 -33 44 -17 105 -48 135 -68 82 -54 105 -64 150 -64 53 0 101 21 129 56
l23 29 -64 16 c-102 26 -153 54 -230 126 -120 113 -257 196 -410 247 -40 14
-76 31 -80 38 -4 7 -21 58 -39 113 -126 396 -384 714 -756 934 -132 77 -239
160 -335 258 -73 75 -78 84 -138 228 -83 198 -368 855 -490 1125 l-96 216 -88
88 c-199 202 -318 374 -562 813 -265 479 -372 612 -571 713 -43 21 -64 38 -67
53 -2 12 -9 58 -16 102 -7 44 -20 106 -30 137 l-18 58 36 9 c37 11 102 66 102
88 0 8 13 4 36 -12 118 -80 272 -45 336 78 31 58 31 156 0 214 -50 95 -175
148 -266 113 -31 -11 -30 -15 -9 80 25 115 23 350 -5 462 -29 118 -64 197
-128 295 -101 151 -247 261 -432 324 -85 28 -113 33 -230 37 -129 4 -202 -3
-377 -40 -176 -37 -344 -165 -428 -326 -46 -90 -54 -118 -72 -252 -21 -158
-51 -304 -86 -412 -22 -68 -29 -110 -29 -167 0 -108 4 -118 52 -125 22 -4 55
-13 73 -21 45 -18 58 -65 60 -210 l2 -110 45 -28 c89 -56 211 -46 298 23 l40
31 51 -53 c99 -102 160 -217 174 -330 l7 -56 -198 -7 c-377 -15 -808 9 -1114
61 -266 45 -473 109 -660 205 -161 83 -153 74 -140 150 l11 64 82 0 c98 0 130
14 217 91 34 30 65 54 70 54 18 0 174 157 213 214 22 34 55 78 73 99 59 70 69
178 25 265 -43 84 -51 248 -20 380 11 46 18 56 50 72 73 38 115 116 106 196
-6 54 -64 178 -121 258 -60 84 -180 195 -262 244 -106 63 -352 154 -462 171
-82 13 -213 13 -292 0z m-1825 -1726 c10 -57 42 -124 76 -159 l30 -31 -68 -49
c-88 -62 -242 -216 -322 -323 -62 -81 -64 -83 -99 -77 -51 8 -82 41 -82 88 0
62 41 127 157 245 59 61 149 163 198 226 50 64 93 116 96 116 4 1 10 -16 14
-36z m2903 -1318 c66 -40 154 -65 230 -65 l54 0 -50 -39 c-59 -47 -123 -140
-153 -222 l-22 -60 -29 28 c-42 40 -97 158 -104 225 -6 55 2 168 13 168 3 0
30 -16 61 -35z m-350 -1224 c232 -168 524 -310 796 -388 84 -24 98 -31 103
-53 12 -46 8 -532 -5 -635 -36 -280 -98 -501 -193 -685 -62 -120 -220 -322
-363 -465 -136 -135 -230 -208 -380 -294 -113 -66 -352 -256 -480 -383 -55
-54 -100 -97 -101 -96 -2 2 -17 53 -33 113 -58 206 -67 272 -67 495 0 228 10
294 70 476 51 154 95 463 95 665 0 132 -19 293 -50 414 l-27 110 101 110 c185
200 316 385 403 565 27 54 51 99 56 99 4 1 38 -21 75 -48z"/>
</g>
</svg>
