<?xml version="1.0" standalone="no"?>
<!DOCTYPE svg PUBLIC "-//W3C//DTD SVG 20010904//EN"
 "http://www.w3.org/TR/2001/REC-SVG-20010904/DTD/svg10.dtd">
<svg version="1.0" xmlns="http://www.w3.org/2000/svg"
 width="2277.000000pt" height="1782.000000pt" viewBox="0 0 2277.000000 1782.000000"
 preserveAspectRatio="xMidYMid meet">
<metadata>
Created by potrace 1.16, written by Peter Selinger 2001-2019
</metadata>
<g transform="translate(0.000000,1782.000000) scale(0.100000,-0.100000)"
fill="#ffffff" stroke="none">
<path d="M11165 17813 c-304 -8 -674 -35 -825 -58 -52 -9 -138 -22 -190 -29
-250 -37 -427 -67 -445 -75 -11 -5 -96 -23 -190 -41 -217 -39 -277 -53 -346
-78 -31 -12 -110 -33 -175 -48 -66 -14 -132 -32 -149 -40 -16 -7 -61 -22 -100
-33 -101 -28 -209 -64 -215 -72 -3 -3 -63 -23 -135 -44 -71 -20 -166 -54 -210
-75 -44 -20 -111 -47 -150 -60 -38 -12 -74 -26 -80 -30 -5 -4 -55 -26 -110
-50 -55 -23 -104 -46 -110 -50 -5 -4 -55 -26 -110 -48 -128 -51 -155 -63 -155
-73 0 -4 -34 -21 -77 -39 -42 -18 -120 -56 -173 -86 -53 -30 -102 -54 -108
-54 -5 0 -12 -4 -14 -8 -1 -5 -46 -31 -98 -57 -52 -27 -97 -53 -98 -57 -2 -5
-41 -27 -85 -50 -45 -22 -99 -54 -121 -71 -21 -17 -60 -42 -86 -56 -72 -39
-316 -201 -367 -244 -24 -20 -57 -44 -73 -52 -37 -19 -324 -235 -328 -247 -2
-4 -32 -27 -65 -50 -34 -23 -71 -53 -81 -66 -11 -13 -32 -32 -48 -42 -16 -9
-59 -44 -96 -76 -184 -163 -282 -252 -333 -303 -30 -31 -66 -65 -80 -77 -38
-32 -326 -334 -414 -434 -44 -50 -99 -112 -122 -138 -24 -26 -43 -50 -43 -54
0 -4 -19 -24 -41 -45 -23 -21 -45 -47 -49 -58 -5 -11 -46 -66 -92 -123 -121
-148 -156 -196 -220 -291 -31 -48 -63 -93 -71 -101 -23 -25 -123 -173 -142
-210 -9 -19 -27 -46 -39 -60 -20 -22 -96 -146 -96 -155 0 -2 -30 -50 -67 -107
-37 -57 -82 -136 -100 -175 -19 -40 -37 -73 -42 -73 -4 0 -31 -48 -60 -107
-28 -60 -79 -160 -112 -223 -33 -63 -76 -155 -95 -205 -20 -49 -40 -92 -45
-95 -11 -7 -51 -99 -74 -170 -10 -30 -24 -64 -31 -75 -8 -12 -25 -56 -38 -99
-14 -43 -29 -83 -34 -89 -5 -7 -15 -30 -22 -52 -7 -22 -16 -44 -20 -50 -8 -10
-50 -145 -70 -225 -7 -25 -15 -47 -20 -50 -11 -8 -45 -112 -75 -235 -16 -60
-31 -114 -35 -120 -4 -5 -20 -66 -35 -135 -15 -69 -30 -132 -35 -141 -4 -8
-13 -42 -20 -74 -7 -32 -16 -66 -21 -74 -10 -18 -79 -433 -79 -474 0 -14 -4
-28 -9 -32 -5 -3 -8 -19 -6 -35 2 -17 1 -30 -3 -30 -7 0 -23 -95 -42 -250 -23
-182 -41 -489 -47 -776 l-6 -312 -51 -5 c-28 -3 -205 -18 -394 -33 -339 -28
-343 -28 -375 -55 -32 -27 -32 -27 -13 -48 11 -12 26 -21 36 -21 13 0 19 -25
34 -152 11 -84 22 -155 26 -158 4 -3 16 -70 27 -150 l19 -145 -40 -8 c-23 -4
-77 -19 -121 -32 -74 -22 -173 -46 -320 -76 -33 -7 -62 -16 -65 -20 -3 -4 -88
-24 -190 -44 -102 -21 -195 -40 -207 -43 -13 -2 -23 -8 -23 -12 0 -4 -16 -11
-34 -14 -60 -11 -254 -76 -268 -89 -7 -7 -29 -25 -48 -41 -102 -84 -153 -211
-180 -446 -11 -100 -12 -420 -1 -420 5 0 12 -51 15 -112 14 -233 28 -390 56
-628 17 -135 30 -249 30 -253 0 -4 -9 -7 -20 -7 -75 0 -279 -184 -341 -307
-19 -38 -37 -70 -42 -71 -4 -2 -5 -8 -1 -13 3 -5 1 -9 -5 -9 -14 0 -50 -166
-62 -287 -7 -76 -7 -142 1 -223 11 -109 51 -301 69 -324 4 -6 23 -49 41 -95
18 -46 43 -95 55 -110 12 -14 34 -44 48 -66 25 -39 115 -136 192 -206 59 -54
187 -126 269 -151 l72 -22 19 -121 c10 -66 21 -122 25 -125 3 -3 16 -54 28
-115 55 -268 64 -311 73 -328 8 -14 71 -325 95 -462 4 -22 10 -44 14 -50 4 -5
15 -46 25 -90 21 -96 64 -238 75 -245 4 -3 21 -32 36 -65 28 -58 102 -141 173
-194 45 -33 135 -68 239 -93 48 -12 96 -25 107 -30 91 -39 892 -37 941 3 11 9
129 39 155 39 13 0 20 -33 39 -187 13 -104 29 -203 36 -222 13 -32 15 -33 56
-27 107 16 399 46 450 46 68 0 285 28 313 40 25 11 101 21 465 61 157 17 291
35 297 41 19 16 15 56 -7 78 -12 12 -18 25 -15 30 3 4 -8 102 -24 217 -16 114
-33 235 -36 268 -4 33 -10 64 -13 70 -3 5 -7 16 -8 25 -43 312 -98 680 -104
695 -5 11 -28 157 -50 325 -23 168 -45 314 -50 325 -8 18 -47 283 -82 555 -6
52 -14 97 -17 100 -3 3 -7 14 -8 25 -2 11 -23 161 -48 333 -25 171 -45 323
-45 336 0 13 -4 26 -8 28 -4 2 -29 147 -55 323 -25 176 -55 376 -67 445 -11
69 -31 213 -46 320 -14 107 -28 202 -31 210 -3 8 -7 22 -9 30 -5 29 -82 566
-89 620 -3 30 -10 64 -15 75 -8 19 -21 104 -71 475 -11 85 -25 164 -29 175 -5
11 -18 90 -30 175 -11 85 -27 200 -35 255 -7 55 -17 126 -21 158 -3 31 -9 57
-13 57 -3 0 -7 10 -7 23 -1 12 -12 90 -24 172 -15 106 -27 154 -38 165 -33 29
-2 784 44 1088 9 59 18 116 19 127 1 11 5 27 8 35 3 8 13 67 22 130 21 151 65
382 75 395 4 6 15 46 24 90 31 142 69 290 76 295 4 3 11 21 15 40 11 55 86
304 95 315 4 6 26 68 50 140 23 71 45 132 49 135 4 3 22 48 40 100 19 52 45
118 58 145 14 28 36 79 50 114 13 36 37 90 53 120 16 31 61 124 101 206 41 83
84 167 96 188 13 20 41 73 63 117 22 43 46 85 53 92 12 14 32 49 70 123 11 22
28 49 38 60 9 11 29 43 44 70 15 28 35 59 45 70 9 11 34 49 55 85 22 36 47 74
56 85 10 11 35 46 56 77 93 138 147 214 164 230 10 10 34 42 54 73 20 30 41
55 46 55 5 0 15 12 23 28 8 15 33 47 55 72 23 24 41 47 41 50 0 3 20 26 43 52
24 26 55 62 69 80 87 113 492 530 668 688 40 36 85 76 99 90 14 13 59 52 99
85 41 33 99 81 130 108 31 26 75 61 97 77 22 17 51 41 65 53 14 13 48 39 75
57 28 19 55 39 60 46 6 6 39 31 75 54 36 24 67 46 70 50 4 5 46 34 120 84 14
9 81 54 150 100 69 46 141 91 160 101 18 10 40 24 48 32 8 8 46 30 85 49 39
20 77 42 85 50 8 8 54 36 103 62 49 26 133 70 187 99 53 29 122 64 152 78 30
14 91 44 135 67 44 22 111 53 150 68 39 15 86 37 105 48 19 11 76 34 125 52
50 18 92 36 95 41 3 4 59 26 125 49 66 22 138 49 160 60 22 10 96 36 165 57
69 20 127 41 130 44 3 4 75 26 160 48 85 23 163 46 172 51 20 11 356 90 384
90 11 0 24 4 30 10 11 11 340 73 484 91 52 7 97 15 100 20 5 7 300 42 505 59
494 40 1137 36 1600 -10 213 -22 371 -42 390 -50 11 -5 72 -16 135 -25 159
-22 442 -75 455 -85 5 -4 46 -15 90 -24 153 -31 305 -69 305 -78 0 -4 7 -8 17
-8 23 0 272 -69 308 -86 17 -7 95 -34 175 -60 80 -25 147 -49 150 -53 3 -4 61
-26 129 -50 67 -23 130 -48 138 -56 8 -8 20 -15 27 -15 16 0 182 -67 210 -85
11 -7 56 -27 98 -44 77 -30 118 -50 128 -62 3 -3 49 -25 103 -49 53 -23 97
-46 97 -50 0 -4 33 -22 72 -40 40 -18 84 -40 98 -50 14 -10 61 -37 105 -60 44
-23 87 -47 95 -54 8 -7 50 -32 93 -55 42 -23 77 -46 77 -50 0 -4 19 -16 43
-28 23 -11 62 -36 87 -55 25 -18 72 -49 104 -68 33 -18 67 -41 75 -49 9 -9 46
-35 83 -59 37 -24 68 -47 70 -51 2 -3 32 -26 68 -50 36 -24 70 -49 75 -55 6
-7 30 -26 55 -43 25 -17 56 -41 70 -55 14 -13 49 -41 78 -62 28 -21 52 -42 52
-47 0 -4 11 -14 24 -21 45 -24 345 -298 539 -491 144 -145 468 -504 476 -530
2 -6 12 -18 23 -25 10 -7 36 -40 58 -73 23 -32 44 -59 48 -59 4 0 16 -14 26
-31 10 -18 50 -72 87 -121 38 -50 69 -93 69 -97 0 -4 14 -23 31 -42 17 -19 39
-50 50 -70 10 -21 24 -43 32 -51 8 -7 33 -45 57 -83 24 -39 54 -83 65 -100 12
-16 38 -60 58 -96 20 -36 52 -89 72 -118 19 -29 35 -58 35 -64 0 -5 10 -24 23
-41 13 -17 43 -69 67 -116 23 -47 54 -101 66 -120 13 -19 24 -38 24 -42 0 -4
31 -72 69 -150 38 -79 74 -160 82 -180 7 -21 16 -38 20 -38 3 0 19 -35 34 -77
15 -43 38 -100 51 -128 40 -88 55 -128 85 -219 16 -49 33 -94 38 -100 10 -12
75 -220 86 -273 4 -18 10 -33 14 -33 4 0 13 -19 18 -42 6 -24 20 -77 31 -118
11 -41 25 -102 32 -135 7 -33 16 -65 21 -71 10 -13 70 -294 90 -419 6 -44 15
-84 20 -90 23 -30 87 -628 110 -1025 12 -206 4 -587 -13 -608 -9 -10 -7 -18 8
-33 19 -18 19 -25 9 -87 -6 -37 -14 -74 -17 -82 -4 -8 -25 -150 -48 -315 -22
-165 -45 -309 -49 -320 -5 -11 -23 -126 -41 -255 -17 -129 -38 -266 -46 -305
-8 -38 -16 -77 -18 -85 -2 -8 -6 -22 -9 -30 -20 -47 -79 -450 -83 -565 -3 -71
-9 -139 -14 -150 -5 -11 -25 -137 -45 -280 -19 -143 -40 -285 -46 -315 -5 -30
-33 -206 -60 -390 -57 -374 -54 -359 -62 -380 -2 -8 -23 -152 -46 -320 -23
-168 -46 -314 -51 -325 -5 -11 -27 -159 -50 -330 -22 -170 -45 -319 -50 -330
-5 -11 -27 -155 -50 -320 -22 -165 -47 -329 -55 -365 -8 -36 -33 -200 -56
-365 -22 -165 -44 -309 -49 -320 -5 -11 -13 -56 -19 -100 -37 -287 -73 -533
-80 -550 -27 -65 -31 -79 -31 -109 0 -19 6 -39 13 -45 8 -6 117 -22 243 -35
126 -14 297 -32 379 -41 83 -9 159 -20 170 -25 11 -4 155 -22 320 -39 165 -18
330 -36 367 -41 36 -6 73 -7 82 -4 22 9 32 50 57 252 19 149 25 182 38 182 26
0 144 -30 155 -39 49 -40 854 -42 941 -2 11 5 47 14 80 21 83 17 219 67 246
91 13 11 37 29 54 39 65 40 120 120 194 282 20 44 71 242 86 335 4 24 10 45
15 48 4 3 11 26 15 52 14 100 76 400 89 433 7 19 32 132 55 250 23 118 46 222
51 231 5 9 12 43 15 75 l7 59 79 24 c43 13 80 27 81 31 2 3 31 21 65 40 107
56 248 192 337 326 49 72 116 215 116 247 0 6 7 25 15 41 43 81 71 334 55 494
-9 100 -38 242 -50 252 -3 3 -12 21 -20 40 -21 55 -71 141 -104 180 -99 114
-225 210 -278 210 -20 0 -23 12 -9 38 9 16 37 262 61 527 34 386 36 819 5 995
-15 86 -48 189 -63 199 -5 3 -19 22 -33 42 -28 42 -99 102 -146 124 -18 8 -84
30 -145 48 -62 17 -115 35 -118 39 -3 4 -98 26 -210 49 -113 23 -206 45 -208
50 -2 5 -11 9 -20 9 -30 0 -325 69 -382 89 -30 11 -76 22 -101 26 -37 5 -46 9
-43 23 2 9 13 91 25 182 12 91 25 170 29 175 5 6 14 61 21 123 11 96 15 112
30 112 25 0 43 35 30 58 -5 10 -20 23 -33 29 -13 6 -198 25 -413 43 -214 17
-411 34 -437 37 l-47 5 0 312 c-1 296 -10 532 -30 711 -5 44 -16 150 -26 235
-9 85 -20 164 -25 175 -4 11 -13 58 -19 105 -35 257 -69 443 -97 530 -13 41
-35 131 -49 200 -14 69 -30 134 -35 145 -5 11 -21 65 -35 120 -29 109 -60 208
-75 240 -6 11 -19 52 -30 90 -12 39 -24 77 -27 85 -8 18 -7 17 -17 60 -5 19
-23 66 -41 105 -18 39 -40 96 -50 126 -10 30 -26 72 -35 94 -10 22 -37 87 -59
145 -23 57 -46 107 -50 110 -5 3 -25 47 -46 99 -32 83 -67 156 -96 201 -5 8
-20 40 -34 70 -14 30 -29 62 -34 70 -6 8 -28 53 -51 100 -23 46 -45 87 -49 90
-4 3 -30 48 -58 100 -63 121 -233 400 -261 430 -12 13 -22 28 -22 32 0 12
-103 167 -129 195 -12 12 -21 26 -21 32 0 5 -4 11 -9 13 -7 3 -84 115 -118
172 -7 12 -13 17 -13 11 0 -5 -17 15 -37 45 -35 53 -118 156 -151 189 -8 9
-27 34 -41 56 -14 22 -40 56 -58 75 -27 30 -106 119 -243 275 -103 116 -374
390 -490 495 -46 41 -111 100 -144 132 -34 31 -86 76 -116 99 -30 24 -61 52
-68 61 -7 10 -40 36 -72 58 -32 22 -65 48 -72 58 -7 10 -35 33 -63 52 -27 18
-67 49 -88 67 -21 19 -60 47 -87 64 -28 17 -50 34 -50 37 0 4 -24 23 -53 42
-28 19 -64 45 -79 59 -16 14 -28 21 -28 17 0 -4 -6 -2 -12 4 -56 46 -141 106
-180 126 -25 13 -59 35 -75 50 -15 14 -59 42 -98 61 -38 20 -74 42 -78 49 -5
8 -45 33 -89 55 -45 23 -87 47 -94 53 -7 7 -49 33 -95 57 -45 24 -109 59 -143
77 -34 19 -119 63 -191 99 -71 36 -137 71 -145 78 -8 7 -47 24 -87 38 -40 15
-91 38 -113 52 -22 14 -83 41 -135 59 -52 19 -101 41 -110 49 -8 8 -72 34
-142 58 -71 23 -130 45 -133 49 -10 14 -48 29 -170 65 -69 20 -129 40 -135 44
-15 12 -120 47 -214 71 -45 11 -90 25 -99 30 -22 12 -186 57 -289 81 -45 10
-90 22 -100 27 -10 5 -38 13 -63 17 -25 3 -85 17 -135 30 -49 12 -126 28 -170
35 -44 7 -84 16 -90 20 -5 4 -64 15 -130 24 -66 9 -151 23 -190 31 -38 8 -124
22 -190 30 -66 8 -149 19 -185 24 -62 10 -363 32 -690 51 -143 9 -362 10 -585
3z m655 -115 c255 -11 581 -41 800 -72 278 -41 503 -77 511 -82 4 -2 49 -13
101 -24 268 -57 370 -82 553 -133 1167 -326 2233 -874 3160 -1625 442 -358
931 -853 1263 -1277 330 -421 529 -720 787 -1180 144 -256 353 -710 467 -1010
160 -423 238 -688 362 -1230 30 -127 79 -409 95 -540 6 -49 16 -121 21 -160
23 -163 41 -398 51 -662 10 -269 10 -535 -1 -547 -3 -2 -49 -2 -102 1 l-97 6
5 76 c6 84 0 167 -46 566 -69 614 -195 1243 -339 1700 -10 33 -49 182 -85 330
-58 234 -80 308 -104 349 -3 5 1 5 9 0 11 -6 10 -3 -2 16 -26 42 -70 161 -63
172 4 7 2 8 -4 4 -8 -4 -12 0 -12 12 0 10 -3 22 -7 25 -3 4 -14 28 -23 54 -17
47 -79 187 -145 328 -19 39 -42 90 -53 115 -11 25 -36 80 -56 123 -20 43 -34
83 -30 90 4 7 3 9 -1 4 -5 -4 -26 34 -48 85 -21 51 -61 140 -89 198 -28 58
-57 119 -64 137 -29 68 -183 302 -278 423 -380 483 -838 948 -1271 1290 -122
96 -183 146 -255 210 -41 36 -104 88 -140 116 -36 27 -70 54 -76 59 -47 40
-233 176 -329 240 -129 86 -257 167 -295 188 -50 28 -81 45 -115 67 -16 11
-43 26 -60 34 -16 8 -55 29 -85 47 -30 18 -89 50 -130 72 -41 22 -118 62 -170
90 -185 98 -714 347 -738 347 -4 0 -13 5 -20 12 -6 6 -20 13 -31 15 -10 1 -47
15 -82 31 -35 16 -111 48 -169 71 -58 24 -114 47 -125 52 -53 23 -321 118
-500 176 -110 36 -207 67 -215 70 -8 3 -22 7 -30 8 -8 1 -55 14 -105 28 -272
77 -512 109 -798 105 -289 -3 -320 -1 -437 16 -125 18 -451 53 -570 61 -336
21 -1101 28 -1300 11 -19 -2 -87 -6 -150 -10 -127 -8 -146 -10 -305 -31 -238
-32 -406 -62 -610 -110 -82 -19 -161 -38 -174 -41 -13 -3 -32 -9 -41 -14 -10
-5 -20 -7 -23 -3 -4 3 -13 1 -21 -6 -8 -6 -18 -11 -22 -10 -5 1 -16 -1 -24 -4
-8 -3 -51 -17 -95 -31 -202 -64 -547 -190 -600 -219 -11 -6 -22 -12 -25 -12
-17 -5 -65 -27 -70 -34 -16 -23 -135 -76 -215 -95 -87 -21 -347 -115 -469
-169 -98 -44 -217 -111 -306 -174 -41 -29 -84 -58 -94 -65 -11 -7 -47 -35 -80
-63 -70 -57 -151 -115 -161 -115 -4 0 -60 -32 -125 -71 -66 -39 -122 -70 -125
-70 -3 1 -13 -6 -22 -14 -10 -9 -54 -41 -98 -72 -105 -72 -200 -150 -301 -244
-44 -43 -110 -98 -145 -124 -35 -26 -66 -50 -69 -54 -3 -3 -34 -31 -70 -61
-36 -30 -70 -59 -76 -65 -176 -161 -254 -230 -254 -222 0 2 -15 -8 -32 -24
-18 -15 -62 -51 -98 -79 -78 -61 -350 -329 -350 -344 0 -6 -28 -42 -61 -79
-46 -51 -59 -71 -50 -80 21 -21 11 -38 -81 -130 -51 -51 -120 -124 -153 -162
-33 -39 -96 -111 -140 -161 -147 -166 -405 -497 -405 -519 0 -3 -15 -27 -32
-53 -18 -26 -60 -98 -94 -159 -33 -62 -64 -110 -69 -105 -4 4 -5 2 -1 -5 7
-12 -11 -52 -29 -65 -5 -4 -7 -8 -2 -8 4 0 -3 -17 -16 -37 -13 -21 -32 -59
-43 -85 -10 -25 -21 -45 -24 -43 -3 2 -7 -6 -7 -17 -1 -12 -6 -24 -10 -27 -11
-8 -73 -144 -73 -159 0 -7 -5 -12 -11 -12 -5 0 -7 -4 -4 -10 3 -5 3 -10 -2
-10 -4 0 -13 -15 -19 -32 -7 -18 -48 -122 -93 -230 -44 -108 -81 -201 -81
-206 0 -5 -10 -31 -22 -58 -12 -27 -21 -55 -19 -63 1 -7 -2 -10 -8 -6 -6 3
-11 -2 -11 -13 0 -11 -7 -37 -16 -58 -16 -37 -81 -218 -124 -346 -11 -32 -20
-64 -20 -73 0 -9 -6 -26 -14 -38 -8 -12 -23 -51 -34 -87 -12 -36 -37 -114 -56
-175 -88 -279 -144 -474 -236 -830 -21 -82 -132 -555 -154 -655 -13 -63 -39
-173 -56 -245 -33 -136 -78 -349 -85 -400 -9 -74 -28 -165 -33 -165 -9 0 7
507 23 715 29 369 107 899 171 1158 120 490 135 542 248 877 325 962 842 1881
1506 2675 359 430 851 911 1258 1228 297 233 533 399 852 599 154 97 492 286
670 375 164 81 375 178 475 219 61 25 119 51 130 58 11 7 38 19 60 26 22 7
101 36 175 65 389 151 897 299 1370 399 276 58 646 112 1085 156 260 27 752
35 1125 18z m-8940 -8843 c88 -46 130 -203 255 -965 22 -133 43 -233 57 -262
17 -39 19 -50 8 -63 -36 -43 -91 11 -113 112 -9 38 -29 156 -47 263 -66 418
-82 509 -110 627 -33 139 -64 213 -89 213 -20 0 -41 19 -41 37 0 13 35 53 45
53 4 0 19 -7 35 -15z m16888 -107 c17 -17 15 -35 -8 -66 -28 -39 -125 -432
-191 -772 -36 -193 -59 -245 -104 -245 -27 0 -30 3 -29 30 1 17 9 57 18 90 9
33 32 137 52 230 52 250 151 640 173 684 11 20 30 42 43 48 30 15 32 15 46 1z
m-18578 -668 c0 -6 -11 -34 -25 -63 -68 -138 -105 -471 -135 -1212 -12 -306
-19 -412 -41 -665 -16 -186 -51 -355 -91 -434 -35 -70 -72 -96 -136 -96 -49 0
-118 47 -137 94 -8 18 -37 215 -65 437 -28 222 -52 420 -55 439 -13 101 -26
280 -35 505 -23 533 24 752 180 850 46 29 183 75 350 119 141 36 190 43 190
26z m20612 -35 c234 -63 325 -102 378 -161 41 -47 77 -126 96 -207 24 -100 35
-342 24 -521 -5 -89 -14 -241 -20 -338 -5 -98 -12 -195 -15 -215 -3 -21 -16
-132 -30 -248 -45 -370 -88 -603 -147 -800 -24 -81 -37 -106 -68 -137 -73 -74
-152 -38 -200 89 -31 83 -67 258 -81 403 -15 142 -17 640 -7 1250 5 312 3 433
-7 527 -15 128 -56 317 -80 365 -12 26 -12 28 5 28 11 0 79 -16 152 -35z
m-21290 -2156 c62 -495 211 -1495 233 -1556 6 -18 6 -18 -90 21 -98 40 -172
94 -273 200 -125 132 -187 241 -241 427 -101 349 -44 704 147 911 65 70 176
152 196 145 5 -2 18 -68 28 -148z m21861 102 c98 -67 208 -211 247 -324 93
-264 68 -599 -65 -873 -87 -180 -243 -343 -400 -419 -118 -57 -139 -63 -131
-38 11 35 115 679 141 868 14 105 36 271 50 370 14 99 32 239 41 310 8 72 17
136 19 142 5 17 42 3 98 -36z"/>
<path d="M6040 8756 c-58 -7 -112 -15 -120 -18 -8 -4 -67 -14 -130 -23 -154
-22 -371 -64 -393 -76 -9 -5 -101 -30 -205 -55 -103 -25 -191 -50 -197 -54 -5
-4 -70 -26 -144 -50 -74 -23 -144 -47 -155 -55 -12 -7 -66 -30 -121 -51 -55
-21 -107 -43 -115 -50 -8 -6 -59 -31 -113 -54 -53 -23 -100 -46 -103 -51 -3
-5 -50 -32 -104 -59 -55 -29 -102 -59 -105 -69 -7 -24 3 -48 22 -56 16 -6 193
72 193 85 0 4 28 20 63 35 34 16 103 47 152 70 50 24 119 53 155 66 36 13 67
26 70 30 7 9 191 73 258 89 28 6 52 15 52 20 0 4 80 27 178 51 97 24 179 46
182 50 6 9 275 64 385 79 44 6 89 15 100 20 83 36 564 50 870 25 116 -9 214
-21 219 -26 6 -5 34 -9 64 -9 44 0 57 4 73 23 22 27 24 41 4 57 -15 13 -19 13
-160 25 -49 5 -92 11 -95 15 -9 12 -322 30 -500 29 -96 -1 -222 -7 -280 -13z"/>
<path d="M9378 8651 c-7 -2 -16 -9 -20 -15 -10 -15 -10 -54 0 -60 4 -2 50 -12
102 -21 52 -8 104 -20 115 -25 11 -5 106 -28 210 -51 105 -23 192 -45 193 -50
2 -5 10 -9 19 -9 23 0 337 -90 343 -99 3 -4 59 -25 124 -47 66 -21 124 -44
130 -49 6 -6 58 -28 116 -49 58 -21 115 -44 127 -52 12 -7 69 -32 128 -53 58
-22 118 -47 133 -56 15 -8 68 -31 119 -50 79 -30 96 -33 118 -23 30 13 33 48
8 70 -10 9 -63 32 -118 52 -55 21 -109 43 -120 50 -11 7 -65 30 -120 50 -55
21 -110 44 -122 52 -13 8 -65 29 -116 48 -51 19 -116 45 -143 59 -27 13 -101
41 -164 62 -63 21 -120 41 -126 46 -6 5 -82 27 -169 50 -86 22 -165 45 -174
50 -18 10 -437 99 -469 99 -11 0 -23 4 -26 9 -6 10 -77 19 -98 12z"/>
<path d="M16090 8563 c-69 -14 -127 -27 -129 -29 -17 -15 24 -12 125 10 65 14
130 26 144 26 28 0 54 -22 64 -55 13 -43 43 -332 39 -367 -5 -37 59 -547 65
-518 1 9 -11 126 -27 262 -16 136 -27 257 -24 268 6 22 -11 201 -29 308 -12
71 -46 123 -81 121 -12 -1 -78 -12 -147 -26z"/>
<path d="M14750 8264 c-91 -19 -172 -38 -181 -43 -8 -5 -112 -28 -230 -50
-118 -23 -221 -46 -230 -51 -9 -4 -119 -29 -245 -55 -126 -25 -237 -50 -246
-55 -10 -6 -26 -10 -35 -11 -10 0 -13 -3 -8 -5 10 -4 126 20 645 135 702 155
776 173 714 170 -10 0 -93 -16 -184 -35z"/>
<path d="M16055 8045 c-38 -14 -19 -13 38 1 l24 5 7 -158 c3 -87 13 -236 22
-332 12 -129 13 -175 5 -181 -7 -3 -85 -24 -174 -45 -89 -21 -166 -41 -172
-45 -5 -5 -95 -29 -200 -55 -104 -26 -194 -50 -200 -55 -5 -4 -91 -27 -190
-51 -188 -45 -192 -46 -183 -54 6 -7 174 35 528 133 140 39 336 91 435 117 99
26 181 49 183 50 2 1 -4 70 -12 151 -12 124 -25 281 -39 494 -2 41 -15 45 -72
25z"/>
<path d="M15780 7974 c-91 -24 -334 -87 -540 -139 -206 -52 -465 -119 -575
-150 -110 -30 -295 -81 -412 -112 -117 -32 -210 -59 -208 -61 5 -6 359 81 365
89 3 4 82 26 175 49 94 23 184 48 200 55 30 13 330 85 354 85 7 0 27 7 44 15
18 7 113 33 212 55 99 23 189 45 200 51 21 9 271 72 338 84 20 4 37 11 37 16
0 13 -11 11 -190 -37z"/>
<path d="M16683 7859 c-105 -10 -125 -20 -121 -62 3 -32 4 -32 53 -30 218 6
404 2 508 -12 131 -17 252 -41 282 -54 11 -5 61 -19 110 -31 124 -29 225 -61
225 -71 0 -5 7 -9 15 -9 18 0 248 -89 255 -99 3 -4 21 -13 40 -21 49 -19 154
-71 160 -80 3 -3 42 -26 88 -50 45 -24 82 -46 82 -50 0 -3 20 -16 43 -29 61
-33 97 -24 97 24 0 31 -5 37 -49 60 -27 13 -52 29 -56 34 -3 6 -47 33 -98 61
-50 28 -103 58 -117 66 -66 37 -265 125 -350 155 -52 18 -97 36 -100 40 -6 8
-236 73 -320 90 -30 6 -59 15 -65 19 -14 10 -205 38 -345 50 -130 11 -217 11
-337 -1z"/>
<path d="M12690 7636 c-107 -18 -202 -35 -210 -39 -8 -3 -82 -18 -165 -32
-224 -38 -308 -55 -330 -65 -11 -6 -103 -31 -205 -56 -102 -25 -189 -49 -195
-54 -5 -4 -26 -12 -45 -18 -136 -39 -247 -75 -256 -83 -6 -5 -68 -29 -137 -54
-70 -24 -137 -51 -149 -59 -13 -8 -66 -31 -118 -52 -52 -21 -97 -41 -100 -45
-3 -3 -48 -25 -100 -47 -113 -49 -490 -239 -541 -273 -19 -13 -64 -37 -100
-54 -35 -16 -70 -36 -78 -43 -7 -7 -52 -33 -100 -58 -47 -25 -129 -70 -181
-99 -52 -29 -131 -72 -175 -95 -44 -24 -82 -46 -85 -50 -3 -4 -43 -27 -90 -51
-47 -25 -98 -54 -114 -64 -62 -42 -436 -237 -531 -278 -27 -11 -52 -24 -55
-28 -5 -7 -156 -71 -200 -84 -13 -4 -30 -13 -36 -20 -7 -7 -61 -30 -121 -51
-59 -21 -128 -48 -153 -60 -25 -12 -94 -37 -155 -56 -60 -18 -112 -36 -115
-40 -7 -8 -288 -88 -312 -88 -9 0 -18 -4 -20 -8 -5 -13 -226 -65 -413 -97 -22
-4 -44 -10 -50 -15 -16 -13 -356 -58 -535 -71 -194 -14 -526 -7 -715 15 -149
18 -291 42 -320 56 -11 5 -72 21 -135 35 -117 26 -251 64 -260 74 -3 3 -43 19
-90 34 -47 16 -112 41 -145 57 -256 121 -307 150 -361 201 -34 33 -54 31 -74
-6 -11 -20 -10 -26 3 -40 9 -9 22 -24 30 -35 7 -10 46 -38 87 -61 41 -24 77
-46 80 -50 3 -4 43 -23 90 -42 47 -20 108 -47 135 -61 28 -14 97 -42 155 -62
58 -20 107 -40 110 -44 3 -4 86 -26 185 -50 99 -24 185 -46 190 -50 13 -10
239 -46 375 -60 284 -29 615 -22 940 20 218 28 245 33 250 39 3 4 102 26 220
50 118 23 220 47 225 51 6 5 89 30 185 56 96 26 177 50 180 54 3 4 66 27 140
50 74 23 137 46 140 49 3 4 55 25 115 46 61 21 124 46 140 56 17 9 75 35 130
57 55 22 116 49 135 60 19 12 68 35 109 52 40 17 79 36 85 41 6 5 52 30 101
55 124 62 268 140 281 152 7 6 49 29 95 53 46 23 86 45 89 50 3 4 44 27 90 51
47 24 99 53 117 66 17 12 62 37 100 54 37 17 71 35 74 40 6 9 128 78 274 154
50 25 92 50 95 55 3 4 46 27 95 50 50 23 97 48 105 54 8 7 53 29 100 50 47 22
92 44 100 51 8 7 55 29 105 49 49 21 112 50 140 65 27 15 84 40 125 56 41 16
78 32 81 37 3 4 57 26 120 48 63 22 132 48 154 59 22 10 94 35 160 55 66 20
128 41 139 46 10 6 42 17 70 24 28 8 94 25 146 39 52 14 105 26 118 26 12 0
22 4 22 8 0 9 188 50 355 77 55 9 109 20 120 25 18 8 166 33 419 71 51 8 86
19 98 31 34 34 16 79 -31 77 -15 -1 -114 -16 -221 -33z"/>
<path d="M15995 7256 c-222 -60 -428 -116 -645 -176 -102 -28 -275 -74 -385
-101 -306 -77 -609 -161 -832 -232 -111 -35 -206 -61 -211 -58 -11 7 -36 129
-53 256 -6 50 -16 94 -20 100 -13 14 -11 -5 17 -170 32 -186 35 -204 83 -505
86 -530 100 -603 119 -624 83 -93 78 -263 -14 -453 -51 -108 -127 -191 -214
-237 -74 -40 -185 -48 -252 -18 -68 30 -121 84 -153 153 -38 85 -33 175 14
271 55 112 178 231 287 279 24 11 44 23 44 27 0 4 -11 68 -24 142 -27 150 -33
141 -11 -15 19 -130 19 -132 -7 -139 -27 -6 -181 -114 -187 -129 -2 -6 -20
-28 -41 -49 -20 -21 -50 -66 -66 -101 -16 -34 -33 -65 -39 -69 -5 -4 -10 -47
-10 -95 1 -84 2 -91 39 -154 40 -66 104 -121 160 -135 14 -3 26 -10 26 -15 0
-5 32 -9 70 -9 40 0 70 4 70 10 0 6 7 10 16 10 37 0 132 57 182 109 67 70 111
145 141 241 13 41 29 85 34 97 6 13 10 55 10 95 0 62 -5 83 -33 138 -18 36
-36 67 -40 70 -5 3 -14 46 -20 95 -6 50 -15 99 -20 110 -5 11 -18 83 -30 160
-11 77 -27 181 -35 230 -7 50 -17 117 -21 150 -3 33 -10 65 -14 70 -4 6 -11
28 -14 50 -6 35 -4 41 11 41 25 1 317 85 323 94 5 7 242 72 310 86 19 3 40 10
45 14 12 10 168 50 315 81 58 12 107 25 110 29 3 4 86 26 185 50 99 24 185 46
190 51 6 4 85 26 175 49 91 22 174 45 185 50 32 16 389 101 401 96 7 -3 15
-43 19 -97 4 -51 11 -100 16 -109 4 -8 15 -76 23 -150 35 -320 67 -576 76
-595 9 -22 25 -153 65 -535 15 -140 29 -262 32 -270 7 -18 4 2 42 -300 17
-135 38 -310 47 -390 8 -80 19 -154 24 -165 25 -58 21 -68 -48 -119 -174 -127
-266 -411 -177 -547 59 -90 220 -99 320 -17 40 33 96 90 122 124 25 32 83 169
83 195 0 8 5 20 10 25 6 6 13 48 17 93 6 76 4 85 -14 100 -21 17 -26 55 -80
534 -9 86 -21 157 -25 157 -11 0 -12 5 27 -305 20 -154 38 -302 42 -330 3 -27
14 -59 24 -71 18 -19 18 -27 8 -99 -18 -132 -81 -276 -155 -355 -117 -125
-295 -147 -366 -46 -46 64 -34 230 25 354 36 76 139 191 193 217 26 12 32 20
25 29 -6 6 -26 142 -46 300 -19 158 -44 347 -55 419 -10 73 -35 274 -55 447
-19 173 -40 340 -45 370 -15 90 -150 1120 -150 1148 0 18 -19 15 -195 -32z"/>
<path d="M16492 6910 c-1 -14 18 -185 43 -380 70 -550 91 -699 98 -707 10 -10
8 31 -8 142 -8 55 -37 271 -63 480 -27 209 -52 387 -55 395 -3 8 -8 33 -10 55
-2 22 -4 29 -5 15z"/>
<path d="M18090 5444 c-52 -7 -104 -18 -115 -23 -11 -5 -96 -25 -190 -46 -93
-21 -188 -46 -210 -55 -22 -10 -92 -34 -155 -55 -63 -20 -123 -45 -134 -55
-23 -22 -15 -65 12 -72 20 -6 211 51 277 82 45 21 314 90 351 90 13 0 24 4 24
8 0 15 198 44 318 48 62 2 117 6 122 9 6 4 10 19 10 35 0 25 -5 31 -37 39 -50
14 -155 12 -273 -5z"/>
<path d="M4573 4843 c-7 -2 -13 -17 -13 -33 0 -23 10 -34 60 -66 33 -21 60
-41 60 -45 0 -4 29 -24 64 -43 36 -20 71 -42 78 -49 7 -7 50 -34 95 -59 45
-25 88 -52 95 -58 15 -14 127 -75 272 -149 54 -28 104 -55 110 -60 6 -5 54
-28 106 -51 52 -23 97 -45 100 -49 3 -5 50 -25 105 -45 54 -21 117 -46 140
-56 22 -10 103 -37 180 -61 77 -23 142 -45 145 -49 3 -4 84 -26 180 -49 96
-23 183 -46 192 -51 19 -10 544 -100 586 -100 16 0 32 -4 38 -9 5 -5 113 -18
239 -30 127 -12 295 -31 374 -41 130 -18 147 -18 168 -5 41 28 24 75 -28 75
-15 0 -30 4 -33 9 -6 10 -113 24 -351 46 -253 24 -439 47 -450 55 -5 4 -37 11
-70 15 -153 17 -441 71 -460 85 -5 4 -41 13 -80 20 -101 19 -305 75 -340 94
-16 9 -35 16 -42 16 -19 0 -173 50 -218 71 -22 10 -87 36 -144 59 -58 22 -109
45 -115 49 -6 5 -58 30 -115 55 -58 25 -107 49 -110 54 -3 4 -46 27 -96 51
-49 23 -92 46 -95 50 -3 5 -42 27 -87 49 -45 23 -84 46 -88 52 -4 6 -34 24
-68 41 -34 17 -75 41 -92 53 -16 12 -58 39 -93 60 -35 21 -71 46 -80 55 -42
42 -85 58 -119 44z"/>
<path d="M16165 4739 c-38 -17 -77 -36 -85 -43 -8 -8 -52 -32 -97 -55 -45 -22
-84 -45 -88 -51 -4 -6 -39 -27 -78 -46 -40 -20 -81 -44 -92 -54 -11 -10 -56
-37 -100 -60 -99 -52 -105 -57 -105 -86 0 -17 8 -28 27 -35 23 -9 38 -5 100
27 40 20 84 46 98 58 14 12 55 37 92 56 38 19 73 40 78 46 6 7 42 29 80 50 39
20 72 40 75 44 8 11 171 90 186 90 12 0 34 37 34 55 0 9 -33 35 -43 35 -7 -1
-43 -14 -82 -31z"/>
<path d="M13745 4293 c-33 -2 -64 -8 -69 -14 -6 -5 -25 -9 -43 -9 -78 0 -525
-71 -568 -90 -11 -5 -103 -28 -205 -50 -102 -23 -198 -48 -215 -55 -16 -7
-115 -32 -220 -56 -104 -23 -192 -45 -195 -49 -3 -4 -86 -26 -185 -49 -99 -24
-187 -46 -195 -50 -9 -5 -103 -27 -210 -50 -107 -24 -202 -46 -211 -51 -16 -8
-310 -68 -449 -91 -41 -7 -77 -16 -80 -19 -3 -4 -48 -15 -100 -24 -52 -10
-129 -24 -170 -31 -41 -8 -113 -20 -160 -26 -47 -7 -87 -16 -90 -19 -11 -15
-235 -35 -385 -35 -150 0 -253 13 -294 36 -35 19 -95 39 -118 39 -27 0 -46
-35 -32 -61 9 -18 87 -51 159 -69 25 -6 57 -15 71 -21 67 -26 445 -26 504 0
11 5 76 17 145 26 69 9 157 23 195 30 39 8 115 22 170 31 55 10 102 21 105 25
3 3 109 25 235 48 127 23 239 46 250 51 17 7 263 64 375 86 19 3 41 10 50 15
13 7 276 71 390 94 19 4 37 11 40 15 3 4 88 27 190 51 102 24 187 46 190 49 3
3 79 23 170 44 91 21 190 44 220 53 162 43 519 103 615 103 18 0 35 6 38 13 3
9 81 12 347 12 266 0 344 -3 348 -12 2 -7 19 -13 38 -13 80 0 423 -69 449 -90
6 -5 62 -25 125 -45 63 -21 131 -45 150 -56 19 -10 85 -37 145 -60 61 -23 112
-46 115 -50 3 -4 28 -16 55 -27 73 -29 169 -74 175 -81 3 -4 45 -25 94 -46 49
-22 94 -44 100 -50 6 -6 54 -30 106 -54 52 -24 97 -47 100 -51 3 -5 48 -27
100 -50 52 -23 106 -48 118 -57 13 -8 70 -32 125 -53 56 -21 116 -45 132 -53
17 -9 89 -32 160 -53 72 -21 132 -41 135 -45 6 -7 160 -45 315 -79 55 -12 107
-25 116 -30 9 -4 128 -27 265 -49 137 -23 258 -46 269 -51 36 -16 103 -22 124
-10 23 12 29 64 10 76 -17 10 -118 31 -309 64 -307 54 -400 72 -405 80 -3 5
-24 11 -48 15 -71 11 -332 78 -337 86 -3 4 -19 11 -35 14 -64 15 -231 68 -250
79 -11 7 -75 34 -142 60 -68 26 -123 52 -123 57 0 5 -6 9 -12 9 -14 0 -400
189 -408 199 -3 4 -30 17 -60 30 -30 13 -80 36 -110 53 -30 16 -98 48 -150 70
-52 22 -97 44 -100 48 -3 4 -61 28 -130 55 -69 27 -127 51 -130 55 -3 3 -66
25 -140 49 -74 24 -140 47 -146 52 -18 14 -266 66 -379 79 -55 6 -109 16 -119
22 -20 10 -491 19 -601 11z"/>
<path d="M4610 3102 c-19 -15 -20 -21 -10 -43 6 -13 22 -31 34 -39 64 -40 112
-74 121 -85 6 -7 38 -29 73 -49 34 -21 68 -43 75 -50 6 -6 40 -29 75 -50 34
-20 68 -43 75 -51 7 -7 46 -35 87 -61 169 -113 209 -141 251 -176 24 -20 51
-37 59 -38 31 -5 48 0 54 16 13 33 -7 65 -63 104 -31 22 -67 48 -81 58 -33 24
-126 86 -207 138 -36 22 -68 45 -71 50 -4 5 -40 29 -81 54 -40 24 -78 49 -85
55 -6 6 -40 28 -76 49 -36 22 -69 44 -75 50 -13 16 -96 71 -117 79 -10 3 -26
-2 -38 -11z"/>
<path d="M12985 2494 c-17 -8 -52 -32 -80 -54 -27 -22 -70 -55 -94 -72 -24
-18 -60 -48 -80 -65 -20 -18 -39 -33 -43 -33 -4 0 -31 -19 -60 -43 -29 -24
-75 -58 -103 -77 -27 -19 -57 -41 -65 -49 -8 -8 -41 -31 -72 -51 -31 -20 -63
-44 -72 -53 -9 -8 -44 -33 -78 -53 -35 -21 -69 -44 -76 -51 -7 -7 -34 -25 -60
-40 -26 -14 -67 -41 -92 -58 -68 -48 -330 -197 -420 -240 -30 -14 -93 -45
-140 -69 -47 -24 -119 -56 -160 -71 -41 -16 -77 -32 -80 -36 -3 -4 -64 -26
-135 -49 -72 -23 -141 -47 -155 -55 -27 -14 -204 -57 -315 -76 -38 -7 -72 -16
-75 -19 -6 -8 -173 -35 -310 -50 -153 -18 -703 -24 -895 -11 -189 13 -514 49
-529 58 -5 4 -76 17 -157 29 -86 13 -157 29 -172 39 -49 31 -87 -19 -57 -75 5
-10 25 -23 42 -29 35 -11 351 -61 385 -61 12 0 23 -4 25 -9 3 -9 266 -37 488
-51 189 -12 506 -12 695 0 173 11 418 40 425 49 3 4 48 15 100 24 146 27 325
70 328 79 2 4 10 8 17 8 20 0 299 91 305 100 3 4 55 27 115 50 61 24 112 47
115 51 3 4 50 27 105 50 55 23 107 48 115 55 8 7 53 31 99 54 46 23 91 48 99
56 8 8 36 26 63 39 27 14 81 47 121 74 40 26 87 57 104 67 65 40 160 103 176
117 9 8 49 38 90 66 127 89 182 130 208 154 14 13 45 37 70 54 25 17 59 42 75
57 26 22 107 86 239 189 62 48 38 114 -29 81z"/>
</g>
</svg>
