<?xml version="1.0" standalone="no"?>
<!DOCTYPE svg PUBLIC "-//W3C//DTD SVG 20010904//EN"
 "http://www.w3.org/TR/2001/REC-SVG-20010904/DTD/svg10.dtd">
<svg version="1.0" xmlns="http://www.w3.org/2000/svg"
 width="1920.000000pt" height="2503.000000pt" viewBox="0 0 1920.000000 2503.000000"
 preserveAspectRatio="xMidYMid meet">
<metadata>
Created by potrace 1.16, written by Peter Selinger 2001-2019
</metadata>
<g transform="translate(0.000000,2503.000000) scale(0.100000,-0.100000)"
fill="#000000" stroke="none">
<path d="M9655 25006 c-214 -35 -225 -42 -204 -128 15 -56 7 -67 -46 -68 -16
0 -40 -3 -53 -6 -21 -6 -22 -5 -11 19 26 58 -14 101 -72 77 -22 -9 -33 -25
-46 -61 -17 -47 -18 -48 -41 -33 -32 21 -60 10 -54 -21 4 -24 3 -25 -53 -25
-55 0 -61 -2 -127 -57 -259 -212 -408 -545 -408 -915 0 -62 -4 -108 -10 -108
-19 0 -229 94 -353 158 -92 47 -129 72 -131 87 -3 11 -9 101 -15 200 -12 187
-37 339 -65 394 -24 46 -89 106 -144 132 -68 33 -189 38 -263 10 -142 -54
-216 -187 -193 -348 7 -55 8 -56 14 -23 l7 35 11 -28 c15 -35 15 -74 2 -82
-16 -10 53 -132 122 -214 58 -69 155 -160 238 -222 l34 -26 -12 -479 c-24
-928 -81 -1735 -178 -2484 -34 -265 -99 -657 -128 -772 -52 -206 -128 -352
-245 -469 -163 -163 -355 -207 -576 -131 -116 40 -213 101 -308 191 -209 200
-323 436 -357 743 -7 62 -19 117 -31 139 -25 47 -24 58 3 51 l21 -5 -6 214
c-4 118 -13 284 -22 369 -27 277 -20 252 -78 301 -55 45 -93 87 -103 112 -5
13 -1 14 33 2 21 -7 53 -15 71 -18 39 -8 38 -24 12 203 -49 443 -70 950 -73
1814 l-2 428 45 36 c93 74 249 239 299 317 l51 80 -44 3 c-37 3 -44 6 -39 20
16 46 65 55 79 15 9 -27 10 -26 33 32 29 75 38 193 20 255 l-13 45 -6 -45 c-5
-42 -6 -43 -18 -23 -6 12 -12 42 -12 67 0 36 -5 48 -26 65 -97 76 -251 45
-406 -83 -77 -64 -111 -125 -152 -271 -68 -240 -83 -554 -67 -1385 17 -872 24
-991 101 -1676 86 -766 80 -1099 -26 -1323 -15 -31 -30 -76 -34 -101 -4 -25
-11 -53 -15 -62 -6 -15 -2 -18 24 -18 41 0 50 -34 27 -107 -17 -53 -15 -103 3
-103 20 0 109 81 146 133 22 31 42 56 45 56 3 1 29 -45 58 -102 68 -133 156
-257 182 -257 11 0 20 7 20 16 0 8 5 12 11 9 6 -4 8 -14 5 -22 -3 -8 3 -27 14
-43 11 -15 20 -34 20 -42 0 -7 22 -32 49 -55 125 -108 280 -195 428 -239 76
-23 107 -27 228 -28 165 -1 225 12 360 78 193 95 341 263 444 502 33 76 49
123 87 257 4 11 0 17 -10 17 -9 0 -16 -7 -16 -16 0 -9 -6 -14 -12 -11 -8 2
-13 21 -13 46 0 46 20 67 54 56 15 -4 19 1 24 32 3 21 21 135 40 253 47 289
47 292 19 306 -21 11 -22 13 -7 28 9 9 23 16 31 16 9 0 14 11 14 30 0 23 -5
31 -24 36 -14 3 -34 3 -45 -1 -27 -8 -29 25 -3 49 17 15 22 15 48 2 15 -9 29
-14 30 -13 4 4 42 341 63 562 36 364 91 1122 91 1246 0 33 -2 36 -25 31 -20
-3 -25 0 -25 15 0 28 -38 73 -61 73 -12 0 -21 -9 -25 -27 -7 -25 -8 -25 -21
-7 -16 22 -57 154 -49 161 6 6 117 -26 132 -38 6 -5 18 -3 29 4 14 11 15 17 6
35 -18 33 -13 49 18 60 39 14 39 13 46 382 4 168 8 306 9 308 2 1 59 -24 127
-57 68 -32 185 -82 260 -111 l137 -52 27 -107 c54 -210 184 -566 320 -876 100
-230 236 -503 250 -501 8 0 14 -3 13 -9 0 -5 -4 -9 -9 -7 -5 1 4 -22 20 -50
15 -29 59 -109 97 -178 37 -69 169 -298 293 -510 363 -622 482 -875 498 -1067
5 -64 4 -75 -8 -70 -8 3 -59 26 -114 50 -305 136 -631 194 -863 153 -347 -61
-562 -285 -562 -586 1 -103 12 -154 52 -240 36 -74 126 -171 202 -215 124 -72
279 -102 445 -85 158 17 405 94 416 131 5 14 12 18 26 14 13 -4 52 11 114 44
154 80 234 138 341 246 l102 101 55 -28 c86 -43 197 -85 285 -108 114 -28 116
-28 109 19 -4 36 -2 41 22 50 14 6 36 18 48 27 21 15 23 15 30 -2 4 -11 -3
-36 -21 -67 -15 -27 -24 -52 -21 -56 4 -3 59 -6 123 -5 159 0 352 44 352 80 0
19 37 36 61 29 23 -8 85 26 173 93 125 96 251 240 348 398 28 47 55 87 58 89
4 2 19 -26 34 -62 86 -208 224 -367 391 -448 97 -47 190 -67 312 -67 93 0 103
-2 109 -20 15 -48 130 -201 206 -273 209 -200 450 -296 788 -312 266 -12 517
30 965 161 240 71 596 159 815 202 107 21 196 39 198 40 2 1 -2 13 -9 25 -10
20 -9 25 15 44 34 27 33 36 -6 33 -30 -3 -33 0 -30 22 1 13 11 34 22 45 11 12
20 27 20 33 0 7 7 12 15 12 8 0 15 -9 15 -20 0 -14 7 -20 21 -20 19 0 21 -4
16 -37 -4 -23 -17 -47 -32 -60 -32 -28 -32 -41 2 -54 20 -7 74 -4 212 15 287
39 468 49 736 43 338 -8 557 -45 776 -132 210 -83 376 -217 452 -362 73 -141
96 -317 62 -478 -26 -123 -14 -179 45 -210 68 -35 151 -11 185 54 50 98 59
430 16 579 -112 384 -458 651 -981 758 -69 14 -147 27 -175 28 -27 1 -56 5
-64 10 -11 7 -13 4 -7 -18 7 -29 -11 -43 -39 -32 -13 5 -14 10 -5 27 7 11 10
22 8 25 -2 2 -47 6 -99 10 -83 6 -97 5 -102 -10 -9 -22 -67 -22 -67 0 0 15
-21 16 -232 11 -260 -6 -488 -30 -798 -83 -279 -47 -626 -124 -562 -124 22 0
12 -37 -26 -96 -21 -32 -41 -67 -45 -77 -14 -36 -29 -6 -23 44 6 40 4 49 -9
49 -20 0 -19 6 6 42 21 28 21 30 3 25 -10 -4 -64 -17 -120 -31 -56 -14 -218
-59 -360 -100 -271 -77 -414 -108 -576 -126 -387 -41 -707 62 -895 289 -81 99
-106 146 -99 186 9 44 -13 95 -54 127 -24 19 -36 41 -50 89 -16 59 -20 64 -44
62 -31 -2 -37 26 -6 34 24 6 24 0 3 121 -24 140 -24 546 1 736 14 114 15 140
4 147 -10 7 -9 17 9 51 12 24 29 84 38 133 109 611 415 1430 760 2035 99 173
258 414 371 560 109 142 401 436 510 512 256 182 446 255 684 265 138 6 244
-12 353 -61 244 -108 400 -346 345 -529 -13 -42 -98 -143 -140 -166 -14 -7
-32 -26 -42 -42 -11 -18 -22 -26 -29 -22 -7 4 -38 8 -71 8 -52 0 -61 3 -79 27
-44 59 31 152 155 189 98 29 125 44 143 79 35 68 5 158 -63 187 -32 13 -46 14
-97 4 -261 -53 -430 -239 -412 -453 14 -161 134 -284 297 -303 69 -8 178 14
251 50 61 31 199 132 199 147 0 5 -7 23 -16 39 -8 17 -16 48 -16 70 0 45 20
101 35 96 10 -3 29 -52 41 -109 9 -39 21 -35 52 17 44 75 64 157 64 257 0 110
-19 188 -71 293 -102 208 -313 373 -574 451 -123 36 -356 45 -502 19 -305 -54
-614 -226 -905 -504 l-77 -73 15 -30 c22 -43 12 -83 -41 -157 l-44 -64 -29 29
c-16 16 -31 36 -35 44 -4 11 -15 5 -42 -25 -55 -60 -169 -214 -263 -354 -102
-152 -107 -162 -88 -155 21 8 26 -8 11 -36 l-14 -25 -9 24 c-8 22 -14 15 -69
-80 -104 -181 -127 -224 -112 -212 18 15 29 8 29 -19 0 -13 -8 -18 -28 -18
-27 0 -34 -10 -130 -207 -152 -312 -274 -616 -381 -946 -41 -128 -49 -165 -45
-201 6 -37 3 -46 -19 -67 -20 -19 -33 -54 -61 -169 -108 -448 -154 -831 -142
-1185 8 -254 13 -295 37 -295 11 0 19 -7 19 -15 0 -8 -7 -15 -15 -15 -8 0 -15
-6 -15 -12 0 -14 37 -183 46 -210 4 -15 -1 -18 -29 -18 -46 0 -133 27 -184 57
-142 83 -269 308 -317 563 l-16 80 59 177 c33 98 70 220 84 271 28 105 27 107
-43 100 -47 -4 -49 10 -4 30 27 12 31 21 43 82 6 37 9 78 6 92 -6 21 -1 27 37
43 24 10 44 20 46 21 7 4 63 340 86 514 54 411 76 761 76 1209 0 326 -14 644
-29 649 -5 2 -6 12 -4 23 4 12 -3 32 -15 49 -22 30 -19 48 6 28 12 -10 13 -3
7 55 -7 59 -5 67 10 67 9 0 19 -9 22 -21 6 -20 6 -20 29 2 35 33 49 88 35 131
-15 44 -46 74 -96 91 l-38 13 -18 88 c-31 153 -68 268 -121 376 -41 83 -66
119 -122 175 -80 81 -136 111 -230 127 -164 27 -341 -76 -435 -251 -85 -161
-82 -369 9 -511 44 -69 137 -152 212 -189 52 -26 64 -29 66 -17 2 9 10 16 18
16 17 0 19 -30 2 -31 -7 0 4 -7 25 -14 54 -20 176 -42 280 -50 82 -7 88 -9 93
-32 5 -17 11 -22 22 -18 8 3 36 10 61 16 56 12 87 32 96 59 11 34 24 22 18
-17 -3 -21 -14 -73 -25 -115 -18 -69 -22 -77 -38 -68 -10 6 -34 10 -54 10 -26
0 -36 5 -41 21 -4 13 -11 17 -16 12 -6 -6 -4 -84 3 -200 10 -152 15 -190 26
-189 9 1 19 -17 27 -49 13 -51 9 -80 -7 -51 -22 40 -28 8 -28 -157 0 -95 -5
-278 -12 -407 -6 -129 -11 -272 -12 -317 -1 -46 -4 -83 -7 -83 -3 0 -9 -37
-13 -82 -15 -192 -72 -582 -111 -766 -8 -42 -10 -71 -4 -77 13 -13 11 -25 -4
-25 -8 0 -23 -45 -41 -122 -41 -180 -118 -429 -181 -587 -30 -76 -55 -141 -55
-144 0 -3 8 -3 18 -1 9 2 23 0 31 -5 12 -8 11 -22 -4 -99 -16 -79 -21 -90 -35
-82 -19 10 -37 50 -42 90 -2 20 -12 8 -52 -65 -138 -255 -313 -448 -486 -535
-161 -81 -336 -97 -523 -46 -53 14 -99 26 -101 26 -2 0 -9 -38 -16 -85 -7 -47
-16 -85 -21 -85 -6 0 -8 12 -7 28 3 23 -1 27 -25 30 -23 3 -27 7 -21 20 4 9
10 42 12 72 l4 55 -64 31 -64 32 4 125 c10 296 -86 530 -529 1287 -320 546
-509 901 -639 1200 -18 41 -43 98 -55 125 -26 57 -146 369 -165 430 -7 22 -18
54 -25 70 -17 42 -55 169 -55 184 0 8 6 11 15 7 9 -3 15 -1 14 7 -6 48 18 49
59 3 27 -31 40 -36 133 -55 119 -23 294 -47 421 -56 79 -6 87 -5 92 13 5 16
44 42 61 42 3 0 5 -14 5 -32 l0 -31 121 7 c518 29 881 223 1099 586 332 553
52 1066 -665 1220 -128 28 -456 37 -580 16z m523 -276 c195 -39 346 -108 451
-206 146 -135 182 -278 117 -465 -71 -204 -235 -389 -431 -486 -287 -143 -685
-170 -1150 -79 -134 27 -342 80 -352 90 -4 3 -8 66 -11 139 -5 153 12 274 57
404 88 256 307 461 596 558 44 15 89 31 100 35 11 5 27 8 35 9 8 0 60 7 115
15 132 20 336 14 473 -14z m1697 -101 c75 -52 140 -180 190 -376 34 -136 35
-131 -27 -126 -214 19 -365 99 -399 212 -12 42 -33 53 -57 29 -9 -9 -15 -9
-23 -1 -21 21 -2 43 36 43 28 0 35 4 35 20 0 31 38 123 63 150 65 73 124 89
182 49z m-4158 -224 c26 -18 43 -84 49 -194 l5 -86 -47 50 c-45 48 -104 153
-104 185 0 26 30 60 53 60 13 0 32 -7 44 -15z m1785 -4474 c47 -11 126 -33
175 -49 103 -35 301 -120 309 -134 3 -5 -14 -28 -38 -51 -86 -81 -139 -127
-148 -127 -5 0 -31 -13 -58 -30 -86 -53 -275 -138 -367 -166 -76 -23 -110 -27
-215 -28 -152 -1 -210 18 -283 90 -174 175 -46 443 243 509 84 19 263 12 382
-14z"/>
<path d="M13849 24916 c-10 -29 -19 -37 -46 -42 -40 -8 -42 -18 -7 -41 23 -14
25 -22 21 -55 l-5 -38 33 20 c18 11 40 18 48 14 12 -4 18 4 26 33 15 52 14 70
-4 77 -8 3 -23 19 -34 37 l-19 31 -13 -36z"/>
<path d="M4101 24795 c-256 -72 -475 -362 -571 -753 -21 -86 -21 -94 -6 -111
23 -26 20 -48 -19 -130 -33 -68 -37 -88 -57 -273 -18 -163 -20 -203 -9 -220
10 -16 10 -22 -3 -31 -16 -13 -23 -113 -66 -882 -37 -669 -81 -1163 -136
-1550 -18 -125 -23 -180 -15 -183 17 -6 14 -52 -4 -52 -16 0 -17 0 -45 -160
-51 -279 -141 -640 -160 -640 -5 0 -22 57 -39 128 -93 393 -168 1131 -202
2007 -6 160 -15 292 -20 293 -12 5 -12 32 0 32 14 0 7 1083 -8 1205 -17 141
-56 329 -92 443 -40 128 -125 300 -191 387 l-53 69 -53 -3 c-50 -2 -55 0 -92
37 -35 35 -40 45 -40 86 l0 46 -69 34 c-38 20 -80 37 -93 40 -12 2 -39 10 -58
18 -47 17 -272 18 -322 0 -32 -11 -41 -11 -68 3 -47 24 -118 34 -178 24 -72
-11 -142 -58 -207 -136 -80 -97 -215 -371 -187 -381 7 -2 12 -13 12 -24 0 -15
-5 -19 -20 -15 -17 4 -23 -7 -50 -93 -207 -670 -340 -1748 -391 -3163 -15
-415 -7 -1202 15 -1427 96 -993 339 -1685 730 -2076 215 -214 435 -306 659
-275 203 28 347 126 513 347 96 128 177 207 289 280 375 245 860 222 1235 -57
104 -77 256 -239 330 -351 33 -51 91 -151 127 -223 141 -276 267 -442 456
-602 523 -439 1249 -544 1837 -267 198 94 305 180 570 461 176 186 345 265
497 231 27 -6 32 -4 37 17 4 14 10 25 15 25 13 0 21 -39 9 -46 -6 -4 22 -19
63 -34 205 -75 398 -201 602 -392 46 -43 49 -45 93 -38 l47 7 -6 -57 c-5 -48
-3 -60 12 -74 18 -17 51 -22 51 -8 0 4 -7 18 -16 30 -12 17 -12 22 -2 22 7 0
19 -9 26 -20 7 -11 19 -20 27 -20 12 0 13 -4 5 -19 -23 -44 -11 -84 56 -186
36 -55 95 -162 132 -237 56 -115 71 -137 90 -137 23 -1 31 -28 12 -47 -8 -8
47 -188 94 -304 8 -19 17 -52 21 -73 l6 -37 306 2 306 3 38 160 c21 88 39 167
39 176 0 9 -9 19 -20 22 -11 3 -20 12 -20 21 0 19 21 21 38 4 14 -14 14 -14
42 102 50 206 372 693 649 983 223 233 368 311 576 310 220 -1 488 -126 720
-336 l72 -65 36 54 c21 30 37 61 37 70 0 8 5 12 10 9 25 -15 5 -103 -32 -142
l-21 -22 123 -131 c145 -154 193 -196 301 -261 79 -47 211 -104 270 -116 24
-4 29 -2 29 14 0 29 19 44 42 32 24 -13 23 -38 -4 -48 -18 -6 -19 -9 -5 -14
10 -4 17 -2 17 3 0 15 27 12 33 -4 9 -24 192 -40 392 -33 261 9 511 52 870
152 151 42 238 69 855 263 140 44 292 90 338 103 45 12 82 27 82 34 0 20 -40
55 -64 55 -31 0 -38 21 -30 92 5 40 3 58 -5 58 -6 0 -11 6 -11 14 0 16 -79 -6
-505 -141 -148 -47 -287 -90 -307 -96 -40 -10 -48 -26 -23 -47 26 -22 17 -37
-26 -43 -63 -8 -164 -63 -219 -118 l-50 -50 0 50 c0 40 -4 53 -22 66 -20 13
-21 17 -8 26 18 13 24 14 -185 -41 -288 -76 -475 -108 -686 -117 -234 -10
-425 24 -582 103 -130 65 -170 100 -384 331 -230 248 -467 414 -716 502 -122
43 -152 39 -112 -13 24 -32 18 -43 -29 -55 -25 -6 -51 -18 -60 -26 -8 -8 -17
-15 -20 -15 -3 0 -33 39 -67 86 l-63 86 -45 -6 c-25 -3 -65 -8 -87 -10 -422
-46 -922 -562 -1114 -1146 -40 -119 -80 -305 -80 -365 0 -24 -6 -38 -19 -45
-31 -16 -43 -12 -36 13 18 63 50 57 -317 57 l-334 0 -33 120 c-31 111 -35 120
-57 120 -33 0 -48 36 -28 68 14 21 11 31 -39 132 -86 172 -185 309 -327 451
-139 140 -242 221 -388 303 -374 209 -646 205 -944 -16 -37 -27 -139 -124
-225 -215 -87 -92 -192 -191 -233 -222 -238 -177 -562 -265 -882 -240 -141 11
-238 32 -381 80 l-117 39 -29 -21 c-34 -25 -57 -18 -41 12 6 10 21 19 33 19
14 0 -7 16 -58 43 -188 99 -367 253 -495 425 -56 75 -76 96 -78 82 -3 -15 -11
-20 -33 -20 -16 0 -29 1 -29 3 0 2 5 29 10 60 11 55 10 57 -36 149 -68 136
-125 229 -138 225 -6 -2 -16 -14 -22 -26 -12 -22 -12 -22 -24 13 -6 20 -10 52
-8 72 2 30 -6 46 -52 106 -162 207 -426 398 -670 481 -179 61 -415 91 -563 71
-43 -6 -45 -8 -51 -45 -4 -23 -12 -39 -20 -39 -15 0 -40 27 -49 52 -5 15 -11
15 -74 1 -90 -20 -220 -70 -259 -99 -17 -13 -49 -30 -72 -38 -80 -29 -236
-150 -330 -258 -27 -30 -80 -97 -119 -149 -77 -103 -125 -145 -205 -186 -70
-35 -191 -43 -269 -18 -202 65 -407 280 -564 592 -53 107 -145 330 -145 354 0
8 -7 5 -20 -6 -11 -10 -23 -16 -26 -13 -6 7 17 48 27 48 3 0 -9 51 -27 113
-97 324 -165 750 -194 1217 -20 321 -10 1102 20 1654 10 173 9 180 -10 193
-19 13 -20 26 -20 224 0 133 4 209 10 209 6 0 10 -7 10 -15 0 -8 7 -15 16 -15
14 0 16 7 11 40 -4 34 -3 39 8 30 17 -14 19 -3 40 235 34 382 99 840 166 1183
l40 203 -20 25 c-21 27 -38 90 -27 101 11 11 36 -19 42 -53 3 -19 9 -33 12
-30 3 3 18 54 33 113 16 60 31 118 35 129 5 18 1 22 -21 22 -49 0 -105 75 -90
121 4 13 14 16 46 13 39 -4 41 -3 34 18 l-7 22 31 -18 c25 -15 31 -25 32 -54
0 -30 5 -21 33 55 28 79 30 93 18 112 -18 28 1 68 26 58 9 -4 25 -10 35 -12
21 -7 22 -17 1 -34 -12 -10 -15 -24 -11 -52 7 -48 87 -210 128 -257 30 -35 30
-35 25 -8 -4 16 0 44 9 64 15 37 15 37 36 18 20 -18 21 -18 34 -1 22 30 51 6
70 -58 12 -43 21 -56 40 -61 14 -3 25 -9 25 -13 0 -19 -34 -50 -60 -56 -26 -6
-28 -8 -17 -26 7 -11 26 -26 43 -34 89 -37 186 -26 252 31 108 92 116 266 20
477 -24 52 -35 66 -48 62 -26 -8 -44 19 -29 43 10 17 10 25 -4 46 -22 33 -22
36 7 36 15 0 26 7 29 20 4 17 -7 27 -74 60 -43 22 -79 44 -79 49 0 23 21 61
39 70 15 8 34 6 79 -11 60 -21 60 -21 55 -57 -3 -24 2 -45 14 -62 54 -78 88
-115 126 -136 98 -56 206 -187 278 -337 l40 -84 41 10 c22 5 49 6 60 2 19 -6
20 -12 14 -67 -3 -33 -6 -97 -6 -143 0 -74 -2 -82 -18 -77 -18 4 -18 0 1 -114
16 -101 19 -169 19 -475 l0 -358 27 0 c15 0 32 5 38 11 7 7 14 1 22 -22 15
-43 15 -44 -14 -25 -29 19 -31 16 -9 -25 14 -28 14 -32 -2 -50 -20 -22 -34
-16 -34 14 0 12 -7 31 -15 41 -14 18 -15 12 -15 -65 0 -47 3 -88 6 -91 3 -4 7
-46 9 -95 2 -48 6 -141 10 -207 5 -75 4 -116 -2 -113 -13 8 -4 -194 8 -207 12
-13 11 -46 -1 -46 -9 0 -7 -55 6 -257 5 -69 8 -82 25 -86 26 -7 25 -37 -1 -37
-19 0 -20 -5 -15 -62 3 -35 12 -155 20 -268 21 -286 50 -560 85 -800 42 -291
40 -280 60 -280 25 0 31 -23 15 -54 -12 -22 -11 -37 11 -118 36 -134 63 -203
105 -268 42 -66 88 -97 151 -106 117 -16 203 61 278 250 82 207 189 730 254
1246 38 300 41 340 25 340 -11 1 -10 3 2 13 12 9 19 45 27 147 25 284 43 553
72 1070 34 597 52 846 80 1060 15 122 16 147 5 160 -20 23 -55 102 -55 126 0
12 7 25 16 28 26 10 72 7 76 -6 2 -6 10 15 17 48 89 401 331 671 528 589 19
-8 44 -15 54 -15 11 0 19 -4 19 -9 0 -6 25 -38 55 -73 93 -107 163 -270 207
-486 17 -86 26 -111 37 -107 16 6 41 -12 41 -31 0 -8 -11 -14 -26 -14 -24 0
-26 -3 -20 -32 28 -160 70 -1362 92 -2673 6 -349 9 -402 23 -412 14 -12 14
-14 1 -25 -13 -11 -14 -64 -8 -428 5 -228 6 -421 3 -427 -2 -7 -12 -13 -22
-13 -31 0 -139 -57 -183 -96 -65 -59 -93 -124 -94 -216 0 -69 4 -84 39 -154
48 -98 151 -204 244 -251 115 -59 230 -41 279 43 22 38 22 43 16 245 l-7 206
139 6 c152 6 258 28 358 75 l59 28 -56 19 c-68 23 -71 36 -29 117 l29 54 -28
25 -28 26 -59 -29 c-71 -35 -187 -57 -304 -58 l-88 0 0 48 c0 77 -29 1595 -35
1867 -23 1002 -52 1797 -71 1961 -5 40 -10 51 -22 50 -13 -1 -17 8 -17 39 0
27 4 39 13 38 15 -4 15 -6 -4 102 -36 207 -85 362 -159 502 -87 164 -176 257
-313 325 -78 39 -88 41 -185 45 -70 2 -119 -2 -156 -12z m-2441 -611 c40 -70
90 -190 90 -216 0 -19 -51 34 -91 95 -44 68 -73 148 -64 177 3 11 10 20 14 20
4 0 27 -34 51 -76z m-600 -764 c25 -25 26 -60 2 -60 -9 0 -33 -10 -52 -23 -57
-38 -69 -40 -80 -11 -15 39 -12 66 12 91 28 30 89 32 118 3z"/>
<path d="M12932 24631 l-32 -51 -56 0 -56 0 36 -40 c39 -43 42 -59 25 -109 -6
-18 -9 -34 -6 -37 3 -3 26 4 52 15 l47 21 44 -31 44 -30 0 58 c0 56 2 59 40
87 44 33 42 41 -12 51 -37 7 -38 7 -38 -24 0 -21 -5 -31 -15 -31 -16 0 -22 56
-7 62 5 2 -1 27 -13 57 l-22 53 -31 -51z"/>
<path d="M17140 24312 c0 -31 -17 -55 -56 -79 -17 -10 -16 -12 18 -27 31 -13
37 -21 43 -57 l7 -42 25 32 c20 26 31 31 65 31 l40 0 -17 26 c-16 25 -16 48 0
88 8 17 5 18 -30 12 -32 -6 -41 -4 -66 20 l-29 28 0 -32z"/>
<path d="M12766 23563 c-6 -24 -14 -33 -37 -38 -34 -8 -37 -20 -9 -37 13 -9
20 -24 20 -45 0 -38 2 -39 34 -18 18 12 30 13 50 5 37 -14 36 -14 24 21 -9 26
-7 33 11 53 l22 23 -33 7 c-18 3 -42 19 -54 33 l-21 27 -7 -31z"/>
<path d="M17901 23057 c-21 -26 -29 -28 -63 -23 -43 7 -44 6 -23 -34 14 -27
14 -33 0 -60 -20 -39 -20 -39 18 -30 27 6 37 2 65 -23 l32 -31 0 26 c0 41 10
57 43 75 l31 15 -30 16 c-16 8 -30 16 -32 17 -1 1 -6 20 -10 42 l-7 40 -24
-30z"/>
<path d="M4070 22326 c0 -27 -6 -40 -25 -52 -30 -19 -26 -29 14 -37 23 -5 31
-13 36 -38 l7 -33 27 32 c16 18 37 32 55 34 l28 3 -21 27 c-17 22 -19 31 -11
54 13 34 9 38 -24 23 -23 -11 -32 -10 -57 5 l-29 17 0 -35z"/>
<path d="M17520 22155 c-274 -55 -501 -228 -625 -476 -74 -147 -90 -217 -90
-404 0 -136 3 -171 23 -238 69 -240 253 -468 431 -536 30 -11 63 -29 75 -40
27 -25 121 -56 217 -71 107 -17 329 0 424 33 82 28 162 68 225 110 60 41 173
151 217 210 31 42 34 51 24 73 -17 39 -13 62 14 80 19 12 28 14 39 5 11 -9 18
1 38 56 46 124 53 170 52 328 -1 132 -4 160 -27 238 -102 336 -370 576 -711
636 -80 15 -246 12 -326 -4z m118 -195 c34 -15 47 -29 64 -66 17 -40 19 -53 9
-83 -32 -107 -155 -137 -228 -57 -28 30 -33 43 -33 85 0 57 32 104 85 127 40
18 52 17 103 -6z m506 -211 c32 -25 35 -70 5 -100 -46 -46 -135 7 -113 68 9
26 45 53 70 53 6 0 23 -9 38 -21z m-1042 -148 c27 -24 33 -36 33 -71 0 -35 -6
-47 -33 -71 -36 -32 -69 -36 -112 -14 -36 19 -50 43 -50 87 0 87 96 128 162
69z m1320 -177 c67 -35 104 -131 79 -207 -15 -46 -69 -93 -121 -107 -75 -20
-166 25 -196 97 -62 148 94 291 238 217z m-684 -38 c40 -39 63 -99 52 -135
-30 -94 -62 -163 -79 -169 -16 -5 -26 28 -14 47 9 14 5 16 -31 13 -80 -7 -156
77 -141 155 7 39 62 103 88 103 8 0 20 7 27 15 18 21 58 9 98 -29z m-480 -350
c83 -29 136 -127 112 -203 -41 -128 -199 -167 -286 -71 -34 36 -44 63 -44 113
0 76 42 134 117 160 46 17 58 17 101 1z m808 -310 c27 -27 34 -42 34 -74 0
-49 -28 -86 -75 -102 -77 -25 -160 58 -135 136 14 42 60 74 109 74 24 0 42 -9
67 -34z"/>
<path d="M4062 21219 c4 -24 -1 -35 -24 -55 -30 -24 -28 -29 17 -36 11 -2 27
-18 36 -37 l16 -34 22 31 c14 21 31 32 52 34 l31 3 -22 28 c-18 23 -20 32 -11
57 11 33 5 36 -33 19 -20 -10 -30 -9 -50 5 -35 22 -39 21 -34 -15z"/>
<path d="M1351 21039 c6 -19 13 -41 16 -50 5 -19 -27 -33 -72 -30 l-30 1 38
-20 c27 -15 37 -27 37 -45 0 -35 14 -38 40 -10 19 21 30 24 57 19 37 -7 39 -3
17 35 -15 26 -15 30 1 61 l17 33 -38 -6 c-33 -6 -43 -2 -66 20 l-28 26 11 -34z"/>
<path d="M18445 19592 c-11 -17 -34 -37 -53 -45 l-33 -13 35 -19 c32 -17 36
-24 36 -59 l0 -40 29 28 c24 23 34 26 65 20 l37 -6 -14 33 c-12 31 -11 37 6
67 l20 33 -37 -6 c-30 -6 -39 -4 -54 16 l-19 22 -18 -31z"/>
<path d="M11215 19055 c-180 -33 -345 -131 -458 -270 -81 -101 -167 -297 -167
-385 0 -38 -10 -45 -73 -59 -74 -16 -223 -90 -261 -130 -24 -25 -27 -33 -16
-46 11 -13 16 -11 46 14 18 16 53 41 77 55 43 25 178 76 202 76 8 0 14 -29 18
-80 10 -130 71 -321 97 -305 7 5 5 11 -6 19 -14 11 -16 24 -10 98 l8 85 54 7
c61 7 74 3 74 -23 0 -26 30 -49 87 -66 71 -21 93 -42 86 -82 -6 -36 -18 -40
-86 -24 -58 14 -76 5 -88 -46 -15 -58 -41 -72 -74 -39 -63 63 1 -31 74 -108
l46 -48 -64 6 c-191 21 -401 107 -490 200 -39 43 -58 55 -72 51 -25 -8 -15
-26 47 -88 55 -54 185 -125 287 -156 74 -22 199 -46 292 -56 l60 -6 -30 26
-30 25 33 0 c20 0 35 6 38 15 8 21 43 19 82 -5 42 -26 52 -25 52 3 1 56 48 61
72 7 11 -26 16 -29 53 -25 22 3 66 7 97 10 32 4 57 11 55 17 -1 6 4 13 12 16
10 3 12 0 8 -12 -8 -20 -13 -20 212 24 79 16 147 27 151 25 4 -2 24 5 46 15
21 11 45 20 54 20 9 0 26 8 39 17 14 9 21 11 17 5 -9 -15 -1 -15 22 -2 31 18
125 51 130 46 2 -3 -3 -17 -12 -30 -16 -25 -15 -25 66 10 45 19 115 54 156 77
69 39 72 42 48 50 -20 7 -45 -2 -127 -43 -56 -28 -103 -49 -106 -47 -2 2 10
32 26 67 22 50 26 68 18 81 -8 13 -7 32 1 69 7 28 12 69 12 90 0 34 2 38 22
33 21 -6 21 -5 15 98 -3 57 -9 113 -12 125 -6 19 -2 22 48 27 102 12 214 -21
268 -80 65 -70 56 -167 -26 -268 -29 -35 -45 -65 -45 -82 0 -27 0 -27 44 16
25 24 59 71 77 105 74 138 25 272 -120 327 -43 16 -81 22 -159 23 l-104 1 -28
67 c-81 189 -241 347 -425 420 -27 11 -51 15 -53 10 -1 -5 -9 -17 -16 -27 -12
-16 -14 -15 -35 18 -22 36 -53 56 -59 38 -6 -18 -72 -14 -72 4 0 18 -31 20
-48 3 -9 -9 -15 -9 -24 0 -15 15 -42 14 -133 -3z"/>
<path d="M5137 18487 c-25 -19 -30 -20 -63 -8 -19 7 -37 11 -39 9 -3 -2 1 -20
7 -41 10 -33 9 -39 -16 -72 l-27 -35 45 0 c38 0 48 -4 70 -32 l25 -32 10 28
c6 15 11 32 11 37 0 5 6 12 13 14 6 2 25 9 42 15 l29 11 -32 25 c-26 21 -32
32 -32 65 0 44 -4 46 -43 16z"/>
<path d="M15660 18455 c6 -28 4 -37 -16 -56 -32 -30 -30 -39 6 -39 25 0 35 -7
52 -36 l21 -36 19 36 c13 26 25 36 42 36 34 0 39 11 14 37 -16 17 -22 34 -19
59 l3 35 -33 -16 c-29 -16 -35 -16 -64 -2 l-33 16 8 -34z"/>
<path d="M8456 17999 c7 -49 6 -51 -35 -93 l-43 -43 39 -7 c67 -12 74 -17 97
-69 l22 -51 32 52 c29 48 35 52 69 52 66 0 73 14 30 58 l-38 39 12 47 c6 26 9
49 7 52 -3 2 -26 -5 -52 -17 l-47 -20 -44 25 c-24 14 -46 26 -50 26 -3 0 -3
-23 1 -51z"/>
<path d="M6500 17992 c0 -38 -4 -45 -35 -63 -19 -12 -35 -23 -35 -25 0 -3 16
-12 35 -19 27 -12 36 -23 45 -55 l11 -40 25 30 c21 24 34 30 65 30 21 0 39 3
39 6 0 3 -9 19 -20 35 -19 26 -20 30 -5 58 21 42 20 44 -26 36 -36 -6 -44 -4
-70 21 l-29 28 0 -42z"/>
<path d="M11895 17789 c-244 -84 -586 -142 -900 -152 l-70 -2 85 -42 c111 -55
182 -73 310 -80 166 -9 309 26 446 108 60 36 188 149 205 180 5 11 8 18 7 17
-2 0 -39 -13 -83 -29z"/>
<path d="M12370 17556 c-9 -29 -21 -42 -48 -53 l-36 -15 25 -19 c13 -10 27
-19 32 -19 4 0 7 -21 7 -46 l0 -45 30 21 c24 17 29 26 24 46 -8 31 4 31 16 0
5 -14 19 -25 37 -29 36 -7 38 -4 24 34 -9 27 -8 37 10 65 l21 34 -39 0 c-31 0
-43 6 -64 32 l-26 31 -13 -37z"/>
<path d="M17185 17334 c-278 -30 -548 -143 -729 -305 l-49 -43 -201 2 c-140 2
-238 -2 -321 -13 -118 -15 -386 -64 -394 -71 -2 -2 3 -12 11 -21 20 -23 53
-91 62 -127 4 -15 2 -44 -5 -63 -9 -29 -15 -34 -34 -29 -30 8 -66 -6 -57 -20
5 -8 52 -2 162 22 202 43 365 64 506 64 l114 0 -7 -42 c-14 -77 -7 -189 15
-251 56 -155 277 -379 496 -501 187 -105 410 -161 491 -124 21 9 28 9 34 -1
11 -18 73 0 132 38 35 21 54 44 74 85 25 50 27 65 23 130 -9 139 -98 276 -316
487 -151 147 -298 260 -399 309 -40 19 -73 38 -73 42 0 15 212 109 299 132
431 115 859 -16 1197 -366 249 -257 433 -606 564 -1068 151 -534 189 -1144
115 -1860 -8 -80 -17 -160 -20 -177 l-6 -33 47 0 46 0 -7 -57 c-11 -87 -44
-95 -64 -16 -7 25 -15 43 -18 40 -3 -4 -20 -98 -37 -211 l-32 -205 24 -11 c16
-7 22 -16 18 -26 -3 -9 -6 -19 -6 -24 0 -5 -15 -28 -33 -52 -26 -34 -36 -62
-50 -138 -87 -464 -243 -1081 -612 -2410 -322 -1160 -445 -1793 -445 -2294 0
-201 8 -266 31 -266 23 0 25 -16 2 -28 -14 -9 -15 -17 -4 -87 22 -135 59 -245
108 -318 58 -88 124 -236 167 -379 52 -171 77 -335 83 -543 9 -284 -25 -403
-148 -520 -147 -140 -407 -201 -754 -175 -112 8 -331 11 -645 8 -463 -3 -476
-4 -529 -25 -127 -52 -234 -148 -341 -304 -114 -166 -237 -433 -325 -705 -19
-59 -35 -109 -35 -110 0 -1 20 -14 45 -28 25 -15 45 -32 45 -39 0 -14 -80 -67
-102 -67 -9 0 -20 -6 -26 -12 -10 -14 -63 -212 -88 -332 -9 -39 -22 -100 -30
-136 -132 -589 -212 -1303 -214 -1910 -1 -384 20 -622 76 -850 13 -56 24 -105
24 -109 0 -11 -46 -31 -70 -31 -18 0 -20 7 -20 56 0 67 -33 234 -60 307 -34
90 -81 160 -134 195 -42 28 -57 32 -113 32 -78 0 -123 -21 -182 -85 -78 -85
-121 -212 -121 -360 0 -99 9 -144 45 -222 32 -69 87 -128 152 -165 29 -17 50
-34 47 -39 -11 -19 -108 -61 -173 -76 -75 -16 -97 -17 -271 -2 -510 42 -925
253 -1223 622 -78 96 -172 235 -203 299 l-17 37 -19 -25 c-11 -13 -29 -24 -41
-24 -20 0 -22 6 -23 61 -2 59 -1 61 22 56 13 -2 24 -3 24 -2 0 1 -15 35 -34
76 -137 298 -226 739 -226 1119 0 504 141 1046 371 1427 67 110 191 276 242
321 26 25 35 38 27 46 -17 17 -11 36 10 36 11 0 20 -5 20 -12 0 -7 21 8 48 33
26 25 67 62 92 82 61 48 220 147 237 147 10 0 13 -18 13 -68 0 -74 18 -156 51
-233 19 -43 24 -48 38 -37 14 12 14 11 3 -4 -12 -15 -9 -23 17 -60 121 -171
288 -262 481 -262 113 1 195 25 288 87 121 82 253 267 297 420 20 71 21 195 2
259 -35 111 -129 217 -244 270 l-67 32 -203 0 c-111 1 -203 4 -203 8 0 4 36
39 80 79 60 55 83 83 90 111 30 110 -68 199 -176 158 -37 -14 -203 -179 -265
-262 -28 -37 -63 -90 -78 -118 -27 -50 -31 -53 -133 -94 -163 -66 -325 -166
-473 -290 -29 -24 -29 -25 -7 -26 31 0 56 -57 42 -94 -13 -35 -52 -58 -91 -54
-27 2 -34 9 -44 37 l-11 34 -53 -59 c-77 -86 -181 -226 -244 -329 -371 -610
-506 -1468 -352 -2232 14 -67 25 -127 25 -132 0 -6 -42 12 -92 38 -51 26 -116
56 -143 68 l-51 20 -48 164 c-103 347 -213 666 -534 1539 -88 239 -172 474
-188 523 -18 55 -33 86 -40 83 -19 -7 -24 4 -14 30 7 18 0 51 -31 141 -59 170
-103 283 -156 395 -43 92 -63 118 -63 82 0 -17 -22 -13 -74 13 -20 10 -44 13
-73 9 -36 -5 -42 -3 -41 12 3 43 -2 52 -32 52 -31 0 -36 6 -21 29 9 13 24 12
79 -4 18 -6 22 -4 22 14 0 27 17 27 25 1 7 -21 14 -24 39 -14 22 8 20 32 -5
74 -26 43 -36 50 -71 50 -22 0 -26 4 -21 18 4 9 11 20 16 24 13 8 -40 75 -111
138 -82 74 -184 121 -271 128 -79 5 -109 -1 -93 -21 15 -18 25 -77 14 -77 -17
0 -42 30 -42 51 0 29 -23 33 -67 11 -166 -85 -294 -307 -367 -633 -60 -273
-86 -587 -126 -1569 -56 -1356 -107 -1952 -211 -2480 -68 -346 -181 -684 -252
-758 -74 -77 -222 -115 -448 -116 l-146 -1 9 -40 c13 -59 36 -114 69 -163 16
-24 27 -48 24 -53 -8 -12 103 -12 221 2 253 28 425 111 513 247 17 26 51 97
77 158 136 325 235 807 303 1479 17 163 17 192 5 206 -12 13 -11 20 6 52 11
20 20 44 20 52 0 22 -48 37 -102 32 -27 -2 -48 -1 -48 3 0 18 31 30 88 36 64
7 72 15 72 72 0 19 -5 22 -35 22 -41 0 -85 36 -85 70 0 19 5 21 43 18 39 -3
42 -5 45 -35 2 -20 9 -33 17 -33 9 0 15 21 19 73 10 111 26 398 25 432 l-1 30
-10 -32 c-6 -18 -14 -33 -18 -33 -10 0 -84 107 -112 165 -46 91 -47 88 29 122
38 17 80 33 95 37 18 4 29 14 32 29 3 12 12 216 21 452 39 1039 75 1382 174
1655 32 88 37 105 21 80 -7 -11 -12 -12 -21 -3 -17 17 10 86 31 78 8 -4 18 -7
22 -8 4 -1 25 20 45 47 21 28 53 59 71 69 29 17 39 18 73 8 86 -26 225 -194
326 -394 69 -139 128 -289 228 -587 51 -151 157 -448 235 -660 200 -543 252
-686 337 -930 82 -238 193 -585 193 -606 0 -10 -14 -14 -45 -14 -25 0 -45 -5
-45 -10 0 -7 -13 -9 -32 -5 -41 7 -163 -23 -251 -63 -262 -119 -457 -372 -523
-677 -37 -171 -25 -395 31 -560 69 -206 254 -515 410 -683 96 -104 246 -202
346 -225 24 -6 25 -4 21 23 -5 33 -1 35 29 20 11 -7 19 -21 19 -37 l0 -26 73
6 c228 19 347 146 421 450 39 156 49 254 49 472 0 229 -5 262 -36 267 -15 2
-29 18 -43 48 -24 51 -23 60 10 60 15 0 28 -10 39 -32 l16 -33 -5 45 c-13 105
-55 357 -78 462 -14 62 -23 114 -21 116 15 16 216 -140 315 -245 56 -59 92
-111 145 -207 311 -566 830 -925 1480 -1022 167 -24 436 -25 525 -1 164 44
303 141 369 259 26 46 38 58 64 63 18 4 76 20 129 36 l97 29 65 -64 c36 -35
97 -85 135 -110 96 -64 256 -139 280 -131 12 4 23 0 28 -10 12 -21 204 -68
368 -91 99 -14 194 -18 395 -18 323 1 464 15 885 91 25 4 39 19 84 96 51 86
53 92 40 116 -8 14 -31 34 -52 45 -37 18 -39 18 -175 -8 -317 -60 -516 -80
-807 -80 -308 0 -515 32 -713 110 -166 66 -310 183 -365 296 -56 117 -97 320
-118 582 -13 171 -7 744 11 951 22 263 86 781 106 860 4 16 -2 24 -27 35 -18
8 -39 26 -48 39 -15 24 -15 24 12 17 64 -16 100 45 99 167 -1 68 1 78 15 73
14 -6 15 0 8 46 -11 69 -12 154 -2 164 4 4 15 -2 23 -15 16 -22 18 -15 64 166
141 552 304 946 475 1148 30 35 51 66 48 69 -4 3 -28 6 -55 6 -41 0 -48 -3
-48 -19 0 -11 5 -23 10 -26 17 -11 11 -25 -11 -25 -11 0 -43 10 -70 21 -42 18
-49 26 -49 49 0 38 34 77 79 91 32 10 45 8 84 -9 29 -13 51 -31 61 -51 l16
-30 47 29 47 30 522 0 c342 0 525 4 529 10 4 7 14 5 28 -5 16 -11 49 -15 130
-15 383 0 685 104 856 297 62 70 123 183 153 289 21 73 23 98 23 329 0 196 -4
274 -18 360 -44 259 -133 527 -233 699 -70 119 -73 126 -94 222 -53 245 -49
594 11 964 81 499 164 840 474 1960 457 1651 597 2297 680 3145 22 218 31 806
16 1005 -69 900 -375 1675 -831 2104 -217 204 -507 354 -775 401 -91 16 -316
27 -390 19z m-521 -704 c141 -70 424 -322 525 -467 12 -18 29 -33 37 -33 9 0
14 -11 14 -35 0 -34 -2 -35 -36 -35 -90 0 -276 74 -405 160 -81 54 -258 233
-284 285 -21 44 -24 115 -7 157 11 27 11 27 53 13 23 -8 69 -29 103 -45z m696
-536 c0 -9 7 -22 16 -29 15 -10 8 -19 -54 -73 -81 -70 -108 -86 -128 -78 -12
5 -11 11 3 41 14 30 15 38 4 45 -10 6 -1 15 35 32 39 18 50 29 52 51 3 24 8
27 38 27 25 0 34 -4 34 -16z m-3048 -10880 c59 -42 80 -86 75 -155 -3 -31 -13
-71 -22 -90 -10 -20 -12 -29 -4 -21 7 6 19 12 27 12 12 0 12 -3 2 -15 -7 -8
-20 -15 -29 -15 -9 0 -28 -20 -44 -44 -48 -76 -109 -138 -162 -162 -145 -68
-322 14 -404 186 -23 49 -26 67 -26 168 0 136 -1 135 123 152 48 6 94 13 102
15 8 2 84 3 168 1 151 -3 153 -3 194 -32z m-2584 -3076 c13 -17 75 -279 106
-453 85 -469 82 -806 -10 -1084 -55 -166 -133 -202 -280 -130 -72 35 -218 186
-300 309 -268 402 -317 697 -167 999 38 77 63 112 128 177 44 45 103 93 130
109 28 15 62 36 78 47 15 10 31 17 35 14 4 -2 32 2 62 9 73 18 204 19 218 3z
m3314 -55 c34 -35 55 -72 72 -129 5 -17 2 -23 -15 -27 -17 -5 -35 7 -80 52
-63 62 -67 72 -44 91 8 7 15 21 15 31 0 28 12 24 52 -18z m-367 -778 c15 -73
20 -165 10 -165 -21 0 -57 39 -71 76 -19 49 -16 156 6 209 l12 30 14 -38 c7
-21 20 -72 29 -112z"/>
<path d="M9278 17231 c3 -34 0 -43 -30 -70 -33 -30 -33 -30 -8 -31 50 -1 69
-12 80 -46 7 -19 15 -34 19 -34 4 0 15 16 24 35 14 30 22 35 50 35 47 0 51 9
21 41 -23 24 -26 33 -20 69 l6 41 -30 -17 c-30 -19 -33 -18 -100 10 -13 5 -15
-1 -12 -33z"/>
<path d="M477 16543 c-4 -3 -7 -20 -7 -38 0 -25 -7 -35 -37 -52 l-37 -21 41
-17 c37 -15 42 -21 48 -58 l7 -41 27 32 c21 26 33 32 64 32 42 0 43 2 20 41
-16 27 -16 31 0 64 18 39 17 39 -33 25 -30 -9 -37 -7 -60 15 -15 14 -29 22
-33 18z"/>
<path d="M6652 15803 c-582 -3 -714 -6 -718 -16 -4 -11 188 -885 212 -970 5
-16 66 -17 1130 -17 l1125 0 -6 53 c-7 67 -85 924 -85 943 0 11 -18 14 -80 14
-73 0 -80 -2 -80 -19 0 -11 -4 -22 -9 -25 -12 -8 -34 21 -26 34 4 7 -111 9
-372 8 -208 -2 -699 -4 -1091 -5z"/>
<path d="M10840 15783 c0 -16 -14 -192 -30 -393 -16 -201 -30 -368 -30 -372 0
-3 9 -4 20 -1 13 4 20 0 20 -10 0 -17 -24 -40 -33 -31 -6 7 -14 -34 -21 -118
l-5 -58 205 0 c169 0 204 2 204 14 0 15 27 13 65 -5 12 -6 384 -8 940 -7 l920
3 87 489 c48 270 86 491 85 492 -2 2 -265 6 -586 10 -629 8 -600 10 -601 -43
0 -13 -4 -23 -9 -23 -16 0 -33 29 -27 48 6 18 -10 19 -475 25 l-482 7 -23 -25
c-30 -32 -68 -32 -128 0 -26 14 -58 25 -72 25 -20 0 -24 -5 -24 -27z m1998
-699 c12 -4 22 -14 22 -24 0 -10 9 -46 20 -80 11 -34 20 -76 20 -91 0 -28 -2
-29 -45 -29 -44 0 -45 0 -45 34 0 48 -33 86 -76 86 -19 0 -34 5 -34 11 0 22
44 71 74 85 37 16 35 15 64 8z"/>
<path d="M4492 15781 c-480 -6 -471 -5 -485 -44 -1 -5 -15 -3 -30 2 -17 7 -25
15 -21 22 5 9 -84 11 -344 7 -194 -2 -354 -6 -356 -9 -2 -2 8 -59 22 -126 l26
-123 143 0 c79 0 143 3 143 8 0 4 10 13 21 21 20 12 21 11 16 -8 l-5 -21 419
0 c239 1 419 5 419 10 0 18 41 22 59 6 16 -14 91 -16 710 -16 l693 0 -7 33
c-4 17 -18 80 -32 140 l-25 107 -451 -2 c-249 -1 -660 -4 -915 -7z"/>
<path d="M13336 15778 c-6 -18 -46 -242 -46 -256 0 -9 318 -12 1279 -12 l1280
0 11 58 c7 31 18 86 25 122 8 36 13 66 12 66 -4 4 -1527 24 -1755 24 l-233 0
23 -30 c15 -21 19 -33 11 -41 -10 -10 -30 9 -59 57 -10 18 -30 19 -278 22
-213 3 -267 1 -270 -10z"/>
<path d="M2180 15748 c-650 -9 -750 -14 -750 -34 0 -25 -28 -27 -59 -5 -26 19
-43 21 -153 21 l-125 0 0 -30 c0 -36 -7 -45 -28 -37 -9 4 -15 19 -15 38 l0 32
-56 -6 c-44 -4 -64 -12 -86 -34 -55 -51 -111 -184 -157 -369 -37 -147 -101
-557 -89 -569 3 -3 19 2 37 11 18 9 63 21 100 27 l69 10 5 44 c3 27 14 54 28
69 29 31 35 25 15 -15 -15 -28 -15 -33 1 -66 l17 -35 1229 0 1229 0 -4 23 c-3
12 -49 228 -103 480 l-99 457 -231 -2 c-126 -1 -475 -5 -775 -10z m-910 -630
c38 -22 39 -22 59 -4 19 18 21 18 27 1 9 -23 -12 -137 -28 -146 -15 -9 -39 3
-72 36 -14 14 -34 25 -46 25 -12 0 -20 7 -20 17 0 15 31 92 38 93 2 0 20 -10
42 -22z"/>
<path d="M15872 15293 c-51 -257 -93 -474 -92 -480 0 -15 160 -19 176 -4 5 5
19 12 32 16 16 5 22 2 22 -9 0 -14 63 -16 607 -16 l607 0 -29 30 c-25 26 -27
32 -15 40 8 5 24 10 35 10 16 0 10 10 -29 43 l-48 42 51 48 c63 59 91 62 125
10 44 -67 52 -165 16 -208 -11 -13 43 -15 442 -15 263 0 478 -4 509 -10 30 -6
75 -21 101 -35 l48 -24 4 22 c11 53 14 303 6 422 -15 224 -55 356 -135 443
-56 63 -124 92 -241 102 -55 5 -470 14 -924 19 -454 6 -904 14 -1000 17 l-175
6 -93 -469z m918 -193 c25 -25 25 -42 0 -124 -13 -41 -26 -66 -35 -66 -23 0
-42 40 -49 102 -3 31 -9 63 -12 71 -3 10 4 18 23 25 41 15 51 14 73 -8z"/>
<path d="M784 14731 c-79 -20 -134 -77 -134 -141 0 -37 226 -949 240 -970 38
-56 66 -151 40 -135 -5 3 -10 4 -10 1 0 -4 64 -260 141 -571 l141 -565 129 0
c120 0 129 1 129 19 0 24 25 45 45 37 8 -3 20 -17 27 -31 15 -34 61 -32 66 3
4 30 36 25 40 -6 l3 -22 545 0 544 0 0 31 c0 41 16 68 47 80 40 15 55 -7 16
-23 l-31 -13 19 -24 c10 -13 19 -29 19 -37 0 -12 272 -14 1810 -14 l1810 0 20
43 c10 23 26 68 35 100 18 66 27 69 93 31 42 -25 44 -28 39 -61 -7 -40 -28
-67 -72 -94 -29 -19 -19 -19 531 -19 553 0 562 0 567 20 7 26 27 26 27 0 0
-20 6 -20 799 -20 l799 0 -5 21 c-5 19 -4 20 15 10 11 -6 24 -16 27 -21 4 -7
299 -10 844 -10 l839 0 5 21 c7 24 33 20 31 -5 -2 -15 59 -16 751 -16 l754 0
3 23 c2 12 8 22 13 22 6 0 11 -10 13 -22 l3 -23 1360 0 c1050 0 1359 3 1359
12 0 9 3 9 12 0 17 -17 201 -16 229 1 17 10 23 10 26 0 6 -16 273 -19 273 -3
0 6 9 10 20 10 11 0 20 -4 20 -10 0 -6 47 -10 120 -10 100 0 120 3 120 15 0
19 30 19 56 0 16 -12 142 -14 904 -15 l885 0 173 798 c95 438 173 803 172 810
0 15 -16 16 -25 2 -4 -6 -10 -8 -15 -5 -12 8 32 73 46 68 12 -4 13 -1 89 353
l48 221 -19 39 c-21 43 -68 78 -123 94 -23 6 -304 10 -753 10 -708 0 -718 0
-718 -20 0 -13 -5 -18 -15 -14 -8 4 -15 12 -15 20 0 12 -62 14 -381 14 -253 0
-378 -3 -374 -10 11 -18 -27 -24 -40 -7 -17 23 -52 21 -65 -4 -9 -17 -8 -23 7
-34 14 -11 16 -16 6 -26 -10 -10 -16 -10 -25 -1 -9 9 -39 -51 -129 -253 -322
-721 -551 -1210 -617 -1318 -30 -49 -37 -67 -24 -63 28 9 46 -8 33 -32 -11
-21 -72 -47 -93 -40 -7 3 -36 -15 -66 -39 -85 -70 -187 -113 -308 -133 -36 -6
-1065 -10 -2715 -10 l-2656 -1 -6 -54 c-10 -99 -34 -90 -36 13 l-1 42 -1530 0
c-1394 0 -1531 -1 -1537 -16 -3 -9 -1 -36 4 -60 6 -24 7 -44 2 -44 -16 0 -31
43 -27 81 l4 39 -123 0 c-116 0 -123 -1 -123 -20 0 -26 -26 -26 -65 0 -29 19
-48 20 -711 20 -404 0 -724 4 -785 11 -186 18 -299 60 -368 134 -33 36 -142
222 -202 347 -14 30 -31 49 -46 52 -34 9 -60 53 -45 77 10 16 -34 112 -320
684 l-333 665 -1071 0 -1071 0 -12 -41 c-14 -45 -20 -44 -37 4 -9 27 -16 32
-45 34 -19 1 -48 -2 -65 -6z m1001 -211 c212 -67 358 -192 401 -344 49 -175
-71 -334 -298 -392 -87 -23 -266 -15 -363 16 -227 71 -399 240 -413 405 -12
149 103 276 298 330 82 22 283 14 375 -15z m15920 15 c203 -53 325 -185 312
-337 -8 -87 -47 -160 -126 -238 -273 -268 -796 -248 -930 35 -100 210 108 470
433 540 85 19 239 18 311 0z m-15082 -171 c55 -19 111 -76 128 -132 15 -51 4
-151 -18 -159 -28 -11 -48 12 -48 54 0 33 -3 39 -17 35 -10 -2 -25 -1 -34 2
-15 6 -15 8 1 26 10 11 16 20 12 20 -54 0 -91 -112 -47 -143 11 -8 17 -17 13
-20 -3 -4 -11 -2 -18 3 -9 7 -15 -1 -24 -29 -10 -35 -69 -101 -90 -101 -13 0
-70 126 -87 192 -17 67 -13 128 12 166 8 12 20 22 27 22 6 0 19 4 27 10 12 7
12 12 -4 29 -10 11 -15 25 -11 30 10 16 125 13 178 -5z m13934 -66 c59 -60 83
-118 83 -201 0 -67 0 -67 -25 -61 -14 3 -36 3 -50 0 -22 -6 -25 -12 -25 -47 0
-28 -4 -39 -12 -36 -8 2 -13 20 -12 43 0 33 -4 42 -30 59 -17 11 -37 33 -44
48 -16 33 -25 34 -46 2 -18 -28 -36 -33 -36 -10 0 36 -54 1 -62 -40 -5 -31
-45 -32 -59 -2 -15 34 14 96 53 111 15 6 28 14 28 19 0 14 -28 19 -50 7 -12
-6 -24 -9 -28 -6 -9 10 19 34 68 58 35 18 46 29 48 51 4 32 16 35 35 6 17 -23
37 -17 71 20 28 31 47 26 93 -21z m1192 -489 c58 -20 76 -90 42 -164 -40 -88
-98 -102 -157 -39 -42 44 -45 69 -8 60 21 -6 25 -4 21 11 -21 77 -13 117 25
133 31 12 40 12 77 -1z m-987 -79 c4 0 14 11 20 25 13 30 20 31 42 6 16 -17
16 -22 -1 -81 l-17 -62 -35 6 c-43 6 -91 55 -91 92 0 14 12 37 27 52 l27 27
10 -32 c5 -18 13 -33 18 -33z m-13708 -230 c32 -33 65 -60 73 -60 10 0 12 -8
8 -34 -6 -28 -3 -37 17 -51 15 -11 19 -19 11 -22 -8 -3 -13 -22 -13 -47 0 -38
-21 -86 -38 -86 -4 0 -6 20 -4 45 5 61 -28 128 -82 165 -74 52 -74 52 -62 104
6 25 15 46 21 46 6 0 37 -27 69 -60z m911 -605 c33 -4 72 -13 86 -21 26 -13
59 -76 59 -113 0 -25 -57 -51 -128 -58 -31 -3 -65 -10 -74 -14 -12 -7 -20 -4
-26 8 -11 22 -5 43 13 43 10 0 12 10 9 38 -8 56 -12 62 -34 62 -23 0 -25 9 -8
45 7 16 17 24 27 21 9 -2 43 -7 76 -11z m-805 -42 c0 -35 -28 -108 -40 -105
-20 4 -37 -16 -44 -51 -8 -43 -33 -77 -55 -77 -24 0 -54 92 -45 138 12 60 81
107 162 111 15 1 22 -5 22 -16z m6957 -191 c24 -34 39 -73 52 -140 17 -83 17
-82 -41 -83 -29 -1 -43 -4 -30 -6 26 -5 40 -29 25 -44 -6 -6 -25 -4 -52 6 -57
20 -61 19 -61 -7 0 -20 -1 -21 -16 -6 -15 14 -14 20 5 63 12 26 21 54 21 61 0
17 -24 18 -52 3 -14 -8 -23 -8 -31 0 -10 10 3 24 103 113 32 28 40 41 35 57
-9 29 16 18 42 -17z m7459 -38 c9 -12 14 -33 12 -46 -3 -20 -9 -23 -43 -23
-22 0 -50 4 -62 8 -20 7 -23 5 -23 -18 0 -22 3 -26 18 -20 59 25 64 18 26 -38
-30 -45 -57 -57 -125 -57 -50 0 -51 0 -44 28 3 16 -1 43 -10 65 -20 48 -19 67
4 67 10 0 35 7 55 15 24 10 50 13 72 9 31 -6 34 -4 34 18 0 14 3 27 6 31 11
10 65 -15 80 -39z m-7836 -9 c17 -9 30 -19 30 -23 0 -10 -56 -89 -89 -124 -17
-20 -34 -28 -58 -28 -18 0 -33 2 -33 4 0 2 14 34 31 70 17 36 28 73 25 82 -3
9 -4 20 0 25 8 14 62 11 94 -6z"/>
<path d="M1750 14500 c230 -60 401 -225 403 -388 2 -239 -314 -379 -628 -278
-92 29 -112 28 -31 -3 168 -62 398 -51 526 27 44 27 101 86 123 127 17 31 22
57 22 120 0 69 -4 88 -29 135 -39 73 -126 157 -211 202 -74 38 -192 78 -229
77 -11 0 13 -9 54 -19z"/>
<path d="M1570 14454 c0 -12 -5 -14 -17 -9 -39 17 -65 17 -115 0 -125 -40
-194 -114 -205 -219 -5 -49 -2 -64 26 -120 32 -65 96 -132 155 -163 27 -14 28
-14 22 3 -13 34 -26 114 -20 128 3 8 30 30 60 50 30 20 54 40 54 45 0 4 -27
29 -60 55 -75 59 -87 79 -65 112 14 22 35 29 78 25 9 -1 17 4 17 13 0 10 9 16
21 16 17 0 20 -4 15 -23 -4 -19 4 -30 46 -63 29 -21 57 -42 64 -46 6 -4 36 10
68 33 60 43 95 50 144 30 33 -14 58 -52 49 -75 -3 -8 -33 -33 -66 -56 l-61
-41 74 -59 c78 -62 96 -90 75 -117 -41 -48 -95 -38 -189 37 l-73 58 -68 -45
c-54 -36 -74 -44 -97 -40 -28 6 -28 5 -23 -36 6 -41 8 -43 61 -61 33 -11 96
-21 157 -24 84 -4 113 -1 171 17 217 66 276 259 127 419 -87 94 -211 150 -367
166 -49 5 -58 4 -58 -10z"/>
<path d="M17315 14492 c-147 -50 -256 -134 -313 -240 -62 -116 -50 -227 34
-321 90 -100 227 -146 404 -138 177 8 323 69 436 181 76 77 107 140 112 229 4
57 0 75 -22 121 -15 30 -45 71 -68 91 -50 46 -148 92 -208 100 l-45 5 54 -15
c137 -39 238 -123 267 -223 20 -68 13 -121 -27 -201 -75 -149 -278 -264 -489
-278 -199 -13 -373 65 -443 197 -26 49 -28 62 -25 126 6 90 40 155 123 232 69
65 161 114 267 142 40 10 62 19 48 19 -14 0 -61 -12 -105 -27z"/>
<path d="M17455 14460 c-228 -30 -395 -175 -395 -340 0 -151 125 -248 330
-258 206 -9 390 78 477 225 24 41 28 59 28 120 0 63 -3 76 -30 115 -75 107
-236 161 -410 138z m10 -156 l46 -54 77 39 c43 22 86 40 97 42 33 5 74 -10 85
-32 17 -32 -9 -61 -95 -109 l-75 -42 19 -27 c11 -15 27 -34 36 -41 9 -8 23
-26 31 -41 13 -27 13 -30 -14 -60 -23 -26 -36 -32 -72 -33 -41 -1 -46 2 -97
60 l-55 62 -87 -46 c-84 -45 -89 -46 -128 -34 -40 12 -53 30 -45 64 4 20 66
64 130 92 23 11 42 21 42 24 0 3 -20 30 -45 60 -25 30 -45 58 -45 62 0 19 45
61 73 68 51 13 74 3 122 -54z"/>
<path d="M3175 14718 c4 -13 18 -45 32 -71 23 -46 24 -47 46 -32 12 8 31 15
42 15 l20 0 -20 -18 c-54 -45 -69 -5 259 -659 320 -636 482 -947 521 -998 30
-41 109 -82 192 -102 59 -14 167 -17 806 -20 l737 -4 0 40 0 41 -587 0 c-718
1 -814 8 -948 71 -107 50 -124 76 -433 669 -105 201 -215 413 -246 473 -49 92
-60 107 -81 107 -27 0 -31 11 -13 39 9 15 -7 53 -104 242 l-116 224 -57 3
c-55 3 -56 2 -50 -20z"/>
<path d="M3340 14733 c0 -8 479 -944 610 -1193 239 -453 258 -484 343 -526
105 -54 138 -56 846 -61 523 -4 655 -2 662 8 6 10 13 10 34 1 36 -17 90 -15
105 3 7 8 16 15 21 15 5 0 9 -7 9 -15 0 -11 11 -15 40 -15 34 0 46 7 89 50 46
45 48 51 31 60 -10 5 -33 10 -50 10 -27 0 -31 3 -28 23 3 19 8 22 43 19 32 -3
38 -1 28 9 -21 21 -15 27 41 39 30 6 65 19 78 29 43 33 63 32 75 -5 8 -28 7
-34 -5 -34 -12 0 -12 -3 -2 -15 7 -8 20 -15 29 -15 13 0 16 -12 16 -76 -1 -54
-5 -78 -15 -85 -9 -5 656 -9 1701 -9 1514 0 1718 2 1729 15 16 19 40 19 40 0
0 -13 73 -15 599 -15 589 0 600 1 606 20 8 26 25 26 32 0 5 -20 14 -20 1737
-20 1416 1 1745 3 1807 14 116 21 201 66 284 150 64 65 80 90 172 271 101 201
333 693 526 1120 l104 230 -1261 3 c-694 1 -1271 0 -1283 -3 -30 -7 -29 -20 2
-47 31 -27 34 -68 4 -68 -11 0 -44 -16 -73 -35 -82 -54 -108 -45 -122 42 -6
37 -4 40 35 66 47 31 57 33 69 11 12 -21 32 -10 32 17 0 19 -28 19 -2040 19
-1462 0 -2039 -3 -2037 -11 3 -14 -30 -35 -40 -25 -4 4 1 14 11 22 17 12 -273
14 -2079 14 -1569 0 -2102 -3 -2112 -12 -10 -8 -17 -8 -25 0 -7 7 -38 12 -69
12 -43 0 -58 -4 -63 -16 -6 -15 -8 -15 -31 0 -22 15 -87 16 -640 16 -338 -1
-615 -4 -615 -7z m840 -53 c3 -4 31 -4 64 1 116 19 264 -18 375 -92 121 -81
171 -190 140 -304 -16 -58 -108 -146 -185 -175 -127 -48 -304 -36 -436 31 -79
40 -172 132 -188 186 -10 31 -21 44 -48 57 -34 17 -35 18 -29 67 8 64 12 69
44 60 24 -6 31 -3 56 31 15 21 54 57 87 81 36 25 60 49 60 61 0 15 5 17 27 11
15 -3 30 -10 33 -15z m1460 -12 c120 -29 235 -108 282 -194 37 -69 43 -112 24
-177 -37 -127 -190 -217 -371 -217 -140 0 -279 53 -364 138 -90 91 -113 191
-67 286 71 145 283 215 496 164z m8050 12 c82 -13 198 -69 239 -115 27 -31 34
-34 52 -25 28 16 35 6 15 -24 -12 -19 -14 -31 -6 -51 28 -74 -2 -169 -79 -246
-173 -172 -490 -188 -662 -32 -193 174 -43 439 278 493 69 11 90 11 163 0z
m1098 0 c93 -15 164 -46 216 -92 123 -108 124 -241 2 -364 -103 -103 -232
-150 -391 -142 -144 8 -252 60 -319 156 -41 58 -48 147 -16 215 53 112 186
200 345 226 71 12 92 12 163 1z m-4287 -119 c20 -20 29 -40 30 -63 0 -29 1
-31 12 -14 28 44 60 76 75 75 10 0 27 -13 40 -29 l23 -29 -45 -56 c-52 -63
-61 -89 -52 -143 6 -35 5 -36 -9 -17 -12 15 -28 19 -78 20 -60 0 -62 1 -76 33
-18 39 -30 37 -45 -8 -6 -18 -17 -36 -25 -38 -11 -4 -13 5 -7 46 4 31 3 53 -4
57 -24 15 -9 27 25 21 41 -8 44 3 20 71 -8 23 -12 50 -8 59 7 19 -7 14 -39
-14 -22 -19 -44 -6 -26 15 20 25 69 42 116 43 35 0 49 -6 73 -29z m-1346 -28
c3 -21 10 -51 15 -66 8 -25 5 -32 -16 -50 -15 -14 -36 -57 -57 -117 -34 -102
-46 -113 -86 -80 -23 20 -23 21 -7 60 20 50 20 60 1 60 -20 0 -19 6 9 43 13
18 34 52 46 77 27 54 68 110 80 110 5 0 12 -17 15 -37z m1965 -73 c12 -8 13
-13 3 -30 -19 -29 -17 -126 2 -134 12 -4 14 4 12 42 -2 45 -1 47 26 50 26 3
27 2 27 -48 0 -102 -47 -161 -135 -168 -30 -2 -55 -1 -55 4 0 5 13 29 30 53
l29 45 -22 11 c-19 9 -22 19 -22 74 0 34 3 65 7 67 3 2 18 -1 32 -7 30 -14 65
-4 48 13 -13 13 -16 38 -4 38 4 0 14 -5 22 -10z m497 -340 c23 0 23 -1 8 -30
-14 -28 -30 -35 -64 -31 -8 2 -2 -12 15 -34 23 -30 26 -41 18 -63 -11 -30 -38
-40 -59 -22 -17 14 -20 56 -5 65 13 8 -48 85 -67 85 -8 0 -11 5 -8 11 13 19
49 29 94 24 24 -3 55 -5 68 -5z m-1397 -49 c57 -41 67 -116 21 -162 -31 -30
-61 -36 -105 -19 -31 11 -34 45 -11 90 18 34 35 39 35 10 0 -11 5 -20 10 -20
17 0 11 51 -11 81 -35 50 1 62 61 20z m1425 -200 c15 -6 19 -16 17 -43 -3 -30
2 -40 30 -61 l32 -26 -23 -32 c-20 -27 -22 -35 -12 -52 14 -22 2 -37 -32 -37
-14 0 -16 5 -11 25 7 29 -10 55 -37 55 -29 0 -25 46 6 66 32 21 32 31 -5 52
-56 32 -27 77 35 53z m-1923 -60 c42 -11 104 -34 139 -51 77 -39 172 -132 200
-196 28 -62 34 -147 16 -206 -14 -46 -14 -47 12 -72 36 -35 100 -151 77 -143
-26 10 -58 -10 -99 -64 -21 -27 -42 -49 -46 -49 -4 0 -13 15 -19 34 -9 24 -25
40 -54 55 l-41 20 -41 -21 c-23 -12 -66 -29 -96 -39 -38 -12 -54 -22 -52 -32
4 -22 -19 -33 -32 -15 -9 12 -40 17 -136 20 -104 4 -137 10 -200 33 -192 71
-299 191 -308 346 -4 67 -1 84 21 132 58 128 190 221 362 257 76 15 218 11
297 -9z m1868 -138 c0 -24 -30 -253 -35 -276 -7 -28 -20 -33 -44 -18 -10 6
-12 19 -7 45 7 37 -6 50 -18 19 -11 -28 -26 4 -26 56 0 54 31 122 72 156 28
24 58 33 58 18z m-3738 -339 c5 -3 8 -29 8 -57 0 -51 -28 -126 -63 -172 -15
-20 -17 -19 -57 20 -47 45 -80 102 -80 138 0 30 39 67 82 77 31 8 93 4 110 -6z
m3152 -76 c-23 -48 -26 -63 -17 -77 24 -38 -58 -72 -87 -36 -10 12 -8 16 15
25 14 5 30 10 35 10 15 0 19 28 6 46 -13 17 -15 17 -41 0 -16 -10 -56 -45 -91
-76 -34 -32 -77 -66 -95 -75 -53 -25 179 198 243 234 32 19 54 26 57 20 2 -7
-9 -38 -25 -71z"/>
<path d="M4225 14640 c-27 -5 -79 -24 -115 -42 -192 -98 -159 -327 62 -431 79
-38 147 -50 247 -45 300 15 403 279 171 440 -92 65 -248 98 -365 78z m212
-101 c142 -53 214 -200 163 -333 -12 -31 -51 -35 -78 -8 -16 16 -21 17 -53 4
-88 -37 -237 -7 -316 61 -71 63 -89 125 -57 193 45 94 206 133 341 83z"/>
<path d="M5421 14639 c-258 -43 -334 -282 -136 -431 84 -63 152 -83 285 -83
106 0 120 2 178 29 63 29 125 86 142 132 17 43 12 125 -11 170 -43 89 -164
165 -294 184 -80 11 -90 11 -164 -1z m199 -96 c64 -21 144 -90 160 -139 56
-170 -205 -283 -398 -173 -84 48 -127 127 -109 201 9 35 74 95 121 112 56 20
163 20 226 -1z"/>
<path d="M13517 14640 c-120 -19 -249 -104 -284 -188 -35 -84 -10 -189 59
-247 112 -95 319 -113 474 -41 155 72 221 219 152 337 -62 106 -232 165 -401
139z m206 -109 c69 -34 102 -81 102 -147 0 -43 -5 -59 -31 -91 -61 -76 -193
-122 -294 -103 -124 23 -201 102 -188 190 2 16 0 28 -5 27 -5 -1 -12 4 -14 11
-3 8 1 12 9 10 8 -2 29 14 48 35 60 69 133 97 245 94 60 -2 92 -8 128 -26z"/>
<path d="M14623 14639 c-230 -40 -367 -211 -292 -366 43 -88 143 -143 278
-151 144 -8 258 28 347 110 59 54 83 106 84 179 0 96 -64 170 -186 212 -54 19
-168 27 -231 16z m209 -113 c32 -16 60 -37 63 -48 7 -20 20 -24 30 -8 3 6 13
10 21 10 12 0 14 -7 9 -32 -4 -18 -11 -37 -14 -43 -4 -5 -15 -31 -25 -57 -48
-130 -249 -202 -391 -139 -64 28 -91 54 -111 108 -16 40 -16 46 0 86 9 24 31
58 50 76 87 85 252 106 368 47z"/>
<path d="M9350 13777 c-123 -42 -221 -122 -263 -216 -32 -70 -28 -169 8 -244
73 -149 262 -247 474 -247 47 0 92 4 100 9 8 5 -24 7 -75 4 -204 -11 -406 88
-485 237 -34 65 -34 185 1 253 47 94 170 180 298 211 31 8 46 15 32 15 -14 0
-54 -10 -90 -22z"/>
<path d="M9405 13724 c-27 -9 -51 -17 -53 -19 -1 -1 11 -16 27 -34 18 -20 39
-31 56 -31 19 0 44 -17 85 -56 l59 -56 68 41 c75 45 123 52 161 25 14 -10 22
-25 22 -45 0 -25 -9 -35 -71 -75 l-71 -45 61 -64 c34 -35 61 -68 61 -75 0 -45
-66 -79 -116 -60 -16 6 -54 35 -84 65 l-55 54 -63 -40 c-34 -22 -75 -42 -91
-45 -34 -7 -87 18 -96 46 -10 30 9 53 77 95 35 21 64 39 66 41 2 1 -14 18 -35
37 l-38 36 -19 -50 c-18 -46 -21 -50 -45 -44 -60 15 -111 74 -111 128 0 38
-17 25 -32 -25 -10 -33 -10 -42 0 -46 16 -5 15 -27 -2 -41 -30 -25 24 -145 90
-199 45 -37 128 -78 185 -91 65 -15 197 -13 262 4 119 31 209 99 247 187 62
144 -23 300 -200 370 -73 29 -269 36 -345 12z"/>
<path d="M15726 14718 c-8 -13 -73 -151 -144 -308 -299 -657 -528 -1132 -596
-1233 -76 -114 -197 -201 -341 -243 -53 -16 -128 -18 -675 -24 -338 -3 -608
-7 -600 -8 10 -1 11 -5 3 -13 -13 -13 -36 -3 -28 12 4 5 -732 9 -1914 9 -1701
0 -1921 -2 -1921 -15 0 -8 -7 -15 -15 -15 -8 0 -15 7 -15 15 0 10 -10 15 -30
15 -23 0 -28 -3 -23 -16 4 -12 2 -15 -8 -12 -8 3 -13 11 -12 17 2 8 -106 11
-398 11 -358 0 -403 -2 -414 -16 -10 -15 -13 -15 -27 0 -15 15 -120 16 -1133
16 l-1116 0 3 -22 c2 -19 -5 -26 -37 -40 -38 -16 -15 -17 528 -17 379 -1 566
2 562 9 -11 18 27 24 40 7 11 -16 86 -17 939 -17 l926 0 0 28 1 27 22 -27 c31
-38 48 -36 41 2 -4 17 -2 30 3 30 4 0 23 -13 41 -30 l33 -30 1064 0 c842 0
1064 3 1068 13 4 10 7 10 18 0 10 -10 336 -13 1559 -13 1710 0 1619 -3 1750
66 118 61 181 139 288 351 85 169 252 525 252 537 0 3 -9 6 -20 6 -14 0 -20 7
-20 24 0 29 24 40 44 20 13 -13 17 -9 34 28 11 24 70 156 132 293 97 216 168
377 241 543 l18 42 -54 0 c-46 0 -57 -4 -69 -22z"/>
<path d="M117 12763 c-2 -4 -7 -25 -11 -46 -6 -34 -13 -41 -54 -58 l-47 -21
48 -24 c44 -23 47 -27 47 -64 0 -21 4 -41 8 -44 5 -3 24 8 44 24 31 26 38 28
74 20 21 -5 42 -10 46 -10 4 0 -2 20 -14 45 l-22 45 22 39 c12 21 22 40 22 42
0 2 -21 3 -46 0 -40 -3 -50 1 -79 29 -18 17 -35 28 -38 23z"/>
<path d="M2420 12311 l-94 -6 -7 -32 -6 -33 1508 0 c1245 0 1509 2 1509 13 0
23 71 35 102 17 16 -8 28 -18 28 -22 0 -5 72 -8 160 -8 138 0 159 2 154 15 -8
19 5 19 30 0 27 -20 654 -22 675 -2 11 10 14 9 18 -1 4 -10 495 -12 2468 -12
l2463 1 21 35 c18 31 24 34 37 23 9 -7 14 -23 11 -36 l-4 -23 1878 0 c1234 0
1880 3 1884 10 3 5 16 15 27 21 19 10 20 9 15 -10 -5 -21 -4 -22 116 -19 119
3 122 4 125 26 5 32 55 28 60 -5 3 -23 3 -23 208 -23 167 0 204 3 204 14 0 16
37 29 45 16 3 -5 -3 -13 -12 -19 -12 -7 249 -10 802 -11 633 0 817 2 808 11
-10 10 -8 15 5 25 26 20 35 17 30 -11 l-5 -25 122 0 c132 0 135 1 135 56 l0
24 -890 0 -889 0 -12 -22 c-6 -13 -13 -25 -15 -27 -1 -1 -18 9 -37 23 -31 24
-42 26 -135 26 -56 0 -104 -4 -107 -10 -8 -13 -45 -13 -45 0 0 6 -1045 10
-3040 10 -2701 0 -3040 -2 -3040 -15 0 -8 -7 -15 -15 -15 -8 0 -15 7 -15 15 0
13 -45 15 -342 15 l-342 0 27 -28 c35 -36 25 -46 -19 -20 -35 21 -45 21 -151
2 -28 -5 -34 -3 -43 20 l-10 26 -2798 0 -2799 0 5 -26 c4 -21 1 -25 -14 -22
-11 2 -23 13 -29 26 -10 22 -12 22 -202 22 l-192 0 -18 -32 -17 -33 -9 33 -10
32 -111 -2 c-61 -1 -154 -4 -206 -7z"/>
<path d="M1183 12278 l13 -33 530 -2 530 -3 16 35 16 35 -559 0 -559 0 13 -32z"/>
<path d="M1296 11973 c34 -142 71 -292 81 -333 l19 -75 153 -3 c107 -2 158 1
168 9 10 9 17 9 25 1 9 -9 136 -12 470 -12 410 0 497 4 446 23 -7 2 -10 8 -6
12 11 12 68 -5 68 -21 0 -12 501 -14 3670 -14 l3670 0 0 25 c0 32 15 32 36 0
l16 -24 816 -1 c643 0 814 2 804 12 -16 16 -15 28 2 28 8 0 18 -9 21 -20 6
-20 15 -20 770 -20 l763 0 6 23 6 22 19 -23 19 -22 2213 2 2213 3 66 305 c37
168 70 317 73 333 l7 27 -896 -2 -896 -3 -32 -79 c-39 -99 -61 -112 -54 -35 2
30 12 69 20 87 l16 32 -235 0 c-226 0 -235 -1 -252 -21 l-16 -20 -27 20 c-23
19 -40 21 -142 21 -96 0 -116 -3 -116 -15 0 -8 -6 -15 -14 -15 -8 0 -16 7 -20
15 -5 13 -212 15 -1780 15 l-1775 0 -20 -26 c-22 -28 -46 -23 -38 7 5 18 -2
19 -84 19 -72 0 -89 -3 -89 -15 0 -8 -4 -15 -9 -15 -5 0 -11 7 -15 15 -4 12
-25 15 -95 15 l-89 0 -22 -34 c-25 -41 -50 -38 -50 5 l0 29 -296 0 c-270 0
-298 -2 -309 -17 -12 -17 -15 -17 -49 0 -33 15 -83 17 -526 17 -483 0 -490 0
-490 -20 0 -11 -7 -20 -15 -20 -8 0 -15 9 -15 20 0 20 -7 20 -1830 20 l-1830
0 0 -25 c0 -15 -6 -25 -15 -25 -8 0 -17 11 -21 25 l-6 25 -168 0 c-206 0 -264
-15 -208 -54 21 -15 21 -16 3 -37 l-20 -21 -17 22 c-10 12 -20 37 -24 56 l-6
34 -1274 0 c-1128 0 -1273 -2 -1268 -15 4 -8 1 -15 -5 -15 -6 0 -11 7 -11 15
0 13 -33 15 -235 15 -202 0 -235 -2 -235 -15 0 -8 -3 -15 -6 -15 -3 0 -12 7
-20 15 -13 12 -55 15 -250 15 l-234 0 0 -26 c0 -33 -33 -30 -38 4 l-3 22 -263
0 -263 0 63 -257z m2381 143 c-13 -34 -110 -156 -123 -156 -29 0 -64 47 -64
86 0 36 0 36 34 30 26 -5 45 0 87 23 62 34 73 37 66 17z m-1113 -6 c35 -13 66
-46 66 -71 0 -25 -61 -89 -85 -89 -14 0 -16 8 -13 50 3 56 -4 61 -38 25 -41
-44 -84 -24 -84 39 0 14 1 26 3 26 1 0 20 7 42 15 48 17 75 18 109 5z m8927
-243 c49 -38 43 -66 -31 -163 -27 -36 -50 -69 -50 -75 0 -15 -37 -10 -44 7 -3
9 -6 38 -6 65 0 45 2 50 19 44 28 -9 48 4 56 33 26 110 27 111 56 89z"/>
<path d="M1412 11498 c3 -7 128 -507 279 -1110 l273 -1098 743 0 c409 0 743 2
743 5 0 5 -437 2158 -445 2193 l-5 22 -746 0 c-620 0 -745 -2 -741 -13 8 -20
-9 -41 -27 -34 -9 4 -16 16 -16 27 0 16 -7 20 -31 20 -21 0 -30 -4 -27 -12z"/>
<path d="M3030 11498 c0 -7 101 -506 223 -1108 l222 -1095 245 -1 c135 -1 230
1 212 3 -24 3 -32 9 -30 21 8 44 130 39 136 -5 3 -19 10 -23 38 -23 21 0 33 4
29 10 -3 6 3 10 14 10 11 0 23 -4 26 -10 8 -13 485 -14 485 -1 0 5 20 17 45
27 l45 17 21 -27 20 -26 1100 0 1099 0 30 32 c16 17 30 33 30 34 0 2 -180 4
-400 4 l-400 0 0 -25 c0 -21 -5 -25 -29 -25 -20 0 -36 9 -49 25 l-20 25 -323
0 -324 0 -404 998 c-227 561 -411 1004 -422 1012 -13 11 -16 23 -12 43 l5 27
177 0 176 1 16 34 16 35 -998 0 c-793 0 -999 -3 -999 -12z m1832 -1096 l417
-1037 -472 -3 c-259 -1 -474 1 -478 5 -8 8 -827 2021 -836 2056 -5 16 22 17
473 17 l479 0 417 -1038z m-1191 103 c183 -456 334 -832 336 -834 2 -3 9 1 15
7 7 7 18 12 25 12 19 0 18 -78 -1 -82 -12 -2 -4 -30 34 -123 28 -66 50 -121
50 -122 0 -2 -58 -3 -128 -3 -150 0 -201 12 -279 66 -89 61 -110 102 -148 282
-18 87 -34 151 -34 145 -2 -22 -31 -14 -31 7 0 12 7 20 16 20 12 0 15 6 11 23
-3 12 -63 310 -132 662 -90 455 -125 654 -122 687 4 50 33 106 47 92 4 -5 158
-382 341 -839z"/>
<path d="M5080 11500 c0 -6 -11 -22 -25 -35 l-24 -25 339 0 c261 0 340 3 344
13 5 10 7 10 12 0 4 -10 270 -13 1277 -13 1154 0 1269 1 1249 16 -29 20 -28
34 2 34 14 0 33 -11 44 -25 l20 -25 611 0 611 0 10 25 c6 15 17 25 30 25 23 0
24 -4 10 -31 -10 -19 -5 -19 197 -18 135 0 200 3 186 9 -16 6 -23 18 -23 35 0
29 -24 34 -38 8 -6 -10 -16 -14 -26 -10 -10 4 -14 11 -11 17 4 7 -785 10
-2394 10 -1664 0 -2401 -3 -2401 -10z"/>
<path d="M10249 11475 l-16 -35 617 0 c552 0 619 2 624 16 7 18 52 15 49 -4
-4 -18 723 -18 730 1 3 10 9 10 26 0 16 -10 139 -13 524 -13 l503 0 -4 35 -4
35 -1517 0 -1516 -1 -16 -34z"/>
<path d="M13381 11478 c5 -18 9 -34 9 -35 0 -2 127 -3 283 -3 l283 0 104 -260
c77 -189 109 -260 121 -260 30 0 69 40 69 71 0 36 2 36 36 2 21 -21 25 -32 21
-60 -8 -47 -60 -129 -80 -125 -12 2 -15 -2 -10 -15 4 -10 134 -335 290 -722
156 -388 280 -707 276 -710 -5 -3 -18 -21 -31 -38 l-23 -33 596 0 c327 0 595
2 595 4 0 7 379 2155 386 2189 l6 27 -1471 0 -1470 0 10 -32z m2070 -110 c12
-40 101 -350 199 -690 l177 -616 -42 -244 c-23 -134 -50 -261 -60 -281 -22
-48 -104 -123 -163 -150 -45 -21 -61 -22 -311 -22 l-264 0 -418 1030 c-230
567 -419 1033 -419 1038 0 4 288 7 640 7 l639 0 22 -72z m396 57 c100 -30 172
-109 173 -190 0 -17 -27 -190 -60 -385 -66 -391 -70 -413 -76 -407 -5 4 -274
975 -274 988 0 15 182 10 237 -6z"/>
<path d="M16335 11498 c-2 -7 -90 -499 -195 -1093 -104 -594 -192 -1088 -194
-1097 -4 -17 25 -18 503 -18 l508 0 10 22 9 22 22 -22 c20 -20 32 -22 147 -22
69 0 125 2 125 5 0 3 14 66 30 141 17 75 28 145 24 156 -3 12 -1 24 6 28 10 6
86 349 416 1863 l6 27 -707 0 c-555 0 -707 -3 -710 -12z"/>
<path d="M7628 11180 c-50 -15 -48 -20 32 -113 92 -107 188 -262 236 -379 28
-69 53 -163 80 -295 l4 -23 740 0 740 0 -7 228 c-7 262 -4 281 64 354 52 54
121 85 216 95 45 5 55 8 40 14 -18 7 -21 14 -17 51 3 24 7 51 9 61 3 16 -52
17 -1053 16 -582 0 -1069 -4 -1084 -9z"/>
<path d="M9961 11142 c3 -59 -2 -68 -44 -79 -18 -4 332 -10 803 -13 l835 -5
70 -35 c39 -19 74 -37 79 -39 5 -2 6 19 3 49 -8 67 -44 115 -111 146 l-51 24
-604 0 -603 0 6 -25 c11 -44 -4 -47 -55 -10 -48 34 -51 35 -148 35 -108 0
-110 -2 -111 -70 l0 -24 -21 21 c-12 11 -21 33 -21 47 0 16 -6 26 -15 26 -11
0 -14 -12 -12 -48z"/>
<path d="M5966 11159 c-174 -24 -353 -92 -481 -183 -131 -94 -242 -250 -280
-392 -21 -78 -21 -239 0 -329 8 -38 35 -110 59 -160 145 -304 474 -534 860
-601 124 -22 379 -14 486 15 204 54 346 135 470 268 79 84 132 172 167 278 22
68 26 98 27 200 0 84 -5 139 -17 185 -93 346 -430 620 -868 705 -101 20 -328
27 -423 14z m277 -69 c282 -27 515 -127 701 -301 162 -151 246 -330 246 -524
0 -531 -618 -865 -1230 -665 -349 114 -612 380 -674 682 -20 95 -20 153 -1
243 22 106 76 205 159 293 148 157 346 248 591 271 44 5 85 9 90 10 6 0 59 -4
118 -9z"/>
<path d="M5829 10990 c-14 -4 -53 -20 -87 -35 l-61 -27 67 -89 c37 -49 70 -89
75 -89 8 0 158 60 166 66 4 4 -108 161 -123 173 -6 4 -23 5 -37 1z"/>
<path d="M6496 10888 c-30 -45 -53 -84 -51 -88 5 -9 175 -84 179 -79 34 41
104 154 100 160 -6 10 -77 47 -136 72 l-37 16 -55 -81z"/>
<path d="M6125 10601 c-16 -4 -45 -16 -64 -26 l-35 -17 32 -27 c18 -14 32 -29
32 -32 0 -3 -24 -2 -52 2 -63 8 -75 0 -89 -61 -24 -106 42 -209 171 -268 44
-21 71 -26 135 -26 158 0 265 84 265 210 0 131 -128 241 -293 249 -39 2 -85 1
-102 -4z"/>
<path d="M5340 10403 c0 -28 3 -64 6 -81 6 -30 7 -30 88 -37 44 -3 93 -8 109
-11 l27 -6 0 80 c0 93 9 87 -137 98 l-93 7 0 -50z"/>
<path d="M6886 10353 c3 -38 7 -74 10 -80 2 -10 34 -13 114 -13 l110 0 0 43
c0 23 -3 59 -6 80 l-7 37 -113 0 -113 0 5 -67z"/>
<path d="M5800 9851 c-60 -104 -63 -94 35 -141 47 -23 88 -41 89 -39 10 11 96
158 96 163 0 7 -161 86 -174 86 -3 0 -23 -31 -46 -69z"/>
<path d="M6607 9869 l-77 -39 67 -83 c37 -45 68 -84 69 -86 4 -5 124 53 147
71 17 13 14 19 -49 96 -36 45 -69 82 -73 82 -3 -1 -41 -19 -84 -41z"/>
<path d="M12945 11159 c-153 -21 -376 -90 -405 -124 -7 -8 -31 -20 -54 -27
l-41 -13 48 -3 c34 -2 47 -7 47 -19 0 -8 6 -13 13 -10 127 55 170 71 249 92
264 70 559 44 783 -68 301 -150 458 -431 401 -717 -10 -46 -28 -109 -41 -139
-20 -48 -21 -58 -9 -76 12 -18 12 -24 0 -41 -18 -24 -34 -10 -18 16 10 16 10
20 0 20 -7 -1 -29 -26 -48 -57 -19 -31 -70 -91 -112 -133 -332 -334 -891 -418
-1285 -194 -42 24 -78 44 -80 44 -2 0 -3 -18 -3 -39 0 -34 5 -42 34 -60 145
-90 433 -151 529 -112 23 9 29 8 33 -4 9 -21 48 -18 69 5 24 27 59 27 50 1 -4
-15 -2 -18 12 -16 10 2 50 9 88 16 265 45 547 210 701 411 66 85 131 214 155
304 26 99 28 261 5 349 -64 239 -276 447 -551 540 -154 52 -411 76 -570 54z"/>
<path d="M7530 11096 c0 -35 -10 -56 -27 -56 -11 0 -13 -11 -8 -57 8 -81 45
-563 45 -590 l0 -23 185 0 c102 0 185 2 185 4 0 2 -7 40 -15 83 -25 134 -90
300 -129 332 -9 8 -16 21 -16 30 0 10 -7 26 -15 37 -13 18 -14 18 -8 -5 l6
-24 -46 28 c-35 20 -54 25 -76 20 -27 -6 -30 -3 -45 41 -21 63 -20 83 5 110
l21 23 -27 35 c-15 20 -29 36 -31 36 -2 0 -4 -11 -4 -24z"/>
<path d="M12730 10976 c-36 -12 -77 -29 -92 -37 l-27 -14 44 -80 c28 -49 45
-72 45 -59 0 12 8 32 19 45 16 21 21 22 36 9 11 -9 15 -24 13 -42 -3 -15 -2
-28 1 -28 7 0 112 40 123 46 6 4 -73 157 -91 176 -3 4 -35 -3 -71 -16z"/>
<path d="M12323 10906 c-106 -84 -192 -188 -248 -301 -56 -113 -75 -193 -75
-321 0 -125 24 -225 81 -334 48 -93 155 -216 173 -200 9 6 23 6 44 -2 36 -14
40 -23 15 -37 -13 -7 -15 -13 -7 -21 8 -8 18 -5 38 12 l27 23 -84 85 c-144
146 -202 284 -201 475 1 199 63 335 231 502 103 103 113 120 95 166 -6 15 -19
8 -89 -47z"/>
<path d="M13431 10909 c-46 -51 -49 -58 -25 -49 42 16 55 7 43 -30 -6 -17 -20
-36 -31 -44 -18 -13 -16 -15 26 -40 24 -14 49 -26 53 -26 5 0 21 13 36 28 16
17 22 29 14 29 -16 0 -67 33 -67 43 0 27 78 18 88 -10 6 -15 13 -11 45 26 l38
43 -42 26 c-23 15 -60 35 -83 45 l-42 18 -53 -59z"/>
<path d="M12985 10600 c-128 -32 -224 -132 -225 -236 0 -58 42 -136 91 -168
141 -94 359 -54 449 82 37 56 38 105 3 110 -29 4 -29 12 -1 47 21 27 21 28 3
61 -45 84 -199 135 -320 104z"/>
<path d="M12166 10427 c-3 -13 -8 -48 -12 -79 l-6 -55 78 -7 c44 -4 93 -9 110
-12 l30 -6 17 78 c9 43 15 79 12 82 -5 5 -139 21 -186 22 -30 0 -38 -4 -43
-23z"/>
<path d="M13707 10413 c-2 -5 -8 -41 -11 -80 l-7 -73 114 0 114 0 7 38 c3 20
6 56 6 80 l0 42 -109 0 c-61 0 -112 -3 -114 -7z"/>
<path d="M9650 10355 c18 -21 5 -45 -25 -45 -23 0 -25 -3 -25 -51 0 -49 1 -50
28 -47 25 3 27 7 30 56 l3 52 167 0 167 0 12 25 11 25 -190 0 c-167 0 -189 -2
-178 -15z"/>
<path d="M11223 10345 l12 -25 223 0 222 0 0 25 0 25 -234 0 -234 0 11 -25z"/>
<path d="M7550 10288 c0 -13 11 -164 25 -337 20 -255 28 -319 43 -345 10 -17
22 -31 27 -31 16 0 104 134 156 237 69 138 100 248 106 386 5 96 4 112 -9 112
-9 0 -18 -9 -21 -20 -3 -12 -14 -20 -27 -20 -17 0 -20 4 -15 20 6 18 2 20 -54
20 -58 0 -61 -1 -61 -24 0 -13 -6 -29 -14 -35 -22 -18 -56 3 -56 34 0 23 -4
25 -50 25 -45 0 -50 -2 -50 -22z"/>
<path d="M7980 10241 c0 -132 -48 -316 -118 -456 -35 -71 -137 -231 -153 -241
-18 -11 -8 -23 29 -36 30 -11 376 -13 1892 -13 l1855 0 53 29 c61 34 93 78 85
119 -4 20 -1 27 11 27 13 0 16 11 16 50 l0 50 -42 -30 c-87 -60 -89 -60 -910
-60 -492 0 -748 -3 -748 -10 0 -5 -9 -10 -20 -10 -11 0 -20 5 -20 10 0 15 -64
12 -96 -5 -26 -13 -29 -13 -32 0 -2 8 -12 15 -21 15 -10 0 -32 3 -48 6 -21 4
-30 2 -31 -8 -4 -54 -17 -98 -27 -98 -28 0 -26 59 3 93 8 9 13 18 11 20 -2 1
-21 10 -41 19 -36 17 -37 16 -43 -2 -10 -30 -28 -24 -21 6 6 21 -1 34 -32 68
-49 53 -59 84 -67 216 -4 69 -11 110 -21 121 -18 20 -18 48 1 55 11 5 15 22
15 70 l0 64 -105 0 -105 0 0 -39 c0 -49 -23 -76 -51 -61 -14 8 -19 21 -19 55
l0 45 -180 0 -180 0 0 -45 c0 -32 -5 -47 -18 -54 -31 -17 -52 5 -52 54 l0 45
-175 0 -175 0 0 -44 c0 -56 -21 -77 -50 -51 -13 12 -20 31 -20 57 l0 38 -175
0 -175 0 0 -69z m245 -165 c7 -34 -24 -147 -41 -153 -6 -2 -28 12 -50 32 -21
20 -49 38 -61 41 -28 7 -29 24 -3 57 11 14 20 30 20 36 0 6 12 13 28 16 15 4
38 13 52 20 22 13 26 12 37 -2 7 -9 15 -30 18 -47z"/>
<path d="M564 10253 c-28 -41 -31 -42 -82 -43 l-54 0 33 -41 c30 -38 31 -43
20 -78 -17 -59 -16 -61 35 -44 44 15 46 15 82 -11 l37 -26 3 49 c3 45 6 51 42
75 22 15 40 28 40 30 0 3 -22 12 -48 20 -45 15 -50 20 -63 64 l-15 47 -30 -42z"/>
<path d="M12501 9839 c-35 -44 -62 -82 -60 -84 8 -8 144 -85 150 -85 5 0 79
88 131 157 6 7 -14 24 -65 52 -41 23 -78 41 -83 41 -5 0 -38 -36 -73 -81z"/>
<path d="M13322 9870 c-80 -38 -83 -40 -71 -62 22 -41 91 -148 95 -148 3 0 43
18 90 40 56 27 82 45 78 53 -34 60 -97 157 -103 157 -3 0 -43 -18 -89 -40z"/>
<path d="M7040 9328 l-35 -33 1969 -3 c1431 -1 1972 1 1977 9 5 8 12 8 27 0
14 -7 126 -11 339 -11 l318 0 28 35 28 35 -285 0 c-218 0 -285 -3 -289 -12 -4
-10 -7 -10 -18 0 -8 7 -41 12 -86 12 -61 0 -73 -3 -73 -17 0 -15 -1 -15 -18 0
-17 16 -166 17 -1933 17 l-1915 0 -34 -32z"/>
<path d="M11790 9341 c0 -11 -3 -26 -6 -35 -5 -14 17 -16 206 -16 l213 0 -34
23 c-19 13 -33 29 -31 35 1 9 -46 12 -173 12 -166 0 -175 -1 -175 -19z"/>
<path d="M12657 9350 c71 -6 103 -20 103 -46 0 -11 27 -14 136 -14 74 0 133 4
130 9 -3 4 3 16 13 25 21 19 37 7 27 -19 -5 -13 72 -15 574 -15 l580 0 0 24
c0 14 4 27 8 30 13 8 52 -23 52 -40 0 -12 30 -14 178 -14 l179 0 -1 35 -1 34
-1025 -1 c-564 0 -993 -4 -953 -8z"/>
<path d="M18710 9245 c-20 -21 -32 -26 -61 -23 l-36 3 16 -33 c14 -31 14 -36
-2 -64 l-17 -30 35 3 c27 3 41 -3 65 -26 l30 -29 0 38 c0 31 5 40 30 54 16 9
30 19 30 22 0 3 -13 12 -29 22 -23 13 -30 25 -33 53 l-3 37 -25 -27z"/>
<path d="M1980 9225 c0 -3 7 -35 16 -70 l16 -65 736 -2 737 -3 322 -770 c177
-423 322 -776 323 -782 0 -10 -178 -13 -860 -13 -681 0 -860 -3 -860 -12 0 -7
40 -172 89 -366 60 -240 96 -363 111 -385 33 -47 76 -79 134 -99 47 -16 119
-17 1008 -17 l956 0 36 24 c20 14 43 25 49 25 19 0 36 -21 30 -36 -3 -9 2 -14
17 -14 21 0 22 4 17 40 l-5 39 27 -13 c15 -8 33 -26 41 -40 l13 -26 1119 0
c615 0 1118 2 1118 4 0 2 -7 17 -15 32 -24 46 -19 89 12 114 54 42 137 -8 169
-102 l16 -48 3994 0 3994 0 20 40 c11 21 20 48 20 60 0 24 -3 24 43 1 39 -20
36 -31 -10 -45 -31 -10 -29 -20 10 -40 29 -16 77 -17 582 -14 l550 3 55 31
c98 56 103 67 191 466 43 194 78 359 79 366 0 9 -28 12 -110 12 -60 0 -109 -3
-107 -8 1 -4 -2 -7 -8 -7 -5 0 -9 3 -8 7 2 5 -227 8 -508 8 -337 0 -508 -3
-504 -10 3 -5 -3 -10 -14 -10 -11 0 -23 5 -26 10 -3 6 -25 10 -49 10 l-42 0
-318 773 c-175 424 -321 778 -323 785 -4 9 143 12 716 12 587 0 721 2 721 13
0 7 7 22 15 33 14 18 16 18 45 -13 l30 -33 349 0 c346 0 349 0 354 21 7 24 33
20 31 -5 -2 -13 8 -16 50 -16 l52 0 12 58 c18 87 23 82 -79 82 -57 0 -88 -4
-84 -10 3 -5 -1 -10 -9 -10 -9 0 -16 5 -16 10 0 7 -728 10 -2165 10 l-2166 0
-23 -25 c-30 -32 -40 -32 -32 0 l6 25 -535 0 c-358 0 -534 -3 -530 -10 11 -18
-27 -24 -40 -7 -11 15 -41 17 -269 17 -161 0 -255 -4 -251 -10 3 -5 -1 -36 -8
-70 l-14 -60 293 0 294 0 0 28 1 27 24 -27 24 -28 485 0 c378 0 485 3 489 13
3 10 11 10 39 0 44 -17 1598 -19 1598 -3 0 13 43 13 56 0 5 -5 88 -11 183 -12
l174 -3 324 -774 c177 -426 323 -778 323 -783 0 -4 -459 -8 -1021 -8 l-1020 0
-25 -30 c-14 -16 -48 -42 -75 -56 -34 -19 -51 -35 -55 -53 -3 -14 -7 -30 -8
-35 -1 -5 -10 -1 -19 8 -23 23 -22 82 2 129 l19 37 -144 0 c-144 0 -172 -8
-119 -32 33 -15 32 -31 -9 -75 -34 -37 -35 -37 -105 -35 -64 2 -71 0 -71 -17
0 -25 -51 -67 -92 -76 -26 -6 -35 -3 -49 14 -9 11 -23 21 -30 21 -14 0 -166
88 -174 101 -3 4 11 17 32 28 21 10 49 31 62 45 l24 26 -86 0 -86 0 -3 -27
c-2 -17 -9 -28 -18 -28 -10 0 -14 9 -13 28 l2 27 -1352 0 -1353 0 -1 -22 c-2
-25 -29 -53 -60 -63 -20 -5 -23 -3 -23 21 0 15 7 36 17 46 16 17 -40 18 -1753
18 -1256 0 -1780 -3 -1809 -11 -29 -8 -40 -8 -43 0 -2 7 -33 11 -78 11 -80 0
-87 -6 -58 -48 23 -33 -1 -29 -82 13 l-67 35 -641 0 -641 0 -320 776 c-176
427 -321 780 -323 785 -2 5 50 9 115 9 l118 1 30 42 c17 23 38 54 48 69 l19
27 -1006 1 c-553 0 -1006 -2 -1006 -5z m1149 -1788 c142 -50 256 -148 319
-276 33 -67 37 -82 37 -155 0 -62 -5 -92 -21 -127 -49 -105 -139 -168 -269
-190 -147 -25 -324 40 -450 165 -94 93 -136 176 -143 280 -5 82 5 121 47 188
30 47 154 143 176 135 6 -3 27 -1 46 4 58 14 179 3 258 -24z m13392 4 c166
-63 246 -234 189 -405 -34 -104 -119 -207 -225 -272 -16 -11 -30 -26 -30 -34
0 -11 -12 -15 -40 -16 -22 -1 -72 -8 -111 -17 -69 -16 -197 -18 -211 -3 -4 4
-27 16 -52 27 -99 43 -160 116 -187 220 -13 52 -14 72 -4 123 17 85 53 156
111 220 29 31 44 56 37 58 -6 2 -8 10 -4 16 5 8 13 9 23 3 11 -6 28 0 57 19
129 87 312 112 447 61z m-11744 -8 c30 -5 32 -8 26 -36 -6 -28 -5 -30 18 -23
58 18 69 18 69 3 0 -8 7 -20 15 -27 11 -9 12 -17 5 -30 -6 -10 -10 -54 -10
-97 l0 -78 -53 -30 c-28 -16 -62 -34 -75 -38 -12 -5 -25 -20 -28 -35 -12 -56
-21 -76 -37 -86 -25 -16 -27 -5 -10 47 15 45 14 49 -3 68 -10 11 -21 41 -24
67 -4 26 -9 54 -11 62 -4 16 3 16 36 4 20 -7 20 -7 1 14 -12 14 -21 47 -27
103 -5 45 -12 85 -15 90 -7 13 49 39 71 33 11 -2 34 -7 52 -11z m1629 -558
c23 -15 64 -71 64 -87 0 -5 -14 -8 -32 -8 -35 0 -68 -24 -68 -51 0 -47 -28
-63 -64 -36 -16 11 -16 15 -1 49 19 47 19 91 0 128 -11 22 -12 29 -2 33 18 6
74 -9 103 -28z"/>
<path d="M3072 7425 c89 -23 176 -72 245 -138 190 -182 175 -435 -32 -537 -44
-22 -63 -25 -160 -25 -91 1 -120 5 -168 24 -188 75 -320 239 -321 402 -1 84
39 168 101 214 23 16 42 34 42 38 1 5 -20 -6 -45 -25 -28 -20 -59 -55 -78 -88
-27 -49 -31 -64 -31 -135 0 -69 5 -89 32 -148 44 -93 92 -148 180 -207 97 -65
179 -90 294 -90 141 0 237 47 294 145 104 176 -7 425 -237 535 -45 22 -103 42
-128 45 -42 5 -41 4 12 -10z"/>
<path d="M2870 7359 c-19 -10 -41 -19 -49 -19 -8 0 -29 -11 -47 -25 -78 -60
-98 -190 -45 -301 119 -253 499 -325 626 -120 26 44 30 58 30 125 0 61 -5 86
-25 126 -68 140 -228 236 -388 234 -47 0 -78 -6 -102 -20z m104 -135 l66 -57
50 42 c30 25 59 41 75 41 30 0 85 -49 85 -75 0 -9 -23 -37 -50 -62 l-51 -47
66 -66 c67 -68 78 -95 49 -124 -33 -34 -73 -18 -156 62 l-46 45 -29 -21 c-15
-11 -37 -29 -47 -41 -28 -30 -71 -27 -107 8 -16 16 -29 37 -29 46 0 9 23 38
51 64 l51 47 -53 48 c-50 44 -78 80 -79 99 0 16 41 47 64 47 15 0 50 -22 90
-56z"/>
<path d="M16214 7426 c-72 -23 -164 -78 -219 -132 -76 -75 -117 -163 -123
-263 -4 -69 -1 -85 23 -140 32 -69 85 -123 154 -154 64 -29 217 -36 296 -13
31 10 55 19 52 22 -3 3 -29 -2 -58 -10 -68 -21 -183 -20 -247 0 -113 37 -199
140 -209 252 -17 188 146 384 363 436 33 8 48 14 34 14 -14 1 -43 -5 -66 -12z"/>
<path d="M16235 7366 c-170 -54 -288 -189 -289 -330 0 -33 6 -78 13 -98 12
-35 15 -38 52 -38 22 0 55 -6 74 -14 28 -12 33 -18 28 -38 -4 -13 -13 -28 -21
-34 -13 -9 -10 -13 19 -22 96 -30 199 -21 296 25 70 33 152 109 187 174 38 68
47 168 22 234 -23 58 -93 120 -159 140 -61 18 -167 18 -222 1z m22 -108 c11
-13 28 -38 39 -55 10 -18 22 -33 26 -33 4 0 35 18 69 40 34 22 73 40 86 40 29
0 67 -36 59 -57 -3 -8 -6 -19 -6 -24 0 -5 -31 -30 -70 -55 -38 -26 -70 -49
-70 -51 0 -3 17 -32 37 -65 35 -57 36 -61 22 -86 -19 -35 -59 -57 -90 -49 -14
4 -36 26 -54 53 -16 26 -33 52 -37 57 -4 6 -34 -7 -73 -31 -69 -44 -100 -51
-127 -29 -42 32 -22 76 57 126 36 22 65 44 65 48 0 4 -14 28 -30 53 -16 25
-30 53 -30 63 0 65 85 101 127 55z"/>
<path d="M4025 9222 c-3 -3 -5 -34 -5 -69 l0 -63 281 0 282 0 -6 28 c-3 15 -9
35 -12 44 -5 13 2 19 35 28 38 10 99 5 173 -16 13 -4 17 1 17 25 l0 30 -97 -1
c-54 -1 -103 -5 -110 -10 -7 -5 -14 -5 -18 2 -3 6 -45 10 -98 10 -81 0 -94 -2
-105 -20 -16 -26 -29 -25 -37 0 -6 20 -14 21 -151 19 -79 -1 -146 -4 -149 -7z"/>
<path d="M4828 9205 c4 -26 18 -33 24 -14 2 6 14 8 31 4 23 -6 27 -13 27 -40
0 -18 3 -41 6 -49 6 -15 279 -16 3045 -16 2412 0 3039 3 3038 13 0 6 -4 21 -8
31 -6 15 -10 16 -15 7 -13 -20 -75 -43 -97 -36 -19 6 -19 8 -3 32 9 15 25 41
36 60 l20 33 -1986 0 -1986 0 -12 -25 c-14 -31 -20 -31 -83 0 l-50 25 -996 0
-996 0 5 -25z"/>
<path d="M9262 8640 c-12 -19 -23 -20 -232 -20 -121 0 -220 -3 -220 -6 0 -3 7
-12 15 -20 13 -13 15 -63 15 -323 0 -262 -2 -310 -15 -321 -8 -7 -15 -16 -15
-21 0 -5 74 -9 163 -9 146 0 166 2 180 18 10 10 17 28 17 40 0 15 6 22 20 22
17 0 20 -7 20 -40 0 -38 2 -40 30 -40 17 0 33 -7 39 -17 8 -13 10 11 10 87 0
73 -3 98 -9 83 -9 -23 -13 -23 -170 -23 l-160 0 0 85 0 85 94 0 c87 0 96 -2
110 -22 15 -21 16 -15 16 82 0 97 -1 103 -16 82 -14 -20 -23 -22 -110 -22
l-95 0 3 78 3 77 142 3 c132 2 144 1 163 -18 l20 -20 0 100 c0 55 -1 100 -3
100 -1 0 -8 -9 -15 -20z"/>
<path d="M7733 8609 c-54 -26 -99 -78 -131 -148 -20 -43 -26 -76 -30 -153 l-5
-97 71 -76 c44 -47 69 -82 65 -90 -7 -19 -21 -19 -57 0 -16 9 -31 14 -33 11
-2 -2 11 -23 29 -47 47 -61 123 -99 199 -99 72 0 114 16 169 66 78 71 118 196
107 338 -10 137 -62 236 -150 286 -44 25 -63 30 -122 30 -51 0 -81 -6 -112
-21z m182 -127 c19 -11 41 -39 60 -76 55 -112 36 -257 -46 -330 -135 -122
-296 76 -235 287 36 125 126 172 221 119z"/>
<path d="M11005 8611 c-78 -35 -115 -103 -115 -211 0 -141 35 -174 218 -201
86 -13 136 -42 140 -81 7 -59 -81 -98 -177 -79 -65 13 -113 39 -126 69 -5 12
-12 22 -15 22 -3 0 -14 -29 -23 -64 -9 -36 -20 -72 -23 -81 -5 -11 -2 -16 7
-14 8 2 40 -10 72 -25 114 -56 251 -46 332 26 47 41 59 84 56 206 l-1 43 -23
-27 c-25 -29 -47 -26 -47 7 0 19 37 42 53 32 14 -8 7 15 -13 39 -25 32 -72 51
-180 73 -132 27 -172 55 -147 106 18 36 74 61 128 56 66 -5 138 -43 154 -80
15 -35 18 -31 50 64 18 53 21 70 10 66 -7 -3 -48 12 -90 34 -65 33 -85 39
-138 39 -38 0 -77 -7 -102 -19z"/>
<path d="M11830 8615 c-119 -54 -180 -168 -180 -340 0 -85 19 -175 47 -228 16
-30 18 -30 21 -9 2 12 10 22 18 22 12 0 15 -10 13 -40 -3 -36 0 -43 31 -64
105 -70 211 -62 337 26 27 18 54 31 62 30 7 -2 12 1 10 5 -34 83 -64 143 -71
143 -5 0 -7 -4 -4 -9 3 -5 -3 -19 -13 -32 -10 -13 -16 -30 -13 -38 3 -8 -1
-12 -9 -9 -8 3 -30 -3 -49 -14 -21 -11 -55 -18 -86 -18 -210 0 -251 378 -49
455 42 17 47 17 97 0 70 -22 118 -59 118 -91 0 -52 21 -20 78 118 2 4 -1 8 -7
8 -6 0 -45 21 -87 48 -72 44 -82 47 -153 50 -52 1 -87 -3 -111 -13z"/>
<path d="M6590 8616 c0 -2 7 -17 15 -32 12 -24 15 -81 15 -314 0 -233 -3 -290
-15 -314 -8 -15 -15 -30 -15 -32 0 -2 36 -4 80 -4 44 0 80 2 80 4 0 2 -7 17
-15 32 -12 24 -15 81 -15 314 0 233 3 290 15 314 8 15 15 30 15 32 0 2 -36 4
-80 4 -44 0 -80 -2 -80 -4z"/>
<path d="M7060 8617 c0 -2 7 -18 16 -35 13 -27 15 -75 12 -326 -2 -219 -6
-298 -15 -308 -7 -6 -13 -16 -13 -20 0 -4 82 -8 182 -8 l182 0 -30 31 -29 30
39 -3 c45 -3 72 -32 46 -48 -12 -8 -11 -10 8 -10 14 0 26 -8 32 -22 6 -16 9
12 9 87 0 75 -3 103 -9 88 -9 -22 -13 -23 -155 -23 l-145 0 0 66 c0 50 -4 70
-16 79 -15 10 -15 13 0 27 13 14 16 43 16 180 0 129 3 168 15 184 8 10 15 22
15 27 0 4 -36 7 -80 7 -44 0 -80 -2 -80 -3z"/>
<path d="M8180 8614 c0 -4 7 -12 16 -18 16 -12 204 -584 204 -622 0 -13 -4
-26 -10 -29 -27 -17 -2 -25 80 -25 53 0 90 4 90 10 0 6 -4 10 -10 10 -29 0
-16 62 70 331 50 156 100 296 111 311 10 15 19 30 19 33 0 3 -40 5 -90 5 -49
0 -90 -2 -90 -5 0 -3 7 -16 15 -29 14 -22 11 -37 -47 -225 -34 -110 -64 -201
-68 -201 -4 0 -35 92 -70 205 -59 192 -62 206 -47 223 10 10 17 22 17 25 0 4
-43 7 -95 7 -52 0 -95 -3 -95 -6z"/>
<path d="M9600 8616 c0 -2 7 -17 15 -32 12 -24 15 -81 15 -314 0 -233 -3 -290
-15 -314 -8 -15 -15 -30 -15 -32 0 -2 34 -4 75 -4 41 0 75 2 75 4 0 2 -7 17
-15 32 -12 23 -15 70 -15 222 0 106 4 191 8 188 5 -3 43 -95 87 -205 43 -111
81 -201 85 -201 3 0 44 94 91 210 46 115 88 210 92 210 4 0 7 -95 5 -212 -2
-158 -6 -212 -15 -216 -7 -2 -13 -10 -13 -18 0 -11 18 -14 80 -14 44 0 80 3
80 8 0 4 -7 16 -15 26 -12 16 -15 71 -15 316 0 245 3 300 15 316 8 10 15 22
15 27 0 4 -43 7 -95 7 -86 0 -113 -8 -85 -25 6 -3 10 -14 10 -23 0 -19 -132
-352 -140 -352 -8 0 -131 316 -131 337 -1 10 2 28 6 41 7 22 6 22 -89 22 -53
0 -96 -2 -96 -4z"/>
<path d="M10290 8611 c0 -6 5 -13 10 -16 6 -4 10 -91 10 -229 0 -122 5 -249
11 -282 22 -120 77 -164 215 -172 72 -4 89 -1 136 21 102 46 118 105 118 433
0 188 2 223 15 228 8 3 15 10 15 16 0 6 -32 10 -80 10 -44 0 -80 -3 -80 -7 0
-3 7 -14 16 -24 13 -14 15 -48 14 -215 -1 -223 -9 -273 -52 -309 -42 -36 -124
-36 -166 0 -43 36 -52 92 -52 314 0 149 3 191 15 207 8 10 15 22 15 27 0 4
-36 7 -80 7 -44 0 -80 -4 -80 -9z"/>
<path d="M11420 8613 c0 -5 7 -17 15 -27 12 -16 15 -57 15 -199 0 -153 2 -178
14 -168 23 19 28 -4 6 -24 -17 -16 -20 -31 -20 -120 0 -73 -4 -106 -15 -121
-8 -10 -15 -22 -15 -26 0 -5 36 -8 80 -8 64 0 80 3 80 15 0 8 -4 15 -10 15 -6
0 -10 113 -10 319 0 203 4 322 10 326 27 16 3 25 -70 25 -44 0 -80 -3 -80 -7z"/>
<path d="M1140 8067 c-11 -23 -23 -33 -42 -35 -34 -4 -35 -9 -3 -34 19 -15 23
-25 18 -48 -6 -34 2 -37 35 -15 19 14 24 14 52 0 l31 -16 -7 28 c-4 15 -8 30
-11 32 -2 3 9 17 24 33 l27 28 -37 0 c-30 0 -39 5 -52 30 -9 17 -17 30 -18 30
-1 0 -9 -15 -17 -33z"/>
<path d="M18606 7885 c-15 -23 -23 -26 -60 -23 l-43 3 15 -32 c14 -30 14 -36
-1 -69 l-18 -36 39 7 c32 5 41 2 62 -20 26 -27 40 -20 40 22 0 16 11 28 37 42
l38 19 -38 18 c-28 14 -37 24 -37 43 0 45 -15 56 -34 26z"/>
<path d="M8769 5971 c-12 -46 -15 -50 -56 -61 -24 -7 -43 -15 -43 -19 1 -3 19
-18 40 -33 37 -26 40 -32 40 -74 l0 -46 38 30 c36 29 38 29 82 16 25 -8 46
-14 47 -14 1 0 -5 20 -14 45 -15 45 -15 47 11 85 l26 40 -48 0 c-46 0 -51 3
-77 40 -15 22 -29 40 -30 40 -2 0 -9 -22 -16 -49z"/>
<path d="M3120 5845 c-91 -16 -193 -42 -240 -62 l-35 -15 39 -34 c49 -42 39
-66 -15 -35 -66 38 -101 37 -176 -4 -75 -41 -186 -120 -220 -157 -11 -12 -23
-32 -25 -43 -2 -11 -12 -21 -23 -23 -78 -14 -251 -298 -294 -483 -98 -415 73
-770 479 -997 149 -83 399 -158 625 -187 356 -45 442 -67 610 -150 129 -64
220 -130 329 -239 65 -65 78 -74 72 -51 -6 22 -2 32 23 54 l30 27 -35 27 c-22
18 -34 36 -34 53 l0 24 60 -30 c33 -16 69 -30 80 -30 18 0 20 -6 20 -59 0 -63
-14 -80 -55 -65 -16 7 -17 3 -12 -32 18 -108 27 -134 67 -199 166 -269 264
-616 291 -1030 8 -127 15 -172 26 -180 12 -9 11 -13 -6 -29 -17 -16 -21 -31
-21 -85 0 -66 -23 -277 -38 -348 l-8 -38 -65 3 c-115 6 -416 42 -809 97 -212
30 -403 54 -425 53 -22 0 -64 6 -94 13 -49 12 -54 12 -67 -5 -7 -10 -15 -23
-17 -29 -4 -13 -47 14 -47 30 0 16 -94 17 -193 2 -216 -33 -365 -148 -428
-330 -30 -88 -30 -250 0 -364 31 -115 103 -255 169 -327 69 -74 228 -203 347
-281 502 -327 996 -312 1368 43 91 86 201 226 193 246 -3 8 1 14 9 14 31 0
153 241 221 435 l42 120 208 6 c351 11 565 49 789 138 82 33 107 46 213 114
34 22 64 38 66 36 2 -2 -7 -112 -20 -244 -13 -132 -23 -247 -24 -255 0 -13
-26 -15 -173 -15 -150 0 -182 -3 -252 -23 -212 -61 -327 -177 -327 -328 0
-125 78 -225 237 -304 132 -64 176 -75 305 -75 110 0 119 2 181 32 108 54 200
169 240 301 9 33 16 41 28 36 9 -3 115 -39 236 -79 732 -245 1442 -417 1890
-459 l60 -5 -60 23 c-60 23 -79 48 -39 54 12 2 60 -17 107 -42 48 -26 90 -46
93 -46 11 0 -7 54 -32 97 -15 26 -35 45 -49 49 -49 12 -12 104 41 104 14 0 23
4 20 9 -3 4 -43 11 -88 15 -273 23 -849 141 -1182 242 -12 4 -16 2 -12 -5 9
-14 -5 -14 -39 -1 -14 5 -24 14 -21 18 3 5 -48 23 -112 42 -132 38 -595 187
-717 231 l-80 29 57 598 c31 328 57 609 57 624 1 21 -3 25 -18 21 -23 -6 -36
24 -20 44 10 11 14 11 28 -1 15 -14 20 28 64 512 27 290 50 543 53 562 3 27 2
31 -5 15 -5 -11 -10 -39 -10 -62 -1 -65 -70 -133 -135 -133 -37 0 -41 17 -12
58 35 51 64 120 72 172 5 30 17 54 36 72 15 14 31 40 34 57 5 25 11 30 25 26
14 -5 18 0 21 21 3 25 7 28 47 28 l44 1 16 59 c11 42 24 65 44 80 28 21 29 21
43 2 33 -45 12 -88 -64 -134 l-33 -20 103 -13 c135 -18 605 -19 748 -1 444 55
773 161 1026 330 219 147 353 321 416 539 33 114 32 349 -1 478 -62 239 -161
414 -335 593 -81 83 -93 92 -127 92 -39 0 -64 20 -64 53 0 41 -332 209 -418
212 -21 0 -41 6 -45 12 -9 14 -98 37 -227 59 -137 23 -416 23 -545 0 -270 -48
-451 -134 -588 -280 -108 -116 -146 -214 -162 -426 -27 -355 -155 -1775 -253
-2817 l-34 -351 -34 -58 c-51 -87 -180 -213 -273 -267 -192 -112 -442 -170
-790 -184 l-168 -6 6 29 c36 176 54 517 37 731 -27 346 -94 627 -216 904 -86
198 -273 473 -312 463 -26 -7 -73 13 -73 31 0 12 4 13 25 3 125 -57 -137 178
-307 277 -39 22 -48 24 -48 11 0 -9 7 -16 15 -16 8 0 15 -5 15 -10 0 -15 -31
-25 -39 -12 -3 6 -33 12 -66 14 l-60 3 35 16 c19 9 44 19 55 23 17 7 13 11
-28 32 -131 68 -309 115 -518 139 -265 31 -424 67 -584 134 -272 114 -429 288
-465 517 -10 63 -2 181 16 227 4 13 1 17 -15 17 -12 0 -21 6 -21 15 0 25 -23
65 -37 65 -7 0 -13 -4 -13 -9 0 -16 -42 -61 -51 -55 -22 13 111 163 159 178
12 4 30 2 40 -3 17 -9 25 -3 57 47 49 74 163 187 243 241 94 63 215 118 327
147 84 22 122 27 235 27 74 1 164 -5 200 -12 68 -13 265 -75 288 -90 11 -6 4
-22 -32 -71 -25 -34 -59 -90 -76 -125 -120 -252 -14 -480 257 -550 68 -18 230
-20 305 -4 135 29 254 114 305 218 24 48 28 68 27 141 0 128 -27 184 -129 274
-44 39 -95 83 -114 97 l-34 27 64 20 c183 60 349 47 484 -39 34 -22 61 -30 94
-31 49 -1 91 15 91 35 0 7 9 20 20 30 24 20 27 84 5 126 -16 33 -83 78 -175
119 -103 46 -162 57 -310 56 -174 0 -276 -25 -464 -114 l-68 -32 -91 42 c-281
131 -580 179 -837 135z m4602 -314 c274 -47 514 -162 693 -332 140 -133 226
-272 281 -454 37 -125 40 -298 6 -396 -115 -333 -516 -563 -1147 -656 -92 -13
-185 -18 -395 -18 -266 0 -314 4 -535 40 l-31 5 32 358 c18 196 44 501 58 677
34 413 40 457 73 518 67 122 245 220 477 262 112 21 355 18 488 -4z m-3533
-280 c96 -75 141 -124 141 -152 0 -91 -250 -145 -367 -79 -57 31 -71 67 -49
124 20 52 62 119 106 169 l32 37 28 -17 c16 -10 65 -47 109 -82z m2250 -2522
c14 -62 14 -109 2 -109 -6 0 -12 4 -15 9 -3 4 -27 11 -54 15 -26 3 -58 13 -70
22 l-22 15 21 39 c12 21 31 43 43 48 62 30 82 22 95 -39z m-2759 -1458 c444
-63 755 -101 828 -101 27 0 45 -5 48 -14 7 -17 -50 -165 -109 -282 -164 -327
-395 -520 -664 -554 -133 -17 -315 21 -466 97 -70 35 -87 35 -87 2 0 -10 -5
-19 -10 -19 -16 0 -24 30 -11 43 18 18 14 22 -48 61 -77 47 -222 160 -288 223
-57 56 -90 115 -122 218 -61 196 -1 332 167 377 111 30 270 19 762 -51z m2329
-607 c30 -6 32 -9 26 -38 -10 -46 -58 -127 -89 -151 -62 -46 -236 -11 -330 66
-35 30 -36 32 -20 50 18 20 106 56 169 69 50 10 202 12 244 4z"/>
<path d="M17265 5161 c-147 -40 -268 -111 -371 -218 -89 -93 -93 -103 -59
-155 29 -43 39 -81 30 -106 -4 -10 -20 -1 -52 28 -43 38 -48 40 -60 24 -18
-25 -51 -130 -64 -206 -6 -38 -14 -66 -18 -63 -14 8 -125 -26 -196 -60 -136
-65 -199 -143 -199 -246 1 -90 60 -172 176 -245 103 -65 304 -125 470 -140
l73 -7 -19 22 -19 21 116 0 c71 0 117 -4 117 -10 0 -5 8 -10 18 -9 10 0 12 3
5 6 -32 12 -5 18 95 20 89 2 109 5 120 20 10 15 14 15 21 4 7 -11 26 -10 112
4 57 9 108 21 113 26 6 5 15 9 20 9 6 0 4 -5 -4 -10 -9 -6 -10 -10 -3 -10 6 0
15 5 18 10 3 6 15 10 26 10 30 0 22 18 -20 44 -22 14 -42 30 -46 36 -13 21
-24 9 -13 -15 15 -33 2 -44 -21 -19 -14 14 -20 39 -23 97 -3 42 -2 77 2 77 11
0 20 -27 20 -56 0 -29 20 -31 45 -4 24 26 39 25 53 -4 9 -21 15 -23 56 -19 41
5 46 3 46 -14 0 -11 -6 -39 -14 -61 -12 -34 -12 -43 -1 -52 9 -8 14 -7 18 3 3
8 27 20 54 26 26 7 52 16 58 20 5 5 24 11 40 14 17 3 57 15 89 27 57 22 59 24
91 94 64 138 89 307 66 441 -15 82 -12 85 80 85 206 0 318 -122 250 -274 -41
-94 -188 -214 -354 -291 -47 -22 -84 -46 -97 -65 -12 -16 -18 -30 -13 -30 21
0 263 125 318 165 78 55 156 140 184 199 44 94 21 215 -51 269 -64 49 -106 60
-227 63 l-113 3 -32 73 c-38 87 -107 192 -141 214 -14 9 -25 20 -25 25 0 35
-181 151 -298 192 -79 28 -100 31 -232 34 -118 2 -158 -1 -215 -16z m416 -417
c28 -32 41 -65 41 -101 0 -35 -25 -73 -49 -73 -9 0 -12 -7 -7 -25 12 -48 -44
-77 -66 -34 -8 14 -8 24 -1 33 8 9 6 22 -5 46 -17 34 -15 88 6 163 11 36 11
37 38 23 15 -8 34 -22 43 -32z m-1001 -369 c0 -172 81 -365 215 -513 l48 -54
-39 7 c-267 44 -410 101 -515 205 -148 146 -68 297 206 386 39 13 73 23 78 24
4 0 7 -25 7 -55z"/>
<path d="M11740 4668 c0 -35 -5 -46 -32 -69 -25 -20 -29 -28 -18 -32 69 -20
73 -23 89 -64 l16 -42 23 39 c19 33 28 40 67 46 l45 6 -25 30 c-27 32 -30 52
-15 92 11 30 5 31 -42 12 -31 -13 -37 -13 -64 5 -40 26 -44 25 -44 -23z"/>
<path d="M13260 4075 c-21 -22 -30 -25 -58 -20 l-33 6 17 -25 c16 -25 15 -39
-1 -79 -7 -16 -4 -17 19 -11 22 5 33 1 57 -22 l29 -28 0 33 c0 25 6 36 30 49
16 9 30 19 30 22 0 3 -13 12 -29 22 -21 12 -31 25 -33 48 l-3 32 -25 -27z"/>
<path d="M18010 3909 c-30 -11 -91 -29 -135 -41 -44 -12 -86 -28 -94 -37 -9
-11 -15 -12 -18 -5 -3 8 -27 6 -86 -7 -152 -33 -301 -51 -482 -58 l-180 -6 95
-47 c52 -25 126 -54 163 -63 77 -18 223 -24 310 -12 49 7 57 11 52 25 -32 80
-3 119 46 64 16 -17 31 -27 34 -22 11 17 35 11 28 -6 -9 -23 26 -11 109 37 74
43 134 92 192 157 43 47 42 48 -34 21z"/>
<path d="M5370 3680 c-8 -20 -20 -30 -34 -30 -41 0 -50 -15 -22 -38 22 -17 25
-25 19 -53 -6 -29 -4 -32 13 -24 24 11 64 11 87 0 16 -7 18 -4 12 26 -5 28 -2
39 14 53 29 26 26 36 -9 36 -23 0 -33 7 -45 30 -9 17 -17 30 -19 30 -2 0 -9
-13 -16 -30z"/>
<path d="M10470 3481 c0 -29 -11 -51 -24 -51 -7 0 -21 -6 -31 -14 -18 -13 -17
-14 13 -30 27 -14 32 -22 32 -51 0 -40 9 -44 36 -14 15 17 26 20 57 15 l37 -6
-14 33 c-13 31 -12 37 7 67 l21 33 -35 -7 c-30 -5 -39 -2 -59 19 -28 30 -40
32 -40 6z"/>
<path d="M1130 3414 c-198 -38 -368 -130 -502 -272 -411 -436 -286 -1148 249
-1416 40 -20 112 -48 160 -63 79 -24 104 -26 243 -26 139 0 164 2 243 26 272
83 472 259 582 513 22 51 31 82 25 88 -14 14 -12 26 4 26 8 0 17 21 25 57 17
88 15 112 -14 125 -29 13 -23 28 12 28 l25 0 -7 88 c-10 120 -37 221 -89 327
-63 130 -61 128 -119 110 -58 -18 -94 -7 -103 31 -7 28 7 44 38 44 29 0 28 15
-1 62 -51 80 -234 191 -386 233 -59 17 -328 30 -385 19z m96 -200 c133 -63 73
-268 -73 -251 -104 11 -155 131 -91 213 40 51 105 66 164 38z m509 -219 c14
-13 25 -29 25 -35 0 -7 9 -5 22 4 12 9 26 16 30 16 13 0 8 -34 -7 -54 -11 -15
-17 -17 -29 -7 -11 10 -19 7 -40 -14 -31 -30 -55 -32 -90 -4 -32 25 -34 64 -4
96 28 30 63 29 93 -2z m-1044 -144 c54 -54 32 -140 -40 -162 -47 -14 -93 6
-117 52 -49 96 80 186 157 110z m1305 -170 c105 -48 133 -182 56 -264 -38 -41
-74 -57 -127 -57 -179 0 -233 239 -73 319 53 26 90 26 144 2z m-680 -40 c37
-23 66 -80 62 -124 -3 -29 1 -34 35 -49 22 -10 49 -15 62 -12 46 11 38 -18
-19 -72 -39 -37 -56 -61 -56 -79 0 -34 -24 -32 -62 5 -26 26 -30 36 -25 66 5
31 4 35 -11 29 -65 -26 -130 -5 -169 54 -77 115 64 255 183 182z m-463 -355
c130 -55 143 -235 22 -303 -135 -76 -299 62 -240 202 21 52 42 74 90 96 48 22
85 24 128 5z m802 -307 c25 -24 30 -37 30 -75 0 -39 -5 -50 -33 -75 -41 -37
-96 -39 -138 -7 -15 13 -35 23 -43 23 -9 0 -17 8 -19 18 -2 9 1 17 7 17 6 0
11 13 11 30 0 35 50 97 83 103 38 7 71 -4 102 -34z"/>
<path d="M3620 2846 c0 -27 -6 -38 -32 -54 l-32 -21 27 -10 c16 -6 32 -11 37
-11 5 0 14 -16 20 -36 l12 -37 25 32 c19 24 32 31 59 31 l35 0 -20 26 c-12 15
-21 33 -21 40 0 8 -6 11 -15 8 -9 -4 -15 0 -15 9 0 9 10 17 22 19 12 2 23 8
25 14 3 8 -7 9 -36 1 -34 -9 -43 -8 -59 6 -27 24 -32 21 -32 -17z"/>
<path d="M12917 2753 c-6 -33 -13 -42 -44 -57 l-38 -18 37 -19 c30 -15 37 -25
43 -60 l7 -41 32 31 c18 17 34 30 37 28 2 -2 19 -7 37 -10 l32 -7 -19 38 c-18
36 -18 38 -1 73 l19 36 -37 -7 c-32 -6 -41 -3 -68 22 l-31 29 -6 -38z"/>
<path d="M7898 2031 l-46 -26 -46 23 c-26 12 -48 22 -50 22 -2 0 2 -24 9 -52
l12 -53 -40 -42 -41 -43 39 0 c65 0 80 -9 105 -58 l23 -47 24 52 c22 49 26 52
69 59 24 3 47 10 49 15 3 4 -12 22 -33 39 -38 30 -38 31 -31 83 3 28 6 53 5
53 0 1 -22 -10 -48 -25z"/>
<path d="M13480 1786 l0 -65 -55 -33 c-30 -18 -55 -35 -55 -38 0 -3 25 -14 56
-25 60 -20 64 -25 86 -108 l13 -48 43 55 43 55 65 -6 66 -6 -37 56 -38 57 22
51 c25 61 26 76 6 59 -8 -6 -20 -10 -27 -8 -7 3 -28 1 -46 -4 -30 -8 -37 -5
-81 31 -27 23 -52 41 -55 41 -3 0 -6 -29 -6 -64z"/>
<path d="M16963 1569 c-7 -24 -17 -35 -41 -43 l-33 -11 30 -23 c20 -15 31 -31
31 -47 0 -29 7 -31 30 -10 14 12 23 13 45 5 35 -13 38 -10 25 24 -8 23 -6 33
11 57 l20 29 -35 0 c-25 0 -40 7 -55 26 l-20 25 -8 -32z"/>
<path d="M1750 1200 c-9 -22 -21 -31 -47 -36 l-34 -6 22 -24 c17 -18 20 -30
15 -55 -5 -27 -4 -30 12 -24 39 16 53 17 78 1 l25 -17 -6 33 c-5 28 -2 37 20
58 l27 25 -34 5 c-25 4 -37 13 -49 38 l-17 32 -12 -30z"/>
</g>
</svg>
