<?xml version="1.0" standalone="no"?>
<!DOCTYPE svg PUBLIC "-//W3C//DTD SVG 20010904//EN"
 "http://www.w3.org/TR/2001/REC-SVG-20010904/DTD/svg10.dtd">
<svg version="1.0" xmlns="http://www.w3.org/2000/svg"
 width="260.000000pt" height="451.000000pt" viewBox="0 0 260.000000 451.000000"
 preserveAspectRatio="xMidYMid meet">
<metadata>
Created by potrace 1.16, written by Peter Selinger 2001-2019
</metadata>
<g transform="translate(0.000000,451.000000) scale(0.100000,-0.100000)"
fill="#000000" stroke="none">
<path d="M568 4412 c-30 -46 -33 -48 -74 -46 -32 2 -56 13 -97 43 -37 28 -64
41 -85 41 -18 0 -32 -4 -32 -9 0 -5 24 -26 52 -47 58 -41 50 -59 -9 -24 -44
26 -91 22 -124 -9 -38 -35 -19 -51 60 -51 89 0 104 -18 19 -22 -48 -2 -63 -7
-63 -18 0 -8 -12 -23 -28 -32 -52 -33 -22 -60 41 -35 20 8 55 17 77 21 l40 6
-42 -21 c-41 -20 -56 -39 -31 -39 6 0 2 -10 -10 -23 -53 -56 -2 -65 60 -10 24
20 37 31 31 23 -7 -8 -13 -22 -13 -32 0 -28 33 -21 55 11 19 30 54 44 75 31
19 -12 29 -85 30 -212 l0 -116 -54 -46 c-29 -25 -58 -46 -65 -46 -15 0 -31
-43 -31 -82 0 -17 12 -57 26 -89 22 -49 25 -66 20 -112 -13 -102 -79 -211
-175 -289 -59 -48 -76 -88 -68 -163 8 -79 43 -149 129 -257 76 -96 178 -278
192 -345 6 -28 1 -39 -44 -94 -73 -92 -94 -140 -98 -229 -4 -88 13 -165 63
-279 38 -86 44 -146 26 -252 -6 -30 -15 -137 -20 -239 -6 -102 -15 -210 -21
-240 -17 -90 -15 -185 4 -214 14 -23 24 -26 71 -26 30 0 55 -4 55 -10 0 -5
-13 -29 -29 -52 -15 -24 -45 -70 -66 -103 -54 -86 -72 -103 -148 -141 -66 -34
-67 -35 -67 -74 l0 -40 53 0 c52 0 52 -1 71 -43 11 -23 22 -76 25 -117 5 -61
9 -75 24 -78 15 -3 17 5 17 57 0 61 0 62 36 79 l36 17 52 -57 c44 -50 58 -59
105 -69 63 -13 137 -7 181 16 25 13 31 22 28 43 -3 23 -11 28 -65 44 -54 16
-68 26 -108 74 -25 31 -45 59 -45 64 0 4 32 11 72 15 119 11 115 7 177 212 30
98 58 189 63 202 8 23 11 21 70 -43 104 -114 142 -166 227 -310 89 -148 115
-212 126 -300 9 -68 30 -97 99 -136 95 -55 142 -34 152 67 6 59 6 63 -29 105
-22 27 -41 66 -51 103 -17 66 -15 82 4 35 15 -36 33 -39 47 -8 8 19 4 31 -29
74 -29 39 -38 60 -38 91 0 52 -29 79 -109 101 l-63 17 -82 173 c-46 95 -93
203 -106 240 l-23 68 26 39 c18 26 27 53 27 78 0 21 -18 153 -40 295 -21 141
-42 289 -45 327 -3 39 -8 93 -10 122 l-5 51 81 -32 82 -33 48 -108 c26 -59 65
-138 87 -174 21 -36 108 -185 194 -331 307 -525 459 -791 477 -837 16 -41 17
-57 8 -110 -8 -47 -8 -65 2 -77 15 -17 137 -39 192 -34 39 4 39 3 39 -32 0
-76 65 -130 157 -130 72 0 88 15 85 85 -1 32 -11 73 -22 95 -22 42 -26 80 -10
80 14 0 12 37 -4 68 -8 16 -20 57 -26 92 -6 36 -24 88 -40 115 -16 28 -77 160
-135 295 -59 135 -160 355 -225 490 -255 531 -407 899 -402 975 1 11 -23 68
-53 127 -48 94 -52 108 -40 125 8 10 15 26 15 36 0 10 7 20 15 23 9 4 15 19
16 38 0 26 2 28 9 11 11 -29 37 -48 56 -41 15 6 15 28 -2 88 -4 12 0 15 16 11
15 -4 20 -1 20 15 0 15 7 22 27 24 23 3 40 26 120 157 51 85 93 162 93 172 0
21 -146 179 -166 179 -7 0 -40 25 -72 55 -93 86 -129 112 -167 119 -70 14
-115 131 -82 214 9 22 14 48 11 59 -3 11 1 25 10 32 18 15 23 145 6 156 -5 3
-10 25 -10 48 -1 66 -15 112 -53 169 -48 73 -69 90 -119 95 -36 4 -58 -2 -130
-36 -72 -35 -88 -47 -98 -74 -17 -46 -25 -189 -12 -225 8 -24 8 -32 -4 -36 -8
-3 -14 -14 -14 -25 0 -35 41 -131 56 -131 9 0 14 -11 14 -35 l0 -36 -72 50
c-79 53 -114 88 -230 226 -42 50 -110 125 -152 167 -42 42 -76 84 -76 92 0 9
9 39 20 68 11 29 20 59 20 66 0 27 -32 9 -62 -36z"/>
</g>
</svg>
