<?xml version="1.0" standalone="no"?>
<!DOCTYPE svg PUBLIC "-//W3C//DTD SVG 20010904//EN"
 "http://www.w3.org/TR/2001/REC-SVG-20010904/DTD/svg10.dtd">
<svg version="1.0" xmlns="http://www.w3.org/2000/svg"
 width="837.000000pt" height="812.000000pt" viewBox="0 0 837.000000 812.000000"
 preserveAspectRatio="xMidYMid meet">
<metadata>
Created by potrace 1.16, written by Peter Selinger 2001-2019
</metadata>
<g transform="translate(0.000000,812.000000) scale(0.100000,-0.100000)"
fill="#000000" stroke="none">
<path d="M4641 8094 c2 -5 31 -45 64 -90 47 -64 83 -98 170 -162 l110 -81 18
22 c16 21 16 20 1 -18 -9 -22 -23 -52 -30 -67 -13 -26 -11 -37 28 -148 l42
-120 89 6 89 7 -16 -37 c-8 -20 -13 -36 -11 -36 1 0 41 18 87 39 69 32 97 53
168 125 l84 86 -34 35 c-19 19 -38 35 -43 35 -5 0 -53 -40 -106 -89 l-97 -90
-23 119 -23 119 -77 49 c-42 27 -136 99 -209 159 -121 99 -140 111 -193 122
-33 6 -67 15 -76 18 -9 3 -14 2 -12 -3z"/>
<path d="M3681 7777 l-52 -155 23 -76 c13 -42 26 -75 29 -73 3 1 34 34 68 74
59 68 63 78 86 170 42 175 44 157 -17 180 -29 12 -60 24 -69 28 -14 5 -25 -19
-68 -148z"/>
<path d="M4370 7874 l-54 -57 36 -31 c20 -17 81 -70 135 -117 l98 -86 88 -10
c60 -6 87 -6 85 2 -2 5 -24 51 -50 101 -46 90 -49 93 -157 173 -60 44 -114 81
-119 81 -5 0 -33 -25 -62 -56z"/>
<path d="M5916 7836 l-108 -21 5 -69 c3 -37 8 -70 11 -73 2 -2 68 3 146 11
l141 16 55 47 c29 27 54 50 54 53 0 8 -163 60 -181 59 -8 -1 -63 -11 -123 -23z"/>
<path d="M5482 7751 c2 -4 28 -42 58 -85 45 -65 74 -92 165 -158 l110 -79 33
37 c18 21 31 41 30 45 -2 5 -185 155 -245 202 -16 12 -155 47 -151 38z"/>
<path d="M6256 7748 c-2 -7 -16 -54 -31 -104 l-27 -92 42 -128 c24 -71 44
-130 45 -132 2 -2 48 2 104 9 94 11 100 13 96 33 -3 12 -19 86 -35 166 -34
159 -22 140 -137 223 -37 26 -54 34 -57 25z"/>
<path d="M4240 7675 c-25 -8 -63 -18 -85 -24 -38 -10 -240 -162 -240 -181 0
-16 66 -101 76 -98 31 10 259 176 265 193 4 11 17 42 30 69 13 28 24 51 24 53
0 5 -24 1 -70 -12z"/>
<path d="M3326 7499 c-53 -39 -96 -76 -96 -82 0 -6 10 -21 21 -33 l22 -23 -24
-5 c-13 -3 -69 -10 -124 -16 -858 -90 -1661 -519 -2224 -1190 -758 -903 -990
-2129 -616 -3248 304 -909 1009 -1666 1901 -2041 795 -334 1732 -347 2520 -35
62 24 117 44 123 44 6 0 11 5 11 10 0 6 -11 10 -24 10 -23 0 -25 5 -31 65 -4
36 -6 67 -4 69 2 1 74 0 159 -4 85 -3 157 -4 159 -3 3 2 -5 13 -16 26 -11 12
-37 48 -58 79 l-38 58 46 52 c24 29 79 80 120 113 42 33 75 63 74 67 -1 4 -53
32 -116 63 -96 47 -115 53 -125 41 -6 -8 -42 -55 -80 -104 l-69 -90 -51 23
c-30 14 -50 29 -48 37 2 7 31 61 65 119 53 92 68 110 105 128 24 12 47 19 52
16 4 -3 11 -23 15 -45 8 -48 25 -53 25 -7 0 62 4 62 173 5 l156 -53 16 -40
c19 -52 19 -55 -5 -55 -18 0 -20 -7 -20 -60 0 -54 -3 -61 -27 -77 -15 -10 -35
-16 -45 -15 -12 2 -18 -3 -18 -16 0 -10 -11 -25 -25 -32 -14 -8 -24 -17 -23
-21 5 -13 119 -131 123 -127 2 2 8 15 13 28 9 24 9 24 35 -15 18 -28 24 -47
20 -63 -5 -22 -9 -23 -52 -17 -25 3 -54 8 -64 11 -20 6 -23 -2 -32 -79 -4 -31
-11 -55 -16 -52 -11 8 -12 -1 0 -23 4 -9 5 -44 1 -77 -7 -57 -5 -63 29 -122
20 -35 39 -63 43 -63 4 0 17 18 29 40 13 22 57 67 99 100 l77 61 38 116 c33
102 36 117 22 125 -13 7 -3 20 53 71 37 34 67 67 66 72 -2 6 -23 14 -48 18
l-45 9 -7 80 c-4 47 -15 96 -26 118 -10 20 -16 46 -14 58 3 11 -1 31 -10 44
-15 23 -14 26 36 76 71 71 82 56 35 -46 -20 -43 -37 -83 -37 -88 0 -17 266
-117 290 -109 36 11 150 65 150 70 0 3 -25 39 -57 81 -48 64 -62 77 -100 87
-23 6 -43 14 -43 18 0 4 -20 34 -44 67 l-44 60 32 17 c30 16 41 17 160 2 123
-15 128 -14 191 6 36 12 65 24 65 27 -1 5 -152 55 -203 66 l-28 7 42 25 c39
23 46 24 87 13 31 -8 48 -9 56 -1 26 26 31 7 11 -42 -4 -10 -3 -18 2 -18 9 0
117 140 111 144 -2 2 -22 16 -44 33 -41 28 -41 30 -29 60 7 17 18 34 24 37 6
4 8 19 5 34 -11 51 -59 162 -69 161 -13 -1 -125 -134 -125 -149 0 -5 -4 -18
-10 -28 -5 -9 -14 -28 -19 -42 -7 -22 -23 -29 -117 -53 -60 -16 -117 -31 -126
-33 -13 -4 -25 10 -46 53 -31 61 -65 99 -80 89 -8 -5 -193 10 -239 20 -17 3
-23 11 -23 31 0 19 -17 43 -60 85 -33 33 -64 57 -69 54 -4 -3 -14 -19 -21 -36
-14 -35 -15 -35 -87 -14 -32 9 -53 21 -50 27 2 7 12 37 22 67 9 30 21 59 26
65 5 5 9 14 9 21 0 7 -40 -5 -100 -32 -55 -24 -102 -44 -105 -44 -3 0 -25 28
-50 62 -36 49 -42 65 -33 74 7 6 74 48 149 92 l136 82 67 -7 67 -6 -7 -30 c-5
-23 2 -46 26 -97 l32 -66 -37 -62 c-20 -35 -35 -68 -32 -75 2 -7 17 10 33 37
56 94 51 92 113 50 l53 -36 138 7 137 7 39 -33 c21 -18 41 -35 44 -37 2 -2 -2
-7 -10 -12 -8 -5 -11 -13 -6 -17 4 -4 27 14 51 41 25 29 47 46 54 42 22 -14
11 14 -26 65 l-36 51 51 51 52 52 87 -87 c49 -47 94 -84 101 -81 7 3 12 -5 12
-21 0 -30 2 -31 40 -11 23 12 30 23 30 44 0 17 6 31 16 35 22 8 56 7 52 -2
-41 -92 -41 -98 -21 -166 14 -45 17 -68 10 -75 -7 -7 -4 -16 10 -29 12 -9 27
-36 34 -60 11 -38 15 -42 44 -42 l32 0 -13 -52 c-20 -74 -18 -95 15 -172 l29
-68 55 78 c53 75 77 136 77 197 0 12 4 27 8 33 5 9 184 34 240 34 7 0 12 -13
12 -31 0 -23 14 -46 58 -95 56 -63 72 -75 72 -53 0 6 19 42 41 81 l42 71 -7
93 -6 94 65 -42 c36 -22 67 -39 69 -37 2 2 36 67 76 144 l73 140 -34 98 c-19
53 -36 97 -39 97 -4 0 -15 -7 -26 -15 -27 -21 -34 -19 -34 12 0 24 -73 133
-89 133 -10 0 -45 -185 -38 -202 3 -8 -14 -68 -36 -134 l-42 -119 -68 4 -67 3
0 -41 c0 -23 -1 -41 -3 -41 -1 0 -17 4 -36 10 -25 7 -59 4 -135 -10 -55 -11
-104 -20 -108 -20 -5 0 -8 12 -9 28 0 15 -6 54 -13 86 -10 49 -18 63 -46 83
-51 34 -11 29 50 -7 58 -34 60 -35 60 -16 0 11 -65 45 -160 83 -16 7 -25 18
-25 34 0 24 0 24 -95 20 -56 -2 -105 -9 -120 -17 -22 -12 -43 -11 -180 14
l-155 28 -5 73 -5 74 107 -7 106 -7 111 56 c61 30 122 55 136 55 14 0 25 5 25
10 0 6 -7 10 -15 10 -9 0 -18 6 -21 14 -7 18 -64 40 -64 25 0 -6 -27 -9 -67
-7 l-68 3 -76 100 c-83 109 -82 99 -26 165 l28 33 40 -39 40 -39 52 57 c51 55
54 57 110 60 31 2 57 3 57 3 0 0 7 -38 15 -84 14 -82 14 -85 -5 -98 -22 -15
-26 -38 -10 -48 6 -4 18 -1 26 6 12 9 20 9 38 -1 19 -10 35 -10 73 -1 98 24
143 22 194 -7 l48 -26 -25 -33 c-13 -17 -24 -34 -24 -37 0 -3 27 -6 60 -6 l59
0 16 52 c8 28 15 55 15 59 0 19 -76 51 -113 47 -36 -3 -41 -1 -68 38 -29 43
-55 54 -126 54 -35 0 -137 45 -130 58 2 4 34 57 71 119 63 104 71 113 119 134
29 13 55 25 58 27 3 1 16 -20 29 -48 13 -28 26 -49 29 -48 4 2 57 30 119 62
109 57 112 60 112 93 l0 33 -62 0 c-35 0 -79 3 -99 6 -33 6 -37 10 -43 44 -3
21 -9 45 -12 53 -4 12 12 16 88 21 152 11 148 10 148 66 0 47 -1 49 -35 60
-19 6 -40 20 -45 31 -6 10 -18 19 -27 19 -13 0 -14 -3 -5 -12 19 -19 15 -25
-45 -59 -50 -29 -59 -31 -87 -21 -28 11 -33 9 -68 -25 -33 -32 -38 -42 -32
-66 5 -26 -1 -36 -52 -89 -33 -33 -76 -73 -96 -89 l-37 -30 -56 37 -55 37 25
33 c27 35 30 44 16 44 -15 0 -232 151 -229 159 2 5 21 49 42 99 l39 90 105
-44 c58 -24 108 -44 111 -44 4 0 26 33 50 73 l43 73 73 16 74 15 22 -58 c20
-55 24 -60 63 -70 23 -5 51 -22 64 -37 21 -25 24 -26 33 -9 6 9 32 46 60 82
27 35 49 69 49 75 0 19 -16 10 -33 -20 -10 -16 -21 -30 -25 -30 -15 0 -148 56
-152 63 -2 5 25 78 61 164 48 118 70 158 87 166 20 9 23 16 17 43 l-6 32 81
-17 80 -18 75 51 c41 28 75 56 75 61 0 6 -29 39 -64 74 l-64 63 -86 10 c-48 5
-106 8 -129 6 l-41 -3 -27 -85 c-36 -111 -36 -116 3 -124 30 -6 31 -7 13 -26
-25 -28 -42 -25 -91 16 -50 40 -50 43 17 113 39 42 40 45 23 58 -41 31 -54 35
-54 17 0 -9 -34 -57 -75 -105 -41 -49 -75 -93 -75 -98 0 -11 -110 -56 -131
-53 -24 4 -89 -27 -89 -43 0 -13 -55 -35 -87 -35 -7 0 -21 -10 -33 -22 -14
-16 -23 -19 -31 -11 -8 8 -31 5 -82 -8 -40 -10 -77 -19 -82 -19 -6 0 -30 38
-53 85 l-42 86 42 18 c202 89 254 120 271 164 5 15 14 17 44 11 21 -4 40 -11
41 -15 5 -12 42 -12 42 0 0 5 -14 14 -30 21 -17 7 -33 16 -35 20 -4 7 40 148
49 157 2 2 43 -8 91 -22 48 -15 88 -25 89 -23 1 1 11 17 22 35 l19 31 134 -64
135 -65 78 17 c43 9 78 19 78 21 0 2 -27 37 -61 78 -46 56 -72 78 -105 91 -25
9 -48 22 -52 29 -6 10 -100 35 -140 38 -8 0 -21 15 -30 34 -9 18 -18 33 -22
33 -3 0 -32 -32 -64 -70 -55 -67 -59 -70 -79 -57 -12 8 -41 24 -64 36 l-42 21
51 82 c28 46 60 93 71 105 41 46 8 31 -116 -53 -143 -95 -135 -94 -205 -21
l-43 44 93 84 c51 46 108 96 126 111 17 15 32 29 32 32 0 12 -53 6 -78 -9 -15
-8 -72 -29 -126 -45 -55 -17 -104 -34 -110 -39 -19 -14 -247 -55 -255 -45 -4
5 -18 33 -30 63 -22 51 -22 56 -6 67 9 7 14 17 11 22 -3 6 32 57 79 115 69 87
92 108 122 116 60 17 75 15 68 -10 -8 -26 -9 -26 99 50 65 46 88 71 132 139
30 45 54 85 54 87 0 16 -23 -1 -47 -35 -16 -23 -34 -38 -43 -35 -8 2 -30 6
-48 10 -32 7 -33 6 -27 -22 2 -15 -3 -3 -14 28 -20 63 -158 253 -188 261 -17
5 -18 12 -12 79 4 41 8 101 8 135 l1 61 -67 17 c-91 24 -115 36 -107 55 3 9
16 41 27 72 l21 57 -24 76 c-13 42 -27 76 -32 76 -4 0 -39 -29 -76 -65 -38
-35 -71 -62 -74 -59 -3 2 -6 -5 -6 -18 0 -13 -14 -72 -32 -131 -17 -60 -30
-110 -28 -112 2 -1 37 -18 78 -37 102 -47 105 -51 90 -136 l-11 -69 35 -56
c41 -64 42 -69 19 -65 -12 2 -19 -8 -26 -35 -11 -44 -9 -43 -96 -60 -36 -8
-66 -18 -68 -24 -2 -6 23 -13 59 -17 56 -5 67 -11 102 -46 l40 -39 -27 -12
c-15 -7 -26 -19 -25 -27 2 -11 -13 -21 -45 -31 -46 -14 -51 -14 -90 6 -95 49
-144 62 -120 31 196 -247 200 -253 206 -318 4 -35 6 -64 5 -65 -2 -1 -38 3
-80 9 l-77 11 -71 120 c-40 66 -73 122 -76 124 -2 2 -31 -2 -65 -8 l-62 -13
-83 83 -84 84 0 -68 c0 -64 -2 -70 -30 -94 -16 -13 -30 -30 -30 -36 0 -7 -20
-42 -45 -79 -44 -65 -45 -66 -95 -70 -28 -1 -54 0 -58 4 -4 4 -39 11 -77 15
l-70 8 -5 40 -5 40 -62 -97 c-35 -54 -64 -98 -66 -98 -7 0 -97 32 -97 34 0 2
27 59 59 127 49 101 66 128 96 147 37 24 55 22 55 -5 0 -13 11 -14 78 -9 145
12 148 13 192 66 30 36 54 53 90 65 42 14 54 24 90 81 23 35 44 64 46 64 2 0
53 -37 114 -82 103 -76 116 -91 110 -127 -1 -9 15 0 38 20 45 38 52 59 21 59
-17 0 -20 4 -15 24 3 14 2 27 -3 30 -12 8 9 86 25 93 10 3 8 12 -7 36 -10 18
-19 35 -19 38 0 4 38 23 84 44 85 38 110 61 81 77 -11 7 -15 25 -15 69 0 52
-4 65 -31 99 -31 38 -31 39 -13 68 l17 30 -43 68 c-24 38 -59 89 -80 114 -20
25 -46 59 -59 77 l-22 32 42 46 c35 38 40 48 28 56 -21 13 -22 12 -47 -31 -12
-22 -27 -40 -32 -40 -5 0 -19 18 -31 40 -25 44 -20 44 -114 7 -50 -20 -60 -28
-58 -45 2 -12 -1 -22 -5 -22 -4 0 -42 24 -84 53 -74 52 -75 54 -62 78 21 38
17 42 -41 34 -64 -8 -63 -12 -36 99 12 50 16 85 10 95 -4 9 -15 42 -22 73 -16
66 -22 68 81 -21 l63 -54 29 28 29 28 6 -29 c4 -16 10 -42 15 -59 21 -77 21
-76 -11 -60 -32 17 -39 18 -39 6 0 -13 144 -85 147 -74 2 6 28 -2 59 -19 30
-17 57 -29 59 -27 2 2 22 50 44 106 l42 103 -24 52 c-13 29 -34 81 -46 115
-13 34 -28 67 -35 72 -7 5 -49 3 -111 -5 -55 -8 -110 -15 -123 -16 -15 -2 -21
-7 -17 -18 3 -8 -25 17 -62 57 l-68 71 -74 11 c-40 7 -75 10 -77 8 -3 -2 7
-34 21 -70 l25 -67 -39 0 c-21 0 -55 7 -75 15 l-37 16 21 28 c28 40 25 52 -16
79 -42 27 -48 24 -94 -47 -27 -44 -35 -49 -77 -55 -25 -3 -63 -6 -84 -6 l-39
0 0 -60 0 -60 35 0 c33 0 34 -1 29 -32 -3 -18 -10 -48 -15 -67 -5 -19 -6 -37
-4 -39 5 -6 100 66 140 106 25 25 34 28 75 24 26 -2 56 1 67 7 24 12 23 14 44
-144 11 -82 16 -94 51 -134 21 -24 37 -46 35 -48 -2 -1 -25 -7 -50 -12 -45 -8
-48 -7 -53 16 l-7 25 -24 -24 -24 -25 -72 38 c-40 20 -98 45 -130 55 -49 15
-56 21 -51 37 5 17 3 19 -17 14 -13 -4 -30 -7 -36 -7 -25 0 -12 -19 27 -41 22
-13 40 -26 40 -31 0 -4 -14 -39 -31 -77 -36 -80 -28 -77 -189 -87 l-105 -6
-13 58 c-8 33 -16 68 -18 80 -5 18 2 23 55 38 34 9 61 19 61 22 0 3 -12 25
-26 50 l-26 44 77 35 c43 20 95 41 116 48 22 6 39 18 39 25 0 9 -7 11 -21 7
-12 -4 -45 -4 -74 0 -47 5 -54 9 -60 33 -3 15 -8 35 -11 45 -5 14 2 17 40 17
50 0 62 15 19 24 -74 14 -301 46 -410 57 -83 9 -123 17 -123 25 0 14 -76 84
-162 150 l-56 44 -96 -71z m689 -384 l-1 -76 -107 -71 -108 -71 -37 36 c-21
20 -42 37 -48 37 -5 0 -20 20 -32 45 -16 34 -19 47 -10 50 7 3 46 16 87 30 41
14 90 37 110 52 31 24 65 35 131 41 12 2 15 -12 15 -73z m840 -365 c153 -25
181 -35 202 -67 16 -23 15 -26 -18 -59 -31 -30 -41 -34 -92 -35 -47 -1 -55 -4
-46 -15 6 -8 20 -14 30 -14 11 0 19 -4 19 -9 0 -5 24 -27 54 -50 44 -34 55
-48 60 -80 3 -22 8 -46 11 -53 4 -11 -7 -17 -42 -24 -43 -8 -51 -14 -85 -66
l-37 -56 -63 -6 c-35 -3 -97 -7 -138 -10 l-75 -5 -58 85 c-35 51 -65 84 -75
83 -9 0 -57 -8 -107 -18 l-90 -17 -26 50 -26 50 131 43 c116 38 135 41 171 32
71 -18 70 -17 46 -42 -52 -56 -13 -40 83 33 58 44 109 80 115 80 6 0 11 5 11
10 0 6 -16 10 -35 10 -28 0 -35 4 -35 19 0 13 -11 23 -32 30 l-33 11 3 61 c4
56 5 60 25 56 12 -3 81 -15 152 -27z m428 -311 c17 -7 29 -27 41 -65 l17 -54
-86 -139 -87 -139 -64 21 c-35 12 -64 24 -64 28 0 4 31 76 69 159 55 121 76
157 103 175 39 28 40 28 71 14z m-1125 -284 c4 -4 -35 -145 -41 -151 -5 -5
-229 -64 -243 -64 -6 0 -22 27 -37 60 -14 33 -27 63 -29 67 -2 3 53 31 121 63
l125 57 50 -15 c28 -8 52 -16 54 -17z m-526 -128 l96 -92 4 -57 c5 -65 9 -62
-102 -72 l-65 -6 -55 77 c-102 142 -97 121 -39 186 28 31 54 57 57 57 4 -1 50
-42 104 -93z m1178 68 c28 -14 48 -30 45 -38 -2 -6 -13 -45 -25 -84 -11 -40
-22 -73 -23 -73 -1 0 -59 -11 -128 -23 l-126 -23 -30 83 -30 82 126 50 c69 28
130 50 134 51 4 0 30 -11 57 -25z m1074 -158 c58 -92 72 -106 116 -127 l51
-24 -62 -23 -61 -23 -93 83 c-51 45 -94 86 -94 91 -1 8 68 126 73 126 2 0 33
-46 70 -103z m-623 -627 c22 12 43 20 45 17 2 -2 9 -29 15 -61 12 -64 18 -52
-102 -185 l-63 -69 -48 27 c-26 14 -48 31 -48 36 0 13 -100 78 -107 71 -3 -3
-14 -49 -24 -102 -10 -53 -21 -99 -23 -102 -4 -3 -295 -89 -312 -92 -1 0 -7
14 -14 31 l-13 30 -128 -3 -129 -3 -6 47 c-4 26 -10 46 -14 43 -12 -7 -160 56
-154 66 3 5 -27 45 -66 89 l-72 79 32 45 c17 25 33 46 37 46 3 0 34 -23 70
-51 35 -28 65 -50 66 -48 2 2 12 23 22 47 13 30 28 47 50 56 75 32 71 34 111
-47 l37 -74 -43 -63 c-24 -35 -37 -61 -29 -58 8 3 56 14 107 24 75 15 96 16
112 6 17 -10 35 -4 132 44 l112 56 53 -22 c61 -25 83 -20 33 7 -74 41 -74 41
-46 105 14 32 32 73 40 92 l14 34 156 -69 156 -69 41 20z m567 -120 l74 0 44
-47 c40 -44 42 -49 27 -65 -8 -9 -18 -37 -20 -62 -5 -43 -9 -48 -80 -96 -40
-29 -83 -65 -95 -81 -12 -16 -27 -29 -33 -29 -7 0 -47 -56 -89 -125 -43 -69
-82 -127 -86 -130 -7 -4 -147 40 -158 50 -2 1 5 19 14 39 10 19 15 38 12 41
-2 3 -44 9 -92 14 -48 5 -89 11 -91 13 -3 2 -8 39 -13 80 l-8 76 92 7 c50 4
96 10 103 14 6 4 28 42 49 85 36 74 39 78 92 99 l55 22 3 54 3 54 61 -7 c34
-3 95 -6 136 -6z m-2134 -395 c163 -43 263 -102 386 -225 124 -124 181 -222
227 -391 24 -89 24 -309 0 -398 -46 -169 -103 -267 -227 -391 -124 -124 -222
-181 -391 -227 -89 -24 -309 -24 -398 0 -169 46 -267 103 -391 227 -124 124
-181 222 -227 391 -24 89 -24 309 0 398 42 153 99 258 201 368 132 142 274
221 461 259 87 17 276 12 359 -11z m1109 -101 l37 -75 -22 -32 c-12 -18 -41
-58 -65 -89 -24 -31 -43 -58 -43 -60 0 -3 46 -15 101 -28 l101 -24 34 -50 33
-49 -51 -39 c-29 -21 -56 -44 -60 -51 -14 -22 -8 -70 12 -91 16 -18 18 -30 13
-80 l-6 -59 -80 6 c-50 3 -83 10 -88 19 -7 10 -16 9 -48 -8 l-39 -21 -44 44
-43 44 25 21 c14 11 38 30 53 42 l28 23 -21 36 -21 36 30 22 c33 24 40 39 18
39 -7 0 -21 6 -31 13 -17 12 -17 17 -2 74 21 79 21 77 -17 91 -75 27 -75 24
-12 164 l57 125 47 16 c25 8 51 16 56 16 6 1 27 -33 48 -75z m427 -146 l153
-83 19 -62 c18 -60 21 -64 78 -95 32 -18 66 -46 75 -61 10 -16 21 -25 25 -20
4 4 26 57 50 117 30 79 50 116 73 135 17 14 35 26 41 26 5 0 17 -22 26 -49
l16 -49 -60 -114 c-61 -114 -61 -114 -93 -108 -18 3 -61 0 -97 -6 -72 -14 -60
-18 -182 72 -39 29 -43 30 -82 18 l-41 -12 -123 98 c-68 54 -124 99 -125 100
-3 1 87 175 91 175 1 0 71 -37 156 -82z m1442 -80 c3 -35 -8 -74 -35 -125 -13
-25 -25 -33 -59 -38 -24 -4 -65 -21 -91 -37 l-48 -31 -23 22 c-13 12 -30 19
-38 16 -11 -5 -21 9 -38 50 -13 32 -19 60 -14 65 5 4 49 20 99 35 49 15 102
38 118 51 22 18 40 24 77 24 48 0 49 -1 52 -32z m-1179 -334 c61 -31 80 -36
86 -25 7 11 18 11 66 0 l58 -13 33 36 32 36 22 -23 c21 -22 24 -23 60 -10 l38
13 30 -73 c21 -51 27 -76 19 -84 -7 -7 -7 -14 0 -23 6 -7 14 -35 18 -61 l8
-49 -61 4 c-59 3 -62 2 -90 -31 l-28 -34 -44 23 c-89 45 -91 48 -75 80 20 39
19 47 -8 54 -15 3 -53 -7 -104 -28 l-81 -34 -135 94 -135 95 27 62 c15 34 31
70 34 79 6 16 13 15 79 -16 40 -18 108 -51 151 -72z m-284 -414 l39 -65 -33
-60 c-18 -33 -35 -72 -39 -87 -6 -25 -3 -28 29 -34 24 -4 45 -19 71 -51 l37
-45 -32 -25 c-22 -17 -30 -31 -26 -43 4 -13 -2 -22 -25 -31 -45 -20 -37 -29
23 -22 35 3 58 12 70 25 17 20 19 20 83 4 l65 -16 86 71 c95 77 105 83 177 93
47 7 48 7 43 -16 -3 -13 -9 -44 -12 -70 -7 -44 -11 -49 -71 -89 -35 -23 -64
-45 -64 -50 0 -4 9 -14 20 -22 18 -12 16 -15 -34 -42 -48 -26 -57 -28 -81 -17
-21 10 -31 10 -41 1 -12 -10 -21 -6 -45 17 -28 26 -31 27 -40 12 -9 -16 -27
-18 -144 -18 l-133 0 -13 49 -12 49 -96 29 -96 29 -3 53 c-2 35 -10 63 -22 79
-11 13 -17 28 -14 33 3 5 32 27 64 49 57 39 59 41 90 135 31 93 33 96 78 120
26 13 50 23 55 22 4 -1 25 -31 46 -67z m584 -85 c18 -13 15 -18 -40 -90 l-58
-77 -65 6 c-36 4 -110 11 -166 17 l-100 11 -2 42 c-1 22 -5 62 -8 89 -3 26 -4
48 -2 48 1 1 80 7 173 13 l170 12 40 -29 c22 -15 48 -34 58 -42z m-1238 -257
c-4 -29 -11 -60 -15 -68 -5 -9 -57 -42 -116 -74 l-107 -58 -43 43 -43 42 112
83 c107 79 114 83 165 83 l54 1 -7 -52z m431 -343 l42 -74 -60 -93 c-58 -89
-60 -94 -54 -143 l6 -50 -60 3 -60 4 -76 110 -76 110 34 36 c18 20 34 39 35
41 2 2 12 -8 24 -22 11 -15 24 -27 29 -27 4 0 20 31 35 69 26 64 31 71 74 89
25 11 51 21 56 21 6 0 29 -33 51 -74z m812 -124 c-4 -36 -11 -85 -15 -109 l-8
-43 -140 -55 c-76 -30 -144 -54 -151 -54 -18 0 -118 170 -106 182 5 5 71 49
147 97 l137 87 72 -19 72 -19 -8 -67z m-1130 -489 l43 -45 -60 -61 -61 -61
-114 29 c-63 16 -118 32 -123 35 -4 3 -7 41 -5 84 l4 78 136 -6 137 -7 43 -46z
m245 -119 c14 -34 22 -65 19 -68 -4 -4 1 -12 10 -19 15 -11 13 -18 -21 -81
-29 -54 -43 -70 -66 -77 -17 -4 -35 -14 -41 -23 -9 -12 -17 -13 -41 -5 -21 8
-55 7 -123 -4 -52 -9 -94 -15 -95 -13 -16 34 -52 133 -50 136 2 2 59 20 127
40 l123 37 22 44 c14 30 36 54 64 72 24 15 44 26 45 25 1 -1 13 -30 27 -64z
m549 -437 l36 -56 -80 -24 -80 -25 -135 90 c-75 51 -133 96 -130 102 2 7 12
38 22 69 l18 57 157 -79 c150 -75 157 -80 192 -134z m-915 -439 c7 -33 11 -35
148 -76 94 -28 102 -33 137 -78 20 -26 35 -50 33 -53 -2 -3 -31 -18 -64 -35
-51 -25 -60 -33 -55 -50 16 -57 15 -59 -86 -175 -56 -63 -105 -116 -109 -118
-6 -2 -153 78 -168 92 -2 2 35 65 82 141 47 76 85 139 85 140 0 1 -27 14 -61
30 l-61 30 6 43 c6 41 4 45 -74 143 -44 55 -80 103 -80 106 0 3 14 23 31 45
l32 40 99 -99 c64 -63 101 -108 105 -126z"/>
<path d="M6825 7304 c-106 -134 -97 -127 -89 -65 l6 54 -78 -43 c-44 -23 -91
-56 -106 -72 l-27 -31 -3 34 c-3 32 -6 35 -61 48 -33 8 -62 10 -66 5 -4 -5
-20 -71 -36 -146 l-28 -137 29 -65 c16 -36 31 -66 35 -66 4 0 26 29 49 65 41
63 44 65 61 49 18 -16 20 -16 39 1 19 17 19 17 14 -16 -5 -29 4 -50 68 -151
40 -65 79 -118 86 -118 12 0 222 68 230 75 1 1 -12 33 -29 71 -17 38 -44 98
-60 134 -50 112 -50 112 -115 135 l-62 21 28 37 27 37 63 -76 63 -75 40 38
c129 124 158 154 155 163 -4 12 -159 170 -167 170 -3 0 -33 -34 -66 -76z"/>
<path d="M5896 7311 l-79 -49 -43 -108 c-24 -59 -44 -111 -44 -115 0 -8 139
-99 150 -99 4 0 39 58 78 130 l72 130 -22 80 c-12 44 -24 80 -27 80 -4 0 -42
-22 -85 -49z"/>
<path d="M7026 6888 c-9 -40 -19 -87 -22 -105 -5 -25 5 -59 46 -158 29 -69 56
-127 59 -129 3 -2 48 5 99 17 69 15 92 24 92 36 0 9 -20 83 -45 165 -25 82
-45 150 -45 152 0 5 -151 94 -159 94 -5 0 -16 -33 -25 -72z"/>
<path d="M6025 6871 c-38 -4 -81 -12 -95 -20 -70 -39 -180 -114 -180 -123 0
-18 52 -119 60 -116 4 2 64 32 132 68 l126 64 31 63 c36 74 36 73 14 71 -10
-1 -49 -4 -88 -7z"/>
<path d="M6188 6771 l-56 -69 -3 -123 -4 -123 83 -20 83 -20 -7 -73 -6 -74
152 2 c83 0 153 -1 156 -4 2 -2 -38 -44 -89 -93 l-94 -90 -41 18 c-23 9 -44
13 -46 9 -3 -4 -28 -72 -55 -150 -49 -138 -50 -142 -36 -182 8 -23 15 -54 15
-70 0 -22 6 -30 24 -35 21 -5 25 -13 31 -72 7 -69 11 -75 172 -281 5 -6 183
81 183 89 0 8 -156 268 -172 287 -5 7 -32 19 -59 28 -27 9 -51 21 -55 26 -3 5
6 23 19 39 14 16 30 51 37 79 7 31 18 52 28 55 10 2 42 10 72 16 31 7 64 20
75 29 40 33 147 171 142 183 -2 7 -26 39 -52 71 l-47 58 50 57 c27 31 59 66
71 76 11 11 21 24 20 30 0 6 -38 39 -85 74 -96 71 -102 72 -260 47 -53 -9 -98
-14 -100 -12 -3 2 1 38 7 80 l11 75 -47 66 c-26 36 -50 66 -53 66 -4 -1 -32
-32 -64 -69z"/>
<path d="M7558 6513 c-8 -10 -36 -49 -63 -88 l-49 -69 22 -105 c12 -57 24
-107 27 -109 5 -6 107 28 183 59 52 22 60 40 38 86 -16 33 -19 35 -54 29 -38
-6 -38 -6 -40 32 -4 80 -14 130 -31 155 -17 26 -18 26 -33 10z"/>
<path d="M6967 6355 l-117 -115 0 -105 c0 -91 2 -105 17 -105 28 0 187 32 204
41 18 9 169 205 169 219 0 11 -139 180 -148 180 -4 0 -60 -52 -125 -115z"/>
<path d="M7030 5950 l0 -103 44 -51 c24 -28 61 -71 83 -95 l39 -44 97 49 c53
27 95 54 94 59 -1 6 -38 65 -82 132 -89 135 -81 130 -222 149 l-53 7 0 -103z"/>
<path d="M6704 5920 c-15 -6 -170 -105 -211 -135 -3 -1 67 -186 72 -193 2 -2
67 28 146 66 l144 69 28 79 c15 44 27 85 27 91 0 6 -32 13 -77 17 -43 4 -85 9
-93 11 -8 2 -24 0 -36 -5z"/>
<path d="M7577 5895 c-59 -12 -109 -24 -112 -27 -6 -5 10 -146 17 -153 5 -5
99 5 305 31 33 4 55 16 94 52 65 60 60 75 -31 102 -84 25 -136 24 -273 -5z"/>
<path d="M7943 5649 c-33 -23 -56 -55 -105 -146 -35 -65 -64 -120 -66 -124 -1
-3 22 -22 53 -43 38 -25 53 -41 48 -49 -4 -7 -25 -39 -46 -70 l-39 -56 8 -91
c3 -49 10 -90 14 -90 13 0 178 90 188 103 5 7 31 53 57 102 26 50 51 94 56
100 18 18 8 32 -61 84 l-70 54 16 25 c58 88 57 81 28 160 -15 40 -30 72 -33
72 -3 -1 -25 -14 -48 -31z"/>
<path d="M6733 5623 c-18 -2 -33 -6 -33 -8 0 -1 10 -26 23 -53 20 -43 22 -59
16 -104 -4 -29 -8 -76 -8 -103 -1 -47 2 -54 39 -90 21 -21 37 -42 34 -47 -6
-10 -43 -142 -41 -145 1 -1 41 12 88 28 81 29 91 36 175 120 77 78 87 91 72
100 -10 5 -23 19 -29 30 -8 17 -6 27 15 54 14 19 26 36 26 39 0 3 -25 24 -55
47 -43 33 -55 47 -55 69 0 24 -5 28 -41 34 -23 4 -54 13 -70 21 -26 14 -83 17
-156 8z"/>
<path d="M7395 5413 c15 -119 22 -139 85 -233 35 -52 65 -97 67 -99 3 -5 123
50 123 56 0 2 -32 62 -72 134 l-71 130 -69 35 -70 35 7 -58z"/>
<path d="M7442 5139 c0 -17 -2 -33 -4 -35 -3 -2 -39 -9 -81 -15 -64 -9 -93
-21 -178 -70 -56 -33 -106 -59 -111 -59 -4 0 -8 -5 -8 -11 0 -11 49 -99 56
-99 2 0 64 30 137 66 114 57 137 73 160 108 l27 41 0 -50 c0 -27 7 -72 15 -99
8 -27 15 -52 15 -56 0 -3 -39 -4 -86 -2 -47 3 -89 1 -93 -4 -9 -9 10 -299 19
-307 3 -2 14 -10 26 -18 20 -13 19 -15 -37 -51 -44 -28 -56 -32 -46 -17 13 22
5 30 -105 120 l-37 30 -39 -53 c-21 -29 -60 -82 -86 -118 l-48 -65 7 -65 c10
-101 14 -112 40 -106 27 7 35 -13 35 -93 0 -50 4 -58 56 -123 44 -54 53 -72
43 -79 -49 -30 -148 -105 -149 -113 0 -4 23 -33 50 -63 28 -30 48 -58 46 -61
-4 -7 9 -172 19 -249 l6 -43 75 0 74 0 0 90 0 90 55 0 c30 0 55 3 55 8 0 4 -7
47 -14 95 -15 87 -15 89 -67 136 l-53 49 72 36 c40 20 72 40 72 44 0 4 -40 70
-88 146 -86 138 -87 139 -137 154 l-50 14 30 15 c33 17 36 21 81 106 l32 58
92 -120 c82 -108 95 -121 123 -122 18 -1 43 -4 56 -8 l24 -6 -26 -31 c-21 -25
-44 -74 -114 -252 -6 -15 66 -47 78 -35 4 4 36 69 70 143 l61 135 -6 98 c-8
119 -16 140 -67 193 l-39 40 46 72 c44 70 46 75 40 124 -4 28 -12 60 -17 70
-8 15 -4 19 31 24 31 5 39 10 36 23 -6 20 -52 214 -61 261 -7 31 -89 140 -105
140 -4 0 -7 -14 -8 -31z"/>
<path d="M7664 4763 c-25 -5 -39 -54 -28 -97 6 -24 6 -24 157 -29 l152 -4 72
31 c40 17 71 35 70 39 -1 4 -40 21 -87 37 -76 27 -97 30 -200 29 -63 -1 -125
-4 -136 -6z"/>
<path d="M7862 4417 l-112 -31 5 -66 c11 -125 13 -130 44 -130 l27 0 -17 -97
c-25 -134 -24 -152 4 -157 12 -3 87 -7 167 -10 l145 -6 72 72 c40 40 73 77 72
83 0 5 -37 39 -82 73 l-82 64 -100 -5 c-83 -5 -90 -4 -40 3 123 19 121 18 163
74 22 29 47 60 56 69 9 8 16 18 16 20 0 9 -181 77 -203 76 -12 0 -73 -15 -135
-32z"/>
<path d="M7957 3833 c-4 -3 -7 -73 -7 -154 0 -137 2 -152 26 -208 15 -34 29
-61 33 -61 3 0 15 33 26 73 21 78 30 221 20 305 l-6 52 -43 0 c-23 0 -46 -3
-49 -7z"/>
<path d="M7452 3648 l-63 -83 6 -130 c4 -71 9 -131 10 -133 1 -1 44 -11 96
-20 l93 -17 38 -89 c21 -49 39 -91 41 -93 4 -3 163 82 184 99 13 11 67 168 78
228 l6 35 -105 63 c-57 34 -106 62 -109 62 -3 0 -15 -25 -27 -56 -32 -77 -64
-137 -56 -104 3 14 6 60 7 102 l2 77 -64 70 c-35 39 -66 71 -69 71 -3 0 -34
-37 -68 -82z"/>
<path d="M7175 3340 c-38 -5 -83 -13 -98 -19 -16 -6 -39 -11 -51 -11 -13 0
-29 -6 -35 -14 -7 -8 -34 -20 -62 -27 -54 -14 -54 -14 -37 -71 11 -39 13 -40
48 -34 l36 6 -4 -65 c-5 -75 -20 -68 138 -65 60 0 91 -3 85 -9 -21 -20 -120
-91 -127 -91 -15 0 -8 -21 15 -43 13 -12 63 -65 110 -117 l86 -96 48 2 c26 1
74 3 105 3 l57 1 -5 38 -5 37 21 -27 c12 -16 25 -28 29 -28 4 0 13 30 20 66
l14 66 51 -51 c28 -28 55 -51 58 -51 5 0 107 67 147 96 4 3 -151 203 -189 244
-18 19 -42 30 -90 39 -36 7 -73 14 -82 17 -12 4 -18 0 -18 -10 0 -9 -7 -16
-16 -16 -16 0 -16 -7 2 -132 3 -21 3 -38 -1 -38 -3 0 -32 22 -64 48 -40 34
-54 51 -47 59 37 35 146 158 146 164 0 4 -7 9 -15 13 -8 3 -40 24 -71 48 -48
36 -54 43 -40 54 9 6 16 14 16 18 0 8 -83 6 -175 -4z"/>
<path d="M7908 2816 c-48 -11 -89 -24 -92 -27 -5 -5 86 -295 95 -303 6 -6 128
-66 133 -66 3 0 21 51 41 114 l36 114 -48 96 c-30 61 -53 96 -63 95 -8 -1 -54
-11 -102 -23z"/>
<path d="M7450 2440 l0 -62 -40 36 c-22 20 -43 36 -48 36 -4 0 -23 -24 -42
-53 -19 -28 -56 -82 -82 -118 -27 -36 -48 -75 -48 -87 0 -35 32 -172 41 -172
19 0 164 61 181 76 10 10 33 46 50 82 l32 64 17 -35 18 -34 -56 -109 -56 -109
9 -73 9 -72 70 68 c61 58 76 79 109 157 21 50 45 95 53 102 18 14 17 17 -51
178 -44 103 -50 112 -99 145 -28 19 -55 37 -59 38 -5 2 -8 -24 -8 -58z"/>
<path d="M6186 1848 l-17 -93 50 -110 c28 -60 55 -111 61 -113 14 -5 152 28
164 38 4 5 -12 73 -38 152 l-45 143 -70 38 c-38 20 -73 37 -78 37 -5 0 -17
-42 -27 -92z"/>
<path d="M6819 1846 c-10 -17 -19 -37 -19 -43 0 -16 -22 -17 -38 -1 -14 14 -8
22 -127 -153 -85 -125 -86 -127 -94 -205 -5 -44 -7 -81 -5 -82 5 -7 161 117
181 142 10 13 30 44 45 69 l26 45 129 -39 c70 -22 137 -40 148 -41 22 -1 195
99 195 114 0 18 -126 167 -150 177 -14 6 -81 19 -148 29 l-124 19 -19 -31z"/>
<path d="M7382 1786 c-12 -16 -75 -176 -71 -179 21 -15 287 -87 304 -83 15 4
36 28 60 71 l36 65 -37 45 c-40 47 -36 46 -212 78 -52 10 -74 11 -80 3z"/>
<path d="M7448 1464 c-38 -19 -68 -39 -68 -44 0 -6 19 -44 42 -85 l42 -75 58
87 57 87 -19 31 c-10 16 -25 31 -32 32 -7 1 -43 -13 -80 -33z"/>
<path d="M6130 1447 c0 -4 -11 -77 -25 -164 -14 -86 -25 -167 -23 -180 2 -15
-11 -37 -42 -68 l-45 -47 120 -113 120 -113 75 -15 c41 -8 76 -14 78 -12 10 9
-92 187 -118 206 l-29 22 59 63 c66 71 66 73 73 255 l4 106 -96 27 c-126 34
-151 39 -151 33z"/>
<path d="M6785 1299 c-134 -150 -141 -161 -149 -226 -4 -31 -9 -68 -13 -81 -5
-23 -2 -22 78 19 107 53 120 64 186 151 30 40 56 74 57 75 2 2 58 -47 125
-107 120 -108 122 -110 171 -110 42 0 51 4 69 29 l21 29 -33 63 c-28 56 -45
74 -141 148 l-110 84 -32 -35 -32 -36 -48 49 c-27 27 -51 49 -54 49 -3 0 -45
-46 -95 -101z"/>
<path d="M5747 1179 c-59 -39 -107 -78 -107 -86 0 -24 68 -163 80 -163 6 0 34
13 63 29 29 15 88 47 133 70 l80 42 27 83 c15 45 27 84 27 87 0 3 -44 6 -98 8
l-98 2 -107 -72z"/>
<path d="M5942 878 l-82 -20 -86 -94 -86 -94 52 -65 c60 -75 40 -81 187 48 95
83 101 91 107 135 4 26 10 62 13 80 6 38 10 37 -105 10z"/>
<path d="M6493 851 c-28 -4 -55 -9 -58 -13 -4 -4 9 -51 28 -105 l35 -98 108
-67 c60 -37 114 -68 119 -68 16 0 158 146 154 158 -2 6 -59 54 -126 106 -135
105 -128 103 -260 87z"/>
<path d="M4885 736 c-9 -42 -18 -94 -18 -116 -1 -22 -3 -40 -4 -40 -1 0 -26 9
-55 21 l-52 20 -18 -23 c-10 -13 -20 -31 -24 -40 -6 -20 -20 -23 -29 -8 -16
26 -33 2 -64 -88 l-34 -98 17 -72 c17 -67 35 -95 36 -54 1 9 29 47 64 84 l64
68 21 -49 c11 -28 21 -56 21 -65 0 -8 4 -17 9 -20 5 -3 0 -33 -10 -67 -10 -33
-19 -65 -19 -70 0 -14 50 -10 56 5 4 11 -3 81 -23 214 l-5 34 67 -37 c67 -37
87 -39 156 -19 14 4 18 -8 23 -73 10 -113 15 -135 32 -129 8 3 70 15 137 26
67 11 132 23 145 25 26 6 138 167 127 184 -12 21 24 11 135 -39 62 -27 117
-47 122 -44 4 3 24 28 42 56 l34 50 7 -30 c8 -38 17 -45 144 -121 l104 -62 29
28 c17 15 53 54 81 87 l51 59 -29 24 c-17 13 -76 59 -132 102 -101 77 -103 78
-145 71 -24 -4 -69 -11 -100 -15 -47 -5 -56 -9 -51 -23 6 -13 -1 -12 -33 7
-21 13 -73 43 -114 66 l-75 43 -92 -20 c-51 -12 -93 -25 -93 -29 0 -5 14 -30
30 -56 l31 -48 -23 -3 c-12 -2 -31 -10 -42 -18 -11 -8 -41 -14 -66 -14 -25 0
-77 -12 -117 -26 -40 -15 -80 -23 -89 -20 -24 9 -9 20 56 41 30 10 56 19 58
20 2 2 -54 132 -110 257 -20 45 -25 48 -102 77 -45 16 -88 32 -98 36 -14 5
-19 -6 -33 -69z"/>
<path d="M3956 524 l-39 -85 38 -39 c22 -22 44 -40 50 -40 7 0 20 -9 30 -20
10 -11 26 -20 37 -20 16 0 18 9 18 88 0 86 -1 88 -41 145 -22 31 -44 57 -47
57 -4 0 -25 -39 -46 -86z"/>
<path d="M4190 492 l-54 -48 71 -75 c38 -41 84 -90 102 -109 l31 -35 55 59
c30 33 55 63 55 67 0 7 -194 189 -202 189 -2 0 -28 -22 -58 -48z"/>
</g>
</svg>
