<?xml version="1.0" standalone="no"?>
<!DOCTYPE svg PUBLIC "-//W3C//DTD SVG 20010904//EN"
 "http://www.w3.org/TR/2001/REC-SVG-20010904/DTD/svg10.dtd">
<svg version="1.0" xmlns="http://www.w3.org/2000/svg"
 width="954.000000pt" height="1085.000000pt" viewBox="0 0 954.000000 1085.000000"
 preserveAspectRatio="xMidYMid meet">
<metadata>
Created by potrace 1.16, written by Peter Selinger 2001-2019
</metadata>
<g transform="translate(0.000000,1085.000000) scale(0.100000,-0.100000)"
fill="#000000" stroke="none">
<path d="M3797 10780 c-73 -57 -72 -229 1 -312 14 -17 10 -18 -69 -18 -129 0
-189 -43 -204 -145 -8 -49 4 -79 43 -112 22 -18 24 -24 13 -37 -8 -9 -23 -16
-35 -16 -64 0 -196 -149 -196 -221 0 -19 -3 -18 -40 14 -94 86 -187 104 -273
54 -52 -31 -63 -55 -53 -119 11 -69 94 -170 152 -184 22 -6 19 -8 -27 -31 -28
-14 -69 -43 -90 -63 -37 -35 -39 -40 -39 -96 0 -141 104 -183 243 -100 l56 34
-7 -32 c-7 -35 -9 -343 -3 -456 4 -70 1 -85 -47 -225 -147 -431 -192 -631
-192 -860 0 -66 5 -149 11 -185 21 -132 113 -363 214 -535 l29 -49 -39 24
c-22 13 -168 107 -325 209 -472 307 -669 411 -888 468 -142 37 -304 36 -421
-2 -100 -32 -112 -31 -236 30 -50 25 -98 45 -107 45 -57 0 -272 202 -284 266
-7 37 -45 74 -77 74 -32 0 -84 -38 -101 -74 -18 -38 -20 -76 -7 -122 l9 -30
-82 24 c-62 19 -106 25 -188 26 -102 1 -108 0 -135 -25 -17 -17 -45 -29 -73
-34 -68 -10 -106 -24 -125 -45 -10 -11 -26 -20 -35 -20 -36 0 -118 -31 -143
-54 -22 -21 -27 -34 -27 -76 0 -45 3 -52 26 -60 14 -6 56 -10 93 -10 59 0 72
-3 95 -25 15 -14 29 -25 32 -25 3 0 69 -18 147 -39 278 -77 430 -140 476 -199
14 -18 44 -43 66 -54 79 -40 85 -51 85 -152 0 -189 38 -295 138 -388 162 -150
426 -224 987 -278 336 -32 569 -77 834 -161 224 -72 530 -207 627 -278 l39
-28 -3 -129 c-7 -268 70 -581 214 -866 l24 -46 -78 -42 c-210 -113 -476 -311
-637 -474 -147 -148 -205 -245 -205 -341 0 -52 8 -59 132 -116 l96 -44 -36
-13 c-20 -7 -255 -76 -522 -152 -686 -197 -906 -272 -1165 -400 -246 -122
-390 -226 -497 -359 -125 -156 -148 -233 -148 -493 0 -197 10 -328 36 -463
228 -1186 1311 -1824 3429 -2020 227 -21 823 -16 1065 9 666 69 1158 185 1505
355 139 68 269 150 289 183 8 13 3 36 -18 95 -69 192 -128 500 -181 948 -75
640 -179 1184 -294 1544 l-39 121 50 -41 c58 -49 254 -256 363 -384 244 -286
512 -693 652 -993 45 -95 64 -115 89 -91 12 13 11 36 -7 173 -11 88 -19 165
-17 173 3 17 97 -69 170 -157 40 -48 49 -53 65 -44 26 17 21 48 -32 181 -157
395 -344 683 -624 963 -166 165 -305 278 -544 443 -360 247 -357 246 -400 322
-21 39 -51 91 -67 117 l-28 46 82 -65 c174 -140 335 -236 771 -460 427 -220
565 -310 740 -487 56 -56 144 -157 197 -226 353 -458 674 -689 984 -707 106
-6 171 6 260 49 153 74 214 205 74 158 -30 -10 -75 -21 -99 -25 l-45 -7 15 23
c70 109 119 240 99 264 -18 22 -35 18 -74 -15 -123 -109 -290 -72 -524 116
-83 67 -201 175 -504 463 -403 383 -549 485 -975 682 -268 123 -391 190 -548
297 -110 75 -329 246 -354 276 -11 14 -7 41 29 180 l43 164 -24 46 c-31 62
-162 187 -273 260 -214 141 -527 256 -696 256 l-50 0 0 78 c0 81 26 221 57
310 l18 52 40 -27 c77 -51 206 -165 406 -358 552 -535 870 -728 1194 -727 99
1 149 9 444 77 62 14 119 24 126 21 7 -2 25 -30 41 -61 15 -31 33 -59 40 -62
7 -3 29 1 49 7 34 11 39 10 67 -16 16 -16 61 -82 100 -146 38 -65 83 -131 99
-148 39 -39 85 -40 128 -4 28 23 31 31 31 84 0 32 -4 70 -9 83 l-10 25 63 -28
c114 -52 176 -63 331 -57 165 6 233 23 282 72 27 27 33 41 33 74 0 33 -5 44
-30 62 l-30 22 48 28 c64 36 120 96 134 142 16 52 -9 105 -52 113 -29 6 -29 7
-15 35 30 57 11 167 -30 183 -30 11 -62 6 -87 -14 l-26 -20 -5 30 c-8 36 -40
70 -67 70 -11 0 -52 -22 -92 -49 -81 -55 -171 -94 -250 -110 -88 -17 -174 -24
-222 -17 -46 7 -46 8 -46 46 0 35 -3 40 -27 45 -16 3 -51 12 -79 20 -47 14
-52 18 -64 58 -54 181 -227 335 -480 428 -47 17 -152 48 -235 70 -190 50 -388
117 -516 175 -237 106 -382 206 -674 464 -265 234 -468 387 -630 475 -90 49
-233 106 -312 125 l-53 12 44 51 c24 29 67 85 95 126 46 67 51 72 51 45 0 -25
-24 -113 -45 -165 -9 -24 22 -51 49 -43 39 13 134 83 169 126 56 70 99 154
106 211 l6 52 23 -65 c33 -91 36 -95 68 -95 20 0 32 7 41 25 14 28 16 139 4
213 l-8 49 23 -29 c58 -72 94 -188 94 -306 0 -54 11 -63 66 -53 25 5 51 24 92
66 l58 59 21 -32 c11 -18 26 -42 32 -54 28 -55 101 -2 161 117 45 90 64 172
57 255 l-6 70 29 -55 c16 -31 34 -87 41 -128 21 -130 83 -159 109 -51 15 60 9
277 -9 324 l-11 30 26 -30 c63 -74 107 -202 102 -301 -1 -34 1 -66 4 -70 4 -4
23 -8 42 -9 42 -4 64 17 103 100 26 55 28 69 27 175 0 117 -22 228 -60 303
-28 55 82 -59 114 -118 27 -51 52 -65 82 -45 12 7 15 30 13 110 -2 56 -7 118
-13 138 -7 28 -6 47 5 77 16 46 19 135 6 182 l-9 31 61 -23 c34 -13 84 -33
111 -45 61 -28 96 -17 96 30 0 37 -76 183 -134 258 -90 117 -240 238 -377 308
l-66 33 -7 52 c-11 81 -52 188 -97 253 -22 33 -38 67 -36 75 3 9 26 75 52 146
52 143 57 214 20 255 -24 27 -96 27 -200 0 -109 -28 -176 -61 -235 -116 -29
-27 -50 -41 -50 -32 0 8 11 25 25 38 37 35 48 79 36 146 -16 84 -66 152 -148
201 l-32 19 71 19 c167 43 243 171 173 291 -60 103 -204 103 -338 0 -42 -32
-48 -34 -54 -19 -33 99 -90 174 -150 199 -44 19 -132 18 -153 -1 -16 -14 -26
-11 -117 33 l-100 49 35 42 c62 76 52 186 -22 233 -25 15 -43 18 -95 15 -75
-6 -122 -34 -187 -113 l-41 -51 -12 51 c-6 27 -23 69 -36 92 -30 51 -106 104
-150 104 -45 0 -116 -40 -143 -80 -21 -31 -23 -43 -18 -97 l7 -63 -36 0 c-30
0 -37 5 -48 33 -8 18 -31 47 -51 65 -31 27 -44 32 -90 32 -76 0 -147 -25 -206
-71 -44 -35 -51 -38 -57 -22 -33 96 -93 176 -150 200 -49 20 -125 17 -156 -7z
m161 -57 c37 -27 67 -74 92 -141 26 -70 28 -111 7 -127 -28 -20 -116 -26 -146
-11 -31 17 -84 71 -100 104 -20 39 -19 144 3 176 17 26 22 28 68 24 27 -3 62
-14 76 -25z m855 -30 c25 -24 42 -55 53 -92 9 -31 22 -75 29 -98 12 -36 11
-42 -2 -47 -19 -8 -80 37 -95 70 -6 13 -17 24 -25 24 -25 0 -13 -35 29 -77 40
-41 41 -44 25 -60 -17 -17 -20 -17 -62 6 -76 40 -124 121 -125 213 0 40 4 50
31 72 47 40 96 36 142 -11z m410 -44 c29 -13 47 -48 47 -90 0 -40 -66 -111
-128 -137 -115 -48 -141 -33 -52 29 38 26 60 48 58 58 -6 30 -34 21 -89 -28
-49 -43 -57 -47 -73 -35 -28 20 -13 58 47 121 58 61 76 74 127 84 19 4 36 7
37 8 1 0 13 -4 26 -10z m-819 -31 c32 -14 53 -45 61 -89 5 -26 1 -42 -17 -69
-34 -51 -80 -77 -166 -96 -42 -9 -85 -21 -94 -25 -13 -7 -18 -4 -23 12 -9 26
18 65 63 94 17 11 31 26 32 33 0 25 -35 11 -75 -31 -41 -43 -42 -44 -64 -26
l-23 18 28 52 c53 97 199 164 278 127z m576 -246 c25 -31 26 -74 3 -94 -49
-42 -95 -26 -118 40 -14 41 -14 47 1 63 31 34 84 30 114 -9z m-1092 22 c35
-10 8 -34 -38 -34 -50 0 -142 -18 -154 -30 -7 -7 -6 -14 1 -21 7 -7 36 -5 97
6 48 9 89 15 91 13 2 -2 5 -21 6 -42 l4 -39 -65 -19 c-108 -30 -217 -20 -240
22 -25 47 3 120 54 140 24 10 210 13 244 4z m204 -11 c27 -25 24 -88 -7 -118
-28 -29 -79 -33 -113 -9 -16 11 -22 25 -22 53 0 42 17 62 65 79 43 15 56 14
77 -5z m709 -35 c4 -6 9 -33 12 -61 8 -60 -8 -94 -66 -140 -31 -26 -49 -32
-102 -35 -50 -3 -71 0 -91 13 -24 15 -26 22 -22 66 8 75 53 117 173 160 49 18
84 16 96 -3z m425 -37 c58 -26 73 -45 74 -94 1 -101 -137 -118 -232 -29 -37
35 -38 39 -26 64 7 16 17 28 22 28 5 0 33 -18 62 -41 29 -22 61 -39 71 -37 37
7 16 34 -57 71 -88 45 -84 42 -75 58 11 17 103 5 161 -20z m383 -26 c56 -29
109 -113 131 -208 13 -58 1 -72 -69 -86 -50 -10 -65 -9 -89 3 -47 24 -100 91
-107 133 -3 21 -8 46 -10 56 -4 21 13 87 27 105 14 17 83 15 117 -3z m-1376
-36 c112 -74 173 -191 137 -260 -13 -23 -61 -49 -93 -49 -35 0 -102 53 -132
104 -20 34 -53 125 -55 152 0 1 6 4 14 7 9 4 29 -18 57 -59 42 -61 61 -75 74
-54 8 14 -11 46 -57 96 -39 43 -40 44 -24 69 9 14 20 25 25 25 4 0 29 -14 54
-31z m1186 -65 c1 -71 20 -126 56 -164 l24 -25 -85 3 c-76 3 -92 0 -138 -22
-29 -14 -58 -26 -64 -26 -15 0 -15 -17 -1 -22 9 -3 9 -9 0 -25 -6 -12 -11 -42
-11 -67 0 -85 66 -126 205 -126 36 0 65 -1 65 -3 0 -1 -9 -27 -20 -57 -11 -30
-20 -72 -20 -93 0 -52 39 -111 89 -133 34 -15 43 -25 57 -66 9 -27 14 -51 12
-53 -2 -3 -27 23 -54 57 -27 35 -60 68 -73 74 -13 7 -31 23 -40 36 -72 108
-322 330 -376 334 -11 1 -28 5 -38 9 -41 17 -24 -10 78 -122 116 -128 230
-279 304 -402 43 -71 181 -359 181 -377 0 -4 -14 11 -31 34 -32 44 -46 54 -35
25 6 -14 3 -14 -15 3 -12 10 -19 13 -14 5 4 -8 3 -16 -4 -21 -9 -5 -7 -11 5
-21 16 -12 17 -12 11 4 -9 25 -2 21 19 -10 15 -24 15 -26 1 -14 -24 19 -21 9
13 -49 65 -111 77 -148 21 -66 -40 58 -143 166 -159 166 -6 0 17 -35 51 -77
34 -43 73 -94 86 -113 l24 -35 -34 33 c-35 32 -62 45 -40 18 10 -11 9 -14 -2
-12 -8 1 -61 44 -119 96 -58 52 -152 135 -209 185 -136 117 -260 229 -376 340
-98 93 -266 306 -323 408 -28 50 -36 58 -59 55 -20 -2 -32 -14 -51 -53 -14
-28 -35 -61 -47 -73 -13 -12 -57 -88 -98 -169 -42 -82 -91 -174 -111 -207 -19
-32 -37 -69 -40 -82 -7 -27 -21 -30 -48 -9 -12 9 -41 15 -70 15 -48 0 -49 1
-29 15 13 9 24 31 28 56 16 92 93 240 203 385 l105 140 46 0 c65 -1 121 30
146 81 28 58 113 99 195 95 70 -4 130 11 168 43 l29 24 0 -80 c1 -91 18 -130
73 -166 47 -32 118 -32 153 1 35 32 55 107 49 179 l-4 57 43 -20 c25 -11 66
-20 94 -20 41 0 57 5 87 30 42 34 63 87 55 136 l-6 33 34 -16 c32 -15 33 -17
34 -79z m-1469 11 c17 -9 30 -18 30 -21 0 -4 -20 -33 -45 -67 -45 -59 -54 -92
-25 -92 9 0 32 34 55 82 48 99 75 111 75 35 0 -67 -26 -147 -59 -185 -24 -26
-36 -32 -71 -32 -35 0 -47 6 -71 33 -34 38 -37 75 -13 146 14 40 72 116 90
116 3 0 18 -7 34 -15z m943 -77 c7 -85 25 -124 48 -101 8 8 7 32 -5 89 -9 42
-15 78 -14 80 2 1 19 5 38 9 l36 6 18 -70 c21 -82 18 -156 -8 -197 -16 -23
-23 -26 -58 -21 -23 3 -50 14 -61 25 -27 27 -39 103 -31 194 9 104 29 96 37
-14z m1200 42 c31 -25 51 -80 42 -119 -11 -51 -72 -95 -161 -119 -135 -36
-133 -36 -140 -18 -8 22 19 60 67 95 22 17 35 32 29 36 -18 11 -49 -5 -82 -45
-33 -38 -33 -38 -56 -19 l-24 18 28 52 c59 107 227 174 297 119z m-2309 -47
c-63 -124 3 -253 129 -253 63 0 105 31 145 109 17 35 32 59 32 52 0 -7 25 -37
55 -67 31 -30 52 -54 46 -54 -5 0 -44 -42 -86 -92 -42 -51 -87 -105 -100 -119
-51 -56 -248 -418 -243 -447 1 -9 -6 -30 -17 -46 -17 -25 -20 -26 -25 -10 -5
14 -11 6 -24 -34 -10 -28 -20 -52 -22 -52 -3 0 -3 9 1 19 11 36 15 131 5 131
-6 0 -10 -5 -10 -12 0 -6 -2 -9 -5 -7 -2 3 4 36 15 74 18 65 19 91 0 80 -4 -3
-6 3 -3 13 3 14 12 17 38 14 72 -9 155 65 155 138 0 19 -12 55 -25 79 l-25 44
50 69 c37 51 46 70 36 74 -22 8 -71 -22 -105 -65 l-31 -39 -61 19 c-33 10 -77
19 -96 19 l-36 0 60 63 c93 96 109 182 49 260 -32 42 -33 46 -18 60 17 15 49
23 108 26 l31 1 -23 -47z m-160 -54 c69 -54 55 -122 -49 -228 -80 -83 -102
-87 -91 -17 4 22 14 52 22 65 12 17 13 26 4 35 -17 16 -49 -26 -56 -75 -6 -33
-10 -39 -30 -39 -26 0 -29 11 -24 85 3 56 31 105 86 154 54 48 95 53 138 20z
m-412 -120 c60 -31 138 -107 138 -135 0 -13 -4 -24 -9 -24 -5 0 -24 -14 -42
-31 -29 -27 -39 -31 -79 -27 -25 3 -62 13 -83 23 -65 31 -123 141 -94 178 34
42 105 49 169 16z m2345 5 c14 -2 20 -9 17 -18 -3 -9 -32 -15 -89 -19 -82 -6
-125 -18 -125 -36 0 -19 33 -20 110 -4 44 9 82 14 84 12 2 -2 6 -22 7 -44 l4
-39 -70 -19 c-124 -32 -234 -9 -243 52 -5 34 17 90 41 103 40 22 184 29 264
12z m201 -2 c23 -15 33 -72 17 -103 -41 -78 -155 -60 -155 24 0 38 22 63 66
77 38 11 56 11 72 2z m143 -140 c113 -73 176 -193 138 -264 -14 -26 -74 -51
-108 -43 -54 12 -125 95 -147 173 -9 31 -19 62 -21 68 -2 6 3 14 11 17 11 5
28 -11 56 -53 45 -67 57 -77 73 -61 14 14 -2 44 -54 100 -37 41 -38 44 -23 67
9 13 19 24 23 24 4 0 27 -13 52 -28z m-273 -58 l32 -15 -51 -66 c-49 -64 -59
-98 -29 -98 9 0 32 34 55 82 27 54 46 82 58 82 43 2 6 -188 -47 -238 -26 -24
-80 -30 -114 -12 -26 14 -52 61 -52 94 0 45 33 118 68 153 41 39 39 39 80 18z
m-2188 -14 c21 -21 26 -69 10 -100 -11 -20 -56 -38 -83 -32 -22 5 -49 56 -40
79 10 29 55 73 75 73 10 0 27 -9 38 -20z m1005 -72 c52 -91 191 -302 236 -359
l29 -37 -31 -13 c-46 -19 -120 -97 -157 -166 -93 -176 -96 -437 -7 -613 35
-70 108 -146 170 -178 145 -75 312 5 401 193 30 64 64 194 64 246 0 17 14 8
81 -52 102 -93 251 -216 351 -292 71 -53 77 -60 72 -86 -6 -26 -1 -32 49 -64
91 -59 125 -132 106 -230 -28 -148 -158 -279 -349 -352 l-68 -26 -33 -82
c-144 -363 -305 -571 -522 -677 -137 -65 -226 -84 -398 -83 -113 0 -147 4
-205 23 -316 104 -498 349 -569 765 -9 55 -21 107 -26 116 -4 9 -25 20 -46 24
-143 26 -257 168 -282 351 -23 160 41 297 156 334 38 13 168 93 179 111 11 18
22 8 41 -38 47 -111 139 -193 217 -193 161 0 286 221 286 505 0 125 -18 222
-56 313 l-27 63 91 187 c79 162 141 299 173 380 5 13 13 21 17 18 5 -3 30 -43
57 -88z m-767 27 c82 -25 152 -98 137 -144 -9 -30 -56 -71 -80 -71 -56 0 -129
33 -179 80 -28 27 -47 52 -43 56 4 4 37 -7 73 -25 48 -24 70 -29 78 -21 19 19
-7 44 -72 69 -51 20 -62 29 -62 48 0 21 4 23 48 23 27 0 71 -7 100 -15z m-418
-34 c0 -5 -19 -20 -42 -34 -71 -42 -112 -81 -105 -100 10 -26 21 -21 86 33 33
28 64 50 68 50 4 0 16 -12 27 -26 l18 -26 -33 -34 c-41 -42 -114 -90 -151 -99
-60 -15 -98 18 -98 85 0 36 58 88 145 130 63 30 85 36 85 21z m230 -142 c15
-28 24 -64 28 -110 4 -62 3 -69 -21 -93 -34 -34 -86 -35 -122 -3 -36 31 -53
117 -35 180 12 44 15 47 46 47 l34 0 -7 -42 c-4 -24 -8 -61 -8 -83 0 -33 3
-40 20 -40 18 0 20 7 22 85 1 47 2 88 2 93 2 18 19 4 41 -34z m313 -356 c-40
-92 -73 -238 -79 -353 -5 -91 -2 -118 20 -203 15 -58 41 -127 63 -165 51 -89
50 -89 14 -63 -76 55 -139 213 -148 374 -9 168 29 319 106 425 44 59 55 52 24
-15z m868 1 c-16 -25 -42 -76 -57 -112 -26 -62 -28 -79 -32 -230 -4 -193 9
-265 69 -381 21 -41 37 -76 35 -78 -11 -11 -93 90 -122 151 -83 174 -83 362
-2 535 26 54 114 161 132 161 3 0 -8 -21 -23 -46z m1484 -529 c32 -31 101 -78
184 -125 149 -84 254 -164 323 -247 73 -87 168 -295 168 -367 l0 -30 -32 31
c-18 17 -57 46 -86 65 -40 27 -59 48 -79 89 -32 66 -193 227 -334 334 -98 75
-116 98 -212 266 -27 47 -77 186 -77 211 1 7 22 -30 48 -82 31 -62 64 -111 97
-145z m-102 -67 c-10 -18 61 -113 168 -223 163 -168 289 -362 289 -445 0 -49
15 -90 34 -90 17 0 23 -15 32 -93 l6 -59 -50 51 c-59 59 -108 91 -139 91 -30
0 -40 -20 -14 -27 32 -8 51 -87 50 -212 l0 -106 -17 41 c-24 58 -101 154 -123
154 -11 0 -19 -1 -19 -2 -1 -2 -5 -47 -9 -100 -5 -53 -20 -128 -32 -165 l-24
-68 -6 86 c-7 99 -53 249 -77 249 -12 0 -13 -9 -8 -42 18 -111 27 -204 21
-227 -9 -37 -25 -7 -25 50 0 69 -36 196 -71 251 -43 67 -65 64 -34 -4 27 -59
48 -167 43 -218 -3 -31 -4 -32 -19 -18 -11 12 -18 44 -22 110 -7 99 -28 178
-55 200 -14 11 -15 10 -8 -7 5 -11 10 -51 13 -90 l4 -70 -25 71 c-27 76 -91
194 -106 194 -5 0 2 24 15 53 52 112 51 215 -1 304 l-25 44 39 44 c45 51 117
207 140 307 l17 69 21 -48 c12 -26 20 -51 17 -55z m-5111 -477 c18 -38 52 -81
103 -130 41 -40 75 -76 75 -80 0 -4 -28 -21 -62 -37 -91 -43 -201 -147 -278
-262 l-15 -22 -79 30 c-69 27 -233 76 -366 110 l-45 12 28 24 c42 36 110 33
217 -11 97 -40 140 -45 140 -16 0 12 -9 22 -22 26 -13 4 -62 22 -109 41 -113
44 -188 47 -245 8 -37 -26 -42 -26 -134 -20 -52 4 -98 10 -103 15 -15 15 51
60 100 67 113 17 402 -23 483 -66 32 -17 60 -12 60 10 0 13 -12 25 -37 35 -59
25 -211 62 -285 70 -37 4 -65 11 -62 16 15 26 224 -4 371 -53 88 -29 123 -31
123 -9 0 6 -10 17 -22 25 -30 19 -215 74 -278 82 -28 4 -50 10 -50 15 0 18
148 9 241 -15 119 -31 158 -48 187 -81 24 -27 45 -29 50 -4 1 9 -9 33 -24 55
-34 48 -53 99 -54 140 0 33 33 84 53 83 7 0 24 -26 39 -58z m2441 -324 c53
-54 141 -107 179 -107 10 0 20 -10 22 -22 3 -13 12 -63 21 -113 20 -110 76
-281 115 -354 19 -33 26 -58 21 -65 -5 -6 -11 -20 -13 -31 -3 -14 -8 -7 -17
25 -26 89 -151 343 -203 409 -68 88 -198 231 -209 231 -5 0 -9 -8 -10 -17 -2
-47 -20 54 -25 142 l-6 100 35 -71 c20 -42 57 -94 90 -127z m-2022 -6 c144
-66 149 -67 232 -37 212 77 433 44 743 -112 136 -68 261 -144 564 -342 140
-92 299 -193 352 -225 90 -53 99 -61 109 -99 15 -54 42 -115 51 -116 7 0 13
16 23 68 4 17 11 32 17 32 5 0 40 -13 76 -29 167 -73 275 -96 419 -88 66 3
115 1 130 -6 l23 -10 -34 -21 c-89 -55 -146 -128 -146 -185 0 -78 56 -105 155
-76 32 9 58 15 60 13 2 -2 -2 -29 -8 -60 -28 -154 78 -224 212 -141 l48 30 17
-55 c20 -66 48 -107 86 -127 91 -47 201 22 230 146 l12 50 22 -19 c86 -79 180
-42 206 81 6 32 8 71 5 88 -6 24 -4 30 6 26 64 -26 86 -29 120 -14 98 41 88
229 -18 336 -24 24 -41 47 -38 50 14 13 225 -52 330 -103 182 -87 353 -211
650 -471 297 -261 394 -333 578 -430 197 -104 395 -178 692 -256 406 -108 604
-252 661 -480 8 -35 26 -80 39 -100 21 -32 76 -69 104 -69 18 0 13 -68 -9
-109 -27 -55 -110 -125 -196 -168 -41 -20 -75 -34 -77 -32 -45 70 -82 119 -94
123 -14 6 -139 -19 -348 -70 -125 -31 -269 -41 -358 -25 -266 46 -567 251
-1038 707 -383 370 -520 464 -689 467 -63 2 -65 1 -65 -23 0 -22 5 -25 55 -33
74 -10 150 -36 150 -50 0 -7 -11 -46 -24 -88 -13 -43 -30 -109 -37 -149 l-12
-71 -58 -29 c-170 -86 -576 -195 -881 -236 -147 -20 -400 -23 -481 -5 -70 15
-73 20 -125 172 -153 446 -121 855 82 1048 38 37 46 65 20 75 -52 20 -183
-158 -224 -305 l-16 -59 -36 25 c-58 40 -264 139 -388 188 -368 144 -697 220
-1100 252 -603 49 -925 162 -1018 356 -25 52 -41 158 -42 275 0 94 -11 113
-90 165 -48 31 -50 34 -50 79 0 65 42 144 97 184 52 37 213 126 229 126 6 0
49 -17 95 -39z m2288 -678 c11 -23 28 -68 36 -100 8 -31 19 -61 25 -67 13 -13
37 9 45 42 3 15 11 44 16 65 l10 38 38 -48 c21 -27 62 -70 92 -97 l54 -49 -95
5 c-74 4 -120 13 -205 42 -60 20 -110 38 -112 39 -1 2 7 31 17 66 11 34 20 83
20 108 l0 46 19 -24 c10 -13 28 -43 40 -66z m1378 -242 c63 -57 99 -177 70
-231 -20 -38 -84 -34 -138 10 -36 29 -43 31 -56 18 -12 -13 -13 -23 -4 -54 25
-90 5 -205 -38 -219 -31 -9 -75 19 -116 75 -20 27 -40 50 -44 50 -20 0 -30
-26 -24 -65 12 -93 -44 -197 -115 -211 -64 -13 -122 83 -122 202 0 54 -24 54
-78 2 -26 -25 -57 -51 -70 -58 -31 -16 -78 -16 -97 0 -22 18 -19 108 5 170 11
28 20 60 20 72 0 25 -16 22 -105 -16 -68 -29 -133 -34 -141 -11 -16 41 54 123
143 169 l48 24 70 -19 c39 -10 79 -18 91 -18 19 -1 44 -36 44 -62 0 -6 7 -26
15 -43 18 -38 74 -72 133 -82 84 -13 179 64 217 177 15 43 19 48 83 73 37 16
83 38 102 51 46 32 69 31 107 -4z m-337 -100 c0 -17 -65 -105 -93 -125 -31
-23 -81 -25 -123 -4 -30 14 -52 49 -56 89 -3 24 -2 24 115 30 65 4 121 10 124
13 10 9 33 7 33 -3z m760 -1631 c88 -198 166 -309 365 -520 176 -187 348 -425
479 -663 14 -26 26 -53 26 -59 0 -6 7 -19 15 -28 20 -22 135 -281 135 -304 0
-11 6 -27 14 -35 21 -23 129 -352 170 -516 71 -288 155 -735 170 -911 1 -23 6
-46 10 -52 9 -14 34 -209 41 -315 3 -47 10 -109 15 -137 6 -29 10 -65 10 -81
0 -26 -1 -27 -32 -18 -18 5 -69 9 -113 9 -93 0 -150 -21 -205 -76 l-36 -34
-32 42 c-103 134 -296 219 -464 204 -89 -8 -210 -47 -277 -90 l-55 -34 -26 37
c-171 234 -503 240 -774 13 l-69 -58 -35 70 c-109 218 -386 340 -533 235 -17
-11 -32 -20 -33 -18 -2 2 -13 36 -25 75 -75 252 -234 424 -429 465 -74 15
-216 6 -307 -20 -38 -11 -70 -19 -71 -18 0 1 -11 31 -24 67 -33 87 -110 200
-171 249 -106 84 -219 117 -366 108 -108 -7 -195 -36 -279 -92 -59 -40 -64
-42 -64 -22 0 39 -56 142 -104 189 -89 90 -250 140 -379 120 -54 -8 -58 -8
-61 12 -33 179 -69 266 -143 340 -58 57 -163 110 -258 130 l-70 14 85 40 c221
103 489 192 1120 372 651 186 891 271 1086 386 200 117 273 220 290 409 7 79
-14 224 -45 305 -10 27 -18 50 -18 50 1 0 27 -7 57 -15 121 -33 426 -28 629
11 255 48 555 158 696 253 16 11 33 17 36 13 4 -4 26 -50 49 -102z m3340 8 c0
-35 -6 -47 -38 -77 -21 -20 -79 -58 -130 -84 -86 -45 -110 -69 -79 -80 40 -14
234 100 339 201 47 44 68 39 68 -19 0 -54 -35 -114 -93 -162 -69 -57 -206 -89
-387 -91 -78 -1 -85 -3 -85 -21 0 -28 76 -38 197 -25 127 14 224 41 325 91 45
23 87 38 93 34 37 -23 -32 -110 -122 -156 -89 -45 -230 -89 -284 -89 -66 0
-164 24 -225 56 -35 17 -55 22 -62 15 -31 -31 62 -84 198 -112 87 -18 234 -20
343 -3 29 4 32 2 32 -20 0 -55 -103 -86 -285 -87 -135 -1 -209 17 -326 77 -73
38 -91 41 -109 19 -10 -12 -9 -24 8 -63 39 -93 36 -162 -7 -162 -25 0 -52 32
-117 144 -38 65 -54 101 -46 104 31 10 118 85 149 129 45 62 98 168 108 213
10 45 18 50 86 50 110 0 296 67 398 144 19 14 38 23 42 20 5 -3 9 -24 9 -46z
m-5001 -680 c-62 -101 -119 -195 -128 -210 -10 -17 -41 -39 -81 -57 -93 -43
-251 -103 -257 -98 -3 4 567 547 574 547 2 0 -47 -82 -108 -182z m-2147 -1816
c24 -29 50 -67 221 -327 288 -438 599 -719 752 -681 31 8 32 29 5 87 -26 59
-26 140 1 196 61 127 248 200 408 159 143 -37 201 -87 517 -458 448 -524 722
-754 1004 -843 110 -35 259 -46 279 -21 12 14 11 23 -8 64 -28 60 -29 103 -2
177 25 69 67 117 131 150 238 121 567 59 925 -174 147 -96 324 -181 470 -226
165 -51 170 -54 108 -54 -29 -1 -73 6 -98 15 -58 19 -68 12 -90 -64 -83 -289
-475 -402 -823 -237 -41 19 -86 44 -102 55 -15 11 -33 20 -38 20 -6 0 -39 -25
-74 -55 -123 -107 -265 -158 -438 -157 -210 1 -396 81 -502 216 -22 28 -46 54
-53 58 -8 5 -48 -9 -97 -32 -134 -64 -189 -75 -373 -74 -146 0 -167 3 -240 27
-150 50 -246 122 -294 219 -17 34 -31 73 -31 88 0 53 -34 63 -84 25 -17 -13
-57 -36 -87 -50 -242 -110 -569 81 -629 369 -6 30 -17 59 -24 65 -9 8 -44 8
-116 1 -252 -24 -466 45 -569 184 -91 121 -115 210 -109 410 l3 140 -60 35
c-78 46 -195 163 -225 226 -35 71 -36 208 -2 277 46 92 132 169 230 204 59 21
87 17 114 -14z"/>
<path d="M5247 8451 c-45 -9 -72 -33 -64 -55 5 -13 22 -15 91 -13 72 2 88 -1
113 -19 50 -38 68 -80 68 -164 -1 -119 -59 -223 -158 -280 -123 -70 -278 -40
-466 88 -99 67 -106 64 -115 -64 -7 -99 -23 -184 -35 -184 -3 0 -15 7 -25 15
-30 23 -89 19 -113 -7 -12 -13 -23 -32 -25 -43 -3 -17 -6 -16 -23 12 -10 18
-32 38 -48 44 -26 11 -35 10 -66 -7 -28 -15 -40 -30 -53 -69 -13 -40 -18 -46
-23 -30 -18 55 -47 106 -69 120 -43 29 -93 2 -113 -59 l-9 -30 -25 44 c-30 56
-67 78 -106 65 -15 -6 -32 -20 -38 -33 -22 -49 -33 -16 -42 121 -8 136 -20
145 -108 87 -64 -42 -123 -61 -192 -61 -124 0 -189 66 -202 204 -6 68 -7 72
-31 72 -20 0 -25 -6 -31 -35 -8 -36 2 -116 20 -161 28 -74 153 -159 233 -159
56 0 138 20 191 46 l47 24 0 -38 c0 -56 34 -167 62 -205 18 -22 29 -56 37
-106 14 -91 44 -180 82 -248 25 -45 29 -63 29 -128 0 -98 17 -141 62 -153 18
-5 43 -5 55 -1 17 6 23 3 34 -23 27 -66 119 -89 166 -42 l25 25 27 -25 c59
-57 126 -54 157 6 9 18 18 34 19 36 2 2 17 -4 34 -12 52 -28 99 -21 137 19 37
39 48 78 41 145 -4 37 0 50 29 90 79 110 146 300 167 473 11 92 13 98 32 91
11 -3 62 -8 114 -10 128 -4 184 17 269 102 72 72 96 120 113 223 33 201 -96
348 -274 312z m-469 -1022 c23 -12 42 -24 42 -27 0 -4 -14 -31 -30 -59 -65
-113 -199 -212 -293 -216 l-42 -2 -3 48 c-6 86 50 175 129 206 22 8 23 10 5
17 -13 5 -34 0 -62 -16 -74 -39 -125 -122 -127 -207 l-2 -54 -29 5 c-78 16
-226 109 -226 143 0 24 38 71 83 102 62 42 167 71 292 81 139 10 209 5 263
-21z"/>
<path d="M4220 8400 c-66 -16 -99 -75 -121 -221 -14 -86 -7 -136 22 -173 31
-40 62 -34 101 19 18 24 41 44 50 45 9 0 36 -22 60 -50 44 -51 64 -59 111 -41
57 22 55 102 -6 247 -39 93 -78 149 -118 170 -31 15 -47 16 -99 4z"/>
<path d="M4301 6061 c-26 -26 -43 -93 -35 -137 3 -19 18 -49 31 -65 42 -50 91
-35 118 35 43 113 -43 238 -114 167z"/>
<path d="M4350 5575 c-48 -52 -31 -185 27 -206 50 -18 101 64 88 141 -14 82
-69 114 -115 65z"/>
</g>
</svg>
