<?xml version="1.0" standalone="no"?>
<!DOCTYPE svg PUBLIC "-//W3C//DTD SVG 20010904//EN"
 "http://www.w3.org/TR/2001/REC-SVG-20010904/DTD/svg10.dtd">
<svg version="1.0" xmlns="http://www.w3.org/2000/svg"
 width="1200.000000pt" height="949.000000pt" viewBox="0 0 1200.000000 949.000000"
 preserveAspectRatio="xMidYMid meet">
<metadata>
Created by potrace 1.16, written by Peter Selinger 2001-2019
</metadata>
<g transform="translate(0.000000,949.000000) scale(0.100000,-0.100000)"
fill="#000000" stroke="none">
<path d="M11057 9253 c-24 -3 -40 -11 -44 -21 -4 -9 -326 -442 -717 -962 -391
-520 -766 -1019 -834 -1110 -68 -91 -132 -171 -143 -179 -12 -9 -19 -25 -19
-48 0 -33 1 -34 37 -31 37 3 44 11 246 278 114 151 224 298 245 327 20 28 199
267 397 530 198 263 477 633 620 823 142 190 265 349 272 353 20 12 16 47 -4
45 -10 -1 -35 -3 -56 -5z"/>
<path d="M9644 9053 c-20 -3 -34 -11 -36 -21 -6 -22 -791 -1069 -825 -1100
-21 -19 -24 -29 -19 -57 6 -28 12 -35 29 -35 12 0 27 4 32 8 9 6 271 351 487
642 27 36 54 72 61 80 7 8 61 80 120 160 60 80 114 152 121 161 7 8 32 41 55
72 23 31 46 57 51 57 6 0 10 9 10 20 0 21 -11 22 -86 13z"/>
<path d="M10995 8882 c-6 -4 -22 -23 -35 -42 -13 -19 -35 -49 -49 -66 -55 -67
-61 -75 -61 -84 0 -6 -3 -10 -7 -10 -5 0 -21 -21 -38 -45 -16 -25 -33 -45 -37
-45 -5 0 -8 -6 -8 -14 0 -8 -3 -16 -7 -18 -5 -1 -55 -66 -113 -143 -58 -77
-108 -142 -111 -145 -3 -3 -20 -26 -37 -52 -18 -25 -38 -52 -45 -60 -7 -7 -23
-29 -37 -48 -13 -19 -35 -49 -49 -66 -55 -67 -61 -75 -61 -84 0 -6 -3 -10 -7
-10 -5 0 -21 -21 -38 -45 -16 -25 -33 -45 -37 -45 -5 0 -8 -6 -8 -14 0 -8 -3
-16 -7 -18 -5 -1 -35 -39 -68 -83 -33 -44 -63 -81 -67 -83 -5 -2 -8 -10 -8
-18 0 -8 -3 -14 -7 -14 -5 0 -21 -20 -38 -45 -16 -24 -33 -45 -37 -45 -5 0 -8
-7 -8 -15 0 -8 -4 -15 -8 -15 -4 0 -15 -12 -24 -28 -9 -15 -30 -42 -47 -60
-30 -31 -44 -92 -21 -92 21 0 57 23 71 44 8 13 26 39 41 57 15 19 56 75 93
124 36 50 73 98 81 108 8 10 32 42 52 70 20 29 39 54 42 57 6 6 146 189 178
234 12 17 28 38 35 46 6 8 30 40 52 70 21 30 42 57 45 60 3 3 17 21 30 40 13
19 30 41 37 48 7 8 27 35 45 60 18 26 41 56 51 67 10 11 26 32 35 48 9 15 20
27 24 27 4 0 8 6 8 14 0 8 3 16 8 18 4 2 54 66 112 143 58 77 111 144 117 148
7 4 13 24 13 42 0 35 -19 46 -45 27z"/>
<path d="M7807 8758 c-14 -24 -37 -56 -52 -73 -14 -16 -33 -42 -43 -57 -9 -16
-20 -28 -24 -28 -4 0 -8 -6 -8 -14 0 -8 -3 -16 -7 -18 -5 -1 -35 -39 -68 -83
-33 -44 -62 -82 -65 -85 -3 -3 -23 -30 -45 -60 -22 -30 -43 -56 -47 -58 -5 -2
-8 -10 -8 -17 0 -7 -4 -15 -8 -17 -4 -1 -21 -21 -37 -43 -39 -52 -54 -71 -88
-111 -36 -43 -30 -79 11 -69 15 3 32 13 37 21 23 36 510 681 531 705 34 36 30
49 -15 49 -35 0 -41 -4 -64 -42z"/>
<path d="M2902 8103 c-13 -3 -22 -10 -20 -18 2 -7 53 -49 113 -94 61 -45 123
-92 139 -104 16 -12 52 -39 79 -61 56 -43 256 -177 330 -219 26 -15 47 -32 47
-37 0 -6 10 -10 23 -9 12 0 16 3 9 6 -7 3 -27 19 -45 37 -59 58 -191 172 -247
211 -30 22 -57 42 -60 45 -3 3 -23 18 -45 35 -22 16 -45 34 -51 40 -7 5 -57
43 -113 84 -55 40 -101 78 -101 82 0 9 -17 10 -58 2z"/>
<path d="M4656 8056 c-33 -29 -34 -71 -3 -97 54 -45 146 -2 133 63 -3 17 -14
37 -24 44 -28 21 -78 17 -106 -10z"/>
<path d="M0 7443 c0 -40 6 -49 70 -92 19 -13 40 -29 45 -36 6 -6 33 -26 60
-45 28 -19 56 -40 63 -47 8 -7 35 -27 60 -45 26 -17 49 -34 52 -37 3 -4 23
-20 45 -36 22 -16 47 -35 55 -42 8 -6 53 -40 100 -75 47 -34 87 -65 90 -68 3
-3 30 -23 60 -45 30 -22 57 -42 60 -45 3 -3 43 -34 90 -68 47 -35 92 -69 100
-75 8 -7 33 -26 55 -42 22 -17 42 -33 43 -37 2 -5 8 -8 13 -8 6 0 22 -11 37
-25 15 -14 33 -23 40 -20 8 3 18 5 23 5 13 0 10 32 -5 53 -7 9 -16 17 -19 17
-5 0 -110 76 -157 113 -17 14 -200 153 -239 181 -92 68 -177 132 -181 136 -3
3 -70 54 -150 113 -80 60 -152 114 -160 120 -8 7 -33 26 -55 42 -22 17 -46 35
-55 42 -8 6 -37 28 -65 49 -27 20 -56 41 -62 47 -10 7 -13 0 -13 -30z"/>
<path d="M8736 7303 c-13 -12 -16 -13 -11 -3 6 12 5 13 -6 3 -7 -7 -23 -13
-36 -13 -13 0 -40 -11 -61 -25 -36 -24 -202 -73 -272 -81 -19 -2 -60 -11 -90
-19 -30 -9 -60 -17 -67 -18 -7 -2 -15 -6 -19 -9 -3 -4 -12 -4 -20 -1 -8 3 -14
0 -14 -6 0 -6 -3 -10 -7 -9 -22 4 -63 -24 -69 -48 -5 -19 -9 -22 -15 -12 -7
10 -9 10 -10 -2 -1 -8 -1 -18 0 -22 0 -5 -5 -8 -13 -8 -7 0 -20 -8 -27 -17
-12 -14 -12 -16 0 -8 9 5 12 4 7 -3 -4 -6 -14 -8 -23 -5 -11 4 -14 3 -9 -5 4
-7 1 -12 -7 -12 -20 0 -62 -49 -62 -72 0 -12 -7 -23 -15 -25 -13 -4 -13 -3 0
6 8 5 11 13 7 17 -10 10 -44 -29 -39 -44 2 -8 -5 -22 -17 -33 -12 -11 -21 -15
-21 -10 0 6 8 14 17 20 10 5 15 12 11 16 -9 9 -50 -34 -43 -45 3 -5 -17 -33
-45 -62 -27 -29 -50 -49 -50 -45 0 5 15 23 33 40 18 18 39 41 47 52 18 25 -43
-29 -83 -73 -17 -19 -36 -31 -44 -28 -8 3 7 -24 32 -59 26 -36 44 -65 40 -65
-3 0 3 -10 14 -22 11 -11 18 -25 15 -30 -3 -4 -1 -8 5 -8 6 0 1 -16 -10 -35
-20 -33 -26 -53 -28 -83 -1 -7 -6 -10 -13 -6 -7 4 -8 3 -4 -4 7 -12 -25 -82
-46 -99 -7 -6 -32 -17 -55 -23 -36 -11 -40 -15 -33 -34 4 -11 11 -44 14 -71 4
-28 11 -57 15 -64 17 -26 46 7 74 84 16 42 31 75 33 72 3 -2 -1 -17 -7 -33
-40 -102 -50 -164 -55 -319 l-5 -160 41 75 c23 41 46 77 51 78 5 2 9 22 9 43
0 24 4 38 10 34 6 -4 10 18 11 57 0 64 11 109 21 92 3 -5 9 -30 13 -55 4 -25
17 -58 29 -73 20 -26 25 -27 121 -29 152 -3 156 0 180 116 3 15 14 42 25 60
l21 32 -7 -44 c-5 -32 -4 -42 4 -37 7 4 12 16 12 27 0 11 5 30 11 41 6 11 12
31 14 44 4 36 64 92 125 116 78 31 248 31 335 0 37 -14 61 -18 63 -12 6 18 95
124 129 154 l34 29 -28 29 c-37 39 -109 58 -219 58 -155 0 -277 -52 -371 -158
l-42 -47 -118 39 c-65 22 -134 47 -153 57 l-35 17 -56 -52 c-34 -32 -61 -67
-68 -89 -15 -45 -26 -49 -17 -6 3 17 17 44 31 61 14 16 25 37 25 46 0 13 -2
13 -13 -2 -12 -17 -14 -17 -20 -2 -4 9 -3 16 1 16 5 0 16 17 26 38 46 96 169
239 259 301 72 49 77 33 11 -33 -58 -58 -58 -64 2 -19 45 34 47 29 9 -27 -37
-55 -37 -87 1 -96 16 -4 37 4 69 26 34 23 53 30 71 26 13 -4 24 -11 24 -16 0
-9 62 -40 79 -40 4 0 38 25 76 55 l69 55 196 0 c187 0 358 12 380 25 16 10 -6
32 -75 78 -62 41 -51 41 50 1 56 -22 58 -22 35 -3 -17 14 -6 11 34 -10 48 -25
55 -27 40 -10 -11 12 -18 24 -18 28 1 3 -2 5 -7 3 -5 -1 -9 2 -9 6 0 14 -89
58 -172 86 -71 24 -85 26 -191 20 -148 -9 -154 -7 -127 45 11 22 40 61 66 88
70 73 94 108 94 134 -1 21 -4 19 -26 -18 -15 -25 -35 -44 -51 -48 -14 -3 -27
-5 -28 -3 -2 2 10 34 26 71 17 37 29 77 27 88 -3 19 -4 19 -22 2z"/>
<path d="M0 7182 l0 -48 148 -110 c81 -61 314 -237 517 -391 856 -645 825
-623 857 -623 29 0 30 2 24 31 -3 17 -6 35 -6 40 0 5 -7 9 -15 9 -8 0 -81 50
-162 112 -81 62 -292 220 -468 352 -176 132 -322 243 -325 246 -3 3 -95 73
-205 155 -110 82 -202 152 -205 155 -3 3 -40 31 -82 63 l-78 57 0 -48z"/>
<path d="M5525 6950 c-4 -6 -55 -10 -119 -10 -176 0 -344 -55 -437 -142 -19
-18 -26 -25 -14 -16 20 17 167 88 181 88 4 0 -12 -13 -37 -29 -66 -42 -103
-81 -89 -95 15 -15 744 -16 760 0 16 16 -22 59 -84 94 -28 17 -48 30 -45 30
14 0 137 -54 161 -72 16 -11 28 -17 28 -14 0 3 -19 19 -42 36 -42 31 -44 39
-5 18 19 -10 20 -9 10 4 -7 8 -10 18 -7 21 8 8 -101 62 -165 81 -63 18 -87 20
-96 6z"/>
<path d="M7125 6951 c-6 -5 -80 -11 -165 -14 -100 -3 -176 -11 -215 -22 -74
-20 -231 -94 -265 -124 -23 -20 -21 -20 20 3 43 24 172 76 188 76 4 0 -19 -15
-50 -33 -74 -41 -113 -76 -101 -88 21 -21 206 -31 488 -26 160 3 299 7 310 10
11 3 30 6 43 6 12 1 22 5 22 11 0 16 -58 63 -113 92 -29 15 -50 27 -47 28 9 0
135 -47 171 -64 l34 -17 -25 21 -25 21 42 -20 c53 -26 65 -26 33 0 -14 11 -18
18 -10 14 8 -4 6 1 -5 10 -37 31 -153 84 -227 105 -82 23 -90 24 -103 11z"/>
<path d="M4540 6925 c-10 -12 -38 -15 -129 -15 -151 0 -191 -7 -191 -32 0 -16
-3 -17 -20 -8 -20 11 -20 7 -21 -362 -1 -205 0 -377 2 -383 7 -20 10 -357 4
-373 -4 -12 -19 11 -48 77 -31 71 -43 89 -48 75 -4 -11 -19 -59 -34 -109 -72
-238 -212 -408 -430 -518 -161 -81 -283 -97 -755 -97 -211 0 -371 -4 -380 -10
-17 -11 -23 -4 85 -91 44 -35 82 -67 83 -71 2 -5 71 -8 153 -8 124 0 151 -3
155 -15 4 -9 19 -15 40 -15 22 0 37 6 40 15 5 13 38 15 209 15 225 0 306 11
437 62 185 71 362 232 424 387 9 23 20 41 24 41 5 0 15 19 24 43 l15 42 1 -85
c3 -141 11 -240 21 -240 5 0 9 167 10 408 1 387 6 495 21 447 4 -11 10 -36 13
-55 16 -76 27 -86 102 -93 37 -3 91 -2 118 1 45 6 52 11 66 42 35 75 49 139
49 226 l0 89 -87 23 c-49 12 -108 35 -133 50 -25 16 -55 35 -67 42 -20 13 -25
12 -46 -8 -13 -12 -27 -22 -31 -22 -4 0 -6 99 -4 220 1 121 4 220 5 220 2 0 8
-10 13 -22 7 -19 9 -16 9 20 1 29 5 42 15 42 9 0 12 -7 9 -20 -3 -11 0 -40 7
-65 12 -41 15 -44 62 -55 51 -13 136 -7 169 10 22 12 43 73 36 106 -3 16 0 24
9 24 10 0 14 -15 15 -47 l1 -48 10 35 c5 19 8 48 5 64 -3 21 1 35 12 43 14 11
13 12 -10 13 -15 0 -32 -7 -39 -15z"/>
<path d="M2407 6899 c-3 -12 -10 -18 -15 -15 -7 4 -10 -36 -9 -106 1 -90 4
-116 16 -126 14 -11 14 -11 0 -6 -14 4 -17 -3 -18 -51 0 -31 3 -54 7 -51 4 3
9 -4 9 -15 1 -11 -2 -17 -6 -15 -4 3 -9 -31 -9 -75 -1 -49 2 -77 8 -74 6 3 10
-1 10 -9 0 -8 -4 -17 -9 -21 -6 -3 -8 -34 -6 -68 6 -87 7 -90 18 -105 7 -9 6
-11 -7 -6 -15 6 -16 -3 -14 -75 1 -44 6 -81 11 -81 5 0 5 -6 -1 -13 -16 -19
-13 -148 4 -174 12 -20 12 -22 -1 -17 -12 5 -15 -4 -15 -44 0 -31 5 -52 13
-55 10 -4 10 -6 0 -6 -8 -1 -13 -14 -13 -32 0 -17 4 -28 10 -24 6 3 10 -1 10
-10 0 -9 -5 -13 -11 -9 -12 7 -7 -54 5 -75 4 -6 2 -11 -3 -11 -6 0 -11 -14
-11 -31 0 -21 4 -28 13 -23 10 6 10 4 0 -7 -7 -7 -13 -28 -13 -47 0 -24 4 -31
13 -26 10 6 10 4 0 -7 -16 -16 -17 -55 -3 -64 6 -4 7 -11 4 -17 -11 -17 -13
-78 -3 -78 5 0 9 -5 9 -11 0 -5 -5 -7 -10 -4 -6 4 -10 -11 -8 -40 0 -25 6 -48
11 -52 5 -3 3 -9 -4 -14 -9 -6 -10 -9 -2 -9 7 0 10 -10 7 -27 -5 -24 -3 -25
12 -12 15 12 17 12 9 0 -6 -11 -4 -13 7 -8 9 3 19 3 23 -1 12 -12 85 -11 85 1
0 13 -54 72 -88 98 l-22 16 0 876 c0 482 -2 877 -4 877 -2 0 -6 -9 -9 -21z"/>
<path d="M3435 6911 c8 -14 -34 -18 -110 -10 -92 9 -762 11 -814 3 -30 -5 -41
-11 -43 -27 -3 -20 -4 -20 -20 -3 -17 17 -18 -22 -17 -811 0 -455 3 -822 6
-815 2 6 9 10 14 6 5 -3 9 163 10 413 0 421 5 497 28 418 6 -22 11 -46 11 -53
0 -8 9 -26 20 -42 16 -23 28 -28 77 -32 32 -3 82 -2 111 1 48 5 55 9 71 41 33
63 44 123 45 233 l1 109 -77 24 c-75 24 -78 26 -78 55 l0 30 -29 -20 c-41 -29
-147 -81 -165 -81 -14 0 -16 30 -15 248 0 136 3 241 6 235 9 -24 23 -13 23 17
0 19 5 30 14 30 8 0 12 -8 9 -23 -3 -13 0 -42 6 -64 11 -40 13 -41 77 -57 57
-15 114 -16 457 -11 422 6 537 12 537 26 0 16 -81 63 -149 86 -62 21 -63 22
-21 17 25 -4 82 -19 127 -34 46 -15 80 -24 77 -19 -3 5 -2 9 2 9 8 0 122 -68
149 -89 11 -9 7 -1 -9 17 -17 17 -26 32 -21 32 18 0 -68 53 -139 85 -78 36
-180 69 -171 56z"/>
<path d="M4140 6906 c0 -8 -3 -22 -6 -30 -5 -12 -2 -15 12 -10 17 5 17 4 4 -8
-11 -9 -15 -33 -15 -88 0 -41 3 -80 8 -87 4 -6 3 -14 -3 -18 -5 -3 -10 -13
-10 -21 0 -8 4 -13 9 -9 5 3 13 0 17 -6 4 -8 3 -9 -5 -5 -14 9 -27 -22 -14
-35 7 -7 7 -28 1 -61 -6 -33 -6 -54 1 -61 6 -6 7 -16 1 -27 -9 -17 -7 -53 5
-82 4 -10 3 -18 -3 -18 -6 0 -8 -16 -5 -42 4 -24 7 -53 7 -65 1 -11 5 -19 10
-15 5 3 6 -2 3 -12 -4 -10 -3 -15 3 -11 6 4 10 136 10 356 0 231 -3 348 -10
344 -5 -3 -10 -2 -10 4 0 5 6 12 13 14 7 3 5 6 -5 6 -10 1 -18 -5 -18 -13z"/>
<path d="M4610 6698 c0 -94 3 -117 27 -175 15 -38 30 -69 35 -71 4 -2 8 -40 7
-85 -1 -59 -3 -74 -9 -52 -24 96 -50 189 -54 192 -2 2 -6 -18 -10 -45 -7 -53
9 -154 29 -186 7 -12 20 -45 30 -73 9 -29 18 -53 20 -53 8 0 3 433 -4 448 -5
10 -19 53 -32 97 -34 120 -38 120 -39 3z"/>
<path d="M5270 6610 c-58 -20 -110 -67 -110 -99 0 -33 22 -85 51 -123 16 -20
29 -42 29 -49 0 -27 -177 27 -251 77 -28 19 -54 34 -57 34 -3 0 -19 -11 -36
-23 -17 -13 -52 -36 -78 -51 l-47 -27 14 -38 c43 -122 94 -175 228 -237 152
-70 308 -105 501 -113 87 -4 199 -5 247 -3 78 4 89 7 89 23 0 10 -5 21 -10 24
-6 4 -8 10 -5 14 2 4 -23 28 -56 52 -33 24 -56 45 -51 47 11 3 86 -34 141 -69
32 -22 33 -22 23 -2 -13 24 -59 60 -130 100 -52 30 -53 31 -25 36 15 3 94 24
174 48 l146 42 6 104 c7 117 3 137 -21 124 -10 -4 -91 -28 -180 -52 -111 -30
-167 -49 -173 -61 -5 -10 -6 -55 -1 -110 9 -92 7 -112 -6 -93 -7 11 -10 12
-207 84 -228 84 -229 85 -156 110 47 15 120 14 171 -4 23 -8 44 -15 45 -15 1
0 0 44 -3 98 -6 117 -16 137 -85 157 -66 20 -110 19 -177 -5z"/>
<path d="M4770 6571 c0 -7 -4 -10 -9 -6 -16 9 -23 -14 -31 -108 l-7 -92 -2 83
c0 45 -5 82 -10 82 -13 0 -12 -218 0 -226 6 -4 6 -11 -1 -20 -14 -16 -3 -97
11 -89 5 4 6 -1 3 -10 -4 -8 -1 -21 5 -29 6 -7 8 -16 4 -19 -3 -4 1 -7 9 -7 9
0 21 -7 28 -15 11 -13 10 -14 -4 -9 -23 9 -20 -9 4 -26 11 -8 20 -19 20 -25 0
-7 12 -22 26 -36 15 -13 25 -19 22 -14 -2 6 -12 28 -23 50 -10 22 -19 57 -19
77 0 23 -4 32 -9 25 -5 -7 -6 0 -2 16 4 19 2 26 -4 22 -7 -3 -8 0 -5 9 3 9 1
16 -6 16 -7 0 -9 8 -5 21 5 16 4 19 -5 14 -9 -5 -10 -1 -5 15 5 16 4 20 -4 15
-8 -5 -10 2 -6 22 5 22 4 25 -5 13 -9 -12 -11 -8 -6 19 3 18 6 38 6 43 0 5 5
6 10 3 6 -4 10 13 11 42 0 26 4 71 9 98 4 28 6 52 4 54 -2 2 -4 -1 -4 -8z"/>
<path d="M6808 6551 c-74 -24 -129 -57 -201 -120 -36 -32 -77 -56 -110 -67
-77 -24 -228 -30 -302 -10 -32 8 -60 14 -61 13 -1 -1 -9 -18 -18 -37 l-16 -35
5 40 c3 22 1 46 -3 53 -6 9 -9 2 -9 -20 0 -18 -8 -64 -16 -103 -9 -38 -17 -98
-19 -132 -1 -35 -6 -63 -10 -63 -5 0 -8 -37 -8 -82 l0 -83 -20 33 c-24 40 -31
41 -20 3 11 -39 26 -66 54 -96 39 -41 47 -17 34 101 -11 98 -5 180 11 170 5
-3 11 -29 15 -58 4 -28 16 -64 27 -79 19 -27 19 -27 135 -25 134 2 144 8 163
95 6 28 18 63 28 79 l18 29 3 -56 c1 -31 6 -72 11 -91 l9 -35 0 45 c-2 93 94
221 202 272 134 63 257 61 425 -7 11 -5 17 -5 13 -1 -9 11 30 114 58 153 l24
31 -40 35 c-22 21 -61 43 -91 51 -73 22 -218 20 -291 -3z"/>
<path d="M2853 6549 c-28 -28 -3 -191 35 -229 14 -14 50 -56 81 -94 l56 -70 3
88 3 89 202 -5 c206 -5 210 -6 332 -54 19 -7 19 -6 4 12 -9 10 -33 48 -54 84
-45 78 -103 135 -165 164 -41 19 -66 21 -265 24 -167 2 -223 0 -232 -9z"/>
<path d="M7718 6515 c-7 -7 -351 -98 -378 -100 -14 -1 -28 -3 -31 -4 -4 0 -21
-44 -38 -97 -36 -109 -34 -140 8 -130 49 11 386 105 379 105 -4 1 16 48 43
106 27 58 49 107 49 109 0 6 -28 15 -32 11z"/>
<path d="M9093 6412 c-39 -16 -41 -18 -26 -37 28 -36 71 -139 78 -187 9 -57
-2 -81 -21 -47 -7 13 -13 19 -14 13 0 -11 -133 -172 -153 -185 -5 -4 -6 -31
-2 -60 6 -49 -1 -124 -21 -219 -7 -34 -4 -32 72 49 43 46 87 98 96 115 9 17
18 24 18 16 1 -8 7 1 15 21 12 33 23 124 24 197 1 46 18 31 26 -22 11 -74 35
-102 93 -110 27 -3 82 -3 121 0 66 6 72 9 91 39 11 18 20 41 20 51 1 11 7 35
14 56 14 40 7 124 -19 214 l-15 51 -97 5 c-71 4 -118 13 -169 32 -83 30 -77
30 -131 8z"/>
<path d="M3650 6382 c-19 -9 -36 -17 -38 -18 -2 -1 11 -29 28 -63 17 -33 37
-88 44 -122 6 -33 17 -63 23 -67 6 -4 16 -27 22 -52 25 -95 26 -97 93 -104 33
-3 91 -3 130 1 77 7 89 18 103 98 4 22 12 45 17 52 12 15 3 95 -18 170 -14 49
-17 52 -42 47 -44 -9 -179 14 -246 42 -33 14 -65 27 -71 29 -5 2 -26 -4 -45
-13z"/>
<path d="M9553 6343 c3 -13 1 -26 -4 -29 -5 -3 -9 -11 -9 -17 0 -8 3 -7 9 2 6
10 12 -4 20 -45 6 -32 14 -70 19 -84 4 -14 4 -70 1 -125 l-5 -100 -4 110 -3
110 -7 -100 c-16 -253 -142 -536 -303 -681 -170 -153 -343 -223 -572 -231
-133 -5 -151 -3 -385 52 -121 29 -120 28 -120 14 0 -36 -23 -87 -53 -120 l-34
-37 77 -31 c124 -52 190 -64 340 -64 108 0 151 4 215 21 107 30 246 99 325
163 39 31 53 39 35 20 -16 -17 -60 -52 -97 -77 -37 -26 -68 -48 -68 -51 0 -10
46 10 59 26 10 12 15 13 18 4 3 -7 9 -13 14 -13 6 0 7 5 3 12 -4 7 -3 8 4 4
14 -8 84 28 74 39 -4 5 -1 5 6 1 20 -12 35 4 20 22 -11 15 -11 15 4 4 18 -14
42 -5 78 29 10 9 31 25 49 35 17 10 31 25 31 34 0 13 1 13 10 0 9 -13 10 -13
11 0 1 8 1 18 0 23 0 4 6 7 14 7 8 0 22 11 31 25 9 14 23 25 31 25 8 0 12 4 8
9 -3 5 -1 12 5 16 6 4 7 11 4 17 -5 7 -1 9 9 5 10 -3 17 -2 17 4 0 6 9 5 23
-2 22 -12 22 -12 2 8 -11 11 -26 18 -33 15 -8 -3 -10 1 -6 12 7 19 21 21 26 4
3 -7 24 -12 51 -13 49 0 55 7 38 48 -7 19 -12 20 -48 6 -15 -5 -25 -3 -34 7
-10 12 -9 13 6 8 14 -6 16 -4 10 7 -8 12 -6 12 8 0 15 -12 17 -12 11 3 -4 11
-1 16 10 16 9 0 16 7 16 15 0 8 4 15 8 15 12 0 33 50 26 61 -3 5 2 12 10 15 9
3 16 10 16 16 0 5 -4 7 -8 4 -5 -3 -9 1 -9 9 0 8 5 13 11 12 14 -3 17 64 3 83
-9 12 -9 13 3 3 21 -19 32 -16 20 6 -7 15 -7 22 3 28 8 4 17 25 20 45 4 29 2
38 -11 41 -16 4 -16 5 0 6 11 1 15 6 12 16 -4 8 -1 22 6 30 8 9 8 19 2 31 -7
12 -6 24 1 36 9 14 9 23 0 38 -8 12 -9 21 -3 25 6 4 7 11 4 17 -4 6 -7 32 -7
59 0 27 -3 49 -6 49 -4 0 -7 17 -9 38 -2 41 -5 59 -16 83 -4 9 -8 28 -10 43
-1 15 -9 32 -16 39 -10 10 -12 8 -7 -10z"/>
<path d="M4610 6118 c0 -146 8 -240 21 -233 4 3 15 -16 25 -42 9 -27 21 -52
26 -57 4 -6 8 54 8 131 0 78 -4 143 -9 145 -11 4 -51 122 -51 152 0 14 -4 28
-10 31 -6 4 -10 -41 -10 -127z"/>
<path d="M2866 6221 c-12 -20 -10 -240 3 -271 5 -14 10 -19 10 -12 1 19 19 14
26 -8 3 -11 13 -20 21 -20 8 0 14 -5 14 -12 0 -7 9 -21 20 -33 11 -11 32 -33
45 -50 l25 -30 0 128 c0 76 -4 126 -9 122 -5 -3 -12 4 -16 15 -4 11 -10 18
-15 15 -5 -3 -14 5 -21 17 -7 13 -20 29 -31 36 -10 7 -18 20 -18 28 0 8 -6 14
-14 14 -8 0 -18 16 -23 37 -6 28 -11 34 -17 24z"/>
<path d="M4970 6027 c0 -1 13 -28 29 -61 16 -32 35 -78 42 -102 12 -41 17 -45
89 -77 63 -29 403 -157 416 -157 2 0 3 35 2 78 -2 83 -15 110 -68 137 -35 18
-510 188 -510 182z"/>
<path d="M10483 6023 c-20 -8 -15 -21 18 -50 25 -22 28 -29 16 -38 -8 -5 -17
-20 -21 -33 -8 -24 -31 -30 -39 -9 -4 7 -6 5 -7 -5 -3 -22 -7 -37 -10 -40 -5
-6 -42 -296 -42 -337 0 -26 5 -47 13 -52 23 -14 66 -10 80 8 8 9 9 14 2 10
-17 -11 -26 28 -18 81 9 65 14 79 29 85 15 6 18 -51 4 -70 -19 -24 -1 -45 31
-38 21 4 32 2 38 -9 7 -13 20 -9 83 22 65 32 75 41 83 71 5 19 6 45 2 58 l-6
24 -33 -20 c-18 -12 -39 -21 -46 -21 -6 0 -23 -9 -37 -20 -14 -11 -33 -20 -41
-20 -9 0 -23 -7 -32 -15 -15 -13 -16 -11 -13 33 1 26 6 74 9 107 4 33 7 77 7
98 1 36 10 47 22 27 8 -13 164 -114 209 -135 20 -10 43 -14 53 -10 15 6 13 11
-17 33 -73 56 -121 107 -126 137 -3 16 -6 30 -7 30 -1 1 -36 24 -79 53 -72 49
-95 57 -125 45z"/>
<path d="M2867 5780 c-3 -14 -8 -48 -11 -75 -6 -50 -5 -51 42 -99 44 -42 53
-47 88 -44 32 2 40 7 42 27 2 13 0 21 -6 17 -5 -3 -12 1 -16 9 -3 8 -12 15
-20 15 -8 0 -18 9 -21 20 -3 11 -15 25 -26 30 -10 6 -19 17 -19 25 0 8 -6 15
-14 15 -9 0 -18 16 -24 43 -8 37 -10 39 -15 17z"/>
<path d="M6071 5610 c-47 -165 -108 -260 -216 -337 -75 -53 -158 -87 -265
-109 -108 -22 -311 -15 -420 14 -41 11 -92 22 -112 25 l-36 5 32 -68 c19 -38
36 -78 38 -88 13 -49 320 -105 463 -83 293 43 484 205 534 451 14 68 14 99 3
175 l-8 60 -13 -45z"/>
<path d="M7740 5579 c-12 -13 -45 -56 -75 -94 -107 -143 -258 -245 -442 -302
-79 -24 -104 -27 -248 -27 -143 -1 -171 2 -270 27 -60 15 -121 30 -135 33 -14
3 -32 7 -41 10 -13 4 -15 -8 -12 -83 l2 -88 91 -32 c50 -17 127 -39 173 -49
182 -37 422 11 590 119 32 21 62 35 68 31 5 -3 8 -2 7 3 -1 4 38 48 87 98 86
86 101 93 26 12 -29 -31 -33 -39 -21 -47 10 -6 26 3 57 34 24 24 50 46 59 50
8 3 12 10 9 16 -3 6 1 7 9 4 19 -7 21 7 4 25 -11 10 -10 11 2 6 10 -3 25 4 38
20 26 30 28 39 6 31 -8 -3 -12 -2 -9 4 3 6 12 10 20 10 7 0 15 7 19 15 3 8 0
14 -7 12 -7 -1 -12 8 -11 21 1 26 -14 29 -33 5 -12 -16 -12 -15 -2 9 7 15 16
25 22 21 5 -3 7 0 5 8 -3 8 6 36 19 62 28 55 25 70 -7 36z"/>
<path d="M4607 5413 c-3 -4 -2 -42 2 -83 6 -55 4 -78 -5 -85 -7 -5 -14 -21
-16 -35 l-3 -25 -175 -6 c-96 -3 -176 -6 -177 -7 -9 -6 2 -29 42 -90 53 -83
50 -82 268 -82 l147 0 0 47 c0 30 -10 67 -30 110 -38 80 -38 95 0 23 l29 -55
1 60 c0 46 -8 77 -36 145 -42 96 -40 94 -47 83z"/>
<path d="M6997 4941 c-3 -13 -18 -20 -51 -24 -26 -4 -62 -14 -80 -22 -35 -17
-86 -88 -85 -120 0 -19 1 -19 12 -1 7 10 22 31 35 45 l22 26 -11 -27 c-13 -30
-5 -91 15 -107 19 -16 124 -25 191 -16 l56 7 -2 41 c-1 23 -11 58 -21 77 l-20
35 32 -30 c17 -16 40 -46 50 -65 11 -19 19 -29 20 -22 0 24 -27 78 -59 114
-27 31 -29 37 -16 48 14 11 13 14 -2 25 -10 6 -32 17 -50 23 -27 9 -32 8 -36
-7z"/>
<path d="M5814 4931 c1 -14 -10 -16 -79 -13 -98 3 -256 -13 -339 -34 -98 -24
-254 -105 -316 -164 -51 -48 -52 -49 -10 -17 67 50 109 74 184 102 79 30 95
31 43 4 -20 -11 -59 -40 -85 -66 l-47 -46 35 -8 c49 -12 186 -9 315 8 86 11
130 11 205 3 229 -27 390 -25 390 5 0 15 -64 70 -120 104 -44 26 -39 26 29 1
76 -30 121 -54 177 -96 27 -20 40 -27 30 -16 -10 12 -44 41 -75 64 -78 59 -83
65 -27 35 55 -31 63 -33 47 -13 -7 8 -8 16 -4 18 4 3 2 3 -4 2 -7 -2 -13 2
-13 9 0 24 -157 92 -281 121 -51 12 -56 12 -55 -3z"/>
<path d="M3995 4915 c-9 -15 -24 -15 -140 -5 -361 32 -706 -42 -858 -182 l-42
-39 66 44 c56 37 119 65 219 94 8 3 -11 -10 -42 -29 -61 -35 -118 -82 -118
-97 0 -5 29 -12 64 -16 64 -7 164 2 356 31 119 18 299 14 440 -10 183 -31 340
-31 340 -1 0 16 -60 64 -115 93 -55 29 -30 27 57 -4 71 -26 106 -45 158 -88
14 -12 10 -5 -10 14 -19 19 -48 45 -65 58 l-30 22 36 -15 c36 -14 37 -14 32 6
-7 25 -112 79 -208 107 -112 32 -129 34 -140 17z"/>
<path d="M8580 4914 c0 -14 -8 -16 -52 -10 -164 22 -410 12 -553 -24 -104 -26
-248 -96 -305 -149 l-45 -41 67 44 c61 40 133 73 198 90 14 4 5 -4 -20 -18
-49 -26 -120 -88 -120 -103 0 -24 114 -25 415 -3 111 9 195 9 275 3 63 -6 197
-11 298 -12 226 -2 231 4 70 85 -62 31 -105 54 -95 50 10 -3 46 -13 80 -22 34
-9 100 -29 146 -45 99 -34 108 -35 61 -8 -38 22 -37 22 99 -27 92 -34 94 -34
124 -17 32 19 55 48 46 58 -7 7 -69 -27 -69 -37 0 -5 -13 -8 -30 -8 -19 0 -30
5 -30 14 0 29 -460 196 -542 196 -10 0 -18 -7 -18 -16z"/>
<path d="M7238 4703 c2 -27 7 -49 11 -51 4 -1 4 -35 -1 -75 -12 -104 -17 -114
-12 -22 l4 80 -45 -134 c-57 -170 -64 -181 -115 -181 -40 0 -48 7 -31 26 4 5
11 22 15 37 11 48 -23 29 -57 -31 -33 -59 -32 -81 3 -30 l22 33 -6 -38 c-6
-47 -58 -121 -116 -165 -36 -28 -50 -33 -77 -29 -31 5 -35 3 -54 -34 -13 -26
-17 -48 -13 -62 6 -19 5 -20 -10 -8 -9 8 -16 9 -16 3 0 -6 4 -13 10 -17 5 -3
7 -12 3 -20 -4 -11 -1 -13 11 -9 12 5 15 2 10 -11 -5 -11 -1 -21 9 -27 10 -5
17 -15 17 -23 0 -8 5 -17 12 -21 7 -4 8 -3 4 4 -4 7 -2 12 3 12 6 0 11 -7 11
-15 0 -21 20 -19 21 3 0 15 1 15 7 1 7 -16 21 -17 69 -4 19 4 22 10 17 30 -4
16 -2 25 6 25 6 0 9 -4 6 -9 -3 -5 3 -11 15 -14 23 -6 35 13 24 40 -5 15 -4
16 6 6 15 -15 33 -17 24 -3 -3 5 0 7 8 4 8 -3 18 -1 22 5 3 6 1 11 -5 11 -7 0
-5 7 4 16 17 17 21 28 7 20 -11 -7 -23 22 -15 35 3 5 0 9 -6 9 -6 0 -8 5 -5
10 3 6 2 10 -3 10 -15 0 -3 36 21 61 12 13 37 44 56 69 18 25 31 38 28 29 -4
-13 -1 -16 16 -11 22 5 76 42 62 42 -4 0 -2 7 5 15 7 8 18 15 24 15 6 0 4 -5
-4 -10 -10 -7 -11 -10 -2 -10 15 0 33 44 34 85 1 17 5 33 10 36 6 4 5 15 -2
29 -11 20 -10 25 6 37 15 11 16 17 7 32 -7 11 -8 23 -2 32 4 8 6 23 3 34 -3
11 -6 32 -8 48 -1 15 -11 34 -22 43 -18 14 -18 15 6 8 23 -6 23 -6 7 10 -17
17 -21 29 -18 54 1 6 -4 12 -12 12 -11 0 -13 -11 -9 -47z"/>
<path d="M9323 4715 c-7 -8 -13 -18 -13 -22 0 -4 -8 -17 -17 -28 -12 -16 -14
-17 -10 -3 5 15 2 15 -27 -4 -26 -17 -49 -54 -102 -161 -38 -76 -78 -144 -90
-152 -16 -10 -20 -21 -16 -42 2 -15 9 -34 15 -41 9 -11 7 -13 -8 -12 -33 4
-38 1 -26 -14 10 -12 4 -19 -28 -38 -37 -22 -39 -25 -21 -36 11 -7 17 -18 14
-27 -5 -11 1 -15 20 -15 14 0 26 6 26 13 0 7 3 8 8 2 4 -6 22 -12 39 -13 28
-3 35 1 43 22 5 14 15 26 21 26 7 0 4 9 -6 20 -15 17 -16 20 -3 15 11 -4 18 0
23 14 3 12 11 21 17 21 5 0 8 7 5 15 -4 8 -2 17 4 20 5 4 9 12 8 18 -4 31 2
58 11 52 6 -3 17 1 26 9 14 15 13 16 -7 14 -12 -2 -24 3 -26 12 -4 13 -3 13 6
0 11 -16 12 -15 29 20 11 22 11 22 6 3 -3 -13 -1 -23 5 -23 10 0 15 17 14 48
-1 6 3 12 7 12 11 0 42 79 35 91 -3 5 1 6 9 3 14 -6 21 5 17 29 0 4 3 7 7 7 9
0 32 44 32 60 0 6 -7 10 -15 10 -10 0 -15 11 -15 35 0 19 5 35 10 35 6 0 10 5
10 10 0 15 -23 12 -37 -5z"/>
<path d="M3565 4653 c-136 -16 -264 -70 -320 -136 -70 -81 -56 -126 56 -185
l75 -40 13 46 c32 121 192 187 436 180 l110 -4 -117 -2 c-64 -1 -119 -6 -122
-11 -3 -5 -15 -7 -25 -4 -10 3 -21 1 -24 -4 -3 -4 39 -9 93 -9 54 -1 103 -5
111 -9 9 -6 11 -3 6 11 -6 17 -5 17 5 3 15 -18 49 -34 79 -38 5 0 8 -5 5 -10
-3 -5 1 -12 10 -15 8 -3 13 -2 10 3 -3 5 1 14 9 21 13 11 15 10 10 -1 -2 -8 4
-25 15 -39 13 -17 20 -20 20 -10 1 8 7 2 15 -15 7 -16 14 -25 14 -18 1 7 8 10
17 6 12 -4 14 -14 10 -35 -3 -18 -2 -27 4 -23 6 4 6 -4 0 -21 -6 -15 -9 -29
-7 -31 7 -6 29 26 44 64 l14 38 -5 -33 c-3 -18 -2 -31 3 -28 17 11 21 -25 6
-54 -29 -56 -116 -106 -235 -136 -56 -14 -110 -18 -210 -18 -148 1 -216 16
-214 47 1 12 -6 17 -25 17 -14 0 -50 11 -78 25 -42 19 -53 21 -53 10 0 -38
-71 15 -105 77 -15 29 -29 54 -30 55 -1 2 -42 -4 -91 -13 -55 -10 -124 -14
-181 -12 l-91 4 33 -66 c22 -44 54 -85 94 -122 59 -55 152 -108 189 -108 11 0
31 -10 46 -21 24 -19 27 -27 23 -64 -3 -24 -8 -49 -12 -55 -19 -31 58 -32 280
-4 143 18 345 15 490 -9 65 -10 155 -14 198 -8 8 1 3 56 -8 84 -10 25 18 63
52 70 15 3 37 9 47 13 16 6 18 4 13 -9 -8 -20 18 -46 77 -78 l42 -22 50 29
c122 71 210 197 221 316 6 57 5 59 -35 102 -40 44 -41 44 -55 23 -8 -12 -17
-35 -21 -50 -4 -15 -16 -31 -29 -36 -43 -16 -181 -23 -252 -11 -105 16 -100
13 -96 71 3 44 1 51 -12 46 -11 -4 -19 4 -27 29 -6 18 -16 34 -21 34 -6 0 -8
4 -5 9 4 5 -16 29 -42 53 -27 23 -51 50 -54 60 -19 50 -276 92 -443 71z"/>
<path d="M2776 4579 c-30 -58 -31 -63 -13 -54 6 4 3 -1 -7 -9 -11 -9 -17 -16
-14 -16 3 0 2 -19 -3 -42 -7 -31 -7 -43 3 -49 9 -6 8 -12 -7 -26 -23 -21 -32
-71 -9 -53 10 9 11 7 7 -10 -3 -11 -9 -22 -13 -25 -10 -6 0 -48 14 -57 8 -5 7
-11 -1 -19 -8 -8 -9 -18 -4 -28 5 -9 9 -20 9 -26 0 -5 6 -11 13 -14 7 -2 9 1
4 9 -5 9 -4 11 4 6 6 -4 9 -11 6 -16 -3 -5 3 -13 12 -19 16 -9 16 -10 1 -11
-9 0 -18 3 -21 8 -2 4 -2 1 0 -6 1 -8 3 -20 3 -28 0 -8 5 -14 10 -14 6 0 10 7
10 15 0 9 6 12 15 9 8 -4 15 -14 15 -23 0 -13 -2 -13 -9 -2 -5 7 -11 9 -14 3
-8 -12 15 -62 28 -61 25 3 35 -3 46 -23 11 -23 11 -23 -15 1 -31 29 -34 21 -5
-13 17 -20 28 -24 52 -19 21 4 28 3 23 -5 -4 -7 -15 -12 -24 -12 -15 -1 -15
-2 1 -11 13 -8 22 -7 34 3 15 12 15 11 4 -11 l-13 -24 48 7 c131 18 127 18
121 2 -5 -13 -1 -15 21 -10 42 10 62 23 62 40 0 12 -8 15 -34 12 -19 -2 -32 0
-30 4 3 4 -1 8 -9 8 -23 0 -137 78 -197 134 -30 28 -53 52 -52 54 2 1 -10 23
-24 48 -19 32 -29 65 -31 103 -2 36 0 51 5 42 6 -9 12 10 16 55 4 38 9 82 13
99 5 27 4 28 -11 16 -16 -13 -17 -12 -12 15 6 26 5 25 -8 -6 -8 -19 -15 -53
-16 -75 -1 -22 -5 -49 -10 -60 -5 -13 -7 1 -6 42 0 35 4 63 7 63 3 0 11 22 18
50 7 27 17 52 22 56 12 7 12 24 0 24 -6 0 -21 -23 -35 -51z"/>
<path d="M5528 4615 c-137 -35 -250 -130 -329 -278 l-31 -59 -52 7 c-102 13
-213 50 -307 102 -4 2 -12 -10 -19 -27 -15 -36 -45 -42 -35 -7 5 20 5 20 -9
-3 -9 -14 -15 -37 -16 -51 0 -14 -11 -61 -24 -105 -34 -116 -49 -248 -41 -365
9 -119 26 -201 43 -207 10 -3 11 11 5 65 -10 89 -10 292 0 318 7 16 10 17 17
5 6 -8 10 -28 10 -44 0 -16 10 -48 22 -72 19 -39 26 -44 66 -50 24 -4 75 -4
113 -2 78 6 88 13 115 88 8 25 22 59 30 76 8 16 21 52 28 80 13 47 13 46 8
-51 -6 -120 10 -211 38 -220 11 -3 21 -18 23 -33 2 -15 5 0 6 33 7 310 120
555 295 640 54 26 163 46 212 38 77 -12 132 -27 164 -45 19 -11 29 -14 23 -7
-7 7 -13 30 -13 50 0 20 -7 42 -15 49 -8 7 -15 18 -15 25 0 7 -23 22 -50 34
-66 28 -185 36 -262 16z"/>
<path d="M8185 4623 c-122 -14 -235 -58 -300 -115 -36 -31 -75 -94 -75 -121 0
-23 26 -67 35 -59 4 4 6 -5 3 -20 -3 -17 -1 -25 5 -21 6 4 8 0 4 -11 -4 -9 -3
-15 3 -11 5 3 19 -5 31 -17 l21 -23 -7 22 c-6 21 19 83 37 91 4 2 4 10 1 19
-5 12 -3 14 6 8 10 -5 11 -2 7 13 -8 23 8 39 20 21 4 -8 3 -9 -4 -5 -7 4 -12
2 -12 -3 0 -24 47 -3 86 37 24 25 36 29 28 8 -4 -11 0 -13 15 -9 13 3 18 10
13 21 -4 14 -3 15 9 6 8 -6 32 -11 53 -11 27 -1 35 2 25 8 -9 6 -2 7 20 2 27
-5 32 -3 26 7 -5 9 -4 11 4 6 20 -13 151 -18 151 -7 0 6 -12 11 -27 12 -16 0
-37 3 -48 5 -11 3 -72 5 -135 6 -98 1 -106 3 -55 8 135 16 360 -20 486 -76 49
-22 61 -25 75 -14 19 16 112 49 139 50 15 0 11 7 -22 39 -51 49 -97 73 -193
99 -130 36 -302 50 -425 35z"/>
<path d="M7417 4479 c-51 -77 -85 -219 -72 -297 l6 -39 27 27 c15 15 33 40 40
55 17 36 25 26 47 -60 10 -38 25 -84 34 -102 16 -33 137 -143 157 -143 6 0 32
-9 58 -21 102 -44 187 -51 738 -52 358 -1 520 1 528 9 8 8 5 18 -9 36 -11 14
-18 28 -14 32 3 3 -36 26 -88 50 -52 25 -85 45 -73 46 38 0 128 -31 210 -75
81 -42 82 -42 75 -17 -5 18 -26 36 -67 59 -74 42 -235 95 -249 82 -12 -12 -77
-11 -185 1 -47 5 -159 16 -250 25 -253 25 -343 46 -325 75 2 4 -19 14 -46 23
-43 13 -51 14 -56 1 -8 -21 -19 -17 -60 19 -21 19 -64 44 -95 56 -102 41 -239
141 -269 197 l-14 27 -6 -29 -6 -29 -9 35 -10 35 -17 -26z"/>
<path d="M6859 4477 c-20 -15 -46 -94 -35 -105 12 -11 103 -7 118 5 22 19 51
81 45 97 -8 20 -104 22 -128 3z"/>
<path d="M5767 4454 c5 -13 3 -16 -10 -11 -9 3 -17 2 -17 -2 0 -5 7 -11 15
-15 8 -3 15 -1 15 3 0 5 13 4 29 -2 19 -7 27 -16 23 -25 -3 -10 -1 -13 5 -9 6
4 18 0 27 -9 9 -8 21 -12 28 -8 8 5 9 2 4 -11 -7 -19 29 -63 41 -51 4 3 -2 13
-13 21 -10 8 -14 15 -7 15 18 0 44 -30 37 -42 -4 -6 -1 -16 7 -22 21 -17 49
-72 41 -81 -4 -5 -1 -5 7 0 11 6 13 3 9 -13 -4 -12 -1 -25 4 -29 7 -3 8 -1 4
5 -4 7 -3 12 2 12 10 0 26 -55 23 -82 -1 -9 4 -20 10 -24 9 -5 10 -2 6 10 -4
10 -3 15 3 11 14 -9 12 -33 -2 -38 -10 -3 -10 -7 0 -20 13 -15 19 -53 21 -134
1 -21 7 -33 19 -36 16 -4 16 -5 0 -6 -10 0 -18 -5 -18 -11 0 -5 8 -10 18 -10
13 0 14 -2 3 -9 -7 -5 -11 -13 -7 -19 3 -6 0 -13 -6 -15 -10 -4 -10 -6 -1 -6
9 -1 10 -8 3 -27 -7 -17 -7 -32 0 -45 6 -10 7 -19 2 -19 -5 0 -7 -12 -4 -26 3
-17 1 -25 -5 -21 -6 4 -13 -4 -15 -18 -3 -14 -2 -25 2 -25 4 0 5 -11 2 -25 -2
-14 -8 -25 -13 -25 -5 0 -9 -9 -9 -20 0 -11 -5 -20 -11 -20 -6 0 -8 -8 -4 -19
4 -14 0 -21 -14 -26 -12 -3 -21 -18 -25 -40 -4 -18 -10 -35 -14 -37 -4 -2 -19
-21 -32 -42 -35 -58 -8 -35 35 29 20 30 33 60 30 65 -3 6 0 10 8 10 8 0 24 23
36 51 13 28 25 49 27 46 3 -3 -2 -19 -11 -37 -9 -18 -14 -34 -12 -36 3 -3 19
28 36 68 30 69 33 66 15 -17 -10 -48 30 57 47 124 14 56 19 110 19 218 0 136
-1 143 -20 143 -11 0 -20 5 -20 10 0 6 -4 10 -8 10 -4 0 -4 -37 0 -82 5 -46 6
-126 2 -178 -5 -93 -30 -210 -44 -210 -3 0 2 33 12 73 15 54 19 104 18 202 -1
146 -4 192 -13 202 -4 3 -2 12 4 20 9 10 8 13 -1 13 -7 0 -10 8 -7 20 3 13 1
18 -6 13 -6 -4 -8 2 -5 15 4 14 2 20 -4 16 -6 -4 -8 2 -3 16 4 14 3 20 -3 16
-12 -7 -25 22 -15 36 4 7 1 8 -7 3 -10 -6 -12 -4 -7 9 5 11 3 15 -5 10 -8 -5
-9 -2 -5 10 5 11 3 15 -5 10 -8 -5 -9 -2 -5 10 4 10 3 15 -3 11 -9 -6 -14 8
-11 28 1 5 -3 6 -9 2 -5 -3 -11 -1 -11 4 -1 6 -2 16 -3 21 0 6 -5 10 -9 9 -12
-1 -67 52 -64 61 1 5 -1 8 -6 9 -4 0 -28 12 -55 25 -26 14 -59 28 -75 32 -23
5 -26 4 -20 -12z"/>
<path d="M6050 4430 c-9 -5 -5 -18 15 -48 51 -77 90 -191 110 -324 3 -21 10
-38 15 -38 5 0 16 -24 25 -52 33 -113 50 -128 150 -128 96 0 129 10 153 46 12
19 22 43 22 54 0 11 6 36 14 54 12 28 12 47 0 127 -8 52 -19 108 -24 125 -10
30 -14 32 -78 39 -139 14 -226 44 -324 109 -39 26 -70 41 -78 36z"/>
<path d="M6587 4294 c-7 -7 3 -76 14 -89 4 -6 4 -17 -1 -25 -6 -8 -9 -22 -9
-30 0 -8 5 -3 11 13 5 15 14 24 20 21 7 -4 7 -9 0 -13 -5 -3 -12 -26 -15 -51
-5 -34 -4 -39 3 -20 7 18 8 5 5 -45 -3 -53 -2 -61 4 -30 l8 40 2 -50 c2 -27 4
-65 5 -82 2 -20 -2 -33 -9 -33 -8 0 -14 -26 -18 -67 -6 -74 -62 -290 -103
-399 -95 -254 -283 -447 -528 -539 -80 -30 -230 -55 -334 -55 -77 0 -244 22
-302 40 -19 6 -63 15 -97 20 -48 6 -77 17 -123 48 -33 23 -58 37 -55 32 3 -4
-37 33 -87 83 -51 51 -92 95 -91 98 1 3 -10 19 -25 36 -15 17 -28 37 -30 44
-2 8 -10 19 -17 25 -8 6 -12 14 -8 17 3 4 1 7 -6 7 -7 0 -10 4 -6 9 3 5 -2 16
-10 25 -9 8 -16 18 -15 21 1 25 -1 29 -11 15 -8 -12 -10 -9 -6 13 2 15 0 30
-4 33 -5 3 -9 -2 -9 -11 0 -13 -7 -11 -35 11 -19 14 -41 24 -48 21 -8 -3 -22
-36 -31 -74 -57 -225 -231 -388 -496 -464 -80 -23 -316 -49 -449 -49 -143 0
-361 26 -471 56 -52 14 -114 27 -137 29 -45 3 -120 45 -163 90 -12 13 -27 22
-33 18 -6 -3 -7 -1 -4 4 4 6 -11 27 -32 46 -22 20 -37 37 -35 40 2 2 -7 16
-20 30 -14 15 -23 27 -20 27 2 0 -6 21 -20 48 -13 26 -27 63 -31 82 -4 19 -11
40 -16 46 -4 5 -6 20 -2 32 4 18 8 20 19 11 12 -10 14 -1 14 47 0 33 3 84 7
114 l6 55 -24 -17 c-16 -11 -23 -24 -21 -40 1 -12 -1 -18 -5 -12 -10 14 -46
27 -38 14 4 -6 -3 -8 -17 -6 -13 2 -22 9 -20 16 1 6 -2 9 -7 6 -5 -3 -19 6
-31 21 -19 25 -20 25 -9 4 6 -14 24 -35 39 -48 27 -22 28 -27 25 -101 -1 -45
2 -83 9 -91 7 -10 8 -13 0 -8 -7 4 -11 -5 -11 -24 0 -18 3 -25 8 -17 4 7 6 -9
4 -34 -3 -38 -1 -46 11 -41 8 3 14 0 14 -6 0 -6 -4 -11 -10 -11 -5 0 -7 -7 -4
-15 4 -8 11 -12 18 -8 6 4 5 0 -2 -9 -16 -19 -1 -58 22 -58 8 0 19 -7 26 -15
11 -13 10 -14 -4 -9 -11 4 -16 1 -16 -10 0 -9 7 -16 15 -16 8 0 12 -6 9 -14
-3 -7 2 -16 11 -20 10 -3 15 -12 12 -20 -8 -19 22 -58 39 -52 9 3 14 -2 14
-14 0 -11 5 -20 10 -20 6 0 10 5 10 12 0 6 3 8 6 5 4 -4 1 -13 -6 -22 -11 -13
-10 -14 3 -10 8 4 18 2 22 -4 3 -6 1 -11 -5 -11 -6 0 -8 -5 -5 -11 4 -6 14 -8
22 -5 8 3 11 2 8 -4 -3 -5 4 -14 15 -20 16 -9 25 -8 38 2 12 9 11 5 -3 -11
-17 -20 -17 -23 -3 -18 11 4 18 0 21 -11 3 -14 6 -12 16 8 l11 25 -4 -25 c-4
-21 1 -28 37 -44 23 -11 53 -19 65 -18 18 1 22 -3 18 -15 -5 -12 -4 -13 7 -5
8 7 16 9 20 6 3 -3 14 -1 24 5 15 8 20 7 20 -4 0 -8 -4 -12 -8 -9 -4 2 -10 0
-14 -6 -3 -5 -1 -11 4 -11 21 -3 26 -4 40 -13 8 -5 16 -4 22 5 6 11 9 10 15
-4 6 -17 7 -17 21 0 14 17 14 17 9 1 -3 -10 0 -18 7 -19 7 0 21 -2 32 -4 10
-2 25 0 31 6 8 6 14 4 18 -7 4 -9 13 -14 21 -10 8 3 15 2 15 -2 0 -4 20 -7 45
-7 36 0 44 3 39 15 -3 8 4 5 16 -7 24 -26 40 -29 59 -10 11 9 12 9 7 0 -5 -9
-2 -11 8 -7 9 3 13 10 10 15 -8 14 6 11 21 -5 8 -7 11 -17 7 -20 -3 -4 1 -4
11 0 9 3 17 13 17 22 0 13 3 12 14 -4 15 -19 15 -19 30 1 8 11 18 17 22 12 4
-4 2 -7 -4 -7 -7 0 -12 -4 -12 -10 0 -14 38 -12 42 2 4 10 10 10 32 0 15 -7
25 -8 22 -3 -4 5 7 4 23 -2 25 -9 33 -8 49 6 13 12 21 14 29 6 14 -14 77 -24
69 -11 -3 6 1 13 10 16 8 3 12 2 9 -4 -3 -6 -1 -10 4 -10 6 0 11 7 11 15 0 13
4 14 20 5 16 -8 22 -7 32 10 7 11 20 20 30 20 9 0 23 6 30 13 7 7 16 14 20 15
27 8 38 16 38 28 0 8 9 14 20 14 10 0 59 14 107 30 48 17 97 32 109 34 33 5
120 55 175 102 102 88 161 175 196 293 12 42 22 65 22 51 1 -14 -3 -40 -8 -57
-5 -18 -6 -45 -1 -60 6 -20 9 -22 9 -8 1 14 4 16 13 7 8 -8 8 -15 -2 -27 -8
-10 -9 -15 -1 -15 6 0 11 -6 11 -12 1 -7 14 -28 30 -47 16 -19 27 -38 25 -42
-3 -4 8 -13 25 -21 17 -7 29 -19 27 -28 -1 -9 5 -14 15 -12 12 2 16 -2 12 -11
-4 -11 1 -13 19 -10 14 3 28 -1 32 -7 5 -9 1 -10 -14 -5 -18 6 -20 4 -12 -17
4 -13 14 -23 21 -23 6 0 22 -13 35 -29 14 -18 25 -24 29 -17 11 17 26 3 19
-17 -6 -15 -5 -15 10 -3 15 12 17 11 17 -8 0 -27 51 -53 101 -53 27 1 39 -4
42 -16 4 -15 5 -15 6 1 1 15 8 17 40 13 30 -3 44 0 56 14 15 17 15 19 -2 30
-11 7 -12 10 -3 7 9 -3 57 -15 108 -27 51 -12 91 -25 88 -28 -3 -2 3 -21 14
-42 11 -21 17 -40 14 -43 -4 -3 18 -3 48 0 l55 5 2 -103 c1 -76 6 -113 19
-137 9 -17 20 -32 25 -32 4 0 5 -4 2 -10 -3 -5 -1 -10 5 -10 6 0 8 -4 5 -10
-3 -5 -1 -10 6 -10 7 0 10 -3 6 -6 -3 -4 1 -13 9 -21 8 -8 12 -19 9 -24 -4 -5
-1 -9 5 -9 6 0 8 -4 5 -10 -3 -5 -1 -10 6 -10 7 0 10 -3 6 -6 -3 -3 44 -105
104 -226 l109 -221 0 -78 c0 -68 -4 -85 -28 -126 -50 -85 -59 -126 -61 -288
-2 -146 7 -237 26 -256 26 -26 231 -18 353 16 66 18 69 31 69 350 0 247 -2
277 -22 357 l-23 87 27 113 c14 62 24 117 21 123 -3 5 -20 -33 -36 -85 -17
-52 -34 -97 -38 -100 -4 -3 -14 -25 -23 -49 -12 -36 -15 -103 -15 -371 l0
-327 -97 -12 c-54 -7 -107 -15 -118 -17 -20 -5 -20 -1 -17 321 l3 326 -50 117
c-50 118 -271 724 -271 742 0 12 18 16 149 35 59 9 108 12 113 7 5 -5 47 -123
93 -263 47 -140 85 -247 85 -239 -1 22 163 554 172 560 10 7 249 42 254 37 2
-2 -28 -97 -66 -212 -39 -115 -70 -216 -70 -225 1 -8 31 75 69 185 38 110 79
221 91 245 13 25 24 54 26 65 2 11 6 31 10 44 5 16 4 22 -4 17 -6 -3 -48 -11
-94 -16 -46 -6 -96 -13 -113 -16 -27 -4 -28 -4 -12 9 9 8 17 22 17 31 0 9 7
16 15 16 9 0 12 6 9 15 -5 11 -2 13 12 8 13 -5 16 -3 11 10 -4 11 -1 17 8 17
8 0 24 10 35 22 18 20 19 24 5 34 -8 6 -15 15 -15 19 0 4 7 1 16 -6 14 -11 19
-9 34 11 10 14 16 28 14 32 -3 4 0 8 7 8 6 0 9 8 6 19 -3 12 1 22 10 25 9 4
12 13 8 25 -3 11 0 23 6 27 8 5 10 3 4 -7 -4 -8 4 -1 18 16 19 22 23 35 16 52
-7 20 10 50 23 38 2 -3 5 1 5 7 2 43 14 97 27 122 10 21 12 35 5 48 -6 10 -6
18 0 18 10 0 23 56 26 115 2 22 4 40 5 40 1 0 3 10 4 22 1 12 -2 20 -7 16 -5
-3 -7 5 -6 18 2 13 0 30 -5 38 -5 8 -4 16 4 21 7 4 14 23 16 41 2 22 1 29 -5
20 -6 -9 -11 -10 -15 -2 -4 6 -5 15 -2 20 3 5 8 33 10 63 3 29 2 45 0 36 -3
-10 -13 -18 -22 -18 -13 0 -14 2 -4 8 8 5 10 16 6 27 -6 14 -4 16 6 10 9 -5
11 -4 6 4 -4 6 -10 35 -12 63 -3 29 -8 55 -12 58 -4 3 -8 14 -8 25 -3 38 -10
63 -23 79 -7 8 -10 24 -6 36 6 19 -4 27 -18 14z"/>
<path d="M7631 3785 c-11 -17 -21 -36 -21 -42 0 -18 138 -70 241 -92 l94 -20
-66 2 c-37 1 -65 5 -62 10 2 4 -3 7 -11 7 -9 0 -16 -4 -16 -10 0 -5 -4 -10
-10 -10 -5 0 -7 7 -3 16 5 14 1 16 -20 12 -14 -3 -28 0 -30 5 -2 6 -6 3 -10
-6 -5 -13 1 -21 21 -28 52 -21 96 -28 109 -18 14 12 36 2 28 -12 -9 -14 19
-11 34 4 11 10 13 9 8 -5 -6 -18 9 -27 35 -20 10 2 15 9 11 16 -3 6 4 1 16
-11 22 -24 51 -31 51 -13 0 6 -6 10 -14 10 -8 0 -17 4 -20 9 -9 14 14 7 62
-17 29 -16 42 -19 42 -10 0 9 3 8 10 -2 8 -13 11 -12 25 5 12 16 14 17 9 3 -3
-10 -1 -18 5 -18 6 0 11 5 11 10 0 6 4 10 10 10 5 0 7 -7 4 -15 -5 -11 1 -15
25 -15 17 0 31 5 31 11 0 8 6 7 17 -2 15 -12 16 -12 8 1 -7 12 -6 13 6 3 16
-13 36 -12 58 1 11 7 13 5 8 -7 -7 -20 4 -22 21 -5 7 7 12 8 12 2 0 -5 8 -10
18 -11 9 -1 29 -4 45 -7 17 -4 27 -2 27 5 0 8 4 8 14 0 11 -10 17 -8 25 6 10
17 10 17 11 0 0 -22 26 -33 44 -18 10 8 16 8 26 -4 15 -18 50 -20 50 -3 0 6 6
3 14 -8 8 -10 18 -15 23 -11 4 5 0 13 -10 18 -9 6 -15 13 -13 17 3 4 -3 8 -12
9 -32 1 -147 31 -127 32 11 1 45 -5 74 -13 52 -13 58 -13 128 13 152 54 67 88
-327 131 -321 34 -430 50 -540 76 -186 45 -174 45 -199 9z"/>
<path d="M3508 3800 c-83 -15 -202 -59 -254 -94 -86 -58 -131 -150 -106 -216
8 -20 25 -31 78 -48 38 -13 74 -26 80 -28 7 -3 14 13 19 43 9 59 24 89 67 130
61 58 218 116 303 112 11 -1 -2 -5 -30 -10 -113 -20 -238 -66 -207 -77 7 -2
19 1 26 7 7 6 20 9 29 5 8 -3 18 -1 21 4 3 5 17 8 32 6 19 -2 24 1 20 12 -6
15 9 20 19 5 3 -6 13 -10 23 -10 9 -1 50 -3 90 -5 57 -4 74 -1 79 10 3 8 9 14
14 14 4 0 6 -6 3 -14 -3 -8 4 -16 18 -20 33 -8 40 -7 33 4 -3 6 1 10 9 10 9 0
15 -5 14 -12 -2 -7 8 -13 22 -13 14 -1 41 -10 60 -20 19 -10 40 -19 45 -19 6
-1 23 -13 39 -29 15 -15 32 -24 38 -21 8 5 9 1 5 -10 -4 -10 -3 -15 3 -11 6 3
10 2 10 -2 0 -5 12 -16 28 -25 18 -12 22 -18 10 -18 -9 0 -18 5 -20 12 -3 9
-6 9 -12 0 -4 -7 -2 -12 3 -12 6 0 11 -7 11 -16 0 -9 8 -23 18 -30 16 -13 16
-15 0 -28 -10 -7 -18 -20 -18 -28 0 -8 -5 -19 -11 -25 -9 -9 -7 -10 10 -6 11
3 21 6 21 7 0 0 10 26 20 56 18 49 20 51 16 17 -3 -22 -1 -35 5 -32 5 4 9 -2
9 -12 1 -17 1 -17 15 1 29 39 31 151 2 140 -7 -2 -19 16 -30 46 -10 27 -22 50
-28 50 -6 0 -8 4 -5 8 8 13 -51 65 -63 57 -7 -3 -10 -2 -9 3 2 5 -19 29 -45
52 -73 64 -138 82 -327 86 -85 1 -176 -1 -202 -6z"/>
<path d="M9305 3663 c4 -10 9 -79 10 -153 2 -107 1 -118 -4 -55 -4 46 -8 63
-9 40 -1 -23 -6 -45 -11 -50 -5 -6 -16 -39 -25 -75 -45 -179 -150 -316 -306
-399 -146 -78 -394 -131 -610 -131 -79 0 -281 20 -360 36 -56 11 -60 19 -60
105 0 44 -3 79 -7 79 -5 0 -87 -11 -184 -26 l-177 -26 -21 21 c-45 45 -83 38
-178 -29 -36 -27 -45 -29 -67 -19 -20 10 -26 19 -26 46 0 38 -21 44 -70 18
-56 -29 -55 -9 -58 -696 l-3 -636 -77 -12 c-42 -7 -91 -15 -109 -18 l-32 -5
-3 621 c-3 533 -5 623 -18 631 -21 13 -87 1 -149 -26 -29 -13 -82 -29 -117
-36 -76 -14 -71 -2 -78 -183 -3 -85 -15 -185 -35 -290 -17 -88 -33 -178 -37
-200 -13 -75 -17 -886 -4 -942 11 -50 13 -53 53 -64 47 -13 107 -7 387 35 91
13 185 27 210 31 25 3 68 10 95 15 28 6 97 16 155 25 58 8 179 26 270 39 91
14 185 28 210 31 79 11 122 23 138 38 36 37 39 364 3 400 -26 26 -220 17 -388
-19 -23 -4 -23 -3 -23 100 l0 103 108 17 c146 23 180 33 194 59 14 25 22 291
9 282 -9 -5 -34 47 -34 71 0 7 -5 10 -10 7 -6 -4 -8 1 -4 11 4 9 3 15 -2 12
-5 -3 -12 1 -15 10 -6 17 -62 16 -199 -2 l-48 -6 3 103 c2 83 6 104 18 106 8
1 36 4 61 8 35 4 48 11 52 25 3 11 2 20 -2 20 -4 0 -8 6 -8 13 0 6 -4 20 -8
30 -6 15 -1 17 45 17 28 0 59 -4 68 -9 9 -5 49 -11 89 -14 39 -3 82 -11 95
-18 12 -7 27 -13 31 -14 5 0 15 -9 23 -19 8 -12 14 -15 14 -7 0 11 3 11 16 0
10 -8 18 -9 22 -3 9 13 52 13 52 1 0 -5 7 -6 16 -3 8 3 12 2 9 -3 -3 -6 8 -9
25 -9 16 1 30 4 30 7 0 4 9 7 20 7 11 0 20 -4 20 -8 0 -4 16 -7 35 -6 19 1 35
5 35 10 0 4 4 8 10 8 5 0 7 -7 4 -15 -5 -11 -2 -14 12 -9 11 4 25 12 33 18 11
8 13 8 8 0 -8 -14 59 -17 84 -3 14 7 19 6 19 -3 0 -9 3 -9 12 0 15 15 32 16
22 1 -5 -8 -1 -8 14 0 11 6 28 8 36 5 9 -3 16 -2 16 2 0 5 12 10 28 10 69 4
93 8 98 16 3 4 10 5 16 2 7 -5 9 -1 5 9 -4 11 -2 14 9 10 8 -3 14 1 14 8 0 11
2 11 8 1 5 -7 19 -10 33 -8 13 3 28 5 33 5 4 1 5 8 2 17 -5 14 -4 15 8 5 16
-13 42 -6 50 15 3 7 12 11 19 8 8 -3 17 2 21 11 4 11 12 15 22 11 22 -8 86 24
80 40 -3 8 0 11 10 7 8 -3 14 1 14 11 0 9 6 13 14 10 22 -8 52 29 47 59 -2 11
14 8 28 -5 11 -11 13 -10 8 5 -4 9 -3 17 2 17 4 0 17 8 29 18 14 13 18 22 11
33 -5 8 -9 19 -9 24 0 6 4 4 8 -3 5 -7 16 -10 26 -6 12 5 14 10 6 19 -8 10 -5
17 11 28 11 9 18 20 14 26 -3 6 1 11 10 11 9 0 15 6 12 13 -2 6 3 17 12 23 13
10 13 14 2 28 -12 14 -12 16 2 11 16 -7 33 27 22 45 -3 5 -1 10 4 10 15 0 14
50 -1 50 -7 0 -4 7 7 16 15 11 17 17 7 23 -9 5 -10 15 -4 32 5 13 10 59 10
102 0 68 -1 77 -14 66 -12 -10 -15 -10 -12 2 2 8 7 17 12 21 6 4 5 12 -2 21
-7 7 -9 17 -5 20 3 4 2 7 -4 7 -6 0 -9 8 -6 18 6 23 -13 72 -28 72 -7 0 -8 -7
-4 -17z m-1383 -731 l3 -119 -200 -31 c-110 -18 -208 -32 -217 -32 -17 0 -18
-17 -18 -210 0 -115 1 -210 3 -210 1 0 73 11 160 24 l157 23 0 -127 0 -127
-109 -17 c-60 -9 -132 -19 -159 -23 l-49 -5 -7 -97 c-9 -136 -7 -294 3 -310 8
-12 41 -9 212 18 112 17 208 31 212 31 4 0 6 -53 5 -117 l-3 -117 -314 -47
c-172 -26 -321 -49 -331 -52 -17 -4 -18 29 -25 577 -4 319 -3 673 1 786 l9
204 320 47 c176 25 325 47 332 48 8 1 13 -33 15 -117z m-1106 -717 l-4 -665
22 5 c36 8 353 55 370 55 14 0 16 -17 16 -114 l0 -114 -32 -6 c-18 -3 -154
-24 -303 -46 -148 -22 -279 -42 -290 -45 -20 -4 -20 1 -20 778 l0 782 90 16
c50 9 105 17 122 18 l33 1 -4 -665z"/>
<path d="M7570 2979 c-168 -26 -306 -48 -307 -49 -5 0 -3 -1520 2 -1520 2 0
137 20 298 45 162 25 304 45 316 45 20 0 21 5 21 100 0 55 -4 100 -9 100 -5 0
-98 -14 -207 -31 -189 -29 -199 -30 -211 -13 -18 25 -19 413 0 436 8 10 43 20
97 27 47 7 113 17 148 23 l62 10 0 97 0 98 -145 -22 c-134 -19 -147 -20 -160
-5 -21 23 -22 422 -1 439 11 9 369 71 414 71 9 0 12 27 12 100 0 74 -3 100
-12 99 -7 -1 -150 -23 -318 -50z"/>
<path d="M6725 2850 c-22 -4 -61 -11 -87 -14 l-48 -7 0 -760 c0 -491 3 -759
10 -759 10 0 508 75 568 85 l32 6 0 94 c0 69 -3 95 -12 95 -7 0 -89 -12 -181
-26 -93 -14 -179 -23 -193 -20 l-24 6 0 655 c0 518 -3 655 -12 654 -7 -1 -31
-5 -53 -9z"/>
<path d="M8779 3452 c-36 -15 -64 -32 -62 -38 2 -6 -3 -30 -10 -53 -8 -22 -12
-41 -8 -41 14 0 136 43 148 52 7 6 13 3 16 -9 6 -26 37 47 37 87 0 26 -3 30
-27 29 -16 0 -58 -13 -94 -27z"/>
<path d="M7696 3340 c-16 -5 -11 -11 30 -38 99 -63 300 -132 424 -145 l55 -6
-63 14 c-69 16 -105 32 -98 44 3 4 -27 16 -66 26 -40 10 -115 39 -167 65 -63
31 -103 45 -115 40z"/>
<path d="M10912 3173 c-6 -10 -11 -58 -13 -107 l-4 -89 65 -34 c36 -19 83 -45
105 -58 56 -32 58 -32 61 -10 16 121 23 209 16 214 -4 3 -29 21 -54 39 -26 18
-59 32 -75 32 -16 0 -33 4 -38 9 -22 20 -54 22 -63 4z"/>
<path d="M6381 2800 c-86 -12 -105 -19 -112 -35 -5 -11 -43 -137 -85 -280 -42
-143 -79 -264 -83 -268 -23 -24 -43 19 -119 256 l-82 253 -110 -16 c-61 -10
-112 -19 -115 -21 -2 -3 11 -45 29 -94 18 -50 88 -239 155 -420 l121 -330 0
-313 c0 -226 3 -312 11 -312 7 0 52 5 100 12 l89 12 0 320 0 321 155 464 c85
256 154 465 152 466 -1 0 -49 -6 -106 -15z"/>
<path d="M5177 2744 c-1 -2 -25 -6 -52 -9 -28 -4 -57 -8 -65 -10 -8 -2 -40 -7
-70 -10 -30 -4 -82 -12 -115 -18 -54 -11 -62 -16 -77 -47 -10 -19 -21 -35 -25
-35 -5 0 -35 9 -68 19 -72 23 -242 26 -325 6 -114 -26 -142 -44 -180 -115 -19
-36 -39 -65 -43 -65 -5 0 -6 -4 -3 -9 4 -5 2 -11 -3 -13 -13 -5 -101 -185 -94
-192 4 -3 1 -6 -6 -6 -7 0 -9 -4 -6 -10 3 -5 1 -10 -6 -10 -7 0 -10 -3 -7 -6
4 -3 -2 -24 -13 -47 -42 -93 -15 -266 60 -381 37 -57 144 -164 204 -205 12 -8
36 -26 53 -40 16 -14 46 -37 65 -51 67 -49 99 -91 99 -130 0 -25 -7 -43 -21
-56 -21 -19 -21 -18 -39 4 -10 12 -24 47 -30 77 -14 67 -27 81 -84 89 -49 8
-76 5 -212 -25 -133 -29 -129 -25 -129 -166 0 -97 5 -130 23 -183 40 -113 98
-182 190 -227 51 -24 71 -27 187 -31 147 -5 217 8 320 58 114 55 209 188 240
335 19 91 19 235 0 309 -38 144 -146 284 -303 391 -134 92 -190 164 -177 231
5 30 8 33 25 24 11 -6 20 -20 20 -31 0 -11 7 -33 15 -49 12 -23 23 -29 62 -34
64 -9 104 -3 221 33 108 34 132 52 132 99 0 34 22 52 64 52 l25 0 3 -622 c2
-466 6 -628 15 -644 11 -19 22 -22 101 -23 96 -2 277 23 299 40 7 6 17 27 23
47 14 53 14 1079 -1 1188 -14 105 -6 127 51 150 22 9 40 22 40 30 0 8 8 14 17
14 9 0 14 3 10 6 -3 3 -49 -1 -102 -10 -53 -9 -99 -15 -103 -12 -4 2 -9 -294
-11 -657 -2 -364 -5 -663 -6 -665 -2 -2 -45 -10 -96 -18 -52 -8 -103 -16 -114
-19 -20 -4 -20 0 -16 228 5 377 -9 1098 -23 1090 -6 -4 -61 -14 -123 -23
l-113 -17 0 127 0 127 48 6 c37 5 289 41 557 80 17 3 1 5 -35 5 -43 0 -85 7
-125 22 -55 21 -141 41 -148 34z m-558 -195 c104 -22 184 -102 216 -214 28
-101 34 -93 -95 -137 -63 -21 -117 -38 -121 -38 -3 0 -11 24 -18 54 -22 101
-81 137 -158 100 -46 -23 -75 -71 -84 -142 -16 -116 45 -218 193 -323 141
-100 208 -172 260 -276 39 -79 42 -90 42 -166 -1 -189 -92 -352 -235 -419
-109 -51 -252 -61 -342 -23 -87 36 -156 125 -181 235 -23 95 -21 128 7 135
149 34 192 43 198 39 3 -2 9 -22 12 -44 8 -59 45 -129 81 -152 81 -50 204 31
222 147 15 103 -35 177 -213 319 -171 137 -226 195 -267 281 -58 121 -56 263
4 392 80 172 289 273 479 232z"/>
<path d="M4409 2517 c-137 -39 -246 -159 -279 -308 -7 -33 -11 -93 -8 -145 7
-148 53 -213 273 -389 78 -63 156 -130 173 -149 69 -79 82 -219 26 -299 -39
-56 -110 -92 -161 -82 -63 12 -143 122 -143 198 0 11 -5 17 -13 14 -7 -2 -48
-12 -92 -22 -44 -10 -83 -20 -87 -24 -10 -9 11 -120 32 -167 25 -58 96 -133
146 -155 127 -57 329 -14 435 92 23 23 57 75 77 117 36 75 37 80 37 197 0 117
-1 122 -35 190 -42 84 -116 161 -230 241 -105 73 -173 143 -207 211 -55 114
-20 258 74 304 82 40 158 3 183 -88 7 -25 18 -47 24 -49 6 -2 49 9 96 25 l85
28 -2 41 c-2 48 -34 127 -66 160 -44 48 -95 66 -197 69 -56 2 -114 -2 -141
-10z"/>
<path d="M5240 2626 l-335 -52 -3 -97 c-2 -69 1 -97 9 -97 6 0 56 7 111 16 55
8 106 13 114 10 12 -5 14 -102 14 -661 0 -360 4 -655 8 -655 5 0 35 5 68 10
32 6 74 13 92 16 l32 5 0 653 c0 529 3 656 13 664 11 9 189 42 227 42 6 0 10
40 10 100 0 74 -3 100 -12 99 -7 -1 -164 -25 -348 -53z"/>
<path d="M8645 2089 c-34 -17 -47 -46 -40 -93 5 -34 12 -44 36 -55 60 -26 123
4 135 65 8 43 -35 94 -79 93 -18 0 -41 -5 -52 -10z"/>
<path d="M2423 1794 c-4 -10 0 -20 10 -25 9 -5 24 -17 33 -27 16 -15 16 -17 2
-20 -9 -2 -21 -16 -27 -33 -12 -34 -19 -36 -37 -11 -13 16 -13 16 -14 -3 -1
-23 -27 -216 -39 -295 -16 -96 -14 -118 14 -136 46 -30 60 -14 60 76 1 67 4
84 21 101 l21 20 -2 -36 c-1 -19 -5 -39 -9 -42 -3 -3 -6 -15 -6 -26 0 -16 5
-19 29 -14 34 7 45 -1 28 -21 -10 -13 -8 -14 13 -7 50 15 68 24 75 34 3 6 17
11 31 11 13 0 24 4 24 9 0 5 9 12 19 16 12 4 18 12 14 21 -3 8 0 21 6 28 14
17 4 66 -14 66 -7 0 -18 -7 -25 -15 -7 -8 -18 -15 -24 -15 -6 0 -42 -16 -81
-35 -38 -19 -71 -35 -72 -35 0 0 1 8 3 18 7 29 25 205 24 235 0 15 2 27 4 27
3 0 44 -26 93 -58 123 -81 173 -106 187 -92 8 8 1 18 -24 38 -76 59 -119 104
-122 130 -2 20 -22 39 -78 79 -78 55 -125 68 -137 37z"/>
<path d="M11445 1055 c-44 -8 -102 -14 -128 -14 -40 -1 -50 -5 -54 -20 -5 -20
-51 -33 -119 -33 -22 0 -34 -5 -34 -13 0 -17 -26 -25 -79 -28 -32 -1 -41 -5
-41 -19 0 -10 -4 -18 -10 -18 -5 0 -10 -7 -10 -15 0 -9 -9 -15 -25 -15 -20 0
-25 -5 -25 -25 0 -14 -4 -25 -10 -25 -5 0 -7 -13 -3 -30 4 -23 2 -30 -11 -30
-9 0 -16 -7 -16 -16 0 -11 6 -14 20 -9 18 6 20 2 20 -50 0 -31 4 -54 9 -51 5
3 21 -6 35 -19 15 -14 32 -23 37 -20 5 4 9 -1 9 -9 0 -9 7 -16 15 -16 8 0 15
-5 15 -11 0 -7 10 -9 25 -5 18 5 25 2 25 -8 0 -10 6 -13 15 -10 9 4 15 0 15
-10 0 -9 7 -16 15 -16 8 0 15 -7 15 -16 0 -10 6 -14 15 -10 8 3 15 1 15 -4 0
-6 11 -10 25 -10 14 0 25 -5 25 -11 0 -6 7 -9 15 -5 9 3 15 0 15 -9 0 -8 7
-15 15 -15 8 0 15 -7 15 -15 0 -8 7 -15 15 -15 8 0 15 -5 15 -11 0 -7 11 -9
30 -6 22 5 30 3 30 -8 0 -8 7 -15 15 -15 8 0 15 -5 15 -11 0 -5 4 -8 9 -5 5 3
12 -1 15 -10 4 -10 13 -13 26 -9 13 4 22 1 26 -9 3 -9 12 -16 20 -16 8 0 14
-7 14 -15 0 -9 6 -12 15 -9 10 4 15 0 15 -10 0 -12 6 -15 25 -10 19 5 25 2 25
-10 0 -19 5 -20 31 -6 15 9 19 7 19 -6 0 -14 7 -16 38 -10 20 3 52 6 70 6 22
0 32 5 32 15 0 8 5 15 10 15 6 0 10 6 10 14 0 8 10 16 23 18 17 2 21 9 19 31
-2 20 2 27 14 27 9 0 14 6 11 13 -3 8 -11 58 -18 112 -10 80 -16 99 -31 103
-13 3 -18 14 -18 38 0 27 -4 34 -20 34 -16 0 -20 7 -21 33 -1 17 -3 39 -4 47
-1 8 -3 30 -4 48 -1 21 -6 32 -16 32 -8 0 -16 6 -16 13 -3 23 -6 52 -7 80 -2
20 -7 27 -22 27 -13 0 -20 7 -20 20 0 11 -7 20 -15 20 -10 0 -15 10 -15 30 0
31 -6 36 -28 21 -9 -5 -23 0 -39 15 -29 27 -27 27 -138 9z"/>
</g>
</svg>
