<?xml version="1.0" standalone="no"?>
<!DOCTYPE svg PUBLIC "-//W3C//DTD SVG 20010904//EN"
 "http://www.w3.org/TR/2001/REC-SVG-20010904/DTD/svg10.dtd">
<svg version="1.0" xmlns="http://www.w3.org/2000/svg"
 width="344.000000pt" height="590.000000pt" viewBox="0 0 344.000000 590.000000"
 preserveAspectRatio="xMidYMid meet">
<metadata>
Created by potrace 1.16, written by Peter Selinger 2001-2019
</metadata>
<g transform="translate(0.000000,590.000000) scale(0.100000,-0.100000)"
fill="#000000" stroke="none">
<path d="M1244 5812 c-100 -35 -173 -107 -227 -221 -44 -93 -46 -143 -9 -222
65 -137 92 -203 92 -225 0 -13 -21 -47 -50 -80 -46 -53 -64 -94 -40 -94 6 0
41 32 79 71 l68 71 7 -29 c12 -48 34 -73 65 -73 21 0 30 -6 34 -21 5 -18 12
-21 37 -17 31 5 31 5 25 -33 -6 -32 -3 -38 14 -44 12 -3 25 -4 30 -1 5 4 25
-3 45 -15 42 -25 67 -20 115 25 l34 31 -7 -52 c-4 -28 -29 -122 -57 -209 -27
-86 -55 -189 -61 -228 -7 -39 -20 -82 -30 -95 -10 -13 -18 -39 -18 -59 0 -19
-18 -91 -40 -160 -35 -109 -58 -199 -112 -431 -9 -37 -21 -60 -39 -73 -14 -11
-115 -46 -225 -78 -298 -88 -424 -134 -582 -211 -265 -130 -333 -237 -271
-421 41 -123 144 -271 417 -600 162 -196 198 -228 255 -228 46 0 65 -30 123
-195 75 -216 133 -331 261 -520 130 -192 166 -222 306 -256 67 -17 92 -27 103
-45 14 -21 14 -25 -6 -52 -29 -39 -23 -71 20 -100 19 -13 44 -42 56 -64 26
-50 160 -201 193 -217 19 -10 35 -8 86 10 61 22 63 22 108 5 123 -47 207 -175
247 -378 12 -62 32 -93 68 -103 18 -5 30 1 58 32 104 112 117 202 94 683 -19
390 -34 422 -180 386 -72 -17 -210 -22 -210 -7 0 26 -87 103 -159 140 -58 30
-95 58 -131 99 -123 141 -192 254 -209 346 -7 40 -3 79 25 220 38 189 41 231
20 239 -8 3 -42 9 -75 13 -34 3 -61 11 -61 15 0 25 130 263 213 390 169 258
275 471 346 691 39 124 45 151 86 389 34 198 52 257 122 408 l39 84 56 -99
c31 -55 108 -205 170 -334 63 -129 134 -266 159 -305 45 -72 203 -272 283
-360 65 -72 88 -122 85 -190 -3 -65 11 -87 39 -62 14 13 21 14 30 5 7 -7 12
-18 12 -26 0 -34 36 1 82 80 82 143 79 247 -11 333 -59 56 -92 114 -122 215
-12 41 -37 109 -54 150 -29 66 -375 671 -558 973 -61 102 -79 140 -123 260
-27 75 -62 116 -195 228 l-123 104 -77 6 c-42 4 -97 16 -122 27 -100 44 -187
167 -237 332 -37 127 -107 176 -260 185 -56 4 -88 0 -126 -13z"/>
</g>
</svg>
