<?xml version="1.0" standalone="no"?>
<!DOCTYPE svg PUBLIC "-//W3C//DTD SVG 20010904//EN"
 "http://www.w3.org/TR/2001/REC-SVG-20010904/DTD/svg10.dtd">
<svg version="1.0" xmlns="http://www.w3.org/2000/svg"
 width="790.000000pt" height="568.000000pt" viewBox="0 0 790.000000 568.000000"
 preserveAspectRatio="xMidYMid meet">
<metadata>
Created by potrace 1.16, written by Peter Selinger 2001-2019
</metadata>
<g transform="translate(0.000000,568.000000) scale(0.100000,-0.100000)"
fill="#000000" stroke="none">
<path d="M1530 5645 c-52 -39 -163 -95 -235 -119 -71 -23 -77 -36 -53 -126 43
-169 46 -388 6 -414 -24 -15 -52 3 -56 37 -2 18 7 37 34 67 20 22 34 43 31 46
-12 13 -49 -10 -72 -44 -41 -61 -31 -119 25 -142 28 -11 34 -11 58 7 23 17 28
31 35 89 8 64 -5 272 -19 308 -4 10 10 19 48 31 65 22 179 75 234 109 l42 26
12 -68 c13 -78 30 -222 30 -269 0 -22 -5 -33 -15 -33 -46 0 -95 -51 -95 -100
0 -25 42 -70 65 -70 9 0 30 13 46 29 28 28 29 33 29 121 0 197 -61 551 -94
549 -6 0 -31 -16 -56 -34z m59 -52 c9 -32 8 -40 -7 -51 -44 -34 -300 -151
-306 -140 -1 2 -7 19 -13 40 l-11 36 87 31 c47 17 118 51 156 76 39 24 73 45
77 45 4 0 12 -17 17 -37z"/>
<path d="M3330 5585 c-287 -41 -590 -144 -763 -259 -30 -20 -59 -36 -65 -36
-12 0 -14 -5 -37 -119 -9 -41 -13 -76 -10 -79 2 -3 -23 -21 -58 -41 -86 -50
-212 -179 -267 -274 l-45 -78 -45 8 c-103 18 -160 11 -250 -33 -208 -100 -379
-295 -456 -519 -25 -70 -28 -95 -28 -205 -1 -104 3 -137 22 -200 30 -93 71
-175 133 -266 27 -39 49 -76 49 -83 0 -21 -41 -95 -71 -127 -26 -27 -28 -34
-19 -58 9 -24 6 -34 -20 -72 -144 -208 -212 -527 -211 -994 0 -603 123 -1076
375 -1445 234 -343 570 -539 1016 -594 107 -14 544 -14 760 -1 1225 75 2007
400 2428 1008 130 188 221 384 342 737 146 425 224 538 408 595 119 37 269 21
486 -51 198 -66 501 -209 780 -366 55 -32 81 -42 89 -34 6 6 9 13 6 15 -9 9
-338 190 -419 231 -206 103 -430 188 -611 232 -101 24 -305 24 -369 0 -114
-44 -207 -139 -274 -281 -19 -40 -64 -158 -101 -262 -98 -281 -151 -416 -216
-546 -294 -593 -821 -952 -1664 -1133 -399 -86 -749 -119 -1265 -119 -360 -1
-392 0 -495 21 -247 50 -435 136 -613 279 -277 222 -477 590 -571 1049 -44
216 -62 414 -62 670 -1 284 23 496 78 685 27 98 111 276 142 304 30 27 26 6
-13 -72 -65 -129 -122 -337 -158 -577 -21 -145 -18 -668 6 -820 126 -822 547
-1346 1191 -1485 196 -43 642 -38 1080 11 1129 125 1826 454 2209 1042 116
177 206 398 315 767 68 231 130 359 211 434 89 82 145 100 300 100 104 0 143
-4 235 -28 224 -58 486 -164 849 -346 192 -96 236 -115 236 -100 0 14 -58 48
-237 138 -368 185 -588 274 -838 338 -94 24 -130 28 -250 28 l-141 1 -76 -38
c-152 -74 -212 -178 -338 -582 -137 -436 -205 -585 -374 -810 -388 -517 -1149
-832 -2251 -929 -577 -51 -805 -41 -1075 45 -519 168 -879 649 -1000 1334 -30
173 -41 314 -41 535 0 374 55 670 171 918 33 69 43 83 57 77 53 -20 67 -16 91
22 13 21 40 58 61 82 l38 45 38 -22 c189 -112 421 -72 651 112 121 97 145 128
183 236 85 244 106 422 67 575 -26 103 -105 261 -159 321 -26 29 -47 55 -47
58 0 10 114 115 174 160 64 48 164 99 181 92 8 -3 71 29 142 70 170 101 387
206 500 243 329 109 676 81 998 -81 149 -76 358 -221 492 -342 33 -31 66 -56
73 -56 25 0 115 -235 139 -365 77 -406 -16 -865 -290 -1434 -43 -90 -79 -168
-79 -172 0 -5 8 -9 18 -9 11 0 27 -9 38 -21 19 -21 19 -21 -64 -100 -45 -43
-98 -90 -116 -104 -32 -24 -34 -25 -76 -10 -103 36 -303 38 -457 5 -267 -58
-499 -218 -655 -447 -98 -147 -172 -322 -203 -484 -27 -144 18 -205 165 -225
46 -6 65 -17 139 -76 95 -76 213 -140 264 -143 17 -1 47 -11 66 -23 77 -47
138 -42 331 30 237 88 370 167 471 276 109 120 141 232 90 315 l-23 38 40 43
c52 57 69 109 53 168 -7 24 -14 66 -17 93 -4 28 -12 65 -19 82 l-14 33 96 92
c52 51 118 121 146 156 34 42 54 59 61 52 22 -22 39 -7 71 65 80 174 168 481
209 725 77 453 46 882 -90 1249 -49 130 -156 338 -207 400 -23 27 -67 85 -97
127 -204 286 -563 499 -990 589 -108 23 -155 27 -345 30 -153 3 -249 0 -315
-10z m500 -25 c257 -31 512 -116 713 -236 232 -139 444 -373 562 -618 236
-494 225 -1060 -32 -1716 -25 -63 -52 -121 -61 -127 -9 -7 -13 -16 -9 -19 4
-4 -2 -23 -12 -43 -10 -20 -35 -71 -55 -115 l-37 -78 -22 18 c-12 10 -34 29
-49 43 l-27 24 48 96 c155 308 262 621 312 908 29 168 31 422 4 563 -68 363
-261 647 -586 866 -219 147 -508 263 -797 321 -134 27 -423 24 -562 -6 -183
-39 -320 -91 -510 -193 -14 -7 -46 -28 -72 -46 -26 -17 -49 -32 -51 -32 -2 0
-22 -16 -43 -35 -21 -19 -43 -34 -49 -31 -12 4 -12 1 5 84 13 61 15 65 69 101
189 128 532 243 821 274 78 8 361 6 440 -3z m-287 -175 c30 -30 58 -55 61 -55
17 0 2 34 -30 70 -31 34 -33 40 -17 40 12 0 36 -20 59 -50 37 -46 64 -63 64
-39 0 6 -12 26 -26 45 -15 19 -24 37 -21 40 3 3 34 -17 70 -45 36 -28 70 -51
76 -51 22 0 10 25 -24 50 -42 30 -44 39 -8 32 27 -5 90 -60 111 -97 8 -16 13
-17 23 -8 9 9 6 20 -15 48 -21 27 -24 35 -11 35 9 0 18 -7 21 -15 9 -22 105
-88 115 -78 10 10 2 22 -36 52 -19 16 -23 22 -10 17 11 -4 32 -10 48 -13 16
-3 27 -12 27 -22 0 -25 58 -77 70 -65 7 7 4 19 -10 37 -12 15 -19 27 -16 27
15 0 86 -33 81 -38 -6 -6 65 -82 77 -82 14 0 9 33 -8 51 -16 17 -15 18 15 6
17 -6 31 -15 31 -19 0 -4 16 -26 37 -48 25 -29 39 -38 47 -30 7 7 6 14 -2 22
-7 7 -12 16 -12 20 0 17 46 -16 97 -69 48 -50 72 -58 57 -18 -6 14 0 13 34 -6
23 -13 42 -31 42 -40 0 -21 47 -52 65 -45 21 8 177 -135 257 -233 37 -47 66
-87 63 -89 -2 -3 -30 18 -62 45 -204 176 -433 311 -652 383 -414 138 -786 69
-1316 -243 l-110 -65 -61 67 c-34 36 -95 90 -137 120 l-75 54 28 24 29 24 43
-22 c24 -11 94 -55 156 -96 79 -53 116 -73 124 -65 11 11 -89 86 -209 156 -40
22 -73 44 -73 49 0 4 14 16 32 27 29 17 33 18 62 3 52 -27 138 -88 200 -143
38 -33 62 -48 68 -42 6 6 6 16 2 25 -12 21 -158 132 -216 165 -26 15 -48 30
-48 33 0 3 15 12 33 21 30 14 36 14 81 -4 57 -22 97 -48 147 -95 35 -33 56
-33 43 1 -8 21 -102 91 -153 114 -39 18 -42 21 -24 30 16 9 31 3 84 -32 35
-24 87 -64 116 -90 33 -30 54 -42 58 -35 10 15 -73 97 -140 140 -30 19 -54 37
-55 41 0 4 9 10 20 13 27 9 58 -12 143 -94 44 -43 71 -61 77 -55 13 13 -42 78
-109 130 -35 26 -47 40 -38 46 24 15 38 7 133 -73 61 -51 100 -77 106 -71 10
10 -54 75 -131 135 l-42 32 26 8 c27 9 58 -11 152 -95 47 -42 73 -49 73 -18 0
11 -5 20 -10 20 -18 0 -140 101 -134 111 3 5 19 9 35 9 22 0 48 -16 105 -65
66 -58 94 -72 94 -46 0 4 -29 32 -64 63 -36 31 -62 58 -59 62 4 3 27 6 52 6
42 0 49 -4 109 -65 34 -36 67 -65 72 -65 22 0 7 29 -40 80 -27 30 -50 55 -50
57 0 2 11 3 24 3 16 0 43 -19 79 -55z m-1060 -622 l57 -55 -72 -68 -73 -68
-33 20 c-18 11 -49 28 -69 38 -22 10 -31 20 -24 24 16 10 -13 63 -39 71 -23 7
-24 35 -2 43 7 2 49 -33 94 -78 52 -53 84 -78 90 -72 16 16 -5 44 -87 119 -68
61 -74 70 -62 87 12 16 17 14 71 -40 31 -31 68 -77 82 -101 27 -45 44 -55 44
-26 0 25 -54 103 -109 157 -47 47 -50 51 -34 68 18 20 17 20 166 -119z m-428
-93 l30 -7 -30 -7 c-164 -38 -265 -92 -390 -211 -20 -18 -43 -36 -51 -39 -8
-3 -13 -10 -9 -15 3 -6 -6 -18 -20 -27 -14 -9 -25 -21 -25 -26 0 -5 -22 -46
-50 -91 -96 -158 -143 -340 -120 -467 7 -36 14 -81 17 -100 7 -53 -12 -20 -44
75 -22 68 -26 98 -26 195 -1 103 2 124 30 202 75 214 244 403 444 498 55 26
75 30 139 29 41 -1 89 -5 105 -9z m110 -91 c25 -28 40 -38 47 -31 7 7 4 20
-11 41 -26 36 -23 37 50 15 71 -21 125 -53 177 -107 44 -44 44 -45 28 -75 -20
-39 -20 -52 -1 -52 9 0 20 11 25 25 5 14 12 25 15 25 6 0 60 -107 84 -169 l20
-48 -25 -12 c-30 -13 -21 -35 11 -27 25 6 28 -1 40 -111 10 -83 2 -111 -32
-115 -39 -4 -42 -28 -3 -28 30 0 31 -1 24 -37 -19 -102 -39 -158 -59 -161 -33
-6 -42 -22 -17 -29 25 -6 25 -7 -10 -99 -12 -35 -26 -54 -40 -57 -13 -4 -19
-11 -15 -21 4 -9 -16 -35 -53 -70 -56 -54 -80 -67 -80 -46 0 6 -7 10 -16 10
-12 0 -15 -6 -10 -24 7 -28 -13 -45 -101 -90 -62 -31 -60 -31 -59 -8 2 30 -19
25 -28 -6 -8 -25 -18 -33 -52 -41 -24 -6 -59 -11 -79 -11 -33 0 -35 1 -21 16
17 16 21 36 10 47 -4 4 -22 -9 -40 -29 -33 -34 -35 -35 -75 -24 -22 6 -52 16
-65 22 -21 10 -22 12 -7 23 10 8 14 19 10 30 -5 12 -11 14 -20 7 -32 -25 -54
-23 -97 13 -49 41 -130 137 -130 154 0 6 23 26 50 43 35 21 47 35 40 42 -10
10 -49 -6 -93 -36 -14 -11 -19 -10 -27 2 -24 36 -40 119 -40 202 0 99 -8 91
89 92 24 1 46 6 48 12 4 13 -73 26 -105 17 -12 -3 -22 -2 -22 3 0 13 49 168
58 181 4 7 37 13 77 15 86 4 89 22 5 26 -33 2 -60 5 -60 8 0 19 84 144 100
149 14 4 39 -5 77 -29 52 -33 73 -37 73 -17 0 5 -29 28 -65 51 -65 42 -65 43
-48 64 41 50 78 86 86 86 5 0 36 -18 68 -40 32 -22 63 -40 69 -40 29 0 -6 39
-77 85 l-41 27 54 49 c30 27 61 49 69 49 7 0 33 -23 56 -50 28 -33 46 -47 52
-41 12 12 -31 79 -63 99 -11 7 -18 17 -15 22 11 17 111 64 146 69 4 1 23 -17
44 -40z m3182 -485 c25 -131 27 -155 27 -429 1 -322 -10 -413 -79 -695 -41
-164 -156 -503 -181 -529 -1 -2 -44 34 -93 79 l-90 83 15 29 15 29 60 -51 c32
-29 62 -56 65 -61 7 -12 34 -12 34 0 0 11 -104 112 -130 126 -15 8 -17 14 -8
30 6 11 13 22 15 25 2 2 35 -29 72 -70 53 -57 72 -72 81 -63 9 8 -5 29 -59 88
-66 71 -84 106 -62 119 10 6 71 -60 99 -106 14 -24 52 -40 52 -22 0 9 -39 64
-87 121 -39 47 -42 54 -32 80 l11 28 21 -26 c12 -14 34 -41 49 -60 19 -25 29
-31 37 -23 9 8 -2 28 -39 76 -41 54 -50 71 -44 92 3 14 10 26 14 26 5 0 35
-30 68 -67 34 -37 64 -64 68 -60 11 11 -12 47 -70 113 l-53 59 14 42 15 43 55
-67 c54 -66 83 -88 83 -61 0 7 -29 47 -64 88 -54 65 -62 79 -54 99 8 23 10 22
49 -30 42 -57 53 -66 63 -50 4 5 -16 39 -43 75 -35 45 -48 71 -44 85 3 12 8
21 12 21 3 0 27 -23 53 -52 38 -44 48 -50 53 -36 5 12 -9 35 -46 78 -49 56
-51 62 -42 92 l9 33 33 -32 c33 -34 51 -41 51 -22 0 22 -22 49 -50 64 -26 13
-29 19 -23 48 8 44 12 46 35 14 11 -15 26 -27 34 -27 20 0 18 6 -16 55 -18 26
-30 56 -30 75 0 32 0 32 25 16 30 -20 35 -20 35 -2 0 8 -12 24 -26 35 -22 17
-24 25 -18 57 6 32 8 35 19 21 7 -10 17 -17 24 -17 18 0 13 28 -10 48 -16 15
-19 29 -16 58 3 33 5 36 12 17 4 -13 14 -23 21 -23 22 0 16 35 -10 61 -23 23
-24 31 -25 157 -1 136 -19 292 -46 392 -26 97 -14 78 26 -41 21 -64 51 -179
66 -255z m-3725 -751 l47 -48 -60 -77 c-55 -71 -62 -77 -82 -67 -27 14 -77 60
-77 71 0 4 12 25 28 47 15 21 36 57 46 79 11 25 26 42 35 42 9 0 38 -21 63
-47z m3258 -957 l71 -69 -46 -46 c-41 -41 -47 -44 -56 -28 -5 9 -15 17 -22 17
-7 0 -34 27 -61 61 -45 55 -48 62 -33 76 15 15 21 12 81 -40 35 -32 69 -57 75
-57 27 0 6 31 -53 81 -50 41 -62 57 -54 67 15 17 17 16 98 -62z m-327 -41 c38
-8 92 -25 122 -39 45 -20 55 -30 68 -67 18 -51 29 -99 23 -99 -2 0 -26 11 -53
25 -128 67 -333 48 -595 -54 -157 -62 -304 -149 -366 -216 -28 -32 -52 -59
-52 -60 0 -1 -21 -33 -46 -71 -73 -108 -146 -265 -179 -384 -10 -36 -22 -69
-26 -74 -5 -6 -30 -4 -63 3 -42 9 -62 21 -86 48 -41 46 -38 61 39 218 143 291
352 495 681 662 36 18 72 33 81 33 9 0 22 7 30 16 7 8 21 13 30 11 10 -3 23 1
29 8 9 11 81 34 155 49 45 9 144 5 208 -9z m51 -242 c60 -63 77 -76 87 -65 11
10 2 24 -46 72 -38 38 -53 60 -43 60 24 0 48 -11 48 -21 0 -5 25 -39 55 -76
30 -37 53 -68 51 -70 -2 -2 -32 4 -67 12 -35 9 -119 19 -185 22 l-121 6 -42
48 -41 48 38 11 c22 5 60 13 86 16 40 6 46 4 40 -9 -7 -19 52 -85 80 -89 31
-5 30 20 -2 36 -31 16 -65 60 -55 70 18 18 50 -2 117 -71z m46 -112 c120 -27
135 -34 154 -76 24 -51 14 -97 -33 -147 l-37 -41 -36 49 c-56 76 -79 93 -143
106 -72 14 -186 0 -308 -39 -264 -83 -456 -249 -522 -452 -23 -70 -16 -102 44
-212 28 -50 51 -93 51 -95 0 -5 -74 22 -108 40 -48 25 -75 91 -69 173 5 82 21
146 48 191 10 18 19 39 19 45 0 17 75 132 123 190 102 121 271 226 427 267
102 26 275 26 390 1z m54 -320 c60 -37 72 -117 31 -206 -27 -58 -168 -195
-252 -244 -118 -70 -354 -163 -470 -186 -84 -17 -183 57 -183 135 0 92 110
248 233 332 94 64 303 149 462 187 58 14 140 6 179 -18z"/>
<path d="M2125 4206 c-125 -40 -194 -110 -241 -244 -29 -82 -33 -228 -8 -311
33 -112 121 -168 245 -158 181 15 309 135 338 317 18 108 14 161 -15 216 -69
132 -215 214 -319 180z m115 -35 c28 -11 70 -35 94 -55 l43 -35 -4 -92 c-1
-51 -7 -97 -13 -103 -5 -5 -10 -22 -10 -37 0 -40 -36 -128 -76 -181 -42 -58
-113 -112 -176 -133 -45 -15 -50 -15 -92 3 -84 38 -121 129 -114 285 3 78 9
103 37 163 41 89 99 147 177 179 72 30 71 30 134 6z"/>
<path d="M5923 5548 c-16 -18 -49 -59 -73 -90 -33 -46 -47 -57 -64 -53 -101
24 -162 32 -170 25 -5 -5 9 -32 35 -65 24 -31 51 -67 59 -81 17 -28 15 -31
-104 -123 -53 -42 -71 -71 -43 -71 6 0 50 12 96 25 119 35 152 33 189 -9 16
-19 44 -55 61 -80 45 -66 61 -61 61 17 0 34 -4 79 -9 99 l-9 38 39 -6 c43 -7
137 2 158 16 21 12 0 35 -61 66 -26 13 -64 38 -84 56 l-37 32 6 96 c6 92 2
140 -12 140 -4 0 -21 -15 -38 -32z m21 -120 c-6 -86 -5 -95 16 -121 12 -15 49
-41 81 -58 33 -16 57 -34 54 -39 -8 -13 -80 -13 -128 1 -20 5 -41 8 -46 5 -5
-3 -2 -33 6 -67 24 -104 15 -114 -36 -41 -28 39 -54 65 -70 69 -21 5 -102 -11
-168 -33 -10 -4 10 20 45 53 34 32 62 63 62 69 0 6 -20 37 -45 68 -25 32 -45
59 -45 61 0 1 34 -5 76 -13 74 -15 77 -15 91 4 42 57 104 134 108 134 3 0 3
-42 -1 -92z"/>
<path d="M83 5215 c-74 -32 -82 -137 -14 -182 19 -13 45 -23 58 -23 111 0 148
157 48 205 -40 18 -51 18 -92 0z m98 -44 c37 -37 37 -65 0 -102 -36 -36 -73
-37 -106 -4 -39 38 -29 106 18 125 38 15 58 11 88 -19z"/>
<path d="M6527 5103 c-8 -12 -57 -192 -73 -263 -7 -36 -16 -71 -19 -78 -9 -25
-85 -407 -110 -551 -31 -185 -70 -480 -85 -641 -6 -69 -16 -137 -21 -152 -10
-25 -4 -56 46 -234 2 -6 38 -17 82 -23 600 -95 985 -165 1052 -194 36 -15 59
-16 69 -3 5 6 16 88 26 182 9 94 21 197 26 230 5 32 17 118 25 189 9 72 42
306 75 520 56 367 59 402 61 592 2 112 0 205 -2 207 -3 3 -220 50 -482 106
-389 81 -493 100 -562 100 -50 0 -85 4 -85 10 0 12 -17 13 -23 3z m643 -140
c256 -53 469 -100 474 -104 10 -9 9 -15 -53 -316 -46 -221 -101 -551 -131
-773 -27 -208 -59 -533 -54 -542 2 -3 16 0 31 7 15 8 29 12 31 10 2 -2 -2 -60
-9 -130 -15 -147 -31 -147 -35 0 -2 86 -3 90 -26 93 -12 2 -167 28 -342 58
-269 46 -322 58 -333 74 -17 24 -33 26 -33 5 0 -16 -27 -20 -47 -7 -6 4 -14
19 -18 34 -5 21 -16 30 -44 38 -55 15 -61 13 -61 -21 0 -29 -2 -31 -27 -26
-16 3 -63 11 -105 17 -43 7 -78 17 -78 21 0 5 -11 9 -25 9 -22 0 -25 4 -25 34
0 18 3 54 6 80 l7 47 45 -7 c35 -5 44 -4 40 7 -2 8 -21 18 -41 23 -40 10 -48
31 -20 51 16 12 9 40 -8 30 -10 -7 -12 15 -3 38 3 9 14 12 30 9 29 -5 32 13 4
28 -11 6 -20 17 -20 24 0 9 7 12 20 9 26 -7 26 12 -1 31 l-21 14 27 188 c28
191 118 660 129 671 3 3 33 -4 67 -17 41 -15 64 -19 71 -12 12 12 -24 33 -90
53 -37 11 -43 16 -38 33 3 12 6 24 6 29 0 4 11 5 25 1 32 -8 36 21 4 31 -13 4
-18 12 -15 22 3 8 6 21 6 29 0 10 8 12 30 8 23 -5 30 -3 30 9 0 8 -11 18 -24
21 l-24 6 18 71 c10 40 22 75 27 80 10 10 67 15 118 11 22 -2 249 -46 505 -99z
m384 -1111 c-4 -18 -11 -32 -16 -32 -5 0 -6 -16 -2 -37 5 -29 3 -39 -11 -49
-14 -11 -16 -16 -6 -28 10 -12 9 -39 -4 -128 -9 -62 -18 -114 -19 -116 -2 -1
-11 0 -20 4 -21 8 -20 25 4 214 11 85 20 158 20 163 0 4 7 7 15 7 8 0 20 9 27
20 16 25 20 20 12 -18z m-810 -579 c-15 -11 -16 -16 -5 -36 7 -13 11 -30 9
-38 -2 -7 4 -14 12 -14 10 0 15 11 16 32 0 44 17 43 27 -1 5 -20 15 -36 23
-36 16 0 17 13 5 58 -7 23 -6 32 2 32 7 0 21 -27 31 -60 21 -66 30 -71 140
-86 36 -5 46 -11 46 -25 0 -11 -4 -19 -10 -19 -13 0 -500 79 -530 86 -23 6
-24 7 -5 14 31 13 67 11 97 -4 19 -10 29 -11 37 -3 9 9 17 8 31 -1 17 -10 21
-10 25 0 8 23 -21 103 -39 106 -14 3 -16 -1 -10 -24 7 -27 7 -28 -13 -8 -11
10 -23 27 -26 37 -8 21 -27 23 -27 2 0 -18 -31 -20 -48 -3 -7 7 -12 19 -12 28
0 15 10 15 121 -4 103 -17 118 -22 103 -33z m459 -64 l187 -33 0 -41 c0 -23 3
-63 6 -88 l7 -46 -34 9 c-19 6 -88 22 -154 36 -108 22 -134 34 -135 57 0 16
30 6 41 -15 11 -20 12 -21 25 -4 7 10 18 15 24 11 16 -10 40 14 33 32 -5 13
-3 13 15 4 11 -6 24 -16 27 -21 4 -6 10 -8 15 -5 4 3 10 -5 13 -16 8 -31 27
-13 27 27 0 32 -12 45 -25 24 -3 -5 -22 2 -42 16 -27 18 -44 23 -65 19 -15 -4
-28 -2 -28 3 0 5 -27 12 -60 16 -45 5 -62 12 -70 26 -6 11 -7 20 -3 20 4 0 92
-14 196 -31z"/>
<path d="M6797 4973 c-16 -15 -2 -20 73 -26 101 -8 187 -30 261 -68 32 -16 63
-29 69 -29 20 0 9 26 -17 42 l-28 17 42 -6 c48 -6 97 3 88 17 -3 6 -25 10 -48
10 -23 0 -57 4 -75 9 -25 7 -34 7 -38 -3 -4 -10 -17 -9 -59 6 -86 29 -251 48
-268 31z"/>
<path d="M6894 4811 c-123 -57 -204 -195 -204 -349 0 -85 15 -133 59 -183 69
-82 193 -111 305 -73 65 22 154 107 191 181 40 80 46 193 16 274 -40 106 -121
158 -256 166 -54 2 -80 -1 -111 -16z m226 -45 c53 -25 70 -40 95 -80 25 -42
31 -62 34 -127 3 -70 0 -85 -27 -143 -91 -195 -302 -257 -435 -128 -142 138
-40 455 162 508 57 15 88 9 171 -30z"/>
<path d="M6949 4756 c-115 -30 -191 -140 -192 -280 -1 -126 67 -206 183 -214
76 -6 119 10 179 64 68 61 95 120 96 209 0 101 -31 160 -106 197 -69 34 -103
39 -160 24z m72 -186 c26 -14 25 -69 -2 -104 -38 -48 -109 -27 -109 33 0 61
59 98 111 71z"/>
<path d="M6870 4133 c0 -16 -11 -18 -87 -18 -104 0 -153 -22 -201 -89 -75
-105 -113 -307 -78 -414 51 -154 301 -226 486 -140 25 12 52 21 60 22 9 1 14
9 13 21 -3 31 14 53 52 65 39 13 42 37 6 32 -22 -2 -22 0 -14 40 4 24 8 74 7
112 -1 55 3 73 17 87 11 11 19 26 19 34 0 23 -26 18 -37 -7 l-11 -23 -7 27
c-4 14 -2 35 4 46 12 22 2 35 -21 27 -7 -3 -18 3 -25 14 -10 16 -8 20 13 30
26 11 28 39 3 32 -54 -15 -59 -14 -59 14 0 20 -4 26 -15 21 -20 -7 -95 44 -95
66 0 10 -7 18 -15 18 -8 0 -15 -8 -15 -17z m40 -68 c18 -9 35 -25 37 -36 3
-10 20 -27 38 -38 40 -23 80 -102 96 -186 21 -117 -36 -279 -110 -309 -140
-56 -305 -31 -395 59 -74 74 -74 232 0 395 50 109 107 143 225 137 44 -3 90
-12 109 -22z"/>
<path d="M6705 4006 c-74 -34 -117 -121 -123 -251 -3 -82 -2 -93 20 -125 48
-71 131 -106 235 -97 86 7 132 32 161 88 46 92 39 209 -18 299 -48 74 -82 94
-170 98 -48 1 -86 -3 -105 -12z"/>
<path d="M7127 3443 c-4 -3 -7 -19 -7 -34 0 -21 6 -30 23 -34 12 -3 51 -11 87
-19 36 -8 74 -17 86 -21 27 -8 56 19 52 49 -2 17 -17 25 -88 43 -87 22 -142
28 -153 16z"/>
<path d="M109 4083 c0 -4 0 -26 1 -48 1 -23 -8 -74 -19 -115 -14 -48 -19 -87
-15 -112 7 -44 -7 -51 -24 -13 -18 39 -14 101 9 154 24 56 23 126 -1 126 -11
0 -14 -9 -12 -35 2 -20 -6 -55 -17 -80 -26 -56 -27 -137 -4 -186 17 -36 18
-36 65 -30 41 6 175 -5 243 -19 13 -3 24 -17 30 -37 12 -39 54 -60 79 -38 20
16 21 64 1 84 -16 15 -24 17 -203 36 -57 6 -110 14 -117 16 -21 9 -24 54 -7
113 20 69 22 182 5 188 -7 3 -13 1 -14 -4z"/>
<path d="M4373 3448 c-5 -7 -17 -34 -27 -60 -22 -60 -32 -68 -107 -78 -86 -12
-92 -22 -34 -59 27 -17 57 -33 66 -36 15 -5 19 -19 21 -72 2 -37 8 -68 13 -69
6 -2 23 14 38 36 37 52 64 52 121 0 42 -38 66 -50 66 -31 0 5 -14 39 -31 75
-36 77 -32 99 27 157 19 18 34 37 34 42 0 9 -60 4 -107 -9 -18 -5 -22 -1 -28
28 -9 45 -26 88 -35 88 -4 0 -12 -6 -17 -12z m26 -120 c1 -43 0 -43 48 -23 49
21 49 20 14 -21 -34 -38 -34 -49 -4 -108 l15 -29 -30 22 c-40 28 -60 27 -94
-6 l-28 -27 0 45 c0 44 -1 46 -47 69 l-48 24 48 7 c59 9 83 29 99 82 10 32 13
36 19 21 4 -11 8 -36 8 -56z"/>
<path d="M184 3285 l7 -74 -50 -33 c-28 -18 -51 -38 -51 -44 0 -6 23 -14 51
-17 75 -9 82 -18 74 -99 -9 -87 8 -91 51 -10 38 72 64 85 135 72 78 -15 86 1
27 53 l-47 42 40 42 c63 68 61 70 -81 47 -32 -5 -39 -1 -85 45 -70 72 -79 69
-71 -24z m135 -55 c17 0 41 4 55 10 38 14 33 -6 -9 -32 -43 -28 -44 -42 -5
-65 17 -9 30 -20 30 -23 0 -3 -20 -4 -44 -2 -42 4 -46 2 -72 -37 -14 -23 -27
-41 -28 -41 -1 0 0 16 2 35 5 45 -12 65 -57 65 l-36 1 34 28 c33 27 34 30 28
80 l-6 53 39 -36 c27 -24 50 -36 69 -36z"/>
<path d="M3265 3291 c-3 -6 4 -25 15 -43 29 -48 25 -92 -20 -218 -22 -61 -40
-120 -40 -130 0 -10 -4 -21 -9 -24 -4 -3 -73 70 -151 162 -79 92 -147 168
-151 170 -4 2 -23 -4 -43 -12 -65 -27 -74 -101 -16 -131 41 -21 57 -19 86 12
23 25 27 26 37 12 44 -59 303 -349 313 -349 6 0 13 23 16 58 4 36 20 90 46
147 67 151 76 218 33 274 -30 39 -43 17 -20 -34 25 -57 20 -91 -37 -215 -23
-52 -46 -112 -50 -133 -9 -51 -24 -29 -24 36 0 31 12 80 35 138 47 122 54 182
27 242 -20 46 -35 57 -47 38z"/>
<path d="M1694 2446 c-17 -8 -36 -26 -43 -44 -26 -62 34 -133 154 -182 53 -21
55 -24 55 -59 0 -92 69 -201 138 -220 48 -14 98 10 131 62 l25 37 39 -37 c42
-40 87 -123 87 -160 0 -12 -11 -35 -24 -50 -21 -24 -31 -28 -73 -26 -26 1 -65
9 -86 17 -37 16 -57 14 -57 -4 0 -5 32 -19 70 -31 86 -26 131 -20 173 22 26
27 29 35 25 77 -6 65 -32 115 -95 182 -31 34 -53 67 -53 80 0 36 -31 90 -61
105 -39 21 -92 19 -122 -5 -21 -17 -30 -18 -56 -9 -35 12 -35 21 0 91 39 77
15 126 -76 154 -59 17 -110 17 -151 0z m145 -32 c71 -21 80 -43 50 -115 -12
-30 -25 -58 -29 -62 -4 -5 -27 1 -51 14 -111 56 -150 99 -128 140 21 40 75 48
158 23z m86 -246 c14 -6 25 -20 25 -30 0 -48 96 -92 117 -54 7 13 12 12 33 -4
24 -18 24 -19 8 -54 -10 -19 -31 -42 -48 -51 -28 -14 -33 -14 -64 0 -53 25
-106 115 -106 181 0 28 1 28 35 12z"/>
<path d="M2332 1599 c-70 -21 -93 -123 -39 -176 74 -75 200 -5 180 101 -6 28
-48 76 -69 76 -7 0 -18 2 -26 4 -7 2 -28 0 -46 -5z m89 -48 c31 -32 35 -50 17
-84 -27 -52 -83 -62 -123 -22 -40 39 -31 94 20 123 32 18 55 14 86 -17z"/>
</g>
</svg>
