<?xml version="1.0" standalone="no"?>
<!DOCTYPE svg PUBLIC "-//W3C//DTD SVG 20010904//EN"
 "http://www.w3.org/TR/2001/REC-SVG-20010904/DTD/svg10.dtd">
<svg version="1.0" xmlns="http://www.w3.org/2000/svg"
 width="1631.000000pt" height="1888.000000pt" viewBox="0 0 1631.000000 1888.000000"
 preserveAspectRatio="xMidYMid meet">
<metadata>
Created by potrace 1.16, written by Peter Selinger 2001-2019
</metadata>
<g transform="translate(0.000000,1888.000000) scale(0.100000,-0.100000)"
fill="#000000" stroke="none">
<path d="M15381 18810 c-229 -32 -448 -161 -637 -378 -97 -111 -134 -206 -142
-366 -11 -241 58 -388 245 -522 74 -54 201 -114 305 -146 43 -12 78 -26 78
-29 0 -3 -93 -50 -207 -104 -351 -167 -553 -322 -553 -422 0 -41 23 -89 49
-103 32 -17 76 -12 97 11 77 85 239 183 454 274 210 89 372 172 485 246 103
68 115 86 115 171 0 39 -5 54 -25 72 -29 27 -87 46 -164 53 -74 7 -236 54
-356 103 -168 68 -232 115 -281 202 -27 49 -29 60 -29 158 0 96 3 110 29 165
36 73 139 178 237 241 148 96 282 144 404 144 124 0 220 -86 275 -246 40 -116
43 -171 20 -430 -54 -630 -130 -1283 -163 -1420 l-22 -91 -85 75 c-160 140
-231 173 -375 173 -145 0 -221 -35 -370 -172 -48 -43 -106 -85 -145 -103 -60
-29 -73 -31 -170 -31 -93 0 -112 3 -161 26 l-57 27 5 45 c5 41 2 49 -23 72
-43 40 -80 56 -169 76 -44 9 -106 27 -139 39 -56 20 -99 23 -261 17 -16 -1
-139 0 -272 1 l-243 2 0 369 0 370 47 7 c44 6 165 3 474 -12 l126 -7 26 35
c38 49 37 109 -1 148 -52 52 -168 69 -468 70 l-211 0 -7 388 c-4 213 -9 401
-12 418 -5 28 -3 32 23 39 15 4 207 9 425 12 l396 5 26 37 c34 49 34 92 -1
131 -22 24 -43 33 -98 44 -110 22 -332 28 -540 15 -277 -18 -257 -19 -266 15
-23 83 -113 114 -163 55 -21 -24 -26 -41 -26 -84 l0 -53 -52 -26 c-92 -45
-124 -123 -71 -172 31 -29 63 -39 103 -31 l28 6 2 -415 1 -415 -31 -29 c-24
-22 -30 -36 -30 -70 0 -50 22 -96 50 -103 20 -5 20 -11 20 -401 l0 -396 -40
-20 c-45 -23 -60 -45 -60 -89 0 -17 -3 -31 -6 -31 -3 0 -38 28 -78 62 -39 34
-100 75 -136 92 -56 26 -79 31 -167 34 -100 4 -103 4 -103 -17 0 -20 4 -22 43
-16 104 16 244 -38 342 -131 154 -145 225 -179 380 -179 115 0 157 11 240 61
l60 36 105 -7 c58 -3 214 -15 348 -26 186 -15 257 -17 306 -9 59 9 68 8 114
-15 71 -35 144 -48 240 -42 115 7 195 47 322 162 105 95 164 128 259 145 78
14 169 1 246 -35 28 -14 92 -62 142 -109 119 -110 207 -155 319 -163 l79 -6
-19 22 c-12 13 -31 21 -53 21 -38 0 -39 3 -14 38 61 89 120 481 201 1361 42
457 39 558 -23 723 -60 159 -199 306 -323 344 -60 18 -168 24 -243 14z"/>
<path d="M310 18775 c-23 -19 -46 -35 -51 -35 -4 0 -18 -10 -29 -22 -17 -18
-20 -34 -19 -83 1 -33 -3 -118 -9 -190 -14 -157 -32 -1002 -32 -1502 0 -222
-4 -364 -10 -368 -13 -8 -2 -63 20 -100 10 -16 23 -46 29 -66 19 -58 45 -79
100 -79 41 0 50 4 69 30 12 16 22 39 22 50 0 20 4 18 43 -13 97 -80 201 -113
335 -104 114 7 195 48 320 162 52 46 117 96 146 110 110 54 250 53 360 -2 72
-36 96 -60 96 -99 0 -18 3 -40 6 -49 9 -23 57 -45 98 -45 20 0 62 -13 94 -30
79 -40 150 -54 247 -48 82 6 127 20 205 65 51 31 46 30 345 7 220 -18 348 -15
383 7 12 8 28 28 34 46 l12 32 48 -44 c64 -57 147 -98 207 -100 25 -1 87 -8
136 -15 143 -20 295 -8 440 35 160 47 262 87 373 145 l93 49 82 -74 c91 -82
153 -120 231 -141 105 -28 254 -11 341 40 22 13 78 59 125 101 47 42 98 85
114 95 27 17 32 17 58 4 46 -24 90 -15 108 23 11 23 24 32 47 36 46 8 158 -18
211 -49 39 -23 163 -128 169 -144 2 -3 -16 -18 -39 -35 -166 -117 -309 -251
-426 -398 -47 -59 -84 -96 -111 -109 -23 -11 -80 -54 -127 -97 -158 -141 -238
-176 -379 -169 -113 6 -182 41 -305 153 -58 53 -119 98 -156 115 -136 66 -317
56 -438 -22 -33 -21 -45 -46 -30 -60 3 -4 24 6 47 22 117 78 274 88 404 25 28
-14 89 -60 135 -102 46 -41 103 -89 128 -105 63 -41 160 -68 239 -68 139 1
224 39 353 157 50 46 104 91 121 99 28 15 30 15 23 -2 -30 -76 -34 -267 -11
-469 21 -191 22 -189 -22 -216 -21 -13 -71 -52 -111 -87 -40 -35 -76 -61 -81
-58 -21 14 -82 -17 -120 -61 l-39 -46 -80 -5 c-63 -3 -95 0 -149 16 -77 24
-112 47 -228 151 -133 119 -259 164 -400 142 -37 -5 -69 -12 -71 -14 -10 -10
10 -38 22 -33 42 16 144 17 202 2 91 -23 127 -45 232 -140 52 -47 116 -96 141
-110 59 -33 149 -56 216 -56 l54 0 -40 -53 c-38 -50 -121 -212 -121 -235 0
-42 -95 7 -200 103 -47 42 -105 90 -130 106 -62 41 -159 69 -237 69 -56 0 -64
-2 -61 -17 3 -15 18 -19 86 -24 110 -8 179 -44 302 -154 57 -52 120 -98 156
-116 l62 -29 -5 -102 c-3 -73 0 -119 10 -158 9 -30 14 -57 11 -59 -13 -14
-105 41 -179 107 -144 128 -209 164 -332 186 -28 5 -33 2 -33 -14 0 -14 11
-21 53 -29 86 -18 148 -54 241 -137 104 -94 173 -139 241 -156 28 -7 68 -27
89 -45 22 -18 43 -33 48 -33 4 0 27 -9 51 -20 l43 -20 -36 -110 c-20 -60 -39
-112 -42 -116 -12 -11 -151 17 -203 42 -30 13 -95 63 -147 109 -128 116 -297
202 -249 127 4 -7 34 -26 67 -41 34 -17 97 -64 149 -111 49 -45 107 -92 130
-105 54 -31 138 -55 196 -55 26 0 50 -3 52 -7 3 -5 1 -33 -4 -63 -5 -30 -12
-101 -15 -157 -8 -118 -4 -115 -108 -88 -77 20 -121 47 -215 133 -78 71 -146
122 -162 122 -17 0 -9 -30 12 -48 12 -9 66 -56 121 -104 113 -99 175 -132 278
-150 64 -11 71 -14 66 -33 -3 -11 -6 -58 -6 -105 l0 -85 -85 -34 c-100 -40
-100 -40 -199 49 -33 30 -72 64 -84 75 l-23 19 7 -29 c8 -34 48 -81 116 -132
l47 -37 -92 -50 c-116 -65 -216 -157 -247 -229 -29 -66 -36 -156 -17 -223 l14
-52 -77 5 c-149 11 -238 -26 -388 -157 -117 -103 -172 -134 -266 -151 -52 -10
-80 -10 -132 0 -93 17 -150 49 -259 146 -52 46 -114 95 -137 109 -127 74 -325
73 -448 -2 -33 -21 -46 -35 -48 -55 l-3 -28 42 31 c66 47 165 73 257 68 120
-8 174 -34 299 -145 121 -107 192 -147 295 -163 150 -23 273 21 420 152 52 46
110 94 129 105 78 48 208 66 303 42 30 -7 48 -19 60 -40 28 -47 131 -153 184
-190 l48 -33 11 -111 c14 -148 21 -161 127 -210 47 -22 86 -45 86 -51 0 -23
249 -164 289 -164 20 0 11 -15 -16 -32 -43 -25 -132 -48 -185 -48 -42 0 -48
-2 -48 -21 0 -21 3 -22 73 -16 80 6 162 33 211 70 31 24 34 25 92 12 32 -7 79
-16 104 -20 37 -5 51 -14 77 -47 l33 -40 -68 -33 c-43 -21 -101 -63 -162 -118
-99 -90 -169 -132 -239 -143 -31 -5 -41 -11 -41 -25 0 -25 30 -25 103 0 69 24
117 57 221 152 71 64 178 129 213 129 7 0 41 -21 75 -46 35 -25 108 -68 163
-94 100 -48 393 -144 535 -174 101 -22 362 -95 380 -107 12 -7 4 -19 -40 -59
-130 -119 -217 -155 -356 -148 -110 6 -179 41 -304 153 -111 100 -186 141
-286 155 -154 21 -280 -26 -430 -163 -50 -45 -114 -93 -142 -106 -35 -16 -52
-30 -52 -43 0 -10 5 -18 11 -18 32 0 129 63 211 137 108 97 179 137 272 154
135 23 245 -16 376 -136 158 -143 247 -182 399 -172 137 8 193 36 349 174 l59
52 83 -39 c98 -48 166 -93 240 -160 l55 -49 -86 6 c-155 11 -253 -28 -394
-157 -144 -130 -260 -175 -394 -152 -96 17 -157 51 -261 145 -52 47 -116 97
-141 111 -91 51 -225 69 -328 45 -78 -18 -149 -61 -244 -147 -50 -46 -102 -89
-114 -95 -15 -6 -23 -19 -23 -35 l0 -24 39 23 c22 13 79 60 127 103 55 49 113
91 154 110 60 29 73 31 170 31 99 0 109 -2 170 -32 38 -19 105 -69 160 -118
54 -49 121 -99 155 -115 77 -38 174 -53 257 -41 123 18 175 47 313 172 111 99
182 132 300 137 l90 3 -30 -27 c-16 -14 -70 -61 -118 -103 -112 -97 -222 -221
-300 -339 -59 -89 -65 -95 -136 -130 -72 -35 -79 -37 -175 -37 -137 1 -187 21
-301 123 -169 151 -246 186 -395 185 -137 -1 -217 -38 -349 -159 -49 -46 -62
-64 -60 -83 4 -21 11 -17 94 58 101 91 161 124 258 142 135 25 243 -15 389
-144 53 -47 116 -97 140 -111 67 -39 160 -59 251 -54 l78 5 -33 -20 c-86 -52
-170 -109 -239 -165 -43 -34 -80 -62 -84 -62 -3 0 -42 33 -86 73 -97 87 -135
111 -218 137 -114 36 -262 21 -360 -37 -71 -41 -130 -100 -124 -123 7 -27 14
-25 54 16 85 88 193 129 323 122 110 -6 179 -39 295 -143 l88 -80 -74 -87 -74
-87 -61 29 c-129 61 -278 61 -403 -1 -34 -17 -101 -66 -155 -116 -119 -108
-188 -143 -299 -150 -63 -5 -93 -1 -148 15 -78 24 -114 48 -227 150 -70 64
-82 72 -118 72 l-41 0 37 -25 c21 -14 75 -58 120 -99 99 -88 152 -120 231
-140 111 -30 235 -14 336 41 27 14 88 62 136 105 106 96 148 122 233 144 78
20 161 14 241 -15 95 -36 97 -38 56 -102 -19 -30 -47 -78 -62 -107 -27 -52
-28 -52 -64 -45 -110 24 -220 -6 -284 -76 -54 -60 -89 -79 -163 -91 -146 -23
-248 -73 -320 -159 -26 -31 -31 -33 -71 -27 -73 10 -147 52 -245 141 -141 127
-223 165 -364 165 -136 0 -214 -36 -361 -167 -53 -47 -107 -90 -119 -95 -25
-12 -33 -48 -11 -48 20 0 86 48 181 133 48 43 114 91 145 106 50 23 68 26 166
26 103 0 114 -2 175 -31 38 -19 96 -60 140 -101 41 -38 88 -79 104 -91 l29
-22 -114 0 c-124 0 -228 -18 -287 -48 -20 -11 -71 -25 -112 -31 -42 -6 -101
-24 -135 -41 -75 -36 -229 -172 -233 -206 -2 -13 0 -24 5 -24 4 0 51 39 103
86 52 47 111 94 132 105 37 19 149 52 155 46 2 -2 -2 -18 -8 -36 -14 -39 -7
-103 15 -136 26 -39 88 -65 157 -66 57 -1 60 -2 54 -23 -3 -11 -8 -36 -12 -54
-5 -29 -9 -33 -27 -27 -12 4 -59 9 -105 12 -140 9 -236 -22 -341 -112 -65 -56
-69 -62 -63 -86 5 -16 16 -10 77 43 39 34 96 73 126 87 49 23 68 26 165 26 61
0 118 -5 128 -10 15 -10 9 -17 -47 -58 -83 -61 -167 -152 -199 -216 -21 -43
-35 -57 -84 -82 -59 -31 -75 -33 -348 -53 l-60 -4 67 23 c107 37 202 112 189
148 -6 16 -12 13 -53 -22 -99 -88 -223 -124 -346 -102 -85 15 -86 15 -90 -2
-3 -17 46 -37 89 -37 16 0 29 -4 29 -8 0 -5 -71 -13 -157 -18 l-158 -10 -41
33 c-179 144 -434 131 -610 -30 l-57 -52 -251 -17 c-138 -9 -267 -17 -287 -17
-31 -1 -47 9 -115 70 -95 84 -176 127 -274 142 -151 23 -270 -21 -426 -160
-55 -49 -122 -99 -150 -112 -111 -53 -247 -51 -357 3 -29 14 -92 62 -141 106
-48 44 -92 80 -96 80 -4 0 -12 -6 -18 -12 -14 -18 149 -163 230 -205 124 -64
277 -67 403 -8 29 14 100 67 157 117 123 109 195 146 296 155 127 10 230 -28
334 -125 l62 -59 -180 -11 c-98 -6 -190 -10 -204 -9 -26 2 -28 -3 -46 -100 -3
-16 -17 -25 -57 -37 -75 -23 -140 -64 -237 -152 -52 -47 -111 -89 -150 -108
-61 -29 -72 -31 -175 -31 -141 1 -183 19 -318 140 -86 77 -100 86 -113 73 -13
-12 -4 -24 68 -89 46 -42 101 -88 123 -102 97 -66 267 -87 386 -47 80 27 117
52 219 145 77 70 156 119 228 140 22 6 23 4 18 -27 -3 -18 -10 -78 -16 -133
-16 -157 -20 -175 -37 -175 -36 0 -128 -59 -226 -144 -143 -125 -199 -151
-327 -150 -126 0 -182 23 -285 112 -136 118 -134 117 -150 101 -12 -12 -1 -25
70 -88 154 -136 216 -164 360 -165 147 -1 217 30 367 165 77 69 169 129 197
129 5 0 6 -15 0 -37 -7 -34 -3 -48 47 -145 29 -59 54 -112 54 -117 0 -6 -13
-11 -29 -11 -46 0 -144 -34 -192 -68 -25 -16 -81 -63 -124 -103 -108 -98 -181
-132 -296 -137 -70 -4 -99 0 -150 17 -72 25 -105 47 -214 145 -67 61 -78 68
-91 55 -12 -13 -5 -24 63 -85 164 -148 238 -180 399 -172 127 7 202 44 334
163 52 47 118 96 145 109 53 25 161 50 177 40 10 -6 181 -345 176 -349 -2 -2
-30 3 -63 11 -33 7 -85 14 -115 14 -128 -1 -213 -40 -349 -160 -116 -102 -171
-134 -264 -151 -138 -26 -250 15 -390 142 -81 73 -116 91 -123 64 -3 -11 143
-142 201 -182 80 -54 210 -81 315 -64 96 16 174 58 280 152 52 47 111 94 130
106 103 62 262 70 365 17 l58 -29 139 -275 c77 -151 185 -362 240 -468 55
-107 97 -196 94 -199 -12 -12 -132 17 -191 47 -33 16 -99 66 -147 109 -48 44
-106 91 -130 105 -125 73 -321 73 -446 0 -24 -14 -87 -64 -140 -112 -105 -93
-167 -127 -263 -144 -127 -22 -242 19 -369 131 -109 96 -108 95 -124 82 -12
-10 -8 -18 27 -49 23 -20 65 -58 94 -84 102 -94 245 -139 378 -118 106 16 176
55 298 163 125 111 179 137 298 145 84 5 168 -14 229 -51 19 -12 78 -60 130
-106 114 -102 184 -137 301 -153 l84 -11 73 -139 73 -139 -38 -17 c-28 -12
-66 -17 -143 -17 -97 0 -110 2 -170 31 -40 19 -97 61 -150 109 -100 90 -144
121 -214 145 -76 25 -147 32 -223 20 -101 -16 -175 -57 -283 -155 -60 -55
-119 -99 -160 -119 -60 -29 -73 -31 -170 -31 -97 0 -110 2 -170 31 -36 17 -95
57 -130 89 -36 33 -77 70 -93 84 -24 22 -29 23 -42 10 -13 -13 -4 -24 76 -96
99 -88 164 -128 243 -149 104 -28 239 -11 335 42 25 13 88 63 139 109 52 46
117 96 146 110 112 55 250 55 361 1 27 -14 93 -63 144 -110 139 -125 227 -166
356 -166 54 0 136 16 187 35 14 5 28 -15 73 -105 l56 -113 -33 -34 c-75 -77
-226 -124 -339 -104 -94 16 -157 51 -262 144 -53 47 -116 97 -139 111 -97 57
-246 72 -359 36 -79 -24 -123 -53 -236 -154 -96 -87 -159 -121 -252 -137 -131
-23 -255 24 -388 147 -76 70 -112 87 -119 59 -4 -18 189 -177 251 -206 112
-53 244 -56 366 -10 62 24 91 44 209 150 46 40 108 85 139 100 49 23 68 26
161 26 146 0 187 -18 327 -142 122 -108 194 -148 296 -162 127 -18 247 14 350
93 26 20 51 35 55 32 4 -2 29 -50 57 -105 l49 -101 -23 -17 c-14 -9 -61 -50
-105 -90 -47 -43 -109 -88 -146 -106 -61 -30 -72 -32 -170 -32 -97 0 -110 2
-170 31 -41 20 -100 63 -160 118 -109 100 -184 141 -286 157 -146 24 -274 -21
-409 -142 -116 -104 -151 -127 -228 -151 -55 -16 -85 -20 -148 -15 -109 7
-180 42 -294 146 -49 44 -93 81 -96 81 -4 0 -11 -6 -17 -13 -9 -10 10 -32 84
-96 110 -96 156 -124 239 -145 106 -28 229 -15 324 34 22 11 86 61 143 111 57
51 127 103 156 116 116 54 245 54 356 -1 28 -14 94 -63 146 -110 52 -47 116
-96 141 -110 132 -73 306 -73 438 0 25 13 88 63 140 109 51 47 96 85 100 85 6
0 191 -352 191 -363 0 -3 -24 -11 -53 -17 -120 -25 -247 -109 -247 -165 0 -28
0 -28 50 19 59 55 155 103 225 111 l50 7 87 -174 c47 -95 85 -174 83 -176 -1
-2 -23 2 -49 9 -26 6 -87 10 -140 7 -83 -3 -102 -8 -167 -40 -96 -48 -243
-181 -238 -216 4 -21 13 -15 99 63 105 96 184 140 276 155 69 11 153 0 217
-28 44 -19 46 -23 176 -277 72 -142 129 -260 127 -262 -2 -2 -50 36 -106 85
-137 121 -228 162 -355 162 -127 0 -218 -42 -358 -164 -57 -50 -118 -98 -134
-107 -17 -9 -33 -26 -36 -38 -5 -19 -2 -21 16 -15 40 13 101 56 191 137 55 49
114 91 155 111 60 28 75 31 166 31 91 0 106 -3 165 -31 41 -19 102 -63 163
-117 53 -48 114 -95 136 -106 35 -18 48 -37 130 -196 50 -96 91 -178 91 -181
0 -4 -25 -4 -56 -1 -82 8 -168 54 -259 136 -150 138 -223 171 -370 171 -147 0
-219 -33 -370 -170 -81 -74 -130 -104 -200 -125 -28 -8 -41 -18 -43 -33 -3
-19 0 -20 39 -11 71 16 152 66 250 154 51 46 115 95 144 109 76 37 167 50 246
36 95 -17 154 -50 259 -145 122 -110 206 -154 312 -162 l75 -6 71 -143 c82
-164 84 -154 -31 -175 -139 -26 -251 17 -402 152 -49 45 -108 91 -130 104 -83
49 -222 68 -324 44 -80 -18 -147 -58 -250 -149 -118 -104 -173 -135 -271 -152
-56 -10 -70 -16 -70 -30 0 -22 14 -22 101 -4 95 21 155 54 261 149 111 99 145
120 221 142 68 20 86 15 29 -8 -38 -15 -39 -17 -75 -134 -20 -65 -41 -140 -47
-168 -6 -27 -16 -52 -21 -56 -5 -3 -11 -26 -13 -50 -4 -62 -77 -381 -91 -399
-14 -17 -26 -70 -16 -70 4 0 -16 -111 -44 -247 -29 -137 -55 -265 -59 -285 -4
-24 -13 -38 -22 -38 -8 0 -46 -16 -84 -35 -50 -25 -83 -35 -117 -35 -47 0 -49
-1 -75 -49 -43 -76 -37 -132 20 -194 32 -33 79 -36 153 -7 l51 19 -5 -32 c-3
-18 -22 -108 -42 -202 -48 -229 -82 -425 -95 -553 -10 -95 -9 -109 7 -139 16
-30 22 -33 64 -33 35 0 50 5 66 23 30 33 30 34 63 193 35 168 169 780 176 806
9 30 116 51 321 63 l101 6 11 -53 c73 -360 131 -675 131 -715 0 -70 32 -117
82 -121 21 -2 47 2 58 8 32 17 70 106 70 164 0 58 -38 324 -79 546 l-28 155
30 54 c39 71 33 127 -18 165 -18 14 -38 26 -44 26 -12 0 -23 54 -56 270 -37
240 -101 594 -135 748 -56 253 -94 351 -150 379 -24 12 -23 13 17 13 53 0 147
-29 198 -62 22 -15 78 -61 125 -103 99 -90 155 -121 254 -142 78 -16 150 -12
229 14 27 8 50 13 52 12 1 -2 28 -54 59 -116 l56 -112 -41 -35 c-23 -19 -70
-47 -105 -63 -45 -19 -64 -33 -64 -45 0 -15 5 -17 28 -12 39 10 100 41 154 81
l47 34 42 -83 c23 -46 49 -91 58 -101 15 -18 14 -20 -10 -40 -14 -12 -65 -56
-113 -99 -47 -42 -106 -84 -131 -95 -34 -14 -45 -23 -45 -40 0 -20 3 -21 25
-13 64 24 111 56 201 136 53 47 111 92 128 99 17 7 78 21 136 30 108 18 130
30 130 70 l0 22 -117 -22 c-65 -13 -118 -22 -118 -21 0 0 1 351 3 778 2 728 3
777 20 782 9 3 116 21 237 41 460 75 1321 230 3635 655 481 88 1136 208 1455
266 319 58 924 168 1345 245 421 77 1321 240 2000 364 679 123 1390 253 1580
289 432 81 498 91 506 83 4 -3 10 -224 15 -489 4 -266 10 -596 14 -735 l7
-251 -54 -11 c-29 -6 -147 -26 -263 -45 -115 -19 -493 -89 -840 -155 -346 -66
-790 -150 -985 -186 -195 -36 -533 -99 -750 -140 -217 -41 -615 -115 -885
-165 -269 -50 -902 -169 -1405 -265 -503 -96 -1313 -249 -1800 -340 -487 -91
-909 -170 -937 -176 -51 -10 -53 -12 -53 -43 0 -18 2 -35 5 -37 2 -3 112 16
242 43 131 27 254 46 273 44 19 -2 62 -14 95 -26 51 -19 75 -22 161 -18 86 4
110 9 165 35 35 16 91 53 123 81 33 29 62 52 66 52 4 0 116 21 250 46 134 25
253 43 265 40 12 -3 65 -44 116 -91 61 -55 120 -98 168 -123 74 -37 76 -37
196 -37 120 0 122 0 196 37 48 25 107 68 167 123 52 46 118 96 147 110 105 49
244 50 350 1 28 -13 97 -65 154 -116 95 -84 200 -150 239 -150 7 0 -5 -23 -26
-52 -44 -60 -127 -248 -196 -446 -62 -179 -139 -491 -175 -713 -63 -378 -131
-947 -131 -1088 0 -107 36 -171 95 -171 54 0 112 77 101 135 -10 53 79 732
145 1100 16 94 44 224 60 290 31 125 129 429 135 422 2 -2 11 -125 19 -273 33
-595 82 -888 171 -1016 29 -42 59 -61 111 -72 27 -6 40 -2 77 26 25 18 56 54
70 79 29 51 156 423 211 614 19 68 43 143 53 166 l19 43 11 -104 c19 -173 31
-359 42 -670 11 -316 23 -482 39 -521 14 -38 35 -51 82 -47 60 4 79 33 91 144
21 185 -7 1021 -43 1274 -30 214 -92 310 -200 310 -120 0 -194 -125 -330 -555
-45 -143 -86 -275 -92 -293 -6 -17 -14 -32 -17 -32 -4 0 -15 48 -24 108 -32
221 -53 490 -66 857 -10 266 -24 386 -53 445 l-15 28 44 7 c70 10 173 68 255
144 66 60 101 112 86 127 -2 2 -46 -35 -98 -82 -59 -54 -118 -98 -159 -118
-61 -29 -72 -31 -175 -31 -98 0 -116 3 -166 26 -31 15 -93 60 -139 100 -159
143 -236 179 -380 179 -145 0 -222 -37 -383 -182 -41 -37 -100 -80 -133 -95
-53 -25 -70 -28 -169 -28 -152 0 -191 19 -364 177 -29 27 -52 51 -50 53 3 2
321 62 708 134 l704 130 56 -50 c111 -99 255 -144 387 -122 99 17 178 60 284
155 52 46 112 94 133 107 22 13 37 30 37 42 0 39 -67 -2 -204 -124 -53 -47
-114 -91 -152 -109 -110 -51 -243 -49 -354 7 -45 23 -134 94 -127 101 4 4
1196 230 1269 241 33 5 43 0 105 -52 82 -70 144 -100 238 -116 157 -25 274 18
438 164 138 122 181 141 322 142 92 0 106 -3 165 -31 38 -18 98 -61 145 -103
159 -144 225 -174 375 -174 134 0 218 35 329 135 32 29 39 42 33 58 -7 18 -13
15 -71 -35 -80 -70 -142 -102 -230 -117 -140 -24 -243 15 -389 146 -51 46
-115 95 -141 109 -101 55 -225 70 -336 41 -81 -21 -130 -51 -242 -150 -110
-98 -166 -129 -262 -146 -84 -14 -168 -2 -245 36 -53 26 -145 100 -136 109 3
3 284 58 625 122 341 64 656 123 701 131 l81 16 47 -30 c73 -47 159 -66 266
-60 79 5 101 11 164 41 81 41 112 68 102 93 -5 14 -11 13 -41 -11 -20 -14 -61
-38 -93 -53 -50 -24 -69 -27 -162 -27 -88 0 -115 4 -162 24 -32 13 -58 27 -58
31 0 4 17 10 38 13 42 6 1065 194 1272 234 252 48 655 133 684 145 l29 12 -5
278 -5 279 28 23 c72 61 221 89 327 62 91 -23 127 -45 232 -140 52 -47 116
-97 141 -110 56 -31 149 -56 208 -56 43 0 44 0 26 20 -10 11 -30 20 -45 20
-46 0 -154 38 -198 70 -22 16 -76 61 -118 100 -92 83 -172 125 -270 141 -108
17 -192 0 -326 -69 -5 -2 -8 66 -8 152 l0 156 38 25 c74 49 148 68 247 63 122
-6 174 -31 305 -147 121 -107 196 -148 295 -160 120 -15 125 17 7 37 -97 17
-158 51 -264 144 -53 48 -116 98 -140 112 -124 73 -321 73 -444 1 l-41 -24 -6
82 c-4 45 -7 114 -7 152 l0 70 48 32 c120 82 276 93 407 28 28 -13 93 -62 145
-109 52 -47 116 -96 141 -110 56 -31 149 -56 208 -56 42 0 43 1 27 19 -11 12
-36 20 -72 24 -86 9 -167 54 -274 151 -57 52 -119 98 -156 116 -127 62 -277
60 -406 -4 l-68 -34 0 89 c0 90 -13 143 -41 165 -8 7 -295 80 -639 164 -344
84 -641 156 -661 161 l-36 9 8 54 c4 30 10 59 13 65 3 5 1 32 -5 60 -12 56
-47 99 -106 130 l-36 18 97 86 c125 111 172 131 311 132 92 0 106 -3 166 -31
41 -20 100 -62 155 -111 104 -93 150 -124 219 -146 177 -56 326 -17 491 130
115 102 137 117 212 142 80 27 174 27 254 0 75 -25 97 -40 212 -142 54 -48
114 -91 153 -109 62 -29 206 -58 220 -44 14 14 -25 33 -92 45 -94 17 -162 55
-273 156 -127 115 -217 155 -347 155 -130 0 -220 -40 -347 -155 -110 -99 -179
-139 -271 -156 -139 -26 -254 18 -405 154 -51 46 -116 96 -145 109 -100 49
-216 60 -322 32 -81 -20 -130 -51 -239 -148 l-93 -82 -81 15 c-66 13 -81 19
-76 31 28 68 38 136 39 260 0 142 -13 204 -57 278 -22 35 -21 36 42 46 69 12
155 63 257 153 145 128 227 161 366 150 96 -8 175 -48 273 -136 43 -40 98 -86
122 -103 124 -87 309 -99 451 -30 30 15 99 67 155 116 63 56 125 101 166 120
59 28 74 31 165 31 91 0 106 -3 166 -31 41 -20 100 -62 155 -111 102 -91 149
-123 218 -146 64 -22 176 -34 176 -19 0 16 -28 29 -85 37 -87 12 -163 54 -270
149 -138 122 -234 166 -360 166 -126 0 -222 -44 -361 -167 -110 -98 -168 -130
-261 -146 -137 -24 -249 19 -393 149 -52 47 -116 97 -142 110 -133 68 -281 70
-414 8 -28 -13 -98 -65 -155 -116 -109 -96 -189 -142 -271 -153 l-46 -7 34 98
c18 54 38 130 45 169 l11 71 52 18 c65 23 119 61 215 149 204 187 419 190 618
9 160 -145 238 -182 382 -182 142 0 220 35 358 162 226 206 430 206 656 0 48
-44 107 -92 130 -105 58 -34 140 -57 205 -57 54 0 55 0 37 20 -12 13 -31 20
-55 20 -46 0 -140 32 -183 62 -18 12 -68 55 -112 95 -50 47 -108 88 -154 111
-74 37 -76 37 -196 37 -120 0 -122 0 -196 -37 -47 -24 -105 -65 -159 -116
-143 -130 -206 -157 -354 -150 -120 6 -175 32 -298 143 -62 57 -118 98 -168
122 -68 34 -84 38 -175 41 -160 6 -233 -25 -390 -169 -45 -40 -106 -85 -140
-101 l-60 -28 -7 157 c-3 87 -4 161 -1 166 2 4 11 7 19 7 38 0 131 59 226 142
123 109 195 146 296 155 131 11 223 -25 347 -137 117 -106 183 -146 272 -166
89 -19 173 -15 256 14 68 24 118 59 221 153 48 43 106 84 145 103 60 28 75 31
166 31 91 0 106 -3 166 -31 39 -19 97 -60 145 -103 142 -130 213 -167 343
-178 66 -5 66 -5 46 14 -12 12 -46 24 -84 31 -93 16 -154 51 -261 149 -109 98
-185 139 -289 156 -151 23 -274 -23 -422 -158 -52 -47 -117 -96 -146 -111
-111 -56 -254 -56 -366 0 -29 14 -95 64 -147 111 -110 100 -188 142 -290 158
-151 23 -270 -21 -426 -160 -90 -80 -148 -118 -210 -137 -20 -6 -23 -1 -33 61
-24 140 -62 283 -114 433 -30 85 -57 162 -61 172 -7 14 -1 16 53 11 73 -7 168
10 238 43 28 14 90 59 138 102 96 85 172 137 225 153 100 30 224 18 318 -30
21 -11 80 -58 132 -105 144 -131 254 -176 403 -162 121 11 188 47 332 177 90
81 156 116 250 132 129 22 245 -20 370 -133 113 -102 183 -146 265 -164 38 -9
86 -16 106 -16 36 0 36 1 20 19 -10 11 -36 21 -64 24 -86 10 -155 44 -236 115
-195 170 -247 195 -401 195 -154 0 -206 -25 -401 -195 -89 -79 -156 -108 -261
-116 -55 -3 -87 0 -140 16 -78 24 -118 51 -229 152 -91 83 -167 123 -264 141
-148 26 -281 -19 -415 -141 -115 -104 -150 -128 -223 -150 -64 -20 -162 -25
-212 -11 -29 8 -28 6 -129 239 -61 142 -74 179 -57 167 11 -9 50 -30 86 -48
63 -31 69 -32 190 -32 120 0 127 1 190 32 40 20 102 65 160 118 59 54 120 99
160 118 61 30 72 32 175 32 98 0 116 -3 166 -26 31 -15 101 -66 159 -118 62
-55 129 -104 169 -124 63 -31 70 -32 191 -32 121 0 127 1 191 32 41 20 102 65
160 118 55 50 121 98 159 117 61 31 70 33 175 33 98 0 116 -3 166 -26 31 -15
93 -60 139 -100 114 -102 165 -136 239 -159 77 -24 180 -28 162 -6 -7 8 -42
19 -79 26 -100 17 -156 48 -270 149 -142 126 -219 161 -357 161 -138 0 -215
-35 -357 -161 -112 -100 -169 -132 -265 -149 -134 -24 -244 17 -385 142 -148
132 -226 168 -362 168 -139 0 -224 -38 -358 -160 -109 -98 -157 -127 -249
-146 -131 -27 -252 7 -363 105 -55 47 -66 65 -131 204 -40 84 -120 248 -178
365 l-107 212 33 0 c40 0 128 -25 177 -50 19 -10 78 -57 130 -104 53 -48 122
-100 156 -117 121 -60 276 -62 399 -4 29 14 100 67 157 117 115 102 192 144
280 154 40 5 58 11 58 21 0 22 -23 25 -86 14 -94 -18 -170 -61 -280 -158 -102
-90 -159 -125 -236 -143 -96 -22 -207 -5 -293 45 -23 13 -81 60 -130 105 -123
111 -231 160 -351 160 -33 0 -35 2 -104 140 -38 77 -70 142 -70 144 0 2 23 12
51 21 38 13 74 16 143 13 122 -5 174 -30 306 -147 140 -124 200 -153 328 -159
165 -8 238 22 387 158 92 84 140 114 210 135 49 15 61 45 17 45 -52 0 -162
-65 -260 -154 -52 -47 -117 -96 -146 -110 -108 -51 -242 -52 -352 -2 -28 13
-94 62 -147 109 -109 97 -158 128 -236 151 -74 22 -202 20 -269 -3 l-53 -18
-21 41 c-11 22 -35 75 -54 118 l-33 77 35 31 c87 75 223 113 335 92 93 -17
153 -51 258 -146 106 -95 160 -128 246 -151 75 -19 138 -19 225 1 82 18 151
61 267 166 45 41 99 82 121 92 30 14 38 22 35 37 -3 10 -8 19 -12 19 -21 0
-131 -77 -200 -141 -102 -92 -122 -105 -200 -129 -104 -33 -219 -23 -316 28
-22 11 -83 59 -135 106 -110 100 -185 141 -288 157 -121 20 -256 -15 -351 -90
l-37 -30 -55 112 c-51 104 -230 422 -249 441 -5 5 6 35 25 70 36 64 65 166 65
227 0 34 4 38 53 62 28 15 95 65 147 112 125 113 193 147 304 153 91 5 174
-13 235 -51 19 -11 77 -59 129 -105 109 -97 185 -137 285 -151 129 -18 268 21
361 101 31 27 37 38 32 56 -7 22 -9 21 -54 -19 -92 -82 -220 -120 -333 -100
-94 16 -157 51 -265 146 -54 48 -117 97 -139 110 -89 53 -241 70 -346 39 -83
-25 -123 -49 -210 -127 -90 -80 -167 -137 -186 -137 -9 0 -13 20 -13 68 -1 37
-7 103 -15 147 -18 98 -18 95 -2 95 35 0 123 57 217 140 154 136 261 176 399
151 95 -18 155 -52 261 -147 133 -121 226 -164 355 -164 116 0 257 53 263 99
2 13 0 22 -5 20 -4 -2 -39 -20 -78 -39 -66 -33 -74 -35 -175 -35 -97 0 -110 2
-170 31 -38 18 -98 61 -145 103 -154 139 -224 173 -365 174 -149 1 -226 -35
-395 -185 -76 -67 -166 -121 -180 -106 -3 2 -23 67 -46 144 -63 212 -177 490
-286 694 -76 142 -146 251 -297 454 -64 88 -115 161 -112 163 9 10 113 -27
159 -57 56 -36 57 -36 57 -10 0 11 -16 30 -37 45 -42 28 -150 65 -192 65 -24
0 -37 15 -98 108 -112 172 -118 183 -102 193 29 18 126 31 185 26 88 -9 161
-40 236 -102 62 -51 67 -53 73 -33 6 16 -2 29 -36 59 -84 73 -202 119 -304
119 -39 0 -145 -21 -176 -34 -12 -5 -24 11 -52 71 -20 43 -43 98 -52 123 l-16
45 28 23 c15 13 57 38 93 55 61 30 72 32 175 32 100 0 115 -3 167 -28 31 -15
96 -63 145 -106 81 -73 89 -77 96 -58 7 18 0 29 -40 65 -158 142 -242 178
-397 170 -99 -5 -174 -31 -244 -84 -18 -14 -35 -24 -37 -23 -1 2 -22 53 -45
113 l-43 110 74 67 c123 113 236 158 360 145 94 -9 159 -40 243 -114 43 -37
103 -86 133 -110 50 -38 58 -41 66 -26 8 13 4 22 -19 38 -16 12 -60 50 -99 84
-92 84 -145 120 -208 142 -171 60 -335 22 -487 -113 -41 -37 -78 -67 -81 -67
-4 0 -9 10 -13 23 -3 12 -31 64 -61 115 -31 52 -55 95 -53 96 2 1 28 15 59 30
31 15 98 66 150 113 122 111 192 145 305 151 65 4 97 0 151 -17 75 -24 103
-42 222 -148 110 -99 211 -149 211 -105 0 11 -18 25 -53 40 -30 13 -90 57
-145 107 -51 46 -112 95 -137 109 -70 41 -157 59 -258 53 -116 -6 -199 -46
-312 -149 -97 -89 -129 -112 -183 -133 l-42 -17 -47 35 c-63 45 -112 60 -172
52 l-47 -6 -42 53 c-71 92 -190 178 -310 226 -59 23 -82 26 -187 27 -116 0
-123 -1 -187 -33 -97 -48 -171 -133 -234 -270 -1 -2 -40 24 -86 57 -47 33
-128 87 -181 119 l-96 59 73 -5 c146 -9 239 29 385 158 116 103 171 134 265
151 52 10 80 10 132 0 94 -17 155 -51 266 -150 103 -92 156 -124 241 -147 106
-28 245 -10 335 42 24 14 87 64 140 112 144 128 253 168 388 143 93 -17 165
-57 269 -152 97 -87 160 -125 242 -145 44 -10 52 -10 57 3 3 8 6 16 6 18 0 1
-21 8 -46 14 -76 19 -138 57 -221 132 -137 124 -203 159 -329 173 -72 9 -181
-12 -250 -47 -27 -14 -98 -68 -157 -121 -127 -111 -179 -136 -302 -143 -65 -4
-92 -1 -145 17 -77 26 -98 40 -214 143 -142 127 -269 172 -415 147 -102 -17
-175 -56 -282 -151 -113 -101 -145 -122 -223 -144 -66 -19 -189 -17 -241 5
-30 12 -28 13 80 50 158 54 301 112 452 185 236 113 379 211 454 310 36 48 42
63 46 117 4 52 0 71 -19 108 -47 91 -147 138 -318 150 l-95 6 48 23 c107 50
228 49 341 -2 29 -14 96 -63 149 -110 53 -47 116 -97 139 -111 126 -73 320
-73 448 1 25 14 87 64 139 111 103 92 165 127 262 144 134 23 249 -21 397
-155 129 -117 215 -156 343 -157 82 0 119 9 119 30 0 16 -9 17 -87 13 -73 -4
-99 -1 -153 17 -77 26 -98 40 -214 143 -140 125 -266 170 -413 147 -99 -15
-177 -58 -284 -155 -122 -110 -192 -146 -303 -152 -90 -6 -173 12 -236 50 -19
12 -78 60 -130 106 -107 95 -181 135 -282 151 -112 17 -235 -11 -328 -75 -24
-16 -60 -28 -110 -35 -135 -19 -243 -40 -402 -82 l-158 -40 -92 82 c-51 45
-112 92 -136 103 l-43 21 8 46 c4 25 8 77 8 115 -1 144 -66 247 -265 419
l-111 96 37 16 c65 27 148 37 215 25 94 -16 156 -50 261 -143 148 -132 226
-168 363 -168 135 0 218 37 354 160 47 42 97 82 111 90 21 10 23 10 12 -1 -6
-7 -12 -37 -12 -66 0 -84 20 -99 153 -108 89 -6 110 -4 129 9 18 13 52 16 178
16 l155 0 45 -30 c109 -73 268 -91 395 -44 57 21 90 27 175 28 125 2 175 16
195 56 8 16 15 36 15 44 0 27 -22 64 -46 77 -13 7 -24 16 -24 19 0 14 103 52
166 62 134 20 248 -25 391 -157 51 -46 111 -94 133 -105 102 -52 242 -64 351
-30 86 26 154 70 163 105 4 15 5 29 3 31 -2 2 -20 -10 -40 -27 -38 -31 -122
-72 -171 -84 l-29 -6 27 35 c47 62 117 245 206 538 34 112 93 298 130 413 183
563 300 977 300 1064 0 28 -8 48 -25 70 -36 42 -57 46 -103 20 -36 -21 -40
-28 -61 -108 -13 -47 -86 -275 -162 -506 -76 -231 -158 -487 -183 -570 -41
-136 -187 -573 -218 -652 -7 -18 -15 -33 -19 -33 -11 0 -128 255 -164 360 -91
261 -199 872 -225 1267 -18 276 -41 343 -120 343 -64 0 -107 -59 -96 -132 4
-24 11 -122 15 -218 14 -273 44 -514 107 -840 46 -244 71 -341 140 -545 65
-195 109 -301 159 -387 20 -33 34 -62 32 -64 -5 -5 -60 39 -158 125 -40 35
-102 78 -138 95 -63 30 -72 31 -192 31 -125 0 -127 0 -195 -35 l-69 -35 -100
17 c-256 42 -355 51 -622 55 l-273 5 0 368 0 368 31 6 c46 9 227 7 361 -4 65
-5 148 -10 185 -11 65 -2 68 0 95 32 40 48 39 110 -1 148 -57 53 -169 70 -467
71 l-211 0 -10 418 c-6 229 -10 418 -9 419 12 14 203 23 488 23 l347 0 30 37
c41 49 42 94 3 133 -40 39 -83 49 -266 61 -151 10 -431 2 -582 -17 l-51 -6 -7
33 c-16 79 -106 118 -154 66 -25 -27 -42 -76 -42 -122 0 -26 -5 -33 -35 -44
-78 -28 -124 -107 -95 -162 15 -28 68 -51 105 -47 31 4 33 2 38 -32 3 -19 5
-207 5 -416 l0 -381 -28 -22 c-56 -41 -46 -145 15 -173 l25 -11 0 -372 0 -372
-40 -13 c-48 -16 -111 -61 -220 -159 -46 -40 -108 -85 -139 -100 -50 -23 -68
-26 -166 -26 -105 0 -114 2 -175 33 -38 19 -104 67 -159 117 -54 49 -119 97
-155 115 -106 52 -266 56 -375 10 l-49 -22 -93 71 c-274 206 -534 315 -781
328 -234 12 -404 -42 -725 -229 l-102 -60 -53 12 c-110 25 -204 -35 -229 -145
-11 -52 -17 -60 -63 -91 -28 -19 -55 -34 -59 -34 -5 0 -40 29 -79 65 -97 89
-173 124 -312 141 l-48 6 6 66 c32 340 58 932 60 1329 l1 372 25 5 c14 4 142
11 285 16 324 11 390 23 414 77 28 61 -3 106 -91 130 -82 22 -291 28 -484 13
-159 -12 -176 -11 -192 4 -30 26 -72 20 -109 -15 -29 -29 -49 -36 -250 -80
-189 -41 -220 -45 -234 -33 -21 19 -74 18 -95 -3 -22 -23 -44 -76 -44 -109 0
-35 32 -78 70 -94 46 -19 248 3 459 51 24 5 46 8 48 5 8 -8 -15 -718 -37
-1151 -13 -245 -18 -437 -14 -516 7 -126 7 -127 -16 -134 -13 -4 -64 -44 -114
-89 -50 -46 -109 -94 -131 -109 -100 -65 -266 -75 -378 -24 -62 28 -88 48
-175 129 l-53 50 61 55 c117 106 165 211 158 345 -10 167 -99 274 -321 381
-160 78 -470 213 -627 273 -136 52 -200 93 -240 153 -74 111 -37 302 92 476
87 118 309 274 470 331 36 12 38 12 56 -14 19 -25 21 -25 61 -14 57 18 75 48
69 119 -4 49 -10 61 -41 89 -52 48 -100 58 -189 39 -172 -36 -472 -229 -593
-383 -61 -76 -140 -239 -165 -336 -22 -89 -26 -215 -9 -298 18 -87 75 -193
132 -244 62 -55 310 -179 582 -289 303 -123 461 -211 496 -276 17 -33 -24
-102 -92 -155 -92 -71 -234 -151 -281 -158 -23 -4 -77 -22 -118 -41 -136 -62
-432 -93 -563 -60 -56 14 -73 15 -98 5 -35 -15 -59 -56 -59 -100 l0 -32 -50
44 c-197 169 -256 195 -423 183 -127 -8 -123 -8 -464 1 l-283 7 0 362 0 363
78 8 c45 4 164 1 287 -7 279 -18 273 -18 302 17 17 22 23 42 23 80 0 61 -23
88 -94 109 -66 20 -278 37 -426 34 -69 -1 -135 -1 -146 0 -21 1 -22 7 -28 124
-3 67 -8 251 -11 409 l-6 286 53 13 c36 8 157 13 373 14 447 3 406 -1 433 40
45 70 16 141 -67 165 -76 22 -348 32 -551 20 -107 -6 -212 -13 -232 -16 -34
-4 -37 -2 -43 26 -11 48 -57 90 -99 90 -60 0 -96 -53 -96 -140 0 -23 -8 -32
-45 -50 -95 -46 -122 -120 -64 -176 25 -24 38 -29 75 -28 42 1 44 0 45 -30 1
-17 3 -203 4 -413 2 -364 1 -383 -17 -389 -21 -6 -48 -53 -48 -83 0 -32 31
-89 51 -94 18 -5 19 -21 19 -269 0 -144 3 -320 6 -389 l7 -126 -45 -25 -45
-25 -39 28 c-74 51 -156 72 -269 67 -136 -5 -196 -33 -330 -151 -131 -116
-199 -150 -315 -155 -68 -3 -98 0 -149 18 -67 22 -130 61 -169 103 l-23 24 40
16 c70 28 383 197 466 251 309 203 412 381 324 564 -48 98 -209 225 -411 322
l-78 38 53 25 c28 14 93 42 142 62 175 73 324 176 389 268 19 26 42 77 52 113
15 57 16 73 5 137 -15 87 -36 120 -135 219 -205 206 -476 313 -742 293 -76 -5
-92 -4 -103 9 -22 27 -65 19 -111 -19z m410 -261 c73 -18 244 -96 317 -144 70
-48 133 -111 133 -135 0 -59 -108 -130 -356 -234 -104 -43 -233 -100 -287
-125 -54 -25 -100 -46 -103 -46 -6 0 -5 475 2 593 l7 106 31 4 c51 8 187 -3
256 -19z m-160 -1093 c144 -38 385 -162 443 -228 17 -20 16 -22 -39 -72 -31
-29 -82 -69 -113 -90 -56 -38 -415 -241 -425 -241 -3 0 -6 151 -6 336 0 316 1
336 18 329 9 -4 64 -19 122 -34z m6810 -516 c243 -66 499 -221 805 -489 120
-105 196 -197 220 -265 31 -92 15 -233 -38 -338 -46 -91 -43 -167 10 -225 14
-16 14 -18 -3 -24 -31 -12 -246 -105 -449 -196 -331 -148 -465 -190 -931 -294
-293 -66 -253 -73 -329 56 -152 253 -225 634 -212 1100 5 177 26 408 43 476 4
16 44 41 147 92 148 74 258 115 349 131 92 17 281 5 388 -24z m-944 -257 c-34
-190 -44 -719 -18 -908 41 -289 125 -543 226 -685 l36 -49 -243 -51 c-133 -29
-254 -54 -268 -58 -19 -5 -40 2 -82 27 -31 19 -58 32 -61 29 -2 -2 -13 0 -23
6 -17 8 -19 18 -15 69 4 55 2 62 -26 93 -30 34 -31 34 -116 34 l-85 0 -16 57
c-9 32 -23 90 -31 130 -35 175 -25 818 14 861 21 24 182 147 272 207 108 73
424 270 433 270 5 0 7 -15 3 -32z m-4156 -286 c-66 -31 -181 -41 -259 -22 -45
11 -50 14 -40 31 9 18 22 19 182 18 l172 -1 -55 -26z m3368 -387 c-21 -342 5
-655 68 -819 4 -10 -9 -19 -46 -31 -28 -9 -57 -27 -64 -38 -37 -60 -25 -149
25 -191 35 -29 33 -56 -3 -56 -28 0 -141 -53 -186 -86 -28 -22 -33 -23 -39 -9
-3 9 -3 60 1 113 18 265 18 295 -4 442 -48 332 -37 479 46 603 39 59 203 242
209 235 2 -2 -2 -75 -7 -163z m2863 -164 c24 -16 72 -56 107 -88 l64 -58 -127
-40 -127 -41 -19 38 c-10 20 -19 54 -19 75 0 45 43 143 63 143 7 0 33 -13 58
-29z m1157 -76 c30 -9 52 -18 50 -20 -2 -2 -26 2 -53 10 -68 21 -204 19 -302
-5 -181 -43 -381 -138 -738 -350 -310 -184 -388 -220 -599 -281 -288 -82 -482
-119 -671 -126 -152 -5 -396 8 -462 26 -27 7 -26 8 17 15 101 16 533 120 635
153 146 47 251 89 550 223 138 61 304 131 371 155 241 88 660 191 869 215 106
12 267 4 333 -15z m54 -83 c35 -17 74 -42 87 -56 21 -22 22 -28 12 -58 -42
-121 -236 -257 -562 -395 -79 -34 -215 -91 -302 -128 -86 -36 -184 -71 -217
-77 -53 -9 -67 -7 -137 16 -120 39 -199 55 -309 62 l-102 7 22 43 c20 39 33
49 132 98 60 29 195 104 299 165 205 121 439 242 549 286 141 55 241 76 358
72 95 -3 113 -7 170 -35z m-4366 -629 c-3 -42 -6 -104 -6 -139 l0 -64 -75 77
c-41 42 -75 77 -75 79 0 7 145 124 153 124 6 0 7 -30 3 -77z m2799 37 c-8 -16
-15 -36 -15 -45 0 -8 -4 -15 -10 -15 -5 0 -10 -6 -10 -14 0 -11 25 -14 123
-14 142 0 238 -17 377 -69 277 -103 567 -297 895 -599 l127 -117 -6 -96 c-11
-149 -40 -298 -75 -386 -73 -184 -210 -400 -386 -610 -192 -229 -944 -962
-1310 -1276 -328 -282 -465 -428 -568 -605 -48 -81 -94 -199 -108 -277 l-12
-64 -64 33 c-37 20 -79 34 -99 34 -23 0 -52 12 -92 39 -145 98 -276 146 -668
245 -165 41 -342 89 -394 106 -171 58 -323 145 -410 234 l-44 46 109 0 c368 0
809 158 1142 408 58 43 76 73 54 86 -4 3 -35 -15 -67 -41 -224 -175 -541 -322
-829 -383 -140 -30 -415 -38 -540 -16 -109 19 -196 46 -290 91 -124 59 -124
63 -9 63 112 0 217 22 350 73 116 44 422 200 453 230 14 14 62 49 106 79 274
182 540 452 576 585 30 109 -40 184 -173 185 -51 0 -58 -2 -58 -20 0 -17 7
-20 48 -20 58 0 128 -31 143 -63 27 -60 -45 -183 -195 -333 -161 -160 -379
-325 -535 -403 -75 -38 -143 -52 -419 -86 -175 -22 -420 -67 -444 -81 -12 -7
-57 60 -82 122 l-24 59 50 27 c169 92 278 277 278 470 0 222 -108 346 -335
384 l-40 7 75 34 c41 19 91 37 110 41 19 3 40 11 45 18 6 7 56 33 113 58 139
61 261 136 337 208 67 62 125 143 125 172 0 16 -7 17 -62 11 -34 -4 -74 -11
-89 -15 -25 -8 -27 -6 -33 32 -13 78 -84 174 -124 166 -21 -4 -49 -53 -57
-100 -6 -34 -5 -38 14 -38 15 0 23 10 31 40 15 54 25 57 54 13 22 -34 52 -122
44 -127 -2 -1 -33 -14 -69 -30 -36 -15 -81 -40 -100 -56 l-34 -29 22 -22 c12
-12 52 -32 89 -44 l68 -22 -65 -38 c-35 -21 -107 -57 -159 -80 l-95 -43 -3 52
c-5 80 17 398 34 488 19 101 59 228 90 290 19 38 24 63 24 125 0 106 13 128
70 128 38 0 45 3 45 20 0 26 -63 44 -99 27 -45 -20 -61 -58 -63 -149 -1 -83
-8 -112 -23 -96 -11 10 4 201 21 268 15 64 46 124 66 132 10 4 30 -9 59 -40
24 -26 50 -47 57 -47 18 0 40 25 124 145 85 121 174 208 245 239 99 45 94 47
107 -41 12 -83 21 -99 45 -90 13 5 14 15 8 54 -11 75 -8 165 7 201 40 94 146
81 409 -49 149 -74 192 -87 192 -60 0 5 -27 24 -61 42 -40 21 -56 35 -47 40 7
4 128 31 268 59 l255 53 105 -16 c199 -31 322 -40 467 -33 269 12 498 51 703
120 157 54 154 53 135 16z m-2920 -182 c55 -58 115 -157 115 -191 0 -7 -21
-40 -47 -73 -27 -33 -63 -83 -82 -112 l-33 -52 -39 35 c-109 99 -193 -27 -215
-322 -5 -62 -11 -93 -19 -93 -30 0 -94 61 -121 115 -110 226 74 651 311 716
19 6 35 16 35 24 0 31 36 13 95 -47z m4497 -22 c122 -26 234 -93 339 -202 191
-201 238 -434 129 -648 -36 -70 -37 -78 -8 -74 14 2 32 22 54 63 77 141 85
310 22 467 -19 48 -33 90 -30 93 11 11 58 4 97 -14 99 -45 217 -240 325 -536
116 -320 180 -432 482 -843 202 -276 254 -356 352 -550 302 -602 407 -1126
275 -1384 -32 -62 -112 -134 -177 -158 -185 -70 -358 -36 -792 155 -96 43
-278 112 -405 155 -408 138 -576 201 -778 291 -180 82 -284 117 -392 135 l-40
6 45 14 c86 27 216 46 347 53 76 4 138 12 144 18 25 25 -4 33 -110 33 -174 0
-335 -34 -516 -110 -49 -20 -119 -47 -154 -60 -122 -45 -255 -139 -514 -365
-315 -274 -555 -417 -740 -441 -47 -7 -50 -6 -42 12 5 10 10 44 12 74 5 68
-18 110 -76 140 -52 26 -135 27 -177 1 -59 -36 -79 -119 -50 -213 l13 -46 -68
-35 c-42 -21 -69 -30 -69 -23 0 32 45 178 74 242 96 206 260 385 663 722 139
116 244 213 353 322 41 42 206 200 366 352 519 493 716 732 888 1075 93 186
124 335 133 643 10 314 -31 440 -145 440 -34 0 -110 -47 -118 -73 -4 -11 1
-26 10 -35 16 -17 25 -14 88 25 25 16 28 16 46 0 30 -27 43 -83 49 -212 l6
-120 -80 75 c-44 41 -120 108 -169 149 -49 41 -95 80 -102 86 -10 9 -8 24 9
73 36 108 139 200 253 228 68 16 98 16 178 0z m-5084 -2708 c11 -13 31 -50 43
-83 12 -33 28 -69 35 -80 22 -31 17 -45 -17 -45 -65 0 -82 29 -94 158 -8 77
-2 86 33 50z m832 -137 c-83 -44 -280 -115 -368 -133 -111 -23 -203 -20 -292
9 -50 16 -52 18 -25 21 17 2 35 7 40 12 29 23 521 105 650 108 l30 1 -35 -18z
m3815 -290 c91 -22 105 -28 310 -121 154 -69 256 -110 474 -186 67 -23 125
-45 128 -47 9 -10 74 -190 107 -300 107 -353 157 -844 136 -1329 -6 -127 -12
-233 -13 -234 -2 -2 -23 4 -47 14 -36 13 -81 17 -230 17 l-185 0 -39 79 c-52
106 -128 181 -239 236 -76 38 -95 43 -174 47 -114 7 -183 -8 -294 -63 -106
-53 -204 -130 -314 -245 l-80 -83 -119 -33 c-97 -27 -221 -72 -302 -109 -7 -3
-18 20 -28 63 -30 127 -38 208 -38 368 0 158 7 224 38 398 14 77 18 86 30 70
10 -14 16 -16 31 -7 22 14 21 21 -6 152 -56 268 -31 529 84 888 l46 141 82 65
c267 212 435 269 642 219z m-840 -450 c-88 -261 -125 -566 -94 -786 9 -69 8
-87 -15 -183 -52 -220 -77 -447 -70 -642 l3 -85 -16 38 c-28 65 8 72 -523 -93
-364 -113 -532 -162 -538 -155 -3 2 12 139 33 302 50 395 57 616 25 818 -12
77 -24 176 -27 220 l-5 81 38 25 c71 46 124 61 259 70 183 14 286 34 384 77
106 45 311 181 455 301 60 50 111 90 113 88 1 -2 -8 -36 -22 -76z m2001 15
c87 -30 227 -84 310 -120 303 -131 415 -168 560 -186 143 -18 283 14 381 85
21 16 23 15 71 -57 110 -164 193 -312 247 -439 70 -164 165 -372 325 -714 416
-883 601 -1341 690 -1706 81 -334 84 -635 7 -880 l-23 -73 -169 -77 c-381
-171 -684 -285 -1060 -398 l-140 -43 -209 56 c-115 31 -211 57 -213 59 -2 2 5
24 14 48 14 35 17 77 18 214 0 185 -8 235 -71 459 -32 112 -63 251 -79 354 -7
42 -6 43 52 100 106 103 209 146 532 218 326 73 448 128 531 238 65 86 84 145
84 266 1 101 0 107 -33 168 -46 85 -123 153 -235 207 -111 54 -206 81 -354
100 -364 48 -744 -22 -929 -172 -29 -24 -55 -43 -58 -43 -3 0 -5 15 -5 33 0
100 -86 328 -161 427 l-34 45 6 95 c4 52 7 187 8 300 3 580 -75 1073 -234
1473 -4 9 -3 17 3 17 5 0 81 -24 168 -54z m-2900 -155 c17 -10 37 -33 44 -51
12 -28 11 -39 -5 -86 -24 -71 -43 -72 -37 -1 4 47 1 55 -23 80 -45 44 -108 36
-131 -17 l-13 -31 -1 38 c0 77 90 115 166 68z m-426 -441 c51 -69 52 -73 72
-193 23 -142 27 -376 9 -537 -29 -264 -75 -566 -120 -800 -43 -223 -85 -473
-93 -564 -2 -24 -15 -38 -67 -73 -129 -86 -271 -120 -533 -130 l-177 -6 5 35
c9 51 -13 197 -43 292 -28 89 -106 252 -155 325 -63 92 -158 197 -227 251
l-70 55 35 65 c159 290 412 545 655 659 88 41 125 56 189 76 71 22 90 39 69
60 -13 14 -20 14 -64 0 -28 -8 -52 -15 -53 -15 -8 0 55 100 103 165 81 108
156 186 289 300 66 58 122 105 123 105 0 0 24 -32 53 -70z m2479 -859 c194
-60 310 -219 356 -485 31 -182 11 -605 -45 -951 -66 -410 -212 -607 -463 -622
-223 -14 -398 95 -502 312 -105 218 -121 469 -44 698 35 106 35 109 7 105 -76
-11 -134 -368 -94 -579 67 -354 259 -563 546 -593 217 -23 394 80 494 287 73
150 109 312 144 662 l17 170 60 30 c57 28 66 30 175 29 101 0 126 -4 202 -31
134 -46 232 -106 323 -198 66 -65 89 -97 127 -175 59 -120 92 -228 124 -400
72 -384 84 -441 120 -570 72 -254 99 -458 76 -580 -38 -200 -160 -322 -367
-365 -287 -60 -519 71 -670 380 -113 230 -153 476 -122 740 1 14 -4 20 -18 20
-27 0 -32 -31 -34 -190 -1 -132 15 -266 44 -363 9 -29 13 -57 10 -62 -12 -20
-133 -100 -211 -138 -124 -63 -218 -86 -349 -85 -83 1 -127 6 -180 23 -38 11
-83 24 -100 28 -28 7 -27 9 47 44 87 41 181 103 217 142 23 24 23 28 9 42 -14
14 -21 11 -79 -31 -203 -150 -503 -236 -824 -238 -176 -1 -278 12 -400 50 -80
25 -189 75 -199 91 -3 5 33 36 79 70 58 42 85 68 85 82 0 39 -41 20 -223 -104
-291 -197 -415 -260 -616 -313 -75 -20 -123 -25 -221 -26 -150 -2 -233 19
-331 86 -232 155 -230 431 3 668 125 128 268 207 643 354 241 95 400 172 500
243 120 85 235 213 221 247 -9 25 -32 17 -62 -22 -35 -46 -142 -151 -169 -165
-19 -11 -19 -11 0 18 72 108 165 310 165 358 0 19 90 100 136 124 51 26 140
52 177 52 24 0 31 6 45 43 9 23 46 103 83 178 203 413 477 740 729 869 119 61
247 76 359 41z m-1361 -377 l43 -128 -43 -35 c-126 -102 -224 -248 -280 -417
-33 -100 -33 -260 0 -322 13 -24 29 -45 37 -48 24 -10 -26 -132 -119 -289 -22
-38 -43 -81 -46 -95 -7 -35 -167 -114 -430 -213 -233 -87 -211 -89 -261 19
-88 191 -109 452 -63 804 15 121 79 497 90 532 3 11 29 24 72 37 281 82 510
151 707 215 127 40 235 73 240 71 6 -1 29 -60 53 -131z m1910 -29 c17 -69 39
-230 47 -352 7 -98 6 -103 -13 -103 -11 0 -33 -3 -49 -6 l-30 -6 -6 174 c-4
126 -11 195 -26 256 -12 46 -21 85 -21 88 0 3 19 4 43 2 41 -3 42 -4 55 -53z
m130 46 c27 -17 69 -230 79 -400 l6 -114 -24 6 c-13 4 -40 7 -60 7 l-36 0 -7
103 c-8 121 -31 284 -50 356 l-13 51 46 0 c25 0 52 -4 59 -9z m-249 -79 c25
-91 41 -232 41 -358 0 -91 -5 -104 -38 -104 -4 0 -8 80 -9 178 -1 114 -7 205
-17 257 -18 92 -19 105 -7 105 5 0 18 -35 30 -78z m344 56 c29 -22 154 -504
136 -523 -3 -2 -26 3 -52 12 -46 15 -47 16 -47 57 0 88 -50 382 -77 452 -6 17
18 18 40 2z m156 -168 c51 -98 89 -230 98 -337 l6 -84 -37 17 c-21 10 -38 27
-40 39 -34 180 -77 357 -121 490 -13 41 56 -50 94 -125z m-1839 82 c0 -26 -11
-53 -37 -92 -20 -30 -54 -84 -75 -120 -25 -42 -38 -57 -38 -44 0 35 18 122 42
200 18 60 28 76 48 83 50 19 60 14 60 -27z m-160 -68 c-23 -75 -50 -229 -50
-285 0 -22 -18 -73 -45 -131 -25 -53 -45 -100 -45 -107 0 -6 -6 -11 -14 -11
-7 0 -28 -3 -45 -6 l-31 -6 0 48 c0 113 70 353 131 448 31 51 36 72 17 79 -7
2 12 13 42 24 30 12 56 20 58 18 2 -2 -6 -34 -18 -71z m-2937 49 c4 -3 -15
-18 -43 -32 -56 -29 -144 -111 -167 -155 l-16 -30 -28 32 c-16 18 -29 36 -29
40 0 5 14 29 31 55 40 61 111 97 189 97 31 0 60 -3 63 -7z m2792 -79 c-67
-111 -121 -294 -132 -450 l-6 -81 -54 -27 c-29 -14 -56 -26 -59 -26 -9 0 5
105 27 198 24 106 66 212 118 297 23 37 41 72 41 79 0 8 72 57 97 65 1 1 -14
-24 -32 -55z m-2680 1 c29 -20 59 -42 65 -50 11 -13 8 -15 -19 -15 -77 0 -200
-73 -262 -156 l-32 -43 -33 46 c-37 52 -36 56 18 126 35 44 102 92 156 112 51
19 47 19 107 -20z m2522 -98 c-72 -122 -137 -345 -137 -467 0 -46 -4 -57 -35
-92 -45 -49 -50 -39 -50 92 0 114 30 212 99 331 39 65 129 179 143 179 3 0 -6
-19 -20 -43z m-2780 -245 c96 -146 152 -293 167 -439 5 -51 4 -51 -34 -77 -64
-42 -73 -69 -80 -251 -7 -205 -15 -221 -117 -250 -12 -3 -37 1 -57 9 -50 21
-72 72 -96 223 -26 164 -56 228 -120 261 -105 53 -227 18 -499 -142 -361 -213
-471 -246 -527 -161 -46 71 -18 179 73 276 53 58 197 169 218 169 7 0 15 4 17
10 5 15 173 106 281 152 87 37 112 57 89 72 -12 7 -158 -55 -269 -114 -52 -28
-98 -49 -100 -46 -3 2 0 21 7 41 19 56 82 113 176 157 81 37 109 68 63 68 -29
0 -114 -37 -179 -78 -51 -32 -61 -35 -125 -33 -81 3 -127 19 -150 55 -37 57
18 131 123 163 81 25 325 25 438 -1 l82 -18 38 42 c79 88 178 133 324 148 l75
7 64 -80 c35 -44 89 -117 118 -163z m427 186 c25 -29 46 -55 46 -59 0 -3 -25
-9 -55 -12 -83 -8 -175 -59 -244 -133 l-59 -62 -41 65 -41 65 30 38 c76 96
169 150 262 150 56 0 57 -1 102 -52z m5691 22 c162 -13 307 -50 431 -110 176
-85 265 -208 251 -344 -17 -165 -121 -284 -304 -347 -32 -11 -148 -39 -258
-64 -110 -24 -232 -54 -270 -66 -99 -30 -218 -94 -280 -151 l-53 -48 -12 72
c-24 152 -78 346 -123 440 -70 147 -124 212 -265 314 -10 7 15 52 51 91 100
109 315 190 562 212 129 12 137 12 270 1z m-5581 -177 l35 -58 -22 -24 c-57
-60 -167 -112 -314 -145 l-61 -14 -17 43 c-16 43 -16 44 10 85 53 84 198 164
307 169 22 1 32 -9 62 -56z m110 -230 c6 -19 -1 -28 -46 -57 -63 -42 -140 -70
-250 -91 -130 -24 -134 -23 -144 33 -4 26 -8 51 -9 56 0 4 42 19 92 31 108 28
216 81 264 131 l34 35 26 -58 c15 -32 29 -68 33 -80z m40 -132 c9 -39 16 -86
16 -105 0 -34 -2 -36 -52 -52 -65 -20 -226 -29 -343 -19 l-86 7 3 41 3 41 70
12 c153 26 242 58 325 118 19 14 38 25 42 26 3 0 14 -31 22 -69z m846 -228 l0
-108 -48 3 c-131 9 -244 -39 -382 -164 -98 -89 -136 -113 -207 -134 -39 -12
-54 -9 -215 35 l-173 47 -82 72 c-94 83 -162 120 -256 137 -64 12 -66 13 -60
38 3 14 15 36 26 48 l20 22 44 -39 c70 -61 139 -83 258 -83 69 0 115 5 148 17
34 12 84 18 170 19 113 2 127 5 192 34 55 24 94 33 185 42 125 13 263 53 327
95 21 14 41 25 46 25 4 1 7 -47 7 -106z m-820 35 c0 -22 -13 -34 -57 -57 -102
-51 -213 -63 -311 -32 -58 18 -122 54 -122 70 0 4 35 3 78 -2 104 -12 297 -3
347 16 50 19 65 20 65 5z m-3225 -202 c51 -22 128 -67 122 -72 -5 -5 -559 -45
-564 -40 -2 2 12 17 32 35 42 36 119 77 172 91 55 13 191 5 238 -14z m2226 12
c0 -7 4 -35 8 -62 l8 -48 -61 6 c-125 13 -334 26 -416 27 -47 0 -105 4 -130 8
l-45 7 32 17 c24 13 76 20 195 28 90 6 206 14 258 18 143 12 150 12 151 -1z
m554 -33 c63 -30 168 -118 122 -102 -10 4 -55 16 -100 28 -190 48 -187 46
-187 86 l0 35 48 -6 c26 -4 79 -22 117 -41z m1261 37 c6 -4 19 -45 28 -91 18
-87 56 -200 82 -238 17 -27 17 -27 -54 -7 -75 22 -228 15 -292 -13 l-45 -19
-144 37 c-79 21 -148 40 -154 42 -6 2 14 17 44 34 30 17 90 64 134 103 102 92
140 117 212 140 58 19 168 26 189 12z m-1250 -171 c82 -22 327 -86 544 -142
217 -56 401 -105 409 -109 8 -4 -16 -10 -55 -15 -38 -4 -757 -83 -1598 -175
l-1529 -169 -19 24 c-37 47 -148 56 -223 18 -38 -19 -75 -53 -75 -68 0 -7 -48
-16 -132 -24 -141 -14 -486 -56 -544 -67 l-34 -6 0 48 c0 67 -18 84 -90 84
-43 0 -66 -6 -91 -23 -30 -20 -34 -28 -37 -75 -2 -29 -4 -52 -5 -52 -1 0 -81
-9 -177 -20 -137 -16 -176 -17 -181 -7 -4 6 -105 165 -223 352 -118 187 -212
341 -208 342 13 4 999 73 1028 72 34 -2 43 1 -164 -40 -225 -44 -364 -91 -420
-142 -26 -24 -29 -72 -7 -104 47 -68 290 -121 725 -160 287 -25 1403 -25 1740
0 708 54 1174 129 1355 219 101 50 123 111 61 166 -34 30 -134 68 -191 74 -19
2 -31 9 -33 21 -5 24 5 22 174 -22z m-1902 -111 c18 0 44 8 57 19 22 17 36 17
181 10 182 -9 260 -17 308 -34 l35 -12 -50 -16 c-143 -47 -519 -74 -811 -58
-186 10 -289 24 -299 41 -13 21 212 64 405 78 93 6 107 5 123 -10 9 -10 32
-18 51 -18z m962 -15 c74 -42 118 -45 200 -14 44 17 67 20 108 14 28 -4 72 -8
98 -10 32 -2 57 -11 78 -27 l32 -25 -47 -12 c-55 -14 -91 -8 -153 25 -25 13
-52 24 -62 24 -9 0 -47 -16 -86 -35 -38 -19 -76 -35 -85 -35 -9 0 -41 14 -72
30 -64 34 -109 38 -183 15 -76 -23 -109 -19 -146 15 l-33 30 40 -6 c29 -4 57
1 105 19 91 36 130 34 206 -8z m-2283 -5 c101 -32 156 -37 238 -19 47 10 63 9
152 -17 l99 -28 71 18 c84 22 125 23 144 3 13 -13 13 -18 -1 -45 -20 -38 -40
-46 -76 -27 -43 22 -92 19 -131 -10 -64 -46 -77 -49 -164 -31 -104 21 -127 20
-178 -5 -26 -14 -69 -24 -110 -27 -59 -4 -72 -9 -98 -34 l-29 -29 -102 15
c-194 29 -323 64 -373 100 -19 14 -19 15 -2 34 27 29 125 68 257 102 146 37
188 37 303 0z m-863 -380 c116 -189 216 -352 221 -362 7 -12 3 -129 -11 -346
-11 -180 -22 -331 -24 -337 -2 -5 -27 37 -56 95 -29 58 -133 259 -232 448
l-179 343 25 222 c28 238 35 291 41 286 1 -2 98 -159 215 -349z m5324 320 c63
-10 146 -38 146 -49 0 -4 -19 -16 -41 -27 l-42 -20 -129 35 c-70 19 -125 38
-120 43 4 4 32 12 62 17 30 5 57 9 60 10 3 0 31 -3 64 -9z m-100 -105 c33 -9
67 -18 75 -21 9 -3 -17 -25 -65 -56 -43 -28 -118 -91 -166 -140 -83 -84 -102
-98 -110 -80 -1 4 -68 40 -148 81 -80 41 -158 83 -174 94 -29 21 -30 21 -190
3 -89 -10 -222 -24 -296 -31 -74 -7 -355 -38 -625 -69 -269 -31 -515 -59 -545
-62 -47 -5 -61 -2 -98 19 l-43 24 103 11 c594 65 1641 180 1868 206 344 40
337 40 414 21z m-1039 -189 c37 -16 58 -46 49 -70 -13 -35 -144 -76 -240 -76
-93 0 -117 31 -68 89 35 41 59 54 119 62 83 10 104 10 140 -5z m-1317 -93 c31
-19 16 -36 -43 -53 -49 -14 -179 -10 -195 6 -20 20 15 47 76 59 67 14 128 9
162 -12z m-266 -13 c-9 -16 -21 -30 -26 -30 -16 0 -651 -70 -678 -74 -21 -4
-27 -1 -33 21 -3 14 -4 27 -2 29 4 5 673 81 724 83 l32 1 -17 -30z m1667 -78
c2 -51 -14 -70 -72 -87 -70 -21 -195 -30 -230 -16 -26 10 -43 38 -53 91 l-6
25 80 -3 c85 -4 183 15 237 47 29 17 30 17 37 -3 3 -12 6 -36 7 -54z m-2445
-54 c-8 -27 -86 -51 -149 -46 -64 5 -83 20 -92 70 l-5 36 78 -4 c70 -5 84 -2
119 18 l40 24 7 -41 c4 -22 5 -48 2 -57z m1086 58 c0 -65 -54 -96 -166 -96
-80 0 -110 14 -125 57 -6 19 -9 36 -7 38 2 3 29 0 60 -5 66 -10 170 2 201 24
32 22 37 20 37 -18z m-1358 -40 c6 -29 11 -28 -219 -52 -134 -15 -163 -20
-163 -33 0 -32 422 -531 449 -531 9 0 115 14 236 30 121 17 272 35 335 40 63
5 140 17 170 25 67 19 164 34 465 75 127 17 498 69 825 115 327 47 737 104
910 128 l315 43 3 -54 c2 -30 2 -55 0 -56 -2 -2 -608 -96 -1348 -210 -740
-114 -1664 -257 -2053 -319 -607 -95 -710 -109 -717 -97 -5 8 -117 188 -248
400 -132 212 -239 386 -238 387 1 1 67 10 147 18 79 9 153 18 164 22 20 5 19
5 -1 -18 -30 -34 -35 -54 -18 -78 12 -16 26 -21 60 -21 40 0 44 -2 44 -24 0
-17 -9 -29 -27 -38 -65 -31 -20 -81 72 -81 63 0 73 -16 23 -38 -40 -17 -47
-46 -19 -80 16 -20 28 -24 73 -24 l55 0 -29 -27 c-15 -14 -28 -33 -28 -42 0
-24 53 -46 112 -46 l52 0 -34 -29 c-29 -25 -33 -32 -24 -48 22 -36 54 -44 159
-40 143 5 215 41 215 105 0 21 -18 32 -51 32 -17 0 -19 7 -17 61 3 57 1 62
-30 90 -18 16 -39 29 -47 29 -11 0 -15 11 -15 38 0 46 -19 75 -60 92 -22 9
-30 19 -30 37 0 31 -42 73 -75 73 -20 0 -25 5 -25 23 0 24 -30 58 -65 72 -13
6 34 13 135 22 85 7 225 22 310 32 85 10 176 19 201 20 42 1 47 -2 51 -23z
m1889 -6 c20 -6 43 -18 50 -26 43 -52 -210 -122 -291 -81 -14 7 -26 21 -28 31
-5 24 34 64 72 75 43 13 154 13 197 1z m96 -143 c5 -42 3 -46 -25 -61 -39 -20
-243 -50 -286 -42 -43 8 -64 33 -68 78 -3 45 4 53 30 39 50 -27 250 -5 305 32
28 19 38 9 44 -46z m7922 -152 c36 -113 36 -265 1 -396 -9 -34 -15 -39 -39
-39 l-28 0 -7 118 c-8 127 -31 311 -46 355 -8 25 -6 29 28 46 l37 20 17 -22
c10 -12 27 -49 37 -82z m-9080 47 c41 -31 35 -63 -19 -89 -87 -43 -261 -53
-291 -17 -31 37 26 94 121 121 61 17 156 10 189 -15z m-1871 -372 l220 -355
-19 -285 c-10 -157 -21 -338 -25 -403 -4 -65 -10 -120 -15 -122 -4 -3 -106
190 -227 427 l-220 433 18 270 c9 149 18 261 19 250 3 -50 73 -64 93 -20 9 21
8 28 -7 45 -20 22 -55 26 -73 8 -9 -9 -12 4 -12 62 0 63 2 72 14 60 7 -8 113
-175 234 -370z m10816 195 c8 -60 17 -153 20 -206 l5 -96 -84 -7 c-155 -11
-264 -47 -315 -101 l-24 -26 -34 173 c-18 95 -34 190 -35 211 l-2 38 78 34
c121 53 111 55 136 -22 18 -59 38 -155 57 -280 5 -32 26 -44 39 -24 10 17 -16
193 -42 281 -14 47 -27 92 -29 100 -3 11 25 28 98 60 l103 46 7 -36 c4 -19 14
-84 22 -145z m-6429 104 c4 -17 5 -32 3 -35 -3 -2 -85 -11 -184 -19 -490 -42
-840 -84 -1179 -141 -1051 -176 -1758 -415 -2000 -676 -77 -83 -99 -134 -99
-223 0 -54 5 -80 23 -114 120 -228 535 -405 1281 -545 1130 -212 2799 -263
4280 -130 1248 112 2164 289 2761 535 159 65 238 106 345 178 155 103 223 195
232 311 4 58 1 76 -20 121 -37 78 -88 131 -190 199 -129 85 -350 173 -575 230
-41 10 -53 23 -35 34 5 3 129 -29 278 -70 312 -87 448 -122 822 -212 231 -56
272 -69 272 -84 0 -10 -3 -18 -7 -18 -5 0 -50 -7 -100 -15 -195 -32 -279 -78
-304 -167 -11 -41 -6 -217 7 -251 4 -11 -5 -16 -32 -22 -74 -13 -114 -60 -114
-133 0 -95 92 -141 354 -173 194 -23 569 7 751 62 91 27 137 51 180 94 42 43
48 96 14 139 l-20 26 48 0 c84 0 152 26 206 80 39 39 47 54 47 83 0 24 -6 39
-17 46 -14 8 -15 10 -3 10 8 0 263 -62 565 -138 377 -94 542 -139 525 -144
-14 -3 -241 -44 -505 -91 -264 -47 -703 -126 -975 -176 -272 -50 -891 -163
-1375 -250 -484 -88 -1188 -217 -1565 -286 -792 -145 -1078 -197 -3825 -694
-911 -165 -1728 -316 -2097 -389 -169 -34 -313 -61 -321 -61 -7 0 -121 174
-252 388 -131 213 -461 745 -733 1182 -272 437 -515 828 -539 868 -25 40 -44
74 -42 76 2 1 225 35 494 75 518 76 1802 272 2920 445 369 57 675 104 682 105
6 0 14 -13 18 -30z m-2458 -132 c-6 -16 -95 -43 -187 -56 -66 -9 -154 -1 -170
15 -5 5 -12 33 -16 63 -7 52 -6 53 14 42 27 -14 146 -14 214 0 57 12 127 46
129 63 1 6 6 -17 12 -51 5 -34 7 -68 4 -76z m8383 -79 c7 -40 25 -136 41 -212
16 -77 27 -141 26 -142 -1 0 -53 12 -114 29 -78 21 -110 33 -104 41 9 12 -19
160 -44 236 -9 25 -12 46 -8 48 5 1 46 18 93 37 47 18 88 34 92 34 3 1 12 -32
18 -71z m-209 -191 c12 -48 20 -90 17 -92 -5 -5 -131 26 -141 35 -10 8 -68
173 -63 177 2 2 34 14 72 27 l69 23 12 -41 c7 -23 22 -81 34 -129z m-4616 69
c59 -25 67 -49 63 -186 -3 -116 -4 -122 -28 -140 -51 -38 -172 -56 -218 -31
-33 18 -45 99 -32 222 5 57 14 106 18 110 38 38 135 50 197 25z m490 -176
c452 -25 787 -87 916 -168 86 -55 67 -108 -63 -171 -439 -211 -1752 -298
-2521 -165 -229 39 -411 110 -431 167 -46 130 462 276 1134 327 80 6 159 12
176 13 l32 3 4 -76 c6 -98 25 -133 83 -156 41 -15 54 -16 112 -5 76 14 108 29
142 65 20 21 25 39 29 103 l4 78 97 -2 c53 -2 182 -7 286 -13z m3650 -134 c28
-13 57 -26 66 -29 26 -9 78 -96 85 -142 13 -87 -66 -200 -207 -296 -32 -21
-67 -42 -76 -45 -10 -3 -86 -40 -170 -81 -213 -106 -252 -105 -267 8 -10 73
-55 120 -122 126 -45 5 -59 0 -157 -51 -114 -60 -186 -78 -226 -57 -11 7 -40
41 -62 76 -47 75 -116 139 -166 156 -84 27 -188 -4 -372 -114 -52 -31 -107
-59 -122 -62 -37 -8 -131 34 -179 80 -122 116 -208 115 -388 -3 -106 -70 -158
-90 -189 -74 -11 6 -30 38 -42 72 -12 33 -32 70 -44 81 -28 26 -90 59 -141 74
l-39 12 57 31 c49 26 61 29 87 20 58 -20 127 -5 244 53 102 50 115 54 180 54
65 0 79 -4 195 -60 l125 -60 102 0 103 0 150 78 c166 85 232 107 330 107 101
-1 143 -14 318 -102 135 -68 173 -82 221 -86 69 -5 91 5 176 78 197 171 382
225 530 156z m-8036 -78 c116 -109 216 -146 317 -118 26 7 81 38 123 68 106
77 138 88 205 73 29 -6 94 -36 146 -67 100 -59 172 -81 231 -70 20 3 80 29
133 56 85 43 106 50 157 50 72 0 127 -20 243 -89 176 -104 251 -115 416 -60
65 22 122 33 180 36 l85 5 16 -33 16 -34 -113 0 c-113 0 -113 0 -146 -31 -52
-49 -76 -58 -158 -57 -62 0 -102 9 -235 53 -194 64 -258 68 -394 26 -112 -34
-174 -33 -297 5 -114 35 -250 48 -306 30 -20 -7 -77 -38 -128 -71 -50 -32
-105 -62 -121 -65 -42 -9 -128 11 -255 61 -256 100 -343 97 -479 -15 -28 -23
-60 -44 -73 -47 -26 -7 -74 10 -96 35 -15 16 -12 22 36 69 29 29 76 68 103 88
48 35 299 164 318 164 5 0 39 -28 76 -62z m-779 -878 c293 -470 631 -1011 752
-1202 l219 -347 6 -758 c3 -417 3 -756 0 -753 -3 3 -164 316 -357 695 -194
380 -474 926 -623 1215 -148 289 -346 675 -439 858 l-170 332 21 353 c29 480
31 502 46 480 7 -10 252 -403 545 -873z m3235 600 c22 -9 22 -9 -50 -31 -117
-35 -215 -119 -215 -184 0 -34 -1 -35 -37 -35 -21 0 -84 9 -141 20 -126 25
-144 25 -172 2 -28 -22 -22 -48 22 -98 l30 -34 -27 -10 c-42 -16 -193 -11
-280 9 -44 10 -127 31 -186 47 -58 15 -112 25 -122 21 -15 -5 -14 -12 10 -63
24 -53 25 -60 12 -83 -22 -39 -64 -54 -159 -59 -79 -4 -95 -1 -228 42 -163 53
-224 58 -246 24 -7 -13 -19 -40 -26 -61 -23 -72 -106 -99 -244 -78 -44 7 -161
39 -261 71 -99 32 -232 75 -295 95 -163 52 -277 113 -357 192 -36 35 -63 67
-60 69 3 3 39 -17 81 -45 113 -73 229 -105 300 -81 51 16 57 48 20 101 l-28
41 22 19 c32 26 104 34 171 19 31 -7 117 -40 191 -75 196 -91 275 -110 380
-89 50 10 96 61 115 127 23 81 34 89 119 86 72 -2 137 -21 360 -103 129 -48
206 -56 269 -28 55 24 66 52 43 106 -15 36 -15 37 10 46 35 14 127 -9 262 -63
98 -38 115 -42 197 -42 88 0 92 1 203 54 62 29 132 59 155 66 47 15 132 18
162 5z m1660 -3080 c-10 -11 -47 -35 -82 -52 -51 -25 -81 -32 -145 -36 -78 -5
-210 15 -178 26 16 6 386 79 409 81 10 1 9 -4 -4 -19z m-5090 -618 c-3 -8 2
-26 10 -40 8 -15 35 -155 60 -312 25 -157 48 -297 51 -311 l5 -27 -156 -7
c-86 -4 -158 -5 -160 -3 -7 6 155 739 172 778 7 19 26 -58 18 -78z"/>
<path d="M7647 16506 c-3 -7 -8 -59 -12 -114 -7 -96 -6 -102 11 -102 47 -1 47
2 14 -341 -18 -178 -32 -324 -33 -325 -1 0 -18 -5 -37 -10 l-35 -10 -12 -104
c-6 -58 -10 -107 -8 -108 7 -8 601 119 620 132 11 8 47 38 78 68 l58 55 -2
137 c0 75 2 140 5 143 3 4 6 67 6 142 l-1 136 -58 63 -57 63 -240 83 c-131 46
-251 89 -266 94 -20 8 -27 8 -31 -2z m383 -150 c129 -46 137 -50 188 -104 l53
-57 -3 -118 c-3 -110 -5 -120 -26 -137 l-23 -19 22 -11 c20 -11 21 -18 18
-132 l-4 -119 -60 -53 -60 -54 -255 -52 c-140 -28 -265 -54 -277 -57 -20 -4
-23 -1 -23 25 0 16 3 50 6 75 6 44 8 46 43 49 l36 3 32 330 c18 182 32 343 30
360 -1 21 -8 31 -22 33 -34 6 -37 18 -30 90 l7 70 106 -38 c59 -20 168 -59
242 -84z"/>
<path d="M7866 16246 c-3 -17 -8 -76 -12 -132 l-6 -101 53 -6 c30 -4 93 -10
140 -13 l87 -7 4 104 c3 57 2 107 -1 111 -3 4 -63 22 -133 41 l-126 33 -6 -30z
m144 -50 l85 -23 -4 -74 c-1 -41 -4 -75 -6 -77 -5 -5 -183 11 -194 17 -7 4 -8
37 -4 94 7 101 0 97 123 63z"/>
<path d="M7823 15753 c-6 -71 -9 -130 -7 -132 8 -9 286 33 289 43 2 6 6 57 10
114 l6 102 -144 0 -144 0 -10 -127z m210 81 l46 -7 -6 -71 c-3 -39 -7 -72 -7
-73 -4 -5 -209 -33 -214 -29 -2 3 -1 46 3 95 l7 91 63 0 c34 0 83 -3 108 -6z"/>
<path d="M5982 14128 c-11 -13 -25 -36 -31 -51 -15 -40 -13 -134 4 -182 14
-37 13 -42 -5 -67 -28 -38 -25 -47 23 -68 196 -87 436 -16 564 167 71 101 63
123 -40 123 -154 0 -319 -45 -423 -116 -47 -31 -70 -41 -75 -33 -15 24 -20 99
-9 138 18 68 49 85 100 56 34 -20 62 -19 58 1 -4 24 -66 54 -109 54 -24 0 -42
-7 -57 -22z m202 -212 c25 -39 83 -78 134 -91 l46 -12 -55 -20 c-85 -33 -157
-38 -243 -18 -42 9 -78 20 -81 25 -9 14 148 140 176 140 4 0 14 -11 23 -24z"/>
<path d="M9241 12283 c-43 -90 -134 -215 -223 -309 -164 -171 -331 -293 -739
-541 -320 -195 -349 -215 -349 -235 0 -26 25 -22 73 10 23 16 148 93 277 172
263 160 461 291 565 375 99 79 247 228 311 313 64 84 148 237 139 252 -13 21
-32 8 -54 -37z"/>
<path d="M8340 11824 c-189 -190 -377 -335 -590 -454 -112 -62 -106 -58 -93
-71 22 -22 285 135 463 278 106 85 350 321 350 339 0 31 -30 9 -130 -92z"/>
<path d="M2551 6374 c-26 -33 -27 -65 -3 -93 44 -54 132 -24 132 45 0 71 -86
103 -129 48z"/>
<path d="M3815 5104 c-82 -7 -153 -13 -157 -13 -5 -1 -8 -8 -8 -17 0 -15 289
-450 441 -664 l74 -104 55 3 c64 3 310 28 358 37 22 4 32 12 32 24 0 10 -113
157 -251 326 -139 170 -273 335 -298 366 -35 44 -52 58 -71 57 -14 -1 -92 -7
-175 -15z m462 -367 c156 -187 282 -342 280 -343 -1 -1 -74 -7 -162 -13 -88
-6 -173 -13 -190 -15 -28 -3 -34 2 -74 66 -24 38 -129 194 -233 345 -104 151
-188 277 -186 279 3 3 209 20 263 22 14 0 99 -95 302 -341z"/>
<path d="M4010 4128 c-41 -44 -15 -112 47 -124 65 -13 111 78 63 126 -27 27
-83 27 -110 -2z"/>
<path d="M3764 3874 c-59 -29 -71 -98 -25 -145 56 -56 145 -27 157 52 5 30 2
41 -22 67 -36 37 -70 46 -110 26z"/>
<path d="M3725 2935 c-35 -34 -34 -93 1 -129 59 -59 154 -20 154 64 0 56 -34
90 -90 90 -30 0 -47 -6 -65 -25z"/>
<path d="M8402 17988 c-7 -7 -12 -22 -12 -35 0 -13 -6 -23 -13 -23 -19 0 -47
-33 -47 -54 0 -11 12 -22 30 -29 l30 -11 0 -153 c0 -90 -4 -154 -10 -158 -13
-8 -13 -58 -1 -70 5 -6 11 -77 13 -158 2 -133 1 -150 -15 -158 -22 -13 -23
-65 -1 -73 9 -3 64 -3 123 0 58 3 163 1 233 -5 139 -12 178 -6 178 29 0 11
-11 27 -24 35 -28 19 -211 45 -318 45 l-78 0 0 141 0 140 120 -2 c131 -3 159
7 146 49 -10 30 -57 42 -167 42 l-98 0 -6 33 c-3 17 -5 91 -3 162 l3 130 159
5 c132 4 161 8 169 21 14 23 2 48 -29 60 -15 5 -92 9 -172 8 -135 -1 -145 0
-158 20 -17 24 -34 27 -52 9z"/>
<path d="M7706 17949 c-33 -26 -97 -152 -136 -267 -52 -157 -110 -525 -90
-578 10 -26 43 -33 57 -11 4 6 18 76 30 153 31 203 70 368 106 454 l32 75 6
-65 c4 -36 12 -110 18 -165 18 -173 54 -255 111 -255 41 0 71 42 118 162 23
57 46 117 52 133 12 30 12 30 21 7 5 -12 13 -102 19 -200 14 -222 18 -246 49
-250 13 -2 27 2 32 9 26 43 14 417 -17 527 -12 44 -21 56 -46 67 -70 29 -111
-21 -188 -229 -27 -70 -35 -84 -41 -68 -13 34 -28 162 -35 292 -7 138 -17 191
-40 215 -20 20 -26 19 -58 -6z"/>
<path d="M7245 17910 c-28 -4 -65 -15 -83 -24 -27 -14 -33 -22 -30 -44 2 -22
9 -28 35 -30 l31 -3 1 -207 c0 -114 3 -270 7 -347 l6 -140 -31 -17 c-30 -17
-41 -49 -23 -73 4 -6 69 -10 160 -10 l152 0 0 26 c0 30 -27 46 -93 55 -88 11
-84 8 -83 66 1 29 -3 191 -8 360 l-8 307 25 6 c14 4 33 5 43 4 48 -8 64 54 18
71 -28 11 -45 11 -119 0z"/>
<path d="M6594 17880 c-14 -14 -156 -42 -182 -35 -31 8 -52 -11 -52 -45 0 -47
30 -51 188 -25 l32 6 0 -68 c0 -37 -5 -188 -12 -335 -13 -283 -9 -318 31 -318
40 0 50 81 60 480 l6 255 116 6 c64 4 125 10 136 13 29 9 37 36 18 55 -13 13
-45 16 -174 18 -87 1 -162 -2 -167 -7z"/>
<path d="M1300 16264 c-76 -21 -127 -53 -238 -152 -144 -128 -253 -168 -388
-143 -92 17 -165 57 -262 146 -76 69 -111 87 -118 60 -1 -5 35 -44 82 -85 151
-135 286 -185 433 -160 103 17 173 56 294 163 127 112 179 137 302 144 65 4
92 1 145 -17 77 -26 98 -40 214 -143 142 -127 269 -172 415 -147 102 17 175
56 282 151 52 47 110 94 129 106 113 69 295 69 410 0 19 -12 77 -59 129 -105
80 -70 154 -122 176 -122 3 0 5 9 5 20 0 12 -12 26 -30 35 -17 9 -73 54 -125
100 -52 46 -114 95 -137 109 -86 50 -224 69 -327 45 -80 -18 -147 -58 -250
-149 -116 -103 -171 -134 -265 -151 -52 -10 -80 -10 -132 0 -94 17 -149 48
-266 151 -142 125 -221 160 -358 159 -36 0 -90 -7 -120 -15z"/>
<path d="M12387 16261 c4 -14 17 -20 59 -24 82 -8 169 -54 260 -136 138 -126
204 -161 330 -175 72 -9 181 12 250 47 27 14 98 68 157 121 127 111 179 136
302 143 65 4 92 1 145 -17 77 -26 98 -40 214 -143 142 -127 269 -172 415 -147
100 17 173 56 282 152 53 47 112 94 130 105 112 69 295 69 409 0 19 -12 78
-59 130 -106 56 -49 120 -96 155 -112 58 -28 209 -58 222 -45 14 14 -24 33
-85 44 -97 17 -160 52 -265 145 -53 47 -116 97 -139 111 -125 73 -321 73 -446
0 -23 -14 -85 -63 -137 -109 -109 -97 -166 -129 -259 -146 -52 -10 -80 -10
-132 0 -94 17 -155 51 -267 151 -100 89 -170 131 -248 149 -104 24 -241 5
-327 -45 -24 -14 -87 -64 -140 -112 -145 -128 -252 -168 -389 -143 -93 16
-156 52 -265 150 -124 110 -226 161 -330 161 -30 0 -35 -3 -31 -19z"/>
<path d="M3770 15968 c-114 -105 -270 -143 -408 -100 -55 18 -64 18 -69 5 -8
-21 5 -30 72 -47 75 -20 155 -20 228 -1 77 20 124 45 195 105 47 38 59 54 55
70 -3 11 -8 20 -12 20 -3 -1 -31 -24 -61 -52z"/>
<path d="M1347 15909 c-90 -13 -171 -58 -277 -155 -59 -53 -120 -98 -160 -117
-60 -30 -73 -32 -170 -32 -97 0 -110 2 -170 31 -36 17 -95 57 -130 89 -36 33
-77 70 -93 84 -24 22 -29 23 -42 10 -14 -14 -5 -24 80 -100 101 -89 158 -124
240 -145 112 -30 259 -8 355 54 25 17 83 64 130 106 135 122 245 161 379 137
96 -18 156 -51 259 -144 139 -126 228 -167 362 -167 134 0 209 34 352 160 114
100 172 133 269 151 79 14 168 2 244 -35 27 -14 93 -64 145 -111 95 -85 124
-101 118 -66 -5 30 -176 179 -244 211 -137 66 -317 57 -440 -23 -22 -14 -77
-60 -124 -102 -51 -46 -111 -90 -150 -109 -60 -29 -73 -31 -170 -31 -97 0
-110 2 -170 31 -39 18 -97 60 -145 103 -43 40 -99 86 -122 103 -85 58 -211 84
-326 67z"/>
<path d="M13681 15909 c-88 -15 -168 -60 -271 -154 -60 -55 -119 -99 -160
-119 -60 -29 -73 -31 -170 -31 -97 0 -110 2 -171 31 -39 19 -97 60 -145 103
-105 96 -149 126 -222 150 -75 26 -72 25 -72 1 0 -13 9 -22 28 -26 60 -15 142
-67 230 -147 132 -119 215 -156 353 -157 79 0 176 27 239 68 25 16 82 64 128
105 133 122 247 163 381 138 96 -18 156 -51 259 -144 139 -126 228 -167 362
-167 134 0 220 40 361 166 106 96 167 130 261 146 137 22 245 -17 378 -138 47
-43 105 -90 130 -106 58 -37 159 -68 223 -68 48 0 49 1 33 19 -11 12 -36 20
-72 24 -86 9 -167 54 -274 151 -58 53 -119 98 -156 116 -111 54 -250 58 -372
12 -61 -24 -97 -49 -202 -146 -44 -40 -102 -82 -140 -100 -60 -29 -73 -31
-170 -31 -97 0 -110 2 -170 31 -39 18 -97 60 -145 103 -100 92 -152 128 -218
150 -67 23 -167 32 -236 20z"/>
<path d="M12276 15789 c-67 -16 -148 -67 -246 -155 -87 -78 -130 -106 -202
-133 -16 -6 -28 -18 -28 -27 0 -13 6 -15 33 -10 61 12 134 58 228 143 59 54
118 97 159 117 60 29 73 31 168 31 97 0 103 1 100 20 -3 18 -11 20 -88 22 -47
1 -102 -3 -124 -8z"/>
<path d="M1300 15534 c-76 -21 -127 -53 -238 -152 -105 -93 -167 -127 -261
-143 -130 -23 -242 18 -381 140 -84 75 -119 93 -126 66 -5 -18 188 -177 250
-206 126 -58 270 -58 392 1 37 18 100 65 155 115 56 51 120 98 159 117 61 31
72 33 170 33 146 -1 186 -18 326 -142 122 -107 193 -146 297 -163 153 -24 268
20 430 163 138 122 181 141 322 141 130 0 185 -21 286 -109 41 -35 77 -65 82
-65 4 0 7 10 7 23 -1 25 -69 89 -146 136 -126 78 -323 80 -452 5 -23 -14 -86
-64 -139 -111 -105 -93 -168 -128 -262 -144 -132 -24 -242 18 -384 144 -53 47
-116 97 -139 111 -92 53 -236 70 -348 40z"/>
<path d="M13642 15534 c-91 -24 -126 -47 -266 -174 -114 -104 -233 -143 -362
-121 -93 17 -164 57 -272 154 -81 74 -176 137 -187 125 -11 -11 10 -45 35 -56
15 -7 74 -54 131 -104 116 -102 188 -142 292 -158 150 -23 271 21 418 155 123
111 194 147 305 153 144 8 224 -28 379 -168 130 -118 258 -163 403 -140 103
16 174 56 295 163 138 122 181 141 322 141 141 0 184 -19 322 -141 124 -110
194 -148 302 -163 119 -17 121 18 3 38 -97 17 -158 51 -264 144 -53 48 -116
98 -140 112 -125 73 -321 73 -446 0 -24 -14 -87 -64 -140 -112 -105 -93 -167
-127 -261 -143 -132 -24 -242 18 -384 144 -53 47 -116 97 -139 111 -91 53
-236 70 -346 40z"/>
<path d="M12301 15429 c-81 -16 -163 -64 -267 -156 -108 -96 -166 -129 -255
-146 -42 -7 -59 -15 -62 -29 -6 -22 9 -23 85 -7 88 19 150 55 259 151 65 58
127 102 168 122 60 28 75 31 161 30 63 0 110 -6 139 -17 24 -10 45 -16 47 -14
2 2 1 13 -2 24 -11 40 -165 63 -273 42z"/>
<path d="M13675 15178 c-80 -15 -164 -62 -250 -139 -116 -104 -151 -127 -228
-151 -53 -16 -86 -19 -146 -16 -106 6 -181 43 -291 142 -47 42 -93 82 -103 87
-16 9 -17 7 -11 -18 7 -26 84 -106 158 -161 110 -83 256 -112 391 -77 85 23
138 55 245 152 141 128 248 168 386 145 96 -16 156 -49 263 -146 52 -47 116
-96 141 -110 133 -73 307 -73 439 0 25 14 89 63 141 110 107 96 169 131 263
147 136 23 246 -19 389 -148 51 -46 114 -96 139 -109 56 -31 149 -56 208 -56
42 0 43 1 27 19 -11 12 -37 21 -74 25 -87 10 -165 53 -272 151 -109 99 -183
139 -286 156 -152 25 -274 -20 -424 -157 -59 -53 -120 -98 -160 -117 -60 -30
-73 -32 -170 -32 -97 0 -110 2 -170 31 -41 20 -100 64 -160 118 -107 97 -183
140 -280 155 -75 12 -96 12 -165 -1z"/>
<path d="M12265 15057 c-73 -25 -126 -58 -208 -131 -45 -39 -98 -84 -118 -99
-55 -41 -143 -68 -226 -68 -63 -1 -72 -3 -76 -21 -6 -20 -2 -20 92 -16 89 3
105 7 173 41 47 23 103 63 154 109 103 95 131 115 200 138 70 24 189 26 261 5
28 -8 74 -31 102 -49 46 -31 51 -33 51 -15 0 29 -44 65 -109 90 -70 28 -234
36 -296 16z"/>
<path d="M4020 15050 c-54 -15 -109 -52 -210 -140 -58 -51 -127 -103 -155
-116 -106 -49 -244 -49 -350 1 -29 14 -88 57 -131 96 -71 62 -80 68 -87 51 -7
-16 1 -29 43 -68 122 -114 212 -154 350 -154 144 0 221 36 381 179 45 41 108
85 139 100 43 20 56 30 51 42 -4 11 -13 14 -31 9z"/>
<path d="M1290 14801 c-85 -27 -112 -45 -222 -143 -114 -100 -175 -134 -272
-149 -133 -21 -239 19 -375 141 -84 75 -119 93 -127 65 -5 -18 193 -179 258
-210 60 -28 70 -30 188 -30 121 0 128 1 192 33 40 20 102 65 159 117 55 50
121 98 159 117 61 31 70 33 175 33 142 0 183 -19 325 -144 62 -55 129 -104
169 -124 63 -31 70 -32 191 -32 121 0 128 1 191 32 40 20 107 69 169 124 58
52 128 103 159 118 50 23 68 26 166 26 103 0 115 -2 172 -30 57 -28 62 -29 66
-13 17 63 -229 111 -364 72 -78 -23 -128 -55 -237 -152 -142 -125 -251 -167
-383 -143 -94 16 -156 50 -261 143 -109 97 -159 129 -237 152 -72 21 -191 20
-261 -3z"/>
<path d="M13628 14801 c-80 -26 -130 -58 -233 -152 -100 -91 -158 -122 -256
-139 -111 -19 -240 17 -325 92 -22 18 -48 40 -58 48 -18 14 -19 13 -12 -15 11
-45 52 -82 135 -123 74 -37 76 -37 200 -37 121 0 128 1 191 32 39 19 103 66
160 118 55 50 122 99 160 118 61 30 70 32 175 32 142 0 183 -19 326 -145 65
-59 128 -104 169 -124 62 -30 71 -31 190 -31 119 0 128 1 190 31 42 20 99 62
160 117 56 52 121 100 160 119 61 31 70 33 175 33 105 0 114 -2 175 -33 38
-19 104 -67 159 -117 122 -111 193 -147 304 -153 74 -4 81 -3 67 11 -8 9 -43
20 -78 26 -94 15 -158 49 -256 137 -114 102 -155 130 -234 154 -117 36 -259
22 -360 -37 -24 -14 -87 -63 -140 -111 -107 -94 -170 -128 -266 -143 -134 -21
-238 18 -379 144 -109 97 -158 128 -236 151 -72 21 -191 20 -263 -3z"/>
<path d="M4070 14698 c-73 -13 -160 -62 -245 -139 -116 -104 -151 -127 -228
-151 -54 -16 -85 -19 -141 -15 -110 8 -172 37 -272 125 -47 42 -103 90 -123
105 -32 25 -36 26 -42 10 -5 -12 0 -25 15 -38 13 -11 62 -55 110 -97 101 -89
165 -123 265 -140 91 -16 192 0 276 43 33 16 103 68 155 115 101 92 154 124
238 144 31 7 52 17 52 25 0 20 -10 23 -60 13z"/>
<path d="M12285 14696 c-85 -20 -139 -53 -246 -148 -137 -121 -202 -152 -319
-153 -47 0 -102 4 -122 9 -34 7 -38 6 -38 -12 0 -22 19 -29 107 -38 137 -14
254 33 397 161 121 107 194 144 299 152 126 10 226 -29 332 -128 36 -34 68
-59 71 -57 27 28 -83 140 -182 185 -93 42 -201 53 -299 29z"/>
<path d="M1323 14445 c-85 -18 -147 -54 -240 -138 -114 -102 -149 -125 -226
-149 -55 -16 -85 -20 -148 -15 -109 7 -180 43 -293 146 -50 44 -93 81 -97 81
-3 0 -11 -6 -17 -13 -8 -9 11 -32 79 -92 49 -44 110 -92 137 -107 72 -41 164
-61 252 -55 133 9 203 47 365 195 135 125 306 154 468 79 29 -13 94 -62 147
-110 52 -48 116 -98 141 -111 132 -73 306 -73 438 0 25 13 89 63 141 111 163
148 284 181 468 127 18 -5 22 -2 22 14 0 16 -9 24 -37 31 -116 31 -225 21
-329 -29 -33 -16 -95 -61 -138 -100 -42 -39 -96 -84 -118 -100 -53 -39 -155
-70 -228 -70 -73 0 -174 31 -227 69 -22 16 -76 61 -119 100 -91 82 -173 127
-259 141 -76 12 -105 12 -182 -5z"/>
<path d="M12250 14322 c-74 -25 -119 -55 -220 -147 -52 -47 -110 -90 -150
-109 -61 -29 -72 -31 -175 -31 -93 1 -118 4 -159 23 -39 18 -51 20 -58 10 -13
-22 -10 -26 50 -50 48 -19 75 -23 173 -23 113 0 116 1 190 37 48 24 107 67
169 123 52 47 118 97 146 110 107 50 240 51 350 1 28 -13 88 -57 134 -97 91
-82 159 -133 166 -126 23 23 -186 213 -286 261 -58 27 -77 31 -170 33 -80 2
-118 -1 -160 -15z"/>
<path d="M1306 14079 c-67 -16 -148 -67 -244 -154 -52 -46 -117 -96 -145 -109
-78 -38 -171 -50 -256 -32 -95 20 -135 43 -246 141 -83 74 -99 84 -112 73 -14
-11 -6 -21 58 -81 148 -137 232 -177 375 -177 150 0 218 32 395 189 40 35 98
76 128 90 50 23 68 26 166 26 98 0 116 -3 166 -26 31 -15 93 -60 139 -100 159
-143 236 -179 380 -179 144 0 221 36 380 179 111 98 168 124 290 129 88 4 116
14 104 34 -9 14 -159 8 -215 -8 -86 -26 -122 -48 -231 -145 -57 -51 -126 -103
-155 -116 -109 -50 -235 -50 -348 1 -27 12 -97 64 -155 115 -112 99 -144 120
-229 145 -59 17 -181 20 -245 5z"/>
<path d="M4051 13965 c-83 -24 -146 -63 -245 -153 -132 -120 -232 -161 -364
-149 -97 10 -172 49 -290 153 -154 136 -290 193 -292 122 0 -5 10 -8 23 -8 45
0 145 -59 233 -137 152 -137 222 -168 369 -167 146 1 214 33 369 175 49 44
105 84 145 103 58 27 77 30 156 31 50 0 102 -3 118 -8 30 -8 34 0 14 27 -19
25 -161 32 -236 11z"/>
<path d="M12285 13966 c-85 -20 -140 -53 -246 -147 -55 -49 -122 -100 -148
-113 -134 -68 -304 -55 -423 33 -38 28 -43 30 -49 14 -9 -25 15 -49 85 -83 83
-40 186 -56 272 -42 102 17 176 58 297 165 138 122 181 141 322 142 91 0 106
-3 166 -31 42 -20 98 -61 157 -115 82 -74 196 -149 229 -149 28 0 -4 41 -50
64 -29 14 -94 63 -145 109 -51 47 -114 96 -141 110 -97 53 -219 69 -326 43z"/>
<path d="M2787 13596 c-4 -10 13 -16 65 -25 96 -16 168 -55 273 -151 123 -112
203 -151 322 -157 101 -6 188 12 258 53 24 14 83 61 132 105 171 156 326 193
499 118 26 -11 48 -18 50 -16 2 1 -2 14 -9 27 -20 40 -110 62 -232 58 -129 -5
-198 -35 -315 -139 -120 -108 -148 -126 -223 -150 -54 -17 -86 -21 -151 -17
-110 6 -185 41 -291 137 -105 96 -156 130 -227 153 -71 22 -144 24 -151 4z"/>
<path d="M12248 13591 c-77 -25 -112 -48 -215 -142 -54 -50 -113 -93 -153
-113 -61 -29 -72 -31 -175 -31 -97 0 -116 3 -166 26 -30 14 -84 52 -120 84
-58 52 -64 55 -67 35 -4 -27 42 -77 111 -122 133 -85 322 -91 463 -14 27 15
91 65 142 111 103 93 165 127 259 144 135 25 242 -15 389 -144 54 -48 117 -98
139 -111 43 -25 170 -62 180 -53 15 16 -12 36 -69 53 -77 22 -114 46 -230 149
-55 49 -113 91 -155 110 -59 28 -77 32 -171 34 -81 2 -118 -1 -162 -16z"/>
<path d="M2718 13243 c-10 -2 -18 -12 -18 -21 0 -15 10 -17 74 -14 82 4 167
-15 226 -51 19 -12 78 -60 130 -106 140 -125 262 -172 399 -155 123 15 188 50
325 175 48 43 106 84 145 103 60 28 74 31 166 31 122 -1 189 -24 265 -91 49
-45 50 -45 50 -19 0 70 -168 155 -307 155 -135 0 -225 -40 -358 -159 -53 -47
-120 -98 -147 -113 -74 -39 -172 -54 -255 -39 -93 17 -148 48 -263 150 -103
91 -157 124 -245 147 -48 13 -150 17 -187 7z"/>
<path d="M12270 13234 c-73 -19 -140 -62 -246 -158 -134 -120 -252 -163 -385
-138 -91 17 -153 51 -253 142 -48 44 -92 80 -97 80 -54 0 112 -168 215 -219
127 -62 276 -63 401 -1 33 16 108 72 168 124 138 121 182 140 322 141 92 0
106 -3 166 -31 40 -19 97 -60 145 -104 140 -128 207 -162 345 -176 66 -6 71
-5 67 12 -2 14 -19 20 -83 29 -109 16 -174 50 -282 148 -50 46 -117 97 -150
114 -100 53 -222 67 -333 37z"/>
<path d="M13655 12986 c-97 -24 -157 -65 -300 -199 -16 -16 -64 -45 -105 -65
-91 -43 -84 -37 -73 -55 7 -14 14 -13 60 3 65 23 95 43 207 143 54 49 115 92
155 111 60 28 75 31 166 31 91 0 106 -3 165 -31 38 -18 98 -61 145 -103 159
-144 225 -175 375 -175 150 0 216 31 374 175 48 43 106 84 145 103 60 28 75
31 166 31 91 0 106 -3 166 -31 39 -19 97 -60 145 -103 142 -130 208 -164 340
-177 69 -6 69 -6 49 13 -12 12 -46 24 -82 31 -90 16 -157 53 -263 149 -102 91
-157 125 -247 148 -105 27 -217 14 -321 -39 -26 -13 -90 -63 -142 -110 -145
-131 -256 -173 -396 -149 -94 16 -156 51 -260 145 -50 46 -113 95 -141 110
-99 54 -221 71 -328 44z"/>
<path d="M1276 12610 c-73 -26 -119 -57 -221 -151 -48 -43 -106 -85 -145 -103
-60 -29 -73 -31 -175 -31 -100 0 -115 3 -167 28 -31 15 -100 66 -153 114 -85
75 -98 84 -111 71 -13 -13 -5 -23 63 -85 43 -38 98 -84 122 -101 128 -92 351
-96 489 -8 20 13 75 58 122 101 223 204 428 202 655 -6 123 -112 205 -151 328
-157 155 -8 247 31 389 163 37 34 68 72 72 88 6 25 5 27 -11 18 -10 -5 -52
-40 -93 -78 -41 -38 -89 -79 -107 -91 -88 -62 -246 -80 -356 -43 -67 23 -106
50 -217 150 -50 44 -109 86 -149 104 -59 28 -78 32 -171 34 -86 3 -116 0 -164
-17z"/>
<path d="M13616 12610 c-73 -26 -119 -57 -221 -150 -44 -40 -95 -80 -112 -88
-24 -11 -33 -23 -33 -39 l0 -24 50 27 c27 15 89 63 137 106 102 92 175 133
265 147 131 21 247 -19 365 -127 161 -145 238 -182 383 -182 140 0 228 40 355
160 84 79 132 111 200 133 166 52 298 14 455 -128 47 -43 102 -88 122 -101 56
-36 151 -64 214 -64 55 0 57 1 40 19 -11 12 -35 20 -70 23 -81 7 -169 54 -271
147 -57 52 -117 95 -164 119 -74 37 -76 37 -196 37 -120 0 -122 0 -196 -37
-47 -24 -105 -65 -159 -116 -143 -130 -206 -157 -354 -150 -120 6 -175 32
-298 143 -60 55 -119 98 -167 122 -70 36 -81 38 -180 41 -87 2 -117 -1 -165
-18z"/>
<path d="M1315 12256 c-82 -20 -142 -56 -248 -150 -64 -56 -125 -100 -166
-120 -58 -27 -76 -31 -156 -31 -123 0 -190 26 -291 114 -132 114 -133 114
-149 101 -11 -9 0 -24 63 -82 134 -122 204 -159 327 -173 134 -15 257 32 391
152 115 103 137 117 214 143 53 18 80 21 147 17 110 -6 184 -41 289 -136 158
-144 224 -175 374 -174 107 0 179 21 252 71 55 38 74 60 80 95 6 31 0 28 -62
-29 -52 -48 -156 -93 -231 -100 -134 -13 -228 27 -371 155 -51 46 -118 96
-148 111 -97 49 -210 62 -315 36z"/>
<path d="M13655 12256 c-28 -7 -72 -22 -98 -35 -61 -30 -237 -187 -237 -212 0
-10 4 -19 8 -19 5 0 55 40 111 89 145 127 221 158 357 148 102 -8 179 -45 280
-136 43 -40 98 -86 122 -103 123 -86 307 -99 449 -32 28 14 98 66 155 116 65
58 127 103 168 122 59 28 74 31 165 31 91 0 106 -3 165 -31 40 -19 104 -65
165 -119 61 -54 125 -100 163 -118 63 -29 205 -58 219 -44 15 15 -24 35 -90
45 -97 15 -145 42 -264 147 -139 123 -230 165 -358 165 -127 0 -219 -42 -357
-164 -118 -104 -193 -143 -290 -153 -133 -12 -227 28 -370 156 -51 46 -118 96
-148 111 -97 49 -210 62 -315 36z"/>
<path d="M2711 12149 c-29 -5 -81 -22 -115 -39 -76 -36 -173 -125 -179 -162
-2 -16 -2 -28 0 -28 3 0 36 29 75 65 117 108 237 150 369 126 92 -16 152 -50
259 -145 52 -47 116 -96 141 -110 96 -53 231 -70 335 -42 80 21 145 61 246
153 141 127 252 168 388 145 95 -17 157 -51 260 -145 90 -82 178 -138 243
-153 20 -5 27 -2 27 9 0 9 -29 30 -72 51 -48 23 -106 65 -168 121 -54 49 -121
99 -155 115 -108 53 -234 60 -351 20 -70 -24 -114 -55 -214 -145 -53 -48 -110
-90 -150 -109 -60 -29 -73 -31 -170 -31 -97 0 -110 2 -170 31 -41 20 -100 63
-160 118 -107 98 -182 139 -280 155 -73 12 -84 12 -159 0z"/>
<path d="M1280 11882 c-72 -24 -118 -54 -215 -142 -44 -40 -96 -83 -116 -95
-88 -56 -228 -71 -340 -35 -72 23 -103 44 -214 144 -67 61 -78 68 -91 54 -13
-13 -4 -24 81 -100 146 -130 236 -165 393 -155 115 7 195 47 322 162 105 95
163 127 259 145 138 25 250 -18 401 -154 142 -128 231 -163 386 -153 103 6
189 41 196 80 l5 24 -66 -31 c-61 -29 -74 -31 -171 -31 -97 0 -110 2 -170 31
-40 19 -99 62 -155 113 -57 52 -117 95 -164 119 -70 35 -81 37 -180 39 -81 2
-119 -1 -161 -15z"/>
<path d="M13620 11882 c-100 -33 -230 -134 -230 -178 0 -13 3 -24 6 -24 3 0
35 27 71 60 111 102 234 142 361 120 92 -16 163 -56 270 -153 141 -128 232
-164 390 -154 115 7 195 47 321 161 52 46 117 96 146 110 112 55 248 55 361
-1 28 -13 93 -63 145 -109 123 -111 205 -153 315 -161 79 -6 79 -6 61 14 -12
14 -35 22 -73 26 -82 8 -168 54 -259 136 -149 137 -224 171 -369 171 -148 0
-220 -33 -371 -171 -48 -43 -106 -85 -145 -103 -60 -29 -73 -31 -170 -31 -97
0 -110 2 -171 31 -42 20 -97 60 -155 113 -58 53 -115 95 -163 119 -70 35 -81
37 -180 39 -81 2 -119 -1 -161 -15z"/>
<path d="M1300 11524 c-74 -20 -140 -61 -235 -150 -96 -88 -167 -128 -258
-145 -137 -25 -256 19 -395 146 -76 69 -111 87 -118 60 -3 -11 143 -142 201
-182 87 -59 220 -83 331 -59 100 20 155 51 264 148 52 46 111 94 130 105 91
55 227 68 332 32 75 -25 97 -40 212 -142 154 -138 279 -176 459 -141 19 4 27
12 27 26 0 18 -4 20 -32 14 -114 -24 -202 -14 -293 31 -27 14 -93 65 -147 112
-54 48 -118 98 -144 110 -102 51 -225 64 -334 35z"/>
<path d="M1355 11170 c-112 -17 -171 -51 -305 -174 -44 -40 -102 -82 -140
-100 -60 -29 -73 -31 -170 -31 -97 0 -110 2 -171 31 -41 20 -100 62 -158 114
-81 73 -94 81 -107 68 -13 -13 -7 -21 47 -69 34 -30 76 -67 93 -82 17 -16 64
-45 103 -64 60 -29 88 -36 157 -40 151 -10 246 28 385 154 113 101 159 129
250 149 64 15 86 15 144 5 99 -16 160 -50 265 -144 136 -123 228 -167 353
-167 52 0 69 9 69 35 0 1 -37 4 -83 7 -111 6 -186 41 -292 137 -43 40 -99 86
-122 103 -83 57 -212 84 -318 68z"/>
<path d="M13689 11170 c-71 -11 -169 -54 -169 -74 0 -26 15 -26 66 0 110 54
250 54 359 -2 29 -14 93 -63 144 -108 138 -125 227 -166 361 -166 134 0 220
40 360 166 105 94 164 127 262 145 52 9 79 9 129 0 97 -19 155 -52 259 -145
134 -121 226 -166 344 -166 47 0 48 1 32 19 -11 12 -36 20 -72 24 -83 9 -167
54 -264 142 -147 134 -218 167 -365 167 -146 0 -216 -32 -365 -167 -51 -46
-111 -90 -150 -109 -60 -29 -73 -31 -170 -31 -97 0 -110 2 -170 31 -38 18 -98
61 -145 104 -44 39 -102 87 -130 105 -82 55 -209 81 -316 65z"/>
<path d="M2654 11040 c-75 -24 -118 -53 -230 -154 -92 -82 -160 -121 -231
-132 -30 -4 -43 -11 -47 -26 -4 -19 -2 -20 47 -15 80 10 165 58 268 152 55 50
121 98 159 117 61 31 70 33 175 33 105 0 114 -2 175 -33 38 -19 104 -67 159
-117 58 -53 119 -98 160 -118 64 -31 70 -32 191 -32 121 0 128 1 191 32 40 20
107 69 169 124 58 52 128 103 159 118 50 23 68 26 166 26 104 0 114 -2 175
-32 37 -19 104 -68 155 -114 149 -135 221 -164 386 -157 101 4 124 12 113 41
-4 12 -12 14 -27 8 -83 -31 -231 -14 -314 35 -24 14 -83 61 -131 104 -134 122
-219 160 -358 160 -136 0 -214 -36 -362 -168 -53 -47 -120 -96 -149 -109 -110
-50 -236 -50 -348 1 -27 13 -96 64 -153 115 -56 50 -119 99 -140 110 -105 53
-247 66 -358 31z"/>
<path d="M1300 10794 c-76 -21 -127 -53 -238 -152 -105 -93 -167 -127 -263
-144 -132 -23 -251 22 -387 147 -76 69 -111 87 -118 60 -4 -18 193 -179 253
-207 122 -57 268 -57 389 2 34 17 106 70 168 124 124 110 179 136 297 144 83
5 168 -14 228 -50 18 -12 77 -59 130 -106 105 -93 189 -139 268 -149 40 -4 51
-2 56 11 5 11 -1 17 -21 21 -122 25 -161 46 -277 150 -52 46 -114 95 -137 109
-92 53 -236 70 -348 40z"/>
<path d="M2680 10683 c-84 -23 -138 -56 -230 -139 -41 -37 -93 -80 -114 -96
-49 -35 -152 -68 -216 -68 -44 0 -60 -10 -60 -36 0 -8 87 -4 141 6 86 16 166
63 269 157 103 93 164 128 260 145 129 24 249 -18 375 -131 147 -133 214 -168
344 -178 87 -6 176 12 250 52 25 14 89 64 141 112 142 129 250 169 391 145 94
-16 153 -48 246 -133 156 -142 264 -188 412 -176 91 7 181 42 181 69 0 22 -1
22 -80 -8 -74 -28 -177 -30 -257 -6 -77 24 -111 47 -227 151 -136 123 -268
168 -416 142 -98 -18 -170 -57 -275 -152 -49 -44 -108 -91 -130 -104 -67 -39
-150 -58 -229 -52 -104 7 -171 36 -260 115 -179 156 -242 189 -375 198 -54 3
-95 -1 -141 -13z"/>
<path d="M1323 10435 c-88 -19 -148 -55 -255 -152 -55 -49 -120 -97 -158 -116
-60 -30 -71 -32 -170 -32 -97 0 -110 2 -170 31 -40 19 -99 62 -155 113 -49 44
-93 81 -96 81 -4 0 -11 -6 -17 -13 -15 -17 147 -163 227 -205 131 -69 299 -68
430 4 25 13 89 63 141 111 53 48 118 97 147 110 114 53 248 52 358 -1 27 -14
91 -62 140 -106 96 -87 145 -120 212 -144 37 -13 42 -13 47 1 4 9 5 17 4 18
-2 1 -32 15 -68 32 -43 20 -98 61 -160 117 -107 97 -183 140 -280 155 -80 13
-99 13 -177 -4z"/>
<path d="M2677 10320 c-70 -18 -136 -60 -239 -151 -57 -51 -125 -102 -153
-115 -50 -23 -171 -48 -197 -40 -7 2 -32 7 -54 10 -35 5 -42 3 -47 -13 -6 -24
25 -31 128 -31 140 0 212 35 386 189 40 35 98 76 128 90 50 23 68 26 166 26
99 0 116 -3 169 -28 33 -15 92 -58 133 -95 161 -145 238 -182 383 -182 144 0
221 36 380 179 46 40 108 85 139 100 50 23 68 26 166 26 103 0 114 -2 175 -31
40 -20 99 -63 153 -112 100 -91 149 -123 226 -146 69 -20 192 -21 262 0 69 20
159 73 159 94 0 29 -12 30 -44 5 -80 -61 -204 -91 -308 -74 -92 15 -157 51
-260 145 -60 54 -119 97 -165 121 -64 31 -84 36 -166 41 -70 3 -108 0 -152
-13 -90 -26 -122 -45 -235 -146 -58 -51 -127 -103 -155 -115 -109 -50 -243
-49 -351 2 -29 14 -94 63 -146 109 -59 54 -120 98 -166 122 -67 34 -80 37
-175 39 -56 2 -119 -1 -140 -6z"/>
<path d="M13750 10061 c0 -15 10 -19 63 -23 94 -8 158 -43 277 -148 64 -57
129 -104 166 -122 116 -54 277 -54 390 2 34 17 106 70 164 121 142 125 183
144 325 144 105 0 114 -2 175 -33 38 -19 104 -67 159 -117 122 -111 193 -147
304 -153 73 -4 80 -2 67 11 -8 8 -43 20 -78 26 -97 16 -158 50 -264 143 -148
132 -226 168 -363 168 -137 0 -215 -36 -363 -168 -105 -93 -167 -127 -261
-143 -132 -24 -242 18 -384 144 -114 101 -161 130 -242 151 -84 22 -135 21
-135 -3z"/>
<path d="M2700 9960 c-79 -17 -164 -67 -256 -151 -106 -96 -149 -123 -229
-143 -93 -25 -136 -22 -282 20 -19 5 -23 2 -23 -14 0 -17 11 -25 53 -37 86
-26 166 -30 250 -11 89 20 155 61 270 165 121 111 218 149 349 138 97 -8 176
-48 274 -136 43 -40 98 -86 122 -103 96 -67 236 -92 355 -64 93 22 135 46 228
129 117 104 163 135 241 158 56 17 86 21 145 16 106 -8 176 -44 301 -155 57
-50 128 -103 157 -117 166 -78 368 -47 507 78 39 34 47 46 42 65 -7 23 -7 23
-43 -11 -147 -140 -320 -174 -488 -95 -26 12 -92 62 -147 111 -115 102 -192
144 -295 160 -149 23 -271 -22 -416 -153 -49 -45 -108 -92 -130 -105 -62 -37
-159 -58 -235 -52 -105 9 -168 38 -265 125 -112 99 -167 138 -234 163 -62 23
-186 32 -251 19z"/>
<path d="M1323 9705 c-85 -18 -147 -54 -240 -138 -114 -102 -149 -125 -226
-149 -55 -16 -85 -20 -148 -15 -108 7 -179 43 -294 146 -49 44 -93 81 -96 81
-4 0 -11 -6 -17 -13 -8 -9 11 -32 79 -92 49 -44 110 -92 136 -107 132 -75 309
-75 442 -2 25 14 89 64 141 111 104 94 167 129 265 146 134 23 244 -19 385
-146 52 -48 116 -97 141 -111 98 -54 224 -69 332 -41 100 26 138 51 285 185
l65 60 -32 0 c-25 0 -45 -12 -89 -54 -128 -120 -222 -166 -341 -166 -124 0
-200 36 -330 154 -111 100 -166 132 -258 151 -82 18 -119 18 -200 0z"/>
<path d="M15033 9705 c-85 -19 -149 -56 -239 -137 -109 -99 -149 -126 -227
-150 -55 -16 -85 -20 -148 -15 -111 7 -179 42 -299 151 -96 88 -180 138 -252
151 -33 6 -38 5 -38 -12 0 -15 12 -22 49 -32 65 -16 120 -52 221 -144 45 -41
104 -87 129 -101 134 -73 307 -73 440 0 25 13 89 63 141 111 104 95 167 129
265 146 134 23 245 -19 385 -146 52 -47 116 -97 141 -111 56 -31 148 -56 208
-56 43 0 44 0 26 20 -10 11 -30 20 -45 20 -46 0 -154 38 -198 70 -22 16 -75
60 -116 98 -91 83 -154 118 -243 137 -82 18 -119 18 -200 0z"/>
<path d="M13481 9618 c-22 -18 -74 -63 -117 -100 -103 -91 -158 -112 -289
-113 -91 0 -106 3 -165 31 -42 20 -99 62 -160 117 -85 78 -99 87 -134 87 l-39
0 41 -30 c22 -16 75 -60 116 -98 117 -106 221 -152 346 -152 125 0 224 45 345
156 39 35 91 79 118 96 26 17 47 33 47 35 0 2 -15 3 -34 3 -24 0 -47 -10 -75
-32z"/>
<path d="M3810 9554 c-120 -109 -189 -144 -299 -151 -142 -10 -228 29 -379
169 -53 49 -69 58 -99 58 l-37 0 36 -27 c20 -16 73 -61 118 -102 88 -78 153
-114 239 -132 52 -11 141 -8 206 5 62 13 152 67 225 134 41 38 95 83 119 100
l44 32 -39 0 c-35 0 -49 -9 -134 -86z"/>
<path d="M1299 9336 c-76 -22 -139 -62 -239 -153 -103 -93 -161 -126 -257
-143 -135 -24 -244 16 -387 144 -53 47 -98 86 -100 86 -2 0 -9 -6 -15 -14 -9
-11 7 -31 86 -101 132 -118 195 -148 324 -153 163 -7 235 23 384 157 51 46
118 95 155 114 61 30 71 32 175 32 98 0 116 -3 166 -26 31 -15 101 -66 159
-118 62 -55 129 -104 169 -124 63 -31 70 -32 191 -32 121 0 127 1 191 32 41
20 102 65 160 118 55 50 121 98 159 117 61 31 70 33 175 33 98 0 116 -3 167
-27 31 -14 94 -59 140 -100 119 -106 163 -136 236 -158 76 -24 162 -27 162 -6
0 9 -24 17 -73 25 -104 17 -159 46 -275 150 -56 50 -119 99 -140 110 -132 67
-301 67 -432 1 -19 -10 -82 -59 -140 -110 -58 -51 -127 -103 -155 -116 -112
-51 -237 -51 -350 0 -27 12 -97 65 -155 116 -141 125 -199 152 -335 156 -63 2
-117 -1 -146 -10z"/>
<path d="M1330 4239 c-74 -15 -163 -65 -246 -140 -116 -104 -150 -127 -227
-151 -85 -25 -184 -21 -270 12 -54 20 -86 44 -220 162 -41 36 -49 40 -62 27
-12 -12 -2 -25 78 -97 149 -134 267 -178 422 -155 103 15 166 48 287 155 151
133 258 174 393 151 98 -17 161 -51 265 -146 108 -98 160 -130 251 -153 147
-38 366 20 381 101 3 14 4 25 2 25 -3 0 -23 -14 -46 -30 -53 -39 -155 -70
-228 -70 -73 0 -175 31 -228 70 -22 16 -75 60 -116 98 -89 81 -150 116 -237
137 -70 16 -130 18 -199 4z"/>
<path d="M4129 3731 c-56 -56 -27 -145 52 -157 28 -5 41 -1 66 20 39 33 48 67
28 110 -29 61 -99 74 -146 27z"/>
<path d="M1331 3509 c-81 -16 -163 -63 -256 -148 -108 -98 -151 -125 -230
-145 -80 -21 -150 -20 -229 4 -70 22 -123 58 -224 152 -67 62 -74 65 -90 46
-14 -18 149 -163 230 -205 124 -64 277 -67 403 -8 29 14 100 67 157 117 123
109 195 146 296 155 131 11 223 -25 347 -137 113 -103 183 -146 265 -164 112
-26 200 -19 200 14 0 16 -8 17 -63 13 -73 -6 -171 16 -232 52 -22 13 -80 60
-129 104 -151 138 -283 182 -445 150z"/>
<path d="M13672 3510 c-50 -11 -157 -57 -172 -75 -6 -7 -8 -19 -5 -27 5 -13
20 -8 83 24 102 52 195 61 300 29 79 -24 124 -54 243 -160 94 -84 154 -115
257 -133 57 -9 87 -10 143 0 100 17 165 51 264 140 142 126 202 158 321 169
122 11 222 -29 341 -138 141 -128 213 -165 342 -176 66 -5 66 -5 46 14 -12 12
-46 24 -84 31 -93 16 -153 51 -260 147 -108 98 -188 142 -289 157 -150 24
-274 -22 -418 -152 -108 -98 -150 -124 -234 -146 -139 -35 -264 -1 -384 104
-123 107 -183 149 -243 172 -64 24 -187 34 -251 20z"/>
<path d="M10886 3387 c-29 -9 -41 -19 -47 -39 -7 -26 -7 -26 25 -13 17 7 59
19 93 25 131 26 254 -21 395 -149 48 -44 106 -91 130 -105 90 -52 237 -71 343
-42 80 21 129 51 230 141 119 106 164 132 260 151 145 30 262 -12 410 -146
105 -96 149 -123 230 -144 117 -31 246 -16 345 41 76 42 208 163 209 191 1 12
-3 22 -7 22 -5 0 -48 -37 -98 -81 -116 -106 -188 -141 -300 -147 -65 -4 -97 0
-151 17 -75 24 -103 42 -223 150 -117 104 -185 134 -315 139 -164 7 -231 -21
-380 -158 -120 -109 -189 -143 -306 -148 -143 -7 -204 20 -359 157 -59 52
-119 96 -160 115 -59 28 -76 31 -175 33 -66 2 -126 -2 -149 -10z"/>
<path d="M1295 3137 c-71 -24 -123 -56 -196 -120 -180 -159 -231 -182 -383
-175 -120 5 -172 30 -299 142 -84 74 -101 85 -114 74 -13 -11 -5 -22 58 -81
41 -37 97 -83 124 -103 135 -94 353 -99 490 -12 22 14 78 60 125 103 133 120
247 163 384 144 85 -11 169 -58 271 -150 49 -44 108 -91 130 -104 87 -51 226
-71 233 -34 2 13 -9 17 -60 21 -91 8 -161 45 -270 143 -60 55 -119 98 -167
122 -70 36 -80 38 -180 40 -67 2 -121 -2 -146 -10z"/>
<path d="M10901 3024 c-74 -20 -148 -62 -155 -88 -12 -43 -5 -45 38 -12 72 55
127 71 241 71 91 0 106 -3 165 -31 38 -18 98 -61 145 -103 153 -139 223 -172
365 -174 148 -2 225 34 395 185 101 90 163 118 276 126 134 8 216 -29 374
-170 87 -77 144 -112 203 -124 28 -6 32 -4 32 15 0 12 -6 21 -16 21 -36 0
-126 57 -214 136 -133 121 -226 164 -355 164 -135 0 -224 -42 -371 -174 -133
-119 -245 -160 -377 -139 -95 16 -161 53 -265 147 -52 46 -119 98 -150 114
-99 52 -222 65 -331 36z"/>
<path d="M13525 2974 c-22 -15 -54 -40 -72 -57 l-32 -30 -53 23 c-71 32 -165
34 -204 4 -50 -36 -67 -70 -72 -134 l-4 -60 -33 0 c-49 0 -54 -28 -7 -35 65
-10 76 -13 117 -29 39 -15 40 -15 62 11 l21 26 44 -23 c143 -74 388 -303 388
-363 0 -9 6 -22 14 -29 51 -52 89 -186 90 -318 1 -98 -1 -108 -28 -158 -37
-67 -75 -96 -201 -160 -311 -155 -650 -351 -709 -408 -51 -50 -95 -118 -118
-182 -17 -48 -19 -76 -16 -178 4 -116 6 -125 40 -195 94 -189 316 -348 637
-454 74 -25 99 -28 215 -29 141 0 223 15 306 57 50 26 90 77 90 114 0 44 -31
94 -68 110 -30 12 -39 12 -78 -3 -37 -14 -67 -16 -177 -11 -257 11 -428 81
-639 261 -63 55 -80 76 -97 122 -12 31 -19 65 -15 79 8 33 87 110 164 160 36
24 169 97 295 162 300 156 431 238 507 317 27 28 72 127 94 207 27 97 24 278
-5 394 -45 176 -123 335 -213 435 -68 75 -201 194 -260 232 l-48 32 31 32 c17
17 46 40 64 49 23 13 31 23 27 37 -6 24 -10 23 -57 -8z"/>
<path d="M4750 2927 c-36 -28 -50 -62 -50 -122 l-1 -60 -44 -27 c-50 -30 -74
-62 -82 -111 -7 -47 36 -97 93 -106 34 -5 39 -10 42 -35 2 -19 -2 -32 -12 -38
-21 -12 -21 -74 -1 -82 12 -4 15 -32 15 -166 0 -100 -4 -160 -10 -160 -5 0
-10 -9 -10 -20 0 -11 5 -20 10 -20 6 0 10 -70 10 -190 0 -188 0 -189 -25 -214
-21 -21 -25 -35 -25 -82 0 -49 4 -59 30 -84 l29 -27 1 -428 2 -427 -30 -18
c-42 -26 -62 -59 -62 -103 0 -50 22 -92 57 -105 15 -6 67 -13 115 -17 76 -5
88 -4 96 12 9 16 28 17 184 16 95 -1 243 -9 328 -18 203 -21 368 -29 412 -21
19 3 44 16 57 27 l22 20 29 -31 c39 -42 98 -65 214 -85 190 -32 329 -6 563
105 143 68 236 131 324 219 118 118 167 241 157 397 -10 157 -84 279 -221 368
-108 71 -374 218 -565 314 -237 118 -282 168 -290 324 -7 147 37 290 137 436
64 95 238 246 342 299 l53 26 19 -25 c17 -23 22 -25 58 -15 57 14 79 47 79
116 0 69 -23 117 -70 149 -30 21 -43 23 -100 19 -126 -9 -247 -85 -436 -272
-127 -126 -133 -134 -187 -245 -66 -137 -90 -213 -107 -338 -23 -165 1 -335
63 -457 54 -108 173 -189 602 -412 217 -113 289 -158 359 -225 47 -45 49 -49
44 -91 -7 -61 -48 -119 -137 -193 -148 -124 -303 -199 -478 -229 -114 -20
-271 -20 -321 0 -45 19 -80 9 -108 -28 l-19 -24 -40 32 c-59 48 -69 51 -216
79 -224 42 -286 49 -484 51 -104 2 -198 3 -207 4 -17 1 -18 27 -18 400 l0 399
83 7 c51 4 149 0 261 -10 99 -9 190 -14 203 -10 34 8 63 61 63 117 0 62 -33
102 -102 123 -71 21 -251 36 -385 33 -61 -1 -114 0 -117 3 -9 9 -26 893 -18
901 19 19 423 37 481 21 25 -6 -15 -16 -326 -73 l-123 -23 0 -35 0 -35 53 6
52 6 -50 -24 c-32 -16 -50 -31 -50 -42 0 -23 23 -19 93 15 34 17 52 31 52 43
0 11 9 21 23 24 28 7 697 131 752 140 154 24 201 40 250 83 26 23 46 44 44 46
-3 2 -216 -37 -482 -88 -27 -6 -27 -5 -12 16 35 50 12 129 -46 159 -78 39
-263 46 -697 26 -42 -2 -44 -1 -57 36 -26 75 -90 110 -135 74z"/>
<path d="M15642 2894 c-68 -15 -190 -68 -264 -115 l-47 -30 -47 16 c-112 38
-248 28 -354 -25 -30 -15 -95 -64 -145 -109 -126 -114 -125 -114 -125 -47 0
47 -4 57 -26 75 -42 33 -100 44 -184 36 -41 -4 -99 -9 -128 -11 -28 -2 -84
-17 -123 -33 l-72 -30 -49 44 c-98 88 -226 132 -352 122 -73 -6 -92 -16 -83
-41 5 -12 13 -13 44 -4 104 29 265 -17 357 -102 l45 -41 -25 -36 c-29 -42 -30
-73 -6 -130 19 -48 28 -50 92 -28 23 8 44 15 46 15 2 0 4 -52 4 -117 0 -115 0
-116 -20 -98 -19 18 -20 17 -20 -5 0 -13 9 -33 19 -44 19 -20 20 -50 31 -571
6 -302 15 -665 20 -805 14 -373 14 -370 -10 -370 -39 0 -90 -29 -110 -62 -24
-40 -26 -94 -4 -147 19 -47 51 -71 97 -71 27 0 36 5 46 27 l12 26 157 -6 c86
-4 212 -11 280 -18 68 -6 125 -9 128 -7 2 3 7 33 10 67 7 58 5 63 -21 91 -40
42 -116 67 -251 85 -63 8 -117 15 -120 15 -2 0 -4 84 -4 188 0 103 -9 529 -20
947 -25 969 -25 915 0 915 11 0 20 -7 20 -15 0 -18 17 -19 96 -4 92 17 154 52
266 151 63 56 127 102 165 120 76 36 173 46 258 27 33 -7 63 -12 67 -11 3 1
-33 -38 -81 -86 -116 -115 -197 -227 -265 -364 -121 -248 -166 -436 -166 -692
0 -168 12 -268 51 -419 56 -213 203 -455 382 -623 146 -138 264 -191 442 -201
180 -10 318 27 384 103 36 40 39 76 14 142 -16 43 -17 44 -57 38 -105 -14
-294 -18 -344 -7 -275 59 -571 419 -639 775 -49 257 45 647 212 881 44 61 181
199 247 249 l36 27 51 -36 c63 -45 138 -72 227 -81 69 -6 69 -6 49 13 -12 12
-46 24 -82 31 -62 11 -152 49 -186 80 -17 15 -17 16 5 29 56 31 154 56 224 57
l73 1 48 -47 48 -47 32 20 c41 26 73 77 73 116 0 49 -27 124 -56 154 -62 65
-218 87 -372 53z"/>
<path d="M1315 2776 c-82 -20 -139 -54 -247 -150 -140 -124 -199 -151 -328
-150 -126 0 -182 23 -285 112 -133 116 -133 116 -150 102 -12 -10 -6 -19 39
-61 149 -136 209 -171 325 -190 89 -15 189 0 269 39 30 14 100 67 156 116 63
56 125 101 166 120 59 28 74 31 165 31 91 0 106 -3 166 -31 37 -18 96 -59 135
-94 l69 -63 12 -131 c6 -72 12 -146 12 -165 1 -32 0 -33 -17 -18 -10 10 -22
17 -25 17 -16 0 -5 -40 17 -67 24 -28 24 -28 10 -131 -21 -164 -41 -259 -111
-537 -104 -412 -214 -726 -273 -780 -16 -15 -26 -17 -47 -9 -106 37 -173 359
-173 828 0 100 -5 198 -11 220 -30 109 -141 116 -184 12 -7 -17 -18 -65 -24
-106 -19 -124 -109 -551 -145 -684 -43 -163 -111 -326 -136 -326 -4 0 -20 24
-33 52 -83 176 -171 670 -207 1166 -12 162 -29 219 -68 229 -41 10 -75 -8 -97
-52 -18 -36 -20 -58 -19 -215 2 -190 8 -260 55 -595 80 -572 161 -806 303
-874 143 -70 255 48 362 384 34 104 39 116 45 90 37 -156 103 -312 162 -380
47 -55 113 -86 181 -86 90 0 158 48 237 169 94 144 291 803 357 1197 59 345
52 567 -24 818 l-27 87 -46 0 c-41 0 -49 -4 -65 -30 l-18 -31 -55 51 c-121
110 -277 153 -428 116z"/>
<path d="M12283 2710 c-12 -10 -24 -28 -27 -38 -3 -10 -22 -24 -41 -31 -30
-11 -34 -15 -25 -32 8 -15 15 -17 29 -9 22 11 31 4 31 -24 0 -11 21 -73 47
-139 33 -86 43 -121 34 -126 -15 -9 -4 -41 14 -41 14 0 29 -45 61 -175 23 -92
23 -296 0 -424 -35 -198 -121 -497 -190 -661 -43 -102 -134 -253 -190 -317
-52 -58 -133 -103 -186 -103 -43 0 -112 41 -154 91 -72 85 -129 259 -161 489
-23 162 -33 791 -16 955 25 232 25 252 6 295 -15 34 -23 40 -48 40 -22 0 -49
17 -110 71 -45 40 -108 85 -141 100 -127 59 -270 58 -396 -3 -77 -38 -180
-133 -180 -168 0 -23 0 -23 23 -4 12 10 46 40 74 67 98 89 231 130 351 108 86
-16 153 -51 233 -123 l67 -59 -24 -42 c-13 -23 -31 -77 -41 -119 -13 -63 -19
-76 -30 -67 -10 9 -13 6 -13 -13 0 -13 5 -29 11 -35 8 -8 8 -52 0 -162 -30
-415 -4 -901 65 -1191 42 -179 154 -379 259 -466 90 -73 225 -95 339 -55 159
56 329 240 420 455 87 203 179 485 221 675 49 225 61 549 25 717 -19 91 -120
374 -167 469 -45 90 -69 115 -112 115 -23 0 -45 -7 -58 -20z"/>
<path d="M3365 2646 c-27 -27 -40 -82 -31 -129 23 -111 20 -145 -14 -127 -17
9 -20 8 -20 -13 0 -16 9 -28 25 -35 23 -11 25 -17 25 -74 0 -35 3 -107 7 -160
6 -97 6 -97 -17 -91 -18 5 -21 2 -18 -13 2 -10 13 -23 24 -28 18 -8 23 -21 28
-80 30 -321 103 -766 167 -1014 114 -444 204 -643 304 -668 37 -9 112 24 145
64 39 48 112 274 185 572 32 129 93 370 136 535 147 561 254 1046 244 1102 -7
37 -47 89 -75 98 -12 4 -33 -3 -57 -19 -35 -24 -40 -33 -58 -113 -16 -69 -25
-90 -42 -98 -28 -12 -42 -91 -20 -108 13 -10 6 -47 -54 -272 -38 -143 -123
-469 -189 -725 -65 -256 -131 -503 -145 -550 -15 -47 -29 -95 -32 -107 -11
-47 -19 -32 -79 142 -53 154 -91 291 -114 406 -22 119 -75 454 -85 544 -4 33
-8 71 -10 85 -13 89 -45 453 -54 600 -12 189 -20 233 -52 274 -28 35 -89 37
-124 2z"/>
<path d="M12470 2649 c6 -11 19 -22 28 -25 65 -20 148 -73 230 -147 131 -119
214 -156 353 -157 112 0 218 42 317 127 30 26 32 30 18 42 -14 12 -23 8 -66
-28 -27 -23 -76 -54 -107 -69 -52 -24 -70 -27 -163 -27 -97 0 -110 2 -171 31
-39 19 -97 60 -145 103 -105 96 -149 126 -222 150 -78 27 -86 27 -72 0z"/>
<path d="M4109 2631 c-50 -50 -37 -121 28 -147 63 -27 123 12 123 80 -1 88
-90 128 -151 67z"/>
<path d="M12035 2511 c-51 -46 -118 -95 -155 -114 -59 -29 -72 -32 -160 -32
-52 0 -108 4 -123 8 -26 7 -28 6 -25 -15 4 -27 32 -35 128 -37 135 -2 231 39
354 152 62 57 77 77 75 96 -4 21 -11 17 -94 -58z"/>
<path d="M2395 2473 c-79 -71 -162 -106 -266 -111 -79 -4 -86 -6 -82 -23 5
-16 15 -19 67 -19 140 0 303 81 327 162 5 17 8 33 6 34 -1 1 -24 -18 -52 -43z"/>
<path d="M1276 2400 c-73 -26 -119 -57 -221 -151 -108 -98 -181 -132 -296
-137 -142 -7 -209 22 -357 156 -73 66 -85 74 -98 61 -12 -13 -5 -24 63 -85
164 -148 238 -180 399 -172 126 7 202 44 333 162 52 46 118 96 146 110 69 34
165 48 238 36 61 -10 169 -54 188 -76 17 -21 29 -17 29 10 0 21 -12 31 -77 63
-72 36 -83 38 -182 41 -87 2 -117 -1 -165 -18z"/>
<path d="M8926 2358 c-23 -37 -55 -153 -76 -277 -11 -64 -25 -142 -31 -173
l-12 -57 -19 24 c-23 30 -72 33 -107 8 -78 -54 -122 -131 -129 -223 -6 -90 11
-147 59 -192 44 -42 84 -49 143 -24 32 13 34 13 40 -7 3 -12 6 -42 6 -67 1
-53 14 -118 28 -132 6 -6 17 -6 31 1 20 11 21 19 21 169 0 129 4 169 20 222
59 190 94 367 111 555 9 105 8 123 -7 157 -20 45 -55 52 -78 16z m-161 -623
c14 -14 25 -36 25 -49 0 -52 -78 -109 -119 -86 -12 6 -21 17 -21 26 0 32 62
134 81 134 4 0 20 -11 34 -25z"/>
<path d="M15310 2366 c-9 -12 -5 -18 27 -35 21 -10 80 -58 132 -104 128 -115
215 -156 335 -157 47 0 48 1 32 19 -11 12 -36 20 -72 24 -81 8 -168 54 -259
136 -83 75 -157 131 -173 131 -5 0 -15 -6 -22 -14z"/>
<path d="M14849 2323 c-24 -21 -71 -62 -104 -92 -71 -65 -160 -109 -241 -119
-44 -5 -60 -11 -62 -25 -3 -13 4 -17 32 -17 103 0 201 44 310 140 66 59 138
150 118 150 -5 0 -28 -17 -53 -37z"/>
<path d="M10888 2291 c-81 -26 -131 -59 -225 -144 -45 -42 -88 -79 -96 -84 -9
-4 -19 -21 -23 -37 l-7 -29 32 19 c18 10 74 57 124 103 120 108 190 143 302
149 75 4 136 -6 203 -34 7 -4 12 2 12 16 0 32 -59 52 -170 57 -74 2 -108 -1
-152 -16z"/>
<path d="M12165 2250 c-27 -16 -90 -66 -140 -111 -157 -143 -274 -174 -462
-123 -18 5 -23 2 -23 -14 0 -16 10 -22 48 -30 92 -21 121 -22 189 -12 98 15
174 57 283 154 52 47 114 96 138 108 39 21 52 47 27 55 -5 1 -32 -10 -60 -27z"/>
<path d="M13523 2242 c-23 -15 -81 -63 -130 -106 -134 -121 -248 -161 -381
-137 -92 17 -153 52 -262 147 -52 46 -97 84 -101 84 -24 0 14 -55 80 -118 131
-124 270 -175 419 -152 97 15 176 58 278 150 49 45 108 92 131 106 27 16 40
30 36 40 -8 20 -23 17 -70 -14z"/>
<path d="M8373 1938 c-19 -21 -55 -88 -96 -178 l-16 -35 -1 40 c-1 55 -12 72
-33 50 -39 -39 -85 -305 -65 -382 12 -51 30 -68 55 -55 34 19 50 47 93 162 24
63 53 137 66 163 l22 49 4 -174 c4 -182 14 -228 50 -228 30 0 39 44 50 255 11
223 6 292 -23 329 -27 34 -77 35 -106 4z"/>
<path d="M7960 1821 c-85 -83 -110 -141 -110 -256 0 -92 9 -120 50 -152 23
-19 64 -15 94 8 19 15 27 17 30 7 2 -7 12 -42 21 -78 18 -70 30 -90 51 -90 30
0 37 39 23 137 -10 76 -10 118 0 226 14 145 7 201 -30 238 -33 33 -63 24 -129
-40z"/>
</g>
</svg>
