<?xml version="1.0" standalone="no"?>
<!DOCTYPE svg PUBLIC "-//W3C//DTD SVG 20010904//EN"
 "http://www.w3.org/TR/2001/REC-SVG-20010904/DTD/svg10.dtd">
<svg version="1.0" xmlns="http://www.w3.org/2000/svg"
 width="2086.000000pt" height="3556.000000pt" viewBox="0 0 2086.000000 3556.000000"
 preserveAspectRatio="xMidYMid meet">
<metadata>
Created by potrace 1.16, written by Peter Selinger 2001-2019
</metadata>
<g transform="translate(0.000000,3556.000000) scale(0.100000,-0.100000)"
fill="#ffffff" stroke="none">
<path d="M6735 35536 c-331 -70 -816 -261 -1239 -488 -463 -249 -849 -543
-1025 -781 -134 -182 -185 -361 -147 -520 22 -96 57 -157 133 -237 63 -68 235
-194 255 -188 5 2 20 34 33 71 160 457 805 1085 1563 1521 168 96 336 181 326
164 -4 -7 -49 -67 -99 -133 -505 -665 -992 -1503 -1230 -2119 -128 -331 -198
-663 -181 -854 14 -148 75 -275 174 -362 93 -83 274 -150 402 -150 l49 0 190
378 c439 873 916 1692 1486 2552 204 307 453 671 477 695 6 6 -6 -21 -25 -60
-165 -332 -595 -1334 -722 -1685 -163 -450 -187 -614 -109 -770 75 -149 264
-259 452 -263 l74 -2 70 125 c349 622 949 1595 1451 2350 132 199 170 250 124
170 -217 -382 -518 -1004 -697 -1440 -231 -561 -370 -1074 -402 -1481 -18
-236 7 -336 108 -429 106 -96 237 -140 422 -140 l102 0 0 124 c0 424 135 1016
412 1799 81 232 257 689 463 1207 95 239 187 479 204 534 27 87 29 104 20 144
-13 61 -37 98 -102 159 -118 111 -300 164 -387 112 -81 -49 -288 -290 -496
-575 -389 -536 -916 -1389 -1181 -1914 -56 -112 -103 -201 -103 -198 0 24 161
431 365 923 353 852 555 1376 570 1479 24 157 -192 315 -415 304 -74 -3 -81
-5 -148 -51 -311 -212 -984 -1176 -1719 -2461 -85 -149 -198 -350 -251 -448
-52 -98 -97 -176 -100 -174 -6 6 74 263 133 426 231 640 605 1402 1065 2174
77 129 140 244 140 256 0 60 -123 230 -192 266 -40 21 -166 16 -293 -10z"/>
<path d="M13760 35519 c0 -86 -70 -331 -182 -637 -47 -130 -57 -166 -47 -178
17 -21 368 -194 393 -194 28 0 50 24 116 125 68 104 151 278 184 383 29 94 34
193 12 247 -47 113 -266 256 -429 280 l-47 7 0 -33z"/>
<path d="M2400 35194 c-147 -23 -219 -51 -264 -104 -51 -62 -28 -149 56 -211
62 -45 100 -60 443 -174 344 -114 473 -167 710 -289 262 -135 531 -310 791
-516 60 -47 112 -87 117 -89 13 -5 -64 142 -138 264 -312 513 -685 878 -1040
1018 -180 71 -527 123 -675 101z"/>
<path d="M17265 35189 c-112 -12 -315 -56 -393 -85 -312 -117 -617 -383 -907
-789 -125 -175 -295 -460 -295 -494 0 -6 53 31 118 82 302 237 593 422 893
566 200 96 353 155 649 251 140 45 287 98 326 117 161 78 203 191 104 276 -85
72 -265 100 -495 76z"/>
<path d="M10122 34323 c-169 -265 -407 -777 -506 -1093 -64 -201 -79 -332 -50
-430 33 -111 179 -220 316 -236 75 -9 94 4 239 153 145 150 238 258 534 618
131 160 242 295 247 300 5 6 -46 -100 -114 -235 -196 -387 -228 -485 -198
-609 16 -68 89 -149 161 -180 68 -30 170 -51 246 -51 55 0 66 4 110 36 94 72
239 212 446 432 116 122 213 222 217 222 4 0 13 -19 20 -42 6 -24 43 -119 80
-213 64 -162 90 -247 90 -300 0 -49 -106 -137 -495 -413 -344 -243 -321 -224
-339 -280 -37 -117 -28 -239 28 -357 63 -133 167 -217 304 -246 85 -17 252 -7
336 22 180 60 354 226 461 439 117 233 171 559 131 788 l-16 93 157 164 c86
91 158 163 160 162 1 -2 -2 -42 -8 -89 -12 -101 -4 -142 42 -211 83 -126 249
-206 426 -207 60 0 63 1 135 59 90 72 214 192 341 331 l97 104 0 -36 c0 -165
105 -331 254 -402 85 -41 159 -56 279 -56 110 0 185 19 304 76 259 124 616
427 948 804 l109 125 -143 3 -143 3 -167 -163 c-401 -393 -699 -604 -823 -583
-151 26 -191 215 -111 525 47 183 161 439 269 602 70 106 187 221 248 244 47
17 49 17 63 -2 23 -29 11 -143 -27 -255 -43 -130 -105 -243 -168 -309 -61 -63
-60 -77 4 -126 30 -24 49 -29 106 -32 61 -4 76 -1 133 27 119 59 214 201 236
352 12 86 1 237 -25 324 -23 75 -76 155 -124 190 -38 26 -54 30 -125 33 -99 5
-181 -15 -281 -65 -281 -141 -540 -421 -700 -753 -54 -112 -61 -122 -272 -355
-251 -279 -334 -365 -350 -365 -54 0 -16 198 88 459 110 274 256 547 409 760
53 74 57 83 48 114 -11 39 -57 89 -119 129 -56 36 -187 78 -243 78 -42 0 -44
-2 -104 -82 -136 -185 -319 -496 -404 -691 -32 -75 -47 -92 -313 -368 -153
-159 -282 -289 -286 -289 -12 0 -111 258 -126 332 -20 92 -14 213 14 286 46
120 163 258 284 336 31 19 97 56 147 81 106 53 108 58 60 153 -57 116 -217
230 -334 240 -117 10 -299 -82 -426 -214 -160 -167 -216 -327 -201 -577 l5
-88 -109 -112 c-457 -469 -519 -531 -522 -515 -4 20 56 176 107 276 21 42 87
167 146 277 135 250 291 563 306 614 21 71 6 107 -79 191 -90 88 -174 140
-236 147 l-45 5 -83 -83 c-132 -133 -333 -371 -723 -854 -301 -374 -503 -610
-512 -601 -32 31 375 881 554 1160 31 48 43 75 39 91 -16 62 -294 285 -356
285 -24 0 -35 -11 -78 -77z m1734 -2060 c-76 -146 -165 -243 -275 -299 -85
-42 -202 -44 -138 -1 12 8 119 100 236 205 118 105 217 190 219 187 2 -2 -17
-43 -42 -92z"/>
<path d="M2925 33609 c-622 -44 -1090 -181 -1351 -396 -204 -169 -450 -616
-483 -880 -25 -197 36 -303 174 -303 140 0 323 92 552 277 381 309 484 391
588 469 521 390 904 568 1635 759 80 21 149 41 153 45 36 31 -927 53 -1268 29z"/>
<path d="M16000 33610 c-204 -14 -282 -22 -274 -29 5 -4 99 -32 209 -61 239
-63 568 -170 719 -235 417 -178 703 -367 1313 -866 368 -301 523 -389 688
-389 79 0 120 26 155 95 45 91 29 264 -42 445 -75 193 -244 465 -363 586 -250
254 -726 405 -1435 454 -160 11 -805 11 -970 0z"/>
<path d="M11060 31144 c-824 -45 -1410 -126 -2054 -285 -1649 -408 -2892
-1212 -3651 -2364 -99 -151 -262 -423 -400 -672 -903 -1623 -1434 -3424 -1460
-4953 l-5 -245 -70 -188 -70 -188 0 -614 0 -613 370 -243 370 -244 0 -1340 0
-1340 -375 -465 c-206 -256 -374 -472 -374 -480 0 -8 89 -310 198 -670 l198
-655 124 -51 124 -51 7 -39 c14 -79 16 -76 -85 -107 -487 -150 -1001 -453
-1376 -813 -1008 -965 -1231 -2409 -650 -4191 l60 -183 192 0 192 0 63 -188
c358 -1065 1047 -2227 1895 -3196 369 -421 631 -669 992 -941 659 -495 1473
-882 2250 -1069 1096 -262 2019 -136 2637 363 l77 62 103 -30 c383 -111 772
-125 1138 -40 298 69 637 239 910 457 187 149 491 470 578 610 30 47 23 46
137 22 94 -20 310 -49 490 -66 224 -22 871 -25 1100 -6 1266 107 2386 472
3309 1079 796 523 1404 1207 1802 2028 72 150 254 587 254 612 0 5 37 24 81
42 275 113 503 368 617 692 80 228 107 440 99 788 -7 328 -44 563 -133 856
-86 286 -277 667 -403 805 -39 43 -52 67 -81 150 -71 202 -245 491 -402 665
-47 52 -62 79 -108 200 -190 501 -471 1010 -796 1440 -330 439 -781 881 -1166
1142 l-97 66 -5 71 c-4 56 -57 2350 -56 2433 0 18 65 55 410 235 l411 213 -4
765 c-4 788 -10 942 -62 1560 -301 3585 -1273 6305 -2800 7835 -776 777 -1672
1227 -2648 1331 -123 13 -209 15 -447 9 -362 -8 -299 -8 -870 -2 -261 2 -504
3 -540 1z m107 -254 c-1232 -474 -2331 -1560 -3282 -3245 -682 -1207 -1270
-2781 -1614 -4316 -42 -190 -121 -576 -121 -593 0 -4 -549 -6 -1220 -6 l-1220
0 0 148 c1 457 83 1103 216 1697 275 1229 817 2531 1528 3672 421 677 973
1210 1701 1643 1036 616 2403 978 3920 1039 105 4 197 8 205 9 8 1 -42 -21
-113 -48z m1803 25 c763 -97 1450 -410 2120 -965 164 -136 495 -468 647 -650
739 -886 1315 -2055 1738 -3525 76 -264 216 -803 215 -829 -1 -6 -24 50 -53
124 -685 1756 -1796 3087 -3112 3729 -421 206 -819 328 -1260 387 -184 25
-603 25 -769 1 -465 -69 -819 -210 -1154 -457 -23 -17 -35 -21 -43 -13 -14 14
-34 2 -224 -122 -242 -159 -512 -370 -799 -625 -173 -153 -561 -540 -717 -715
-933 -1047 -1651 -2273 -2137 -3652 -69 -193 -94 -247 -199 -421 -130 -217
-262 -387 -365 -473 -77 -64 -113 -82 -147 -74 -36 8 -324 116 -334 125 -15
13 109 594 219 1020 439 1704 1112 3282 1917 4490 865 1298 1825 2121 2897
2482 286 96 564 152 910 182 102 9 531 -3 650 -19z m-1574 -2521 c1130 -791
2168 -2363 3037 -4599 322 -831 639 -1827 867 -2730 38 -148 150 -632 250
-1075 100 -443 186 -822 191 -842 l10 -38 229 0 230 0 0 -893 0 -893 -67 7
c-38 4 -175 13 -306 19 -369 18 -788 -4 -1207 -66 -1040 -151 -2030 -557
-2852 -1167 -61 -45 -114 -81 -118 -80 -4 1 -73 45 -153 97 -1121 733 -2374
1244 -3372 1375 -421 56 -849 54 -1205 -5 -237 -39 -505 -118 -720 -211 -69
-30 -131 -57 -137 -60 -10 -4 -13 325 -13 1628 l0 1634 110 -110 c60 -60 111
-107 113 -104 2 2 201 468 442 1034 l438 1030 -12 168 -13 168 54 67 c78 98
118 154 190 272 120 195 175 310 258 545 431 1213 1044 2301 1834 3255 387
467 847 921 1293 1277 159 127 496 371 514 373 4 0 55 -34 115 -76z m-4627
-5985 c25 7 72 28 104 46 32 19 60 35 63 35 2 0 4 -25 4 -56 0 -51 -30 -126
-356 -892 -196 -461 -361 -847 -368 -859 -11 -22 -20 -15 -186 152 -96 96
-178 175 -182 175 -5 0 -8 -11 -8 -25 0 -14 -2 -25 -4 -25 -2 0 -82 47 -177
105 -130 79 -173 110 -171 123 2 9 82 311 178 669 96 359 174 655 174 658 0 2
123 6 273 7 l272 3 169 -64 c165 -63 171 -64 215 -52z m-1223 -529 l-171 -640
-907 0 -908 0 0 478 0 479 55 149 c31 82 57 155 60 162 3 9 217 12 1023 12
l1019 0 -171 -640z m-6 -996 c124 -75 227 -138 229 -140 2 -2 -355 -4 -795 -4
l-799 0 -200 131 c-110 72 -204 135 -209 140 -6 5 301 9 770 9 l780 0 224
-136z m12658 -1110 c-7 -6 -102 -57 -210 -113 l-198 -102 0 460 c0 455 0 461
20 461 11 0 105 56 208 125 l187 125 3 -472 c2 -370 -1 -475 -10 -484z
m-12778 -636 l0 -1393 -78 -69 c-381 -339 -582 -509 -774 -652 -228 -171 -310
-211 -470 -235 -97 -14 -283 -7 -413 16 -88 16 -105 25 -104 55 0 8 161 215
359 460 l359 445 1 1383 0 1382 560 0 560 0 0 -1392z m430 -372 l0 -1764 -316
-429 c-174 -235 -323 -436 -331 -445 -9 -10 -59 -34 -112 -54 -155 -59 -492
-194 -538 -215 -89 -40 -446 -179 -462 -179 -35 0 -173 63 -182 84 -13 31
-279 919 -276 922 1 1 47 -4 102 -11 200 -29 443 -13 568 36 106 42 363 217
529 360 29 26 100 86 158 134 123 103 212 181 408 358 l142 129 0 1419 0 1419
155 0 155 0 0 -1764z m11820 1220 l0 -495 -131 -67 c-72 -38 -138 -74 -146
-82 -11 -11 -101 -18 -426 -33 -546 -24 -547 -24 -547 1 0 19 -7 20 -249 20
-229 0 -250 1 -255 18 -3 9 -59 256 -125 547 -66 292 -123 543 -126 558 l-7
27 1006 0 1006 0 0 -494z m-251 -1982 c16 -660 28 -1200 27 -1200 0 -1 -131
58 -291 131 l-290 133 -3 1056 c-1 581 1 1056 5 1057 21 2 518 24 521 23 2 -1
16 -541 31 -1200z m-679 147 l0 -1030 -157 73 -158 73 -3 951 -2 951 102 4
c57 1 129 4 161 5 l57 2 0 -1029z m-8870 -831 c848 -73 1795 -390 2800 -938
330 -179 822 -483 817 -504 -1 -6 33 -31 77 -55 426 -238 973 -774 1422 -1393
528 -729 973 -1594 1339 -2605 347 -959 428 -1774 259 -2610 -30 -150 -103
-423 -145 -541 -78 -222 -246 -577 -377 -794 -84 -140 -213 -333 -218 -327 -2
2 1 59 6 128 25 327 4 941 -46 1339 -220 1753 -1074 3474 -2389 4819 -635 649
-1410 1232 -2270 1706 -236 130 -728 369 -985 478 -679 288 -1449 530 -2091
657 l-167 33 62 84 c158 219 146 205 231 250 242 127 608 231 940 267 154 16
572 20 735 6z m8046 -191 c367 -21 293 2 990 -316 411 -189 637 -298 690 -333
264 -177 584 -452 798 -686 110 -121 111 -122 143 -220 94 -292 155 -615 200
-1054 22 -222 26 -1032 5 -1255 -37 -401 -83 -714 -154 -1040 -223 -1041 -659
-1967 -1278 -2715 -123 -149 -474 -503 -615 -619 -580 -481 -1235 -821 -2006
-1040 -142 -40 -450 -114 -454 -109 -1 2 22 46 52 98 30 52 92 169 138 260
295 587 455 1264 455 1934 0 139 2 157 15 146 21 -17 66 23 340 302 254 258
450 477 634 707 752 942 1081 1840 935 2551 -90 436 -368 798 -772 1003 -207
106 -424 171 -674 203 -194 24 -519 16 -719 -19 -463 -81 -926 -268 -1308
-526 l-44 -30 -65 92 c-394 558 -843 1042 -1254 1350 -60 44 -108 84 -108 88
0 10 281 207 430 301 592 372 1241 635 1955 792 537 118 1141 167 1671 135z
m-9891 -660 c651 -129 1385 -358 2045 -639 1471 -627 2717 -1531 3651 -2648
861 -1030 1466 -2236 1748 -3488 182 -808 228 -1667 126 -2372 -14 -95 -18
-108 -53 -150 l-37 -45 -12 209 c-91 1550 -551 3126 -1287 4409 -322 559 -660
1033 -1085 1520 -146 168 -617 636 -793 789 -1205 1048 -2678 1792 -4423 2234
l-264 67 45 65 c25 36 51 73 57 83 14 20 -1 22 282 -34z m-206 -284 c1919
-477 3539 -1345 4785 -2565 464 -455 841 -915 1208 -1475 767 -1168 1270
-2531 1477 -4000 51 -362 91 -828 91 -1065 l0 -88 -77 -73 c-106 -99 -228
-199 -351 -289 -109 -78 -112 -88 -34 -89 l33 -1 -25 -42 c-93 -158 -285 -398
-446 -558 -354 -354 -739 -568 -1161 -646 -100 -18 -384 -30 -493 -19 l-77 7
109 111 c353 362 580 850 706 1517 60 317 86 620 86 1007 l0 271 273 108 c149
59 288 113 308 121 l37 14 61 218 c33 120 61 225 61 233 0 22 -98 305 -168
488 -210 547 -540 1219 -854 1745 -593 990 -1307 1825 -2108 2468 -1012 811
-2173 1457 -3185 1772 -190 59 -468 129 -602 152 l-103 17 0 236 0 235 93 127
c74 102 96 126 112 123 11 -3 121 -30 244 -60z m-662 -457 c-4 -79 -7 -215 -7
-303 l-1 -160 -62 -54 c-34 -29 -109 -97 -165 -149 -57 -53 -111 -102 -120
-109 -12 -8 -58 -12 -147 -12 l-130 0 -151 192 -152 192 -9 83 -9 83 30 13
c17 7 121 48 231 91 110 43 308 122 440 176 132 53 244 97 249 98 5 0 6 -58 3
-141z m13665 -453 c468 -643 804 -1408 969 -2205 97 -468 81 -983 -47 -1540
-280 -1212 -1053 -2447 -2094 -3345 -983 -848 -2100 -1338 -3330 -1460 -194
-19 -624 -30 -794 -20 l-129 7 140 142 c197 198 409 456 562 683 24 37 51 65
64 68 12 3 76 16 142 30 846 179 1617 521 2245 995 949 717 1640 1754 2016
3027 147 499 232 954 291 1548 26 263 26 1084 0 1335 -31 303 -79 598 -128
792 -10 42 -19 79 -19 83 0 9 37 -37 112 -140z m-13257 -9 c826 -187 1759
-609 2665 -1203 420 -276 874 -619 1192 -901 1123 -992 2103 -2487 2683 -4092
l67 -185 -22 -80 c-11 -44 -30 -110 -40 -146 l-20 -67 -99 -40 -98 -39 -58
146 c-343 874 -925 1879 -1554 2685 -1232 1580 -2770 2693 -4551 3294 -198 67
-513 161 -678 202 l-42 11 180 161 180 161 0 64 c0 77 -11 75 195 29z m-1389
-226 c53 -67 94 -123 92 -126 -3 -3 -34 0 -69 5 -134 21 -369 34 -524 28 -95
-3 -153 -2 -143 4 79 44 504 209 540 209 4 0 51 -54 104 -120z m29 -199 c83
-11 150 -21 151 -21 0 0 15 -20 34 -45 l34 -45 217 0 c136 0 227 4 242 11 19
9 56 2 199 -35 1334 -347 2593 -1011 3676 -1938 442 -378 915 -865 1295 -1333
679 -836 1286 -1861 1667 -2814 33 -84 60 -155 58 -156 -9 -8 -179 -68 -182
-64 -2 2 -39 81 -81 174 -108 238 -343 702 -478 945 -877 1573 -1982 2838
-3177 3637 -921 615 -2071 1029 -3070 1104 -195 15 -602 6 -770 -15 -1022
-134 -1703 -675 -1925 -1531 -61 -234 -70 -317 -70 -635 0 -179 5 -319 13
-375 38 -268 79 -459 147 -690 36 -123 47 -179 59 -311 9 -89 20 -193 26 -230
18 -124 24 -115 -82 -112 l-92 3 -34 105 c-180 557 -282 1161 -282 1664 1 873
273 1587 818 2148 196 201 435 391 639 508 70 40 132 56 288 74 104 11 535 -3
680 -23z m600 -791 c718 -61 1498 -293 2255 -671 886 -444 1739 -1149 2511
-2079 493 -593 928 -1238 1327 -1965 142 -259 362 -703 462 -930 l75 -170 3
-240 c18 -1199 -309 -2153 -891 -2599 -66 -50 -80 -57 -106 -51 -17 4 -31 11
-31 16 0 5 19 33 43 62 111 137 232 351 307 545 249 643 268 1551 48 2417
-449 1776 -1963 3455 -4348 4822 -155 89 -180 100 -430 183 -945 316 -1709
397 -2307 246 -540 -137 -944 -461 -1193 -957 -121 -240 -225 -581 -262 -858
-20 -153 -31 -73 -32 239 -1 302 8 390 64 608 140 543 503 956 1041 1185 253
108 496 165 859 200 82 8 495 6 605 -3z m10789 -295 c366 -43 754 -161 1048
-319 90 -47 85 -32 67 -212 -64 -664 -454 -1414 -1147 -2213 -199 -229 -511
-555 -633 -661 l-56 -49 -17 179 c-54 577 -192 1087 -504 1865 -114 286 -207
494 -347 782 l-123 253 97 55 c304 170 631 276 991 320 149 18 468 18 624 0z
m-11019 -266 c360 -24 745 -100 1190 -236 306 -93 445 -148 607 -242 1422
-822 2522 -1745 3267 -2741 557 -745 913 -1535 1045 -2320 96 -575 84 -1171
-34 -1637 -188 -738 -654 -1210 -1375 -1393 -260 -66 -347 -75 -710 -75 -340
1 -424 8 -712 60 -783 144 -1634 513 -2348 1020 -271 192 -494 384 -736 632
-872 898 -1612 2029 -2054 3142 -151 381 -203 557 -234 796 -35 268 -44 445
-38 771 8 502 64 810 214 1179 303 748 967 1109 1918 1044z m15469 -395 c83
-204 144 -440 182 -704 21 -155 30 -623 15 -817 -46 -575 -210 -1230 -471
-1883 -262 -655 -597 -1167 -1075 -1645 -864 -864 -2103 -1444 -3525 -1649
-629 -91 -1363 -93 -1909 -5 -69 11 -127 21 -129 24 -3 2 8 25 23 51 l27 46
62 -6 c139 -14 756 -18 917 -7 1067 79 2038 410 2940 1004 1602 1054 2762
2843 2951 4552 17 157 17 606 0 750 -12 97 -64 387 -78 433 -13 41 29 -45 70
-144z m509 -763 c79 -215 132 -436 164 -680 26 -205 24 -574 -5 -741 -31 -178
-65 -288 -132 -425 -92 -187 -216 -329 -372 -422 -92 -56 -91 -62 -27 140 258
825 345 1606 249 2257 -10 71 -22 147 -25 167 -7 52 97 -156 148 -296z"/>
<path d="M10548 25419 c-47 -4 -124 -17 -170 -29 -143 -37 -366 -154 -505
-268 l-42 -34 -128 31 c-449 108 -707 90 -845 -57 -80 -86 -117 -235 -98 -401
12 -103 30 -191 41 -191 4 0 19 15 34 33 69 83 192 160 332 207 90 30 252 60
325 60 l37 0 -84 -125 c-261 -386 -419 -892 -376 -1202 36 -255 180 -458 382
-534 119 -46 361 -43 554 6 290 73 552 271 670 505 62 123 88 222 89 345 1
101 -1 114 -27 167 -50 102 -175 218 -234 218 -20 0 -23 -5 -23 -39 0 -50 -41
-208 -80 -305 -86 -218 -201 -398 -344 -542 -151 -151 -290 -223 -437 -227
-121 -3 -161 51 -167 226 -10 282 107 691 324 1127 51 102 115 221 142 264
l49 80 99 -5 c220 -9 467 -3 539 15 159 39 301 140 355 251 19 40 24 67 24
135 1 76 -2 91 -29 139 -68 124 -192 169 -407 150z m222 -173 c96 -63 49 -155
-103 -205 -89 -30 -182 -41 -347 -41 l-144 0 49 51 c189 193 423 276 545 195z"/>
<path d="M11538 24709 c-107 -25 -267 -140 -365 -262 -205 -254 -343 -623
-279 -745 35 -66 120 -116 217 -128 l54 -6 222 221 c123 122 227 221 233 221
6 0 -8 -27 -30 -61 -57 -83 -80 -136 -80 -189 0 -76 57 -142 149 -175 84 -29
88 -27 230 116 108 107 131 126 131 106 0 -43 30 -125 57 -158 30 -36 114 -79
154 -79 23 0 28 6 37 43 16 61 83 195 142 282 108 160 327 392 491 520 61 47
63 48 38 15 -114 -154 -214 -298 -252 -365 -55 -96 -97 -217 -97 -278 0 -106
122 -204 267 -214 68 -5 68 -5 128 39 98 73 423 419 526 561 l20 27 -93 0 -93
0 -195 -199 c-187 -191 -264 -260 -276 -248 -3 3 64 117 149 254 252 406 277
454 277 528 0 57 -14 93 -53 133 -31 32 -79 52 -127 52 -97 0 -373 -224 -585
-473 -49 -58 -91 -104 -93 -102 -4 4 133 272 189 372 l24 42 -30 42 c-32 45
-111 105 -153 116 -19 4 -29 0 -44 -18 -46 -59 -139 -218 -223 -382 l-91 -177
-181 -183 c-100 -101 -179 -178 -175 -172 3 5 36 55 72 110 108 162 114 178
84 242 -19 40 -72 79 -128 94 -33 9 -45 7 -90 -15 -72 -36 -208 -149 -360
-298 -71 -70 -131 -126 -133 -124 -8 8 20 104 53 185 96 232 256 456 367 513
54 27 114 21 140 -14 20 -27 26 -93 13 -135 -4 -14 4 -22 35 -35 23 -10 45
-15 50 -12 17 10 39 110 39 176 0 83 -13 111 -76 167 -75 66 -188 93 -286 70z"/>
<path d="M8899 22725 c-175 -33 -359 -122 -541 -262 l-57 -44 -53 15 c-198 57
-493 93 -623 76 -85 -11 -178 -48 -230 -93 -68 -57 -115 -190 -115 -328 0 -69
24 -231 37 -252 3 -5 35 20 72 56 130 125 316 199 558 222 l73 7 -83 -124
c-174 -261 -291 -537 -343 -813 -23 -122 -24 -328 -1 -415 31 -118 92 -227
171 -305 137 -136 274 -173 534 -144 331 36 611 196 772 442 81 125 138 322
127 444 -11 117 -97 245 -202 299 -65 34 -69 31 -78 -56 -8 -76 -59 -232 -112
-347 -181 -387 -450 -630 -707 -636 -61 -2 -69 0 -98 28 -40 39 -60 108 -60
214 0 316 189 868 438 1281 l51 85 278 0 c239 0 287 3 343 18 151 43 277 132
324 230 74 152 23 313 -122 384 -51 25 -69 28 -167 30 -63 1 -143 -4 -186 -12z
m277 -144 c43 -20 74 -54 74 -82 0 -25 -47 -77 -89 -98 -93 -48 -315 -79 -454
-66 l-69 7 39 40 c164 171 376 255 499 199z"/>
<path d="M9967 22657 c-64 -97 -156 -268 -316 -587 -216 -433 -361 -778 -377
-898 -6 -47 -4 -52 30 -89 35 -40 128 -96 176 -106 23 -5 31 5 91 96 110 168
325 425 568 677 l91 95 -99 -195 c-163 -320 -211 -448 -197 -523 14 -73 86
-128 192 -148 70 -13 70 -13 233 147 l126 122 -3 -39 c-6 -62 6 -106 40 -145
41 -46 91 -71 170 -84 l65 -10 169 171 c93 94 195 194 227 222 l59 51 -46 -66
c-103 -147 -112 -233 -34 -304 31 -29 96 -61 141 -69 38 -7 38 -7 167 121 122
120 130 126 130 99 0 -95 74 -191 164 -214 50 -12 66 -9 66 15 0 30 63 165
115 249 102 162 289 367 469 514 91 74 89 71 -44 -109 -157 -212 -244 -405
-227 -500 15 -79 129 -161 243 -175 74 -9 116 16 251 148 96 93 113 107 113
86 0 -115 97 -207 243 -230 54 -9 62 -8 102 15 75 45 230 226 429 504 49 67
91 122 93 122 6 0 -115 -230 -215 -410 -92 -165 -215 -365 -275 -446 -43 -59
-45 -60 -143 -92 -54 -17 -143 -40 -196 -51 -53 -11 -101 -22 -106 -25 -14 -8
-32 -88 -32 -137 0 -50 33 -124 64 -144 41 -27 132 -39 188 -26 111 25 264
154 424 356 43 55 82 102 87 103 37 17 253 210 464 416 l153 149 0 -54 c0 -69
26 -126 82 -182 81 -81 204 -120 309 -98 109 23 166 67 434 336 l250 250 -90
3 -90 3 -200 -203 c-141 -144 -215 -212 -253 -232 -64 -34 -111 -33 -129 4
-16 31 -17 136 -2 194 10 41 13 44 52 50 151 25 358 219 426 401 34 91 27 138
-30 195 -51 50 -123 80 -195 80 -50 0 -74 -6 -131 -35 -136 -68 -260 -206
-348 -386 -51 -106 -53 -109 -264 -325 -118 -121 -206 -206 -196 -189 64 105
190 341 235 441 81 179 79 227 -12 309 -59 53 -116 74 -153 57 -22 -10 -27 -9
-41 13 -48 73 -189 133 -286 122 -146 -18 -330 -172 -484 -407 -47 -70 -113
-145 -256 -290 -106 -107 -208 -204 -227 -214 -23 -13 -31 -15 -26 -5 5 8 76
122 159 254 187 300 256 430 256 485 0 56 -20 99 -63 137 -62 54 -139 54 -226
-1 -120 -76 -307 -248 -436 -399 -49 -58 -91 -104 -93 -103 -4 5 87 187 150
298 47 85 48 88 34 117 -21 40 -100 108 -144 122 -34 11 -37 10 -59 -17 -41
-50 -149 -236 -221 -380 l-70 -139 -171 -175 -171 -175 76 118 c90 140 100
177 61 236 -27 41 -95 81 -138 81 -59 0 -225 -127 -420 -322 l-112 -113 6 43
c23 141 185 437 307 561 93 94 180 117 223 60 19 -27 25 -87 12 -128 -4 -14 4
-22 35 -36 25 -11 44 -15 50 -9 14 14 40 128 40 173 0 58 -20 100 -70 145 -65
58 -121 80 -210 80 -60 0 -86 -5 -132 -26 -157 -73 -285 -199 -402 -398 -46
-77 -88 -125 -260 -301 -153 -155 -205 -202 -200 -181 25 107 165 419 274 613
59 104 60 124 11 201 -31 49 -112 98 -161 98 -66 0 -228 -155 -464 -445 -77
-93 -146 -177 -153 -185 -8 -8 2 22 21 68 116 271 280 589 442 859 57 95 104
176 104 181 0 15 -75 79 -142 123 -85 54 -107 52 -151 -14z m4751 -785 c11
-77 -146 -275 -264 -333 -34 -17 -68 -29 -74 -27 -14 4 76 155 150 250 93 119
180 170 188 110z m-1173 0 c65 -22 65 -21 -31 -143 -50 -63 -152 -196 -227
-296 -145 -192 -252 -323 -266 -323 -37 0 -9 117 63 265 129 266 330 506 421
504 11 -1 29 -4 40 -7z m-672 -1382 c-95 -90 -163 -99 -163 -22 l0 38 98 20
c53 12 104 22 112 22 8 1 -13 -25 -47 -58z"/>
<path d="M10944 20038 c-22 -24 -49 -55 -60 -70 l-21 -27 -84 10 c-147 16
-584 23 -719 10 -573 -52 -886 -218 -957 -506 -32 -131 13 -284 117 -398 48
-52 138 -124 144 -115 1 1 8 23 15 48 90 313 427 532 951 619 103 17 320 41
327 37 1 -1 -45 -80 -103 -175 -372 -614 -631 -1176 -694 -1508 -19 -97 -9
-258 18 -315 48 -98 143 -167 271 -194 114 -24 106 -32 107 109 2 361 209 973
575 1697 65 129 138 269 162 310 l43 75 109 3 c60 1 115 0 122 -2 10 -4 -25
-82 -121 -273 -257 -515 -416 -903 -416 -1016 0 -47 3 -54 44 -92 46 -44 130
-91 181 -100 28 -6 32 -2 74 65 59 97 169 244 281 376 110 128 358 400 425
464 l46 45 -105 -205 c-188 -367 -241 -511 -217 -596 30 -111 224 -194 307
-132 16 11 101 93 190 180 l161 160 7 -59 c19 -165 159 -290 338 -301 170 -10
257 47 592 389 135 138 246 255 246 260 0 5 -41 9 -91 9 l-90 0 -222 -224
c-233 -235 -298 -286 -367 -286 -46 0 -58 9 -70 51 -13 45 -13 103 2 173 12
63 14 64 101 87 144 36 321 203 409 383 75 157 44 253 -107 323 -91 42 -168
39 -260 -10 -137 -72 -246 -182 -345 -347 -26 -44 -56 -102 -66 -129 -14 -41
-54 -86 -241 -278 -202 -206 -223 -225 -217 -193 18 99 165 429 295 662 59
106 60 109 49 150 -21 75 -72 133 -144 163 -55 23 -102 19 -149 -14 -70 -48
-282 -275 -446 -476 -85 -105 -158 -194 -163 -200 -21 -24 118 286 217 486 92
182 232 439 250 458 11 11 36 11 155 1 109 -10 144 -10 153 -1 18 18 15 127
-3 145 -9 9 -52 23 -98 33 -45 9 -82 21 -82 26 0 4 11 24 25 44 18 28 22 41
14 55 -13 24 -110 101 -176 139 -81 47 -98 40 -161 -61 -29 -47 -57 -91 -61
-99 -7 -11 -22 -11 -101 0 l-93 14 -2 33 c-6 70 -109 152 -193 152 -34 0 -45
-6 -78 -42z m1970 -875 c12 -29 -22 -118 -73 -190 -77 -110 -166 -181 -272
-218 l-39 -14 34 67 c43 85 133 211 199 281 81 84 137 111 151 74z"/>
<path d="M2115 28850 c-117 -21 -201 -67 -284 -155 -102 -108 -147 -253 -137
-445 14 -274 116 -508 400 -915 314 -449 697 -835 1076 -1085 82 -54 219 -130
235 -130 2 0 2 13 -1 30 -16 75 66 345 192 635 43 99 157 338 255 532 244 487
284 610 284 883 0 132 -4 167 -23 235 -104 359 -425 505 -746 337 -85 -44
-241 -194 -302 -289 -21 -34 -44 -70 -51 -80 -11 -16 -16 -13 -59 37 -225 261
-461 399 -707 414 -45 3 -104 1 -132 -4z m390 -301 c82 -24 176 -73 254 -134
55 -42 175 -162 220 -220 15 -19 25 -25 28 -18 3 7 27 47 54 88 72 111 165
197 268 248 82 41 87 42 185 42 94 0 106 -2 168 -33 152 -74 235 -226 245
-442 10 -225 -24 -336 -237 -765 -235 -473 -337 -725 -362 -894 -6 -42 -13
-78 -14 -79 -9 -12 -240 142 -375 249 -141 112 -381 355 -513 519 -132 165
-318 443 -380 567 -168 336 -161 626 19 792 112 104 262 131 440 80z"/>
<path d="M19071 19130 c-143 -21 -290 -141 -370 -303 -65 -131 -92 -252 -98
-442 -5 -141 -2 -188 25 -390 58 -431 73 -603 73 -846 0 -188 -11 -290 -37
-341 -14 -26 -13 -28 7 -28 56 0 290 56 434 104 402 134 833 374 1201 670 216
173 349 338 415 514 30 79 33 97 33 202 1 137 -14 191 -78 277 -52 71 -129
125 -227 160 -66 24 -88 27 -204 26 -182 0 -321 -41 -507 -146 l-76 -44 -22
91 c-61 252 -211 440 -385 484 -64 16 -126 20 -184 12z m229 -293 c120 -44
236 -203 276 -377 10 -41 21 -79 25 -83 3 -5 29 5 56 22 167 103 365 154 509
131 230 -36 374 -221 336 -430 -46 -247 -254 -474 -691 -753 -293 -188 -634
-335 -909 -392 -114 -23 -112 -24 -96 37 32 121 14 509 -42 928 -55 411 -8
665 153 827 62 61 116 92 193 109 64 14 114 9 190 -19z"/>
<path d="M6686 4269 c-510 -74 -1454 -500 -1988 -896 -462 -343 -674 -655
-638 -941 21 -162 104 -284 280 -413 63 -46 131 -82 139 -73 4 5 18 38 31 74
144 410 648 941 1310 1381 230 153 512 317 495 288 -5 -8 -34 -52 -65 -99
-256 -386 -581 -958 -845 -1490 -244 -491 -403 -911 -477 -1253 -16 -78 -22
-137 -22 -247 0 -131 2 -152 26 -217 49 -138 149 -248 281 -312 87 -43 166
-62 278 -68 88 -5 101 -3 144 18 159 80 492 532 832 1134 172 305 348 632 531
990 101 198 181 353 178 345 -3 -8 -63 -159 -134 -335 -164 -406 -275 -701
-368 -981 -158 -476 -178 -646 -93 -815 124 -248 468 -419 683 -338 192 71
605 427 994 856 717 791 1279 1652 1477 2264 90 280 105 536 41 721 -42 119
-154 253 -271 323 -61 36 -177 77 -251 88 l-40 7 -12 -149 c-45 -578 -334
-1300 -851 -2136 -353 -569 -933 -1309 -1153 -1472 -78 -57 -84 -34 -38 130
43 152 133 391 361 953 231 571 307 773 356 939 30 105 34 131 31 206 -5 105
-37 179 -110 252 -83 83 -234 136 -391 137 -96 0 -150 -40 -283 -210 -173
-220 -350 -511 -934 -1525 -427 -743 -568 -942 -594 -840 -21 83 150 669 333
1144 288 746 794 1741 1106 2176 53 73 56 82 51 119 -16 95 -97 210 -178 250
-56 28 -108 32 -222 15z"/>
<path d="M2013 3700 c-86 -23 -119 -39 -156 -78 -55 -58 -43 -139 31 -204 53
-46 152 -88 372 -158 250 -78 364 -119 525 -187 340 -143 723 -375 1066 -647
61 -48 113 -85 116 -82 14 14 -189 352 -315 525 -117 160 -210 267 -348 401
-227 220 -437 344 -678 400 -227 53 -479 65 -613 30z"/>
<path d="M18087 3704 c-377 -58 -601 -177 -897 -474 -143 -143 -264 -292 -390
-480 -115 -172 -251 -410 -235 -410 4 0 63 44 133 98 280 218 535 382 802 517
238 120 378 176 710 285 322 106 395 138 454 198 48 50 59 117 28 167 -25 40
-106 83 -189 100 -85 18 -297 18 -416 -1z"/>
<path d="M14035 3042 c-123 -79 -433 -525 -693 -994 -169 -305 -339 -661 -438
-917 l-45 -113 -122 -117 c-216 -207 -310 -292 -422 -384 -194 -159 -302 -233
-326 -225 -20 7 60 138 313 514 286 424 375 565 426 672 31 66 34 79 30 136
-13 162 -141 276 -329 295 l-84 8 -93 -69 c-231 -173 -445 -267 -609 -268 -44
0 -55 4 -72 26 -28 35 -34 79 -21 139 18 81 69 171 137 245 34 37 63 76 63 86
0 34 -41 102 -86 144 -92 84 -233 127 -331 100 -72 -20 -175 -127 -235 -245
-76 -149 -93 -217 -93 -376 0 -136 0 -136 35 -204 28 -54 46 -76 87 -104 l52
-34 -29 -56 c-45 -88 -128 -200 -207 -278 -77 -76 -131 -113 -214 -144 -49
-19 -51 -19 -46 -2 84 255 95 439 38 606 -88 255 -359 427 -676 428 -105 1
-167 -13 -250 -54 -88 -43 -160 -102 -215 -176 -27 -36 -77 -88 -111 -116 -86
-70 -209 -212 -289 -332 -157 -237 -234 -512 -210 -749 20 -194 117 -337 284
-419 111 -55 181 -68 321 -63 145 6 237 33 397 115 187 97 411 284 524 438
l45 61 91 17 c123 23 225 66 340 143 179 119 341 295 436 472 l41 78 91 12
c186 25 380 87 538 172 l73 40 -23 -33 c-12 -17 -69 -97 -127 -177 -286 -395
-484 -720 -536 -879 -22 -68 -17 -209 9 -259 25 -48 90 -108 149 -136 84 -41
164 -57 307 -63 132 -5 137 -5 187 21 111 56 289 203 523 433 l105 103 0 -98
c1 -147 40 -245 139 -351 66 -70 150 -111 227 -111 45 0 65 6 113 35 86 52
196 147 352 307 l141 144 6 -89 c5 -70 12 -102 36 -153 40 -85 120 -165 208
-207 59 -28 79 -32 149 -32 77 0 83 2 140 39 110 73 265 240 404 436 75 105
73 104 67 25 -7 -98 8 -235 31 -289 28 -63 104 -141 166 -170 63 -30 148 -46
242 -46 68 0 75 2 135 42 75 50 313 285 485 478 187 210 454 519 454 525 0 3
-66 5 -148 5 l-147 0 -120 -138 c-243 -278 -503 -522 -558 -522 -32 0 -31 32
2 165 134 529 499 1356 905 2047 47 81 86 156 86 166 0 32 -60 111 -124 163
-70 57 -183 117 -238 126 -34 5 -41 2 -72 -31 -86 -94 -326 -552 -547 -1041
-57 -126 -104 -231 -105 -233 -1 -1 -32 28 -70 66 -79 78 -109 91 -234 99
-105 7 -182 -11 -295 -67 -241 -119 -493 -394 -658 -716 l-56 -111 -338 -348
-338 -348 -3 41 c-7 89 90 388 221 683 230 517 557 1072 916 1554 77 104 141
195 141 203 0 22 -89 110 -154 150 -149 95 -220 117 -271 84z m-3946 -1320
c119 -55 169 -194 158 -437 -7 -146 -68 -405 -95 -405 -20 0 -157 51 -204 77
-57 30 -178 138 -178 157 0 18 188 221 274 296 77 67 88 89 64 133 -25 48 -83
109 -140 147 l-59 39 33 10 c40 12 101 5 147 -17z m4945 -123 c54 -42 53 -48
-15 -213 -48 -116 -82 -179 -146 -274 -266 -391 -526 -712 -575 -712 -176 2
131 745 444 1076 128 135 225 176 292 123z m-5358 -767 c75 -73 178 -133 297
-172 l68 -22 -17 -26 c-121 -190 -317 -367 -451 -409 -49 -15 -58 -16 -81 -3
-15 8 -38 37 -51 64 -46 93 -27 265 48 430 28 61 109 206 115 206 2 0 34 -30
72 -68z"/>
<path d="M2730 2140 c-744 -48 -1238 -197 -1490 -450 -112 -112 -261 -341
-342 -524 -68 -154 -90 -246 -92 -371 -1 -100 1 -114 24 -155 29 -52 92 -90
150 -90 128 0 337 106 546 277 627 511 839 666 1146 835 276 152 696 304 1162
419 52 13 83 25 75 29 -49 26 -904 48 -1179 30z"/>
<path d="M17070 2143 c-212 -10 -427 -26 -442 -32 -11 -4 56 -26 184 -60 251
-66 573 -171 738 -240 406 -171 702 -366 1300 -856 242 -198 349 -275 466
-334 173 -87 295 -93 362 -17 46 52 55 95 50 215 -4 86 -12 126 -41 212 -78
233 -258 531 -403 670 -266 252 -765 398 -1504 439 -165 9 -564 11 -710 3z"/>
</g>
</svg>
