<?xml version="1.0" standalone="no"?>
<!DOCTYPE svg PUBLIC "-//W3C//DTD SVG 20010904//EN"
 "http://www.w3.org/TR/2001/REC-SVG-20010904/DTD/svg10.dtd">
<svg version="1.0" xmlns="http://www.w3.org/2000/svg"
 width="184.000000pt" height="314.000000pt" viewBox="0 0 184.000000 314.000000"
 preserveAspectRatio="xMidYMid meet">
<metadata>
Created by potrace 1.16, written by Peter Selinger 2001-2019
</metadata>
<g transform="translate(0.000000,314.000000) scale(0.100000,-0.100000)"
fill="#ffffff" stroke="none">
<path d="M169 3107 c-24 -18 -53 -51 -64 -72 -11 -22 -24 -43 -29 -46 -5 -4
-6 -16 -3 -28 3 -12 1 -21 -4 -21 -5 0 -9 -143 -9 -340 0 -187 3 -340 8 -340
4 0 3 -402 -1 -892 -4 -520 -4 -894 1 -896 5 -1 7 -14 4 -27 -2 -14 0 -25 5
-25 5 0 15 -17 22 -38 7 -20 25 -49 39 -65 53 -56 67 -57 751 -57 678 1 668 0
734 56 73 62 69 -24 67 1393 -1 1255 -3 1331 -33 1331 -6 0 -8 2 -5 5 3 3 -13
25 -36 48 l-41 42 -681 3 -682 2 -43 -33z m1371 -832 l0 -605 -670 0 -670 0 0
605 0 605 670 0 670 0 0 -605z m-510 -875 c36 -11 78 -30 94 -42 81 -64 156
-131 151 -136 -2 -3 2 -10 10 -16 9 -6 29 -49 45 -96 41 -118 41 -212 0 -330
-16 -47 -37 -90 -47 -97 -9 -7 -13 -13 -7 -13 11 0 -67 -75 -121 -115 -22 -16
-42 -33 -45 -37 -3 -4 -37 -19 -75 -34 -134 -51 -279 -32 -403 53 -64 44 -160
147 -168 180 -4 13 -10 23 -16 23 -5 0 -6 5 -3 10 3 6 2 10 -3 10 -15 0 -42
87 -49 155 -21 222 185 469 422 505 65 10 134 3 215 -20z"/>
<path d="M932 2658 c-9 -9 -12 -81 -12 -264 l0 -252 -34 -6 c-19 -4 -55 -18
-79 -31 -43 -25 -136 -116 -157 -154 -15 -29 -12 -77 6 -95 8 -9 12 -16 7 -16
-4 0 9 -11 29 -25 20 -14 46 -25 58 -25 53 0 151 74 186 140 17 31 19 64 22
265 4 281 12 299 87 204 22 -28 45 -63 52 -79 7 -17 22 -32 37 -36 80 -20 86
28 17 142 -28 45 -51 87 -51 93 0 6 -4 11 -10 11 -5 0 -10 7 -10 15 0 8 -4 15
-10 15 -5 0 -10 7 -10 15 0 8 -5 15 -12 15 -6 0 -9 2 -6 5 3 3 -8 21 -25 40
-31 36 -64 44 -85 23z"/>
<path d="M800 1201 c-78 -24 -146 -87 -175 -164 -22 -57 -17 -165 10 -217 83
-166 305 -201 436 -70 105 105 105 275 0 380 -69 69 -181 98 -271 71z m150
-243 c0 -4 7 -8 15 -8 8 0 15 -4 15 -10 0 -5 -7 -10 -15 -10 -8 0 -15 -4 -15
-8 0 -5 -31 -25 -70 -45 l-70 -36 0 99 0 99 70 -36 c39 -20 70 -40 70 -45z"/>
</g>
</svg>
