<?xml version="1.0" standalone="no"?>
<!DOCTYPE svg PUBLIC "-//W3C//DTD SVG 20010904//EN"
 "http://www.w3.org/TR/2001/REC-SVG-20010904/DTD/svg10.dtd">
<svg version="1.0" xmlns="http://www.w3.org/2000/svg"
 width="914.000000pt" height="951.000000pt" viewBox="0 0 914.000000 951.000000"
 preserveAspectRatio="xMidYMid meet">
<metadata>
Created by potrace 1.16, written by Peter Selinger 2001-2019
</metadata>
<g transform="translate(0.000000,951.000000) scale(0.100000,-0.100000)"
fill="#ffffff" stroke="none">
<path d="M3655 9499 c-33 -4 -89 -10 -125 -14 -36 -3 -85 -10 -110 -15 -25 -5
-85 -17 -135 -26 -71 -13 -217 -47 -290 -68 -5 -1 -30 -8 -55 -15 -53 -15
-276 -89 -305 -102 -11 -4 -67 -27 -125 -50 -175 -69 -474 -220 -610 -307
-199 -128 -394 -265 -461 -326 -23 -20 -58 -50 -78 -64 -20 -15 -50 -40 -67
-57 -17 -16 -48 -46 -70 -66 -52 -48 -263 -271 -293 -309 -16 -22 -29 -29 -42
-25 -10 4 -19 2 -19 -3 0 -6 6 -12 13 -15 9 -3 9 -7 -1 -20 -8 -9 -20 -13 -28
-10 -8 3 -14 0 -14 -6 0 -6 4 -11 9 -11 5 0 -29 -57 -75 -127 -146 -220 -154
-233 -154 -252 0 -14 -5 -18 -20 -14 -14 4 -20 0 -20 -11 0 -9 5 -16 10 -16 6
0 10 -14 10 -31 0 -25 3 -29 19 -24 10 3 36 -4 59 -18 38 -21 40 -24 21 -35
-10 -7 -18 -15 -18 -20 2 -15 -14 -52 -22 -52 -5 0 -9 -7 -9 -15 0 -9 -10 -35
-22 -58 -12 -23 -21 -45 -20 -49 1 -5 -2 -8 -7 -8 -5 0 -12 -11 -15 -24 -3
-14 -22 -60 -41 -103 -48 -106 -50 -110 -75 -178 -12 -33 -26 -71 -32 -85 -47
-113 -209 -644 -223 -730 -2 -8 -15 -67 -29 -130 -38 -164 -84 -410 -92 -489
-2 -24 -6 -47 -9 -51 -4 -7 -8 -45 -19 -175 -2 -27 -7 -57 -10 -65 -3 -8 -7
-42 -10 -75 -3 -33 -10 -112 -15 -175 -18 -195 -20 -228 -27 -456 -5 -153 -3
-285 7 -430 8 -115 14 -235 14 -267 0 -31 5 -57 10 -57 6 0 3 -5 -5 -10 -12
-8 -12 -12 -2 -18 7 -5 10 -16 6 -25 -3 -10 -1 -17 6 -17 6 0 9 -4 6 -8 -2 -4
8 -73 24 -152 16 -80 31 -156 33 -170 28 -146 119 -425 186 -562 144 -300 319
-477 556 -563 34 -12 64 -30 70 -41 13 -26 98 -157 105 -164 4 -3 33 -41 67
-85 97 -128 227 -243 318 -280 18 -8 55 -16 82 -16 36 -2 53 -8 70 -26 27 -28
36 -29 28 -3 -5 15 -3 18 9 14 8 -3 17 -12 20 -20 3 -8 10 -14 17 -14 6 0 8 7
4 18 -4 12 -1 11 15 -5 21 -24 40 -30 40 -14 0 5 -6 12 -12 15 -7 3 1 4 17 3
17 -1 29 -7 28 -12 -1 -6 7 -11 18 -11 12 0 18 5 15 13 -9 22 36 15 62 -9 l25
-23 -5 22 c-5 20 -1 23 40 29 31 5 47 3 50 -5 2 -6 8 -11 13 -11 4 0 5 8 2 18
-6 16 -6 16 10 0 9 -9 17 -20 17 -23 0 -12 104 -106 149 -136 49 -32 83 -36
120 -15 13 7 33 11 44 8 15 -4 19 -1 14 10 -12 32 18 51 86 57 5 1 6 5 2 10
-3 5 3 12 14 16 43 13 162 132 176 175 7 21 7 21 24 3 9 -10 24 -28 33 -41
l16 -23 -2 28 c-2 29 -22 73 -38 84 -6 4 1 24 16 45 23 35 25 47 21 108 -2 37
-9 74 -15 81 -6 8 -13 27 -15 44 -2 17 -30 120 -61 228 -31 108 -57 202 -58
208 -1 5 -5 15 -8 21 -4 6 -9 21 -11 35 -3 13 -24 76 -47 139 -23 63 -73 203
-112 310 -39 107 -74 204 -79 215 -5 11 -22 56 -39 100 -17 44 -42 104 -55
133 -14 29 -25 57 -25 62 0 5 -13 38 -30 72 -17 34 -30 65 -30 70 0 5 -15 43
-34 86 -19 42 -42 98 -53 124 -10 27 -24 48 -31 48 -7 0 -11 4 -8 9 7 11 -14
74 -28 83 -6 4 -8 8 -4 8 4 0 -8 32 -27 72 -19 40 -35 78 -35 85 0 7 -4 13
-10 13 -5 0 -9 3 -8 8 1 4 -7 27 -19 52 -11 25 -26 60 -34 77 -8 18 -17 33
-21 33 -5 0 -8 8 -8 18 0 9 -14 42 -30 72 -16 30 -52 101 -80 158 -28 56 -56
102 -61 102 -6 0 -8 4 -4 9 3 5 -1 16 -9 23 -7 8 -17 25 -21 38 -4 14 -13 32
-19 40 -7 8 -25 40 -41 70 -15 30 -31 57 -35 60 -4 3 -22 33 -40 68 -18 34
-37 62 -41 62 -5 0 -9 6 -9 13 0 7 -8 22 -18 33 -10 10 -43 54 -75 96 -31 42
-64 81 -74 86 -31 16 -260 -17 -292 -42 -10 -8 -15 -8 -18 0 -4 13 -73 3 -126
-20 -41 -17 -56 -40 -59 -90 -4 -50 -18 -44 -33 14 -1 3 -4 12 -7 20 -13 33
-30 107 -32 142 -1 21 -5 40 -7 42 -8 9 5 338 15 354 3 6 8 36 22 152 10 89
104 408 163 558 12 28 29 73 39 100 32 80 140 294 176 347 19 27 32 53 29 57
-2 5 1 8 7 8 6 0 9 4 6 9 -3 5 5 20 18 34 13 14 21 28 18 31 -3 4 3 13 14 21
10 8 15 15 11 15 -4 0 1 10 13 22 11 12 20 28 20 35 0 7 5 13 10 13 6 0 10 6
10 13 0 8 9 22 20 32 11 10 17 21 15 26 -3 4 2 14 10 23 9 9 15 23 13 33 -2
12 7 19 37 25 32 6 175 51 275 86 12 4 12 6 -2 9 -16 4 -16 7 2 38 17 31 51
82 90 139 87 127 238 276 404 403 39 29 76 56 81 61 100 77 367 218 556 295
314 127 600 203 959 254 178 25 662 25 840 0 359 -51 645 -127 959 -254 189
-77 456 -218 556 -295 6 -5 42 -32 81 -61 166 -127 317 -276 404 -403 39 -57
73 -108 90 -139 18 -31 18 -34 2 -38 -14 -3 -14 -5 -2 -9 100 -35 243 -80 275
-86 30 -6 39 -13 37 -25 -2 -10 4 -24 13 -33 8 -9 13 -19 10 -23 -2 -5 4 -16
15 -26 11 -10 20 -24 20 -32 0 -7 5 -13 10 -13 6 0 10 -6 10 -13 0 -7 9 -23
20 -35 12 -12 17 -22 13 -22 -4 0 1 -7 11 -15 11 -8 17 -17 14 -21 -3 -3 5
-17 18 -31 13 -14 21 -29 18 -34 -3 -5 0 -9 6 -9 6 0 9 -3 7 -8 -3 -4 10 -30
29 -57 36 -53 144 -267 176 -347 10 -27 27 -72 39 -100 59 -150 153 -469 163
-558 14 -116 19 -146 22 -152 10 -16 23 -345 15 -354 -2 -2 -6 -21 -7 -42 -2
-35 -19 -109 -32 -142 -3 -8 -6 -17 -7 -20 -15 -58 -29 -64 -33 -14 -3 50 -18
73 -59 90 -53 23 -122 33 -126 20 -3 -8 -8 -8 -18 0 -32 25 -261 58 -292 42
-10 -5 -43 -44 -74 -86 -32 -42 -65 -86 -75 -96 -10 -11 -18 -26 -18 -33 0 -7
-4 -13 -9 -13 -4 0 -23 -28 -41 -62 -18 -35 -36 -65 -40 -68 -4 -3 -20 -30
-35 -60 -16 -30 -34 -62 -41 -70 -6 -8 -15 -26 -19 -40 -4 -13 -14 -30 -21
-38 -8 -7 -12 -18 -9 -23 4 -5 2 -9 -4 -9 -5 0 -33 -46 -61 -102 -28 -57 -64
-128 -80 -158 -16 -30 -30 -63 -30 -72 0 -10 -3 -18 -8 -18 -4 0 -13 -15 -21
-33 -8 -17 -23 -52 -34 -77 -12 -25 -20 -48 -19 -52 1 -5 -3 -8 -8 -8 -6 0
-10 -6 -10 -13 0 -7 -16 -45 -35 -85 -19 -40 -31 -72 -27 -72 4 0 2 -4 -4 -8
-14 -9 -35 -72 -28 -83 3 -5 -1 -9 -8 -9 -7 0 -21 -21 -31 -48 -11 -26 -34
-82 -53 -124 -19 -43 -34 -81 -34 -86 0 -5 -13 -36 -30 -70 -16 -34 -30 -67
-30 -72 0 -5 -11 -33 -25 -62 -13 -29 -38 -89 -55 -133 -17 -44 -34 -89 -39
-100 -5 -11 -40 -108 -79 -215 -39 -107 -89 -247 -112 -310 -23 -63 -44 -126
-47 -139 -2 -14 -7 -29 -11 -35 -3 -6 -7 -16 -8 -21 -1 -6 -27 -100 -58 -208
-31 -108 -59 -211 -61 -228 -2 -17 -9 -36 -15 -44 -6 -7 -13 -44 -15 -81 -4
-61 -2 -73 21 -108 15 -21 22 -41 16 -45 -16 -11 -36 -55 -38 -84 l-2 -28 16
23 c9 13 24 31 33 41 17 18 17 18 24 -3 8 -26 28 -51 75 -95 60 -57 82 -74
101 -80 11 -4 17 -11 14 -16 -4 -5 -3 -9 2 -10 68 -6 98 -25 86 -57 -5 -11 -1
-14 14 -10 11 3 31 -1 44 -8 37 -21 71 -17 120 15 45 30 149 124 149 136 0 3
8 14 17 23 16 16 16 16 10 0 -3 -10 -2 -18 2 -18 5 0 11 5 13 11 3 8 20 9 55
4 l52 -7 -24 -36 c-14 -21 -28 -44 -32 -52 -4 -8 -33 -56 -65 -107 -32 -51
-58 -96 -58 -100 0 -5 -16 -30 -35 -57 -19 -27 -35 -55 -35 -62 0 -16 38 -25
44 -9 2 7 20 14 39 17 31 3 33 2 23 -14 -6 -10 -14 -18 -18 -18 -5 0 -8 -4 -8
-9 0 -6 -13 -30 -30 -54 -16 -25 -30 -48 -30 -51 0 -3 -18 -35 -40 -71 -22
-36 -40 -68 -40 -71 0 -6 -60 -96 -69 -104 -25 -22 -127 -235 -142 -296 -14
-53 -5 -184 13 -217 7 -12 13 -24 13 -27 1 -14 68 -101 92 -120 107 -84 318
-94 518 -23 82 29 247 111 324 160 29 19 54 33 56 31 1 -2 9 -16 18 -33 21
-41 84 -103 132 -128 34 -19 55 -22 150 -21 98 1 119 4 191 32 218 82 391 194
773 497 69 55 144 115 167 132 l41 32 -38 -72 c-35 -68 -82 -184 -110 -272
-17 -55 -15 -155 4 -192 19 -36 71 -83 95 -84 9 -1 31 -3 47 -5 78 -10 276 64
445 168 152 94 348 265 371 324 4 13 14 24 20 24 6 0 9 9 6 20 -3 11 -1 18 4
14 5 -3 9 3 9 13 0 11 5 24 11 30 6 6 9 23 7 39 -3 27 -4 26 -41 -28 -77 -112
-254 -262 -428 -362 -70 -41 -220 -113 -269 -130 -61 -22 -195 -33 -204 -17
-27 43 6 212 74 377 23 54 48 119 55 143 14 43 13 45 -12 69 -29 26 -43 24
-97 -20 -16 -12 -77 -61 -135 -108 -58 -47 -124 -98 -146 -115 -22 -16 -42
-32 -45 -35 -10 -12 -258 -190 -265 -190 -4 0 -20 -9 -35 -20 -36 -26 -141
-86 -205 -118 -239 -118 -455 -111 -512 18 -25 55 -25 55 79 136 201 157 352
330 384 441 19 65 9 93 -49 140 -34 29 -44 32 -81 27 -117 -16 -233 -98 -327
-232 -67 -95 -113 -246 -107 -352 2 -34 -1 -62 -7 -65 -5 -2 -28 -16 -50 -30
-130 -81 -395 -191 -490 -202 -113 -14 -199 -2 -267 34 -64 35 -87 90 -83 199
3 93 25 147 133 325 115 190 252 447 252 473 0 10 8 16 23 16 18 0 19 -2 7
-11 -17 -12 -10 -10 43 15 28 12 37 21 33 33 -4 10 10 34 37 67 44 52 117 160
117 174 0 4 9 15 20 25 11 9 20 26 20 37 0 13 5 17 14 14 15 -6 32 29 21 46
-4 6 1 7 12 3 15 -6 16 -4 6 8 -10 13 -6 15 29 18 23 1 56 8 74 16 90 37 221
153 317 280 34 44 63 82 67 85 7 7 92 138 105 164 6 11 36 29 70 41 237 86
412 263 556 563 67 137 158 416 186 562 2 14 17 90 33 170 16 79 26 148 24
152 -3 4 0 8 6 8 7 0 9 7 6 17 -4 9 -1 20 6 25 10 6 10 10 -2 18 -8 5 -10 10
-5 10 6 0 11 39 12 93 2 50 7 144 12 207 9 116 6 610 -4 730 -3 36 -10 117
-16 180 -5 63 -12 142 -15 175 -3 33 -7 67 -10 75 -3 8 -8 38 -10 65 -11 130
-15 168 -19 175 -3 4 -7 27 -9 51 -8 79 -54 325 -92 489 -14 63 -27 122 -29
130 -14 86 -176 617 -223 730 -6 14 -20 52 -32 85 -25 68 -27 72 -75 178 -19
43 -38 89 -41 103 -3 13 -10 24 -15 24 -5 0 -8 3 -7 8 1 4 -8 26 -20 49 -12
23 -22 49 -22 58 0 8 -4 15 -9 15 -8 0 -24 37 -22 52 0 5 -8 13 -18 20 -19 11
-17 14 21 35 23 14 49 21 59 18 16 -5 19 -1 19 24 0 17 5 31 10 31 6 0 10 7
10 16 0 11 -6 15 -20 11 -15 -4 -20 0 -20 14 0 19 -8 32 -154 252 -46 70 -80
127 -75 127 5 0 9 5 9 11 0 6 -6 9 -14 6 -8 -3 -20 1 -28 10 -10 13 -10 17 0
20 6 3 12 9 12 15 0 5 -9 7 -19 3 -13 -4 -26 3 -42 25 -30 38 -241 261 -293
309 -22 20 -53 50 -70 66 -17 17 -47 42 -67 57 -20 14 -55 44 -78 64 -67 61
-262 198 -461 326 -136 87 -435 238 -610 307 -58 23 -114 46 -125 50 -29 13
-252 87 -305 102 -25 7 -49 14 -55 15 -73 21 -219 55 -290 68 -49 9 -110 21
-135 26 -25 5 -72 12 -105 15 -33 3 -91 9 -130 14 -85 11 -727 11 -810 0z
m815 -73 c239 -34 440 -75 595 -121 50 -15 117 -35 150 -45 110 -32 430 -152
485 -181 8 -4 92 -46 185 -92 204 -101 360 -194 527 -313 68 -48 125 -90 128
-93 3 -3 26 -25 52 -48 26 -24 46 -43 44 -43 -2 0 32 -35 77 -77 44 -43 90
-88 102 -100 13 -12 20 -24 17 -27 -3 -3 7 -15 22 -27 14 -11 24 -25 21 -30
-4 -5 -1 -9 6 -9 9 0 9 -4 -1 -15 -6 -8 -9 -20 -5 -27 4 -7 -12 8 -35 35 -23
26 -48 47 -56 47 -8 0 -14 4 -14 10 0 5 -13 16 -30 25 -16 9 -30 21 -30 28 0
7 -12 20 -27 29 -16 9 -43 31 -61 47 -18 17 -38 31 -43 31 -6 0 -8 4 -5 9 3 5
-7 17 -22 26 -27 18 -132 103 -200 162 -20 18 -43 33 -49 33 -7 0 -13 4 -13 8
0 5 -11 14 -25 20 -14 6 -25 9 -25 6 0 -10 44 -54 54 -54 9 0 56 -38 119 -95
20 -19 42 -35 48 -35 5 0 7 -4 4 -10 -3 -5 -1 -10 4 -10 11 0 24 -10 81 -60
16 -14 40 -34 55 -45 57 -44 94 -86 89 -100 -8 -21 -21 -19 -36 5 -7 11 -18
20 -25 20 -18 0 -16 -7 7 -32 11 -12 18 -24 15 -26 -3 -3 -13 6 -24 19 -27 35
-80 89 -87 89 -3 0 -12 7 -20 15 -9 8 -12 15 -7 15 4 0 -4 8 -18 18 -27 18
-115 92 -152 127 -12 11 -44 37 -71 58 -27 20 -45 37 -40 37 5 1 -6 7 -24 15
-18 8 -40 22 -49 31 -11 11 -18 13 -21 5 -4 -12 21 -41 37 -41 5 0 27 -15 48
-34 21 -19 46 -42 56 -50 9 -9 19 -16 21 -16 2 0 21 -17 42 -37 60 -58 103
-93 114 -93 5 0 6 -7 3 -17 -4 -10 -2 -14 4 -10 13 8 203 -180 203 -200 0 -7
3 -12 8 -12 4 1 14 1 22 0 13 -1 13 -3 1 -10 -11 -7 -9 -14 12 -34 15 -13 27
-29 27 -34 0 -5 9 -18 20 -28 11 -10 18 -20 16 -22 -3 -3 -67 58 -143 134 -76
76 -166 163 -201 193 -35 30 -79 70 -98 88 -19 17 -39 32 -44 32 -6 0 -10 5
-10 10 0 6 -7 10 -15 10 -23 0 -18 -13 15 -42 17 -14 30 -24 30 -22 0 3 23
-18 52 -46 28 -27 55 -50 60 -50 5 0 6 -4 3 -10 -3 -5 -3 -10 2 -10 4 0 28
-18 52 -40 25 -22 48 -40 53 -40 4 0 8 -5 8 -10 0 -6 42 -52 93 -103 98 -98
141 -147 150 -172 11 -26 -18 -17 -36 13 -9 15 -30 42 -47 61 -16 18 -30 37
-30 41 0 4 -20 17 -45 30 -25 13 -45 27 -45 32 0 5 -45 53 -99 108 -55 55 -97
100 -94 100 3 0 -13 14 -35 30 -23 17 -42 34 -42 38 0 12 -61 45 -68 37 -4 -4
-1 -10 6 -12 7 -3 18 -12 25 -20 7 -8 20 -22 30 -31 51 -46 126 -122 121 -122
-3 0 1 -7 10 -15 8 -8 19 -15 24 -15 5 0 16 -10 25 -22 8 -13 30 -39 48 -59
19 -20 61 -66 94 -102 33 -37 74 -82 91 -101 41 -44 169 -223 185 -258 7 -16
16 -28 21 -28 5 0 6 -5 2 -11 -3 -6 0 -15 7 -20 11 -7 11 -9 1 -9 -7 0 -15 8
-19 18 -3 9 -13 25 -21 35 -8 9 -12 17 -9 17 4 0 -1 9 -10 19 -9 11 -21 17
-27 14 -6 -4 -4 2 4 12 14 17 13 18 -6 13 -22 -6 -51 25 -46 49 2 8 -3 10 -14
6 -13 -5 -16 -3 -11 10 4 11 1 17 -8 17 -9 0 -12 6 -8 17 4 11 3 14 -5 9 -7
-4 -12 -1 -12 9 0 9 -4 13 -10 10 -6 -3 -7 1 -4 9 3 9 1 16 -5 16 -6 0 -11 7
-11 15 0 8 -4 15 -9 15 -5 0 -22 18 -38 40 -29 40 -50 53 -39 23 6 -15 4 -15
-14 2 -11 10 -19 20 -17 22 2 1 -25 32 -60 69 -35 36 -63 70 -63 75 0 5 -7 9
-15 9 -8 0 -15 4 -15 9 0 9 -60 80 -93 110 -10 9 -44 41 -76 71 -100 95 -121
110 -121 91 0 -12 148 -161 160 -161 5 0 10 -7 10 -15 0 -7 8 -19 18 -24 19
-12 12 -14 -12 -5 -9 3 -16 11 -16 18 -1 18 -208 172 -218 161 -3 -3 -2 -9 4
-13 52 -36 124 -96 124 -105 0 -6 2 -8 6 -5 7 8 120 -101 117 -113 -2 -5 8
-11 22 -15 14 -3 25 -12 25 -20 0 -8 5 -14 11 -14 11 0 81 -70 70 -71 -3 0 4
-4 17 -9 12 -5 22 -16 22 -25 0 -8 9 -15 20 -15 13 0 18 -5 14 -15 -5 -11 -2
-14 12 -9 11 4 16 4 12 0 -3 -4 8 -22 25 -40 45 -45 87 -95 87 -103 0 -4 -20
13 -44 38 -69 69 -165 159 -241 224 -38 33 -85 75 -103 93 -19 17 -37 32 -42
32 -4 0 -16 11 -26 25 -10 14 -24 25 -30 25 -6 0 -20 11 -32 25 -13 14 -27 23
-32 20 -6 -3 -10 1 -10 9 0 9 -3 15 -7 15 -18 -3 -36 1 -30 7 12 12 -38 48
-70 49 -44 1 -42 -9 7 -36 22 -12 38 -24 36 -27 -3 -2 -47 21 -98 51 -175 103
-357 192 -543 266 -11 5 -38 16 -60 26 -45 19 -209 75 -240 81 -11 2 -29 8
-40 13 -24 12 -144 42 -305 77 -123 26 -140 30 -210 39 -25 3 -52 8 -60 10 -8
2 -53 7 -100 11 -47 3 -103 8 -125 10 -22 2 -119 4 -215 4 -96 0 -193 -2 -215
-4 -22 -2 -78 -7 -125 -10 -47 -4 -92 -9 -100 -11 -8 -2 -35 -7 -60 -10 -70
-9 -87 -13 -210 -39 -161 -35 -281 -65 -305 -77 -11 -5 -29 -11 -40 -13 -31
-6 -195 -62 -240 -81 -22 -10 -49 -21 -60 -26 -186 -74 -368 -163 -543 -266
-51 -30 -95 -53 -98 -51 -2 3 14 15 36 27 49 27 51 37 7 36 -32 -1 -82 -37
-69 -49 5 -6 -13 -10 -30 -7 -5 0 -8 -6 -8 -15 0 -8 -4 -12 -10 -9 -5 3 -19
-6 -32 -20 -12 -14 -26 -25 -32 -25 -6 0 -20 -11 -30 -25 -10 -14 -22 -25 -26
-25 -5 0 -23 -15 -42 -32 -18 -18 -65 -60 -103 -93 -76 -65 -172 -155 -241
-224 -24 -25 -44 -42 -44 -38 0 8 42 58 87 103 17 18 28 36 25 40 -4 4 1 4 12
0 14 -5 17 -2 12 9 -4 10 1 15 14 15 11 0 20 7 20 15 0 9 10 20 23 25 12 5 19
9 16 9 -11 1 59 71 70 71 6 0 11 6 11 14 0 8 11 17 25 20 14 4 24 10 22 15 -3
12 110 121 117 113 4 -3 6 -1 6 5 0 9 72 69 124 105 6 4 7 10 4 13 -11 11
-217 -144 -218 -162 0 -7 -2 -13 -4 -13 -2 0 -13 -3 -23 -6 -17 -5 -17 -5 0 6
9 6 17 18 17 25 0 8 5 15 10 15 12 0 160 149 160 161 0 19 -21 4 -121 -91 -32
-30 -66 -62 -76 -71 -33 -30 -93 -101 -93 -110 0 -5 -7 -9 -15 -9 -8 0 -15 -4
-15 -9 0 -5 -28 -39 -63 -75 -35 -37 -62 -68 -60 -69 2 -2 -6 -12 -17 -22 -18
-17 -20 -17 -14 -2 11 30 -10 17 -39 -23 -16 -22 -33 -40 -38 -40 -5 0 -9 -7
-9 -15 0 -8 -5 -15 -11 -15 -6 0 -8 -7 -5 -16 3 -8 2 -12 -4 -9 -6 3 -10 -1
-10 -10 0 -10 -5 -13 -12 -9 -8 5 -9 2 -5 -9 4 -11 1 -17 -8 -17 -9 0 -12 -6
-8 -17 5 -13 2 -15 -11 -10 -11 4 -16 2 -14 -6 5 -24 -24 -55 -46 -49 -19 5
-20 4 -6 -13 8 -10 10 -16 4 -12 -6 3 -18 -3 -27 -14 -9 -10 -14 -19 -10 -19
3 0 -1 -8 -9 -17 -8 -10 -18 -26 -21 -35 -4 -10 -12 -18 -19 -18 -10 0 -10 2
1 9 7 5 10 14 7 20 -4 6 -3 11 2 11 5 0 14 12 21 28 16 35 144 214 185 258 17
19 58 64 91 101 33 36 75 82 94 102 18 20 40 46 48 59 9 12 20 22 25 22 5 0
16 7 24 15 9 8 13 15 10 15 -5 0 70 76 121 122 10 9 23 23 30 31 7 8 18 17 25
20 7 2 10 8 6 12 -7 8 -68 -25 -68 -37 0 -4 -19 -21 -42 -38 -22 -16 -38 -30
-35 -30 3 0 -39 -45 -94 -100 -54 -55 -99 -103 -99 -108 0 -5 -20 -19 -45 -32
-25 -13 -45 -26 -45 -30 0 -4 -14 -23 -30 -41 -17 -19 -38 -46 -47 -61 -18
-30 -47 -39 -36 -13 9 25 52 74 150 172 51 51 93 97 93 103 0 5 4 10 8 10 5 0
28 18 53 40 24 22 48 40 52 40 5 0 5 5 2 10 -3 6 -2 10 3 10 5 0 32 23 60 50
29 28 52 49 52 46 0 -2 13 8 30 22 33 29 38 42 15 42 -8 0 -15 -4 -15 -10 0
-5 -4 -10 -10 -10 -5 0 -25 -15 -44 -32 -19 -18 -63 -58 -98 -88 -35 -30 -125
-117 -201 -193 -76 -76 -140 -137 -143 -134 -2 2 5 12 16 22 11 10 20 23 20
28 0 5 12 21 27 34 21 20 23 27 12 34 -12 7 -12 9 1 10 8 1 18 1 23 0 4 0 7 5
7 12 0 20 190 208 203 200 6 -4 8 0 4 10 -3 10 -2 17 3 17 11 0 54 35 114 93
21 20 40 37 42 37 2 0 12 7 22 16 9 8 34 31 55 50 21 19 43 34 48 34 16 0 41
29 37 41 -3 8 -10 6 -21 -5 -9 -9 -31 -23 -49 -31 -18 -8 -29 -14 -24 -15 5 0
-13 -17 -40 -37 -27 -21 -59 -47 -71 -58 -37 -35 -125 -109 -152 -127 -14 -10
-22 -18 -18 -18 5 0 2 -7 -7 -15 -8 -8 -17 -15 -20 -15 -7 0 -60 -54 -87 -89
-11 -13 -21 -22 -24 -19 -3 2 4 14 15 26 23 25 25 32 7 32 -7 0 -18 -9 -25
-20 -15 -24 -28 -26 -36 -5 -5 14 32 56 89 100 15 11 39 31 55 45 57 50 70 60
81 60 5 0 7 5 4 10 -3 6 -1 10 4 10 6 0 28 16 48 35 63 57 110 95 119 95 10 0
54 44 54 54 0 3 -11 0 -25 -6 -14 -6 -25 -15 -25 -20 0 -4 -6 -8 -12 -8 -7 0
-30 -15 -50 -33 -68 -59 -173 -144 -200 -162 -15 -9 -25 -21 -22 -26 3 -5 1
-9 -5 -9 -5 0 -25 -14 -43 -31 -18 -16 -45 -38 -60 -47 -16 -9 -28 -22 -28
-29 0 -7 -13 -19 -30 -28 -16 -9 -30 -20 -30 -25 0 -6 -6 -10 -14 -10 -8 0
-33 -21 -56 -47 -23 -27 -39 -42 -35 -35 4 7 1 19 -5 27 -10 11 -10 15 -1 15
7 0 10 4 6 9 -3 5 7 19 21 30 15 12 25 24 22 27 -3 3 4 15 17 27 12 12 58 57
102 100 45 42 79 77 77 77 -2 0 18 19 44 43 26 23 49 45 52 48 3 3 60 45 128
93 167 119 323 212 527 313 93 46 177 88 185 92 55 29 375 149 485 181 33 10
101 30 150 45 168 50 432 102 635 124 52 6 111 13 130 15 81 9 550 -4 650 -18z
m-61 -540 c13 -3 52 -8 85 -11 33 -3 65 -10 71 -16 6 -6 -1 -8 -20 -4 -112 19
-136 21 -141 14 -2 -5 5 -11 18 -13 13 -3 32 -7 43 -9 11 -3 3 -5 -17 -6 -20
0 -40 4 -43 10 -4 6 -14 8 -22 5 -8 -3 -20 -3 -26 1 -22 14 -49 14 -41 1 5 -9
2 -8 -10 1 -13 11 -20 11 -28 3 -15 -15 -32 -16 -23 -2 3 6 0 10 -7 11 -7 0
-32 2 -55 4 -24 2 -43 -1 -43 -6 0 -5 19 -9 43 -10 37 -1 39 -2 15 -9 -15 -4
-81 -8 -148 -8 -67 0 -133 4 -148 8 -24 7 -22 8 16 9 23 1 42 5 42 10 0 5 -19
8 -42 6 -24 -2 -49 -4 -56 -4 -7 -1 -10 -5 -7 -11 9 -14 -8 -13 -23 2 -8 8
-15 8 -28 -3 -12 -9 -15 -10 -10 -1 8 13 -19 13 -41 -1 -6 -4 -18 -4 -26 -1
-8 3 -18 1 -22 -5 -3 -6 -23 -10 -43 -10 -20 1 -28 3 -17 6 11 2 30 6 43 9 13
2 20 8 18 13 -5 7 -29 5 -141 -14 -19 -4 -26 -2 -20 4 10 10 35 14 180 27 39
4 71 8 73 9 6 5 578 -4 601 -9z m-229 -79 c0 -5 5 -5 10 -2 6 4 43 2 83 -4 39
-6 96 -12 124 -13 29 -2 53 -6 53 -9 0 -10 -27 -19 -34 -12 -8 9 -121 13 -356
13 -235 0 -348 -4 -356 -13 -7 -7 -34 2 -34 12 0 3 24 7 53 9 28 1 85 7 124
13 40 6 77 8 83 4 5 -3 10 -3 10 2 0 4 54 8 120 8 66 0 120 -4 120 -8z m-3643
-1898 c-6 -19 -14 -36 -17 -39 -3 -3 -6 -14 -6 -25 -1 -11 -5 -35 -9 -52 -6
-27 -4 -33 9 -33 9 0 16 5 16 10 0 20 25 4 32 -20 6 -20 2 -30 -22 -50 -17
-14 -30 -34 -30 -44 0 -10 -7 -24 -15 -30 -13 -9 -13 -16 -3 -42 6 -18 8 -39
3 -50 -7 -17 -8 -18 -12 -1 -8 30 -20 18 -26 -25 -4 -28 -2 -45 6 -50 7 -5 8
-8 2 -8 -6 0 -16 5 -23 12 -18 18 -22 7 -13 -34 7 -28 5 -40 -5 -49 -10 -8
-14 -8 -14 0 0 6 -4 11 -10 11 -13 0 -13 -56 0 -80 8 -15 6 -20 -10 -25 -11
-3 -20 -11 -20 -17 0 -5 7 -8 15 -4 14 5 40 -26 30 -36 -3 -2 0 -19 5 -38 5
-18 7 -37 4 -41 -7 -12 -32 13 -27 27 2 6 -3 14 -13 18 -14 5 -16 0 -10 -41 5
-36 4 -44 -4 -30 -17 27 -30 20 -24 -13 4 -20 1 -34 -10 -45 -15 -15 -16 -15
-16 4 0 12 -4 21 -10 21 -12 0 -14 -43 -2 -54 12 -13 9 -30 -10 -47 -17 -16
-24 -39 -12 -39 3 0 14 5 25 10 16 9 19 7 19 -10 0 -11 -4 -20 -10 -20 -5 0
-10 -5 -10 -11 0 -6 7 -8 15 -5 22 8 30 -20 12 -39 -20 -19 -27 -19 -27 0 0 8
-5 15 -11 15 -7 0 -9 -10 -6 -26 2 -14 -2 -31 -10 -39 -15 -15 -9 -40 8 -30 5
4 9 1 9 -4 0 -18 -5 -26 -12 -24 -5 2 -8 -4 -8 -12 0 -7 -7 -18 -16 -23 -20
-11 -9 -36 12 -28 8 3 14 1 14 -5 0 -5 -7 -12 -15 -15 -8 -4 -12 -10 -9 -16 3
-5 12 -7 19 -4 32 12 19 -24 -26 -69 -45 -45 -63 -85 -39 -85 18 0 10 -15 -36
-64 l-46 -49 7 33 c4 18 9 47 10 64 2 17 8 51 13 76 6 25 13 61 16 80 3 19 10
58 16 85 5 28 19 95 30 150 11 55 38 172 60 260 23 88 43 167 45 175 4 19 33
122 50 180 8 25 28 88 45 140 18 52 33 100 34 105 10 41 32 101 39 106 5 3 8
8 7 10 -3 9 30 92 35 87 3 -2 -1 -20 -8 -39z m7053 21 c0 -5 4 -19 9 -32 5
-13 9 -27 9 -32 0 -5 4 -12 9 -15 7 -5 29 -65 39 -106 1 -5 16 -53 34 -105 17
-52 37 -115 45 -140 17 -58 46 -161 50 -180 2 -8 22 -87 45 -175 22 -88 49
-205 60 -260 11 -55 25 -122 30 -150 6 -27 13 -66 16 -85 3 -19 10 -55 16 -80
5 -25 11 -59 13 -76 1 -17 6 -46 10 -64 l7 -33 -46 49 c-46 49 -54 64 -36 64
24 0 6 40 -39 85 -45 45 -58 81 -26 69 7 -3 16 -1 19 4 3 6 -1 12 -9 16 -8 3
-15 10 -15 15 0 6 6 8 14 5 21 -8 32 17 12 28 -9 5 -16 16 -16 23 0 8 -3 14
-8 12 -7 -2 -12 6 -12 24 0 5 4 8 9 4 17 -10 23 15 8 30 -8 8 -12 25 -10 39 3
16 1 26 -6 26 -6 0 -11 -7 -11 -15 0 -19 -7 -19 -27 0 -18 19 -10 47 12 39 8
-3 15 -1 15 5 0 6 -4 11 -10 11 -5 0 -10 9 -10 20 0 17 3 19 19 10 11 -5 22
-10 25 -10 12 0 5 23 -12 39 -19 17 -22 34 -9 47 11 11 9 54 -3 54 -5 0 -10
-9 -10 -21 0 -19 -1 -19 -16 -4 -11 11 -14 25 -10 45 6 33 -7 40 -24 13 -8
-14 -9 -6 -4 30 6 41 4 46 -10 41 -10 -4 -15 -12 -13 -18 5 -14 -20 -39 -27
-27 -3 4 -1 23 4 41 5 19 8 36 5 38 -10 10 16 41 30 36 8 -4 15 -1 15 4 0 6
-9 14 -20 17 -16 5 -18 10 -10 25 13 24 13 80 0 80 -5 0 -10 -5 -10 -11 0 -8
-4 -8 -14 0 -10 9 -12 21 -5 49 9 41 5 52 -13 34 -7 -7 -17 -12 -22 -12 -7 0
-6 3 1 8 8 5 10 22 6 50 -6 43 -18 55 -26 25 -4 -17 -5 -16 -12 1 -5 11 -3 32
3 50 10 26 10 33 -3 42 -8 6 -15 20 -15 30 0 10 -13 30 -30 44 -24 20 -28 30
-22 50 7 24 32 40 32 20 0 -5 7 -10 16 -10 13 0 15 6 9 33 -4 17 -8 42 -9 55
-1 12 -4 22 -7 22 -4 0 -9 10 -12 23 -2 12 -8 31 -12 41 -6 14 -5 17 3 12 7
-4 12 -11 12 -16z m-7342 -1492 c2 -9 -3 -22 -10 -29 -36 -36 -62 -89 -37 -73
7 4 9 -2 7 -17 -2 -17 -9 -23 -21 -21 -16 3 -17 -2 -11 -35 4 -21 10 -40 13
-43 14 -12 8 -47 -9 -58 -16 -10 -20 -10 -20 2 0 8 -5 18 -11 22 -11 7 -11 2
5 -83 3 -13 -2 -29 -10 -37 -20 -20 -18 -31 6 -33 11 -1 18 2 15 8 -4 5 -2 9
3 9 15 0 23 -30 12 -48 -9 -16 -9 -16 -10 1 0 9 -5 17 -11 17 -6 0 -8 -9 -4
-21 5 -14 2 -25 -6 -30 -9 -6 -10 -12 -4 -16 6 -5 11 -12 12 -18 1 -5 8 -25
15 -44 10 -27 10 -35 1 -38 -21 -8 -15 -23 10 -23 16 0 18 -3 8 -9 -9 -6 -12
-18 -7 -37 7 -28 7 -28 -8 -9 -14 19 -15 18 -13 -20 1 -22 5 -42 8 -45 17 -14
19 -49 3 -64 -9 -10 -14 -20 -10 -23 3 -4 13 2 21 13 10 13 14 15 15 5 0 -21
-32 -41 -47 -29 -7 6 -13 7 -13 2 1 -17 25 -99 32 -110 4 -7 1 -18 -8 -25 -8
-7 -14 -8 -13 -3 1 5 0 12 -1 17 -4 12 -7 26 -9 37 0 6 -5 10 -11 10 -14 0
-13 -47 1 -56 6 -3 9 -15 6 -25 -3 -11 -1 -19 4 -19 19 0 8 -32 -21 -63 -31
-33 -37 -47 -20 -47 6 0 10 6 10 13 0 8 4 7 10 -3 5 -8 7 -22 4 -31 -2 -10 2
-19 11 -23 14 -5 12 -11 -9 -39 -27 -35 -33 -57 -17 -57 5 0 11 6 14 13 2 6 7
10 10 7 3 -3 -7 -21 -23 -40 -16 -19 -32 -32 -35 -29 -6 6 -7 511 -1 589 2 25
7 99 10 165 4 66 9 127 11 135 3 8 7 42 10 75 12 133 34 270 43 273 23 7 81
65 75 74 -3 6 0 9 8 6 8 -3 15 -12 17 -20z m7648 13 c-5 -8 55 -66 76 -73 9
-3 31 -140 43 -273 3 -33 7 -67 10 -75 2 -8 7 -69 11 -135 3 -66 8 -140 10
-165 6 -78 5 -583 -1 -589 -3 -3 -19 10 -35 29 -16 19 -26 37 -23 40 3 3 8 -1
10 -7 3 -7 9 -13 14 -13 16 0 10 22 -17 57 -21 28 -23 34 -9 39 9 4 13 13 11
23 -3 9 -1 23 4 31 6 10 10 11 10 3 0 -7 5 -13 10 -13 17 0 11 14 -20 47 -29
31 -40 63 -21 63 5 0 7 8 4 19 -3 10 0 22 6 25 14 9 15 56 1 56 -5 0 -11 -4
-11 -10 -2 -11 -5 -25 -9 -37 -1 -5 -2 -12 -1 -17 1 -5 -5 -4 -13 3 -9 7 -12
18 -8 25 7 11 31 93 32 110 0 5 -6 4 -13 -2 -15 -12 -47 8 -47 29 1 10 5 8 15
-5 8 -11 18 -17 21 -13 4 3 -1 13 -10 23 -16 15 -14 50 3 64 3 3 7 23 8 45 2
38 1 39 -13 20 -15 -19 -15 -19 -8 9 5 19 2 31 -7 37 -10 6 -8 9 9 9 24 0 30
15 10 23 -10 3 -10 11 0 38 7 19 14 39 15 44 1 6 7 13 12 18 6 4 5 10 -4 16
-8 5 -11 16 -6 30 4 12 2 21 -4 21 -6 0 -11 -8 -11 -17 -1 -17 -1 -17 -10 -1
-11 18 -3 48 12 48 5 0 7 -4 3 -9 -3 -6 4 -9 15 -8 24 2 26 13 6 33 -8 8 -13
24 -10 37 16 85 16 90 5 83 -6 -4 -11 -14 -11 -22 0 -12 -4 -12 -20 -2 -17 11
-23 46 -9 58 3 3 9 22 13 43 6 33 5 38 -11 35 -12 -2 -19 4 -21 21 -2 15 0 21
7 17 25 -16 -1 37 -36 72 -14 15 -17 35 -6 45 10 10 25 8 19 -2z m-6684 -213
c10 -13 21 -27 25 -33 19 -24 61 -93 76 -122 17 -31 14 -63 -5 -63 -5 0 -6 5
-3 11 4 6 0 16 -8 22 -17 13 -53 71 -63 100 -4 9 -9 17 -13 17 -3 0 -17 3 -30
7 -24 6 -24 6 -17 -51 4 -38 3 -55 -4 -51 -13 8 -13 14 11 -75 11 -41 25 -93
31 -115 6 -22 17 -47 24 -56 8 -8 14 -32 14 -52 0 -20 5 -37 10 -37 6 0 10
-10 10 -22 0 -12 9 -47 19 -77 21 -61 72 -230 75 -246 1 -5 8 -21 16 -35 7
-14 13 -26 12 -27 -2 -3 -1 -4 24 -83 10 -30 19 -59 20 -65 6 -26 131 -364
175 -475 28 -69 52 -133 54 -142 2 -10 10 -32 18 -50 41 -94 67 -156 67 -160
0 -3 10 -27 22 -54 12 -27 23 -58 25 -68 2 -11 8 -25 14 -32 6 -8 9 -19 7 -26
-5 -13 -53 80 -49 95 1 4 -6 15 -14 23 -8 9 -13 20 -10 25 4 5 3 9 -2 9 -4 0
-17 18 -27 40 -11 22 -23 40 -28 40 -13 0 -10 -7 28 -89 63 -132 69 -147 50
-132 -9 7 -16 19 -16 25 0 19 -91 186 -101 186 -6 0 -6 -6 0 -17 34 -66 94
-201 98 -222 2 -14 8 -28 14 -29 5 -2 7 -8 3 -13 -3 -5 0 -9 5 -9 6 0 11 -6
11 -12 0 -7 27 -68 61 -135 58 -116 88 -200 67 -187 -10 6 -98 190 -98 205 0
5 -4 9 -10 9 -5 0 -10 5 -10 11 0 6 -30 72 -66 147 -36 76 -72 153 -79 172
-24 63 -40 90 -53 90 -8 0 -12 -3 -10 -7 3 -5 13 -27 23 -50 10 -24 37 -84 61
-135 23 -51 38 -94 33 -96 -24 -9 -19 -21 122 -305 76 -152 91 -197 68 -197
-5 0 -8 4 -5 9 4 5 3 11 -2 13 -12 5 -74 128 -65 128 5 0 3 4 -3 8 -12 8 -85
157 -192 392 -58 128 -101 225 -111 253 -12 32 -27 35 -34 7 -3 -11 -1 -20 5
-20 6 0 8 -7 5 -14 -4 -10 -1 -13 9 -9 7 3 14 -1 14 -7 0 -23 128 -308 256
-569 69 -140 123 -261 122 -269 -2 -8 -16 17 -33 56 -16 39 -34 68 -39 65 -5
-4 -6 -2 -3 4 3 5 -8 36 -25 69 -40 77 -79 156 -111 225 -15 30 -30 59 -34 62
-4 4 -8 17 -10 29 -2 12 -11 34 -21 48 -9 14 -17 29 -17 33 0 4 -5 11 -11 15
-14 8 -29 52 -25 71 1 7 -2 10 -8 6 -6 -3 -11 2 -11 12 0 10 -7 28 -15 39 -8
12 -12 24 -9 27 4 3 -4 20 -16 37 -12 17 -23 36 -24 43 -10 44 -40 87 -52 74
-3 -2 15 -50 40 -106 33 -75 40 -101 29 -101 -8 0 -11 5 -8 10 3 6 1 10 -4 10
-6 0 -10 3 -9 8 4 12 -33 82 -43 82 -12 0 0 -49 20 -80 11 -17 12 -22 2 -16
-10 7 -12 3 -7 -15 7 -23 6 -23 -6 -4 -7 11 -13 22 -14 25 -1 8 -22 56 -44
104 -11 25 -20 51 -20 59 0 7 -3 17 -7 21 -5 4 -8 11 -8 14 -1 4 -6 17 -13 28
-6 12 -9 24 -6 27 3 3 -1 16 -9 29 -9 12 -19 40 -22 61 -4 20 -11 37 -15 37
-4 0 -7 6 -7 13 2 15 -40 152 -59 194 -8 17 -14 35 -14 39 0 11 -39 143 -50
169 -5 11 -18 54 -30 95 -12 41 -28 91 -36 110 -13 34 -39 138 -48 192 -2 14
-9 35 -14 45 -9 18 -25 90 -21 95 1 2 -3 13 -9 24 -6 12 -19 57 -28 100 -9 44
-18 88 -21 99 -3 11 -7 44 -10 72 -3 29 -8 51 -12 49 -3 -2 -6 12 -7 32 -1 65
-14 224 -18 231 -11 18 16 32 89 44 44 8 109 13 145 11 54 -2 67 -6 82 -26z
m5942 12 c60 -11 71 -18 67 -43 -3 -17 -15 -194 -15 -229 -1 -20 -4 -34 -7
-32 -4 2 -9 -20 -12 -49 -3 -28 -7 -61 -10 -72 -3 -11 -12 -55 -21 -99 -9 -43
-22 -88 -28 -100 -6 -11 -10 -22 -9 -24 4 -5 -12 -77 -21 -95 -5 -10 -12 -31
-14 -45 -9 -54 -35 -158 -48 -192 -8 -19 -24 -69 -36 -110 -12 -41 -25 -84
-30 -95 -11 -26 -50 -158 -50 -169 0 -4 -6 -22 -14 -39 -19 -42 -61 -179 -59
-194 0 -7 -3 -13 -7 -13 -4 0 -11 -17 -15 -37 -3 -21 -13 -49 -22 -61 -8 -13
-12 -26 -9 -29 3 -3 0 -15 -6 -27 -7 -11 -12 -24 -13 -28 0 -3 -3 -10 -7 -14
-5 -4 -8 -14 -8 -21 0 -8 -9 -34 -20 -59 -22 -48 -43 -96 -44 -104 -1 -3 -7
-14 -14 -25 -12 -19 -13 -19 -6 4 5 18 3 22 -7 15 -10 -6 -9 -1 2 16 20 31 32
80 20 80 -10 0 -47 -70 -43 -82 1 -5 -3 -8 -9 -8 -5 0 -7 -4 -4 -10 3 -5 0
-10 -8 -10 -11 0 -4 26 29 101 25 56 43 104 40 106 -12 13 -42 -30 -52 -74 -1
-7 -12 -26 -24 -43 -12 -17 -20 -34 -16 -37 3 -3 -1 -15 -9 -27 -8 -11 -15
-29 -15 -39 0 -10 -5 -15 -11 -12 -6 4 -9 1 -8 -6 4 -19 -11 -63 -25 -71 -6
-4 -11 -11 -11 -15 0 -4 -8 -19 -17 -33 -10 -14 -19 -36 -21 -48 -2 -12 -6
-25 -10 -29 -4 -3 -19 -32 -34 -62 -32 -69 -71 -148 -111 -225 -17 -33 -28
-64 -25 -69 3 -6 2 -8 -3 -4 -5 3 -23 -26 -39 -65 -17 -39 -31 -64 -33 -56 -1
8 53 129 122 269 128 261 256 546 256 569 0 6 7 10 14 7 10 -4 13 -1 9 9 -3 7
-1 14 5 14 6 0 8 9 5 20 -7 28 -22 25 -34 -7 -10 -28 -53 -125 -111 -253 -107
-235 -180 -384 -192 -392 -6 -4 -8 -8 -3 -8 9 0 -53 -123 -65 -128 -5 -2 -6
-8 -2 -13 3 -5 0 -9 -5 -9 -23 0 -8 45 68 197 141 284 146 296 122 305 -5 2
10 45 33 96 24 51 51 111 61 135 10 23 20 45 23 50 2 4 -2 7 -10 7 -13 0 -29
-27 -53 -90 -7 -19 -43 -96 -79 -172 -36 -75 -66 -141 -66 -147 0 -6 -4 -11
-10 -11 -5 0 -10 -4 -10 -9 0 -15 -88 -199 -98 -205 -21 -13 9 71 67 187 34
67 61 128 61 135 0 6 5 12 11 12 5 0 8 4 5 9 -4 5 -2 11 3 13 6 1 12 15 14 29
4 21 64 156 98 222 6 11 6 17 0 17 -10 0 -101 -167 -101 -186 0 -6 -7 -18 -16
-25 -19 -15 -13 0 50 132 38 82 41 89 28 89 -5 0 -17 -18 -28 -40 -10 -22 -23
-40 -27 -40 -5 0 -6 -4 -2 -9 3 -5 -2 -16 -10 -25 -8 -8 -15 -19 -14 -23 4
-15 -44 -108 -49 -95 -2 7 1 18 7 26 6 7 12 21 14 32 2 10 13 41 25 68 12 27
22 51 22 54 0 4 26 66 67 160 8 18 16 40 18 50 2 9 26 73 54 142 44 111 169
449 175 475 1 6 10 35 20 65 25 79 26 80 24 83 -1 1 5 13 12 27 8 14 15 30 16
35 3 16 54 185 75 246 10 30 19 65 19 77 0 12 5 22 10 22 6 0 10 17 10 37 0
20 6 44 14 52 7 9 18 34 24 56 6 22 20 74 31 115 24 89 24 83 11 75 -7 -4 -8
13 -4 51 7 57 7 57 -17 51 -13 -4 -27 -7 -30 -7 -4 0 -9 -8 -13 -17 -10 -29
-46 -87 -63 -100 -8 -6 -12 -16 -8 -22 3 -6 2 -11 -3 -11 -19 0 -22 32 -5 63
18 37 65 110 74 117 3 3 11 15 18 28 7 13 21 27 33 31 29 10 144 6 222 -9z
m-6310 -28 c6 -10 16 -133 21 -257 2 -49 4 -94 4 -98 1 -5 7 -5 14 -2 6 4 4 0
-6 -8 -10 -9 -14 -18 -9 -21 6 -3 8 -15 5 -26 -3 -12 0 -20 7 -20 7 0 9 -8 5
-21 -5 -14 -3 -19 3 -15 9 6 23 -29 36 -89 7 -29 55 -192 110 -365 14 -47 28
-94 30 -105 3 -11 16 -58 31 -105 14 -47 28 -92 29 -100 2 -8 6 -22 9 -30 3
-8 18 -53 32 -100 15 -47 44 -131 66 -186 21 -56 39 -105 39 -108 0 -4 8 -26
19 -49 10 -23 28 -67 39 -99 12 -31 30 -76 41 -100 11 -23 31 -72 46 -108 14
-36 30 -74 35 -85 4 -11 16 -42 26 -70 9 -27 21 -54 26 -59 4 -6 8 -14 8 -20
0 -5 -6 -1 -14 10 -8 10 -18 16 -21 12 -4 -4 20 -62 54 -130 37 -74 51 -111
36 -94 -13 17 -22 33 -19 38 3 4 0 8 -5 8 -6 0 -11 7 -11 16 0 10 -5 14 -16
10 -9 -3 -12 -2 -9 5 8 13 -43 119 -57 119 -5 0 -8 -6 -5 -14 3 -8 1 -16 -5
-18 -15 -5 -68 54 -68 75 0 17 -18 33 -27 24 -7 -8 6 -45 23 -62 22 -21 36
-75 19 -69 -7 3 -43 80 -80 172 -36 92 -70 176 -75 187 -16 38 -78 201 -103
270 -13 39 -33 93 -43 120 -10 28 -19 52 -20 55 0 3 -3 12 -7 20 -29 72 -109
331 -106 346 0 4 -3 10 -8 13 -5 3 -15 29 -21 56 -7 28 -14 55 -15 60 -1 6 -5
15 -8 20 -9 15 -23 69 -20 79 1 4 -3 13 -8 20 -6 6 -14 30 -20 51 -6 22 -17
66 -26 97 -39 144 -47 176 -54 228 -5 30 -14 80 -20 110 -17 84 -19 230 -4
230 7 0 13 5 13 10 0 6 -5 10 -11 10 -8 0 -9 13 -4 43 3 23 8 53 9 67 4 34 75
75 90 52z m6490 -11 c18 -10 30 -26 32 -41 1 -14 6 -44 9 -67 5 -30 4 -43 -4
-43 -6 0 -11 -4 -11 -10 0 -5 6 -10 13 -10 15 0 13 -146 -4 -230 -6 -30 -15
-80 -20 -110 -7 -51 -18 -95 -55 -230 -8 -30 -19 -73 -25 -95 -6 -21 -14 -45
-20 -51 -5 -7 -9 -16 -8 -20 3 -10 -11 -64 -20 -79 -3 -5 -7 -14 -8 -20 -1 -5
-8 -32 -15 -60 -6 -27 -16 -53 -21 -56 -5 -3 -8 -9 -8 -13 3 -15 -77 -274
-106 -346 -4 -8 -7 -17 -7 -20 -1 -3 -10 -27 -20 -55 -10 -27 -30 -81 -43
-120 -25 -69 -87 -232 -103 -270 -5 -11 -39 -95 -75 -187 -37 -92 -73 -169
-80 -172 -17 -6 -3 48 19 69 17 17 30 54 23 62 -9 9 -27 -7 -27 -24 0 -21 -53
-80 -68 -75 -6 2 -8 10 -5 18 3 8 0 14 -5 14 -14 0 -65 -106 -57 -119 3 -7 0
-8 -9 -5 -11 4 -16 0 -16 -10 0 -9 -5 -16 -11 -16 -5 0 -8 -4 -5 -8 3 -5 -6
-21 -19 -38 -15 -17 -1 20 36 94 34 68 58 126 54 130 -3 4 -13 -2 -21 -12 -8
-11 -14 -15 -14 -10 0 6 4 14 8 20 5 5 17 32 26 59 10 28 22 59 26 70 5 11 21
49 35 85 15 36 35 85 46 108 11 24 29 69 41 100 11 32 29 76 39 99 11 23 19
45 19 49 0 3 18 52 39 108 22 55 51 139 66 186 14 47 29 92 32 100 3 8 7 22 9
30 1 8 15 53 29 100 15 47 28 94 31 105 2 11 14 54 27 95 43 135 106 347 113
375 13 60 27 95 36 89 6 -4 8 1 3 15 -4 13 -2 21 5 21 7 0 10 8 7 20 -3 11 -1
23 5 26 5 3 1 12 -9 21 -10 8 -12 12 -5 8 6 -3 12 -3 13 2 0 4 2 49 4 98 5
124 15 247 21 257 8 12 25 9 58 -11z m-6719 -494 c5 4 3 0 -4 -9 -7 -9 -10
-26 -6 -37 3 -11 8 -30 10 -43 3 -13 7 -35 10 -50 4 -15 8 -42 10 -60 7 -56
16 -88 23 -84 4 2 7 -10 8 -27 1 -18 5 -56 9 -84 6 -42 12 -53 26 -53 11 0 19
-4 19 -10 0 -5 -7 -7 -17 -3 -13 5 -15 2 -9 -18 4 -13 12 -43 18 -66 10 -45
28 -58 28 -21 0 35 15 8 19 -34 1 -5 8 -8 16 -8 8 0 12 -6 9 -15 -3 -8 -1 -30
6 -49 6 -19 13 -47 16 -62 3 -14 11 -39 19 -55 8 -15 15 -35 15 -43 0 -8 7
-22 16 -30 8 -9 11 -16 5 -16 -6 0 -8 -7 -5 -15 4 -8 10 -12 15 -9 5 3 6 -2 3
-10 -3 -9 -1 -16 6 -16 6 0 8 -5 5 -10 -10 -16 51 -170 67 -170 9 0 7 21 -7
80 l-6 25 12 -25 c6 -14 13 -36 15 -49 3 -13 10 -33 15 -43 6 -11 8 -22 6 -25
-3 -2 -8 6 -12 18 l-7 22 -17 -21 c-16 -21 -17 -19 -60 91 -24 61 -50 126 -57
144 -8 17 -14 34 -14 38 0 3 -9 27 -21 52 -11 25 -22 54 -24 64 -5 26 -14 39
-26 39 -10 0 -6 -28 11 -65 32 -70 89 -228 85 -234 -2 -5 1 -25 7 -47 7 -21
12 -41 13 -44 4 -20 49 -127 57 -137 6 -7 8 -13 4 -13 -4 0 3 -18 14 -39 21
-42 18 -73 -6 -64 -12 5 -13 1 -2 -23 20 -45 215 -435 237 -474 30 -52 83
-172 77 -177 -2 -2 -12 14 -22 37 -10 23 -30 48 -44 55 -14 8 -20 14 -13 15 8
0 8 6 0 25 -7 15 -18 23 -26 20 -10 -4 -12 1 -7 20 4 15 2 25 -5 25 -15 0 -39
26 -31 35 4 3 -1 11 -10 16 -9 5 -19 23 -23 39 -4 17 -11 30 -16 30 -5 0 -9
10 -9 23 0 12 -7 35 -15 51 -8 15 -15 35 -15 42 0 8 -4 14 -10 14 -5 0 -10 9
-10 19 0 11 -5 23 -10 26 -6 4 -8 10 -5 14 6 11 -22 47 -31 39 -4 -4 -2 -14 4
-21 7 -8 9 -16 6 -20 -3 -3 4 -27 16 -54 12 -26 23 -55 25 -63 1 -8 15 -42 30
-75 57 -128 57 -128 44 -136 -10 -6 -10 -11 2 -25 12 -16 12 -17 -4 -11 -10 4
-16 3 -12 -2 3 -5 -1 -12 -7 -15 -10 -5 -10 -7 -1 -12 7 -3 10 -11 7 -19 -6
-14 82 -198 97 -203 5 -2 7 -8 3 -13 -3 -5 4 -26 17 -47 l22 -37 -27 29 c-14
16 -26 35 -26 43 0 7 -9 22 -20 33 -11 11 -17 26 -14 35 4 8 -1 17 -10 21 -9
3 -13 10 -10 15 3 5 1 9 -3 9 -5 0 -22 29 -38 65 -28 60 -45 81 -45 53 0 -15
59 -138 76 -158 7 -8 13 -18 13 -23 0 -4 8 -21 17 -39 22 -42 25 -78 7 -71 -9
4 -11 9 -5 15 11 11 -22 77 -45 91 -7 4 -10 13 -7 20 2 7 -11 37 -30 67 -19
30 -32 58 -30 62 3 5 1 8 -4 8 -5 0 -17 19 -27 43 -10 23 -24 56 -31 74 -8 17
-14 36 -14 42 0 15 -20 14 -21 -1 0 -10 -2 -10 -6 0 -2 6 -9 10 -14 7 -5 -4
-6 2 -2 11 4 11 -2 23 -18 36 -13 11 -17 16 -9 12 12 -6 13 -4 3 7 -7 7 -13
21 -13 31 0 9 -8 22 -17 27 -10 6 -15 11 -11 11 11 0 -13 60 -24 60 -5 0 -6 5
-3 10 3 6 3 10 -2 10 -4 0 -9 10 -9 23 -2 29 -7 43 -33 102 -12 28 -25 62 -28
78 -3 15 -9 27 -14 27 -5 0 -8 3 -8 8 2 9 4 3 -37 117 -19 55 -37 107 -38 115
-2 8 -6 22 -9 30 -14 35 -47 141 -50 160 -2 10 -6 23 -10 26 -4 4 -7 20 -7 36
0 15 -4 28 -10 28 -5 0 -10 9 -10 20 0 27 -32 140 -39 140 -4 0 -6 15 -5 33 1
18 -4 51 -12 72 -7 21 -10 43 -7 48 3 4 -3 15 -13 23 -11 9 -13 12 -5 8 9 -5
12 -1 8 12 -8 29 -21 108 -19 117 1 4 -2 7 -7 7 -5 0 -5 19 0 43 5 23 11 60
15 82 8 52 67 171 113 228 l36 44 10 -34 c6 -21 14 -31 20 -26z m7028 -100
c19 -40 38 -90 41 -112 4 -22 10 -59 15 -82 5 -24 5 -43 0 -43 -5 0 -8 -3 -7
-7 2 -9 -11 -88 -19 -117 -4 -13 -1 -17 8 -12 8 4 6 1 -5 -8 -10 -8 -16 -19
-13 -23 3 -5 0 -27 -7 -48 -8 -21 -13 -54 -12 -72 1 -18 -1 -33 -5 -33 -7 0
-39 -113 -39 -140 0 -11 -4 -20 -10 -20 -5 0 -10 -13 -10 -28 0 -16 -3 -32 -7
-36 -4 -3 -8 -16 -10 -26 -3 -19 -36 -125 -50 -160 -3 -8 -7 -22 -9 -30 -1 -8
-19 -60 -38 -115 -41 -114 -39 -108 -37 -117 0 -5 -3 -8 -8 -8 -5 0 -11 -12
-14 -27 -3 -16 -16 -50 -28 -78 -26 -59 -31 -73 -33 -102 0 -13 -5 -23 -9 -23
-5 0 -5 -4 -2 -10 3 -5 2 -10 -3 -10 -11 0 -35 -60 -24 -60 4 0 -1 -5 -10 -11
-10 -5 -18 -18 -18 -27 0 -10 -6 -24 -12 -31 -11 -11 -10 -13 2 -7 8 4 4 -1
-9 -12 -16 -13 -22 -25 -18 -36 4 -10 3 -15 -3 -11 -6 3 -10 0 -11 -7 0 -10
-2 -10 -6 0 -6 15 -23 16 -23 1 0 -6 -6 -25 -14 -42 -7 -18 -21 -51 -31 -74
-10 -24 -22 -43 -27 -43 -5 0 -7 -3 -4 -8 2 -4 -11 -32 -30 -62 -19 -30 -32
-60 -30 -67 3 -7 0 -16 -7 -20 -23 -14 -56 -80 -45 -91 6 -6 4 -11 -5 -15 -18
-7 -15 29 7 71 9 18 17 35 17 39 0 5 6 15 13 23 17 20 76 143 76 158 0 28 -17
7 -45 -53 -16 -36 -33 -65 -38 -65 -4 0 -6 -4 -3 -9 3 -5 -1 -12 -10 -15 -9
-4 -14 -13 -10 -21 3 -9 -3 -24 -14 -35 -11 -11 -20 -26 -20 -33 0 -8 -12 -27
-26 -43 l-27 -29 22 37 c13 21 20 42 17 47 -4 5 -2 11 3 13 15 5 103 189 97
203 -3 8 0 16 7 19 9 5 9 7 -1 12 -6 3 -10 10 -7 15 4 5 -2 6 -12 2 -16 -6
-16 -5 -4 11 12 14 12 19 2 25 -13 8 -13 8 44 136 15 33 29 67 30 75 2 8 13
37 25 63 12 27 19 51 16 54 -3 4 -1 12 6 20 6 7 8 17 4 21 -9 8 -37 -28 -31
-39 3 -4 1 -10 -5 -14 -5 -3 -10 -15 -10 -26 0 -10 -4 -19 -10 -19 -5 0 -10
-6 -10 -14 0 -7 -7 -27 -15 -42 -8 -16 -15 -39 -15 -51 0 -13 -4 -23 -9 -23
-5 0 -12 -13 -16 -30 -4 -16 -14 -34 -23 -39 -9 -5 -14 -13 -10 -16 8 -9 -16
-35 -31 -35 -7 0 -9 -10 -5 -25 5 -19 3 -24 -7 -20 -8 3 -19 -5 -26 -20 -8
-19 -8 -25 0 -25 7 -1 1 -7 -13 -15 -14 -7 -34 -32 -44 -55 -10 -23 -20 -39
-22 -37 -6 5 47 125 77 177 22 39 217 429 237 474 11 24 10 28 -2 23 -24 -9
-27 22 -6 64 11 21 18 39 14 39 -4 0 -2 6 4 13 8 10 53 117 57 137 1 3 6 23
13 44 6 22 9 42 7 47 -4 6 53 164 85 234 17 37 21 65 11 65 -12 0 -21 -13 -26
-39 -2 -10 -13 -39 -24 -64 -12 -25 -21 -49 -21 -52 0 -4 -6 -21 -14 -38 -7
-18 -33 -83 -57 -144 -43 -110 -44 -112 -60 -91 l-17 21 -7 -22 c-4 -12 -9
-20 -12 -18 -2 3 0 14 6 25 5 10 12 30 15 43 2 13 9 35 15 49 l12 25 -6 -25
c-14 -59 -16 -80 -7 -80 16 0 77 154 67 170 -3 5 -1 10 5 10 7 0 9 7 6 16 -3
8 -2 13 3 10 5 -3 11 1 15 9 3 8 1 15 -5 15 -6 0 -3 7 5 16 9 8 16 22 16 30 0
8 7 28 15 43 8 16 16 41 19 55 3 15 10 43 16 62 7 19 9 41 6 49 -3 9 1 15 9
15 8 0 15 3 16 8 4 42 19 69 19 34 0 -37 18 -24 28 21 6 23 14 53 18 66 6 20
4 23 -9 18 -10 -4 -17 -2 -17 3 0 6 8 10 19 10 14 0 20 11 26 53 4 28 8 66 9
84 1 17 4 29 8 27 7 -4 16 28 23 84 2 18 6 45 10 60 3 15 7 37 10 50 2 13 7
32 10 43 4 11 1 27 -7 36 -8 11 -9 14 -1 10 8 -5 14 4 19 28 l6 35 38 -46 c20
-25 53 -77 73 -117z m-7130 -817 c34 -118 57 -191 67 -215 21 -54 70 -213 70
-228 0 -9 5 -17 10 -17 6 0 10 -9 10 -21 0 -12 7 -36 15 -55 16 -36 24 -54 75
-174 44 -103 57 -132 144 -313 46 -96 73 -164 69 -174 -4 -10 -2 -14 4 -10 6
4 14 0 17 -9 3 -8 2 -12 -4 -9 -17 11 -11 -23 14 -73 77 -154 240 -437 257
-448 5 -3 9 -11 9 -17 -1 -18 -21 12 -125 178 -123 199 -175 291 -179 320 -1
9 -8 20 -15 25 -8 4 -10 13 -6 21 5 8 5 11 0 7 -4 -4 -14 0 -21 10 -13 16 -13
16 -14 0 0 -10 5 -18 11 -18 5 0 7 -4 4 -10 -3 -5 -1 -10 4 -10 6 0 11 -8 11
-18 0 -43 272 -487 422 -690 28 -37 44 -61 37 -54 -15 14 -29 16 -29 4 0 -4
12 -20 26 -35 27 -29 27 -45 0 -30 -48 27 -408 555 -390 572 4 3 8 1 11 -5 13
-37 274 -416 339 -493 2 -2 7 -2 10 2 4 3 -30 55 -74 115 -84 114 -192 275
-204 305 -4 9 -12 17 -18 17 -5 0 -10 6 -10 13 0 6 -11 25 -25 41 -14 16 -25
35 -25 42 0 7 -6 19 -12 26 -19 20 -38 50 -44 71 -4 9 -11 17 -16 17 -5 0 -6
5 -3 10 3 6 1 10 -4 10 -21 0 -8 -34 35 -95 24 -35 38 -69 25 -60 -5 3 -32 46
-60 96 -28 50 -44 86 -36 79 12 -10 15 -9 15 4 0 10 -9 16 -25 16 -14 0 -24 3
-23 8 3 12 -32 72 -42 72 -15 0 8 -53 61 -135 14 -22 43 -71 64 -110 21 -38
45 -81 55 -95 33 -48 31 -55 -4 -15 -19 22 -33 41 -31 43 9 9 -26 33 -37 26
-10 -6 -11 -4 0 7 14 16 16 33 2 24 -5 -3 -10 -1 -10 5 0 19 -41 65 -58 65 -8
0 -24 16 -35 35 -10 19 -23 37 -28 38 -5 2 -7 7 -4 12 3 4 -10 34 -28 67 -46
81 -87 169 -96 205 -1 4 -17 38 -36 76 -35 73 -65 154 -65 177 0 7 -6 20 -13
27 -14 13 -16 21 -43 117 -8 30 -20 61 -26 68 -6 7 -7 13 -4 13 4 0 4 6 -1 13
-4 6 -8 17 -10 22 -1 6 -5 21 -8 35 -3 14 -8 36 -11 49 -3 13 -9 31 -13 40
-15 29 -23 91 -11 91 5 0 10 5 10 11 0 6 -7 9 -15 5 -11 -4 -15 1 -15 17 0 18
2 19 10 7 8 -12 10 -10 10 9 0 16 -4 22 -15 17 -9 -3 -15 0 -15 10 0 9 5 12
11 8 8 -4 9 3 4 25 -6 26 -4 30 10 24 14 -5 16 -2 10 15 -4 13 -2 22 4 22 6 0
11 -7 11 -16 0 -9 8 -23 18 -31 9 -8 11 -11 3 -7 -10 5 -12 1 -7 -15 3 -11 9
-31 12 -43 3 -13 9 -32 15 -43 5 -11 23 -67 40 -125 16 -58 34 -117 39 -132 7
-22 5 -28 -6 -28 -8 0 -14 -5 -14 -10 0 -6 7 -10 16 -8 12 2 23 -14 39 -62 12
-36 22 -68 23 -73 1 -4 10 -28 22 -53 11 -26 20 -51 20 -56 0 -5 8 -23 17 -41
9 -18 16 -38 15 -44 -2 -7 2 -13 8 -13 16 0 12 32 -10 78 -11 22 -20 47 -20
55 0 7 -5 18 -12 25 -7 7 -9 12 -5 12 4 0 0 17 -8 37 -13 32 -14 39 -1 51 15
16 20 8 30 -52 3 -15 13 -34 22 -41 10 -7 15 -19 11 -29 -8 -20 2 -48 14 -40
5 3 6 -2 3 -10 -4 -9 -1 -16 6 -16 7 0 10 -7 6 -16 -3 -8 -2 -13 2 -10 4 2 12
-7 19 -20 8 -18 8 -22 0 -17 -7 3 -4 -3 6 -14 9 -11 17 -27 17 -36 0 -9 5 -17
11 -17 5 0 7 -5 4 -10 -6 -10 22 -27 30 -19 2 2 -6 24 -18 49 -11 25 -22 50
-23 55 -1 6 -14 37 -29 70 -25 55 -25 58 -6 41 22 -20 25 -18 15 8 -3 9 -12
16 -20 16 -7 0 -18 9 -24 20 -7 14 -7 20 0 20 16 0 13 14 -34 133 -39 101
-125 345 -131 371 -1 6 -5 18 -8 26 -8 20 -40 132 -42 145 -1 6 -6 23 -13 38
-7 16 -12 37 -12 48 0 10 -5 19 -11 19 -5 0 -8 4 -5 9 4 5 1 22 -6 38 -6 15
-10 32 -9 37 1 5 -6 18 -16 29 -10 12 -12 17 -4 12 11 -6 13 -3 7 16 -34 111
-47 163 -50 189 -1 14 -7 34 -13 44 -8 14 -7 23 0 31 9 9 24 -36 58 -174 26
-102 58 -224 72 -271z m7224 415 c-6 -11 -12 -31 -13 -45 -2 -14 -7 -42 -13
-62 -19 -67 -29 -102 -37 -127 -6 -19 -4 -22 7 -16 8 5 6 0 -4 -12 -10 -11
-17 -24 -16 -29 1 -5 -3 -22 -9 -37 -7 -16 -10 -33 -6 -38 3 -5 0 -9 -5 -9 -6
0 -11 -9 -11 -19 0 -11 -5 -32 -12 -48 -7 -15 -12 -32 -13 -38 -2 -13 -34
-125 -42 -145 -3 -8 -7 -20 -8 -26 -6 -26 -92 -270 -131 -371 -47 -119 -50
-133 -34 -133 7 0 7 -6 0 -20 -6 -11 -17 -20 -25 -20 -8 0 -15 -2 -15 -4 0 -2
-3 -13 -7 -23 -6 -17 -5 -16 16 2 22 19 22 18 -4 -40 -15 -33 -28 -64 -29 -70
-1 -5 -12 -30 -23 -55 -12 -25 -20 -47 -18 -49 8 -8 36 9 30 19 -3 5 -1 10 4
10 6 0 11 8 11 17 0 9 8 25 18 36 9 11 12 17 5 14 -8 -5 -8 -1 0 17 7 13 15
22 19 20 4 -3 5 2 2 10 -4 9 -1 16 6 16 7 0 10 7 6 16 -3 8 -2 13 3 10 12 -8
22 20 14 40 -4 10 1 22 11 29 9 7 19 26 22 41 10 60 15 68 30 52 13 -12 12
-19 -1 -51 -8 -20 -12 -37 -8 -37 4 0 2 -5 -5 -12 -7 -7 -12 -18 -12 -25 0 -8
-9 -33 -20 -55 -22 -46 -26 -78 -10 -78 6 0 10 6 8 13 -1 6 6 26 15 44 9 18
17 36 17 41 0 5 9 30 20 56 12 25 21 48 21 51 0 2 11 35 23 72 17 51 27 67 40
65 9 -2 16 2 16 8 0 5 -6 10 -14 10 -11 0 -13 6 -6 28 5 15 23 74 39 132 17
58 35 114 40 125 6 11 13 31 16 45 4 14 9 33 12 44 4 13 1 17 -8 12 -8 -4 -6
-1 4 7 9 8 17 22 17 31 0 9 5 16 11 16 6 0 8 -9 4 -22 -6 -17 -4 -20 10 -15
14 6 16 2 10 -24 -5 -22 -4 -29 4 -25 6 4 11 1 11 -8 0 -10 -6 -13 -15 -10
-11 5 -15 -1 -15 -17 0 -19 2 -21 10 -9 8 12 10 11 10 -7 0 -16 -4 -21 -15
-17 -8 4 -15 1 -15 -5 0 -6 5 -11 10 -11 12 0 4 -62 -11 -91 -4 -9 -10 -27
-13 -40 -3 -13 -8 -35 -11 -49 -3 -14 -8 -32 -10 -40 -2 -8 -4 -16 -4 -17 -1
-2 -1 -6 -2 -10 0 -5 -5 -13 -9 -19 -5 -5 -16 -35 -24 -65 -27 -96 -29 -104
-43 -117 -7 -7 -13 -20 -13 -27 0 -23 -30 -104 -65 -177 -19 -38 -35 -72 -36
-76 -9 -36 -50 -124 -96 -205 -18 -33 -31 -63 -28 -67 3 -5 1 -10 -4 -12 -5
-1 -18 -19 -28 -38 -11 -19 -27 -35 -35 -35 -17 0 -58 -46 -58 -65 0 -6 -4 -8
-10 -5 -14 9 -12 -8 3 -24 10 -11 9 -13 -1 -7 -11 7 -46 -17 -37 -26 2 -2 -12
-21 -31 -43 -35 -40 -37 -33 -4 15 10 14 34 57 55 95 21 39 50 88 64 110 53
82 76 135 61 135 -10 0 -45 -60 -42 -72 1 -5 -9 -8 -23 -8 -16 0 -25 -6 -25
-16 0 -13 3 -14 15 -4 8 7 -8 -29 -36 -79 -28 -50 -55 -93 -60 -96 -13 -9 1
25 25 60 43 61 56 95 35 95 -5 0 -7 -4 -4 -10 3 -5 2 -10 -3 -10 -5 0 -12 -8
-16 -17 -6 -21 -25 -51 -43 -71 -7 -7 -13 -19 -13 -26 0 -7 -11 -26 -25 -42
-14 -16 -25 -35 -25 -41 0 -7 -5 -13 -10 -13 -6 0 -14 -8 -18 -17 -12 -30
-120 -191 -204 -305 -44 -60 -78 -112 -74 -115 3 -4 8 -4 10 -2 65 77 326 456
339 493 3 6 7 8 11 5 18 -17 -342 -545 -390 -572 -27 -15 -27 1 0 30 14 15 26
31 26 35 0 12 -14 10 -29 -4 -7 -7 9 17 37 54 150 203 422 647 422 690 0 10 5
18 11 18 5 0 7 5 4 10 -3 6 -1 10 4 10 6 0 11 8 11 18 -1 16 -1 16 -14 0 -7
-10 -17 -14 -21 -10 -5 4 -5 1 0 -7 4 -8 2 -17 -6 -21 -7 -5 -14 -16 -15 -25
-4 -29 -56 -121 -179 -320 -104 -166 -124 -196 -125 -178 0 6 4 14 9 17 17 11
180 294 257 448 25 50 31 84 14 73 -6 -3 -7 1 -4 9 3 9 11 13 17 9 6 -4 8 0 4
10 -4 10 23 78 69 174 87 181 100 210 144 313 51 120 59 138 75 174 8 19 15
43 15 55 0 12 5 21 10 21 6 0 10 8 10 17 0 15 49 174 70 228 25 62 107 354
150 531 26 104 38 138 46 130 9 -8 9 -17 1 -31z m-468 -3234 c36 -67 -111
-263 -323 -433 -113 -90 -117 -89 -96 14 24 124 92 249 184 336 90 86 211 129
235 83z"/>
<path d="M4067 9373 c-1 -1 -40 -4 -87 -7 -205 -15 -375 -35 -378 -46 -2 -6
-11 -6 -24 1 -22 12 -68 4 -68 -11 0 -6 -5 -10 -11 -10 -5 0 -8 4 -5 8 8 14
-160 -3 -179 -18 -5 -4 -32 -10 -60 -13 -43 -5 -84 -14 -255 -52 -125 -29
-360 -115 -360 -132 0 -7 -8 -12 -17 -11 -27 2 -83 -13 -83 -23 0 -5 -6 -6
-13 -3 -7 2 -22 -4 -32 -14 -31 -28 -91 -62 -109 -62 -9 0 -16 -5 -16 -11 0
-5 -3 -8 -8 -5 -9 5 -48 -22 -40 -29 3 -3 18 1 34 9 16 8 65 29 109 47 44 18
86 37 93 42 7 6 12 6 12 0 0 -5 -23 -20 -51 -34 -76 -35 -89 -43 -89 -51 0
-14 19 -9 78 18 121 56 166 75 234 99 39 14 76 25 82 25 17 -1 -97 -49 -115
-50 -28 0 -206 -88 -212 -105 -4 -8 -13 -15 -20 -15 -16 0 -43 -27 -35 -35 2
-3 22 4 44 14 21 10 62 26 89 36 28 9 64 22 80 29 61 26 259 84 320 93 17 2
40 11 53 19 12 8 22 10 22 4 0 -6 9 -6 23 -1 12 4 67 16 122 25 55 9 123 21
150 26 28 5 84 14 125 20 41 6 95 15 120 20 25 5 68 12 95 15 28 3 79 10 115
15 36 5 68 10 73 10 4 0 7 4 7 10 0 6 -33 7 -89 3 -48 -3 -91 -2 -94 3 -3 5
33 10 79 10 80 1 105 7 92 20 -8 7 -73 8 -139 0 -43 -4 -48 -4 -24 4 17 5 55
12 85 16 30 3 69 8 85 10 109 16 220 21 438 19 165 -2 247 1 244 8 -4 12 -56
14 -342 16 -176 1 -290 -3 -332 -10 -4 -1 -21 -1 -37 0 -52 2 -23 9 64 16 47
4 110 9 140 12 30 2 78 6 105 7 94 4 105 6 105 17 0 7 -33 9 -96 7 -53 -2 -96
-4 -97 -5z"/>
<path d="M4762 9289 c3 -8 22 -17 44 -22 70 -14 78 -16 154 -42 81 -27 77 -27
-135 10 -154 27 -203 35 -255 39 -88 9 -127 9 -137 3 -6 -4 -14 -3 -18 3 -8
13 -75 13 -75 -1 0 -5 -4 -7 -10 -4 -5 3 -10 -1 -10 -9 0 -17 2 -18 40 -21 53
-5 138 -16 215 -29 44 -8 109 -19 145 -25 73 -13 301 -67 495 -118 127 -33
170 -46 210 -64 11 -5 31 -13 45 -18 14 -5 60 -25 103 -45 42 -19 77 -31 77
-25 0 11 -118 68 -235 114 -38 15 -99 40 -135 55 -36 16 -92 36 -125 45 -33
10 -54 20 -48 22 19 7 156 -24 226 -50 100 -38 160 -59 192 -66 17 -5 44 -15
60 -23 17 -8 82 -34 145 -58 63 -24 121 -47 128 -53 14 -11 27 -3 18 11 -3 5
-33 20 -68 35 -148 61 -274 110 -288 112 -8 1 -28 8 -45 15 -16 7 -39 15 -49
17 -11 2 -24 7 -30 12 -11 9 -124 49 -154 55 -9 1 -24 6 -32 9 -23 9 -134 47
-138 47 -2 0 -2 -7 2 -15 4 -11 -1 -15 -17 -14 -12 0 -16 3 -9 6 31 12 5 30
-76 51 -48 13 -94 25 -102 26 -17 4 -66 15 -94 23 -12 3 -17 1 -14 -8z"/>
<path d="M3620 9139 c0 -5 -5 -7 -10 -4 -6 4 -17 1 -25 -5 -11 -9 -15 -9 -15
-1 0 14 -32 11 -42 -4 -5 -6 -8 -5 -8 2 0 15 -61 6 -71 -10 -4 -5 -11 -7 -17
-3 -6 3 -30 2 -54 -4 -24 -6 -59 -13 -78 -16 -19 -2 -44 -8 -55 -11 -23 -8
-40 -12 -75 -17 -14 -2 -32 -7 -40 -10 -8 -3 -26 -7 -40 -10 -14 -3 -71 -16
-127 -30 -56 -14 -114 -26 -128 -26 -14 0 -25 -4 -25 -8 0 -5 -13 -8 -30 -7
-16 1 -30 -2 -30 -7 0 -4 -9 -8 -21 -8 -13 0 -18 -4 -13 -12 5 -9 2 -9 -9 1
-15 12 -17 11 -18 -5 0 -11 -3 -14 -5 -8 -5 12 -41 8 -60 -8 -7 -5 -23 -11
-35 -14 -39 -8 -42 -9 -96 -28 -29 -10 -55 -21 -58 -26 -3 -5 -12 -7 -20 -3
-8 3 -15 0 -15 -6 0 -6 -6 -11 -14 -11 -7 0 -19 -7 -26 -15 -7 -8 -16 -12 -21
-9 -5 3 -16 -2 -25 -10 -8 -9 -24 -16 -35 -16 -11 0 -22 -7 -26 -15 -7 -21 3
-30 19 -18 7 5 32 15 55 23 23 7 40 17 36 23 -4 6 -1 7 6 3 7 -5 21 0 33 11
12 10 18 12 14 6 -4 -7 37 3 91 23 54 19 106 37 116 39 30 7 91 29 102 37 6 4
24 9 41 12 17 3 50 13 75 22 44 16 60 20 113 30 16 2 33 7 37 9 9 6 148 33
204 41 22 2 56 9 76 14 39 11 61 14 149 25 31 4 60 14 68 23 8 11 12 12 12 3
0 -9 7 -11 23 -6 12 4 32 6 45 6 12 0 22 3 22 7 0 4 17 6 39 4 41 -4 65 13 40
29 -8 5 -15 4 -17 -1 -2 -6 -8 -10 -13 -10 -6 0 -7 5 -4 10 3 6 1 10 -4 10 -6
0 -11 -5 -11 -11z"/>
<path d="M3670 9093 c-40 -4 -132 -18 -250 -38 -25 -4 -54 -7 -65 -7 -10 1
-24 -3 -30 -7 -8 -7 -121 -26 -132 -22 -2 0 -21 -6 -44 -14 -23 -8 -54 -15
-70 -15 -16 0 -29 -5 -29 -11 0 -5 -4 -8 -9 -5 -5 4 -36 -1 -68 -10 -32 -9
-71 -19 -88 -24 -16 -4 -46 -14 -65 -23 -19 -8 -60 -25 -90 -37 -30 -13 -68
-29 -85 -36 -16 -7 -42 -16 -57 -19 -16 -4 -28 -11 -28 -16 0 -5 -9 -9 -20 -9
-11 0 -20 -7 -20 -15 0 -18 4 -19 43 -1 88 39 325 127 377 140 8 3 60 16 114
31 54 14 111 28 125 30 37 6 79 14 131 25 25 5 61 12 80 15 19 3 71 12 115 20
110 19 188 29 203 26 6 -1 12 5 12 14 0 8 -3 14 -7 13 -5 0 -24 -3 -43 -5z"/>
<path d="M4517 9053 c-14 -14 -6 -23 21 -23 15 0 59 -6 97 -14 39 -8 88 -17
110 -21 67 -9 177 -33 230 -50 56 -17 75 -19 75 -7 0 7 -134 52 -155 52 -18 0
-87 21 -83 26 3 2 39 -3 82 -11 92 -18 86 -17 86 -6 0 5 -26 15 -57 22 -70 14
-183 21 -183 10 0 -7 -48 -1 -186 24 -17 3 -33 2 -37 -2z"/>
<path d="M2810 6417 c-29 -10 -35 -17 -33 -37 2 -14 5 -131 8 -260 7 -320 20
-578 29 -587 13 -13 507 -5 522 8 18 15 19 180 2 197 -16 16 -38 15 -38 -2 0
-17 -64 -26 -191 -26 -55 0 -99 1 -99 3 0 1 -7 56 -16 122 -25 184 -30 308
-17 445 8 87 8 129 1 137 -13 17 -121 16 -168 0z"/>
<path d="M4935 6420 c-16 -4 -55 -8 -86 -9 -81 -2 -89 -13 -90 -142 -1 -57 -1
-244 0 -416 1 -242 4 -315 14 -325 10 -10 73 -13 278 -13 330 0 321 -3 317
113 l-3 77 -197 -3 -198 -3 0 63 c0 112 -8 106 140 104 104 -1 132 2 145 14
15 16 19 55 13 140 l-3 45 -137 3 -138 3 0 69 0 70 53 2 c28 2 108 3 177 3
l125 0 -3 85 c-4 110 -7 116 -44 124 -42 8 -326 5 -363 -4z"/>
<path d="M3492 6403 c-37 -5 -49 -22 -33 -51 6 -11 8 -22 5 -25 -10 -10 -6
-236 6 -347 7 -58 9 -132 5 -164 -3 -33 -3 -120 1 -193 l7 -134 96 3 96 3 2
160 c1 88 7 244 12 347 6 102 9 192 6 200 -2 7 -7 38 -9 68 -10 99 -17 121
-43 131 -24 9 -86 10 -151 2z"/>
<path d="M3797 6387 c-13 -34 77 -331 164 -542 12 -27 35 -86 51 -130 16 -44
37 -100 47 -125 10 -28 29 -53 51 -68 31 -21 44 -23 120 -20 47 1 91 -1 98 -5
18 -12 30 -1 61 61 67 134 99 226 160 462 10 41 35 133 55 203 51 175 52 171
-57 174 -49 2 -97 -1 -107 -7 -9 -5 -23 -31 -29 -57 -7 -26 -16 -52 -21 -58
-4 -5 -18 -43 -30 -84 -12 -41 -37 -109 -56 -151 -18 -43 -43 -115 -53 -160
-11 -45 -22 -84 -24 -86 -7 -7 -64 129 -97 232 -18 54 -38 113 -46 130 -8 18
-19 54 -26 80 -7 27 -23 67 -36 89 -13 22 -27 47 -31 55 -11 21 -186 27 -194
7z"/>
<path d="M2763 5086 c-14 -21 -30 -53 -35 -70 -6 -17 -16 -38 -23 -46 -7 -8
-33 -59 -58 -112 -25 -54 -50 -98 -55 -98 -12 0 -42 34 -42 49 0 6 -18 30 -39
53 -22 22 -45 55 -51 72 -6 17 -28 65 -50 106 l-38 75 -52 3 c-70 4 -95 -13
-108 -75 -24 -109 -64 -384 -82 -558 -5 -49 -14 -106 -20 -125 -5 -19 -13 -61
-16 -92 -5 -48 -3 -58 13 -66 29 -14 204 0 213 18 5 8 16 60 25 115 9 55 25
138 36 184 14 57 18 102 14 145 -3 33 -2 54 1 46 4 -8 33 -70 65 -137 58 -119
92 -163 130 -163 18 0 89 93 89 116 0 7 18 36 40 65 22 29 45 69 52 89 l12 35
12 -70 c7 -38 20 -137 29 -219 17 -160 32 -206 68 -207 12 0 55 -4 96 -8 75
-7 101 1 101 34 0 20 -29 165 -45 220 -7 28 -23 115 -35 195 -12 80 -28 183
-36 230 -8 47 -14 117 -14 157 l0 72 -42 5 c-24 3 -63 5 -87 3 -39 -2 -46 -6
-68 -41z"/>
<path d="M3810 5091 l-65 -16 -2 -125 c-1 -69 -2 -172 -3 -230 -3 -169 -23
-261 -68 -312 -11 -14 -31 -18 -81 -18 -54 0 -71 4 -103 26 -42 29 -44 37 -52
174 -3 47 -12 113 -21 148 -14 53 -15 74 -5 135 6 40 10 99 8 132 -4 70 -7 72
-135 74 l-82 1 4 -293 c5 -323 7 -336 71 -433 59 -89 117 -122 259 -149 91
-17 178 -5 261 36 59 29 65 35 98 103 20 40 36 86 36 102 0 16 9 85 19 154 42
267 42 270 30 380 -6 58 -14 108 -17 111 -16 15 -92 15 -152 0z"/>
<path d="M4343 5090 c-129 -34 -167 -64 -215 -170 -35 -76 -33 -123 5 -177 45
-63 111 -100 262 -148 135 -43 156 -54 181 -100 15 -27 1 -63 -30 -75 -45 -17
-142 -23 -179 -11 -20 7 -51 13 -69 13 -19 1 -55 15 -87 35 -81 52 -87 47 -83
-72 3 -137 9 -154 56 -170 74 -26 394 -19 476 10 53 19 81 43 125 110 28 43
33 57 30 100 -3 59 -22 139 -42 178 -19 38 -90 81 -187 113 -45 15 -99 36
-121 47 -59 28 -145 95 -145 112 0 57 207 44 332 -22 102 -53 112 -35 82 157
-10 60 -47 76 -194 83 -104 5 -137 3 -197 -13z"/>
<path d="M5598 5081 c-73 -29 -113 -57 -173 -124 -71 -78 -127 -189 -133 -263
-3 -42 2 -72 23 -132 60 -169 117 -252 206 -297 75 -38 306 -79 419 -73 l65 3
-3 120 c-4 147 -9 154 -78 127 -32 -13 -89 -22 -165 -27 -105 -7 -121 -5 -163
13 -25 12 -46 27 -46 35 0 8 -6 20 -13 26 -8 6 -20 35 -27 64 -11 48 -10 62 9
137 33 131 45 150 125 190 60 30 80 35 161 38 l92 4 37 -33 c30 -26 41 -31 54
-22 14 9 16 25 13 94 -2 46 -7 92 -12 101 -15 27 -75 38 -214 37 -102 0 -140
-4 -177 -18z"/>
<path d="M4950 5084 c-13 -4 -15 -32 -14 -184 1 -98 5 -183 8 -188 3 -6 6
-124 6 -263 1 -165 5 -258 12 -266 11 -14 74 -16 148 -5 l45 7 0 135 c0 74 4
232 9 350 9 218 -1 378 -26 407 -10 12 -150 17 -188 7z"/>
</g>
</svg>
